<svg id="Layer_1" data-name="Layer 1" xmlns="http://www.w3.org/2000/svg" viewBox="0 0 215 127"><defs><style>.cls-1{fill:#fbfbfb;}.cls-2{fill:#7f3f98;}</style></defs><title>kubernetes.io-logos</title><rect class="cls-1" x="-3.55202" y="-3.16104" width="223.25536" height="134.51136"/><g id="layer1"><g id="g5064"><path id="path16" class="cls-2" d="M16.26474,100.08583h2.63967V21.76665H16.26474Z"/><g id="g4957"><g id="g18"><path id="path20" d="M32.08633,77.644h2.98683v9.65H46.89138v-9.65H49.877v22.44268H46.89138V89.80815H35.07316v10.27851H32.08632Z"/></g><path id="path32" d="M60.21862,98.10674c2.79681,0,5.06008-2.19994,5.06008-6.1296,0-3.96012-2.26327-6.16006-5.06008-6.16006-2.798,0-5.0613,2.19994-5.0613,6.16006,0,3.92966,2.26327,6.1296,5.0613,6.1296m0-14.6467c5.15509,0,7.88978,3.73963,7.88978,8.5171,0,4.747-2.73469,8.48787-7.88978,8.48787s-7.88978-3.74085-7.88978-8.48787c0-4.77747,2.73469-8.5171,7.88978-8.5171"/><path id="path36" d="M70.18285,83.83636h2.51421v2.38875h.06334a5.9899,5.9899,0,0,1,5.24889-2.76635c1.98067,0,3.8042.7869,4.4632,2.76635a6.017,6.017,0,0,1,5.093-2.76635c3.23777,0,5.406,1.35212,5.406,4.71534v11.91325H90.30015V89.43121c0-2.01112-.53476-3.61415-3.144-3.61415A3.93617,3.93617,0,0,0,82.91345,89.966v10.12139H80.24089V89.43124c0-2.10613-.66022-3.61416-3.04774-3.61416A4.38234,4.38234,0,0,0,72.85541,89.966v10.12139H70.18285V83.83636Z"/><path id="path40" d="M107.33036,90.406a4.67715,4.67715,0,0,0-4.68368-4.58988,4.62924,4.62924,0,0,0-4.652,4.58988Zm2.57755,4.52531c-.72357,3.58493-3.30112,5.53271-6.947,5.53271-5.18676,0-7.63762-3.58249-7.796-8.55,0-4.87127,3.20732-8.455,7.63885-8.455,5.752,0,7.51216,5.37556,7.355,9.30523H97.99467c-.0938,2.82848,1.508,5.3427,5.0613,5.3427a3.91593,3.91593,0,0,0,4.21105-3.17566Z"/><path id="path44" d="M130.7791,98.10674c5.46936,0,7.76431-4.71413,7.76431-9.24191,0-4.52531-2.29495-9.24069-7.76431-9.24069s-7.76432,4.71535-7.76432,9.24069c0,4.52775,2.29494,9.24191,7.76432,9.24191m0-20.99679c7.13576,0,10.74993,5.657,10.74993,11.75488,0,6.09915-3.61417,11.75732-10.74993,11.75732-7.13455,0-10.74994-5.65817-10.74994-11.75732,0-6.09793,3.61539-11.75488,10.74994-11.75488"/><path id="path48" d="M145.49607,86.194h-2.73468v-2.3583h2.73468v-2.4192c0-2.64088,1.57138-4.02346,4.49487-4.02346a6.5649,6.5649,0,0,1,1.72852.25094v2.32662a4.96452,4.96452,0,0,0-1.508-.22049c-1.28877,0-2.04279.40931-2.04279,1.82231v2.26328h3.14276V86.194h-3.14276v13.89391h-2.67256Z"/><path id="path52" d="M154.932,86.194h-2.73469v-2.3583H154.932v-2.4192c0-2.64088,1.57137-4.02346,4.49487-4.02346a6.56483,6.56483,0,0,1,1.72851.25094v2.32662a4.9645,4.9645,0,0,0-1.508-.22049c-1.28877,0-2.04279.40931-2.04279,1.82231v2.26328h3.14275V86.194h-3.14275v13.89391H154.932Z"/><path id="path54" d="M162.68916,83.83609h2.67256v16.251h-2.67256Zm2.67256-2.92349h-2.67256V77.64314h2.67256Z"/><path id="path58" d="M179.78878,89.05415a3.7839,3.7839,0,0,0-4.02346-3.23778c-3.86632,0-5.0613,3.049-5.0613,6.34887,0,2.98806,1.35211,5.942,4.747,5.942a4.20121,4.20121,0,0,0,4.4632-3.96011h2.73469c-.59689,3.96011-3.08063,6.31719-7.16744,6.31719-4.96629,0-7.606-3.45823-7.606-8.299,0-4.87127,2.51421-8.70592,7.66931-8.70592,3.67751,0,6.63267,1.72851,7.01029,5.59483h-2.76636Z"/><path id="path62" d="M196.28461,90.406a4.67715,4.67715,0,0,0-4.68368-4.58988,4.62923,4.62923,0,0,0-4.652,4.58988Zm2.57754,4.52531c-.72356,3.58493-3.30111,5.53271-6.947,5.53271-5.18676,0-7.63763-3.58249-7.796-8.55,0-4.87127,3.20732-8.455,7.63885-8.455,5.752,0,7.51216,5.37556,7.355,9.30523H186.94892c-.09379,2.82848,1.508,5.3427,5.0613,5.3427a3.91592,3.91592,0,0,0,4.21105-3.17566Z"/></g><g id="g4970"><path id="path66" d="M45.26532,25.307v1.55676a7.81426,7.81426,0,0,1,1.68344.27774,2.34852,2.34852,0,0,0-1.68344-1.8345"/><path id="path70" d="M44.29264,24.209v.001a1.8516,1.8516,0,0,1-.27042,1.09631,2.37325,2.37325,0,0,1,.62-.08283,4.083,4.083,0,0,1,.62124.08283A1.85056,1.85056,0,0,1,44.99184,24.21v-.001c1.17914,0,1.46784.553,1.46784,1.00739h.22656V22.5h-.22656c0,.45557-.2887,1.00982-1.46784,1.00982,0-1.18035.55424-1.46906,1.00861-1.46906v-.22414H43.284v.22414c.45436,0,1.00861.28871,1.00861,1.46906-1.17914,0-1.46784-.55425-1.46784-1.00982h-.22413v2.7176h.22413c0-.45557.2887-1.00861,1.46784-1.00861"/><path id="path74" d="M44.01978,25.307a2.35073,2.35073,0,0,0-1.68223,1.826,7.52417,7.52417,0,0,1,1.68223-.27529Z"/><path id="path78" d="M45.97475,64.29691a.50065.50065,0,1,1,.50065.50066.50221.50221,0,0,1-.50065-.50066m-.48846,0a.99033.99033,0,1,0,.98911-.98913.99164.99164,0,0,0-.98911.98913"/><path id="path82" d="M42.77365,51.60066l-.11816.83927-.65779-1.33018a.513.513,0,0,1,.23145-.05243.53511.53511,0,0,1,.5445.54328m-.27286,1.94534-1.02322-2.07081a2.81665,2.81665,0,0,0,.31671-.21927l.80031,1.62255Zm-.1547,1.10728-1.441-2.91739a2.885,2.885,0,0,0,.35326-.14251l1.18158,2.39359ZM42.1926,55.763,40.26553,51.8613a2.79644,2.79644,0,0,0,.39467-.05963l1.625,3.29137-.09258.67ZM42.03668,56.869l-2.49106-5.04545a2.686,2.686,0,0,0,.44584.04386l2.139,4.33409-.0938.66753ZM39.17044,51.7261a.48155.48155,0,0,0,.05847.01948l2.73225,5.5327a4.5429,4.5429,0,0,1-2.79072-5.55221m4.5034-.46045a.883.883,0,0,0-.88314-.88314l-.16079-.001H37.81345a.76294.76294,0,0,0-.75767.76376h0a.54892.54892,0,1,0,1.09753-.01826,2.87814,2.87814,0,0,0,.36666.28627,9.21528,9.21528,0,0,0-.17663,1.24.37457.37457,0,0,0-.68946.201.37431.37431,0,0,0,.37518.374.3672.3672,0,0,0,.30088-.1547,5.75039,5.75039,0,0,0,.05725.82711.37381.37381,0,1,0,.09745.49578c.00731.03284.01584.06451.02314.09746a4.78021,4.78021,0,0,0,.22536.65171.36162.36162,0,0,0-.18029-.04628.374.374,0,1,0,.36788.43366,4.58926,4.58926,0,0,0,.46288.69433.42063.42063,0,0,0-.07065-.00681.37458.37458,0,1,0,.374.37519l-.00118-.02436a6.52166,6.52166,0,0,0,2.19262,1.43373L41.72124,59.138a6.23916,6.23916,0,0,0,.90141.324c.5311.14983,1.05367.23509,1.05367.23509l-.00243-8.43062Z"/><path id="path86" d="M40.37285,29.05362a.59018.59018,0,1,1,.59079.5908.59136.59136,0,0,1-.59079-.5908"/><path id="path90" d="M32.73815,33.11226a.58958.58958,0,1,1,.58958.58958.59006.59006,0,0,1-.58958-.58958"/><path id="path94" d="M32.42338,31.62494a.59018.59018,0,1,1,.59079.58958.59136.59136,0,0,1-.59079-.58958"/><path id="path98" d="M32.56845,30.11335a.59079.59079,0,1,1,.59079.58958.59215.59215,0,0,1-.59079-.58958"/><path id="path102" d="M33.36755,28.82448a.59018.59018,0,1,1,.58957.5908.59006.59006,0,0,1-.58957-.5908"/><path id="path106" d="M34.5976,27.94071a.59018.59018,0,1,1,.59079.58959.59033.59033,0,0,1-.59079-.58959"/><path id="path110" d="M36.08615,27.67589a.59019.59019,0,1,1,.58958.58958.59007.59007,0,0,1-.58958-.58958"/><path id="path114" d="M37.55961,27.98285a.59018.59018,0,1,1,.58957.58959.59007.59007,0,0,1-.58957-.58959"/><path id="path118" d="M38.97908,28.5308a.59018.59018,0,1,1,.58957.58958.59006.59006,0,0,1-.58957-.58958"/><path id="path122" d="M48.913,29.05362a.58957.58957,0,1,0-.59079.5908.59058.59058,0,0,0,.59079-.5908"/><path id="path126" d="M56.54866,33.11226a.59018.59018,0,1,0-.58957.58958.59006.59006,0,0,0,.58957-.58958"/><path id="path130" d="M56.86244,31.62494a.59018.59018,0,1,0-.59079.58958.59058.59058,0,0,0,.59079-.58958"/><path id="path134" d="M56.71639,30.11335a.58957.58957,0,1,0-.58957.58958.59033.59033,0,0,0,.58957-.58958"/><path id="path138" d="M55.91962,28.82448a.59019.59019,0,1,0-.58958.5908.59007.59007,0,0,0,.58958-.5908"/><path id="path142" d="M54.688,27.94071a.59018.59018,0,1,0-.58957.58959.59007.59007,0,0,0,.58957-.58959"/><path id="path146" d="M53.19992,27.67589a.59018.59018,0,1,0-.58957.58958.58929.58929,0,0,0,.58957-.58958"/><path id="path150" d="M51.72721,27.98285a.59018.59018,0,1,0-.58957.58959.59007.59007,0,0,0,.58957-.58959"/><path id="path154" d="M50.30677,28.5308a.59019.59019,0,1,0-.58958.58958.58929.58929,0,0,0,.58958-.58958"/><path id="path158" d="M49.69744,37.52391a.64926.64926,0,1,0-.64925.648.64985.64985,0,0,0,.64925-.648"/><path id="path162" d="M51.84841,48.70155H45.65792V41.6547h6.19049Zm-6.39027-7.24661v7.444h6.58639l.00244-7.44517-6.58883.001Z"/><path id="path166" d="M51.214,42.10139v.19369h.1949v5.76538H51.214v.1937H46.29159v-.1937H46.0979V42.29508h.19369v-.19369Zm-4.92243-.19491h-.38737V48.449h5.6996V41.90648H46.29159Z"/><path id="path170" d="M50.92313,43.79409l-.30575.28871H50.615s-.01949.017-.04751.045l-.00117-.001-.57618.53962a.46577.46577,0,0,0-.08527.6176l.33377.46289a.18392.18392,0,0,1,.03654.14739.20212.20212,0,0,1-.078.12913.1981.1981,0,0,1-.14739.03527.19087.19087,0,0,1-.12912-.078s-.32768-.447-.49334-.67362v-.64074l.80517-.75888v-.68338l-.28382-.28506.3496-.346H48.87551l-.34229.33864v.37885a.303.303,0,1,1,.15226.56394.31485.31485,0,0,1-.15226-.04258v.46289h-.48238l-.58835-.79666a.3847.3847,0,0,0,.134-.29355.38818.38818,0,0,0-.61149-.3167v.63592c.00848.00586.01827.01091.028.01823l.55546.75279.28626.38857H48.504l-.35813.35813h-.65535a.3872.3872,0,0,0-.72113,0,.36694.36694,0,0,0-.028.14251.37834.37834,0,0,0,.08893.24606H48.398l.27164.36666H47.605v.01344l.40563.55913.21926.30331h-.54207a.38823.38823,0,0,0-.74062,0,.40366.40366,0,0,0-.01827.11571.39007.39007,0,0,0,.11085.27286h1.92342l-.28261-.38857-.21926-.30331h.62855l.2217.30331.28626.38857h.90507V47.495h-.123a.38959.38959,0,0,0-.74183,0,.45161.45161,0,0,0-.01706.11694.39359.39359,0,0,0,.10963.27163l1.16209.001v-1.212h-.77351l-.38005-.51648a.45134.45134,0,0,0,.27164.151.446.446,0,0,0,.33377-.08038.44553.44553,0,0,0,.09745-.62732l-.33376-.4629a.21783.21783,0,0,1,.05237-.285c.00117-.001.07187-.06694.16323-.15348a.3577.3577,0,0,0,.60175-.24972v-.001l.00118.001-.00371-.65415Z"/><path id="path174" d="M43.74973,37.5215l.89288-.89411.89532.89411-.89532.89412Z"/><path id="path178" d="M39.58959,37.52391a.64865.64865,0,1,1,.648.648.64959.64959,0,0,1-.648-.648"/><path id="path182" d="M47.33321,54.301l-.39346-.39223h.78569Zm4.25-.05234v.001h-.03046a.48531.48531,0,0,0,.04507-.201.45669.45669,0,0,0-.45557-.45679H49.499a.38685.38685,0,0,0-.66022-.26314l-.51649.51649h.48847l.00244.002h2.32905a.20037.20037,0,1,1,0,.40074v.001H50.035v-.001H47.88624v-.46168l.5713-.57129H46.20766l.56887.56885v.84294l-.91481-.72966a.39468.39468,0,0,0-.27042-.68216.38755.38755,0,0,0-.24972.089v.68436l1.39231,1.11094-.65657.20464a.39478.39478,0,1,0-.68093.37275h.80884l3.54595-1.1v.54693l-.45923.21073a.39471.39471,0,1,0-.68946.3423h.88923l.55547-.25459.35812-.16568-.16444-.35934-.07553-.16324h1.30218c-.01462.0499-.03046.10233-.04751.1547-.03045.09374-.06456.18638-.09623.27042a.39086.39086,0,0,0-.2887-.12669.39484.39484,0,0,0-.39467.39589.38989.38989,0,0,0,.08892.2485h.80884a5.94351,5.94351,0,0,0,.24727-.66265,6.63113,6.63113,0,0,0,.19247-.7662h-.39467"/><path id="path186" d="M47.33321,51.45764l-.39346-.39345h.78569Zm4.3158-.05243a.45428.45428,0,0,0-.40929-.65655H49.499a.38685.38685,0,0,0-.66023-.26313l-.51648.5177h2.9174a.201.201,0,1,1,0,.40195H47.88623v-.46289l.5713-.57007H46.20766l.56886.56885v.84171l-.916-.72965a.38906.38906,0,0,0,.12546-.28749.39457.39457,0,0,0-.39467-.39467.38913.38913,0,0,0-.24971.09014v.58349h0v.10111l1.39231,1.10972-.65657.20464a.39525.39525,0,0,0-.76985.12425.40094.40094,0,0,0,.08892.25094l.6115-.001h.19733l3.546-1.10119v.57983l-.47507.14739a.39548.39548,0,1,0-.68093.37519l.61149-.001h.19612l.88679-.2753.43365-.13523-.33011-.3094-.23875-.22415h1.56529V52.329a.39645.39645,0,0,0-.69676.25581.38823.38823,0,0,0,.09014.251l.61149-.001h.38858V51.4059H51.649Z"/><path id="path190" d="M47.33321,57.14178l-.39346-.39223h.78569Zm-.26312.70774h0Zm3.10865-1.41788H49.499a.38688.38688,0,0,0-.66023-.26192l-.51648.51648h.48847l.00243.002.59932-.001h.7662a.201.201,0,1,1,0,.40195H47.88623v-.46167l.5713-.57129H46.20766l.56887.56885v.96109l-.927-.83687a.39515.39515,0,0,0-.508-.60534v.6785l1.46784,1.3253.06821-.07426L45.93846,59.171a.386.386,0,0,0-.285-.08282.39453.39453,0,0,0-.352.43366.40286.40286,0,0,0,.09258.21561c.13643-.0122.346-.0304.64439-.08039l1.04393-1.2169c.13887-.04746.28139-.10233.42634-.16446l.41051.37031q-.12425.06023-.2485.11328a.39559.39559,0,0,0-.62368.44582.54907.54907,0,0,0,.1279.16931c0,.001.16445-.05359.32524-.1145.15349-.05846.3021-.123.3021-.123l.01218-.00586c.17541-.07678.352-.15836.497-.23752V57.8593a4.29086,4.29086,0,0,0,.67363-.497l.39589.3569c-.084.06822-.17176.13278-.25825.19854a.38053.38053,0,0,0-.37761.001.386.386,0,0,0-.18272.23387.42409.42409,0,0,0-.011.14617.41218.41218,0,0,0,.04872.14739.46656.46656,0,0,0,.1949.16808c.17906-.11084.35569-.23021.52623-.35446q.19368-.14061.3764-.2899c.039-.03295.07918-.06578.11816-.09867V57.345h.363a.4568.4568,0,1,0,0-.91359"/><path id="path194" d="M39.0932,47.75605l-.39223-.39223h.78447Zm4.317-.05115a.46529.46529,0,0,0,.04629-.2022.45565.45565,0,0,0-.45558-.45557h-1.7407a.38862.38862,0,0,0-.38736-.37641A.38167.38167,0,0,0,40.6,46.784l-.51648.51648h.48968v.001s.57374.001.5981.001h1.82962a.19915.19915,0,0,1,.19978.19976.20119.20119,0,0,1-.19978.20219H41.79622v-.001H39.64745v-.46289l.57008-.57007H37.96888l.56886.56885v.84293l-.916-.72965a.39475.39475,0,0,0-.26921-.68338.38547.38547,0,0,0-.25093.09014v.5847h0v.09868l1.39475,1.11213-.659.20342a.3943.3943,0,0,0-.76864.12425.38357.38357,0,0,0,.09014.25094s.54207,0,.60541-.001l.201.001,3.54717-1.10119v.57739l-.47507.14861a.39538.39538,0,1,0-.68214.37519s.5445,0,.6054-.001l.20221.001.888-.27652.43244-.134-.33011-.31063-.23632-.22537h1.56285v.441a.39532.39532,0,0,0-.60784.50554l.61271-.001h.3898V47.70484h-.4641Z"/><path id="path198" d="M39.0932,45.01418l-.39223-.39224h.78447Zm4.317-.05116a.46389.46389,0,0,0,.04629-.201.45592.45592,0,0,0-.45558-.4568h-1.7407a.38758.38758,0,0,0-.38736-.37519.38168.38168,0,0,0-.27286.11328l-.51648.51648h.48968v.001h2.42772a.201.201,0,0,1,0,.402H39.64745v-.4629l.57008-.57007H37.96888l.56886.56764v.84293l-.916-.72966a.39471.39471,0,0,0-.52014-.59318v.6846l1.39475,1.11094-.659.20464a.39407.39407,0,0,0-.76864.123.38824.38824,0,0,0,.09014.25094h.8064l3.54717-1.10119v.57983l-.47507.14739a.39477.39477,0,0,0-.76985.123.4.4,0,0,0,.08771.25094h.80761l.888-.27408.43243-.13644-.33011-.31063-.23631-.22414h1.56285v.43975a.395.395,0,0,0-.69677.2546.401.401,0,0,0,.08892.25094h1.00252V44.96282h-.4641Z"/><path id="path202" d="M39.0932,42.27313,38.701,41.8809h.78447Zm4.317-.05115a.464.464,0,0,0,.04629-.201.45514.45514,0,0,0-.45558-.45679h-1.7407A.38685.38685,0,0,0,40.6,41.30107l-.51648.51649H40.572l.00117.001s.5043.001.58714.001H43.0009a.20037.20037,0,0,1,0,.40074v.001H41.79617v-.001H39.64741v-.46168l.57008-.57129H37.96883l.56887.56885v.84294l-.916-.72966a.39471.39471,0,0,0-.52014-.59318v.6846l1.39476,1.11094-.659.20464a.39406.39406,0,0,0-.76863.123.38589.38589,0,0,0,.09014.25094s.55911,0,.60784-.001h.19855l3.54717-1.1v.57861l-.47506.14861a.39946.39946,0,0,0-.37518-.27164.3968.3968,0,0,0-.307.64561s.56155,0,.60784-.001h.19978l.888-.2753.43243-.134-.33011-.31062-.23631-.22415h1.56285v.43976a.39532.39532,0,0,0-.60785.50554l.61272-.001h.3898V42.22225h-.4641Z"/><path id="path206" d="M55.43676,49.218h0a.47.47,0,0,0,.095-.86366.48074.48074,0,0,0-.35935-.04015.47087.47087,0,0,0,.26433.90387"/><path id="path210" d="M54.07721,50.27134l.06334.43122s1.52874-.22414,1.54823-.22658c.01949.00975,1.55189.76742,1.55189.76742l-.07552-.51892s-.994-.49212-1.07195-.53233c.06578-.05963.87583-.8076.87583-.8076l-.07674-.51892-.04507.04258s-1.20107,1.12189-1.21569,1.13652c-.02192.002-1.55432.22658-1.55432.22658"/><path id="path214" d="M55.27743,51.75477a.47084.47084,0,0,0,.94161-.01094.47421.47421,0,0,0-.47628-.46533.47329.47329,0,0,0-.46533.47627"/><path id="path218" d="M56.67949,53.287c-.00848.05478-.05725.40686-.05725.40686a.37883.37883,0,0,1-.46776.35325.38539.38539,0,0,1-.36665-.40077.684.684,0,0,1,.00487-.08526s.04263-.29478.056-.391c.05847.00681.77351.1084.83076.11694m-2.46426-.76255-.05725.40687s1.19132.16808,1.25223.17784c-.006.05359-.05.3569-.05.3569a1.34987,1.34987,0,0,0-.01461.19491.84525.84525,0,0,0,.15957.5238.82779.82779,0,0,0,.57008.31063.80879.80879,0,0,0,.98546-.73941l.11938-.84659-2.96126-.41659-.0037.03167Z"/><path id="path222" d="M53.93385,54.27179l-.486,1.46418.419.14008.35934-1.07927c.056.01947.74427.24728.80031.26676-.01949.05846-.3362,1.00983-.3362,1.00983l.42025.14007s.31671-.95258.3362-1.011c.05482.01948.71991.24.776.25826l-.34838,1.04515.42025.14008.486-1.46175-2.837-.944-.00974.03167Z"/><path id="path226" d="M53.365,55.99979l-.20343.32035s1.69563,1.07683,1.84546,1.173c-.18029.01463-2.742.23875-2.742.23875l-.19733.30819,2.52395,1.60181.2217-.34717s-1.70781-1.08534-1.85764-1.18036c.18028-.01588,2.76635-.24972,2.76635-.24972l.18394-.2899L53.38324,55.973l-.01827.02679Z"/><path id="path230" d="M52.35162,59.59727c-.30209.05478-.58713.1084-.76985-.08039a.35974.35974,0,0,1,.04751-.51648.82885.82885,0,0,1,.76254-.173l.10354.01832-.45436-.46411h-.01583a1.135,1.135,0,0,0-.73575.33133.74924.74924,0,0,0-.23023.52867.84556.84556,0,0,0,.25824.60053,1.11677,1.11677,0,0,0,1.17549.21439c.27773-.06091.51648-.11206.67362.0499a.28479.28479,0,0,1,.08527.20464.42308.42308,0,0,1-.13887.28871.8247.8247,0,0,1-.62977.20463l-.08283-.002.4032.41052.01462-.002a1.01033,1.01033,0,0,0,.58226-.27286.83649.83649,0,0,0,.27651-.58836.80256.80256,0,0,0-.25093-.57373,1.09355,1.09355,0,0,0-1.07439-.17784"/><path id="path234" d="M50.53332,59.45428l-1.28024.86244.24849.36788s.89167-.60053.94161-.63464c.03289.04755.43853.65049.47142.698-.05.03527-.88314.59565-.88314.59565l.24728.36666s.83319-.56035.88313-.59443c.03411.04755.42513.62854.4568.6785-.05116.03411-.91359.61516-.91359.61516l.24728.36787,1.279-.86244L50.56012,59.436l-.0268.01832Z"/><path id="path238" d="M39.44013,61.42873c-.05116-.03283-1.13772-.72112-1.18889-.754.03289-.05243.68093-1.07561.68093-1.07561l-.37518-.23753-.017.02808L36.9576,61.88681l.37518.23753s.648-1.02322.68093-1.07562c.05116.03284,1.13772.72112,1.1901.754-.03411.05243-.68215,1.0744-.68215,1.0744l.37518.23874,1.5994-2.52638-.37518-.23631s-.648,1.022-.68093,1.07561"/><path id="path242" d="M37.42815,59.21393a1.12468,1.12468,0,0,1-.39345.76864,1.00564,1.00564,0,0,1-1.4654-.01948.95967.95967,0,0,1-.2485-.69554,1.1986,1.1986,0,0,1,1.20229-1.0683.97041.97041,0,0,1,.90506,1.01468m.458.01948a1.37005,1.37005,0,0,0-.35935-1.00374,1.45146,1.45146,0,0,0-2.11466-.06822,1.57971,1.57971,0,0,0-.54937,1.0829,1.38121,1.38121,0,0,0,.36909,1.01836,1.45833,1.45833,0,0,0,2.10492.06091,1.61071,1.61071,0,0,0,.54937-1.09021"/><path id="path246" d="M36.32832,56.70423s-1.82353.85634-1.98067.93063c.08039-.15958,1.25223-2.47889,1.25223-2.47889l-.15713-.33743-.03045.01464-2.67622,1.25589.17907.38248s1.83571-.86366,1.99284-.938c-.07918.15958-1.25466,2.50568-1.25466,2.50568l.1486.31673,2.70424-1.2705-.17785-.38125Z"/><path id="path250" d="M35.30484,54.01353l-.03167.00877-2.86746.72112.10842.43122,2.89913-.73087-.10842-.43Z"/><path id="path254" d="M33.91693,53.02039a.46873.46873,0,0,0-.659.08892.47062.47062,0,1,0,.8405.2217.467.467,0,0,0-.1815-.31062"/><path id="path258" d="M33.7331,51.88839c.173-.25338.33743-.49091.60176-.48847a.32471.32471,0,0,1,.22291.0999.39843.39843,0,0,1,.1072.29843.83113.83113,0,0,1-.4166.66387l-.08527.05963.65048.00586.00975-.0122a1.1223,1.1223,0,0,0,.28626-.754.74656.74656,0,0,0-.21074-.536.8557.8557,0,0,0-.60784-.2424,1.11849,1.11849,0,0,0-.9818.67972c-.15349.23874-.285.4446-.51284.44216a.284.284,0,0,1-.20464-.08526.418.418,0,0,1-.106-.30087.82606.82606,0,0,1,.30088-.592l.05968-.05478-.575-.00586-.00974.01344a1.02579,1.02579,0,0,0-.218.603.84027.84027,0,0,0,.2217.61272.796.796,0,0,0,.58227.22659c.447.00487.67971-.33255.88558-.63342"/><path id="path262" d="M32.84594,48.96942a.96013.96013,0,0,1,.43365-.59687,1.19593,1.19593,0,0,1,1.56042.38616.954.954,0,0,1,.106.72844,1.01576,1.01576,0,0,1-1.28633.70286,1.00535,1.00535,0,0,1-.81371-1.22056M33.55,50.631a1.605,1.605,0,0,0,1.20838-.16324,1.36546,1.36546,0,0,0,.62489-.86488,1.39776,1.39776,0,0,0-.1486-1.078,1.59721,1.59721,0,0,0-.99156-.70286A1.44353,1.44353,0,0,0,32.40742,48.861a1.55455,1.55455,0,0,0-.04507.36056,1.35992,1.35992,0,0,0,.19734.70651,1.60113,1.60113,0,0,0,.99033.70286"/><path id="path266" d="M53.47058,45.52736c.07674-.01832.82711-.20464.96476-.23753-.0804.1145-.525.75523-.5713.82345-.04507-.067-.35082-.52136-.39346-.58592m.12425.97815c-.00848.0122-.07187.106-.15227.22293V46.279c.08162.12181.145.21561.15227.22658M51.56422,62.97577a24.289,24.289,0,0,1-3.82856-.92456c-.07552-.02192-.14983-.04747-.22657-.07066a2.43935,2.43935,0,0,1,.99277-1.8674,9.12982,9.12982,0,0,0,2.31443-1.558,7.57461,7.57461,0,0,0,1.692-2.10736,9.10691,9.10691,0,0,0,.93917-6.869l-.0037-1.45687.42756,1.0683.41172-.16446s-.40807-1.022-.43121-1.078c.05847-.02436,2.36437-.94648,2.36437-.94648l-.162-.40321-.03045.0122-2.58,1.03052v-.1754l1.71755-2.474-.17175-.25338-.02193.00487-1.52874.36056-.0037-2.88694c.15592.14007.30818.28505.45679.43244A13.07356,13.07356,0,0,1,55.99932,58.37a13.17384,13.17384,0,0,1-4.43519,4.60573M54.283,62.6834a2.30047,2.30047,0,0,1-1.60427.38492,14.06165,14.06165,0,0,0,1.78455-1.53,1.11082,1.11082,0,0,1-.18028,1.145M47.03637,66.2013a53.94779,53.94779,0,0,1-6.09061-1.76018c.1413-.35568.38371-.96962.63829-1.60914l.39833.16809a.72206.72206,0,0,0-.00371.07435.99248.99248,0,1,0,.25337-.66022L41.81788,62.24c.22657-.57007.43609-1.1.56277-1.42032,1.45688.6176,3.34619,1.34725,5.14292,1.90879a21.761,21.761,0,0,0,4.62521,1.02443c-2.03792.97694-4.97847,2.38509-5.11246,2.44844m-.31062,3.2122a1.79849,1.79849,0,0,1-.173.77352.60016.60016,0,0,1-1.08534-.117c-.0134-.04387-.04629-.16568-.08771-.335a.58849.58849,0,0,0,.21805.04143.59443.59443,0,1,0,0-1.18886.58835.58835,0,0,0-.4434.19976c-.18272-.776-.37518-1.614-.37518-1.614h-.28261s-.19.83564-.374,1.61157a.58734.58734,0,0,0-.441-.19735.59443.59443,0,1,0,.21439,1.14871c-.04142.16931-.07309.29112-.08771.33377a.60022.60022,0,0,1-1.089.11086,1.80937,1.80937,0,0,1-.17054-.76742V65.71051c1.24127.39345,2.74687.83077,4.177,1.139v2.56409ZM40.34639,64.228c-.12181-.04512-.229-.08411-.31915-.11816h0a13.069,13.069,0,0,1-4.613-21.4609q.2229-.22109.45313-.43244l-.00486,3.56788c-.55547-.37031-1.16209-.77352-1.19133-.793l.50552-.75767-.36909-.24607-.01828.02808-1.2364,1.85763.3691.24485s.47019-.70774.50308-.75767c.0329.02192.82955.55181,1.43739.95624l-.00117,1.251-2.52395-1.17063-.01217.0304-.17419.37153,2.7091,1.25833-.00244,1.53485a9.08932,9.08932,0,0,0,.91968,6.82148,7.66632,7.66632,0,0,0,1.76993,2.19506,9.20194,9.20194,0,0,0,.83807.67606c.02315.01589.04507.03168.06822.04628.03288.0232.06578.04755.09988.07066.0402.02807.08162.05359.123.08166.01462.00976.02924.01948.04507.02924.23145.14982.47264.2899.71748.42024l-.00117.0039c.33742.16931.804.38735,1.35821.631l-.564,1.4252-.26068-.10962a.3182.3182,0,1,0-.24849.58589l.27408.11572-.65048,1.64324Zm-3.78105-14.3227h7.90318V60.2557a8.37516,8.37516,0,0,1-4.5302-1.44956l-.006-.00488c-.04872-.03283-.09867-.06822-.14739-.10233-.01827-.01335-.03533-.02679-.05238-.039-.03411-.02435-.067-.04871-.09988-.0731-.04142-.03039-.08162-.06218-.123-.09385l-.028-.02192a8.47169,8.47169,0,0,1-2.10979-2.44478,9.0331,9.0331,0,0,1-.80883-4.14771l.00243-1.97336Zm.00361-2.24255.00974-6.90675h7.88978v8.79362H36.5653l.0036-1.88687Zm.03411-8.37947,2.00137.41293-2.00137.41293v-.82586Zm3.602,0,2.00137.41293-2.00137.41293v-.82586Zm3.69456,0,2.00259.41293-2.00259.41293v-.82586Zm3.69578,0,2.0026.41293-2.0026.41293v-.82586ZM44.823,49.54963V40.756h7.90074l.011,6.90675.00244,1.88687Zm2.39726,11.052a4.57391,4.57391,0,0,0-.35691,1.167c-.76376-.25581-1.51291-.52867-2.21576-.79787h.00614a9.07232,9.07232,0,0,0,2.56658-.3691m-2.39726-.346V49.90531h7.91414l.00487,1.97335A8.97245,8.97245,0,0,1,51.91,56.069a8.50979,8.50979,0,0,1-1.51657,1.91245c-.03776.03411-.07552.06822-.11207.10233A8.36085,8.36085,0,0,1,44.823,60.2557m6.41341-20.97241,2.00138.41293-2.00138.41293v-.82586Zm7.1784,12.60513a13.66994,13.66994,0,0,0-4.032-9.73157c-.30331-.30453-.62124-.592-.9477-.86488l-.00117-.53352a1.03843,1.03843,0,0,0-.04994-2.07569c-.02315,0-.04385.001-.067.002l1.01592-.46533-.38737-.84781,1.51048-3.507-.6517-.28018-1.5324,3.55935-.8198.37641.53354,1.167h-16.681l.536-1.167-.8271-.37884-1.5324-3.55692-.65048.28018,1.5129,3.51185-.38614.84294,1.01226.46411-.02436-.001a1.038,1.038,0,0,0-.07553,2.07324l-.00116.53718c-.32524.27164-.64318.55913-.94649.86366a13.76327,13.76327,0,0,0,4.86031,22.6059c.0134.00586.151.05719.38493.14129a.94783.94783,0,0,0,1.66639.57373c.01462.00488.0268.011.04142.01463v3.92113a2.767,2.767,0,0,0,5.5254,0V66.80043l6.763-3.23778a1.82859,1.82859,0,0,0,.59932-.35812,1.95758,1.95758,0,0,0,.25459-2.2645,13.70847,13.70847,0,0,0,3.39734-9.05188"/><path id="path270" d="M54.32145,32.84074a1.71653,1.71653,0,0,0-3.09038-.38735,1.71637,1.71637,0,0,0-3.05384-.14129,1.71627,1.71627,0,0,0-1.48976-.86488c-.04507,0-.08893.002-.13278.00488.03655-.21074.07918-.42391.13156-.6383a7.20448,7.20448,0,0,0,3.65193-.78568,7.13428,7.13428,0,0,1,2.52761-.70286,1.85413,1.85413,0,0,1,1.45809.82955,3.013,3.013,0,0,1-.00244,2.686M45.339,29.96114a1.01039,1.01039,0,0,0-1.385-.011c-.00117-.01344-.00117-.02807-.00117-.04259a.69433.69433,0,0,1,1.38866,0c0,.01832-.00243.03527-.00243.05359m-.04385.97572a1.01549,1.01549,0,0,0-1.30827,0,.67923.67923,0,0,1-.04019-.23387.69372.69372,0,1,1,1.38744,0,.70849.70849,0,0,1-.039.23387m-.65413,1.47394a.69372.69372,0,1,1,.69311-.6931.693.693,0,0,1-.69311.6931m0-3.86144a.69387.69387,0,0,1,.68824.60906,1.01438,1.01438,0,0,0-1.37648,0,.69115.69115,0,0,1,.68824-.60906m0-.65656a.69471.69471,0,0,1,.687.59931,1.01282,1.01282,0,0,0-1.37526,0,.69594.69594,0,0,1,.68824-.59931M42.5995,31.44731a1.71332,1.71332,0,0,0-1.48976.86488,1.71687,1.71687,0,0,0-3.05383.14007,1.71652,1.71652,0,0,0-3.09038.391,3.00992,3.00992,0,0,1-.00244-2.6884,1.85257,1.85257,0,0,1,1.45809-.82955,7.14107,7.14107,0,0,1,2.5276.70286,7.20118,7.20118,0,0,0,3.65194.78568q.07674.32159.13155.63829c-.04385-.002-.0877-.00487-.13277-.00487m12.33958-1.68955a2.58258,2.58258,0,0,0-2.07324-1.16454,7.78125,7.78125,0,0,0-2.80412.75645A6.95358,6.95358,0,0,1,46.88851,30.1a6.43414,6.43414,0,0,1,.46533-1.09387l-.648-.32036a2.35938,2.35938,0,0,0,.2619-.80641,7.20239,7.20239,0,0,0-2.36316-.33986,6.58769,6.58769,0,0,0-2.28641.335,2.30056,2.30056,0,0,0,.26189.81126l-.648.32036A6.3379,6.3379,0,0,1,42.39851,30.1a6.96212,6.96212,0,0,1-3.17443-.75036,7.775,7.775,0,0,0-2.80289-.75644,2.57725,2.57725,0,0,0-2.072,1.16453c-.42878.66021-.75036,1.86861.14252,3.85778h.00117l-.01462-.03167,1.329-.57617.0938.21683c-.43853.18881-.85391.69554-.36422,1.83328,1.13894-.48847,1.18889-1.1414.99886-1.58234l.21683-.09258.56277,1.3107.56521,1.30948-.21682.09374c-.19-.43853-.698-.8539-1.8345-.36422a2.38989,2.38989,0,0,0,2.06106,1.60914c1.17915,0,2.05132-.73331,1.92708-1.46662a.80481.80481,0,0,0-.78082-.70286.435.435,0,0,0-.34838.47627.35512.35512,0,0,0,.04872.11694l-.03045.045a.724.724,0,1,1,.56277-1.2437l.07918-.11571a.81424.81424,0,0,1-.42269-.57008c-.11937-.6261.58714-1.23153.5981-1.2376h0c.011,0,.89045.30575,1.00983.93064a.82213.82213,0,0,1-.18516.69066l.11694.07923a.72382.72382,0,1,1,.983.944l-.04507-.03167a.33479.33479,0,0,0,.00117-.12547.43229.43229,0,0,0-.49821-.3155.81761.81761,0,0,0-.46654.94038A1.91946,1.91946,0,0,0,42.329,37.3453a1.94237,1.94237,0,0,0,1.91611-1.9222c-1.33628,0-1.66274.6261-1.66274,1.14258h-.25458V33.48751h.25458c0,.51527.32646,1.14381,1.66274,1.14381,0-1.3375-.62612-1.66395-1.1426-1.66395v-.25581h3.08063v.25581c-.51648,0-1.1426.32645-1.1426,1.664,1.33506,0,1.66274-.62854,1.66274-1.14381h.25336v3.07817h-.25336c0-.51648-.32768-1.14258-1.66274-1.14258a1.94214,1.94214,0,0,0,1.91489,1.9222,1.91755,1.91755,0,0,0,1.88931-1.58966.81717.81717,0,0,0-.46533-.94038.43233.43233,0,0,0-.49821.3155.3616.3616,0,0,0,0,.12547l-.04507.03167a.72433.72433,0,1,1,.98668-.94038l.11572-.08283a.81441.81441,0,0,1-.18759-.69066c.12059-.62611,1.00252-.93064,1.011-.93064.00974.00488.71748.6115.59688,1.2376a.82315.82315,0,0,1-.42756.575l.07674.11816a.72416.72416,0,1,1,.5713,1.23638l-.03045-.045a.35289.35289,0,0,0,.04751-.11694.434.434,0,0,0-.34717-.47627.80484.80484,0,0,0-.78081.70285c-.12547.73332.74914,1.46663,1.92585,1.46663a2.39264,2.39264,0,0,0,2.06228-1.60914c-1.13651-.48968-1.64447-.07434-1.83449.36422l-.21683-.09374.564-1.30948.56277-1.3107.21805.09258c-.19.441-.13887,1.09387.99886,1.58234.48968-1.13774.0743-1.64447-.36422-1.83328l.09136-.21683,1.33141.57617-.01462.03167H54.794c.8941-1.9892.57252-3.19757.145-3.85778"/><path id="path274" d="M48.75547,41.2509H48.496l.134.30819.123.0039.03167.00389-.04872.0877.07187-.07669.01339.01823.05847-.039.13278-.30575h-.257Z"/><path id="path278" d="M45.55961,41.50208l-.04629.04628.00614.123-.26311-.039.0037-.17662-.19125-.352.04507-.04627.33986.19491h.201V41.535l-.09745-.0378"/><path id="path282" d="M45.749,41.45652a.0894.0894,0,0,1-.08892-.089.08838.08838,0,0,1,.08892-.0877.09065.09065,0,0,1,.07065.03655h.028a.16961.16961,0,0,0,.01218-.06091.201.201,0,1,0-.20221.201H45.749"/><path id="path286" d="M45.46191,41.74327a.08936.08936,0,0,0-.08892-.08886.08809.08809,0,0,0-.05116.15952v.02923a.20706.20706,0,0,1-.06091.011.201.201,0,1,1,.201-.201l-.00117.09258.00117-.00292"/><path id="path290" d="M45.55961,48.85064l-.04629-.04747.00614-.12059-.26311.0378.0037.17784-.19125.3508.04507.04628.33986-.19613h.201v-.2814l-.09745.039"/><path id="path294" d="M45.749,48.8962a.08834.08834,0,1,0,0,.17668.09065.09065,0,0,0,.07065-.03655h.028a.16471.16471,0,0,1,.01218.06091.201.201,0,1,1-.20221-.201l.0938.001-.00244-.001"/><path id="path298" d="M45.46191,48.60969a.08947.08947,0,0,1-.08892.089.08817.08817,0,0,1-.05116-.15964v-.02924a.20739.20739,0,0,0-.06091-.011.201.201,0,1,0,.201.201l-.00117-.09374.00117.0039"/><path id="path302" d="M51.94416,48.85064l.04629-.04747-.00605-.12059.2619.0378-.00243.17784.19.3508-.04629.04628-.33742-.19613H51.848v-.2814l.09866.039"/><path id="path306" d="M51.75474,48.8962a.08834.08834,0,0,1,0,.17668.08707.08707,0,0,1-.07065-.03655h-.03046a.2366.2366,0,0,0-.00974.06091.201.201,0,1,0,.20221-.201l-.0938.001.00244-.001"/><path id="path310" d="M52.04089,48.60969a.08947.08947,0,0,0,.08892.089A.08816.08816,0,0,0,52.181,48.539v-.02924a.20841.20841,0,0,1,.06213-.011.201.201,0,1,1-.20221.201l.00117-.09374-.00117.0039"/><path id="path314" d="M51.94635,41.50208l.04629.04628-.00614.123.26189-.039-.0036-.17662.19124-.352-.04385-.04627-.33985.19491h-.20221V41.535l.09866-.0378"/><path id="path318" d="M51.75658,41.45652a.08862.08862,0,0,0,.08892-.089.08762.08762,0,0,0-.08892-.0877.09065.09065,0,0,0-.07065.03655h-.02924a.19784.19784,0,0,1-.00974-.06091.201.201,0,1,1,.20221.201h-.09258"/><path id="path322" d="M52.04405,41.74327a.08892.08892,0,0,1,.17784,0,.09156.09156,0,0,1-.03776.07066v.02923a.20706.20706,0,0,0,.06091.011.201.201,0,1,0-.201-.201v.09008Z"/><path id="path324" d="M49.031,41.99846h-.5713v.2485h.5713Z"/><path id="path328" d="M48.78923,42.48464h-.07187l-.11207-.23753h.29235Z"/><path id="path332" d="M49.10861,42.099l-.00244.001H49.111l-.00243-.001"/><path id="path336" d="M49.15673,42.20333a.05992.05992,0,0,1-.04873.02436.06476.06476,0,0,1-.06334-.06462.06412.06412,0,0,1,.06091-.06335l-.06213-.001a.14617.14617,0,1,0,.14618.14617l-.00244-.01091-.03045-.0304Z"/><path id="path340" d="M48.39358,42.099l.00243.001h-.0036Z"/><path id="path344" d="M48.34618,42.20333a.05933.05933,0,0,0,.04751.02436.06422.06422,0,0,0,.06456-.06462.06347.06347,0,0,0-.06212-.06335l.06334-.001a.14617.14617,0,1,1-.14618.14617l.00244-.01091.03045-.0304Z"/><path id="path348" d="M48.75329,49.10488h.25946L48.88,48.79669l-.12425-.00488-.02923-.002.04629-.0877-.07187.07554-.0134-.017-.05725.03771-.134.307h.257Z"/><path id="path350" d="M48.46581,48.34852h.5713V48.1h-.5713Z"/><path id="path354" d="M48.71454,47.86957h.07187l.11085.23874h-.29235Z"/><path id="path362" d="M48.34618,48.1512a.06542.06542,0,0,1,.04873-.02436.06476.06476,0,0,1,.06456.06335.06736.06736,0,0,1-.06213.06578h.06213a.14618.14618,0,1,0-.145-.14617l.00117.01092.03045.03039Z"/><path id="path370" d="M49.15758,48.1512a.06541.06541,0,0,0-.04872-.02436.06475.06475,0,0,0-.06456.06335.06724.06724,0,0,0,.0609.06578h-.06212a.14617.14617,0,1,1,0-.29234.1451.1451,0,0,1,.14617.14617l-.00117.01092-.03045.03039Z"/><path id="path374" d="M52.25211,45.17361v-.25924l-.307.134-.00487.12425-.00361.02923-.08892-.04755.078.07191-.01827.01463.039.05731.30575.13278v-.257Z"/><path id="path376" d="M51.50015,44.89516h-.2485v.57007h.2485Z"/><path id="path380" d="M51.0246,45.213V45.141l.24-.112v.29355l-.24-.10962Z"/><path id="path384" d="M51.404,45.533,51.40277,45.53v.00488l.00127-.002"/><path id="path388" d="M51.30672,45.58157a.06684.06684,0,0,1-.02558-.04871.06524.06524,0,0,1,.06578-.06451.0643.0643,0,0,1,.06334.06207v-.06334a.14557.14557,0,1,0-.145.14616l.011-.00291.03046-.02923Z"/><path id="path392" d="M51.404,44.81852l-.00127.002v-.00487l.00127.002"/><path id="path396" d="M51.30672,44.77076a.06219.06219,0,0,0-.02558.04755.06524.06524,0,0,0,.06578.06451.0643.0643,0,0,0,.06334-.06207v.06335a.14557.14557,0,1,1-.145-.14617l.011.002.03046.03039Z"/><path id="path400" d="M45.25606,45.17361v-.25924l.307.134.00487.12425.0037.02923.08771-.04755-.07674.07191.01705.01463-.03776.05731-.30575.13278v-.257Z"/><path id="path402" d="M46.00764,44.89516h.24728v.57007h-.24728Z"/><path id="path406" d="M46.4827,45.213V45.141l-.23753-.112v.29355l.23753-.10962Z"/><path id="path410" d="M46.10374,45.533l.00244-.00292v.00488l-.00244-.002"/><path id="path414" d="M46.20181,45.58157a.06566.06566,0,0,0,.02437-.04871.064.064,0,0,0-.1279-.00244v-.06334a.14426.14426,0,0,1,.14373-.145.14559.14559,0,1,1,0,.29111l-.011-.00291-.02923-.02923Z"/><path id="path418" d="M46.10374,44.81852l.00244.002v-.00487l-.00244.002"/><path id="path422" d="M46.20181,44.77076a.06111.06111,0,0,1,.02437.04755.064.064,0,0,1-.1279.00244v.06335a.1445.1445,0,0,0,.14373.14616.14619.14619,0,1,0,0-.29233l-.011.002-.02923.03039Z"/></g></g></g></svg>