<svg id="Layer_1" data-name="Layer 1" xmlns="http://www.w3.org/2000/svg" viewBox="0 0 215 127"><defs><style>.cls-1{fill:transparent;}.cls-2{fill:#01adee;}.cls-3{fill:#1f3e79;}</style></defs><title>booking.com_featured_logo</title><rect class="cls-1" x="-3.37342" y="-3.21858" width="223.25536" height="134.51135"/><path class="cls-2" d="M127.77738,74.4058a10.7609,10.7609,0,0,1,3.68118-2.87628,9.23363,9.23363,0,0,1,8.78854.39836,7.15709,7.15709,0,0,1,2.38378,2.61946c.34616.56737.34324.55711.75843.07174a10.51431,10.51431,0,0,1,11.19732-3.60461c3.03777.73869,4.70183,2.88042,5.4235,5.83718a16.54378,16.54378,0,0,1,.44132,3.88865c.01522,5.44857-.00045,10.89725.01789,16.3458.00167.49834-.14164.59658-.61525.57295a33.70923,33.70923,0,0,1-3.80223-.08626,3.0809,3.0809,0,0,1-2.96457-3.44718c-.02364-3.86934-.00511-7.73892-.0081-11.6084a14.17722,14.17722,0,0,0-.19326-2.75762c-.37433-1.89368-1.61029-2.55555-3.50163-2.25654a5.64551,5.64551,0,0,0-4.2141,3.50195,10.11617,10.11617,0,0,0-1.003,4.463c-.0041,3.85062-.01048,7.70126.0099,11.55179.00261.49376-.10141.66411-.62871.65623-2.07887-.031-4.15866-.02716-6.23767-.00117-.44407.00555-.53331-.12471-.532-.546.01519-4.89025.00966-9.78054.00976-14.67083a10.67307,10.67307,0,0,0-.18762-2.23745,3.236,3.236,0,0,0-5.101-2.27318,7.23361,7.23361,0,0,0-3.14723,4.45758,15.60462,15.60462,0,0,0-.57311,4.61952q-.01713,5.05387.00676,10.1078c.00235.42763-.09823.54752-.53605.5422q-3.08965-.03767-6.17994.00056c-.4514.00586-.53449-.13848-.53393-.55372q.01705-12.64926-.00159-25.29853c-.00078-.47441.1186-.637.60512-.61125,1.17016.062,2.34394-.07935,3.5156.09919a3.13012,3.13012,0,0,1,2.912,2.46C127.61072,73.95258,127.68426,74.12724,127.77738,74.4058Z"/><path class="cls-3" d="M37.48154,46.19185c.28333.16511.47969.28349.67964.39546,3.45942,1.93722,4.83641,5.03874,4.623,8.82672-.28648,5.08551-3.456,8.5543-8.53612,9.66008a18.29386,18.29386,0,0,1-3.949.41709q-6.15137-.014-12.30274.006c-.43736.00169-.57954-.08954-.57889-.56067q.02227-16.086.01287-32.172a3.77063,3.77063,0,0,1,3.75784-3.73481c3.15751-.00435,6.31583-.045,9.47232.01186A11.70967,11.70967,0,0,1,38.4075,31.7a8.64228,8.64228,0,0,1,2.97605,7.36671A9.01256,9.01256,0,0,1,37.48154,46.19185ZM24.53945,55.227c0,1.13514.01792,2.2707-.00914,3.40519-.01029.43143.08248.592.55826.58482,1.94318-.02918,3.887-.01386,5.83066-.011a4.787,4.787,0,0,0,1.42092-.19879c1.971-.60332,3.06606-2.192,3.15764-4.58844a4.477,4.477,0,0,0-3.437-4.76347,19.68847,19.68847,0,0,0-5.80263-.13816,1.80613,1.80613,0,0,0-1.66118,1.79241A27.47114,27.47114,0,0,0,24.53945,55.227Zm0-15.05421c0,1.09987.029,2.04346-.01211,2.984-.02085.47686.15089.56213.58144.55552,1.55684-.02388,3.116-.05549,4.67109.00143a4.01674,4.01674,0,0,0,4.36157-3.74652,3.98538,3.98538,0,0,0-3.76532-4.8284A32.75577,32.75577,0,0,0,26.573,35.1377a1.91629,1.91629,0,0,0-1.98817,1.97059A18.4794,18.4794,0,0,0,24.53945,40.1728Z"/><path class="cls-3" d="M189.36223,63.12754c-4.46864,3.49221-13.69049,2.73324-16.97189-4.98065a15.92141,15.92141,0,0,1-.127-12.63122c1.87031-4.584,5.46354-6.8355,10.36906-7.02632a10.61047,10.61047,0,0,1,7.27228,2.25966c.21492.17138.32375.20091.47593-.05762a3.26326,3.26326,0,0,1,3.00192-1.60778c1.11629-.01268,2.233.00564,3.34909-.01489.2918-.00536.38172.093.35484.36025-.00959.09531-.00137.19241-.00137.28869q0,11.785-.00522,23.57a12.52785,12.52785,0,0,1-1.85268,6.92379,11.86528,11.86528,0,0,1-7.21819,5.01878,19.73,19.73,0,0,1-14.32566-1.6353c-.293-.14553-.43054-.26731-.26835-.64917.51745-1.21821.91224-2.48724,1.50593-3.67525a2.06076,2.06076,0,0,1,2.69032-1.23324,25.86826,25.86826,0,0,0,3.92017.91709,9.90338,9.90338,0,0,0,4.88041-.51538A4.89745,4.89745,0,0,0,189.36223,63.12754ZM189.534,51.152c-.01861-.30678-.02095-.61554-.05834-.92-.38675-3.149-1.82389-4.69227-4.624-4.97411-2.19636-.22106-4.18325.46238-5.09184,2.4511a8.44255,8.44255,0,0,0,.57819,8.701,4.74613,4.74613,0,0,0,4.76733,1.946A4.45745,4.45745,0,0,0,188.96,55.39473,10.06388,10.06388,0,0,0,189.534,51.152Z"/><path class="cls-3" d="M129.47525,39.13475c-.99878,1.49173-1.92454,2.88-2.85612,4.26443q-2.06079,3.06246-4.12758,6.12091a13.38005,13.38005,0,0,1-1.17312,1.49668c-.11625.12865-.28744.22754-.08277.46461a26.0382,26.0382,0,0,1,2.85293,4.923c1.598,2.96015,3.40825,5.79362,5.125,8.68289.09612.16176.19036.32466.33008.56318-1.90942,0-3.74455.00344-5.57964-.00226-.49989-.00155-1.00142-.00969-1.4992-.051a3.7165,3.7165,0,0,1-3.14926-2.029q-2.14173-3.98157-4.27032-7.97022a2.0729,2.0729,0,0,0-2.323-.93359c-.28556.08756-.17346.31218-.174.4781-.00759,2.48369-.00363,4.9674-.00614,7.45111-.00089.88536-.02682,1.771-.01041,2.65591.0061.32971-.09566.41634-.41911.4145-2.2911-.01306-4.58249-.02219-6.87334.005-.50107.006-.44033-.26271-.44026-.57531q.00329-14.9889.00181-29.97779c0-1.8676-.0028-3.73521.00406-5.60278.00074-.19953-.12094-.49036.282-.48654,1.53985.01458,3.08647-.06743,4.618.0503a2.8182,2.8182,0,0,1,2.8102,3.05025c.04554,1.59665.02766,3.19528.02667,4.793-.00217,3.50384-.004,7.00772-.02712,10.51145-.00285.43366.08062.63477.55615.57265.34138-.0446.6931-.00353,1.03775-.03123a1.87533,1.87533,0,0,0,1.51625-.91013c1.58549-2.47609,3.19742-4.93525,4.77972-7.41336a1.00053,1.00053,0,0,1,.972-.52616c2.48348.024,4.96731.01138,7.451.01138Z"/><path class="cls-3" d="M150.96748,42.08974a10.19024,10.19024,0,0,1,5.60221-3.28927,11.754,11.754,0,0,1,6.97095.53773c2.86307,1.19173,4.23263,3.531,4.793,6.45868a20.06551,20.06551,0,0,1,.22672,3.73848q.02235,7.42167.0148,14.84338c-.00044.39765.24063.89262-.03753,1.16852-.26788.26571-.76828.07656-1.16534.0884a23.74287,23.74287,0,0,1-3.46-.07489,3.15682,3.15682,0,0,1-2.96861-3.00281,12.47859,12.47859,0,0,1-.06517-1.26728q-.00726-5.71885-.00518-11.43773a7.9267,7.9267,0,0,0-.141-1.6638,2.72292,2.72292,0,0,0-2.9991-2.50249,6.29519,6.29519,0,0,0-6.26032,5.03661,9.72642,9.72642,0,0,0-.29628,2.3973c.00361,3.98585-.00817,7.97176.01409,11.95748.00278.49618-.14252.59577-.61022.59033-2.19483-.02551-4.3902-.02127-6.58515-.00214-.39116.0034-.51594-.07742-.51529-.4961q.02005-12.76635.01589-25.53271c.00016-.18956-.15052-.501.26111-.50251,1.05618-.00391,2.11306-.041,3.16834-.01364C148.89167,39.17216,150.49845,39.77566,150.96748,42.08974Z"/><path class="cls-3" d="M58.72153,38.60667c4.36138.08424,8.15613,1.47245,10.95457,4.96547a13.67511,13.67511,0,0,1,2.91063,9.76768A13.13665,13.13665,0,0,1,61.40211,65.81656a14.363,14.363,0,0,1-10.80676-2.15148,12.83589,12.83589,0,0,1-5.7207-10.36384c-.46694-7.45962,4.21606-13.6857,11.9403-14.58289A17.35191,17.35191,0,0,1,58.72153,38.60667ZM58.767,59.56276a5.907,5.907,0,0,0,5.41026-3.28243,8.38183,8.38183,0,0,0,.09509-7.66666,5.79684,5.79684,0,0,0-5.35185-3.49128,5.70853,5.70853,0,0,0-5.61412,3.23609,8.26179,8.26179,0,0,0-.13652,7.6681A5.956,5.956,0,0,0,58.767,59.56276Z"/><path class="cls-3" d="M74.44514,52.83345a13.947,13.947,0,0,1,2.87332-9.18339,12.971,12.971,0,0,1,9.07826-4.91834A14.41,14.41,0,0,1,96.5673,41.04809a12.69109,12.69109,0,0,1,5.439,8.69715,14.24172,14.24172,0,0,1-1.46513,9.44823,12.78866,12.78866,0,0,1-9.55609,6.62137,14.19413,14.19413,0,0,1-11.63967-2.77862,12.887,12.887,0,0,1-4.71868-8.3301c-.05094-.303-.08728-.60911-.11547-.91515C74.47777,53.42729,74.46042,53.06212,74.44514,52.83345Zm20.28779-.4646a8.7726,8.7726,0,0,0-.67052-3.41542,5.92642,5.92642,0,0,0-5.3718-3.82843,5.74969,5.74969,0,0,0-5.83613,3.351,8.24457,8.24457,0,0,0,.124,7.92152,6.15989,6.15989,0,0,0,9.91549,1.195A7.65565,7.65565,0,0,0,94.73293,52.36885Z"/><path class="cls-2" d="M117.97294,84.225c.0009,7.67808-5.28,13.316-12.80686,13.80242a14.1081,14.1081,0,0,1-10.36233-3.201,12.72657,12.72657,0,0,1-4.39914-7.94978,14.20636,14.20636,0,0,1,1.69548-9.796,12.55048,12.55048,0,0,1,8.24773-6.00937,14.72042,14.72042,0,0,1,11.44707,1.66063,12.83961,12.83961,0,0,1,6.0402,9.503A11.95515,11.95515,0,0,1,117.97294,84.225ZM97.69346,83.9863A8.764,8.764,0,0,0,98.20411,87.33a5.98,5.98,0,0,0,5.1079,4.18274,5.73868,5.73868,0,0,0,6.02911-2.88852,8.16484,8.16484,0,0,0-.12606-8.71394,6.12621,6.12621,0,0,0-8.80271-1.60614A7.13425,7.13425,0,0,0,97.69346,83.9863Z"/><path class="cls-2" d="M85.82208,80.33152c-.53888.00008-1.07854-.01831-1.61653.00381A2.34479,2.34479,0,0,1,81.73974,78.709a2.45192,2.45192,0,0,0-2.187-1.60365,6.77653,6.77653,0,0,0-7.931,5.63735A7.51883,7.51883,0,0,0,72.8532,88.894a7.25481,7.25481,0,0,0,7.08949,2.70508,10.52041,10.52041,0,0,0,6.15124-3.26553c.31435-.31186.456-.38837.71839.06749.86294,1.49926,1.767,2.97522,2.67731,4.44651a.51152.51152,0,0,1-.08526.74135A15.68016,15.68016,0,0,1,70.52,96.193a12.65446,12.65446,0,0,1-6.23878-9.24976,13.68473,13.68473,0,0,1,2.92407-11.41334,13.52842,13.52842,0,0,1,8.4-4.64534A14.94034,14.94034,0,0,1,84.733,72.00076,5.50225,5.50225,0,0,1,88.10838,75.835a15.23875,15.23875,0,0,1,.10378,3.33841c-.00708,1.14874-.00167,1.14971-1.12,1.15757C86.66883,80.33394,86.24544,80.33145,85.82208,80.33152Z"/><path class="cls-3" d="M131.56972,52.37616c0-4.21481.00756-8.42966-.01056-12.64438-.002-.47043.10856-.62763.59776-.60758a24.27674,24.27674,0,0,1,4.42719.17955,3.16386,3.16386,0,0,1,2.62451,3.19223c.02069,7.58354.01714,15.16716.0321,22.75072.00065.32718-.09316.41907-.41836.41719-2.252-.01306-4.50421-.02091-6.756.00474-.461.00525-.42675-.22947-.42635-.53294q.00591-4.533.00241-9.06592V52.37619Z"/><path class="cls-2" d="M54.05716,93.46868a4.44619,4.44619,0,0,1,4.45521-4.42294,4.47318,4.47318,0,1,1-4.45521,4.42294Z"/><path class="cls-3" d="M135.064,27.82742a4.46313,4.46313,0,1,1-4.39666,4.56246A4.48079,4.48079,0,0,1,135.064,27.82742Z"/></svg>