<svg id="Layer_1" data-name="Layer 1" xmlns="http://www.w3.org/2000/svg" xmlns:xlink="http://www.w3.org/1999/xlink" viewBox="0 0 215 127"><defs><style>.cls-1{fill:none;}.cls-2{fill:#fbfbfb;}.cls-3{clip-path:url(#clip-path);}.cls-4{fill:#5791cd;}.cls-5{fill:#33a736;}.cls-6{fill:#a1aaad;}</style><clipPath id="clip-path"><rect class="cls-1" x="15.7031" y="42.28302" width="183.59379" height="43.44872"/></clipPath></defs><title>kubernetes.io-logos2</title><rect class="cls-2" x="-3.35417" y="-4.36563" width="223.25536" height="134.51136"/><g class="cls-3"><path class="cls-4" d="M33.07482,73.41877a1.64932,1.64932,0,0,1-.702-.11747l-14.3133-5.77157a3.76332,3.76332,0,0,1,.01212-6.98565l14.33379-5.71972a1.646,1.646,0,1,1,1.22037,3.05739L19.29205,63.60148a.472.472,0,0,0-.00167.87629l14.3133,5.7703a1.64632,1.64632,0,0,1-.52886,3.1707"/><path class="cls-5" d="M50.07448,63.2673a1.64887,1.64887,0,0,1-1.69823-1.90936l2.48422-15.23266a.47139.47139,0,0,0-.74878-.45236L37.78843,54.96637a1.6459,1.6459,0,0,1-1.98169-2.62846L48.12916,43.0453A3.763,3.763,0,0,1,54.10892,46.655L51.62471,61.88765a1.64753,1.64753,0,0,1-1.55023,1.37965"/><path class="cls-6" d="M50.58161,85.64955a3.7564,3.7564,0,0,1-2.41858-.75086l-12.3521-9.25332a1.64572,1.64572,0,0,1,1.97332-2.6343l12.35252,9.25331a.47145.47145,0,0,0,.74753-.45487L48.35116,66.58563a1.64592,1.64592,0,1,1,3.24722-.54015l2.53313,15.22388a3.77057,3.77057,0,0,1-3.5499,4.38019"/></g><polygon class="cls-4" points="89.507 78.162 87.134 78.162 82.224 62.9 82.142 62.9 77.231 78.162 74.899 78.162 66.43 55.494 70.97 55.494 76.004 70.224 76.086 70.224 80.791 55.494 83.574 55.494 88.279 70.224 88.361 70.224 93.353 55.494 97.895 55.494 89.507 78.162"/><g class="cls-3"><path class="cls-4" d="M102.44593,68.669a7.68938,7.68938,0,0,0,7.44722,6.17877,7.247,7.247,0,0,0,6.46473-3.80576h4.25562A11.55321,11.55321,0,0,1,109.72927,78.735,11.82749,11.82749,0,0,1,98.19074,66.78719a11.58182,11.58182,0,1,1,23.159-.28639c0,.73624-.08194,1.88177-.1225,2.16815Zm14.64861-3.27355a7.36081,7.36081,0,0,0-14.64861,0Z"/><path class="cls-5" d="M124.58243,55.49328h3.88729v3.47883h.08153a9.57913,9.57913,0,0,1,8.061-4.09256c7.6922,0,11.743,6.17877,11.743,12.2342a11.42958,11.42958,0,0,1-11.457,11.62089c-4.746,0-7.11945-2.4144-7.9786-3.84632h-.08194V85.73159H124.582V55.49328Zm11.74339,3.27355a8.04764,8.04764,0,1,0,7.77457,8.10193,7.99423,7.99423,0,0,0-7.77457-8.10193"/><path class="cls-5" d="M170.24583,78.16271v-3.519h-.08193a8.67529,8.67529,0,0,1-7.69221,4.09131,11.63792,11.63792,0,0,1-12.0302-11.82491c0-5.52406,3.88729-12.03019,12.0302-12.03019a8.983,8.983,0,0,1,7.69221,3.80535h.08193v-3.1916h4.2552V78.16313h-4.2552Zm-7.77414-19.39588c-5.23726,0-7.775,4.54158-7.775,8.10193a7.81723,7.81723,0,1,0,15.63109,0,7.74352,7.74352,0,0,0-7.85609-8.10193"/></g><polygon class="cls-5" points="194.714 55.493 187.881 73.088 181.212 55.493 176.629 55.493 185.672 77.711 182.358 85.732 186.777 85.732 199.297 55.494 199.297 55.493 194.714 55.493"/></svg>