<?xml version="1.0" encoding="UTF-8" standalone="no" ?>
<!DOCTYPE svg PUBLIC "-//W3C//DTD SVG 1.1//EN" "http://www.w3.org/Graphics/SVG/1.1/DTD/svg11.dtd">
<svg xmlns="http://www.w3.org/2000/svg" xmlns:xlink="http://www.w3.org/1999/xlink" version="1.1" width="230" height="140" viewBox="0 0 230 140" xml:space="preserve">
<desc>Created with Fabric.js 5.2.4</desc>
<defs>
</defs>
<g transform="matrix(1 0 0 1 115 70)" id="3c2366f3-11a5-4273-b4ec-1030c7cea7cb"  >
<rect style="stroke: none; stroke-width: 1; stroke-dasharray: none; stroke-linecap: butt; stroke-dashoffset: 0; stroke-linejoin: miter; stroke-miterlimit: 4; fill: rgb(255,255,255); fill-rule: nonzero; opacity: 1;" vector-effect="non-scaling-stroke"  x="-115" y="-70" rx="0" ry="0" width="230" height="140" />
</g>
<g transform="matrix(Infinity NaN NaN Infinity 0 0)" id="e35a366e-5e6b-49cf-b529-9a98901c4d72"  >
</g>
<g transform="matrix(1.01 0 0 1.01 115 70)"  >
<g style="" vector-effect="non-scaling-stroke"   >
		<g transform="matrix(1 0 0 1 0 0)"  >
<rect style="stroke: none; stroke-width: 1; stroke-dasharray: none; stroke-linecap: butt; stroke-dashoffset: 0; stroke-linejoin: miter; stroke-miterlimit: 4; fill: rgb(255,255,255); fill-opacity: 0; fill-rule: nonzero; opacity: 1;" vector-effect="non-scaling-stroke"  x="-111.62768" y="-67.25568" rx="0" ry="0" width="223.25536" height="134.51136" />
</g>
		<g transform="matrix(1 0 0 1 -78.81 0.57)"  >
<path style="stroke: none; stroke-width: 1; stroke-dasharray: none; stroke-linecap: butt; stroke-dashoffset: 0; stroke-linejoin: miter; stroke-miterlimit: 4; fill: rgb(67,139,202); fill-rule: nonzero; opacity: 1;" vector-effect="non-scaling-stroke"  transform=" translate(-28.8, -63.79)" d="M 23.18835 77.94422 C 22.79946 77.55275 22.25442 77.59829 21.77894 77.46746 C 15.11281 75.63327 10.434569999999999 69.10424 11.117589999999998 62.565110000000004 C 11.57792761024137 58.30400838939397 13.902591339913835 54.46586742754555 17.465706539764078 52.08403877629706 C 21.028821739614322 49.702210125048566 25.464139919713908 49.021519196394756 29.577530000000003 50.22523 C 33.47438724223616 51.445546067159356 37.04128981116947 53.539243390080486 40.00646999999999 56.346799999999995 C 42.308298538594535 58.39118011630991 44.39601543919592 60.6645910597051 46.237329999999986 63.131869999999964 C 46.5546 63.55618 46.69317 63.848729999999996 46.30773 64.34687 C 42.45473 69.32704 38.07316 73.67698 32.24284 76.38157 C 30.70314 77.09581 29.03468 77.3599 27.46327 77.94417 Z M 33.46693 60.24855 C 33.53100444643757 59.54063251192589 33.106706274868884 58.87944101299336 32.43646 58.64275 C 31.72114873136068 58.34233062393676 30.894156349853127 58.52527247982196 30.372299999999996 59.09937 C 28.656299999999995 60.83415 26.912079999999996 62.54148 25.208029999999994 64.28763000000001 C 24.785589999999992 64.7205 24.499349999999993 64.78963 24.075169999999993 64.30685000000001 C 23.58290999999999 63.74660000000001 23.033379999999994 63.23427000000001 22.490409999999994 62.72024000000001 C 22.158398089947713 62.32250230762266 21.675466784998033 62.08136200617076 21.158040709792562 62.054952972646575 C 20.640614634587088 62.02854393912239 20.135641589083992 62.21926235354545 19.76485999999999 62.58113000000001 C 19.436346467405798 62.953655376167085 19.273562511700877 63.44382080317594 19.313957574112635 63.93886073683654 C 19.354352636524393 64.43390067049714 19.594448627190324 64.89119125353582 19.97900999999999 65.20553000000001 C 21.304639999999992 66.55128 22.67235999999999 67.85636000000001 23.98633999999999 69.21302000000001 C 24.43251999999999 69.67370000000001 24.715389999999992 69.74724000000002 25.20939999999999 69.24702000000002 C 27.725989999999992 66.69891000000003 30.27746999999999 64.18478000000002 32.82266999999999 61.66468000000002 C 33.24151550619278 61.31510604965544 33.47859727470386 60.79398320353495 33.46693 60.24855 Z" stroke-linecap="round" />
</g>
		<g transform="matrix(1 0 0 1 87.02 -4.46)"  >
<path style="stroke: none; stroke-width: 1; stroke-dasharray: none; stroke-linecap: butt; stroke-dashoffset: 0; stroke-linejoin: miter; stroke-miterlimit: 4; fill: rgb(3,3,3); fill-rule: nonzero; opacity: 1;" vector-effect="non-scaling-stroke"  transform=" translate(-194.63, -58.76)" d="M 204.15991 75.11166 C 202.65659 75.09994 201.15198999999998 75.04792 199.65048 75.09415 C 199.02237536732466 75.14487555916901 198.41532284759975 74.85480699355283 198.06018999999998 74.33426 C 196.08675999999997 71.8257 194.07618999999997 69.34599 192.07835999999998 66.85638 C 191.88141999999996 66.61096 191.68560999999997 66.36438 191.48048999999997 66.12577 C 191.16812 65.76251 190.73354999999998 65.86994 190.37229999999997 65.93896000000001 C 189.91906999999998 66.02556000000001 190.14438999999996 66.4608 190.14223999999996 66.72759 C 190.12223999999995 69.20588000000001 190.10483999999997 71.68481000000001 190.14657999999997 74.16259000000001 C 190.15857999999997 74.87383000000001 189.98767999999998 75.16459 189.23081999999997 75.08679000000001 C 187.94904999999997 74.95499000000001 186.29724999999996 75.6213 185.47521999999998 74.82179000000001 C 184.76261999999997 74.12871000000001 185.28489 72.50215 185.28273 71.28939000000001 C 185.26898999999997 63.53939000000001 185.2865 55.789240000000014 185.25895999999997 48.03928000000001 C 185.22347555059198 47.33676019189004 185.50792056482138 46.65593850617999 186.03264 46.18747000000001 C 187.34138 44.93162000000001 188.58923 43.61312000000001 189.88101999999998 42.30033000000001 C 190.28119999999998 42.64469000000001 190.12085 43.01446000000001 190.12150999999997 43.32426000000001 C 190.13375999999997 48.91057000000001 190.12063999999998 54.49697000000001 190.14936999999998 60.08316000000001 C 190.15161999999998 60.521820000000005 189.7642 61.17157000000001 190.43988 61.407160000000005 C 191.12927 61.64752000000001 191.58203999999998 61.192510000000006 192.02364999999998 60.68032 C 194.00630999999998 58.380810000000004 196.04142 56.12589 198.01878999999997 53.82198 C 198.37552299203702 53.355927030479364 198.94413652452718 53.10241432884969 199.52922999999996 53.14856 C 201.07175999999995 53.19013 202.61622999999994 53.16035 204.15990999999997 53.159400000000005 L 204.15990999999997 53.867540000000005 Q 199.99224999999996 58.454240000000006 195.81780999999998 63.03483000000001 C 195.67915216167296 63.14082656949033 195.59716258839433 63.30487456871397 195.5956186405207 63.47939930936184 C 195.59407469264713 63.6539240500097 195.67314913173504 63.81939691563614 195.80990999999997 63.92783000000001 Q 199.99720999999997 69.03773000000001 204.15990999999997 74.16754 Z" stroke-linecap="round" />
</g>
		<g transform="matrix(1 0 0 1 -21.27 0.89)"  >
<path style="stroke: none; stroke-width: 1; stroke-dasharray: none; stroke-linecap: butt; stroke-dashoffset: 0; stroke-linejoin: miter; stroke-miterlimit: 4; fill: rgb(3,3,3); fill-rule: nonzero; opacity: 1;" vector-effect="non-scaling-stroke"  transform=" translate(-86.33, -64.11)" d="M 62.34977 66.0802 L 68.71883 51.27577000000001 L 75.05225999999999 66.09445000000001 C 75.97681999999999 64.06653000000001 76.87069 62.23501000000001 77.65556999999998 60.35845000000001 C 79.49161999999998 55.968710000000016 82.66856999999999 53.24345000000001 87.46963999999998 52.71491000000001 C 92.76525999999998 52.13191000000001 96.57730999999998 54.03391000000001 99.61578999999999 58.59615000000001 C 101.80844786106526 54.71306347277553 106.00734640086563 52.40265315824282 110.461 52.62866 C 113.70589331800306 52.58472026512079 116.82017407107115 53.905098445688346 119.04466 56.267920000000004 C 123.29923503709884 60.99279089631961 123.01813716203287 68.2462555391712 118.41066 72.62769 C 114.28366 76.46518 104.39989 77.59908 99.58780999999999 69.71744 C 95.03719 77.63553999999999 83.09566999999998 77.4906 78.57342 69.79232999999999 L 75.00404 76.93732999999999 C 72.89098 72.16548999999999 70.83526 67.52314999999999 68.71383 62.73242999999999 L 62.38577 76.9508 L 50.60859 53.19035 C 52.50517 53.19035 54.19659 53.22043 55.88606 53.175670000000004 C 56.57015 53.15755 56.62586 53.664970000000004 56.80788 54.057520000000004 Q 59.3581 59.557520000000004 61.88064 65.07024 C 62.00317 65.33666 62.12765 65.6022 62.34977 66.0802 Z M 89.06835 57.124080000000006 C 86.22955960529264 57.07824558202656 83.64484477210642 58.75342653447369 82.52730969205643 61.36339723235736 C 81.40977461200643 63.97336793024102 81.98128090228792 66.9999770150921 83.97359909813625 69.02272265047125 C 85.96591729398457 71.0454682858504 88.98351713886518 71.66277952704966 91.61012517257238 70.58492891763363 C 94.23673320627958 69.50707830821761 95.95089509910198 66.94804900054449 95.94809 64.10889 C 96.01512079527073 62.2550038679818 95.31538133399864 60.45539745462359 94.01360753469721 59.13374247186282 C 92.71183373539579 57.81208748910205 90.92303910673051 57.0851539755538 89.06835 57.12408 Z M 110.17053999999999 57.124340000000004 C 107.33328765844259 57.11396386487761 104.77101191654266 58.819047939792114 103.68494438376746 61.44022436042934 C 102.59887685099226 64.06140078106658 103.20433334110989 67.0790142617215 105.21746716963075 69.07836433169872 C 107.23060099815162 71.07771440167595 110.25230296106106 71.66242452421959 112.86595584855615 70.55837420945056 C 115.47960873605125 69.45432389468152 117.16704882313749 66.88039409133603 117.13717999999999 64.04328000000001 C 117.18360193712392 62.18607243658341 116.46292829979524 60.39175617429085 115.14476914714895 59.08262234684884 C 113.82660999450265 57.773488519406826 112.02738479591848 57.06515948184882 110.17054 57.12434 Z" stroke-linecap="round" />
</g>
		<g transform="matrix(1 0 0 1 40.11 0.9)"  >
<path style="stroke: none; stroke-width: 1; stroke-dasharray: none; stroke-linecap: butt; stroke-dashoffset: 0; stroke-linejoin: miter; stroke-miterlimit: 4; fill: rgb(3,3,3); fill-rule: nonzero; opacity: 1;" vector-effect="non-scaling-stroke"  transform=" translate(-147.72, -64.12)" d="M 154.15731 54.92551 C 154.32142 53.16221 154.32147 53.15395 156.09841 53.16557 C 157.03922 53.17172 158.26755 52.86412 158.84185 53.33276 C 159.45049 53.82943 159.02474999999998 55.09784 159.02756 56.02636 C 159.04578999999998 62.04024 159.01928999999998 68.05436 159.05724999999998 74.06801 C 159.06253999999998 74.90257 158.84008999999998 75.16495 158.00904999999997 75.09312 C 157.14158268543275 75.01798189445795 156.26924860529488 75.01785810170392 155.40175999999997 75.09275 C 154.49675999999997 75.17174999999999 154.06634999999997 74.91261999999999 154.23948999999996 73.95774999999999 C 154.25731128947302 73.75749456240015 154.25883630426682 73.55612237867145 154.24404999999996 73.35561999999999 C 149.4185954232023 76.97051782931428 142.60919826378364 76.18336986772765 138.73572999999996 71.56289999999998 C 135.18089977298172 66.82873214089392 135.4848595439488 60.23807119653194 139.46034999999995 55.851199999999984 C 143.43993568683769 51.9138878148362 149.71515017456915 51.5186425873097 154.15731 54.92551 Z M 147.84655999999998 57.1248 C 143.95620999999997 57.134280000000004 141.20755999999997 60.05424 141.22173999999998 64.16248 C 141.23581 68.23148 144.0452 71.13267 147.94805999999997 71.10857 C 151.74985999999996 71.0851 154.51760999999996 68.14306 154.52155999999997 64.12119 C 154.52556 60.03665 151.73842 57.11532 147.84656 57.1248 Z" stroke-linecap="round" />
</g>
		<g transform="matrix(1 0 0 1 64.58 0.67)"  >
<path style="stroke: none; stroke-width: 1; stroke-dasharray: none; stroke-linecap: butt; stroke-dashoffset: 0; stroke-linejoin: miter; stroke-miterlimit: 4; fill: rgb(3,3,3); fill-rule: nonzero; opacity: 1;" vector-effect="non-scaling-stroke"  transform=" translate(-172.18, -63.89)" d="M 166.76542 55.61139 C 169.59405444566062 52.510692671469926 174.1492715109739 51.68940833220438 177.88268 53.607 C 180.42437153242713 54.76700075020914 182.12116552708895 57.23192810375929 182.29739999999998 60.02024999999999 C 182.64558 64.80825 182.37022 69.61386 182.43946999999997 74.41136 C 182.44676999999996 74.91796000000001 182.26132999999996 75.14311000000001 181.74799999999996 75.07763 C 181.66898333719212 75.07298003445518 181.58977602919808 75.07251271500982 181.51070999999996 75.07623 C 180.25064999999995 75.05149 178.60532999999995 75.49580999999999 177.83634999999995 74.87239 C 177.02974999999995 74.21846 177.60834999999994 72.51711 177.59073999999995 71.27583 C 177.55230999999995 68.56208 177.57373999999996 65.8474 177.58122999999995 63.13313 C 177.61291352417356 62.18935341340927 177.48362496259014 61.24707408256782 177.19890999999996 60.34671 C 176.40541999999996 58.06371 174.46375999999995 56.94446 171.74536999999995 57.19033 C 169.246636576766 57.3468212310977 167.20853183953068 59.250750296234365 166.88249999999996 61.73306 C 166.7592548827366 62.98496193444947 166.71408081294112 64.24332328809467 166.74723999999998 65.50084 C 166.73009 68.37237999999999 166.71701999999996 71.24444 166.75832999999997 74.11549 C 166.76939999999996 74.88489 166.55419999999998 75.14788999999999 165.76400999999998 75.09361999999999 C 164.73651930401607 75.03229630579077 163.70632624886179 75.03096070401702 162.67867999999999 75.08961999999998 C 162.03823999999997 75.12061999999999 161.88421 74.88986999999999 161.88586999999998 74.28398999999999 Q 161.91401 64.07598999999999 161.88535 53.86789999999999 C 161.88369999999998 53.28589999999999 162.07265999999998 53.10965999999999 162.62915999999998 53.15362999999999 C 163.14047 53.194019999999995 163.65765 53.155429999999996 164.17203999999998 53.16369999999999 C 164.95904 53.17632999999999 165.93903999999998 52.92159999999999 166.48036 53.293409999999994 C 167.06059 53.692 166.53787 54.74455 166.76542 55.61139 Z" stroke-linecap="round" />
</g>
		<g transform="matrix(1 0 0 1 23.78 0.68)"  >
<path style="stroke: none; stroke-width: 1; stroke-dasharray: none; stroke-linecap: butt; stroke-dashoffset: 0; stroke-linejoin: miter; stroke-miterlimit: 4; fill: rgb(3,3,3); fill-rule: nonzero; opacity: 1;" vector-effect="non-scaling-stroke"  transform=" translate(-131.39, -63.9)" d="M 128.58017 54.65482 C 131.84824 52.01252 135.33588 52.35734 139.14381 53.279360000000004 C 137.90788902504102 54.36543294184005 136.85161364206368 55.64023735210813 136.01417 57.05648000000001 C 135.84181 57.36748000000001 135.59399000000002 57.33308000000001 135.30366 57.274820000000005 C 131.37742 56.487010000000005 129.50636 59.27718000000001 128.89699000000002 62.26666 C 128.37458 64.82957 128.68762 67.43407 128.62554000000003 70.01966 C 128.59254000000004 71.39353 128.58747000000002 72.76989 128.63340000000002 74.14302 C 128.65611 74.8221 128.52801000000002 75.14702000000001 127.74198000000003 75.09271000000001 C 126.48841000000003 75.00609000000001 124.85165000000002 75.49140000000001 124.07254000000003 74.87138000000002 C 123.24997000000003 74.21680000000002 123.82561000000003 72.52244000000002 123.81899000000003 71.28610000000002 C 123.78913000000003 65.70910000000002 123.85360000000003 60.13110000000002 123.76932000000002 54.555250000000015 C 123.75046000000002 53.30725000000002 124.13556000000003 52.995750000000015 125.26549000000003 53.149450000000016 C 125.81634772793811 53.20760303023205 126.37169157242069 53.20958321806216 126.92295000000003 53.155360000000016 C 127.958 53.083 128.94424 53.028 128.58017 54.65482 Z" stroke-linecap="round" />
</g>
		<g transform="matrix(1 0 0 1 -81.22 0.82)"  >
<path style="stroke: none; stroke-width: 1; stroke-dasharray: none; stroke-linecap: butt; stroke-dashoffset: 0; stroke-linejoin: miter; stroke-miterlimit: 4; fill: rgb(253,253,253); fill-rule: nonzero; opacity: 1;" vector-effect="non-scaling-stroke"  transform=" translate(-26.39, -64.05)" d="M 33.46693 60.24855 C 33.47860339973421 60.793990157908574 33.2415210513716 61.31512163841911 32.822669999999995 61.6647 C 30.277469999999994 64.18480000000001 27.725989999999996 66.69893 25.209399999999995 69.24704 C 24.715399999999995 69.74724 24.432519999999997 69.6737 23.986339999999995 69.21303999999999 C 22.672339999999995 67.85637999999999 21.304639999999996 66.5513 19.979009999999995 65.20554999999999 C 19.594448627190328 64.8912112535358 19.354352636524396 64.4339206704971 19.31395757411264 63.93888073683651 C 19.27356251170088 63.44384080317592 19.4363464674058 62.95367537616706 19.764859999999995 62.58114999999999 C 20.135641589083995 62.219282353545424 20.64061463458709 62.02856393912237 21.158040709792566 62.05497297264655 C 21.675466784998036 62.081382006170735 22.158398089947717 62.32252230762264 22.490409999999997 62.72025999999999 C 23.033409999999996 63.23425999999999 23.58291 63.746619999999986 24.075169999999996 64.30686999999999 C 24.499349999999996 64.78961999999999 24.785589999999996 64.72052 25.208029999999997 64.28764999999999 C 26.912029999999998 62.541499999999985 28.656319999999997 60.834169999999986 30.372299999999996 59.099389999999985 C 30.894156349853127 58.52529247982194 31.72114873136068 58.34235062393675 32.43646 58.642769999999985 C 33.106698502291735 58.87945917031041 33.53099486797164 59.5406396200872 33.46693 60.24855 Z" stroke-linecap="round" />
</g>
</g>
</g>
</svg>
