<svg viewBox="0 0 200 38" width="223.25536" height="134.51135" fill="none" xmlns="http://www.w3.org/2000/svg">
<path d="M190.373 22.1349L199.934 11.4604H193.68L186.149 20.0393H184.872V0L179.895 4.97708V34.1847H184.872V24.6889H186.116L193.713 34.1847H200L190.373 22.1349Z" fill="#ffffff"/>
<path d="M176.948 19.1225C176.686 14.2764 172.528 10.5763 167.714 10.8382C164.964 10.7073 162.312 11.9515 160.707 14.2109V11.4604H155.763V34.2174H160.773V21.5783C160.773 21.3818 160.773 21.1526 160.773 20.9561C160.904 17.8454 163.556 15.4551 166.666 15.5861C170.006 15.5861 171.971 17.7145 171.971 21.5455V34.1847H176.981V19.9083C176.948 19.6464 176.948 19.3844 176.948 19.1225Z" fill="#ffffff"/>
<path d="M147.806 13.4578C145.841 11.6896 143.287 10.74 140.635 10.8382H140.111C133.824 11.1329 128.945 16.5029 129.24 22.7898C129.24 22.9863 129.24 23.15 129.24 23.3137C129.24 29.6333 134.348 34.7413 140.635 34.7741C143.287 34.905 145.874 33.9882 147.806 32.1873V34.1847H152.75V11.4276H147.773V13.4578H147.806ZM148.133 22.8225C148.133 22.9862 148.133 23.1827 148.133 23.3464C148.101 27.112 145.023 30.1244 141.257 30.0917C141.093 30.0917 140.897 30.0917 140.733 30.0917C136.968 29.8297 134.152 26.5881 134.381 22.8225C134.381 22.5606 134.381 22.2659 134.381 22.0039C134.61 18.2056 137.885 15.3242 141.683 15.5534C145.481 15.7826 148.363 19.0242 148.133 22.8225Z" fill="#ffffff"/>
<path d="M102.39 10.8382C102.194 10.8382 101.997 10.8382 101.801 10.8382C97.2821 10.9037 93.3856 13.4905 91.4537 17.2561C89.4236 13.3268 85.2323 10.6745 80.5172 10.871H80.2225C75.6056 10.9692 71.6436 13.6542 69.6462 17.4853L69.3843 17.6817L66.0771 24.8854L59.5611 9.463L52.9468 24.8854L46.8237 11.4604H40.8315L52.9795 36.1493L59.4956 21.3491L65.9789 36.1493L69.6135 28.7819C71.7091 32.7767 75.9658 35.4944 80.7792 35.3635C85.4943 35.2325 89.5218 32.482 91.4864 28.52C93.5493 32.3838 97.675 34.9378 102.325 34.7741C102.521 34.7741 102.718 34.7741 102.914 34.7741C109.463 34.7086 114.669 29.3386 114.604 22.7898C114.604 22.5933 114.604 22.3969 114.604 22.2004C114.407 15.7171 108.906 10.609 102.39 10.8382ZM87.6554 23.0845C87.5899 27.0465 84.3155 30.1572 80.3862 30.0917C76.457 30.0262 73.3135 26.7518 73.379 22.8225C73.379 22.7243 73.379 22.6588 73.379 22.5606C73.4445 18.5986 76.7189 15.4879 80.6482 15.5534C84.5775 15.6189 87.7209 18.8933 87.6554 22.8225V23.0845ZM109.528 22.8225C109.528 22.9535 109.528 23.0845 109.528 23.2155C109.43 27.1775 106.123 30.2881 102.194 30.1572C98.2317 30.0589 95.121 26.7518 95.252 22.8225C95.252 22.6916 95.252 22.5606 95.252 22.4623C95.3502 18.5003 98.6246 15.3897 102.587 15.4879C106.483 15.5861 109.627 18.8605 109.528 22.8225Z" fill="#ffffff"/>
<path d="M132.253 11.6568C130.878 11.1002 129.404 10.8382 127.931 10.871C125.475 10.5108 122.986 11.4276 121.316 13.294V11.4604H116.405V34.2174H121.382V23.8703C121.349 18.795 123.641 15.5534 126.817 15.5534C127.505 15.5534 128.16 15.6189 128.847 15.7826C129.666 14.2109 130.845 12.7701 132.253 11.6568Z" fill="#ffffff"/>
<path fill-rule="evenodd" clip-rule="evenodd" d="M14.702 37.1971C26.8173 37.1971 36.7715 22.4951 36.7715 22.4951C36.7715 22.4951 26.8173 7.76031 14.702 7.76031C6.64702 7.89129 0.130976 14.4073 0 22.4623C0.130976 30.5501 6.64702 37.0334 14.702 37.1971Z" fill="#2286E6"/>
<path fill-rule="evenodd" clip-rule="evenodd" d="M12.6717 27.4394L13.9815 28.7492L15.2912 27.4394L22.6259 20.072C23.3135 19.3189 23.248 18.1729 22.4949 17.4853C21.8073 16.8304 20.7267 16.8304 20.0064 17.4853L14.0142 23.5756L11.6239 21.1853C10.8708 20.4977 9.69202 20.5632 9.03714 21.3163C8.41501 21.9712 8.41501 22.9863 8.97165 23.7066C9.0044 23.7394 9.03714 23.7721 9.06988 23.8048L12.6717 27.4394Z" fill="white"/>
</svg>
