<svg version="1.1" viewBox="440.0 180.0 2020.0 1140.0" fill="none" stroke="none" stroke-linecap="square" stroke-miterlimit="10" xmlns:xlink="http://www.w3.org/1999/xlink" xmlns="http://www.w3.org/2000/svg"><clipPath id="g962b052c40_4_0.0"><path d="m0 0l2560.0 0l0 1440.0l-2560.0 0l0 -1440.0z" clip-rule="nonzero"/></clipPath><g clip-path="url(#g962b052c40_4_0.0)"><path fill="#ffffff" d="m0 0l2560.0 0l0 1440.0l-2560.0 0z" fill-rule="evenodd"/><path fill="#e7e6e6" d="m451.36877 216.14076l1657.2626 0l0 749.58l-1657.2626 0z" fill-rule="evenodd"/><path fill="#ffdccd" fill-opacity="0.698" d="m504.60275 281.3547l767.22 0l0 908.5388l-767.22 0z" fill-rule="evenodd"/><path fill="#023850" d="m1271.0511 281.3529l235.55005 0l0 545.13l-235.55005 0z" fill-rule="evenodd"/><path fill="#0792b9" d="m1505.6777 281.3529l235.55005 0l0 545.13l-235.55005 0z" fill-rule="evenodd"/><path fill="#00ad97" d="m1740.9767 281.3529l235.55005 0l0 545.13l-235.55005 0z" fill-rule="evenodd"/><path fill="#f15a29" d="m555.0702 322.5303l666.27 0l0 170.43735l-666.27 0z" fill-rule="evenodd"/><path fill="#f15a29" d="m554.7341 539.67755l311.26245 0l0 279.29504l-311.26245 0z" fill-rule="evenodd"/><path fill="#000000" fill-opacity="0.0" d="m556.4151 714.1349l309.29132 0l0 69.88977l-309.29132 0z" fill-rule="evenodd"/><path fill="#ffffff" d="m646.46497 747.29553q-5.46875 -1.578125 -7.96875 -3.859375q-2.484375 -2.296875 -2.484375 -5.65625q0 -3.8125 3.046875 -6.296875q3.046875 -2.5 7.921875 -2.5q3.3125 0 5.90625 1.296875q2.609375 1.28125 4.03125 3.546875q1.4375 2.25 1.4375 4.921875l-4.28125 0q0 -2.921875 -1.859375 -4.59375q-1.859375 -1.671875 -5.234375 -1.671875q-3.140625 0 -4.90625 1.390625q-1.765625 1.375 -1.765625 3.828125q0 1.96875 1.671875 3.34375q1.671875 1.359375 5.6875 2.484375q4.015625 1.125 6.28125 2.484375q2.28125 1.359375 3.375 3.1875q1.09375 1.8125 1.09375 4.265625q0 3.921875 -3.0625 6.28125q-3.046875 2.34375 -8.15625 2.34375q-3.328125 0 -6.203125 -1.265625q-2.875 -1.28125 -4.4375 -3.484375q-1.5625 -2.21875 -1.5625 -5.03125l4.28125 0q0 2.921875 2.15625 4.625q2.15625 1.6875 5.765625 1.6875q3.359375 0 5.15625 -1.375q1.796875 -1.375 1.796875 -3.734375q0 -2.375 -1.671875 -3.671875q-1.65625 -1.296875 -6.015625 -2.546875zm22.313293 -15.390625l0 5.796875l4.46875 0l0 3.171875l-4.46875 0l0 14.84375q0 1.4375 0.59375 2.171875q0.59375 0.71875 2.03125 0.71875q0.71875 0 1.953125 -0.265625l0 3.3125q-1.609375 0.4375 -3.140625 0.4375q-2.75 0 -4.140625 -1.65625q-1.390625 -1.65625 -1.390625 -4.71875l0 -14.84375l-4.359375 0l0 -3.171875l4.359375 0l0 -5.796875l4.09375 0zm7.723572 17.5625q0 -3.53125 1.375 -6.34375q1.390625 -2.8125 3.859375 -4.328125q2.46875 -1.53125 5.625 -1.53125q4.890625 0 7.90625 3.390625q3.03125 3.375 3.03125 9.0l0 0.296875q0 3.484375 -1.34375 6.265625q-1.328125 2.78125 -3.828125 4.328125q-2.484375 1.546875 -5.71875 1.546875q-4.859375 0 -7.890625 -3.375q-3.015625 -3.390625 -3.015625 -8.96875l0 -0.28125zm4.109375 0.484375q0 3.984375 1.84375 6.390625q1.859375 2.40625 4.953125 2.40625q3.125 0 4.953125 -2.4375q1.84375 -2.453125 1.84375 -6.84375q0 -3.953125 -1.875 -6.390625q-1.859375 -2.453125 -4.96875 -2.453125q-3.03125 0 -4.890625 2.421875q-1.859375 2.40625 -1.859375 6.90625zm34.39807 -8.578125q-0.921875 -0.140625 -2.015625 -0.140625q-4.03125 0 -5.46875 3.421875l0 17.0l-4.09375 0l0 -23.953125l3.984375 0l0.078125 2.765625q2.0 -3.203125 5.703125 -3.203125q1.1875 0 1.8125 0.3125l0 3.796875zm17.671448 20.28125q-0.359375 -0.703125 -0.578125 -2.515625q-2.859375 2.953125 -6.828125 2.953125q-3.53125 0 -5.8125 -2.0q-2.265625 -2.0 -2.265625 -5.078125q0 -3.734375 2.84375 -5.796875q2.84375 -2.078125 8.0 -2.078125l3.984375 0l0 -1.890625q0 -2.140625 -1.28125 -3.40625q-1.28125 -1.28125 -3.78125 -1.28125q-2.1875 0 -3.671875 1.109375q-1.484375 1.109375 -1.484375 2.671875l-4.109375 0q0 -1.78125 1.265625 -3.453125q1.265625 -1.671875 3.453125 -2.640625q2.1875 -0.984375 4.796875 -0.984375q4.140625 0 6.484375 2.078125q2.34375 2.0625 2.4375 5.6875l0 11.03125q0 3.296875 0.828125 5.234375l0 0.359375l-4.28125 0zm-6.796875 -3.125q1.921875 0 3.640625 -0.984375q1.734375 -1.0 2.5 -2.59375l0 -4.921875l-3.203125 0q-7.53125 0 -7.53125 4.40625q0 1.921875 1.28125 3.015625q1.296875 1.078125 3.3125 1.078125zm15.687256 -9.046875q0 -5.59375 2.578125 -8.90625q2.59375 -3.3125 6.875 -3.3125q4.375 0 6.84375 3.09375l0.1875 -2.65625l3.75 0l0 23.375q0 4.65625 -2.765625 7.328125q-2.75 2.671875 -7.40625 2.671875q-2.578125 0 -5.0625 -1.109375q-2.484375 -1.09375 -3.78125 -3.015625l2.125 -2.46875q2.625 3.265625 6.4375 3.265625q2.984375 0 4.65625 -1.6875q1.671875 -1.6875 1.671875 -4.734375l0 -2.0625q-2.453125 2.828125 -6.703125 2.828125q-4.203125 0 -6.8125 -3.375q-2.59375 -3.390625 -2.59375 -9.234375zm4.109375 0.46875q0 4.046875 1.65625 6.359375q1.671875 2.3125 4.65625 2.3125q3.875 0 5.6875 -3.515625l0 -10.9375q-1.875 -3.4375 -5.640625 -3.4375q-2.984375 0 -4.671875 2.328125q-1.6875 2.328125 -1.6875 6.890625zm32.22754 12.140625q-4.859375 0 -7.921875 -3.1875q-3.046875 -3.203125 -3.046875 -8.5625l0 -0.75q0 -3.5625 1.359375 -6.359375q1.359375 -2.796875 3.796875 -4.375q2.453125 -1.59375 5.3125 -1.59375q4.671875 0 7.25 3.078125q2.59375 3.078125 2.59375 8.8125l0 1.703125l-16.21875 0q0.078125 3.53125 2.0625 5.71875q1.984375 2.171875 5.03125 2.171875q2.171875 0 3.671875 -0.875q1.515625 -0.890625 2.640625 -2.34375l2.5 1.9375q-3.0 4.625 -9.03125 4.625zm-0.5 -21.46875q-2.484375 0 -4.171875 1.8125q-1.671875 1.796875 -2.078125 5.046875l12.0 0l0 -0.296875q-0.171875 -3.125 -1.6875 -4.84375q-1.5 -1.71875 -4.0625 -1.71875z" fill-rule="nonzero"/><path fill="#f15a29" d="m911.54816 539.67755l309.58002 0l0 279.29504l-309.58002 0z" fill-rule="evenodd"/><path fill="#000000" fill-opacity="0.0" d="m910.67664 714.1349l309.95276 0l0 70.6142l-309.95276 0z" fill-rule="evenodd"/><path fill="#ffffff" d="m1000.9292 751.43616q-0.59375 5.109375 -3.765625 7.890625q-3.171875 2.765625 -8.4375 2.765625q-5.71875 0 -9.15625 -4.09375q-3.4375 -4.09375 -3.4375 -10.953125l0 -3.09375q0 -4.5 1.59375 -7.90625q1.609375 -3.40625 4.546875 -5.234375q2.953125 -1.828125 6.828125 -1.828125q5.125 0 8.21875 2.875q3.109375 2.859375 3.609375 7.921875l-4.265625 0q-0.546875 -3.84375 -2.40625 -5.5625q-1.84375 -1.734375 -5.15625 -1.734375q-4.078125 0 -6.390625 3.015625q-2.3125 3.0 -2.3125 8.5625l0 3.125q0 5.234375 2.1875 8.34375q2.1875 3.09375 6.140625 3.09375q3.53125 0 5.421875 -1.59375q1.890625 -1.609375 2.515625 -5.59375l4.265625 0zm4.081238 -1.96875q0 -3.53125 1.375 -6.34375q1.390625 -2.8125 3.859375 -4.328125q2.46875 -1.53125 5.625 -1.53125q4.890625 0 7.90625 3.390625q3.031311 3.375 3.031311 9.0l0 0.296875q0 3.484375 -1.34375 6.265625q-1.328125 2.78125 -3.828186 4.328125q-2.484375 1.546875 -5.71875 1.546875q-4.859375 0 -7.890625 -3.375q-3.015625 -3.390625 -3.015625 -8.96875l0 -0.28125zm4.109375 0.484375q0 3.984375 1.84375 6.390625q1.859375 2.40625 4.953125 2.40625q3.125 0 4.953125 -2.4375q1.84375 -2.453125 1.84375 -6.84375q0 -3.953125 -1.875 -6.390625q-1.859375 -2.453125 -4.96875 -2.453125q-3.03125 0 -4.890625 2.421875q-1.859375 2.40625 -1.859375 6.90625zm26.679382 -12.25l0.109375 2.65625q2.625 -3.09375 7.109375 -3.09375q5.015625 0 6.828125 3.84375q1.203125 -1.71875 3.109375 -2.78125q1.921875 -1.0625 4.53125 -1.0625q7.875 0 8.015625 8.34375l0 16.046875l-4.09375 0l0 -15.796875q0 -2.578125 -1.171875 -3.84375q-1.171875 -1.28125 -3.953125 -1.28125q-2.265625 0 -3.78125 1.375q-1.5 1.359375 -1.75 3.65625l0 15.890625l-4.109375 0l0 -15.6875q0 -5.234375 -5.109375 -5.234375q-4.03125 0 -5.515625 3.4375l0 17.484375l-4.09375 0l0 -23.953125l3.875 0zm56.103516 12.25q0 5.46875 -2.5 8.8125q-2.5 3.328125 -6.78125 3.328125q-4.359375 0 -6.859375 -2.765625l0 11.53125l-4.09375 0l0 -33.15625l3.75 0l0.1875 2.65625q2.515625 -3.09375 6.953125 -3.09375q4.3125 0 6.828125 3.25q2.515625 3.25 2.515625 9.0625l0 0.375zm-4.09375 -0.46875q0 -4.046875 -1.734375 -6.390625q-1.71875 -2.359375 -4.734375 -2.359375q-3.71875 0 -5.578125 3.296875l0 11.453125q1.84375 3.265625 5.625 3.265625q2.953125 0 4.6875 -2.328125q1.734375 -2.328125 1.734375 -6.9375zm24.086914 9.796875q-2.390625 2.8125 -7.015625 2.8125q-3.84375 0 -5.84375 -2.21875q-2.0 -2.21875 -2.015625 -6.578125l0 -15.59375l4.09375 0l0 15.46875q0 5.453125 4.421875 5.453125q4.6875 0 6.234375 -3.5l0 -17.421875l4.109375 0l0 23.953125l-3.90625 0l-0.078125 -2.375zm15.753662 -27.375l0 5.796875l4.46875 0l0 3.171875l-4.46875 0l0 14.84375q0 1.4375 0.59375 2.171875q0.59375 0.71875 2.03125 0.71875q0.71875 0 1.953125 -0.265625l0 3.3125q-1.609375 0.4375 -3.140625 0.4375q-2.75 0 -4.140625 -1.65625q-1.390625 -1.65625 -1.390625 -4.71875l0 -14.84375l-4.359375 0l0 -3.171875l4.359375 0l0 -5.796875l4.09375 0zm19.181885 30.1875q-4.859375 0 -7.921875 -3.1875q-3.046875 -3.203125 -3.046875 -8.5625l0 -0.75q0 -3.5625 1.359375 -6.359375q1.359375 -2.796875 3.796875 -4.375q2.453125 -1.59375 5.3125 -1.59375q4.671875 0 7.25 3.078125q2.59375 3.078125 2.59375 8.8125l0 1.703125l-16.21875 0q0.078125 3.53125 2.0625 5.71875q1.984375 2.171875 5.03125 2.171875q2.171875 0 3.671875 -0.875q1.515625 -0.890625 2.640625 -2.34375l2.5 1.9375q-3.0 4.625 -9.03125 4.625zm-0.5 -21.46875q-2.484375 0 -4.171875 1.8125q-1.671875 1.796875 -2.078125 5.046875l12.0 0l0 -0.296875q-0.171875 -3.125 -1.6875 -4.84375q-1.5 -1.71875 -4.0625 -1.71875z" fill-rule="nonzero"/><path fill="#000000" fill-opacity="0.0" d="m2002.7522 871.27905l0 -656.69293l69.259766 0l0 656.69293z" fill-rule="evenodd"/><path fill="#454345" d="m2042.0897 614.497l0 -13.46875l3.0625 0l0 17.25l-28.4375 0l0 -3.78125l25.375 0zm3.0625 -21.101562l0 3.609375l-21.140625 0l0 -3.609375l21.140625 0zm-26.734375 3.90625q-0.890625 0 -1.484375 -0.53125q-0.609375 -0.546875 -0.609375 -1.59375q0 -1.0625 0.609375 -1.609375q0.59375 -0.546875 1.484375 -0.546875q0.875 0 1.46875 0.546875q0.578125 0.546875 0.578125 1.609375q0 1.046875 -0.578125 1.59375q-0.59375 0.53125 -1.46875 0.53125zm26.734375 -11.472656l-18.34375 0l0 3.34375l-2.796875 0l0 -3.34375l-2.15625 0q-3.40625 0 -5.25 -1.8125q-1.859375 -1.8125 -1.859375 -5.140625q0 -1.25 0.328125 -2.484375l2.921875 0.203125q-0.171875 0.921875 -0.171875 1.953125q0 1.75 1.03125 2.71875q1.015625 0.953125 2.9375 0.953125l2.21875 0l0 -4.515625l2.796875 0l0 4.515625l18.34375 0l0 3.609375zm0.390625 -20.402344q0 4.296875 -2.8125 7.0q-2.828125 2.6875 -7.5625 2.6875l-0.65625 0q-3.15625 0 -5.625 -1.203125q-2.46875 -1.203125 -3.859375 -3.359375q-1.40625 -2.15625 -1.40625 -4.6875q0 -4.109375 2.71875 -6.390625q2.71875 -2.296875 7.78125 -2.296875l1.5 0l0 14.3125q3.125 -0.078125 5.046875 -1.8125q1.921875 -1.75 1.921875 -4.453125q0 -1.90625 -0.78125 -3.234375q-0.78125 -1.328125 -2.0625 -2.328125l1.71875 -2.203125q4.078125 2.65625 4.078125 7.96875zm-18.953125 0.4375q0 2.1875 1.59375 3.671875q1.59375 1.484375 4.46875 1.84375l0 -10.59375l-0.28125 0q-2.75 0.15625 -4.265625 1.484375q-1.515625 1.328125 -1.515625 3.59375zm16.0 -21.347656q0 -1.921875 -1.171875 -3.359375q-1.171875 -1.453125 -2.921875 -1.609375l0 -3.421875q1.8125 0.09375 3.453125 1.25q1.640625 1.15625 2.625 3.078125q0.96875 1.921875 0.96875 4.0625q0 4.328125 -2.875 6.875q-2.890625 2.546875 -7.890625 2.546875l-0.609375 0q-3.078125 0 -5.484375 -1.125q-2.40625 -1.140625 -3.734375 -3.25q-1.328125 -2.125 -1.328125 -5.015625q0 -3.5625 2.140625 -5.90625q2.125 -2.359375 5.515625 -2.515625l0 3.421875q-2.046875 0.15625 -3.359375 1.546875q-1.328125 1.390625 -1.328125 3.453125q0 2.75 1.984375 4.265625q1.984375 1.515625 5.734375 1.515625l0.6875 0q3.65625 0 5.625 -1.5q1.96875 -1.515625 1.96875 -4.3125zm-2.734375 -19.375l-15.84375 -4.921875l0 -3.859375l24.406128 8.5q5.265625 1.96875 5.265625 6.265625l-0.046875 0.6875l-0.265625 1.34375l-2.921875 0l0.078125 -0.984375q0 -1.828125 -0.75 -2.84375q-0.734375 -1.03125 -2.703003 -1.703125l-2.15625 -0.796875l-20.90625 7.53125l0 -3.9375l15.84375 -5.28125zm2.734375 -20.234375q0 -1.921875 -1.171875 -3.359375q-1.171875 -1.453125 -2.921875 -1.609375l0 -3.421875q1.8125 0.09375 3.453125 1.25q1.640625 1.15625 2.625 3.078125q0.96875 1.921875 0.96875 4.0625q0 4.328125 -2.875 6.875q-2.890625 2.546875 -7.890625 2.546875l-0.609375 0q-3.078125 0 -5.484375 -1.125q-2.40625 -1.140625 -3.734375 -3.25q-1.328125 -2.125 -1.328125 -5.015625q0 -3.5625 2.140625 -5.90625q2.125 -2.359375 5.515625 -2.515625l0 3.421875q-2.046875 0.15625 -3.359375 1.546875q-1.328125 1.390625 -1.328125 3.453125q0 2.75 1.984375 4.265625q1.984375 1.515625 5.734375 1.515625l0.6875 0q3.65625 0 5.625 -1.5q1.96875 -1.515625 1.96875 -4.3125zm2.5625 -16.375l0 3.609375l-30.0 0l0 -3.609375l30.0 0zm0.390625 -14.550781q0 4.296875 -2.8125 7.0q-2.828125 2.6875 -7.5625 2.6875l-0.65625 0q-3.15625 0 -5.625 -1.203125q-2.46875 -1.203125 -3.859375 -3.359375q-1.40625 -2.15625 -1.40625 -4.6875q0 -4.109375 2.71875 -6.390625q2.71875 -2.296875 7.78125 -2.296875l1.5 0l0 14.3125q3.125 -0.078125 5.046875 -1.8125q1.921875 -1.75 1.921875 -4.453125q0 -1.90625 -0.78125 -3.234375q-0.78125 -1.328125 -2.0625 -2.328125l1.71875 -2.203125q4.078125 2.65625 4.078125 7.96875zm-18.953125 0.4375q0 2.1875 1.59375 3.671875q1.59375 1.484375 4.46875 1.84375l0 -10.59375l-0.28125 0q-2.75 0.15625 -4.265625 1.484375q-1.515625 1.328125 -1.515625 3.59375z" fill-rule="nonzero"/><path fill="#ffffff" d="m1046.3835 584.04803l0 13.291809l-13.460083 0c-7.402954 0 -13.291809 6.057007 -13.291809 13.291687l0 13.291809l-13.291626 0l0 13.291687l13.291626 0l0 13.291809l-13.291626 0l0 13.291687l13.291626 0l0 13.291809c0 7.403015 6.05719 13.291687 13.291809 13.291687l13.291748 0l0 13.291809l13.291748 0l0 -13.291809l13.29187 0l0 13.291809l13.291748 0l0 -13.291809l13.291626 0c7.402954 0 13.29187 -6.057007 13.29187 -13.291687l0 -13.291809l13.291626 0l0 -13.291687l-13.291626 0l0 -13.291809l13.291626 0l0 -13.291687l-13.291626 0l0 -13.291809c0 -7.403015 -6.057007 -13.291687 -13.29187 -13.291687l-13.291626 0l0 -13.291809l-13.291748 0l0 13.291809l-13.29187 0l0 -13.291809l-13.123413 0zm-7.234741 94.893005c-4.206299 0 -7.739624 -3.5332031 -7.739624 -7.739502l7.739624 0l0 7.739502zm0 -15.479004l-7.907837 0l0 -7.739502l7.739502 0l0 7.739502zm0 -15.647217l-7.907837 0l0 -7.739441l7.739502 0l0 7.739441zm0 -15.478943l-7.907837 0l0 -7.739502l7.739502 0l0 7.739502zm0 -15.479004l-7.907837 0c0 -4.20636 3.5332031 -7.739502 7.739502 -7.739502l0 7.739502zm54.344727 -7.907837c4.2061768 0 7.739502 3.5333252 7.739502 7.739502l-7.739502 0l0 -7.739502zm0 15.647339l7.739502 0l0 7.739502l-7.739502 0l0 -7.739502zm0 15.479004l7.739502 0l0 7.739441l-7.739502 0l0 -7.739441zm0 15.647156l7.739502 0l0 7.739502l-7.739502 0l0 -7.739502zm0 15.479004l7.739502 0c0 4.206299 -3.5333252 7.739502 -7.739502 7.739502l0 -7.739502zm-46.605347 -62.252502l7.739502 0l0 7.739502l-7.739502 0l0 -7.739502zm7.739502 69.992004l-7.739502 0l0 -7.739502l7.739502 0l0 7.739502zm15.647339 0l-7.739502 0l0 -7.739502l7.739502 0l0 7.739502zm15.479004 0l-7.739502 0l0 -7.739502l7.739502 0l0 7.739502zm-7.739502 -69.992004l7.739502 0l0 7.739502l-7.739502 0l0 -7.739502zm-15.647339 0l7.739502 0l0 7.739502l-7.739502 0l0 -7.739502zm23.38684 15.647339l0 38.86566l-38.865845 0l0 -38.86566l38.865845 0z" fill-rule="evenodd"/><path fill="#ffffff" d="m667.17145 608.065c3.529541 3.1932373 7.5632324 5.0421143 11.933044 6.3864746c5.882324 2.0170288 11.764893 3.0252686 17.983398 3.6976929c6.5548096 0.67230225 12.941467 0.840271 19.496094 0.5041504c8.907837 -0.5041504 17.47931 -1.6807251 25.882812 -4.7059937c3.8656616 -1.3445435 7.3950806 -3.1934204 10.588501 -6.050476c0 0.3361206 0 0.6722412 0 0.84039307c0 6.3865356 0 12.773315 0 19.159851c0 2.1849976 -0.8404541 3.8656616 -2.3530273 5.210266c-2.1849976 2.0167847 -4.8740845 3.3613892 -7.731201 4.537781c-4.8740845 2.0168457 -9.916199 3.1934204 -15.126282 3.8656616c-7.731201 1.1764526 -15.462463 1.5125732 -23.193665 1.1764526c-8.739624 -0.33599854 -17.31128 -1.5125732 -25.54663 -4.36969c-3.0252686 -1.1765747 -6.050537 -2.3531494 -8.571655 -4.369812c-0.840271 -0.6722412 -1.6807251 -1.5126953 -2.3529663 -2.3529663c-0.67230225 -0.8404541 -1.0084229 -2.0170288 -1.0084229 -3.0254517c0 -6.7227783 0 -13.277405 0 -20.000244c0 0 0 -0.16815186 0 -0.50408936z" fill-rule="evenodd"/><path fill="#ffffff" d="m667.17145 667.56177c4.537964 4.0336914 10.252319 6.050537 16.134705 7.731262c5.210266 1.3445435 10.420349 2.1848145 15.630615 2.520935c6.3866577 0.5043335 12.605103 0.67230225 18.991821 0.16796875c8.235474 -0.50408936 16.302856 -1.6806641 24.034058 -4.369629c3.6975708 -1.3447266 7.05896 -2.8572388 10.0842285 -5.378235c0.16796875 -0.16815186 0.50408936 -0.50427246 0.840271 -0.8404541c0 0.33618164 0 0.5041504 0 0.67230225c0 6.5546265 0 13.277466 0 19.832275c0 2.0168457 -1.0084229 3.529358 -2.3530273 4.8740845c-2.520935 2.3530273 -5.5462036 3.6973877 -8.907593 5.0421143c-4.8741455 1.8486938 -9.916199 2.8571167 -15.126282 3.6973877c-6.7228394 1.0084229 -13.61377 1.1765747 -20.504578 1.0084229c-8.907776 -0.33599854 -17.6474 -1.3444214 -26.050903 -4.20166c-3.529419 -1.1764526 -6.890808 -2.689148 -9.748108 -5.0421143c-0.84020996 -0.67230225 -1.5125122 -1.5125732 -2.1848145 -2.3529663c-0.6722412 -0.840271 -0.84039307 -1.848877 -0.84039307 -2.8572998c0 -6.7227783 0 -13.613586 0 -20.336365c0 0 0 0 0 -0.16802979z" fill-rule="evenodd"/><path fill="#ffffff" d="m667.17145 637.8131c3.6975098 3.3614502 8.235474 5.210266 12.941467 6.7228394c5.378235 1.6806641 10.924438 2.689087 16.638855 3.3613892c5.8825073 0.67230225 11.596863 0.8404541 17.479248 0.67230225c9.411926 -0.33618164 18.823853 -1.5125732 27.731628 -4.537842c4.7059937 -1.6806641 7.899231 -3.3613892 11.092651 -6.050476c0 0.16796875 0 0.50408936 0 0.6722412c0 6.5546265 0 13.277466 0 19.832275c0 1.6807251 -0.8404541 3.0252686 -2.0168457 4.369629c-2.1849976 2.1849976 -4.8741455 3.529541 -7.731262 4.8741455c-4.8740845 2.0168457 -9.916199 3.1934204 -15.126282 4.0336914c-6.7227783 1.0084229 -13.61377 1.5126953 -20.504517 1.3445435c-9.2439575 -0.16815186 -18.319702 -1.1763916 -27.059387 -4.0336914c-3.529358 -1.1765747 -6.890747 -2.520935 -9.748047 -4.7059326c-0.840271 -0.67230225 -1.6807251 -1.5127563 -2.3529663 -2.1848755c-0.840271 -1.0085449 -1.3445435 -2.1849976 -1.3445435 -3.529541c0 -6.5546265 0 -13.277405 0 -19.832275c0 -0.50408936 0 -0.6722412 0 -1.0084229z" fill-rule="evenodd"/><path fill="#ffffff" d="m710.1973 585.0391c8.571655 -0.16796875 17.143127 0.67230225 25.54663 2.689148c4.369812 1.1765747 8.571655 2.5211182 12.269226 4.8740845c1.5125122 0.840271 2.8570557 2.0168457 3.8654785 3.3614502c1.5127563 2.1848145 1.5127563 4.20166 0 6.3866577c-1.3445435 1.6806641 -3.0252075 2.8570557 -4.8739014 4.0336304c-4.2018433 2.3530273 -8.739624 3.6975708 -13.445618 4.7059937c-5.5463867 1.1765747 -11.260803 2.0168457 -17.143127 2.1848145c-4.369812 0.16815186 -8.907776 0.16815186 -13.445618 0c-8.403503 -0.3361206 -16.807007 -1.6807251 -24.70636 -4.537781c-2.8571167 -1.0084229 -5.7144165 -2.3530273 -7.899231 -4.2018433c-0.84039307 -0.67211914 -1.5126953 -1.3446045 -2.1849976 -2.1848145c-1.5125122 -2.0168457 -1.5125122 -3.8657227 0 -5.8825684c1.3446045 -1.8486938 3.1934204 -3.1932373 5.0421143 -4.20166c4.0336914 -2.1849976 8.403503 -3.529358 12.941467 -4.537964c5.8823853 -1.3445435 11.764893 -2.0168457 17.81543 -2.3528442c2.0168457 -0.50427246 4.0336914 -0.3363037 6.218506 -0.3363037z" fill-rule="evenodd"/><path fill="#000000" fill-opacity="0.0" d="m881.6864 392.3858l255.52759 0l0 47.62204l-255.52759 0z" fill-rule="evenodd"/><path fill="#ffffff" d="m912.21765 431.49954l-13.5 0l-3.03125 8.40625l-4.375 0l12.296875 -32.21875l3.71875 0l12.328125 32.21875l-4.359375 0l-3.078125 -8.40625zm-12.21875 -3.5l10.96875 0l-5.5 -15.078125l-5.46875 15.078125zm32.960144 9.0q2.1875 0 3.828125 -1.328125q1.640625 -1.328125 1.8125 -3.3125l3.875 0q-0.109375 2.0625 -1.421875 3.921875q-1.296875 1.859375 -3.484375 2.96875q-2.171875 1.09375 -4.609375 1.09375q-4.890625 0 -7.78125 -3.265625q-2.890625 -3.265625 -2.890625 -8.921875l0 -0.6875q0 -3.5 1.28125 -6.21875q1.296875 -2.71875 3.6875 -4.21875q2.40625 -1.515625 5.6875 -1.515625q4.015625 0 6.6875 2.421875q2.671875 2.40625 2.84375 6.25l-3.875 0q-0.171875 -2.3125 -1.765625 -3.8125q-1.578125 -1.5 -3.890625 -1.5q-3.125 0 -4.84375 2.25q-1.71875 2.25 -1.71875 6.5l0 0.765625q0 4.140625 1.703125 6.375q1.71875 2.234375 4.875 2.234375zm23.72644 0q2.1875 0 3.828125 -1.328125q1.640625 -1.328125 1.8125 -3.3125l3.875 0q-0.109375 2.0625 -1.421875 3.921875q-1.296875 1.859375 -3.484375 2.96875q-2.171875 1.09375 -4.609375 1.09375q-4.890625 0 -7.78125 -3.265625q-2.890625 -3.265625 -2.890625 -8.921875l0 -0.6875q0 -3.5 1.28125 -6.21875q1.296875 -2.71875 3.6875 -4.21875q2.40625 -1.515625 5.6875 -1.515625q4.015625 0 6.6875 2.421875q2.671875 2.40625 2.84375 6.25l-3.875 0q-0.171875 -2.3125 -1.765625 -3.8125q-1.578125 -1.5 -3.890625 -1.5q-3.125 0 -4.84375 2.25q-1.71875 2.25 -1.71875 6.5l0 0.765625q0 4.140625 1.703125 6.375q1.71875 2.234375 4.875 2.234375zm24.054565 3.34375q-4.859375 0 -7.921875 -3.1875q-3.046875 -3.203125 -3.046875 -8.5625l0 -0.75q0 -3.5625 1.359375 -6.359375q1.359375 -2.796875 3.796875 -4.375q2.453125 -1.59375 5.3125 -1.59375q4.671875 0 7.25 3.078125q2.59375 3.078125 2.59375 8.8125l0 1.703125l-16.21875 0q0.078125 3.53125 2.0625 5.71875q1.984375 2.171875 5.03125 2.171875q2.171875 0 3.671875 -0.875q1.515625 -0.890625 2.640625 -2.34375l2.5 1.9375q-3.0 4.625 -9.03125 4.625zm-0.5 -21.46875q-2.484375 0 -4.171875 1.8125q-1.671875 1.796875 -2.078125 5.046875l12.0 0l0 -0.296875q-0.171875 -3.125 -1.6875 -4.84375q-1.5 -1.71875 -4.0625 -1.71875zm28.529785 14.671875q0 -1.65625 -1.25 -2.5625q-1.25 -0.921875 -4.359375 -1.578125q-3.109375 -0.671875 -4.9375 -1.59375q-1.828125 -0.9375 -2.703125 -2.21875q-0.875 -1.296875 -0.875 -3.0625q0 -2.9375 2.484375 -4.96875q2.5 -2.046875 6.375 -2.046875q4.0625 0 6.59375 2.109375q2.546875 2.09375 2.546875 5.375l-4.125 0q0 -1.6875 -1.4375 -2.90625q-1.421875 -1.21875 -3.578125 -1.21875q-2.234375 0 -3.5 0.984375q-1.265625 0.96875 -1.265625 2.546875q0 1.46875 1.171875 2.234375q1.171875 0.75 4.234375 1.4375q3.078125 0.6875 4.96875 1.640625q1.90625 0.9375 2.828125 2.28125q0.921875 1.34375 0.921875 3.265625q0 3.203125 -2.578125 5.140625q-2.5625 1.9375 -6.65625 1.9375q-2.875 0 -5.09375 -1.015625q-2.203125 -1.015625 -3.453125 -2.84375q-1.25 -1.828125 -1.25 -3.953125l4.09375 0q0.109375 2.0625 1.640625 3.265625q1.546875 1.203125 4.0625 1.203125q2.328125 0 3.734375 -0.9375q1.40625 -0.9375 1.40625 -2.515625zm23.372253 0q0 -1.65625 -1.25 -2.5625q-1.25 -0.921875 -4.359375 -1.578125q-3.109314 -0.671875 -4.937439 -1.59375q-1.828125 -0.9375 -2.703125 -2.21875q-0.875 -1.296875 -0.875 -3.0625q0 -2.9375 2.484375 -4.96875q2.5 -2.046875 6.374939 -2.046875q4.0625 0 6.59375 2.109375q2.546875 2.09375 2.546875 5.375l-4.125 0q0 -1.6875 -1.4375 -2.90625q-1.421875 -1.21875 -3.578125 -1.21875q-2.234375 0 -3.499939 0.984375q-1.265625 0.96875 -1.265625 2.546875q0 1.46875 1.171875 2.234375q1.171814 0.75 4.234314 1.4375q3.078125 0.6875 4.96875 1.640625q1.90625 0.9375 2.828125 2.28125q0.921875 1.34375 0.921875 3.265625q0 3.203125 -2.578125 5.140625q-2.5625 1.9375 -6.65625 1.9375q-2.875 0 -5.093689 -1.015625q-2.203125 -1.015625 -3.453125 -2.84375q-1.25 -1.828125 -1.25 -3.953125l4.09375 0q0.109375 2.0625 1.640625 3.265625q1.546814 1.203125 4.062439 1.203125q2.328125 0 3.734375 -0.9375q1.40625 -0.9375 1.40625 -2.515625z" fill-rule="nonzero"/><path fill="#ffffff" d="m796.24927 459.50598l-2.3529663 0c0.3361206 -0.5041199 0.3361206 -1.0084229 0.3361206 -1.5127258l0 -28.739868c0 -1.6806946 -1.3445435 -3.0252686 -3.0252075 -3.0252686l-37.983826 0c-1.6807251 0 -3.0252686 1.344574 -3.0252686 3.0252686l0 28.739868c0 0.504303 0.16796875 1.008606 0.3361206 1.5127258l-1.6806641 0c-1.3446045 0 -2.3530273 1.0084229 -2.3530273 2.3529968l0 0.16815186c0 1.3445435 1.0084229 2.3529663 2.3530273 2.3529663l47.56372 0c1.3447266 0 2.3531494 -1.0084229 2.3531494 -2.3529663l0 -0.16815186c-0.16815186 -1.1764221 -1.1765747 -2.3529968 -2.5211792 -2.3529968zm-43.69818 -30.588745l39.66455 0l0 28.06778l-39.66455 0l0 -28.06778z" fill-rule="evenodd"/><path fill="#ffffff" d="m850.704 433.28708l-14.958313 0c-1.6807251 0 -3.0252686 1.344574 -3.0252686 3.0252686l0 26.891205c0 1.6806946 1.3445435 3.025238 3.0252686 3.025238l14.958313 0c1.6807251 0 3.0252686 -1.3445435 3.0252686 -3.025238l0 -26.891205c0 -1.6806946 -1.3445435 -3.0252686 -3.0252686 -3.0252686zm0.840271 28.740051l-16.807007 0l0 -26.218903l16.807007 0l0 26.218903z" fill-rule="evenodd"/><path fill="#ffffff" d="m837.93066 400.34537l0 28.403748l6.050537 0l0 -31.765137c0 -2.8572998 -2.3529663 -5.210266 -5.210083 -5.210266l-61.17749 0c-2.8572388 0 -5.210266 2.3529663 -5.210266 5.210266l0 24.87436l6.050537 0l0 -21.51297c0 -1.344574 1.1763916 -2.5211487 2.5211182 -2.5211487l54.454712 0c1.5125122 0 2.520935 1.1765747 2.520935 2.5211487z" fill-rule="evenodd"/><path fill="#ffffff" d="m814.905 441.69058l13.445557 0l0 -2.6891174l-30.420532 0l0 2.6891174l3.529358 0l0 8.067352l-3.529358 0l0 6.722809l23.697754 0l0 -6.722809l-6.7227783 0z" fill-rule="evenodd"/><path fill="#ffffff" d="m844.4853 376.3114c-2.0168457 -9.916046 -10.924622 -17.143127 -21.00885 -17.143127c-3.529358 0 -7.058777 0.8404236 -10.0841675 2.5211487c-5.210083 -7.8993835 -13.781616 -12.605347 -23.361694 -12.605347c-15.294434 0 -27.731445 12.101044 -28.067749 27.227325c-9.747864 2.1849976 -16.974976 10.924469 -16.974976 20.840698c0 11.260773 8.739624 20.336365 19.832275 21.34497l0.16815186 -0.16815186l0 -3.0252686c-8.067566 -2.1848145 -14.11792 -9.411926 -14.11792 -18.15155c0 -9.075775 6.890808 -16.975006 15.798584 -18.487701l1.1763916 -0.16799927l0 -1.3447266c0 -13.949707 8.067383 -22.01709 22.01709 -22.01709c9.075806 0 17.14331 4.705963 21.849121 12.437195l0.67230225 1.1763916l1.1765747 -0.6720886c3.0252686 -1.848877 6.3866577 -2.8572998 9.748047 -2.8572998c9.075745 0 17.143127 6.8907776 18.48767 15.798584l0.16815186 1.0084229l1.0084229 0.16799927c9.075806 1.5126953 12.773376 6.0506897 12.773376 15.126282c0 3.6975403 -1.0084229 6.218689 -2.8572998 8.571655l0 8.403503l0.16815186 0.16799927c5.378235 -3.8655396 8.739624 -10.0842285 8.739624 -17.143158c0.16796875 -10.084198 -7.227112 -18.991821 -17.31128 -21.008667z" fill-rule="evenodd"/><path fill="#000000" fill-opacity="0.0" d="m1744.6743 590.8095l230.8977 0l0 69.25989l-230.8977 0z" fill-rule="evenodd"/><path fill="#ffffff" d="m1792.1993 633.20953l0 -28.4375l8.03125 0q3.71875 0 6.5625 1.640625q2.859375 1.640625 4.40625 4.671875q1.546875 3.015625 1.578125 6.953125l0 1.8125q0 4.015625 -1.5625 7.046875q-1.546875 3.03125 -4.4375 4.65625q-2.875 1.609375 -6.703125 1.65625l-7.875 0zm3.75 -25.359375l0 22.296875l3.953125 0q4.328125 0 6.734375 -2.6875q2.421875 -2.703125 2.421875 -7.6875l0 -1.65625q0 -4.84375 -2.28125 -7.53125q-2.265625 -2.6875 -6.453125 -2.734375l-4.375 0zm30.683594 25.75q-4.296875 0 -7.0 -2.8125q-2.6875 -2.828125 -2.6875 -7.5625l0 -0.65625q0 -3.15625 1.203125 -5.625q1.203125 -2.46875 3.359375 -3.859375q2.15625 -1.40625 4.6875 -1.40625q4.109375 0 6.390625 2.71875q2.296875 2.71875 2.296875 7.78125l0 1.5l-14.3125 0q0.078125 3.125 1.8125 5.046875q1.75 1.921875 4.453125 1.921875q1.90625 0 3.234375 -0.78125q1.328125 -0.78125 2.328125 -2.0625l2.203125 1.71875q-2.65625 4.078125 -7.96875 4.078125zm-0.4375 -18.953125q-2.1875 0 -3.671875 1.59375q-1.484375 1.59375 -1.84375 4.46875l10.59375 0l0 -0.28125q-0.15625 -2.75 -1.484375 -4.265625q-1.328125 -1.515625 -3.59375 -1.515625zm19.578125 13.65625l5.234375 -16.234375l3.703125 0l-7.578125 21.140625l-2.765625 0l-7.65625 -21.140625l3.703125 0l5.359375 16.234375zm20.917969 5.296875q-4.296875 0 -7.0 -2.8125q-2.6875 -2.828125 -2.6875 -7.5625l0 -0.65625q0 -3.15625 1.203125 -5.625q1.203125 -2.46875 3.359375 -3.859375q2.15625 -1.40625 4.6875 -1.40625q4.109375 0 6.390625 2.71875q2.296875 2.71875 2.296875 7.78125l0 1.5l-14.3125 0q0.078125 3.125 1.8125 5.046875q1.75 1.921875 4.453125 1.921875q1.90625 0 3.234375 -0.78125q1.328125 -0.78125 2.328125 -2.0625l2.203125 1.71875q-2.65625 4.078125 -7.96875 4.078125zm-0.4375 -18.953125q-2.1875 0 -3.671875 1.59375q-1.484375 1.59375 -1.84375 4.46875l10.59375 0l0 -0.28125q-0.15625 -2.75 -1.484375 -4.265625q-1.328125 -1.515625 -3.59375 -1.515625zm16.785156 18.5625l-3.609375 0l0 -30.0l3.609375 0l0 30.0zm4.8320312 -10.765625q0 -3.109375 1.21875 -5.578125q1.21875 -2.484375 3.390625 -3.828125q2.1875 -1.359375 4.984375 -1.359375q4.3125 0 6.96875 3.0q2.671875 2.984375 2.671875 7.9375l0 0.265625q0 3.078125 -1.1875 5.53125q-1.171875 2.453125 -3.375 3.828125q-2.1875 1.359375 -5.046875 1.359375q-4.296875 0 -6.96875 -2.984375q-2.65625 -3.0 -2.65625 -7.921875l0 -0.25zm3.625 0.4375q0 3.515625 1.625 5.640625q1.640625 2.125 4.375 2.125q2.75 0 4.375 -2.15625q1.625 -2.15625 1.625 -6.046875q0 -3.46875 -1.65625 -5.625q-1.640625 -2.171875 -4.375 -2.171875q-2.6875 0 -4.328125 2.140625q-1.640625 2.125 -1.640625 6.09375zm38.0 0q0 4.8125 -2.21875 7.765625q-2.203125 2.953125 -5.96875 2.953125q-3.84375 0 -6.0625 -2.4375l0 10.171875l-3.609375 0l0 -29.265625l3.296875 0l0.1875 2.34375q2.203125 -2.734375 6.125 -2.734375q3.8125 0 6.03125 2.875q2.21875 2.875 2.21875 7.984375l0 0.34375zm-3.625 -0.421875q0 -3.5625 -1.53125 -5.625q-1.515625 -2.078125 -4.171875 -2.078125q-3.28125 0 -4.921875 2.90625l0 10.09375q1.625 2.890625 4.96875 2.890625q2.59375 0 4.125 -2.0625q1.53125 -2.0625 1.53125 -6.125z" fill-rule="nonzero"/><path fill="#ffffff" d="m1860.1666 454.60333c-33.673096 0 -60.97046 27.297363 -60.97046 60.97052c0 33.67334 27.297363 60.97046 60.97046 60.97046c33.67334 0 60.97058 -27.29712 60.97058 -60.97046c0 -33.673157 -27.297241 -60.97052 -60.97058 -60.97052zm-14.545288 81.29401l-5.3796387 5.379822l-22.91394 -22.913818l22.91394 -22.913666l5.3796387 5.379669l-17.533813 17.533997l17.533813 17.533997zm11.954956 13.3498535l-7.77063 -1.793335l14.9436035 -61.36902l7.770874 1.793335l-14.943848 61.36902zm22.51538 -7.9700317l-5.379883 -5.379822l17.53418 -17.533997l-17.53418 -17.533997l5.379883 -5.379669l22.913696 22.913666l-22.913696 22.913818z" fill-rule="evenodd"/><path fill="#000000" fill-opacity="0.0" d="m1266.6814 590.8095l238.99207 0l0 70.6142l-238.99207 0z" fill-rule="evenodd"/><path fill="#ffffff" d="m1328.9664 633.20953l0 -28.4375l8.03125 0q3.71875 0 6.5625 1.640625q2.859375 1.640625 4.40625 4.671875q1.546875 3.015625 1.578125 6.953125l0 1.8125q0 4.015625 -1.5625 7.046875q-1.546875 3.03125 -4.4375 4.65625q-2.875 1.609375 -6.703125 1.65625l-7.875 0zm3.75 -25.359375l0 22.296875l3.953125 0q4.328125 0 6.734375 -2.6875q2.421875 -2.703125 2.421875 -7.6875l0 -1.65625q0 -4.84375 -2.28125 -7.53125q-2.265625 -2.6875 -6.453125 -2.734375l-4.375 0zm30.683594 25.75q-4.296875 0 -7.0 -2.8125q-2.6875 -2.828125 -2.6875 -7.5625l0 -0.65625q0 -3.15625 1.203125 -5.625q1.203125 -2.46875 3.359375 -3.859375q2.15625 -1.40625 4.6875 -1.40625q4.109375 0 6.390625 2.71875q2.296875 2.71875 2.296875 7.78125l0 1.5l-14.3125 0q0.078125 3.125 1.8125 5.046875q1.75 1.921875 4.453125 1.921875q1.90625 0 3.234375 -0.78125q1.328125 -0.78125 2.328125 -2.0625l2.203125 1.71875q-2.65625 4.078125 -7.96875 4.078125zm-0.4375 -18.953125q-2.1875 0 -3.671875 1.59375q-1.484375 1.59375 -1.84375 4.46875l10.59375 0l0 -0.28125q-0.15625 -2.75 -1.484375 -4.265625q-1.328125 -1.515625 -3.59375 -1.515625zm30.722656 8.234375q0 4.8125 -2.21875 7.765625q-2.203125 2.953125 -5.96875 2.953125q-3.84375 0 -6.0625 -2.4375l0 10.171875l-3.609375 0l0 -29.265625l3.296875 0l0.1875 2.34375q2.203125 -2.734375 6.125 -2.734375q3.8125 0 6.03125 2.875q2.21875 2.875 2.21875 7.984375l0 0.34375zm-3.625 -0.421875q0 -3.5625 -1.53125 -5.625q-1.515625 -2.078125 -4.171875 -2.078125q-3.28125 0 -4.921875 2.90625l0 10.09375q1.625 2.890625 4.96875 2.890625q2.59375 0 4.125 -2.0625q1.53125 -2.0625 1.53125 -6.125zm12.128906 10.75l-3.609375 0l0 -30.0l3.609375 0l0 30.0zm4.8320312 -10.765625q0 -3.109375 1.21875 -5.578125q1.21875 -2.484375 3.390625 -3.828125q2.1875 -1.359375 4.984375 -1.359375q4.3125 0 6.96875 3.0q2.671875 2.984375 2.671875 7.9375l0 0.265625q0 3.078125 -1.1875 5.53125q-1.171875 2.453125 -3.375 3.828125q-2.1875 1.359375 -5.046875 1.359375q-4.296875 0 -6.96875 -2.984375q-2.65625 -3.0 -2.65625 -7.921875l0 -0.25zm3.625 0.4375q0 3.515625 1.625 5.640625q1.640625 2.125 4.375 2.125q2.75 0 4.375 -2.15625q1.625 -2.15625 1.625 -6.046875q0 -3.46875 -1.65625 -5.625q-1.640625 -2.171875 -4.375 -2.171875q-2.6875 0 -4.328125 2.140625q-1.640625 2.125 -1.640625 6.09375zm26.769531 5.03125l4.921875 -15.84375l3.859375 0l-8.5 24.40625q-1.96875 5.265625 -6.265625 5.265625l-0.6875 -0.046875l-1.34375 -0.265625l0 -2.921875l0.984375 0.078125q1.828125 0 2.84375 -0.75q1.03125 -0.734375 1.703125 -2.703125l0.796875 -2.15625l-7.53125 -20.90625l3.9375 0l5.28125 15.84375z" fill-rule="nonzero"/><path fill="#ffffff" d="m1382.8496 502.85596c0.7943115 0 1.3901367 -0.794281 1.3901367 -1.3901062c0 -0.794281 -0.7943115 -1.3898621 -1.3901367 -1.3898621c-0.7943115 0 -1.3898926 0.59558105 -1.3898926 1.3898621c0 0.794281 0.59558105 1.3901062 1.3898926 1.3901062z" fill-rule="evenodd"/><path fill="#ffffff" d="m1388.0126 502.85596c0.7940674 0 1.3898926 -0.5958252 1.3898926 -1.3901062c0 -0.794281 -0.5958252 -1.3898621 -1.3898926 -1.3898621c-0.79455566 0 -1.3901367 0.59558105 -1.3901367 1.3898621c-0.19848633 0.794281 0.59558105 1.3901062 1.3901367 1.3901062z" fill-rule="evenodd"/><path fill="#ffffff" d="m1388.0126 487.96307c0.7940674 0 1.3898926 -0.5957947 1.3898926 -1.3900757c0 -0.794281 -0.5958252 -1.3898926 -1.3898926 -1.3898926c-0.79455566 0 -1.3901367 0.5956116 -1.3901367 1.3898926c-0.19848633 0.794281 0.59558105 1.3900757 1.3901367 1.3900757z" fill-rule="evenodd"/><path fill="#ffffff" d="m1377.6869 487.96307c0.7943115 0 1.3898926 -0.5957947 1.3898926 -1.3900757c0 -0.794281 -0.59558105 -1.3898926 -1.3898926 -1.3898926c-0.79455566 0 -1.3901367 0.5956116 -1.3901367 1.3898926c0 0.794281 0.59558105 1.3900757 1.3901367 1.3900757z" fill-rule="evenodd"/><path fill="#ffffff" d="m1377.6869 502.85596c0.7943115 0 1.3898926 -0.5958252 1.3898926 -1.3901062c0 -0.794281 -0.59558105 -1.3898621 -1.3898926 -1.3898621c-0.79455566 0 -1.3901367 0.59558105 -1.3901367 1.3898621c0 0.794281 0.59558105 1.3901062 1.3901367 1.3901062z" fill-rule="evenodd"/><path fill="#ffffff" d="m1382.8496 487.96307c0.7943115 0 1.3901367 -0.794281 1.3901367 -1.3900757c0 -0.794281 -0.7943115 -1.3898926 -1.3901367 -1.3898926c-0.7943115 0 -1.3898926 0.5956116 -1.3898926 1.3898926c0 0.794281 0.59558105 1.3900757 1.3898926 1.3900757z" fill-rule="evenodd"/><path fill="#ffffff" d="m1383.0483 514.9686c-0.7944336 0 -1.3900146 0.59558105 -1.3900146 1.3898926c0 0.7942505 0.59558105 1.3900757 1.3900146 1.3900757c0.7940674 0 1.3898926 -0.7943115 1.3898926 -1.3900757c0 -0.7943115 -0.7943115 -1.3898926 -1.3898926 -1.3898926z" fill-rule="evenodd"/><path fill="#ffffff" d="m1388.0126 514.9686c-0.7944336 0 -1.3900146 0.59558105 -1.3900146 1.3898926c0 0.7942505 0.59558105 1.3900757 1.3900146 1.3900757c0.7940674 0 1.3898926 -0.5958252 1.3898926 -1.3900757c0 -0.7943115 -0.5958252 -1.3898926 -1.3898926 -1.3898926z" fill-rule="evenodd"/><path fill="#ffffff" d="m1389.6012 454.60333c-33.756958 0 -60.96118 27.402649 -60.96118 60.96112c0 33.756897 27.40271 60.960876 60.96118 60.960876c33.756836 0 60.960815 -27.402649 60.960815 -60.960876c0 -33.55847 -27.20398 -60.96112 -60.960815 -60.96112zm-17.672852 27.998474c0 -1.588562 1.1914062 -2.5815125 2.7799072 -2.5815125c5.9571533 0 11.914307 0 17.871338 0c5.9571533 0 14.495728 0 20.25415 0c2.1843262 0 2.9786377 0.99295044 2.9786377 2.9786682c0 2.3828125 0 4.7656555 0 7.1484985c0 1.7870178 -0.9929199 2.7799988 -2.7799072 2.7799988c-0.39746094 0 -0.5958252 0 -0.993042 0c-11.3186035 0 -25.41687 0 -36.73535 0c-0.39733887 0 -0.79418945 0 -1.1914062 0c-1.588501 -0.19869995 -2.3828125 -0.99298096 -2.3828125 -2.5815125c0.19848633 -2.382843 0.19848633 -4.9641724 0.19848633 -7.7441406zm0 14.892639c0 -1.588562 1.1914062 -2.5812988 2.7799072 -2.5812988c5.9571533 0 11.914307 0 17.871338 0c5.9571533 0 15.290039 0 21.24707 0c2.184204 0 2.9785156 0.9927368 2.9785156 2.9784546c0 2.382843 0 4.765686 0 7.1484985c0 1.787262 -0.99279785 2.7799988 -2.7800293 2.7799988c-0.39709473 0 -0.59558105 0 -0.9926758 0c-11.3186035 0 -26.211548 0 -37.728394 0c-0.39733887 0 -0.79418945 0 -1.1914062 0c-1.588501 -0.19848633 -2.3828125 -0.9927368 -2.3828125 -2.5812988c0.19848633 -2.382843 0.19848633 -5.162842 0.19848633 -7.7443542zm45.273926 15.289978c0 2.3828735 0 4.765686 0 7.1485596c0 1.7869873 -0.9926758 2.7799683 -2.7800293 2.7799683c-0.39709473 0 -0.59558105 0 -0.9926758 0c-11.3186035 0 -26.211304 0 -37.72827 0c-0.3972168 0 -0.79455566 0 -1.1914062 0c-1.5888672 -0.19866943 -2.3829346 -0.99298096 -2.3829346 -2.581543c0 -2.5812988 0 -5.361267 0 -7.942749c0 -1.5885925 1.1914062 -2.5813293 2.7797852 -2.5813293c5.9571533 0 11.914185 0 17.871338 0c5.9570312 0 15.290039 0 21.24707 0c2.1844482 0.19845581 3.177124 0.9927368 3.177124 3.1770935zm7.347046 15.488464c-0.39697266 0.9927368 -0.99279785 1.9857178 -1.7871094 2.5812988c-2.9783936 2.581543 -6.1557617 5.162842 -9.332642 7.5457153c-2.9786377 2.3828125 -6.751587 3.5742188 -10.325684 4.765625c-2.581421 0.99298096 -5.162842 1.9857178 -7.942749 2.581543c-2.3830566 0.59558105 -4.765747 0.7942505 -7.347168 0.9927368c-3.5743408 0.19866943 -7.1485596 0 -10.722778 0c-1.7871094 0 -3.3756104 0.5958252 -4.9642334 1.588562c-3.177246 2.1843872 -6.354248 4.765686 -9.332886 7.5456543c-0.19848633 0.19866943 -0.19848633 0.19866943 -0.59558105 0.39715576c-3.9714355 -4.765686 -8.1414795 -9.531372 -12.112915 -14.495483c0.19873047 -0.19873047 0.5958252 -0.39715576 0.7943115 -0.5958252c3.177124 -2.184204 6.354248 -4.3685303 9.332886 -6.5527344c1.1914062 -0.7942505 2.184204 -1.9857178 2.9785156 -3.177124c3.3757324 -3.9713745 7.7441406 -5.5599365 12.9071045 -4.9643555c4.169922 0.39715576 8.141235 1.7872314 11.914185 3.5742798c1.3898926 0.5958252 2.7797852 0.7942505 4.169922 0.7942505c3.5742188 0.19873047 6.9500732 0.39715576 10.524048 0.7943115c0.19873047 0 0.19873047 0 0.39733887 0c1.1914062 0.39715576 2.3828125 0.5958252 2.5812988 1.9857178c0.19873047 1.588562 -0.39709473 2.7799683 -1.588501 3.5742188c-1.588623 0.99298096 -3.5742188 1.3901367 -5.5599365 1.7872314c-2.9785156 0.5956421 -5.9571533 0.19848633 -9.134277 0c-2.7799072 -0.19866943 -5.5599365 -0.19866943 -8.339966 -0.39709473c-0.39709473 0 -0.79418945 0 -0.9926758 0.1984253c0 0 0 0.19866943 0 0.19866943c0.7940674 0 1.588501 0.19848633 2.3828125 0.19848633c2.9783936 0.39715576 5.758423 0.7942505 8.737061 0.99298096c4.169922 0.39709473 8.141235 0.1984253 12.112671 -1.1914673c2.581543 -0.9929199 4.170044 -2.7799683 4.170044 -5.758606c0 -0.19848633 0.19848633 -0.5956421 0.3972168 -0.7943115c0.39709473 -0.39709473 0.7940674 -0.59558105 1.1914062 -0.7942505c3.772705 -1.7870483 7.346924 -3.772705 11.119873 -5.5599365c0.7943115 -0.39715576 1.588623 -0.5956421 2.3826904 -0.7943115c1.3900146 0.19866943 2.581421 1.3900757 1.9857178 2.9786377z" fill-rule="evenodd"/><path fill="#ffffff" d="m1377.8854 514.9686c-0.7943115 0 -1.3898926 0.59558105 -1.3898926 1.3898926c0 0.7942505 0.59558105 1.3900757 1.3898926 1.3900757c0.7943115 0 1.3901367 -0.5958252 1.3901367 -1.3900757c0 -0.7943115 -0.5958252 -1.3898926 -1.3901367 -1.3898926z" fill-rule="evenodd"/><path fill="#000000" fill-opacity="0.0" d="m1510.0477 590.8095l231.84253 0l0 69.25989l-231.84253 0z" fill-rule="evenodd"/><path fill="#ffffff" d="m1543.4553 633.20953l0 -28.4375l8.03125 0q3.71875 0 6.5625 1.640625q2.859375 1.640625 4.40625 4.671875q1.546875 3.015625 1.578125 6.953125l0 1.8125q0 4.015625 -1.5625 7.046875q-1.546875 3.03125 -4.4375 4.65625q-2.875 1.609375 -6.703125 1.65625l-7.875 0zm3.75 -25.359375l0 22.296875l3.953125 0q4.328125 0 6.734375 -2.6875q2.421875 -2.703125 2.421875 -7.6875l0 -1.65625q0 -4.84375 -2.28125 -7.53125q-2.265625 -2.6875 -6.453125 -2.734375l-4.375 0zm25.839844 25.359375l-3.609375 0l0 -21.140625l3.609375 0l0 21.140625zm-3.90625 -26.734375q0 -0.890625 0.53125 -1.484375q0.546875 -0.609375 1.59375 -0.609375q1.0625 0 1.609375 0.609375q0.546875 0.59375 0.546875 1.484375q0 0.875 -0.546875 1.46875q-0.546875 0.578125 -1.609375 0.578125q-1.046875 0 -1.59375 -0.578125q-0.53125 -0.59375 -0.53125 -1.46875zm22.003906 21.125q0 -1.46875 -1.109375 -2.265625q-1.109375 -0.8125 -3.859375 -1.390625q-2.734375 -0.59375 -4.34375 -1.40625q-1.609375 -0.828125 -2.390625 -1.953125q-0.765625 -1.140625 -0.765625 -2.703125q0 -2.609375 2.1875 -4.40625q2.203125 -1.796875 5.625 -1.796875q3.59375 0 5.828125 1.859375q2.234375 1.859375 2.234375 4.75l-3.625 0q0 -1.484375 -1.265625 -2.5625q-1.25 -1.078125 -3.171875 -1.078125q-1.96875 0 -3.09375 0.859375q-1.109375 0.859375 -1.109375 2.25q0 1.3125 1.03125 1.984375q1.046875 0.65625 3.75 1.265625q2.703125 0.59375 4.375 1.4375q1.6875 0.84375 2.5 2.03125q0.8125 1.171875 0.8125 2.875q0 2.828125 -2.265625 4.546875q-2.265625 1.703125 -5.875 1.703125q-2.546875 0 -4.5 -0.890625q-1.953125 -0.90625 -3.0625 -2.515625q-1.09375 -1.609375 -1.09375 -3.484375l3.609375 0q0.09375 1.8125 1.453125 2.875q1.359375 1.0625 3.59375 1.0625q2.046875 0 3.28125 -0.828125q1.25 -0.828125 1.25 -2.21875zm13.21875 -20.640625l0 5.109375l3.9375 0l0 2.796875l-3.9375 0l0 13.109375q0 1.265625 0.515625 1.90625q0.53125 0.625 1.8125 0.625q0.625 0 1.71875 -0.234375l0 2.9375q-1.4375 0.390625 -2.78125 0.390625q-2.421875 0 -3.65625 -1.46875q-1.21875 -1.46875 -1.21875 -4.15625l0 -13.109375l-3.859375 0l0 -2.796875l3.859375 0l0 -5.109375l3.609375 0zm18.378906 8.359375q-0.828125 -0.140625 -1.78125 -0.140625q-3.546875 0 -4.828125 3.03125l0 15.0l-3.609375 0l0 -21.140625l3.515625 0l0.0625 2.453125q1.78125 -2.84375 5.03125 -2.84375q1.0625 0 1.609375 0.28125l0 3.359375zm7.2382812 17.890625l-3.609375 0l0 -21.140625l3.609375 0l0 21.140625zm-3.90625 -26.734375q0 -0.890625 0.53125 -1.484375q0.546875 -0.609375 1.59375 -0.609375q1.0625 0 1.609375 0.609375q0.546875 0.59375 0.546875 1.484375q0 0.875 -0.546875 1.46875q-0.546875 0.578125 -1.609375 0.578125q-1.046875 0 -1.59375 -0.578125q-0.53125 -0.59375 -0.53125 -1.46875zm27.582031 16.40625q0 4.84375 -2.234375 7.78125q-2.21875 2.9375 -5.96875 2.9375q-4.0 0 -6.1875 -2.828125l-0.171875 2.4375l-3.328125 0l0 -30.0l3.609375 0l0 11.1875q2.1875 -2.71875 6.03125 -2.71875q3.859375 0 6.046875 2.921875q2.203125 2.90625 2.203125 7.96875l0 0.3125zm-3.609375 -0.421875q0 -3.6875 -1.4375 -5.6875q-1.421875 -2.015625 -4.09375 -2.015625q-3.578125 0 -5.140625 3.3125l0 9.140625q1.671875 3.328125 5.1875 3.328125q2.59375 0 4.03125 -2.015625q1.453125 -2.015625 1.453125 -6.0625zm21.207031 8.65625q-2.109375 2.484375 -6.1875 2.484375q-3.375 0 -5.15625 -1.953125q-1.765625 -1.96875 -1.78125 -5.828125l0 -13.75l3.609375 0l0 13.65625q0 4.8125 3.90625 4.8125q4.140625 0 5.515625 -3.09375l0 -15.375l3.609375 0l0 21.140625l-3.4375 0l-0.078125 -2.09375zm13.910156 -24.15625l0 5.109375l3.9375 0l0 2.796875l-3.9375 0l0 13.109375q0 1.265625 0.515625 1.90625q0.53125 0.625 1.8125 0.625q0.625 0 1.71875 -0.234375l0 2.9375q-1.4375 0.390625 -2.78125 0.390625q-2.421875 0 -3.65625 -1.46875q-1.21875 -1.46875 -1.21875 -4.15625l0 -13.109375l-3.859375 0l0 -2.796875l3.859375 0l0 -5.109375l3.609375 0zm16.925781 26.640625q-4.296875 0 -7.0 -2.8125q-2.6875 -2.828125 -2.6875 -7.5625l0 -0.65625q0 -3.15625 1.203125 -5.625q1.203125 -2.46875 3.359375 -3.859375q2.15625 -1.40625 4.6875 -1.40625q4.109375 0 6.390625 2.71875q2.296875 2.71875 2.296875 7.78125l0 1.5l-14.3125 0q0.078125 3.125 1.8125 5.046875q1.75 1.921875 4.453125 1.921875q1.90625 0 3.234375 -0.78125q1.328125 -0.78125 2.328125 -2.0625l2.203125 1.71875q-2.65625 4.078125 -7.96875 4.078125zm-0.4375 -18.953125q-2.1875 0 -3.671875 1.59375q-1.484375 1.59375 -1.84375 4.46875l10.59375 0l0 -0.28125q-0.15625 -2.75 -1.484375 -4.265625q-1.328125 -1.515625 -3.59375 -1.515625z" fill-rule="nonzero"/><path fill="#ffffff" d="m1645.9504 502.0177c1.9921875 0 3.5859375 -1.59375 3.5859375 -3.5859375c0 -1.992218 -1.59375 -3.585968 -3.5859375 -3.585968c-1.9921875 0 -3.5859375 1.59375 -3.5859375 3.585968c0 1.9921875 1.59375 3.5859375 3.5859375 3.5859375z" fill-rule="evenodd"/><path fill="#ffffff" d="m1601.1261 511.58026c0 1.760437 -1.4272461 3.1875 -3.1875 3.1875c-1.760498 0 -3.187622 -1.427063 -3.187622 -3.1875c0 -1.7604675 1.4273682 -3.1875305 3.187622 -3.1875305c1.760376 0 3.1875 1.427063 3.1875 3.1875305z" fill-rule="evenodd"/><path fill="#ffffff" d="m1600.3292 525.52563c-3.984375 0 -7.371216 3.187561 -7.371216 7.371277c0 3.984375 3.1875 7.3710327 7.371216 7.3710327c3.984375 0 7.3710938 -3.1875 7.3710938 -7.3710327c0 -4.183716 -3.3867188 -7.371277 -7.3710938 -7.371277z" fill-rule="evenodd"/><path fill="#ffffff" d="m1661.888 523.33417c0 4.070984 -3.300293 7.371216 -7.371338 7.371216c-4.070923 0 -7.3709717 -3.300232 -7.3709717 -7.371216c0 -4.070984 3.3000488 -7.3710327 7.3709717 -7.3710327c4.071045 0 7.371338 3.3000488 7.371338 7.3710327z" fill-rule="evenodd"/><path fill="#ffffff" d="m1623.6378 454.60333c-33.66809 0 -60.961304 27.293243 -60.961304 60.961304c0 33.668274 27.293213 60.961365 60.961304 60.961365c33.668213 0 60.961304 -27.29309 60.961304 -60.961365c0 -33.66806 -27.29309 -60.961304 -60.961304 -60.961304zm30.87915 80.48486c-6.375 0 -11.554932 -5.1796875 -11.554932 -11.554749l-9.761719 -2.390625c-0.796875 1.7930908 -1.9921875 3.1875 -3.5859375 4.183716l3.5859375 12.351624c0 0 0 0 0 0c4.183716 0 7.5704346 3.3866577 7.5704346 7.5703735c0 4.1835327 -3.3867188 7.5703735 -7.5704346 7.5703735c-4.183716 0 -7.5703125 -3.3868408 -7.5703125 -7.5703735c0 -2.5899658 1.1953125 -4.78125 3.3865967 -6.1759033l-3.5856934 -12.351685c-0.19934082 0 -0.39868164 0 -0.5977783 0c-1.9921875 0 -3.984375 -0.5975342 -5.3789062 -1.7928467l-7.7696533 4.58197c0.3984375 1.1953125 0.5977783 2.1915283 0.5977783 3.3868408c0 6.375 -5.1799316 11.554749 -11.55481 11.554749c-6.375 0 -11.554932 -5.1797485 -11.554932 -11.554749c0 -6.375061 5.1799316 -11.554749 11.554932 -11.554749c3.5860596 0 6.7735596 1.59375 8.964844 4.3828125l6.9727783 -4.183716c-0.3984375 -0.9959717 -0.796875 -2.1913452 -0.796875 -3.3866577l-11.15625 -2.7890625c-1.3946533 2.390625 -3.7852783 3.7850952 -6.574341 3.7850952c-4.1835938 0 -7.5704346 -3.3866577 -7.5704346 -7.5703735c0 -4.1835327 3.3868408 -7.5703735 7.5704346 -7.5703735c3.984375 0 7.171875 3.1875305 7.5703125 6.972809l10.957153 2.789093c0.5975342 -1.1953125 1.3945312 -2.3906555 2.390503 -3.1875305l-3.3867188 -5.976593c-0.9959717 0.3984375 -2.1912842 0.5975342 -3.3865967 0.5975342c-6.375 0 -11.55481 -5.179718 -11.55481 -11.554749c0 -6.3750305 5.1798096 -11.554749 11.55481 -11.554749c6.375 0 11.55481 5.179718 11.55481 11.554749c0 3.585968 -1.59375 6.972809 -4.3829346 9.164124l3.3867188 5.976593c0.796875 -0.19909668 1.59375 -0.3984375 2.390625 -0.3984375c2.1915283 0 4.3828125 0.796875 5.9765625 2.1915283l8.36731 -8.566559c-0.5977783 -1.1953125 -0.99609375 -2.3906555 -0.99609375 -3.7850952c0 -4.3828125 3.5860596 -7.9687805 7.968872 -7.9687805c4.3825684 0 7.96875 3.585968 7.96875 7.9687805c0 4.382843 -3.5861816 7.968811 -7.96875 7.968811c-1.3946533 0 -2.7890625 -0.3984375 -3.984375 -1.1953125l-8.765747 8.964783c0.3984375 0.796875 0.5975342 1.7930908 0.5975342 2.7890625l9.761963 2.390686c1.7928467 -4.58197 5.9765625 -7.5703735 10.956909 -7.5703735c6.375122 0 11.55481 5.1796875 11.55481 11.554749c-0.5975342 6.574341 -5.777466 11.953186 -12.152344 11.953186z" fill-rule="evenodd"/><path fill="#ffffff" d="m1611.6847 501.0217c3.984497 0 7.3710938 -3.3868408 7.3710938 -7.3712463c0 -3.984375 -3.3865967 -7.3710327 -7.3710938 -7.3710327c-3.984375 0 -7.371216 3.3866577 -7.371216 7.3710327c0 3.9844055 3.3868408 7.3712463 7.371216 7.3712463z" fill-rule="evenodd"/><path fill="#ffffff" d="m1633.0012 541.8617c-1.7928467 0 -3.1875 1.3944702 -3.1875 3.187561c0 1.7930908 1.3946533 3.1875 3.1875 3.1875c1.7930908 0 3.1875 -1.3944092 3.1875 -3.1875c0 -1.7930908 -1.3944092 -3.187561 -3.1875 -3.187561z" fill-rule="evenodd"/><path fill="#000000" fill-opacity="0.0" d="m817.7978 1047.7086l283.4859 0l0 70.60742l-283.4859 0z" fill-rule="evenodd"/><path fill="#444345" d="m848.7509 1080.338l-13.96875 0l0 11.421875l16.234375 0l0 3.46875l-20.484375 0l0 -32.21875l20.25 0l0 3.484375l-16.0 0l0 10.359375l13.96875 0l0 3.484375zm10.77832 -9.0625l0.140625 3.015625q2.734375 -3.453125 7.171875 -3.453125q7.59375 0 7.65625 8.5625l0 15.828125l-4.09375 0l0 -15.84375q-0.03125 -2.59375 -1.1875 -3.828125q-1.15625 -1.25 -3.625 -1.25q-1.984375 0 -3.5 1.0625q-1.5 1.0625 -2.34375 2.796875l0 17.0625l-4.09375 0l0 -23.953125l3.875 0zm29.041382 18.390625l5.9375 -18.390625l4.171875 0l-8.578125 23.953125l-3.125 0l-8.671875 -23.953125l4.171875 0l6.09375 18.390625zm18.502686 5.5625l-4.09375 0l0 -23.953125l4.09375 0l0 23.953125zm-4.421875 -30.296875q0 -1.0 0.609375 -1.6875q0.609375 -0.6875 1.796875 -0.6875q1.203125 0 1.8125 0.6875q0.625 0.6875 0.625 1.6875q0 1.0 -0.625 1.671875q-0.609375 0.65625 -1.8125 0.65625q-1.1875 0 -1.796875 -0.65625q-0.609375 -0.671875 -0.609375 -1.671875zm22.546936 10.015625q-0.921875 -0.140625 -2.015625 -0.140625q-4.03125 0 -5.46875 3.421875l0 17.0l-4.09375 0l0 -23.953125l3.984375 0l0.078125 2.765625q2.0 -3.203125 5.703125 -3.203125q1.1875 0 1.8125 0.3125l0 3.796875zm2.2391357 8.09375q0 -3.53125 1.375 -6.34375q1.390625 -2.8125 3.859375 -4.328125q2.46875 -1.53125 5.625 -1.53125q4.890625 0 7.90625 3.390625q3.03125 3.375 3.03125 9.0l0 0.296875q0 3.484375 -1.34375 6.265625q-1.328125 2.78125 -3.828125 4.328125q-2.484375 1.546875 -5.71875 1.546875q-4.859375 0 -7.890625 -3.375q-3.015625 -3.390625 -3.015625 -8.96875l0 -0.28125zm4.109375 0.484375q0 3.984375 1.84375 6.390625q1.859375 2.40625 4.953125 2.40625q3.125 0 4.953125 -2.4375q1.84375 -2.453125 1.84375 -6.84375q0 -3.953125 -1.875 -6.390625q-1.859375 -2.453125 -4.96875 -2.453125q-3.03125 0 -4.890625 2.421875q-1.859375 2.40625 -1.859375 6.90625zm26.694946 -12.25l0.140625 3.015625q2.734375 -3.453125 7.171875 -3.453125q7.59375 0 7.65625 8.5625l0 15.828125l-4.09375 0l0 -15.84375q-0.03125 -2.59375 -1.1875 -3.828125q-1.15625 -1.25 -3.625 -1.25q-1.984375 0 -3.5 1.0625q-1.5 1.0625 -2.34375 2.796875l0 17.0625l-4.09375 0l0 -23.953125l3.875 0zm24.994507 0l0.109375 2.65625q2.625 -3.09375 7.109375 -3.09375q5.015625 0 6.828125 3.84375q1.203125 -1.71875 3.109375 -2.78125q1.921875 -1.0625 4.53125 -1.0625q7.875 0 8.015625 8.34375l0 16.046875l-4.09375 0l0 -15.796875q0 -2.578125 -1.171875 -3.84375q-1.171875 -1.28125 -3.953125 -1.28125q-2.265625 0 -3.78125 1.375q-1.5 1.359375 -1.75 3.65625l0 15.890625l-4.109375 0l0 -15.6875q0 -5.234375 -5.109375 -5.234375q-4.03125 0 -5.515625 3.4375l0 17.484375l-4.09375 0l0 -23.953125l3.875 0zm45.80664 24.390625q-4.859375 0 -7.921875 -3.1875q-3.046875 -3.203125 -3.046875 -8.5625l0 -0.75q0 -3.5625 1.359375 -6.359375q1.359375 -2.796875 3.796875 -4.375q2.453125 -1.59375 5.3125 -1.59375q4.671875 0 7.25 3.078125q2.59375 3.078125 2.59375 8.8125l0 1.703125l-16.21875 0q0.078125 3.53125 2.0625 5.71875q1.984375 2.171875 5.03125 2.171875q2.171875 0 3.671875 -0.875q1.515625 -0.890625 2.640625 -2.34375l2.5 1.9375q-3.0 4.625 -9.03125 4.625zm-0.5 -21.46875q-2.484375 0 -4.171875 1.8125q-1.671875 1.796875 -2.078125 5.046875l12.0 0l0 -0.296875q-0.171875 -3.125 -1.6875 -4.84375q-1.5 -1.71875 -4.0625 -1.71875zm18.45166 -2.921875l0.140625 3.015625q2.734375 -3.453125 7.171875 -3.453125q7.59375 0 7.65625 8.5625l0 15.828125l-4.09375 0l0 -15.84375q-0.03125 -2.59375 -1.1875 -3.828125q-1.15625 -1.25 -3.625 -1.25q-1.984375 0 -3.5 1.0625q-1.5 1.0625 -2.34375 2.796875l0 17.0625l-4.09375 0l0 -23.953125l3.875 0zm26.697632 -5.796875l0 5.796875l4.46875 0l0 3.171875l-4.46875 0l0 14.84375q0 1.4375 0.59375 2.171875q0.59375 0.71875 2.03125 0.71875q0.71875 0 1.953125 -0.265625l0 3.3125q-1.609375 0.4375 -3.140625 0.4375q-2.75 0 -4.140625 -1.65625q-1.390625 -1.65625 -1.390625 -4.71875l0 -14.84375l-4.359375 0l0 -3.171875l4.359375 0l0 -5.796875l4.09375 0z" fill-rule="nonzero"/><path fill="#6d6d6d" d="m786.0886 1045.8226c-1.6807251 -10.924927 -11.261108 -19.496582 -22.690002 -19.496582c-4.370056 0 -8.403687 1.1763916 -12.101501 3.3614502c-5.5463867 -9.244202 -15.294678 -14.95874 -26.219604 -14.95874c-16.807495 0 -30.589417 13.7821045 -30.589417 30.5896c0 0.16809082 0 0.16809082 0 0.33605957c-10.924927 1.848999 -19.328613 11.261108 -19.328613 22.690186c0 12.605469 10.588562 23.026123 23.194275 23.026123l1.3446045 0l0 -38.152832c0 -4.369873 3.6976318 -8.067505 8.067566 -8.067505l64.37244 0c4.369934 0 8.067749 3.6976318 8.067749 8.067505l0 38.321045l2.520996 0c12.605713 0 23.194275 -10.252686 23.194275 -23.026367c-0.16815186 -11.429077 -8.907837 -20.841187 -19.832764 -22.689941z" fill-rule="evenodd"/><path fill="#f15a27" d="m708.3697 1073.2186c0.67230225 0 1.3445435 0 2.0168457 0c18.99237 0 37.984863 0 56.977173 0c0.5043335 0 1.0084839 0 1.5127563 0c3.0253296 -0.16809082 4.537964 -1.6806641 4.537964 -4.7060547c0 -4.0338135 0 -7.899414 0 -11.93335c0 -3.6976318 -1.5126343 -5.210205 -5.0422363 -5.210205c-9.748169 0 -19.664673 0 -29.412964 0c-9.916504 0 -20.000977 0 -29.917236 0c-2.8573608 0 -4.7061157 1.5125732 -4.7061157 4.2019043c0 4.369751 0 8.907837 0 13.277832c0 2.689209 1.5125732 4.201782 4.0338135 4.369873zm1.0084229 -18.65625c19.832764 0 39.66559 0 59.330383 0c1.3444214 0 2.0167236 0.6722412 2.0167236 2.0168457c0 4.0339355 0 7.899536 0 11.93335c0 1.6807861 -1.0083008 2.0169678 -2.5210571 2.0169678c-9.748291 0 -19.328613 0 -29.076965 0c-9.748291 0 -19.328491 0 -29.076782 0c-2.5211792 0 -2.689209 -0.16821289 -2.689209 -2.689209c0 -3.6976318 0 -7.3952637 0 -11.0928955c0 -1.6807861 0.5041504 -2.1850586 2.0169067 -2.1850586z" fill-rule="evenodd"/><path fill="#f15a27" d="m713.916 1085.4883c-1.1765747 0 -2.3530273 1.1765137 -2.3530273 2.3530273c0 1.3446045 1.1764526 2.3530273 2.5212402 2.3530273c1.3444214 0 2.3528442 -1.0084229 2.3528442 -2.3530273c0 -1.3446045 -1.1764526 -2.3530273 -2.5210571 -2.3530273z" fill-rule="evenodd"/><path fill="#f15a27" d="m722.6559 1085.4883c-1.3446045 0 -2.3530273 0.8404541 -2.3530273 2.1848145c-0.16815186 1.3446045 1.0084229 2.5212402 2.3530273 2.5212402c1.1764526 0 2.3530273 -1.0084229 2.5210571 -2.1849365c-0.16802979 -1.3446045 -1.3446045 -2.5211182 -2.5210571 -2.5211182z" fill-rule="evenodd"/><path fill="#f15a27" d="m731.05963 1085.4883c-1.3446045 0 -2.3530273 1.0084229 -2.3530273 2.3530273c0 1.3446045 1.0084229 2.3530273 2.1849976 2.3530273c1.3444214 0 2.3529053 -1.0084229 2.3529053 -2.3530273c0.16815186 -1.3446045 -0.840271 -2.3530273 -2.1848755 -2.3530273z" fill-rule="evenodd"/><path fill="#f15a27" d="m722.48773 1109.8589c-1.3446045 0 -2.3530273 1.1766357 -2.3530273 2.3530273c0 1.3446045 0.8404541 2.1850586 2.1850586 2.3530273c1.3446045 0.16809082 2.520996 -1.0084229 2.520996 -2.3530273c0.16821289 -1.1763916 -1.0084229 -2.3530273 -2.3530273 -2.3530273z" fill-rule="evenodd"/><path fill="#f15a27" d="m714.0842 1109.8589c-1.1766357 0 -2.5212402 1.0084229 -2.5212402 2.3530273c0 1.1765137 1.1764526 2.3530273 2.3530273 2.3530273c1.3446045 0 2.3530884 -1.0084229 2.3530884 -2.3530273c0 -1.3446045 -1.0084839 -2.3530273 -2.1848755 -2.3530273z" fill-rule="evenodd"/><path fill="#f15a27" d="m730.8915 1109.8589c-1.3446045 0 -2.3530273 1.1766357 -2.1848755 2.5212402c0 1.3446045 1.1763916 2.1848145 2.3530273 2.1848145c1.3446045 0 2.3530273 -1.1763916 2.1848755 -2.520996c0 -1.1766357 -1.0084229 -2.3532715 -2.3530273 -2.1850586z" fill-rule="evenodd"/><path fill="#f15a27" d="m722.48773 1064.815c1.3446045 0 2.3530273 -1.1763916 2.3530273 -2.520996c0 -1.1766357 -1.1763916 -2.1850586 -2.3530273 -2.1850586c-1.3446045 0 -2.3530273 1.1766357 -2.3530273 2.5212402c0.16815186 1.1763916 1.1764526 2.1848145 2.3530273 2.1848145z" fill-rule="evenodd"/><path fill="#f15a27" d="m713.916 1064.815c1.3446045 0 2.3530884 -1.0084229 2.3530884 -2.3530273c0 -1.3446045 -1.0084839 -2.3530273 -2.1848755 -2.3530273c-1.3447876 0 -2.5212402 1.0084229 -2.5212402 2.3530273c0 1.1766357 1.1764526 2.1850586 2.3530273 2.3530273z" fill-rule="evenodd"/><path fill="#f15a27" d="m731.05963 1064.815c1.3446045 0 2.1848755 -1.0084229 2.1848755 -2.3530273c0 -1.3446045 -1.0084839 -2.3530273 -2.3529053 -2.3530273c-1.3445435 0 -2.1849976 1.0084229 -2.1849976 2.3530273c0 1.1766357 1.0084229 2.3530273 2.3530273 2.3530273z" fill-rule="evenodd"/><path fill="#f15a27" d="m768.87646 1076.9164c-9.916443 0 -19.832764 0 -29.917236 0c-9.916504 0 -19.832825 0 -29.917236 0c-3.1935425 0 -4.7061157 1.6806641 -4.7061157 4.7060547c0 3.8657227 0 7.7314453 0 11.597168c0 4.0338135 1.3446045 5.378418 5.54657 5.378418c7.227112 0 14.6223755 0 21.84967 0l0 0c2.520996 0 4.8740845 0 7.3950806 0c2.5212402 0 4.8742676 0 7.3952637 0l0 0c7.227295 0 14.62262 0 21.849731 0c4.0337524 0 5.546509 -1.3446045 5.546509 -5.378418c0 -3.8657227 0 -7.7314453 0 -11.597168c-0.3361206 -3.0253906 -2.0169067 -4.7060547 -5.0422363 -4.7060547zm1.6807861 16.135132c0 2.689209 0 2.689209 -2.689209 2.689209c-9.580322 0 -19.328491 0 -28.908813 0c-9.580322 0 -19.328674 0 -28.908813 0c-2.689209 0 -2.689209 0 -2.689209 -2.689209c0 -3.6976318 0 -7.227173 0 -10.924805c0 -1.5126953 0.33618164 -2.1850586 2.0169067 -2.1850586c7.3952637 0 14.790527 0 22.185852 0l0 0c2.520996 0 4.8740234 0 7.3952637 0c2.520996 0 4.8740845 0 7.3952637 0l0 0c7.3952637 0 14.790588 0 22.185852 0c1.6807251 0 2.0169067 0.6723633 2.0169067 2.1850586c0 3.6976318 0 7.227173 0 10.924805z" fill-rule="evenodd"/><path fill="#f15a27" d="m740.63995 1134.3977c0 -0.16796875 -0.16815186 -0.16796875 -0.16815186 -0.33605957c0 -4.0338135 0 -6.7230225 0 -10.924927c0.67230225 0 1.1765747 0 1.848877 0c0 0 0 0 0.16802979 0c8.571838 0 17.311584 0 25.883423 0c3.8658447 0 5.378418 -1.5125732 5.378418 -5.378296c0 -3.8657227 0 -7.5633545 0 -11.429199c0 -3.529419 -1.6807251 -5.210205 -5.210205 -5.210205c-6.5549927 0 -12.9418335 0 -19.496643 0c-0.8404541 0 -1.6807861 0 -2.5212402 0l0 0c-2.520996 0 -4.8740845 0 -7.3952637 0c-2.520996 0 -4.8740845 0 -7.3952637 0l0 0c-0.840271 0 -1.6807251 0 -2.5210571 0c-6.5549927 0 -12.9418335 0 -19.496643 0c-3.6976318 0 -5.210388 1.6807861 -5.210388 5.210205c0 3.8658447 0 7.5634766 0 11.429199c0 3.6975098 1.5127563 5.210327 5.378418 5.378296c8.571838 0 17.311768 0 25.883423 0c0 0 0 0 0.16821289 0c0.67230225 0 1.1763916 0 1.8486938 0c0 4.2019043 0 6.8911133 0 10.924927c0 0.16809082 0 0.16809082 -0.16796875 0.33605957m32.942566 -16.807373c0 2.3530273 -0.16815186 2.520996 -2.5211792 2.520996c-9.748291 0 -19.328491 0 -29.076782 0c-9.748352 0 -19.328674 0 -29.076965 0c-2.3530884 0 -2.5210571 -0.16796875 -2.5210571 -2.520996c0 -3.8656006 0 -7.5634766 0 -11.429077c0 -1.3446045 0.5041504 -2.0168457 1.6807251 -2.0168457c9.916321 0 19.832825 0 29.917297 0c10.084473 0 20.000732 0 29.917236 0c1.3446045 0 1.8487549 0.6722412 1.6807251 2.0168457c0 3.8656006 0 7.5634766 0 11.429077z" fill-rule="evenodd"/><path fill="#f15a27" d="m738.9592 1133.0532c-3.1933594 0 -5.7145386 2.5211182 -5.7145386 5.7144775c0 3.1933594 2.5211792 5.7144775 5.7145386 5.7144775c3.1932983 0 5.7144775 -2.5211182 5.7144775 -5.7144775c0 -3.1933594 -2.5211792 -5.7144775 -5.7144775 -5.7144775zm0 9.075928c-1.8487549 0 -3.3615112 -1.5125732 -3.3615112 -3.3614502c0 -1.848877 1.5127563 -3.3614502 3.3615112 -3.3614502c1.848877 0 3.3614502 1.5125732 3.3614502 3.3614502c0 1.848877 -1.5125732 3.3614502 -3.3614502 3.3614502z" fill-rule="evenodd"/><path fill="#f15a27" d="m733.917 1138.5997c0 -0.5041504 0 -1.0084229 0.16796875 -1.3446045l-15.126709 0c-0.840271 0 -1.5125732 0.6723633 -1.5125732 1.5128174l0 0c0 0.84020996 0.67230225 1.5125732 1.5125732 1.5125732l15.126709 0c0 -0.5041504 -0.16796875 -1.1766357 -0.16796875 -1.6807861z" fill-rule="evenodd"/><path fill="#f15a27" d="m758.62384 1137.2551l-14.6223755 0c0.16796875 0.5041504 0.16796875 0.8404541 0.16796875 1.3446045c0 0.5041504 -0.16796875 1.1766357 -0.33618164 1.6807861l14.790588 0c0.8404541 0 1.5127563 -0.6723633 1.5127563 -1.5125732l0 0c0 -0.8404541 -0.67230225 -1.5128174 -1.5127563 -1.5128174z" fill-rule="evenodd"/><path fill="#f1c232" fill-opacity="0.2291" d="m502.0667 282.49356l767.22003 0l0 1005.83887l-767.22003 0z" fill-rule="evenodd"/><path stroke="#666666" stroke-width="3.0" stroke-linejoin="round" stroke-linecap="butt" stroke-dasharray="12.0,9.0" d="m502.0667 282.49356l767.22003 0l0 1005.83887l-767.22003 0z" fill-rule="evenodd"/><path fill="#000000" fill-opacity="0.0" d="m506.3071 1210.8289l767.08655 0l0 56.031494l-767.08655 0z" fill-rule="evenodd"/><path fill="#434343" d="m829.69806 1241.7289l-6.6875 0l0 11.5l-3.765625 0l0 -28.4375l9.421875 0q4.796875 0 7.375 2.1875q2.59375 2.1875 2.59375 6.359375q0 2.65625 -1.4375 4.640625q-1.421875 1.96875 -3.984375 2.9375l6.671875 12.078125l0 0.234375l-4.015625 0l-6.171875 -11.5zm-6.6875 -3.078125l5.765625 0q2.796875 0 4.4375 -1.4375q1.65625 -1.453125 1.65625 -3.875q0 -2.625 -1.578125 -4.03125q-1.5625 -1.40625 -4.53125 -1.4375l-5.75 0l0 10.78125zm33.36328 12.484375q-2.109375 2.484375 -6.1875 2.484375q-3.375 0 -5.15625 -1.953125q-1.765625 -1.96875 -1.78125 -5.828125l0 -13.75l3.609375 0l0 13.65625q0 4.8125 3.90625 4.8125q4.140625 0 5.515625 -3.09375l0 -15.375l3.609375 0l0 21.140625l-3.4375 0l-0.078125 -2.09375zm12.425781 -19.046875l0.109375 2.65625q2.421875 -3.046875 6.328125 -3.046875q6.703125 0 6.765625 7.5625l0 13.96875l-3.609375 0l0 -13.984375q-0.03125 -2.28125 -1.0625 -3.375q-1.015625 -1.09375 -3.1875 -1.09375q-1.75 0 -3.078125 0.9375q-1.328125 0.9375 -2.078125 2.453125l0 15.0625l-3.609375 0l0 -21.140625l3.421875 0zm23.554688 -5.109375l0 5.109375l3.9375 0l0 2.796875l-3.9375 0l0 13.109375q0 1.265625 0.515625 1.90625q0.53125 0.625 1.8125 0.625q0.625 0 1.71875 -0.234375l0 2.9375q-1.4375 0.390625 -2.78125 0.390625q-2.421875 0 -3.65625 -1.46875q-1.21875 -1.46875 -1.21875 -4.15625l0 -13.109375l-3.859375 0l0 -2.796875l3.859375 0l0 -5.109375l3.609375 0zm12.082031 26.25l-3.609375 0l0 -21.140625l3.609375 0l0 21.140625zm-3.90625 -26.734375q0 -0.890625 0.53125 -1.484375q0.546875 -0.609375 1.59375 -0.609375q1.0625 0 1.609375 0.609375q0.546875 0.59375 0.546875 1.484375q0 0.875 -0.546875 1.46875q-0.546875 0.578125 -1.609375 0.578125q-1.046875 0 -1.59375 -0.578125q-0.53125 -0.59375 -0.53125 -1.46875zm13.097656 5.59375l0.09375 2.34375q2.328125 -2.734375 6.265625 -2.734375q4.4375 0 6.03125 3.40625q1.0625 -1.53125 2.75 -2.46875q1.6875 -0.9375 4.0 -0.9375q6.953125 0 7.0625 7.375l0 14.15625l-3.609375 0l0 -13.953125q0 -2.265625 -1.046875 -3.375q-1.03125 -1.125 -3.46875 -1.125q-2.015625 0 -3.34375 1.203125q-1.328125 1.1875 -1.53125 3.21875l0 14.03125l-3.640625 0l0 -13.84375q0 -4.609375 -4.515625 -4.609375q-3.546875 0 -4.859375 3.015625l0 15.4375l-3.609375 0l0 -21.140625l3.421875 0zm40.41797 21.53125q-4.296875 0 -7.0 -2.8125q-2.6875 -2.828125 -2.6875 -7.5625l0 -0.65625q0 -3.15625 1.203125 -5.625q1.203125 -2.46875 3.359375 -3.859375q2.15625 -1.40625 4.6875 -1.40625q4.109375 0 6.390625 2.71875q2.296875 2.71875 2.296875 7.78125l0 1.5l-14.3125 0q0.078125 3.125 1.8125 5.046875q1.75 1.921875 4.453125 1.921875q1.90625 0 3.234375 -0.78125q1.328125 -0.78125 2.328125 -2.0625l2.203125 1.71875q-2.65625 4.078125 -7.96875 4.078125zm-0.4375 -18.953125q-2.1875 0 -3.671875 1.59375q-1.484375 1.59375 -1.84375 4.46875l10.59375 0l0 -0.28125q-0.15625 -2.75 -1.484375 -4.265625q-1.328125 -1.515625 -3.59375 -1.515625z" fill-rule="nonzero"/><path fill="#444345" d="m451.36877 870.121l1656.2699 0l0 93.702576l-1656.2699 0z" fill-rule="evenodd"/><path fill="#000000" fill-opacity="0.0" d="m451.74164 890.23987l1656.7244 0l0 70.6142l-1656.7244 0z" fill-rule="evenodd"/><path fill="#ffffff" d="m1183.0531 920.0774l-11.9375 0l0 12.5625l-3.75 0l0 -28.4375l17.625 0l0 3.078125l-13.875 0l0 9.734375l11.9375 0l0 3.0625zm4.4960938 1.796875q0 -3.109375 1.21875 -5.578125q1.21875 -2.484375 3.390625 -3.828125q2.1875 -1.359375 4.984375 -1.359375q4.3125 0 6.96875 3.0q2.671875 2.984375 2.671875 7.9375l0 0.265625q0 3.078125 -1.1875 5.53125q-1.171875 2.453125 -3.375 3.828125q-2.1875 1.359375 -5.046875 1.359375q-4.296875 0 -6.96875 -2.984375q-2.65625 -3.0 -2.65625 -7.921875l0 -0.25zm3.625 0.4375q0 3.515625 1.625 5.640625q1.640625 2.125 4.375 2.125q2.75 0 4.375 -2.15625q1.625 -2.15625 1.625 -6.046875q0 -3.46875 -1.65625 -5.625q-1.640625 -2.171875 -4.375 -2.171875q-2.6875 0 -4.328125 2.140625q-1.640625 2.125 -1.640625 6.09375zm33.1875 8.234375q-2.109375 2.484375 -6.1875 2.484375q-3.375 0 -5.15625 -1.953125q-1.765625 -1.96875 -1.78125 -5.828125l0 -13.75l3.609375 0l0 13.65625q0 4.8125 3.90625 4.8125q4.140625 0 5.515625 -3.09375l0 -15.375l3.609375 0l0 21.140625l-3.4375 0l-0.078125 -2.09375zm12.425781 -19.046875l0.109375 2.65625q2.421875 -3.046875 6.328125 -3.046875q6.703125 0 6.765625 7.5625l0 13.96875l-3.609375 0l0 -13.984375q-0.03125 -2.28125 -1.0625 -3.375q-1.015625 -1.09375 -3.1875 -1.09375q-1.75 0 -3.078125 0.9375q-1.328125 0.9375 -2.078125 2.453125l0 15.0625l-3.609375 0l0 -21.140625l3.421875 0zm17.773438 10.390625q0 -4.859375 2.296875 -7.8125q2.3125 -2.96875 6.046875 -2.96875q3.703125 0 5.875 2.546875l0 -11.015625l3.609375 0l0 30.0l-3.3125 0l-0.1875 -2.265625q-2.15625 2.65625 -6.03125 2.65625q-3.671875 0 -5.984375 -3.0q-2.3125 -3.015625 -2.3125 -7.859375l0 -0.28125zm3.609375 0.421875q0 3.59375 1.484375 5.625q1.484375 2.03125 4.109375 2.03125q3.4375 0 5.015625 -3.09375l0 -9.703125q-1.625 -2.984375 -4.984375 -2.984375q-2.65625 0 -4.140625 2.046875q-1.484375 2.046875 -1.484375 6.078125zm32.871094 10.328125q-0.3125 -0.625 -0.5 -2.234375q-2.53125 2.625 -6.015625 2.625q-3.125 0 -5.140625 -1.765625q-2.0 -1.765625 -2.0 -4.484375q0 -3.296875 2.515625 -5.125q2.515625 -1.828125 7.0625 -1.828125l3.515625 0l0 -1.65625q0 -1.90625 -1.140625 -3.015625q-1.125 -1.125 -3.328125 -1.125q-1.9375 0 -3.25 0.984375q-1.3125 0.96875 -1.3125 2.34375l-3.625 0q0 -1.578125 1.125 -3.046875q1.125 -1.484375 3.046875 -2.34375q1.921875 -0.859375 4.21875 -0.859375q3.65625 0 5.71875 1.828125q2.078125 1.828125 2.15625 5.03125l0 9.734375q0 2.90625 0.75 4.625l0 0.3125l-3.796875 0zm-6.0 -2.75q1.703125 0 3.21875 -0.875q1.53125 -0.890625 2.21875 -2.296875l0 -4.328125l-2.828125 0q-6.640625 0 -6.640625 3.875q0 1.703125 1.125 2.671875q1.140625 0.953125 2.90625 0.953125zm19.617188 -23.5l0 5.109375l3.9375 0l0 2.796875l-3.9375 0l0 13.109375q0 1.265625 0.515625 1.90625q0.53125 0.625 1.8125 0.625q0.625 0 1.71875 -0.234375l0 2.9375q-1.4375 0.390625 -2.78125 0.390625q-2.421875 0 -3.65625 -1.46875q-1.21875 -1.46875 -1.21875 -4.15625l0 -13.109375l-3.859375 0l0 -2.796875l3.859375 0l0 -5.109375l3.609375 0zm12.082031 26.25l-3.609375 0l0 -21.140625l3.609375 0l0 21.140625zm-3.90625 -26.734375q0 -0.890625 0.53125 -1.484375q0.546875 -0.609375 1.59375 -0.609375q1.0625 0 1.609375 0.609375q0.546875 0.59375 0.546875 1.484375q0 0.875 -0.546875 1.46875q-0.546875 0.578125 -1.609375 0.578125q-1.046875 0 -1.59375 -0.578125q-0.53125 -0.59375 -0.53125 -1.46875zm8.738281 15.96875q0 -3.109375 1.21875 -5.578125q1.21875 -2.484375 3.390625 -3.828125q2.1875 -1.359375 4.984375 -1.359375q4.3125 0 6.96875 3.0q2.671875 2.984375 2.671875 7.9375l0 0.265625q0 3.078125 -1.1875 5.53125q-1.171875 2.453125 -3.375 3.828125q-2.1875 1.359375 -5.046875 1.359375q-4.296875 0 -6.96875 -2.984375q-2.65625 -3.0 -2.65625 -7.921875l0 -0.25zm3.625 0.4375q0 3.515625 1.625 5.640625q1.640625 2.125 4.375 2.125q2.75 0 4.375 -2.15625q1.625 -2.15625 1.625 -6.046875q0 -3.46875 -1.65625 -5.625q-1.640625 -2.171875 -4.375 -2.171875q-2.6875 0 -4.328125 2.140625q-1.640625 2.125 -1.640625 6.09375zm23.5625 -10.8125l0.109375 2.65625q2.421875 -3.046875 6.328125 -3.046875q6.703125 0 6.765625 7.5625l0 13.96875l-3.609375 0l0 -13.984375q-0.03125 -2.28125 -1.0625 -3.375q-1.015625 -1.09375 -3.1875 -1.09375q-1.75 0 -3.078125 0.9375q-1.328125 0.9375 -2.078125 2.453125l0 15.0625l-3.609375 0l0 -21.140625l3.421875 0zm31.695312 21.140625q-0.3125 -0.625 -0.5 -2.234375q-2.53125 2.625 -6.015625 2.625q-3.125 0 -5.140625 -1.765625q-2.0 -1.765625 -2.0 -4.484375q0 -3.296875 2.515625 -5.125q2.515625 -1.828125 7.0625 -1.828125l3.515625 0l0 -1.65625q0 -1.90625 -1.140625 -3.015625q-1.125 -1.125 -3.328125 -1.125q-1.9375 0 -3.25 0.984375q-1.3125 0.96875 -1.3125 2.34375l-3.625 0q0 -1.578125 1.125 -3.046875q1.125 -1.484375 3.046875 -2.34375q1.921875 -0.859375 4.21875 -0.859375q3.65625 0 5.71875 1.828125q2.078125 1.828125 2.15625 5.03125l0 9.734375q0 2.90625 0.75 4.625l0 0.3125l-3.796875 0zm-6.0 -2.75q1.703125 0 3.21875 -0.875q1.53125 -0.890625 2.21875 -2.296875l0 -4.328125l-2.828125 0q-6.640625 0 -6.640625 3.875q0 1.703125 1.125 2.671875q1.140625 0.953125 2.90625 0.953125zm18.632812 2.75l-3.609375 0l0 -30.0l3.609375 0l0 30.0z" fill-rule="nonzero"/></g></svg>