<svg width="223.25536" height="134.51135" viewBox="0 0 518 74" version="1.1" xmlns="http://www.w3.org/2000/svg" xmlns:xlink="http://www.w3.org/1999/xlink">
 <title>
  Foundation/Logo/BlackRock white
 </title>
 <g id="Logo" stroke="none" stroke-width="1" fill="none" fill-rule="evenodd">
  <g transform="translate(-80.000000, -80.000000)" fill="#FFFFFF" id="Group">
   <g transform="translate(80.000000, 80.000000)" id="Fill-1">
    <path d="M511.2702,65.3898 L511.2702,67.2448 L512.3832,67.2448 C513.0962,67.2448 513.4952,67.0158 513.4952,66.3028 C513.4952,65.7328 513.1822,65.3898 512.5262,65.3898 L511.2702,65.3898 Z M510.3002,64.5628 L512.5262,64.5628 C513.8092,64.5628 514.4932,65.2188 514.4932,66.2458 C514.4932,67.1588 514.0952,67.6718 513.4382,67.9288 L514.4652,69.8118 L513.3822,69.8118 L512.4402,68.0718 L511.2702,68.0718 L511.2702,69.8118 L510.3002,69.8118 L510.3002,64.5628 Z M512.3542,71.9228 C515.0082,71.9228 516.8612,70.3248 516.8612,67.3018 C516.8612,64.3058 515.0082,62.7078 512.3542,62.7078 C509.6722,62.7078 507.8182,64.3058 507.8182,67.3018 C507.8182,70.3248 509.6722,71.9228 512.3542,71.9228 L512.3542,71.9228 Z M512.3542,61.9658 C515.7492,61.9658 517.7462,64.1068 517.7462,67.3018 C517.7462,70.4968 515.7492,72.6358 512.3542,72.6358 C508.9312,72.6358 506.9622,70.4968 506.9622,67.3018 C506.9622,64.1068 508.9312,61.9658 512.3542,61.9658 L512.3542,61.9658 Z M260.8372,72.0038 L241.5082,38.4948 L259.6442,18.7448 L241.2052,18.7448 L222.3472,39.9468 L222.3472,0.0018 L206.0892,0.0018 L206.0892,72.0018 L222.3472,72.0018 L222.3472,59.0488 L230.1362,50.7128 L242.3332,72.0038 L260.8372,72.0038 Z M502.3632,72.0038 L483.0342,38.4948 L501.1692,18.7448 L482.9422,18.7448 L463.8732,39.9468 L463.8732,0.0018 L447.6152,0.0018 L447.6152,72.0018 L463.8732,72.0018 L463.8732,59.0488 L471.6622,50.7128 L483.8582,72.0038 L502.3632,72.0038 Z M123.2342,54.1868 C123.2342,59.0708 118.5152,62.2928 113.1412,62.2928 C108.0592,62.2928 105.5782,59.6818 105.5782,56.0698 C105.5782,52.2538 108.3822,49.4758 114.0352,49.4758 C117.5322,49.4758 120.6782,50.0748 123.2342,50.6688 L123.2342,54.1868 Z M145.4182,71.0878 L145.4182,59.8018 C144.7232,59.9808 143.6722,60.1858 142.6532,60.1858 C140.5042,60.1858 139.4892,59.1248 139.4892,57.1378 L139.4892,38.4728 C139.4892,24.5108 130.1312,17.0478 114.6232,17.0478 C104.5622,17.0478 95.8882,20.7208 90.4752,25.5238 L99.5302,35.7248 C103.1512,32.5728 107.9712,30.5178 112.6012,30.5178 C119.7692,30.5178 123.2322,34.1048 123.2322,40.0568 L123.2322,41.8028 C119.7932,40.9718 115.5652,40.1958 110.3272,40.1958 C97.2262,40.1958 88.7502,46.4558 88.7502,56.9328 C88.7502,67.6248 95.8242,73.2508 106.8152,73.2508 C114.3552,73.2508 121.0072,70.1738 124.5622,66.1748 C126.6932,71.4278 131.2462,72.8468 135.7812,72.8468 C138.7652,72.8468 142.3312,72.3368 145.4182,71.0878 L145.4182,71.0878 Z M282.1772,33.5028 L294.7632,33.5028 C302.5952,33.5018 306.3552,29.1198 306.3552,23.8558 C306.3552,17.6688 302.7422,14.2798 294.7632,14.2788 L282.1772,14.2788 L282.1772,33.5028 Z M306.3152,72.0018 L292.6562,47.7778 L282.1772,47.7778 L282.1772,72.0018 L265.2432,72.0018 L265.2432,0.0018 L295.7182,0.0018 C312.2042,0.0018 323.7502,7.8548 323.7502,23.3808 C323.7502,33.3058 318.8172,40.2328 310.1322,44.5718 L325.9222,72.0018 L306.3152,72.0018 Z M443.7712,31.5538 C439.2482,22.1478 430.8402,16.9108 418.1332,16.9108 C403.0972,16.9108 389.6922,26.3578 389.6922,45.0228 C389.6922,63.2688 401.4912,73.3598 417.9072,73.3598 C429.4432,73.3598 439.1412,68.7548 443.6692,58.8148 L430.4372,51.9808 C428.0632,56.4228 424.3122,59.1718 418.4552,59.1718 C410.9012,59.1718 405.9122,53.7328 405.9122,44.9998 C405.9122,36.2408 411.5432,30.9478 418.3422,30.9478 C423.6002,30.9478 427.6712,33.3818 430.1122,38.5418 L443.7712,31.5538 Z M202.0352,31.5538 C197.5122,22.1478 189.1042,16.9108 176.3972,16.9108 C161.3612,16.9108 147.9562,26.3578 147.9562,45.0228 C147.9562,63.2688 159.7552,73.3598 176.1712,73.3598 C187.7072,73.3598 197.4052,68.7548 201.9332,58.8148 L188.7012,51.9808 C186.3272,56.4228 182.5752,59.1718 176.7192,59.1718 C169.1652,59.1718 164.1762,53.7328 164.1762,44.9998 C164.1762,36.2408 169.8072,30.9478 176.6062,30.9478 C181.8632,30.9478 185.9352,33.3818 188.3762,38.5418 L202.0352,31.5538 Z M41.2932,50.2068 C41.2932,54.9308 38.0432,58.0458 31.8662,58.0458 L17.0922,58.0468 L17.0922,42.3668 L31.8662,42.3668 C37.7582,42.3668 41.2932,45.3628 41.2932,50.2068 L41.2932,50.2068 Z M39.7512,21.2528 C39.7512,26.1398 36.6232,28.9838 30.6622,28.9838 L17.0992,28.9838 L17.0992,13.9618 L30.6622,13.9618 C36.1342,13.9628 39.7512,16.3898 39.7512,21.2528 L39.7512,21.2528 Z M59.2852,51.2548 C59.2852,43.1738 55.0962,36.9308 47.5862,34.1918 C54.7002,30.3378 57.2042,25.1648 57.2042,19.1498 C57.2042,8.6428 49.5942,-0.0012 32.6252,-0.0002 L0.0002,0.0018 L0.0002,72.0018 L34.0082,72.0018 C51.0962,72.0018 59.2852,63.4938 59.2852,51.2548 L59.2852,51.2548 Z M368.4622,45.0608 C368.4622,54.1538 362.4022,59.2768 355.3012,59.2768 C348.2002,59.2768 342.1412,54.1528 342.1412,45.0608 C342.1412,35.8658 348.1922,30.9578 355.3012,30.9578 C362.4102,30.9578 368.4622,35.8648 368.4622,45.0608 L368.4622,45.0608 Z M384.6412,45.0578 C384.6412,27.7048 371.1692,16.8328 355.3012,16.8328 C339.4302,16.8328 325.9612,27.7018 325.9612,45.0578 C325.9612,62.4218 339.4262,73.4008 355.3012,73.4008 C371.1732,73.4008 384.6412,62.4188 384.6412,45.0578 L384.6412,45.0578 Z M65.8542,72.0018 L82.2622,72.0018 L82.2622,0.0018 L65.8542,0.0018 L65.8542,72.0018 Z">
    </path>
   </g>
  </g>
 </g>
</svg>