<svg width="223.25536" height="134.51135" viewBox="0 0 152 22" version="1.1" xmlns="http://www.w3.org/2000/svg" xmlns:xlink="http://www.w3.org/1999/xlink">
 <!-- Generator: Sketch 51.3 (57544) - http://www.bohemiancoding.com/sketch -->
 <title>
  Nav IRELAND
 </title>
 <desc>
  Created with Sketch.
 </desc>
 <defs>
 </defs>
 <g id="Nav-IRELAND" stroke="none" stroke-width="1" fill="none" fill-rule="evenodd">
  <g id="BlackRock_Wordmark_Blk_RGB" fill="#000000" fill-rule="nonzero">
   <path d="M19.3374517,21.1274131 L19.3374517,8.52651283e-14 L24.1498069,8.52651283e-14 L24.1498069,21.1274131 L19.3374517,21.1274131 Z M112.884942,13.2339768 C112.884942,8.12818533 108.923552,4.95907336 104.287259,4.95907336 C99.6216216,4.95907336 95.6895753,8.15752896 95.6895753,13.2339768 C95.6895753,18.3397683 99.6509653,21.5382239 104.287259,21.5382239 C108.923552,21.5382239 112.884942,18.3104247 112.884942,13.2339768 Z M108.131274,13.2339768 C108.131274,15.9042471 106.341313,17.4007722 104.257915,17.4007722 C102.174517,17.4007722 100.384556,15.9042471 100.384556,13.2339768 C100.384556,10.5343629 102.174517,9.0965251 104.257915,9.0965251 C106.341313,9.0965251 108.131274,10.5343629 108.131274,13.2339768 Z M17.4007722,15.0532819 C17.4007722,12.6764479 16.1683398,10.8571429 13.9675676,10.0355212 C16.0509653,8.89111969 16.784556,7.39459459 16.784556,5.63397683 C16.784556,2.55289575 14.5544402,8.94041785e-14 9.56602317,0.0293436293 L1.13686838e-13,0.0293436293 L1.13686838e-13,21.1567568 L9.97683398,21.1567568 C14.9945946,21.1274131 17.4007722,18.6332046 17.4007722,15.0532819 Z M11.6787645,6.25019305 C11.6787645,7.68803089 10.769112,8.50965251 9.00849421,8.50965251 L5.01776062,8.50965251 L5.01776062,4.10810811 L9.00849421,4.10810811 C10.6223938,4.10810811 11.6787645,4.81235521 11.6787645,6.25019305 Z M12.1189189,14.7305019 C12.1189189,16.1096525 11.1505792,17.019305 9.36061776,17.019305 L5.01776062,17.019305 L5.01776062,12.4416988 L9.36061776,12.4416988 C11.0918919,12.4416988 12.1189189,13.3220077 12.1189189,14.7305019 Z M59.3034749,9.27258687 C57.9830116,6.51428571 55.5181467,4.98841699 51.7915058,4.98841699 C47.3899614,4.98841699 43.4579151,7.74671815 43.4579151,13.2339768 C43.4579151,18.5745174 46.9204633,21.5382239 51.7328185,21.5382239 C55.1073359,21.5382239 57.953668,20.188417 59.3034749,17.2833977 L55.4301158,15.2880309 C54.7258687,16.5791506 53.6401544,17.4007722 51.9088803,17.4007722 C49.6787645,17.4007722 48.2409266,15.8162162 48.2409266,13.2339768 C48.2409266,10.6517375 49.8841699,9.0965251 51.8795367,9.0965251 C53.434749,9.0965251 54.6084942,9.8007722 55.3420849,11.3266409 L59.3034749,9.27258687 Z M130.227027,9.27258687 C128.906564,6.51428571 126.441699,4.98841699 122.715058,4.98841699 C118.313514,4.98841699 114.381467,7.74671815 114.381467,13.2339768 C114.381467,18.5745174 117.844015,21.5382239 122.656371,21.5382239 C126.030888,21.5382239 128.87722,20.188417 130.227027,17.2833977 L126.353668,15.2880309 C125.649421,16.5791506 124.563707,17.4007722 122.832432,17.4007722 C120.602317,17.4007722 119.164479,15.8162162 119.164479,13.2339768 C119.164479,10.6517375 120.807722,9.0965251 122.803089,9.0965251 C124.358301,9.0965251 125.532046,9.8007722 126.265637,11.3266409 L130.227027,9.27258687 Z M89.8795367,21.1274131 L85.8594595,14.0262548 L82.7783784,14.0262548 L82.7783784,21.1274131 L77.819305,21.1274131 L77.819305,8.52651283e-14 L86.769112,8.52651283e-14 C91.6108108,8.52651283e-14 94.9853282,2.31814672 94.9853282,6.86640927 C94.9853282,9.77142857 93.5474903,11.8254826 90.9945946,13.0872587 L95.630888,21.1274131 L89.8795367,21.1274131 Z M82.807722,9.83011583 L86.5050193,9.83011583 C88.7938224,9.83011583 89.9088803,8.53899614 89.9088803,7.01312741 C89.9088803,5.19382239 88.8525097,4.196139 86.5050193,4.196139 L82.807722,4.196139 L82.807722,9.83011583 Z M42.6656371,20.8633205 L42.6656371,17.5474903 C42.4602317,17.6061776 42.1667954,17.6648649 41.8440154,17.6648649 C41.2277992,17.6648649 40.9050193,17.3420849 40.9050193,16.784556 L40.9050193,11.2972973 C40.9050193,7.18918919 38.1467181,5.01776062 33.5984556,5.01776062 C30.634749,5.01776062 28.1111969,6.1034749 26.5266409,7.51196911 L29.1969112,10.5050193 C30.2532819,9.56602317 31.6617761,8.97915058 33.0409266,8.97915058 C35.153668,8.97915058 36.1513514,10.0355212 36.1513514,11.7667954 L36.1513514,12.2656371 C35.153668,12.030888 33.8918919,11.796139 32.3660232,11.796139 C28.5220077,11.796139 26.0277992,13.6447876 26.0277992,16.6965251 C26.0277992,19.8362934 28.1111969,21.4795367 31.3389961,21.4795367 C33.5397683,21.4795367 35.5057915,20.5698842 36.5328185,19.396139 C37.1490347,20.9513514 38.4988417,21.3621622 39.819305,21.3621622 C40.7289575,21.3915058 41.7853282,21.2447876 42.6656371,20.8633205 Z M36.180695,15.9042471 C36.180695,17.3420849 34.8015444,18.2810811 33.2169884,18.2810811 C31.7204633,18.2810811 30.9868726,17.5181467 30.9868726,16.4617761 C30.9868726,15.3467181 31.8084942,14.5250965 33.4810811,14.5250965 C34.5081081,14.5250965 35.4177606,14.7011583 36.180695,14.8772201 L36.180695,15.9042471 Z M147.422394,21.1274131 L141.759073,11.2972973 L147.07027,5.51660232 L141.72973,5.51660232 L136.125097,11.7374517 L136.125097,0.0293436293 L131.342085,0.0293436293 L131.342085,21.1567568 L136.125097,21.1567568 L136.125097,17.3420849 L138.4139,14.9065637 L141.993822,21.1567568 L147.422394,21.1567568 L147.422394,21.1274131 Z M76.557529,21.1274131 L70.8942085,11.2972973 L76.2054054,5.51660232 L70.8061776,5.51660232 L65.2602317,11.7374517 L65.2602317,0.0293436293 L60.4772201,0.0293436293 L60.4772201,21.1567568 L65.2602317,21.1567568 L65.2602317,17.3420849 L67.5490347,14.9065637 L71.1289575,21.1567568 L76.557529,21.1567568 L76.557529,21.1274131 Z M150.356757,18.1930502 C151.35444,18.1930502 151.941313,18.8092664 151.941313,19.7482625 C151.941313,20.6872587 151.35444,21.3034749 150.356757,21.3034749 C149.359073,21.3034749 148.772201,20.6872587 148.772201,19.7482625 C148.772201,18.8092664 149.359073,18.1930502 150.356757,18.1930502 Z M150.356757,21.0980695 C151.149035,21.0980695 151.67722,20.6285714 151.67722,19.7482625 C151.67722,18.8679537 151.119691,18.3984556 150.356757,18.3984556 C149.564479,18.3984556 149.036293,18.8679537 149.036293,19.7482625 C149.00695,20.6579151 149.564479,21.0980695 150.356757,21.0980695 Z M149.740541,18.9559846 L150.3861,18.9559846 C150.767568,18.9559846 150.972973,19.16139 150.972973,19.4548263 C150.972973,19.7189189 150.855598,19.8656371 150.650193,19.953668 L150.943629,20.5111969 L150.650193,20.5111969 L150.3861,20.0123552 L150.033977,20.0123552 L150.033977,20.5111969 L149.740541,20.5111969 L149.740541,18.9559846 Z M150.033977,19.1907336 L150.033977,19.7482625 L150.356757,19.7482625 C150.562162,19.7482625 150.679537,19.6895753 150.679537,19.4841699 C150.679537,19.3081081 150.591506,19.2200772 150.3861,19.2200772 L150.033977,19.2200772 L150.033977,19.1907336 Z" id="Shape">
   </path>
  </g>
 </g>
</svg>