<?xml version="1.0" encoding="UTF-8" standalone="no" ?>
<!DOCTYPE svg PUBLIC "-//W3C//DTD SVG 1.1//EN" "http://www.w3.org/Graphics/SVG/1.1/DTD/svg11.dtd">
<svg xmlns="http://www.w3.org/2000/svg" xmlns:xlink="http://www.w3.org/1999/xlink" version="1.1" width="230" height="140" viewBox="0 0 230 140" xml:space="preserve">
<desc>Created with Fabric.js 5.2.4</desc>
<defs>
</defs>
<g transform="matrix(1 0 0 1 115 70)" id="5b2d027e-3e9c-4672-a9f2-bbd2913d5b3f"  >
<rect style="stroke: none; stroke-width: 1; stroke-dasharray: none; stroke-linecap: butt; stroke-dashoffset: 0; stroke-linejoin: miter; stroke-miterlimit: 4; fill: rgb(255,255,255); fill-rule: nonzero; opacity: 1;" vector-effect="non-scaling-stroke"  x="-115" y="-70" rx="0" ry="0" width="230" height="140" />
</g>
<g transform="matrix(Infinity NaN NaN Infinity 0 0)" id="a9f5dec9-9a2e-4cbd-ba59-22dc73c4b3cd"  >
</g>
<g transform="matrix(0.95 0 0 0.95 115 70)"  >
<g style="" vector-effect="non-scaling-stroke"   >
		<g transform="matrix(1 0 0 1 0 0)"  >
<rect style="stroke: none; stroke-width: 1; stroke-dasharray: none; stroke-linecap: butt; stroke-dashoffset: 0; stroke-linejoin: miter; stroke-miterlimit: 4; fill: rgb(255,255,255); fill-opacity: 0; fill-rule: nonzero; opacity: 1;" vector-effect="non-scaling-stroke"  x="-111.62768" y="-67.25568" rx="0" ry="0" width="223.25536" height="134.51136" />
</g>
		<g transform="matrix(1 0 0 1 -53.53 2.15)" id="path14"  >
<path style="stroke: none; stroke-width: 1; stroke-dasharray: none; stroke-linecap: butt; stroke-dashoffset: 0; stroke-linejoin: miter; stroke-miterlimit: 4; fill: rgb(0,0,0); fill-rule: nonzero; opacity: 1;" vector-effect="non-scaling-stroke"  transform=" translate(-55.1, -65.95)" d="M 52.57518 56.39988 L 52.57518 72.40528 L 61.51937 72.40528 L 60.30887 75.49877000000001 L 48.6747 75.49877000000001 L 48.6747 56.39991 L 52.57518 56.39991" stroke-linecap="round" />
</g>
		<g transform="matrix(1 0 0 1 17.28 -0.17)" id="path16"  >
<path style="stroke: none; stroke-width: 1; stroke-dasharray: none; stroke-linecap: butt; stroke-dashoffset: 0; stroke-linejoin: miter; stroke-miterlimit: 4; fill: rgb(0,0,0); fill-rule: nonzero; opacity: 1;" vector-effect="non-scaling-stroke"  transform=" translate(-125.91, -63.63)" d="M 127.89467 65.07506 C 130.38291 64.13358 133.27467000000001 61.98156999999999 133.27467000000001 58.41736999999999 C 133.27467000000001 53.97888999999999 129.44145 51.75967999999999 123.99423000000002 51.75967999999999 L 116.86578000000002 51.75967999999999 L 116.86578000000002 75.49877 L 121.10251000000001 75.49877 L 121.10251000000001 65.74759 L 123.59074000000001 65.74759 L 130.18118 75.49877000000001 L 134.95591000000002 75.49877000000001 L 127.89471000000002 65.07509 Z M 123.1872 62.721329999999995 L 121.10247000000001 62.721329999999995 L 121.10247000000001 54.58412 L 123.72520000000002 54.58412 C 127.15492000000002 54.58412 129.03792 55.66012 129.03792 58.619119999999995 C 129.03792 61.77983999999999 126.75143000000001 62.721349999999994 123.18721000000001 62.721349999999994" stroke-linecap="round" />
</g>
		<g transform="matrix(1 0 0 1 -36.62 2.15)" id="path18"  >
<path style="stroke: none; stroke-width: 1; stroke-dasharray: none; stroke-linecap: butt; stroke-dashoffset: 0; stroke-linejoin: miter; stroke-miterlimit: 4; fill: rgb(0,0,0); fill-rule: nonzero; opacity: 1;" vector-effect="non-scaling-stroke"  transform=" translate(-72.01, -65.95)" d="M 68.98407 56.39988 L 69.58932 57.87937 L 62.19187 75.49874 L 65.82335 75.49874 L 67.43735000000001 71.59826 L 75.84354 71.59826 L 77.52478 75.49874 L 81.82878000000001 75.49874 L 73.3553 56.39988 L 68.98407 56.39988 Z M 68.64782 68.70656 L 71.53956 61.64534999999999 L 74.49856 68.70656 L 68.64783 68.70656" stroke-linecap="round" />
</g>
		<g transform="matrix(1 0 0 1 -70.91 -0.17)" id="path28"  >
<path style="stroke: none; stroke-width: 1; stroke-dasharray: none; stroke-linecap: butt; stroke-dashoffset: 0; stroke-linejoin: miter; stroke-miterlimit: 4; fill: rgb(0,0,0); fill-rule: nonzero; opacity: 1;" vector-effect="non-scaling-stroke"  transform=" translate(-37.71, -63.63)" d="M 41.27726 62.78859 C 43.68746134671479 62.190323859636294 45.37970874619067 60.02646308022204 45.37948 57.54312 C 45.37948 51.75965 38.38553 51.75965 36.1663 51.75965 L 28.7016 51.75965 L 28.7016 75.49874 L 35.83005 75.49874 C 39.99952 75.49874 46.72447 74.49 46.72447 68.63929 C 46.72447 65.41131 44.77423 63.32659 41.27726 62.78859 Z M 35.62826 54.65138 C 38.788979999999995 54.65138 40.94097 54.98763 40.94097 57.812110000000004 C 40.94097 61.64533 37.0405 61.44357 35.15752 61.44357 L 33.00552 61.44357 L 33.00552 54.58412 L 35.628249999999994 54.651379999999996 Z M 35.695499999999996 72.40525 L 33.0055 72.33798999999999 L 33.0055 64.537 L 35.49373 64.537 C 39.25973 64.537 42.28593 65.075 42.28593 68.43748000000001 C 42.28593 71.73270000000001 39.7977 72.40520000000001 35.69547 72.40520000000001" stroke-linecap="round" />
</g>
		<g transform="matrix(1 0 0 1 -1.38 2.15)" id="path30"  >
<path style="stroke: none; stroke-width: 1; stroke-dasharray: none; stroke-linecap: butt; stroke-dashoffset: 0; stroke-linejoin: miter; stroke-miterlimit: 4; fill: rgb(0,0,0); fill-rule: nonzero; opacity: 1;" vector-effect="non-scaling-stroke"  transform=" translate(-107.25, -65.95)" d="M 98.84287 56.39988 L 102.81059 56.39988 L 102.81059 75.49874 L 98.84287 75.49874 Z M 111.08228 56.39988 L 103.01234 65.54583 L 111.14953 75.49877 L 115.65523999999999 75.49877 L 107.4508 65.34408 L 115.05001 56.39988 L 111.08228 56.39988" stroke-linecap="round" />
</g>
		<g transform="matrix(1 0 0 1 -19.81 2.19)" id="path40"  >
<path style="stroke: none; stroke-width: 1; stroke-dasharray: none; stroke-linecap: butt; stroke-dashoffset: 0; stroke-linejoin: miter; stroke-miterlimit: 4; fill: rgb(0,0,0); fill-rule: nonzero; opacity: 1;" vector-effect="non-scaling-stroke"  transform=" translate(-88.82, -65.99)" d="M 80.95449 65.34405 C 80.95449 71.59826 84.85497000000001 75.83498999999999 90.16767 75.83498999999999 C 92.45594123673912 75.92171776649134 94.70665655420794 75.23466004535715 96.55638 73.88475999999999 L 95.61489 72.00175999999999 C 94.2451913702386 72.72477102878092 92.72496708367392 73.11634317264406 91.17642 73.145 C 87.74668999999999 73.145 85.25841999999999 70.65677 85.25841999999999 65.47856 C 85.25841999999999 61.3091 86.80516999999999 58.82087 89.76413999999998 58.82087 C 91.37813999999999 58.82087 92.72313999999999 59.358869999999996 93.26113999999998 60.97287 L 96.69085999999999 60.09862 C 96.35460999999998 58.75362 94.53885999999999 56.13091 89.56240999999999 56.13091 C 84.98940999999999 56.13091 80.95446999999999 59.2244 80.95446999999999 65.34409" stroke-linecap="round" />
</g>
		<g transform="matrix(1 0 0 1 71.49 2.15)" id="path50"  >
<path style="stroke: none; stroke-width: 1; stroke-dasharray: none; stroke-linecap: butt; stroke-dashoffset: 0; stroke-linejoin: miter; stroke-miterlimit: 4; fill: rgb(0,0,0); fill-rule: nonzero; opacity: 1;" vector-effect="non-scaling-stroke"  transform=" translate(-180.11, -65.95)" d="M 171.67412 56.39988 L 175.57459999999998 56.39988 L 175.57459999999998 75.49874 L 171.67412 75.49874 Z M 183.91352999999998 56.39988 L 175.77631999999997 65.54583 L 183.91352999999998 75.49877 L 188.55373999999998 75.49877 L 180.282 65.34408 L 187.8812 56.39988 L 183.91349 56.39988" stroke-linecap="round" />
</g>
		<g transform="matrix(1 0 0 1 52.93 2.19)" id="path52"  >
<path style="stroke: none; stroke-width: 1; stroke-dasharray: none; stroke-linecap: butt; stroke-dashoffset: 0; stroke-linejoin: miter; stroke-miterlimit: 4; fill: rgb(0,0,0); fill-rule: nonzero; opacity: 1;" vector-effect="non-scaling-stroke"  transform=" translate(-161.55, -65.99)" d="M 153.71849 65.34405 C 153.71849 71.59826 157.55171 75.83498999999999 162.79718 75.83498999999999 C 165.10887601188534 75.94228939743239 167.38750542141167 75.25396048892237 169.25318 73.88475999999999 L 168.31169999999997 72.00175999999999 C 166.92109133910444 72.73314022001992 165.3770842213047 73.12490414068783 163.806 73.145 C 160.37627 73.145 157.95530000000002 70.65677 157.95530000000002 65.47856 C 157.95530000000002 61.3091 159.50204000000002 58.82087 162.52830000000003 58.82087 C 164.04778811690787 58.65916676718037 165.48490523670029 59.543546533206474 166.02530000000002 60.97287 L 169.38778000000002 60.09862 C 169.05153 58.75362 167.30303 56.13091 162.32658 56.13091 C 157.68637 56.13091 153.71863000000002 59.2244 153.71863000000002 65.34409" stroke-linecap="round" />
</g>
		<g transform="matrix(1 0 0 1 34.53 2.19)" id="path54"  >
<path style="stroke: none; stroke-width: 1; stroke-dasharray: none; stroke-linecap: butt; stroke-dashoffset: 0; stroke-linejoin: miter; stroke-miterlimit: 4; fill: rgb(0,0,0); fill-rule: nonzero; opacity: 1;" vector-effect="non-scaling-stroke"  transform=" translate(-143.16, -65.98)" d="M 143.16032 56.13087 C 137.98211 56.13087 134.21613000000002 59.224360000000004 134.21613000000002 65.94931 C 134.21613000000002 72.67425999999999 137.78036000000003 75.83499 143.16032 75.83499 C 148.54028 75.83499 152.10452 72.67427 152.10452 65.94931 C 152.10452 59.22434999999999 148.33853 56.13087 143.16032 56.13087 Z M 143.16032 73.14501 C 139.19261 73.14501 138.2511 69.91701 138.2511 65.94931 C 138.2511 62.048829999999995 139.19258000000002 58.68635999999999 143.16032 58.68635999999999 C 147.12806 58.68635999999999 148.06954000000002 62.048829999999995 148.06954000000002 65.94931 C 148.06954000000002 69.91703 147.12806 73.14501 143.16032 73.14501" stroke-linecap="round" />
</g>
</g>
</g>
</svg>
