<svg id="Layer_1" data-name="Layer 1" xmlns="http://www.w3.org/2000/svg" viewBox="0 0 215 127"><defs><style>.cls-1{fill:transparent;}.cls-2{fill:#e6372e;}.cls-3{fill:#070708;}.cls-4{fill:#060607;}.cls-5{fill:#09090a;}.cls-6{fill:#fdf8f8;}</style></defs><title>kubernetes.io-logos</title><rect class="cls-1" x="-3.55202" y="-3.16104" width="223.25536" height="134.51136"/><path class="cls-2" d="M174.7331,79.063a5.29278,5.29278,0,0,1-2.48424-2.40624,6.05586,6.05586,0,0,1-.746-3.545c.18463-1.11019-.24237-1.06687-1.0716-1.03492a6.779,6.779,0,0,1-7.073-7.77979,6.398,6.398,0,0,1,2.23632-3.98911c.6433-.52644.61488-.81785.00853-1.40172-2.988-2.87715-3.16895-6.94063-.46508-9.74752a6.54235,6.54235,0,0,1,5.70066-2.01454c.59833.06772.82125-.00057.71489-.66525a6.82983,6.82983,0,0,1,3.99524-7.06773,6.76016,6.76016,0,0,1,7.84308,1.779c.49791.51259.77461.62169,1.33971.01359a6.71168,6.71168,0,0,1,11.79137,4.96284c-.05075.921.15855,1.03967,1.03654.95488a6.77552,6.77552,0,0,1,6.76164,4.16268,6.52891,6.52891,0,0,1-1.68251,7.51236c-.75219.66029-.65593.96758.01876,1.57127a6.588,6.588,0,0,1,1.76326,7.29366,6.6751,6.6751,0,0,1-6.59653,4.40928c-1.106-.05773-1.38882.15191-1.29533,1.27611a6.39262,6.39262,0,0,1-2.375,5.42224c-.22528.20332.29229-.29659,0,0-1.67387,1.69851-5.35054,1.33544-7.57943.4876-.90454-.34407-1.56463-1.47678-2.38256-1.63609-.96562-.18809-1.39018,1.27061-2.30866,1.6792-.07145.03179-.11333.10413-.18961.1312A8.74048,8.74048,0,0,1,174.7331,79.063Zm10.51232-28.33053q0,2.45925.00059,4.91851c.00362,2.08055.71058,2.778,2.83666,2.78253q4.06993.00872,8.13995-.00071a9.51892,9.51892,0,0,0,2.69814-.16721,4.43021,4.43021,0,0,0,3.47836-3.58146,4.53295,4.53295,0,0,0-7.075-4.5649A1.91974,1.91974,0,0,0,194.27,52.00951a2.59651,2.59651,0,0,1-2.77231,2.88755,2.65076,2.65076,0,0,1-2.8207-2.7522,2.76226,2.76226,0,0,1,3.03826-2.81208,1.64492,1.64492,0,0,0,1.631-.8134,4.51223,4.51223,0,0,0,.20385-5.39041,4.53377,4.53377,0,0,0-8.29927,2.56209C185.22875,47.37126,185.24632,49.052,185.24542,50.73247Zm7.67363,10.02636c-1.80707,0-3.61443-.01933-5.42113.00619a2.04863,2.04863,0,0,0-2.24323,2.20868c-.02513,3.52124-.04737,7.04337.00512,10.564a4.59356,4.59356,0,0,0,4.52671,4.43528,4.64457,4.64457,0,0,0,4.647-4.33789,5.21932,5.21932,0,0,0-1.20127-3.2721c-.54173-.7776-1.254-.55374-1.96878-.60237A2.63624,2.63624,0,0,1,188.76733,66.72a2.669,2.669,0,0,1,2.76486-2.55634,2.82718,2.82718,0,0,1,2.83413,2.93081c-.1399,1.12018.47435,1.5794,1.20282,2.02024a4.5365,4.5365,0,1,0,2.27829-8.35426C196.20474,60.74723,194.56185,60.75781,192.91905,60.75883Zm-17.54754.003c-1.84857,0-3.69853-.04493-5.54531.01255a4.69721,4.69721,0,0,0-4.13243,3.49468,4.57106,4.57106,0,0,0,2.13822,4.95359,4.48877,4.48877,0,0,0,5.45319-.63892,1.49447,1.49447,0,0,0,.53574-1.27327,2.80235,2.80235,0,1,1,2.50089,2.47929,1.50608,1.50608,0,0,0-1.36813.57687,4.64555,4.64555,0,0,0-.53314,5.4781,4.57308,4.57308,0,0,0,8.471-2.28763c.04339-3.52171.0273-7.04443.00545-10.56654a2.08892,2.08892,0,0,0-2.22627-2.22658C178.90455,60.7428,177.13792,60.75882,175.37151,60.76187Zm7.53217-9.914c0-1.76027.03138-3.52125-.0086-5.28062a4.68941,4.68941,0,0,0-3.0932-4.19154,4.78317,4.78317,0,0,0-5.18575,1.62294,4.60765,4.60765,0,0,0-.15038,5.0973c.42136.63842.82242,1.35422,1.90013,1.24021a2.77426,2.77426,0,0,1,3.10278,2.76161,2.74172,2.74172,0,0,1-2.90273,2.82144,2.69974,2.69974,0,0,1-2.72371-3.085,1.43677,1.43677,0,0,0-.59514-1.35538,4.50161,4.50161,0,0,0-5.58-.42534,4.51864,4.51864,0,0,0,2.42439,8.32222c3.52989.066,7.06217.044,10.59291.00775a2.08,2.08,0,0,0,2.21484-2.25484C182.92152,54.36863,182.90464,52.60815,182.90368,50.84787Z"/><path class="cls-3" d="M13.91124,50.53455c0,7.12823-.03528,14.25679.033,21.38436.01208,1.26107-.31832,1.59473-1.55832,1.53633-2.224-.10478-2.22759-.02792-2.22759-2.20507,0-8.031.03208-16.06235-.0338-24.09286-.01015-1.23751.35266-1.51529,1.50028-1.4298a39.56436,39.56436,0,0,0,4.18971.01085c.64168-.02043.89623.20078,1.11832.8127Q20.6553,56.80788,24.46,67.035c.07751.20965.08149.5.551.645.62916-1.63209,1.28125-3.26985,1.8937-4.92222q3.02523-8.16195,6.01119-16.33826a.85915.85915,0,0,1,.97359-.67656c1.5613.02561,3.12414.03917,4.68461-.00486.6677-.01884.816.22312.81472.84743q-.02709,12.96837-.00034,25.93679c.00147.69909-.23616.89506-.92494.919-3.4877.1211-3.487.1403-3.487-3.25969q0-9.09638-.00026-18.19277c0-.2868.0031-.57384-.00751-.86032-.00738-.19937-.005-.43332-.29431-.42937-.20555.00281-.19911.18377-.25479.33808C31.9097,57.9926,29.36873,64.937,26.8946,71.90491c-.3959,1.115-.87267,1.63869-2.1636,1.55628-2.09449-.13373-2.1113-.032-2.81871-1.95346q-3.66385-9.95193-7.31608-19.90812c-.13578-.36937-.29073-.73174-.43676-1.09738Z"/><path class="cls-4" d="M68.48078,58.67439c1.23375-1.90166,2.37041-3.42867,4.24024-4.19665a7.85313,7.85313,0,0,1,3.73433-.57907A4.66174,4.66174,0,0,1,80.89457,58.39c.18458,4.78552.0945,9.5815.12433,14.3731.0029.46551-.20048.66646-.66645.66139-1.027-.01114-2.0546-.0189-3.08134.00206-.88325.018-.704-.613-.7051-1.11365-.00762-3.56381-.00091-7.12766-.0074-10.69147a9.65726,9.65726,0,0,0-.083-1.71487c-.20546-1.12-.32046-2.38821-1.64325-2.793a3.4639,3.4639,0,0,0-3.69405,1.0647c-1.96476,2.09489-2.544,4.71873-2.64094,7.46471-.07943,2.25021-.04666,4.506-.00019,6.75808.01612.78077-.17355,1.11781-1.01436,1.03485-1.09622-.10816-2.519.43839-3.21814-.20815-.70867-.65537-.2161-2.08713-.22191-3.17566-.02575-4.83356.00884-9.6675-.02928-14.5009-.007-.88775.11384-1.35183,1.16345-1.23282,1.04931.119,2.44378-.324,3.08829.20468.67988.55773.14472,1.9931.21322,3.04233C68.49437,57.80957,68.48078,58.05563,68.48078,58.67439Z"/><path class="cls-5" d="M142.96981,71.03a7.80331,7.80331,0,0,1-4.40537,2.65425,7.3545,7.3545,0,0,1-3.76049-.2927,4.56424,4.56424,0,0,1-3.19945-3.70665,4.70511,4.70511,0,0,1,2.30857-4.91383,14.92043,14.92043,0,0,1,6.6773-1.88572c2.97238-.32332,2.38484.38635,2.4284-2.7245a6.96147,6.96147,0,0,0-.53155-3.00016,2.39753,2.39753,0,0,0-2.436-1.52227,2.6333,2.6333,0,0,0-2.7,1.74391c-.04.11586-.07038.235-.10557.35247-.6238,2.08238-.62382,2.08238-2.8599,2.0824-2.46714,0-2.58758-.20942-1.60986-2.51643a4.65783,4.65783,0,0,1,2.84365-2.70051,13.10087,13.10087,0,0,1,7.86268-.3131,4.74446,4.74446,0,0,1,3.87294,4.62075c.34286,4.57661.07114,9.16416.15658,13.746.01112.59648-.24876.795-.812.77807a15.38129,15.38129,0,0,0-2.33824.01282c-1.13055.14-1.48991-.32248-1.33523-1.37322A6.69467,6.69467,0,0,0,142.96981,71.03Zm.07445-4.962c-.33906-.357.50391-1.453-.477-1.46794a6.99167,6.99167,0,0,0-5.42793,1.82132,2.95186,2.95186,0,0,0-.191,3.8297,2.65143,2.65143,0,0,0,3.34173.60219C142.27764,69.95374,143.07423,68.3263,143.04426,66.06794Z"/><path class="cls-5" d="M60.75624,63.94219a12.07765,12.07765,0,0,1-.86855,5.03763,7.17577,7.17577,0,0,1-4.95119,4.40366,12.07268,12.07268,0,0,1-6.92313-.09654,7.07163,7.07163,0,0,1-4.80878-4.84843,15.33548,15.33548,0,0,1-.13872-8.8265c1.11836-4.08635,4.80883-6.21022,9.78476-5.6986,4.84831.4985,7.50687,3.33007,7.90014,8.433C60.79154,62.87533,60.75624,63.41011,60.75624,63.94219Zm-4.75178-.11451a18.22689,18.22689,0,0,0-.89307-5.65219,3.58422,3.58422,0,0,0-3.28821-2.53538,3.46612,3.46612,0,0,0-3.39843,1.977,6.66574,6.66574,0,0,0-.80681,2.67677c-.27114,3.17443-.60373,6.37032.67532,9.423a3.41114,3.41114,0,0,0,3.53413,2.33372,3.65833,3.65833,0,0,0,3.31843-2.67145A18.48479,18.48479,0,0,0,56.00446,63.82768Z"/><path class="cls-5" d="M122.99881,61.73207c-1.76771.00011-3.53621.031-5.30271-.01478-.7297-.01892-.86138.19837-.78929.90558a12.4082,12.4082,0,0,0,1.97156,5.87064c1.90664,2.79671,5.17778,3.76169,8.75535,2.70306.33078-.09788.91691-.69766,1.09029-.00572.14132.56408.46379,1.46184-.53243,1.76483-3.63632,1.10594-7.26549,1.35124-10.80578-.33026a8.26488,8.26488,0,0,1-4.37857-5.36421,14.11,14.11,0,0,1-.15136-7.76545,6.88982,6.88982,0,0,1,6.236-5.44685c2.94272-.37221,5.8481-.40236,8.20618,1.85637,1.47675,1.41451,1.73746,3.2738,1.8841,5.17653.05559.7214-.42041.652-.88029.6513Q125.65035,61.72885,122.99881,61.73207Zm-2.09491-1.941c1.06525,0,2.1306-.00875,3.19569.00424.4346.00531.67473-.09588.68661-.60819a3.73127,3.73127,0,0,0-2.28746-3.33894,4.0592,4.0592,0,0,0-5.3484,3.061c-.14245.62317-.03246.91867.6811.89225C118.8543,59.76353,119.87963,59.79175,120.9039,59.791Z"/><path class="cls-3" d="M87.12567,63.50661c-.00076-1.96628-.04331-3.93387.018-5.89824.02863-.91663-.26435-1.29522-1.18686-1.17787a7.48608,7.48608,0,0,1-.98526.00617,1.19928,1.19928,0,0,1-1.2038-1.80355c.21242-.46733.63231-.27748.9644-.287,2.39256-.06849,2.527-.0715,2.34674-2.46962a2.664,2.664,0,0,1,1.94922-3.15279c.84828-.28765,1.70812-1.45551,2.32344-1.05093.65945.43359.18022,1.73038.21914,2.64809.04509,1.06316.04252,2.131-.00138,3.19425-.02608.63193.16165.86269.8237.83712,1.27179-.04913,2.54994.03943,3.81947-.0331.84349-.0482.92288.33856.91408,1.01768-.00892.689-.02038,1.17791-.95485,1.1191-1.22772-.07727-2.46452.00171-3.69642-.02776-.57826-.01383-.91117.07274-.90549.77744.0314,3.89121-.02329,7.78362.05058,11.67376.03893,2.05024,1.44076,2.8696,3.86975,2.53332.33037-.04574,1.09421-.73723,1.0831.19976-.00818.6885.78755,1.88887-.83027,2.05275a17.08918,17.08918,0,0,1-5.26933-.165,3.91427,3.91427,0,0,1-3.3405-4.09493C87.10105,67.43956,87.12642,65.47288,87.12567,63.50661Z"/><path class="cls-5" d="M151.92425,59.43486c0-4.17608.02312-8.3524-.01885-12.52807-.00869-.86527.13461-1.29642,1.12121-1.16962,1.08407.13934,2.50074-.44845,3.18884.24171.63285.63472.17655,2.027.1784,3.0839.01351,7.69708-.01218,15.39429.03029,23.09116.00571,1.03426-.29978,1.3104-1.3149,1.296-3.18448-.04512-3.185-.005-3.185-3.20638Q151.92421,64.83921,151.92425,59.43486Z"/><path class="cls-5" d="M104.57084,58.39812c.601-.80063,1.16722-1.63035,1.811-2.39515a6.13919,6.13919,0,0,1,3.81845-2.04536c.59015-.102.8721.0429.82945.66408-.00841.12232.00055.24574-.00108.36862-.01242.94119.26248,2.0241-.11475,2.78595-.42549.85934-1.687.4282-2.56323.66986a4.85269,4.85269,0,0,0-3.97009,4.95332c-.15535,2.85955-.11574,5.73294-.06506,8.59858.01895,1.07188-.1941,1.49349-1.3929,1.46-3.09616-.08641-3.09792-.024-3.09791-3.06065,0-4.998.02125-9.99625-.02018-14.99395-.00719-.867.2363-1.154,1.09793-1.082a17.90006,17.90006,0,0,0,2.5866.00291c.67817-.04194.83815.23535.81394.8535-.0413,1.0541-.01138,2.111-.01138,3.16667Z"/><path class="cls-5" d="M126.456,45.7558c-1.46,1.80824-2.71414,3.37234-3.98283,4.92462a6.29714,6.29714,0,0,1-3.29628.40063c-.3486-.17529-.17807-.389-.0635-.59738.78806-1.43332,1.59251-2.85794,2.35835-4.30292a.6673.6673,0,0,1,.658-.42621C123.47124,45.75753,124.81276,45.7558,126.456,45.7558Z"/><path class="cls-6" d="M143.04426,66.06794c.03,2.25836-.76662,3.8858-2.75419,4.78527a2.65143,2.65143,0,0,1-3.34173-.60219,2.95186,2.95186,0,0,1,.191-3.8297A6.99167,6.99167,0,0,1,142.56731,64.6C143.54817,64.61491,142.7052,65.71089,143.04426,66.06794Z"/><path class="cls-6" d="M56.00446,63.82768a18.48479,18.48479,0,0,1-.85864,5.55147,3.65833,3.65833,0,0,1-3.31843,2.67145,3.41114,3.41114,0,0,1-3.53413-2.33372c-1.279-3.05264-.94646-6.24853-.67532-9.423a6.66574,6.66574,0,0,1,.80681-2.67677,3.46612,3.46612,0,0,1,3.39843-1.977,3.58422,3.58422,0,0,1,3.28821,2.53538A18.22689,18.22689,0,0,1,56.00446,63.82768Z"/><path class="cls-6" d="M120.9039,59.79138c-1.02427.00037-2.0496-.02785-3.07246.01-.71356.02642-.82355-.26908-.6811-.89225a4.0592,4.0592,0,0,1,5.3484-3.061,3.73127,3.73127,0,0,1,2.28746,3.33894c-.01188.51231-.252.6135-.68661.60819C123.0345,59.78227,121.96915,59.791,120.9039,59.79138Z"/></svg>