<?xml version="1.0" encoding="UTF-8" standalone="no" ?>
<!DOCTYPE svg PUBLIC "-//W3C//DTD SVG 1.1//EN" "http://www.w3.org/Graphics/SVG/1.1/DTD/svg11.dtd">
<svg xmlns="http://www.w3.org/2000/svg" xmlns:xlink="http://www.w3.org/1999/xlink" version="1.1" width="230" height="140" viewBox="0 0 230 140" xml:space="preserve">
<desc>Created with Fabric.js 5.2.4</desc>
<defs>
</defs>
<g transform="matrix(1 0 0 1 115 70)" id="e21bb481-b938-4ddc-a3ad-2159e715aef1"  >
<rect style="stroke: none; stroke-width: 1; stroke-dasharray: none; stroke-linecap: butt; stroke-dashoffset: 0; stroke-linejoin: miter; stroke-miterlimit: 4; fill: rgb(255,255,255); fill-rule: nonzero; opacity: 1;" vector-effect="non-scaling-stroke"  x="-115" y="-70" rx="0" ry="0" width="230" height="140" />
</g>
<g transform="matrix(Infinity NaN NaN Infinity 0 0)" id="df0d95fc-0970-4b81-9343-6d1a4dfc9c77"  >
</g>
<g transform="matrix(0.98 0 0 0.98 115 70)"  >
<g style="" vector-effect="non-scaling-stroke"   >
		<g transform="matrix(1 0 0 1 -38.25 -2)" id="Shape"  >
<path style="stroke: none; stroke-width: 1; stroke-dasharray: none; stroke-linecap: butt; stroke-dashoffset: 0; stroke-linejoin: miter; stroke-miterlimit: 4; fill: rgb(0,0,0); fill-rule: nonzero; opacity: 1;" vector-effect="non-scaling-stroke"  transform=" translate(-63.36, -7.5)" d="M 63.3856494 14.8876712 C 55.2579524 14.8876712 52.7910795 12.7273973 52.7910795 9.96849315 L 52.7910795 0.104109589 L 58.1143315 0.104109589 L 58.1143315 9.42191781 C 58.1143315 11.6863014 60.4773361 12.3109589 63.6453202 12.3109589 C 65.8005881 12.3109589 67.4105472 12.2589041 68.605033 12.1027397 L 68.605033 0.130136986 L 73.928285 0.130136986 L 73.928285 14.2890411 C 71.9288196 14.5753425 67.955856 14.8876712 63.3856494 14.8876712 Z" stroke-linecap="round" />
</g>
		<g transform="matrix(1 0 0 1 -91.04 -2.2)" id="Shape"  >
<polygon style="stroke: none; stroke-width: 1; stroke-dasharray: none; stroke-linecap: butt; stroke-dashoffset: 0; stroke-linejoin: miter; stroke-miterlimit: 4; fill: rgb(0,0,0); fill-rule: nonzero; opacity: 1;" vector-effect="non-scaling-stroke"  points="5.25,7.22 5.25,1.26 -5.25,1.26 -5.25,7.22 -10.57,7.22 -10.57,-7.22 -5.25,-7.22 -5.25,-1.31 5.25,-1.31 5.25,-7.22 10.57,-7.22 10.57,7.22 " />
</g>
		<g transform="matrix(1 0 0 1 -11.62 -2.19)" id="Shape"  >
<path style="stroke: none; stroke-width: 1; stroke-dasharray: none; stroke-linecap: butt; stroke-dashoffset: 0; stroke-linejoin: miter; stroke-miterlimit: 4; fill: rgb(0,0,0); fill-rule: nonzero; opacity: 1;" vector-effect="non-scaling-stroke"  transform=" translate(-89.99, -7.31)" d="M 86.1847482 2.96712329 L 100.570512 2.96712329 L 100.570512 0.0780821918 L 85.0681636 0.0780821918 C 80.8614962 0.0780821918 79.4073395 0.832876712 79.4073395 3.01917808 L 79.4073395 14.5493151 L 84.7305915 14.5493151 L 84.7305915 8.5109589 L 100.544545 8.5109589 L 100.544545 5.93424658 L 84.7305915 5.93424658 L 84.7305915 3.87808219 C 84.7565586 3.33150685 85.0681636 2.96712329 86.1847482 2.96712329 Z" stroke-linecap="round" />
</g>
		<g transform="matrix(1 0 0 1 13.72 -2.21)" id="Shape"  >
<path style="stroke: none; stroke-width: 1; stroke-dasharray: none; stroke-linecap: butt; stroke-dashoffset: 0; stroke-linejoin: miter; stroke-miterlimit: 4; fill: rgb(0,0,0); fill-rule: nonzero; opacity: 1;" vector-effect="non-scaling-stroke"  transform=" translate(-115.33, -7.29)" d="M 111.528621 2.96712329 C 110.386069 2.96712329 110.100432 3.33150685 110.100432 3.85205479 L 110.100432 5.96027397 L 125.914385 5.96027397 L 125.914385 8.43287671 L 110.100432 8.43287671 L 110.100432 10.7493151 C 110.100432 11.269863 110.412037 11.6342466 111.528621 11.6342466 L 125.914385 11.6342466 L 125.914385 14.5232877 L 110.412037 14.5232877 C 106.205369 14.5232877 104.751212 13.7684932 104.751212 11.5821918 L 104.751212 2.99315068 C 104.751212 0.806849315 106.205369 0.0520547945 110.412037 0.0520547945 L 125.914385 0.0520547945 L 125.914385 2.94109589 L 111.528621 2.94109589 L 111.528621 2.96712329 Z" stroke-linecap="round" />
</g>
		<g transform="matrix(1 0 0 1 32.41 3.19)" id="Shape"  >
<path style="stroke: none; stroke-width: 1; stroke-dasharray: none; stroke-linecap: butt; stroke-dashoffset: 0; stroke-linejoin: miter; stroke-miterlimit: 4; fill: rgb(0,93,165); fill-rule: nonzero; opacity: 1;" vector-effect="non-scaling-stroke"  transform=" translate(-134.02, -12.69)" d="M 131.289571 11.8164384 C 131.289571 11.0876712 131.705044 10.8273973 132.951464 10.8273973 L 135.080765 10.8273973 C 136.301218 10.8273973 136.742659 11.0876712 136.742659 11.8164384 L 136.742659 13.560274 C 136.742659 14.2890411 136.327185 14.5493151 135.080765 14.5493151 L 132.951464 14.5493151 C 131.731012 14.5493151 131.289571 14.2890411 131.289571 13.560274 L 131.289571 11.8164384 Z" stroke-linecap="round" />
</g>
		<g transform="matrix(1 0 0 1 -64.75 -2.02)" id="Shape"  >
<path style="stroke: none; stroke-width: 1; stroke-dasharray: none; stroke-linecap: butt; stroke-dashoffset: 0; stroke-linejoin: miter; stroke-miterlimit: 4; fill: rgb(0,0,0); fill-rule: nonzero; opacity: 1;" vector-effect="non-scaling-stroke"  transform=" translate(-36.86, -7.48)" d="M 37.0809944 5.62191781 C 33.6793065 5.62191781 30.6151907 5.93424658 28.4858899 6.29863014 C 26.9538321 6.53287671 26.2786879 7.13150685 26.2786879 8.43287671 L 26.2786879 12.0767123 C 26.2786879 13.3780822 26.9538321 13.9506849 28.4858899 14.2109589 C 30.6151907 14.5753425 33.6793065 14.8876712 37.0809944 14.8876712 C 41.5473326 14.9136986 45.4943292 14.5493151 47.4418605 14.2369863 L 47.4418605 4.86712329 C 47.4418605 0.338356164 45.7020659 0.0780821918 39.8075381 0.0780821918 L 27.9665483 0.0780821918 L 27.9665483 2.57671233 L 39.6777027 2.57671233 C 41.8849047 2.57671233 42.0926414 3.17534247 42.0926414 4.50273973 L 42.0926414 5.62191781 L 37.0809944 5.62191781 Z M 37.0809944 12.4931507 C 35.4191011 12.4931507 33.7572078 12.3630137 32.6925574 12.1547945 C 31.939512 12.0246575 31.6019399 11.7383562 31.6019399 11.1136986 L 31.6019399 9.42191781 C 31.6019399 8.77123288 31.939512 8.48493151 32.6925574 8.38082192 C 33.7572078 8.17260274 35.4191011 8.04246575 37.0809944 8.04246575 L 42.0666743 8.04246575 L 42.0666743 12.3109589 C 41.0539581 12.4150685 39.0804598 12.4931507 37.0809944 12.4931507 L 37.0809944 12.4931507 Z" stroke-linecap="round" />
</g>
		<g transform="matrix(1 0 0 1 45.92 -2.13)" id="Shape"  >
<path style="stroke: none; stroke-width: 1; stroke-dasharray: none; stroke-linecap: butt; stroke-dashoffset: 0; stroke-linejoin: miter; stroke-miterlimit: 4; fill: rgb(0,0,0); fill-rule: nonzero; opacity: 1;" vector-effect="non-scaling-stroke"  transform=" translate(-147.53, -7.37)" d="M 149.051056 14.7315068 C 144.844388 14.7315068 141.494635 12.2849315 141.494635 7.36575342 C 141.494635 2.91506849 144.454882 0 149.258793 0 C 150.868752 0 152.21904 0.28630137 153.28369 0.780821918 L 152.608546 1.97808219 C 151.7776 1.61369863 150.661015 1.35342466 149.388628 1.35342466 C 145.909039 1.35342466 143.935541 3.69589041 143.935541 7.44383562 C 143.935541 11.4780822 146.298545 13.3780822 148.973155 13.3780822 C 149.830068 13.3780822 150.661015 13.3 151.284225 13.0917808 L 151.284225 7.70410959 L 148.012373 7.70410959 L 148.012373 6.50684932 L 153.569328 6.50684932 L 153.569328 13.9767123 C 152.504678 14.4452055 150.661015 14.7315068 149.051056 14.7315068 Z" stroke-linecap="round" />
</g>
		<g transform="matrix(1 0 0 1 58.74 -0.68)" id="Shape"  >
<path style="stroke: none; stroke-width: 1; stroke-dasharray: none; stroke-linecap: butt; stroke-dashoffset: 0; stroke-linejoin: miter; stroke-miterlimit: 4; fill: rgb(0,0,0); fill-rule: nonzero; opacity: 1;" vector-effect="non-scaling-stroke"  transform=" translate(-160.35, -8.82)" d="M 162.81361 4.52876712 C 162.398136 4.39863014 161.904762 4.34657534 161.38542 4.34657534 C 160.76221 4.34657534 160.113033 4.42465753 159.645626 4.63287671 L 159.645626 14.5232877 L 157.360522 14.5232877 L 157.360522 3.90410959 C 158.555008 3.43561644 160.113033 3.12328767 162.112499 3.12328767 C 162.63184 3.12328767 163.203116 3.17534247 163.332951 3.17534247 L 162.81361 4.52876712 Z" stroke-linecap="round" />
</g>
		<g transform="matrix(1 0 0 1 68.76 -0.59)" id="Shape"  >
<path style="stroke: none; stroke-width: 1; stroke-dasharray: none; stroke-linecap: butt; stroke-dashoffset: 0; stroke-linejoin: miter; stroke-miterlimit: 4; fill: rgb(0,0,0); fill-rule: nonzero; opacity: 1;" vector-effect="non-scaling-stroke"  transform=" translate(-170.37, -8.91)" d="M 170.370031 14.7315068 C 166.604804 14.7315068 164.890976 12.2849315 164.890976 8.90136986 C 164.890976 5.54383562 166.604804 3.09726027 170.370031 3.09726027 C 174.135258 3.09726027 175.849085 5.54383562 175.849085 8.90136986 C 175.875053 12.2849315 174.135258 14.7315068 170.370031 14.7315068 Z M 170.370031 4.26849315 C 167.955092 4.26849315 167.150113 6.37671233 167.150113 8.87534247 C 167.150113 11.3739726 167.955092 13.5082192 170.370031 13.5082192 C 172.78497 13.5082192 173.589949 11.3739726 173.589949 8.87534247 C 173.589949 6.37671233 172.810937 4.26849315 170.370031 4.26849315 Z" stroke-linecap="round" />
</g>
		<g transform="matrix(1 0 0 1 82.42 -0.48)" id="Shape"  >
<path style="stroke: none; stroke-width: 1; stroke-dasharray: none; stroke-linecap: butt; stroke-dashoffset: 0; stroke-linejoin: miter; stroke-miterlimit: 4; fill: rgb(0,0,0); fill-rule: nonzero; opacity: 1;" vector-effect="non-scaling-stroke"  transform=" translate(-184.03, -9.02)" d="M 184.184519 14.7315068 C 180.860732 14.7315068 179.120938 13.5863014 179.120938 11.0616438 L 179.120938 3.30547945 L 181.380074 3.30547945 L 181.380074 11.139726 C 181.380074 12.7013699 182.288922 13.4821918 184.210486 13.4821918 C 185.093367 13.4821918 186.080116 13.3520548 186.677359 13.1178082 L 186.677359 3.30547945 L 188.936495 3.30547945 L 188.936495 13.8986301 C 187.897812 14.3671233 186.002215 14.7315068 184.184519 14.7315068 Z" stroke-linecap="round" />
</g>
		<g transform="matrix(1 0 0 1 96.38 1.55)" id="Shape"  >
<path style="stroke: none; stroke-width: 1; stroke-dasharray: none; stroke-linecap: butt; stroke-dashoffset: 0; stroke-linejoin: miter; stroke-miterlimit: 4; fill: rgb(0,0,0); fill-rule: nonzero; opacity: 1;" vector-effect="non-scaling-stroke"  transform=" translate(-197.99, -11.05)" d="M 197.142093 14.7054795 C 196.337114 14.7054795 195.506167 14.5753425 194.986826 14.4452055 L 194.986826 19 L 192.753656 19 L 192.753656 3.87808219 C 193.948142 3.38356164 195.454233 3.09726027 197.064192 3.09726027 C 201.037156 3.09726027 203.218391 5.30958904 203.218391 8.71917808 C 203.192424 12.4671233 200.803452 14.7054795 197.142093 14.7054795 Z M 196.960324 4.21643836 C 196.259213 4.21643836 195.506167 4.29452055 194.986826 4.50273973 L 194.986826 13.3 C 195.402299 13.430137 195.999542 13.5342466 196.648719 13.5342466 C 199.479131 13.5342466 200.933288 11.8164384 200.933288 8.82328767 C 200.933288 6.01232877 199.868637 4.21643836 196.960324 4.21643836 Z" stroke-linecap="round" />
</g>
</g>
</g>
</svg>
