<svg id="Layer_1" data-name="Layer 1" xmlns="http://www.w3.org/2000/svg" viewBox="0 0 215 127"><defs><style>.cls-1{fill:transparent;}.cls-2{fill:#005da5;}</style></defs><title>kubernetes.io-logos</title><rect class="cls-1" x="-4.55738" y="-3.79362" width="223.25536" height="134.51136"/><path d="M70.73011,68.57377c-7.72723,0-10.07255-2.04907-10.07255-4.666V54.5512h5.061v8.83817c0,2.14782,2.24658,2.74033,5.25847,2.74033a39.0795,39.0795,0,0,0,4.71533-.1975V54.57589h5.061V68.006A79.45679,79.45679,0,0,1,70.73011,68.57377Z"/><polygon points="25.502 68.228 25.502 62.575 15.529 62.575 15.529 68.228 10.468 68.228 10.468 54.527 15.529 54.527 15.529 60.131 25.502 60.131 25.502 54.527 30.563 54.527 30.563 68.228 25.502 68.228"/><path d="M92.40584,57.26684h13.677V54.52651H91.34428c-3.9994,0-5.3819.71594-5.3819,2.7897V68.25283h5.061V62.5253H106.0581V60.08123H91.02333V58.1309C91.048,57.61246,91.34428,57.26684,92.40584,57.26684Z"/><path d="M116.501,57.26684c-1.08626,0-1.35782.34562-1.35782.83938v1.99969h15.03476v2.34533H115.14315v2.1972c0,.49375.29625.83938,1.35782.83938h13.67694v2.74032H115.4394c-3.9994,0-5.3819-.71594-5.3819-2.7897V57.29153c0-2.07377,1.3825-2.78971,5.3819-2.78971h14.73852v2.74033H116.501Z"/><path class="cls-2" d="M135.28825,65.66063c0-.69125.395-.93813,1.58-.93813h2.02439c1.16032,0,1.58.24688,1.58.93813V67.3147c0,.69126-.395.93813-1.58.93813h-2.02439c-1.16032,0-1.58-.24687-1.58-.93813Z"/><path d="M45.72154,59.785a50.47135,50.47135,0,0,0-8.1716.64187c-1.45657.22219-2.09845.79-2.09845,2.02439v3.45627c0,1.23438.64188,1.77751,2.09845,2.02438a50.47023,50.47023,0,0,0,8.1716.64188,66.931,66.931,0,0,0,9.85037-.61719V59.069c0-4.29564-1.65407-4.54252-7.25816-4.54252H37.05619v2.37H48.1903c2.09845,0,2.29595.56782,2.29595,1.82689V59.785Zm0,6.51753a24.08331,24.08331,0,0,1-4.1722-.32094c-.71595-.12344-1.03688-.395-1.03688-.98751V63.38937c0-.61719.32094-.88876,1.03688-.98751a24.08232,24.08232,0,0,1,4.1722-.32093h4.74V66.1297C49.49875,66.22845,47.62249,66.30251,45.72154,66.30251Z"/><path d="M152.17459,68.42564c-3.9994,0-7.1841-2.32063-7.1841-6.98659,0-4.22159,2.81438-6.9866,7.38159-6.9866a9.10468,9.10468,0,0,1,3.82659.74063l-.64188,1.13563a7.75929,7.75929,0,0,0-3.06127-.59251c-3.30814,0-5.1844,2.22189-5.1844,5.77691,0,3.82658,2.24657,5.62878,4.78941,5.62878a7.32732,7.32732,0,0,0,2.1972-.27157V61.76h-3.11065V60.62435h5.28316V67.7097A12.10491,12.10491,0,0,1,152.17459,68.42564Z"/><path d="M165.259,58.7481a4.6438,4.6438,0,0,0-1.35782-.17282,4.308,4.308,0,0,0-1.65407.27157v9.38129h-2.17251V58.15559a12.37618,12.37618,0,0,1,4.51783-.74063c.49375,0,1.03688.04938,1.16032.04938Z"/><path d="M172.44312,68.42564c-3.5797,0-5.20908-2.32063-5.20908-5.53s1.62938-5.50534,5.20908-5.50534,5.20908,2.32063,5.20908,5.50534S176.02283,68.42564,172.44312,68.42564Zm0-9.92442c-2.29594,0-3.06127,1.9997-3.06127,4.36971s.76531,4.3944,3.06127,4.3944,3.06127-2.02439,3.06127-4.3944S174.76376,58.50122,172.44312,58.50122Z"/><path d="M185.57694,68.42564c-3.16,0-4.81409-1.08625-4.81409-3.481V57.58778h2.14783v7.431c0,1.48126.86407,2.22189,2.691,2.22189A7.23093,7.23093,0,0,0,187.947,66.895V57.58778h2.14783V67.63564A12.37028,12.37028,0,0,1,185.57694,68.42564Z"/><path d="M197.89607,68.401a9.11009,9.11009,0,0,1-2.04907-.24688v4.32034h-2.12313V58.1309a10.93672,10.93672,0,0,1,4.09814-.74062c3.77721,0,5.851,2.09844,5.851,5.33252C203.64829,66.27782,201.377,68.401,197.89607,68.401Zm-.17281-9.94912a5.46342,5.46342,0,0,0-1.87626.27157v8.34441a5.51753,5.51753,0,0,0,1.58.22219c2.691,0,4.07346-1.62938,4.07346-4.46846C201.50046,60.15529,200.48827,58.45184,197.72326,58.45184Z"/></svg>