<?xml version="1.0" encoding="UTF-8"?>
<svg width="223.25536" height="134.51135" viewBox="0 0 215 127" version="1.1" xmlns="http://www.w3.org/2000/svg" xmlns:xlink="http://www.w3.org/1999/xlink">
    <title>Frame 1346</title>
    <g id="Page-1" stroke="none" stroke-width="1" fill="none" fill-rule="evenodd">
        <g id="Frame-1346" fill-rule="nonzero">
            <path d="M25.06,35.7647 L25.06,26.8941 C24.754,20.2824 19.261,14.9882 12.542,14.9882 C11.693,14.9882 10.844,15.0824 10.043,15.2471 L10.043,4.25882 L0,0 L0,35.7647 L10.019,40 L10.019,27.4118 C10.066,26.0706 11.151,24.9882 12.518,24.9882 C13.886,24.9882 14.994,26.0706 15.017,27.4118 L15.017,27.4353 C15.017,27.4588 15.017,27.4588 15.017,27.4824 C15.017,27.5059 15.017,27.5059 15.017,27.5294 L15.017,40 L25.06,35.7647 Z" id="Path" fill="#D2FF5A"></path>
            <path d="M42.62,29 L42.62,11.36 L46.148,11.36 L46.148,20.072 L46.868,17.216 C47.588,16.448 48.548,16.04 49.916,16.04 C52.892,16.04 54.452,18.032 54.452,21.584 L54.452,29 L50.924,29 L50.924,22.352 C50.924,20.168 50.3,19.304 48.692,19.304 C47.06,19.304 46.148,20.48 46.148,22.592 L46.148,29 L42.62,29 Z M62.859,29.36 C59.187,29.36 56.547,26.552 56.547,22.76 C56.547,18.896 59.163,16.04 62.835,16.04 C64.515,16.04 65.811,16.664 66.723,17.624 L66.723,16.52 L70.251,16.52 L70.251,23.336 L72.147,29 L68.427,29 L67.011,24.512 L66.795,27.752 C65.931,28.736 64.683,29.36 62.859,29.36 Z M63.555,26.168 C65.235,26.168 66.843,24.92 66.843,22.76 C66.843,20.528 65.235,19.232 63.555,19.232 C61.755,19.232 60.219,20.576 60.219,22.76 C60.219,24.872 61.755,26.168 63.555,26.168 Z M78.582,29.36 C75.726,29.36 73.95,27.488 73.95,24.416 L73.95,16.52 L77.478,16.52 L77.478,23.984 C77.478,25.568 78.126,26.336 79.47,26.336 C81.174,26.336 82.014,24.872 82.014,22.832 L82.014,16.52 L85.542,16.52 L85.542,24.704 L86.958,29 L83.238,29 L82.014,25.04 L82.014,27.728 C81.342,28.64 80.382,29.36 78.582,29.36 Z M90.368,15.344 C90.368,12.752 92.048,10.88 94.592,10.88 C95.384,10.88 96.152,10.928 96.896,11.12 L96.896,14.072 C96.368,13.952 95.816,13.904 95.288,13.904 C94.4,13.904 93.896,14.432 93.896,15.464 L93.896,16.52 L97.304,16.52 L97.304,19.472 L93.896,19.472 L93.896,29 L90.368,29 L90.368,19.472 L88.088,19.472 L88.088,16.52 L90.368,16.52 L90.368,15.344 Z M105.099,29.36 C100.995,29.36 98.547,26.624 98.547,22.808 C98.547,18.872 101.211,16.04 104.955,16.04 C108.531,16.04 110.883,18.68 110.883,22.496 C110.883,22.928 110.859,23.288 110.787,23.816 L102.291,23.816 C102.579,25.808 103.683,26.48 105.219,26.48 C106.707,26.48 107.619,25.88 108.243,24.536 L110.715,26.816 C109.443,28.52 107.475,29.36 105.099,29.36 Z M102.315,21.416 L107.139,21.416 L107.139,21.368 C107.139,19.952 106.371,18.92 104.859,18.92 C103.563,18.92 102.603,19.664 102.315,21.416 Z M112.921,29 L112.921,24.968 L116.953,24.968 L116.953,29 L112.921,29 Z M125.157,34.52 C121.989,34.52 119.733,33.296 118.797,31.112 L121.749,29.24 C122.253,30.752 123.477,31.592 125.205,31.592 C127.293,31.592 128.589,30.344 128.589,28.376 L128.589,24.56 L127.701,27.896 C127.125,28.28 126.021,28.64 124.917,28.64 C121.245,28.64 118.797,25.976 118.797,22.4 C118.797,18.752 121.245,16.04 124.917,16.04 C126.477,16.04 127.701,16.592 128.589,17.48 L128.589,16.52 L132.117,16.52 L132.117,28.616 C132.117,32.24 129.429,34.52 125.157,34.52 Z M125.613,25.448 C127.293,25.448 128.709,24.272 128.709,22.4 C128.709,20.312 127.293,19.232 125.613,19.232 C123.813,19.232 122.469,20.432 122.469,22.4 C122.469,24.296 123.813,25.448 125.613,25.448 Z M135.008,29 L135.008,16.52 L138.536,16.52 L138.536,20.552 L139.256,17.216 C139.616,16.808 140.456,16.16 141.56,16.16 C142.112,16.16 142.472,16.208 142.952,16.4 L142.952,19.832 C142.304,19.616 141.848,19.52 141.152,19.52 C139.52,19.52 138.536,20.888 138.536,23 L138.536,29 L135.008,29 Z M150.974,29.36 C146.99,29.36 144.086,26.576 144.086,22.712 C144.086,18.824 146.99,16.04 150.974,16.04 C154.958,16.04 157.862,18.824 157.862,22.712 C157.862,26.576 154.958,29.36 150.974,29.36 Z M150.974,26.12 C152.798,26.12 154.19,24.824 154.19,22.712 C154.19,20.576 152.798,19.28 150.974,19.28 C149.15,19.28 147.758,20.576 147.758,22.712 C147.758,24.824 149.15,26.12 150.974,26.12 Z M164.575,29.36 C161.719,29.36 159.943,27.488 159.943,24.416 L159.943,16.52 L163.471,16.52 L163.471,23.984 C163.471,25.568 164.119,26.336 165.463,26.336 C167.167,26.336 168.007,24.872 168.007,22.832 L168.007,16.52 L171.535,16.52 L171.535,24.704 L172.951,29 L169.231,29 L168.007,25.04 L168.007,27.728 C167.335,28.64 166.375,29.36 164.575,29.36 Z M174.992,34.16 L174.992,16.52 L178.52,16.52 L178.52,17.624 C179.432,16.664 180.728,16.04 182.408,16.04 C186.08,16.04 188.696,18.896 188.696,22.76 C188.696,26.552 186.056,29.36 182.384,29.36 C181.16,29.36 180.248,29.12 179.432,28.592 L178.52,25.28 L178.52,34.16 L174.992,34.16 Z M181.688,26.168 C183.488,26.168 185.024,24.872 185.024,22.76 C185.024,20.576 183.488,19.232 181.688,19.232 C180.008,19.232 178.4,20.528 178.4,22.76 C178.4,24.92 180.008,26.168 181.688,26.168 Z" id="Shape" fill="#FFFFFF"></path>
        </g>
    </g>
</svg>