<?xml version="1.0" encoding="UTF-8" standalone="no"?>
<svg
   xmlns:dc="http://purl.org/dc/elements/1.1/"
   xmlns:cc="http://creativecommons.org/ns#"
   xmlns:rdf="http://www.w3.org/1999/02/22-rdf-syntax-ns#"
   xmlns:svg="http://www.w3.org/2000/svg"
   xmlns="http://www.w3.org/2000/svg"
   xmlns:xlink="http://www.w3.org/1999/xlink"
   width="476.1"
   height="385.3"
   version="1.1"
   id="svg161">
  <metadata
     id="metadata167">
    <rdf:RDF>
      <cc:Work
         rdf:about="">
        <dc:format>image/svg+xml</dc:format>
        <dc:type
           rdf:resource="http://purl.org/dc/dcmitype/StillImage" />
        <dc:title></dc:title>
      </cc:Work>
    </rdf:RDF>
  </metadata>
  <defs
     id="defs165" />
  <style
     type="text/css"
     id="style10">.st0{fill:#FFFFFF;stroke:#006DE9;stroke-linecap:round;stroke-linejoin:round;stroke-miterlimit:10;}
	.st1{fill:#FFFFFF;stroke:#006DE9;stroke-width:6;stroke-linecap:round;stroke-linejoin:round;stroke-miterlimit:10;}
	.st2{fill:#FFFFFF;stroke:#326DE6;stroke-width:2;stroke-linecap:round;stroke-linejoin:round;stroke-miterlimit:10;}
	.st3{opacity:0.71;fill:#326CE6;}
	.st4{opacity:0.45;fill:#FFFFFF;}
	.st5{fill:#FFFFFF;stroke:#006DE9;stroke-width:2;stroke-linecap:round;stroke-linejoin:round;stroke-miterlimit:10;}
	.st6{fill:#006DE9;}
	.st7{fill:#A0CAEA;}
	.st8{fill:#FFFFFF;}
	.st9{opacity:0.13;}
	.st10{fill:url(#SVGID_1_);}
	.st11{fill:url(#SVGID_2_);}
	.st12{fill:#FFFFFF;stroke:#326DE6;stroke-width:3.2;stroke-linecap:round;stroke-linejoin:round;stroke-miterlimit:10;}
	.st13{fill:#326DE6;}
	.st14{fill:none;stroke:#326DE6;stroke-width:2.4;stroke-miterlimit:10;}
	.st15{fill:#A0CAE9;}
	.st16{fill:#FFFFFF;stroke:#326DE6;stroke-width:1.6;stroke-linecap:round;stroke-linejoin:round;stroke-miterlimit:10;}
	.st17{fill:#FFFFFF;stroke:#326DE6;stroke-width:1.6;stroke-miterlimit:10;}
	.st18{fill:none;stroke:#06F7C9;stroke-width:2;stroke-miterlimit:10;}
	.st19{fill:none;stroke:#06F7C9;stroke-width:2;stroke-miterlimit:10;stroke-dasharray:2.3749,1.5832;}
	.st20{fill:none;stroke:#06F7C9;stroke-width:2;stroke-miterlimit:10;stroke-dasharray:2.4006,1.6004;}
	.st21{fill:none;stroke:#EEF406;stroke-width:2;stroke-miterlimit:10;stroke-dasharray:2.4,1.6;}
	.st22{fill:none;stroke:#EEF406;stroke-width:2;stroke-miterlimit:10;}
	.st23{fill:none;stroke:#EEF406;stroke-width:2;stroke-miterlimit:10;stroke-dasharray:2.3975,1.5984;}
	.st24{fill:none;stroke:#EEF406;stroke-width:2;stroke-miterlimit:10;stroke-dasharray:2.395,1.5966;}
	.st25{fill:none;stroke:#EEF406;stroke-width:2;stroke-miterlimit:10;stroke-dasharray:2.3963,1.5976;}
	.st26{opacity:0.1;fill:#EEF406;}
	.st27{opacity:2.000000e-02;fill:#EEF406;}
	.st28{opacity:0.1;fill:#06F7C9;}
	.st29{fill:none;stroke:#006DE9;stroke-width:0.8;stroke-miterlimit:10;}
	.st30{opacity:0.1;fill:url(#SVGID_3_);}
	.st31{opacity:0.1;fill:url(#SVGID_4_);}
	.st32{opacity:0.1;fill:url(#SVGID_5_);}
	.st33{opacity:0.1;fill:url(#SVGID_6_);}
	.st34{fill:none;stroke:#326DE6;stroke-width:1.2;stroke-miterlimit:10;}
	.st35{opacity:0.1;fill:url(#SVGID_7_);}
	.st36{opacity:0.1;fill:url(#SVGID_8_);}
	.st37{opacity:0.1;fill:url(#SVGID_9_);}
	.st38{opacity:0.1;fill:url(#SVGID_10_);}
	.st39{fill:none;stroke:#326DE6;stroke-width:2;stroke-miterlimit:10;}
	.st40{opacity:0.4;fill:none;stroke:#EEF406;stroke-width:2;stroke-miterlimit:10;}
	.st41{fill:none;stroke:#EEF406;stroke-width:2.4596;stroke-miterlimit:10;}
	.st42{fill:#011F38;}
	.st43{opacity:0.4;}
	.st44{opacity:0.1;}
	.st45{fill:#326DE6;stroke:#EEF406;stroke-width:2;stroke-miterlimit:10;}
	.st46{fill:none;stroke:#FFFFFF;stroke-width:1.2;stroke-linecap:round;stroke-linejoin:round;}
	.st47{fill:#06F7C9;stroke:#FFFFFF;stroke-width:0.3;stroke-linecap:round;stroke-linejoin:round;stroke-miterlimit:10;}
	.st48{fill:none;stroke:#011F38;stroke-width:1.2;stroke-linecap:round;stroke-linejoin:round;}
	.st49{fill:#326DE6;stroke:#06F7C9;stroke-width:2;stroke-miterlimit:10;}
	.st50{fill:#06F7C9;stroke:#011F38;stroke-width:0.8;stroke-linecap:round;stroke-linejoin:round;stroke-miterlimit:10;}
	.st51{fill:#8115FF;stroke:#011F38;stroke-width:0.8;stroke-linecap:round;stroke-linejoin:round;stroke-miterlimit:10;}
	.st52{opacity:0.3;}
	.st53{opacity:0.2;fill:#6D6E71;}
	.st54{fill:#EEF406;}
	.st55{fill:#06F7C9;}
	.st56{fill:#FFFFFF;stroke:#06F7C9;stroke-width:2;stroke-miterlimit:10;stroke-dasharray:2.4,1.6;}
	.st57{fill:#FFFFFF;stroke:#EEF406;stroke-width:1.6;stroke-miterlimit:10;stroke-dasharray:2.4,1.6;}
	.st58{fill:none;stroke:#06F7C9;stroke-width:2;stroke-miterlimit:10;stroke-dasharray:2.4938,1.6626;}
	.st59{fill:none;stroke:#06F7C9;stroke-width:2;stroke-miterlimit:10;stroke-dasharray:2.0084,1.3389;}
	.st60{fill:none;stroke:#06F7C9;stroke-width:2;stroke-miterlimit:10;stroke-dasharray:2.724,1.816;}
	.st61{fill:#011F38;stroke:#414042;stroke-width:0.3;stroke-linecap:round;stroke-linejoin:round;stroke-miterlimit:10;}
	.st62{fill:none;stroke:#011F38;stroke-width:0.3;stroke-linecap:round;stroke-linejoin:round;stroke-miterlimit:10;}
	.st63{fill:none;stroke:#011F38;stroke-width:0.2813;stroke-linecap:round;stroke-linejoin:round;stroke-miterlimit:10;}</style>
  <symbol
     viewBox="-68.6 -66.9 137.2 133.9"
     id="master_x5F_level1_1_">
    <g
       id="svg_1">
      <g
         id="svg_2">
        <line
           id="svg_3"
           y2="0.7"
           x2="0"
           y1="-11.1"
           x1="0"
           class="st0" />
        <line
           id="svg_4"
           y2="-5.2"
           x2="-5.9"
           y1="-5.2"
           x1="5.9"
           class="st0" />
      </g>
      <polygon
         id="svg_5"
         points="-29.2,-63.9 -65.6,-18.3 -52.6,38.6 0,63.9 52.6,38.6 65.6,-18.3 29.2,-63.9   "
         class="st1" />
    </g>
  </symbol>
  <symbol
     viewBox="-81 -93 162 186.1"
     id="node_high_level">
    <polygon
       id="svg_6"
       points="-80,-46 -80,46 0,92 80,46 80,-46 0,-92  "
       class="st2" />
    <g
       id="Isolation_Mode_3_" />
  </symbol>
  <symbol
     viewBox="-87.5 -100.6 175.1 201.1"
     id="node_x5F_empty">
    <use
       transform="matrix(1.0808,0,0,1.0808,-0.00003292006,-0.00003749943) "
       y="-93"
       x="-81"
       id="XMLID_201_"
       height="186.1"
       width="162"
       xlink:href="#node_high_level" />
    <g
       id="svg_7">
      <polygon
         id="svg_8"
         points="76.8,-28.1 -14,-80.3 0,-88.3 76.7,-44.4   "
         class="st3" />
      <polygon
         id="svg_9"
         points="76.8,-28.1 32.1,-53.8 38.8,-66.1 76.7,-44.4   "
         class="st4" />
    </g>
  </symbol>
  <symbol
     viewBox="-87.6 -101 175.2 202"
     id="node_x5F_new">
    <polygon
       id="svg_10"
       points="0,-100 -86.6,-50 -86.6,50 0,100 86.6,50 86.6,-50  "
       class="st5" />
    <polygon
       id="svg_11"
       points="-86.6,-20.2 -86.6,-50 0,-100 25.8,-85.1  "
       class="st6" />
    <polygon
       id="svg_12"
       points="-40.8,-70.7 -32.9,-57 15.7,-85.1 0,-94.3  "
       class="st7" />
    <text
       id="svg_13"
       font-family="'RobotoSlab-Regular'"
       font-size="11.3632px"
       class="st8"
       transform="matrix(0.866,-0.5,-0.5,-0.866,-33.9256,-70.7388) ">Docker</text>
    <text
       id="svg_14"
       font-family="'RobotoSlab-Regular'"
       font-size="11.3632px"
       class="st8"
       transform="matrix(0.866,-0.5,-0.5,-0.866,-76.0668,-46.4087) ">Kubelt</text>
  </symbol>
  <g
     id="g159">
    <title
       id="title32">Layer 1</title>
    <g
       id="CLUSTER"
       transform="translate(-1.9963203,-15.750631)">
      <g
         class="st9"
         id="XMLID_296_">
        <g
           id="svg_15">
          <linearGradient
             y2="185.29311"
             x2="343.09021"
             y1="185.29311"
             x1="28.6348"
             gradientUnits="userSpaceOnUse"
             id="SVGID_1_">
            <stop
               stop-color="#326DE6"
               offset="0"
               id="stop34" />
            <stop
               stop-color="#10FFC6"
               offset="1"
               id="stop36" />
          </linearGradient>
          <polygon
             id="svg_16"
             points="343.1,229.2 255.8,338.6 115.9,338.6 28.6,229.2 59.8,92.7 185.9,32 311.9,92.7 "
             class="st10"
             style="fill:url(#SVGID_1_)" />
        </g>
      </g>
    </g>
    <g
       id="master">
      <use
         id="svg_17"
         transform="matrix(0.4,0,0,-0.4,185.8606,187.2514)"
         y="-66.900002"
         x="-68.599998"
         height="133.89999"
         width="137.2"
         xlink:href="#master_x5F_level1_1_" />
      <g
         id="master_x5F_level1" />
    </g>
    <g
       id="description">
      <g
         id="svg_98" />
      <line
         id="svg_118"
         y2="194.52843"
         x2="213.52141"
         y1="194.52843"
         x1="351.89236"
         class="st62" />
      <line
         id="svg_119"
         y2="228.8"
         x2="160"
         y1="228.8"
         x1="353.23419"
         class="st62" />
      <line
         id="svg_120"
         y2="118.3"
         x2="243.39999"
         y1="118.3"
         x1="360.60001"
         class="st62" />
      <text
         xml:space="preserve"
         style="font-style:normal;font-variant:normal;font-weight:bold;font-stretch:normal;font-size:13.3333px;line-height:1.25;font-family:Courier;-inkscape-font-specification:'Courier, Bold';font-variant-ligatures:normal;font-variant-caps:normal;font-variant-numeric:normal;font-variant-east-asian:normal"
         x="106.34034"
         y="341.76721"
         id="text183"><tspan
           id="tspan181"
           x="106.34034"
           y="341.76721">Kubernetes Cluster</tspan></text>
    </g>
    <g
       id="Node">
      <g
         id="Node_x5F_level3_x5F_1">
        <g
           id="Isolation_Mode" />
      </g>
      <polygon
         id="svg_18"
         points="111.4,139.9 111.4,98.7 147.1,78.2 182.7,98.7 182.7,139.9 147.1,160.4 "
         class="st16" />
      <polygon
         id="svg_19"
         points="129.3,150.2 147.1,160.4 182.7,139.9 182.7,119.3 "
         class="st13" />
      <polygon
         id="svg_20"
         points="163.5,147.7 157.4,137.2 179.9,124.2 179.9,138.3 "
         class="st7" />
      <g
         id="svg_21">
        <path
           id="svg_22"
           d="m 162.5,139.3 c 0.4,-0.3 0.9,-0.3 1.3,-0.2 0.4,0.1 0.8,0.4 1,0.8 l 0.3,0.5 c 0.3,0.4 0.3,0.9 0.2,1.3 -0.1,0.4 -0.4,0.8 -0.8,1 l -1.4,0.8 -0.2,-0.3 0.3,-0.3 -1.6,-2.7 -0.4,0.2 -0.2,-0.3 0.4,-0.2 z m -0.4,0.7 1.6,2.7 0.6,-0.3 c 0.3,-0.2 0.5,-0.4 0.6,-0.8 0.1,-0.3 0,-0.6 -0.2,-1 l -0.3,-0.5 c -0.2,-0.3 -0.4,-0.5 -0.7,-0.6 -0.3,-0.1 -0.6,-0.1 -0.9,0.1 z"
           class="st8" />
        <path
           id="svg_23"
           d="m 165.7,140.3 c -0.2,-0.4 -0.3,-0.8 -0.2,-1.1 0.1,-0.4 0.3,-0.6 0.6,-0.9 0.4,-0.2 0.7,-0.2 1.1,-0.1 0.3,0.1 0.6,0.4 0.9,0.8 v 0.1 c 0.2,0.4 0.3,0.8 0.2,1.1 -0.1,0.4 -0.3,0.6 -0.6,0.8 -0.4,0.2 -0.7,0.2 -1.1,0.1 -0.4,-0.1 -0.7,-0.3 -0.9,-0.8 z m 0.5,-0.2 c 0.2,0.3 0.3,0.5 0.6,0.6 0.2,0.1 0.4,0.1 0.7,0 0.2,-0.1 0.3,-0.3 0.4,-0.6 0,-0.2 -0.1,-0.5 -0.2,-0.8 v -0.1 c -0.2,-0.3 -0.3,-0.5 -0.6,-0.6 -0.2,-0.1 -0.4,-0.1 -0.7,0 -0.2,0.1 -0.3,0.3 -0.4,0.6 -0.1,0.3 0,0.6 0.2,0.9 z"
           class="st8" />
        <path
           id="svg_24"
           d="m 170.1,139.1 c 0.2,-0.1 0.3,-0.2 0.3,-0.4 0.1,-0.2 0.1,-0.3 0,-0.5 l 0.4,-0.2 v 0 c 0.1,0.2 0.2,0.5 0,0.8 -0.1,0.3 -0.3,0.5 -0.6,0.7 -0.4,0.2 -0.7,0.3 -1.1,0.1 -0.3,-0.1 -0.6,-0.4 -0.8,-0.7 l -0.1,-0.1 c -0.2,-0.4 -0.3,-0.7 -0.2,-1.1 0.1,-0.4 0.3,-0.6 0.6,-0.9 0.2,-0.1 0.4,-0.2 0.6,-0.2 0.2,0 0.4,0 0.6,0 l 0.3,0.6 -0.4,0.2 -0.3,-0.3 c -0.1,0 -0.2,0 -0.3,0 -0.1,0 -0.2,0.1 -0.3,0.1 -0.2,0.1 -0.4,0.3 -0.4,0.6 0,0.2 0.1,0.5 0.2,0.7 l 0.1,0.1 c 0.2,0.3 0.3,0.5 0.5,0.6 0.5,0 0.7,0 0.9,-0.1 z"
           class="st8" />
        <path
           id="svg_25"
           d="m 169.8,135.2 -0.2,-0.3 0.9,-0.5 1.2,2.1 0.3,-0.2 0.2,-1 -0.3,0.1 -0.2,-0.3 1.1,-0.6 0.2,0.3 -0.3,0.2 -0.2,1.2 1.4,0.6 0.3,-0.1 0.2,0.3 -1.1,0.6 -0.2,-0.3 0.2,-0.2 -1.2,-0.5 -0.3,0.2 0.5,0.8 0.4,-0.2 0.2,0.3 -1.2,0.7 -0.2,-0.3 0.3,-0.3 -1.7,-3 z"
           class="st8" />
        <path
           id="svg_26"
           d="m 175.9,136.3 c -0.4,0.2 -0.7,0.3 -1.1,0.1 -0.4,-0.2 -0.6,-0.4 -0.9,-0.7 l -0.1,-0.1 c -0.2,-0.4 -0.3,-0.7 -0.2,-1.1 0.1,-0.4 0.3,-0.6 0.6,-0.8 0.3,-0.2 0.7,-0.2 1,-0.1 0.3,0.1 0.5,0.3 0.7,0.7 l 0.2,0.3 -1.7,1 v 0 c 0.1,0.2 0.3,0.4 0.5,0.5 0.2,0.1 0.4,0.1 0.6,-0.1 0.2,-0.1 0.3,-0.2 0.4,-0.3 0.1,-0.1 0.2,-0.2 0.2,-0.4 l 0.4,0.2 c 0,0.1 -0.1,0.3 -0.2,0.4 0,0.1 -0.2,0.2 -0.4,0.4 z m -1.4,-2.3 c -0.2,0.1 -0.3,0.2 -0.3,0.4 0,0.2 0,0.4 0.1,0.6 v 0 l 1.2,-0.7 v -0.1 c -0.1,-0.2 -0.2,-0.3 -0.4,-0.4 -0.2,0.1 -0.4,0.1 -0.6,0.2 z"
           class="st8" />
        <path
           id="svg_27"
           d="m 176,133.1 -0.2,-0.3 0.8,-0.5 0.3,0.3 c 0,-0.2 0,-0.3 0.1,-0.5 0.1,-0.1 0.2,-0.2 0.3,-0.3 0,0 0.1,0 0.1,-0.1 0,0 0.1,0 0.1,0 l 0.2,0.5 -0.3,0.1 c -0.1,0.1 -0.2,0.2 -0.3,0.3 -0.1,0.1 -0.1,0.2 -0.1,0.4 l 0.8,1.5 0.4,-0.2 0.2,0.3 -1.2,0.7 -0.2,-0.3 0.3,-0.3 -1.1,-1.8 z"
           class="st8" />
      </g>
      <g
         id="svg_28">
        <path
           id="svg_29"
           d="m 141.1,151.8 -0.2,-0.3 0.9,-0.5 1.2,2.1 0.3,-0.2 0.2,-1 -0.3,0.1 -0.2,-0.3 1.1,-0.6 0.2,0.3 -0.3,0.2 -0.2,1.2 1.4,0.6 0.3,-0.1 0.2,0.3 -1.1,0.6 -0.2,-0.3 0.2,-0.2 -1.2,-0.5 -0.3,0.2 0.5,0.8 0.4,-0.2 0.2,0.3 -1.2,0.7 -0.2,-0.3 0.3,-0.3 -1.7,-3 z"
           class="st8" />
        <path
           id="svg_30"
           d="m 147.6,152 c 0,0.2 0,0.3 -0.1,0.5 -0.1,0.1 -0.2,0.3 -0.4,0.4 -0.3,0.2 -0.5,0.2 -0.8,0.1 -0.3,-0.1 -0.5,-0.3 -0.7,-0.7 l -0.7,-1.1 -0.3,0.1 -0.2,-0.3 0.3,-0.2 0.5,-0.3 0.9,1.5 c 0.2,0.3 0.3,0.4 0.4,0.5 0.1,0.1 0.3,0 0.5,-0.1 0.2,-0.1 0.3,-0.2 0.4,-0.3 0.1,-0.1 0.1,-0.3 0.1,-0.4 l -0.9,-1.5 -0.4,0.1 -0.2,-0.3 0.3,-0.2 0.5,-0.3 1.3,2.2 0.3,-0.1 0.2,0.3 -0.7,0.4 z"
           class="st8" />
        <path
           id="svg_31"
           d="m 150.6,149.2 c 0.2,0.4 0.3,0.7 0.2,1 0,0.3 -0.2,0.6 -0.5,0.8 -0.2,0.1 -0.3,0.1 -0.5,0.2 -0.2,0 -0.3,0 -0.5,-0.1 l 0.1,0.4 -0.4,0.2 -1.9,-3.3 -0.4,0.2 -0.2,-0.3 0.9,-0.5 0.8,1.4 c 0,-0.2 0.1,-0.3 0.1,-0.4 0.1,-0.1 0.2,-0.2 0.4,-0.3 0.3,-0.2 0.6,-0.2 1,0 0.4,0.2 0.7,0.2 0.9,0.7 z m -0.5,0.2 c -0.2,-0.3 -0.4,-0.5 -0.6,-0.6 -0.2,-0.1 -0.4,-0.1 -0.7,0 -0.1,0.1 -0.2,0.2 -0.3,0.3 -0.1,0.1 -0.1,0.3 -0.1,0.4 l 0.7,1.1 c 0.1,0.1 0.3,0.1 0.4,0.1 0.1,0 0.3,0 0.4,-0.1 0.2,-0.1 0.3,-0.3 0.4,-0.5 0.1,-0.2 0,-0.4 -0.2,-0.7 z"
           class="st8" />
        <path
           id="svg_32"
           d="m 153,149.5 c -0.4,0.2 -0.7,0.3 -1.1,0.1 -0.4,-0.2 -0.6,-0.4 -0.9,-0.7 l -0.1,-0.1 c -0.2,-0.4 -0.3,-0.7 -0.2,-1.1 0.1,-0.4 0.3,-0.6 0.6,-0.8 0.3,-0.2 0.7,-0.2 1,-0.1 0.3,0.1 0.5,0.3 0.7,0.7 l 0.2,0.3 -1.7,1 v 0 c 0.1,0.2 0.3,0.4 0.5,0.5 0.2,0.1 0.4,0.1 0.6,-0.1 0.2,-0.1 0.3,-0.2 0.4,-0.3 0.1,-0.1 0.2,-0.2 0.2,-0.4 l 0.4,0.2 c 0,0.1 -0.1,0.3 -0.2,0.4 -0.1,0.1 -0.2,0.2 -0.4,0.4 z m -1.4,-2.3 c -0.2,0.1 -0.3,0.2 -0.3,0.4 0,0.2 0,0.4 0.1,0.6 v 0 l 1.2,-0.7 v -0.1 c -0.1,-0.2 -0.2,-0.3 -0.4,-0.4 -0.2,-0.1 -0.4,0.1 -0.6,0.2 z"
           class="st8" />
        <path
           id="svg_33"
           d="m 152.4,145.2 -0.2,-0.3 0.9,-0.5 1.9,3.3 0.4,-0.2 0.2,0.3 -1.2,0.7 -0.2,-0.3 0.3,-0.3 -1.7,-3 z"
           class="st8" />
        <path
           id="svg_34"
           d="m 157.1,147.1 c -0.4,0.2 -0.7,0.3 -1.1,0.1 -0.4,-0.2 -0.6,-0.4 -0.9,-0.7 l -0.1,-0.1 c -0.2,-0.4 -0.3,-0.7 -0.2,-1.1 0.1,-0.4 0.3,-0.6 0.6,-0.8 0.3,-0.2 0.7,-0.2 1,-0.1 0.3,0.1 0.5,0.3 0.7,0.7 l 0.2,0.3 -1.7,1 v 0 c 0.1,0.2 0.3,0.4 0.5,0.5 0.2,0.1 0.4,0.1 0.6,-0.1 0.2,-0.1 0.3,-0.2 0.4,-0.3 0.1,-0.1 0.2,-0.2 0.2,-0.4 l 0.4,0.2 c 0,0.1 -0.1,0.3 -0.2,0.4 -0.1,0.1 -0.2,0.3 -0.4,0.4 z m -1.4,-2.3 c -0.2,0.1 -0.3,0.2 -0.3,0.4 0,0.2 0,0.4 0.1,0.6 v 0 l 1.2,-0.7 V 145 c -0.1,-0.2 -0.2,-0.3 -0.4,-0.4 -0.2,0.1 -0.4,0.1 -0.6,0.2 z"
           class="st8" />
        <path
           id="svg_35"
           d="m 157.5,142.6 0.4,0.6 0.5,-0.3 0.2,0.3 -0.5,0.3 0.9,1.6 c 0.1,0.1 0.1,0.2 0.2,0.2 0.1,0 0.2,0 0.2,0 0,0 0.1,-0.1 0.1,-0.1 0,0 0.1,-0.1 0.1,-0.1 l 0.2,0.3 c 0,0.1 -0.1,0.1 -0.2,0.2 -0.1,0.1 -0.2,0.1 -0.2,0.2 -0.2,0.1 -0.4,0.1 -0.6,0.1 -0.2,0 -0.3,-0.2 -0.5,-0.4 l -0.9,-1.6 -0.4,0.2 -0.2,-0.3 0.4,-0.2 -0.4,-0.6 z"
           class="st8" />
      </g>
      <polygon
         id="svg_36"
         points="189.4,98.7 225.1,78.2 260.7,98.7 260.7,139.9 225.1,160.4 189.4,139.9 "
         class="st16" />
      <polygon
         id="svg_37"
         points="189.4,119.3 189.4,139.9 225.1,160.4 242.9,150.2 "
         class="st13" />
      <polygon
         id="svg_38"
         points="208.7,147.7 214.8,137.2 237.3,150.2 225.1,157.2 "
         class="st7" />
      <g
         id="svg_39">
        <path
           id="svg_40"
           d="m 215.5,142.6 c 0.5,0.3 0.7,0.6 0.8,1 0.1,0.4 0,0.9 -0.2,1.3 l -0.3,0.5 c -0.3,0.4 -0.6,0.7 -1,0.8 -0.4,0.1 -0.9,0 -1.3,-0.2 l -1.4,-0.8 0.2,-0.3 0.4,0.2 1.6,-2.7 -0.3,-0.3 0.2,-0.3 0.4,0.2 z m -0.8,0 -1.6,2.7 0.6,0.3 c 0.3,0.2 0.6,0.2 0.9,0.1 0.3,-0.1 0.6,-0.3 0.7,-0.6 l 0.3,-0.5 c 0.2,-0.3 0.2,-0.6 0.2,-1 -0.1,-0.3 -0.3,-0.6 -0.6,-0.8 z"
           class="st8" />
        <path
           id="svg_41"
           d="m 216.2,145.9 c 0.2,-0.4 0.5,-0.6 0.8,-0.8 0.3,-0.1 0.7,-0.1 1,0.1 0.4,0.2 0.6,0.5 0.6,0.9 0.1,0.4 0,0.7 -0.2,1.1 v 0.1 c -0.2,0.4 -0.5,0.6 -0.8,0.8 -0.3,0.1 -0.7,0.1 -1,-0.1 -0.4,-0.2 -0.6,-0.5 -0.6,-0.9 -0.1,-0.4 0,-0.8 0.2,-1.2 z m 0.5,0.3 c -0.2,0.3 -0.2,0.5 -0.2,0.8 0,0.2 0.1,0.4 0.4,0.6 0.2,0.1 0.4,0.1 0.7,0 0.2,-0.1 0.4,-0.3 0.6,-0.6 v -0.1 c 0.2,-0.3 0.2,-0.5 0.2,-0.8 0,-0.2 -0.1,-0.4 -0.4,-0.6 -0.2,-0.1 -0.4,-0.1 -0.7,0 -0.3,0.2 -0.5,0.4 -0.6,0.7 z"
           class="st8" />
        <path
           id="svg_42"
           d="m 219.5,149.1 c 0.2,0.1 0.3,0.1 0.5,0.1 0.2,0 0.3,-0.1 0.4,-0.2 l 0.4,0.2 v 0 c -0.1,0.2 -0.3,0.4 -0.6,0.4 -0.3,0.1 -0.6,0 -0.9,-0.2 -0.4,-0.2 -0.6,-0.5 -0.6,-0.9 -0.1,-0.4 0,-0.7 0.2,-1.1 l 0.1,-0.1 c 0.2,-0.4 0.5,-0.6 0.8,-0.7 0.3,-0.1 0.7,-0.1 1.1,0.1 0.2,0.1 0.4,0.3 0.5,0.4 0.1,0.1 0.2,0.3 0.2,0.5 l -0.3,0.6 -0.4,-0.2 0.1,-0.5 c 0,-0.1 -0.1,-0.2 -0.1,-0.3 -0.1,-0.1 -0.2,-0.2 -0.3,-0.2 -0.2,-0.1 -0.5,-0.2 -0.7,0 -0.2,0.1 -0.4,0.3 -0.5,0.6 l -0.1,0.1 c -0.2,0.3 -0.2,0.5 -0.2,0.7 0.1,0.4 0.2,0.6 0.4,0.7 z"
           class="st8" />
        <path
           id="svg_43"
           d="m 222.7,146.8 0.2,-0.3 0.9,0.5 -1.2,2.1 0.3,0.2 0.9,-0.4 -0.2,-0.2 0.2,-0.3 1.1,0.6 -0.2,0.3 -0.3,-0.1 -1.1,0.4 0.2,1.5 0.3,0.2 -0.2,0.3 -1.1,-0.6 0.2,-0.3 0.3,0.1 -0.2,-1.2 -0.3,-0.2 -0.5,0.8 0.3,0.3 -0.2,0.3 -1.2,-0.7 0.2,-0.3 0.4,0.2 1.7,-3 z"
           class="st8" />
        <path
           id="svg_44"
           d="m 224.8,152.7 c -0.4,-0.2 -0.6,-0.5 -0.6,-0.8 0,-0.3 0,-0.7 0.2,-1.1 l 0.1,-0.1 c 0.2,-0.4 0.5,-0.6 0.9,-0.7 0.4,-0.1 0.7,-0.1 1,0.1 0.3,0.2 0.5,0.5 0.6,0.8 0.1,0.3 0,0.6 -0.2,1 l -0.2,0.3 -1.7,-1 v 0 c -0.1,0.2 -0.2,0.5 -0.2,0.7 0,0.2 0.2,0.4 0.4,0.5 0.2,0.1 0.3,0.1 0.5,0.2 0.1,0 0.3,0 0.4,0 v 0.4 c -0.1,0 -0.3,0 -0.5,0 -0.2,0 -0.4,-0.2 -0.7,-0.3 z m 1.3,-2.4 c -0.2,-0.1 -0.3,-0.1 -0.5,0 -0.2,0.1 -0.4,0.2 -0.5,0.4 v 0 l 1.2,0.7 v -0.1 c 0.1,-0.2 0.1,-0.4 0.1,-0.5 0,-0.2 -0.1,-0.4 -0.3,-0.5 z"
           class="st8" />
        <path
           id="svg_45"
           d="m 227.6,151.2 0.2,-0.3 0.8,0.5 -0.2,0.4 c 0.1,-0.1 0.3,-0.1 0.4,-0.2 0.1,0 0.3,0 0.4,0.1 0,0 0.1,0 0.1,0.1 0,0 0.1,0.1 0.1,0.1 l -0.3,0.4 -0.3,-0.2 c -0.1,-0.1 -0.2,-0.1 -0.4,-0.1 -0.1,0 -0.2,0.1 -0.3,0.1 l -0.8,1.5 0.3,0.3 -0.2,0.3 -1.2,-0.7 0.2,-0.3 0.4,0.2 1.1,-1.8 z"
           class="st8" />
      </g>
      <g
         id="svg_46">
        <path
           id="svg_47"
           d="m 194,130.3 0.2,-0.3 0.9,0.5 -1.2,2.1 0.3,0.2 0.9,-0.4 -0.2,-0.2 0.2,-0.3 1.1,0.6 -0.2,0.3 -0.3,-0.1 -1.1,0.4 0.2,1.5 0.3,0.2 -0.2,0.3 -1.1,-0.6 0.2,-0.3 0.3,0.1 -0.2,-1.2 -0.3,-0.2 -0.5,0.8 0.3,0.3 -0.2,0.3 -1.2,-0.7 0.2,-0.3 0.4,0.2 1.7,-3 z"
           class="st8" />
        <path
           id="svg_48"
           d="m 197.1,136.1 c -0.2,0.1 -0.3,0.1 -0.5,0.1 -0.2,0 -0.3,0 -0.5,-0.1 -0.3,-0.2 -0.4,-0.4 -0.5,-0.6 -0.1,-0.3 0,-0.6 0.2,-1 l 0.7,-1.1 -0.3,-0.2 0.2,-0.3 0.3,0.2 0.5,0.3 -0.9,1.5 c -0.2,0.3 -0.2,0.5 -0.2,0.6 0,0.1 0.1,0.3 0.3,0.4 0.2,0.1 0.3,0.1 0.5,0.1 0.1,0 0.3,-0.1 0.4,-0.1 l 0.9,-1.5 -0.3,-0.3 0.2,-0.3 0.3,0.2 0.5,0.3 -1.3,2.2 0.3,0.2 -0.2,0.3 -0.7,-0.4 z"
           class="st8" />
        <path
           id="svg_49"
           d="m 201,137.3 c -0.2,0.4 -0.5,0.6 -0.8,0.7 -0.3,0.1 -0.6,0.1 -0.9,-0.1 -0.2,-0.1 -0.3,-0.2 -0.4,-0.3 -0.1,-0.1 -0.1,-0.3 -0.1,-0.5 l -0.2,0.3 -0.4,-0.2 1.9,-3.3 -0.3,-0.3 0.2,-0.3 0.9,0.5 -0.8,1.4 c 0.1,-0.1 0.3,-0.1 0.5,-0.1 0.2,0 0.3,0.1 0.5,0.2 0.3,0.2 0.5,0.5 0.5,0.8 0,0.3 -0.3,0.7 -0.6,1.2 z m -0.4,-0.4 c 0.2,-0.3 0.3,-0.6 0.3,-0.8 0,-0.2 -0.1,-0.4 -0.3,-0.6 -0.1,-0.1 -0.3,-0.1 -0.4,-0.1 -0.1,0 -0.3,0.1 -0.4,0.1 l -0.7,1.1 c 0,0.2 0,0.3 0.1,0.4 0.1,0.1 0.2,0.2 0.3,0.3 0.2,0.1 0.4,0.1 0.6,0 0.1,0.1 0.3,-0.1 0.5,-0.4 z"
           class="st8" />
        <path
           id="svg_50"
           d="m 202,139.4 c -0.4,-0.2 -0.6,-0.5 -0.6,-0.8 -0.1,-0.4 0,-0.7 0.2,-1.1 l 0.1,-0.1 c 0.2,-0.4 0.5,-0.6 0.9,-0.7 0.4,-0.1 0.7,-0.1 1,0.1 0.3,0.2 0.5,0.5 0.6,0.8 0.1,0.3 0,0.6 -0.2,1 l -0.2,0.3 -1.7,-1 v 0 c -0.1,0.2 -0.2,0.5 -0.2,0.7 0,0.2 0.2,0.4 0.4,0.5 0.2,0.1 0.3,0.1 0.5,0.2 0.1,0 0.3,0 0.4,0 v 0.4 c -0.1,0 -0.3,0 -0.5,0 -0.3,-0.1 -0.5,-0.1 -0.7,-0.3 z m 1.2,-2.3 c -0.2,-0.1 -0.3,-0.1 -0.5,0 -0.2,0.1 -0.3,0.2 -0.5,0.4 v 0 l 1.2,0.7 v -0.1 c 0.1,-0.2 0.1,-0.4 0.1,-0.5 0,-0.2 -0.1,-0.4 -0.3,-0.5 z"
           class="st8" />
        <path
           id="svg_51"
           d="m 205.3,136.8 0.2,-0.3 0.9,0.5 -1.9,3.3 0.3,0.3 -0.2,0.3 -1.2,-0.7 0.2,-0.3 0.4,0.2 1.7,-3 z"
           class="st8" />
        <path
           id="svg_52"
           d="m 206.1,141.8 c -0.4,-0.2 -0.6,-0.5 -0.6,-0.8 -0.1,-0.4 0,-0.7 0.2,-1.1 l 0.1,-0.1 c 0.2,-0.4 0.5,-0.6 0.9,-0.7 0.4,-0.1 0.7,-0.1 1,0.1 0.3,0.2 0.5,0.5 0.6,0.8 0.1,0.3 0,0.6 -0.2,1 l -0.2,0.3 -1.7,-1 v 0 c -0.1,0.2 -0.2,0.5 -0.2,0.7 0,0.2 0.2,0.4 0.4,0.5 0.2,0.1 0.3,0.1 0.5,0.2 0.1,0 0.3,0 0.4,0 v 0.4 c -0.1,0 -0.3,0 -0.5,0 -0.3,-0.1 -0.5,-0.2 -0.7,-0.3 z m 1.2,-2.3 c -0.2,-0.1 -0.3,-0.1 -0.5,0 -0.2,0.1 -0.3,0.2 -0.5,0.4 v 0 l 1.2,0.7 v -0.1 c 0.1,-0.2 0.1,-0.4 0.1,-0.5 0,-0.3 -0.1,-0.4 -0.3,-0.5 z"
           class="st8" />
        <path
           id="svg_53"
           d="m 210.2,139.9 -0.4,0.6 0.5,0.3 -0.2,0.3 -0.5,-0.3 -0.9,1.6 c -0.1,0.1 -0.1,0.2 -0.1,0.3 0,0.1 0.1,0.1 0.2,0.2 0,0 0.1,0 0.1,0.1 0.1,0 0.1,0 0.1,0.1 l -0.1,0.4 c -0.1,0 -0.1,0 -0.2,0 -0.1,0 -0.2,-0.1 -0.3,-0.1 -0.2,-0.1 -0.3,-0.3 -0.4,-0.4 0,-0.2 0,-0.4 0.1,-0.6 l 0.9,-1.6 -0.4,-0.2 0.2,-0.3 0.4,0.2 0.4,-0.6 z"
           class="st8" />
      </g>
      <polygon
         id="svg_54"
         points="111.4,234.7 147.1,214.1 182.7,234.7 182.7,275.9 147.1,296.4 111.4,275.9 "
         class="st16" />
      <polygon
         id="svg_55"
         points="129.3,224.4 147.1,214.1 182.7,234.7 182.7,255.3 "
         class="st13" />
      <polygon
         id="svg_56"
         points="163.5,226.9 157.4,237.4 179.9,250.4 179.9,236.3 "
         class="st7" />
      <g
         id="svg_57">
        <path
           id="svg_58"
           d="m 164.2,232.3 c 0.5,0.3 0.7,0.6 0.8,1 0.1,0.4 0,0.9 -0.2,1.3 l -0.3,0.5 c -0.3,0.4 -0.6,0.7 -1,0.8 -0.4,0.1 -0.9,0 -1.3,-0.2 l -1.4,-0.8 0.2,-0.3 0.4,0.2 1.6,-2.7 -0.3,-0.3 0.2,-0.3 0.4,0.2 z m -0.8,0 -1.6,2.7 0.6,0.3 c 0.3,0.2 0.6,0.2 0.9,0.1 0.3,-0.1 0.6,-0.3 0.7,-0.6 l 0.3,-0.5 c 0.2,-0.3 0.3,-0.6 0.2,-1 -0.1,-0.3 -0.3,-0.6 -0.6,-0.8 z"
           class="st8" />
        <path
           id="svg_59"
           d="m 164.9,235.6 c 0.2,-0.4 0.5,-0.6 0.8,-0.8 0.3,-0.1 0.7,-0.1 1,0.1 0.4,0.2 0.6,0.5 0.6,0.9 0.1,0.4 0,0.7 -0.2,1.1 v 0.1 c -0.2,0.4 -0.5,0.6 -0.8,0.8 -0.3,0.1 -0.7,0.1 -1,-0.1 -0.4,-0.2 -0.6,-0.5 -0.6,-0.9 -0.1,-0.4 0,-0.8 0.2,-1.2 z m 0.5,0.3 c -0.2,0.3 -0.2,0.5 -0.2,0.8 0,0.2 0.1,0.4 0.4,0.6 0.2,0.1 0.4,0.1 0.7,0 0.2,-0.1 0.4,-0.3 0.6,-0.6 v -0.1 c 0.2,-0.3 0.2,-0.5 0.2,-0.8 0,-0.2 -0.1,-0.4 -0.4,-0.6 -0.2,-0.1 -0.4,-0.1 -0.7,0 -0.2,0.2 -0.4,0.4 -0.6,0.7 z"
           class="st8" />
        <path
           id="svg_60"
           d="m 168.2,238.8 c 0.2,0.1 0.3,0.1 0.5,0.1 0.2,0 0.3,-0.1 0.4,-0.2 l 0.4,0.2 v 0 c -0.1,0.2 -0.3,0.4 -0.6,0.4 -0.3,0.1 -0.6,0 -0.9,-0.2 -0.4,-0.2 -0.6,-0.5 -0.6,-0.9 -0.1,-0.4 0,-0.7 0.2,-1.1 l 0.1,-0.1 c 0.2,-0.4 0.5,-0.6 0.8,-0.7 0.3,-0.1 0.7,-0.1 1.1,0.1 0.2,0.1 0.4,0.3 0.5,0.4 0.1,0.1 0.2,0.3 0.2,0.5 l -0.3,0.7 -0.4,-0.2 0.1,-0.5 c 0,-0.1 -0.1,-0.2 -0.1,-0.3 -0.1,-0.1 -0.2,-0.2 -0.3,-0.2 -0.2,-0.1 -0.5,-0.2 -0.7,0 -0.2,0.1 -0.4,0.3 -0.5,0.6 l -0.1,0.1 c -0.2,0.3 -0.2,0.5 -0.2,0.7 0.1,0.3 0.2,0.5 0.4,0.6 z"
           class="st8" />
        <path
           id="svg_61"
           d="m 171.4,236.5 0.2,-0.3 0.9,0.5 -1.2,2.1 0.3,0.2 0.9,-0.4 -0.2,-0.2 0.2,-0.3 1.1,0.6 -0.2,0.3 H 173 l -1.1,0.4 0.2,1.5 0.3,0.2 -0.2,0.3 -1.1,-0.6 0.2,-0.3 0.3,0.1 -0.2,-1.2 -0.3,-0.2 -0.5,0.8 0.3,0.3 -0.2,0.3 -1.2,-0.7 0.2,-0.3 0.4,0.2 1.7,-3 z"
           class="st8" />
        <path
           id="svg_62"
           d="m 173.6,242.4 c -0.4,-0.2 -0.6,-0.5 -0.6,-0.8 -0.1,-0.4 0,-0.7 0.2,-1.1 l 0.1,-0.1 c 0.2,-0.4 0.5,-0.6 0.9,-0.7 0.4,-0.1 0.7,-0.1 1,0.1 0.3,0.2 0.5,0.5 0.6,0.8 0.1,0.3 0,0.6 -0.2,1 l -0.2,0.3 -1.7,-1 v 0 c -0.1,0.2 -0.2,0.5 -0.2,0.7 0,0.2 0.2,0.4 0.4,0.5 0.2,0.1 0.3,0.1 0.5,0.2 0.2,0.1 0.3,0 0.4,0 v 0.4 c -0.1,0 -0.3,0 -0.5,0 -0.3,-0.1 -0.5,-0.2 -0.7,-0.3 z m 1.2,-2.4 c -0.2,-0.1 -0.3,-0.1 -0.5,0 -0.2,0.1 -0.4,0.2 -0.5,0.4 v 0 l 1.2,0.7 V 241 c 0.1,-0.2 0.1,-0.4 0.1,-0.5 0,-0.2 -0.1,-0.4 -0.3,-0.5 z"
           class="st8" />
        <path
           id="svg_63"
           d="m 176.3,240.9 0.2,-0.3 0.8,0.5 -0.2,0.4 c 0.1,-0.1 0.3,-0.1 0.4,-0.2 0.2,0 0.3,0 0.4,0.1 0,0 0.1,0 0.1,0.1 0,0 0.1,0.1 0.1,0.1 l -0.3,0.4 -0.3,-0.2 c -0.1,-0.1 -0.2,-0.1 -0.4,-0.1 -0.1,0 -0.2,0.1 -0.3,0.1 l -0.8,1.5 0.3,0.3 -0.2,0.3 -1.2,-0.7 0.2,-0.3 0.4,0.2 1.1,-1.8 z"
           class="st8" />
      </g>
      <g
         id="svg_64">
        <path
           id="svg_65"
           d="m 142.7,220 0.2,-0.3 0.9,0.5 -1.2,2.1 0.3,0.2 0.9,-0.4 -0.2,-0.2 0.2,-0.3 1.1,0.6 -0.2,0.3 -0.3,-0.1 -1.1,0.4 0.2,1.5 0.3,0.2 -0.2,0.3 -1.1,-0.6 0.2,-0.3 0.3,0.1 -0.2,-1.2 -0.3,-0.2 -0.5,0.8 0.3,0.3 -0.2,0.3 -1.2,-0.7 0.2,-0.3 0.4,0.2 1.7,-3 z"
           class="st8" />
        <path
           id="svg_66"
           d="m 145.8,225.8 c -0.2,0.1 -0.3,0.1 -0.5,0.1 -0.2,0 -0.3,0 -0.5,-0.1 -0.3,-0.2 -0.4,-0.4 -0.5,-0.6 -0.1,-0.2 0,-0.6 0.2,-1 l 0.7,-1.1 -0.3,-0.2 0.2,-0.3 0.3,0.2 0.5,0.3 -0.9,1.5 c -0.2,0.3 -0.2,0.5 -0.2,0.6 0,0.1 0.1,0.3 0.3,0.4 0.2,0.1 0.3,0.1 0.5,0.1 0.1,0 0.3,-0.1 0.4,-0.1 l 0.9,-1.5 -0.3,-0.3 0.2,-0.3 0.3,0.2 0.5,0.3 -1.3,2.2 0.3,0.2 -0.2,0.3 -0.7,-0.4 z"
           class="st8" />
        <path
           id="svg_67"
           d="m 149.8,227 c -0.2,0.4 -0.5,0.6 -0.8,0.7 -0.3,0.1 -0.6,0.1 -0.9,-0.1 -0.2,-0.1 -0.3,-0.2 -0.4,-0.3 -0.1,-0.1 -0.1,-0.3 -0.1,-0.5 l -0.2,0.3 -0.4,-0.2 1.9,-3.3 -0.3,-0.3 0.2,-0.3 0.9,0.5 -0.8,1.4 c 0.1,-0.1 0.3,-0.1 0.5,-0.1 0.2,0 0.3,0.1 0.5,0.2 0.3,0.2 0.5,0.5 0.5,0.8 -0.3,0.3 -0.4,0.7 -0.6,1.2 z m -0.5,-0.4 c 0.2,-0.3 0.3,-0.6 0.3,-0.8 0,-0.2 -0.1,-0.4 -0.3,-0.6 -0.1,-0.1 -0.3,-0.1 -0.4,-0.1 -0.1,0 -0.3,0.1 -0.4,0.1 l -0.7,1.1 c 0,0.2 0,0.3 0.1,0.4 0.1,0.1 0.2,0.2 0.3,0.3 0.2,0.1 0.4,0.1 0.6,0 0.2,0.1 0.3,0 0.5,-0.4 z"
           class="st8" />
        <path
           id="svg_68"
           d="m 150.7,229.1 c -0.4,-0.2 -0.6,-0.5 -0.6,-0.8 -0.1,-0.4 0,-0.7 0.2,-1.1 l 0.1,-0.1 c 0.2,-0.4 0.5,-0.6 0.9,-0.7 0.4,-0.1 0.7,-0.1 1,0.1 0.3,0.2 0.5,0.5 0.6,0.8 0.1,0.3 0,0.6 -0.2,1 l -0.2,0.3 -1.7,-1 v 0 c -0.1,0.2 -0.2,0.5 -0.2,0.7 0,0.2 0.2,0.4 0.4,0.5 0.2,0.1 0.3,0.1 0.5,0.2 0.1,0 0.3,0 0.4,0 v 0.4 c -0.1,0 -0.3,0 -0.5,0 -0.3,-0.1 -0.5,-0.1 -0.7,-0.3 z m 1.2,-2.3 c -0.2,-0.1 -0.3,-0.1 -0.5,0 -0.2,0.1 -0.4,0.2 -0.5,0.4 v 0 l 1.2,0.7 v -0.1 c 0.1,-0.2 0.1,-0.4 0.1,-0.5 0,-0.2 -0.1,-0.4 -0.3,-0.5 z"
           class="st8" />
        <path
           id="svg_69"
           d="m 154,226.5 0.2,-0.3 0.9,0.5 -1.9,3.3 0.3,0.3 -0.2,0.3 -1.2,-0.7 0.2,-0.3 0.4,0.2 1.7,-3 z"
           class="st8" />
        <path
           id="svg_70"
           d="m 154.8,231.5 c -0.4,-0.2 -0.6,-0.5 -0.6,-0.8 -0.1,-0.4 0,-0.7 0.2,-1.1 l 0.1,-0.1 c 0.2,-0.4 0.5,-0.6 0.9,-0.7 0.4,-0.1 0.7,-0.1 1,0.1 0.3,0.2 0.5,0.5 0.6,0.8 0.1,0.3 0,0.6 -0.2,1 l -0.2,0.3 -1.7,-1 v 0 c -0.1,0.2 -0.2,0.5 -0.2,0.7 0,0.2 0.2,0.4 0.4,0.5 0.2,0.1 0.3,0.1 0.5,0.2 0.1,0 0.3,0 0.4,0 v 0.4 c -0.1,0 -0.3,0 -0.5,0 -0.3,-0.1 -0.5,-0.1 -0.7,-0.3 z m 1.3,-2.3 c -0.2,-0.1 -0.3,-0.1 -0.5,0 -0.2,0.1 -0.4,0.2 -0.5,0.4 v 0 l 1.2,0.7 v -0.1 c 0.1,-0.2 0.1,-0.4 0.1,-0.5 0,-0.2 -0.1,-0.4 -0.3,-0.5 z"
           class="st8" />
        <path
           id="svg_71"
           d="m 158.9,229.6 -0.4,0.6 0.5,0.3 -0.2,0.3 -0.5,-0.3 -0.9,1.6 c -0.1,0.1 -0.1,0.2 -0.1,0.3 0,0.1 0.1,0.1 0.2,0.2 0,0 0.1,0 0.1,0.1 0.1,0 0.1,0 0.1,0.1 l -0.1,0.4 c -0.1,0 -0.1,0 -0.2,0 -0.1,0 -0.2,-0.1 -0.3,-0.1 -0.2,-0.1 -0.3,-0.3 -0.4,-0.4 0,-0.2 0,-0.4 0.1,-0.6 l 0.9,-1.6 -0.4,-0.2 0.2,-0.3 0.4,0.2 0.4,-0.6 z"
           class="st8" />
      </g>
    </g>
    <g
       id="service" />
    <g
       id="pods" />
    <g
       id="IP" />
    <g
       id="deployments" />
    <g
       id="containers_x2F_volumes" />
    <g
       id="labels_x2F_selectors" />
    <g
       id="Layer_14" />
  </g>
  <text
     xml:space="preserve"
     style="font-style:normal;font-variant:normal;font-weight:normal;font-stretch:normal;font-size:13.3333px;line-height:1.25;font-family:Courier;-inkscape-font-specification:'Courier, Normal';font-variant-ligatures:normal;font-variant-caps:normal;font-variant-numeric:normal;font-variant-east-asian:normal"
     x="354.17346"
     y="198.82574"
     id="text171"><tspan
       id="tspan169"
       x="354.17346"
       y="198.82574">Control Plane</tspan></text>
  <text
     xml:space="preserve"
     style="font-size:13.3333px;line-height:1.25;font-family:Courier;-inkscape-font-specification:'Courier, Normal'"
     x="364.43982"
     y="122.11347"
     id="text175"><tspan
       id="tspan173"
       x="364.43982"
       y="122.11347">Node</tspan></text>
  <text
     xml:space="preserve"
     style="font-size:13.3333px;line-height:1.25;font-family:Courier;-inkscape-font-specification:'Courier, Normal'"
     x="354.85016"
     y="232.48218"
     id="text179"><tspan
       id="tspan177"
       x="354.85016"
       y="232.48218">Node Processes</tspan></text>
</svg>
