<svg id="Layer_1" data-name="Layer 1" xmlns="http://www.w3.org/2000/svg" viewBox="0 0 215 127"><defs><style>.cls-1{fill:transparent;}.cls-2{fill:#0071f7;}</style></defs><title>kubernetes.io-logos</title><rect class="cls-1" x="-3.55202" y="-3.16104" width="223.25536" height="134.51136"/><path class="cls-2" d="M174.27862,87.85821a5.22494,5.22494,0,0,1-.67887,7.12815,5.66277,5.66277,0,0,1-7.46759-.67888l-11.88024-15.2746L142.71111,93.968c-1.69718,2.37606-5.09153,2.37606-7.46758.67888a4.96011,4.96011,0,0,1-1.01831-7.12815l13.57742-17.65065L134.22522,52.21747a5.32925,5.32925,0,0,1,8.48589-6.44927l11.54081,15.2746,11.88024-14.59574c1.69718-2.376,4.75211-2.71548,7.46759-1.0183,2.376,1.69717,2.376,5.09153.67887,7.46758l-13.238,17.31121Zm-61.77727-2.03662a15.64926,15.64926,0,0,1-15.95348-15.614,15.95716,15.95716,0,0,1,31.907,0A16.08546,16.08546,0,0,1,112.50135,85.82159Zm-46.84212,0a15.64926,15.64926,0,0,1-15.95347-15.614,15.95716,15.95716,0,0,1,31.907,0A15.64926,15.64926,0,0,1,65.65923,85.82159Zm46.84212-41.41114A26.28086,26.28086,0,0,0,89.41973,57.98787,26.42342,26.42342,0,0,0,65.99867,44.41045,27.90043,27.90043,0,0,0,50.0452,49.502V27.77811a5.22038,5.22038,0,0,0-5.09153-5.09154,5.297,5.297,0,0,0-5.431,5.09154V70.547A26.00829,26.00829,0,0,0,65.65923,96.00466,26.718,26.718,0,0,0,89.08029,82.0878a26.58818,26.58818,0,0,0,23.08162,13.91686,26.22192,26.22192,0,0,0,26.476-26.13654C138.97732,55.95126,127.09708,44.41045,112.50135,44.41045Z"/></svg>