<svg id="Layer_1" data-name="Layer 1" xmlns="http://www.w3.org/2000/svg" viewBox="0 0 215 127"><defs><style>.cls-1{fill:transparent;}.cls-2{fill:#6c0;}</style></defs><title>kubernetes.io-logos2</title><rect class="cls-1" x="-3.35417" y="-2.26418" width="223.25536" height="134.51136"/><path class="cls-2" d="M55.43477,39.86952,43.85324,75.22367l-4.90852-16.3938h-7.86l9.015,25.9221H48.473L64.22519,39.86952ZM25.53453,75.22368,19.98437,58.82987H12.02809l9.015,26.01835h9.1754L33.84371,73.78,29.86557,62.23055Zm95.44338-4.74812,12.7044-11.70985h-10.587l-8.18086,7.66755V47.12h-7.47506V84.752h7.5713V74.38955L125.14854,84.752H135.2864Zm-16.13716-3.914a6.62431,6.62431,0,0,0-3.59316-.67372,5.4975,5.4975,0,0,0-4.17064,1.957,9.22462,9.22462,0,0,0-1.31536,5.42183V84.752h-7.86V58.82987H95.7616v3.68941h.09625a6.86333,6.86333,0,0,1,6.44844-4.17063,5.54685,5.54685,0,0,1,2.59863.51331ZM71.02653,85.48986c-8.245,0-14.4689-5.19726-14.4689-13.5706s6.25595-13.5706,14.4689-13.5706,14.4689,5.16517,14.4689,13.63476S79.30364,85.48986,71.02653,85.48986Zm0-20.4682c-3.68941,0-5.93514,2.91944-5.93514,6.76926s2.18157,6.76926,5.93514,6.76926,5.93513-2.91944,5.93513-6.76926-2.18156-6.80135-5.93513-6.80135ZM201.15034,84.752h-8.02045l-.16041-2.66279a9.90263,9.90263,0,0,1-7.41089,3.33651c-4.58769,0-9.46413-2.4703-9.46413-8.30919s5.32557-7.7638,10.13784-7.98837l6.5447-.25665V68.294c0-2.759-1.957-4.20272-5.35767-4.20272a16.74679,16.74679,0,0,0-7.98837,2.342l-2.21366-5.51808a26.05948,26.05948,0,0,1,11.06823-2.59863c4.87644,0,7.66756,1.12286,9.72078,3.04777,2.05324,1.957,3.04777,4.45937,3.04777,8.85458Zm-8.40543-11.357-4.17064.25665c-2.59862.09624-4.13856,1.25119-4.13856,3.1761s1.63616,3.20818,3.97815,3.20818a5.198,5.198,0,0,0,4.33105-2.374ZM175.902,58.79779,165.18663,84.7199h-7.73171L146.80375,58.7978h8.75833l5.903,16.3938,5.8389-16.42589ZM144.558,84.752h-8.43752V58.82987H144.558ZM136.1526,56.68039V47.08793h10.33034Zm65.79979,2.14948a1.81539,1.81539,0,1,0-.06417-.06416h-.06417Zm0-4.7481a2.19766,2.19766,0,1,0,2.18156,2.21364,2.14955,2.14955,0,0,0-2.11739-2.18156h0Zm1.2191,3.68941h-.7058l-.64164-1.21911h-.32081v1.21911h-.60957V54.72341h1.15494c.67371,0,1.0587.3529,1.0587.89828a.83236.83236,0,0,1-.60957.86621Zm-1.34744-2.47031h-.35289V56.135h.35289c.28875,0,.5454,0,.5454-.385s-.19248-.48123-.5133-.48123Z"/></svg>