<?xml version="1.0" encoding="UTF-8" standalone="no"?>
<svg
   xmlns:dc="http://purl.org/dc/elements/1.1/"
   xmlns:cc="http://creativecommons.org/ns#"
   xmlns:rdf="http://www.w3.org/1999/02/22-rdf-syntax-ns#"
   xmlns:svg="http://www.w3.org/2000/svg"
   xmlns="http://www.w3.org/2000/svg"
   xmlns:xlink="http://www.w3.org/1999/xlink"
   xmlns:sodipodi="http://sodipodi.sourceforge.net/DTD/sodipodi-0.dtd"
   xmlns:inkscape="http://www.inkscape.org/namespaces/inkscape"
   inkscape:version="1.0beta2 (2b71d25, 2019-12-03)"
   sodipodi:docname="module_04_services.svg"
   id="svg209"
   version="1.1"
   height="440.3999999999999"
   width="394">
  <metadata
     id="metadata215">
    <rdf:RDF>
      <cc:Work
         rdf:about="">
        <dc:format>image/svg+xml</dc:format>
        <dc:type
           rdf:resource="http://purl.org/dc/dcmitype/StillImage" />
      </cc:Work>
    </rdf:RDF>
  </metadata>
  <defs
     id="defs213" />
  <sodipodi:namedview
     inkscape:current-layer="g207"
     inkscape:window-maximized="0"
     inkscape:window-y="460"
     inkscape:window-x="856"
     inkscape:cy="290.01311"
     inkscape:cx="140.83457"
     inkscape:zoom="1.9050863"
     showgrid="false"
     id="namedview211"
     inkscape:window-height="480"
     inkscape:window-width="676"
     inkscape:pageshadow="2"
     inkscape:pageopacity="0"
     guidetolerance="10"
     gridtolerance="10"
     objecttolerance="10"
     borderopacity="1"
     inkscape:document-rotation="0"
     bordercolor="#666666"
     pagecolor="#ffffff" />
  <style
     id="style10"
     type="text/css">.st0{fill:#FFFFFF;stroke:#326DE6;stroke-width:2;stroke-linecap:round;stroke-linejoin:round;stroke-miterlimit:10;}
	.st1{opacity:0.71;fill:#326CE6;}
	.st2{opacity:0.45;fill:#FFFFFF;}
	.st3{fill:#FFFFFF;stroke:#006DE9;stroke-width:2;stroke-linecap:round;stroke-linejoin:round;stroke-miterlimit:10;}
	.st4{fill:#006DE9;}
	.st5{fill:#A0CAEA;}
	.st6{fill:#FFFFFF;}
	.st7{opacity:0.13;}
	.st8{fill:url(#SVGID_1_);}
	.st9{fill:url(#SVGID_2_);}
	.st10{fill:#FFFFFF;stroke:#006DE9;stroke-linecap:round;stroke-linejoin:round;stroke-miterlimit:10;}
	.st11{fill:#FFFFFF;stroke:#006DE9;stroke-width:6;stroke-linecap:round;stroke-linejoin:round;stroke-miterlimit:10;}
	.st12{fill:#FFFFFF;stroke:#326DE6;stroke-width:3.2;stroke-linecap:round;stroke-linejoin:round;stroke-miterlimit:10;}
	.st13{fill:#326DE6;}
	.st14{fill:none;stroke:#326DE6;stroke-width:2.4;stroke-miterlimit:10;}
	.st15{fill:#A0CAE9;}
	.st16{fill:#FFFFFF;stroke:#326DE6;stroke-width:1.6;stroke-linecap:round;stroke-linejoin:round;stroke-miterlimit:10;}
	.st17{fill:#FFFFFF;stroke:#326DE6;stroke-width:1.6;stroke-miterlimit:10;}
	.st18{fill:none;stroke:#06F7C9;stroke-width:2;stroke-miterlimit:10;}
	.st19{fill:none;stroke:#06F7C9;stroke-width:2;stroke-miterlimit:10;stroke-dasharray:2.3749,1.5832;}
	.st20{fill:none;stroke:#06F7C9;stroke-width:2;stroke-miterlimit:10;stroke-dasharray:2.4006,1.6004;}
	.st21{fill:none;stroke:#EEF406;stroke-width:2;stroke-miterlimit:10;stroke-dasharray:2.4,1.6;}
	.st22{fill:none;stroke:#EEF406;stroke-width:2;stroke-miterlimit:10;}
	.st23{fill:none;stroke:#EEF406;stroke-width:2;stroke-miterlimit:10;stroke-dasharray:2.3975,1.5984;}
	.st24{fill:none;stroke:#EEF406;stroke-width:2;stroke-miterlimit:10;stroke-dasharray:2.395,1.5966;}
	.st25{fill:none;stroke:#EEF406;stroke-width:2;stroke-miterlimit:10;stroke-dasharray:2.3963,1.5976;}
	.st26{opacity:0.1;fill:#EEF406;}
	.st27{opacity:2.000000e-02;fill:#EEF406;}
	.st28{opacity:0.1;fill:#06F7C9;}
	.st29{fill:none;stroke:#006DE9;stroke-width:0.8;stroke-miterlimit:10;}
	.st30{opacity:0.1;fill:url(#SVGID_3_);}
	.st31{opacity:0.1;fill:url(#SVGID_4_);}
	.st32{opacity:0.1;fill:url(#SVGID_5_);}
	.st33{opacity:0.1;fill:url(#SVGID_6_);}
	.st34{fill:none;stroke:#326DE6;stroke-width:1.2;stroke-miterlimit:10;}
	.st35{opacity:0.1;fill:url(#SVGID_7_);}
	.st36{opacity:0.1;fill:url(#SVGID_8_);}
	.st37{opacity:0.1;fill:url(#SVGID_9_);}
	.st38{opacity:0.1;fill:url(#SVGID_10_);}
	.st39{fill:none;stroke:#326DE6;stroke-width:2;stroke-miterlimit:10;}
	.st40{opacity:0.4;fill:none;stroke:#EEF406;stroke-width:2;stroke-miterlimit:10;}
	.st41{fill:none;stroke:#EEF406;stroke-width:2.4596;stroke-miterlimit:10;}
	.st42{fill:#011F38;}
	.st43{opacity:0.4;}
	.st44{opacity:0.1;}
	.st45{fill:#326DE6;stroke:#EEF406;stroke-width:2;stroke-miterlimit:10;}
	.st46{fill:none;stroke:#FFFFFF;stroke-width:1.2;stroke-linecap:round;stroke-linejoin:round;}
	.st47{fill:#06F7C9;stroke:#FFFFFF;stroke-width:0.3;stroke-linecap:round;stroke-linejoin:round;stroke-miterlimit:10;}
	.st48{fill:none;stroke:#011F38;stroke-width:1.2;stroke-linecap:round;stroke-linejoin:round;}
	.st49{fill:#326DE6;stroke:#06F7C9;stroke-width:2;stroke-miterlimit:10;}
	.st50{fill:#06F7C9;stroke:#011F38;stroke-width:0.8;stroke-linecap:round;stroke-linejoin:round;stroke-miterlimit:10;}
	.st51{fill:#8115FF;stroke:#011F38;stroke-width:0.8;stroke-linecap:round;stroke-linejoin:round;stroke-miterlimit:10;}
	.st52{opacity:0.3;}
	.st53{opacity:0.2;fill:#6D6E71;}
	.st54{fill:#EEF406;}
	.st55{fill:#06F7C9;}
	.st56{fill:#FFFFFF;stroke:#06F7C9;stroke-width:2;stroke-miterlimit:10;stroke-dasharray:2.4,1.6;}
	.st57{fill:#FFFFFF;stroke:#EEF406;stroke-width:1.6;stroke-miterlimit:10;stroke-dasharray:2.4,1.6;}
	.st58{fill:none;stroke:#06F7C9;stroke-width:2;stroke-miterlimit:10;stroke-dasharray:2.4938,1.6626;}
	.st59{fill:none;stroke:#06F7C9;stroke-width:2;stroke-miterlimit:10;stroke-dasharray:2.0084,1.3389;}
	.st60{fill:none;stroke:#06F7C9;stroke-width:2;stroke-miterlimit:10;stroke-dasharray:2.724,1.816;}
	.st61{fill:#011F38;stroke:#414042;stroke-width:0.3;stroke-linecap:round;stroke-linejoin:round;stroke-miterlimit:10;}
	.st62{fill:none;stroke:#011F38;stroke-width:0.3;stroke-linecap:round;stroke-linejoin:round;stroke-miterlimit:10;}
	.st63{fill:none;stroke:#011F38;stroke-width:0.2813;stroke-linecap:round;stroke-linejoin:round;stroke-miterlimit:10;}</style>
  <symbol
     viewBox="-81 -93 162 186.1"
     id="node_high_level">
    <polygon
       id="svg_1"
       points="-80,-46 -80,46 0,92 80,46 80,-46 0,-92  "
       class="st0" />
    <g
       id="Isolation_Mode_3_" />
  </symbol>
  <symbol
     viewBox="-87.5 -100.6 175.1 201.1"
     id="node_x5F_empty">
    <use
       transform="matrix(1.0808,0,0,1.0808,-0.00003292006,-0.00003749943) "
       y="-93"
       x="-81"
       id="XMLID_201_"
       height="186.1"
       width="162"
       xlink:href="#node_high_level" />
    <g
       id="svg_2">
      <polygon
         id="svg_3"
         points="76.8,-28.1 -14,-80.3 0,-88.3 76.7,-44.4   "
         class="st1" />
      <polygon
         id="svg_4"
         points="76.8,-28.1 32.1,-53.8 38.8,-66.1 76.7,-44.4   "
         class="st2" />
    </g>
  </symbol>
  <symbol
     viewBox="-87.6 -101 175.2 202"
     id="node_x5F_new">
    <polygon
       id="svg_5"
       points="0,-100 -86.6,-50 -86.6,50 0,100 86.6,50 86.6,-50  "
       class="st3" />
    <polygon
       id="svg_6"
       points="-86.6,-20.2 -86.6,-50 0,-100 25.8,-85.1  "
       class="st4" />
    <polygon
       id="svg_7"
       points="-40.8,-70.7 -32.9,-57 15.7,-85.1 0,-94.3  "
       class="st5" />
    <text
       id="svg_8"
       font-family="'RobotoSlab-Regular'"
       font-size="11.3632px"
       class="st6"
       transform="matrix(0.866,-0.5,-0.5,-0.866,-33.9256,-70.7388) ">Docker</text>
    <text
       id="svg_9"
       font-family="'RobotoSlab-Regular'"
       font-size="11.3632px"
       class="st6"
       transform="matrix(0.866,-0.5,-0.5,-0.866,-76.0668,-46.4087) ">Kubelt</text>
  </symbol>
  <g
     id="g207">
    <title
       id="title26">Layer 1</title>
    <g
       id="CLUSTER" />
    <g
       id="master">
      <g
         id="master_x5F_level1" />
      <polygon
         id="svg_10"
         points="130.9,265.9 106.7,235.6 115.3,197.8 150.2,181 185.1,197.8 193.8,235.6 169.6,265.9  "
         class="st12" />
    </g>
    <g
       id="Node">
      <g
         id="Node_x5F_level3_x5F_1">
        <g
           id="Isolation_Mode" />
      </g>
      <g
         id="svg_11">
        <polygon
           id="svg_12"
           points="214.87819382548332,179.8000030517578 156.7781877219677,146.1999969482422 156.7781877219677,79.0999984741211 214.87819382548332,45.599998474121094 272.9781083762646,79.0999984741211 272.9781083762646,146.1999969482422 "
           class="st17" />
      </g>
      <g
         id="svg_13">
        <polygon
           id="svg_14"
           points="87.67815110087395,179.6999969482422 29.67817398905754,146.10000610351562 29.67817398905754,79.0999984741211 87.67815110087395,45.5 145.7781877219677,79.0999984741211 145.7781877219677,146.10000610351562 "
           class="st17" />
      </g>
      <g
         id="svg_15">
        <polygon
           id="svg_16"
           points="87.67815110087395,401.3999938964844 29.67817398905754,367.8999938964844 29.67817398905754,300.79998779296875 87.67815110087395,267.20001220703125 145.7781877219677,300.79998779296875 145.7781877219677,367.8999938964844 "
           class="st17" />
      </g>
    </g>
    <g
       id="service">
      <g
         id="svg_17">
        <g
           id="svg_18">
          <path
             id="svg_19"
             d="m86.47817,154.7c0.4,0 0.8,0 1.2,0l0,0l1.2,0"
             class="st18" />
          <line
             id="svg_20"
             y2="154.7"
             x2="236.17817"
             y1="154.7"
             x1="90.47817"
             class="st19" />
          <path
             id="svg_21"
             d="m236.97817,154.7l1.2,0l0,0c0.4,0 0.8,0 1.2,0"
             class="st18" />
          <path
             id="svg_22"
             d="m240.97817,154.7c24.1,-1.5 43.3,-21.5 43.3,-46c0,-25.4 -20.7,-46.1 -46.1,-46.1l-150.5,0c-25.4,0 -46.1,20.7 -46.1,46.1c0,24.8 19.6,45 44.1,46.1"
             class="st20" />
        </g>
      </g>
      <path
         id="svg_23"
         d="m87.07817,384.5c-25.4,0 -46.1,-20.7 -46.1,-46.1c0,-25.4 20.7,-46.1 46.1,-46.1s46.1,20.7 46.1,46.1c0,25.4 -20.7,46.1 -46.1,46.1z"
         class="st21" />
    </g>
    <g
       id="pods">
      <circle
         id="svg_24"
         r="34.1"
         cy="338.3"
         cx="87.07817"
         class="st26" />
      <circle
         id="svg_25"
         r="34.1"
         cy="338.3"
         cx="87.07817"
         class="st22" />
      <circle
         id="svg_26"
         r="20.5"
         cy="108.6"
         cx="191.67817"
         class="st28" />
      <circle
         id="svg_27"
         r="20.5"
         cy="108.6"
         cx="238.17817"
         class="st28" />
      <circle
         id="svg_28"
         r="34.1"
         cy="108.6"
         cx="87.67817"
         class="st28" />
      <circle
         id="svg_29"
         r="20.5"
         cy="108.6"
         cx="191.67817"
         class="st18" />
      <circle
         id="svg_30"
         r="20.5"
         cy="108.6"
         cx="238.17817"
         class="st18" />
      <circle
         id="svg_31"
         r="34.1"
         cy="108.6"
         cx="87.67817"
         class="st18" />
    </g>
    <g
       id="IP">
      <g
         id="svg_32">
        <path
           id="svg_33"
           d="m39.27817,313.2l-0.4,0.9l-0.9,-0.2c-0.1,0.1 -0.3,0.2 -0.4,0.4c-0.1,0.2 -0.3,0.4 -0.4,0.6c-0.2,0.3 -0.2,0.6 -0.2,0.9s0.2,0.4 0.4,0.5c0.2,0.1 0.4,0.1 0.7,0c0.2,-0.1 0.5,-0.4 0.9,-0.8c0.5,-0.6 1,-1 1.5,-1.2s1,-0.2 1.5,0c0.5,0.2 0.8,0.7 1,1.2c0.1,0.6 0,1.2 -0.3,1.9c-0.2,0.5 -0.5,0.9 -0.9,1.2s-0.7,0.5 -1.1,0.7l-1.3,-0.6l0.5,-1l0.9,0.3c0.2,-0.1 0.3,-0.2 0.5,-0.4c0.2,-0.2 0.3,-0.4 0.4,-0.7c0.2,-0.3 0.2,-0.6 0.2,-0.9c-0.1,-0.2 -0.2,-0.4 -0.4,-0.5c-0.2,-0.1 -0.5,-0.1 -0.7,0c-0.2,0.1 -0.5,0.3 -0.8,0.7c-0.6,0.6 -1.1,1.1 -1.5,1.3c-0.5,0.2 -1,0.2 -1.5,0c-0.5,-0.2 -0.8,-0.6 -0.9,-1.2c-0.1,-0.6 0,-1.2 0.3,-1.8c0.2,-0.5 0.5,-0.9 0.8,-1.2c0.3,-0.3 0.7,-0.6 1,-0.7l1.1,0.6z"
           class="st42" />
        <path
           id="svg_34"
           d="m45.07817,312.7c-0.4,0.6 -0.9,1 -1.5,1.1c-0.6,0.1 -1.2,0 -1.9,-0.4l-0.2,-0.1c-0.6,-0.4 -1.1,-0.9 -1.3,-1.5c-0.2,-0.6 -0.1,-1.2 0.2,-1.8c0.4,-0.6 0.8,-0.9 1.4,-1c0.5,-0.1 1.1,0 1.7,0.4l0.6,0.4l-1.6,2.6l0,0c0.3,0.2 0.6,0.2 0.9,0.1c0.3,-0.1 0.5,-0.2 0.7,-0.5c0.2,-0.3 0.3,-0.5 0.3,-0.7s0.1,-0.4 0.1,-0.7l0.9,0.1c0,0.3 0,0.6 -0.1,0.9c0.2,0.4 0,0.7 -0.2,1.1zm-3.7,-2.1c-0.1,0.2 -0.2,0.4 -0.1,0.7s0.3,0.4 0.5,0.6l0,0l0.9,-1.4l-0.1,-0.1c-0.2,-0.2 -0.5,-0.2 -0.7,-0.2s-0.3,0.2 -0.5,0.4z"
           class="st42" />
        <path
           id="svg_35"
           d="m45.77817,309.9l0.3,-0.6l-2.5,-1.9l-0.5,0.5l-0.7,-0.5l1.2,-1.6l0.6,0.4c-0.1,-0.3 -0.2,-0.5 -0.2,-0.7s0.1,-0.5 0.2,-0.7c0,-0.1 0.1,-0.1 0.1,-0.2c0.1,-0.1 0.1,-0.1 0.2,-0.1l0.9,0.9l-0.3,0.4c-0.1,0.2 -0.2,0.3 -0.2,0.5c0,0.2 0,0.3 0.1,0.4l2,1.5l0.5,-0.4l0.7,0.5l-1.6,2.2l-0.8,-0.6z"
           class="st42" />
        <path
           id="svg_36"
           d="m46.97817,302.8l-0.3,0.4l2.1,1l0.4,0.3l0,0l-0.3,-0.4l-1.2,-2l-0.4,0.3l-0.6,-0.6l1.5,-1.7l0.6,0.6l-0.2,0.4l2.1,3.9l-0.9,1l-4.1,-1.7l-0.3,0.3l-0.6,-0.6l1.5,-1.7l0.7,0.5z"
           class="st42" />
        <path
           id="svg_37"
           d="m49.47817,297.4l-1,0.9l-0.7,-0.7l1,-0.9l0.7,0.7zm2.2,5.4l0.4,-0.6l-2.2,-2.3l-0.6,0.4l-0.6,-0.6l1.5,-1.4l2.8,3l0.6,-0.3l0.6,0.6l-2,1.8l-0.5,-0.6z"
           class="st42" />
        <path
           id="svg_38"
           d="m55.77817,299c0.2,-0.2 0.3,-0.3 0.3,-0.5c0,-0.2 0,-0.4 -0.2,-0.6l1,-0.8l0,0c0.3,0.4 0.5,0.8 0.4,1.4c-0.1,0.5 -0.4,1 -0.8,1.3c-0.6,0.5 -1.2,0.7 -1.8,0.5c-0.6,-0.1 -1.2,-0.5 -1.6,-1.1l-0.1,-0.1c-0.5,-0.6 -0.7,-1.2 -0.7,-1.8c0,-0.6 0.3,-1.2 0.9,-1.7c0.3,-0.3 0.6,-0.4 1,-0.5c0.3,-0.1 0.6,-0.1 1,-0.1l0.9,1l-0.9,0.7l-0.7,-0.5c-0.1,0 -0.2,0 -0.3,0s-0.2,0.1 -0.3,0.2c-0.3,0.2 -0.4,0.5 -0.4,0.8c0.1,0.3 0.2,0.7 0.5,1l0.1,0.1c0.3,0.4 0.6,0.6 0.9,0.7c0.2,0.3 0.5,0.3 0.8,0z"
           class="st42" />
        <path
           id="svg_39"
           d="m60.37817,297c-0.6,0.4 -1.2,0.5 -1.9,0.4c-0.6,-0.2 -1.1,-0.5 -1.5,-1.1l-0.1,-0.2c-0.4,-0.6 -0.6,-1.3 -0.5,-1.9s0.4,-1.1 1,-1.5c0.6,-0.4 1.1,-0.5 1.7,-0.4c0.5,0.1 1,0.5 1.4,1.1l0.4,0.6l-2.5,1.7l0,0c0.2,0.3 0.4,0.4 0.7,0.5c0.3,0.1 0.6,0 0.9,-0.2c0.3,-0.2 0.4,-0.3 0.6,-0.5c0.1,-0.2 0.3,-0.4 0.4,-0.6l0.8,0.5c-0.1,0.3 -0.2,0.5 -0.5,0.8c-0.3,0.3 -0.6,0.6 -0.9,0.8zm-2.4,-3.5c-0.2,0.1 -0.3,0.3 -0.3,0.6c0,0.2 0,0.5 0.2,0.8l0,0l1.4,-0.9l-0.1,-0.1c-0.2,-0.2 -0.3,-0.4 -0.6,-0.5c-0.2,-0.1 -0.4,0 -0.6,0.1z"
           class="st42" />
        <path
           id="svg_40"
           d="m63.97817,293.7l0.4,-0.3l-0.5,-6.3l1.3,-0.6l4.3,4.6l0.5,-0.1l0.3,0.8l-2.1,0.9l-0.3,-0.8l0.4,-0.3l-0.7,-0.7l-2,0.9l0.1,1l0.5,-0.1l0.3,0.8l-2.1,0.9l-0.4,-0.7zm1.4,-2.8l1.4,-0.6l-1.7,-1.9l0,0l0.3,2.5z"
           class="st42" />
        <path
           id="svg_41"
           d="m74.77817,289.7l1.1,-0.4l-1,-4.5l-1.1,0.2l-0.2,-0.8l2.4,-1l1.2,5.7l1.2,-0.1l0.2,0.8l-3.6,0.8l-0.2,-0.7z"
           class="st42" />
        <path
           id="svg_42"
           d="m83.37817,286.4c0.1,0.9 0,1.6 -0.4,2.1c-0.4,0.5 -0.9,0.8 -1.6,0.9c-0.7,0.1 -1.3,-0.1 -1.8,-0.5c-0.5,-0.4 -0.8,-1.1 -0.9,-2l-0.2,-1.5c-0.1,-0.9 0,-1.6 0.4,-2.1s0.9,-0.8 1.6,-0.9c0.7,-0.1 1.3,0.1 1.8,0.5c0.5,0.4 0.8,1.1 0.9,2l0.2,1.5zm-1.5,-1.5c-0.1,-0.5 -0.2,-0.9 -0.4,-1.2c-0.2,-0.2 -0.4,-0.3 -0.7,-0.3c-0.3,0 -0.5,0.2 -0.7,0.5s-0.2,0.7 -0.1,1.2l0.2,1.8c0.1,0.5 0.2,0.9 0.4,1.2s0.4,0.3 0.7,0.3c0.3,0 0.5,-0.2 0.7,-0.5c0.1,-0.3 0.2,-0.7 0.1,-1.2l-0.2,-1.8z"
           class="st42" />
        <path
           id="svg_43"
           d="m85.97817,289l-1.4,0.1l0,-1.2l1.4,-0.1l0,1.2z"
           class="st42" />
        <path
           id="svg_44"
           d="m86.67817,288.1l1.2,-0.1l0.1,-4.6l-1.2,0l0,-0.8l2.5,-0.4l-0.2,5.9l1.1,0.2l0,0.8l-3.7,-0.1l0.2,-0.9z"
           class="st42" />
        <path
           id="svg_45"
           d="m95.77817,287c-0.1,0.9 -0.4,1.6 -0.9,2c-0.5,0.4 -1.1,0.6 -1.8,0.5c-0.7,-0.1 -1.2,-0.4 -1.6,-0.9s-0.5,-1.2 -0.4,-2.1l0.2,-1.5c0.1,-0.9 0.4,-1.5 0.9,-2c0.5,-0.4 1.1,-0.6 1.8,-0.5c0.7,0.1 1.2,0.4 1.6,0.9c0.4,0.5 0.5,1.2 0.4,2.1l-0.2,1.5zm-1.1,-1.8c0.1,-0.5 0,-0.9 -0.1,-1.2c-0.1,-0.3 -0.3,-0.4 -0.7,-0.5c-0.3,0 -0.6,0.1 -0.7,0.3c-0.2,0.2 -0.3,0.6 -0.4,1.2l-0.2,1.8c-0.1,0.5 0,1 0.1,1.2c0.1,0.3 0.3,0.4 0.7,0.5c0.3,0 0.5,-0.1 0.7,-0.3c0.2,-0.2 0.3,-0.6 0.4,-1.2l0.2,-1.8z"
           class="st42" />
        <path
           id="svg_46"
           d="m97.67817,290.1l-1.3,-0.3l0.2,-1.2l1.3,0.3l-0.2,1.2z"
           class="st42" />
        <path
           id="svg_47"
           d="m100.57817,289.9c0.4,0.1 0.7,0 1,-0.2c0.3,-0.2 0.5,-0.6 0.7,-1.1l0,-0.1c-0.2,0.1 -0.4,0.2 -0.7,0.3c-0.2,0 -0.5,0 -0.7,0c-0.6,-0.2 -1,-0.5 -1.3,-1c-0.2,-0.5 -0.3,-1.1 0,-1.8c0.2,-0.7 0.6,-1.2 1.1,-1.5c0.5,-0.3 1.1,-0.4 1.8,-0.2c0.7,0.2 1.1,0.6 1.4,1.2c0.3,0.6 0.3,1.3 0.1,2.1l-0.4,1.4c-0.2,0.9 -0.7,1.4 -1.3,1.8c-0.6,0.3 -1.3,0.4 -2,0.2c-0.2,-0.1 -0.5,-0.2 -0.7,-0.3c-0.2,-0.1 -0.4,-0.2 -0.6,-0.4l0.4,-0.9c0.2,0.1 0.4,0.2 0.5,0.3c0.2,0 0.4,0.1 0.7,0.2zm0.8,-2.1c0.2,0.1 0.4,0.1 0.6,0c0.2,0 0.3,-0.1 0.5,-0.2l0.2,-0.7c0.1,-0.5 0.2,-0.9 0.1,-1.2c-0.1,-0.3 -0.3,-0.5 -0.6,-0.6c-0.3,-0.1 -0.5,0 -0.8,0.2c-0.2,0.2 -0.4,0.5 -0.5,0.9c-0.1,0.4 -0.1,0.7 0,1c0,0.4 0.2,0.6 0.5,0.6z"
           class="st42" />
        <path
           id="svg_48"
           d="m104.87817,292.3l-1.3,-0.5l0.4,-1.1l1.3,0.5l-0.4,1.1z"
           class="st42" />
        <path
           id="svg_49"
           d="m105.87817,291.8l1.1,0.3l1.9,-4.2l-1.1,-0.5l0.3,-0.7l2.5,0.6l-2.4,5.4l1,0.6l-0.3,0.7l-3.3,-1.5l0.3,-0.7z"
           class="st42" />
      </g>
      <g
         id="svg_50">
        <path
           id="svg_51"
           d="m116.07817,54.6l-1,0l-0.2,-0.9c-0.1,-0.1 -0.3,-0.1 -0.5,-0.2c-0.2,-0.1 -0.5,-0.1 -0.7,-0.1c-0.4,0 -0.7,0.1 -0.9,0.2c-0.2,0.2 -0.3,0.4 -0.3,0.6c0,0.2 0.1,0.4 0.3,0.6s0.6,0.3 1.1,0.5c0.8,0.2 1.3,0.5 1.7,0.8c0.4,0.3 0.6,0.8 0.6,1.4c0,0.6 -0.2,1 -0.7,1.4s-1.1,0.5 -1.8,0.5c-0.5,0 -1,-0.1 -1.5,-0.3s-0.8,-0.4 -1.1,-0.7l0,-1.4l1.1,0l0.1,1c0.1,0.1 0.3,0.2 0.6,0.3c0.2,0.1 0.5,0.1 0.8,0.1c0.4,0 0.7,-0.1 0.9,-0.2c0.2,-0.2 0.3,-0.4 0.3,-0.6c0,-0.3 -0.1,-0.5 -0.3,-0.6c-0.2,-0.2 -0.5,-0.3 -1,-0.5c-0.8,-0.2 -1.4,-0.5 -1.8,-0.8c-0.4,-0.3 -0.6,-0.8 -0.6,-1.3c0,-0.6 0.2,-1 0.7,-1.4s1.1,-0.5 1.8,-0.5c0.5,0 1,0.1 1.4,0.2s0.8,0.4 1.1,0.6l0,1.3l-0.1,0z"
           class="st42" />
        <path
           id="svg_52"
           d="m119.17817,59.4c-0.7,0 -1.3,-0.2 -1.8,-0.7s-0.7,-1.1 -0.7,-1.8l0,-0.2c0,-0.8 0.2,-1.4 0.6,-1.9c0.4,-0.5 1,-0.7 1.7,-0.7c0.7,0 1.2,0.2 1.6,0.6s0.6,1 0.6,1.7l0,0.7l-3,0l0,0c0,0.3 0.1,0.6 0.3,0.8c0.2,0.2 0.5,0.3 0.8,0.3c0.3,0 0.6,0 0.8,-0.1c0.2,-0.1 0.4,-0.2 0.7,-0.3l0.4,0.8c-0.2,0.2 -0.5,0.3 -0.8,0.4s-0.8,0.4 -1.2,0.4zm-0.1,-4.2c-0.3,0 -0.5,0.1 -0.6,0.3c-0.1,0.2 -0.2,0.4 -0.3,0.8l0,0l1.7,0l0,-0.1c0,-0.3 -0.1,-0.5 -0.2,-0.7c-0.1,-0.2 -0.3,-0.3 -0.6,-0.3z"
           class="st42" />
        <path
           id="svg_53"
           d="m121.97817,58.5l0.7,-0.1l0,-3.1l-0.7,-0.1l0,-0.8l2,0l0.1,0.7c0.1,-0.3 0.3,-0.5 0.5,-0.6s0.4,-0.2 0.7,-0.2c0.1,0 0.1,0 0.2,0c0.1,0 0.1,0 0.2,0l-0.1,1.2l-0.6,0c-0.2,0 -0.4,0 -0.5,0.1c-0.1,0.1 -0.2,0.2 -0.3,0.3l0,2.5l0.7,0.1l0,0.8l-2.7,0l0,-0.8l-0.2,0z"
           class="st42" />
        <path
           id="svg_54"
           d="m128.17817,55l-0.5,0.1l0.7,2.3l0.1,0.5l0,0l0.1,-0.5l0.7,-2.3l-0.5,-0.1l0,-0.8l2.3,0l0,0.8l-0.4,0.1l-1.5,4.2l-1.3,0l-1.5,-4.2l-0.4,-0.1l0,-0.8l2.3,0l0,0.8l-0.1,0z"
           class="st42" />
        <path
           id="svg_55"
           d="m131.47817,58.5l0.7,-0.1l0,-3.1l-0.7,-0.1l0,-0.8l2.1,0l0,4.1l0.7,0.1l0,0.8l-2.7,0l0,-0.9l-0.1,0zm2,-5.5l-1.4,0l0,-1l1.4,0l0,1z"
           class="st42" />
        <path
           id="svg_56"
           d="m136.97817,58.3c0.2,0 0.4,-0.1 0.6,-0.2c0.1,-0.1 0.2,-0.3 0.2,-0.6l1.2,0l0,0c0,0.5 -0.2,0.9 -0.6,1.3c-0.4,0.3 -0.9,0.5 -1.5,0.5c-0.8,0 -1.3,-0.2 -1.7,-0.7c-0.4,-0.5 -0.6,-1.1 -0.6,-1.8l0,-0.1c0,-0.7 0.2,-1.4 0.6,-1.8c0.4,-0.5 1,-0.7 1.8,-0.7c0.4,0 0.8,0.1 1.1,0.2c0.3,0.1 0.6,0.3 0.8,0.5l0,1.4l-1.1,0l-0.2,-0.8c-0.1,-0.1 -0.2,-0.1 -0.3,-0.1c-0.1,0 -0.2,-0.1 -0.3,-0.1c-0.4,0 -0.7,0.1 -0.8,0.4s-0.2,0.6 -0.2,1.1l0,0.1c0,0.5 0.1,0.8 0.2,1.1c0.2,0.2 0.4,0.3 0.8,0.3z"
           class="st42" />
        <path
           id="svg_57"
           d="m142.07817,59.4c-0.7,0 -1.3,-0.2 -1.8,-0.7s-0.7,-1.1 -0.7,-1.8l0,-0.2c0,-0.8 0.2,-1.4 0.6,-1.9c0.4,-0.5 1,-0.7 1.7,-0.7c0.7,0 1.2,0.2 1.6,0.6s0.6,1 0.6,1.7l0,0.7l-3,0l0,0c0,0.3 0.1,0.6 0.3,0.8c0.2,0.2 0.5,0.3 0.8,0.3c0.3,0 0.6,0 0.8,-0.1c0.2,-0.1 0.4,-0.2 0.7,-0.3l0.4,0.8c-0.2,0.2 -0.5,0.3 -0.8,0.4s-0.8,0.4 -1.2,0.4zm-0.1,-4.2c-0.3,0 -0.5,0.1 -0.6,0.3c-0.1,0.2 -0.2,0.4 -0.3,0.8l0,0l1.7,0l0,-0.1c0,-0.3 -0.1,-0.5 -0.2,-0.7c-0.1,-0.2 -0.4,-0.3 -0.6,-0.3z"
           class="st42" />
        <path
           id="svg_58"
           d="m150.07817,52.5c0.8,0 1.4,0.2 1.9,0.5s0.7,0.8 0.7,1.4c0,0.3 -0.1,0.6 -0.2,0.8c-0.2,0.2 -0.4,0.4 -0.7,0.6c0.4,0.1 0.7,0.3 0.9,0.6c0.2,0.3 0.3,0.6 0.3,1c0,0.7 -0.2,1.1 -0.6,1.5c-0.4,0.3 -1,0.5 -1.8,0.5l-3.5,0l0,-0.8l0.7,-0.1l0,-4.9l-0.7,-0.1l0,-0.8l0.7,0l2.3,0l0,-0.2zm-0.9,2.8l1,0c0.4,0 0.6,-0.1 0.8,-0.2c0.2,-0.2 0.3,-0.4 0.3,-0.7c0,-0.3 -0.1,-0.5 -0.3,-0.7s-0.5,-0.2 -0.9,-0.2l-0.9,0l0,1.8zm0,1l0,2l1.3,0c0.4,0 0.6,-0.1 0.8,-0.2s0.3,-0.4 0.3,-0.7c0,-0.3 -0.1,-0.6 -0.2,-0.8c-0.2,-0.2 -0.4,-0.3 -0.8,-0.3l-1.4,0z"
           class="st42" />
        <path
           id="svg_59"
           d="m155.87817,58.5l1.2,-0.1l0,-4.6l-1.2,0l0,-0.8l2.5,-0.5l0,5.9l1.2,0.1l0,0.8l-3.7,0l0,-0.8z"
           class="st42" />
        <path
           id="svg_60"
           d="m164.87817,56.6c0,0.9 -0.2,1.6 -0.6,2.1c-0.4,0.5 -1,0.7 -1.7,0.7c-0.7,0 -1.3,-0.2 -1.7,-0.7c-0.4,-0.5 -0.6,-1.2 -0.6,-2.1l0,-1.5c0,-0.9 0.2,-1.6 0.6,-2.1c0.4,-0.5 1,-0.7 1.7,-0.7c0.7,0 1.3,0.2 1.7,0.7c0.4,0.5 0.6,1.2 0.6,2.1l0,1.5zm-1.4,-1.6c0,-0.5 -0.1,-0.9 -0.2,-1.2c-0.2,-0.3 -0.4,-0.4 -0.7,-0.4c-0.3,0 -0.5,0.1 -0.7,0.4s-0.2,0.6 -0.2,1.2l0,1.8c0,0.5 0.1,0.9 0.2,1.2c0.2,0.2 0.4,0.4 0.7,0.4c0.3,0 0.5,-0.1 0.7,-0.4s0.2,-0.6 0.2,-1.2l0,-1.8z"
           class="st42" />
        <path
           id="svg_61"
           d="m167.17817,59.3l-1.4,0l0,-1.2l1.4,0l0,1.2z"
           class="st42" />
        <path
           id="svg_62"
           d="m167.97817,58.5l1.2,-0.1l0,-4.6l-1.2,0l0,-0.8l2.5,-0.5l0,5.9l1.2,0.1l0,0.8l-3.7,0l0,-0.8z"
           class="st42" />
        <path
           id="svg_63"
           d="m176.97817,56.6c0,0.9 -0.2,1.6 -0.6,2.1c-0.4,0.5 -1,0.7 -1.7,0.7c-0.7,0 -1.3,-0.2 -1.7,-0.7c-0.4,-0.5 -0.6,-1.2 -0.6,-2.1l0,-1.5c0,-0.9 0.2,-1.6 0.6,-2.1c0.4,-0.5 1,-0.7 1.7,-0.7c0.7,0 1.3,0.2 1.7,0.7c0.4,0.5 0.6,1.2 0.6,2.1l0,1.5zm-1.3,-1.6c0,-0.5 -0.1,-0.9 -0.2,-1.2c-0.2,-0.3 -0.4,-0.4 -0.7,-0.4c-0.3,0 -0.5,0.1 -0.7,0.4s-0.2,0.6 -0.2,1.2l0,1.8c0,0.5 0.1,0.9 0.2,1.2c0.2,0.2 0.4,0.4 0.7,0.4c0.3,0 0.5,-0.1 0.7,-0.4s0.2,-0.6 0.2,-1.2l0,-1.8z"
           class="st42" />
        <path
           id="svg_64"
           d="m179.37817,59.3l-1.3,0l0,-1.2l1.4,0l0,1.2l-0.1,0z"
           class="st42" />
        <path
           id="svg_65"
           d="m182.27817,58.3c0.4,0 0.7,-0.1 0.9,-0.4s0.3,-0.7 0.3,-1.3l0,-0.1c-0.2,0.2 -0.3,0.3 -0.5,0.4s-0.4,0.2 -0.7,0.2c-0.6,0 -1.1,-0.2 -1.5,-0.6c-0.4,-0.4 -0.5,-1 -0.5,-1.7c0,-0.7 0.2,-1.3 0.6,-1.7s1,-0.7 1.6,-0.7c0.7,0 1.3,0.2 1.7,0.7c0.4,0.5 0.7,1.2 0.7,2l0,1.5c0,0.9 -0.2,1.6 -0.7,2.1c-0.5,0.5 -1.1,0.7 -1.9,0.7c-0.2,0 -0.5,0 -0.7,-0.1c-0.3,0 -0.5,-0.1 -0.7,-0.2l0.2,-1c0.2,0.1 0.4,0.1 0.6,0.2c0.1,0 0.3,0 0.6,0zm0.2,-2.1c0.2,0 0.4,0 0.6,-0.1c0.2,-0.1 0.3,-0.2 0.4,-0.3l0,-0.8c0,-0.5 -0.1,-0.9 -0.3,-1.1c-0.2,-0.3 -0.4,-0.4 -0.7,-0.4c-0.3,0 -0.5,0.1 -0.7,0.4c-0.2,0.3 -0.3,0.6 -0.3,1c0,0.4 0.1,0.7 0.2,1c0.3,0.1 0.5,0.3 0.8,0.3z"
           class="st42" />
        <path
           id="svg_66"
           d="m187.17817,59.3l-1.4,0l0,-1.2l1.4,0l0,1.2z"
           class="st42" />
        <path
           id="svg_67"
           d="m187.97817,59.3l0,-0.9l2.2,-2.4c0.3,-0.4 0.5,-0.7 0.7,-0.9c0.1,-0.3 0.2,-0.5 0.2,-0.7c0,-0.3 -0.1,-0.5 -0.2,-0.7c-0.2,-0.2 -0.4,-0.3 -0.7,-0.3c-0.3,0 -0.6,0.1 -0.7,0.3c-0.2,0.2 -0.2,0.5 -0.2,0.9l-1.3,0l0,0c0,-0.6 0.2,-1.1 0.6,-1.6c0.4,-0.4 1,-0.6 1.7,-0.6c0.7,0 1.3,0.2 1.7,0.5s0.6,0.9 0.6,1.5c0,0.4 -0.1,0.8 -0.3,1.1c-0.2,0.3 -0.6,0.8 -1.1,1.4l-1.2,1.3l0,0l1.8,0l0.1,-0.7l1,0l0,1.7l-4.9,0l0,0.1z"
           class="st42" />
      </g>
      <g
         id="svg_68">
        <path
           id="svg_69"
           d="m172.67817,95.3l0.5,-0.8l-3.4,-2.6l-0.5,0.9l-0.2,-0.2l0.6,-1.3l3.8,2.9l0.6,-0.7l0.2,0.2l-1.4,1.8l-0.2,-0.2z"
           class="st42" />
        <path
           id="svg_70"
           d="m175.57817,89.6c0.5,0.5 0.7,0.9 0.8,1.4c0,0.5 -0.1,0.8 -0.5,1.2c-0.4,0.3 -0.8,0.5 -1.2,0.4s-0.9,-0.3 -1.4,-0.8l-0.8,-0.8c-0.5,-0.5 -0.7,-0.9 -0.8,-1.4c0,-0.5 0.1,-0.9 0.5,-1.2c0.4,-0.3 0.8,-0.5 1.2,-0.4s0.9,0.3 1.4,0.8l0.8,0.8zm-1.2,-0.6c-0.4,-0.4 -0.7,-0.6 -1.1,-0.7c-0.3,-0.1 -0.6,0 -0.9,0.3c-0.3,0.3 -0.4,0.6 -0.3,0.9s0.3,0.7 0.6,1.1l0.9,0.9c0.4,0.4 0.7,0.6 1.1,0.7c0.3,0.1 0.7,0 0.9,-0.3c0.3,-0.3 0.4,-0.6 0.3,-0.9c-0.1,-0.3 -0.3,-0.7 -0.6,-1.1l-0.9,-0.9z"
           class="st42" />
        <path
           id="svg_71"
           d="m177.97817,90.3l-0.4,0.3l-0.3,-0.5l0.4,-0.3l0.3,0.5z"
           class="st42" />
        <path
           id="svg_72"
           d="m178.57817,89.4l0.8,-0.5l-2.3,-3.7l-0.8,0.7l-0.2,-0.3l1.1,-1l2.5,4.1l0.8,-0.4l0.2,0.3l-1.9,1.2l-0.2,-0.4z"
           class="st42" />
        <path
           id="svg_73"
           d="m183.17817,85.2c0.3,0.6 0.3,1.1 0.2,1.6s-0.4,0.8 -0.9,1c-0.5,0.2 -0.9,0.2 -1.3,0s-0.7,-0.6 -1,-1.2l-0.5,-1c-0.3,-0.6 -0.3,-1.1 -0.2,-1.6c0.1,-0.4 0.4,-0.8 0.9,-1c0.5,-0.2 0.9,-0.2 1.3,0c0.4,0.2 0.7,0.6 1,1.2l0.5,1zm-0.8,-1c-0.2,-0.5 -0.5,-0.8 -0.8,-1c-0.3,-0.2 -0.6,-0.2 -1,0c-0.3,0.2 -0.6,0.4 -0.6,0.7c-0.1,0.3 0,0.7 0.2,1.2l0.5,1.2c0.2,0.5 0.5,0.8 0.8,1c0.3,0.2 0.6,0.2 1,0c0.3,-0.2 0.6,-0.4 0.6,-0.7c0.1,-0.3 0,-0.8 -0.2,-1.2l-0.5,-1.2z"
           class="st42" />
        <path
           id="svg_74"
           d="m185.27817,86.6l-0.5,0.1l-0.2,-0.6l0.5,-0.1l0.2,0.6z"
           class="st42" />
        <path
           id="svg_75"
           d="m186.07817,86.1l0.9,-0.2l-0.8,-4.2l-1,0.3l-0.1,-0.3l1.3,-0.6l0.9,4.7l0.9,-0.1l0.1,0.3l-2.2,0.4l0,-0.3z"
           class="st42" />
        <path
           id="svg_76"
           d="m191.97817,83.7c0,0.7 -0.1,1.2 -0.3,1.5c-0.3,0.4 -0.6,0.6 -1.1,0.6c-0.5,0 -0.9,-0.1 -1.2,-0.5c-0.3,-0.3 -0.5,-0.8 -0.5,-1.5l-0.1,-1.1c0,-0.7 0.1,-1.2 0.3,-1.5c0.3,-0.4 0.6,-0.6 1.1,-0.6c0.5,0 0.9,0.1 1.2,0.5s0.5,0.8 0.5,1.5l0.1,1.1zm-0.5,-1.2c0,-0.5 -0.1,-0.9 -0.4,-1.2c-0.2,-0.3 -0.5,-0.4 -0.9,-0.4c-0.4,0 -0.7,0.2 -0.8,0.5c-0.2,0.3 -0.3,0.7 -0.2,1.2l0.1,1.3c0,0.5 0.1,0.9 0.4,1.2s0.5,0.4 0.9,0.4c0.4,0 0.7,-0.2 0.8,-0.5c0.2,-0.3 0.3,-0.7 0.2,-1.2l-0.1,-1.3z"
           class="st42" />
        <path
           id="svg_77"
           d="m193.37817,85.8l-0.5,0l0,-0.6l0.5,0l0,0.6z"
           class="st42" />
        <path
           id="svg_78"
           d="m197.17817,84.7l0.8,0.1l-0.1,0.3l-0.8,-0.1l-0.2,0.9l0.6,0.2l-0.1,0.3l-1.5,-0.3l0.1,-0.3l0.6,0.1l0.2,-0.9l-2.4,-0.4l0,-0.2l3,-3.1l0.5,0.1l-0.7,3.3zm-2.2,-0.4l1.9,0.4l0.5,-2.9l0,0l-0.2,0.3l-2.2,2.2z"
           class="st42" />
      </g>
      <g
         id="svg_79">
        <path
           id="svg_80"
           d="m219.17817,95.3l0.5,-0.8l-3.4,-2.6l-0.5,0.9l-0.2,-0.2l0.6,-1.3l3.8,2.9l0.6,-0.7l0.2,0.2l-1.4,1.8l-0.2,-0.2z"
           class="st42" />
        <path
           id="svg_81"
           d="m222.07817,89.6c0.5,0.5 0.7,0.9 0.8,1.4c0,0.5 -0.1,0.8 -0.5,1.2c-0.4,0.3 -0.8,0.5 -1.2,0.4s-0.9,-0.3 -1.4,-0.8l-0.8,-0.8c-0.5,-0.5 -0.7,-0.9 -0.8,-1.4c0,-0.5 0.1,-0.9 0.5,-1.2c0.4,-0.3 0.8,-0.5 1.2,-0.4s0.9,0.3 1.4,0.8l0.8,0.8zm-1.2,-0.6c-0.4,-0.4 -0.7,-0.6 -1.1,-0.7c-0.3,-0.1 -0.6,0 -0.9,0.3c-0.3,0.3 -0.4,0.6 -0.3,0.9s0.3,0.7 0.6,1.1l0.9,0.9c0.4,0.4 0.7,0.6 1.1,0.7c0.3,0.1 0.7,0 0.9,-0.3c0.3,-0.3 0.4,-0.6 0.3,-0.9c-0.1,-0.3 -0.3,-0.7 -0.6,-1.1l-0.9,-0.9z"
           class="st42" />
        <path
           id="svg_82"
           d="m224.47817,90.3l-0.4,0.3l-0.3,-0.5l0.4,-0.3l0.3,0.5z"
           class="st42" />
        <path
           id="svg_83"
           d="m225.07817,89.4l0.8,-0.5l-2.3,-3.7l-0.8,0.7l-0.2,-0.3l1.1,-1l2.5,4.1l0.8,-0.4l0.2,0.3l-1.9,1.2l-0.2,-0.4z"
           class="st42" />
        <path
           id="svg_84"
           d="m229.67817,85.2c0.3,0.6 0.3,1.1 0.2,1.6s-0.4,0.8 -0.9,1c-0.5,0.2 -0.9,0.2 -1.3,0s-0.7,-0.6 -1,-1.2l-0.5,-1c-0.3,-0.6 -0.3,-1.1 -0.2,-1.6c0.1,-0.4 0.4,-0.8 0.9,-1c0.5,-0.2 0.9,-0.2 1.3,0c0.4,0.2 0.7,0.6 1,1.2l0.5,1zm-0.8,-1c-0.2,-0.5 -0.5,-0.8 -0.8,-1c-0.3,-0.2 -0.6,-0.2 -1,0c-0.3,0.2 -0.6,0.4 -0.6,0.7c-0.1,0.3 0,0.7 0.2,1.2l0.5,1.2c0.2,0.5 0.5,0.8 0.8,1c0.3,0.2 0.6,0.2 1,0c0.3,-0.2 0.6,-0.4 0.6,-0.7c0.1,-0.3 0,-0.8 -0.2,-1.2l-0.5,-1.2z"
           class="st42" />
        <path
           id="svg_85"
           d="m231.77817,86.6l-0.5,0.1l-0.2,-0.6l0.5,-0.1l0.2,0.6z"
           class="st42" />
        <path
           id="svg_86"
           d="m232.67817,86.1l0.9,-0.2l-0.8,-4.2l-1,0.3l-0.1,-0.3l1.3,-0.6l0.9,4.7l0.9,-0.1l0.1,0.3l-2.2,0.4l0,-0.3z"
           class="st42" />
        <path
           id="svg_87"
           d="m238.47817,83.7c0,0.7 -0.1,1.2 -0.3,1.5c-0.3,0.4 -0.6,0.6 -1.1,0.6c-0.5,0 -0.9,-0.1 -1.2,-0.5c-0.3,-0.3 -0.5,-0.8 -0.5,-1.5l-0.1,-1.1c0,-0.7 0.1,-1.2 0.3,-1.5c0.3,-0.4 0.6,-0.6 1.1,-0.6c0.5,0 0.9,0.1 1.2,0.5s0.5,0.8 0.5,1.5l0.1,1.1zm-0.5,-1.2c0,-0.5 -0.1,-0.9 -0.4,-1.2c-0.2,-0.3 -0.5,-0.4 -0.9,-0.4c-0.4,0 -0.7,0.2 -0.8,0.5c-0.2,0.3 -0.3,0.7 -0.2,1.2l0.1,1.3c0,0.5 0.1,0.9 0.4,1.2s0.5,0.4 0.9,0.4c0.4,0 0.7,-0.2 0.8,-0.5c0.2,-0.3 0.3,-0.7 0.2,-1.2l-0.1,-1.3z"
           class="st42" />
        <path
           id="svg_88"
           d="m239.87817,85.8l-0.5,0l0,-0.6l0.5,0l0,0.6z"
           class="st42" />
        <path
           id="svg_89"
           d="m242.17817,83.2l0.5,0.1c0.4,0.1 0.7,0 0.9,-0.1s0.4,-0.4 0.4,-0.7c0.1,-0.3 0,-0.6 -0.1,-0.8c-0.1,-0.2 -0.4,-0.4 -0.7,-0.4c-0.3,-0.1 -0.6,0 -0.8,0.1s-0.4,0.4 -0.4,0.7l-0.4,-0.1l0,0c0.1,-0.4 0.3,-0.7 0.6,-0.9c0.3,-0.2 0.7,-0.3 1.2,-0.2c0.4,0.1 0.8,0.3 1,0.6c0.2,0.3 0.3,0.7 0.2,1.1c0,0.2 -0.2,0.4 -0.3,0.6c-0.2,0.2 -0.4,0.3 -0.7,0.4c0.3,0.1 0.5,0.3 0.6,0.6c0.1,0.2 0.1,0.5 0.1,0.8c-0.1,0.4 -0.3,0.8 -0.6,1c-0.3,0.2 -0.7,0.3 -1.2,0.2c-0.4,-0.1 -0.8,-0.3 -1.1,-0.6c-0.3,-0.3 -0.4,-0.7 -0.3,-1.1l0,0l0.4,0.1c-0.1,0.3 0,0.6 0.2,0.8c0.2,0.2 0.5,0.4 0.8,0.5c0.4,0.1 0.7,0 0.9,-0.1c0.2,-0.1 0.4,-0.4 0.4,-0.7c0.1,-0.4 0,-0.6 -0.2,-0.8c-0.2,-0.2 -0.5,-0.3 -0.9,-0.4l-0.5,-0.1l0,-0.6z"
           class="st42" />
      </g>
      <g
         id="svg_90">
        <path
           id="svg_91"
           d="m54.27817,93.2l0.4,-0.8l-3.9,-1.9l-0.3,1l-0.3,-0.1l0.4,-1.4l4.3,2.1l0.5,-0.8l0.3,0.1l-1,2l-0.4,-0.2z"
           class="st42" />
        <path
           id="svg_92"
           d="m55.77817,87c0.6,0.3 0.9,0.7 1.1,1.2c0.2,0.4 0.1,0.9 -0.2,1.3c-0.3,0.4 -0.6,0.7 -1.1,0.7c-0.5,0.1 -1,-0.1 -1.5,-0.4l-1,-0.6c-0.6,-0.3 -0.9,-0.7 -1.1,-1.2c-0.2,-0.4 -0.1,-0.9 0.2,-1.3c0.3,-0.4 0.6,-0.7 1.1,-0.7c0.5,-0.1 1,0.1 1.5,0.4l1,0.6zm-1.2,-0.3c-0.4,-0.3 -0.8,-0.4 -1.2,-0.4c-0.3,0 -0.6,0.2 -0.8,0.5c-0.2,0.3 -0.2,0.6 -0.1,1c0.1,0.3 0.4,0.6 0.9,0.9l1.1,0.7c0.4,0.3 0.8,0.4 1.2,0.4c0.4,0 0.6,-0.2 0.8,-0.5c0.2,-0.3 0.2,-0.6 0.1,-1c-0.1,-0.3 -0.4,-0.6 -0.9,-0.9l-1.1,-0.7z"
           class="st42" />
        <path
           id="svg_93"
           d="m58.27817,87l-0.3,0.4l-0.4,-0.4l0.3,-0.4l0.4,0.4z"
           class="st42" />
        <path
           id="svg_94"
           d="m58.67817,86l0.5,-0.7l-3.3,-2.7l-0.5,0.9l-0.3,-0.3l0.7,-1.3l3.7,3l0.6,-0.7l0.2,0.2l-1.4,1.7l-0.2,-0.1z"
           class="st42" />
        <path
           id="svg_95"
           d="m61.57817,80.3c0.5,0.5 0.7,0.9 0.8,1.4c0.1,0.4 -0.1,0.9 -0.4,1.2c-0.3,0.4 -0.8,0.5 -1.2,0.5c-0.5,-0.1 -0.9,-0.3 -1.4,-0.8l-0.8,-0.8c-0.5,-0.5 -0.7,-0.9 -0.8,-1.4c-0.1,-0.5 0.1,-0.9 0.4,-1.2c0.4,-0.4 0.8,-0.5 1.2,-0.5c0.5,0.1 0.9,0.3 1.4,0.8l0.8,0.8zm-1.2,-0.5c-0.4,-0.4 -0.7,-0.6 -1.1,-0.6c-0.3,-0.1 -0.6,0.1 -0.9,0.3c-0.3,0.2 -0.4,0.5 -0.3,0.9c0.1,0.3 0.3,0.7 0.6,1.1l0.9,0.9c0.4,0.4 0.7,0.6 1.1,0.6c0.3,0.1 0.7,0 0.9,-0.3c0.3,-0.3 0.4,-0.6 0.3,-0.9c-0.1,-0.3 -0.3,-0.7 -0.6,-1.1l-0.9,-0.9z"
           class="st42" />
        <path
           id="svg_96"
           d="m63.97817,80.9l-0.4,0.3l-0.4,-0.4l0.4,-0.3l0.4,0.4z"
           class="st42" />
        <path
           id="svg_97"
           d="m64.57817,80l0.7,-0.6l-2.7,-3.4l-0.7,0.7l-0.2,-0.2l0.9,-1.1l2.9,3.8l0.8,-0.5l0.2,0.2l-1.8,1.4l-0.1,-0.3z"
           class="st42" />
        <path
           id="svg_98"
           d="m68.57817,75.1c0.4,0.6 0.5,1.1 0.5,1.5c0,0.5 -0.3,0.8 -0.7,1.1c-0.4,0.3 -0.8,0.3 -1.3,0.2c-0.4,-0.2 -0.8,-0.5 -1.2,-1.1l-0.6,-1c-0.4,-0.6 -0.5,-1.1 -0.5,-1.5s0.3,-0.8 0.7,-1.1c0.4,-0.3 0.8,-0.3 1.3,-0.2c0.4,0.2 0.8,0.5 1.2,1.1l0.6,1zm-1,-0.8c-0.3,-0.4 -0.6,-0.7 -0.9,-0.9c-0.3,-0.1 -0.6,-0.1 -1,0.1c-0.3,0.2 -0.5,0.5 -0.5,0.8c0,0.3 0.1,0.7 0.4,1.2l0.7,1.1c0.3,0.4 0.6,0.7 0.9,0.9c0.3,0.1 0.6,0.1 1,-0.1c0.3,-0.2 0.5,-0.5 0.5,-0.8c0,-0.3 -0.1,-0.7 -0.4,-1.2l-0.7,-1.1z"
           class="st42" />
        <path
           id="svg_99"
           d="m70.87817,76.2l-0.4,0.2l-0.3,-0.5l0.4,-0.2l0.3,0.5z"
           class="st42" />
        <path
           id="svg_100"
           d="m71.67817,75.7l-0.1,-0.3l0.8,-2.4c0.1,-0.4 0.2,-0.8 0.3,-1.1c0,-0.3 0,-0.5 -0.1,-0.7c-0.1,-0.3 -0.3,-0.5 -0.6,-0.6c-0.2,-0.1 -0.5,-0.1 -0.8,0c-0.4,0.2 -0.6,0.4 -0.7,0.7c-0.1,0.3 -0.1,0.6 0.1,0.9l-0.4,0.2l0,0c-0.2,-0.4 -0.2,-0.8 -0.1,-1.2c0.1,-0.4 0.4,-0.7 0.9,-0.9c0.4,-0.2 0.8,-0.2 1.1,-0.1s0.6,0.4 0.8,0.8c0.1,0.3 0.1,0.6 0.1,0.9c0,0.3 -0.1,0.7 -0.3,1.2l-0.7,2l0,0l2,-0.9l-0.3,-0.7l0.3,-0.1l0.4,1l-2.7,1.3z"
           class="st42" />
      </g>
      <g
         id="svg_101">
        <path
           id="svg_102"
           d="m53.57817,322.9l0.4,-0.8l-3.9,-1.9l-0.3,1l-0.3,-0.1l0.4,-1.4l4.3,2.1l0.5,-0.8l0.3,0.1l-1,2l-0.4,-0.2z"
           class="st42" />
        <path
           id="svg_103"
           d="m55.17817,316.7c0.6,0.3 0.9,0.7 1.1,1.2s0.1,0.9 -0.2,1.3c-0.3,0.4 -0.6,0.7 -1.1,0.7c-0.5,0.1 -1,-0.1 -1.5,-0.4l-1,-0.6c-0.6,-0.3 -0.9,-0.7 -1.1,-1.2c-0.2,-0.4 -0.1,-0.9 0.2,-1.3c0.3,-0.4 0.6,-0.7 1.1,-0.7c0.5,-0.1 1,0.1 1.5,0.4l1,0.6zm-1.3,-0.2c-0.4,-0.3 -0.8,-0.4 -1.2,-0.4c-0.3,0 -0.6,0.2 -0.8,0.5c-0.2,0.3 -0.2,0.6 -0.1,1c0.1,0.3 0.4,0.6 0.9,0.9l1.1,0.7c0.4,0.3 0.8,0.4 1.2,0.4c0.4,0 0.6,-0.2 0.8,-0.5c0.2,-0.3 0.2,-0.6 0.1,-1s-0.4,-0.6 -0.9,-0.9l-1.1,-0.7z"
           class="st42" />
        <path
           id="svg_104"
           d="m57.67817,316.7l-0.3,0.4l-0.5,-0.3l0.3,-0.4l0.5,0.3z"
           class="st42" />
        <path
           id="svg_105"
           d="m57.97817,315.7l0.5,-0.7l-3.3,-2.7l-0.5,0.9l-0.2,-0.2l0.7,-1.3l3.7,3l0.6,-0.7l0.2,0.2l-1.4,1.7l-0.3,-0.2z"
           class="st42" />
        <path
           id="svg_106"
           d="m60.87817,310.1c0.5,0.5 0.7,0.9 0.8,1.4c0.1,0.4 -0.1,0.9 -0.4,1.2c-0.3,0.4 -0.8,0.5 -1.2,0.5c-0.5,-0.1 -0.9,-0.3 -1.4,-0.8l-0.8,-0.8c-0.5,-0.5 -0.7,-0.9 -0.8,-1.4c-0.1,-0.5 0.1,-0.9 0.4,-1.2c0.4,-0.4 0.8,-0.5 1.2,-0.5c0.5,0.1 0.9,0.3 1.4,0.8l0.8,0.8zm-1.1,-0.6c-0.4,-0.4 -0.7,-0.6 -1.1,-0.6c-0.3,-0.1 -0.6,0 -0.9,0.3c-0.3,0.3 -0.4,0.6 -0.3,0.9c0.1,0.3 0.3,0.7 0.6,1.1l0.9,0.9c0.4,0.4 0.7,0.6 1.1,0.6c0.3,0.1 0.7,0 0.9,-0.3c0.3,-0.3 0.4,-0.6 0.3,-0.9s-0.3,-0.7 -0.6,-1.1l-0.9,-0.9z"
           class="st42" />
        <path
           id="svg_107"
           d="m63.37817,310.6l-0.4,0.3l-0.4,-0.4l0.4,-0.3l0.4,0.4z"
           class="st42" />
        <path
           id="svg_108"
           d="m63.87817,309.7l0.7,-0.6l-2.6,-3.4l-0.7,0.7l-0.2,-0.2l0.9,-1.1l2.9,3.8l0.8,-0.5l0.2,0.2l-1.8,1.4l-0.2,-0.3z"
           class="st42" />
        <path
           id="svg_109"
           d="m67.97817,304.9c0.4,0.6 0.5,1.1 0.5,1.5c0,0.5 -0.3,0.8 -0.7,1.1c-0.4,0.3 -0.8,0.3 -1.3,0.2s-0.8,-0.5 -1.2,-1.1l-0.6,-1c-0.4,-0.6 -0.5,-1.1 -0.5,-1.5c0,-0.5 0.3,-0.8 0.7,-1.1c0.4,-0.3 0.8,-0.3 1.3,-0.2c0.4,0.2 0.8,0.5 1.2,1.1l0.6,1zm-1,-0.8c-0.3,-0.4 -0.6,-0.7 -0.9,-0.9c-0.3,-0.1 -0.6,-0.1 -1,0.1c-0.3,0.2 -0.5,0.5 -0.5,0.8c0,0.3 0.1,0.7 0.4,1.2l0.7,1.1c0.3,0.4 0.6,0.7 0.9,0.9s0.6,0.1 1,-0.1c0.3,-0.2 0.5,-0.5 0.5,-0.8c0,-0.3 -0.1,-0.7 -0.4,-1.2l-0.7,-1.1z"
           class="st42" />
        <path
           id="svg_110"
           d="m70.27817,305.9l-0.4,0.2l-0.3,-0.5l0.4,-0.2l0.3,0.5z"
           class="st42" />
        <path
           id="svg_111"
           d="m70.97817,305.2l0.8,-0.4l-1.8,-3.9l-0.9,0.5l-0.1,-0.3l1.2,-0.9l2,4.4l0.9,-0.3l0.1,0.3l-2.1,0.9l-0.1,-0.3z"
           class="st42" />
      </g>
    </g>
    <g
       id="deployments">
      <g
         id="svg_112">
        <g
           id="svg_113">
          <circle
             id="svg_114"
             r="14.1"
             cy="241.8"
             cx="140.6"
             class="st45" />
          <g
             id="svg_115">
            <g
               id="svg_116">
              <path
                 id="svg_117"
                 d="m145,233.5c3,1.6 5,4.7 5,8.3c0,5.2 -4.2,9.4 -9.4,9.4s-9.4,-4.2 -9.4,-9.4c0,-4.1 2.6,-7.6 6.3,-8.9"
                 class="st46" />
              <g
                 id="svg_118">
                <polygon
                   id="svg_119"
                   points="146.4,236.4 145.4,233.7 148,232.6 146.5,231.9 143.8,233 144.8,235.6       "
                   class="st6" />
              </g>
            </g>
          </g>
          <g
             id="svg_120">
            <path
               id="svg_121"
               d="m135.4,245.5l0.8,-0.1l3.3,-9.5l2.2,0l3.3,9.5l0.8,0.1l0,1.3l-3.7,0l0,-1.3l0.8,-0.1l-0.5,-1.5l-3.5,0l-0.5,1.5l0.8,0.1l0,1.3l-3.7,0l0,-1.3l-0.1,0zm4,-3.2l2.5,0l-1.2,-3.8l0,0l-1.3,3.8z"
               class="st6" />
          </g>
        </g>
        <g
           id="svg_122">
          <circle
             id="svg_123"
             r="14.1"
             cy="211.5"
             cx="159.9"
             class="st49" />
          <g
             id="svg_124">
            <g
               id="svg_125">
              <path
                 id="svg_126"
                 d="m164.3,203.2c3,1.6 5,4.7 5,8.3c0,5.2 -4.2,9.4 -9.4,9.4s-9.4,-4.2 -9.4,-9.4c0,-4.1 2.6,-7.6 6.3,-8.9"
                 class="st46" />
              <g
                 id="svg_127">
                <polygon
                   id="svg_128"
                   points="165.7,206.1 164.6,203.4 167.3,202.4 165.7,201.7 163,202.7 164.1,205.4       "
                   class="st6" />
              </g>
            </g>
          </g>
          <g
             id="svg_129">
            <path
               id="svg_130"
               d="m160.1,205.8c1.3,0 2.3,0.2 3,0.7s1.1,1.2 1.1,2.2c0,0.5 -0.1,1 -0.4,1.3c-0.3,0.4 -0.7,0.7 -1.2,0.9c0.7,0.1 1.1,0.4 1.5,0.9c0.3,0.5 0.5,1 0.5,1.6c0,1 -0.3,1.8 -1,2.4c-0.7,0.5 -1.7,0.8 -2.9,0.8l-5.3,0l0,-1.3l1.2,-0.2l0,-7.8l-1.2,-0.2l0,-1.3l1.2,0l3.5,0zm-1.5,4.5l1.6,0c0.6,0 1,-0.1 1.3,-0.4c0.3,-0.2 0.5,-0.6 0.5,-1c0,-0.5 -0.2,-0.9 -0.5,-1.1c-0.3,-0.2 -0.8,-0.4 -1.4,-0.4l-1.5,0l0,2.9zm0,1.5l0,3.1l2,0c0.6,0 1,-0.1 1.3,-0.4c0.3,-0.3 0.5,-0.6 0.5,-1.1c0,-0.5 -0.1,-0.9 -0.4,-1.2c-0.3,-0.3 -0.7,-0.4 -1.2,-0.4l-2.2,0z"
               class="st6" />
          </g>
        </g>
      </g>
    </g>
    <g
       id="containers_x2F_volumes">
      <g
         id="svg_131">
        <polygon
           id="svg_132"
           points="75.87815567851067,101.80000305175781 87.67815110087395,94.9000015258789 99.57815262675285,101.80000305175781 87.67815110087395,108.5999984741211 "
           class="st51" />
        <polygon
           id="svg_133"
           points="75.87815567851067,115.4000015258789 75.87815567851067,101.80000305175781 87.67815110087395,108.5999984741211 87.67815110087395,122.30000305175781 "
           class="st51" />
        <polygon
           id="svg_134"
           points="87.67815110087395,122.30000305175781 87.67815110087395,108.5999984741211 99.57815262675285,101.80000305175781 99.57815262675285,115.4000015258789 "
           class="st51" />
      </g>
      <g
         id="svg_135">
        <polygon
           id="svg_136"
           points="75.27814957499504,331.5 87.07815262675285,324.6000061035156 98.97815415263176,331.5 87.07815262675285,338.29998779296875 "
           class="st51" />
        <polygon
           id="svg_137"
           points="75.27814957499504,345.20001220703125 75.27814957499504,331.5 87.07815262675285,338.29998779296875 87.07815262675285,352 "
           class="st51" />
        <polygon
           id="svg_138"
           points="87.07815262675285,352 87.07815262675285,338.29998779296875 98.97815415263176,331.5 98.97815415263176,345.20001220703125 "
           class="st51" />
      </g>
      <g
         id="svg_139">
        <polygon
           id="svg_140"
           points="179.7781877219677,101.69999694824219 191.67819687724113,94.9000015258789 203.47818467020988,101.69999694824219 191.67819687724113,108.5999984741211 "
           class="st51" />
        <polygon
           id="svg_141"
           points="179.7781877219677,115.4000015258789 179.7781877219677,101.69999694824219 191.67819687724113,108.5999984741211 191.67819687724113,122.30000305175781 "
           class="st51" />
        <polygon
           id="svg_142"
           points="191.67819687724113,122.30000305175781 191.67819687724113,108.5999984741211 203.47818467020988,101.69999694824219 203.47818467020988,115.4000015258789 "
           class="st51" />
      </g>
      <g
         id="svg_143">
        <polygon
           id="svg_144"
           points="226.2781877219677,101.69999694824219 238.17819687724113,94.9000015258789 249.97818467020988,101.69999694824219 238.17819687724113,108.5999984741211 "
           class="st51" />
        <polygon
           id="svg_145"
           points="226.2781877219677,115.4000015258789 226.2781877219677,101.69999694824219 238.17819687724113,108.5999984741211 238.17819687724113,122.30000305175781 "
           class="st51" />
        <polygon
           id="svg_146"
           points="238.17819687724113,122.30000305175781 238.17819687724113,108.5999984741211 249.97818467020988,101.69999694824219 249.97818467020988,115.4000015258789 "
           class="st51" />
      </g>
    </g>
    <g
       id="labels_x2F_selectors" />
    <g
       id="description">
      <g
         id="svg_147">
        <path
           id="svg_148"
           d="m315.9,138.6l-0.9,0l-0.2,-1.2c-0.2,-0.1 -0.4,-0.3 -0.7,-0.4s-0.6,-0.1 -1,-0.1c-0.6,0 -1.1,0.1 -1.4,0.4s-0.5,0.6 -0.5,1c0,0.4 0.2,0.7 0.5,0.9s0.9,0.5 1.6,0.7c0.9,0.2 1.6,0.6 2,1s0.7,1 0.7,1.6c0,0.7 -0.3,1.2 -0.8,1.7s-1.3,0.6 -2.2,0.6c-0.7,0 -1.2,-0.1 -1.7,-0.3s-0.9,-0.5 -1.2,-0.8l0,-1.7l0.9,0l0.2,1.2c0.2,0.2 0.5,0.3 0.8,0.5s0.7,0.2 1.1,0.2c0.6,0 1,-0.1 1.4,-0.4s0.5,-0.6 0.5,-1c0,-0.4 -0.1,-0.7 -0.4,-1s-0.8,-0.5 -1.6,-0.7c-0.9,-0.2 -1.6,-0.5 -2.1,-0.9s-0.8,-0.9 -0.8,-1.6c0,-0.7 0.3,-1.2 0.8,-1.7s1.3,-0.7 2.2,-0.7c0.6,0 1.1,0.1 1.6,0.3s0.9,0.5 1.2,0.7l0,1.7z"
           class="st42" />
        <path
           id="svg_149"
           d="m320.1,144.7c-0.9,0 -1.6,-0.3 -2.1,-0.9s-0.8,-1.4 -0.8,-2.3l0,-0.3c0,-0.9 0.3,-1.7 0.8,-2.3s1.2,-0.9 1.9,-0.9c0.9,0 1.5,0.3 1.9,0.8s0.7,1.2 0.7,2.1l0,0.7l-4.1,0l0,0c0,0.6 0.2,1.1 0.5,1.5s0.7,0.6 1.2,0.6c0.4,0 0.7,-0.1 1,-0.2s0.5,-0.3 0.8,-0.5l0.5,0.8c-0.2,0.2 -0.5,0.4 -0.9,0.6s-0.9,0.3 -1.4,0.3zm-0.2,-5.7c-0.4,0 -0.7,0.2 -1,0.5s-0.4,0.7 -0.5,1.2l0,0l2.9,0l0,-0.2c0,-0.5 -0.1,-0.8 -0.4,-1.1s-0.5,-0.4 -1,-0.4z"
           class="st42" />
        <path
           id="svg_150"
           d="m323.6,139l0,-0.7l2,0l0.1,0.9c0.2,-0.3 0.4,-0.6 0.7,-0.8s0.6,-0.3 0.9,-0.3c0.1,0 0.2,0 0.3,0s0.2,0 0.2,0l-0.2,1.1l-0.7,0c-0.3,0 -0.6,0.1 -0.8,0.2s-0.4,0.3 -0.5,0.6l0,3.6l1,0.2l0,0.7l-3.1,0l0,-0.7l1,-0.2l0,-4.5l-0.9,-0.1z"
           class="st42" />
        <path
           id="svg_151"
           d="m330.9,139l-0.8,0.1l1.3,3.6l0.1,0.5l0,0l0.1,-0.5l1.3,-3.6l-0.8,-0.1l0,-0.7l2.4,0l0,0.7l-0.5,0.1l-2.1,5.5l-0.9,0l-2.2,-5.5l-0.5,-0.1l0,-0.7l2.4,0l0,0.7l0.2,0z"
           class="st42" />
        <path
           id="svg_152"
           d="m335.4,143.8l1,-0.2l0,-4.5l-1,-0.2l0,-0.7l2.1,0l0,5.4l1,0.2l0,0.7l-3.1,0l0,-0.7zm2.1,-7.2l-1.2,0l0,-1.2l1.2,0l0,1.2z"
           class="st42" />
        <path
           id="svg_153"
           d="m342.2,143.8c0.4,0 0.7,-0.1 1,-0.4s0.4,-0.5 0.4,-0.9l1,0l0,0c0,0.5 -0.2,1 -0.7,1.5s-1.1,0.6 -1.8,0.6c-0.9,0 -1.6,-0.3 -2.1,-0.9s-0.7,-1.4 -0.7,-2.3l0,-0.2c0,-0.9 0.2,-1.7 0.7,-2.3s1.2,-0.9 2.1,-0.9c0.5,0 1,0.1 1.4,0.3s0.7,0.4 1,0.7l0.1,1.4l-0.9,0l-0.3,-1c-0.1,-0.1 -0.3,-0.2 -0.5,-0.3s-0.5,-0.1 -0.7,-0.1c-0.6,0 -1,0.2 -1.3,0.7s-0.4,1 -0.4,1.6l0,0.2c0,0.6 0.1,1.2 0.4,1.6s0.7,0.7 1.3,0.7z"
           class="st42" />
        <path
           id="svg_154"
           d="m348.7,144.7c-0.9,0 -1.6,-0.3 -2.1,-0.9s-0.8,-1.4 -0.8,-2.3l0,-0.3c0,-0.9 0.3,-1.7 0.8,-2.3s1.2,-0.9 1.9,-0.9c0.9,0 1.5,0.3 1.9,0.8s0.7,1.2 0.7,2.1l0,0.7l-4.1,0l0,0c0,0.6 0.2,1.1 0.5,1.5s0.7,0.6 1.2,0.6c0.4,0 0.7,-0.1 1,-0.2s0.5,-0.3 0.8,-0.5l0.5,0.8c-0.2,0.2 -0.5,0.4 -0.9,0.6s-0.9,0.3 -1.4,0.3zm-0.2,-5.7c-0.4,0 -0.7,0.2 -1,0.5s-0.4,0.7 -0.5,1.2l0,0l2.9,0l0,-0.2c0,-0.5 -0.1,-0.8 -0.4,-1.1s-0.5,-0.4 -1,-0.4z"
           class="st42" />
      </g>
      <line
         id="svg_155"
         y2="142.2"
         x2="249.9"
         y1="142.2"
         x1="307.3"
         class="st62" />
      <g
         id="svg_156">
        <path
           id="svg_157"
           d="m313.3,235c1.1,0 2,0.3 2.7,1s1,1.6 1,2.7l0,1.2c0,1.1 -0.3,2 -1,2.7s-1.6,1 -2.7,1l-3.6,0l0,-0.7l1,-0.2l0,-6.7l-1,-0.2l0,-0.8l1,0l2.6,0zm-1.4,0.9l0,6.7l1.5,0c0.8,0 1.4,-0.3 1.9,-0.8s0.7,-1.2 0.7,-2l0,-1.2c0,-0.8 -0.2,-1.5 -0.7,-2s-1.1,-0.8 -1.9,-0.8l-1.5,0l0,0.1z"
           class="st42" />
        <path
           id="svg_158"
           d="m321.1,243.6c-0.9,0 -1.6,-0.3 -2.1,-0.9s-0.8,-1.4 -0.8,-2.3l0,-0.3c0,-0.9 0.3,-1.7 0.8,-2.3s1.2,-0.9 1.9,-0.9c0.9,0 1.5,0.3 1.9,0.8s0.7,1.2 0.7,2.1l0,0.7l-4.1,0l0,0c0,0.6 0.2,1.1 0.5,1.5s0.7,0.6 1.2,0.6c0.4,0 0.7,-0.1 1,-0.2s0.5,-0.3 0.8,-0.5l0.5,0.8c-0.2,0.2 -0.5,0.4 -0.9,0.6s-0.9,0.3 -1.4,0.3zm-0.2,-5.7c-0.4,0 -0.7,0.2 -1,0.5s-0.4,0.7 -0.5,1.2l0,0l2.9,0l0,-0.2c0,-0.5 -0.1,-0.8 -0.4,-1.1s-0.5,-0.4 -1,-0.4z"
           class="st42" />
        <path
           id="svg_159"
           d="m324.5,245.2l1,-0.2l0,-7l-1,-0.2l0,-0.7l1.9,0l0.1,0.8c0.2,-0.3 0.5,-0.5 0.8,-0.7s0.7,-0.2 1.1,-0.2c0.8,0 1.4,0.3 1.8,0.9s0.7,1.4 0.7,2.5l0,0.1c0,0.9 -0.2,1.7 -0.7,2.2s-1,0.8 -1.8,0.8c-0.4,0 -0.7,-0.1 -1,-0.2s-0.5,-0.3 -0.8,-0.6l0,2.2l1,0.2l0,0.7l-3.1,0l0,-0.6zm5.2,-4.8c0,-0.7 -0.1,-1.3 -0.4,-1.8s-0.7,-0.7 -1.3,-0.7c-0.3,0 -0.6,0.1 -0.8,0.2s-0.4,0.4 -0.6,0.6l0,3.1c0.1,0.3 0.3,0.5 0.6,0.6s0.5,0.2 0.9,0.2c0.5,0 1,-0.2 1.2,-0.6s0.4,-0.9 0.4,-1.6l0,0z"
           class="st42" />
        <path
           id="svg_160"
           d="m331.7,235.1l0,-0.7l2.1,0l0,8.2l1,0.2l0,0.7l-3.1,0l0,-0.7l1,-0.2l0,-7.3l-1,-0.2z"
           class="st42" />
        <path
           id="svg_161"
           d="m335.5,240.3c0,-0.9 0.3,-1.7 0.8,-2.3s1.2,-0.9 2.1,-0.9c0.9,0 1.6,0.3 2.1,0.9s0.8,1.4 0.8,2.3l0,0.1c0,0.9 -0.3,1.7 -0.8,2.3s-1.2,0.9 -2.1,0.9c-0.9,0 -1.6,-0.3 -2.1,-0.9s-0.8,-1.4 -0.8,-2.3l0,-0.1zm1.1,0.1c0,0.7 0.1,1.2 0.4,1.7s0.7,0.7 1.3,0.7c0.5,0 1,-0.2 1.2,-0.7s0.4,-1 0.4,-1.7l0,-0.1c0,-0.7 -0.1,-1.2 -0.4,-1.7s-0.7,-0.7 -1.3,-0.7s-1,0.2 -1.3,0.7s-0.4,1 -0.4,1.7l0,0.1l0.1,0z"
           class="st42" />
        <path
           id="svg_162"
           d="m348.2,237.9l-0.6,0.1l-2.4,6.5c-0.2,0.4 -0.4,0.8 -0.7,1.1s-0.7,0.5 -1.2,0.5c-0.1,0 -0.2,0 -0.4,0s-0.3,0 -0.3,-0.1l0.1,-0.9c0,0 0,0 0.2,0s0.3,0 0.3,0c0.2,0 0.4,-0.1 0.6,-0.3s0.3,-0.5 0.4,-0.7l0.3,-0.7l-2.1,-5.4l-0.6,-0.1l0,-0.7l2.6,0l0,0.7l-0.7,0.1l1.1,3.1l0.2,0.8l0,0l1.3,-3.9l-0.7,-0.1l0,-0.7l2.6,0l0,0.7z"
           class="st42" />
        <path
           id="svg_163"
           d="m348.7,242.8l1,-0.2l0,-4.5l-1,-0.2l0,-0.7l2,0l0.1,0.8c0.2,-0.3 0.5,-0.5 0.8,-0.7s0.7,-0.2 1.1,-0.2s0.8,0.1 1.1,0.3s0.5,0.5 0.7,0.9c0.2,-0.4 0.5,-0.6 0.8,-0.9s0.7,-0.3 1.1,-0.3c0.6,0 1.2,0.2 1.5,0.7s0.6,1.1 0.6,2l0,2.9l1,0.2l0,0.7l-3.1,0l0,-0.7l1,-0.2l0,-2.9c0,-0.6 -0.1,-1.1 -0.3,-1.3s-0.5,-0.4 -1,-0.4c-0.4,0 -0.7,0.1 -1,0.4s-0.4,0.6 -0.4,1.1l0,3.1l1,0.2l0,0.7l-3.1,0l0,-0.7l1,-0.2l0,-2.9c0,-0.6 -0.1,-1 -0.3,-1.3s-0.5,-0.4 -1,-0.4c-0.4,0 -0.6,0.1 -0.9,0.2s-0.4,0.3 -0.5,0.6l0,3.8l1,0.2l0,0.7l-3.1,0l0,-0.8l-0.1,0z"
           class="st42" />
        <path
           id="svg_164"
           d="m363.1,243.6c-0.9,0 -1.6,-0.3 -2.1,-0.9s-0.8,-1.4 -0.8,-2.3l0,-0.3c0,-0.9 0.3,-1.7 0.8,-2.3s1.2,-0.9 1.9,-0.9c0.9,0 1.5,0.3 1.9,0.8s0.7,1.2 0.7,2.1l0,0.7l-4.1,0l0,0c0,0.6 0.2,1.1 0.5,1.5s0.7,0.6 1.2,0.6c0.4,0 0.7,-0.1 1,-0.2s0.5,-0.3 0.8,-0.5l0.5,0.8c-0.2,0.2 -0.5,0.4 -0.9,0.6s-0.9,0.3 -1.4,0.3zm-0.2,-5.7c-0.4,0 -0.7,0.2 -1,0.5s-0.4,0.7 -0.5,1.2l0,0l2.9,0l0,-0.2c0,-0.5 -0.1,-0.8 -0.4,-1.1s-0.5,-0.4 -1,-0.4z"
           class="st42" />
        <path
           id="svg_165"
           d="m366.5,242.8l1,-0.2l0,-4.5l-1,-0.2l0,-0.7l2,0l0.1,0.9c0.2,-0.3 0.5,-0.6 0.8,-0.8s0.7,-0.3 1.1,-0.3c0.7,0 1.2,0.2 1.6,0.6s0.6,1 0.6,1.9l0,3.1l1,0.2l0,0.7l-3.1,0l0,-0.7l1,-0.2l0,-3.1c0,-0.6 -0.1,-1 -0.3,-1.2s-0.6,-0.4 -1,-0.4c-0.3,0 -0.6,0.1 -0.9,0.2s-0.5,0.4 -0.6,0.7l0,3.7l1,0.2l0,0.7l-3.1,0l0,-0.6l-0.2,0z"
           class="st42" />
        <path
           id="svg_166"
           d="m376.4,235.6l0,1.5l1.2,0l0,0.9l-1.2,0l0,3.8c0,0.3 0.1,0.5 0.2,0.6s0.3,0.2 0.5,0.2c0.1,0 0.2,0 0.3,0s0.2,0 0.3,-0.1l0.2,0.8c-0.1,0.1 -0.3,0.1 -0.5,0.2s-0.4,0.1 -0.6,0.1c-0.5,0 -0.8,-0.1 -1.1,-0.4s-0.4,-0.7 -0.4,-1.3l0,-3.9l-1,0l0,-0.9l1,0l0,-1.5l1.1,0z"
           class="st42" />
      </g>
      <line
         id="svg_167"
         y2="241.1"
         x2="145"
         y1="241.1"
         x1="307.3"
         class="st62" />
    </g>
    <g
       id="Layer_14" />
    <text
       fill="#000000"
       stroke-width="0"
       stroke-dasharray="none"
       stroke-linejoin="null"
       stroke-linecap="null"
       x="295.48856"
       y="320.38455"
       id="svg_172"
       font-size="14.0752px"
       font-family="Sans-serif"
       text-anchor="middle"
       xml:space="preserve"
       transform="scale(1.0263185,0.97435641)"
       stroke="#000000">containerized App</text>
    <path
       id="svg_168"
       d="m 223.05187,295.75166 10.19507,4.9558 v 13.21547 l -10.19507,4.9558 -10.19507,-4.9558 v -13.21547 z"
       fill="#7f00ff"
       stroke="#000000" />
    <path
       d="m 223.06071,327.89798 10.19507,4.9558 v 13.21547 l -10.19507,4.9558 -10.19507,-4.9558 v -13.21547 z"
       fill="#ffffff"
       stroke="#007fff"
       id="svg_175" />
    <text
       fill="#000000"
       stroke-width="0"
       stroke-dasharray="none"
       stroke-linejoin="null"
       stroke-linecap="null"
       x="254.85732"
       y="354.46872"
       font-size="14.0752px"
       font-family="Sans-serif"
       text-anchor="middle"
       xml:space="preserve"
       transform="scale(1.0263185,0.97435641)"
       stroke="#000000"
       id="svg_176">Node</text>
    <line
       fill="none"
       stroke="#000000"
       stroke-dasharray="none"
       stroke-linejoin="null"
       stroke-linecap="null"
       x1="213.05228"
       y1="301.20474"
       x2="223.00772"
       y2="305.88525"
       id="svg_169" />
    <line
       fill="none"
       stroke="#000000"
       stroke-dasharray="none"
       stroke-linejoin="null"
       stroke-linecap="null"
       x1="233.03745"
       y1="300.61652"
       x2="222.78482"
       y2="305.89139"
       id="svg_171" />
    <line
       fill="none"
       stroke="#000000"
       stroke-dasharray="none"
       stroke-linejoin="null"
       stroke-linecap="null"
       x1="223.07083"
       y1="318.66388"
       x2="222.92224"
       y2="306.03384"
       id="svg_170" />
  </g>
  <g
     transform="translate(-224.55414,184.69046)"
     id="g592">
    <path
       inkscape:connector-curvature="0"
       class="st42"
       d="m 391.7,178.9 c 0.9,0 1.6,0.2 2.1,0.7 0.5,0.5 0.8,1.1 0.8,1.9 0,0.8 -0.3,1.4 -0.8,1.9 -0.5,0.5 -1.2,0.7 -2.1,0.7 h -1.8 v 2.5 l 1,0.2 v 0.7 h -3.1 v -0.7 l 1,-0.2 v -6.7 l -1,-0.2 V 179 h 1 2.9 z m -1.8,4.2 h 1.8 c 0.6,0 1,-0.2 1.3,-0.5 0.3,-0.3 0.4,-0.7 0.4,-1.2 0,-0.5 -0.1,-0.9 -0.4,-1.2 -0.3,-0.3 -0.7,-0.5 -1.3,-0.5 h -1.8 z"
       id="path586" />
    <path
       inkscape:connector-curvature="0"
       class="st42"
       d="m 395.4,184.2 c 0,-0.9 0.3,-1.7 0.8,-2.3 0.5,-0.6 1.2,-0.9 2.1,-0.9 0.9,0 1.6,0.3 2.1,0.9 0.5,0.6 0.8,1.4 0.8,2.3 v 0.1 c 0,0.9 -0.3,1.7 -0.8,2.3 -0.5,0.6 -1.2,0.9 -2.1,0.9 -0.9,0 -1.6,-0.3 -2.1,-0.9 -0.5,-0.6 -0.8,-1.4 -0.8,-2.3 z m 1.2,0.1 c 0,0.7 0.1,1.2 0.4,1.7 0.3,0.5 0.7,0.7 1.3,0.7 0.5,0 1,-0.2 1.2,-0.7 0.2,-0.5 0.4,-1 0.4,-1.7 v -0.1 c 0,-0.7 -0.1,-1.2 -0.4,-1.7 -0.3,-0.5 -0.7,-0.7 -1.3,-0.7 -0.6,0 -1,0.2 -1.3,0.7 -0.3,0.5 -0.4,1 -0.4,1.7 v 0.1 z"
       id="path588" />
    <path
       inkscape:connector-curvature="0"
       class="st42"
       d="m 406.4,186.6 c -0.2,0.3 -0.5,0.5 -0.8,0.7 -0.3,0.2 -0.6,0.2 -1,0.2 -0.8,0 -1.4,-0.3 -1.8,-0.8 -0.4,-0.5 -0.7,-1.3 -0.7,-2.2 v -0.1 c 0,-1 0.2,-1.8 0.7,-2.5 0.5,-0.7 1,-0.9 1.8,-0.9 0.4,0 0.7,0.1 1,0.2 0.3,0.1 0.5,0.3 0.7,0.6 v -2.6 l -1,-0.2 v -0.7 h 1 1.2 v 8.2 l 1,0.2 v 0.7 h -2 z m -3.1,-2.1 c 0,0.6 0.1,1.1 0.4,1.5 0.3,0.4 0.7,0.6 1.2,0.6 0.3,0 0.6,-0.1 0.9,-0.2 0.3,-0.1 0.4,-0.4 0.6,-0.7 v -2.9 c -0.1,-0.3 -0.3,-0.5 -0.6,-0.6 -0.3,-0.1 -0.5,-0.2 -0.9,-0.2 -0.6,0 -1,0.2 -1.2,0.7 -0.2,0.5 -0.4,1.1 -0.4,1.8 z"
       id="path590" />
  </g>
  <line
     style="fill:none;stroke:#011f38;stroke-width:0.258828;stroke-linecap:round;stroke-linejoin:round;stroke-miterlimit:10"
     class="st62"
     x1="160.63824"
     y1="367.69046"
     x2="90.445847"
     y2="367.69046"
     id="line594" />
</svg>
