<?xml version="1.0" encoding="utf-8"?>
<svg xmlns="http://www.w3.org/2000/svg" width="476.1" height="385.3" viewBox="0 0 476.1 385.3"
   version="1.1" id="m01-svg">
   <style type="text/css">
      /* Dark theme override for #m01-svg */
      .dark #m01-svg,
      .theme-dark #m01-svg,
      [data-bs-theme="dark"] #m01-svg,
      [data-theme="dark"] #m01-svg {
         --svg-bg: transparent;
         --mint: #06F7C9;
         --yellow: #EEF406;
         --orange: #F29202;
         --purple: #8115FF;
         --gray: #6D6E71;
          --corner-light-blue: #A0CAEA;
          --shell-fill: #1e1e1ecc;
          --stroke-blue: #5b92ff;
          --stroke-accent: #5b92ff;
          --width-master-shell: 6px;
          --width-node-outline: 2px;
          --deployment-icon-dark: #0a192f;
          --width-node-hexagon: 1.6px;
          --text-color: #ffffff;
          --bg-opacity: 0.2;
          --leader-line: #5b92ff;
          --width-leader-line: 0.3px;
          --label-color: #dde6f0;
          --gradient-start: #1f51b5;
          --gradient-end: #00b386;
      }

      /* Default styles (Light theme) */
      #m01-svg {
         --svg-bg: transparent;
         --mint: #06F7C9;
         --yellow: #EEF406;
         --orange: #F29202;
         --purple: #8115FF;
         --gray: #6D6E71;
          --corner-light-blue: #A0CAEA;
          --shell-fill: #ffffffcc;
          --stroke-blue: #006de9;
          --stroke-accent: #326de6;
          --width-master-shell: 6px;
          --width-node-outline: 2px;
          --deployment-icon-dark: #011f38;
          --width-node-hexagon: 1.6px;
          --text-color: #ffffff;
          --bg-opacity: 0.13;
          --leader-line: #011f38;
          --width-leader-line: 0.3px;
          --label-color: #011f38;
          --gradient-start: #326DE6;
          --gradient-end: #10FFC6;
      }

      #m01-svg {
          background-color: var(--svg-bg);
      }

       #m01-svg .master-shell {
         fill: var(--shell-fill);
         stroke: var(--stroke-blue);
         stroke-width: var(--width-master-shell, 6px);
         stroke-linecap: round;
         stroke-linejoin: round;
         stroke-miterlimit: 10;
      }

      #m01-svg .node-hexagon-outline {
         fill: var(--shell-fill);
         stroke: var(--stroke-accent);
         stroke-width: var(--width-node-outline, 2px);
         stroke-linecap: round;
         stroke-linejoin: round;
         stroke-miterlimit: 10;
      }

      #m01-svg .corner-accent {
         opacity: 0.71;
         fill: var(--stroke-accent);
      }

      #m01-svg .corner-dark {
         opacity: 1;
         fill: var(--deployment-icon-dark);
      }

      #m01-svg .node-hexagon {
         fill: var(--shell-fill);
         stroke: var(--stroke-blue);
         stroke-width: var(--width-node-outline, 2px);
         stroke-linecap: round;
         stroke-linejoin: round;
         stroke-miterlimit: 10;
      }

      #m01-svg .corner-blue {
         fill: var(--stroke-blue);
      }

       #m01-svg .corner-light-blue {
          fill: var(--corner-light-blue);
       }

      #m01-svg .text-icon {
         fill: var(--text-color);
         font-weight: bold;
      }

      #m01-svg .bg-opacity {
         opacity: var(--bg-opacity, 0.13);
      }

      #m01-svg .cluster-gradient {
         fill: url(#cluster-gradient);
      }

      #m01-svg .hexagon-face {
         fill: var(--stroke-accent);
      }

      #m01-svg .node-outline {
         fill: var(--shell-fill);
         stroke: var(--stroke-accent);
         stroke-width: var(--width-node-hexagon, 1.6px);
         stroke-linecap: round;
         stroke-linejoin: round;
         stroke-miterlimit: 10;
      }

      #m01-svg .leader-line {
         fill: none;
         stroke: var(--leader-line);
         stroke-width: var(--width-leader-line, 0.3px);
         stroke-linecap: round;
         stroke-linejoin: round;
         stroke-miterlimit: 10;
      }

      #m01-svg .label-bold,
      #m01-svg .label-normal {
         fill: var(--label-color);
         font-size: 13.3333px;
         font-family: Courier;
      }

      #m01-svg .label-bold {
         font-weight: bold;
      }

      #m01-svg .label-normal {
         font-weight: normal;
      }
   </style>
   <defs>
      <linearGradient id="cluster-gradient" gradientUnits="userSpaceOnUse" x1="28.6348" y1="185.29311" x2="343.09021" y2="185.29311">
         <stop id="gradient-start" offset="0" stop-color="var(--gradient-start)" />
         <stop id="gradient-end" offset="1" stop-color="var(--gradient-end)" />
      </linearGradient>
   </defs>

   <symbol viewBox="-68.6 -66.9 137.2 133.9" id="master-icon">
      <g id="master-shell-group">

         <polygon id="master-hexagon" class="master-shell" fill="var(--shell-fill)" stroke="var(--stroke-blue)"
            stroke-width="var(--width-master-shell, 6px)" stroke-linecap="round" stroke-linejoin="round"
            points="-29.2,-63.9 -65.6,-18.3 -52.6,38.6 0,63.9 52.6,38.6 65.6,-18.3 29.2,-63.9" />
      </g>
   </symbol>
   <symbol id="node_high_level" viewBox="-81 -93 162 186.1">
      <polygon id="node-1-hexagon" class="node-hexagon-outline" points="-80,-46 -80,46 0,92 80,46 80,-46 0,-92" />
   </symbol>
   <symbol id="node_x5F_empty" viewBox="-87.5 -100.6 175.1 201.1">
      <use id="XMLID_201_"
         transform="matrix(1.0808000564575195, 0, 0, 1.0808000564575195, -87.54483749312203, -100.51444274998357)"
         height="186.1" width="162" href="#node_high_level" />
      <g id="node-1-group">
         <polygon id="node-1-accent" class="corner-accent" points="76.8,-28.1 -14,-80.3 0,-88.3 76.7,-44.4" />
         <polygon id="node-1-dark" class="corner-dark" points="76.8,-28.1 32.1,-53.8 38.8,-66.1 76.7,-44.4" />
      </g>
   </symbol>
   <symbol id="node_x5F_new" viewBox="-87.6 -101 175.2 202">
      <polygon id="node-2-hexagon" class="node-hexagon" points="0,-100 -86.6,-50 -86.6,50 0,100 86.6,50 86.6,-50" />
      <polygon id="node-2-corner" class="corner-blue" points="-86.6,-20.2 -86.6,-50 0,-100 25.8,-85.1" />
      <polygon id="node-2-light-blue" class="corner-light-blue" points="-40.8,-70.7 -32.9,-57 15.7,-85.1 0,-94.3" />
      <text id="node-2-k8s-icon" class="text-icon" font-family="'RobotoSlab-Regular'" font-size="11.3632px"
         transform="matrix(0.866,-0.5,-0.5,-0.866,-33.9256,-70.7388) " style="white-space: pre;">
         Docker</text>
      <text id="node-2-docker-icon" class="text-icon" font-family="'RobotoSlab-Regular'" font-size="11.3632px"
         transform="matrix(0.866,-0.5,-0.5,-0.866,-76.0668,-46.4087) " style="white-space: pre;">
         Kubelet</text>
   </symbol>
   <g id="g159">
      <g id="CLUSTER" transform="translate(-1.9963203,-15.750631)">
         <g id="XMLID_296_" class="bg-opacity">
            <g id="cluster-bg-inner">
<polygon id="cluster-bg-hexagon" class="cluster-gradient"
                  points="343.1,229.2 255.8,338.6 115.9,338.6 28.6,229.2 59.8,92.7 185.9,32 311.9,92.7" />
            </g>
         </g>
      </g>
      <g id="master">
         <use id="master-use"
            transform="matrix(0.4000000059604645, 0, 0, -0.4000000059604645, 158.4205959045887, 214.0114048177004)"
            height="133.89999" width="137.2" href="#master-icon" />
         <g id="master_x5F_level1" />
      </g>
      <g id="description">
         <g id="node-empty" />
         <text id="label-cluster" class="label-bold" x="106.34034" y="341.76721" style="white-space: pre;">
            <tspan id="label-cluster-span" x="106.34034" y="341.76721">Kubernetes Cluster</tspan>
         </text>
      </g>
      <g id="Node">
         <g id="Node_x5F_level3_x5F_1">
            <g id="Isolation_Mode" />
         </g>
         <polygon id="node-3-hexagon" class="node-outline"
            points="111.4,139.9 111.4,98.7 147.1,78.2 182.7,98.7 182.7,139.9 147.1,160.4" />
         <polygon id="node-3-face" class="hexagon-face" points="129.3,150.2 147.1,160.4 182.7,139.9 182.7,119.3" />
         <polygon id="node-3-corner" class="corner-light-blue" points="163.5,147.7 157.4,137.2 179.9,124.2 179.9,138.3" />
         <g id="node-3-k8s-icon-1">
            <path id="node-3-path-1" class="text-icon" d="m 162.5,139.3 c 0.4,-0.3 0.9,-0.3 1.3,-0.2 0.4,0.1 0.8,0.4 1,0.8 l 0.3,0.5 c 0.3,0.4 0.3,0.9 0.2,1.3 -0.1,0.4 -0.4,0.8 -0.8,1 l -1.4,0.8 -0.2,-0.3 0.3,-0.3 -1.6,-2.7 -0.4,0.2 -0.2,-0.3 0.4,-0.2 z m -0.4,0.7 1.6,2.7 0.6,-0.3 c 0.3,-0.2 0.5,-0.4 0.6,-0.8 0.1,-0.3 0,-0.6 -0.2,-1 l -0.3,-0.5 c -0.2,-0.3 -0.4,-0.5 -0.7,-0.6 -0.3,-0.1 -0.6,-0.1 -0.9,0.1 z" />
            <path id="node-3-path-2" class="text-icon" d="m 165.7,140.3 c -0.2,-0.4 -0.3,-0.8 -0.2,-1.1 0.1,-0.4 0.3,-0.6 0.6,-0.9 0.4,-0.2 0.7,-0.2 1.1,-0.1 0.3,0.1 0.6,0.4 0.9,0.8 v 0.1 c 0.2,0.4 0.3,0.8 0.2,1.1 -0.1,0.4 -0.3,0.6 -0.6,0.8 -0.4,0.2 -0.7,0.2 -1.1,0.1 -0.4,-0.1 -0.7,-0.3 -0.9,-0.8 z m 0.5,-0.2 c 0.2,0.3 0.3,0.5 0.6,0.6 0.2,0.1 0.4,0.1 0.7,0 0.2,-0.1 0.3,-0.3 0.4,-0.6 0,-0.2 -0.1,-0.5 -0.2,-0.8 v -0.1 c -0.2,-0.3 -0.3,-0.5 -0.6,-0.6 -0.2,-0.1 -0.4,-0.1 -0.7,0 -0.2,0.1 -0.3,0.3 -0.4,0.6 -0.1,0.3 0,0.6 0.2,0.9 z" />
            <path id="node-3-path-3" class="text-icon" d="m 170.1,139.1 c 0.2,-0.1 0.3,-0.2 0.3,-0.4 0.1,-0.2 0.1,-0.3 0,-0.5 l 0.4,-0.2 v 0 c 0.1,0.2 0.2,0.5 0,0.8 -0.1,0.3 -0.3,0.5 -0.6,0.7 -0.4,0.2 -0.7,0.3 -1.1,0.1 -0.3,-0.1 -0.6,-0.4 -0.8,-0.7 l -0.1,-0.1 c -0.2,-0.4 -0.3,-0.7 -0.2,-1.1 0.1,-0.4 0.3,-0.6 0.6,-0.9 0.2,-0.1 0.4,-0.2 0.6,-0.2 0.2,0 0.4,0 0.6,0 l 0.3,0.6 -0.4,0.2 -0.3,-0.3 c -0.1,0 -0.2,0 -0.3,0 -0.1,0 -0.2,0.1 -0.3,0.1 -0.2,0.1 -0.4,0.3 -0.4,0.6 0,0.2 0.1,0.5 0.2,0.7 l 0.1,0.1 c 0.2,0.3 0.3,0.5 0.5,0.6 0.5,0 0.7,0 0.9,-0.1 z" />
            <path id="node-3-path-4" class="text-icon" d="m 169.8,135.2 -0.2,-0.3 0.9,-0.5 1.2,2.1 0.3,-0.2 0.2,-1 -0.3,0.1 -0.2,-0.3 1.1,-0.6 0.2,0.3 -0.3,0.2 -0.2,1.2 1.4,0.6 0.3,-0.1 0.2,0.3 -1.1,0.6 -0.2,-0.3 0.2,-0.2 -1.2,-0.5 -0.3,0.2 0.5,0.8 0.4,-0.2 0.2,0.3 -1.2,0.7 -0.2,-0.3 0.3,-0.3 -1.7,-3 z" />
            <path id="node-3-path-5" class="text-icon" d="m 175.9,136.3 c -0.4,0.2 -0.7,0.3 -1.1,0.1 -0.4,-0.2 -0.6,-0.4 -0.9,-0.7 l -0.1,-0.1 c -0.2,-0.4 -0.3,-0.7 -0.2,-1.1 0.1,-0.4 0.3,-0.6 0.6,-0.8 0.3,-0.2 0.7,-0.2 1,-0.1 0.3,0.1 0.5,0.3 0.7,0.7 l 0.2,0.3 -1.7,1 v 0 c 0.1,0.2 0.3,0.4 0.5,0.5 0.2,0.1 0.4,0.1 0.6,-0.1 0.2,-0.1 0.3,-0.2 0.4,-0.3 0.1,-0.1 0.2,-0.2 0.2,-0.4 l 0.4,0.2 c 0,0.1 -0.1,0.3 -0.2,0.4 0,0.1 -0.2,0.2 -0.4,0.4 z m -1.4,-2.3 c -0.2,0.1 -0.3,0.2 -0.3,0.4 0,0.2 0,0.4 0.1,0.6 v 0 l 1.2,-0.7 v -0.1 c -0.1,-0.2 -0.2,-0.3 -0.4,-0.4 -0.2,0.1 -0.4,0.1 -0.6,0.2 z" />
            <path id="node-3-path-6" class="text-icon" d="m 176,133.1 -0.2,-0.3 0.8,-0.5 0.3,0.3 c 0,-0.2 0,-0.3 0.1,-0.5 0.1,-0.1 0.2,-0.2 0.3,-0.3 0,0 0.1,0 0.1,-0.1 0,0 0.1,0 0.1,0 l 0.2,0.5 -0.3,0.1 c -0.1,0.1 -0.2,0.2 -0.3,0.3 -0.1,0.1 -0.1,0.2 -0.1,0.4 l 0.8,1.5 0.4,-0.2 0.2,0.3 -1.2,0.7 -0.2,-0.3 0.3,-0.3 -1.1,-1.8 z" />
         </g>
         <g id="node-3-k8s-icon-2">
            <path id="node-3-path-7" class="text-icon" d="m 141.1,151.8 -0.2,-0.3 0.9,-0.5 1.2,2.1 0.3,-0.2 0.2,-1 -0.3,0.1 -0.2,-0.3 1.1,-0.6 0.2,0.3 -0.3,0.2 -0.2,1.2 1.4,0.6 0.3,-0.1 0.2,0.3 -1.1,0.6 -0.2,-0.3 0.2,-0.2 -1.2,-0.5 -0.3,0.2 0.5,0.8 0.4,-0.2 0.2,0.3 -1.2,0.7 -0.2,-0.3 0.3,-0.3 -1.7,-3 z" />
            <path id="node-3-path-8" class="text-icon" d="m 147.6,152 c 0,0.2 0,0.3 -0.1,0.5 -0.1,0.1 -0.2,0.3 -0.4,0.4 -0.3,0.2 -0.5,0.2 -0.8,0.1 -0.3,-0.1 -0.5,-0.3 -0.7,-0.7 l -0.7,-1.1 -0.3,0.1 -0.2,-0.3 0.3,-0.2 0.5,-0.3 0.9,1.5 c 0.2,0.3 0.3,0.4 0.4,0.5 0.1,0.1 0.3,0 0.5,-0.1 0.2,-0.1 0.3,-0.2 0.4,-0.3 0.1,-0.1 0.1,-0.3 0.1,-0.4 l -0.9,-1.5 -0.4,0.1 -0.2,-0.3 0.3,-0.2 0.5,-0.3 1.3,2.2 0.3,-0.1 0.2,0.3 -0.7,0.4 z" />
            <path id="node-3-path-9" class="text-icon" d="m 150.6,149.2 c 0.2,0.4 0.3,0.7 0.2,1 0,0.3 -0.2,0.6 -0.5,0.8 -0.2,0.1 -0.3,0.1 -0.5,0.2 -0.2,0 -0.3,0 -0.5,-0.1 l 0.1,0.4 -0.4,0.2 -1.9,-3.3 -0.4,0.2 -0.2,-0.3 0.9,-0.5 0.8,1.4 c 0,-0.2 0.1,-0.3 0.1,-0.4 0.1,-0.1 0.2,-0.2 0.4,-0.3 0.3,-0.2 0.6,-0.2 1,0 0.4,0.2 0.7,0.2 0.9,0.7 z m -0.5,0.2 c -0.2,-0.3 -0.4,-0.5 -0.6,-0.6 -0.2,-0.1 -0.4,-0.1 -0.7,0 -0.1,0.1 -0.2,0.2 -0.3,0.3 -0.1,0.1 -0.1,0.3 -0.1,0.4 l 0.7,1.1 c 0.1,0.1 0.3,0.1 0.4,0.1 0.1,0 0.3,0 0.4,-0.1 0.2,-0.1 0.3,-0.3 0.4,-0.5 0.1,-0.2 0,-0.4 -0.2,-0.7 z" />
            <path id="node-3-path-10" class="text-icon" d="m 153,149.5 c -0.4,0.2 -0.7,0.3 -1.1,0.1 -0.4,-0.2 -0.6,-0.4 -0.9,-0.7 l -0.1,-0.1 c -0.2,-0.4 -0.3,-0.7 -0.2,-1.1 0.1,-0.4 0.3,-0.6 0.6,-0.8 0.3,-0.2 0.7,-0.2 1,-0.1 0.3,0.1 0.5,0.3 0.7,0.7 l 0.2,0.3 -1.7,1 v 0 c 0.1,0.2 0.3,0.4 0.5,0.5 0.2,0.1 0.4,0.1 0.6,-0.1 0.2,-0.1 0.3,-0.2 0.4,-0.3 0.1,-0.1 0.2,-0.2 0.2,-0.4 l 0.4,0.2 c 0,0.1 -0.1,0.3 -0.2,0.4 -0.1,0.1 -0.2,0.2 -0.4,0.4 z m -1.4,-2.3 c -0.2,0.1 -0.3,0.2 -0.3,0.4 0,0.2 0,0.4 0.1,0.6 v 0 l 1.2,-0.7 v -0.1 c -0.1,-0.2 -0.2,-0.3 -0.4,-0.4 -0.2,-0.1 -0.4,0.1 -0.6,0.2 z" />
            <path id="node-3-path-11" class="text-icon" d="m 152.4,145.2 -0.2,-0.3 0.9,-0.5 1.9,3.3 0.4,-0.2 0.2,0.3 -1.2,0.7 -0.2,-0.3 0.3,-0.3 -1.7,-3 z" />
            <path id="node-3-path-12" class="text-icon" d="m 157.1,147.1 c -0.4,0.2 -0.7,0.3 -1.1,0.1 -0.4,-0.2 -0.6,-0.4 -0.9,-0.7 l -0.1,-0.1 c -0.2,-0.4 -0.3,-0.7 -0.2,-1.1 0.1,-0.4 0.3,-0.6 0.6,-0.8 0.3,-0.2 0.7,-0.2 1,-0.1 0.3,0.1 0.5,0.3 0.7,0.7 l 0.2,0.3 -1.7,1 v 0 c 0.1,0.2 0.3,0.4 0.5,0.5 0.2,0.1 0.4,0.1 0.6,-0.1 0.2,-0.1 0.3,-0.2 0.4,-0.3 0.1,-0.1 0.2,-0.2 0.2,-0.4 l 0.4,0.2 c 0,0.1 -0.1,0.3 -0.2,0.4 -0.1,0.1 -0.2,0.3 -0.4,0.4 z m -1.4,-2.3 c -0.2,0.1 -0.3,0.2 -0.3,0.4 0,0.2 0,0.4 0.1,0.6 v 0 l 1.2,-0.7 V 145 c -0.1,-0.2 -0.2,-0.3 -0.4,-0.4 -0.2,0.1 -0.4,0.1 -0.6,0.2 z" />
            <path id="node-3-path-13" class="text-icon" d="m 157.5,142.6 0.4,0.6 0.5,-0.3 0.2,0.3 -0.5,0.3 0.9,1.6 c 0.1,0.1 0.1,0.2 0.2,0.2 0.1,0 0.2,0 0.2,0 0,0 0.1,-0.1 0.1,-0.1 0,0 0.1,-0.1 0.1,-0.1 l 0.2,0.3 c 0,0.1 -0.1,0.1 -0.2,0.2 -0.1,0.1 -0.2,0.1 -0.2,0.2 -0.2,0.1 -0.4,0.1 -0.6,0.1 -0.2,0 -0.3,-0.2 -0.5,-0.4 l -0.9,-1.6 -0.4,0.2 -0.2,-0.3 0.4,-0.2 -0.4,-0.6 z" />
         </g>
         <polygon id="node-4-hexagon" class="node-outline"
            points="189.4,98.7 225.1,78.2 260.7,98.7 260.7,139.9 225.1,160.4 189.4,139.9" />
         <polygon id="node-4-face" class="hexagon-face" points="189.4,119.3 189.4,139.9 225.1,160.4 242.9,150.2" />
         <polygon id="node-4-corner" class="corner-light-blue" points="208.7,147.7 214.8,137.2 237.3,150.2 225.1,157.2" />
         <g id="node-4-k8s-icon-1">
            <path id="node-4-path-1" class="text-icon" d="m 215.5,142.6 c 0.5,0.3 0.7,0.6 0.8,1 0.1,0.4 0,0.9 -0.2,1.3 l -0.3,0.5 c -0.3,0.4 -0.6,0.7 -1,0.8 -0.4,0.1 -0.9,0 -1.3,-0.2 l -1.4,-0.8 0.2,-0.3 0.4,0.2 1.6,-2.7 -0.3,-0.3 0.2,-0.3 0.4,0.2 z m -0.8,0 -1.6,2.7 0.6,0.3 c 0.3,0.2 0.6,0.2 0.9,0.1 0.3,-0.1 0.6,-0.3 0.7,-0.6 l 0.3,-0.5 c 0.2,-0.3 0.2,-0.6 0.2,-1 -0.1,-0.3 -0.3,-0.6 -0.6,-0.8 z" />
            <path id="node-4-path-2" class="text-icon" d="m 216.2,145.9 c 0.2,-0.4 0.5,-0.6 0.8,-0.8 0.3,-0.1 0.7,-0.1 1,0.1 0.4,0.2 0.6,0.5 0.6,0.9 0.1,0.4 0,0.7 -0.2,1.1 v 0.1 c -0.2,0.4 -0.5,0.6 -0.8,0.8 -0.3,0.1 -0.7,0.1 -1,-0.1 -0.4,-0.2 -0.6,-0.5 -0.6,-0.9 -0.1,-0.4 0,-0.8 0.2,-1.2 z m 0.5,0.3 c -0.2,0.3 -0.2,0.5 -0.2,0.8 0,0.2 0.1,0.4 0.4,0.6 0.2,0.1 0.4,0.1 0.7,0 0.2,-0.1 0.4,-0.3 0.6,-0.6 v -0.1 c 0.2,-0.3 0.2,-0.5 0.2,-0.8 0,-0.2 -0.1,-0.4 -0.4,-0.6 -0.2,-0.1 -0.4,-0.1 -0.7,0 -0.3,0.2 -0.5,0.4 -0.6,0.7 z" />
            <path id="node-4-path-3" class="text-icon" d="m 219.5,149.1 c 0.2,0.1 0.3,0.1 0.5,0.1 0.2,0 0.3,-0.1 0.4,-0.2 l 0.4,0.2 v 0 c -0.1,0.2 -0.3,0.4 -0.6,0.4 -0.3,0.1 -0.6,0 -0.9,-0.2 -0.4,-0.2 -0.6,-0.5 -0.6,-0.9 -0.1,-0.4 0,-0.7 0.2,-1.1 l 0.1,-0.1 c 0.2,-0.4 0.5,-0.6 0.8,-0.7 0.3,-0.1 0.7,-0.1 1.1,0.1 0.2,0.1 0.4,0.3 0.5,0.4 0.1,0.1 0.2,0.3 0.2,0.5 l -0.3,0.6 -0.4,-0.2 0.1,-0.5 c 0,-0.1 -0.1,-0.2 -0.1,-0.3 -0.1,-0.1 -0.2,-0.2 -0.3,-0.2 -0.2,-0.1 -0.5,-0.2 -0.7,0 -0.2,0.1 -0.4,0.3 -0.5,0.6 l -0.1,0.1 c -0.2,0.3 -0.2,0.5 -0.2,0.7 0.1,0.4 0.2,0.6 0.4,0.7 z" />
            <path id="node-4-path-4" class="text-icon" d="m 222.7,146.8 0.2,-0.3 0.9,0.5 -1.2,2.1 0.3,0.2 0.9,-0.4 -0.2,-0.2 0.2,-0.3 1.1,0.6 -0.2,0.3 -0.3,-0.1 -1.1,0.4 0.2,1.5 0.3,0.2 -0.2,0.3 -1.1,-0.6 0.2,-0.3 0.3,0.1 -0.2,-1.2 -0.3,-0.2 -0.5,0.8 0.3,0.3 -0.2,0.3 -1.2,-0.7 0.2,-0.3 0.4,0.2 1.7,-3 z" />
            <path id="node-4-path-5" class="text-icon" d="m 224.8,152.7 c -0.4,-0.2 -0.6,-0.5 -0.6,-0.8 0,-0.3 0,-0.7 0.2,-1.1 l 0.1,-0.1 c 0.2,-0.4 0.5,-0.6 0.9,-0.7 0.4,-0.1 0.7,-0.1 1,0.1 0.3,0.2 0.5,0.5 0.6,0.8 0.1,0.3 0,0.6 -0.2,1 l -0.2,0.3 -1.7,-1 v 0 c -0.1,0.2 -0.2,0.5 -0.2,0.7 0,0.2 0.2,0.4 0.4,0.5 0.2,0.1 0.3,0.1 0.5,0.2 0.1,0 0.3,0 0.4,0 v 0.4 c -0.1,0 -0.3,0 -0.5,0 -0.2,0 -0.4,-0.2 -0.7,-0.3 z m 1.3,-2.4 c -0.2,-0.1 -0.3,-0.1 -0.5,0 -0.2,0.1 -0.4,0.2 -0.5,0.4 v 0 l 1.2,0.7 v -0.1 c 0.1,-0.2 0.1,-0.4 0.1,-0.5 0,-0.2 -0.1,-0.4 -0.3,-0.5 z" />
            <path id="node-4-path-6" class="text-icon" d="m 227.6,151.2 0.2,-0.3 0.8,0.5 -0.2,0.4 c 0.1,-0.1 0.3,-0.1 0.4,-0.2 0.1,0 0.3,0 0.4,0.1 0,0 0.1,0 0.1,0.1 0,0 0.1,0.1 0.1,0.1 l -0.3,0.4 -0.3,-0.2 c -0.1,-0.1 -0.2,-0.1 -0.4,-0.1 -0.1,0 -0.2,0.1 -0.3,0.1 l -0.8,1.5 0.3,0.3 -0.2,0.3 -1.2,-0.7 0.2,-0.3 0.4,0.2 1.1,-1.8 z" />
         </g>
         <g id="node-4-k8s-icon-2">
            <path id="node-4-path-7" class="text-icon" d="m 194,130.3 0.2,-0.3 0.9,0.5 -1.2,2.1 0.3,0.2 0.9,-0.4 -0.2,-0.2 0.2,-0.3 1.1,0.6 -0.2,0.3 -0.3,-0.1 -1.1,0.4 0.2,1.5 0.3,0.2 -0.2,0.3 -1.1,-0.6 0.2,-0.3 0.3,0.1 -0.2,-1.2 -0.3,-0.2 -0.5,0.8 0.3,0.3 -0.2,0.3 -1.2,-0.7 0.2,-0.3 0.4,0.2 1.7,-3 z" />
            <path id="node-4-path-8" class="text-icon" d="m 197.1,136.1 c -0.2,0.1 -0.3,0.1 -0.5,0.1 -0.2,0 -0.3,0 -0.5,-0.1 -0.3,-0.2 -0.4,-0.4 -0.5,-0.6 -0.1,-0.3 0,-0.6 0.2,-1 l 0.7,-1.1 -0.3,-0.2 0.2,-0.3 0.3,0.2 0.5,0.3 -0.9,1.5 c -0.2,0.3 -0.2,0.5 -0.2,0.6 0,0.1 0.1,0.3 0.3,0.4 0.2,0.1 0.3,0.1 0.5,0.1 0.1,0 0.3,-0.1 0.4,-0.1 l 0.9,-1.5 -0.3,-0.3 0.2,-0.3 0.3,0.2 0.5,0.3 -1.3,2.2 0.3,0.2 -0.2,0.3 -0.7,-0.4 z" />
            <path id="node-4-path-9" class="text-icon" d="m 201,137.3 c -0.2,0.4 -0.5,0.6 -0.8,0.7 -0.3,0.1 -0.6,0.1 -0.9,-0.1 -0.2,-0.1 -0.3,-0.2 -0.4,-0.3 -0.1,-0.1 -0.1,-0.3 -0.1,-0.5 l -0.2,0.3 -0.4,-0.2 1.9,-3.3 -0.3,-0.3 0.2,-0.3 0.9,0.5 -0.8,1.4 c 0.1,-0.1 0.3,-0.1 0.5,-0.1 0.2,0 0.3,0.1 0.5,0.2 0.3,0.2 0.5,0.5 0.5,0.8 0,0.3 -0.3,0.7 -0.6,1.2 z m -0.4,-0.4 c 0.2,-0.3 0.3,-0.6 0.3,-0.8 0,-0.2 -0.1,-0.4 -0.3,-0.6 -0.1,-0.1 -0.3,-0.1 -0.4,-0.1 -0.1,0 -0.3,0.1 -0.4,0.1 l -0.7,1.1 c 0,0.2 0,0.3 0.1,0.4 0.1,0.1 0.2,0.2 0.3,0.3 0.2,0.1 0.4,0.1 0.6,0 0.1,0.1 0.3,-0.1 0.5,-0.4 z" />
            <path id="node-4-path-10" class="text-icon" d="m 202,139.4 c -0.4,-0.2 -0.6,-0.5 -0.6,-0.8 -0.1,-0.4 0,-0.7 0.2,-1.1 l 0.1,-0.1 c 0.2,-0.4 0.5,-0.6 0.9,-0.7 0.4,-0.1 0.7,-0.1 1,0.1 0.3,0.2 0.5,0.5 0.6,0.8 0.1,0.3 0,0.6 -0.2,1 l -0.2,0.3 -1.7,-1 v 0 c -0.1,0.2 -0.2,0.5 -0.2,0.7 0,0.2 0.2,0.4 0.4,0.5 0.2,0.1 0.3,0.1 0.5,0.2 0.1,0 0.3,0 0.4,0 v 0.4 c -0.1,0 -0.3,0 -0.5,0 -0.3,-0.1 -0.5,-0.1 -0.7,-0.3 z m 1.2,-2.3 c -0.2,-0.1 -0.3,-0.1 -0.5,0 -0.2,0.1 -0.3,0.2 -0.5,0.4 v 0 l 1.2,0.7 v -0.1 c 0.1,-0.2 0.1,-0.4 0.1,-0.5 0,-0.2 -0.1,-0.4 -0.3,-0.5 z" />
            <path id="node-4-path-11" class="text-icon" d="m 205.3,136.8 0.2,-0.3 0.9,0.5 -1.9,3.3 0.3,0.3 -0.2,0.3 -1.2,-0.7 0.2,-0.3 0.4,0.2 1.7,-3 z" />
            <path id="node-4-path-12" class="text-icon" d="m 206.1,141.8 c -0.4,-0.2 -0.6,-0.5 -0.6,-0.8 -0.1,-0.4 0,-0.7 0.2,-1.1 l 0.1,-0.1 c 0.2,-0.4 0.5,-0.6 0.9,-0.7 0.4,-0.1 0.7,-0.1 1,0.1 0.3,0.2 0.5,0.5 0.6,0.8 0.1,0.3 0,0.6 -0.2,1 l -0.2,0.3 -1.7,-1 v 0 c -0.1,0.2 -0.2,0.5 -0.2,0.7 0,0.2 0.2,0.4 0.4,0.5 0.2,0.1 0.3,0.1 0.5,0.2 0.1,0 0.3,0 0.4,0 v 0.4 c -0.1,0 -0.3,0 -0.5,0 -0.3,-0.1 -0.5,-0.2 -0.7,-0.3 z m 1.2,-2.3 c -0.2,-0.1 -0.3,-0.1 -0.5,0 -0.2,0.1 -0.3,0.2 -0.5,0.4 v 0 l 1.2,0.7 v -0.1 c 0.1,-0.2 0.1,-0.4 0.1,-0.5 0,-0.3 -0.1,-0.4 -0.3,-0.5 z" />
            <path id="node-4-path-13" class="text-icon" d="m 210.2,139.9 -0.4,0.6 0.5,0.3 -0.2,0.3 -0.5,-0.3 -0.9,1.6 c -0.1,0.1 -0.1,0.2 -0.1,0.3 0,0.1 0.1,0.1 0.2,0.2 0,0 0.1,0 0.1,0.1 0.1,0 0.1,0 0.1,0.1 l -0.1,0.4 c -0.1,0 -0.1,0 -0.2,0 -0.1,0 -0.2,-0.1 -0.3,-0.1 -0.2,-0.1 -0.3,-0.3 -0.4,-0.4 0,-0.2 0,-0.4 0.1,-0.6 l 0.9,-1.6 -0.4,-0.2 0.2,-0.3 0.4,0.2 0.4,-0.6 z" />
         </g>
         <polygon id="node-5-hexagon" class="node-outline"
            points="111.4,234.7 147.1,214.1 182.7,234.7 182.7,275.9 147.1,296.4 111.4,275.9" />
         <polygon id="node-5-face" class="hexagon-face" points="129.3,224.4 147.1,214.1 182.7,234.7 182.7,255.3" />
         <polygon id="node-5-corner" class="corner-light-blue" points="163.5,226.9 157.4,237.4 179.9,250.4 179.9,236.3" />
         <g id="node-5-k8s-icon-1">
            <path id="node-5-path-1" class="text-icon" d="m 164.2,232.3 c 0.5,0.3 0.7,0.6 0.8,1 0.1,0.4 0,0.9 -0.2,1.3 l -0.3,0.5 c -0.3,0.4 -0.6,0.7 -1,0.8 -0.4,0.1 -0.9,0 -1.3,-0.2 l -1.4,-0.8 0.2,-0.3 0.4,0.2 1.6,-2.7 -0.3,-0.3 0.2,-0.3 0.4,0.2 z m -0.8,0 -1.6,2.7 0.6,0.3 c 0.3,0.2 0.6,0.2 0.9,0.1 0.3,-0.1 0.6,-0.3 0.7,-0.6 l 0.3,-0.5 c 0.2,-0.3 0.3,-0.6 0.2,-1 -0.1,-0.3 -0.3,-0.6 -0.6,-0.8 z" />
            <path id="node-5-path-2" class="text-icon" d="m 164.9,235.6 c 0.2,-0.4 0.5,-0.6 0.8,-0.8 0.3,-0.1 0.7,-0.1 1,0.1 0.4,0.2 0.6,0.5 0.6,0.9 0.1,0.4 0,0.7 -0.2,1.1 v 0.1 c -0.2,0.4 -0.5,0.6 -0.8,0.8 -0.3,0.1 -0.7,0.1 -1,-0.1 -0.4,-0.2 -0.6,-0.5 -0.6,-0.9 -0.1,-0.4 0,-0.8 0.2,-1.2 z m 0.5,0.3 c -0.2,0.3 -0.2,0.5 -0.2,0.8 0,0.2 0.1,0.4 0.4,0.6 0.2,0.1 0.4,0.1 0.7,0 0.2,-0.1 0.4,-0.3 0.6,-0.6 v -0.1 c 0.2,-0.3 0.2,-0.5 0.2,-0.8 0,-0.2 -0.1,-0.4 -0.4,-0.6 -0.2,-0.1 -0.4,-0.1 -0.7,0 -0.2,0.2 -0.4,0.4 -0.6,0.7 z" />
            <path id="node-5-path-3" class="text-icon" d="m 168.2,238.8 c 0.2,0.1 0.3,0.1 0.5,0.1 0.2,0 0.3,-0.1 0.4,-0.2 l 0.4,0.2 v 0 c -0.1,0.2 -0.3,0.4 -0.6,0.4 -0.3,0.1 -0.6,0 -0.9,-0.2 -0.4,-0.2 -0.6,-0.5 -0.6,-0.9 -0.1,-0.4 0,-0.7 0.2,-1.1 l 0.1,-0.1 c 0.2,-0.4 0.5,-0.6 0.8,-0.7 0.3,-0.1 0.7,-0.1 1.1,0.1 0.2,0.1 0.4,0.3 0.5,0.4 0.1,0.1 0.2,0.3 0.2,0.5 l -0.3,0.7 -0.4,-0.2 0.1,-0.5 c 0,-0.1 -0.1,-0.2 -0.1,-0.3 -0.1,-0.1 -0.2,-0.2 -0.3,-0.2 -0.2,-0.1 -0.5,-0.2 -0.7,0 -0.2,0.1 -0.4,0.3 -0.5,0.6 l -0.1,0.1 c -0.2,0.3 -0.2,0.5 -0.2,0.7 0.1,0.3 0.2,0.5 0.4,0.6 z" />
            <path id="node-5-path-4" class="text-icon" d="m 171.4,236.5 0.2,-0.3 0.9,0.5 -1.2,2.1 0.3,0.2 0.9,-0.4 -0.2,-0.2 0.2,-0.3 1.1,0.6 -0.2,0.3 H 173 l -1.1,0.4 0.2,1.5 0.3,0.2 -0.2,0.3 -1.1,-0.6 0.2,-0.3 0.3,0.1 -0.2,-1.2 -0.3,-0.2 -0.5,0.8 0.3,0.3 -0.2,0.3 -1.2,-0.7 0.2,-0.3 0.4,0.2 1.7,-3 z" />
            <path id="node-5-path-5" class="text-icon" d="m 173.6,242.4 c -0.4,-0.2 -0.6,-0.5 -0.6,-0.8 -0.1,-0.4 0,-0.7 0.2,-1.1 l 0.1,-0.1 c 0.2,-0.4 0.5,-0.6 0.9,-0.7 0.4,-0.1 0.7,-0.1 1,0.1 0.3,0.2 0.5,0.5 0.6,0.8 0.1,0.3 0,0.6 -0.2,1 l -0.2,0.3 -1.7,-1 v 0 c -0.1,0.2 -0.2,0.5 -0.2,0.7 0,0.2 0.2,0.4 0.4,0.5 0.2,0.1 0.3,0.1 0.5,0.2 0.2,0.1 0.3,0 0.4,0 v 0.4 c -0.1,0 -0.3,0 -0.5,0 -0.3,-0.1 -0.5,-0.2 -0.7,-0.3 z m 1.2,-2.4 c -0.2,-0.1 -0.3,-0.1 -0.5,0 -0.2,0.1 -0.4,0.2 -0.5,0.4 v 0 l 1.2,0.7 V 241 c 0.1,-0.2 0.1,-0.4 0.1,-0.5 0,-0.2 -0.1,-0.4 -0.3,-0.5 z" />
            <path id="node-5-path-6" class="text-icon" d="m 176.3,240.9 0.2,-0.3 0.8,0.5 -0.2,0.4 c 0.1,-0.1 0.3,-0.1 0.4,-0.2 0.2,0 0.3,0 0.4,0.1 0,0 0.1,0 0.1,0.1 0,0 0.1,0.1 0.1,0.1 l -0.3,0.4 -0.3,-0.2 c -0.1,-0.1 -0.2,-0.1 -0.4,-0.1 -0.1,0 -0.2,0.1 -0.3,0.1 l -0.8,1.5 0.3,0.3 -0.2,0.3 -1.2,-0.7 0.2,-0.3 0.4,0.2 1.1,-1.8 z" />
         </g>
         <g id="node-5-k8s-icon-2">
            <path id="node-5-path-7" class="text-icon" d="m 142.7,220 0.2,-0.3 0.9,0.5 -1.2,2.1 0.3,0.2 0.9,-0.4 -0.2,-0.2 0.2,-0.3 1.1,0.6 -0.2,0.3 -0.3,-0.1 -1.1,0.4 0.2,1.5 0.3,0.2 -0.2,0.3 -1.1,-0.6 0.2,-0.3 0.3,0.1 -0.2,-1.2 -0.3,-0.2 -0.5,0.8 0.3,0.3 -0.2,0.3 -1.2,-0.7 0.2,-0.3 0.4,0.2 1.7,-3 z" />
            <path id="node-5-path-8" class="text-icon" d="m 145.8,225.8 c -0.2,0.1 -0.3,0.1 -0.5,0.1 -0.2,0 -0.3,0 -0.5,-0.1 -0.3,-0.2 -0.4,-0.4 -0.5,-0.6 -0.1,-0.2 0,-0.6 0.2,-1 l 0.7,-1.1 -0.3,-0.2 0.2,-0.3 0.3,0.2 0.5,0.3 -0.9,1.5 c -0.2,0.3 -0.2,0.5 -0.2,0.6 0,0.1 0.1,0.3 0.3,0.4 0.2,0.1 0.3,0.1 0.5,0.1 0.1,0 0.3,-0.1 0.4,-0.1 l 0.9,-1.5 -0.3,-0.3 0.2,-0.3 0.3,0.2 0.5,0.3 -1.3,2.2 0.3,0.2 -0.2,0.3 -0.7,-0.4 z" />
            <path id="node-5-path-9" class="text-icon" d="m 149.8,227 c -0.2,0.4 -0.5,0.6 -0.8,0.7 -0.3,0.1 -0.6,0.1 -0.9,-0.1 -0.2,-0.1 -0.3,-0.2 -0.4,-0.3 -0.1,-0.1 -0.1,-0.3 -0.1,-0.5 l -0.2,0.3 -0.4,-0.2 1.9,-3.3 -0.3,-0.3 0.2,-0.3 0.9,0.5 -0.8,1.4 c 0.1,-0.1 0.3,-0.1 0.5,-0.1 0.2,0 0.3,0.1 0.5,0.2 0.3,0.2 0.5,0.5 0.5,0.8 -0.3,0.3 -0.4,0.7 -0.6,1.2 z m -0.5,-0.4 c 0.2,-0.3 0.3,-0.6 0.3,-0.8 0,-0.2 -0.1,-0.4 -0.3,-0.6 -0.1,-0.1 -0.3,-0.1 -0.4,-0.1 -0.1,0 -0.3,0.1 -0.4,0.1 l -0.7,1.1 c 0,0.2 0,0.3 0.1,0.4 0.1,0.1 0.2,0.2 0.3,0.3 0.2,0.1 0.4,0.1 0.6,0 0.2,0.1 0.3,0 0.5,-0.4 z" />
            <path id="node-5-path-10" class="text-icon" d="m 150.7,229.1 c -0.4,-0.2 -0.6,-0.5 -0.6,-0.8 -0.1,-0.4 0,-0.7 0.2,-1.1 l 0.1,-0.1 c 0.2,-0.4 0.5,-0.6 0.9,-0.7 0.4,-0.1 0.7,-0.1 1,0.1 0.3,0.2 0.5,0.5 0.6,0.8 0.1,0.3 0,0.6 -0.2,1 l -0.2,0.3 -1.7,-1 v 0 c -0.1,0.2 -0.2,0.5 -0.2,0.7 0,0.2 0.2,0.4 0.4,0.5 0.2,0.1 0.3,0.1 0.5,0.2 0.1,0 0.3,0 0.4,0 v 0.4 c -0.1,0 -0.3,0 -0.5,0 -0.3,-0.1 -0.5,-0.1 -0.7,-0.3 z m 1.2,-2.3 c -0.2,-0.1 -0.3,-0.1 -0.5,0 -0.2,0.1 -0.4,0.2 -0.5,0.4 v 0 l 1.2,0.7 v -0.1 c 0.1,-0.2 0.1,-0.4 0.1,-0.5 0,-0.2 -0.1,-0.4 -0.3,-0.5 z" />
            <path id="node-5-path-11" class="text-icon" d="m 154,226.5 0.2,-0.3 0.9,0.5 -1.9,3.3 0.3,0.3 -0.2,0.3 -1.2,-0.7 0.2,-0.3 0.4,0.2 1.7,-3 z" />
            <path id="node-5-path-12" class="text-icon" d="m 154.8,231.5 c -0.4,-0.2 -0.6,-0.5 -0.6,-0.8 -0.1,-0.4 0,-0.7 0.2,-1.1 l 0.1,-0.1 c 0.2,-0.4 0.5,-0.6 0.9,-0.7 0.4,-0.1 0.7,-0.1 1,0.1 0.3,0.2 0.5,0.5 0.6,0.8 0.1,0.3 0,0.6 -0.2,1 l -0.2,0.3 -1.7,-1 v 0 c -0.1,0.2 -0.2,0.5 -0.2,0.7 0,0.2 0.2,0.4 0.4,0.5 0.2,0.1 0.3,0.1 0.5,0.2 0.1,0 0.3,0 0.4,0 v 0.4 c -0.1,0 -0.3,0 -0.5,0 -0.3,-0.1 -0.5,-0.1 -0.7,-0.3 z m 1.3,-2.3 c -0.2,-0.1 -0.3,-0.1 -0.5,0 -0.2,0.1 -0.4,0.2 -0.5,0.4 v 0 l 1.2,0.7 v -0.1 c 0.1,-0.2 0.1,-0.4 0.1,-0.5 0,-0.2 -0.1,-0.4 -0.3,-0.5 z" />
            <path id="node-5-path-13" class="text-icon" d="m 158.9,229.6 -0.4,0.6 0.5,0.3 -0.2,0.3 -0.5,-0.3 -0.9,1.6 c -0.1,0.1 -0.1,0.2 -0.1,0.3 0,0.1 0.1,0.1 0.2,0.2 0,0 0.1,0 0.1,0.1 0.1,0 0.1,0 0.1,0.1 l -0.1,0.4 c -0.1,0 -0.1,0 -0.2,0 -0.1,0 -0.2,-0.1 -0.3,-0.1 -0.2,-0.1 -0.3,-0.3 -0.4,-0.4 0,-0.2 0,-0.4 0.1,-0.6 l 0.9,-1.6 -0.4,-0.2 0.2,-0.3 0.4,0.2 0.4,-0.6 z" />
         </g>
      </g>
   </g>
   <line id="leader-control-plane" class="leader-line" y2="194.52843" x2="213.52141" y1="194.52843" x1="351.89236" />
   <text id="label-control-plane" class="label-normal" x="354.17346" y="198.82574" style="white-space: pre;">
      <tspan id="label-control-plane-span" x="354.17346" y="198.82574">Control Plane</tspan>
   </text>
   <line id="leader-node" class="leader-line" y2="118.3" x2="243.39999" y1="118.3" x1="360.60001" />
   <text id="label-node" class="label-normal" x="364.43982" y="122.11347" style="white-space: pre;">
      <tspan id="label-node-span" x="364.43982" y="122.11347">Node</tspan>
   </text>
   <line id="leader-node-processes" class="leader-line" y2="228.8" x2="160" y1="228.8" x1="353.23419" />
   <text id="label-node-processes" class="label-normal" x="354.85016" y="232.48218" style="white-space: pre;">
      <tspan id="label-node-processes-span" x="354.85016" y="232.48218">Node Processes</tspan>
   </text>
</svg>
