<svg id="m01-svg" xmlns="http://www.w3.org/2000/svg" xmlns:xlink="http://www.w3.org/1999/xlink" viewBox="0 0 350 200">
  <style>
    /* Dark theme override for #m01-svg (class-based, e.g. .dark on html/body) */
    .dark #m01-svg,
    .theme-dark #m01-svg,
    [data-bs-theme="dark"] #m01-svg,
    [data-theme="dark"] #m01-svg {
      --k8s-stroke: #5b92ff;
      --k8s-grad-start: #5b92ff;
      --k8s-grad-end: #00ffcc;
      --k8s-shell: #1e1e1e;
      --mint: #06f7c9;
      --yellow: #eef406;
      --orange: #f29202;
      --purple: #8115ff;
      --gray: #6d6e71;
      --corner-light-blue: #a0caea;
    }

    #m01-svg {
      --k8s-stroke: #326de6;
      --k8s-grad-start: #326de6;
      --k8s-grad-end: #06f7c9;
      --k8s-shell: rgba(255, 255, 255, 0.8);
      --mint: #06f7c9;
      --yellow: #eef406;
      --orange: #f29202;
      --purple: #8115ff;
      --gray: #6d6e71;
      --corner-light-blue: #a0caea;
    }

    #m01-svg .bg-outer-opacity {
      opacity: 0.13;
    }

    #m01-svg .bg-gradient-fill {
      fill: url(#m01-linear-gradient);
    }

    #m01-svg .cube-shell,
    #m01-svg .cube-shell-thick {
      stroke-linecap: round;
      stroke-linejoin: round;
      fill: var(--k8s-shell);
      stroke: var(--k8s-stroke);
      transition: fill 0.3s ease, stroke 0.3s ease;
    }

    #m01-svg .cube-shell {
      stroke-width: 0.8px;
    }

    #m01-svg .cube-shell-thick {
      stroke-width: 1.2px;
    }
  </style>

  <defs>
    <linearGradient id="m01-linear-gradient" x1="86.51" y1="100" x2="263.49" y2="100" gradientUnits="userSpaceOnUse">
      <stop offset="0" stop-color="var(--k8s-grad-start)" />
      <stop offset="1" stop-color="var(--k8s-grad-end)" />
    </linearGradient>
  </defs>

  <title>Create Kubernetes cluster</title>

  <g id="m01-Graphics">
    <polygon class="bg-gradient-fill bg-outer-opacity"
        points="245.97 47.9 263.49 124.69 214.38 186.27 135.62 186.27 86.51 124.69 104.03 47.9 175 13.73 245.97 47.9" />
    <polygon class="cube-shell"
      points="197.46 86.54 176.94 74.69 176.94 51 197.46 39.15 217.98 51 217.98 74.69 197.46 86.54" />
    <polygon class="cube-shell"
      points="150.26 113.85 129.74 125.69 109.22 113.85 109.22 90.16 129.74 78.31 150.26 90.16 150.26 113.85" />
    <polygon class="cube-shell"
      points="152.54 86.54 132.02 74.69 132.02 51 152.54 39.15 173.06 51 173.06 74.69 152.54 86.54" />
    <polygon class="cube-shell"
      points="152.31 164.85 131.79 153 131.79 129.31 152.31 117.46 172.83 129.31 172.83 153 152.31 164.85" />
    <polygon class="cube-shell"
      points="197.69 164.85 177.17 153 177.17 129.31 197.69 117.46 218.21 129.31 218.21 153 197.69 164.85" />
    <polygon class="cube-shell"
      points="240.78 113.85 220.26 125.69 199.74 113.85 199.74 90.16 220.26 78.31 240.78 90.16 240.78 113.85" />
    <polygon class="cube-shell-thick"
      points="190.13 106.22 188.34 98.37 187.13 93.09 187.13 93.09 187.13 93.09 187.14 93.09 187.13 93.09 187.13 93.09 179.91 89.61 175 87.25 175 87.25 175 87.25 175 87.25 162.89 93.08 162.87 93.09 162.87 93.09 162.87 93.09 162.87 93.09 161.37 99.66 161.37 99.66 161.37 99.66 161.37 99.66 160.21 104.74 159.87 106.22 159.87 106.22 159.87 106.22 159.87 106.22 163.42 110.67 164.05 111.47 164.05 111.47 168.27 116.75 168.27 116.75 168.27 116.75 168.27 116.75 168.27 116.75 175 116.75 175 116.75 181.73 116.75 181.73 116.75 181.73 116.75 181.73 116.75 181.73 116.75 181.73 116.75 184.91 112.77 185.93 111.49 185.93 111.49 190.13 106.22 190.13 106.22 190.13 106.22 190.13 106.22" />
  </g>
</svg>
