<?xml version="1.0" encoding="utf-8"?>
<svg version="1.1" xmlns="http://www.w3.org/2000/svg" xmlns:xlink="http://www.w3.org/1999/xlink" x="0px" y="0px"
	viewBox="0 0 504 432" style="enable-background:new 0 0 504 432;" xml:space="preserve" id="m03-nodes">
	<style type="text/css">
		/* Dark theme override for #m03-nodes */
		.dark #m03-nodes,
		.theme-dark #m03-nodes,
		[data-bs-theme="dark"] #m03-nodes,
		[data-theme="dark"] #m03-nodes {
			--svg-bg: transparent;
			--svg-shell: #1e1e1ecc;
			--mint: #06f7c9;
			--yellow: #eef406;
			--orange: #f29202;
			--purple: #8115ff;
			--gray: #6d6e71;
			--corner-light-blue: #a0caea;
			--stroke-accent: #5b92ff;
			--stroke-blue: #5b92ff;
			--svg-ink: #f5f8ff;
			--svg-text: #f5f8ff;
			--svg-text-muted: #d5dfea;
			--leader-line: #5b92ff;
			--width-leader-line: 0.3px;
			--label-color: #dde6f0;
			--gradient-start: #1f51b5;
			--gradient-end: #00b386;
		}

		.dark #m03-nodes .container-cube,
		[data-bs-theme="dark"] #m03-nodes .container-cube {
			stroke: var(--svg-shell);
		}

		/* Default styles (Light theme) */
		#m03-nodes {
			--svg-bg: transparent;
			--svg-shell: #ffffff;
			--mint: #06f7c9;
			--yellow: #eef406;
			--orange: #f29202;
			--purple: #8115ff;
			--gray: #6d6e71;
			--corner-light-blue: #a0caea;
			--stroke-accent: #326de6;
			--stroke-blue: #006de9;
			--svg-ink: #011f38;
			--svg-text: #011f38;
			--svg-text-muted: #414042;
			--leader-line: #011f38;
			--width-leader-line: 0.3px;
			--label-color: #011f38;
			--gradient-start: #326de6;
			--gradient-end: #10ffc6;
		}

		#m03-nodes {
			background-color: var(--svg-bg);
		}

		#m03-nodes .node-high-level {
			fill: var(--svg-shell);
			stroke: var(--stroke-accent);
			stroke-width: 2;
			stroke-linecap: round;
			stroke-linejoin: round;
			stroke-miterlimit: 10;
		}

		#m03-nodes .corner-accent {
			opacity: 0.71;
			fill: var(--stroke-accent);
		}

		#m03-nodes .corner-dark {
			opacity: 0.45;
			fill: var(--svg-shell);
		}

		#m03-nodes .node-hexagon {
			fill: var(--svg-shell);
			stroke: var(--stroke-blue);
			stroke-width: 2;
			stroke-linecap: round;
			stroke-linejoin: round;
			stroke-miterlimit: 10;
		}

		#m03-nodes .corner-blue {
			fill: var(--stroke-blue);
		}

		#m03-nodes .corner-light-blue {
			fill: var(--corner-light-blue);
		}

		#m03-nodes .text-icon {
			fill: var(--svg-shell);
		}

		#m03-nodes .node-face {
			fill: var(--stroke-accent);
		}

		#m03-nodes .node-border {
			fill: none;
			stroke: var(--stroke-accent);
			stroke-width: 2.4;
			stroke-miterlimit: 10;
		}

		#m03-nodes .node-corner {
			fill: var(--corner-light-blue);
		}

		#m03-nodes .gradient-pod-3 {
			opacity: 0.1;
			fill: url(#gradient-pod-3);
		}

		#m03-nodes .gradient-pod-4 {
			opacity: 0.1;
			fill: url(#gradient-pod-4);
		}

		#m03-nodes .gradient-pod-1 {
			opacity: 0.1;
			fill: url(#gradient-pod-1);
		}

		#m03-nodes .gradient-pod-2 {
			opacity: 0.1;
			fill: url(#gradient-pod-2);
		}

		#m03-nodes .pod-ring {
			fill: none;
			stroke: var(--stroke-accent);
			stroke-width: 1.2;
			stroke-miterlimit: 10;
		}

		#m03-nodes .text-dark {
			fill: var(--svg-ink);
		}

		#m03-nodes .container-cube {
			fill: var(--mint);
			stroke: var(--svg-ink);
			stroke-width: 0.8;
			stroke-linecap: round;
			stroke-linejoin: round;
			stroke-miterlimit: 10;
		}

		#m03-nodes .container-cylinder {
			fill: var(--purple);
			stroke: var(--svg-ink);
			stroke-width: 0.8;
			stroke-linecap: round;
			stroke-linejoin: round;
			stroke-miterlimit: 10;
		}

		#m03-nodes .leader-line {
			fill: none;
			stroke: var(--svg-ink);
			stroke-width: var(--width-leader-line, 0.3px);
			stroke-linecap: round;
			stroke-linejoin: round;
			stroke-miterlimit: 10;
		}

		#m03-nodes text {
			fill: var(--svg-text);
		}
	</style>
	<symbol id="node-high-level-symbol" viewBox="-81 -93 162 186.1">
		<polygon class="node-high-level" fill="var(--svg-shell)" stroke="var(--stroke-accent)" stroke-width="2"
			stroke-linecap="round" stroke-linejoin="round" points="-80,-46 -80,46 0,92 80,46 80,-46 0,-92" />
		<g id="node-high-level-isolation">
		</g>
	</symbol>
	<symbol id="node-empty-symbol" viewBox="-87.5 -100.6 175.1 201.1">

		<use xlink:href="#node-high-level-symbol" width="162" height="186.1" id="node-high-level-use" x="-81" y="-93"
			transform="matrix(1.0808 0 0 1.0808 -3.292006e-05 -3.749943e-05)" style="overflow:visible;" />
		<g>
			<polygon class="corner-accent" points="76.8,-28.1 -14,-80.3 0,-88.3 76.7,-44.4" />
			<polygon class="corner-dark" points="76.8,-28.1 32.1,-53.8 38.8,-66.1 76.7,-44.4" />
		</g>
	</symbol>
	<symbol id="node-new-symbol" viewBox="-87.6 -101 175.2 202">
		<polygon class="node-hexagon" points="0,-100 -86.6,-50 -86.6,50 0,100 86.6,50 86.6,-50" />
		<polygon class="corner-blue" points="-86.6,-20.2 -86.6,-50 0,-100 25.8,-85.1" />
		<polygon class="corner-light-blue" points="-40.8,-70.7 -32.9,-57 15.7,-85.1 0,-94.3" />

		<text transform="matrix(0.866 -0.5 -0.5 -0.866 -33.9256 -70.7388)" class="text-icon"
			style="font-family:'RobotoSlab-Regular'; font-size:11.3632px;">Docker</text>

		<text transform="matrix(0.866 -0.5 -0.5 -0.866 -76.0668 -46.4087)" class="text-icon"
			style="font-family:'RobotoSlab-Regular'; font-size:11.3632px;">Kubelet</text>
	</symbol>
	<g id="cluster-group">
	</g>
	<g id="master-group">
		<g id="master-icon-group">
		</g>
	</g>
	<g id="node-group">
		<polygon class="node-face" points="27.2,290.9 27.2,311.3 191.3,406 209,395.8" />
		<polygon class="node-border" points="27.2,311.3 27.2,122 191.3,27.3 355.3,122 355.3,311.3 191.3,406" />
		<polygon class="node-corner" points="110.5,356.6 116.9,345.4 204.2,395.8 191.3,403.3" />
		<g>
			<path class="text-icon"
				d="M145,365.7c0.8,0.4,1.3,1,1.5,1.8c0.2,0.7,0.1,1.5-0.4,2.2l-0.5,0.8c-0.4,0.8-1,1.2-1.8,1.4 c-0.7,0.2-1.5,0.1-2.3-0.4l-2.5-1.4l0.3-0.5l0.7,0.3l2.7-4.7l-0.6-0.5l0.3-0.5l0.7,0.4L145,365.7z M143.6,365.7l-2.7,4.7l1,0.6 c0.5,0.3,1.1,0.4,1.6,0.2c0.5-0.2,0.9-0.5,1.3-1.1l0.5-0.8c0.3-0.6,0.4-1.1,0.3-1.6c-0.1-0.5-0.4-1-1-1.3L143.6,365.7z" />
			<path class="text-icon"
				d="M146.3,371.3c0.4-0.6,0.9-1.1,1.5-1.3c0.6-0.2,1.2-0.2,1.8,0.2c0.6,0.4,1,0.8,1.1,1.5s0,1.3-0.4,1.9l-0.1,0.1 c-0.4,0.7-0.9,1.1-1.5,1.3c-0.6,0.2-1.2,0.1-1.8-0.2c-0.6-0.4-1-0.8-1.1-1.5S145.8,372,146.3,371.3L146.3,371.3z M147,371.8 c-0.3,0.5-0.4,0.9-0.4,1.3s0.2,0.7,0.6,1c0.4,0.2,0.8,0.2,1.1,0c0.4-0.2,0.7-0.5,1-1l0.1-0.1c0.3-0.5,0.4-0.9,0.4-1.3 c0-0.4-0.2-0.7-0.6-1c-0.4-0.2-0.8-0.2-1.1,0C147.6,370.9,147.3,371.3,147,371.8L147,371.8z" />
			<path class="text-icon"
				d="M151.9,376.8c0.3,0.2,0.5,0.2,0.8,0.2c0.3,0,0.5-0.2,0.7-0.4l0.7,0.4l0,0c-0.2,0.4-0.6,0.6-1.1,0.7 c-0.5,0.1-1,0-1.5-0.3c-0.6-0.4-1-0.9-1.1-1.5c-0.1-0.6,0-1.2,0.4-1.9l0.1-0.2c0.4-0.6,0.8-1,1.4-1.3c0.6-0.2,1.2-0.2,1.8,0.2 c0.4,0.2,0.6,0.4,0.8,0.7c0.2,0.3,0.4,0.6,0.4,0.9l-0.5,1l-0.6-0.4l0.2-0.8c0-0.1-0.1-0.3-0.2-0.4c-0.1-0.1-0.3-0.3-0.5-0.4 c-0.4-0.2-0.8-0.3-1.2-0.1c-0.4,0.2-0.7,0.5-0.9,1l-0.1,0.2c-0.3,0.4-0.4,0.9-0.4,1.3S151.5,376.6,151.9,376.8z" />
			<path class="text-icon"
				d="M157.4,372.9l0.3-0.5l1.5,0.8l-2.1,3.7l0.5,0.3l1.6-0.6l-0.4-0.3l0.3-0.5l1.8,1.1l-0.3,0.5l-0.6-0.2l-2,0.7 l0.4,2.6l0.4,0.4l-0.3,0.5l-1.8-1.1l0.3-0.5l0.4,0.2l-0.3-2.1l-0.5-0.3l-0.8,1.4l0.6,0.5l-0.3,0.5l-2.1-1.2l0.3-0.5l0.7,0.3 l2.9-5.1L157.4,372.9z" />
			<path class="text-icon"
				d="M161,382.9c-0.6-0.4-1-0.8-1.1-1.5c-0.1-0.6,0-1.2,0.4-1.9l0.1-0.2c0.4-0.6,0.8-1,1.5-1.2 c0.6-0.2,1.2-0.2,1.7,0.1c0.6,0.3,0.9,0.8,1,1.3c0.1,0.5,0,1.1-0.4,1.7l-0.3,0.5l-2.8-1.6l0,0c-0.2,0.4-0.3,0.8-0.3,1.2 s0.3,0.7,0.6,0.9c0.3,0.2,0.5,0.3,0.8,0.3c0.2,0,0.5,0,0.7,0l0,0.7c-0.2,0.1-0.5,0.1-0.8,0C161.7,383.2,161.4,383.1,161,382.9z M163.2,378.9c-0.3-0.2-0.6-0.2-0.9-0.1c-0.3,0.1-0.6,0.3-0.8,0.6l0,0l2,1.2l0.1-0.1c0.2-0.3,0.2-0.6,0.2-0.9 C163.7,379.3,163.5,379.1,163.2,378.9z" />
			<path class="text-icon"
				d="M165.8,380.4l0.3-0.5l1.4,0.8l-0.3,0.7c0.3-0.2,0.5-0.2,0.8-0.3c0.3,0,0.5,0,0.7,0.2c0.1,0,0.1,0.1,0.2,0.1 c0.1,0,0.1,0.1,0.1,0.1l-0.5,0.7l-0.4-0.3c-0.2-0.1-0.4-0.2-0.6-0.2c-0.2,0-0.4,0.1-0.6,0.2l-1.5,2.5l0.6,0.5l-0.3,0.5l-2.1-1.2 l0.3-0.5l0.7,0.3l1.8-3.1L165.8,380.4z" />
		</g>
		<g>
			<path class="text-icon"
				d="M59.5,316.4l0.3-0.5l1.5,0.8l-2.1,3.7l0.5,0.3l1.6-0.6l-0.4-0.3l0.3-0.5l1.8,1.1l-0.3,0.5l-0.6-0.2l-2,0.7 l0.4,2.6l0.4,0.4l-0.3,0.5l-1.8-1.1l0.3-0.5l0.4,0.2l-0.3-2.1l-0.5-0.3l-0.8,1.4l0.6,0.5l-0.3,0.5l-2.1-1.2l0.3-0.5l0.7,0.3 l2.9-5.1L59.5,316.4z" />
			<path class="text-icon"
				d="M64.8,326.4c-0.3,0.2-0.6,0.2-0.8,0.2c-0.3,0-0.6-0.1-0.9-0.2c-0.5-0.3-0.8-0.6-0.9-1.1 c-0.1-0.5,0.1-1,0.4-1.7l1.1-2l-0.4-0.4l0.3-0.5l0.5,0.3l0.8,0.5l-1.5,2.6c-0.3,0.5-0.4,0.8-0.3,1.1c0,0.3,0.2,0.5,0.5,0.6 c0.3,0.2,0.6,0.2,0.8,0.2c0.3,0,0.5-0.1,0.7-0.2l1.5-2.5l-0.5-0.5l0.3-0.5l0.6,0.3l0.8,0.5l-2.2,3.8l0.4,0.4l-0.3,0.5l-1.2-0.7 L64.8,326.4z" />
			<path class="text-icon"
				d="M71.5,328.4c-0.4,0.6-0.8,1.1-1.3,1.3c-0.5,0.2-1.1,0.2-1.6-0.1c-0.3-0.2-0.5-0.4-0.7-0.6 c-0.1-0.2-0.2-0.5-0.2-0.8l-0.4,0.5l-0.7-0.4l3.3-5.7l-0.6-0.5l0.3-0.5l1.5,0.8l-1.4,2.5c0.3-0.1,0.5-0.2,0.8-0.2 c0.3,0,0.5,0.1,0.8,0.3c0.5,0.3,0.8,0.8,0.9,1.4C72.2,327,72,327.6,71.5,328.4L71.5,328.4z M70.8,327.9c0.3-0.5,0.4-1,0.4-1.4 c0-0.4-0.2-0.7-0.6-1c-0.2-0.1-0.5-0.2-0.7-0.2s-0.5,0.1-0.7,0.2l-1.1,1.9c0,0.3,0,0.5,0.1,0.7c0.1,0.2,0.3,0.4,0.5,0.5 c0.4,0.2,0.7,0.2,1.1,0.1C70.2,328.7,70.5,328.4,70.8,327.9L70.8,327.9z" />
			<path class="text-icon"
				d="M73.1,332.1c-0.6-0.4-1-0.8-1.1-1.5c-0.1-0.6,0-1.2,0.4-1.9l0.1-0.2c0.4-0.6,0.8-1,1.5-1.2 c0.6-0.2,1.2-0.2,1.7,0.1c0.6,0.3,0.9,0.8,1,1.3c0.1,0.5,0,1.1-0.4,1.7L76,331l-2.9-1.6l0,0c-0.2,0.4-0.3,0.8-0.3,1.2 c0,0.4,0.3,0.7,0.6,0.9c0.3,0.2,0.5,0.3,0.8,0.3c0.2,0,0.5,0,0.7,0l0,0.7c-0.2,0.1-0.5,0.1-0.8,0 C73.8,332.5,73.5,332.3,73.1,332.1z M75.3,328.1c-0.3-0.2-0.6-0.2-0.9-0.1s-0.6,0.3-0.8,0.6l0,0l2,1.2l0.1-0.1 c0.2-0.3,0.2-0.6,0.2-0.9S75.6,328.3,75.3,328.1z" />
			<path class="text-icon"
				d="M78.9,327.6l0.3-0.5l1.5,0.8l-3.3,5.7l0.6,0.5l-0.3,0.5l-2.1-1.2l0.3-0.5l0.7,0.3l2.9-5.1L78.9,327.6z" />
			<path class="text-icon"
				d="M80.2,336.2c-0.6-0.4-1-0.8-1.1-1.5c-0.1-0.6,0-1.2,0.4-1.9l0.1-0.2c0.4-0.6,0.8-1,1.5-1.2 c0.6-0.2,1.2-0.2,1.7,0.1c0.6,0.3,0.9,0.8,1,1.3c0.1,0.5,0,1.1-0.4,1.7l-0.3,0.5l-2.9-1.6l0,0c-0.2,0.4-0.3,0.8-0.3,1.2 c0,0.4,0.3,0.7,0.6,0.9c0.3,0.2,0.5,0.3,0.8,0.3c0.2,0,0.5,0,0.7,0l0,0.7c-0.2,0.1-0.5,0.1-0.8,0 C80.9,336.6,80.6,336.4,80.2,336.2z M82.3,332.2c-0.3-0.2-0.6-0.2-0.9-0.1s-0.6,0.3-0.8,0.6l0,0l2,1.2l0.1-0.1 c0.2-0.3,0.2-0.6,0.2-0.9S82.7,332.4,82.3,332.2z" />
			<path class="text-icon"
				d="M87.3,332.9l-0.6,1.1l0.8,0.5l-0.3,0.6l-0.8-0.5l-1.5,2.7c-0.1,0.2-0.2,0.4-0.1,0.5c0,0.1,0.1,0.2,0.3,0.3 c0.1,0,0.2,0.1,0.2,0.1c0.1,0,0.2,0.1,0.2,0.1l-0.2,0.6c-0.1,0-0.2,0-0.4-0.1c-0.2-0.1-0.3-0.1-0.5-0.2c-0.3-0.2-0.5-0.4-0.6-0.7 c-0.1-0.3,0-0.7,0.2-1.1l1.5-2.7l-0.7-0.4l0.3-0.6l0.7,0.4l0.6-1.1L87.3,332.9z" />
		</g>
		<g id="node-level3">
			<g id="node-isolation">
			</g>
		</g>
	</g>
	<g id="service-group">
	</g>
	<g id="pods-group">
		<linearGradient id="gradient-pod-1" gradientUnits="userSpaceOnUse" x1="112.0342" y1="278.8816" x2="173.4959"
			y2="278.8816">
			<stop offset="0" style="stop-color:#326DE6" />
			<stop offset="1" style="stop-color:#10FFC6" />
		</linearGradient>
		<circle class="gradient-pod-1" cx="142.8" cy="278.9" r="30.7" />
		<linearGradient id="gradient-pod-2" gradientUnits="userSpaceOnUse" x1="148.6926" y1="192.4681" x2="194.7889"
			y2="192.4681">
			<stop offset="0" style="stop-color:#326DE6" />
			<stop offset="1" style="stop-color:#10FFC6" />
		</linearGradient>
		<circle class="gradient-pod-2" cx="171.7" cy="192.5" r="23" />
		<linearGradient id="gradient-pod-3" gradientUnits="userSpaceOnUse" x1="217.9671" y1="162.705" x2="299.9161"
			y2="162.705">
			<stop offset="0" style="stop-color:#326DE6" />
			<stop offset="1" style="stop-color:#10FFC6" />
		</linearGradient>
		<circle class="gradient-pod-3" cx="258.9" cy="162.7" r="41" />
		<linearGradient id="gradient-pod-4" gradientUnits="userSpaceOnUse" x1="205.6747" y1="278.4409" x2="312.2084"
			y2="278.4409">
			<stop offset="0" style="stop-color:#326DE6" />
			<stop offset="1" style="stop-color:#10FFC6" />
		</linearGradient>
		<circle class="gradient-pod-4" cx="258.9" cy="278.4" r="53.3" />
		<circle class="pod-ring" cx="142.8" cy="278.9" r="30.7" />
		<circle class="pod-ring" cx="171.7" cy="192.5" r="23" />
		<circle class="pod-ring" cx="258.9" cy="162.7" r="41" />
		<circle class="pod-ring" cx="258.9" cy="278.4" r="53.3" />
	</g>
	<g id="ip-group">
		<g>
			<path class="text-dark"
				d="M111.6,266.2l0.5-1.3l-6.1-2.8l-0.5,1.5l-0.4-0.2l0.5-2.2l6.7,3.1l0.7-1.3l0.4,0.2l-1.5,3.2L111.6,266.2z" />
			<path class="text-dark"
				d="M114.1,256.7c0.9,0.6,1.4,1.2,1.6,1.9c0.2,0.7,0.1,1.3-0.3,2c-0.4,0.6-1,1-1.7,1c-0.7,0.1-1.5-0.2-2.3-0.8 l-1.5-1c-0.8-0.6-1.4-1.2-1.6-1.9s-0.1-1.3,0.3-2c0.4-0.6,1-1,1.7-1c0.7-0.1,1.5,0.2,2.3,0.8L114.1,256.7z M112.1,256.2 c-0.7-0.5-1.3-0.7-1.8-0.7c-0.5,0-1,0.3-1.3,0.8c-0.3,0.5-0.4,1-0.2,1.5c0.2,0.5,0.6,1,1.3,1.4l1.6,1.1c0.7,0.5,1.3,0.7,1.8,0.7 s1-0.3,1.3-0.7c0.3-0.5,0.4-1,0.2-1.5s-0.6-1-1.3-1.4L112.1,256.2z" />
			<path class="text-dark" d="M118,256.9l-0.5,0.6l-0.7-0.6l0.5-0.6L118,256.9z" />
			<path class="text-dark"
				d="M118.6,255.5l1-1l-4.6-4.9l-1,1.2l-0.3-0.3l1.3-1.9l5.1,5.4l1.1-0.9l0.3,0.4l-2.6,2.4L118.6,255.5z" />
			<path class="text-dark"
				d="M124.4,247.6c0.6,0.8,0.8,1.6,0.8,2.3c0,0.7-0.4,1.3-1,1.7c-0.6,0.4-1.3,0.5-2,0.3c-0.7-0.2-1.3-0.7-1.9-1.6 l-1-1.5c-0.6-0.8-0.8-1.6-0.8-2.3c0-0.7,0.4-1.3,1-1.7c0.6-0.4,1.3-0.6,2-0.3c0.7,0.2,1.3,0.7,1.9,1.6L124.4,247.6z M122.8,246.4 c-0.5-0.7-0.9-1.1-1.4-1.3c-0.5-0.2-1-0.1-1.5,0.2c-0.5,0.3-0.7,0.8-0.7,1.3c0,0.5,0.2,1.1,0.7,1.8l1.1,1.6 c0.5,0.7,0.9,1.1,1.5,1.3c0.5,0.2,1,0.1,1.5-0.2c0.5-0.3,0.7-0.8,0.7-1.3s-0.2-1.1-0.7-1.8L122.8,246.4z" />
			<path class="text-dark" d="M128,249.2l-0.7,0.3l-0.4-0.8l0.7-0.3L128,249.2z" />
			<path class="text-dark"
				d="M129.1,248.1l1.3-0.6l-2.4-6.3l-1.4,0.8l-0.2-0.4l1.9-1.3l2.7,6.9l1.4-0.5l0.2,0.4l-3.3,1.3L129.1,248.1z" />
			<path class="text-dark"
				d="M137.4,243c0.2,1,0.2,1.8-0.1,2.5c-0.3,0.6-0.8,1-1.6,1.2c-0.8,0.2-1.4,0-2-0.4c-0.5-0.4-0.9-1.2-1.2-2.2 l-0.4-1.7c-0.2-1-0.2-1.8,0.1-2.5s0.8-1,1.6-1.2c0.8-0.2,1.4,0,2,0.4c0.5,0.5,0.9,1.2,1.2,2.2L137.4,243z M136.3,241.3 c-0.2-0.8-0.5-1.4-0.9-1.7c-0.4-0.4-0.9-0.5-1.5-0.4c-0.6,0.1-1,0.4-1.2,0.9c-0.2,0.5-0.2,1.1-0.1,1.9l0.4,1.9 c0.2,0.8,0.5,1.4,0.9,1.7c0.4,0.4,0.9,0.5,1.5,0.4c0.6-0.1,1-0.4,1.2-0.9c0.2-0.5,0.2-1.1,0.1-1.9L136.3,241.3z" />
			<path class="text-dark" d="M140.1,245.9l-0.7,0.1l-0.1-0.9l0.7-0.1L140.1,245.9z" />
			<path class="text-dark"
				d="M141.4,245.7l0-0.5l2.7-2.9c0.5-0.5,0.9-1,1.1-1.3c0.2-0.4,0.3-0.7,0.3-1c0-0.5-0.1-0.9-0.4-1.2 c-0.3-0.3-0.7-0.5-1.2-0.5c-0.6,0-1.1,0.1-1.4,0.5c-0.3,0.3-0.5,0.8-0.5,1.3l-0.6,0l0,0c0-0.7,0.2-1.2,0.7-1.7 c0.5-0.4,1.1-0.7,1.8-0.6c0.7,0,1.2,0.2,1.6,0.6s0.6,0.9,0.6,1.6c0,0.4-0.2,0.9-0.5,1.3c-0.3,0.4-0.7,0.9-1.2,1.5l-2.3,2.4l0,0 l3.5,0.1l0.1-1.1l0.6,0l-0.1,1.7L141.4,245.7z" />
		</g>
		<g>
			<path class="text-dark"
				d="M148.3,182.8l0.6-1.3l-6-3l-0.5,1.5l-0.4-0.2l0.6-2.2l6.7,3.3l0.7-1.2l0.4,0.2l-1.5,3.2L148.3,182.8z" />
			<path class="text-dark"
				d="M151.1,173.5c0.8,0.6,1.3,1.3,1.5,2c0.2,0.7,0,1.3-0.5,1.9c-0.5,0.6-1.1,0.9-1.8,0.9c-0.7,0-1.5-0.3-2.3-0.9 l-1.4-1.1c-0.8-0.6-1.3-1.3-1.5-2c-0.2-0.7,0-1.3,0.4-1.9c0.5-0.6,1.1-0.9,1.8-0.9c0.7,0,1.5,0.3,2.3,0.9L151.1,173.5z M149.2,172.8c-0.6-0.5-1.2-0.8-1.8-0.8s-1,0.2-1.4,0.7c-0.4,0.5-0.5,1-0.3,1.5s0.6,1,1.2,1.5l1.6,1.2c0.6,0.5,1.2,0.8,1.8,0.8 c0.5,0,1-0.2,1.4-0.7c0.4-0.5,0.5-1,0.3-1.5c-0.2-0.5-0.6-1-1.2-1.5L149.2,172.8z" />
			<path class="text-dark" d="M155.1,174.1l-0.5,0.5l-0.6-0.7l0.5-0.5L155.1,174.1z" />
			<path class="text-dark"
				d="M155.8,172.7l1.1-0.9l-3.9-5.5l-1.2,1.1l-0.3-0.4l1.5-1.7l4.3,6.1l1.2-0.8l0.3,0.4l-2.9,2L155.8,172.7z" />
			<path class="text-dark"
				d="M162.8,165.9c0.4,0.9,0.5,1.8,0.4,2.4c-0.2,0.7-0.6,1.2-1.3,1.5c-0.7,0.3-1.4,0.3-2,0 c-0.6-0.3-1.1-1-1.6-1.9l-0.7-1.6c-0.4-0.9-0.5-1.8-0.4-2.4c0.2-0.7,0.6-1.2,1.3-1.5c0.7-0.3,1.4-0.3,2,0c0.6,0.3,1.1,1,1.6,1.9 L162.8,165.9z M161.4,164.4c-0.3-0.7-0.7-1.3-1.2-1.5s-1-0.3-1.5-0.1c-0.5,0.2-0.9,0.6-1,1.1c-0.1,0.5,0,1.2,0.3,1.9l0.8,1.8 c0.3,0.7,0.7,1.3,1.2,1.5c0.5,0.3,1,0.3,1.5,0.1c0.5-0.2,0.9-0.6,1-1.2s0-1.2-0.3-1.9L161.4,164.4z" />
			<path class="text-dark" d="M165.9,168.3l-0.7,0.2l-0.2-0.9l0.7-0.2L165.9,168.3z" />
			<path class="text-dark"
				d="M167.2,167.5l1.4-0.2l-0.8-6.7l-1.5,0.4l-0.1-0.5l2.2-0.7l0.8,7.4l1.4-0.1l0.1,0.5l-3.5,0.4L167.2,167.5z" />
			<path class="text-dark"
				d="M176.6,164.9c-0.1,1-0.4,1.8-0.9,2.3s-1.1,0.7-1.9,0.7c-0.8-0.1-1.3-0.4-1.7-1c-0.4-0.6-0.5-1.4-0.4-2.4 l0.2-1.8c0.1-1,0.4-1.8,0.9-2.3c0.5-0.5,1.1-0.7,1.9-0.7c0.8,0.1,1.4,0.4,1.7,1c0.4,0.6,0.5,1.4,0.4,2.4L176.6,164.9z M176.1,162.9c0.1-0.8,0-1.5-0.3-1.9c-0.3-0.5-0.7-0.7-1.3-0.8c-0.6-0.1-1.1,0.1-1.4,0.5s-0.6,1-0.6,1.8l-0.2,2 c-0.1,0.8,0,1.4,0.3,1.9c0.3,0.5,0.7,0.7,1.3,0.8c0.6,0.1,1.1-0.1,1.4-0.5c0.3-0.4,0.6-1,0.6-1.8L176.1,162.9z" />
			<path class="text-dark" d="M178.2,168.5l-0.7-0.2l0.2-0.9l0.7,0.2L178.2,168.5z" />
			<path class="text-dark"
				d="M179.7,168.4l1.3,0.5l2.5-6.2l-1.5-0.4l0.2-0.4l2.2,0.4l-2.8,6.9l1.3,0.6l-0.2,0.4l-3.3-1.3L179.7,168.4z" />
		</g>
		<g>
			<path class="text-dark"
				d="M224.4,135.7l0.9-1.1l-5.1-4.3l-0.8,1.3l-0.4-0.3l1.1-2l5.7,4.8l1-1l0.4,0.3l-2.3,2.7L224.4,135.7z" />
			<path class="text-dark"
				d="M229.1,127.1c0.7,0.8,1.1,1.5,1.1,2.2c0.1,0.7-0.2,1.3-0.8,1.8c-0.6,0.5-1.2,0.7-1.9,0.6 c-0.7-0.1-1.4-0.5-2.1-1.3l-1.2-1.3c-0.7-0.7-1.1-1.5-1.1-2.2s0.2-1.3,0.8-1.8c0.6-0.5,1.2-0.7,1.9-0.6c0.7,0.1,1.4,0.5,2.1,1.3 L229.1,127.1z M227.3,126.1c-0.6-0.6-1.1-1-1.6-1.1c-0.5-0.1-1,0-1.4,0.4c-0.4,0.4-0.6,0.9-0.5,1.4c0.1,0.5,0.4,1.1,0.9,1.7 l1.4,1.5c0.6,0.6,1.1,0.9,1.6,1.1c0.5,0.1,1,0,1.4-0.4c0.4-0.4,0.6-0.9,0.5-1.4c-0.1-0.5-0.4-1.1-0.9-1.7L227.3,126.1z" />
			<path class="text-dark" d="M232.8,128.1l-0.6,0.5l-0.5-0.7l0.6-0.5L232.8,128.1z" />
			<path class="text-dark"
				d="M233.7,126.8l1.2-0.8l-3.7-5.6l-1.2,1l-0.2-0.4l1.6-1.6l4,6.2l1.2-0.7l0.3,0.4l-2.9,1.9L233.7,126.8z" />
			<path class="text-dark"
				d="M240.8,119.9c0.5,0.9,0.6,1.7,0.5,2.4c-0.1,0.7-0.6,1.2-1.3,1.5c-0.7,0.3-1.4,0.4-2,0.1 c-0.6-0.3-1.2-0.9-1.6-1.8l-0.8-1.6c-0.5-0.9-0.6-1.7-0.5-2.4c0.1-0.7,0.6-1.2,1.3-1.5c0.7-0.3,1.4-0.4,2-0.1 c0.6,0.3,1.2,0.9,1.6,1.8L240.8,119.9z M239.3,118.5c-0.4-0.7-0.8-1.2-1.2-1.5c-0.5-0.3-1-0.3-1.5,0c-0.5,0.3-0.8,0.7-0.9,1.2 c-0.1,0.5,0.1,1.2,0.4,1.9l0.9,1.8c0.4,0.7,0.8,1.2,1.3,1.5s1,0.3,1.5,0c0.5-0.3,0.8-0.7,0.9-1.2c0.1-0.5-0.1-1.2-0.4-1.9 L239.3,118.5z" />
			<path class="text-dark" d="M244,122l-0.7,0.3l-0.3-0.8l0.7-0.3L244,122z" />
			<path class="text-dark"
				d="M245.3,121l1.4-0.5l-1.8-6.5l-1.4,0.6l-0.1-0.4l2-1.1l2,7.1l1.4-0.3l0.1,0.5l-3.4,1L245.3,121z" />
			<path class="text-dark"
				d="M254,116.4c0.2,1,0.1,1.8-0.3,2.4c-0.3,0.6-0.9,1-1.7,1.1c-0.8,0.1-1.4-0.1-1.9-0.5c-0.5-0.5-0.9-1.2-1-2.2 l-0.3-1.8c-0.2-1-0.1-1.8,0.3-2.4c0.3-0.6,0.9-1,1.7-1.1c0.8-0.1,1.4,0.1,1.9,0.5c0.5,0.5,0.9,1.2,1,2.2L254,116.4z M253.1,114.7 c-0.1-0.8-0.4-1.4-0.8-1.8c-0.4-0.4-0.9-0.5-1.4-0.4c-0.6,0.1-1,0.4-1.2,0.9s-0.3,1.1-0.2,1.9l0.3,2c0.1,0.8,0.4,1.4,0.8,1.8 c0.4,0.4,0.9,0.5,1.4,0.4c0.6-0.1,1-0.4,1.2-0.9c0.2-0.5,0.3-1.1,0.2-1.9L253.1,114.7z" />
			<path class="text-dark" d="M256.6,119.4l-0.7,0l-0.1-0.9l0.7,0L256.6,119.4z" />
			<path class="text-dark"
				d="M259.6,115l0.8,0c0.6,0,1-0.1,1.3-0.4c0.3-0.3,0.5-0.6,0.5-1.1c0-0.5-0.1-0.9-0.4-1.2 c-0.3-0.3-0.7-0.5-1.2-0.5c-0.5,0-0.9,0.1-1.3,0.4c-0.3,0.3-0.5,0.7-0.5,1.2l-0.6,0l0,0c0-0.6,0.2-1.1,0.7-1.5 c0.5-0.4,1-0.6,1.7-0.6c0.7,0,1.3,0.2,1.7,0.6c0.4,0.4,0.6,1,0.6,1.6c0,0.4-0.1,0.7-0.4,1c-0.2,0.3-0.6,0.6-1,0.7 c0.5,0.2,0.9,0.4,1.1,0.8s0.3,0.7,0.3,1.2c0,0.7-0.3,1.3-0.7,1.6c-0.5,0.4-1.1,0.6-1.8,0.5c-0.7,0-1.3-0.2-1.8-0.7 c-0.5-0.4-0.7-1-0.7-1.7l0,0l0.6,0c0,0.5,0.1,0.9,0.5,1.3c0.3,0.3,0.8,0.5,1.3,0.5c0.6,0,1-0.1,1.3-0.4c0.3-0.3,0.5-0.7,0.5-1.2 c0-0.6-0.1-1-0.5-1.3s-0.8-0.4-1.4-0.4l-0.8,0L259.6,115z" />
		</g>
		<g>
			<path class="text-dark"
				d="M217.2,240.9l0.9-1.1l-4.9-4.6l-0.9,1.3l-0.3-0.3l1.2-1.9l5.4,5.1l1-1l0.3,0.3l-2.4,2.5L217.2,240.9z" />
			<path class="text-dark"
				d="M222.4,232.4c0.7,0.8,1,1.5,1.1,2.2c0,0.7-0.2,1.3-0.8,1.8c-0.6,0.5-1.2,0.7-1.9,0.6 c-0.7-0.1-1.4-0.6-2.1-1.4l-1.2-1.3c-0.7-0.8-1-1.5-1.1-2.2c0-0.7,0.2-1.3,0.8-1.8c0.6-0.5,1.2-0.7,1.9-0.6s1.4,0.6,2.1,1.4 L222.4,232.4z M220.6,231.4c-0.5-0.6-1.1-1-1.6-1.1c-0.5-0.1-1,0-1.5,0.4c-0.4,0.4-0.6,0.8-0.6,1.4s0.3,1.1,0.9,1.7l1.3,1.5 c0.5,0.6,1.1,1,1.6,1.1c0.5,0.1,1,0,1.5-0.4c0.4-0.4,0.6-0.8,0.6-1.4c-0.1-0.5-0.4-1.1-0.9-1.7L220.6,231.4z" />
			<path class="text-dark" d="M226.1,233.5l-0.6,0.4l-0.5-0.7l0.6-0.4L226.1,233.5z" />
			<path class="text-dark"
				d="M227,232.2l1.2-0.8l-3.7-5.6l-1.2,1l-0.2-0.4l1.6-1.6l4.1,6.2l1.2-0.7l0.3,0.4l-2.9,1.9L227,232.2z" />
			<path class="text-dark"
				d="M233.9,225.2c0.5,0.9,0.7,1.7,0.5,2.4c-0.1,0.7-0.5,1.2-1.2,1.6c-0.7,0.4-1.4,0.4-2,0.1 c-0.6-0.3-1.2-0.9-1.7-1.8l-0.8-1.6c-0.5-0.9-0.6-1.7-0.5-2.4c0.1-0.7,0.5-1.2,1.2-1.6c0.7-0.4,1.4-0.4,2-0.1 c0.6,0.3,1.2,0.9,1.7,1.8L233.9,225.2z M232.5,223.8c-0.4-0.7-0.8-1.2-1.3-1.5c-0.5-0.2-1-0.2-1.5,0c-0.5,0.3-0.8,0.7-0.9,1.2 c-0.1,0.5,0.1,1.2,0.5,1.9l0.9,1.8c0.4,0.7,0.8,1.2,1.3,1.4s1,0.2,1.5,0c0.5-0.3,0.8-0.7,0.9-1.2c0.1-0.5-0.1-1.2-0.5-1.9 L232.5,223.8z" />
			<path class="text-dark" d="M237.3,227.1l-0.7,0.3l-0.4-0.8l0.7-0.3L237.3,227.1z" />
			<path class="text-dark"
				d="M238.5,226.1l1.3-0.5l-2.3-6.3l-1.4,0.7l-0.2-0.4l1.9-1.2l2.5,7l1.4-0.4l0.2,0.5l-3.3,1.2L238.5,226.1z" />
			<path class="text-dark"
				d="M246.9,220.9c0.3,1,0.2,1.8-0.1,2.5c-0.3,0.6-0.8,1.1-1.6,1.3c-0.7,0.2-1.4,0.1-2-0.4 c-0.6-0.4-1-1.1-1.2-2.1l-0.4-1.7c-0.3-1-0.2-1.8,0.1-2.5c0.3-0.6,0.8-1.1,1.6-1.3c0.8-0.2,1.4-0.1,2,0.4s1,1.1,1.2,2.1 L246.9,220.9z M245.8,219.2c-0.2-0.8-0.5-1.4-0.9-1.7c-0.4-0.3-0.9-0.5-1.5-0.3c-0.6,0.1-1,0.5-1.1,1c-0.2,0.5-0.2,1.1,0,1.9 l0.5,1.9c0.2,0.8,0.5,1.4,0.9,1.7c0.4,0.4,0.9,0.5,1.5,0.3c0.6-0.1,1-0.5,1.1-1s0.2-1.2,0-1.9L245.8,219.2z" />
			<path class="text-dark" d="M249.7,223.5l-0.7,0.1l-0.2-0.9l0.7-0.1L249.7,223.5z" />
			<path class="text-dark"
				d="M255,220.3l1.2-0.1l0.1,0.5l-1.2,0.1l0.1,1.5l0.9,0l0,0.5l-2.4,0.2l0-0.5l0.9-0.2l-0.1-1.5l-3.7,0.3l0-0.4 l3.1-5.9l0.7-0.1L255,220.3z M251.5,220.6l2.9-0.3l-0.4-4.5l0,0l-0.2,0.6L251.5,220.6z" />
		</g>
	</g>
	<g id="deployments-group">
	</g>
	<g id="containers-group">
		<g>
			<g>
				<polygon class="container-cube" points="124,273.8 131.9,269.3 139.8,273.8 131.9,278.4" />
				<polygon class="container-cube" points="124,283 124,273.8 131.9,278.4 131.9,287.6" />
				<polygon class="container-cube" points="131.9,287.6 131.9,278.4 139.8,273.8 139.8,283" />
			</g>
			<g>
				<path class="container-cylinder"
					d="M161.6,282.4C161.6,282.4,161.6,282.4,161.6,282.4C161.6,282.3,161.6,282.3,161.6,282.4v-8h-15.8v7.9 c0,0,0,0,0,0c0,0,0,0,0,0v0.1h0c0.2,2.2,3.6,3.9,7.9,3.9s7.7-1.7,7.9-3.9h0V282.4z" />
				<ellipse class="container-cylinder" cx="153.7" cy="274.5" rx="7.9" ry="4.1" />
			</g>
		</g>
		<g>
			<g>
				<polygon class="container-cube" points="163.8,187.9 171.7,183.3 179.7,187.9 171.7,192.5" />
				<polygon class="container-cube" points="163.8,197 163.8,187.9 171.7,192.5 171.7,201.6" />
				<polygon class="container-cube" points="171.7,201.6 171.7,192.5 179.7,187.9 179.7,197" />
			</g>
		</g>
		<g>
			<g>
				<polygon class="container-cube" points="251,148.6 258.9,144 266.9,148.6 258.9,153.2" />
				<polygon class="container-cube" points="251,157.8 251,148.6 258.9,153.2 258.9,162.3" />
				<polygon class="container-cube" points="258.9,162.3 258.9,153.2 266.9,148.6 266.9,157.8" />
			</g>
			<g>
				<polygon class="container-cube" points="242.1,166 248,162.6 254,166 248,169.5" />
				<polygon class="container-cube" points="242.1,172.9 242.1,166 248,169.5 248,176.3" />
				<polygon class="container-cube" points="248,176.3 248,169.5 254,166 254,172.9" />
			</g>
			<g>
				<path class="container-cylinder"
					d="M277.7,173.4C277.7,173.4,277.7,173.4,277.7,173.4C277.7,173.4,277.7,173.4,277.7,173.4v-8h-15.8v7.9 c0,0,0,0,0,0c0,0,0,0,0,0v0.1h0c0.2,2.2,3.6,3.9,7.9,3.9c4.3,0,7.7-1.7,7.9-3.9h0V173.4z" />
				<ellipse class="container-cylinder" cx="269.8" cy="165.5" rx="7.9" ry="4.1" />
			</g>
		</g>
		<g>
			<g>
				<path class="container-cylinder"
					d="M241.9,284.5C241.9,284.5,241.9,284.5,241.9,284.5C241.9,284.4,241.9,284.4,241.9,284.5v-10.6h-21.1v10.6 c0,0,0,0,0,0c0,0,0,0,0,0v0.2h0c0.2,2.9,4.9,5.2,10.5,5.2c5.7,0,10.3-2.3,10.5-5.2h0V284.5z" />
				<ellipse class="container-cylinder" cx="231.3" cy="274" rx="10.6" ry="5.4" />
			</g>
			<g>
				<path class="container-cylinder"
					d="M285.3,262.8C285.3,262.8,285.3,262.8,285.3,262.8C285.3,262.7,285.3,262.7,285.3,262.8v-10.6h-21.1v10.6 c0,0,0,0,0,0c0,0,0,0,0,0v0.2h0c0.2,2.9,4.9,5.2,10.5,5.2s10.3-2.3,10.5-5.2h0V262.8z" />
				<ellipse class="container-cylinder" cx="274.7" cy="252.3" rx="10.6" ry="5.4" />
			</g>
			<g>
				<polygon class="container-cube" points="249.7,273.1 260.2,267 270.8,273.1 260.2,279.2" />
				<polygon class="container-cube" points="249.7,285.3 249.7,273.1 260.2,279.2 260.2,291.4" />
				<polygon class="container-cube" points="260.2,291.4 260.2,279.2 270.8,273.1 270.8,285.3" />
			</g>
			<g>
				<polygon class="container-cube" points="281.3,274.6 289.2,270 297.1,274.6 289.2,279.2" />
				<polygon class="container-cube" points="281.3,283.8 281.3,274.6 289.2,279.2 289.2,288.3" />
				<polygon class="container-cube" points="289.2,288.3 289.2,279.2 297.1,274.6 297.1,283.8" />
			</g>
		</g>
		<g>
			<g>
				<polygon class="container-cube" points="248.8,297.5 243.5,294.4 238.2,297.5 243.5,300.5" />
				<polygon class="container-cube" points="248.8,303.6 248.8,297.5 243.5,300.5 243.5,306.6" />
				<polygon class="container-cube" points="243.5,306.6 243.5,300.5 238.2,297.5 238.2,303.6" />
			</g>
		</g>
	</g>
	<g id="labels-group">
	</g>
	<g id="description-group">
		<g>
			<path class="text-dark"
				d="M390,257.5l-0.8,0.1l1.3,3.6l0.1,0.5h0l0.1-0.5l1.3-3.6l-0.8-0.1v-0.7h2.4v0.7l-0.5,0.1l-2.1,5.5h-0.9 l-2.2-5.5l-0.5-0.1v-0.7h2.4V257.5z" />
			<path class="text-dark"
				d="M394.5,259.9c0-0.9,0.3-1.7,0.8-2.3s1.2-0.9,2.1-0.9c0.9,0,1.6,0.3,2.1,0.9s0.8,1.4,0.8,2.3v0.1 c0,0.9-0.3,1.7-0.8,2.3s-1.2,0.9-2.1,0.9c-0.9,0-1.6-0.3-2.1-0.9s-0.8-1.4-0.8-2.3V259.9z M395.6,260c0,0.7,0.1,1.2,0.4,1.7 s0.7,0.7,1.3,0.7c0.5,0,1-0.2,1.2-0.7s0.4-1,0.4-1.7v-0.1c0-0.7-0.1-1.2-0.4-1.7s-0.7-0.7-1.3-0.7s-1,0.2-1.3,0.7s-0.4,1-0.4,1.7 V260z" />
			<path class="text-dark" d="M400.9,254.7V254h2.1v8.2l1,0.2v0.7h-3.1v-0.7l1-0.2v-7.3L400.9,254.7z" />
			<path class="text-dark"
				d="M409.4,262.2c-0.2,0.3-0.5,0.6-0.8,0.8s-0.7,0.3-1.1,0.3c-0.7,0-1.2-0.2-1.6-0.7s-0.6-1.1-0.6-2.1v-2.8 l-0.7-0.2v-0.7h0.7h1.2v3.8c0,0.7,0.1,1.1,0.3,1.4s0.5,0.4,0.9,0.4c0.4,0,0.7-0.1,1-0.2s0.5-0.4,0.6-0.7v-3.7l-0.8-0.2v-0.7h0.8 h1.2v5.4l0.7,0.2v0.7h-1.8L409.4,262.2z" />
			<path class="text-dark"
				d="M411.9,262.4l1-0.2v-4.5l-1-0.2v-0.7h2l0.1,0.8c0.2-0.3,0.5-0.5,0.8-0.7s0.7-0.2,1.1-0.2s0.8,0.1,1.1,0.3 s0.5,0.5,0.7,0.9c0.2-0.4,0.5-0.6,0.8-0.9s0.7-0.3,1.1-0.3c0.6,0,1.2,0.2,1.5,0.7s0.6,1.1,0.6,2v2.9l1,0.2v0.7h-3.1v-0.7l1-0.2 v-2.9c0-0.6-0.1-1.1-0.3-1.3s-0.5-0.4-1-0.4c-0.4,0-0.7,0.1-1,0.4s-0.4,0.6-0.4,1.1v3.1l1,0.2v0.7h-3.1v-0.7l1-0.2v-2.9 c0-0.6-0.1-1-0.3-1.3s-0.5-0.4-1-0.4c-0.4,0-0.6,0.1-0.9,0.2s-0.4,0.3-0.5,0.6v3.8l1,0.2v0.7h-3.1V262.4z" />
			<path class="text-dark"
				d="M426.3,263.2c-0.9,0-1.6-0.3-2.1-0.9s-0.8-1.4-0.8-2.3v-0.3c0-0.9,0.3-1.7,0.8-2.3s1.2-0.9,1.9-0.9 c0.9,0,1.5,0.3,1.9,0.8s0.7,1.2,0.7,2.1v0.7h-4.1l0,0c0,0.6,0.2,1.1,0.5,1.5s0.7,0.6,1.2,0.6c0.4,0,0.7-0.1,1-0.2s0.5-0.3,0.8-0.5 l0.5,0.8c-0.2,0.2-0.5,0.4-0.9,0.6S426.8,263.2,426.3,263.2z M426.1,257.6c-0.4,0-0.7,0.2-1,0.5s-0.4,0.7-0.5,1.2l0,0h2.9v-0.2 c0-0.5-0.1-0.8-0.4-1.1S426.6,257.6,426.1,257.6z" />
		</g>
		<line class="leader-line" x1="385.3" y1="260.7" x2="274" y2="260.7" />
		<g>
			<path class="text-dark"
				d="M387.7,348.8l1-0.2v-4.5l-1-0.2v-0.7h2l0.1,0.9c0.2-0.3,0.5-0.6,0.8-0.8s0.7-0.3,1.1-0.3 c0.7,0,1.2,0.2,1.6,0.6s0.6,1,0.6,1.9v3.1l1,0.2v0.7h-3.1v-0.7l1-0.2v-3.1c0-0.6-0.1-1-0.3-1.2s-0.6-0.4-1-0.4 c-0.3,0-0.6,0.1-0.9,0.2s-0.5,0.4-0.6,0.7v3.7l1,0.2v0.7h-3.1V348.8z" />
			<path class="text-dark"
				d="M395.5,346.3c0-0.9,0.3-1.7,0.8-2.3s1.2-0.9,2.1-0.9c0.9,0,1.6,0.3,2.1,0.9s0.8,1.4,0.8,2.3v0.1 c0,0.9-0.3,1.7-0.8,2.3s-1.2,0.9-2.1,0.9c-0.9,0-1.6-0.3-2.1-0.9s-0.8-1.4-0.8-2.3V346.3z M396.7,346.5c0,0.7,0.1,1.2,0.4,1.7 s0.7,0.7,1.3,0.7c0.5,0,1-0.2,1.2-0.7s0.4-1,0.4-1.7v-0.1c0-0.7-0.1-1.2-0.4-1.7s-0.7-0.7-1.3-0.7s-1,0.2-1.3,0.7s-0.4,1-0.4,1.7 V346.5z" />
			<path class="text-dark"
				d="M406.5,348.8c-0.2,0.3-0.5,0.5-0.8,0.7s-0.6,0.2-1,0.2c-0.8,0-1.4-0.3-1.8-0.8s-0.7-1.3-0.7-2.2v-0.1 c0-1,0.2-1.8,0.7-2.5s1-0.9,1.8-0.9c0.4,0,0.7,0.1,1,0.2s0.5,0.3,0.7,0.6v-2.6l-1-0.2v-0.7h1h1.2v8.2l1,0.2v0.7h-2L406.5,348.8z M403.4,346.6c0,0.6,0.1,1.1,0.4,1.5s0.7,0.6,1.2,0.6c0.3,0,0.6-0.1,0.9-0.2s0.4-0.4,0.6-0.7v-2.9c-0.1-0.3-0.3-0.5-0.6-0.6 s-0.5-0.2-0.9-0.2c-0.6,0-1,0.2-1.2,0.7s-0.4,1.1-0.4,1.8V346.6z" />
			<path class="text-dark"
				d="M412.3,349.7c-0.9,0-1.6-0.3-2.1-0.9s-0.8-1.4-0.8-2.3v-0.3c0-0.9,0.3-1.7,0.8-2.3s1.2-0.9,1.9-0.9 c0.9,0,1.5,0.3,1.9,0.8s0.7,1.2,0.7,2.1v0.7h-4.1l0,0c0,0.6,0.2,1.1,0.5,1.5s0.7,0.6,1.2,0.6c0.4,0,0.7-0.1,1-0.2s0.5-0.3,0.8-0.5 l0.5,0.8c-0.2,0.2-0.5,0.4-0.9,0.6S412.9,349.7,412.3,349.7z M412.2,344c-0.4,0-0.7,0.2-1,0.5s-0.4,0.7-0.5,1.2l0,0h2.9v-0.2 c0-0.5-0.1-0.8-0.4-1.1S412.6,344,412.2,344z" />
			<path class="text-dark"
				d="M418.7,351.2l1-0.2v-7l-1-0.2v-0.7h1.9l0.1,0.8c0.2-0.3,0.5-0.5,0.8-0.7s0.7-0.2,1.1-0.2 c0.8,0,1.4,0.3,1.8,0.9s0.7,1.4,0.7,2.5v0.1c0,0.9-0.2,1.7-0.7,2.2s-1,0.8-1.8,0.8c-0.4,0-0.7-0.1-1-0.2s-0.5-0.3-0.8-0.6v2.2 l1,0.2v0.7h-3.1V351.2z M423.9,346.5c0-0.7-0.1-1.3-0.4-1.8s-0.7-0.7-1.3-0.7c-0.3,0-0.6,0.1-0.8,0.2s-0.4,0.4-0.6,0.6v3.1 c0.1,0.3,0.3,0.5,0.6,0.6s0.5,0.2,0.9,0.2c0.5,0,1-0.2,1.2-0.6s0.4-0.9,0.4-1.6V346.5z" />
			<path class="text-dark"
				d="M426.2,344v-0.7h2l0.1,0.9c0.2-0.3,0.4-0.6,0.7-0.8s0.6-0.3,0.9-0.3c0.1,0,0.2,0,0.3,0s0.2,0,0.2,0l-0.2,1.1 l-0.7,0c-0.3,0-0.6,0.1-0.8,0.2s-0.4,0.3-0.5,0.6v3.6l1,0.2v0.7h-3.1v-0.7l1-0.2v-4.5L426.2,344z" />
			<path class="text-dark"
				d="M431,346.3c0-0.9,0.3-1.7,0.8-2.3s1.2-0.9,2.1-0.9c0.9,0,1.6,0.3,2.1,0.9s0.8,1.4,0.8,2.3v0.1 c0,0.9-0.3,1.7-0.8,2.3s-1.2,0.9-2.1,0.9c-0.9,0-1.6-0.3-2.1-0.9s-0.8-1.4-0.8-2.3V346.3z M432.2,346.5c0,0.7,0.1,1.2,0.4,1.7 s0.7,0.7,1.3,0.7c0.5,0,1-0.2,1.2-0.7s0.4-1,0.4-1.7v-0.1c0-0.7-0.1-1.2-0.4-1.7s-0.7-0.7-1.3-0.7s-1,0.2-1.3,0.7s-0.4,1-0.4,1.7 V346.5z" />
			<path class="text-dark"
				d="M440.6,348.8c0.4,0,0.7-0.1,1-0.4s0.4-0.5,0.4-0.9h1l0,0c0,0.5-0.2,1-0.7,1.5s-1.1,0.6-1.8,0.6 c-0.9,0-1.6-0.3-2.1-0.9s-0.7-1.4-0.7-2.3v-0.2c0-0.9,0.2-1.7,0.7-2.3s1.2-0.9,2.1-0.9c0.5,0,1,0.1,1.4,0.3s0.7,0.4,1,0.7l0.1,1.4 h-0.9l-0.3-1c-0.1-0.1-0.3-0.2-0.5-0.3s-0.5-0.1-0.7-0.1c-0.6,0-1,0.2-1.3,0.7s-0.4,1-0.4,1.6v0.2c0,0.6,0.1,1.2,0.4,1.6 S440,348.8,440.6,348.8z" />
			<path class="text-dark"
				d="M447.1,349.7c-0.9,0-1.6-0.3-2.1-0.9s-0.8-1.4-0.8-2.3v-0.3c0-0.9,0.3-1.7,0.8-2.3s1.2-0.9,1.9-0.9 c0.9,0,1.5,0.3,1.9,0.8s0.7,1.2,0.7,2.1v0.7h-4.1l0,0c0,0.6,0.2,1.1,0.5,1.5s0.7,0.6,1.2,0.6c0.4,0,0.7-0.1,1-0.2s0.5-0.3,0.8-0.5 l0.5,0.8c-0.2,0.2-0.5,0.4-0.9,0.6S447.6,349.7,447.1,349.7z M446.9,344c-0.4,0-0.7,0.2-1,0.5s-0.4,0.7-0.5,1.2l0,0h2.9v-0.2 c0-0.5-0.1-0.8-0.4-1.1S447.4,344,446.9,344z" />
			<path class="text-dark"
				d="M455.5,345.2h-0.9l-0.2-0.8c-0.1-0.1-0.3-0.2-0.5-0.3s-0.5-0.1-0.7-0.1c-0.4,0-0.7,0.1-0.9,0.3 s-0.3,0.4-0.3,0.7c0,0.2,0.1,0.4,0.3,0.6s0.5,0.3,1.1,0.4c0.8,0.2,1.4,0.4,1.8,0.7s0.6,0.7,0.6,1.2c0,0.6-0.2,1-0.7,1.4 s-1,0.5-1.8,0.5c-0.5,0-0.9-0.1-1.3-0.2s-0.7-0.3-1-0.5l0-1.4h0.9l0.2,0.8c0.1,0.1,0.3,0.2,0.5,0.3s0.5,0.1,0.7,0.1 c0.4,0,0.7-0.1,1-0.2s0.3-0.4,0.3-0.7c0-0.3-0.1-0.5-0.3-0.6s-0.6-0.3-1.1-0.4c-0.8-0.2-1.3-0.4-1.7-0.7s-0.6-0.7-0.6-1.2 c0-0.5,0.2-1,0.7-1.3s1-0.5,1.7-0.5c0.5,0,0.9,0.1,1.3,0.2s0.7,0.3,1,0.5L455.5,345.2z" />
			<path class="text-dark"
				d="M461.6,345.2h-0.9l-0.2-0.8c-0.1-0.1-0.3-0.2-0.5-0.3s-0.5-0.1-0.7-0.1c-0.4,0-0.7,0.1-0.9,0.3 s-0.3,0.4-0.3,0.7c0,0.2,0.1,0.4,0.3,0.6s0.5,0.3,1.1,0.4c0.8,0.2,1.4,0.4,1.8,0.7s0.6,0.7,0.6,1.2c0,0.6-0.2,1-0.7,1.4 s-1,0.5-1.8,0.5c-0.5,0-0.9-0.1-1.3-0.2s-0.7-0.3-1-0.5l0-1.4h0.9l0.2,0.8c0.1,0.1,0.3,0.2,0.5,0.3s0.5,0.1,0.7,0.1 c0.4,0,0.7-0.1,1-0.2s0.3-0.4,0.3-0.7c0-0.3-0.1-0.5-0.3-0.6s-0.6-0.3-1.1-0.4c-0.8-0.2-1.3-0.4-1.7-0.7s-0.6-0.7-0.6-1.2 c0-0.5,0.2-1,0.7-1.3s1-0.5,1.7-0.5c0.5,0,0.9,0.1,1.3,0.2s0.7,0.3,1,0.5L461.6,345.2z" />
			<path class="text-dark"
				d="M465.8,349.7c-0.9,0-1.6-0.3-2.1-0.9s-0.8-1.4-0.8-2.3v-0.3c0-0.9,0.3-1.7,0.8-2.3s1.2-0.9,1.9-0.9 c0.9,0,1.5,0.3,1.9,0.8s0.7,1.2,0.7,2.1v0.7h-4.1l0,0c0,0.6,0.2,1.1,0.5,1.5s0.7,0.6,1.2,0.6c0.4,0,0.7-0.1,1-0.2s0.5-0.3,0.8-0.5 l0.5,0.8c-0.2,0.2-0.5,0.4-0.9,0.6S466.3,349.7,465.8,349.7z M465.6,344c-0.4,0-0.7,0.2-1,0.5s-0.4,0.7-0.5,1.2l0,0h2.9v-0.2 c0-0.5-0.1-0.8-0.4-1.1S466.1,344,465.6,344z" />
			<path class="text-dark"
				d="M474.2,345.2h-0.9l-0.2-0.8c-0.1-0.1-0.3-0.2-0.5-0.3s-0.5-0.1-0.7-0.1c-0.4,0-0.7,0.1-0.9,0.3 s-0.3,0.4-0.3,0.7c0,0.2,0.1,0.4,0.3,0.6s0.5,0.3,1.1,0.4c0.8,0.2,1.4,0.4,1.8,0.7s0.6,0.7,0.6,1.2c0,0.6-0.2,1-0.7,1.4 s-1,0.5-1.8,0.5c-0.5,0-0.9-0.1-1.3-0.2s-0.7-0.3-1-0.5l0-1.4h0.9l0.2,0.8c0.1,0.1,0.3,0.2,0.5,0.3s0.5,0.1,0.7,0.1 c0.4,0,0.7-0.1,1-0.2s0.3-0.4,0.3-0.7c0-0.3-0.1-0.5-0.3-0.6s-0.6-0.3-1.1-0.4c-0.8-0.2-1.3-0.4-1.7-0.7s-0.6-0.7-0.6-1.2 c0-0.5,0.2-1,0.7-1.3s1-0.5,1.7-0.5c0.5,0,0.9,0.1,1.3,0.2s0.7,0.3,1,0.5L474.2,345.2z" />
		</g>
		<line class="leader-line" x1="385.3" y1="347.2" x2="114.1" y2="347.2" />
		<g>
			<path class="text-dark"
				d="M390.7,283.9c0.4,0,0.7-0.1,1-0.4s0.4-0.5,0.4-0.9h1l0,0c0,0.5-0.2,1-0.7,1.5s-1.1,0.6-1.8,0.6 c-0.9,0-1.6-0.3-2.1-0.9s-0.7-1.4-0.7-2.3v-0.2c0-0.9,0.2-1.7,0.7-2.3s1.2-0.9,2.1-0.9c0.5,0,1,0.1,1.4,0.3s0.7,0.4,1,0.7l0.1,1.4 h-0.9l-0.3-1c-0.1-0.1-0.3-0.2-0.5-0.3s-0.5-0.1-0.7-0.1c-0.6,0-1,0.2-1.3,0.7s-0.4,1-0.4,1.6v0.2c0,0.6,0.1,1.2,0.4,1.6 S390.1,283.9,390.7,283.9z" />
			<path class="text-dark"
				d="M394.3,281.4c0-0.9,0.3-1.7,0.8-2.3s1.2-0.9,2.1-0.9c0.9,0,1.6,0.3,2.1,0.9s0.8,1.4,0.8,2.3v0.1 c0,0.9-0.3,1.7-0.8,2.3s-1.2,0.9-2.1,0.9c-0.9,0-1.6-0.3-2.1-0.9s-0.8-1.4-0.8-2.3V281.4z M395.5,281.5c0,0.7,0.1,1.2,0.4,1.7 s0.7,0.7,1.3,0.7c0.5,0,1-0.2,1.2-0.7s0.4-1,0.4-1.7v-0.1c0-0.7-0.1-1.2-0.4-1.7s-0.7-0.7-1.3-0.7s-1,0.2-1.3,0.7s-0.4,1-0.4,1.7 V281.5z" />
			<path class="text-dark"
				d="M400.9,283.9l1-0.2v-4.5l-1-0.2v-0.7h2l0.1,0.9c0.2-0.3,0.5-0.6,0.8-0.8s0.7-0.3,1.1-0.3 c0.7,0,1.2,0.2,1.6,0.6s0.6,1,0.6,1.9v3.1l1,0.2v0.7h-3.1v-0.7l1-0.2v-3.1c0-0.6-0.1-1-0.3-1.2s-0.6-0.4-1-0.4 c-0.3,0-0.6,0.1-0.9,0.2s-0.5,0.4-0.6,0.7v3.7l1,0.2v0.7h-3.1V283.9z" />
			<path class="text-dark"
				d="M410.8,276.8v1.5h1.2v0.9h-1.2v3.8c0,0.3,0.1,0.5,0.2,0.6s0.3,0.2,0.5,0.2c0.1,0,0.2,0,0.3,0s0.2,0,0.3-0.1 l0.2,0.8c-0.1,0.1-0.3,0.1-0.5,0.2s-0.4,0.1-0.6,0.1c-0.5,0-0.8-0.1-1.1-0.4s-0.4-0.7-0.4-1.3v-3.8h-1v-0.9h1v-1.5H410.8z" />
			<path class="text-dark"
				d="M417.3,284.6c0-0.2-0.1-0.3-0.1-0.5s0-0.3,0-0.4c-0.2,0.3-0.5,0.5-0.8,0.7s-0.7,0.3-1.1,0.3 c-0.7,0-1.2-0.2-1.5-0.5s-0.5-0.8-0.5-1.4c0-0.6,0.2-1.1,0.7-1.4s1.2-0.5,2-0.5h1.2v-0.7c0-0.4-0.1-0.7-0.4-0.9s-0.6-0.3-1-0.3 c-0.3,0-0.5,0-0.8,0.1s-0.4,0.2-0.5,0.3l-0.1,0.7h-0.9v-1.2c0.3-0.2,0.6-0.4,1-0.6s0.9-0.2,1.3-0.2c0.7,0,1.3,0.2,1.7,0.6 s0.7,0.9,0.7,1.6v3.1c0,0.1,0,0.2,0,0.2s0,0.2,0,0.2l0.5,0.1v0.7H417.3z M415.5,283.8c0.4,0,0.7-0.1,1-0.3s0.5-0.4,0.7-0.7v-1 h-1.2c-0.5,0-0.8,0.1-1.1,0.3s-0.4,0.5-0.4,0.8c0,0.3,0.1,0.5,0.3,0.6S415.1,283.8,415.5,283.8z" />
			<path class="text-dark"
				d="M419.8,283.9l1-0.2v-4.5l-1-0.2v-0.7h2.1v5.4l1,0.2v0.7h-3.1V283.9z M421.9,276.7h-1.2v-1.2h1.2V276.7z" />
			<path class="text-dark"
				d="M423.6,283.9l1-0.2v-4.5l-1-0.2v-0.7h2l0.1,0.9c0.2-0.3,0.5-0.6,0.8-0.8s0.7-0.3,1.1-0.3 c0.7,0,1.2,0.2,1.6,0.6s0.6,1,0.6,1.9v3.1l1,0.2v0.7h-3.1v-0.7l1-0.2v-3.1c0-0.6-0.1-1-0.3-1.2s-0.6-0.4-1-0.4 c-0.3,0-0.6,0.1-0.9,0.2s-0.5,0.4-0.6,0.7v3.7l1,0.2v0.7h-3.1V283.9z" />
			<path class="text-dark"
				d="M434.3,284.8c-0.9,0-1.6-0.3-2.1-0.9s-0.8-1.4-0.8-2.3v-0.3c0-0.9,0.3-1.7,0.8-2.3s1.2-0.9,1.9-0.9 c0.9,0,1.5,0.3,1.9,0.8s0.7,1.2,0.7,2.1v0.7h-4.1l0,0c0,0.6,0.2,1.1,0.5,1.5s0.7,0.6,1.2,0.6c0.4,0,0.7-0.1,1-0.2s0.5-0.3,0.8-0.5 l0.5,0.8c-0.2,0.2-0.5,0.4-0.9,0.6S434.8,284.8,434.3,284.8z M434.1,279.1c-0.4,0-0.7,0.2-1,0.5s-0.4,0.7-0.5,1.2l0,0h2.9v-0.2 c0-0.5-0.1-0.8-0.4-1.1S434.6,279.1,434.1,279.1z" />
			<path class="text-dark"
				d="M437.8,279v-0.7h2l0.1,0.9c0.2-0.3,0.4-0.6,0.7-0.8s0.6-0.3,0.9-0.3c0.1,0,0.2,0,0.3,0s0.2,0,0.2,0l-0.2,1.1 l-0.7,0c-0.3,0-0.6,0.1-0.8,0.2s-0.4,0.3-0.5,0.6v3.6l1,0.2v0.7h-3.1v-0.7l1-0.2v-4.5L437.8,279z" />
			<path class="text-dark"
				d="M442.8,283.9l1-0.2v-4.5l-1-0.2v-0.7h2.1v5.4l1,0.2v0.7h-3.1V283.9z M444.9,276.7h-1.2v-1.2h1.2V276.7z" />
			<path class="text-dark"
				d="M448.3,283.7h2.6l0.1-1h1v1.9h-5v-0.8l3.4-4.6H448l-0.1,1h-1v-1.9h4.8v0.8L448.3,283.7z" />
			<path class="text-dark"
				d="M455.9,284.8c-0.9,0-1.6-0.3-2.1-0.9s-0.8-1.4-0.8-2.3v-0.3c0-0.9,0.3-1.7,0.8-2.3s1.2-0.9,1.9-0.9 c0.9,0,1.5,0.3,1.9,0.8s0.7,1.2,0.7,2.1v0.7h-4.1l0,0c0,0.6,0.2,1.1,0.5,1.5s0.7,0.6,1.2,0.6c0.4,0,0.7-0.1,1-0.2s0.5-0.3,0.8-0.5 l0.5,0.8c-0.2,0.2-0.5,0.4-0.9,0.6S456.4,284.8,455.9,284.8z M455.7,279.1c-0.4,0-0.7,0.2-1,0.5s-0.4,0.7-0.5,1.2l0,0h2.9v-0.2 c0-0.5-0.1-0.8-0.4-1.1S456.2,279.1,455.7,279.1z" />
			<path class="text-dark"
				d="M463.7,283.9c-0.2,0.3-0.5,0.5-0.8,0.7s-0.6,0.2-1,0.2c-0.8,0-1.4-0.3-1.8-0.8s-0.7-1.3-0.7-2.2v-0.1 c0-1,0.2-1.8,0.7-2.5s1-0.9,1.8-0.9c0.4,0,0.7,0.1,1,0.2s0.5,0.3,0.7,0.6v-2.6l-1-0.2v-0.7h1h1.2v8.2l1,0.2v0.7h-2L463.7,283.9z M460.6,281.7c0,0.6,0.1,1.1,0.4,1.5s0.7,0.6,1.2,0.6c0.3,0,0.6-0.1,0.9-0.2s0.4-0.4,0.6-0.7V280c-0.1-0.3-0.3-0.5-0.6-0.6 s-0.5-0.2-0.9-0.2c-0.6,0-1,0.2-1.2,0.7s-0.4,1.1-0.4,1.8V281.7z" />
			<path class="text-dark"
				d="M473.8,284.6c0-0.2-0.1-0.3-0.1-0.5s0-0.3,0-0.4c-0.2,0.3-0.5,0.5-0.8,0.7s-0.7,0.3-1.1,0.3 c-0.7,0-1.2-0.2-1.5-0.5s-0.5-0.8-0.5-1.4c0-0.6,0.2-1.1,0.7-1.4s1.2-0.5,2-0.5h1.2v-0.7c0-0.4-0.1-0.7-0.4-0.9s-0.6-0.3-1-0.3 c-0.3,0-0.5,0-0.8,0.1s-0.4,0.2-0.5,0.3l-0.1,0.7H470v-1.2c0.3-0.2,0.6-0.4,1-0.6s0.9-0.2,1.3-0.2c0.7,0,1.3,0.2,1.7,0.6 s0.7,0.9,0.7,1.6v3.1c0,0.1,0,0.2,0,0.2s0,0.2,0,0.2l0.5,0.1v0.7H473.8z M471.9,283.8c0.4,0,0.7-0.1,1-0.3s0.5-0.4,0.7-0.7v-1 h-1.2c-0.5,0-0.8,0.1-1.1,0.3s-0.4,0.5-0.4,0.8c0,0.3,0.1,0.5,0.3,0.6S471.6,283.8,471.9,283.8z" />
			<path class="text-dark"
				d="M476.1,286.3l1-0.2v-7l-1-0.2v-0.7h1.9l0.1,0.8c0.2-0.3,0.5-0.5,0.8-0.7s0.7-0.2,1.1-0.2 c0.8,0,1.4,0.3,1.8,0.9s0.7,1.4,0.7,2.5v0.1c0,0.9-0.2,1.7-0.7,2.2s-1,0.8-1.8,0.8c-0.4,0-0.7-0.1-1-0.2s-0.5-0.3-0.8-0.6v2.2 l1,0.2v0.7h-3.1V286.3z M481.3,281.6c0-0.7-0.1-1.3-0.4-1.8s-0.7-0.7-1.3-0.7c-0.3,0-0.6,0.1-0.8,0.2s-0.4,0.4-0.6,0.6v3.1 c0.1,0.3,0.3,0.5,0.6,0.6s0.5,0.2,0.9,0.2c0.5,0,1-0.2,1.2-0.6s0.4-0.9,0.4-1.6V281.6z" />
			<path class="text-dark"
				d="M483.4,286.3l1-0.2v-7l-1-0.2v-0.7h1.9l0.1,0.8c0.2-0.3,0.5-0.5,0.8-0.7s0.7-0.2,1.1-0.2 c0.8,0,1.4,0.3,1.8,0.9s0.7,1.4,0.7,2.5v0.1c0,0.9-0.2,1.7-0.7,2.2s-1,0.8-1.8,0.8c-0.4,0-0.7-0.1-1-0.2s-0.5-0.3-0.8-0.6v2.2 l1,0.2v0.7h-3.1V286.3z M488.6,281.6c0-0.7-0.1-1.3-0.4-1.8s-0.7-0.7-1.3-0.7c-0.3,0-0.6,0.1-0.8,0.2s-0.4,0.4-0.6,0.6v3.1 c0.1,0.3,0.3,0.5,0.6,0.6s0.5,0.2,0.9,0.2c0.5,0,1-0.2,1.2-0.6s0.4-0.9,0.4-1.6V281.6z" />
		</g>
		<line class="leader-line" x1="385.3" y1="282.2" x2="261.9" y2="282.2" />
		<g>
			<path class="text-dark"
				d="M391.7,178.9c0.9,0,1.6,0.2,2.1,0.7s0.8,1.1,0.8,1.9c0,0.8-0.3,1.4-0.8,1.9s-1.2,0.7-2.1,0.7h-1.8v2.5l1,0.2 v0.7h-3.1v-0.7l1-0.2v-6.7l-1-0.2v-0.7h1H391.7z M389.9,183.1h1.8c0.6,0,1-0.2,1.3-0.5s0.4-0.7,0.4-1.2s-0.1-0.9-0.4-1.2 s-0.7-0.5-1.3-0.5h-1.8V183.1z" />
			<path class="text-dark"
				d="M395.4,184.2c0-0.9,0.3-1.7,0.8-2.3s1.2-0.9,2.1-0.9c0.9,0,1.6,0.3,2.1,0.9s0.8,1.4,0.8,2.3v0.1 c0,0.9-0.3,1.7-0.8,2.3s-1.2,0.9-2.1,0.9c-0.9,0-1.6-0.3-2.1-0.9s-0.8-1.4-0.8-2.3V184.2z M396.6,184.3c0,0.7,0.1,1.2,0.4,1.7 s0.7,0.7,1.3,0.7c0.5,0,1-0.2,1.2-0.7s0.4-1,0.4-1.7v-0.1c0-0.7-0.1-1.2-0.4-1.7s-0.7-0.7-1.3-0.7s-1,0.2-1.3,0.7s-0.4,1-0.4,1.7 V184.3z" />
			<path class="text-dark"
				d="M406.4,186.6c-0.2,0.3-0.5,0.5-0.8,0.7s-0.6,0.2-1,0.2c-0.8,0-1.4-0.3-1.8-0.8s-0.7-1.3-0.7-2.2v-0.1 c0-1,0.2-1.8,0.7-2.5s1-0.9,1.8-0.9c0.4,0,0.7,0.1,1,0.2s0.5,0.3,0.7,0.6v-2.6l-1-0.2v-0.7h1h1.2v8.2l1,0.2v0.7h-2L406.4,186.6z M403.3,184.5c0,0.6,0.1,1.1,0.4,1.5s0.7,0.6,1.2,0.6c0.3,0,0.6-0.1,0.9-0.2s0.4-0.4,0.6-0.7v-2.9c-0.1-0.3-0.3-0.5-0.6-0.6 s-0.5-0.2-0.9-0.2c-0.6,0-1,0.2-1.2,0.7s-0.4,1.1-0.4,1.8V184.5z" />
		</g>
		<line class="leader-line" x1="385.3" y1="185" x2="291" y2="185" />
		<g>
			<path class="text-dark"
				d="M396.1,59.1v0.7l-1,0.2v7.6H394l-4.1-6.6l0,0v5.7l1,0.2v0.7h-3.1v-0.7l1-0.2V60l-1-0.2v-0.7h1h1.2l4.1,6.6 l0,0V60l-1-0.2v-0.7h2.1H396.1z" />
			<path class="text-dark"
				d="M397,64.4c0-0.9,0.3-1.7,0.8-2.3s1.2-0.9,2.1-0.9c0.9,0,1.6,0.3,2.1,0.9s0.8,1.4,0.8,2.3v0.1 c0,0.9-0.3,1.7-0.8,2.3s-1.2,0.9-2.1,0.9c-0.9,0-1.6-0.3-2.1-0.9s-0.8-1.4-0.8-2.3V64.4z M398.2,64.5c0,0.7,0.1,1.2,0.4,1.7 s0.7,0.7,1.3,0.7c0.5,0,1-0.2,1.2-0.7s0.4-1,0.4-1.7v-0.1c0-0.7-0.1-1.2-0.4-1.7s-0.7-0.7-1.3-0.7s-1,0.2-1.3,0.7s-0.4,1-0.4,1.7 V64.5z" />
			<path class="text-dark"
				d="M408,66.9c-0.2,0.3-0.5,0.5-0.8,0.7s-0.6,0.2-1,0.2c-0.8,0-1.4-0.3-1.8-0.8s-0.7-1.3-0.7-2.2v-0.1 c0-1,0.2-1.8,0.7-2.5s1-0.9,1.8-0.9c0.4,0,0.7,0.1,1,0.2s0.5,0.3,0.7,0.6v-2.6l-1-0.2v-0.7h1h1.2v8.2l1,0.2v0.7h-2L408,66.9z M404.9,64.7c0,0.6,0.1,1.1,0.4,1.5s0.7,0.6,1.2,0.6c0.3,0,0.6-0.1,0.9-0.2s0.4-0.4,0.6-0.7V63c-0.1-0.3-0.3-0.5-0.6-0.6 s-0.5-0.2-0.9-0.2c-0.6,0-1,0.2-1.2,0.7s-0.4,1.1-0.4,1.8V64.7z" />
			<path class="text-dark"
				d="M413.8,67.7c-0.9,0-1.6-0.3-2.1-0.9s-0.8-1.4-0.8-2.3v-0.3c0-0.9,0.3-1.7,0.8-2.3s1.2-0.9,1.9-0.9 c0.9,0,1.5,0.3,1.9,0.8s0.7,1.2,0.7,2.1v0.7h-4.1l0,0c0,0.6,0.2,1.1,0.5,1.5s0.7,0.6,1.2,0.6c0.4,0,0.7-0.1,1-0.2s0.5-0.3,0.8-0.5 l0.5,0.8c-0.2,0.2-0.5,0.4-0.9,0.6S414.3,67.7,413.8,67.7z M413.6,62.1c-0.4,0-0.7,0.2-1,0.5s-0.4,0.7-0.5,1.2l0,0h2.9v-0.2 c0-0.5-0.1-0.8-0.4-1.1S414.1,62.1,413.6,62.1z" />
		</g>
		<line class="leader-line" x1="385.3" y1="65.2" x2="200.7" y2="65.2" />
	</g>
</svg>
