<svg xmlns="http://www.w3.org/2000/svg" xmlns:xlink="http://www.w3.org/1999/xlink" x="0" y="0" version="1.1" viewBox="0 0 484 440.4" xml:space="preserve" style="enable-background:new 0 0 484 440.4"><style type="text/css">.st0{fill:#fff;stroke:#326de6;stroke-width:2;stroke-linecap:round;stroke-linejoin:round;stroke-miterlimit:10}.st1{opacity:.71;fill:#326ce6}.st2{opacity:.45;fill:#fff}.st3{fill:#fff;stroke:#006de9;stroke-width:2;stroke-linecap:round;stroke-linejoin:round;stroke-miterlimit:10}.st4{fill:#006de9}.st5{fill:#a0caea}.st6{fill:#fff}.st12,.st17{fill:#fff;stroke:#326de6;stroke-miterlimit:10}.st12{stroke-width:3.2;stroke-linecap:round;stroke-linejoin:round}.st17{stroke-width:1.6}.st21{stroke-dasharray:2.4,1.6}.st21,.st22{fill:none;stroke:#eef406;stroke-width:2;stroke-miterlimit:10}.st26{opacity:.1;fill:#eef406}.st42{fill:#011f38}.st45{fill:#326de6;stroke:#eef406;stroke-width:2;stroke-miterlimit:10}.st46,.st50,.st62{fill:none;stroke:#fff;stroke-width:1.2;stroke-linecap:round;stroke-linejoin:round}.st50,.st62{fill:#06f7c9;stroke:#011f38;stroke-width:.8;stroke-miterlimit:10}.st62{fill:none;stroke-width:.3}</style><symbol id="node_high_level" viewBox="-81 -93 162 186.1"><polygon points="-80 -46 -80 46 0 92 80 46 80 -46 0 -92" class="st0"/></symbol><symbol id="node_x5F_empty" viewBox="-87.5 -100.6 175.1 201.1"><use id="XMLID_201_" width="162" height="186.1" x="-81" y="-93" transform="matrix(1.0808 0 0 1.0808 -3.292006e-05 -3.749943e-05)" xlink:href="#node_high_level" style="overflow:visible"/><g><polygon points="76.8 -28.1 -14 -80.3 0 -88.3 76.7 -44.4" class="st1"/><polygon points="76.8 -28.1 32.1 -53.8 38.8 -66.1 76.7 -44.4" class="st2"/></g></symbol><symbol id="node_x5F_new" viewBox="-87.6 -101 175.2 202"><polygon points="0 -100 -86.6 -50 -86.6 50 0 100 86.6 50 86.6 -50" class="st3"/><polygon points="-86.6 -20.2 -86.6 -50 0 -100 25.8 -85.1" class="st4"/><polygon points="-40.8 -70.7 -32.9 -57 15.7 -85.1 0 -94.3" class="st5"/><text class="st6" transform="matrix(0.866 -0.5 -0.5 -0.866 -33.9256 -70.7388)" style="font-family:'RobotoSlab-Regular';font-size:11.3632px">Docker</text><text class="st6" transform="matrix(0.866 -0.5 -0.5 -0.866 -76.0668 -46.4087)" style="font-family:'RobotoSlab-Regular';font-size:11.3632px">Kubelt</text></symbol><g id="master"><polygon points="220.9 265.9 196.7 235.6 205.3 197.8 240.2 181 275.1 197.8 283.8 235.6 259.6 265.9" class="st12"/></g><g id="Node"><g><polygon points="303.8 179.8 245.7 146.2 245.7 79.1 303.8 45.6 361.9 79.1 361.9 146.2" class="st17"/></g><g><polygon points="176.6 179.7 118.6 146.1 118.6 79.1 176.6 45.5 234.7 79.1 234.7 146.1" class="st17"/></g><g><polygon points="176.6 401.4 118.6 367.9 118.6 300.8 176.6 267.2 234.7 300.8 234.7 367.9" class="st17"/></g></g><g id="service"><g><g><path d="M167,70.2l-1-0.3l0.1-1c-0.1-0.1-0.2-0.2-0.4-0.3c-0.2-0.1-0.4-0.2-0.7-0.3c-0.4-0.1-0.7-0.1-0.9,0 c-0.2,0.1-0.4,0.3-0.5,0.5c-0.1,0.2,0,0.4,0.2,0.6c0.2,0.2,0.5,0.5,0.9,0.8c0.7,0.4,1.1,0.8,1.4,1.3s0.3,0.9,0.2,1.5 c-0.2,0.6-0.5,0.9-1,1.1s-1.2,0.2-1.9,0c-0.5-0.1-1-0.4-1.3-0.7c-0.4-0.3-0.7-0.6-0.9-1l0.4-1.4l1,0.3l-0.1,1 c0.1,0.1,0.3,0.3,0.5,0.4c0.2,0.1,0.5,0.2,0.7,0.3c0.4,0.1,0.7,0.1,0.9,0c0.2-0.1,0.4-0.3,0.5-0.5c0.1-0.3,0-0.5-0.1-0.7 s-0.4-0.4-0.8-0.7c-0.7-0.4-1.2-0.9-1.5-1.3c-0.3-0.4-0.4-0.9-0.2-1.4c0.2-0.5,0.5-0.9,1-1.1c0.5-0.2,1.2-0.2,1.8,0 c0.5,0.1,0.9,0.4,1.3,0.6c0.4,0.3,0.7,0.6,0.9,0.9L167,70.2z"/><path d="M168.3,76c-0.7-0.3-1.1-0.8-1.3-1.4c-0.2-0.6-0.2-1.2,0.1-1.9l0.1-0.2c0.3-0.7,0.8-1.2,1.3-1.4c0.6-0.3,1.2-0.3,1.8,0 c0.6,0.3,1,0.7,1.2,1.2c0.2,0.5,0.1,1.1-0.2,1.8l-0.3,0.7l-2.8-1.2l0,0c-0.1,0.3-0.1,0.6,0,0.9s0.3,0.5,0.6,0.6 c0.3,0.1,0.5,0.2,0.7,0.2c0.2,0,0.4,0,0.7,0l0,0.9c-0.3,0.1-0.6,0.1-0.9,0S168.7,76.1,168.3,76z M169.9,72.1 c-0.2-0.1-0.5-0.1-0.7,0s-0.4,0.3-0.6,0.6l0,0l1.5,0.7l0.1-0.1c0.1-0.3,0.2-0.5,0.1-0.7C170.3,72.4,170.2,72.2,169.9,72.1z"/><path d="M171.1,76.3l0.6,0.2l1.6-2.7l-0.5-0.5l0.4-0.7l1.7,1l-0.3,0.7c0.2-0.2,0.5-0.3,0.7-0.3c0.2,0,0.5,0,0.7,0.2 c0.1,0,0.1,0.1,0.2,0.1c0.1,0.1,0.1,0.1,0.1,0.1l-0.8,1l-0.5-0.3c-0.2-0.1-0.3-0.2-0.5-0.2c-0.2,0-0.3,0-0.4,0.1l-1.3,2.1 l0.5,0.5l-0.4,0.7l-2.3-1.4L171.1,76.3z"/><path d="M178.3,77l-0.4-0.2l-0.9,2.2l-0.2,0.4l0,0l0.4-0.3l1.9-1.4l-0.3-0.4l0.5-0.6l1.8,1.4l-0.5,0.6l-0.4-0.2l-3.8,2.3l-1-0.8 l1.4-4.2l-0.3-0.3l0.5-0.6l1.8,1.4L178.3,77z"/><path d="M178.6,81.7l0.6,0.4l2.2-2.2l-0.4-0.6l0.6-0.6l1.5,1.5l-2.9,2.9l0.4,0.6l-0.6,0.6l-1.9-1.9L178.6,81.7z M183.9,79.3l-1-1 l0.7-0.7l1,1L183.9,79.3z"/><path d="M182.3,85.7c0.2,0.2,0.3,0.3,0.5,0.3c0.2,0,0.4,0,0.6-0.2l0.8,1l0,0c-0.4,0.3-0.8,0.4-1.4,0.4s-1-0.4-1.3-0.8 c-0.5-0.6-0.6-1.2-0.5-1.8c0.1-0.6,0.5-1.2,1.1-1.6l0.1-0.1c0.6-0.5,1.2-0.7,1.8-0.7c0.6,0,1.2,0.3,1.7,1c0.3,0.3,0.4,0.6,0.5,1 c0.1,0.3,0.1,0.6,0.1,1l-1,0.9l-0.7-0.9l0.5-0.7c0-0.1,0-0.2,0-0.3c0-0.1-0.1-0.2-0.2-0.3c-0.2-0.3-0.5-0.4-0.8-0.4 c-0.3,0.1-0.7,0.2-1,0.5l-0.1,0.1c-0.4,0.3-0.6,0.6-0.7,0.9C182,85.1,182.1,85.4,182.3,85.7z"/><path d="M184.3,90.4c-0.4-0.6-0.5-1.2-0.3-1.9c0.2-0.6,0.6-1.1,1.2-1.5l0.2-0.1c0.6-0.4,1.3-0.5,1.9-0.4c0.6,0.1,1.1,0.5,1.5,1.1 c0.4,0.6,0.4,1.1,0.3,1.7c-0.2,0.5-0.5,1-1.1,1.3l-0.6,0.4l-1.6-2.6l0,0c-0.3,0.2-0.5,0.4-0.5,0.7s0,0.6,0.1,0.9 c0.2,0.3,0.3,0.5,0.5,0.6c0.2,0.1,0.3,0.3,0.6,0.4l-0.5,0.8c-0.2-0.1-0.5-0.3-0.8-0.5S184.5,90.7,184.3,90.4z M187.8,88.1 c-0.1-0.2-0.3-0.3-0.6-0.4c-0.2,0-0.5,0-0.8,0.2l0,0l0.9,1.4l0.1-0.1c0.2-0.1,0.4-0.3,0.5-0.5C188,88.5,188,88.3,187.8,88.1z"/><path d="M187.4,94.1l0.2,0.4l6.3,0.1l0.4,1.3l-5,3.8l0.1,0.5l-0.8,0.3l-0.7-2.2l0.8-0.3l0.2,0.4l0.8-0.6l-0.7-2.1l-1,0l0.1,0.5 l-0.8,0.3l-0.7-2.2L187.4,94.1z M190.1,95.8l0.5,1.5l2-1.5l0,0L190.1,95.8z"/><path d="M190.1,105.2l0.2,1.1l4.6-0.2l0-1.2l0.8,0l0.6,2.5l-5.9,0.2l-0.1,1.2l-0.8,0l-0.2-3.7L190.1,105.2z"/><path d="M191.7,114.3c-0.9-0.1-1.6-0.3-2-0.8s-0.6-1-0.6-1.7c0.1-0.7,0.3-1.3,0.8-1.6s1.2-0.5,2.1-0.4l1.5,0.1 c0.9,0.1,1.6,0.3,2,0.8s0.6,1,0.6,1.7c-0.1,0.7-0.3,1.2-0.8,1.6s-1.2,0.5-2.1,0.4L191.7,114.3z M193.4,113.1c0.5,0,0.9,0,1.2-0.1 c0.3-0.1,0.4-0.4,0.4-0.7c0-0.3-0.1-0.6-0.3-0.7s-0.6-0.3-1.2-0.3l-1.8-0.2c-0.5,0-1,0-1.2,0.1s-0.4,0.4-0.4,0.7 c0,0.3,0.1,0.5,0.3,0.7c0.2,0.2,0.6,0.3,1.2,0.3L193.4,113.1z"/><path d="M188.6,116.2l0.3-1.3l1.2,0.2l-0.3,1.3L188.6,116.2z"/><path d="M191.9,119.4l-0.2,0.7c-0.1,0.3-0.1,0.6,0,0.8s0.3,0.3,0.6,0.4c0.3,0.1,0.5,0.1,0.7,0c0.2-0.1,0.3-0.3,0.4-0.6 c0.1-0.2,0.1-0.5,0-0.7c-0.1-0.2-0.3-0.4-0.5-0.4l0.4-1.3l0,0c0.5,0.1,0.9,0.5,1.1,1c0.2,0.5,0.2,1.1,0,1.7 c-0.2,0.7-0.5,1.2-1,1.5c-0.4,0.3-1,0.4-1.6,0.2c-0.3-0.1-0.5-0.3-0.7-0.5c-0.2-0.3-0.3-0.6-0.4-0.9c-0.2,0.3-0.5,0.5-0.8,0.6 c-0.3,0.1-0.7,0.1-1,0c-0.6-0.2-1-0.5-1.2-1.1s-0.2-1.1,0-1.8c0.2-0.6,0.5-1.1,1-1.4c0.5-0.3,1-0.4,1.6-0.2l0,0l-0.4,1.3 c-0.3-0.1-0.5,0-0.7,0.1s-0.4,0.3-0.5,0.6c-0.1,0.3-0.1,0.6,0,0.8c0.1,0.2,0.3,0.4,0.6,0.5c0.3,0.1,0.6,0.1,0.8,0 c0.2-0.1,0.4-0.4,0.5-0.7l0.2-0.7L191.9,119.4z"/><path d="M186.3,123.2l0.5-1.3l1.1,0.5l-0.5,1.3L186.3,123.2z"/><path d="M186.1,123.8l0.8,0.4l1,3.1c0.2,0.5,0.3,0.8,0.5,1s0.3,0.4,0.5,0.5c0.3,0.1,0.5,0.2,0.7,0.1s0.4-0.2,0.6-0.4 c0.2-0.3,0.2-0.5,0.1-0.8c-0.1-0.2-0.3-0.5-0.6-0.6l0.6-1.2l0,0c0.5,0.3,0.9,0.7,1.1,1.3c0.2,0.6,0.1,1.2-0.3,1.8 c-0.3,0.6-0.8,1-1.3,1.2c-0.5,0.2-1,0.1-1.6-0.2c-0.4-0.2-0.6-0.5-0.8-0.8s-0.4-0.9-0.7-1.6l-0.6-1.7l0,0l-0.9,1.6l0.6,0.4 l-0.5,0.9l-1.5-0.8L186.1,123.8z"/><path d="M185.7,134.2l0.4,0.2l1.1-1.5l-1.1-1.1c0,0.2,0,0.3-0.1,0.5c-0.1,0.2-0.1,0.4-0.3,0.5c-0.4,0.5-0.8,0.8-1.4,0.9 c-0.5,0-1.1-0.1-1.7-0.6c-0.5-0.4-0.8-0.9-1-1.5c-0.1-0.6,0.1-1.2,0.5-1.8c0.4-0.5,0.8-0.8,1.4-1c0.5-0.2,1,0,1.5,0.3l0,0 l-0.7,1.1c-0.2-0.2-0.5-0.3-0.7-0.2c-0.2,0-0.4,0.2-0.6,0.4c-0.2,0.3-0.2,0.5-0.1,0.8s0.3,0.5,0.6,0.7c0.3,0.2,0.6,0.4,0.9,0.4 c0.3,0,0.5-0.1,0.7-0.4c0.2-0.2,0.2-0.4,0.2-0.6c0-0.2,0-0.3-0.1-0.5l0.8-0.9l2.8,2.6l-2.3,3.2l-1.2-0.9L185.7,134.2z"/><path d="M179.2,137.4c-0.6-0.6-1-1.3-1-1.9s0.2-1.2,0.7-1.7c0.5-0.5,1.1-0.7,1.7-0.7c0.6,0,1.3,0.4,1.9,1l1.1,1.1 c0.6,0.6,1,1.3,1,1.9c0,0.6-0.2,1.2-0.7,1.7c-0.5,0.5-1.1,0.7-1.7,0.7c-0.6,0-1.3-0.4-1.9-1L179.2,137.4z M181.3,137.6 c0.4,0.4,0.7,0.6,1,0.7c0.3,0.1,0.5,0,0.8-0.2c0.2-0.2,0.3-0.5,0.2-0.8c-0.1-0.3-0.3-0.6-0.7-1l-1.3-1.2c-0.4-0.4-0.7-0.6-1-0.7 c-0.3-0.1-0.5,0-0.8,0.2c-0.2,0.2-0.3,0.5-0.2,0.8c0.1,0.3,0.3,0.6,0.7,1L181.3,137.6z"/><path d="M175.6,136.9l1.1-0.9l0.8,0.9l-1.1,0.9L175.6,136.9z"/><path d="M175.1,137.4l0.5,0.7l-0.5,3.2c-0.1,0.5-0.1,0.9-0.1,1.1c0,0.3,0.1,0.5,0.2,0.7c0.2,0.2,0.4,0.4,0.6,0.5 c0.2,0.1,0.5,0,0.7-0.1c0.3-0.2,0.4-0.4,0.4-0.7c0-0.3-0.1-0.6-0.3-0.8l1.1-0.7l0,0c0.4,0.5,0.5,1.1,0.4,1.6s-0.5,1.1-1.1,1.5 c-0.6,0.4-1.1,0.5-1.7,0.5c-0.5-0.1-1-0.4-1.3-0.9c-0.2-0.3-0.3-0.7-0.3-1.1c0-0.4,0.1-1,0.2-1.8l0.3-1.8l0,0l-1.5,1l0.3,0.6 l-0.9,0.6l-1-1.4L175.1,137.4z"/><path d="M171.3,144.4l-0.7,0.3c-0.3,0.1-0.5,0.3-0.5,0.5c-0.1,0.2,0,0.5,0.1,0.7c0.1,0.2,0.3,0.4,0.5,0.5 c0.2,0.1,0.5,0.1,0.7-0.1c0.2-0.1,0.4-0.3,0.5-0.5c0.1-0.2,0.1-0.4,0-0.6l1.2-0.6l0,0c0.2,0.5,0.3,1,0,1.5s-0.6,0.9-1.2,1.2 c-0.6,0.3-1.2,0.4-1.7,0.3s-0.9-0.5-1.2-1c-0.1-0.3-0.2-0.6-0.1-0.9c0.1-0.3,0.2-0.6,0.4-0.9c-0.4,0-0.7,0-1-0.2 c-0.3-0.2-0.5-0.4-0.7-0.7c-0.3-0.6-0.3-1.1,0-1.6s0.7-0.9,1.3-1.2c0.6-0.3,1.1-0.4,1.7-0.2c0.6,0.1,1,0.4,1.2,1l0,0l-1.2,0.6 c-0.1-0.2-0.3-0.4-0.5-0.5s-0.5,0-0.8,0.1c-0.3,0.1-0.5,0.3-0.6,0.6c-0.1,0.2-0.1,0.5,0.1,0.8c0.2,0.3,0.3,0.5,0.6,0.6 c0.2,0.1,0.5,0,0.8-0.1l0.7-0.3L171.3,144.4z"/><path d="M165.7,149.7c-0.2,0.1-0.5,0.1-0.7,0.1s-0.5,0-0.7,0l-0.1-1c0.2,0,0.4,0,0.6,0c0.2,0,0.4-0.1,0.6-0.1 c0.4-0.1,0.7-0.4,0.8-0.7s0.1-0.8,0-1.4l0,0c-0.1,0.2-0.2,0.4-0.4,0.5c-0.2,0.2-0.4,0.3-0.7,0.4c-0.6,0.2-1.1,0.1-1.6-0.2 s-0.8-0.8-1-1.4c-0.2-0.7-0.2-1.3,0.1-1.8c0.3-0.6,0.7-0.9,1.4-1.1c0.7-0.2,1.3-0.2,1.9,0.2s1,0.9,1.3,1.7l0.4,1.1 c0.3,0.9,0.3,1.7-0.1,2.4C167,149,166.4,149.5,165.7,149.7z M165,146.4c0.2-0.1,0.4-0.2,0.6-0.3c0.1-0.1,0.2-0.3,0.3-0.4 l-0.1-0.4c-0.2-0.5-0.4-0.9-0.7-1.1c-0.3-0.2-0.6-0.3-0.9-0.2c-0.3,0.1-0.4,0.3-0.5,0.6c-0.1,0.3-0.1,0.6,0,1 c0.1,0.4,0.3,0.6,0.5,0.8S164.7,146.5,165,146.4z"/></g></g><path d="M153.4,141.2c-18,0-32.6-14.6-32.6-32.6S135.4,76,153.4,76S186,90.6,186,108.6S171.4,141.2,153.4,141.2z" class="st21"/></g><g id="pods"><circle cx="153.4" cy="108.6" r="20.5" class="st26"/><circle cx="153.4" cy="108.6" r="20.5" class="st22"/></g><g id="IP"><g><path d="M134.4,95.3l0.5-0.8l-3.4-2.6l-0.5,0.9l-0.2-0.2l0.6-1.3l3.8,2.9l0.6-0.7l0.2,0.2l-1.4,1.8L134.4,95.3z" class="st42"/><path d="M137.3,89.6c0.5,0.5,0.7,0.9,0.8,1.4c0,0.5-0.1,0.8-0.5,1.2c-0.4,0.3-0.8,0.5-1.2,0.4 c-0.5-0.1-0.9-0.3-1.4-0.8l-0.8-0.8c-0.5-0.5-0.7-0.9-0.8-1.4c0-0.5,0.1-0.9,0.5-1.2c0.4-0.3,0.8-0.5,1.2-0.4 c0.5,0.1,0.9,0.3,1.4,0.8L137.3,89.6z M136.1,89c-0.4-0.4-0.7-0.6-1.1-0.7c-0.3-0.1-0.6,0-0.9,0.3c-0.3,0.3-0.4,0.6-0.3,0.9 s0.3,0.7,0.6,1.1l0.9,0.9c0.4,0.4,0.7,0.6,1.1,0.7c0.3,0.1,0.7,0,0.9-0.3c0.3-0.3,0.4-0.6,0.3-0.9c-0.1-0.3-0.3-0.7-0.6-1.1 L136.1,89z" class="st42"/><path d="M139.7,90.3l-0.4,0.3l-0.3-0.5l0.4-0.3L139.7,90.3z" class="st42"/><path d="M142.2,86.4c0.3,0.6,0.5,1.1,0.4,1.5c-0.1,0.4-0.3,0.8-0.7,1.1c-0.4,0.3-0.9,0.3-1.3,0.1 c-0.4-0.2-0.8-0.5-1.1-1.1l-0.6-1c-0.3-0.6-0.5-1.1-0.4-1.5s0.3-0.8,0.7-1.1c0.4-0.3,0.9-0.3,1.3-0.1s0.8,0.5,1.1,1.1L142.2,86.4z M141.2,85.5c-0.3-0.5-0.6-0.8-0.9-0.9c-0.3-0.1-0.6-0.1-1,0.1c-0.3,0.2-0.5,0.5-0.5,0.8c0,0.3,0.1,0.7,0.4,1.2l0.6,1.1 c0.3,0.4,0.6,0.7,0.9,0.9s0.6,0.1,1-0.1c0.3-0.2,0.5-0.5,0.5-0.8c0-0.3-0.1-0.7-0.4-1.2L141.2,85.5z" class="st42"/><path d="M144.4,87.6l-0.4,0.2l-0.2-0.5l0.4-0.2L144.4,87.6z" class="st42"/><path d="M147.7,84.3c0.2,0.6,0.2,1.2,0,1.6c-0.2,0.4-0.5,0.7-1,0.8c-0.5,0.1-0.9,0.1-1.3-0.2 c-0.4-0.3-0.7-0.7-0.8-1.3l-0.3-1.1c-0.2-0.6-0.2-1.2,0-1.6c0.2-0.4,0.5-0.7,1-0.9c0.5-0.1,0.9-0.1,1.3,0.2 c0.4,0.3,0.7,0.7,0.8,1.3L147.7,84.3z M147,83.3c-0.2-0.5-0.4-0.9-0.6-1.1c-0.3-0.2-0.6-0.3-1-0.2c-0.4,0.1-0.6,0.3-0.7,0.7 c-0.1,0.3-0.1,0.7,0.1,1.2l0.4,1.2c0.2,0.5,0.4,0.9,0.6,1.1c0.3,0.2,0.6,0.3,1,0.2c0.4-0.1,0.6-0.3,0.7-0.7 c0.1-0.3,0.1-0.7-0.1-1.2L147,83.3z" class="st42"/><path d="M149.6,86l-0.5,0.1l-0.1-0.6l0.5-0.1L149.6,86z" class="st42"/><path d="M152.7,81.4l-0.1-0.4l-1.8,0.1l-0.1,1.8c0.1-0.1,0.3-0.2,0.4-0.3c0.2-0.1,0.4-0.1,0.6-0.1 c0.4,0,0.8,0.1,1.1,0.4c0.3,0.3,0.4,0.7,0.5,1.2c0,0.5-0.1,0.9-0.3,1.3s-0.6,0.5-1.1,0.5c-0.4,0-0.8-0.1-1.1-0.3s-0.4-0.6-0.5-1 l0,0l0.4,0c0,0.3,0.1,0.6,0.3,0.8c0.2,0.2,0.5,0.2,0.8,0.2c0.4,0,0.7-0.2,0.8-0.4c0.2-0.2,0.2-0.6,0.2-1c0-0.4-0.1-0.7-0.3-0.9 c-0.2-0.2-0.5-0.3-0.8-0.3c-0.3,0-0.6,0.1-0.7,0.2c-0.2,0.1-0.3,0.3-0.3,0.5l-0.3,0l0.1-2.8l2.6-0.2l0.1,0.8L152.7,81.4z" class="st42"/></g></g><g id="deployments"><g><g><circle cx="249.9" cy="211.2" r="14.1" class="st45"/><g><g><path d="M254.3,202.9c3,1.6,5,4.7,5,8.3c0,5.2-4.2,9.4-9.4,9.4c-5.2,0-9.4-4.2-9.4-9.4c0-4.1,2.6-7.6,6.3-8.9" class="st46"/><g><polygon points="255.7 205.7 254.6 203.1 257.3 202 255.7 201.3 253 202.4 254.1 205" class="st6"/></g></g></g><g><path d="M244.7,214.9l0.8-0.1l3.3-9.5h2.2l3.3,9.5l0.8,0.1v1.3h-3.7v-1.3l0.8-0.1l-0.5-1.5h-3.5l-0.5,1.5l0.8,0.1 v1.3h-3.7V214.9z M248.6,211.7h2.5l-1.2-3.8h0L248.6,211.7z" class="st6"/></g></g></g></g><g id="containers_x2F_volumes"><g><polygon points="141.5 101.7 153.4 94.9 165.3 101.7 153.4 108.6" class="st50"/><polygon points="141.5 115.4 141.5 101.7 153.4 108.6 153.4 122.3" class="st50"/><polygon points="153.4 122.3 153.4 108.6 165.3 101.7 165.3 115.4" class="st50"/></g></g><g id="description"><g><path d="M58.8,130.4h-0.9l-0.2-1.2c-0.2-0.1-0.4-0.3-0.7-0.4s-0.6-0.1-1-0.1c-0.6,0-1.1,0.1-1.4,0.4s-0.5,0.6-0.5,1 c0,0.4,0.2,0.7,0.5,0.9s0.9,0.5,1.6,0.7c0.9,0.2,1.6,0.6,2,1s0.7,1,0.7,1.6c0,0.7-0.3,1.2-0.8,1.7s-1.3,0.6-2.2,0.6 c-0.7,0-1.2-0.1-1.7-0.3s-0.9-0.5-1.2-0.8v-1.6h0.9L54,135c0.2,0.2,0.5,0.3,0.8,0.5s0.7,0.2,1.1,0.2c0.6,0,1-0.1,1.4-0.4 s0.5-0.6,0.5-1c0-0.4-0.1-0.7-0.4-1s-0.8-0.5-1.6-0.7c-0.9-0.2-1.6-0.5-2.1-0.9s-0.8-0.9-0.8-1.6c0-0.7,0.3-1.2,0.8-1.7 s1.3-0.7,2.2-0.7c0.6,0,1.1,0.1,1.6,0.3s0.9,0.5,1.2,0.7V130.4z" class="st42"/><path d="M62.9,136.5c-0.9,0-1.6-0.3-2.1-0.9s-0.8-1.4-0.8-2.3v-0.3c0-0.9,0.3-1.7,0.8-2.3s1.2-0.9,1.9-0.9 c0.9,0,1.5,0.3,1.9,0.8s0.7,1.2,0.7,2.1v0.7h-4.1l0,0c0,0.6,0.2,1.1,0.5,1.5s0.7,0.6,1.2,0.6c0.4,0,0.7-0.1,1-0.2s0.5-0.3,0.8-0.5 l0.5,0.8c-0.2,0.2-0.5,0.4-0.9,0.6S63.4,136.5,62.9,136.5z M62.7,130.8c-0.4,0-0.7,0.2-1,0.5s-0.4,0.7-0.5,1.2l0,0h2.9v-0.2 c0-0.5-0.1-0.8-0.4-1.1S63.2,130.8,62.7,130.8z" class="st42"/><path d="M66.4,130.8V130h2l0.1,0.9c0.2-0.3,0.4-0.6,0.7-0.8s0.6-0.3,0.9-0.3c0.1,0,0.2,0,0.3,0s0.2,0,0.2,0l-0.2,1.1 l-0.7,0c-0.3,0-0.6,0.1-0.8,0.2s-0.4,0.3-0.5,0.6v3.6l1,0.2v0.7h-3.1v-0.7l1-0.2v-4.5L66.4,130.8z" class="st42"/><path d="M73.7,130.8l-0.8,0.1l1.3,3.6l0.1,0.5h0l0.1-0.5l1.3-3.6l-0.8-0.1V130h2.4v0.7l-0.5,0.1l-2.1,5.5h-0.9 l-2.2-5.5l-0.5-0.1V130h2.4V130.8z" class="st42"/><path d="M78.2,135.6l1-0.2v-4.5l-1-0.2V130h2.1v5.4l1,0.2v0.7h-3.1V135.6z M80.3,128.4h-1.2v-1.2h1.2V128.4z" class="st42"/><path d="M85,135.6c0.4,0,0.7-0.1,1-0.4s0.4-0.5,0.4-0.9h1l0,0c0,0.5-0.2,1-0.7,1.5s-1.1,0.6-1.8,0.6 c-0.9,0-1.6-0.3-2.1-0.9s-0.7-1.4-0.7-2.3v-0.2c0-0.9,0.2-1.7,0.7-2.3s1.2-0.9,2.1-0.9c0.5,0,1,0.1,1.4,0.3s0.7,0.4,1,0.7l0.1,1.4 h-0.9l-0.3-1c-0.1-0.1-0.3-0.2-0.5-0.3s-0.5-0.1-0.7-0.1c-0.6,0-1,0.2-1.3,0.7s-0.4,1-0.4,1.6v0.2c0,0.6,0.1,1.2,0.4,1.6 S84.4,135.6,85,135.6z" class="st42"/><path d="M91.5,136.5c-0.9,0-1.6-0.3-2.1-0.9s-0.8-1.4-0.8-2.3v-0.3c0-0.9,0.3-1.7,0.8-2.3s1.2-0.9,1.9-0.9 c0.9,0,1.5,0.3,1.9,0.8s0.7,1.2,0.7,2.1v0.7h-4.1l0,0c0,0.6,0.2,1.1,0.5,1.5s0.7,0.6,1.2,0.6c0.4,0,0.7-0.1,1-0.2s0.5-0.3,0.8-0.5 l0.5,0.8c-0.2,0.2-0.5,0.4-0.9,0.6S92,136.5,91.5,136.5z M91.3,130.8c-0.4,0-0.7,0.2-1,0.5s-0.4,0.7-0.5,1.2l0,0h2.9v-0.2 c0-0.5-0.1-0.8-0.4-1.1S91.8,130.8,91.3,130.8z" class="st42"/></g><line x1="153.8" x2="97.8" y1="134" y2="134" class="st62"/><g><path d="M316.4,196.8c1.1,0,2,0.3,2.7,1s1,1.6,1,2.7v1.2c0,1.1-0.3,2-1,2.7s-1.6,1-2.7,1h-3.6v-0.7l1-0.2v-6.7 l-1-0.2v-0.7h1H316.4z M315,197.7v6.7h1.5c0.8,0,1.4-0.3,1.9-0.8s0.7-1.2,0.7-2v-1.2c0-0.8-0.2-1.5-0.7-2s-1.1-0.8-1.9-0.8H315z" class="st42"/><path d="M324.2,205.5c-0.9,0-1.6-0.3-2.1-0.9s-0.8-1.4-0.8-2.3v-0.3c0-0.9,0.3-1.7,0.8-2.3s1.2-0.9,1.9-0.9 c0.9,0,1.5,0.3,1.9,0.8s0.7,1.2,0.7,2.1v0.7h-4.1l0,0c0,0.6,0.2,1.1,0.5,1.5s0.7,0.6,1.2,0.6c0.4,0,0.7-0.1,1-0.2s0.5-0.3,0.8-0.5 l0.5,0.8c-0.2,0.2-0.5,0.4-0.9,0.6S324.7,205.5,324.2,205.5z M324,199.8c-0.4,0-0.7,0.2-1,0.5s-0.4,0.7-0.5,1.2l0,0h2.9v-0.2 c0-0.5-0.1-0.8-0.4-1.1S324.5,199.8,324,199.8z" class="st42"/><path d="M327.6,207.1l1-0.2v-7l-1-0.2V199h1.9l0.1,0.8c0.2-0.3,0.5-0.5,0.8-0.7s0.7-0.2,1.1-0.2 c0.8,0,1.4,0.3,1.8,0.9s0.7,1.4,0.7,2.5v0.1c0,0.9-0.2,1.7-0.7,2.2s-1,0.8-1.8,0.8c-0.4,0-0.7-0.1-1-0.2s-0.5-0.3-0.8-0.6v2.2 l1,0.2v0.7h-3.1V207.1z M332.8,202.3c0-0.7-0.1-1.3-0.4-1.8s-0.7-0.7-1.3-0.7c-0.3,0-0.6,0.1-0.8,0.2s-0.4,0.4-0.6,0.6v3.1 c0.1,0.3,0.3,0.5,0.6,0.6s0.5,0.2,0.9,0.2c0.5,0,1-0.2,1.2-0.6s0.4-0.9,0.4-1.6V202.3z" class="st42"/><path d="M334.8,197v-0.7h2.1v8.2l1,0.2v0.7h-3.1v-0.7l1-0.2v-7.3L334.8,197z" class="st42"/><path d="M338.6,202.1c0-0.9,0.3-1.7,0.8-2.3s1.2-0.9,2.1-0.9c0.9,0,1.6,0.3,2.1,0.9s0.8,1.4,0.8,2.3v0.1 c0,0.9-0.3,1.7-0.8,2.3s-1.2,0.9-2.1,0.9c-0.9,0-1.6-0.3-2.1-0.9s-0.8-1.4-0.8-2.3V202.1z M339.8,202.3c0,0.7,0.1,1.2,0.4,1.7 s0.7,0.7,1.3,0.7c0.5,0,1-0.2,1.2-0.7s0.4-1,0.4-1.7v-0.1c0-0.7-0.1-1.2-0.4-1.7s-0.7-0.7-1.3-0.7s-1,0.2-1.3,0.7s-0.4,1-0.4,1.7 V202.3z" class="st42"/><path d="M351.3,199.8l-0.6,0.1l-2.4,6.5c-0.2,0.4-0.4,0.8-0.7,1.1s-0.7,0.5-1.2,0.5c-0.1,0-0.2,0-0.4,0 s-0.3,0-0.3-0.1l0.1-0.9c0,0,0,0,0.2,0s0.3,0,0.3,0c0.2,0,0.4-0.1,0.6-0.3s0.3-0.5,0.4-0.7l0.3-0.7l-2.1-5.4l-0.6-0.1V199h2.6v0.7 l-0.7,0.1l1.1,3.1l0.2,0.8h0l1.3-3.9l-0.7-0.1V199h2.6V199.8z" class="st42"/><path d="M351.8,204.6l1-0.2v-4.5l-1-0.2V199h2l0.1,0.8c0.2-0.3,0.5-0.5,0.8-0.7s0.7-0.2,1.1-0.2s0.8,0.1,1.1,0.3 s0.5,0.5,0.7,0.9c0.2-0.4,0.5-0.6,0.8-0.9s0.7-0.3,1.1-0.3c0.6,0,1.2,0.2,1.5,0.7s0.6,1.1,0.6,2v2.9l1,0.2v0.7h-3.1v-0.7l1-0.2 v-2.9c0-0.6-0.1-1.1-0.3-1.3s-0.5-0.4-1-0.4c-0.4,0-0.7,0.1-1,0.4s-0.4,0.6-0.4,1.1v3.1l1,0.2v0.7h-3.1v-0.7l1-0.2v-2.9 c0-0.6-0.1-1-0.3-1.3s-0.5-0.4-1-0.4c-0.4,0-0.6,0.1-0.9,0.2s-0.4,0.3-0.5,0.6v3.8l1,0.2v0.7h-3.1V204.6z" class="st42"/><path d="M366.2,205.5c-0.9,0-1.6-0.3-2.1-0.9s-0.8-1.4-0.8-2.3v-0.3c0-0.9,0.3-1.7,0.8-2.3s1.2-0.9,1.9-0.9 c0.9,0,1.5,0.3,1.9,0.8s0.7,1.2,0.7,2.1v0.7h-4.1l0,0c0,0.6,0.2,1.1,0.5,1.5s0.7,0.6,1.2,0.6c0.4,0,0.7-0.1,1-0.2s0.5-0.3,0.8-0.5 l0.5,0.8c-0.2,0.2-0.5,0.4-0.9,0.6S366.7,205.5,366.2,205.5z M366,199.8c-0.4,0-0.7,0.2-1,0.5s-0.4,0.7-0.5,1.2l0,0h2.9v-0.2 c0-0.5-0.1-0.8-0.4-1.1S366.5,199.8,366,199.8z" class="st42"/><path d="M369.6,204.6l1-0.2v-4.5l-1-0.2V199h2l0.1,0.9c0.2-0.3,0.5-0.6,0.8-0.8s0.7-0.3,1.1-0.3 c0.7,0,1.2,0.2,1.6,0.6s0.6,1,0.6,1.9v3.1l1,0.2v0.7h-3.1v-0.7l1-0.2v-3.1c0-0.6-0.1-1-0.3-1.2s-0.6-0.4-1-0.4 c-0.3,0-0.6,0.1-0.9,0.2s-0.5,0.4-0.6,0.7v3.7l1,0.2v0.7h-3.1V204.6z" class="st42"/><path d="M379.5,197.5v1.5h1.2v0.9h-1.2v3.8c0,0.3,0.1,0.5,0.2,0.6s0.3,0.2,0.5,0.2c0.1,0,0.2,0,0.3,0s0.2,0,0.3-0.1 l0.2,0.8c-0.1,0.1-0.3,0.1-0.5,0.2s-0.4,0.1-0.6,0.1c-0.5,0-0.8-0.1-1.1-0.4s-0.4-0.7-0.4-1.3v-3.8h-1V199h1v-1.5H379.5z" class="st42"/></g><line x1="310.4" x2="249.9" y1="203" y2="203" class="st62"/></g></svg>