<?xml version="1.0" encoding="UTF-8" standalone="no"?>
<svg id="m02-svg" xmlns:dc="http://purl.org/dc/elements/1.1/" xmlns:cc="http://creativecommons.org/ns#"
   xmlns:rdf="http://www.w3.org/1999/02/22-rdf-syntax-ns#" xmlns:svg="http://www.w3.org/2000/svg"
   xmlns="http://www.w3.org/2000/svg" xmlns:xlink="http://www.w3.org/1999/xlink" width="476.1" height="385.3"
   version="1.1">
   <style type="text/css">
      /* Dark theme override for #m02-svg */
      .dark #m02-svg,
      .theme-dark #m02-svg,
      [data-bs-theme="dark"] #m02-svg,
      [data-theme="dark"] #m02-svg {
         --svg-bg: transparent;
         --mint: #06F7C9;
         --yellow: #EEF406;
         --orange: #F29202;
         --purple: #8115FF;
         --gray: #6D6E71;
          --corner-light-blue: #A0CAEA;
          --shell-fill: #1e1e1ecc;
          --stroke-blue: #5b92ff;
          --stroke-accent: #5b92ff;
          --stroke-dark: #0a192f;
          --width-master-shell: 6px;
          --width-node-outline: 2px;
          --deployment-icon-dark: #0a192f;
          --width-node-hexagon: 1.6px;
          --text-color: #ffffff;
          --bg-opacity: 0.2;
          --leader-line: #5b92ff;
          --width-leader-line: 0.3px;
          --label-color: #dde6f0;
          --gradient-start: #1f51b5;
          --gradient-end: #00b386;
      }

      /* Default styles (Light theme) */
      #m02-svg {
         --svg-bg: transparent;
         --mint: #06F7C9;
         --yellow: #EEF406;
         --orange: #F29202;
         --purple: #8115FF;
         --gray: #6D6E71;
          --corner-light-blue: #A0CAEA;
          --shell-fill: #ffffffcc;
          --stroke-blue: #006de9;
          --stroke-accent: #326de6;
          --stroke-dark: #011f38;
          --width-master-shell: 6px;
          --width-node-outline: 2px;
          --deployment-icon-dark: #011f38;
          --width-node-hexagon: 1.6px;
          --text-color: #ffffff;
          --bg-opacity: 0.13;
          --leader-line: #011f38;
          --width-leader-line: 0.3px;
          --label-color: #011f38;
          --gradient-start: #326DE6;
          --gradient-end: #10FFC6;
      }

      #m02-svg {
          background-color: var(--svg-bg);
      }

      #m02-svg .master-shell {
         fill: var(--shell-fill);
         stroke: var(--stroke-blue);
         stroke-width: var(--width-master-shell, 6px);
         stroke-linecap: round;
         stroke-linejoin: round;
         stroke-miterlimit: 10;
      }

      #m02-svg .corner-dark {
         opacity: 1;
         fill: var(--deployment-icon-dark);
      }

      #m02-svg .corner-light-blue {
         fill: var(--corner-light-blue);
      }

      #m02-svg .text-icon {
         fill: var(--text-color);
         font-weight: bold;
      }

      #m02-svg .text-deployment {
         fill: var(--deployment-icon-dark);
         font-weight: bold;
      }

      #m02-svg .bg-opacity {
         opacity: var(--bg-opacity, 0.13);
      }

      #m02-svg .cluster-gradient {
         fill: url(#cluster-gradient);
      }

      #m02-svg .hexagon-face {
         fill: var(--stroke-accent);
      }

      #m02-svg .node-outline {
         fill: var(--shell-fill);
         stroke: var(--stroke-accent);
         stroke-width: var(--width-node-hexagon, 1.6px);
         stroke-linecap: round;
         stroke-linejoin: round;
         stroke-miterlimit: 10;
      }

      #m02-svg .pod-circle {
         fill: none;
         stroke: var(--stroke-blue);
         stroke-width: 0.8;
         stroke-miterlimit: 10;
      }

      #m02-svg .deployment-circle {
         fill: var(--mint);
         stroke: var(--stroke-dark);
         stroke-width: 0.3;
         stroke-linecap: round;
         stroke-linejoin: round;
         stroke-miterlimit: 10;
      }

      #m02-svg .deployment-arrow {
         fill: none;
         stroke: var(--stroke-dark);
         stroke-width: 1.2;
         stroke-linecap: round;
         stroke-linejoin: round;
      }

      #m02-svg .container-cube {
         fill: var(--mint);
         stroke: var(--stroke-dark);
         stroke-width: 0.8;
         stroke-linecap: round;
         stroke-linejoin: round;
         stroke-miterlimit: 10;
      }

      #m02-svg .leader-line {
         fill: none;
         stroke: var(--leader-line);
         stroke-width: var(--width-leader-line, 0.3px);
         stroke-linecap: round;
         stroke-linejoin: round;
         stroke-miterlimit: 10;
      }

      #m02-svg .label-bold,
      #m02-svg .label-normal {
         fill: var(--label-color);
         font-size: 13.3333px;
         font-family: Courier;
      }

      #m02-svg .label-bold {
         font-weight: bold;
      }

      #m02-svg .label-normal {
         font-weight: normal;
      }
   </style>

   <defs>
      <linearGradient id="cluster-gradient" gradientUnits="userSpaceOnUse" x1="27.995501" y1="185.5114" x2="342.4509"
         y2="185.5114">
         <stop id="gradient-start" offset="0" stop-color="var(--gradient-start)" />
         <stop id="gradient-end" offset="1" stop-color="var(--gradient-end)" />
      </linearGradient>
   </defs>

   <symbol id="master-icon" viewBox="-68.6 -66.9 137.2 133.9">
      <g id="master-shell-group">

         <polygon id="master-hexagon" class="master-shell" fill="var(--shell-fill)" stroke="var(--stroke-blue)"
            stroke-width="var(--width-master-shell, 6px)" stroke-linecap="round" stroke-linejoin="round"
            points="-29.2,-63.9 -65.6,-18.3 -52.6,38.6 0,63.9 52.6,38.6 65.6,-18.3 29.2,-63.9" />
      </g>
   </symbol>
   <g id="cluster-root">
      <title id="title1814">Cluster</title>
      <g id="CLUSTER" transform="translate(-22)">
         <g id="cluster-bg-group" class="bg-opacity">
            <g id="cluster-bg-inner">
               <polygon id="cluster-bg-hexagon" class="cluster-gradient"
                  points="28,229.4 59.1,92.9 185.2,32.2 311.3,92.9 342.5,229.4 255.2,338.8 115.3,338.8" />
            </g>
         </g>
      </g>
      <g id="master" transform="translate(-24)">
         <use id="master-use" width="137.2" height="133.89999" x="-68.599998" y="-66.900002"
            transform="matrix(0.4,0,0,-0.4,185.2213,187.4709)" xlink:href="#master-icon" />
      </g>
      <g id="node" transform="translate(-24)">
         <polygon id="node-1-hexagon" class="node-outline" points="224.6,160.7 189,140.1 189,98.9 224.6,78.4 260.3,98.9 260.3,140.1" />
         <polygon id="node-1-face" class="hexagon-face" points="189,127.8 189,140.1 224.6,160.7 235.2,154.5" />
         <polygon id="node-1-corner" class="corner-light-blue" points="207.8,148.6 211.1,143 231.1,154.5 224.6,158.3" />
         <g id="node-1-k8s-icon-1">
            <path id="node-1-path-1" class="text-icon"
               d="m 213.7,146.5 c 0.4,0.2 0.6,0.5 0.7,0.9 0.1,0.4 0,0.7 -0.2,1.1 l -0.2,0.4 c -0.2,0.4 -0.5,0.6 -0.9,0.7 -0.4,0.1 -0.7,0 -1.1,-0.2 l -1.2,-0.7 0.1,-0.2 0.4,0.1 1.3,-2.3 -0.3,-0.2 0.1,-0.3 0.3,0.2 z m -0.6,0 -1.3,2.3 0.5,0.3 c 0.3,0.2 0.5,0.2 0.8,0.1 0.3,-0.1 0.5,-0.3 0.6,-0.5 l 0.2,-0.4 c 0.2,-0.3 0.2,-0.5 0.2,-0.8 -0.1,-0.3 -0.2,-0.5 -0.5,-0.6 z" />
            <path id="node-1-path-2" class="text-icon"
               d="m 214.3,149.2 c 0.2,-0.3 0.4,-0.5 0.7,-0.6 0.3,-0.1 0.6,-0.1 0.9,0.1 0.3,0.2 0.5,0.4 0.5,0.7 0.1,0.3 0,0.6 -0.2,0.9 v 0 c -0.2,0.3 -0.4,0.5 -0.7,0.6 -0.3,0.1 -0.6,0.1 -0.9,-0.1 -0.3,-0.2 -0.5,-0.4 -0.5,-0.7 0,-0.2 0,-0.5 0.2,-0.9 z m 0.4,0.3 c -0.1,0.2 -0.2,0.4 -0.2,0.6 0,0.2 0.1,0.4 0.3,0.5 0.2,0.1 0.4,0.1 0.5,0 0.2,-0.1 0.3,-0.3 0.5,-0.5 v 0 c 0.1,-0.2 0.2,-0.4 0.2,-0.6 0,-0.2 -0.1,-0.4 -0.3,-0.5 -0.2,-0.1 -0.4,-0.1 -0.6,0 -0.2,0.1 -0.2,0.2 -0.4,0.5 z" />
            <path id="node-1-path-3" class="text-icon"
               d="m 217.1,151.9 c 0.1,0.1 0.3,0.1 0.4,0.1 0.1,0 0.2,-0.1 0.3,-0.2 l 0.4,0.2 v 0 c -0.1,0.2 -0.3,0.3 -0.5,0.3 -0.3,0 -0.5,0 -0.7,-0.1 -0.3,-0.2 -0.5,-0.4 -0.5,-0.7 0,-0.3 0,-0.6 0.2,-0.9 v -0.1 c 0.2,-0.3 0.4,-0.5 0.7,-0.6 0.3,-0.1 0.6,-0.1 0.9,0.1 0.2,0.1 0.3,0.2 0.4,0.4 0.1,0.1 0.2,0.3 0.2,0.4 l -0.3,0.5 -0.3,-0.2 0.1,-0.4 c 0,-0.1 -0.1,-0.1 -0.1,-0.2 -0.1,-0.1 -0.1,-0.1 -0.2,-0.2 -0.2,-0.1 -0.4,-0.1 -0.6,0 -0.2,0.1 -0.3,0.3 -0.4,0.5 v 0.1 c -0.1,0.2 -0.2,0.4 -0.2,0.6 0,0.2 0.1,0.3 0.3,0.4 z" />
            <path id="node-1-path-4" class="text-icon"
               d="m 219.7,150 0.1,-0.3 0.7,0.4 -1,1.8 0.2,0.1 0.8,-0.3 -0.2,-0.1 0.1,-0.3 0.9,0.5 -0.1,0.3 -0.3,-0.1 -1,0.3 0.2,1.3 0.2,0.2 -0.1,0.2 -0.9,-0.5 0.1,-0.2 0.2,0.1 -0.2,-1 -0.3,-0.1 -0.1,0.7 0.3,0.2 -0.1,0.2 -1,-0.6 0.1,-0.2 0.4,0.1 1.4,-2.5 z" />
            <path id="node-1-path-5" class="text-icon"
               d="m 221.5,154.9 c -0.3,-0.2 -0.5,-0.4 -0.5,-0.7 0,-0.3 0,-0.6 0.2,-0.9 v -0.1 c 0.2,-0.3 0.4,-0.5 0.7,-0.6 0.3,-0.1 0.6,-0.1 0.8,0.1 0.3,0.2 0.5,0.4 0.5,0.6 0,0.3 0,0.5 -0.2,0.8 l -0.1,0.2 -1.4,-0.8 v 0 c -0.1,0.2 -0.2,0.4 -0.1,0.6 0,0.2 0.1,0.3 0.3,0.4 0.1,0.1 0.3,0.1 0.4,0.1 0.1,0 0.2,0 0.3,0 v 0.3 c -0.1,0 -0.3,0 -0.4,0 -0.1,0.2 -0.3,0.1 -0.5,0 z m 1,-1.9 c -0.1,-0.1 -0.3,-0.1 -0.4,0 -0.2,0.1 -0.3,0.2 -0.4,0.3 v 0 l 1,0.6 v -0.1 c 0.1,-0.2 0.1,-0.3 0.1,-0.5 -0.1,-0.1 -0.2,-0.2 -0.3,-0.3 z" />
            <path id="node-1-path-6" class="text-icon"
               d="m 223.9,153.7 0.1,-0.3 0.7,0.4 -0.1,0.3 c 0.1,-0.1 0.2,-0.1 0.4,-0.1 0.1,0 0.2,0 0.4,0.1 0,0 0.1,0 0.1,0.1 0,0 0.1,0 0.1,0.1 l -0.3,0.3 -0.2,-0.1 c -0.1,-0.1 -0.2,-0.1 -0.3,-0.1 -0.1,0 -0.2,0 -0.3,0.1 l -0.7,1.2 0.3,0.2 -0.1,0.2 -1,-0.6 0.1,-0.2 0.4,0.1 0.9,-1.5 z" />
         </g>
         <g id="node-1-k8s-icon-2">
            <path id="node-1-path-7" class="text-icon"
               d="m 194.3,135.3 0.1,-0.3 0.7,0.4 -1,1.8 0.2,0.1 0.8,-0.3 -0.2,-0.1 0.1,-0.3 0.9,0.5 -0.1,0.3 -0.3,-0.1 -1,0.3 0.2,1.3 0.2,0.2 -0.1,0.2 -0.9,-0.5 0.1,-0.2 0.2,0.1 -0.2,-1 -0.3,-0.1 -0.4,0.7 0.3,0.2 -0.1,0.2 -1,-0.6 0.1,-0.2 0.4,0.1 1.4,-2.5 z" />
            <path id="node-1-path-8" class="text-icon"
               d="m 196.8,140.2 c -0.1,0.1 -0.3,0.1 -0.4,0.1 -0.1,0 -0.3,0 -0.4,-0.1 -0.2,-0.1 -0.4,-0.3 -0.4,-0.5 0,-0.2 0,-0.5 0.2,-0.8 l 0.6,-1 -0.2,-0.2 0.1,-0.3 0.2,0.1 0.4,0.2 -0.7,1.3 c -0.1,0.2 -0.2,0.4 -0.2,0.5 0,0.1 0.1,0.2 0.2,0.3 0.1,0.1 0.3,0.1 0.4,0.1 0.1,0 0.2,0 0.3,-0.1 l 0.7,-1.2 -0.3,-0.2 0.1,-0.3 0.3,0.2 0.4,0.2 -1.1,1.8 0.2,0.2 -0.1,0.2 -0.6,-0.3 z" />
            <path id="node-1-path-9" class="text-icon"
               d="m 200.1,141.2 c -0.2,0.3 -0.4,0.5 -0.7,0.6 -0.3,0.1 -0.5,0.1 -0.8,-0.1 -0.1,-0.1 -0.2,-0.2 -0.3,-0.3 -0.1,-0.1 -0.1,-0.2 -0.1,-0.4 l -0.2,0.3 -0.3,-0.2 1.6,-2.8 -0.3,-0.2 0.1,-0.3 0.7,0.4 -0.7,1.2 c 0.1,-0.1 0.2,-0.1 0.4,-0.1 0.1,0 0.3,0 0.4,0.1 0.3,0.2 0.4,0.4 0.4,0.7 0.1,0.4 0,0.7 -0.2,1.1 z m -0.4,-0.3 c 0.1,-0.2 0.2,-0.5 0.2,-0.7 0,-0.2 -0.1,-0.4 -0.3,-0.5 -0.1,-0.1 -0.2,-0.1 -0.4,-0.1 -0.1,0 -0.2,0.1 -0.3,0.1 l -0.5,0.9 c 0,0.1 0,0.2 0.1,0.3 0.1,0.1 0.1,0.2 0.3,0.3 0.2,0.1 0.4,0.1 0.5,0 0.2,0.1 0.3,0 0.4,-0.3 z" />
            <path id="node-1-path-10" class="text-icon"
               d="m 200.9,143 c -0.3,-0.2 -0.5,-0.4 -0.5,-0.7 0,-0.3 0,-0.6 0.2,-0.9 v -0.1 c 0.2,-0.3 0.4,-0.5 0.7,-0.6 0.3,-0.1 0.6,-0.1 0.8,0.1 0.3,0.2 0.5,0.4 0.5,0.6 0,0.3 0,0.5 -0.2,0.8 l -0.1,0.2 -1.4,-0.8 v 0 c -0.1,0.2 -0.2,0.4 -0.1,0.6 0,0.2 0.1,0.3 0.3,0.4 0.1,0.1 0.3,0.1 0.4,0.1 0.1,0 0.2,0 0.3,0 v 0.3 c -0.1,0 -0.3,0 -0.4,0 -0.2,0.2 -0.3,0.1 -0.5,0 z m 1,-2 c -0.1,-0.1 -0.3,-0.1 -0.4,0 -0.2,0.1 -0.3,0.2 -0.4,0.3 v 0 l 1,0.6 v -0.1 c 0.1,-0.2 0.1,-0.3 0.1,-0.5 0,0 -0.1,-0.2 -0.3,-0.3 z" />
            <path id="node-1-path-11" class="text-icon"
               d="m 203.7,140.8 0.1,-0.3 0.7,0.4 -1.6,2.8 0.3,0.2 -0.1,0.2 -1,-0.6 0.1,-0.2 0.4,0.1 1.4,-2.5 z" />
            <path id="node-1-path-12" class="text-icon"
               d="m 204.3,145 c -0.3,-0.2 -0.5,-0.4 -0.5,-0.7 -0.1,-0.3 0,-0.6 0.2,-0.9 v -0.1 c 0.2,-0.3 0.4,-0.5 0.7,-0.6 0.3,-0.1 0.6,-0.1 0.8,0.1 0.3,0.2 0.5,0.4 0.5,0.6 0,0.3 0,0.5 -0.2,0.8 l -0.1,0.2 -1.4,-0.8 v 0 c -0.1,0.2 -0.2,0.4 -0.1,0.6 0,0.2 0.1,0.3 0.3,0.4 0.1,0.1 0.3,0.1 0.4,0.1 0.1,0 0.2,0 0.3,0 v 0.3 c -0.1,0 -0.3,0 -0.4,0 -0.1,0.1 -0.3,0.1 -0.5,0 z m 1.1,-2 c -0.1,-0.1 -0.3,-0.1 -0.4,0 -0.2,0.1 -0.3,0.2 -0.4,0.3 v 0 l 1,0.6 v -0.1 c 0.1,-0.2 0.1,-0.3 0.1,-0.5 -0.1,-0.1 -0.2,-0.2 -0.3,-0.3 z" />
            <path id="node-1-path-13" class="text-icon"
               d="m 207.8,143.4 -0.3,0.5 0.4,0.2 -0.2,0.3 -0.4,-0.2 -0.8,1.3 c -0.1,0.1 -0.1,0.2 -0.1,0.2 0,0.1 0.1,0.1 0.1,0.2 0,0 0.1,0 0.1,0.1 0,0 0.1,0 0.1,0 l -0.1,0.3 c -0.1,0 -0.1,0 -0.2,0 -0.1,0 -0.2,-0.1 -0.2,-0.1 -0.2,-0.1 -0.3,-0.2 -0.3,-0.4 0,-0.2 0,-0.3 0.1,-0.5 l 0.8,-1.3 -0.3,-0.2 0.2,-0.3 0.3,0.2 0.3,-0.5 z" />
         </g>
         <polygon id="node-2-hexagon" class="node-outline" points="182.3,140.1 146.6,160.7 111,140.1 111,99 146.6,78.4 182.3,99" />
         <polygon id="node-2-face" class="hexagon-face" points="136,154.5 146.6,160.7 182.3,140.1 182.2,127.9" />
         <polygon id="node-2-corner" class="corner-light-blue" points="163.4,148.6 160.2,143 180.2,131.4 180.2,138.9" />
         <g id="node-2-k8s-icon-1">
            <path id="node-2-path-1" class="text-icon"
               d="m 164.6,142.5 c 0.4,-0.2 0.7,-0.3 1.1,-0.2 0.4,0.1 0.6,0.3 0.9,0.7 l 0.2,0.4 c 0.2,0.4 0.3,0.7 0.2,1.1 -0.1,0.4 -0.3,0.7 -0.7,0.9 l -1.2,0.7 -0.1,-0.2 0.3,-0.2 -1.3,-2.3 -0.4,0.1 -0.1,-0.3 0.3,-0.2 z m -0.3,0.6 1.3,2.3 0.5,-0.3 c 0.3,-0.2 0.4,-0.4 0.5,-0.6 0.1,-0.3 0,-0.5 -0.2,-0.8 l -0.2,-0.4 c -0.2,-0.3 -0.4,-0.5 -0.6,-0.5 -0.3,-0.1 -0.5,-0.1 -0.8,0.1 z" />
            <path id="node-2-path-2" class="text-icon"
               d="M 167.247 143.289  c -0.2 -0.3 -0.2 -0.6 -0.2 -0.9  c 0.1 -0.3 0.2 -0.5 0.5 -0.7  c 0.3 -0.2 0.6 -0.2 0.9 -0.1  c 0.3 0.1 0.5 0.3 0.7 0.6  c 0.2 0.3 0.2 0.6 0.2 0.9  c -0.1 0.3 -0.2 0.5 -0.5 0.7  c -0.3 0.2 -0.6 0.2 -0.9 0.1  c -0.3 -0.3 -0.5 -0.5 -0.7 -0.6  z  m 0.4 -0.2  c 0.1 0.2 0.3 0.4 0.5 0.5  c 0.2 0.1 0.4 0.1 0.6 0  c 0.2 -0.1 0.3 -0.3 0.3 -0.5  c 0 -0.2 0 -0.4 -0.2 -0.6  c -0.1 -0.2 -0.3 -0.4 -0.5 -0.5  c -0.2 -0.1 -0.4 -0.1 -0.6 0  c -0.2 0.1 -0.3 0.3 -0.3 0.5  c 0 0.2 0 0.3 0.2 0.6  z" />
            <path id="node-2-path-3" class="text-icon"
               d="m 171,142.3 c 0.1,-0.1 0.2,-0.2 0.3,-0.3 0.1,-0.1 0,-0.3 0,-0.4 l 0.3,-0.2 v 0 c 0.1,0.2 0.1,0.4 0,0.6 -0.1,0.2 -0.2,0.4 -0.5,0.6 -0.3,0.2 -0.6,0.2 -0.9,0.1 -0.3,-0.1 -0.5,-0.3 -0.7,-0.6 V 142 c -0.2,-0.3 -0.2,-0.6 -0.2,-0.9 0,-0.3 0.2,-0.5 0.5,-0.7 0.2,-0.1 0.3,-0.2 0.5,-0.2 0.2,0 0.3,0 0.5,0 l 0.3,0.5 -0.3,0.2 -0.3,-0.3 c -0.1,0 -0.2,0 -0.2,0 -0.1,0 -0.2,0 -0.3,0.1 -0.2,0.1 -0.3,0.3 -0.3,0.5 0,0.2 0.1,0.4 0.2,0.6 v 0.1 c 0.1,0.2 0.3,0.4 0.4,0.5 0.3,0.1 0.5,0.1 0.7,-0.1 z" />
            <path id="node-2-path-4" class="text-icon"
               d="m 170.6,139.1 -0.1,-0.3 0.7,-0.4 1,1.8 0.2,-0.1 0.1,-0.8 -0.2,0.1 -0.1,-0.3 0.9,-0.5 0.1,0.3 -0.2,0.2 -0.2,1 1.2,0.5 0.3,-0.1 0.1,0.2 -0.9,0.5 -0.1,-0.2 0.2,-0.1 -1,-0.4 -0.3,0.1 0.4,0.7 0.4,-0.1 0.1,0.2 -1,0.6 -0.1,-0.2 0.3,-0.2 -1.4,-2.6 z" />
            <path id="node-2-path-5" class="text-icon"
               d="m 175.8,140 c -0.3,0.2 -0.6,0.2 -0.9,0.1 -0.3,-0.1 -0.5,-0.3 -0.7,-0.6 l -0.1,-0.1 c -0.2,-0.3 -0.2,-0.6 -0.2,-0.9 0.1,-0.3 0.2,-0.5 0.5,-0.7 0.3,-0.2 0.6,-0.2 0.8,-0.1 0.2,0.1 0.5,0.3 0.6,0.6 l 0.1,0.2 -1.4,0.8 v 0 c 0.1,0.2 0.3,0.3 0.4,0.4 0.2,0.1 0.4,0.1 0.5,0 0.1,-0.1 0.2,-0.2 0.3,-0.3 0.1,-0.1 0.1,-0.2 0.2,-0.3 l 0.3,0.2 c 0,0.1 -0.1,0.2 -0.2,0.4 0.1,0.1 -0.2,0.2 -0.3,0.3 z m -1.2,-1.9 c -0.1,0.1 -0.2,0.2 -0.2,0.4 0,0.2 0,0.3 0.1,0.5 v 0 l 1,-0.6 v -0.1 c -0.1,-0.2 -0.2,-0.3 -0.3,-0.3 -0.3,0 -0.4,0 -0.6,0.1 z" />
            <path id="node-2-path-6" class="text-icon"
               d="m 175.8,137.4 -0.1,-0.3 0.7,-0.4 0.2,0.3 c 0,-0.1 0,-0.3 0.1,-0.4 0.1,-0.1 0.1,-0.2 0.3,-0.3 0,0 0.1,0 0.1,0 0,0 0.1,0 0.1,0 l 0.2,0.4 -0.2,0.1 c -0.1,0.1 -0.2,0.1 -0.2,0.2 0,0.1 -0.1,0.2 0,0.3 l 0.7,1.2 0.4,-0.1 0.1,0.2 -1,0.6 -0.1,-0.2 0.3,-0.2 -0.9,-1.5 z" />
         </g>
         <g id="node-2-k8s-icon-2">
            <path id="node-2-path-7" class="text-icon"
               d="m 145.1,153.8 -0.1,-0.3 0.7,-0.4 1,1.8 0.2,-0.1 0.1,-0.8 -0.2,0.1 -0.1,-0.3 0.9,-0.5 0.1,0.3 -0.2,0.2 -0.2,1 1.2,0.5 0.3,-0.1 0.1,0.2 -0.9,0.5 -0.1,-0.2 0.2,-0.1 -1,-0.4 -0.3,0.1 0.4,0.7 0.4,-0.1 0.1,0.2 -1,0.6 -0.1,-0.2 0.3,-0.2 -1.4,-2.5 z" />
            <path id="node-2-path-8" class="text-icon"
               d="m 150.6,154 c 0,0.2 0,0.3 -0.1,0.4 -0.1,0.1 -0.2,0.2 -0.3,0.3 -0.2,0.1 -0.5,0.2 -0.7,0.1 -0.2,-0.1 -0.4,-0.3 -0.6,-0.6 l -0.6,-1 -0.3,0.1 -0.1,-0.3 0.2,-0.1 0.4,-0.2 0.7,1.3 c 0.1,0.2 0.3,0.4 0.4,0.4 0.1,0 0.2,0 0.4,-0.1 0.1,-0.1 0.2,-0.2 0.3,-0.3 0.1,-0.1 0.1,-0.2 0.1,-0.4 l -0.7,-1.2 -0.3,0.1 -0.1,-0.3 0.3,-0.2 0.4,-0.2 1.1,1.8 0.3,-0.1 0.1,0.2 -0.6,0.3 z" />
            <path id="node-2-path-9" class="text-icon"
               d="m 153.1,151.7 c 0.2,0.3 0.2,0.6 0.2,0.9 0,0.3 -0.2,0.5 -0.4,0.6 -0.1,0.1 -0.3,0.1 -0.4,0.1 -0.1,0 -0.3,0 -0.4,-0.1 l 0.1,0.3 -0.3,0.2 -1.6,-2.8 -0.4,0.1 -0.1,-0.3 0.7,-0.4 0.7,1.2 c 0,-0.1 0.1,-0.3 0.1,-0.4 0.1,-0.1 0.2,-0.2 0.3,-0.3 0.3,-0.2 0.5,-0.2 0.8,0 0.3,0.2 0.5,0.5 0.7,0.9 z m -0.4,0.1 c -0.1,-0.2 -0.3,-0.4 -0.5,-0.5 -0.2,-0.1 -0.4,-0.1 -0.5,0 -0.1,0.1 -0.2,0.2 -0.3,0.3 0,0.1 -0.1,0.2 -0.1,0.3 l 0.5,0.9 c 0.1,0.1 0.2,0.1 0.3,0.1 0.1,0 0.2,0 0.4,-0.1 0.2,-0.1 0.3,-0.2 0.3,-0.4 0.1,-0.1 0.1,-0.3 -0.1,-0.6 z" />
            <path id="node-2-path-10" class="text-icon"
               d="m 155.1,151.9 c -0.3,0.2 -0.6,0.2 -0.9,0.1 -0.3,-0.1 -0.5,-0.3 -0.7,-0.6 l -0.1,-0.1 c -0.2,-0.3 -0.2,-0.6 -0.2,-0.9 0.1,-0.3 0.2,-0.5 0.5,-0.7 0.3,-0.2 0.6,-0.2 0.8,-0.1 0.2,0.1 0.5,0.3 0.6,0.6 l 0.1,0.2 -1.4,0.8 v 0 c 0.1,0.2 0.3,0.3 0.4,0.4 0.2,0.1 0.4,0.1 0.5,0 0.1,-0.1 0.2,-0.2 0.3,-0.3 0.1,-0.1 0.1,-0.2 0.2,-0.3 l 0.3,0.2 c 0,0.1 -0.1,0.2 -0.2,0.4 0.1,0.1 0,0.2 -0.2,0.3 z m -1.2,-1.9 c -0.1,0.1 -0.2,0.2 -0.2,0.4 0,0.2 0,0.3 0.1,0.5 v 0 l 1,-0.6 v -0.1 c -0.1,-0.2 -0.2,-0.3 -0.3,-0.3 -0.3,0 -0.4,0 -0.6,0.1 z" />
            <path id="node-2-path-11" class="text-icon"
               d="m 154.6,148.4 -0.1,-0.3 0.7,-0.4 1.6,2.8 0.4,-0.1 0.1,0.2 -1,0.6 -0.1,-0.2 0.3,-0.2 -1.4,-2.5 z" />
            <path id="node-2-path-12" class="text-icon"
               d="m 158.6,149.9 c -0.3,0.2 -0.6,0.2 -0.9,0.1 -0.3,-0.1 -0.5,-0.3 -0.7,-0.6 l -0.1,-0.1 c -0.2,-0.3 -0.2,-0.6 -0.2,-0.9 0.1,-0.3 0.2,-0.5 0.5,-0.7 0.3,-0.2 0.6,-0.2 0.8,-0.1 0.2,0.1 0.5,0.3 0.6,0.6 l 0.1,0.2 -1.4,0.8 v 0 c 0.1,0.2 0.3,0.3 0.4,0.4 0.2,0.1 0.4,0.1 0.5,0 0.1,-0.1 0.2,-0.2 0.3,-0.3 0.1,-0.1 0.1,-0.2 0.2,-0.3 l 0.3,0.2 c 0,0.1 -0.1,0.2 -0.2,0.4 0.1,0.1 -0.1,0.2 -0.2,0.3 z m -1.2,-1.9 c -0.1,0.1 -0.2,0.2 -0.2,0.4 0,0.2 0,0.3 0.1,0.5 v 0 l 1,-0.6 v -0.1 c -0.1,-0.2 -0.2,-0.3 -0.3,-0.3 -0.3,0 -0.5,0 -0.6,0.1 z" />
            <path id="node-2-path-13" class="text-icon"
               d="m 158.9,146.1 0.3,0.5 0.4,-0.2 0.2,0.3 -0.4,0.2 0.8,1.3 c 0.1,0.1 0.1,0.2 0.2,0.2 0.1,0 0.1,0 0.2,0 0,0 0.1,0 0.1,-0.1 0,0 0.1,-0.1 0.1,-0.1 l 0.2,0.2 c 0,0 -0.1,0.1 -0.1,0.2 -0.1,0.1 -0.1,0.1 -0.2,0.1 -0.2,0.1 -0.3,0.1 -0.5,0.1 -0.1,0 -0.3,-0.2 -0.4,-0.4 l -0.7,-1.3 -0.3,0.2 -0.2,-0.3 0.3,-0.2 -0.3,-0.5 z" />
         </g>
         <polygon id="node-3-hexagon" class="node-outline"
            points="146.2,296.6 110.6,276.1 110.6,234.9 146.2,214.4 181.9,234.9 181.9,276.1" />
         <polygon id="node-3-face" class="hexagon-face" points="135.6,220.5 146.2,214.4 181.9,234.9 181.8,247.2" />
         <polygon id="node-3-corner" class="corner-light-blue" points="163,226.4 159.8,232.1 179.8,243.6 179.8,236.1" />
         <g id="node-3-k8s-icon-1">
            <path id="node-3-path-1" class="text-icon"
               d="m 145.8,218.8 0.1,-0.3 0.7,0.4 -1,1.8 0.2,0.1 0.8,-0.3 -0.2,-0.1 0.1,-0.3 0.9,0.5 -0.1,0.3 -0.3,-0.1 -1,0.3 0.2,1.3 0.2,0.2 -0.1,0.2 -0.9,-0.5 0.1,-0.2 0.2,0.1 -0.2,-1 -0.3,-0.1 -0.4,0.7 0.3,0.2 -0.1,0.2 -1,-0.6 0.1,-0.2 0.4,0.1 1.4,-2.5 z" />
            <path id="node-3-path-2" class="text-icon"
               d="m 148.4,223.7 c -0.1,0.1 -0.3,0.1 -0.4,0.1 -0.1,0 -0.3,0 -0.4,-0.1 -0.2,-0.1 -0.4,-0.3 -0.4,-0.5 0,-0.2 0,-0.5 0.2,-0.8 l 0.6,-1 -0.2,-0.2 0.1,-0.3 0.2,0.1 0.4,0.2 -0.7,1.3 c -0.1,0.2 -0.2,0.4 -0.2,0.5 0,0.1 0.1,0.2 0.2,0.3 0.1,0.1 0.3,0.1 0.4,0.1 0.1,0 0.2,0 0.3,-0.1 l 0.7,-1.2 -0.3,-0.2 0.1,-0.3 0.3,0.2 0.4,0.2 -1.1,1.8 0.2,0.2 -0.1,0.2 -0.6,-0.3 z" />
            <path id="node-3-path-3" class="text-icon"
               d="m 151.7,224.7 c -0.2,0.3 -0.4,0.5 -0.7,0.6 -0.3,0.1 -0.5,0.1 -0.8,-0.1 -0.1,-0.1 -0.2,-0.2 -0.3,-0.3 -0.1,-0.1 -0.1,-0.2 -0.1,-0.4 l -0.2,0.3 -0.3,-0.2 1.6,-2.8 -0.3,-0.2 0.1,-0.3 0.7,0.4 -0.7,1.2 c 0.1,-0.1 0.2,-0.1 0.4,-0.1 0.1,0 0.3,0 0.4,0.1 0.3,0.2 0.4,0.4 0.4,0.7 0.1,0.4 0,0.7 -0.2,1.1 z m -0.4,-0.3 c 0.1,-0.2 0.2,-0.5 0.2,-0.7 0,-0.2 -0.1,-0.4 -0.3,-0.5 -0.1,-0.1 -0.2,-0.1 -0.4,-0.1 -0.1,0 -0.2,0.1 -0.3,0.1 l -0.5,0.9 c 0,0.1 0,0.2 0.1,0.3 0.1,0.1 0.1,0.2 0.3,0.3 0.2,0.1 0.4,0.1 0.5,0 0.1,0.1 0.3,-0.1 0.4,-0.3 z" />
            <path id="node-3-path-4" class="text-icon"
               d="m 152.5,226.5 c -0.3,-0.2 -0.5,-0.4 -0.5,-0.7 0,-0.3 0,-0.6 0.2,-0.9 l 0.1,-0.1 c 0.2,-0.3 0.4,-0.5 0.7,-0.6 0.3,-0.1 0.6,-0.1 0.8,0.1 0.3,0.2 0.5,0.4 0.5,0.6 0,0.3 0,0.5 -0.2,0.8 l -0.1,0.2 -1.4,-0.8 v 0 c -0.1,0.2 -0.2,0.4 -0.1,0.6 0,0.2 0.1,0.3 0.3,0.4 0.1,0.1 0.3,0.1 0.4,0.1 0.1,0 0.2,0 0.3,0 v 0.3 c -0.1,0 -0.3,0 -0.4,0 -0.3,0.1 -0.5,0.1 -0.6,0 z m 1,-2 c -0.1,-0.1 -0.3,-0.1 -0.4,0 -0.2,0.1 -0.3,0.2 -0.4,0.3 v 0 l 1,0.6 v -0.1 c 0.1,-0.2 0.1,-0.3 0.1,-0.5 0,-0.2 -0.1,-0.2 -0.3,-0.3 z" />
            <path id="node-3-path-5" class="text-icon"
               d="m 155.3,224.3 0.1,-0.3 0.7,0.4 -1.6,2.8 0.3,0.2 -0.1,0.2 -1,-0.6 0.1,-0.2 0.4,0.1 1.4,-2.5 z" />
            <path id="node-3-path-6" class="text-icon"
               d="m 155.9,228.5 c -0.3,-0.2 -0.5,-0.4 -0.5,-0.7 0,-0.3 0,-0.6 0.2,-0.9 v -0.1 c 0.2,-0.3 0.4,-0.5 0.7,-0.6 0.3,-0.1 0.6,-0.1 0.8,0.1 0.3,0.2 0.5,0.4 0.5,0.6 0,0.3 0,0.5 -0.2,0.8 l -0.1,0.2 -1.4,-0.8 v 0 c -0.1,0.2 -0.2,0.4 -0.1,0.6 0,0.2 0.1,0.3 0.3,0.4 0.1,0.1 0.3,0.1 0.4,0.1 0.1,0 0.2,0 0.3,0 v 0.3 c -0.1,0 -0.3,0 -0.4,0 -0.1,0.1 -0.3,0.1 -0.5,0 z m 1.1,-2 c -0.1,-0.1 -0.3,-0.1 -0.4,0 -0.1,0.1 -0.3,0.2 -0.4,0.3 v 0 l 1,0.6 v -0.1 c 0.1,-0.2 0.1,-0.3 0.1,-0.5 -0.1,-0.1 -0.2,-0.2 -0.3,-0.3 z" />
            <path id="node-3-path-7" class="text-icon"
               d="m 159.4,226.9 -0.3,0.5 0.4,0.2 -0.2,0.3 -0.4,-0.2 -0.8,1.3 c -0.1,0.1 -0.1,0.2 -0.1,0.2 0,0.1 0.1,0.1 0.1,0.2 0,0 0.1,0 0.1,0.1 0,0 0.1,0 0.1,0 l -0.1,0.3 c -0.1,0 -0.1,0 -0.2,0 -0.1,0 -0.2,-0.1 -0.2,-0.1 -0.2,-0.1 -0.3,-0.2 -0.3,-0.4 0,-0.2 0,-0.3 0.1,-0.5 l 0.8,-1.3 -0.3,-0.2 0.2,-0.3 0.3,0.2 0.3,-0.5 z" />
         </g>
         <g id="node-3-k8s-icon-2">
            <path class="text-icon"
               d="m 166.1,230.5 c 0.4,0.2 0.6,0.5 0.7,0.9 0.1,0.4 0,0.7 -0.2,1.1 l -0.2,0.4 c -0.2,0.4 -0.5,0.6 -0.9,0.7 -0.4,0.1 -0.7,0 -1.1,-0.2 l -1.2,-0.7 0.1,-0.2 0.4,0.1 1.3,-2.3 -0.3,-0.2 0.1,-0.3 0.3,0.2 z m -0.7,0 -1.3,2.3 0.5,0.3 c 0.3,0.2 0.5,0.2 0.8,0.1 0.3,-0.1 0.5,-0.3 0.6,-0.5 l 0.2,-0.4 c 0.2,-0.3 0.2,-0.5 0.2,-0.8 -0.1,-0.3 -0.2,-0.5 -0.5,-0.6 z"
               id="node-3-path-8" />
            <path class="text-icon"
               d="m 166.7,233.2 c 0.2,-0.3 0.4,-0.5 0.7,-0.6 0.3,-0.1 0.6,-0.1 0.9,0.1 0.3,0.2 0.5,0.4 0.5,0.7 0.1,0.3 0,0.6 -0.2,0.9 v 0 c -0.2,0.3 -0.4,0.5 -0.7,0.6 -0.3,0.1 -0.6,0.1 -0.9,-0.1 -0.3,-0.2 -0.5,-0.4 -0.5,-0.7 -0.1,-0.2 0,-0.5 0.2,-0.9 z m 0.3,0.3 c -0.1,0.2 -0.2,0.4 -0.2,0.6 0,0.2 0.1,0.4 0.3,0.5 0.2,0.1 0.4,0.1 0.5,0 0.2,-0.1 0.3,-0.3 0.5,-0.5 v 0 c 0.1,-0.2 0.2,-0.4 0.2,-0.6 0,-0.2 -0.1,-0.4 -0.3,-0.5 -0.2,-0.1 -0.4,-0.1 -0.6,0 -0.1,0.1 -0.2,0.2 -0.4,0.5 z"
               id="node-3-path-9" />
            <path class="text-icon"
               d="m 169.4,235.9 c 0.1,0.1 0.3,0.1 0.4,0.1 0.1,0 0.2,-0.1 0.3,-0.2 l 0.3,0.2 v 0 c -0.1,0.2 -0.3,0.3 -0.5,0.3 -0.3,0 -0.5,0 -0.7,-0.1 -0.3,-0.2 -0.5,-0.4 -0.5,-0.7 0,-0.3 0,-0.6 0.2,-0.9 v -0.1 c 0.2,-0.3 0.4,-0.5 0.7,-0.6 0.3,-0.1 0.6,-0.1 0.9,0.1 0.2,0.1 0.3,0.2 0.4,0.4 0.1,0.1 0.2,0.3 0.2,0.4 l -0.3,0.5 -0.3,-0.2 0.1,-0.4 c 0,-0.1 -0.1,-0.1 -0.1,-0.2 -0.1,-0.1 -0.1,-0.1 -0.2,-0.2 -0.2,-0.1 -0.4,-0.1 -0.6,0 -0.2,0.1 -0.3,0.3 -0.4,0.5 v 0.1 c -0.1,0.2 -0.2,0.4 -0.2,0.6 0,0.1 0.1,0.3 0.3,0.4 z"
               id="node-3-path-10" />
            <path class="text-icon"
               d="m 172.1,234 0.1,-0.3 0.7,0.4 -1,1.8 0.2,0.1 0.8,-0.3 -0.2,-0.1 0.1,-0.3 0.9,0.5 -0.1,0.3 -0.3,-0.1 -1,0.3 0.2,1.3 0.2,0.2 -0.1,0.2 -0.9,-0.5 0.1,-0.2 0.2,0.1 -0.2,-1 -0.3,-0.1 -0.4,0.7 0.3,0.2 -0.1,0.2 -1,-0.6 0.1,-0.2 0.4,0.1 1.4,-2.5 z"
               id="node-3-path-11" />
            <path class="text-icon"
               d="m 173.9,238.9 c -0.3,-0.2 -0.5,-0.4 -0.5,-0.7 -0.1,-0.3 0,-0.6 0.2,-0.9 v -0.1 c 0.2,-0.3 0.4,-0.5 0.7,-0.6 0.3,-0.1 0.6,-0.1 0.8,0.1 0.3,0.2 0.5,0.4 0.5,0.6 0,0.3 0,0.5 -0.2,0.8 l -0.1,0.2 -1.4,-0.8 v 0 c -0.1,0.2 -0.2,0.4 -0.1,0.6 0,0.2 0.1,0.3 0.3,0.4 0.1,0.1 0.3,0.1 0.4,0.1 0.1,0 0.2,0 0.3,0 v 0.3 c -0.1,0 -0.3,0 -0.4,0 -0.2,0.2 -0.4,0.1 -0.5,0 z m 1,-2 c -0.1,-0.1 -0.3,-0.1 -0.4,0 -0.2,0.1 -0.3,0.2 -0.4,0.3 v 0 l 1,0.6 v -0.1 c 0.1,-0.2 0.1,-0.3 0.1,-0.5 0,0 -0.1,-0.2 -0.3,-0.3 z"
               id="node-3-path-12" />
            <path class="text-icon"
               d="m 176.2,237.7 0.1,-0.3 0.7,0.4 -0.1,0.3 c 0.1,-0.1 0.2,-0.1 0.4,-0.1 0.1,0 0.2,0 0.4,0.1 0,0 0.1,0 0.1,0.1 0,0 0.1,0 0.1,0.1 l -0.3,0.3 -0.2,-0.1 c -0.1,-0.1 -0.2,-0.1 -0.3,-0.1 -0.1,0 -0.2,0 -0.3,0.1 l -0.7,1.2 0.3,0.2 -0.1,0.2 -1,-0.6 0.1,-0.2 0.4,0.1 0.9,-1.5 z"
               id="node-3-path-13" />
         </g>
      </g>
      <g id="pods" transform="translate(-24)">
         <circle id="pod-circle" class="pod-circle" cx="146.2" cy="119.5" r="20.9" />
      </g>
      <g id="deployments" transform="translate(-22)">
         <g id="deployment-group">
            <g id="deployment-icon-group">
               <circle id="deployment-circle" class="deployment-circle" cx="177.39999" cy="181.7" r="10.1" />
               <g id="deployment-arrow-group">
                  <g id="deployment-arrow-path-group">
                     <path id="deployment-arrow-path" class="deployment-arrow"
                        d="m 180.9,176 c 1.9,1.2 3.2,3.3 3.2,5.8 0,3.7 -3,6.7 -6.7,6.7 -3.7,0 -6.7,-3 -6.7,-6.7 0,-2.9 1.9,-5.4 4.5,-6.4" />
                     <g id="deployment-arrow-head-group">
                        <polygon id="deployment-arrow-head" class="corner-dark"
                           points="182.4,174.5 179.6,175.4 180.5,178.1 182.1,178.9 181.2,176.2 183.9,175.3" />
                     </g>
                  </g>
               </g>
               <g id="deployment-letter-group">
                  <path class="text-deployment"
                     d="m 174.8,185.1 v -6.7 h 2.3 c 0.8,0 1.5,0.3 2,0.8 0.5,0.5 0.8,1.2 0.8,2 v 1.1 c 0,0.8 -0.3,1.5 -0.8,2 -0.5,0.5 -1.2,0.8 -2,0.8 z m 1.3,-5.7 v 4.7 h 0.9 c 0.5,0 0.9,-0.2 1.1,-0.5 0.3,-0.3 0.4,-0.8 0.4,-1.3 v -1.1 c 0,-0.5 -0.1,-0.9 -0.4,-1.3 -0.3,-0.3 -0.7,-0.5 -1.1,-0.5 z"
                     id="deployment-letter-d" />
               </g>
            </g>
         </g>
      </g>
      <g id="containers_x2F_volumes" transform="translate(-24)">
         <g id="container-group">
            <polygon id="container-top" class="container-cube" points="155.9,113.9 146.2,119.5 136.5,113.9 146.2,108.3" />
            <polygon id="container-left" class="container-cube" points="146.2,119.5 146.2,130.7 136.5,125.1 136.5,113.9" />
            <polygon id="container-right" class="container-cube" points="155.9,113.9 155.9,125.1 146.2,130.7 146.2,119.5" />
         </g>
      </g>
      <g id="description" transform="translate(-22)">
         <line id="leader-control-plane" class="leader-line" x1="360" y1="203.89999" x2="188.60001" y2="203.89999" />
         <line id="leader-deployment" class="leader-line" x1="360" y1="181.7" x2="181.5" y2="181.7" />
         <line id="leader-node-processes" class="leader-line" x1="360" y1="229" x2="159.39999" y2="229" />
         <line id="leader-node" class="leader-line" x1="360" y1="101.5" x2="242.8" y2="101.5" />
         <line id="leader-container" class="leader-line" x1="360" y1="123.7" x2="150.2" y2="123.7" />
         <text id="label-node" class="label-normal" xml:space="preserve" x="361.82697" y="104.54287">
            <tspan id="label-node-span" x="361.82697" y="104.54287">Node</tspan>
         </text>
         <text id="label-container" class="label-normal" xml:space="preserve" x="361.24179" y="126.47728">
            <tspan id="label-container-span" x="361.24179" y="126.47728">containerized app</tspan>
         </text>
         <text id="label-deployment" class="label-normal" xml:space="preserve" x="361.82697" y="185.326">
            <tspan id="label-deployment-span" x="361.82697" y="185.326">Deployment</tspan>
         </text>
         <text id="label-control-plane" class="label-normal" xml:space="preserve" x="361.60068" y="207.72804">
            <tspan id="label-control-plane-span" x="361.60068" y="207.72804">Control Plane</tspan>
         </text>
         <text id="label-node-processes" class="label-normal" xml:space="preserve" x="360.92181" y="232.16661">
            <tspan id="label-node-processes-span" x="360.92181" y="232.16661">node processes</tspan>
         </text>
         <text id="label-cluster" class="label-bold" xml:space="preserve" x="113.36793" y="350.73907">
            <tspan id="label-cluster-span" x="113.36793" y="350.73907">Kubernetes Cluster</tspan>
         </text>
      </g>
   </g>
</svg>
