<svg xmlns="http://www.w3.org/2000/svg" xmlns:xlink="http://www.w3.org/1999/xlink" x="0" y="0" version="1.1" viewBox="0 0 504 432" xml:space="preserve" style="enable-background:new 0 0 504 432"><style type="text/css">.st0{fill:#fff;stroke:#326de6;stroke-width:2;stroke-linecap:round;stroke-linejoin:round;stroke-miterlimit:10}.st1{opacity:.71;fill:#326ce6}.st2{opacity:.45;fill:#fff}.st3{fill:#fff;stroke:#006de9;stroke-width:2;stroke-linecap:round;stroke-linejoin:round;stroke-miterlimit:10}.st4{fill:#006de9}.st5{fill:#a0caea}.st6{fill:#fff}.st13{fill:#326de6}.st14{fill:none;stroke:#326de6;stroke-width:2.4;stroke-miterlimit:10}.st15{fill:#a0cae9}.st30,.st31{opacity:.1;fill:url(#SVGID_3_)}.st31{fill:url(#SVGID_4_)}.st34{fill:none;stroke:#326de6;stroke-width:1.2;stroke-miterlimit:10}.st42{fill:#011f38}.st50{fill:#06f7c9;stroke:#011f38;stroke-linecap:round;stroke-linejoin:round;stroke-miterlimit:10}.st50,.st51{stroke-width:.8}.st51,.st62{stroke:#011f38;stroke-linecap:round;stroke-linejoin:round;stroke-miterlimit:10}.st51{fill:#8115ff}.st62{fill:none;stroke-width:.3}</style><symbol id="node_high_level" viewBox="-81 -93 162 186.1"><polygon points="-80 -46 -80 46 0 92 80 46 80 -46 0 -92" class="st0"/></symbol><symbol id="node_x5F_empty" viewBox="-87.5 -100.6 175.1 201.1"><use id="XMLID_201_" width="162" height="186.1" x="-81" y="-93" transform="matrix(1.0808 0 0 1.0808 -3.292006e-05 -3.749943e-05)" xlink:href="#node_high_level" style="overflow:visible"/><g><polygon points="76.8 -28.1 -14 -80.3 0 -88.3 76.7 -44.4" class="st1"/><polygon points="76.8 -28.1 32.1 -53.8 38.8 -66.1 76.7 -44.4" class="st2"/></g></symbol><symbol id="node_x5F_new" viewBox="-87.6 -101 175.2 202"><polygon points="0 -100 -86.6 -50 -86.6 50 0 100 86.6 50 86.6 -50" class="st3"/><polygon points="-86.6 -20.2 -86.6 -50 0 -100 25.8 -85.1" class="st4"/><polygon points="-40.8 -70.7 -32.9 -57 15.7 -85.1 0 -94.3" class="st5"/><text class="st6" transform="matrix(0.866 -0.5 -0.5 -0.866 -33.9256 -70.7388)" style="font-family:'RobotoSlab-Regular';font-size:11.3632px">Docker</text><text class="st6" transform="matrix(0.866 -0.5 -0.5 -0.866 -76.0668 -46.4087)" style="font-family:'RobotoSlab-Regular';font-size:11.3632px">Kubelt</text></symbol><g id="Node"><polygon points="27.2 290.9 27.2 311.3 191.3 406 209 395.8" class="st13"/><polygon points="27.2 311.3 27.2 122 191.3 27.3 355.3 122 355.3 311.3 191.3 406" class="st14"/><polygon points="110.5 356.6 116.9 345.4 204.2 395.8 191.3 403.3" class="st15"/><g><path d="M145,365.7c0.8,0.4,1.3,1,1.5,1.8c0.2,0.7,0.1,1.5-0.4,2.2l-0.5,0.8c-0.4,0.8-1,1.2-1.8,1.4 c-0.7,0.2-1.5,0.1-2.3-0.4l-2.5-1.4l0.3-0.5l0.7,0.3l2.7-4.7l-0.6-0.5l0.3-0.5l0.7,0.4L145,365.7z M143.6,365.7l-2.7,4.7l1,0.6 c0.5,0.3,1.1,0.4,1.6,0.2c0.5-0.2,0.9-0.5,1.3-1.1l0.5-0.8c0.3-0.6,0.4-1.1,0.3-1.6c-0.1-0.5-0.4-1-1-1.3L143.6,365.7z" class="st6"/><path d="M146.3,371.3c0.4-0.6,0.9-1.1,1.5-1.3c0.6-0.2,1.2-0.2,1.8,0.2c0.6,0.4,1,0.8,1.1,1.5s0,1.3-0.4,1.9l-0.1,0.1 c-0.4,0.7-0.9,1.1-1.5,1.3c-0.6,0.2-1.2,0.1-1.8-0.2c-0.6-0.4-1-0.8-1.1-1.5S145.8,372,146.3,371.3L146.3,371.3z M147,371.8 c-0.3,0.5-0.4,0.9-0.4,1.3s0.2,0.7,0.6,1c0.4,0.2,0.8,0.2,1.1,0c0.4-0.2,0.7-0.5,1-1l0.1-0.1c0.3-0.5,0.4-0.9,0.4-1.3 c0-0.4-0.2-0.7-0.6-1c-0.4-0.2-0.8-0.2-1.1,0C147.6,370.9,147.3,371.3,147,371.8L147,371.8z" class="st6"/><path d="M151.9,376.8c0.3,0.2,0.5,0.2,0.8,0.2c0.3,0,0.5-0.2,0.7-0.4l0.7,0.4l0,0c-0.2,0.4-0.6,0.6-1.1,0.7 c-0.5,0.1-1,0-1.5-0.3c-0.6-0.4-1-0.9-1.1-1.5c-0.1-0.6,0-1.2,0.4-1.9l0.1-0.2c0.4-0.6,0.8-1,1.4-1.3c0.6-0.2,1.2-0.2,1.8,0.2 c0.4,0.2,0.6,0.4,0.8,0.7c0.2,0.3,0.4,0.6,0.4,0.9l-0.5,1l-0.6-0.4l0.2-0.8c0-0.1-0.1-0.3-0.2-0.4c-0.1-0.1-0.3-0.3-0.5-0.4 c-0.4-0.2-0.8-0.3-1.2-0.1c-0.4,0.2-0.7,0.5-0.9,1l-0.1,0.2c-0.3,0.4-0.4,0.9-0.4,1.3S151.5,376.6,151.9,376.8z" class="st6"/><path d="M157.4,372.9l0.3-0.5l1.5,0.8l-2.1,3.7l0.5,0.3l1.6-0.6l-0.4-0.3l0.3-0.5l1.8,1.1l-0.3,0.5l-0.6-0.2l-2,0.7 l0.4,2.6l0.4,0.4l-0.3,0.5l-1.8-1.1l0.3-0.5l0.4,0.2l-0.3-2.1l-0.5-0.3l-0.8,1.4l0.6,0.5l-0.3,0.5l-2.1-1.2l0.3-0.5l0.7,0.3 l2.9-5.1L157.4,372.9z" class="st6"/><path d="M161,382.9c-0.6-0.4-1-0.8-1.1-1.5c-0.1-0.6,0-1.2,0.4-1.9l0.1-0.2c0.4-0.6,0.8-1,1.5-1.2 c0.6-0.2,1.2-0.2,1.7,0.1c0.6,0.3,0.9,0.8,1,1.3c0.1,0.5,0,1.1-0.4,1.7l-0.3,0.5l-2.8-1.6l0,0c-0.2,0.4-0.3,0.8-0.3,1.2 s0.3,0.7,0.6,0.9c0.3,0.2,0.5,0.3,0.8,0.3c0.2,0,0.5,0,0.7,0l0,0.7c-0.2,0.1-0.5,0.1-0.8,0C161.7,383.2,161.4,383.1,161,382.9z M163.2,378.9c-0.3-0.2-0.6-0.2-0.9-0.1c-0.3,0.1-0.6,0.3-0.8,0.6l0,0l2,1.2l0.1-0.1c0.2-0.3,0.2-0.6,0.2-0.9 C163.7,379.3,163.5,379.1,163.2,378.9z" class="st6"/><path d="M165.8,380.4l0.3-0.5l1.4,0.8l-0.3,0.7c0.3-0.2,0.5-0.2,0.8-0.3c0.3,0,0.5,0,0.7,0.2c0.1,0,0.1,0.1,0.2,0.1 c0.1,0,0.1,0.1,0.1,0.1l-0.5,0.7l-0.4-0.3c-0.2-0.1-0.4-0.2-0.6-0.2c-0.2,0-0.4,0.1-0.6,0.2l-1.5,2.5l0.6,0.5l-0.3,0.5l-2.1-1.2 l0.3-0.5l0.7,0.3l1.8-3.1L165.8,380.4z" class="st6"/></g><g><path d="M59.5,316.4l0.3-0.5l1.5,0.8l-2.1,3.7l0.5,0.3l1.6-0.6l-0.4-0.3l0.3-0.5l1.8,1.1l-0.3,0.5l-0.6-0.2l-2,0.7 l0.4,2.6l0.4,0.4l-0.3,0.5l-1.8-1.1l0.3-0.5l0.4,0.2l-0.3-2.1l-0.5-0.3l-0.8,1.4l0.6,0.5l-0.3,0.5l-2.1-1.2l0.3-0.5l0.7,0.3 l2.9-5.1L59.5,316.4z" class="st6"/><path d="M64.8,326.4c-0.3,0.2-0.6,0.2-0.8,0.2c-0.3,0-0.6-0.1-0.9-0.2c-0.5-0.3-0.8-0.6-0.9-1.1 c-0.1-0.5,0.1-1,0.4-1.7l1.1-2l-0.4-0.4l0.3-0.5l0.5,0.3l0.8,0.5l-1.5,2.6c-0.3,0.5-0.4,0.8-0.3,1.1c0,0.3,0.2,0.5,0.5,0.6 c0.3,0.2,0.6,0.2,0.8,0.2c0.3,0,0.5-0.1,0.7-0.2l1.5-2.5l-0.5-0.5l0.3-0.5l0.6,0.3l0.8,0.5l-2.2,3.8l0.4,0.4l-0.3,0.5l-1.2-0.7 L64.8,326.4z" class="st6"/><path d="M71.5,328.4c-0.4,0.6-0.8,1.1-1.3,1.3c-0.5,0.2-1.1,0.2-1.6-0.1c-0.3-0.2-0.5-0.4-0.7-0.6 c-0.1-0.2-0.2-0.5-0.2-0.8l-0.4,0.5l-0.7-0.4l3.3-5.7l-0.6-0.5l0.3-0.5l1.5,0.8l-1.4,2.5c0.3-0.1,0.5-0.2,0.8-0.2 c0.3,0,0.5,0.1,0.8,0.3c0.5,0.3,0.8,0.8,0.9,1.4C72.2,327,72,327.6,71.5,328.4L71.5,328.4z M70.8,327.9c0.3-0.5,0.4-1,0.4-1.4 c0-0.4-0.2-0.7-0.6-1c-0.2-0.1-0.5-0.2-0.7-0.2s-0.5,0.1-0.7,0.2l-1.1,1.9c0,0.3,0,0.5,0.1,0.7c0.1,0.2,0.3,0.4,0.5,0.5 c0.4,0.2,0.7,0.2,1.1,0.1C70.2,328.7,70.5,328.4,70.8,327.9L70.8,327.9z" class="st6"/><path d="M73.1,332.1c-0.6-0.4-1-0.8-1.1-1.5c-0.1-0.6,0-1.2,0.4-1.9l0.1-0.2c0.4-0.6,0.8-1,1.5-1.2 c0.6-0.2,1.2-0.2,1.7,0.1c0.6,0.3,0.9,0.8,1,1.3c0.1,0.5,0,1.1-0.4,1.7L76,331l-2.9-1.6l0,0c-0.2,0.4-0.3,0.8-0.3,1.2 c0,0.4,0.3,0.7,0.6,0.9c0.3,0.2,0.5,0.3,0.8,0.3c0.2,0,0.5,0,0.7,0l0,0.7c-0.2,0.1-0.5,0.1-0.8,0 C73.8,332.5,73.5,332.3,73.1,332.1z M75.3,328.1c-0.3-0.2-0.6-0.2-0.9-0.1s-0.6,0.3-0.8,0.6l0,0l2,1.2l0.1-0.1 c0.2-0.3,0.2-0.6,0.2-0.9S75.6,328.3,75.3,328.1z" class="st6"/><path d="M78.9,327.6l0.3-0.5l1.5,0.8l-3.3,5.7l0.6,0.5l-0.3,0.5l-2.1-1.2l0.3-0.5l0.7,0.3l2.9-5.1L78.9,327.6z" class="st6"/><path d="M80.2,336.2c-0.6-0.4-1-0.8-1.1-1.5c-0.1-0.6,0-1.2,0.4-1.9l0.1-0.2c0.4-0.6,0.8-1,1.5-1.2 c0.6-0.2,1.2-0.2,1.7,0.1c0.6,0.3,0.9,0.8,1,1.3c0.1,0.5,0,1.1-0.4,1.7l-0.3,0.5l-2.9-1.6l0,0c-0.2,0.4-0.3,0.8-0.3,1.2 c0,0.4,0.3,0.7,0.6,0.9c0.3,0.2,0.5,0.3,0.8,0.3c0.2,0,0.5,0,0.7,0l0,0.7c-0.2,0.1-0.5,0.1-0.8,0 C80.9,336.6,80.6,336.4,80.2,336.2z M82.3,332.2c-0.3-0.2-0.6-0.2-0.9-0.1s-0.6,0.3-0.8,0.6l0,0l2,1.2l0.1-0.1 c0.2-0.3,0.2-0.6,0.2-0.9S82.7,332.4,82.3,332.2z" class="st6"/><path d="M87.3,332.9l-0.6,1.1l0.8,0.5l-0.3,0.6l-0.8-0.5l-1.5,2.7c-0.1,0.2-0.2,0.4-0.1,0.5c0,0.1,0.1,0.2,0.3,0.3 c0.1,0,0.2,0.1,0.2,0.1c0.1,0,0.2,0.1,0.2,0.1l-0.2,0.6c-0.1,0-0.2,0-0.4-0.1c-0.2-0.1-0.3-0.1-0.5-0.2c-0.3-0.2-0.5-0.4-0.6-0.7 c-0.1-0.3,0-0.7,0.2-1.1l1.5-2.7l-0.7-0.4l0.3-0.6l0.7,0.4l0.6-1.1L87.3,332.9z" class="st6"/></g></g><g id="pods"><linearGradient id="SVGID_1_" x1="112.034" x2="173.496" y1="278.882" y2="278.882" gradientUnits="userSpaceOnUse"><stop offset="0" style="stop-color:#326de6"/><stop offset="1" style="stop-color:#10ffc6"/></linearGradient><circle style="opacity:.1;fill:url(#SVGID_1_)" cx="142.8" cy="278.9" r="30.7"/><linearGradient id="SVGID_2_" x1="148.693" x2="194.789" y1="192.468" y2="192.468" gradientUnits="userSpaceOnUse"><stop offset="0" style="stop-color:#326de6"/><stop offset="1" style="stop-color:#10ffc6"/></linearGradient><circle style="opacity:.1;fill:url(#SVGID_2_)" cx="171.7" cy="192.5" r="23"/><linearGradient id="SVGID_3_" x1="217.967" x2="299.916" y1="162.705" y2="162.705" gradientUnits="userSpaceOnUse"><stop offset="0" style="stop-color:#326de6"/><stop offset="1" style="stop-color:#10ffc6"/></linearGradient><circle cx="258.9" cy="162.7" r="41" class="st30"/><linearGradient id="SVGID_4_" x1="205.675" x2="312.208" y1="278.441" y2="278.441" gradientUnits="userSpaceOnUse"><stop offset="0" style="stop-color:#326de6"/><stop offset="1" style="stop-color:#10ffc6"/></linearGradient><circle cx="258.9" cy="278.4" r="53.3" class="st31"/><circle cx="142.8" cy="278.9" r="30.7" class="st34"/><circle cx="171.7" cy="192.5" r="23" class="st34"/><circle cx="258.9" cy="162.7" r="41" class="st34"/><circle cx="258.9" cy="278.4" r="53.3" class="st34"/></g><g id="IP"><g><path d="M111.6,266.2l0.5-1.3l-6.1-2.8l-0.5,1.5l-0.4-0.2l0.5-2.2l6.7,3.1l0.7-1.3l0.4,0.2l-1.5,3.2L111.6,266.2z" class="st42"/><path d="M114.1,256.7c0.9,0.6,1.4,1.2,1.6,1.9c0.2,0.7,0.1,1.3-0.3,2c-0.4,0.6-1,1-1.7,1c-0.7,0.1-1.5-0.2-2.3-0.8 l-1.5-1c-0.8-0.6-1.4-1.2-1.6-1.9s-0.1-1.3,0.3-2c0.4-0.6,1-1,1.7-1c0.7-0.1,1.5,0.2,2.3,0.8L114.1,256.7z M112.1,256.2 c-0.7-0.5-1.3-0.7-1.8-0.7c-0.5,0-1,0.3-1.3,0.8c-0.3,0.5-0.4,1-0.2,1.5c0.2,0.5,0.6,1,1.3,1.4l1.6,1.1c0.7,0.5,1.3,0.7,1.8,0.7 s1-0.3,1.3-0.7c0.3-0.5,0.4-1,0.2-1.5s-0.6-1-1.3-1.4L112.1,256.2z" class="st42"/><path d="M118,256.9l-0.5,0.6l-0.7-0.6l0.5-0.6L118,256.9z" class="st42"/><path d="M118.6,255.5l1-1l-4.6-4.9l-1,1.2l-0.3-0.3l1.3-1.9l5.1,5.4l1.1-0.9l0.3,0.4l-2.6,2.4L118.6,255.5z" class="st42"/><path d="M124.4,247.6c0.6,0.8,0.8,1.6,0.8,2.3c0,0.7-0.4,1.3-1,1.7c-0.6,0.4-1.3,0.5-2,0.3c-0.7-0.2-1.3-0.7-1.9-1.6 l-1-1.5c-0.6-0.8-0.8-1.6-0.8-2.3c0-0.7,0.4-1.3,1-1.7c0.6-0.4,1.3-0.6,2-0.3c0.7,0.2,1.3,0.7,1.9,1.6L124.4,247.6z M122.8,246.4 c-0.5-0.7-0.9-1.1-1.4-1.3c-0.5-0.2-1-0.1-1.5,0.2c-0.5,0.3-0.7,0.8-0.7,1.3c0,0.5,0.2,1.1,0.7,1.8l1.1,1.6 c0.5,0.7,0.9,1.1,1.5,1.3c0.5,0.2,1,0.1,1.5-0.2c0.5-0.3,0.7-0.8,0.7-1.3s-0.2-1.1-0.7-1.8L122.8,246.4z" class="st42"/><path d="M128,249.2l-0.7,0.3l-0.4-0.8l0.7-0.3L128,249.2z" class="st42"/><path d="M129.1,248.1l1.3-0.6l-2.4-6.3l-1.4,0.8l-0.2-0.4l1.9-1.3l2.7,6.9l1.4-0.5l0.2,0.4l-3.3,1.3L129.1,248.1z" class="st42"/><path d="M137.4,243c0.2,1,0.2,1.8-0.1,2.5c-0.3,0.6-0.8,1-1.6,1.2c-0.8,0.2-1.4,0-2-0.4c-0.5-0.4-0.9-1.2-1.2-2.2 l-0.4-1.7c-0.2-1-0.2-1.8,0.1-2.5s0.8-1,1.6-1.2c0.8-0.2,1.4,0,2,0.4c0.5,0.5,0.9,1.2,1.2,2.2L137.4,243z M136.3,241.3 c-0.2-0.8-0.5-1.4-0.9-1.7c-0.4-0.4-0.9-0.5-1.5-0.4c-0.6,0.1-1,0.4-1.2,0.9c-0.2,0.5-0.2,1.1-0.1,1.9l0.4,1.9 c0.2,0.8,0.5,1.4,0.9,1.7c0.4,0.4,0.9,0.5,1.5,0.4c0.6-0.1,1-0.4,1.2-0.9c0.2-0.5,0.2-1.1,0.1-1.9L136.3,241.3z" class="st42"/><path d="M140.1,245.9l-0.7,0.1l-0.1-0.9l0.7-0.1L140.1,245.9z" class="st42"/><path d="M141.4,245.7l0-0.5l2.7-2.9c0.5-0.5,0.9-1,1.1-1.3c0.2-0.4,0.3-0.7,0.3-1c0-0.5-0.1-0.9-0.4-1.2 c-0.3-0.3-0.7-0.5-1.2-0.5c-0.6,0-1.1,0.1-1.4,0.5c-0.3,0.3-0.5,0.8-0.5,1.3l-0.6,0l0,0c0-0.7,0.2-1.2,0.7-1.7 c0.5-0.4,1.1-0.7,1.8-0.6c0.7,0,1.2,0.2,1.6,0.6s0.6,0.9,0.6,1.6c0,0.4-0.2,0.9-0.5,1.3c-0.3,0.4-0.7,0.9-1.2,1.5l-2.3,2.4l0,0 l3.5,0.1l0.1-1.1l0.6,0l-0.1,1.7L141.4,245.7z" class="st42"/></g><g><path d="M148.3,182.8l0.6-1.3l-6-3l-0.5,1.5l-0.4-0.2l0.6-2.2l6.7,3.3l0.7-1.2l0.4,0.2l-1.5,3.2L148.3,182.8z" class="st42"/><path d="M151.1,173.5c0.8,0.6,1.3,1.3,1.5,2c0.2,0.7,0,1.3-0.5,1.9c-0.5,0.6-1.1,0.9-1.8,0.9c-0.7,0-1.5-0.3-2.3-0.9 l-1.4-1.1c-0.8-0.6-1.3-1.3-1.5-2c-0.2-0.7,0-1.3,0.4-1.9c0.5-0.6,1.1-0.9,1.8-0.9c0.7,0,1.5,0.3,2.3,0.9L151.1,173.5z M149.2,172.8c-0.6-0.5-1.2-0.8-1.8-0.8s-1,0.2-1.4,0.7c-0.4,0.5-0.5,1-0.3,1.5s0.6,1,1.2,1.5l1.6,1.2c0.6,0.5,1.2,0.8,1.8,0.8 c0.5,0,1-0.2,1.4-0.7c0.4-0.5,0.5-1,0.3-1.5c-0.2-0.5-0.6-1-1.2-1.5L149.2,172.8z" class="st42"/><path d="M155.1,174.1l-0.5,0.5l-0.6-0.7l0.5-0.5L155.1,174.1z" class="st42"/><path d="M155.8,172.7l1.1-0.9l-3.9-5.5l-1.2,1.1l-0.3-0.4l1.5-1.7l4.3,6.1l1.2-0.8l0.3,0.4l-2.9,2L155.8,172.7z" class="st42"/><path d="M162.8,165.9c0.4,0.9,0.5,1.8,0.4,2.4c-0.2,0.7-0.6,1.2-1.3,1.5c-0.7,0.3-1.4,0.3-2,0 c-0.6-0.3-1.1-1-1.6-1.9l-0.7-1.6c-0.4-0.9-0.5-1.8-0.4-2.4c0.2-0.7,0.6-1.2,1.3-1.5c0.7-0.3,1.4-0.3,2,0c0.6,0.3,1.1,1,1.6,1.9 L162.8,165.9z M161.4,164.4c-0.3-0.7-0.7-1.3-1.2-1.5s-1-0.3-1.5-0.1c-0.5,0.2-0.9,0.6-1,1.1c-0.1,0.5,0,1.2,0.3,1.9l0.8,1.8 c0.3,0.7,0.7,1.3,1.2,1.5c0.5,0.3,1,0.3,1.5,0.1c0.5-0.2,0.9-0.6,1-1.2s0-1.2-0.3-1.9L161.4,164.4z" class="st42"/><path d="M165.9,168.3l-0.7,0.2l-0.2-0.9l0.7-0.2L165.9,168.3z" class="st42"/><path d="M167.2,167.5l1.4-0.2l-0.8-6.7l-1.5,0.4l-0.1-0.5l2.2-0.7l0.8,7.4l1.4-0.1l0.1,0.5l-3.5,0.4L167.2,167.5z" class="st42"/><path d="M176.6,164.9c-0.1,1-0.4,1.8-0.9,2.3s-1.1,0.7-1.9,0.7c-0.8-0.1-1.3-0.4-1.7-1c-0.4-0.6-0.5-1.4-0.4-2.4 l0.2-1.8c0.1-1,0.4-1.8,0.9-2.3c0.5-0.5,1.1-0.7,1.9-0.7c0.8,0.1,1.4,0.4,1.7,1c0.4,0.6,0.5,1.4,0.4,2.4L176.6,164.9z M176.1,162.9c0.1-0.8,0-1.5-0.3-1.9c-0.3-0.5-0.7-0.7-1.3-0.8c-0.6-0.1-1.1,0.1-1.4,0.5s-0.6,1-0.6,1.8l-0.2,2 c-0.1,0.8,0,1.4,0.3,1.9c0.3,0.5,0.7,0.7,1.3,0.8c0.6,0.1,1.1-0.1,1.4-0.5c0.3-0.4,0.6-1,0.6-1.8L176.1,162.9z" class="st42"/><path d="M178.2,168.5l-0.7-0.2l0.2-0.9l0.7,0.2L178.2,168.5z" class="st42"/><path d="M179.7,168.4l1.3,0.5l2.5-6.2l-1.5-0.4l0.2-0.4l2.2,0.4l-2.8,6.9l1.3,0.6l-0.2,0.4l-3.3-1.3L179.7,168.4z" class="st42"/></g><g><path d="M224.4,135.7l0.9-1.1l-5.1-4.3l-0.8,1.3l-0.4-0.3l1.1-2l5.7,4.8l1-1l0.4,0.3l-2.3,2.7L224.4,135.7z" class="st42"/><path d="M229.1,127.1c0.7,0.8,1.1,1.5,1.1,2.2c0.1,0.7-0.2,1.3-0.8,1.8c-0.6,0.5-1.2,0.7-1.9,0.6 c-0.7-0.1-1.4-0.5-2.1-1.3l-1.2-1.3c-0.7-0.7-1.1-1.5-1.1-2.2s0.2-1.3,0.8-1.8c0.6-0.5,1.2-0.7,1.9-0.6c0.7,0.1,1.4,0.5,2.1,1.3 L229.1,127.1z M227.3,126.1c-0.6-0.6-1.1-1-1.6-1.1c-0.5-0.1-1,0-1.4,0.4c-0.4,0.4-0.6,0.9-0.5,1.4c0.1,0.5,0.4,1.1,0.9,1.7 l1.4,1.5c0.6,0.6,1.1,0.9,1.6,1.1c0.5,0.1,1,0,1.4-0.4c0.4-0.4,0.6-0.9,0.5-1.4c-0.1-0.5-0.4-1.1-0.9-1.7L227.3,126.1z" class="st42"/><path d="M232.8,128.1l-0.6,0.5l-0.5-0.7l0.6-0.5L232.8,128.1z" class="st42"/><path d="M233.7,126.8l1.2-0.8l-3.7-5.6l-1.2,1l-0.2-0.4l1.6-1.6l4,6.2l1.2-0.7l0.3,0.4l-2.9,1.9L233.7,126.8z" class="st42"/><path d="M240.8,119.9c0.5,0.9,0.6,1.7,0.5,2.4c-0.1,0.7-0.6,1.2-1.3,1.5c-0.7,0.3-1.4,0.4-2,0.1 c-0.6-0.3-1.2-0.9-1.6-1.8l-0.8-1.6c-0.5-0.9-0.6-1.7-0.5-2.4c0.1-0.7,0.6-1.2,1.3-1.5c0.7-0.3,1.4-0.4,2-0.1 c0.6,0.3,1.2,0.9,1.6,1.8L240.8,119.9z M239.3,118.5c-0.4-0.7-0.8-1.2-1.2-1.5c-0.5-0.3-1-0.3-1.5,0c-0.5,0.3-0.8,0.7-0.9,1.2 c-0.1,0.5,0.1,1.2,0.4,1.9l0.9,1.8c0.4,0.7,0.8,1.2,1.3,1.5s1,0.3,1.5,0c0.5-0.3,0.8-0.7,0.9-1.2c0.1-0.5-0.1-1.2-0.4-1.9 L239.3,118.5z" class="st42"/><path d="M244,122l-0.7,0.3l-0.3-0.8l0.7-0.3L244,122z" class="st42"/><path d="M245.3,121l1.4-0.5l-1.8-6.5l-1.4,0.6l-0.1-0.4l2-1.1l2,7.1l1.4-0.3l0.1,0.5l-3.4,1L245.3,121z" class="st42"/><path d="M254,116.4c0.2,1,0.1,1.8-0.3,2.4c-0.3,0.6-0.9,1-1.7,1.1c-0.8,0.1-1.4-0.1-1.9-0.5c-0.5-0.5-0.9-1.2-1-2.2 l-0.3-1.8c-0.2-1-0.1-1.8,0.3-2.4c0.3-0.6,0.9-1,1.7-1.1c0.8-0.1,1.4,0.1,1.9,0.5c0.5,0.5,0.9,1.2,1,2.2L254,116.4z M253.1,114.7 c-0.1-0.8-0.4-1.4-0.8-1.8c-0.4-0.4-0.9-0.5-1.4-0.4c-0.6,0.1-1,0.4-1.2,0.9s-0.3,1.1-0.2,1.9l0.3,2c0.1,0.8,0.4,1.4,0.8,1.8 c0.4,0.4,0.9,0.5,1.4,0.4c0.6-0.1,1-0.4,1.2-0.9c0.2-0.5,0.3-1.1,0.2-1.9L253.1,114.7z" class="st42"/><path d="M256.6,119.4l-0.7,0l-0.1-0.9l0.7,0L256.6,119.4z" class="st42"/><path d="M259.6,115l0.8,0c0.6,0,1-0.1,1.3-0.4c0.3-0.3,0.5-0.6,0.5-1.1c0-0.5-0.1-0.9-0.4-1.2 c-0.3-0.3-0.7-0.5-1.2-0.5c-0.5,0-0.9,0.1-1.3,0.4c-0.3,0.3-0.5,0.7-0.5,1.2l-0.6,0l0,0c0-0.6,0.2-1.1,0.7-1.5 c0.5-0.4,1-0.6,1.7-0.6c0.7,0,1.3,0.2,1.7,0.6c0.4,0.4,0.6,1,0.6,1.6c0,0.4-0.1,0.7-0.4,1c-0.2,0.3-0.6,0.6-1,0.7 c0.5,0.2,0.9,0.4,1.1,0.8s0.3,0.7,0.3,1.2c0,0.7-0.3,1.3-0.7,1.6c-0.5,0.4-1.1,0.6-1.8,0.5c-0.7,0-1.3-0.2-1.8-0.7 c-0.5-0.4-0.7-1-0.7-1.7l0,0l0.6,0c0,0.5,0.1,0.9,0.5,1.3c0.3,0.3,0.8,0.5,1.3,0.5c0.6,0,1-0.1,1.3-0.4c0.3-0.3,0.5-0.7,0.5-1.2 c0-0.6-0.1-1-0.5-1.3s-0.8-0.4-1.4-0.4l-0.8,0L259.6,115z" class="st42"/></g><g><path d="M217.2,240.9l0.9-1.1l-4.9-4.6l-0.9,1.3l-0.3-0.3l1.2-1.9l5.4,5.1l1-1l0.3,0.3l-2.4,2.5L217.2,240.9z" class="st42"/><path d="M222.4,232.4c0.7,0.8,1,1.5,1.1,2.2c0,0.7-0.2,1.3-0.8,1.8c-0.6,0.5-1.2,0.7-1.9,0.6 c-0.7-0.1-1.4-0.6-2.1-1.4l-1.2-1.3c-0.7-0.8-1-1.5-1.1-2.2c0-0.7,0.2-1.3,0.8-1.8c0.6-0.5,1.2-0.7,1.9-0.6s1.4,0.6,2.1,1.4 L222.4,232.4z M220.6,231.4c-0.5-0.6-1.1-1-1.6-1.1c-0.5-0.1-1,0-1.5,0.4c-0.4,0.4-0.6,0.8-0.6,1.4s0.3,1.1,0.9,1.7l1.3,1.5 c0.5,0.6,1.1,1,1.6,1.1c0.5,0.1,1,0,1.5-0.4c0.4-0.4,0.6-0.8,0.6-1.4c-0.1-0.5-0.4-1.1-0.9-1.7L220.6,231.4z" class="st42"/><path d="M226.1,233.5l-0.6,0.4l-0.5-0.7l0.6-0.4L226.1,233.5z" class="st42"/><path d="M227,232.2l1.2-0.8l-3.7-5.6l-1.2,1l-0.2-0.4l1.6-1.6l4.1,6.2l1.2-0.7l0.3,0.4l-2.9,1.9L227,232.2z" class="st42"/><path d="M233.9,225.2c0.5,0.9,0.7,1.7,0.5,2.4c-0.1,0.7-0.5,1.2-1.2,1.6c-0.7,0.4-1.4,0.4-2,0.1 c-0.6-0.3-1.2-0.9-1.7-1.8l-0.8-1.6c-0.5-0.9-0.6-1.7-0.5-2.4c0.1-0.7,0.5-1.2,1.2-1.6c0.7-0.4,1.4-0.4,2-0.1 c0.6,0.3,1.2,0.9,1.7,1.8L233.9,225.2z M232.5,223.8c-0.4-0.7-0.8-1.2-1.3-1.5c-0.5-0.2-1-0.2-1.5,0c-0.5,0.3-0.8,0.7-0.9,1.2 c-0.1,0.5,0.1,1.2,0.5,1.9l0.9,1.8c0.4,0.7,0.8,1.2,1.3,1.4s1,0.2,1.5,0c0.5-0.3,0.8-0.7,0.9-1.2c0.1-0.5-0.1-1.2-0.5-1.9 L232.5,223.8z" class="st42"/><path d="M237.3,227.1l-0.7,0.3l-0.4-0.8l0.7-0.3L237.3,227.1z" class="st42"/><path d="M238.5,226.1l1.3-0.5l-2.3-6.3l-1.4,0.7l-0.2-0.4l1.9-1.2l2.5,7l1.4-0.4l0.2,0.5l-3.3,1.2L238.5,226.1z" class="st42"/><path d="M246.9,220.9c0.3,1,0.2,1.8-0.1,2.5c-0.3,0.6-0.8,1.1-1.6,1.3c-0.7,0.2-1.4,0.1-2-0.4 c-0.6-0.4-1-1.1-1.2-2.1l-0.4-1.7c-0.3-1-0.2-1.8,0.1-2.5c0.3-0.6,0.8-1.1,1.6-1.3c0.8-0.2,1.4-0.1,2,0.4s1,1.1,1.2,2.1 L246.9,220.9z M245.8,219.2c-0.2-0.8-0.5-1.4-0.9-1.7c-0.4-0.3-0.9-0.5-1.5-0.3c-0.6,0.1-1,0.5-1.1,1c-0.2,0.5-0.2,1.1,0,1.9 l0.5,1.9c0.2,0.8,0.5,1.4,0.9,1.7c0.4,0.4,0.9,0.5,1.5,0.3c0.6-0.1,1-0.5,1.1-1s0.2-1.2,0-1.9L245.8,219.2z" class="st42"/><path d="M249.7,223.5l-0.7,0.1l-0.2-0.9l0.7-0.1L249.7,223.5z" class="st42"/><path d="M255,220.3l1.2-0.1l0.1,0.5l-1.2,0.1l0.1,1.5l0.9,0l0,0.5l-2.4,0.2l0-0.5l0.9-0.2l-0.1-1.5l-3.7,0.3l0-0.4 l3.1-5.9l0.7-0.1L255,220.3z M251.5,220.6l2.9-0.3l-0.4-4.5l0,0l-0.2,0.6L251.5,220.6z" class="st42"/></g></g><g id="containers_x2F_volumes"><g><g><polygon points="124 273.8 131.9 269.3 139.8 273.8 131.9 278.4" class="st50"/><polygon points="124 283 124 273.8 131.9 278.4 131.9 287.6" class="st50"/><polygon points="131.9 287.6 131.9 278.4 139.8 273.8 139.8 283" class="st50"/></g><g><path d="M161.6,282.4C161.6,282.4,161.6,282.4,161.6,282.4C161.6,282.3,161.6,282.3,161.6,282.4v-8h-15.8v7.9 c0,0,0,0,0,0c0,0,0,0,0,0v0.1h0c0.2,2.2,3.6,3.9,7.9,3.9s7.7-1.7,7.9-3.9h0V282.4z" class="st51"/><ellipse cx="153.7" cy="274.5" class="st51" rx="7.9" ry="4.1"/></g></g><g><g><polygon points="163.8 187.9 171.7 183.3 179.7 187.9 171.7 192.5" class="st50"/><polygon points="163.8 197 163.8 187.9 171.7 192.5 171.7 201.6" class="st50"/><polygon points="171.7 201.6 171.7 192.5 179.7 187.9 179.7 197" class="st50"/></g></g><g><g><polygon points="251 148.6 258.9 144 266.9 148.6 258.9 153.2" class="st50"/><polygon points="251 157.8 251 148.6 258.9 153.2 258.9 162.3" class="st50"/><polygon points="258.9 162.3 258.9 153.2 266.9 148.6 266.9 157.8" class="st50"/></g><g><polygon points="242.1 166 248 162.6 254 166 248 169.5" class="st50"/><polygon points="242.1 172.9 242.1 166 248 169.5 248 176.3" class="st50"/><polygon points="248 176.3 248 169.5 254 166 254 172.9" class="st50"/></g><g><path d="M277.7,173.4C277.7,173.4,277.7,173.4,277.7,173.4C277.7,173.4,277.7,173.4,277.7,173.4v-8h-15.8v7.9 c0,0,0,0,0,0c0,0,0,0,0,0v0.1h0c0.2,2.2,3.6,3.9,7.9,3.9c4.3,0,7.7-1.7,7.9-3.9h0V173.4z" class="st51"/><ellipse cx="269.8" cy="165.5" class="st51" rx="7.9" ry="4.1"/></g></g><g><g><path d="M241.9,284.5C241.9,284.5,241.9,284.5,241.9,284.5C241.9,284.4,241.9,284.4,241.9,284.5v-10.6h-21.1v10.6 c0,0,0,0,0,0c0,0,0,0,0,0v0.2h0c0.2,2.9,4.9,5.2,10.5,5.2c5.7,0,10.3-2.3,10.5-5.2h0V284.5z" class="st51"/><ellipse cx="231.3" cy="274" class="st51" rx="10.6" ry="5.4"/></g><g><path d="M285.3,262.8C285.3,262.8,285.3,262.8,285.3,262.8C285.3,262.7,285.3,262.7,285.3,262.8v-10.6h-21.1v10.6 c0,0,0,0,0,0c0,0,0,0,0,0v0.2h0c0.2,2.9,4.9,5.2,10.5,5.2s10.3-2.3,10.5-5.2h0V262.8z" class="st51"/><ellipse cx="274.7" cy="252.3" class="st51" rx="10.6" ry="5.4"/></g><g><polygon points="249.7 273.1 260.2 267 270.8 273.1 260.2 279.2" class="st50"/><polygon points="249.7 285.3 249.7 273.1 260.2 279.2 260.2 291.4" class="st50"/><polygon points="260.2 291.4 260.2 279.2 270.8 273.1 270.8 285.3" class="st50"/></g><g><polygon points="281.3 274.6 289.2 270 297.1 274.6 289.2 279.2" class="st50"/><polygon points="281.3 283.8 281.3 274.6 289.2 279.2 289.2 288.3" class="st50"/><polygon points="289.2 288.3 289.2 279.2 297.1 274.6 297.1 283.8" class="st50"/></g></g><g><g><polygon points="248.8 297.5 243.5 294.4 238.2 297.5 243.5 300.5" class="st50"/><polygon points="248.8 303.6 248.8 297.5 243.5 300.5 243.5 306.6" class="st50"/><polygon points="243.5 306.6 243.5 300.5 238.2 297.5 238.2 303.6" class="st50"/></g></g></g><g id="description"><g><path d="M390,257.5l-0.8,0.1l1.3,3.6l0.1,0.5h0l0.1-0.5l1.3-3.6l-0.8-0.1v-0.7h2.4v0.7l-0.5,0.1l-2.1,5.5h-0.9 l-2.2-5.5l-0.5-0.1v-0.7h2.4V257.5z" class="st42"/><path d="M394.5,259.9c0-0.9,0.3-1.7,0.8-2.3s1.2-0.9,2.1-0.9c0.9,0,1.6,0.3,2.1,0.9s0.8,1.4,0.8,2.3v0.1 c0,0.9-0.3,1.7-0.8,2.3s-1.2,0.9-2.1,0.9c-0.9,0-1.6-0.3-2.1-0.9s-0.8-1.4-0.8-2.3V259.9z M395.6,260c0,0.7,0.1,1.2,0.4,1.7 s0.7,0.7,1.3,0.7c0.5,0,1-0.2,1.2-0.7s0.4-1,0.4-1.7v-0.1c0-0.7-0.1-1.2-0.4-1.7s-0.7-0.7-1.3-0.7s-1,0.2-1.3,0.7s-0.4,1-0.4,1.7 V260z" class="st42"/><path d="M400.9,254.7V254h2.1v8.2l1,0.2v0.7h-3.1v-0.7l1-0.2v-7.3L400.9,254.7z" class="st42"/><path d="M409.4,262.2c-0.2,0.3-0.5,0.6-0.8,0.8s-0.7,0.3-1.1,0.3c-0.7,0-1.2-0.2-1.6-0.7s-0.6-1.1-0.6-2.1v-2.8 l-0.7-0.2v-0.7h0.7h1.2v3.8c0,0.7,0.1,1.1,0.3,1.4s0.5,0.4,0.9,0.4c0.4,0,0.7-0.1,1-0.2s0.5-0.4,0.6-0.7v-3.7l-0.8-0.2v-0.7h0.8 h1.2v5.4l0.7,0.2v0.7h-1.8L409.4,262.2z" class="st42"/><path d="M411.9,262.4l1-0.2v-4.5l-1-0.2v-0.7h2l0.1,0.8c0.2-0.3,0.5-0.5,0.8-0.7s0.7-0.2,1.1-0.2s0.8,0.1,1.1,0.3 s0.5,0.5,0.7,0.9c0.2-0.4,0.5-0.6,0.8-0.9s0.7-0.3,1.1-0.3c0.6,0,1.2,0.2,1.5,0.7s0.6,1.1,0.6,2v2.9l1,0.2v0.7h-3.1v-0.7l1-0.2 v-2.9c0-0.6-0.1-1.1-0.3-1.3s-0.5-0.4-1-0.4c-0.4,0-0.7,0.1-1,0.4s-0.4,0.6-0.4,1.1v3.1l1,0.2v0.7h-3.1v-0.7l1-0.2v-2.9 c0-0.6-0.1-1-0.3-1.3s-0.5-0.4-1-0.4c-0.4,0-0.6,0.1-0.9,0.2s-0.4,0.3-0.5,0.6v3.8l1,0.2v0.7h-3.1V262.4z" class="st42"/><path d="M426.3,263.2c-0.9,0-1.6-0.3-2.1-0.9s-0.8-1.4-0.8-2.3v-0.3c0-0.9,0.3-1.7,0.8-2.3s1.2-0.9,1.9-0.9 c0.9,0,1.5,0.3,1.9,0.8s0.7,1.2,0.7,2.1v0.7h-4.1l0,0c0,0.6,0.2,1.1,0.5,1.5s0.7,0.6,1.2,0.6c0.4,0,0.7-0.1,1-0.2s0.5-0.3,0.8-0.5 l0.5,0.8c-0.2,0.2-0.5,0.4-0.9,0.6S426.8,263.2,426.3,263.2z M426.1,257.6c-0.4,0-0.7,0.2-1,0.5s-0.4,0.7-0.5,1.2l0,0h2.9v-0.2 c0-0.5-0.1-0.8-0.4-1.1S426.6,257.6,426.1,257.6z" class="st42"/></g><line x1="385.3" x2="274" y1="260.7" y2="260.7" class="st62"/><g><path d="M387.7,348.8l1-0.2v-4.5l-1-0.2v-0.7h2l0.1,0.9c0.2-0.3,0.5-0.6,0.8-0.8s0.7-0.3,1.1-0.3 c0.7,0,1.2,0.2,1.6,0.6s0.6,1,0.6,1.9v3.1l1,0.2v0.7h-3.1v-0.7l1-0.2v-3.1c0-0.6-0.1-1-0.3-1.2s-0.6-0.4-1-0.4 c-0.3,0-0.6,0.1-0.9,0.2s-0.5,0.4-0.6,0.7v3.7l1,0.2v0.7h-3.1V348.8z" class="st42"/><path d="M395.5,346.3c0-0.9,0.3-1.7,0.8-2.3s1.2-0.9,2.1-0.9c0.9,0,1.6,0.3,2.1,0.9s0.8,1.4,0.8,2.3v0.1 c0,0.9-0.3,1.7-0.8,2.3s-1.2,0.9-2.1,0.9c-0.9,0-1.6-0.3-2.1-0.9s-0.8-1.4-0.8-2.3V346.3z M396.7,346.5c0,0.7,0.1,1.2,0.4,1.7 s0.7,0.7,1.3,0.7c0.5,0,1-0.2,1.2-0.7s0.4-1,0.4-1.7v-0.1c0-0.7-0.1-1.2-0.4-1.7s-0.7-0.7-1.3-0.7s-1,0.2-1.3,0.7s-0.4,1-0.4,1.7 V346.5z" class="st42"/><path d="M406.5,348.8c-0.2,0.3-0.5,0.5-0.8,0.7s-0.6,0.2-1,0.2c-0.8,0-1.4-0.3-1.8-0.8s-0.7-1.3-0.7-2.2v-0.1 c0-1,0.2-1.8,0.7-2.5s1-0.9,1.8-0.9c0.4,0,0.7,0.1,1,0.2s0.5,0.3,0.7,0.6v-2.6l-1-0.2v-0.7h1h1.2v8.2l1,0.2v0.7h-2L406.5,348.8z M403.4,346.6c0,0.6,0.1,1.1,0.4,1.5s0.7,0.6,1.2,0.6c0.3,0,0.6-0.1,0.9-0.2s0.4-0.4,0.6-0.7v-2.9c-0.1-0.3-0.3-0.5-0.6-0.6 s-0.5-0.2-0.9-0.2c-0.6,0-1,0.2-1.2,0.7s-0.4,1.1-0.4,1.8V346.6z" class="st42"/><path d="M412.3,349.7c-0.9,0-1.6-0.3-2.1-0.9s-0.8-1.4-0.8-2.3v-0.3c0-0.9,0.3-1.7,0.8-2.3s1.2-0.9,1.9-0.9 c0.9,0,1.5,0.3,1.9,0.8s0.7,1.2,0.7,2.1v0.7h-4.1l0,0c0,0.6,0.2,1.1,0.5,1.5s0.7,0.6,1.2,0.6c0.4,0,0.7-0.1,1-0.2s0.5-0.3,0.8-0.5 l0.5,0.8c-0.2,0.2-0.5,0.4-0.9,0.6S412.9,349.7,412.3,349.7z M412.2,344c-0.4,0-0.7,0.2-1,0.5s-0.4,0.7-0.5,1.2l0,0h2.9v-0.2 c0-0.5-0.1-0.8-0.4-1.1S412.6,344,412.2,344z" class="st42"/><path d="M418.7,351.2l1-0.2v-7l-1-0.2v-0.7h1.9l0.1,0.8c0.2-0.3,0.5-0.5,0.8-0.7s0.7-0.2,1.1-0.2 c0.8,0,1.4,0.3,1.8,0.9s0.7,1.4,0.7,2.5v0.1c0,0.9-0.2,1.7-0.7,2.2s-1,0.8-1.8,0.8c-0.4,0-0.7-0.1-1-0.2s-0.5-0.3-0.8-0.6v2.2 l1,0.2v0.7h-3.1V351.2z M423.9,346.5c0-0.7-0.1-1.3-0.4-1.8s-0.7-0.7-1.3-0.7c-0.3,0-0.6,0.1-0.8,0.2s-0.4,0.4-0.6,0.6v3.1 c0.1,0.3,0.3,0.5,0.6,0.6s0.5,0.2,0.9,0.2c0.5,0,1-0.2,1.2-0.6s0.4-0.9,0.4-1.6V346.5z" class="st42"/><path d="M426.2,344v-0.7h2l0.1,0.9c0.2-0.3,0.4-0.6,0.7-0.8s0.6-0.3,0.9-0.3c0.1,0,0.2,0,0.3,0s0.2,0,0.2,0l-0.2,1.1 l-0.7,0c-0.3,0-0.6,0.1-0.8,0.2s-0.4,0.3-0.5,0.6v3.6l1,0.2v0.7h-3.1v-0.7l1-0.2v-4.5L426.2,344z" class="st42"/><path d="M431,346.3c0-0.9,0.3-1.7,0.8-2.3s1.2-0.9,2.1-0.9c0.9,0,1.6,0.3,2.1,0.9s0.8,1.4,0.8,2.3v0.1 c0,0.9-0.3,1.7-0.8,2.3s-1.2,0.9-2.1,0.9c-0.9,0-1.6-0.3-2.1-0.9s-0.8-1.4-0.8-2.3V346.3z M432.2,346.5c0,0.7,0.1,1.2,0.4,1.7 s0.7,0.7,1.3,0.7c0.5,0,1-0.2,1.2-0.7s0.4-1,0.4-1.7v-0.1c0-0.7-0.1-1.2-0.4-1.7s-0.7-0.7-1.3-0.7s-1,0.2-1.3,0.7s-0.4,1-0.4,1.7 V346.5z" class="st42"/><path d="M440.6,348.8c0.4,0,0.7-0.1,1-0.4s0.4-0.5,0.4-0.9h1l0,0c0,0.5-0.2,1-0.7,1.5s-1.1,0.6-1.8,0.6 c-0.9,0-1.6-0.3-2.1-0.9s-0.7-1.4-0.7-2.3v-0.2c0-0.9,0.2-1.7,0.7-2.3s1.2-0.9,2.1-0.9c0.5,0,1,0.1,1.4,0.3s0.7,0.4,1,0.7l0.1,1.4 h-0.9l-0.3-1c-0.1-0.1-0.3-0.2-0.5-0.3s-0.5-0.1-0.7-0.1c-0.6,0-1,0.2-1.3,0.7s-0.4,1-0.4,1.6v0.2c0,0.6,0.1,1.2,0.4,1.6 S440,348.8,440.6,348.8z" class="st42"/><path d="M447.1,349.7c-0.9,0-1.6-0.3-2.1-0.9s-0.8-1.4-0.8-2.3v-0.3c0-0.9,0.3-1.7,0.8-2.3s1.2-0.9,1.9-0.9 c0.9,0,1.5,0.3,1.9,0.8s0.7,1.2,0.7,2.1v0.7h-4.1l0,0c0,0.6,0.2,1.1,0.5,1.5s0.7,0.6,1.2,0.6c0.4,0,0.7-0.1,1-0.2s0.5-0.3,0.8-0.5 l0.5,0.8c-0.2,0.2-0.5,0.4-0.9,0.6S447.6,349.7,447.1,349.7z M446.9,344c-0.4,0-0.7,0.2-1,0.5s-0.4,0.7-0.5,1.2l0,0h2.9v-0.2 c0-0.5-0.1-0.8-0.4-1.1S447.4,344,446.9,344z" class="st42"/><path d="M455.5,345.2h-0.9l-0.2-0.8c-0.1-0.1-0.3-0.2-0.5-0.3s-0.5-0.1-0.7-0.1c-0.4,0-0.7,0.1-0.9,0.3 s-0.3,0.4-0.3,0.7c0,0.2,0.1,0.4,0.3,0.6s0.5,0.3,1.1,0.4c0.8,0.2,1.4,0.4,1.8,0.7s0.6,0.7,0.6,1.2c0,0.6-0.2,1-0.7,1.4 s-1,0.5-1.8,0.5c-0.5,0-0.9-0.1-1.3-0.2s-0.7-0.3-1-0.5l0-1.4h0.9l0.2,0.8c0.1,0.1,0.3,0.2,0.5,0.3s0.5,0.1,0.7,0.1 c0.4,0,0.7-0.1,1-0.2s0.3-0.4,0.3-0.7c0-0.3-0.1-0.5-0.3-0.6s-0.6-0.3-1.1-0.4c-0.8-0.2-1.3-0.4-1.7-0.7s-0.6-0.7-0.6-1.2 c0-0.5,0.2-1,0.7-1.3s1-0.5,1.7-0.5c0.5,0,0.9,0.1,1.3,0.2s0.7,0.3,1,0.5L455.5,345.2z" class="st42"/><path d="M461.6,345.2h-0.9l-0.2-0.8c-0.1-0.1-0.3-0.2-0.5-0.3s-0.5-0.1-0.7-0.1c-0.4,0-0.7,0.1-0.9,0.3 s-0.3,0.4-0.3,0.7c0,0.2,0.1,0.4,0.3,0.6s0.5,0.3,1.1,0.4c0.8,0.2,1.4,0.4,1.8,0.7s0.6,0.7,0.6,1.2c0,0.6-0.2,1-0.7,1.4 s-1,0.5-1.8,0.5c-0.5,0-0.9-0.1-1.3-0.2s-0.7-0.3-1-0.5l0-1.4h0.9l0.2,0.8c0.1,0.1,0.3,0.2,0.5,0.3s0.5,0.1,0.7,0.1 c0.4,0,0.7-0.1,1-0.2s0.3-0.4,0.3-0.7c0-0.3-0.1-0.5-0.3-0.6s-0.6-0.3-1.1-0.4c-0.8-0.2-1.3-0.4-1.7-0.7s-0.6-0.7-0.6-1.2 c0-0.5,0.2-1,0.7-1.3s1-0.5,1.7-0.5c0.5,0,0.9,0.1,1.3,0.2s0.7,0.3,1,0.5L461.6,345.2z" class="st42"/><path d="M465.8,349.7c-0.9,0-1.6-0.3-2.1-0.9s-0.8-1.4-0.8-2.3v-0.3c0-0.9,0.3-1.7,0.8-2.3s1.2-0.9,1.9-0.9 c0.9,0,1.5,0.3,1.9,0.8s0.7,1.2,0.7,2.1v0.7h-4.1l0,0c0,0.6,0.2,1.1,0.5,1.5s0.7,0.6,1.2,0.6c0.4,0,0.7-0.1,1-0.2s0.5-0.3,0.8-0.5 l0.5,0.8c-0.2,0.2-0.5,0.4-0.9,0.6S466.3,349.7,465.8,349.7z M465.6,344c-0.4,0-0.7,0.2-1,0.5s-0.4,0.7-0.5,1.2l0,0h2.9v-0.2 c0-0.5-0.1-0.8-0.4-1.1S466.1,344,465.6,344z" class="st42"/><path d="M474.2,345.2h-0.9l-0.2-0.8c-0.1-0.1-0.3-0.2-0.5-0.3s-0.5-0.1-0.7-0.1c-0.4,0-0.7,0.1-0.9,0.3 s-0.3,0.4-0.3,0.7c0,0.2,0.1,0.4,0.3,0.6s0.5,0.3,1.1,0.4c0.8,0.2,1.4,0.4,1.8,0.7s0.6,0.7,0.6,1.2c0,0.6-0.2,1-0.7,1.4 s-1,0.5-1.8,0.5c-0.5,0-0.9-0.1-1.3-0.2s-0.7-0.3-1-0.5l0-1.4h0.9l0.2,0.8c0.1,0.1,0.3,0.2,0.5,0.3s0.5,0.1,0.7,0.1 c0.4,0,0.7-0.1,1-0.2s0.3-0.4,0.3-0.7c0-0.3-0.1-0.5-0.3-0.6s-0.6-0.3-1.1-0.4c-0.8-0.2-1.3-0.4-1.7-0.7s-0.6-0.7-0.6-1.2 c0-0.5,0.2-1,0.7-1.3s1-0.5,1.7-0.5c0.5,0,0.9,0.1,1.3,0.2s0.7,0.3,1,0.5L474.2,345.2z" class="st42"/></g><line x1="385.3" x2="114.1" y1="347.2" y2="347.2" class="st62"/><g><path d="M390.7,283.9c0.4,0,0.7-0.1,1-0.4s0.4-0.5,0.4-0.9h1l0,0c0,0.5-0.2,1-0.7,1.5s-1.1,0.6-1.8,0.6 c-0.9,0-1.6-0.3-2.1-0.9s-0.7-1.4-0.7-2.3v-0.2c0-0.9,0.2-1.7,0.7-2.3s1.2-0.9,2.1-0.9c0.5,0,1,0.1,1.4,0.3s0.7,0.4,1,0.7l0.1,1.4 h-0.9l-0.3-1c-0.1-0.1-0.3-0.2-0.5-0.3s-0.5-0.1-0.7-0.1c-0.6,0-1,0.2-1.3,0.7s-0.4,1-0.4,1.6v0.2c0,0.6,0.1,1.2,0.4,1.6 S390.1,283.9,390.7,283.9z" class="st42"/><path d="M394.3,281.4c0-0.9,0.3-1.7,0.8-2.3s1.2-0.9,2.1-0.9c0.9,0,1.6,0.3,2.1,0.9s0.8,1.4,0.8,2.3v0.1 c0,0.9-0.3,1.7-0.8,2.3s-1.2,0.9-2.1,0.9c-0.9,0-1.6-0.3-2.1-0.9s-0.8-1.4-0.8-2.3V281.4z M395.5,281.5c0,0.7,0.1,1.2,0.4,1.7 s0.7,0.7,1.3,0.7c0.5,0,1-0.2,1.2-0.7s0.4-1,0.4-1.7v-0.1c0-0.7-0.1-1.2-0.4-1.7s-0.7-0.7-1.3-0.7s-1,0.2-1.3,0.7s-0.4,1-0.4,1.7 V281.5z" class="st42"/><path d="M400.9,283.9l1-0.2v-4.5l-1-0.2v-0.7h2l0.1,0.9c0.2-0.3,0.5-0.6,0.8-0.8s0.7-0.3,1.1-0.3 c0.7,0,1.2,0.2,1.6,0.6s0.6,1,0.6,1.9v3.1l1,0.2v0.7h-3.1v-0.7l1-0.2v-3.1c0-0.6-0.1-1-0.3-1.2s-0.6-0.4-1-0.4 c-0.3,0-0.6,0.1-0.9,0.2s-0.5,0.4-0.6,0.7v3.7l1,0.2v0.7h-3.1V283.9z" class="st42"/><path d="M410.8,276.8v1.5h1.2v0.9h-1.2v3.8c0,0.3,0.1,0.5,0.2,0.6s0.3,0.2,0.5,0.2c0.1,0,0.2,0,0.3,0s0.2,0,0.3-0.1 l0.2,0.8c-0.1,0.1-0.3,0.1-0.5,0.2s-0.4,0.1-0.6,0.1c-0.5,0-0.8-0.1-1.1-0.4s-0.4-0.7-0.4-1.3v-3.8h-1v-0.9h1v-1.5H410.8z" class="st42"/><path d="M417.3,284.6c0-0.2-0.1-0.3-0.1-0.5s0-0.3,0-0.4c-0.2,0.3-0.5,0.5-0.8,0.7s-0.7,0.3-1.1,0.3 c-0.7,0-1.2-0.2-1.5-0.5s-0.5-0.8-0.5-1.4c0-0.6,0.2-1.1,0.7-1.4s1.2-0.5,2-0.5h1.2v-0.7c0-0.4-0.1-0.7-0.4-0.9s-0.6-0.3-1-0.3 c-0.3,0-0.5,0-0.8,0.1s-0.4,0.2-0.5,0.3l-0.1,0.7h-0.9v-1.2c0.3-0.2,0.6-0.4,1-0.6s0.9-0.2,1.3-0.2c0.7,0,1.3,0.2,1.7,0.6 s0.7,0.9,0.7,1.6v3.1c0,0.1,0,0.2,0,0.2s0,0.2,0,0.2l0.5,0.1v0.7H417.3z M415.5,283.8c0.4,0,0.7-0.1,1-0.3s0.5-0.4,0.7-0.7v-1 h-1.2c-0.5,0-0.8,0.1-1.1,0.3s-0.4,0.5-0.4,0.8c0,0.3,0.1,0.5,0.3,0.6S415.1,283.8,415.5,283.8z" class="st42"/><path d="M419.8,283.9l1-0.2v-4.5l-1-0.2v-0.7h2.1v5.4l1,0.2v0.7h-3.1V283.9z M421.9,276.7h-1.2v-1.2h1.2V276.7z" class="st42"/><path d="M423.6,283.9l1-0.2v-4.5l-1-0.2v-0.7h2l0.1,0.9c0.2-0.3,0.5-0.6,0.8-0.8s0.7-0.3,1.1-0.3 c0.7,0,1.2,0.2,1.6,0.6s0.6,1,0.6,1.9v3.1l1,0.2v0.7h-3.1v-0.7l1-0.2v-3.1c0-0.6-0.1-1-0.3-1.2s-0.6-0.4-1-0.4 c-0.3,0-0.6,0.1-0.9,0.2s-0.5,0.4-0.6,0.7v3.7l1,0.2v0.7h-3.1V283.9z" class="st42"/><path d="M434.3,284.8c-0.9,0-1.6-0.3-2.1-0.9s-0.8-1.4-0.8-2.3v-0.3c0-0.9,0.3-1.7,0.8-2.3s1.2-0.9,1.9-0.9 c0.9,0,1.5,0.3,1.9,0.8s0.7,1.2,0.7,2.1v0.7h-4.1l0,0c0,0.6,0.2,1.1,0.5,1.5s0.7,0.6,1.2,0.6c0.4,0,0.7-0.1,1-0.2s0.5-0.3,0.8-0.5 l0.5,0.8c-0.2,0.2-0.5,0.4-0.9,0.6S434.8,284.8,434.3,284.8z M434.1,279.1c-0.4,0-0.7,0.2-1,0.5s-0.4,0.7-0.5,1.2l0,0h2.9v-0.2 c0-0.5-0.1-0.8-0.4-1.1S434.6,279.1,434.1,279.1z" class="st42"/><path d="M437.8,279v-0.7h2l0.1,0.9c0.2-0.3,0.4-0.6,0.7-0.8s0.6-0.3,0.9-0.3c0.1,0,0.2,0,0.3,0s0.2,0,0.2,0l-0.2,1.1 l-0.7,0c-0.3,0-0.6,0.1-0.8,0.2s-0.4,0.3-0.5,0.6v3.6l1,0.2v0.7h-3.1v-0.7l1-0.2v-4.5L437.8,279z" class="st42"/><path d="M442.8,283.9l1-0.2v-4.5l-1-0.2v-0.7h2.1v5.4l1,0.2v0.7h-3.1V283.9z M444.9,276.7h-1.2v-1.2h1.2V276.7z" class="st42"/><path d="M448.3,283.7h2.6l0.1-1h1v1.9h-5v-0.8l3.4-4.6H448l-0.1,1h-1v-1.9h4.8v0.8L448.3,283.7z" class="st42"/><path d="M455.9,284.8c-0.9,0-1.6-0.3-2.1-0.9s-0.8-1.4-0.8-2.3v-0.3c0-0.9,0.3-1.7,0.8-2.3s1.2-0.9,1.9-0.9 c0.9,0,1.5,0.3,1.9,0.8s0.7,1.2,0.7,2.1v0.7h-4.1l0,0c0,0.6,0.2,1.1,0.5,1.5s0.7,0.6,1.2,0.6c0.4,0,0.7-0.1,1-0.2s0.5-0.3,0.8-0.5 l0.5,0.8c-0.2,0.2-0.5,0.4-0.9,0.6S456.4,284.8,455.9,284.8z M455.7,279.1c-0.4,0-0.7,0.2-1,0.5s-0.4,0.7-0.5,1.2l0,0h2.9v-0.2 c0-0.5-0.1-0.8-0.4-1.1S456.2,279.1,455.7,279.1z" class="st42"/><path d="M463.7,283.9c-0.2,0.3-0.5,0.5-0.8,0.7s-0.6,0.2-1,0.2c-0.8,0-1.4-0.3-1.8-0.8s-0.7-1.3-0.7-2.2v-0.1 c0-1,0.2-1.8,0.7-2.5s1-0.9,1.8-0.9c0.4,0,0.7,0.1,1,0.2s0.5,0.3,0.7,0.6v-2.6l-1-0.2v-0.7h1h1.2v8.2l1,0.2v0.7h-2L463.7,283.9z M460.6,281.7c0,0.6,0.1,1.1,0.4,1.5s0.7,0.6,1.2,0.6c0.3,0,0.6-0.1,0.9-0.2s0.4-0.4,0.6-0.7V280c-0.1-0.3-0.3-0.5-0.6-0.6 s-0.5-0.2-0.9-0.2c-0.6,0-1,0.2-1.2,0.7s-0.4,1.1-0.4,1.8V281.7z" class="st42"/><path d="M473.8,284.6c0-0.2-0.1-0.3-0.1-0.5s0-0.3,0-0.4c-0.2,0.3-0.5,0.5-0.8,0.7s-0.7,0.3-1.1,0.3 c-0.7,0-1.2-0.2-1.5-0.5s-0.5-0.8-0.5-1.4c0-0.6,0.2-1.1,0.7-1.4s1.2-0.5,2-0.5h1.2v-0.7c0-0.4-0.1-0.7-0.4-0.9s-0.6-0.3-1-0.3 c-0.3,0-0.5,0-0.8,0.1s-0.4,0.2-0.5,0.3l-0.1,0.7H470v-1.2c0.3-0.2,0.6-0.4,1-0.6s0.9-0.2,1.3-0.2c0.7,0,1.3,0.2,1.7,0.6 s0.7,0.9,0.7,1.6v3.1c0,0.1,0,0.2,0,0.2s0,0.2,0,0.2l0.5,0.1v0.7H473.8z M471.9,283.8c0.4,0,0.7-0.1,1-0.3s0.5-0.4,0.7-0.7v-1 h-1.2c-0.5,0-0.8,0.1-1.1,0.3s-0.4,0.5-0.4,0.8c0,0.3,0.1,0.5,0.3,0.6S471.6,283.8,471.9,283.8z" class="st42"/><path d="M476.1,286.3l1-0.2v-7l-1-0.2v-0.7h1.9l0.1,0.8c0.2-0.3,0.5-0.5,0.8-0.7s0.7-0.2,1.1-0.2 c0.8,0,1.4,0.3,1.8,0.9s0.7,1.4,0.7,2.5v0.1c0,0.9-0.2,1.7-0.7,2.2s-1,0.8-1.8,0.8c-0.4,0-0.7-0.1-1-0.2s-0.5-0.3-0.8-0.6v2.2 l1,0.2v0.7h-3.1V286.3z M481.3,281.6c0-0.7-0.1-1.3-0.4-1.8s-0.7-0.7-1.3-0.7c-0.3,0-0.6,0.1-0.8,0.2s-0.4,0.4-0.6,0.6v3.1 c0.1,0.3,0.3,0.5,0.6,0.6s0.5,0.2,0.9,0.2c0.5,0,1-0.2,1.2-0.6s0.4-0.9,0.4-1.6V281.6z" class="st42"/><path d="M483.4,286.3l1-0.2v-7l-1-0.2v-0.7h1.9l0.1,0.8c0.2-0.3,0.5-0.5,0.8-0.7s0.7-0.2,1.1-0.2 c0.8,0,1.4,0.3,1.8,0.9s0.7,1.4,0.7,2.5v0.1c0,0.9-0.2,1.7-0.7,2.2s-1,0.8-1.8,0.8c-0.4,0-0.7-0.1-1-0.2s-0.5-0.3-0.8-0.6v2.2 l1,0.2v0.7h-3.1V286.3z M488.6,281.6c0-0.7-0.1-1.3-0.4-1.8s-0.7-0.7-1.3-0.7c-0.3,0-0.6,0.1-0.8,0.2s-0.4,0.4-0.6,0.6v3.1 c0.1,0.3,0.3,0.5,0.6,0.6s0.5,0.2,0.9,0.2c0.5,0,1-0.2,1.2-0.6s0.4-0.9,0.4-1.6V281.6z" class="st42"/></g><line x1="385.3" x2="261.9" y1="282.2" y2="282.2" class="st62"/><g><path d="M391.7,178.9c0.9,0,1.6,0.2,2.1,0.7s0.8,1.1,0.8,1.9c0,0.8-0.3,1.4-0.8,1.9s-1.2,0.7-2.1,0.7h-1.8v2.5l1,0.2 v0.7h-3.1v-0.7l1-0.2v-6.7l-1-0.2v-0.7h1H391.7z M389.9,183.1h1.8c0.6,0,1-0.2,1.3-0.5s0.4-0.7,0.4-1.2s-0.1-0.9-0.4-1.2 s-0.7-0.5-1.3-0.5h-1.8V183.1z" class="st42"/><path d="M395.4,184.2c0-0.9,0.3-1.7,0.8-2.3s1.2-0.9,2.1-0.9c0.9,0,1.6,0.3,2.1,0.9s0.8,1.4,0.8,2.3v0.1 c0,0.9-0.3,1.7-0.8,2.3s-1.2,0.9-2.1,0.9c-0.9,0-1.6-0.3-2.1-0.9s-0.8-1.4-0.8-2.3V184.2z M396.6,184.3c0,0.7,0.1,1.2,0.4,1.7 s0.7,0.7,1.3,0.7c0.5,0,1-0.2,1.2-0.7s0.4-1,0.4-1.7v-0.1c0-0.7-0.1-1.2-0.4-1.7s-0.7-0.7-1.3-0.7s-1,0.2-1.3,0.7s-0.4,1-0.4,1.7 V184.3z" class="st42"/><path d="M406.4,186.6c-0.2,0.3-0.5,0.5-0.8,0.7s-0.6,0.2-1,0.2c-0.8,0-1.4-0.3-1.8-0.8s-0.7-1.3-0.7-2.2v-0.1 c0-1,0.2-1.8,0.7-2.5s1-0.9,1.8-0.9c0.4,0,0.7,0.1,1,0.2s0.5,0.3,0.7,0.6v-2.6l-1-0.2v-0.7h1h1.2v8.2l1,0.2v0.7h-2L406.4,186.6z M403.3,184.5c0,0.6,0.1,1.1,0.4,1.5s0.7,0.6,1.2,0.6c0.3,0,0.6-0.1,0.9-0.2s0.4-0.4,0.6-0.7v-2.9c-0.1-0.3-0.3-0.5-0.6-0.6 s-0.5-0.2-0.9-0.2c-0.6,0-1,0.2-1.2,0.7s-0.4,1.1-0.4,1.8V184.5z" class="st42"/></g><line x1="385.3" x2="291" y1="185" y2="185" class="st62"/><g><path d="M396.1,59.1v0.7l-1,0.2v7.6H394l-4.1-6.6l0,0v5.7l1,0.2v0.7h-3.1v-0.7l1-0.2V60l-1-0.2v-0.7h1h1.2l4.1,6.6 l0,0V60l-1-0.2v-0.7h2.1H396.1z" class="st42"/><path d="M397,64.4c0-0.9,0.3-1.7,0.8-2.3s1.2-0.9,2.1-0.9c0.9,0,1.6,0.3,2.1,0.9s0.8,1.4,0.8,2.3v0.1 c0,0.9-0.3,1.7-0.8,2.3s-1.2,0.9-2.1,0.9c-0.9,0-1.6-0.3-2.1-0.9s-0.8-1.4-0.8-2.3V64.4z M398.2,64.5c0,0.7,0.1,1.2,0.4,1.7 s0.7,0.7,1.3,0.7c0.5,0,1-0.2,1.2-0.7s0.4-1,0.4-1.7v-0.1c0-0.7-0.1-1.2-0.4-1.7s-0.7-0.7-1.3-0.7s-1,0.2-1.3,0.7s-0.4,1-0.4,1.7 V64.5z" class="st42"/><path d="M408,66.9c-0.2,0.3-0.5,0.5-0.8,0.7s-0.6,0.2-1,0.2c-0.8,0-1.4-0.3-1.8-0.8s-0.7-1.3-0.7-2.2v-0.1 c0-1,0.2-1.8,0.7-2.5s1-0.9,1.8-0.9c0.4,0,0.7,0.1,1,0.2s0.5,0.3,0.7,0.6v-2.6l-1-0.2v-0.7h1h1.2v8.2l1,0.2v0.7h-2L408,66.9z M404.9,64.7c0,0.6,0.1,1.1,0.4,1.5s0.7,0.6,1.2,0.6c0.3,0,0.6-0.1,0.9-0.2s0.4-0.4,0.6-0.7V63c-0.1-0.3-0.3-0.5-0.6-0.6 s-0.5-0.2-0.9-0.2c-0.6,0-1,0.2-1.2,0.7s-0.4,1.1-0.4,1.8V64.7z" class="st42"/><path d="M413.8,67.7c-0.9,0-1.6-0.3-2.1-0.9s-0.8-1.4-0.8-2.3v-0.3c0-0.9,0.3-1.7,0.8-2.3s1.2-0.9,1.9-0.9 c0.9,0,1.5,0.3,1.9,0.8s0.7,1.2,0.7,2.1v0.7h-4.1l0,0c0,0.6,0.2,1.1,0.5,1.5s0.7,0.6,1.2,0.6c0.4,0,0.7-0.1,1-0.2s0.5-0.3,0.8-0.5 l0.5,0.8c-0.2,0.2-0.5,0.4-0.9,0.6S414.3,67.7,413.8,67.7z M413.6,62.1c-0.4,0-0.7,0.2-1,0.5s-0.4,0.7-0.5,1.2l0,0h2.9v-0.2 c0-0.5-0.1-0.8-0.4-1.1S414.1,62.1,413.6,62.1z" class="st42"/></g><line x1="385.3" x2="200.7" y1="65.2" y2="65.2" class="st62"/></g></svg>