<svg id="Layer_1" data-name="Layer 1" xmlns="http://www.w3.org/2000/svg" viewBox="0 0 102 60"><defs><style>.cls-1{fill:#fff;}.cls-2{fill:#0071f7;}</style></defs><title>box_small</title><rect class="cls-1" x="-3.23913" y="-2.86792" width="108.55792" height="66.1394"/><path class="cls-2" d="M20.47806,25.79186H17.72415v7.64356h-1.124V25.79186h-2.748V24.868h6.626Z"/><path class="cls-2" d="M23.63822,33.55358a2.78435,2.78435,0,0,1-2.10694-.85058,3.15664,3.15664,0,0,1-.812-2.27442v-.20019a3.82,3.82,0,0,1,.36182-1.69141,2.82158,2.82158,0,0,1,1.0122-1.165,2.543,2.543,0,0,1,1.40918-.4209,2.38443,2.38443,0,0,1,1.93018.81788,3.5423,3.5423,0,0,1,.68848,2.34228v.45313H21.80765a2.26338,2.26338,0,0,0,.55029,1.5205,1.72889,1.72889,0,0,0,1.33887.58008,1.90479,1.90479,0,0,0,.97705-.23535,2.46561,2.46561,0,0,0,.7002-.624l.665.51757A2.67364,2.67364,0,0,1,23.63822,33.55358Zm-.13575-5.708a1.45036,1.45036,0,0,0-1.10595.47949,2.32859,2.32859,0,0,0-.55323,1.34472h3.18946v-.08252a2.07646,2.07646,0,0,0-.44727-1.28564A1.36758,1.36758,0,0,0,23.50247,27.84558Z"/><path class="cls-2" d="M28.56351,33.43542H27.47464V24.39684h1.08887Z"/><path class="cls-2" d="M31.48831,33.43542H30.39945V24.39684h1.08886Z"/><path class="cls-2" d="M38.29691,31.84069l1.48291-4.772h1.165L38.3848,34.41784q-.594,1.58935-1.88867,1.58887l-.20606-.01758-.40625-.07617v-.88281l.29444.02343a1.44737,1.44737,0,0,0,.8623-.22363,1.62292,1.62292,0,0,0,.50879-.81738l.24121-.64746-2.27148-6.29639h1.189Z"/><path class="cls-2" d="M41.53958,30.19323a3.76025,3.76025,0,0,1,.36768-1.68262,2.7438,2.7438,0,0,1,1.02392-1.1538,2.78854,2.78854,0,0,1,1.49756-.40577,2.68613,2.68613,0,0,1,2.104.90039A3.46464,3.46464,0,0,1,47.336,30.246v.07714a3.79424,3.79424,0,0,1-.356,1.668A2.70545,2.70545,0,0,1,45.962,33.14147a2.82237,2.82237,0,0,1-1.52149.41211,2.68068,2.68068,0,0,1-2.09765-.90039,3.44653,3.44653,0,0,1-.80323-2.38379Zm1.09424.12988a2.72264,2.72264,0,0,0,.4917,1.7002,1.6648,1.6648,0,0,0,2.6333-.00879,2.9792,2.9792,0,0,0,.48828-1.82129A2.71924,2.71924,0,0,0,45.75,28.49548a1.58177,1.58177,0,0,0-1.32129-.6499,1.56345,1.56345,0,0,0-1.30029.64111A2.95775,2.95775,0,0,0,42.63382,30.32311Z"/><path class="cls-2" d="M52.63187,32.80554a2.31434,2.31434,0,0,1-1.86572.748,1.97784,1.97784,0,0,1-1.5503-.59179,2.56034,2.56034,0,0,1-.53857-1.751V27.06872h1.08887v4.11279q0,1.44728,1.17675,1.44727a1.63024,1.63024,0,0,0,1.65967-.92969V27.06872h1.08789v6.3667H52.65531Z"/><path class="cls-2" d="M58.42191,28.04577a3.20119,3.20119,0,0,0-.53516-.0415,1.436,1.436,0,0,0-1.45312.91211v4.519H55.34476v-6.3667h1.05957l.01758.73535a1.6963,1.6963,0,0,1,1.51758-.853,1.10313,1.10313,0,0,1,.48242.08252Z"/><path class="cls-2" d="M66.11331,31.74694a.80006.80006,0,0,0-.333-.68554,3.18044,3.18044,0,0,0-1.15918-.4209,5.48229,5.48229,0,0,1-1.31153-.42383,1.86174,1.86174,0,0,1-.71875-.58838,1.41106,1.41106,0,0,1-.23242-.812,1.65128,1.65128,0,0,1,.66211-1.32373,2.58763,2.58763,0,0,1,1.69238-.54151,2.66416,2.66416,0,0,1,1.75684.55909,1.77684,1.77684,0,0,1,.67285,1.42968H66.04886a.98327.98327,0,0,0-.37988-.7705,1.42245,1.42245,0,0,0-.95606-.32373,1.48925,1.48925,0,0,0-.92968.25878.81608.81608,0,0,0-.33594.67676.66058.66058,0,0,0,.3125.59424,3.82093,3.82093,0,0,0,1.127.38281,5.874,5.874,0,0,1,1.32031.43506,1.93114,1.93114,0,0,1,.751.60938,1.501,1.501,0,0,1,.24414.86718,1.62827,1.62827,0,0,1-.68262,1.36817,2.86146,2.86146,0,0,1-1.77148.51562,3.20514,3.20514,0,0,1-1.35352-.27148,2.19632,2.19632,0,0,1-.92089-.75586,1.82236,1.82236,0,0,1-.333-1.05078h1.08886a1.12739,1.12739,0,0,0,.43848.86816,1.70084,1.70084,0,0,0,1.08008.32129,1.75949,1.75949,0,0,0,.99121-.25A.76968.76968,0,0,0,66.11331,31.74694Z"/><path class="cls-2" d="M70.09769,25.52673v1.542h1.18848V27.91H70.09769v3.95312a.87767.87767,0,0,0,.15918.57422.66645.66645,0,0,0,.541.19141,2.6407,2.6407,0,0,0,.51758-.07031v.87793a3.16387,3.16387,0,0,1-.835.11718,1.35713,1.35713,0,0,1-1.10058-.4414,1.89985,1.89985,0,0,1-.3711-1.25391V27.91H67.84964v-.84131h1.15918v-1.542Z"/><path class="cls-2" d="M72.1514,30.19323a3.76057,3.76057,0,0,1,.36816-1.68262,2.74277,2.74277,0,0,1,1.02344-1.1538,2.79142,2.79142,0,0,1,1.498-.40577,2.68437,2.68437,0,0,1,2.10351.90039,3.46014,3.46014,0,0,1,.80371,2.39454v.07714a3.79454,3.79454,0,0,1-.35644,1.668,2.70122,2.70122,0,0,1-1.01758,1.15039,2.82117,2.82117,0,0,1-1.52148.41211,2.67931,2.67931,0,0,1-2.09766-.90039,3.44911,3.44911,0,0,1-.80371-2.38379Zm1.09473.12988a2.72559,2.72559,0,0,0,.49121,1.7002,1.6653,1.6653,0,0,0,2.63379-.00879,2.98255,2.98255,0,0,0,.48828-1.82129,2.72236,2.72236,0,0,0-.49707-1.69775,1.583,1.583,0,0,0-1.32129-.6499,1.56558,1.56558,0,0,0-1.30078.64111A2.961,2.961,0,0,0,73.24613,30.32311Z"/><path class="cls-2" d="M82.39066,28.04577a3.21793,3.21793,0,0,0-.53516-.0415,1.43641,1.43641,0,0,0-1.4541.91211v4.519H79.31351v-6.3667H80.3721l.01758.73535a1.69675,1.69675,0,0,1,1.51856-.853,1.10607,1.10607,0,0,1,.48242.08252Z"/><path class="cls-2" d="M85.58011,31.84069l1.48242-4.772h1.165L85.668,34.41784q-.59472,1.58935-1.88867,1.58887l-.20606-.01758L83.167,35.913v-.88281l.294.02343a1.44635,1.44635,0,0,0,.8623-.22363,1.62352,1.62352,0,0,0,.50977-.81738l.24121-.64746-2.27148-6.29639h1.18847Z"/></svg>