<?xml version="1.0" encoding="UTF-8" standalone="no"?>
<svg
   width="1200"
   height="500"
   viewBox="0 0 1200 500"
   fill="none"
   version="1.1"
   id="svg1294"
   sodipodi:docname="kubevirt-migration.svg"
   inkscape:version="1.1.1 (c3084ef, 2021-09-22)"
   xmlns:inkscape="http://www.inkscape.org/namespaces/inkscape"
   xmlns:sodipodi="http://sodipodi.sourceforge.net/DTD/sodipodi-0.dtd"
   xmlns="http://www.w3.org/2000/svg"
   xmlns:svg="http://www.w3.org/2000/svg">
  <sodipodi:namedview
     id="namedview1296"
     pagecolor="#ffffff"
     bordercolor="#666666"
     borderopacity="1.0"
     inkscape:pageshadow="2"
     inkscape:pageopacity="0.0"
     inkscape:pagecheckerboard="0"
     showgrid="false"
     inkscape:zoom="0.45935786"
     inkscape:cx="275.38442"
     inkscape:cy="325.45432"
     inkscape:window-width="1680"
     inkscape:window-height="997"
     inkscape:window-x="0"
     inkscape:window-y="25"
     inkscape:window-maximized="0"
     inkscape:current-layer="svg1294" />
  <rect
     width="1200"
     height="500"
     fill="#ffffff"
     id="rect1251"
     x="0"
     y="0"
     style="stroke-width:1.1239" />
  <rect
     x="181"
     y="101"
     width="298"
     height="298"
     rx="9"
     fill="#ffffff"
     stroke="url(#paint0_linear_447_4031)"
     stroke-width="2"
     id="rect1253"
     style="stroke:url(#paint0_linear_447_4031)" />
  <path
     d="m 216.781,158 -5.88,-13.636 h 2.744 l 4.732,11.648 h -0.784 l 4.816,-11.648 h 2.632 L 219.105,158 Z m 10.516,0 v -13.636 h 2.492 v 2.968 h -0.308 c 0.243,-0.691 0.579,-1.269 1.008,-1.736 0.43,-0.485 0.943,-0.849 1.54,-1.092 0.616,-0.261 1.288,-0.392 2.016,-0.392 1.158,0 2.091,0.28 2.8,0.84 0.71,0.541 1.186,1.372 1.428,2.492 h -0.392 c 0.336,-1.027 0.934,-1.839 1.792,-2.436 0.878,-0.597 1.895,-0.896 3.052,-0.896 1.027,0 1.867,0.205 2.52,0.616 0.672,0.392 1.176,0.989 1.512,1.792 0.336,0.784 0.504,1.792 0.504,3.024 V 158 h -2.548 v -8.344 c 0,-1.195 -0.205,-2.072 -0.616,-2.632 -0.41,-0.56 -1.101,-0.84 -2.072,-0.84 -0.709,0 -1.325,0.168 -1.848,0.504 -0.522,0.336 -0.924,0.812 -1.204,1.428 -0.28,0.616 -0.42,1.353 -0.42,2.212 V 158 h -2.548 v -8.344 c 0,-1.195 -0.205,-2.072 -0.616,-2.632 -0.41,-0.56 -1.101,-0.84 -2.072,-0.84 -0.709,0 -1.325,0.168 -1.848,0.504 -0.522,0.336 -0.924,0.812 -1.204,1.428 -0.28,0.616 -0.42,1.353 -0.42,2.212 V 158 Z m 25.405,0 v -2.212 h 4.48 v -15.316 h 1.344 l -4.872,3.052 -1.064,-1.932 5.32,-3.332 h 1.876 v 17.528 h 4.2 V 158 Z m 15.39,-6.412 v -2.1 h 7.952 v 2.1 z m 18.323,6.664 c -1.381,0 -2.576,-0.289 -3.584,-0.868 -1.008,-0.597 -1.783,-1.428 -2.324,-2.492 -0.541,-1.083 -0.812,-2.352 -0.812,-3.808 0,-1.437 0.271,-2.679 0.812,-3.724 0.541,-1.045 1.316,-1.848 2.324,-2.408 1.008,-0.56 2.203,-0.84 3.584,-0.84 0.859,0 1.699,0.149 2.52,0.448 0.84,0.299 1.531,0.719 2.072,1.26 l -0.84,1.792 c -0.541,-0.485 -1.129,-0.849 -1.764,-1.092 -0.635,-0.243 -1.241,-0.364 -1.82,-0.364 -1.363,0 -2.417,0.429 -3.164,1.288 -0.747,0.859 -1.12,2.081 -1.12,3.668 0,1.587 0.373,2.837 1.12,3.752 0.747,0.896 1.801,1.344 3.164,1.344 0.579,0 1.185,-0.121 1.82,-0.364 0.635,-0.243 1.223,-0.616 1.764,-1.12 l 0.84,1.82 c -0.541,0.541 -1.241,0.961 -2.1,1.26 -0.84,0.299 -1.671,0.448 -2.492,0.448 z m 12.63,0 c -1.344,0 -2.511,-0.289 -3.5,-0.868 -0.989,-0.579 -1.755,-1.4 -2.296,-2.464 -0.541,-1.064 -0.812,-2.315 -0.812,-3.752 0,-1.437 0.271,-2.679 0.812,-3.724 0.541,-1.064 1.307,-1.885 2.296,-2.464 0.989,-0.579 2.156,-0.868 3.5,-0.868 1.344,0 2.511,0.289 3.5,0.868 0.989,0.579 1.755,1.4 2.296,2.464 0.541,1.045 0.812,2.287 0.812,3.724 0,1.437 -0.271,2.688 -0.812,3.752 -0.541,1.064 -1.307,1.885 -2.296,2.464 -0.989,0.579 -2.156,0.868 -3.5,0.868 z m 0,-2.016 c 1.232,0 2.212,-0.429 2.94,-1.288 0.728,-0.877 1.092,-2.137 1.092,-3.78 0,-1.643 -0.364,-2.893 -1.092,-3.752 -0.728,-0.859 -1.708,-1.288 -2.94,-1.288 -1.213,0 -2.193,0.429 -2.94,1.288 -0.728,0.859 -1.092,2.109 -1.092,3.752 0,1.643 0.364,2.903 1.092,3.78 0.747,0.859 1.727,1.288 2.94,1.288 z m 9.872,1.764 v -13.636 h 2.492 v 2.968 h -0.308 c 0.392,-1.064 1.027,-1.867 1.904,-2.408 0.896,-0.541 1.913,-0.812 3.052,-0.812 1.101,0 2.007,0.196 2.716,0.588 0.709,0.392 1.241,0.999 1.596,1.82 0.355,0.803 0.532,1.811 0.532,3.024 V 158 h -2.548 v -8.316 c 0,-0.803 -0.103,-1.465 -0.308,-1.988 -0.205,-0.523 -0.532,-0.905 -0.98,-1.148 -0.429,-0.243 -0.98,-0.364 -1.652,-0.364 -0.784,0 -1.475,0.168 -2.072,0.504 -0.597,0.336 -1.064,0.812 -1.4,1.428 -0.317,0.616 -0.476,1.335 -0.476,2.156 V 158 Z m 21.679,0.252 c -1.661,0 -2.902,-0.429 -3.724,-1.288 -0.821,-0.877 -1.232,-2.128 -1.232,-3.752 v -6.888 h -2.66 v -1.96 h 2.66 v -4.144 h 2.548 v 4.144 h 4.284 v 1.96 h -4.284 v 6.664 c 0,1.027 0.215,1.801 0.644,2.324 0.43,0.523 1.139,0.784 2.128,0.784 0.299,0 0.588,-0.028 0.868,-0.084 0.299,-0.075 0.579,-0.149 0.84,-0.224 l 0.42,1.904 c -0.261,0.168 -0.634,0.299 -1.12,0.392 -0.466,0.112 -0.924,0.168 -1.372,0.168 z m 8.72,0 c -0.934,0 -1.783,-0.187 -2.548,-0.56 -0.747,-0.373 -1.335,-0.877 -1.764,-1.512 -0.411,-0.635 -0.616,-1.344 -0.616,-2.128 0,-1.008 0.252,-1.801 0.756,-2.38 0.504,-0.579 1.353,-0.989 2.548,-1.232 1.194,-0.261 2.8,-0.392 4.816,-0.392 h 1.316 v 1.624 h -1.26 c -1.083,0 -1.988,0.037 -2.716,0.112 -0.728,0.075 -1.307,0.196 -1.736,0.364 -0.43,0.168 -0.738,0.401 -0.924,0.7 -0.187,0.28 -0.28,0.635 -0.28,1.064 0,0.728 0.252,1.325 0.756,1.792 0.522,0.467 1.232,0.7 2.128,0.7 0.709,0 1.334,-0.168 1.876,-0.504 0.541,-0.355 0.97,-0.821 1.288,-1.4 0.317,-0.597 0.476,-1.279 0.476,-2.044 v -3.22 c 0,-1.101 -0.224,-1.895 -0.672,-2.38 -0.448,-0.504 -1.204,-0.756 -2.268,-0.756 -0.784,0 -1.568,0.121 -2.352,0.364 -0.766,0.243 -1.559,0.616 -2.38,1.12 l -0.812,-1.82 c 0.485,-0.336 1.036,-0.625 1.652,-0.868 0.634,-0.261 1.288,-0.457 1.96,-0.588 0.69,-0.131 1.353,-0.196 1.988,-0.196 1.213,0 2.212,0.196 2.996,0.588 0.784,0.373 1.372,0.961 1.764,1.764 0.392,0.784 0.588,1.792 0.588,3.024 V 158 h -2.408 v -3.108 h 0.252 c -0.15,0.691 -0.43,1.288 -0.84,1.792 -0.411,0.504 -0.924,0.896 -1.54,1.176 -0.598,0.261 -1.279,0.392 -2.044,0.392 z m 10.337,-17.164 v -2.744 h 3.052 v 2.744 z M 349.905,158 v -13.636 h 2.548 V 158 Z m 6.645,0 v -13.636 h 2.492 v 2.968 h -0.308 c 0.392,-1.064 1.027,-1.867 1.904,-2.408 0.896,-0.541 1.913,-0.812 3.052,-0.812 1.101,0 2.007,0.196 2.716,0.588 0.709,0.392 1.241,0.999 1.596,1.82 0.355,0.803 0.532,1.811 0.532,3.024 V 158 h -2.548 v -8.316 c 0,-0.803 -0.103,-1.465 -0.308,-1.988 -0.205,-0.523 -0.532,-0.905 -0.98,-1.148 -0.429,-0.243 -0.98,-0.364 -1.652,-0.364 -0.784,0 -1.475,0.168 -2.072,0.504 -0.597,0.336 -1.064,0.812 -1.4,1.428 -0.317,0.616 -0.476,1.335 -0.476,2.156 V 158 Z m 22.323,0.252 c -1.474,0 -2.744,-0.28 -3.808,-0.84 -1.045,-0.579 -1.857,-1.391 -2.436,-2.436 -0.578,-1.064 -0.868,-2.315 -0.868,-3.752 0,-1.419 0.28,-2.66 0.84,-3.724 0.579,-1.064 1.363,-1.895 2.352,-2.492 1.008,-0.597 2.156,-0.896 3.444,-0.896 1.251,0 2.315,0.271 3.192,0.812 0.896,0.541 1.578,1.316 2.044,2.324 0.486,0.989 0.728,2.184 0.728,3.584 v 0.924 h -10.612 v -1.624 h 8.932 l -0.476,0.392 c 0,-1.456 -0.317,-2.576 -0.952,-3.36 -0.634,-0.803 -1.568,-1.204 -2.8,-1.204 -0.896,0 -1.661,0.215 -2.296,0.644 -0.634,0.411 -1.12,0.999 -1.456,1.764 -0.336,0.747 -0.504,1.615 -0.504,2.604 v 0.168 c 0,1.12 0.178,2.063 0.532,2.828 0.374,0.747 0.906,1.316 1.596,1.708 0.691,0.373 1.54,0.56 2.548,0.56 0.803,0 1.578,-0.121 2.324,-0.364 0.766,-0.261 1.484,-0.663 2.156,-1.204 l 0.784,1.764 c -0.616,0.56 -1.409,1.008 -2.38,1.344 -0.952,0.317 -1.913,0.476 -2.884,0.476 z M 387.53,158 v -13.636 h 2.492 v 3.248 h -0.28 c 0.299,-1.12 0.84,-1.96 1.624,-2.52 0.784,-0.579 1.82,-0.915 3.108,-1.008 l 0.868,-0.084 0.196,2.212 -1.596,0.14 c -1.232,0.131 -2.184,0.532 -2.856,1.204 -0.653,0.672 -0.98,1.596 -0.98,2.772 V 158 Z m 9.542,-6.412 v -2.1 h 7.952 v 2.1 z m 16.345,6.664 c -0.933,0 -1.782,-0.187 -2.548,-0.56 -0.746,-0.373 -1.334,-0.877 -1.764,-1.512 -0.41,-0.635 -0.616,-1.344 -0.616,-2.128 0,-1.008 0.252,-1.801 0.756,-2.38 0.504,-0.579 1.354,-0.989 2.548,-1.232 1.195,-0.261 2.8,-0.392 4.816,-0.392 h 1.316 v 1.624 h -1.26 c -1.082,0 -1.988,0.037 -2.716,0.112 -0.728,0.075 -1.306,0.196 -1.736,0.364 -0.429,0.168 -0.737,0.401 -0.924,0.7 -0.186,0.28 -0.28,0.635 -0.28,1.064 0,0.728 0.252,1.325 0.756,1.792 0.523,0.467 1.232,0.7 2.128,0.7 0.71,0 1.335,-0.168 1.876,-0.504 0.542,-0.355 0.971,-0.821 1.288,-1.4 0.318,-0.597 0.476,-1.279 0.476,-2.044 v -3.22 c 0,-1.101 -0.224,-1.895 -0.672,-2.38 -0.448,-0.504 -1.204,-0.756 -2.268,-0.756 -0.784,0 -1.568,0.121 -2.352,0.364 -0.765,0.243 -1.558,0.616 -2.38,1.12 l -0.812,-1.82 c 0.486,-0.336 1.036,-0.625 1.652,-0.868 0.635,-0.261 1.288,-0.457 1.96,-0.588 0.691,-0.131 1.354,-0.196 1.988,-0.196 1.214,0 2.212,0.196 2.996,0.588 0.784,0.373 1.372,0.961 1.764,1.764 0.392,0.784 0.588,1.792 0.588,3.024 V 158 h -2.408 v -3.108 h 0.252 c -0.149,0.691 -0.429,1.288 -0.84,1.792 -0.41,0.504 -0.924,0.896 -1.54,1.176 -0.597,0.261 -1.278,0.392 -2.044,0.392 z"
     fill="#000000"
     id="path1255" />
  <rect
     width="150"
     height="130"
     rx="10"
     transform="scale(-1,1)"
     fill="url(#paint1_radial_447_4031)"
     id="rect1257"
     x="-405"
     y="185"
     style="fill:url(#paint1_radial_447_4031)" />
  <rect
     width="150"
     height="130"
     rx="10"
     transform="scale(-1,1)"
     fill="#000000"
     fill-opacity="0.08"
     id="rect1259"
     x="-405"
     y="185" />
  <path
     d="m 312.09,257 -4.83,-11.224 h 2.507 l 3.749,9.315 h -0.644 l 3.841,-9.315 h 2.369 L 314.183,257 Z m 8.707,0 v -11.224 h 2.254 v 2.392 h -0.253 c 0.199,-0.552 0.475,-1.02 0.828,-1.403 0.352,-0.383 0.774,-0.675 1.265,-0.874 0.506,-0.215 1.058,-0.322 1.656,-0.322 0.935,0 1.694,0.222 2.277,0.667 0.582,0.445 0.981,1.127 1.196,2.047 h -0.322 c 0.291,-0.843 0.789,-1.503 1.495,-1.978 0.705,-0.491 1.525,-0.736 2.461,-0.736 0.858,0 1.564,0.169 2.116,0.506 0.552,0.322 0.966,0.82 1.242,1.495 0.276,0.659 0.414,1.495 0.414,2.507 V 257 h -2.323 v -6.808 c 0,-0.951 -0.169,-1.648 -0.506,-2.093 -0.322,-0.445 -0.859,-0.667 -1.61,-0.667 -0.552,0 -1.035,0.13 -1.449,0.391 -0.414,0.261 -0.736,0.644 -0.966,1.15 -0.215,0.491 -0.322,1.073 -0.322,1.748 V 257 h -2.323 v -6.808 c 0,-0.951 -0.161,-1.648 -0.483,-2.093 -0.322,-0.445 -0.859,-0.667 -1.61,-0.667 -0.568,0 -1.058,0.13 -1.472,0.391 -0.399,0.261 -0.706,0.644 -0.92,1.15 -0.215,0.491 -0.322,1.073 -0.322,1.748 V 257 Z m 20.935,0 v -2.001 h 3.68 v -12.19 h 1.196 l -4.071,2.53 -0.966,-1.771 4.531,-2.783 h 1.679 v 14.214 h 3.45 V 257 Z"
     fill="#ffffff"
     id="path1261" />
  <rect
     x="691"
     y="101"
     width="298"
     height="298"
     rx="9"
     fill="#ffffff"
     stroke="url(#paint2_linear_447_4031)"
     stroke-width="2"
     id="rect1263"
     style="stroke:url(#paint2_linear_447_4031)" />
  <path
     d="m 726.195,158 -5.88,-13.636 h 2.744 l 4.732,11.648 h -0.784 l 4.816,-11.648 h 2.632 L 728.519,158 Z m 10.516,0 v -13.636 h 2.492 v 2.968 h -0.308 c 0.243,-0.691 0.579,-1.269 1.008,-1.736 0.43,-0.485 0.943,-0.849 1.54,-1.092 0.616,-0.261 1.288,-0.392 2.016,-0.392 1.158,0 2.091,0.28 2.8,0.84 0.71,0.541 1.186,1.372 1.428,2.492 h -0.392 c 0.336,-1.027 0.934,-1.839 1.792,-2.436 0.878,-0.597 1.895,-0.896 3.052,-0.896 1.027,0 1.867,0.205 2.52,0.616 0.672,0.392 1.176,0.989 1.512,1.792 0.336,0.784 0.504,1.792 0.504,3.024 V 158 h -2.548 v -8.344 c 0,-1.195 -0.205,-2.072 -0.616,-2.632 -0.41,-0.56 -1.101,-0.84 -2.072,-0.84 -0.709,0 -1.325,0.168 -1.848,0.504 -0.522,0.336 -0.924,0.812 -1.204,1.428 -0.28,0.616 -0.42,1.353 -0.42,2.212 V 158 h -2.548 v -8.344 c 0,-1.195 -0.205,-2.072 -0.616,-2.632 -0.41,-0.56 -1.101,-0.84 -2.072,-0.84 -0.709,0 -1.325,0.168 -1.848,0.504 -0.522,0.336 -0.924,0.812 -1.204,1.428 -0.28,0.616 -0.42,1.353 -0.42,2.212 V 158 Z m 25.406,0 v -2.212 h 4.48 v -15.316 h 1.344 l -4.872,3.052 -1.064,-1.932 5.32,-3.332 h 1.876 v 17.528 h 4.2 V 158 Z m 15.389,-6.412 v -2.1 h 7.952 v 2.1 z m 18.323,6.664 c -1.381,0 -2.576,-0.289 -3.584,-0.868 -1.008,-0.597 -1.783,-1.428 -2.324,-2.492 -0.541,-1.083 -0.812,-2.352 -0.812,-3.808 0,-1.437 0.271,-2.679 0.812,-3.724 0.541,-1.045 1.316,-1.848 2.324,-2.408 1.008,-0.56 2.203,-0.84 3.584,-0.84 0.859,0 1.699,0.149 2.52,0.448 0.84,0.299 1.531,0.719 2.072,1.26 l -0.84,1.792 c -0.541,-0.485 -1.129,-0.849 -1.764,-1.092 -0.635,-0.243 -1.241,-0.364 -1.82,-0.364 -1.363,0 -2.417,0.429 -3.164,1.288 -0.747,0.859 -1.12,2.081 -1.12,3.668 0,1.587 0.373,2.837 1.12,3.752 0.747,0.896 1.801,1.344 3.164,1.344 0.579,0 1.185,-0.121 1.82,-0.364 0.635,-0.243 1.223,-0.616 1.764,-1.12 l 0.84,1.82 c -0.541,0.541 -1.241,0.961 -2.1,1.26 -0.84,0.299 -1.671,0.448 -2.492,0.448 z m 12.63,0 c -1.344,0 -2.511,-0.289 -3.5,-0.868 -0.989,-0.579 -1.755,-1.4 -2.296,-2.464 -0.541,-1.064 -0.812,-2.315 -0.812,-3.752 0,-1.437 0.271,-2.679 0.812,-3.724 0.541,-1.064 1.307,-1.885 2.296,-2.464 0.989,-0.579 2.156,-0.868 3.5,-0.868 1.344,0 2.511,0.289 3.5,0.868 0.989,0.579 1.755,1.4 2.296,2.464 0.541,1.045 0.812,2.287 0.812,3.724 0,1.437 -0.271,2.688 -0.812,3.752 -0.541,1.064 -1.307,1.885 -2.296,2.464 -0.989,0.579 -2.156,0.868 -3.5,0.868 z m 0,-2.016 c 1.232,0 2.212,-0.429 2.94,-1.288 0.728,-0.877 1.092,-2.137 1.092,-3.78 0,-1.643 -0.364,-2.893 -1.092,-3.752 -0.728,-0.859 -1.708,-1.288 -2.94,-1.288 -1.213,0 -2.193,0.429 -2.94,1.288 -0.728,0.859 -1.092,2.109 -1.092,3.752 0,1.643 0.364,2.903 1.092,3.78 0.747,0.859 1.727,1.288 2.94,1.288 z m 9.872,1.764 v -13.636 h 2.492 v 2.968 h -0.308 c 0.392,-1.064 1.027,-1.867 1.904,-2.408 0.896,-0.541 1.913,-0.812 3.052,-0.812 1.101,0 2.007,0.196 2.716,0.588 0.709,0.392 1.241,0.999 1.596,1.82 0.355,0.803 0.532,1.811 0.532,3.024 V 158 h -2.548 v -8.316 c 0,-0.803 -0.103,-1.465 -0.308,-1.988 -0.205,-0.523 -0.532,-0.905 -0.98,-1.148 -0.429,-0.243 -0.98,-0.364 -1.652,-0.364 -0.784,0 -1.475,0.168 -2.072,0.504 -0.597,0.336 -1.064,0.812 -1.4,1.428 -0.317,0.616 -0.476,1.335 -0.476,2.156 V 158 Z m 21.68,0.252 c -1.662,0 -2.903,-0.429 -3.724,-1.288 -0.822,-0.877 -1.232,-2.128 -1.232,-3.752 v -6.888 h -2.66 v -1.96 h 2.66 v -4.144 h 2.548 v 4.144 h 4.284 v 1.96 h -4.284 v 6.664 c 0,1.027 0.214,1.801 0.644,2.324 0.429,0.523 1.138,0.784 2.128,0.784 0.298,0 0.588,-0.028 0.868,-0.084 0.298,-0.075 0.578,-0.149 0.84,-0.224 l 0.42,1.904 c -0.262,0.168 -0.635,0.299 -1.12,0.392 -0.467,0.112 -0.924,0.168 -1.372,0.168 z m 8.719,0 c -0.934,0 -1.783,-0.187 -2.548,-0.56 -0.747,-0.373 -1.335,-0.877 -1.764,-1.512 -0.411,-0.635 -0.616,-1.344 -0.616,-2.128 0,-1.008 0.252,-1.801 0.756,-2.38 0.504,-0.579 1.353,-0.989 2.548,-1.232 1.194,-0.261 2.8,-0.392 4.816,-0.392 h 1.316 v 1.624 h -1.26 c -1.083,0 -1.988,0.037 -2.716,0.112 -0.728,0.075 -1.307,0.196 -1.736,0.364 -0.43,0.168 -0.738,0.401 -0.924,0.7 -0.187,0.28 -0.28,0.635 -0.28,1.064 0,0.728 0.252,1.325 0.756,1.792 0.522,0.467 1.232,0.7 2.128,0.7 0.709,0 1.334,-0.168 1.876,-0.504 0.541,-0.355 0.97,-0.821 1.288,-1.4 0.317,-0.597 0.476,-1.279 0.476,-2.044 v -3.22 c 0,-1.101 -0.224,-1.895 -0.672,-2.38 -0.448,-0.504 -1.204,-0.756 -2.268,-0.756 -0.784,0 -1.568,0.121 -2.352,0.364 -0.766,0.243 -1.559,0.616 -2.38,1.12 l -0.812,-1.82 c 0.485,-0.336 1.036,-0.625 1.652,-0.868 0.634,-0.261 1.288,-0.457 1.96,-0.588 0.69,-0.131 1.353,-0.196 1.988,-0.196 1.213,0 2.212,0.196 2.996,0.588 0.784,0.373 1.372,0.961 1.764,1.764 0.392,0.784 0.588,1.792 0.588,3.024 V 158 h -2.408 v -3.108 h 0.252 c -0.15,0.691 -0.43,1.288 -0.84,1.792 -0.411,0.504 -0.924,0.896 -1.54,1.176 -0.598,0.261 -1.279,0.392 -2.044,0.392 z m 10.337,-17.164 v -2.744 h 3.052 v 2.744 z M 859.319,158 v -13.636 h 2.548 V 158 Z m 6.645,0 v -13.636 h 2.492 v 2.968 h -0.308 c 0.392,-1.064 1.027,-1.867 1.904,-2.408 0.896,-0.541 1.913,-0.812 3.052,-0.812 1.101,0 2.007,0.196 2.716,0.588 0.709,0.392 1.241,0.999 1.596,1.82 0.355,0.803 0.532,1.811 0.532,3.024 V 158 H 875.4 v -8.316 c 0,-0.803 -0.103,-1.465 -0.308,-1.988 -0.205,-0.523 -0.532,-0.905 -0.98,-1.148 -0.429,-0.243 -0.98,-0.364 -1.652,-0.364 -0.784,0 -1.475,0.168 -2.072,0.504 -0.597,0.336 -1.064,0.812 -1.4,1.428 -0.317,0.616 -0.476,1.335 -0.476,2.156 V 158 Z m 22.323,0.252 c -1.474,0 -2.744,-0.28 -3.808,-0.84 -1.045,-0.579 -1.857,-1.391 -2.436,-2.436 -0.578,-1.064 -0.868,-2.315 -0.868,-3.752 0,-1.419 0.28,-2.66 0.84,-3.724 0.579,-1.064 1.363,-1.895 2.352,-2.492 1.008,-0.597 2.156,-0.896 3.444,-0.896 1.251,0 2.315,0.271 3.192,0.812 0.896,0.541 1.578,1.316 2.044,2.324 0.486,0.989 0.728,2.184 0.728,3.584 v 0.924 h -10.612 v -1.624 h 8.932 l -0.476,0.392 c 0,-1.456 -0.317,-2.576 -0.952,-3.36 -0.634,-0.803 -1.568,-1.204 -2.8,-1.204 -0.896,0 -1.661,0.215 -2.296,0.644 -0.634,0.411 -1.12,0.999 -1.456,1.764 -0.336,0.747 -0.504,1.615 -0.504,2.604 v 0.168 c 0,1.12 0.178,2.063 0.532,2.828 0.374,0.747 0.906,1.316 1.596,1.708 0.691,0.373 1.54,0.56 2.548,0.56 0.803,0 1.578,-0.121 2.324,-0.364 0.766,-0.261 1.484,-0.663 2.156,-1.204 l 0.784,1.764 c -0.616,0.56 -1.409,1.008 -2.38,1.344 -0.952,0.317 -1.913,0.476 -2.884,0.476 z M 896.944,158 v -13.636 h 2.492 v 3.248 h -0.28 c 0.299,-1.12 0.84,-1.96 1.624,-2.52 0.784,-0.579 1.82,-0.915 3.108,-1.008 l 0.868,-0.084 0.196,2.212 -1.596,0.14 c -1.232,0.131 -2.184,0.532 -2.856,1.204 -0.653,0.672 -0.98,1.596 -0.98,2.772 V 158 Z m 9.542,-6.412 v -2.1 h 7.952 v 2.1 z m 19.145,6.664 c -1.232,0 -2.286,-0.308 -3.164,-0.924 -0.877,-0.616 -1.465,-1.447 -1.764,-2.492 h 0.28 V 158 h -2.492 v -19.74 h 2.548 v 9.184 h -0.308 c 0.299,-1.008 0.887,-1.811 1.764,-2.408 0.878,-0.616 1.923,-0.924 3.136,-0.924 1.214,0 2.268,0.289 3.164,0.868 0.915,0.56 1.615,1.372 2.1,2.436 0.504,1.045 0.756,2.296 0.756,3.752 0,1.437 -0.252,2.697 -0.756,3.78 -0.504,1.064 -1.204,1.885 -2.1,2.464 -0.896,0.56 -1.95,0.84 -3.164,0.84 z m -0.588,-2.016 c 1.232,0 2.212,-0.429 2.94,-1.288 0.728,-0.877 1.092,-2.137 1.092,-3.78 0,-1.643 -0.364,-2.893 -1.092,-3.752 -0.728,-0.859 -1.708,-1.288 -2.94,-1.288 -1.232,0 -2.212,0.429 -2.94,1.288 -0.728,0.859 -1.092,2.109 -1.092,3.752 0,1.643 0.364,2.903 1.092,3.78 0.728,0.859 1.708,1.288 2.94,1.288 z"
     fill="#000000"
     id="path1265" />
  <rect
     x="-914.5"
     y="185.5"
     width="149"
     height="129"
     rx="9.5"
     transform="scale(-1,1)"
     stroke="#000000"
     stroke-dasharray="4, 4"
     id="rect1267" />
  <path
     d="m 822.09,257 -4.83,-11.224 h 2.507 l 3.749,9.315 h -0.644 l 3.841,-9.315 h 2.369 L 824.183,257 Z m 8.707,0 v -11.224 h 2.254 v 2.392 h -0.253 c 0.199,-0.552 0.475,-1.02 0.828,-1.403 0.352,-0.383 0.774,-0.675 1.265,-0.874 0.506,-0.215 1.058,-0.322 1.656,-0.322 0.935,0 1.694,0.222 2.277,0.667 0.582,0.445 0.981,1.127 1.196,2.047 h -0.322 c 0.291,-0.843 0.789,-1.503 1.495,-1.978 0.705,-0.491 1.525,-0.736 2.461,-0.736 0.858,0 1.564,0.169 2.116,0.506 0.552,0.322 0.966,0.82 1.242,1.495 0.276,0.659 0.414,1.495 0.414,2.507 V 257 h -2.323 v -6.808 c 0,-0.951 -0.169,-1.648 -0.506,-2.093 -0.322,-0.445 -0.859,-0.667 -1.61,-0.667 -0.552,0 -1.035,0.13 -1.449,0.391 -0.414,0.261 -0.736,0.644 -0.966,1.15 -0.215,0.491 -0.322,1.073 -0.322,1.748 V 257 h -2.323 v -6.808 c 0,-0.951 -0.161,-1.648 -0.483,-2.093 -0.322,-0.445 -0.859,-0.667 -1.61,-0.667 -0.568,0 -1.058,0.13 -1.472,0.391 -0.399,0.261 -0.706,0.644 -0.92,1.15 -0.215,0.491 -0.322,1.073 -0.322,1.748 V 257 Z m 20.935,0 v -2.001 h 3.68 v -12.19 h 1.196 l -4.071,2.53 -0.966,-1.771 4.531,-2.783 h 1.679 v 14.214 h 3.45 V 257 Z"
     fill="#000000"
     id="path1269" />
  <path
     d="m 731.061,251.061 c 0.585,-0.586 0.585,-1.536 0,-2.122 l -9.546,-9.546 c -0.586,-0.585 -1.536,-0.585 -2.122,0 -0.585,0.586 -0.585,1.536 0,2.122 l 8.486,8.485 -8.486,8.485 c -0.585,0.586 -0.585,1.536 0,2.122 0.586,0.585 1.536,0.585 2.122,0 z M 443,251.5 h 287 v -3 H 443 Z"
     fill="#000000"
     id="path1271" />
  <defs
     id="defs1292">
    <linearGradient
       id="paint0_linear_447_4031"
       x1="70"
       y1="100"
       x2="398.14899"
       y2="332.668"
       gradientUnits="userSpaceOnUse"
       gradientTransform="translate(110)">
      <stop
         stop-color="#0185FF"
         id="stop1273" />
      <stop
         offset="1"
         stop-color="#01CDFF"
         id="stop1275" />
    </linearGradient>
    <radialGradient
       id="paint1_radial_447_4031"
       cx="0"
       cy="0"
       r="1"
       gradientUnits="userSpaceOnUse"
       gradientTransform="matrix(386.1485,226.03318,-264.65703,452.13236,-481.7442,114.7426)">
      <stop
         offset="0.0995467"
         stop-color="#B0E07F"
         id="stop1278" />
      <stop
         offset="0.344281"
         stop-color="#94DEE0"
         id="stop1280" />
      <stop
         offset="0.567519"
         stop-color="#5DA4EF"
         id="stop1282" />
      <stop
         offset="0.859602"
         stop-color="#591BBF"
         id="stop1284" />
    </radialGradient>
    <linearGradient
       id="paint2_linear_447_4031"
       x1="580"
       y1="100"
       x2="908.14899"
       y2="332.668"
       gradientUnits="userSpaceOnUse"
       gradientTransform="translate(110)">
      <stop
         stop-color="#0185FF"
         id="stop1287" />
      <stop
         offset="1"
         stop-color="#01CDFF"
         id="stop1289" />
    </linearGradient>
  </defs>
</svg>
