<svg width="1200" height="877" viewBox="0 0 1200 877" fill="none" xmlns="http://www.w3.org/2000/svg">
<rect width="1200" height="877" fill="white"/>
<g filter="url(#filter0_d_449_4330)">
<rect x="122" y="195" width="428" height="597" rx="10" fill="white"/>
</g>
<path d="M154.108 253V239.364H156.6V242.332H156.292C156.684 241.268 157.319 240.465 158.196 239.924C159.092 239.383 160.11 239.112 161.248 239.112C162.35 239.112 163.255 239.308 163.964 239.7C164.674 240.092 165.206 240.699 165.56 241.52C165.915 242.323 166.092 243.331 166.092 244.544V253H163.544V244.684C163.544 243.881 163.442 243.219 163.236 242.696C163.031 242.173 162.704 241.791 162.256 241.548C161.827 241.305 161.276 241.184 160.604 241.184C159.82 241.184 159.13 241.352 158.532 241.688C157.935 242.024 157.468 242.5 157.132 243.116C156.815 243.732 156.656 244.451 156.656 245.272V253H154.108ZM175.928 253.252C174.584 253.252 173.417 252.963 172.428 252.384C171.439 251.805 170.673 250.984 170.132 249.92C169.591 248.856 169.32 247.605 169.32 246.168C169.32 244.731 169.591 243.489 170.132 242.444C170.673 241.38 171.439 240.559 172.428 239.98C173.417 239.401 174.584 239.112 175.928 239.112C177.272 239.112 178.439 239.401 179.428 239.98C180.417 240.559 181.183 241.38 181.724 242.444C182.265 243.489 182.536 244.731 182.536 246.168C182.536 247.605 182.265 248.856 181.724 249.92C181.183 250.984 180.417 251.805 179.428 252.384C178.439 252.963 177.272 253.252 175.928 253.252ZM175.928 251.236C177.16 251.236 178.14 250.807 178.868 249.948C179.596 249.071 179.96 247.811 179.96 246.168C179.96 244.525 179.596 243.275 178.868 242.416C178.14 241.557 177.16 241.128 175.928 241.128C174.715 241.128 173.735 241.557 172.988 242.416C172.26 243.275 171.896 244.525 171.896 246.168C171.896 247.811 172.26 249.071 172.988 249.948C173.735 250.807 174.715 251.236 175.928 251.236ZM191.008 253.252C189.813 253.252 188.759 252.972 187.844 252.412C186.948 251.833 186.248 251.012 185.744 249.948C185.24 248.865 184.988 247.605 184.988 246.168C184.988 244.712 185.231 243.461 185.716 242.416C186.22 241.352 186.92 240.54 187.816 239.98C188.731 239.401 189.795 239.112 191.008 239.112C192.221 239.112 193.267 239.42 194.144 240.036C195.021 240.633 195.609 241.436 195.908 242.444H195.6V233.26H198.148V253H195.628V249.836H195.908C195.628 250.881 195.04 251.712 194.144 252.328C193.267 252.944 192.221 253.252 191.008 253.252ZM191.596 251.236C192.828 251.236 193.808 250.807 194.536 249.948C195.264 249.071 195.628 247.811 195.628 246.168C195.628 244.525 195.264 243.275 194.536 242.416C193.808 241.557 192.828 241.128 191.596 241.128C190.383 241.128 189.403 241.557 188.656 242.416C187.928 243.275 187.564 244.525 187.564 246.168C187.564 247.811 187.928 249.071 188.656 249.948C189.403 250.807 190.383 251.236 191.596 251.236ZM208.533 253.252C207.059 253.252 205.789 252.972 204.725 252.412C203.68 251.833 202.868 251.021 202.289 249.976C201.711 248.912 201.421 247.661 201.421 246.224C201.421 244.805 201.701 243.564 202.261 242.5C202.84 241.436 203.624 240.605 204.613 240.008C205.621 239.411 206.769 239.112 208.057 239.112C209.308 239.112 210.372 239.383 211.249 239.924C212.145 240.465 212.827 241.24 213.293 242.248C213.779 243.237 214.021 244.432 214.021 245.832V246.756H203.409V245.132H212.341L211.865 245.524C211.865 244.068 211.548 242.948 210.913 242.164C210.279 241.361 209.345 240.96 208.113 240.96C207.217 240.96 206.452 241.175 205.817 241.604C205.183 242.015 204.697 242.603 204.361 243.368C204.025 244.115 203.857 244.983 203.857 245.972V246.14C203.857 247.26 204.035 248.203 204.389 248.968C204.763 249.715 205.295 250.284 205.985 250.676C206.676 251.049 207.525 251.236 208.533 251.236C209.336 251.236 210.111 251.115 210.857 250.872C211.623 250.611 212.341 250.209 213.013 249.668L213.797 251.432C213.181 251.992 212.388 252.44 211.417 252.776C210.465 253.093 209.504 253.252 208.533 253.252ZM218.534 253V250.788H223.014V235.472H224.358L219.486 238.524L218.422 236.592L223.742 233.26H225.618V250.788H229.818V253H218.534Z" fill="black"/>
<mask id="path-3-inside-1_449_4330" fill="white">
<rect x="286" y="145" width="100" height="100" rx="1"/>
</mask>
<rect x="286" y="145" width="100" height="100" rx="1" fill="white" stroke="url(#paint0_linear_449_4330)" stroke-width="4" mask="url(#path-3-inside-1_449_4330)"/>
<rect x="153" y="287" width="358" height="78" rx="9" fill="white" stroke="url(#paint1_linear_449_4330)" stroke-width="2"/>
<path d="M322.945 204.28C321.396 204.28 320.061 203.991 318.941 203.412C317.821 202.833 316.953 202.012 316.337 200.948C315.74 199.884 315.441 198.624 315.441 197.168C315.441 195.749 315.73 194.508 316.309 193.444C316.906 192.38 317.718 191.549 318.745 190.952C319.79 190.336 320.976 190.028 322.301 190.028C323.608 190.028 324.728 190.308 325.661 190.868C326.594 191.428 327.313 192.221 327.817 193.248C328.34 194.275 328.601 195.497 328.601 196.916V197.952H318.269V195.936H326.137L325.689 196.356C325.689 195.087 325.409 194.116 324.849 193.444C324.289 192.753 323.486 192.408 322.441 192.408C321.657 192.408 320.985 192.595 320.425 192.968C319.884 193.323 319.464 193.836 319.165 194.508C318.885 195.161 318.745 195.945 318.745 196.86V197.056C318.745 198.083 318.904 198.932 319.221 199.604C319.538 200.276 320.014 200.78 320.649 201.116C321.284 201.452 322.068 201.62 323.001 201.62C323.766 201.62 324.532 201.508 325.297 201.284C326.062 201.041 326.762 200.668 327.397 200.164L328.377 202.516C327.724 203.057 326.902 203.487 325.913 203.804C324.924 204.121 323.934 204.28 322.945 204.28ZM337.59 204.28C335.761 204.28 334.398 203.823 333.502 202.908C332.606 201.993 332.158 200.659 332.158 198.904V192.94H329.526V190.308H332.158V186.22H335.658V190.308H339.802V192.94H335.658V198.708C335.658 199.604 335.854 200.276 336.246 200.724C336.638 201.172 337.273 201.396 338.15 201.396C338.411 201.396 338.682 201.368 338.962 201.312C339.242 201.237 339.531 201.163 339.83 201.088L340.362 203.664C340.026 203.851 339.597 204 339.074 204.112C338.57 204.224 338.075 204.28 337.59 204.28ZM342.064 204V184.26H345.564V193.052H345.172C345.583 192.063 346.217 191.316 347.076 190.812C347.953 190.289 348.943 190.028 350.044 190.028C351.145 190.028 352.051 190.233 352.76 190.644C353.469 191.055 354.001 191.68 354.356 192.52C354.711 193.341 354.888 194.387 354.888 195.656V204H351.388V195.824C351.388 195.115 351.295 194.536 351.108 194.088C350.94 193.64 350.669 193.313 350.296 193.108C349.941 192.884 349.484 192.772 348.924 192.772C348.252 192.772 347.664 192.921 347.16 193.22C346.656 193.5 346.264 193.911 345.984 194.452C345.704 194.975 345.564 195.591 345.564 196.3V204H342.064Z" fill="black"/>
<path d="M247.92 335.252C246.894 335.252 245.923 335.168 245.008 335C244.094 334.813 243.254 334.552 242.488 334.216C241.723 333.861 241.032 333.432 240.416 332.928L241.312 330.856C241.928 331.323 242.572 331.724 243.244 332.06C243.916 332.377 244.635 332.62 245.4 332.788C246.166 332.937 247.006 333.012 247.92 333.012C249.563 333.012 250.767 332.713 251.532 332.116C252.316 331.519 252.708 330.735 252.708 329.764C252.708 329.223 252.587 328.765 252.344 328.392C252.102 328.019 251.71 327.701 251.168 327.44C250.627 327.179 249.918 326.964 249.04 326.796L246.072 326.18C244.318 325.807 243.002 325.191 242.124 324.332C241.266 323.473 240.836 322.325 240.836 320.888C240.836 319.712 241.144 318.685 241.76 317.808C242.395 316.912 243.254 316.221 244.336 315.736C245.438 315.251 246.707 315.008 248.144 315.008C249.04 315.008 249.89 315.101 250.692 315.288C251.495 315.456 252.242 315.727 252.932 316.1C253.623 316.455 254.23 316.893 254.752 317.416L253.884 319.404C253.063 318.657 252.186 318.116 251.252 317.78C250.319 317.425 249.274 317.248 248.116 317.248C247.164 317.248 246.334 317.397 245.624 317.696C244.934 317.995 244.392 318.415 244 318.956C243.627 319.479 243.44 320.095 243.44 320.804C243.44 321.663 243.702 322.335 244.224 322.82C244.747 323.305 245.624 323.679 246.856 323.94L249.796 324.528C251.663 324.92 253.044 325.527 253.94 326.348C254.855 327.151 255.312 328.233 255.312 329.596C255.312 330.716 255.014 331.705 254.416 332.564C253.819 333.404 252.96 334.067 251.84 334.552C250.739 335.019 249.432 335.252 247.92 335.252ZM264.725 335.252C263.25 335.252 261.981 334.972 260.917 334.412C259.872 333.833 259.06 333.021 258.481 331.976C257.902 330.912 257.613 329.661 257.613 328.224C257.613 326.805 257.893 325.564 258.453 324.5C259.032 323.436 259.816 322.605 260.805 322.008C261.813 321.411 262.961 321.112 264.249 321.112C265.5 321.112 266.564 321.383 267.441 321.924C268.337 322.465 269.018 323.24 269.485 324.248C269.97 325.237 270.213 326.432 270.213 327.832V328.756H259.601V327.132H268.533L268.057 327.524C268.057 326.068 267.74 324.948 267.105 324.164C266.47 323.361 265.537 322.96 264.305 322.96C263.409 322.96 262.644 323.175 262.009 323.604C261.374 324.015 260.889 324.603 260.553 325.368C260.217 326.115 260.049 326.983 260.049 327.972V328.14C260.049 329.26 260.226 330.203 260.581 330.968C260.954 331.715 261.486 332.284 262.177 332.676C262.868 333.049 263.717 333.236 264.725 333.236C265.528 333.236 266.302 333.115 267.049 332.872C267.814 332.611 268.533 332.209 269.205 331.668L269.989 333.432C269.373 333.992 268.58 334.44 267.609 334.776C266.657 335.093 265.696 335.252 264.725 335.252ZM273.382 335V321.364H275.874V324.612H275.594C275.893 323.492 276.434 322.652 277.218 322.092C278.002 321.513 279.038 321.177 280.326 321.084L281.194 321L281.39 323.212L279.794 323.352C278.562 323.483 277.61 323.884 276.938 324.556C276.285 325.228 275.958 326.152 275.958 327.328V335H273.382ZM288.488 335L282.608 321.364H285.352L290.084 333.012H289.3L294.116 321.364H296.748L290.812 335H288.488ZM298.696 318.088V315.344H301.748V318.088H298.696ZM298.948 335V321.364H301.496V335H298.948ZM311.501 335.252C310.119 335.252 308.925 334.963 307.917 334.384C306.909 333.787 306.134 332.956 305.593 331.892C305.051 330.809 304.781 329.54 304.781 328.084C304.781 326.647 305.051 325.405 305.593 324.36C306.134 323.315 306.909 322.512 307.917 321.952C308.925 321.392 310.119 321.112 311.501 321.112C312.359 321.112 313.199 321.261 314.021 321.56C314.861 321.859 315.551 322.279 316.093 322.82L315.253 324.612C314.711 324.127 314.123 323.763 313.489 323.52C312.854 323.277 312.247 323.156 311.669 323.156C310.306 323.156 309.251 323.585 308.505 324.444C307.758 325.303 307.385 326.525 307.385 328.112C307.385 329.699 307.758 330.949 308.505 331.864C309.251 332.76 310.306 333.208 311.669 333.208C312.247 333.208 312.854 333.087 313.489 332.844C314.123 332.601 314.711 332.228 315.253 331.724L316.093 333.544C315.551 334.085 314.851 334.505 313.993 334.804C313.153 335.103 312.322 335.252 311.501 335.252ZM324.635 335.252C323.16 335.252 321.891 334.972 320.827 334.412C319.782 333.833 318.97 333.021 318.391 331.976C317.812 330.912 317.523 329.661 317.523 328.224C317.523 326.805 317.803 325.564 318.363 324.5C318.942 323.436 319.726 322.605 320.715 322.008C321.723 321.411 322.871 321.112 324.159 321.112C325.41 321.112 326.474 321.383 327.351 321.924C328.247 322.465 328.928 323.24 329.395 324.248C329.88 325.237 330.123 326.432 330.123 327.832V328.756H319.511V327.132H328.443L327.967 327.524C327.967 326.068 327.65 324.948 327.015 324.164C326.38 323.361 325.447 322.96 324.215 322.96C323.319 322.96 322.554 323.175 321.919 323.604C321.284 324.015 320.799 324.603 320.463 325.368C320.127 326.115 319.959 326.983 319.959 327.972V328.14C319.959 329.26 320.136 330.203 320.491 330.968C320.864 331.715 321.396 332.284 322.087 332.676C322.778 333.049 323.627 333.236 324.635 333.236C325.438 333.236 326.212 333.115 326.959 332.872C327.724 332.611 328.443 332.209 329.115 331.668L329.899 333.432C329.283 333.992 328.49 334.44 327.519 334.776C326.567 335.093 325.606 335.252 324.635 335.252ZM337.996 335.252C337.287 335.252 336.587 335.187 335.896 335.056C335.224 334.925 334.599 334.739 334.02 334.496C333.46 334.235 332.965 333.927 332.536 333.572L333.292 331.808C333.74 332.144 334.225 332.433 334.748 332.676C335.271 332.9 335.812 333.068 336.372 333.18C336.932 333.292 337.492 333.348 338.052 333.348C339.079 333.348 339.853 333.161 340.376 332.788C340.899 332.415 341.16 331.92 341.16 331.304C341.16 330.781 340.983 330.38 340.628 330.1C340.292 329.801 339.76 329.577 339.032 329.428L336.428 328.896C335.271 328.635 334.393 328.205 333.796 327.608C333.217 326.992 332.928 326.208 332.928 325.256C332.928 324.416 333.152 323.688 333.6 323.072C334.067 322.437 334.711 321.952 335.532 321.616C336.353 321.28 337.296 321.112 338.36 321.112C338.995 321.112 339.611 321.177 340.208 321.308C340.805 321.439 341.365 321.625 341.888 321.868C342.411 322.111 342.849 322.428 343.204 322.82L342.42 324.556C342.065 324.22 341.664 323.94 341.216 323.716C340.768 323.492 340.301 323.324 339.816 323.212C339.331 323.081 338.845 323.016 338.36 323.016C337.352 323.016 336.587 323.212 336.064 323.604C335.56 323.996 335.308 324.509 335.308 325.144C335.308 325.629 335.457 326.031 335.756 326.348C336.073 326.665 336.568 326.899 337.24 327.048L339.844 327.58C341.057 327.841 341.972 328.261 342.588 328.84C343.204 329.4 343.512 330.165 343.512 331.136C343.512 331.995 343.279 332.732 342.812 333.348C342.364 333.964 341.72 334.44 340.88 334.776C340.059 335.093 339.097 335.252 337.996 335.252ZM354.101 340.04V321.364H356.593V324.5H356.313C356.611 323.473 357.199 322.652 358.077 322.036C358.954 321.42 360.009 321.112 361.241 321.112C362.454 321.112 363.509 321.401 364.405 321.98C365.301 322.54 366.001 323.352 366.505 324.416C367.009 325.461 367.261 326.712 367.261 328.168C367.261 329.605 367.009 330.865 366.505 331.948C366.019 333.012 365.319 333.833 364.405 334.412C363.509 334.972 362.454 335.252 361.241 335.252C360.027 335.252 358.982 334.944 358.105 334.328C357.227 333.712 356.639 332.9 356.341 331.892H356.649V340.04H354.101ZM360.653 333.236C361.885 333.236 362.865 332.807 363.593 331.948C364.321 331.071 364.685 329.811 364.685 328.168C364.685 326.525 364.321 325.275 363.593 324.416C362.865 323.557 361.885 323.128 360.653 323.128C359.421 323.128 358.441 323.557 357.713 324.416C356.985 325.275 356.621 326.525 356.621 328.168C356.621 329.811 356.985 331.071 357.713 331.948C358.441 332.807 359.421 333.236 360.653 333.236ZM374.874 335.252C373.418 335.252 372.326 334.841 371.598 334.02C370.889 333.18 370.534 331.976 370.534 330.408V315.26H373.082V330.212C373.082 330.847 373.166 331.388 373.334 331.836C373.521 332.265 373.782 332.583 374.118 332.788C374.473 332.993 374.912 333.096 375.434 333.096C375.64 333.096 375.845 333.087 376.05 333.068C376.274 333.049 376.48 333.012 376.666 332.956L376.61 335.028C376.312 335.103 376.013 335.159 375.714 335.196C375.434 335.233 375.154 335.252 374.874 335.252ZM383.828 335.252C382.727 335.252 381.803 335.047 381.056 334.636C380.328 334.225 379.787 333.619 379.432 332.816C379.077 332.013 378.9 331.005 378.9 329.792V321.364H381.448V329.792C381.448 330.557 381.551 331.192 381.756 331.696C381.961 332.2 382.279 332.573 382.708 332.816C383.156 333.059 383.716 333.18 384.388 333.18C385.135 333.18 385.788 333.012 386.348 332.676C386.908 332.34 387.347 331.864 387.664 331.248C387.981 330.632 388.14 329.913 388.14 329.092V321.364H390.688V335H388.196V331.92H388.56C388.187 333.003 387.58 333.833 386.74 334.412C385.919 334.972 384.948 335.252 383.828 335.252ZM400.92 340.292C399.707 340.292 398.577 340.143 397.532 339.844C396.487 339.545 395.553 339.088 394.732 338.472L395.544 336.624C396.104 336.997 396.655 337.305 397.196 337.548C397.756 337.809 398.325 337.996 398.904 338.108C399.501 338.22 400.117 338.276 400.752 338.276C402.077 338.276 403.067 337.931 403.72 337.24C404.392 336.568 404.728 335.579 404.728 334.272V331.248H404.98C404.719 332.293 404.131 333.124 403.216 333.74C402.32 334.356 401.275 334.664 400.08 334.664C398.848 334.664 397.775 334.384 396.86 333.824C395.945 333.245 395.236 332.452 394.732 331.444C394.228 330.417 393.976 329.232 393.976 327.888C393.976 326.525 394.228 325.34 394.732 324.332C395.236 323.305 395.945 322.512 396.86 321.952C397.775 321.392 398.848 321.112 400.08 321.112C401.293 321.112 402.348 321.42 403.244 322.036C404.14 322.652 404.719 323.483 404.98 324.528H404.728V321.364H407.22V333.936C407.22 335.336 406.977 336.512 406.492 337.464C406.025 338.416 405.325 339.125 404.392 339.592C403.459 340.059 402.301 340.292 400.92 340.292ZM400.64 332.648C401.891 332.648 402.88 332.219 403.608 331.36C404.336 330.501 404.7 329.344 404.7 327.888C404.7 326.413 404.336 325.256 403.608 324.416C402.88 323.557 401.891 323.128 400.64 323.128C399.389 323.128 398.391 323.557 397.644 324.416C396.916 325.256 396.552 326.413 396.552 327.888C396.552 329.344 396.916 330.501 397.644 331.36C398.391 332.219 399.389 332.648 400.64 332.648ZM411.052 318.088V315.344H414.104V318.088H411.052ZM411.304 335V321.364H413.852V335H411.304ZM417.948 335V321.364H420.44V324.332H420.132C420.524 323.268 421.159 322.465 422.036 321.924C422.932 321.383 423.95 321.112 425.088 321.112C426.19 321.112 427.095 321.308 427.804 321.7C428.514 322.092 429.046 322.699 429.4 323.52C429.755 324.323 429.932 325.331 429.932 326.544V335H427.384V326.684C427.384 325.881 427.282 325.219 427.076 324.696C426.871 324.173 426.544 323.791 426.096 323.548C425.667 323.305 425.116 323.184 424.444 323.184C423.66 323.184 422.97 323.352 422.372 323.688C421.775 324.024 421.308 324.5 420.972 325.116C420.655 325.732 420.496 326.451 420.496 327.272V335H417.948Z" fill="black"/>
<rect x="152" y="426" width="360" height="80" rx="10" fill="url(#paint2_radial_449_4330)"/>
<rect x="152" y="426" width="360" height="80" rx="10" fill="black" fill-opacity="0.08"/>
<rect x="153" y="587" width="158" height="158" rx="9" fill="white" stroke="#1C1A1A" stroke-width="2"/>
<path d="M201.382 690.04V671.364H203.874V674.5H203.594C203.893 673.473 204.481 672.652 205.358 672.036C206.235 671.42 207.29 671.112 208.522 671.112C209.735 671.112 210.79 671.401 211.686 671.98C212.582 672.54 213.282 673.352 213.786 674.416C214.29 675.461 214.542 676.712 214.542 678.168C214.542 679.605 214.29 680.865 213.786 681.948C213.301 683.012 212.601 683.833 211.686 684.412C210.79 684.972 209.735 685.252 208.522 685.252C207.309 685.252 206.263 684.944 205.386 684.328C204.509 683.712 203.921 682.9 203.622 681.892H203.93V690.04H201.382ZM207.934 683.236C209.166 683.236 210.146 682.807 210.874 681.948C211.602 681.071 211.966 679.811 211.966 678.168C211.966 676.525 211.602 675.275 210.874 674.416C210.146 673.557 209.166 673.128 207.934 673.128C206.702 673.128 205.722 673.557 204.994 674.416C204.266 675.275 203.902 676.525 203.902 678.168C203.902 679.811 204.266 681.071 204.994 681.948C205.722 682.807 206.702 683.236 207.934 683.236ZM223.611 685.252C222.267 685.252 221.101 684.963 220.111 684.384C219.122 683.805 218.357 682.984 217.815 681.92C217.274 680.856 217.003 679.605 217.003 678.168C217.003 676.731 217.274 675.489 217.815 674.444C218.357 673.38 219.122 672.559 220.111 671.98C221.101 671.401 222.267 671.112 223.611 671.112C224.955 671.112 226.122 671.401 227.111 671.98C228.101 672.559 228.866 673.38 229.407 674.444C229.949 675.489 230.219 676.731 230.219 678.168C230.219 679.605 229.949 680.856 229.407 681.92C228.866 682.984 228.101 683.805 227.111 684.384C226.122 684.963 224.955 685.252 223.611 685.252ZM223.611 683.236C224.843 683.236 225.823 682.807 226.551 681.948C227.279 681.071 227.643 679.811 227.643 678.168C227.643 676.525 227.279 675.275 226.551 674.416C225.823 673.557 224.843 673.128 223.611 673.128C222.398 673.128 221.418 673.557 220.671 674.416C219.943 675.275 219.579 676.525 219.579 678.168C219.579 679.811 219.943 681.071 220.671 681.948C221.418 682.807 222.398 683.236 223.611 683.236ZM238.691 685.252C237.497 685.252 236.442 684.972 235.527 684.412C234.631 683.833 233.931 683.012 233.427 681.948C232.923 680.865 232.671 679.605 232.671 678.168C232.671 676.712 232.914 675.461 233.399 674.416C233.903 673.352 234.603 672.54 235.499 671.98C236.414 671.401 237.478 671.112 238.691 671.112C239.905 671.112 240.95 671.42 241.827 672.036C242.705 672.633 243.293 673.436 243.591 674.444H243.283V665.26H245.831V685H243.311V681.836H243.591C243.311 682.881 242.723 683.712 241.827 684.328C240.95 684.944 239.905 685.252 238.691 685.252ZM239.279 683.236C240.511 683.236 241.491 682.807 242.219 681.948C242.947 681.071 243.311 679.811 243.311 678.168C243.311 676.525 242.947 675.275 242.219 674.416C241.491 673.557 240.511 673.128 239.279 673.128C238.066 673.128 237.086 673.557 236.339 674.416C235.611 675.275 235.247 676.525 235.247 678.168C235.247 679.811 235.611 681.071 236.339 681.948C237.086 682.807 238.066 683.236 239.279 683.236ZM251.261 685V682.788H255.741V667.472H257.085L252.213 670.524L251.149 668.592L256.469 665.26H258.345V682.788H262.545V685H251.261Z" fill="black"/>
<rect x="353" y="587" width="158" height="158" rx="9" fill="white" stroke="#1C1A1A" stroke-width="2"/>
<path d="M277.475 475.28C275.421 475.28 273.657 474.869 272.183 474.048C270.727 473.208 269.607 472.032 268.823 470.52C268.039 468.989 267.647 467.188 267.647 465.116C267.647 463.044 268.039 461.252 268.823 459.74C269.607 458.228 270.727 457.061 272.183 456.24C273.657 455.4 275.421 454.98 277.475 454.98C278.8 454.98 280.051 455.185 281.227 455.596C282.421 456.007 283.401 456.595 284.167 457.36L282.991 460.216C282.151 459.507 281.292 458.993 280.415 458.676C279.537 458.34 278.595 458.172 277.587 458.172C275.589 458.172 274.068 458.779 273.023 459.992C271.977 461.187 271.455 462.895 271.455 465.116C271.455 467.337 271.977 469.055 273.023 470.268C274.068 471.481 275.589 472.088 277.587 472.088C278.595 472.088 279.537 471.929 280.415 471.612C281.292 471.276 282.151 470.753 282.991 470.044L284.167 472.9C283.401 473.647 282.421 474.235 281.227 474.664C280.051 475.075 278.8 475.28 277.475 475.28ZM287.295 475V455.26H289.983L301.323 469.988H300.595V455.26H303.927V475H301.267L289.927 460.244H290.627V475H287.295ZM308.24 475V455.26H311.824V475H308.24ZM323.326 480.04V461.308H326.742V464.192H326.462C326.742 463.24 327.311 462.475 328.17 461.896C329.047 461.317 330.065 461.028 331.222 461.028C332.417 461.028 333.462 461.317 334.358 461.896C335.273 462.475 335.982 463.296 336.486 464.36C336.99 465.405 337.242 466.665 337.242 468.14C337.242 469.596 336.99 470.865 336.486 471.948C335.982 473.012 335.282 473.833 334.386 474.412C333.49 474.991 332.435 475.28 331.222 475.28C330.083 475.28 329.085 475 328.226 474.44C327.367 473.861 326.789 473.115 326.49 472.2H326.826V480.04H323.326ZM330.242 472.62C331.287 472.62 332.127 472.247 332.762 471.5C333.397 470.735 333.714 469.615 333.714 468.14C333.714 466.647 333.397 465.536 332.762 464.808C332.127 464.061 331.287 463.688 330.242 463.688C329.197 463.688 328.357 464.061 327.722 464.808C327.087 465.536 326.77 466.647 326.77 468.14C326.77 469.615 327.087 470.735 327.722 471.5C328.357 472.247 329.197 472.62 330.242 472.62ZM344.875 475.28C343.251 475.28 342.047 474.841 341.263 473.964C340.498 473.068 340.115 471.761 340.115 470.044V455.26H343.615V469.876C343.615 470.417 343.69 470.884 343.839 471.276C344.007 471.649 344.25 471.929 344.567 472.116C344.884 472.303 345.276 472.396 345.743 472.396C345.948 472.396 346.154 472.387 346.359 472.368C346.564 472.349 346.76 472.312 346.947 472.256L346.891 475.028C346.555 475.103 346.219 475.159 345.883 475.196C345.566 475.252 345.23 475.28 344.875 475.28ZM354.012 475.28C352.874 475.28 351.931 475.075 351.184 474.664C350.438 474.235 349.878 473.6 349.504 472.76C349.15 471.92 348.972 470.875 348.972 469.624V461.308H352.472V469.68C352.472 470.315 352.556 470.847 352.724 471.276C352.911 471.705 353.182 472.023 353.536 472.228C353.91 472.433 354.376 472.536 354.936 472.536C355.571 472.536 356.122 472.396 356.588 472.116C357.074 471.817 357.447 471.407 357.708 470.884C357.988 470.343 358.128 469.717 358.128 469.008V461.308H361.628V475H358.212V472.144H358.604C358.212 473.152 357.615 473.927 356.812 474.468C356.028 475.009 355.095 475.28 354.012 475.28ZM371.655 480.32C370.386 480.32 369.191 480.171 368.071 479.872C366.97 479.592 365.999 479.153 365.159 478.556L366.167 476.12C366.69 476.456 367.241 476.736 367.819 476.96C368.398 477.203 368.986 477.38 369.583 477.492C370.181 477.604 370.778 477.66 371.375 477.66C372.626 477.66 373.559 477.352 374.175 476.736C374.81 476.139 375.127 475.243 375.127 474.048V471.528H375.379C375.099 472.48 374.511 473.245 373.615 473.824C372.738 474.384 371.739 474.664 370.619 474.664C369.387 474.664 368.314 474.384 367.399 473.824C366.485 473.245 365.775 472.443 365.271 471.416C364.767 470.389 364.515 469.195 364.515 467.832C364.515 466.469 364.767 465.284 365.271 464.276C365.775 463.249 366.485 462.456 367.399 461.896C368.314 461.317 369.387 461.028 370.619 461.028C371.777 461.028 372.785 461.317 373.643 461.896C374.521 462.456 375.09 463.203 375.351 464.136H375.127V461.308H378.543V473.628C378.543 475.103 378.282 476.335 377.759 477.324C377.237 478.332 376.462 479.079 375.435 479.564C374.409 480.068 373.149 480.32 371.655 480.32ZM371.571 472.004C372.654 472.004 373.513 471.631 374.147 470.884C374.782 470.137 375.099 469.12 375.099 467.832C375.099 466.544 374.782 465.536 374.147 464.808C373.513 464.061 372.654 463.688 371.571 463.688C370.489 463.688 369.63 464.061 368.995 464.808C368.361 465.536 368.043 466.544 368.043 467.832C368.043 469.12 368.361 470.137 368.995 470.884C369.63 471.631 370.489 472.004 371.571 472.004ZM381.946 458.368V454.952H385.866V458.368H381.946ZM382.17 475V461.308H385.67V475H382.17ZM389.306 475V461.308H392.722V464.052H392.414C392.825 463.063 393.46 462.316 394.318 461.812C395.196 461.289 396.185 461.028 397.286 461.028C398.388 461.028 399.293 461.233 400.002 461.644C400.712 462.055 401.244 462.68 401.598 463.52C401.953 464.341 402.13 465.387 402.13 466.656V475H398.63V466.824C398.63 466.115 398.537 465.536 398.35 465.088C398.182 464.64 397.912 464.313 397.538 464.108C397.184 463.884 396.726 463.772 396.166 463.772C395.494 463.772 394.906 463.921 394.402 464.22C393.898 464.5 393.506 464.911 393.226 465.452C392.946 465.975 392.806 466.591 392.806 467.3V475H389.306Z" fill="white"/>
<rect x="182" y="534" width="100" height="100" rx="10" fill="url(#paint3_radial_449_4330)"/>
<rect x="182" y="534" width="100" height="100" rx="10" fill="black" fill-opacity="0.08"/>
<path d="M208.983 593L203.047 579.308H206.771L210.999 589.92H210.159L214.527 579.308H218.027L212.007 593H208.983ZM226.191 593.28C224.642 593.28 223.307 592.991 222.187 592.412C221.067 591.833 220.199 591.012 219.583 589.948C218.986 588.884 218.687 587.624 218.687 586.168C218.687 584.749 218.976 583.508 219.555 582.444C220.152 581.38 220.964 580.549 221.991 579.952C223.036 579.336 224.222 579.028 225.547 579.028C226.854 579.028 227.974 579.308 228.907 579.868C229.84 580.428 230.559 581.221 231.063 582.248C231.586 583.275 231.847 584.497 231.847 585.916V586.952H221.515V584.936H229.383L228.935 585.356C228.935 584.087 228.655 583.116 228.095 582.444C227.535 581.753 226.732 581.408 225.687 581.408C224.903 581.408 224.231 581.595 223.671 581.968C223.13 582.323 222.71 582.836 222.411 583.508C222.131 584.161 221.991 584.945 221.991 585.86V586.056C221.991 587.083 222.15 587.932 222.467 588.604C222.784 589.276 223.26 589.78 223.895 590.116C224.53 590.452 225.314 590.62 226.247 590.62C227.012 590.62 227.778 590.508 228.543 590.284C229.308 590.041 230.008 589.668 230.643 589.164L231.623 591.516C230.97 592.057 230.148 592.487 229.159 592.804C228.17 593.121 227.18 593.28 226.191 593.28ZM240.836 593.28C239.007 593.28 237.644 592.823 236.748 591.908C235.852 590.993 235.404 589.659 235.404 587.904V581.94H232.772V579.308H235.404V575.22H238.904V579.308H243.048V581.94H238.904V587.708C238.904 588.604 239.1 589.276 239.492 589.724C239.884 590.172 240.519 590.396 241.396 590.396C241.657 590.396 241.928 590.368 242.208 590.312C242.488 590.237 242.777 590.163 243.076 590.088L243.608 592.664C243.272 592.851 242.843 593 242.32 593.112C241.816 593.224 241.321 593.28 240.836 593.28ZM245.31 593V573.26H248.81V582.052H248.418C248.829 581.063 249.464 580.316 250.322 579.812C251.2 579.289 252.189 579.028 253.29 579.028C254.392 579.028 255.297 579.233 256.006 579.644C256.716 580.055 257.248 580.68 257.602 581.52C257.957 582.341 258.134 583.387 258.134 584.656V593H254.634V584.824C254.634 584.115 254.541 583.536 254.354 583.088C254.186 582.64 253.916 582.313 253.542 582.108C253.188 581.884 252.73 581.772 252.17 581.772C251.498 581.772 250.91 581.921 250.406 582.22C249.902 582.5 249.51 582.911 249.23 583.452C248.95 583.975 248.81 584.591 248.81 585.3V593H245.31Z" fill="white"/>
<rect x="382" y="534" width="100" height="100" rx="10" fill="url(#paint4_radial_449_4330)"/>
<rect x="382" y="534" width="100" height="100" rx="10" fill="black" fill-opacity="0.08"/>
<path d="M408.983 593L403.047 579.308H406.771L410.999 589.92H410.159L414.527 579.308H418.027L412.007 593H408.983ZM426.191 593.28C424.642 593.28 423.307 592.991 422.187 592.412C421.067 591.833 420.199 591.012 419.583 589.948C418.986 588.884 418.687 587.624 418.687 586.168C418.687 584.749 418.976 583.508 419.555 582.444C420.152 581.38 420.964 580.549 421.991 579.952C423.036 579.336 424.222 579.028 425.547 579.028C426.854 579.028 427.974 579.308 428.907 579.868C429.84 580.428 430.559 581.221 431.063 582.248C431.586 583.275 431.847 584.497 431.847 585.916V586.952H421.515V584.936H429.383L428.935 585.356C428.935 584.087 428.655 583.116 428.095 582.444C427.535 581.753 426.732 581.408 425.687 581.408C424.903 581.408 424.231 581.595 423.671 581.968C423.13 582.323 422.71 582.836 422.411 583.508C422.131 584.161 421.991 584.945 421.991 585.86V586.056C421.991 587.083 422.15 587.932 422.467 588.604C422.784 589.276 423.26 589.78 423.895 590.116C424.53 590.452 425.314 590.62 426.247 590.62C427.012 590.62 427.778 590.508 428.543 590.284C429.308 590.041 430.008 589.668 430.643 589.164L431.623 591.516C430.97 592.057 430.148 592.487 429.159 592.804C428.17 593.121 427.18 593.28 426.191 593.28ZM440.836 593.28C439.007 593.28 437.644 592.823 436.748 591.908C435.852 590.993 435.404 589.659 435.404 587.904V581.94H432.772V579.308H435.404V575.22H438.904V579.308H443.048V581.94H438.904V587.708C438.904 588.604 439.1 589.276 439.492 589.724C439.884 590.172 440.519 590.396 441.396 590.396C441.657 590.396 441.928 590.368 442.208 590.312C442.488 590.237 442.777 590.163 443.076 590.088L443.608 592.664C443.272 592.851 442.843 593 442.32 593.112C441.816 593.224 441.321 593.28 440.836 593.28ZM445.31 593V573.26H448.81V582.052H448.418C448.829 581.063 449.464 580.316 450.322 579.812C451.2 579.289 452.189 579.028 453.29 579.028C454.392 579.028 455.297 579.233 456.006 579.644C456.716 580.055 457.248 580.68 457.602 581.52C457.957 582.341 458.134 583.387 458.134 584.656V593H454.634V584.824C454.634 584.115 454.541 583.536 454.354 583.088C454.186 582.64 453.916 582.313 453.542 582.108C453.188 581.884 452.73 581.772 452.17 581.772C451.498 581.772 450.91 581.921 450.406 582.22C449.902 582.5 449.51 582.911 449.23 583.452C448.95 583.975 448.81 584.591 448.81 585.3V593H445.31Z" fill="white"/>
<path d="M401.382 690.04V671.364H403.874V674.5H403.594C403.893 673.473 404.481 672.652 405.358 672.036C406.235 671.42 407.29 671.112 408.522 671.112C409.735 671.112 410.79 671.401 411.686 671.98C412.582 672.54 413.282 673.352 413.786 674.416C414.29 675.461 414.542 676.712 414.542 678.168C414.542 679.605 414.29 680.865 413.786 681.948C413.301 683.012 412.601 683.833 411.686 684.412C410.79 684.972 409.735 685.252 408.522 685.252C407.309 685.252 406.263 684.944 405.386 684.328C404.509 683.712 403.921 682.9 403.622 681.892H403.93V690.04H401.382ZM407.934 683.236C409.166 683.236 410.146 682.807 410.874 681.948C411.602 681.071 411.966 679.811 411.966 678.168C411.966 676.525 411.602 675.275 410.874 674.416C410.146 673.557 409.166 673.128 407.934 673.128C406.702 673.128 405.722 673.557 404.994 674.416C404.266 675.275 403.902 676.525 403.902 678.168C403.902 679.811 404.266 681.071 404.994 681.948C405.722 682.807 406.702 683.236 407.934 683.236ZM423.611 685.252C422.267 685.252 421.101 684.963 420.111 684.384C419.122 683.805 418.357 682.984 417.815 681.92C417.274 680.856 417.003 679.605 417.003 678.168C417.003 676.731 417.274 675.489 417.815 674.444C418.357 673.38 419.122 672.559 420.111 671.98C421.101 671.401 422.267 671.112 423.611 671.112C424.955 671.112 426.122 671.401 427.111 671.98C428.101 672.559 428.866 673.38 429.407 674.444C429.949 675.489 430.219 676.731 430.219 678.168C430.219 679.605 429.949 680.856 429.407 681.92C428.866 682.984 428.101 683.805 427.111 684.384C426.122 684.963 424.955 685.252 423.611 685.252ZM423.611 683.236C424.843 683.236 425.823 682.807 426.551 681.948C427.279 681.071 427.643 679.811 427.643 678.168C427.643 676.525 427.279 675.275 426.551 674.416C425.823 673.557 424.843 673.128 423.611 673.128C422.398 673.128 421.418 673.557 420.671 674.416C419.943 675.275 419.579 676.525 419.579 678.168C419.579 679.811 419.943 681.071 420.671 681.948C421.418 682.807 422.398 683.236 423.611 683.236ZM438.691 685.252C437.497 685.252 436.442 684.972 435.527 684.412C434.631 683.833 433.931 683.012 433.427 681.948C432.923 680.865 432.671 679.605 432.671 678.168C432.671 676.712 432.914 675.461 433.399 674.416C433.903 673.352 434.603 672.54 435.499 671.98C436.414 671.401 437.478 671.112 438.691 671.112C439.905 671.112 440.95 671.42 441.827 672.036C442.705 672.633 443.293 673.436 443.591 674.444H443.283V665.26H445.831V685H443.311V681.836H443.591C443.311 682.881 442.723 683.712 441.827 684.328C440.95 684.944 439.905 685.252 438.691 685.252ZM439.279 683.236C440.511 683.236 441.491 682.807 442.219 681.948C442.947 681.071 443.311 679.811 443.311 678.168C443.311 676.525 442.947 675.275 442.219 674.416C441.491 673.557 440.511 673.128 439.279 673.128C438.066 673.128 437.086 673.557 436.339 674.416C435.611 675.275 435.247 676.525 435.247 678.168C435.247 679.811 435.611 681.071 436.339 681.948C437.086 682.807 438.066 683.236 439.279 683.236ZM450.309 685V683.068L457.001 675.872C457.617 675.2 458.112 674.575 458.485 673.996C458.877 673.399 459.166 672.82 459.353 672.26C459.54 671.7 459.633 671.14 459.633 670.58C459.633 669.497 459.297 668.676 458.625 668.116C457.972 667.537 457.01 667.248 455.741 667.248C454.77 667.248 453.846 667.435 452.969 667.808C452.11 668.163 451.298 668.713 450.533 669.46L449.581 667.472C450.328 666.725 451.27 666.128 452.409 665.68C453.548 665.232 454.742 665.008 455.993 665.008C457.337 665.008 458.466 665.223 459.381 665.652C460.314 666.063 461.024 666.669 461.509 667.472C461.994 668.256 462.237 669.217 462.237 670.356C462.237 670.953 462.162 671.541 462.013 672.12C461.864 672.68 461.64 673.249 461.341 673.828C461.061 674.388 460.697 674.967 460.249 675.564C459.82 676.161 459.306 676.777 458.709 677.412L452.913 683.544V682.788H463.021V685H450.309Z" fill="black"/>
<g filter="url(#filter1_d_449_4330)">
<rect x="650" y="195" width="428" height="597" rx="10" fill="white"/>
</g>
<path d="M682.108 253V239.364H684.6V242.332H684.292C684.684 241.268 685.319 240.465 686.196 239.924C687.092 239.383 688.11 239.112 689.248 239.112C690.35 239.112 691.255 239.308 691.964 239.7C692.674 240.092 693.206 240.699 693.56 241.52C693.915 242.323 694.092 243.331 694.092 244.544V253H691.544V244.684C691.544 243.881 691.442 243.219 691.236 242.696C691.031 242.173 690.704 241.791 690.256 241.548C689.827 241.305 689.276 241.184 688.604 241.184C687.82 241.184 687.13 241.352 686.532 241.688C685.935 242.024 685.468 242.5 685.132 243.116C684.815 243.732 684.656 244.451 684.656 245.272V253H682.108ZM703.928 253.252C702.584 253.252 701.417 252.963 700.428 252.384C699.439 251.805 698.673 250.984 698.132 249.92C697.591 248.856 697.32 247.605 697.32 246.168C697.32 244.731 697.591 243.489 698.132 242.444C698.673 241.38 699.439 240.559 700.428 239.98C701.417 239.401 702.584 239.112 703.928 239.112C705.272 239.112 706.439 239.401 707.428 239.98C708.417 240.559 709.183 241.38 709.724 242.444C710.265 243.489 710.536 244.731 710.536 246.168C710.536 247.605 710.265 248.856 709.724 249.92C709.183 250.984 708.417 251.805 707.428 252.384C706.439 252.963 705.272 253.252 703.928 253.252ZM703.928 251.236C705.16 251.236 706.14 250.807 706.868 249.948C707.596 249.071 707.96 247.811 707.96 246.168C707.96 244.525 707.596 243.275 706.868 242.416C706.14 241.557 705.16 241.128 703.928 241.128C702.715 241.128 701.735 241.557 700.988 242.416C700.26 243.275 699.896 244.525 699.896 246.168C699.896 247.811 700.26 249.071 700.988 249.948C701.735 250.807 702.715 251.236 703.928 251.236ZM719.008 253.252C717.813 253.252 716.759 252.972 715.844 252.412C714.948 251.833 714.248 251.012 713.744 249.948C713.24 248.865 712.988 247.605 712.988 246.168C712.988 244.712 713.231 243.461 713.716 242.416C714.22 241.352 714.92 240.54 715.816 239.98C716.731 239.401 717.795 239.112 719.008 239.112C720.221 239.112 721.267 239.42 722.144 240.036C723.021 240.633 723.609 241.436 723.908 242.444H723.6V233.26H726.148V253H723.628V249.836H723.908C723.628 250.881 723.04 251.712 722.144 252.328C721.267 252.944 720.221 253.252 719.008 253.252ZM719.596 251.236C720.828 251.236 721.808 250.807 722.536 249.948C723.264 249.071 723.628 247.811 723.628 246.168C723.628 244.525 723.264 243.275 722.536 242.416C721.808 241.557 720.828 241.128 719.596 241.128C718.383 241.128 717.403 241.557 716.656 242.416C715.928 243.275 715.564 244.525 715.564 246.168C715.564 247.811 715.928 249.071 716.656 249.948C717.403 250.807 718.383 251.236 719.596 251.236ZM736.533 253.252C735.059 253.252 733.789 252.972 732.725 252.412C731.68 251.833 730.868 251.021 730.289 249.976C729.711 248.912 729.421 247.661 729.421 246.224C729.421 244.805 729.701 243.564 730.261 242.5C730.84 241.436 731.624 240.605 732.613 240.008C733.621 239.411 734.769 239.112 736.057 239.112C737.308 239.112 738.372 239.383 739.249 239.924C740.145 240.465 740.827 241.24 741.293 242.248C741.779 243.237 742.021 244.432 742.021 245.832V246.756H731.409V245.132H740.341L739.865 245.524C739.865 244.068 739.548 242.948 738.913 242.164C738.279 241.361 737.345 240.96 736.113 240.96C735.217 240.96 734.452 241.175 733.817 241.604C733.183 242.015 732.697 242.603 732.361 243.368C732.025 244.115 731.857 244.983 731.857 245.972V246.14C731.857 247.26 732.035 248.203 732.389 248.968C732.763 249.715 733.295 250.284 733.985 250.676C734.676 251.049 735.525 251.236 736.533 251.236C737.336 251.236 738.111 251.115 738.857 250.872C739.623 250.611 740.341 250.209 741.013 249.668L741.797 251.432C741.181 251.992 740.388 252.44 739.417 252.776C738.465 253.093 737.504 253.252 736.533 253.252ZM745.582 253V251.068L752.274 243.872C752.89 243.2 753.385 242.575 753.758 241.996C754.15 241.399 754.44 240.82 754.626 240.26C754.813 239.7 754.906 239.14 754.906 238.58C754.906 237.497 754.57 236.676 753.898 236.116C753.245 235.537 752.284 235.248 751.014 235.248C750.044 235.248 749.12 235.435 748.242 235.808C747.384 236.163 746.572 236.713 745.806 237.46L744.854 235.472C745.601 234.725 746.544 234.128 747.682 233.68C748.821 233.232 750.016 233.008 751.266 233.008C752.61 233.008 753.74 233.223 754.654 233.652C755.588 234.063 756.297 234.669 756.782 235.472C757.268 236.256 757.51 237.217 757.51 238.356C757.51 238.953 757.436 239.541 757.286 240.12C757.137 240.68 756.913 241.249 756.614 241.828C756.334 242.388 755.97 242.967 755.522 243.564C755.093 244.161 754.58 244.777 753.982 245.412L748.186 251.544V250.788H758.294V253H745.582Z" fill="black"/>
<mask id="path-19-inside-2_449_4330" fill="white">
<rect x="814" y="145" width="100" height="100" rx="1"/>
</mask>
<rect x="814" y="145" width="100" height="100" rx="1" fill="white" stroke="url(#paint5_linear_449_4330)" stroke-width="4" mask="url(#path-19-inside-2_449_4330)"/>
<rect x="681" y="287" width="358" height="78" rx="9" fill="white" stroke="url(#paint6_linear_449_4330)" stroke-width="2"/>
<path d="M850.945 204.28C849.396 204.28 848.061 203.991 846.941 203.412C845.821 202.833 844.953 202.012 844.337 200.948C843.74 199.884 843.441 198.624 843.441 197.168C843.441 195.749 843.73 194.508 844.309 193.444C844.906 192.38 845.718 191.549 846.745 190.952C847.79 190.336 848.976 190.028 850.301 190.028C851.608 190.028 852.728 190.308 853.661 190.868C854.594 191.428 855.313 192.221 855.817 193.248C856.34 194.275 856.601 195.497 856.601 196.916V197.952H846.269V195.936H854.137L853.689 196.356C853.689 195.087 853.409 194.116 852.849 193.444C852.289 192.753 851.486 192.408 850.441 192.408C849.657 192.408 848.985 192.595 848.425 192.968C847.884 193.323 847.464 193.836 847.165 194.508C846.885 195.161 846.745 195.945 846.745 196.86V197.056C846.745 198.083 846.904 198.932 847.221 199.604C847.538 200.276 848.014 200.78 848.649 201.116C849.284 201.452 850.068 201.62 851.001 201.62C851.766 201.62 852.532 201.508 853.297 201.284C854.062 201.041 854.762 200.668 855.397 200.164L856.377 202.516C855.724 203.057 854.902 203.487 853.913 203.804C852.924 204.121 851.934 204.28 850.945 204.28ZM865.59 204.28C863.761 204.28 862.398 203.823 861.502 202.908C860.606 201.993 860.158 200.659 860.158 198.904V192.94H857.526V190.308H860.158V186.22H863.658V190.308H867.802V192.94H863.658V198.708C863.658 199.604 863.854 200.276 864.246 200.724C864.638 201.172 865.273 201.396 866.15 201.396C866.411 201.396 866.682 201.368 866.962 201.312C867.242 201.237 867.531 201.163 867.83 201.088L868.362 203.664C868.026 203.851 867.597 204 867.074 204.112C866.57 204.224 866.075 204.28 865.59 204.28ZM870.064 204V184.26H873.564V193.052H873.172C873.583 192.063 874.217 191.316 875.076 190.812C875.953 190.289 876.943 190.028 878.044 190.028C879.145 190.028 880.051 190.233 880.76 190.644C881.469 191.055 882.001 191.68 882.356 192.52C882.711 193.341 882.888 194.387 882.888 195.656V204H879.388V195.824C879.388 195.115 879.295 194.536 879.108 194.088C878.94 193.64 878.669 193.313 878.296 193.108C877.941 192.884 877.484 192.772 876.924 192.772C876.252 192.772 875.664 192.921 875.16 193.22C874.656 193.5 874.264 193.911 873.984 194.452C873.704 194.975 873.564 195.591 873.564 196.3V204H870.064Z" fill="black"/>
<path d="M775.92 335.252C774.894 335.252 773.923 335.168 773.008 335C772.094 334.813 771.254 334.552 770.488 334.216C769.723 333.861 769.032 333.432 768.416 332.928L769.312 330.856C769.928 331.323 770.572 331.724 771.244 332.06C771.916 332.377 772.635 332.62 773.4 332.788C774.166 332.937 775.006 333.012 775.92 333.012C777.563 333.012 778.767 332.713 779.532 332.116C780.316 331.519 780.708 330.735 780.708 329.764C780.708 329.223 780.587 328.765 780.344 328.392C780.102 328.019 779.71 327.701 779.168 327.44C778.627 327.179 777.918 326.964 777.04 326.796L774.072 326.18C772.318 325.807 771.002 325.191 770.124 324.332C769.266 323.473 768.836 322.325 768.836 320.888C768.836 319.712 769.144 318.685 769.76 317.808C770.395 316.912 771.254 316.221 772.336 315.736C773.438 315.251 774.707 315.008 776.144 315.008C777.04 315.008 777.89 315.101 778.692 315.288C779.495 315.456 780.242 315.727 780.932 316.1C781.623 316.455 782.23 316.893 782.752 317.416L781.884 319.404C781.063 318.657 780.186 318.116 779.252 317.78C778.319 317.425 777.274 317.248 776.116 317.248C775.164 317.248 774.334 317.397 773.624 317.696C772.934 317.995 772.392 318.415 772 318.956C771.627 319.479 771.44 320.095 771.44 320.804C771.44 321.663 771.702 322.335 772.224 322.82C772.747 323.305 773.624 323.679 774.856 323.94L777.796 324.528C779.663 324.92 781.044 325.527 781.94 326.348C782.855 327.151 783.312 328.233 783.312 329.596C783.312 330.716 783.014 331.705 782.416 332.564C781.819 333.404 780.96 334.067 779.84 334.552C778.739 335.019 777.432 335.252 775.92 335.252ZM792.725 335.252C791.25 335.252 789.981 334.972 788.917 334.412C787.872 333.833 787.06 333.021 786.481 331.976C785.902 330.912 785.613 329.661 785.613 328.224C785.613 326.805 785.893 325.564 786.453 324.5C787.032 323.436 787.816 322.605 788.805 322.008C789.813 321.411 790.961 321.112 792.249 321.112C793.5 321.112 794.564 321.383 795.441 321.924C796.337 322.465 797.018 323.24 797.485 324.248C797.97 325.237 798.213 326.432 798.213 327.832V328.756H787.601V327.132H796.533L796.057 327.524C796.057 326.068 795.74 324.948 795.105 324.164C794.47 323.361 793.537 322.96 792.305 322.96C791.409 322.96 790.644 323.175 790.009 323.604C789.374 324.015 788.889 324.603 788.553 325.368C788.217 326.115 788.049 326.983 788.049 327.972V328.14C788.049 329.26 788.226 330.203 788.581 330.968C788.954 331.715 789.486 332.284 790.177 332.676C790.868 333.049 791.717 333.236 792.725 333.236C793.528 333.236 794.302 333.115 795.049 332.872C795.814 332.611 796.533 332.209 797.205 331.668L797.989 333.432C797.373 333.992 796.58 334.44 795.609 334.776C794.657 335.093 793.696 335.252 792.725 335.252ZM801.382 335V321.364H803.874V324.612H803.594C803.893 323.492 804.434 322.652 805.218 322.092C806.002 321.513 807.038 321.177 808.326 321.084L809.194 321L809.39 323.212L807.794 323.352C806.562 323.483 805.61 323.884 804.938 324.556C804.285 325.228 803.958 326.152 803.958 327.328V335H801.382ZM816.488 335L810.608 321.364H813.352L818.084 333.012H817.3L822.116 321.364H824.748L818.812 335H816.488ZM826.696 318.088V315.344H829.748V318.088H826.696ZM826.948 335V321.364H829.496V335H826.948ZM839.501 335.252C838.119 335.252 836.925 334.963 835.917 334.384C834.909 333.787 834.134 332.956 833.593 331.892C833.051 330.809 832.781 329.54 832.781 328.084C832.781 326.647 833.051 325.405 833.593 324.36C834.134 323.315 834.909 322.512 835.917 321.952C836.925 321.392 838.119 321.112 839.501 321.112C840.359 321.112 841.199 321.261 842.021 321.56C842.861 321.859 843.551 322.279 844.093 322.82L843.253 324.612C842.711 324.127 842.123 323.763 841.489 323.52C840.854 323.277 840.247 323.156 839.669 323.156C838.306 323.156 837.251 323.585 836.505 324.444C835.758 325.303 835.385 326.525 835.385 328.112C835.385 329.699 835.758 330.949 836.505 331.864C837.251 332.76 838.306 333.208 839.669 333.208C840.247 333.208 840.854 333.087 841.489 332.844C842.123 332.601 842.711 332.228 843.253 331.724L844.093 333.544C843.551 334.085 842.851 334.505 841.993 334.804C841.153 335.103 840.322 335.252 839.501 335.252ZM852.635 335.252C851.16 335.252 849.891 334.972 848.827 334.412C847.782 333.833 846.97 333.021 846.391 331.976C845.812 330.912 845.523 329.661 845.523 328.224C845.523 326.805 845.803 325.564 846.363 324.5C846.942 323.436 847.726 322.605 848.715 322.008C849.723 321.411 850.871 321.112 852.159 321.112C853.41 321.112 854.474 321.383 855.351 321.924C856.247 322.465 856.928 323.24 857.395 324.248C857.88 325.237 858.123 326.432 858.123 327.832V328.756H847.511V327.132H856.443L855.967 327.524C855.967 326.068 855.65 324.948 855.015 324.164C854.38 323.361 853.447 322.96 852.215 322.96C851.319 322.96 850.554 323.175 849.919 323.604C849.284 324.015 848.799 324.603 848.463 325.368C848.127 326.115 847.959 326.983 847.959 327.972V328.14C847.959 329.26 848.136 330.203 848.491 330.968C848.864 331.715 849.396 332.284 850.087 332.676C850.778 333.049 851.627 333.236 852.635 333.236C853.438 333.236 854.212 333.115 854.959 332.872C855.724 332.611 856.443 332.209 857.115 331.668L857.899 333.432C857.283 333.992 856.49 334.44 855.519 334.776C854.567 335.093 853.606 335.252 852.635 335.252ZM865.996 335.252C865.287 335.252 864.587 335.187 863.896 335.056C863.224 334.925 862.599 334.739 862.02 334.496C861.46 334.235 860.965 333.927 860.536 333.572L861.292 331.808C861.74 332.144 862.225 332.433 862.748 332.676C863.271 332.9 863.812 333.068 864.372 333.18C864.932 333.292 865.492 333.348 866.052 333.348C867.079 333.348 867.853 333.161 868.376 332.788C868.899 332.415 869.16 331.92 869.16 331.304C869.16 330.781 868.983 330.38 868.628 330.1C868.292 329.801 867.76 329.577 867.032 329.428L864.428 328.896C863.271 328.635 862.393 328.205 861.796 327.608C861.217 326.992 860.928 326.208 860.928 325.256C860.928 324.416 861.152 323.688 861.6 323.072C862.067 322.437 862.711 321.952 863.532 321.616C864.353 321.28 865.296 321.112 866.36 321.112C866.995 321.112 867.611 321.177 868.208 321.308C868.805 321.439 869.365 321.625 869.888 321.868C870.411 322.111 870.849 322.428 871.204 322.82L870.42 324.556C870.065 324.22 869.664 323.94 869.216 323.716C868.768 323.492 868.301 323.324 867.816 323.212C867.331 323.081 866.845 323.016 866.36 323.016C865.352 323.016 864.587 323.212 864.064 323.604C863.56 323.996 863.308 324.509 863.308 325.144C863.308 325.629 863.457 326.031 863.756 326.348C864.073 326.665 864.568 326.899 865.24 327.048L867.844 327.58C869.057 327.841 869.972 328.261 870.588 328.84C871.204 329.4 871.512 330.165 871.512 331.136C871.512 331.995 871.279 332.732 870.812 333.348C870.364 333.964 869.72 334.44 868.88 334.776C868.059 335.093 867.097 335.252 865.996 335.252ZM882.101 340.04V321.364H884.593V324.5H884.313C884.611 323.473 885.199 322.652 886.077 322.036C886.954 321.42 888.009 321.112 889.241 321.112C890.454 321.112 891.509 321.401 892.405 321.98C893.301 322.54 894.001 323.352 894.505 324.416C895.009 325.461 895.261 326.712 895.261 328.168C895.261 329.605 895.009 330.865 894.505 331.948C894.019 333.012 893.319 333.833 892.405 334.412C891.509 334.972 890.454 335.252 889.241 335.252C888.027 335.252 886.982 334.944 886.105 334.328C885.227 333.712 884.639 332.9 884.341 331.892H884.649V340.04H882.101ZM888.653 333.236C889.885 333.236 890.865 332.807 891.593 331.948C892.321 331.071 892.685 329.811 892.685 328.168C892.685 326.525 892.321 325.275 891.593 324.416C890.865 323.557 889.885 323.128 888.653 323.128C887.421 323.128 886.441 323.557 885.713 324.416C884.985 325.275 884.621 326.525 884.621 328.168C884.621 329.811 884.985 331.071 885.713 331.948C886.441 332.807 887.421 333.236 888.653 333.236ZM902.874 335.252C901.418 335.252 900.326 334.841 899.598 334.02C898.889 333.18 898.534 331.976 898.534 330.408V315.26H901.082V330.212C901.082 330.847 901.166 331.388 901.334 331.836C901.521 332.265 901.782 332.583 902.118 332.788C902.473 332.993 902.912 333.096 903.434 333.096C903.64 333.096 903.845 333.087 904.05 333.068C904.274 333.049 904.48 333.012 904.666 332.956L904.61 335.028C904.312 335.103 904.013 335.159 903.714 335.196C903.434 335.233 903.154 335.252 902.874 335.252ZM911.828 335.252C910.727 335.252 909.803 335.047 909.056 334.636C908.328 334.225 907.787 333.619 907.432 332.816C907.077 332.013 906.9 331.005 906.9 329.792V321.364H909.448V329.792C909.448 330.557 909.551 331.192 909.756 331.696C909.961 332.2 910.279 332.573 910.708 332.816C911.156 333.059 911.716 333.18 912.388 333.18C913.135 333.18 913.788 333.012 914.348 332.676C914.908 332.34 915.347 331.864 915.664 331.248C915.981 330.632 916.14 329.913 916.14 329.092V321.364H918.688V335H916.196V331.92H916.56C916.187 333.003 915.58 333.833 914.74 334.412C913.919 334.972 912.948 335.252 911.828 335.252ZM928.92 340.292C927.707 340.292 926.577 340.143 925.532 339.844C924.487 339.545 923.553 339.088 922.732 338.472L923.544 336.624C924.104 336.997 924.655 337.305 925.196 337.548C925.756 337.809 926.325 337.996 926.904 338.108C927.501 338.22 928.117 338.276 928.752 338.276C930.077 338.276 931.067 337.931 931.72 337.24C932.392 336.568 932.728 335.579 932.728 334.272V331.248H932.98C932.719 332.293 932.131 333.124 931.216 333.74C930.32 334.356 929.275 334.664 928.08 334.664C926.848 334.664 925.775 334.384 924.86 333.824C923.945 333.245 923.236 332.452 922.732 331.444C922.228 330.417 921.976 329.232 921.976 327.888C921.976 326.525 922.228 325.34 922.732 324.332C923.236 323.305 923.945 322.512 924.86 321.952C925.775 321.392 926.848 321.112 928.08 321.112C929.293 321.112 930.348 321.42 931.244 322.036C932.14 322.652 932.719 323.483 932.98 324.528H932.728V321.364H935.22V333.936C935.22 335.336 934.977 336.512 934.492 337.464C934.025 338.416 933.325 339.125 932.392 339.592C931.459 340.059 930.301 340.292 928.92 340.292ZM928.64 332.648C929.891 332.648 930.88 332.219 931.608 331.36C932.336 330.501 932.7 329.344 932.7 327.888C932.7 326.413 932.336 325.256 931.608 324.416C930.88 323.557 929.891 323.128 928.64 323.128C927.389 323.128 926.391 323.557 925.644 324.416C924.916 325.256 924.552 326.413 924.552 327.888C924.552 329.344 924.916 330.501 925.644 331.36C926.391 332.219 927.389 332.648 928.64 332.648ZM939.052 318.088V315.344H942.104V318.088H939.052ZM939.304 335V321.364H941.852V335H939.304ZM945.948 335V321.364H948.44V324.332H948.132C948.524 323.268 949.159 322.465 950.036 321.924C950.932 321.383 951.95 321.112 953.088 321.112C954.19 321.112 955.095 321.308 955.804 321.7C956.514 322.092 957.046 322.699 957.4 323.52C957.755 324.323 957.932 325.331 957.932 326.544V335H955.384V326.684C955.384 325.881 955.282 325.219 955.076 324.696C954.871 324.173 954.544 323.791 954.096 323.548C953.667 323.305 953.116 323.184 952.444 323.184C951.66 323.184 950.97 323.352 950.372 323.688C949.775 324.024 949.308 324.5 948.972 325.116C948.655 325.732 948.496 326.451 948.496 327.272V335H945.948Z" fill="black"/>
<rect x="680" y="426" width="360" height="80" rx="10" fill="url(#paint7_radial_449_4330)"/>
<rect x="680" y="426" width="360" height="80" rx="10" fill="black" fill-opacity="0.08"/>
<rect x="681" y="587" width="158" height="158" rx="9" fill="white" stroke="#1C1A1A" stroke-width="2"/>
<path d="M729.382 690.04V671.364H731.874V674.5H731.594C731.893 673.473 732.481 672.652 733.358 672.036C734.235 671.42 735.29 671.112 736.522 671.112C737.735 671.112 738.79 671.401 739.686 671.98C740.582 672.54 741.282 673.352 741.786 674.416C742.29 675.461 742.542 676.712 742.542 678.168C742.542 679.605 742.29 680.865 741.786 681.948C741.301 683.012 740.601 683.833 739.686 684.412C738.79 684.972 737.735 685.252 736.522 685.252C735.309 685.252 734.263 684.944 733.386 684.328C732.509 683.712 731.921 682.9 731.622 681.892H731.93V690.04H729.382ZM735.934 683.236C737.166 683.236 738.146 682.807 738.874 681.948C739.602 681.071 739.966 679.811 739.966 678.168C739.966 676.525 739.602 675.275 738.874 674.416C738.146 673.557 737.166 673.128 735.934 673.128C734.702 673.128 733.722 673.557 732.994 674.416C732.266 675.275 731.902 676.525 731.902 678.168C731.902 679.811 732.266 681.071 732.994 681.948C733.722 682.807 734.702 683.236 735.934 683.236ZM751.611 685.252C750.267 685.252 749.101 684.963 748.111 684.384C747.122 683.805 746.357 682.984 745.815 681.92C745.274 680.856 745.003 679.605 745.003 678.168C745.003 676.731 745.274 675.489 745.815 674.444C746.357 673.38 747.122 672.559 748.111 671.98C749.101 671.401 750.267 671.112 751.611 671.112C752.955 671.112 754.122 671.401 755.111 671.98C756.101 672.559 756.866 673.38 757.407 674.444C757.949 675.489 758.219 676.731 758.219 678.168C758.219 679.605 757.949 680.856 757.407 681.92C756.866 682.984 756.101 683.805 755.111 684.384C754.122 684.963 752.955 685.252 751.611 685.252ZM751.611 683.236C752.843 683.236 753.823 682.807 754.551 681.948C755.279 681.071 755.643 679.811 755.643 678.168C755.643 676.525 755.279 675.275 754.551 674.416C753.823 673.557 752.843 673.128 751.611 673.128C750.398 673.128 749.418 673.557 748.671 674.416C747.943 675.275 747.579 676.525 747.579 678.168C747.579 679.811 747.943 681.071 748.671 681.948C749.418 682.807 750.398 683.236 751.611 683.236ZM766.691 685.252C765.497 685.252 764.442 684.972 763.527 684.412C762.631 683.833 761.931 683.012 761.427 681.948C760.923 680.865 760.671 679.605 760.671 678.168C760.671 676.712 760.914 675.461 761.399 674.416C761.903 673.352 762.603 672.54 763.499 671.98C764.414 671.401 765.478 671.112 766.691 671.112C767.905 671.112 768.95 671.42 769.827 672.036C770.705 672.633 771.293 673.436 771.591 674.444H771.283V665.26H773.831V685H771.311V681.836H771.591C771.311 682.881 770.723 683.712 769.827 684.328C768.95 684.944 767.905 685.252 766.691 685.252ZM767.279 683.236C768.511 683.236 769.491 682.807 770.219 681.948C770.947 681.071 771.311 679.811 771.311 678.168C771.311 676.525 770.947 675.275 770.219 674.416C769.491 673.557 768.511 673.128 767.279 673.128C766.066 673.128 765.086 673.557 764.339 674.416C763.611 675.275 763.247 676.525 763.247 678.168C763.247 679.811 763.611 681.071 764.339 681.948C765.086 682.807 766.066 683.236 767.279 683.236ZM784.637 685.252C783.797 685.252 782.966 685.159 782.145 684.972C781.342 684.785 780.586 684.524 779.877 684.188C779.168 683.833 778.552 683.413 778.029 682.928L778.953 680.912C779.849 681.621 780.754 682.153 781.669 682.508C782.602 682.844 783.582 683.012 784.609 683.012C785.934 683.012 786.97 682.648 787.717 681.92C788.482 681.192 788.865 680.221 788.865 679.008C788.865 677.776 788.501 676.768 787.773 675.984C787.045 675.2 786.056 674.808 784.805 674.808C783.89 674.808 783.078 674.995 782.369 675.368C781.66 675.723 781.034 676.292 780.493 677.076H778.645V665.26H790.237V667.472H781.193V674.948H780.465C780.969 674.201 781.641 673.623 782.481 673.212C783.321 672.801 784.264 672.596 785.309 672.596C786.56 672.596 787.633 672.867 788.529 673.408C789.444 673.931 790.153 674.668 790.657 675.62C791.161 676.553 791.413 677.645 791.413 678.896C791.413 680.128 791.133 681.229 790.573 682.2C790.032 683.152 789.257 683.899 788.249 684.44C787.241 684.981 786.037 685.252 784.637 685.252Z" fill="black"/>
<rect x="881" y="587" width="158" height="158" rx="9" fill="white" stroke="#1C1A1A" stroke-width="2"/>
<path d="M805.475 475.28C803.421 475.28 801.657 474.869 800.183 474.048C798.727 473.208 797.607 472.032 796.823 470.52C796.039 468.989 795.647 467.188 795.647 465.116C795.647 463.044 796.039 461.252 796.823 459.74C797.607 458.228 798.727 457.061 800.183 456.24C801.657 455.4 803.421 454.98 805.475 454.98C806.8 454.98 808.051 455.185 809.227 455.596C810.421 456.007 811.401 456.595 812.167 457.36L810.991 460.216C810.151 459.507 809.292 458.993 808.415 458.676C807.537 458.34 806.595 458.172 805.587 458.172C803.589 458.172 802.068 458.779 801.023 459.992C799.977 461.187 799.455 462.895 799.455 465.116C799.455 467.337 799.977 469.055 801.023 470.268C802.068 471.481 803.589 472.088 805.587 472.088C806.595 472.088 807.537 471.929 808.415 471.612C809.292 471.276 810.151 470.753 810.991 470.044L812.167 472.9C811.401 473.647 810.421 474.235 809.227 474.664C808.051 475.075 806.8 475.28 805.475 475.28ZM815.295 475V455.26H817.983L829.323 469.988H828.595V455.26H831.927V475H829.267L817.927 460.244H818.627V475H815.295ZM836.24 475V455.26H839.824V475H836.24ZM851.326 480.04V461.308H854.742V464.192H854.462C854.742 463.24 855.311 462.475 856.17 461.896C857.047 461.317 858.065 461.028 859.222 461.028C860.417 461.028 861.462 461.317 862.358 461.896C863.273 462.475 863.982 463.296 864.486 464.36C864.99 465.405 865.242 466.665 865.242 468.14C865.242 469.596 864.99 470.865 864.486 471.948C863.982 473.012 863.282 473.833 862.386 474.412C861.49 474.991 860.435 475.28 859.222 475.28C858.083 475.28 857.085 475 856.226 474.44C855.367 473.861 854.789 473.115 854.49 472.2H854.826V480.04H851.326ZM858.242 472.62C859.287 472.62 860.127 472.247 860.762 471.5C861.397 470.735 861.714 469.615 861.714 468.14C861.714 466.647 861.397 465.536 860.762 464.808C860.127 464.061 859.287 463.688 858.242 463.688C857.197 463.688 856.357 464.061 855.722 464.808C855.087 465.536 854.77 466.647 854.77 468.14C854.77 469.615 855.087 470.735 855.722 471.5C856.357 472.247 857.197 472.62 858.242 472.62ZM872.875 475.28C871.251 475.28 870.047 474.841 869.263 473.964C868.498 473.068 868.115 471.761 868.115 470.044V455.26H871.615V469.876C871.615 470.417 871.69 470.884 871.839 471.276C872.007 471.649 872.25 471.929 872.567 472.116C872.884 472.303 873.276 472.396 873.743 472.396C873.948 472.396 874.154 472.387 874.359 472.368C874.564 472.349 874.76 472.312 874.947 472.256L874.891 475.028C874.555 475.103 874.219 475.159 873.883 475.196C873.566 475.252 873.23 475.28 872.875 475.28ZM882.012 475.28C880.874 475.28 879.931 475.075 879.184 474.664C878.438 474.235 877.878 473.6 877.504 472.76C877.15 471.92 876.972 470.875 876.972 469.624V461.308H880.472V469.68C880.472 470.315 880.556 470.847 880.724 471.276C880.911 471.705 881.182 472.023 881.536 472.228C881.91 472.433 882.376 472.536 882.936 472.536C883.571 472.536 884.122 472.396 884.588 472.116C885.074 471.817 885.447 471.407 885.708 470.884C885.988 470.343 886.128 469.717 886.128 469.008V461.308H889.628V475H886.212V472.144H886.604C886.212 473.152 885.615 473.927 884.812 474.468C884.028 475.009 883.095 475.28 882.012 475.28ZM899.655 480.32C898.386 480.32 897.191 480.171 896.071 479.872C894.97 479.592 893.999 479.153 893.159 478.556L894.167 476.12C894.69 476.456 895.241 476.736 895.819 476.96C896.398 477.203 896.986 477.38 897.583 477.492C898.181 477.604 898.778 477.66 899.375 477.66C900.626 477.66 901.559 477.352 902.175 476.736C902.81 476.139 903.127 475.243 903.127 474.048V471.528H903.379C903.099 472.48 902.511 473.245 901.615 473.824C900.738 474.384 899.739 474.664 898.619 474.664C897.387 474.664 896.314 474.384 895.399 473.824C894.485 473.245 893.775 472.443 893.271 471.416C892.767 470.389 892.515 469.195 892.515 467.832C892.515 466.469 892.767 465.284 893.271 464.276C893.775 463.249 894.485 462.456 895.399 461.896C896.314 461.317 897.387 461.028 898.619 461.028C899.777 461.028 900.785 461.317 901.643 461.896C902.521 462.456 903.09 463.203 903.351 464.136H903.127V461.308H906.543V473.628C906.543 475.103 906.282 476.335 905.759 477.324C905.237 478.332 904.462 479.079 903.435 479.564C902.409 480.068 901.149 480.32 899.655 480.32ZM899.571 472.004C900.654 472.004 901.513 471.631 902.147 470.884C902.782 470.137 903.099 469.12 903.099 467.832C903.099 466.544 902.782 465.536 902.147 464.808C901.513 464.061 900.654 463.688 899.571 463.688C898.489 463.688 897.63 464.061 896.995 464.808C896.361 465.536 896.043 466.544 896.043 467.832C896.043 469.12 896.361 470.137 896.995 470.884C897.63 471.631 898.489 472.004 899.571 472.004ZM909.946 458.368V454.952H913.866V458.368H909.946ZM910.17 475V461.308H913.67V475H910.17ZM917.306 475V461.308H920.722V464.052H920.414C920.825 463.063 921.46 462.316 922.318 461.812C923.196 461.289 924.185 461.028 925.286 461.028C926.388 461.028 927.293 461.233 928.002 461.644C928.712 462.055 929.244 462.68 929.598 463.52C929.953 464.341 930.13 465.387 930.13 466.656V475H926.63V466.824C926.63 466.115 926.537 465.536 926.35 465.088C926.182 464.64 925.912 464.313 925.538 464.108C925.184 463.884 924.726 463.772 924.166 463.772C923.494 463.772 922.906 463.921 922.402 464.22C921.898 464.5 921.506 464.911 921.226 465.452C920.946 465.975 920.806 466.591 920.806 467.3V475H917.306Z" fill="white"/>
<rect x="710" y="534" width="100" height="100" rx="10" fill="url(#paint8_radial_449_4330)"/>
<rect x="710" y="534" width="100" height="100" rx="10" fill="black" fill-opacity="0.08"/>
<path d="M736.983 593L731.047 579.308H734.771L738.999 589.92H738.159L742.527 579.308H746.027L740.007 593H736.983ZM754.191 593.28C752.642 593.28 751.307 592.991 750.187 592.412C749.067 591.833 748.199 591.012 747.583 589.948C746.986 588.884 746.687 587.624 746.687 586.168C746.687 584.749 746.976 583.508 747.555 582.444C748.152 581.38 748.964 580.549 749.991 579.952C751.036 579.336 752.222 579.028 753.547 579.028C754.854 579.028 755.974 579.308 756.907 579.868C757.84 580.428 758.559 581.221 759.063 582.248C759.586 583.275 759.847 584.497 759.847 585.916V586.952H749.515V584.936H757.383L756.935 585.356C756.935 584.087 756.655 583.116 756.095 582.444C755.535 581.753 754.732 581.408 753.687 581.408C752.903 581.408 752.231 581.595 751.671 581.968C751.13 582.323 750.71 582.836 750.411 583.508C750.131 584.161 749.991 584.945 749.991 585.86V586.056C749.991 587.083 750.15 587.932 750.467 588.604C750.784 589.276 751.26 589.78 751.895 590.116C752.53 590.452 753.314 590.62 754.247 590.62C755.012 590.62 755.778 590.508 756.543 590.284C757.308 590.041 758.008 589.668 758.643 589.164L759.623 591.516C758.97 592.057 758.148 592.487 757.159 592.804C756.17 593.121 755.18 593.28 754.191 593.28ZM768.836 593.28C767.007 593.28 765.644 592.823 764.748 591.908C763.852 590.993 763.404 589.659 763.404 587.904V581.94H760.772V579.308H763.404V575.22H766.904V579.308H771.048V581.94H766.904V587.708C766.904 588.604 767.1 589.276 767.492 589.724C767.884 590.172 768.519 590.396 769.396 590.396C769.657 590.396 769.928 590.368 770.208 590.312C770.488 590.237 770.777 590.163 771.076 590.088L771.608 592.664C771.272 592.851 770.843 593 770.32 593.112C769.816 593.224 769.321 593.28 768.836 593.28ZM773.31 593V573.26H776.81V582.052H776.418C776.829 581.063 777.464 580.316 778.322 579.812C779.2 579.289 780.189 579.028 781.29 579.028C782.392 579.028 783.297 579.233 784.006 579.644C784.716 580.055 785.248 580.68 785.602 581.52C785.957 582.341 786.134 583.387 786.134 584.656V593H782.634V584.824C782.634 584.115 782.541 583.536 782.354 583.088C782.186 582.64 781.916 582.313 781.542 582.108C781.188 581.884 780.73 581.772 780.17 581.772C779.498 581.772 778.91 581.921 778.406 582.22C777.902 582.5 777.51 582.911 777.23 583.452C776.95 583.975 776.81 584.591 776.81 585.3V593H773.31Z" fill="white"/>
<rect x="910" y="534" width="100" height="100" rx="10" fill="url(#paint9_radial_449_4330)"/>
<rect x="910" y="534" width="100" height="100" rx="10" fill="black" fill-opacity="0.08"/>
<path d="M936.983 593L931.047 579.308H934.771L938.999 589.92H938.159L942.527 579.308H946.027L940.007 593H936.983ZM954.191 593.28C952.642 593.28 951.307 592.991 950.187 592.412C949.067 591.833 948.199 591.012 947.583 589.948C946.986 588.884 946.687 587.624 946.687 586.168C946.687 584.749 946.976 583.508 947.555 582.444C948.152 581.38 948.964 580.549 949.991 579.952C951.036 579.336 952.222 579.028 953.547 579.028C954.854 579.028 955.974 579.308 956.907 579.868C957.84 580.428 958.559 581.221 959.063 582.248C959.586 583.275 959.847 584.497 959.847 585.916V586.952H949.515V584.936H957.383L956.935 585.356C956.935 584.087 956.655 583.116 956.095 582.444C955.535 581.753 954.732 581.408 953.687 581.408C952.903 581.408 952.231 581.595 951.671 581.968C951.13 582.323 950.71 582.836 950.411 583.508C950.131 584.161 949.991 584.945 949.991 585.86V586.056C949.991 587.083 950.15 587.932 950.467 588.604C950.784 589.276 951.26 589.78 951.895 590.116C952.53 590.452 953.314 590.62 954.247 590.62C955.012 590.62 955.778 590.508 956.543 590.284C957.308 590.041 958.008 589.668 958.643 589.164L959.623 591.516C958.97 592.057 958.148 592.487 957.159 592.804C956.17 593.121 955.18 593.28 954.191 593.28ZM968.836 593.28C967.007 593.28 965.644 592.823 964.748 591.908C963.852 590.993 963.404 589.659 963.404 587.904V581.94H960.772V579.308H963.404V575.22H966.904V579.308H971.048V581.94H966.904V587.708C966.904 588.604 967.1 589.276 967.492 589.724C967.884 590.172 968.519 590.396 969.396 590.396C969.657 590.396 969.928 590.368 970.208 590.312C970.488 590.237 970.777 590.163 971.076 590.088L971.608 592.664C971.272 592.851 970.843 593 970.32 593.112C969.816 593.224 969.321 593.28 968.836 593.28ZM973.31 593V573.26H976.81V582.052H976.418C976.829 581.063 977.464 580.316 978.322 579.812C979.2 579.289 980.189 579.028 981.29 579.028C982.392 579.028 983.297 579.233 984.006 579.644C984.716 580.055 985.248 580.68 985.602 581.52C985.957 582.341 986.134 583.387 986.134 584.656V593H982.634V584.824C982.634 584.115 982.541 583.536 982.354 583.088C982.186 582.64 981.916 582.313 981.542 582.108C981.188 581.884 980.73 581.772 980.17 581.772C979.498 581.772 978.91 581.921 978.406 582.22C977.902 582.5 977.51 582.911 977.23 583.452C976.95 583.975 976.81 584.591 976.81 585.3V593H973.31Z" fill="white"/>
<path d="M929.382 690.04V671.364H931.874V674.5H931.594C931.893 673.473 932.481 672.652 933.358 672.036C934.235 671.42 935.29 671.112 936.522 671.112C937.735 671.112 938.79 671.401 939.686 671.98C940.582 672.54 941.282 673.352 941.786 674.416C942.29 675.461 942.542 676.712 942.542 678.168C942.542 679.605 942.29 680.865 941.786 681.948C941.301 683.012 940.601 683.833 939.686 684.412C938.79 684.972 937.735 685.252 936.522 685.252C935.309 685.252 934.263 684.944 933.386 684.328C932.509 683.712 931.921 682.9 931.622 681.892H931.93V690.04H929.382ZM935.934 683.236C937.166 683.236 938.146 682.807 938.874 681.948C939.602 681.071 939.966 679.811 939.966 678.168C939.966 676.525 939.602 675.275 938.874 674.416C938.146 673.557 937.166 673.128 935.934 673.128C934.702 673.128 933.722 673.557 932.994 674.416C932.266 675.275 931.902 676.525 931.902 678.168C931.902 679.811 932.266 681.071 932.994 681.948C933.722 682.807 934.702 683.236 935.934 683.236ZM951.611 685.252C950.267 685.252 949.101 684.963 948.111 684.384C947.122 683.805 946.357 682.984 945.815 681.92C945.274 680.856 945.003 679.605 945.003 678.168C945.003 676.731 945.274 675.489 945.815 674.444C946.357 673.38 947.122 672.559 948.111 671.98C949.101 671.401 950.267 671.112 951.611 671.112C952.955 671.112 954.122 671.401 955.111 671.98C956.101 672.559 956.866 673.38 957.407 674.444C957.949 675.489 958.219 676.731 958.219 678.168C958.219 679.605 957.949 680.856 957.407 681.92C956.866 682.984 956.101 683.805 955.111 684.384C954.122 684.963 952.955 685.252 951.611 685.252ZM951.611 683.236C952.843 683.236 953.823 682.807 954.551 681.948C955.279 681.071 955.643 679.811 955.643 678.168C955.643 676.525 955.279 675.275 954.551 674.416C953.823 673.557 952.843 673.128 951.611 673.128C950.398 673.128 949.418 673.557 948.671 674.416C947.943 675.275 947.579 676.525 947.579 678.168C947.579 679.811 947.943 681.071 948.671 681.948C949.418 682.807 950.398 683.236 951.611 683.236ZM966.691 685.252C965.497 685.252 964.442 684.972 963.527 684.412C962.631 683.833 961.931 683.012 961.427 681.948C960.923 680.865 960.671 679.605 960.671 678.168C960.671 676.712 960.914 675.461 961.399 674.416C961.903 673.352 962.603 672.54 963.499 671.98C964.414 671.401 965.478 671.112 966.691 671.112C967.905 671.112 968.95 671.42 969.827 672.036C970.705 672.633 971.293 673.436 971.591 674.444H971.283V665.26H973.831V685H971.311V681.836H971.591C971.311 682.881 970.723 683.712 969.827 684.328C968.95 684.944 967.905 685.252 966.691 685.252ZM967.279 683.236C968.511 683.236 969.491 682.807 970.219 681.948C970.947 681.071 971.311 679.811 971.311 678.168C971.311 676.525 970.947 675.275 970.219 674.416C969.491 673.557 968.511 673.128 967.279 673.128C966.066 673.128 965.086 673.557 964.339 674.416C963.611 675.275 963.247 676.525 963.247 678.168C963.247 679.811 963.611 681.071 964.339 681.948C965.086 682.807 966.066 683.236 967.279 683.236ZM986.261 685V680.884H977.245V678.952L986.709 665.26H988.837V678.672H991.749V680.884H988.837V685H986.261ZM986.261 678.672V668.396H986.961L979.401 679.372V678.672H986.261Z" fill="black"/>
<path d="M337 85L865 85" stroke="#292449" stroke-width="2" stroke-dasharray="5 5"/>
<path d="M865 145L865 85" stroke="#292449" stroke-width="2" stroke-dasharray="5 5"/>
<path d="M337 145L337 85" stroke="#292449" stroke-width="2" stroke-dasharray="5 5"/>
<path d="M208.5 534C208.5 534.828 209.172 535.5 210 535.5C210.828 535.5 211.5 534.828 211.5 534H208.5ZM758.939 531.061C759.525 531.646 760.475 531.646 761.061 531.061L770.607 521.515C771.192 520.929 771.192 519.979 770.607 519.393C770.021 518.808 769.071 518.808 768.485 519.393L760 527.879L751.515 519.393C750.929 518.808 749.979 518.808 749.393 519.393C748.808 519.979 748.808 520.929 749.393 521.515L758.939 531.061ZM211.5 531C211.5 530.172 210.828 529.5 210 529.5C209.172 529.5 208.5 530.172 208.5 531H211.5ZM208.5 525C208.5 525.828 209.172 526.5 210 526.5C210.828 526.5 211.5 525.828 211.5 525H208.5ZM211.5 519C211.5 518.172 210.828 517.5 210 517.5C209.172 517.5 208.5 518.172 208.5 519H211.5ZM208.5 513C208.5 513.828 209.172 514.5 210 514.5C210.828 514.5 211.5 513.828 211.5 513H208.5ZM211.69 507.059C211.797 506.238 211.218 505.485 210.397 505.378C209.575 505.271 208.823 505.85 208.715 506.671L211.69 507.059ZM210.436 500.239C210.118 501.004 210.481 501.881 211.247 502.199C212.012 502.516 212.889 502.153 213.207 501.388L210.436 500.239ZM216.148 496.303C216.653 495.646 216.529 494.705 215.872 494.2C215.216 493.695 214.274 493.818 213.769 494.475L216.148 496.303ZM218.475 489.769C217.818 490.274 217.695 491.216 218.2 491.872C218.705 492.529 219.646 492.653 220.303 492.148L218.475 489.769ZM225.388 489.207C226.153 488.889 226.516 488.012 226.199 487.247C225.881 486.481 225.004 486.118 224.239 486.436L225.388 489.207ZM230.671 484.715C229.85 484.823 229.271 485.575 229.378 486.397C229.485 487.218 230.238 487.797 231.059 487.69L230.671 484.715ZM236.988 487.5C237.817 487.5 238.488 486.828 238.488 486C238.488 485.172 237.817 484.5 236.988 484.5V487.5ZM242.964 484.5C242.136 484.5 241.464 485.172 241.464 486C241.464 486.828 242.136 487.5 242.964 487.5V484.5ZM248.94 487.5C249.769 487.5 250.44 486.828 250.44 486C250.44 485.172 249.769 484.5 248.94 484.5V487.5ZM254.917 484.5C254.088 484.5 253.417 485.172 253.417 486C253.417 486.828 254.088 487.5 254.917 487.5V484.5ZM260.893 487.5C261.721 487.5 262.393 486.828 262.393 486C262.393 485.172 261.721 484.5 260.893 484.5V487.5ZM266.869 484.5C266.041 484.5 265.369 485.172 265.369 486C265.369 486.828 266.041 487.5 266.869 487.5V484.5ZM272.845 487.5C273.674 487.5 274.345 486.828 274.345 486C274.345 485.172 273.674 484.5 272.845 484.5V487.5ZM278.821 484.5C277.993 484.5 277.321 485.172 277.321 486C277.321 486.828 277.993 487.5 278.821 487.5V484.5ZM284.798 487.5C285.626 487.5 286.298 486.828 286.298 486C286.298 485.172 285.626 484.5 284.798 484.5V487.5ZM290.774 484.5C289.945 484.5 289.274 485.172 289.274 486C289.274 486.828 289.945 487.5 290.774 487.5V484.5ZM296.75 487.5C297.578 487.5 298.25 486.828 298.25 486C298.25 485.172 297.578 484.5 296.75 484.5V487.5ZM302.726 484.5C301.898 484.5 301.226 485.172 301.226 486C301.226 486.828 301.898 487.5 302.726 487.5V484.5ZM308.702 487.5C309.531 487.5 310.202 486.828 310.202 486C310.202 485.172 309.531 484.5 308.702 484.5V487.5ZM314.679 484.5C313.85 484.5 313.179 485.172 313.179 486C313.179 486.828 313.85 487.5 314.679 487.5V484.5ZM320.655 487.5C321.483 487.5 322.155 486.828 322.155 486C322.155 485.172 321.483 484.5 320.655 484.5V487.5ZM326.631 484.5C325.803 484.5 325.131 485.172 325.131 486C325.131 486.828 325.803 487.5 326.631 487.5V484.5ZM332.607 487.5C333.436 487.5 334.107 486.828 334.107 486C334.107 485.172 333.436 484.5 332.607 484.5V487.5ZM338.583 484.5C337.755 484.5 337.083 485.172 337.083 486C337.083 486.828 337.755 487.5 338.583 487.5V484.5ZM344.559 487.5C345.388 487.5 346.059 486.828 346.059 486C346.059 485.172 345.388 484.5 344.559 484.5V487.5ZM350.536 484.5C349.707 484.5 349.036 485.172 349.036 486C349.036 486.828 349.707 487.5 350.536 487.5V484.5ZM356.512 487.5C357.34 487.5 358.012 486.828 358.012 486C358.012 485.172 357.34 484.5 356.512 484.5V487.5ZM362.488 484.5C361.66 484.5 360.988 485.172 360.988 486C360.988 486.828 361.66 487.5 362.488 487.5V484.5ZM368.464 487.5C369.293 487.5 369.964 486.828 369.964 486C369.964 485.172 369.293 484.5 368.464 484.5V487.5ZM374.44 484.5C373.612 484.5 372.94 485.172 372.94 486C372.94 486.828 373.612 487.5 374.44 487.5V484.5ZM380.417 487.5C381.245 487.5 381.917 486.828 381.917 486C381.917 485.172 381.245 484.5 380.417 484.5V487.5ZM386.393 484.5C385.564 484.5 384.893 485.172 384.893 486C384.893 486.828 385.564 487.5 386.393 487.5V484.5ZM392.369 487.5C393.197 487.5 393.869 486.828 393.869 486C393.869 485.172 393.197 484.5 392.369 484.5V487.5ZM398.345 484.5C397.517 484.5 396.845 485.172 396.845 486C396.845 486.828 397.517 487.5 398.345 487.5V484.5ZM404.321 487.5C405.15 487.5 405.821 486.828 405.821 486C405.821 485.172 405.15 484.5 404.321 484.5V487.5ZM410.298 484.5C409.469 484.5 408.798 485.172 408.798 486C408.798 486.828 409.469 487.5 410.298 487.5V484.5ZM416.274 487.5C417.102 487.5 417.774 486.828 417.774 486C417.774 485.172 417.102 484.5 416.274 484.5V487.5ZM422.25 484.5C421.422 484.5 420.75 485.172 420.75 486C420.75 486.828 421.422 487.5 422.25 487.5V484.5ZM428.226 487.5C429.055 487.5 429.726 486.828 429.726 486C429.726 485.172 429.055 484.5 428.226 484.5V487.5ZM434.202 484.5C433.374 484.5 432.702 485.172 432.702 486C432.702 486.828 433.374 487.5 434.202 487.5V484.5ZM440.179 487.5C441.007 487.5 441.679 486.828 441.679 486C441.679 485.172 441.007 484.5 440.179 484.5V487.5ZM446.155 484.5C445.326 484.5 444.655 485.172 444.655 486C444.655 486.828 445.326 487.5 446.155 487.5V484.5ZM452.131 487.5C452.959 487.5 453.631 486.828 453.631 486C453.631 485.172 452.959 484.5 452.131 484.5V487.5ZM458.107 484.5C457.279 484.5 456.607 485.172 456.607 486C456.607 486.828 457.279 487.5 458.107 487.5V484.5ZM464.083 487.5C464.912 487.5 465.583 486.828 465.583 486C465.583 485.172 464.912 484.5 464.083 484.5V487.5ZM470.06 484.5C469.231 484.5 468.56 485.172 468.56 486C468.56 486.828 469.231 487.5 470.06 487.5V484.5ZM476.036 487.5C476.864 487.5 477.536 486.828 477.536 486C477.536 485.172 476.864 484.5 476.036 484.5V487.5ZM482.012 484.5C481.184 484.5 480.512 485.172 480.512 486C480.512 486.828 481.184 487.5 482.012 487.5V484.5ZM487.988 487.5C488.817 487.5 489.488 486.828 489.488 486C489.488 485.172 488.817 484.5 487.988 484.5V487.5ZM493.964 484.5C493.136 484.5 492.464 485.172 492.464 486C492.464 486.828 493.136 487.5 493.964 487.5V484.5ZM499.941 487.5C500.769 487.5 501.441 486.828 501.441 486C501.441 485.172 500.769 484.5 499.941 484.5V487.5ZM505.917 484.5C505.088 484.5 504.417 485.172 504.417 486C504.417 486.828 505.088 487.5 505.917 487.5V484.5ZM511.893 487.5C512.721 487.5 513.393 486.828 513.393 486C513.393 485.172 512.721 484.5 511.893 484.5V487.5ZM517.869 484.5C517.041 484.5 516.369 485.172 516.369 486C516.369 486.828 517.041 487.5 517.869 487.5V484.5ZM523.845 487.5C524.674 487.5 525.345 486.828 525.345 486C525.345 485.172 524.674 484.5 523.845 484.5V487.5ZM529.822 484.5C528.993 484.5 528.322 485.172 528.322 486C528.322 486.828 528.993 487.5 529.822 487.5V484.5ZM535.798 487.5C536.626 487.5 537.298 486.828 537.298 486C537.298 485.172 536.626 484.5 535.798 484.5V487.5ZM541.774 484.5C540.946 484.5 540.274 485.172 540.274 486C540.274 486.828 540.946 487.5 541.774 487.5V484.5ZM547.75 487.5C548.579 487.5 549.25 486.828 549.25 486C549.25 485.172 548.579 484.5 547.75 484.5V487.5ZM553.726 484.5C552.898 484.5 552.226 485.172 552.226 486C552.226 486.828 552.898 487.5 553.726 487.5V484.5ZM559.703 487.5C560.531 487.5 561.203 486.828 561.203 486C561.203 485.172 560.531 484.5 559.703 484.5V487.5ZM565.679 484.5C564.85 484.5 564.179 485.172 564.179 486C564.179 486.828 564.85 487.5 565.679 487.5V484.5ZM571.655 487.5C572.483 487.5 573.155 486.828 573.155 486C573.155 485.172 572.483 484.5 571.655 484.5V487.5ZM577.631 484.5C576.803 484.5 576.131 485.172 576.131 486C576.131 486.828 576.803 487.5 577.631 487.5V484.5ZM583.607 487.5C584.436 487.5 585.107 486.828 585.107 486C585.107 485.172 584.436 484.5 583.607 484.5V487.5ZM589.584 484.5C588.755 484.5 588.084 485.172 588.084 486C588.084 486.828 588.755 487.5 589.584 487.5V484.5ZM595.56 487.5C596.388 487.5 597.06 486.828 597.06 486C597.06 485.172 596.388 484.5 595.56 484.5V487.5ZM601.536 484.5C600.707 484.5 600.036 485.172 600.036 486C600.036 486.828 600.707 487.5 601.536 487.5V484.5ZM607.512 487.5C608.341 487.5 609.012 486.828 609.012 486C609.012 485.172 608.341 484.5 607.512 484.5V487.5ZM613.488 484.5C612.66 484.5 611.988 485.172 611.988 486C611.988 486.828 612.66 487.5 613.488 487.5V484.5ZM619.465 487.5C620.293 487.5 620.965 486.828 620.965 486C620.965 485.172 620.293 484.5 619.465 484.5V487.5ZM625.441 484.5C624.612 484.5 623.941 485.172 623.941 486C623.941 486.828 624.612 487.5 625.441 487.5V484.5ZM631.417 487.5C632.245 487.5 632.917 486.828 632.917 486C632.917 485.172 632.245 484.5 631.417 484.5V487.5ZM637.393 484.5C636.565 484.5 635.893 485.172 635.893 486C635.893 486.828 636.565 487.5 637.393 487.5V484.5ZM643.369 487.5C644.198 487.5 644.869 486.828 644.869 486C644.869 485.172 644.198 484.5 643.369 484.5V487.5ZM649.345 484.5C648.517 484.5 647.845 485.172 647.845 486C647.845 486.828 648.517 487.5 649.345 487.5V484.5ZM655.322 487.5C656.15 487.5 656.822 486.828 656.822 486C656.822 485.172 656.15 484.5 655.322 484.5V487.5ZM661.298 484.5C660.469 484.5 659.798 485.172 659.798 486C659.798 486.828 660.469 487.5 661.298 487.5V484.5ZM667.274 487.5C668.102 487.5 668.774 486.828 668.774 486C668.774 485.172 668.102 484.5 667.274 484.5V487.5ZM673.25 484.5C672.422 484.5 671.75 485.172 671.75 486C671.75 486.828 672.422 487.5 673.25 487.5V484.5ZM679.226 487.5C680.055 487.5 680.726 486.828 680.726 486C680.726 485.172 680.055 484.5 679.226 484.5V487.5ZM685.203 484.5C684.374 484.5 683.703 485.172 683.703 486C683.703 486.828 684.374 487.5 685.203 487.5V484.5ZM691.179 487.5C692.007 487.5 692.679 486.828 692.679 486C692.679 485.172 692.007 484.5 691.179 484.5V487.5ZM697.155 484.5C696.327 484.5 695.655 485.172 695.655 486C695.655 486.828 696.327 487.5 697.155 487.5V484.5ZM703.131 487.5C703.96 487.5 704.631 486.828 704.631 486C704.631 485.172 703.96 484.5 703.131 484.5V487.5ZM709.107 484.5C708.279 484.5 707.607 485.172 707.607 486C707.607 486.828 708.279 487.5 709.107 487.5V484.5ZM715.084 487.5C715.912 487.5 716.584 486.828 716.584 486C716.584 485.172 715.912 484.5 715.084 484.5V487.5ZM721.06 484.5C720.231 484.5 719.56 485.172 719.56 486C719.56 486.828 720.231 487.5 721.06 487.5V484.5ZM727.036 487.5C727.864 487.5 728.536 486.828 728.536 486C728.536 485.172 727.864 484.5 727.036 484.5V487.5ZM733.012 484.5C732.184 484.5 731.512 485.172 731.512 486C731.512 486.828 732.184 487.5 733.012 487.5V484.5ZM738.941 487.69C739.762 487.797 740.515 487.218 740.622 486.397C740.729 485.575 740.15 484.823 739.329 484.715L738.941 487.69ZM745.761 486.436C744.996 486.118 744.119 486.481 743.801 487.247C743.484 488.012 743.847 488.889 744.612 489.207L745.761 486.436ZM749.697 492.148C750.354 492.653 751.295 492.529 751.8 491.872C752.305 491.216 752.182 490.274 751.525 489.769L749.697 492.148ZM756.231 494.475C755.726 493.818 754.784 493.695 754.128 494.2C753.471 494.705 753.347 495.646 753.852 496.303L756.231 494.475ZM756.793 501.388C757.111 502.153 757.988 502.516 758.753 502.199C759.519 501.881 759.882 501.004 759.564 500.239L756.793 501.388ZM761.285 506.671C761.177 505.85 760.425 505.271 759.603 505.378C758.782 505.485 758.203 506.238 758.31 507.059L761.285 506.671ZM758.5 512.5C758.5 513.328 759.172 514 760 514C760.828 514 761.5 513.328 761.5 512.5H758.5ZM761.5 517.5C761.5 516.672 760.828 516 760 516C759.172 516 758.5 516.672 758.5 517.5H761.5ZM758.5 522.5C758.5 523.328 759.172 524 760 524C760.828 524 761.5 523.328 761.5 522.5H758.5ZM761.5 527.5C761.5 526.672 760.828 526 760 526C759.172 526 758.5 526.672 758.5 527.5H761.5ZM211.5 534V531H208.5V534H211.5ZM211.5 525V519H208.5V525H211.5ZM211.5 513V510H208.5V513H211.5ZM211.5 510C211.5 509.003 211.565 508.021 211.69 507.059L208.715 506.671C208.573 507.761 208.5 508.873 208.5 510H211.5ZM213.207 501.388C213.965 499.559 214.958 497.852 216.148 496.303L213.769 494.475C212.421 496.229 211.296 498.165 210.436 500.239L213.207 501.388ZM220.303 492.148C221.852 490.958 223.559 489.965 225.388 489.207L224.239 486.436C222.165 487.296 220.229 488.421 218.475 489.769L220.303 492.148ZM231.059 487.69C232.021 487.565 233.003 487.5 234 487.5V484.5C232.873 484.5 231.761 484.573 230.671 484.715L231.059 487.69ZM234 487.5H236.988V484.5H234V487.5ZM242.964 487.5H248.94V484.5H242.964V487.5ZM254.917 487.5H260.893V484.5H254.917V487.5ZM266.869 487.5H272.845V484.5H266.869V487.5ZM278.821 487.5H284.798V484.5H278.821V487.5ZM290.774 487.5H296.75V484.5H290.774V487.5ZM302.726 487.5H308.702V484.5H302.726V487.5ZM314.679 487.5H320.655V484.5H314.679V487.5ZM326.631 487.5H332.607V484.5H326.631V487.5ZM338.583 487.5H344.559V484.5H338.583V487.5ZM350.536 487.5H356.512V484.5H350.536V487.5ZM362.488 487.5H368.464V484.5H362.488V487.5ZM374.44 487.5H380.417V484.5H374.44V487.5ZM386.393 487.5H392.369V484.5H386.393V487.5ZM398.345 487.5H404.321V484.5H398.345V487.5ZM410.298 487.5H416.274V484.5H410.298V487.5ZM422.25 487.5H428.226V484.5H422.25V487.5ZM434.202 487.5H440.179V484.5H434.202V487.5ZM446.155 487.5H452.131V484.5H446.155V487.5ZM458.107 487.5H464.083V484.5H458.107V487.5ZM470.06 487.5H476.036V484.5H470.06V487.5ZM482.012 487.5H487.988V484.5H482.012V487.5ZM493.964 487.5H499.941V484.5H493.964V487.5ZM505.917 487.5H511.893V484.5H505.917V487.5ZM517.869 487.5H523.845V484.5H517.869V487.5ZM529.822 487.5H535.798V484.5H529.822V487.5ZM541.774 487.5H547.75V484.5H541.774V487.5ZM553.726 487.5H559.703V484.5H553.726V487.5ZM565.679 487.5H571.655V484.5H565.679V487.5ZM577.631 487.5H583.607V484.5H577.631V487.5ZM589.584 487.5H595.56V484.5H589.584V487.5ZM601.536 487.5H607.512V484.5H601.536V487.5ZM613.488 487.5H619.465V484.5H613.488V487.5ZM625.441 487.5H631.417V484.5H625.441V487.5ZM637.393 487.5H643.369V484.5H637.393V487.5ZM649.345 487.5H655.322V484.5H649.345V487.5ZM661.298 487.5H667.274V484.5H661.298V487.5ZM673.25 487.5H679.226V484.5H673.25V487.5ZM685.203 487.5H691.179V484.5H685.203V487.5ZM697.155 487.5H703.131V484.5H697.155V487.5ZM709.107 487.5H715.084V484.5H709.107V487.5ZM721.06 487.5H727.036V484.5H721.06V487.5ZM733.012 487.5H736V484.5H733.012V487.5ZM736 487.5C736.997 487.5 737.979 487.565 738.941 487.69L739.329 484.715C738.239 484.573 737.127 484.5 736 484.5V487.5ZM744.612 489.207C746.441 489.965 748.148 490.958 749.697 492.148L751.525 489.769C749.771 488.421 747.835 487.296 745.761 486.436L744.612 489.207ZM753.852 496.303C755.042 497.852 756.035 499.559 756.793 501.388L759.564 500.239C758.704 498.165 757.579 496.229 756.231 494.475L753.852 496.303ZM758.31 507.059C758.435 508.021 758.5 509.003 758.5 510H761.5C761.5 508.873 761.427 507.761 761.285 506.671L758.31 507.059ZM758.5 510V512.5H761.5V510H758.5ZM758.5 517.5V522.5H761.5V517.5H758.5ZM758.5 527.5V530H761.5V527.5H758.5Z" fill="black"/>
<defs>
<filter id="filter0_d_449_4330" x="90" y="168" width="492" height="661" filterUnits="userSpaceOnUse" color-interpolation-filters="sRGB">
<feFlood flood-opacity="0" result="BackgroundImageFix"/>
<feColorMatrix in="SourceAlpha" type="matrix" values="0 0 0 0 0 0 0 0 0 0 0 0 0 0 0 0 0 0 127 0" result="hardAlpha"/>
<feMorphology radius="2" operator="dilate" in="SourceAlpha" result="effect1_dropShadow_449_4330"/>
<feOffset dy="5"/>
<feGaussianBlur stdDeviation="15"/>
<feComposite in2="hardAlpha" operator="out"/>
<feColorMatrix type="matrix" values="0 0 0 0 0.730263 0 0 0 0 0.772123 0 0 0 0 0.834912 0 0 0 0.54 0"/>
<feBlend mode="normal" in2="BackgroundImageFix" result="effect1_dropShadow_449_4330"/>
<feBlend mode="normal" in="SourceGraphic" in2="effect1_dropShadow_449_4330" result="shape"/>
</filter>
<filter id="filter1_d_449_4330" x="618" y="168" width="492" height="661" filterUnits="userSpaceOnUse" color-interpolation-filters="sRGB">
<feFlood flood-opacity="0" result="BackgroundImageFix"/>
<feColorMatrix in="SourceAlpha" type="matrix" values="0 0 0 0 0 0 0 0 0 0 0 0 0 0 0 0 0 0 127 0" result="hardAlpha"/>
<feMorphology radius="2" operator="dilate" in="SourceAlpha" result="effect1_dropShadow_449_4330"/>
<feOffset dy="5"/>
<feGaussianBlur stdDeviation="15"/>
<feComposite in2="hardAlpha" operator="out"/>
<feColorMatrix type="matrix" values="0 0 0 0 0.730263 0 0 0 0 0.772123 0 0 0 0 0.834912 0 0 0 0.54 0"/>
<feBlend mode="normal" in2="BackgroundImageFix" result="effect1_dropShadow_449_4330"/>
<feBlend mode="normal" in="SourceGraphic" in2="effect1_dropShadow_449_4330" result="shape"/>
</filter>
<linearGradient id="paint0_linear_449_4330" x1="310.597" y1="142.133" x2="350.503" y2="155.527" gradientUnits="userSpaceOnUse">
<stop stop-color="#00A3FF"/>
<stop offset="1" stop-color="#00CCFF"/>
</linearGradient>
<linearGradient id="paint1_linear_449_4330" x1="240.547" y1="283.707" x2="289.266" y2="357.287" gradientUnits="userSpaceOnUse">
<stop stop-color="#00A3FF"/>
<stop offset="1" stop-color="#00CCFF"/>
</linearGradient>
<radialGradient id="paint2_radial_449_4330" cx="0" cy="0" r="1" gradientUnits="userSpaceOnUse" gradientTransform="translate(-92.125 377.034) rotate(8.35027) scale(997.268 392.543)">
<stop offset="0.0995467" stop-color="#B0E07F"/>
<stop offset="0.344281" stop-color="#94DEE0"/>
<stop offset="0.567519" stop-color="#5DA4EF"/>
<stop offset="0.859602" stop-color="#591BBF"/>
</radialGradient>
<radialGradient id="paint3_radial_449_4330" cx="0" cy="0" r="1" gradientUnits="userSpaceOnUse" gradientTransform="translate(114.188 472.793) rotate(33.4452) scale(328.473 413.816)">
<stop offset="0.0995467" stop-color="#B0E07F"/>
<stop offset="0.344281" stop-color="#94DEE0"/>
<stop offset="0.567519" stop-color="#5DA4EF"/>
<stop offset="0.859602" stop-color="#591BBF"/>
</radialGradient>
<radialGradient id="paint4_radial_449_4330" cx="0" cy="0" r="1" gradientUnits="userSpaceOnUse" gradientTransform="translate(314.188 472.793) rotate(33.4452) scale(328.473 413.816)">
<stop offset="0.0995467" stop-color="#B0E07F"/>
<stop offset="0.344281" stop-color="#94DEE0"/>
<stop offset="0.567519" stop-color="#5DA4EF"/>
<stop offset="0.859602" stop-color="#591BBF"/>
</radialGradient>
<linearGradient id="paint5_linear_449_4330" x1="838.597" y1="142.133" x2="878.503" y2="155.527" gradientUnits="userSpaceOnUse">
<stop stop-color="#00A3FF"/>
<stop offset="1" stop-color="#00CCFF"/>
</linearGradient>
<linearGradient id="paint6_linear_449_4330" x1="768.547" y1="283.707" x2="817.266" y2="357.287" gradientUnits="userSpaceOnUse">
<stop stop-color="#00A3FF"/>
<stop offset="1" stop-color="#00CCFF"/>
</linearGradient>
<radialGradient id="paint7_radial_449_4330" cx="0" cy="0" r="1" gradientUnits="userSpaceOnUse" gradientTransform="translate(435.875 377.034) rotate(8.35027) scale(997.268 392.543)">
<stop offset="0.0995467" stop-color="#B0E07F"/>
<stop offset="0.344281" stop-color="#94DEE0"/>
<stop offset="0.567519" stop-color="#5DA4EF"/>
<stop offset="0.859602" stop-color="#591BBF"/>
</radialGradient>
<radialGradient id="paint8_radial_449_4330" cx="0" cy="0" r="1" gradientUnits="userSpaceOnUse" gradientTransform="translate(642.188 472.793) rotate(33.4452) scale(328.473 413.816)">
<stop offset="0.0995467" stop-color="#B0E07F"/>
<stop offset="0.344281" stop-color="#94DEE0"/>
<stop offset="0.567519" stop-color="#5DA4EF"/>
<stop offset="0.859602" stop-color="#591BBF"/>
</radialGradient>
<radialGradient id="paint9_radial_449_4330" cx="0" cy="0" r="1" gradientUnits="userSpaceOnUse" gradientTransform="translate(842.188 472.793) rotate(33.4452) scale(328.473 413.816)">
<stop offset="0.0995467" stop-color="#B0E07F"/>
<stop offset="0.344281" stop-color="#94DEE0"/>
<stop offset="0.567519" stop-color="#5DA4EF"/>
<stop offset="0.859602" stop-color="#591BBF"/>
</radialGradient>
</defs>
</svg>
