<svg id="Layer_1" data-name="Layer 1" xmlns="http://www.w3.org/2000/svg" viewBox="0 0 215 127"><defs><style>.cls-1{fill:#fbfbfb;}.cls-2{fill:#e53238;}.cls-3{fill:#0064d2;}.cls-4{fill:#f5af02;}.cls-5{fill:#86b817;}</style></defs><title>kubernetes.io-logos</title><rect class="cls-1" x="-3.55202" y="-3.16104" width="223.25536" height="134.51136"/><path id="e" class="cls-2" d="M44.41375,44.77747c-12.0763,0-22.13948,5.12337-22.13948,20.58035,0,12.24533,6.76676,19.95671,22.4513,19.95671,18.46144,0,19.64488-12.16112,19.64488-12.16112H55.425S53.507,79.7017,44.17988,79.7017c-7.59672,0-13.06058-5.1318-13.06058-12.32478H65.30592V62.86323c0-7.11611-4.51743-18.08577-20.89217-18.08577Zm-.31183,5.76874c7.23129,0,12.16112,4.43,12.16112,11.06973H31.31716C31.31716,54.56709,37.75185,50.54621,44.10192,50.54621Z"/><path id="b" class="cls-3" d="M65.29958,29.80994V77.5521c0,2.71-.19342,6.51514-.19342,6.51514h8.53207s.30624-2.73291.30624-5.23052c0,0,4.21539,6.59475,15.67735,6.59475,12.06991,0,20.26852-8.37974,20.26852-20.38547,0-11.16875-7.5307-20.15159-20.249-20.15159-11.90983,0-15.61067,6.43136-15.61067,6.43136V29.80994ZM87.43905,50.79956c8.1964,0,13.40842,6.08315,13.40842,14.24644,0,8.75365-6.0197,14.48031-13.35,14.48031-8.748,0-13.46688-6.83041-13.46688-14.40235C74.03064,58.06838,78.265,50.79956,87.43905,50.79956Z"/><path id="a" class="cls-4" d="M131.09435,44.77747c-18.16788,0-19.33306,9.94784-19.33306,11.53747h9.04288s.47421-5.80771,9.66654-5.80771c5.97332,0,10.602,2.73408,10.602,7.99048v1.87094h-10.602c-14.07492,0-21.51583,4.11747-21.51583,12.47294,0,8.223,6.87517,12.69707,16.16611,12.69707,12.6621,0,16.741-6.99654,16.741-6.99654,0,2.78284.21455,5.52512.21455,5.52512h8.039s-.31183-3.39915-.31183-5.57384V59.69628c0-12.325-9.94141-14.91881-18.70941-14.91881Zm9.97836,21.204v2.49459c0,3.25362-2.00772,11.34258-13.82743,11.34258-6.47244,0-9.24752-3.23023-9.24752-6.97705,0-6.81622,9.34533-6.86012,23.07494-6.86012Z"/><path id="y" class="cls-5" d="M144.93431,46.33816h10.17324l14.6,29.25016,14.56661-29.25016h9.2155L166.95684,98.41267H157.2903l7.65638-14.51648Z"/></svg>