<svg id="Layer_1" data-name="Layer 1" xmlns="http://www.w3.org/2000/svg" xmlns:xlink="http://www.w3.org/1999/xlink" viewBox="0 0 215 127"><defs><style>.cls-1{fill:none;}.cls-2{fill:transparent;}.cls-3{clip-path:url(#clip-path);}.cls-4{fill:#ee3248;fill-rule:evenodd;}</style><clipPath id="clip-path"><rect class="cls-1" x="4.70501" y="-8.81268" width="206.90403" height="145.3255"/></clipPath></defs><rect class="cls-2" x="-3.37342" y="-3.34411" width="223.25536" height="134.51135"/><g class="cls-3"><g class="cls-3"><path class="cls-4" d="M28.02166,50.76936l7.69058-.0617c6.9525.12305,7.75228,4.1837,4.61435,13.41275-2.64567,7.87531-6.76768,12.67414-14.58165,12.61279h-6.091ZM169.22325,61.044c4.55274-11.01316,10.52065-15.19686,22.76431-15.50454,10.9518-.24609,15.81224,4.79908,11.813,17.41187C199.49376,76.67151,191.67987,82.209,179.86693,82.209c-12.98175.06134-16.24263-7.87514-10.64368-21.165m8.429.73843c2.83006-7.01411,6.95215-11.87463,13.04345-11.93633,5.47555-.06125,6.46007,3.938,3.99905,12.36706-3.13794,10.82842-7.69068,15.5659-13.90466,15.44286-6.89106-.06135-6.768-6.82946-3.13784-15.87359m-15.07382-8.67536,2.09172-6.02932a34.76316,34.76316,0,0,0-10.95146-1.66134c-7.62924-.0616-13.35114,2.33806-15.6892,7.69066-3.69162,8.183,1.4766,10.70564,7.69084,13.59749,9.10583,4.245,3.876,11.56684-4.86069,10.82842-3.50688-.3077-6.58311-1.90724-9.65961-3.38384l-1.96859,6.15264A33.79646,33.79646,0,0,0,142.64393,82.209c9.0444-.55369,14.64308-4.184,16.91972-9.90595,2.584-6.52159-1.41525-10.52064-7.38324-12.42789-12.42831-3.99939-4.98338-15.75088,10.398-6.76811M95.57659,46.15492a19.153,19.153,0,0,1,2.215,3.62993L87.76306,81.47059H93.854l8.36766-26.45618,9.59791,26.45618h8.61375l-.36939-.98451,10.89012-34.33116h-6.15273l-7.99827,25.34837-9.22879-25.34837c-3.999,0-7.99836.06135-11.99767,0m-34.39259,0a14.395,14.395,0,0,1,2.21468,3.62993L53.43173,81.47059H79.826L81.05656,77.533H63.21437L67.152,65.16635H78.96492l1.23051-3.87627H68.3825L71.95081,49.9695H89.17822L90.347,46.15492c-9.72121,0-19.44208.06135-29.163,0m-42.26817,0a16.4482,16.4482,0,0,1,2.21468,3.62993L11.102,81.47059h8.61366l5.04517-.06135c14.766,0,21.77988-7.32179,24.73333-16.85828,4.245-13.5973-.92316-18.33469-13.47418-18.33469Z"/></g></g></svg>