<?xml version="1.0" encoding="utf-8" standalone="no"?>
<!DOCTYPE svg PUBLIC "-//W3C//DTD SVG 1.1//EN"
  "http://www.w3.org/Graphics/SVG/1.1/DTD/svg11.dtd">
<!-- Created with matplotlib (https://matplotlib.org/) -->
<svg height="720pt" version="1.1" viewBox="0 0 720 720" width="720pt" xmlns="http://www.w3.org/2000/svg" xmlns:xlink="http://www.w3.org/1999/xlink">
 <defs>
  <style type="text/css">
*{stroke-linecap:butt;stroke-linejoin:round;}
  </style>
 </defs>
 <g id="figure_1">
  <g id="patch_1">
   <path d="M 0 720 
L 720 720 
L 720 0 
L 0 0 
z
" style="fill:#ffffff;"/>
  </g>
  <g id="axes_1">
   <g id="patch_2">
    <path d="M 90 640.8 
L 648 640.8 
L 648 86.4 
L 90 86.4 
z
" style="fill:#ffffff;"/>
   </g>
   <g id="matplotlib.axis_1">
    <g id="xtick_1">
     <g id="line2d_1">
      <path clip-path="url(#p97053e7f02)" d="M 163.732002 640.8 
L 163.732002 86.4 
" style="fill:none;stroke:#cccccc;stroke-linecap:round;stroke-width:0.8;"/>
     </g>
     <g id="line2d_2"/>
     <g id="text_1">
      <!-- 2015 -->
      <defs>
       <path d="M 19.1875 8.296875 
L 53.609375 8.296875 
L 53.609375 0 
L 7.328125 0 
L 7.328125 8.296875 
Q 12.9375 14.109375 22.625 23.890625 
Q 32.328125 33.6875 34.8125 36.53125 
Q 39.546875 41.84375 41.421875 45.53125 
Q 43.3125 49.21875 43.3125 52.78125 
Q 43.3125 58.59375 39.234375 62.25 
Q 35.15625 65.921875 28.609375 65.921875 
Q 23.96875 65.921875 18.8125 64.3125 
Q 13.671875 62.703125 7.8125 59.421875 
L 7.8125 69.390625 
Q 13.765625 71.78125 18.9375 73 
Q 24.125 74.21875 28.421875 74.21875 
Q 39.75 74.21875 46.484375 68.546875 
Q 53.21875 62.890625 53.21875 53.421875 
Q 53.21875 48.921875 51.53125 44.890625 
Q 49.859375 40.875 45.40625 35.40625 
Q 44.1875 33.984375 37.640625 27.21875 
Q 31.109375 20.453125 19.1875 8.296875 
z
" id="DejaVuSans-50"/>
       <path d="M 31.78125 66.40625 
Q 24.171875 66.40625 20.328125 58.90625 
Q 16.5 51.421875 16.5 36.375 
Q 16.5 21.390625 20.328125 13.890625 
Q 24.171875 6.390625 31.78125 6.390625 
Q 39.453125 6.390625 43.28125 13.890625 
Q 47.125 21.390625 47.125 36.375 
Q 47.125 51.421875 43.28125 58.90625 
Q 39.453125 66.40625 31.78125 66.40625 
z
M 31.78125 74.21875 
Q 44.046875 74.21875 50.515625 64.515625 
Q 56.984375 54.828125 56.984375 36.375 
Q 56.984375 17.96875 50.515625 8.265625 
Q 44.046875 -1.421875 31.78125 -1.421875 
Q 19.53125 -1.421875 13.0625 8.265625 
Q 6.59375 17.96875 6.59375 36.375 
Q 6.59375 54.828125 13.0625 64.515625 
Q 19.53125 74.21875 31.78125 74.21875 
z
" id="DejaVuSans-48"/>
       <path d="M 12.40625 8.296875 
L 28.515625 8.296875 
L 28.515625 63.921875 
L 10.984375 60.40625 
L 10.984375 69.390625 
L 28.421875 72.90625 
L 38.28125 72.90625 
L 38.28125 8.296875 
L 54.390625 8.296875 
L 54.390625 0 
L 12.40625 0 
z
" id="DejaVuSans-49"/>
       <path d="M 10.796875 72.90625 
L 49.515625 72.90625 
L 49.515625 64.59375 
L 19.828125 64.59375 
L 19.828125 46.734375 
Q 21.96875 47.46875 24.109375 47.828125 
Q 26.265625 48.1875 28.421875 48.1875 
Q 40.625 48.1875 47.75 41.5 
Q 54.890625 34.8125 54.890625 23.390625 
Q 54.890625 11.625 47.5625 5.09375 
Q 40.234375 -1.421875 26.90625 -1.421875 
Q 22.3125 -1.421875 17.546875 -0.640625 
Q 12.796875 0.140625 7.71875 1.703125 
L 7.71875 11.625 
Q 12.109375 9.234375 16.796875 8.0625 
Q 21.484375 6.890625 26.703125 6.890625 
Q 35.15625 6.890625 40.078125 11.328125 
Q 45.015625 15.765625 45.015625 23.390625 
Q 45.015625 31 40.078125 35.4375 
Q 35.15625 39.890625 26.703125 39.890625 
Q 22.75 39.890625 18.8125 39.015625 
Q 14.890625 38.140625 10.796875 36.28125 
z
" id="DejaVuSans-53"/>
      </defs>
      <g style="fill:#262626;" transform="translate(151.007002 651.898438)scale(0.1 -0.1)">
       <use xlink:href="#DejaVuSans-50"/>
       <use x="63.623047" xlink:href="#DejaVuSans-48"/>
       <use x="127.246094" xlink:href="#DejaVuSans-49"/>
       <use x="190.869141" xlink:href="#DejaVuSans-53"/>
      </g>
     </g>
    </g>
    <g id="xtick_2">
     <g id="line2d_3">
      <path clip-path="url(#p97053e7f02)" d="M 248.607151 640.8 
L 248.607151 86.4 
" style="fill:none;stroke:#cccccc;stroke-linecap:round;stroke-width:0.8;"/>
     </g>
     <g id="line2d_4"/>
     <g id="text_2">
      <!-- 2016 -->
      <defs>
       <path d="M 33.015625 40.375 
Q 26.375 40.375 22.484375 35.828125 
Q 18.609375 31.296875 18.609375 23.390625 
Q 18.609375 15.53125 22.484375 10.953125 
Q 26.375 6.390625 33.015625 6.390625 
Q 39.65625 6.390625 43.53125 10.953125 
Q 47.40625 15.53125 47.40625 23.390625 
Q 47.40625 31.296875 43.53125 35.828125 
Q 39.65625 40.375 33.015625 40.375 
z
M 52.59375 71.296875 
L 52.59375 62.3125 
Q 48.875 64.0625 45.09375 64.984375 
Q 41.3125 65.921875 37.59375 65.921875 
Q 27.828125 65.921875 22.671875 59.328125 
Q 17.53125 52.734375 16.796875 39.40625 
Q 19.671875 43.65625 24.015625 45.921875 
Q 28.375 48.1875 33.59375 48.1875 
Q 44.578125 48.1875 50.953125 41.515625 
Q 57.328125 34.859375 57.328125 23.390625 
Q 57.328125 12.15625 50.6875 5.359375 
Q 44.046875 -1.421875 33.015625 -1.421875 
Q 20.359375 -1.421875 13.671875 8.265625 
Q 6.984375 17.96875 6.984375 36.375 
Q 6.984375 53.65625 15.1875 63.9375 
Q 23.390625 74.21875 37.203125 74.21875 
Q 40.921875 74.21875 44.703125 73.484375 
Q 48.484375 72.75 52.59375 71.296875 
z
" id="DejaVuSans-54"/>
      </defs>
      <g style="fill:#262626;" transform="translate(235.882151 651.898438)scale(0.1 -0.1)">
       <use xlink:href="#DejaVuSans-50"/>
       <use x="63.623047" xlink:href="#DejaVuSans-48"/>
       <use x="127.246094" xlink:href="#DejaVuSans-49"/>
       <use x="190.869141" xlink:href="#DejaVuSans-54"/>
      </g>
     </g>
    </g>
    <g id="xtick_3">
     <g id="line2d_5">
      <path clip-path="url(#p97053e7f02)" d="M 333.714835 640.8 
L 333.714835 86.4 
" style="fill:none;stroke:#cccccc;stroke-linecap:round;stroke-width:0.8;"/>
     </g>
     <g id="line2d_6"/>
     <g id="text_3">
      <!-- 2017 -->
      <defs>
       <path d="M 8.203125 72.90625 
L 55.078125 72.90625 
L 55.078125 68.703125 
L 28.609375 0 
L 18.3125 0 
L 43.21875 64.59375 
L 8.203125 64.59375 
z
" id="DejaVuSans-55"/>
      </defs>
      <g style="fill:#262626;" transform="translate(320.989835 651.898438)scale(0.1 -0.1)">
       <use xlink:href="#DejaVuSans-50"/>
       <use x="63.623047" xlink:href="#DejaVuSans-48"/>
       <use x="127.246094" xlink:href="#DejaVuSans-49"/>
       <use x="190.869141" xlink:href="#DejaVuSans-55"/>
      </g>
     </g>
    </g>
    <g id="xtick_4">
     <g id="line2d_7">
      <path clip-path="url(#p97053e7f02)" d="M 418.589984 640.8 
L 418.589984 86.4 
" style="fill:none;stroke:#cccccc;stroke-linecap:round;stroke-width:0.8;"/>
     </g>
     <g id="line2d_8"/>
     <g id="text_4">
      <!-- 2018 -->
      <defs>
       <path d="M 31.78125 34.625 
Q 24.75 34.625 20.71875 30.859375 
Q 16.703125 27.09375 16.703125 20.515625 
Q 16.703125 13.921875 20.71875 10.15625 
Q 24.75 6.390625 31.78125 6.390625 
Q 38.8125 6.390625 42.859375 10.171875 
Q 46.921875 13.96875 46.921875 20.515625 
Q 46.921875 27.09375 42.890625 30.859375 
Q 38.875 34.625 31.78125 34.625 
z
M 21.921875 38.8125 
Q 15.578125 40.375 12.03125 44.71875 
Q 8.5 49.078125 8.5 55.328125 
Q 8.5 64.0625 14.71875 69.140625 
Q 20.953125 74.21875 31.78125 74.21875 
Q 42.671875 74.21875 48.875 69.140625 
Q 55.078125 64.0625 55.078125 55.328125 
Q 55.078125 49.078125 51.53125 44.71875 
Q 48 40.375 41.703125 38.8125 
Q 48.828125 37.15625 52.796875 32.3125 
Q 56.78125 27.484375 56.78125 20.515625 
Q 56.78125 9.90625 50.3125 4.234375 
Q 43.84375 -1.421875 31.78125 -1.421875 
Q 19.734375 -1.421875 13.25 4.234375 
Q 6.78125 9.90625 6.78125 20.515625 
Q 6.78125 27.484375 10.78125 32.3125 
Q 14.796875 37.15625 21.921875 38.8125 
z
M 18.3125 54.390625 
Q 18.3125 48.734375 21.84375 45.5625 
Q 25.390625 42.390625 31.78125 42.390625 
Q 38.140625 42.390625 41.71875 45.5625 
Q 45.3125 48.734375 45.3125 54.390625 
Q 45.3125 60.0625 41.71875 63.234375 
Q 38.140625 66.40625 31.78125 66.40625 
Q 25.390625 66.40625 21.84375 63.234375 
Q 18.3125 60.0625 18.3125 54.390625 
z
" id="DejaVuSans-56"/>
      </defs>
      <g style="fill:#262626;" transform="translate(405.864984 651.898438)scale(0.1 -0.1)">
       <use xlink:href="#DejaVuSans-50"/>
       <use x="63.623047" xlink:href="#DejaVuSans-48"/>
       <use x="127.246094" xlink:href="#DejaVuSans-49"/>
       <use x="190.869141" xlink:href="#DejaVuSans-56"/>
      </g>
     </g>
    </g>
    <g id="xtick_5">
     <g id="line2d_9">
      <path clip-path="url(#p97053e7f02)" d="M 503.465133 640.8 
L 503.465133 86.4 
" style="fill:none;stroke:#cccccc;stroke-linecap:round;stroke-width:0.8;"/>
     </g>
     <g id="line2d_10"/>
     <g id="text_5">
      <!-- 2019 -->
      <defs>
       <path d="M 10.984375 1.515625 
L 10.984375 10.5 
Q 14.703125 8.734375 18.5 7.8125 
Q 22.3125 6.890625 25.984375 6.890625 
Q 35.75 6.890625 40.890625 13.453125 
Q 46.046875 20.015625 46.78125 33.40625 
Q 43.953125 29.203125 39.59375 26.953125 
Q 35.25 24.703125 29.984375 24.703125 
Q 19.046875 24.703125 12.671875 31.3125 
Q 6.296875 37.9375 6.296875 49.421875 
Q 6.296875 60.640625 12.9375 67.421875 
Q 19.578125 74.21875 30.609375 74.21875 
Q 43.265625 74.21875 49.921875 64.515625 
Q 56.59375 54.828125 56.59375 36.375 
Q 56.59375 19.140625 48.40625 8.859375 
Q 40.234375 -1.421875 26.421875 -1.421875 
Q 22.703125 -1.421875 18.890625 -0.6875 
Q 15.09375 0.046875 10.984375 1.515625 
z
M 30.609375 32.421875 
Q 37.25 32.421875 41.125 36.953125 
Q 45.015625 41.5 45.015625 49.421875 
Q 45.015625 57.28125 41.125 61.84375 
Q 37.25 66.40625 30.609375 66.40625 
Q 23.96875 66.40625 20.09375 61.84375 
Q 16.21875 57.28125 16.21875 49.421875 
Q 16.21875 41.5 20.09375 36.953125 
Q 23.96875 32.421875 30.609375 32.421875 
z
" id="DejaVuSans-57"/>
      </defs>
      <g style="fill:#262626;" transform="translate(490.740133 651.898438)scale(0.1 -0.1)">
       <use xlink:href="#DejaVuSans-50"/>
       <use x="63.623047" xlink:href="#DejaVuSans-48"/>
       <use x="127.246094" xlink:href="#DejaVuSans-49"/>
       <use x="190.869141" xlink:href="#DejaVuSans-57"/>
      </g>
     </g>
    </g>
    <g id="xtick_6">
     <g id="line2d_11">
      <path clip-path="url(#p97053e7f02)" d="M 588.340283 640.8 
L 588.340283 86.4 
" style="fill:none;stroke:#cccccc;stroke-linecap:round;stroke-width:0.8;"/>
     </g>
     <g id="line2d_12"/>
     <g id="text_6">
      <!-- 2020 -->
      <g style="fill:#262626;" transform="translate(575.615283 651.898438)scale(0.1 -0.1)">
       <use xlink:href="#DejaVuSans-50"/>
       <use x="63.623047" xlink:href="#DejaVuSans-48"/>
       <use x="127.246094" xlink:href="#DejaVuSans-50"/>
       <use x="190.869141" xlink:href="#DejaVuSans-48"/>
      </g>
     </g>
    </g>
   </g>
   <g id="matplotlib.axis_2">
    <g id="ytick_1">
     <g id="line2d_13">
      <path clip-path="url(#p97053e7f02)" d="M 90 615.60555 
L 648 615.60555 
" style="fill:none;stroke:#cccccc;stroke-linecap:round;stroke-width:0.8;"/>
     </g>
     <g id="line2d_14"/>
     <g id="text_7">
      <!-- 0 -->
      <g style="fill:#262626;" transform="translate(80.1375 619.404769)scale(0.1 -0.1)">
       <use xlink:href="#DejaVuSans-48"/>
      </g>
     </g>
    </g>
    <g id="ytick_2">
     <g id="line2d_15">
      <path clip-path="url(#p97053e7f02)" d="M 90 504.604559 
L 648 504.604559 
" style="fill:none;stroke:#cccccc;stroke-linecap:round;stroke-width:0.8;"/>
     </g>
     <g id="line2d_16"/>
     <g id="text_8">
      <!-- 20000 -->
      <g style="fill:#262626;" transform="translate(54.6875 508.403778)scale(0.1 -0.1)">
       <use xlink:href="#DejaVuSans-50"/>
       <use x="63.623047" xlink:href="#DejaVuSans-48"/>
       <use x="127.246094" xlink:href="#DejaVuSans-48"/>
       <use x="190.869141" xlink:href="#DejaVuSans-48"/>
       <use x="254.492188" xlink:href="#DejaVuSans-48"/>
      </g>
     </g>
    </g>
    <g id="ytick_3">
     <g id="line2d_17">
      <path clip-path="url(#p97053e7f02)" d="M 90 393.603568 
L 648 393.603568 
" style="fill:none;stroke:#cccccc;stroke-linecap:round;stroke-width:0.8;"/>
     </g>
     <g id="line2d_18"/>
     <g id="text_9">
      <!-- 40000 -->
      <defs>
       <path d="M 37.796875 64.3125 
L 12.890625 25.390625 
L 37.796875 25.390625 
z
M 35.203125 72.90625 
L 47.609375 72.90625 
L 47.609375 25.390625 
L 58.015625 25.390625 
L 58.015625 17.1875 
L 47.609375 17.1875 
L 47.609375 0 
L 37.796875 0 
L 37.796875 17.1875 
L 4.890625 17.1875 
L 4.890625 26.703125 
z
" id="DejaVuSans-52"/>
      </defs>
      <g style="fill:#262626;" transform="translate(54.6875 397.402787)scale(0.1 -0.1)">
       <use xlink:href="#DejaVuSans-52"/>
       <use x="63.623047" xlink:href="#DejaVuSans-48"/>
       <use x="127.246094" xlink:href="#DejaVuSans-48"/>
       <use x="190.869141" xlink:href="#DejaVuSans-48"/>
       <use x="254.492188" xlink:href="#DejaVuSans-48"/>
      </g>
     </g>
    </g>
    <g id="ytick_4">
     <g id="line2d_19">
      <path clip-path="url(#p97053e7f02)" d="M 90 282.602577 
L 648 282.602577 
" style="fill:none;stroke:#cccccc;stroke-linecap:round;stroke-width:0.8;"/>
     </g>
     <g id="line2d_20"/>
     <g id="text_10">
      <!-- 60000 -->
      <g style="fill:#262626;" transform="translate(54.6875 286.401796)scale(0.1 -0.1)">
       <use xlink:href="#DejaVuSans-54"/>
       <use x="63.623047" xlink:href="#DejaVuSans-48"/>
       <use x="127.246094" xlink:href="#DejaVuSans-48"/>
       <use x="190.869141" xlink:href="#DejaVuSans-48"/>
       <use x="254.492188" xlink:href="#DejaVuSans-48"/>
      </g>
     </g>
    </g>
    <g id="ytick_5">
     <g id="line2d_21">
      <path clip-path="url(#p97053e7f02)" d="M 90 171.601586 
L 648 171.601586 
" style="fill:none;stroke:#cccccc;stroke-linecap:round;stroke-width:0.8;"/>
     </g>
     <g id="line2d_22"/>
     <g id="text_11">
      <!-- 80000 -->
      <g style="fill:#262626;" transform="translate(54.6875 175.400804)scale(0.1 -0.1)">
       <use xlink:href="#DejaVuSans-56"/>
       <use x="63.623047" xlink:href="#DejaVuSans-48"/>
       <use x="127.246094" xlink:href="#DejaVuSans-48"/>
       <use x="190.869141" xlink:href="#DejaVuSans-48"/>
       <use x="254.492188" xlink:href="#DejaVuSans-48"/>
      </g>
     </g>
    </g>
   </g>
   <g id="line2d_23">
    <path clip-path="url(#p97053e7f02)" d="M 115.363636 615.6 
L 115.450592 615.538949 
L 116.707797 615.172646 
L 117.230004 614.978394 
L 117.863158 614.856293 
L 118.035739 614.756392 
L 118.394602 614.612091 
L 118.748028 614.51219 
L 119.531621 614.323489 
L 119.603478 614.251338 
L 120.220607 614.112587 
L 120.313772 614.040436 
L 120.897956 613.901685 
L 122.39968 613.596432 
L 123.089102 613.446581 
L 124.425563 612.958176 
L 124.50034 612.908226 
L 125.058709 612.747275 
L 125.149615 612.669574 
L 126.065382 612.447572 
L 126.13508 612.403171 
L 126.47809 612.26442 
L 127.229839 611.964718 
L 127.502446 611.842616 
L 127.966789 611.637265 
L 128.434662 611.492963 
L 129.016341 611.359762 
L 129.364734 611.12111 
L 129.958744 610.982359 
L 130.00439 610.954609 
L 130.862682 610.810307 
L 130.988942 610.749257 
L 131.376527 610.621606 
L 131.42076 610.555005 
L 132.285495 610.410704 
L 133.28235 610.00555 
L 133.963125 609.872349 
L 134.020188 609.844599 
L 134.405051 609.716947 
L 134.487879 609.611497 
L 134.697803 609.472745 
L 134.844343 609.411695 
L 134.966668 609.378394 
L 135.846772 609.256293 
L 136.083898 609.123092 
L 137.416494 608.751239 
L 137.53735 608.645788 
L 138.054083 608.412686 
L 139.490173 608.040833 
L 139.580533 607.963132 
L 140.61747 607.79108 
L 140.717404 607.702279 
L 141.12501 607.574628 
L 141.240168 607.508028 
L 142.574312 607.102874 
L 142.65234 607.075124 
L 142.851259 606.947473 
L 142.957665 606.925273 
L 143.923605 606.558969 
L 144.809723 605.898513 
L 145.549576 605.732012 
L 145.690674 605.587711 
L 145.969605 605.443409 
L 146.352644 605.127056 
L 146.967844 604.982755 
L 147.045821 604.921705 
L 147.224703 604.799604 
L 147.405429 604.716353 
L 148.616751 604.39445 
L 148.849811 604.250149 
L 149.296442 604.050347 
L 149.540057 603.911596 
L 150.221381 603.728444 
L 150.30649 603.667393 
L 150.640971 603.534192 
L 150.788959 603.400991 
L 150.95507 603.27889 
L 151.047414 603.22894 
L 151.926199 602.956987 
L 152.41577 602.601784 
L 152.631659 602.457483 
L 152.732351 602.413082 
L 153.941187 601.880278 
L 154.018149 601.774827 
L 154.231729 601.652725 
L 154.343351 601.630525 
L 155.094658 601.308622 
L 155.212917 601.186521 
L 156.07333 600.814668 
L 156.695309 600.692567 
L 156.814597 600.598216 
L 157.181565 600.381764 
L 157.657131 600.231913 
L 157.73243 600.193062 
L 158.390038 600.059861 
L 158.410576 600.026561 
L 158.815759 599.89336 
L 158.947437 599.732408 
L 159.083142 599.604757 
L 159.136485 599.549257 
L 159.306822 599.432706 
L 159.374534 599.404955 
L 159.98399 599.255104 
L 160.084887 599.182953 
L 160.221891 599.060852 
L 160.503113 598.84995 
L 160.732472 598.688999 
L 160.815032 598.650149 
L 161.599584 598.417047 
L 161.920581 598.150644 
L 163.487135 597.961943 
L 163.596914 597.923092 
L 164.876829 597.68999 
L 165.327717 597.390287 
L 165.42395 597.229336 
L 165.572107 597.096135 
L 165.693572 596.979584 
L 166.708069 596.54668 
L 166.915614 596.396829 
L 166.988938 596.235877 
L 167.065365 596.086026 
L 167.201815 595.969475 
L 167.334028 595.869574 
L 167.44034 595.730823 
L 167.503004 595.664222 
L 168.178094 595.531021 
L 169.333824 594.570862 
L 169.762896 594.443211 
L 170.226832 593.982557 
L 170.343046 593.793855 
L 170.458793 593.671754 
L 170.536267 593.549653 
L 170.706088 593.427552 
L 170.757657 593.366501 
L 171.388528 593.22775 
L 171.502925 593.127849 
L 171.608868 592.994648 
L 171.825903 592.728246 
L 171.953838 592.528444 
L 172.084049 592.367493 
L 172.189408 592.239841 
L 172.345791 592.11774 
L 173.127699 591.873538 
L 173.26293 591.734787 
L 173.375723 591.679286 
L 173.458905 591.557185 
L 173.557302 591.324083 
L 173.746295 591.157582 
L 173.861674 591.096531 
L 174.048951 590.93003 
L 174.678888 590.796829 
L 174.910279 590.541526 
L 175.117259 590.286224 
L 175.225657 590.153023 
L 175.316908 590.014272 
L 175.4646 589.758969 
L 175.573649 589.620218 
L 175.707553 589.542517 
L 176.228866 589.376016 
L 176.338545 589.154014 
L 176.965576 588.71556 
L 177.10771 588.582359 
L 177.267739 588.404757 
L 177.876229 588.271556 
L 177.997984 588.127255 
L 178.156186 587.955203 
L 178.313833 587.833102 
L 178.374303 587.62775 
L 178.482501 587.488999 
L 178.618443 587.361348 
L 178.804492 587.217047 
L 179.5801 586.728642 
L 179.983249 586.179187 
L 180.094973 586.007136 
L 180.165581 585.879485 
L 180.304184 585.629732 
L 180.430326 585.490981 
L 180.548757 585.33558 
L 181.144439 585.108028 
L 181.296905 584.991477 
L 181.405685 584.808325 
L 181.512614 584.719524 
L 181.623218 584.564123 
L 181.950293 584.103469 
L 182.072217 583.953617 
L 182.192002 583.803766 
L 182.640469 583.659465 
L 182.749192 583.531814 
L 182.952657 583.270961 
L 183.233898 582.732607 
L 183.331465 582.538355 
L 183.448529 582.416254 
L 183.573293 582.183152 
L 183.677393 582.03885 
L 183.761999 581.716947 
L 184.378396 581.489395 
L 184.54046 581.261843 
L 184.636033 581.100892 
L 184.800263 580.82894 
L 184.89659 580.623588 
L 185.014507 580.507037 
L 185.089244 580.357185 
L 185.262752 580.168484 
L 186.115088 579.635679 
L 186.26429 579.458077 
L 186.444889 579.252725 
L 186.571384 579.030723 
L 187.435091 578.309217 
L 187.621089 578.181566 
L 187.743264 578.009514 
L 187.893093 577.859663 
L 188.006825 577.709812 
L 188.140042 577.57106 
L 188.259779 577.432309 
L 188.361338 577.249158 
L 188.54852 576.955005 
L 188.930278 576.716353 
L 189.251297 576.599802 
L 189.931246 575.650743 
L 189.999469 575.434291 
L 190.199707 575.212289 
L 190.48513 575.056888 
L 190.802239 574.934787 
L 190.881995 574.807136 
L 190.931984 574.657284 
L 191.259067 574.102279 
L 191.387943 573.974628 
L 191.503236 573.797027 
L 191.60011 573.652725 
L 191.709199 573.458474 
L 191.820851 573.341923 
L 191.973696 573.147671 
L 192.466522 573.00892 
L 192.534234 572.847968 
L 192.641057 572.698117 
L 192.767732 572.498315 
L 192.915723 572.276313 
L 193.013328 572.109812 
L 193.151708 571.94886 
L 193.232796 571.810109 
L 193.373509 571.599207 
L 193.439693 571.482656 
L 193.801088 571.138553 
L 194.134659 570.966501 
L 194.624242 570.233895 
L 195.281122 569.251536 
L 195.762491 569.018434 
L 195.889911 568.624381 
L 196.541493 567.730823 
L 196.67706 567.592071 
L 196.810789 567.292369 
L 197.124156 567.159167 
L 197.257218 567.087017 
L 197.491437 566.931615 
L 197.894971 566.409911 
L 197.988927 566.29891 
L 198.097365 566.160159 
L 198.222231 565.838256 
L 198.367789 565.649554 
L 198.455576 565.582953 
L 199.015295 565.422002 
L 199.415524 564.811497 
L 199.501099 564.633895 
L 199.617361 564.417443 
L 199.74339 564.284242 
L 200.273265 563.729237 
L 200.634974 563.590486 
L 200.848546 563.140932 
L 200.916309 562.92448 
L 201.050385 562.635877 
L 201.151495 562.358375 
L 201.268144 562.141923 
L 201.38928 561.964321 
L 201.4982 561.86442 
L 201.604205 561.703469 
L 201.643335 561.575818 
L 202.304781 561.459267 
L 202.603289 560.837661 
L 202.732141 560.71556 
L 202.875231 560.388107 
L 202.973293 560.216056 
L 203.063584 559.988503 
L 203.207483 559.855302 
L 203.319754 559.59445 
L 203.961321 559.300297 
L 204.096624 559.194846 
L 204.159263 559.050545 
L 204.337255 558.845193 
L 205.198532 557.901685 
L 205.524185 557.762934 
L 205.623785 557.518731 
L 205.763045 557.34668 
L 205.909305 557.052527 
L 206.191492 556.686224 
L 206.339978 556.564123 
L 207.146128 556.22557 
L 207.292469 555.903667 
L 207.392348 555.748266 
L 207.497756 555.381962 
L 207.627332 555.243211 
L 207.738316 555.021209 
L 207.859331 554.871358 
L 207.947177 554.654906 
L 208.086268 554.521705 
L 208.247344 554.288603 
L 208.7552 554.04995 
L 208.892471 553.755798 
L 209.008117 553.583746 
L 210.093491 551.835481 
L 210.32704 551.71338 
L 210.48715 551.341526 
L 210.590545 551.191675 
L 210.941562 550.869772 
L 211.39512 550.220416 
L 211.50559 550.120515 
L 212.097897 549.837463 
L 212.194958 549.776412 
L 212.291272 549.632111 
L 212.394457 549.50446 
L 212.556954 549.354609 
L 212.697492 549.221407 
L 212.779646 549.071556 
L 213.041005 548.699703 
L 213.71957 548.3667 
L 213.872521 548.194648 
L 213.96019 548.039247 
L 214.101915 547.822795 
L 214.777215 546.934787 
L 215.233099 546.734985 
L 215.35919 546.535183 
L 215.539464 546.324281 
L 215.994734 545.608325 
L 216.113649 545.408523 
L 216.424648 545.07552 
L 216.899083 544.914569 
L 217.092806 544.614866 
L 218.057908 543.427156 
L 218.574294 543.210704 
L 219.74488 541.817641 
L 220.099013 541.68999 
L 220.464949 541.146085 
L 220.610315 540.946283 
L 220.705428 540.807532 
L 221.135523 540.446779 
L 221.761442 540.230327 
L 222.288402 539.592071 
L 222.430738 539.42002 
L 222.487284 539.286819 
L 222.586585 539.087017 
L 222.75088 538.953816 
L 222.8688 538.848365 
L 223.486596 538.543112 
L 224.249027 537.372052 
L 224.354322 537.2111 
L 224.485314 537.011298 
L 225.035291 536.706046 
L 225.160057 536.384143 
L 225.448653 535.967889 
L 225.582164 535.701487 
L 225.717053 535.523885 
L 226.416872 534.785728 
L 226.636216 534.630327 
L 226.700686 534.508226 
L 226.873507 534.391675 
L 227.02006 534.003171 
L 227.679266 532.70446 
L 227.736278 532.654509 
L 228.279488 532.510208 
L 229.406409 530.48444 
L 229.861989 530.351239 
L 230.274151 529.613082 
L 230.357931 529.468781 
L 230.493237 529.119128 
L 230.610487 528.985927 
L 230.744011 528.708424 
L 230.851712 528.586323 
L 231.61009 527.992468 
L 232.425409 526.505055 
L 232.523305 526.366303 
L 232.65701 526.0555 
L 233.136416 525.894549 
L 233.452168 525.239643 
L 233.637956 524.978791 
L 233.765349 524.662438 
L 233.898239 524.484836 
L 234.019159 524.174034 
L 234.289683 523.79663 
L 234.807506 523.652329 
L 234.95593 523.380377 
L 235.097321 523.175025 
L 235.57772 522.459068 
L 235.688976 522.298117 
L 235.783939 522.126065 
L 235.861388 522.015064 
L 236.196995 521.881863 
L 236.468444 521.682061 
L 236.748037 521.371259 
L 236.933777 521.127056 
L 237.062661 520.966105 
L 237.268072 520.671952 
L 237.392877 520.549851 
L 237.553899 520.272349 
L 237.988286 520.089197 
L 238.574971 519.28999 
L 238.680134 519.123489 
L 238.791551 518.929237 
L 239.178406 518.385332 
L 239.64441 518.229931 
L 239.828728 517.880278 
L 240.006117 517.674926 
L 240.113723 517.552825 
L 240.272318 517.297522 
L 240.41994 517.119921 
L 240.609283 516.947869 
L 240.909062 516.775818 
L 241.333725 516.492765 
L 241.502087 516.193062 
L 241.624633 516.048761 
L 241.757315 515.87116 
L 241.981464 515.438256 
L 242.107447 515.221804 
L 242.238382 515.077502 
L 242.545331 514.8555 
L 242.934417 514.644599 
L 244.051926 512.835282 
L 244.551195 512.668781 
L 244.665761 512.446779 
L 244.874604 512.213677 
L 244.988769 512.074926 
L 245.078683 511.952825 
L 245.191158 511.786323 
L 245.345312 511.46442 
L 245.550335 511.231318 
L 246.3682 510.720714 
L 246.52768 510.498712 
L 246.67285 510.33221 
L 247.208765 510.132408 
L 247.790139 509.954807 
L 248.111314 509.710605 
L 248.441793 509.533003 
L 248.892601 509.466402 
L 249.416253 509.322101 
L 249.537796 509.1889 
L 249.928012 508.861447 
L 250.634762 508.250942 
L 251.118181 507.995639 
L 251.228939 507.779187 
L 251.353636 507.629336 
L 251.473297 507.429534 
L 251.629302 507.251933 
L 251.758184 507.107631 
L 251.839926 507.00218 
L 252.091742 506.885629 
L 252.194472 506.730228 
L 252.678362 506.563726 
L 252.989654 506.330624 
L 253.176484 506.136373 
L 253.309222 505.87552 
L 253.450673 505.725669 
L 253.794125 505.081863 
L 254.280916 504.926462 
L 254.39855 504.776611 
L 255.030493 503.888603 
L 255.10245 503.749851 
L 255.432686 503.333598 
L 255.818142 503.189296 
L 255.996852 503.028345 
L 256.141608 502.728642 
L 256.228539 502.595441 
L 256.347226 502.340139 
L 256.488682 502.134787 
L 256.610999 501.868385 
L 256.698633 501.735183 
L 256.85491 501.479881 
L 256.907204 501.35223 
L 256.992736 501.119128 
L 257.519176 500.935976 
L 257.762557 500.430922 
L 257.865292 500.28662 
L 257.980779 500.047968 
L 258.120216 499.837066 
L 258.491322 499.07671 
L 258.545889 498.937958 
L 258.901175 498.599405 
L 259.161764 498.449554 
L 259.336671 498.233102 
L 259.498649 497.99445 
L 259.62217 497.777998 
L 259.704504 497.622597 
L 260.204594 496.612488 
L 260.314622 496.434886 
L 260.533078 496.279485 
L 260.789913 496.146283 
L 260.90852 495.902081 
L 261.176774 495.191675 
L 261.294107 494.991873 
L 261.348408 494.830922 
L 261.639106 494.114965 
L 261.876337 493.704262 
L 262.116674 493.52111 
L 262.518768 493.210307 
L 262.635832 492.855104 
L 262.744938 492.622002 
L 262.840175 492.42775 
L 262.939279 492.288999 
L 263.150627 491.889395 
L 263.224785 491.739544 
L 263.380107 491.400991 
L 263.474475 491.156789 
L 263.64707 491.034688 
L 264.009714 490.818236 
L 264.151684 490.596234 
L 265.122142 489.375223 
L 265.232582 489.291972 
L 265.761157 489.04222 
L 265.898813 488.847968 
L 266.014784 488.703667 
L 266.164801 488.487215 
L 267.054314 487.338355 
L 267.381956 487.144103 
L 267.705734 486.700099 
L 267.879354 486.539148 
L 268.048989 486.344896 
L 268.12949 486.189495 
L 268.584938 485.834291 
L 269.265858 485.418038 
L 269.389559 485.273736 
L 269.533044 485.090585 
L 269.659975 484.990684 
L 269.734776 484.857483 
L 269.844958 484.724281 
L 270.070008 484.391278 
L 270.644781 484.152626 
L 270.869704 483.869574 
L 271.854297 482.737364 
L 272.303003 482.576412 
L 272.600771 482.187909 
L 272.717176 482.049158 
L 272.847107 481.854906 
L 273.026145 481.510803 
L 273.13883 481.360951 
L 273.223251 481.22775 
L 273.5885 481.055699 
L 273.846341 480.933598 
L 273.932586 480.805946 
L 274.787116 479.684836 
L 274.859482 479.546085 
L 274.994247 479.440634 
L 275.531704 479.246383 
L 275.762758 478.857879 
L 275.844568 478.696928 
L 276.575717 477.775619 
L 277.01053 477.636868 
L 277.202605 477.509217 
L 277.62194 476.965312 
L 277.776834 476.75441 
L 277.870265 476.604559 
L 278.009032 476.399207 
L 278.114502 476.249356 
L 278.219134 476.132805 
L 278.829091 475.722101 
L 278.95973 475.5778 
L 279.270608 475.061645 
L 279.389696 474.889594 
L 279.587208 474.706442 
L 280.553225 473.801784 
L 280.720776 473.468781 
L 280.918121 473.169078 
L 281.040264 473.013677 
L 281.714114 472.064618 
L 281.963949 471.925867 
L 282.136299 471.515164 
L 283.180745 469.600396 
L 283.584729 469.417245 
L 283.905836 469.039841 
L 284.956341 467.519128 
L 285.212312 467.369277 
L 285.3404 467.163925 
L 285.556563 466.719921 
L 285.711088 466.481269 
L 285.788288 466.259267 
L 285.883371 466.081665 
L 285.991653 465.942914 
L 286.131691 465.748662 
L 286.266857 465.53776 
L 286.376199 465.421209 
L 286.865922 465.221407 
L 287.104964 464.716353 
L 287.184074 464.522101 
L 287.286944 464.38335 
L 287.382474 464.216848 
L 287.761089 463.339941 
L 287.847791 463.206739 
L 287.97223 463.056888 
L 288.52187 462.718335 
L 288.631699 462.546283 
L 288.768572 462.385332 
L 288.883141 462.068979 
L 288.974855 461.874727 
L 289.095248 461.608325 
L 289.215294 461.486224 
L 289.507943 460.909019 
L 289.628695 460.792468 
L 290.097349 460.587116 
L 290.242591 460.398414 
L 290.430656 460.159762 
L 290.63776 459.88781 
L 290.917408 459.416056 
L 291.030876 459.244004 
L 291.155524 459.005352 
L 291.26017 458.8555 
L 291.66456 458.688999 
L 292.536592 457.623389 
L 292.859562 457.146085 
L 293.480717 456.707631 
L 294.210279 455.714172 
L 294.34207 455.553221 
L 294.498985 455.297919 
L 294.921452 455.159167 
L 295.052867 454.937166 
L 295.271094 454.459861 
L 296.333858 452.733796 
L 296.672261 452.567294 
L 296.763485 452.345292 
L 296.996816 452.228741 
L 297.730234 451.290783 
L 298.234662 451.140932 
L 298.336474 450.96888 
L 298.77062 450.264024 
L 298.943484 449.914371 
L 299.220671 449.481467 
L 299.70637 449.203964 
L 299.877915 449.065213 
L 299.995316 448.882061 
L 300.46949 447.988503 
L 300.679263 447.6111 
L 300.907492 447.261447 
L 301.013946 447.122696 
L 301.346269 446.983944 
L 301.47391 446.878494 
L 302.813248 444.353221 
L 303.087728 444.22002 
L 303.166628 444.042418 
L 303.226062 443.837066 
L 303.488535 442.987909 
L 303.713728 442.582755 
L 303.826539 442.377403 
L 303.899586 442.238652 
L 304.031385 441.96115 
L 304.159793 441.678097 
L 304.332544 441.506046 
L 304.790261 441.328444 
L 305.088793 440.618038 
L 305.195189 440.445986 
L 305.306951 440.251734 
L 305.49835 439.80773 
L 305.825422 439.064024 
L 306.377525 438.797621 
L 306.961895 437.854113 
L 307.078394 437.676511 
L 307.705589 436.677502 
L 308.007948 436.505451 
L 308.08835 436.333399 
L 308.200836 436.111397 
L 308.586203 435.123489 
L 308.762494 434.746085 
L 308.836208 434.574034 
L 308.977911 434.340932 
L 309.062437 434.041229 
L 309.180601 433.941328 
L 309.270041 433.797027 
L 309.367751 433.697126 
L 309.707142 433.469574 
L 309.824819 433.253122 
L 309.97387 432.925669 
L 310.105739 432.714767 
L 310.179916 432.542716 
L 310.781196 431.266204 
L 311.140077 431.088603 
L 311.360684 430.78335 
L 311.56367 430.378196 
L 311.637338 430.172844 
L 311.879397 429.68999 
L 311.95074 429.540139 
L 312.061146 429.262636 
L 312.210485 429.012884 
L 312.287689 428.857483 
L 312.401973 428.785332 
L 312.833309 428.629931 
L 312.90108 428.51338 
L 313.054927 428.158176 
L 313.443947 427.331219 
L 313.752488 426.421011 
L 313.860921 426.248959 
L 313.977404 425.993657 
L 314.523701 425.627354 
L 314.690214 425.18335 
L 314.837128 424.950248 
L 314.946042 424.794846 
L 315.21188 424.417443 
L 315.364209 423.934589 
L 315.531919 423.590486 
L 315.65115 423.412884 
L 316.116321 423.163132 
L 316.22948 422.896729 
L 317.010234 421.320515 
L 317.179915 420.926462 
L 317.312605 420.71556 
L 317.687424 420.537958 
L 317.801484 420.365907 
L 317.947171 420.010704 
L 318.063307 419.810902 
L 318.138587 419.60555 
L 318.304225 419.178196 
L 318.451012 418.961744 
L 318.656946 418.545491 
L 318.912152 418.068186 
L 319.217012 417.907235 
L 319.416047 417.785134 
L 319.72731 417.213479 
L 320.289072 416.025768 
L 320.376098 415.881467 
L 320.535274 415.609514 
L 320.850092 415.465213 
L 321.026196 415.259861 
L 321.221999 414.876908 
L 321.567617 414.366303 
L 321.679293 414.099901 
L 322.500959 413.211893 
L 322.674122 413.084242 
L 322.798487 412.84004 
L 323.650111 411.091774 
L 323.769624 410.869772 
L 324.131072 410.64222 
L 324.427385 410.237066 
L 324.835074 409.46561 
L 324.946018 409.260258 
L 325.723216 408.727453 
L 325.958281 408.566501 
L 326.156891 408.222398 
L 326.270582 407.989296 
L 326.398603 407.839445 
L 326.525377 407.600793 
L 326.632518 407.151239 
L 326.696621 406.973637 
L 326.88322 406.368682 
L 326.932544 406.21328 
L 327.044594 405.891378 
L 327.167275 405.830327 
L 327.459704 405.674926 
L 328.917438 402.916551 
L 329.139018 402.7667 
L 329.248216 402.572448 
L 329.367591 402.367096 
L 329.447932 402.183944 
L 329.570604 401.967493 
L 329.724336 401.795441 
L 330.060246 401.329237 
L 330.17946 401.196036 
L 330.294377 401.007334 
L 330.782742 400.818632 
L 330.894765 400.624381 
L 331.257705 400.141526 
L 331.391943 399.930624 
L 331.506956 399.741923 
L 331.716993 399.46442 
L 332.677499 399.198018 
L 332.802895 399.114767 
L 333.443453 398.737364 
L 334.308172 398.509812 
L 334.496862 398.27116 
L 334.673868 398.021407 
L 334.83844 397.882656 
L 334.842138 397.871556 
L 335.083274 397.755005 
L 335.237175 397.621804 
L 335.664046 397.455302 
L 335.788204 397.23885 
L 336.073864 396.833697 
L 336.213433 396.644995 
L 336.331358 396.422993 
L 336.487765 396.173241 
L 336.780834 395.723687 
L 337.349629 395.479485 
L 337.493964 395.257483 
L 337.58939 395.102081 
L 337.700379 394.90783 
L 337.857967 394.691378 
L 338.120425 394.214073 
L 338.253669 394.042022 
L 338.366914 393.83667 
L 339.061146 393.381566 
L 340.147839 391.6222 
L 340.621671 391.389098 
L 340.723946 391.228147 
L 340.867558 391.072745 
L 341.179361 390.567691 
L 341.354083 390.301288 
L 341.513878 390.129237 
L 341.713992 389.868385 
L 342.018585 389.757384 
L 342.263963 389.540932 
L 342.404127 389.33558 
L 342.531583 389.119128 
L 342.642562 388.974827 
L 343.486797 388.031318 
L 343.860486 387.848167 
L 343.996861 387.554014 
L 344.133278 387.282061 
L 344.90887 385.877899 
L 345.209809 385.711397 
L 345.553543 385.433895 
L 345.704927 385.222993 
L 346.136995 384.312785 
L 346.237195 384.118533 
L 346.355499 383.890981 
L 346.823276 383.469177 
L 347.019978 383.341526 
L 348.208168 381.226957 
L 348.51524 381.088206 
L 348.720958 380.960555 
L 348.814979 380.805154 
L 348.926638 380.599802 
L 349.03158 380.4222 
L 349.134009 380.150248 
L 349.256988 379.972646 
L 349.571456 379.28999 
L 349.706009 379.123489 
L 349.855116 378.857086 
L 350.305418 378.668385 
L 350.534336 378.218831 
L 350.654005 378.035679 
L 350.812882 377.813677 
L 350.897111 377.658276 
L 351.008663 377.441824 
L 351.164276 377.125471 
L 351.314411 376.881269 
L 351.432275 376.670367 
L 351.976653 376.476115 
L 352.18028 376.126462 
L 353.281159 374.84995 
L 353.605855 374.672349 
L 353.902772 374.317146 
L 354.00684 374.178394 
L 354.150233 373.995243 
L 354.262776 373.862042 
L 355.836613 372.319128 
L 356.030653 371.991675 
L 356.905153 371.44777 
L 357.065943 371.236868 
L 357.265616 370.903865 
L 357.462375 370.648563 
L 357.584584 370.520912 
L 357.722326 370.33221 
L 357.88524 370.137958 
L 358.576024 370.021407 
L 359.206142 369.2222 
L 359.422402 369.000198 
L 360.142167 368.484044 
L 360.296547 368.212091 
L 361.105692 367.046581 
L 361.193716 366.92448 
L 361.76988 366.769078 
L 361.906771 366.530426 
L 362.097953 366.269574 
L 362.245115 366.075322 
L 362.388344 365.86997 
L 362.60209 365.509217 
L 363.688008 364.582359 
L 364.129708 363.916353 
L 364.427509 363.477899 
L 364.928904 363.228147 
L 365.520384 362.256888 
L 365.710462 361.973835 
L 365.984533 361.468781 
L 366.226329 361.213479 
L 366.617073 360.980377 
L 366.733911 360.730624 
L 366.901879 360.525273 
L 367.797057 358.999009 
L 368.286373 358.832507 
L 368.710022 358.244202 
L 369.051089 357.672547 
L 369.222064 357.339544 
L 369.338703 357.139742 
L 369.96576 356.656888 
L 370.184496 356.179584 
L 370.330697 355.924281 
L 370.450307 355.78553 
L 370.570829 355.630129 
L 370.677316 355.469177 
L 370.80239 355.269376 
L 371.320783 354.886422 
L 371.489702 354.747671 
L 372.109003 353.421209 
L 372.237836 353.288008 
L 372.406704 353.049356 
L 372.537863 352.816254 
L 372.654316 352.716353 
L 373.207619 352.466601 
L 373.375437 352.239049 
L 373.685833 351.756194 
L 373.778664 351.639643 
L 373.911375 351.489792 
L 374.184033 351.001388 
L 374.436793 350.912587 
L 374.748134 350.751635 
L 374.877985 350.418632 
L 375.880403 348.947869 
L 376.297843 348.781368 
L 376.880943 348.259663 
L 377.165558 347.91556 
L 377.311387 347.721308 
L 377.505592 347.388305 
L 377.982218 347.205154 
L 378.80978 346.011893 
L 378.923932 345.884242 
L 379.278512 345.578989 
L 379.667219 345.351437 
L 379.853042 344.929633 
L 380.062786 344.468979 
L 380.333194 343.869574 
L 380.592699 343.375619 
L 380.707483 343.114767 
L 381.140856 342.948266 
L 381.262523 342.803964 
L 381.358763 342.631913 
L 382.595369 341.027948 
L 382.943945 340.833697 
L 383.157083 340.417443 
L 383.449051 339.940139 
L 383.745037 339.473935 
L 383.975841 339.140932 
L 384.433114 338.95223 
L 385.770718 337.054113 
L 386.115392 336.843211 
L 386.36833 336.426957 
L 386.44023 336.266006 
L 386.577075 336.010704 
L 386.870195 335.455699 
L 387.056148 335.200396 
L 387.188127 334.983944 
L 387.381198 334.795243 
L 387.691126 334.667592 
L 388.551943 333.024777 
L 388.634958 332.880476 
L 388.791427 332.625173 
L 388.92676 332.392071 
L 389.328216 332.164519 
L 389.584868 331.859267 
L 389.841978 331.243211 
L 389.92692 331.07671 
L 390.171932 330.560555 
L 390.273539 330.388503 
L 390.381918 330.155401 
L 390.876905 329.761348 
L 391.11015 329.561546 
L 391.305834 329.322894 
L 391.36301 329.195243 
L 391.741132 328.590287 
L 391.857014 328.334985 
L 391.967778 328.168484 
L 392.065655 327.913181 
L 392.157754 327.79108 
L 392.626994 327.613479 
L 393.574552 326.126065 
L 393.673285 325.937364 
L 393.800048 325.787512 
L 394.198135 325.621011 
L 394.35569 325.354609 
L 394.556647 325.021606 
L 394.674408 324.855104 
L 394.834141 324.583152 
L 395.266887 323.994846 
L 395.894529 323.650743 
L 396.096799 323.30109 
L 396.217879 323.134589 
L 396.34901 322.851536 
L 397.294 321.824777 
L 397.594933 321.658276 
L 397.721126 321.491774 
L 398.589393 320.448365 
L 399.150598 320.292963 
L 399.271608 320.109812 
L 399.395357 319.93221 
L 399.499693 319.760159 
L 399.906347 319.038652 
L 399.99521 318.82775 
L 400.247551 318.383746 
L 400.702398 318.250545 
L 400.824759 318.039643 
L 400.949596 317.800991 
L 401.013478 317.66224 
L 401.123507 317.473538 
L 401.244341 317.229336 
L 401.418993 316.890783 
L 401.57404 316.56333 
L 401.780371 316.258077 
L 402.163819 316.047175 
L 402.410777 315.791873 
L 402.809674 315.031516 
L 402.882416 314.903865 
L 402.902405 314.870565 
L 403.100711 314.754014 
L 403.234585 314.504262 
L 403.44097 314.210109 
L 403.608069 314.021407 
L 404.024775 313.871556 
L 404.141325 313.655104 
L 404.413603 313.21665 
L 404.711858 312.733796 
L 405.527896 311.962339 
L 405.642756 311.834688 
L 405.790776 311.618236 
L 405.980074 311.196432 
L 406.115321 310.94668 
L 406.22916 310.774628 
L 406.323792 310.574827 
L 406.43853 310.313974 
L 406.585945 310.036472 
L 406.970798 309.681269 
L 407.210949 309.498117 
L 407.336911 309.248365 
L 407.484072 308.937562 
L 407.54247 308.75996 
L 407.901039 308.027354 
L 408.001513 307.810902 
L 408.418708 307.144896 
L 408.696232 307.006145 
L 408.825891 306.945094 
L 408.941195 306.806343 
L 409.022402 306.595441 
L 409.16026 306.279088 
L 409.259892 306.145887 
L 409.388222 305.968285 
L 409.61515 305.518731 
L 410.185452 305.024777 
L 410.531614 304.891576 
L 411.009136 303.975818 
L 411.213759 303.692765 
L 411.824423 302.921308 
L 412.188367 302.749257 
L 412.346423 302.493954 
L 412.500733 302.316353 
L 412.711236 302.144301 
L 412.886657 301.9667 
L 413.207614 301.683647 
L 413.657262 301.517146 
L 414.238709 300.806739 
L 414.402312 300.629138 
L 415.255025 299.963132 
L 415.422935 299.79663 
L 416.304704 298.553419 
L 416.484146 298.364718 
L 416.593682 298.237066 
L 417.460396 297.992864 
L 417.591229 297.881863 
L 417.761644 297.743112 
L 418.041595 297.609911 
L 418.178939 297.582161 
L 418.910349 297.443409 
L 419.902804 296.36115 
L 420.404578 296.116947 
L 421.491987 294.679485 
L 421.921861 294.463033 
L 422.241911 294.080079 
L 422.361443 293.930228 
L 422.602041 293.591675 
L 422.715628 293.402973 
L 422.990581 292.981169 
L 423.09664 292.853518 
L 423.509249 292.714767 
L 423.829673 292.181962 
L 424.005506 291.90446 
L 424.138761 291.749058 
L 424.266989 291.543707 
L 424.493721 291.182953 
L 424.608769 291.077502 
L 425.008826 290.8555 
L 425.19375 290.705649 
L 425.29194 290.561348 
L 426.575921 288.685431 
L 426.867052 288.51338 
L 427.215739 287.936174 
L 427.422008 287.586521 
L 427.504345 287.43112 
L 427.649157 287.136967 
L 427.795076 287.020416 
L 427.905992 286.853915 
L 428.038537 286.759564 
L 428.238939 286.631913 
L 428.734822 286.171259 
L 429.14625 285.599604 
L 429.259901 285.416452 
L 429.330297 285.294351 
L 429.501425 285.17225 
L 429.607 285.039049 
L 430.134248 284.883647 
L 430.24661 284.744896 
L 430.398524 284.617245 
L 430.566595 284.367493 
L 430.676893 284.200991 
L 430.789043 283.962339 
L 430.855326 283.829138 
L 431.03265 283.451734 
L 431.176164 283.207532 
L 431.54492 282.93003 
L 431.70717 282.802379 
L 432.010996 282.275124 
L 432.135669 282.025372 
L 432.339066 281.725669 
L 432.468382 281.487017 
L 432.657206 281.203964 
L 432.733441 281.065213 
L 432.859575 280.970862 
L 433.348924 280.73221 
L 433.726214 280.304856 
L 434.132991 279.860852 
L 434.343041 279.60555 
L 435.18476 279.056095 
L 435.309137 278.817443 
L 435.567923 278.406739 
L 435.77563 278.223588 
L 435.905631 278.029336 
L 436.024498 277.857284 
L 436.109441 277.807334 
L 436.591407 277.657483 
L 436.84579 277.32448 
L 437.012031 277.030327 
L 437.158702 276.813875 
L 437.32385 276.547473 
L 437.598115 276.20892 
L 437.709888 276.086819 
L 438.214356 275.687215 
L 438.381469 275.387512 
L 438.494781 275.254311 
L 438.671634 275.004559 
L 438.874256 274.677106 
L 438.996046 274.516155 
L 439.225769 274.299703 
L 439.40714 274.105451 
L 439.838885 273.922299 
L 439.94816 273.789098 
L 440.2474 273.494945 
L 440.376839 273.306244 
L 440.792029 272.93439 
L 440.904933 272.778989 
L 441.011726 272.695738 
L 441.393979 272.562537 
L 441.546228 272.423786 
L 441.969831 271.829931 
L 442.215793 271.385927 
L 442.395458 271.080674 
L 442.554012 270.847572 
L 443.083153 270.536769 
L 443.243332 270.198216 
L 443.299227 270.053915 
L 443.450178 269.826363 
L 443.641058 269.56551 
L 444.261204 268.805154 
L 444.664396 268.644202 
L 444.798908 268.36115 
L 444.930202 268.116947 
L 445.036277 267.939346 
L 445.141569 267.767294 
L 445.262473 267.589693 
L 445.544279 267.25114 
L 445.690375 267.084638 
L 445.822082 266.951437 
L 446.452671 266.707235 
L 446.556281 266.635084 
L 446.809138 266.490783 
L 446.947348 266.346482 
L 447.166028 266.17998 
L 447.661232 265.880278 
L 448.042675 265.730426 
L 448.700393 264.753617 
L 449.098369 264.331814 
L 449.623303 264.098712 
L 449.742194 263.848959 
L 449.880469 263.665808 
L 450.03712 263.421606 
L 450.394631 262.949851 
L 450.668856 262.589098 
L 451.096534 262.483647 
L 451.284311 262.361546 
L 451.667831 261.917542 
L 451.820502 261.617839 
L 452.149434 261.234886 
L 452.274836 261.057284 
L 452.395409 260.935183 
L 452.912026 260.685431 
L 453.050694 260.60218 
L 453.136002 260.430129 
L 453.426762 259.980575 
L 453.593988 259.830723 
L 453.734405 259.619822 
L 453.90187 259.39782 
L 454.514952 259.281269 
L 455.16804 258.29891 
L 455.313552 258.149058 
L 455.41987 258.054708 
L 456.11865 257.777205 
L 456.25813 257.599604 
L 456.70499 257.18335 
L 456.839561 257.033499 
L 457.329337 256.661645 
L 457.807441 256.545094 
L 457.928028 256.450743 
L 458.079291 256.267592 
L 458.185549 256.12884 
L 458.418245 255.934589 
L 458.553993 255.695937 
L 458.992019 255.307433 
L 459.376635 255.174232 
L 459.481666 255.074331 
L 459.656048 254.896729 
L 459.778414 254.702478 
L 459.988936 254.452725 
L 460.314974 254.080872 
L 460.558845 253.86442 
L 461.006803 253.703469 
L 461.120085 253.542517 
L 461.285163 253.320515 
L 461.554863 252.932012 
L 461.732095 252.809911 
L 462.046362 252.438057 
L 462.726079 252.082854 
L 462.816345 251.949653 
L 462.946155 251.822002 
L 463.462476 251.228147 
L 463.674957 251.022795 
L 463.792627 250.856293 
L 464.287964 250.700892 
L 464.51937 250.406739 
L 464.650855 250.229138 
L 464.76228 250.156987 
L 465.077871 249.735183 
L 465.292707 249.446581 
L 465.946409 249.207929 
L 466.113019 248.947076 
L 466.230931 248.797225 
L 466.359831 248.664024 
L 466.524831 248.475322 
L 466.874769 248.025768 
L 467.50848 247.792666 
L 468.721657 246.560555 
L 469.131415 246.432904 
L 469.506703 245.905649 
L 469.644803 245.728048 
L 470.426004 244.773439 
L 470.766734 244.634688 
L 470.885591 244.523687 
L 471.022006 244.362735 
L 471.141228 244.218434 
L 471.307873 244.024182 
L 471.441098 243.818831 
L 471.875257 243.374827 
L 472.446399 243.152825 
L 473.039386 242.336967 
L 473.132637 242.209316 
L 473.51549 241.737562 
L 474.166071 241.404559 
L 474.286857 241.254708 
L 475.027803 240.150248 
L 475.955629 239.645193 
L 476.074061 239.450942 
L 476.20302 239.27889 
L 476.431198 238.879286 
L 477.747322 237.858077 
L 478.082592 237.425173 
L 478.214294 237.225372 
L 478.386031 237.01447 
L 479.042438 236.736967 
L 479.471642 236.220813 
L 479.592506 236.065411 
L 479.807768 235.821209 
L 481.048647 234.83885 
L 481.230099 234.605748 
L 481.35077 234.400396 
L 481.475555 234.206145 
L 481.636333 234.039643 
L 481.796109 233.928642 
L 482.230913 233.784341 
L 482.36668 233.606739 
L 482.53924 233.423588 
L 482.698413 233.301487 
L 482.766559 233.134985 
L 482.898425 233.040634 
L 483.424605 232.629931 
L 483.795581 232.51338 
L 484.109274 232.158176 
L 485.107015 231.264618 
L 485.489747 231.070367 
L 485.599565 230.881665 
L 485.753582 230.631913 
L 485.856793 230.470961 
L 486.0505 230.27671 
L 486.445338 229.832706 
L 486.566678 229.777205 
L 487.078629 229.571853 
L 487.189381 229.455302 
L 487.444365 229.16115 
L 487.548131 228.994648 
L 487.709855 228.811497 
L 487.831414 228.661645 
L 488.140375 228.245391 
L 488.753909 227.940139 
L 488.900045 227.729237 
L 489.139951 227.390684 
L 489.275252 227.207532 
L 489.746334 226.674727 
L 490.382693 226.369475 
L 490.680407 226.047572 
L 490.964358 225.675719 
L 491.092946 225.514767 
L 491.202937 225.298315 
L 491.319773 225.148464 
L 491.524457 225.015263 
L 491.844803 224.870961 
L 492.121942 224.637859 
L 492.341948 224.388107 
L 492.486499 224.260456 
L 492.620088 224.127255 
L 492.935474 223.716551 
L 492.999755 223.5778 
L 493.225798 223.505649 
L 493.547422 223.377998 
L 493.702187 223.172646 
L 494.091483 222.711992 
L 494.281586 222.567691 
L 494.547833 222.384539 
L 495.26496 222.134787 
L 496.382337 220.997027 
L 496.873728 220.836075 
L 497.059888 220.619623 
L 497.212922 220.436472 
L 497.417055 220.28662 
L 497.5906 220.031318 
L 498.207702 219.565114 
L 498.541753 219.415263 
L 498.668519 219.270961 
L 498.779455 219.12111 
L 499.364664 218.688206 
L 499.475309 218.616056 
L 499.879363 218.460654 
L 500.137325 218.338553 
L 500.24276 218.183152 
L 500.431562 218.00555 
L 501.007099 217.439445 
L 501.422408 217.284044 
L 502.143241 217.123092 
L 502.495469 216.86779 
L 503.314314 216.451536 
L 504.085543 216.079683 
L 504.21292 215.874331 
L 504.397659 215.652329 
L 504.522967 215.569078 
L 505.047496 215.341526 
L 506.409557 214.126065 
L 506.665432 214.003964 
L 506.911084 213.787512 
L 507.032605 213.670961 
L 507.838434 212.810704 
L 508.243397 212.666402 
L 508.504272 212.42775 
L 508.705888 212.244599 
L 508.846184 212.055897 
L 509.077661 211.756194 
L 509.239429 211.595243 
L 509.355082 211.523092 
L 510.067293 210.862636 
L 510.490678 210.290981 
L 510.609941 210.091179 
L 510.811441 209.880278 
L 511.247172 209.674926 
L 511.516753 209.530624 
L 511.817374 209.175421 
L 511.948312 209.08107 
L 512.125964 208.931219 
L 512.255578 208.842418 
L 513.496326 207.93776 
L 513.801694 207.471556 
L 514.463161 206.911001 
L 514.704176 206.78335 
L 514.815088 206.639049 
L 515.185765 206.244995 
L 515.369642 206.017443 
L 515.497292 205.873142 
L 515.63224 205.64559 
L 515.841448 205.379187 
L 516.277908 205.201586 
L 516.653384 204.496729 
L 516.975262 204.197027 
L 517.096051 204.013875 
L 517.289722 203.592071 
L 517.609568 203.309019 
L 518.041813 203.114767 
L 518.180838 202.831715 
L 519.192405 201.1889 
L 519.695861 201.005748 
L 519.957322 200.805946 
L 521.03849 200.10109 
L 521.346066 199.978989 
L 521.467538 199.873538 
L 521.644334 199.745887 
L 521.915189 199.512785 
L 522.488443 198.98553 
L 522.964488 198.691378 
L 523.130446 198.436075 
L 523.412201 198.147473 
L 523.535721 197.980971 
L 523.700651 197.770069 
L 523.879512 197.514767 
L 524.243897 197.376016 
L 524.479279 197.242815 
L 524.729531 196.848761 
L 524.999363 196.476908 
L 525.21682 196.149455 
L 525.542277 195.727651 
L 526.165317 195.455699 
L 526.288243 195.228147 
L 526.484818 194.989495 
L 526.612957 194.828543 
L 526.966856 194.306838 
L 527.172641 194.045986 
L 527.277815 193.979386 
L 527.637092 193.801784 
L 527.794276 193.574232 
L 527.955998 193.41328 
L 528.075148 193.224579 
L 528.238772 193.035877 
L 528.511417 192.636274 
L 528.665939 192.425372 
L 529.676041 191.681665 
L 529.787343 191.498513 
L 529.872961 191.354212 
L 530.257292 190.821407 
L 530.405947 190.627156 
L 530.717869 190.427354 
L 531.129972 190.088801 
L 531.318729 189.883449 
L 531.562608 189.655897 
L 531.713809 189.555996 
L 531.788365 189.422795 
L 531.941599 189.250743 
L 532.012807 189.123092 
L 532.157958 188.973241 
L 532.411523 188.82894 
L 533.038742 188.218434 
L 533.15582 188.046383 
L 533.513312 187.430327 
L 533.631779 187.269376 
L 533.744477 187.141724 
L 534.235419 186.991873 
L 534.597158 186.492369 
L 534.706476 186.359167 
L 534.874849 186.081665 
L 535.029689 185.948464 
L 535.598575 185.404559 
L 535.917053 185.210307 
L 536.077238 185.066006 
L 536.360624 184.694153 
L 536.553369 184.533201 
L 536.988903 184.033697 
L 537.449696 183.783944 
L 537.652276 183.595243 
L 537.763459 183.423191 
L 537.879659 183.32884 
L 538.054343 183.151239 
L 538.619275 182.440833 
L 539.15322 182.257681 
L 539.427925 181.980178 
L 539.581471 181.874727 
L 541.467077 180.459465 
L 541.579059 180.320714 
L 541.737891 180.132012 
L 541.873536 179.97106 
L 542.330965 179.815659 
L 542.437809 179.737958 
L 542.615305 179.577007 
L 542.719233 179.504856 
L 542.907077 179.355005 
L 543.384042 178.76115 
L 544.08528 178.400396 
L 544.197171 178.317146 
L 544.347091 178.183944 
L 545.239187 177.179386 
L 545.666392 176.996234 
L 545.946989 176.60773 
L 546.140461 176.491179 
L 546.848001 175.791873 
L 547.440787 175.42557 
L 547.583096 175.270168 
L 547.723858 175.125867 
L 548.13208 174.559762 
L 548.252118 174.409911 
L 548.36079 174.29891 
L 548.780128 174.149058 
L 548.934564 174.010307 
L 549.36552 173.577403 
L 549.686857 173.1667 
L 550.06521 172.800396 
L 550.507349 172.650545 
L 550.61517 172.517344 
L 550.753066 172.384143 
L 550.970378 172.145491 
L 551.186947 171.834688 
L 551.879849 171.196432 
L 552.151256 171.046581 
L 553.681167 169.614668 
L 553.979296 169.392666 
L 554.14868 169.142914 
L 554.294999 168.970862 
L 555.019218 167.994054 
L 555.474402 167.788702 
L 555.719416 167.377998 
L 556.664845 166.329039 
L 557.080587 166.095937 
L 557.216167 165.923885 
L 557.542464 165.424381 
L 557.713711 165.169078 
L 557.826498 164.974827 
L 558.202389 164.525273 
L 558.543176 164.375421 
L 559.070588 163.587314 
L 559.259173 163.315362 
L 559.398559 163.193261 
L 559.537918 163.021209 
L 559.691248 162.849158 
L 559.955514 162.721506 
L 560.337463 162.555005 
L 560.423385 162.505055 
L 560.578449 162.371853 
L 560.738028 162.133201 
L 561.243175 161.578196 
L 561.362166 161.422795 
L 562.217667 160.91774 
L 562.486923 160.568087 
L 562.603508 160.440436 
L 563.103218 159.896531 
L 563.58601 159.71893 
L 565.019196 158.370268 
L 565.213946 158.242616 
L 565.419524 158.020614 
L 565.514855 157.881863 
L 565.832768 157.51556 
L 565.948944 157.221407 
L 566.176104 156.955005 
L 566.282766 156.866204 
L 566.737662 156.716353 
L 568.22682 155.339941 
L 568.501349 155.173439 
L 568.631452 154.990287 
L 568.82719 154.757185 
L 569.854388 153.630525 
L 570.055321 153.436274 
L 570.185898 153.230922 
L 570.66595 152.670367 
L 571.06282 152.309613 
L 571.53482 152.065411 
L 571.713223 151.93776 
L 571.837448 151.86561 
L 572.14894 151.582557 
L 572.290143 151.338355 
L 572.416955 151.188503 
L 572.979788 150.539148 
L 573.278964 150.389296 
L 574.25368 149.279286 
L 574.802287 149.140535 
L 574.974376 148.985134 
L 575.111927 148.735382 
L 575.536938 148.086026 
L 575.820046 147.636472 
L 576.07599 147.275719 
L 576.320159 147.103667 
L 576.421743 147.037066 
L 576.66842 146.853915 
L 576.812199 146.715164 
L 576.941485 146.543112 
L 577.114742 146.176809 
L 577.256792 145.971457 
L 577.367163 145.738355 
L 577.519067 145.538553 
L 577.647165 145.360951 
L 577.950332 145.2444 
L 578.338794 145.033499 
L 578.451517 144.944698 
L 578.629538 144.789296 
L 580.218894 143.756987 
L 580.55651 143.396234 
L 581.523636 142.93558 
L 581.729997 142.730228 
L 582.810654 141.714569 
L 583.065357 141.553617 
L 584.106825 140.426957 
L 584.751368 140.166105 
L 585.895853 139.061645 
L 586.301825 138.906244 
L 586.493351 138.734192 
L 586.617631 138.606541 
L 586.96643 138.423389 
L 587.091862 138.301288 
L 587.359941 138.145887 
L 589.912811 136.752825 
L 590.021128 136.658474 
L 590.173264 136.469772 
L 590.287399 136.314371 
L 590.44925 136.059068 
L 591.549096 135.182161 
L 591.65797 135.048959 
L 591.791796 134.899108 
L 591.913075 134.793657 
L 592.05811 134.666006 
L 592.25408 134.488404 
L 592.359609 134.388503 
L 593.063013 134.0444 
L 593.271158 133.855699 
L 593.646177 133.550446 
L 593.797572 133.472745 
L 594.464333 133.222993 
L 594.616554 133.050942 
L 594.711508 132.973241 
L 594.850685 132.82894 
L 595.061137 132.601388 
L 595.182706 132.523687 
L 596.832214 131.397027 
L 596.953035 131.280476 
L 597.857605 130.775421 
L 598.0522 130.60892 
L 598.227677 130.381368 
L 598.864914 129.726462 
L 599.249842 129.582161 
L 599.634786 129.293558 
L 599.955994 128.844004 
L 600.167625 128.694153 
L 600.588386 128.41665 
L 601.107576 128.078097 
L 601.224182 127.944896 
L 601.375228 127.711794 
L 601.535781 127.556392 
L 601.804049 127.27334 
L 601.913395 127.190089 
L 602.71199 126.690585 
L 602.781204 126.618434 
L 602.964623 126.490783 
L 603.218035 126.235481 
L 603.385449 126.030129 
L 603.512746 125.846977 
L 603.656363 125.691576 
L 603.760678 125.586125 
L 604.291594 125.430723 
L 604.397155 125.303072 
L 604.687727 125.08107 
L 604.808839 124.881269 
L 605.314413 124.592666 
L 605.963309 124.381764 
L 606.317184 124.065411 
L 606.486 123.91001 
L 606.716772 123.715758 
L 606.848733 123.565907 
L 607.56217 123.177403 
L 607.711181 122.949851 
L 608.078935 122.528048 
L 608.193023 122.422597 
L 608.866907 121.778791 
L 609.217828 121.578989 
L 609.302778 121.551239 
L 609.551364 121.412488 
L 609.799549 121.184936 
L 610.508153 120.57998 
L 610.799612 120.457879 
L 611.556507 119.697522 
L 611.680741 119.603171 
L 612.084399 119.370069 
L 612.680987 119.081467 
L 612.829747 118.948266 
L 613.022364 118.803964 
L 613.144041 118.670763 
L 613.676626 118.36551 
L 614.008233 118.237859 
L 614.369584 117.943707 
L 614.605857 117.766105 
L 614.728129 117.632904 
L 614.963587 117.372052 
L 615.386482 117.083449 
L 615.753055 116.900297 
L 616.117236 116.567294 
L 616.244277 116.428543 
L 616.47402 116.212091 
L 617.075725 115.973439 
L 617.344381 115.784737 
L 617.734477 115.468385 
L 617.900962 115.274133 
L 618.044708 115.140932 
L 618.399792 114.724678 
L 618.823979 114.547076 
L 619.10729 114.275124 
L 619.276526 114.103072 
L 619.476885 113.897721 
L 619.847223 113.536967 
L 619.921274 113.448167 
L 620.449469 113.276115 
L 621.914053 112.132805 
L 622.259082 111.988503 
L 622.450729 111.755401 
L 622.636364 111.6 
L 622.636364 111.6 
" style="fill:none;stroke:#92c6ff;stroke-linecap:round;stroke-width:1.5;"/>
   </g>
   <g id="line2d_24">
    <defs>
     <path d="M 0 2.5 
C 0.663008 2.5 1.29895 2.236584 1.767767 1.767767 
C 2.236584 1.29895 2.5 0.663008 2.5 0 
C 2.5 -0.663008 2.236584 -1.29895 1.767767 -1.767767 
C 1.29895 -2.236584 0.663008 -2.5 0 -2.5 
C -0.663008 -2.5 -1.29895 -2.236584 -1.767767 -1.767767 
C -2.236584 -1.29895 -2.5 -0.663008 -2.5 0 
C -2.5 0.663008 -2.236584 1.29895 -1.767767 1.767767 
C -1.29895 2.236584 -0.663008 2.5 0 2.5 
z
" id="mf2c96501cb" style="stroke:#696969;"/>
    </defs>
    <g clip-path="url(#p97053e7f02)">
     <use style="fill:#696969;stroke:#696969;" x="115.363636" xlink:href="#mf2c96501cb" y="615.6"/>
    </g>
   </g>
   <g id="line2d_25">
    <g clip-path="url(#p97053e7f02)">
     <use style="fill:#696969;stroke:#696969;" x="199.176013" xlink:href="#mf2c96501cb" y="565.19445"/>
    </g>
   </g>
   <g id="line2d_26">
    <g clip-path="url(#p97053e7f02)">
     <use style="fill:#696969;stroke:#696969;" x="242.787557" xlink:href="#mf2c96501cb" y="514.79445"/>
    </g>
   </g>
   <g id="line2d_27">
    <g clip-path="url(#p97053e7f02)">
     <use style="fill:#696969;stroke:#696969;" x="287.283475" xlink:href="#mf2c96501cb" y="464.39445"/>
    </g>
   </g>
   <g id="line2d_28">
    <g clip-path="url(#p97053e7f02)">
     <use style="fill:#696969;stroke:#696969;" x="321.752168" xlink:href="#mf2c96501cb" y="413.99445"/>
    </g>
   </g>
   <g id="line2d_29">
    <g clip-path="url(#p97053e7f02)">
     <use style="fill:#696969;stroke:#696969;" x="364.356914" xlink:href="#mf2c96501cb" y="363.59445"/>
    </g>
   </g>
   <g id="line2d_30">
    <g clip-path="url(#p97053e7f02)">
     <use style="fill:#696969;stroke:#696969;" x="404.423631" xlink:href="#mf2c96501cb" y="313.19445"/>
    </g>
   </g>
   <g id="line2d_31">
    <g clip-path="url(#p97053e7f02)">
     <use style="fill:#696969;stroke:#696969;" x="450.543809" xlink:href="#mf2c96501cb" y="262.79445"/>
    </g>
   </g>
   <g id="line2d_32">
    <g clip-path="url(#p97053e7f02)">
     <use style="fill:#696969;stroke:#696969;" x="508.554291" xlink:href="#mf2c96501cb" y="212.39445"/>
    </g>
   </g>
   <g id="line2d_33">
    <g clip-path="url(#p97053e7f02)">
     <use style="fill:#696969;stroke:#696969;" x="560.848531" xlink:href="#mf2c96501cb" y="161.99445"/>
    </g>
   </g>
   <g id="line2d_34">
    <g clip-path="url(#p97053e7f02)">
     <use style="fill:#696969;stroke:#696969;" x="622.636364" xlink:href="#mf2c96501cb" y="111.6"/>
    </g>
   </g>
   <g id="patch_3">
    <path d="M 90 640.8 
L 90 86.4 
" style="fill:none;stroke:#cccccc;stroke-linecap:square;stroke-linejoin:miter;"/>
   </g>
   <g id="patch_4">
    <path d="M 648 640.8 
L 648 86.4 
" style="fill:none;stroke:#cccccc;stroke-linecap:square;stroke-linejoin:miter;"/>
   </g>
   <g id="patch_5">
    <path d="M 90 640.8 
L 648 640.8 
" style="fill:none;stroke:#cccccc;stroke-linecap:square;stroke-linejoin:miter;"/>
   </g>
   <g id="patch_6">
    <path d="M 90 86.4 
L 648 86.4 
" style="fill:none;stroke:#cccccc;stroke-linecap:square;stroke-linejoin:miter;"/>
   </g>
   <g id="text_12">
    <!-- 1 (2014-06-06) -->
    <defs>
     <path id="DejaVuSans-32"/>
     <path d="M 31 75.875 
Q 24.46875 64.65625 21.28125 53.65625 
Q 18.109375 42.671875 18.109375 31.390625 
Q 18.109375 20.125 21.3125 9.0625 
Q 24.515625 -2 31 -13.1875 
L 23.1875 -13.1875 
Q 15.875 -1.703125 12.234375 9.375 
Q 8.59375 20.453125 8.59375 31.390625 
Q 8.59375 42.28125 12.203125 53.3125 
Q 15.828125 64.359375 23.1875 75.875 
z
" id="DejaVuSans-40"/>
     <path d="M 4.890625 31.390625 
L 31.203125 31.390625 
L 31.203125 23.390625 
L 4.890625 23.390625 
z
" id="DejaVuSans-45"/>
     <path d="M 8.015625 75.875 
L 15.828125 75.875 
Q 23.140625 64.359375 26.78125 53.3125 
Q 30.421875 42.28125 30.421875 31.390625 
Q 30.421875 20.453125 26.78125 9.375 
Q 23.140625 -1.703125 15.828125 -13.1875 
L 8.015625 -13.1875 
Q 14.5 -2 17.703125 9.0625 
Q 20.90625 20.125 20.90625 31.390625 
Q 20.90625 42.671875 17.703125 53.65625 
Q 14.5 64.65625 8.015625 75.875 
z
" id="DejaVuSans-41"/>
    </defs>
    <g style="fill:#262626;" transform="translate(120.363636 623.198437)scale(0.1 -0.1)">
     <use xlink:href="#DejaVuSans-49"/>
     <use x="63.623047" xlink:href="#DejaVuSans-32"/>
     <use x="95.410156" xlink:href="#DejaVuSans-40"/>
     <use x="134.423828" xlink:href="#DejaVuSans-50"/>
     <use x="198.046875" xlink:href="#DejaVuSans-48"/>
     <use x="261.669922" xlink:href="#DejaVuSans-49"/>
     <use x="325.292969" xlink:href="#DejaVuSans-52"/>
     <use x="388.916016" xlink:href="#DejaVuSans-45"/>
     <use x="425" xlink:href="#DejaVuSans-48"/>
     <use x="488.623047" xlink:href="#DejaVuSans-54"/>
     <use x="552.246094" xlink:href="#DejaVuSans-45"/>
     <use x="588.330078" xlink:href="#DejaVuSans-48"/>
     <use x="651.953125" xlink:href="#DejaVuSans-54"/>
     <use x="715.576172" xlink:href="#DejaVuSans-41"/>
    </g>
   </g>
   <g id="text_13">
    <!-- 9083 (2015-06-02) -->
    <defs>
     <path d="M 40.578125 39.3125 
Q 47.65625 37.796875 51.625 33 
Q 55.609375 28.21875 55.609375 21.1875 
Q 55.609375 10.40625 48.1875 4.484375 
Q 40.765625 -1.421875 27.09375 -1.421875 
Q 22.515625 -1.421875 17.65625 -0.515625 
Q 12.796875 0.390625 7.625 2.203125 
L 7.625 11.71875 
Q 11.71875 9.328125 16.59375 8.109375 
Q 21.484375 6.890625 26.8125 6.890625 
Q 36.078125 6.890625 40.9375 10.546875 
Q 45.796875 14.203125 45.796875 21.1875 
Q 45.796875 27.640625 41.28125 31.265625 
Q 36.765625 34.90625 28.71875 34.90625 
L 20.21875 34.90625 
L 20.21875 43.015625 
L 29.109375 43.015625 
Q 36.375 43.015625 40.234375 45.921875 
Q 44.09375 48.828125 44.09375 54.296875 
Q 44.09375 59.90625 40.109375 62.90625 
Q 36.140625 65.921875 28.71875 65.921875 
Q 24.65625 65.921875 20.015625 65.03125 
Q 15.375 64.15625 9.8125 62.3125 
L 9.8125 71.09375 
Q 15.4375 72.65625 20.34375 73.4375 
Q 25.25 74.21875 29.59375 74.21875 
Q 40.828125 74.21875 47.359375 69.109375 
Q 53.90625 64.015625 53.90625 55.328125 
Q 53.90625 49.265625 50.4375 45.09375 
Q 46.96875 40.921875 40.578125 39.3125 
z
" id="DejaVuSans-51"/>
    </defs>
    <g style="fill:#262626;" transform="translate(204.176013 572.792887)scale(0.1 -0.1)">
     <use xlink:href="#DejaVuSans-57"/>
     <use x="63.623047" xlink:href="#DejaVuSans-48"/>
     <use x="127.246094" xlink:href="#DejaVuSans-56"/>
     <use x="190.869141" xlink:href="#DejaVuSans-51"/>
     <use x="254.492188" xlink:href="#DejaVuSans-32"/>
     <use x="286.279297" xlink:href="#DejaVuSans-40"/>
     <use x="325.292969" xlink:href="#DejaVuSans-50"/>
     <use x="388.916016" xlink:href="#DejaVuSans-48"/>
     <use x="452.539062" xlink:href="#DejaVuSans-49"/>
     <use x="516.162109" xlink:href="#DejaVuSans-53"/>
     <use x="579.785156" xlink:href="#DejaVuSans-45"/>
     <use x="615.869141" xlink:href="#DejaVuSans-48"/>
     <use x="679.492188" xlink:href="#DejaVuSans-54"/>
     <use x="743.115234" xlink:href="#DejaVuSans-45"/>
     <use x="779.199219" xlink:href="#DejaVuSans-48"/>
     <use x="842.822266" xlink:href="#DejaVuSans-50"/>
     <use x="906.445312" xlink:href="#DejaVuSans-41"/>
    </g>
   </g>
   <g id="text_14">
    <!-- 18164 (2015-12-06) -->
    <g style="fill:#262626;" transform="translate(247.787557 522.392887)scale(0.1 -0.1)">
     <use xlink:href="#DejaVuSans-49"/>
     <use x="63.623047" xlink:href="#DejaVuSans-56"/>
     <use x="127.246094" xlink:href="#DejaVuSans-49"/>
     <use x="190.869141" xlink:href="#DejaVuSans-54"/>
     <use x="254.492188" xlink:href="#DejaVuSans-52"/>
     <use x="318.115234" xlink:href="#DejaVuSans-32"/>
     <use x="349.902344" xlink:href="#DejaVuSans-40"/>
     <use x="388.916016" xlink:href="#DejaVuSans-50"/>
     <use x="452.539062" xlink:href="#DejaVuSans-48"/>
     <use x="516.162109" xlink:href="#DejaVuSans-49"/>
     <use x="579.785156" xlink:href="#DejaVuSans-53"/>
     <use x="643.408203" xlink:href="#DejaVuSans-45"/>
     <use x="679.492188" xlink:href="#DejaVuSans-49"/>
     <use x="743.115234" xlink:href="#DejaVuSans-50"/>
     <use x="806.738281" xlink:href="#DejaVuSans-45"/>
     <use x="842.822266" xlink:href="#DejaVuSans-48"/>
     <use x="906.445312" xlink:href="#DejaVuSans-54"/>
     <use x="970.068359" xlink:href="#DejaVuSans-41"/>
    </g>
   </g>
   <g id="text_15">
    <!-- 27245 (2016-06-15) -->
    <g style="fill:#262626;" transform="translate(292.283475 471.992887)scale(0.1 -0.1)">
     <use xlink:href="#DejaVuSans-50"/>
     <use x="63.623047" xlink:href="#DejaVuSans-55"/>
     <use x="127.246094" xlink:href="#DejaVuSans-50"/>
     <use x="190.869141" xlink:href="#DejaVuSans-52"/>
     <use x="254.492188" xlink:href="#DejaVuSans-53"/>
     <use x="318.115234" xlink:href="#DejaVuSans-32"/>
     <use x="349.902344" xlink:href="#DejaVuSans-40"/>
     <use x="388.916016" xlink:href="#DejaVuSans-50"/>
     <use x="452.539062" xlink:href="#DejaVuSans-48"/>
     <use x="516.162109" xlink:href="#DejaVuSans-49"/>
     <use x="579.785156" xlink:href="#DejaVuSans-54"/>
     <use x="643.408203" xlink:href="#DejaVuSans-45"/>
     <use x="679.492188" xlink:href="#DejaVuSans-48"/>
     <use x="743.115234" xlink:href="#DejaVuSans-54"/>
     <use x="806.738281" xlink:href="#DejaVuSans-45"/>
     <use x="842.822266" xlink:href="#DejaVuSans-49"/>
     <use x="906.445312" xlink:href="#DejaVuSans-53"/>
     <use x="970.068359" xlink:href="#DejaVuSans-41"/>
    </g>
   </g>
   <g id="text_16">
    <!-- 36326 (2016-11-10) -->
    <g style="fill:#262626;" transform="translate(326.752168 421.592887)scale(0.1 -0.1)">
     <use xlink:href="#DejaVuSans-51"/>
     <use x="63.623047" xlink:href="#DejaVuSans-54"/>
     <use x="127.246094" xlink:href="#DejaVuSans-51"/>
     <use x="190.869141" xlink:href="#DejaVuSans-50"/>
     <use x="254.492188" xlink:href="#DejaVuSans-54"/>
     <use x="318.115234" xlink:href="#DejaVuSans-32"/>
     <use x="349.902344" xlink:href="#DejaVuSans-40"/>
     <use x="388.916016" xlink:href="#DejaVuSans-50"/>
     <use x="452.539062" xlink:href="#DejaVuSans-48"/>
     <use x="516.162109" xlink:href="#DejaVuSans-49"/>
     <use x="579.785156" xlink:href="#DejaVuSans-54"/>
     <use x="643.408203" xlink:href="#DejaVuSans-45"/>
     <use x="679.492188" xlink:href="#DejaVuSans-49"/>
     <use x="743.115234" xlink:href="#DejaVuSans-49"/>
     <use x="806.738281" xlink:href="#DejaVuSans-45"/>
     <use x="842.822266" xlink:href="#DejaVuSans-49"/>
     <use x="906.445312" xlink:href="#DejaVuSans-48"/>
     <use x="970.068359" xlink:href="#DejaVuSans-41"/>
    </g>
   </g>
   <g id="text_17">
    <!-- 45407 (2017-05-12) -->
    <g style="fill:#262626;" transform="translate(369.356914 371.192887)scale(0.1 -0.1)">
     <use xlink:href="#DejaVuSans-52"/>
     <use x="63.623047" xlink:href="#DejaVuSans-53"/>
     <use x="127.246094" xlink:href="#DejaVuSans-52"/>
     <use x="190.869141" xlink:href="#DejaVuSans-48"/>
     <use x="254.492188" xlink:href="#DejaVuSans-55"/>
     <use x="318.115234" xlink:href="#DejaVuSans-32"/>
     <use x="349.902344" xlink:href="#DejaVuSans-40"/>
     <use x="388.916016" xlink:href="#DejaVuSans-50"/>
     <use x="452.539062" xlink:href="#DejaVuSans-48"/>
     <use x="516.162109" xlink:href="#DejaVuSans-49"/>
     <use x="579.785156" xlink:href="#DejaVuSans-55"/>
     <use x="643.408203" xlink:href="#DejaVuSans-45"/>
     <use x="679.492188" xlink:href="#DejaVuSans-48"/>
     <use x="743.115234" xlink:href="#DejaVuSans-53"/>
     <use x="806.738281" xlink:href="#DejaVuSans-45"/>
     <use x="842.822266" xlink:href="#DejaVuSans-49"/>
     <use x="906.445312" xlink:href="#DejaVuSans-50"/>
     <use x="970.068359" xlink:href="#DejaVuSans-41"/>
    </g>
   </g>
   <g id="text_18">
    <!-- 54488 (2017-11-01) -->
    <g style="fill:#262626;" transform="translate(409.423631 320.792887)scale(0.1 -0.1)">
     <use xlink:href="#DejaVuSans-53"/>
     <use x="63.623047" xlink:href="#DejaVuSans-52"/>
     <use x="127.246094" xlink:href="#DejaVuSans-52"/>
     <use x="190.869141" xlink:href="#DejaVuSans-56"/>
     <use x="254.492188" xlink:href="#DejaVuSans-56"/>
     <use x="318.115234" xlink:href="#DejaVuSans-32"/>
     <use x="349.902344" xlink:href="#DejaVuSans-40"/>
     <use x="388.916016" xlink:href="#DejaVuSans-50"/>
     <use x="452.539062" xlink:href="#DejaVuSans-48"/>
     <use x="516.162109" xlink:href="#DejaVuSans-49"/>
     <use x="579.785156" xlink:href="#DejaVuSans-55"/>
     <use x="643.408203" xlink:href="#DejaVuSans-45"/>
     <use x="679.492188" xlink:href="#DejaVuSans-49"/>
     <use x="743.115234" xlink:href="#DejaVuSans-49"/>
     <use x="806.738281" xlink:href="#DejaVuSans-45"/>
     <use x="842.822266" xlink:href="#DejaVuSans-48"/>
     <use x="906.445312" xlink:href="#DejaVuSans-49"/>
     <use x="970.068359" xlink:href="#DejaVuSans-41"/>
    </g>
   </g>
   <g id="text_19">
    <!-- 63569 (2018-05-18) -->
    <g style="fill:#262626;" transform="translate(455.543809 270.392887)scale(0.1 -0.1)">
     <use xlink:href="#DejaVuSans-54"/>
     <use x="63.623047" xlink:href="#DejaVuSans-51"/>
     <use x="127.246094" xlink:href="#DejaVuSans-53"/>
     <use x="190.869141" xlink:href="#DejaVuSans-54"/>
     <use x="254.492188" xlink:href="#DejaVuSans-57"/>
     <use x="318.115234" xlink:href="#DejaVuSans-32"/>
     <use x="349.902344" xlink:href="#DejaVuSans-40"/>
     <use x="388.916016" xlink:href="#DejaVuSans-50"/>
     <use x="452.539062" xlink:href="#DejaVuSans-48"/>
     <use x="516.162109" xlink:href="#DejaVuSans-49"/>
     <use x="579.785156" xlink:href="#DejaVuSans-56"/>
     <use x="643.408203" xlink:href="#DejaVuSans-45"/>
     <use x="679.492188" xlink:href="#DejaVuSans-48"/>
     <use x="743.115234" xlink:href="#DejaVuSans-53"/>
     <use x="806.738281" xlink:href="#DejaVuSans-45"/>
     <use x="842.822266" xlink:href="#DejaVuSans-49"/>
     <use x="906.445312" xlink:href="#DejaVuSans-56"/>
     <use x="970.068359" xlink:href="#DejaVuSans-41"/>
    </g>
   </g>
   <g id="text_20">
    <!-- 72650 (2019-01-22) -->
    <g style="fill:#262626;" transform="translate(513.554291 219.992887)scale(0.1 -0.1)">
     <use xlink:href="#DejaVuSans-55"/>
     <use x="63.623047" xlink:href="#DejaVuSans-50"/>
     <use x="127.246094" xlink:href="#DejaVuSans-54"/>
     <use x="190.869141" xlink:href="#DejaVuSans-53"/>
     <use x="254.492188" xlink:href="#DejaVuSans-48"/>
     <use x="318.115234" xlink:href="#DejaVuSans-32"/>
     <use x="349.902344" xlink:href="#DejaVuSans-40"/>
     <use x="388.916016" xlink:href="#DejaVuSans-50"/>
     <use x="452.539062" xlink:href="#DejaVuSans-48"/>
     <use x="516.162109" xlink:href="#DejaVuSans-49"/>
     <use x="579.785156" xlink:href="#DejaVuSans-57"/>
     <use x="643.408203" xlink:href="#DejaVuSans-45"/>
     <use x="679.492188" xlink:href="#DejaVuSans-48"/>
     <use x="743.115234" xlink:href="#DejaVuSans-49"/>
     <use x="806.738281" xlink:href="#DejaVuSans-45"/>
     <use x="842.822266" xlink:href="#DejaVuSans-50"/>
     <use x="906.445312" xlink:href="#DejaVuSans-50"/>
     <use x="970.068359" xlink:href="#DejaVuSans-41"/>
    </g>
   </g>
   <g id="text_21">
    <!-- 81731 (2019-09-04) -->
    <g style="fill:#262626;" transform="translate(565.848531 169.592887)scale(0.1 -0.1)">
     <use xlink:href="#DejaVuSans-56"/>
     <use x="63.623047" xlink:href="#DejaVuSans-49"/>
     <use x="127.246094" xlink:href="#DejaVuSans-55"/>
     <use x="190.869141" xlink:href="#DejaVuSans-51"/>
     <use x="254.492188" xlink:href="#DejaVuSans-49"/>
     <use x="318.115234" xlink:href="#DejaVuSans-32"/>
     <use x="349.902344" xlink:href="#DejaVuSans-40"/>
     <use x="388.916016" xlink:href="#DejaVuSans-50"/>
     <use x="452.539062" xlink:href="#DejaVuSans-48"/>
     <use x="516.162109" xlink:href="#DejaVuSans-49"/>
     <use x="579.785156" xlink:href="#DejaVuSans-57"/>
     <use x="643.408203" xlink:href="#DejaVuSans-45"/>
     <use x="679.492188" xlink:href="#DejaVuSans-48"/>
     <use x="743.115234" xlink:href="#DejaVuSans-57"/>
     <use x="806.738281" xlink:href="#DejaVuSans-45"/>
     <use x="842.822266" xlink:href="#DejaVuSans-48"/>
     <use x="906.445312" xlink:href="#DejaVuSans-52"/>
     <use x="970.068359" xlink:href="#DejaVuSans-41"/>
    </g>
   </g>
   <g id="text_22">
    <!-- 90811 (2020-05-27) -->
    <g style="fill:#262626;" transform="translate(627.636364 119.198437)scale(0.1 -0.1)">
     <use xlink:href="#DejaVuSans-57"/>
     <use x="63.623047" xlink:href="#DejaVuSans-48"/>
     <use x="127.246094" xlink:href="#DejaVuSans-56"/>
     <use x="190.869141" xlink:href="#DejaVuSans-49"/>
     <use x="254.492188" xlink:href="#DejaVuSans-49"/>
     <use x="318.115234" xlink:href="#DejaVuSans-32"/>
     <use x="349.902344" xlink:href="#DejaVuSans-40"/>
     <use x="388.916016" xlink:href="#DejaVuSans-50"/>
     <use x="452.539062" xlink:href="#DejaVuSans-48"/>
     <use x="516.162109" xlink:href="#DejaVuSans-50"/>
     <use x="579.785156" xlink:href="#DejaVuSans-48"/>
     <use x="643.408203" xlink:href="#DejaVuSans-45"/>
     <use x="679.492188" xlink:href="#DejaVuSans-48"/>
     <use x="743.115234" xlink:href="#DejaVuSans-53"/>
     <use x="806.738281" xlink:href="#DejaVuSans-45"/>
     <use x="842.822266" xlink:href="#DejaVuSans-50"/>
     <use x="906.445312" xlink:href="#DejaVuSans-55"/>
     <use x="970.068359" xlink:href="#DejaVuSans-41"/>
    </g>
   </g>
   <g id="text_23">
    <!-- Created issues and PRs over time -->
    <defs>
     <path d="M 64.40625 67.28125 
L 64.40625 56.890625 
Q 59.421875 61.53125 53.78125 63.8125 
Q 48.140625 66.109375 41.796875 66.109375 
Q 29.296875 66.109375 22.65625 58.46875 
Q 16.015625 50.828125 16.015625 36.375 
Q 16.015625 21.96875 22.65625 14.328125 
Q 29.296875 6.6875 41.796875 6.6875 
Q 48.140625 6.6875 53.78125 8.984375 
Q 59.421875 11.28125 64.40625 15.921875 
L 64.40625 5.609375 
Q 59.234375 2.09375 53.4375 0.328125 
Q 47.65625 -1.421875 41.21875 -1.421875 
Q 24.65625 -1.421875 15.125 8.703125 
Q 5.609375 18.84375 5.609375 36.375 
Q 5.609375 53.953125 15.125 64.078125 
Q 24.65625 74.21875 41.21875 74.21875 
Q 47.75 74.21875 53.53125 72.484375 
Q 59.328125 70.75 64.40625 67.28125 
z
" id="DejaVuSans-67"/>
     <path d="M 41.109375 46.296875 
Q 39.59375 47.171875 37.8125 47.578125 
Q 36.03125 48 33.890625 48 
Q 26.265625 48 22.1875 43.046875 
Q 18.109375 38.09375 18.109375 28.8125 
L 18.109375 0 
L 9.078125 0 
L 9.078125 54.6875 
L 18.109375 54.6875 
L 18.109375 46.1875 
Q 20.953125 51.171875 25.484375 53.578125 
Q 30.03125 56 36.53125 56 
Q 37.453125 56 38.578125 55.875 
Q 39.703125 55.765625 41.0625 55.515625 
z
" id="DejaVuSans-114"/>
     <path d="M 56.203125 29.59375 
L 56.203125 25.203125 
L 14.890625 25.203125 
Q 15.484375 15.921875 20.484375 11.0625 
Q 25.484375 6.203125 34.421875 6.203125 
Q 39.59375 6.203125 44.453125 7.46875 
Q 49.3125 8.734375 54.109375 11.28125 
L 54.109375 2.78125 
Q 49.265625 0.734375 44.1875 -0.34375 
Q 39.109375 -1.421875 33.890625 -1.421875 
Q 20.796875 -1.421875 13.15625 6.1875 
Q 5.515625 13.8125 5.515625 26.8125 
Q 5.515625 40.234375 12.765625 48.109375 
Q 20.015625 56 32.328125 56 
Q 43.359375 56 49.78125 48.890625 
Q 56.203125 41.796875 56.203125 29.59375 
z
M 47.21875 32.234375 
Q 47.125 39.59375 43.09375 43.984375 
Q 39.0625 48.390625 32.421875 48.390625 
Q 24.90625 48.390625 20.390625 44.140625 
Q 15.875 39.890625 15.1875 32.171875 
z
" id="DejaVuSans-101"/>
     <path d="M 34.28125 27.484375 
Q 23.390625 27.484375 19.1875 25 
Q 14.984375 22.515625 14.984375 16.5 
Q 14.984375 11.71875 18.140625 8.90625 
Q 21.296875 6.109375 26.703125 6.109375 
Q 34.1875 6.109375 38.703125 11.40625 
Q 43.21875 16.703125 43.21875 25.484375 
L 43.21875 27.484375 
z
M 52.203125 31.203125 
L 52.203125 0 
L 43.21875 0 
L 43.21875 8.296875 
Q 40.140625 3.328125 35.546875 0.953125 
Q 30.953125 -1.421875 24.3125 -1.421875 
Q 15.921875 -1.421875 10.953125 3.296875 
Q 6 8.015625 6 15.921875 
Q 6 25.140625 12.171875 29.828125 
Q 18.359375 34.515625 30.609375 34.515625 
L 43.21875 34.515625 
L 43.21875 35.40625 
Q 43.21875 41.609375 39.140625 45 
Q 35.0625 48.390625 27.6875 48.390625 
Q 23 48.390625 18.546875 47.265625 
Q 14.109375 46.140625 10.015625 43.890625 
L 10.015625 52.203125 
Q 14.9375 54.109375 19.578125 55.046875 
Q 24.21875 56 28.609375 56 
Q 40.484375 56 46.34375 49.84375 
Q 52.203125 43.703125 52.203125 31.203125 
z
" id="DejaVuSans-97"/>
     <path d="M 18.3125 70.21875 
L 18.3125 54.6875 
L 36.8125 54.6875 
L 36.8125 47.703125 
L 18.3125 47.703125 
L 18.3125 18.015625 
Q 18.3125 11.328125 20.140625 9.421875 
Q 21.96875 7.515625 27.59375 7.515625 
L 36.8125 7.515625 
L 36.8125 0 
L 27.59375 0 
Q 17.1875 0 13.234375 3.875 
Q 9.28125 7.765625 9.28125 18.015625 
L 9.28125 47.703125 
L 2.6875 47.703125 
L 2.6875 54.6875 
L 9.28125 54.6875 
L 9.28125 70.21875 
z
" id="DejaVuSans-116"/>
     <path d="M 45.40625 46.390625 
L 45.40625 75.984375 
L 54.390625 75.984375 
L 54.390625 0 
L 45.40625 0 
L 45.40625 8.203125 
Q 42.578125 3.328125 38.25 0.953125 
Q 33.9375 -1.421875 27.875 -1.421875 
Q 17.96875 -1.421875 11.734375 6.484375 
Q 5.515625 14.40625 5.515625 27.296875 
Q 5.515625 40.1875 11.734375 48.09375 
Q 17.96875 56 27.875 56 
Q 33.9375 56 38.25 53.625 
Q 42.578125 51.265625 45.40625 46.390625 
z
M 14.796875 27.296875 
Q 14.796875 17.390625 18.875 11.75 
Q 22.953125 6.109375 30.078125 6.109375 
Q 37.203125 6.109375 41.296875 11.75 
Q 45.40625 17.390625 45.40625 27.296875 
Q 45.40625 37.203125 41.296875 42.84375 
Q 37.203125 48.484375 30.078125 48.484375 
Q 22.953125 48.484375 18.875 42.84375 
Q 14.796875 37.203125 14.796875 27.296875 
z
" id="DejaVuSans-100"/>
     <path d="M 9.421875 54.6875 
L 18.40625 54.6875 
L 18.40625 0 
L 9.421875 0 
z
M 9.421875 75.984375 
L 18.40625 75.984375 
L 18.40625 64.59375 
L 9.421875 64.59375 
z
" id="DejaVuSans-105"/>
     <path d="M 44.28125 53.078125 
L 44.28125 44.578125 
Q 40.484375 46.53125 36.375 47.5 
Q 32.28125 48.484375 27.875 48.484375 
Q 21.1875 48.484375 17.84375 46.4375 
Q 14.5 44.390625 14.5 40.28125 
Q 14.5 37.15625 16.890625 35.375 
Q 19.28125 33.59375 26.515625 31.984375 
L 29.59375 31.296875 
Q 39.15625 29.25 43.1875 25.515625 
Q 47.21875 21.78125 47.21875 15.09375 
Q 47.21875 7.46875 41.1875 3.015625 
Q 35.15625 -1.421875 24.609375 -1.421875 
Q 20.21875 -1.421875 15.453125 -0.5625 
Q 10.6875 0.296875 5.421875 2 
L 5.421875 11.28125 
Q 10.40625 8.6875 15.234375 7.390625 
Q 20.0625 6.109375 24.8125 6.109375 
Q 31.15625 6.109375 34.5625 8.28125 
Q 37.984375 10.453125 37.984375 14.40625 
Q 37.984375 18.0625 35.515625 20.015625 
Q 33.0625 21.96875 24.703125 23.78125 
L 21.578125 24.515625 
Q 13.234375 26.265625 9.515625 29.90625 
Q 5.8125 33.546875 5.8125 39.890625 
Q 5.8125 47.609375 11.28125 51.796875 
Q 16.75 56 26.8125 56 
Q 31.78125 56 36.171875 55.265625 
Q 40.578125 54.546875 44.28125 53.078125 
z
" id="DejaVuSans-115"/>
     <path d="M 8.5 21.578125 
L 8.5 54.6875 
L 17.484375 54.6875 
L 17.484375 21.921875 
Q 17.484375 14.15625 20.5 10.265625 
Q 23.53125 6.390625 29.59375 6.390625 
Q 36.859375 6.390625 41.078125 11.03125 
Q 45.3125 15.671875 45.3125 23.6875 
L 45.3125 54.6875 
L 54.296875 54.6875 
L 54.296875 0 
L 45.3125 0 
L 45.3125 8.40625 
Q 42.046875 3.421875 37.71875 1 
Q 33.40625 -1.421875 27.6875 -1.421875 
Q 18.265625 -1.421875 13.375 4.4375 
Q 8.5 10.296875 8.5 21.578125 
z
M 31.109375 56 
z
" id="DejaVuSans-117"/>
     <path d="M 54.890625 33.015625 
L 54.890625 0 
L 45.90625 0 
L 45.90625 32.71875 
Q 45.90625 40.484375 42.875 44.328125 
Q 39.84375 48.1875 33.796875 48.1875 
Q 26.515625 48.1875 22.3125 43.546875 
Q 18.109375 38.921875 18.109375 30.90625 
L 18.109375 0 
L 9.078125 0 
L 9.078125 54.6875 
L 18.109375 54.6875 
L 18.109375 46.1875 
Q 21.34375 51.125 25.703125 53.5625 
Q 30.078125 56 35.796875 56 
Q 45.21875 56 50.046875 50.171875 
Q 54.890625 44.34375 54.890625 33.015625 
z
" id="DejaVuSans-110"/>
     <path d="M 19.671875 64.796875 
L 19.671875 37.40625 
L 32.078125 37.40625 
Q 38.96875 37.40625 42.71875 40.96875 
Q 46.484375 44.53125 46.484375 51.125 
Q 46.484375 57.671875 42.71875 61.234375 
Q 38.96875 64.796875 32.078125 64.796875 
z
M 9.8125 72.90625 
L 32.078125 72.90625 
Q 44.34375 72.90625 50.609375 67.359375 
Q 56.890625 61.8125 56.890625 51.125 
Q 56.890625 40.328125 50.609375 34.8125 
Q 44.34375 29.296875 32.078125 29.296875 
L 19.671875 29.296875 
L 19.671875 0 
L 9.8125 0 
z
" id="DejaVuSans-80"/>
     <path d="M 44.390625 34.1875 
Q 47.5625 33.109375 50.5625 29.59375 
Q 53.5625 26.078125 56.59375 19.921875 
L 66.609375 0 
L 56 0 
L 46.6875 18.703125 
Q 43.0625 26.03125 39.671875 28.421875 
Q 36.28125 30.8125 30.421875 30.8125 
L 19.671875 30.8125 
L 19.671875 0 
L 9.8125 0 
L 9.8125 72.90625 
L 32.078125 72.90625 
Q 44.578125 72.90625 50.734375 67.671875 
Q 56.890625 62.453125 56.890625 51.90625 
Q 56.890625 45.015625 53.6875 40.46875 
Q 50.484375 35.9375 44.390625 34.1875 
z
M 19.671875 64.796875 
L 19.671875 38.921875 
L 32.078125 38.921875 
Q 39.203125 38.921875 42.84375 42.21875 
Q 46.484375 45.515625 46.484375 51.90625 
Q 46.484375 58.296875 42.84375 61.546875 
Q 39.203125 64.796875 32.078125 64.796875 
z
" id="DejaVuSans-82"/>
     <path d="M 30.609375 48.390625 
Q 23.390625 48.390625 19.1875 42.75 
Q 14.984375 37.109375 14.984375 27.296875 
Q 14.984375 17.484375 19.15625 11.84375 
Q 23.34375 6.203125 30.609375 6.203125 
Q 37.796875 6.203125 41.984375 11.859375 
Q 46.1875 17.53125 46.1875 27.296875 
Q 46.1875 37.015625 41.984375 42.703125 
Q 37.796875 48.390625 30.609375 48.390625 
z
M 30.609375 56 
Q 42.328125 56 49.015625 48.375 
Q 55.71875 40.765625 55.71875 27.296875 
Q 55.71875 13.875 49.015625 6.21875 
Q 42.328125 -1.421875 30.609375 -1.421875 
Q 18.84375 -1.421875 12.171875 6.21875 
Q 5.515625 13.875 5.515625 27.296875 
Q 5.515625 40.765625 12.171875 48.375 
Q 18.84375 56 30.609375 56 
z
" id="DejaVuSans-111"/>
     <path d="M 2.984375 54.6875 
L 12.5 54.6875 
L 29.59375 8.796875 
L 46.6875 54.6875 
L 56.203125 54.6875 
L 35.6875 0 
L 23.484375 0 
z
" id="DejaVuSans-118"/>
     <path d="M 52 44.1875 
Q 55.375 50.25 60.0625 53.125 
Q 64.75 56 71.09375 56 
Q 79.640625 56 84.28125 50.015625 
Q 88.921875 44.046875 88.921875 33.015625 
L 88.921875 0 
L 79.890625 0 
L 79.890625 32.71875 
Q 79.890625 40.578125 77.09375 44.375 
Q 74.3125 48.1875 68.609375 48.1875 
Q 61.625 48.1875 57.5625 43.546875 
Q 53.515625 38.921875 53.515625 30.90625 
L 53.515625 0 
L 44.484375 0 
L 44.484375 32.71875 
Q 44.484375 40.625 41.703125 44.40625 
Q 38.921875 48.1875 33.109375 48.1875 
Q 26.21875 48.1875 22.15625 43.53125 
Q 18.109375 38.875 18.109375 30.90625 
L 18.109375 0 
L 9.078125 0 
L 9.078125 54.6875 
L 18.109375 54.6875 
L 18.109375 46.1875 
Q 21.1875 51.21875 25.484375 53.609375 
Q 29.78125 56 35.6875 56 
Q 41.65625 56 45.828125 52.96875 
Q 50 49.953125 52 44.1875 
z
" id="DejaVuSans-109"/>
    </defs>
    <g style="fill:#262626;" transform="translate(268.047188 80.4)scale(0.12 -0.12)">
     <use xlink:href="#DejaVuSans-67"/>
     <use x="69.824219" xlink:href="#DejaVuSans-114"/>
     <use x="108.6875" xlink:href="#DejaVuSans-101"/>
     <use x="170.210938" xlink:href="#DejaVuSans-97"/>
     <use x="231.490234" xlink:href="#DejaVuSans-116"/>
     <use x="270.699219" xlink:href="#DejaVuSans-101"/>
     <use x="332.222656" xlink:href="#DejaVuSans-100"/>
     <use x="395.699219" xlink:href="#DejaVuSans-32"/>
     <use x="427.486328" xlink:href="#DejaVuSans-105"/>
     <use x="455.269531" xlink:href="#DejaVuSans-115"/>
     <use x="507.369141" xlink:href="#DejaVuSans-115"/>
     <use x="559.46875" xlink:href="#DejaVuSans-117"/>
     <use x="622.847656" xlink:href="#DejaVuSans-101"/>
     <use x="684.371094" xlink:href="#DejaVuSans-115"/>
     <use x="736.470703" xlink:href="#DejaVuSans-32"/>
     <use x="768.257812" xlink:href="#DejaVuSans-97"/>
     <use x="829.537109" xlink:href="#DejaVuSans-110"/>
     <use x="892.916016" xlink:href="#DejaVuSans-100"/>
     <use x="956.392578" xlink:href="#DejaVuSans-32"/>
     <use x="988.179688" xlink:href="#DejaVuSans-80"/>
     <use x="1048.482422" xlink:href="#DejaVuSans-82"/>
     <use x="1117.964844" xlink:href="#DejaVuSans-115"/>
     <use x="1170.064453" xlink:href="#DejaVuSans-32"/>
     <use x="1201.851562" xlink:href="#DejaVuSans-111"/>
     <use x="1263.033203" xlink:href="#DejaVuSans-118"/>
     <use x="1322.212891" xlink:href="#DejaVuSans-101"/>
     <use x="1383.736328" xlink:href="#DejaVuSans-114"/>
     <use x="1424.849609" xlink:href="#DejaVuSans-32"/>
     <use x="1456.636719" xlink:href="#DejaVuSans-116"/>
     <use x="1495.845703" xlink:href="#DejaVuSans-105"/>
     <use x="1523.628906" xlink:href="#DejaVuSans-109"/>
     <use x="1621.041016" xlink:href="#DejaVuSans-101"/>
    </g>
   </g>
  </g>
 </g>
 <defs>
  <clipPath id="p97053e7f02">
   <rect height="554.4" width="558" x="90" y="86.4"/>
  </clipPath>
 </defs>
</svg>
