<svg xmlns="http://www.w3.org/2000/svg" xmlns:xlink="http://www.w3.org/1999/xlink" width="960" height="960" version="1.1" viewBox="0 0 720 720"><defs><style type="text/css">*{stroke-linecap:butt;stroke-linejoin:round}</style></defs><g id="figure_1"><g id="patch_1"><path d="M 0 720 L 720 720 L 720 0 L 0 0 z" style="fill:#fff"/></g><g id="axes_1"><g id="patch_2"><path d="M 90 640.8 L 648 640.8 L 648 86.4 L 90 86.4 z" style="fill:#fff"/></g><g id="matplotlib.axis_1"><g id="xtick_1"><g id="line2d_1"><path d="M 90 640.8 L 90 86.4" clip-path="url(#p6cca6710fb)" style="fill:none;stroke:#ccc;stroke-linecap:round;stroke-width:.8"/></g><g id="text_1"><defs><path id="DejaVuSans-48" d="M 31.78125 66.40625 Q 24.171875 66.40625 20.328125 58.90625 Q 16.5 51.421875 16.5 36.375 Q 16.5 21.390625 20.328125 13.890625 Q 24.171875 6.390625 31.78125 6.390625 Q 39.453125 6.390625 43.28125 13.890625 Q 47.125 21.390625 47.125 36.375 Q 47.125 51.421875 43.28125 58.90625 Q 39.453125 66.40625 31.78125 66.40625 z M 31.78125 74.21875 Q 44.046875 74.21875 50.515625 64.515625 Q 56.984375 54.828125 56.984375 36.375 Q 56.984375 17.96875 50.515625 8.265625 Q 44.046875 -1.421875 31.78125 -1.421875 Q 19.53125 -1.421875 13.0625 8.265625 Q 6.59375 17.96875 6.59375 36.375 Q 6.59375 54.828125 13.0625 64.515625 Q 19.53125 74.21875 31.78125 74.21875 z"/></defs><g style="fill:#262626" transform="translate(86.81875 651.898438)scale(0.1 -0.1)"><use xlink:href="#DejaVuSans-48"/></g></g></g><g id="xtick_2"><g id="line2d_3"><path d="M 208.095238 640.8 L 208.095238 86.4" clip-path="url(#p6cca6710fb)" style="fill:none;stroke:#ccc;stroke-linecap:round;stroke-width:.8"/></g><g id="text_2"><defs><path id="DejaVuSans-53" d="M 10.796875 72.90625 L 49.515625 72.90625 L 49.515625 64.59375 L 19.828125 64.59375 L 19.828125 46.734375 Q 21.96875 47.46875 24.109375 47.828125 Q 26.265625 48.1875 28.421875 48.1875 Q 40.625 48.1875 47.75 41.5 Q 54.890625 34.8125 54.890625 23.390625 Q 54.890625 11.625 47.5625 5.09375 Q 40.234375 -1.421875 26.90625 -1.421875 Q 22.3125 -1.421875 17.546875 -0.640625 Q 12.796875 0.140625 7.71875 1.703125 L 7.71875 11.625 Q 12.109375 9.234375 16.796875 8.0625 Q 21.484375 6.890625 26.703125 6.890625 Q 35.15625 6.890625 40.078125 11.328125 Q 45.015625 15.765625 45.015625 23.390625 Q 45.015625 31 40.078125 35.4375 Q 35.15625 39.890625 26.703125 39.890625 Q 22.75 39.890625 18.8125 39.015625 Q 14.890625 38.140625 10.796875 36.28125 z"/></defs><g style="fill:#262626" transform="translate(198.551488 651.898438)scale(0.1 -0.1)"><use xlink:href="#DejaVuSans-53"/><use x="63.623" xlink:href="#DejaVuSans-48"/><use x="127.246" xlink:href="#DejaVuSans-48"/></g></g></g><g id="xtick_3"><g id="line2d_5"><path d="M 326.190476 640.8 L 326.190476 86.4" clip-path="url(#p6cca6710fb)" style="fill:none;stroke:#ccc;stroke-linecap:round;stroke-width:.8"/></g><g id="text_3"><defs><path id="DejaVuSans-49" d="M 12.40625 8.296875 L 28.515625 8.296875 L 28.515625 63.921875 L 10.984375 60.40625 L 10.984375 69.390625 L 28.421875 72.90625 L 38.28125 72.90625 L 38.28125 8.296875 L 54.390625 8.296875 L 54.390625 0 L 12.40625 0 z"/></defs><g style="fill:#262626" transform="translate(313.465476 651.898438)scale(0.1 -0.1)"><use xlink:href="#DejaVuSans-49"/><use x="63.623" xlink:href="#DejaVuSans-48"/><use x="127.246" xlink:href="#DejaVuSans-48"/><use x="190.869" xlink:href="#DejaVuSans-48"/></g></g></g><g id="xtick_4"><g id="line2d_7"><path d="M 444.285714 640.8 L 444.285714 86.4" clip-path="url(#p6cca6710fb)" style="fill:none;stroke:#ccc;stroke-linecap:round;stroke-width:.8"/></g><g id="text_4"><g style="fill:#262626" transform="translate(431.560714 651.898438)scale(0.1 -0.1)"><use xlink:href="#DejaVuSans-49"/><use x="63.623" xlink:href="#DejaVuSans-53"/><use x="127.246" xlink:href="#DejaVuSans-48"/><use x="190.869" xlink:href="#DejaVuSans-48"/></g></g></g><g id="xtick_5"><g id="line2d_9"><path d="M 562.380952 640.8 L 562.380952 86.4" clip-path="url(#p6cca6710fb)" style="fill:none;stroke:#ccc;stroke-linecap:round;stroke-width:.8"/></g><g id="text_5"><defs><path id="DejaVuSans-50" d="M 19.1875 8.296875 L 53.609375 8.296875 L 53.609375 0 L 7.328125 0 L 7.328125 8.296875 Q 12.9375 14.109375 22.625 23.890625 Q 32.328125 33.6875 34.8125 36.53125 Q 39.546875 41.84375 41.421875 45.53125 Q 43.3125 49.21875 43.3125 52.78125 Q 43.3125 58.59375 39.234375 62.25 Q 35.15625 65.921875 28.609375 65.921875 Q 23.96875 65.921875 18.8125 64.3125 Q 13.671875 62.703125 7.8125 59.421875 L 7.8125 69.390625 Q 13.765625 71.78125 18.9375 73 Q 24.125 74.21875 28.421875 74.21875 Q 39.75 74.21875 46.484375 68.546875 Q 53.21875 62.890625 53.21875 53.421875 Q 53.21875 48.921875 51.53125 44.890625 Q 49.859375 40.875 45.40625 35.40625 Q 44.1875 33.984375 37.640625 27.21875 Q 31.109375 20.453125 19.1875 8.296875 z"/></defs><g style="fill:#262626" transform="translate(549.655952 651.898438)scale(0.1 -0.1)"><use xlink:href="#DejaVuSans-50"/><use x="63.623" xlink:href="#DejaVuSans-48"/><use x="127.246" xlink:href="#DejaVuSans-48"/><use x="190.869" xlink:href="#DejaVuSans-48"/></g></g></g></g><g id="matplotlib.axis_2"><g id="ytick_1"><g id="line2d_11"><path d="M 90 595.028571 L 648 595.028571" clip-path="url(#p6cca6710fb)" style="fill:none;stroke:#ccc;stroke-linecap:round;stroke-width:.8"/></g><g id="text_6"><defs><path id="DejaVuSans-107" d="M 9.078125 75.984375 L 18.109375 75.984375 L 18.109375 31.109375 L 44.921875 54.6875 L 56.390625 54.6875 L 27.390625 29.109375 L 57.625 0 L 45.90625 0 L 18.109375 26.703125 L 18.109375 0 L 9.078125 0 z"/><path id="DejaVuSans-105" d="M 9.421875 54.6875 L 18.40625 54.6875 L 18.40625 0 L 9.421875 0 z M 9.421875 75.984375 L 18.40625 75.984375 L 18.40625 64.59375 L 9.421875 64.59375 z"/><path id="DejaVuSans-110" d="M 54.890625 33.015625 L 54.890625 0 L 45.90625 0 L 45.90625 32.71875 Q 45.90625 40.484375 42.875 44.328125 Q 39.84375 48.1875 33.796875 48.1875 Q 26.515625 48.1875 22.3125 43.546875 Q 18.109375 38.921875 18.109375 30.90625 L 18.109375 0 L 9.078125 0 L 9.078125 54.6875 L 18.109375 54.6875 L 18.109375 46.1875 Q 21.34375 51.125 25.703125 53.5625 Q 30.078125 56 35.796875 56 Q 45.21875 56 50.046875 50.171875 Q 54.890625 44.34375 54.890625 33.015625 z"/><path id="DejaVuSans-100" d="M 45.40625 46.390625 L 45.40625 75.984375 L 54.390625 75.984375 L 54.390625 0 L 45.40625 0 L 45.40625 8.203125 Q 42.578125 3.328125 38.25 0.953125 Q 33.9375 -1.421875 27.875 -1.421875 Q 17.96875 -1.421875 11.734375 6.484375 Q 5.515625 14.40625 5.515625 27.296875 Q 5.515625 40.1875 11.734375 48.09375 Q 17.96875 56 27.875 56 Q 33.9375 56 38.25 53.625 Q 42.578125 51.265625 45.40625 46.390625 z M 14.796875 27.296875 Q 14.796875 17.390625 18.875 11.75 Q 22.953125 6.109375 30.078125 6.109375 Q 37.203125 6.109375 41.296875 11.75 Q 45.40625 17.390625 45.40625 27.296875 Q 45.40625 37.203125 41.296875 42.84375 Q 37.203125 48.484375 30.078125 48.484375 Q 22.953125 48.484375 18.875 42.84375 Q 14.796875 37.203125 14.796875 27.296875 z"/><path id="DejaVuSans-47" d="M 25.390625 72.90625 L 33.6875 72.90625 L 8.296875 -9.28125 L 0 -9.28125 z"/><path id="DejaVuSans-114" d="M 41.109375 46.296875 Q 39.59375 47.171875 37.8125 47.578125 Q 36.03125 48 33.890625 48 Q 26.265625 48 22.1875 43.046875 Q 18.109375 38.09375 18.109375 28.8125 L 18.109375 0 L 9.078125 0 L 9.078125 54.6875 L 18.109375 54.6875 L 18.109375 46.1875 Q 20.953125 51.171875 25.484375 53.578125 Q 30.03125 56 36.53125 56 Q 37.453125 56 38.578125 55.875 Q 39.703125 55.765625 41.0625 55.515625 z"/><path id="DejaVuSans-101" d="M 56.203125 29.59375 L 56.203125 25.203125 L 14.890625 25.203125 Q 15.484375 15.921875 20.484375 11.0625 Q 25.484375 6.203125 34.421875 6.203125 Q 39.59375 6.203125 44.453125 7.46875 Q 49.3125 8.734375 54.109375 11.28125 L 54.109375 2.78125 Q 49.265625 0.734375 44.1875 -0.34375 Q 39.109375 -1.421875 33.890625 -1.421875 Q 20.796875 -1.421875 13.15625 6.1875 Q 5.515625 13.8125 5.515625 26.8125 Q 5.515625 40.234375 12.765625 48.109375 Q 20.015625 56 32.328125 56 Q 43.359375 56 49.78125 48.890625 Q 56.203125 41.796875 56.203125 29.59375 z M 47.21875 32.234375 Q 47.125 39.59375 43.09375 43.984375 Q 39.0625 48.390625 32.421875 48.390625 Q 24.90625 48.390625 20.390625 44.140625 Q 15.875 39.890625 15.1875 32.171875 z"/><path id="DejaVuSans-103" d="M 45.40625 27.984375 Q 45.40625 37.75 41.375 43.109375 Q 37.359375 48.484375 30.078125 48.484375 Q 22.859375 48.484375 18.828125 43.109375 Q 14.796875 37.75 14.796875 27.984375 Q 14.796875 18.265625 18.828125 12.890625 Q 22.859375 7.515625 30.078125 7.515625 Q 37.359375 7.515625 41.375 12.890625 Q 45.40625 18.265625 45.40625 27.984375 z M 54.390625 6.78125 Q 54.390625 -7.171875 48.1875 -13.984375 Q 42 -20.796875 29.203125 -20.796875 Q 24.46875 -20.796875 20.265625 -20.09375 Q 16.0625 -19.390625 12.109375 -17.921875 L 12.109375 -9.1875 Q 16.0625 -11.328125 19.921875 -12.34375 Q 23.78125 -13.375 27.78125 -13.375 Q 36.625 -13.375 41.015625 -8.765625 Q 45.40625 -4.15625 45.40625 5.171875 L 45.40625 9.625 Q 42.625 4.78125 38.28125 2.390625 Q 33.9375 0 27.875 0 Q 17.828125 0 11.671875 7.65625 Q 5.515625 15.328125 5.515625 27.984375 Q 5.515625 40.671875 11.671875 48.328125 Q 17.828125 56 27.875 56 Q 33.9375 56 38.28125 53.609375 Q 42.625 51.21875 45.40625 46.390625 L 45.40625 54.6875 L 54.390625 54.6875 z"/><path id="DejaVuSans-115" d="M 44.28125 53.078125 L 44.28125 44.578125 Q 40.484375 46.53125 36.375 47.5 Q 32.28125 48.484375 27.875 48.484375 Q 21.1875 48.484375 17.84375 46.4375 Q 14.5 44.390625 14.5 40.28125 Q 14.5 37.15625 16.890625 35.375 Q 19.28125 33.59375 26.515625 31.984375 L 29.59375 31.296875 Q 39.15625 29.25 43.1875 25.515625 Q 47.21875 21.78125 47.21875 15.09375 Q 47.21875 7.46875 41.1875 3.015625 Q 35.15625 -1.421875 24.609375 -1.421875 Q 20.21875 -1.421875 15.453125 -0.5625 Q 10.6875 0.296875 5.421875 2 L 5.421875 11.28125 Q 10.40625 8.6875 15.234375 7.390625 Q 20.0625 6.109375 24.8125 6.109375 Q 31.15625 6.109375 34.5625 8.28125 Q 37.984375 10.453125 37.984375 14.40625 Q 37.984375 18.0625 35.515625 20.015625 Q 33.0625 21.96875 24.703125 23.78125 L 21.578125 24.515625 Q 13.234375 26.265625 9.515625 29.90625 Q 5.8125 33.546875 5.8125 39.890625 Q 5.8125 47.609375 11.28125 51.796875 Q 16.75 56 26.8125 56 Q 31.78125 56 36.171875 55.265625 Q 40.578125 54.546875 44.28125 53.078125 z"/><path id="DejaVuSans-111" d="M 30.609375 48.390625 Q 23.390625 48.390625 19.1875 42.75 Q 14.984375 37.109375 14.984375 27.296875 Q 14.984375 17.484375 19.15625 11.84375 Q 23.34375 6.203125 30.609375 6.203125 Q 37.796875 6.203125 41.984375 11.859375 Q 46.1875 17.53125 46.1875 27.296875 Q 46.1875 37.015625 41.984375 42.703125 Q 37.796875 48.390625 30.609375 48.390625 z M 30.609375 56 Q 42.328125 56 49.015625 48.375 Q 55.71875 40.765625 55.71875 27.296875 Q 55.71875 13.875 49.015625 6.21875 Q 42.328125 -1.421875 30.609375 -1.421875 Q 18.84375 -1.421875 12.171875 6.21875 Q 5.515625 13.875 5.515625 27.296875 Q 5.515625 40.765625 12.171875 48.375 Q 18.84375 56 30.609375 56 z"/></defs><g style="fill:#262626" transform="translate(9.796875 598.82779)scale(0.1 -0.1)"><use xlink:href="#DejaVuSans-107"/><use x="57.91" xlink:href="#DejaVuSans-105"/><use x="85.693" xlink:href="#DejaVuSans-110"/><use x="149.072" xlink:href="#DejaVuSans-100"/><use x="212.549" xlink:href="#DejaVuSans-47"/><use x="246.24" xlink:href="#DejaVuSans-114"/><use x="285.104" xlink:href="#DejaVuSans-101"/><use x="346.627" xlink:href="#DejaVuSans-103"/><use x="410.104" xlink:href="#DejaVuSans-114"/><use x="448.967" xlink:href="#DejaVuSans-101"/><use x="510.49" xlink:href="#DejaVuSans-115"/><use x="562.59" xlink:href="#DejaVuSans-115"/><use x="614.689" xlink:href="#DejaVuSans-105"/><use x="642.473" xlink:href="#DejaVuSans-111"/><use x="703.654" xlink:href="#DejaVuSans-110"/></g></g></g><g id="ytick_2"><g id="line2d_13"><path d="M 90 543.6 L 648 543.6" clip-path="url(#p6cca6710fb)" style="fill:none;stroke:#ccc;stroke-linecap:round;stroke-width:.8"/></g><g id="text_7"><g style="fill:#262626" transform="translate(28.701562 547.399219)scale(0.1 -0.1)"><use xlink:href="#DejaVuSans-107"/><use x="57.91" xlink:href="#DejaVuSans-105"/><use x="85.693" xlink:href="#DejaVuSans-110"/><use x="149.072" xlink:href="#DejaVuSans-100"/><use x="212.549" xlink:href="#DejaVuSans-47"/><use x="246.24" xlink:href="#DejaVuSans-100"/><use x="309.717" xlink:href="#DejaVuSans-101"/><use x="371.24" xlink:href="#DejaVuSans-115"/><use x="423.34" xlink:href="#DejaVuSans-105"/><use x="451.123" xlink:href="#DejaVuSans-103"/><use x="514.6" xlink:href="#DejaVuSans-110"/></g></g></g><g id="ytick_3"><g id="line2d_15"><path d="M 90 492.171429 L 648 492.171429" clip-path="url(#p6cca6710fb)" style="fill:none;stroke:#ccc;stroke-linecap:round;stroke-width:.8"/></g><g id="text_8"><defs><path id="DejaVuSans-112" d="M 18.109375 8.203125 L 18.109375 -20.796875 L 9.078125 -20.796875 L 9.078125 54.6875 L 18.109375 54.6875 L 18.109375 46.390625 Q 20.953125 51.265625 25.265625 53.625 Q 29.59375 56 35.59375 56 Q 45.5625 56 51.78125 48.09375 Q 58.015625 40.1875 58.015625 27.296875 Q 58.015625 14.40625 51.78125 6.484375 Q 45.5625 -1.421875 35.59375 -1.421875 Q 29.59375 -1.421875 25.265625 0.953125 Q 20.953125 3.328125 18.109375 8.203125 z M 48.6875 27.296875 Q 48.6875 37.203125 44.609375 42.84375 Q 40.53125 48.484375 33.40625 48.484375 Q 26.265625 48.484375 22.1875 42.84375 Q 18.109375 37.203125 18.109375 27.296875 Q 18.109375 17.390625 22.1875 11.75 Q 26.265625 6.109375 33.40625 6.109375 Q 40.53125 6.109375 44.609375 11.75 Q 48.6875 17.390625 48.6875 27.296875 z"/><path id="DejaVuSans-99" d="M 48.78125 52.59375 L 48.78125 44.1875 Q 44.96875 46.296875 41.140625 47.34375 Q 37.3125 48.390625 33.40625 48.390625 Q 24.65625 48.390625 19.8125 42.84375 Q 14.984375 37.3125 14.984375 27.296875 Q 14.984375 17.28125 19.8125 11.734375 Q 24.65625 6.203125 33.40625 6.203125 Q 37.3125 6.203125 41.140625 7.25 Q 44.96875 8.296875 48.78125 10.40625 L 48.78125 2.09375 Q 45.015625 0.34375 40.984375 -0.53125 Q 36.96875 -1.421875 32.421875 -1.421875 Q 20.0625 -1.421875 12.78125 6.34375 Q 5.515625 14.109375 5.515625 27.296875 Q 5.515625 40.671875 12.859375 48.328125 Q 20.21875 56 33.015625 56 Q 37.15625 56 41.109375 55.140625 Q 45.0625 54.296875 48.78125 52.59375 z"/><path id="DejaVuSans-97" d="M 34.28125 27.484375 Q 23.390625 27.484375 19.1875 25 Q 14.984375 22.515625 14.984375 16.5 Q 14.984375 11.71875 18.140625 8.90625 Q 21.296875 6.109375 26.703125 6.109375 Q 34.1875 6.109375 38.703125 11.40625 Q 43.21875 16.703125 43.21875 25.484375 L 43.21875 27.484375 z M 52.203125 31.203125 L 52.203125 0 L 43.21875 0 L 43.21875 8.296875 Q 40.140625 3.328125 35.546875 0.953125 Q 30.953125 -1.421875 24.3125 -1.421875 Q 15.921875 -1.421875 10.953125 3.296875 Q 6 8.015625 6 15.921875 Q 6 25.140625 12.171875 29.828125 Q 18.359375 34.515625 30.609375 34.515625 L 43.21875 34.515625 L 43.21875 35.40625 Q 43.21875 41.609375 39.140625 45 Q 35.0625 48.390625 27.6875 48.390625 Q 23 48.390625 18.546875 47.265625 Q 14.109375 46.140625 10.015625 43.890625 L 10.015625 52.203125 Q 14.9375 54.109375 19.578125 55.046875 Q 24.21875 56 28.609375 56 Q 40.484375 56 46.34375 49.84375 Q 52.203125 43.703125 52.203125 31.203125 z"/><path id="DejaVuSans-116" d="M 18.3125 70.21875 L 18.3125 54.6875 L 36.8125 54.6875 L 36.8125 47.703125 L 18.3125 47.703125 L 18.3125 18.015625 Q 18.3125 11.328125 20.140625 9.421875 Q 21.96875 7.515625 27.59375 7.515625 L 36.8125 7.515625 L 36.8125 0 L 27.59375 0 Q 17.1875 0 13.234375 3.875 Q 9.28125 7.765625 9.28125 18.015625 L 9.28125 47.703125 L 2.6875 47.703125 L 2.6875 54.6875 L 9.28125 54.6875 L 9.28125 70.21875 z"/></defs><g style="fill:#262626" transform="translate(2.20625 495.970647)scale(0.1 -0.1)"><use xlink:href="#DejaVuSans-107"/><use x="57.91" xlink:href="#DejaVuSans-105"/><use x="85.693" xlink:href="#DejaVuSans-110"/><use x="149.072" xlink:href="#DejaVuSans-100"/><use x="212.549" xlink:href="#DejaVuSans-47"/><use x="246.24" xlink:href="#DejaVuSans-100"/><use x="309.717" xlink:href="#DejaVuSans-101"/><use x="371.24" xlink:href="#DejaVuSans-112"/><use x="434.717" xlink:href="#DejaVuSans-114"/><use x="473.58" xlink:href="#DejaVuSans-101"/><use x="535.104" xlink:href="#DejaVuSans-99"/><use x="590.084" xlink:href="#DejaVuSans-97"/><use x="651.363" xlink:href="#DejaVuSans-116"/><use x="690.572" xlink:href="#DejaVuSans-105"/><use x="718.355" xlink:href="#DejaVuSans-111"/><use x="779.537" xlink:href="#DejaVuSans-110"/></g></g></g><g id="ytick_4"><g id="line2d_17"><path d="M 90 440.742857 L 648 440.742857" clip-path="url(#p6cca6710fb)" style="fill:none;stroke:#ccc;stroke-linecap:round;stroke-width:.8"/></g><g id="text_9"><defs><path id="DejaVuSans-102" d="M 37.109375 75.984375 L 37.109375 68.5 L 28.515625 68.5 Q 23.6875 68.5 21.796875 66.546875 Q 19.921875 64.59375 19.921875 59.515625 L 19.921875 54.6875 L 34.71875 54.6875 L 34.71875 47.703125 L 19.921875 47.703125 L 19.921875 0 L 10.890625 0 L 10.890625 47.703125 L 2.296875 47.703125 L 2.296875 54.6875 L 10.890625 54.6875 L 10.890625 58.5 Q 10.890625 67.625 15.140625 71.796875 Q 19.390625 75.984375 28.609375 75.984375 z"/><path id="DejaVuSans-108" d="M 9.421875 75.984375 L 18.40625 75.984375 L 18.40625 0 L 9.421875 0 z"/></defs><g style="fill:#262626" transform="translate(37.86875 444.542076)scale(0.1 -0.1)"><use xlink:href="#DejaVuSans-107"/><use x="57.91" xlink:href="#DejaVuSans-105"/><use x="85.693" xlink:href="#DejaVuSans-110"/><use x="149.072" xlink:href="#DejaVuSans-100"/><use x="212.549" xlink:href="#DejaVuSans-47"/><use x="246.24" xlink:href="#DejaVuSans-102"/><use x="281.445" xlink:href="#DejaVuSans-108"/><use x="309.229" xlink:href="#DejaVuSans-97"/><use x="370.508" xlink:href="#DejaVuSans-107"/><use x="424.793" xlink:href="#DejaVuSans-101"/></g></g></g><g id="ytick_5"><g id="line2d_19"><path d="M 90 389.314286 L 648 389.314286" clip-path="url(#p6cca6710fb)" style="fill:none;stroke:#ccc;stroke-linecap:round;stroke-width:.8"/></g><g id="text_10"><defs><path id="DejaVuSans-45" d="M 4.890625 31.390625 L 31.203125 31.390625 L 31.203125 23.390625 L 4.890625 23.390625 z"/></defs><g style="fill:#262626" transform="translate(8.396875 393.113504)scale(0.1 -0.1)"><use xlink:href="#DejaVuSans-107"/><use x="57.91" xlink:href="#DejaVuSans-105"/><use x="85.693" xlink:href="#DejaVuSans-110"/><use x="149.072" xlink:href="#DejaVuSans-100"/><use x="212.549" xlink:href="#DejaVuSans-47"/><use x="246.24" xlink:href="#DejaVuSans-102"/><use x="281.445" xlink:href="#DejaVuSans-97"/><use x="342.725" xlink:href="#DejaVuSans-105"/><use x="370.508" xlink:href="#DejaVuSans-108"/><use x="398.291" xlink:href="#DejaVuSans-105"/><use x="426.074" xlink:href="#DejaVuSans-110"/><use x="489.453" xlink:href="#DejaVuSans-103"/><use x="552.93" xlink:href="#DejaVuSans-45"/><use x="589.014" xlink:href="#DejaVuSans-116"/><use x="628.223" xlink:href="#DejaVuSans-101"/><use x="689.746" xlink:href="#DejaVuSans-115"/><use x="741.846" xlink:href="#DejaVuSans-116"/></g></g></g><g id="ytick_6"><g id="line2d_21"><path d="M 90 337.885714 L 648 337.885714" clip-path="url(#p6cca6710fb)" style="fill:none;stroke:#ccc;stroke-linecap:round;stroke-width:.8"/></g><g id="text_11"><defs><path id="DejaVuSans-117" d="M 8.5 21.578125 L 8.5 54.6875 L 17.484375 54.6875 L 17.484375 21.921875 Q 17.484375 14.15625 20.5 10.265625 Q 23.53125 6.390625 29.59375 6.390625 Q 36.859375 6.390625 41.078125 11.03125 Q 45.3125 15.671875 45.3125 23.6875 L 45.3125 54.6875 L 54.296875 54.6875 L 54.296875 0 L 45.3125 0 L 45.3125 8.40625 Q 42.046875 3.421875 37.71875 1 Q 33.40625 -1.421875 27.6875 -1.421875 Q 18.265625 -1.421875 13.375 4.4375 Q 8.5 10.296875 8.5 21.578125 z M 31.109375 56 z"/><path id="DejaVuSans-109" d="M 52 44.1875 Q 55.375 50.25 60.0625 53.125 Q 64.75 56 71.09375 56 Q 79.640625 56 84.28125 50.015625 Q 88.921875 44.046875 88.921875 33.015625 L 88.921875 0 L 79.890625 0 L 79.890625 32.71875 Q 79.890625 40.578125 77.09375 44.375 Q 74.3125 48.1875 68.609375 48.1875 Q 61.625 48.1875 57.5625 43.546875 Q 53.515625 38.921875 53.515625 30.90625 L 53.515625 0 L 44.484375 0 L 44.484375 32.71875 Q 44.484375 40.625 41.703125 44.40625 Q 38.921875 48.1875 33.109375 48.1875 Q 26.21875 48.1875 22.15625 43.53125 Q 18.109375 38.875 18.109375 30.90625 L 18.109375 0 L 9.078125 0 L 9.078125 54.6875 L 18.109375 54.6875 L 18.109375 46.1875 Q 21.1875 51.21875 25.484375 53.609375 Q 29.78125 56 35.6875 56 Q 41.65625 56 45.828125 52.96875 Q 50 49.953125 52 44.1875 z"/></defs><g style="fill:#262626" transform="translate(-13.860938 341.684933)scale(0.1 -0.1)"><use xlink:href="#DejaVuSans-107"/><use x="57.91" xlink:href="#DejaVuSans-105"/><use x="85.693" xlink:href="#DejaVuSans-110"/><use x="149.072" xlink:href="#DejaVuSans-100"/><use x="212.549" xlink:href="#DejaVuSans-47"/><use x="246.24" xlink:href="#DejaVuSans-100"/><use x="309.717" xlink:href="#DejaVuSans-111"/><use x="370.898" xlink:href="#DejaVuSans-99"/><use x="425.879" xlink:href="#DejaVuSans-117"/><use x="489.258" xlink:href="#DejaVuSans-109"/><use x="586.67" xlink:href="#DejaVuSans-101"/><use x="648.193" xlink:href="#DejaVuSans-110"/><use x="711.572" xlink:href="#DejaVuSans-116"/><use x="750.781" xlink:href="#DejaVuSans-97"/><use x="812.061" xlink:href="#DejaVuSans-116"/><use x="851.27" xlink:href="#DejaVuSans-105"/><use x="879.053" xlink:href="#DejaVuSans-111"/><use x="940.234" xlink:href="#DejaVuSans-110"/></g></g></g><g id="ytick_7"><g id="line2d_23"><path d="M 90 286.457143 L 648 286.457143" clip-path="url(#p6cca6710fb)" style="fill:none;stroke:#ccc;stroke-linecap:round;stroke-width:.8"/></g><g id="text_12"><g style="fill:#262626" transform="translate(22.295312 290.256362)scale(0.1 -0.1)"><use xlink:href="#DejaVuSans-107"/><use x="57.91" xlink:href="#DejaVuSans-105"/><use x="85.693" xlink:href="#DejaVuSans-110"/><use x="149.072" xlink:href="#DejaVuSans-100"/><use x="212.549" xlink:href="#DejaVuSans-47"/><use x="246.24" xlink:href="#DejaVuSans-99"/><use x="301.221" xlink:href="#DejaVuSans-108"/><use x="329.004" xlink:href="#DejaVuSans-101"/><use x="390.527" xlink:href="#DejaVuSans-97"/><use x="451.807" xlink:href="#DejaVuSans-110"/><use x="515.186" xlink:href="#DejaVuSans-117"/><use x="578.564" xlink:href="#DejaVuSans-112"/></g></g></g><g id="ytick_8"><g id="line2d_25"><path d="M 90 235.028571 L 648 235.028571" clip-path="url(#p6cca6710fb)" style="fill:none;stroke:#ccc;stroke-linecap:round;stroke-width:.8"/></g><g id="text_13"><defs><path id="DejaVuSans-104" d="M 54.890625 33.015625 L 54.890625 0 L 45.90625 0 L 45.90625 32.71875 Q 45.90625 40.484375 42.875 44.328125 Q 39.84375 48.1875 33.796875 48.1875 Q 26.515625 48.1875 22.3125 43.546875 Q 18.109375 38.921875 18.109375 30.90625 L 18.109375 0 L 9.078125 0 L 9.078125 75.984375 L 18.109375 75.984375 L 18.109375 46.1875 Q 21.34375 51.125 25.703125 53.5625 Q 30.078125 56 35.796875 56 Q 45.21875 56 50.046875 50.171875 Q 54.890625 44.34375 54.890625 33.015625 z"/></defs><g style="fill:#262626" transform="translate(6.210938 238.82779)scale(0.1 -0.1)"><use xlink:href="#DejaVuSans-107"/><use x="57.91" xlink:href="#DejaVuSans-105"/><use x="85.693" xlink:href="#DejaVuSans-110"/><use x="149.072" xlink:href="#DejaVuSans-100"/><use x="212.549" xlink:href="#DejaVuSans-47"/><use x="246.24" xlink:href="#DejaVuSans-97"/><use x="307.52" xlink:href="#DejaVuSans-112"/><use x="370.996" xlink:href="#DejaVuSans-105"/><use x="398.779" xlink:href="#DejaVuSans-45"/><use x="434.863" xlink:href="#DejaVuSans-99"/><use x="489.844" xlink:href="#DejaVuSans-104"/><use x="553.223" xlink:href="#DejaVuSans-97"/><use x="614.502" xlink:href="#DejaVuSans-110"/><use x="677.881" xlink:href="#DejaVuSans-103"/><use x="741.357" xlink:href="#DejaVuSans-101"/></g></g></g><g id="ytick_9"><g id="line2d_27"><path d="M 90 183.6 L 648 183.6" clip-path="url(#p6cca6710fb)" style="fill:none;stroke:#ccc;stroke-linecap:round;stroke-width:.8"/></g><g id="text_14"><g style="fill:#262626" transform="translate(25.778125 187.399219)scale(0.1 -0.1)"><use xlink:href="#DejaVuSans-107"/><use x="57.91" xlink:href="#DejaVuSans-105"/><use x="85.693" xlink:href="#DejaVuSans-110"/><use x="149.072" xlink:href="#DejaVuSans-100"/><use x="212.549" xlink:href="#DejaVuSans-47"/><use x="246.24" xlink:href="#DejaVuSans-102"/><use x="281.445" xlink:href="#DejaVuSans-101"/><use x="342.969" xlink:href="#DejaVuSans-97"/><use x="404.248" xlink:href="#DejaVuSans-116"/><use x="443.457" xlink:href="#DejaVuSans-117"/><use x="506.836" xlink:href="#DejaVuSans-114"/><use x="545.699" xlink:href="#DejaVuSans-101"/></g></g></g><g id="ytick_10"><g id="line2d_29"><path d="M 90 132.171429 L 648 132.171429" clip-path="url(#p6cca6710fb)" style="fill:none;stroke:#ccc;stroke-linecap:round;stroke-width:.8"/></g><g id="text_15"><defs><path id="DejaVuSans-98" d="M 48.6875 27.296875 Q 48.6875 37.203125 44.609375 42.84375 Q 40.53125 48.484375 33.40625 48.484375 Q 26.265625 48.484375 22.1875 42.84375 Q 18.109375 37.203125 18.109375 27.296875 Q 18.109375 17.390625 22.1875 11.75 Q 26.265625 6.109375 33.40625 6.109375 Q 40.53125 6.109375 44.609375 11.75 Q 48.6875 17.390625 48.6875 27.296875 z M 18.109375 46.390625 Q 20.953125 51.265625 25.265625 53.625 Q 29.59375 56 35.59375 56 Q 45.5625 56 51.78125 48.09375 Q 58.015625 40.1875 58.015625 27.296875 Q 58.015625 14.40625 51.78125 6.484375 Q 45.5625 -1.421875 35.59375 -1.421875 Q 29.59375 -1.421875 25.265625 0.953125 Q 20.953125 3.328125 18.109375 8.203125 L 18.109375 0 L 9.078125 0 L 9.078125 75.984375 L 18.109375 75.984375 z"/></defs><g style="fill:#262626" transform="translate(42.842187 135.970647)scale(0.1 -0.1)"><use xlink:href="#DejaVuSans-107"/><use x="57.91" xlink:href="#DejaVuSans-105"/><use x="85.693" xlink:href="#DejaVuSans-110"/><use x="149.072" xlink:href="#DejaVuSans-100"/><use x="212.549" xlink:href="#DejaVuSans-47"/><use x="246.24" xlink:href="#DejaVuSans-98"/><use x="309.717" xlink:href="#DejaVuSans-117"/><use x="373.096" xlink:href="#DejaVuSans-103"/></g></g></g></g><g id="patch_3"><path d="M 90 615.6 L 92.125714 615.6 L 92.125714 574.457143 L 90 574.457143 z" clip-path="url(#p6cca6710fb)" style="fill:#92c6ff"/></g><g id="patch_4"><path d="M 90 564.171429 L 92.834286 564.171429 L 92.834286 523.028571 L 90 523.028571 z" clip-path="url(#p6cca6710fb)" style="fill:#92c6ff"/></g><g id="patch_5"><path d="M 90 512.742857 L 96.140952 512.742857 L 96.140952 471.6 L 90 471.6 z" clip-path="url(#p6cca6710fb)" style="fill:#92c6ff"/></g><g id="patch_6"><path d="M 90 461.314286 L 96.377143 461.314286 L 96.377143 420.171429 L 90 420.171429 z" clip-path="url(#p6cca6710fb)" style="fill:#92c6ff"/></g><g id="patch_7"><path d="M 90 409.885714 L 96.377143 409.885714 L 96.377143 368.742857 L 90 368.742857 z" clip-path="url(#p6cca6710fb)" style="fill:#92c6ff"/></g><g id="patch_8"><path d="M 90 358.457143 L 98.502857 358.457143 L 98.502857 317.314286 L 90 317.314286 z" clip-path="url(#p6cca6710fb)" style="fill:#92c6ff"/></g><g id="patch_9"><path d="M 90 307.028571 L 236.438095 307.028571 L 236.438095 265.885714 L 90 265.885714 z" clip-path="url(#p6cca6710fb)" style="fill:#92c6ff"/></g><g id="patch_10"><path d="M 90 255.6 L 278.952381 255.6 L 278.952381 214.457143 L 90 214.457143 z" clip-path="url(#p6cca6710fb)" style="fill:#92c6ff"/></g><g id="patch_11"><path d="M 90 204.171429 L 356.422857 204.171429 L 356.422857 163.028571 L 90 163.028571 z" clip-path="url(#p6cca6710fb)" style="fill:#92c6ff"/></g><g id="patch_12"><path d="M 90 152.742857 L 621.428571 152.742857 L 621.428571 111.6 L 90 111.6 z" clip-path="url(#p6cca6710fb)" style="fill:#92c6ff"/></g><g id="patch_13"><path d="M 90 640.8 L 90 86.4" style="fill:none;stroke:#ccc;stroke-linecap:square;stroke-linejoin:miter"/></g><g id="patch_14"><path d="M 648 640.8 L 648 86.4" style="fill:none;stroke:#ccc;stroke-linecap:square;stroke-linejoin:miter"/></g><g id="patch_15"><path d="M 90 640.8 L 648 640.8" style="fill:none;stroke:#ccc;stroke-linecap:square;stroke-linejoin:miter"/></g><g id="patch_16"><path d="M 90 86.4 L 648 86.4" style="fill:none;stroke:#ccc;stroke-linecap:square;stroke-linejoin:miter"/></g><g id="text_16"><defs><path id="DejaVuSans-57" d="M 10.984375 1.515625 L 10.984375 10.5 Q 14.703125 8.734375 18.5 7.8125 Q 22.3125 6.890625 25.984375 6.890625 Q 35.75 6.890625 40.890625 13.453125 Q 46.046875 20.015625 46.78125 33.40625 Q 43.953125 29.203125 39.59375 26.953125 Q 35.25 24.703125 29.984375 24.703125 Q 19.046875 24.703125 12.671875 31.3125 Q 6.296875 37.9375 6.296875 49.421875 Q 6.296875 60.640625 12.9375 67.421875 Q 19.578125 74.21875 30.609375 74.21875 Q 43.265625 74.21875 49.921875 64.515625 Q 56.59375 54.828125 56.59375 36.375 Q 56.59375 19.140625 48.40625 8.859375 Q 40.234375 -1.421875 26.421875 -1.421875 Q 22.703125 -1.421875 18.890625 -0.6875 Q 15.09375 0.046875 10.984375 1.515625 z M 30.609375 32.421875 Q 37.25 32.421875 41.125 36.953125 Q 45.015625 41.5 45.015625 49.421875 Q 45.015625 57.28125 41.125 61.84375 Q 37.25 66.40625 30.609375 66.40625 Q 23.96875 66.40625 20.09375 61.84375 Q 16.21875 57.28125 16.21875 49.421875 Q 16.21875 41.5 20.09375 36.953125 Q 23.96875 32.421875 30.609375 32.421875 z"/><path id="DejaVuSans-32"/><path id="DejaVuSans-40" d="M 31 75.875 Q 24.46875 64.65625 21.28125 53.65625 Q 18.109375 42.671875 18.109375 31.390625 Q 18.109375 20.125 21.3125 9.0625 Q 24.515625 -2 31 -13.1875 L 23.1875 -13.1875 Q 15.875 -1.703125 12.234375 9.375 Q 8.59375 20.453125 8.59375 31.390625 Q 8.59375 42.28125 12.203125 53.3125 Q 15.828125 64.359375 23.1875 75.875 z"/><path id="DejaVuSans-46" d="M 10.6875 12.40625 L 21 12.40625 L 21 0 L 10.6875 0 z"/><path id="DejaVuSans-37" d="M 72.703125 32.078125 Q 68.453125 32.078125 66.03125 28.46875 Q 63.625 24.859375 63.625 18.40625 Q 63.625 12.0625 66.03125 8.421875 Q 68.453125 4.78125 72.703125 4.78125 Q 76.859375 4.78125 79.265625 8.421875 Q 81.6875 12.0625 81.6875 18.40625 Q 81.6875 24.8125 79.265625 28.4375 Q 76.859375 32.078125 72.703125 32.078125 z M 72.703125 38.28125 Q 80.421875 38.28125 84.953125 32.90625 Q 89.5 27.546875 89.5 18.40625 Q 89.5 9.28125 84.9375 3.921875 Q 80.375 -1.421875 72.703125 -1.421875 Q 64.890625 -1.421875 60.34375 3.921875 Q 55.8125 9.28125 55.8125 18.40625 Q 55.8125 27.59375 60.375 32.9375 Q 64.9375 38.28125 72.703125 38.28125 z M 22.3125 68.015625 Q 18.109375 68.015625 15.6875 64.375 Q 13.28125 60.75 13.28125 54.390625 Q 13.28125 47.953125 15.671875 44.328125 Q 18.0625 40.71875 22.3125 40.71875 Q 26.5625 40.71875 28.96875 44.328125 Q 31.390625 47.953125 31.390625 54.390625 Q 31.390625 60.6875 28.953125 64.34375 Q 26.515625 68.015625 22.3125 68.015625 z M 66.40625 74.21875 L 74.21875 74.21875 L 28.609375 -1.421875 L 20.796875 -1.421875 z M 22.3125 74.21875 Q 30.03125 74.21875 34.609375 68.875 Q 39.203125 63.53125 39.203125 54.390625 Q 39.203125 45.171875 34.640625 39.84375 Q 30.078125 34.515625 22.3125 34.515625 Q 14.546875 34.515625 10.03125 39.859375 Q 5.515625 45.21875 5.515625 54.390625 Q 5.515625 63.484375 10.046875 68.84375 Q 14.59375 74.21875 22.3125 74.21875 z"/><path id="DejaVuSans-41" d="M 8.015625 75.875 L 15.828125 75.875 Q 23.140625 64.359375 26.78125 53.3125 Q 30.421875 42.28125 30.421875 31.390625 Q 30.421875 20.453125 26.78125 9.375 Q 23.140625 -1.703125 15.828125 -13.1875 L 8.015625 -13.1875 Q 14.5 -2 17.703125 9.0625 Q 20.90625 20.125 20.90625 31.390625 Q 20.90625 42.671875 17.703125 53.65625 Q 14.5 64.65625 8.015625 75.875 z"/></defs><g style="fill:#262626" transform="translate(92.137524 600.171429)scale(0.11 -0.11)"><use xlink:href="#DejaVuSans-57"/><use x="63.623" xlink:href="#DejaVuSans-32"/><use x="95.41" xlink:href="#DejaVuSans-40"/><use x="134.424" xlink:href="#DejaVuSans-48"/><use x="198.047" xlink:href="#DejaVuSans-46"/><use x="229.834" xlink:href="#DejaVuSans-50"/><use x="293.457" xlink:href="#DejaVuSans-37"/><use x="388.477" xlink:href="#DejaVuSans-41"/></g></g><g id="text_17"><g style="fill:#262626" transform="translate(92.846095 548.742857)scale(0.11 -0.11)"><use xlink:href="#DejaVuSans-49"/><use x="63.623" xlink:href="#DejaVuSans-50"/><use x="127.246" xlink:href="#DejaVuSans-32"/><use x="159.033" xlink:href="#DejaVuSans-40"/><use x="198.047" xlink:href="#DejaVuSans-48"/><use x="261.67" xlink:href="#DejaVuSans-46"/><use x="293.457" xlink:href="#DejaVuSans-50"/><use x="357.08" xlink:href="#DejaVuSans-37"/><use x="452.1" xlink:href="#DejaVuSans-41"/></g></g><g id="text_18"><defs><path id="DejaVuSans-54" d="M 33.015625 40.375 Q 26.375 40.375 22.484375 35.828125 Q 18.609375 31.296875 18.609375 23.390625 Q 18.609375 15.53125 22.484375 10.953125 Q 26.375 6.390625 33.015625 6.390625 Q 39.65625 6.390625 43.53125 10.953125 Q 47.40625 15.53125 47.40625 23.390625 Q 47.40625 31.296875 43.53125 35.828125 Q 39.65625 40.375 33.015625 40.375 z M 52.59375 71.296875 L 52.59375 62.3125 Q 48.875 64.0625 45.09375 64.984375 Q 41.3125 65.921875 37.59375 65.921875 Q 27.828125 65.921875 22.671875 59.328125 Q 17.53125 52.734375 16.796875 39.40625 Q 19.671875 43.65625 24.015625 45.921875 Q 28.375 48.1875 33.59375 48.1875 Q 44.578125 48.1875 50.953125 41.515625 Q 57.328125 34.859375 57.328125 23.390625 Q 57.328125 12.15625 50.6875 5.359375 Q 44.046875 -1.421875 33.015625 -1.421875 Q 20.359375 -1.421875 13.671875 8.265625 Q 6.984375 17.96875 6.984375 36.375 Q 6.984375 53.65625 15.1875 63.9375 Q 23.390625 74.21875 37.203125 74.21875 Q 40.921875 74.21875 44.703125 73.484375 Q 48.484375 72.75 52.59375 71.296875 z"/></defs><g style="fill:#262626" transform="translate(96.152762 497.314286)scale(0.11 -0.11)"><use xlink:href="#DejaVuSans-50"/><use x="63.623" xlink:href="#DejaVuSans-54"/><use x="127.246" xlink:href="#DejaVuSans-32"/><use x="159.033" xlink:href="#DejaVuSans-40"/><use x="198.047" xlink:href="#DejaVuSans-48"/><use x="261.67" xlink:href="#DejaVuSans-46"/><use x="293.457" xlink:href="#DejaVuSans-53"/><use x="357.08" xlink:href="#DejaVuSans-37"/><use x="452.1" xlink:href="#DejaVuSans-41"/></g></g><g id="text_19"><defs><path id="DejaVuSans-55" d="M 8.203125 72.90625 L 55.078125 72.90625 L 55.078125 68.703125 L 28.609375 0 L 18.3125 0 L 43.21875 64.59375 L 8.203125 64.59375 z"/></defs><g style="fill:#262626" transform="translate(96.388952 445.885714)scale(0.11 -0.11)"><use xlink:href="#DejaVuSans-50"/><use x="63.623" xlink:href="#DejaVuSans-55"/><use x="127.246" xlink:href="#DejaVuSans-32"/><use x="159.033" xlink:href="#DejaVuSans-40"/><use x="198.047" xlink:href="#DejaVuSans-48"/><use x="261.67" xlink:href="#DejaVuSans-46"/><use x="293.457" xlink:href="#DejaVuSans-53"/><use x="357.08" xlink:href="#DejaVuSans-37"/><use x="452.1" xlink:href="#DejaVuSans-41"/></g></g><g id="text_20"><g style="fill:#262626" transform="translate(96.388952 394.457143)scale(0.11 -0.11)"><use xlink:href="#DejaVuSans-50"/><use x="63.623" xlink:href="#DejaVuSans-55"/><use x="127.246" xlink:href="#DejaVuSans-32"/><use x="159.033" xlink:href="#DejaVuSans-40"/><use x="198.047" xlink:href="#DejaVuSans-48"/><use x="261.67" xlink:href="#DejaVuSans-46"/><use x="293.457" xlink:href="#DejaVuSans-53"/><use x="357.08" xlink:href="#DejaVuSans-37"/><use x="452.1" xlink:href="#DejaVuSans-41"/></g></g><g id="text_21"><defs><path id="DejaVuSans-51" d="M 40.578125 39.3125 Q 47.65625 37.796875 51.625 33 Q 55.609375 28.21875 55.609375 21.1875 Q 55.609375 10.40625 48.1875 4.484375 Q 40.765625 -1.421875 27.09375 -1.421875 Q 22.515625 -1.421875 17.65625 -0.515625 Q 12.796875 0.390625 7.625 2.203125 L 7.625 11.71875 Q 11.71875 9.328125 16.59375 8.109375 Q 21.484375 6.890625 26.8125 6.890625 Q 36.078125 6.890625 40.9375 10.546875 Q 45.796875 14.203125 45.796875 21.1875 Q 45.796875 27.640625 41.28125 31.265625 Q 36.765625 34.90625 28.71875 34.90625 L 20.21875 34.90625 L 20.21875 43.015625 L 29.109375 43.015625 Q 36.375 43.015625 40.234375 45.921875 Q 44.09375 48.828125 44.09375 54.296875 Q 44.09375 59.90625 40.109375 62.90625 Q 36.140625 65.921875 28.71875 65.921875 Q 24.65625 65.921875 20.015625 65.03125 Q 15.375 64.15625 9.8125 62.3125 L 9.8125 71.09375 Q 15.4375 72.65625 20.34375 73.4375 Q 25.25 74.21875 29.59375 74.21875 Q 40.828125 74.21875 47.359375 69.109375 Q 53.90625 64.015625 53.90625 55.328125 Q 53.90625 49.265625 50.4375 45.09375 Q 46.96875 40.921875 40.578125 39.3125 z"/></defs><g style="fill:#262626" transform="translate(98.514667 343.028571)scale(0.11 -0.11)"><use xlink:href="#DejaVuSans-51"/><use x="63.623" xlink:href="#DejaVuSans-54"/><use x="127.246" xlink:href="#DejaVuSans-32"/><use x="159.033" xlink:href="#DejaVuSans-40"/><use x="198.047" xlink:href="#DejaVuSans-48"/><use x="261.67" xlink:href="#DejaVuSans-46"/><use x="293.457" xlink:href="#DejaVuSans-55"/><use x="357.08" xlink:href="#DejaVuSans-37"/><use x="452.1" xlink:href="#DejaVuSans-41"/></g></g><g id="text_22"><g style="fill:#262626" transform="translate(236.449905 291.6)scale(0.11 -0.11)"><use xlink:href="#DejaVuSans-54"/><use x="63.623" xlink:href="#DejaVuSans-50"/><use x="127.246" xlink:href="#DejaVuSans-48"/><use x="190.869" xlink:href="#DejaVuSans-32"/><use x="222.656" xlink:href="#DejaVuSans-40"/><use x="261.67" xlink:href="#DejaVuSans-49"/><use x="325.293" xlink:href="#DejaVuSans-50"/><use x="388.916" xlink:href="#DejaVuSans-46"/><use x="420.703" xlink:href="#DejaVuSans-54"/><use x="484.326" xlink:href="#DejaVuSans-37"/><use x="579.346" xlink:href="#DejaVuSans-41"/></g></g><g id="text_23"><defs><path id="DejaVuSans-56" d="M 31.78125 34.625 Q 24.75 34.625 20.71875 30.859375 Q 16.703125 27.09375 16.703125 20.515625 Q 16.703125 13.921875 20.71875 10.15625 Q 24.75 6.390625 31.78125 6.390625 Q 38.8125 6.390625 42.859375 10.171875 Q 46.921875 13.96875 46.921875 20.515625 Q 46.921875 27.09375 42.890625 30.859375 Q 38.875 34.625 31.78125 34.625 z M 21.921875 38.8125 Q 15.578125 40.375 12.03125 44.71875 Q 8.5 49.078125 8.5 55.328125 Q 8.5 64.0625 14.71875 69.140625 Q 20.953125 74.21875 31.78125 74.21875 Q 42.671875 74.21875 48.875 69.140625 Q 55.078125 64.0625 55.078125 55.328125 Q 55.078125 49.078125 51.53125 44.71875 Q 48 40.375 41.703125 38.8125 Q 48.828125 37.15625 52.796875 32.3125 Q 56.78125 27.484375 56.78125 20.515625 Q 56.78125 9.90625 50.3125 4.234375 Q 43.84375 -1.421875 31.78125 -1.421875 Q 19.734375 -1.421875 13.25 4.234375 Q 6.78125 9.90625 6.78125 20.515625 Q 6.78125 27.484375 10.78125 32.3125 Q 14.796875 37.15625 21.921875 38.8125 z M 18.3125 54.390625 Q 18.3125 48.734375 21.84375 45.5625 Q 25.390625 42.390625 31.78125 42.390625 Q 38.140625 42.390625 41.71875 45.5625 Q 45.3125 48.734375 45.3125 54.390625 Q 45.3125 60.0625 41.71875 63.234375 Q 38.140625 66.40625 31.78125 66.40625 Q 25.390625 66.40625 21.84375 63.234375 Q 18.3125 60.0625 18.3125 54.390625 z"/></defs><g style="fill:#262626" transform="translate(278.96419 240.171429)scale(0.11 -0.11)"><use xlink:href="#DejaVuSans-56"/><use x="63.623" xlink:href="#DejaVuSans-48"/><use x="127.246" xlink:href="#DejaVuSans-48"/><use x="190.869" xlink:href="#DejaVuSans-32"/><use x="222.656" xlink:href="#DejaVuSans-40"/><use x="261.67" xlink:href="#DejaVuSans-49"/><use x="325.293" xlink:href="#DejaVuSans-54"/><use x="388.916" xlink:href="#DejaVuSans-46"/><use x="420.703" xlink:href="#DejaVuSans-50"/><use x="484.326" xlink:href="#DejaVuSans-37"/><use x="579.346" xlink:href="#DejaVuSans-41"/></g></g><g id="text_24"><g style="fill:#262626" transform="translate(356.434667 188.742857)scale(0.11 -0.11)"><use xlink:href="#DejaVuSans-49"/><use x="63.623" xlink:href="#DejaVuSans-49"/><use x="127.246" xlink:href="#DejaVuSans-50"/><use x="190.869" xlink:href="#DejaVuSans-56"/><use x="254.492" xlink:href="#DejaVuSans-32"/><use x="286.279" xlink:href="#DejaVuSans-40"/><use x="325.293" xlink:href="#DejaVuSans-50"/><use x="388.916" xlink:href="#DejaVuSans-50"/><use x="452.539" xlink:href="#DejaVuSans-46"/><use x="484.326" xlink:href="#DejaVuSans-57"/><use x="547.949" xlink:href="#DejaVuSans-37"/><use x="642.969" xlink:href="#DejaVuSans-41"/></g></g><g id="text_25"><defs><path id="DejaVuSans-52" d="M 37.796875 64.3125 L 12.890625 25.390625 L 37.796875 25.390625 z M 35.203125 72.90625 L 47.609375 72.90625 L 47.609375 25.390625 L 58.015625 25.390625 L 58.015625 17.1875 L 47.609375 17.1875 L 47.609375 0 L 37.796875 0 L 37.796875 17.1875 L 4.890625 17.1875 L 4.890625 26.703125 z"/></defs><g style="fill:#262626" transform="translate(621.440381 137.314286)scale(0.11 -0.11)"><use xlink:href="#DejaVuSans-50"/><use x="63.623" xlink:href="#DejaVuSans-50"/><use x="127.246" xlink:href="#DejaVuSans-53"/><use x="190.869" xlink:href="#DejaVuSans-48"/><use x="254.492" xlink:href="#DejaVuSans-32"/><use x="286.279" xlink:href="#DejaVuSans-40"/><use x="325.293" xlink:href="#DejaVuSans-52"/><use x="388.916" xlink:href="#DejaVuSans-53"/><use x="452.539" xlink:href="#DejaVuSans-46"/><use x="484.326" xlink:href="#DejaVuSans-54"/><use x="547.949" xlink:href="#DejaVuSans-37"/><use x="642.969" xlink:href="#DejaVuSans-41"/></g></g><g id="text_26"><defs><path id="DejaVuSans-42" d="M 47.015625 60.890625 L 29.5 51.421875 L 47.015625 41.890625 L 44.1875 37.109375 L 27.78125 47.015625 L 27.78125 28.609375 L 22.21875 28.609375 L 22.21875 47.015625 L 5.8125 37.109375 L 2.984375 41.890625 L 20.515625 51.421875 L 2.984375 60.890625 L 5.8125 65.71875 L 22.21875 55.8125 L 22.21875 74.21875 L 27.78125 74.21875 L 27.78125 55.8125 L 44.1875 65.71875 z"/><path id="DejaVuSans-80" d="M 19.671875 64.796875 L 19.671875 37.40625 L 32.078125 37.40625 Q 38.96875 37.40625 42.71875 40.96875 Q 46.484375 44.53125 46.484375 51.125 Q 46.484375 57.671875 42.71875 61.234375 Q 38.96875 64.796875 32.078125 64.796875 z M 9.8125 72.90625 L 32.078125 72.90625 Q 44.34375 72.90625 50.609375 67.359375 Q 56.890625 61.8125 56.890625 51.125 Q 56.890625 40.328125 50.609375 34.8125 Q 44.34375 29.296875 32.078125 29.296875 L 19.671875 29.296875 L 19.671875 0 L 9.8125 0 z"/><path id="DejaVuSans-82" d="M 44.390625 34.1875 Q 47.5625 33.109375 50.5625 29.59375 Q 53.5625 26.078125 56.59375 19.921875 L 66.609375 0 L 56 0 L 46.6875 18.703125 Q 43.0625 26.03125 39.671875 28.421875 Q 36.28125 30.8125 30.421875 30.8125 L 19.671875 30.8125 L 19.671875 0 L 9.8125 0 L 9.8125 72.90625 L 32.078125 72.90625 Q 44.578125 72.90625 50.734375 67.671875 Q 56.890625 62.453125 56.890625 51.90625 Q 56.890625 45.015625 53.6875 40.46875 Q 50.484375 35.9375 44.390625 34.1875 z M 19.671875 64.796875 L 19.671875 38.921875 L 32.078125 38.921875 Q 39.203125 38.921875 42.84375 42.21875 Q 46.484375 45.515625 46.484375 51.90625 Q 46.484375 58.296875 42.84375 61.546875 Q 39.203125 64.796875 32.078125 64.796875 z"/></defs><g style="fill:#262626" transform="translate(232.915312 80.4)scale(0.12 -0.12)"><use xlink:href="#DejaVuSans-107"/><use x="57.91" xlink:href="#DejaVuSans-105"/><use x="85.693" xlink:href="#DejaVuSans-110"/><use x="149.072" xlink:href="#DejaVuSans-100"/><use x="212.549" xlink:href="#DejaVuSans-47"/><use x="246.24" xlink:href="#DejaVuSans-42"/><use x="296.24" xlink:href="#DejaVuSans-32"/><use x="328.027" xlink:href="#DejaVuSans-108"/><use x="355.811" xlink:href="#DejaVuSans-97"/><use x="417.09" xlink:href="#DejaVuSans-98"/><use x="480.566" xlink:href="#DejaVuSans-101"/><use x="542.09" xlink:href="#DejaVuSans-108"/><use x="569.873" xlink:href="#DejaVuSans-115"/><use x="621.973" xlink:href="#DejaVuSans-32"/><use x="653.76" xlink:href="#DejaVuSans-102"/><use x="688.965" xlink:href="#DejaVuSans-111"/><use x="750.146" xlink:href="#DejaVuSans-114"/><use x="791.26" xlink:href="#DejaVuSans-32"/><use x="823.047" xlink:href="#DejaVuSans-80"/><use x="883.35" xlink:href="#DejaVuSans-82"/><use x="952.832" xlink:href="#DejaVuSans-115"/><use x="1004.932" xlink:href="#DejaVuSans-32"/><use x="1036.719" xlink:href="#DejaVuSans-99"/><use x="1091.699" xlink:href="#DejaVuSans-111"/><use x="1152.881" xlink:href="#DejaVuSans-110"/><use x="1216.26" xlink:href="#DejaVuSans-116"/><use x="1255.469" xlink:href="#DejaVuSans-97"/><use x="1316.748" xlink:href="#DejaVuSans-105"/><use x="1344.531" xlink:href="#DejaVuSans-110"/><use x="1407.91" xlink:href="#DejaVuSans-105"/><use x="1435.693" xlink:href="#DejaVuSans-110"/><use x="1499.072" xlink:href="#DejaVuSans-103"/><use x="1562.549" xlink:href="#DejaVuSans-32"/><use x="1594.336" xlink:href="#DejaVuSans-114"/><use x="1633.199" xlink:href="#DejaVuSans-101"/><use x="1694.723" xlink:href="#DejaVuSans-108"/><use x="1722.506" xlink:href="#DejaVuSans-101"/><use x="1784.029" xlink:href="#DejaVuSans-97"/><use x="1845.309" xlink:href="#DejaVuSans-115"/><use x="1897.408" xlink:href="#DejaVuSans-101"/><use x="1958.932" xlink:href="#DejaVuSans-32"/><use x="1990.719" xlink:href="#DejaVuSans-110"/><use x="2054.098" xlink:href="#DejaVuSans-111"/><use x="2115.279" xlink:href="#DejaVuSans-116"/><use x="2154.488" xlink:href="#DejaVuSans-101"/><use x="2216.012" xlink:href="#DejaVuSans-115"/></g></g></g></g><defs><clipPath id="p6cca6710fb"><rect width="558" height="554.4" x="90" y="86.4"/></clipPath></defs></svg>