<svg id="Layer_1" data-name="Layer 1" xmlns="http://www.w3.org/2000/svg" xmlns:xlink="http://www.w3.org/1999/xlink" viewBox="0 0 215 127"><defs><style>.cls-1{fill:none;}.cls-2{fill:#fbfbfb;}.cls-3{clip-path:url(#clip-path);}.cls-4{fill:#918425;}</style><clipPath id="clip-path"><rect class="cls-1" x="16.73267" y="50.74952" width="183.08168" height="24.28105"/></clipPath></defs><title>kubernetes.io-logos2</title><rect class="cls-2" x="-3.35417" y="-4.36563" width="223.25536" height="134.51136"/><g class="cls-3"><path class="cls-4" d="M25.98414,64.80526v3.70059a17.56305,17.56305,0,0,0,.19477,3.27859A1.99584,1.99584,0,0,0,27.6072,73.375a8.044,8.044,0,0,0,1.78537.29215v.32461H16.73267v-.32461a5.56477,5.56477,0,0,0,1.5906-.29215,1.88749,1.88749,0,0,0,1.23353-1.5906,22.52366,22.52366,0,0,0,.16231-3.27859V58.15069a22.74859,22.74859,0,0,0-.16231-3.311,1.99936,1.99936,0,0,0-1.23353-1.5906,5.74546,5.74546,0,0,0-1.5906-.25969v-.32461h10.907a15.37262,15.37262,0,0,1,7.0441,1.39583,5.66745,5.66745,0,0,1,2.532,2.40214,4.59046,4.59046,0,0,1,.58431,2.30475,4.85956,4.85956,0,0,1-1.5906,3.6032,9.13274,9.13274,0,0,1-4.577,2.14245,26.29569,26.29569,0,0,1-4.73934.32461h-.90892Zm0-.38954h.81153a3.93736,3.93736,0,0,0,3.27859-1.1686,7.96119,7.96119,0,0,0,1.03876-4.642,7.60355,7.60355,0,0,0-.97384-4.28489,3.70455,3.70455,0,0,0-3.27859-1.29845h-.844V64.41572Z"/></g><g class="cls-3"><path class="cls-4" d="M50.7521,53.05427V62.89c3.40844-.32461,5.32366-1.88275,5.74565-4.70688h.32461v9.83577h-.32461a6.65366,6.65366,0,0,0-2.0126-3.50582A4.9094,4.9094,0,0,0,52.24532,63.377a11.55048,11.55048,0,0,0-1.49322-.1623v7.56348a4.193,4.193,0,0,0,.38954,2.20736,1.74859,1.74859,0,0,0,1.49322.61677,9.08973,9.08973,0,0,0,5.97288-2.56444,14.02773,14.02773,0,0,0,4.09012-6.13519h.32461L61.56171,73.9918H41.46817v-.32461a5.74524,5.74524,0,0,0,1.59061-.25969,1.88753,1.88753,0,0,0,1.23353-1.5906,22.75064,22.75064,0,0,0,.1623-3.31106V58.15069a22.75057,22.75057,0,0,0-.1623-3.311,1.9994,1.9994,0,0,0-1.23353-1.5906,5.52722,5.52722,0,0,0-1.59061-.25969v-.32461H60.29572L61.59417,60.001h-.32461a13.4232,13.4232,0,0,0-3.24613-4.67443A9.2366,9.2366,0,0,0,51.661,53.02181H50.7521Z"/></g><g class="cls-3"><path class="cls-4" d="M79.64265,65.81156H73.21532a11.13219,11.13219,0,0,0-.81154,3.86289,4.398,4.398,0,0,0,1.03876,3.05137,3.10927,3.10927,0,0,0,2.11.94137v.32462H65.6843v-.32462a5.234,5.234,0,0,0,2.23982-.87645c1.94768-1.29845,3.57075-3.66813,4.8692-7.14148l3.24613-8.50486a7.40894,7.40894,0,0,0-1.266-1.688,18.1,18.1,0,0,0,5.421-4.70689q.92516,2.532,1.65553,4.28489l4.09013,9.93316c.51938,1.266,1.20106,2.79167,2.07752,4.642A19.51537,19.51537,0,0,0,89.446,72.20644a3.28015,3.28015,0,0,0,2.07752,1.36337,3.94215,3.94215,0,0,0,.74661.06492v.32461H79.383v-.32461c1.52568-.06492,2.27229-.64923,2.27229-1.78537a14.343,14.343,0,0,0-1.33091-4.38227Zm-.09738-.38954-3.24613-7.92055-2.954,7.92055Z"/></g><g class="cls-3"><path class="cls-4" d="M104.15092,63.377v5.12889a22.52515,22.52515,0,0,0,.16231,3.27859,1.97479,1.97479,0,0,0,1.266,1.5906,6.65666,6.65666,0,0,0,1.55813.29215v.32462H94.89945v-.32462a5.56477,5.56477,0,0,0,1.5906-.29215,1.88751,1.88751,0,0,0,1.23353-1.5906,22.52505,22.52505,0,0,0,.16231-3.27859V58.15069a22.75009,22.75009,0,0,0-.16231-3.311,1.99938,1.99938,0,0,0-1.23353-1.5906,6.64884,6.64884,0,0,0-1.5906-.29215v-.32461h8.95931a28.89834,28.89834,0,0,1,7.17395.64922,7.805,7.805,0,0,1,3.99273,2.33721,4.13037,4.13037,0,0,1,1.03877,2.69429,3.69656,3.69656,0,0,1-1.33092,2.79167,7.79329,7.79329,0,0,1-4.22,1.65553,6.03013,6.03013,0,0,1,2.36967.81153,8.14665,8.14665,0,0,1,2.23982,2.98644l1.81784,3.50582a9.53418,9.53418,0,0,0,1.88275,2.79167,4.20045,4.20045,0,0,0,2.33722.74661v.32461h-9.34885c-1.55814-3.76551-2.75921-6.39487-3.57074-7.88809a7.45413,7.45413,0,0,0-1.39584-1.98014,3.11216,3.11216,0,0,0-2.04505-.74661h-.64923Zm0-.38953h.90891a3.93147,3.93147,0,0,0,3.2786-1.20107,6.13546,6.13546,0,0,0,.97383-3.76551,6.26773,6.26773,0,0,0-.97383-3.76551,2.47493,2.47493,0,0,0-1.33092-.97384,6.57685,6.57685,0,0,0-1.94768-.25969h-.90891Z"/></g><g class="cls-3"><path class="cls-4" d="M139.98819,60.45545h-.32461a16.9951,16.9951,0,0,0-2.66183-5.064,6.41028,6.41028,0,0,0-4.96657-2.72675,3.4211,3.4211,0,0,0-2.40214.81153,2.82432,2.82432,0,0,0-1.0063,2.27229,2.885,2.885,0,0,0,1.10368,2.40213,16.2008,16.2008,0,0,0,3.96029,2.01261l2.98644,1.13614a10.24192,10.24192,0,0,1,3.66812,2.17491,5.34433,5.34433,0,0,1,1.5906,3.86289,6.54547,6.54547,0,0,1-1.0063,3.50582,6.72746,6.72746,0,0,1-2.88905,2.66182,9.00483,9.00483,0,0,1-3.99274.87646,34.40369,34.40369,0,0,1-6.84933-.94138,10.02162,10.02162,0,0,0-1.5906-.25969.92571.92571,0,0,0-1.03877.77907h-.32461l-.32461-9.86823h.32461a18.53706,18.53706,0,0,0,3.86289,6.75195,10.28324,10.28324,0,0,0,2.85659,2.46706,6.23482,6.23482,0,0,0,2.82414.64922,3.78247,3.78247,0,0,0,2.532-.844,3.04015,3.04015,0,0,0,1.07122-2.40214,3.21141,3.21141,0,0,0-1.266-2.5969,11.92862,11.92862,0,0,0-3.24613-1.75291l-3.11628-1.20107a13.11337,13.11337,0,0,1-4.38228-2.56444,4.36177,4.36177,0,0,1-1.39583-3.376,6.4003,6.4003,0,0,1,2.14245-4.77181,8.75269,8.75269,0,0,1,6.16764-2.20736,25.72258,25.72258,0,0,1,4.8692.74661,8.76139,8.76139,0,0,0,1.42829.22723c.422,0,.64923-.22723.74661-.71415h.32461Z"/></g><g class="cls-3"><path class="cls-4" d="M158.13405,52.24274A11.88154,11.88154,0,0,1,165.73,54.937a10.47543,10.47543,0,0,1,4.05766,8.53732,10.21712,10.21712,0,0,1-4.05766,8.2127,11.96333,11.96333,0,0,1-15.12695,0,10.357,10.357,0,0,1-4.0252-8.375,10.18383,10.18383,0,0,1,4.0252-8.375,11.8367,11.8367,0,0,1,7.531-2.69429m0,.422a3.68719,3.68719,0,0,0-2.79167,1.20107c-1.266,1.36337-1.91521,4.51211-1.91521,9.41377a22.82534,22.82534,0,0,0,1.10368,8.11532,3.99472,3.99472,0,0,0,1.5906,1.98014,3.88429,3.88429,0,0,0,4.80428-.64923c1.266-1.36337,1.91521-4.47965,1.91521-9.31639a23.80306,23.80306,0,0,0-1.07122-8.24516,3.66762,3.66762,0,0,0-3.63567-2.49952"/></g><g class="cls-3"><path class="cls-4" d="M183.25909,52.66474,194.653,65.64925V60.87744c0-3.0189-.51937-5.1938-1.59061-6.52472a3.06463,3.06463,0,0,0-1.49321-1.10368,6.50852,6.50852,0,0,0-1.266-.25969v-.32461h9.51118v.32461a4.51934,4.51934,0,0,0-1.98013.55184,5.32476,5.32476,0,0,0-2.01261,2.954,17.57294,17.57294,0,0,0-.71415,5.74565V75.03057L178.26005,55.81348v9.12163c0,3.11628.38954,5.35611,1.20107,6.687a3.90257,3.90257,0,0,0,1.91522,1.72045,9.38277,9.38277,0,0,0,1.65552.35707v.32462H172.90393v-.32462a5.52966,5.52966,0,0,0,2.75921-1.1686,5.46964,5.46964,0,0,0,1.81783-3.24613,29.44679,29.44679,0,0,0,.38954-4.90165V58.60516a8.11846,8.11846,0,0,0-.45445-3.27859,4.65935,4.65935,0,0,0-2.46706-1.98014,6.67746,6.67746,0,0,0-2.01261-.32462V52.6972h10.3227Z"/></g></svg>