<svg id="SvgjsSvg1022" width="223.25536" height="134.51135" xmlns="http://www.w3.org/2000/svg" version="1.1" xmlns:xlink="http://www.w3.org/1999/xlink" xmlns:svgjs="http://svgjs.com/svgjs"><defs id="SvgjsDefs1023"></defs><g id="SvgjsG1024"><svg xmlns="http://www.w3.org/2000/svg" width="223.25536" height="134.51135" viewBox="0 0 215 127"><rect width="223" height="134" x="-111.5" y="-67" fill="#00294e" rx="0" ry="0" transform="translate(111.5 67)" vector-effect="non-scaling-stroke" class="color00294e svgShape"></rect><g transform="matrix(.28 0 0 .28 111.5 67)"><path fill="#ffffff" d="M230.5 374.3C230.3 373.8 229.7 373.5 229.2 373.6L229 373.6C227.4 373.90000000000003 226.2 373.90000000000003 225.3 373.3 224.10000000000002 372.5 223.5 370.6 223.5 367.6L223.5 340.3C223.5 329.6 217.1 324.2 204.6 324.2 193.4 324.2 184.5 329.5 184.5 336.3 184.5 339.8 186.6 342.3 189.8 342.7 191.9 342.9 193.8 342 195.20000000000002 340.5 198.00000000000003 337.6 197.60000000000002 334.1 194.3 330.4 196.3 328.29999999999995 199.8 327.09999999999997 203.8 327.09999999999997 210.3 327.09999999999997 213.10000000000002 330.99999999999994 213.10000000000002 339.99999999999994L213.10000000000002 346.8999999999999C211.60000000000002 347.3999999999999 210.10000000000002 347.7999999999999 207.50000000000003 348.3999999999999 202.20000000000002 349.5999999999999 195.00000000000003 351.2999999999999 189.50000000000003 354.2999999999999 185.00000000000003 356.7999999999999 182.70000000000002 360.6999999999999 182.70000000000002 365.8999999999999 182.70000000000002 371.5999999999999 186.4 378.19999999999993 197.00000000000003 378.19999999999993 202.90000000000003 378.19999999999993 208.20000000000002 375.3999999999999 213.60000000000002 369.3999999999999 214.10000000000002 375.5999999999999 216.40000000000003 377.99999999999994 222.20000000000002 377.99999999999994 225.00000000000003 377.99999999999994 227.20000000000002 377.3999999999999 229.8 376.09999999999997 230.5 375.9 230.8 375.1 230.5 374.3zM213.1 366C211.79999999999998 367.8 207.6 373.1 202.4 373.1 195.4 373.1 193.9 368.20000000000005 193.9 364 193.9 357.2 199.1 354 213.1 350.6L213.1 366zM348.1 378.6C333.20000000000005 378.6 321.90000000000003 366.90000000000003 321.90000000000003 351.40000000000003 321.90000000000003 336.20000000000005 333.6 323.90000000000003 348.1 323.90000000000003 362.70000000000005 323.90000000000003 374.20000000000005 335.8 374.20000000000005 351.00000000000006 374.2 368 360.6 378.6 348.1 378.6zM347.5 326.8C341.1 326.8 333.7 329.6 333.7 351.2 333.7 367.7 338.59999999999997 375.7 348.59999999999997 375.7 358.2 375.7 362.4 368.09999999999997 362.4 351.2 362.4 334.8 357.5 326.8 347.5 326.8zM117.4 324.8C117.4 337.40000000000003 114.30000000000001 344.3 98.4 344.3L90 344.3 90 306.3 98.7 306.3C115.2 306.3 117.4 315.7 117.4 324.8zM90 367.6L90 347.8 97.6 347.8C109 347.8 117.6 345.40000000000003 123.3 340.7 129.2 335.7 130.5 329.5 130.5 325.09999999999997 130.5 306.99999999999994 113.1 303.2 98.4 303.2L98.5 303.2 68.8 303.2C68.1 303.2 67.6 303.7 67.6 304.4L67.6 304.5 67.6 304.5C67.6 305.1 68 305.7 68.6 305.9 71.19999999999999 306.9 78.39999999999999 305.5 78.39999999999999 313.2L78.39999999999999 367.59999999999997C78.39999999999999 371.59999999999997 76.6 374.4 68.6 375.09999999999997 68 375.2 67.5 375.7 67.5 376.29999999999995L67.5 376.49999999999994C67.5 377.19999999999993 68 377.69999999999993 68.7 377.69999999999993L100.4 377.69999999999993C101.10000000000001 377.69999999999993 101.60000000000001 377.19999999999993 101.60000000000001 376.49999999999994L101.60000000000001 376.29999999999995C101.60000000000001 375.69999999999993 101.10000000000001 375.09999999999997 100.50000000000001 375.09999999999997 91.8 374.4 90 371.7 90 367.6L90 347.90000000000003M154.5 323.8C140.7 323.8 129.5 336.3 129.5 351.7 129.5 367.2 140 378.5 154.5 378.5 166.7 378.5 172.6 371.2 176 365.7 176.3 365.2 176.2 364.4 175.7 364.09999999999997L175.5 363.99999999999994C175 363.59999999999997 174.2 363.69999999999993 173.8 364.19999999999993 169.3 369.79999999999995 165.4 373.0999999999999 158.60000000000002 373.0999999999999 150.00000000000003 373.0999999999999 140.90000000000003 367.19999999999993 140.90000000000003 350.5999999999999L140.90000000000003 350.4999999999999C140.90000000000003 349.7999999999999 140.90000000000003 348.7999999999999 140.90000000000003 347.7999999999999L175.90000000000003 347.7999999999999C176.00000000000003 347.7999999999999 176.10000000000002 347.6999999999999 176.10000000000002 347.5999999999999L176.10000000000002 347.2999999999999C176.60000000000002 340.4999999999999 174.70000000000002 334.3999999999999 170.70000000000002 330.0999999999999 167 326.1 161.3 323.8 154.5 323.8zM141.2 344.4C142.39999999999998 333.09999999999997 146.79999999999998 326.9 153.7 326.9 157.2 326.9 159.79999999999998 327.9 161.6 329.79999999999995 164.1 332.49999999999994 165.2 337.4 164.7 344.4L141.2 344.4zM299.8 345L299.8 345C290.2 342.3 286.5 339.6 286.5 335.3 286.5 330.40000000000003 290.4 326.90000000000003 295.7 326.90000000000003 302 326.90000000000003 304.7 329.90000000000003 311.3 341.00000000000006L311.40000000000003 341.1000000000001 311.6 341.2000000000001 312.5 341.2000000000001C313.2 341.2000000000001 313.7 340.7000000000001 313.7 340.0000000000001L313.7 324.0000000000001C313.7 323.9000000000001 313.59999999999997 323.8000000000001 313.5 323.8000000000001L312.3 323.8000000000001C311.90000000000003 323.8000000000001 311.6 324.0000000000001 311.40000000000003 324.2000000000001L309.3 326.8000000000001C306.6 325.3000000000001 302.3 323.8000000000001 297.90000000000003 323.8000000000001 286.90000000000003 323.8000000000001 279.20000000000005 330.60000000000014 279.20000000000005 340.3000000000001 279.20000000000005 349.40000000000015 285.30000000000007 352.90000000000015 295.70000000000005 355.7000000000001 305.90000000000003 358.5000000000001 309.50000000000006 361.4000000000001 309.50000000000006 366.8000000000001 309.50000000000006 372.8000000000001 303.70000000000005 375.5000000000001 299.6000000000001 375.5000000000001 291.9000000000001 375.5000000000001 288.7000000000001 372.7000000000001 281.4000000000001 359.5000000000001L281.30000000000007 359.3000000000001 281.1000000000001 359.2000000000001 280.2000000000001 359.2000000000001C279.5000000000001 359.2000000000001 279.0000000000001 359.7000000000001 279.0000000000001 360.4000000000001L279.0000000000001 378.30000000000007C279.0000000000001 378.4000000000001 279.10000000000014 378.50000000000006 279.2000000000001 378.50000000000006L280.4000000000001 378.50000000000006C280.7000000000001 378.50000000000006 281.0000000000001 378.40000000000003 281.30000000000007 378.1000000000001L284.70000000000005 374.7000000000001C288.6 377.1000000000001 294.50000000000006 378.4000000000001 298.30000000000007 378.4000000000001 304.00000000000006 378.4000000000001 308.70000000000005 376.6000000000001 311.9000000000001 373.2000000000001 314.7000000000001 370.1000000000001 316.30000000000007 365.8000000000001 316.30000000000007 361.0000000000001 316.2 352.7 311.8 348.4 299.8 345zM241.8 371.3C241.8 374.1 241.10000000000002 375 236.70000000000002 375.2 236.10000000000002 375.2 235.60000000000002 375.8 235.60000000000002 376.4 235.60000000000002 377.09999999999997 236.10000000000002 377.59999999999997 236.8 377.59999999999997L258.5 377.59999999999997C259.2 377.59999999999997 259.7 377.09999999999997 259.7 376.4 259.7 375.7 259.2 375.2 258.5 375.2 253.5 375 252.2 374.09999999999997 252.2 371.2L252.2 339.4C255.79999999999998 333.5 258.3 330.4 262.7 329.4 262.5 330.09999999999997 262.4 331.09999999999997 262.4 331.79999999999995 262.4 335.69999999999993 265.09999999999997 338.4 269 338.4 272.8 338.4 275.4 335.7 275.4 331.79999999999995 275.4 328.09999999999997 273.09999999999997 323.9 266.7 323.9 261.4 323.9 256.4 326.9 252.1 334.2L252.1 326C252.1 325.2 251.4 324.5 250.6 324.5L236.9 324.9C236.20000000000002 324.9 235.70000000000002 325.5 235.70000000000002 326.09999999999997L235.70000000000002 326.29999999999995C235.70000000000002 326.9 236.10000000000002 327.4 236.70000000000002 327.49999999999994 241.3 328.09999999999997 241.9 330.29999999999995 241.9 332.59999999999997L241.8 371.3zM391.8 324.5C392.1 324.5 392.40000000000003 324.6 392.6 324.8 392.8 325 393 325.3 393 325.7L393 334.8C393 334.8 397.5 324.2 411.9 324.2L412 324.2C421 324.2 426.2 329.9 426.2 340L426.2 371.3C426.2 374.1 426.9 375 431.3 375.2 431.90000000000003 375.2 432.40000000000003 375.8 432.40000000000003 376.4 432.40000000000003 377.09999999999997 431.90000000000003 377.59999999999997 431.20000000000005 377.59999999999997L411.70000000000005 377.59999999999997C411.00000000000006 377.59999999999997 410.50000000000006 377.09999999999997 410.50000000000006 376.4 410.50000000000006 375.7 411.00000000000006 375.2 411.6000000000001 375.2 415.1000000000001 374.9 415.7000000000001 374 415.7000000000001 371.3L415.7000000000001 343C415.7000000000001 333.7 413.0000000000001 330 406.2000000000001 330 401.6000000000001 330 397.8000000000001 334 395.5000000000001 337.4 395.5000000000001 337.4 394.3000000000001 338.9 393.0000000000001 341.7L393.10000000000014 371.2C393.10000000000014 373.9 393.70000000000016 374.8 397.10000000000014 375.09999999999997 397.70000000000016 375.2 398.20000000000016 375.7 398.20000000000016 376.29999999999995 398.20000000000016 376.99999999999994 397.70000000000016 377.49999999999994 397.00000000000017 377.49999999999994L377.6000000000002 377.49999999999994C376.9000000000002 377.49999999999994 376.4000000000002 376.99999999999994 376.4000000000002 376.29999999999995 376.4000000000002 375.69999999999993 376.9000000000002 375.09999999999997 377.5000000000002 375.09999999999997 381.9000000000002 374.79999999999995 382.60000000000025 373.9 382.60000000000025 371.2L382.60000000000025 332.5C382.60000000000025 330.2 382.0000000000002 328.1 377.40000000000026 327.4 376.80000000000024 327.29999999999995 376.40000000000026 326.79999999999995 376.40000000000026 326.2L376.40000000000026 326C376.40000000000026 325.3 376.90000000000026 324.8 377.60000000000025 324.8L391.8 324.5z" transform="translate(-249.95 -250)" vector-effect="non-scaling-stroke" class="color3d3935 svgShape"></path><path fill="#007fa3" d="M 291.2 131.9 C 325.5 151.5 333.5 195.3 309.59999999999997 239.7 C 288.59999999999997 278.7 242.69999999999996 295.4 208.59999999999997 275.5 C 174.39999999999998 255.6 167.79999999999995 200.2 182.39999999999998 168.3 C 203.8 122 253.2 110.2 291.2 131.9" transform="translate(-249.95 -249.99)" vector-effect="non-scaling-stroke" class="color007fa3 svgShape"></path><path fill="#ffffff" d="M 290.4 165.5 C 297.09999999999997 172.7 299.2 183.6 298 192.5 C 296.7 202.7 290.5 212.1 280.2 218.4 C 272.09999999999997 223.4 261.4 225.3 250.79999999999998 225.4 C 250.7 227.1 250.39999999999998 232.8 250.2 233.70000000000002 C 250 235.00000000000003 249.5 235.8 248.89999999999998 236.50000000000003 C 247.79999999999998 238.00000000000003 245.79999999999998 238.90000000000003 243.89999999999998 239.50000000000003 C 242.39999999999998 239.90000000000003 240.79999999999998 240.10000000000002 239.7 240.10000000000002 C 239.5 240.10000000000002 239.29999999999998 240.10000000000002 239.2 240.10000000000002 C 238.1 240.00000000000003 236.79999999999998 239.40000000000003 236 238.60000000000002 C 235.2 237.70000000000002 234.8 236.60000000000002 234.7 235.40000000000003 L 234.6 234.30000000000004 C 234.4 233.30000000000004 233.2 183.80000000000004 233.4 184.70000000000005 C 233.6 178.80000000000004 243.20000000000002 177.70000000000005 248.3 178.80000000000004 C 253.5 179.80000000000004 252.20000000000002 186.20000000000005 252 194.00000000000003 C 252 194.00000000000003 251.8 204.20000000000002 251.3 215.00000000000003 C 257.90000000000003 214.70000000000002 263.2 212.90000000000003 268.1 210.40000000000003 C 278.1 205.50000000000003 283.3 197.90000000000003 283.3 186.80000000000004 C 283.3 175.70000000000005 272.6 163 252.6 163 C 232.6 163 224 168 214.3 176.1 C 212.10000000000002 177.9 210.4 179.7 208.8 180.9 C 207.20000000000002 182.1 203 182.3 201.8 179.5 C 200.4 176.1 203 172.3 204.5 170.5 C 206.9 167.6 212.7 161.9 219.1 158.5 C 226.5 154.7 235.5 150.5 248 150.2 C 259.4 149.9 277.4 150.8 290.4 165.5 M 247 247.5 C 246 246.7 244.8 246.1 243.6 245.9 C 243.2 245.8 242.79999999999998 245.8 242.4 245.8 C 240.20000000000002 245.8 238 247 236.5 249.10000000000002 C 235.3 250.8 234.8 252.90000000000003 235.1 254.90000000000003 C 235.29999999999998 256.20000000000005 235.79999999999998 257.3 236.5 258.1 C 237.3 259 238.5 259.70000000000005 240 260.20000000000005 C 240.9 260.40000000000003 241.7 260.6 242.6 260.6 L 242.6 260.6 C 244.5 260.6 246.29999999999998 260 247.6 258.90000000000003 C 249.2 257.6 250 255.80000000000004 250 253.80000000000004 C 250 251.3 248.9 249 247 247.5" transform="translate(-249.95 -250)" vector-effect="non-scaling-stroke" class="colorfff svgShape"></path></g></svg></g></svg>