<svg id="Layer_1" data-name="Layer 1" xmlns="http://www.w3.org/2000/svg" viewBox="0 0 52.34 57.73"><defs><style>.cls-1{fill:#3b97d2;}.cls-2{fill:#3b97d3;}</style></defs><title>cern</title><path class="cls-1" d="M47.29,10.36s-18.61-.15-24.54-.14c-.93,0-1.55.07-1.75.08A14,14,0,0,0,8.13,24.21a28.07,28.07,0,0,0,1.42,7.43c1.16,4.1,2.53,8.79,2.53,8.79h.74l-2.75-9.27h0a13.7,13.7,0,0,0,12,7,13.1,13.1,0,0,0,7.57-2.27l0,0-12.22,13h1l11.5-12.23A33.36,33.36,0,0,0,33.76,32,13.09,13.09,0,0,0,36,24.6h0L41.4,48.94h.77S37.68,29,36.81,24.85s-1.87-6.64-3-8.09a6.22,6.22,0,0,0-1.24-.51A13.17,13.17,0,1,1,22.14,11a13.21,13.21,0,0,1,8.55,3.14,8,8,0,0,1,1.4.33h0a13.84,13.84,0,0,0-6-3.53v0L47.29,11Z"/><path class="cls-1" d="M43.34,13.69,42.06,26.86h0a14.35,14.35,0,0,0-3-7.33,14,14,0,0,0-21.39-.47l.59.46A13.19,13.19,0,0,1,39.17,20.9a14.57,14.57,0,0,1,2.17,9.72,13.31,13.31,0,0,1-1.78,4.93l.22,1c1.56-2.42,2.36-4.58,3-10.1.48-4.23,1.29-12.74,1.29-12.74Z"/><path class="cls-2" d="M16.08,22.1l-.38.49a2.34,2.34,0,0,0-1.65-.7,2.2,2.2,0,1,0,0,4.4,2.43,2.43,0,0,0,1.65-.67l.39.44a3.08,3.08,0,0,1-2.07.86,2.81,2.81,0,1,1,0-5.63A3,3,0,0,1,16.08,22.1Z"/><path class="cls-2" d="M17.87,21.92v1.83h2.81v.61H17.87v1.91h3.25v.61H17.23V21.3H21v.61Z"/><path class="cls-2" d="M24.92,25.11l-.37,0H23.06v1.76h-.64V21.3h2.12c1.39,0,2.2.69,2.2,1.87A1.75,1.75,0,0,1,25.49,25l1.31,1.9h-.73Zm-.37-.6c1,0,1.59-.45,1.59-1.32s-.57-1.28-1.59-1.28H23.06v2.59Z"/><path class="cls-2" d="M32.17,26.88,28.82,22.4v4.48h-.64V21.3h.66l3.35,4.49V21.3h.63v5.58Z"/></svg>