<?xml version="1.0" encoding="UTF-8"?><svg id="Layer_1" xmlns="http://www.w3.org/2000/svg" viewBox="0 0 651.45062 308.92256"><defs><style>.cls-1{fill-rule:evenodd;}.cls-1,.cls-2,.cls-3{fill:#fff;}.cls-2{opacity:.8;}</style></defs><path class="cls-3" d="M179.01959,206.26045c1.12941-.30647,2.47338-.61748,4.22-.92822,1.76426-.28883,3.55897-.42884,5.35382-.41147,1.61102-.06573,3.22204.17501,4.73234.72221,1.16882.45102,2.1975,1.19968,2.98986,2.16264.75735.9675,1.28265,2.09263,1.54088,3.29205.33719,1.38324.5122,2.79721.51661,4.22427v12.76527h-6.2775v-12.04279c.10501-1.49279-.18383-2.98131-.82735-4.32527-.5122-.82295-1.54529-1.23869-3.08631-1.23869-.48589-.00882-.96309.02191-1.44456.10501-.5122,0-.92808.10073-1.33515.10073v17.40102h-6.38264v-21.82675ZM167.28314,216.66163c.0656-1.62398-.32397-3.22632-1.12941-4.63601-1.48411-1.87354-4.20263-2.1931-6.08058-.71794-.26265.21028-.50779.45529-.71794.71794-.89308,1.37469-1.32206,2.99867-1.23455,4.63601-.07,1.66353.35897,3.31396,1.23455,4.7322,1.34397,1.87808,3.94426,2.31146,5.8222.97631.37647-.26719.70485-.59984.97631-.97631.80544-1.4447,1.19501-3.08177,1.12941-4.7322M173.76637,216.66163c.03941,1.63734-.20133,3.27441-.71794,4.83293-.49029,1.41397-1.26074,2.70984-2.26764,3.8128-2.0575,2.22836-4.99485,3.43206-8.02412,3.29205-1.55411.00454-3.08631-.27574-4.53088-.82295-1.33087-.57339-2.52161-1.40969-3.50219-2.4691-1.01118-1.09869-1.78603-2.39456-2.26323-3.8128-1.09869-3.13013-1.09869-6.54455,0-9.67014.50779-1.37469,1.27396-2.63556,2.26323-3.70806.985-1.03296,2.17573-1.83853,3.50219-2.36811,1.39647-.59102,2.90676-.87131,4.42574-.82749,1.5147,0,3.01617.27574,4.42146.82749,1.30456.56911,2.49088,1.37015,3.50647,2.36811.985,1.0725,1.75985,2.33337,2.25882,3.70806.63484,1.53207.94999,3.17368.92808,4.83721M139.07361,228.59941c-4.83734,0-8.54086-1.33942-11.00983-4.01426-2.57838-2.67911-3.81294-6.48337-3.81294-11.42558-.0175-2.24573.36338-4.47837,1.13823-6.58837,1.38765-3.66424,4.32955-6.52719,8.02425-7.82279,1.94367-.71794,4.00545-1.06823,6.07617-1.03322,1.1425-.00428,2.27633.09191,3.39705.30647,1.02868.21001,1.95236.41575,2.67471.62148.66544.21028,1.31324.44674,1.95677.72248.41147.13573.79235.34574,1.13382.61721l-1.95677,5.34941c-1.00691-.55148-2.075-.96295-3.19132-1.23442-1.34397-.34147-2.72734-.5122-4.1194-.5122-1.01559.00882-2.02677.1881-2.98558.5122-.98059.32383-1.86485.89295-2.56957,1.65043-.78367.84485-1.40969,1.8209-1.85617,2.88031-.47279,1.3966-.71794,2.84985-.72235,4.32527-.02618,1.27824.10955,2.56075.41588,3.80853.28456,1.1075.77485,2.15382,1.44029,3.08631.72662.87104,1.64162,1.58016,2.67471,2.05736,1.23455.5253,2.5697.77485,3.90926.72676.86236-.01309,1.72485-.07882,2.57838-.21028.69603-.07,1.38338-.20574,2.0575-.41147.52543-.14001,1.0375-.31074,1.54529-.51648.39411-.21028.80558-.38529,1.23455-.5122l1.85617,5.34941c-1.24324.74439-2.60043,1.26969-4.01867,1.54543-1.90867.53411-3.88735.77913-5.87043.72221M113.65262,214.49899c-.00441-.52957-.10941-1.05487-.31088-1.54516-.17942-.48174-.42456-.92822-.72221-1.33969-.34147-.42029-.76176-.77485-1.23455-1.02868-.58662-.25837-1.21264-.39411-1.85617-.41147-.63912-.035-1.28251.10928-1.85163.41147-.49029.1881-.91499.50793-1.23455.92795-.35456.42483-.63471.91513-.82295,1.44042-.20146.52957-.33706,1.08132-.4072,1.64162h8.44013v-.09646ZM98.72043,216.86309c-.02618-1.79044.28897-3.57233.92808-5.24895.5253-1.40943,1.37456-2.67911,2.47338-3.70352.9719-.97605,2.12323-1.74208,3.39265-2.26764,1.28705-.48575,2.64852-.73531,4.01426-.72221,2.83676-.16192,5.60778.88867,7.6216,2.88485,1.85163,1.95236,2.77971,4.83721,2.77971,8.646v1.23442c0,.41575-.10501.82295-.10501,1.13369h-14.5163c.06573,1.27396.76176,2.42956,1.85617,3.08631,1.30015.78367,2.80162,1.18205,4.32514,1.13369,1.13382.00454,2.27192-.10046,3.39265-.31074.95427-.16619,1.88676-.4422,2.77971-.82295l.82749,5.14822c-.43338.20574-.88427.38075-1.33956.5122-.63912.20119-1.29146.33693-1.96117.41575-.71366.10501-1.44029.20574-2.25896.31074-.79235.07882-1.5803.11382-2.36824.10501-1.79485.04382-3.58088-.2712-5.25322-.92795-1.40515-.52957-2.67471-1.37469-3.7078-2.47338-1.02441-1.02441-1.76866-2.30692-2.15382-3.7078-.5253-1.40969-.77044-2.91558-.72676-4.42574M94.50044,216.76236c.00882,1.64589-.27574,3.27869-.82295,4.83721-.50352,1.37469-1.27396,2.63102-2.26764,3.7078-1.04191,1.05086-2.30264,1.86499-3.69911,2.3641-1.58911.5603-3.26132.83604-4.94235.82295-.82735.01737-1.65043-.02191-2.47338-.09646l-2.47338-.31074c-.79235-.08737-1.58911-.22765-2.36396-.41575-.71794-.20146-1.44029-.30647-1.95236-.5122v-31.50144l6.37382-1.02895v11.21984c.73544-.29765,1.4972-.54266,2.26764-.71767.81426-.17955,1.64589-.24956,2.47338-.21028,1.44456-.01309,2.88485.26265,4.22.82749,1.21264.5122,2.27205,1.33061,3.09059,2.36811.85367,1.09441,1.48411,2.35528,1.84735,3.70806.5122,1.59325.76176,3.25678.72235,4.93794M88.01279,216.55662c0-4.12381-1.53661-6.18117-4.52219-6.18117-.65662.01737-1.31324.09191-1.96117.21001-.5297.16646-1.04177.37647-1.54529.61721v11.63132c.40279.09646.82308.12718,1.23896.10527.51207,0,1.02868.10046,1.54529.10046,1.51029.09646,2.97676-.55148,3.90926-1.7509.92795-1.40088,1.39647-3.05559,1.33515-4.7322M67.219,227.25999c-1.12941.30647-2.46469.61721-4.22013.92795-1.76412.29765-3.55897.43338-5.35382.41147-1.61089.07455-3.21323-.17501-4.7322-.72221-1.16441-.44647-2.19764-1.19087-2.98558-2.16264-.73985-.97631-1.26074-2.09691-1.54529-3.29205-.34147-1.37897-.5122-2.79721-.5122-4.22427v-12.55526h6.27763v11.73659c-.09205,1.52352.19251,3.03795.82295,4.42146.5122.92795,1.54529,1.34397,3.09059,1.34397.48161.00855.96309-.02191,1.44029-.10527.5122,0,.92808-.10046,1.33956-.10046v-17.40129h6.37823v21.72202ZM37.77933,227.9822c-.61721-.92795-1.33956-2.05736-2.1625-3.18704-.82749-1.18632-1.72044-2.32001-2.67484-3.40133-.92795-1.12941-1.95236-2.16264-2.98545-3.29205-.97631-.98486-2.0094-1.91736-3.09072-2.77985v12.55526h-6.69338v-29.64554h6.69338v11.22011c1.75116-1.85189,3.50219-3.70352,5.25322-5.76543,1.74662-1.9569,3.39705-3.80853,4.93794-5.45468h7.92793c-2.0575,2.36837-4.01867,4.73675-6.07617,6.89938-2.0575,2.2631-4.22,4.42574-6.48323,6.69338,2.49956,2.12309,4.80662,4.46074,6.89911,6.9953,2.30705,2.85439,4.43455,5.84852,6.38264,8.95674h-7.92793v.20574Z"/><path class="cls-1" d="M91.30925,97.03824l-3.70793.82295c0-.5122-.09632-1.03322-.09632-1.54516-.0175-3.91807,1.05072-7.76615,3.0819-11.11484l7.20999,6.38237c.11823.12718.25383.23219.41147.30647-.44207,1.08132-.71794,2.23264-.82295,3.39705-.20574.10073-.5122.10073-.72235.20574l-5.35382,1.54543ZM105.31335,75.21576v10.08161c-1.0025.31528-1.94808.80558-2.77985,1.44897-.31088-.21001-.61721-.52102-.92808-.72676l-7.31072-5.14368c2.9944-2.98558,6.84674-4.96867,11.01865-5.66015M55.18048,98.4784c3.49778-15.33484,6.47896-28.30585,9.98543-43.6495,1.54529-6.89911,2.5697-8.75074,8.8472-12.35353,8.65028-5.04321,15.13351-8.646,24.39659-13.99969,5.76543-3.29205,6.90366-3.08631,6.90366,4.01426v35.61643c-6.45705.78794-12.43262,3.81307-16.88467,8.54527l-3.08618-2.16264c-.38088-.21883-.64794-.5953-.72235-1.02441-.28897-.97177-.86236-1.83426-1.64602-2.47338-1.45338-1.16441-3.57647-.93249-4.74089.52102-1.15573,1.44897-.93249,3.56325.52089,4.72793.46398.41147,1.02882.70031,1.64162.82722.41588.10073.82295.10073,1.23883.20574.33719.07.64794.21455.92368.41147l2.88058,2.56983c-3.16072,4.67957-4.85043,10.20853-4.83734,15.86013,0,1.02441.10514,2.05736.21014,3.08177l-6.2775,1.33969c-.45529-.00882-.90177.02191-1.34397.10501l-.92368.31074c-4.1194.82295-8.2388,1.74662-12.4588,2.67484-5.66029,1.33515-5.86602.20574-4.6272-5.14822M112.61953,85.29738v-10.08161c4.1369.74412,7.95866,2.67457,11.01424,5.55515l-7.92793,5.6647c-.10514.10073-.20146.20574-.30647.20574-.86236-.56911-1.79485-1.02441-2.77985-1.34397M130.32715,97.13897l-9.8847-2.26337c-.10073-1.06796-.38088-2.11-.82308-3.09059.10514-.10501.21014-.20146.31088-.20146l7.30631-6.48764c2.075,3.37514,3.18691,7.25822,3.19132,11.22011-.08764.26692-.12705.54721-.10073.82295M117.45687,42.68538c5.35823,2.56983,9.16235,4.42146,14.5163,6.99984,7.41573,3.60279,14.82263,7.20558,22.33909,10.70337,1.85176,8.02853,3.7078,16.06159,5.45455,24.08585,1.13382,4.84175,1.6503,7.41559,2.77971,12.15234,1.75116,7.51205,1.54529,8.12926-6.17677,6.38264l-19.04718-4.32527c.0875-.82295.12264-1.64589.10514-2.47338.04369-5.6997-1.68103-11.27221-4.93807-15.95632l2.67911-2.4691c.31956-.27147.70926-.44647,1.12941-.5122,1.0025-.07882,1.96999-.43338,2.77985-1.03296,1.4447-1.16468,1.67662-3.28323.5122-4.73247-1.16441-1.45325-3.28764-1.68089-4.7322-.51648-.52102.38101-.94559.87558-1.23455,1.44015-.21014.41601-.31074.72248-.52089,1.13395-.10514.33265-.32397.62603-.61293.82722l-3.09059,2.15836c-4.47396-4.71484-10.43631-7.73088-16.88013-8.54527v-21.71747c.1006-5.05176.5122-5.66015,4.93794-3.60279M110.8685,107.54015c-.64353.11837-1.29574.19264-1.95236.20146-.62603.01737-1.24337-.01309-1.85617-.10501l-.30647.61721-4.53088,8.34381c2.19323.73985,4.48278,1.12487,6.79411,1.12941,2.34205-.01309,4.67102-.39411,6.89484-1.12941l-4.53088-8.2388c-.20133-.24528-.38088-.52984-.5122-.81867M118.90143,102.08119l9.88042,2.26337c-1.62411,4.00117-4.42146,7.41132-8.03307,9.77969l-3.90912-9.46895c.77044-.78367,1.46206-1.64589,2.06177-2.57411M89.14661,104.24382l9.88042-2.26764c.60839.98486,1.33515,1.88235,2.1625,2.67911l-.30647.61721-3.60279,8.85174c-3.66411-2.37719-6.50514-5.83116-8.13367-9.88042M170.06298,121.64057c-4.7322,5.87043-6.89484,8.64574-11.63145,14.51617-5.35823,6.69338-9.67455,12.14806-15.03278,18.83717-3.80853,4.83721-6.58837,4.94221-12.86587,4.94221h-43.23803c-8.23426,0-8.85147,0-13.89896-6.38264-5.04308-6.28191-8.95234-11.22412-13.89896-17.50175-3.90926-4.93794-4.93807-6.17236-8.8472-11.11911-6.07617-7.61705-7.10939-10.39262,2.36383-12.45453l29.23834-6.58837c2.27192,6.19453,6.59265,11.42585,12.24866,14.8229l-1.33528,3.09059c-.16192.39838-.45529.72221-.82295.92795-.90618.47293-1.62852,1.23442-2.06191,2.16264-.82295,1.67208-.14001,3.69898,1.53661,4.53074,1.67662.82749,3.7078.13573,4.53515-1.54088v-.00428c.28456-.58675.45529-1.21705.52102-1.85617.01309-.41147-.02191-.82749-.10514-1.23442-.035-.3591.03941-.71366.20146-1.03322l1.6503-2.98558c3.25705,1.23014,6.71101,1.86044,10.19116,1.85617,3.52397.02191,7.02175-.64794,10.29617-1.95236l1.64162,2.98558c.22765.36765.30647.80985.21014,1.23442-.17501.97605-.03059,1.98736.4072,2.88031.82295,1.67688,2.85412,2.37291,4.53088,1.55424,1.67662-.82295,2.37265-2.84985,1.5497-4.53101l-.00441-.00855c-.25396-.59557-.63912-1.12086-1.12941-1.54543-.31956-.27574-.66544-.5122-1.03322-.72221-.31074-.17073-.53398-.4772-.61721-.82321l-1.33515-3.29178c5.65588-3.37087,9.94602-8.61955,12.14793-14.82718l32.21951,7.31059c6.48323,1.75116,6.07604,4.01881,2.36824,8.75101"/><path class="cls-1" d="M112.61953,85.29738v-10.08161c4.1369.74412,7.95866,2.67457,11.01424,5.55515l-7.92793,5.6647c-.10514.10073-.20146.20574-.30647.20574-.86236-.56911-1.79485-1.02441-2.77985-1.34397M130.32715,97.13897l-9.8847-2.26337c-.10073-1.06796-.38088-2.11-.82308-3.09059.10514-.10501.21014-.20146.31088-.20146l7.30631-6.48764c2.075,3.37514,3.18691,7.25822,3.19132,11.22011-.08764.26692-.12705.54721-.10073.82295M117.45687,42.68538c5.35823,2.56983,9.16235,4.42146,14.5163,6.99984,7.41573,3.60279,14.82263,7.20558,22.33909,10.70337,1.85176,8.02853,3.7078,16.06159,5.45455,24.08585,1.13382,4.84175,1.6503,7.41559,2.77971,12.15234,1.75116,7.51205,1.54529,8.12926-6.17677,6.38264l-19.04718-4.32527c.0875-.82295.12264-1.64589.10514-2.47338.04369-5.6997-1.68103-11.27221-4.93807-15.95632l2.67911-2.4691c.31956-.27147.70926-.44647,1.12941-.5122,1.0025-.07882,1.96999-.43338,2.77985-1.03296,1.4447-1.16468,1.67662-3.28323.5122-4.73247-1.16441-1.45325-3.28764-1.68089-4.7322-.51648-.52102.38101-.94559.87558-1.23455,1.44015-.21014.41601-.31074.72248-.51648,1.13395-.10955.33265-.32838.62603-.61734.82722l-3.09059,2.15836c-4.47396-4.71484-10.43631-7.73088-16.88013-8.54527v-21.71747c.1006-5.05176.5122-5.66015,4.93794-3.60279M118.90143,102.08119l9.88042,2.26337c-1.62411,4.00117-4.42146,7.41132-8.03307,9.77969l-3.90912-9.46895c.77044-.78367,1.46206-1.64589,2.06177-2.57411M108.91614,117.62176v-9.88015c.65662-.01309,1.30883-.08764,1.95236-.20146.10073.25837.23646.49911.41588.71366l4.52647,8.23854c-2.22823.73557-4.54838,1.11632-6.89471,1.12941M170.06298,121.64057c-4.7322,5.87043-6.89484,8.64574-11.63145,14.51617-5.35823,6.69338-9.67455,12.14806-15.03278,18.83717-3.80853,4.83721-6.58837,4.94221-12.86587,4.94221h-21.51615v-35.30997c3.52397.02191,7.02175-.64794,10.29189-1.95236l1.6503,2.98558c.22765.36765.29778.80985.20574,1.23442-.17501.97605-.035,1.98736.41161,2.88031.82735,1.67688,2.85853,2.35956,4.53088,1.53233,1.67221-.82295,2.36383-2.84557,1.54529-4.51765-.25837-.59557-.64353-1.12086-1.13823-1.54543-.31515-.27574-.66103-.5122-1.02441-.72221-.31515-.17073-.53398-.4772-.61721-.82321l-1.33956-3.29178c5.65147-3.37087,9.95042-8.61955,12.14793-14.82718l32.21951,7.31059c6.2775,1.75116,5.8703,4.01881,2.1625,8.75101"/><path class="cls-3" d="M408.89547,120.40294h-17.09028v39.94598h39.83643v-17.086h-22.74616v-22.85998ZM494.43877,120.50795v22.75497h-22.64542l-.20574-.21001v17.29601h39.94598v-39.94598h-17.19101l.09619.10501ZM391.8052,80.46578h17.19101l-.10073-.10501v-22.75497h22.64997l.09619.21001v-17.29601h-39.83643v39.94598ZM471.58761,40.5198v17.086h22.85116v22.85998h17.09482v-39.94598h-39.94598Z"/><polygon class="cls-2" points="431.6451 103.10987 408.99514 80.4599 391.7034 80.4599 391.7034 120.40588 408.89013 120.40588 408.89013 95.49281 431.6451 118.24325 431.6451 103.10987"/><polygon class="cls-2" points="469.52597 80.46231 446.67481 57.61115 471.58788 57.61115 471.58788 40.5206 431.64617 40.5206 431.64617 57.81234 454.39687 80.46231 469.52597 80.46231"/><polygon class="cls-2" points="448.94112 120.40695 433.80774 120.40695 452.74964 139.34912 456.6589 143.25811 431.6451 143.25811 431.6451 160.34411 471.59108 160.34411 471.59108 143.05692 460.26169 131.72753 448.94112 120.40695"/><polygon class="cls-2" points="494.44144 80.46231 494.44144 105.37992 490.52791 101.46184 471.59028 82.62494 471.59028 97.75832 483.01586 109.07889 494.33644 120.40829 511.52744 120.40829 511.52744 80.46231 494.44144 80.46231"/><path class="cls-3" d="M308.21559,203.88914l-4.32501,5.14795c-1.81235-2.27192-4.5091-3.65516-7.41145-3.80853-4.56588.01763-8.25176,3.73425-8.24308,8.29572,0,.0831.00868.17073.00868.25383,0,4.93794,3.49778,8.64574,8.2344,8.64574,2.83235-.15737,5.48955-1.41397,7.41145-3.49752l4.43014,4.6272c-3.22191,3.2656-7.56896,5.17868-12.14793,5.35823-8.85601,0-15.44439-6.48791-15.44439-15.13364,0-8.54955,6.7897-14.93218,15.75072-14.93218,4.40396.16646,8.58455,1.96572,11.73646,5.04321M311.81839,197.40578h7.31072v31.19497h-7.31072v-31.19497ZM348.05657,217.2759c0,6.99984-4.94676,11.63586-12.3538,11.63586-7.41559,0-12.45867-4.63601-12.45867-11.63586,0-7.00439,4.94235-11.53085,12.45867-11.53085,7.40704,0,12.3538,4.52647,12.3538,11.53085M330.55469,217.3809c0,3.49778,2.0575,5.86162,5.04308,5.86162s5.04308-2.36383,5.04308-5.86162c0-3.50633-2.0575-5.87043-5.04308-5.87043s-5.04308,2.3641-5.04308,5.87043M374.10346,228.60075h-7.31059v-3.7078c-1.5147,2.63102-4.38205,4.18954-7.41573,4.01881-4.93794,0-8.13367-3.4016-8.13367-8.65028v-14.30616h7.31072v12.24425c0,2.67911,1.44015,4.32955,3.80853,4.32955,2.77971,0,4.43014-2.26764,4.43014-5.35823v-11.21557h7.31059v22.64542ZM402.72018,228.60075h-7.31059v-2.98986c-1.61543,2.11427-4.1369,3.34014-6.79865,3.30087-6.37809,0-10.59823-4.74102-10.59823-11.74086,0-6.89938,4.11499-11.52631,10.39703-11.52631,2.72721-.11382,5.34514,1.11632,6.99984,3.29632v-11.53513h7.31059v31.19497ZM395.40959,217.3809c0-3.50633-2.05763-5.87043-5.04321-5.87043s-5.04735,2.3641-5.04735,5.87043c0,3.49778,2.06177,5.96662,5.04735,5.96662,3.08631-.10501,5.04321-2.46884,5.04321-5.96662M429.37987,228.60075l-13.59249-18.11896v18.11896h-6.99557v-29.44381h6.58837l13.58822,18.22396v-18.22396h6.99557v29.44381h-6.5841ZM461.90598,213.77811v14.82263h-7.10058v-2.57384c-1.44042,1.95663-3.90926,2.98531-6.89484,2.98531-4.83721,0-7.82279-2.98531-7.82279-7.10485,0-4.32501,3.09059-6.79411,8.75074-6.89484h5.96689v-.31074c0-2.2631-1.44042-3.60279-4.42146-3.60279-2.36837.14455-4.68411.77485-6.79838,1.85163l-2.05763-4.84148c3.2525-1.65471,6.84674-2.53483,10.49763-2.56983,6.27763.10527,9.88042,3.19132,9.88042,8.2388M454.8054,220.98369v-2.05736h-4.63174c-2.15809,0-3.29632.7134-3.29632,2.46456,0,1.65043,1.13823,2.67911,3.19586,2.67911,2.09237.14001,4.01854-1.11632,4.7322-3.08631M481.5701,227.46706c-1.86472,1.0025-3.94853,1.53207-6.07163,1.54516-4.42574,0-7.51632-2.47338-7.51632-7.20986v-9.98543h-3.18704v-4.7322h3.18704v-6.27763h7.20986v6.27763h5.97116v4.83721h-5.97116v8.85174c0,1.75544.71794,2.57384,2.05763,2.46884.96295-.07428,1.89972-.32383,2.7753-.7134l1.54516,4.93794ZM492.68948,199.46314c.08764,2.075-1.52779,3.83044-3.61161,3.9138h-.19692c-2.12763-.02645-3.83498-1.77735-3.80425-3.9138.02618-2.08809,1.71162-3.7778,3.80425-3.80398,1.99618-.10955,3.70352,1.42252,3.80853,3.41896.00882.12692.00882.25811,0,.38502M485.17315,205.95532h7.20558v22.64997h-7.20558v-22.64997ZM503.70786,228.60075l-8.54955-22.64542h7.51659l4.83721,16.05278,4.94248-16.05278h7.20558l-8.54527,22.64542h-7.40704ZM543.7503,219.2328h-15.95659c.5253,2.52147,2.77985,4.29882,5.35395,4.22,2.04-.04382,3.98808-.8494,5.45442-2.26764l3.81307,3.7078c-2.56102,2.7053-6.16381,4.17191-9.88924,4.01881-7.40678,0-12.04279-4.63601-12.04279-11.53085,0-7.00412,4.83721-11.63586,11.8416-11.63586,7.9278,0,11.83705,5.25322,11.42558,13.48775M536.75045,215.32354c.20119-2.35528-1.54088-4.42146-3.89189-4.62292-.17501-.01737-.35884-.01737-.53385-.01309-2.57411,0-4.22027,1.85163-4.73675,4.63601h9.16248ZM573.40011,203.88914l-4.32527,5.14795c-1.81235-2.27192-4.50883-3.65516-7.41132-3.80853-4.56574.01763-8.2519,3.73425-8.24308,8.29572,0,.0831.00882.17073.00882.25383,0,4.93794,3.50206,8.64574,8.23426,8.64574,2.83248-.15737,5.48969-1.41397,7.41132-3.49752l4.43028,4.6272c-3.22204,3.2656-7.56468,5.17868-12.14806,5.35823-8.85601,0-15.44412-6.48791-15.44412-15.13364,0-8.54955,6.79838-14.93218,15.75059-14.93218,4.39955.18383,8.57573,1.98308,11.73659,5.04321M598.82965,217.2759c0,6.99984-4.94676,11.63586-12.35353,11.63586-7.41586,0-12.4588-4.63601-12.4588-11.63586,0-7.00439,4.94221-11.53085,12.4588-11.53085,7.40678,0,12.35353,4.52647,12.35353,11.53085M581.42863,217.3809c0,3.49778,2.06191,5.86162,5.04749,5.86162s5.04294-2.36383,5.04294-5.86162c0-3.50633-2.05736-5.87043-5.04294-5.87043s-5.04749,2.3641-5.04749,5.87043M625.90108,214.29032v14.31043h-7.20558v-12.25307c0-2.67457-1.54543-4.32501-4.01426-4.32501-2.67911,0-4.32955,1.85189-4.63147,4.63601v12.04279h-7.31085v-22.64997h7.31085v3.70806c1.60207-2.63984,4.53074-4.18526,7.61251-4.01453,4.94676-.10046,8.2388,3.29205,8.2388,8.54527"/><rect class="cls-3" x="241.81994" y="27.23885" width="1.03309" height="209.49195"/><rect class="cls-3" x="241.81994" y="27.23885" width="1.03309" height="209.49195"/><rect class="cls-3" x="241.81994" y="27.23885" width="1.03309" height="209.49195"/><rect class="cls-3" x="241.81994" y="27.23885" width="1.03309" height="209.49195"/><rect class="cls-3" x="241.81994" y="27.24313" width="1.02441" height="209.48768"/><rect class="cls-3" x="12.68978" y="273.47238" width="179.08933" height="1.03322"/><rect class="cls-3" x="12.68978" y="273.47238" width="179.08933" height="1.03322"/><rect class="cls-3" x="12.68978" y="273.47238" width="179.08933" height="1.02868"/><rect class="cls-3" x="457.31806" y="273.47238" width="179.09374" height="1.03322"/><rect class="cls-3" x="457.31806" y="273.47238" width="179.09374" height="1.03322"/><rect class="cls-3" x="457.3226" y="273.47238" width="179.0892" height="1.02868"/><polygon class="cls-3" points="217.43738 264.15386 217.43738 267.96238 229.39707 267.96238 229.39707 273.40825 217.43738 273.40825 217.43738 277.71589 230.6053 277.71589 230.6053 283.16149 211.35239 283.16149 211.35239 258.70799 230.6053 258.70799 230.6053 264.15386 217.43738 264.15386"/><path class="cls-3" d="M252.74828,264.75904v18.39924h-6.01485v-2.06191c-1.14264,1.53207-3.05999,2.49529-5.37145,2.49529-3.98794,0-6.80279-2.9594-6.80279-7.12676v-11.70586h5.8047v10.35762c0,2.02664,1.27837,3.45397,3.13,3.45397,1.85176,0,3.23955-1.39233,3.23955-3.20895v-10.60264h6.01485Z"/><path class="cls-3" d="M269.44418,264.33234v5.02104c-3.73411,0-6.05426,2.13645-6.05426,5.51587v8.29572h-6.01057v-18.40806h6.01057v3.34896c1.21692-2.31574,3.38396-3.77352,6.05426-3.77352"/><path class="cls-3" d="M271.86987,273.9421c0-5.30132,4.58779-9.60896,10.24807-9.60896,5.62088,0,10.17794,4.30764,10.17794,9.60896s-4.55706,9.64396-10.17794,9.64396c-5.66029,0-10.24807-4.34264-10.24807-9.64396M286.56559,273.9421c0-2.52601-1.99177-4.5922-4.44765-4.5922-2.49088,0-4.52219,2.06618-4.52219,4.5922s2.03131,4.6272,4.52219,4.6272c2.45588,0,4.44765-2.10118,4.44765-4.6272"/><path class="cls-3" d="M316.22007,273.9421c0,5.66042-3.52397,9.64396-8.43572,9.64396-2.49515,0-4.59647-1.03322-6.05426-2.80603v8.50573h-6.01044v-24.5235h6.01044v2.38146c1.45779-1.78189,3.5591-2.81057,6.05426-2.81057,4.91175,0,8.43572,3.98808,8.43572,9.60896M310.41537,273.9421c0-2.6703-1.84735-4.5922-4.48706-4.5922-2.45147,0-4.19822,1.9219-4.19822,4.5922,0,2.70102,1.74675,4.6272,4.19822,4.6272,2.6397,0,4.48706-1.92617,4.48706-4.6272"/><path class="cls-3" d="M332.80536,277.36133l3.34455,3.37969c-1.63293,1.67208-4.76734,2.84531-7.54277,2.84531-5.69529,0-10.00279-4.01854-10.00279-9.67896,0-5.59015,4.16309-9.57369,9.71396-9.57369,5.83971,0,9.39881,4.15855,9.39881,11.14102h-13.41748c.46398,2.10118,1.95677,3.52397,4.05808,3.52397,1.56279,0,3.23941-.64794,4.44765-1.63734M324.36964,272.09074h7.58205c-.42456-1.8869-1.71162-3.16513-3.59397-3.16513-1.9569,0-3.41896,1.24324-3.98808,3.16513"/><path class="cls-3" d="M349.85703,278.21393l9.04425-6.76338c2.73603-2.06191,3.51956-3.41469,3.51956-4.91175,0-1.67234-1.45779-2.74057-3.23941-2.74057-2.28073,0-3.98367,1.10323-5.83543,3.06013l-3.80853-3.77352c2.60029-3.13441,5.76529-4.80675,9.78837-4.80675,5.48087,0,9.3244,3.34896,9.3244,8.01116,0,3.23941-1.35265,5.76543-5.62529,8.68528l-3.84353,2.74484h9.71396v5.44133h-19.03836v-4.94676Z"/><path class="cls-3" d="M372.17969,270.91724c0-7.4025,4.6622-12.63381,11.24175-12.63381,6.62351,0,11.28116,5.23131,11.28116,12.63381,0,7.4375-4.65766,12.67336-11.28116,12.67336-6.57955,0-11.24175-5.23586-11.24175-12.67336M388.44261,270.91724c0-4.16763-2.06191-7.11794-5.02117-7.11794-2.91985,0-4.98176,2.95031-4.98176,7.11794s2.06191,7.15749,4.98176,7.15749c2.95926,0,5.02117-2.98986,5.02117-7.15749"/><path class="cls-3" d="M397.80575,278.21393l9.04412-6.76338c2.73603-2.06191,3.51969-3.41469,3.51969-4.91175,0-1.67234-1.45779-2.74057-3.23941-2.74057-2.28073,0-3.9838,1.10323-5.83543,3.06013l-3.80853-3.77352c2.60029-3.13441,5.76543-4.80675,9.78851-4.80675,5.4806,0,9.3244,3.34896,9.3244,8.01116,0,3.23941-1.35278,5.76543-5.62542,8.68528l-3.84353,2.74484h9.71396v5.44133h-19.03836v-4.94676Z"/><path class="cls-3" d="M419.76877,279.92154l3.48897-4.30764c1.85163,1.63734,4.05808,2.74057,6.26454,2.74057,2.56075,0,3.98354-1.42279,3.98354-3.16513,0-1.81663-1.49279-3.02486-3.90926-3.02486-1.75116,0-3.27896.56885-4.52647,1.52779l-4.02308-1.56734.3591-13.41748h16.83618v5.44587h-11.24603l-.14455,4.45192c1.17777-.85367,2.70557-1.42706,4.6622-1.42706,4.27264,0,8.07689,2.77985,8.07689,7.79661,0,5.30132-3.9488,8.65028-10.10807,8.65028-4.19809,0-7.3325-1.42279-9.71396-3.70352"/></svg>