<?xml version="1.0" encoding="utf-8"?>
<!-- Generator: Adobe Illustrator 28.4.1, SVG Export Plug-In . SVG Version: 6.00 Build 0)  -->
<svg version="1.1" id="Layer_1" xmlns="http://www.w3.org/2000/svg" xmlns:xlink="http://www.w3.org/1999/xlink" x="0px" y="0px"
	 width="400px" height="245px" viewBox="0 0 400 245" style="enable-background:new 0 0 400 245;" xml:space="preserve">
<style type="text/css">
	.Drop_x0020_Shadow{fill:none;}
	.Round_x0020_Corners_x0020_2_x0020_pt{fill:#FFFFFF;stroke:#231F20;stroke-miterlimit:10;}
	.Live_x0020_Reflect_x0020_X{fill:none;}
	.Bevel_x0020_Soft{fill:url(#SVGID_1_);}
	.Dusk{fill:#FFFFFF;}
	.Foliage_GS{fill:#FFDD00;}
	.Pompadour_GS{fill-rule:evenodd;clip-rule:evenodd;fill:#44ADE2;}
	.st0{fill:#111245;}
	.st1{fill-rule:evenodd;clip-rule:evenodd;fill:#111245;}
	.st2{opacity:0.8;}
	.st3{clip-path:url(#SVGID_00000119076233991507326370000015314653888492570017_);}
	.st4{fill-rule:evenodd;clip-rule:evenodd;}
	.st5{clip-path:url(#SVGID_00000052070011760560044460000007150636567814712998_);}
	.st6{fill:#FFFFFF;}
	.st7{fill-rule:evenodd;clip-rule:evenodd;fill:#FFFFFF;}
	.st8{clip-path:url(#SVGID_00000019646298222367881740000004192247100315642541_);}
</style>
<linearGradient id="SVGID_1_" gradientUnits="userSpaceOnUse" x1="0" y1="-265" x2="0.7071" y2="-264.2929">
	<stop  offset="0" style="stop-color:#DEDFE3"/>
	<stop  offset="0.1783" style="stop-color:#DADBDF"/>
	<stop  offset="0.3611" style="stop-color:#CECFD3"/>
	<stop  offset="0.546" style="stop-color:#B9BCBF"/>
	<stop  offset="0.7324" style="stop-color:#9CA0A2"/>
	<stop  offset="0.9181" style="stop-color:#787D7E"/>
	<stop  offset="1" style="stop-color:#656B6C"/>
</linearGradient>
<g>
	<path class="st6" d="M106.6,154c0.7-0.2,1.6-0.4,2.8-0.6c1.2-0.2,2.3-0.3,3.5-0.3c1,0,2.1,0.1,3.1,0.5c0.8,0.3,1.4,0.8,1.9,1.4
		c0.5,0.6,0.8,1.4,1,2.1c0.2,0.9,0.3,1.8,0.3,2.8v8.3h-4.1v-7.9c0.1-1-0.1-1.9-0.5-2.8c-0.3-0.5-1-0.8-2-0.8c-0.3,0-0.6,0-0.9,0.1
		c-0.3,0-0.6,0.1-0.9,0.1v11.3h-4.2C106.6,168.2,106.6,154,106.6,154z M99,160.8c0-1.1-0.2-2.1-0.7-3c-1-1.2-2.7-1.4-4-0.5
		c-0.2,0.1-0.3,0.3-0.5,0.5c-0.6,0.9-0.9,2-0.8,3c0,1.1,0.2,2.2,0.8,3.1c0.9,1.2,2.6,1.5,3.8,0.6c0.2-0.2,0.5-0.4,0.6-0.6
		C98.7,163,99,161.9,99,160.8 M103.2,160.8c0,1.1-0.1,2.1-0.5,3.2c-0.3,0.9-0.8,1.8-1.5,2.5c-1.3,1.5-3.3,2.2-5.2,2.1
		c-1,0-2-0.2-3-0.5c-0.9-0.4-1.6-0.9-2.3-1.6c-0.7-0.7-1.2-1.6-1.5-2.5c-0.7-2-0.7-4.3,0-6.3c0.3-0.9,0.8-1.7,1.5-2.4
		c0.6-0.7,1.4-1.2,2.3-1.5c0.9-0.4,1.9-0.6,2.9-0.5c1,0,2,0.2,2.9,0.5c0.8,0.4,1.6,0.9,2.3,1.5c0.6,0.7,1.1,1.5,1.5,2.4
		C103,158.7,103.2,159.7,103.2,160.8 M80.6,168.6c-3.2,0-5.6-0.9-7.2-2.6c-1.7-1.7-2.5-4.2-2.5-7.5c0-1.5,0.2-2.9,0.7-4.3
		c0.9-2.4,2.8-4.3,5.2-5.1c1.3-0.5,2.6-0.7,4-0.7c0.7,0,1.5,0.1,2.2,0.2c0.7,0.1,1.3,0.3,1.7,0.4c0.4,0.1,0.9,0.3,1.3,0.5
		c0.3,0.1,0.5,0.2,0.7,0.4l-1.3,3.5c-0.7-0.4-1.4-0.6-2.1-0.8c-0.9-0.2-1.8-0.3-2.7-0.3c-0.7,0-1.3,0.1-1.9,0.3s-1.2,0.6-1.7,1.1
		c-0.5,0.6-0.9,1.2-1.2,1.9c-0.3,0.9-0.5,1.9-0.5,2.8c0,0.8,0.1,1.7,0.3,2.5c0.2,0.7,0.5,1.4,0.9,2c0.5,0.6,1.1,1,1.7,1.3
		c0.8,0.3,1.7,0.5,2.6,0.5c0.6,0,1.1-0.1,1.7-0.1c0.5,0,0.9-0.1,1.3-0.3c0.3-0.1,0.7-0.2,1-0.3s0.5-0.3,0.8-0.3l1.2,3.5
		c-0.8,0.5-1.7,0.8-2.6,1C83.1,168.5,81.9,168.6,80.6,168.6 M64,159.4c0-0.3-0.1-0.7-0.2-1c-0.1-0.3-0.3-0.6-0.5-0.9
		c-0.2-0.3-0.5-0.5-0.8-0.7c-0.4-0.2-0.8-0.3-1.2-0.3s-0.8,0.1-1.2,0.3c-0.3,0.1-0.6,0.3-0.8,0.6s-0.4,0.6-0.5,0.9
		c-0.1,0.3-0.2,0.7-0.3,1.1L64,159.4L64,159.4z M54.2,160.9c0-1.2,0.2-2.3,0.6-3.4c0.3-0.9,0.9-1.7,1.6-2.4c0.6-0.6,1.4-1.1,2.2-1.5
		c0.8-0.3,1.7-0.5,2.6-0.5c1.8-0.1,3.7,0.6,5,1.9c1.2,1.3,1.8,3.2,1.8,5.6v0.8c0,0.3-0.1,0.5-0.1,0.7h-9.5c0,0.8,0.5,1.6,1.2,2
		c0.8,0.5,1.8,0.8,2.8,0.7c0.7,0,1.5-0.1,2.2-0.2c0.6-0.1,1.2-0.3,1.8-0.5l0.5,3.4c-0.3,0.1-0.6,0.2-0.9,0.3
		c-0.4,0.1-0.8,0.2-1.3,0.3s-0.9,0.1-1.5,0.2c-0.5,0.1-1,0.1-1.5,0.1c-1.2,0-2.3-0.2-3.4-0.6c-0.9-0.3-1.7-0.9-2.4-1.6
		c-0.7-0.7-1.2-1.5-1.4-2.4C54.4,162.9,54.2,161.9,54.2,160.9 M51.5,160.9c0,1.1-0.2,2.1-0.5,3.2c-0.3,0.9-0.8,1.7-1.5,2.4
		s-1.5,1.2-2.4,1.5c-1,0.4-2.1,0.5-3.2,0.5c-0.5,0-1.1,0-1.6-0.1l-1.6-0.2c-0.5-0.1-1-0.1-1.5-0.3c-0.5-0.1-0.9-0.2-1.3-0.3v-20.5
		l4.1-0.6v7.3c0.5-0.2,1-0.4,1.5-0.5s1.1-0.2,1.6-0.1c0.9,0,1.9,0.2,2.8,0.5c0.8,0.3,1.5,0.9,2,1.5c0.6,0.7,1,1.5,1.2,2.4
		C51.4,158.7,51.5,159.8,51.5,160.9 M47.3,160.7c0-2.7-1-4-3-4c-0.4,0-0.9,0.1-1.3,0.1c-0.3,0.1-0.7,0.2-1,0.4v7.6
		c0.3,0.1,0.5,0.1,0.8,0.1s0.7,0.1,1,0.1c1,0.1,1.9-0.4,2.6-1.1C47,162.9,47.3,161.8,47.3,160.7 M33.7,167.7
		c-0.7,0.2-1.6,0.4-2.8,0.6c-1.2,0.2-2.3,0.3-3.5,0.3c-1.1,0-2.1-0.1-3.1-0.5c-0.8-0.3-1.4-0.8-1.9-1.4c-0.5-0.6-0.8-1.4-1-2.1
		c-0.2-0.9-0.3-1.8-0.3-2.8v-8.2h4.1v7.7c-0.1,1,0.1,2,0.5,2.9c0.3,0.6,1,0.9,2,0.9c0.3,0,0.6,0,0.9-0.1c0.3,0,0.6-0.1,0.9-0.1
		v-11.3h4.2V167.7z M14.5,168.2c-0.4-0.6-0.9-1.3-1.4-2.1s-1.1-1.5-1.7-2.2c-0.6-0.7-1.3-1.4-1.9-2.1c-0.6-0.6-1.3-1.2-2-1.8v8.2H3
		v-19.3h4.4v7.3c1.1-1.2,2.3-2.4,3.4-3.8c1.1-1.3,2.2-2.5,3.2-3.6h5.2c-1.3,1.5-2.6,3.1-4,4.5c-1.3,1.5-2.8,2.9-4.2,4.4
		c1.6,1.4,3.1,2.9,4.5,4.6c1.5,1.9,2.9,3.8,4.2,5.8h-5.2L14.5,168.2z"/>
	<path class="st7" d="M49.4,82.8L47,83.4c0-0.3-0.1-0.7-0.1-1c0-2.6,0.7-5.1,2-7.2l4.7,4.2c0.1,0.1,0.2,0.2,0.3,0.2
		c-0.3,0.7-0.5,1.5-0.5,2.2c-0.1,0.1-0.3,0.1-0.5,0.1L49.4,82.8z M58.5,68.6v6.6c-0.7,0.2-1.3,0.5-1.8,0.9c-0.2-0.1-0.4-0.3-0.6-0.5
		l-4.8-3.4C53.3,70.3,55.8,69,58.5,68.6 M25.9,83.8c2.3-10,4.2-18.5,6.5-28.5c1-4.5,1.7-5.7,5.8-8.1c5.6-3.3,9.9-5.6,15.9-9.1
		c3.8-2.1,4.5-2,4.5,2.6v23.2c-4.2,0.5-8.1,2.5-11,5.6l-2-1.4c-0.2-0.1-0.4-0.4-0.5-0.7c-0.2-0.6-0.6-1.2-1.1-1.6
		c-0.9-0.8-2.3-0.6-3.1,0.3s-0.6,2.3,0.3,3.1c0.3,0.3,0.7,0.5,1.1,0.5c0.3,0.1,0.5,0.1,0.8,0.1c0.2,0,0.4,0.1,0.6,0.3l1.9,1.7
		c-2.1,3.1-3.2,6.7-3.2,10.3c0,0.7,0.1,1.3,0.1,2L38.4,85c-0.3,0-0.6,0-0.9,0.1L37,85.4c-2.7,0.5-5.4,1.1-8.1,1.7
		C25.2,88,25,87.2,25.9,83.8 M63.3,75.2v-6.6c2.7,0.5,5.2,1.7,7.2,3.6l-5.2,3.7C65.2,76,65.2,76,65.1,76
		C64.6,75.7,64,75.4,63.3,75.2 M74.9,82.9l-6.4-1.5c-0.1-0.7-0.2-1.4-0.5-2c0.1-0.1,0.1-0.1,0.2-0.1l4.8-4.2
		c1.4,2.2,2.1,4.7,2.1,7.3C74.9,82.5,74.8,82.7,74.9,82.9 M66.5,47.4c3.5,1.7,6,2.9,9.5,4.6c4.8,2.3,9.7,4.7,14.6,7
		c1.2,5.2,2.4,10.5,3.6,15.7c0.7,3.2,1.1,4.8,1.8,7.9c1.1,4.9,1,5.3-4,4.2L79.6,84c0.1-0.5,0.1-1.1,0.1-1.6c0-3.7-1.1-7.4-3.2-10.4
		l1.7-1.6c0.2-0.2,0.5-0.3,0.7-0.3c0.7,0,1.3-0.3,1.8-0.7c0.9-0.8,1.1-2.1,0.3-3.1c-0.8-0.9-2.1-1.1-3.1-0.3l0,0
		c-0.3,0.2-0.6,0.6-0.8,0.9c-0.1,0.3-0.2,0.5-0.3,0.7c-0.1,0.2-0.2,0.4-0.4,0.5l-2,1.4c-2.9-3.1-6.8-5-11-5.6V49.7
		C63.3,46.4,63.6,46,66.5,47.4 M62.2,89.7c-0.4,0.1-0.8,0.1-1.3,0.1c-0.4,0-0.8,0-1.2-0.1l-0.2,0.4l-3,5.4c1.4,0.5,2.9,0.7,4.4,0.7
		s3-0.3,4.5-0.7l-3-5.4C62.4,90,62.3,89.9,62.2,89.7 M67.4,86.1l6.4,1.5c-1.1,2.6-2.9,4.8-5.2,6.4L66,87.8
		C66.6,87.3,67,86.7,67.4,86.1 M48,87.5l6.4-1.5c0.4,0.6,0.9,1.2,1.4,1.7l-0.2,0.4l-2.3,5.8C50.9,92.4,49.1,90.2,48,87.5
		 M100.8,98.9c-3.1,3.8-4.5,5.6-7.6,9.5c-3.5,4.4-6.3,7.9-9.8,12.3c-2.5,3.2-4.3,3.2-8.4,3.2H46.8c-5.4,0-5.8,0-9.1-4.2
		c-3.3-4.1-5.8-7.3-9.1-11.4c-2.6-3.2-3.2-4-5.8-7.2c-4-5-4.6-6.8,1.5-8.1l19.1-4.3c1.5,4,4.3,7.4,8,9.7l-0.9,2
		c-0.1,0.3-0.3,0.5-0.5,0.6c-0.6,0.3-1.1,0.8-1.3,1.4c-0.5,1.1-0.1,2.4,1,3c1.1,0.5,2.4,0.1,3-1l0,0c0.2-0.4,0.3-0.8,0.3-1.2
		c0-0.3,0-0.5-0.1-0.8c0-0.2,0-0.5,0.1-0.7l1.1-1.9c2.1,0.8,4.4,1.2,6.6,1.2c2.3,0,4.6-0.4,6.7-1.3l1.1,1.9c0.1,0.2,0.2,0.5,0.1,0.8
		c-0.1,0.6,0,1.3,0.3,1.9c0.5,1.1,1.9,1.5,3,1s1.5-1.9,1-3l0,0c-0.2-0.4-0.4-0.7-0.7-1c-0.2-0.2-0.4-0.3-0.7-0.5
		c-0.2-0.1-0.3-0.3-0.4-0.5l-0.9-2.1c3.7-2.2,6.5-5.6,7.9-9.7l21,4.8C103.5,94.3,103.2,95.8,100.8,98.9"/>
	<path class="st7" d="M63.3,75.2v-6.6c2.7,0.5,5.2,1.7,7.2,3.6l-5.2,3.7C65.2,76,65.2,76,65.1,76C64.6,75.7,64,75.4,63.3,75.2
		 M74.9,82.9l-6.4-1.5c-0.1-0.7-0.2-1.4-0.5-2c0.1-0.1,0.1-0.1,0.2-0.1l4.8-4.2c1.4,2.2,2.1,4.7,2.1,7.3
		C74.9,82.5,74.8,82.7,74.9,82.9 M66.5,47.4c3.5,1.7,6,2.9,9.5,4.6c4.8,2.3,9.7,4.7,14.6,7c1.2,5.2,2.4,10.5,3.6,15.7
		c0.7,3.2,1.1,4.8,1.8,7.9c1.1,4.9,1,5.3-4,4.2L79.6,84c0.1-0.5,0.1-1.1,0.1-1.6c0-3.7-1.1-7.4-3.2-10.4l1.7-1.6
		c0.2-0.2,0.5-0.3,0.7-0.3c0.7,0,1.3-0.3,1.8-0.7c0.9-0.8,1.1-2.1,0.3-3.1c-0.8-0.9-2.1-1.1-3.1-0.3l0,0c-0.3,0.2-0.6,0.6-0.8,0.9
		c-0.1,0.3-0.2,0.5-0.3,0.7c-0.1,0.2-0.2,0.4-0.4,0.5l-2,1.4c-2.9-3.1-6.8-5-11-5.6V49.7C63.3,46.4,63.6,46,66.5,47.4 M67.4,86.1
		l6.4,1.5c-1.1,2.6-2.9,4.8-5.2,6.4L66,87.8C66.6,87.3,67,86.7,67.4,86.1 M60.9,96.2v-6.4c0.4,0,0.9-0.1,1.3-0.1
		c0.1,0.2,0.2,0.3,0.3,0.5l3,5.4C63.9,96,62.4,96.2,60.9,96.2 M100.8,98.9c-3.1,3.8-4.5,5.6-7.6,9.5c-3.5,4.4-6.3,7.9-9.8,12.3
		c-2.5,3.2-4.3,3.2-8.4,3.2H61v-23c2.3,0,4.6-0.4,6.7-1.3l1.1,1.9c0.1,0.2,0.2,0.5,0.1,0.8c-0.1,0.6,0,1.3,0.3,1.9
		c0.5,1.1,1.9,1.5,3,1s1.5-1.9,1-2.9c-0.2-0.4-0.4-0.7-0.7-1c-0.2-0.2-0.4-0.3-0.7-0.5c-0.2-0.1-0.3-0.3-0.4-0.5l-0.9-2.1
		c3.7-2.2,6.5-5.6,7.9-9.7l21,4.8C103.5,94.3,103.2,95.8,100.8,98.9"/>
	<path class="st6" d="M256.5,98.1h-11.1v26h26V113h-14.8C256.5,113,256.5,98.1,256.5,98.1z M312.3,98.1v14.8h-14.8l-0.1-0.1v11.3h26
		v-26L312.3,98.1L312.3,98.1z M245.3,72h11.2l-0.1-0.1V57.1h14.8l0.1,0.1V46h-26C245.3,46,245.3,72,245.3,72z M297.4,46v11.1h14.9
		V72h11.1V46H297.4z"/>
	<g class="st2">
		<path class="st6" d="M296,72l-14.9-14.9h16.2V46h-26v11.3l14.8,14.8C286.2,72,296,72,296,72z M282.6,98.1h-9.9l12.4,12.4l2.6,2.6
			h-16.3v11.1h26v-11.3l-7.4-7.4L282.6,98.1z M312.3,72v16.2l-2.6-2.6l-12.4-12.3v9.9l7.5,7.4l7.4,7.4h11.2V72H312.3z M271.3,86.8
			L256.5,72h-11.3v26h11.2V81.8l14.8,14.8v-9.8H271.3z"/>
	</g>
	<path class="st6" d="M190.8,152.5l-2.8,3.4c-1.2-1.5-2.9-2.4-4.8-2.5c-3,0-5.4,2.4-5.4,5.4c0,0.1,0,0.1,0,0.2
		c0,3.2,2.3,5.6,5.4,5.6c1.8-0.1,3.6-0.9,4.8-2.3l2.9,3c-2.1,2.1-4.9,3.4-7.9,3.5c-5.8,0-10.1-4.2-10.1-9.9c0-5.6,4.4-9.7,10.3-9.7
		C186.1,149.3,188.8,150.5,190.8,152.5L190.8,152.5z M193.2,168.6v-20.3h4.8v20.3H193.2z M216.8,161.2c0,4.6-3.2,7.6-8.1,7.6
		s-8.1-3-8.1-7.6s3.2-7.5,8.1-7.5S216.8,156.7,216.8,161.2L216.8,161.2z M205.4,161.3c0,2.3,1.3,3.8,3.3,3.8c1.9,0,3.3-1.5,3.3-3.8
		s-1.3-3.8-3.3-3.8C206.8,157.5,205.4,159,205.4,161.3L205.4,161.3z M233.8,168.6H229v-2.4c-1,1.7-2.9,2.7-4.8,2.6
		c-3.2,0-5.3-2.2-5.3-5.6v-9.3h4.8v8c0,1.7,0.9,2.8,2.5,2.8c1.8,0,2.9-1.5,2.9-3.5v-7.3h4.8L233.8,168.6L233.8,168.6z M252.5,168.6
		h-4.8v-1.9c-1.1,1.4-2.7,2.2-4.4,2.1c-4.2,0-6.9-3.1-6.9-7.7c0-4.5,2.7-7.5,6.8-7.5c1.8-0.1,3.5,0.7,4.6,2.1v-7.5h4.8v20.4H252.5z
		 M247.7,161.3c0-2.3-1.3-3.8-3.3-3.8c-1.9,0-3.3,1.5-3.3,3.8s1.3,3.9,3.3,3.9C246.4,165.1,247.7,163.6,247.7,161.3z M269.8,168.6
		l-8.9-11.8v11.8h-4.6v-19.2h4.3l8.9,11.9v-11.9h4.6v19.2H269.8z M291.1,158.9v9.7h-4.6v-1.7c-0.9,1.3-2.6,1.9-4.5,1.9
		c-3.2,0-5.1-1.9-5.1-4.6c0-2.8,2-4.4,5.7-4.5h3.9v-0.2c0-1.5-0.9-2.3-2.9-2.3c-1.5,0.1-3.1,0.5-4.4,1.2l-1.3-3.2
		c2.1-1.1,4.5-1.7,6.8-1.7C288.7,153.6,291.1,155.6,291.1,158.9z M286.4,163.6v-1.3h-3c-1.4,0-2.1,0.5-2.1,1.6s0.7,1.7,2.1,1.7
		C284.7,165.7,286,164.9,286.4,163.6z M303.9,167.9c-1.2,0.7-2.6,1-4,1c-2.9,0-4.9-1.6-4.9-4.7v-6.5h-2.1v-3.1h2.1v-4.1h4.7v4.1h3.9
		v3.2h-3.9v5.8c0,1.1,0.5,1.7,1.3,1.6c0.6-0.1,1.2-0.2,1.8-0.5L303.9,167.9z M311.1,149.6c0.1,1.4-1,2.5-2.4,2.5h-0.1
		c-1.4,0-2.5-1.2-2.5-2.6c0-1.4,1.1-2.5,2.5-2.5c1.3-0.1,2.4,0.9,2.5,2.2C311.1,149.4,311.1,149.5,311.1,149.6L311.1,149.6z
		 M306.2,168.6v-14.8h4.7v14.8H306.2z M318.3,168.6l-5.6-14.8h4.9l3.2,10.5l3.2-10.5h4.7l-5.6,14.8H318.3z M344.4,162.5H334
		c0.3,1.6,1.8,2.8,3.5,2.8c1.3,0,2.6-0.6,3.6-1.5l2.5,2.4c-1.7,1.8-4,2.7-6.4,2.6c-4.8,0-7.9-3-7.9-7.5c0-4.6,3.2-7.6,7.7-7.6
		C342.1,153.7,344.7,157.1,344.4,162.5L344.4,162.5z M339.9,159.9c0.1-1.5-1-2.9-2.5-3c-0.1,0-0.2,0-0.3,0c-1.7,0-2.8,1.2-3.1,3
		H339.9z M363.8,152.5l-2.8,3.4c-1.2-1.5-2.9-2.4-4.8-2.5c-3,0-5.4,2.4-5.4,5.4c0,0.1,0,0.1,0,0.2c0,3.2,2.3,5.6,5.4,5.6
		c1.8-0.1,3.6-0.9,4.8-2.3l2.9,3c-2.1,2.1-4.9,3.4-7.9,3.5c-5.8,0-10.1-4.2-10.1-9.9c0-5.6,4.4-9.7,10.3-9.7
		C359,149.3,361.7,150.5,363.8,152.5z M380.3,161.2c0,4.6-3.2,7.6-8.1,7.6c-4.8,0-8.1-3-8.1-7.6s3.2-7.5,8.1-7.5
		C377.1,153.7,380.3,156.7,380.3,161.2z M369,161.3c0,2.3,1.3,3.8,3.3,3.8c1.9,0,3.3-1.5,3.3-3.8s-1.3-3.8-3.3-3.8
		S369,159,369,161.3L369,161.3z M398,159.3v9.3h-4.7v-8c0-1.7-1-2.8-2.6-2.8c-1.7,0-2.8,1.2-3,3v7.9h-4.8v-14.8h4.8v2.4
		c1-1.7,3-2.7,5-2.6C395.8,153.6,398,155.8,398,159.3L398,159.3z"/>
	<g id="b_00000176041781325638756890000001600577229529108629_">
		<path class="st6" d="M147.6,37.3h0.7v136.6h-0.7V37.3z"/>
	</g>
	<path class="st6" d="M147.6,37.3h0.7v136.6h-0.7V37.3z"/>
	<g>
		<path class="st6" d="M147.6,37.3h0.7v136.6h-0.7V37.3z"/>
		<g>
			<g>
				
					<rect id="SVGID_00000041279082628765324230000017303545686217924774_" x="147.6" y="37.3" class="st6" width="0.7" height="136.6"/>
			</g>
			<g>
				<defs>
					<rect id="SVGID_00000093880239288055605490000003286229731809942144_" x="147.6" y="37.3" width="0.7" height="136.6"/>
				</defs>
				<use xlink:href="#SVGID_00000093880239288055605490000003286229731809942144_"  style="overflow:visible;fill:#FFFFFF;"/>
				<clipPath id="SVGID_00000124840561407040526140000006758167759436601491_">
					<use xlink:href="#SVGID_00000093880239288055605490000003286229731809942144_"  style="overflow:visible;"/>
				</clipPath>
				<g style="clip-path:url(#SVGID_00000124840561407040526140000006758167759436601491_);">
					<path class="st6" d="M147.6,37.3h0.7v136.6h-0.7V37.3z"/>
				</g>
			</g>
		</g>
	</g>
	<g>
		<path class="st6" d="M278,197.9h120v0.5H278V197.9z"/>
		<path class="st6" d="M2,197.9h117.2v0.5H2V197.9z"/>
	</g>
	<g>
		<path class="st6" d="M131.5,193.1v1.7h7.2v3.8h-7.2v2h7.9v3.8h-12.2v-15.1h12.2v3.8H131.5z"/>
		<path class="st6" d="M153.3,193v11.4h-4.2v-1.1c-0.7,0.9-1.8,1.4-3.2,1.4c-2.4,0-4.2-1.8-4.2-4.4V193h4v6.2c0,1.1,0.7,1.9,1.7,1.9
			c0.9,0,1.6-0.7,1.6-1.7V193H153.3z"/>
		<path class="st6" d="M163.7,192.8v3.5c-2.2,0-3.6,1.2-3.6,3.3v4.8h-4.2V193h4.2v2C160.9,193.6,162.2,192.8,163.7,192.8z"/>
		<path class="st6" d="M165.2,198.7c0-3.3,2.9-5.9,6.4-5.9c3.5,0,6.4,2.7,6.4,5.9c0,3.3-2.9,6-6.4,6
			C168.1,204.7,165.2,202,165.2,198.7z M174.1,198.7c0-1.3-1.1-2.4-2.4-2.4c-1.3,0-2.4,1.1-2.4,2.4s1.1,2.4,2.4,2.4
			C173,201.2,174.1,200.1,174.1,198.7z"/>
		<path class="st6" d="M193.1,198.7c0,3.5-2.2,6-5.2,6c-1.5,0-2.7-0.6-3.6-1.6v5.1H180V193h4.2v1.3c0.9-1,2.2-1.6,3.6-1.6
			C190.9,192.8,193.1,195.2,193.1,198.7z M189,198.7c0-1.4-1-2.4-2.5-2.4c-1.3,0-2.3,1-2.3,2.4c0,1.4,0.9,2.4,2.3,2.4
			C188,201.2,189,200.1,189,198.7z"/>
		<path class="st6" d="M203.1,200.6l2.3,2.4c-1,1-2.9,1.8-4.7,1.8c-3.6,0-6.3-2.5-6.3-6c0-3.5,2.6-5.9,6.1-5.9c3.7,0,5.9,2.6,5.9,7
			h-8.1c0.3,1.1,1.1,1.8,2.1,1.8C201.4,201.5,202.3,201.2,203.1,200.6z M198.5,197.5h3.9c-0.3-0.9-0.9-1.6-1.8-1.6
			C199.5,195.9,198.8,196.6,198.5,197.5z"/>
		<path class="st6" d="M213.9,201l5.6-4c1.6-1.1,2-1.8,2-2.6c0-0.8-0.7-1.4-1.7-1.4c-1.3,0-2.3,0.6-3.5,1.8l-2.6-2.7
			c1.7-2,3.7-3,6.2-3c3.6,0,6,2.2,6,5.1c0,2-0.8,3.5-3.5,5.2l-2,1.3h5.6v3.8h-12.1V201z"/>
		<path class="st6" d="M227.9,196.8c0-4.6,2.9-7.8,7.1-7.8s7.1,3.2,7.1,7.8c0,4.6-2.9,7.8-7.1,7.8S227.9,201.4,227.9,196.8z
			 M237.7,196.8c0-2.3-1.1-3.9-2.7-3.9c-1.6,0-2.7,1.6-2.7,3.9c0,2.3,1.1,4,2.7,4C236.6,200.8,237.7,199.1,237.7,196.8z"/>
		<path class="st6" d="M244,201l5.6-4c1.6-1.1,2-1.8,2-2.6c0-0.8-0.7-1.4-1.7-1.4c-1.3,0-2.3,0.6-3.5,1.8l-2.6-2.7
			c1.7-2,3.7-3,6.2-3c3.6,0,6,2.2,6,5.1c0,2-0.8,3.5-3.5,5.2l-2,1.3h5.6v3.8H244V201z"/>
		<path class="st6" d="M271,199.3c0,3.3-2.7,5.4-6.1,5.4c-4.6,0-6.9-3.1-6.9-7.5c0-4.9,2.8-8.1,7.5-8.1c1.9,0,3.5,0.6,4.9,1.5
			l-1.9,3.2c-0.9-0.7-1.7-1-2.9-1c-1.6,0-2.6,0.9-3,2.6c0.9-0.6,2.1-0.9,3.3-0.9C268.7,194.4,271,196.3,271,199.3z M266.6,199.5
			c0-1-1-1.6-2.1-1.6c-0.9,0-1.6,0.4-2,1.2c0.2,1.5,0.7,2.1,2.1,2.1C265.8,201.1,266.6,200.4,266.6,199.5z"/>
	</g>
</g>
</svg>
