<svg xmlns="http://www.w3.org/2000/svg" role="img" viewBox="3.38 -1.12 630.24 280.24"><title>kccnc-eu-2023-logos-white.svg</title><defs><clipPath id="c"><path d="M238.203 11.813H239.203V215.313H238.203z" class="f"/></clipPath><clipPath id="d"><path d="M15.63 251.001H189.603V252.001H15.63z" class="f"/></clipPath><clipPath id="e"><path d="M447.545 251.001H621.518V252.001H447.545z" class="f"/></clipPath><style>.f,.g{fill:#fff}.g{fill-rule:evenodd}</style></defs><g><path d="M177.20279,185.71296c1.10001-.3,2.39999-.60001,4.10001-.89999,1.71819-.28603,3.45827-.41988,5.2-.39999,1.56427-.06822,3.12683,.16956,4.60001,.7,1.1317,.43799,2.13077,1.16145,2.89999,2.10001,.73483,.93996,1.24762,2.03389,1.5,3.2,.32605,1.34248,.49387,2.71851,.5,4.10001v12.39999h-6.10001v-11.7c.10239-1.44571-.17332-2.89316-.8-4.2-.50002-.8-1.50002-1.20001-3-1.2-.46883-.01309-.93779,.02042-1.39999,.10001-.5,0-.89999,.10001-1.3,.10001v16.89999h-6.2v-21.20003Zm-11.39999,10.10001c.06738-1.57396-.31412-3.13463-1.10001-4.5-1.43765-1.82254-4.08057-2.13455-5.90311-.6969-.25882,.20416-.49274,.43806-.6969,.6969-.86681,1.33492-1.28702,2.91074-1.2,4.5-.07166,1.61911,.34656,3.22221,1.2,4.60001,1.29948,1.82254,3.8304,2.24655,5.65294,.94707,.36603-.26099,.68608-.58104,.94707-.94707,.78513-1.40205,1.16592-2.99443,1.10001-4.60001m6.3,0c.03511,1.59505-.2016,3.18442-.7,4.7-.47517,1.3696-1.22363,2.6284-2.2,3.7-2.00189,2.16328-4.85562,3.33405-7.8,3.2-1.50322,.00429-2.99449-.26685-4.39999-.8-1.28856-.55368-2.44678-1.37125-3.39999-2.39999-.98329-1.06645-1.73267-2.32677-2.2-3.7-1.06668-3.04254-1.06668-6.35745,0-9.39999,.49159-1.33197,1.23895-2.55493,2.2-3.60001,.95738-.99913,2.11636-1.78314,3.39999-2.3,1.35948-.57161,2.82591-.84442,4.3-.8,1.47075-.00461,2.92932,.26675,4.3,.8,1.26381,.55345,2.41602,1.33289,3.39999,2.3,.96106,1.04507,1.70842,2.26804,2.2,3.60001,.61427,1.48982,.92043,3.08864,.89999,4.7m-33.7,11.60001c-4.7,0-8.3-1.3-10.7-3.89999-2.5-2.60001-3.7-6.3-3.7-11.10001-.01868-2.18192,.35388-4.34952,1.10001-6.39999,1.35368-3.55853,4.2075-6.33919,7.8-7.60001,1.88783-.69559,3.8884-1.03467,5.89999-1,1.10718-.00862,2.21252,.09187,3.3,.3,1,.2,1.89999,.39999,2.60001,.60001,.64493,.20058,1.2791,.43422,1.89999,.7,.39909,.13379,.77145,.3369,1.10001,.60001l-1.89999,5.2c-.97542-.536-2.01793-.93954-3.10001-1.2-1.30731-.33257-2.65105-.50053-4-.5-.98709,.01154-1.96603,.18033-2.89999,.5-.95451,.31487-1.8143,.86513-2.5,1.60001-.75763,.82205-1.36668,1.76947-1.8,2.8-.45958,1.35277-.696,2.7713-.7,4.2-.02635,1.24541,.10809,2.489,.39999,3.7,.28201,1.07622,.7563,2.09258,1.39999,3,.70915,.84964,1.59689,1.5325,2.60001,2,1.20009,.5089,2.49734,.74786,3.8,.7,.83696-.00877,1.67229-.07559,2.5-.2,.67847-.0654,1.34856-.19942,2-.39999,.50963-.13628,1.01054-.30324,1.5-.5,.3811-.20882,.78337-.37643,1.2-.5l1.8,5.2c-1.20401,.72067-2.52338,1.22813-3.89999,1.5-1.85452,.51599-3.77574,.75192-5.7,.7m-24.7-13.7c-.00288-.51462-.10474-1.02386-.3-1.5-.17257-.46341-.40811-.90085-.7-1.3-.33042-.40894-.73819-.74873-1.2-1-.56833-.24898-1.17972-.38484-1.8-.39999-.62529-.03374-1.24786,.1046-1.8,.39999-.47619,.18207-.89188,.49384-1.2,.89999-.3457,.41684-.61639,.89053-.8,1.39999-.19182,.51698-.32597,1.05357-.4,1.60001h8.2v-.09999Zm-14.49999,2.3c-.02849-1.74188,.27702-3.47308,.9-5.10001,.51175-1.36899,1.33315-2.60109,2.4-3.60001,.94285-.94537,2.06472-1.69328,3.3-2.2,1.24523-.47357,2.5678-.71095,3.9-.7,2.75203-.15768,5.44168,.86003,7.4,2.8,1.8,1.90001,2.7,4.7,2.7,8.39999v1.2c0,.39999-.10001,.8-.10001,1.10001h-14.1c.0625,1.2375,.7375,2.3625,1.8,3,1.26546,.76204,2.72346,1.14391,4.2,1.10001,1.10699,.00395,2.21188-.0965,3.3-.3,.92718-.16447,1.83288-.43283,2.7-.8l.8,5c-.41965,.20026-.85432,.36743-1.3,.5-.6198,.19106-1.25578,.32495-1.9,.39999-.7,.10001-1.4,.2-2.2,.3-.76385,.0811-1.53201,.1145-2.3,.10001-1.7433,.04704-3.4781-.25909-5.1-.89999-1.36899-.51175-2.60108-1.33315-3.6-2.39999-.99915-.9985-1.72265-2.23878-2.1-3.60001-.50723-1.37511-.7449-2.83502-.7-4.3m-4.1-.10001c.00336,1.60083-.26722,3.19043-.8,4.7-.49158,1.33197-1.23895,2.55493-2.2,3.60001-1.01358,1.02539-2.24358,1.81123-3.6,2.3-1.54202,.54099-3.16588,.81163-4.8,.8-.80125,.01263-1.60258-.02075-2.4-.10001l-2.4-.3c-.77434-.08467-1.54254-.21826-2.3-.39999-.7-.2-1.4-.3-1.9-.5v-30.60001l6.2-1v10.89999c.71306-.29282,1.44884-.52693,2.2-.7,.78802-.16989,1.59473-.23712,2.4-.2,1.40688-.01532,2.80207,.25691,4.1,.8,1.17862,.50027,2.21088,1.29167,3,2.3,.83425,1.06784,1.44628,2.2919,1.8,3.60001,.49825,1.55003,.73482,3.17223,.7,4.8m-6.3-.2c0-4-1.5-6-4.4-6-.63757,.01712-1.27283,.08398-1.9,.2-.5133,.16501-1.0145,.36549-1.5,.60001v11.3c.39294,.09192,.79726,.12561,1.2,.10001,.5,0,1,.10001,1.5,.10001,1.46991,.09691,2.89259-.53955,3.8-1.7,.90139-1.36073,1.35583-2.96877,1.3-4.60001m-20.2,10.39999c-1.1,.3-2.4,.60001-4.1,.89999-1.71819,.28603-3.45827,.41988-5.2,.39999-1.56428,.06822-3.12682-.16956-4.6-.7-1.1317-.43799-2.13077-1.16145-2.9-2.10001-.71632-.95122-1.22712-2.04092-1.5-3.2-.33225-1.34135-.50015-2.71812-.5-4.10001v-12.2h6.1v11.39999c-.08781,1.47711,.18683,2.95331,.8,4.3,.5,.89999,1.5,1.3,3,1.3,.46883,.01309,.9378-.0204,1.4-.10001,.5,0,.9-.10001,1.3-.10001v-16.89999h6.2v21.10002Zm-28.60001,.7c-.6-.89999-1.3-2-2.1-3.10001-.80426-1.14777-1.67229-2.2495-2.6-3.3-.9-1.10001-1.9-2.10001-2.9-3.2-.94948-.95459-1.95101-1.85597-3-2.7v12.2h-6.50005v-28.8h6.5v10.89999c1.7-1.8,3.4-3.60001,5.1-5.60001,1.7-1.89999,3.3-3.7,4.8-5.3h7.7c-2,2.3-3.9,4.60001-5.9,6.7-2,2.2-4.1,4.3-6.3,6.5,2.42954,2.06461,4.67162,4.34015,6.7,6.8,2.23989,2.77257,4.31032,5.67786,6.2,8.7h-7.7l.00005,.20003Z" class="f"/><path d="M92.00278,79.61296l-3.6,.8c0-.5-.1-1-.1-1.5-.01186-3.80733,1.02616-7.54425,3-10.8l7,6.2c.11396,.12351,.24952,.22518,.4,.3-.42986,1.05391-.69952,2.16624-.8,3.3-.2,.1-.5,.1-.7,.2l-5.2,1.5Zm13.6-21.2v9.8c-.97546,.30392-1.88953,.77789-2.7,1.4-.3-.2-.6-.5-.9-.7l-7.1-5c2.90701-2.90269,6.64767-4.82546,10.7-5.5m-48.7,22.6c3.4-14.9,6.3-27.5,9.7-42.4,1.5-6.7,2.5-8.5,8.6-12,8.4-4.9,14.7-8.4,23.7-13.6,5.6-3.2,6.7-3,6.7,3.9V51.51296c-6.2683,.76625-12.07056,3.70276-16.4,8.3l-3-2.1c-.36954-.21362-.62577-.57966-.7-1-.27878-.9432-.83658-1.7799-1.6-2.4-1.40941-1.13084-3.46868-.90501-4.59952,.5044-1.12931,1.4075-.90582,3.4636,.49952,4.5956,.45412,.40212,1.00584,.67798,1.6,.8,.4,.1,.8,.1,1.2,.2,.32381,.07158,.62988,.20762,.9,.4l2.8,2.5c-3.07482,4.54621-4.71232,9.91161-4.7,15.4,0,1,.1,2,.2,3l-6.1,1.3c-.43565-.01282-.87144,.02071-1.3,.1l-.9,.3c-4,.8-8,1.7-12.1,2.6-5.5,1.3-5.7,.2-4.5-5m55.8-12.8v-9.8c4.01499,.7239,7.7327,2.60013,10.7,5.4l-7.7,5.5c-.1,.1-.2,.2-.3,.2-.83718-.55325-1.74543-.99055-2.7-1.3m17.2,11.5l-9.60001-2.2c-.09978-1.03721-.37009-2.05083-.8-3,.10001-.1,.2-.2,.3-.2l7.10001-6.3c2.01772,3.27839,3.09052,7.05047,3.10001,10.9-.08871,.25678-.12279,.52928-.10001,.8m-12.5-52.9c5.2,2.5,8.89999,4.3,14.10001,6.8,7.2,3.5,14.39999,7,21.7,10.4,1.8,7.8,3.60001,15.6,5.3,23.4,1.10001,4.7,1.60001,7.2,2.7,11.8,1.7,7.3,1.5,7.9-6,6.2l-18.5-4.2c.08322-.79714,.11662-1.5987,.10001-2.4,.03969-5.53848-1.63715-10.95328-4.8-15.5l2.60001-2.4c.31339-.26517,.69415-.43826,1.10001-.5,.97578-.07436,1.91118-.42081,2.7-1,1.40833-1.13219,1.63219-3.19168,.5-4.6s-3.19168-1.63218-4.60001-.5h0c-.5018,.36876-.91232,.84771-1.2,1.4-.2,.4-.3,.7-.5,1.1-.10648,.32545-.31738,.60666-.60001,.8l-3,2.1c-4.34317-4.57886-10.13839-7.51181-16.4-8.3V30.31296c.1-4.9,.5-5.5,4.8-3.5m-6.4,63c-.62639,.12127-1.26209,.18818-1.9,.2-.60174,.01657-1.2038-.01688-1.8-.1l-.3,.6-4.4,8.1c2.12607,.72104,4.355,1.09252,6.6,1.1,2.27698-.01562,4.53755-.38676,6.7-1.1l-4.4-8c-.20193-.24294-.37011-.51204-.5-.8m7.8-5.3l9.60001,2.2c-1.58047,3.88199-4.29991,7.19411-7.8,9.5l-3.8-9.2c.75029-.76285,1.42046-1.60056,2-2.5m-28.9,2.1l9.6-2.2c.58781,.95158,1.29338,1.82515,2.1,2.6l-.3,.6-3.5,8.6c-3.55924-2.30995-6.31828-5.66271-7.9-9.6m78.60001,16.9c-4.60001,5.7-6.7,8.4-11.3,14.1-5.2,6.5-9.39999,11.8-14.60001,18.3-3.7,4.7-6.39999,4.8-12.5,4.8h-42c-8,0-8.6,0-13.5-6.2-4.9-6.10001-8.7-10.9-13.5-17-3.8-4.8-4.8-6-8.6-10.8-5.9-7.4-6.9-10.1,2.3-12.1l28.4-6.4c2.20708,6.0174,6.40622,11.0987,11.9,14.4l-1.3,3c-.15289,.38452-.43606,.70308-.8,.9-.87854,.46224-1.58114,1.19997-2,2.1-.80305,1.62814-.13417,3.59901,1.49397,4.40205,1.62814,.80305,3.59901,.13418,4.40205-1.49397l.00397-.00809c.27113-.56596,.44039-1.17529,.5-1.8,.01646-.4026-.01714-.80568-.1-1.2-.03096-.34563,.03849-.69286,.2-1l1.6-2.9c3.16407,1.19347,6.51833,1.80334,9.9,1.8,3.42474,.0183,6.82062-.62691,10-1.9l1.60001,2.9c.21838,.35944,.29001,.78916,.2,1.2-.17113,.95206-.03087,1.93394,.39999,2.8,.79758,1.63083,2.76617,2.30633,4.39702,1.50875,1.63083-.79757,2.30632-2.76617,1.50874-4.39701l-.00577-.01174c-.24927-.57632-.62526-1.08904-1.10001-1.5-.30896-.26634-.644-.50086-1-.7-.30327-.17081-.52094-.46104-.60001-.8l-1.3-3.2c5.49193-3.27743,9.66586-8.37104,11.8-14.4l31.3,7.1c6.3,1.7,5.89999,3.9,2.3,8.5" class="g"/><path d="M112.70278,68.21296v-9.8c4.01499,.7239,7.7327,2.60012,10.7,5.4l-7.7,5.5c-.1,.1-.2,.2-.3,.2-.83718-.55325-1.74543-.99055-2.7-1.3m17.2,11.5l-9.60001-2.2c-.09978-1.03721-.37009-2.05083-.8-3,.10001-.1,.2-.2,.3-.2l7.10001-6.3c2.01772,3.27839,3.09052,7.05047,3.10001,10.9-.08871,.25678-.12279,.52928-.10001,.8m-12.5-52.9c5.2,2.5,8.89999,4.3,14.10001,6.8,7.2,3.5,14.39999,7,21.7,10.4,1.8,7.8,3.60001,15.6,5.3,23.4,1.10001,4.7,1.60001,7.2,2.7,11.8,1.7,7.3,1.5,7.9-6,6.2l-18.5-4.2c.08322-.79714,.11662-1.5987,.10001-2.4,.03969-5.53848-1.63715-10.95328-4.8-15.5l2.60001-2.4c.31339-.26517,.69415-.43826,1.10001-.5,.97578-.07436,1.91118-.42081,2.7-1,1.40833-1.13219,1.63219-3.19168,.5-4.6s-3.19168-1.63218-4.60001-.5h0c-.5018,.36876-.91232,.84771-1.2,1.4-.2,.4-.3,.7-.5,1.1-.10648,.32545-.31738,.60666-.60001,.8l-3,2.1c-4.34317-4.57886-10.13839-7.51181-16.4-8.3V30.31296c.1-4.9,.5-5.5,4.8-3.5m1.4,57.7l9.60001,2.2c-1.58047,3.882-4.29991,7.19411-7.8,9.5l-3.8-9.2c.75029-.76285,1.42046-1.60056,2-2.5m-9.7,15.1v-9.6c.63757-.01711,1.27283-.08398,1.9-.2,.09468,.2534,.22976,.48978,.4,.7l4.4,8c-2.16245,.71323-4.42302,1.08437-6.7,1.1m59.4,3.9c-4.60001,5.7-6.7,8.4-11.3,14.1-5.2,6.5-9.39999,11.8-14.60001,18.3-3.7,4.7-6.39999,4.8-12.5,4.8h-20.9v-34.3c3.42474,.0183,6.82062-.62691,10-1.9l1.6,2.9c.21838,.35944,.29001,.78916,.2,1.2-.17114,.95206-.03087,1.93394,.39999,2.8,.80406,1.62765,2.77534,2.2953,4.40298,1.49124,1.62306-.8018,2.29234-2.765,1.49701-4.39124-.24925-.57632-.62524-1.08904-1.10001-1.5-.30898-.26633-.644-.50085-1-.7-.30327-.17081-.52094-.46104-.60001-.8l-1.3-3.2c5.49193-3.27743,9.66586-8.37104,11.8-14.4l31.3,7.1c6.10001,1.7,5.7,3.9,2.10001,8.5" class="g"/><path d="M400.50278,102.31296h-16.60001v38.8h38.70001v-16.6h-22.10001v-22.2Zm83.10001,.1v22.1h-22l-.20001-.2v16.8h38.79999v-38.8h-16.70001l.10004,.10001Zm-99.69998-38.9h16.70001l-.10001-.1v-22.1h22l.10001,.2V24.71296h-38.70001V63.51295Zm77.5-38.8v16.6h22.20001v22.2h16.60001V24.71296h-38.80002Z" class="f"/><g opacity=".8"><path d="M459.40277,63.51295l-22.20001-22.2h24.20001V24.71296h-38.79999v16.8l22.10001,22h14.69998Zm-20,38.8h-14.70001l18.39999,18.4,3.79999,3.8h-24.29999v16.6h38.79999v-16.8l-11-11-10.99997-11Zm44.20001-38.8v24.2l-3.79999-3.8-18.39999-18.3v14.7l11.10001,11,11,11h16.70001V63.51295h-16.60004Zm-61,21.99999l-22-22h-16.79999v38.8h16.70001v-24.19999l22.10001,22.1-.00003-14.70001Z" class="f"/></g><path d="M302.70279 183.41296l-4.20001 5c-1.75729-2.21008-4.38004-3.55788-7.20001-3.7-4.43527.01453-8.01901 3.62181-8.00446 8.05708.00024.08099.00174.16197.00446.24292 0 4.8 3.39999 8.39999 8 8.39999 2.75131-.15198 5.33466-1.37189 7.20001-3.39999l4.29999 4.5c-3.12854 3.1714-7.34836 5.03098-11.79999 5.2-8.60001 0-15-6.3-15-14.7 0-8.3 6.60001-14.5 15.29999-14.5 4.2771.15897 8.34149 1.90594 11.39999 4.89999h.00003zm3.5 24v-30.3h7.10001v30.3h-7.10001zm35.20001-11c0 6.8-4.79999 11.3-12 11.3s-12.10001-4.5-12.10001-11.3 4.79999-11.2 12.10001-11.2c7.19998 0 11.99997 4.39999 11.99997 11.2h.00003zm-17 .10001c0 3.39999 2 5.7 4.89999 5.7s4.89999-2.3 4.89999-5.7-2-5.7-4.89999-5.7-4.90002 2.29999-4.90002 5.7h.00003zm42.29999 10.89999h-7.10001v-3.60001c-1.46921 2.55714-4.25555 4.06641-7.20001 3.89999-4.79999 0-7.89999-3.3-7.89999-8.39999v-13.89999h7.10001v11.89999c0 2.60001 1.39999 4.2 3.70001 4.2 2.70001 0 4.29999-2.2 4.29999-5.2v-10.89999h7.10001v22zm27.79999 0h-7.10001v-2.89999c-1.56879 2.05208-4.01727 3.23923-6.60001 3.2-6.20001 0-10.29999-4.60001-10.29999-11.39999 0-6.7 4-11.2 10.10001-11.2 2.65332-.10828 5.1922 1.0865 6.79999 3.2v-11.2h7.10001v30.29999zm-7.10001-10.89999c0-3.39999-2-5.7-4.89999-5.7s-4.89999 2.3-4.89999 5.7 2 5.8 4.89999 5.8c3-.10001 4.89999-2.40001 4.89999-5.8zM420.40277 207.41296l-13.20001-17.60001v17.60001h-6.79999v-28.60001h6.39999l13.20001 17.7v-17.7h6.79999v28.60001h-6.39999zm31.60001-14.39999v14.39999h-6.89999v-2.5c-1.39999 1.89999-3.79999 2.89999-6.70001 2.89999-4.70001 0-7.60001-2.89999-7.60001-6.89999 0-4.2 3-6.60001 8.5-6.7h5.79999v-.3c0-2.2-1.39999-3.5-4.29999-3.5-2.29999.14201-4.54636.75467-6.60001 1.8l-2-4.7c3.16071-1.6115 6.65234-2.46729 10.20001-2.5 6.10001.09999 9.60001 3.09999 9.60001 8zm-6.89999 7v-2h-4.5c-2.10001 0-3.20001.7-3.20001 2.39999 0 1.60001 1.10001 2.60001 3.10001 2.60001 2.03009.13513 3.90515-1.08774 4.60001-3zm26 6.3c-1.81427.97534-3.84021 1.49042-5.89999 1.5-4.29999 0-7.29999-2.39999-7.29999-7v-9.7h-3.10001v-4.60001h3.10001v-6.10001h7v6.10001h5.79999v4.7h-5.79999v8.60001c0 1.7.70001 2.5 2 2.39999.93311-.07903 1.84604-.3157 2.70001-.7l1.49997 4.8zm10.79999-27.2c.08057 2.01669-1.48898 3.71684-3.50568 3.79741-.06473.00259-.12955.00345-.19434.00259-2.07108-.02748-3.72772-1.72868-3.70026-3.79974.02698-2.03232 1.66794-3.67329 3.70026-3.70026 1.93903-.10443 3.59558 1.38278 3.70001 3.32181.00677.12598.00677.25221 0 .37817v.00002zm-7.29999 28.3v-22h7v22h-7zm18 0l-8.29999-22h7.29999l4.70001 15.60001 4.79999-15.60001h7.00003l-8.29999 22h-7.20004zm38.89999-9.10001h-15.5c.50659 2.44879 2.70062 4.1787 5.20001 4.10001 1.98083-.03886 3.8739-.82466 5.29999-2.2l3.70001 3.60001c-2.48407 2.62906-5.98615 4.05179-9.59998 3.89999-7.20001 0-11.70001-4.5-11.70001-11.2 0-6.8 4.70001-11.3 11.5-11.3 7.70001 0 11.5 5.10001 11.09998 13.10001v-.00002zm-6.79999-3.8c.19543-2.28334-1.49719-4.29277-3.78052-4.48819-.17273-.01479-.34625-.01874-.51947-.01181-2.5 0-4.09998 1.8-4.59998 4.5h8.89996zM560.30276 183.41296l-4.20001 5c-1.75726-2.21008-4.38-3.55788-7.20001-3.7-4.4353.01453-8.01898 3.62181-8.00446 8.05708.00024.08099.00177.16197.00446.24292 0 4.8 3.40002 8.39999 8 8.39999 2.75134-.15198 5.33466-1.37187 7.20001-3.39999l4.29999 4.5c-3.12854 3.1714-7.34833 5.03099-11.79999 5.2-8.59998 0-15-6.3-15-14.7 0-8.3 6.59998-14.5 15.29999-14.5 4.27264.1786 8.33032 1.92268 11.40002 4.89999zm24.70001 13c0 6.8-4.79999 11.3-12 11.3s-12.09998-4.5-12.09998-11.3 4.79999-11.2 12.09998-11.2c7.20001 0 12 4.39999 12 11.2zm-16.90002.10001c0 3.39999 2 5.7 4.90002 5.7s4.90002-2.3 4.90002-5.7-2-5.7-4.90002-5.7-4.89996 2.29999-4.89996 5.7h-.00006zm43.20001-3v13.89999h-7v-11.89999c0-2.60001-1.5-4.2-3.90002-4.2-2.59998 0-4.20001 1.8-4.5 4.5v11.7h-7.09998v-22h7.09998v3.60001c1.5553-2.56879 4.40186-4.06897 7.40002-3.89999 4.79999-.10001 8 3.2 8 8.3v-.00002z" class="f"/><g id="b"><path d="M238.20279,11.81296h1V215.31295h-1V11.81296Z" class="f"/></g><path d="M238.203 11.813H239.203V215.313H238.203z" class="f"/><g><path d="M238.203 11.813H239.203V215.313H238.203z" class="f"/><g clip-path="url(#c)"><path d="M238.20279,11.81296h1V215.31295h-1V11.81296Z" class="f"/></g></g></g><g><path d="M15.63 251.001H189.603V252.001H15.63z" class="f"/><g clip-path="url(#d)"><path d="M15.63,251.00136H189.60279v.99998H15.63v-.99998Z" class="f"/></g></g><g><path d="M213.3335 241.46293v4.90234h12.38037v4.75879h-12.38037v5.40332h13.63281v4.75879h-18.92871v-24.58203h18.92871v4.75879h-13.63281zM248.75732 242.78715v18.49902h-5.22461v-2.25391c-1.14502 1.64551-3.18457 2.68359-5.5459 2.68359-4.04346 0-6.87012-2.93457-6.87012-7.15625v-11.77246h5.00928v10.66309c0 2.29004 1.46729 3.86426 3.54248 3.86426 2.18262 0 3.86426-1.57422 3.86426-3.57812v-10.94922h5.22461zM265.32324 242.35746v4.40137c-3.86475 0-6.3335 2.21875-6.3335 5.68945v8.83789h-5.22412v-18.49902h5.22412v3.4707c1.21631-2.39746 3.50635-3.90039 6.3335-3.90039zM267.86328 252.0186c0-5.33105 4.54395-9.66113 10.09033-9.66113 5.5459 0 10.09033 4.33008 10.09033 9.66113 0 5.33203-4.54443 9.69727-10.09033 9.69727-5.54639 0-10.09033-4.36523-10.09033-9.69727zm15.13574 0c0-2.89844-2.25439-5.25977-5.04541-5.25977s-5.08105 2.36133-5.08105 5.25977 2.29004 5.2959 5.08105 5.2959 5.04541-2.39746 5.04541-5.2959zM311.69531 252.0186c0 5.68945-3.57812 9.69727-8.51611 9.69727-2.6123 0-4.75928-1.14551-6.22607-3.07715v8.80176h-5.22412v-24.65332h5.22412v2.64746c1.4668-1.93164 3.61377-3.07715 6.22607-3.07715 4.93799 0 8.51611 4.00781 8.51611 9.66113zm-5.08105 0c0-3.07715-2.03955-5.25977-4.93799-5.25977-2.75537 0-4.72314 2.18262-4.72314 5.25977 0 3.11328 1.96777 5.2959 4.72314 5.2959 2.89844 0 4.93799-2.18262 4.93799-5.2959zM328.79883 255.8477l2.93359 3.00488c-1.64551 1.71777-4.83008 2.86328-7.5498 2.86328-5.51074 0-9.87598-4.04395-9.87598-9.7334 0-5.58203 4.18652-9.625 9.58984-9.625 5.79688 0 9.30371 4.18652 9.30371 11.05664h-13.91992c.46533 2.50488 2.18262 4.25781 4.72363 4.25781 1.71777 0 3.61426-.75098 4.79492-1.82422zm-9.48242-5.54688h8.87402c-.42969-2.29004-1.89648-3.90039-4.22266-3.90039-2.32568 0-4.0791 1.53906-4.65137 3.90039zM345.43555 256.99223l9.05273-7.0127c2.93457-2.32617 3.86426-3.93652 3.86426-5.6543 0-2.03906-1.7168-3.25586-3.7207-3.25586-2.39746 0-4.22266 1.2168-6.01172 3.25586l-3.36328-3.25586c2.43262-3.07715 5.5459-4.79492 9.51758-4.79492 5.22461 0 9.01758 3.2207 9.01758 7.83691 0 3.29102-1.43164 5.83203-5.72559 8.94531l-4.47266 3.4707h10.41211v4.75879h-18.57031v-4.29395zM367.54785 248.97758c0-7.44336 4.58008-12.70312 11.05664-12.70312s11.02051 5.25977 11.02051 12.70312c0 7.47852-4.54395 12.73828-11.02051 12.73828s-11.05664-5.25977-11.05664-12.73828zm16.67383 0c0-4.61621-2.3252-7.9082-5.61719-7.9082s-5.61816 3.29199-5.61816 7.9082c0 4.61523 2.32617 7.94336 5.61816 7.94336s5.61719-3.32812 5.61719-7.94336zM392.80859 256.99223l9.05273-7.0127c2.93457-2.32617 3.86523-3.93652 3.86523-5.6543 0-2.03906-1.71777-3.25586-3.72168-3.25586-2.39746 0-4.22266 1.2168-6.01172 3.25586l-3.36328-3.25586c2.43359-3.07715 5.5459-4.79492 9.51758-4.79492 5.22461 0 9.01758 3.2207 9.01758 7.83691 0 3.29102-1.43164 5.83203-5.72559 8.94531l-4.47266 3.4707h10.41309v4.75879h-18.57129v-4.29395zM414.16992 257.60063l3.11328-3.50684c1.75293 1.86133 4.0791 2.89844 6.54785 2.89844 2.68359 0 4.29395-1.25195 4.29395-3.00586 0-1.89648-1.50293-2.8623-4.79492-2.82617h-2.82617v-4.50879l2.82617.03613c2.68359 0 4.29395-1.00195 4.29395-2.75586 0-1.78906-1.71777-2.93359-4.15039-2.93359-2.29004 0-4.11523 1.14453-5.76074 2.8623l-3.04199-3.2207c2.04004-2.46875 4.97363-4.36523 9.33887-4.36523 5.51074 0 8.98145 2.82715 8.98145 6.72754 0 2.82617-1.89648 4.86621-4.61523 5.65332 2.68359.6084 5.15234 2.50488 5.15234 5.76074 0 4.25781-3.72168 7.33496-9.48242 7.33496-4.40137 0-7.80078-1.75293-9.87598-4.15039z" class="f"/></g><g><path d="M447.545 251.001H621.518V252.001H447.545z" class="f"/><g clip-path="url(#e)"><path d="M447.54499,251.00136h173.97279v.99998h-173.97279v-.99998Z" class="f"/></g></g></svg>