<?xml version="1.0" encoding="UTF-8"?>
<svg id="Layer_1" xmlns="http://www.w3.org/2000/svg" version="1.1" viewBox="0 0 651.5 308.9">
  <!-- Generator: Adobe Illustrator 29.0.0, SVG Export Plug-In . SVG Version: 2.1.0 Build 186)  -->
  <defs>
    <style>
      .st0 {
        opacity: .8;
      }

      .st0, .st1 {
        fill: #fff;
      }
    </style>
  </defs>
  <path class="st1" d="M185.6,203c1.1-.3,2.5-.6,4.2-.9,1.7-.2,3.5-.4,5.4-.4s3.5.2,4.8.7c1.3.5,2.3,1.2,3,2.1.7.9,1.3,2.1,1.6,3.3.3,1.2.5,2.7.5,4.2v12.8h-6.4v-12c0-2.1-.2-3.5-.8-4.4-.6-.8-1.6-1.3-3-1.3s-1,0-1.5,0c-.5,0-1,0-1.4.2v17.5h-6.4v-21.8ZM173.8,213.5c0-2-.4-3.5-1.1-4.7-.8-1.1-1.9-1.7-3.4-1.7s-2.6.6-3.4,1.7c-.8,1.1-1.2,2.7-1.2,4.7s.4,3.5,1.2,4.7c.8,1.1,2,1.7,3.4,1.7s2.6-.6,3.4-1.7c.7-1.1,1.1-2.7,1.1-4.7M180.4,213.5c0,1.8-.2,3.4-.7,4.9-.5,1.5-1.2,2.7-2.2,3.8-1,1.1-2.1,1.9-3.5,2.5-1.4.6-2.9.8-4.6.8s-3.2-.2-4.5-.8c-1.4-.6-2.5-1.4-3.5-2.5-1-1.1-1.7-2.3-2.3-3.8-.6-1.5-.8-3.1-.8-4.9s.2-3.4.8-4.8c.6-1.5,1.3-2.7,2.3-3.8,1-1.1,2.1-1.8,3.5-2.4,1.4-.6,2.9-.8,4.4-.8s3.1.2,4.5.8c1.4.6,2.5,1.4,3.5,2.4,1,1.1,1.7,2.3,2.3,3.8.5,1.4.8,3,.8,4.8M145.4,225.4c-4.8,0-8.5-1.3-11.1-4-2.5-2.7-3.8-6.6-3.8-11.5s.4-4.7,1.1-6.6c.7-2,1.8-3.6,3.2-4.9,1.3-1.3,3-2.4,4.8-3,1.9-.7,3.9-1.1,6.1-1.1s2.4,0,3.4.2c1.1.2,2,.4,2.7.7.7.2,1.4.5,2,.7.5.2.9.5,1.1.6l-2,5.4c-.9-.5-2-.9-3.2-1.2-1.2-.3-2.6-.5-4.2-.5s-2.1.2-3,.5c-1,.3-1.9.9-2.6,1.6-.7.7-1.4,1.7-1.8,3-.5,1.2-.7,2.7-.7,4.4s.2,2.6.5,3.9c.3,1.2.8,2.2,1.5,3.1.7.8,1.6,1.6,2.6,2.1,1.1.5,2.4.7,3.9.7s1.9,0,2.6-.2c.7,0,1.5-.2,2.1-.4.6-.2,1.1-.3,1.6-.6.5-.2.9-.4,1.2-.6l1.9,5.4c-1,.6-2.3,1.1-4,1.6-1.8.5-3.8.7-6.1.7M119.9,211.2c0-.6,0-1.1-.2-1.6-.2-.5-.4-1-.7-1.4-.3-.4-.7-.7-1.2-1-.5-.2-1.1-.4-1.9-.4s-1.3,0-1.9.3c-.5.2-1,.6-1.3,1-.3.4-.6.9-.8,1.4-.2.5-.3,1.1-.4,1.6h8.5ZM104.8,213.7c0-2.1.3-3.8.9-5.3.7-1.5,1.4-2.8,2.5-3.8,1-1,2.1-1.8,3.4-2.3,1.3-.5,2.6-.7,4-.7,3.2,0,5.7,1,7.6,3,1.9,2,2.8,4.8,2.8,8.7s0,.8,0,1.2c0,.4,0,.8,0,1.1h-14.5c.2,1.3.7,2.4,1.9,3.1,1.1.7,2.5,1.1,4.4,1.1s2.3,0,3.4-.3c1.1-.2,2.1-.5,2.8-.8l.9,5.3c-.3.2-.8.3-1.4.5-.6.2-1.2.3-1.9.5-.7.2-1.5.2-2.3.3-.8,0-1.6.2-2.4.2-2.1,0-3.8-.3-5.3-.9-1.5-.6-2.8-1.4-3.8-2.5-1-1.1-1.7-2.3-2.2-3.7-.5-1.6-.7-3.1-.7-4.8M100.6,213.5c0,1.8-.2,3.4-.8,4.9-.5,1.5-1.3,2.7-2.3,3.8-1,1.1-2.2,1.8-3.7,2.4-1.5.6-3.1.8-5,.8s-1.6,0-2.5,0l-2.5-.2c-.8,0-1.6-.2-2.4-.4-.7-.2-1.4-.3-2-.5v-31.7l6.4-1.1v11.3c.7-.3,1.5-.6,2.2-.7.7-.2,1.6-.2,2.5-.2,1.6,0,3,.2,4.3.8,1.2.6,2.3,1.4,3.1,2.4.8,1.1,1.5,2.3,1.9,3.7.5,1.5.7,3.1.7,4.8M94.1,213.3c0-4.1-1.6-6.2-4.6-6.2s-1.3,0-2,.2c-.7.2-1.1.4-1.6.7v11.7c.3,0,.7,0,1.2.2.5,0,1,0,1.6,0,1.7,0,3-.6,3.9-1.8,1-1.1,1.4-2.8,1.4-4.8M73.2,224c-1.1.3-2.5.6-4.2.9-1.7.2-3.5.4-5.4.4s-3.5-.2-4.8-.7c-1.3-.5-2.3-1.2-3-2.2-.7-.9-1.3-2.1-1.6-3.4-.3-1.3-.5-2.7-.5-4.3v-12.6h6.4v11.8c0,2.1.2,3.5.8,4.5.6.9,1.6,1.4,3,1.4s1,0,1.5,0c.5,0,1,0,1.4-.2v-17.5h6.4v21.9ZM43.5,224.9c-.6-1-1.3-2.1-2.1-3.2-.8-1.1-1.7-2.3-2.7-3.4-1-1.1-2-2.2-3-3.3-1.1-1.1-2.1-2-3.1-2.8v12.6h-6.7v-29.9h6.7v11.3c1.7-1.8,3.5-3.8,5.3-5.7,1.8-2,3.4-3.9,4.9-5.5h8c-2.1,2.4-4.1,4.8-6.2,7-2.1,2.2-4.2,4.5-6.5,6.7,2.4,2,4.7,4.3,6.9,7.1,2.2,2.7,4.3,5.7,6.4,9h-7.9ZM97.4,93.1l-3.7.8c0-.5,0-1.1,0-1.6,0-3.9,1.1-7.8,3.1-11.2l7.2,6.5c.2,0,.2.2.4.3-.4,1.1-.7,2.2-.8,3.4-.2,0-.5.2-.7.2l-5.4,1.5ZM111.5,71.1v10.2c-1,.3-2,.8-2.8,1.4l-1-.7-7.3-5.3c3-2.9,6.9-4.8,11.1-5.6M61.1,94.5c3.5-15.5,6.5-28.5,10-44,1.6-7,2.6-8.8,8.9-12.4,8.7-5,15.2-8.7,24.5-14.1,5.8-3.4,6.9-3.1,6.9,4v35.9c-6.5.8-12.5,3.9-17,8.6l-3.1-2.2c-.4-.2-.6-.6-.7-1-.4-1.1-.7-1.7-1.6-2.5-1.5-1.1-3.6-.9-4.8.6-1.1,1.5-.9,3.6.6,4.8.5.4,1.1.7,1.7.9.4,0,.8.2,1.2.2.4,0,.7.2.9.4l2.9,2.6c-3.2,4.8-4.9,10.3-4.9,16s0,2.1.2,3l-6.2,1.3c-.4,0-.8,0-1.3,0-.3,0-.7.2-.9.3-4.1.9-8.3,1.8-12.5,2.7-5.8,1.3-6,.2-4.8-5.3M118.8,81.3v-10.2c4.2.7,8,2.6,11.1,5.6l-8,5.7c0,0-.2.2-.3.2-.8-.6-1.7-1-2.7-1.3M136.7,93.2l-9.9-2.3c-.2-1.1-.4-2.1-.8-3.1l.2-.2,7.3-6.6c2.1,3.4,3.2,7.3,3.2,11.2v1M123.7,38.5c5.3,2.5,9.3,4.4,14.6,7.1l22.4,10.8c1.9,8.1,3.7,16.2,5.6,24.3,1.1,4.8,1.7,7.4,2.8,12.2,1.7,7.5,1.6,8.2-6.2,6.4l-19.2-4.4c0-.8,0-1.6,0-2.5,0-5.7-1.7-11.3-4.9-16.1l2.7-2.5c.3-.3.7-.4,1.1-.5,1.1-.2,1.8-.3,2.8-1.1,1.5-1.1,1.7-3.4.6-4.8-1.1-1.5-3.4-1.7-4.8-.6-.5.4-.9.9-1.2,1.5-.2.4-.3.7-.5,1.1-.2.3-.3.6-.7.8l-3.1,2.2c-4.5-4.8-10.5-7.7-17-8.5v-21.9c0-5.2.5-5.7,4.9-3.6M117.1,103.7c-.7,0-1.3.2-2,.2s-1.2,0-1.8-.2c0,.2-.2.4-.3.7l-4.6,8.4c2.2.7,4.5,1.1,6.8,1.1s4.7-.4,6.9-1.1l-4.5-8.2c-.2-.2-.4-.5-.5-.7M125.2,98.1l9.9,2.3c-1.6,4-4.4,7.4-8,9.8l-3.9-9.5c.8-.8,1.5-1.6,2.1-2.6M95.2,100.4l9.9-2.3c.6,1,1.3,1.9,2.1,2.7,0,.2-.2.4-.2.7l-3.7,8.9c-3.6-2.5-6.5-5.9-8.1-9.9M176.6,117.8c-4.8,5.9-6.9,8.7-11.7,14.6-5.4,6.7-9.8,12.2-15.1,19-3.9,4.8-6.6,5-13,5h-43.6c-8.4,0-8.9,0-13.9-6.4-5-6.3-8.9-11.2-14-17.6-3.9-4.9-4.9-6.2-8.9-11.2-6.2-7.7-7.1-10.4,2.4-12.6l29.4-6.7c2.2,6.2,6.6,11.6,12.4,14.9l-1.3,3.1c-.2.5-.4.7-.8,1-1,.7-1.5,1.1-2.1,2.1-.8,1.7,0,3.8,1.6,4.5,1.7.8,3.8,0,4.5-1.6.2-.6.4-1.1.5-1.8,0-.4,0-.8,0-1.2s0-.7.2-1l1.6-3c3.3,1.2,6.7,1.9,10.3,1.9s7.1-.7,10.3-2l1.6,3c.2.4.2.7.2,1.2,0,1.1-.2,1.8.4,3,.8,1.7,2.9,2.4,4.5,1.6,1.7-.8,2.4-2.9,1.6-4.5-.2-.6-.7-1.1-1.1-1.5l-1-.7c-.3-.2-.5-.4-.7-.8l-1.4-3.3c5.7-3.4,10-8.7,12.3-14.9l32.4,7.4c6.5,1.5,6,3.8,2.3,8.5"/>
  <path class="st1" d="M118.9,81.3v-10.2c4.2.7,8,2.6,11.1,5.6l-8,5.7c0,0-.2.2-.3.2-.8-.6-1.7-1-2.7-1.3M136.7,93.2l-9.9-2.3c-.2-1.1-.4-2.1-.8-3.1l.2-.2,7.3-6.6c2.1,3.4,3.2,7.3,3.2,11.2v1M123.7,38.5c5.3,2.5,9.3,4.4,14.6,7.1l22.4,10.8c1.9,8.1,3.7,16.2,5.6,24.3,1.1,4.8,1.7,7.4,2.8,12.2,1.7,7.5,1.6,8.2-6.2,6.4l-19.2-4.4c0-.8,0-1.6,0-2.5,0-5.7-1.7-11.3-4.9-16.1l2.7-2.5c.3-.3.7-.4,1.1-.5,1.1-.2,1.8-.3,2.8-1.1,1.5-1.1,1.7-3.4.6-4.8-1.1-1.5-3.4-1.7-4.8-.6-.5.4-.9.9-1.2,1.5-.2.4-.3.7-.5,1.1-.2.3-.3.6-.7.8l-3.1,2.2c-4.5-4.8-10.5-7.7-17-8.5v-21.9c0-5.2.5-5.7,4.9-3.6M125.2,98.1l9.9,2.3c-1.6,4-4.4,7.4-8,9.8l-3.9-9.5c.8-.8,1.5-1.6,2.1-2.6M115.2,113.8v-9.9c.7,0,1.3,0,2-.2.2.2.2.5.4.7l4.5,8.2c-2.2.7-4.5,1.1-6.9,1.1M176.6,117.8c-4.8,5.9-6.9,8.7-11.7,14.6-5.4,6.7-9.8,12.2-15.1,19-3.9,4.8-6.6,5-13,5h-21.7v-35.5c3.5,0,7.1-.7,10.3-2l1.6,3c.2.4.2.7.2,1.2,0,1.1-.2,1.8.4,3,.8,1.7,2.9,2.4,4.5,1.6,1.7-.8,2.4-2.9,1.6-4.5-.2-.6-.7-1.1-1.1-1.5l-1-.7c-.3-.2-.5-.4-.7-.8l-1.4-3.3c5.7-3.4,10-8.7,12.3-14.9l32.4,7.4c6.3,1.6,5.8,3.9,2.1,8.5M416.8,116.6h-17.1v40.2h40.1v-17.2h-23v-23ZM503,116.7v22.8h-23c0,0,0,17.2,0,17.2h40.2v-40.2h-17.4l.2.2ZM399.7,76.4h17.3l-.2-.2v-22.8h23c0,0,0-17.2,0-17.2h-40.1v40.2ZM480,36.2v17.2h23v23h17.2v-40.2h-40.2Z"/>
  <path class="st0" d="M477.9,76.4l-23-23h25.1v-17.2h-40.2v17.3l22.8,22.9h15.3ZM457.2,116.6h-15.3l19,19,3.9,3.9h-25.1v17.2h40.2v-17.3l-11.4-11.5-11.4-11.4ZM503,76.4v25l-3.9-3.9-19-19v15.2l11.4,11.4,11.4,11.4h17.4v-40.1h-17.2ZM439.8,99.3l-22.8-22.8h-17.3v40.1h17.1v-25l23,22.9v-15.2Z"/>
  <path class="st1" d="M315.6,200.6l-4.3,5.2c-2-2.4-4.8-3.9-7.5-3.9-4.7,0-8.3,3.7-8.3,8.6s3.5,8.7,8.3,8.7,5.4-1.4,7.5-3.4l4.4,4.7c-3.2,3.3-7.9,5.4-12.2,5.4-8.9,0-15.6-6.6-15.6-15.3s6.8-15,15.8-15,8.9,2,11.9,5M319.3,225.4v-31.3h7.3v31.4h-7.3ZM355.7,214c0,7.1-5,11.6-12.5,11.6s-12.5-4.7-12.5-11.6,5-11.7,12.5-11.7,12.5,4.6,12.5,11.7M338.2,214.1c0,3.5,2.1,5.9,5.1,5.9s5.1-2.4,5.1-5.9-2.1-5.9-5.1-5.9-5.1,2.4-5.1,5.9M381.9,225.4h-7.3v-3.8c-1.6,2.7-4.1,4.1-7.4,4.1-4.9,0-8.2-3.4-8.2-8.7v-14.4h7.3v12.3c0,2.7,1.5,4.3,3.8,4.3,2.8,0,4.4-2.3,4.4-5.4v-11.2h7.3v22.7h0ZM410.7,225.4h-7.3v-3c-1.6,2.1-3.9,3.3-6.9,3.3-6.4,0-10.7-4.8-10.7-11.8s4.2-11.6,10.5-11.6,5.4,1.1,7.1,3.3v-11.5h7.3v31.3ZM403.4,214.1c0-3.5-2.1-5.9-5.1-5.9s-5.1,2.4-5.1,5.9c0,3.5,2.1,6,5.1,6s5.1-2.5,5.1-6M437.5,225.4l-13.6-18.2v18.2h-7.1v-29.6h6.6l13.7,18.3v-18.3h7.1v29.6h-6.7ZM470.2,210.6v14.9h-7.1v-2.7c-1.5,2-3.9,3-7,3-4.8,0-7.8-3-7.8-7.1s3.1-6.9,8.8-6.9h6v-.3c0-2.2-1.5-3.6-4.4-3.6s-4.4.7-6.8,1.9l-2.1-4.8c3.5-1.6,6.8-2.5,10.6-2.5,6.2,0,9.8,3.1,9.8,8.3ZM463,217.7v-2.1h-4.6c-2.2,0-3.3.7-3.3,2.5s1.1,2.7,3.2,2.7,4.2-1.2,4.7-3.1M489.9,224.3c-1.6,1-3.9,1.6-6.1,1.6-4.4,0-7.5-2.5-7.5-7.2v-10.1h-3.2v-4.8h3.2v-6.4h7.3v6.3h6v4.8h-6v8.9c0,1.8.7,2.5,2.1,2.5.7,0,1.7-.3,2.9-.7l1.3,5.1ZM501.2,196.1c0,2.3-1.6,3.9-3.9,3.9s-3.9-1.6-3.9-3.9,1.6-3.9,3.9-3.9,3.9,1.6,3.9,3.9M493.6,202.6h7.3v22.8h-7.3v-22.8ZM512.2,225.4l-8.6-22.8h7.5l4.9,16.2,4.9-16.2h7.3l-8.6,22.8h-7.5ZM552.5,216h-16.1c.7,2.7,2.7,4.3,5.4,4.3s3.9-.8,5.5-2.3l3.9,3.8c-2.3,2.5-5.7,4-9.9,4-7.5,0-12.1-4.7-12.1-11.6s4.8-11.7,11.9-11.7c8,0,12,5.3,11.5,13.5ZM545.5,212.1c0-2.8-1.8-4.6-4.4-4.6s-4.3,1.9-4.8,4.6h9.2ZM582.4,200.6l-4.3,5.2c-2-2.4-4.8-3.9-7.5-3.9-4.7,0-8.3,3.7-8.3,8.6s3.5,8.7,8.3,8.7,5.4-1.4,7.5-3.4l4.4,4.7c-3.2,3.3-7.9,5.4-12.2,5.4-8.9,0-15.6-6.6-15.6-15.3s6.8-15,15.8-15,8.9,2,11.9,5M608,214c0,7.1-5,11.6-12.5,11.6s-12.5-4.7-12.5-11.6,5-11.7,12.5-11.7,12.5,4.6,12.5,11.7M590.4,214.1c0,3.5,2.1,5.9,5.1,5.9s5.1-2.4,5.1-5.9-2.1-5.9-5.1-5.9-5.1,2.4-5.1,5.9M635.2,211.1v14.4h-7.3v-12.4c0-2.7-1.6-4.3-4-4.3s-4.3,1.9-4.7,4.6v12.1h-7.3v-22.8h7.3v3.7c1.6-2.7,4.3-4,7.6-4.1,5,.2,8.4,3.6,8.4,8.9Z"/>
  <rect class="st1" x="248.8" y="22.9" width="1.1" height="210.7"/>
  <rect class="st1" x="248.8" y="22.9" width="1.1" height="210.7"/>
  <rect class="st1" x="248.8" y="22.9" width="1.1" height="210.7"/>
  <path class="st1" d="M233.9,270.4c0-6.4,5.5-11.7,12.1-11.7s6.6,1.4,8.8,3.8l-3.5,3.2c-1.3-1.5-3.2-2.5-5.2-2.5-3.8,0-7,3.4-7,7.3s3.2,7.3,7,7.3,4-1,5.2-2.5l3.5,3.2c-2.2,2.3-5.3,3.8-8.8,3.8-6.5,0-12.1-5.4-12.1-11.7"/>
  <path class="st1" d="M274.3,270.9v10.8h-4.6v-9.8c0-2.1-1.4-3.6-3.3-3.6s-3.6,1.4-3.6,3.3v10.1h-4.8v-23h4.8v8.1c1.1-1.5,2.9-2.5,5.1-2.5,3.7,0,6.3,2.7,6.3,6.6"/>
  <path class="st1" d="M278.4,259.8c0-1.3,1.2-2.6,2.6-2.6s2.6,1.2,2.6,2.6-1.2,2.6-2.6,2.6-2.6-1.2-2.6-2.6M278.6,264.7h4.8v17h-4.8v-17Z"/>
  <path class="st1" d="M304.2,270.9v10.8h-4.6v-9.8c0-2.1-1.4-3.6-3.3-3.6s-3.6,1.4-3.6,3.3v10.1h-4.8v-17h4.8v2.1c1.1-1.5,2.9-2.5,5.1-2.5,3.7,0,6.3,2.7,6.3,6.6"/>
  <path class="st1" d="M323.2,271.6v10.2h-4.6v-1.7c-1.2,1.4-3.2,2.1-5,2.1-3.6,0-6.4-2.2-6.4-5.4s3.1-5.7,7-5.7,2.9.3,4.4.9v-.4c0-1.8-1.2-3.4-4-3.4s-3.1.5-4.4,1.2l-1.6-3.2c2.4-1.2,4.7-1.9,7.1-1.9,4.4,0,7.5,2.8,7.5,7.2M318.6,276.4v-1.5c-1.1-.4-2.4-.7-3.7-.7s-3.2,1-3.2,2.4,1.3,2.2,2.9,2.2,3.6-.9,4-2.4"/>
  <path class="st1" d="M335.4,277.8l8.3-6.5c2.7-2.1,3.6-3.6,3.6-5.2s-1.6-3-3.4-3-3.9,1.1-5.5,3l-3.1-3c2.2-2.8,5.1-4.4,8.8-4.4s8.3,3,8.3,7.2-1.3,5.4-5.3,8.2l-4.1,3.2h9.6v4.4h-17.1v-4Z"/>
  <path class="st1" d="M355.8,270.4c0-6.8,4.2-11.7,10.2-11.7s10.1,4.8,10.1,11.7-4.2,11.7-10.1,11.7-10.2-4.8-10.2-11.7M371.1,270.4c0-4.2-2.1-7.3-5.2-7.3s-5.2,3-5.2,7.3,2.1,7.3,5.2,7.3,5.2-3.1,5.2-7.3"/>
  <path class="st1" d="M379,277.8l8.3-6.5c2.7-2.1,3.6-3.6,3.6-5.2s-1.6-3-3.4-3-3.9,1.1-5.5,3l-3.1-3c2.2-2.8,5.1-4.4,8.8-4.4s8.3,3,8.3,7.2-1.3,5.4-5.3,8.2l-4.1,3.2h9.6v4.4h-17.1v-4Z"/>
  <path class="st1" d="M399.1,278.7l2.9-3.4c1.7,1.6,3.8,2.7,5.9,2.7s4.1-1.5,4.1-3.5-1.6-3.3-4.1-3.3-3.2.6-4.4,1.5l-3.3-1.3.3-12.2h15v4.4h-10.5v5c1-.8,2.4-1.4,4.3-1.4,4,0,7.5,2.6,7.5,7.2s-3.6,7.9-9,7.9-6.6-1.4-8.8-3.5"/>
  <rect class="st1" x="430.8" y="271.1" width="214" height="1.1"/>
  <rect class="st1" x="430.8" y="271.1" width="214" height="1.1"/>
  <rect class="st1" x="430.8" y="271.1" width="214" height="1.1"/>
  <rect class="st1" x="6.4" y="271.1" width="210.5" height="1.1"/>
  <rect class="st1" x="6.4" y="271.1" width="210.5" height="1.1"/>
  <rect class="st1" x="6.4" y="271.1" width="210.5" height="1.1"/>
</svg>