<?xml version="1.0" encoding="UTF-8"?><svg id="Layer_1" xmlns="http://www.w3.org/2000/svg" xmlns:xlink="http://www.w3.org/1999/xlink" viewBox="0 0 400 245"><defs><style>.cls-1{fill-rule:evenodd;}.cls-1,.cls-2,.cls-3{fill:#fff;}.cls-2{opacity:.75;}.cls-4{clip-path:url(#clippath-3);}.cls-5{clip-path:url(#clippath-4);}.cls-6{clip-path:url(#clippath-5);}.cls-7{opacity:.8;}</style><clipPath id="clippath-3"><rect id="SVGID-2" class="cls-3" x="263.52931" y="185.01111" width="129.49621" height=".63555"/></clipPath><clipPath id="clippath-4"><rect id="SVGID-4" class="cls-3" x="6.7136" y="185.01111" width="127.39796" height=".63555"/></clipPath><clipPath id="clippath-5"><rect id="SVGID-6" class="cls-3" x="151.11148" y="36.30509" width=".63556" height="127.51566"/></clipPath></defs><g class="cls-7"><path class="cls-3" d="M263.52931,185.01111h129.49621v.63555h-129.49621v-.63555Z"/><rect id="SVGID" class="cls-3" x="263.52931" y="185.01111" width="129.49621" height=".63555"/><g class="cls-4"><path class="cls-3" d="M263.52997,185.01111h129.49555v.63555h-129.49555v-.63555Z"/></g></g><g class="cls-7"><path class="cls-3" d="M6.7136,185.01111h127.39796v.63555H6.7136v-.63555Z"/><rect id="SVGID-3" class="cls-3" x="6.7136" y="185.01111" width="127.39796" height=".63555"/><g class="cls-5"><path class="cls-3" d="M6.7136,185.01111h127.39731v.63555H6.7136v-.63555Z"/></g></g><path class="cls-3" d="M112.86751,145.28887c.84024-.22949,1.69356-.4081,2.55531-.53486,1.0869-.16779,2.18526-.25021,3.28502-.24651.98894-.02934,1.97472.12542,2.90709.4564.71481.26216,1.3485.70694,1.83802,1.29008.46398.58099.79337,1.25764.96446,1.98121.19979.83662.29641,1.69455.2877,2.55465v7.74439h-3.88592v-7.27426c.07082-.91469-.09987-1.83193-.49498-2.65992-.43465-.57012-1.13872-.86742-1.85044-.78137-.27854,0-.5741.01177-.88664.03792-.31386.02703-.59197.05776-.83433.0922v10.58609h-3.88527v-13.24603ZM105.69917,151.65099c.05482-.99415-.19545-1.98132-.71729-2.82928-.45679-.67565-1.23184-1.06541-2.0466-1.02919-.81797-.03445-1.59611.35438-2.05967,1.02919-.5303.8448-.78527,1.83338-.72971,2.82928-.05243,1.00372.20235,1.99957.73037,2.85478.45491.6876,1.23585,1.08774,2.05967,1.05534.82066.03417,1.59854-.36694,2.0466-1.05534.51914-.85845.76878-1.85292.71663-2.85478M109.66226,151.65099c.01166,1.00589-.14707,2.00651-.46948,2.9594-.28728.85097-.74894,1.63264-1.35546,2.29507-.59534.63666-1.31987,1.1387-2.12506,1.47251-.88133.35823-1.82573.53546-2.77697.52113-.94242.01274-1.87774-.16449-2.75016-.52113-.80533-.33384-1.5299-.83614-2.12506-1.47316-.60911-.66501-1.07908-1.44511-1.38227-2.29442-.33905-.94934-.50665-1.95139-.49498-2.9594-.01304-1.00497.15919-2.00375.50805-2.94632.31193-.84307.79073-1.61455,1.40777-2.26826.60467-.62877,1.33256-1.12605,2.13814-1.46073,1.74098-.69467,3.68219-.69467,5.42317,0,.80293.33256,1.52694.83023,2.12506,1.46073.60865.65528,1.07861,1.42681,1.38162,2.26826.34036.94449.50824,1.94245.49563,2.94632M88.54501,158.89909c-2.9376,0-5.17557-.81667-6.7139-2.45003-1.53833-1.63468-2.30727-3.95523-2.30684-6.96171-.02301-1.36678.21581-2.72532.70356-4.00232.43071-1.11364,1.08748-2.12595,1.92891-2.97313.82977-.81585,1.82615-1.44262,2.92082-1.83736,1.17825-.42605,2.42318-.63797,3.67603-.62575.69891-.00525,1.39692.05142,2.08583.16935.55492.09663,1.10345.22699,1.64251.39036.40225.12177.79444.27458,1.17304.45706.31341.15606.53944.27768.67806.36486l-1.17304,3.28502c-.61874-.32001-1.26972-.57339-1.94198-.75587-.82057-.21941-1.66742-.3248-2.51673-.3132-.62578.00011-1.24703.10623-1.83736.31385-.59997.20829-1.14405.55169-1.59021,1.00369-.49211.50949-.86994,1.11803-1.10831,1.78505-.29877.85391-.44033,1.75489-.41783,2.65927-.00574.78648.08651,1.57062.27462,2.33431.16089.6766.4628,1.31162.88599,1.86352.42697.53609.97726.96097,1.60394,1.23842.75707.32378,1.57529.47971,2.39838.45706.53168.0034,1.0629-.03156,1.58955-.10462.42163-.05976.83964-.14271,1.25215-.24847.32956-.08342.65221-.19206.9651-.32497.2779-.12227.52963-.23473.75521-.34001l1.12204,3.25952c-.76187.42231-1.5781.73802-2.42585.9383-1.18476.29539-2.40283.43583-3.62373.41783M73.08561,150.29487c-.01635-.32698-.07301-.6507-.1687-.9638-.09156-.30485-.24244-.58861-.44398-.83498-.20755-.24996-.4647-.45413-.75521-.5996-.35411-.16739-.74298-.24807-1.13446-.23539-.38565-.00993-.76868.06601-1.12138.22231-.29972.13748-.56658.33745-.78268.58652-.212.25-.37544.5374-.4819.84741-.11231.31762-.19547.64482-.24847.97753h5.13677ZM63.96026,151.78111c-.0229-1.09089.16768-2.17572.56102-3.19348.33342-.85137.83437-1.62715,1.47316-2.28134.59639-.60095,1.31113-1.07143,2.09891-1.38162.77524-.31031,1.60257-.46988,2.43761-.47013,1.72227-.08855,3.40064.56121,4.61433,1.78636,1.13032,1.19003,1.69526,2.94109,1.69482,5.25316,0,.22538-.00872.47339-.02616.7441-.01459.23907-.03203.47796-.05231.71663h-8.81212c.0699.7702.48144,1.46849,1.12138,1.90275.79133.50618,1.72116.75219,2.65927.70356.7042.00098,1.40693-.06426,2.09891-.19485.57668-.09828,1.14069-.26012,1.68174-.48256l.52178,3.1549c-.26912.1273-.54842.23185-.83499.31255-.38144.11231-.76865.20399-1.15996.27462-.42632.07845-.88272.14341-1.3692.19485-.48498.0518-.97235.07799-1.46008.07846-1.09828.0236-2.19099-.16237-3.21964-.54794-.85702-.3272-1.63161-.83883-2.26892-1.49867-.60501-.64387-1.05891-1.4145-1.32865-2.25584-.29376-.90932-.43925-1.85999-.4309-2.81555M61.40693,151.67647c.01372,1.01154-.14937,2.01771-.4819,2.97313-.29742.84704-.77326,1.62035-1.39535,2.26761-.63184.64137-1.39741,1.13545-2.24211,1.447-.96836.35336-1.99346.52558-3.02413.50805-.46904,0-.96009-.02136-1.47316-.06408-.51263-.04359-1.01676-.10026-1.51239-.17-.49476-.06887-.96838-.1517-1.42085-.24847-.4516-.09503-.85133-.19465-1.19919-.29882v-19.16286l3.88462-.6264v6.83028c.43656-.19131.89075-.33957,1.35612-.44267.49694-.10693,1.0041-.15912,1.51239-.15562.88646-.01758,1.76636.15545,2.58015.5074.7314.32674,1.37462.82272,1.8766,1.447.52732.66924.91769,1.43577,1.14884,2.25584.2707.95384.40218,1.94179.39036,2.93324M57.4445,151.57247c0-2.50343-.92151-3.75472-2.76454-3.75384-.40028.0001-.79883.05264-1.18546.15627-.33547.08089-.65655.21275-.95203.39102v7.06502c.19136.03487.43482.06539.73037.09154.29554.02616.61703.03923.96445.03923.93263.05953,1.83325-.35127,2.39969-1.09457.57411-.85261.85714-1.86801.80687-2.89467M44.80134,158.06471c-.84046.22949-1.694.4081-2.55596.53486-1.08687.16805-2.18524.25069-3.28502.24717-.99.0296-1.97658-.1295-2.90709-.46882-.71635-.27211-1.34971-.72567-1.83802-1.31623-.46622-.59481-.79553-1.28512-.96445-2.02175-.19805-.84599-.29419-1.71264-.28639-2.58146v-7.63912h3.88462v7.1703c-.06505.93107.10516,1.86354.49498,2.71158.41511.59879,1.1269.91947,1.85044.83368.27855,0,.5754-.01177.8873-.03858.31298-.02615.59088-.05667.83368-.09154v-10.58543h3.88593v13.24536ZM26.86449,158.53419c-.36442-.59153-.79444-1.23058-1.29008-1.91714-.49563-.68612-1.03442-1.37269-1.61636-2.05967-.58238-.68612-1.18655-1.34653-1.81252-1.98121-.58834-.60083-1.21567-1.16219-1.8779-1.68044v7.63852h-4.06639v-18.06828h4.06705v6.83028c1.06013-1.11157,2.12506-2.27154,3.19479-3.47988,1.06842-1.20791,2.06338-2.32471,2.9849-3.35041h4.82357c-1.23494,1.45943-2.47336,2.86721-3.71527,4.22332-1.24278,1.35655-2.55095,2.72095-3.9245,4.0932,1.52923,1.28749,2.93064,2.71956,4.18474,4.27628,1.40863,1.73871,2.70191,3.56778,3.87154,5.47547l-4.82357-.00004Z"/><path class="cls-1" d="M59.4728,78.79985l-2.2323.47732c-.02267-.31691-.03422-.63447-.03466-.95268-.00339-2.38939.65472-4.73308,1.90144-6.77144l4.37306,3.90097.23474.20532c-.26964.66049-.43636,1.35844-.49432,2.06949-.1445.03923-.28901.07847-.43286.12031l-3.3151.95072ZM67.97764,65.51525v6.14307c-.60618.20336-1.18169.48869-1.71051.84806-.19583-.14715-.3933-.29209-.5924-.43482l-4.43975-3.15621c1.86009-1.77773,4.20736-2.96138,6.74266-3.4001M37.47936,79.66687c2.13683-9.36009,3.93431-17.23787,6.0705-26.59927.9651-4.22724,1.58366-5.30285,5.39178-7.49134l14.84995-8.53491c3.5178-2.02241,4.1867-1.87006,4.1867,2.43827v21.68089c-3.93139.50753-7.56819,2.35306-10.29905,5.22635l-1.87921-1.33519c-.21534-.14755-.37708-.3609-.46098-.6081-.16791-.5903-.5158-1.11351-.99519-1.4967-.89174-.71047-2.19059-.56353-2.90106.3282-.71003.89119-.56377,2.18912.32679,2.89994h0c.29856.24579.64641.42461,1.02003.5244.24651.06343.49367.08108.74214.12227.21067.0254.40794.11671.56363.26089l1.7589,1.56928c-1.93024,2.85605-2.95932,6.22549-2.95417,9.67265.00028.62099.03368,1.24151.10004,1.85894l-3.79569.81079c-.26489-.01492-.53052.01021-.78791.07454-.1915.04348-.37565.11462-.54663.2112-2.48796.5329-4.99815,1.07038-7.55608,1.62159-3.47334.74802-3.58907.06931-2.83451-3.23467M72.43504,71.65832v-6.14307c2.51742.43614,4.84979,1.60653,6.70409,3.36414l-4.84515,3.44522c-.06735.04838-.136.09743-.2027.14647-.51389-.34307-1.07105-.61638-1.65689-.81276M83.19507,78.877l-6.02537-1.37508c-.07379-.65341-.24023-1.29299-.49432-1.89948.05558-.04773.11116-.09677.16543-.14516l4.43322-3.95589c1.26676,2.05014,1.93615,4.41316,1.93282,6.82309,0,.18395-.00392.36812-.01177.55252M75.35652,45.7273l8.84353,4.25863,13.57426,6.53735,3.35237,14.68779,1.6909,7.40634c1.039,4.55614.93634,4.95238-3.76431,3.87873l-11.60743-2.64881c.04447-.50653.06692-1.01437.06735-1.52351.00505-3.46744-1.03641-6.85571-2.98817-9.72168l1.65363-1.47512c.19114-.17791.43526-.28837.69506-.31451.61283-.03252,1.20026-.25537,1.68044-.63752.89173-.71047,1.03868-2.00932.3282-2.90106-.71048-.89174-2.00932-1.03868-2.90106-.3282-.00047.00037-.00094.00075-.00141.00112h0c-.30577.23701-.55764.53635-.73887.87814-.11574.22558-.18831.46294-.28443.69702-.07153.19919-.20399.37078-.37859.4904l-1.87921,1.3365c-2.72782-2.85179-6.35049-4.68274-10.26439-5.18777v-13.24405c0-3.10652.27593-3.46353,2.92213-2.1898M71.38886,85.21558c-.76013.12917-1.53627.13315-2.29769.01177-.06866.12816-.13796.25762-.20858.38513l-2.78351,5.04915c2.68779.89138,5.59259.88427,8.27598-.02027l-2.75016-4.98704c-.0797-.14549-.15838-.29151-.23605-.43809M76.25559,81.84883l5.99791,1.3692c-.98779,2.42227-2.6806,4.49186-4.85888,5.94037l-2.38661-5.74552c.4882-.4593.9083-.98596,1.24757-1.56405M58.15919,83.21802l5.99857-1.3692c.35154.59949.79028,1.14335,1.30185,1.61374-.05449.12467-.10811.24999-.16085.37597l-2.22445,5.35647c-2.20491-1.44936-3.91864-3.53311-4.91511-5.97634M107.38746,93.76553l-7.05129,8.84158-9.15282,11.47862c-2.34607,2.94174-3.98466,3.03197-7.8562,3.03197h-26.31615c-5.04392,0-5.37413-.01439-8.45318-3.87547l-8.48195-10.63513c-2.384-2.98947-2.99471-3.75646-5.38001-6.74594-3.70938-4.65291-4.3129-6.30327,1.43197-7.61427l17.7917-4.06051c1.36929,3.78978,4.01429,6.98519,7.48154,9.03838l-.78398,1.88706c-.09564.24311-.26776.44852-.4904.58521-.53749.29544-.96964.7509-1.23646,1.30316-.49598,1.0266-.06583,2.26091.96078,2.75689,1.0266.49598,2.2609.06582,2.75689-.96078.00072-.00151.00145-.00301.00218-.00452.17296-.34598.26972-.72502.28378-1.11157.00654-.2537-.03073-.4989-.04577-.75064-.02214-.21092.02269-.42345.12816-.60744l1.01545-1.84129c4.02167,1.54076,8.47235,1.53237,12.48819-.02354l.99649,1.80663c.13041.22627.18366.48882.1517.74802-.10413.60461-.01752,1.22665.24781,1.77982.48136,1.03345,1.70935,1.48101,2.74281.99965,1.03345-.48136,1.48101-1.70935.99966-2.7428-.00067-.00142-.00133-.00284-.002-.00427-.00692-.01482-.01402-.02954-.02128-.04417-.16218-.35128-.39813-.66349-.69179-.91541-.19289-.16347-.40932-.2877-.61464-.43221-.1789-.11382-.31715-.28138-.39493-.47863l-.82387-1.98383c3.43958-2.05497,6.06235-5.23658,7.42334-9.00505l19.62579,4.48029c3.81007.86964,3.53087,2.26434,1.2685,5.10016"/><path class="cls-1" d="M72.43439,71.65832v-6.14307c2.51765.43602,4.85026,1.60642,6.70474,3.36414l-4.84515,3.44522c-.06735.04838-.136.09743-.2027.14647-.51389-.34307-1.07105-.61638-1.65689-.81276M83.19507,78.877l-6.02537-1.37508c-.07379-.65341-.24023-1.29299-.49432-1.89948.05558-.04773.11116-.09677.16543-.14516l4.43322-3.95589c1.26676,2.05014,1.93615,4.41316,1.93282,6.82309,0,.18395-.00392.36812-.01177.55252M75.35652,45.7273l8.84353,4.25863,13.57426,6.53735,3.35237,14.68779,1.6909,7.40634c1.039,4.55614.93634,4.95238-3.76431,3.87873l-11.60743-2.64881c.04447-.50653.06692-1.01437.06735-1.52351.00505-3.46744-1.03641-6.85571-2.98817-9.72168l1.65363-1.47512c.19114-.17791.43526-.28837.69506-.31451.61283-.03252,1.20026-.25537,1.68044-.63752.89173-.71047,1.03868-2.00932.3282-2.90106-.71048-.89174-2.00932-1.03868-2.90106-.3282-.00047.00037-.00094.00075-.00141.00112h0c-.30577.23701-.55764.53635-.73887.87814-.11574.22558-.18831.46294-.28443.69702-.07153.19919-.20399.37078-.37859.4904l-1.87921,1.3365c-2.72782-2.85179-6.35049-4.68274-10.26439-5.18777v-13.24405c0-3.10652.27593-3.46353,2.92213-2.1898M76.25558,81.84883l5.99792,1.3692c-.98779,2.42227-2.6806,4.49186-4.85888,5.94037l-2.38661-5.74552c.4882-.4593.9083-.98596,1.24757-1.56405M70.20602,91.32465v-6.00903c.39638-.00028.79205-.03375,1.18284-.10004.07847.14712.15627.29293.23605.43874l2.75016,4.98638c-1.3431.45377-2.75137.6848-4.16905.68394M107.38746,93.76618l-7.05129,8.84093-9.15282,11.47862c-2.34607,2.94174-3.98466,3.03197-7.8562,3.03197h-13.12113v-21.48735c2.14599.00211,4.27359-.3957,6.27385-1.17303l.99649,1.80663c.13041.22627.18366.48882.1517.74802-.10413.60461-.01752,1.22665.24781,1.77982.48336,1.03252,1.71221,1.4777,2.74473.99435,1.03123-.48275,1.47683-1.70934.99589-2.74143-.00697-.01493-.01412-.02976-.02144-.04451-.16218-.35128-.39813-.66349-.69179-.91541-.19289-.16347-.40932-.2877-.61464-.43221-.1789-.11382-.31715-.28138-.39493-.47863l-.82387-1.98383c3.43958-2.05497,6.06235-5.23658,7.42334-9.00505l19.62579,4.48029c3.81007.86964,3.53087,2.26434,1.2685,5.10016"/><path class="cls-3" d="M252.80597,93.02732h-10.42263v24.31466h24.31335v-10.42131h-13.89072v-13.89335ZM304.90472,93.10513v13.81553h-13.81619l-.07651-.0765v10.49782h24.31269v-24.31466h-10.49847l.07846.07781h.00002ZM242.38334,68.71658h10.49979l-.0778-.07912v-13.81684h13.81553l.07585.07781v-10.49782h-24.31337v24.31597ZM291.01202,44.40061v10.42001h13.8927v13.89596h10.42067v-24.31597h-24.31337Z"/><path class="cls-2" d="M289.7252,68.71658l-13.89531-13.89596h15.18147v-10.42001h-24.31467v10.49782l13.81749,13.81815h9.21102ZM277.19385,93.02732h-9.20904l11.51196,11.51393,2.38138,2.37942h-15.18211v10.42132h24.31596v-10.49782l-6.91005-6.9094-6.90808-6.90744h-.00002ZM304.9047,68.71658v15.17885l-2.38072-2.38073-11.51196-11.51131v9.21036l6.90614,6.90548,6.9081,6.9081h10.49847v-24.31074h-10.42003ZM266.69669,82.52885l-13.81358-13.81227h-10.49977v24.31074h10.42263v-15.1795l13.89072,13.89139v-9.21036Z"/><path class="cls-3" d="M191.53348,143.86083l-2.63965,3.12679c-1.09634-1.39194-2.7408-2.24206-4.51037-2.33168-2.76365.00181-5.00257,2.24364-5.00077,5.0073h0c.00004.06475.00136.12948.00393.19421,0,2.99863,2.15252,5.27866,4.99684,5.27866,1.71684-.09757,3.33099-.84942,4.51037-2.10087l2.66515,2.81816c-1.9515,2.01034-4.60618,3.18615-7.40634,3.28044-5.40683,0-9.43005-3.97223-9.43005-9.22474,0-5.17665,4.12589-9.07239,9.58436-9.07239,2.71055.02951,5.30284,1.11433,7.22653,3.02413ZM193.73896,158.92918v-19.01443h4.43321v19.01443h-4.43321ZM215.77753,152.00997c0,4.25405-3.02347,7.07287-7.53319,7.07287-4.53652,0-7.56001-2.81882-7.56001-7.07287s3.02347-7.04737,7.56001-7.04737c4.50972,0,7.53319,2.79397,7.53319,7.04737ZM205.14305,152.06097c0,2.15253,1.25543,3.58776,3.10129,3.58776,1.81906,0,3.07448-1.43524,3.07448-3.58776,0-2.12637-1.25543-3.58711-3.07448-3.58711-1.84586,0-3.10129,1.46073-3.10129,3.58711ZM231.61612,158.92918h-4.43321v-2.28069c-.90587,1.60544-2.64348,2.55861-4.48421,2.45984-2.99863,0-4.94584-2.05053-4.94584-5.27866v-8.71276h4.43321v7.45669c0,1.63989.89645,2.63966,2.30619,2.63966,1.6909-.0255,2.69065-1.40908,2.69065-3.2798v-6.81656h4.43321v13.81227ZM249.06911,158.92918h-4.43387v-1.81971c-.97577,1.30251-2.52467,2.0483-4.1514,1.99887-3.89508,0-6.45759-2.87047-6.45759-7.15002,0-4.2279,2.537-7.02122,6.35558-7.02122,1.65773-.06124,3.24259.68356,4.2534,1.99887v-7.02122h4.43321l.00066,19.01443ZM244.63524,152.06097c0-2.12637-1.22927-3.58711-3.07448-3.58711-1.84586,0-3.07579,1.46073-3.10064,3.5871.02484,2.12703,1.25543,3.61326,3.10064,3.61326,1.84457,0,3.0745-1.48623,3.0745-3.61325h-.00002Z"/><path class="cls-3" d="M265.29154,158.92918l-8.25179-11.0451v11.0451h-4.2789v-17.93817h4.02325l8.27663,11.06995v-11.06995h4.2547v17.93817h-4.02389ZM285.10238,149.9091v9.02008h-4.33057v-1.58889c-.89645,1.17827-2.35719,1.79355-4.2279,1.79355-2.94697,0-4.74053-1.79355-4.74053-4.33056,0-2.61416,1.87005-4.15205,5.3035-4.1769h3.63942v-.20531c0-1.35808-.89711-2.17802-2.69131-2.17802-1.4438.07255-2.85318.46661-4.12523,1.15342l-1.25543-2.92148c1.9879-1.00344,4.17927-1.53803,6.40592-1.56274,3.79242,0,5.9966,1.87006,6.0221,4.99684h.00002ZM280.74633,154.23965v-1.23058h-2.79332c-1.33258,0-1.99887.46163-1.99887,1.48689,0,.99911.71728,1.63989,1.94853,1.63989,1.26896.08817,2.43765-.69094,2.84432-1.89621h-.00066ZM297.04591,158.18574c-1.12828.62777-2.39928.9543-3.69043.9481-2.66515,0-4.58688-1.51174-4.58688-4.38156v-6.09926h-1.92171v-2.89597h1.92237v-3.84343h4.40705v3.81858h3.61326v2.92082h-3.61326v5.40748c0,1.07561.46097,1.53659,1.28157,1.51174.5959-.04553,1.17805-.2021,1.7164-.46163l.87163,3.07514ZM303.83762,141.14468c0,1.28776-1.04393,2.33169-2.33169,2.33169s-2.33167-1.04393-2.33167-2.33168c0-1.28751,1.04354-2.33133,2.33103-2.33169,1.244-.04411,2.28821.92859,2.33233,2.1726v.00002c.00188.05302.00188.10603-.00002.15906h.00002ZM299.27622,158.92918v-13.81227h4.40771v13.81226h-4.40771ZM310.55214,158.92918l-5.20215-13.81227h4.56138l2.97247,9.76287,2.99863-9.76287h4.40705l-5.20215,13.81226h-4.53522ZM334.89751,153.21438h-9.71185c.30838,1.53738,1.68746,2.62331,3.25428,2.56251,1.24591-.00947,2.43631-.51684,3.30597-1.40908l2.33235,2.28069c-1.56838,1.63306-3.75945,2.51877-6.0221,2.43435-4.51037,0-7.32983-2.81882-7.32983-7.02187,0-4.2789,2.92212-7.09837,7.20169-7.09837,4.8687,0,7.27751,3.20394,6.97021,8.25179h-.00072ZM330.64411,150.83104c.11981-1.41849-.93297-2.66552-2.35147-2.78533-.1043-.00882-.20906-.01126-.31368-.00733-1.53789,0-2.58867,1.12726-2.87048,2.79266h5.53563Z"/><path class="cls-3" d="M352.96583,143.86083l-2.63965,3.12679c-1.09618-1.39176-2.74038-2.24187-4.5097-2.33168-2.76365.00181-5.00257,2.24364-5.00077,5.0073h0c.00004.06476.00132.12949.00391.19421,0,2.99863,2.15252,5.27866,4.99686,5.27866,1.7166-.09775,3.33047-.84958,4.5097-2.10087l2.66515,2.81816c-1.95134,2.01019-4.60576,3.18598-7.40568,3.28044-5.40681,0-9.43005-3.97223-9.43005-9.22474,0-5.17665,4.12589-9.07239,9.5837-9.07239,2.71053.02951,5.30284,1.11433,7.22653,3.02413ZM368.47097,152.00997c0,4.25405-3.02349,7.07287-7.53383,7.07287-4.53588,0-7.56001-2.81882-7.56001-7.07287s3.02413-7.04737,7.56001-7.04737c4.51037,0,7.53383,2.79397,7.53383,7.04737ZM357.8365,152.06097c0,2.15253,1.25541,3.58776,3.10064,3.58776,1.81972,0,3.07513-1.43524,3.07513-3.58776,0-2.12637-1.25541-3.58711-3.07513-3.58711-1.84522,0-3.10064,1.46073-3.10064,3.58711ZM384.95035,150.21641v8.71276h-4.40773v-7.48284c0-1.61439-.94811-2.61416-2.43436-2.61416-1.61503,0-2.63965,1.15342-2.8188,2.79332v7.30368h-4.43323v-13.81227h4.43323v2.25453c.9727-1.60086,2.7411-2.54372,4.61238-2.45919,3.04963,0,5.04783,2.07537,5.04783,5.30416h.00068Z"/><g class="cls-7"><path class="cls-3" d="M151.11148,36.30509h.63556v127.51566h-.63556V36.30509Z"/><rect id="SVGID-5" class="cls-3" x="151.11148" y="36.30509" width=".63556" height="127.51566"/><g class="cls-6"><path class="cls-3" d="M151.11148,36.30509h.63556v127.51566h-.63556V36.30509Z"/></g></g><path class="cls-3" d="M147.76843,192.46334v-14.80651h3.13968v14.80651h-3.13968Z"/><path class="cls-3" d="M164.84361,192.46334h-3.08865v-6.61326c0-.8169-.14542-1.42964-.43566-1.83825s-.75295-.61275-1.38752-.61275c-.86424,0-1.48868.2887-1.8736.86578-.38493.57739-.57739,1.53449-.57739,2.87128v5.32719h-3.08865v-11.32278h2.35968l.41506,1.4484h.17217c.34434-.54695.81874-.96048,1.42288-1.24087.60445-.28009,1.29129-.42028,2.06115-.42028,1.3165,0,2.31572.35634,2.99764,1.0687s1.02289,1.74017,1.02289,3.08373v7.38311Z"/><path class="cls-3" d="M171.60906,192.66564c-1.33034,0-2.37505-.5159-3.13476-1.54924-.7594-1.03303-1.1391-2.46452-1.1391-4.29416,0-1.85669.38616-3.30325,1.1594-4.33966s1.83825-1.55478,3.19533-1.55478c1.42442,0,2.51156.55372,3.26113,1.66115h.10115c-.15526-.84395-.23274-1.5969-.23274-2.25853v-3.62576h3.0991v15.75868h-2.36983l-.59768-1.46838h-.13159c-.70222,1.1142-1.77245,1.67069-3.2104,1.67069ZM172.69251,190.20481c.79015,0,1.36877-.22936,1.73709-.68869.36771-.45902.56848-1.23872.6026-2.33939v-.3342c0-1.21535-.18754-2.08636-.56233-2.61302-.37447-.52666-.98415-.78984-1.82779-.78984-.68869,0-1.22396.29208-1.60551.87593-.38155.58416-.57217,1.43303-.57217,2.54723,0,1.11389.19246,1.94954.57739,2.50664.38493.55679.93496.83534,1.6507.83534Z"/><path class="cls-3" d="M181.01766,178.21363c0-1.00598.56048-1.50897,1.68114-1.50897,1.12096,0,1.68145.50299,1.68145,1.50897,0,.47962-.1402.85256-.42028,1.11912-.28039.26687-.70068.39999-1.26116.39999-1.12066,0-1.68114-.50637-1.68114-1.51911ZM184.2382,192.46334h-3.08865v-11.32278h3.08865v11.32278Z"/><path class="cls-3" d="M194.66999,192.46334l-.59768-1.5394h-.08117c-.5199.65487-1.05486,1.10897-1.6052,1.36231s-1.26762.37939-2.15215.37939c-1.08714,0-1.94278-.31052-2.56721-.93157-.62474-.62105-.9368-1.50558-.9368-2.6533,0-1.20182.42028-2.0879,1.26085-2.65852s2.10819-.88638,3.80285-.94695l1.96492-.06088v-.49623c0-1.14771-.58754-1.72172-1.76231-1.72172-.90483,0-1.9683.27363-3.19011.82028l-1.02289-2.08605c1.30297-.68193,2.74799-1.02289,4.33444-1.02289,1.51942,0,2.68404.33082,3.49417.99245s1.21535,1.66761,1.21535,3.01793v7.54514h-2.15707ZM193.7584,187.21731l-1.19506.04028c-.89806.02706-1.56646.18908-2.00519.48639-.43904.297-.65856.74926-.65856,1.35709,0,.87101.49961,1.30636,1.49913,1.30636.71544,0,1.2876-.20599,1.7165-.61767.42859-.41198.64319-.95863.64319-1.64086v-.93157Z"/><path class="cls-3" d="M214.95557,192.46334h-10.35063v-2.17736l3.71677-3.75735c1.10067-1.12773,1.81949-1.90927,2.15738-2.34462.33758-.43566.58047-.83903.72927-1.21043.14819-.37109.22259-.75602.22259-1.15448,0-.59399-.16356-1.03642-.491-1.32665-.32774-.29023-.76463-.43566-1.31158-.43566-.57401,0-1.13111.1319-1.67099.39507-.5405.26349-1.10405.63796-1.69159,1.12435l-1.70143-2.01565c.72927-.62105,1.33341-1.05978,1.81304-1.3165.47932-.25641,1.0026-.4541,1.56984-.59246.56694-.13835,1.20152-.20753,1.90373-.20753.92512,0,1.74201.16879,2.45099.50637.70898.33758,1.25932.81013,1.65101,1.41796.39138.60752.58723,1.30297.58723,2.08605,0,.68223-.11991,1.32173-.35941,1.91941-.23981.59738-.61121,1.21012-1.1142,1.83794-.50299.62812-1.38906,1.5228-2.65852,2.68404l-1.90404,1.79244v.14173h6.45154v2.63331Z"/><path class="cls-3" d="M226.71371,185.05993c0,2.58597-.42367,4.50015-1.271,5.74256-.84733,1.24241-2.15215,1.86315-3.91446,1.86315-1.70819,0-2.9961-.64103-3.86342-1.92402-.86793-1.28268-1.30144-3.17658-1.30144-5.68168,0-2.61271.42182-4.53858,1.26577-5.77761.84395-1.23903,2.14354-1.85854,3.89909-1.85854,1.70819,0,2.99949.64811,3.87388,1.94462.87439,1.29621,1.31158,3.19349,1.31158,5.69152ZM219.47233,185.05993c0,1.81642.15711,3.11785.47101,3.90431.31391.78677.84211,1.17999,1.58491,1.17999.72927,0,1.25594-.39846,1.57999-1.19506s.48608-2.09312.48608-3.88925c0-1.81611-.16356-3.12093-.491-3.91415-.32774-.79353-.85256-1.19014-1.57507-1.19014-.73573,0-1.26239.39661-1.57968,1.19014-.3176.79322-.47624,2.09804-.47624,3.91415Z"/><path class="cls-3" d="M238.63387,192.46334h-10.35063v-2.17736l3.71677-3.75735c1.10067-1.12773,1.81949-1.90927,2.15738-2.34462.33758-.43566.58047-.83903.72927-1.21043.14819-.37109.22259-.75602.22259-1.15448,0-.59399-.16356-1.03642-.491-1.32665-.32774-.29023-.76463-.43566-1.31158-.43566-.57401,0-1.13111.1319-1.67099.39507-.5405.26349-1.10405.63796-1.69159,1.12435l-1.70143-2.01565c.72927-.62105,1.33341-1.05978,1.81304-1.3165.47932-.25641,1.0026-.4541,1.56984-.59246.56694-.13835,1.20152-.20753,1.90373-.20753.92512,0,1.74201.16879,2.45099.50637.70898.33758,1.25932.81013,1.65101,1.41796.39138.60752.58723,1.30297.58723,2.08605,0,.68223-.11991,1.32173-.35941,1.91941-.23981.59738-.61121,1.21012-1.1142,1.83794-.50299.62812-1.38906,1.5228-2.65852,2.68404l-1.90404,1.79244v.14173h6.45154v2.63331Z"/><path class="cls-3" d="M250.80737,189.39468h-1.7826v3.06866h-3.05852v-3.06866h-6.31964v-2.17736l6.49182-9.56048h2.88634v9.30714h1.7826v2.4307ZM245.96625,186.96397v-2.51156c0-.41875.01691-1.02627.05073-1.82318.03351-.7966.06057-1.25901.08086-1.38722h-.08086c-.24996.55341-.55034,1.0936-.90144,1.62026l-2.71417,4.1017h3.56489Z"/></svg>