<?xml version="1.0" encoding="utf-8"?>
<!-- Generator: Adobe Illustrator 28.3.0, SVG Export Plug-In . SVG Version: 6.00 Build 0)  -->
<svg version="1.1" id="Layer_1" xmlns="http://www.w3.org/2000/svg" xmlns:xlink="http://www.w3.org/1999/xlink" x="0px" y="0px"
	 width="400px" height="245px" viewBox="0 0 400 245" style="enable-background:new 0 0 400 245;" xml:space="preserve">
<style type="text/css">
	.st0{fill-rule:evenodd;clip-rule:evenodd;}
	.st1{opacity:0.8;}
	.st2{clip-path:url(#SVGID_00000065062067077941365250000013115768383530175151_);}
	.st3{fill:#FFFFFF;}
	.st4{fill-rule:evenodd;clip-rule:evenodd;fill:#FFFFFF;}
	.st5{clip-path:url(#SVGID_00000147196858134042827250000005794256198712335780_);}
	.st6{fill:#111245;}
	.st7{fill-rule:evenodd;clip-rule:evenodd;fill:#111245;}
	.st8{clip-path:url(#SVGID_00000055702578508537110980000012071802279944840856_);}
</style>
<g>
	<path class="st3" d="M106.7,148.3c0.7-0.2,1.6-0.4,2.8-0.6c1.2-0.2,2.3-0.3,3.5-0.3c1,0,2.1,0.1,3.1,0.5c0.8,0.3,1.4,0.8,1.9,1.4
		c0.5,0.6,0.8,1.4,1,2.1c0.2,0.9,0.3,1.8,0.3,2.8v8.3h-4.1v-7.9c0.1-1-0.1-1.9-0.5-2.8c-0.3-0.5-1-0.8-2-0.8c-0.3,0-0.6,0-0.9,0.1
		c-0.3,0-0.6,0.1-0.9,0.1v11.3h-4.2V148.3z M99.1,155.1c0-1.1-0.2-2.1-0.7-3c-1-1.2-2.7-1.4-4-0.5c-0.2,0.1-0.3,0.3-0.5,0.5
		c-0.6,0.9-0.9,2-0.8,3c0,1.1,0.2,2.2,0.8,3.1c0.9,1.2,2.6,1.5,3.8,0.6c0.2-0.2,0.5-0.4,0.6-0.6C98.9,157.2,99.1,156.2,99.1,155.1
		 M103.3,155.1c0,1.1-0.1,2.1-0.5,3.2c-0.3,0.9-0.8,1.8-1.5,2.5c-1.3,1.5-3.3,2.2-5.2,2.1c-1,0-2-0.2-3-0.5
		c-0.9-0.4-1.6-0.9-2.3-1.6c-0.7-0.7-1.2-1.6-1.5-2.5c-0.7-2-0.7-4.3,0-6.3c0.3-0.9,0.8-1.7,1.5-2.4c0.6-0.7,1.4-1.2,2.3-1.5
		c0.9-0.4,1.9-0.6,2.9-0.5c1,0,2,0.2,2.9,0.5c0.8,0.4,1.6,0.9,2.3,1.5c0.6,0.7,1.1,1.5,1.5,2.4C103.1,152.9,103.3,154,103.3,155.1
		 M80.7,162.9c-3.2,0-5.6-0.9-7.2-2.6c-1.7-1.7-2.5-4.2-2.5-7.5c0-1.5,0.2-2.9,0.7-4.3c0.9-2.4,2.8-4.3,5.2-5.1
		c1.3-0.5,2.6-0.7,4-0.7c0.7,0,1.5,0.1,2.2,0.2c0.7,0.1,1.3,0.3,1.7,0.4c0.4,0.1,0.9,0.3,1.3,0.5c0.3,0.1,0.5,0.2,0.7,0.4l-1.3,3.5
		c-0.7-0.4-1.4-0.6-2.1-0.8c-0.9-0.2-1.8-0.3-2.7-0.3c-0.7,0-1.3,0.1-1.9,0.3c-0.6,0.2-1.2,0.6-1.7,1.1c-0.5,0.6-0.9,1.2-1.2,1.9
		c-0.3,0.9-0.5,1.9-0.5,2.8c0,0.8,0.1,1.7,0.3,2.5c0.2,0.7,0.5,1.4,0.9,2c0.5,0.6,1.1,1,1.7,1.3c0.8,0.3,1.7,0.5,2.6,0.5
		c0.6,0,1.1-0.1,1.7-0.1c0.5,0,0.9-0.1,1.3-0.3c0.3-0.1,0.7-0.2,1-0.3c0.3-0.1,0.5-0.3,0.8-0.3l1.2,3.5c-0.8,0.5-1.7,0.8-2.6,1
		C83.3,162.8,82,162.9,80.7,162.9 M64.1,153.7c0-0.3-0.1-0.7-0.2-1c-0.1-0.3-0.3-0.6-0.5-0.9c-0.2-0.3-0.5-0.5-0.8-0.7
		c-0.4-0.2-0.8-0.3-1.2-0.3c-0.4,0-0.8,0.1-1.2,0.3c-0.3,0.1-0.6,0.3-0.8,0.6c-0.2,0.3-0.4,0.6-0.5,0.9c-0.1,0.3-0.2,0.7-0.3,1.1
		L64.1,153.7L64.1,153.7z M54.4,155.2c0-1.2,0.2-2.3,0.6-3.4c0.3-0.9,0.9-1.7,1.6-2.4c0.6-0.6,1.4-1.1,2.2-1.5
		c0.8-0.3,1.7-0.5,2.6-0.5c1.8-0.1,3.7,0.6,5,1.9c1.2,1.3,1.8,3.2,1.8,5.6v0.8c0,0.3-0.1,0.5-0.1,0.7h-9.5c0,0.8,0.5,1.6,1.2,2
		c0.8,0.5,1.8,0.8,2.8,0.7c0.7,0,1.5-0.1,2.2-0.2c0.6-0.1,1.2-0.3,1.8-0.5l0.5,3.4c-0.3,0.1-0.6,0.2-0.9,0.3
		c-0.4,0.1-0.8,0.2-1.3,0.3c-0.5,0.1-0.9,0.1-1.5,0.2c-0.5,0.1-1,0.1-1.5,0.1c-1.2,0-2.3-0.2-3.4-0.6c-0.9-0.3-1.7-0.9-2.4-1.6
		c-0.7-0.7-1.2-1.5-1.4-2.4C54.5,157.2,54.3,156.2,54.4,155.2 M51.6,155.2c0,1.1-0.2,2.1-0.5,3.2c-0.3,0.9-0.8,1.7-1.5,2.4
		c-0.7,0.7-1.5,1.2-2.4,1.5c-1,0.4-2.1,0.5-3.2,0.5c-0.5,0-1.1,0-1.6-0.1l-1.6-0.2c-0.5-0.1-1-0.1-1.5-0.3c-0.5-0.1-0.9-0.2-1.3-0.3
		v-20.5l4.2-0.7v7.3c0.5-0.2,1-0.4,1.5-0.5c0.5-0.1,1.1-0.2,1.6-0.1c0.9,0,1.9,0.2,2.8,0.5c0.8,0.3,1.5,0.9,2,1.5
		c0.6,0.7,1,1.5,1.2,2.4C51.5,153,51.6,154.1,51.6,155.2 M47.4,155c0-2.7-1-4-3-4c-0.4,0-0.9,0.1-1.3,0.1c-0.3,0.1-0.7,0.2-1,0.4
		v7.6c0.3,0.1,0.5,0.1,0.8,0.1c0.3,0,0.7,0.1,1,0.1c1,0.1,1.9-0.4,2.6-1.1C47.1,157.2,47.4,156.1,47.4,155 M33.8,162
		c-0.7,0.2-1.6,0.4-2.8,0.6c-1.2,0.2-2.3,0.3-3.5,0.3c-1.1,0-2.1-0.1-3.1-0.5c-0.8-0.3-1.4-0.8-1.9-1.4c-0.5-0.6-0.8-1.4-1-2.1
		c-0.2-0.9-0.3-1.8-0.3-2.8v-8.2h4.1v7.7c-0.1,1,0.1,2,0.5,2.9c0.3,0.6,1,0.9,2,0.9c0.3,0,0.6,0,0.9-0.1c0.3,0,0.6-0.1,0.9-0.1
		v-11.3h4.2V162z M14.6,162.5c-0.4-0.6-0.9-1.3-1.4-2.1c-0.5-0.8-1.1-1.5-1.7-2.2c-0.6-0.7-1.3-1.4-1.9-2.1c-0.6-0.6-1.3-1.2-2-1.8
		v8.2H3.2v-19.3h4.4v7.3c1.1-1.2,2.3-2.4,3.4-3.8c1.1-1.3,2.2-2.5,3.2-3.6h5.2c-1.3,1.5-2.6,3.1-4,4.5c-1.3,1.5-2.8,2.9-4.2,4.4
		c1.6,1.4,3.1,2.9,4.5,4.6c1.5,1.9,2.9,3.8,4.2,5.8h-5.2L14.6,162.5z"/>
	<path class="st4" d="M49.5,77.1l-2.4,0.5c0-0.3-0.1-0.7-0.1-1c0-2.6,0.7-5.1,2-7.2l4.7,4.2c0.1,0.1,0.2,0.2,0.3,0.2
		c-0.3,0.7-0.5,1.5-0.5,2.2C53.4,76,53.2,76,53,76.1L49.5,77.1z M58.7,62.9v6.6c-0.7,0.2-1.3,0.5-1.8,0.9c-0.2-0.1-0.4-0.3-0.6-0.5
		l-4.8-3.4C53.4,64.6,55.9,63.3,58.7,62.9 M26,78c2.3-10,4.2-18.5,6.5-28.5c1-4.5,1.7-5.7,5.8-8.1c5.6-3.3,9.9-5.6,15.9-9.1
		c3.8-2.1,4.5-2,4.5,2.6v23.2c-4.2,0.5-8.1,2.5-11,5.6l-2-1.4c-0.2-0.1-0.4-0.4-0.5-0.7c-0.2-0.6-0.6-1.2-1.1-1.6
		c-0.9-0.8-2.3-0.6-3.1,0.3c-0.8,0.9-0.6,2.3,0.3,3.1c0.3,0.3,0.7,0.5,1.1,0.5c0.3,0.1,0.5,0.1,0.8,0.1c0.2,0,0.4,0.1,0.6,0.3
		l1.9,1.7c-2.1,3.1-3.2,6.7-3.2,10.3c0,0.7,0.1,1.3,0.1,2l-4.1,0.9c-0.3,0-0.6,0-0.9,0.1l-0.6,0.2c-2.7,0.5-5.4,1.1-8.1,1.7
		C25.3,82.3,25.2,81.5,26,78 M63.4,69.4v-6.6c2.7,0.5,5.2,1.7,7.2,3.6l-5.2,3.7c-0.1,0.1-0.1,0.1-0.2,0.1
		C64.7,69.9,64.1,69.7,63.4,69.4 M75,77.2l-6.4-1.5c-0.1-0.7-0.2-1.4-0.5-2c0.1-0.1,0.1-0.1,0.2-0.1l4.8-4.2
		c1.4,2.2,2.1,4.7,2.1,7.3C75,76.8,75,77,75,77.2 M66.6,41.7c3.5,1.7,6,2.9,9.5,4.6c4.8,2.3,9.7,4.7,14.6,7
		c1.2,5.2,2.4,10.5,3.6,15.7c0.7,3.2,1.1,4.8,1.8,7.9c1.1,4.9,1,5.3-4,4.2l-12.4-2.8c0.1-0.5,0.1-1.1,0.1-1.6
		c0-3.7-1.1-7.4-3.2-10.4l1.7-1.6c0.2-0.2,0.5-0.3,0.7-0.3c0.7,0,1.3-0.3,1.8-0.7c0.9-0.8,1.1-2.1,0.3-3.1c-0.8-0.9-2.1-1.1-3.1-0.3
		l0,0c-0.3,0.2-0.6,0.6-0.8,0.9c-0.1,0.3-0.2,0.5-0.3,0.7c-0.1,0.2-0.2,0.4-0.4,0.5l-2,1.4c-2.9-3.1-6.8-5-11-5.6V44
		C63.4,40.7,63.7,40.3,66.6,41.7 M62.3,83.9c-0.4,0.1-0.8,0.1-1.3,0.1c-0.4,0-0.8,0-1.2-0.1l-0.2,0.4l-3,5.4
		c1.4,0.5,2.9,0.7,4.4,0.7c1.5,0,3-0.3,4.5-0.7l-3-5.4C62.5,84.3,62.4,84.1,62.3,83.9 M67.5,80.4l6.4,1.5c-1.1,2.6-2.9,4.8-5.2,6.4
		l-2.6-6.2C66.7,81.6,67.1,81,67.5,80.4 M48.1,81.8l6.4-1.5c0.4,0.6,0.9,1.2,1.4,1.7l-0.2,0.4l-2.3,5.8C51,86.7,49.2,84.4,48.1,81.8
		 M100.9,93.1c-3.1,3.8-4.5,5.6-7.6,9.5c-3.5,4.4-6.3,7.9-9.8,12.3c-2.5,3.2-4.3,3.2-8.4,3.2H46.9c-5.4,0-5.8,0-9.1-4.2
		c-3.3-4.1-5.8-7.3-9.1-11.4c-2.6-3.2-3.2-4-5.8-7.2c-4-5-4.6-6.8,1.5-8.1l19.1-4.3c1.5,4,4.3,7.4,8,9.7l-0.9,2
		c-0.1,0.3-0.3,0.5-0.5,0.6c-0.6,0.3-1.1,0.8-1.3,1.4c-0.5,1.1-0.1,2.4,1,3c1.1,0.5,2.4,0.1,3-1l0,0c0.2-0.4,0.3-0.8,0.3-1.2
		c0-0.3,0-0.5-0.1-0.8c0-0.2,0-0.5,0.1-0.7l1.1-1.9c2.1,0.8,4.4,1.2,6.6,1.2c2.3,0,4.6-0.4,6.7-1.3l1.1,1.9c0.1,0.2,0.2,0.5,0.1,0.8
		c-0.1,0.6,0,1.3,0.3,1.9c0.5,1.1,1.9,1.5,3,1c1.1-0.5,1.5-1.9,1-3l0,0c-0.2-0.4-0.4-0.7-0.7-1c-0.2-0.2-0.4-0.3-0.7-0.5
		c-0.2-0.1-0.3-0.3-0.4-0.5l-0.9-2.1c3.7-2.2,6.5-5.6,7.9-9.7l21,4.8C103.6,88.6,103.3,90.1,100.9,93.1"/>
	<path class="st4" d="M63.4,69.4v-6.6c2.7,0.5,5.2,1.7,7.2,3.6l-5.2,3.7c-0.1,0.1-0.1,0.1-0.2,0.1C64.7,69.9,64.1,69.7,63.4,69.4
		 M75,77.2l-6.4-1.5c-0.1-0.7-0.2-1.4-0.5-2c0.1-0.1,0.1-0.1,0.2-0.1l4.8-4.2c1.4,2.2,2.1,4.7,2.1,7.3C75,76.8,75,77,75,77.2
		 M66.6,41.7c3.5,1.7,6,2.9,9.5,4.6c4.8,2.3,9.7,4.7,14.6,7c1.2,5.2,2.4,10.5,3.6,15.7c0.7,3.2,1.1,4.8,1.8,7.9c1.1,4.9,1,5.3-4,4.2
		l-12.4-2.8c0.1-0.5,0.1-1.1,0.1-1.6c0-3.7-1.1-7.4-3.2-10.4l1.7-1.6c0.2-0.2,0.5-0.3,0.7-0.3c0.7,0,1.3-0.3,1.8-0.7
		c0.9-0.8,1.1-2.1,0.3-3.1s-2.1-1.1-3.1-0.3l0,0c-0.3,0.2-0.6,0.6-0.8,0.9c-0.1,0.3-0.2,0.5-0.3,0.7c-0.1,0.2-0.2,0.4-0.4,0.5
		l-2,1.4c-2.9-3.1-6.8-5-11-5.6V44C63.4,40.7,63.7,40.3,66.6,41.7 M67.5,80.4l6.4,1.5c-1.1,2.6-2.9,4.8-5.2,6.4l-2.6-6.2
		C66.7,81.6,67.1,81,67.5,80.4 M61,90.5v-6.4c0.4,0,0.9-0.1,1.3-0.1c0.1,0.2,0.2,0.3,0.3,0.5l3,5.4C64.1,90.3,62.5,90.5,61,90.5
		 M100.9,93.1c-3.1,3.8-4.5,5.6-7.6,9.5c-3.5,4.4-6.3,7.9-9.8,12.3c-2.5,3.2-4.3,3.2-8.4,3.2h-14v-23c2.3,0,4.6-0.4,6.7-1.3l1.1,1.9
		c0.1,0.2,0.2,0.5,0.1,0.8c-0.1,0.6,0,1.3,0.3,1.9c0.5,1.1,1.9,1.5,3,1c1.1-0.5,1.5-1.9,1-2.9c-0.2-0.4-0.4-0.7-0.7-1
		c-0.2-0.2-0.4-0.3-0.7-0.5c-0.2-0.1-0.3-0.3-0.4-0.5l-0.9-2.1c3.7-2.2,6.5-5.6,7.9-9.7l21,4.8C103.6,88.6,103.3,90.1,100.9,93.1"/>
	<path class="st3" d="M256.6,92.3h-11.1v26h26v-11.1h-14.8V92.3z M312.4,92.4v14.8h-14.8l-0.1-0.1v11.3h26v-26L312.4,92.4
		C312.3,92.3,312.4,92.4,312.4,92.4z M245.5,66.3h11.2l-0.1-0.1V51.4h14.8l0.1,0.1V40.2h-26V66.3z M297.5,40.2v11.1h14.9v14.9h11.1
		v-26C323.5,40.2,297.5,40.2,297.5,40.2z"/>
	<g class="st1">
		<path class="st3" d="M296.1,66.3l-14.9-14.9h16.2V40.2h-26v11.3l14.8,14.8L296.1,66.3z M282.7,92.3h-9.9l12.4,12.4l2.6,2.6h-16.3
			v11.1h26v-11.3l-7.4-7.4L282.7,92.3z M312.4,66.3v16.2l-2.6-2.6l-12.4-12.3v9.9l7.5,7.4l7.4,7.4h11.2v-26
			C323.5,66.3,312.4,66.3,312.4,66.3z M271.4,81.1l-14.8-14.8h-11.3v26h11.2V76.1l14.8,14.8L271.4,81.1z"/>
	</g>
	<path class="st3" d="M191,146.8l-2.8,3.4c-1.2-1.5-2.9-2.4-4.8-2.5c-3,0-5.4,2.4-5.4,5.4c0,0.1,0,0.1,0,0.2c0,3.2,2.3,5.6,5.4,5.6
		c1.8-0.1,3.6-0.9,4.8-2.3l2.9,3c-2.1,2.1-4.9,3.4-7.9,3.5c-5.8,0-10.1-4.2-10.1-9.9c0-5.6,4.4-9.7,10.3-9.7
		C186.2,143.6,188.9,144.8,191,146.8L191,146.8z M193.3,162.9v-20.3h4.8v20.3H193.3z M216.9,155.5c0,4.6-3.2,7.6-8.1,7.6
		s-8.1-3-8.1-7.6c0-4.6,3.2-7.5,8.1-7.5C213.7,148,216.9,150.9,216.9,155.5L216.9,155.5z M205.5,155.6c0,2.3,1.3,3.8,3.3,3.8
		c1.9,0,3.3-1.5,3.3-3.8c0-2.3-1.3-3.8-3.3-3.8C206.9,151.7,205.5,153.3,205.5,155.6L205.5,155.6z M233.9,162.9h-4.8v-2.4
		c-1,1.7-2.9,2.7-4.8,2.6c-3.2,0-5.3-2.2-5.3-5.6v-9.3h4.8v8c0,1.7,0.9,2.8,2.5,2.8c1.8,0,2.9-1.5,2.9-3.5v-7.3h4.8V162.9z
		 M252.6,162.9h-4.8v-1.9c-1.1,1.4-2.7,2.2-4.4,2.1c-4.2,0-6.9-3.1-6.9-7.7c0-4.5,2.7-7.5,6.8-7.5c1.8-0.1,3.5,0.7,4.6,2.1v-7.5h4.8
		V162.9z M247.8,155.6c0-2.3-1.3-3.8-3.3-3.8c-1.9,0-3.3,1.5-3.3,3.8c0,2.3,1.3,3.9,3.3,3.9C246.5,159.4,247.8,157.8,247.8,155.6z
		 M270,162.9l-8.9-11.8v11.8h-4.6v-19.2h4.3l8.9,11.9v-11.9h4.6v19.2H270z M291.2,153.2v9.7h-4.6v-1.7c-0.9,1.3-2.6,1.9-4.5,1.9
		c-3.2,0-5.1-1.9-5.1-4.6c0-2.8,2-4.4,5.7-4.5h3.9v-0.2c0-1.5-0.9-2.3-2.9-2.3c-1.5,0.1-3.1,0.5-4.4,1.2l-1.3-3.2
		c2.1-1.1,4.5-1.7,6.8-1.7C288.8,147.9,291.2,149.9,291.2,153.2z M286.6,157.9v-1.3h-3c-1.4,0-2.1,0.5-2.1,1.6
		c0,1.1,0.7,1.7,2.1,1.7C284.8,160,286.1,159.2,286.6,157.9z M304,162.1c-1.2,0.7-2.6,1-4,1c-2.9,0-4.9-1.6-4.9-4.7v-6.5h-2.1v-3.1
		h2.1v-4.1h4.7v4.1h3.9v3.2h-3.9v5.8c0,1.1,0.5,1.7,1.3,1.6c0.6-0.1,1.2-0.2,1.8-0.5L304,162.1z M311.3,143.9c0.1,1.4-1,2.5-2.4,2.5
		c0,0-0.1,0-0.1,0c-1.4,0-2.5-1.2-2.5-2.6c0-1.4,1.1-2.5,2.5-2.5c1.3-0.1,2.4,0.9,2.5,2.2C311.3,143.7,311.3,143.8,311.3,143.9
		L311.3,143.9z M306.4,162.9v-14.8h4.7v14.8H306.4z M318.4,162.9l-5.6-14.8h4.9l3.2,10.5l3.2-10.5h4.7l-5.6,14.8H318.4z
		 M344.5,156.8h-10.4c0.3,1.6,1.8,2.8,3.5,2.8c1.3,0,2.6-0.6,3.6-1.5l2.5,2.4c-1.7,1.8-4,2.7-6.4,2.6c-4.8,0-7.9-3-7.9-7.5
		c0-4.6,3.2-7.6,7.7-7.6C342.3,148,344.8,151.4,344.5,156.8L344.5,156.8z M340,154.2c0.1-1.5-1-2.9-2.5-3c-0.1,0-0.2,0-0.3,0
		c-1.7,0-2.8,1.2-3.1,3H340z M363.9,146.8l-2.8,3.4c-1.2-1.5-2.9-2.4-4.8-2.5c-3,0-5.4,2.4-5.4,5.4c0,0.1,0,0.1,0,0.2
		c0,3.2,2.3,5.6,5.4,5.6c1.8-0.1,3.6-0.9,4.8-2.3l2.9,3c-2.1,2.1-4.9,3.4-7.9,3.5c-5.8,0-10.1-4.2-10.1-9.9c0-5.6,4.4-9.7,10.3-9.7
		C359.1,143.6,361.8,144.8,363.9,146.8z M380.5,155.5c0,4.6-3.2,7.6-8.1,7.6s-8.1-3-8.1-7.6c0-4.6,3.2-7.5,8.1-7.5
		C377.2,148,380.5,150.9,380.5,155.5z M369.1,155.6c0,2.3,1.3,3.8,3.3,3.8c1.9,0,3.3-1.5,3.3-3.8c0-2.3-1.3-3.8-3.3-3.8
		C370.5,151.7,369.1,153.3,369.1,155.6L369.1,155.6z M398.1,153.6v9.3h-4.7v-8c0-1.7-1-2.8-2.6-2.8c-1.7,0-2.8,1.2-3,3v7.9H383
		v-14.8h4.8v2.4c1-1.7,3-2.7,5-2.6C396,147.9,398.1,150.1,398.1,153.6L398.1,153.6z"/>
	<g id="b_00000024691218882552778000000002336424844393309064_">
		<path class="st3" d="M147.7,31.6h0.7v136.6h-0.7V31.6z"/>
	</g>
	<path class="st3" d="M147.7,31.6h0.7v136.6h-0.7V31.6z"/>
	<g>
		<path class="st3" d="M147.7,31.6h0.7v136.6h-0.7V31.6z"/>
		<g>
			<defs>
				<rect id="SVGID_00000091713371252373075470000005590703400705021347_" x="147.7" y="31.6" width="0.7" height="136.6"/>
			</defs>
			<use xlink:href="#SVGID_00000091713371252373075470000005590703400705021347_"  style="overflow:visible;fill:#FFFFFF;"/>
			<clipPath id="SVGID_00000172412585018182953120000009395135640996239755_">
				<use xlink:href="#SVGID_00000091713371252373075470000005590703400705021347_"  style="overflow:visible;"/>
			</clipPath>
			<g style="clip-path:url(#SVGID_00000172412585018182953120000009395135640996239755_);">
				<path class="st3" d="M147.7,31.6h0.7v136.6h-0.7V31.6z"/>
			</g>
		</g>
	</g>
</g>
<g>
	<path class="st3" d="M318.1,192.2h80v0.5h-80V192.2z"/>
	<path class="st3" d="M2.1,192.2h80v0.5h-80V192.2z"/>
	<g>
		<path class="st3" d="M88.7,184h3.8l6.6,8.9V184h3.7v15.1h-3.7l-6.6-8.9v8.9h-3.8V184z"/>
		<path class="st3" d="M105.3,193.5c0-3.3,2.8-5.9,6.3-5.9c3.5,0,6.3,2.7,6.3,5.9c0,3.3-2.8,6-6.3,6
			C108.1,199.4,105.3,196.8,105.3,193.5z M114.4,193.5c0-1.6-1.2-2.8-2.8-2.8c-1.5,0-2.8,1.3-2.8,2.8s1.3,2.9,2.8,2.9
			C113.2,196.3,114.4,195,114.4,193.5z"/>
		<path class="st3" d="M127.5,187.5v3.1c-2.3,0-3.7,1.3-3.7,3.4v5.1h-3.7v-11.4h3.7v2.1C124.5,188.4,125.9,187.5,127.5,187.5z"/>
		<path class="st3" d="M136.8,198.4c-0.7,0.6-1.8,1.1-2.8,1.1c-2.1,0-3.6-1.5-3.6-3.7v-5h-1.5v-3h1.5v-3.1h3.6v3.1h2.4v3h-2.4v4.3
			c0,0.7,0.4,1.2,1,1.2c0.4,0,0.8-0.2,1.1-0.4L136.8,198.4z"/>
		<path class="st3" d="M150,191.9v7.2h-3.6v-6.4c0-1.3-0.8-2.1-1.9-2.1c-1.1,0-2,0.9-2,2v6.6h-3.7v-15.4h3.7v5.3
			c0.7-0.9,1.9-1.5,3.3-1.5C148.3,187.5,150,189.4,150,191.9z"/>
		<path class="st3" d="M168.8,196.9h-5.9l-0.9,2.3h-4.2l6-15.1h4.2l6,15.1h-4.2L168.8,196.9z M167.7,194l-1.8-4.6l-1.8,4.6H167.7z"
			/>
		<path class="st3" d="M194.3,191.9v7.3h-3.6v-6.6c0-1.1-0.7-2-1.8-2c-1.1,0-1.9,0.8-1.9,1.8v6.8h-3.6v-6.6c0-1.1-0.7-2-1.8-2
			c-1.1,0-1.9,0.8-1.9,1.8v6.7H176v-11.4h3.7v1.4c0.6-1,1.7-1.7,3-1.7c1.8,0,3.3,1,3.9,2.6c0.3-1.6,1.6-2.6,3.3-2.6
			C192.4,187.5,194.3,189.4,194.3,191.9z"/>
		<path class="st3" d="M205,195.6l2.1,2.1c-1,1-3,1.8-4.7,1.8c-3.5,0-6.2-2.5-6.2-6c0-3.5,2.6-5.9,6-5.9c3.6,0,5.8,2.6,5.8,6.9h-8.3
			c0.3,1.3,1.2,2.2,2.5,2.2C203.2,196.6,204.3,196.2,205,195.6z M199.8,192.3h4.7c-0.3-1.2-1.1-2-2.2-2
			C201,190.4,200.1,191.1,199.8,192.3z"/>
		<path class="st3" d="M217.5,187.5v3.1c-2.3,0-3.7,1.3-3.7,3.4v5.1h-3.7v-11.4h3.7v2.1C214.5,188.4,215.9,187.5,217.5,187.5z"/>
		<path class="st3" d="M219.7,184.4c0-1,0.9-1.9,2-1.9c1.1,0,1.9,0.9,1.9,1.9c0,1.1-0.9,2-1.9,2
			C220.5,186.4,219.7,185.5,219.7,184.4z M219.8,187.8h3.7v11.4h-3.7V187.8z"/>
		<path class="st3" d="M225.6,193.5c0-3.2,2.9-5.9,6.3-5.9c1.9,0,3.5,0.8,4.6,2l-2.5,2c-0.5-0.6-1.3-1-2.2-1c-1.5,0-2.7,1.3-2.7,2.8
			c0,1.6,1.2,2.9,2.7,2.9c0.8,0,1.7-0.4,2.2-1l2.5,2c-1.1,1.3-2.7,2.1-4.7,2.1C228.5,199.4,225.6,196.7,225.6,193.5z"/>
		<path class="st3" d="M248.7,192.4v6.8h-3.6v-1c-0.8,0.8-2,1.3-3.2,1.3c-2.4,0-4.3-1.5-4.3-3.6c0-2.2,2.1-3.8,4.8-3.8
			c0.8,0,1.8,0.2,2.7,0.6v-0.2c0-1.1-0.8-1.9-2.5-1.9c-1,0-2,0.3-2.8,0.7l-1.2-2.4c1.6-0.8,3.2-1.3,5-1.3
			C246.5,187.5,248.7,189.4,248.7,192.4z M245.1,195.6v-0.8c-0.6-0.3-1.4-0.4-2.1-0.4c-1,0-1.8,0.6-1.8,1.3s0.7,1.3,1.6,1.3
			C243.9,197,244.9,196.5,245.1,195.6z"/>
		<path class="st3" d="M256.7,196.1l5.6-4.2c1.7-1.3,2.2-2.1,2.2-3c0-1-0.9-1.7-2-1.7c-1.4,0-2.5,0.7-3.6,1.9l-2.4-2.3
			c1.6-1.9,3.6-3,6.1-3c3.4,0,5.8,2.1,5.8,5c0,2-0.8,3.6-3.5,5.4l-2.4,1.7h6v3.4h-11.8V196.1z"/>
		<path class="st3" d="M270.6,191.6c0-4.6,2.9-7.8,7-7.8c4.1,0,7,3.2,7,7.8c0,4.6-2.9,7.8-7,7.8
			C273.5,199.4,270.6,196.2,270.6,191.6z M280.6,191.6c0-2.6-1.3-4.4-3.1-4.4c-1.8,0-3.1,1.8-3.1,4.4c0,2.6,1.3,4.4,3.1,4.4
			C279.4,196,280.6,194.2,280.6,191.6z"/>
		<path class="st3" d="M286.4,196.1l5.6-4.2c1.7-1.3,2.2-2.1,2.2-3c0-1-0.9-1.7-2-1.7c-1.4,0-2.5,0.7-3.6,1.9l-2.4-2.3
			c1.6-1.9,3.6-3,6.1-3c3.4,0,5.8,2.1,5.8,5c0,2-0.8,3.6-3.5,5.4l-2.4,1.7h6v3.4h-11.8V196.1z"/>
		<path class="st3" d="M300,197.2l2.2-2.7c1.1,1,2.5,1.7,3.9,1.7c1.6,0,2.5-0.9,2.5-2c0-1.1-0.9-1.9-2.4-1.9c-1.1,0-2,0.4-2.8,0.9
			l-2.5-1l0.2-8.3h10.4v3.4h-7l-0.1,2.8c0.7-0.5,1.7-0.9,2.9-0.9c2.6,0,5,1.7,5,4.8c0,3.3-2.4,5.4-6.3,5.4
			C303.4,199.5,301.5,198.6,300,197.2z"/>
	</g>
</g>
</svg>
