<?xml version="1.0" encoding="UTF-8"?><svg id="Layer_1" xmlns="http://www.w3.org/2000/svg" xmlns:xlink="http://www.w3.org/1999/xlink" viewBox="0 0 641.20001 280.20001"><defs><style>.cls-1{clip-path:url(#clippath);}.cls-2,.cls-3,.cls-4{fill:#fff;}.cls-5{clip-path:url(#clippath-1);}.cls-6{clip-path:url(#clippath-2);}.cls-3{isolation:isolate;opacity:.8;}.cls-4{fill-rule:evenodd;}</style><clipPath id="clippath"><rect class="cls-2" x="481.79999" y="256.29982" width="142.60004" height=".60001"/></clipPath><clipPath id="clippath-1"><rect class="cls-2" x="16.3" y="256.29982" width="139.2" height=".60001"/></clipPath><clipPath id="clippath-2"><rect class="cls-2" x="242.10001" y="13.39983" width=".8" height="205.8"/></clipPath></defs><g><path class="cls-2" d="M181.2,187.29984c1.10001-.3,2.39999-.60001,4.10001-.89999,1.7-.3,3.5-.39999,5.2-.39999,1.60001-.10001,3.10001,.2,4.60001,.7,1.10001,.39999,2.10001,1.2,2.89999,2.10001,.7,.89999,1.2,2,1.5,3.2,.3,1.3,.5,2.7,.5,4.10001v12.39999h-6.10001v-11.7c.10001-1.39999-.2-2.89999-.8-4.2-.5-.8-1.5-1.2-3-1.2-.5,0-.89999,0-1.39999,.10001-.5,0-.89999,.10001-1.3,.10001v16.89999h-6.2v-21.20003h0Zm-11.39999,10.09999c.10001-1.60001-.3-3.10001-1.10001-4.5-1.39999-1.8-4.10001-2.10001-5.89999-.7-.3,.2-.5,.39999-.7,.7-.89999,1.3-1.3,2.89999-1.2,4.5-.10001,1.60001,.3,3.2,1.2,4.60001,1.3,1.8,3.8,2.2,5.7,.89999,.39999-.3,.7-.60001,.89999-.89999,.8-1.39999,1.10001-3,1.10001-4.60001m6.3,0c0,1.60001-.2,3.2-.7,4.7-.5,1.39999-1.2,2.60001-2.2,3.7-2,2.2-4.89999,3.3-7.8,3.2-1.5,0-3-.3-4.39999-.8-1.3-.60001-2.39999-1.39999-3.39999-2.39999-1-1.10001-1.7-2.3-2.2-3.7-1.10001-3-1.10001-6.39999,0-9.39999,.5-1.3,1.2-2.60001,2.2-3.60001s2.10001-1.8,3.39999-2.3c1.39999-.60001,2.8-.8,4.3-.8s2.89999,.3,4.3,.8c1.3,.60001,2.39999,1.3,3.39999,2.3s1.7,2.3,2.2,3.60001c.59999,1.5,.89999,3.10001,.89999,4.7m-33.70001,11.60001c-4.7,0-8.3-1.3-10.7-3.89999-2.5-2.60001-3.7-6.3-3.7-11.10001,0-2.2,.39999-4.3,1.10001-6.39999,1.39999-3.60001,4.2-6.3,7.8-7.60001,1.89999-.7,3.89999-1,5.89999-1,1.10001,0,2.2,.10001,3.3,.3,1,.2,1.89999,.39999,2.60001,.60001,.60001,.2,1.3,.39999,1.89999,.7,.39999,.10001,.8,.3,1.10001,.60001l-1.89999,5.2c-1-.5-2-.89999-3.10001-1.2-1.3-.3-2.7-.5-4-.5-1,0-2,.2-2.89999,.5-1,.3-1.8,.89999-2.5,1.60001-.8,.8-1.39999,1.8-1.8,2.8-.5,1.39999-.7,2.8-.7,4.2,0,1.2,.10001,2.5,.39999,3.7,.3,1.10001,.8,2.10001,1.39999,3,.7,.8,1.60001,1.5,2.60001,2,1.2,.5,2.5,.7,3.8,.7,.8,0,1.7-.10001,2.5-.2,.7-.10001,1.3-.2,2-.39999,.5-.10001,1-.3,1.5-.5,.39999-.2,.8-.39999,1.2-.5l1.8,5.2c-1.2,.7-2.5,1.2-3.89999,1.5-1.90002,.49998-3.80002,.79999-5.70003,.69998m-24.7-13.7c0-.5-.1-1-.3-1.5-.2-.5-.4-.89999-.7-1.3-.3-.39999-.7-.7-1.2-1-.6-.2-1.2-.39999-1.8-.39999s-1.2,.10001-1.8,.39999c-.5,.2-.9,.5-1.2,.89999-.3,.39999-.6,.89999-.8,1.39999-.2,.5-.3,1.10001-.4,1.60001l8.2-.09999h0Zm-14.5,2.3c0-1.7,.3-3.5,.9-5.10001,.5-1.39999,1.3-2.60001,2.4-3.60001,.9-.89999,2.1-1.7,3.3-2.2,1.2-.5,2.6-.7,3.9-.7,2.8-.2,5.4,.89999,7.4,2.8,1.8,1.89999,2.7,4.7,2.7,8.39999v1.2c0,.39999-.1,.8-.1,1.10001h-14.1c.1,1.2,.7,2.39999,1.8,3,1.3,.8,2.7,1.10001,4.2,1.10001,1.1,0,2.2-.10001,3.3-.3,.9-.2,1.8-.39999,2.7-.8l.8,5c-.4,.2-.9,.39999-1.3,.5-.6,.2-1.3,.3-1.9,.39999-.7,.10001-1.4,.2-2.2,.3-.8,.10001-1.5,.10001-2.3,.10001-1.7,0-3.5-.3-5.1-.89999-1.4-.5-2.6-1.3-3.6-2.39999-1-1-1.7-2.2-2.1-3.60001-.50001-1.3-.80001-2.8-.70001-4.3m-4.1-.10001c0,1.60001-.3,3.2-.8,4.7-.5,1.3-1.2,2.60001-2.2,3.60001s-2.2,1.8-3.6,2.3c-1.5,.5-3.2,.8-4.8,.8-.8,0-1.6,0-2.4-.10001l-2.4-.3c-.8-.10001-1.5-.2-2.3-.39999-.7-.2-1.4-.3-1.9-.5v-30.60001l6.2-1v10.89999c.7-.3,1.4-.5,2.2-.7,.8-.2,1.6-.2,2.4-.2,1.4,0,2.8,.3,4.1,.8,1.2,.5,2.2,1.3,3,2.3,.8,1.10001,1.4,2.3,1.8,3.60001,.50002,1.59999,.70001,3.19998,.70001,4.79999m-6.3-.2c0-4-1.5-6-4.4-6-.6,0-1.3,.10001-1.9,.2-.5,.2-1,.39999-1.5,.60001v11.3c.4,.10001,.8,.10001,1.2,.10001,.5,0,1,.10001,1.5,.10001,1.5,.10001,2.9-.5,3.8-1.7,.9-1.30002,1.3-2.90002,1.3-4.60002m-20.2,10.39999c-1.1,.3-2.4,.60001-4.1,.89999-1.7,.3-3.5,.39999-5.2,.39999-1.6,.10001-3.1-.2-4.6-.7-1.1-.39999-2.1-1.2-2.9-2.10001-.7-1-1.2-2-1.5-3.2-.3-1.3-.5-2.7-.5-4.10001v-12.2h6.1v11.39999c-.1,1.5,.2,3,.8,4.3,.5,.89999,1.5,1.3,3,1.3,.5,0,.9,0,1.4-.10001,.5,0,.9-.10001,1.3-.10001v-16.89999h6.2v21.10002h0Zm-28.6,.7c-.6-.89999-1.3-2-2.1-3.10001s-1.7-2.2-2.6-3.3c-.9-1.10001-1.9-2.10001-2.9-3.2-.9-1-2-1.89999-3-2.7v12.2h-6.5v-28.8h6.5v10.89999c1.7-1.8,3.4-3.60001,5.1-5.60001,1.7-1.89999,3.3-3.7,4.8-5.3h7.7c-2,2.3-3.9,4.60001-5.9,6.7-2,2.2-4.1,4.3-6.3,6.5,2.4,2.10001,4.7,4.3,6.7,6.8,2.2,2.8,4.3,5.7,6.2,8.7h-7.7v.20003Z"/><path class="cls-4" d="M96,81.19983l-3.6,.8c0-.5-.1-1-.1-1.5,0-3.8,1-7.5,3-10.8l7,6.2c.1,.1,.2,.2,.4,.3-.4,1.1-.7,2.2-.8,3.3-.2,.1-.5,.1-.7,.2l-5.2,1.5Zm13.6-21.2v9.8c-1,.3-1.9,.8-2.7,1.4-.3-.2-.6-.5-.9-.7l-7.1-5c2.9-2.90001,6.6-4.80001,10.7-5.50001m-48.7,22.6c3.4-14.9,6.3-27.5,9.7-42.4,1.5-6.7,2.5-8.5,8.6-12,8.4-4.9,14.7-8.4,23.7-13.6,5.6-3.2,6.7-3,6.7,3.9V53.09983c-6.3,.8-12.1,3.7-16.4,8.3l-3-2.1c-.4-.2-.6-.6-.7-1-.3-.9-.8-1.8-1.6-2.4-1.4-1.1-3.5-.9-4.6,.5s-.9,3.5,.5,4.6c.5,.4,1,.7,1.6,.8,.4,.1,.8,.1,1.2,.2,.3,.1,.6,.2,.9,.4l2.8,2.5c-3.1,4.5-4.7,9.9-4.7,15.4,0,1,.1,2,.2,3l-6.1,1.3c-.4,0-.9,0-1.3,.1l-.89999,.3c-4,.8-8,1.7-12.1,2.6-5.5,1.3-5.7,.2-4.5-5m55.8-12.8v-9.8c4,.7,7.7,2.6,10.7,5.4l-7.7,5.5c-.1,.1-.2,.2-.3,.2-.89999-.5-1.8-1-2.7-1.3m17.2,11.5l-9.6-2.2c-.1-1-.4-2.1-.8-3,.1-.1,.2-.2,.3-.2l7.1-6.3c2,3.3,3.10001,7.1,3.10001,10.9-.10001,.3-.2,.59999-.10001,.8m-12.49999-52.9c5.2,2.5,8.9,4.3,14.1,6.8,7.2,3.5,14.39999,7,21.7,10.4,1.8,7.8,3.60001,15.6,5.3,23.4,1.10001,4.7,1.60001,7.2,2.7,11.8,1.7,7.3,1.5,7.9-6,6.2l-18.5-4.2c.10001-.8,.10001-1.6,.10001-2.4,0-5.5-1.60001-11-4.8-15.5l2.60001-2.4c.3-.3,.7-.4,1.10001-.5,1-.1,1.89999-.4,2.7-1,1.39999-1.1,1.60001-3.2,.5-4.6s-3.2-1.6-4.60001-.5h0c-.5,.4-.89999,.8-1.2,1.4-.2,.4-.3,.7-.5,1.1-.10001,.3-.3,.6-.60001,.8l-3,2.1c-4.3-4.6-10.1-7.5-16.4-8.3V31.89983c.1-4.9,.5-5.5,4.8-3.5m-6.4,63c-.6,.1-1.3,.2-1.9,.2s-1.2,0-1.8-.1l-.3,.6-4.4,8.1c2.1,.7,4.4,1.1,6.6,1.1,2.3,0,4.5-.4,6.7-1.1l-4.4-8c-.19998-.2-.39999-.5-.49998-.8m7.8-5.3l9.60001,2.2c-1.60001,3.9-4.3,7.2-7.8,9.5l-3.8-9.2c.7-.7,1.39999-1.6,2-2.5m-28.9,2.1l9.6-2.2c.6,1,1.3,1.8,2.1,2.6l-.3,.6-3.5,8.6c-3.6-2.3-6.3-5.6-7.89999-9.6m78.6,16.9c-4.60001,5.7-6.7,8.4-11.3,14.1-5.2,6.5-9.39999,11.8-14.60001,18.3-3.7,4.7-6.39999,4.8-12.5,4.8h-42c-8,0-8.6,0-13.5-6.2-4.9-6.10001-8.7-10.9-13.5-17-3.8-4.8-4.8-6-8.6-10.8-5.9-7.4-6.9-10.1,2.3-12.1l28.4-6.4c2.2,6,6.4,11.1,11.9,14.4l-1.3,3c-.2,.4-.4,.7-.8,.9-.9,.5-1.6,1.2-2,2.1-.8,1.6-.1,3.6,1.5,4.4s3.6,.1,4.4-1.5h0c.3-.6,.4-1.2,.5-1.8,0-.4,0-.8-.1-1.2,0-.3,0-.7,.2-1l1.6-2.9c3.2,1.2,6.5,1.8,9.9,1.8s6.8-.6,10-1.9l1.6,2.9c.2,.4,.3,.8,.2,1.2-.2,1,0,1.9,.4,2.8,.8,1.6,2.8,2.3,4.39999,1.5,1.60001-.8,2.3-2.8,1.5-4.4h0c-.2-.6-.60001-1.1-1.10001-1.5-.3-.3-.60001-.5-1-.7-.3-.2-.5-.5-.60001-.8l-1.3-3.2c5.5-3.3,9.7-8.4,11.8-14.4l31.3,7.1c6.30003,1.7,5.90004,3.89999,2.30003,8.49999"/><path class="cls-4" d="M116.7,69.79984v-9.8c4,.7,7.7,2.6,10.7,5.4l-7.7,5.5c-.1,.1-.2,.2-.3,.2-.89999-.5-1.8-1-2.7-1.3m17.2,11.5l-9.6-2.2c-.1-1-.4-2.1-.8-3,.1-.1,.2-.2,.3-.2l7.1-6.3c2,3.3,3.10001,7.1,3.10001,10.9-.10001,.3-.2,.59999-.10001,.8m-12.49999-52.9c5.2,2.5,8.9,4.3,14.1,6.8,7.2,3.5,14.39999,7,21.7,10.4,1.8,7.8,3.60001,15.6,5.3,23.4,1.10001,4.7,1.60001,7.2,2.7,11.8,1.7,7.3,1.5,7.9-6,6.2l-18.5-4.2c.10001-.8,.10001-1.6,.10001-2.4,0-5.5-1.60001-11-4.8-15.5l2.60001-2.4c.3-.3,.7-.4,1.10001-.5,1-.1,1.89999-.4,2.7-1,1.39999-1.1,1.60001-3.2,.5-4.6s-3.2-1.6-4.60001-.5h0c-.5,.4-.89999,.8-1.2,1.4-.2,.4-.3,.7-.5,1.1-.10001,.3-.3,.6-.60001,.8l-3,2.1c-4.3-4.6-10.1-7.5-16.4-8.3V31.89983c.1-4.9,.5-5.5,4.8-3.5m1.4,57.7l9.60001,2.2c-1.60001,3.9-4.3,7.2-7.8,9.5l-3.8-9.2c.7-.7,1.39999-1.6,2-2.5m-9.7,15.1v-9.6c.6,0,1.3-.1,1.9-.2,.1,.3,.2,.5,.4,.7l4.4,8c-2.2,.7-4.5,1.1-6.7,1.1m59.4,3.9c-4.60001,5.7-6.7,8.4-11.3,14.1-5.2,6.5-9.39999,11.8-14.60001,18.3-3.7,4.7-6.39999,4.8-12.5,4.8h-20.9v-34.3c3.4,0,6.8-.6,10-1.9l1.6,2.9c.2,.4,.3,.8,.2,1.2-.2,1,0,1.9,.4,2.8,.8,1.6,2.8,2.3,4.4,1.5s2.3-2.8,1.5-4.4c-.2-.6-.60001-1.1-1.10001-1.5-.3-.3-.60001-.5-1-.7-.3-.2-.5-.5-.60001-.8l-1.3-3.2c5.5-3.3,9.7-8.4,11.8-14.4l31.3,7.1c6.10002,1.7,5.70003,3.9,2.10002,8.5"/><path class="cls-2" d="M404.5,103.89984h-16.60001v38.8h38.70001v-16.6h-22.10001v-22.2Zm83.10001,.1v22.1h-22l-.20001-.2v16.8h38.79999v-38.8h-16.70001l.10004,.10001Zm-99.70001-38.9h16.70001l-.10001-.1v-22.1h22l.10001,.2V26.29983h-38.70001v38.8Zm77.5-38.8v16.6h22.20001v22.2h16.60001V26.29983h-38.80002Z"/><path class="cls-3" d="M463.39999,65.09983l-22.20001-22.2h24.20001V26.29983h-38.79999v16.8l22.10001,22h14.69998Zm-20,38.8h-14.70001l18.39999,18.4,3.79999,3.8h-24.29999v16.60001h38.79999v-16.8l-11-11-10.99997-11.00001Zm44.20001-38.8v24.2l-3.79999-3.8-18.39999-18.3v14.7l11.10001,11,11,11h16.70001v-38.8h-16.60004Zm-61,22l-22-22h-16.79999v38.8h16.70001v-24.2l22.10001,22.1-.00003-14.7Z"/><path class="cls-2" d="M306.70001,184.99983l-4.20001,5c-1.79999-2.2-4.39999-3.60001-7.20001-3.7-4.39999,0-8,3.60001-8,8.10001v.2c0,4.8,3.39999,8.39999,8,8.39999,2.79999-.2,5.29999-1.39999,7.20001-3.39999l4.29999,4.5c-3.10001,3.2-7.29999,5-11.79999,5.2-8.60001,0-15-6.3-15-14.7,0-8.3,6.60001-14.5,15.29999-14.5,4.20001,.2,8.30002,1.89999,11.40002,4.89999h0Zm3.5,24v-30.3h7.10001v30.3h-7.10001Zm35.19998-11c0,6.8-4.79999,11.3-12,11.3s-12.10001-4.5-12.10001-11.3,4.79999-11.2,12.10001-11.2c7.20001,0,12,4.39999,12,11.2h0Zm-17,.10001c0,3.39999,2,5.7,4.89999,5.7s4.89999-2.3,4.89999-5.7-2-5.7-4.89999-5.7-4.89999,2.29999-4.89999,5.7h0Zm42.30002,10.89999h-7.10001v-3.60001c-1.5,2.60001-4.29999,4.10001-7.20001,3.89999-4.79999,0-7.89999-3.3-7.89999-8.39999v-13.89999h7.10001v11.89999c0,2.60001,1.39999,4.2,3.70001,4.2,2.70001,0,4.29999-2.2,4.29999-5.2v-10.89999h7.10001v22Zm27.79999,0h-7.10001v-2.89999c-1.60001,2.10001-4,3.2-6.60001,3.2-6.20001,0-10.29999-4.60001-10.29999-11.39999,0-6.7,4-11.2,10.10001-11.2,2.70001-.10001,5.20001,1.10001,6.79999,3.2v-11.2h7.10001v30.29999h0Zm-7.10001-10.89999c0-3.39999-2-5.7-4.89999-5.7s-4.89999,2.3-4.89999,5.7,2,5.8,4.89999,5.8c3-.10001,4.89999-2.40001,4.89999-5.8Z"/><path class="cls-2" d="M424.39999,208.99983l-13.20001-17.60001v17.60001h-6.79999v-28.60001h6.39999l13.20001,17.7v-17.7h6.79999v28.60001h-6.39999Zm31.60001-14.39999v14.39999h-6.89999v-2.5c-1.39999,1.89999-3.79999,2.89999-6.70001,2.89999-4.70001,0-7.60001-2.89999-7.60001-6.89999,0-4.2,3-6.60001,8.5-6.7h5.79999v-.3c0-2.2-1.39999-3.5-4.29999-3.5-2.29999,.10001-4.5,.8-6.60001,1.8l-2-4.7c3.20001-1.60001,6.70001-2.5,10.20001-2.5,6.10001,.09999,9.60001,3.09999,9.60001,8Zm-6.89999,7v-2h-4.5c-2.10001,0-3.20001,.7-3.20001,2.39999,0,1.60001,1.10001,2.60001,3.10001,2.60001,2,.2,3.89999-1.10001,4.60001-3Zm26,6.29999c-1.79999,1-3.79999,1.5-5.89999,1.5-4.29999,0-7.29999-2.39999-7.29999-7v-9.7h-3.10001v-4.60001h3.10001v-6.09999h7v6.10001h5.79999v4.7h-5.79999v8.60001c0,1.7,.70001,2.5,2,2.39999,.89999-.10001,1.79999-.3,2.70001-.7l1.49997,4.79999Zm10.79999-27.2c.10001,2-1.5,3.7-3.5,3.8h-.20001c-2.10001,0-3.70001-1.7-3.70001-3.8,0-2,1.70001-3.7,3.70001-3.7,1.89999-.10001,3.60001,1.39999,3.70001,3.3v.39999h0Zm-7.29999,28.3v-22h7v22h-7Zm18,0l-8.29999-22h7.29999l4.70001,15.60001,4.79999-15.60001h6.99997l-8.29999,22h-7.19998Zm38.89999-9.10001h-15.5c.5,2.39999,2.70001,4.2,5.20001,4.10001,2,0,3.90002-.8,5.29999-2.2l3.70001,3.60001c-2.5,2.60001-6,4.10001-9.59998,3.89999-7.20001,0-11.70001-4.5-11.70001-11.2,0-6.8,4.70001-11.3,11.5-11.3,7.69995,0,11.5,5.09999,11.09998,13.09999h0Zm-6.79999-3.79999c.20001-2.3-1.5-4.3-3.79999-4.5h-.5c-2.5,0-4.09998,1.8-4.59998,4.5h8.89996Z"/><path class="cls-2" d="M564.29999,184.99983l-4.20001,5c-1.79999-2.2-4.40002-3.60001-7.20001-3.7-4.40002,0-8,3.60001-8,8.10001v.2c0,4.8,3.40002,8.39999,8,8.39999,2.79999-.2,5.29999-1.39999,7.20001-3.39999l4.29999,4.5c-3.09998,3.2-7.29999,5-11.79999,5.2-8.59998,0-15-6.3-15-14.7,0-8.3,6.59998-14.5,15.29999-14.5,4.20001,.2,8.30005,2,11.40002,4.89999Zm24.70001,13c0,6.8-4.79999,11.3-12,11.3s-12.09998-4.5-12.09998-11.3,4.79999-11.2,12.09998-11.2c7.20001,0,12,4.39999,12,11.2Zm-16.90002,.10001c0,3.39999,2,5.7,4.90002,5.7s4.90002-2.3,4.90002-5.7-2-5.7-4.90002-5.7-4.90002,2.29999-4.90002,5.7h0Zm43.20001-3v13.89999h-7v-11.89999c0-2.60001-1.5-4.2-3.90002-4.2-2.59998,0-4.20001,1.8-4.5,4.5v11.7h-7.09998v-22h7.09998v3.60001c1.59998-2.60001,4.40002-4.10001,7.40002-3.89999,4.79999-.10002,8,3.19998,8,8.29999h0Z"/></g><g><path class="cls-2" d="M175.89999,245.69983h4.89999l8.60001,11.59999v-11.60001h4.89999v19.70001h-4.89999l-8.60001-11.60001v11.60001h-4.89999v-19.7Z"/><path class="cls-2" d="M197.39999,257.99983c0-4.3,3.7-7.7,8.3-7.7,4.5,0,8.2,3.5,8.2,7.7s-3.7,7.79999-8.2,7.79999c-4.59999-.09998-8.3-3.5-8.3-7.79999Zm11.90001,0c0-2-1.60001-3.7-3.60001-3.7s-3.60001,1.7-3.60001,3.7,1.60001,3.70001,3.60001,3.70001,3.60001-1.70001,3.60001-3.70001Z"/><path class="cls-2" d="M226.39999,250.19983v4c-3,0-4.89999,1.7-4.89999,4.40001v6.70001h-4.8v-14.8h4.8v2.7c1-1.80002,2.7-3.00002,4.89999-3.00002Z"/><path class="cls-2" d="M238.39999,264.29982c-.89999,.79999-2.3,1.39999-3.60001,1.39999-2.8,0-4.7-2-4.7-4.79999v-6.5h-2v-3.89999h2v-4.10001h4.60001v4.10001h3.10001v3.89999h-3.10001v5.60001c0,.89999,.5,1.60001,1.3,1.60001,.5,0,1.10001-.20001,1.39999-.5l1,3.19998Z"/><path class="cls-2" d="M255.60001,255.99983v9.39999h-4.60001v-8.29999c0-1.60001-1-2.8-2.5-2.8s-2.60001,1.10001-2.60001,2.59999v8.5h-4.89999v-20h4.8v6.89999c.89999-1.2,2.5-2,4.3-2,3.29999-.09999,5.5,2.30002,5.5,5.70001Z"/><path class="cls-2" d="M280.10001,262.39983h-7.70001l-1.20001,3h-5.5l7.79999-19.7h5.5l7.79999,19.7h-5.5l-1.19995-3Zm-1.5-3.69998l-2.39999-6-2.39999,6h4.79999Z"/><path class="cls-2" d="M313.20001,255.99983v9.5h-4.70001v-8.60001c0-1.5-.89999-2.5-2.29999-2.5-1.5,0-2.5,1-2.5,2.29999v8.79999h-4.60001v-8.60001c0-1.5-1-2.5-2.39999-2.5s-2.5,1-2.5,2.29999v8.79999h-4.79999v-14.8h4.79999v1.89999c.70001-1.3,2.10001-2.2,3.89999-2.2,2.29999,0,4.29999,1.3,5.10001,3.39999,.39999-2.10001,2.10001-3.39999,4.39999-3.39999,3.10001-.19994,5.60001,2.20007,5.60001,5.60007Z"/><path class="cls-2" d="M327.10001,260.69985l2.70001,2.70001c-1.29999,1.29999-3.79999,2.29999-6.10001,2.29999-4.60001,0-8.10001-3.20001-8.10001-7.79999,0-4.5,3.39999-7.7,7.79999-7.7,4.70001,0,7.60001,3.39999,7.60001,8.99998h-10.79999c.39999,1.70001,1.60001,2.79999,3.29999,2.79999,1.29999,.10001,2.60001-.5,3.60001-1.29999Zm-6.80002-4.20001h6.10001c-.29999-1.5-1.39999-2.5-2.89999-2.5-1.5-.10001-2.70001,.89999-3.20001,2.5Z"/><path class="cls-2" d="M343.39999,250.19983v4c-3,0-4.89999,1.7-4.89999,4.40001v6.70001h-4.79999v-14.8h4.79999v2.7c1-1.80002,2.79999-3.00002,4.89999-3.00002Z"/><path class="cls-2" d="M346.20001,246.19983c0-1.3,1.10001-2.5,2.60001-2.5,1.39999,0,2.5,1.2,2.5,2.5,0,1.39999-1.10001,2.60001-2.5,2.60001-1.50003,0-2.60001-1.2-2.60001-2.60001Zm.09998,4.40001h4.79999v14.79999h-4.79999v-14.79999Z"/><path class="cls-2" d="M353.89999,257.99983c0-4.2,3.79999-7.7,8.29999-7.7,2.5,0,4.60001,1,6,2.60001l-3.20001,2.7c-.60001-.7-1.70001-1.3-2.79999-1.3-1.89999,0-3.5,1.7-3.5,3.7s1.60001,3.79999,3.60001,3.79999c1.10001,0,2.20001-.5,2.89999-1.29999l3.20001,2.60001c-1.5,1.70001-3.5,2.70001-6.10001,2.70001-4.59998-.10001-8.39999-3.60001-8.39999-7.80002Z"/><path class="cls-2" d="M383.89999,256.59984v8.79999h-4.70001v-1.29999c-1,1.10001-2.60001,1.60001-4.10001,1.60001-3.20001,0-5.60001-1.89999-5.60001-4.70001,0-2.89999,2.70001-4.89999,6.20001-4.89999,1.10001,0,2.29999,.29999,3.5,.70001v-.20001c0-1.39999-1.10001-2.5-3.20001-2.5-1.29999,0-2.5,.39999-3.70001,.89999l-1.5-3.10001c2.10001-1,4.20001-1.7,6.5-1.7,3.70004,0,6.60004,2.5,6.60004,6.40001Zm-4.69998,4.10001v-1c-.79999-.39999-1.79999-.60001-2.79999-.60001-1.29999,0-2.29999,.70001-2.29999,1.70001s.89999,1.70001,2.10001,1.70001c1.49997-.00003,2.79996-.70004,2.99997-1.80002Z"/><g><path class="cls-2" d="M395.3418,262.13899l7.33301-5.48535c2.22266-1.6748,2.8584-2.77148,2.8584-3.98438,0-1.35645-1.18359-2.22266-2.62695-2.22266-1.84766,0-3.2334,.89453-4.73535,2.48242l-3.08887-3.05957c2.10742-2.54102,4.67676-3.89746,7.93945-3.89746,4.44531,0,7.56348,2.71387,7.56348,6.49512,0,2.62793-1.09668,4.67676-4.56152,7.04492l-3.11719,2.22266h7.88086v4.41699h-15.44531v-4.0127Z"/><path class="cls-2" d="M413.44238,256.22005c0-6.00391,3.78125-10.24805,9.12207-10.24805,5.37012,0,9.15234,4.24414,9.15234,10.24805,0,6.03418-3.78223,10.27832-9.15234,10.27832-5.34082,0-9.12207-4.24414-9.12207-10.27832Zm13.19336,0c0-3.37695-1.6748-5.77344-4.07129-5.77344-2.36719,0-4.04102,2.39648-4.04102,5.77344,0,3.37793,1.67383,5.80371,4.04102,5.80371,2.39648,0,4.07129-2.42578,4.07129-5.80371Z"/><path class="cls-2" d="M434.22656,262.13899l7.33301-5.48535c2.22266-1.6748,2.8584-2.77148,2.8584-3.98438,0-1.35645-1.18359-2.22266-2.62695-2.22266-1.84766,0-3.2334,.89453-4.73535,2.48242l-3.08887-3.05957c2.10742-2.54102,4.67676-3.89746,7.93945-3.89746,4.44531,0,7.56348,2.71387,7.56348,6.49512,0,2.62793-1.09668,4.67676-4.56152,7.04492l-3.11719,2.22266h7.88086v4.41699h-15.44531v-4.0127Z"/><path class="cls-2" d="M451.80664,263.20735l2.8291-3.2627c1.44336,1.44336,3.29102,2.16504,5.13867,2.16504,1.99219,0,3.08887-.83691,3.08887-1.99219,0-1.24121-.92383-1.87598-3.46387-1.87598l-2.33887,.02832v-4.15723h2.33887c1.99121,.0293,3.05957-.63477,3.05957-1.78906,0-1.21289-1.18359-1.93457-2.97363-1.93457-1.76074,0-3.2041,.83691-4.50293,2.10742l-2.77148-3.00293c1.70312-1.99121,4.12793-3.52148,7.79395-3.52148,4.67676,0,7.50684,2.30957,7.50684,5.42773,0,2.22266-1.47266,3.89648-3.69531,4.53223,2.22266,.51953,4.12793,2.07812,4.12793,4.61914,0,3.49316-3.11816,5.97559-7.91016,5.97559-3.66699,0-6.4668-1.35645-8.22754-3.31934Z"/></g></g><g><rect id="SVGID" class="cls-2" x="481.79999" y="256.29982" width="142.60004" height=".60001"/><g><rect class="cls-2" x="481.79999" y="256.29982" width="142.60004" height=".60001"/><g class="cls-1"><rect class="cls-2" x="481.79999" y="256.29982" width="142.60004" height=".60001"/></g></g></g><g><rect id="SVGID-2" class="cls-2" x="16.3" y="256.29982" width="139.2" height=".60001"/><g><rect class="cls-2" x="16.3" y="256.29982" width="139.2" height=".60001"/><g class="cls-5"><rect class="cls-2" x="16.3" y="256.29982" width="139.2" height=".60001"/></g></g></g><g><rect id="SVGID-3" class="cls-2" x="242.10001" y="13.39983" width=".8" height="205.8"/><g><rect class="cls-2" x="242.10001" y="13.39983" width=".8" height="205.8"/><g class="cls-6"><rect class="cls-2" x="242.10001" y="13.39983" width=".8" height="205.8"/></g></g></g></svg>