<?xml version="1.0" encoding="utf-8"?>
<!-- Generator: Adobe Illustrator 28.4.1, SVG Export Plug-In . SVG Version: 6.00 Build 0)  -->
<svg version="1.1" id="Layer_1" xmlns="http://www.w3.org/2000/svg" xmlns:xlink="http://www.w3.org/1999/xlink" x="0px" y="0px"
	 width="400px" height="245px" viewBox="0 0 400 245" style="enable-background:new 0 0 400 245;" xml:space="preserve">
<style type="text/css">
	.Drop_x0020_Shadow{fill:none;}
	.Round_x0020_Corners_x0020_2_x0020_pt{fill:#FFFFFF;stroke:#231F20;stroke-miterlimit:10;}
	.Live_x0020_Reflect_x0020_X{fill:none;}
	.Bevel_x0020_Soft{fill:url(#SVGID_1_);}
	.Dusk{fill:#FFFFFF;}
	.Foliage_GS{fill:#FFDD00;}
	.Pompadour_GS{fill-rule:evenodd;clip-rule:evenodd;fill:#44ADE2;}
	.st0{fill:#111245;}
	.st1{fill-rule:evenodd;clip-rule:evenodd;fill:#111245;}
	.st2{opacity:0.8;}
	.st3{clip-path:url(#SVGID_00000136403671825894033760000007929936018391671215_);}
	.st4{fill-rule:evenodd;clip-rule:evenodd;}
	.st5{clip-path:url(#SVGID_00000168805936712823606560000004132869679150334614_);}
	.st6{fill:#FFFFFF;}
	.st7{fill-rule:evenodd;clip-rule:evenodd;fill:#FFFFFF;}
	.st8{clip-path:url(#SVGID_00000162354498741537413390000004221439842403083655_);}
</style>
<linearGradient id="SVGID_1_" gradientUnits="userSpaceOnUse" x1="-420" y1="0" x2="-419.2929" y2="0.7071">
	<stop  offset="0" style="stop-color:#DEDFE3"/>
	<stop  offset="0.1783" style="stop-color:#DADBDF"/>
	<stop  offset="0.3611" style="stop-color:#CECFD3"/>
	<stop  offset="0.546" style="stop-color:#B9BCBF"/>
	<stop  offset="0.7324" style="stop-color:#9CA0A2"/>
	<stop  offset="0.9181" style="stop-color:#787D7E"/>
	<stop  offset="1" style="stop-color:#656B6C"/>
</linearGradient>
<g>
	<path d="M106.6,152.6c0.7-0.2,1.6-0.4,2.8-0.6c1.2-0.2,2.3-0.3,3.5-0.3c1,0,2.1,0.1,3.1,0.5c0.8,0.3,1.4,0.8,1.9,1.4
		c0.5,0.6,0.8,1.4,1,2.1c0.2,0.9,0.3,1.8,0.3,2.8v8.3h-4.1v-7.9c0.1-1-0.1-1.9-0.5-2.8c-0.3-0.5-1-0.8-2-0.8c-0.3,0-0.6,0-0.9,0.1
		c-0.3,0-0.6,0.1-0.9,0.1v11.3h-4.2C106.6,166.8,106.6,152.6,106.6,152.6z M99,159.4c0-1.1-0.2-2.1-0.7-3c-1-1.2-2.7-1.4-4-0.5
		c-0.2,0.1-0.3,0.3-0.5,0.5c-0.6,0.9-0.9,2-0.8,3c0,1.1,0.2,2.2,0.8,3.1c0.9,1.2,2.6,1.5,3.8,0.6c0.2-0.2,0.5-0.4,0.6-0.6
		C98.7,161.6,99,160.5,99,159.4 M103.2,159.4c0,1.1-0.1,2.1-0.5,3.2c-0.3,0.9-0.8,1.8-1.5,2.5c-1.3,1.5-3.3,2.2-5.2,2.1
		c-1,0-2-0.2-3-0.5c-0.9-0.4-1.6-0.9-2.3-1.6c-0.7-0.7-1.2-1.6-1.5-2.5c-0.7-2-0.7-4.3,0-6.3c0.3-0.9,0.8-1.7,1.5-2.4
		c0.6-0.7,1.4-1.2,2.3-1.5c0.9-0.4,1.9-0.6,2.9-0.5c1,0,2,0.2,2.9,0.5c0.8,0.4,1.6,0.9,2.3,1.5c0.6,0.7,1.1,1.5,1.5,2.4
		C103,157.3,103.2,158.3,103.2,159.4 M80.6,167.2c-3.2,0-5.6-0.9-7.2-2.6c-1.7-1.7-2.5-4.2-2.5-7.5c0-1.5,0.2-2.9,0.7-4.3
		c0.9-2.4,2.8-4.3,5.2-5.1c1.3-0.5,2.6-0.7,4-0.7c0.7,0,1.5,0.1,2.2,0.2c0.7,0.1,1.3,0.3,1.7,0.4c0.4,0.1,0.9,0.3,1.3,0.5
		c0.3,0.1,0.5,0.2,0.7,0.4l-1.3,3.5c-0.7-0.4-1.4-0.6-2.1-0.8c-0.9-0.2-1.8-0.3-2.7-0.3c-0.7,0-1.3,0.1-1.9,0.3s-1.2,0.6-1.7,1.1
		c-0.5,0.6-0.9,1.2-1.2,1.9c-0.3,0.9-0.5,1.9-0.5,2.8c0,0.8,0.1,1.7,0.3,2.5c0.2,0.7,0.5,1.4,0.9,2c0.5,0.6,1.1,1,1.7,1.3
		c0.8,0.3,1.7,0.5,2.6,0.5c0.6,0,1.1-0.1,1.7-0.1c0.5,0,0.9-0.1,1.3-0.3c0.3-0.1,0.7-0.2,1-0.3s0.5-0.3,0.8-0.3l1.2,3.5
		c-0.8,0.5-1.7,0.8-2.6,1C83.1,167.1,81.9,167.2,80.6,167.2 M64,158c0-0.3-0.1-0.7-0.2-1c-0.1-0.3-0.3-0.6-0.5-0.9
		c-0.2-0.3-0.5-0.5-0.8-0.7c-0.4-0.2-0.8-0.3-1.2-0.3s-0.8,0.1-1.2,0.3c-0.3,0.1-0.6,0.3-0.8,0.6s-0.4,0.6-0.5,0.9
		c-0.1,0.3-0.2,0.7-0.3,1.1L64,158L64,158z M54.2,159.5c0-1.2,0.2-2.3,0.6-3.4c0.3-0.9,0.9-1.7,1.6-2.4c0.6-0.6,1.4-1.1,2.2-1.5
		c0.8-0.3,1.7-0.5,2.6-0.5c1.8-0.1,3.7,0.6,5,1.9c1.2,1.3,1.8,3.2,1.8,5.6v0.8c0,0.3-0.1,0.5-0.1,0.7h-9.5c0,0.8,0.5,1.6,1.2,2
		c0.8,0.5,1.8,0.8,2.8,0.7c0.7,0,1.5-0.1,2.2-0.2c0.6-0.1,1.2-0.3,1.8-0.5l0.5,3.4c-0.3,0.1-0.6,0.2-0.9,0.3
		c-0.4,0.1-0.8,0.2-1.3,0.3s-0.9,0.1-1.5,0.2c-0.5,0.1-1,0.1-1.5,0.1c-1.2,0-2.3-0.2-3.4-0.6c-0.9-0.3-1.7-0.9-2.4-1.6
		c-0.7-0.7-1.2-1.5-1.4-2.4C54.4,161.5,54.2,160.5,54.2,159.5 M51.5,159.5c0,1.1-0.2,2.1-0.5,3.2c-0.3,0.9-0.8,1.7-1.5,2.4
		s-1.5,1.2-2.4,1.5c-1,0.4-2.1,0.5-3.2,0.5c-0.5,0-1.1,0-1.6-0.1l-1.6-0.2c-0.5-0.1-1-0.1-1.5-0.3c-0.5-0.1-0.9-0.2-1.3-0.3v-20.5
		l4.1-0.6v7.3c0.5-0.2,1-0.4,1.5-0.5s1.1-0.2,1.6-0.1c0.9,0,1.9,0.2,2.8,0.5c0.8,0.3,1.5,0.9,2,1.5c0.6,0.7,1,1.5,1.2,2.4
		C51.4,157.3,51.5,158.4,51.5,159.5 M47.3,159.3c0-2.7-1-4-3-4c-0.4,0-0.9,0.1-1.3,0.1c-0.3,0.1-0.7,0.2-1,0.4v7.6
		c0.3,0.1,0.5,0.1,0.8,0.1s0.7,0.1,1,0.1c1,0.1,1.9-0.4,2.6-1.1C47,161.5,47.3,160.4,47.3,159.3 M33.7,166.3
		c-0.7,0.2-1.6,0.4-2.8,0.6c-1.2,0.2-2.3,0.3-3.5,0.3c-1.1,0-2.1-0.1-3.1-0.5c-0.8-0.3-1.4-0.8-1.9-1.4c-0.5-0.6-0.8-1.4-1-2.1
		c-0.2-0.9-0.3-1.8-0.3-2.8v-8.2h4.1v7.7c-0.1,1,0.1,2,0.5,2.9c0.3,0.6,1,0.9,2,0.9c0.3,0,0.6,0,0.9-0.1c0.3,0,0.6-0.1,0.9-0.1
		v-11.3h4.2V166.3z M14.5,166.8c-0.4-0.6-0.9-1.3-1.4-2.1s-1.1-1.5-1.7-2.2c-0.6-0.7-1.3-1.4-1.9-2.1c-0.6-0.6-1.3-1.2-2-1.8v8.2H3
		v-19.3h4.4v7.3c1.1-1.2,2.3-2.4,3.4-3.8c1.1-1.3,2.2-2.5,3.2-3.6h5.2c-1.3,1.5-2.6,3.1-4,4.5c-1.3,1.5-2.8,2.9-4.2,4.4
		c1.6,1.4,3.1,2.9,4.5,4.6c1.5,1.9,2.9,3.8,4.2,5.8h-5.2L14.5,166.8z"/>
	<path class="st4" d="M49.4,81.4L47,82c0-0.3-0.1-0.7-0.1-1c0-2.6,0.7-5.1,2-7.2l4.7,4.2c0.1,0.1,0.2,0.2,0.3,0.2
		c-0.3,0.7-0.5,1.5-0.5,2.2c-0.1,0.1-0.3,0.1-0.5,0.1L49.4,81.4z M58.5,67.2v6.6c-0.7,0.2-1.3,0.5-1.8,0.9c-0.2-0.1-0.4-0.3-0.6-0.5
		l-4.8-3.4C53.3,68.9,55.8,67.6,58.5,67.2 M25.9,82.4c2.3-10,4.2-18.5,6.5-28.5c1-4.5,1.7-5.7,5.8-8.1c5.6-3.3,9.9-5.6,15.9-9.1
		c3.8-2.1,4.5-2,4.5,2.6v23.2c-4.2,0.5-8.1,2.5-11,5.6l-2-1.4c-0.2-0.1-0.4-0.4-0.5-0.7c-0.2-0.6-0.6-1.2-1.1-1.6
		c-0.9-0.8-2.3-0.6-3.1,0.3c-0.8,0.9-0.6,2.3,0.3,3.1c0.3,0.3,0.7,0.5,1.1,0.5c0.3,0.1,0.5,0.1,0.8,0.1c0.2,0,0.4,0.1,0.6,0.3
		l1.9,1.7c-2.1,3.1-3.2,6.7-3.2,10.3c0,0.7,0.1,1.3,0.1,2l-4.1,0.9c-0.3,0-0.6,0-0.9,0.1L37,84c-2.7,0.5-5.4,1.1-8.1,1.7
		C25.2,86.6,25,85.8,25.9,82.4 M63.3,73.8v-6.6c2.7,0.5,5.2,1.7,7.2,3.6l-5.2,3.7c-0.1,0.1-0.1,0.1-0.2,0.1
		C64.6,74.3,64,74,63.3,73.8 M74.9,81.5L68.5,80c-0.1-0.7-0.2-1.4-0.5-2c0.1-0.1,0.1-0.1,0.2-0.1l4.8-4.2c1.4,2.2,2.1,4.7,2.1,7.3
		C74.9,81.1,74.8,81.3,74.9,81.5 M66.5,46c3.5,1.7,6,2.9,9.5,4.6c4.8,2.3,9.7,4.7,14.6,7c1.2,5.2,2.4,10.5,3.6,15.7
		c0.7,3.2,1.1,4.8,1.8,7.9c1.1,4.9,1,5.3-4,4.2l-12.4-2.8c0.1-0.5,0.1-1.1,0.1-1.6c0-3.7-1.1-7.4-3.2-10.4l1.7-1.6
		c0.2-0.2,0.5-0.3,0.7-0.3c0.7,0,1.3-0.3,1.8-0.7c0.9-0.8,1.1-2.1,0.3-3.1c-0.8-0.9-2.1-1.1-3.1-0.3l0,0c-0.3,0.2-0.6,0.6-0.8,0.9
		c-0.1,0.3-0.2,0.5-0.3,0.7c-0.1,0.2-0.2,0.4-0.4,0.5l-2,1.4c-2.9-3.1-6.8-5-11-5.6V48.3C63.3,45,63.6,44.6,66.5,46 M62.2,88.3
		c-0.4,0.1-0.8,0.1-1.3,0.1c-0.4,0-0.8,0-1.2-0.1l-0.2,0.4l-3,5.4c1.4,0.5,2.9,0.7,4.4,0.7s3-0.3,4.5-0.7l-3-5.4
		C62.4,88.6,62.3,88.5,62.2,88.3 M67.4,84.7l6.4,1.5c-1.1,2.6-2.9,4.8-5.2,6.4L66,86.4C66.6,85.9,67,85.3,67.4,84.7 M48,86.1
		l6.4-1.5c0.4,0.6,0.9,1.2,1.4,1.7l-0.2,0.4l-2.3,5.8C50.9,91,49.1,88.8,48,86.1 M100.8,97.5c-3.1,3.8-4.5,5.6-7.6,9.5
		c-3.5,4.4-6.3,7.9-9.8,12.3c-2.5,3.2-4.3,3.2-8.4,3.2H46.8c-5.4,0-5.8,0-9.1-4.2c-3.3-4.1-5.8-7.3-9.1-11.4c-2.6-3.2-3.2-4-5.8-7.2
		c-4-5-4.6-6.8,1.5-8.1l19.1-4.3c1.5,4,4.3,7.4,8,9.7l-0.9,2c-0.1,0.3-0.3,0.5-0.5,0.6c-0.6,0.3-1.1,0.8-1.3,1.4
		c-0.5,1.1-0.1,2.4,1,3c1.1,0.5,2.4,0.1,3-1l0,0c0.2-0.4,0.3-0.8,0.3-1.2c0-0.3,0-0.5-0.1-0.8c0-0.2,0-0.5,0.1-0.7l1.1-1.9
		c2.1,0.8,4.4,1.2,6.6,1.2c2.3,0,4.6-0.4,6.7-1.3l1.1,1.9c0.1,0.2,0.2,0.5,0.1,0.8c-0.1,0.6,0,1.3,0.3,1.9c0.5,1.1,1.9,1.5,3,1
		s1.5-1.9,1-3l0,0c-0.2-0.4-0.4-0.7-0.7-1c-0.2-0.2-0.4-0.3-0.7-0.5c-0.2-0.1-0.3-0.3-0.4-0.5l-0.9-2.1c3.7-2.2,6.5-5.6,7.9-9.7
		l21,4.8C103.5,92.9,103.2,94.4,100.8,97.5"/>
	<path class="st4" d="M63.3,73.8v-6.6c2.7,0.5,5.2,1.7,7.2,3.6l-5.2,3.7c-0.1,0.1-0.1,0.1-0.2,0.1C64.6,74.3,64,74,63.3,73.8
		 M74.9,81.5L68.5,80c-0.1-0.7-0.2-1.4-0.5-2c0.1-0.1,0.1-0.1,0.2-0.1l4.8-4.2c1.4,2.2,2.1,4.7,2.1,7.3
		C74.9,81.1,74.8,81.3,74.9,81.5 M66.5,46c3.5,1.7,6,2.9,9.5,4.6c4.8,2.3,9.7,4.7,14.6,7c1.2,5.2,2.4,10.5,3.6,15.7
		c0.7,3.2,1.1,4.8,1.8,7.9c1.1,4.9,1,5.3-4,4.2l-12.4-2.8c0.1-0.5,0.1-1.1,0.1-1.6c0-3.7-1.1-7.4-3.2-10.4l1.7-1.6
		c0.2-0.2,0.5-0.3,0.7-0.3c0.7,0,1.3-0.3,1.8-0.7c0.9-0.8,1.1-2.1,0.3-3.1c-0.8-0.9-2.1-1.1-3.1-0.3l0,0c-0.3,0.2-0.6,0.6-0.8,0.9
		c-0.1,0.3-0.2,0.5-0.3,0.7c-0.1,0.2-0.2,0.4-0.4,0.5l-2,1.4c-2.9-3.1-6.8-5-11-5.6V48.3C63.3,45,63.6,44.6,66.5,46 M67.4,84.7
		l6.4,1.5c-1.1,2.6-2.9,4.8-5.2,6.4L66,86.4C66.6,85.9,67,85.3,67.4,84.7 M60.9,94.8v-6.4c0.4,0,0.9-0.1,1.3-0.1
		c0.1,0.2,0.2,0.3,0.3,0.5l3,5.4C63.9,94.6,62.4,94.8,60.9,94.8 M100.8,97.5c-3.1,3.8-4.5,5.6-7.6,9.5c-3.5,4.4-6.3,7.9-9.8,12.3
		c-2.5,3.2-4.3,3.2-8.4,3.2H61v-23c2.3,0,4.6-0.4,6.7-1.3l1.1,1.9c0.1,0.2,0.2,0.5,0.1,0.8c-0.1,0.6,0,1.3,0.3,1.9
		c0.5,1.1,1.9,1.5,3,1s1.5-1.9,1-2.9c-0.2-0.4-0.4-0.7-0.7-1c-0.2-0.2-0.4-0.3-0.7-0.5c-0.2-0.1-0.3-0.3-0.4-0.5l-0.9-2.1
		c3.7-2.2,6.5-5.6,7.9-9.7l21,4.8C103.5,92.9,103.2,94.4,100.8,97.5"/>
	<path d="M256.5,96.7h-11.1v26h26v-11.1h-14.8C256.5,111.6,256.5,96.7,256.5,96.7z M312.3,96.7v14.8h-14.8l-0.1-0.1v11.3h26v-26
		L312.3,96.7L312.3,96.7z M245.3,70.6h11.2l-0.1-0.1V55.7h14.8l0.1,0.1V44.6h-26C245.3,44.6,245.3,70.6,245.3,70.6z M297.4,44.6
		v11.1h14.9v14.9h11.1v-26H297.4z"/>
	<g class="st2">
		<path d="M296,70.6l-14.9-14.9h16.2V44.6h-26v11.3l14.8,14.8C286.2,70.6,296,70.6,296,70.6z M282.6,96.7h-9.9l12.4,12.4l2.6,2.6
			h-16.3v11.1h26v-11.3l-7.4-7.4L282.6,96.7z M312.3,70.6v16.2l-2.6-2.6l-12.4-12.3v9.9l7.5,7.4l7.4,7.4h11.2v-26H312.3z
			 M271.3,85.4l-14.8-14.8h-11.3v26h11.2V80.4l14.8,14.8v-9.8H271.3z"/>
	</g>
	<path d="M190.8,151.1l-2.8,3.4c-1.2-1.5-2.9-2.4-4.8-2.5c-3,0-5.4,2.4-5.4,5.4c0,0.1,0,0.1,0,0.2c0,3.2,2.3,5.6,5.4,5.6
		c1.8-0.1,3.6-0.9,4.8-2.3l2.9,3c-2.1,2.1-4.9,3.4-7.9,3.5c-5.8,0-10.1-4.2-10.1-9.9c0-5.6,4.4-9.7,10.3-9.7
		C186.1,147.9,188.8,149.1,190.8,151.1L190.8,151.1z M193.2,167.2v-20.3h4.8v20.3H193.2z M216.8,159.8c0,4.6-3.2,7.6-8.1,7.6
		s-8.1-3-8.1-7.6s3.2-7.5,8.1-7.5S216.8,155.3,216.8,159.8L216.8,159.8z M205.4,159.9c0,2.3,1.3,3.8,3.3,3.8c1.9,0,3.3-1.5,3.3-3.8
		s-1.3-3.8-3.3-3.8C206.8,156.1,205.4,157.6,205.4,159.9L205.4,159.9z M233.8,167.2H229v-2.4c-1,1.7-2.9,2.7-4.8,2.6
		c-3.2,0-5.3-2.2-5.3-5.6v-9.3h4.8v8c0,1.7,0.9,2.8,2.5,2.8c1.8,0,2.9-1.5,2.9-3.5v-7.3h4.8L233.8,167.2L233.8,167.2z M252.5,167.2
		h-4.8v-1.9c-1.1,1.4-2.7,2.2-4.4,2.1c-4.2,0-6.9-3.1-6.9-7.7c0-4.5,2.7-7.5,6.8-7.5c1.8-0.1,3.5,0.7,4.6,2.1v-7.5h4.8v20.4H252.5z
		 M247.7,159.9c0-2.3-1.3-3.8-3.3-3.8c-1.9,0-3.3,1.5-3.3,3.8s1.3,3.9,3.3,3.9C246.4,163.7,247.7,162.2,247.7,159.9z M269.8,167.2
		l-8.9-11.8v11.8h-4.6V148h4.3l8.9,11.9V148h4.6v19.2H269.8z M291.1,157.5v9.7h-4.6v-1.7c-0.9,1.3-2.6,1.9-4.5,1.9
		c-3.2,0-5.1-1.9-5.1-4.6c0-2.8,2-4.4,5.7-4.5h3.9v-0.2c0-1.5-0.9-2.3-2.9-2.3c-1.5,0.1-3.1,0.5-4.4,1.2l-1.3-3.2
		c2.1-1.1,4.5-1.7,6.8-1.7C288.7,152.2,291.1,154.2,291.1,157.5z M286.4,162.2v-1.3h-3c-1.4,0-2.1,0.5-2.1,1.6s0.7,1.7,2.1,1.7
		C284.7,164.3,286,163.5,286.4,162.2z M303.9,166.5c-1.2,0.7-2.6,1-4,1c-2.9,0-4.9-1.6-4.9-4.7v-6.5h-2.1v-3.1h2.1v-4.1h4.7v4.1h3.9
		v3.2h-3.9v5.8c0,1.1,0.5,1.7,1.3,1.6c0.6-0.1,1.2-0.2,1.8-0.5L303.9,166.5z M311.1,148.2c0.1,1.4-1,2.5-2.4,2.5h-0.1
		c-1.4,0-2.5-1.2-2.5-2.6c0-1.4,1.1-2.5,2.5-2.5c1.3-0.1,2.4,0.9,2.5,2.2C311.1,148,311.1,148.1,311.1,148.2L311.1,148.2z
		 M306.2,167.2v-14.8h4.7v14.8H306.2z M318.3,167.2l-5.6-14.8h4.9l3.2,10.5l3.2-10.5h4.7l-5.6,14.8H318.3z M344.4,161.1H334
		c0.3,1.6,1.8,2.8,3.5,2.8c1.3,0,2.6-0.6,3.6-1.5l2.5,2.4c-1.7,1.8-4,2.7-6.4,2.6c-4.8,0-7.9-3-7.9-7.5c0-4.6,3.2-7.6,7.7-7.6
		C342.1,152.3,344.7,155.7,344.4,161.1L344.4,161.1z M339.9,158.5c0.1-1.5-1-2.9-2.5-3c-0.1,0-0.2,0-0.3,0c-1.7,0-2.8,1.2-3.1,3
		H339.9z M363.8,151.1l-2.8,3.4c-1.2-1.5-2.9-2.4-4.8-2.5c-3,0-5.4,2.4-5.4,5.4c0,0.1,0,0.1,0,0.2c0,3.2,2.3,5.6,5.4,5.6
		c1.8-0.1,3.6-0.9,4.8-2.3l2.9,3c-2.1,2.1-4.9,3.4-7.9,3.5c-5.8,0-10.1-4.2-10.1-9.9c0-5.6,4.4-9.7,10.3-9.7
		C359,147.9,361.7,149.1,363.8,151.1z M380.3,159.8c0,4.6-3.2,7.6-8.1,7.6c-4.8,0-8.1-3-8.1-7.6s3.2-7.5,8.1-7.5
		C377.1,152.3,380.3,155.3,380.3,159.8z M369,159.9c0,2.3,1.3,3.8,3.3,3.8c1.9,0,3.3-1.5,3.3-3.8s-1.3-3.8-3.3-3.8
		S369,157.6,369,159.9L369,159.9z M398,157.9v9.3h-4.7v-8c0-1.7-1-2.8-2.6-2.8c-1.7,0-2.8,1.2-3,3v7.9h-4.8v-14.8h4.8v2.4
		c1-1.7,3-2.7,5-2.6C395.8,152.2,398,154.4,398,157.9L398,157.9z"/>
	<g id="b_00000049215734725413809840000010995902945715057082_">
		<path class="st0" d="M147.6,35.9h0.7v136.6h-0.7V35.9z"/>
	</g>
	<path class="st0" d="M147.6,35.9h0.7v136.6h-0.7V35.9z"/>
	<g>
		<path class="st0" d="M147.6,35.9h0.7v136.6h-0.7V35.9z"/>
		<g>
			<g>
				
					<rect id="SVGID_00000034070691202384417250000005172136100856009626_" x="147.6" y="35.9" class="st0" width="0.7" height="136.6"/>
			</g>
			<g>
				<defs>
					<rect id="SVGID_00000097494981432426332470000002892295346463649707_" x="147.6" y="35.9" width="0.7" height="136.6"/>
				</defs>
				<use xlink:href="#SVGID_00000097494981432426332470000002892295346463649707_"  style="overflow:visible;fill:#111245;"/>
				<clipPath id="SVGID_00000060026830500913228140000013936450476762866096_">
					<use xlink:href="#SVGID_00000097494981432426332470000002892295346463649707_"  style="overflow:visible;"/>
				</clipPath>
				<g style="clip-path:url(#SVGID_00000060026830500913228140000013936450476762866096_);">
					<path class="st0" d="M147.6,35.9h0.7v136.6h-0.7V35.9z"/>
				</g>
			</g>
		</g>
	</g>
	<g>
		<path class="st0" d="M278,196.5h120v0.5H278V196.5z"/>
		<path class="st0" d="M2,196.5h117.2v0.5H2V196.5z"/>
	</g>
	<g>
		<path d="M131.5,191.7v1.7h7.2v3.8h-7.2v2h7.9v3.8h-12.2v-15.1h12.2v3.8H131.5z"/>
		<path d="M153.3,191.6V203h-4.2v-1.1c-0.7,0.9-1.8,1.4-3.2,1.4c-2.4,0-4.2-1.8-4.2-4.4v-7.2h4v6.2c0,1.1,0.7,1.9,1.7,1.9
			c0.9,0,1.6-0.7,1.6-1.7v-6.4H153.3z"/>
		<path d="M163.7,191.4v3.5c-2.2,0-3.6,1.2-3.6,3.3v4.8h-4.2v-11.4h4.2v2C160.9,192.2,162.2,191.4,163.7,191.4z"/>
		<path d="M165.2,197.3c0-3.3,2.9-5.9,6.4-5.9c3.5,0,6.4,2.7,6.4,5.9c0,3.3-2.9,6-6.4,6C168.1,203.3,165.2,200.6,165.2,197.3z
			 M174.1,197.3c0-1.3-1.1-2.4-2.4-2.4c-1.3,0-2.4,1.1-2.4,2.4s1.1,2.4,2.4,2.4C173,199.7,174.1,198.6,174.1,197.3z"/>
		<path d="M193.1,197.3c0,3.5-2.2,6-5.2,6c-1.5,0-2.7-0.6-3.6-1.6v5.1H180v-15.2h4.2v1.3c0.9-1,2.2-1.6,3.6-1.6
			C190.9,191.4,193.1,193.8,193.1,197.3z M189,197.3c0-1.4-1-2.4-2.5-2.4c-1.3,0-2.3,1-2.3,2.4c0,1.4,0.9,2.4,2.3,2.4
			C188,199.7,189,198.7,189,197.3z"/>
		<path d="M203.1,199.1l2.3,2.4c-1,1-2.9,1.8-4.7,1.8c-3.6,0-6.3-2.5-6.3-6c0-3.5,2.6-5.9,6.1-5.9c3.7,0,5.9,2.6,5.9,7h-8.1
			c0.3,1.1,1.1,1.8,2.1,1.8C201.4,200.1,202.3,199.7,203.1,199.1z M198.5,196.1h3.9c-0.3-0.9-0.9-1.6-1.8-1.6
			C199.5,194.5,198.8,195.1,198.5,196.1z"/>
		<path d="M213.9,199.5l5.6-4c1.6-1.1,2-1.8,2-2.6c0-0.8-0.7-1.4-1.7-1.4c-1.3,0-2.3,0.6-3.5,1.8l-2.6-2.7c1.7-2,3.7-3,6.2-3
			c3.6,0,6,2.2,6,5.1c0,2-0.8,3.5-3.5,5.2l-2,1.3h5.6v3.8h-12.1V199.5z"/>
		<path d="M227.9,195.4c0-4.6,2.9-7.8,7.1-7.8s7.1,3.2,7.1,7.8c0,4.6-2.9,7.8-7.1,7.8S227.9,200,227.9,195.4z M237.7,195.4
			c0-2.3-1.1-3.9-2.7-3.9c-1.6,0-2.7,1.6-2.7,3.9c0,2.3,1.1,4,2.7,4C236.6,199.4,237.7,197.7,237.7,195.4z"/>
		<path d="M244,199.5l5.6-4c1.6-1.1,2-1.8,2-2.6c0-0.8-0.7-1.4-1.7-1.4c-1.3,0-2.3,0.6-3.5,1.8l-2.6-2.7c1.7-2,3.7-3,6.2-3
			c3.6,0,6,2.2,6,5.1c0,2-0.8,3.5-3.5,5.2l-2,1.3h5.6v3.8H244V199.5z"/>
		<path d="M271,197.9c0,3.3-2.7,5.4-6.1,5.4c-4.6,0-6.9-3.1-6.9-7.5c0-4.9,2.8-8.1,7.5-8.1c1.9,0,3.5,0.6,4.9,1.5l-1.9,3.2
			c-0.9-0.7-1.7-1-2.9-1c-1.6,0-2.6,0.9-3,2.6c0.9-0.6,2.1-0.9,3.3-0.9C268.7,193,271,194.8,271,197.9z M266.6,198
			c0-1-1-1.6-2.1-1.6c-0.9,0-1.6,0.4-2,1.2c0.2,1.5,0.7,2.1,2.1,2.1C265.8,199.6,266.6,199,266.6,198z"/>
	</g>
</g>
</svg>
