<?xml version="1.0" encoding="utf-8"?>
<!-- Generator: Adobe Illustrator 26.1.0, SVG Export Plug-In . SVG Version: 6.00 Build 0)  -->
<svg version="1.1" id="Layer_1" xmlns="http://www.w3.org/2000/svg" xmlns:xlink="http://www.w3.org/1999/xlink" x="0px" y="0px"
	 viewBox="0 0 641.2 280.2" style="enable-background:new 0 0 641.2 280.2;" xml:space="preserve">
<style type="text/css">
	.st0{fill:#FFFFFF;}
	.st1{fill-rule:evenodd;clip-rule:evenodd;fill:#FFFFFF;}
	.st2{opacity:0.8;fill:#FFFFFF;enable-background:new    ;}
	.st3{clip-path:url(#SVGID_00000057866974399932008060000010582933722771219127_);}
	.st4{clip-path:url(#SVGID_00000160162135013417898060000015368290228459631497_);}
	.st5{clip-path:url(#SVGID_00000134241693529032034310000004163905177999708581_);}
</style>
<path class="st0" d="M185.6,187.3c1.1-0.3,2.4-0.6,4.1-0.9c1.7-0.3,3.5-0.4,5.2-0.4c1.6-0.1,3.1,0.2,4.6,0.7
	c1.1,0.4,2.1,1.2,2.9,2.1c0.7,0.9,1.2,2,1.5,3.2c0.3,1.3,0.5,2.7,0.5,4.1v12.4h-6.1v-11.7c0.1-1.4-0.2-2.9-0.8-4.2
	c-0.5-0.8-1.5-1.2-3-1.2c-0.5,0-0.9,0-1.4,0.1c-0.5,0-0.9,0.1-1.3,0.1v16.9h-6.2V187.3L185.6,187.3z M174.2,197.4
	c0.1-1.6-0.3-3.1-1.1-4.5c-1.4-1.8-4.1-2.1-5.9-0.7c-0.3,0.2-0.5,0.4-0.7,0.7c-0.9,1.3-1.3,2.9-1.2,4.5c-0.1,1.6,0.3,3.2,1.2,4.6
	c1.3,1.8,3.8,2.2,5.7,0.9c0.4-0.3,0.7-0.6,0.9-0.9C173.9,200.6,174.3,199,174.2,197.4 M180.5,197.4c0,1.6-0.2,3.2-0.7,4.7
	c-0.5,1.4-1.2,2.6-2.2,3.7c-2,2.2-4.9,3.3-7.8,3.2c-1.5,0-3-0.3-4.4-0.8c-1.3-0.6-2.4-1.4-3.4-2.4c-1-1.1-1.7-2.3-2.2-3.7
	c-1.1-3-1.1-6.4,0-9.4c0.5-1.3,1.2-2.6,2.2-3.6c1-1,2.1-1.8,3.4-2.3c1.4-0.6,2.8-0.8,4.3-0.8c1.5,0,2.9,0.3,4.3,0.8
	c1.3,0.6,2.4,1.3,3.4,2.3c1,1,1.7,2.3,2.2,3.6C180.2,194.2,180.6,195.8,180.5,197.4 M146.8,209c-4.7,0-8.3-1.3-10.7-3.9
	c-2.5-2.6-3.7-6.3-3.7-11.1c0-2.2,0.4-4.3,1.1-6.4c1.4-3.6,4.2-6.3,7.8-7.6c1.9-0.7,3.9-1,5.9-1c1.1,0,2.2,0.1,3.3,0.3
	c1,0.2,1.9,0.4,2.6,0.6c0.6,0.2,1.3,0.4,1.9,0.7c0.4,0.1,0.8,0.3,1.1,0.6l-1.9,5.2c-1-0.5-2-0.9-3.1-1.2c-1.3-0.3-2.7-0.5-4-0.5
	c-1,0-2,0.2-2.9,0.5c-1,0.3-1.8,0.9-2.5,1.6c-0.8,0.8-1.4,1.8-1.8,2.8c-0.5,1.4-0.7,2.8-0.7,4.2c0,1.2,0.1,2.5,0.4,3.7
	c0.3,1.1,0.8,2.1,1.4,3c0.7,0.8,1.6,1.5,2.6,2c1.2,0.5,2.5,0.7,3.8,0.7c0.8,0,1.7-0.1,2.5-0.2c0.7-0.1,1.3-0.2,2-0.4
	c0.5-0.1,1-0.3,1.5-0.5c0.4-0.2,0.8-0.4,1.2-0.5l1.8,5.2c-1.2,0.7-2.5,1.2-3.9,1.5C150.7,208.8,148.8,209.1,146.8,209 M122.1,195.3
	c0-0.5-0.1-1-0.3-1.5c-0.2-0.5-0.4-0.9-0.7-1.3c-0.3-0.4-0.7-0.7-1.2-1c-0.6-0.2-1.2-0.4-1.8-0.4c-0.6,0-1.2,0.1-1.8,0.4
	c-0.5,0.2-0.9,0.5-1.2,0.9c-0.3,0.4-0.6,0.9-0.8,1.4c-0.2,0.5-0.3,1.1-0.4,1.6L122.1,195.3L122.1,195.3z M107.6,197.6
	c0-1.7,0.3-3.5,0.9-5.1c0.5-1.4,1.3-2.6,2.4-3.6c0.9-0.9,2.1-1.7,3.3-2.2c1.2-0.5,2.6-0.7,3.9-0.7c2.8-0.2,5.4,0.9,7.4,2.8
	c1.8,1.9,2.7,4.7,2.7,8.4v1.2c0,0.4-0.1,0.8-0.1,1.1H114c0.1,1.2,0.7,2.4,1.8,3c1.3,0.8,2.7,1.1,4.2,1.1c1.1,0,2.2-0.1,3.3-0.3
	c0.9-0.2,1.8-0.4,2.7-0.8l0.8,5c-0.4,0.2-0.9,0.4-1.3,0.5c-0.6,0.2-1.3,0.3-1.9,0.4c-0.7,0.1-1.4,0.2-2.2,0.3
	c-0.8,0.1-1.5,0.1-2.3,0.1c-1.7,0-3.5-0.3-5.1-0.9c-1.4-0.5-2.6-1.3-3.6-2.4c-1-1-1.7-2.2-2.1-3.6
	C107.8,200.6,107.6,199.1,107.6,197.6 M103.5,197.5c0,1.6-0.3,3.2-0.8,4.7c-0.5,1.3-1.2,2.6-2.2,3.6c-1,1-2.2,1.8-3.6,2.3
	c-1.5,0.5-3.2,0.8-4.8,0.8c-0.8,0-1.6,0-2.4-0.1l-2.4-0.3c-0.8-0.1-1.5-0.2-2.3-0.4c-0.7-0.2-1.4-0.3-1.9-0.5V177l6.2-1v10.9
	c0.7-0.3,1.4-0.5,2.2-0.7c0.8-0.2,1.6-0.2,2.4-0.2c1.4,0,2.8,0.3,4.1,0.8c1.2,0.5,2.2,1.3,3,2.3c0.8,1.1,1.4,2.3,1.8,3.6
	C103.3,194.3,103.6,195.9,103.5,197.5 M97.2,197.3c0-4-1.5-6-4.4-6c-0.6,0-1.3,0.1-1.9,0.2c-0.5,0.2-1,0.4-1.5,0.6v11.3
	c0.4,0.1,0.8,0.1,1.2,0.1c0.5,0,1,0.1,1.5,0.1c1.5,0.1,2.9-0.5,3.8-1.7C96.8,200.6,97.3,199,97.2,197.3 M77,207.7
	c-1.1,0.3-2.4,0.6-4.1,0.9c-1.7,0.3-3.5,0.4-5.2,0.4c-1.6,0.1-3.1-0.2-4.6-0.7c-1.1-0.4-2.1-1.2-2.9-2.1c-0.7-1-1.2-2-1.5-3.2
	c-0.3-1.3-0.5-2.7-0.5-4.1v-12.2h6.1v11.4c-0.1,1.5,0.2,3,0.8,4.3c0.5,0.9,1.5,1.3,3,1.3c0.5,0,0.9,0,1.4-0.1c0.5,0,0.9-0.1,1.3-0.1
	v-16.9H77L77,207.7L77,207.7z M48.4,208.4c-0.6-0.9-1.3-2-2.1-3.1c-0.8-1.1-1.7-2.2-2.6-3.3c-0.9-1.1-1.9-2.1-2.9-3.2
	c-0.9-1-2-1.9-3-2.7v12.2h-6.5v-28.8h6.5v10.9c1.7-1.8,3.4-3.6,5.1-5.6c1.7-1.9,3.3-3.7,4.8-5.3h7.7c-2,2.3-3.9,4.6-5.9,6.7
	c-2,2.2-4.1,4.3-6.3,6.5c2.4,2.1,4.7,4.3,6.7,6.8c2.2,2.8,4.3,5.7,6.2,8.7h-7.7L48.4,208.4z"/>
<path class="st1" d="M100.4,81.2L96.8,82c0-0.5-0.1-1-0.1-1.5c0-3.8,1-7.5,3-10.8l7,6.2c0.1,0.1,0.2,0.2,0.4,0.3
	c-0.4,1.1-0.7,2.2-0.8,3.3c-0.2,0.1-0.5,0.1-0.7,0.2L100.4,81.2z M114,60v9.8c-1,0.3-1.9,0.8-2.7,1.4c-0.3-0.2-0.6-0.5-0.9-0.7
	l-7.1-5C106.2,62.6,110,60.7,114,60 M65.3,82.6c3.4-14.9,6.3-27.5,9.7-42.4c1.5-6.7,2.5-8.5,8.6-12c8.4-4.9,14.7-8.4,23.7-13.6
	c5.6-3.2,6.7-3,6.7,3.9v34.6c-6.3,0.8-12.1,3.7-16.4,8.3l-3-2.1c-0.4-0.2-0.6-0.6-0.7-1c-0.3-0.9-0.8-1.8-1.6-2.4
	c-1.4-1.1-3.5-0.9-4.6,0.5c-1.1,1.4-0.9,3.5,0.5,4.6c0.5,0.4,1,0.7,1.6,0.8c0.4,0.1,0.8,0.1,1.2,0.2c0.3,0.1,0.6,0.2,0.9,0.4
	l2.8,2.5c-3.1,4.5-4.7,9.9-4.7,15.4c0,1,0.1,2,0.2,3l-6.1,1.3c-0.4,0-0.9,0-1.3,0.1L81.9,85c-4,0.8-8,1.7-12.1,2.6
	C64.3,88.9,64.1,87.8,65.3,82.6 M121.1,69.8V60c4,0.7,7.7,2.6,10.7,5.4l-7.7,5.5c-0.1,0.1-0.2,0.2-0.3,0.2
	C123,70.6,122.1,70.1,121.1,69.8 M138.3,81.3l-9.6-2.2c-0.1-1-0.4-2.1-0.8-3c0.1-0.1,0.2-0.2,0.3-0.2l7.1-6.3
	c2,3.3,3.1,7.1,3.1,10.9C138.3,80.8,138.3,81.1,138.3,81.3 M125.8,28.4c5.2,2.5,8.9,4.3,14.1,6.8c7.2,3.5,14.4,7,21.7,10.4
	c1.8,7.8,3.6,15.6,5.3,23.4c1.1,4.7,1.6,7.2,2.7,11.8c1.7,7.3,1.5,7.9-6,6.2l-18.5-4.2c0.1-0.8,0.1-1.6,0.1-2.4
	c0-5.5-1.6-11-4.8-15.5l2.6-2.4c0.3-0.3,0.7-0.4,1.1-0.5c1-0.1,1.9-0.4,2.7-1c1.4-1.1,1.6-3.2,0.5-4.6s-3.2-1.6-4.6-0.5l0,0
	c-0.5,0.4-0.9,0.8-1.2,1.4c-0.2,0.4-0.3,0.7-0.5,1.1c-0.1,0.3-0.3,0.6-0.6,0.8l-3,2.1c-4.3-4.6-10.1-7.5-16.4-8.3V31.9
	C121.1,27,121.5,26.4,125.8,28.4 M119.4,91.4c-0.6,0.1-1.3,0.2-1.9,0.2c-0.6,0-1.2,0-1.8-0.1l-0.3,0.6l-4.4,8.1
	c2.1,0.7,4.4,1.1,6.6,1.1c2.3,0,4.5-0.4,6.7-1.1l-4.4-8C119.7,92,119.6,91.7,119.4,91.4 M127.2,86.1l9.6,2.2
	c-1.6,3.9-4.3,7.2-7.8,9.5l-3.8-9.2C126,87.9,126.7,87,127.2,86.1 M98.3,88.2l9.6-2.2c0.6,1,1.3,1.8,2.1,2.6l-0.3,0.6l-3.5,8.6
	C102.7,95.5,99.9,92.2,98.3,88.2 M176.9,105.1c-4.6,5.7-6.7,8.4-11.3,14.1c-5.2,6.5-9.4,11.8-14.6,18.3c-3.7,4.7-6.4,4.8-12.5,4.8
	h-42c-8,0-8.6,0-13.5-6.2c-4.9-6.1-8.7-10.9-13.5-17c-3.8-4.8-4.8-6-8.6-10.8c-5.9-7.4-6.9-10.1,2.3-12.1l28.4-6.4
	c2.2,6,6.4,11.1,11.9,14.4l-1.3,3c-0.2,0.4-0.4,0.7-0.8,0.9c-0.9,0.5-1.6,1.2-2,2.1c-0.8,1.6-0.1,3.6,1.5,4.4
	c1.6,0.8,3.6,0.1,4.4-1.5c0,0,0,0,0,0c0.3-0.6,0.4-1.2,0.5-1.8c0-0.4,0-0.8-0.1-1.2c0-0.3,0-0.7,0.2-1l1.6-2.9
	c3.2,1.2,6.5,1.8,9.9,1.8c3.4,0,6.8-0.6,10-1.9l1.6,2.9c0.2,0.4,0.3,0.8,0.2,1.2c-0.2,1,0,1.9,0.4,2.8c0.8,1.6,2.8,2.3,4.4,1.5
	c1.6-0.8,2.3-2.8,1.5-4.4c0,0,0,0,0,0c-0.2-0.6-0.6-1.1-1.1-1.5c-0.3-0.3-0.6-0.5-1-0.7c-0.3-0.2-0.5-0.5-0.6-0.8l-1.3-3.2
	c5.5-3.3,9.7-8.4,11.8-14.4l31.3,7.1C180.9,98.3,180.5,100.5,176.9,105.1"/>
<path class="st1" d="M121.1,69.8V60c4,0.7,7.7,2.6,10.7,5.4l-7.7,5.5c-0.1,0.1-0.2,0.2-0.3,0.2C123,70.6,122.1,70.1,121.1,69.8
	 M138.3,81.3l-9.6-2.2c-0.1-1-0.4-2.1-0.8-3c0.1-0.1,0.2-0.2,0.3-0.2l7.1-6.3c2,3.3,3.1,7.1,3.1,10.9
	C138.3,80.8,138.3,81.1,138.3,81.3 M125.8,28.4c5.2,2.5,8.9,4.3,14.1,6.8c7.2,3.5,14.4,7,21.7,10.4c1.8,7.8,3.6,15.6,5.3,23.4
	c1.1,4.7,1.6,7.2,2.7,11.8c1.7,7.3,1.5,7.9-6,6.2l-18.5-4.2c0.1-0.8,0.1-1.6,0.1-2.4c0-5.5-1.6-11-4.8-15.5l2.6-2.4
	c0.3-0.3,0.7-0.4,1.1-0.5c1-0.1,1.9-0.4,2.7-1c1.4-1.1,1.6-3.2,0.5-4.6s-3.2-1.6-4.6-0.5l0,0c-0.5,0.4-0.9,0.8-1.2,1.4
	c-0.2,0.4-0.3,0.7-0.5,1.1c-0.1,0.3-0.3,0.6-0.6,0.8l-3,2.1c-4.3-4.6-10.1-7.5-16.4-8.3V31.9C121.1,27,121.5,26.4,125.8,28.4
	 M127.2,86.1l9.6,2.2c-1.6,3.9-4.3,7.2-7.8,9.5l-3.8-9.2C126,87.9,126.7,87,127.2,86.1 M117.5,101.2v-9.6c0.6,0,1.3-0.1,1.9-0.2
	c0.1,0.3,0.2,0.5,0.4,0.7l4.4,8C122.1,100.8,119.8,101.2,117.5,101.2 M176.9,105.1c-4.6,5.7-6.7,8.4-11.3,14.1
	c-5.2,6.5-9.4,11.8-14.6,18.3c-3.7,4.7-6.4,4.8-12.5,4.8h-20.9V108c3.4,0,6.8-0.6,10-1.9l1.6,2.9c0.2,0.4,0.3,0.8,0.2,1.2
	c-0.2,1,0,1.9,0.4,2.8c0.8,1.6,2.8,2.3,4.4,1.5c1.6-0.8,2.3-2.8,1.5-4.4c-0.2-0.6-0.6-1.1-1.1-1.5c-0.3-0.3-0.6-0.5-1-0.7
	c-0.3-0.2-0.5-0.5-0.6-0.8l-1.3-3.2c5.5-3.3,9.7-8.4,11.8-14.4l31.3,7.1C180.9,98.3,180.5,100.5,176.9,105.1"/>
<path class="st0" d="M408.9,103.9h-16.6v38.8H431v-16.6h-22.1V103.9z M492,104v22.1h-22l-0.2-0.2v16.8h38.8v-38.8h-16.7L492,104z
	 M392.3,65.1H409l-0.1-0.1V42.9h22l0.1,0.2V26.3h-38.7V65.1z M469.8,26.3v16.6H492v22.2h16.6V26.3L469.8,26.3z"/>
<path class="st2" d="M467.8,65.1l-22.2-22.2h24.2V26.3H431v16.8l22.1,22H467.8z M447.8,103.9h-14.7l18.4,18.4l3.8,3.8H431v16.6h38.8
	v-16.8l-11-11L447.8,103.9z M492,65.1v24.2l-3.8-3.8l-18.4-18.3v14.7l11.1,11l11,11h16.7V65.1L492,65.1z M431,87.1l-22-22h-16.8
	v38.8h16.7V79.7l22.1,22.1L431,87.1z"/>
<path class="st0" d="M311.1,185l-4.2,5c-1.8-2.2-4.4-3.6-7.2-3.7c-4.4,0-8,3.6-8,8.1c0,0.1,0,0.2,0,0.2c0,4.8,3.4,8.4,8,8.4
	c2.8-0.2,5.3-1.4,7.2-3.4l4.3,4.5c-3.1,3.2-7.3,5-11.8,5.2c-8.6,0-15-6.3-15-14.7c0-8.3,6.6-14.5,15.3-14.5
	C304,180.3,308.1,182,311.1,185L311.1,185z M314.6,209v-30.3h7.1V209H314.6z M349.8,198c0,6.8-4.8,11.3-12,11.3s-12.1-4.5-12.1-11.3
	s4.8-11.2,12.1-11.2C345,186.8,349.8,191.2,349.8,198L349.8,198z M332.8,198.1c0,3.4,2,5.7,4.9,5.7s4.9-2.3,4.9-5.7s-2-5.7-4.9-5.7
	S332.8,194.7,332.8,198.1L332.8,198.1z M375.1,209H368v-3.6c-1.5,2.6-4.3,4.1-7.2,3.9c-4.8,0-7.9-3.3-7.9-8.4V187h7.1v11.9
	c0,2.6,1.4,4.2,3.7,4.2c2.7,0,4.3-2.2,4.3-5.2V187h7.1V209z M402.9,209h-7.1v-2.9c-1.6,2.1-4,3.2-6.6,3.2c-6.2,0-10.3-4.6-10.3-11.4
	c0-6.7,4-11.2,10.1-11.2c2.7-0.1,5.2,1.1,6.8,3.2v-11.2h7.1V209L402.9,209z M395.8,198.1c0-3.4-2-5.7-4.9-5.7s-4.9,2.3-4.9,5.7
	s2,5.8,4.9,5.8C393.9,203.8,395.8,201.5,395.8,198.1z"/>
<path class="st0" d="M428.8,209l-13.2-17.6V209h-6.8v-28.6h6.4l13.2,17.7v-17.7h6.8V209H428.8z M460.4,194.6V209h-6.9v-2.5
	c-1.4,1.9-3.8,2.9-6.7,2.9c-4.7,0-7.6-2.9-7.6-6.9c0-4.2,3-6.6,8.5-6.7h5.8v-0.3c0-2.2-1.4-3.5-4.3-3.5c-2.3,0.1-4.5,0.8-6.6,1.8
	l-2-4.7c3.2-1.6,6.7-2.5,10.2-2.5C456.9,186.7,460.4,189.7,460.4,194.6z M453.5,201.6v-2H449c-2.1,0-3.2,0.7-3.2,2.4
	c0,1.6,1.1,2.6,3.1,2.6C451,204.8,452.8,203.5,453.5,201.6z M479.5,207.9c-1.8,1-3.8,1.5-5.9,1.5c-4.3,0-7.3-2.4-7.3-7v-9.7h-3.1
	v-4.6h3.1V182h7v6.1h5.8v4.7h-5.8v8.6c0,1.7,0.7,2.5,2,2.4c0.9-0.1,1.8-0.3,2.7-0.7L479.5,207.9z M490.3,180.7
	c0.1,2-1.5,3.7-3.5,3.8c-0.1,0-0.1,0-0.2,0c-2.1,0-3.7-1.7-3.7-3.8c0-2,1.7-3.7,3.7-3.7c1.9-0.1,3.6,1.4,3.7,3.3
	C490.3,180.5,490.3,180.6,490.3,180.7L490.3,180.7z M483,209v-22h7v22H483z M501,209l-8.3-22h7.3l4.7,15.6l4.8-15.6h7l-8.3,22H501z
	 M539.9,199.9h-15.5c0.5,2.4,2.7,4.2,5.2,4.1c2,0,3.9-0.8,5.3-2.2l3.7,3.6c-2.5,2.6-6,4.1-9.6,3.9c-7.2,0-11.7-4.5-11.7-11.2
	c0-6.8,4.7-11.3,11.5-11.3C536.5,186.8,540.3,191.9,539.9,199.9L539.9,199.9z M533.1,196.1c0.2-2.3-1.5-4.3-3.8-4.5
	c-0.2,0-0.3,0-0.5,0c-2.5,0-4.1,1.8-4.6,4.5H533.1L533.1,196.1z"/>
<path class="st0" d="M568.7,185l-4.2,5c-1.8-2.2-4.4-3.6-7.2-3.7c-4.4,0-8,3.6-8,8.1c0,0.1,0,0.2,0,0.2c0,4.8,3.4,8.4,8,8.4
	c2.8-0.2,5.3-1.4,7.2-3.4l4.3,4.5c-3.1,3.2-7.3,5-11.8,5.2c-8.6,0-15-6.3-15-14.7c0-8.3,6.6-14.5,15.3-14.5
	C561.6,180.3,565.7,182.1,568.7,185z M593.4,198c0,6.8-4.8,11.3-12,11.3s-12.1-4.5-12.1-11.3s4.8-11.2,12.1-11.2
	C588.6,186.8,593.4,191.2,593.4,198z M576.5,198.1c0,3.4,2,5.7,4.9,5.7s4.9-2.3,4.9-5.7s-2-5.7-4.9-5.7S576.5,194.7,576.5,198.1
	L576.5,198.1z M619.7,195.1V209h-7v-11.9c0-2.6-1.5-4.2-3.9-4.2c-2.6,0-4.2,1.8-4.5,4.5v11.7h-7.1v-22h7.1v3.6
	c1.6-2.6,4.4-4.1,7.4-3.9C616.5,186.7,619.7,190,619.7,195.1L619.7,195.1z"/>
<g>
	<path class="st0" d="M175.9,245.7h4.9l8.6,11.6v-11.6h4.9v19.7h-4.9l-8.6-11.6v11.6h-4.9V245.7z"/>
	<path class="st0" d="M197.4,258c0-4.3,3.7-7.7,8.3-7.7c4.5,0,8.2,3.5,8.2,7.7s-3.7,7.8-8.2,7.8C201.1,265.7,197.4,262.3,197.4,258z
		 M209.3,258c0-2-1.6-3.7-3.6-3.7c-2,0-3.6,1.7-3.6,3.7s1.6,3.7,3.6,3.7C207.7,261.7,209.3,260,209.3,258z"/>
	<path class="st0" d="M226.4,250.2v4c-3,0-4.9,1.7-4.9,4.4v6.7h-4.8v-14.8h4.8v2.7C222.5,251.4,224.2,250.2,226.4,250.2z"/>
	<path class="st0" d="M238.4,264.3c-0.9,0.8-2.3,1.4-3.6,1.4c-2.8,0-4.7-2-4.7-4.8v-6.5h-2v-3.9h2v-4.1h4.6v4.1h3.1v3.9h-3.1v5.6
		c0,0.9,0.5,1.6,1.3,1.6c0.5,0,1.1-0.2,1.4-0.5L238.4,264.3z"/>
	<path class="st0" d="M255.6,256v9.4H251v-8.3c0-1.6-1-2.8-2.5-2.8c-1.5,0-2.6,1.1-2.6,2.6v8.5H241v-20h4.8v6.9c0.9-1.2,2.5-2,4.3-2
		C253.4,250.2,255.6,252.6,255.6,256z"/>
	<path class="st0" d="M280.1,262.4h-7.7l-1.2,3h-5.5l7.8-19.7h5.5l7.8,19.7h-5.5L280.1,262.4z M278.6,258.7l-2.4-6l-2.4,6H278.6z"/>
	<path class="st0" d="M313.2,256v9.5h-4.7v-8.6c0-1.5-0.9-2.5-2.3-2.5c-1.5,0-2.5,1-2.5,2.3v8.8h-4.6v-8.6c0-1.5-1-2.5-2.4-2.5
		c-1.4,0-2.5,1-2.5,2.3v8.8h-4.8v-14.8h4.8v1.9c0.7-1.3,2.1-2.2,3.9-2.2c2.3,0,4.3,1.3,5.1,3.4c0.4-2.1,2.1-3.4,4.4-3.4
		C310.7,250.2,313.2,252.6,313.2,256z"/>
	<path class="st0" d="M327.1,260.7l2.7,2.7c-1.3,1.3-3.8,2.3-6.1,2.3c-4.6,0-8.1-3.2-8.1-7.8c0-4.5,3.4-7.7,7.8-7.7
		c4.7,0,7.6,3.4,7.6,9h-10.8c0.4,1.7,1.6,2.8,3.3,2.8C324.8,262.1,326.1,261.5,327.1,260.7z M320.3,256.5h6.1
		c-0.3-1.5-1.4-2.5-2.9-2.5C322,253.9,320.8,254.9,320.3,256.5z"/>
	<path class="st0" d="M343.4,250.2v4c-3,0-4.9,1.7-4.9,4.4v6.7h-4.8v-14.8h4.8v2.7C339.5,251.4,341.3,250.2,343.4,250.2z"/>
	<path class="st0" d="M346.2,246.2c0-1.3,1.1-2.5,2.6-2.5c1.4,0,2.5,1.2,2.5,2.5c0,1.4-1.1,2.6-2.5,2.6
		C347.3,248.8,346.2,247.6,346.2,246.2z M346.3,250.6h4.8v14.8h-4.8V250.6z"/>
	<path class="st0" d="M353.9,258c0-4.2,3.8-7.7,8.3-7.7c2.5,0,4.6,1,6,2.6l-3.2,2.7c-0.6-0.7-1.7-1.3-2.8-1.3
		c-1.9,0-3.5,1.7-3.5,3.7c0,2,1.6,3.8,3.6,3.8c1.1,0,2.2-0.5,2.9-1.3l3.2,2.6c-1.5,1.7-3.5,2.7-6.1,2.7
		C357.7,265.7,353.9,262.2,353.9,258z"/>
	<path class="st0" d="M383.9,256.6v8.8h-4.7v-1.3c-1,1.1-2.6,1.6-4.1,1.6c-3.2,0-5.6-1.9-5.6-4.7c0-2.9,2.7-4.9,6.2-4.9
		c1.1,0,2.3,0.3,3.5,0.7v-0.2c0-1.4-1.1-2.5-3.2-2.5c-1.3,0-2.5,0.4-3.7,0.9l-1.5-3.1c2.1-1,4.2-1.7,6.5-1.7
		C381,250.2,383.9,252.7,383.9,256.6z M379.2,260.7v-1c-0.8-0.4-1.8-0.6-2.8-0.6c-1.3,0-2.3,0.7-2.3,1.7s0.9,1.7,2.1,1.7
		C377.7,262.5,379,261.8,379.2,260.7z"/>
	<path class="st0" d="M394.4,261.4l7.3-5.4c2.2-1.7,2.8-2.8,2.8-4c0-1.3-1.2-2.2-2.6-2.2c-1.8,0-3.2,0.9-4.7,2.5l-3.1-3
		c2.1-2.5,4.6-3.9,7.9-3.9c4.4,0,7.5,2.7,7.5,6.4c0,2.6-1.1,4.6-4.5,7l-3.1,2.2h7.8v4.4h-15.3V261.4z"/>
	<path class="st0" d="M412.4,255.5c0-6,3.8-10.2,9.1-10.2c5.3,0,9.1,4.2,9.1,10.2c0,6-3.8,10.2-9.1,10.2
		C416.1,265.7,412.4,261.5,412.4,255.5z M425.5,255.5c0-3.4-1.7-5.7-4-5.7c-2.3,0-4,2.4-4,5.7s1.7,5.8,4,5.8
		C423.8,261.3,425.5,258.9,425.5,255.5z"/>
	<path class="st0" d="M433,261.4l7.3-5.4c2.2-1.7,2.8-2.8,2.8-4c0-1.3-1.2-2.2-2.6-2.2c-1.8,0-3.2,0.9-4.7,2.5l-3.1-3
		c2.1-2.5,4.6-3.9,7.9-3.9c4.4,0,7.5,2.7,7.5,6.4c0,2.6-1.1,4.6-4.5,7l-3.1,2.2h7.8v4.4H433V261.4z"/>
	<path class="st0" d="M450.9,261.4l7.3-5.4c2.2-1.7,2.8-2.8,2.8-4c0-1.3-1.2-2.2-2.6-2.2c-1.8,0-3.2,0.9-4.7,2.5l-3.1-3
		c2.1-2.5,4.6-3.9,7.9-3.9c4.4,0,7.5,2.7,7.5,6.4c0,2.6-1.1,4.6-4.5,7l-3.1,2.2h7.8v4.4h-15.3V261.4z"/>
</g>
<g>
	<defs>
		<rect id="SVGID_1_" x="481.8" y="256.3" width="142.6" height="0.6"/>
	</defs>
	<use xlink:href="#SVGID_1_"  style="overflow:visible;fill:#FFFFFF;"/>
	<clipPath id="SVGID_00000039121392050617286280000004329775547438457989_">
		<use xlink:href="#SVGID_1_"  style="overflow:visible;"/>
	</clipPath>
	<g style="clip-path:url(#SVGID_00000039121392050617286280000004329775547438457989_);">
		<rect x="481.8" y="256.3" class="st0" width="142.6" height="0.6"/>
	</g>
</g>
<g>
	<defs>
		<rect id="SVGID_00000171707821064887460460000004184522940189294474_" x="16.3" y="256.3" width="139.2" height="0.6"/>
	</defs>
	<use xlink:href="#SVGID_00000171707821064887460460000004184522940189294474_"  style="overflow:visible;fill:#FFFFFF;"/>
	<clipPath id="SVGID_00000143574839413854444570000014173031525488087474_">
		<use xlink:href="#SVGID_00000171707821064887460460000004184522940189294474_"  style="overflow:visible;"/>
	</clipPath>
	<g style="clip-path:url(#SVGID_00000143574839413854444570000014173031525488087474_);">
		<rect x="16.3" y="256.3" class="st0" width="139.2" height="0.6"/>
	</g>
</g>
<g>
	<defs>
		<rect id="SVGID_00000003807077220869130290000006477256220668862603_" x="242.1" y="13.4" width="0.8" height="205.8"/>
	</defs>
	<use xlink:href="#SVGID_00000003807077220869130290000006477256220668862603_"  style="overflow:visible;fill:#FFFFFF;"/>
	<clipPath id="SVGID_00000094583877443687296950000012884547058532515981_">
		<use xlink:href="#SVGID_00000003807077220869130290000006477256220668862603_"  style="overflow:visible;"/>
	</clipPath>
	<g style="clip-path:url(#SVGID_00000094583877443687296950000012884547058532515981_);">
		<rect x="242.1" y="13.4" class="st0" width="0.8" height="205.8"/>
	</g>
</g>
</svg>
