<?xml version="1.0" encoding="UTF-8"?><svg id="Layer_1" xmlns="http://www.w3.org/2000/svg" viewBox="0 0 500 245.57195"><defs><style>.cls-1,.cls-2{fill:#fff;}.cls-3{opacity:.8;}.cls-2{fill-rule:evenodd;}</style></defs><path class="cls-1" d="m141.15988,158.88644c.86975-.23723,1.89761-.47446,3.24179-.71165,1.35854-.22618,2.73439-.33202,4.11153-.31628,1.23685-.05396,2.47234.13406,3.63715.55351.89481.34634,1.68475.91841,2.29298,1.66057.58102.74327.98648,1.60831,1.18602,2.5304.25781,1.06157.39047,2.14964.39534,3.24207v9.80522h-4.8232v-9.25172c.08096-1.14319-.13702-2.28777-.63254-3.32114-.56866-.71165-1.4695-1.07202-2.37206-.94888-.3707-.01035-.74149.01614-1.10693.07909-.39534,0-.71161.07909-1.02785.07909v13.36359h-4.90222v-16.76379l-.00002-.00005Zm-9.01376,7.98653c.05327-1.24458-.24838-2.47868-.86977-3.55835-1.13675-1.44116-3.22649-1.68787-4.66753-.55101-.20462.16142-.38955.34637-.55097.55101-.68536,1.05557-1.01762,2.30164-.94882,3.55835-.05665,1.2803.27401,2.54796.94882,3.63744,1.02751,1.44116,3.02866,1.77641,4.46972.74884.28938-.20636.54243-.45943.74878-.74884.62079-1.10867.92188-2.36784.86977-3.63744m4.98129,0c.02777,1.26126-.15939,2.51807-.55347,3.71651-.37572,1.08299-.96751,2.07838-1.73952,2.92575-1.58286,1.7106-3.83925,2.63638-6.16731,2.5304-1.18856.00339-2.36769-.211-3.47899-.63258-1.01884-.43784-1.93463-1.0843-2.68831-1.89778-.77747-.84328-1.36999-1.83987-1.73949-2.92575-.84341-2.40588-.84341-5.02711,0-7.433.38869-1.05322.97961-2.02026,1.73949-2.84665.75699-.79005,1.67337-1.41002,2.68831-1.81873,1.07492-.452,2.2344-.66772,3.39993-.6326,1.1629-.00365,2.31616.21094,3.39993.6326.99927.43764,1.91029,1.05399,2.68831,1.81873.75987.82637,1.3508,1.79343,1.73949,2.84665.48569,1.17809.72777,2.44232.71161,3.71651m-26.64592,9.17262c-3.7162,0-6.56266-1.02792-8.46028-3.08389-1.9767-2.05592-2.92552-4.98169-2.92552-8.77727-.01477-1.72534.27982-3.43936.86977-5.06075,1.07033-2.81389,3.3268-5.01268,6.16732-6.00967,1.49266-.55003,3.07446-.81818,4.66499-.7908.87545-.00682,1.74944.07265,2.60932.23723.79073.15814,1.5023.31628,2.05577.47444.50993.1586,1.01136.34335,1.5023.55351.31555.10579.60997.26639.86975.47444l-1.5023,4.11188c-.77123-.42384-1.59554-.74294-2.45111-.94888-1.03367-.26299-2.09614-.3958-3.16273-.39539-.78048.00912-1.5545.14259-2.29297.39539-.75471.24896-1.43453.6841-1.9767,1.26518-.59904.65004-1.0806,1.39922-1.42323,2.2141-.36338,1.06969-.55031,2.19139-.55347,3.32111-.02084.98479.08545,1.96815.31626,2.92575.22298.85101.59799,1.65468,1.10695,2.37224.56072.67184,1.26264,1.21182,2.05578,1.5815.94889.4024,1.97461.59135,3.00459.55351.66177-.00693,1.32225-.05978,1.9767-.15816.53645-.05171,1.06629-.15768,1.58137-.31628.40295-.10776.79902-.23979,1.18603-.39539.30133-.16512.6194-.29767.94882-.39539l1.42323,4.11188c-.95198.56987-1.99518.97113-3.08365,1.18611-1.46633.408-2.98541.59457-4.50689.55351m-19.52983-10.83319c-.00229-.40692-.08282-.80962-.23721-1.18611-.13645-.36641-.3227-.71231-.55348-1.02792-.26126-.32336-.58367-.5921-.94882-.7908-.44936-.19687-.93278-.30431-1.42323-.31628-.4944-.02669-.98666.0827-1.42323.31628-.37651.14398-.70519.3905-.94882.71169-.27334.32961-.48736.70416-.63255,1.10703-.15167.40881-.25773.8331-.31627,1.26518h6.48358l.00002-.07906h.00002Zm-11.46489,1.81873c-.02252-1.37738.21903-2.74632.71161-4.03279.40463-1.0825,1.0541-2.05676,1.89764-2.84665.74551-.74754,1.63258-1.33894,2.60932-1.73962.98458-.37448,2.03031-.56219,3.08366-.55351,2.17598-.12468,4.30263.68005,5.85104,2.21408,1.42322,1.50243,2.13483,3.71651,2.13483,6.64226v.94888c0,.31628-.07908.63261-.07908.86983h-11.14857c.04941.97856.58312,1.86813,1.42322,2.37224,1.00058.60257,2.15338.90453,3.32086.86983.8753.00313,1.74893-.07629,2.60932-.23723.7331-.13005,1.44922-.34225,2.13483-.63258l.63256,3.9537c-.3318.15836-.67546.29054-1.02784.39539-.49006.15108-.99293.25694-1.5023.31628-.55347.07909-1.10695.15813-1.73949.23721-.60396.06413-1.21133.09055-1.81857.07909-1.37839.0372-2.75007-.20486-4.03247-.71165-1.08242-.40466-2.05661-1.05418-2.84642-1.89778-.79001-.78957-1.36207-1.77028-1.66044-2.84665-.40106-1.08736-.58897-2.24178-.55347-3.40021m-3.2418-.07909c.00265,1.26585-.21129,2.52283-.63255,3.71651-.38869,1.05324-.97962,2.02026-1.73951,2.84665-.80141.81084-1.77393,1.43222-2.84642,1.81873-1.21925.42778-2.5032.64178-3.79527.63258-.63354.00999-1.26713-.0164-1.89764-.07909l-1.89764-.23721c-.61226-.06696-1.21967-.17261-1.81858-.31628-.55347-.15816-1.10695-.23723-1.5023-.39539v-24.19675l4.90223-.7908v8.61919c.5638-.23154,1.14557-.41666,1.73949-.55351.62308-.13434,1.26092-.1875,1.89764-.15816,1.1124-.01212,2.21555.20316,3.2418.6326.93191.39558,1.7481,1.02139,2.37204,1.81873.65962.84438,1.14354,1.81229,1.42323,2.84663.39395,1.22569.581,2.50844.55347,3.79558m-4.98129-.15816c0-3.16298-1.18603-4.74446-3.47901-4.74446-.50412.01355-1.00641.06642-1.5023.15816-.40585.13049-.80214.28905-1.18602.47446v8.93539c.31069.07269.63038.09933.94882.07909.39534,0,.79073.07909,1.18602.07909,1.16223.07664,2.28712-.42664,3.00459-1.34425.7127-1.07599,1.072-2.34753,1.02784-3.63744m-15.97178,8.22372c-.86974.23723-1.89763.47446-3.24178.71167-1.35855.22617-2.7344.332-4.11155.31628-1.23685.05396-2.47233-.13406-3.63715-.55351-.89482-.34634-1.68476-.91841-2.29299-1.66057-.56638-.75217-.97026-1.61386-1.18602-2.5304-.26271-1.06067-.39545-2.14935-.39533-3.24207v-9.64706h4.82316v9.0145c-.06943,1.16801.14772,2.33531.63256,3.40021.53118.7655,1.45029,1.1638,2.37204,1.02792.37069.01035.7415-.01613,1.10696-.07909.39534,0,.71161-.07909,1.02784-.07909v-13.36354h4.90223v16.68471l.00006.00002-.00003.00002Zm-22.6135.55351c-.47441-.71167-1.02784-1.5815-1.66043-2.45131-.63591-.90759-1.32224-1.77879-2.05576-2.60947-.71162-.86983-1.50231-1.66055-2.29298-2.5304-.75074-.75485-1.54263-1.46759-2.37205-2.13501v9.64708h-5.13974v-22.77341h5.13944v8.61909c1.34416-1.42334,2.68832-2.84665,4.03248-4.42818,1.34416-1.50241,2.60925-2.92577,3.79528-4.19096h6.08824c-1.58136,1.81873-3.08365,3.63744-4.66499,5.29799-1.58137,1.73962-3.2418,3.40021-4.98129,5.13985,1.92099,1.63258,3.69375,3.43196,5.29756,5.37708,1.77104,2.1924,3.40809,4.48973,4.90223,6.87949h-6.08827l.00031.15816h-.00003Z"/><path class="cls-1" d="m240.39043,157.06773l-3.32088,3.9537c-1.38945-1.7476-3.46321-2.81335-5.69292-2.92575-3.50688.01147-6.34045,2.86389-6.32898,6.37103v.00005c.00017.06404.00134.12807.00351.19208-.17595,3.48801,2.50879,6.45825,5.99654,6.63423.10956.00552.21922.00819.32892.00803,2.17542-.12018,4.21799-1.08479,5.69292-2.68852l3.39992,3.55835c-2.47368,2.50774-5.81018,3.9782-9.32999,4.11186-6.32182.22516-11.62918-4.71756-11.85432-11.03989-.00694-.19461-.0089-.38934-.00591-.58406,0-6.56319,5.21851-11.46579,12.09741-11.46579,3.38184.1257,6.59547,1.50711,9.01376,3.87466l.00002.00002Zm2.76738,18.97786v-23.95956h5.61385v23.95956h-5.61385Zm27.832-8.69818c0,5.37704-3.79526,8.93539-9.48819,8.93539s-9.56725-3.55835-9.56725-8.93539,3.79526-8.85634,9.56725-8.85634c5.6929,0,9.48813,3.47926,9.48813,8.85634h.00006Zm-13.44159.07909c0,2.68852,1.58136,4.50723,3.87433,4.50723s3.87433-1.81873,3.87433-4.50723-1.58136-4.50723-3.87433-4.50723-3.87436,1.81873-3.87436,4.50723h.00003Zm33.44583,8.61911h-5.61383v-2.84665c-1.16168,2.02205-3.36478,3.21548-5.6929,3.08389-3.79526,0-6.2464-2.60947-6.2464-6.64226v-10.99135h5.61383v9.40987c0,2.05592,1.10693,3.32112,2.92554,3.32112,2.13483,0,3.39993-1.73964,3.39993-4.11186v-8.61911h5.61383v17.39635Zm21.98093,0h-5.61383v-2.29317c-1.24039,1.62267-3.17639,2.56142-5.21854,2.5304-4.90222,0-8.14401-3.63744-8.14401-9.0145,0-5.29799,3.16272-8.85634,7.9859-8.85634,2.09793-.08562,4.10538.85915,5.37662,2.53038v-8.85629h5.61383v23.95953l.00003-.00003v.00002Zm-5.61383-8.61911c0-2.68852-1.58139-4.50723-3.87433-4.50723s-3.87433,1.81873-3.87433,4.50723,1.58136,4.58632,3.87433,4.58632c2.37207-.0791,3.87436-1.89783,3.87436-4.58633l-.00003.00002Z"/><path class="cls-1" d="m333.45367,176.04559l-10.43701-13.91711v13.91711h-5.37662v-22.6153h5.06036l10.43701,13.99619v-13.99619h5.37662v22.6153h-5.06036Zm24.98557-11.3867v11.3867h-5.45572v-1.97687c-1.29425,1.57205-3.26569,2.42542-5.29758,2.29317-3.71622,0-6.00919-2.29317-6.00919-5.45618,0-3.32114,2.37204-5.21892,6.72079-5.29799h4.58594v-.23723c0-1.73964-1.10696-2.76759-3.39993-2.76759-1.81857.1123-3.59473.59676-5.21848,1.42334l-1.58139-3.71651c2.49911-1.27428,5.25986-1.951,8.06494-1.97687,4.82315.07912,7.59052,2.45135,7.59052,6.326h.00003l.00006.00002Zm-5.45572,5.53522v-1.5815h-3.55807c-1.66043,0-2.53018.55351-2.53018,1.89778,0,1.26518.86978,2.05592,2.45111,2.05592,1.60516.10683,3.08774-.86014,3.63715-2.37224v.00003Zm20.55774,4.98169c-1.43448.77124-3.03635,1.17853-4.66498,1.18611-3.39993,0-5.77194-1.89778-5.77194-5.53522v-7.67023h-2.45111v-3.63744h2.45111v-4.82355h5.53476v4.82355h4.58594v3.71654h-4.58594v6.80042c0,1.34425.5535,1.97687,1.58136,1.89778.73779-.06248,1.45966-.24963,2.13483-.55351l1.186,3.79556-.00003-.00002Zm8.53934-21.50824c.06366,1.59468-1.17731,2.93906-2.77188,3.00278-.05121.00206-.10242.00275-.15366.00204-1.63757-.02148-2.94763-1.36652-2.92615-3.00421.02112-1.60738,1.31891-2.90527,2.92615-2.92638,1.53314-.0826,2.84296,1.09341,2.92554,2.62669.00537.09961.00537.19945,0,.29906v.00003-.00002Zm-5.77194,22.37807v-17.39641h5.53476v17.39641h-5.53476Zm14.23227,0l-6.56265-17.39641h5.77194l3.71619,12.33562,3.79526-12.33563h5.53479l-6.56265,17.39642h-5.6929.00003Zm30.75751-7.19579h-12.25558c.40054,1.93636,2.13528,3.30426,4.11154,3.24207,1.56622-.03073,3.06302-.6521,4.19061-1.73964l2.92554,2.84665c-1.96411,2.07892-4.73315,3.20392-7.59052,3.08389-5.6929,0-9.25098-3.55835-9.25098-8.85634,0-5.37708,3.71622-8.93542,9.0929-8.93542,6.08826,0,9.0929,4.03281,8.77652,10.35876v.00003h-.00003Zm-5.37662-3.00484c.15451-1.80554-1.18381-3.3945-2.9892-3.54901-.13657-.01169-.27374-.01482-.41071-.00934-1.97668,0-3.24176,1.42334-3.63715,3.55835h7.03705Z"/><path class="cls-1" d="m444.07001,157.06773l-3.32089,3.9537c-1.38943-1.74762-3.4632-2.81337-5.6929-2.92575-3.50687.01147-6.34045,2.86389-6.32898,6.37103v.00005c.00021.06404.00134.12807.00354.19208-.17596,3.48801,2.50879,6.45825,5.99655,6.63423.10953.00552.21921.00819.32892.00803,2.17542-.12016,4.21799-1.08478,5.6929-2.68852l3.39993,3.55835c-2.47369,2.50777-5.81018,3.97821-9.32999,4.11186-6.32181.22514-11.62918-4.71761-11.85434-11.03993-.00693-.1946-.00891-.38931-.00589-.58401,0-6.56319,5.21848-11.46579,12.09741-11.46579,3.3783.14124,6.58661,1.52037,9.01376,3.87466l-.00003.00002Zm19.52985,10.27966c0,5.37704-3.79526,8.93539-9.48819,8.93539s-9.56723-3.55835-9.56723-8.93539,3.79526-8.85634,9.56723-8.85634c5.6929,0,9.48819,3.47926,9.48819,8.85634Zm-13.36255.07909c0,2.68852,1.58139,4.50723,3.87436,4.50723s3.87433-1.81873,3.87433-4.50723-1.58136-4.50723-3.87433-4.50723-3.8743,1.81873-3.8743,4.50723h-.00006Zm34.15744-2.37224v10.99133h-5.53476v-9.40987c.19247-1.63194-.97437-3.11095-2.60617-3.30344-.15842-.01871-.31812-.02461-.47751-.01768-2.05576,0-3.32089,1.42334-3.55807,3.55835v9.25172h-5.61383v-17.39641h5.61386v2.84665c1.22977-2.03127,3.48044-3.21751,5.85107-3.08389,3.79526-.07909,6.32544,2.53038,6.32544,6.56319l-.00003.00008v-.00003Z"/><rect class="cls-1" x="19.07808" y="211.43261" width="136.94661" height="2.28596"/><rect class="cls-1" x="188.93356" y="20.91809" width="1.70659" height="161.8324"/><rect class="cls-1" x="188.93356" y="20.91809" width="1.70647" height="161.8324"/><rect class="cls-1" x="188.93356" y="20.91809" width="1.70647" height="161.8324"/><polygon class="cls-1" points="191.22432 183.33466 189.39149 183.33466 189.39149 182.29256 189.14014 182.29256 189.14014 21.37602 191.22432 21.37602 191.22432 183.33466"/><path class="cls-2" d="m73.22073,75.36199l-2.87078.63797c0-.39873-.07975-.7975-.07975-1.19617-.00946-3.03615.81831-6.01615,2.39234-8.61244l5.58213,4.94418c.09088.09849.19899.17957.31899.23924-.3428.84044-.55783,1.72746-.63797,2.63157-.15949.07975-.39873.07975-.55821.15949l-4.14676,1.19617v-.00002Zm10.84528-16.90588v7.81499c-.77788.24237-1.50679.62033-2.1531,1.11643-.23924-.15949-.47846-.39873-.7177-.55821l-5.66188-3.98725c2.31819-2.31475,5.30117-3.84805,8.53269-4.38596m-38.8357,18.02233c2.71132-11.88198,5.02393-21.92981,7.73525-33.81179,1.19617-5.34289,1.99361-6.7783,6.85804-9.56937,6.69856-3.90749,11.72248-6.69855,18.89951-10.84529,4.46571-2.55183,5.34291-2.39234,5.34291,3.11005v27.59169c-4.99863.61105-9.62561,2.95276-13.07811,6.61881l-2.39238-1.67464c-.29471-.17036-.49903-.46228-.55822-.7975-.22232-.75214-.66714-1.41934-1.27592-1.91383-1.12484-.90065-2.76683-.7189-3.66748.40594-.89814,1.12171-.72023,2.75849.39794,3.66104.36213.32067.8021.54066,1.27591.63797.31899.07974.63797.07974.95694.15949.25821.05709.50229.16557.71769.31898l2.23287,1.99361c-2.45202,3.62536-3.75784,7.904-3.74802,12.2807,0,.7975.07974,1.5949.15949,2.39234l-4.86444,1.03664c-.34739-.01022-.69489.01652-1.03664.07975l-.7177.23924c-3.18979.63796-6.37957,1.35565-9.64912,2.07335-4.38596,1.03664-4.54545.15949-3.58852-3.98723m44.4976-10.20733v-7.81495c3.20174.57728,6.16642,2.07347,8.53269,4.30622l-6.14035,4.38596c-.07974.07975-.15949.15949-.23924.15949-.6676-.44117-1.39189-.78989-2.1531-1.03664m13.71609,9.17069l-7.65552-1.75447c-.07958-.82712-.29513-1.63543-.63797-2.39234.07975-.07975.15949-.15949.23924-.15949l5.66189-5.02393c1.60903,2.61434,2.46453,5.62238,2.47209,8.69218-.07075.20478-.09792.42208-.07975.63797m-9.96811-42.185c4.14672,1.99363,7.09728,3.42903,11.24396,5.42264,5.74162,2.79107,11.48324,5.58214,17.30461,8.29346,1.43541,6.22009,2.87078,12.44018,4.22649,18.66028.87719,3.74801,1.27592,5.74162,2.15311,9.40989,1.35567,5.82137,1.19618,6.29984-4.78468,4.94418l-14.75278-3.34928c.06636-.63568.093-1.27488.07975-1.91388.03164-4.41665-1.30555-8.73467-3.82776-12.36045l2.07342-1.91385c.24991-.21146.55355-.34948.87719-.39871.77815-.05931,1.52407-.3356,2.1531-.7975,1.12458-.90097,1.30585-2.54301.40488-3.66759s-2.54301-1.30585-3.66759-.40488c-.00229.00183-.00456.00366-.00684.0055h0c-.40015.29407-.72752.67601-.95694,1.11643-.15949.31898-.23924.55822-.39873.8772-.0849.25953-.25309.48378-.47846.63796l-2.39234,1.67464c-3.46343-3.65139-8.08481-5.99027-13.07811-6.61881v-16.82613c.07974-3.90749.39872-4.38596,3.82774-2.79107m-5.10367,50.23915c-.49951.0967-1.00645.15006-1.51515.15949-.47985.01322-.95997-.01346-1.43541-.07974l-.23924.47847-3.50883,6.45938c1.69543.57499,3.47289.87123,5.26316.87718,1.81577-.01246,3.61845-.30842,5.34289-.87718l-3.50876-6.37959c-.16102-.19373-.29514-.40832-.39873-.63796m6.2201-4.22648l7.6555,1.75439c-1.26035,3.09566-3.42896,5.73689-6.22009,7.57569l-3.03031-7.33655c.59832-.60834,1.13275-1.27636,1.5949-1.99363m-23.0463,1.67464l7.6555-1.75438c.46875.75883,1.03141,1.45546,1.67464,2.07337l-.23924.47847-2.79106,6.85804c-2.83831-1.84206-5.0385-4.51572-6.29984-7.6555m62.67941,13.47687c-3.66827,4.54545-5.3429,6.69856-9.01117,11.24397-4.14672,5.18341-7.496,9.40983-11.64274,14.59329-2.95055,3.74801-5.10365,3.82776-9.9681,3.82776h-33.49271c-6.37959,0-6.85806,0-10.76555-4.94417-3.90749-4.86444-6.93779-8.69218-10.76555-13.55661-3.0303-3.82776-3.82774-4.78468-6.85804-8.61244-4.70491-5.90111-5.50241-8.05423,1.83414-9.64911l22.64751-5.10366c1.76003,4.79856,5.10862,8.85063,9.48962,11.48324l-1.03664,2.39234c-.12192.30664-.34774.56068-.63797.7177-.70058.36861-1.26087.95692-1.59489,1.67464-.64858,1.29432-.12511,2.86935,1.16921,3.51793,1.29431.64858,2.86935.12511,3.51792-1.16921.00494-.00986.00982-.01975.01464-.02967l.00317-.00644c.21621-.45132.35119-.93722.39873-1.43541.01312-.32105-.01366-.64249-.07975-.95694-.0247-.27564.03068-.55255.15949-.7975l1.27592-2.31261c2.52318.95173,5.19802,1.43807,7.89472,1.43541,2.73101.01464,5.439-.49982,7.97438-1.51496l1.27592,2.31259c.17415.28663.23126.62932.15948.95694-.13646.75922-.02461,1.54221.31898,2.23285.62654,1.30513,2.19246,1.85523,3.49759,1.2287,1.30514-.62654,1.85524-2.19247,1.2287-3.4976-.00552-.0115-.01112-.02295-.0168-.03436l-.00457-.00936c-.19878-.45959-.49861-.86844-.87719-1.19618-.2464-.2124-.51358-.39942-.7975-.55822-.24183-.13621-.41541-.36766-.47846-.63796l-1.03664-2.55183c4.37951-2.61359,7.70798-6.67548,9.40983-11.48325l24.96011,5.66188c5.02393,1.35566,4.70491,3.11005,1.83414,6.77831"/><path class="cls-1" d="m317.78235,92.92132h-13.28549v31.05283h30.97278v-13.2855h-17.68729v-17.76733Zm66.50748.08002v17.68731h-17.60733l-.1601-.16006v13.44555h31.05283v-31.05284h-13.36548l.08005.08004h.00003Zm-79.79291-31.13287h13.36554l-.08005-.08003v-17.68731h17.60733l.08005.16007v-13.44555h-30.97284v31.05283h-.00003Zm62.0256-31.05284v13.28549h17.76733v17.76735h13.28549v-31.05284s-31.05283,0-31.05283,0Z"/><g class="cls-3"><path class="cls-1" d="m364.92184,61.86848l-17.76733-17.76734h19.36801v-13.28549h-31.05286v13.44555l17.68732,17.60731s11.76486-.00004,11.76486-.00003Zm-16.00662,31.05283h-11.76486l14.7261,14.72609,3.04126,3.04126h-19.44809v13.2855h31.05283v-13.44557l-8.80362-8.80363s-8.80362-8.80364-8.80362-8.80365Zm35.3746-31.05283v19.368l-3.04123-3.04125-14.7261-14.64606v11.76486l8.88367,8.80364,8.80362,8.80363h13.36554v-31.05282s-13.28549,0-13.28549,0Zm-48.82019,17.60724l-17.60733-17.60731h-13.44547v31.05289h13.36554v-19.36799l17.68732,17.68732-.00006-11.76491v-.00002Z"/></g><g><path class="cls-1" d="m170.73926,204.85652v2.83617h8.90498v4.05498h-8.90498v3.20686h9.8062v4.05498h-14.33861v-18.20799h14.33861v4.05498h-9.8062Z"/><path class="cls-1" d="m197.02724,205.30714v13.70239h-4.4793v-1.53744c-.84812,1.13994-2.27935,1.85555-4.00188,1.85555-2.96868,0-5.06242-2.19995-5.06242-5.30061v-8.71989h4.32051v7.71246c0,1.51063.9538,2.57117,2.33193,2.57117s2.41185-1.03373,2.41185-2.38556v-7.89807h4.4793Z"/><path class="cls-1" d="m209.45404,204.98903v3.73687c-2.78307,0-4.50559,1.59055-4.50559,4.10809v6.17554h-4.4793v-13.70239h4.4793v2.49125c.90122-1.72253,2.51806-2.80936,4.50559-2.80936Z"/><path class="cls-1" d="m211.25438,212.14519c0-3.9493,3.41876-7.15616,7.63306-7.15616,4.18748,0,7.57996,3.20686,7.57996,7.15616,0,3.94877-3.39247,7.18245-7.57996,7.18245-4.2143,0-7.63306-3.23368-7.63306-7.18245Zm10.94561,0c0-1.88184-1.48381-3.41929-3.31255-3.41929-1.85555,0-3.36618,1.53744-3.36618,3.41929s1.51063,3.44558,3.36618,3.44558c1.82874,0,3.31255-1.56373,3.31255-3.44558Z"/><path class="cls-1" d="m244.2742,212.14519c0,4.21377-2.62375,7.18245-6.28123,7.18245-1.85503,0-3.41876-.76872-4.50559-2.09374v6.33433h-4.4793v-18.26109h4.4793v1.77563c1.08683-1.32502,2.65057-2.09374,4.50559-2.09374,3.65748,0,6.28123,2.96868,6.28123,7.15616Zm-4.31999,0c0-1.98806-1.37813-3.41929-3.33937-3.41929-1.82874,0-3.12747,1.43123-3.12747,3.41929,0,2.01435,1.29873,3.44558,3.12747,3.44558,1.96124,0,3.33937-1.43123,3.33937-3.44558Z"/><path class="cls-1" d="m256.6216,214.68954l2.49125,2.51754c-1.21933,1.24562-3.55179,2.12056-5.61872,2.12056-4.24059,0-7.44798-2.99497-7.44798-7.20927,0-4.16067,3.10118-7.12934,7.23556-7.12934,4.3468,0,6.99737,3.10118,6.99737,8.29557h-9.99233c.34493,1.56373,1.45805,2.62375,3.02178,2.62375,1.16623,0,2.41185-.4769,3.31308-1.21881Zm-6.28175-3.92248h5.64553c-.31811-1.40494-1.27244-2.35875-2.67686-2.35875-1.45805,0-2.54435.92751-2.96868,2.35875Z"/><path class="cls-1" d="m269.31235,215.32576l6.73131-5.03613c2.04116-1.53692,2.62375-2.54435,2.62375-3.65748,0-1.24562-1.08631-2.04064-2.41133-2.04064-1.69624,0-2.96868.82183-4.34628,2.27935l-2.83617-2.80936c1.93495-2.33246,4.2937-3.57808,7.28866-3.57808,4.08127,0,6.94374,2.49125,6.94374,5.96312,0,2.41185-1.00744,4.2937-4.18748,6.46736l-2.86246,2.04064h7.23503v4.05498h-14.17877v-3.68377Z"/><path class="cls-1" d="m285.92663,209.89213c0-5.5125,3.47239-9.40869,8.37497-9.40869,4.92992,0,8.40231,3.89619,8.40231,9.40869,0,5.53932-3.47239,9.43551-8.40231,9.43551-4.90257,0-8.37497-3.89619-8.37497-9.43551Zm12.11237,0c0-3.10065-1.53744-5.30061-3.7374-5.30061-2.17366,0-3.71006,2.19995-3.71006,5.30061,0,3.10118,1.53639,5.32742,3.71006,5.32742,2.19995,0,3.7374-2.22624,3.7374-5.32742Z"/><path class="cls-1" d="m305.00587,215.32576l6.73131-5.03613c2.04116-1.53692,2.62375-2.54435,2.62375-3.65748,0-1.24562-1.08631-2.04064-2.41133-2.04064-1.69624,0-2.96868.82183-4.34628,2.27935l-2.83617-2.80936c1.93495-2.33246,4.2937-3.57808,7.28866-3.57808,4.08127,0,6.94374,2.49125,6.94374,5.96312,0,2.41185-1.00744,4.2937-4.18748,6.46736l-2.86246,2.04064h7.23503v4.05498h-14.17877v-3.68377Z"/><path class="cls-1" d="m330.47254,215.53766h-8.82611l-.39751-3.44558,8.24247-11.26425h5.51356v10.94614h2.30511v3.76369h-2.30511v3.47187h-4.53241v-3.47187Zm0-3.76369v-6.25494l-4.53241,6.25494h4.53241Z"/></g><rect class="cls-1" x="347.46065" y="211.43261" width="136.94661" height="2.28596"/></svg>