<svg id="Layer_1" data-name="Layer 1" xmlns="http://www.w3.org/2000/svg" xmlns:xlink="http://www.w3.org/1999/xlink" viewBox="0 0 400 190"><defs><style>.cls-1{fill-rule:evenodd;}.cls-2{opacity:0.8;}.cls-3{clip-path:url(#clip-path);}.cls-4{clip-path:url(#clip-path-2);}.cls-5{clip-path:url(#clip-path-3);}.cls-6{clip-path:url(#clip-path-4);}</style><clipPath id="clip-path"><rect x="154.68931" y="9.26397" width="0.64658" height="131.58023"/></clipPath><clipPath id="clip-path-2"><rect x="314.13738" y="166.22268" width="81.79309" height="0.64658"/></clipPath><clipPath id="clip-path-3"><rect x="288.46793" y="166.22268" width="109.53207" height="0.64658"/></clipPath><clipPath id="clip-path-4"><rect x="3" y="166.22268" width="109.53207" height="0.64658"/></clipPath></defs><g id="SVGID"><path d="M3.38823,166.22271H85.18134v.64658H3.38823Z"/></g><rect x="3.38823" y="166.22268" width="81.79312" height="0.64658"/><path d="M115.24758,121.70524c.71125-.194,1.5518-.388,2.651-.58192a19.14417,19.14417,0,0,1,3.36224-.25863,7.77882,7.77882,0,0,1,2.9743.45261,4.54575,4.54575,0,0,1,1.8751,1.35783,5.11676,5.11676,0,0,1,.96988,2.06908,11.44875,11.44875,0,0,1,.32329,2.651v8.01766h-3.9442v-7.56506a5.39851,5.39851,0,0,0-.51727-2.71568,2.1168,2.1168,0,0,0-1.93976-.7759,4.5804,4.5804,0,0,0-.90521.06467c-.3233,0-.58193.06466-.84053.06466v10.92731h-4.00883Zm-7.37107,6.53052a5.372,5.372,0,0,0-.71126-2.90964,2.71772,2.71772,0,0,0-4.26746,0,4.8554,4.8554,0,0,0-.77591,2.90964,5.21083,5.21083,0,0,0,.77591,2.97431,2.62059,2.62059,0,0,0,4.26746,0,5.616,5.616,0,0,0,.71126-2.97431m4.07349,0a9.08786,9.08786,0,0,1-.45261,3.039,6.92,6.92,0,0,1-1.42249,2.39236,6.47052,6.47052,0,0,1-5.04337,2.06908,7.95737,7.95737,0,0,1-2.845-.51727,6.48976,6.48976,0,0,1-2.19839-1.5518,6.72558,6.72558,0,0,1-1.42248-2.39236,9.18534,9.18534,0,0,1,0-6.07791,7.03958,7.03958,0,0,1,1.42248-2.32768,6.30777,6.30777,0,0,1,2.19839-1.48715,6.6561,6.6561,0,0,1,2.78032-.51727,7.60275,7.60275,0,0,1,2.78032.51727,7.33248,7.33248,0,0,1,2.19839,1.48715,7.03964,7.03964,0,0,1,1.42248,2.32768,7.71587,7.71587,0,0,1,.58192,3.039m-21.7899,7.50038c-3.03895,0-5.36666-.84053-6.91846-2.52168-1.61646-1.68112-2.39237-4.07349-2.39237-7.17711a11.80643,11.80643,0,0,1,.71126-4.13814,8.35684,8.35684,0,0,1,5.04337-4.91406,10.51033,10.51033,0,0,1,3.81483-.64663,10.90006,10.90006,0,0,1,2.13379.194c.64663.12931,1.22851.25863,1.68112.38795a12.72192,12.72192,0,0,1,1.22852.45261,2.31486,2.31486,0,0,1,.71124.388l-1.22851,3.36225a8.09591,8.09591,0,0,0-2.00442-.7759,10.47379,10.47379,0,0,0-2.58635-.3233,6.007,6.007,0,0,0-1.87509.3233,3.86822,3.86822,0,0,0-1.61646,1.03453,6.24093,6.24093,0,0,0-1.16385,1.81045,8.5163,8.5163,0,0,0-.45261,2.71565,9.36345,9.36345,0,0,0,.25863,2.39236,5.96679,5.96679,0,0,0,.90521,1.93976,4.86864,4.86864,0,0,0,1.68114,1.29318,5.7526,5.7526,0,0,0,2.457.45259,11.69985,11.69985,0,0,0,1.61646-.12931,6.52172,6.52172,0,0,0,1.29318-.25862,8.4585,8.4585,0,0,0,.96988-.3233,3.95481,3.95481,0,0,1,.7759-.32329l1.16386,3.36225a7.88433,7.88433,0,0,1-2.52168.96987,12.49207,12.49207,0,0,1-3.68554.4526M74.1895,126.87788a2.59448,2.59448,0,0,0-.194-.96987,3.48425,3.48425,0,0,0-.45261-.84053,2.58754,2.58754,0,0,0-.77591-.64663,3.08828,3.08828,0,0,0-1.16385-.25862,2.21434,2.21434,0,0,0-1.16386.25862,1.76522,1.76522,0,0,0-.7759.58194,3.02432,3.02432,0,0,0-.51727.90521,4.843,4.843,0,0,0-.25863,1.03454h5.302ZM64.814,128.365a8.81817,8.81817,0,0,1,.58192-3.29759,6.12858,6.12858,0,0,1,1.55181-2.32768,6.49473,6.49473,0,0,1,2.13379-1.42248,6.9333,6.9333,0,0,1,2.52169-.45261,6.28763,6.28763,0,0,1,4.78473,1.81044,7.61706,7.61706,0,0,1,1.74577,5.43131v.7759c0,.25863-.06466.51727-.06466.71125H68.95222a2.4035,2.4035,0,0,0,1.16385,1.93977,4.97763,4.97763,0,0,0,2.71566.71124,11.38429,11.38429,0,0,0,2.13378-.194,8.10972,8.10972,0,0,0,1.74578-.51726l.51728,3.23292a5.7736,5.7736,0,0,1-.84053.32329,6.86836,6.86836,0,0,1-1.22852.25864c-.4526.06466-.90522.1293-1.42248.194a11.94788,11.94788,0,0,1-1.48715.06467,8.35949,8.35949,0,0,1-3.29759-.58192,6.12841,6.12841,0,0,1-2.32768-1.5518,5.28777,5.28777,0,0,1-1.35783-2.32768,7.38057,7.38057,0,0,1-.45261-2.78032m-2.651-.06467a9.07388,9.07388,0,0,1-.51727,3.039,7.03961,7.03961,0,0,1-1.42249,2.32768,6.25379,6.25379,0,0,1-2.32768,1.48715,9.17765,9.17765,0,0,1-3.10361.51726,13.5342,13.5342,0,0,1-1.55181-.06466l-1.55181-.194a11.9345,11.9345,0,0,1-1.48715-.25863c-.45261-.12932-.90522-.194-1.22852-.3233v-19.7855l4.00883-.64663v7.04785a9.15786,9.15786,0,0,1,1.42249-.45261,6.04255,6.04255,0,0,1,1.55181-.12931,6.67928,6.67928,0,0,1,2.651.51727,4.8886,4.8886,0,0,1,1.93976,1.48715,6.56419,6.56419,0,0,1,1.16386,2.32767,9.47953,9.47953,0,0,1,.4526,3.10362m-4.07349-.12931c0-2.58635-.96988-3.87952-2.845-3.87952a7.92461,7.92461,0,0,0-1.22851.12932,7.52847,7.52847,0,0,0-.96988.388v7.30641a2.66357,2.66357,0,0,0,.7759.06467c.3233,0,.64663.06466.96988.06466a2.87857,2.87857,0,0,0,2.457-1.09919,5.07162,5.07162,0,0,0,.84053-2.9743M45.0286,134.89563c-.71123.194-1.55179.388-2.651.58192a19.1442,19.1442,0,0,1-3.36225.25862,7.7787,7.7787,0,0,1-2.97431-.4526,4.54584,4.54584,0,0,1-1.8751-1.35783,5.55613,5.55613,0,0,1-.96988-2.06908,11.02086,11.02086,0,0,1-.32329-2.651v-7.88833H36.817v7.37108a5.86893,5.86893,0,0,0,.51728,2.78033,2.00514,2.00514,0,0,0,1.93975.84053,4.5805,4.5805,0,0,0,.90522-.06467c.3233,0,.58193-.06466.84053-.06466V121.25266h4.00883v13.643Zm-18.49235.45261c-.38795-.58193-.84052-1.29317-1.35783-2.00442a24.22194,24.22194,0,0,0-1.68111-2.13374c-.58193-.71124-1.22853-1.35782-1.87511-2.06908a23.61959,23.61959,0,0,0-1.93976-1.74578v7.88834H15.47938V116.66191h4.20281v7.04778c1.0992-1.16386,2.19839-2.32769,3.29759-3.62089,1.0992-1.22851,2.13374-2.39236,3.10362-3.42691h4.9787c-1.29317,1.48715-2.52168,2.97431-3.81483,4.33212-1.29318,1.42248-2.651,2.78033-4.07349,4.20281a34.94662,34.94662,0,0,1,4.33212,4.39679,57.25243,57.25243,0,0,1,4.00883,5.6253H26.536Z"/><path class="cls-1" d="M60.15847,53.10248l-2.32768.51727c0-.32329-.06467-.64662-.06467-.96987a13.38935,13.38935,0,0,1,1.93976-6.98314l4.5261,4.00884a.89279.89279,0,0,0,.25864.194,7.37338,7.37338,0,0,0-.51727,2.13373c-.12932.06466-.3233.06466-.45261.12931ZM68.952,39.39487v6.33654a5.60576,5.60576,0,0,0-1.74578.90522c-.194-.12932-.38794-.3233-.58193-.45261l-4.59076-3.23293A12.75565,12.75565,0,0,1,68.952,39.39487M37.4633,54.00772c2.19839-9.63414,4.0735-17.78111,6.27189-27.41525.96987-4.33212,1.61646-5.496,5.56063-7.759,5.43132-3.16827,9.50481-5.43132,15.32408-8.79357C68.24078,7.9708,68.952,8.10012,68.952,12.56156V34.93343a17.47951,17.47951,0,0,0-10.604,5.36666l-1.93979-1.35783a.93451.93451,0,0,1-.45261-.64663,3.14929,3.14929,0,0,0-1.03455-1.55177,2.11554,2.11554,0,0,0-2.651,3.29759,2.24045,2.24045,0,0,0,1.03453.51727c.25864.06466.51728.06466.77591.12932a1.59758,1.59758,0,0,1,.58192.25864l1.81045,1.61646a17.70258,17.70258,0,0,0-3.039,9.95742c0,.64663.06465,1.29318.12931,1.93976l-3.94417.84052a3.97745,3.97745,0,0,0-.84053.06466l-.58193.194c-2.58634.51727-5.17268,1.09919-7.82368,1.68112-3.55622.84052-3.68554.12931-2.90964-3.23293m36.0795-8.27629V39.39487a13.59633,13.59633,0,0,1,6.91847,3.49156l-4.97871,3.55622c-.06465.06466-.12932.12932-.194.12932a7.18553,7.18553,0,0,0-1.74578-.84053m11.12127,7.43578-6.20725-1.42256a6.12245,6.12245,0,0,0-.51727-1.93976c.06466-.06466.12931-.12931.194-.12931l4.59077-4.0735a13.5098,13.5098,0,0,1,2.00442,7.04779,1.26028,1.26028,0,0,0-.06466.51727m-8.08233-34.2044c3.36224,1.61647,5.75461,2.78032,9.11682,4.39679,4.65541,2.263,9.31082,4.52611,14.0309,6.7245,1.16386,5.04336,2.32769,10.08673,3.42692,15.1301.71124,3.039,1.03454,4.65542,1.74577,7.62972,1.0992,4.72008.96989,5.108-3.87951,4.00883L89.06082,54.137a12.4583,12.4583,0,0,0,.06466-1.55181,17.33261,17.33261,0,0,0-3.10362-10.02208L87.703,41.01135a1.43533,1.43533,0,0,1,.71124-.32329,3.38409,3.38409,0,0,0,1.74578-.64663,2.11554,2.11554,0,1,0-2.64547-3.302l-.00554.00446h0a2.63279,2.63279,0,0,0-.7759.90522c-.12932.25864-.194.45261-.3233.71125a1.00556,1.00556,0,0,1-.38794.51727l-1.93976,1.35782a17.65449,17.65449,0,0,0-10.604-5.36666V21.22581c.06465-3.16827.32329-3.55622,3.10361-2.26306M72.44362,59.69762a7.16236,7.16236,0,0,1-1.22852.12931,7.02749,7.02749,0,0,1-1.16385-.06465l-.194.388-2.845,5.23739a13.426,13.426,0,0,0,4.26747.71123,14.1404,14.1404,0,0,0,4.33212-.71123l-2.845-5.17269a2.26835,2.26835,0,0,1-.3233-.51727m5.04337-3.42691,6.20723,1.42249a13.412,13.412,0,0,1-5.04337,6.14251l-2.457-5.94862a10.12986,10.12986,0,0,0,1.29317-1.61647M58.80056,57.62849,65.00778,56.206a8.5934,8.5934,0,0,0,1.35783,1.68112l-.194.388-2.263,5.56064a13.31858,13.31858,0,0,1-5.108-6.20723m50.82165,10.9273c-2.97431,3.68554-4.33213,5.43133-7.30643,9.11683-3.36224,4.20281-6.0779,7.62967-9.44016,11.83252-2.39236,3.039-4.13814,3.10362-8.08232,3.10362H57.63677c-5.17269,0-5.56064,0-8.72891-4.00883-3.16827-3.94418-5.62529-7.04778-8.72891-10.992-2.457-3.10362-3.10361-3.87952-5.56063-6.98313-3.81484-4.78473-4.46147-6.53052,1.48715-7.82369l18.363-4.13815a18.157,18.157,0,0,0,7.69437,9.31084l-.84053,1.93975a1.141,1.141,0,0,1-.51727.58193,2.93241,2.93241,0,0,0-1.29317,1.35783,2.12543,2.12543,0,0,0,3.80042,1.90439l.01187-.02406.00257-.00523a3.45283,3.45283,0,0,0,.32329-1.16385,3.14718,3.14718,0,0,0-.06466-.7759,1.16591,1.16591,0,0,1,.12931-.64663L64.74925,69.267a18.08687,18.08687,0,0,0,6.40119,1.16386,17.1478,17.1478,0,0,0,6.46578-1.22836l1.03454,1.87509a1.05813,1.05813,0,0,1,.12931.7759,2.9093,2.9093,0,0,0,.25863,1.81045,2.12544,2.12544,0,0,0,3.83217-1.83967l-.01363-.02786-.0037-.00759a2.70112,2.70112,0,0,0-.71125-.96988,3.92469,3.92469,0,0,0-.64663-.45261.80307.80307,0,0,1-.38794-.51727L80.26719,67.78a17.7342,17.7342,0,0,0,7.62967-9.31084L108.135,63.05988c4.0735,1.09919,3.81484,2.52168,1.48715,5.496"/><path class="cls-1" d="M73.54278,45.73141V39.39487a13.59632,13.59632,0,0,1,6.91849,3.49156l-4.97871,3.55622c-.06466.06466-.12932.12932-.194.12932a7.18528,7.18528,0,0,0-1.74577-.84053m11.12127,7.43578-6.20723-1.42256a6.12245,6.12245,0,0,0-.51727-1.93976c.06466-.06466.12931-.12931.194-.12931l4.59077-4.0735a13.5098,13.5098,0,0,1,2.00442,7.04779,1.26028,1.26028,0,0,0-.06466.51727m-8.08233-34.2044c3.36224,1.61647,5.75461,2.78032,9.11682,4.39679,4.65541,2.263,9.31082,4.52611,14.0309,6.7245,1.16386,5.04336,2.32769,10.08673,3.42692,15.1301.71124,3.039,1.03454,4.65542,1.74577,7.62972,1.0992,4.72008.96989,5.108-3.87951,4.00883L89.06082,54.137a12.4583,12.4583,0,0,0,.06466-1.55181,17.33261,17.33261,0,0,0-3.10362-10.02208L87.703,41.01135a1.43533,1.43533,0,0,1,.71124-.32329,3.38409,3.38409,0,0,0,1.74578-.64663,2.11554,2.11554,0,1,0-2.64547-3.302l-.00554.00446h0a2.63279,2.63279,0,0,0-.7759.90522c-.12932.25864-.194.45261-.3233.71125a1.00556,1.00556,0,0,1-.38794.51727l-1.93976,1.35782a17.65449,17.65449,0,0,0-10.604-5.36666V21.22581c.06465-3.16827.32329-3.55622,3.10361-2.26306m.90522,37.308,6.20722,1.42249a13.41194,13.41194,0,0,1-5.04336,6.14256l-2.457-5.94862A10.12936,10.12936,0,0,0,77.487,56.27072m-6.27187,9.76345V59.827a7.9223,7.9223,0,0,0,1.22851-.12932,1.62044,1.62044,0,0,0,.25863.45261l2.845,5.17269a14.14,14.14,0,0,1-4.33211.71124m38.40717,2.52168c-2.97431,3.68554-4.33212,5.43133-7.30642,9.11683-3.36225,4.20281-6.07791,7.62972-9.44016,11.83252-2.39236,3.039-4.13815,3.10362-8.08233,3.10362H71.27975V70.431a17.14726,17.14726,0,0,0,6.46585-1.22852l1.03453,1.87511a1.05807,1.05807,0,0,1,.12932.7759,2.90914,2.90914,0,0,0,.25863,1.81044,2.12543,2.12543,0,0,0,3.81483-1.87511,2.70074,2.70074,0,0,0-.71124-.96988,3.92548,3.92548,0,0,0-.64663-.4526.80311.80311,0,0,1-.38794-.51728L80.39657,67.78a17.73432,17.73432,0,0,0,7.62967-9.31084l20.23813,4.59076c3.94418,1.09918,3.68554,2.52167,1.35784,5.496"/><path d="M259.63018,67.78H248.89685V92.86752h25.02286V82.13419H259.63018Zm53.73128.06465V82.13419H299.13654l-.12933-.12931V92.86752h25.08752V67.78H313.29679ZM248.8969,42.69245h10.798l-.06467-.06465V28.33825h14.22493l.06466.12931V17.60492H248.8969Zm50.11039-25.08753V28.33825h14.3542V42.69246h10.73333V17.60492Z"/><g class="cls-2"><path d="M297.71408,42.69245l-14.3542-14.3542h15.64738V17.60492H273.91971V28.46756l14.28956,14.22492ZM284.78237,67.78h-9.50481l11.89718,11.89718,2.457,2.457H273.91971V92.86752h25.08752V82.00487l-7.11243-7.11244Zm28.57909-25.08753V58.33982l-2.457-2.457L299.00726,44.05027v9.50481l7.1771,7.11245L313.29679,67.78h10.798V42.69245ZM273.91971,56.91732,259.69478,42.6924H248.83221V67.78h10.798V52.13261l14.28956,14.28955Z"/></g><path d="M196.3941,120.2181l-2.71568,3.23292a6.35641,6.35641,0,0,0-4.65542-2.39236,5.19258,5.19258,0,0,0-5.17557,5.20955v0q.00021.07856.00288.15706a5.17081,5.17081,0,0,0,4.9037,5.42477q.13439.00677.269.00655a6.83749,6.83749,0,0,0,4.65542-2.19838l2.78031,2.90964a11.32077,11.32077,0,0,1-7.62967,3.36223,9.36652,9.36652,0,0,1-9.694-9.02722q-.00852-.2387-.00483-.47759c0-5.36666,4.26748-9.37549,9.89276-9.37549A11.12786,11.12786,0,0,1,196.3941,120.2181Zm2.263,15.51806V116.1446h4.59077v19.59156Zm22.75983-7.11244c0,4.39678-3.1036,7.30642-7.759,7.30642s-7.82369-2.90964-7.82369-7.30642,3.1036-7.24176,7.82369-7.24176c4.6554,0,7.759,2.845,7.759,7.24176Zm-10.992.06467c0,2.19838,1.29317,3.68553,3.16827,3.68553s3.16826-1.48715,3.16826-3.68553-1.29317-3.68553-3.16826-3.68553S210.425,126.49,210.425,128.68839Zm27.35057,7.04778h-4.59074v-2.32768a5.041,5.041,0,0,1-4.65542,2.52168c-3.1036,0-5.108-2.13375-5.108-5.43132V121.5113h4.59075v7.69438c0,1.68112.90521,2.71566,2.39238,2.71566,1.74578,0,2.78031-1.42249,2.78031-3.36224v-7.04778h4.59075Zm17.97507,0h-4.59076v-1.8751a5.27087,5.27087,0,0,1-4.26749,2.06908c-4.00883,0-6.65983-2.9743-6.65983-7.37108,0-4.33212,2.58634-7.24176,6.53053-7.24176a5.25516,5.25516,0,0,1,4.39676,2.06907v-7.24172h4.59076V135.7362Zm-4.59076-7.04778c0-2.1984-1.29318-3.68553-3.16827-3.68553s-3.16827,1.48715-3.16827,3.68553,1.29316,3.7502,3.16827,3.7502c1.93978-.06468,3.1683-1.55183,3.1683-3.75022Z"/><path d="M272.49725,135.73616l-8.53495-11.37992v11.37992h-4.39676V117.2438h4.13816l8.53495,11.44457V117.2438h4.39676v18.49236Zm20.43213-9.31083v9.31083h-4.46145v-1.61647a5.17609,5.17609,0,0,1-4.33213,1.8751c-3.039,0-4.91405-1.8751-4.91405-4.46147,0-2.71567,1.93975-4.26747,5.496-4.33213h3.7502v-.194c0-1.42248-.90523-2.263-2.78031-2.263a10.88647,10.88647,0,0,0-4.26746,1.16385l-1.29319-3.03895a14.82048,14.82048,0,0,1,6.59517-1.61647c3.94417.06469,6.20721,2.00445,6.20721,5.17273Zm-4.46145,4.5261v-1.29317h-2.90964c-1.35782,0-2.06908.4526-2.06908,1.55181,0,1.03454.71126,1.68111,2.00441,1.68111a2.95576,2.95576,0,0,0,2.97431-1.93976Zm16.81124,4.0735a8.13646,8.13646,0,0,1-3.81484.96987c-2.78031,0-4.72006-1.5518-4.72006-4.5261v-6.27189h-2.00441V122.2225h2.00441v-3.94417h4.5261v3.94417h3.75019v3.039h-3.75019v5.56064c0,1.09919.45262,1.61647,1.29315,1.55181a5.3548,5.3548,0,0,0,1.74578-.45262Zm6.9831-17.58713a2.36293,2.36293,0,0,1-2.26673,2.45534q-.06281.00252-.12565.00168a2.42491,2.42491,0,0,1,0-4.8494,2.27338,2.27338,0,0,1,2.39238,2.39236Zm-4.72006,18.29837V121.51125h4.52609v14.22492Zm11.63855,0-5.36665-14.22492h4.72006l3.03894,10.08675,3.10361-10.08675h4.52612l-5.36665,14.22492Zm25.1522-5.88394h-10.0221a3.32655,3.32655,0,0,0,3.36223,2.651,5.08019,5.08019,0,0,0,3.4269-1.42249l2.39238,2.32768a8.07362,8.07362,0,0,1-6.20721,2.52168c-4.65542,0-7.56506-2.90964-7.56506-7.24176,0-4.39679,3.039-7.30643,7.43579-7.30643,4.97871,0,7.43578,3.2976,7.17707,8.47028Zm-4.39677-2.457a2.683,2.683,0,0,0-2.7803-2.90963c-1.61646,0-2.651,1.16385-2.97431,2.90963Z"/><path d="M362.95459,120.2181l-2.71568,3.23292a6.35636,6.35636,0,0,0-4.65542-2.39236,5.1926,5.1926,0,0,0-5.17557,5.20955v0q.00026.07856.00289.15706a5.17082,5.17082,0,0,0,4.90372,5.42477q.13437.00677.269.00655a6.83739,6.83739,0,0,0,4.65542-2.19838l2.78031,2.90964a11.32061,11.32061,0,0,1-7.62967,3.36223,9.36656,9.36656,0,0,1-9.694-9.02726q-.00849-.23868-.00481-.47755c0-5.36666,4.26746-9.37549,9.89274-9.37549A11.26291,11.26291,0,0,1,362.95459,120.2181Zm15.97067,8.40561c0,4.39678-3.1036,7.30641-7.759,7.30641s-7.82367-2.90963-7.82367-7.30641,3.10361-7.24176,7.82367-7.24176C375.82166,121.382,378.92526,124.22692,378.92526,128.62371Zm-10.92732.06466c0,2.19839,1.29318,3.68554,3.1683,3.68554s3.16827-1.48715,3.16827-3.68554-1.29316-3.68553-3.16827-3.68553S367.998,126.49,367.998,128.68837Zm27.9325-1.93976v8.98753h-4.52609v-7.69437a2.433,2.433,0,0,0-2.52171-2.71566,2.89561,2.89561,0,0,0-2.90964,2.90964v7.56506h-4.59075V121.57589H385.973v2.32768a5.24823,5.24823,0,0,1,4.78475-2.52168c3.10361-.06467,5.17269,2.06907,5.17269,5.36666Z"/><g id="SVGID-2"><path d="M154.68931,9.264h.64664V140.84422h-.64664Z"/></g><rect x="154.68931" y="9.26397" width="0.64658" height="131.58023"/><rect x="154.68931" y="9.26397" width="0.64658" height="131.58023"/><rect x="154.68931" y="9.26397" width="0.64658" height="131.58023"/><g class="cls-3"><path d="M154.68931,9.264h.64664V140.84422h-.64664Z"/></g><g id="SVGID-3"><path d="M314.13738,166.22271h81.79309v.64658H314.13738Z"/></g><rect x="314.13738" y="166.22268" width="81.79309" height="0.64658"/><rect x="314.13738" y="166.22268" width="81.79309" height="0.64658"/><rect x="314.13738" y="166.22268" width="81.79309" height="0.64658"/><g class="cls-4"><path d="M314.13738,166.22271h81.79309v.64658H314.13738Z"/></g><path d="M135.91644,175.59379H125.2653V157.09958h10.65114v3.21321h-6.72977v4.0606h6.2616v3.213h-6.2616v4.769h6.72977Z"/><path d="M149.48949,175.59379l-.51844-1.80908h-.20268a4.06966,4.06966,0,0,1-1.758,1.52444,6.00488,6.00488,0,0,1-2.5932.53761,4.93724,4.93724,0,0,1-3.75706-1.33444,5.36868,5.36868,0,0,1-1.265-3.83924v-9.22183h3.85813v8.26041a3.96793,3.96793,0,0,0,.54383,2.29587,1.97888,1.97888,0,0,0,1.73311.76521,2.6053,2.6053,0,0,0,2.34019-1.08146,6.70865,6.70865,0,0,0,.72113-3.58622v-6.65379h3.85817v14.14252Z"/><path d="M164.3912,161.18557a6.21683,6.21683,0,0,1,1.30283.1138l-.29085,3.61785a4.4296,4.4296,0,0,0-1.13848-.1265,4.09134,4.09134,0,0,0-2.87805.94873,3.42957,3.42957,0,0,0-1.0309,2.65644v7.19788h-3.85817v-14.1425h2.92235l.56923,2.378h.18975a5.3178,5.3178,0,0,1,1.77693-1.91637A4.38429,4.38429,0,0,1,164.3912,161.18557Z"/><path d="M181.11419,168.49725a7.59823,7.59823,0,0,1-1.82174,5.40152,6.60415,6.60415,0,0,1-5.07233,1.948,7.09746,7.09746,0,0,1-3.59272-.89171,5.93547,5.93547,0,0,1-2.391-2.5618,8.61028,8.61028,0,0,1-.83469-3.896,7.55708,7.55708,0,0,1,1.80881-5.38882,6.6424,6.6424,0,0,1,5.08528-1.92286,7.139,7.139,0,0,1,3.59271.88548,5.90859,5.90859,0,0,1,2.3905,2.54264A8.52561,8.52561,0,0,1,181.11419,168.49725Zm-9.77861,0a5.93438,5.93438,0,0,0,.68975,3.17512,2.46433,2.46433,0,0,0,2.24511,1.07524,2.42647,2.42647,0,0,0,2.22017-1.069,6.0198,6.0198,0,0,0,.6768-3.18134,5.83992,5.83992,0,0,0-.68327-3.15,2.90442,2.90442,0,0,0-4.46525-.00622,5.83834,5.83834,0,0,0-.6833,3.15619Z"/><path d="M192.06913,175.84677a4.69009,4.69009,0,0,1-3.909-1.80885h-.20225q.20169,1.77084.20225,2.04911v5.73046H184.302V161.45127h3.137l.54434,1.83421h.1768a4.464,4.464,0,0,1,4.01-2.0999,4.58939,4.58939,0,0,1,3.92141,1.93556,8.95271,8.95271,0,0,1,1.41686,5.37612,10.61611,10.61611,0,0,1-.66386,3.9341,5.525,5.525,0,0,1-1.89148,2.54265A4.84618,4.84618,0,0,1,192.06913,175.84677Zm-1.13847-11.57472a2.436,2.436,0,0,0-2.0872.87924,5.04713,5.04713,0,0,0-.68328,2.90321v.41734a5.95861,5.95861,0,0,0,.6768,3.26377,2.41565,2.41565,0,0,0,2.144.98658q2.59368,0,2.59369-4.27551a6.107,6.107,0,0,0-.639-3.131,2.18026,2.18026,0,0,0-2.005-1.04357Z"/><path d="M207.09736,175.84677a7.2991,7.2991,0,0,1-5.33827-1.88475,7.1364,7.1364,0,0,1-1.92286-5.33827,7.84744,7.84744,0,0,1,1.77744-5.49639,6.32787,6.32787,0,0,1,4.91446-1.94175,6.22836,6.22836,0,0,1,4.66742,1.70772,6.45943,6.45943,0,0,1,1.66985,4.71844v1.87206h-9.12023a3.71261,3.71261,0,0,0,.97363,2.568,3.42848,3.42848,0,0,0,2.55534.92333,10.59954,10.59954,0,0,0,2.41638-.2657,12.08727,12.08727,0,0,0,2.37805-.84738v2.98537a9.059,9.059,0,0,1-2.16289.75251A13.63349,13.63349,0,0,1,207.09736,175.84677Zm-.54433-11.91611a2.44614,2.44614,0,0,0-1.92235.77792,3.60048,3.60048,0,0,0-.79733,2.20747h5.41447a3.21723,3.21723,0,0,0-.74653-2.20747A2.52665,2.52665,0,0,0,206.553,163.93066Z"/><path d="M234.67371,175.59379H221.74562v-2.71968l4.64254-4.69309q2.06181-2.1126,2.69428-2.9286a6.43928,6.43928,0,0,0,.91089-1.51148,3.85377,3.85377,0,0,0,.27838-1.44228,2.10159,2.10159,0,0,0-.61356-1.65692,2.38044,2.38044,0,0,0-1.63848-.54409,4.71418,4.71418,0,0,0-2.08719.49329,10.7855,10.7855,0,0,0-2.11261,1.40417l-2.125-2.51724a13.8486,13.8486,0,0,1,2.26449-1.64446,8.3201,8.3201,0,0,1,1.9607-.74,10.04741,10.04741,0,0,1,2.37805-.25922,7.04291,7.04291,0,0,1,3.06133.63249,4.8826,4.8826,0,0,1,2.06181,1.77095,4.70516,4.70516,0,0,1,.73407,2.60589,6.37811,6.37811,0,0,1-.44921,2.397,9.20929,9.20929,0,0,1-1.39147,2.29614,34.03905,34.03905,0,0,1-3.32079,3.35217l-2.37805,2.23909v.17705h8.058Z"/><path d="M249.36029,166.3468q0,4.84484-1.58769,7.17247a5.50836,5.50836,0,0,1-4.889,2.3275,5.444,5.444,0,0,1-4.82581-2.40345q-1.62627-2.40317-1.62554-7.09652,0-4.89563,1.58121-7.21683a6.14864,6.14864,0,0,1,9.7084.10757Q249.36006,161.66618,249.36029,166.3468Zm-9.04454,0a14.38014,14.38014,0,0,0,.58818,4.87636,2.03674,2.03674,0,0,0,1.97964,1.47388,2.05754,2.05754,0,0,0,1.97316-1.49281,19.76988,19.76988,0,0,0-.006-9.74675,2.04923,2.04923,0,0,0-3.94082,0,14.3658,14.3658,0,0,0-.59416,4.88932Z"/><path d="M264.24907,175.59379H251.321v-2.71968l4.64254-4.69309q2.06178-2.1126,2.69429-2.9286a6.43827,6.43827,0,0,0,.91089-1.51148,3.85319,3.85319,0,0,0,.27839-1.44228,2.10161,2.10161,0,0,0-.61355-1.65692,2.38042,2.38042,0,0,0-1.63848-.54409,4.71442,4.71442,0,0,0-2.0872.49329,10.786,10.786,0,0,0-2.11259,1.40417l-2.12506-2.51724a13.8486,13.8486,0,0,1,2.26449-1.64446,8.3201,8.3201,0,0,1,1.9607-.74,10.04746,10.04746,0,0,1,2.37805-.25922,7.043,7.043,0,0,1,3.06134.63249,4.88231,4.88231,0,0,1,2.0618,1.77095,4.70531,4.70531,0,0,1,.73408,2.60589,6.37794,6.37794,0,0,1-.44923,2.397,9.20807,9.20807,0,0,1-1.39146,2.29614,34.03784,34.03784,0,0,1-3.32078,3.35217l-2.378,2.23909v.17705h8.05794Z"/><rect x="288.46793" y="166.22268" width="109.53207" height="0.64658"/><rect x="288.46793" y="166.22268" width="109.53207" height="0.64658"/><g class="cls-5"><path d="M288.46793,166.22271H398v.64658h-109.532Z"/></g><rect x="3" y="166.22268" width="109.53207" height="0.64658"/><rect x="3" y="166.22268" width="109.53207" height="0.64658"/><g class="cls-6"><path d="M3,166.22271H112.53206v.64658H3Z"/></g><path d="M279.00045,175.59379H266.07237v-2.71968l4.64254-4.69309q2.06178-2.1126,2.69429-2.9286a6.43827,6.43827,0,0,0,.91089-1.51148,3.85339,3.85339,0,0,0,.27839-1.44228,2.10161,2.10161,0,0,0-.61355-1.65692,2.38042,2.38042,0,0,0-1.63848-.54409,4.71442,4.71442,0,0,0-2.0872.49329,10.786,10.786,0,0,0-2.11259,1.40417l-2.12506-2.51724a13.8486,13.8486,0,0,1,2.26449-1.64446,8.3201,8.3201,0,0,1,1.9607-.74,10.04746,10.04746,0,0,1,2.37805-.25922,7.043,7.043,0,0,1,3.06134.63249,4.88231,4.88231,0,0,1,2.0618,1.77095,4.70531,4.70531,0,0,1,.73408,2.60589,6.37794,6.37794,0,0,1-.44923,2.397,9.20837,9.20837,0,0,1-1.39146,2.29614,34.03784,34.03784,0,0,1-3.32078,3.35217l-2.378,2.23909v.17705h8.05794Z"/></svg>