<?xml version="1.0" encoding="UTF-8"?><svg id="Layer_1" xmlns="http://www.w3.org/2000/svg" viewBox="0 0 373.55219 245"><defs><style>.cls-1,.cls-2{fill:#fff;}.cls-2{stroke:#fff;stroke-miterlimit:10;}</style></defs><g><path class="cls-1" d="m147.85437,230.74674c-.72574,0-1.29324.2983-1.70068.89308-.40653.59569-.61024,1.41602-.61024,2.4628,0,2.1745.82669,3.2613,2.4819,3.2613.49929,0,.98403-.06912,1.45331-.20826.46837-.13915.94037-.30649,1.4142-.50293v2.58285c-.9431.41653-2.00989.6257-3.20037.6257-1.70613,0-3.01393-.49474-3.92338-1.48423s-1.36418-2.41915-1.36418-4.2908c0-1.16956.22009-2.19724.66117-3.08396.44018-.88672,1.07406-1.5679,1.90167-2.04445.82669-.47655,1.79981-.71574,2.91753-.71574,1.22231,0,2.38913.26556,3.5023.79668l-.93583,2.40459c-.41653-.19644-.83488-.36105-1.25141-.49474-.41835-.1346-.8658-.2019-1.34599-.2019Z"/><path class="cls-1" d="m158.4304,239.70667v-4.77736c0-1.17501-.34741-1.76252-1.04405-1.76252-.49474,0-.85852.20736-1.09316.62207s-.35196,1.10408-.35196,2.0681v3.84972h-3.02211v-12.02843h3.02211v1.70795c0,.77304-.04093,1.6552-.12369,2.64469h.13915c.2883-.45382.63116-.77304,1.02768-.95856.39743-.18553.85852-.27829,1.38419-.27829.97948,0,1.74069.28193,2.28455.84579.54385.56477.81487,1.35418.81487,2.37004v5.69682h-3.03757Z"/><path class="cls-1" d="m163.46332,228.76777c0-.45291.1255-.79031.37833-1.01222s.65935-.33195,1.2214-.33195.9713.11277,1.22867.34014c.25828.22645.38743.56113.38743,1.00404,0,.88672-.53931,1.32962-1.6161,1.32962-1.06679,0-1.59973-.4429-1.59973-1.32962Zm3.09942,10.9389h-3.02302v-8.75804h3.02302v8.75804Z"/><path class="cls-1" d="m174.19941,239.70667v-4.77736c0-.58205-.08367-1.02132-.25101-1.3178s-.43745-.44472-.8085-.44472c-.50929,0-.87853.20372-1.10499.61024-.22645.40744-.34014,1.1059-.34014,2.09538v3.83426h-3.02211v-8.75804h2.28l.37924,1.08225h.17734c.25738-.41289.61479-.72211,1.07043-.92764.45655-.20645.98039-.30921,1.57335-.30921.96857,0,1.7225.28011,2.2609.84215s.80759,1.35327.80759,2.37367v5.69682h-3.02211Z"/><path class="cls-1" d="m184.99099,239.70667l-.57932-1.15955h-.06184c-.40744.50475-.82215.85034-1.24504,1.03587s-.96857.27829-1.63883.27829c-.82487,0-1.47422-.24737-1.94805-.74211s-.71119-1.19047-.71119-2.0872c0-.9331.32467-1.62701.97402-2.08356.64935-.45564,1.58972-.7121,2.82112-.7694l1.46149-.04547v-.12369c0-.72211-.3556-1.08225-1.06679-1.08225-.63935,0-1.45058.21645-2.43552.64935l-.87308-1.99534c1.02041-.52566,2.3091-.78759,3.86518-.78759,1.12317,0,1.99352.27829,2.60922.83488s.9231,1.33417.9231,2.33366v5.74411h-2.09447Zm-2.2418-1.97897c.3656,0,.67936-.11641.93947-.34741.2601-.23282.39016-.53385.39016-.90491v-.68027l-.69573.03092c-.99494.03638-1.49241.40198-1.49241,1.09771,0,.53567.28648.80396.85852.80396Z"/><path class="cls-1" d="m200.88459,239.70667h-8.20236v-2.00989l2.76019-2.7902c.7885-.82487,1.30416-1.38783,1.54607-1.68976.24191-.30103.41107-.56022.50657-.77667s.14278-.4429.14278-.68027c0-.29375-.09549-.52566-.28648-.69573-.19008-.17007-.45836-.25556-.80396-.25556-.35469,0-.71483.10186-1.0777.30558-.36378.20372-.77485.50384-1.23322.90036l-1.67794-1.9626c.58296-.52112,1.07225-.89308,1.46968-1.11772.39652-.22373.8276-.39561,1.29415-.51384s.9913-.17825,1.57335-.17825c.73211,0,1.3851.12914,1.95987.38743.57477.25738,1.02041.62479,1.3369,1.10135.3174.47655.47564,1.01131.47564,1.60337,0,.44381-.05548.85307-.16643,1.22958s-.28193.74575-.51384,1.10953c-.23191.36287-.54022.74575-.924,1.14773s-1.20139,1.16501-2.45461,2.28818v.0773h4.27534v2.5201Z"/><path class="cls-1" d="m210.2074,234.0717c0,1.99898-.33468,3.46411-1.00495,4.39448s-1.69522,1.3951-3.07668,1.3951c-1.35054,0-2.36822-.48565-3.05394-1.45694-.68482-.9713-1.02768-2.41551-1.02768-4.33264,0-2.00989.33468-3.48412,1.00495-4.42176.67027-.93856,1.69522-1.40783,3.07668-1.40783,1.34508,0,2.36185.48838,3.0494,1.46513.68846.97675,1.03223,2.43097,1.03223,4.36447Zm-5.12568,0c0,1.27778.08003,2.15631.2401,2.6356s.42744.71847.80396.71847c.38106,0,.65026-.24737.80759-.74211s.23646-1.36509.23646-2.61195c0-1.25323-.08003-2.12994-.2401-2.63287-.16006-.50202-.42744-.75394-.80396-.75394s-.64389.24282-.80396.72756c-.16006.48383-.2401,1.37055-.2401,2.65924Z"/><path class="cls-1" d="m219.43744,239.70667h-8.20236v-2.00989l2.76019-2.7902c.7885-.82487,1.30416-1.38783,1.54607-1.68976.24191-.30103.41107-.56022.50657-.77667s.14278-.4429.14278-.68027c0-.29375-.09549-.52566-.28648-.69573-.19008-.17007-.45836-.25556-.80396-.25556-.35469,0-.71483.10186-1.0777.30558-.36378.20372-.77485.50384-1.23322.90036l-1.67794-1.9626c.58296-.52112,1.07225-.89308,1.46968-1.11772.39652-.22373.8276-.39561,1.29415-.51384s.9913-.17825,1.57335-.17825c.73211,0,1.3851.12914,1.95987.38743.57477.25738,1.02041.62479,1.3369,1.10135.3174.47655.47564,1.01131.47564,1.60337,0,.44381-.05548.85307-.16643,1.22958s-.28193.74575-.51384,1.10953c-.23191.36287-.54022.74575-.924,1.14773s-1.20139,1.16501-2.45461,2.28818v.0773h4.27534v2.5201Z"/><path class="cls-1" d="m229.07674,237.51853h-1.24413v2.18814h-3.01484v-2.18814h-4.50634v-2.24089l4.70005-6.87274h2.82112v6.83363h1.24413v2.28Zm-4.25897-2.28v-1.31416c0-.24737.00909-.58114.02728-1.00131s.03183-.64026.04274-.66117h-.08549c-.17552.39743-.37379.76849-.59478,1.11317l-1.25323,1.86347h1.86347Z"/></g><g><line class="cls-2" x1="236.67962" y1="235.59029" x2="360.53989" y2="235.59029"/><rect class="cls-2" x="236.67977" y="235.11123" width="123.86035" height=".95801"/></g><g><line class="cls-2" x1="154.26133" y1="115.25782" x2="154.26133" y2="5.09857"/><rect class="cls-2" x="153.7823" y="5.09854" width=".95801" height="110.15918"/></g><path class="cls-1" d="m240.20813,191.40031c1.0924,0,1.49284.40045,1.49284,1.31031v.8009c0,.94618-.43676,1.31031-1.49284,1.31031h-1.67351c-1.0924,0-1.49284-.40045-1.49284-1.31031v-.8009c0-.94618.43676-1.31031,1.49284-1.31031h1.67351Zm-2.40175,2.11121c0,.47309.18158.65469.69192.65469h1.63719c.50941,0,.69195-.1816.69195-.65469v-.72826c0-.47309-.18254-.65469-.69195-.65469h-1.63719c-.51035,0-.69192.1816-.69192.65469v.72826Z"/><path class="cls-1" d="m245.23155,192.12829c.94617,0,1.31029.29149,1.31029.9825v.69194c0,.69101-.3278.9825-1.31029.9825h-2.07489v.9825c0,.07357-.03632.14621-.14529.14621h-.51035c-.07264,0-.14529-.03632-.14529-.14621v-2.72958c0-.69101.3278-.9825,1.31032-.9825h1.56548v.07264Zm-2.07489,2.14753h1.96499c.43676,0,.54667-.14528.54667-.50941v-.43677c0-.43677-.14622-.50941-.54667-.50941h-1.38294c-.43679,0-.54576.14528-.54576.50941l-.03629.94618Z"/><path class="cls-1" d="m249.96313,192.1281c.72731,0,.90985.21885.90985.76458v.43677c0,.21885-.07264.29149-.29148.29149h-2.72958v.14528c0,.29149.14526.43677.54573.43677h2.25647c.07264,0,.07264.03632.07264.07264v.43677c0,.03632-.03632.07264-.07264.07264h-2.32911c-.9462,0-1.31032-.29056-1.31032-.9825v-.69101c0-.69194.3278-.98343,1.31032-.98343h1.63812Zm-2.11121,1.16503h2.18382q.07264,0,.07264-.07264v-.21885c0-.21792-.07264-.29056-.3278-.29056h-1.38294c-.43679,0-.54573.14528-.54573.43677v.14528Z"/><path class="cls-1" d="m254.29406,192.12847c.94617,0,1.31029.29149,1.31029.9825v1.6018c0,.07264-.03632.14528-.14529.14528h-.47402c-.07264,0-.14526-.03632-.14526-.14528v-1.41927c0-.43677-.07264-.51034-.50944-.51034h-1.45558c-.43676,0-.54667.14621-.54667.51034v1.41927c0,.07264-.03632.14528-.14529.14528h-.50941c-.07264,0-.14526-.03632-.14526-.14528v-1.6018c0-.69101.32686-.9825,1.31029-.9825h1.45561Z"/><path class="cls-1" d="m261.93733,191.40049c.07261,0,.14526.03632.14526.14528v.43677c0,.07264-.03632.14621-.14526.14621h-2.72961c-.21884,0-.29148.07264-.29148.29056v.18253c0,.1816.07264.29056.29148.29056h2.07492c.61837,0,.94617.29149.94617.8009v.40045c0,.47309-.29148.76458-.94617.76458h-3.02109c-.07355,0-.14619-.03632-.14619-.14621v-.43584c0-.07357.03632-.14621.14619-.14621h2.83855c.21887,0,.29148-.07264.29148-.29056v-.18253c0-.1816-.07261-.29149-.29148-.29149h-2.07489c-.61837,0-.94617-.29056-.94617-.79997v-.40045c0-.47309.29148-.76458.94617-.76458h2.91213Z"/><path class="cls-1" d="m265.61374,192.1281c.94617,0,1.31029.29149,1.31029.98343v.69101c0,.69194-.3278.9825-1.31029.9825h-1.56548c-.9462,0-1.31032-.29056-1.31032-.9825v-.69101c0-.69194.3278-.98343,1.31032-.98343h1.56548Zm-2.07489,1.63812c0,.43677.14526.50941.54573.50941h1.38294c.43676,0,.54667-.14528.54667-.50941v-.47309c0-.43677-.14622-.50941-.54667-.50941h-1.38294c-.43679,0-.54573.14528-.54573.50941v.47309Z"/><path class="cls-1" d="m268.23401,192.12847c.07261,0,.14526.03632.14526.14528v1.4202c0,.43584.07264.50941.50941.50941h1.3839c.43676,0,.54573-.14621.54573-.50941v-1.4202c0-.07264.03632-.14528.14529-.14528h.50941c.07355,0,.14619.03632.14619.14528v1.6018c0,.69194-.3278.9825-1.31029.9825h-1.45655c-.94617,0-1.30936-.29056-1.30936-.9825v-1.6018c0-.07264.03632-.14528.14526-.14528h.54576Z"/><path class="cls-1" d="m275.14941,192.12847c.07261,0,.07261.03632.07261.07264v.43677c0,.07264-.03632.07264-.07261.07264h-1.45561c-.43676,0-.54667.14621-.54667.50941v1.45652c0,.07264-.03632.14528-.14529.14528h-.50941c-.07264,0-.14526-.03632-.14526-.14528v-1.56548c0-.69101.32686-.9825,1.31029-.9825h1.49193Z"/><path class="cls-1" d="m279.08015,192.12847c.07261,0,.07261.03632.07261.07264v.43677c0,.07264-.03632.07264-.07261.07264h-2.11124c-.43676,0-.54573.14621-.54573.50941v.43677c0,.43677.14529.51034.54573.51034h2.11124c.07261,0,.07261.03632.07261.07264v.43677c0,.03632-.03632.07264-.07261.07264h-2.18385c-.9462,0-1.31032-.29149-1.31032-.9825v-.65562c0-.69101.3278-.9825,1.31032-.9825h2.18385Z"/><path class="cls-1" d="m282.50155,192.1281c.72827,0,.90988.21885.90988.76458v.43677c0,.21885-.07264.29149-.29151.29149h-2.7659v.14528c0,.29149.14529.43677.54576.43677h2.25647c.07358,0,.07358.03632.07358.07264v.43677c0,.03632-.03726.07264-.07358.07264h-2.32911c-.9462,0-1.31032-.29056-1.31032-.9825v-.69101c0-.69194.3278-.98343,1.31032-.98343h1.67442Zm-2.18382,1.16503h2.18382q.07264,0,.07264-.07264v-.21885c0-.21792-.07264-.29056-.3278-.29056h-1.34662c-.43679,0-.54576.14528-.54576.43677l-.03629.14528Z"/><path class="cls-1" d="m290.07198,191.40049c.07261,0,.14526.03632.14526.14528v.47309c0,.07357-.03632.14621-.14526.14621h-2.72961c-.50941,0-.69192.1816-.69192.65469v.69194c0,.50941.18252.65469.69192.65469h1.81973c.21793,0,.29151-.07264.29151-.29056v-.43677c0-.03632,0-.07357-.07358-.07357h-1.60087c-.07264,0-.14529-.03632-.14529-.14528v-.40045c0-.07264.03632-.14528.14529-.14528h2.2565c.14526,0,.18158.03632.18158.1816v1.16503c0,.50941-.25422.72826-.65469.72826h-2.18385c-1.09237,0-1.4919-.40045-1.4919-1.31031v-.8009c0-.94618.43586-1.31031,1.4919-1.31031l2.69329.07264Z"/><path class="cls-1" d="m293.63894,192.1281c.72731,0,.94617.21885.94617.76458v.43677c0,.21885-.07264.29149-.29151.29149h-2.76587v.14528c0,.29149.14526.43677.54573.43677h2.25647c.07264,0,.07264.03632.07264.07264v.43677c0,.03632-.03632.07264-.07264.07264h-2.32911c-.9462,0-1.31032-.29056-1.31032-.9825v-.69101c0-.69194.3278-.98343,1.31032-.98343h1.63812Zm-2.11121,1.16503h2.18382q.07264,0,.07264-.07264v-.21885c0-.21792-.07264-.29056-.3278-.29056h-1.38294c-.43679,0-.54573.14528-.54573.43677v.14528Z"/><path class="cls-1" d="m298.0428,192.12847c.94617,0,1.31029.29149,1.31029.9825v1.6018c0,.07264-.03632.14528-.14529.14528h-.51035c-.07261,0-.14526-.03632-.14526-.14528v-1.41927c0-.43677-.07264-.51034-.50941-.51034h-1.45561c-.43676,0-.54667.14621-.54667.51034v1.41927c0,.07264-.03632.14528-.14529.14528h-.50941c-.07264,0-.14526-.03632-.14526-.14528v-1.6018c0-.69101.32686-.9825,1.31029-.9825h1.49193Z"/><path class="cls-1" d="m302.48275,191.40049c.29148,0,.43676.07264.61928.40045l1.81973,2.98475c.03632.07264.03632.14528-.07264.14528h-.65563q-.07261,0-.14526-.07264l-.40047-.6193h-2.54798l-.40044.6193c-.03632.03632-.03632.07264-.14529.07264h-.72827c-.07261,0-.14526-.03632-.07261-.14528l1.8197-2.98475c.18254-.29149.32783-.40045.54667-.40045h.36321Zm-1.09146,2.18385h1.89234l-.87353-1.45559c0-.03632-.03632-.03632-.03632-.03632h-.03632q-.03632,0-.03632.03632l-.90985,1.45559Z"/><path class="cls-1" d="m306.08654,191.40049c.07261,0,.14526.03632.14526.14528v3.27625c0,.07264-.03632.14528-.14526.14528h-.54576c-.07261,0-.14619-.03632-.14619-.14528v-3.27625c0-.07264.03632-.14528.14619-.14528h.54576Z"/><path class="cls-1" d="m311.0725,191.03636c.40044,0,.54667.21885.54667.47309v.43677c0,.40045-.07358.50941-.43679.69194l-.43676.21792.65469.50941.69195-.72733c.03632-.03632.07264-.03632.18158-.03632h.50944c.07261,0,.14619.07264.07261.14528l-.94617,1.01882,1.12872.90986c.03632.03632.03632.14621-.03632.14621h-.65563c-.07264,0-.14526,0-.18158-.03632l-.61931-.51034-.21793.21885c-.29148.29149-.43676.40045-.90985.40045h-.98249c-.43679,0-.69195-.21885-.69195-.69194v-.36413c0-.39952.14529-.54573.47309-.72733l.61931-.29149-.29151-.25424c-.21884-.21885-.29148-.32781-.29148-.54666v-.29056c0-.40045.18254-.54666.50941-.54666l1.31032-.14528Zm-.29057,3.05739l.21793-.25517-.80092-.65469-.50941.25517c-.18161.07264-.25422.21792-.25422.43677v.14528c0,.21792.14526.29149.29054.29149h.61931c.21793-.03725.32686-.03725.43676-.21885m-.72824-1.7834l.29148.21885.43676-.21885c.18161-.07264.18161-.14528.18161-.29149v-.21792c0-.14528-.07264-.21885-.21793-.21885h-.61931c-.14526,0-.18158.07357-.18158.21885v.1816c0,.14621,0,.21885.10896.32781"/><path class="cls-1" d="m316.4231,191.40049c.3278,0,.43676.07264.54573.40045l1.12869,2.36545c0,.03632.03632.03632.07264.03632h.07264q.03632,0,.07264-.03632l1.12872-2.36545c.18161-.29149.25425-.40045.54573-.40045h.54573c.40044,0,.43676.14528.43676.47309v2.83854c0,.07357-.03632.14621-.14529.14621h-.50941c-.07264,0-.14619-.03632-.14619-.14621v-2.58337q0-.03632-.03632-.03632h-.03632q-.03632,0-.07264.03632l-1.09146,2.18385c-.18254.39952-.32783.47309-.69195.47309h-.21793c-.40044,0-.47309-.14621-.69192-.47309l-1.09146-2.18385c0-.03632-.03726-.03632-.07358-.03632h-.03632q-.03632,0-.03632.03632v2.58337c0,.07357-.03632.14621-.14529.14621h-.50941c-.07264,0-.14619-.03632-.14619-.14621v-2.83854c0-.40045.07355-.47309.47309-.47309h.65563Z"/><path class="cls-1" d="m322.61051,191.40049c.07261,0,.14526.03632.14526.14528v1.96593c0,.50941.18254.65469.69195.65469h2.18385c.07264,0,.14529.03632.14529.14621v.47309c0,.07264-.03632.14528-.14529.14528h-2.18385c-1.0924,0-1.4919-.40045-1.4919-1.31031v-2.07489c0-.07264.03632-.14528.14526-.14528h.50944Z"/><path class="cls-1" d="m331.89157,191.40049c.07261,0,.14526.03632.14526.14528v.43677c0,.07264-.03632.14621-.14526.14621h-2.7659c-.21887,0-.29151.07264-.29151.29056v.18253c0,.1816.07264.29056.29151.29056h2.07395c.61931,0,.94711.29149.94711.8009v.40045c0,.47309-.29148.76458-.94711.76458h-3.02015c-.07355,0-.14619-.03632-.14619-.14621v-.43584c0-.07357.03632-.14621.14619-.14621h2.83855c.21887,0,.29151-.07264.29151-.29056v-.18253c0-.1816-.07264-.29149-.29151-.29149h-2.07489c-.61837,0-.94617-.29056-.94617-.79997v-.40045c0-.47309.29148-.76458.94617-.76458h2.94845Z"/><path class="cls-1" d="m333.42036,192.12847c.07261,0,.14526.03632.14526.14528v1.4202c0,.43584.07264.50941.50941.50941h1.3839c.43676,0,.54573-.14621.54573-.50941v-1.4202c0-.07264.03632-.14528.14529-.14528h.50941c.07355,0,.14619.03632.14619.14528v1.6018c0,.69194-.3278.9825-1.31029.9825h-1.49284c-.9462,0-1.31032-.29056-1.31032-.9825v-1.6018c0-.07264.03726-.14528.14622-.14528h.58205Z"/><path class="cls-1" d="m341.60956,192.12847c.94617,0,1.31029.29149,1.31029.9825v1.6018c0,.07264-.03632.14528-.14529.14528h-.51035c-.07261,0-.14526-.03632-.14526-.14528v-1.41927c0-.43677-.07264-.51034-.50941-.51034h-.9462v2.03857c0,.07264-.03632.14528-.14529.14528h-.51032c-.07264,0-.14529-.03632-.14529-.14528v-2.03857h-.90988c-.43676,0-.54573.14621-.54573.51034v1.41927c0,.07264-.03632.14528-.14619.14528h-.50941c-.07264,0-.14529-.03632-.14529-.14528v-1.6018c0-.69101.3278-.9825,1.31029-.9825h2.69329Z"/><path class="cls-1" d="m347.68775,192.12847c.94617,0,1.31029.29149,1.31029.9825v1.6018c0,.07264-.03632.14528-.14529.14528h-.51035c-.07261,0-.14526-.03632-.14526-.14528v-1.41927c0-.43677-.07264-.51034-.50941-.51034h-.9462v2.03857c0,.07264-.03632.14528-.14529.14528h-.51032c-.07264,0-.14529-.03632-.14529-.14528v-2.03857h-.90988c-.43676,0-.54573.14621-.54573.51034v1.41927c0,.07264-.03632.14528-.14619.14528h-.50941c-.07264,0-.14529-.03632-.14529-.14528v-1.6018c0-.69101.3278-.9825,1.31029-.9825h2.69329Z"/><path class="cls-1" d="m350.30837,191.14598c.07261,0,.14526.03632.14526.14528v.43677c0,.07264-.03632.14528-.14526.14528h-.50944c-.07261,0-.14526-.03632-.14526-.14528v-.43677c0-.07264.03632-.14528.14526-.14528h.50944Zm0,.9825c.07261,0,.14526.03632.14526.14528v2.51166c0,.07264-.03632.14528-.14526.14528h-.50944c-.07261,0-.14526-.03632-.14526-.14528v-2.51166c0-.07264.03632-.14528.14526-.14528h.50944Z"/><path class="cls-1" d="m351.50944,192.12847v-.65562c0-.07264.03629-.14528.14526-.14528h.50941c.07358,0,.14622.03632.14622.14528v.65562h.94617c.07264,0,.07264.03632.07264.07264v.43677c0,.03632-.03632.07264-.07264.07264h-.94617v1.16503c0,.29149.07264.43677.43676.43677h.50941c.07264,0,.07264.03632.07264.07264v.43677c0,.03632-.03632.07264-.07264.07264h-.6556c-.87356,0-1.09146-.29056-1.09146-.9825v-1.16503h-.47311c-.07264,0-.07264-.03632-.07264-.07264v-.43677c0-.03632.03632-.07264.07264-.07264l.47311-.03632Z"/><polygon class="cls-1" points="199.18963 169.23491 190.27261 181.90125 199.26224 194.74919 206.10531 194.74919 203.9941 191.76444 197.04207 181.90125 203.9941 172.14703 205.99541 169.23491 199.18963 169.23491"/><polygon class="cls-1" points="190.63639 169.23491 181.68305 181.90125 190.709 194.74919 197.47849 194.74919 188.52515 181.90125 195.40454 172.14703 197.44217 169.23491 190.63639 169.23491"/><polygon class="cls-1" points="199.11681 156.9693 207.81588 169.23519 207.77956 169.23519 209.88986 172.21994 216.84186 182.04681 209.88986 191.91 207.8522 194.74947 214.73065 194.74947 223.64764 182.04681 215.24006 170.14505 205.92259 156.9693 199.11681 156.9693"/><polygon class="cls-1" points="216.36886 169.23491 225.35849 182.04653 218.40743 191.90972 216.40515 194.74919 223.24822 194.74919 232.16521 182.04653 223.17464 169.23491 216.36886 169.23491"/><polygon class="cls-1" points="207.70646 156.9693 215.49567 168.03384 222.30148 168.03384 214.51224 156.9693 207.70646 156.9693"/><path class="cls-1" d="m245.44948,176.6966h9.17218l-4.22242-7.78923c-.07264-.14528-.14529-.1816-.29057-.1816h-.14619c-.14529,0-.21793.03632-.29057.1816l-4.22242,7.78923Zm5.20494-11.75648c1.34662,0,2.18382.43677,3.05738,2.03858l8.84438,16.01429c.18158.32781.07261.61837-.29151.61837h-3.34795c-.3278,0-.47309-.07264-.61931-.32688l-1.89234-3.45785h-12.52013l-1.81973,3.45785c-.14619.25423-.29148.32688-.61928.32688h-3.49418c-.43676,0-.50941-.25424-.32689-.61837l8.73447-16.01429c.87356-1.6018,1.67445-2.03858,2.80316-2.03858h1.49193Z"/><path class="cls-1" d="m268.27042,164.94012c.40044,0,.54573.18161.54573.54574v17.50713c0,.40045-.18161.54573-.54573.54573h-2.87581c-.39953,0-.61837-.1816-.61837-.54573v-17.47082c0-.40044.21884-.54573.61837-.54573h2.87581v-.03632Z"/><path class="cls-1" d="m287.16022,185.5406c.29148,0,.47309.14529.47309.47309v1.6018c0,.29056-.14529.47309-.47309.47309h-15.86902c-.29151,0-.47309-.14621-.47309-.47309v-1.6018c0-.29149.14526-.47309.47309-.47309h15.86902Z"/><path class="cls-1" d="m305.57693,177.46034v-5.27756h-9.64529c-2.29279,0-2.87484.69194-2.87484,2.91211v2.36545c0,2.2565.61834,2.91211,2.87484,2.91211h6.73317c2.2565.03632,2.91213-.65562,2.91213-2.91211m0-8.48024v-4.76815c0-.40045.18158-.54573.54573-.54573h2.5843c.40044,0,.54573.1816.54573.54573v13.97665c0,3.89461-1.56454,5.38653-6.33272,5.38653h-7.46141c-4.76815,0-6.33269-1.49192-6.33269-5.38653v-3.82197c0-3.89461,1.56454-5.38653,6.33269-5.38653h10.11838Z"/><path class="cls-1" d="m315.84114,175.02226h10.80936c.29148,0,.43676-.07264.43676-.43677v-1.12871c0-1.09146-.40044-1.49192-1.63812-1.49192h-6.66052c-2.32914,0-2.91119.65469-2.91119,2.36545v.69194h-.03629Zm10.3726-6.04215c3.67575,0,4.62193,1.12872,4.62193,4.36771v2.54798c0,1.12778-.47309,1.49191-1.4919,1.49191h-13.43001v.65562c0,1.67351.61837,2.36545,2.91119,2.36545h11.10087c.29148,0,.47402.14528.47402.47309v2.25649c0,.29149-.14622.47309-.47402.47309h-11.53764c-4.76721,0-6.33269-1.49192-6.33269-5.38653v-3.85829c0-3.89461,1.56548-5.38653,6.33269-5.38653h7.82556Z"/><path class="cls-1" d="m335.49488,168.9801c.29148,0,.50941.07264.6556.32782l6.26008,10.9919c.07264.14528.14526.14528.29054.14528h.07264c.14622,0,.21887,0,.29151-.14528l6.29637-10.9919c.14622-.21885.29148-.32782.65563-.32782h2.9121c.32689,0,.50941.29149.32689.65562l-7.27889,12.73805c-.50941.87354-1.01975,1.20135-2.2565,1.20135h-2.18385c-1.16501,0-1.67445-.29149-2.18385-1.20135l-7.2798-12.73805c-.18161-.32781,0-.65562.3278-.65562h3.09373Z"/><path class="cls-1" d="m47.52581,111.32791c-.33712-.54107-.67518-1.08121-1.08029-1.62228-.40604-.60813-.87913-1.14827-1.41927-1.7564-.47309-.60813-1.01415-1.14921-1.5543-1.68935-.4731-.54013-1.01323-1.01323-1.62136-1.41926v6.55434h-3.44667v-15.47415h3.51372v5.87918c.87821-.94619,1.82438-1.95942,2.77056-2.97265.94617-1.01417,1.75732-1.96036,2.56753-2.83855h4.12186c-1.08121,1.28423-2.09446,2.4325-3.17567,3.64876-1.08121,1.14919-2.16244,2.36545-3.37869,3.51372,1.28425,1.08123,2.5005,2.29748,3.58171,3.64876,1.21625,1.48725,2.29746,3.04157,3.31069,4.66292l-4.18982-.13504Zm15.40709-.4051c-.74315.20208-1.41926.33712-2.16242.47216-.94619.13596-1.89236.20302-2.83761.20302-.87913,0-1.68935-.13504-2.50048-.4051-.60813-.20302-1.14921-.60813-1.55431-1.14921-.4051-.54014-.67611-1.08121-.81115-1.7564-.20208-.74315-.27006-1.48725-.27006-2.23041v-6.55436h3.31069v6.14924c-.06704.81115.06798,1.62137.40604,2.29748.33805.54014.94617.81115,1.5543.74315h.74317c.27008,0,.47309-.06704.74317-.06704v-9.05484h3.31069l.06798,11.35231Zm10.81124-5.54111c0-2.16244-.81022-3.24365-2.36452-3.24365-.33806,0-.67611.06706-1.01417.13504-.27006.06798-.54014.20302-.81021.33805v6.08126c.13504,0,.4051.068.60813.068h.81021c.81115.06704,1.55431-.271,2.0274-.94619.54107-.74317.81115-1.55431.74317-2.4325m3.37868.06706c0,.87913-.13503,1.75732-.4051,2.56753-.27006.7441-.67611,1.41927-1.21625,1.96036-.54107.54013-1.21625.94617-1.89236,1.21625-.81115.27006-1.68934.47309-2.56754.4051-.4051,0-.81115,0-1.28423-.06706-.47309-.06798-.87819-.06798-1.2833-.13596-.40604-.06706-.81115-.13504-1.21625-.20208-.40604-.068-.7441-.13504-1.01417-.27008v-16.42034l3.31163-.54107v5.87918c.4051-.13504.74317-.27008,1.14827-.4051.4051-.068.87819-.13598,1.28423-.13598.74317,0,1.48632.13598,2.22948.40604.60813.27006,1.14921.67518,1.62229,1.21625.47216.54014.81021,1.21625,1.01323,1.95942.20302.87819.27006,1.68934.27006,2.56754m2.23042.06798c0-.94619.13504-1.89236.47309-2.77056.27008-.74317.74317-1.41927,1.28331-1.95942.54107-.54107,1.14919-.94617,1.82438-1.21625.67611-.271,1.35129-.40603,2.09538-.40603,1.48633-.06706,2.90559.47309,3.98682,1.5543.94525,1.01417,1.48632,2.50048,1.41834,4.52788v.60813c0,.2021,0,.4051-.06706.60813h-7.63556c.06704.67518.4051,1.28331.94525,1.62136.67611.40512,1.48725.67612,2.29746.60813.60813,0,1.21625-.06704,1.82438-.13503.47309-.06798.94619-.20302,1.41927-.4051l.47309,2.70257c-.20302.13504-.47309.20302-.74315.27006-.33806.068-.67612.20302-1.01324.20302-.33805.06706-.74409.13504-1.14919.13504-.4051.06798-.81115.06798-1.28423.06798-.94525,0-1.89144-.13596-2.76963-.47309-.7441-.271-1.41927-.74317-1.96036-1.28423-.54013-.54014-.87819-1.21625-1.14826-1.95942-.20302-.67611-.27008-1.48632-.27008-2.29746m7.77061-1.28423c0-.27008-.068-.54014-.13504-.81022-.06798-.271-.20302-.47309-.40604-.74409-.20208-.20208-.4051-.4051-.67518-.54014-.27006-.13504-.60813-.20302-.94617-.20302s-.67611.06798-.94619.20302c-.27006.13504-.47309.27008-.67517.47309-.20302.2021-.33806.4731-.40604.74317-.06706.27008-.13504.54014-.20208.81115h4.39192v.06706Zm13.31171,7.36549c-2.50048,0-4.4599-.67518-5.74414-2.09446-1.35129-1.41927-1.95942-3.37868-1.95942-5.94622,0-1.14919.20302-2.36545.60813-3.44667.33806-.94617.94619-1.82438,1.62229-2.56754.74317-.67611,1.55431-1.21625,2.49956-1.5543,1.01415-.33806,2.09538-.54014,3.17659-.54014.60813,0,1.21625.06706,1.7564.13504.47309.06704.94617.20208,1.41927.33712.33805.13596.67517.20302,1.01323.40603.27006.13504.47309.27008.60813.33806l-1.01323,2.83761c-.54108-.27006-1.08123-.47309-1.68935-.67517-.67611-.20302-1.41927-.271-2.16242-.271-.54014,0-1.08123.06798-1.55431.271-.54014.20208-1.01323.47215-1.35129.87819-.4051.4051-.74315.94619-.94617,1.55431-.27008.74315-.4051,1.48632-.33806,2.29746,0,.67518.06798,1.35129.20302,2.02646.13504.60813.4051,1.14921.74317,1.62229.33805.47309.81115.81021,1.35129,1.08121.67611.27008,1.35221.4051,2.02738.4051.4731,0,.87821,0,1.35129-.06704.33806-.06798.74317-.13596,1.08123-.20302.27099-.06798.54107-.13504.81113-.27006.27008-.13598.4731-.20302.67611-.271l.94526,2.77055c-.67518.33806-1.35129.60813-2.09446.81115-1.01323.06798-2.0274.20302-3.04063.13504m18.04169-6.14924c0,.87913-.13504,1.68934-.4051,2.56753-.271.7441-.60813,1.41927-1.14921,1.96036-.54014.54013-1.14827.94617-1.82438,1.2833-.74315.33806-1.5543.47309-2.36452.47309-.81113,0-1.62228-.13503-2.36545-.47309-.67611-.27006-1.28423-.74317-1.82438-1.2833-.54107-.54108-.94619-1.21625-1.21625-1.96036-.27008-.81021-.4051-1.6884-.4051-2.56753,0-.87821.13503-1.68935.4051-2.49956.27006-.74409.67518-1.35221,1.21625-1.96034.54014-.54014,1.14827-.94525,1.82438-1.28331,1.48632-.60813,3.17567-.60813,4.66292,0,.67517.27006,1.2833.74317,1.82438,1.28331.54014.54107.94525,1.21625,1.21625,1.96034.27006.74317.47309,1.62136.4051,2.49956m-3.37869,0c.06798-.87821-.13503-1.68935-.60813-2.4325-.4051-.60813-1.08121-.94619-1.7564-.87821-.67611,0-1.35221.27008-1.75732.87821-.47309.74315-.67611,1.5543-.60813,2.4325-.06798.87913.20302,1.68934.60813,2.4325.4051.60813,1.08121.94617,1.75732.87913.67518,0,1.35129-.33806,1.7564-.87913.4731-.74317.67611-1.62137.60813-2.4325m6.14925-5.47315c.74315-.20301,1.41926-.33805,2.16242-.47309.94619-.13504,1.89236-.20302,2.83761-.20302.87913,0,1.68935.13598,2.50048.40604.60813.20208,1.14921.60813,1.55431,1.08121.40509.4731.67517,1.08123.81113,1.68935.2021.74315.27008,1.41834.27008,2.16242v6.6214h-3.31163v-6.2163c.06798-.81113-.06704-1.5543-.4051-2.29746-.4051-.47309-.94617-.74317-1.5543-.67611h-.74317c-.27008,0-.54014.06798-.74317.06798v9.05484h-3.31069l-.06798-11.21728Z"/><path class="cls-1" d="m114.38605,54.77555l-6.01421,7.56759-7.90564,9.86598c-2.0274,2.49956-3.44667,2.56754-6.75737,2.56754h-22.50159c-4.32486,0-4.59494,0-7.23045-3.31071l-7.29752-9.05483c-2.02738-2.56754-2.56847-3.24365-4.59493-5.81119-3.17659-3.9868-3.71674-5.40607,1.21625-6.55434l15.27113-3.44667c1.14827,3.24365,3.44573,6.01421,6.41932,7.7706l-.67611,1.62229c-.06706.2021-.2021.4051-.4051.47309-.4731.27008-.81115.67518-1.08123,1.14827-.4051.87821-.06704,1.95942.81115,2.36546.87821.4051,1.95942.06704,2.36452-.81115.13504-.27008.20302-.60813.271-.94619,0-.20302,0-.4051-.06798-.67517,0-.20302,0-.33806.13504-.54108l.87819-1.5543c3.44667,1.35129,7.23047,1.28423,10.67712,0l.87821,1.5543c.13503.20302.13503.4051.13503.60813-.06704.54108,0,1.08123.20302,1.55431.4051.87819,1.48633,1.28423,2.36452.87819.87913-.4051,1.28423-1.48632.87913-2.36452v-.06798c-.13596-.27006-.33805-.54014-.60813-.81113-.13596-.13504-.33805-.27008-.54107-.33714-.13504-.06798-.27008-.27099-.33806-.40603l-.67517-1.68935c2.97265-1.75638,5.20305-4.45989,6.35132-7.70261l16.82544,3.85085c3.17659.67611,2.97359,1.82438,1.01417,4.2578m-42.16558-8.98779l5.13601-1.14827c.27008.54014.67518,1.01324,1.14827,1.35129-.06798.13504-.06798.20302-.13504.33806l-1.89236,4.59493c-1.9594-1.28423-3.44573-3.04063-4.25688-5.13601m15.47415-1.21625l5.13509,1.14921c-.87821,2.09444-2.29746,3.85178-4.1889,5.06803l-2.0274-4.933c.4051-.33805.81115-.74315,1.08121-1.28423m-4.18982,2.9056c-.67518.13503-1.28331.13503-1.95942,0-.06704.13503-.13504.20301-.13504.33805l-2.36545,4.32486c2.29746.74317,4.79796.74317,7.09543,0l-2.36452-4.25688c-.13596-.13503-.20302-.271-.271-.40603m3.44667-33.8539l7.56758,3.64968,11.62331,5.60817,2.90559,12.56856,1.41835,6.35134c.87913,3.91976.81115,4.2578-3.24365,3.31163l-9.93303-2.29748c.06798-.40603.06798-.87913.06798-1.28423,0-2.97265-.87819-5.87824-2.56754-8.31168l1.41835-1.2833c.13596-.13504.40603-.27008.60813-.27008.54107,0,1.01415-.20302,1.41926-.54107.74317-.60813.87821-1.68934.27008-2.50048-.60813-.81022-1.68934-.87821-2.49956-.27008-.271.20302-.47309.4731-.60813.74317-.06798.20302-.13503.40604-.271.60813-.06704.20302-.20208.33806-.33712.40604l-1.62228,1.14827c-2.36452-2.4325-5.47315-3.98682-8.78384-4.4599v-11.28433c.06706-2.70257.27006-2.97357,2.56754-1.89236m6.68938,28.44875l-5.13509-1.14921c-.06798-.54014-.20302-1.08121-.40603-1.62136q.06798-.06798.13503-.13504l3.78473-3.37868c1.08121,1.7564,1.68934,3.78378,1.68934,5.87824-.06798.06798-.06798.20302-.06798.40604m-9.18987-6.21724v-5.27011c2.16242.4051,4.18982,1.35129,5.74414,2.90559l-4.12186,2.97265c-.06798.06798-.13596.06798-.20302.13504-.47309-.33712-.94617-.60813-1.41926-.74317m-30.00213,6.89241c1.82438-8.04068,3.37868-14.79804,5.20305-22.77166.81115-3.64876,1.35129-4.52788,4.59494-6.41932l12.77158-7.36548c3.04063-1.75732,3.58077-1.62136,3.58077,2.09443v18.58277c-3.37869.4051-6.48638,2.0274-8.85182,4.4599l-1.62136-1.14921c-.20302-.13503-.33806-.33805-.40604-.54014-.13504-.47309-.47309-.94617-.87819-1.28423-.74317-.60813-1.89237-.47309-2.5005.27008-.60813.74409-.47215,1.89236.271,2.50048.27008.20302.54014.33805.87821.47309.20302.06798.4051.06798.60813.13504.20302,0,.33805.06798.47309.20302l1.48633,1.35129c-1.62137,2.4325-2.56754,5.33809-2.49956,8.31166,0,.54014,0,1.08123.06706,1.62137l-3.24365.67611c-.2021,0-.4731,0-.67518.06704-.13504.06798-.33805.06798-.47309.20302-2.16244.47309-4.25688.94619-6.4873,1.41927-2.83761.54014-2.90559-.06798-2.29746-2.83855m26.15035-12.16252v5.27011c-.54014.20302-1.01324.40604-1.48633.74317-.13504-.13504-.33805-.27006-.54014-.4051l-3.78472-2.70258c1.62229-1.48725,3.64876-2.50048,5.81119-2.90559m-7.29751,11.41935l-1.89237.40512v-.81022c0-2.0274.54108-4.05478,1.62229-5.81118l3.71674,3.31069.2021.20302c-.2021.54014-.40512,1.14827-.40512,1.7564-.13503,0-.27006.06798-.33805.13504l-2.90559.81113Z"/><path class="cls-1" d="m276.66448,13.48268v8.9198h11.89247v11.89245h8.9198V13.48268h-20.81227Zm-41.69247,20.88024h8.98779l-.06798-.06798v-11.89245h11.82539l.06704.06798v-8.98779h-20.81224v20.88024Zm53.58493,20.88024v11.82446h-11.82448l-.06798-.06704v8.98685h20.81227v-20.81226l-8.9198.068Zm-44.66513-.068h-8.9198v20.81226h20.81224v-8.9198h-11.89244v-11.89245Z"/><path class="cls-1" d="m255.78474,46.18822l-11.82539-11.82541h-8.98685v20.81226h8.9198v-13.04165l11.89244,11.96043v-7.90564Zm32.77269-11.82541v12.97366l-2.0274-2.02646-9.86601-9.86598v7.90564l5.94717,5.94622,5.94623,5.94716h8.98685v-20.88024h-8.98685Zm-23.78584,20.81226h-7.90562l9.93302,9.86598,2.0274,2.02648h-13.04165v8.91979h20.81224v-8.98685l-5.94623-5.94622-5.87916-5.87918Zm10.7442-20.81226l-11.89247-11.89244h13.04071v-8.98779h-20.81224v8.98779l11.82539,11.82446h7.83861v.06798Z"/><path class="cls-1" d="m236.8643,105.7868c0-1.82438-1.08123-3.04063-2.63554-3.04063s-2.6346,1.28423-2.6346,3.04063c0,1.82438,1.08029,3.10861,2.6346,3.10861,1.62229,0,2.63554-1.28423,2.63554-3.10861m3.85176,5.87918h-3.78378v-1.55431c-.81115,1.14827-2.16245,1.7564-3.58171,1.68935-3.31069,0-5.54113-2.4325-5.54113-6.14925,0-3.64876,2.16245-6.0142,5.47315-6.0142,1.41926-.06706,2.77056.60813,3.64969,1.68934v-6.0142h3.78378v16.35328Zm-15.00106,0h-3.78378v-1.96034c-.7441,1.35221-2.29748,2.16242-3.85179,2.09538-2.56847,0-4.25687-1.75733-4.25687-4.52788v-7.50053h3.78378v6.41931c0,1.41927.74317,2.23042,1.95942,2.23042,1.41926,0,2.29748-1.21625,2.29748-2.83855v-5.81118h3.78378v11.89338h.06798Zm-22.70462-5.87918c0,1.82438,1.08123,3.10861,2.63554,3.10861s2.63551-1.21625,2.63551-3.10861c0-1.82438-1.08123-3.04063-2.63551-3.04063-1.55431-.06798-2.63554,1.21625-2.63554,3.04063m9.12281-.06704c0,3.64876-2.56847,6.08126-6.48727,6.08126-3.91977,0-6.4873-2.4325-6.4873-6.08126,0-3.64969,2.56753-6.01421,6.4873-6.01421,3.91881,0,6.48727,2.36452,6.48727,6.01421m-18.85282-10.33908h3.78378v16.2853h-3.78378v-16.2853Zm-1.89234,3.37868l-2.2295,2.70258c-.94617-1.21625-2.36546-1.89144-3.85179-2.02646-2.36543,0-4.25687,1.89142-4.25687,4.32392v.13504c0,2.56847,1.82436,4.52788,4.25687,4.52788,1.48633-.06798,2.83764-.74317,3.85179-1.82438l2.29748,2.4325c-1.68937,1.68934-3.91977,2.70257-6.35228,2.83761-4.66291,0-8.10866-3.37868-8.10866-7.90564,0-4.4599,3.51373-7.7706,8.24368-7.7706,2.29748,0,4.4599.87819,6.14927,2.56753"/><path class="cls-1" d="m310.58575,104.70529c.13503-1.21625-.81115-2.29746-2.0274-2.36451h-.27008c-1.35128,0-2.2295.94617-2.4325,2.36451h4.72998Zm3.64876,2.0274h-8.31075c.27008,1.28423,1.41835,2.23042,2.77056,2.16244,1.0812,0,2.09444-.47309,2.83761-1.21625l2.0274,1.95942c-1.35131,1.41926-3.24365,2.16242-5.13602,2.09538-3.85082,0-6.28427-2.43344-6.28427-6.01421,0-3.64876,2.50048-6.08126,6.14924-6.08126,4.18982.06706,6.21722,2.76963,5.94623,7.09449m-20.87931,4.93299l-4.4599-11.82539h3.91883l2.56753,8.37874,2.56847-8.37874h3.78381l-4.4599,11.82539h-3.91883Zm-9.66297-11.82539h3.78381v11.82539h-3.78381v-11.82539Zm3.91883-3.44573c0,1.08121-.87819,2.0274-2.0274,2.0274-1.14827,0-2.02646-.87913-2.02646-2.0274,0-1.08121.87819-2.0274,2.02646-2.0274,1.08123-.06798,1.96036.81115,2.0274,1.89236v.13504Zm-5.81118,14.59502c-.9462.54108-2.0274.81115-3.17567.81115-2.29748,0-3.91977-1.2833-3.91977-3.78379v-5.20305h-1.62136v-2.50048h1.62136v-3.31071h3.78472v3.24365h3.10863v2.49956h-3.10863v4.66291c0,.94619.4051,1.28331,1.08123,1.28331.54013-.06706,1.01324-.20208,1.48633-.4051l.74317,2.70257Zm-13.98785-3.37868v-1.08029h-2.36452c-1.14918,0-1.68934.4051-1.68934,1.28331s.60814,1.41926,1.68934,1.41926c1.01324.13504,2.0274-.54107,2.36452-1.62228m3.78472-3.71581v7.70261h-3.71674v-1.35128c-.74317,1.01415-2.0274,1.5543-3.64876,1.5543-2.50048,0-4.0548-1.5543-4.0548-3.71674,0-2.22948,1.62229-3.58077,4.52788-3.58077h3.10863v-.20302c0-1.14827-.7441-1.89236-2.29748-1.89236-1.21625.06798-2.43341.40604-3.5137,1.01417l-1.08123-2.50048c1.68934-.87821,3.58077-1.35129,5.47315-1.35129,3.24365.06798,5.13506,1.68934,5.20304,4.32486m-17.02843,7.7706l-7.09544-9.45993v9.45993h-3.64876v-15.40617h3.44666l7.0945,9.45995v-9.45995h3.64876v15.40617h-3.44572Z"/><path class="cls-1" d="m357.1435,104.16544v7.50053h-3.78378v-6.41932c0-1.35221-.81115-2.23041-2.09538-2.23041-1.35131,0-2.2295,1.01415-2.4325,2.36545v6.28428h-3.78381v-11.82539h3.78381v1.95942c.81115-1.35129,2.36543-2.16244,3.91881-2.09446,2.70352-.06798,4.39286,1.68934,4.39286,4.4599m-23.24475,1.62136c0,1.82438,1.0812,3.10861,2.63457,3.10861,1.55431,0,2.63554-1.21625,2.63554-3.10861,0-1.82438-1.08123-3.04063-2.63554-3.04063-1.55337-.06798-2.63457,1.21625-2.63457,3.04063m9.12187-.06704c0,3.64876-2.56753,6.08126-6.4873,6.08126-3.91881,0-6.48636-2.4325-6.48636-6.08126,0-3.64969,2.56756-6.01421,6.48636-6.01421,3.91977,0,6.4873,2.36452,6.4873,6.01421m-13.3117-6.9604l-2.2295,2.70258c-.94617-1.21625-2.36546-1.89144-3.85179-2.02646-2.36543,0-4.25687,1.89142-4.25687,4.32392v.13504c0,2.56847,1.82436,4.52788,4.25687,4.52788,1.48633-.06798,2.83764-.74317,3.85179-1.82438l2.29748,2.4325c-1.68937,1.68934-3.91977,2.70257-6.35228,2.83761-4.662,0-8.10866-3.37868-8.10866-7.90564,0-4.4599,3.51373-7.7706,8.24368-7.7706,2.29748,0,4.52788.87819,6.14927,2.56753"/><path class="cls-1" d="m37.54566,201.32058c-13.12826,0-23.77094-10.64267-23.77094-23.77092s10.64268-23.77,23.77094-23.77,23.77092,10.64174,23.77092,23.77v.00279h-8.4523c0-8.46254-6.86075-15.32329-15.32422-15.32329-8.46253,0-15.32328,6.86075-15.32328,15.32329,0,8.46348,6.86075,15.32329,15.32328,15.32329l.0056,8.44485Z"/><path class="cls-1" d="m37.54566,225.41718c-13.12081-.01676-23.75324-10.64919-23.77094-23.77093h8.44764c0,8.46348,6.86075,15.32422,15.32329,15.32422,8.46347,0,15.32328-6.86074,15.32328-15.32422,0-8.46254-6.85981-15.32328-15.32328-15.32328v-8.44671c13.12826.00466,23.7672,10.65105,23.76161,23.77837-.00466,13.12174-10.63988,23.75789-23.76161,23.76255Z"/><path class="cls-1" d="m78.31645,158.27794c-5.97603,0-5.97603,9.23644,0,9.23644s5.97602-9.23644,0-9.23644m0-3.07044c10.28133,0,10.28133,15.39872,0,15.39872s-10.27854-15.39872,0-15.39872"/><path class="cls-1" d="m95.07622,161.78942c2.00505,0,2.00505-3.3433,0-3.3433h-2.629v3.3433h2.629Zm-5.62213,8.60968v-14.907h5.87265c5.80839,0,5.7879,9.21501,0,9.21501h-2.87953v5.70503l-2.99312-.01304Z"/><polygon class="cls-1" points="102.682 170.3991 102.682 155.45857 110.1639 155.45857 110.1639 158.44612 105.67047 158.44612 105.67047 161.44205 109.59954 161.44205 109.59954 164.43053 105.67047 164.43053 105.67047 167.41901 110.41533 167.41901 110.41533 170.40655 102.682 170.3991"/><polygon class="cls-1" points="116.82851 170.3991 113.84002 170.3991 113.84002 155.13542 114.63441 155.13542 122.17871 163.91088 122.17871 155.4921 125.18768 155.4921 125.18768 170.72505 124.39329 170.72505 116.82851 162.26996 116.82851 170.3991"/><path class="cls-1" d="m72.06849,184.98546c1.24605.86609,2.74914,1.2861,4.26339,1.19018.87727-.0624,1.62974-.69101,1.55245-1.50588-.06426-.85585-.71151-1.23115-1.55245-1.52358-2.3282-.85678-4.42917-2.04881-4.42917-4.55582s1.73404-4.42917,4.21964-4.55675c.77669-.04098,1.81133-.04098,3.72046.62954l-.37811,2.88138c-1.65022-.66679-2.5871-.64631-3.04994-.62582-.81581-.01025-1.48539.64352-1.4947,1.45932-.00094.07077.00279.14155.01211.21233.08287.83536.81487,1.21346,1.67165,1.50495,2.3282.85678,4.3258,2.1941,4.3258,4.57445,0,2.48652-1.71263,4.39844-4.51485,4.53533-1.64185.0596-3.27065-.3157-4.7216-1.0868l.37532-3.13283Z"/><path class="cls-1" d="m91.25211,176.9501c-5.97603,0-5.97603,9.2355,0,9.2355s5.97602-9.2355,0-9.2355m0-3.07137c10.28133,0,10.28133,15.39872,0,15.39872s-10.28134-15.39872,0-15.39872"/><path class="cls-1" d="m102.30697,183.86513v-9.74584h2.98848v9.71511c0,3.13562,4.84544,3.13562,4.84544,0v-9.71511h2.96706v9.73561c0,7.11498-10.80098,7.11498-10.80098.01024"/><path class="cls-1" d="m120.02645,180.46084h2.63365c2.02554,0,2.02554-3.34329,0-3.34329h-2.63365v3.34329Zm4.44966,8.60968l-3.00897-5.70502h-1.44069v5.70502h-2.98849v-14.95077h5.89314c5.32692,0,5.8503,7.50239,1.46212,8.77546l3.46901,6.16507-3.38612.01024Z"/><path class="cls-1" d="m137.39108,176.94981c-5.91457,0-5.91457,9.11165,0,9.11165,1.00017.00559,1.98733-.22443,2.88228-.66959l.3986,3.09185c-1.04769.4051-2.15776.62303-3.28088.64072-10.13419,0-10.11278-15.17055,0-15.17055,1.01228-.01118,2.01526.18718,2.94654.58484l-.35668,3.07323c-.78784-.44981-1.6828-.67798-2.58987-.66215"/><polygon class="cls-1" points="143.67268 189.07052 143.67268 174.11975 151.17507 174.11975 151.17507 177.1073 146.66859 177.1073 146.66859 180.09578 150.5958 180.09578 150.5958 183.08425 146.66859 183.08425 146.66859 186.0718 151.41067 186.0718 151.41067 189.06028 143.67268 189.07052"/><path class="cls-1" d="m72.06849,203.64375c1.24511.86889,2.7482,1.28889,4.26339,1.19297.87727-.06519,1.62974-.69101,1.55245-1.50588-.06426-.85678-.71151-1.23115-1.55245-1.52357-2.3282-.85957-4.42917-2.04975-4.42917-4.55676,0-2.50608,1.73404-4.42917,4.21964-4.55582.77669-.04098,1.81133-.04098,3.72046.62862l-.37811,2.88231c-1.65022-.6668-2.5871-.64631-3.04994-.62582-.81581-.01024-1.48539.64352-1.4947,1.45932-.00094.07078.00279.14155.01211.2114.08287.83629.81487,1.21159,1.67165,1.50402,2.3282.85864,4.3258,2.19317,4.3258,4.57631,0,2.48652-1.71263,4.39844-4.51485,4.53533-1.64185.05867-3.27065-.3157-4.7216-1.0868l.37532-3.13562Z"/><path class="cls-1" d="m83.97966,202.53655v-9.7356h2.98848v9.71511c0,3.13562,4.84824,3.13562,4.84824,0v-9.71511h2.9596v9.7356c0,7.10381-10.79632,7.10381-10.79632,0"/><polygon class="cls-1" points="111.45764 192.57093 112.39915 192.57093 112.39915 207.75266 109.3697 207.75266 109.39019 199.41677 105.56636 203.42686 101.74252 199.41677 101.74252 207.75266 98.71306 207.75266 98.71306 192.57093 99.67321 192.57093 105.56636 199.1318 111.45764 192.57093"/><polygon class="cls-1" points="129.13548 192.57093 130.07699 192.57093 130.07699 207.75266 127.04754 207.75266 127.06803 199.41677 123.23395 203.41382 119.41011 199.40373 119.41011 207.75266 116.3909 207.75266 116.3909 192.57093 117.35105 192.57093 123.23395 199.1318 129.13548 192.57093"/><rect class="cls-1" x="134.0693" y="192.80086" width="2.98849" height="14.95077"/><polygon class="cls-1" points="143.51491 207.75219 143.51491 195.78897 139.79164 195.78897 139.79164 192.82191 150.21827 192.82191 150.21827 195.78897 146.50338 195.78897 146.50338 207.75219 143.51491 207.75219"/><path class="cls-1" d="m18.09821,138.54103c.027-.00279.05121.01677.05401.04377.00092.00372.00092.00652,0,.01025v.65469c.00372.02701-.01584.05122-.04284.05495h-1.58411v5.18723c.0028.02701-.01675.05122-.04377.05401h-.66494c-.027.00279-.05121-.01677-.05494-.04377v-5.19747h-1.5748c-.027.00279-.05121-.01677-.05494-.04377v-.66586c-.0028-.02701.01675-.05122.04377-.05402h3.92256Z"/><path class="cls-1" d="m24.19352,138.54103c.027-.00279.05121.01677.05401.04377.00092.00372.00092.00652,0,.01025v5.89687c.00372.02701-.01584.05122-.04284.05401h-.66866c-.027.00279-.05121-.01677-.05401-.04377v-2.59733h-2.80689v2.56567c.0028.02701-.01675.05122-.04377.05494h-.66772c-.02701.00279-.05121-.01676-.05401-.04377-.00094-.00373-.00094-.00745,0-.01118v-5.8829c-.00466-.02701.01303-.05215.04004-.05681.00466-.00093.00931-.00093.01397,0h.65748c.02608-.00373.05123.01583.05401.04284.00094.00465.00094.00931,0,.01397v2.56102h2.80689v-2.55357c-.0028-.02701.01677-.05122.04377-.05402h.66774Z"/><path class="cls-1" d="m30.55529,138.54103c.027-.00279.05121.01677.05401.04377.00092.00372.00092.00652,0,.01025v.65469c.00372.02701-.01584.05122-.04284.05495h-3.20361v1.85697h2.31051c.027-.00279.05121.01676.05401.04377.00094.00373.00094.00745,0,.01118v.65376c.0028.02701-.01677.05122-.04377.05494h-2.32075v1.85698h3.19244c.02608-.00745.05308.00652.06146.03259.00372.01118.00279.02421-.00186.03539v.65375c.00279.02701-.01677.05216-.04377.05495h-3.91697c-.027.00279-.05121-.01677-.05494-.04377v-5.92014c-.0028-.02701.01675-.05122.04377-.05402h3.91231Z"/><path class="cls-1" d="m38.85997,143.77753c.027-.00279.05121.01677.05401.04377.00092.00279.00092.00652,0,.01025v.66028c.00372.02701-.01584.05122-.04284.05401-.00372.00093-.00745.00093-.01117,0h-3.32934c-.027.00279-.05121-.01676-.05494-.04377v-5.91177c-.0028-.02701.01675-.05122.04377-.05401.00372-.00093.00745-.00093.01117,0h.65655c.02701-.00372.05123.01583.05495.04284v5.1984h2.61783Z"/><path class="cls-1" d="m41.41615,138.54103c.027-.00279.05121.01677.05401.04377.00092.00372.00092.00652,0,.01025v5.89687c.00372.02701-.01584.05122-.04284.05401h-.66866c-.027.00279-.05121-.01677-.05401-.04377v-5.90711c-.0028-.02701.01677-.05122.04377-.05402h.66774Z"/><path class="cls-1" d="m48.09091,138.53591c.027-.00279.05121.01677.05401.04377.00092.00279.00092.00652,0,.01025v5.90152c.00372.02701-.01584.05122-.04284.05401-.00372.00093-.00745.00093-.01117,0h-.29708c-.01677,0-.03167-.00745-.04192-.02048l-3.19987-4.27365v4.24012c.00279.02701-.01677.05122-.04377.05401-.00374.00093-.00746.00093-.01118,0h-.62023c-.027.00372-.05215-.01583-.05495-.04284v-5.9127c-.00279-.02701.01677-.05122.04378-.05402h.28776c.01769-.00093.03354.00931.04098.02608l3.2213,4.29693v-4.26899c-.0028-.02701.01583-.05122.04284-.05402h.63234Z"/><path class="cls-1" d="m54.67517,138.54103c.027-.00279.05121.01677.05401.04377.00092.00372.00092.00652,0,.01025v3.79589c.00837.56622-.21607,1.11195-.62023,1.50775-.39301.40976-.93408.64258-1.50122.64724-.58485.01769-1.15013-.21606-1.55245-.64165-.41721-.4079-.64911-.96853-.64351-1.55244v-3.75678c-.00372-.02701.01583-.05122.04283-.05402h.66588c.027-.00279.05121.01677.05401.04377.00092.00372.00092.00652,0,.01025v3.75678c-.00466.36692.1341.72174.38555.98809.52802.55877,1.40903.58392,1.96779.05588.27659-.26169.43398-.62489.43584-1.00485v-3.79589c-.0028-.02701.01677-.05122.04377-.05402h.66774Z"/><path class="cls-1" d="m61.11711,138.54364c.02048,0,.03911.01211.04655.03074.01025.01676.01025.03818,0,.05494l-1.83182,2.9205,1.82904,2.91025c.01025.01676.01025.03818,0,.05494-.00746.01863-.02608.03074-.04657.03074h-.75806c-.01863,0-.03632-.00931-.04657-.02608l-1.423-2.263-1.41461,2.263c-.01118.01584-.02794.02514-.04657.02608h-.76086c-.01955-.00094-.03632-.01304-.04377-.03074-.01304-.01583-.01304-.03911,0-.05494l1.82624-2.91025-1.83648-2.9205c-.01025-.01676-.01025-.03818,0-.05494.00652-.01956.02514-.03167.04657-.03074h.75526c.01863-.00093.03726.00931.04657.02608l1.42766,2.27604,1.43603-2.27604c.00932-.0177.02701-.02701.04657-.02608h.74783Z"/><path class="cls-1" d="m66.57599,139.29919v1.84952h2.27139c.03911,0,.05681.01863.05681.05495v.65655c0,.03632-.01771.05495-.05681.05495h-2.27139v2.5871c.00279.02701-.01677.05122-.04378.05401h-.67052c-.027.00279-.05121-.01676-.05401-.04377-.00092-.00373-.00092-.00652,0-.01025v-5.91457c-.00465-.02701.01397-.05215.04004-.05681.00466-.00093.00932-.00093.01397,0h3.64597c.02608-.00372.05121.01583.05401.04284.00092.00466.00092.00931,0,.01397v.65748c.0028.02701-.01677.05122-.04377.05401h-2.94191Z"/><path class="cls-1" d="m73.73204,143.77762c1.23487,0,2.23507-1.00112,2.23507-2.236,0-1.23394-1.00112-2.23507-2.236-2.23507-1.23394.00093-2.23507,1.00112-2.23507,2.236.00092.59229.23561,1.1613.65562,1.58038.41349.42653.98529.664,1.58039.65469m0-5.23659c1.6586-.00093,3.00431,1.34291,3.00617,3.00152.00092,1.65861-1.34291,3.00431-3.00152,3.00617-1.6586.00093-3.00431-1.34291-3.00617-3.00152,0-.79718.31571-1.56269.88005-2.12611.55505-.57367,1.32335-.89217,2.12147-.88007"/><path class="cls-1" d="m82.99138,138.54103c.027-.00279.05121.01677.05401.04377.00092.00372.00092.00652,0,.01025v3.79589c.00837.56622-.21607,1.11195-.62023,1.50775-.39301.40976-.93408.64258-1.50122.64724-.58485.01769-1.15013-.21606-1.55151-.64165-.41723-.4079-.65005-.96853-.64445-1.55244v-3.75678c-.0028-.02701.01583-.05122.04283-.05402h.66588c.027-.00279.05121.01677.05401.04377.00092.00372.00092.00652,0,.01025v3.75678c-.00466.36692.1341.72174.38555.98809.52802.55877,1.40903.58392,1.96779.05588.27659-.26169.43398-.62489.43584-1.00485v-3.79589c-.0028-.02701.01677-.05122.04377-.05402h.66774Z"/><path class="cls-1" d="m89.60151,138.53591c.027-.00279.05121.01677.05401.04377.00092.00279.00092.00652,0,.01025v5.90152c.00372.02701-.01584.05122-.04284.05401-.00372.00093-.00745.00093-.01117,0h-.29708c-.01677,0-.03167-.00745-.04192-.02048l-3.19987-4.27365v4.24012c.00279.02701-.01677.05122-.04377.05401-.00374.00093-.00746.00093-.01118,0h-.62023c-.027.00372-.05121-.01583-.05495-.04284v-5.9127c-.00279-.02701.01677-.05122.04378-.05402h.28776c.01769,0,.03446.01025.04377.02608l3.21851,4.29693v-4.26899c-.0028-.02701.01677-.05122.04377-.05402h.63142Z"/><path class="cls-1" d="m93.96605,143.7778c1.23767.04191,2.27603-.92755,2.31795-2.16615.04191-1.23767-.92756-2.27605-2.16524-2.31795-.05121-.00186-.10244-.00186-.15272,0h-1.19019v4.48411h1.19019Zm0-5.24963c1.65302-.01024,3.00151,1.32149,3.01175,2.97451.00558.82325-.32874,1.61205-.92383,2.18199-.56808.5625-1.33825.87261-2.13729.86144h-1.85511c-.027.00279-.05121-.01677-.05401-.04377v-5.92014c-.00279-.02701.01677-.05122.04377-.05402h1.91473Z"/><path class="cls-1" d="m101.99648,141.4673l-.75527-1.81134-.76086,1.81134h1.51613Zm-.46564-2.93913c.02234-.00186.04283.01211.04935.03353l2.45206,5.90897c.01025.0149.01025.03446,0,.04936s-.02794.02421-.04657.02608h-.67238c-.02234.00093-.04377-.01211-.05121-.03353l-.96016-2.31609h-2.12704l-.95922,2.31609c-.00838.02049-.02794.03353-.04935.03353h-.67238c-.01863-.00186-.03632-.01118-.04657-.02608-.00932-.0149-.00932-.03446,0-.04936l2.45206-5.90897c.00745-.02048.02701-.03353.04937-.03353h.58205Z"/><path class="cls-1" d="m109.2275,138.54103c.027-.00279.05121.01677.05401.04377.00092.00372.00092.00652,0,.01025v.65469c.00372.02701-.01584.05122-.04284.05495h-1.58411v5.18723c.0028.02701-.01675.05122-.04377.05401h-.67518c-.027.00279-.05121-.01677-.05494-.04377v-5.19747h-1.57573c-.02608.00279-.05123-.01677-.05401-.04377v-.66586c-.0028-.02701.01675-.05122.04377-.05402h3.9328Z"/><path class="cls-1" d="m111.75258,138.54103c.027-.00279.05121.01677.05401.04377.00092.00372.00092.00652,0,.01025v5.89687c.00372.02701-.01584.05122-.04284.05401h-.67052c-.02701.00279-.05121-.01677-.05495-.04377v-5.90711c-.00279-.02701.01677-.05122.04378-.05402h.67052Z"/><path class="cls-1" d="m116.72766,143.77762c1.23487,0,2.23507-1.00112,2.23507-2.236,0-1.23394-1.00112-2.23507-2.236-2.23507-1.23394.00093-2.23507,1.00112-2.23507,2.236,0,.59229.23561,1.1613.65562,1.58038.41349.42653.98529.66307,1.58039.65469m0-5.23659c1.6586-.00093,3.00431,1.34291,3.00617,3.00152.00092,1.65861-1.34291,3.00431-3.00152,3.00617-1.6586.00093-3.00431-1.34291-3.00617-3.00152,0-.79718.31571-1.56269.88005-2.12611.55505-.57367,1.32335-.89217,2.12147-.88007"/><path class="cls-1" d="m126.08014,138.53591c.027-.00279.05121.01677.05401.04377.00092.00279.00092.00652,0,.01025v5.90152c.00372.02701-.01584.05122-.04284.05401-.00372.00093-.00745.00093-.01117,0h-.29708c-.01677,0-.03167-.00745-.04192-.02048l-3.19987-4.27365v4.24012c.00279.02701-.01677.05122-.04377.05401-.00374.00093-.00746.00093-.01118,0h-.62023c-.027.00372-.05215-.01583-.05495-.04284v-5.9127c-.00279-.02701.01677-.05122.04378-.05402h.28776c.01769-.00093.03354.00931.04098.02608l3.2213,4.29693v-4.26899c-.0028-.02701.01583-.05122.04377-.05402h.63142Z"/><g><line class="cls-2" x1="13.77511" y1="235.59029" x2="137.63536" y2="235.59029"/><rect class="cls-2" x="13.77498" y="235.11123" width="123.86035" height=".95801"/></g></svg>