<svg xmlns="http://www.w3.org/2000/svg" role="img" viewBox="2.16 1.66 394.94 240.94"><title>KubeCon-China-2020-logos_white.svg</title><defs><clipPath id="clip-path"><path d="M262.339 228.559h127.322v.625H262.339z" class="cls-1"/></clipPath><clipPath id="clip-path-2"><path d="M9.834 228.559h125.259v.625H9.834z" class="cls-1"/></clipPath><clipPath id="clip-path-3"><path d="M154.078 9.829h.625v125.375h-.625z" class="cls-1"/></clipPath><style>.cls-1,.cls-5{fill:#fff}.cls-2{opacity:.8}.cls-5{fill-rule:evenodd}</style></defs><g class="cls-2"><path d="M262.33861 228.55861H389.661v.62488H262.33861z" class="cls-1"/><path d="M262.339 228.559h127.322v.625H262.339z" class="cls-1"/><g clip-path="url(#clip-path)"><path d="M262.33926 228.55861H389.661v.62488H262.33926z" class="cls-1"/></g></g><g class="cls-2"><path d="M9.834 228.55861h125.25936v.62488H9.834z" class="cls-1"/><path d="M9.834 228.559h125.259v.625H9.834z" class="cls-1"/><g clip-path="url(#clip-path-2)"><path d="M9.834 228.55861h125.25872v.62488H9.834z" class="cls-1"/></g></g><path d="M116.47592 116.98315a21.30277 21.30277 0 0 1 2.51241-.52588 20.71349 20.71349 0 0 1 3.22988-.24237 7.84839 7.84839 0 0 1 2.85829.44874 4.28671 4.28671 0 0 1 1.80717 1.26843 4.9449 4.9449 0 0 1 .94826 1.948 10.362 10.362 0 0 1 .28288 2.51177v7.61438h-3.82069V122.854a5.14963 5.14963 0 0 0-.48667-2.61527 1.98785 1.98785 0 0 0-1.81938-.76826c-.27387 0-.56446.01158-.87176.03729q-.4629.03987-.82033.09065v10.40839h-3.82zm-7.048 6.25532a4.80309 4.80309 0 0 0-.70525-2.78178 2.30539 2.30539 0 0 0-2.01225-1.01192 2.33754 2.33754 0 0 0-2.0251 1.01192 4.73609 4.73609 0 0 0-.71746 2.78178 4.86019 4.86019 0 0 0 .71811 2.80685 2.31886 2.31886 0 0 0 2.0251 1.03762 2.28739 2.28739 0 0 0 2.01224-1.03762 4.929 4.929 0 0 0 .70461-2.80685m3.89656 0a8.76217 8.76217 0 0 1-.4616 2.90972 6.34865 6.34865 0 0 1-1.33271 2.25654 6.01365 6.01365 0 0 1-2.08939 1.44778 6.972 6.972 0 0 1-2.73035.51238 6.89937 6.89937 0 0 1-2.704-.51238 6.0079 6.0079 0 0 1-2.08939-1.44843 6.65 6.65 0 0 1-1.35907-2.2559 8.36322 8.36322 0 0 1-.48667-2.90972 8.04492 8.04492 0 0 1 .49952-2.89686 6.57056 6.57056 0 0 1 1.38414-2.23018 6.2359 6.2359 0 0 1 2.10225-1.43622 7.194 7.194 0 0 1 5.33214 0 6.09469 6.09469 0 0 1 2.08939 1.43622 6.526 6.526 0 0 1 1.35843 2.23018 8.23955 8.23955 0 0 1 .48731 2.89686m-20.76278 7.12643q-4.33242 0-6.60119-2.4089-2.26877-2.41085-2.26812-6.84485a10.53192 10.53192 0 0 1 .69175-3.93513 8.49832 8.49832 0 0 1 1.89653-2.92322 7.93589 7.93589 0 0 1 2.87178-1.80652 10.33257 10.33257 0 0 1 3.61432-.61524 11.6367 11.6367 0 0 1 2.05082.16651 13.63152 13.63152 0 0 1 1.61494.3838 7.9855 7.9855 0 0 1 1.15335.44939q.46222.23016.66668.35873l-1.15335 3.22988a9.67128 9.67128 0 0 0-1.90939-.74319 9.09877 9.09877 0 0 0-2.47448-.30794 5.44758 5.44758 0 0 0-1.80652.30858 4.07473 4.07473 0 0 0-1.56351.98684 4.89948 4.89948 0 0 0-1.0897 1.75509 7.36248 7.36248 0 0 0-.41081 2.61463 9.31228 9.31228 0 0 0 .27 2.29512 4.85811 4.85811 0 0 0 .87111 1.83224 4.17873 4.17873 0 0 0 1.577 1.21763 5.60473 5.60473 0 0 0 2.35812.44939 10.86748 10.86748 0 0 0 1.56287-.10287 11.39977 11.39977 0 0 0 1.23113-.2443 6.51933 6.51933 0 0 0 .9489-.31951c.27323-.12022.52074-.2308.74254-.33431l1.1032 3.20481a9.35755 9.35755 0 0 1-2.38513.92254 13.88122 13.88122 0 0 1-3.5629.41081m-15.19984-8.45978a3.90979 3.90979 0 0 0-.16587-.94762 2.376 2.376 0 0 0-.43652-.821 2.30862 2.30862 0 0 0-.74254-.58954 2.42614 2.42614 0 0 0-1.11541-.23144 2.5587 2.5587 0 0 0-1.10255.21858 2.27391 2.27391 0 0 0-.76954.57667 2.5878 2.5878 0 0 0-.47381.83319 5.45992 5.45992 0 0 0-.2443.96112zm-8.97217 1.46129a8.23107 8.23107 0 0 1 .5516-3.13988 6.71616 6.71616 0 0 1 1.44843-2.243 6.00915 6.00915 0 0 1 2.06368-1.35843 6.45476 6.45476 0 0 1 2.39669-.46224 5.95572 5.95572 0 0 1 4.53687 1.75638 7.22824 7.22824 0 0 1 1.66637 5.165q0 .33239-.02571.73161-.02153.35259-.05144.7046H72.312a2.53814 2.53814 0 0 0 1.10255 1.87081 4.42688 4.42688 0 0 0 2.61464.69175 11.04463 11.04463 0 0 0 2.06367-.19158 7.78962 7.78962 0 0 0 1.65351-.47446l.513 3.10195a5.24459 5.24459 0 0 1-.821.30729 10.88062 10.88062 0 0 1-1.14049.27q-.62875.1157-1.34621.19158a13.64046 13.64046 0 0 1-1.43558.07714 8.499 8.499 0 0 1-3.16559-.53874 6.1523 6.1523 0 0 1-2.23083-1.4735 5.8451 5.8451 0 0 1-1.30635-2.218 8.75594 8.75594 0 0 1-.42366-2.76828m-2.51048-.10287a8.54117 8.54117 0 0 1-.47381 2.92322 6.16488 6.16488 0 0 1-1.37193 2.22954 6.01775 6.01775 0 0 1-2.20444 1.4227 8.264 8.264 0 0 1-2.97337.49952q-.69174 0-1.44843-.063-.756-.06429-1.487-.16715-.72969-.10158-1.397-.2443-.666-.14016-1.17906-.2938v-18.84119l3.81941-.61588v6.71563a7.203 7.203 0 0 1 1.33335-.43524 6.84518 6.84518 0 0 1 1.487-.153 6.08675 6.08675 0 0 1 2.53684.49888 4.96765 4.96765 0 0 1 1.8451 1.42271 6.38089 6.38089 0 0 1 1.12955 2.218 10.1214 10.1214 0 0 1 .38381 2.884m-3.89591-.10287q0-3.6921-2.71814-3.69082a4.50609 4.50609 0 0 0-1.16556.15364 3.31732 3.31732 0 0 0-.93605.38446v6.94641q.28222.05142.71811.09t.94826.03857a2.74643 2.74643 0 0 0 2.3594-1.07619 4.68544 4.68544 0 0 0 .79333-2.84608m-12.43028 6.38326a21.3156 21.3156 0 0 1-2.513.52588 20.704 20.704 0 0 1-3.22988.243 7.67363 7.67363 0 0 1-2.85829-.46095 4.34867 4.34867 0 0 1-1.80716-1.29413 5.05316 5.05316 0 0 1-.94826-1.98782 10.71321 10.71321 0 0 1-.28159-2.53812v-7.51088h3.81941v7.04993a5.47048 5.47048 0 0 0 .48667 2.66606 1.93635 1.93635 0 0 0 1.81938.81968c.27387 0 .56574-.01157.8724-.03793q.4616-.03857.81968-.09v-10.40776h3.8207zm-17.63575.46159q-.53745-.87239-1.26842-1.885-.731-1.01192-1.58922-2.0251-.8589-1.01192-1.78209-1.948a18.8029 18.8029 0 0 0-1.84638-1.65223v7.51029h-3.99814v-17.765h3.99878v6.71563q1.56349-1.63936 3.14116-3.42147 1.57572-1.78144 2.93479-3.29416h4.7426q-1.82131 2.15239-3.6529 4.15243-1.83288 2.00067-3.85863 4.02448a30.55042 30.55042 0 0 1 4.1145 4.2045 50.40751 50.40751 0 0 1 3.80655 5.38355z" class="cls-1"/><path d="M63.97754 51.61026l-2.19483.46931q-.03343-.46737-.03407-.93669a12.72535 12.72535 0 0 1 1.86952-6.65777l4.29965 3.83549.2308.20186a6.8575 6.8575 0 0 0-.486 2.03475c-.14208.03857-.28415.07715-.42559.11829zm8.36206-13.06159v6.03994a6.89262 6.89262 0 0 0-1.6818.83383q-.28881-.217-.58245-.42752l-4.36522-3.10323a12.7389 12.7389 0 0 1 6.62947-3.343M42.35329 52.46273c2.101-9.203 3.86827-16.9485 5.9686-26.15276.9489-4.15628 1.55707-5.21383 5.30127-7.36559l14.60067-8.39164c3.45874-1.98846 4.11642-1.83866 4.11642 2.39734V34.267a16.96715 16.96715 0 0 0-10.12616 5.13862l-1.84767-1.31278a1.18734 1.18734 0 0 1-.45324-.59789 2.89932 2.89932 0 0 0-.97848-1.47157 2.02979 2.02979 0 0 0-2.53105 3.17394 2.65644 2.65644 0 0 0 1.00291.5156c.24236.06236.48538.07972.72968.12022a.99008.99008 0 0 1 .55417.25651l1.72937 1.54294a16.93882 16.93882 0 0 0-2.90457 9.51027 17.17909 17.17909 0 0 0 .09836 1.82774l-3.732.79718a2.59343 2.59343 0 0 0-.77468.07329 1.98775 1.98775 0 0 0-.53745.20765c-2.4462.524-4.91425 1.05241-7.42924 1.59437-3.415.73546-3.52882.06815-2.78693-3.18038m34.36889-7.87411v-6.03993a12.74389 12.74389 0 0 1 6.59155 3.30767l-4.76381 3.38738c-.06621.04758-.13372.09579-.19929.144a6.86237 6.86237 0 0 0-1.62908-.79912m10.58 7.09751l-5.92422-1.352a6.81137 6.81137 0 0 0-.486-1.86759c.05465-.04693.10929-.09515.16265-.14272l4.3588-3.88949a12.72924 12.72924 0 0 1 1.90038 6.70856q0 .27129-.01158.54324m-7.707-32.59323L88.2897 23.28l13.34639 6.42762 3.29609 14.44123 1.66251 7.282c1.02156 4.47966.92063 4.86925-3.70112 3.81363L91.481 52.64017q.06558-.747.06621-1.49794a16.93754 16.93754 0 0 0-2.938-9.55848l1.62587-1.45036a1.17585 1.17585 0 0 1 .6834-.30923 2.90008 2.90008 0 0 0 1.65223-.62682 2.02979 2.02979 0 1 0-2.52967-3.175l-.00139.00111a2.68232 2.68232 0 0 0-.72647.8634c-.11379.22179-.18514.45516-.27965.68531a.99011.99011 0 0 1-.37223.48217l-1.84766 1.31407a16.971 16.971 0 0 0-10.09208-5.10069V21.24593c0-3.05437.27129-3.40539 2.87307-2.153M75.69357 57.9183a6.95221 6.95221 0 0 1-2.25912.01157c-.0675.126-.13565.2533-.20508.37866l-2.73678 4.96439a12.83022 12.83022 0 0 0 8.137-.01992l-2.704-4.90332q-.11756-.21458-.23208-.43074m4.785-3.31088l5.89722 1.34621a12.83405 12.83405 0 0 1-4.77731 5.84065L79.252 56.14585a6.92168 6.92168 0 0 0 1.22663-1.53779M62.686 55.95427l5.89787-1.34621a6.89046 6.89046 0 0 0 1.28 1.58665q-.08037.18387-.15816.36966l-2.18711 5.26655a12.83008 12.83008 0 0 1-4.8326-5.876m48.40189 10.36981l-6.93292 8.69316-8.9992 11.28592c-2.30669 2.89236-3.91777 2.98108-7.72433 2.98108H61.55706c-4.95925 0-5.28391-.01415-8.31128-3.81041l-8.33957-10.4566c-2.344-2.93929-2.94444-3.6934-5.2897-6.63269-3.64711-4.57481-4.2405-6.19746 1.40793-7.48645l17.493-3.99235a17.06876 17.06876 0 0 0 7.35598 8.88661l-.77083 1.85538a1.18359 1.18359 0 0 1-.48216.57539 2.90326 2.90326 0 0 0-1.21571 1.28128 2.02975 2.02975 0 0 0 3.65527 1.766l.00214-.00445a2.66044 2.66044 0 0 0 .279-1.09291c.00643-.24944-.03022-.49052-.045-.738a.99254.99254 0 0 1 .126-.59724l.99841-1.81038a17.0764 17.0764 0 0 0 12.27855-.02315l.97977 1.77631a1.18289 1.18289 0 0 1 .14915.73546 2.90591 2.90591 0 0 0 .24365 1.74995 2.0296 2.0296 0 0 0 3.67964-1.71389l-.002-.00419-.02092-.04343a2.64867 2.64867 0 0 0-.68018-.9c-.18965-.16072-.40245-.28287-.60432-.425a.98684.98684 0 0 1-.3883-.4706l-.81-1.95052a17.06675 17.06675 0 0 0 7.29872-8.85388l19.29634 4.40508c3.74612.855 3.4716 2.22632 1.24721 5.01454" class="cls-5"/><path d="M76.72154 44.58862v-6.03995a12.744 12.744 0 0 1 6.59219 3.30767l-4.76381 3.38738c-.06621.04758-.13372.09579-.19929.144a6.86237 6.86237 0 0 0-1.62908-.79912m10.58 7.09751l-5.92422-1.352a6.81137 6.81137 0 0 0-.486-1.86759c.05465-.04693.10929-.09515.16265-.14272l4.3588-3.88949a12.72924 12.72924 0 0 1 1.90038 6.70856q0 .27129-.01158.54324m-7.707-32.59323L88.2897 23.28l13.34639 6.42762 3.29609 14.44123 1.66251 7.282c1.02156 4.47966.92063 4.86925-3.70112 3.81363L91.481 52.64017q.06558-.747.06621-1.49794a16.93754 16.93754 0 0 0-2.938-9.55848l1.62587-1.45036a1.17585 1.17585 0 0 1 .6834-.30923 2.90008 2.90008 0 0 0 1.65223-.62682 2.02979 2.02979 0 1 0-2.52967-3.175l-.00139.00111a2.68232 2.68232 0 0 0-.72647.8634c-.11379.22179-.18514.45516-.27965.68531a.99011.99011 0 0 1-.37223.48217l-1.84766 1.31407a16.971 16.971 0 0 0-10.09208-5.10069V21.24593c0-3.05437.27129-3.40539 2.87307-2.153m.884 35.51516l5.89723 1.34621a12.83405 12.83405 0 0 1-4.77731 5.84065l-2.34655-5.6491a6.92168 6.92168 0 0 0 1.22663-1.53779m-5.948 9.31675v-5.90815a6.98383 6.98383 0 0 0 1.163-.09837c.07715.14465.15365.288.23208.43138l2.704 4.90268a12.78239 12.78239 0 0 1-4.09907.67246m36.55729 2.40055l-6.93292 8.69252-8.99924 11.28593c-2.30669 2.89236-3.91777 2.98108-7.72433 2.98108H74.53057V68.15824a16.98341 16.98341 0 0 0 6.16853-1.15334l.97977 1.7763a1.18291 1.18291 0 0 1 .14915.73547 2.90588 2.90588 0 0 0 .24365 1.74994 2.0296 2.0296 0 0 0 3.67784-1.71775l-.02108-.04376a2.64867 2.64867 0 0 0-.68018-.9c-.18965-.16072-.40245-.28287-.60432-.425a.98684.98684 0 0 1-.3883-.4706l-.81-1.95052a17.06675 17.06675 0 0 0 7.29872-8.85388l19.29634 4.40508c3.74612.855 3.4716 2.22632 1.24721 5.01454" class="cls-5"/><path d="M254.06527 65.5989h-10.24766v23.9065h23.90521V79.259h-13.65755zm51.22418.07651V79.259h-13.58426l-.07522-.07521V89.5054h23.90456V65.5989h-10.32224l.07714.07651zm-61.47184-23.97915h10.32353l-.07649-.07779V28.03356h13.58361l.07458.07651v-10.3216h-23.90523zM291.63 17.78847v10.24509h13.65948v13.6627h10.24572V17.78847z" class="cls-1"/><path d="M290.36475 41.69626l-13.66206-13.6627h14.92663V17.78847h-23.9065v10.3216l13.58554 13.58619zm-12.321 23.90264h-9.05445l11.3187 11.32064 2.3414 2.33948h-14.92723V89.5054H291.63V79.1838l-6.79406-6.79341-6.79211-6.79149zm27.24567-23.90265V56.6203l-2.34075-2.34076L291.63 42.96146v9.05575l6.79021 6.78956 6.79213 6.79213h10.32224V41.69626zm-37.5666 13.58041l-13.5817-13.5804h-10.32351V65.5989h10.24766V50.67421l13.65755 13.6582zm-73.90147 60.30243l-2.59534 3.07429a6.03352 6.03352 0 0 0-4.43466-2.29254 4.92006 4.92006 0 0 0-4.91683 4.92325q.00006.09548.00387.19093a4.95486 4.95486 0 0 0 4.913 5.19 6.60892 6.60892 0 0 0 4.43466-2.0656l2.62041 2.77085a10.64819 10.64819 0 0 1-7.282 3.22538 8.9571 8.9571 0 0 1-9.27175-9.06989c0-5.08976 4.05663-8.9201 9.42347-8.9201a10.24317 10.24317 0 0 1 7.10517 2.97343zm2.16846 14.81539v-18.69524h4.35879v18.69524zm21.66861-6.80306c0 4.18264-2.97272 6.95414-7.40673 6.95414-4.46036 0-7.4331-2.7715-7.4331-6.95414s2.97272-6.92907 7.4331-6.92907c4.43401 0 7.40673 2.74707 7.40673 6.92907zm-10.456.05015c0 2.1164 1.23435 3.52753 3.04923 3.52753 1.78853 0 3.02286-1.41114 3.02286-3.52753 0-2.09068-1.23435-3.5269-3.02286-3.5269-1.81484 0-3.04919 1.43621-3.04919 3.5269zm26.02868 6.75291h-4.3588v-2.2424a4.76893 4.76893 0 0 1-4.40894 2.41854c-2.94829 0-4.86281-2.0161-4.86281-5.19v-8.56651h4.35879v7.33152c0 1.61237.8814 2.59535 2.26748 2.59535 1.66251-.02507 2.64548-1.38543 2.64548-3.22474v-6.70213h4.3588zm17.16 0h-4.3594v-1.78916a4.91359 4.91359 0 0 1-4.08171 1.96531c-3.82969 0-6.34918-2.82228-6.34918-7.03 0-4.15693 2.49442-6.90336 6.24889-6.90336a5.03961 5.03961 0 0 1 4.182 1.96532v-6.90336h4.35879zm-4.35944-6.75291c0-2.09068-1.20863-3.5269-3.02286-3.5269-1.81488 0-3.02416 1.43621-3.04859 3.52689.02443 2.09132 1.23436 3.55261 3.04859 3.55261 1.8136 0 3.02288-1.46129 3.02288-3.5526zm20.3096 6.75291l-8.11326-10.85969v10.85969h-4.20708v-17.637h3.95571l8.1377 10.88412v-10.88416h4.18327v17.637zm19.47827-8.86866v8.86866h-4.25787v-1.56222a4.96665 4.96665 0 0 1-4.15692 1.76345c-2.8975 0-4.661-1.76345-4.661-4.25786 0-2.57028 1.83866-4.08236 5.21448-4.10678h3.57833v-.20187c0-1.33528-.882-2.14146-2.64613-2.14146a9.54564 9.54564 0 0 0-4.056 1.13406l-1.23436-2.87243a14.33018 14.33018 0 0 1 6.29839-1.53651c3.72876 0 5.89594 1.83867 5.921 4.913zm-4.28292 4.25786v-1.20992h-2.74643c-1.3102 0-1.96532.45387-1.96532 1.46193 0 .98233.70524 1.61236 1.91582 1.61236a2.75029 2.75029 0 0 0 2.79658-1.86437zm16.026 3.87984a7.39 7.39 0 0 1-3.62848.93219c-2.62041 0-4.50988-1.48636-4.50988-4.308v-5.99688h-1.88945v-2.84736h1.8901v-3.77891h4.33307v3.75444h3.55261v2.87178h-3.55261v5.3167c0 1.05756.45323 1.5108 1.26006 1.48636a4.713 4.713 0 0 0 1.68759-.45387zm6.67769-16.755a2.29254 2.29254 0 1 1-2.29317-2.29254 2.216 2.216 0 0 1 2.29317 2.13612q.00278.0782 0 .15639zm-4.48482 17.48595v-13.5804h4.33372v13.5804zm11.08663 0l-5.11483-13.58041h4.48472l2.92257 9.599 2.94829-9.599h4.33314l-5.11482 13.5804zm23.9367-5.61886h-9.54882a3.13923 3.13923 0 0 0 3.19965 2.51949 4.58772 4.58772 0 0 0 3.25047-1.38543l2.2932 2.24241a7.806 7.806 0 0 1-5.921 2.39348c-4.43466 0-7.20679-2.7715-7.20679-6.904 0-4.20708 2.87307-6.97922 7.0808-6.97922 4.787 0 7.15534 3.15016 6.8532 8.11327zm-4.182-2.34334a2.53432 2.53432 0 0 0-2.62042-2.74578 2.91693 2.91693 0 0 0-2.82229 2.74578zm21.94697-6.85318l-2.59534 3.07429a6.03359 6.03359 0 0 0-4.434-2.29254 4.92 4.92 0 0 0-4.91683 4.92325q.00006.09549.00384.19093a4.95487 4.95487 0 0 0 4.913 5.19 6.609 6.609 0 0 0 4.434-2.0656l2.62041 2.77085a10.64822 10.64822 0 0 1-7.28136 3.22538 8.95712 8.95712 0 0 1-9.27176-9.06989c0-5.08976 4.05664-8.9201 9.42283-8.9201a10.24325 10.24325 0 0 1 7.10521 2.97343zm15.24485 8.01233c0 4.18264-2.97274 6.95414-7.40736 6.95414-4.45973 0-7.4331-2.7715-7.4331-6.95414s2.97337-6.92907 7.4331-6.92907c4.43466 0 7.40736 2.74707 7.40736 6.92907zm-10.45594.05015c0 2.1164 1.23433 3.52753 3.04858 3.52753 1.78918 0 3.02352-1.41114 3.02352-3.52753 0-2.09068-1.23434-3.5269-3.02352-3.5269-1.81427 0-3.04858 1.43621-3.04858 3.5269zm26.65869-1.81359v8.5665h-4.33373v-7.35723a2.31319 2.31319 0 0 0-2.3935-2.57027 2.77241 2.77241 0 0 0-2.77148 2.74642v7.18108h-4.35881v-13.58041h4.35881v2.21668a5.04034 5.04034 0 0 1 4.535-2.41791c2.99844 0 4.96309 2.04053 4.96309 5.21513z" class="cls-1"/><g class="cls-2"><path d="M154.0779 9.82885h.62489v125.37509h-.62489z" class="cls-1"/><path d="M154.078 9.829h.625v125.375h-.625z" class="cls-1"/><g clip-path="url(#clip-path-3)"><path d="M154.0779 9.82885h.62489v125.37509h-.62489z" class="cls-1"/></g></g><path d="M44.72492 190.74318a23.41855 23.41855 0 1 1 23.35619-23.48074v.00049l-8.32093.02186a15.09762 15.09762 0 1 0-15.05831 15.13685h.00054z" class="cls-1"/><path d="M44.78728 214.48125A23.44491 23.44491 0 0 1 21.307 191.12443l8.32092-.02251a15.09763 15.09763 0 1 0 15.0583-15.13685h-.00052l-.02186-8.32091a23.41862 23.41862 0 1 1 .14292 46.837zm43.97366-45.94412c13.50711-.03535 13.56047 20.19767.05335 20.23367-13.50646.03535-13.55982-20.19766-.05335-20.23367zm.01092 4.03608c-7.85161.02058-7.81947 12.15447.03215 12.13389s7.81947-12.15512-.03215-12.13391zm14.67268 15.88452l-.05143-19.6017 7.71339-.02058c7.63238-.02058 7.63688 12.08632.03214 12.1069l-3.78855.00965.01929 7.4948zm7.35466-11.33028c2.63585-.00644 2.62428-4.39929-.01158-4.39287l-3.45875.00965.01093 4.39222zm10.02073 11.284l-.05144-19.62935 9.82786-.02572.01029 3.92613-5.90173.01542.01029 3.92547 5.16047-.01285.01029 3.92485-5.16047.01415.01029 3.92612 6.23153-.01671.01029 3.92547zm18.58466-.04885l-3.92549.01028-.05272-20.04081 1.04213-.00257 9.94165 11.50388-.02958-11.09114 3.95377-.01028.05207 20.01316-1.04276.00257-9.96736-11.06413zm24.41631-5.44593a8.81153 8.81153 0 0 0 5.60472 1.55065 1.97978 1.97978 0 0 0 2.02639-1.982c-.0855-1.12506-.93861-1.6175-2.03732-1.99875-3.07752-1.11735-5.82715-2.67507-5.83551-5.96923a5.75322 5.75322 0 0 1 5.49735-5.99816l.03151-.00129a11.60263 11.60263 0 0 1 4.88918.81l-.48409 3.79047a8.91782 8.91782 0 0 0-4.0097-.81326 1.94281 1.94281 0 0 0-1.94343 2.2019c.1125 1.09741 1.07491 1.58921 2.20127 1.97046 3.04986 1.11734 5.68958 2.86728 5.69858 5.99687.00836 3.26717-2.236 5.77122-5.91395 5.97308a12.2804 12.2804 0 0 1-6.20838-1.41114zm25.16141-14.64373c13.50712-.036 13.56047 20.19766.05337 20.233s-13.56049-20.19769-.05337-20.233zm.01028 4.03542c-7.851.02058-7.81881 12.15513.03214 12.13455 7.85162-.02123 7.82013-12.15517-.03214-12.13459zm14.54474 9.04869l-.03343-12.79351 3.92547-.00965.03344 12.76586c.01092 4.11771 6.38 4.101 6.36911-.01672l-.03343-12.76586 3.89848-.01028.03408 12.79351c.02445 9.33345-14.16928 9.37071-14.1937.03663zm29.14348 6.75934l-3.97305-7.48452-1.894.00514.01994 7.4948-3.92613.01029-.05142-19.62935 7.74167-.01994c7.00044-.01928 7.71276 9.83493 1.95245 11.52509l4.578 8.08692zm-5.87665-11.29557l3.45875-.00836c2.66285-.00707 2.65127-4.39994-.01158-4.39287l-3.45875.009z" class="cls-1"/><path d="M249.60362 172.14825c-7.77.02058-7.73783 11.99054.03086 11.9706a8.40516 8.40516 0 0 0 3.78663-.88911l.53231 4.06177a12.539 12.539 0 0 1-4.308.83448c-13.31489.03535-13.34-19.89551-.05272-19.93023a9.55342 9.55342 0 0 1 3.87276.7586l-.45582 4.03607a6.67945 6.67945 0 0 0-3.40668-.84218zm8.30292 15.90124l-.05142-19.62872 9.82785-.02572.01028 3.92548-5.90172.01607.01028 3.92547 5.16111-.0135.01028 3.92548-5.16113.01285.01028 3.92677 6.23153-.01671.01028 3.92612zm22.85151-5.44143a8.81145 8.81145 0 0 0 5.60535 1.55064 1.97978 1.97978 0 0 0 2.0264-1.982c-.0855-1.12506-.93862-1.61751-2.03732-1.99875-3.07688-1.11735-5.82651-2.67507-5.83551-5.96924a5.75323 5.75323 0 0 1 5.49735-5.99815l.0315-.0013a11.603 11.603 0 0 1 4.88919.81005l-.48409 3.79048a8.91739 8.91739 0 0 0-4.00971-.81327 1.9428 1.9428 0 0 0-1.94346 2.20189c.1125 1.09742 1.07491 1.58922 2.20126 1.97046 3.04987 1.11735 5.69023 2.86728 5.69859 5.99688.00836 3.26717-2.23532 5.77121-5.91395 5.97308a12.28035 12.28035 0 0 1-6.20839-1.41115zm15.64407-1.496l-.03408-12.79351 3.92548-.00965.03408 12.76586c.01093 4.11771 6.3794 4.10035 6.36847-.01736l-.03343-12.76586 3.89848-.01028.03408 12.7935c.02442 9.33413-14.1693 9.3714-14.19308.0373zm36.06355-13.19017l1.23564-.00322.05269 19.93088-3.98076.01028-.00192-10.95355-5.0094 5.28455-5.03768-5.25818.02894 10.95355-3.98077.01093-.05271-19.93088 1.26327-.00322 7.76418 8.6zm23.2231-.06108l1.23564-.00321.05269 19.93087-3.98078.01028-.00192-10.95355-5.0094 5.28456-5.03831-5.25819.02892 10.95355-3.98012.01028-.05269-19.93023 1.26263-.00322 7.76482 8.5993zm6.52982 19.91352l-.05144-19.62872 3.92483-.01093.05144 19.62935zm12.40777-.03279l-.04179-15.70257-4.88595.01285-.01094-3.89913 13.69935-.036.01028 3.89848-4.88724.01285.04179 15.70322zm-222.97961 34.88557a3.199 3.199 0 0 0-2.74421 1.33161 6.19751 6.19751 0 0 0-.97186 3.71168q0 4.95163 3.71607 4.95163a11.75006 11.75006 0 0 0 3.77761-.77975v2.63308a10.49615 10.49615 0 0 1-4.0708.75967 6.21019 6.21019 0 0 1-4.94221-1.95943 8.29879 8.29879 0 0 1-1.71145-5.62529 9.18985 9.18985 0 0 1 .84066-4.04568 6.07773 6.07773 0 0 1 2.41523-2.66323 7.14417 7.14417 0 0 1 3.691-.92666 9.96719 9.96719 0 0 1 4.33449 1.04281l-1.01268 2.5521a16.68416 16.68416 0 0 0-1.67126-.68872 4.97832 4.97832 0 0 0-1.65059-.29382zm16.92734 12.40513h-3.08888v-6.61285q0-2.45039-1.82257-2.45039a2.0731 2.0731 0 0 0-1.87342.88084 5.38141 5.38141 0 0 0-.5776 2.856v5.32644h-3.08825v-15.75712h3.08825v3.21006q0 .37481-.07094 1.7623l-.07094.91159h.1626a3.57645 3.57645 0 0 1 3.281-1.66121 4.01031 4.01031 0 0 1 3.02736 1.07357 4.26433 4.26433 0 0 1 1.03339 3.07884zm2.84027-14.24779q0-1.50865 1.68131-1.50929 1.68 0 1.68068 1.50929a1.47174 1.47174 0 0 1-.42 1.11878 1.76679 1.76679 0 0 1-1.26067.39992q-1.68195 0-1.68132-1.5187zm3.2201 14.24779h-3.08826v-11.32151h3.08826zm13.48436 0h-3.08888v-6.61285a3.17266 3.17266 0 0 0-.43571-1.83763 1.583 1.583 0 0 0-1.38686-.61276 2.08589 2.08589 0 0 0-1.87342.86577 5.369 5.369 0 0 0-.5776 2.871v5.32644h-3.08825v-11.32148h2.35935l.415 1.44838h.172a3.26432 3.26432 0 0 1 1.42327-1.24057 4.845 4.845 0 0 1 2.06051-.42064 3.95965 3.95965 0 0 1 2.99722 1.06855 4.28883 4.28883 0 0 1 1.02335 3.08386zm10.16193 0l-.59769-1.53942h-.081a4.56982 4.56982 0 0 1-1.60472 1.36238 5.1914 5.1914 0 0 1-2.15217.37983 3.4812 3.4812 0 0 1-2.56717-.93169 3.57774 3.57774 0 0 1-.93671-2.65317 2.98806 2.98806 0 0 1 1.26067-2.6582 7.2998 7.2998 0 0 1 3.80272-.94676l1.96445-.0609v-.49661a1.53952 1.53952 0 0 0-1.76167-1.72148 8.02759 8.02759 0 0 0-3.19.82056l-1.02272-2.08625a9.20236 9.20236 0 0 1 4.33385-1.02272 5.39875 5.39875 0 0 1 3.49383.99258 3.66814 3.66814 0 0 1 1.21515 3.01731v7.54454zm-.9116-5.24545l-1.19474.04018a3.82825 3.82825 0 0 0-2.00527.48656 1.52576 1.52576 0 0 0-.65795 1.35673q0 1.30617 1.49861 1.30649a2.37351 2.37351 0 0 0 1.71646-.61777 2.16929 2.16929 0 0 0 .64289-1.6405zm20.77997 5.24545h-10.349V232.855l3.71608-3.75689q1.65086-1.69136 2.1572-2.34429a5.18706 5.18706 0 0 0 .7289-1.20981 3.07882 3.07882 0 0 0 .22288-1.15457 1.68308 1.68308 0 0 0-.491-1.32659 1.90656 1.90656 0 0 0-1.31152-.4357 3.77258 3.77258 0 0 0-1.67063.3949 8.599 8.599 0 0 0-1.69136 1.12443l-1.7014-2.01531a11.12976 11.12976 0 0 1 1.81253-1.31655 6.66688 6.66688 0 0 1 1.56955-.59266 8.06153 8.06153 0 0 1 1.90419-.20718 5.642 5.642 0 0 1 2.45039.506 3.91175 3.91175 0 0 1 1.65054 1.41763 3.76613 3.76613 0 0 1 .58764 2.08625 5.10519 5.10519 0 0 1-.35974 1.91925 7.37933 7.37933 0 0 1-1.11376 1.83764 27.2943 27.2943 0 0 1-2.6582 2.68393l-1.90355 1.79181v.14189h6.45024zm11.54942-7.40265q0 3.879-1.27071 5.74206a4.41125 4.41125 0 0 1-3.91383 1.86335 4.35985 4.35985 0 0 1-3.86361-1.92428 10.17188 10.17188 0 0 1-1.30085-5.68116q0-3.91855 1.26569-5.77722a4.923 4.923 0 0 1 7.77181.086 10.19277 10.19277 0 0 1 1.3115 5.69125zm-7.24067 0a11.51627 11.51627 0 0 0 .47086 3.9038 1.64823 1.64823 0 0 0 3.16485-.01507 15.82424 15.82424 0 0 0-.005-7.80257 1.64057 1.64057 0 0 0-3.15481 0 11.50732 11.50732 0 0 0-.4759 3.91384zm18.95269 7.40265h-10.349V232.855l3.71608-3.75689q1.65085-1.69136 2.15719-2.34429a5.18714 5.18714 0 0 0 .72891-1.20981 3.07881 3.07881 0 0 0 .22287-1.15457 1.68311 1.68311 0 0 0-.491-1.32659 1.90658 1.90658 0 0 0-1.31152-.4357 3.77265 3.77265 0 0 0-1.67064.3949 8.59892 8.59892 0 0 0-1.69135 1.12443l-1.7014-2.01531a11.12933 11.12933 0 0 1 1.81252-1.31655 6.667 6.667 0 0 1 1.56956-.59266 8.06151 8.06151 0 0 1 1.90418-.20718 5.642 5.642 0 0 1 2.45039.506 3.91184 3.91184 0 0 1 1.65055 1.41763 3.76613 3.76613 0 0 1 .58764 2.08625 5.10539 5.10539 0 0 1-.35974 1.91925 7.37963 7.37963 0 0 1-1.11376 1.83764 27.29546 27.29546 0 0 1-2.6582 2.68393l-1.90356 1.79181v.14189h6.45025zm9.01803 0h-3.12906V226.465l.03013-1.40757.05086-1.5388q-.7807.77976-1.08362 1.02273l-1.7014 1.36676-1.50866-1.88346 4.76957-3.7977h2.57218z" class="cls-1"/></svg>
