<svg xmlns="http://www.w3.org/2000/svg" role="img" viewBox="-4.60 22.15 408.20 181.45"><title>KubeCon_NA_2021_web_web-logo-white (1).svg</title><defs><clipPath id="clip-path"><path d="M3.27 187.719h81.832v.647H3.27z" class="cls-1"/></clipPath><clipPath id="clip-path-2"><path d="M154.643 30.685h.647v131.643h-.647z" class="cls-1"/></clipPath><clipPath id="clip-path-3"><path d="M314.168 187.719H396v.647h-81.832z" class="cls-1"/></clipPath><style>.cls-1,.cls-3{fill:#fff}.cls-3{fill-rule:evenodd}</style></defs><path id="SVGID" d="M3.26951 187.71866h81.83234v.6469H3.26951z" class="cls-1"/><path d="M3.27 187.719h81.832v.647H3.27z" class="cls-1"/><path d="M3.27 187.719h81.832v.647H3.27z" class="cls-1"/><g clip-path="url(#clip-path)"><path d="M3.26951 187.71866h81.83234v.6469H3.26951z" class="cls-1"/></g><path d="M115.1825 143.17989c.71159-.19408 1.55255-.38815 2.65228-.58221a19.1538 19.1538 0 0 1 3.36386-.25875 7.78284 7.78284 0 0 1 2.97572.45282 4.548 4.548 0 0 1 1.876 1.35849 5.11915 5.11915 0 0 1 .97034 2.07006 11.4536 11.4536 0 0 1 .32345 2.65228v8.02151h-3.94607v-7.56868a5.40107 5.40107 0 0 0-.51752-2.717 2.1178 2.1178 0 0 0-1.94069-.77628 4.58187 4.58187 0 0 0-.90565.0647c-.32344 0-.5822.06469-.841.06469v10.93258h-4.01072v-13.71421zm-7.3746 6.53365a5.37468 5.37468 0 0 0-.71159-2.911 2.719 2.719 0 0 0-4.26952 0 4.85767 4.85767 0 0 0-.77627 2.911 5.21327 5.21327 0 0 0 .77627 2.97572 2.62187 2.62187 0 0 0 4.26952 0 5.61872 5.61872 0 0 0 .71159-2.97572m4.07544 0a9.09229 9.09229 0 0 1-.45282 3.04041 6.92341 6.92341 0 0 1-1.42317 2.39351 6.47363 6.47363 0 0 1-5.04579 2.07006 7.96114 7.96114 0 0 1-2.84634-.51751 6.49324 6.49324 0 0 1-2.19944-1.55255 6.72911 6.72911 0 0 1-1.42317-2.39351 9.18986 9.18986 0 0 1 0-6.08082 7.043 7.043 0 0 1 1.42317-2.32883 6.31068 6.31068 0 0 1 2.19944-1.48786 6.65916 6.65916 0 0 1 2.78165-.51752 7.60634 7.60634 0 0 1 2.78166.51752 7.33571 7.33571 0 0 1 2.19944 1.48786 7.04267 7.04267 0 0 1 1.42317 2.32883 7.71947 7.71947 0 0 1 .5822 3.04041m-21.80039 7.504c-3.04041 0-5.36924-.841-6.92178-2.52289-1.61724-1.68193-2.39352-4.07544-2.39352-7.18054a11.812 11.812 0 0 1 .71159-4.14013 8.3609 8.3609 0 0 1 5.04579-4.91642 10.51526 10.51526 0 0 1 3.81669-.64689 10.90448 10.90448 0 0 1 2.13475.19407c.6469.12938 1.2291.25875 1.68194.38814a12.73125 12.73125 0 0 1 1.2291.45282 2.31607 2.31607 0 0 1 .71159.38815l-1.2291 3.36384a8.10058 8.10058 0 0 0-2.00538-.77627 10.479 10.479 0 0 0-2.58762-.32342 6.01 6.01 0 0 0-1.876.32345 3.87 3.87 0 0 0-1.61724 1.035 6.24386 6.24386 0 0 0-1.16442 1.81131 8.5202 8.5202 0 0 0-.45282 2.717 9.36831 9.36831 0 0 0 .25875 2.39351 5.96984 5.96984 0 0 0 .90565 1.94069 4.87092 4.87092 0 0 0 1.68194 1.29379 5.7554 5.7554 0 0 0 2.4582.45283 11.7066 11.7066 0 0 0 1.61724-.12938 6.52346 6.52346 0 0 0 1.29379-.25876 8.46013 8.46013 0 0 0 .97035-.32344 3.95687 3.95687 0 0 1 .77627-.32345l1.16442 3.36386a7.88767 7.88767 0 0 1-2.52289.97034 12.49837 12.49837 0 0 1-3.68731.45282M74.1046 148.3551a2.59547 2.59547 0 0 0-.19407-.97034 3.48584 3.48584 0 0 0-.45282-.841 2.58842 2.58842 0 0 0-.77627-.64689 3.08972 3.08972 0 0 0-1.16442-.25876 2.21539 2.21539 0 0 0-1.16441.25876 1.766 1.766 0 0 0-.77628.5822 3.026 3.026 0 0 0-.51752.90565 4.84577 4.84577 0 0 0-.25875 1.035h5.30454zm-9.38 1.48786a8.8225 8.8225 0 0 1 .58221-3.29917 6.13158 6.13158 0 0 1 1.55255-2.32883 6.49774 6.49774 0 0 1 2.13476-1.42317 6.93686 6.93686 0 0 1 2.5229-.45282 6.29066 6.29066 0 0 1 4.787 1.81131 7.62067 7.62067 0 0 1 1.74661 5.43392v.77627c0 .25876-.06469.51752-.06469.71159h-9.12115a2.40464 2.40464 0 0 0 1.16441 1.94069 4.9799 4.9799 0 0 0 2.717.71159 11.39046 11.39046 0 0 0 2.13476-.19407 8.11437 8.11437 0 0 0 1.74662-.51752l.51752 3.23448a5.77686 5.77686 0 0 1-.841.32345 6.87113 6.87113 0 0 1-1.2291.25875c-.45283.0647-.90566.12938-1.42317.19407a11.95551 11.95551 0 0 1-1.48786.0647 8.36334 8.36334 0 0 1-3.29917-.58221 6.13144 6.13144 0 0 1-2.32883-1.55254 5.29055 5.29055 0 0 1-1.35848-2.32883 7.38412 7.38412 0 0 1-.45282-2.78166m-2.65227-.06469a9.07834 9.07834 0 0 1-.51752 3.04041 7.0431 7.0431 0 0 1-1.42317 2.32883 6.257 6.257 0 0 1-2.32883 1.48786 9.18231 9.18231 0 0 1-3.1051.51752 13.54019 13.54019 0 0 1-1.55255-.06469l-1.55255-.19407a11.94221 11.94221 0 0 1-1.48786-.25876c-.45283-.12938-.90566-.19407-1.22911-.32345v-19.795l4.01076-.6469v7.05116a9.1602 9.1602 0 0 1 1.42317-.45282 6.04518 6.04518 0 0 1 1.55255-.12938 6.68255 6.68255 0 0 1 2.65227.51752 4.8909 4.8909 0 0 1 1.94069 1.48786 6.56728 6.56728 0 0 1 1.16441 2.32883 9.48411 9.48411 0 0 1 .45283 3.1051m-4.07545-.12938c0-2.58758-.97034-3.88137-2.84634-3.88137a7.92636 7.92636 0 0 0-1.22911.12938 7.52981 7.52981 0 0 0-.97034.38814v7.30992a2.66572 2.66572 0 0 0 .77627.0647c.32345 0 .6469.06469.97035.06469a2.88 2.88 0 0 0 2.4582-1.09972 5.074 5.074 0 0 0 .841-2.97573m-13.06733 6.72768c-.71159.19407-1.55256.38814-2.65228.5822a19.1528 19.1528 0 0 1-3.36385.25875 7.78262 7.78262 0 0 1-2.97572-.45282 4.54786 4.54786 0 0 1-1.876-1.35849 5.55874 5.55874 0 0 1-.97035-2.07006 11.02624 11.02624 0 0 1-.32344-2.65228v-7.89213h3.94606v7.37461a5.87192 5.87192 0 0 0 .51752 2.78166 2.00611 2.00611 0 0 0 1.94069.841 4.58186 4.58186 0 0 0 .90565-.06469c.32345 0 .58221-.06469.841-.06469v-10.93258h4.01075v13.64952zm-18.50123.45282c-.38813-.5822-.841-1.29379-1.35848-2.00538a24.23484 24.23484 0 0 0-1.68193-2.13476c-.5822-.71159-1.2291-1.35848-1.876-2.07006a23.63351 23.63351 0 0 0-1.94069-1.74662v7.89213h-4.20485v-18.63061h4.20483v7.05117c1.09972-1.16442 2.19945-2.32883 3.29917-3.62262 1.09972-1.2291 2.13475-2.39352 3.1051-3.42855h4.9811c-1.2938 1.48786-2.5229 2.97572-3.81669 4.3342-1.29379 1.42316-2.65227 2.78165-4.07545 4.20482a34.96049 34.96049 0 0 1 4.33421 4.39889 57.28054 57.28054 0 0 1 4.01075 5.628h-4.9811z" class="cls-1"/><path d="M60.067 74.54423l-2.32882.51752c0-.32345-.06469-.6469-.06469-.97034a13.3957 13.3957 0 0 1 1.94069-6.98648l4.52827 4.01075a.893.893 0 0 0 .25876.19407 7.37675 7.37675 0 0 0-.51752 2.13476c-.12938.06469-.32345.06469-.45283.12938zM68.86475 60.83v6.33958a5.60828 5.60828 0 0 0-1.74661.90565c-.19407-.12938-.38814-.32345-.58221-.45282L61.943 64.388a12.76181 12.76181 0 0 1 6.92175-3.558M37.36093 75.44989c2.19944-9.63875 4.07544-17.78964 6.27488-27.42839.97035-4.3342 1.61724-5.49862 5.56331-7.76275C54.633 37.089 58.70849 34.82482 64.53055 31.461c3.62262-2.07006 4.3342-1.94068 4.3342 2.5229v22.38255a17.48793 17.48793 0 0 0-10.60909 5.36924L56.315 60.37721a.935.935 0 0 1-.45282-.6469 3.1508 3.1508 0 0 0-1.035-1.55255 2.11655 2.11655 0 0 0-2.65228 3.29917 2.24146 2.24146 0 0 0 1.035.51752c.25875.06469.51751.06469.77627.12938a1.59806 1.59806 0 0 1 .58221.25876l1.81131 1.61724a17.711 17.711 0 0 0-3.04043 9.96217c0 .6469.06469 1.2938.12937 1.94069l-3.94606.841a3.979 3.979 0 0 0-.841.06469l-.5822.19407c-2.58759.51752-5.17517 1.09972-7.82744 1.68193-3.55793.841-3.68731.12937-2.911-3.23448m36.09679-8.28027V60.83a13.60279 13.60279 0 0 1 6.92178 3.49323l-4.98109 3.55797c-.06469.06469-.12938.12938-.19407.12938a7.18925 7.18925 0 0 0-1.74662-.841m11.12661 7.4393l-6.21021-1.42316a6.1251 6.1251 0 0 0-.51752-1.94069c.0647-.06469.12938-.12938.19407-.12938l4.593-4.07545a13.51635 13.51635 0 0 1 2.00533 7.0512 1.261 1.261 0 0 0-.06469.51752m-8.0862-34.22079c3.36385 1.61724 5.75737 2.78165 9.12123 4.39889 4.65765 2.26413 9.3153 4.52827 14.03764 6.72771 1.16442 5.04579 2.32883 10.09158 3.42855 15.13737.71159 3.04041 1.035 4.65765 1.74662 7.63337 1.09972 4.72234.97034 5.11048-3.88138 4.01075l-11.96757-2.717a12.46239 12.46239 0 0 0 .06469-1.55255 17.34086 17.34086 0 0 0-3.1051-10.02688l1.68194-1.55256a1.4359 1.4359 0 0 1 .71158-.32344 3.38585 3.38585 0 0 0 1.74662-.6469 2.11655 2.11655 0 1 0-2.65228-3.29917 2.63391 2.63391 0 0 0-.77627.90566c-.12938.25876-.19407.45283-.32345.71158a1.006 1.006 0 0 1-.38814.51752L84.00212 61.671A17.66293 17.66293 0 0 0 73.393 56.30176v-13.6495c.06469-3.16979.32345-3.55793 3.1051-2.26413M72.358 81.14257a7.16414 7.16414 0 0 1-1.22911.12937 7.031 7.031 0 0 1-1.16441-.06468l-.19407.38813-2.84634 5.23986a13.43243 13.43243 0 0 0 4.26951.71158 14.14677 14.14677 0 0 0 4.3342-.71158l-2.84634-5.17517a2.26925 2.26925 0 0 1-.32345-.51752m5.04579-3.42856l6.2102 1.42317a13.41842 13.41842 0 0 1-5.04579 6.14551L76.11 79.33125a10.1345 10.1345 0 0 0 1.29378-1.61725m-18.69529 1.35849l6.2102-1.42317a8.59694 8.59694 0 0 0 1.35848 1.68193l-.19408.38814-2.26409 5.5633a13.32507 13.32507 0 0 1-5.11048-6.2102M109.5545 90.005c-2.97572 3.68731-4.3342 5.43393-7.30992 9.12124-3.36386 4.20482-6.08082 7.63336-9.44469 11.83819-2.39351 3.04041-4.14013 3.1051-8.0862 3.1051H57.54407c-5.17517 0-5.56331 0-8.7331-4.01075-3.16979-3.94607-5.628-7.05117-8.73309-10.99723-2.45821-3.10511-3.10511-3.88138-5.56331-6.98648-3.81668-4.787-4.46358-6.53365 1.48786-7.82744l18.37185-4.14014a18.16567 18.16567 0 0 0 7.69806 9.31531l-.841 1.94068a1.14152 1.14152 0 0 1-.51752.58221 2.9338 2.9338 0 0 0-1.29379 1.35848 2.12641 2.12641 0 0 0 3.81412 1.88123l.00257-.00523a3.45474 3.45474 0 0 0 .32344-1.16441 3.14932 3.14932 0 0 0-.06468-.77628 1.16638 1.16638 0 0 1 .12937-.64689l1.035-1.876a18.09571 18.09571 0 0 0 6.40434 1.16441 17.15575 17.15575 0 0 0 6.469-1.2291l1.035 1.876a1.05865 1.05865 0 0 1 .12938.77627 2.91057 2.91057 0 0 0 .25875 1.81131 2.12641 2.12641 0 1 0 3.82042-1.8684l-.00373-.0076a2.7022 2.7022 0 0 0-.71159-.97034 3.92633 3.92633 0 0 0-.6469-.45283.80341.80341 0 0 1-.38814-.51751l-.841-2.07007a17.74269 17.74269 0 0 0 7.63338-9.3153l20.24784 4.593c4.07545 1.09972 3.81668 2.52289 1.48786 5.49861" class="cls-3"/><path d="M73.45771 67.16962V60.83a13.60279 13.60279 0 0 1 6.92179 3.49323l-4.98109 3.55797c-.06469.06469-.12938.12938-.19407.12938a7.18925 7.18925 0 0 0-1.74662-.841m11.12661 7.4393l-6.21021-1.42316a6.1251 6.1251 0 0 0-.51752-1.94069c.0647-.06469.12938-.12938.19407-.12938l4.593-4.07545a13.51635 13.51635 0 0 1 2.00533 7.0512 1.261 1.261 0 0 0-.06469.51752m-8.0862-34.22079c3.36385 1.61724 5.75737 2.78165 9.12123 4.39889 4.65765 2.26413 9.3153 4.52827 14.03764 6.72771 1.16442 5.04579 2.32883 10.09158 3.42855 15.13737.71159 3.04041 1.035 4.65765 1.74662 7.63337 1.09972 4.72234.97034 5.11048-3.88138 4.01075l-11.96757-2.717a12.46239 12.46239 0 0 0 .06469-1.55255 17.34086 17.34086 0 0 0-3.1051-10.02688l1.68194-1.55256a1.4359 1.4359 0 0 1 .71158-.32344 3.38585 3.38585 0 0 0 1.74662-.6469 2.11655 2.11655 0 1 0-2.65228-3.29917 2.63391 2.63391 0 0 0-.77627.90566c-.12938.25876-.19407.45283-.32345.71158a1.006 1.006 0 0 1-.38814.51752L84.00212 61.671A17.66293 17.66293 0 0 0 73.393 56.30176v-13.6495c.06469-3.16979.32345-3.55793 3.1051-2.26413m.90569 37.32587l6.2102 1.42317a13.41837 13.41837 0 0 1-5.04579 6.14553L76.11 79.33126a10.1345 10.1345 0 0 0 1.29379-1.61726m-6.27489 9.76815V81.272a7.925 7.925 0 0 0 1.2291-.12938 1.62113 1.62113 0 0 0 .25876.45283l2.84635 5.17516a14.14714 14.14714 0 0 1-4.33421.71159m38.42562 2.5228c-2.97572 3.68731-4.3342 5.43393-7.30992 9.12124-3.36386 4.20482-6.08082 7.63336-9.44469 11.83819-2.39351 3.04041-4.14013 3.1051-8.0862 3.1051H71.19359V91.881a17.15594 17.15594 0 0 0 6.469-1.2291l1.035 1.876a1.05869 1.05869 0 0 1 .12938.77628 2.91052 2.91052 0 0 0 .25875 1.81131 2.12641 2.12641 0 0 0 3.81668-1.876 2.70188 2.70188 0 0 0-.71159-.97035 3.92722 3.92722 0 0 0-.64689-.45282.80342.80342 0 0 1-.38814-.51752l-.841-2.07006a17.74268 17.74268 0 0 0 7.63337-9.31531l20.24785 4.593c3.94607 1.09973 3.6873 2.5229 1.35848 5.49862" class="cls-3"/><path d="M259.63435 89.22877h-10.73847v25.09955h25.03488v-10.73847h-14.29641zm53.75706.06468v14.2964H299.1597l-.12939-.12937v10.86784h25.09955V89.22876h-10.80317zM248.8959 64.1292h10.80317l-.0647-.06469V49.76812h14.23171l.06469.12938V39.02964H248.8959zm50.13443-25.09956v10.73848h14.36109v14.36109h10.73848V39.02964z" class="cls-1"/><path d="M297.73652 64.1292l-14.3611-14.36109h15.65489V39.02964h-25.09955v10.86785l14.2964 14.23171zM284.7986 89.22876h-9.50938l11.90288 11.90289 2.4582 2.4582h-15.71956v10.73847h25.09955v-10.86785l-7.11586-7.11585zm28.59281-25.09956v15.65488l-2.4582-2.45821-11.90288-11.8382V74.997l7.18055 7.11586 7.11585 7.11585h10.80317V64.1292zm-39.46065 14.23171L259.69905 64.1292H248.8312v25.09956h10.80317V73.57389l14.2964 14.2964z" style="isolation:isolate" fill="#fff" opacity=".8"/><path d="M196.36794 141.692l-2.717 3.23448a6.35955 6.35955 0 0 0-4.65766-2.39351 5.19509 5.19509 0 0 0-5.17805 5.21209q.00024.0786.00288.15715a5.17328 5.17328 0 0 0 5.17517 5.43392 6.84079 6.84079 0 0 0 4.65766-2.19944l2.78164 2.911a11.32614 11.32614 0 0 1-7.63336 3.36386 9.371 9.371 0 0 1-9.70344-9.50937c0-5.36924 4.26952-9.38 9.8975-9.38a11.13318 11.13318 0 0 1 7.37461 3.16978zm2.26414 15.5255v-19.60092h4.593v19.60094zm22.77074-7.11585c0 4.39889-3.10509 7.30993-7.76275 7.30993s-7.82745-2.911-7.82745-7.30993 3.1051-7.24523 7.82745-7.24523c4.65764 0 7.76273 2.84634 7.76273 7.24523zm-10.99723.06469c0 2.19945 1.29379 3.68731 3.16979 3.68731s3.16978-1.48786 3.16978-3.68731-1.29379-3.6873-3.16978-3.6873-3.16981 1.48785-3.16981 3.6873zm27.36369 7.05116h-4.593v-2.3288a5.04348 5.04348 0 0 1-4.65766 2.52289c-3.10509 0-5.11047-2.13476-5.11047-5.43393v-8.99185h4.593v7.69806c0 1.68194.90565 2.717 2.39352 2.717 1.74663 0 2.78164-1.42317 2.78164-3.36385v-7.05117h4.593zm17.9837 0H251.16v-1.876a5.27345 5.27345 0 0 1-4.26952 2.07007c-4.01076 0-6.663-2.97573-6.663-7.37461 0-4.3342 2.58759-7.24524 6.53366-7.24524a5.2577 5.2577 0 0 1 4.39888 2.07007v-7.24523h4.593v19.60093zm-4.593-7.05116c0-2.19944-1.29379-3.6873-3.16978-3.6873s-3.16979 1.48786-3.16979 3.6873 1.29379 3.752 3.16979 3.752c1.94071-.06467 3.1698-1.55253 3.1698-3.75198zm21.3476 7.05118l-8.539-11.38537v11.38537h-4.39888V138.7163h4.14013l8.539 11.45005V138.7163h4.39889v18.50122zm20.44191-9.31529v9.31529h-4.46358v-1.61724a5.17856 5.17856 0 0 1-4.33421 1.876c-3.04042 0-4.91641-1.876-4.91641-4.46358 0-2.717 1.94069-4.26952 5.49861-4.3342h3.752v-.19407c0-1.42317-.90565-2.26414-2.78164-2.26414a10.89177 10.89177 0 0 0-4.26952 1.16442l-1.29379-3.04041a14.82765 14.82765 0 0 1 6.59835-1.61724c3.94606.06468 6.21019 2.00537 6.21019 5.17517zm-4.46358 4.52827v-1.29379h-2.911c-1.35848 0-2.07007.45282-2.07007 1.55254 0 1.035.71159 1.68194 2.00538 1.68194a2.95715 2.95715 0 0 0 2.97569-1.94069zm16.8193 4.07544a8.14041 8.14041 0 0 1-3.81669.97035c-2.78164 0-4.72233-1.55255-4.72233-4.52827v-6.27489h-2.00538v-2.97573h2.00538v-3.94606h4.52827v3.94606h3.752v3.04041h-3.752v5.56331c0 1.09972.45284 1.61724 1.2938 1.55255a5.35791 5.35791 0 0 0 1.74662-.45283zm6.98646-17.59556a2.364 2.364 0 0 1-2.2678 2.45653q-.06285.00251-.12572.00167a2.42607 2.42607 0 0 1 0-4.85171 2.27447 2.27447 0 0 1 2.39352 2.3935zm-4.72233 18.30715v-14.23171h4.52827v14.23171zm11.64413 0l-5.36923-14.23171h4.72233l3.04043 10.09158 3.10509-10.09158h4.52829l-5.36922 14.23171zm25.16424-5.88675h-10.02688a3.32815 3.32815 0 0 0 3.36387 2.65227 5.08265 5.08265 0 0 0 3.42854-1.42316l2.39352 2.32882a8.07741 8.07741 0 0 1-6.21019 2.52289c-4.65766 0-7.56869-2.911-7.56869-7.24523 0-4.39889 3.04042-7.30992 7.43931-7.30992 4.9811 0 7.4393 3.29917 7.18052 8.47434zm-4.39888-2.45821a2.68429 2.68429 0 0 0-2.78164-2.911c-1.61724 0-2.65226 1.16441-2.97571 2.911h5.75735zm23.02948-7.18057l-2.717 3.23448a6.35948 6.35948 0 0 0-4.65766-2.39351 5.19508 5.19508 0 0 0-5.17805 5.21209q.00024.0786.00288.15715a5.17329 5.17329 0 0 0 5.17517 5.43392 6.84071 6.84071 0 0 0 4.65766-2.19944l2.78164 2.911a11.32605 11.32605 0 0 1-7.63336 3.36386 9.371 9.371 0 0 1-9.70344-9.50937c0-5.36924 4.2695-9.38 9.8975-9.38a11.26834 11.26834 0 0 1 7.37466 3.16982zm15.97834 8.40965c0 4.39889-3.1051 7.30993-7.76276 7.30993s-7.82742-2.911-7.82742-7.30993 3.10509-7.24523 7.82742-7.24523c4.65766.00002 7.76276 2.84636 7.76276 7.24525zm-10.93256.06469c0 2.19945 1.29379 3.68731 3.1698 3.68731s3.16981-1.48786 3.16981-3.68731-1.29379-3.6873-3.16981-3.6873-3.16976 1.48785-3.16976 3.6873zM396 148.22568v8.99184h-4.52827v-7.698a2.43412 2.43412 0 0 0-2.52291-2.717 2.897 2.897 0 0 0-2.911 2.911v7.56868h-4.59295v-14.23169h4.59295v2.32883a5.25072 5.25072 0 0 1 4.787-2.52289c3.1051-.0647 5.17517 2.07006 5.17517 5.36924z" class="cls-1"/><path id="SVGID-2" d="M154.64315 30.68469h.6469V162.328h-.6469z" class="cls-1"/><path d="M154.643 30.685h.647v131.643h-.647z" class="cls-1"/><path d="M154.643 30.685h.647v131.643h-.647z" class="cls-1"/><g clip-path="url(#clip-path-2)"><path d="M154.64315 30.68469h.6469V162.328h-.6469z" class="cls-1"/></g><path d="M113.74533 195.57844H109.864l-6.27488-10.86785h-.0647c.12938 1.94069.19407 3.29916.19407 4.14014v6.79241h-2.717v-14.42578h3.88138l6.27489 10.80316h.06469c-.12938-1.876-.12938-3.16979-.12938-3.94607V181.282h2.717v14.2964zm13.39074-5.49861a5.8161 5.8161 0 0 1-1.42317 4.20482 5.07715 5.07715 0 0 1-3.94607 1.48785 5.5523 5.5523 0 0 1-2.78165-.71159 4.70575 4.70575 0 0 1-1.876-2.00538 6.39068 6.39068 0 0 1-.6469-3.04041 5.81616 5.81616 0 0 1 1.42317-4.20483 5.31685 5.31685 0 0 1 3.94607-1.48786 5.5523 5.5523 0 0 1 2.78165.71159 4.70578 4.70578 0 0 1 1.876 2.00538 6.3907 6.3907 0 0 1 .64689 3.04041zm-7.56868 0a4.79652 4.79652 0 0 0 .51752 2.45819 2.006 2.006 0 0 0 1.74662.841 1.93534 1.93534 0 0 0 1.74661-.841 6.09693 6.09693 0 0 0 0-4.91641 2.23427 2.23427 0 0 0-3.49323 0 4.21693 4.21693 0 0 0-.51752 2.45822zm16.23709-5.69269a4.90906 4.90906 0 0 1 1.035.0647l-.25875 2.84633a3.37135 3.37135 0 0 0-.90565-.12937 3.509 3.509 0 0 0-2.26414.71159 2.73149 2.73149 0 0 0-.77627 2.07007v5.628H129.659v-10.99723h2.26414l.45282 1.876h.12938a3.76985 3.76985 0 0 1 1.35849-1.48787 3.42273 3.42273 0 0 1 1.94068-.5822zm7.63338 8.99186a7.60213 7.60213 0 0 0 1.876-.32345v2.26414a7.11332 7.11332 0 0 1-2.78165.51751 3.54676 3.54676 0 0 1-2.65228-.90565 4.00573 4.00573 0 0 1-.841-2.717V186.91h-1.42317v-1.29379l1.68194-1.035.841-2.32883h1.94069v2.32883h3.1051v2.26414h-3.1051v5.30454a1.22042 1.22042 0 0 0 .38814.97035 1.559 1.559 0 0 0 .97035.25875zm14.2964 2.19944h-2.97572v-6.40426c0-1.61724-.58221-2.39351-1.74662-2.39351a1.97809 1.97809 0 0 0-1.81131.841 5.08923 5.08923 0 0 0-.5822 2.78165v5.17516h-2.97573V180.247h2.97573v3.1051c0 .25876 0 .841-.0647 1.68194l-.12938.97034h.12938a3.41342 3.41342 0 0 1 3.16979-1.61724 3.97432 3.97432 0 0 1 2.97572 1.035 4.25 4.25 0 0 1 1.035 2.97572v7.18053zm17.33681 0l-1.035-3.42854h-5.23986l-1.035 3.42854H164.462l5.11048-14.42578h3.752l5.11047 14.42578zm-1.74662-6.01612c-.97035-3.1051-1.48786-4.85172-1.61724-5.23986s-.19407-.71159-.25876-.97035c-.19406.841-.841 2.911-1.876 6.21021zm16.49584 6.01612h-2.97572v-6.40426a3.587 3.587 0 0 0-.38815-1.81131 1.42067 1.42067 0 0 0-1.22909-.5822 1.82607 1.82607 0 0 0-1.68194.841 5.87189 5.87189 0 0 0-.51751 2.78165v5.17516h-2.97572v-10.99727h2.26413l.38815 1.42317h.19406a2.832 2.832 0 0 1 1.29379-1.16441 4.75432 4.75432 0 0 1 1.94069-.45283c1.61724 0 2.78164.51752 3.36386 1.61724h.25876a2.8319 2.8319 0 0 1 1.29379-1.16441 4.754 4.754 0 0 1 1.94069-.45283 3.89193 3.89193 0 0 1 2.84633.97035 4.253 4.253 0 0 1 .97035 3.1051v7.18055h-3.04042v-6.40427a3.58715 3.58715 0 0 0-.38814-1.81131 1.42073 1.42073 0 0 0-1.2291-.5822 1.80547 1.80547 0 0 0-1.61724.77627 4.32049 4.32049 0 0 0-.51751 2.52289v5.43392zm14.87861.19406a5.16 5.16 0 0 1-5.628-5.628 6.0421 6.0421 0 0 1 1.35849-4.26951 4.79218 4.79218 0 0 1 3.81668-1.48787 4.73189 4.73189 0 0 1 3.62262 1.35849 5.221 5.221 0 0 1 1.29379 3.6873v1.48786h-7.11585a2.95423 2.95423 0 0 0 .77628 2.00538 2.802 2.802 0 0 0 2.00538.71159 8.78292 8.78292 0 0 0 1.876-.19406 12.96538 12.96538 0 0 0 1.876-.6469v2.32883a7.38894 7.38894 0 0 1-1.68193.5822c-.58222 0-1.29381.06469-2.19946.06469zm-.38814-9.25061a1.85611 1.85611 0 0 0-1.48786.5822 2.69617 2.69617 0 0 0-.64689 1.74662h4.20482a2.58921 2.58921 0 0 0-.5822-1.74662 1.8561 1.8561 0 0 0-1.48785-.5822zm13.52012-2.13476a4.909 4.909 0 0 1 1.035.0647l-.25875 2.84633a3.3714 3.3714 0 0 0-.90565-.12937 3.509 3.509 0 0 0-2.26414.71158 2.7316 2.7316 0 0 0-.77628 2.07007v5.628h-2.97573v-10.99723h2.26414l.45284 1.876h.12938a3.76985 3.76985 0 0 1 1.35849-1.48787 3.42286 3.42286 0 0 1 1.94069-.5822zm2.84633-2.65227c0-.97035.51751-1.48787 1.61724-1.48787s1.61724.51752 1.61724 1.48787a1.52169 1.52169 0 0 1-.38814 1.09972 1.75132 1.75132 0 0 1-1.2291.38814c-1.03505 0-1.61724-.5175-1.61724-1.48784zm3.16979 13.84356h-2.97573v-10.99723h2.97573zm7.56869.19406c-3.42854 0-5.11047-1.876-5.11047-5.628a5.77643 5.77643 0 0 1 1.42317-4.26951 5.27019 5.27019 0 0 1 4.01077-1.48787 7.43 7.43 0 0 1 3.42854.77628l-.90565 2.32883c-.45284-.19408-.90565-.32345-1.29379-.45283a4.062 4.062 0 0 0-1.2291-.19407q-2.32886 0-2.32883 3.29917c0 2.13475.77628 3.23448 2.32883 3.23448a4.46635 4.46635 0 0 0 1.61724-.25875 5.20431 5.20431 0 0 0 1.48785-.71159v2.58758a4.95663 4.95663 0 0 1-1.48785.6469 15.28878 15.28878 0 0 1-1.94069.12938zm12.93792-.19406l-.5822-1.48785h-.0647a3.9349 3.9349 0 0 1-1.55254 1.29379 4.72622 4.72622 0 0 1-2.07008.38814 3.64681 3.64681 0 0 1-2.52289-.90565 3.59111 3.59111 0 0 1-.90565-2.58758 2.89472 2.89472 0 0 1 1.2291-2.58758 7.0119 7.0119 0 0 1 3.68731-.90565l1.94069-.0647v-.45283a1.50424 1.50424 0 0 0-1.68193-1.68194 7.79626 7.79626 0 0 0-3.10509.77628l-.97035-2.00534a9.14173 9.14173 0 0 1 4.20482-.97035 5.405 5.405 0 0 1 3.42855.97035 3.57264 3.57264 0 0 1 1.1644 2.911v7.30991h-2.19944zm-.90561-5.11042l-1.16441.06469a3.72249 3.72249 0 0 0-1.94069.45284 1.36976 1.36976 0 0 0-.64689 1.29379c0 .841.51751 1.29379 1.48785 1.29379a2.41843 2.41843 0 0 0 1.68193-.5822 2.186 2.186 0 0 0 .6469-1.61724v-.90567zm20.66914 4.99142h-9.97509v-2.09862l3.58194-3.6211q1.591-1.62987 2.079-2.25908a4.9584 4.9584 0 0 0 .70249-1.16682 2.9616 2.9616 0 0 0 .21477-1.11248 1.62291 1.62291 0 0 0-.47317-1.27863 1.83623 1.83623 0 0 0-1.2641-.41947 3.64083 3.64083 0 0 0-1.61029.3803 8.33409 8.33409 0 0 0-1.62987 1.08343l-1.64-1.942a10.68034 10.68034 0 0 1 1.74737-1.26916 6.44315 6.44315 0 0 1 1.51238-.57109 7.76306 7.76306 0 0 1 1.83518-.19962 5.43457 5.43457 0 0 1 2.36206.48769 3.76778 3.76778 0 0 1 1.59072 1.36645 3.63214 3.63214 0 0 1 .566 2.01081 4.93171 4.93171 0 0 1-.34619 1.84971 7.10467 7.10467 0 0 1-1.074 1.77138 26.18988 26.18988 0 0 1-2.5617 2.58628l-1.83519 1.72779v.13646h6.21753zm11.33142-7.13479a9.945 9.945 0 0 1-1.22494 5.534 4.2506 4.2506 0 0 1-3.772 1.796 4.20058 4.20058 0 0 1-3.72344-1.85414 9.80333 9.80333 0 0 1-1.25463-5.47588 10.03775 10.03775 0 0 1 1.22051-5.5681 4.74416 4.74416 0 0 1 7.49048.08275 9.82535 9.82535 0 0 1 1.26402 5.48537zm-6.97877 0a11.09837 11.09837 0 0 0 .45421 3.76261 1.57185 1.57185 0 0 0 1.52754 1.13712 1.58791 1.58791 0 0 0 1.52248-1.15165 15.23575 15.23575 0 0 0-.00506-7.52016 1.5805 1.5805 0 0 0-3.0399 0 11.06157 11.06157 0 0 0-.45927 3.77208zm18.46685 7.13479h-9.97508v-2.09862l3.58193-3.6211q1.591-1.62987 2.079-2.25908a4.9584 4.9584 0 0 0 .70249-1.16682 2.9618 2.9618 0 0 0 .21477-1.11248 1.62291 1.62291 0 0 0-.47317-1.27863 1.83626 1.83626 0 0 0-1.2641-.41947 3.64076 3.64076 0 0 0-1.61029.3803 8.33445 8.33445 0 0 0-1.62988 1.08343l-1.64-1.942a10.68 10.68 0 0 1 1.74738-1.26916 6.44291 6.44291 0 0 1 1.51237-.57109 7.7632 7.7632 0 0 1 1.83519-.19962 5.4345 5.4345 0 0 1 2.36205.48769 3.768 3.768 0 0 1 1.59073 1.36645 3.6323 3.6323 0 0 1 .566 2.01081 4.93151 4.93151 0 0 1-.34619 1.84971 7.10463 7.10463 0 0 1-1.07394 1.77138 26.18889 26.18889 0 0 1-2.56171 2.58628l-1.83518 1.72779v.13646h6.21752z" class="cls-1"/><path id="SVGID-3" d="M314.16769 187.71866H396v.6469h-81.83231z" class="cls-1"/><path d="M314.168 187.719H396v.647h-81.832z" class="cls-1"/><path d="M314.168 187.719H396v.647h-81.832z" class="cls-1"/><g clip-path="url(#clip-path-3)"><path d="M314.16769 187.71866H396v.6469h-81.83231z" class="cls-1"/></g><path d="M295.63113 196h-3.26577v-8.94082l.03164-1.46918.05285-1.60626q-.81385.81384-1.1309 1.06724l-1.77539 1.42692-1.57484-1.96574 4.97792-3.96332h2.68451z" class="cls-1"/></svg>
