<svg id="Layer_1" data-name="Layer 1" xmlns="http://www.w3.org/2000/svg" xmlns:xlink="http://www.w3.org/1999/xlink" viewBox="0 0 439 360"><defs><style>.cls-1,.cls-2{fill:#fff;}.cls-2{fill-rule:evenodd;}.cls-3{opacity:0.8;isolation:isolate;}.cls-4{clip-path:url(#clip-path);}.cls-5{clip-path:url(#clip-path-2);}.cls-6{clip-path:url(#clip-path-3);}.cls-7{clip-path:url(#clip-path-4);}</style><clipPath id="clip-path"><rect class="cls-1" x="169.35788" y="3.55559" width="0.69695" height="141.82998"/></clipPath><clipPath id="clip-path-2"><rect class="cls-1" x="341.22653" y="172.74096" width="88.16455" height="0.69695"/></clipPath><clipPath id="clip-path-3"><rect class="cls-1" x="313.55748" y="172.74096" width="118.06433" height="0.69695"/></clipPath><clipPath id="clip-path-4"><rect class="cls-1" x="5.85237" y="172.74096" width="118.06433" height="0.69695"/></clipPath></defs><path class="cls-1" d="M196.989,347.02043c-3.41084,1.02363-7.04029.02242-10.50448,1.42975-2.149.873-4.75716.58873-7.1501.89494a64.11282,64.11282,0,0,0-13.56292,2.77042c-1.73155.61653-3.828.13911-5.42493,1.46627l-1.41589.09772c-2.76809.57067-5.54815,1.08976-8.3,1.73018a14.88475,14.88475,0,0,1-5.46232.27709c-3.17384-.45016-6.15068-2.14308-6.60335-5.82642a15.45657,15.45657,0,0,1,.69678-3.2624c.6969-1.56309,1.7946-2.7756,3.82136-2.23895a27.53268,27.53268,0,0,0,17.69911-1.08143,19.00008,19.00008,0,0,1,4.47551-.64988c6.27787-.83005,12.49293-2.06249,18.745-3.00187,2.24859-.33785,4.41061-1.58377,6.79376-1.03665a.98927.98927,0,0,0,1.30014-.009l.18219.01421,1.19162-.43334c2.99557-.22855,5.97379-.88,8.99967-.3686-.12578.19947-.23751.56276-.37933.5749-6.58774.56349-13.16126,1.57262-19.64865,2.574-5.44276.84015-11.31195.8096-16.12563,3.61952,3.03886.72265,6.07823-1.29914,9.38828-.93266a14.55807,14.55807,0,0,0,6.5535-1.11255,5.12769,5.12769,0,0,1,1.86832-.36827,41.49925,41.49925,0,0,0,9.49812-.43591c2.30362-.447,4.85117.13074,7.05743-.52749,2.79178-.83292,5.7173-.23208,8.37828-1.19553,2.695-.97576,5.47625-.79195,8.21515-1.05667,3.67871-.35554,7.54133.17063,11.04447-.74946,5.76546-1.51425,11.5608.07239,17.33484-1.04195,3.70536-.71511,7.70673.12255,11.57632.2336,5.34841.15352,10.70558.14327,16.04409.45667a72.49253,72.49253,0,0,1,13.49261,2.36457c-.04376-.62974-.08785-1.06416-.58737-1.258-3.05609-1.186-6.35233-1.33935-9.5011-2.26919-4.19785-1.23967-8.68994-1.1356-13.104-1.24663-4.26638-.10732-8.51685-.743-12.78378-.96383-3.46-.17911-6.88391.63551-10.39455.48773-1.38835-.05845-3.04136.55974-4.64132.60485-2.53609.07151-5.13172-.38076-7.55129-.17717-3.42769.2884-6.77307,1.46223-10.33074,1.48469-4.33589.02735-8.60885,1.17524-12.972,1.04505-.78085-.02331-1.61419,1.10692-2.34633-.08416.36457-.86558,1.02972-.92051,1.91353-1.03184,4.28587-.5399,8.60283-1.0607,12.87867-1.37861,4.36755-.3247,8.75829-.6442,13.13515-.96521a208.26962,208.26962,0,0,1,22.06019-.65486c5.13852.16688,10.32171.09754,15.463.37786,6.55817.35759,12.92684,2.02133,19.32161,3.47445,2.75924.627,5.41258,1.69324,6.83647,3.877,2.31643,3.55273,5.58645,6.89976,4.54632,11.89889-.32215,1.54821-1.72973,2.134-2.2025,3.45006a1.61484,1.61484,0,0,1-1.32136-.01256c-.76488-.55246-.48541-1.34879-.23124-2.12571.95688-2.92475.45933-5.12409-1.8158-6.25017-1.48455-.73479-2.91682-1.8708-4.45425-2.15408-3.12182-.57519-6.07609-1.86559-9.33861-1.89614-4.07447-.03811-7.90928-1.81483-11.99956-1.95147-8.14893-.27224-16.334-.98946-24.43541.05476-6.75825.87111-13.59857-.07053-20.25894,1.13846-6.03661,1.09575-12.18183,1.07862-18.21626,2.34362C202.08254,346.50651,199.45513,346.47536,196.989,347.02043Zm42.76665-7.2924c-1.67391-.32844-3.35384-.76892-5.0468.22283C236.51383,341.04313,238.138,340.4457,239.75568,339.728Zm-27.62988,2.188c-2.231-1.31868-3.38289-.015-5.35144.83443Zm56.48487-1.78308c-.98907-.61855-1.95063-1.50125-3.2575-.58515C266.57186,339.22621,267.40112,340.41761,268.61067,340.133Z"/><g id="_45W0Vf" data-name="45W0Vf"><path class="cls-1" d="M51.00592,308.46515c1.45962-1.25591,1.81008-3.0354,2.25182-4.77159a17.48359,17.48359,0,0,1,.53169-2.02339c.20862-.53806.24423-1.575,1.01955-1.32531.796.2563.12027,1.10187.08259,1.68931-.0207.32265-.41167.60343-.05779,1.0411.95187-1.18093.55835-2.89555,1.66046-3.96876.27968-.27234.419-.81743.90062-.65178.61289.21079.42238.78665.26418,1.19571a14.24942,14.24942,0,0,0-1.17449,5.02663,111.08571,111.08571,0,0,0,3.83807-12.99662c-.47818.24975-.62844,1.12089-1.3037.705-.47952-.29529-.375-.81317-.2507-1.26847.3674-1.34534.72848-2.69339,1.145-4.02381.15257-.48739.43994-1.12923,1.08578-.78717.51374.27208.21941.81214-.037,1.22342-.27891.44729-.58863.89564-.09683,1.52469,5.065-13.019,11.10225-25.54877,16.3704-38.43468a39.60946,39.60946,0,0,0-5.69882,7.86318,2.00881,2.00881,0,0,0-.24461,1.67518c.1751.4668.20383.997-.29089,1.23989a1.64027,1.64027,0,0,0-1.02176,2.23964c.05609.16667-.10679.58539-.21.60034-1.37161.19868-1.70234,1.61256-2.66159,2.38986-.41241-.85279.03868-1.45437.24549-2.08267,3.70633-11.25957,9.42513-21.66912,13.80093-32.647,1.05723-2.65234,4.5021-5.54191,8.36808-4.07025,3.76755,1.43418,5.56032,4.40051,2.715,8.82328a115.34927,115.34927,0,0,0-6.23989,10.29109q-6.32859,12.54087-12.22056,25.29517a105.58306,105.58306,0,0,0-4.53968,10.71946c-1.27676,3.80794-2.83467,7.54486-3.8961,11.46849-1.349,4.98659-2.48454,10.04138-3.99826,14.98886-.273.89242-1.01725,2.22479-.161,2.75078.90821.55791,1.603-.81354,2.32617-1.41731a288.3631,288.3631,0,0,0,22.4106-20.24279,254.64024,254.64024,0,0,0,24.19365-28.66363c4.8754-6.78363,10.0803-13.39819,13.32157-21.224.2671-.64489.60895-1.26007.8559-1.91186,1.43332-3.78316,1.2702-7.4003-1.16314-10.77144-.60474-.83781-1.52876-1.70634-.70646-2.7854a2.329,2.329,0,0,1,3.04774-.95353.71861.71861,0,0,0,.50523.09041,4.18951,4.18951,0,0,1,4.82284.89972,10.4319,10.4319,0,0,1,3.68553,6.169,11.57959,11.57959,0,0,1-.11917,4.16388c-1.16772,5.899-4.22022,10.97763-7.29915,15.956a195.81531,195.81531,0,0,1-14.06789,19.47642c-3.69867,4.60592-7.26782,9.3376-11.117,13.81479a202.595,202.595,0,0,1-30.92828,29.657A17.80015,17.80015,0,0,1,59.82926,318.277a6.79019,6.79019,0,0,1-4.10144-1.52249,10.54092,10.54092,0,0,1-3.65235-6.15507,6.75784,6.75784,0,0,0-1.06955-1.78488Zm75.19171-61.6889a452.00172,452.00172,0,0,1-31.761,41.04174A218.04345,218.04345,0,0,0,126.19763,246.77625Z"/><path class="cls-1" d="M275.67665,298.63441a9.42507,9.42507,0,0,0,6.80478-3.50881c2.70661-3.72872,6.13867-6.97436,7.87513-11.39237a7.98377,7.98377,0,0,1,1.67558-2.42662c2.5774-2.73282,5.15171-5.47464,7.85252-8.08332a45.60543,45.60543,0,0,1,9.41945-6.88689c2.59549-1.45711,7.47067-.65819,8.98043,2.90576.18448.43553.31765.89758.84922,1.01979,1.83212.42122,2.80564,2.10138,4.37884,2.97675,1.98071,1.10212,2.58022,4.88322,1.619,6.96258-2.02626,4.38329-4.00351,8.78919-6.01075,13.1813-1.49882,3.27963-3.01611,6.55092-4.2008,9.96278-.2065.59471-.64357,1.22194-.182,1.81541.51372.66059,1.28155.42832,1.94616.25087a25.52705,25.52705,0,0,0,6.16283-2.84574c1.71123-.99425,3.36734-2.09155,5.123-2.99772.86668-.44734,1.86394-1.40573,2.89505-.1528.17514.21282.42218.12922.63749.02246.84459-.41882,1.48528-1.23523,2.56109.04982.46451.55484,1.62342-.40668,1.61365-1.58849-.01731-2.09152-.3733-4.23089.22626-6.26074,2.15844-7.30754,4.25942-14.65185,7.968-21.37456,1.26867-2.29973,2.12188-4.81692,3.53045-7.01127a135.24415,135.24415,0,0,1,8.9094-12.84435c1.68471-2.05828,3.43914-4.109,4.96349-6.32777.82636-1.2028,2.4843-1.71012,3.17889-3.156-.24311-.32344-.94586.27446-.93856-.37817a1.49713,1.49713,0,0,1,1.20678-1.3471,5.31784,5.31784,0,0,0,3.6749-3.236c.59344-1.86031,1.85658-3.02022,2.95805-4.40056a20.87655,20.87655,0,0,1,3.02559-2.89059c2.7012-2.26261,5.92091-2.74368,8.56523-1.27171,2.30524,1.28322,3.95107,5.22985,3.42349,8.27791a22.129,22.129,0,0,1-2.291,6.19271c-6.32376,12.49714-15.02024,23.23391-24.58261,33.33827a53.12749,53.12749,0,0,1-5.51811,5.58349c-1.38936,1.09057-2.82361,2.08532-4.771,1.36485-.8673-.32087-1.0988.43946-1.3326,1.01933a48.38371,48.38371,0,0,0-1.89741,5.80172c-1.10667,4.20806-2.27667,8.38188-2.42332,12.79216-.08481,2.55055,1.29761,4.37638,3.87469,4.54226a20.76549,20.76549,0,0,0,10.40685-2.467,66.90788,66.90788,0,0,0,13.66227-9.33681c.69937-.58121,1.57975-2.01988,2.5422-.85025.88,1.06946-.31089,1.95806-1.18109,2.683-2.37519,1.97891-4.94534,3.68811-7.46771,5.46421a3.37885,3.37885,0,0,0-1.76678,2.3014,7.91048,7.91048,0,0,0,3.77408-1.4013c2.82539-1.983,5.84431-3.86821,7.65451-7.00414.17-.29443.374-.73292.76784-.5201.55977.30251.23743.81935.08579,1.23245a22.21338,22.21338,0,0,1-11.24121,12.289,32.44633,32.44633,0,0,0-4.34323,2.91824c-3.81223,2.82213-8.13255,3.28037-12.64123,2.78676a5.75149,5.75149,0,0,1-4.764-3.12453c-1.52825-2.96023-4.037-5.25067-5.59481-8.18925-.63056-1.18946-1.09138-.98015-2.00447-.10187-4.4978,4.32641-9.17463,8.3187-15.26145,10.48355-3.80773,1.35426-6.77324.22337-9.218-2.195a17.05065,17.05065,0,0,1-4.173-6.73772,10.29884,10.29884,0,0,1,.42124-7.186c-.98589.17394-1.29577.8385-1.69692,1.31063a140.27706,140.27706,0,0,1-12.52383,13.10923c-5.95029,5.40572-11.1715,1.89442-13.51436-4.06236-1.17467-2.9866-.92944-3.08305-.15225-5.048-.23677-.21157-.46159-.05907-.6013.093-2.71753,2.95729-6.311,4.75147-9.46362,7.12959a24.04,24.04,0,0,1-5.7079,2.991c-4.79666,1.90548-8.22211.72943-11.52808-3.22957-2.83991-3.40088-3.37251-7.23084-3.29378-11.35658.00947-.49618.29428-1.14875-.30651-1.41823-.59337-.26614-.91.36643-1.27357.7028-5.64395,5.22153-11.53227,10.159-17.5073,14.992-2.977,2.408-6.06113,2.62891-8.24835.58721a18.443,18.443,0,0,1-3.07135-4.63432c-.63889-1.12543-.87278-1.00236-1.81709-.27328-3.29021,2.54032-6.4363,5.3803-10.79447,6.07261a12.57425,12.57425,0,0,1-13.477-6.54862c-1.38953-2.5409-3.31228-4.82287-3.89348-7.76312-.82068-4.15168.18222-8.14772,1.47178-11.993a125.18718,125.18718,0,0,1,9.21214-19.943,107.45974,107.45974,0,0,1,7.3447-12.28023c.35411-.48353.955-1.05008.55082-1.71079-.39069-.63872-1.17162-.41989-1.77849-.37-2.20117.18112-4.394.46617-6.59569.63762a15.38756,15.38756,0,0,1-4.51505-.27723,6.22185,6.22185,0,0,1-4.86521-6.03819c.01956-.66928.35417-1.31967,1.06813-.758,3.30479,2.6,7.13114,1.5035,10.76084,1.53892,2.49482.02434,4.99686-.27434,7.49534-.00263a3.607,3.607,0,0,0,3.415-1.60174c2.7387-3.33808,4.10935-7.40564,6.14865-11.11225a32.31266,32.31266,0,0,1,4.32778-6.5334c1.73367-1.87839,2.26837-4.43291,3.85-6.40255,1.71867-2.14035,3.38511-2.0057,5.86511-.83126,2.00391.949,2.27353,2.62431,3.07773,4.07091,1.05347,1.895.58638,3.65509-.856,5.43266-2.74593,3.38395-5.19382,7.00831-7.81263,10.49746-1.28085,1.70654-2.22451,3.7054-4.16773,4.86333-.67254.40075-.47612.87613.15275,1.1437a2.87128,2.87128,0,0,0,1.18041.2416c4.13513-.14065,8.2538.2625,12.38159.34415a6.11159,6.11159,0,0,0,1.38949-.08833c2.16536-.46387,3.44162.28367,4.05834,2.43526.09574.33411.125.68674.19754,1.02815.56808,2.67515.20261,2.86439-2.43485,2.57175a84.4177,84.4177,0,0,0-10.72048-.78954c-3.23762.05377-6.482-.06273-9.717-.228a2.011,2.011,0,0,0-2.02488.97783,71.281,71.281,0,0,1-5.59882,7.31987c-.93905,1.05818-2.12737,2.33646-1.77051,4.10235.07238.35815-.053.56386-.43406.56315-.30218-.00056-.74673.04576-.72679.3266.18364,2.58673-2.92356,3.24817-3.2267,5.56393-.04893.37383-.34873.70159-.06954,1.10366a.91807.91807,0,0,1-.19071,1.26228c-2.17833,2.14452-2.9521,5.15862-4.70282,7.568a1.20605,1.20605,0,0,0-.30426,1.281,4.5107,4.5107,0,0,1-1.17874,5.46416,1.85265,1.85265,0,0,0-.708,1.90618c.26415,2.64511-.81283,5.14234-1.09286,7.74323a44.52619,44.52619,0,0,0-.268,5.048q.02505,4.10187,4.15263,3.49332a15.706,15.706,0,0,0,4.31917-1.35436,82.81455,82.81455,0,0,0,14.22331-8.48245,15.08743,15.08743,0,0,0,4.50565-6.10178,17.42158,17.42158,0,0,1,2.24785-3.65171,13.593,13.593,0,0,0,2.03878-3.4405,58.63023,58.63023,0,0,1,7.61679-12.90741c1.96593-2.66035,4.606-3.07329,7.316-1.21214,2.13943,1.46931,2.5906,4.82741.88012,7.53856a44.35,44.35,0,0,1-6.75609,8.65675c-4.14538,3.93679-6.58644,8.9794-9.38772,13.79743-.81807,1.407-1.50962,2.8876-2.25969,4.3342-.15593.30072-.49087.62607-.25173.94311.29586.39223.757.20733,1.12078.03237a11.9908,11.9908,0,0,0,1.36158-.77907,42.40986,42.40986,0,0,0,7.69454-6.28782c5.02763-5.32806,10.236-10.47925,15.17049-15.90265a174.635,174.635,0,0,1,13.60264-13.6849c1.16587-1.02672,2.3922-1.91453,4.08105-1.267.4355.167,1.13876.433,1.03495.80814-.4705,1.7001.73176,1.58594,1.7478,1.96773,1.28475.48277,1.59677,1.77628,1.68631,3.02559a9.53,9.53,0,0,1-2.06656,6.83768,152.00422,152.00422,0,0,0-10.93521,15.96083,73.38283,73.38283,0,0,0-3.34354,6.9092c-.235.50591-.57825,1.12583-.11874,1.64431.5001.56427,1.2212.34709,1.8072.15362a28.07815,28.07815,0,0,0,5.85823-2.69814c3.8218-2.33775,7.821-4.388,11.44848-7.04238.41143-.301.91415-.78958,1.39527-.408.59326.47061-.10929.75308-.35786,1.08674a.45893.45893,0,0,0-.06724.302C277.97727,297.32172,276.14963,297.67677,275.67665,298.63441Zm39.94545-24.33965a7.19639,7.19639,0,0,0-3.9015,1.49925c-4.7764,3.09883-8.69193,7.125-12.597,11.22708a93.20587,93.20587,0,0,0-11.97443,15.62267,20.67422,20.67422,0,0,0-1.501,3.14244c-.21565.539-.81156,1.265-.09617,1.72931.68944.44742,1.37092-.12733,1.83178-.63227,2.9996-3.28621,6.82795-5.71522,9.49927-9.3623a12.63585,12.63585,0,0,1,3.82321-3.03641c1.26519-.76853,1.249-3.44445,2.6697-4.09687,1.75942-.80794,1.94746-2.58217,3.15555-3.51257,1.65984-1.27831,2.25995-3.79764,4.75834-4.06681.06042-.00651.16429-.20479.143-.28613-.3363-1.28291.23291-1.539,1.37523-1.31234.25723.051.50871-.37784.41354-.65673-.344-1.008.37064-1.49659.936-2.06106a9.30977,9.30977,0,0,0,1.82911-2.937C316.40984,274.60382,316.24082,274.24616,315.6221,274.29476Zm35.39882,1.65825a4.46279,4.46279,0,0,0,1.73781-1.4501c2.299-2.54885,4.56224-5.12991,6.86122-7.67876a133.64362,133.64362,0,0,0,20.51877-29.18c.3353-.6644,1.20282-1.55845.41627-2.12015-.57633-.41161-1.23389.627-1.78137,1.10936-4.79037,4.22051-8.292,9.55266-12.32037,14.42538a88.157,88.157,0,0,0-5.913,8.47062c-3.02635,4.68663-5.82375,9.51372-8.8238,14.21358A3.16672,3.16672,0,0,0,351.02092,275.953ZM237.99707,301.46792a77.78628,77.78628,0,0,0,20.266-19.10711c-.69594-.00692-1.0384.4744-1.43785.85217-2.695,2.54875-5.2648,5.24573-8.103,7.62268-2.64653,2.21648-4.54,5.47784-8.27466,6.27038a.34567.34567,0,0,0-.21337.25269C240.30913,299.17105,238.835,300.13759,237.99707,301.46792Zm-46.837-9.8311c4.23259-13.54191,11.30918-25.6562,18.843-37.541A121.70163,121.70163,0,0,0,191.16008,291.63682Zm158.55906-25.61847c5.84849-9.99482,12.97869-19.05695,20.51148-27.92445-1.23837-.0643-2.27223.01574-2.60931,1.06065a13.20813,13.20813,0,0,1-2.75748,4.18822c-3.13342,3.83118-6.02572,7.83633-8.75924,11.95439A91.11717,91.11717,0,0,0,349.71914,266.01835Z"/><path class="cls-1" d="M173.41483,270.121c1.83306-1.28634,3.67039-2.56666,5.498-3.86069a20.85776,20.85776,0,0,1,6.08341-3.36563c1.69952-.49513,3.43329-.85254,4.81551.80583a2.0333,2.0333,0,0,0,.76238.39115c2.05054.88943,2.7222,2.09861,2.06418,4.30071-1.29408,4.33079-3.41836,8.15966-7.21953,10.83006a33.76771,33.76771,0,0,1-3.83544,2.41424c-.5726.29641-1.5174,1.40165-2.03839-.22187-.0378-.11777-.63344-.05461-.96947-.07908-.42391-.03087-.94063.54543-1.24711-.04653-.22442-.43348.13745-.88862.36854-1.29048,1.41834-2.46636,3.45122-4.55477,4.47159-7.26553.15679-.41653.56611-.75211.40528-1.35689a60.46514,60.46514,0,0,0-9.50828,7.03538,86.75217,86.75217,0,0,0-11.99858,12.64853,9.35,9.35,0,0,1-3.26616,3.0912,2.07678,2.07678,0,0,0-.73262.71917c-2.70394,4.07153-5.41789,8.1368-8.07411,12.2394a13.70707,13.70707,0,0,0-2.23664,5.26494,5.42329,5.42329,0,0,1-1.30206,2.4458c-.7278.90031-1.4272.99133-1.92071-.24262-.10073-.25186.02661-.73711-.32415-.72376-2.16322.08228-2.50331-1.82109-3.38226-3.09213-.49466-.71529-.91214-.82171-1.51927-.243-3.10978,2.96443-7.39154,3.39114-11.1272,4.92745-3.80941,1.56663-8.94219-1.11621-10.69785-4.822-.39948-.8432-.6951-1.74259-1.87575-1.80372-.45763-.02369-.62561-.48121-.7478-.87582a13.85826,13.85826,0,0,1,.11912-9.86424,206.91031,206.91031,0,0,1,13.76962-26.23577,31.32063,31.32063,0,0,0,2.2763-4.32025,3.45779,3.45779,0,0,1,4.53095-1.97262c3.725,1.30556,5.74077,6.9309,3.554,10.2545-4.09207,6.2194-8.47352,12.26856-12.03151,18.81634-1.86843,3.43847-4.075,6.807-4.469,10.88134a2.87623,2.87623,0,0,1-.15372.49707c-.19575.67234-1.21511,1.23344-.5145,2.00466.64076.70533,1.5394.25348,2.31174.06559a69.79528,69.79528,0,0,0,18.4043-7.843,3.78129,3.78129,0,0,0,1.427-1.71551c1.49945-2.97211,3.48651-5.63725,5.25868-8.43875,3.42035-5.407,6.55949-10.99212,9.986-16.3951a92.74924,92.74924,0,0,0,5.45494-9.53292c1.22062-2.54611,2.96935-3.346,5.71563-2.90116a5.489,5.489,0,0,1,4.85838,4.766C174.60123,267.50262,173.5092,268.57978,173.41483,270.121Zm-18.58964,22.94058c-.5009-.05845-.74885.2849-.9812.59523-3.13489,4.187-5.67942,8.75321-8.44241,13.179-.252.40377-.46486.95429.0242,1.24909.69675.42.90071-.31253,1.09972-.728a35.30477,35.30477,0,0,1,2.84114-4.97764c1.69021-2.42613,3.2996-4.90975,4.89352-7.40081C154.60574,294.43837,155.17342,293.88552,154.82519,293.06159Zm-7.11082,3.59627c3.80616-4.38522,6.24575-9.63557,9.17962-14.573A88.30192,88.30192,0,0,0,147.71437,296.65786Zm-24.58385-10.14712a55.29379,55.29379,0,0,0-6.60354,14.77964,1.16913,1.16913,0,0,0,.69137,1.59616C118.19257,296.97971,120.61725,291.75456,123.13052,286.51074Z"/><path class="cls-1" d="M146.24173,237.84934c3.11436.06795,7.05929,3.41353,7.519,6.17525a3.84046,3.84046,0,0,1-1.23842,3.30291q-3.60093,3.8988-7.2661,7.73812a3.23115,3.23115,0,0,1-4.52771.609,5.88149,5.88149,0,0,1-2.68843-5.928A20.33727,20.33727,0,0,1,142.88092,239.69,5.42909,5.42909,0,0,1,146.24173,237.84934Z"/><path class="cls-1" d="M60.68937,283.84893c1.53069-3.32934,1.8244-7.388,3.96575-10.78335.30487-.4834.72488-1.10093,1.35937-.834.78808.33154.27747.99865.08677,1.48839q-2.07432,5.32691-4.20445,10.63192c-.14727.36645-.14716,1.056-.824.8491C60.60582,285.0582,60.71809,284.53775,60.68937,283.84893Z"/></g><g id="SVGID"><path class="cls-1" d="M6.27084,172.741H94.43542v.69695H6.27084Z"/></g><rect class="cls-1" x="6.27084" y="172.74096" width="88.16458" height="0.69695"/><path class="cls-1" d="M126.84374,124.75574c.76665-.20909,1.67268-.41818,2.85751-.62725a20.63523,20.63523,0,0,1,3.62415-.27878,8.385,8.385,0,0,1,3.206.48786,4.89985,4.89985,0,0,1,2.02116,1.46361,5.51526,5.51526,0,0,1,1.04543,2.23025,12.34008,12.34008,0,0,1,.34848,2.85751v8.64222H135.695v-8.15435a5.81912,5.81912,0,0,0-.55756-2.92721,2.28169,2.28169,0,0,0-2.09086-.83634,4.93717,4.93717,0,0,0-.97573.0697c-.34848,0-.62726.0697-.906.0697v11.77851h-4.32111V124.75574Zm-7.94526,7.03923a5.79054,5.79054,0,0,0-.76666-3.13629,2.9294,2.9294,0,0,0-4.59989,0,5.23363,5.23363,0,0,0-.83634,3.13629,5.61676,5.61676,0,0,0,.83634,3.206,2.82473,2.82473,0,0,0,4.59989,0,6.05346,6.05346,0,0,0,.76666-3.206m4.3908,0a9.79574,9.79574,0,0,1-.48786,3.27568,7.45909,7.45909,0,0,1-1.5333,2.57872,6.97455,6.97455,0,0,1-5.43623,2.23025,8.57724,8.57724,0,0,1-3.06659-.55756,6.99555,6.99555,0,0,1-2.36964-1.67269,7.24965,7.24965,0,0,1-1.53329-2.57872,9.90092,9.90092,0,0,1,0-6.55136,7.58807,7.58807,0,0,1,1.53329-2.509,6.79918,6.79918,0,0,1,2.36964-1.603,7.17456,7.17456,0,0,1,2.9969-.55756,8.195,8.195,0,0,1,2.9969.55756,7.90345,7.90345,0,0,1,2.36964,1.603,7.5879,7.5879,0,0,1,1.53329,2.509,8.31685,8.31685,0,0,1,.62725,3.27568M99.802,139.87963c-3.27567,0-5.78471-.906-7.45739-2.71811-1.74238-1.81208-2.57873-4.39081-2.57873-7.73619a12.72594,12.72594,0,0,1,.76666-4.46049,9.00781,9.00781,0,0,1,5.43623-5.29685,11.329,11.329,0,0,1,4.112-.697,11.74839,11.74839,0,0,1,2.3.20909c.697.13938,1.32421.27877,1.81208.41817a13.71415,13.71415,0,0,1,1.32421.48787,2.49521,2.49521,0,0,1,.76665.41817l-1.32421,3.62416a8.72664,8.72664,0,0,0-2.16055-.83634,11.2896,11.2896,0,0,0-2.78782-.34848,6.475,6.475,0,0,0-2.02116.34848,4.1695,4.1695,0,0,0-1.74238,1.11512,6.72721,6.72721,0,0,0-1.25452,1.95148,9.17961,9.17961,0,0,0-.48786,2.9272,10.09328,10.09328,0,0,0,.27877,2.57872,6.43165,6.43165,0,0,0,.97573,2.09086,5.24791,5.24791,0,0,0,1.81209,1.39391,6.20074,6.20074,0,0,0,2.64842.48786,12.61062,12.61062,0,0,0,1.74238-.13939,7.029,7.029,0,0,0,1.39391-.27877,9.11642,9.11642,0,0,0,1.04543-.34848,4.26349,4.26349,0,0,1,.83634-.34848l1.25452,3.62416a8.49809,8.49809,0,0,1-2.71811,1.04543,13.4654,13.4654,0,0,1-3.97263.48786m-17.21474-9.54825a2.79649,2.79649,0,0,0-.20909-1.04543,3.75521,3.75521,0,0,0-.48787-.906,2.78876,2.78876,0,0,0-.83634-.697,3.32907,3.32907,0,0,0-1.25452-.27877,2.38681,2.38681,0,0,0-1.25452.27877,1.90272,1.90272,0,0,0-.83634.62726,3.26,3.26,0,0,0-.55756.97573,5.22055,5.22055,0,0,0-.27878,1.11513h5.715Zm-10.10583,1.603a9.50513,9.50513,0,0,1,.62726-3.55446,6.6059,6.6059,0,0,1,1.67269-2.509,7.00048,7.00048,0,0,1,2.3-1.53329,7.47352,7.47352,0,0,1,2.71812-.48787,6.77744,6.77744,0,0,1,5.15745,1.95147q1.88176,1.98633,1.88177,5.8544v.83634c0,.27878-.0697.55757-.0697.76666h-9.827a2.59074,2.59074,0,0,0,1.25451,2.09086,5.36526,5.36526,0,0,0,2.9272.76665,12.27235,12.27235,0,0,0,2.3-.20909,8.74193,8.74193,0,0,0,1.88177-.55756l.55757,3.48476a6.22379,6.22379,0,0,1-.906.34848,7.40279,7.40279,0,0,1-1.32422.27878c-.48786.0697-.97573.13938-1.53329.20908a12.87782,12.87782,0,0,1-1.603.0697,9.01045,9.01045,0,0,1-3.55446-.62725,6.60584,6.60584,0,0,1-2.509-1.67268,5.69981,5.69981,0,0,1-1.46361-2.509,7.95567,7.95567,0,0,1-.48786-2.9969m-2.85751-.0697a9.7808,9.7808,0,0,1-.55756,3.27568,7.58783,7.58783,0,0,1-1.5333,2.509,6.74117,6.74117,0,0,1-2.509,1.603,9.89266,9.89266,0,0,1-3.34537.55756,14.58553,14.58553,0,0,1-1.67269-.0697l-1.67269-.20908a12.86622,12.86622,0,0,1-1.603-.27878c-.48786-.13939-.97573-.20909-1.32421-.34848V117.57714l4.32111-.697V124.477a9.87007,9.87007,0,0,1,1.53329-.48786,6.5136,6.5136,0,0,1,1.67269-.13939,7.19987,7.19987,0,0,1,2.85751.55756,5.26947,5.26947,0,0,1,2.09086,1.603,7.07557,7.07557,0,0,1,1.25452,2.509,10.21788,10.21788,0,0,1,.48786,3.34538m-4.3908-.13939c0-2.78781-1.04543-4.18172-3.0666-4.18172a8.542,8.542,0,0,0-1.32421.13939,8.11465,8.11465,0,0,0-1.04543.41818v7.87557a2.8714,2.8714,0,0,0,.83634.0697c.34848,0,.697.0697,1.04543.0697a3.10284,3.10284,0,0,0,2.64842-1.18482,5.46668,5.46668,0,0,0,.906-3.206m-14.07846,7.24831c-.76664.20909-1.67268.41818-2.8575.62726a20.6363,20.6363,0,0,1-3.62416.27877,8.385,8.385,0,0,1-3.206-.48786,4.89995,4.89995,0,0,1-2.02117-1.46361,5.989,5.989,0,0,1-1.04543-2.23025,11.87936,11.87936,0,0,1-.34847-2.85751V124.3376h4.25141v7.94526a6.32615,6.32615,0,0,0,.55757,2.9969,2.16134,2.16134,0,0,0,2.09085.906,4.93727,4.93727,0,0,0,.97574-.0697c.34848,0,.62726-.0697.906-.0697V124.2679h4.32111v14.70571Zm-19.93286.48787c-.41817-.62726-.906-1.39391-1.4636-2.16056a26.10837,26.10837,0,0,0-1.81207-2.29995c-.62726-.76665-1.32422-1.4636-2.02117-2.23025a25.46151,25.46151,0,0,0-2.09086-1.88177v8.50283H19.30386V119.31954h4.5302v7.59678c1.18482-1.25452,2.36964-2.509,3.55446-3.90294,1.18482-1.32421,2.29995-2.57873,3.34538-3.69386h5.36653c-1.3939,1.603-2.71811,3.206-4.112,4.66959-1.39391,1.53329-2.85751,2.9969-4.3908,4.53019a37.66691,37.66691,0,0,1,4.66958,4.73929,61.71207,61.71207,0,0,1,4.32111,6.06349H31.22176Z"/><path class="cls-2" d="M67.46333,50.809l-2.509.55757c0-.34848-.0697-.697-.0697-1.04543a14.43237,14.43237,0,0,1,2.09086-7.5271l4.87867,4.32111a.96237.96237,0,0,0,.27879.20909,7.94775,7.94775,0,0,0-.55757,2.29994c-.13939.0697-.34848.0697-.48786.13939ZM76.94189,36.0336v6.83014a6.04246,6.04246,0,0,0-1.88177.97574c-.20909-.13939-.41817-.34848-.62726-.48786l-4.94837-3.48477a13.74931,13.74931,0,0,1,7.4574-3.83324M43.00027,51.78475c2.36964-10.38461,4.39081-19.16621,6.76045-29.55082,1.04543-4.66958,1.74238-5.9241,5.99379-8.36344,5.85441-3.41507,10.24521-5.8544,16.51779-9.47856,3.90294-2.23025,4.66959-2.09086,4.66959,2.71812V31.22463a18.84113,18.84113,0,0,0-11.43,5.78471L63.421,35.54574a1.00737,1.00737,0,0,1-.48787-.697A3.39456,3.39456,0,0,0,61.818,33.17609a2.28033,2.28033,0,0,0-2.85751,3.55446,2.41493,2.41493,0,0,0,1.11512.55757c.27879.06969.55757.06969.83635.13939a1.722,1.722,0,0,1,.62725.27878l1.95148,1.74238A19.08151,19.08151,0,0,0,60.215,50.18175c0,.697.06969,1.39391.13939,2.09086l-4.25142.906a4.28691,4.28691,0,0,0-.906.0697l-.62726.20909c-2.78781.55756-5.57562,1.18481-8.43313,1.81207-3.83324.906-3.97263.13939-3.13629-3.48476m38.89-8.921V36.0336a14.65542,14.65542,0,0,1,7.4574,3.76355l-5.36654,3.83324c-.06969.0697-.13939.13939-.20909.13939a7.745,7.745,0,0,0-1.88177-.906m11.98759,8.015L87.1871,49.34541a6.59927,6.59927,0,0,0-.55757-2.09086c.0697-.0697.13939-.13939.20909-.13939L91.787,42.72435a14.56211,14.56211,0,0,1,2.16056,7.59679,1.3586,1.3586,0,0,0-.0697.55757M85.16594,14.00988c3.62415,1.74239,6.20288,2.9969,9.827,4.73928,5.01806,2.43934,10.03612,4.87868,15.12388,7.24832,1.25452,5.43623,2.509,10.87246,3.69386,16.3087.76665,3.27568,1.11513,5.01806,1.88177,8.22405,1.18482,5.08776,1.04543,5.50593-4.18172,4.32111l-12.89363-2.9272a13.42848,13.42848,0,0,0,.0697-1.67269,18.68285,18.68285,0,0,0-3.34538-10.80278L97.15354,37.776a1.54711,1.54711,0,0,1,.76665-.34847,3.64775,3.64775,0,0,0,1.88177-.697,2.28033,2.28033,0,1,0-2.85751-3.55446h0a2.83777,2.83777,0,0,0-.83634.97574c-.13939.27878-.20909.48787-.34848.76665a1.08387,1.08387,0,0,1-.41817.55756l-2.09086,1.4636a19.02968,19.02968,0,0,0-11.43-5.78471V16.44922c.06969-3.41507.34847-3.83324,3.34537-2.43934m-4.4605,43.908a7.71941,7.71941,0,0,1-1.32421.13939,7.57516,7.57516,0,0,1-1.25452-.06969l-.20909.41817L74.851,64.05112a14.47214,14.47214,0,0,0,4.59989.76664,15.24173,15.24173,0,0,0,4.66958-.76664l-3.06659-5.57563a2.44512,2.44512,0,0,1-.34848-.55756m5.43624-3.69386,6.69075,1.5333a14.4567,14.4567,0,0,1-5.43623,6.621l-2.64843-6.412a10.919,10.919,0,0,0,1.39391-1.74239m-20.142,1.4636,6.69075-1.53329a9.2632,9.2632,0,0,0,1.4636,1.81208l-.20909.41817-2.43933,5.99379a14.35611,14.35611,0,0,1-5.50593-6.69075m54.78052,11.77851c-3.206,3.97263-4.66959,5.85441-7.87558,9.827-3.62415,4.5302-6.55135,8.224-10.17552,12.75424-2.57872,3.27568-4.46049,3.34538-8.71191,3.34538H64.7452c-5.57563,0-5.9938,0-9.40887-4.32111-3.41507-4.25142-6.06349-7.59679-9.40887-11.8482-2.64842-3.34538-3.34537-4.18172-5.99379-7.5271-4.112-5.15745-4.809-7.03923,1.603-8.43313l19.79347-4.4605a19.57137,19.57137,0,0,0,8.29374,10.03612l-.906,2.09086a1.22979,1.22979,0,0,1-.55757.62726,3.16078,3.16078,0,0,0-1.3939,1.4636,2.291,2.291,0,1,0,4.10925,2.0268l.00277-.00563a3.722,3.722,0,0,0,.34848-1.25452,3.39253,3.39253,0,0,0-.0697-.83634,1.25668,1.25668,0,0,1,.13939-.697l1.11513-2.02117a19.496,19.496,0,0,0,6.89983,1.25452A18.48355,18.48355,0,0,0,86.281,68.16314l1.11513,2.02116a1.14057,1.14057,0,0,1,.13938.83634,3.13582,3.13582,0,0,0,.27878,1.95147,2.291,2.291,0,1,0,4.116-2.013l-.004-.00818a2.91136,2.91136,0,0,0-.76665-1.04543,4.23022,4.23022,0,0,0-.697-.48787.86561.86561,0,0,1-.41817-.55756l-.906-2.23025a19.11566,19.11566,0,0,0,8.224-10.03613l21.81463,4.94837c4.39081,1.18482,4.112,2.71812,1.603,5.9241"/><path class="cls-2" d="M81.89025,42.86374V36.0336a14.65542,14.65542,0,0,1,7.45741,3.76355l-5.36654,3.83324c-.06969.0697-.13939.13939-.20909.13939a7.745,7.745,0,0,0-1.88177-.906m11.98759,8.015L87.1871,49.34541a6.59927,6.59927,0,0,0-.55757-2.09086c.0697-.0697.13939-.13939.20909-.13939L91.787,42.72435a14.56211,14.56211,0,0,1,2.16056,7.59679,1.3586,1.3586,0,0,0-.0697.55757M85.16594,14.00988c3.62415,1.74239,6.20288,2.9969,9.827,4.73928,5.01806,2.43934,10.03612,4.87868,15.12388,7.24832,1.25452,5.43623,2.509,10.87246,3.69386,16.3087.76665,3.27568,1.11513,5.01806,1.88177,8.22405,1.18482,5.08776,1.04543,5.50593-4.18172,4.32111l-12.89363-2.9272a13.42848,13.42848,0,0,0,.0697-1.67269,18.68285,18.68285,0,0,0-3.34538-10.80278L97.15354,37.776a1.54711,1.54711,0,0,1,.76665-.34847,3.64775,3.64775,0,0,0,1.88177-.697,2.28033,2.28033,0,1,0-2.85751-3.55446h0a2.83777,2.83777,0,0,0-.83634.97574c-.13939.27878-.20909.48787-.34848.76665a1.08387,1.08387,0,0,1-.41817.55756l-2.09086,1.4636a19.02968,19.02968,0,0,0-11.43-5.78471V16.44922c.06969-3.41507.34847-3.83324,3.34537-2.43934m.97574,40.2142,6.69075,1.5333a14.45665,14.45665,0,0,1-5.43623,6.62105l-2.64843-6.412a10.919,10.919,0,0,0,1.39391-1.74239m-6.76044,10.524V58.05733a8.53982,8.53982,0,0,0,1.32421-.13939,1.74659,1.74659,0,0,0,.27878.48786l3.06659,5.57563a15.24173,15.24173,0,0,1-4.66958.76664m41.399,2.71812c-3.206,3.97263-4.66959,5.85441-7.87557,9.827-3.62416,4.5302-6.55136,8.22405-10.17552,12.75424-2.57873,3.27568-4.4605,3.34538-8.71192,3.34538H79.45093V69.48735a18.48311,18.48311,0,0,0,6.96953-1.32421l1.11512,2.02117a1.14051,1.14051,0,0,1,.13939.83634,3.13577,3.13577,0,0,0,.27878,1.95147,2.291,2.291,0,0,0,4.112-2.02117,2.91112,2.91112,0,0,0-.76665-1.04543,4.23119,4.23119,0,0,0-.697-.48786.86563.86563,0,0,1-.41817-.55757l-.906-2.23024a19.11574,19.11574,0,0,0,8.224-10.03613l21.81463,4.94837c4.25142,1.18481,3.97263,2.71811,1.46361,5.9241"/><path class="cls-1" d="M282.47337,66.62985H270.90394V93.67163H297.876V82.1022H282.47337Zm57.91681.06969V82.1022h-15.333l-.1394-.13938V93.67163h27.04178V66.62984H340.32046ZM270.904,39.58806h11.63913l-.0697-.06969V24.1157h15.333l.0697.13939V12.54628H270.904Zm54.01387-27.04178V24.1157H340.3902V39.58807h11.56943V12.54628Z"/><g class="cls-3"><path class="cls-1" d="M323.52391,39.58806,308.05154,24.1157h16.86627V12.54628H297.876V24.25509l15.40267,15.333ZM309.58484,66.62984H299.33962l12.82394,12.82394L314.812,82.1022H297.876V93.67163h27.04177V81.96281l-7.66648-7.66648Zm30.80534-27.04178V56.45432l-2.64841-2.64842L324.91783,41.05165V51.29686l7.73619,7.66649,7.66648,7.66648h11.63913V39.58806ZM297.876,54.921l-15.333-15.333H270.83426V66.62984h11.63913V49.76358l15.40267,15.40267Z"/></g><path class="cls-1" d="M214.31136,123.15275l-2.92721,3.48476a6.85163,6.85163,0,0,0-5.01807-2.57872,5.59708,5.59708,0,0,0-5.57873,5.61541q.00025.08467.0031.1693a5.57359,5.57359,0,0,0,5.57563,5.8544,7.37016,7.37016,0,0,0,5.01807-2.36963l2.99689,3.13629a12.20262,12.20262,0,0,1-8.224,3.62415,10.09616,10.09616,0,0,1-10.4543-10.24521c0-5.78471,4.5999-10.10582,10.66338-10.10582a11.99471,11.99471,0,0,1,7.94526,3.41507Zm2.43933,16.72687V118.76194h4.94838v21.11768Zm24.53276-7.66648c0,4.73928-3.34536,7.87557-8.36343,7.87557s-8.43314-3.13629-8.43314-7.87557,3.34537-7.80588,8.43314-7.80588c5.01805,0,8.36341,3.06659,8.36341,7.80588Zm-11.8482.0697c0,2.36963,1.39391,3.97263,3.41507,3.97263s3.41506-1.603,3.41506-3.97263-1.3939-3.97263-3.41506-3.97263-3.41509,1.603-3.41509,3.97263Zm29.48111,7.59678H253.968v-2.509a5.43374,5.43374,0,0,1-5.01807,2.71811c-3.34537,0-5.50593-2.29995-5.50593-5.8544v-9.68765h4.94837v8.29374c0,1.81208.97573,2.9272,2.57874,2.9272,1.88178,0,2.99689-1.53329,2.99689-3.62415v-7.59679h4.94837Zm19.37529,0h-4.94837v-2.02116a5.68149,5.68149,0,0,1-4.5999,2.23025c-4.32111,0-7.17861-3.206-7.17861-7.94526,0-4.66959,2.78782-7.80588,7.03924-7.80588a5.66455,5.66455,0,0,1,4.73927,2.23025V118.762h4.94837v21.11767Zm-4.94837-7.59678c0-2.36964-1.39391-3.97263-3.41507-3.97263s-3.41506,1.603-3.41506,3.97263,1.3939,4.04233,3.41506,4.04233C272.01907,136.25547,273.34328,134.65247,273.34328,132.28284Z"/><path class="cls-1" d="M296.34273,139.87962l-9.19979-12.26638v12.26638h-4.73927V119.94676h4.4605l9.19979,12.33607V119.94676h4.73927v19.93286Zm22.02373-10.03612v10.03612h-4.809v-1.74238a5.57927,5.57927,0,0,1-4.66959,2.02116c-3.27569,0-5.29685-2.02116-5.29685-4.809,0-2.92721,2.09086-4.5999,5.9241-4.66959h4.04232v-.20909c0-1.53329-.97573-2.43933-2.99689-2.43933a11.73428,11.73428,0,0,0-4.59989,1.25452l-1.39391-3.27568a15.97514,15.97514,0,0,1,7.10893-1.74239C315.92712,124.33756,318.36646,126.42842,318.36646,129.8435Zm-4.809,4.87867v-1.3939h-3.13629c-1.4636,0-2.23025.48786-2.23025,1.67268,0,1.11513.76665,1.81208,2.16055,1.81208A3.186,3.186,0,0,0,313.55748,134.72217Zm18.12079,4.39081a8.77035,8.77035,0,0,1-4.112,1.04543c-2.99689,0-5.08775-1.67268-5.08775-4.87867v-6.76045h-2.16056v-3.206h2.16056v-4.25141h4.87867v4.25141h4.04232V128.589h-4.04232v5.9938c0,1.18482.48787,1.74239,1.3939,1.67269a5.77256,5.77256,0,0,0,1.88179-.48787Zm7.52708-18.95712a2.547,2.547,0,0,1-2.44329,2.64661q-.0677.00272-.13544.00181a2.6138,2.6138,0,0,1,0-5.22715,2.45048,2.45048,0,0,1,2.57873,2.57871Zm-5.08775,19.72377v-15.333h4.87867v15.333Zm12.54516,0-5.7847-15.333h5.08775l3.27568,10.87248,3.34537-10.87248h4.87869l-5.7847,15.333Zm27.11147-6.34228H362.97146a3.5857,3.5857,0,0,0,3.62416,2.85752,5.47593,5.47593,0,0,0,3.69385-1.5333l2.57873,2.509a8.70247,8.70247,0,0,1-6.69073,2.71811c-5.01807,0-8.15436-3.13629-8.15436-7.80587,0-4.73929,3.27569-7.87558,8.015-7.87558,5.36655,0,8.015,3.55447,7.73616,9.13009Zm-4.73927-2.64842a2.892,2.892,0,0,0-2.99689-3.13629c-1.74238,0-2.85749,1.25452-3.206,3.13629H369.035Z"/><path class="cls-1" d="M393.84647,123.15275l-2.92721,3.48476a6.85156,6.85156,0,0,0-5.01807-2.57872,5.59708,5.59708,0,0,0-5.57873,5.61541q.00026.08467.00311.1693a5.57359,5.57359,0,0,0,5.57562,5.8544,7.37,7.37,0,0,0,5.01807-2.36963l2.99689,3.13629a12.20251,12.20251,0,0,1-8.224,3.62415,10.09617,10.09617,0,0,1-10.45429-10.24521c0-5.78471,4.59987-10.10582,10.66337-10.10582A12.14027,12.14027,0,0,1,393.84647,123.15275Zm17.21476,9.06039c0,4.73928-3.34537,7.87557-8.36344,7.87557s-8.43312-3.13629-8.43312-7.87557,3.34537-7.80588,8.43312-7.80588C407.71586,124.40726,411.06123,127.47385,411.06123,132.21314Zm-11.77853.0697c0,2.36963,1.39391,3.97263,3.41509,3.97263s3.41508-1.603,3.41508-3.97263-1.3939-3.97263-3.41508-3.97263-3.41505,1.603-3.41505,3.97263Zm30.10838-2.09086v9.68764h-4.87867v-8.29374a2.62248,2.62248,0,0,0-2.71813-2.9272c-1.81206,0-2.92721,1.25452-3.13629,3.13629v8.15435h-4.94835v-15.333H418.658v2.509a5.65705,5.65705,0,0,1,5.15747-2.71812c3.34537-.0697,5.57562,2.23025,5.57562,5.78472Z"/><g id="SVGID-2"><path class="cls-1" d="M169.35788,3.55559h.697v141.83h-.697Z"/></g><rect class="cls-1" x="169.35788" y="3.55559" width="0.69695" height="141.82998"/><rect class="cls-1" x="169.35788" y="3.55559" width="0.69695" height="141.82998"/><g class="cls-4"><path class="cls-1" d="M169.35788,3.55559h.697v141.83h-.697Z"/></g><g id="SVGID-3"><path class="cls-1" d="M341.22653,172.741h88.16455v.69695H341.22653Z"/></g><rect class="cls-1" x="341.22653" y="172.74096" width="88.16455" height="0.69695"/><rect class="cls-1" x="341.22653" y="172.74096" width="88.16455" height="0.69695"/><g class="cls-5"><path class="cls-1" d="M341.22653,172.741h88.16455v.69695H341.22653Z"/></g><path class="cls-1" d="M149.12265,182.84205H137.64181V162.9072h11.48084v3.46352h-7.254v4.37691h6.74936v3.46325h-6.74936v5.14053h7.254Z"/><path class="cls-1" d="M163.753,182.84205l-.55883-1.95h-.21848a4.38667,4.38667,0,0,1-1.89495,1.64319,6.47259,6.47259,0,0,1-2.79519.57949,5.3218,5.3218,0,0,1-4.04973-1.43839,5.78686,5.78686,0,0,1-1.3635-4.1383v-9.94019H157.031v8.90387a4.27708,4.27708,0,0,0,.5862,2.47471,2.133,2.133,0,0,0,1.86812.82481,2.80822,2.80822,0,0,0,2.52248-1.16569,7.23121,7.23121,0,0,0,.77731-3.86559v-7.17211h4.1587v15.24418Z"/><path class="cls-1" d="M179.81552,167.31148a6.70051,6.70051,0,0,1,1.40431.12267l-.3135,3.89968a4.77479,4.77479,0,0,0-1.22716-.13635,4.41008,4.41008,0,0,0-3.10225,1.02263,3.69678,3.69678,0,0,0-1.1112,2.86337v7.75857H171.307V167.59787h3.15l.61357,2.56329h.20453a5.732,5.732,0,0,1,1.91535-2.06566A4.72593,4.72593,0,0,1,179.81552,167.31148Z"/><path class="cls-1" d="M197.84119,175.19272a8.19013,8.19013,0,0,1-1.96366,5.82228,7.11859,7.11859,0,0,1-5.46745,2.09975,7.65025,7.65025,0,0,1-3.87258-.96117,6.39789,6.39789,0,0,1-2.57724-2.76137,9.28109,9.28109,0,0,1-.8997-4.19949,8.14579,8.14579,0,0,1,1.94971-5.8086,7.15984,7.15984,0,0,1,5.48141-2.07264,7.6952,7.6952,0,0,1,3.87257.95446,6.3688,6.3688,0,0,1,2.57671,2.7407A9.18979,9.18979,0,0,1,197.84119,175.19272Zm-10.54034,0a6.39684,6.39684,0,0,0,.74349,3.42245,2.65632,2.65632,0,0,0,2.42,1.159,2.61545,2.61545,0,0,0,2.39311-1.15228,6.48868,6.48868,0,0,0,.72953-3.42916,6.29492,6.29492,0,0,0-.7365-3.39535,3.13069,3.13069,0,0,0-4.81308-.00671A6.29306,6.29306,0,0,0,187.30085,175.19272Z"/><path class="cls-1" d="M209.64949,183.11475A5.05544,5.05544,0,0,1,205.436,181.165h-.218q.21741,1.90878.218,2.20872v6.17685h-4.1587V167.59787h3.38139l.58674,1.97709h.19057a4.8117,4.8117,0,0,1,4.32242-2.26348,4.94681,4.94681,0,0,1,4.22687,2.08633,9.65009,9.65009,0,0,1,1.52724,5.79491,11.443,11.443,0,0,1-.71557,4.24056,5.95538,5.95538,0,0,1-2.03882,2.7407A5.22372,5.22372,0,0,1,209.64949,183.11475Zm-1.22716-12.47636a2.62571,2.62571,0,0,0-2.24978.94774,5.44022,5.44022,0,0,0-.73651,3.12936v.44985a6.42269,6.42269,0,0,0,.72953,3.518,2.60381,2.60381,0,0,0,2.311,1.06343q2.79573,0,2.79573-4.60855a6.58288,6.58288,0,0,0-.68873-3.37495A2.35011,2.35011,0,0,0,208.42233,170.63839Z"/><path class="cls-1" d="M225.84838,183.11475a7.86769,7.86769,0,0,1-5.7541-2.03157,7.69229,7.69229,0,0,1-2.07264-5.75411,8.45878,8.45878,0,0,1,1.91589-5.92455,6.8208,6.8208,0,0,1,5.29728-2.093,6.71352,6.71352,0,0,1,5.031,1.84074,6.96266,6.96266,0,0,1,1.79993,5.086v2.01789h-9.83067a4.00174,4.00174,0,0,0,1.04947,2.76808,3.69555,3.69555,0,0,0,2.75439.99525,11.42531,11.42531,0,0,0,2.60462-.28639,13.02981,13.02981,0,0,0,2.56329-.91339v3.21793a9.765,9.765,0,0,1-2.33138.81113A14.6952,14.6952,0,0,1,225.84838,183.11475Zm-.58673-12.84435a2.63675,2.63675,0,0,0-2.0721.83851,3.881,3.881,0,0,0-.85944,2.37942h5.83624a3.46789,3.46789,0,0,0-.80469-2.37942A2.72349,2.72349,0,0,0,225.26165,170.2704Z"/><path class="cls-1" d="M255.57284,182.84205H241.63769v-2.93154l5.00418-5.05867q2.22241-2.27716,2.90416-3.15673a6.94108,6.94108,0,0,0,.98184-1.62923,4.15366,4.15366,0,0,0,.30007-1.55462,2.26532,2.26532,0,0,0-.66135-1.786,2.56593,2.56593,0,0,0-1.76612-.58647,5.0815,5.0815,0,0,0-2.24978.53172,11.62531,11.62531,0,0,0-2.27717,1.51355l-2.29058-2.71333a14.92811,14.92811,0,0,1,2.44089-1.77256,8.96818,8.96818,0,0,1,2.11343-.7977,10.83066,10.83066,0,0,1,2.56329-.27942,7.59152,7.59152,0,0,1,3.2998.68176,5.26288,5.26288,0,0,1,2.22241,1.90891,5.0717,5.0717,0,0,1,.79126,2.80888,6.87487,6.87487,0,0,1-.48421,2.58368,9.92576,9.92576,0,0,1-1.49986,2.475,36.68787,36.68787,0,0,1-3.57947,3.6133l-2.56329,2.41351v.19084h8.68565Z"/><path class="cls-1" d="M271.40348,172.87476q0,5.22225-1.71136,7.73119a5.93742,5.93742,0,0,1-5.2699,2.5088,5.86809,5.86809,0,0,1-5.20173-2.59067q-1.753-2.5904-1.75216-7.64932,0-5.277,1.70439-7.779a6.6276,6.6276,0,0,1,10.46465.11595Q271.40322,167.82951,271.40348,172.87476Zm-9.74907,0a15.50035,15.50035,0,0,0,.634,5.25621,2.19539,2.19539,0,0,0,2.13384,1.5887,2.21783,2.21783,0,0,0,2.12686-1.6091,21.30984,21.30984,0,0,0-.00645-10.506,2.20886,2.20886,0,0,0-4.2478,0A15.48478,15.48478,0,0,0,261.65441,172.87476Z"/><path class="cls-1" d="M287.45207,182.84205H273.51692v-2.93154l5.00418-5.05867q2.2224-2.27716,2.90416-3.15673a6.94067,6.94067,0,0,0,.98183-1.62923,4.15347,4.15347,0,0,0,.30008-1.55462,2.26532,2.26532,0,0,0-.66135-1.786,2.56593,2.56593,0,0,0-1.76612-.58647,5.08157,5.08157,0,0,0-2.24979.53172,11.62556,11.62556,0,0,0-2.27716,1.51355l-2.29059-2.71333a14.92854,14.92854,0,0,1,2.4409-1.77256,8.968,8.968,0,0,1,2.11343-.7977,10.83066,10.83066,0,0,1,2.56329-.27942,7.59144,7.59144,0,0,1,3.29979.68176,5.26276,5.26276,0,0,1,2.22241,1.90891,5.07162,5.07162,0,0,1,.79127,2.80888,6.87487,6.87487,0,0,1-.48421,2.58368,9.92576,9.92576,0,0,1-1.49986,2.475,36.69018,36.69018,0,0,1-3.57947,3.6133l-2.56329,2.41351v.19084h8.68565Z"/><path class="cls-1" d="M299.87394,182.84205h-4.21345V171.30672l.0408-1.89549.06817-2.07237q-1.05,1.05-1.45906,1.37693l-2.29058,1.841-2.03184-2.53617,6.42244-5.11342h3.46352Z"/><rect class="cls-1" x="313.55748" y="172.74096" width="118.06433" height="0.69695"/><g class="cls-6"><path class="cls-1" d="M313.55748,172.741H431.62181v.69695H313.55748Z"/></g><rect class="cls-1" x="5.85237" y="172.74096" width="118.06433" height="0.69695"/><g class="cls-7"><path class="cls-1" d="M5.85237,172.741H123.91669v.69695H5.85237Z"/></g></svg>