<svg xmlns:xlink="http://www.w3.org/1999/xlink" xmlns="http://www.w3.org/2000/svg" version="1.1" fill="none" stroke="none" stroke-linecap="square" stroke-miterlimit="10" viewBox="0 0 720 170"><clipPath id="g32be3ad9086_0_41.0"><path d="m0 0l960.0 0l0 540.0l-960.0 0l0 -540.0z" clip-rule="nonzero"/></clipPath><g clip-path="url(#g32be3ad9086_0_41.0)"><path fill="#ffffff" d="m0 0l960.0 0l0 540.0l-960.0 0z" fill-rule="evenodd"/><path fill="#b6d7a8" d="m9.632545 9.971128l62.33071 0l0 54.708656l-62.33071 0z" fill-rule="evenodd"/><path stroke="#595959" stroke-width="1.0" stroke-linejoin="round" stroke-linecap="butt" d="m9.632545 9.971128l62.33071 0l0 54.708656l-62.33071 0z" fill-rule="evenodd"/><path fill="#000000" d="m42.563164 44.24546l-1.6406212 0l0 -10.453125q-0.59375 0.5625 -1.5625 1.140625q-0.953125 0.5625 -1.71875 0.84375l0 -1.59375q1.375 -0.640625 2.40625 -1.5625q1.03125 -0.9218769 1.453125 -1.7812519l1.0624962 0l0 13.406252z" fill-rule="nonzero"/><path fill="#b6d7a8" d="m98.72777 9.971128l62.330704 0l0 54.708656l-62.330704 0z" fill-rule="evenodd"/><path stroke="#595959" stroke-width="1.0" stroke-linejoin="round" stroke-linecap="butt" d="m98.72777 9.971128l62.330704 0l0 54.708656l-62.330704 0z" fill-rule="evenodd"/><path fill="#000000" d="m134.09589 42.667336l0 1.578125l-8.828125 0q-0.015625 -0.59375 0.1875 -1.140625q0.34375 -0.90625 1.078125 -1.78125q0.75 -0.875 2.15625 -2.015625q2.171875 -1.78125 2.9375 -2.828125q0.765625 -1.046875 0.765625 -1.96875q0 -0.984375 -0.703125 -1.640625q-0.6875 -0.671875 -1.8125 -0.671875q-1.1875 0 -1.90625 0.71875q-0.703125 0.703125 -0.703125 1.953125l-1.6875 -0.171875q0.171875 -1.890625 1.296875 -2.875002q1.140625 -0.984375 3.03125 -0.984375q1.921875 0 3.046875 1.0625q1.125 1.0625019 1.125 2.640627q0 0.796875 -0.328125 1.578125q-0.328125 0.78125 -1.09375 1.640625q-0.75 0.84375 -2.53125 2.34375q-1.46875 1.234375 -1.890625 1.6875q-0.421875 0.4375 -0.6875 0.875l6.546875 0z" fill-rule="nonzero"/><path fill="#b6d7a8" d="m184.57907 9.971128l62.330704 0l0 54.708656l-62.330704 0z" fill-rule="evenodd"/><path stroke="#595959" stroke-width="1.0" stroke-linejoin="round" stroke-linecap="butt" d="m184.57907 9.971128l62.330704 0l0 54.708656l-62.330704 0z" fill-rule="evenodd"/><path fill="#000000" d="m211.33781 40.71421l1.640625 -0.21875q0.28125 1.40625 0.953125 2.015625q0.6875 0.609375 1.65625 0.609375q1.15625 0 1.953125 -0.796875q0.796875 -0.796875 0.796875 -1.984375q0 -1.125 -0.734375 -1.859375q-0.734375 -0.734375 -1.875 -0.734375q-0.46875 0 -1.15625 0.171875l0.1875 -1.4375q0.15625 0.015625 0.265625 0.015625q1.046875 0 1.875 -0.546875q0.84375 -0.546875 0.84375 -1.671875q0 -0.90625 -0.609375 -1.5q-0.609375 -0.59375 -1.578125 -0.59375q-0.953125 0 -1.59375 0.609375q-0.640625 0.59375 -0.8125 1.796875l-1.640625 -0.296875q0.296875 -1.640625 1.359375 -2.546877q1.0625 -0.90625 2.65625 -0.90625q1.09375 0 2.0 0.46875q0.921875 0.46875 1.40625 1.2812519q0.5 0.8125 0.5 1.71875q0 0.859375 -0.46875 1.578125q-0.46875 0.703125 -1.375 1.125q1.1875 0.28125 1.84375 1.140625q0.65625 0.859375 0.65625 2.15625q0 1.734375 -1.28125 2.953125q-1.265625 1.21875 -3.21875 1.21875q-1.765625 0 -2.921875 -1.046875q-1.15625 -1.046875 -1.328125 -2.71875z" fill-rule="nonzero"/><path fill="#ea9999" d="m277.57144 9.971128l62.33072 0l0 54.708656l-62.33072 0z" fill-rule="evenodd"/><path stroke="#595959" stroke-width="1.0" stroke-linejoin="round" stroke-linecap="butt" d="m277.57144 9.971128l62.33072 0l0 54.708656l-62.33072 0z" fill-rule="evenodd"/><path fill="#000000" d="m309.5802 44.24546l0 -3.203125l-5.796875 0l0 -1.5l6.09375 -8.656252l1.34375 0l0 8.656252l1.796875 0l0 1.5l-1.796875 0l0 3.203125l-1.640625 0zm0 -4.703125l0 -6.015625l-4.1875 6.015625l4.1875 0z" fill-rule="nonzero"/><path fill="#b6d7a8" d="m459.65903 9.971128l62.33072 0l0 54.708656l-62.33072 0z" fill-rule="evenodd"/><path stroke="#595959" stroke-width="1.0" stroke-linejoin="round" stroke-linecap="butt" d="m459.65903 9.971128l62.33072 0l0 54.708656l-62.33072 0z" fill-rule="evenodd"/><path fill="#000000" d="m476.04205 40.74546l1.71875 -0.140625q0.1875 1.25 0.875 1.890625q0.703125 0.625 1.6875 0.625q1.1875 0 2.0 -0.890625q0.828125 -0.890625 0.828125 -2.359375q0 -1.40625 -0.796875 -2.21875q-0.78125 -0.8125 -2.0625 -0.8125q-0.78125 0 -1.421875 0.359375q-0.640625 0.359375 -1.0 0.9375l-1.546875 -0.203125l1.296875 -6.859377l6.640625 0l0 1.5625019l-5.328125 0l-0.71875 3.59375q1.203125 -0.84375 2.515625 -0.84375q1.75 0 2.953125 1.21875q1.203125 1.203125 1.203125 3.109375q0 1.8125 -1.046875 3.140625q-1.296875 1.625 -3.515625 1.625q-1.8125 0 -2.96875 -1.015625q-1.15625 -1.03125 -1.3125 -2.71875zm16.547607 3.5l-1.640625 0l0 -10.453125q-0.59375 0.5625 -1.5625 1.140625q-0.953125 0.5625 -1.71875 0.84375l0 -1.59375q1.375 -0.640625 2.40625 -1.5625q1.03125 -0.9218769 1.453125 -1.7812519l1.0625 0l0 13.406252zm4.203827 -6.59375q0 -2.359375 0.484375 -3.796875q0.484375 -1.453125 1.4375 -2.234377q0.96875 -0.78125 2.421875 -0.78125q1.078125 0 1.890625 0.4375q0.8125 0.421875 1.328125 1.2500019q0.53125 0.8125 0.828125 1.984375q0.3125 1.15625 0.3125 3.140625q0 2.359375 -0.484375 3.8125q-0.484375 1.4375 -1.453125 2.234375q-0.953125 0.78125 -2.421875 0.78125q-1.921875 0 -3.03125 -1.390625q-1.3125 -1.671875 -1.3125 -5.4375zm1.671875 0q0 3.296875 0.765625 4.390625q0.78125 1.078125 1.90625 1.078125q1.140625 0 1.90625 -1.09375q0.765625 -1.09375 0.765625 -4.375q0 -3.296875 -0.765625 -4.375q-0.765625 -1.078125 -1.921875 -1.078125q-1.125 0 -1.796875 0.953125q-0.859375 1.21875 -0.859375 4.5z" fill-rule="nonzero"/><path fill="#b6d7a8" d="m545.5103 9.971128l62.33075 0l0 54.708656l-62.33075 0z" fill-rule="evenodd"/><path stroke="#595959" stroke-width="1.0" stroke-linejoin="round" stroke-linecap="butt" d="m545.5103 9.971128l62.33075 0l0 54.708656l-62.33075 0z" fill-rule="evenodd"/><path fill="#000000" d="m562.58606 40.74546l1.71875 -0.140625q0.1875 1.25 0.875 1.890625q0.703125 0.625 1.6875 0.625q1.1875 0 2.0 -0.890625q0.828125 -0.890625 0.828125 -2.359375q0 -1.40625 -0.796875 -2.21875q-0.78125 -0.8125 -2.0625 -0.8125q-0.78125 0 -1.421875 0.359375q-0.640625 0.359375 -1.0 0.9375l-1.546875 -0.203125l1.296875 -6.859377l6.640625 0l0 1.5625019l-5.328125 0l-0.71875 3.59375q1.203125 -0.84375 2.515625 -0.84375q1.75 0 2.953125 1.21875q1.203125 1.203125 1.203125 3.109375q0 1.8125 -1.046875 3.140625q-1.296875 1.625 -3.515625 1.625q-1.8125 0 -2.96875 -1.015625q-1.15625 -1.03125 -1.3125 -2.71875zm16.547607 3.5l-1.640625 0l0 -10.453125q-0.59375 0.5625 -1.5625 1.140625q-0.953125 0.5625 -1.71875 0.84375l0 -1.59375q1.375 -0.640625 2.40625 -1.5625q1.03125 -0.9218769 1.453125 -1.7812519l1.0625 0l0 13.406252zm8.990295 0l-1.640625 0l0 -10.453125q-0.59375 0.5625 -1.5625 1.140625q-0.953125 0.5625 -1.71875 0.84375l0 -1.59375q1.375 -0.640625 2.40625 -1.5625q1.03125 -0.9218769 1.453125 -1.7812519l1.0625 0l0 13.406252z" fill-rule="nonzero"/><path fill="#b6d7a8" d="m638.50275 9.971128l62.33069 0l0 54.708656l-62.33069 0z" fill-rule="evenodd"/><path stroke="#595959" stroke-width="1.0" stroke-linejoin="round" stroke-linecap="butt" d="m638.50275 9.971128l62.33069 0l0 54.708656l-62.33069 0z" fill-rule="evenodd"/><path fill="#000000" d="m654.88574 40.74546l1.71875 -0.140625q0.1875 1.25 0.875 1.890625q0.703125 0.625 1.6875 0.625q1.1875 0 2.0 -0.890625q0.828125 -0.890625 0.828125 -2.359375q0 -1.40625 -0.796875 -2.21875q-0.78125 -0.8125 -2.0625 -0.8125q-0.78125 0 -1.421875 0.359375q-0.640625 0.359375 -1.0 0.9375l-1.546875 -0.203125l1.296875 -6.859377l6.640625 0l0 1.5625019l-5.328125 0l-0.71875 3.59375q1.203125 -0.84375 2.515625 -0.84375q1.75 0 2.953125 1.21875q1.203125 1.203125 1.203125 3.109375q0 1.8125 -1.046875 3.140625q-1.296875 1.625 -3.515625 1.625q-1.8125 0 -2.96875 -1.015625q-1.15625 -1.03125 -1.3125 -2.71875zm16.547607 3.5l-1.640625 0l0 -10.453125q-0.59375 0.5625 -1.5625 1.140625q-0.953125 0.5625 -1.71875 0.84375l0 -1.59375q1.375 -0.640625 2.40625 -1.5625q1.03125 -0.9218769 1.453125 -1.7812519l1.0625 0l0 13.406252zm12.813232 -1.578125l0 1.578125l-8.828125 0q-0.015625 -0.59375 0.1875 -1.140625q0.34375 -0.90625 1.078125 -1.78125q0.75 -0.875 2.15625 -2.015625q2.171875 -1.78125 2.9375 -2.828125q0.765625 -1.046875 0.765625 -1.96875q0 -0.984375 -0.703125 -1.640625q-0.6875 -0.671875 -1.8125 -0.671875q-1.1875 0 -1.90625 0.71875q-0.703125 0.703125 -0.703125 1.953125l-1.6875 -0.171875q0.171875 -1.890625 1.296875 -2.875002q1.140625 -0.984375 3.03125 -0.984375q1.921875 0 3.046875 1.0625q1.125 1.0625019 1.125 2.640627q0 0.796875 -0.328125 1.578125q-0.328125 0.78125 -1.09375 1.640625q-0.75 0.84375 -2.53125 2.34375q-1.46875 1.234375 -1.890625 1.6875q-0.421875 0.4375 -0.6875 0.875l6.546875 0z" fill-rule="nonzero"/><path fill="#000000" fill-opacity="0.0" d="m377.90036 10.624787l68.031525 0l0 38.267715l-68.031525 0z" fill-rule="evenodd"/><path fill="#595959" d="m388.6191 42.664787l0 -3.296875l3.296875 0l0 3.296875l-3.296875 0zm13.3359375 0l0 -3.296875l3.296875 0l0 3.296875l-3.296875 0zm13.3359375 0l0 -3.296875l3.296875 0l0 3.296875l-3.296875 0z" fill-rule="nonzero"/><path fill="#b6d7a8" d="m9.632545 99.55922l62.33071 0l0 54.708664l-62.33071 0z" fill-rule="evenodd"/><path stroke="#595959" stroke-width="1.0" stroke-linejoin="round" stroke-linecap="butt" d="m9.632545 99.55922l62.33071 0l0 54.708664l-62.33071 0z" fill-rule="evenodd"/><path fill="#000000" d="m42.563164 133.83354l-1.6406212 0l0 -10.453117q-0.59375 0.5625 -1.5625 1.140625q-0.953125 0.5625 -1.71875 0.84375l0 -1.59375q1.375 -0.640625 2.40625 -1.5625q1.03125 -0.921875 1.453125 -1.78125l1.0624962 0l0 13.406242z" fill-rule="nonzero"/><path fill="#b6d7a8" d="m98.72777 99.55922l62.330704 0l0 54.708664l-62.330704 0z" fill-rule="evenodd"/><path stroke="#595959" stroke-width="1.0" stroke-linejoin="round" stroke-linecap="butt" d="m98.72777 99.55922l62.330704 0l0 54.708664l-62.330704 0z" fill-rule="evenodd"/><path fill="#000000" d="m134.09589 132.25542l0 1.578125l-8.828125 0q-0.015625 -0.59375 0.1875 -1.140625q0.34375 -0.90625 1.078125 -1.78125q0.75 -0.875 2.15625 -2.015625q2.171875 -1.7812424 2.9375 -2.8281174q0.765625 -1.046875 0.765625 -1.96875q0 -0.984375 -0.703125 -1.640625q-0.6875 -0.671875 -1.8125 -0.671875q-1.1875 0 -1.90625 0.71875q-0.703125 0.703125 -0.703125 1.953125l-1.6875 -0.171875q0.171875 -1.890625 1.296875 -2.875q1.140625 -0.984375 3.03125 -0.984375q1.921875 0 3.046875 1.0625q1.125 1.0625 1.125 2.640625q0 0.796875 -0.328125 1.578125q-0.328125 0.78125 -1.09375 1.640625q-0.75 0.8437424 -2.53125 2.3437424q-1.46875 1.234375 -1.890625 1.6875q-0.421875 0.4375 -0.6875 0.875l6.546875 0z" fill-rule="nonzero"/><path fill="#b6d7a8" d="m184.57907 99.55922l62.330704 0l0 54.708664l-62.330704 0z" fill-rule="evenodd"/><path stroke="#595959" stroke-width="1.0" stroke-linejoin="round" stroke-linecap="butt" d="m184.57907 99.55922l62.330704 0l0 54.708664l-62.330704 0z" fill-rule="evenodd"/><path fill="#000000" d="m211.33781 130.30229l1.640625 -0.21875q0.28125 1.40625 0.953125 2.015625q0.6875 0.609375 1.65625 0.609375q1.15625 0 1.953125 -0.796875q0.796875 -0.796875 0.796875 -1.984375q0 -1.125 -0.734375 -1.859375q-0.734375 -0.7343674 -1.875 -0.7343674q-0.46875 0 -1.15625 0.171875l0.1875 -1.4375q0.15625 0.015625 0.265625 0.015625q1.046875 0 1.875 -0.546875q0.84375 -0.546875 0.84375 -1.671875q0 -0.90625 -0.609375 -1.5q-0.609375 -0.59375 -1.578125 -0.59375q-0.953125 0 -1.59375 0.609375q-0.640625 0.59375 -0.8125 1.796875l-1.640625 -0.296875q0.296875 -1.640625 1.359375 -2.546875q1.0625 -0.90625 2.65625 -0.90625q1.09375 0 2.0 0.46875q0.921875 0.46875 1.40625 1.28125q0.5 0.8125 0.5 1.71875q0 0.859375 -0.46875 1.578125q-0.46875 0.703125 -1.375 1.125q1.1875 0.28125 1.84375 1.140625q0.65625 0.8593674 0.65625 2.1562424q0 1.734375 -1.28125 2.953125q-1.265625 1.21875 -3.21875 1.21875q-1.765625 0 -2.921875 -1.046875q-1.15625 -1.046875 -1.328125 -2.71875z" fill-rule="nonzero"/><path fill="#e6b8af" d="m270.43036 87.59358l62.33072 0l0 54.708664l-62.33072 0z" fill-rule="evenodd"/><path stroke="#595959" stroke-width="1.0" stroke-linejoin="round" stroke-linecap="butt" d="m270.43036 87.59358l62.33072 0l0 54.708664l-62.33072 0z" fill-rule="evenodd"/><path fill="#000000" d="m302.43912 121.86791l0 -3.203125l-5.796875 0l0 -1.5l6.09375 -8.65625l1.34375 0l0 8.65625l1.796875 0l0 1.5l-1.796875 0l0 3.203125l-1.640625 0zm0 -4.703125l0 -6.015625l-4.1875 6.015625l4.1875 0z" fill-rule="nonzero"/><path fill="#b6d7a8" d="m459.65903 99.55922l62.33072 0l0 54.708664l-62.33072 0z" fill-rule="evenodd"/><path stroke="#595959" stroke-width="1.0" stroke-linejoin="round" stroke-linecap="butt" d="m459.65903 99.55922l62.33072 0l0 54.708664l-62.33072 0z" fill-rule="evenodd"/><path fill="#000000" d="m476.04205 130.33354l1.71875 -0.140625q0.1875 1.25 0.875 1.890625q0.703125 0.625 1.6875 0.625q1.1875 0 2.0 -0.890625q0.828125 -0.890625 0.828125 -2.359375q0 -1.40625 -0.796875 -2.2187424q-0.78125 -0.8125 -2.0625 -0.8125q-0.78125 0 -1.421875 0.359375q-0.640625 0.359375 -1.0 0.9375l-1.546875 -0.203125l1.296875 -6.859375l6.640625 0l0 1.5625l-5.328125 0l-0.71875 3.59375q1.203125 -0.84375 2.515625 -0.84375q1.75 0 2.953125 1.21875q1.203125 1.203125 1.203125 3.1093674q0 1.8125 -1.046875 3.140625q-1.296875 1.625 -3.515625 1.625q-1.8125 0 -2.96875 -1.015625q-1.15625 -1.03125 -1.3125 -2.71875zm16.547607 3.5l-1.640625 0l0 -10.453117q-0.59375 0.5625 -1.5625 1.140625q-0.953125 0.5625 -1.71875 0.84375l0 -1.59375q1.375 -0.640625 2.40625 -1.5625q1.03125 -0.921875 1.453125 -1.78125l1.0625 0l0 13.406242zm4.203827 -6.5937424q0 -2.359375 0.484375 -3.796875q0.484375 -1.453125 1.4375 -2.234375q0.96875 -0.78125 2.421875 -0.78125q1.078125 0 1.890625 0.4375q0.8125 0.421875 1.328125 1.25q0.53125 0.8125 0.828125 1.984375q0.3125 1.15625 0.3125 3.140625q0 2.3593674 -0.484375 3.8124924q-0.484375 1.4375 -1.453125 2.234375q-0.953125 0.78125 -2.421875 0.78125q-1.921875 0 -3.03125 -1.390625q-1.3125 -1.671875 -1.3125 -5.4374924zm1.671875 0q0 3.2968674 0.765625 4.3906174q0.78125 1.078125 1.90625 1.078125q1.140625 0 1.90625 -1.09375q0.765625 -1.09375 0.765625 -4.3749924q0 -3.296875 -0.765625 -4.375q-0.765625 -1.078125 -1.921875 -1.078125q-1.125 0 -1.796875 0.953125q-0.859375 1.21875 -0.859375 4.5z" fill-rule="nonzero"/><path fill="#b6d7a8" d="m545.5103 99.55922l62.33075 0l0 54.708664l-62.33075 0z" fill-rule="evenodd"/><path stroke="#595959" stroke-width="1.0" stroke-linejoin="round" stroke-linecap="butt" d="m545.5103 99.55922l62.33075 0l0 54.708664l-62.33075 0z" fill-rule="evenodd"/><path fill="#000000" d="m562.58606 130.33354l1.71875 -0.140625q0.1875 1.25 0.875 1.890625q0.703125 0.625 1.6875 0.625q1.1875 0 2.0 -0.890625q0.828125 -0.890625 0.828125 -2.359375q0 -1.40625 -0.796875 -2.2187424q-0.78125 -0.8125 -2.0625 -0.8125q-0.78125 0 -1.421875 0.359375q-0.640625 0.359375 -1.0 0.9375l-1.546875 -0.203125l1.296875 -6.859375l6.640625 0l0 1.5625l-5.328125 0l-0.71875 3.59375q1.203125 -0.84375 2.515625 -0.84375q1.75 0 2.953125 1.21875q1.203125 1.203125 1.203125 3.1093674q0 1.8125 -1.046875 3.140625q-1.296875 1.625 -3.515625 1.625q-1.8125 0 -2.96875 -1.015625q-1.15625 -1.03125 -1.3125 -2.71875zm16.547607 3.5l-1.640625 0l0 -10.453117q-0.59375 0.5625 -1.5625 1.140625q-0.953125 0.5625 -1.71875 0.84375l0 -1.59375q1.375 -0.640625 2.40625 -1.5625q1.03125 -0.921875 1.453125 -1.78125l1.0625 0l0 13.406242zm8.990295 0l-1.640625 0l0 -10.453117q-0.59375 0.5625 -1.5625 1.140625q-0.953125 0.5625 -1.71875 0.84375l0 -1.59375q1.375 -0.640625 2.40625 -1.5625q1.03125 -0.921875 1.453125 -1.78125l1.0625 0l0 13.406242z" fill-rule="nonzero"/><path fill="#b6d7a8" d="m638.50275 99.55922l62.33069 0l0 54.708664l-62.33069 0z" fill-rule="evenodd"/><path stroke="#595959" stroke-width="1.0" stroke-linejoin="round" stroke-linecap="butt" d="m638.50275 99.55922l62.33069 0l0 54.708664l-62.33069 0z" fill-rule="evenodd"/><path fill="#000000" d="m654.88574 130.33354l1.71875 -0.140625q0.1875 1.25 0.875 1.890625q0.703125 0.625 1.6875 0.625q1.1875 0 2.0 -0.890625q0.828125 -0.890625 0.828125 -2.359375q0 -1.40625 -0.796875 -2.2187424q-0.78125 -0.8125 -2.0625 -0.8125q-0.78125 0 -1.421875 0.359375q-0.640625 0.359375 -1.0 0.9375l-1.546875 -0.203125l1.296875 -6.859375l6.640625 0l0 1.5625l-5.328125 0l-0.71875 3.59375q1.203125 -0.84375 2.515625 -0.84375q1.75 0 2.953125 1.21875q1.203125 1.203125 1.203125 3.1093674q0 1.8125 -1.046875 3.140625q-1.296875 1.625 -3.515625 1.625q-1.8125 0 -2.96875 -1.015625q-1.15625 -1.03125 -1.3125 -2.71875zm16.547607 3.5l-1.640625 0l0 -10.453117q-0.59375 0.5625 -1.5625 1.140625q-0.953125 0.5625 -1.71875 0.84375l0 -1.59375q1.375 -0.640625 2.40625 -1.5625q1.03125 -0.921875 1.453125 -1.78125l1.0625 0l0 13.406242zm12.813232 -1.578125l0 1.578125l-8.828125 0q-0.015625 -0.59375 0.1875 -1.140625q0.34375 -0.90625 1.078125 -1.78125q0.75 -0.875 2.15625 -2.015625q2.171875 -1.7812424 2.9375 -2.8281174q0.765625 -1.046875 0.765625 -1.96875q0 -0.984375 -0.703125 -1.640625q-0.6875 -0.671875 -1.8125 -0.671875q-1.1875 0 -1.90625 0.71875q-0.703125 0.703125 -0.703125 1.953125l-1.6875 -0.171875q0.171875 -1.890625 1.296875 -2.875q1.140625 -0.984375 3.03125 -0.984375q1.921875 0 3.046875 1.0625q1.125 1.0625 1.125 2.640625q0 0.796875 -0.328125 1.578125q-0.328125 0.78125 -1.09375 1.640625q-0.75 0.8437424 -2.53125 2.3437424q-1.46875 1.234375 -1.890625 1.6875q-0.421875 0.4375 -0.6875 0.875l6.546875 0z" fill-rule="nonzero"/><path fill="#000000" fill-opacity="0.0" d="m377.90036 100.212875l68.031525 0l0 38.267715l-68.031525 0z" fill-rule="evenodd"/><path fill="#595959" d="m388.6191 132.25288l0 -3.296875l3.296875 0l0 3.296875l-3.296875 0zm13.3359375 0l0 -3.296875l3.296875 0l0 3.296875l-3.296875 0zm13.3359375 0l0 -3.296875l3.296875 0l0 3.296875l-3.296875 0z" fill-rule="nonzero"/><path fill="#b6d7a8" d="m286.16498 107.09909l62.33072 0l0 54.708664l-62.33072 0z" fill-rule="evenodd"/><path stroke="#595959" stroke-width="1.0" stroke-linejoin="round" stroke-linecap="butt" d="m286.16498 107.09909l62.33072 0l0 54.708664l-62.33072 0z" fill-rule="evenodd"/><path fill="#000000" d="m316.10132 141.37341l0 -3.203125l-5.796875 0l0 -1.5l6.09375 -8.65625l1.34375 0l0 8.65625l1.796875 0l0 1.5l-1.796875 0l0 3.203125l-1.640625 0zm0 -4.703125l0 -6.015625l-4.1875 6.015625l4.1875 0zm5.469452 -6.890625l0 -1.8906174l1.765625 0l0 1.4999924q0 1.21875 -0.28125 1.75q-0.390625 0.75 -1.21875 1.109375l-0.40625 -0.640625q0.484375 -0.203125 0.71875 -0.625q0.25 -0.4375 0.28125 -1.203125l-0.859375 0z" fill-rule="nonzero"/><path fill="#000000" fill-opacity="0.0" d="m33.31242 79.61721l62.330708 0l0 54.70867l-62.330708 0z" fill-rule="evenodd"/><path fill="#000000" d="m54.265545 120.499084l-2.265625 3.953125q-0.0625 0.109375 -0.0625 0.328125q0 0.578125 0.296875 1.078125q0.546875 0.953125 1.4375 0.953125l4.171875 0l-0.046875 -6.3125l-3.53125 0zm-4.34375 2.59375q-0.40625 -0.21875 -0.046875 -0.75l4.453125 -7.703125l0.359375 0.671875l-2.453125 -3.4375l-4.1875 -0.40625l0.765625 -0.015625l-2.0625 3.625q-0.21875 0.40625 -0.21875 0.84375q0 0.4375 0.203125 0.75l3.1875 6.421875zm20.593754 -5.40625l4.578125 0q0.34375 -0.03125 0.859375 -0.578125q0.53125 -0.5625 0.53125 -1.328125q0 -0.421875 -0.171875 -0.734375l-2.09375 -3.640625l-5.484375 3.203125l1.78125 3.078125zm4.40625 2.46875q0.015625 0.421875 -0.5625 0.421875l-8.890625 0l0.34375 -0.640625l-1.734375 3.78125l1.78125 3.875l-0.421875 -0.65625l4.15625 0q0.9375 0 1.4375 -0.859375l3.890625 -5.921875zm-1.6875 7.34375q-1.125 2.03125 -3.484375 2.03125l-2.875 0l0 4.578125l-6.015629 -10.4375l5.968754 -10.4375l0 4.578125l0.8125 0l-2.53125 -4.359375l10.078125 -5.859375l3.625 6.234375q0.515625 0.890625 0.515625 2.0q0 1.109375 -0.515625 1.984375l-5.578125 9.6875zm-28.828129 -9.640625q-0.515625 -0.875 -0.515625 -2.03125q0 -1.109375 0.515625 -2.0l1.421875 -2.484375l-3.984375 -2.265625l12.078125 0l6.046875 10.453125l-3.96875 -2.328125l-0.375 0.65625l5.015625 0l0.046875 11.671875l-7.21875 0q-2.296875 0 -3.46875 -1.984375l-5.59375 -9.6875zm15.546875 -12.875l-2.3125 -3.96875q-0.28125 -0.484375 -1.359375 -0.484375q-1.078125 0 -1.53125 0.78125l-2.09375 3.609375l5.515625 3.140625l1.78125 -3.078125zm-0.03125 -5.015625q0.328125 -0.203125 0.609375 0.265625l4.437504 7.703125l-0.765625 0l4.203125 -0.40625l2.453125 -3.4375l-0.359375 0.65625l-2.109375 -3.5625q-0.46875 -0.828125 -1.40625 -0.828125l-7.062504 -0.390625zm7.281254 -2.203125q2.28125 0 3.453125 2.0l1.46875 2.484375l3.96875 -2.328125l-6.046875 10.46875l-12.093754 0l4.03125 -2.28125l-0.375 -0.65625l-2.53125 4.359375l-10.125 -5.8125l3.609375 -6.234375q1.171875 -2.0 3.453125 -2.0l11.187504 0z" fill-rule="nonzero"/><path fill="#000000" fill-opacity="0.0" d="m125.65651 79.61721l62.330704 0l0 54.70867l-62.330704 0z" fill-rule="evenodd"/><path fill="#000000" d="m146.60963 120.499084l-2.265625 3.953125q-0.0625 0.109375 -0.0625 0.328125q0 0.578125 0.296875 1.078125q0.546875 0.953125 1.4375 0.953125l4.171875 0l-0.046875 -6.3125l-3.53125 0zm-4.34375 2.59375q-0.40625 -0.21875 -0.046875 -0.75l4.453125 -7.703125l0.359375 0.671875l-2.453125 -3.4375l-4.1875 -0.40625l0.765625 -0.015625l-2.0625 3.625q-0.21875 0.40625 -0.21875 0.84375q0 0.4375 0.203125 0.75l3.1875 6.421875zm20.59375 -5.40625l4.578125 0q0.34375 -0.03125 0.859375 -0.578125q0.53125 -0.5625 0.53125 -1.328125q0 -0.421875 -0.171875 -0.734375l-2.09375 -3.640625l-5.484375 3.203125l1.78125 3.078125zm4.40625 2.46875q0.015625 0.421875 -0.5625 0.421875l-8.890625 0l0.34375 -0.640625l-1.734375 3.78125l1.78125 3.875l-0.421875 -0.65625l4.15625 0q0.9375 0 1.4375 -0.859375l3.890625 -5.921875zm-1.6875 7.34375q-1.125 2.03125 -3.484375 2.03125l-2.875 0l0 4.578125l-6.015625 -10.4375l5.96875 -10.4375l0 4.578125l0.8125 0l-2.53125 -4.359375l10.078125 -5.859375l3.625 6.234375q0.515625 0.890625 0.515625 2.0q0 1.109375 -0.515625 1.984375l-5.578125 9.6875zm-28.828125 -9.640625q-0.515625 -0.875 -0.515625 -2.03125q0 -1.109375 0.515625 -2.0l1.421875 -2.484375l-3.984375 -2.265625l12.078125 0l6.046875 10.453125l-3.96875 -2.328125l-0.375 0.65625l5.015625 0l0.046875 11.671875l-7.21875 0q-2.296875 0 -3.46875 -1.984375l-5.59375 -9.6875zm15.546875 -12.875l-2.3125 -3.96875q-0.28125 -0.484375 -1.359375 -0.484375q-1.078125 0 -1.53125 0.78125l-2.09375 3.609375l5.515625 3.140625l1.78125 -3.078125zm-0.03125 -5.015625q0.328125 -0.203125 0.609375 0.265625l4.4375 7.703125l-0.765625 0l4.203125 -0.40625l2.453125 -3.4375l-0.359375 0.65625l-2.109375 -3.5625q-0.46875 -0.828125 -1.40625 -0.828125l-7.0625 -0.390625zm7.28125 -2.203125q2.28125 0 3.453125 2.0l1.46875 2.484375l3.96875 -2.328125l-6.046875 10.46875l-12.09375 0l4.03125 -2.28125l-0.375 -0.65625l-2.53125 4.359375l-10.125 -5.8125l3.609375 -6.234375q1.171875 -2.0 3.453125 -2.0l11.1875 0z" fill-rule="nonzero"/><path fill="#000000" fill-opacity="0.0" d="m211.50534 79.61721l62.33069 0l0 54.70867l-62.33069 0z" fill-rule="evenodd"/><path fill="#000000" d="m232.45847 120.499084l-2.265625 3.953125q-0.0625 0.109375 -0.0625 0.328125q0 0.578125 0.296875 1.078125q0.546875 0.953125 1.4375 0.953125l4.171875 0l-0.046875 -6.3125l-3.53125 0zm-4.34375 2.59375q-0.40625 -0.21875 -0.046875 -0.75l4.453125 -7.703125l0.359375 0.671875l-2.453125 -3.4375l-4.1875 -0.40625l0.765625 -0.015625l-2.0625 3.625q-0.21875 0.40625 -0.21875 0.84375q0 0.4375 0.203125 0.75l3.1875 6.421875zm20.59375 -5.40625l4.578125 0q0.34375 -0.03125 0.859375 -0.578125q0.53125 -0.5625 0.53125 -1.328125q0 -0.421875 -0.171875 -0.734375l-2.09375 -3.640625l-5.484375 3.203125l1.78125 3.078125zm4.40625 2.46875q0.015625 0.421875 -0.5625 0.421875l-8.890625 0l0.34375 -0.640625l-1.734375 3.78125l1.78125 3.875l-0.421875 -0.65625l4.15625 0q0.9375 0 1.4375 -0.859375l3.890625 -5.921875zm-1.6875 7.34375q-1.125 2.03125 -3.484375 2.03125l-2.875 0l0 4.578125l-6.015625 -10.4375l5.96875 -10.4375l0 4.578125l0.8125 0l-2.53125 -4.359375l10.078125 -5.859375l3.625 6.234375q0.515625 0.890625 0.515625 2.0q0 1.109375 -0.515625 1.984375l-5.578125 9.6875zm-28.828125 -9.640625q-0.515625 -0.875 -0.515625 -2.03125q0 -1.109375 0.515625 -2.0l1.421875 -2.484375l-3.984375 -2.265625l12.078125 0l6.046875 10.453125l-3.96875 -2.328125l-0.375 0.65625l5.015625 0l0.046875 11.671875l-7.21875 0q-2.296875 0 -3.46875 -1.984375l-5.59375 -9.6875zm15.546875 -12.875l-2.3125 -3.96875q-0.28125 -0.484375 -1.359375 -0.484375q-1.078125 0 -1.53125 0.78125l-2.09375 3.609375l5.515625 3.140625l1.78125 -3.078125zm-0.03125 -5.015625q0.328125 -0.203125 0.609375 0.265625l4.4375 7.703125l-0.765625 0l4.203125 -0.40625l2.453125 -3.4375l-0.359375 0.65625l-2.109375 -3.5625q-0.46875 -0.828125 -1.40625 -0.828125l-7.0625 -0.390625zm7.28125 -2.203125q2.28125 0 3.453125 2.0l1.46875 2.484375l3.96875 -2.328125l-6.046875 10.46875l-12.09375 0l4.03125 -2.28125l-0.375 -0.65625l-2.53125 4.359375l-10.125 -5.8125l3.609375 -6.234375q1.171875 -2.0 3.453125 -2.0l11.1875 0z" fill-rule="nonzero"/><path fill="#000000" fill-opacity="0.0" d="m487.5825 79.61721l62.33072 0l0 54.70867l-62.33072 0z" fill-rule="evenodd"/><path fill="#000000" d="m508.5356 120.499084l-2.265625 3.953125q-0.0625 0.109375 -0.0625 0.328125q0 0.578125 0.296875 1.078125q0.546875 0.953125 1.4375 0.953125l4.1718445 0l-0.046875 -6.3125l-3.5312195 0zm-4.34375 2.59375q-0.40625 -0.21875 -0.046875 -0.75l4.453125 -7.703125l0.359375 0.671875l-2.453125 -3.4375l-4.1875 -0.40625l0.765625 -0.015625l-2.0625 3.625q-0.21875 0.40625 -0.21875 0.84375q0 0.4375 0.203125 0.75l3.1875 6.421875zm20.59372 -5.40625l4.578125 0q0.34375 -0.03125 0.859375 -0.578125q0.53125 -0.5625 0.53125 -1.328125q0 -0.421875 -0.171875 -0.734375l-2.09375 -3.640625l-5.484375 3.203125l1.78125 3.078125zm4.40625 2.46875q0.015625 0.421875 -0.5625 0.421875l-8.890625 0l0.34375 -0.640625l-1.734375 3.78125l1.78125 3.875l-0.421875 -0.65625l4.15625 0q0.9375 0 1.4375 -0.859375l3.890625 -5.921875zm-1.6875 7.34375q-1.125 2.03125 -3.484375 2.03125l-2.875 0l0 4.578125l-6.015625 -10.4375l5.96875 -10.4375l0 4.578125l0.8125 0l-2.53125 -4.359375l10.078125 -5.859375l3.625 6.234375q0.515625 0.890625 0.515625 2.0q0 1.109375 -0.515625 1.984375l-5.578125 9.6875zm-28.828094 -9.640625q-0.515625 -0.875 -0.515625 -2.03125q0 -1.109375 0.515625 -2.0l1.421875 -2.484375l-3.984375 -2.265625l12.078125 0l6.0468445 10.453125l-3.9687195 -2.328125l-0.375 0.65625l5.0155945 0l0.046875 11.671875l-7.2187195 0q-2.296875 0 -3.46875 -1.984375l-5.59375 -9.6875zm15.5468445 -12.875l-2.3124695 -3.96875q-0.28125 -0.484375 -1.359375 -0.484375q-1.078125 0 -1.53125 0.78125l-2.09375 3.609375l5.5155945 3.140625l1.78125 -3.078125zm-0.03125 -5.015625q0.328125 -0.203125 0.609375 0.265625l4.4375 7.703125l-0.765625 0l4.203125 -0.40625l2.453125 -3.4375l-0.359375 0.65625l-2.109375 -3.5625q-0.46875 -0.828125 -1.40625 -0.828125l-7.0625 -0.390625zm7.28125 -2.203125q2.28125 0 3.453125 2.0l1.46875 2.484375l3.96875 -2.328125l-6.046875 10.46875l-12.09375 0l4.03125 -2.28125l-0.375 -0.65625l-2.53125 4.359375l-10.1249695 -5.8125l3.609375 -6.234375q1.171875 -2.0 3.453125 -2.0l11.1874695 0z" fill-rule="nonzero"/><path fill="#000000" fill-opacity="0.0" d="m579.9241 79.61721l62.33075 0l0 54.70867l-62.33075 0z" fill-rule="evenodd"/><path fill="#000000" d="m600.8772 120.499084l-2.265625 3.953125q-0.0625 0.109375 -0.0625 0.328125q0 0.578125 0.296875 1.078125q0.546875 0.953125 1.4375 0.953125l4.171875 0l-0.046875 -6.3125l-3.53125 0zm-4.34375 2.59375q-0.40625 -0.21875 -0.046875 -0.75l4.453125 -7.703125l0.359375 0.671875l-2.453125 -3.4375l-4.1875 -0.40625l0.765625 -0.015625l-2.0625 3.625q-0.21875 0.40625 -0.21875 0.84375q0 0.4375 0.203125 0.75l3.1875 6.421875zm20.59375 -5.40625l4.578125 0q0.34375 -0.03125 0.859375 -0.578125q0.53125 -0.5625 0.53125 -1.328125q0 -0.421875 -0.171875 -0.734375l-2.09375 -3.640625l-5.484375 3.203125l1.78125 3.078125zm4.40625 2.46875q0.015625 0.421875 -0.5625 0.421875l-8.890625 0l0.34375 -0.640625l-1.734375 3.78125l1.78125 3.875l-0.421875 -0.65625l4.15625 0q0.9375 0 1.4375 -0.859375l3.890625 -5.921875zm-1.6875 7.34375q-1.125 2.03125 -3.484375 2.03125l-2.875 0l0 4.578125l-6.015625 -10.4375l5.96875 -10.4375l0 4.578125l0.8125 0l-2.53125 -4.359375l10.078125 -5.859375l3.625 6.234375q0.515625 0.890625 0.515625 2.0q0 1.109375 -0.515625 1.984375l-5.578125 9.6875zm-28.828125 -9.640625q-0.515625 -0.875 -0.515625 -2.03125q0 -1.109375 0.515625 -2.0l1.421875 -2.484375l-3.984375 -2.265625l12.078125 0l6.046875 10.453125l-3.96875 -2.328125l-0.375 0.65625l5.015625 0l0.046875 11.671875l-7.21875 0q-2.296875 0 -3.46875 -1.984375l-5.59375 -9.6875zm15.546875 -12.875l-2.3125 -3.96875q-0.28125 -0.484375 -1.359375 -0.484375q-1.078125 0 -1.53125 0.78125l-2.09375 3.609375l5.515625 3.140625l1.78125 -3.078125zm-0.03125 -5.015625q0.328125 -0.203125 0.609375 0.265625l4.4375 7.703125l-0.765625 0l4.203125 -0.40625l2.453125 -3.4375l-0.359375 0.65625l-2.109375 -3.5625q-0.46875 -0.828125 -1.40625 -0.828125l-7.0625 -0.390625zm7.28125 -2.203125q2.28125 0 3.453125 2.0l1.46875 2.484375l3.96875 -2.328125l-6.046875 10.46875l-12.09375 0l4.03125 -2.28125l-0.375 -0.65625l-2.53125 4.359375l-10.125 -5.8125l3.609375 -6.234375q1.171875 -2.0 3.453125 -2.0l11.1875 0z" fill-rule="nonzero"/><path fill="#000000" fill-opacity="0.0" d="m672.2657 79.61721l62.33075 0l0 54.70867l-62.33075 0z" fill-rule="evenodd"/><path fill="#000000" d="m693.2188 120.499084l-2.265625 3.953125q-0.0625 0.109375 -0.0625 0.328125q0 0.578125 0.296875 1.078125q0.546875 0.953125 1.4375 0.953125l4.171875 0l-0.046875 -6.3125l-3.53125 0zm-4.34375 2.59375q-0.40625 -0.21875 -0.046875 -0.75l4.453125 -7.703125l0.359375 0.671875l-2.453125 -3.4375l-4.1875 -0.40625l0.765625 -0.015625l-2.0625 3.625q-0.21875 0.40625 -0.21875 0.84375q0 0.4375 0.203125 0.75l3.1875 6.421875zm20.59375 -5.40625l4.578125 0q0.34375 -0.03125 0.859375 -0.578125q0.53125 -0.5625 0.53125 -1.328125q0 -0.421875 -0.171875 -0.734375l-2.09375 -3.640625l-5.484375 3.203125l1.78125 3.078125zm4.40625 2.46875q0.015625 0.421875 -0.5625 0.421875l-8.890625 0l0.34375 -0.640625l-1.734375 3.78125l1.78125 3.875l-0.421875 -0.65625l4.15625 0q0.9375 0 1.4375 -0.859375l3.890625 -5.921875zm-1.6875 7.34375q-1.125 2.03125 -3.484375 2.03125l-2.875 0l0 4.578125l-6.015625 -10.4375l5.96875 -10.4375l0 4.578125l0.8125 0l-2.53125 -4.359375l10.078125 -5.859375l3.625 6.234375q0.515625 0.890625 0.515625 2.0q0 1.109375 -0.515625 1.984375l-5.578125 9.6875zm-28.828125 -9.640625q-0.515625 -0.875 -0.515625 -2.03125q0 -1.109375 0.515625 -2.0l1.421875 -2.484375l-3.984375 -2.265625l12.078125 0l6.046875 10.453125l-3.96875 -2.328125l-0.375 0.65625l5.015625 0l0.046875 11.671875l-7.21875 0q-2.296875 0 -3.46875 -1.984375l-5.59375 -9.6875zm15.546875 -12.875l-2.3125 -3.96875q-0.28125 -0.484375 -1.359375 -0.484375q-1.078125 0 -1.53125 0.78125l-2.09375 3.609375l5.515625 3.140625l1.78125 -3.078125zm-0.03125 -5.015625q0.328125 -0.203125 0.609375 0.265625l4.4375 7.703125l-0.765625 0l4.203125 -0.40625l2.453125 -3.4375l-0.359375 0.65625l-2.109375 -3.5625q-0.46875 -0.828125 -1.40625 -0.828125l-7.0625 -0.390625zm7.28125 -2.203125q2.28125 0 3.453125 2.0l1.46875 2.484375l3.96875 -2.328125l-6.046875 10.46875l-12.09375 0l4.03125 -2.28125l-0.375 -0.65625l-2.53125 4.359375l-10.125 -5.8125l3.609375 -6.234375q1.171875 -2.0 3.453125 -2.0l11.1875 0z" fill-rule="nonzero"/></g></svg>