<svg id="Layer_1" data-name="Layer 1" xmlns="http://www.w3.org/2000/svg" viewBox="0 0 215 127"><defs><style>.cls-1{fill:transparent;}.cls-2{fill:#57565a;}</style></defs><title>kubernetes.io-logos</title><rect class="cls-1" x="-3.37342" y="-3.34411" width="223.25536" height="134.51136"/><path class="cls-2" d="M81.14242,56.12567,77.99668,64.0731h6.29149l-3.14575-7.94743Zm7.0534,17.78238-2.58263-6.49093h-8.9411L74.089,73.90805h-3.775l9.17231-23.114h3.31256l9.17318,23.114Z"/><path class="cls-2" d="M102.9876,62.3189a2.97367,2.97367,0,0,0-2.74772-1.35853A2.91125,2.91125,0,0,0,97.4913,62.3189a3.7299,3.7299,0,0,0-.43087,1.48937v4.23808A3.73648,3.73648,0,0,0,97.4913,69.537a3.40988,3.40988,0,0,0,5.4963,0,7.0611,7.0611,0,0,0,.66165-3.60929,7.3468,7.3468,0,0,0-.66165-3.60884Zm2.94694,8.8744a6.31949,6.31949,0,0,1-5.69466,3.07919,6.89537,6.89537,0,0,1-3.17945-.72845v7.64965H93.68261v-23.379h3.37782v.49738a6.8926,6.8926,0,0,1,3.17945-.72842,6.31935,6.31935,0,0,1,5.69466,3.079,10.006,10.006,0,0,1,1.09252,5.29783,10.16391,10.16391,0,0,1-1.09252,5.23285Z"/><path class="cls-2" d="M118.79367,62.3189a2.97667,2.97667,0,0,0-2.74944-1.35853,2.9108,2.9108,0,0,0-2.74859,1.35853,3.75853,3.75853,0,0,0-.43,1.48937v4.23808a3.76517,3.76517,0,0,0,.43,1.49068,3.41159,3.41159,0,0,0,5.498,0,7.07027,7.07027,0,0,0,.66078-3.60929,7.35645,7.35645,0,0,0-.66078-3.60884Zm2.94608,8.8744a6.32,6.32,0,0,1-5.69552,3.07919,6.88941,6.88941,0,0,1-3.1786-.72845v7.64965h-3.3778v-23.379h3.3778v.49738a6.88664,6.88664,0,0,1,3.1786-.72842,6.31981,6.31981,0,0,1,5.69552,3.079,10.00267,10.00267,0,0,1,1.093,5.29783,10.16449,10.16449,0,0,1-1.093,5.23285Z"/><path class="cls-2" d="M132.96442,54.20565h-3.80825v16.259h3.80825c6.58968,0,6.35717-2.25263,6.35717-8.113,0-5.8944.23251-8.14595-6.35717-8.14595Zm9.60232,13.179c-.828,5.53-4.6687,6.52343-9.60232,6.52343h-7.31875v-23.114h7.31875c4.93362,0,8.7743.96057,9.60232,6.52326a36.3302,36.3302,0,0,1,.26577,5.03426,36.58042,36.58042,0,0,1-.26577,5.033Z"/><polygon class="cls-2" points="146.109 73.908 146.109 57.55 149.52 57.55 149.52 73.908 146.109 73.908 146.109 73.908"/><polygon class="cls-2" points="146.109 54.565 146.109 50.638 149.52 50.638 149.52 54.565 146.109 54.565 146.109 54.565"/><path class="cls-2" d="M161.67111,61.45749a3.97853,3.97853,0,0,0-2.185-.66277c-1.35871,0-3.08048.79467-3.08048,2.352V73.90805h-3.30952V57.71553h3.30952v.49609a7.36373,7.36373,0,0,1,3.08048-.662,8.37517,8.37517,0,0,1,3.676.86135l-1.491,3.04647Z"/><path class="cls-2" d="M173.35993,62.25243a3.00221,3.00221,0,0,0-2.71661-1.39145,3.30382,3.30382,0,0,0-3.609,2.98125h6.72194a4.32873,4.32873,0,0,0-.3963-1.5898ZM166.934,67.11957a5.0516,5.0516,0,0,0,.66295,2.352,3.97682,3.97682,0,0,0,3.345,1.48937,4.29333,4.29333,0,0,0,3.44307-1.55606l2.71705,2.01943a7.84563,7.84563,0,0,1-6.12728,2.78251,7.20688,7.20688,0,0,1-6.22535-2.94833,9.72791,9.72791,0,0,1-1.2589-5.397,9.71813,9.71813,0,0,1,1.2589-5.39724,6.77573,6.77573,0,0,1,5.92674-2.88061,6.353,6.353,0,0,1,5.5313,2.91333c1.19191,1.78819,1.02553,4.53689.99181,6.62261Z"/><path class="cls-2" d="M186.53109,74.17309c-4.70242,0-7.48386-3.54363-7.48386-8.411,0-4.90111,2.78144-8.44475,7.48386-8.44475,2.31728,0,3.84152.62923,6.2258,3.17962l-2.48411,2.18509c-1.78787-1.92-2.51607-2.18509-3.74169-2.18509a3.67433,3.67433,0,0,0-3.14532,1.49064,6.08445,6.08445,0,0,0-.86174,3.77449,6.04264,6.04264,0,0,0,.86174,3.74221,3.59542,3.59542,0,0,0,3.14532,1.48939c1.22562,0,1.95382-.26505,3.74169-2.15137l2.48411,2.18534c-2.38428,2.51638-3.90852,3.14543-6.2258,3.14543Z"/><path class="cls-2" d="M194.70206,57.54967V53.72892l3.24471-.55054v4.37129h2.88082v3.04669h-2.88082V69.6035a2.65978,2.65978,0,0,0,.03327.7282.3886.3886,0,0,0,.3963.23233h2.0878v3.344h-2.0878a3.50427,3.50427,0,0,1-3.07832-1.655,4.8599,4.8599,0,0,1-.596-2.64952V57.54967Z"/><polygon class="cls-2" points="16.87 77.995 30.665 71.993 37.34 52.213 30.585 41.486 16.87 77.995 16.87 77.995"/><polygon class="cls-2" points="30.277 38.06 47.2 64.828 57.151 60.51 41.284 38.06 30.277 38.06 30.277 38.06"/><polygon class="cls-2" points="64.356 59.132 14.131 80.907 24.836 88.213 58.498 73.908 64.356 59.132 64.356 59.132"/></svg>