<svg id="Layer_1" data-name="Layer 1" xmlns="http://www.w3.org/2000/svg" viewBox="0 0 215 127"><defs><style>.cls-1{fill:transparent;}.cls-2{fill:#900;}.cls-3{fill:#069;}.cls-4{fill:#396;}.cls-5{fill:#484848;}</style></defs><title>kubernetes.io-logos2</title><rect class="cls-1" x="-3.75123" y="-4.36563" width="223.25536" height="134.51136"/><circle id="circle3" class="cls-2" cx="107.84735" cy="21.48597" r="15.77727"/><path id="path5" class="cls-3" d="M139.7013,18.0353l-8.93976,8.9394a34.71,34.71,0,1,1-45.8277,0l-8.93975-8.93975a47.33269,47.33269,0,1,0,63.70721.00035Z"/><path id="path7" class="cls-4" d="M104.69189,46.73345,89.41109,31.45229a28.38989,28.38989,0,0,0,15.2808,49.812Zm21.59242-15.28116L111.00315,46.7331V81.26427a28.39011,28.39011,0,0,0,15.28116-49.812Z"/><path id="path9" class="cls-5" d="M170.3688,119.11393h-4.10315l-1.08337-2.69545H159.411l-1.103,2.69545h-4.10314l5.87686-13.29007h4.42955Zm-6.10686-5.00735-1.94656-4.85378-1.9648,4.85378Zm-11.848,5.00735h-3.99937V105.82386h3.999v13.29007Zm-6.49357-6.40066a6.31385,6.31385,0,0,1-.74329,3.27677,7.01233,7.01233,0,0,1-1.74987,2.003,6.32532,6.32532,0,0,1-3.99445,1.12088h-7.16393V105.82387h5.51678a14.9088,14.9088,0,0,1,2.13134.13008,9.38954,9.38954,0,0,1,1.59455.365,6.28678,6.28678,0,0,1,1.20678.52942,6.20368,6.20368,0,0,1,.89089.63,6.10431,6.10431,0,0,1,1.19346,1.31337,6.40745,6.40745,0,0,1,.81516,1.75478A7.42171,7.42171,0,0,1,145.92035,112.71327Zm-4.0758-.1725a4.43822,4.43822,0,0,0-.61812-2.5247,3.02773,3.02773,0,0,0-1.48516-1.21205,5.25783,5.25783,0,0,0-1.76775-.30678h-1.7057v7.86689h1.7057a4.88661,4.88661,0,0,0,2.7214-.74714Q141.84454,114.86915,141.84455,112.54077Zm-12.2684,6.57316H119.566V105.82386h9.84712v2.67337H123.565v2.4325h5.57919v2.67337H123.565v2.83815h6.01113Zm-13.38193,0h-3.99936v-7.70246l-3.61614,4.45935h-.3166l-3.62632-4.45935v7.70246h-3.88962V105.82386h3.63052l4.08632,4.98562,4.10524-4.98562h3.62632l-.00036,13.29007Zm-18.80965,0H93.38591V105.82386h3.99866Zm-5.76291,0h-4.8892l-5.081-6.22326v6.22326H77.65282V105.82386h3.99866v5.94978l4.81312-5.94978H90.817l-4.9467,6.22325Zm-17.34132,0h-3.999V105.82386h3.999v13.29007Zm-5.859-13.29041-5.752,13.46537h-2.32L56.898,111.455l-3.53761,7.83394H51.02114l-5.637-13.46537h4.15118l2.761,7.36272,3.16351-7.36272h2.86656l3.10567,7.36272,2.88548-7.36272Z"/></svg>