<svg id="Layer_1" data-name="Layer 1" xmlns="http://www.w3.org/2000/svg" viewBox="0 0 215 127"><defs><style>.cls-1{fill:#fbfbfb;}.cls-2{fill:#0b5ed7;}</style></defs><title>kubernetes.io-logos2</title><rect class="cls-1" x="-3.35417" y="-4.36563" width="223.25536" height="134.51136"/><g id="layer1"><g id="g2851"><g id="g2853"><path id="path2859" class="cls-2" d="M78.15934,46.64334H68.28353V59.503H58.00314V46.64334H48.12733V78.99717h9.87581V66.27081H68.28353V78.99717h9.87581Zm34.35383,25.85272V46.64334h-9.87581V78.99717h17.85736l1.48506-6.50112h-9.46661ZM95.33626,46.64334H85.46045V78.99717h9.87581Zm40.03656,0h-9.87121V78.99717h9.87121Zm48.68938,8.25741c0-1.7609,1.76092-2.5747,4.59767-2.5747a24.7387,24.7387,0,0,1,8.79536,1.63217l-.8092-7.04364a38.62324,38.62324,0,0,0-9.062-.94712c-7.98156,0-13.393,3.14941-13.393,9.74708,0,11.37005,15.42519,9.07121,15.42519,14.34934,0,2.02757-1.49424,3.108-5.1448,3.108a29.53736,29.53736,0,0,1-11.22751-2.5701l1.085,7.44824a32.59635,32.59635,0,0,0,10.2804,1.623c8.24823,0,15.01141-2.708,15.01141-10.83212,0-10.82293-15.55854-8.79536-15.55854-13.94016M156.20485,71.28227c9.19075,0,15.01142-4.7402,15.01142-12.99762,0-9.06661-6.22067-12.31717-16.36771-12.31717a111.49549,111.49549,0,0,0-12.03671.67586V78.99717h9.8758v-7.7149h3.5172Zm5.27352-12.8597c0,4.19308-2.02756,7.039-7.17236,7.039h-1.61839v-13.37c.57471-.03219,1.11263-.03219,1.61839-.03219,4.869,0,7.17236,2.29884,7.17236,6.36318M29.19408,71.28227c9.19535,0,15.01141-4.7402,15.01141-12.99762,0-9.06661-6.22066-12.31717-16.36313-12.31717a111.58362,111.58362,0,0,0-12.04131.67586V78.99717h9.87581v-7.7149Zm5.27814-12.8597c0,4.19308-2.03218,7.039-7.17238,7.039h-1.623v-13.37c.57471-.03219,1.11724-.03219,1.623-.03219,4.86894,0,7.17238,2.29884,7.17238,6.36318"/></g></g></g></svg>