<?xml version="1.0" encoding="UTF-8" standalone="no" ?>
<!DOCTYPE svg PUBLIC "-//W3C//DTD SVG 1.1//EN" "http://www.w3.org/Graphics/SVG/1.1/DTD/svg11.dtd">
<svg xmlns="http://www.w3.org/2000/svg" xmlns:xlink="http://www.w3.org/1999/xlink" version="1.1" width="230" height="140" viewBox="0 0 230 140" xml:space="preserve">
<desc>Created with Fabric.js 5.2.4</desc>
<defs>
</defs>
<rect x="0" y="0" width="100%" height="100%" fill="transparent"></rect>
<g transform="matrix(1 0 0 1 115 70)" id="ce8393e4-7a74-4f33-a699-9058dd0c67b8"  >
<rect style="stroke: none; stroke-width: 1; stroke-dasharray: none; stroke-linecap: butt; stroke-dashoffset: 0; stroke-linejoin: miter; stroke-miterlimit: 4; fill: rgb(255,255,255); fill-rule: nonzero; opacity: 1;" vector-effect="non-scaling-stroke"  x="-115" y="-70" rx="0" ry="0" width="230" height="140" />
</g>
<g transform="matrix(Infinity NaN NaN Infinity 0 0)" id="8e89865f-c98b-4b56-8e3a-d18ce0273b50"  >
</g>
<g transform="matrix(0.8 0 0 0.8 115 70)"  >
<g style="" vector-effect="non-scaling-stroke"   >
		<g transform="matrix(1 0 0 1 0 0)"  >
<path style="stroke: none; stroke-width: 1; stroke-dasharray: none; stroke-linecap: butt; stroke-dashoffset: 0; stroke-linejoin: miter; stroke-miterlimit: 4; fill: rgb(0,0,0); fill-rule: nonzero; opacity: 1;" vector-effect="non-scaling-stroke"  transform=" translate(-90.44, -21.37)" d="M 62.1 0 C 63.9 4.1 65.5 8.3 66.9 12.6 C 69.9 21.2 72.9 29.799999999999997 75.80000000000001 38.5 C 76.30000000000001 40 77.10000000000001 40.4 78.60000000000001 40.4 C 111.70000000000002 40.4 144.9 40.4 178 40.4 C 179 40.4 180.9 39.5 180.9 41.4 C 181 43.5 179 42.5 178 42.5 C 143.7 42.6 109.4 42.6 75.2 42.6 C 71.9 42.6 71.8 42.6 70.7 39.5 C 67.8 31.3 65 23 62.1 14.8 C 62 14.4 61.800000000000004 14 61.4 13.700000000000001 C 60.4 14.600000000000001 60.199999999999996 16 59.8 17.200000000000003 C 57 24.900000000000002 54.3 32.6 51.699999999999996 40.400000000000006 C 51.4 41.900000000000006 49.9 43.00000000000001 48.4 42.7 C 33.099999999999994 42.6 17.7 42.7 2.3999999999999986 42.6 C 1.8999999999999986 42.6 1.4999999999999987 42.6 0.9999999999999987 42.6 C 0.49999999999999867 42.6 -1.3322676295501878e-15 42.2 -1.3322676295501878e-15 41.7 C -1.3322676295501878e-15 41.7 -1.3322676295501878e-15 41.6 -1.3322676295501878e-15 41.6 C -0.10000000000000134 41.1 0.19999999999999868 40.6 0.7999999999999987 40.5 C 0.8999999999999987 40.5 0.9999999999999987 40.5 1.0999999999999988 40.5 C 1.6999999999999988 40.5 2.299999999999999 40.5 2.8999999999999986 40.5 C 17.299999999999997 40.5 31.7 40.5 46.1 40.6 C 47.4 40.800000000000004 48.7 39.9 49 38.6 C 53.2 26.700000000000003 57.3 14.700000000000003 61.3 2.700000000000003 C 61.5 1.8 61.7 1.2 62.1 0 z" stroke-linecap="round" />
</g>
		<g transform="matrix(1 0 0 1 -0.49 1.92)"  >
<path style="stroke: none; stroke-width: 1; stroke-dasharray: none; stroke-linecap: butt; stroke-dashoffset: 0; stroke-linejoin: miter; stroke-miterlimit: 4; fill: rgb(0,0,0); fill-rule: nonzero; opacity: 1;" vector-effect="non-scaling-stroke"  transform=" translate(-89.95, -23.3)" d="M 82.3 14.8 C 82.3 17.3 82.3 19.5 82.3 21.8 C 82.3 26.700000000000003 82.3 31.5 82.3 36.4 C 82.3 37.8 82.1 38.4 80.39999999999999 38.4 C 78.8 38.4 78.8 37.6 78.8 36.4 C 78.8 27.7 78.8 18.9 78.8 10.2 C 78.8 8.7 79.2 8.2 80.7 8.299999999999999 C 86.4 8.499999999999998 84.9 7.299999999999999 87.2 12.5 C 88.9 16.3 90.5 20.1 92.2 23.8 C 92.4 24.5 92.8 25.1 93.3 25.6 C 95.1 22.8 96.1 19.700000000000003 97.39999999999999 16.700000000000003 C 98.39999999999999 14.500000000000004 99.3 12.300000000000002 100.19999999999999 10.100000000000003 C 100.49999999999999 8.900000000000004 101.69999999999999 8.200000000000003 102.89999999999999 8.300000000000002 C 107.39999999999999 8.400000000000002 107.39999999999999 8.300000000000002 107.39999999999999 12.700000000000003 C 107.39999999999999 20.6 107.39999999999999 28.400000000000002 107.39999999999999 36.300000000000004 C 107.39999999999999 37.800000000000004 106.99999999999999 38.400000000000006 105.39999999999999 38.400000000000006 C 101.1 38.300000000000004 101.89999999999999 38.7 101.89999999999999 34.900000000000006 C 101.89999999999999 28.400000000000006 101.89999999999999 21.900000000000006 101.89999999999999 15.300000000000004 C 100.89999999999999 15.300000000000004 100.99999999999999 16.100000000000005 100.8 16.500000000000004 C 98.3 22.700000000000003 95.7 29.000000000000004 93.2 35.2 C 93 35.7 93 36.6 92.2 36.5 C 91.60000000000001 36.5 91.60000000000001 35.7 91.4 35.3 C 88.5 29.099999999999998 86 22.699999999999996 83.4 16.299999999999997 C 83.3 15.7 82.9 15.1 82.3 14.8 z M 11.9 38.6 C 9.3 38.6 6.7 38.2 4.2 37.5 C 3.7 37.4 3.3000000000000003 37.2 2.9000000000000004 37 C 2.3 36.7 2 36 2.2 35.4 C 2.4000000000000004 34.8 3.2 35.199999999999996 3.7 35.3 C 6.800000000000001 35.8 9.9 36.599999999999994 13 36.099999999999994 C 15.8 35.599999999999994 17.2 34.3 17.6 31.799999999999994 C 18.1 28.299999999999994 17.200000000000003 25.999999999999993 14.600000000000001 24.799999999999994 C 12.3 23.699999999999992 9.700000000000001 23.499999999999993 7.300000000000002 22.799999999999994 C 2.9000000000000012 21.599999999999994 1.0000000000000018 19.499999999999993 1.0000000000000018 15.899999999999993 C 1.2 12.1 4 9 7.7 8.4 C 11.9 7.7 16.3 7.9 20.4 9 C 21.099999999999998 9.1 21.599999999999998 9.7 21.7 10.3 C 21.9 11.3 22 12.100000000000001 20.5 11.600000000000001 C 17.7 10.700000000000001 14.7 10.400000000000002 11.8 10.700000000000001 C 8.9 10.9 7.200000000000001 12.3 6.9 14.3 C 6.6000000000000005 16.400000000000002 7.800000000000001 17.5 9.4 18.4 C 11.9 19.4 14.4 20.299999999999997 17 20.9 C 22.4 22.599999999999998 23.9 24.599999999999998 23.6 29.599999999999998 C 23.200000000000003 34.8 20.6 37.8 15.500000000000002 38.5 C 14.4 38.6 13.1 38.6 11.9 38.6 z M 135.7 23.2 C 135.7 18.9 135.7 14.7 135.7 10.399999999999999 C 135.7 8.899999999999999 136 8.2 137.7 8.299999999999999 C 143.1 8.399999999999999 148.39999999999998 8.299999999999999 153.79999999999998 8.299999999999999 C 154.6 8.299999999999999 155.49999999999997 8.2 155.49999999999997 9.399999999999999 C 155.49999999999997 10.599999999999998 154.59999999999997 10.499999999999998 153.79999999999998 10.499999999999998 C 150.1 10.499999999999998 146.39999999999998 10.499999999999998 142.79999999999998 10.499999999999998 C 141.49999999999997 10.499999999999998 140.99999999999997 10.899999999999999 140.99999999999997 12.199999999999998 C 141.09999999999997 14.699999999999998 141.09999999999997 17.299999999999997 140.99999999999997 19.799999999999997 C 140.99999999999997 20.999999999999996 141.39999999999998 21.499999999999996 142.59999999999997 21.4 C 145.39999999999998 21.299999999999997 148.19999999999996 21.4 150.99999999999997 21.4 C 151.79999999999998 21.4 152.89999999999998 21 152.99999999999997 22.4 C 152.99999999999997 23.9 151.79999999999998 23.5 150.99999999999997 23.5 C 148.39999999999998 23.5 145.79999999999998 23.6 143.19999999999996 23.5 C 141.79999999999995 23.5 141.29999999999995 23.9 141.29999999999995 25.3 C 141.39999999999995 28.2 141.39999999999995 31.200000000000003 141.29999999999995 34.1 C 141.29999999999995 35.6 141.89999999999995 35.9 143.19999999999996 35.9 C 146.69999999999996 35.8 150.19999999999996 35.9 153.59999999999997 35.9 C 154.39999999999998 35.9 155.39999999999998 35.6 155.49999999999997 37 C 155.49999999999997 38.4 154.59999999999997 38.2 153.69999999999996 38.2 C 148.29999999999995 38.2 142.89999999999995 38.2 137.39999999999995 38.2 C 135.99999999999994 38.2 135.69999999999996 37.7 135.69999999999996 36.400000000000006 C 135.7 32.2 135.7 27.7 135.7 23.2 L 135.7 23.2 z M 178.7 11.9 C 176.29999999999998 10.8 173.7 10.4 171.1 10.6 C 166.9 11.1 165.1 12.6 164 16.7 C 163.1 20.099999999999998 162.8 23.7 163.1 27.2 C 163.7 33.8 169.1 37.5 175.7 35.8 C 176.2 35.699999999999996 176.7 35.5 177.2 35.4 C 177.79999999999998 35.3 178.5 34.4 178.79999999999998 35.5 C 179.1 36.3 178.7 37.1 177.89999999999998 37.4 C 177.89999999999998 37.4 177.79999999999998 37.4 177.79999999999998 37.4 C 176.39999999999998 37.699999999999996 175.1 38.1 173.7 38.3 C 171.1 38.699999999999996 168.29999999999998 38.699999999999996 165.7 38 C 162.5 37.4 159.79999999999998 35.1 158.7 32 C 156.2 26.1 156.5 19.3 159.5 13.600000000000001 C 161.3 10.100000000000001 164.1 8.200000000000001 168.2 8.200000000000001 C 170.89999999999998 8.200000000000001 173.7 8.000000000000002 176.39999999999998 8.700000000000001 C 178.3 9.2 178.4 9.4 178.7 11.9 z M 124.2 24.5 C 124.2 28.6 124.2 32.6 124.2 36.7 C 124.2 38 123.8 38.400000000000006 122.4 38.400000000000006 C 117.60000000000001 38.300000000000004 118.5 38.900000000000006 118.4 34.50000000000001 C 118.4 27.200000000000006 118.4 19.800000000000008 118.4 12.500000000000007 C 118.4 11.000000000000007 117.9 10.500000000000007 116.5 10.500000000000007 C 114.9 10.600000000000007 113.3 10.500000000000007 111.7 10.500000000000007 C 110.9 10.500000000000007 110.2 10.400000000000007 110.2 9.300000000000008 C 110.2 8.200000000000008 110.9 8.200000000000008 111.7 8.200000000000008 C 118.2 8.200000000000008 124.7 8.200000000000008 131.2 8.200000000000008 C 132 8.200000000000008 132.7 8.300000000000008 132.7 9.400000000000007 C 132.7 10.500000000000007 132 10.500000000000007 131.2 10.500000000000007 C 129.89999999999998 10.500000000000007 128.5 10.500000000000007 127.19999999999999 10.500000000000007 C 124.39999999999999 10.500000000000007 124.39999999999999 10.500000000000007 124.39999999999999 13.200000000000006 C 124.39999999999999 16.900000000000006 124.39999999999999 20.700000000000006 124.39999999999999 24.400000000000006 L 124.2 24.5 z M 27 23.4 C 27 19.099999999999998 27.1 14.899999999999999 27 10.599999999999998 C 27 8.899999999999999 27.5 8.099999999999998 29.3 8.399999999999999 C 29.6 8.399999999999999 30 8.399999999999999 30.3 8.399999999999999 C 32 8.2 32.6 8.799999999999999 32.6 10.599999999999998 C 32.5 18.299999999999997 32.6 26.099999999999998 32.5 33.8 C 32.5 35.699999999999996 33.1 36.199999999999996 34.9 36.099999999999994 C 38.6 35.99999999999999 42.4 36.099999999999994 46.099999999999994 36.099999999999994 C 46.99999999999999 36.099999999999994 47.699999999999996 36.099999999999994 47.699999999999996 37.3 C 47.699999999999996 38.5 46.8 38.4 45.99999999999999 38.4 C 40.199999999999996 38.4 34.49999999999999 38.4 28.699999999999992 38.4 C 27.299999999999994 38.4 26.89999999999999 38 26.89999999999999 36.6 C 27.1 32.2 27 27.8 27 23.4 z" stroke-linecap="round" />
</g>
</g>
</g>
</svg>
