<svg width="1200" height="877" viewBox="0 0 1200 877" fill="none" xmlns="http://www.w3.org/2000/svg">
<rect width="1200" height="877" fill="white"/>
<g filter="url(#filter0_d_449_4246)">
<rect x="122" y="195" width="428" height="597" rx="10" fill="white"/>
</g>
<path d="M154.108 253V239.364H156.6V242.332H156.292C156.684 241.268 157.319 240.465 158.196 239.924C159.092 239.383 160.11 239.112 161.248 239.112C162.35 239.112 163.255 239.308 163.964 239.7C164.674 240.092 165.206 240.699 165.56 241.52C165.915 242.323 166.092 243.331 166.092 244.544V253H163.544V244.684C163.544 243.881 163.442 243.219 163.236 242.696C163.031 242.173 162.704 241.791 162.256 241.548C161.827 241.305 161.276 241.184 160.604 241.184C159.82 241.184 159.13 241.352 158.532 241.688C157.935 242.024 157.468 242.5 157.132 243.116C156.815 243.732 156.656 244.451 156.656 245.272V253H154.108ZM175.928 253.252C174.584 253.252 173.417 252.963 172.428 252.384C171.439 251.805 170.673 250.984 170.132 249.92C169.591 248.856 169.32 247.605 169.32 246.168C169.32 244.731 169.591 243.489 170.132 242.444C170.673 241.38 171.439 240.559 172.428 239.98C173.417 239.401 174.584 239.112 175.928 239.112C177.272 239.112 178.439 239.401 179.428 239.98C180.417 240.559 181.183 241.38 181.724 242.444C182.265 243.489 182.536 244.731 182.536 246.168C182.536 247.605 182.265 248.856 181.724 249.92C181.183 250.984 180.417 251.805 179.428 252.384C178.439 252.963 177.272 253.252 175.928 253.252ZM175.928 251.236C177.16 251.236 178.14 250.807 178.868 249.948C179.596 249.071 179.96 247.811 179.96 246.168C179.96 244.525 179.596 243.275 178.868 242.416C178.14 241.557 177.16 241.128 175.928 241.128C174.715 241.128 173.735 241.557 172.988 242.416C172.26 243.275 171.896 244.525 171.896 246.168C171.896 247.811 172.26 249.071 172.988 249.948C173.735 250.807 174.715 251.236 175.928 251.236ZM191.008 253.252C189.813 253.252 188.759 252.972 187.844 252.412C186.948 251.833 186.248 251.012 185.744 249.948C185.24 248.865 184.988 247.605 184.988 246.168C184.988 244.712 185.231 243.461 185.716 242.416C186.22 241.352 186.92 240.54 187.816 239.98C188.731 239.401 189.795 239.112 191.008 239.112C192.221 239.112 193.267 239.42 194.144 240.036C195.021 240.633 195.609 241.436 195.908 242.444H195.6V233.26H198.148V253H195.628V249.836H195.908C195.628 250.881 195.04 251.712 194.144 252.328C193.267 252.944 192.221 253.252 191.008 253.252ZM191.596 251.236C192.828 251.236 193.808 250.807 194.536 249.948C195.264 249.071 195.628 247.811 195.628 246.168C195.628 244.525 195.264 243.275 194.536 242.416C193.808 241.557 192.828 241.128 191.596 241.128C190.383 241.128 189.403 241.557 188.656 242.416C187.928 243.275 187.564 244.525 187.564 246.168C187.564 247.811 187.928 249.071 188.656 249.948C189.403 250.807 190.383 251.236 191.596 251.236ZM208.533 253.252C207.059 253.252 205.789 252.972 204.725 252.412C203.68 251.833 202.868 251.021 202.289 249.976C201.711 248.912 201.421 247.661 201.421 246.224C201.421 244.805 201.701 243.564 202.261 242.5C202.84 241.436 203.624 240.605 204.613 240.008C205.621 239.411 206.769 239.112 208.057 239.112C209.308 239.112 210.372 239.383 211.249 239.924C212.145 240.465 212.827 241.24 213.293 242.248C213.779 243.237 214.021 244.432 214.021 245.832V246.756H203.409V245.132H212.341L211.865 245.524C211.865 244.068 211.548 242.948 210.913 242.164C210.279 241.361 209.345 240.96 208.113 240.96C207.217 240.96 206.452 241.175 205.817 241.604C205.183 242.015 204.697 242.603 204.361 243.368C204.025 244.115 203.857 244.983 203.857 245.972V246.14C203.857 247.26 204.035 248.203 204.389 248.968C204.763 249.715 205.295 250.284 205.985 250.676C206.676 251.049 207.525 251.236 208.533 251.236C209.336 251.236 210.111 251.115 210.857 250.872C211.623 250.611 212.341 250.209 213.013 249.668L213.797 251.432C213.181 251.992 212.388 252.44 211.417 252.776C210.465 253.093 209.504 253.252 208.533 253.252ZM218.534 253V250.788H223.014V235.472H224.358L219.486 238.524L218.422 236.592L223.742 233.26H225.618V250.788H229.818V253H218.534Z" fill="black"/>
<rect x="286" y="145" width="100" height="100" rx="10" fill="url(#paint0_radial_449_4246)"/>
<rect x="286" y="145" width="100" height="100" rx="10" fill="black" fill-opacity="0.08"/>
<rect x="153" y="287" width="358" height="78" rx="9" fill="white" stroke="url(#paint1_linear_449_4246)" stroke-width="2"/>
<path d="M322.945 204.28C321.396 204.28 320.061 203.991 318.941 203.412C317.821 202.833 316.953 202.012 316.337 200.948C315.74 199.884 315.441 198.624 315.441 197.168C315.441 195.749 315.73 194.508 316.309 193.444C316.906 192.38 317.718 191.549 318.745 190.952C319.79 190.336 320.976 190.028 322.301 190.028C323.608 190.028 324.728 190.308 325.661 190.868C326.594 191.428 327.313 192.221 327.817 193.248C328.34 194.275 328.601 195.497 328.601 196.916V197.952H318.269V195.936H326.137L325.689 196.356C325.689 195.087 325.409 194.116 324.849 193.444C324.289 192.753 323.486 192.408 322.441 192.408C321.657 192.408 320.985 192.595 320.425 192.968C319.884 193.323 319.464 193.836 319.165 194.508C318.885 195.161 318.745 195.945 318.745 196.86V197.056C318.745 198.083 318.904 198.932 319.221 199.604C319.538 200.276 320.014 200.78 320.649 201.116C321.284 201.452 322.068 201.62 323.001 201.62C323.766 201.62 324.532 201.508 325.297 201.284C326.062 201.041 326.762 200.668 327.397 200.164L328.377 202.516C327.724 203.057 326.902 203.487 325.913 203.804C324.924 204.121 323.934 204.28 322.945 204.28ZM337.59 204.28C335.761 204.28 334.398 203.823 333.502 202.908C332.606 201.993 332.158 200.659 332.158 198.904V192.94H329.526V190.308H332.158V186.22H335.658V190.308H339.802V192.94H335.658V198.708C335.658 199.604 335.854 200.276 336.246 200.724C336.638 201.172 337.273 201.396 338.15 201.396C338.411 201.396 338.682 201.368 338.962 201.312C339.242 201.237 339.531 201.163 339.83 201.088L340.362 203.664C340.026 203.851 339.597 204 339.074 204.112C338.57 204.224 338.075 204.28 337.59 204.28ZM342.064 204V184.26H345.564V193.052H345.172C345.583 192.063 346.217 191.316 347.076 190.812C347.953 190.289 348.943 190.028 350.044 190.028C351.145 190.028 352.051 190.233 352.76 190.644C353.469 191.055 354.001 191.68 354.356 192.52C354.711 193.341 354.888 194.387 354.888 195.656V204H351.388V195.824C351.388 195.115 351.295 194.536 351.108 194.088C350.94 193.64 350.669 193.313 350.296 193.108C349.941 192.884 349.484 192.772 348.924 192.772C348.252 192.772 347.664 192.921 347.16 193.22C346.656 193.5 346.264 193.911 345.984 194.452C345.704 194.975 345.564 195.591 345.564 196.3V204H342.064Z" fill="white"/>
<path d="M247.92 335.252C246.894 335.252 245.923 335.168 245.008 335C244.094 334.813 243.254 334.552 242.488 334.216C241.723 333.861 241.032 333.432 240.416 332.928L241.312 330.856C241.928 331.323 242.572 331.724 243.244 332.06C243.916 332.377 244.635 332.62 245.4 332.788C246.166 332.937 247.006 333.012 247.92 333.012C249.563 333.012 250.767 332.713 251.532 332.116C252.316 331.519 252.708 330.735 252.708 329.764C252.708 329.223 252.587 328.765 252.344 328.392C252.102 328.019 251.71 327.701 251.168 327.44C250.627 327.179 249.918 326.964 249.04 326.796L246.072 326.18C244.318 325.807 243.002 325.191 242.124 324.332C241.266 323.473 240.836 322.325 240.836 320.888C240.836 319.712 241.144 318.685 241.76 317.808C242.395 316.912 243.254 316.221 244.336 315.736C245.438 315.251 246.707 315.008 248.144 315.008C249.04 315.008 249.89 315.101 250.692 315.288C251.495 315.456 252.242 315.727 252.932 316.1C253.623 316.455 254.23 316.893 254.752 317.416L253.884 319.404C253.063 318.657 252.186 318.116 251.252 317.78C250.319 317.425 249.274 317.248 248.116 317.248C247.164 317.248 246.334 317.397 245.624 317.696C244.934 317.995 244.392 318.415 244 318.956C243.627 319.479 243.44 320.095 243.44 320.804C243.44 321.663 243.702 322.335 244.224 322.82C244.747 323.305 245.624 323.679 246.856 323.94L249.796 324.528C251.663 324.92 253.044 325.527 253.94 326.348C254.855 327.151 255.312 328.233 255.312 329.596C255.312 330.716 255.014 331.705 254.416 332.564C253.819 333.404 252.96 334.067 251.84 334.552C250.739 335.019 249.432 335.252 247.92 335.252ZM264.725 335.252C263.25 335.252 261.981 334.972 260.917 334.412C259.872 333.833 259.06 333.021 258.481 331.976C257.902 330.912 257.613 329.661 257.613 328.224C257.613 326.805 257.893 325.564 258.453 324.5C259.032 323.436 259.816 322.605 260.805 322.008C261.813 321.411 262.961 321.112 264.249 321.112C265.5 321.112 266.564 321.383 267.441 321.924C268.337 322.465 269.018 323.24 269.485 324.248C269.97 325.237 270.213 326.432 270.213 327.832V328.756H259.601V327.132H268.533L268.057 327.524C268.057 326.068 267.74 324.948 267.105 324.164C266.47 323.361 265.537 322.96 264.305 322.96C263.409 322.96 262.644 323.175 262.009 323.604C261.374 324.015 260.889 324.603 260.553 325.368C260.217 326.115 260.049 326.983 260.049 327.972V328.14C260.049 329.26 260.226 330.203 260.581 330.968C260.954 331.715 261.486 332.284 262.177 332.676C262.868 333.049 263.717 333.236 264.725 333.236C265.528 333.236 266.302 333.115 267.049 332.872C267.814 332.611 268.533 332.209 269.205 331.668L269.989 333.432C269.373 333.992 268.58 334.44 267.609 334.776C266.657 335.093 265.696 335.252 264.725 335.252ZM273.382 335V321.364H275.874V324.612H275.594C275.893 323.492 276.434 322.652 277.218 322.092C278.002 321.513 279.038 321.177 280.326 321.084L281.194 321L281.39 323.212L279.794 323.352C278.562 323.483 277.61 323.884 276.938 324.556C276.285 325.228 275.958 326.152 275.958 327.328V335H273.382ZM288.488 335L282.608 321.364H285.352L290.084 333.012H289.3L294.116 321.364H296.748L290.812 335H288.488ZM298.696 318.088V315.344H301.748V318.088H298.696ZM298.948 335V321.364H301.496V335H298.948ZM311.501 335.252C310.119 335.252 308.925 334.963 307.917 334.384C306.909 333.787 306.134 332.956 305.593 331.892C305.051 330.809 304.781 329.54 304.781 328.084C304.781 326.647 305.051 325.405 305.593 324.36C306.134 323.315 306.909 322.512 307.917 321.952C308.925 321.392 310.119 321.112 311.501 321.112C312.359 321.112 313.199 321.261 314.021 321.56C314.861 321.859 315.551 322.279 316.093 322.82L315.253 324.612C314.711 324.127 314.123 323.763 313.489 323.52C312.854 323.277 312.247 323.156 311.669 323.156C310.306 323.156 309.251 323.585 308.505 324.444C307.758 325.303 307.385 326.525 307.385 328.112C307.385 329.699 307.758 330.949 308.505 331.864C309.251 332.76 310.306 333.208 311.669 333.208C312.247 333.208 312.854 333.087 313.489 332.844C314.123 332.601 314.711 332.228 315.253 331.724L316.093 333.544C315.551 334.085 314.851 334.505 313.993 334.804C313.153 335.103 312.322 335.252 311.501 335.252ZM324.635 335.252C323.16 335.252 321.891 334.972 320.827 334.412C319.782 333.833 318.97 333.021 318.391 331.976C317.812 330.912 317.523 329.661 317.523 328.224C317.523 326.805 317.803 325.564 318.363 324.5C318.942 323.436 319.726 322.605 320.715 322.008C321.723 321.411 322.871 321.112 324.159 321.112C325.41 321.112 326.474 321.383 327.351 321.924C328.247 322.465 328.928 323.24 329.395 324.248C329.88 325.237 330.123 326.432 330.123 327.832V328.756H319.511V327.132H328.443L327.967 327.524C327.967 326.068 327.65 324.948 327.015 324.164C326.38 323.361 325.447 322.96 324.215 322.96C323.319 322.96 322.554 323.175 321.919 323.604C321.284 324.015 320.799 324.603 320.463 325.368C320.127 326.115 319.959 326.983 319.959 327.972V328.14C319.959 329.26 320.136 330.203 320.491 330.968C320.864 331.715 321.396 332.284 322.087 332.676C322.778 333.049 323.627 333.236 324.635 333.236C325.438 333.236 326.212 333.115 326.959 332.872C327.724 332.611 328.443 332.209 329.115 331.668L329.899 333.432C329.283 333.992 328.49 334.44 327.519 334.776C326.567 335.093 325.606 335.252 324.635 335.252ZM337.996 335.252C337.287 335.252 336.587 335.187 335.896 335.056C335.224 334.925 334.599 334.739 334.02 334.496C333.46 334.235 332.965 333.927 332.536 333.572L333.292 331.808C333.74 332.144 334.225 332.433 334.748 332.676C335.271 332.9 335.812 333.068 336.372 333.18C336.932 333.292 337.492 333.348 338.052 333.348C339.079 333.348 339.853 333.161 340.376 332.788C340.899 332.415 341.16 331.92 341.16 331.304C341.16 330.781 340.983 330.38 340.628 330.1C340.292 329.801 339.76 329.577 339.032 329.428L336.428 328.896C335.271 328.635 334.393 328.205 333.796 327.608C333.217 326.992 332.928 326.208 332.928 325.256C332.928 324.416 333.152 323.688 333.6 323.072C334.067 322.437 334.711 321.952 335.532 321.616C336.353 321.28 337.296 321.112 338.36 321.112C338.995 321.112 339.611 321.177 340.208 321.308C340.805 321.439 341.365 321.625 341.888 321.868C342.411 322.111 342.849 322.428 343.204 322.82L342.42 324.556C342.065 324.22 341.664 323.94 341.216 323.716C340.768 323.492 340.301 323.324 339.816 323.212C339.331 323.081 338.845 323.016 338.36 323.016C337.352 323.016 336.587 323.212 336.064 323.604C335.56 323.996 335.308 324.509 335.308 325.144C335.308 325.629 335.457 326.031 335.756 326.348C336.073 326.665 336.568 326.899 337.24 327.048L339.844 327.58C341.057 327.841 341.972 328.261 342.588 328.84C343.204 329.4 343.512 330.165 343.512 331.136C343.512 331.995 343.279 332.732 342.812 333.348C342.364 333.964 341.72 334.44 340.88 334.776C340.059 335.093 339.097 335.252 337.996 335.252ZM354.101 340.04V321.364H356.593V324.5H356.313C356.611 323.473 357.199 322.652 358.077 322.036C358.954 321.42 360.009 321.112 361.241 321.112C362.454 321.112 363.509 321.401 364.405 321.98C365.301 322.54 366.001 323.352 366.505 324.416C367.009 325.461 367.261 326.712 367.261 328.168C367.261 329.605 367.009 330.865 366.505 331.948C366.019 333.012 365.319 333.833 364.405 334.412C363.509 334.972 362.454 335.252 361.241 335.252C360.027 335.252 358.982 334.944 358.105 334.328C357.227 333.712 356.639 332.9 356.341 331.892H356.649V340.04H354.101ZM360.653 333.236C361.885 333.236 362.865 332.807 363.593 331.948C364.321 331.071 364.685 329.811 364.685 328.168C364.685 326.525 364.321 325.275 363.593 324.416C362.865 323.557 361.885 323.128 360.653 323.128C359.421 323.128 358.441 323.557 357.713 324.416C356.985 325.275 356.621 326.525 356.621 328.168C356.621 329.811 356.985 331.071 357.713 331.948C358.441 332.807 359.421 333.236 360.653 333.236ZM374.874 335.252C373.418 335.252 372.326 334.841 371.598 334.02C370.889 333.18 370.534 331.976 370.534 330.408V315.26H373.082V330.212C373.082 330.847 373.166 331.388 373.334 331.836C373.521 332.265 373.782 332.583 374.118 332.788C374.473 332.993 374.912 333.096 375.434 333.096C375.64 333.096 375.845 333.087 376.05 333.068C376.274 333.049 376.48 333.012 376.666 332.956L376.61 335.028C376.312 335.103 376.013 335.159 375.714 335.196C375.434 335.233 375.154 335.252 374.874 335.252ZM383.828 335.252C382.727 335.252 381.803 335.047 381.056 334.636C380.328 334.225 379.787 333.619 379.432 332.816C379.077 332.013 378.9 331.005 378.9 329.792V321.364H381.448V329.792C381.448 330.557 381.551 331.192 381.756 331.696C381.961 332.2 382.279 332.573 382.708 332.816C383.156 333.059 383.716 333.18 384.388 333.18C385.135 333.18 385.788 333.012 386.348 332.676C386.908 332.34 387.347 331.864 387.664 331.248C387.981 330.632 388.14 329.913 388.14 329.092V321.364H390.688V335H388.196V331.92H388.56C388.187 333.003 387.58 333.833 386.74 334.412C385.919 334.972 384.948 335.252 383.828 335.252ZM400.92 340.292C399.707 340.292 398.577 340.143 397.532 339.844C396.487 339.545 395.553 339.088 394.732 338.472L395.544 336.624C396.104 336.997 396.655 337.305 397.196 337.548C397.756 337.809 398.325 337.996 398.904 338.108C399.501 338.22 400.117 338.276 400.752 338.276C402.077 338.276 403.067 337.931 403.72 337.24C404.392 336.568 404.728 335.579 404.728 334.272V331.248H404.98C404.719 332.293 404.131 333.124 403.216 333.74C402.32 334.356 401.275 334.664 400.08 334.664C398.848 334.664 397.775 334.384 396.86 333.824C395.945 333.245 395.236 332.452 394.732 331.444C394.228 330.417 393.976 329.232 393.976 327.888C393.976 326.525 394.228 325.34 394.732 324.332C395.236 323.305 395.945 322.512 396.86 321.952C397.775 321.392 398.848 321.112 400.08 321.112C401.293 321.112 402.348 321.42 403.244 322.036C404.14 322.652 404.719 323.483 404.98 324.528H404.728V321.364H407.22V333.936C407.22 335.336 406.977 336.512 406.492 337.464C406.025 338.416 405.325 339.125 404.392 339.592C403.459 340.059 402.301 340.292 400.92 340.292ZM400.64 332.648C401.891 332.648 402.88 332.219 403.608 331.36C404.336 330.501 404.7 329.344 404.7 327.888C404.7 326.413 404.336 325.256 403.608 324.416C402.88 323.557 401.891 323.128 400.64 323.128C399.389 323.128 398.391 323.557 397.644 324.416C396.916 325.256 396.552 326.413 396.552 327.888C396.552 329.344 396.916 330.501 397.644 331.36C398.391 332.219 399.389 332.648 400.64 332.648ZM411.052 318.088V315.344H414.104V318.088H411.052ZM411.304 335V321.364H413.852V335H411.304ZM417.948 335V321.364H420.44V324.332H420.132C420.524 323.268 421.159 322.465 422.036 321.924C422.932 321.383 423.95 321.112 425.088 321.112C426.19 321.112 427.095 321.308 427.804 321.7C428.514 322.092 429.046 322.699 429.4 323.52C429.755 324.323 429.932 325.331 429.932 326.544V335H427.384V326.684C427.384 325.881 427.282 325.219 427.076 324.696C426.871 324.173 426.544 323.791 426.096 323.548C425.667 323.305 425.116 323.184 424.444 323.184C423.66 323.184 422.97 323.352 422.372 323.688C421.775 324.024 421.308 324.5 420.972 325.116C420.655 325.732 420.496 326.451 420.496 327.272V335H417.948Z" fill="black"/>
<rect x="153" y="427" width="358" height="78" rx="9" fill="white" stroke="url(#paint2_linear_449_4246)" stroke-width="2"/>
<rect x="153" y="587" width="158" height="158" rx="9" fill="white" stroke="#1C1A1A" stroke-width="2"/>
<path d="M201.382 690.04V671.364H203.874V674.5H203.594C203.893 673.473 204.481 672.652 205.358 672.036C206.235 671.42 207.29 671.112 208.522 671.112C209.735 671.112 210.79 671.401 211.686 671.98C212.582 672.54 213.282 673.352 213.786 674.416C214.29 675.461 214.542 676.712 214.542 678.168C214.542 679.605 214.29 680.865 213.786 681.948C213.301 683.012 212.601 683.833 211.686 684.412C210.79 684.972 209.735 685.252 208.522 685.252C207.309 685.252 206.263 684.944 205.386 684.328C204.509 683.712 203.921 682.9 203.622 681.892H203.93V690.04H201.382ZM207.934 683.236C209.166 683.236 210.146 682.807 210.874 681.948C211.602 681.071 211.966 679.811 211.966 678.168C211.966 676.525 211.602 675.275 210.874 674.416C210.146 673.557 209.166 673.128 207.934 673.128C206.702 673.128 205.722 673.557 204.994 674.416C204.266 675.275 203.902 676.525 203.902 678.168C203.902 679.811 204.266 681.071 204.994 681.948C205.722 682.807 206.702 683.236 207.934 683.236ZM223.611 685.252C222.267 685.252 221.101 684.963 220.111 684.384C219.122 683.805 218.357 682.984 217.815 681.92C217.274 680.856 217.003 679.605 217.003 678.168C217.003 676.731 217.274 675.489 217.815 674.444C218.357 673.38 219.122 672.559 220.111 671.98C221.101 671.401 222.267 671.112 223.611 671.112C224.955 671.112 226.122 671.401 227.111 671.98C228.101 672.559 228.866 673.38 229.407 674.444C229.949 675.489 230.219 676.731 230.219 678.168C230.219 679.605 229.949 680.856 229.407 681.92C228.866 682.984 228.101 683.805 227.111 684.384C226.122 684.963 224.955 685.252 223.611 685.252ZM223.611 683.236C224.843 683.236 225.823 682.807 226.551 681.948C227.279 681.071 227.643 679.811 227.643 678.168C227.643 676.525 227.279 675.275 226.551 674.416C225.823 673.557 224.843 673.128 223.611 673.128C222.398 673.128 221.418 673.557 220.671 674.416C219.943 675.275 219.579 676.525 219.579 678.168C219.579 679.811 219.943 681.071 220.671 681.948C221.418 682.807 222.398 683.236 223.611 683.236ZM238.691 685.252C237.497 685.252 236.442 684.972 235.527 684.412C234.631 683.833 233.931 683.012 233.427 681.948C232.923 680.865 232.671 679.605 232.671 678.168C232.671 676.712 232.914 675.461 233.399 674.416C233.903 673.352 234.603 672.54 235.499 671.98C236.414 671.401 237.478 671.112 238.691 671.112C239.905 671.112 240.95 671.42 241.827 672.036C242.705 672.633 243.293 673.436 243.591 674.444H243.283V665.26H245.831V685H243.311V681.836H243.591C243.311 682.881 242.723 683.712 241.827 684.328C240.95 684.944 239.905 685.252 238.691 685.252ZM239.279 683.236C240.511 683.236 241.491 682.807 242.219 681.948C242.947 681.071 243.311 679.811 243.311 678.168C243.311 676.525 242.947 675.275 242.219 674.416C241.491 673.557 240.511 673.128 239.279 673.128C238.066 673.128 237.086 673.557 236.339 674.416C235.611 675.275 235.247 676.525 235.247 678.168C235.247 679.811 235.611 681.071 236.339 681.948C237.086 682.807 238.066 683.236 239.279 683.236ZM251.261 685V682.788H255.741V667.472H257.085L252.213 670.524L251.149 668.592L256.469 665.26H258.345V682.788H262.545V685H251.261Z" fill="black"/>
<rect x="353" y="587" width="158" height="158" rx="9" fill="white" stroke="#1C1A1A" stroke-width="2"/>
<path d="M279.513 475.252C277.553 475.252 275.873 474.841 274.473 474.02C273.073 473.199 271.99 472.032 271.225 470.52C270.478 468.989 270.105 467.188 270.105 465.116C270.105 463.044 270.478 461.252 271.225 459.74C271.99 458.228 273.073 457.061 274.473 456.24C275.873 455.419 277.553 455.008 279.513 455.008C280.857 455.008 282.108 455.223 283.265 455.652C284.441 456.063 285.421 456.679 286.205 457.5L285.253 459.572C284.394 458.807 283.508 458.247 282.593 457.892C281.678 457.537 280.67 457.36 279.569 457.36C277.404 457.36 275.742 458.032 274.585 459.376C273.446 460.72 272.877 462.633 272.877 465.116C272.877 467.599 273.446 469.521 274.585 470.884C275.742 472.228 277.404 472.9 279.569 472.9C280.67 472.9 281.678 472.723 282.593 472.368C283.508 472.013 284.394 471.453 285.253 470.688L286.205 472.76C285.421 473.563 284.441 474.179 283.265 474.608C282.108 475.037 280.857 475.252 279.513 475.252ZM289.7 475V455.26H291.688L303.98 471.556H303.28V455.26H305.716V475H303.756L291.464 458.676H292.108V475H289.7ZM310.454 475V455.26H313.058V475H310.454ZM324.72 480.04V461.364H327.212V464.5H326.932C327.23 463.473 327.818 462.652 328.696 462.036C329.573 461.42 330.628 461.112 331.86 461.112C333.073 461.112 334.128 461.401 335.024 461.98C335.92 462.54 336.62 463.352 337.124 464.416C337.628 465.461 337.88 466.712 337.88 468.168C337.88 469.605 337.628 470.865 337.124 471.948C336.638 473.012 335.938 473.833 335.024 474.412C334.128 474.972 333.073 475.252 331.86 475.252C330.646 475.252 329.601 474.944 328.724 474.328C327.846 473.712 327.258 472.9 326.96 471.892H327.268V480.04H324.72ZM331.272 473.236C332.504 473.236 333.484 472.807 334.212 471.948C334.94 471.071 335.304 469.811 335.304 468.168C335.304 466.525 334.94 465.275 334.212 464.416C333.484 463.557 332.504 463.128 331.272 463.128C330.04 463.128 329.06 463.557 328.332 464.416C327.604 465.275 327.24 466.525 327.24 468.168C327.24 469.811 327.604 471.071 328.332 471.948C329.06 472.807 330.04 473.236 331.272 473.236ZM345.493 475.252C344.037 475.252 342.945 474.841 342.217 474.02C341.508 473.18 341.153 471.976 341.153 470.408V455.26H343.701V470.212C343.701 470.847 343.785 471.388 343.953 471.836C344.14 472.265 344.401 472.583 344.737 472.788C345.092 472.993 345.531 473.096 346.053 473.096C346.259 473.096 346.464 473.087 346.669 473.068C346.893 473.049 347.099 473.012 347.285 472.956L347.229 475.028C346.931 475.103 346.632 475.159 346.333 475.196C346.053 475.233 345.773 475.252 345.493 475.252ZM354.447 475.252C353.346 475.252 352.422 475.047 351.675 474.636C350.947 474.225 350.406 473.619 350.051 472.816C349.697 472.013 349.519 471.005 349.519 469.792V461.364H352.067V469.792C352.067 470.557 352.17 471.192 352.375 471.696C352.581 472.2 352.898 472.573 353.327 472.816C353.775 473.059 354.335 473.18 355.007 473.18C355.754 473.18 356.407 473.012 356.967 472.676C357.527 472.34 357.966 471.864 358.283 471.248C358.601 470.632 358.759 469.913 358.759 469.092V461.364H361.307V475H358.815V471.92H359.179C358.806 473.003 358.199 473.833 357.359 474.412C356.538 474.972 355.567 475.252 354.447 475.252ZM371.539 480.292C370.326 480.292 369.197 480.143 368.151 479.844C367.106 479.545 366.173 479.088 365.351 478.472L366.163 476.624C366.723 476.997 367.274 477.305 367.815 477.548C368.375 477.809 368.945 477.996 369.523 478.108C370.121 478.22 370.737 478.276 371.371 478.276C372.697 478.276 373.686 477.931 374.339 477.24C375.011 476.568 375.347 475.579 375.347 474.272V471.248H375.599C375.338 472.293 374.75 473.124 373.835 473.74C372.939 474.356 371.894 474.664 370.699 474.664C369.467 474.664 368.394 474.384 367.479 473.824C366.565 473.245 365.855 472.452 365.351 471.444C364.847 470.417 364.595 469.232 364.595 467.888C364.595 466.525 364.847 465.34 365.351 464.332C365.855 463.305 366.565 462.512 367.479 461.952C368.394 461.392 369.467 461.112 370.699 461.112C371.913 461.112 372.967 461.42 373.863 462.036C374.759 462.652 375.338 463.483 375.599 464.528H375.347V461.364H377.839V473.936C377.839 475.336 377.597 476.512 377.111 477.464C376.645 478.416 375.945 479.125 375.011 479.592C374.078 480.059 372.921 480.292 371.539 480.292ZM371.259 472.648C372.51 472.648 373.499 472.219 374.227 471.36C374.955 470.501 375.319 469.344 375.319 467.888C375.319 466.413 374.955 465.256 374.227 464.416C373.499 463.557 372.51 463.128 371.259 463.128C370.009 463.128 369.01 463.557 368.263 464.416C367.535 465.256 367.171 466.413 367.171 467.888C367.171 469.344 367.535 470.501 368.263 471.36C369.01 472.219 370.009 472.648 371.259 472.648ZM381.671 458.088V455.344H384.723V458.088H381.671ZM381.923 475V461.364H384.471V475H381.923ZM388.567 475V461.364H391.059V464.332H390.751C391.143 463.268 391.778 462.465 392.655 461.924C393.551 461.383 394.569 461.112 395.707 461.112C396.809 461.112 397.714 461.308 398.423 461.7C399.133 462.092 399.665 462.699 400.019 463.52C400.374 464.323 400.551 465.331 400.551 466.544V475H398.003V466.684C398.003 465.881 397.901 465.219 397.695 464.696C397.49 464.173 397.163 463.791 396.715 463.548C396.286 463.305 395.735 463.184 395.063 463.184C394.279 463.184 393.589 463.352 392.991 463.688C392.394 464.024 391.927 464.5 391.591 465.116C391.274 465.732 391.115 466.451 391.115 467.272V475H388.567Z" fill="black"/>
<mask id="path-12-inside-1_449_4246" fill="white">
<rect x="182" y="534" width="100" height="100" rx="1"/>
</mask>
<rect x="182" y="534" width="100" height="100" rx="1" fill="white" stroke="url(#paint3_linear_449_4246)" stroke-width="4" mask="url(#path-12-inside-1_449_4246)"/>
<path d="M209.445 593L203.565 579.364H206.309L211.041 591.012H210.257L215.073 579.364H217.705L211.769 593H209.445ZM225.987 593.252C224.512 593.252 223.243 592.972 222.179 592.412C221.133 591.833 220.321 591.021 219.743 589.976C219.164 588.912 218.875 587.661 218.875 586.224C218.875 584.805 219.155 583.564 219.715 582.5C220.293 581.436 221.077 580.605 222.067 580.008C223.075 579.411 224.223 579.112 225.511 579.112C226.761 579.112 227.825 579.383 228.703 579.924C229.599 580.465 230.28 581.24 230.747 582.248C231.232 583.237 231.475 584.432 231.475 585.832V586.756H220.863V585.132H229.795L229.319 585.524C229.319 584.068 229.001 582.948 228.367 582.164C227.732 581.361 226.799 580.96 225.567 580.96C224.671 580.96 223.905 581.175 223.271 581.604C222.636 582.015 222.151 582.603 221.815 583.368C221.479 584.115 221.311 584.983 221.311 585.972V586.14C221.311 587.26 221.488 588.203 221.843 588.968C222.216 589.715 222.748 590.284 223.439 590.676C224.129 591.049 224.979 591.236 225.987 591.236C226.789 591.236 227.564 591.115 228.311 590.872C229.076 590.611 229.795 590.209 230.467 589.668L231.251 591.432C230.635 591.992 229.841 592.44 228.871 592.776C227.919 593.093 226.957 593.252 225.987 593.252ZM240.272 593.252C238.611 593.252 237.37 592.823 236.548 591.964C235.727 591.087 235.316 589.836 235.316 588.212V581.324H232.656V579.364H235.316V575.22H237.864V579.364H242.148V581.324H237.864V587.988C237.864 589.015 238.079 589.789 238.508 590.312C238.938 590.835 239.647 591.096 240.636 591.096C240.935 591.096 241.224 591.068 241.504 591.012C241.803 590.937 242.083 590.863 242.344 590.788L242.764 592.692C242.503 592.86 242.13 592.991 241.644 593.084C241.178 593.196 240.72 593.252 240.272 593.252ZM244.651 593V573.26H247.199V582.332H246.835C247.227 581.268 247.862 580.465 248.739 579.924C249.635 579.383 250.653 579.112 251.791 579.112C252.893 579.112 253.798 579.317 254.507 579.728C255.217 580.12 255.749 580.717 256.103 581.52C256.458 582.323 256.635 583.331 256.635 584.544V593H254.087V584.684C254.087 583.881 253.985 583.219 253.779 582.696C253.574 582.173 253.247 581.791 252.799 581.548C252.37 581.305 251.819 581.184 251.147 581.184C250.363 581.184 249.673 581.352 249.075 581.688C248.478 582.024 248.011 582.5 247.675 583.116C247.358 583.732 247.199 584.451 247.199 585.272V593H244.651Z" fill="black"/>
<mask id="path-14-inside-2_449_4246" fill="white">
<rect x="382" y="534" width="100" height="100" rx="1"/>
</mask>
<rect x="382" y="534" width="100" height="100" rx="1" fill="white" stroke="url(#paint4_linear_449_4246)" stroke-width="4" mask="url(#path-14-inside-2_449_4246)"/>
<path d="M409.445 593L403.565 579.364H406.309L411.041 591.012H410.257L415.073 579.364H417.705L411.769 593H409.445ZM425.987 593.252C424.512 593.252 423.243 592.972 422.179 592.412C421.133 591.833 420.321 591.021 419.743 589.976C419.164 588.912 418.875 587.661 418.875 586.224C418.875 584.805 419.155 583.564 419.715 582.5C420.293 581.436 421.077 580.605 422.067 580.008C423.075 579.411 424.223 579.112 425.511 579.112C426.761 579.112 427.825 579.383 428.703 579.924C429.599 580.465 430.28 581.24 430.747 582.248C431.232 583.237 431.475 584.432 431.475 585.832V586.756H420.863V585.132H429.795L429.319 585.524C429.319 584.068 429.001 582.948 428.367 582.164C427.732 581.361 426.799 580.96 425.567 580.96C424.671 580.96 423.905 581.175 423.271 581.604C422.636 582.015 422.151 582.603 421.815 583.368C421.479 584.115 421.311 584.983 421.311 585.972V586.14C421.311 587.26 421.488 588.203 421.843 588.968C422.216 589.715 422.748 590.284 423.439 590.676C424.129 591.049 424.979 591.236 425.987 591.236C426.789 591.236 427.564 591.115 428.311 590.872C429.076 590.611 429.795 590.209 430.467 589.668L431.251 591.432C430.635 591.992 429.841 592.44 428.871 592.776C427.919 593.093 426.957 593.252 425.987 593.252ZM440.272 593.252C438.611 593.252 437.37 592.823 436.548 591.964C435.727 591.087 435.316 589.836 435.316 588.212V581.324H432.656V579.364H435.316V575.22H437.864V579.364H442.148V581.324H437.864V587.988C437.864 589.015 438.079 589.789 438.508 590.312C438.938 590.835 439.647 591.096 440.636 591.096C440.935 591.096 441.224 591.068 441.504 591.012C441.803 590.937 442.083 590.863 442.344 590.788L442.764 592.692C442.503 592.86 442.13 592.991 441.644 593.084C441.178 593.196 440.72 593.252 440.272 593.252ZM444.651 593V573.26H447.199V582.332H446.835C447.227 581.268 447.862 580.465 448.739 579.924C449.635 579.383 450.653 579.112 451.791 579.112C452.893 579.112 453.798 579.317 454.507 579.728C455.217 580.12 455.749 580.717 456.103 581.52C456.458 582.323 456.635 583.331 456.635 584.544V593H454.087V584.684C454.087 583.881 453.985 583.219 453.779 582.696C453.574 582.173 453.247 581.791 452.799 581.548C452.37 581.305 451.819 581.184 451.147 581.184C450.363 581.184 449.673 581.352 449.075 581.688C448.478 582.024 448.011 582.5 447.675 583.116C447.358 583.732 447.199 584.451 447.199 585.272V593H444.651Z" fill="black"/>
<path d="M401.382 690.04V671.364H403.874V674.5H403.594C403.893 673.473 404.481 672.652 405.358 672.036C406.235 671.42 407.29 671.112 408.522 671.112C409.735 671.112 410.79 671.401 411.686 671.98C412.582 672.54 413.282 673.352 413.786 674.416C414.29 675.461 414.542 676.712 414.542 678.168C414.542 679.605 414.29 680.865 413.786 681.948C413.301 683.012 412.601 683.833 411.686 684.412C410.79 684.972 409.735 685.252 408.522 685.252C407.309 685.252 406.263 684.944 405.386 684.328C404.509 683.712 403.921 682.9 403.622 681.892H403.93V690.04H401.382ZM407.934 683.236C409.166 683.236 410.146 682.807 410.874 681.948C411.602 681.071 411.966 679.811 411.966 678.168C411.966 676.525 411.602 675.275 410.874 674.416C410.146 673.557 409.166 673.128 407.934 673.128C406.702 673.128 405.722 673.557 404.994 674.416C404.266 675.275 403.902 676.525 403.902 678.168C403.902 679.811 404.266 681.071 404.994 681.948C405.722 682.807 406.702 683.236 407.934 683.236ZM423.611 685.252C422.267 685.252 421.101 684.963 420.111 684.384C419.122 683.805 418.357 682.984 417.815 681.92C417.274 680.856 417.003 679.605 417.003 678.168C417.003 676.731 417.274 675.489 417.815 674.444C418.357 673.38 419.122 672.559 420.111 671.98C421.101 671.401 422.267 671.112 423.611 671.112C424.955 671.112 426.122 671.401 427.111 671.98C428.101 672.559 428.866 673.38 429.407 674.444C429.949 675.489 430.219 676.731 430.219 678.168C430.219 679.605 429.949 680.856 429.407 681.92C428.866 682.984 428.101 683.805 427.111 684.384C426.122 684.963 424.955 685.252 423.611 685.252ZM423.611 683.236C424.843 683.236 425.823 682.807 426.551 681.948C427.279 681.071 427.643 679.811 427.643 678.168C427.643 676.525 427.279 675.275 426.551 674.416C425.823 673.557 424.843 673.128 423.611 673.128C422.398 673.128 421.418 673.557 420.671 674.416C419.943 675.275 419.579 676.525 419.579 678.168C419.579 679.811 419.943 681.071 420.671 681.948C421.418 682.807 422.398 683.236 423.611 683.236ZM438.691 685.252C437.497 685.252 436.442 684.972 435.527 684.412C434.631 683.833 433.931 683.012 433.427 681.948C432.923 680.865 432.671 679.605 432.671 678.168C432.671 676.712 432.914 675.461 433.399 674.416C433.903 673.352 434.603 672.54 435.499 671.98C436.414 671.401 437.478 671.112 438.691 671.112C439.905 671.112 440.95 671.42 441.827 672.036C442.705 672.633 443.293 673.436 443.591 674.444H443.283V665.26H445.831V685H443.311V681.836H443.591C443.311 682.881 442.723 683.712 441.827 684.328C440.95 684.944 439.905 685.252 438.691 685.252ZM439.279 683.236C440.511 683.236 441.491 682.807 442.219 681.948C442.947 681.071 443.311 679.811 443.311 678.168C443.311 676.525 442.947 675.275 442.219 674.416C441.491 673.557 440.511 673.128 439.279 673.128C438.066 673.128 437.086 673.557 436.339 674.416C435.611 675.275 435.247 676.525 435.247 678.168C435.247 679.811 435.611 681.071 436.339 681.948C437.086 682.807 438.066 683.236 439.279 683.236ZM450.309 685V683.068L457.001 675.872C457.617 675.2 458.112 674.575 458.485 673.996C458.877 673.399 459.166 672.82 459.353 672.26C459.54 671.7 459.633 671.14 459.633 670.58C459.633 669.497 459.297 668.676 458.625 668.116C457.972 667.537 457.01 667.248 455.741 667.248C454.77 667.248 453.846 667.435 452.969 667.808C452.11 668.163 451.298 668.713 450.533 669.46L449.581 667.472C450.328 666.725 451.27 666.128 452.409 665.68C453.548 665.232 454.742 665.008 455.993 665.008C457.337 665.008 458.466 665.223 459.381 665.652C460.314 666.063 461.024 666.669 461.509 667.472C461.994 668.256 462.237 669.217 462.237 670.356C462.237 670.953 462.162 671.541 462.013 672.12C461.864 672.68 461.64 673.249 461.341 673.828C461.061 674.388 460.697 674.967 460.249 675.564C459.82 676.161 459.306 676.777 458.709 677.412L452.913 683.544V682.788H463.021V685H450.309Z" fill="black"/>
<g filter="url(#filter1_d_449_4246)">
<rect x="650" y="195" width="428" height="597" rx="10" fill="white"/>
</g>
<path d="M682.108 253V239.364H684.6V242.332H684.292C684.684 241.268 685.319 240.465 686.196 239.924C687.092 239.383 688.11 239.112 689.248 239.112C690.35 239.112 691.255 239.308 691.964 239.7C692.674 240.092 693.206 240.699 693.56 241.52C693.915 242.323 694.092 243.331 694.092 244.544V253H691.544V244.684C691.544 243.881 691.442 243.219 691.236 242.696C691.031 242.173 690.704 241.791 690.256 241.548C689.827 241.305 689.276 241.184 688.604 241.184C687.82 241.184 687.13 241.352 686.532 241.688C685.935 242.024 685.468 242.5 685.132 243.116C684.815 243.732 684.656 244.451 684.656 245.272V253H682.108ZM703.928 253.252C702.584 253.252 701.417 252.963 700.428 252.384C699.439 251.805 698.673 250.984 698.132 249.92C697.591 248.856 697.32 247.605 697.32 246.168C697.32 244.731 697.591 243.489 698.132 242.444C698.673 241.38 699.439 240.559 700.428 239.98C701.417 239.401 702.584 239.112 703.928 239.112C705.272 239.112 706.439 239.401 707.428 239.98C708.417 240.559 709.183 241.38 709.724 242.444C710.265 243.489 710.536 244.731 710.536 246.168C710.536 247.605 710.265 248.856 709.724 249.92C709.183 250.984 708.417 251.805 707.428 252.384C706.439 252.963 705.272 253.252 703.928 253.252ZM703.928 251.236C705.16 251.236 706.14 250.807 706.868 249.948C707.596 249.071 707.96 247.811 707.96 246.168C707.96 244.525 707.596 243.275 706.868 242.416C706.14 241.557 705.16 241.128 703.928 241.128C702.715 241.128 701.735 241.557 700.988 242.416C700.26 243.275 699.896 244.525 699.896 246.168C699.896 247.811 700.26 249.071 700.988 249.948C701.735 250.807 702.715 251.236 703.928 251.236ZM719.008 253.252C717.813 253.252 716.759 252.972 715.844 252.412C714.948 251.833 714.248 251.012 713.744 249.948C713.24 248.865 712.988 247.605 712.988 246.168C712.988 244.712 713.231 243.461 713.716 242.416C714.22 241.352 714.92 240.54 715.816 239.98C716.731 239.401 717.795 239.112 719.008 239.112C720.221 239.112 721.267 239.42 722.144 240.036C723.021 240.633 723.609 241.436 723.908 242.444H723.6V233.26H726.148V253H723.628V249.836H723.908C723.628 250.881 723.04 251.712 722.144 252.328C721.267 252.944 720.221 253.252 719.008 253.252ZM719.596 251.236C720.828 251.236 721.808 250.807 722.536 249.948C723.264 249.071 723.628 247.811 723.628 246.168C723.628 244.525 723.264 243.275 722.536 242.416C721.808 241.557 720.828 241.128 719.596 241.128C718.383 241.128 717.403 241.557 716.656 242.416C715.928 243.275 715.564 244.525 715.564 246.168C715.564 247.811 715.928 249.071 716.656 249.948C717.403 250.807 718.383 251.236 719.596 251.236ZM736.533 253.252C735.059 253.252 733.789 252.972 732.725 252.412C731.68 251.833 730.868 251.021 730.289 249.976C729.711 248.912 729.421 247.661 729.421 246.224C729.421 244.805 729.701 243.564 730.261 242.5C730.84 241.436 731.624 240.605 732.613 240.008C733.621 239.411 734.769 239.112 736.057 239.112C737.308 239.112 738.372 239.383 739.249 239.924C740.145 240.465 740.827 241.24 741.293 242.248C741.779 243.237 742.021 244.432 742.021 245.832V246.756H731.409V245.132H740.341L739.865 245.524C739.865 244.068 739.548 242.948 738.913 242.164C738.279 241.361 737.345 240.96 736.113 240.96C735.217 240.96 734.452 241.175 733.817 241.604C733.183 242.015 732.697 242.603 732.361 243.368C732.025 244.115 731.857 244.983 731.857 245.972V246.14C731.857 247.26 732.035 248.203 732.389 248.968C732.763 249.715 733.295 250.284 733.985 250.676C734.676 251.049 735.525 251.236 736.533 251.236C737.336 251.236 738.111 251.115 738.857 250.872C739.623 250.611 740.341 250.209 741.013 249.668L741.797 251.432C741.181 251.992 740.388 252.44 739.417 252.776C738.465 253.093 737.504 253.252 736.533 253.252ZM745.582 253V251.068L752.274 243.872C752.89 243.2 753.385 242.575 753.758 241.996C754.15 241.399 754.44 240.82 754.626 240.26C754.813 239.7 754.906 239.14 754.906 238.58C754.906 237.497 754.57 236.676 753.898 236.116C753.245 235.537 752.284 235.248 751.014 235.248C750.044 235.248 749.12 235.435 748.242 235.808C747.384 236.163 746.572 236.713 745.806 237.46L744.854 235.472C745.601 234.725 746.544 234.128 747.682 233.68C748.821 233.232 750.016 233.008 751.266 233.008C752.61 233.008 753.74 233.223 754.654 233.652C755.588 234.063 756.297 234.669 756.782 235.472C757.268 236.256 757.51 237.217 757.51 238.356C757.51 238.953 757.436 239.541 757.286 240.12C757.137 240.68 756.913 241.249 756.614 241.828C756.334 242.388 755.97 242.967 755.522 243.564C755.093 244.161 754.58 244.777 753.982 245.412L748.186 251.544V250.788H758.294V253H745.582Z" fill="black"/>
<rect x="814" y="145" width="100" height="100" rx="10" fill="url(#paint5_radial_449_4246)"/>
<rect x="814" y="145" width="100" height="100" rx="10" fill="black" fill-opacity="0.08"/>
<rect x="681" y="287" width="358" height="78" rx="9" fill="white" stroke="url(#paint6_linear_449_4246)" stroke-width="2"/>
<path d="M850.945 204.28C849.396 204.28 848.061 203.991 846.941 203.412C845.821 202.833 844.953 202.012 844.337 200.948C843.74 199.884 843.441 198.624 843.441 197.168C843.441 195.749 843.73 194.508 844.309 193.444C844.906 192.38 845.718 191.549 846.745 190.952C847.79 190.336 848.976 190.028 850.301 190.028C851.608 190.028 852.728 190.308 853.661 190.868C854.594 191.428 855.313 192.221 855.817 193.248C856.34 194.275 856.601 195.497 856.601 196.916V197.952H846.269V195.936H854.137L853.689 196.356C853.689 195.087 853.409 194.116 852.849 193.444C852.289 192.753 851.486 192.408 850.441 192.408C849.657 192.408 848.985 192.595 848.425 192.968C847.884 193.323 847.464 193.836 847.165 194.508C846.885 195.161 846.745 195.945 846.745 196.86V197.056C846.745 198.083 846.904 198.932 847.221 199.604C847.538 200.276 848.014 200.78 848.649 201.116C849.284 201.452 850.068 201.62 851.001 201.62C851.766 201.62 852.532 201.508 853.297 201.284C854.062 201.041 854.762 200.668 855.397 200.164L856.377 202.516C855.724 203.057 854.902 203.487 853.913 203.804C852.924 204.121 851.934 204.28 850.945 204.28ZM865.59 204.28C863.761 204.28 862.398 203.823 861.502 202.908C860.606 201.993 860.158 200.659 860.158 198.904V192.94H857.526V190.308H860.158V186.22H863.658V190.308H867.802V192.94H863.658V198.708C863.658 199.604 863.854 200.276 864.246 200.724C864.638 201.172 865.273 201.396 866.15 201.396C866.411 201.396 866.682 201.368 866.962 201.312C867.242 201.237 867.531 201.163 867.83 201.088L868.362 203.664C868.026 203.851 867.597 204 867.074 204.112C866.57 204.224 866.075 204.28 865.59 204.28ZM870.064 204V184.26H873.564V193.052H873.172C873.583 192.063 874.217 191.316 875.076 190.812C875.953 190.289 876.943 190.028 878.044 190.028C879.145 190.028 880.051 190.233 880.76 190.644C881.469 191.055 882.001 191.68 882.356 192.52C882.711 193.341 882.888 194.387 882.888 195.656V204H879.388V195.824C879.388 195.115 879.295 194.536 879.108 194.088C878.94 193.64 878.669 193.313 878.296 193.108C877.941 192.884 877.484 192.772 876.924 192.772C876.252 192.772 875.664 192.921 875.16 193.22C874.656 193.5 874.264 193.911 873.984 194.452C873.704 194.975 873.564 195.591 873.564 196.3V204H870.064Z" fill="white"/>
<path d="M775.92 335.252C774.894 335.252 773.923 335.168 773.008 335C772.094 334.813 771.254 334.552 770.488 334.216C769.723 333.861 769.032 333.432 768.416 332.928L769.312 330.856C769.928 331.323 770.572 331.724 771.244 332.06C771.916 332.377 772.635 332.62 773.4 332.788C774.166 332.937 775.006 333.012 775.92 333.012C777.563 333.012 778.767 332.713 779.532 332.116C780.316 331.519 780.708 330.735 780.708 329.764C780.708 329.223 780.587 328.765 780.344 328.392C780.102 328.019 779.71 327.701 779.168 327.44C778.627 327.179 777.918 326.964 777.04 326.796L774.072 326.18C772.318 325.807 771.002 325.191 770.124 324.332C769.266 323.473 768.836 322.325 768.836 320.888C768.836 319.712 769.144 318.685 769.76 317.808C770.395 316.912 771.254 316.221 772.336 315.736C773.438 315.251 774.707 315.008 776.144 315.008C777.04 315.008 777.89 315.101 778.692 315.288C779.495 315.456 780.242 315.727 780.932 316.1C781.623 316.455 782.23 316.893 782.752 317.416L781.884 319.404C781.063 318.657 780.186 318.116 779.252 317.78C778.319 317.425 777.274 317.248 776.116 317.248C775.164 317.248 774.334 317.397 773.624 317.696C772.934 317.995 772.392 318.415 772 318.956C771.627 319.479 771.44 320.095 771.44 320.804C771.44 321.663 771.702 322.335 772.224 322.82C772.747 323.305 773.624 323.679 774.856 323.94L777.796 324.528C779.663 324.92 781.044 325.527 781.94 326.348C782.855 327.151 783.312 328.233 783.312 329.596C783.312 330.716 783.014 331.705 782.416 332.564C781.819 333.404 780.96 334.067 779.84 334.552C778.739 335.019 777.432 335.252 775.92 335.252ZM792.725 335.252C791.25 335.252 789.981 334.972 788.917 334.412C787.872 333.833 787.06 333.021 786.481 331.976C785.902 330.912 785.613 329.661 785.613 328.224C785.613 326.805 785.893 325.564 786.453 324.5C787.032 323.436 787.816 322.605 788.805 322.008C789.813 321.411 790.961 321.112 792.249 321.112C793.5 321.112 794.564 321.383 795.441 321.924C796.337 322.465 797.018 323.24 797.485 324.248C797.97 325.237 798.213 326.432 798.213 327.832V328.756H787.601V327.132H796.533L796.057 327.524C796.057 326.068 795.74 324.948 795.105 324.164C794.47 323.361 793.537 322.96 792.305 322.96C791.409 322.96 790.644 323.175 790.009 323.604C789.374 324.015 788.889 324.603 788.553 325.368C788.217 326.115 788.049 326.983 788.049 327.972V328.14C788.049 329.26 788.226 330.203 788.581 330.968C788.954 331.715 789.486 332.284 790.177 332.676C790.868 333.049 791.717 333.236 792.725 333.236C793.528 333.236 794.302 333.115 795.049 332.872C795.814 332.611 796.533 332.209 797.205 331.668L797.989 333.432C797.373 333.992 796.58 334.44 795.609 334.776C794.657 335.093 793.696 335.252 792.725 335.252ZM801.382 335V321.364H803.874V324.612H803.594C803.893 323.492 804.434 322.652 805.218 322.092C806.002 321.513 807.038 321.177 808.326 321.084L809.194 321L809.39 323.212L807.794 323.352C806.562 323.483 805.61 323.884 804.938 324.556C804.285 325.228 803.958 326.152 803.958 327.328V335H801.382ZM816.488 335L810.608 321.364H813.352L818.084 333.012H817.3L822.116 321.364H824.748L818.812 335H816.488ZM826.696 318.088V315.344H829.748V318.088H826.696ZM826.948 335V321.364H829.496V335H826.948ZM839.501 335.252C838.119 335.252 836.925 334.963 835.917 334.384C834.909 333.787 834.134 332.956 833.593 331.892C833.051 330.809 832.781 329.54 832.781 328.084C832.781 326.647 833.051 325.405 833.593 324.36C834.134 323.315 834.909 322.512 835.917 321.952C836.925 321.392 838.119 321.112 839.501 321.112C840.359 321.112 841.199 321.261 842.021 321.56C842.861 321.859 843.551 322.279 844.093 322.82L843.253 324.612C842.711 324.127 842.123 323.763 841.489 323.52C840.854 323.277 840.247 323.156 839.669 323.156C838.306 323.156 837.251 323.585 836.505 324.444C835.758 325.303 835.385 326.525 835.385 328.112C835.385 329.699 835.758 330.949 836.505 331.864C837.251 332.76 838.306 333.208 839.669 333.208C840.247 333.208 840.854 333.087 841.489 332.844C842.123 332.601 842.711 332.228 843.253 331.724L844.093 333.544C843.551 334.085 842.851 334.505 841.993 334.804C841.153 335.103 840.322 335.252 839.501 335.252ZM852.635 335.252C851.16 335.252 849.891 334.972 848.827 334.412C847.782 333.833 846.97 333.021 846.391 331.976C845.812 330.912 845.523 329.661 845.523 328.224C845.523 326.805 845.803 325.564 846.363 324.5C846.942 323.436 847.726 322.605 848.715 322.008C849.723 321.411 850.871 321.112 852.159 321.112C853.41 321.112 854.474 321.383 855.351 321.924C856.247 322.465 856.928 323.24 857.395 324.248C857.88 325.237 858.123 326.432 858.123 327.832V328.756H847.511V327.132H856.443L855.967 327.524C855.967 326.068 855.65 324.948 855.015 324.164C854.38 323.361 853.447 322.96 852.215 322.96C851.319 322.96 850.554 323.175 849.919 323.604C849.284 324.015 848.799 324.603 848.463 325.368C848.127 326.115 847.959 326.983 847.959 327.972V328.14C847.959 329.26 848.136 330.203 848.491 330.968C848.864 331.715 849.396 332.284 850.087 332.676C850.778 333.049 851.627 333.236 852.635 333.236C853.438 333.236 854.212 333.115 854.959 332.872C855.724 332.611 856.443 332.209 857.115 331.668L857.899 333.432C857.283 333.992 856.49 334.44 855.519 334.776C854.567 335.093 853.606 335.252 852.635 335.252ZM865.996 335.252C865.287 335.252 864.587 335.187 863.896 335.056C863.224 334.925 862.599 334.739 862.02 334.496C861.46 334.235 860.965 333.927 860.536 333.572L861.292 331.808C861.74 332.144 862.225 332.433 862.748 332.676C863.271 332.9 863.812 333.068 864.372 333.18C864.932 333.292 865.492 333.348 866.052 333.348C867.079 333.348 867.853 333.161 868.376 332.788C868.899 332.415 869.16 331.92 869.16 331.304C869.16 330.781 868.983 330.38 868.628 330.1C868.292 329.801 867.76 329.577 867.032 329.428L864.428 328.896C863.271 328.635 862.393 328.205 861.796 327.608C861.217 326.992 860.928 326.208 860.928 325.256C860.928 324.416 861.152 323.688 861.6 323.072C862.067 322.437 862.711 321.952 863.532 321.616C864.353 321.28 865.296 321.112 866.36 321.112C866.995 321.112 867.611 321.177 868.208 321.308C868.805 321.439 869.365 321.625 869.888 321.868C870.411 322.111 870.849 322.428 871.204 322.82L870.42 324.556C870.065 324.22 869.664 323.94 869.216 323.716C868.768 323.492 868.301 323.324 867.816 323.212C867.331 323.081 866.845 323.016 866.36 323.016C865.352 323.016 864.587 323.212 864.064 323.604C863.56 323.996 863.308 324.509 863.308 325.144C863.308 325.629 863.457 326.031 863.756 326.348C864.073 326.665 864.568 326.899 865.24 327.048L867.844 327.58C869.057 327.841 869.972 328.261 870.588 328.84C871.204 329.4 871.512 330.165 871.512 331.136C871.512 331.995 871.279 332.732 870.812 333.348C870.364 333.964 869.72 334.44 868.88 334.776C868.059 335.093 867.097 335.252 865.996 335.252ZM882.101 340.04V321.364H884.593V324.5H884.313C884.611 323.473 885.199 322.652 886.077 322.036C886.954 321.42 888.009 321.112 889.241 321.112C890.454 321.112 891.509 321.401 892.405 321.98C893.301 322.54 894.001 323.352 894.505 324.416C895.009 325.461 895.261 326.712 895.261 328.168C895.261 329.605 895.009 330.865 894.505 331.948C894.019 333.012 893.319 333.833 892.405 334.412C891.509 334.972 890.454 335.252 889.241 335.252C888.027 335.252 886.982 334.944 886.105 334.328C885.227 333.712 884.639 332.9 884.341 331.892H884.649V340.04H882.101ZM888.653 333.236C889.885 333.236 890.865 332.807 891.593 331.948C892.321 331.071 892.685 329.811 892.685 328.168C892.685 326.525 892.321 325.275 891.593 324.416C890.865 323.557 889.885 323.128 888.653 323.128C887.421 323.128 886.441 323.557 885.713 324.416C884.985 325.275 884.621 326.525 884.621 328.168C884.621 329.811 884.985 331.071 885.713 331.948C886.441 332.807 887.421 333.236 888.653 333.236ZM902.874 335.252C901.418 335.252 900.326 334.841 899.598 334.02C898.889 333.18 898.534 331.976 898.534 330.408V315.26H901.082V330.212C901.082 330.847 901.166 331.388 901.334 331.836C901.521 332.265 901.782 332.583 902.118 332.788C902.473 332.993 902.912 333.096 903.434 333.096C903.64 333.096 903.845 333.087 904.05 333.068C904.274 333.049 904.48 333.012 904.666 332.956L904.61 335.028C904.312 335.103 904.013 335.159 903.714 335.196C903.434 335.233 903.154 335.252 902.874 335.252ZM911.828 335.252C910.727 335.252 909.803 335.047 909.056 334.636C908.328 334.225 907.787 333.619 907.432 332.816C907.077 332.013 906.9 331.005 906.9 329.792V321.364H909.448V329.792C909.448 330.557 909.551 331.192 909.756 331.696C909.961 332.2 910.279 332.573 910.708 332.816C911.156 333.059 911.716 333.18 912.388 333.18C913.135 333.18 913.788 333.012 914.348 332.676C914.908 332.34 915.347 331.864 915.664 331.248C915.981 330.632 916.14 329.913 916.14 329.092V321.364H918.688V335H916.196V331.92H916.56C916.187 333.003 915.58 333.833 914.74 334.412C913.919 334.972 912.948 335.252 911.828 335.252ZM928.92 340.292C927.707 340.292 926.577 340.143 925.532 339.844C924.487 339.545 923.553 339.088 922.732 338.472L923.544 336.624C924.104 336.997 924.655 337.305 925.196 337.548C925.756 337.809 926.325 337.996 926.904 338.108C927.501 338.22 928.117 338.276 928.752 338.276C930.077 338.276 931.067 337.931 931.72 337.24C932.392 336.568 932.728 335.579 932.728 334.272V331.248H932.98C932.719 332.293 932.131 333.124 931.216 333.74C930.32 334.356 929.275 334.664 928.08 334.664C926.848 334.664 925.775 334.384 924.86 333.824C923.945 333.245 923.236 332.452 922.732 331.444C922.228 330.417 921.976 329.232 921.976 327.888C921.976 326.525 922.228 325.34 922.732 324.332C923.236 323.305 923.945 322.512 924.86 321.952C925.775 321.392 926.848 321.112 928.08 321.112C929.293 321.112 930.348 321.42 931.244 322.036C932.14 322.652 932.719 323.483 932.98 324.528H932.728V321.364H935.22V333.936C935.22 335.336 934.977 336.512 934.492 337.464C934.025 338.416 933.325 339.125 932.392 339.592C931.459 340.059 930.301 340.292 928.92 340.292ZM928.64 332.648C929.891 332.648 930.88 332.219 931.608 331.36C932.336 330.501 932.7 329.344 932.7 327.888C932.7 326.413 932.336 325.256 931.608 324.416C930.88 323.557 929.891 323.128 928.64 323.128C927.389 323.128 926.391 323.557 925.644 324.416C924.916 325.256 924.552 326.413 924.552 327.888C924.552 329.344 924.916 330.501 925.644 331.36C926.391 332.219 927.389 332.648 928.64 332.648ZM939.052 318.088V315.344H942.104V318.088H939.052ZM939.304 335V321.364H941.852V335H939.304ZM945.948 335V321.364H948.44V324.332H948.132C948.524 323.268 949.159 322.465 950.036 321.924C950.932 321.383 951.95 321.112 953.088 321.112C954.19 321.112 955.095 321.308 955.804 321.7C956.514 322.092 957.046 322.699 957.4 323.52C957.755 324.323 957.932 325.331 957.932 326.544V335H955.384V326.684C955.384 325.881 955.282 325.219 955.076 324.696C954.871 324.173 954.544 323.791 954.096 323.548C953.667 323.305 953.116 323.184 952.444 323.184C951.66 323.184 950.97 323.352 950.372 323.688C949.775 324.024 949.308 324.5 948.972 325.116C948.655 325.732 948.496 326.451 948.496 327.272V335H945.948Z" fill="black"/>
<rect x="681" y="427" width="358" height="78" rx="9" fill="white" stroke="url(#paint7_linear_449_4246)" stroke-width="2"/>
<rect x="681" y="587" width="158" height="158" rx="9" fill="white" stroke="#1C1A1A" stroke-width="2"/>
<path d="M729.382 690.04V671.364H731.874V674.5H731.594C731.893 673.473 732.481 672.652 733.358 672.036C734.235 671.42 735.29 671.112 736.522 671.112C737.735 671.112 738.79 671.401 739.686 671.98C740.582 672.54 741.282 673.352 741.786 674.416C742.29 675.461 742.542 676.712 742.542 678.168C742.542 679.605 742.29 680.865 741.786 681.948C741.301 683.012 740.601 683.833 739.686 684.412C738.79 684.972 737.735 685.252 736.522 685.252C735.309 685.252 734.263 684.944 733.386 684.328C732.509 683.712 731.921 682.9 731.622 681.892H731.93V690.04H729.382ZM735.934 683.236C737.166 683.236 738.146 682.807 738.874 681.948C739.602 681.071 739.966 679.811 739.966 678.168C739.966 676.525 739.602 675.275 738.874 674.416C738.146 673.557 737.166 673.128 735.934 673.128C734.702 673.128 733.722 673.557 732.994 674.416C732.266 675.275 731.902 676.525 731.902 678.168C731.902 679.811 732.266 681.071 732.994 681.948C733.722 682.807 734.702 683.236 735.934 683.236ZM751.611 685.252C750.267 685.252 749.101 684.963 748.111 684.384C747.122 683.805 746.357 682.984 745.815 681.92C745.274 680.856 745.003 679.605 745.003 678.168C745.003 676.731 745.274 675.489 745.815 674.444C746.357 673.38 747.122 672.559 748.111 671.98C749.101 671.401 750.267 671.112 751.611 671.112C752.955 671.112 754.122 671.401 755.111 671.98C756.101 672.559 756.866 673.38 757.407 674.444C757.949 675.489 758.219 676.731 758.219 678.168C758.219 679.605 757.949 680.856 757.407 681.92C756.866 682.984 756.101 683.805 755.111 684.384C754.122 684.963 752.955 685.252 751.611 685.252ZM751.611 683.236C752.843 683.236 753.823 682.807 754.551 681.948C755.279 681.071 755.643 679.811 755.643 678.168C755.643 676.525 755.279 675.275 754.551 674.416C753.823 673.557 752.843 673.128 751.611 673.128C750.398 673.128 749.418 673.557 748.671 674.416C747.943 675.275 747.579 676.525 747.579 678.168C747.579 679.811 747.943 681.071 748.671 681.948C749.418 682.807 750.398 683.236 751.611 683.236ZM766.691 685.252C765.497 685.252 764.442 684.972 763.527 684.412C762.631 683.833 761.931 683.012 761.427 681.948C760.923 680.865 760.671 679.605 760.671 678.168C760.671 676.712 760.914 675.461 761.399 674.416C761.903 673.352 762.603 672.54 763.499 671.98C764.414 671.401 765.478 671.112 766.691 671.112C767.905 671.112 768.95 671.42 769.827 672.036C770.705 672.633 771.293 673.436 771.591 674.444H771.283V665.26H773.831V685H771.311V681.836H771.591C771.311 682.881 770.723 683.712 769.827 684.328C768.95 684.944 767.905 685.252 766.691 685.252ZM767.279 683.236C768.511 683.236 769.491 682.807 770.219 681.948C770.947 681.071 771.311 679.811 771.311 678.168C771.311 676.525 770.947 675.275 770.219 674.416C769.491 673.557 768.511 673.128 767.279 673.128C766.066 673.128 765.086 673.557 764.339 674.416C763.611 675.275 763.247 676.525 763.247 678.168C763.247 679.811 763.611 681.071 764.339 681.948C765.086 682.807 766.066 683.236 767.279 683.236ZM784.637 685.252C783.797 685.252 782.966 685.159 782.145 684.972C781.342 684.785 780.586 684.524 779.877 684.188C779.168 683.833 778.552 683.413 778.029 682.928L778.953 680.912C779.849 681.621 780.754 682.153 781.669 682.508C782.602 682.844 783.582 683.012 784.609 683.012C785.934 683.012 786.97 682.648 787.717 681.92C788.482 681.192 788.865 680.221 788.865 679.008C788.865 677.776 788.501 676.768 787.773 675.984C787.045 675.2 786.056 674.808 784.805 674.808C783.89 674.808 783.078 674.995 782.369 675.368C781.66 675.723 781.034 676.292 780.493 677.076H778.645V665.26H790.237V667.472H781.193V674.948H780.465C780.969 674.201 781.641 673.623 782.481 673.212C783.321 672.801 784.264 672.596 785.309 672.596C786.56 672.596 787.633 672.867 788.529 673.408C789.444 673.931 790.153 674.668 790.657 675.62C791.161 676.553 791.413 677.645 791.413 678.896C791.413 680.128 791.133 681.229 790.573 682.2C790.032 683.152 789.257 683.899 788.249 684.44C787.241 684.981 786.037 685.252 784.637 685.252Z" fill="black"/>
<rect x="881" y="587" width="158" height="158" rx="9" fill="white" stroke="#1C1A1A" stroke-width="2"/>
<path d="M807.513 475.252C805.553 475.252 803.873 474.841 802.473 474.02C801.073 473.199 799.99 472.032 799.225 470.52C798.478 468.989 798.105 467.188 798.105 465.116C798.105 463.044 798.478 461.252 799.225 459.74C799.99 458.228 801.073 457.061 802.473 456.24C803.873 455.419 805.553 455.008 807.513 455.008C808.857 455.008 810.108 455.223 811.265 455.652C812.441 456.063 813.421 456.679 814.205 457.5L813.253 459.572C812.394 458.807 811.508 458.247 810.593 457.892C809.678 457.537 808.67 457.36 807.569 457.36C805.404 457.36 803.742 458.032 802.585 459.376C801.446 460.72 800.877 462.633 800.877 465.116C800.877 467.599 801.446 469.521 802.585 470.884C803.742 472.228 805.404 472.9 807.569 472.9C808.67 472.9 809.678 472.723 810.593 472.368C811.508 472.013 812.394 471.453 813.253 470.688L814.205 472.76C813.421 473.563 812.441 474.179 811.265 474.608C810.108 475.037 808.857 475.252 807.513 475.252ZM817.7 475V455.26H819.688L831.98 471.556H831.28V455.26H833.716V475H831.756L819.464 458.676H820.108V475H817.7ZM838.454 475V455.26H841.058V475H838.454ZM852.72 480.04V461.364H855.212V464.5H854.932C855.23 463.473 855.818 462.652 856.696 462.036C857.573 461.42 858.628 461.112 859.86 461.112C861.073 461.112 862.128 461.401 863.024 461.98C863.92 462.54 864.62 463.352 865.124 464.416C865.628 465.461 865.88 466.712 865.88 468.168C865.88 469.605 865.628 470.865 865.124 471.948C864.638 473.012 863.938 473.833 863.024 474.412C862.128 474.972 861.073 475.252 859.86 475.252C858.646 475.252 857.601 474.944 856.724 474.328C855.846 473.712 855.258 472.9 854.96 471.892H855.268V480.04H852.72ZM859.272 473.236C860.504 473.236 861.484 472.807 862.212 471.948C862.94 471.071 863.304 469.811 863.304 468.168C863.304 466.525 862.94 465.275 862.212 464.416C861.484 463.557 860.504 463.128 859.272 463.128C858.04 463.128 857.06 463.557 856.332 464.416C855.604 465.275 855.24 466.525 855.24 468.168C855.24 469.811 855.604 471.071 856.332 471.948C857.06 472.807 858.04 473.236 859.272 473.236ZM873.493 475.252C872.037 475.252 870.945 474.841 870.217 474.02C869.508 473.18 869.153 471.976 869.153 470.408V455.26H871.701V470.212C871.701 470.847 871.785 471.388 871.953 471.836C872.14 472.265 872.401 472.583 872.737 472.788C873.092 472.993 873.531 473.096 874.053 473.096C874.259 473.096 874.464 473.087 874.669 473.068C874.893 473.049 875.099 473.012 875.285 472.956L875.229 475.028C874.931 475.103 874.632 475.159 874.333 475.196C874.053 475.233 873.773 475.252 873.493 475.252ZM882.447 475.252C881.346 475.252 880.422 475.047 879.675 474.636C878.947 474.225 878.406 473.619 878.051 472.816C877.697 472.013 877.519 471.005 877.519 469.792V461.364H880.067V469.792C880.067 470.557 880.17 471.192 880.375 471.696C880.581 472.2 880.898 472.573 881.327 472.816C881.775 473.059 882.335 473.18 883.007 473.18C883.754 473.18 884.407 473.012 884.967 472.676C885.527 472.34 885.966 471.864 886.283 471.248C886.601 470.632 886.759 469.913 886.759 469.092V461.364H889.307V475H886.815V471.92H887.179C886.806 473.003 886.199 473.833 885.359 474.412C884.538 474.972 883.567 475.252 882.447 475.252ZM899.539 480.292C898.326 480.292 897.197 480.143 896.151 479.844C895.106 479.545 894.173 479.088 893.351 478.472L894.163 476.624C894.723 476.997 895.274 477.305 895.815 477.548C896.375 477.809 896.945 477.996 897.523 478.108C898.121 478.22 898.737 478.276 899.371 478.276C900.697 478.276 901.686 477.931 902.339 477.24C903.011 476.568 903.347 475.579 903.347 474.272V471.248H903.599C903.338 472.293 902.75 473.124 901.835 473.74C900.939 474.356 899.894 474.664 898.699 474.664C897.467 474.664 896.394 474.384 895.479 473.824C894.565 473.245 893.855 472.452 893.351 471.444C892.847 470.417 892.595 469.232 892.595 467.888C892.595 466.525 892.847 465.34 893.351 464.332C893.855 463.305 894.565 462.512 895.479 461.952C896.394 461.392 897.467 461.112 898.699 461.112C899.913 461.112 900.967 461.42 901.863 462.036C902.759 462.652 903.338 463.483 903.599 464.528H903.347V461.364H905.839V473.936C905.839 475.336 905.597 476.512 905.111 477.464C904.645 478.416 903.945 479.125 903.011 479.592C902.078 480.059 900.921 480.292 899.539 480.292ZM899.259 472.648C900.51 472.648 901.499 472.219 902.227 471.36C902.955 470.501 903.319 469.344 903.319 467.888C903.319 466.413 902.955 465.256 902.227 464.416C901.499 463.557 900.51 463.128 899.259 463.128C898.009 463.128 897.01 463.557 896.263 464.416C895.535 465.256 895.171 466.413 895.171 467.888C895.171 469.344 895.535 470.501 896.263 471.36C897.01 472.219 898.009 472.648 899.259 472.648ZM909.671 458.088V455.344H912.723V458.088H909.671ZM909.923 475V461.364H912.471V475H909.923ZM916.567 475V461.364H919.059V464.332H918.751C919.143 463.268 919.778 462.465 920.655 461.924C921.551 461.383 922.569 461.112 923.707 461.112C924.809 461.112 925.714 461.308 926.423 461.7C927.133 462.092 927.665 462.699 928.019 463.52C928.374 464.323 928.551 465.331 928.551 466.544V475H926.003V466.684C926.003 465.881 925.901 465.219 925.695 464.696C925.49 464.173 925.163 463.791 924.715 463.548C924.286 463.305 923.735 463.184 923.063 463.184C922.279 463.184 921.589 463.352 920.991 463.688C920.394 464.024 919.927 464.5 919.591 465.116C919.274 465.732 919.115 466.451 919.115 467.272V475H916.567Z" fill="black"/>
<mask id="path-28-inside-3_449_4246" fill="white">
<rect x="710" y="534" width="100" height="100" rx="1"/>
</mask>
<rect x="710" y="534" width="100" height="100" rx="1" fill="white" stroke="url(#paint8_linear_449_4246)" stroke-width="4" mask="url(#path-28-inside-3_449_4246)"/>
<path d="M737.445 593L731.565 579.364H734.309L739.041 591.012H738.257L743.073 579.364H745.705L739.769 593H737.445ZM753.987 593.252C752.512 593.252 751.243 592.972 750.179 592.412C749.133 591.833 748.321 591.021 747.743 589.976C747.164 588.912 746.875 587.661 746.875 586.224C746.875 584.805 747.155 583.564 747.715 582.5C748.293 581.436 749.077 580.605 750.067 580.008C751.075 579.411 752.223 579.112 753.511 579.112C754.761 579.112 755.825 579.383 756.703 579.924C757.599 580.465 758.28 581.24 758.747 582.248C759.232 583.237 759.475 584.432 759.475 585.832V586.756H748.863V585.132H757.795L757.319 585.524C757.319 584.068 757.001 582.948 756.367 582.164C755.732 581.361 754.799 580.96 753.567 580.96C752.671 580.96 751.905 581.175 751.271 581.604C750.636 582.015 750.151 582.603 749.815 583.368C749.479 584.115 749.311 584.983 749.311 585.972V586.14C749.311 587.26 749.488 588.203 749.843 588.968C750.216 589.715 750.748 590.284 751.439 590.676C752.129 591.049 752.979 591.236 753.987 591.236C754.789 591.236 755.564 591.115 756.311 590.872C757.076 590.611 757.795 590.209 758.467 589.668L759.251 591.432C758.635 591.992 757.841 592.44 756.871 592.776C755.919 593.093 754.957 593.252 753.987 593.252ZM768.272 593.252C766.611 593.252 765.37 592.823 764.548 591.964C763.727 591.087 763.316 589.836 763.316 588.212V581.324H760.656V579.364H763.316V575.22H765.864V579.364H770.148V581.324H765.864V587.988C765.864 589.015 766.079 589.789 766.508 590.312C766.938 590.835 767.647 591.096 768.636 591.096C768.935 591.096 769.224 591.068 769.504 591.012C769.803 590.937 770.083 590.863 770.344 590.788L770.764 592.692C770.503 592.86 770.13 592.991 769.644 593.084C769.178 593.196 768.72 593.252 768.272 593.252ZM772.651 593V573.26H775.199V582.332H774.835C775.227 581.268 775.862 580.465 776.739 579.924C777.635 579.383 778.653 579.112 779.791 579.112C780.893 579.112 781.798 579.317 782.507 579.728C783.217 580.12 783.749 580.717 784.103 581.52C784.458 582.323 784.635 583.331 784.635 584.544V593H782.087V584.684C782.087 583.881 781.985 583.219 781.779 582.696C781.574 582.173 781.247 581.791 780.799 581.548C780.37 581.305 779.819 581.184 779.147 581.184C778.363 581.184 777.673 581.352 777.075 581.688C776.478 582.024 776.011 582.5 775.675 583.116C775.358 583.732 775.199 584.451 775.199 585.272V593H772.651Z" fill="black"/>
<mask id="path-30-inside-4_449_4246" fill="white">
<rect x="910" y="534" width="100" height="100" rx="1"/>
</mask>
<rect x="910" y="534" width="100" height="100" rx="1" fill="white" stroke="url(#paint9_linear_449_4246)" stroke-width="4" mask="url(#path-30-inside-4_449_4246)"/>
<path d="M937.445 593L931.565 579.364H934.309L939.041 591.012H938.257L943.073 579.364H945.705L939.769 593H937.445ZM953.987 593.252C952.512 593.252 951.243 592.972 950.179 592.412C949.133 591.833 948.321 591.021 947.743 589.976C947.164 588.912 946.875 587.661 946.875 586.224C946.875 584.805 947.155 583.564 947.715 582.5C948.293 581.436 949.077 580.605 950.067 580.008C951.075 579.411 952.223 579.112 953.511 579.112C954.761 579.112 955.825 579.383 956.703 579.924C957.599 580.465 958.28 581.24 958.747 582.248C959.232 583.237 959.475 584.432 959.475 585.832V586.756H948.863V585.132H957.795L957.319 585.524C957.319 584.068 957.001 582.948 956.367 582.164C955.732 581.361 954.799 580.96 953.567 580.96C952.671 580.96 951.905 581.175 951.271 581.604C950.636 582.015 950.151 582.603 949.815 583.368C949.479 584.115 949.311 584.983 949.311 585.972V586.14C949.311 587.26 949.488 588.203 949.843 588.968C950.216 589.715 950.748 590.284 951.439 590.676C952.129 591.049 952.979 591.236 953.987 591.236C954.789 591.236 955.564 591.115 956.311 590.872C957.076 590.611 957.795 590.209 958.467 589.668L959.251 591.432C958.635 591.992 957.841 592.44 956.871 592.776C955.919 593.093 954.957 593.252 953.987 593.252ZM968.272 593.252C966.611 593.252 965.37 592.823 964.548 591.964C963.727 591.087 963.316 589.836 963.316 588.212V581.324H960.656V579.364H963.316V575.22H965.864V579.364H970.148V581.324H965.864V587.988C965.864 589.015 966.079 589.789 966.508 590.312C966.938 590.835 967.647 591.096 968.636 591.096C968.935 591.096 969.224 591.068 969.504 591.012C969.803 590.937 970.083 590.863 970.344 590.788L970.764 592.692C970.503 592.86 970.13 592.991 969.644 593.084C969.178 593.196 968.72 593.252 968.272 593.252ZM972.651 593V573.26H975.199V582.332H974.835C975.227 581.268 975.862 580.465 976.739 579.924C977.635 579.383 978.653 579.112 979.791 579.112C980.893 579.112 981.798 579.317 982.507 579.728C983.217 580.12 983.749 580.717 984.103 581.52C984.458 582.323 984.635 583.331 984.635 584.544V593H982.087V584.684C982.087 583.881 981.985 583.219 981.779 582.696C981.574 582.173 981.247 581.791 980.799 581.548C980.37 581.305 979.819 581.184 979.147 581.184C978.363 581.184 977.673 581.352 977.075 581.688C976.478 582.024 976.011 582.5 975.675 583.116C975.358 583.732 975.199 584.451 975.199 585.272V593H972.651Z" fill="black"/>
<path d="M929.382 690.04V671.364H931.874V674.5H931.594C931.893 673.473 932.481 672.652 933.358 672.036C934.235 671.42 935.29 671.112 936.522 671.112C937.735 671.112 938.79 671.401 939.686 671.98C940.582 672.54 941.282 673.352 941.786 674.416C942.29 675.461 942.542 676.712 942.542 678.168C942.542 679.605 942.29 680.865 941.786 681.948C941.301 683.012 940.601 683.833 939.686 684.412C938.79 684.972 937.735 685.252 936.522 685.252C935.309 685.252 934.263 684.944 933.386 684.328C932.509 683.712 931.921 682.9 931.622 681.892H931.93V690.04H929.382ZM935.934 683.236C937.166 683.236 938.146 682.807 938.874 681.948C939.602 681.071 939.966 679.811 939.966 678.168C939.966 676.525 939.602 675.275 938.874 674.416C938.146 673.557 937.166 673.128 935.934 673.128C934.702 673.128 933.722 673.557 932.994 674.416C932.266 675.275 931.902 676.525 931.902 678.168C931.902 679.811 932.266 681.071 932.994 681.948C933.722 682.807 934.702 683.236 935.934 683.236ZM951.611 685.252C950.267 685.252 949.101 684.963 948.111 684.384C947.122 683.805 946.357 682.984 945.815 681.92C945.274 680.856 945.003 679.605 945.003 678.168C945.003 676.731 945.274 675.489 945.815 674.444C946.357 673.38 947.122 672.559 948.111 671.98C949.101 671.401 950.267 671.112 951.611 671.112C952.955 671.112 954.122 671.401 955.111 671.98C956.101 672.559 956.866 673.38 957.407 674.444C957.949 675.489 958.219 676.731 958.219 678.168C958.219 679.605 957.949 680.856 957.407 681.92C956.866 682.984 956.101 683.805 955.111 684.384C954.122 684.963 952.955 685.252 951.611 685.252ZM951.611 683.236C952.843 683.236 953.823 682.807 954.551 681.948C955.279 681.071 955.643 679.811 955.643 678.168C955.643 676.525 955.279 675.275 954.551 674.416C953.823 673.557 952.843 673.128 951.611 673.128C950.398 673.128 949.418 673.557 948.671 674.416C947.943 675.275 947.579 676.525 947.579 678.168C947.579 679.811 947.943 681.071 948.671 681.948C949.418 682.807 950.398 683.236 951.611 683.236ZM966.691 685.252C965.497 685.252 964.442 684.972 963.527 684.412C962.631 683.833 961.931 683.012 961.427 681.948C960.923 680.865 960.671 679.605 960.671 678.168C960.671 676.712 960.914 675.461 961.399 674.416C961.903 673.352 962.603 672.54 963.499 671.98C964.414 671.401 965.478 671.112 966.691 671.112C967.905 671.112 968.95 671.42 969.827 672.036C970.705 672.633 971.293 673.436 971.591 674.444H971.283V665.26H973.831V685H971.311V681.836H971.591C971.311 682.881 970.723 683.712 969.827 684.328C968.95 684.944 967.905 685.252 966.691 685.252ZM967.279 683.236C968.511 683.236 969.491 682.807 970.219 681.948C970.947 681.071 971.311 679.811 971.311 678.168C971.311 676.525 970.947 675.275 970.219 674.416C969.491 673.557 968.511 673.128 967.279 673.128C966.066 673.128 965.086 673.557 964.339 674.416C963.611 675.275 963.247 676.525 963.247 678.168C963.247 679.811 963.611 681.071 964.339 681.948C965.086 682.807 966.066 683.236 967.279 683.236ZM986.261 685V680.884H977.245V678.952L986.709 665.26H988.837V678.672H991.749V680.884H988.837V685H986.261ZM986.261 678.672V668.396H986.961L979.401 679.372V678.672H986.261Z" fill="black"/>
<path d="M337 85L865 85" stroke="#292449" stroke-width="4"/>
<path d="M865 145L865 85" stroke="#292449" stroke-width="4"/>
<path d="M337 145L337 85" stroke="#292449" stroke-width="4"/>
<defs>
<filter id="filter0_d_449_4246" x="90" y="168" width="492" height="661" filterUnits="userSpaceOnUse" color-interpolation-filters="sRGB">
<feFlood flood-opacity="0" result="BackgroundImageFix"/>
<feColorMatrix in="SourceAlpha" type="matrix" values="0 0 0 0 0 0 0 0 0 0 0 0 0 0 0 0 0 0 127 0" result="hardAlpha"/>
<feMorphology radius="2" operator="dilate" in="SourceAlpha" result="effect1_dropShadow_449_4246"/>
<feOffset dy="5"/>
<feGaussianBlur stdDeviation="15"/>
<feComposite in2="hardAlpha" operator="out"/>
<feColorMatrix type="matrix" values="0 0 0 0 0.730263 0 0 0 0 0.772123 0 0 0 0 0.834912 0 0 0 0.54 0"/>
<feBlend mode="normal" in2="BackgroundImageFix" result="effect1_dropShadow_449_4246"/>
<feBlend mode="normal" in="SourceGraphic" in2="effect1_dropShadow_449_4246" result="shape"/>
</filter>
<filter id="filter1_d_449_4246" x="618" y="168" width="492" height="661" filterUnits="userSpaceOnUse" color-interpolation-filters="sRGB">
<feFlood flood-opacity="0" result="BackgroundImageFix"/>
<feColorMatrix in="SourceAlpha" type="matrix" values="0 0 0 0 0 0 0 0 0 0 0 0 0 0 0 0 0 0 127 0" result="hardAlpha"/>
<feMorphology radius="2" operator="dilate" in="SourceAlpha" result="effect1_dropShadow_449_4246"/>
<feOffset dy="5"/>
<feGaussianBlur stdDeviation="15"/>
<feComposite in2="hardAlpha" operator="out"/>
<feColorMatrix type="matrix" values="0 0 0 0 0.730263 0 0 0 0 0.772123 0 0 0 0 0.834912 0 0 0 0.54 0"/>
<feBlend mode="normal" in2="BackgroundImageFix" result="effect1_dropShadow_449_4246"/>
<feBlend mode="normal" in="SourceGraphic" in2="effect1_dropShadow_449_4246" result="shape"/>
</filter>
<radialGradient id="paint0_radial_449_4246" cx="0" cy="0" r="1" gradientUnits="userSpaceOnUse" gradientTransform="translate(218.188 83.7931) rotate(33.4452) scale(328.473 413.816)">
<stop offset="0.0995467" stop-color="#B0E07F"/>
<stop offset="0.344281" stop-color="#94DEE0"/>
<stop offset="0.567519" stop-color="#5DA4EF"/>
<stop offset="0.859602" stop-color="#591BBF"/>
</radialGradient>
<linearGradient id="paint1_linear_449_4246" x1="240.547" y1="283.707" x2="289.266" y2="357.287" gradientUnits="userSpaceOnUse">
<stop stop-color="#00A3FF"/>
<stop offset="1" stop-color="#00CCFF"/>
</linearGradient>
<linearGradient id="paint2_linear_449_4246" x1="240.547" y1="423.707" x2="289.266" y2="497.287" gradientUnits="userSpaceOnUse">
<stop stop-color="#00A3FF"/>
<stop offset="1" stop-color="#00CCFF"/>
</linearGradient>
<linearGradient id="paint3_linear_449_4246" x1="206.597" y1="531.133" x2="246.503" y2="544.527" gradientUnits="userSpaceOnUse">
<stop stop-color="#00A3FF"/>
<stop offset="1" stop-color="#00CCFF"/>
</linearGradient>
<linearGradient id="paint4_linear_449_4246" x1="406.597" y1="531.133" x2="446.503" y2="544.527" gradientUnits="userSpaceOnUse">
<stop stop-color="#00A3FF"/>
<stop offset="1" stop-color="#00CCFF"/>
</linearGradient>
<radialGradient id="paint5_radial_449_4246" cx="0" cy="0" r="1" gradientUnits="userSpaceOnUse" gradientTransform="translate(746.188 83.7931) rotate(33.4452) scale(328.473 413.816)">
<stop offset="0.0995467" stop-color="#B0E07F"/>
<stop offset="0.344281" stop-color="#94DEE0"/>
<stop offset="0.567519" stop-color="#5DA4EF"/>
<stop offset="0.859602" stop-color="#591BBF"/>
</radialGradient>
<linearGradient id="paint6_linear_449_4246" x1="768.547" y1="283.707" x2="817.266" y2="357.287" gradientUnits="userSpaceOnUse">
<stop stop-color="#00A3FF"/>
<stop offset="1" stop-color="#00CCFF"/>
</linearGradient>
<linearGradient id="paint7_linear_449_4246" x1="768.547" y1="423.707" x2="817.266" y2="497.287" gradientUnits="userSpaceOnUse">
<stop stop-color="#00A3FF"/>
<stop offset="1" stop-color="#00CCFF"/>
</linearGradient>
<linearGradient id="paint8_linear_449_4246" x1="734.597" y1="531.133" x2="774.503" y2="544.527" gradientUnits="userSpaceOnUse">
<stop stop-color="#00A3FF"/>
<stop offset="1" stop-color="#00CCFF"/>
</linearGradient>
<linearGradient id="paint9_linear_449_4246" x1="934.597" y1="531.133" x2="974.503" y2="544.527" gradientUnits="userSpaceOnUse">
<stop stop-color="#00A3FF"/>
<stop offset="1" stop-color="#00CCFF"/>
</linearGradient>
</defs>
</svg>
