<svg xmlns="http://www.w3.org/2000/svg" viewBox="0 0 100 100"><defs><style>.cls-1{fill:#326de6}.cls-2{fill:#fff}</style></defs><title>16.07.27_K8S_like_dislike</title><g id="Likes_dislikes"><path class="cls-1" d="M49.25 79.34a7.07 7.07 0 0 1-5.38-.5l-18.24-11a7.07 7.07 0 0 1-3-4.52l-2.79-21.1a7.07 7.07 0 0 1 1.69-5.14l14.79-15.3a7.07 7.07 0 0 1 5.07-1.88l21.19 2a7.07 7.07 0 0 1 4.63 2.79l11.67 17.8a7.07 7.07 0 0 1 .71 5.36L72.94 68a7.07 7.07 0 0 1-3.75 3.9z"/><path class="cls-2" d="M74.62 62.94a13.21 13.21 0 0 1-3.86.6 11.3 11.3 0 0 1-5.17-1.23c-6-3-6.47-9.64-6.48-9.91a1.5 1.5 0 1 1 3-.18s.39 5.15 4.85 7.42a9.44 9.44 0 0 0 8.56-.29 1.5 1.5 0 0 1 .34-.15"/><circle class="cls-2" cx="65.23" cy="42.52" r="2.77" transform="rotate(-76.32 65.24 42.516)"/></g></svg>