<svg id="Layer_1" data-name="Layer 1" xmlns="http://www.w3.org/2000/svg" viewBox="0 0 215 127"><defs><style>.cls-1{fill:transparent;}</style></defs><title>kubernetes.io-logos2</title><rect class="cls-1" x="-2.92293" y="-4.57688" width="223.25536" height="134.51136"/><path d="M173.01724,36.02417H168.599a.72106.72106,0,0,0-.71471.71471V57.46553c0,2.20911-1.81927,3.70351-4.48319,3.70351s-4.41822-1.55938-4.41822-3.70351V36.73888a.72106.72106,0,0,0-.71472-.71471H153.785a.72105.72105,0,0,0-.71471.71471V57.46553c0,5.32785,4.48318,9.55115,10.20088,9.55115s10.33084-4.2233,10.33084-9.55115V36.73888a.58881.58881,0,0,0-.38985-.71471Z"/><path d="M192.76928,36.02417h-9.68109a.72106.72106,0,0,0-.71472.71471V65.84715a.72106.72106,0,0,0,.71472.71471h4.41821a.72105.72105,0,0,0,.71471-.71471V54.8016a.59027.59027,0,0,1,.51979-.64974h4.09336a9.09459,9.09459,0,0,0,1.49441-18.12769,6.26236,6.26236,0,0,0-1.55939,0Zm0,12.345h-3.9634a.59027.59027,0,0,1-.64974-.51979V42.45658a.59027.59027,0,0,1,.51978-.64974h4.09336a3.393,3.393,0,0,1,3.24869,3.24869,3.31415,3.31415,0,0,1-3.24869,3.31366Z"/><path d="M33.58342,48.36919H14.676a.72105.72105,0,0,0-.71471.71472v4.41822a.61385.61385,0,0,0,.64973.64973h6.04257a.59028.59028,0,0,1,.64974.51979V78.19218a.72106.72106,0,0,0,.71471.71471H26.4363a.72106.72106,0,0,0,.71471-.71471V54.8016a.69093.69093,0,0,1,.58477-.64974h6.04256a.72105.72105,0,0,0,.71471-.71471V49.01893a.97721.97721,0,0,0-.90963-.64974Z"/><path d="M61.71708,48.36919H57.29886a.72106.72106,0,0,0-.71471.71472V60.12946a.69091.69091,0,0,1-.58477.64973H49.24211a.59027.59027,0,0,1-.64974-.51979V49.08391a.72106.72106,0,0,0-.71471-.71472H43.52441a.72106.72106,0,0,0-.71471.71472V78.19218a.72106.72106,0,0,0,.71471.71471h4.2233c.38984,0,.90964-.32487.90964-.71471V67.14663a.59027.59027,0,0,1,.51979-.64974h6.82224a.69092.69092,0,0,1,.64974.58477V78.19218a.72106.72106,0,0,0,.71471.71471h4.41823a.72106.72106,0,0,0,.71471-.71471V49.08391A.83056.83056,0,0,0,61.71708,48.36919Z"/><path d="M91.08525,57.46553a9.12308,9.12308,0,0,0-9.09634-9.09634H72.37279a.72106.72106,0,0,0-.71471.71472V78.19218a.72106.72106,0,0,0,.71471.71471H76.791a.72106.72106,0,0,0,.71471-.71471V67.14663a.59028.59028,0,0,1,.51979-.64974H79.325a.976.976,0,0,1,.97461.71471l4.48319,10.9156a1.13272,1.13272,0,0,0,1.10456.77968h4.54816a.56948.56948,0,0,0,.64974-.32487.82839.82839,0,0,0,0-.77968L86.34216,66.75678c-.32487-.71471-.38984-1.16953.32487-1.68932C89.78577,62.9883,91.08525,60.64925,91.08525,57.46553Zm-9.09634,3.24869h-3.9634a.59027.59027,0,0,1-.64974-.51979V54.8016a.69093.69093,0,0,1,.58477-.64974h4.02837a3.3012,3.3012,0,0,1,3.24869,3.2487,3.19187,3.19187,0,0,1-3.05376,3.31366Z"/><path d="M115.97022,73.05924H105.57441a.59027.59027,0,0,1-.64974-.51979V67.14663a.59028.59028,0,0,1,.51979-.64974h7.73189a.72106.72106,0,0,0,.71472-.71471V61.364a.72106.72106,0,0,0-.71472-.71471h-7.60194a.59027.59027,0,0,1-.64974-.51979V54.73663a.69092.69092,0,0,1,.58476-.64974h10.46079a.72106.72106,0,0,0,.71472-.71471V48.954a.72106.72106,0,0,0-.71472-.71471H99.79174a.72106.72106,0,0,0-.71471.71471V78.06223a.72106.72106,0,0,0,.71471.71471h16.17848a.72106.72106,0,0,0,.71472-.71471V73.644A.7613.7613,0,0,0,115.97022,73.05924Z"/><path d="M135.26744,48.36919h-9.29126a.72106.72106,0,0,0-.71471.71472V78.19218a.72106.72106,0,0,0,.71471.71471h9.29126c5.003,0,8.96639-3.9634,9.61613-9.55115a47.00813,47.00813,0,0,0,0-11.30545C144.23383,52.3326,140.27042,48.36919,135.26744,48.36919Zm3.76849,20.98655a3.95536,3.95536,0,0,1-3.83346,3.76848h-3.50858a.59027.59027,0,0,1-.64974-.51979V54.8016a.69093.69093,0,0,1,.58476-.64974h3.57356a3.95536,3.95536,0,0,1,3.83346,3.76849A48.09012,48.09012,0,0,1,139.03593,69.35574Z"/></svg>