<svg width="1279" height="815" viewBox="0 0 1279 815" fill="none" xmlns="http://www.w3.org/2000/svg">
<rect width="1279" height="815" fill="white"/>
<g filter="url(#filter0_d_467_308)">
<rect x="1218" y="62" width="690" height="1157" rx="10" transform="rotate(90 1218 62)" fill="white"/>
<rect x="1217.5" y="62.5" width="689" height="1156" rx="9.5" transform="rotate(90 1217.5 62.5)" stroke="#E3E7EB"/>
</g>
<rect x="677" y="209" width="482" height="336" rx="9" fill="white" stroke="url(#paint0_linear_467_308)" stroke-width="2"/>
<path d="M708.464 261V243.472H701.38V241.26H718.152V243.472H711.068V261H708.464ZM724.459 261.252C722.985 261.252 721.715 260.972 720.651 260.412C719.606 259.833 718.794 259.021 718.215 257.976C717.637 256.912 717.347 255.661 717.347 254.224C717.347 252.805 717.627 251.564 718.187 250.5C718.766 249.436 719.55 248.605 720.539 248.008C721.547 247.411 722.695 247.112 723.983 247.112C725.234 247.112 726.298 247.383 727.175 247.924C728.071 248.465 728.753 249.24 729.219 250.248C729.705 251.237 729.947 252.432 729.947 253.832V254.756H719.335V253.132H728.267L727.791 253.524C727.791 252.068 727.474 250.948 726.839 250.164C726.205 249.361 725.271 248.96 724.039 248.96C723.143 248.96 722.378 249.175 721.743 249.604C721.109 250.015 720.623 250.603 720.287 251.368C719.951 252.115 719.783 252.983 719.783 253.972V254.14C719.783 255.26 719.961 256.203 720.315 256.968C720.689 257.715 721.221 258.284 721.911 258.676C722.602 259.049 723.451 259.236 724.459 259.236C725.262 259.236 726.037 259.115 726.783 258.872C727.549 258.611 728.267 258.209 728.939 257.668L729.723 259.432C729.107 259.992 728.314 260.44 727.343 260.776C726.391 261.093 725.43 261.252 724.459 261.252ZM733.116 261V247.364H735.608V250.332H735.3C735.692 249.268 736.327 248.465 737.204 247.924C738.1 247.383 739.118 247.112 740.256 247.112C741.358 247.112 742.263 247.308 742.972 247.7C743.682 248.092 744.214 248.699 744.568 249.52C744.923 250.323 745.1 251.331 745.1 252.544V261H742.552V252.684C742.552 251.881 742.45 251.219 742.244 250.696C742.039 250.173 741.712 249.791 741.264 249.548C740.835 249.305 740.284 249.184 739.612 249.184C738.828 249.184 738.138 249.352 737.54 249.688C736.943 250.024 736.476 250.5 736.14 251.116C735.823 251.732 735.664 252.451 735.664 253.272V261H733.116ZM753.48 261.252C752.546 261.252 751.697 261.065 750.932 260.692C750.185 260.319 749.597 259.815 749.168 259.18C748.757 258.545 748.552 257.836 748.552 257.052C748.552 256.044 748.804 255.251 749.308 254.672C749.812 254.093 750.661 253.683 751.856 253.44C753.05 253.179 754.656 253.048 756.672 253.048H757.988V254.672H756.728C755.645 254.672 754.74 254.709 754.012 254.784C753.284 254.859 752.705 254.98 752.276 255.148C751.846 255.316 751.538 255.549 751.352 255.848C751.165 256.128 751.072 256.483 751.072 256.912C751.072 257.64 751.324 258.237 751.828 258.704C752.35 259.171 753.06 259.404 753.956 259.404C754.665 259.404 755.29 259.236 755.832 258.9C756.373 258.545 756.802 258.079 757.12 257.5C757.437 256.903 757.596 256.221 757.596 255.456V252.236C757.596 251.135 757.372 250.341 756.924 249.856C756.476 249.352 755.72 249.1 754.656 249.1C753.872 249.1 753.088 249.221 752.304 249.464C751.538 249.707 750.745 250.08 749.924 250.584L749.112 248.764C749.597 248.428 750.148 248.139 750.764 247.896C751.398 247.635 752.052 247.439 752.724 247.308C753.414 247.177 754.077 247.112 754.712 247.112C755.925 247.112 756.924 247.308 757.708 247.7C758.492 248.073 759.08 248.661 759.472 249.464C759.864 250.248 760.06 251.256 760.06 252.488V261H757.652V257.892H757.904C757.754 258.583 757.474 259.18 757.064 259.684C756.653 260.188 756.14 260.58 755.524 260.86C754.926 261.121 754.245 261.252 753.48 261.252ZM764.069 261V247.364H766.561V250.332H766.253C766.645 249.268 767.28 248.465 768.157 247.924C769.053 247.383 770.071 247.112 771.209 247.112C772.311 247.112 773.216 247.308 773.925 247.7C774.635 248.092 775.167 248.699 775.521 249.52C775.876 250.323 776.053 251.331 776.053 252.544V261H773.505V252.684C773.505 251.881 773.403 251.219 773.197 250.696C772.992 250.173 772.665 249.791 772.217 249.548C771.788 249.305 771.237 249.184 770.565 249.184C769.781 249.184 769.091 249.352 768.493 249.688C767.896 250.024 767.429 250.5 767.093 251.116C766.776 251.732 766.617 252.451 766.617 253.272V261H764.069ZM785.749 261.252C784.087 261.252 782.846 260.823 782.025 259.964C781.203 259.087 780.793 257.836 780.793 256.212V249.324H778.133V247.364H780.793V243.22H783.341V247.364H787.625V249.324H783.341V255.988C783.341 257.015 783.555 257.789 783.985 258.312C784.414 258.835 785.123 259.096 786.113 259.096C786.411 259.096 786.701 259.068 786.981 259.012C787.279 258.937 787.559 258.863 787.821 258.788L788.241 260.692C787.979 260.86 787.606 260.991 787.121 261.084C786.654 261.196 786.197 261.252 785.749 261.252ZM801.069 261L795.945 247.364H798.577L802.665 258.956H801.993L806.221 247.364H808.265L812.409 258.956H811.765L815.909 247.364H818.401L813.277 261H810.897L806.529 249.072H807.817L803.449 261H801.069ZM826.604 261.252C825.26 261.252 824.093 260.963 823.104 260.384C822.114 259.805 821.349 258.984 820.808 257.92C820.266 256.856 819.996 255.605 819.996 254.168C819.996 252.731 820.266 251.489 820.808 250.444C821.349 249.38 822.114 248.559 823.104 247.98C824.093 247.401 825.26 247.112 826.604 247.112C827.948 247.112 829.114 247.401 830.104 247.98C831.093 248.559 831.858 249.38 832.4 250.444C832.941 251.489 833.212 252.731 833.212 254.168C833.212 255.605 832.941 256.856 832.4 257.92C831.858 258.984 831.093 259.805 830.104 260.384C829.114 260.963 827.948 261.252 826.604 261.252ZM826.604 259.236C827.836 259.236 828.816 258.807 829.544 257.948C830.272 257.071 830.636 255.811 830.636 254.168C830.636 252.525 830.272 251.275 829.544 250.416C828.816 249.557 827.836 249.128 826.604 249.128C825.39 249.128 824.41 249.557 823.664 250.416C822.936 251.275 822.572 252.525 822.572 254.168C822.572 255.811 822.936 257.071 823.664 257.948C824.41 258.807 825.39 259.236 826.604 259.236ZM836.476 261V247.364H838.968V250.612H838.688C838.986 249.492 839.528 248.652 840.312 248.092C841.096 247.513 842.132 247.177 843.42 247.084L844.288 247L844.484 249.212L842.888 249.352C841.656 249.483 840.704 249.884 840.032 250.556C839.378 251.228 839.052 252.152 839.052 253.328V261H836.476ZM846.702 261V241.26H849.25V253.384H849.306L855.438 247.364H858.63L851.294 254.56V253.3L859.162 261H855.97L849.306 254.672H849.25V261H846.702ZM866.893 261.252C865.418 261.252 864.149 260.972 863.085 260.412C862.039 259.833 861.227 259.021 860.649 257.976C860.07 256.912 859.781 255.661 859.781 254.224C859.781 252.805 860.061 251.564 860.621 250.5C861.199 249.436 861.983 248.605 862.973 248.008C863.981 247.411 865.129 247.112 866.417 247.112C867.667 247.112 868.731 247.383 869.609 247.924C870.505 248.465 871.186 249.24 871.653 250.248C872.138 251.237 872.381 252.432 872.381 253.832V254.756H861.769V253.132H870.701L870.225 253.524C870.225 252.068 869.907 250.948 869.273 250.164C868.638 249.361 867.705 248.96 866.473 248.96C865.577 248.96 864.811 249.175 864.177 249.604C863.542 250.015 863.057 250.603 862.721 251.368C862.385 252.115 862.217 252.983 862.217 253.972V254.14C862.217 255.26 862.394 256.203 862.749 256.968C863.122 257.715 863.654 258.284 864.345 258.676C865.035 259.049 865.885 259.236 866.893 259.236C867.695 259.236 868.47 259.115 869.217 258.872C869.982 258.611 870.701 258.209 871.373 257.668L872.157 259.432C871.541 259.992 870.747 260.44 869.777 260.776C868.825 261.093 867.863 261.252 866.893 261.252ZM875.55 261V247.364H878.042V250.612H877.762C878.061 249.492 878.602 248.652 879.386 248.092C880.17 247.513 881.206 247.177 882.494 247.084L883.362 247L883.558 249.212L881.962 249.352C880.73 249.483 879.778 249.884 879.106 250.556C878.453 251.228 878.126 252.152 878.126 253.328V261H875.55Z" fill="black"/>
<rect x="142" y="293" width="358" height="108" rx="9" fill="white" stroke="url(#paint1_linear_467_308)" stroke-width="2"/>
<path d="M301.339 356.252C299.379 356.252 297.699 355.841 296.299 355.02C294.899 354.199 293.817 353.032 293.051 351.52C292.305 349.989 291.931 348.188 291.931 346.116C291.931 344.044 292.305 342.252 293.051 340.74C293.817 339.228 294.899 338.061 296.299 337.24C297.699 336.419 299.379 336.008 301.339 336.008C302.683 336.008 303.934 336.223 305.091 336.652C306.267 337.063 307.247 337.679 308.031 338.5L307.079 340.572C306.221 339.807 305.334 339.247 304.419 338.892C303.505 338.537 302.497 338.36 301.395 338.36C299.23 338.36 297.569 339.032 296.411 340.376C295.273 341.72 294.703 343.633 294.703 346.116C294.703 348.599 295.273 350.521 296.411 351.884C297.569 353.228 299.23 353.9 301.395 353.9C302.497 353.9 303.505 353.723 304.419 353.368C305.334 353.013 306.221 352.453 307.079 351.688L308.031 353.76C307.247 354.563 306.267 355.179 305.091 355.608C303.934 356.037 302.683 356.252 301.339 356.252ZM319.878 356.252C317.918 356.252 316.238 355.841 314.838 355.02C313.438 354.199 312.356 353.032 311.59 351.52C310.844 349.989 310.47 348.188 310.47 346.116C310.47 344.044 310.844 342.252 311.59 340.74C312.356 339.228 313.438 338.061 314.838 337.24C316.238 336.419 317.918 336.008 319.878 336.008C321.222 336.008 322.473 336.223 323.63 336.652C324.806 337.063 325.786 337.679 326.57 338.5L325.618 340.572C324.76 339.807 323.873 339.247 322.958 338.892C322.044 338.537 321.036 338.36 319.934 338.36C317.769 338.36 316.108 339.032 314.95 340.376C313.812 341.72 313.242 343.633 313.242 346.116C313.242 348.599 313.812 350.521 314.95 351.884C316.108 353.228 317.769 353.9 319.934 353.9C321.036 353.9 322.044 353.723 322.958 353.368C323.873 353.013 324.76 352.453 325.618 351.688L326.57 353.76C325.786 354.563 324.806 355.179 323.63 355.608C322.473 356.037 321.222 356.252 319.878 356.252ZM330.122 356V336.26H332.306L340.174 351.016H339.306L347.146 336.26H349.302V356H346.95V339.872H347.566L340.538 352.976H338.914L331.802 339.844H332.474V356H330.122Z" fill="black"/>
<rect x="732" y="303" width="372" height="89" rx="9" fill="white" stroke="url(#paint2_linear_467_308)" stroke-width="2"/>
<path d="M862.2 356.252C860.819 356.252 859.624 355.963 858.616 355.384C857.608 354.787 856.833 353.956 856.292 352.892C855.751 351.809 855.48 350.54 855.48 349.084C855.48 347.647 855.751 346.405 856.292 345.36C856.833 344.315 857.608 343.512 858.616 342.952C859.624 342.392 860.819 342.112 862.2 342.112C863.059 342.112 863.899 342.261 864.72 342.56C865.56 342.859 866.251 343.279 866.792 343.82L865.952 345.612C865.411 345.127 864.823 344.763 864.188 344.52C863.553 344.277 862.947 344.156 862.368 344.156C861.005 344.156 859.951 344.585 859.204 345.444C858.457 346.303 858.084 347.525 858.084 349.112C858.084 350.699 858.457 351.949 859.204 352.864C859.951 353.76 861.005 354.208 862.368 354.208C862.947 354.208 863.553 354.087 864.188 353.844C864.823 353.601 865.411 353.228 865.952 352.724L866.792 354.544C866.251 355.085 865.551 355.505 864.692 355.804C863.852 356.103 863.021 356.252 862.2 356.252ZM869.308 356V342.364H871.8V345.332H871.492C871.884 344.268 872.518 343.465 873.396 342.924C874.292 342.383 875.309 342.112 876.448 342.112C877.549 342.112 878.454 342.308 879.164 342.7C879.873 343.092 880.405 343.699 880.76 344.52C881.114 345.323 881.292 346.331 881.292 347.544V356H878.744V347.684C878.744 346.881 878.641 346.219 878.436 345.696C878.23 345.173 877.904 344.791 877.456 344.548C877.026 344.305 876.476 344.184 875.804 344.184C875.02 344.184 874.329 344.352 873.732 344.688C873.134 345.024 872.668 345.5 872.332 346.116C872.014 346.732 871.856 347.451 871.856 348.272V356H869.308ZM885.079 339.088V336.344H888.131V339.088H885.079ZM885.331 356V342.364H887.879V356H885.331ZM891.92 349.588V347.488H899.872V349.588H891.92ZM903.925 361.04V342.364H906.417V345.5H906.137C906.436 344.473 907.024 343.652 907.901 343.036C908.778 342.42 909.833 342.112 911.065 342.112C912.278 342.112 913.333 342.401 914.229 342.98C915.125 343.54 915.825 344.352 916.329 345.416C916.833 346.461 917.085 347.712 917.085 349.168C917.085 350.605 916.833 351.865 916.329 352.948C915.844 354.012 915.144 354.833 914.229 355.412C913.333 355.972 912.278 356.252 911.065 356.252C909.852 356.252 908.806 355.944 907.929 355.328C907.052 354.712 906.464 353.9 906.165 352.892H906.473V361.04H903.925ZM910.477 354.236C911.709 354.236 912.689 353.807 913.417 352.948C914.145 352.071 914.509 350.811 914.509 349.168C914.509 347.525 914.145 346.275 913.417 345.416C912.689 344.557 911.709 344.128 910.477 344.128C909.245 344.128 908.265 344.557 907.537 345.416C906.809 346.275 906.445 347.525 906.445 349.168C906.445 350.811 906.809 352.071 907.537 352.948C908.265 353.807 909.245 354.236 910.477 354.236ZM924.698 356.252C923.242 356.252 922.15 355.841 921.422 355.02C920.713 354.18 920.358 352.976 920.358 351.408V336.26H922.906V351.212C922.906 351.847 922.99 352.388 923.158 352.836C923.345 353.265 923.606 353.583 923.942 353.788C924.297 353.993 924.736 354.096 925.258 354.096C925.464 354.096 925.669 354.087 925.874 354.068C926.098 354.049 926.304 354.012 926.49 353.956L926.434 356.028C926.136 356.103 925.837 356.159 925.538 356.196C925.258 356.233 924.978 356.252 924.698 356.252ZM933.652 356.252C932.551 356.252 931.627 356.047 930.88 355.636C930.152 355.225 929.611 354.619 929.256 353.816C928.902 353.013 928.724 352.005 928.724 350.792V342.364H931.272V350.792C931.272 351.557 931.375 352.192 931.58 352.696C931.786 353.2 932.103 353.573 932.532 353.816C932.98 354.059 933.54 354.18 934.212 354.18C934.959 354.18 935.612 354.012 936.172 353.676C936.732 353.34 937.171 352.864 937.488 352.248C937.806 351.632 937.964 350.913 937.964 350.092V342.364H940.512V356H938.02V352.92H938.384C938.011 354.003 937.404 354.833 936.564 355.412C935.743 355.972 934.772 356.252 933.652 356.252ZM950.744 361.292C949.531 361.292 948.402 361.143 947.356 360.844C946.311 360.545 945.378 360.088 944.556 359.472L945.368 357.624C945.928 357.997 946.479 358.305 947.02 358.548C947.58 358.809 948.15 358.996 948.728 359.108C949.326 359.22 949.942 359.276 950.576 359.276C951.902 359.276 952.891 358.931 953.544 358.24C954.216 357.568 954.552 356.579 954.552 355.272V352.248H954.804C954.543 353.293 953.955 354.124 953.04 354.74C952.144 355.356 951.099 355.664 949.904 355.664C948.672 355.664 947.599 355.384 946.684 354.824C945.77 354.245 945.06 353.452 944.556 352.444C944.052 351.417 943.8 350.232 943.8 348.888C943.8 347.525 944.052 346.34 944.556 345.332C945.06 344.305 945.77 343.512 946.684 342.952C947.599 342.392 948.672 342.112 949.904 342.112C951.118 342.112 952.172 342.42 953.068 343.036C953.964 343.652 954.543 344.483 954.804 345.528H954.552V342.364H957.044V354.936C957.044 356.336 956.802 357.512 956.316 358.464C955.85 359.416 955.15 360.125 954.216 360.592C953.283 361.059 952.126 361.292 950.744 361.292ZM950.464 353.648C951.715 353.648 952.704 353.219 953.432 352.36C954.16 351.501 954.524 350.344 954.524 348.888C954.524 347.413 954.16 346.256 953.432 345.416C952.704 344.557 951.715 344.128 950.464 344.128C949.214 344.128 948.215 344.557 947.468 345.416C946.74 346.256 946.376 347.413 946.376 348.888C946.376 350.344 946.74 351.501 947.468 352.36C948.215 353.219 949.214 353.648 950.464 353.648ZM960.876 339.088V336.344H963.928V339.088H960.876ZM961.128 356V342.364H963.676V356H961.128ZM967.773 356V342.364H970.265V345.332H969.957C970.349 344.268 970.983 343.465 971.861 342.924C972.757 342.383 973.774 342.112 974.913 342.112C976.014 342.112 976.919 342.308 977.629 342.7C978.338 343.092 978.87 343.699 979.225 344.52C979.579 345.323 979.757 346.331 979.757 347.544V356H977.209V347.684C977.209 346.881 977.106 346.219 976.901 345.696C976.695 345.173 976.369 344.791 975.921 344.548C975.491 344.305 974.941 344.184 974.269 344.184C973.485 344.184 972.794 344.352 972.197 344.688C971.599 345.024 971.133 345.5 970.797 346.116C970.479 346.732 970.321 347.451 970.321 348.272V356H967.773Z" fill="black"/>
<rect x="732" y="414" width="372" height="89" rx="9" fill="white" stroke="url(#paint3_linear_467_308)" stroke-width="2"/>
<path d="M872.339 467.252C870.957 467.252 869.763 466.963 868.755 466.384C867.747 465.787 866.972 464.956 866.431 463.892C865.889 462.809 865.619 461.54 865.619 460.084C865.619 458.647 865.889 457.405 866.431 456.36C866.972 455.315 867.747 454.512 868.755 453.952C869.763 453.392 870.957 453.112 872.339 453.112C873.197 453.112 874.037 453.261 874.859 453.56C875.699 453.859 876.389 454.279 876.931 454.82L876.091 456.612C875.549 456.127 874.961 455.763 874.327 455.52C873.692 455.277 873.085 455.156 872.507 455.156C871.144 455.156 870.089 455.585 869.343 456.444C868.596 457.303 868.223 458.525 868.223 460.112C868.223 461.699 868.596 462.949 869.343 463.864C870.089 464.76 871.144 465.208 872.507 465.208C873.085 465.208 873.692 465.087 874.327 464.844C874.961 464.601 875.549 464.228 876.091 463.724L876.931 465.544C876.389 466.085 875.689 466.505 874.831 466.804C873.991 467.103 873.16 467.252 872.339 467.252ZM884.15 467.252C883.441 467.252 882.741 467.187 882.05 467.056C881.378 466.925 880.753 466.739 880.174 466.496C879.614 466.235 879.12 465.927 878.69 465.572L879.446 463.808C879.894 464.144 880.38 464.433 880.902 464.676C881.425 464.9 881.966 465.068 882.526 465.18C883.086 465.292 883.646 465.348 884.206 465.348C885.233 465.348 886.008 465.161 886.53 464.788C887.053 464.415 887.314 463.92 887.314 463.304C887.314 462.781 887.137 462.38 886.782 462.1C886.446 461.801 885.914 461.577 885.186 461.428L882.582 460.896C881.425 460.635 880.548 460.205 879.95 459.608C879.372 458.992 879.082 458.208 879.082 457.256C879.082 456.416 879.306 455.688 879.754 455.072C880.221 454.437 880.865 453.952 881.686 453.616C882.508 453.28 883.45 453.112 884.514 453.112C885.149 453.112 885.765 453.177 886.362 453.308C886.96 453.439 887.52 453.625 888.042 453.868C888.565 454.111 889.004 454.428 889.358 454.82L888.574 456.556C888.22 456.22 887.818 455.94 887.37 455.716C886.922 455.492 886.456 455.324 885.97 455.212C885.485 455.081 885 455.016 884.514 455.016C883.506 455.016 882.741 455.212 882.218 455.604C881.714 455.996 881.462 456.509 881.462 457.144C881.462 457.629 881.612 458.031 881.91 458.348C882.228 458.665 882.722 458.899 883.394 459.048L885.998 459.58C887.212 459.841 888.126 460.261 888.742 460.84C889.358 461.4 889.666 462.165 889.666 463.136C889.666 463.995 889.433 464.732 888.966 465.348C888.518 465.964 887.874 466.44 887.034 466.776C886.213 467.093 885.252 467.252 884.15 467.252ZM892.73 450.088V447.344H895.782V450.088H892.73ZM892.982 467V453.364H895.53V467H892.982ZM899.57 460.588V458.488H907.522V460.588H899.57ZM911.575 467V453.364H914.067V456.332H913.759C914.151 455.268 914.786 454.465 915.663 453.924C916.559 453.383 917.577 453.112 918.715 453.112C919.817 453.112 920.722 453.308 921.431 453.7C922.141 454.092 922.673 454.699 923.027 455.52C923.382 456.323 923.559 457.331 923.559 458.544V467H921.011V458.684C921.011 457.881 920.909 457.219 920.703 456.696C920.498 456.173 920.171 455.791 919.723 455.548C919.294 455.305 918.743 455.184 918.071 455.184C917.287 455.184 916.597 455.352 915.999 455.688C915.402 456.024 914.935 456.5 914.599 457.116C914.282 457.732 914.123 458.451 914.123 459.272V467H911.575ZM933.395 467.252C932.051 467.252 930.884 466.963 929.895 466.384C928.905 465.805 928.14 464.984 927.599 463.92C927.057 462.856 926.787 461.605 926.787 460.168C926.787 458.731 927.057 457.489 927.599 456.444C928.14 455.38 928.905 454.559 929.895 453.98C930.884 453.401 932.051 453.112 933.395 453.112C934.739 453.112 935.905 453.401 936.895 453.98C937.884 454.559 938.649 455.38 939.191 456.444C939.732 457.489 940.003 458.731 940.003 460.168C940.003 461.605 939.732 462.856 939.191 463.92C938.649 464.984 937.884 465.805 936.895 466.384C935.905 466.963 934.739 467.252 933.395 467.252ZM933.395 465.236C934.627 465.236 935.607 464.807 936.335 463.948C937.063 463.071 937.427 461.811 937.427 460.168C937.427 458.525 937.063 457.275 936.335 456.416C935.607 455.557 934.627 455.128 933.395 455.128C932.181 455.128 931.201 455.557 930.455 456.416C929.727 457.275 929.363 458.525 929.363 460.168C929.363 461.811 929.727 463.071 930.455 463.948C931.201 464.807 932.181 465.236 933.395 465.236ZM948.475 467.252C947.28 467.252 946.225 466.972 945.311 466.412C944.415 465.833 943.715 465.012 943.211 463.948C942.707 462.865 942.455 461.605 942.455 460.168C942.455 458.712 942.697 457.461 943.183 456.416C943.687 455.352 944.387 454.54 945.283 453.98C946.197 453.401 947.261 453.112 948.475 453.112C949.688 453.112 950.733 453.42 951.611 454.036C952.488 454.633 953.076 455.436 953.375 456.444H953.067V447.26H955.615V467H953.095V463.836H953.375C953.095 464.881 952.507 465.712 951.611 466.328C950.733 466.944 949.688 467.252 948.475 467.252ZM949.063 465.236C950.295 465.236 951.275 464.807 952.003 463.948C952.731 463.071 953.095 461.811 953.095 460.168C953.095 458.525 952.731 457.275 952.003 456.416C951.275 455.557 950.295 455.128 949.063 455.128C947.849 455.128 946.869 455.557 946.123 456.416C945.395 457.275 945.031 458.525 945.031 460.168C945.031 461.811 945.395 463.071 946.123 463.948C946.869 464.807 947.849 465.236 949.063 465.236ZM966 467.252C964.526 467.252 963.256 466.972 962.192 466.412C961.147 465.833 960.335 465.021 959.756 463.976C959.178 462.912 958.888 461.661 958.888 460.224C958.888 458.805 959.168 457.564 959.728 456.5C960.307 455.436 961.091 454.605 962.08 454.008C963.088 453.411 964.236 453.112 965.524 453.112C966.775 453.112 967.839 453.383 968.716 453.924C969.612 454.465 970.294 455.24 970.76 456.248C971.246 457.237 971.488 458.432 971.488 459.832V460.756H960.876V459.132H969.808L969.332 459.524C969.332 458.068 969.015 456.948 968.38 456.164C967.746 455.361 966.812 454.96 965.58 454.96C964.684 454.96 963.919 455.175 963.284 455.604C962.65 456.015 962.164 456.603 961.828 457.368C961.492 458.115 961.324 458.983 961.324 459.972V460.14C961.324 461.26 961.502 462.203 961.856 462.968C962.23 463.715 962.762 464.284 963.452 464.676C964.143 465.049 964.992 465.236 966 465.236C966.803 465.236 967.578 465.115 968.324 464.872C969.09 464.611 969.808 464.209 970.48 463.668L971.264 465.432C970.648 465.992 969.855 466.44 968.884 466.776C967.932 467.093 966.971 467.252 966 467.252Z" fill="black"/>
<rect x="142" y="153" width="358" height="108" rx="9" fill="white" stroke="url(#paint4_linear_467_308)" stroke-width="2"/>
<path d="M198.335 216V198.472H191.251V196.26H208.023V198.472H200.939V216H198.335ZM214.33 216.252C212.856 216.252 211.586 215.972 210.522 215.412C209.477 214.833 208.665 214.021 208.086 212.976C207.508 211.912 207.218 210.661 207.218 209.224C207.218 207.805 207.498 206.564 208.058 205.5C208.637 204.436 209.421 203.605 210.41 203.008C211.418 202.411 212.566 202.112 213.854 202.112C215.105 202.112 216.169 202.383 217.046 202.924C217.942 203.465 218.624 204.24 219.09 205.248C219.576 206.237 219.818 207.432 219.818 208.832V209.756H209.206V208.132H218.138L217.662 208.524C217.662 207.068 217.345 205.948 216.71 205.164C216.076 204.361 215.142 203.96 213.91 203.96C213.014 203.96 212.249 204.175 211.614 204.604C210.98 205.015 210.494 205.603 210.158 206.368C209.822 207.115 209.654 207.983 209.654 208.972V209.14C209.654 210.26 209.832 211.203 210.186 211.968C210.56 212.715 211.092 213.284 211.782 213.676C212.473 214.049 213.322 214.236 214.33 214.236C215.133 214.236 215.908 214.115 216.654 213.872C217.42 213.611 218.138 213.209 218.81 212.668L219.594 214.432C218.978 214.992 218.185 215.44 217.214 215.776C216.262 216.093 215.301 216.252 214.33 216.252ZM222.987 216V202.364H225.479V205.332H225.171C225.563 204.268 226.198 203.465 227.075 202.924C227.971 202.383 228.989 202.112 230.127 202.112C231.229 202.112 232.134 202.308 232.843 202.7C233.553 203.092 234.085 203.699 234.439 204.52C234.794 205.323 234.971 206.331 234.971 207.544V216H232.423V207.684C232.423 206.881 232.321 206.219 232.115 205.696C231.91 205.173 231.583 204.791 231.135 204.548C230.706 204.305 230.155 204.184 229.483 204.184C228.699 204.184 228.009 204.352 227.411 204.688C226.814 205.024 226.347 205.5 226.011 206.116C225.694 206.732 225.535 207.451 225.535 208.272V216H222.987ZM243.351 216.252C242.417 216.252 241.568 216.065 240.803 215.692C240.056 215.319 239.468 214.815 239.039 214.18C238.628 213.545 238.423 212.836 238.423 212.052C238.423 211.044 238.675 210.251 239.179 209.672C239.683 209.093 240.532 208.683 241.727 208.44C242.921 208.179 244.527 208.048 246.543 208.048H247.859V209.672H246.599C245.516 209.672 244.611 209.709 243.883 209.784C243.155 209.859 242.576 209.98 242.147 210.148C241.717 210.316 241.409 210.549 241.223 210.848C241.036 211.128 240.943 211.483 240.943 211.912C240.943 212.64 241.195 213.237 241.699 213.704C242.221 214.171 242.931 214.404 243.827 214.404C244.536 214.404 245.161 214.236 245.703 213.9C246.244 213.545 246.673 213.079 246.991 212.5C247.308 211.903 247.467 211.221 247.467 210.456V207.236C247.467 206.135 247.243 205.341 246.795 204.856C246.347 204.352 245.591 204.1 244.527 204.1C243.743 204.1 242.959 204.221 242.175 204.464C241.409 204.707 240.616 205.08 239.795 205.584L238.983 203.764C239.468 203.428 240.019 203.139 240.635 202.896C241.269 202.635 241.923 202.439 242.595 202.308C243.285 202.177 243.948 202.112 244.583 202.112C245.796 202.112 246.795 202.308 247.579 202.7C248.363 203.073 248.951 203.661 249.343 204.464C249.735 205.248 249.931 206.256 249.931 207.488V216H247.523V212.892H247.775C247.625 213.583 247.345 214.18 246.935 214.684C246.524 215.188 246.011 215.58 245.395 215.86C244.797 216.121 244.116 216.252 243.351 216.252ZM253.94 216V202.364H256.432V205.332H256.124C256.516 204.268 257.151 203.465 258.028 202.924C258.924 202.383 259.942 202.112 261.08 202.112C262.182 202.112 263.087 202.308 263.796 202.7C264.506 203.092 265.038 203.699 265.392 204.52C265.747 205.323 265.924 206.331 265.924 207.544V216H263.376V207.684C263.376 206.881 263.274 206.219 263.068 205.696C262.863 205.173 262.536 204.791 262.088 204.548C261.659 204.305 261.108 204.184 260.436 204.184C259.652 204.184 258.962 204.352 258.364 204.688C257.767 205.024 257.3 205.5 256.964 206.116C256.647 206.732 256.488 207.451 256.488 208.272V216H253.94ZM275.62 216.252C273.959 216.252 272.717 215.823 271.896 214.964C271.075 214.087 270.664 212.836 270.664 211.212V204.324H268.004V202.364H270.664V198.22H273.212V202.364H277.496V204.324H273.212V210.988C273.212 212.015 273.427 212.789 273.856 213.312C274.285 213.835 274.995 214.096 275.984 214.096C276.283 214.096 276.572 214.068 276.852 214.012C277.151 213.937 277.431 213.863 277.692 213.788L278.112 215.692C277.851 215.86 277.477 215.991 276.992 216.084C276.525 216.196 276.068 216.252 275.62 216.252ZM293.181 216.252C291.799 216.252 290.605 215.963 289.597 215.384C288.589 214.787 287.814 213.956 287.273 212.892C286.731 211.809 286.461 210.54 286.461 209.084C286.461 207.647 286.731 206.405 287.273 205.36C287.814 204.315 288.589 203.512 289.597 202.952C290.605 202.392 291.799 202.112 293.181 202.112C294.039 202.112 294.879 202.261 295.701 202.56C296.541 202.859 297.231 203.279 297.773 203.82L296.933 205.612C296.391 205.127 295.803 204.763 295.169 204.52C294.534 204.277 293.927 204.156 293.349 204.156C291.986 204.156 290.931 204.585 290.185 205.444C289.438 206.303 289.065 207.525 289.065 209.112C289.065 210.699 289.438 211.949 290.185 212.864C290.931 213.76 291.986 214.208 293.349 214.208C293.927 214.208 294.534 214.087 295.169 213.844C295.803 213.601 296.391 213.228 296.933 212.724L297.773 214.544C297.231 215.085 296.531 215.505 295.673 215.804C294.833 216.103 294.002 216.252 293.181 216.252ZM305.811 216.252C304.467 216.252 303.3 215.963 302.311 215.384C301.321 214.805 300.556 213.984 300.015 212.92C299.473 211.856 299.203 210.605 299.203 209.168C299.203 207.731 299.473 206.489 300.015 205.444C300.556 204.38 301.321 203.559 302.311 202.98C303.3 202.401 304.467 202.112 305.811 202.112C307.155 202.112 308.321 202.401 309.311 202.98C310.3 203.559 311.065 204.38 311.607 205.444C312.148 206.489 312.419 207.731 312.419 209.168C312.419 210.605 312.148 211.856 311.607 212.92C311.065 213.984 310.3 214.805 309.311 215.384C308.321 215.963 307.155 216.252 305.811 216.252ZM305.811 214.236C307.043 214.236 308.023 213.807 308.751 212.948C309.479 212.071 309.843 210.811 309.843 209.168C309.843 207.525 309.479 206.275 308.751 205.416C308.023 204.557 307.043 204.128 305.811 204.128C304.597 204.128 303.617 204.557 302.871 205.416C302.143 206.275 301.779 207.525 301.779 209.168C301.779 210.811 302.143 212.071 302.871 212.948C303.617 213.807 304.597 214.236 305.811 214.236ZM315.683 216V202.364H318.175V205.332H317.867C318.259 204.268 318.893 203.465 319.771 202.924C320.667 202.383 321.684 202.112 322.823 202.112C323.924 202.112 324.829 202.308 325.539 202.7C326.248 203.092 326.78 203.699 327.135 204.52C327.489 205.323 327.667 206.331 327.667 207.544V216H325.119V207.684C325.119 206.881 325.016 206.219 324.811 205.696C324.605 205.173 324.279 204.791 323.831 204.548C323.401 204.305 322.851 204.184 322.179 204.184C321.395 204.184 320.704 204.352 320.107 204.688C319.509 205.024 319.043 205.5 318.707 206.116C318.389 206.732 318.231 207.451 318.231 208.272V216H315.683ZM337.362 216.252C335.701 216.252 334.459 215.823 333.638 214.964C332.817 214.087 332.406 212.836 332.406 211.212V204.324H329.746V202.364H332.406V198.22H334.954V202.364H339.238V204.324H334.954V210.988C334.954 212.015 335.169 212.789 335.598 213.312C336.027 213.835 336.737 214.096 337.726 214.096C338.025 214.096 338.314 214.068 338.594 214.012C338.893 213.937 339.173 213.863 339.434 213.788L339.854 215.692C339.593 215.86 339.219 215.991 338.734 216.084C338.267 216.196 337.81 216.252 337.362 216.252ZM341.741 216V202.364H344.233V205.612H343.953C344.252 204.492 344.793 203.652 345.577 203.092C346.361 202.513 347.397 202.177 348.685 202.084L349.553 202L349.749 204.212L348.153 204.352C346.921 204.483 345.969 204.884 345.297 205.556C344.644 206.228 344.317 207.152 344.317 208.328V216H341.741ZM357.572 216.252C356.228 216.252 355.062 215.963 354.072 215.384C353.083 214.805 352.318 213.984 351.776 212.92C351.235 211.856 350.964 210.605 350.964 209.168C350.964 207.731 351.235 206.489 351.776 205.444C352.318 204.38 353.083 203.559 354.072 202.98C355.062 202.401 356.228 202.112 357.572 202.112C358.916 202.112 360.083 202.401 361.072 202.98C362.062 203.559 362.827 204.38 363.368 205.444C363.91 206.489 364.18 207.731 364.18 209.168C364.18 210.605 363.91 211.856 363.368 212.92C362.827 213.984 362.062 214.805 361.072 215.384C360.083 215.963 358.916 216.252 357.572 216.252ZM357.572 214.236C358.804 214.236 359.784 213.807 360.512 212.948C361.24 212.071 361.604 210.811 361.604 209.168C361.604 207.525 361.24 206.275 360.512 205.416C359.784 204.557 358.804 204.128 357.572 204.128C356.359 204.128 355.379 204.557 354.632 205.416C353.904 206.275 353.54 207.525 353.54 209.168C353.54 210.811 353.904 212.071 354.632 212.948C355.379 213.807 356.359 214.236 357.572 214.236ZM371.784 216.252C370.328 216.252 369.236 215.841 368.508 215.02C367.799 214.18 367.444 212.976 367.444 211.408V196.26H369.992V211.212C369.992 211.847 370.076 212.388 370.244 212.836C370.431 213.265 370.692 213.583 371.028 213.788C371.383 213.993 371.822 214.096 372.344 214.096C372.55 214.096 372.755 214.087 372.96 214.068C373.184 214.049 373.39 214.012 373.576 213.956L373.52 216.028C373.222 216.103 372.923 216.159 372.624 216.196C372.344 216.233 372.064 216.252 371.784 216.252ZM383.14 221.04V202.364H385.632V205.5H385.352C385.65 204.473 386.238 203.652 387.116 203.036C387.993 202.42 389.048 202.112 390.28 202.112C391.493 202.112 392.548 202.401 393.444 202.98C394.34 203.54 395.04 204.352 395.544 205.416C396.048 206.461 396.3 207.712 396.3 209.168C396.3 210.605 396.048 211.865 395.544 212.948C395.058 214.012 394.358 214.833 393.444 215.412C392.548 215.972 391.493 216.252 390.28 216.252C389.066 216.252 388.021 215.944 387.144 215.328C386.266 214.712 385.678 213.9 385.38 212.892H385.688V221.04H383.14ZM389.692 214.236C390.924 214.236 391.904 213.807 392.632 212.948C393.36 212.071 393.724 210.811 393.724 209.168C393.724 207.525 393.36 206.275 392.632 205.416C391.904 204.557 390.924 204.128 389.692 204.128C388.46 204.128 387.48 204.557 386.752 205.416C386.024 206.275 385.66 207.525 385.66 209.168C385.66 210.811 386.024 212.071 386.752 212.948C387.48 213.807 388.46 214.236 389.692 214.236ZM403.913 216.252C402.457 216.252 401.365 215.841 400.637 215.02C399.928 214.18 399.573 212.976 399.573 211.408V196.26H402.121V211.212C402.121 211.847 402.205 212.388 402.373 212.836C402.56 213.265 402.821 213.583 403.157 213.788C403.512 213.993 403.951 214.096 404.473 214.096C404.679 214.096 404.884 214.087 405.089 214.068C405.313 214.049 405.519 214.012 405.705 213.956L405.649 216.028C405.351 216.103 405.052 216.159 404.753 216.196C404.473 216.233 404.193 216.252 403.913 216.252ZM412.335 216.252C411.402 216.252 410.553 216.065 409.787 215.692C409.041 215.319 408.453 214.815 408.023 214.18C407.613 213.545 407.407 212.836 407.407 212.052C407.407 211.044 407.659 210.251 408.163 209.672C408.667 209.093 409.517 208.683 410.711 208.44C411.906 208.179 413.511 208.048 415.527 208.048H416.843V209.672H415.583C414.501 209.672 413.595 209.709 412.867 209.784C412.139 209.859 411.561 209.98 411.131 210.148C410.702 210.316 410.394 210.549 410.207 210.848C410.021 211.128 409.927 211.483 409.927 211.912C409.927 212.64 410.179 213.237 410.683 213.704C411.206 214.171 411.915 214.404 412.811 214.404C413.521 214.404 414.146 214.236 414.687 213.9C415.229 213.545 415.658 213.079 415.975 212.5C416.293 211.903 416.451 211.221 416.451 210.456V207.236C416.451 206.135 416.227 205.341 415.779 204.856C415.331 204.352 414.575 204.1 413.511 204.1C412.727 204.1 411.943 204.221 411.159 204.464C410.394 204.707 409.601 205.08 408.779 205.584L407.967 203.764C408.453 203.428 409.003 203.139 409.619 202.896C410.254 202.635 410.907 202.439 411.579 202.308C412.27 202.177 412.933 202.112 413.567 202.112C414.781 202.112 415.779 202.308 416.563 202.7C417.347 203.073 417.935 203.661 418.327 204.464C418.719 205.248 418.915 206.256 418.915 207.488V216H416.507V212.892H416.759C416.61 213.583 416.33 214.18 415.919 214.684C415.509 215.188 414.995 215.58 414.379 215.86C413.782 216.121 413.101 216.252 412.335 216.252ZM422.925 216V202.364H425.417V205.332H425.109C425.501 204.268 426.136 203.465 427.013 202.924C427.909 202.383 428.926 202.112 430.065 202.112C431.166 202.112 432.072 202.308 432.781 202.7C433.49 203.092 434.022 203.699 434.377 204.52C434.732 205.323 434.909 206.331 434.909 207.544V216H432.361V207.684C432.361 206.881 432.258 206.219 432.053 205.696C431.848 205.173 431.521 204.791 431.073 204.548C430.644 204.305 430.093 204.184 429.421 204.184C428.637 204.184 427.946 204.352 427.349 204.688C426.752 205.024 426.285 205.5 425.949 206.116C425.632 206.732 425.473 207.451 425.473 208.272V216H422.925ZM445.248 216.252C443.774 216.252 442.504 215.972 441.44 215.412C440.395 214.833 439.583 214.021 439.004 212.976C438.426 211.912 438.136 210.661 438.136 209.224C438.136 207.805 438.416 206.564 438.976 205.5C439.555 204.436 440.339 203.605 441.328 203.008C442.336 202.411 443.484 202.112 444.772 202.112C446.023 202.112 447.087 202.383 447.964 202.924C448.86 203.465 449.542 204.24 450.008 205.248C450.494 206.237 450.736 207.432 450.736 208.832V209.756H440.124V208.132H449.056L448.58 208.524C448.58 207.068 448.263 205.948 447.628 205.164C446.994 204.361 446.06 203.96 444.828 203.96C443.932 203.96 443.167 204.175 442.532 204.604C441.898 205.015 441.412 205.603 441.076 206.368C440.74 207.115 440.572 207.983 440.572 208.972V209.14C440.572 210.26 440.75 211.203 441.104 211.968C441.478 212.715 442.01 213.284 442.7 213.676C443.391 214.049 444.24 214.236 445.248 214.236C446.051 214.236 446.826 214.115 447.572 213.872C448.338 213.611 449.056 213.209 449.728 212.668L450.512 214.432C449.896 214.992 449.103 215.44 448.132 215.776C447.18 216.093 446.219 216.252 445.248 216.252Z" fill="black"/>
<rect x="142" y="433" width="358" height="108" rx="9" fill="white" stroke="url(#paint5_linear_467_308)" stroke-width="2"/>
<path d="M245.143 496.252C243.762 496.252 242.567 495.963 241.559 495.384C240.551 494.787 239.777 493.956 239.235 492.892C238.694 491.809 238.423 490.54 238.423 489.084C238.423 487.647 238.694 486.405 239.235 485.36C239.777 484.315 240.551 483.512 241.559 482.952C242.567 482.392 243.762 482.112 245.143 482.112C246.002 482.112 246.842 482.261 247.663 482.56C248.503 482.859 249.194 483.279 249.735 483.82L248.895 485.612C248.354 485.127 247.766 484.763 247.131 484.52C246.497 484.277 245.89 484.156 245.311 484.156C243.949 484.156 242.894 484.585 242.147 485.444C241.401 486.303 241.027 487.525 241.027 489.112C241.027 490.699 241.401 491.949 242.147 492.864C242.894 493.76 243.949 494.208 245.311 494.208C245.89 494.208 246.497 494.087 247.131 493.844C247.766 493.601 248.354 493.228 248.895 492.724L249.735 494.544C249.194 495.085 248.494 495.505 247.635 495.804C246.795 496.103 245.965 496.252 245.143 496.252ZM256.955 496.252C256.246 496.252 255.546 496.187 254.855 496.056C254.183 495.925 253.558 495.739 252.979 495.496C252.419 495.235 251.924 494.927 251.495 494.572L252.251 492.808C252.699 493.144 253.184 493.433 253.707 493.676C254.23 493.9 254.771 494.068 255.331 494.18C255.891 494.292 256.451 494.348 257.011 494.348C258.038 494.348 258.812 494.161 259.335 493.788C259.858 493.415 260.119 492.92 260.119 492.304C260.119 491.781 259.942 491.38 259.587 491.1C259.251 490.801 258.719 490.577 257.991 490.428L255.387 489.896C254.23 489.635 253.352 489.205 252.755 488.608C252.176 487.992 251.887 487.208 251.887 486.256C251.887 485.416 252.111 484.688 252.559 484.072C253.026 483.437 253.67 482.952 254.491 482.616C255.312 482.28 256.255 482.112 257.319 482.112C257.954 482.112 258.57 482.177 259.167 482.308C259.764 482.439 260.324 482.625 260.847 482.868C261.37 483.111 261.808 483.428 262.163 483.82L261.379 485.556C261.024 485.22 260.623 484.94 260.175 484.716C259.727 484.492 259.26 484.324 258.775 484.212C258.29 484.081 257.804 484.016 257.319 484.016C256.311 484.016 255.546 484.212 255.023 484.604C254.519 484.996 254.267 485.509 254.267 486.144C254.267 486.629 254.416 487.031 254.715 487.348C255.032 487.665 255.527 487.899 256.199 488.048L258.803 488.58C260.016 488.841 260.931 489.261 261.547 489.84C262.163 490.4 262.471 491.165 262.471 492.136C262.471 492.995 262.238 493.732 261.771 494.348C261.323 494.964 260.679 495.44 259.839 495.776C259.018 496.093 258.056 496.252 256.955 496.252ZM265.534 479.088V476.344H268.586V479.088H265.534ZM265.786 496V482.364H268.334V496H265.786ZM272.375 489.588V487.488H280.327V489.588H272.375ZM290.698 496.252C289.317 496.252 288.122 495.963 287.114 495.384C286.106 494.787 285.331 493.956 284.79 492.892C284.249 491.809 283.978 490.54 283.978 489.084C283.978 487.647 284.249 486.405 284.79 485.36C285.331 484.315 286.106 483.512 287.114 482.952C288.122 482.392 289.317 482.112 290.698 482.112C291.557 482.112 292.397 482.261 293.218 482.56C294.058 482.859 294.749 483.279 295.29 483.82L294.45 485.612C293.909 485.127 293.321 484.763 292.686 484.52C292.051 484.277 291.445 484.156 290.866 484.156C289.503 484.156 288.449 484.585 287.702 485.444C286.955 486.303 286.582 487.525 286.582 489.112C286.582 490.699 286.955 491.949 287.702 492.864C288.449 493.76 289.503 494.208 290.866 494.208C291.445 494.208 292.051 494.087 292.686 493.844C293.321 493.601 293.909 493.228 294.45 492.724L295.29 494.544C294.749 495.085 294.049 495.505 293.19 495.804C292.35 496.103 291.519 496.252 290.698 496.252ZM303.328 496.252C301.984 496.252 300.818 495.963 299.828 495.384C298.839 494.805 298.074 493.984 297.532 492.92C296.991 491.856 296.72 490.605 296.72 489.168C296.72 487.731 296.991 486.489 297.532 485.444C298.074 484.38 298.839 483.559 299.828 482.98C300.818 482.401 301.984 482.112 303.328 482.112C304.672 482.112 305.839 482.401 306.828 482.98C307.818 483.559 308.583 484.38 309.124 485.444C309.666 486.489 309.936 487.731 309.936 489.168C309.936 490.605 309.666 491.856 309.124 492.92C308.583 493.984 307.818 494.805 306.828 495.384C305.839 495.963 304.672 496.252 303.328 496.252ZM303.328 494.236C304.56 494.236 305.54 493.807 306.268 492.948C306.996 492.071 307.36 490.811 307.36 489.168C307.36 487.525 306.996 486.275 306.268 485.416C305.54 484.557 304.56 484.128 303.328 484.128C302.115 484.128 301.135 484.557 300.388 485.416C299.66 486.275 299.296 487.525 299.296 489.168C299.296 490.811 299.66 492.071 300.388 492.948C301.135 493.807 302.115 494.236 303.328 494.236ZM313.2 496V482.364H315.692V485.332H315.384C315.776 484.268 316.411 483.465 317.288 482.924C318.184 482.383 319.202 482.112 320.34 482.112C321.442 482.112 322.347 482.308 323.056 482.7C323.766 483.092 324.298 483.699 324.652 484.52C325.007 485.323 325.184 486.331 325.184 487.544V496H322.636V487.684C322.636 486.881 322.534 486.219 322.328 485.696C322.123 485.173 321.796 484.791 321.348 484.548C320.919 484.305 320.368 484.184 319.696 484.184C318.912 484.184 318.222 484.352 317.624 484.688C317.027 485.024 316.56 485.5 316.224 486.116C315.907 486.732 315.748 487.451 315.748 488.272V496H313.2ZM334.88 496.252C333.218 496.252 331.977 495.823 331.156 494.964C330.334 494.087 329.924 492.836 329.924 491.212V484.324H327.264V482.364H329.924V478.22H332.472V482.364H336.756V484.324H332.472V490.988C332.472 492.015 332.686 492.789 333.116 493.312C333.545 493.835 334.254 494.096 335.244 494.096C335.542 494.096 335.832 494.068 336.112 494.012C336.41 493.937 336.69 493.863 336.952 493.788L337.372 495.692C337.11 495.86 336.737 495.991 336.252 496.084C335.785 496.196 335.328 496.252 334.88 496.252ZM339.259 496V482.364H341.751V485.612H341.471C341.77 484.492 342.311 483.652 343.095 483.092C343.879 482.513 344.915 482.177 346.203 482.084L347.071 482L347.267 484.212L345.671 484.352C344.439 484.483 343.487 484.884 342.815 485.556C342.162 486.228 341.835 487.152 341.835 488.328V496H339.259ZM355.09 496.252C353.746 496.252 352.579 495.963 351.59 495.384C350.601 494.805 349.835 493.984 349.294 492.92C348.753 491.856 348.482 490.605 348.482 489.168C348.482 487.731 348.753 486.489 349.294 485.444C349.835 484.38 350.601 483.559 351.59 482.98C352.579 482.401 353.746 482.112 355.09 482.112C356.434 482.112 357.601 482.401 358.59 482.98C359.579 483.559 360.345 484.38 360.886 485.444C361.427 486.489 361.698 487.731 361.698 489.168C361.698 490.605 361.427 491.856 360.886 492.92C360.345 493.984 359.579 494.805 358.59 495.384C357.601 495.963 356.434 496.252 355.09 496.252ZM355.09 494.236C356.322 494.236 357.302 493.807 358.03 492.948C358.758 492.071 359.122 490.811 359.122 489.168C359.122 487.525 358.758 486.275 358.03 485.416C357.302 484.557 356.322 484.128 355.09 484.128C353.877 484.128 352.897 484.557 352.15 485.416C351.422 486.275 351.058 487.525 351.058 489.168C351.058 490.811 351.422 492.071 352.15 492.948C352.897 493.807 353.877 494.236 355.09 494.236ZM369.302 496.252C367.846 496.252 366.754 495.841 366.026 495.02C365.317 494.18 364.962 492.976 364.962 491.408V476.26H367.51V491.212C367.51 491.847 367.594 492.388 367.762 492.836C367.949 493.265 368.21 493.583 368.546 493.788C368.901 493.993 369.339 494.096 369.862 494.096C370.067 494.096 370.273 494.087 370.478 494.068C370.702 494.049 370.907 494.012 371.094 493.956L371.038 496.028C370.739 496.103 370.441 496.159 370.142 496.196C369.862 496.233 369.582 496.252 369.302 496.252ZM377.724 496.252C376.268 496.252 375.176 495.841 374.448 495.02C373.739 494.18 373.384 492.976 373.384 491.408V476.26H375.932V491.212C375.932 491.847 376.016 492.388 376.184 492.836C376.371 493.265 376.632 493.583 376.968 493.788C377.323 493.993 377.761 494.096 378.284 494.096C378.489 494.096 378.695 494.087 378.9 494.068C379.124 494.049 379.329 494.012 379.516 493.956L379.46 496.028C379.161 496.103 378.863 496.159 378.564 496.196C378.284 496.233 378.004 496.252 377.724 496.252ZM387.969 496.252C386.494 496.252 385.225 495.972 384.161 495.412C383.116 494.833 382.304 494.021 381.725 492.976C381.146 491.912 380.857 490.661 380.857 489.224C380.857 487.805 381.137 486.564 381.697 485.5C382.276 484.436 383.06 483.605 384.049 483.008C385.057 482.411 386.205 482.112 387.493 482.112C388.744 482.112 389.808 482.383 390.685 482.924C391.581 483.465 392.262 484.24 392.729 485.248C393.214 486.237 393.457 487.432 393.457 488.832V489.756H382.845V488.132H391.777L391.301 488.524C391.301 487.068 390.984 485.948 390.349 485.164C389.714 484.361 388.781 483.96 387.549 483.96C386.653 483.96 385.888 484.175 385.253 484.604C384.618 485.015 384.133 485.603 383.797 486.368C383.461 487.115 383.293 487.983 383.293 488.972V489.14C383.293 490.26 383.47 491.203 383.825 491.968C384.198 492.715 384.73 493.284 385.421 493.676C386.112 494.049 386.961 494.236 387.969 494.236C388.772 494.236 389.546 494.115 390.293 493.872C391.058 493.611 391.777 493.209 392.449 492.668L393.233 494.432C392.617 494.992 391.824 495.44 390.853 495.776C389.901 496.093 388.94 496.252 387.969 496.252ZM396.626 496V482.364H399.118V485.612H398.838C399.137 484.492 399.678 483.652 400.462 483.092C401.246 482.513 402.282 482.177 403.57 482.084L404.438 482L404.634 484.212L403.038 484.352C401.806 484.483 400.854 484.884 400.182 485.556C399.529 486.228 399.202 487.152 399.202 488.328V496H396.626Z" fill="black"/>
<rect x="141" y="572" width="360" height="110" rx="10" fill="url(#paint6_radial_467_308)"/>
<rect x="141" y="572" width="360" height="110" rx="10" fill="black" fill-opacity="0.08"/>
<path d="M215.333 636.252C213.952 636.252 212.757 635.963 211.749 635.384C210.741 634.787 209.966 633.956 209.425 632.892C208.884 631.809 208.613 630.54 208.613 629.084C208.613 627.647 208.884 626.405 209.425 625.36C209.966 624.315 210.741 623.512 211.749 622.952C212.757 622.392 213.952 622.112 215.333 622.112C216.192 622.112 217.032 622.261 217.853 622.56C218.693 622.859 219.384 623.279 219.925 623.82L219.085 625.612C218.544 625.127 217.956 624.763 217.321 624.52C216.686 624.277 216.08 624.156 215.501 624.156C214.138 624.156 213.084 624.585 212.337 625.444C211.59 626.303 211.217 627.525 211.217 629.112C211.217 630.699 211.59 631.949 212.337 632.864C213.084 633.76 214.138 634.208 215.501 634.208C216.08 634.208 216.686 634.087 217.321 633.844C217.956 633.601 218.544 633.228 219.085 632.724L219.925 634.544C219.384 635.085 218.684 635.505 217.825 635.804C216.985 636.103 216.154 636.252 215.333 636.252ZM226.78 636.252C225.324 636.252 224.232 635.841 223.504 635.02C222.795 634.18 222.44 632.976 222.44 631.408V616.26H224.988V631.212C224.988 631.847 225.072 632.388 225.24 632.836C225.427 633.265 225.688 633.583 226.024 633.788C226.379 633.993 226.818 634.096 227.34 634.096C227.546 634.096 227.751 634.087 227.956 634.068C228.18 634.049 228.386 634.012 228.572 633.956L228.516 636.028C228.218 636.103 227.919 636.159 227.62 636.196C227.34 636.233 227.06 636.252 226.78 636.252ZM235.734 636.252C234.633 636.252 233.709 636.047 232.962 635.636C232.234 635.225 231.693 634.619 231.338 633.816C230.984 633.013 230.806 632.005 230.806 630.792V622.364H233.354V630.792C233.354 631.557 233.457 632.192 233.662 632.696C233.868 633.2 234.185 633.573 234.614 633.816C235.062 634.059 235.622 634.18 236.294 634.18C237.041 634.18 237.694 634.012 238.254 633.676C238.814 633.34 239.253 632.864 239.57 632.248C239.888 631.632 240.046 630.913 240.046 630.092V622.364H242.594V636H240.102V632.92H240.466C240.093 634.003 239.486 634.833 238.646 635.412C237.825 635.972 236.854 636.252 235.734 636.252ZM251.398 636.252C250.689 636.252 249.989 636.187 249.298 636.056C248.626 635.925 248.001 635.739 247.422 635.496C246.862 635.235 246.368 634.927 245.938 634.572L246.694 632.808C247.142 633.144 247.628 633.433 248.15 633.676C248.673 633.9 249.214 634.068 249.774 634.18C250.334 634.292 250.894 634.348 251.454 634.348C252.481 634.348 253.256 634.161 253.778 633.788C254.301 633.415 254.562 632.92 254.562 632.304C254.562 631.781 254.385 631.38 254.03 631.1C253.694 630.801 253.162 630.577 252.434 630.428L249.83 629.896C248.673 629.635 247.796 629.205 247.198 628.608C246.62 627.992 246.33 627.208 246.33 626.256C246.33 625.416 246.554 624.688 247.002 624.072C247.469 623.437 248.113 622.952 248.934 622.616C249.756 622.28 250.698 622.112 251.762 622.112C252.397 622.112 253.013 622.177 253.61 622.308C254.208 622.439 254.768 622.625 255.29 622.868C255.813 623.111 256.252 623.428 256.606 623.82L255.822 625.556C255.468 625.22 255.066 624.94 254.618 624.716C254.17 624.492 253.704 624.324 253.218 624.212C252.733 624.081 252.248 624.016 251.762 624.016C250.754 624.016 249.989 624.212 249.466 624.604C248.962 624.996 248.71 625.509 248.71 626.144C248.71 626.629 248.86 627.031 249.158 627.348C249.476 627.665 249.97 627.899 250.642 628.048L253.246 628.58C254.46 628.841 255.374 629.261 255.99 629.84C256.606 630.4 256.914 631.165 256.914 632.136C256.914 632.995 256.681 633.732 256.214 634.348C255.766 634.964 255.122 635.44 254.282 635.776C253.461 636.093 252.5 636.252 251.398 636.252ZM265.749 636.252C264.087 636.252 262.846 635.823 262.025 634.964C261.203 634.087 260.793 632.836 260.793 631.212V624.324H258.133V622.364H260.793V618.22H263.341V622.364H267.625V624.324H263.341V630.988C263.341 632.015 263.555 632.789 263.985 633.312C264.414 633.835 265.123 634.096 266.113 634.096C266.411 634.096 266.701 634.068 266.981 634.012C267.279 633.937 267.559 633.863 267.821 633.788L268.241 635.692C267.979 635.86 267.606 635.991 267.121 636.084C266.654 636.196 266.197 636.252 265.749 636.252ZM276.291 636.252C274.817 636.252 273.547 635.972 272.483 635.412C271.438 634.833 270.626 634.021 270.047 632.976C269.469 631.912 269.179 630.661 269.179 629.224C269.179 627.805 269.459 626.564 270.019 625.5C270.598 624.436 271.382 623.605 272.371 623.008C273.379 622.411 274.527 622.112 275.815 622.112C277.066 622.112 278.13 622.383 279.007 622.924C279.903 623.465 280.585 624.24 281.051 625.248C281.537 626.237 281.779 627.432 281.779 628.832V629.756H271.167V628.132H280.099L279.623 628.524C279.623 627.068 279.306 625.948 278.671 625.164C278.037 624.361 277.103 623.96 275.871 623.96C274.975 623.96 274.21 624.175 273.575 624.604C272.941 625.015 272.455 625.603 272.119 626.368C271.783 627.115 271.615 627.983 271.615 628.972V629.14C271.615 630.26 271.793 631.203 272.147 631.968C272.521 632.715 273.053 633.284 273.743 633.676C274.434 634.049 275.283 634.236 276.291 634.236C277.094 634.236 277.869 634.115 278.615 633.872C279.381 633.611 280.099 633.209 280.771 632.668L281.555 634.432C280.939 634.992 280.146 635.44 279.175 635.776C278.223 636.093 277.262 636.252 276.291 636.252ZM284.948 636V622.364H287.44V625.612H287.16C287.459 624.492 288 623.652 288.784 623.092C289.568 622.513 290.604 622.177 291.892 622.084L292.76 622L292.956 624.212L291.36 624.352C290.128 624.483 289.176 624.884 288.504 625.556C287.851 626.228 287.524 627.152 287.524 628.328V636H284.948ZM294.49 629.588V627.488H302.442V629.588H294.49ZM310.835 636.252C309.902 636.252 309.053 636.065 308.287 635.692C307.541 635.319 306.953 634.815 306.523 634.18C306.113 633.545 305.907 632.836 305.907 632.052C305.907 631.044 306.159 630.251 306.663 629.672C307.167 629.093 308.017 628.683 309.211 628.44C310.406 628.179 312.011 628.048 314.027 628.048H315.343V629.672H314.083C313.001 629.672 312.095 629.709 311.367 629.784C310.639 629.859 310.061 629.98 309.631 630.148C309.202 630.316 308.894 630.549 308.707 630.848C308.521 631.128 308.427 631.483 308.427 631.912C308.427 632.64 308.679 633.237 309.183 633.704C309.706 634.171 310.415 634.404 311.311 634.404C312.021 634.404 312.646 634.236 313.187 633.9C313.729 633.545 314.158 633.079 314.475 632.5C314.793 631.903 314.951 631.221 314.951 630.456V627.236C314.951 626.135 314.727 625.341 314.279 624.856C313.831 624.352 313.075 624.1 312.011 624.1C311.227 624.1 310.443 624.221 309.659 624.464C308.894 624.707 308.101 625.08 307.279 625.584L306.467 623.764C306.953 623.428 307.503 623.139 308.119 622.896C308.754 622.635 309.407 622.439 310.079 622.308C310.77 622.177 311.433 622.112 312.067 622.112C313.281 622.112 314.279 622.308 315.063 622.7C315.847 623.073 316.435 623.661 316.827 624.464C317.219 625.248 317.415 626.256 317.415 627.488V636H315.007V632.892H315.259C315.11 633.583 314.83 634.18 314.419 634.684C314.009 635.188 313.495 635.58 312.879 635.86C312.282 636.121 311.601 636.252 310.835 636.252ZM326.297 636.252C325.196 636.252 324.272 636.047 323.525 635.636C322.797 635.225 322.256 634.619 321.901 633.816C321.546 633.013 321.369 632.005 321.369 630.792V622.364H323.917V630.792C323.917 631.557 324.02 632.192 324.225 632.696C324.43 633.2 324.748 633.573 325.177 633.816C325.625 634.059 326.185 634.18 326.857 634.18C327.604 634.18 328.257 634.012 328.817 633.676C329.377 633.34 329.816 632.864 330.133 632.248C330.45 631.632 330.609 630.913 330.609 630.092V622.364H333.157V636H330.665V632.92H331.029C330.656 634.003 330.049 634.833 329.209 635.412C328.388 635.972 327.417 636.252 326.297 636.252ZM342.913 636.252C341.252 636.252 340.01 635.823 339.189 634.964C338.368 634.087 337.957 632.836 337.957 631.212V624.324H335.297V622.364H337.957V618.22H340.505V622.364H344.789V624.324H340.505V630.988C340.505 632.015 340.72 632.789 341.149 633.312C341.578 633.835 342.288 634.096 343.277 634.096C343.576 634.096 343.865 634.068 344.145 634.012C344.444 633.937 344.724 633.863 344.985 633.788L345.405 635.692C345.144 635.86 344.77 635.991 344.285 636.084C343.818 636.196 343.361 636.252 342.913 636.252ZM352.951 636.252C351.607 636.252 350.441 635.963 349.451 635.384C348.462 634.805 347.697 633.984 347.155 632.92C346.614 631.856 346.343 630.605 346.343 629.168C346.343 627.731 346.614 626.489 347.155 625.444C347.697 624.38 348.462 623.559 349.451 622.98C350.441 622.401 351.607 622.112 352.951 622.112C354.295 622.112 355.462 622.401 356.451 622.98C357.441 623.559 358.206 624.38 358.747 625.444C359.289 626.489 359.559 627.731 359.559 629.168C359.559 630.605 359.289 631.856 358.747 632.92C358.206 633.984 357.441 634.805 356.451 635.384C355.462 635.963 354.295 636.252 352.951 636.252ZM352.951 634.236C354.183 634.236 355.163 633.807 355.891 632.948C356.619 632.071 356.983 630.811 356.983 629.168C356.983 627.525 356.619 626.275 355.891 625.416C355.163 624.557 354.183 624.128 352.951 624.128C351.738 624.128 350.758 624.557 350.011 625.416C349.283 626.275 348.919 627.525 348.919 629.168C348.919 630.811 349.283 632.071 350.011 632.948C350.758 633.807 351.738 634.236 352.951 634.236ZM367.527 636.252C366.818 636.252 366.118 636.187 365.427 636.056C364.755 635.925 364.13 635.739 363.551 635.496C362.991 635.235 362.497 634.927 362.067 634.572L362.823 632.808C363.271 633.144 363.757 633.433 364.279 633.676C364.802 633.9 365.343 634.068 365.903 634.18C366.463 634.292 367.023 634.348 367.583 634.348C368.61 634.348 369.385 634.161 369.907 633.788C370.43 633.415 370.691 632.92 370.691 632.304C370.691 631.781 370.514 631.38 370.159 631.1C369.823 630.801 369.291 630.577 368.563 630.428L365.959 629.896C364.802 629.635 363.925 629.205 363.327 628.608C362.749 627.992 362.459 627.208 362.459 626.256C362.459 625.416 362.683 624.688 363.131 624.072C363.598 623.437 364.242 622.952 365.063 622.616C365.885 622.28 366.827 622.112 367.891 622.112C368.526 622.112 369.142 622.177 369.739 622.308C370.337 622.439 370.897 622.625 371.419 622.868C371.942 623.111 372.381 623.428 372.735 623.82L371.951 625.556C371.597 625.22 371.195 624.94 370.747 624.716C370.299 624.492 369.833 624.324 369.347 624.212C368.862 624.081 368.377 624.016 367.891 624.016C366.883 624.016 366.118 624.212 365.595 624.604C365.091 624.996 364.839 625.509 364.839 626.144C364.839 626.629 364.989 627.031 365.287 627.348C365.605 627.665 366.099 627.899 366.771 628.048L369.375 628.58C370.589 628.841 371.503 629.261 372.119 629.84C372.735 630.4 373.043 631.165 373.043 632.136C373.043 632.995 372.81 633.732 372.343 634.348C371.895 634.964 371.251 635.44 370.411 635.776C369.59 636.093 368.629 636.252 367.527 636.252ZM382.266 636.252C380.885 636.252 379.69 635.963 378.682 635.384C377.674 634.787 376.9 633.956 376.358 632.892C375.817 631.809 375.546 630.54 375.546 629.084C375.546 627.647 375.817 626.405 376.358 625.36C376.9 624.315 377.674 623.512 378.682 622.952C379.69 622.392 380.885 622.112 382.266 622.112C383.125 622.112 383.965 622.261 384.786 622.56C385.626 622.859 386.317 623.279 386.858 623.82L386.018 625.612C385.477 625.127 384.889 624.763 384.254 624.52C383.62 624.277 383.013 624.156 382.434 624.156C381.072 624.156 380.017 624.585 379.27 625.444C378.524 626.303 378.15 627.525 378.15 629.112C378.15 630.699 378.524 631.949 379.27 632.864C380.017 633.76 381.072 634.208 382.434 634.208C383.013 634.208 383.62 634.087 384.254 633.844C384.889 633.601 385.477 633.228 386.018 632.724L386.858 634.544C386.317 635.085 385.617 635.505 384.758 635.804C383.918 636.103 383.088 636.252 382.266 636.252ZM393.605 636.252C392.671 636.252 391.822 636.065 391.057 635.692C390.31 635.319 389.722 634.815 389.293 634.18C388.882 633.545 388.677 632.836 388.677 632.052C388.677 631.044 388.929 630.251 389.433 629.672C389.937 629.093 390.786 628.683 391.981 628.44C393.175 628.179 394.781 628.048 396.797 628.048H398.113V629.672H396.853C395.77 629.672 394.865 629.709 394.137 629.784C393.409 629.859 392.83 629.98 392.401 630.148C391.971 630.316 391.663 630.549 391.477 630.848C391.29 631.128 391.197 631.483 391.197 631.912C391.197 632.64 391.449 633.237 391.953 633.704C392.475 634.171 393.185 634.404 394.081 634.404C394.79 634.404 395.415 634.236 395.957 633.9C396.498 633.545 396.927 633.079 397.245 632.5C397.562 631.903 397.721 631.221 397.721 630.456V627.236C397.721 626.135 397.497 625.341 397.049 624.856C396.601 624.352 395.845 624.1 394.781 624.1C393.997 624.1 393.213 624.221 392.429 624.464C391.663 624.707 390.87 625.08 390.049 625.584L389.237 623.764C389.722 623.428 390.273 623.139 390.889 622.896C391.523 622.635 392.177 622.439 392.849 622.308C393.539 622.177 394.202 622.112 394.837 622.112C396.05 622.112 397.049 622.308 397.833 622.7C398.617 623.073 399.205 623.661 399.597 624.464C399.989 625.248 400.185 626.256 400.185 627.488V636H397.777V632.892H398.029C397.879 633.583 397.599 634.18 397.189 634.684C396.778 635.188 396.265 635.58 395.649 635.86C395.051 636.121 394.37 636.252 393.605 636.252ZM408.534 636.252C407.078 636.252 405.986 635.841 405.258 635.02C404.549 634.18 404.194 632.976 404.194 631.408V616.26H406.742V631.212C406.742 631.847 406.826 632.388 406.994 632.836C407.181 633.265 407.442 633.583 407.778 633.788C408.133 633.993 408.572 634.096 409.094 634.096C409.3 634.096 409.505 634.087 409.71 634.068C409.934 634.049 410.14 634.012 410.326 633.956L410.27 636.028C409.972 636.103 409.673 636.159 409.374 636.196C409.094 636.233 408.814 636.252 408.534 636.252ZM418.78 636.252C417.305 636.252 416.036 635.972 414.972 635.412C413.926 634.833 413.114 634.021 412.536 632.976C411.957 631.912 411.668 630.661 411.668 629.224C411.668 627.805 411.948 626.564 412.508 625.5C413.086 624.436 413.87 623.605 414.86 623.008C415.868 622.411 417.016 622.112 418.304 622.112C419.554 622.112 420.618 622.383 421.496 622.924C422.392 623.465 423.073 624.24 423.54 625.248C424.025 626.237 424.268 627.432 424.268 628.832V629.756H413.656V628.132H422.588L422.112 628.524C422.112 627.068 421.794 625.948 421.16 625.164C420.525 624.361 419.592 623.96 418.36 623.96C417.464 623.96 416.698 624.175 416.064 624.604C415.429 625.015 414.944 625.603 414.608 626.368C414.272 627.115 414.104 627.983 414.104 628.972V629.14C414.104 630.26 414.281 631.203 414.636 631.968C415.009 632.715 415.541 633.284 416.232 633.676C416.922 634.049 417.772 634.236 418.78 634.236C419.582 634.236 420.357 634.115 421.104 633.872C421.869 633.611 422.588 633.209 423.26 632.668L424.044 634.432C423.428 634.992 422.634 635.44 421.664 635.776C420.712 636.093 419.75 636.252 418.78 636.252ZM427.437 636V622.364H429.929V625.612H429.649C429.947 624.492 430.489 623.652 431.273 623.092C432.057 622.513 433.093 622.177 434.381 622.084L435.249 622L435.445 624.212L433.849 624.352C432.617 624.483 431.665 624.884 430.993 625.556C430.339 626.228 430.013 627.152 430.013 628.328V636H427.437Z" fill="white"/>
<path d="M113.467 120V100.26H115.651L123.519 115.016H122.651L130.491 100.26H132.647V120H130.295V103.872H130.911L123.883 116.976H122.259L115.147 103.844H115.819V120H113.467ZM141.45 120.252C140.517 120.252 139.668 120.065 138.902 119.692C138.156 119.319 137.568 118.815 137.138 118.18C136.728 117.545 136.522 116.836 136.522 116.052C136.522 115.044 136.774 114.251 137.278 113.672C137.782 113.093 138.632 112.683 139.826 112.44C141.021 112.179 142.626 112.048 144.642 112.048H145.958V113.672H144.698C143.616 113.672 142.71 113.709 141.982 113.784C141.254 113.859 140.676 113.98 140.246 114.148C139.817 114.316 139.509 114.549 139.322 114.848C139.136 115.128 139.042 115.483 139.042 115.912C139.042 116.64 139.294 117.237 139.798 117.704C140.321 118.171 141.03 118.404 141.926 118.404C142.636 118.404 143.261 118.236 143.802 117.9C144.344 117.545 144.773 117.079 145.09 116.5C145.408 115.903 145.566 115.221 145.566 114.456V111.236C145.566 110.135 145.342 109.341 144.894 108.856C144.446 108.352 143.69 108.1 142.626 108.1C141.842 108.1 141.058 108.221 140.274 108.464C139.509 108.707 138.716 109.08 137.894 109.584L137.082 107.764C137.568 107.428 138.118 107.139 138.734 106.896C139.369 106.635 140.022 106.439 140.694 106.308C141.385 106.177 142.048 106.112 142.682 106.112C143.896 106.112 144.894 106.308 145.678 106.7C146.462 107.073 147.05 107.661 147.442 108.464C147.834 109.248 148.03 110.256 148.03 111.488V120H145.622V116.892H145.874C145.725 117.583 145.445 118.18 145.034 118.684C144.624 119.188 144.11 119.58 143.494 119.86C142.897 120.121 142.216 120.252 141.45 120.252ZM152.04 120V106.364H154.532V109.332H154.224C154.616 108.268 155.251 107.465 156.128 106.924C157.024 106.383 158.041 106.112 159.18 106.112C160.281 106.112 161.187 106.308 161.896 106.7C162.605 107.092 163.137 107.699 163.492 108.52C163.847 109.323 164.024 110.331 164.024 111.544V120H161.476V111.684C161.476 110.881 161.373 110.219 161.168 109.696C160.963 109.173 160.636 108.791 160.188 108.548C159.759 108.305 159.208 108.184 158.536 108.184C157.752 108.184 157.061 108.352 156.464 108.688C155.867 109.024 155.4 109.5 155.064 110.116C154.747 110.732 154.588 111.451 154.588 112.272V120H152.04ZM172.404 120.252C171.47 120.252 170.621 120.065 169.856 119.692C169.109 119.319 168.521 118.815 168.092 118.18C167.681 117.545 167.476 116.836 167.476 116.052C167.476 115.044 167.728 114.251 168.232 113.672C168.736 113.093 169.585 112.683 170.78 112.44C171.974 112.179 173.58 112.048 175.596 112.048H176.912V113.672H175.652C174.569 113.672 173.664 113.709 172.936 113.784C172.208 113.859 171.629 113.98 171.2 114.148C170.77 114.316 170.462 114.549 170.276 114.848C170.089 115.128 169.996 115.483 169.996 115.912C169.996 116.64 170.248 117.237 170.752 117.704C171.274 118.171 171.984 118.404 172.88 118.404C173.589 118.404 174.214 118.236 174.756 117.9C175.297 117.545 175.726 117.079 176.044 116.5C176.361 115.903 176.52 115.221 176.52 114.456V111.236C176.52 110.135 176.296 109.341 175.848 108.856C175.4 108.352 174.644 108.1 173.58 108.1C172.796 108.1 172.012 108.221 171.228 108.464C170.462 108.707 169.669 109.08 168.848 109.584L168.036 107.764C168.521 107.428 169.072 107.139 169.688 106.896C170.322 106.635 170.976 106.439 171.648 106.308C172.338 106.177 173.001 106.112 173.636 106.112C174.849 106.112 175.848 106.308 176.632 106.7C177.416 107.073 178.004 107.661 178.396 108.464C178.788 109.248 178.984 110.256 178.984 111.488V120H176.576V116.892H176.828C176.678 117.583 176.398 118.18 175.988 118.684C175.577 119.188 175.064 119.58 174.448 119.86C173.85 120.121 173.169 120.252 172.404 120.252ZM189.125 125.292C187.912 125.292 186.783 125.143 185.737 124.844C184.692 124.545 183.759 124.088 182.937 123.472L183.749 121.624C184.309 121.997 184.86 122.305 185.401 122.548C185.961 122.809 186.531 122.996 187.109 123.108C187.707 123.22 188.323 123.276 188.957 123.276C190.283 123.276 191.272 122.931 191.925 122.24C192.597 121.568 192.933 120.579 192.933 119.272V116.248H193.185C192.924 117.293 192.336 118.124 191.421 118.74C190.525 119.356 189.48 119.664 188.285 119.664C187.053 119.664 185.98 119.384 185.065 118.824C184.151 118.245 183.441 117.452 182.937 116.444C182.433 115.417 182.181 114.232 182.181 112.888C182.181 111.525 182.433 110.34 182.937 109.332C183.441 108.305 184.151 107.512 185.065 106.952C185.98 106.392 187.053 106.112 188.285 106.112C189.499 106.112 190.553 106.42 191.449 107.036C192.345 107.652 192.924 108.483 193.185 109.528H192.933V106.364H195.425V118.936C195.425 120.336 195.183 121.512 194.697 122.464C194.231 123.416 193.531 124.125 192.597 124.592C191.664 125.059 190.507 125.292 189.125 125.292ZM188.845 117.648C190.096 117.648 191.085 117.219 191.813 116.36C192.541 115.501 192.905 114.344 192.905 112.888C192.905 111.413 192.541 110.256 191.813 109.416C191.085 108.557 190.096 108.128 188.845 108.128C187.595 108.128 186.596 108.557 185.849 109.416C185.121 110.256 184.757 111.413 184.757 112.888C184.757 114.344 185.121 115.501 185.849 116.36C186.596 117.219 187.595 117.648 188.845 117.648ZM205.809 120.252C204.334 120.252 203.065 119.972 202.001 119.412C200.956 118.833 200.144 118.021 199.565 116.976C198.986 115.912 198.697 114.661 198.697 113.224C198.697 111.805 198.977 110.564 199.537 109.5C200.116 108.436 200.9 107.605 201.889 107.008C202.897 106.411 204.045 106.112 205.333 106.112C206.584 106.112 207.648 106.383 208.525 106.924C209.421 107.465 210.102 108.24 210.569 109.248C211.054 110.237 211.297 111.432 211.297 112.832V113.756H200.685V112.132H209.617L209.141 112.524C209.141 111.068 208.824 109.948 208.189 109.164C207.554 108.361 206.621 107.96 205.389 107.96C204.493 107.96 203.728 108.175 203.093 108.604C202.458 109.015 201.973 109.603 201.637 110.368C201.301 111.115 201.133 111.983 201.133 112.972V113.14C201.133 114.26 201.31 115.203 201.665 115.968C202.038 116.715 202.57 117.284 203.261 117.676C203.952 118.049 204.801 118.236 205.809 118.236C206.612 118.236 207.386 118.115 208.133 117.872C208.898 117.611 209.617 117.209 210.289 116.668L211.073 118.432C210.457 118.992 209.664 119.44 208.693 119.776C207.741 120.093 206.78 120.252 205.809 120.252ZM214.522 120V106.364H217.014V109.332H216.706C216.949 108.641 217.285 108.063 217.714 107.596C218.143 107.111 218.657 106.747 219.254 106.504C219.87 106.243 220.542 106.112 221.27 106.112C222.427 106.112 223.361 106.392 224.07 106.952C224.779 107.493 225.255 108.324 225.498 109.444H225.106C225.442 108.417 226.039 107.605 226.898 107.008C227.775 106.411 228.793 106.112 229.95 106.112C230.977 106.112 231.817 106.317 232.47 106.728C233.142 107.12 233.646 107.717 233.982 108.52C234.318 109.304 234.486 110.312 234.486 111.544V120H231.938V111.656C231.938 110.461 231.733 109.584 231.322 109.024C230.911 108.464 230.221 108.184 229.25 108.184C228.541 108.184 227.925 108.352 227.402 108.688C226.879 109.024 226.478 109.5 226.198 110.116C225.918 110.732 225.778 111.469 225.778 112.328V120H223.23V111.656C223.23 110.461 223.025 109.584 222.614 109.024C222.203 108.464 221.513 108.184 220.542 108.184C219.833 108.184 219.217 108.352 218.694 108.688C218.171 109.024 217.77 109.5 217.49 110.116C217.21 110.732 217.07 111.469 217.07 112.328V120H214.522ZM244.883 120.252C243.408 120.252 242.139 119.972 241.075 119.412C240.03 118.833 239.218 118.021 238.639 116.976C238.06 115.912 237.771 114.661 237.771 113.224C237.771 111.805 238.051 110.564 238.611 109.5C239.19 108.436 239.974 107.605 240.963 107.008C241.971 106.411 243.119 106.112 244.407 106.112C245.658 106.112 246.722 106.383 247.599 106.924C248.495 107.465 249.176 108.24 249.643 109.248C250.128 110.237 250.371 111.432 250.371 112.832V113.756H239.759V112.132H248.691L248.215 112.524C248.215 111.068 247.898 109.948 247.263 109.164C246.628 108.361 245.695 107.96 244.463 107.96C243.567 107.96 242.802 108.175 242.167 108.604C241.532 109.015 241.047 109.603 240.711 110.368C240.375 111.115 240.207 111.983 240.207 112.972V113.14C240.207 114.26 240.384 115.203 240.739 115.968C241.112 116.715 241.644 117.284 242.335 117.676C243.026 118.049 243.875 118.236 244.883 118.236C245.686 118.236 246.46 118.115 247.207 117.872C247.972 117.611 248.691 117.209 249.363 116.668L250.147 118.432C249.531 118.992 248.738 119.44 247.767 119.776C246.815 120.093 245.854 120.252 244.883 120.252ZM253.54 120V106.364H256.032V109.332H255.724C256.116 108.268 256.751 107.465 257.628 106.924C258.524 106.383 259.541 106.112 260.68 106.112C261.781 106.112 262.687 106.308 263.396 106.7C264.105 107.092 264.637 107.699 264.992 108.52C265.347 109.323 265.524 110.331 265.524 111.544V120H262.976V111.684C262.976 110.881 262.873 110.219 262.668 109.696C262.463 109.173 262.136 108.791 261.688 108.548C261.259 108.305 260.708 108.184 260.036 108.184C259.252 108.184 258.561 108.352 257.964 108.688C257.367 109.024 256.9 109.5 256.564 110.116C256.247 110.732 256.088 111.451 256.088 112.272V120H253.54ZM275.22 120.252C273.558 120.252 272.317 119.823 271.496 118.964C270.674 118.087 270.264 116.836 270.264 115.212V108.324H267.604V106.364H270.264V102.22H272.812V106.364H277.096V108.324H272.812V114.988C272.812 116.015 273.026 116.789 273.456 117.312C273.885 117.835 274.594 118.096 275.584 118.096C275.882 118.096 276.172 118.068 276.452 118.012C276.75 117.937 277.03 117.863 277.292 117.788L277.712 119.692C277.45 119.86 277.077 119.991 276.592 120.084C276.125 120.196 275.668 120.252 275.22 120.252ZM287.208 120V100.26H289.812V109.192H289.868L299.22 100.26H302.496L291.632 110.508L291.66 109.192L303.056 120H299.752L289.868 110.732H289.812V120H287.208ZM309.217 120.252C308.115 120.252 307.191 120.047 306.445 119.636C305.717 119.225 305.175 118.619 304.821 117.816C304.466 117.013 304.289 116.005 304.289 114.792V106.364H306.837V114.792C306.837 115.557 306.939 116.192 307.145 116.696C307.35 117.2 307.667 117.573 308.097 117.816C308.545 118.059 309.105 118.18 309.777 118.18C310.523 118.18 311.177 118.012 311.737 117.676C312.297 117.34 312.735 116.864 313.053 116.248C313.37 115.632 313.529 114.913 313.529 114.092V106.364H316.077V120H313.585V116.92H313.949C313.575 118.003 312.969 118.833 312.129 119.412C311.307 119.972 310.337 120.252 309.217 120.252ZM327.317 120.252C326.085 120.252 325.03 119.944 324.153 119.328C323.275 118.712 322.687 117.881 322.389 116.836H322.669V120H320.177V100.26H322.725V109.444H322.417C322.715 108.436 323.303 107.633 324.181 107.036C325.058 106.42 326.103 106.112 327.317 106.112C328.53 106.112 329.585 106.401 330.481 106.98C331.395 107.54 332.095 108.352 332.581 109.416C333.085 110.461 333.337 111.712 333.337 113.168C333.337 114.605 333.085 115.865 332.581 116.948C332.077 118.012 331.377 118.833 330.481 119.412C329.585 119.972 328.53 120.252 327.317 120.252ZM326.729 118.236C327.961 118.236 328.941 117.807 329.669 116.948C330.397 116.071 330.761 114.811 330.761 113.168C330.761 111.525 330.397 110.275 329.669 109.416C328.941 108.557 327.961 108.128 326.729 108.128C325.497 108.128 324.517 108.557 323.789 109.416C323.061 110.275 322.697 111.525 322.697 113.168C322.697 114.811 323.061 116.071 323.789 116.948C324.517 117.807 325.497 118.236 326.729 118.236ZM342.91 120.252C341.436 120.252 340.166 119.972 339.102 119.412C338.057 118.833 337.245 118.021 336.666 116.976C336.088 115.912 335.798 114.661 335.798 113.224C335.798 111.805 336.078 110.564 336.638 109.5C337.217 108.436 338.001 107.605 338.99 107.008C339.998 106.411 341.146 106.112 342.434 106.112C343.685 106.112 344.749 106.383 345.626 106.924C346.522 107.465 347.204 108.24 347.67 109.248C348.156 110.237 348.398 111.432 348.398 112.832V113.756H337.786V112.132H346.718L346.242 112.524C346.242 111.068 345.925 109.948 345.29 109.164C344.656 108.361 343.722 107.96 342.49 107.96C341.594 107.96 340.829 108.175 340.194 108.604C339.56 109.015 339.074 109.603 338.738 110.368C338.402 111.115 338.234 111.983 338.234 112.972V113.14C338.234 114.26 338.412 115.203 338.766 115.968C339.14 116.715 339.672 117.284 340.362 117.676C341.053 118.049 341.902 118.236 342.91 118.236C343.713 118.236 344.488 118.115 345.234 117.872C346 117.611 346.718 117.209 347.39 116.668L348.174 118.432C347.558 118.992 346.765 119.44 345.794 119.776C344.842 120.093 343.881 120.252 342.91 120.252ZM351.567 120V106.364H354.059V109.612H353.779C354.078 108.492 354.619 107.652 355.403 107.092C356.187 106.513 357.223 106.177 358.511 106.084L359.379 106L359.575 108.212L357.979 108.352C356.747 108.483 355.795 108.884 355.123 109.556C354.47 110.228 354.143 111.152 354.143 112.328V120H351.567ZM361.794 120V106.364H364.286V109.332H363.978C364.37 108.268 365.005 107.465 365.882 106.924C366.778 106.383 367.795 106.112 368.934 106.112C370.035 106.112 370.941 106.308 371.65 106.7C372.359 107.092 372.891 107.699 373.246 108.52C373.601 109.323 373.778 110.331 373.778 111.544V120H371.23V111.684C371.23 110.881 371.127 110.219 370.922 109.696C370.717 109.173 370.39 108.791 369.942 108.548C369.513 108.305 368.962 108.184 368.29 108.184C367.506 108.184 366.815 108.352 366.218 108.688C365.621 109.024 365.154 109.5 364.818 110.116C364.501 110.732 364.342 111.451 364.342 112.272V120H361.794ZM384.117 120.252C382.643 120.252 381.373 119.972 380.309 119.412C379.264 118.833 378.452 118.021 377.873 116.976C377.295 115.912 377.005 114.661 377.005 113.224C377.005 111.805 377.285 110.564 377.845 109.5C378.424 108.436 379.208 107.605 380.197 107.008C381.205 106.411 382.353 106.112 383.641 106.112C384.892 106.112 385.956 106.383 386.833 106.924C387.729 107.465 388.411 108.24 388.877 109.248C389.363 110.237 389.605 111.432 389.605 112.832V113.756H378.993V112.132H387.925L387.449 112.524C387.449 111.068 387.132 109.948 386.497 109.164C385.863 108.361 384.929 107.96 383.697 107.96C382.801 107.96 382.036 108.175 381.401 108.604C380.767 109.015 380.281 109.603 379.945 110.368C379.609 111.115 379.441 111.983 379.441 112.972V113.14C379.441 114.26 379.619 115.203 379.973 115.968C380.347 116.715 380.879 117.284 381.569 117.676C382.26 118.049 383.109 118.236 384.117 118.236C384.92 118.236 385.695 118.115 386.441 117.872C387.207 117.611 387.925 117.209 388.597 116.668L389.381 118.432C388.765 118.992 387.972 119.44 387.001 119.776C386.049 120.093 385.088 120.252 384.117 120.252ZM398.403 120.252C396.742 120.252 395.5 119.823 394.679 118.964C393.858 118.087 393.447 116.836 393.447 115.212V108.324H390.787V106.364H393.447V102.22H395.995V106.364H400.279V108.324H395.995V114.988C395.995 116.015 396.21 116.789 396.639 117.312C397.068 117.835 397.778 118.096 398.767 118.096C399.066 118.096 399.355 118.068 399.635 118.012C399.934 117.937 400.214 117.863 400.475 117.788L400.895 119.692C400.634 119.86 400.26 119.991 399.775 120.084C399.308 120.196 398.851 120.252 398.403 120.252ZM408.946 120.252C407.471 120.252 406.202 119.972 405.138 119.412C404.092 118.833 403.28 118.021 402.702 116.976C402.123 115.912 401.834 114.661 401.834 113.224C401.834 111.805 402.114 110.564 402.674 109.5C403.252 108.436 404.036 107.605 405.026 107.008C406.034 106.411 407.182 106.112 408.47 106.112C409.72 106.112 410.784 106.383 411.662 106.924C412.558 107.465 413.239 108.24 413.706 109.248C414.191 110.237 414.434 111.432 414.434 112.832V113.756H403.822V112.132H412.754L412.278 112.524C412.278 111.068 411.96 109.948 411.326 109.164C410.691 108.361 409.758 107.96 408.526 107.96C407.63 107.96 406.864 108.175 406.23 108.604C405.595 109.015 405.11 109.603 404.774 110.368C404.438 111.115 404.27 111.983 404.27 112.972V113.14C404.27 114.26 404.447 115.203 404.802 115.968C405.175 116.715 405.707 117.284 406.398 117.676C407.088 118.049 407.938 118.236 408.946 118.236C409.748 118.236 410.523 118.115 411.27 117.872C412.035 117.611 412.754 117.209 413.426 116.668L414.21 118.432C413.594 118.992 412.8 119.44 411.83 119.776C410.878 120.093 409.916 120.252 408.946 120.252ZM422.307 120.252C421.597 120.252 420.897 120.187 420.207 120.056C419.535 119.925 418.909 119.739 418.331 119.496C417.771 119.235 417.276 118.927 416.847 118.572L417.603 116.808C418.051 117.144 418.536 117.433 419.059 117.676C419.581 117.9 420.123 118.068 420.683 118.18C421.243 118.292 421.803 118.348 422.363 118.348C423.389 118.348 424.164 118.161 424.687 117.788C425.209 117.415 425.471 116.92 425.471 116.304C425.471 115.781 425.293 115.38 424.939 115.1C424.603 114.801 424.071 114.577 423.343 114.428L420.739 113.896C419.581 113.635 418.704 113.205 418.107 112.608C417.528 111.992 417.239 111.208 417.239 110.256C417.239 109.416 417.463 108.688 417.911 108.072C418.377 107.437 419.021 106.952 419.843 106.616C420.664 106.28 421.607 106.112 422.671 106.112C423.305 106.112 423.921 106.177 424.519 106.308C425.116 106.439 425.676 106.625 426.199 106.868C426.721 107.111 427.16 107.428 427.515 107.82L426.731 109.556C426.376 109.22 425.975 108.94 425.527 108.716C425.079 108.492 424.612 108.324 424.127 108.212C423.641 108.081 423.156 108.016 422.671 108.016C421.663 108.016 420.897 108.212 420.375 108.604C419.871 108.996 419.619 109.509 419.619 110.144C419.619 110.629 419.768 111.031 420.067 111.348C420.384 111.665 420.879 111.899 421.551 112.048L424.155 112.58C425.368 112.841 426.283 113.261 426.899 113.84C427.515 114.4 427.823 115.165 427.823 116.136C427.823 116.995 427.589 117.732 427.123 118.348C426.675 118.964 426.031 119.44 425.191 119.776C424.369 120.093 423.408 120.252 422.307 120.252ZM447.427 120.252C445.467 120.252 443.787 119.841 442.387 119.02C440.987 118.199 439.905 117.032 439.139 115.52C438.393 113.989 438.019 112.188 438.019 110.116C438.019 108.044 438.393 106.252 439.139 104.74C439.905 103.228 440.987 102.061 442.387 101.24C443.787 100.419 445.467 100.008 447.427 100.008C448.771 100.008 450.022 100.223 451.179 100.652C452.355 101.063 453.335 101.679 454.119 102.5L453.167 104.572C452.309 103.807 451.422 103.247 450.507 102.892C449.593 102.537 448.585 102.36 447.483 102.36C445.318 102.36 443.657 103.032 442.499 104.376C441.361 105.72 440.791 107.633 440.791 110.116C440.791 112.599 441.361 114.521 442.499 115.884C443.657 117.228 445.318 117.9 447.483 117.9C448.585 117.9 449.593 117.723 450.507 117.368C451.422 117.013 452.309 116.453 453.167 115.688L454.119 117.76C453.335 118.563 452.355 119.179 451.179 119.608C450.022 120.037 448.771 120.252 447.427 120.252ZM461.618 120.252C460.162 120.252 459.07 119.841 458.342 119.02C457.633 118.18 457.278 116.976 457.278 115.408V100.26H459.826V115.212C459.826 115.847 459.91 116.388 460.078 116.836C460.265 117.265 460.526 117.583 460.862 117.788C461.217 117.993 461.656 118.096 462.178 118.096C462.384 118.096 462.589 118.087 462.794 118.068C463.018 118.049 463.224 118.012 463.41 117.956L463.354 120.028C463.056 120.103 462.757 120.159 462.458 120.196C462.178 120.233 461.898 120.252 461.618 120.252ZM470.572 120.252C469.471 120.252 468.547 120.047 467.8 119.636C467.072 119.225 466.531 118.619 466.176 117.816C465.822 117.013 465.644 116.005 465.644 114.792V106.364H468.192V114.792C468.192 115.557 468.295 116.192 468.5 116.696C468.706 117.2 469.023 117.573 469.452 117.816C469.9 118.059 470.46 118.18 471.132 118.18C471.879 118.18 472.532 118.012 473.092 117.676C473.652 117.34 474.091 116.864 474.408 116.248C474.726 115.632 474.884 114.913 474.884 114.092V106.364H477.432V120H474.94V116.92H475.304C474.931 118.003 474.324 118.833 473.484 119.412C472.663 119.972 471.692 120.252 470.572 120.252ZM486.236 120.252C485.527 120.252 484.827 120.187 484.136 120.056C483.464 119.925 482.839 119.739 482.26 119.496C481.7 119.235 481.206 118.927 480.776 118.572L481.532 116.808C481.98 117.144 482.466 117.433 482.988 117.676C483.511 117.9 484.052 118.068 484.612 118.18C485.172 118.292 485.732 118.348 486.292 118.348C487.319 118.348 488.094 118.161 488.616 117.788C489.139 117.415 489.4 116.92 489.4 116.304C489.4 115.781 489.223 115.38 488.868 115.1C488.532 114.801 488 114.577 487.272 114.428L484.668 113.896C483.511 113.635 482.634 113.205 482.036 112.608C481.458 111.992 481.168 111.208 481.168 110.256C481.168 109.416 481.392 108.688 481.84 108.072C482.307 107.437 482.951 106.952 483.772 106.616C484.594 106.28 485.536 106.112 486.6 106.112C487.235 106.112 487.851 106.177 488.448 106.308C489.046 106.439 489.606 106.625 490.128 106.868C490.651 107.111 491.09 107.428 491.444 107.82L490.66 109.556C490.306 109.22 489.904 108.94 489.456 108.716C489.008 108.492 488.542 108.324 488.056 108.212C487.571 108.081 487.086 108.016 486.6 108.016C485.592 108.016 484.827 108.212 484.304 108.604C483.8 108.996 483.548 109.509 483.548 110.144C483.548 110.629 483.698 111.031 483.996 111.348C484.314 111.665 484.808 111.899 485.48 112.048L488.084 112.58C489.298 112.841 490.212 113.261 490.828 113.84C491.444 114.4 491.752 115.165 491.752 116.136C491.752 116.995 491.519 117.732 491.052 118.348C490.604 118.964 489.96 119.44 489.12 119.776C488.299 120.093 487.338 120.252 486.236 120.252ZM500.587 120.252C498.925 120.252 497.684 119.823 496.863 118.964C496.041 118.087 495.631 116.836 495.631 115.212V108.324H492.971V106.364H495.631V102.22H498.179V106.364H502.463V108.324H498.179V114.988C498.179 116.015 498.393 116.789 498.823 117.312C499.252 117.835 499.961 118.096 500.951 118.096C501.249 118.096 501.539 118.068 501.819 118.012C502.117 117.937 502.397 117.863 502.659 117.788L503.079 119.692C502.817 119.86 502.444 119.991 501.959 120.084C501.492 120.196 501.035 120.252 500.587 120.252ZM511.129 120.252C509.654 120.252 508.385 119.972 507.321 119.412C506.276 118.833 505.464 118.021 504.885 116.976C504.306 115.912 504.017 114.661 504.017 113.224C504.017 111.805 504.297 110.564 504.857 109.5C505.436 108.436 506.22 107.605 507.209 107.008C508.217 106.411 509.365 106.112 510.653 106.112C511.904 106.112 512.968 106.383 513.845 106.924C514.741 107.465 515.422 108.24 515.889 109.248C516.374 110.237 516.617 111.432 516.617 112.832V113.756H506.005V112.132H514.937L514.461 112.524C514.461 111.068 514.144 109.948 513.509 109.164C512.874 108.361 511.941 107.96 510.709 107.96C509.813 107.96 509.048 108.175 508.413 108.604C507.778 109.015 507.293 109.603 506.957 110.368C506.621 111.115 506.453 111.983 506.453 112.972V113.14C506.453 114.26 506.63 115.203 506.985 115.968C507.358 116.715 507.89 117.284 508.581 117.676C509.272 118.049 510.121 118.236 511.129 118.236C511.932 118.236 512.706 118.115 513.453 117.872C514.218 117.611 514.937 117.209 515.609 116.668L516.393 118.432C515.777 118.992 514.984 119.44 514.013 119.776C513.061 120.093 512.1 120.252 511.129 120.252ZM519.786 120V106.364H522.278V109.612H521.998C522.297 108.492 522.838 107.652 523.622 107.092C524.406 106.513 525.442 106.177 526.73 106.084L527.598 106L527.794 108.212L526.198 108.352C524.966 108.483 524.014 108.884 523.342 109.556C522.689 110.228 522.362 111.152 522.362 112.328V120H519.786Z" fill="black"/>
<defs>
<filter id="filter0_d_467_308" x="39" y="45" width="1201" height="734" filterUnits="userSpaceOnUse" color-interpolation-filters="sRGB">
<feFlood flood-opacity="0" result="BackgroundImageFix"/>
<feColorMatrix in="SourceAlpha" type="matrix" values="0 0 0 0 0 0 0 0 0 0 0 0 0 0 0 0 0 0 127 0" result="hardAlpha"/>
<feMorphology radius="2" operator="dilate" in="SourceAlpha" result="effect1_dropShadow_467_308"/>
<feOffset dy="5"/>
<feGaussianBlur stdDeviation="10"/>
<feComposite in2="hardAlpha" operator="out"/>
<feColorMatrix type="matrix" values="0 0 0 0 0.730263 0 0 0 0 0.772123 0 0 0 0 0.834912 0 0 0 0.2 0"/>
<feBlend mode="normal" in2="BackgroundImageFix" result="effect1_dropShadow_467_308"/>
<feBlend mode="normal" in="SourceGraphic" in2="effect1_dropShadow_467_308" result="shape"/>
</filter>
<linearGradient id="paint0_linear_467_308" x1="676" y1="208" x2="1067.74" y2="605.736" gradientUnits="userSpaceOnUse">
<stop stop-color="#0185FF"/>
<stop offset="1" stop-color="#01CDFF"/>
</linearGradient>
<linearGradient id="paint1_linear_467_308" x1="141" y1="292" x2="233.683" y2="507.068" gradientUnits="userSpaceOnUse">
<stop stop-color="#0185FF"/>
<stop offset="1" stop-color="#01CDFF"/>
</linearGradient>
<linearGradient id="paint2_linear_467_308" x1="731" y1="302" x2="795.768" y2="490.736" gradientUnits="userSpaceOnUse">
<stop stop-color="#0185FF"/>
<stop offset="1" stop-color="#01CDFF"/>
</linearGradient>
<linearGradient id="paint3_linear_467_308" x1="731" y1="413" x2="795.768" y2="601.736" gradientUnits="userSpaceOnUse">
<stop stop-color="#0185FF"/>
<stop offset="1" stop-color="#01CDFF"/>
</linearGradient>
<linearGradient id="paint4_linear_467_308" x1="141" y1="152" x2="233.683" y2="367.068" gradientUnits="userSpaceOnUse">
<stop stop-color="#0185FF"/>
<stop offset="1" stop-color="#01CDFF"/>
</linearGradient>
<linearGradient id="paint5_linear_467_308" x1="141" y1="432" x2="233.683" y2="647.068" gradientUnits="userSpaceOnUse">
<stop stop-color="#0185FF"/>
<stop offset="1" stop-color="#01CDFF"/>
</linearGradient>
<radialGradient id="paint6_radial_467_308" cx="0" cy="0" r="1" gradientUnits="userSpaceOnUse" gradientTransform="translate(-211 703.81) scale(1021 542.776)">
<stop offset="0.140398" stop-color="#591BBF"/>
<stop offset="0.432481" stop-color="#5DA4EF"/>
<stop offset="0.655719" stop-color="#94DEE0"/>
<stop offset="0.900453" stop-color="#B0E07F"/>
</radialGradient>
</defs>
</svg>
