<svg width="1279" height="815" viewBox="0 0 1279 815" fill="none" xmlns="http://www.w3.org/2000/svg">
<rect width="1279" height="815" fill="white"/>
<g filter="url(#filter0_d_467_488)">
<rect x="1218" y="62" width="690" height="1157" rx="10" transform="rotate(90 1218 62)" fill="white"/>
<rect x="1217.5" y="62.5" width="689" height="1156" rx="9.5" transform="rotate(90 1217.5 62.5)" stroke="#E3E7EB"/>
</g>
<rect x="677" y="209" width="482" height="336" rx="9" fill="white" stroke="url(#paint0_linear_467_488)" stroke-width="2"/>
<path d="M708.464 261V243.472H701.38V241.26H718.152V243.472H711.068V261H708.464ZM724.459 261.252C722.985 261.252 721.715 260.972 720.651 260.412C719.606 259.833 718.794 259.021 718.215 257.976C717.637 256.912 717.347 255.661 717.347 254.224C717.347 252.805 717.627 251.564 718.187 250.5C718.766 249.436 719.55 248.605 720.539 248.008C721.547 247.411 722.695 247.112 723.983 247.112C725.234 247.112 726.298 247.383 727.175 247.924C728.071 248.465 728.753 249.24 729.219 250.248C729.705 251.237 729.947 252.432 729.947 253.832V254.756H719.335V253.132H728.267L727.791 253.524C727.791 252.068 727.474 250.948 726.839 250.164C726.205 249.361 725.271 248.96 724.039 248.96C723.143 248.96 722.378 249.175 721.743 249.604C721.109 250.015 720.623 250.603 720.287 251.368C719.951 252.115 719.783 252.983 719.783 253.972V254.14C719.783 255.26 719.961 256.203 720.315 256.968C720.689 257.715 721.221 258.284 721.911 258.676C722.602 259.049 723.451 259.236 724.459 259.236C725.262 259.236 726.037 259.115 726.783 258.872C727.549 258.611 728.267 258.209 728.939 257.668L729.723 259.432C729.107 259.992 728.314 260.44 727.343 260.776C726.391 261.093 725.43 261.252 724.459 261.252ZM733.116 261V247.364H735.608V250.332H735.3C735.692 249.268 736.327 248.465 737.204 247.924C738.1 247.383 739.118 247.112 740.256 247.112C741.358 247.112 742.263 247.308 742.972 247.7C743.682 248.092 744.214 248.699 744.568 249.52C744.923 250.323 745.1 251.331 745.1 252.544V261H742.552V252.684C742.552 251.881 742.45 251.219 742.244 250.696C742.039 250.173 741.712 249.791 741.264 249.548C740.835 249.305 740.284 249.184 739.612 249.184C738.828 249.184 738.138 249.352 737.54 249.688C736.943 250.024 736.476 250.5 736.14 251.116C735.823 251.732 735.664 252.451 735.664 253.272V261H733.116ZM753.48 261.252C752.546 261.252 751.697 261.065 750.932 260.692C750.185 260.319 749.597 259.815 749.168 259.18C748.757 258.545 748.552 257.836 748.552 257.052C748.552 256.044 748.804 255.251 749.308 254.672C749.812 254.093 750.661 253.683 751.856 253.44C753.05 253.179 754.656 253.048 756.672 253.048H757.988V254.672H756.728C755.645 254.672 754.74 254.709 754.012 254.784C753.284 254.859 752.705 254.98 752.276 255.148C751.846 255.316 751.538 255.549 751.352 255.848C751.165 256.128 751.072 256.483 751.072 256.912C751.072 257.64 751.324 258.237 751.828 258.704C752.35 259.171 753.06 259.404 753.956 259.404C754.665 259.404 755.29 259.236 755.832 258.9C756.373 258.545 756.802 258.079 757.12 257.5C757.437 256.903 757.596 256.221 757.596 255.456V252.236C757.596 251.135 757.372 250.341 756.924 249.856C756.476 249.352 755.72 249.1 754.656 249.1C753.872 249.1 753.088 249.221 752.304 249.464C751.538 249.707 750.745 250.08 749.924 250.584L749.112 248.764C749.597 248.428 750.148 248.139 750.764 247.896C751.398 247.635 752.052 247.439 752.724 247.308C753.414 247.177 754.077 247.112 754.712 247.112C755.925 247.112 756.924 247.308 757.708 247.7C758.492 248.073 759.08 248.661 759.472 249.464C759.864 250.248 760.06 251.256 760.06 252.488V261H757.652V257.892H757.904C757.754 258.583 757.474 259.18 757.064 259.684C756.653 260.188 756.14 260.58 755.524 260.86C754.926 261.121 754.245 261.252 753.48 261.252ZM764.069 261V247.364H766.561V250.332H766.253C766.645 249.268 767.28 248.465 768.157 247.924C769.053 247.383 770.071 247.112 771.209 247.112C772.311 247.112 773.216 247.308 773.925 247.7C774.635 248.092 775.167 248.699 775.521 249.52C775.876 250.323 776.053 251.331 776.053 252.544V261H773.505V252.684C773.505 251.881 773.403 251.219 773.197 250.696C772.992 250.173 772.665 249.791 772.217 249.548C771.788 249.305 771.237 249.184 770.565 249.184C769.781 249.184 769.091 249.352 768.493 249.688C767.896 250.024 767.429 250.5 767.093 251.116C766.776 251.732 766.617 252.451 766.617 253.272V261H764.069ZM785.749 261.252C784.087 261.252 782.846 260.823 782.025 259.964C781.203 259.087 780.793 257.836 780.793 256.212V249.324H778.133V247.364H780.793V243.22H783.341V247.364H787.625V249.324H783.341V255.988C783.341 257.015 783.555 257.789 783.985 258.312C784.414 258.835 785.123 259.096 786.113 259.096C786.411 259.096 786.701 259.068 786.981 259.012C787.279 258.937 787.559 258.863 787.821 258.788L788.241 260.692C787.979 260.86 787.606 260.991 787.121 261.084C786.654 261.196 786.197 261.252 785.749 261.252ZM801.069 261L795.945 247.364H798.577L802.665 258.956H801.993L806.221 247.364H808.265L812.409 258.956H811.765L815.909 247.364H818.401L813.277 261H810.897L806.529 249.072H807.817L803.449 261H801.069ZM826.604 261.252C825.26 261.252 824.093 260.963 823.104 260.384C822.114 259.805 821.349 258.984 820.808 257.92C820.266 256.856 819.996 255.605 819.996 254.168C819.996 252.731 820.266 251.489 820.808 250.444C821.349 249.38 822.114 248.559 823.104 247.98C824.093 247.401 825.26 247.112 826.604 247.112C827.948 247.112 829.114 247.401 830.104 247.98C831.093 248.559 831.858 249.38 832.4 250.444C832.941 251.489 833.212 252.731 833.212 254.168C833.212 255.605 832.941 256.856 832.4 257.92C831.858 258.984 831.093 259.805 830.104 260.384C829.114 260.963 827.948 261.252 826.604 261.252ZM826.604 259.236C827.836 259.236 828.816 258.807 829.544 257.948C830.272 257.071 830.636 255.811 830.636 254.168C830.636 252.525 830.272 251.275 829.544 250.416C828.816 249.557 827.836 249.128 826.604 249.128C825.39 249.128 824.41 249.557 823.664 250.416C822.936 251.275 822.572 252.525 822.572 254.168C822.572 255.811 822.936 257.071 823.664 257.948C824.41 258.807 825.39 259.236 826.604 259.236ZM836.476 261V247.364H838.968V250.612H838.688C838.986 249.492 839.528 248.652 840.312 248.092C841.096 247.513 842.132 247.177 843.42 247.084L844.288 247L844.484 249.212L842.888 249.352C841.656 249.483 840.704 249.884 840.032 250.556C839.378 251.228 839.052 252.152 839.052 253.328V261H836.476ZM846.702 261V241.26H849.25V253.384H849.306L855.438 247.364H858.63L851.294 254.56V253.3L859.162 261H855.97L849.306 254.672H849.25V261H846.702ZM866.893 261.252C865.418 261.252 864.149 260.972 863.085 260.412C862.039 259.833 861.227 259.021 860.649 257.976C860.07 256.912 859.781 255.661 859.781 254.224C859.781 252.805 860.061 251.564 860.621 250.5C861.199 249.436 861.983 248.605 862.973 248.008C863.981 247.411 865.129 247.112 866.417 247.112C867.667 247.112 868.731 247.383 869.609 247.924C870.505 248.465 871.186 249.24 871.653 250.248C872.138 251.237 872.381 252.432 872.381 253.832V254.756H861.769V253.132H870.701L870.225 253.524C870.225 252.068 869.907 250.948 869.273 250.164C868.638 249.361 867.705 248.96 866.473 248.96C865.577 248.96 864.811 249.175 864.177 249.604C863.542 250.015 863.057 250.603 862.721 251.368C862.385 252.115 862.217 252.983 862.217 253.972V254.14C862.217 255.26 862.394 256.203 862.749 256.968C863.122 257.715 863.654 258.284 864.345 258.676C865.035 259.049 865.885 259.236 866.893 259.236C867.695 259.236 868.47 259.115 869.217 258.872C869.982 258.611 870.701 258.209 871.373 257.668L872.157 259.432C871.541 259.992 870.747 260.44 869.777 260.776C868.825 261.093 867.863 261.252 866.893 261.252ZM875.55 261V247.364H878.042V250.612H877.762C878.061 249.492 878.602 248.652 879.386 248.092C880.17 247.513 881.206 247.177 882.494 247.084L883.362 247L883.558 249.212L881.962 249.352C880.73 249.483 879.778 249.884 879.106 250.556C878.453 251.228 878.126 252.152 878.126 253.328V261H875.55Z" fill="black"/>
<rect x="731" y="302" width="374" height="91" rx="10" fill="url(#paint1_radial_467_488)"/>
<rect x="731" y="302" width="374" height="91" rx="10" fill="black" fill-opacity="0.08"/>
<path d="M862.2 356.252C860.819 356.252 859.624 355.963 858.616 355.384C857.608 354.787 856.833 353.956 856.292 352.892C855.751 351.809 855.48 350.54 855.48 349.084C855.48 347.647 855.751 346.405 856.292 345.36C856.833 344.315 857.608 343.512 858.616 342.952C859.624 342.392 860.819 342.112 862.2 342.112C863.059 342.112 863.899 342.261 864.72 342.56C865.56 342.859 866.251 343.279 866.792 343.82L865.952 345.612C865.411 345.127 864.823 344.763 864.188 344.52C863.553 344.277 862.947 344.156 862.368 344.156C861.005 344.156 859.951 344.585 859.204 345.444C858.457 346.303 858.084 347.525 858.084 349.112C858.084 350.699 858.457 351.949 859.204 352.864C859.951 353.76 861.005 354.208 862.368 354.208C862.947 354.208 863.553 354.087 864.188 353.844C864.823 353.601 865.411 353.228 865.952 352.724L866.792 354.544C866.251 355.085 865.551 355.505 864.692 355.804C863.852 356.103 863.021 356.252 862.2 356.252ZM869.308 356V342.364H871.8V345.332H871.492C871.884 344.268 872.518 343.465 873.396 342.924C874.292 342.383 875.309 342.112 876.448 342.112C877.549 342.112 878.454 342.308 879.164 342.7C879.873 343.092 880.405 343.699 880.76 344.52C881.114 345.323 881.292 346.331 881.292 347.544V356H878.744V347.684C878.744 346.881 878.641 346.219 878.436 345.696C878.23 345.173 877.904 344.791 877.456 344.548C877.026 344.305 876.476 344.184 875.804 344.184C875.02 344.184 874.329 344.352 873.732 344.688C873.134 345.024 872.668 345.5 872.332 346.116C872.014 346.732 871.856 347.451 871.856 348.272V356H869.308ZM885.079 339.088V336.344H888.131V339.088H885.079ZM885.331 356V342.364H887.879V356H885.331ZM891.92 349.588V347.488H899.872V349.588H891.92ZM903.925 361.04V342.364H906.417V345.5H906.137C906.436 344.473 907.024 343.652 907.901 343.036C908.778 342.42 909.833 342.112 911.065 342.112C912.278 342.112 913.333 342.401 914.229 342.98C915.125 343.54 915.825 344.352 916.329 345.416C916.833 346.461 917.085 347.712 917.085 349.168C917.085 350.605 916.833 351.865 916.329 352.948C915.844 354.012 915.144 354.833 914.229 355.412C913.333 355.972 912.278 356.252 911.065 356.252C909.852 356.252 908.806 355.944 907.929 355.328C907.052 354.712 906.464 353.9 906.165 352.892H906.473V361.04H903.925ZM910.477 354.236C911.709 354.236 912.689 353.807 913.417 352.948C914.145 352.071 914.509 350.811 914.509 349.168C914.509 347.525 914.145 346.275 913.417 345.416C912.689 344.557 911.709 344.128 910.477 344.128C909.245 344.128 908.265 344.557 907.537 345.416C906.809 346.275 906.445 347.525 906.445 349.168C906.445 350.811 906.809 352.071 907.537 352.948C908.265 353.807 909.245 354.236 910.477 354.236ZM924.698 356.252C923.242 356.252 922.15 355.841 921.422 355.02C920.713 354.18 920.358 352.976 920.358 351.408V336.26H922.906V351.212C922.906 351.847 922.99 352.388 923.158 352.836C923.345 353.265 923.606 353.583 923.942 353.788C924.297 353.993 924.736 354.096 925.258 354.096C925.464 354.096 925.669 354.087 925.874 354.068C926.098 354.049 926.304 354.012 926.49 353.956L926.434 356.028C926.136 356.103 925.837 356.159 925.538 356.196C925.258 356.233 924.978 356.252 924.698 356.252ZM933.652 356.252C932.551 356.252 931.627 356.047 930.88 355.636C930.152 355.225 929.611 354.619 929.256 353.816C928.902 353.013 928.724 352.005 928.724 350.792V342.364H931.272V350.792C931.272 351.557 931.375 352.192 931.58 352.696C931.786 353.2 932.103 353.573 932.532 353.816C932.98 354.059 933.54 354.18 934.212 354.18C934.959 354.18 935.612 354.012 936.172 353.676C936.732 353.34 937.171 352.864 937.488 352.248C937.806 351.632 937.964 350.913 937.964 350.092V342.364H940.512V356H938.02V352.92H938.384C938.011 354.003 937.404 354.833 936.564 355.412C935.743 355.972 934.772 356.252 933.652 356.252ZM950.744 361.292C949.531 361.292 948.402 361.143 947.356 360.844C946.311 360.545 945.378 360.088 944.556 359.472L945.368 357.624C945.928 357.997 946.479 358.305 947.02 358.548C947.58 358.809 948.15 358.996 948.728 359.108C949.326 359.22 949.942 359.276 950.576 359.276C951.902 359.276 952.891 358.931 953.544 358.24C954.216 357.568 954.552 356.579 954.552 355.272V352.248H954.804C954.543 353.293 953.955 354.124 953.04 354.74C952.144 355.356 951.099 355.664 949.904 355.664C948.672 355.664 947.599 355.384 946.684 354.824C945.77 354.245 945.06 353.452 944.556 352.444C944.052 351.417 943.8 350.232 943.8 348.888C943.8 347.525 944.052 346.34 944.556 345.332C945.06 344.305 945.77 343.512 946.684 342.952C947.599 342.392 948.672 342.112 949.904 342.112C951.118 342.112 952.172 342.42 953.068 343.036C953.964 343.652 954.543 344.483 954.804 345.528H954.552V342.364H957.044V354.936C957.044 356.336 956.802 357.512 956.316 358.464C955.85 359.416 955.15 360.125 954.216 360.592C953.283 361.059 952.126 361.292 950.744 361.292ZM950.464 353.648C951.715 353.648 952.704 353.219 953.432 352.36C954.16 351.501 954.524 350.344 954.524 348.888C954.524 347.413 954.16 346.256 953.432 345.416C952.704 344.557 951.715 344.128 950.464 344.128C949.214 344.128 948.215 344.557 947.468 345.416C946.74 346.256 946.376 347.413 946.376 348.888C946.376 350.344 946.74 351.501 947.468 352.36C948.215 353.219 949.214 353.648 950.464 353.648ZM960.876 339.088V336.344H963.928V339.088H960.876ZM961.128 356V342.364H963.676V356H961.128ZM967.773 356V342.364H970.265V345.332H969.957C970.349 344.268 970.983 343.465 971.861 342.924C972.757 342.383 973.774 342.112 974.913 342.112C976.014 342.112 976.919 342.308 977.629 342.7C978.338 343.092 978.87 343.699 979.225 344.52C979.579 345.323 979.757 346.331 979.757 347.544V356H977.209V347.684C977.209 346.881 977.106 346.219 976.901 345.696C976.695 345.173 976.369 344.791 975.921 344.548C975.491 344.305 974.941 344.184 974.269 344.184C973.485 344.184 972.794 344.352 972.197 344.688C971.599 345.024 971.133 345.5 970.797 346.116C970.479 346.732 970.321 347.451 970.321 348.272V356H967.773Z" fill="white"/>
<rect x="142" y="339" width="358" height="108" rx="9" fill="white" stroke="url(#paint2_linear_467_488)" stroke-width="2"/>
<path d="M198.335 402V384.472H191.251V382.26H208.023V384.472H200.939V402H198.335ZM214.33 402.252C212.856 402.252 211.586 401.972 210.522 401.412C209.477 400.833 208.665 400.021 208.086 398.976C207.508 397.912 207.218 396.661 207.218 395.224C207.218 393.805 207.498 392.564 208.058 391.5C208.637 390.436 209.421 389.605 210.41 389.008C211.418 388.411 212.566 388.112 213.854 388.112C215.105 388.112 216.169 388.383 217.046 388.924C217.942 389.465 218.624 390.24 219.09 391.248C219.576 392.237 219.818 393.432 219.818 394.832V395.756H209.206V394.132H218.138L217.662 394.524C217.662 393.068 217.345 391.948 216.71 391.164C216.076 390.361 215.142 389.96 213.91 389.96C213.014 389.96 212.249 390.175 211.614 390.604C210.98 391.015 210.494 391.603 210.158 392.368C209.822 393.115 209.654 393.983 209.654 394.972V395.14C209.654 396.26 209.832 397.203 210.186 397.968C210.56 398.715 211.092 399.284 211.782 399.676C212.473 400.049 213.322 400.236 214.33 400.236C215.133 400.236 215.908 400.115 216.654 399.872C217.42 399.611 218.138 399.209 218.81 398.668L219.594 400.432C218.978 400.992 218.185 401.44 217.214 401.776C216.262 402.093 215.301 402.252 214.33 402.252ZM222.987 402V388.364H225.479V391.332H225.171C225.563 390.268 226.198 389.465 227.075 388.924C227.971 388.383 228.989 388.112 230.127 388.112C231.229 388.112 232.134 388.308 232.843 388.7C233.553 389.092 234.085 389.699 234.439 390.52C234.794 391.323 234.971 392.331 234.971 393.544V402H232.423V393.684C232.423 392.881 232.321 392.219 232.115 391.696C231.91 391.173 231.583 390.791 231.135 390.548C230.706 390.305 230.155 390.184 229.483 390.184C228.699 390.184 228.009 390.352 227.411 390.688C226.814 391.024 226.347 391.5 226.011 392.116C225.694 392.732 225.535 393.451 225.535 394.272V402H222.987ZM243.351 402.252C242.417 402.252 241.568 402.065 240.803 401.692C240.056 401.319 239.468 400.815 239.039 400.18C238.628 399.545 238.423 398.836 238.423 398.052C238.423 397.044 238.675 396.251 239.179 395.672C239.683 395.093 240.532 394.683 241.727 394.44C242.921 394.179 244.527 394.048 246.543 394.048H247.859V395.672H246.599C245.516 395.672 244.611 395.709 243.883 395.784C243.155 395.859 242.576 395.98 242.147 396.148C241.717 396.316 241.409 396.549 241.223 396.848C241.036 397.128 240.943 397.483 240.943 397.912C240.943 398.64 241.195 399.237 241.699 399.704C242.221 400.171 242.931 400.404 243.827 400.404C244.536 400.404 245.161 400.236 245.703 399.9C246.244 399.545 246.673 399.079 246.991 398.5C247.308 397.903 247.467 397.221 247.467 396.456V393.236C247.467 392.135 247.243 391.341 246.795 390.856C246.347 390.352 245.591 390.1 244.527 390.1C243.743 390.1 242.959 390.221 242.175 390.464C241.409 390.707 240.616 391.08 239.795 391.584L238.983 389.764C239.468 389.428 240.019 389.139 240.635 388.896C241.269 388.635 241.923 388.439 242.595 388.308C243.285 388.177 243.948 388.112 244.583 388.112C245.796 388.112 246.795 388.308 247.579 388.7C248.363 389.073 248.951 389.661 249.343 390.464C249.735 391.248 249.931 392.256 249.931 393.488V402H247.523V398.892H247.775C247.625 399.583 247.345 400.18 246.935 400.684C246.524 401.188 246.011 401.58 245.395 401.86C244.797 402.121 244.116 402.252 243.351 402.252ZM253.94 402V388.364H256.432V391.332H256.124C256.516 390.268 257.151 389.465 258.028 388.924C258.924 388.383 259.942 388.112 261.08 388.112C262.182 388.112 263.087 388.308 263.796 388.7C264.506 389.092 265.038 389.699 265.392 390.52C265.747 391.323 265.924 392.331 265.924 393.544V402H263.376V393.684C263.376 392.881 263.274 392.219 263.068 391.696C262.863 391.173 262.536 390.791 262.088 390.548C261.659 390.305 261.108 390.184 260.436 390.184C259.652 390.184 258.962 390.352 258.364 390.688C257.767 391.024 257.3 391.5 256.964 392.116C256.647 392.732 256.488 393.451 256.488 394.272V402H253.94ZM275.62 402.252C273.959 402.252 272.717 401.823 271.896 400.964C271.075 400.087 270.664 398.836 270.664 397.212V390.324H268.004V388.364H270.664V384.22H273.212V388.364H277.496V390.324H273.212V396.988C273.212 398.015 273.427 398.789 273.856 399.312C274.285 399.835 274.995 400.096 275.984 400.096C276.283 400.096 276.572 400.068 276.852 400.012C277.151 399.937 277.431 399.863 277.692 399.788L278.112 401.692C277.851 401.86 277.477 401.991 276.992 402.084C276.525 402.196 276.068 402.252 275.62 402.252ZM293.181 402.252C291.799 402.252 290.605 401.963 289.597 401.384C288.589 400.787 287.814 399.956 287.273 398.892C286.731 397.809 286.461 396.54 286.461 395.084C286.461 393.647 286.731 392.405 287.273 391.36C287.814 390.315 288.589 389.512 289.597 388.952C290.605 388.392 291.799 388.112 293.181 388.112C294.039 388.112 294.879 388.261 295.701 388.56C296.541 388.859 297.231 389.279 297.773 389.82L296.933 391.612C296.391 391.127 295.803 390.763 295.169 390.52C294.534 390.277 293.927 390.156 293.349 390.156C291.986 390.156 290.931 390.585 290.185 391.444C289.438 392.303 289.065 393.525 289.065 395.112C289.065 396.699 289.438 397.949 290.185 398.864C290.931 399.76 291.986 400.208 293.349 400.208C293.927 400.208 294.534 400.087 295.169 399.844C295.803 399.601 296.391 399.228 296.933 398.724L297.773 400.544C297.231 401.085 296.531 401.505 295.673 401.804C294.833 402.103 294.002 402.252 293.181 402.252ZM305.811 402.252C304.467 402.252 303.3 401.963 302.311 401.384C301.321 400.805 300.556 399.984 300.015 398.92C299.473 397.856 299.203 396.605 299.203 395.168C299.203 393.731 299.473 392.489 300.015 391.444C300.556 390.38 301.321 389.559 302.311 388.98C303.3 388.401 304.467 388.112 305.811 388.112C307.155 388.112 308.321 388.401 309.311 388.98C310.3 389.559 311.065 390.38 311.607 391.444C312.148 392.489 312.419 393.731 312.419 395.168C312.419 396.605 312.148 397.856 311.607 398.92C311.065 399.984 310.3 400.805 309.311 401.384C308.321 401.963 307.155 402.252 305.811 402.252ZM305.811 400.236C307.043 400.236 308.023 399.807 308.751 398.948C309.479 398.071 309.843 396.811 309.843 395.168C309.843 393.525 309.479 392.275 308.751 391.416C308.023 390.557 307.043 390.128 305.811 390.128C304.597 390.128 303.617 390.557 302.871 391.416C302.143 392.275 301.779 393.525 301.779 395.168C301.779 396.811 302.143 398.071 302.871 398.948C303.617 399.807 304.597 400.236 305.811 400.236ZM315.683 402V388.364H318.175V391.332H317.867C318.259 390.268 318.893 389.465 319.771 388.924C320.667 388.383 321.684 388.112 322.823 388.112C323.924 388.112 324.829 388.308 325.539 388.7C326.248 389.092 326.78 389.699 327.135 390.52C327.489 391.323 327.667 392.331 327.667 393.544V402H325.119V393.684C325.119 392.881 325.016 392.219 324.811 391.696C324.605 391.173 324.279 390.791 323.831 390.548C323.401 390.305 322.851 390.184 322.179 390.184C321.395 390.184 320.704 390.352 320.107 390.688C319.509 391.024 319.043 391.5 318.707 392.116C318.389 392.732 318.231 393.451 318.231 394.272V402H315.683ZM337.362 402.252C335.701 402.252 334.459 401.823 333.638 400.964C332.817 400.087 332.406 398.836 332.406 397.212V390.324H329.746V388.364H332.406V384.22H334.954V388.364H339.238V390.324H334.954V396.988C334.954 398.015 335.169 398.789 335.598 399.312C336.027 399.835 336.737 400.096 337.726 400.096C338.025 400.096 338.314 400.068 338.594 400.012C338.893 399.937 339.173 399.863 339.434 399.788L339.854 401.692C339.593 401.86 339.219 401.991 338.734 402.084C338.267 402.196 337.81 402.252 337.362 402.252ZM341.741 402V388.364H344.233V391.612H343.953C344.252 390.492 344.793 389.652 345.577 389.092C346.361 388.513 347.397 388.177 348.685 388.084L349.553 388L349.749 390.212L348.153 390.352C346.921 390.483 345.969 390.884 345.297 391.556C344.644 392.228 344.317 393.152 344.317 394.328V402H341.741ZM357.572 402.252C356.228 402.252 355.062 401.963 354.072 401.384C353.083 400.805 352.318 399.984 351.776 398.92C351.235 397.856 350.964 396.605 350.964 395.168C350.964 393.731 351.235 392.489 351.776 391.444C352.318 390.38 353.083 389.559 354.072 388.98C355.062 388.401 356.228 388.112 357.572 388.112C358.916 388.112 360.083 388.401 361.072 388.98C362.062 389.559 362.827 390.38 363.368 391.444C363.91 392.489 364.18 393.731 364.18 395.168C364.18 396.605 363.91 397.856 363.368 398.92C362.827 399.984 362.062 400.805 361.072 401.384C360.083 401.963 358.916 402.252 357.572 402.252ZM357.572 400.236C358.804 400.236 359.784 399.807 360.512 398.948C361.24 398.071 361.604 396.811 361.604 395.168C361.604 393.525 361.24 392.275 360.512 391.416C359.784 390.557 358.804 390.128 357.572 390.128C356.359 390.128 355.379 390.557 354.632 391.416C353.904 392.275 353.54 393.525 353.54 395.168C353.54 396.811 353.904 398.071 354.632 398.948C355.379 399.807 356.359 400.236 357.572 400.236ZM371.784 402.252C370.328 402.252 369.236 401.841 368.508 401.02C367.799 400.18 367.444 398.976 367.444 397.408V382.26H369.992V397.212C369.992 397.847 370.076 398.388 370.244 398.836C370.431 399.265 370.692 399.583 371.028 399.788C371.383 399.993 371.822 400.096 372.344 400.096C372.55 400.096 372.755 400.087 372.96 400.068C373.184 400.049 373.39 400.012 373.576 399.956L373.52 402.028C373.222 402.103 372.923 402.159 372.624 402.196C372.344 402.233 372.064 402.252 371.784 402.252ZM383.14 407.04V388.364H385.632V391.5H385.352C385.65 390.473 386.238 389.652 387.116 389.036C387.993 388.42 389.048 388.112 390.28 388.112C391.493 388.112 392.548 388.401 393.444 388.98C394.34 389.54 395.04 390.352 395.544 391.416C396.048 392.461 396.3 393.712 396.3 395.168C396.3 396.605 396.048 397.865 395.544 398.948C395.058 400.012 394.358 400.833 393.444 401.412C392.548 401.972 391.493 402.252 390.28 402.252C389.066 402.252 388.021 401.944 387.144 401.328C386.266 400.712 385.678 399.9 385.38 398.892H385.688V407.04H383.14ZM389.692 400.236C390.924 400.236 391.904 399.807 392.632 398.948C393.36 398.071 393.724 396.811 393.724 395.168C393.724 393.525 393.36 392.275 392.632 391.416C391.904 390.557 390.924 390.128 389.692 390.128C388.46 390.128 387.48 390.557 386.752 391.416C386.024 392.275 385.66 393.525 385.66 395.168C385.66 396.811 386.024 398.071 386.752 398.948C387.48 399.807 388.46 400.236 389.692 400.236ZM403.913 402.252C402.457 402.252 401.365 401.841 400.637 401.02C399.928 400.18 399.573 398.976 399.573 397.408V382.26H402.121V397.212C402.121 397.847 402.205 398.388 402.373 398.836C402.56 399.265 402.821 399.583 403.157 399.788C403.512 399.993 403.951 400.096 404.473 400.096C404.679 400.096 404.884 400.087 405.089 400.068C405.313 400.049 405.519 400.012 405.705 399.956L405.649 402.028C405.351 402.103 405.052 402.159 404.753 402.196C404.473 402.233 404.193 402.252 403.913 402.252ZM412.335 402.252C411.402 402.252 410.553 402.065 409.787 401.692C409.041 401.319 408.453 400.815 408.023 400.18C407.613 399.545 407.407 398.836 407.407 398.052C407.407 397.044 407.659 396.251 408.163 395.672C408.667 395.093 409.517 394.683 410.711 394.44C411.906 394.179 413.511 394.048 415.527 394.048H416.843V395.672H415.583C414.501 395.672 413.595 395.709 412.867 395.784C412.139 395.859 411.561 395.98 411.131 396.148C410.702 396.316 410.394 396.549 410.207 396.848C410.021 397.128 409.927 397.483 409.927 397.912C409.927 398.64 410.179 399.237 410.683 399.704C411.206 400.171 411.915 400.404 412.811 400.404C413.521 400.404 414.146 400.236 414.687 399.9C415.229 399.545 415.658 399.079 415.975 398.5C416.293 397.903 416.451 397.221 416.451 396.456V393.236C416.451 392.135 416.227 391.341 415.779 390.856C415.331 390.352 414.575 390.1 413.511 390.1C412.727 390.1 411.943 390.221 411.159 390.464C410.394 390.707 409.601 391.08 408.779 391.584L407.967 389.764C408.453 389.428 409.003 389.139 409.619 388.896C410.254 388.635 410.907 388.439 411.579 388.308C412.27 388.177 412.933 388.112 413.567 388.112C414.781 388.112 415.779 388.308 416.563 388.7C417.347 389.073 417.935 389.661 418.327 390.464C418.719 391.248 418.915 392.256 418.915 393.488V402H416.507V398.892H416.759C416.61 399.583 416.33 400.18 415.919 400.684C415.509 401.188 414.995 401.58 414.379 401.86C413.782 402.121 413.101 402.252 412.335 402.252ZM422.925 402V388.364H425.417V391.332H425.109C425.501 390.268 426.136 389.465 427.013 388.924C427.909 388.383 428.926 388.112 430.065 388.112C431.166 388.112 432.072 388.308 432.781 388.7C433.49 389.092 434.022 389.699 434.377 390.52C434.732 391.323 434.909 392.331 434.909 393.544V402H432.361V393.684C432.361 392.881 432.258 392.219 432.053 391.696C431.848 391.173 431.521 390.791 431.073 390.548C430.644 390.305 430.093 390.184 429.421 390.184C428.637 390.184 427.946 390.352 427.349 390.688C426.752 391.024 426.285 391.5 425.949 392.116C425.632 392.732 425.473 393.451 425.473 394.272V402H422.925ZM445.248 402.252C443.774 402.252 442.504 401.972 441.44 401.412C440.395 400.833 439.583 400.021 439.004 398.976C438.426 397.912 438.136 396.661 438.136 395.224C438.136 393.805 438.416 392.564 438.976 391.5C439.555 390.436 440.339 389.605 441.328 389.008C442.336 388.411 443.484 388.112 444.772 388.112C446.023 388.112 447.087 388.383 447.964 388.924C448.86 389.465 449.542 390.24 450.008 391.248C450.494 392.237 450.736 393.432 450.736 394.832V395.756H440.124V394.132H449.056L448.58 394.524C448.58 393.068 448.263 391.948 447.628 391.164C446.994 390.361 446.06 389.96 444.828 389.96C443.932 389.96 443.167 390.175 442.532 390.604C441.898 391.015 441.412 391.603 441.076 392.368C440.74 393.115 440.572 393.983 440.572 394.972V395.14C440.572 396.26 440.75 397.203 441.104 397.968C441.478 398.715 442.01 399.284 442.7 399.676C443.391 400.049 444.24 400.236 445.248 400.236C446.051 400.236 446.826 400.115 447.572 399.872C448.338 399.611 449.056 399.209 449.728 398.668L450.512 400.432C449.896 400.992 449.103 401.44 448.132 401.776C447.18 402.093 446.219 402.252 445.248 402.252Z" fill="black"/>
<path d="M113.467 120V100.26H115.651L123.519 115.016H122.651L130.491 100.26H132.647V120H130.295V103.872H130.911L123.883 116.976H122.259L115.147 103.844H115.819V120H113.467ZM141.45 120.252C140.517 120.252 139.668 120.065 138.902 119.692C138.156 119.319 137.568 118.815 137.138 118.18C136.728 117.545 136.522 116.836 136.522 116.052C136.522 115.044 136.774 114.251 137.278 113.672C137.782 113.093 138.632 112.683 139.826 112.44C141.021 112.179 142.626 112.048 144.642 112.048H145.958V113.672H144.698C143.616 113.672 142.71 113.709 141.982 113.784C141.254 113.859 140.676 113.98 140.246 114.148C139.817 114.316 139.509 114.549 139.322 114.848C139.136 115.128 139.042 115.483 139.042 115.912C139.042 116.64 139.294 117.237 139.798 117.704C140.321 118.171 141.03 118.404 141.926 118.404C142.636 118.404 143.261 118.236 143.802 117.9C144.344 117.545 144.773 117.079 145.09 116.5C145.408 115.903 145.566 115.221 145.566 114.456V111.236C145.566 110.135 145.342 109.341 144.894 108.856C144.446 108.352 143.69 108.1 142.626 108.1C141.842 108.1 141.058 108.221 140.274 108.464C139.509 108.707 138.716 109.08 137.894 109.584L137.082 107.764C137.568 107.428 138.118 107.139 138.734 106.896C139.369 106.635 140.022 106.439 140.694 106.308C141.385 106.177 142.048 106.112 142.682 106.112C143.896 106.112 144.894 106.308 145.678 106.7C146.462 107.073 147.05 107.661 147.442 108.464C147.834 109.248 148.03 110.256 148.03 111.488V120H145.622V116.892H145.874C145.725 117.583 145.445 118.18 145.034 118.684C144.624 119.188 144.11 119.58 143.494 119.86C142.897 120.121 142.216 120.252 141.45 120.252ZM152.04 120V106.364H154.532V109.332H154.224C154.616 108.268 155.251 107.465 156.128 106.924C157.024 106.383 158.041 106.112 159.18 106.112C160.281 106.112 161.187 106.308 161.896 106.7C162.605 107.092 163.137 107.699 163.492 108.52C163.847 109.323 164.024 110.331 164.024 111.544V120H161.476V111.684C161.476 110.881 161.373 110.219 161.168 109.696C160.963 109.173 160.636 108.791 160.188 108.548C159.759 108.305 159.208 108.184 158.536 108.184C157.752 108.184 157.061 108.352 156.464 108.688C155.867 109.024 155.4 109.5 155.064 110.116C154.747 110.732 154.588 111.451 154.588 112.272V120H152.04ZM172.404 120.252C171.47 120.252 170.621 120.065 169.856 119.692C169.109 119.319 168.521 118.815 168.092 118.18C167.681 117.545 167.476 116.836 167.476 116.052C167.476 115.044 167.728 114.251 168.232 113.672C168.736 113.093 169.585 112.683 170.78 112.44C171.974 112.179 173.58 112.048 175.596 112.048H176.912V113.672H175.652C174.569 113.672 173.664 113.709 172.936 113.784C172.208 113.859 171.629 113.98 171.2 114.148C170.77 114.316 170.462 114.549 170.276 114.848C170.089 115.128 169.996 115.483 169.996 115.912C169.996 116.64 170.248 117.237 170.752 117.704C171.274 118.171 171.984 118.404 172.88 118.404C173.589 118.404 174.214 118.236 174.756 117.9C175.297 117.545 175.726 117.079 176.044 116.5C176.361 115.903 176.52 115.221 176.52 114.456V111.236C176.52 110.135 176.296 109.341 175.848 108.856C175.4 108.352 174.644 108.1 173.58 108.1C172.796 108.1 172.012 108.221 171.228 108.464C170.462 108.707 169.669 109.08 168.848 109.584L168.036 107.764C168.521 107.428 169.072 107.139 169.688 106.896C170.322 106.635 170.976 106.439 171.648 106.308C172.338 106.177 173.001 106.112 173.636 106.112C174.849 106.112 175.848 106.308 176.632 106.7C177.416 107.073 178.004 107.661 178.396 108.464C178.788 109.248 178.984 110.256 178.984 111.488V120H176.576V116.892H176.828C176.678 117.583 176.398 118.18 175.988 118.684C175.577 119.188 175.064 119.58 174.448 119.86C173.85 120.121 173.169 120.252 172.404 120.252ZM189.125 125.292C187.912 125.292 186.783 125.143 185.737 124.844C184.692 124.545 183.759 124.088 182.937 123.472L183.749 121.624C184.309 121.997 184.86 122.305 185.401 122.548C185.961 122.809 186.531 122.996 187.109 123.108C187.707 123.22 188.323 123.276 188.957 123.276C190.283 123.276 191.272 122.931 191.925 122.24C192.597 121.568 192.933 120.579 192.933 119.272V116.248H193.185C192.924 117.293 192.336 118.124 191.421 118.74C190.525 119.356 189.48 119.664 188.285 119.664C187.053 119.664 185.98 119.384 185.065 118.824C184.151 118.245 183.441 117.452 182.937 116.444C182.433 115.417 182.181 114.232 182.181 112.888C182.181 111.525 182.433 110.34 182.937 109.332C183.441 108.305 184.151 107.512 185.065 106.952C185.98 106.392 187.053 106.112 188.285 106.112C189.499 106.112 190.553 106.42 191.449 107.036C192.345 107.652 192.924 108.483 193.185 109.528H192.933V106.364H195.425V118.936C195.425 120.336 195.183 121.512 194.697 122.464C194.231 123.416 193.531 124.125 192.597 124.592C191.664 125.059 190.507 125.292 189.125 125.292ZM188.845 117.648C190.096 117.648 191.085 117.219 191.813 116.36C192.541 115.501 192.905 114.344 192.905 112.888C192.905 111.413 192.541 110.256 191.813 109.416C191.085 108.557 190.096 108.128 188.845 108.128C187.595 108.128 186.596 108.557 185.849 109.416C185.121 110.256 184.757 111.413 184.757 112.888C184.757 114.344 185.121 115.501 185.849 116.36C186.596 117.219 187.595 117.648 188.845 117.648ZM205.809 120.252C204.334 120.252 203.065 119.972 202.001 119.412C200.956 118.833 200.144 118.021 199.565 116.976C198.986 115.912 198.697 114.661 198.697 113.224C198.697 111.805 198.977 110.564 199.537 109.5C200.116 108.436 200.9 107.605 201.889 107.008C202.897 106.411 204.045 106.112 205.333 106.112C206.584 106.112 207.648 106.383 208.525 106.924C209.421 107.465 210.102 108.24 210.569 109.248C211.054 110.237 211.297 111.432 211.297 112.832V113.756H200.685V112.132H209.617L209.141 112.524C209.141 111.068 208.824 109.948 208.189 109.164C207.554 108.361 206.621 107.96 205.389 107.96C204.493 107.96 203.728 108.175 203.093 108.604C202.458 109.015 201.973 109.603 201.637 110.368C201.301 111.115 201.133 111.983 201.133 112.972V113.14C201.133 114.26 201.31 115.203 201.665 115.968C202.038 116.715 202.57 117.284 203.261 117.676C203.952 118.049 204.801 118.236 205.809 118.236C206.612 118.236 207.386 118.115 208.133 117.872C208.898 117.611 209.617 117.209 210.289 116.668L211.073 118.432C210.457 118.992 209.664 119.44 208.693 119.776C207.741 120.093 206.78 120.252 205.809 120.252ZM214.522 120V106.364H217.014V109.332H216.706C216.949 108.641 217.285 108.063 217.714 107.596C218.143 107.111 218.657 106.747 219.254 106.504C219.87 106.243 220.542 106.112 221.27 106.112C222.427 106.112 223.361 106.392 224.07 106.952C224.779 107.493 225.255 108.324 225.498 109.444H225.106C225.442 108.417 226.039 107.605 226.898 107.008C227.775 106.411 228.793 106.112 229.95 106.112C230.977 106.112 231.817 106.317 232.47 106.728C233.142 107.12 233.646 107.717 233.982 108.52C234.318 109.304 234.486 110.312 234.486 111.544V120H231.938V111.656C231.938 110.461 231.733 109.584 231.322 109.024C230.911 108.464 230.221 108.184 229.25 108.184C228.541 108.184 227.925 108.352 227.402 108.688C226.879 109.024 226.478 109.5 226.198 110.116C225.918 110.732 225.778 111.469 225.778 112.328V120H223.23V111.656C223.23 110.461 223.025 109.584 222.614 109.024C222.203 108.464 221.513 108.184 220.542 108.184C219.833 108.184 219.217 108.352 218.694 108.688C218.171 109.024 217.77 109.5 217.49 110.116C217.21 110.732 217.07 111.469 217.07 112.328V120H214.522ZM244.883 120.252C243.408 120.252 242.139 119.972 241.075 119.412C240.03 118.833 239.218 118.021 238.639 116.976C238.06 115.912 237.771 114.661 237.771 113.224C237.771 111.805 238.051 110.564 238.611 109.5C239.19 108.436 239.974 107.605 240.963 107.008C241.971 106.411 243.119 106.112 244.407 106.112C245.658 106.112 246.722 106.383 247.599 106.924C248.495 107.465 249.176 108.24 249.643 109.248C250.128 110.237 250.371 111.432 250.371 112.832V113.756H239.759V112.132H248.691L248.215 112.524C248.215 111.068 247.898 109.948 247.263 109.164C246.628 108.361 245.695 107.96 244.463 107.96C243.567 107.96 242.802 108.175 242.167 108.604C241.532 109.015 241.047 109.603 240.711 110.368C240.375 111.115 240.207 111.983 240.207 112.972V113.14C240.207 114.26 240.384 115.203 240.739 115.968C241.112 116.715 241.644 117.284 242.335 117.676C243.026 118.049 243.875 118.236 244.883 118.236C245.686 118.236 246.46 118.115 247.207 117.872C247.972 117.611 248.691 117.209 249.363 116.668L250.147 118.432C249.531 118.992 248.738 119.44 247.767 119.776C246.815 120.093 245.854 120.252 244.883 120.252ZM253.54 120V106.364H256.032V109.332H255.724C256.116 108.268 256.751 107.465 257.628 106.924C258.524 106.383 259.541 106.112 260.68 106.112C261.781 106.112 262.687 106.308 263.396 106.7C264.105 107.092 264.637 107.699 264.992 108.52C265.347 109.323 265.524 110.331 265.524 111.544V120H262.976V111.684C262.976 110.881 262.873 110.219 262.668 109.696C262.463 109.173 262.136 108.791 261.688 108.548C261.259 108.305 260.708 108.184 260.036 108.184C259.252 108.184 258.561 108.352 257.964 108.688C257.367 109.024 256.9 109.5 256.564 110.116C256.247 110.732 256.088 111.451 256.088 112.272V120H253.54ZM275.22 120.252C273.558 120.252 272.317 119.823 271.496 118.964C270.674 118.087 270.264 116.836 270.264 115.212V108.324H267.604V106.364H270.264V102.22H272.812V106.364H277.096V108.324H272.812V114.988C272.812 116.015 273.026 116.789 273.456 117.312C273.885 117.835 274.594 118.096 275.584 118.096C275.882 118.096 276.172 118.068 276.452 118.012C276.75 117.937 277.03 117.863 277.292 117.788L277.712 119.692C277.45 119.86 277.077 119.991 276.592 120.084C276.125 120.196 275.668 120.252 275.22 120.252ZM287.208 120V100.26H289.812V109.192H289.868L299.22 100.26H302.496L291.632 110.508L291.66 109.192L303.056 120H299.752L289.868 110.732H289.812V120H287.208ZM309.217 120.252C308.115 120.252 307.191 120.047 306.445 119.636C305.717 119.225 305.175 118.619 304.821 117.816C304.466 117.013 304.289 116.005 304.289 114.792V106.364H306.837V114.792C306.837 115.557 306.939 116.192 307.145 116.696C307.35 117.2 307.667 117.573 308.097 117.816C308.545 118.059 309.105 118.18 309.777 118.18C310.523 118.18 311.177 118.012 311.737 117.676C312.297 117.34 312.735 116.864 313.053 116.248C313.37 115.632 313.529 114.913 313.529 114.092V106.364H316.077V120H313.585V116.92H313.949C313.575 118.003 312.969 118.833 312.129 119.412C311.307 119.972 310.337 120.252 309.217 120.252ZM327.317 120.252C326.085 120.252 325.03 119.944 324.153 119.328C323.275 118.712 322.687 117.881 322.389 116.836H322.669V120H320.177V100.26H322.725V109.444H322.417C322.715 108.436 323.303 107.633 324.181 107.036C325.058 106.42 326.103 106.112 327.317 106.112C328.53 106.112 329.585 106.401 330.481 106.98C331.395 107.54 332.095 108.352 332.581 109.416C333.085 110.461 333.337 111.712 333.337 113.168C333.337 114.605 333.085 115.865 332.581 116.948C332.077 118.012 331.377 118.833 330.481 119.412C329.585 119.972 328.53 120.252 327.317 120.252ZM326.729 118.236C327.961 118.236 328.941 117.807 329.669 116.948C330.397 116.071 330.761 114.811 330.761 113.168C330.761 111.525 330.397 110.275 329.669 109.416C328.941 108.557 327.961 108.128 326.729 108.128C325.497 108.128 324.517 108.557 323.789 109.416C323.061 110.275 322.697 111.525 322.697 113.168C322.697 114.811 323.061 116.071 323.789 116.948C324.517 117.807 325.497 118.236 326.729 118.236ZM342.91 120.252C341.436 120.252 340.166 119.972 339.102 119.412C338.057 118.833 337.245 118.021 336.666 116.976C336.088 115.912 335.798 114.661 335.798 113.224C335.798 111.805 336.078 110.564 336.638 109.5C337.217 108.436 338.001 107.605 338.99 107.008C339.998 106.411 341.146 106.112 342.434 106.112C343.685 106.112 344.749 106.383 345.626 106.924C346.522 107.465 347.204 108.24 347.67 109.248C348.156 110.237 348.398 111.432 348.398 112.832V113.756H337.786V112.132H346.718L346.242 112.524C346.242 111.068 345.925 109.948 345.29 109.164C344.656 108.361 343.722 107.96 342.49 107.96C341.594 107.96 340.829 108.175 340.194 108.604C339.56 109.015 339.074 109.603 338.738 110.368C338.402 111.115 338.234 111.983 338.234 112.972V113.14C338.234 114.26 338.412 115.203 338.766 115.968C339.14 116.715 339.672 117.284 340.362 117.676C341.053 118.049 341.902 118.236 342.91 118.236C343.713 118.236 344.488 118.115 345.234 117.872C346 117.611 346.718 117.209 347.39 116.668L348.174 118.432C347.558 118.992 346.765 119.44 345.794 119.776C344.842 120.093 343.881 120.252 342.91 120.252ZM351.567 120V106.364H354.059V109.612H353.779C354.078 108.492 354.619 107.652 355.403 107.092C356.187 106.513 357.223 106.177 358.511 106.084L359.379 106L359.575 108.212L357.979 108.352C356.747 108.483 355.795 108.884 355.123 109.556C354.47 110.228 354.143 111.152 354.143 112.328V120H351.567ZM361.794 120V106.364H364.286V109.332H363.978C364.37 108.268 365.005 107.465 365.882 106.924C366.778 106.383 367.795 106.112 368.934 106.112C370.035 106.112 370.941 106.308 371.65 106.7C372.359 107.092 372.891 107.699 373.246 108.52C373.601 109.323 373.778 110.331 373.778 111.544V120H371.23V111.684C371.23 110.881 371.127 110.219 370.922 109.696C370.717 109.173 370.39 108.791 369.942 108.548C369.513 108.305 368.962 108.184 368.29 108.184C367.506 108.184 366.815 108.352 366.218 108.688C365.621 109.024 365.154 109.5 364.818 110.116C364.501 110.732 364.342 111.451 364.342 112.272V120H361.794ZM384.117 120.252C382.643 120.252 381.373 119.972 380.309 119.412C379.264 118.833 378.452 118.021 377.873 116.976C377.295 115.912 377.005 114.661 377.005 113.224C377.005 111.805 377.285 110.564 377.845 109.5C378.424 108.436 379.208 107.605 380.197 107.008C381.205 106.411 382.353 106.112 383.641 106.112C384.892 106.112 385.956 106.383 386.833 106.924C387.729 107.465 388.411 108.24 388.877 109.248C389.363 110.237 389.605 111.432 389.605 112.832V113.756H378.993V112.132H387.925L387.449 112.524C387.449 111.068 387.132 109.948 386.497 109.164C385.863 108.361 384.929 107.96 383.697 107.96C382.801 107.96 382.036 108.175 381.401 108.604C380.767 109.015 380.281 109.603 379.945 110.368C379.609 111.115 379.441 111.983 379.441 112.972V113.14C379.441 114.26 379.619 115.203 379.973 115.968C380.347 116.715 380.879 117.284 381.569 117.676C382.26 118.049 383.109 118.236 384.117 118.236C384.92 118.236 385.695 118.115 386.441 117.872C387.207 117.611 387.925 117.209 388.597 116.668L389.381 118.432C388.765 118.992 387.972 119.44 387.001 119.776C386.049 120.093 385.088 120.252 384.117 120.252ZM398.403 120.252C396.742 120.252 395.5 119.823 394.679 118.964C393.858 118.087 393.447 116.836 393.447 115.212V108.324H390.787V106.364H393.447V102.22H395.995V106.364H400.279V108.324H395.995V114.988C395.995 116.015 396.21 116.789 396.639 117.312C397.068 117.835 397.778 118.096 398.767 118.096C399.066 118.096 399.355 118.068 399.635 118.012C399.934 117.937 400.214 117.863 400.475 117.788L400.895 119.692C400.634 119.86 400.26 119.991 399.775 120.084C399.308 120.196 398.851 120.252 398.403 120.252ZM408.946 120.252C407.471 120.252 406.202 119.972 405.138 119.412C404.092 118.833 403.28 118.021 402.702 116.976C402.123 115.912 401.834 114.661 401.834 113.224C401.834 111.805 402.114 110.564 402.674 109.5C403.252 108.436 404.036 107.605 405.026 107.008C406.034 106.411 407.182 106.112 408.47 106.112C409.72 106.112 410.784 106.383 411.662 106.924C412.558 107.465 413.239 108.24 413.706 109.248C414.191 110.237 414.434 111.432 414.434 112.832V113.756H403.822V112.132H412.754L412.278 112.524C412.278 111.068 411.96 109.948 411.326 109.164C410.691 108.361 409.758 107.96 408.526 107.96C407.63 107.96 406.864 108.175 406.23 108.604C405.595 109.015 405.11 109.603 404.774 110.368C404.438 111.115 404.27 111.983 404.27 112.972V113.14C404.27 114.26 404.447 115.203 404.802 115.968C405.175 116.715 405.707 117.284 406.398 117.676C407.088 118.049 407.938 118.236 408.946 118.236C409.748 118.236 410.523 118.115 411.27 117.872C412.035 117.611 412.754 117.209 413.426 116.668L414.21 118.432C413.594 118.992 412.8 119.44 411.83 119.776C410.878 120.093 409.916 120.252 408.946 120.252ZM422.307 120.252C421.597 120.252 420.897 120.187 420.207 120.056C419.535 119.925 418.909 119.739 418.331 119.496C417.771 119.235 417.276 118.927 416.847 118.572L417.603 116.808C418.051 117.144 418.536 117.433 419.059 117.676C419.581 117.9 420.123 118.068 420.683 118.18C421.243 118.292 421.803 118.348 422.363 118.348C423.389 118.348 424.164 118.161 424.687 117.788C425.209 117.415 425.471 116.92 425.471 116.304C425.471 115.781 425.293 115.38 424.939 115.1C424.603 114.801 424.071 114.577 423.343 114.428L420.739 113.896C419.581 113.635 418.704 113.205 418.107 112.608C417.528 111.992 417.239 111.208 417.239 110.256C417.239 109.416 417.463 108.688 417.911 108.072C418.377 107.437 419.021 106.952 419.843 106.616C420.664 106.28 421.607 106.112 422.671 106.112C423.305 106.112 423.921 106.177 424.519 106.308C425.116 106.439 425.676 106.625 426.199 106.868C426.721 107.111 427.16 107.428 427.515 107.82L426.731 109.556C426.376 109.22 425.975 108.94 425.527 108.716C425.079 108.492 424.612 108.324 424.127 108.212C423.641 108.081 423.156 108.016 422.671 108.016C421.663 108.016 420.897 108.212 420.375 108.604C419.871 108.996 419.619 109.509 419.619 110.144C419.619 110.629 419.768 111.031 420.067 111.348C420.384 111.665 420.879 111.899 421.551 112.048L424.155 112.58C425.368 112.841 426.283 113.261 426.899 113.84C427.515 114.4 427.823 115.165 427.823 116.136C427.823 116.995 427.589 117.732 427.123 118.348C426.675 118.964 426.031 119.44 425.191 119.776C424.369 120.093 423.408 120.252 422.307 120.252ZM447.427 120.252C445.467 120.252 443.787 119.841 442.387 119.02C440.987 118.199 439.905 117.032 439.139 115.52C438.393 113.989 438.019 112.188 438.019 110.116C438.019 108.044 438.393 106.252 439.139 104.74C439.905 103.228 440.987 102.061 442.387 101.24C443.787 100.419 445.467 100.008 447.427 100.008C448.771 100.008 450.022 100.223 451.179 100.652C452.355 101.063 453.335 101.679 454.119 102.5L453.167 104.572C452.309 103.807 451.422 103.247 450.507 102.892C449.593 102.537 448.585 102.36 447.483 102.36C445.318 102.36 443.657 103.032 442.499 104.376C441.361 105.72 440.791 107.633 440.791 110.116C440.791 112.599 441.361 114.521 442.499 115.884C443.657 117.228 445.318 117.9 447.483 117.9C448.585 117.9 449.593 117.723 450.507 117.368C451.422 117.013 452.309 116.453 453.167 115.688L454.119 117.76C453.335 118.563 452.355 119.179 451.179 119.608C450.022 120.037 448.771 120.252 447.427 120.252ZM461.618 120.252C460.162 120.252 459.07 119.841 458.342 119.02C457.633 118.18 457.278 116.976 457.278 115.408V100.26H459.826V115.212C459.826 115.847 459.91 116.388 460.078 116.836C460.265 117.265 460.526 117.583 460.862 117.788C461.217 117.993 461.656 118.096 462.178 118.096C462.384 118.096 462.589 118.087 462.794 118.068C463.018 118.049 463.224 118.012 463.41 117.956L463.354 120.028C463.056 120.103 462.757 120.159 462.458 120.196C462.178 120.233 461.898 120.252 461.618 120.252ZM470.572 120.252C469.471 120.252 468.547 120.047 467.8 119.636C467.072 119.225 466.531 118.619 466.176 117.816C465.822 117.013 465.644 116.005 465.644 114.792V106.364H468.192V114.792C468.192 115.557 468.295 116.192 468.5 116.696C468.706 117.2 469.023 117.573 469.452 117.816C469.9 118.059 470.46 118.18 471.132 118.18C471.879 118.18 472.532 118.012 473.092 117.676C473.652 117.34 474.091 116.864 474.408 116.248C474.726 115.632 474.884 114.913 474.884 114.092V106.364H477.432V120H474.94V116.92H475.304C474.931 118.003 474.324 118.833 473.484 119.412C472.663 119.972 471.692 120.252 470.572 120.252ZM486.236 120.252C485.527 120.252 484.827 120.187 484.136 120.056C483.464 119.925 482.839 119.739 482.26 119.496C481.7 119.235 481.206 118.927 480.776 118.572L481.532 116.808C481.98 117.144 482.466 117.433 482.988 117.676C483.511 117.9 484.052 118.068 484.612 118.18C485.172 118.292 485.732 118.348 486.292 118.348C487.319 118.348 488.094 118.161 488.616 117.788C489.139 117.415 489.4 116.92 489.4 116.304C489.4 115.781 489.223 115.38 488.868 115.1C488.532 114.801 488 114.577 487.272 114.428L484.668 113.896C483.511 113.635 482.634 113.205 482.036 112.608C481.458 111.992 481.168 111.208 481.168 110.256C481.168 109.416 481.392 108.688 481.84 108.072C482.307 107.437 482.951 106.952 483.772 106.616C484.594 106.28 485.536 106.112 486.6 106.112C487.235 106.112 487.851 106.177 488.448 106.308C489.046 106.439 489.606 106.625 490.128 106.868C490.651 107.111 491.09 107.428 491.444 107.82L490.66 109.556C490.306 109.22 489.904 108.94 489.456 108.716C489.008 108.492 488.542 108.324 488.056 108.212C487.571 108.081 487.086 108.016 486.6 108.016C485.592 108.016 484.827 108.212 484.304 108.604C483.8 108.996 483.548 109.509 483.548 110.144C483.548 110.629 483.698 111.031 483.996 111.348C484.314 111.665 484.808 111.899 485.48 112.048L488.084 112.58C489.298 112.841 490.212 113.261 490.828 113.84C491.444 114.4 491.752 115.165 491.752 116.136C491.752 116.995 491.519 117.732 491.052 118.348C490.604 118.964 489.96 119.44 489.12 119.776C488.299 120.093 487.338 120.252 486.236 120.252ZM500.587 120.252C498.925 120.252 497.684 119.823 496.863 118.964C496.041 118.087 495.631 116.836 495.631 115.212V108.324H492.971V106.364H495.631V102.22H498.179V106.364H502.463V108.324H498.179V114.988C498.179 116.015 498.393 116.789 498.823 117.312C499.252 117.835 499.961 118.096 500.951 118.096C501.249 118.096 501.539 118.068 501.819 118.012C502.117 117.937 502.397 117.863 502.659 117.788L503.079 119.692C502.817 119.86 502.444 119.991 501.959 120.084C501.492 120.196 501.035 120.252 500.587 120.252ZM511.129 120.252C509.654 120.252 508.385 119.972 507.321 119.412C506.276 118.833 505.464 118.021 504.885 116.976C504.306 115.912 504.017 114.661 504.017 113.224C504.017 111.805 504.297 110.564 504.857 109.5C505.436 108.436 506.22 107.605 507.209 107.008C508.217 106.411 509.365 106.112 510.653 106.112C511.904 106.112 512.968 106.383 513.845 106.924C514.741 107.465 515.422 108.24 515.889 109.248C516.374 110.237 516.617 111.432 516.617 112.832V113.756H506.005V112.132H514.937L514.461 112.524C514.461 111.068 514.144 109.948 513.509 109.164C512.874 108.361 511.941 107.96 510.709 107.96C509.813 107.96 509.048 108.175 508.413 108.604C507.778 109.015 507.293 109.603 506.957 110.368C506.621 111.115 506.453 111.983 506.453 112.972V113.14C506.453 114.26 506.63 115.203 506.985 115.968C507.358 116.715 507.89 117.284 508.581 117.676C509.272 118.049 510.121 118.236 511.129 118.236C511.932 118.236 512.706 118.115 513.453 117.872C514.218 117.611 514.937 117.209 515.609 116.668L516.393 118.432C515.777 118.992 514.984 119.44 514.013 119.776C513.061 120.093 512.1 120.252 511.129 120.252ZM519.786 120V106.364H522.278V109.612H521.998C522.297 108.492 522.838 107.652 523.622 107.092C524.406 106.513 525.442 106.177 526.73 106.084L527.598 106L527.794 108.212L526.198 108.352C524.966 108.483 524.014 108.884 523.342 109.556C522.689 110.228 522.362 111.152 522.362 112.328V120H519.786Z" fill="black"/>
<defs>
<filter id="filter0_d_467_488" x="39" y="45" width="1201" height="734" filterUnits="userSpaceOnUse" color-interpolation-filters="sRGB">
<feFlood flood-opacity="0" result="BackgroundImageFix"/>
<feColorMatrix in="SourceAlpha" type="matrix" values="0 0 0 0 0 0 0 0 0 0 0 0 0 0 0 0 0 0 127 0" result="hardAlpha"/>
<feMorphology radius="2" operator="dilate" in="SourceAlpha" result="effect1_dropShadow_467_488"/>
<feOffset dy="5"/>
<feGaussianBlur stdDeviation="10"/>
<feComposite in2="hardAlpha" operator="out"/>
<feColorMatrix type="matrix" values="0 0 0 0 0.730263 0 0 0 0 0.772123 0 0 0 0 0.834912 0 0 0 0.2 0"/>
<feBlend mode="normal" in2="BackgroundImageFix" result="effect1_dropShadow_467_488"/>
<feBlend mode="normal" in="SourceGraphic" in2="effect1_dropShadow_467_488" result="shape"/>
</filter>
<linearGradient id="paint0_linear_467_488" x1="676" y1="208" x2="1067.74" y2="605.736" gradientUnits="userSpaceOnUse">
<stop stop-color="#0185FF"/>
<stop offset="1" stop-color="#01CDFF"/>
</linearGradient>
<radialGradient id="paint1_radial_467_488" cx="0" cy="0" r="1" gradientUnits="userSpaceOnUse" gradientTransform="translate(365.311 411.043) scale(1060.71 449.024)">
<stop offset="0.140398" stop-color="#591BBF"/>
<stop offset="0.432481" stop-color="#5DA4EF"/>
<stop offset="0.655719" stop-color="#94DEE0"/>
<stop offset="0.900453" stop-color="#B0E07F"/>
</radialGradient>
<linearGradient id="paint2_linear_467_488" x1="141" y1="338" x2="233.683" y2="553.068" gradientUnits="userSpaceOnUse">
<stop stop-color="#0185FF"/>
<stop offset="1" stop-color="#01CDFF"/>
</linearGradient>
</defs>
</svg>
