<svg width="1279" height="815" viewBox="0 0 1279 815" fill="none" xmlns="http://www.w3.org/2000/svg">
<rect width="1279" height="815" fill="white"/>
<g filter="url(#filter0_d_467_421)">
<rect x="1218" y="62" width="690" height="1157" rx="10" transform="rotate(90 1218 62)" fill="white"/>
<rect x="1217.5" y="62.5" width="689" height="1156" rx="9.5" transform="rotate(90 1217.5 62.5)" stroke="#E3E7EB"/>
</g>
<rect x="677" y="209" width="482" height="336" rx="9" fill="white" stroke="url(#paint0_linear_467_421)" stroke-width="2"/>
<path d="M708.464 261V243.472H701.38V241.26H718.152V243.472H711.068V261H708.464ZM724.459 261.252C722.985 261.252 721.715 260.972 720.651 260.412C719.606 259.833 718.794 259.021 718.215 257.976C717.637 256.912 717.347 255.661 717.347 254.224C717.347 252.805 717.627 251.564 718.187 250.5C718.766 249.436 719.55 248.605 720.539 248.008C721.547 247.411 722.695 247.112 723.983 247.112C725.234 247.112 726.298 247.383 727.175 247.924C728.071 248.465 728.753 249.24 729.219 250.248C729.705 251.237 729.947 252.432 729.947 253.832V254.756H719.335V253.132H728.267L727.791 253.524C727.791 252.068 727.474 250.948 726.839 250.164C726.205 249.361 725.271 248.96 724.039 248.96C723.143 248.96 722.378 249.175 721.743 249.604C721.109 250.015 720.623 250.603 720.287 251.368C719.951 252.115 719.783 252.983 719.783 253.972V254.14C719.783 255.26 719.961 256.203 720.315 256.968C720.689 257.715 721.221 258.284 721.911 258.676C722.602 259.049 723.451 259.236 724.459 259.236C725.262 259.236 726.037 259.115 726.783 258.872C727.549 258.611 728.267 258.209 728.939 257.668L729.723 259.432C729.107 259.992 728.314 260.44 727.343 260.776C726.391 261.093 725.43 261.252 724.459 261.252ZM733.116 261V247.364H735.608V250.332H735.3C735.692 249.268 736.327 248.465 737.204 247.924C738.1 247.383 739.118 247.112 740.256 247.112C741.358 247.112 742.263 247.308 742.972 247.7C743.682 248.092 744.214 248.699 744.568 249.52C744.923 250.323 745.1 251.331 745.1 252.544V261H742.552V252.684C742.552 251.881 742.45 251.219 742.244 250.696C742.039 250.173 741.712 249.791 741.264 249.548C740.835 249.305 740.284 249.184 739.612 249.184C738.828 249.184 738.138 249.352 737.54 249.688C736.943 250.024 736.476 250.5 736.14 251.116C735.823 251.732 735.664 252.451 735.664 253.272V261H733.116ZM753.48 261.252C752.546 261.252 751.697 261.065 750.932 260.692C750.185 260.319 749.597 259.815 749.168 259.18C748.757 258.545 748.552 257.836 748.552 257.052C748.552 256.044 748.804 255.251 749.308 254.672C749.812 254.093 750.661 253.683 751.856 253.44C753.05 253.179 754.656 253.048 756.672 253.048H757.988V254.672H756.728C755.645 254.672 754.74 254.709 754.012 254.784C753.284 254.859 752.705 254.98 752.276 255.148C751.846 255.316 751.538 255.549 751.352 255.848C751.165 256.128 751.072 256.483 751.072 256.912C751.072 257.64 751.324 258.237 751.828 258.704C752.35 259.171 753.06 259.404 753.956 259.404C754.665 259.404 755.29 259.236 755.832 258.9C756.373 258.545 756.802 258.079 757.12 257.5C757.437 256.903 757.596 256.221 757.596 255.456V252.236C757.596 251.135 757.372 250.341 756.924 249.856C756.476 249.352 755.72 249.1 754.656 249.1C753.872 249.1 753.088 249.221 752.304 249.464C751.538 249.707 750.745 250.08 749.924 250.584L749.112 248.764C749.597 248.428 750.148 248.139 750.764 247.896C751.398 247.635 752.052 247.439 752.724 247.308C753.414 247.177 754.077 247.112 754.712 247.112C755.925 247.112 756.924 247.308 757.708 247.7C758.492 248.073 759.08 248.661 759.472 249.464C759.864 250.248 760.06 251.256 760.06 252.488V261H757.652V257.892H757.904C757.754 258.583 757.474 259.18 757.064 259.684C756.653 260.188 756.14 260.58 755.524 260.86C754.926 261.121 754.245 261.252 753.48 261.252ZM764.069 261V247.364H766.561V250.332H766.253C766.645 249.268 767.28 248.465 768.157 247.924C769.053 247.383 770.071 247.112 771.209 247.112C772.311 247.112 773.216 247.308 773.925 247.7C774.635 248.092 775.167 248.699 775.521 249.52C775.876 250.323 776.053 251.331 776.053 252.544V261H773.505V252.684C773.505 251.881 773.403 251.219 773.197 250.696C772.992 250.173 772.665 249.791 772.217 249.548C771.788 249.305 771.237 249.184 770.565 249.184C769.781 249.184 769.091 249.352 768.493 249.688C767.896 250.024 767.429 250.5 767.093 251.116C766.776 251.732 766.617 252.451 766.617 253.272V261H764.069ZM785.749 261.252C784.087 261.252 782.846 260.823 782.025 259.964C781.203 259.087 780.793 257.836 780.793 256.212V249.324H778.133V247.364H780.793V243.22H783.341V247.364H787.625V249.324H783.341V255.988C783.341 257.015 783.555 257.789 783.985 258.312C784.414 258.835 785.123 259.096 786.113 259.096C786.411 259.096 786.701 259.068 786.981 259.012C787.279 258.937 787.559 258.863 787.821 258.788L788.241 260.692C787.979 260.86 787.606 260.991 787.121 261.084C786.654 261.196 786.197 261.252 785.749 261.252ZM801.069 261L795.945 247.364H798.577L802.665 258.956H801.993L806.221 247.364H808.265L812.409 258.956H811.765L815.909 247.364H818.401L813.277 261H810.897L806.529 249.072H807.817L803.449 261H801.069ZM826.604 261.252C825.26 261.252 824.093 260.963 823.104 260.384C822.114 259.805 821.349 258.984 820.808 257.92C820.266 256.856 819.996 255.605 819.996 254.168C819.996 252.731 820.266 251.489 820.808 250.444C821.349 249.38 822.114 248.559 823.104 247.98C824.093 247.401 825.26 247.112 826.604 247.112C827.948 247.112 829.114 247.401 830.104 247.98C831.093 248.559 831.858 249.38 832.4 250.444C832.941 251.489 833.212 252.731 833.212 254.168C833.212 255.605 832.941 256.856 832.4 257.92C831.858 258.984 831.093 259.805 830.104 260.384C829.114 260.963 827.948 261.252 826.604 261.252ZM826.604 259.236C827.836 259.236 828.816 258.807 829.544 257.948C830.272 257.071 830.636 255.811 830.636 254.168C830.636 252.525 830.272 251.275 829.544 250.416C828.816 249.557 827.836 249.128 826.604 249.128C825.39 249.128 824.41 249.557 823.664 250.416C822.936 251.275 822.572 252.525 822.572 254.168C822.572 255.811 822.936 257.071 823.664 257.948C824.41 258.807 825.39 259.236 826.604 259.236ZM836.476 261V247.364H838.968V250.612H838.688C838.986 249.492 839.528 248.652 840.312 248.092C841.096 247.513 842.132 247.177 843.42 247.084L844.288 247L844.484 249.212L842.888 249.352C841.656 249.483 840.704 249.884 840.032 250.556C839.378 251.228 839.052 252.152 839.052 253.328V261H836.476ZM846.702 261V241.26H849.25V253.384H849.306L855.438 247.364H858.63L851.294 254.56V253.3L859.162 261H855.97L849.306 254.672H849.25V261H846.702ZM866.893 261.252C865.418 261.252 864.149 260.972 863.085 260.412C862.039 259.833 861.227 259.021 860.649 257.976C860.07 256.912 859.781 255.661 859.781 254.224C859.781 252.805 860.061 251.564 860.621 250.5C861.199 249.436 861.983 248.605 862.973 248.008C863.981 247.411 865.129 247.112 866.417 247.112C867.667 247.112 868.731 247.383 869.609 247.924C870.505 248.465 871.186 249.24 871.653 250.248C872.138 251.237 872.381 252.432 872.381 253.832V254.756H861.769V253.132H870.701L870.225 253.524C870.225 252.068 869.907 250.948 869.273 250.164C868.638 249.361 867.705 248.96 866.473 248.96C865.577 248.96 864.811 249.175 864.177 249.604C863.542 250.015 863.057 250.603 862.721 251.368C862.385 252.115 862.217 252.983 862.217 253.972V254.14C862.217 255.26 862.394 256.203 862.749 256.968C863.122 257.715 863.654 258.284 864.345 258.676C865.035 259.049 865.885 259.236 866.893 259.236C867.695 259.236 868.47 259.115 869.217 258.872C869.982 258.611 870.701 258.209 871.373 257.668L872.157 259.432C871.541 259.992 870.747 260.44 869.777 260.776C868.825 261.093 867.863 261.252 866.893 261.252ZM875.55 261V247.364H878.042V250.612H877.762C878.061 249.492 878.602 248.652 879.386 248.092C880.17 247.513 881.206 247.177 882.494 247.084L883.362 247L883.558 249.212L881.962 249.352C880.73 249.483 879.778 249.884 879.106 250.556C878.453 251.228 878.126 252.152 878.126 253.328V261H875.55Z" fill="black"/>
<rect x="141" y="402" width="360" height="110" rx="10" fill="url(#paint1_radial_467_421)"/>
<rect x="141" y="402" width="360" height="110" rx="10" fill="black" fill-opacity="0.08"/>
<path d="M301.339 466.252C299.379 466.252 297.699 465.841 296.299 465.02C294.899 464.199 293.817 463.032 293.051 461.52C292.305 459.989 291.931 458.188 291.931 456.116C291.931 454.044 292.305 452.252 293.051 450.74C293.817 449.228 294.899 448.061 296.299 447.24C297.699 446.419 299.379 446.008 301.339 446.008C302.683 446.008 303.934 446.223 305.091 446.652C306.267 447.063 307.247 447.679 308.031 448.5L307.079 450.572C306.221 449.807 305.334 449.247 304.419 448.892C303.505 448.537 302.497 448.36 301.395 448.36C299.23 448.36 297.569 449.032 296.411 450.376C295.273 451.72 294.703 453.633 294.703 456.116C294.703 458.599 295.273 460.521 296.411 461.884C297.569 463.228 299.23 463.9 301.395 463.9C302.497 463.9 303.505 463.723 304.419 463.368C305.334 463.013 306.221 462.453 307.079 461.688L308.031 463.76C307.247 464.563 306.267 465.179 305.091 465.608C303.934 466.037 302.683 466.252 301.339 466.252ZM319.878 466.252C317.918 466.252 316.238 465.841 314.838 465.02C313.438 464.199 312.356 463.032 311.59 461.52C310.844 459.989 310.47 458.188 310.47 456.116C310.47 454.044 310.844 452.252 311.59 450.74C312.356 449.228 313.438 448.061 314.838 447.24C316.238 446.419 317.918 446.008 319.878 446.008C321.222 446.008 322.473 446.223 323.63 446.652C324.806 447.063 325.786 447.679 326.57 448.5L325.618 450.572C324.76 449.807 323.873 449.247 322.958 448.892C322.044 448.537 321.036 448.36 319.934 448.36C317.769 448.36 316.108 449.032 314.95 450.376C313.812 451.72 313.242 453.633 313.242 456.116C313.242 458.599 313.812 460.521 314.95 461.884C316.108 463.228 317.769 463.9 319.934 463.9C321.036 463.9 322.044 463.723 322.958 463.368C323.873 463.013 324.76 462.453 325.618 461.688L326.57 463.76C325.786 464.563 324.806 465.179 323.63 465.608C322.473 466.037 321.222 466.252 319.878 466.252ZM330.122 466V446.26H332.306L340.174 461.016H339.306L347.146 446.26H349.302V466H346.95V449.872H347.566L340.538 462.976H338.914L331.802 449.844H332.474V466H330.122Z" fill="white"/>
<rect x="732" y="303" width="372" height="89" rx="9" fill="white" stroke="url(#paint2_linear_467_421)" stroke-width="2"/>
<path d="M862.2 356.252C860.819 356.252 859.624 355.963 858.616 355.384C857.608 354.787 856.833 353.956 856.292 352.892C855.751 351.809 855.48 350.54 855.48 349.084C855.48 347.647 855.751 346.405 856.292 345.36C856.833 344.315 857.608 343.512 858.616 342.952C859.624 342.392 860.819 342.112 862.2 342.112C863.059 342.112 863.899 342.261 864.72 342.56C865.56 342.859 866.251 343.279 866.792 343.82L865.952 345.612C865.411 345.127 864.823 344.763 864.188 344.52C863.553 344.277 862.947 344.156 862.368 344.156C861.005 344.156 859.951 344.585 859.204 345.444C858.457 346.303 858.084 347.525 858.084 349.112C858.084 350.699 858.457 351.949 859.204 352.864C859.951 353.76 861.005 354.208 862.368 354.208C862.947 354.208 863.553 354.087 864.188 353.844C864.823 353.601 865.411 353.228 865.952 352.724L866.792 354.544C866.251 355.085 865.551 355.505 864.692 355.804C863.852 356.103 863.021 356.252 862.2 356.252ZM869.308 356V342.364H871.8V345.332H871.492C871.884 344.268 872.518 343.465 873.396 342.924C874.292 342.383 875.309 342.112 876.448 342.112C877.549 342.112 878.454 342.308 879.164 342.7C879.873 343.092 880.405 343.699 880.76 344.52C881.114 345.323 881.292 346.331 881.292 347.544V356H878.744V347.684C878.744 346.881 878.641 346.219 878.436 345.696C878.23 345.173 877.904 344.791 877.456 344.548C877.026 344.305 876.476 344.184 875.804 344.184C875.02 344.184 874.329 344.352 873.732 344.688C873.134 345.024 872.668 345.5 872.332 346.116C872.014 346.732 871.856 347.451 871.856 348.272V356H869.308ZM885.079 339.088V336.344H888.131V339.088H885.079ZM885.331 356V342.364H887.879V356H885.331ZM891.92 349.588V347.488H899.872V349.588H891.92ZM903.925 361.04V342.364H906.417V345.5H906.137C906.436 344.473 907.024 343.652 907.901 343.036C908.778 342.42 909.833 342.112 911.065 342.112C912.278 342.112 913.333 342.401 914.229 342.98C915.125 343.54 915.825 344.352 916.329 345.416C916.833 346.461 917.085 347.712 917.085 349.168C917.085 350.605 916.833 351.865 916.329 352.948C915.844 354.012 915.144 354.833 914.229 355.412C913.333 355.972 912.278 356.252 911.065 356.252C909.852 356.252 908.806 355.944 907.929 355.328C907.052 354.712 906.464 353.9 906.165 352.892H906.473V361.04H903.925ZM910.477 354.236C911.709 354.236 912.689 353.807 913.417 352.948C914.145 352.071 914.509 350.811 914.509 349.168C914.509 347.525 914.145 346.275 913.417 345.416C912.689 344.557 911.709 344.128 910.477 344.128C909.245 344.128 908.265 344.557 907.537 345.416C906.809 346.275 906.445 347.525 906.445 349.168C906.445 350.811 906.809 352.071 907.537 352.948C908.265 353.807 909.245 354.236 910.477 354.236ZM924.698 356.252C923.242 356.252 922.15 355.841 921.422 355.02C920.713 354.18 920.358 352.976 920.358 351.408V336.26H922.906V351.212C922.906 351.847 922.99 352.388 923.158 352.836C923.345 353.265 923.606 353.583 923.942 353.788C924.297 353.993 924.736 354.096 925.258 354.096C925.464 354.096 925.669 354.087 925.874 354.068C926.098 354.049 926.304 354.012 926.49 353.956L926.434 356.028C926.136 356.103 925.837 356.159 925.538 356.196C925.258 356.233 924.978 356.252 924.698 356.252ZM933.652 356.252C932.551 356.252 931.627 356.047 930.88 355.636C930.152 355.225 929.611 354.619 929.256 353.816C928.902 353.013 928.724 352.005 928.724 350.792V342.364H931.272V350.792C931.272 351.557 931.375 352.192 931.58 352.696C931.786 353.2 932.103 353.573 932.532 353.816C932.98 354.059 933.54 354.18 934.212 354.18C934.959 354.18 935.612 354.012 936.172 353.676C936.732 353.34 937.171 352.864 937.488 352.248C937.806 351.632 937.964 350.913 937.964 350.092V342.364H940.512V356H938.02V352.92H938.384C938.011 354.003 937.404 354.833 936.564 355.412C935.743 355.972 934.772 356.252 933.652 356.252ZM950.744 361.292C949.531 361.292 948.402 361.143 947.356 360.844C946.311 360.545 945.378 360.088 944.556 359.472L945.368 357.624C945.928 357.997 946.479 358.305 947.02 358.548C947.58 358.809 948.15 358.996 948.728 359.108C949.326 359.22 949.942 359.276 950.576 359.276C951.902 359.276 952.891 358.931 953.544 358.24C954.216 357.568 954.552 356.579 954.552 355.272V352.248H954.804C954.543 353.293 953.955 354.124 953.04 354.74C952.144 355.356 951.099 355.664 949.904 355.664C948.672 355.664 947.599 355.384 946.684 354.824C945.77 354.245 945.06 353.452 944.556 352.444C944.052 351.417 943.8 350.232 943.8 348.888C943.8 347.525 944.052 346.34 944.556 345.332C945.06 344.305 945.77 343.512 946.684 342.952C947.599 342.392 948.672 342.112 949.904 342.112C951.118 342.112 952.172 342.42 953.068 343.036C953.964 343.652 954.543 344.483 954.804 345.528H954.552V342.364H957.044V354.936C957.044 356.336 956.802 357.512 956.316 358.464C955.85 359.416 955.15 360.125 954.216 360.592C953.283 361.059 952.126 361.292 950.744 361.292ZM950.464 353.648C951.715 353.648 952.704 353.219 953.432 352.36C954.16 351.501 954.524 350.344 954.524 348.888C954.524 347.413 954.16 346.256 953.432 345.416C952.704 344.557 951.715 344.128 950.464 344.128C949.214 344.128 948.215 344.557 947.468 345.416C946.74 346.256 946.376 347.413 946.376 348.888C946.376 350.344 946.74 351.501 947.468 352.36C948.215 353.219 949.214 353.648 950.464 353.648ZM960.876 339.088V336.344H963.928V339.088H960.876ZM961.128 356V342.364H963.676V356H961.128ZM967.773 356V342.364H970.265V345.332H969.957C970.349 344.268 970.983 343.465 971.861 342.924C972.757 342.383 973.774 342.112 974.913 342.112C976.014 342.112 976.919 342.308 977.629 342.7C978.338 343.092 978.87 343.699 979.225 344.52C979.579 345.323 979.757 346.331 979.757 347.544V356H977.209V347.684C977.209 346.881 977.106 346.219 976.901 345.696C976.695 345.173 976.369 344.791 975.921 344.548C975.491 344.305 974.941 344.184 974.269 344.184C973.485 344.184 972.794 344.352 972.197 344.688C971.599 345.024 971.133 345.5 970.797 346.116C970.479 346.732 970.321 347.451 970.321 348.272V356H967.773Z" fill="black"/>
<rect x="142" y="263" width="358" height="108" rx="9" fill="white" stroke="url(#paint3_linear_467_421)" stroke-width="2"/>
<path d="M198.335 326V308.472H191.251V306.26H208.023V308.472H200.939V326H198.335ZM214.33 326.252C212.856 326.252 211.586 325.972 210.522 325.412C209.477 324.833 208.665 324.021 208.086 322.976C207.508 321.912 207.218 320.661 207.218 319.224C207.218 317.805 207.498 316.564 208.058 315.5C208.637 314.436 209.421 313.605 210.41 313.008C211.418 312.411 212.566 312.112 213.854 312.112C215.105 312.112 216.169 312.383 217.046 312.924C217.942 313.465 218.624 314.24 219.09 315.248C219.576 316.237 219.818 317.432 219.818 318.832V319.756H209.206V318.132H218.138L217.662 318.524C217.662 317.068 217.345 315.948 216.71 315.164C216.076 314.361 215.142 313.96 213.91 313.96C213.014 313.96 212.249 314.175 211.614 314.604C210.98 315.015 210.494 315.603 210.158 316.368C209.822 317.115 209.654 317.983 209.654 318.972V319.14C209.654 320.26 209.832 321.203 210.186 321.968C210.56 322.715 211.092 323.284 211.782 323.676C212.473 324.049 213.322 324.236 214.33 324.236C215.133 324.236 215.908 324.115 216.654 323.872C217.42 323.611 218.138 323.209 218.81 322.668L219.594 324.432C218.978 324.992 218.185 325.44 217.214 325.776C216.262 326.093 215.301 326.252 214.33 326.252ZM222.987 326V312.364H225.479V315.332H225.171C225.563 314.268 226.198 313.465 227.075 312.924C227.971 312.383 228.989 312.112 230.127 312.112C231.229 312.112 232.134 312.308 232.843 312.7C233.553 313.092 234.085 313.699 234.439 314.52C234.794 315.323 234.971 316.331 234.971 317.544V326H232.423V317.684C232.423 316.881 232.321 316.219 232.115 315.696C231.91 315.173 231.583 314.791 231.135 314.548C230.706 314.305 230.155 314.184 229.483 314.184C228.699 314.184 228.009 314.352 227.411 314.688C226.814 315.024 226.347 315.5 226.011 316.116C225.694 316.732 225.535 317.451 225.535 318.272V326H222.987ZM243.351 326.252C242.417 326.252 241.568 326.065 240.803 325.692C240.056 325.319 239.468 324.815 239.039 324.18C238.628 323.545 238.423 322.836 238.423 322.052C238.423 321.044 238.675 320.251 239.179 319.672C239.683 319.093 240.532 318.683 241.727 318.44C242.921 318.179 244.527 318.048 246.543 318.048H247.859V319.672H246.599C245.516 319.672 244.611 319.709 243.883 319.784C243.155 319.859 242.576 319.98 242.147 320.148C241.717 320.316 241.409 320.549 241.223 320.848C241.036 321.128 240.943 321.483 240.943 321.912C240.943 322.64 241.195 323.237 241.699 323.704C242.221 324.171 242.931 324.404 243.827 324.404C244.536 324.404 245.161 324.236 245.703 323.9C246.244 323.545 246.673 323.079 246.991 322.5C247.308 321.903 247.467 321.221 247.467 320.456V317.236C247.467 316.135 247.243 315.341 246.795 314.856C246.347 314.352 245.591 314.1 244.527 314.1C243.743 314.1 242.959 314.221 242.175 314.464C241.409 314.707 240.616 315.08 239.795 315.584L238.983 313.764C239.468 313.428 240.019 313.139 240.635 312.896C241.269 312.635 241.923 312.439 242.595 312.308C243.285 312.177 243.948 312.112 244.583 312.112C245.796 312.112 246.795 312.308 247.579 312.7C248.363 313.073 248.951 313.661 249.343 314.464C249.735 315.248 249.931 316.256 249.931 317.488V326H247.523V322.892H247.775C247.625 323.583 247.345 324.18 246.935 324.684C246.524 325.188 246.011 325.58 245.395 325.86C244.797 326.121 244.116 326.252 243.351 326.252ZM253.94 326V312.364H256.432V315.332H256.124C256.516 314.268 257.151 313.465 258.028 312.924C258.924 312.383 259.942 312.112 261.08 312.112C262.182 312.112 263.087 312.308 263.796 312.7C264.506 313.092 265.038 313.699 265.392 314.52C265.747 315.323 265.924 316.331 265.924 317.544V326H263.376V317.684C263.376 316.881 263.274 316.219 263.068 315.696C262.863 315.173 262.536 314.791 262.088 314.548C261.659 314.305 261.108 314.184 260.436 314.184C259.652 314.184 258.962 314.352 258.364 314.688C257.767 315.024 257.3 315.5 256.964 316.116C256.647 316.732 256.488 317.451 256.488 318.272V326H253.94ZM275.62 326.252C273.959 326.252 272.717 325.823 271.896 324.964C271.075 324.087 270.664 322.836 270.664 321.212V314.324H268.004V312.364H270.664V308.22H273.212V312.364H277.496V314.324H273.212V320.988C273.212 322.015 273.427 322.789 273.856 323.312C274.285 323.835 274.995 324.096 275.984 324.096C276.283 324.096 276.572 324.068 276.852 324.012C277.151 323.937 277.431 323.863 277.692 323.788L278.112 325.692C277.851 325.86 277.477 325.991 276.992 326.084C276.525 326.196 276.068 326.252 275.62 326.252ZM293.181 326.252C291.799 326.252 290.605 325.963 289.597 325.384C288.589 324.787 287.814 323.956 287.273 322.892C286.731 321.809 286.461 320.54 286.461 319.084C286.461 317.647 286.731 316.405 287.273 315.36C287.814 314.315 288.589 313.512 289.597 312.952C290.605 312.392 291.799 312.112 293.181 312.112C294.039 312.112 294.879 312.261 295.701 312.56C296.541 312.859 297.231 313.279 297.773 313.82L296.933 315.612C296.391 315.127 295.803 314.763 295.169 314.52C294.534 314.277 293.927 314.156 293.349 314.156C291.986 314.156 290.931 314.585 290.185 315.444C289.438 316.303 289.065 317.525 289.065 319.112C289.065 320.699 289.438 321.949 290.185 322.864C290.931 323.76 291.986 324.208 293.349 324.208C293.927 324.208 294.534 324.087 295.169 323.844C295.803 323.601 296.391 323.228 296.933 322.724L297.773 324.544C297.231 325.085 296.531 325.505 295.673 325.804C294.833 326.103 294.002 326.252 293.181 326.252ZM305.811 326.252C304.467 326.252 303.3 325.963 302.311 325.384C301.321 324.805 300.556 323.984 300.015 322.92C299.473 321.856 299.203 320.605 299.203 319.168C299.203 317.731 299.473 316.489 300.015 315.444C300.556 314.38 301.321 313.559 302.311 312.98C303.3 312.401 304.467 312.112 305.811 312.112C307.155 312.112 308.321 312.401 309.311 312.98C310.3 313.559 311.065 314.38 311.607 315.444C312.148 316.489 312.419 317.731 312.419 319.168C312.419 320.605 312.148 321.856 311.607 322.92C311.065 323.984 310.3 324.805 309.311 325.384C308.321 325.963 307.155 326.252 305.811 326.252ZM305.811 324.236C307.043 324.236 308.023 323.807 308.751 322.948C309.479 322.071 309.843 320.811 309.843 319.168C309.843 317.525 309.479 316.275 308.751 315.416C308.023 314.557 307.043 314.128 305.811 314.128C304.597 314.128 303.617 314.557 302.871 315.416C302.143 316.275 301.779 317.525 301.779 319.168C301.779 320.811 302.143 322.071 302.871 322.948C303.617 323.807 304.597 324.236 305.811 324.236ZM315.683 326V312.364H318.175V315.332H317.867C318.259 314.268 318.893 313.465 319.771 312.924C320.667 312.383 321.684 312.112 322.823 312.112C323.924 312.112 324.829 312.308 325.539 312.7C326.248 313.092 326.78 313.699 327.135 314.52C327.489 315.323 327.667 316.331 327.667 317.544V326H325.119V317.684C325.119 316.881 325.016 316.219 324.811 315.696C324.605 315.173 324.279 314.791 323.831 314.548C323.401 314.305 322.851 314.184 322.179 314.184C321.395 314.184 320.704 314.352 320.107 314.688C319.509 315.024 319.043 315.5 318.707 316.116C318.389 316.732 318.231 317.451 318.231 318.272V326H315.683ZM337.362 326.252C335.701 326.252 334.459 325.823 333.638 324.964C332.817 324.087 332.406 322.836 332.406 321.212V314.324H329.746V312.364H332.406V308.22H334.954V312.364H339.238V314.324H334.954V320.988C334.954 322.015 335.169 322.789 335.598 323.312C336.027 323.835 336.737 324.096 337.726 324.096C338.025 324.096 338.314 324.068 338.594 324.012C338.893 323.937 339.173 323.863 339.434 323.788L339.854 325.692C339.593 325.86 339.219 325.991 338.734 326.084C338.267 326.196 337.81 326.252 337.362 326.252ZM341.741 326V312.364H344.233V315.612H343.953C344.252 314.492 344.793 313.652 345.577 313.092C346.361 312.513 347.397 312.177 348.685 312.084L349.553 312L349.749 314.212L348.153 314.352C346.921 314.483 345.969 314.884 345.297 315.556C344.644 316.228 344.317 317.152 344.317 318.328V326H341.741ZM357.572 326.252C356.228 326.252 355.062 325.963 354.072 325.384C353.083 324.805 352.318 323.984 351.776 322.92C351.235 321.856 350.964 320.605 350.964 319.168C350.964 317.731 351.235 316.489 351.776 315.444C352.318 314.38 353.083 313.559 354.072 312.98C355.062 312.401 356.228 312.112 357.572 312.112C358.916 312.112 360.083 312.401 361.072 312.98C362.062 313.559 362.827 314.38 363.368 315.444C363.91 316.489 364.18 317.731 364.18 319.168C364.18 320.605 363.91 321.856 363.368 322.92C362.827 323.984 362.062 324.805 361.072 325.384C360.083 325.963 358.916 326.252 357.572 326.252ZM357.572 324.236C358.804 324.236 359.784 323.807 360.512 322.948C361.24 322.071 361.604 320.811 361.604 319.168C361.604 317.525 361.24 316.275 360.512 315.416C359.784 314.557 358.804 314.128 357.572 314.128C356.359 314.128 355.379 314.557 354.632 315.416C353.904 316.275 353.54 317.525 353.54 319.168C353.54 320.811 353.904 322.071 354.632 322.948C355.379 323.807 356.359 324.236 357.572 324.236ZM371.784 326.252C370.328 326.252 369.236 325.841 368.508 325.02C367.799 324.18 367.444 322.976 367.444 321.408V306.26H369.992V321.212C369.992 321.847 370.076 322.388 370.244 322.836C370.431 323.265 370.692 323.583 371.028 323.788C371.383 323.993 371.822 324.096 372.344 324.096C372.55 324.096 372.755 324.087 372.96 324.068C373.184 324.049 373.39 324.012 373.576 323.956L373.52 326.028C373.222 326.103 372.923 326.159 372.624 326.196C372.344 326.233 372.064 326.252 371.784 326.252ZM383.14 331.04V312.364H385.632V315.5H385.352C385.65 314.473 386.238 313.652 387.116 313.036C387.993 312.42 389.048 312.112 390.28 312.112C391.493 312.112 392.548 312.401 393.444 312.98C394.34 313.54 395.04 314.352 395.544 315.416C396.048 316.461 396.3 317.712 396.3 319.168C396.3 320.605 396.048 321.865 395.544 322.948C395.058 324.012 394.358 324.833 393.444 325.412C392.548 325.972 391.493 326.252 390.28 326.252C389.066 326.252 388.021 325.944 387.144 325.328C386.266 324.712 385.678 323.9 385.38 322.892H385.688V331.04H383.14ZM389.692 324.236C390.924 324.236 391.904 323.807 392.632 322.948C393.36 322.071 393.724 320.811 393.724 319.168C393.724 317.525 393.36 316.275 392.632 315.416C391.904 314.557 390.924 314.128 389.692 314.128C388.46 314.128 387.48 314.557 386.752 315.416C386.024 316.275 385.66 317.525 385.66 319.168C385.66 320.811 386.024 322.071 386.752 322.948C387.48 323.807 388.46 324.236 389.692 324.236ZM403.913 326.252C402.457 326.252 401.365 325.841 400.637 325.02C399.928 324.18 399.573 322.976 399.573 321.408V306.26H402.121V321.212C402.121 321.847 402.205 322.388 402.373 322.836C402.56 323.265 402.821 323.583 403.157 323.788C403.512 323.993 403.951 324.096 404.473 324.096C404.679 324.096 404.884 324.087 405.089 324.068C405.313 324.049 405.519 324.012 405.705 323.956L405.649 326.028C405.351 326.103 405.052 326.159 404.753 326.196C404.473 326.233 404.193 326.252 403.913 326.252ZM412.335 326.252C411.402 326.252 410.553 326.065 409.787 325.692C409.041 325.319 408.453 324.815 408.023 324.18C407.613 323.545 407.407 322.836 407.407 322.052C407.407 321.044 407.659 320.251 408.163 319.672C408.667 319.093 409.517 318.683 410.711 318.44C411.906 318.179 413.511 318.048 415.527 318.048H416.843V319.672H415.583C414.501 319.672 413.595 319.709 412.867 319.784C412.139 319.859 411.561 319.98 411.131 320.148C410.702 320.316 410.394 320.549 410.207 320.848C410.021 321.128 409.927 321.483 409.927 321.912C409.927 322.64 410.179 323.237 410.683 323.704C411.206 324.171 411.915 324.404 412.811 324.404C413.521 324.404 414.146 324.236 414.687 323.9C415.229 323.545 415.658 323.079 415.975 322.5C416.293 321.903 416.451 321.221 416.451 320.456V317.236C416.451 316.135 416.227 315.341 415.779 314.856C415.331 314.352 414.575 314.1 413.511 314.1C412.727 314.1 411.943 314.221 411.159 314.464C410.394 314.707 409.601 315.08 408.779 315.584L407.967 313.764C408.453 313.428 409.003 313.139 409.619 312.896C410.254 312.635 410.907 312.439 411.579 312.308C412.27 312.177 412.933 312.112 413.567 312.112C414.781 312.112 415.779 312.308 416.563 312.7C417.347 313.073 417.935 313.661 418.327 314.464C418.719 315.248 418.915 316.256 418.915 317.488V326H416.507V322.892H416.759C416.61 323.583 416.33 324.18 415.919 324.684C415.509 325.188 414.995 325.58 414.379 325.86C413.782 326.121 413.101 326.252 412.335 326.252ZM422.925 326V312.364H425.417V315.332H425.109C425.501 314.268 426.136 313.465 427.013 312.924C427.909 312.383 428.926 312.112 430.065 312.112C431.166 312.112 432.072 312.308 432.781 312.7C433.49 313.092 434.022 313.699 434.377 314.52C434.732 315.323 434.909 316.331 434.909 317.544V326H432.361V317.684C432.361 316.881 432.258 316.219 432.053 315.696C431.848 315.173 431.521 314.791 431.073 314.548C430.644 314.305 430.093 314.184 429.421 314.184C428.637 314.184 427.946 314.352 427.349 314.688C426.752 315.024 426.285 315.5 425.949 316.116C425.632 316.732 425.473 317.451 425.473 318.272V326H422.925ZM445.248 326.252C443.774 326.252 442.504 325.972 441.44 325.412C440.395 324.833 439.583 324.021 439.004 322.976C438.426 321.912 438.136 320.661 438.136 319.224C438.136 317.805 438.416 316.564 438.976 315.5C439.555 314.436 440.339 313.605 441.328 313.008C442.336 312.411 443.484 312.112 444.772 312.112C446.023 312.112 447.087 312.383 447.964 312.924C448.86 313.465 449.542 314.24 450.008 315.248C450.494 316.237 450.736 317.432 450.736 318.832V319.756H440.124V318.132H449.056L448.58 318.524C448.58 317.068 448.263 315.948 447.628 315.164C446.994 314.361 446.06 313.96 444.828 313.96C443.932 313.96 443.167 314.175 442.532 314.604C441.898 315.015 441.412 315.603 441.076 316.368C440.74 317.115 440.572 317.983 440.572 318.972V319.14C440.572 320.26 440.75 321.203 441.104 321.968C441.478 322.715 442.01 323.284 442.7 323.676C443.391 324.049 444.24 324.236 445.248 324.236C446.051 324.236 446.826 324.115 447.572 323.872C448.338 323.611 449.056 323.209 449.728 322.668L450.512 324.432C449.896 324.992 449.103 325.44 448.132 325.776C447.18 326.093 446.219 326.252 445.248 326.252Z" fill="black"/>
<path d="M1057.86 514.751C1057.29 514.779 1056.73 514.921 1056.21 515.167L1033.77 525.893C1033.18 526.171 1032.67 526.574 1032.27 527.074C1031.87 527.574 1031.59 528.158 1031.44 528.781L1025.9 552.875C1025.78 553.43 1025.76 554.005 1025.86 554.566C1025.96 555.127 1026.18 555.662 1026.49 556.14C1026.56 556.256 1026.64 556.369 1026.73 556.478L1042.27 575.798C1042.67 576.297 1043.18 576.701 1043.76 576.978C1044.34 577.256 1044.98 577.4 1045.63 577.4L1070.54 577.394C1071.19 577.394 1071.82 577.251 1072.41 576.974C1072.99 576.697 1073.5 576.294 1073.9 575.795L1089.43 556.473C1089.83 555.972 1090.12 555.389 1090.26 554.765C1090.41 554.141 1090.41 553.493 1090.26 552.869L1084.72 528.776C1084.57 528.152 1084.29 527.569 1083.89 527.069C1083.48 526.569 1082.97 526.165 1082.39 525.887L1059.94 515.167C1059.29 514.857 1058.58 514.714 1057.86 514.751Z" fill="#326CE5"/>
<path d="M1057.85 513.006C1057.24 513.037 1056.65 513.188 1056.11 513.448L1032.41 524.769C1031.8 525.062 1031.26 525.488 1030.83 526.016C1030.41 526.543 1030.11 527.159 1029.96 527.818L1024.11 553.252C1023.98 553.838 1023.96 554.446 1024.07 555.038C1024.17 555.63 1024.4 556.196 1024.73 556.7C1024.81 556.823 1024.9 556.942 1024.99 557.056L1041.39 577.452C1041.81 577.98 1042.35 578.406 1042.97 578.699C1043.58 578.991 1044.25 579.143 1044.93 579.143L1071.24 579.137C1071.92 579.138 1072.59 578.986 1073.2 578.694C1073.82 578.402 1074.35 577.976 1074.78 577.449L1091.18 557.051C1091.6 556.523 1091.9 555.907 1092.05 555.249C1092.2 554.591 1092.2 553.907 1092.05 553.249L1086.2 527.812C1086.05 527.154 1085.75 526.539 1085.32 526.011C1084.9 525.484 1084.36 525.058 1083.75 524.766L1060.05 513.445C1059.36 513.118 1058.6 512.967 1057.85 513.006ZM1057.86 514.752C1058.58 514.715 1059.29 514.858 1059.94 515.168L1082.39 525.888C1082.97 526.166 1083.48 526.57 1083.88 527.07C1084.29 527.57 1084.57 528.153 1084.71 528.777L1090.26 552.87C1090.4 553.494 1090.4 554.142 1090.26 554.766C1090.12 555.39 1089.83 555.973 1089.43 556.473L1073.9 575.796C1073.5 576.295 1072.99 576.698 1072.4 576.975C1071.82 577.252 1071.19 577.395 1070.54 577.395L1045.62 577.4C1044.98 577.401 1044.34 577.257 1043.76 576.979C1043.18 576.702 1042.67 576.298 1042.27 575.798L1026.73 556.479C1026.64 556.37 1026.56 556.257 1026.49 556.14C1026.17 555.663 1025.96 555.128 1025.86 554.567C1025.76 554.006 1025.78 553.431 1025.9 552.876L1031.44 528.782C1031.58 528.159 1031.87 527.575 1032.27 527.075C1032.67 526.575 1033.18 526.172 1033.76 525.894L1056.21 515.168C1056.73 514.922 1057.29 514.78 1057.86 514.752Z" fill="white"/>
<path fill-rule="evenodd" clip-rule="evenodd" d="M1037.59 553.651H1048.58V561.368H1037.59V553.651Z" fill="white"/>
<path fill-rule="evenodd" clip-rule="evenodd" d="M1052.59 553.651H1063.58V561.368H1052.59V553.651Z" fill="white"/>
<path fill-rule="evenodd" clip-rule="evenodd" d="M1067.59 553.651H1078.58V561.368H1067.59V553.651Z" fill="white"/>
<path fill-rule="evenodd" clip-rule="evenodd" d="M1049.38 530.775H1066.79V538.492H1049.38V530.775Z" fill="white"/>
<path d="M1058.08 538.492V546.072H1043.09V553.642" stroke="white" stroke-width="2" stroke-miterlimit="10" stroke-linejoin="round"/>
<path d="M1058.08 538.492V546.072H1073.07V553.642" stroke="white" stroke-width="1.99937" stroke-miterlimit="10" stroke-linejoin="round"/>
<path d="M1058.05 538.497V546.076H1058.11V553.646" stroke="white" stroke-width="2" stroke-miterlimit="10" stroke-linejoin="round"/>
<path d="M870.859 710.751C870.289 710.779 869.729 710.921 869.214 711.167L846.766 721.893C846.185 722.171 845.674 722.574 845.272 723.074C844.87 723.574 844.587 724.158 844.443 724.781L838.905 748.875C838.777 749.43 838.763 750.005 838.863 750.566C838.963 751.127 839.175 751.662 839.488 752.14C839.563 752.256 839.645 752.369 839.732 752.478L855.27 771.798C855.672 772.297 856.182 772.701 856.763 772.978C857.344 773.256 857.981 773.4 858.626 773.4L883.544 773.394C884.188 773.394 884.825 773.251 885.406 772.974C885.987 772.697 886.497 772.294 886.9 771.795L902.432 752.473C902.835 751.972 903.118 751.389 903.262 750.765C903.405 750.141 903.405 749.493 903.262 748.869L897.715 724.776C897.572 724.152 897.288 723.569 896.886 723.069C896.484 722.569 895.973 722.165 895.392 721.887L872.941 711.167C872.293 710.857 871.577 710.714 870.859 710.751Z" fill="#326CE5"/>
<path d="M870.846 709.006C870.244 709.037 869.655 709.188 869.112 709.448L845.412 720.769C844.798 721.062 844.259 721.488 843.835 722.016C843.411 722.543 843.111 723.159 842.96 723.818L837.114 749.252C836.979 749.838 836.964 750.446 837.069 751.038C837.175 751.63 837.399 752.196 837.729 752.7C837.809 752.823 837.895 752.942 837.987 753.056L854.389 773.452C854.814 773.98 855.353 774.406 855.966 774.699C856.58 774.991 857.252 775.143 857.932 775.143L884.237 775.137C884.917 775.138 885.589 774.986 886.202 774.694C886.816 774.402 887.355 773.976 887.78 773.449L904.176 753.051C904.601 752.523 904.9 751.907 905.051 751.249C905.203 750.591 905.203 749.907 905.052 749.249L899.198 723.812C899.046 723.154 898.747 722.539 898.322 722.011C897.898 721.484 897.359 721.058 896.746 720.766L873.045 709.445C872.361 709.118 871.605 708.967 870.846 709.006ZM870.858 710.752C871.576 710.715 872.291 710.858 872.939 711.168L895.391 721.888C895.972 722.166 896.482 722.57 896.884 723.07C897.287 723.57 897.57 724.153 897.713 724.777L903.26 748.87C903.404 749.494 903.404 750.142 903.26 750.766C903.117 751.39 902.833 751.973 902.431 752.473L886.898 771.796C886.496 772.295 885.985 772.698 885.404 772.975C884.823 773.252 884.187 773.395 883.542 773.395L858.624 773.4C857.979 773.401 857.343 773.257 856.762 772.979C856.181 772.702 855.67 772.298 855.268 771.798L839.73 752.479C839.643 752.37 839.562 752.257 839.486 752.14C839.174 751.663 838.961 751.128 838.861 750.567C838.761 750.006 838.775 749.431 838.903 748.876L844.441 724.782C844.585 724.159 844.868 723.575 845.27 723.075C845.672 722.575 846.183 722.172 846.764 721.894L869.213 711.168C869.728 710.922 870.287 710.78 870.858 710.752Z" fill="white"/>
<path fill-rule="evenodd" clip-rule="evenodd" d="M850.586 749.651H861.578V757.368H850.586V749.651Z" fill="white"/>
<path fill-rule="evenodd" clip-rule="evenodd" d="M865.586 749.651H876.578V757.368H865.586V749.651Z" fill="white"/>
<path fill-rule="evenodd" clip-rule="evenodd" d="M880.586 749.651H891.578V757.368H880.586V749.651Z" fill="white"/>
<path fill-rule="evenodd" clip-rule="evenodd" d="M862.375 726.775H879.792V734.492H862.375V726.775Z" fill="white"/>
<path d="M871.082 734.492V742.072H856.09V749.642" stroke="white" stroke-width="2" stroke-miterlimit="10" stroke-linejoin="round"/>
<path d="M871.082 734.492V742.072H886.074V749.642" stroke="white" stroke-width="1.99937" stroke-miterlimit="10" stroke-linejoin="round"/>
<path d="M871.051 734.497V742.076H871.114V749.646" stroke="white" stroke-width="2" stroke-miterlimit="10" stroke-linejoin="round"/>
<path d="M113.467 120V100.26H115.651L123.519 115.016H122.651L130.491 100.26H132.647V120H130.295V103.872H130.911L123.883 116.976H122.259L115.147 103.844H115.819V120H113.467ZM141.45 120.252C140.517 120.252 139.668 120.065 138.902 119.692C138.156 119.319 137.568 118.815 137.138 118.18C136.728 117.545 136.522 116.836 136.522 116.052C136.522 115.044 136.774 114.251 137.278 113.672C137.782 113.093 138.632 112.683 139.826 112.44C141.021 112.179 142.626 112.048 144.642 112.048H145.958V113.672H144.698C143.616 113.672 142.71 113.709 141.982 113.784C141.254 113.859 140.676 113.98 140.246 114.148C139.817 114.316 139.509 114.549 139.322 114.848C139.136 115.128 139.042 115.483 139.042 115.912C139.042 116.64 139.294 117.237 139.798 117.704C140.321 118.171 141.03 118.404 141.926 118.404C142.636 118.404 143.261 118.236 143.802 117.9C144.344 117.545 144.773 117.079 145.09 116.5C145.408 115.903 145.566 115.221 145.566 114.456V111.236C145.566 110.135 145.342 109.341 144.894 108.856C144.446 108.352 143.69 108.1 142.626 108.1C141.842 108.1 141.058 108.221 140.274 108.464C139.509 108.707 138.716 109.08 137.894 109.584L137.082 107.764C137.568 107.428 138.118 107.139 138.734 106.896C139.369 106.635 140.022 106.439 140.694 106.308C141.385 106.177 142.048 106.112 142.682 106.112C143.896 106.112 144.894 106.308 145.678 106.7C146.462 107.073 147.05 107.661 147.442 108.464C147.834 109.248 148.03 110.256 148.03 111.488V120H145.622V116.892H145.874C145.725 117.583 145.445 118.18 145.034 118.684C144.624 119.188 144.11 119.58 143.494 119.86C142.897 120.121 142.216 120.252 141.45 120.252ZM152.04 120V106.364H154.532V109.332H154.224C154.616 108.268 155.251 107.465 156.128 106.924C157.024 106.383 158.041 106.112 159.18 106.112C160.281 106.112 161.187 106.308 161.896 106.7C162.605 107.092 163.137 107.699 163.492 108.52C163.847 109.323 164.024 110.331 164.024 111.544V120H161.476V111.684C161.476 110.881 161.373 110.219 161.168 109.696C160.963 109.173 160.636 108.791 160.188 108.548C159.759 108.305 159.208 108.184 158.536 108.184C157.752 108.184 157.061 108.352 156.464 108.688C155.867 109.024 155.4 109.5 155.064 110.116C154.747 110.732 154.588 111.451 154.588 112.272V120H152.04ZM172.404 120.252C171.47 120.252 170.621 120.065 169.856 119.692C169.109 119.319 168.521 118.815 168.092 118.18C167.681 117.545 167.476 116.836 167.476 116.052C167.476 115.044 167.728 114.251 168.232 113.672C168.736 113.093 169.585 112.683 170.78 112.44C171.974 112.179 173.58 112.048 175.596 112.048H176.912V113.672H175.652C174.569 113.672 173.664 113.709 172.936 113.784C172.208 113.859 171.629 113.98 171.2 114.148C170.77 114.316 170.462 114.549 170.276 114.848C170.089 115.128 169.996 115.483 169.996 115.912C169.996 116.64 170.248 117.237 170.752 117.704C171.274 118.171 171.984 118.404 172.88 118.404C173.589 118.404 174.214 118.236 174.756 117.9C175.297 117.545 175.726 117.079 176.044 116.5C176.361 115.903 176.52 115.221 176.52 114.456V111.236C176.52 110.135 176.296 109.341 175.848 108.856C175.4 108.352 174.644 108.1 173.58 108.1C172.796 108.1 172.012 108.221 171.228 108.464C170.462 108.707 169.669 109.08 168.848 109.584L168.036 107.764C168.521 107.428 169.072 107.139 169.688 106.896C170.322 106.635 170.976 106.439 171.648 106.308C172.338 106.177 173.001 106.112 173.636 106.112C174.849 106.112 175.848 106.308 176.632 106.7C177.416 107.073 178.004 107.661 178.396 108.464C178.788 109.248 178.984 110.256 178.984 111.488V120H176.576V116.892H176.828C176.678 117.583 176.398 118.18 175.988 118.684C175.577 119.188 175.064 119.58 174.448 119.86C173.85 120.121 173.169 120.252 172.404 120.252ZM189.125 125.292C187.912 125.292 186.783 125.143 185.737 124.844C184.692 124.545 183.759 124.088 182.937 123.472L183.749 121.624C184.309 121.997 184.86 122.305 185.401 122.548C185.961 122.809 186.531 122.996 187.109 123.108C187.707 123.22 188.323 123.276 188.957 123.276C190.283 123.276 191.272 122.931 191.925 122.24C192.597 121.568 192.933 120.579 192.933 119.272V116.248H193.185C192.924 117.293 192.336 118.124 191.421 118.74C190.525 119.356 189.48 119.664 188.285 119.664C187.053 119.664 185.98 119.384 185.065 118.824C184.151 118.245 183.441 117.452 182.937 116.444C182.433 115.417 182.181 114.232 182.181 112.888C182.181 111.525 182.433 110.34 182.937 109.332C183.441 108.305 184.151 107.512 185.065 106.952C185.98 106.392 187.053 106.112 188.285 106.112C189.499 106.112 190.553 106.42 191.449 107.036C192.345 107.652 192.924 108.483 193.185 109.528H192.933V106.364H195.425V118.936C195.425 120.336 195.183 121.512 194.697 122.464C194.231 123.416 193.531 124.125 192.597 124.592C191.664 125.059 190.507 125.292 189.125 125.292ZM188.845 117.648C190.096 117.648 191.085 117.219 191.813 116.36C192.541 115.501 192.905 114.344 192.905 112.888C192.905 111.413 192.541 110.256 191.813 109.416C191.085 108.557 190.096 108.128 188.845 108.128C187.595 108.128 186.596 108.557 185.849 109.416C185.121 110.256 184.757 111.413 184.757 112.888C184.757 114.344 185.121 115.501 185.849 116.36C186.596 117.219 187.595 117.648 188.845 117.648ZM205.809 120.252C204.334 120.252 203.065 119.972 202.001 119.412C200.956 118.833 200.144 118.021 199.565 116.976C198.986 115.912 198.697 114.661 198.697 113.224C198.697 111.805 198.977 110.564 199.537 109.5C200.116 108.436 200.9 107.605 201.889 107.008C202.897 106.411 204.045 106.112 205.333 106.112C206.584 106.112 207.648 106.383 208.525 106.924C209.421 107.465 210.102 108.24 210.569 109.248C211.054 110.237 211.297 111.432 211.297 112.832V113.756H200.685V112.132H209.617L209.141 112.524C209.141 111.068 208.824 109.948 208.189 109.164C207.554 108.361 206.621 107.96 205.389 107.96C204.493 107.96 203.728 108.175 203.093 108.604C202.458 109.015 201.973 109.603 201.637 110.368C201.301 111.115 201.133 111.983 201.133 112.972V113.14C201.133 114.26 201.31 115.203 201.665 115.968C202.038 116.715 202.57 117.284 203.261 117.676C203.952 118.049 204.801 118.236 205.809 118.236C206.612 118.236 207.386 118.115 208.133 117.872C208.898 117.611 209.617 117.209 210.289 116.668L211.073 118.432C210.457 118.992 209.664 119.44 208.693 119.776C207.741 120.093 206.78 120.252 205.809 120.252ZM214.522 120V106.364H217.014V109.332H216.706C216.949 108.641 217.285 108.063 217.714 107.596C218.143 107.111 218.657 106.747 219.254 106.504C219.87 106.243 220.542 106.112 221.27 106.112C222.427 106.112 223.361 106.392 224.07 106.952C224.779 107.493 225.255 108.324 225.498 109.444H225.106C225.442 108.417 226.039 107.605 226.898 107.008C227.775 106.411 228.793 106.112 229.95 106.112C230.977 106.112 231.817 106.317 232.47 106.728C233.142 107.12 233.646 107.717 233.982 108.52C234.318 109.304 234.486 110.312 234.486 111.544V120H231.938V111.656C231.938 110.461 231.733 109.584 231.322 109.024C230.911 108.464 230.221 108.184 229.25 108.184C228.541 108.184 227.925 108.352 227.402 108.688C226.879 109.024 226.478 109.5 226.198 110.116C225.918 110.732 225.778 111.469 225.778 112.328V120H223.23V111.656C223.23 110.461 223.025 109.584 222.614 109.024C222.203 108.464 221.513 108.184 220.542 108.184C219.833 108.184 219.217 108.352 218.694 108.688C218.171 109.024 217.77 109.5 217.49 110.116C217.21 110.732 217.07 111.469 217.07 112.328V120H214.522ZM244.883 120.252C243.408 120.252 242.139 119.972 241.075 119.412C240.03 118.833 239.218 118.021 238.639 116.976C238.06 115.912 237.771 114.661 237.771 113.224C237.771 111.805 238.051 110.564 238.611 109.5C239.19 108.436 239.974 107.605 240.963 107.008C241.971 106.411 243.119 106.112 244.407 106.112C245.658 106.112 246.722 106.383 247.599 106.924C248.495 107.465 249.176 108.24 249.643 109.248C250.128 110.237 250.371 111.432 250.371 112.832V113.756H239.759V112.132H248.691L248.215 112.524C248.215 111.068 247.898 109.948 247.263 109.164C246.628 108.361 245.695 107.96 244.463 107.96C243.567 107.96 242.802 108.175 242.167 108.604C241.532 109.015 241.047 109.603 240.711 110.368C240.375 111.115 240.207 111.983 240.207 112.972V113.14C240.207 114.26 240.384 115.203 240.739 115.968C241.112 116.715 241.644 117.284 242.335 117.676C243.026 118.049 243.875 118.236 244.883 118.236C245.686 118.236 246.46 118.115 247.207 117.872C247.972 117.611 248.691 117.209 249.363 116.668L250.147 118.432C249.531 118.992 248.738 119.44 247.767 119.776C246.815 120.093 245.854 120.252 244.883 120.252ZM253.54 120V106.364H256.032V109.332H255.724C256.116 108.268 256.751 107.465 257.628 106.924C258.524 106.383 259.541 106.112 260.68 106.112C261.781 106.112 262.687 106.308 263.396 106.7C264.105 107.092 264.637 107.699 264.992 108.52C265.347 109.323 265.524 110.331 265.524 111.544V120H262.976V111.684C262.976 110.881 262.873 110.219 262.668 109.696C262.463 109.173 262.136 108.791 261.688 108.548C261.259 108.305 260.708 108.184 260.036 108.184C259.252 108.184 258.561 108.352 257.964 108.688C257.367 109.024 256.9 109.5 256.564 110.116C256.247 110.732 256.088 111.451 256.088 112.272V120H253.54ZM275.22 120.252C273.558 120.252 272.317 119.823 271.496 118.964C270.674 118.087 270.264 116.836 270.264 115.212V108.324H267.604V106.364H270.264V102.22H272.812V106.364H277.096V108.324H272.812V114.988C272.812 116.015 273.026 116.789 273.456 117.312C273.885 117.835 274.594 118.096 275.584 118.096C275.882 118.096 276.172 118.068 276.452 118.012C276.75 117.937 277.03 117.863 277.292 117.788L277.712 119.692C277.45 119.86 277.077 119.991 276.592 120.084C276.125 120.196 275.668 120.252 275.22 120.252ZM287.208 120V100.26H289.812V109.192H289.868L299.22 100.26H302.496L291.632 110.508L291.66 109.192L303.056 120H299.752L289.868 110.732H289.812V120H287.208ZM309.217 120.252C308.115 120.252 307.191 120.047 306.445 119.636C305.717 119.225 305.175 118.619 304.821 117.816C304.466 117.013 304.289 116.005 304.289 114.792V106.364H306.837V114.792C306.837 115.557 306.939 116.192 307.145 116.696C307.35 117.2 307.667 117.573 308.097 117.816C308.545 118.059 309.105 118.18 309.777 118.18C310.523 118.18 311.177 118.012 311.737 117.676C312.297 117.34 312.735 116.864 313.053 116.248C313.37 115.632 313.529 114.913 313.529 114.092V106.364H316.077V120H313.585V116.92H313.949C313.575 118.003 312.969 118.833 312.129 119.412C311.307 119.972 310.337 120.252 309.217 120.252ZM327.317 120.252C326.085 120.252 325.03 119.944 324.153 119.328C323.275 118.712 322.687 117.881 322.389 116.836H322.669V120H320.177V100.26H322.725V109.444H322.417C322.715 108.436 323.303 107.633 324.181 107.036C325.058 106.42 326.103 106.112 327.317 106.112C328.53 106.112 329.585 106.401 330.481 106.98C331.395 107.54 332.095 108.352 332.581 109.416C333.085 110.461 333.337 111.712 333.337 113.168C333.337 114.605 333.085 115.865 332.581 116.948C332.077 118.012 331.377 118.833 330.481 119.412C329.585 119.972 328.53 120.252 327.317 120.252ZM326.729 118.236C327.961 118.236 328.941 117.807 329.669 116.948C330.397 116.071 330.761 114.811 330.761 113.168C330.761 111.525 330.397 110.275 329.669 109.416C328.941 108.557 327.961 108.128 326.729 108.128C325.497 108.128 324.517 108.557 323.789 109.416C323.061 110.275 322.697 111.525 322.697 113.168C322.697 114.811 323.061 116.071 323.789 116.948C324.517 117.807 325.497 118.236 326.729 118.236ZM342.91 120.252C341.436 120.252 340.166 119.972 339.102 119.412C338.057 118.833 337.245 118.021 336.666 116.976C336.088 115.912 335.798 114.661 335.798 113.224C335.798 111.805 336.078 110.564 336.638 109.5C337.217 108.436 338.001 107.605 338.99 107.008C339.998 106.411 341.146 106.112 342.434 106.112C343.685 106.112 344.749 106.383 345.626 106.924C346.522 107.465 347.204 108.24 347.67 109.248C348.156 110.237 348.398 111.432 348.398 112.832V113.756H337.786V112.132H346.718L346.242 112.524C346.242 111.068 345.925 109.948 345.29 109.164C344.656 108.361 343.722 107.96 342.49 107.96C341.594 107.96 340.829 108.175 340.194 108.604C339.56 109.015 339.074 109.603 338.738 110.368C338.402 111.115 338.234 111.983 338.234 112.972V113.14C338.234 114.26 338.412 115.203 338.766 115.968C339.14 116.715 339.672 117.284 340.362 117.676C341.053 118.049 341.902 118.236 342.91 118.236C343.713 118.236 344.488 118.115 345.234 117.872C346 117.611 346.718 117.209 347.39 116.668L348.174 118.432C347.558 118.992 346.765 119.44 345.794 119.776C344.842 120.093 343.881 120.252 342.91 120.252ZM351.567 120V106.364H354.059V109.612H353.779C354.078 108.492 354.619 107.652 355.403 107.092C356.187 106.513 357.223 106.177 358.511 106.084L359.379 106L359.575 108.212L357.979 108.352C356.747 108.483 355.795 108.884 355.123 109.556C354.47 110.228 354.143 111.152 354.143 112.328V120H351.567ZM361.794 120V106.364H364.286V109.332H363.978C364.37 108.268 365.005 107.465 365.882 106.924C366.778 106.383 367.795 106.112 368.934 106.112C370.035 106.112 370.941 106.308 371.65 106.7C372.359 107.092 372.891 107.699 373.246 108.52C373.601 109.323 373.778 110.331 373.778 111.544V120H371.23V111.684C371.23 110.881 371.127 110.219 370.922 109.696C370.717 109.173 370.39 108.791 369.942 108.548C369.513 108.305 368.962 108.184 368.29 108.184C367.506 108.184 366.815 108.352 366.218 108.688C365.621 109.024 365.154 109.5 364.818 110.116C364.501 110.732 364.342 111.451 364.342 112.272V120H361.794ZM384.117 120.252C382.643 120.252 381.373 119.972 380.309 119.412C379.264 118.833 378.452 118.021 377.873 116.976C377.295 115.912 377.005 114.661 377.005 113.224C377.005 111.805 377.285 110.564 377.845 109.5C378.424 108.436 379.208 107.605 380.197 107.008C381.205 106.411 382.353 106.112 383.641 106.112C384.892 106.112 385.956 106.383 386.833 106.924C387.729 107.465 388.411 108.24 388.877 109.248C389.363 110.237 389.605 111.432 389.605 112.832V113.756H378.993V112.132H387.925L387.449 112.524C387.449 111.068 387.132 109.948 386.497 109.164C385.863 108.361 384.929 107.96 383.697 107.96C382.801 107.96 382.036 108.175 381.401 108.604C380.767 109.015 380.281 109.603 379.945 110.368C379.609 111.115 379.441 111.983 379.441 112.972V113.14C379.441 114.26 379.619 115.203 379.973 115.968C380.347 116.715 380.879 117.284 381.569 117.676C382.26 118.049 383.109 118.236 384.117 118.236C384.92 118.236 385.695 118.115 386.441 117.872C387.207 117.611 387.925 117.209 388.597 116.668L389.381 118.432C388.765 118.992 387.972 119.44 387.001 119.776C386.049 120.093 385.088 120.252 384.117 120.252ZM398.403 120.252C396.742 120.252 395.5 119.823 394.679 118.964C393.858 118.087 393.447 116.836 393.447 115.212V108.324H390.787V106.364H393.447V102.22H395.995V106.364H400.279V108.324H395.995V114.988C395.995 116.015 396.21 116.789 396.639 117.312C397.068 117.835 397.778 118.096 398.767 118.096C399.066 118.096 399.355 118.068 399.635 118.012C399.934 117.937 400.214 117.863 400.475 117.788L400.895 119.692C400.634 119.86 400.26 119.991 399.775 120.084C399.308 120.196 398.851 120.252 398.403 120.252ZM408.946 120.252C407.471 120.252 406.202 119.972 405.138 119.412C404.092 118.833 403.28 118.021 402.702 116.976C402.123 115.912 401.834 114.661 401.834 113.224C401.834 111.805 402.114 110.564 402.674 109.5C403.252 108.436 404.036 107.605 405.026 107.008C406.034 106.411 407.182 106.112 408.47 106.112C409.72 106.112 410.784 106.383 411.662 106.924C412.558 107.465 413.239 108.24 413.706 109.248C414.191 110.237 414.434 111.432 414.434 112.832V113.756H403.822V112.132H412.754L412.278 112.524C412.278 111.068 411.96 109.948 411.326 109.164C410.691 108.361 409.758 107.96 408.526 107.96C407.63 107.96 406.864 108.175 406.23 108.604C405.595 109.015 405.11 109.603 404.774 110.368C404.438 111.115 404.27 111.983 404.27 112.972V113.14C404.27 114.26 404.447 115.203 404.802 115.968C405.175 116.715 405.707 117.284 406.398 117.676C407.088 118.049 407.938 118.236 408.946 118.236C409.748 118.236 410.523 118.115 411.27 117.872C412.035 117.611 412.754 117.209 413.426 116.668L414.21 118.432C413.594 118.992 412.8 119.44 411.83 119.776C410.878 120.093 409.916 120.252 408.946 120.252ZM422.307 120.252C421.597 120.252 420.897 120.187 420.207 120.056C419.535 119.925 418.909 119.739 418.331 119.496C417.771 119.235 417.276 118.927 416.847 118.572L417.603 116.808C418.051 117.144 418.536 117.433 419.059 117.676C419.581 117.9 420.123 118.068 420.683 118.18C421.243 118.292 421.803 118.348 422.363 118.348C423.389 118.348 424.164 118.161 424.687 117.788C425.209 117.415 425.471 116.92 425.471 116.304C425.471 115.781 425.293 115.38 424.939 115.1C424.603 114.801 424.071 114.577 423.343 114.428L420.739 113.896C419.581 113.635 418.704 113.205 418.107 112.608C417.528 111.992 417.239 111.208 417.239 110.256C417.239 109.416 417.463 108.688 417.911 108.072C418.377 107.437 419.021 106.952 419.843 106.616C420.664 106.28 421.607 106.112 422.671 106.112C423.305 106.112 423.921 106.177 424.519 106.308C425.116 106.439 425.676 106.625 426.199 106.868C426.721 107.111 427.16 107.428 427.515 107.82L426.731 109.556C426.376 109.22 425.975 108.94 425.527 108.716C425.079 108.492 424.612 108.324 424.127 108.212C423.641 108.081 423.156 108.016 422.671 108.016C421.663 108.016 420.897 108.212 420.375 108.604C419.871 108.996 419.619 109.509 419.619 110.144C419.619 110.629 419.768 111.031 420.067 111.348C420.384 111.665 420.879 111.899 421.551 112.048L424.155 112.58C425.368 112.841 426.283 113.261 426.899 113.84C427.515 114.4 427.823 115.165 427.823 116.136C427.823 116.995 427.589 117.732 427.123 118.348C426.675 118.964 426.031 119.44 425.191 119.776C424.369 120.093 423.408 120.252 422.307 120.252ZM447.427 120.252C445.467 120.252 443.787 119.841 442.387 119.02C440.987 118.199 439.905 117.032 439.139 115.52C438.393 113.989 438.019 112.188 438.019 110.116C438.019 108.044 438.393 106.252 439.139 104.74C439.905 103.228 440.987 102.061 442.387 101.24C443.787 100.419 445.467 100.008 447.427 100.008C448.771 100.008 450.022 100.223 451.179 100.652C452.355 101.063 453.335 101.679 454.119 102.5L453.167 104.572C452.309 103.807 451.422 103.247 450.507 102.892C449.593 102.537 448.585 102.36 447.483 102.36C445.318 102.36 443.657 103.032 442.499 104.376C441.361 105.72 440.791 107.633 440.791 110.116C440.791 112.599 441.361 114.521 442.499 115.884C443.657 117.228 445.318 117.9 447.483 117.9C448.585 117.9 449.593 117.723 450.507 117.368C451.422 117.013 452.309 116.453 453.167 115.688L454.119 117.76C453.335 118.563 452.355 119.179 451.179 119.608C450.022 120.037 448.771 120.252 447.427 120.252ZM461.618 120.252C460.162 120.252 459.07 119.841 458.342 119.02C457.633 118.18 457.278 116.976 457.278 115.408V100.26H459.826V115.212C459.826 115.847 459.91 116.388 460.078 116.836C460.265 117.265 460.526 117.583 460.862 117.788C461.217 117.993 461.656 118.096 462.178 118.096C462.384 118.096 462.589 118.087 462.794 118.068C463.018 118.049 463.224 118.012 463.41 117.956L463.354 120.028C463.056 120.103 462.757 120.159 462.458 120.196C462.178 120.233 461.898 120.252 461.618 120.252ZM470.572 120.252C469.471 120.252 468.547 120.047 467.8 119.636C467.072 119.225 466.531 118.619 466.176 117.816C465.822 117.013 465.644 116.005 465.644 114.792V106.364H468.192V114.792C468.192 115.557 468.295 116.192 468.5 116.696C468.706 117.2 469.023 117.573 469.452 117.816C469.9 118.059 470.46 118.18 471.132 118.18C471.879 118.18 472.532 118.012 473.092 117.676C473.652 117.34 474.091 116.864 474.408 116.248C474.726 115.632 474.884 114.913 474.884 114.092V106.364H477.432V120H474.94V116.92H475.304C474.931 118.003 474.324 118.833 473.484 119.412C472.663 119.972 471.692 120.252 470.572 120.252ZM486.236 120.252C485.527 120.252 484.827 120.187 484.136 120.056C483.464 119.925 482.839 119.739 482.26 119.496C481.7 119.235 481.206 118.927 480.776 118.572L481.532 116.808C481.98 117.144 482.466 117.433 482.988 117.676C483.511 117.9 484.052 118.068 484.612 118.18C485.172 118.292 485.732 118.348 486.292 118.348C487.319 118.348 488.094 118.161 488.616 117.788C489.139 117.415 489.4 116.92 489.4 116.304C489.4 115.781 489.223 115.38 488.868 115.1C488.532 114.801 488 114.577 487.272 114.428L484.668 113.896C483.511 113.635 482.634 113.205 482.036 112.608C481.458 111.992 481.168 111.208 481.168 110.256C481.168 109.416 481.392 108.688 481.84 108.072C482.307 107.437 482.951 106.952 483.772 106.616C484.594 106.28 485.536 106.112 486.6 106.112C487.235 106.112 487.851 106.177 488.448 106.308C489.046 106.439 489.606 106.625 490.128 106.868C490.651 107.111 491.09 107.428 491.444 107.82L490.66 109.556C490.306 109.22 489.904 108.94 489.456 108.716C489.008 108.492 488.542 108.324 488.056 108.212C487.571 108.081 487.086 108.016 486.6 108.016C485.592 108.016 484.827 108.212 484.304 108.604C483.8 108.996 483.548 109.509 483.548 110.144C483.548 110.629 483.698 111.031 483.996 111.348C484.314 111.665 484.808 111.899 485.48 112.048L488.084 112.58C489.298 112.841 490.212 113.261 490.828 113.84C491.444 114.4 491.752 115.165 491.752 116.136C491.752 116.995 491.519 117.732 491.052 118.348C490.604 118.964 489.96 119.44 489.12 119.776C488.299 120.093 487.338 120.252 486.236 120.252ZM500.587 120.252C498.925 120.252 497.684 119.823 496.863 118.964C496.041 118.087 495.631 116.836 495.631 115.212V108.324H492.971V106.364H495.631V102.22H498.179V106.364H502.463V108.324H498.179V114.988C498.179 116.015 498.393 116.789 498.823 117.312C499.252 117.835 499.961 118.096 500.951 118.096C501.249 118.096 501.539 118.068 501.819 118.012C502.117 117.937 502.397 117.863 502.659 117.788L503.079 119.692C502.817 119.86 502.444 119.991 501.959 120.084C501.492 120.196 501.035 120.252 500.587 120.252ZM511.129 120.252C509.654 120.252 508.385 119.972 507.321 119.412C506.276 118.833 505.464 118.021 504.885 116.976C504.306 115.912 504.017 114.661 504.017 113.224C504.017 111.805 504.297 110.564 504.857 109.5C505.436 108.436 506.22 107.605 507.209 107.008C508.217 106.411 509.365 106.112 510.653 106.112C511.904 106.112 512.968 106.383 513.845 106.924C514.741 107.465 515.422 108.24 515.889 109.248C516.374 110.237 516.617 111.432 516.617 112.832V113.756H506.005V112.132H514.937L514.461 112.524C514.461 111.068 514.144 109.948 513.509 109.164C512.874 108.361 511.941 107.96 510.709 107.96C509.813 107.96 509.048 108.175 508.413 108.604C507.778 109.015 507.293 109.603 506.957 110.368C506.621 111.115 506.453 111.983 506.453 112.972V113.14C506.453 114.26 506.63 115.203 506.985 115.968C507.358 116.715 507.89 117.284 508.581 117.676C509.272 118.049 510.121 118.236 511.129 118.236C511.932 118.236 512.706 118.115 513.453 117.872C514.218 117.611 514.937 117.209 515.609 116.668L516.393 118.432C515.777 118.992 514.984 119.44 514.013 119.776C513.061 120.093 512.1 120.252 511.129 120.252ZM519.786 120V106.364H522.278V109.612H521.998C522.297 108.492 522.838 107.652 523.622 107.092C524.406 106.513 525.442 106.177 526.73 106.084L527.598 106L527.794 108.212L526.198 108.352C524.966 108.483 524.014 108.884 523.342 109.556C522.689 110.228 522.362 111.152 522.362 112.328V120H519.786Z" fill="black"/>
<path d="M1035 571.997C1035 571.444 1034.55 570.998 1034 571L1025 571.031C1024.44 571.033 1024 571.482 1024 572.034C1024 572.586 1024.45 573.033 1025 573.031L1033 573.003L1033.03 581.003C1033.03 581.556 1033.48 582.002 1034.03 582C1034.59 581.998 1035.03 581.549 1035.03 580.997L1035 571.997ZM890.857 717.543C891.246 717.151 891.244 716.518 890.852 716.129C890.46 715.74 889.827 715.742 889.438 716.134L890.857 717.543ZM893.732 711.81C893.342 712.202 893.345 712.835 893.736 713.224C894.128 713.613 894.762 713.611 895.151 713.219L893.732 711.81ZM899.445 708.896C899.834 708.504 899.832 707.871 899.44 707.482C899.048 707.092 898.415 707.095 898.026 707.486L899.445 708.896ZM902.32 703.163C901.931 703.555 901.933 704.188 902.325 704.577C902.717 704.966 903.35 704.964 903.739 704.572L902.32 703.163ZM908.033 700.249C908.422 699.857 908.42 699.224 908.028 698.835C907.636 698.445 907.003 698.448 906.614 698.839L908.033 700.249ZM910.908 694.516C910.519 694.908 910.521 695.541 910.913 695.93C911.305 696.319 911.938 696.317 912.327 695.925L910.908 694.516ZM916.621 691.602C917.01 691.21 917.008 690.577 916.616 690.188C916.225 689.798 915.591 689.801 915.202 690.192L916.621 691.602ZM919.496 685.869C919.107 686.261 919.109 686.894 919.501 687.283C919.893 687.672 920.526 687.67 920.915 687.278L919.496 685.869ZM925.21 682.955C925.599 682.563 925.597 681.93 925.205 681.54C924.813 681.151 924.18 681.153 923.79 681.545L925.21 682.955ZM928.085 677.222C927.695 677.614 927.698 678.247 928.089 678.636C928.481 679.025 929.114 679.023 929.504 678.631L928.085 677.222ZM933.798 674.308C934.187 673.916 934.185 673.283 933.793 672.893C933.401 672.504 932.768 672.506 932.379 672.898L933.798 674.308ZM936.673 668.575C936.284 668.967 936.286 669.6 936.678 669.989C937.07 670.378 937.703 670.376 938.092 669.984L936.673 668.575ZM942.386 665.661C942.775 665.269 942.773 664.636 942.381 664.246C941.989 663.857 941.356 663.859 940.967 664.251L942.386 665.661ZM945.261 659.928C944.872 660.32 944.874 660.953 945.266 661.342C945.658 661.731 946.291 661.729 946.68 661.337L945.261 659.928ZM950.974 657.014C951.363 656.622 951.361 655.988 950.969 655.599C950.578 655.21 949.944 655.212 949.555 655.604L950.974 657.014ZM953.849 651.281C953.46 651.672 953.462 652.306 953.854 652.695C954.246 653.084 954.879 653.082 955.268 652.69L953.849 651.281ZM959.562 648.366C959.952 647.975 959.949 647.341 959.558 646.952C959.166 646.563 958.533 646.565 958.143 646.957L959.562 648.366ZM962.438 642.634C962.048 643.025 962.051 643.659 962.442 644.048C962.834 644.437 963.467 644.435 963.857 644.043L962.438 642.634ZM968.151 639.719C968.54 639.328 968.538 638.694 968.146 638.305C967.754 637.916 967.121 637.918 966.732 638.31L968.151 639.719ZM971.026 633.986C970.637 634.378 970.639 635.011 971.031 635.401C971.422 635.79 972.056 635.788 972.445 635.396L971.026 633.986ZM976.739 631.072C977.128 630.68 977.126 630.047 976.734 629.658C976.342 629.269 975.709 629.271 975.32 629.663L976.739 631.072ZM979.614 625.339C979.225 625.731 979.227 626.364 979.619 626.754C980.011 627.143 980.644 627.141 981.033 626.749L979.614 625.339ZM985.327 622.425C985.716 622.033 985.714 621.4 985.322 621.011C984.93 620.622 984.297 620.624 983.908 621.016L985.327 622.425ZM988.202 616.692C987.813 617.084 987.815 617.717 988.207 618.107C988.599 618.496 989.232 618.494 989.621 618.102L988.202 616.692ZM993.915 613.778C994.305 613.386 994.302 612.753 993.911 612.364C993.519 611.975 992.886 611.977 992.496 612.369L993.915 613.778ZM996.79 608.045C996.401 608.437 996.403 609.07 996.795 609.46C997.187 609.849 997.82 609.847 998.21 609.455L996.79 608.045ZM1002.5 605.131C1002.89 604.739 1002.89 604.106 1002.5 603.717C1002.11 603.328 1001.47 603.33 1001.08 603.722L1002.5 605.131ZM1005.38 599.398C1004.99 599.79 1004.99 600.423 1005.38 600.812C1005.78 601.202 1006.41 601.199 1006.8 600.808L1005.38 599.398ZM1011.09 596.484C1011.48 596.092 1011.48 595.459 1011.09 595.07C1010.7 594.681 1010.06 594.683 1009.67 595.075L1011.09 596.484ZM1013.97 590.751C1013.58 591.143 1013.58 591.776 1013.97 592.165C1014.36 592.555 1015 592.552 1015.39 592.161L1013.97 590.751ZM1019.68 587.837C1020.07 587.445 1020.07 586.812 1019.68 586.423C1019.28 586.034 1018.65 586.036 1018.26 586.428L1019.68 587.837ZM1022.56 582.104C1022.17 582.496 1022.17 583.129 1022.56 583.518C1022.95 583.908 1023.59 583.905 1023.97 583.514L1022.56 582.104ZM1028.27 579.19C1028.66 578.798 1028.66 578.165 1028.26 577.776C1027.87 577.387 1027.24 577.389 1026.85 577.781L1028.27 579.19ZM1031.14 573.457C1030.75 573.849 1030.76 574.482 1031.15 574.871C1031.54 575.26 1032.17 575.258 1032.56 574.866L1031.14 573.457ZM888.71 719.705L890.857 717.543L889.438 716.134L887.29 718.295L888.71 719.705ZM895.151 713.219L899.445 708.896L898.026 707.486L893.732 711.81L895.151 713.219ZM903.739 704.572L908.033 700.249L906.614 698.839L902.32 703.163L903.739 704.572ZM912.327 695.925L916.621 691.602L915.202 690.192L910.908 694.516L912.327 695.925ZM920.915 687.278L925.21 682.955L923.79 681.545L919.496 685.869L920.915 687.278ZM929.504 678.631L933.798 674.308L932.379 672.898L928.085 677.222L929.504 678.631ZM938.092 669.984L942.386 665.661L940.967 664.251L936.673 668.575L938.092 669.984ZM946.68 661.337L950.974 657.014L949.555 655.604L945.261 659.928L946.68 661.337ZM955.268 652.69L959.562 648.366L958.143 646.957L953.849 651.281L955.268 652.69ZM963.857 644.043L968.151 639.719L966.732 638.31L962.438 642.634L963.857 644.043ZM972.445 635.396L976.739 631.072L975.32 629.663L971.026 633.986L972.445 635.396ZM981.033 626.749L985.327 622.425L983.908 621.016L979.614 625.339L981.033 626.749ZM989.621 618.102L993.915 613.778L992.496 612.369L988.202 616.692L989.621 618.102ZM998.21 609.455L1002.5 605.131L1001.08 603.722L996.79 608.045L998.21 609.455ZM1006.8 600.808L1011.09 596.484L1009.67 595.075L1005.38 599.398L1006.8 600.808ZM1015.39 592.161L1019.68 587.837L1018.26 586.428L1013.97 590.751L1015.39 592.161ZM1023.97 583.514L1028.27 579.19L1026.85 577.781L1022.56 582.104L1023.97 583.514ZM1032.56 574.866L1034.71 572.705L1033.29 571.295L1031.14 573.457L1032.56 574.866ZM1035 571.997C1035 571.444 1034.55 570.998 1034 571L1025 571.031C1024.44 571.033 1024 571.482 1024 572.034C1024 572.586 1024.45 573.033 1025 573.031L1033 573.003L1033.03 581.003C1033.03 581.556 1033.48 582.002 1034.03 582C1034.59 581.998 1035.03 581.549 1035.03 580.997L1035 571.997ZM890.857 717.543C891.246 717.151 891.244 716.518 890.852 716.129C890.46 715.74 889.827 715.742 889.438 716.134L890.857 717.543ZM893.732 711.81C893.342 712.202 893.345 712.835 893.736 713.224C894.128 713.613 894.762 713.611 895.151 713.219L893.732 711.81ZM899.445 708.896C899.834 708.504 899.832 707.871 899.44 707.482C899.048 707.092 898.415 707.095 898.026 707.486L899.445 708.896ZM902.32 703.163C901.931 703.555 901.933 704.188 902.325 704.577C902.717 704.966 903.35 704.964 903.739 704.572L902.32 703.163ZM908.033 700.249C908.422 699.857 908.42 699.224 908.028 698.835C907.636 698.445 907.003 698.448 906.614 698.839L908.033 700.249ZM910.908 694.516C910.519 694.908 910.521 695.541 910.913 695.93C911.305 696.319 911.938 696.317 912.327 695.925L910.908 694.516ZM916.621 691.602C917.01 691.21 917.008 690.577 916.616 690.188C916.225 689.798 915.591 689.801 915.202 690.192L916.621 691.602ZM919.496 685.869C919.107 686.261 919.109 686.894 919.501 687.283C919.893 687.672 920.526 687.67 920.915 687.278L919.496 685.869ZM925.21 682.955C925.599 682.563 925.597 681.93 925.205 681.54C924.813 681.151 924.18 681.153 923.79 681.545L925.21 682.955ZM928.085 677.222C927.695 677.614 927.698 678.247 928.089 678.636C928.481 679.025 929.114 679.023 929.504 678.631L928.085 677.222ZM933.798 674.308C934.187 673.916 934.185 673.283 933.793 672.893C933.401 672.504 932.768 672.506 932.379 672.898L933.798 674.308ZM936.673 668.575C936.284 668.967 936.286 669.6 936.678 669.989C937.07 670.378 937.703 670.376 938.092 669.984L936.673 668.575ZM942.386 665.661C942.775 665.269 942.773 664.636 942.381 664.246C941.989 663.857 941.356 663.859 940.967 664.251L942.386 665.661ZM945.261 659.928C944.872 660.32 944.874 660.953 945.266 661.342C945.658 661.731 946.291 661.729 946.68 661.337L945.261 659.928ZM950.974 657.014C951.363 656.622 951.361 655.988 950.969 655.599C950.578 655.21 949.944 655.212 949.555 655.604L950.974 657.014ZM953.849 651.281C953.46 651.672 953.462 652.306 953.854 652.695C954.246 653.084 954.879 653.082 955.268 652.69L953.849 651.281ZM959.562 648.366C959.952 647.975 959.949 647.341 959.558 646.952C959.166 646.563 958.533 646.565 958.143 646.957L959.562 648.366ZM962.438 642.634C962.048 643.025 962.051 643.659 962.442 644.048C962.834 644.437 963.467 644.435 963.857 644.043L962.438 642.634ZM968.151 639.719C968.54 639.328 968.538 638.694 968.146 638.305C967.754 637.916 967.121 637.918 966.732 638.31L968.151 639.719ZM971.026 633.986C970.637 634.378 970.639 635.011 971.031 635.401C971.422 635.79 972.056 635.788 972.445 635.396L971.026 633.986ZM976.739 631.072C977.128 630.68 977.126 630.047 976.734 629.658C976.342 629.269 975.709 629.271 975.32 629.663L976.739 631.072ZM979.614 625.339C979.225 625.731 979.227 626.364 979.619 626.754C980.011 627.143 980.644 627.141 981.033 626.749L979.614 625.339ZM985.327 622.425C985.716 622.033 985.714 621.4 985.322 621.011C984.93 620.622 984.297 620.624 983.908 621.016L985.327 622.425ZM988.202 616.692C987.813 617.084 987.815 617.717 988.207 618.107C988.599 618.496 989.232 618.494 989.621 618.102L988.202 616.692ZM993.915 613.778C994.305 613.386 994.302 612.753 993.911 612.364C993.519 611.975 992.886 611.977 992.496 612.369L993.915 613.778ZM996.79 608.045C996.401 608.437 996.403 609.07 996.795 609.46C997.187 609.849 997.82 609.847 998.21 609.455L996.79 608.045ZM1002.5 605.131C1002.89 604.739 1002.89 604.106 1002.5 603.717C1002.11 603.328 1001.47 603.33 1001.08 603.722L1002.5 605.131ZM1005.38 599.398C1004.99 599.79 1004.99 600.423 1005.38 600.812C1005.78 601.202 1006.41 601.199 1006.8 600.808L1005.38 599.398ZM1011.09 596.484C1011.48 596.092 1011.48 595.459 1011.09 595.07C1010.7 594.681 1010.06 594.683 1009.67 595.075L1011.09 596.484ZM1013.97 590.751C1013.58 591.143 1013.58 591.776 1013.97 592.165C1014.36 592.555 1015 592.552 1015.39 592.161L1013.97 590.751ZM1019.68 587.837C1020.07 587.445 1020.07 586.812 1019.68 586.423C1019.28 586.034 1018.65 586.036 1018.26 586.428L1019.68 587.837ZM1022.56 582.104C1022.17 582.496 1022.17 583.129 1022.56 583.518C1022.95 583.908 1023.59 583.905 1023.97 583.514L1022.56 582.104ZM1028.27 579.19C1028.66 578.798 1028.66 578.165 1028.26 577.776C1027.87 577.387 1027.24 577.389 1026.85 577.781L1028.27 579.19ZM1031.14 573.457C1030.75 573.849 1030.76 574.482 1031.15 574.871C1031.54 575.26 1032.17 575.258 1032.56 574.866L1031.14 573.457ZM888.71 719.705L890.857 717.543L889.438 716.134L887.29 718.295L888.71 719.705ZM895.151 713.219L899.445 708.896L898.026 707.486L893.732 711.81L895.151 713.219ZM903.739 704.572L908.033 700.249L906.614 698.839L902.32 703.163L903.739 704.572ZM912.327 695.925L916.621 691.602L915.202 690.192L910.908 694.516L912.327 695.925ZM920.915 687.278L925.21 682.955L923.79 681.545L919.496 685.869L920.915 687.278ZM929.504 678.631L933.798 674.308L932.379 672.898L928.085 677.222L929.504 678.631ZM938.092 669.984L942.386 665.661L940.967 664.251L936.673 668.575L938.092 669.984ZM946.68 661.337L950.974 657.014L949.555 655.604L945.261 659.928L946.68 661.337ZM955.268 652.69L959.562 648.366L958.143 646.957L953.849 651.281L955.268 652.69ZM963.857 644.043L968.151 639.719L966.732 638.31L962.438 642.634L963.857 644.043ZM972.445 635.396L976.739 631.072L975.32 629.663L971.026 633.986L972.445 635.396ZM981.033 626.749L985.327 622.425L983.908 621.016L979.614 625.339L981.033 626.749ZM989.621 618.102L993.915 613.778L992.496 612.369L988.202 616.692L989.621 618.102ZM998.21 609.455L1002.5 605.131L1001.08 603.722L996.79 608.045L998.21 609.455ZM1006.8 600.808L1011.09 596.484L1009.67 595.075L1005.38 599.398L1006.8 600.808ZM1015.39 592.161L1019.68 587.837L1018.26 586.428L1013.97 590.751L1015.39 592.161ZM1023.97 583.514L1028.27 579.19L1026.85 577.781L1022.56 582.104L1023.97 583.514ZM1032.56 574.866L1034.71 572.705L1033.29 571.295L1031.14 573.457L1032.56 574.866Z" fill="black"/>
<defs>
<filter id="filter0_d_467_421" x="39" y="45" width="1201" height="734" filterUnits="userSpaceOnUse" color-interpolation-filters="sRGB">
<feFlood flood-opacity="0" result="BackgroundImageFix"/>
<feColorMatrix in="SourceAlpha" type="matrix" values="0 0 0 0 0 0 0 0 0 0 0 0 0 0 0 0 0 0 127 0" result="hardAlpha"/>
<feMorphology radius="2" operator="dilate" in="SourceAlpha" result="effect1_dropShadow_467_421"/>
<feOffset dy="5"/>
<feGaussianBlur stdDeviation="10"/>
<feComposite in2="hardAlpha" operator="out"/>
<feColorMatrix type="matrix" values="0 0 0 0 0.730263 0 0 0 0 0.772123 0 0 0 0 0.834912 0 0 0 0.2 0"/>
<feBlend mode="normal" in2="BackgroundImageFix" result="effect1_dropShadow_467_421"/>
<feBlend mode="normal" in="SourceGraphic" in2="effect1_dropShadow_467_421" result="shape"/>
</filter>
<linearGradient id="paint0_linear_467_421" x1="676" y1="208" x2="1067.74" y2="605.736" gradientUnits="userSpaceOnUse">
<stop stop-color="#0185FF"/>
<stop offset="1" stop-color="#01CDFF"/>
</linearGradient>
<radialGradient id="paint1_radial_467_421" cx="0" cy="0" r="1" gradientUnits="userSpaceOnUse" gradientTransform="translate(-211 533.81) scale(1021 542.776)">
<stop offset="0.140398" stop-color="#591BBF"/>
<stop offset="0.432481" stop-color="#5DA4EF"/>
<stop offset="0.655719" stop-color="#94DEE0"/>
<stop offset="0.900453" stop-color="#B0E07F"/>
</radialGradient>
<linearGradient id="paint2_linear_467_421" x1="731" y1="302" x2="795.768" y2="490.736" gradientUnits="userSpaceOnUse">
<stop stop-color="#0185FF"/>
<stop offset="1" stop-color="#01CDFF"/>
</linearGradient>
<linearGradient id="paint3_linear_467_421" x1="141" y1="262" x2="233.683" y2="477.068" gradientUnits="userSpaceOnUse">
<stop stop-color="#0185FF"/>
<stop offset="1" stop-color="#01CDFF"/>
</linearGradient>
</defs>
</svg>
