<svg width="1279" height="463" viewBox="0 0 1279 463" fill="none" xmlns="http://www.w3.org/2000/svg">
<rect width="1279" height="463" fill="white"/>
<rect x="23" y="177" width="358" height="108" rx="9" fill="white" stroke="url(#paint0_linear_466_101)" stroke-width="2"/>
<path d="M73.8012 240V220.26H75.9852L83.8532 235.016H82.9852L90.8252 220.26H92.9812V240H90.6292V223.872H91.2452L84.2172 236.976H82.5932L75.4812 223.844H76.1532V240H73.8012ZM101.784 240.252C100.851 240.252 100.002 240.065 99.2364 239.692C98.4897 239.319 97.9017 238.815 97.4724 238.18C97.0617 237.545 96.8564 236.836 96.8564 236.052C96.8564 235.044 97.1084 234.251 97.6124 233.672C98.1164 233.093 98.9657 232.683 100.16 232.44C101.355 232.179 102.96 232.048 104.976 232.048H106.292V233.672H105.032C103.95 233.672 103.044 233.709 102.316 233.784C101.588 233.859 101.01 233.98 100.58 234.148C100.151 234.316 99.8431 234.549 99.6564 234.848C99.4697 235.128 99.3764 235.483 99.3764 235.912C99.3764 236.64 99.6284 237.237 100.132 237.704C100.655 238.171 101.364 238.404 102.26 238.404C102.97 238.404 103.595 238.236 104.136 237.9C104.678 237.545 105.107 237.079 105.424 236.5C105.742 235.903 105.9 235.221 105.9 234.456V231.236C105.9 230.135 105.676 229.341 105.228 228.856C104.78 228.352 104.024 228.1 102.96 228.1C102.176 228.1 101.392 228.221 100.608 228.464C99.8431 228.707 99.0497 229.08 98.2284 229.584L97.4164 227.764C97.9017 227.428 98.4524 227.139 99.0684 226.896C99.7031 226.635 100.356 226.439 101.028 226.308C101.719 226.177 102.382 226.112 103.016 226.112C104.23 226.112 105.228 226.308 106.012 226.7C106.796 227.073 107.384 227.661 107.776 228.464C108.168 229.248 108.364 230.256 108.364 231.488V240H105.956V236.892H106.208C106.059 237.583 105.779 238.18 105.368 238.684C104.958 239.188 104.444 239.58 103.828 239.86C103.231 240.121 102.55 240.252 101.784 240.252ZM118.282 240.252C116.901 240.252 115.706 239.963 114.698 239.384C113.69 238.787 112.915 237.956 112.374 236.892C111.833 235.809 111.562 234.54 111.562 233.084C111.562 231.647 111.833 230.405 112.374 229.36C112.915 228.315 113.69 227.512 114.698 226.952C115.706 226.392 116.901 226.112 118.282 226.112C119.141 226.112 119.981 226.261 120.802 226.56C121.642 226.859 122.333 227.279 122.874 227.82L122.034 229.612C121.493 229.127 120.905 228.763 120.27 228.52C119.635 228.277 119.029 228.156 118.45 228.156C117.087 228.156 116.033 228.585 115.286 229.444C114.539 230.303 114.166 231.525 114.166 233.112C114.166 234.699 114.539 235.949 115.286 236.864C116.033 237.76 117.087 238.208 118.45 238.208C119.029 238.208 119.635 238.087 120.27 237.844C120.905 237.601 121.493 237.228 122.034 236.724L122.874 238.544C122.333 239.085 121.633 239.505 120.774 239.804C119.934 240.103 119.103 240.252 118.282 240.252ZM125.39 240V220.26H127.938V229.332H127.574C127.966 228.268 128.6 227.465 129.478 226.924C130.374 226.383 131.391 226.112 132.53 226.112C133.631 226.112 134.536 226.317 135.246 226.728C135.955 227.12 136.487 227.717 136.842 228.52C137.196 229.323 137.374 230.331 137.374 231.544V240H134.826V231.684C134.826 230.881 134.723 230.219 134.518 229.696C134.312 229.173 133.986 228.791 133.538 228.548C133.108 228.305 132.558 228.184 131.886 228.184C131.102 228.184 130.411 228.352 129.814 228.688C129.216 229.024 128.75 229.5 128.414 230.116C128.096 230.732 127.938 231.451 127.938 232.272V240H125.39ZM141.161 223.088V220.344H144.213V223.088H141.161ZM141.413 240V226.364H143.961V240H141.413ZM148.058 240V226.364H150.55V229.332H150.242C150.634 228.268 151.268 227.465 152.146 226.924C153.042 226.383 154.059 226.112 155.198 226.112C156.299 226.112 157.204 226.308 157.914 226.7C158.623 227.092 159.155 227.699 159.51 228.52C159.864 229.323 160.042 230.331 160.042 231.544V240H157.494V231.684C157.494 230.881 157.391 230.219 157.186 229.696C156.98 229.173 156.654 228.791 156.206 228.548C155.776 228.305 155.226 228.184 154.554 228.184C153.77 228.184 153.079 228.352 152.482 228.688C151.884 229.024 151.418 229.5 151.082 230.116C150.764 230.732 150.606 231.451 150.606 232.272V240H148.058ZM170.381 240.252C168.906 240.252 167.637 239.972 166.573 239.412C165.528 238.833 164.716 238.021 164.137 236.976C163.558 235.912 163.269 234.661 163.269 233.224C163.269 231.805 163.549 230.564 164.109 229.5C164.688 228.436 165.472 227.605 166.461 227.008C167.469 226.411 168.617 226.112 169.905 226.112C171.156 226.112 172.22 226.383 173.097 226.924C173.993 227.465 174.674 228.24 175.141 229.248C175.626 230.237 175.869 231.432 175.869 232.832V233.756H165.257V232.132H174.189L173.713 232.524C173.713 231.068 173.396 229.948 172.761 229.164C172.126 228.361 171.193 227.96 169.961 227.96C169.065 227.96 168.3 228.175 167.665 228.604C167.03 229.015 166.545 229.603 166.209 230.368C165.873 231.115 165.705 231.983 165.705 232.972V233.14C165.705 234.26 165.882 235.203 166.237 235.968C166.61 236.715 167.142 237.284 167.833 237.676C168.524 238.049 169.373 238.236 170.381 238.236C171.184 238.236 171.958 238.115 172.705 237.872C173.47 237.611 174.189 237.209 174.861 236.668L175.645 238.432C175.029 238.992 174.236 239.44 173.265 239.776C172.313 240.093 171.352 240.252 170.381 240.252ZM179.374 240V220.26H186.178C188.325 220.26 190.145 220.643 191.638 221.408C193.15 222.155 194.298 223.265 195.082 224.74C195.866 226.196 196.258 227.988 196.258 230.116C196.258 232.244 195.866 234.045 195.082 235.52C194.298 236.976 193.15 238.087 191.638 238.852C190.145 239.617 188.325 240 186.178 240H179.374ZM181.978 237.788H186.01C188.53 237.788 190.415 237.153 191.666 235.884C192.917 234.596 193.542 232.673 193.542 230.116C193.542 227.559 192.907 225.645 191.638 224.376C190.387 223.107 188.511 222.472 186.01 222.472H181.978V237.788ZM206.256 240.252C204.781 240.252 203.512 239.972 202.448 239.412C201.403 238.833 200.591 238.021 200.012 236.976C199.433 235.912 199.144 234.661 199.144 233.224C199.144 231.805 199.424 230.564 199.984 229.5C200.563 228.436 201.347 227.605 202.336 227.008C203.344 226.411 204.492 226.112 205.78 226.112C207.031 226.112 208.095 226.383 208.972 226.924C209.868 227.465 210.549 228.24 211.016 229.248C211.501 230.237 211.744 231.432 211.744 232.832V233.756H201.132V232.132H210.064L209.588 232.524C209.588 231.068 209.271 229.948 208.636 229.164C208.001 228.361 207.068 227.96 205.836 227.96C204.94 227.96 204.175 228.175 203.54 228.604C202.905 229.015 202.42 229.603 202.084 230.368C201.748 231.115 201.58 231.983 201.58 232.972V233.14C201.58 234.26 201.757 235.203 202.112 235.968C202.485 236.715 203.017 237.284 203.708 237.676C204.399 238.049 205.248 238.236 206.256 238.236C207.059 238.236 207.833 238.115 208.58 237.872C209.345 237.611 210.064 237.209 210.736 236.668L211.52 238.432C210.904 238.992 210.111 239.44 209.14 239.776C208.188 240.093 207.227 240.252 206.256 240.252ZM214.913 245.04V226.364H217.405V229.5H217.125C217.424 228.473 218.012 227.652 218.889 227.036C219.766 226.42 220.821 226.112 222.053 226.112C223.266 226.112 224.321 226.401 225.217 226.98C226.113 227.54 226.813 228.352 227.317 229.416C227.821 230.461 228.073 231.712 228.073 233.168C228.073 234.605 227.821 235.865 227.317 236.948C226.832 238.012 226.132 238.833 225.217 239.412C224.321 239.972 223.266 240.252 222.053 240.252C220.84 240.252 219.794 239.944 218.917 239.328C218.04 238.712 217.452 237.9 217.153 236.892H217.461V245.04H214.913ZM221.465 238.236C222.697 238.236 223.677 237.807 224.405 236.948C225.133 236.071 225.497 234.811 225.497 233.168C225.497 231.525 225.133 230.275 224.405 229.416C223.677 228.557 222.697 228.128 221.465 228.128C220.233 228.128 219.253 228.557 218.525 229.416C217.797 230.275 217.433 231.525 217.433 233.168C217.433 234.811 217.797 236.071 218.525 236.948C219.253 237.807 220.233 238.236 221.465 238.236ZM235.687 240.252C234.231 240.252 233.139 239.841 232.411 239.02C231.701 238.18 231.347 236.976 231.347 235.408V220.26H233.895V235.212C233.895 235.847 233.979 236.388 234.147 236.836C234.333 237.265 234.595 237.583 234.931 237.788C235.285 237.993 235.724 238.096 236.247 238.096C236.452 238.096 236.657 238.087 236.863 238.068C237.087 238.049 237.292 238.012 237.479 237.956L237.423 240.028C237.124 240.103 236.825 240.159 236.527 240.196C236.247 240.233 235.967 240.252 235.687 240.252ZM245.428 240.252C244.084 240.252 242.917 239.963 241.928 239.384C240.939 238.805 240.173 237.984 239.632 236.92C239.091 235.856 238.82 234.605 238.82 233.168C238.82 231.731 239.091 230.489 239.632 229.444C240.173 228.38 240.939 227.559 241.928 226.98C242.917 226.401 244.084 226.112 245.428 226.112C246.772 226.112 247.939 226.401 248.928 226.98C249.917 227.559 250.683 228.38 251.224 229.444C251.765 230.489 252.036 231.731 252.036 233.168C252.036 234.605 251.765 235.856 251.224 236.92C250.683 237.984 249.917 238.805 248.928 239.384C247.939 239.963 246.772 240.252 245.428 240.252ZM245.428 238.236C246.66 238.236 247.64 237.807 248.368 236.948C249.096 236.071 249.46 234.811 249.46 233.168C249.46 231.525 249.096 230.275 248.368 229.416C247.64 228.557 246.66 228.128 245.428 228.128C244.215 228.128 243.235 228.557 242.488 229.416C241.76 230.275 241.396 231.525 241.396 233.168C241.396 234.811 241.76 236.071 242.488 236.948C243.235 237.807 244.215 238.236 245.428 238.236ZM256.593 245.04L259.197 239.188V240.252L253.233 226.364H255.977L260.709 238.012H259.925L264.741 226.364H267.373L259.253 245.04H256.593ZM269.602 240V226.364H272.094V229.332H271.786C272.029 228.641 272.365 228.063 272.794 227.596C273.223 227.111 273.737 226.747 274.334 226.504C274.95 226.243 275.622 226.112 276.35 226.112C277.507 226.112 278.441 226.392 279.15 226.952C279.859 227.493 280.335 228.324 280.578 229.444H280.186C280.522 228.417 281.119 227.605 281.978 227.008C282.855 226.411 283.873 226.112 285.03 226.112C286.057 226.112 286.897 226.317 287.55 226.728C288.222 227.12 288.726 227.717 289.062 228.52C289.398 229.304 289.566 230.312 289.566 231.544V240H287.018V231.656C287.018 230.461 286.813 229.584 286.402 229.024C285.991 228.464 285.301 228.184 284.33 228.184C283.621 228.184 283.005 228.352 282.482 228.688C281.959 229.024 281.558 229.5 281.278 230.116C280.998 230.732 280.858 231.469 280.858 232.328V240H278.31V231.656C278.31 230.461 278.105 229.584 277.694 229.024C277.283 228.464 276.593 228.184 275.622 228.184C274.913 228.184 274.297 228.352 273.774 228.688C273.251 229.024 272.85 229.5 272.57 230.116C272.29 230.732 272.15 231.469 272.15 232.328V240H269.602ZM299.963 240.252C298.488 240.252 297.219 239.972 296.155 239.412C295.11 238.833 294.298 238.021 293.719 236.976C293.14 235.912 292.851 234.661 292.851 233.224C292.851 231.805 293.131 230.564 293.691 229.5C294.27 228.436 295.054 227.605 296.043 227.008C297.051 226.411 298.199 226.112 299.487 226.112C300.738 226.112 301.802 226.383 302.679 226.924C303.575 227.465 304.256 228.24 304.723 229.248C305.208 230.237 305.451 231.432 305.451 232.832V233.756H294.839V232.132H303.771L303.295 232.524C303.295 231.068 302.978 229.948 302.343 229.164C301.708 228.361 300.775 227.96 299.543 227.96C298.647 227.96 297.882 228.175 297.247 228.604C296.612 229.015 296.127 229.603 295.791 230.368C295.455 231.115 295.287 231.983 295.287 232.972V233.14C295.287 234.26 295.464 235.203 295.819 235.968C296.192 236.715 296.724 237.284 297.415 237.676C298.106 238.049 298.955 238.236 299.963 238.236C300.766 238.236 301.54 238.115 302.287 237.872C303.052 237.611 303.771 237.209 304.443 236.668L305.227 238.432C304.611 238.992 303.818 239.44 302.847 239.776C301.895 240.093 300.934 240.252 299.963 240.252ZM308.62 240V226.364H311.112V229.332H310.804C311.196 228.268 311.831 227.465 312.708 226.924C313.604 226.383 314.622 226.112 315.76 226.112C316.862 226.112 317.767 226.308 318.476 226.7C319.186 227.092 319.718 227.699 320.072 228.52C320.427 229.323 320.604 230.331 320.604 231.544V240H318.056V231.684C318.056 230.881 317.954 230.219 317.748 229.696C317.543 229.173 317.216 228.791 316.768 228.548C316.339 228.305 315.788 228.184 315.116 228.184C314.332 228.184 313.642 228.352 313.044 228.688C312.447 229.024 311.98 229.5 311.644 230.116C311.327 230.732 311.168 231.451 311.168 232.272V240H308.62ZM330.3 240.252C328.638 240.252 327.397 239.823 326.576 238.964C325.754 238.087 325.344 236.836 325.344 235.212V228.324H322.684V226.364H325.344V222.22H327.892V226.364H332.176V228.324H327.892V234.988C327.892 236.015 328.106 236.789 328.536 237.312C328.965 237.835 329.674 238.096 330.664 238.096C330.962 238.096 331.252 238.068 331.532 238.012C331.83 237.937 332.11 237.863 332.372 237.788L332.792 239.692C332.53 239.86 332.157 239.991 331.672 240.084C331.205 240.196 330.748 240.252 330.3 240.252Z" fill="black"/>
<path d="M450.707 231.707C451.098 231.317 451.098 230.683 450.707 230.293L444.343 223.929C443.953 223.538 443.319 223.538 442.929 223.929C442.538 224.319 442.538 224.953 442.929 225.343L448.586 231L442.929 236.657C442.538 237.047 442.538 237.681 442.929 238.071C443.319 238.462 443.953 238.462 444.343 238.071L450.707 231.707ZM447.643 230C447.091 230 446.643 230.448 446.643 231C446.643 231.552 447.091 232 447.643 232V230ZM442.929 232C443.481 232 443.929 231.552 443.929 231C443.929 230.448 443.481 230 442.929 230V232ZM438.214 230C437.662 230 437.214 230.448 437.214 231C437.214 231.552 437.662 232 438.214 232V230ZM433.5 232C434.052 232 434.5 231.552 434.5 231C434.5 230.448 434.052 230 433.5 230V232ZM428.786 230C428.233 230 427.786 230.448 427.786 231C427.786 231.552 428.233 232 428.786 232V230ZM424.071 232C424.624 232 425.071 231.552 425.071 231C425.071 230.448 424.624 230 424.071 230V232ZM419.357 230C418.805 230 418.357 230.448 418.357 231C418.357 231.552 418.805 232 419.357 232V230ZM414.643 232C415.195 232 415.643 231.552 415.643 231C415.643 230.448 415.195 230 414.643 230V232ZM409.929 230C409.376 230 408.929 230.448 408.929 231C408.929 231.552 409.376 232 409.929 232V230ZM405.214 232C405.767 232 406.214 231.552 406.214 231C406.214 230.448 405.767 230 405.214 230V232ZM400.5 230C399.948 230 399.5 230.448 399.5 231C399.5 231.552 399.948 232 400.5 232V230ZM395.786 232C396.338 232 396.786 231.552 396.786 231C396.786 230.448 396.338 230 395.786 230V232ZM391.071 230C390.519 230 390.071 230.448 390.071 231C390.071 231.552 390.519 232 391.071 232V230ZM386.357 232C386.909 232 387.357 231.552 387.357 231C387.357 230.448 386.909 230 386.357 230V232ZM450 230H447.643V232H450V230ZM442.929 230H438.214V232H442.929V230ZM433.5 230H428.786V232H433.5V230ZM424.071 230H419.357V232H424.071V230ZM414.643 230H409.929V232H414.643V230ZM405.214 230H400.5V232H405.214V230ZM395.786 230H391.071V232H395.786V230ZM386.357 230H384V232H386.357V230ZM450.707 231.707C451.098 231.317 451.098 230.683 450.707 230.293L444.343 223.929C443.953 223.538 443.319 223.538 442.929 223.929C442.538 224.319 442.538 224.953 442.929 225.343L448.586 231L442.929 236.657C442.538 237.047 442.538 237.681 442.929 238.071C443.319 238.462 443.953 238.462 444.343 238.071L450.707 231.707ZM447.643 230C447.091 230 446.643 230.448 446.643 231C446.643 231.552 447.091 232 447.643 232V230ZM442.929 232C443.481 232 443.929 231.552 443.929 231C443.929 230.448 443.481 230 442.929 230V232ZM438.214 230C437.662 230 437.214 230.448 437.214 231C437.214 231.552 437.662 232 438.214 232V230ZM433.5 232C434.052 232 434.5 231.552 434.5 231C434.5 230.448 434.052 230 433.5 230V232ZM428.786 230C428.233 230 427.786 230.448 427.786 231C427.786 231.552 428.233 232 428.786 232V230ZM424.071 232C424.624 232 425.071 231.552 425.071 231C425.071 230.448 424.624 230 424.071 230V232ZM419.357 230C418.805 230 418.357 230.448 418.357 231C418.357 231.552 418.805 232 419.357 232V230ZM414.643 232C415.195 232 415.643 231.552 415.643 231C415.643 230.448 415.195 230 414.643 230V232ZM409.929 230C409.376 230 408.929 230.448 408.929 231C408.929 231.552 409.376 232 409.929 232V230ZM405.214 232C405.767 232 406.214 231.552 406.214 231C406.214 230.448 405.767 230 405.214 230V232ZM400.5 230C399.948 230 399.5 230.448 399.5 231C399.5 231.552 399.948 232 400.5 232V230ZM395.786 232C396.338 232 396.786 231.552 396.786 231C396.786 230.448 396.338 230 395.786 230V232ZM391.071 230C390.519 230 390.071 230.448 390.071 231C390.071 231.552 390.519 232 391.071 232V230ZM386.357 232C386.909 232 387.357 231.552 387.357 231C387.357 230.448 386.909 230 386.357 230V232ZM450 230H447.643V232H450V230ZM442.929 230H438.214V232H442.929V230ZM433.5 230H428.786V232H433.5V230ZM424.071 230H419.357V232H424.071V230ZM414.643 230H409.929V232H414.643V230ZM405.214 230H400.5V232H405.214V230ZM395.786 230H391.071V232H395.786V230ZM386.357 230H384V232H386.357V230Z" fill="#292449"/>
<path d="M880.707 231.707C881.098 231.317 881.098 230.683 880.707 230.293L874.343 223.929C873.953 223.538 873.319 223.538 872.929 223.929C872.538 224.319 872.538 224.953 872.929 225.343L878.586 231L872.929 236.657C872.538 237.047 872.538 237.681 872.929 238.071C873.319 238.462 873.953 238.462 874.343 238.071L880.707 231.707ZM877.643 230C877.091 230 876.643 230.448 876.643 231C876.643 231.552 877.091 232 877.643 232V230ZM872.929 232C873.481 232 873.929 231.552 873.929 231C873.929 230.448 873.481 230 872.929 230V232ZM868.214 230C867.662 230 867.214 230.448 867.214 231C867.214 231.552 867.662 232 868.214 232V230ZM863.5 232C864.052 232 864.5 231.552 864.5 231C864.5 230.448 864.052 230 863.5 230V232ZM858.786 230C858.233 230 857.786 230.448 857.786 231C857.786 231.552 858.233 232 858.786 232V230ZM854.071 232C854.624 232 855.071 231.552 855.071 231C855.071 230.448 854.624 230 854.071 230V232ZM849.357 230C848.805 230 848.357 230.448 848.357 231C848.357 231.552 848.805 232 849.357 232V230ZM844.643 232C845.195 232 845.643 231.552 845.643 231C845.643 230.448 845.195 230 844.643 230V232ZM839.929 230C839.376 230 838.929 230.448 838.929 231C838.929 231.552 839.376 232 839.929 232V230ZM835.214 232C835.767 232 836.214 231.552 836.214 231C836.214 230.448 835.767 230 835.214 230V232ZM830.5 230C829.948 230 829.5 230.448 829.5 231C829.5 231.552 829.948 232 830.5 232V230ZM825.786 232C826.338 232 826.786 231.552 826.786 231C826.786 230.448 826.338 230 825.786 230V232ZM821.071 230C820.519 230 820.071 230.448 820.071 231C820.071 231.552 820.519 232 821.071 232V230ZM816.357 232C816.909 232 817.357 231.552 817.357 231C817.357 230.448 816.909 230 816.357 230V232ZM880 230H877.643V232H880V230ZM872.929 230H868.214V232H872.929V230ZM863.5 230H858.786V232H863.5V230ZM854.071 230H849.357V232H854.071V230ZM844.643 230H839.929V232H844.643V230ZM835.214 230H830.5V232H835.214V230ZM825.786 230H821.071V232H825.786V230ZM816.357 230H814V232H816.357V230ZM880.707 231.707C881.098 231.317 881.098 230.683 880.707 230.293L874.343 223.929C873.953 223.538 873.319 223.538 872.929 223.929C872.538 224.319 872.538 224.953 872.929 225.343L878.586 231L872.929 236.657C872.538 237.047 872.538 237.681 872.929 238.071C873.319 238.462 873.953 238.462 874.343 238.071L880.707 231.707ZM877.643 230C877.091 230 876.643 230.448 876.643 231C876.643 231.552 877.091 232 877.643 232V230ZM872.929 232C873.481 232 873.929 231.552 873.929 231C873.929 230.448 873.481 230 872.929 230V232ZM868.214 230C867.662 230 867.214 230.448 867.214 231C867.214 231.552 867.662 232 868.214 232V230ZM863.5 232C864.052 232 864.5 231.552 864.5 231C864.5 230.448 864.052 230 863.5 230V232ZM858.786 230C858.233 230 857.786 230.448 857.786 231C857.786 231.552 858.233 232 858.786 232V230ZM854.071 232C854.624 232 855.071 231.552 855.071 231C855.071 230.448 854.624 230 854.071 230V232ZM849.357 230C848.805 230 848.357 230.448 848.357 231C848.357 231.552 848.805 232 849.357 232V230ZM844.643 232C845.195 232 845.643 231.552 845.643 231C845.643 230.448 845.195 230 844.643 230V232ZM839.929 230C839.376 230 838.929 230.448 838.929 231C838.929 231.552 839.376 232 839.929 232V230ZM835.214 232C835.767 232 836.214 231.552 836.214 231C836.214 230.448 835.767 230 835.214 230V232ZM830.5 230C829.948 230 829.5 230.448 829.5 231C829.5 231.552 829.948 232 830.5 232V230ZM825.786 232C826.338 232 826.786 231.552 826.786 231C826.786 230.448 826.338 230 825.786 230V232ZM821.071 230C820.519 230 820.071 230.448 820.071 231C820.071 231.552 820.519 232 821.071 232V230ZM816.357 232C816.909 232 817.357 231.552 817.357 231C817.357 230.448 816.909 230 816.357 230V232ZM880 230H877.643V232H880V230ZM872.929 230H868.214V232H872.929V230ZM863.5 230H858.786V232H863.5V230ZM854.071 230H849.357V232H854.071V230ZM844.643 230H839.929V232H844.643V230ZM835.214 230H830.5V232H835.214V230ZM825.786 230H821.071V232H825.786V230ZM816.357 230H814V232H816.357V230Z" fill="#292449"/>
<rect x="454" y="177" width="358" height="108" rx="9" fill="white" stroke="url(#paint1_linear_466_101)" stroke-width="2"/>
<path d="M561.485 240V220.26H563.669L571.537 235.016H570.669L578.509 220.26H580.665V240H578.313V223.872H578.929L571.901 236.976H570.277L563.165 223.844H563.837V240H561.485ZM589.468 240.252C588.535 240.252 587.685 240.065 586.92 239.692C586.173 239.319 585.585 238.815 585.156 238.18C584.745 237.545 584.54 236.836 584.54 236.052C584.54 235.044 584.792 234.251 585.296 233.672C585.8 233.093 586.649 232.683 587.844 232.44C589.039 232.179 590.644 232.048 592.66 232.048H593.976V233.672H592.716C591.633 233.672 590.728 233.709 590 233.784C589.272 233.859 588.693 233.98 588.264 234.148C587.835 234.316 587.527 234.549 587.34 234.848C587.153 235.128 587.06 235.483 587.06 235.912C587.06 236.64 587.312 237.237 587.816 237.704C588.339 238.171 589.048 238.404 589.944 238.404C590.653 238.404 591.279 238.236 591.82 237.9C592.361 237.545 592.791 237.079 593.108 236.5C593.425 235.903 593.584 235.221 593.584 234.456V231.236C593.584 230.135 593.36 229.341 592.912 228.856C592.464 228.352 591.708 228.1 590.644 228.1C589.86 228.1 589.076 228.221 588.292 228.464C587.527 228.707 586.733 229.08 585.912 229.584L585.1 227.764C585.585 227.428 586.136 227.139 586.752 226.896C587.387 226.635 588.04 226.439 588.712 226.308C589.403 226.177 590.065 226.112 590.7 226.112C591.913 226.112 592.912 226.308 593.696 226.7C594.48 227.073 595.068 227.661 595.46 228.464C595.852 229.248 596.048 230.256 596.048 231.488V240H593.64V236.892H593.892C593.743 237.583 593.463 238.18 593.052 238.684C592.641 239.188 592.128 239.58 591.512 239.86C590.915 240.121 590.233 240.252 589.468 240.252ZM605.966 240.252C604.584 240.252 603.39 239.963 602.382 239.384C601.374 238.787 600.599 237.956 600.058 236.892C599.516 235.809 599.246 234.54 599.246 233.084C599.246 231.647 599.516 230.405 600.058 229.36C600.599 228.315 601.374 227.512 602.382 226.952C603.39 226.392 604.584 226.112 605.966 226.112C606.824 226.112 607.664 226.261 608.486 226.56C609.326 226.859 610.016 227.279 610.558 227.82L609.718 229.612C609.176 229.127 608.588 228.763 607.954 228.52C607.319 228.277 606.712 228.156 606.134 228.156C604.771 228.156 603.716 228.585 602.97 229.444C602.223 230.303 601.85 231.525 601.85 233.112C601.85 234.699 602.223 235.949 602.97 236.864C603.716 237.76 604.771 238.208 606.134 238.208C606.712 238.208 607.319 238.087 607.954 237.844C608.588 237.601 609.176 237.228 609.718 236.724L610.558 238.544C610.016 239.085 609.316 239.505 608.458 239.804C607.618 240.103 606.787 240.252 605.966 240.252ZM613.073 240V220.26H615.621V229.332H615.257C615.649 228.268 616.284 227.465 617.161 226.924C618.057 226.383 619.075 226.112 620.213 226.112C621.315 226.112 622.22 226.317 622.929 226.728C623.639 227.12 624.171 227.717 624.525 228.52C624.88 229.323 625.057 230.331 625.057 231.544V240H622.509V231.684C622.509 230.881 622.407 230.219 622.201 229.696C621.996 229.173 621.669 228.791 621.221 228.548C620.792 228.305 620.241 228.184 619.569 228.184C618.785 228.184 618.095 228.352 617.497 228.688C616.9 229.024 616.433 229.5 616.097 230.116C615.78 230.732 615.621 231.451 615.621 232.272V240H613.073ZM628.845 223.088V220.344H631.897V223.088H628.845ZM629.097 240V226.364H631.645V240H629.097ZM635.741 240V226.364H638.233V229.332H637.925C638.317 228.268 638.952 227.465 639.829 226.924C640.725 226.383 641.743 226.112 642.881 226.112C643.983 226.112 644.888 226.308 645.597 226.7C646.307 227.092 646.839 227.699 647.193 228.52C647.548 229.323 647.725 230.331 647.725 231.544V240H645.177V231.684C645.177 230.881 645.075 230.219 644.869 229.696C644.664 229.173 644.337 228.791 643.889 228.548C643.46 228.305 642.909 228.184 642.237 228.184C641.453 228.184 640.763 228.352 640.165 228.688C639.568 229.024 639.101 229.5 638.765 230.116C638.448 230.732 638.289 231.451 638.289 232.272V240H635.741ZM658.065 240.252C656.59 240.252 655.321 239.972 654.257 239.412C653.211 238.833 652.399 238.021 651.821 236.976C651.242 235.912 650.953 234.661 650.953 233.224C650.953 231.805 651.233 230.564 651.793 229.5C652.371 228.436 653.155 227.605 654.145 227.008C655.153 226.411 656.301 226.112 657.589 226.112C658.839 226.112 659.903 226.383 660.781 226.924C661.677 227.465 662.358 228.24 662.825 229.248C663.31 230.237 663.553 231.432 663.553 232.832V233.756H652.941V232.132H661.873L661.397 232.524C661.397 231.068 661.079 229.948 660.445 229.164C659.81 228.361 658.877 227.96 657.645 227.96C656.749 227.96 655.983 228.175 655.349 228.604C654.714 229.015 654.229 229.603 653.893 230.368C653.557 231.115 653.389 231.983 653.389 232.972V233.14C653.389 234.26 653.566 235.203 653.921 235.968C654.294 236.715 654.826 237.284 655.517 237.676C656.207 238.049 657.057 238.236 658.065 238.236C658.867 238.236 659.642 238.115 660.389 237.872C661.154 237.611 661.873 237.209 662.545 236.668L663.329 238.432C662.713 238.992 661.919 239.44 660.949 239.776C659.997 240.093 659.035 240.252 658.065 240.252ZM673.526 240.252C672.499 240.252 671.528 240.168 670.614 240C669.699 239.813 668.859 239.552 668.094 239.216C667.328 238.861 666.638 238.432 666.022 237.928L666.918 235.856C667.534 236.323 668.178 236.724 668.85 237.06C669.522 237.377 670.24 237.62 671.006 237.788C671.771 237.937 672.611 238.012 673.526 238.012C675.168 238.012 676.372 237.713 677.138 237.116C677.922 236.519 678.314 235.735 678.314 234.764C678.314 234.223 678.192 233.765 677.95 233.392C677.707 233.019 677.315 232.701 676.774 232.44C676.232 232.179 675.523 231.964 674.646 231.796L671.678 231.18C669.923 230.807 668.607 230.191 667.73 229.332C666.871 228.473 666.442 227.325 666.442 225.888C666.442 224.712 666.75 223.685 667.366 222.808C668 221.912 668.859 221.221 669.942 220.736C671.043 220.251 672.312 220.008 673.75 220.008C674.646 220.008 675.495 220.101 676.298 220.288C677.1 220.456 677.847 220.727 678.538 221.1C679.228 221.455 679.835 221.893 680.358 222.416L679.49 224.404C678.668 223.657 677.791 223.116 676.858 222.78C675.924 222.425 674.879 222.248 673.722 222.248C672.77 222.248 671.939 222.397 671.23 222.696C670.539 222.995 669.998 223.415 669.606 223.956C669.232 224.479 669.046 225.095 669.046 225.804C669.046 226.663 669.307 227.335 669.83 227.82C670.352 228.305 671.23 228.679 672.462 228.94L675.402 229.528C677.268 229.92 678.65 230.527 679.546 231.348C680.46 232.151 680.918 233.233 680.918 234.596C680.918 235.716 680.619 236.705 680.022 237.564C679.424 238.404 678.566 239.067 677.446 239.552C676.344 240.019 675.038 240.252 673.526 240.252ZM690.33 240.252C688.856 240.252 687.586 239.972 686.522 239.412C685.477 238.833 684.665 238.021 684.086 236.976C683.508 235.912 683.218 234.661 683.218 233.224C683.218 231.805 683.498 230.564 684.058 229.5C684.637 228.436 685.421 227.605 686.41 227.008C687.418 226.411 688.566 226.112 689.854 226.112C691.105 226.112 692.169 226.383 693.046 226.924C693.942 227.465 694.624 228.24 695.09 229.248C695.576 230.237 695.818 231.432 695.818 232.832V233.756H685.206V232.132H694.138L693.662 232.524C693.662 231.068 693.345 229.948 692.71 229.164C692.076 228.361 691.142 227.96 689.91 227.96C689.014 227.96 688.249 228.175 687.614 228.604C686.98 229.015 686.494 229.603 686.158 230.368C685.822 231.115 685.654 231.983 685.654 232.972V233.14C685.654 234.26 685.832 235.203 686.186 235.968C686.56 236.715 687.092 237.284 687.782 237.676C688.473 238.049 689.322 238.236 690.33 238.236C691.133 238.236 691.908 238.115 692.654 237.872C693.42 237.611 694.138 237.209 694.81 236.668L695.594 238.432C694.978 238.992 694.185 239.44 693.214 239.776C692.262 240.093 691.301 240.252 690.33 240.252ZM704.616 240.252C702.955 240.252 701.713 239.823 700.892 238.964C700.071 238.087 699.66 236.836 699.66 235.212V228.324H697V226.364H699.66V222.22H702.208V226.364H706.492V228.324H702.208V234.988C702.208 236.015 702.423 236.789 702.852 237.312C703.281 237.835 703.991 238.096 704.98 238.096C705.279 238.096 705.568 238.068 705.848 238.012C706.147 237.937 706.427 237.863 706.688 237.788L707.108 239.692C706.847 239.86 706.473 239.991 705.988 240.084C705.521 240.196 705.064 240.252 704.616 240.252Z" fill="black"/>
<rect x="884" y="177" width="358" height="108" rx="9" fill="white" stroke="url(#paint2_linear_466_101)" stroke-width="2"/>
<path d="M1012.62 240V220.26H1014.81L1022.67 235.016H1021.81L1029.65 220.26H1031.8V240H1029.45V223.872H1030.07L1023.04 236.976H1021.41L1014.3 223.844H1014.97V240H1012.62ZM1040.6 240.252C1039.67 240.252 1038.82 240.065 1038.06 239.692C1037.31 239.319 1036.72 238.815 1036.29 238.18C1035.88 237.545 1035.68 236.836 1035.68 236.052C1035.68 235.044 1035.93 234.251 1036.43 233.672C1036.94 233.093 1037.79 232.683 1038.98 232.44C1040.18 232.179 1041.78 232.048 1043.8 232.048H1045.11V233.672H1043.85C1042.77 233.672 1041.86 233.709 1041.14 233.784C1040.41 233.859 1039.83 233.98 1039.4 234.148C1038.97 234.316 1038.66 234.549 1038.48 234.848C1038.29 235.128 1038.2 235.483 1038.2 235.912C1038.2 236.64 1038.45 237.237 1038.95 237.704C1039.48 238.171 1040.18 238.404 1041.08 238.404C1041.79 238.404 1042.42 238.236 1042.96 237.9C1043.5 237.545 1043.93 237.079 1044.24 236.5C1044.56 235.903 1044.72 235.221 1044.72 234.456V231.236C1044.72 230.135 1044.5 229.341 1044.05 228.856C1043.6 228.352 1042.84 228.1 1041.78 228.1C1041 228.1 1040.21 228.221 1039.43 228.464C1038.66 228.707 1037.87 229.08 1037.05 229.584L1036.24 227.764C1036.72 227.428 1037.27 227.139 1037.89 226.896C1038.52 226.635 1039.18 226.439 1039.85 226.308C1040.54 226.177 1041.2 226.112 1041.84 226.112C1043.05 226.112 1044.05 226.308 1044.83 226.7C1045.62 227.073 1046.2 227.661 1046.6 228.464C1046.99 229.248 1047.18 230.256 1047.18 231.488V240H1044.78V236.892H1045.03C1044.88 237.583 1044.6 238.18 1044.19 238.684C1043.78 239.188 1043.26 239.58 1042.65 239.86C1042.05 240.121 1041.37 240.252 1040.6 240.252ZM1057.1 240.252C1055.72 240.252 1054.53 239.963 1053.52 239.384C1052.51 238.787 1051.74 237.956 1051.19 236.892C1050.65 235.809 1050.38 234.54 1050.38 233.084C1050.38 231.647 1050.65 230.405 1051.19 229.36C1051.74 228.315 1052.51 227.512 1053.52 226.952C1054.53 226.392 1055.72 226.112 1057.1 226.112C1057.96 226.112 1058.8 226.261 1059.62 226.56C1060.46 226.859 1061.15 227.279 1061.69 227.82L1060.85 229.612C1060.31 229.127 1059.73 228.763 1059.09 228.52C1058.46 228.277 1057.85 228.156 1057.27 228.156C1055.91 228.156 1054.85 228.585 1054.11 229.444C1053.36 230.303 1052.99 231.525 1052.99 233.112C1052.99 234.699 1053.36 235.949 1054.11 236.864C1054.85 237.76 1055.91 238.208 1057.27 238.208C1057.85 238.208 1058.46 238.087 1059.09 237.844C1059.73 237.601 1060.31 237.228 1060.85 236.724L1061.69 238.544C1061.15 239.085 1060.45 239.505 1059.59 239.804C1058.75 240.103 1057.92 240.252 1057.1 240.252ZM1064.21 240V220.26H1066.76V229.332H1066.39C1066.79 228.268 1067.42 227.465 1068.3 226.924C1069.19 226.383 1070.21 226.112 1071.35 226.112C1072.45 226.112 1073.36 226.317 1074.07 226.728C1074.78 227.12 1075.31 227.717 1075.66 228.52C1076.02 229.323 1076.19 230.331 1076.19 231.544V240H1073.65V231.684C1073.65 230.881 1073.54 230.219 1073.34 229.696C1073.13 229.173 1072.81 228.791 1072.36 228.548C1071.93 228.305 1071.38 228.184 1070.71 228.184C1069.92 228.184 1069.23 228.352 1068.63 228.688C1068.04 229.024 1067.57 229.5 1067.23 230.116C1066.92 230.732 1066.76 231.451 1066.76 232.272V240H1064.21ZM1079.98 223.088V220.344H1083.03V223.088H1079.98ZM1080.23 240V226.364H1082.78V240H1080.23ZM1086.88 240V226.364H1089.37V229.332H1089.06C1089.45 228.268 1090.09 227.465 1090.97 226.924C1091.86 226.383 1092.88 226.112 1094.02 226.112C1095.12 226.112 1096.02 226.308 1096.73 226.7C1097.44 227.092 1097.98 227.699 1098.33 228.52C1098.68 229.323 1098.86 230.331 1098.86 231.544V240H1096.31V231.684C1096.31 230.881 1096.21 230.219 1096.01 229.696C1095.8 229.173 1095.47 228.791 1095.03 228.548C1094.6 228.305 1094.05 228.184 1093.37 228.184C1092.59 228.184 1091.9 228.352 1091.3 228.688C1090.7 229.024 1090.24 229.5 1089.9 230.116C1089.58 230.732 1089.43 231.451 1089.43 232.272V240H1086.88ZM1109.2 240.252C1107.73 240.252 1106.46 239.972 1105.39 239.412C1104.35 238.833 1103.54 238.021 1102.96 236.976C1102.38 235.912 1102.09 234.661 1102.09 233.224C1102.09 231.805 1102.37 230.564 1102.93 229.5C1103.51 228.436 1104.29 227.605 1105.28 227.008C1106.29 226.411 1107.44 226.112 1108.73 226.112C1109.98 226.112 1111.04 226.383 1111.92 226.924C1112.81 227.465 1113.49 228.24 1113.96 229.248C1114.45 230.237 1114.69 231.432 1114.69 232.832V233.756H1104.08V232.132H1113.01L1112.53 232.524C1112.53 231.068 1112.22 229.948 1111.58 229.164C1110.95 228.361 1110.01 227.96 1108.78 227.96C1107.89 227.96 1107.12 228.175 1106.49 228.604C1105.85 229.015 1105.37 229.603 1105.03 230.368C1104.69 231.115 1104.53 231.983 1104.53 232.972V233.14C1104.53 234.26 1104.7 235.203 1105.06 235.968C1105.43 236.715 1105.96 237.284 1106.65 237.676C1107.34 238.049 1108.19 238.236 1109.2 238.236C1110 238.236 1110.78 238.115 1111.53 237.872C1112.29 237.611 1113.01 237.209 1113.68 236.668L1114.47 238.432C1113.85 238.992 1113.06 239.44 1112.09 239.776C1111.13 240.093 1110.17 240.252 1109.2 240.252Z" fill="black"/>
<defs>
<linearGradient id="paint0_linear_466_101" x1="22" y1="176" x2="114.683" y2="391.068" gradientUnits="userSpaceOnUse">
<stop stop-color="#0185FF"/>
<stop offset="1" stop-color="#01CDFF"/>
</linearGradient>
<linearGradient id="paint1_linear_466_101" x1="453" y1="176" x2="545.683" y2="391.068" gradientUnits="userSpaceOnUse">
<stop stop-color="#0185FF"/>
<stop offset="1" stop-color="#01CDFF"/>
</linearGradient>
<linearGradient id="paint2_linear_466_101" x1="883" y1="176" x2="975.683" y2="391.068" gradientUnits="userSpaceOnUse">
<stop stop-color="#0185FF"/>
<stop offset="1" stop-color="#01CDFF"/>
</linearGradient>
</defs>
</svg>
