<svg id="Layer_1" data-name="Layer 1" xmlns="http://www.w3.org/2000/svg" viewBox="0 0 215 127"><defs><style>.cls-1{fill:transparent;}.cls-2{fill:#091c5a;}.cls-2,.cls-3,.cls-4{fill-rule:evenodd;}.cls-3{fill:#fff;}.cls-4{fill:#f60;}</style></defs><title>kubernetes.io-logos</title><rect class="cls-1" x="-3.55202" y="-3.16104" width="223.25536" height="134.51136"/><g id="Layer_1-2" data-name="Layer 1"><g id="g9"><g id="g11"><path id="path13" class="cls-2" d="M16.12,50.174a4.0335,4.0335,0,0,1,2.95108.89221c.671.6703.97142,1.7775.97142,3.5895V77.28841c0,3.13191-.6572,4.52885-4.536,4.52885h-.53175v1.38889H32.40618v-1.382l-.526-.0069c-3.84194-.046-4.48994-1.43489-4.48994-4.52885V54.65451c0-1.80625.29926-2.90885.97027-3.578a4.09567,4.09567,0,0,1,3.00288-.9037H32.405V48.76436H14.97474V50.1728H16.12Z"/><path id="path15" class="cls-2" d="M71.87064,71.6604a19.39223,19.39223,0,0,1-.34644-2.20406V59.119c-.06791-6.02811.755-9.02895-4.521-9.00595v-1.3544h12.137V50.113c-5.43373-.02185-4.75,2.979-4.78112,9.00595V83.25674l-1.72761-.0184L46.42269,55.8399a19.991,19.991,0,0,1,.33839,2.20291V74.97052c-.14848,6.17529.61691,6.92147,4.59927,6.849V83.2303H38.70774V81.81956c3.98811.0046,4.77192-.52543,4.76732-7.35262V58.19228l-.03223-2.64786c.14848-3.42739-1.11874-5.4153-4.98715-5.38311V48.80576h11.649Z"/><path id="path17" class="cls-2" d="M115.80547,48.101H114.468l-.06216.4576c-.09093.68295-.36025,1.82695-1.13945,1.82695a4.00888,4.00888,0,0,1-1.39959-.38977,24.64235,24.64235,0,0,0-9.17553-1.89478,20.48871,20.48871,0,0,0-14.69558,5.797,18.33213,18.33213,0,0,0-5.26915,13.16459A15.46005,15.46005,0,0,0,88.5551,79.24068c3.92826,3.35725,8.32957,4.78869,14.72551,4.78869a23.797,23.797,0,0,0,13.0589-3.27448l.81949-.4438V71.27984c0-3.84935.4719-4.44837,3.60715-4.57484l.50988-.01955V65.3437H105.95892v1.34175l.50988.01955c3.492.13567,4.15155.76113,4.15155,3.94363v8.369a11.54506,11.54506,0,0,1-6.84827,2.35583,12.59683,12.59683,0,0,1-9.042-3.75277c-2.81182-2.81112-4.18378-6.90537-4.18378-11.53195,0-4.98414,1.32822-9.2359,4.06522-11.9677a11.60427,11.60427,0,0,1,8.37331-3.38485,15.00838,15.00838,0,0,1,8.72321,3.125,10.23544,10.23544,0,0,1,3.64972,5.57282l.11395.37826h1.3075Z"/></g><g id="g19"><path id="path21" class="cls-3" d="M182.89436,83.113a4.21534,4.21534,0,0,0,2.43431-.73239,11.18164,11.18164,0,0,0,8.05563-1.85224,16.83129,16.83129,0,0,0,3.1341-3.29172,11.8419,11.8419,0,0,0,1.75752-3.271,15.19659,15.19659,0,0,0,.69519-2.30179,21.86771,21.86771,0,0,0-.8264-11.448,20.30835,20.30835,0,0,0-.75274-1.90513c-1.517-3.13191-3.58182-6.511-6.76079-8.492a13.57171,13.57171,0,0,1-4.45081-4.62773c-.55016-.49439-1.07731-1.14974-1.7886-1.26817a2.74406,2.74406,0,0,1,.46154,1.00948l-.04143.05289a2.62023,2.62023,0,0,1-1.86343-.86l.56973-.51624a3.05131,3.05131,0,0,0-.69979-.2058c-2.1742-.2472-3.96279.75538-5.89182,1.23827l-.02993.10693c1.18436.52659,1.43181,1.8304,2.12124,2.71225.17034-.20465.46154-.05519.69979-.07358.34414.01954.66757.26789,1.00134.18051a3.16388,3.16388,0,0,0-.20372-.77378,1.44144,1.44144,0,0,1,.67906,0c.62384.36447,1.624-.06439,2.013.77378a11.7115,11.7115,0,0,0-2.04642.35642c.04373.269.31307.48289.2912.75308a6.757,6.757,0,0,0-1.81047-.46105l-.03223.09543a6.23063,6.23063,0,0,0,3.04892,1.8396c1.62747.376,3.05929-.39781,4.63035-.12877a18.02291,18.02291,0,0,1,8.58624,9.63257c.07022.184.13811.37021.20143.55992a18.61636,18.61636,0,0,1,.22558,11.448,14.0279,14.0279,0,0,1-2.47343,4.18393,8.56677,8.56677,0,0,1-1.41225,1.38889,6.34321,6.34321,0,0,1-5.66623,1.24978c-.12891-.08853-.38788-.11038-.34413-.33458.07135-.30009.13811-.60362.19682-.9152a22.67024,22.67024,0,0,0,.40629-5.42795l-.00691-.2357a20.75277,20.75277,0,0,0-1.62861-7.38137,25.6873,25.6873,0,0,0-2.3215-4.0678,9.63728,9.63728,0,0,0-4.315-3.54926,3.23412,3.23412,0,0,0-3.28488.568,2.213,2.213,0,0,0-.75388,1.98216,6.78122,6.78122,0,0,1-3.10187.99913,8.50841,8.50841,0,0,1-.85057.123,4.7694,4.7694,0,0,1-.80337-.031,7.96716,7.96716,0,0,1-3.79245-1.743c-.02186-.55992-.05409-1.08651-.07595-1.67862a2.02344,2.02344,0,0,1-1.14061-1.6039l.053-.05289a4.569,4.569,0,0,1,.95875.46105,7.11353,7.11353,0,0,0-.72052-2.39952c-.389-.16211-.77691-.29089-1.14176-.48519a1.835,1.835,0,0,1-.75275-1.24633c.37637.36562,1.03243.23685,1.32361.62317-.50757-1.49582-.51563-3.20665-1.34663-4.57369-.42011-1.01063-1.51929-1.474-2.27317-2.21556-.29121-.35643-.40859-.85082-.93575-.906-.43161-.10693-.46384-.58982-.53865-.9037.26817.03219.49376.215.71935.25754-.62383-1.65449-1.174-3.49638-2.86362-4.55069l-.29.18395a18.30869,18.30869,0,0,1-2.0142.16212,2.77577,2.77577,0,0,1,1.21658-.80942,2.89527,2.89527,0,0,0-1.45713-.53578,3.02238,3.02238,0,0,1-1.40879.61281l-.05525-.04369c-.0115-.38746-.099-.86.48457-.95774a3.37957,3.37957,0,0,0-2.06024,0c-.16.41966-.62268.79678-.5893,1.29347a8.8185,8.8185,0,0,1-.91617,1.05431,9.93175,9.93175,0,0,1,.49377-2.29144c-.48456.18281-.97717.4415-1.45253.66685a19.90355,19.90355,0,0,0-2.38711-1.21643c-.07366-.03219-.2371-.06324-.20487.07588.70094.50474.42931,1.45328.50413,2.17187l-.442-.36447c-.21522-.54842-.83675-.94624-.94379-1.5487a8.2112,8.2112,0,0,0-1.88069.62431l-.09323.054a1.51447,1.51447,0,0,1,1.1832.79677,13.90309,13.90309,0,0,1-2.1972-.33573c-.07482-.07358-.14042-.16211-.259-.15061a4.08844,4.08844,0,0,0-1.03242.66685,7.23207,7.23207,0,0,0-1.85306,2.50875,1.62555,1.62555,0,0,1,.74353.18166c-.4086.24719-.76425.668-1.16248.9037a9.91065,9.91065,0,0,0-.15194,1.80855,7.96249,7.96249,0,0,0-.93574,1.42223,21.07216,21.07216,0,0,0-.74353,7.01345c-.21639.20581-.49722.33573-.69979.49669l.02186,2.19372h.05294c.09669-.461.64685-.71859.98063-1.03132h.10819c-.05409.49439-.11854.98993-.12891,1.49582l-.62382.51623c-.62613.54958-.09783,1.3774-.15078,2.06724.04374.18051.07367.45071.20373.4944a2.93668,2.93668,0,0,1,.46384-.7002c.26818-.06323.50528-.28054.75273-.31043a11.63258,11.63258,0,0,1-.53865,1.5809,1.82648,1.82648,0,0,0-.328.269.78186.78186,0,0,0-.22214.39781,48.97679,48.97679,0,0,0,2.12009,7.46645c-.59045,1.00143-.92653,2.17992-1.41915,3.21354-.07136.14372-.13466.292-.19336.4415-.49492,1.25093-.64569,2.65017-1.26147,3.85165a4.53928,4.53928,0,0,0-.79647-.41966,3.24358,3.24358,0,0,0-3.36083.75423,2.87922,2.87922,0,0,0-2.12354.38747,2.8125,2.8125,0,0,0-.9415,1.14975,2.33057,2.33057,0,0,0-.168,1.02442,2.47566,2.47566,0,0,0-.90352,1.3659,4.24846,4.24846,0,0,0,.85057,3.26527h53.6893Z"/><path id="path23" class="cls-3" d="M175.76409,58.91892c-.0115.27939-.21522.59327-.03222.829.259-.29089.69058-.28054,1.03472-.40816a8.4945,8.4945,0,0,1,2.76694.43115c-.22445-.35642-.37636-.75193-.62383-1.07616-.49723-.12877-1.25.215-1.33513-.51624-.30271-.25869-.77805-.07358-1.08768-.05518a2.442,2.442,0,0,0-.72281.79562Z"/><path id="path25" class="cls-3" d="M142.84405,49.629a.04228.04228,0,0,0-.01611-.01034l.0023.01034Z"/><path id="path27" class="cls-3" d="M146.75965,59.19256l.64684-.62316a.14234.14234,0,0,1,.12891.05519l-.05409,1.19343a1.68138,1.68138,0,0,0,1.10838.40931c.03338-.32308.28084-.54843.42125-.829.11855-.22535.04374-.55993.27968-.72205l.07367.07589a3.54473,3.54473,0,0,0,.2394,1.06466c.02187.17132.05294.38747.07367.53808a2.68832,2.68832,0,0,0,1.27066-.27938,4.897,4.897,0,0,1,.18185-1.11986c.099-.12992-.11854-.36562.15194-.35412.15077.32193.4201.65536.57088.99913a4.21056,4.21056,0,0,0,1.03357-2.32249c-.18185-.24949-.46269-.24949-.67907-.40931a8.10663,8.10663,0,0,0-5.94706.20351A2.76264,2.76264,0,0,0,146.75965,59.19256Z"/><path id="path29" class="cls-3" d="M129.64243,79.38439a16.69073,16.69073,0,0,0,.05179,2.42482,1.24434,1.24434,0,0,0,.79648.60362l.0564-.54958c.12776-.76573-.28084-1.57745.15077-2.22246a5.29213,5.29213,0,0,1,.86208.38747,1.88411,1.88411,0,0,0-.73317-1.96837Z"/><path id="path31" class="cls-3" d="M132.30117,78.2243a6.31616,6.31616,0,0,0-.22444,4.13564,4.69785,4.69785,0,0,0,.84827-.645,4.47782,4.47782,0,0,1,.40974-2.933,1.90626,1.90626,0,0,1,1.08767,1.16354,1.99076,1.99076,0,0,0,.33493-1.68093c.02187-.47139-.51908-.36332-.7769-.55877.08747-.39782.07481-.85887.49606-1.08422l-1.29254.12878A6.117,6.117,0,0,0,132.30117,78.2243Z"/><path id="path33" class="cls-3" d="M134.96221,81.93913c.05524.09888,0,.269.10819.29088.16229-.90255.89431-1.48892,1.29369-2.28454.19222-.269.1807-.64616.49377-.85082.42125,0,.72281.30239,1.13256.33458.1289.09658-.06676.18166-.076.28859a10.64931,10.64931,0,0,0-.31192,2.09253h.07367a10.88639,10.88639,0,0,0,1.37886-1.94192l.07366-.61166c.09668-.73239-.69979-1.20494-1.21657-1.50617l.46269-.59212-.64569-.2265a2.94409,2.94409,0,0,0-1.96126.98074,8.76291,8.76291,0,0,0-.80567,4.0264Z"/><path id="path35" class="cls-3" d="M137.86036,75.55344c.24745.07589.47305-.12877.71935-.0207A6.50642,6.50642,0,0,1,141.349,77.1033l.88394,2.24775.442-1.38659-.29119-.75423c-.24745-.53808-.92653-.4944-1.39037-.51624-.19221-.215.01151-.46335.07711-.66686.22444-.76343-.71245-.722-1.08881-1.03132.023-.46334-.53866-.30238-.85172-.34607l-.107-.12877a.22109.22109,0,0,0-.31192-.02185c-.023-.031-.06445-.05289-.04144-.10807l-.2394.05518a1.52256,1.52256,0,0,0-.56973,1.10721Z"/><path id="path37" class="cls-3" d="M138.48418,73.08034a.68248.68248,0,0,0,.22559.36447c.48571-.12877.94725-.46105,1.50777-.25869a8.54791,8.54791,0,0,0,2.35028,1.64758l.31076-.05518c.19451.06668.4086.07588.53866.29088.11969.29088-.1807.46335-.27969.699.48571.35527.2912.99108.5939,1.41993l.77576-1.03247c-.18185-.453.01036-1.22678-.70094-1.26932a.68071.68071,0,0,1-.38788-.62546c-.46154-.41966-1.03242-.60131-1.49741-1.03132-.37637-.30238-.602-.76573-1.08767-.87265a4.0232,4.0232,0,0,0-1.08536-.36447C139.02284,71.88576,138.95954,72.74462,138.48418,73.08034Z"/><path id="path39" class="cls-3" d="M139.51775,70.96021l.13006.20465c.5375-.03334,1.02436-.269,1.55265-.25869.3545.21615.81834.2058,1.1832.38746a4.16613,4.16613,0,0,0,1.03243,1.11986c.87474.12762,1.35814,1.06466,1.6597,1.75221v-.33343a2.29774,2.29774,0,0,0-.18416-1.41879c-.21523-.21615-.52715-.35757-.75274-.55073a.4412.4412,0,0,1,.03223-.33342,7.06473,7.06473,0,0,0-1.23844-.82782c-.57088-.829-1.67005-.60247-2.54249-.829l-.87244,1.08766Z"/><path id="path41" class="cls-3" d="M139.50048,63.06605c.09554.33458.21293.75424.27624,1.10836.30155-.66685.8966-.96579,1.42374-1.51537a2.71574,2.71574,0,0,0-1.0117-.36677v-.01954C139.95166,62.50843,139.58565,62.74527,139.50048,63.06605Z"/><path id="path43" class="cls-3" d="M141.45714,66.60612l.48455-.49439a3.05352,3.05352,0,0,0,.95876-1.70047,1.38095,1.38095,0,0,0-1.13025.05288,13.542,13.542,0,0,0-.31307,2.142Z"/><path id="path45" class="cls-3" d="M141.81164,68.12378a3.14312,3.14312,0,0,0,2.06944-.2242l.602-1.93847a1.4573,1.4573,0,0,0-.56974-.03219A4.70661,4.70661,0,0,1,141.81164,68.12378Z"/><path id="path47" class="cls-3" d="M142.03032,61.25865a4.30737,4.30737,0,0,0,2.12239,1.73152c-.09668-.90255-.87128-1.528-1.27066-2.30179l-.023-.2587a4.02318,4.02318,0,0,0-1.01285-.668,5.06389,5.06389,0,0,0,.18416,1.497Z"/><path id="path49" class="cls-3" d="M144.65683,68.21a3.766,3.766,0,0,0,1.7115-.16326c.76654-.18051,1.18664-1.021,1.44446-1.67633H146.854l-1.03472,1.01063a8.134,8.134,0,0,0-1.16248.829Z"/><path id="path51" class="cls-3" d="M144.54059,60.28022a6.26631,6.26631,0,0,0,1.0025,2.32478l.1289-1.60389Z"/><path id="path53" class="cls-3" d="M148.07177,64.46529a7.99875,7.99875,0,0,0-.22214-1.70967c-.32457-.21615-.77806-.19431-1.11068-.40816A3.15534,3.15534,0,0,0,148.07177,64.46529Z"/><path id="path55" class="cls-3" d="M147.09113,69.93348a10.67122,10.67122,0,0,0,1.959-.79792c.39823-.568,1.0025-1.08766,1.08766-1.75336-.49491.13912-.92653-.0207-1.38807.2058a3.54546,3.54546,0,0,1-.991,1.44064C147.67353,69.3931,147.27414,69.6426,147.09113,69.93348Z"/><path id="path57" class="cls-3" d="M148.14542,71.25684l.808,1.05317A1.63775,1.63775,0,0,0,150.3,72.15939l-.29119-.95774A3.748,3.748,0,0,1,148.14542,71.25684Z"/><path id="path59" class="cls-3" d="M149.49321,63.63633l.31191,1.42108a2.86382,2.86382,0,0,0,.8874-2.45356,3.36646,3.36646,0,0,1-1.19931,1.03248Z"/><path id="path61" class="cls-3" d="M151.61445,66.14507a1.03182,1.03182,0,0,0,.18416.55993c.83905.30008.92538,1.3222,1.70228,1.70967a1.93037,1.93037,0,0,0,1.5285-.25869c-.33378-.376-.71246-.637-1.03357-1.03363-.22675-.09657-.45348-.23684-.442-.51623l-1.93939-.46105Z"/><path id="path63" class="cls-3" d="M152.282,71.2235a2.50207,2.50207,0,0,0,1.37886.75193c-.08518-.11842.05525,0,.076-.07473l-.648-1.41764c-.32227.00805-.656.07359-.95761.05289a2.932,2.932,0,0,0,.15077.68755Z"/><path id="path65" class="cls-3" d="M153.42492,64.59407a8.29551,8.29551,0,0,1-.51449-2.32249c-.32342.38631-.6572.63466-.95876,1.03132C151.81125,64.09967,152.94956,64.29513,153.42492,64.59407Z"/><path id="path67" class="cls-3" d="M154.73818,63.864c.38789.50473,1.23845.33227,1.715.18166-.22789-.38747-.95761-.61282-1.08652-1.03247a9.2708,9.2708,0,0,0-.46384-2.14083C154.52526,61.78639,154.07062,62.87405,154.73818,63.864Z"/><path id="path69" class="cls-3" d="M155.41609,66.14507c1.07846.78643,2.13275,1.69933,3.64051,1.3659.10819-.07588.29121-.06554.31307-.20465-.44312-.28054-.915-.49555-1.3685-.75194l-.51563-.75423h-.23709a9.44988,9.44988,0,0,1-1.83234.34492Z"/><path id="path71" class="cls-3" d="M155.43912,74.87164h.07365a5.817,5.817,0,0,1,2.1765-.90485c.206.07474.076.30124.259.38862.46384-.19431,1.02436-.15062,1.49741-.31273a3.25554,3.25554,0,0,1,1.4974.28054c.36486.48289,1.05545.43115,1.5308.75193l-.076-.75193c-1.00134-1.17389-2.56436-1.26013-4.00537-1.23713l-.03339-.15177a2.56766,2.56766,0,0,0-1.05429.22766,5.4674,5.4674,0,0,0-1.34779.38631A12.10932,12.10932,0,0,0,155.43912,74.87164Z"/><path id="path73" class="cls-3" d="M156.3035,61.64727a1.82108,1.82108,0,0,0,1.75523.829,2.04259,2.04259,0,0,1-.808-1.23827c.10818-.95774-.94725-1.03248-1.464-1.52917A6.46965,6.46965,0,0,0,156.3035,61.64727Z"/><path id="path75" class="cls-3" d="M156.19416,76.77677h.12545c.572-.35757,1.40188-.08738,1.9624-.46449.31191-.16212.33264.269.55016.38746.52714.32308.59161,1.29,1.33513,1.06582.89316.46219.66757,1.551.6998,2.34663l.82984-.51624c-.076-.41966.16-.92784-.10935-1.29232-.20372-.461-.76308-.50473-1.03242-.88185.32343-.54958-.40859-.806-.56052-1.20493l.04373-.05519,1.13946.15062a1.70681,1.70681,0,0,1,.648,1.06581c.89429.15062,1.10954,1.16124,1.42259,1.8074.183-.4415.25781-.9152.442-1.344.01036-.35643-.46384-.35643-.69979-.51624a1.93012,1.93012,0,0,0-.79647-1.39924,11.86661,11.86661,0,0,0-2.95109-.79678l-.90581.28054c-.49607.11843-1.02322-.03219-1.39959.31043-.56282.04254-.60541.65766-.74352,1.05662Z"/><path id="path77" class="cls-3" d="M156.76274,72.3422l.206.09658c.43967-.20581.88279-.4415,1.34663-.614.72052-.20465,1.281.614,1.88529.09773.22559-.16211.41781.07473.59161.20466.259.47369.86207.4415,1.3144.57027-.22559-.61282-.50527-1.45328-1.29254-1.55216a7.51723,7.51723,0,0,1-.98063-.31043c-.8287-.91405-1.36736.75193-2.27317.34377A2.52534,2.52534,0,0,0,156.76274,72.3422Z"/><path id="path79" class="cls-3" d="M156.96877,77.58275c.34413.28858.69863.78527,1.23615.71974.671.31273.39018,1.19343.75618,1.65678l.38672-.34493-.03222-.02069.05525-.054.023.03219a2.0546,2.0546,0,0,0-.22789-1.27047c-.24745-.17016-.53865.0115-.7746-.15062a1.09008,1.09008,0,0,0-.49607-.73124c-.17264-.12877-.39939.04369-.59275.0322l-.33377.13107Z"/><path id="path81" class="cls-3" d="M158.3154,64.46529a5.55242,5.55242,0,0,0,1.59409,1.36705,2.56212,2.56212,0,0,0,1.52963.15062,9.81419,9.81419,0,0,1-1.27067-1.26013c-.15078-.215-.18416-.48289-.38789-.6772a3.03893,3.03893,0,0,0-1.46518.41966Z"/><path id="path83" class="cls-3" d="M158.90929,60.61479c.49723.61167,1.26146.36562,1.96125.38632v-.07358l-1.07732-.906a2.89313,2.89313,0,0,0-.88395.59327Z"/><path id="path85" class="cls-3" d="M139.08038,50.46714l.62383,1.93732c-.01151-1.098.49492-2.01206.38787-3.13076l.46384-.68985-.98177.30124A3.65173,3.65173,0,0,0,139.08038,50.46714Z"/><path id="path87" class="cls-3" d="M139.50048,47.10988l.84942-.49554v-1.259a4.48161,4.48161,0,0,0-.8287.87265Z"/><path id="path89" class="cls-3" d="M156.97107,49.06905a1.19894,1.19894,0,0,1-.77461.38746,3.67584,3.67584,0,0,0,.31077-2.91805,4.1337,4.1337,0,0,0,.72281-.25755l-.023-.02069.59391-.51854c.78611-.53808.48456-1.559.77575-2.32248-.38789-.60362-.50527-1.33486-1.067-1.8419l.03338-.01954c-.44312-.55993-1.23959-.49669-1.845-.77608-.79647-.269-1.41.27939-1.98081.64731-.24746.04139-.09668.36447-.366.35412a10.975,10.975,0,0,0-.442,1.26932,4.31213,4.31213,0,0,0-3.06963.57027,4.528,4.528,0,0,0-1.5308-.54843c-.38672-.07473-.8287.06554-1.10723-.15176-.4086-.46105-.49722-1.30152-1.19816-1.41879-.2463-.08623-.29925-.35412-.29925-.59212-.46384-.07473-.87474-.28858-1.32707-.38746-.68713-.31273-1.23614.184-1.75408.51623a5.25766,5.25766,0,0,0-.69864.25985,9.84935,9.84935,0,0,0-1.0025,1.881,3.90855,3.90855,0,0,0,.5939,1.49582,3.04313,3.04313,0,0,0,1.67926,1.52916,6.33505,6.33505,0,0,0,0,3.4113l-.01841.01034-.03453.0299a.58263.58263,0,0,1-.2981-.0299h-.01382a4.69041,4.69041,0,0,0,1.418,2.69846c.28084.09888.21639.43115.33609.6473a.50681.50681,0,0,1,.05179.38632,8.45573,8.45573,0,0,0-4.52332,1.129c-.34414.17246-.19221.64731-.22443.97958a8.29853,8.29853,0,0,1,3.10071-1.29,4.68319,4.68319,0,0,1,1.49741-.02185l.0541.92555c-1.281.66685-2.68177,1.05432-3.78094,2.15232a4.33246,4.33246,0,0,0,.05524,1.00143l.98062-.79792a11.6634,11.6634,0,0,1,3.0259-1.73152,3.77848,3.77848,0,0,0,.98177.9244,7.31094,7.31094,0,0,1,2.12124-.9244c.39939-.23685,1.03243-.02184,1.29139-.49439l.18416-.97958c-.03337-.02185-.05294-.06324-.10819-.05174a1.48293,1.48293,0,0,1-.79647-1.38889,1.44813,1.44813,0,0,1-.57089.15061c-.17264-.04369-.33263-.08508-.40859-.25869-.01152-.21615-.1197-.53808.09553-.699a4.16086,4.16086,0,0,1,2.48955-.38631c.656.08508,1.6056.05174,1.83.829-.02992.22535-.01036.47255-.236.62317-.2371.12877-.50528-.0115-.7228-.10693a1.77678,1.77678,0,0,1-1.05544,1.29l.07711.62547c.07367.28053.09553.74158.53866.645a9.44458,9.44458,0,0,1,2.821,1.3452,6.71664,6.71664,0,0,0,.75275-.95774,14.0769,14.0769,0,0,1,4.28737,2.83987l.05525-.9037a14.74542,14.74542,0,0,0-4.08365-2.50759,5.4797,5.4797,0,0,0,.12891-.88186,10.55747,10.55747,0,0,1,4.75121,1.45328l-.023-.77493a10.5652,10.5652,0,0,0-4.89047-1.3452.54213.54213,0,0,1-.07365-.33458,2.39866,2.39866,0,0,0,1.68156-1.80855c.43968-.50474,1.07731-1.05432.92652-1.80625.01957-.06094.04143-.12762.0633-.192A.89683.89683,0,0,0,156.97107,49.06905Z"/><path id="path91" class="cls-3" d="M158.46962,51.83419l.88279-.28054.09552-.49439c.24976-.72089-.27738-1.259-.53866-1.8304l-.43967,2.60532Z"/><path id="path93" class="cls-3" d="M160.69676,55.24548c.42011.46105.82984,1.20494,1.57452.97729a4.70035,4.70035,0,0,0-.33493-.84852c-.19567-.22765-.259-.87266-.64684-.645-.29121-.1943-.36486-.51853-.55016-.77607A7.70054,7.70054,0,0,0,160.69676,55.24548Z"/><path id="path95" class="cls-3" d="M160.84867,58.39579c.1623.22764.206.51853.36486.722a1.73913,1.73913,0,0,0,1.07731.12877c.32343-.07474.5283.27938.82985.07358-.37522-.2357-.60081-.66685-.95875-.97728C161.74068,58.00947,161.29065,58.30035,160.84867,58.39579Z"/><path id="path97" class="cls-3" d="M161.41956,63.40063a4.15073,4.15073,0,0,0,2.67946.722c.107-.05519.2912-.04369.31191-.17361a16.4528,16.4528,0,0,0-1.90256-.95774c-.35679-.54843-.81949.14027-1.27181.09658C161.24692,63.21782,161.37583,63.31555,161.41956,63.40063Z"/><path id="path99" class="cls-3" d="M163.6582,72.901l.1623.34607c.16229,1.11985.87128,2.15117.4834,3.37795.32343.22535.42125.60132.625.90255h.05409a7.20248,7.20248,0,0,0-.05409-2.841C165.02556,73.83687,164.16349,73.34133,163.6582,72.901Z"/><path id="path101" class="cls-3" d="M163.8435,61.883a2.41114,2.41114,0,0,0,2.09938.25869,6.52278,6.52278,0,0,1-1.19586-.77493Z"/><path id="path103" class="cls-3" d="M166.5011,65.18733a1.16819,1.16819,0,0,0,.57088,1.05432,2.43338,2.43338,0,0,0,.33263-.79562,1.96665,1.96665,0,0,0-.7746-1.19344A2.63554,2.63554,0,0,0,166.5011,65.18733Z"/><path id="path105" class="cls-3" d="M166.53447,70.09215c-.076.50474.4834.57142.72051.85081.19452.2357-.12891.39781-.12891.62316a2.917,2.917,0,0,1,.6457,1.8304,17.75417,17.75417,0,0,0,.49837-1.95917c-.04373-.47254-.79647-.376-.67907-.90255a2.32852,2.32852,0,0,0-.18415-1.54871c-.04374-.077-.14042-.22765-.22445-.184C166.9845,69.24364,166.5011,69.55407,166.53447,70.09215Z"/><path id="path107" class="cls-3" d="M168.01,67.53166l.55936,1.08651c.24861-.02989.40745-.269.602-.4392.15193-.453-.24745-.74388-.36486-1.1095-.099-.2587,0-.60247-.18416-.829-.13927-.08508-.3027-.22535-.46384-.184L168.01,67.53166Z"/><path id="path109" class="cls-3" d="M168.73052,64.6711a3.12267,3.12267,0,0,1,1.1832,1.1279c.37866,1.098.98177,2.08794,1.42259,3.1526.1623.74274.2912,1.405.49607,2.13738.076.19086.03223.568.33493.53693.08518-.81747.24746-1.60274.25782-2.45356a3.27005,3.27005,0,0,0-.95875-.722v-.07358c.04373-.184.19452-.399.42125-.36447.09552-.11037.38672-.21615.259-.40931-.56053-.55878-.5283-1.52341-1.42375-1.697a.81076.81076,0,0,1-.41781-.75194A2.57346,2.57346,0,0,0,168.73052,64.6711Z"/><path id="path111" class="cls-3" d="M169.24616,70.50261c.55016.50359.35795,1.236.31306,1.91433-.08517.40931.43162.17246.59391.38746a2.35091,2.35091,0,0,1,.01957,1.75452,10.4958,10.4958,0,0,0,.85172-1.313c-.0115-.184.22445-.269.21639-.49439.09552-.31273-.26932-.17247-.42011-.207-.12891-.03219-.26932-.11842-.22789-.28973a2.61957,2.61957,0,0,0-.08518-1.72117c-.12891-.44265.05525-1.03247-.15077-1.41994-.34414.4737-1.3685.58177-1.11069,1.3889Z"/><path id="path113" class="cls-3" d="M170.24865,62.8614c.95991.96923,1.6597,1.94192,2.69327,2.879a10.94378,10.94378,0,0,0-.05409-1.21643,2.88166,2.88166,0,0,0-.66871-.71974C171.456,63.72831,171.05665,62.70043,170.24865,62.8614Z"/><path id="path115" class="cls-3" d="M172.75892,67.99041a1.67306,1.67306,0,0,0,.107.27939,14.09906,14.09906,0,0,1,1.11068,2.14083c-.08632-.79448.45348-1.78671-.259-2.39837-.09668-.2587-.42011-.17246-.625-.15177Z"/><path id="path117" class="cls-3" d="M175.344,75.85123c.30271.13682.68943-.11038.98063-.28054a.87836.87836,0,0,1,.70094.22535c.08517.17131,0,.33228.02992.49439a6.57991,6.57991,0,0,1,1.85421.79563l.1807-.18167a1.26335,1.26335,0,0,0-.66641-1.05316c-.22559-.13223-.56168-.05519-.72052-.261a1.11879,1.11879,0,0,0,.09553-.62316,1.55743,1.55743,0,0,1-.87359-.28054c-.1807-.05289-.34414-.2035-.49491,0-.5375.36677-.56973.9037-1.08652,1.1647Z"/><path id="path119" class="cls-3" d="M176.099,62.30952a1.93532,1.93532,0,0,0,.77574-.34377c.71936-.65651,1.76559-.21616,2.60465-.22651a5.80718,5.80718,0,0,0-.59161-.829,2.48076,2.48076,0,0,0-.92652-.2587c-.73316-.42885-1.22693.29089-1.78861.645A1.2039,1.2039,0,0,0,176.099,62.30952Z"/><path id="path121" class="cls-3" d="M176.11975,64.52393c0-.02989,0-.06439.03223-.07358.09668.08623-.01151.28973.15077.33227a6.17547,6.17547,0,0,0,.79647-.51393c.72282,0,1.15327-.69905,1.86227-.69905a10.68366,10.68366,0,0,1,3.393,1.03132,2.33031,2.33031,0,0,0-1.29024-1.64758.892.892,0,0,0-.86322.25869c-.72282.45415-.34414-.65536-.85057-.67835a5.32056,5.32056,0,0,1-2.06715.36792c-.43161.15981-.73432.55647-1.21772.51508a2.69774,2.69774,0,0,0,.05409,1.10721Z"/><path id="path123" class="cls-3" d="M176.61582,66.92575c.22444.2357.60081.192.92652.2357l.93574-.36447c.01151-.17246-.27968-.2173-.21638-.40816.259-.29089.61577-.08738.93688-.20695.45464-.06324.91732-.51509,1.36736-.18167-.01037.05289.023.12993-.01957.18167-.14271.33457.09668.53808.3545.66685.52829.09888,1.02322.58292,1.55151.36562a9.51228,9.51228,0,0,0-.28084-1.26932c-.44081-.07588-.75274-.44151-1.16247-.59327a.88421.88421,0,0,1-.64684.28054c-.82984-.19316-1.82084-.7094-2.6599-.18166-.3027.36446-.84136.25754-1.24995.41735A4.76723,4.76723,0,0,0,176.61582,66.92575Z"/><path id="path125" class="cls-3" d="M176.97031,73.32064c-.06561.18281-.24745.48519.08518.57027.69059.023,1.57338-.33228,2.11318.20465.18186.14142.09552.43.08518.614l.90351.75423a7.79436,7.79436,0,0,0,.259-1.3475,1.50589,1.50589,0,0,0-.54786-.9037c-.59391,0-.93918-.6933-1.57452-.60477-.33263-.077-.62268.21845-.95875.21845a5.46294,5.46294,0,0,0-.36486.49439Z"/><path id="path127" class="cls-3" d="M177.22929,68.24911c.13927.28858.3027.76343.57088.79562a3.06363,3.06363,0,0,1,2.27318-.15062c.23709.04254.23709.31158.18416.4852.36485.215.808.38516,1.1947.62316l-.10705-.645c-.023-.70019-.90581-.76573-.95991-1.45558a4.26533,4.26533,0,0,0-2.29387-.12762c-.24976.2265-.60312.19431-.90582.25984C177.166,68.11918,177.21779,68.17207,177.22929,68.24911Z"/><path id="path129" class="cls-3" d="M177.41345,71.73514c.42011-.11843.68713-.58178,1.14061-.62317a2.09987,2.09987,0,0,1,1.73335.88186c.26128.17131.206.614.53866.614a10.63492,10.63492,0,0,1,.05525-1.551c-.45464-.75193-1.57108-.17246-1.99233-1.05431l-.79647.05289c-.57089.14026-.41895.80827-.49723,1.26012-.06445.14027-.19336.24719-.18186.41966Z"/><path id="path131" class="cls-3" d="M181.36357,76.44105c.33493.66685,1.06925,1.17389,1.14291,1.93847a3.636,3.636,0,0,0,.40975-.66685c-.01151-.21616-.26012-.21616-.358-.38747-.09668-.27939.05525-.52659.09784-.77608a2.0831,2.0831,0,0,0-.85057-1.01063Z"/><path id="path133" class="cls-3" d="M182.6918,74.74172l.7746,1.05432a2.77878,2.77878,0,0,0,.20373-1.93847c-.07366-.11843-.21523-.31158-.40859-.22535-.29235.30238-.33378.76343-.56973,1.1095Z"/><path id="path135" class="cls-3" d="M179.53353,45.28868a2.24177,2.24177,0,0,0,.88279.28974,1.13981,1.13981,0,0,1,.79878-.12877c.39822.25869.88279-.054,1.34433-.0322a4.97122,4.97122,0,0,0-1.34433-.84851C180.61084,44.69656,180.12742,45.12542,179.53353,45.28868Z"/><path id="path137" class="cls-3" d="M183.74723,46.30046c.56858.05289.97833.55762,1.36619.98073a1.90839,1.90839,0,0,1,1.14177.77378l-.183-.57142a3.64422,3.64422,0,0,0-.84942-1.46248A4.16621,4.16621,0,0,0,183.74723,46.30046Z"/><path id="path139" class="cls-4" d="M143.54845,41.57845l.31192.0322c.84136.41965,2.19836.63466,2.27316,1.84994a6.65645,6.65645,0,0,0-2.34567,1.474c-.51679-.52773-1.563-.23685-1.73451-1.16124.16228-.87151.47305-1.96722,1.49511-2.19487Z"/><path id="path141" class="cls-4" d="M144.35873,47.03515c.97832-.08508,1.92673.05174,2.94073-.0322a1.28566,1.28566,0,0,1,.62382.57028c-.03222,1.16124-.38787,2.27075-.442,3.46418a1.593,1.593,0,0,0-.97947,1.03362,8.56608,8.56608,0,0,0-1.14291.53694,1.13061,1.13061,0,0,1,.16343-1.21414c.41895-.59326,1.50777-.453,1.41915-1.38889.28084-.453.01151-1.03362.023-1.50732-.1082-.35412-.21523.11843-.38788.10693a1.407,1.407,0,0,1-1.0002-.07358c-.22788-.23915-.50758-.43116-.572-.75424a1.76066,1.76066,0,0,1-.80682-.70019Z"/><path id="path143" class="cls-4" d="M145.54308,54.0509c.46039.06323.94724-.14027,1.34548.08508a.76951.76951,0,0,1-.49492.25869l-.72165.33458C145.40266,54.66256,145.55344,54.23256,145.54308,54.0509Z"/><path id="path145" class="cls-4" d="M147.42837,45.06448c.46154-.15061.95876-.46105,1.45367-.31043a6.94972,6.94972,0,0,0-.90351,1.24632l-1.47554-.031A2.07707,2.07707,0,0,1,147.42837,45.06448Z"/><path id="path147" class="cls-4" d="M151.748,44.71036c.61231-.10693.58008.6887,1.1406.722.09784.12877.23826.246.183.4392a9.36874,9.36874,0,0,1-1.16478.15062c-.48455-.269-.17035-1.10835-.93689-1.05432-.04144-.06323-.12891-.19315-.02072-.23684a1.84978,1.84978,0,0,1,.79878-.0207Z"/><path id="path149" class="cls-4" d="M151.36008,47.59507a1.47446,1.47446,0,0,1,1.0658-.48519l2.79.054c.11854.10692-.107.2035-.107.33342-.17264.161-.42126.20466-.572.35643-.36486.01149-.33493.4392-.59275.62316-.39939.39781-.97947.21615-1.44331.15061a1.23609,1.23609,0,0,1-.4201-.46334l-.12891.12877c.16228.60362.11854,1.27162.23595,1.88328l.66756.44265c.0115.98994,1.17513.72089,1.68156,1.27047a3.01238,3.01238,0,0,1-.61231.95774,3.60154,3.60154,0,0,0-1.36851-.829c-.04259-.58178-.67792-.9244-1.03472-1.21644-.09669-1.05431-.11855-2.13047-.2889-3.1526Z"/><path id="path151" class="cls-4" d="M152.37179,54.23256h1.29368l-.16229.67835-1.29369-.54958c-.02993-.10693.08632-.13912.16228-.12877Z"/><path id="path153" class="cls-4" d="M154.6979,42.043l.95875-.30238a9.8012,9.8012,0,0,1,1.57222.94624,3.79291,3.79291,0,0,1,.15077,2.53864c-.2912.32422-.92652,0-1.16247.51623h-.04373A4.73417,4.73417,0,0,0,153.868,43.364a1.99415,1.99415,0,0,1,.82984-1.32106Z"/><path id="path155" class="cls-3" d="M177.16368,83.03714h5.74678a4.19586,4.19586,0,0,0,2.43315-.73354,11.18837,11.18837,0,0,0,8.05679-1.84879,16.85025,16.85025,0,0,0,3.13294-3.29172,11.86918,11.86918,0,0,0,1.75869-3.27218,15.34137,15.34137,0,0,0,.694-2.30294,21.89843,21.89843,0,0,0-.82294-11.44917q-.33838-.98822-.755-1.90283c-1.517-3.13191-3.57952-6.50986-6.76079-8.492a13.59174,13.59174,0,0,1-4.45081-4.62773c-.55016-.49669-1.07846-1.152-1.78861-1.27047a2.80076,2.80076,0,0,1,.46384,1.01063l-.04373.054a2.61325,2.61325,0,0,1-1.86342-.86231l.572-.51509a3.03215,3.03215,0,0,0-.70093-.20351c-2.17649-.24719-3.96394.75194-5.89066,1.23713l-.03223.10693c1.1832.52658,1.43065,1.82809,2.12124,2.71225.17264-.20581.46384-.05519.69979-.077.34414.02184.66757.269,1.0002.18281a2.93834,2.93834,0,0,0-.20372-.77263,1.41244,1.41244,0,0,1,.67906,0c.62384.36447,1.62632-.06669,2.0142.77263a11.71047,11.71047,0,0,0-2.04642.35527c.04259.269.31191.48519.2912.75423a6.76,6.76,0,0,0-1.81047-.46335l-.02993.09543a6.23676,6.23676,0,0,0,3.04662,1.8419c1.62632.376,3.05813-.39782,4.62921-.12878a18.02506,18.02506,0,0,1,8.58738,9.63257q.10533.27594.20143.55763a18.62885,18.62885,0,0,1,.22558,11.44917,14.03917,14.03917,0,0,1-2.47343,4.18622,8.75984,8.75984,0,0,1-1.41339,1.3889,6.33518,6.33518,0,0,1-5.66393,1.24632c-.12775-.08393-.389-.10692-.34644-.33228.07252-.29893.13927-.60476.198-.914a22.6888,22.6888,0,0,0,.40745-5.428c-.00461-.07934-.00576-.15867-.00921-.23685a20.6976,20.6976,0,0,0-1.62861-7.38022,25.55947,25.55947,0,0,0-2.32036-4.069,9.62886,9.62886,0,0,0-4.315-3.55156,3.23207,3.23207,0,0,0-3.28488.57142,2.20463,2.20463,0,0,0-.755,1.97871,6.74322,6.74322,0,0,1-3.10187,1.00143c-.27738.02415-.56282.12417-.84943.123a4.61755,4.61755,0,0,1-.80223-.03334,7.92788,7.92788,0,0,1-3.79474-1.743c-.02187-.55648-.05525-1.08651-.076-1.67633a2.03111,2.03111,0,0,1-1.14061-1.6039l.05525-.054a4.50416,4.50416,0,0,1,.95645.46335,7.05416,7.05416,0,0,0-.72051-2.39952c-.38789-.16211-.77805-.28974-1.14291-.48519a1.83812,1.83812,0,0,1-.75159-1.24863c.37522.36792,1.03243.238,1.32361.62547-.50527-1.49582-.51679-3.20665-1.34663-4.57369-.42011-1.01178-1.51929-1.474-2.27317-2.21786-.29121-.35412-.40859-.84851-.93689-.9037-.43045-.10693-.46384-.59212-.53865-.90255.26932.031.4949.215.72281.25754-.62613-1.65793-1.17513-3.49638-2.86592-4.55069l-.2912.18166a17.72235,17.72235,0,0,1-2.0142.16211,2.76692,2.76692,0,0,1,1.21773-.80827,2.91273,2.91273,0,0,0-1.45828-.53808,2.98388,2.98388,0,0,1-1.40765.61281l-.05295-.04139c-.0115-.38631-.10128-.86231.48111-.95774a3.35505,3.35505,0,0,0-2.05794,0c-.16228.41966-.62152.79563-.5916,1.29a8.63919,8.63919,0,0,1-.915,1.05546,9.91874,9.91874,0,0,1,.49377-2.29144c-.48456.18166-.97717.4392-1.45022.66685a19.83278,19.83278,0,0,0-2.38826-1.21528c-.076-.03334-.23826-.06553-.206.07359.69979.50588.42931,1.45212.50413,2.17416l-.442-.36446c-.21523-.54958-.83791-.94739-.9438-1.551a8.21409,8.21409,0,0,0-1.88069.62546l-.09434.05289a1.52225,1.52225,0,0,1,1.18434.79562,13.99584,13.99584,0,0,1-2.196-.33227c-.076-.07589-.13927-.16212-.26012-.15062a4.14032,4.14032,0,0,0-1.03357.668,7.23513,7.23513,0,0,0-1.85192,2.50645,1.65587,1.65587,0,0,1,.74353.184c-.40743.24719-.76424.66685-1.16363.9037a9.89383,9.89383,0,0,0-.15077,1.80855,8.11181,8.11181,0,0,0-.93689,1.41878,21.09215,21.09215,0,0,0-.74238,7.01575c-.21638.20351-.49721.33573-.69979.49554l.02187,2.19487h.05294c.099-.46335.648-.72089.98062-1.03247h.1082c-.053.49439-.11855.98878-.12891,1.49582l-.625.51623c-.62267.54843-.09553,1.3751-.15077,2.0638.04489.184.07481.453.20717.49668a2.87074,2.87074,0,0,1,.46039-.699c.26933-.06669.50528-.28054.75274-.31273a11.22631,11.22631,0,0,1-.53866,1.5809,1.97587,1.97587,0,0,0-.328.269.77591.77591,0,0,0-.21754.40011,48.28943,48.28943,0,0,0,2.11894,7.46645c-.5939.99913-.92883,2.17877-1.4226,3.21239-.0702.14487-.13351.29089-.19336.4415-.49492,1.25207-.64569,2.649-1.26146,3.8528a4.23881,4.23881,0,0,0-.79532-.42081,3.24968,3.24968,0,0,0-3.36084.75308,2.88821,2.88821,0,0,0-2.12469.38632,2.83353,2.83353,0,0,0-.94034,1.15319,2.33367,2.33367,0,0,0-.16689,1.02212,2.47136,2.47136,0,0,0-.90466,1.3659,4.23953,4.23953,0,0,0,.84941,3.26528h47.94481Z"/><path id="path157" class="cls-4" d="M198.16314,60.14q-.33839-.9882-.75505-1.90283c-1.517-3.13191-3.57951-6.50986-6.76079-8.492a13.59171,13.59171,0,0,1-4.4508-4.62773c-.55016-.49669-1.07846-1.152-1.78861-1.27047a2.80076,2.80076,0,0,1,.46384,1.01063l-.04373.054a2.61329,2.61329,0,0,1-1.86343-.86231l.572-.51509a3.03178,3.03178,0,0,0-.70093-.2035c-2.1765-.2472-3.96394.75193-5.89066,1.23712l-.03223.10693c1.1832.52658,1.43065,1.8281,2.12124,2.71225.17264-.2058.46384-.05519.69979-.077.34414.02184.66757.269,1.0002.18281a2.938,2.938,0,0,0-.20373-.77263,1.41248,1.41248,0,0,1,.67907,0c.62384.36447,1.62632-.06669,2.0142.77263a11.7103,11.7103,0,0,0-2.04642.35527c.04258.269.3119.48519.2912.75423a6.76018,6.76018,0,0,0-1.81048-.46335l-.02992.09543a6.23667,6.23667,0,0,0,3.04662,1.8419c1.62631.376,3.05812-.39782,4.6292-.12878A18.02507,18.02507,0,0,1,195.89114,59.58q.10532.27594.20142.55763a18.62885,18.62885,0,0,1,.22559,11.44917,14.03938,14.03938,0,0,1-2.47343,4.18622,8.76024,8.76024,0,0,1-1.41339,1.3889,6.33518,6.33518,0,0,1-5.66393,1.24632c-.12775-.08393-.389-.10692-.34644-.33228.07252-.29893.13927-.60476.198-.914a22.68829,22.68829,0,0,0,.40744-5.42795c-.0046-.07934-.00576-.15867-.0092-.23685a20.6976,20.6976,0,0,0-1.62861-7.38022,25.55877,25.55877,0,0,0-2.32037-4.06895,9.62889,9.62889,0,0,0-4.315-3.55157,3.23208,3.23208,0,0,0-3.28487.57143,2.20461,2.20461,0,0,0-.755,1.97871,6.74322,6.74322,0,0,1-3.10187,1.00143c-.27738.02414-.56283.12417-.84943.123a4.61751,4.61751,0,0,1-.80223-.03334,7.92787,7.92787,0,0,1-3.79475-1.743c-.02186-.55648-.05525-1.08651-.076-1.67633a2.03111,2.03111,0,0,1-1.14061-1.6039l.05525-.054a4.50416,4.50416,0,0,1,.95645.46335,7.05411,7.05411,0,0,0-.72052-2.39952c-.38788-.16211-.77805-.28974-1.14291-.48519a1.83807,1.83807,0,0,1-.75158-1.24863c.37522.36792,1.03243.238,1.32361.62546-.50527-1.49581-.51679-3.20664-1.34663-4.57368-.42011-1.01178-1.51929-1.474-2.27318-2.21786-.2912-.35412-.40859-.84852-.93688-.9037-.43045-.10693-.46384-.59212-.53866-.90255.26932.031.49491.215.72282.25754-.62614-1.65793-1.17514-3.49638-2.86592-4.5507l-.2912.18166a17.72026,17.72026,0,0,1-2.0142.16212,2.76672,2.76672,0,0,1,1.21772-.80827,2.91266,2.91266,0,0,0-1.45827-.53808,2.98388,2.98388,0,0,1-1.40765.61281l-.053-.04139c-.0115-.38631-.10128-.86231.48111-.95774a3.35505,3.35505,0,0,0-2.05794,0c-.16229.41966-.62153.79563-.5916,1.29a8.63919,8.63919,0,0,1-.915,1.05546,9.91874,9.91874,0,0,1,.49377-2.29144c-.48456.18166-.97717.4392-1.45023.66685a19.83129,19.83129,0,0,0-2.38826-1.21528c-.076-.03334-.23825-.06553-.206.07358.69979.50589.42931,1.45213.50413,2.17417l-.442-.36446c-.21523-.54958-.8379-.9474-.94379-1.551a8.21409,8.21409,0,0,0-1.88069.62546l-.09437.05289a1.52225,1.52225,0,0,1,1.18434.79562,13.99584,13.99584,0,0,1-2.196-.33227c-.076-.07589-.13927-.16212-.26012-.15062a4.14032,4.14032,0,0,0-1.03357.668,7.23513,7.23513,0,0,0-1.85192,2.50645,1.65587,1.65587,0,0,1,.74353.184c-.40743.24719-.76424.66685-1.16363.9037a9.89383,9.89383,0,0,0-.15077,1.80855,8.11181,8.11181,0,0,0-.93689,1.41878,21.09212,21.09212,0,0,0-.74238,7.01575c-.21638.20351-.49721.33573-.69979.49554l.02187,2.19487h.05294c.099-.46335.648-.72089.98062-1.03247h.1082c-.053.49439-.11855.98878-.12891,1.49582l-.625.51623c-.62267.54843-.09553,1.3751-.15077,2.06379.04489.184.07481.453.20717.49669a2.87074,2.87074,0,0,1,.46039-.699c.26933-.06669.50528-.28054.75274-.31273a11.22631,11.22631,0,0,1-.53866,1.5809,1.97587,1.97587,0,0,0-.328.269.77591.77591,0,0,0-.21754.40011,48.28943,48.28943,0,0,0,2.11894,7.46645c-.5939.99913-.92883,2.17877-1.4226,3.21239-.0702.14487-.13351.29088-.19336.4415-.49492,1.25207-.64569,2.649-1.26146,3.8528a4.23881,4.23881,0,0,0-.79532-.42081,3.24966,3.24966,0,0,0-3.36084.75308,2.88821,2.88821,0,0,0-2.12469.38632,2.83353,2.83353,0,0,0-.94034,1.15319,2.33367,2.33367,0,0,0-.16689,1.02212,2.47133,2.47133,0,0,0-.90466,1.3659,4.23953,4.23953,0,0,0,.84941,3.26528h19.0336a6.1998,6.1998,0,0,1-.73432-1.19343c-.40744-.61512-.12776-1.48548-.1715-2.196.38787-.78183.78151-1.56825,1.22463-2.33283.08978-.15407.17955-.30468.27163-.45415l.87359-.33343c.46269,0,.85172-.33343,1.29254-.21615.59275.59327.59275-.591,1.16479-.645,1.33513-.17246,2.65989-.04369,3.41262,1.08651,0,.15062.23939.15062.18416.29088-.17264.05174-.33494-.05518-.51679-.05518-.81834-.20351-1.77825-.722-2.58509-.2587-.03107.19316-.07251.38977-.11164.58293a5.92083,5.92083,0,0,0-.09438.60016,3.26005,3.26005,0,0,1,1.36736.93589,2.18365,2.18365,0,0,1,1.34663-.93589,3.12879,3.12879,0,0,1,1.29368.38747c.67907.62546.34414,1.69013.28084,2.48575.61232.34377,1.29138.53923,1.91522.8715a3.02285,3.02285,0,0,1-1.03243.49669l-1.03356-.2058c-.11855-.08508-.32457-.08508-.36716-.2357a5.40593,5.40593,0,0,0-.97947,1.32221h14.75542a7.78958,7.78958,0,0,0-.68943-1.19344,6.13143,6.13143,0,0,1-.21522-2.21786l1.37886-2.09828a12.7526,12.7526,0,0,1,2.42278-.15062.89919.89919,0,0,0,.11855-.06324c.33953-.23454.44312-.77953.9484-.71169a2.78554,2.78554,0,0,1,2.27318.57143,1.067,1.067,0,0,1-.06906.14027c-.28428.45415-.816-.05289-1.20392.08393-.16229.17246.076.376.107.57143.14041.192-.14041.17016-.236.2035a.73919.73919,0,0,1-.64684-.2035c-.04259-.05519-.01036-.11843-.09552-.12878a3.32243,3.32243,0,0,0-.55016.97844,2.678,2.678,0,0,1,.69979.77608c.24746.35527-.19452.62316-.27968.93589a.09313.09313,0,0,1-.16229,0c-.22789-.12877-.42012-.453-.66871-.36792-.21639.95889.07481,1.91663-.05409,2.87437a8.10353,8.10353,0,0,0,1.36735,0l.18416-2.02355a6.6221,6.6221,0,0,1,1.88529-3.41245c.98868-.6749,1.62632.65881,2.35719,1.121.11971.02185.07712.15062.12891.22535-.01036.21615-.236.30124-.38672.36677-.45348.15981-.78727-.33458-1.067-.62546-.26818.29088-.38789.6772-.6998.90485l.107.031a2.3539,2.3539,0,0,1,.77805,1.20609,1.35665,1.35665,0,0,1-.648,1.06581,10.655,10.655,0,0,1-.71936-1.551c.01036.023-.01266.03219-.03339.05519-.5939.15981-.75158.82667-.85056,1.3659.03223.52773-.366.74273-.26012,1.26932h7.68157a4.19588,4.19588,0,0,0,2.43315-.73354,11.18837,11.18837,0,0,0,8.05679-1.84879,16.8506,16.8506,0,0,0,3.13294-3.29173,11.86868,11.86868,0,0,0,1.75868-3.27217,15.339,15.339,0,0,0,.694-2.30294A21.895,21.895,0,0,0,198.16314,60.14Z"/><path id="path159" class="cls-4" d="M148.73357,80.111c.4201-.269,1.09918-.33457,1.19471-.95774a1.47548,1.47548,0,0,0-.51678-.33457l-.442.12877a5.28667,5.28667,0,0,1,.26127-.82782l1.4203-.4622a11.48493,11.48493,0,0,0-.33494,2.19487,7.88493,7.88493,0,0,0,.85172,3.18479h-1.53079c-.1715-1.01062-1.22924-1.74416-.90352-2.9261Z"/><path id="path161" class="cls-4" d="M152.04146,78.81872h.08517l1.03241.937.15078-.03219c-.084,1.098-.13927,2.17416-.15078,3.31356H152.0403a13.56532,13.56532,0,0,1-.56052-3.33426,4.99585,4.99585,0,0,1,.56167-.88416Z"/><path id="path163" class="cls-4" d="M154.34454,79.85349c.206-.26789.2912-.722.69979-.77378a1.1012,1.1012,0,0,1,.77805.25754c.37636.47255.00806,1.07732-.12891,1.54986a18.16283,18.16283,0,0,1-.648,2.15117H153.9578l.38672-3.18479Z"/><path id="path165" class="cls-4" d="M170.68487,79.51891c.23709.30239.31191.71055.66756.97959a2.026,2.026,0,0,0,.2371-1.64644l-.31191-.31273c.39938-.09542.81834-.12877,1.21772-.2035a4.4808,4.4808,0,0,0-.442,1.75337c.01036.96923.17149,1.93847.25781,2.94794h-1.18435a6.52127,6.52127,0,0,1-.82984-2.94794,2.59333,2.59333,0,0,1,.38788-.57028Z"/><path id="path167" class="cls-3" d="M175.78021,58.84534c-.0115.27938-.21522.58982-.03338.829.26127-.29088.69059-.28053,1.03586-.40931a8.48974,8.48974,0,0,1,2.76694.43116c-.22558-.35642-.37636-.75424-.625-1.07616-.49607-.12993-1.24995.215-1.33513-.51854-.30155-.25754-.77461-.07358-1.08768-.05289a2.40781,2.40781,0,0,0-.72165.79678Z"/><path id="path169" class="cls-3" d="M142.859,49.55309l-.01611-.0115.0023.0115Z"/><path id="path171" class="cls-3" d="M146.77577,59.119l.64684-.62316a.14435.14435,0,0,1,.1289.05174l-.05294,1.19459a1.68226,1.68226,0,0,0,1.10723.40931c.03338-.32193.28084-.54958.42126-.829.11854-.22535.04373-.55878.27968-.71859l.076.07358a3.38674,3.38674,0,0,0,.2371,1.06467c.02187.17246.0518.38631.07252.53808a2.67058,2.67058,0,0,0,1.27183-.28054,4.84565,4.84565,0,0,1,.18185-1.1164c.099-.12993-.11855-.36792.15077-.35642.15193.32308.4201.65535.572,1.00143a4.18475,4.18475,0,0,0,1.03243-2.32479c-.18185-.246-.46154-.246-.67907-.40816A8.10915,8.10915,0,0,0,146.27855,57,2.73811,2.73811,0,0,0,146.77577,59.119Z"/><path id="path173" class="cls-3" d="M129.65625,79.31081a16.53493,16.53493,0,0,0,.05294,2.42482,1.22915,1.22915,0,0,0,.79877.60131l.05294-.54958c.12891-.76343-.27968-1.574.15194-2.22016a5.202,5.202,0,0,1,.86207.38632,1.88581,1.88581,0,0,0-.73432-1.97067Z"/><path id="path175" class="cls-3" d="M132.31728,78.14727a6.33747,6.33747,0,0,0-.22558,4.13793,4.88988,4.88988,0,0,0,.84941-.64616,4.46571,4.46571,0,0,1,.40975-2.933,1.90653,1.90653,0,0,1,1.08651,1.16125,1.98112,1.98112,0,0,0,.33609-1.67633c.02186-.47485-.51679-.36562-.77576-.55993.08517-.399.07366-.85886.49492-1.08651l-1.29139.12877A6.12846,6.12846,0,0,0,132.31728,78.14727Z"/><path id="path177" class="cls-3" d="M134.97832,81.86555c.0541.09543,0,.269.10935.29088.16-.90485.892-1.49007,1.29254-2.288.19221-.26559.183-.645.49491-.84851.419,0,.72166.30124,1.13141.33343.12891.09773-.06675.184-.07712.29088a10.70922,10.70922,0,0,0-.31191,2.09254h.07481a11.01166,11.01166,0,0,0,1.37886-1.94192l.07367-.61167c.099-.73238-.69749-1.20493-1.21773-1.50731l.46384-.59327-.64684-.22535a2.93892,2.93892,0,0,0-1.9601.98073,8.73222,8.73222,0,0,0-.80568,4.02756Z"/><path id="path179" class="cls-3" d="M137.87647,75.47986c.24631.07358.47305-.12877.71936-.023a6.54938,6.54938,0,0,1,2.76923,1.57056l.88394,2.25.442-1.39-.2912-.75079c-.24861-.53808-.92653-.49439-1.39037-.51623-.19336-.21616.01036-.46335.076-.66686.22559-.76458-.7113-.722-1.08767-1.03362.02187-.46105-.53865-.30238-.85171-.34377l-.107-.12877a.21956.21956,0,0,0-.31306-.023c-.01957-.03219-.06331-.054-.04144-.10692l-.236.05289a1.51378,1.51378,0,0,0-.572,1.1095Z"/><path id="path181" class="cls-3" d="M138.49915,73.00445a.70588.70588,0,0,0,.22559.36562c.4857-.12877.95069-.46449,1.50891-.25869a8.50231,8.50231,0,0,0,2.34913,1.64529l.31307-.05289c.19221.06324.40744.07358.53636.29088.11969.29089-.18185.46105-.27738.6979.4834.35642.29119.98993.5916,1.41993l.77459-1.03132c-.1807-.453.01152-1.22678-.69749-1.27047a.67444.67444,0,0,1-.39017-.62316c-.46154-.41966-1.03243-.60246-1.49512-1.03362-.37982-.30008-.60426-.76228-1.08766-.87035a3.96155,3.96155,0,0,0-1.08767-.36448C139.039,71.80872,138.9745,72.66988,138.49915,73.00445Z"/><path id="path183" class="cls-3" d="M139.535,70.88432l.12891.207c.53866-.03334,1.02206-.269,1.55036-.25984.35449.215.81834.2035,1.18434.38746a4.12313,4.12313,0,0,0,1.03243,1.11755c.87359.12877,1.357,1.06812,1.65855,1.75451v-.33227a2.33094,2.33094,0,0,0-.1807-1.42224c-.21639-.215-.5306-.35412-.755-.54613a.4431.4431,0,0,1,.03223-.33457,7.1713,7.1713,0,0,0-1.2396-.83012c-.57088-.829-1.66775-.60017-2.54134-.829l-.87013,1.08766Z"/><path id="path185" class="cls-3" d="M139.5166,62.99132c.09553.33458.21177.75308.27738,1.1095.3004-.66685.89545-.96923,1.4226-1.51651a2.72042,2.72042,0,0,0-1.0117-.36562v-.02185C139.96663,62.43139,139.60062,62.66939,139.5166,62.99132Z"/><path id="path187" class="cls-3" d="M141.47325,66.53254l.48341-.4944a3.05413,3.05413,0,0,0,.95876-1.70162,1.38289,1.38289,0,0,0-1.12911.05519,13.52666,13.52666,0,0,0-.31307,2.14083Z"/><path id="path189" class="cls-3" d="M141.82775,68.0502a3.13625,3.13625,0,0,0,2.06944-.22765l.60426-1.93617c-.19566-.0115-.39017-.09888-.572-.03219A4.71936,4.71936,0,0,1,141.82775,68.0502Z"/><path id="path191" class="cls-3" d="M142.04644,61.18507a4.34558,4.34558,0,0,0,2.12124,1.73152c-.09553-.90485-.87129-1.52916-1.27067-2.3018l-.02186-.25869a3.95548,3.95548,0,0,0-1.01285-.66685,5.07956,5.07956,0,0,0,.18415,1.49582Z"/><path id="path193" class="cls-3" d="M144.6718,68.13528a3.81885,3.81885,0,0,0,1.71264-.16211c.76425-.184,1.1855-1.02213,1.44331-1.67748H146.869l-1.03243,1.01063a7.84181,7.84181,0,0,0-1.16478.829Z"/><path id="path195" class="cls-3" d="M144.55555,60.20548a6.29052,6.29052,0,0,0,1.00365,2.32479l.12776-1.6039Z"/><path id="path197" class="cls-3" d="M148.08672,64.39056a7.839,7.839,0,0,0-.22329-1.70967c-.32342-.21615-.7746-.19546-1.10953-.40816A3.16459,3.16459,0,0,0,148.08672,64.39056Z"/><path id="path199" class="cls-3" d="M147.10725,69.85645a10.78421,10.78421,0,0,0,1.96125-.79562c.39824-.57143,1.0002-1.08651,1.08767-1.75336-.49837.13912-.92653-.023-1.39037.20465a3.549,3.549,0,0,1-.991,1.44178C147.68849,69.31722,147.29026,69.56557,147.10725,69.85645Z"/><path id="path201" class="cls-3" d="M148.16154,71.17981l.808,1.05432a1.64194,1.64194,0,0,0,1.34663-.14947l-.28889-.95659A3.7721,3.7721,0,0,1,148.16154,71.17981Z"/><path id="path203" class="cls-3" d="M149.50817,63.56274l.31192,1.41879a2.84394,2.84394,0,0,0,.8874-2.45126,3.33978,3.33978,0,0,1-1.19931,1.03247Z"/><path id="path205" class="cls-3" d="M151.63171,66.068a1.01937,1.01937,0,0,0,.1807.55992c.84021.30239.92653,1.32221,1.70343,1.70968a1.90776,1.90776,0,0,0,1.52733-.2587c-.33263-.376-.709-.63466-1.03242-1.03132-.22559-.09658-.45464-.23685-.442-.51623l-1.93708-.46335Z"/><path id="path207" class="cls-3" d="M152.29927,71.14877a2.49355,2.49355,0,0,0,1.37656.75078c-.08517-.11727.05526,0,.076-.07358l-.64684-1.42109c-.32342.0115-.65835.077-.95876.05519A2.96467,2.96467,0,0,0,152.29927,71.14877Z"/><path id="path209" class="cls-3" d="M153.441,64.52048a8.4368,8.4368,0,0,1-.51563-2.32364c-.32112.38747-.656.63581-.95876,1.03133C151.82623,64.02379,152.96684,64.2181,153.441,64.52048Z"/><path id="path211" class="cls-3" d="M154.75315,63.78694c.39018.50819,1.23959.33573,1.71379.184-.22675-.38746-.95645-.61511-1.08536-1.03132a9.15929,9.15929,0,0,0-.46384-2.14083C154.54138,61.71165,154.08558,62.79931,154.75315,63.78694Z"/><path id="path213" class="cls-3" d="M155.43222,66.068c1.07731.78528,2.1339,1.70047,3.63937,1.3659.10818-.07359.29234-.06554.31306-.20351-.442-.27939-.915-.49669-1.36735-.75423l-.51564-.75193h-.23709a9.3318,9.3318,0,0,1-1.83234.34377Z"/><path id="path215" class="cls-3" d="M155.45408,74.79461h.07712a5.75149,5.75149,0,0,1,2.17419-.9037c.206.07588.076.30238.26011.38747.46269-.192,1.02323-.15062,1.49627-.31159a3.23156,3.23156,0,0,1,1.49741.27824c.36831.4852,1.05544.43,1.53079.75423l-.07712-.75423c-1.0002-1.17274-2.56206-1.25782-4.00537-1.236l-.03223-.15062a2.57021,2.57021,0,0,0-1.05544.22535,5.56019,5.56019,0,0,0-1.34664.38631A12.4153,12.4153,0,0,0,155.45408,74.79461Z"/><path id="path217" class="cls-3" d="M156.31961,61.57138a1.81879,1.81879,0,0,0,1.75522.83012c-.36486-.35757-.78727-.73354-.808-1.23828.10819-.95774-.94724-1.03477-1.464-1.52916A6.49646,6.49646,0,0,0,156.31961,61.57138Z"/><path id="path219" class="cls-3" d="M156.20912,76.69859h.12891c.56973-.35412,1.39958-.08393,1.96011-.46105.31191-.16211.33377.269.549.38747.52829.32077.5939,1.29,1.33627,1.06466.892.4622.66756,1.54871.69979,2.34433l.82984-.51509c-.076-.41965.16229-.92554-.10819-1.29116-.20486-.4622-.76538-.50474-1.03472-.8807.32457-.54958-.40859-.80942-.56052-1.20724l.04489-.05289,1.14177.15062a1.70414,1.70414,0,0,1,.64684,1.06581c.892.15062,1.10724,1.16124,1.42029,1.80625.18416-.44035.259-.9152.442-1.3452.0115-.35527-.46268-.35527-.69979-.51624a1.90869,1.90869,0,0,0-.79647-1.39694,11.6983,11.6983,0,0,0-2.94994-.79677l-.90466.27824c-.49723.11957-1.02436-.031-1.40188.31158C156.391,75.688,156.34953,76.30192,156.20912,76.69859Z"/><path id="path221" class="cls-3" d="M156.77885,72.26632l.206.09773c.442-.20466.88279-.4415,1.34664-.614.71935-.2035,1.27987.614,1.88528.09658.22445-.15981.42012.07589.59045.20581.26242.47254.86323.44035,1.31671.568-.22675-.61167-.50757-1.451-1.29368-1.54871a7.62835,7.62835,0,0,1-.97948-.31158c-.82984-.914-1.36735.75423-2.27547.34608A2.50171,2.50171,0,0,0,156.77885,72.26632Z"/><path id="path223" class="cls-3" d="M156.98487,77.50686c.34414.29088.69979.78643,1.23959.72089.66641.31158.38673,1.19459.75159,1.65793l.38788-.34492-.03223-.023.05409-.05289.023.02989a2.04957,2.04957,0,0,0-.22789-1.26932c-.24631-.17131-.53636.0115-.77461-.15062a1.07486,1.07486,0,0,0-.49491-.73008c-.17264-.13107-.39938.04139-.59391.02989Z"/><path id="path225" class="cls-3" d="M158.33151,64.39056a5.56876,5.56876,0,0,0,1.59408,1.3659,2.5546,2.5546,0,0,0,1.52964.14946,9.8703,9.8703,0,0,1-1.27068-1.25782c-.15193-.21615-.18416-.48634-.38788-.67835a3.01852,3.01852,0,0,0-1.46518.42081Z"/><path id="path227" class="cls-3" d="M158.92541,60.54006c.49491.61282,1.26032.36562,1.96011.38746v-.07588l-1.07731-.9037A2.84368,2.84368,0,0,0,158.92541,60.54006Z"/><path id="path229" class="cls-3" d="M139.0965,50.3924l.62382,1.93732c-.01151-1.098.49722-2.01435.389-3.1319l.46154-.68985-.98063.30238A3.63165,3.63165,0,0,0,139.0965,50.3924Z"/><path id="path231" class="cls-3" d="M139.5166,47.03515l.85056-.49439V45.28063a4.54179,4.54179,0,0,0-.82985.87036Z"/><path id="path233" class="cls-3" d="M156.98717,48.99316a1.18942,1.18942,0,0,1-.77575.38632,3.66467,3.66467,0,0,0,.31307-2.91576,4.382,4.382,0,0,0,.72052-.25754l-.02187-.023.59275-.51623c.78611-.53808.48341-1.55906.77461-2.32364-.38673-.60132-.50527-1.3337-1.06579-1.83959l.03222-.02185c-.442-.55992-1.23845-.49439-1.84156-.77378-.79877-.269-1.41224.27939-1.98427.645-.24745.04369-.09552.36562-.36486.35412a11.06065,11.06065,0,0,0-.44311,1.27047,4.30918,4.30918,0,0,0-3.06849.57028,4.48169,4.48169,0,0,0-1.52964-.54843c-.38788-.077-.8287.06323-1.10838-.15177-.4086-.46105-.49722-1.30151-1.19816-1.41879-.24746-.08738-.29926-.35642-.29926-.59326-.46384-.077-.87474-.29089-1.32477-.38747-.68943-.31273-1.23844.184-1.75523.51624a5.21969,5.21969,0,0,0-.70094.25754,10.171,10.171,0,0,0-1.0025,1.88328,3.96035,3.96035,0,0,0,.5939,1.49582,3.051,3.051,0,0,0,1.67927,1.52917,6.32644,6.32644,0,0,0,0,3.409l-.01727.0115-.03452.03219a.57186.57186,0,0,1-.29811-.03219h-.01381a4.72,4.72,0,0,0,1.4203,2.70075c.28084.09658.21522.43116.33263.645a.50262.50262,0,0,1,.05524.38746,8.467,8.467,0,0,0-4.52561,1.1302c-.34415.17247-.19336.645-.22559.97959a8.30813,8.30813,0,0,1,3.10186-1.29232,4.74967,4.74967,0,0,1,1.49742-.02184l.05294.92784c-1.27988.668-2.68176,1.05432-3.77863,2.15233a4.2546,4.2546,0,0,0,.05294.99912l.98177-.79562a11.61928,11.61928,0,0,1,3.02475-1.73267,3.82065,3.82065,0,0,0,.98178.92555,7.25871,7.25871,0,0,1,2.12239-.92555c.39823-.23684,1.03472-.02184,1.29254-.49439l.18185-.97958c-.02993-.02184-.05294-.06553-.10705-.05519a1.47981,1.47981,0,0,1-.79647-1.38659,1.41312,1.41312,0,0,1-.57088.14831c-.17035-.04139-.33378-.08508-.4086-.25869-.01036-.21385-.1197-.53693.09783-.69674a4.17121,4.17121,0,0,1,2.48725-.38862c.656.08738,1.60445.054,1.83235.829-.03223.2265-.01151.47484-.23825.62431-.2371.12877-.50528-.0115-.72166-.10923a1.78654,1.78654,0,0,1-1.05429,1.29232l.07367.62316c.07366.28054.09668.74274.53865.645a9.522,9.522,0,0,1,2.82218,1.3452,6.39327,6.39327,0,0,0,.75274-.95774,14.15437,14.15437,0,0,1,4.28967,2.84332l.05179-.90485a14.66469,14.66469,0,0,0-4.08249-2.50644,5.73606,5.73606,0,0,0,.13121-.88416,10.60957,10.60957,0,0,1,4.74775,1.45213l-.02186-.77378a10.53515,10.53515,0,0,0-4.88816-1.34405.52435.52435,0,0,1-.076-.33343,2.39186,2.39186,0,0,0,1.68042-1.80855c.44312-.50474,1.07846-1.05431.92768-1.80625.01843-.06323.04029-.12877.0633-.1943a.90942.90942,0,0,0,.04259-.55763Z"/><path id="path235" class="cls-3" d="M158.48344,51.75945l.88279-.28054.099-.49324c.24746-.722-.28084-1.26012-.5398-1.83039Z"/><path id="path237" class="cls-3" d="M160.71286,55.16845c.42011.46335.82984,1.20493,1.57338.97958a4.70516,4.70516,0,0,0-.33377-.85081c-.19336-.22535-.26012-.87151-.64684-.645-.2912-.19315-.36486-.51623-.55016-.77493a7.695,7.695,0,0,0-.04259,1.29117Z"/><path id="path239" class="cls-3" d="M160.86364,58.32105c.16229.22535.20716.51739.366.722a1.7606,1.7606,0,0,0,1.07961.12877c.32113-.07588.52714.27824.82754.07474-.37636-.23685-.60195-.66686-.95645-.98074C161.75909,57.93474,161.30675,58.22562,160.86364,58.32105Z"/><path id="path241" class="cls-3" d="M161.43568,63.3259a4.15694,4.15694,0,0,0,2.67946.72089c.107-.05289.2912-.04254.31191-.17132a16.55923,16.55923,0,0,0-1.90371-.95773c-.35566-.54843-.8195.14026-1.27182.09657C161.26188,63.14194,161.39079,63.23851,161.43568,63.3259Z"/><path id="path243" class="cls-3" d="M163.672,72.82625l.16229.34377c.16344,1.11985.87129,2.15117.48456,3.378.32343.22765.42011.60362.62614.90485h.053a7.22369,7.22369,0,0,0-.053-2.841c.09668-.84966-.76655-1.344-1.273-1.78556Z"/><path id="path245" class="cls-3" d="M163.85847,61.80823a2.4139,2.4139,0,0,0,2.09937.25869A6.604,6.604,0,0,1,164.762,61.292Z"/><path id="path247" class="cls-3" d="M166.5172,65.1103a1.17908,1.17908,0,0,0,.57089,1.05662,2.4645,2.4645,0,0,0,.33263-.79678,1.98505,1.98505,0,0,0-.77575-1.19573,2.67934,2.67934,0,0,0-.12775.93589Z"/><path id="path249" class="cls-3" d="M166.54943,70.01856c-.07712.50474.48341.57028.71936.84967.19452.23684-.12891.399-.12891.62431a2.90348,2.90348,0,0,1,.648,1.82809,17.96074,17.96074,0,0,0,.49491-1.95686c-.04373-.47485-.79648-.376-.67907-.9037a2.32343,2.32343,0,0,0-.183-1.551c-.04143-.07358-.14041-.22535-.22445-.18051C167.00061,69.16775,166.5172,69.48048,166.54943,70.01856Z"/><path id="path251" class="cls-3" d="M168.025,67.45693l.55936,1.08651c.24746-.03219.40859-.269.602-.4415.15077-.45185-.24862-.74274-.36486-1.10951-.09784-.25869,0-.60131-.18416-.82666-.14041-.08738-.30041-.22765-.46154-.184l-.15078,1.47512Z"/><path id="path253" class="cls-3" d="M168.74433,64.59407a3.1378,3.1378,0,0,1,1.18665,1.1302c.37637,1.098.97948,2.08563,1.42029,3.15145.1623.74273.29121,1.40614.49491,2.13623.07712.1943.03339.57027.33609.53808.084-.81747.24632-1.6039.25782-2.45356a3.18812,3.18812,0,0,0-.95875-.71974v-.07589c.04373-.18166.19566-.399.42011-.36446.09552-.10808.38788-.215.259-.40931-.56052-.55878-.5283-1.52112-1.42029-1.69473a.815.815,0,0,1-.42011-.75193,2.56556,2.56556,0,0,0-1.57568-.48634Z"/><path id="path255" class="cls-3" d="M169.26458,70.42673c.54786.50473.35566,1.23712.31191,1.91547-.08518.40931.43045.17016.59275.38747a2.34774,2.34774,0,0,1,.023,1.75336,10.4525,10.4525,0,0,0,.84942-1.31416c-.0092-.18166.22675-.269.21639-.49554.09552-.31158-.26932-.17131-.42125-.2035-.12891-.0322-.26818-.11843-.22445-.29089a2.643,2.643,0,0,0-.08748-1.72117c-.12891-.4415.05525-1.03362-.15193-1.42108C170.02767,69.51268,169.0033,69.61961,169.26458,70.42673Z"/><path id="path257" class="cls-3" d="M170.26476,62.78781c.95991.96924,1.6597,1.94192,2.69326,2.879a11.484,11.484,0,0,0-.053-1.21643,2.85347,2.85347,0,0,0-.66986-.72205c-.76425-.07358-1.16248-1.1026-1.97047-.94049Z"/><path id="path259" class="cls-3" d="M172.77272,67.91453a1.47013,1.47013,0,0,0,.11049.27939,14.16,14.16,0,0,1,1.10954,2.142c-.08748-.79678.45118-1.78556-.26128-2.39952-.09552-.25985-.41665-.17247-.62383-.15177l-.33493.12992Z"/><path id="path261" class="cls-3" d="M175.359,75.77419c.30155.14027.68943-.10692.98064-.27939a.88874.88874,0,0,1,.70093.2265c.08518.17131,0,.33343.03223.49554a6.541,6.541,0,0,1,1.85076.79563l.18186-.18281a1.26724,1.26724,0,0,0-.66757-1.05547c-.22445-.12877-.56052-.05289-.72051-.25754a1.11827,1.11827,0,0,0,.09668-.62431,1.5639,1.5639,0,0,1-.87129-.27939c-.18416-.054-.34644-.2058-.49723,0-.5375.36447-.56972.9037-1.08651,1.16124Z"/><path id="path263" class="cls-3" d="M176.11515,62.23479a1.95125,1.95125,0,0,0,.77461-.34608c.72281-.6565,1.76674-.215,2.6081-.22535a5.87275,5.87275,0,0,0-.59391-.829,2.48545,2.48545,0,0,0-.92652-.25755c-.73316-.43115-1.22693.29089-1.78861.645a1.19073,1.19073,0,0,0-.07365,1.01293Z"/><path id="path265" class="cls-3" d="M176.13355,64.45035c0-.03334,0-.06669.03223-.07474.099.08508-.01036.292.15193.33343a6.32029,6.32029,0,0,0,.79648-.51623c.72165,0,1.15327-.7002,1.86226-.7002a10.78573,10.78573,0,0,1,3.39306,1.03247,2.32812,2.32812,0,0,0-1.29138-1.64528.884.884,0,0,0-.86207.25869c-.72052.453-.34414-.6565-.84943-.67835a5.32944,5.32944,0,0,1-2.06944.36447c-.43046.16326-.73316.55993-1.21773.51623A2.80992,2.80992,0,0,0,176.13355,64.45035Z"/><path id="path267" class="cls-3" d="M176.63078,66.84872c.22559.23914.602.19545.92652.23914l.93689-.36792c.01036-.169-.27968-.215-.21523-.40815.259-.29089.61231-.08509.93688-.20351.45118-.06553.915-.51509,1.36736-.184-.0138.05519.01956.12877-.023.184-.13927.33343.09668.53808.35565.66685.5283.09658,1.02206.58177,1.55036.36447a9.69051,9.69051,0,0,0-.27854-1.26932c-.442-.07473-.755-.44035-1.16363-.59212a.881.881,0,0,1-.64684.27939c-.82985-.19431-1.822-.71054-2.661-.18281-.30155.36677-.84021.2587-1.24995.41966A4.88336,4.88336,0,0,0,176.63078,66.84872Z"/><path id="path269" class="cls-3" d="M176.98644,73.2459c-.06446.18281-.24746.48289.08747.57027.68829.0207,1.57223-.33457,2.11088.20351.183.14027.09553.43115.084.614l.90466.75308a7.9382,7.9382,0,0,0,.26127-1.34635,1.50887,1.50887,0,0,0-.55016-.90255c-.5939,0-.93688-.6933-1.57452-.60822-.33263-.07358-.62383.2219-.95875.2219a5.581,5.581,0,0,0-.36486.4944Z"/><path id="path271" class="cls-3" d="M177.24425,68.17207c.13927.29089.30271.76459.57089.79563a3.07537,3.07537,0,0,1,2.27317-.14832c.236.04139.236.31043.18416.48289.36486.215.80683.38747,1.1947.62317l-.10819-.64616c-.02186-.699-.90351-.76228-.95875-1.45213a4.25429,4.25429,0,0,0-2.29387-.12877c-.24746.22535-.60426.19545-.90352.25869-.02186.08623.02993.14142.04143.215Z"/><path id="path273" class="cls-3" d="M177.42725,71.65925c.42011-.11957.69059-.58062,1.14291-.62431a2.10988,2.10988,0,0,1,1.73452.8853c.25781.169.20372.61052.53865.61052a10.476,10.476,0,0,1,.0518-1.54986c-.45-.75193-1.57108-.17016-1.99118-1.05432l-.79647.054c-.572.14142-.42011.80827-.49491,1.26127-.06561.138-.19452.246-.1853.41736Z"/><path id="path275" class="cls-3" d="M181.382,76.36631c.33263.66686,1.06695,1.17274,1.14061,1.93617a3.51648,3.51648,0,0,0,.40859-.66685c-.0115-.215-.259-.215-.3545-.38747-.099-.27939.05179-.52658.09552-.77493a2.11347,2.11347,0,0,0-.85056-1.01178l-.43968.90485Z"/><path id="path277" class="cls-3" d="M182.70676,74.66584l.77461,1.05546a2.77637,2.77637,0,0,0,.20372-1.93732c-.07366-.11957-.21523-.31273-.40745-.22535C182.98644,73.85872,182.94271,74.32206,182.70676,74.66584Z"/><path id="path279" class="cls-3" d="M179.54963,45.21395a2.24788,2.24788,0,0,0,.8851.29089,1.11275,1.11275,0,0,1,.79647-.12878c.39823.2587.88279-.054,1.34663-.03219a4.9986,4.9986,0,0,0-1.34663-.85081C180.627,44.62068,180.14353,45.05184,179.54963,45.21395Z"/><path id="path281" class="cls-3" d="M183.76105,46.22343c.57088.054.98177.55992,1.36735.97958a1.919,1.919,0,0,1,1.14061.77378l-.1807-.56912a3.67323,3.67323,0,0,0-.85172-1.46478A4.24977,4.24977,0,0,0,183.76105,46.22343Z"/><path id="path283" class="cls-4" d="M143.56572,41.50487l.31306.03334c.83791.41966,2.1949.63466,2.27317,1.84994a6.61163,6.61163,0,0,0-2.35028,1.474c-.51563-.52659-1.56072-.23685-1.73452-1.16125C142.23059,42.82708,142.54135,41.72907,143.56572,41.50487Z"/><path id="path285" class="cls-4" d="M144.37484,46.96156c.98063-.08738,1.92788.05174,2.94073-.03334a1.28789,1.28789,0,0,1,.62383.56912c-.03338,1.1624-.38788,2.2719-.44083,3.46534a1.58962,1.58962,0,0,0-.98177,1.03247,8.48941,8.48941,0,0,0-1.14291.53693,1.14421,1.14421,0,0,1,.16344-1.21643c.4201-.591,1.50891-.453,1.42259-1.38889.27969-.4507.01152-1.03247.01957-1.505-.107-.35642-.21523.11842-.38672.10693a1.39918,1.39918,0,0,1-1.00135-.077c-.22674-.23684-.50413-.43115-.57089-.75193a1.76127,1.76127,0,0,1-.808-.699l.16228-.03909Z"/><path id="path287" class="cls-4" d="M145.55919,53.97386c.46039.06669.94725-.14027,1.34548.08738-.084.15177-.31191.215-.49491.2587l-.72281.33227C145.41877,54.589,145.56955,54.15782,145.55919,53.97386Z"/><path id="path289" class="cls-4" d="M147.44333,44.9909c.46154-.15062.95876-.46105,1.45368-.31273a7.03991,7.03991,0,0,0-.90352,1.24862L146.518,45.8946A2.09157,2.09157,0,0,1,147.44333,44.9909Z"/><path id="path291" class="cls-4" d="M151.76292,44.63678c.61346-.10693.58008.68869,1.14061.71859.099.12877.23939.24719.18416.4415a9.22374,9.22374,0,0,1-1.16364.15062c-.4857-.269-.17149-1.10836-.93689-1.05432-.04259-.06554-.12776-.19431-.02186-.23685A1.811,1.811,0,0,1,151.76292,44.63678Z"/><path id="path293" class="cls-4" d="M151.375,47.518a1.47014,1.47014,0,0,1,1.067-.48289l2.79.05173c.11855.10923-.10818.20581-.10818.33458-.1715.16212-.42011.20581-.57089.35527-.366.01035-.33377.4415-.5916.62546-.39939.39782-.98178.21386-1.44447.15062a1.26783,1.26783,0,0,1-.42125-.46335l-.12891.12877c.16229.60362.1197,1.27047.2394,1.88329l.66757.4415c.01036.98878,1.174.71974,1.67926,1.26932a2.959,2.959,0,0,1-.61347.95774,3.656,3.656,0,0,0-1.36736-.829c-.04374-.57832-.67906-.92439-1.03242-1.21413-.099-1.05547-.1197-2.13163-.29119-3.15375Z"/><path id="path295" class="cls-4" d="M152.3879,54.15782h1.29369l-.16229.6772-1.29484-.54843c-.02993-.10692.08747-.13912.16343-.12877Z"/><path id="path297" class="cls-4" d="M154.714,41.96822l.95875-.30124a9.68718,9.68718,0,0,1,1.57222.94624,3.785,3.785,0,0,1,.15077,2.53864c-.2912.32193-.92652,0-1.16247.51624h-.04489a4.70742,4.70742,0,0,0-2.30424-2.37653,1.991,1.991,0,0,1,.82984-1.32335Z"/></g></g></g></svg>