<svg id="Layer_1" data-name="Layer 1" xmlns="http://www.w3.org/2000/svg" viewBox="0 0 215 127"><defs><style>.cls-1{fill:transparent;}.cls-2{fill:#64c3a5;}.cls-2,.cls-3,.cls-4,.cls-5{fill-rule:evenodd;}.cls-3{fill:#e9d661;}.cls-4{fill:#0582bd;}.cls-5{fill:#808285;}</style></defs><title>kubernetes.io-logos</title><rect class="cls-1" x="-3.21396" y="-3.67916" width="223.25536" height="134.51136"/><path class="cls-2" d="M109.66922,82.43741A19.57065,19.57065,0,0,1,90.35516,66.01248a19.57588,19.57588,0,0,1,17.35089-16.32394A19.571,19.571,0,0,0,96.842,72.59509a13.28048,13.28048,0,0,0,12.82726,9.84232"/><path class="cls-3" d="M107.70538,49.68854q.96877-.09621,1.96384-.09714a19.59034,19.59034,0,0,1,5.971.93243c-1.19879,3.42362-2.9112,5.60261-4.58257,5.4263a13.51316,13.51316,0,0,0-1.38838-.07249,13.2911,13.2911,0,0,0-12.94535,16.2528,19.572,19.572,0,0,1,10.98151-22.4419"/><path class="cls-4" d="M118.5549,59.2884c-1.24844-1.1244-.77543-3.85447.96614-7.03615a19.56137,19.56137,0,1,1-29.16566,13.762,19.57091,19.57091,0,0,0,19.31384,16.42316,13.27982,13.27982,0,0,0,8.88568-23.149"/><path class="cls-5" d="M148.72465,56.68991a6.07242,6.07242,0,0,0-9.10641,5.25828v24.793H133.331v-24.793a12.36017,12.36017,0,0,1,18.53664-10.70293l-3.143,5.44465Zm24.605-2.97568a12.35685,12.35685,0,0,1,21.57057,8.234v24.793h-6.28659v-24.793a6.07039,6.07039,0,1,0-12.14078,0v24.793h-6.28662v-24.793a6.07006,6.07006,0,1,0-12.14012,0v24.793h-6.28747v-24.793a12.35715,12.35715,0,0,1,21.571-8.234m-79.275-11.71068a6.07292,6.07292,0,0,0-9.10642,5.25869v3.15422h6.60732l-2.79511,6.27307H84.94817V86.74119H78.66091v-39.479A12.3589,12.3589,0,0,1,97.19756,36.55965L94.625,42.333l-.57036-.32949ZM20.49076,54.8028a13.15543,13.15543,0,0,1,10.7037-5.2114c7.03714,0,12.74106,5.1005,12.74106,11.39221l-.01237,16.34832c0,6.29168-5.704,11.39208-12.74112,11.39208s-12.741-5.1004-12.741-11.39208c0-5.26947,3.663-9.84144,9.772-11.47815l9.43621-2.52868.01242-2.34149c0-2.82005-2.895-5.106-6.46627-5.106a7.12669,7.12669,0,0,0-5.22007,2.0919l-.66586.73592L20.49076,54.8028ZM37.64921,69.84037l-.00073,7.49156c-.00018,2.81872-2.89507,5.10548-6.46645,5.10548s-6.46627-2.28565-6.46627-5.10548c0-2.41256,2.2001-4.61169,5.09086-5.38735l7.84259-2.10421Zm29.58343-32.952v14.2779a13.83819,13.83819,0,0,0-6.46716-1.57488c-7.03708,0-12.74094,5.1005-12.74094,11.39221V77.33193c0,6.29168,5.70386,11.39208,12.74094,11.39208s12.74117-5.1004,12.74117-11.39208V36.88838Zm0,24.09523V77.33193c0,2.81983-2.89487,5.10548-6.46628,5.10548s-6.46627-2.28565-6.46627-5.10548V60.98361c0-2.82005,2.89487-5.106,6.46627-5.106s6.46628,2.28592,6.46628,5.106"/></svg>