<svg width="950" height="500" viewBox="0 0 950 500" fill="none" xmlns="http://www.w3.org/2000/svg">
<rect width="950" height="500" fill="white"/>
<path d="M70 76.4C70 69.5517 74.4772 64 80 64H360C365.523 64 370 69.5517 370 76.4V423.6C370 430.448 365.523 436 360 436H80C74.4772 436 70 430.448 70 423.6V76.4Z" fill="white"/>
<path fill-rule="evenodd" clip-rule="evenodd" d="M360 66.48H80C75.5817 66.48 72 70.9213 72 76.4V423.6C72 429.079 75.5817 433.52 80 433.52H360C364.418 433.52 368 429.079 368 423.6V76.4C368 70.9213 364.418 66.48 360 66.48ZM80 64C74.4772 64 70 69.5517 70 76.4V423.6C70 430.448 74.4772 436 80 436H360C365.523 436 370 430.448 370 423.6V76.4C370 69.5517 365.523 64 360 64H80Z" fill="url(#paint0_linear_466_230)"/>
<path d="M139.174 122V102.26H141.358L149.226 117.016H148.358L156.198 102.26H158.354V122H156.002V105.872H156.618L149.59 118.976H147.966L140.854 105.844H141.526V122H139.174ZM167.157 122.252C166.224 122.252 165.375 122.065 164.609 121.692C163.863 121.319 163.275 120.815 162.845 120.18C162.435 119.545 162.229 118.836 162.229 118.052C162.229 117.044 162.481 116.251 162.985 115.672C163.489 115.093 164.339 114.683 165.533 114.44C166.728 114.179 168.333 114.048 170.349 114.048H171.665V115.672H170.405C169.323 115.672 168.417 115.709 167.689 115.784C166.961 115.859 166.383 115.98 165.953 116.148C165.524 116.316 165.216 116.549 165.029 116.848C164.843 117.128 164.749 117.483 164.749 117.912C164.749 118.64 165.001 119.237 165.505 119.704C166.028 120.171 166.737 120.404 167.633 120.404C168.343 120.404 168.968 120.236 169.509 119.9C170.051 119.545 170.48 119.079 170.797 118.5C171.115 117.903 171.273 117.221 171.273 116.456V113.236C171.273 112.135 171.049 111.341 170.601 110.856C170.153 110.352 169.397 110.1 168.333 110.1C167.549 110.1 166.765 110.221 165.981 110.464C165.216 110.707 164.423 111.08 163.601 111.584L162.789 109.764C163.275 109.428 163.825 109.139 164.441 108.896C165.076 108.635 165.729 108.439 166.401 108.308C167.092 108.177 167.755 108.112 168.389 108.112C169.603 108.112 170.601 108.308 171.385 108.7C172.169 109.073 172.757 109.661 173.149 110.464C173.541 111.248 173.737 112.256 173.737 113.488V122H171.329V118.892H171.581C171.432 119.583 171.152 120.18 170.741 120.684C170.331 121.188 169.817 121.58 169.201 121.86C168.604 122.121 167.923 122.252 167.157 122.252ZM177.747 122V108.364H180.239V111.332H179.931C180.323 110.268 180.958 109.465 181.835 108.924C182.731 108.383 183.748 108.112 184.887 108.112C185.988 108.112 186.894 108.308 187.603 108.7C188.312 109.092 188.844 109.699 189.199 110.52C189.554 111.323 189.731 112.331 189.731 113.544V122H187.183V113.684C187.183 112.881 187.08 112.219 186.875 111.696C186.67 111.173 186.343 110.791 185.895 110.548C185.466 110.305 184.915 110.184 184.243 110.184C183.459 110.184 182.768 110.352 182.171 110.688C181.574 111.024 181.107 111.5 180.771 112.116C180.454 112.732 180.295 113.451 180.295 114.272V122H177.747ZM198.111 122.252C197.177 122.252 196.328 122.065 195.563 121.692C194.816 121.319 194.228 120.815 193.799 120.18C193.388 119.545 193.183 118.836 193.183 118.052C193.183 117.044 193.435 116.251 193.939 115.672C194.443 115.093 195.292 114.683 196.487 114.44C197.681 114.179 199.287 114.048 201.303 114.048H202.619V115.672H201.359C200.276 115.672 199.371 115.709 198.643 115.784C197.915 115.859 197.336 115.98 196.907 116.148C196.477 116.316 196.169 116.549 195.983 116.848C195.796 117.128 195.703 117.483 195.703 117.912C195.703 118.64 195.955 119.237 196.459 119.704C196.981 120.171 197.691 120.404 198.587 120.404C199.296 120.404 199.921 120.236 200.463 119.9C201.004 119.545 201.433 119.079 201.751 118.5C202.068 117.903 202.227 117.221 202.227 116.456V113.236C202.227 112.135 202.003 111.341 201.555 110.856C201.107 110.352 200.351 110.1 199.287 110.1C198.503 110.1 197.719 110.221 196.935 110.464C196.169 110.707 195.376 111.08 194.555 111.584L193.743 109.764C194.228 109.428 194.779 109.139 195.395 108.896C196.029 108.635 196.683 108.439 197.355 108.308C198.045 108.177 198.708 108.112 199.343 108.112C200.556 108.112 201.555 108.308 202.339 108.7C203.123 109.073 203.711 109.661 204.103 110.464C204.495 111.248 204.691 112.256 204.691 113.488V122H202.283V118.892H202.535C202.385 119.583 202.105 120.18 201.695 120.684C201.284 121.188 200.771 121.58 200.155 121.86C199.557 122.121 198.876 122.252 198.111 122.252ZM214.832 127.292C213.619 127.292 212.49 127.143 211.444 126.844C210.399 126.545 209.466 126.088 208.644 125.472L209.456 123.624C210.016 123.997 210.567 124.305 211.108 124.548C211.668 124.809 212.238 124.996 212.816 125.108C213.414 125.22 214.03 125.276 214.664 125.276C215.99 125.276 216.979 124.931 217.632 124.24C218.304 123.568 218.64 122.579 218.64 121.272V118.248H218.892C218.631 119.293 218.043 120.124 217.128 120.74C216.232 121.356 215.187 121.664 213.992 121.664C212.76 121.664 211.687 121.384 210.772 120.824C209.858 120.245 209.148 119.452 208.644 118.444C208.14 117.417 207.888 116.232 207.888 114.888C207.888 113.525 208.14 112.34 208.644 111.332C209.148 110.305 209.858 109.512 210.772 108.952C211.687 108.392 212.76 108.112 213.992 108.112C215.206 108.112 216.26 108.42 217.156 109.036C218.052 109.652 218.631 110.483 218.892 111.528H218.64V108.364H221.132V120.936C221.132 122.336 220.89 123.512 220.404 124.464C219.938 125.416 219.238 126.125 218.304 126.592C217.371 127.059 216.214 127.292 214.832 127.292ZM214.552 119.648C215.803 119.648 216.792 119.219 217.52 118.36C218.248 117.501 218.612 116.344 218.612 114.888C218.612 113.413 218.248 112.256 217.52 111.416C216.792 110.557 215.803 110.128 214.552 110.128C213.302 110.128 212.303 110.557 211.556 111.416C210.828 112.256 210.464 113.413 210.464 114.888C210.464 116.344 210.828 117.501 211.556 118.36C212.303 119.219 213.302 119.648 214.552 119.648ZM231.516 122.252C230.041 122.252 228.772 121.972 227.708 121.412C226.663 120.833 225.851 120.021 225.272 118.976C224.693 117.912 224.404 116.661 224.404 115.224C224.404 113.805 224.684 112.564 225.244 111.5C225.823 110.436 226.607 109.605 227.596 109.008C228.604 108.411 229.752 108.112 231.04 108.112C232.291 108.112 233.355 108.383 234.232 108.924C235.128 109.465 235.809 110.24 236.276 111.248C236.761 112.237 237.004 113.432 237.004 114.832V115.756H226.392V114.132H235.324L234.848 114.524C234.848 113.068 234.531 111.948 233.896 111.164C233.261 110.361 232.328 109.96 231.096 109.96C230.2 109.96 229.435 110.175 228.8 110.604C228.165 111.015 227.68 111.603 227.344 112.368C227.008 113.115 226.84 113.983 226.84 114.972V115.14C226.84 116.26 227.017 117.203 227.372 117.968C227.745 118.715 228.277 119.284 228.968 119.676C229.659 120.049 230.508 120.236 231.516 120.236C232.319 120.236 233.093 120.115 233.84 119.872C234.605 119.611 235.324 119.209 235.996 118.668L236.78 120.432C236.164 120.992 235.371 121.44 234.4 121.776C233.448 122.093 232.487 122.252 231.516 122.252ZM240.229 122V108.364H242.721V111.332H242.413C242.656 110.641 242.992 110.063 243.421 109.596C243.85 109.111 244.364 108.747 244.961 108.504C245.577 108.243 246.249 108.112 246.977 108.112C248.134 108.112 249.068 108.392 249.777 108.952C250.486 109.493 250.962 110.324 251.205 111.444H250.813C251.149 110.417 251.746 109.605 252.605 109.008C253.482 108.411 254.5 108.112 255.657 108.112C256.684 108.112 257.524 108.317 258.177 108.728C258.849 109.12 259.353 109.717 259.689 110.52C260.025 111.304 260.193 112.312 260.193 113.544V122H257.645V113.656C257.645 112.461 257.44 111.584 257.029 111.024C256.618 110.464 255.928 110.184 254.957 110.184C254.248 110.184 253.632 110.352 253.109 110.688C252.586 111.024 252.185 111.5 251.905 112.116C251.625 112.732 251.485 113.469 251.485 114.328V122H248.937V113.656C248.937 112.461 248.732 111.584 248.321 111.024C247.91 110.464 247.22 110.184 246.249 110.184C245.54 110.184 244.924 110.352 244.401 110.688C243.878 111.024 243.477 111.5 243.197 112.116C242.917 112.732 242.777 113.469 242.777 114.328V122H240.229ZM270.59 122.252C269.115 122.252 267.846 121.972 266.782 121.412C265.737 120.833 264.925 120.021 264.346 118.976C263.767 117.912 263.478 116.661 263.478 115.224C263.478 113.805 263.758 112.564 264.318 111.5C264.897 110.436 265.681 109.605 266.67 109.008C267.678 108.411 268.826 108.112 270.114 108.112C271.365 108.112 272.429 108.383 273.306 108.924C274.202 109.465 274.883 110.24 275.35 111.248C275.835 112.237 276.078 113.432 276.078 114.832V115.756H265.466V114.132H274.398L273.922 114.524C273.922 113.068 273.605 111.948 272.97 111.164C272.335 110.361 271.402 109.96 270.17 109.96C269.274 109.96 268.509 110.175 267.874 110.604C267.239 111.015 266.754 111.603 266.418 112.368C266.082 113.115 265.914 113.983 265.914 114.972V115.14C265.914 116.26 266.091 117.203 266.446 117.968C266.819 118.715 267.351 119.284 268.042 119.676C268.733 120.049 269.582 120.236 270.59 120.236C271.393 120.236 272.167 120.115 272.914 119.872C273.679 119.611 274.398 119.209 275.07 118.668L275.854 120.432C275.238 120.992 274.445 121.44 273.474 121.776C272.522 122.093 271.561 122.252 270.59 122.252ZM279.247 122V108.364H281.739V111.332H281.431C281.823 110.268 282.458 109.465 283.335 108.924C284.231 108.383 285.248 108.112 286.387 108.112C287.488 108.112 288.394 108.308 289.103 108.7C289.812 109.092 290.344 109.699 290.699 110.52C291.054 111.323 291.231 112.331 291.231 113.544V122H288.683V113.684C288.683 112.881 288.58 112.219 288.375 111.696C288.17 111.173 287.843 110.791 287.395 110.548C286.966 110.305 286.415 110.184 285.743 110.184C284.959 110.184 284.268 110.352 283.671 110.688C283.074 111.024 282.607 111.5 282.271 112.116C281.954 112.732 281.795 113.451 281.795 114.272V122H279.247ZM300.927 122.252C299.265 122.252 298.024 121.823 297.203 120.964C296.381 120.087 295.971 118.836 295.971 117.212V110.324H293.311V108.364H295.971V104.22H298.519V108.364H302.803V110.324H298.519V116.988C298.519 118.015 298.733 118.789 299.163 119.312C299.592 119.835 300.301 120.096 301.291 120.096C301.589 120.096 301.879 120.068 302.159 120.012C302.457 119.937 302.737 119.863 302.999 119.788L303.419 121.692C303.157 121.86 302.784 121.991 302.299 122.084C301.832 122.196 301.375 122.252 300.927 122.252ZM103.735 160V140.26H106.339V149.192H106.395L115.747 140.26H119.023L108.159 150.508L108.187 149.192L119.583 160H116.279L106.395 150.732H106.339V160H103.735ZM125.744 160.252C124.643 160.252 123.719 160.047 122.972 159.636C122.244 159.225 121.703 158.619 121.348 157.816C120.993 157.013 120.816 156.005 120.816 154.792V146.364H123.364V154.792C123.364 155.557 123.467 156.192 123.672 156.696C123.877 157.2 124.195 157.573 124.624 157.816C125.072 158.059 125.632 158.18 126.304 158.18C127.051 158.18 127.704 158.012 128.264 157.676C128.824 157.34 129.263 156.864 129.58 156.248C129.897 155.632 130.056 154.913 130.056 154.092V146.364H132.604V160H130.112V156.92H130.476C130.103 158.003 129.496 158.833 128.656 159.412C127.835 159.972 126.864 160.252 125.744 160.252ZM143.844 160.252C142.612 160.252 141.557 159.944 140.68 159.328C139.803 158.712 139.215 157.881 138.916 156.836H139.196V160H136.704V140.26H139.252V149.444H138.944C139.243 148.436 139.831 147.633 140.708 147.036C141.585 146.42 142.631 146.112 143.844 146.112C145.057 146.112 146.112 146.401 147.008 146.98C147.923 147.54 148.623 148.352 149.108 149.416C149.612 150.461 149.864 151.712 149.864 153.168C149.864 154.605 149.612 155.865 149.108 156.948C148.604 158.012 147.904 158.833 147.008 159.412C146.112 159.972 145.057 160.252 143.844 160.252ZM143.256 158.236C144.488 158.236 145.468 157.807 146.196 156.948C146.924 156.071 147.288 154.811 147.288 153.168C147.288 151.525 146.924 150.275 146.196 149.416C145.468 148.557 144.488 148.128 143.256 148.128C142.024 148.128 141.044 148.557 140.316 149.416C139.588 150.275 139.224 151.525 139.224 153.168C139.224 154.811 139.588 156.071 140.316 156.948C141.044 157.807 142.024 158.236 143.256 158.236ZM159.438 160.252C157.963 160.252 156.694 159.972 155.63 159.412C154.584 158.833 153.772 158.021 153.194 156.976C152.615 155.912 152.326 154.661 152.326 153.224C152.326 151.805 152.606 150.564 153.166 149.5C153.744 148.436 154.528 147.605 155.518 147.008C156.526 146.411 157.674 146.112 158.962 146.112C160.212 146.112 161.276 146.383 162.154 146.924C163.05 147.465 163.731 148.24 164.198 149.248C164.683 150.237 164.926 151.432 164.926 152.832V153.756H154.314V152.132H163.246L162.77 152.524C162.77 151.068 162.452 149.948 161.818 149.164C161.183 148.361 160.25 147.96 159.018 147.96C158.122 147.96 157.356 148.175 156.722 148.604C156.087 149.015 155.602 149.603 155.266 150.368C154.93 151.115 154.762 151.983 154.762 152.972V153.14C154.762 154.26 154.939 155.203 155.294 155.968C155.667 156.715 156.199 157.284 156.89 157.676C157.58 158.049 158.43 158.236 159.438 158.236C160.24 158.236 161.015 158.115 161.762 157.872C162.527 157.611 163.246 157.209 163.918 156.668L164.702 158.432C164.086 158.992 163.292 159.44 162.322 159.776C161.37 160.093 160.408 160.252 159.438 160.252ZM168.095 160V146.364H170.587V149.612H170.307C170.605 148.492 171.147 147.652 171.931 147.092C172.715 146.513 173.751 146.177 175.039 146.084L175.907 146L176.103 148.212L174.507 148.352C173.275 148.483 172.323 148.884 171.651 149.556C170.997 150.228 170.671 151.152 170.671 152.328V160H168.095ZM178.321 160V146.364H180.813V149.332H180.505C180.897 148.268 181.532 147.465 182.409 146.924C183.305 146.383 184.323 146.112 185.461 146.112C186.563 146.112 187.468 146.308 188.177 146.7C188.887 147.092 189.419 147.699 189.773 148.52C190.128 149.323 190.305 150.331 190.305 151.544V160H187.757V151.684C187.757 150.881 187.655 150.219 187.449 149.696C187.244 149.173 186.917 148.791 186.469 148.548C186.04 148.305 185.489 148.184 184.817 148.184C184.033 148.184 183.343 148.352 182.745 148.688C182.148 149.024 181.681 149.5 181.345 150.116C181.028 150.732 180.869 151.451 180.869 152.272V160H178.321ZM200.645 160.252C199.17 160.252 197.901 159.972 196.837 159.412C195.791 158.833 194.979 158.021 194.401 156.976C193.822 155.912 193.533 154.661 193.533 153.224C193.533 151.805 193.813 150.564 194.373 149.5C194.951 148.436 195.735 147.605 196.725 147.008C197.733 146.411 198.881 146.112 200.169 146.112C201.419 146.112 202.483 146.383 203.361 146.924C204.257 147.465 204.938 148.24 205.405 149.248C205.89 150.237 206.133 151.432 206.133 152.832V153.756H195.521V152.132H204.453L203.977 152.524C203.977 151.068 203.659 149.948 203.025 149.164C202.39 148.361 201.457 147.96 200.225 147.96C199.329 147.96 198.563 148.175 197.929 148.604C197.294 149.015 196.809 149.603 196.473 150.368C196.137 151.115 195.969 151.983 195.969 152.972V153.14C195.969 154.26 196.146 155.203 196.501 155.968C196.874 156.715 197.406 157.284 198.097 157.676C198.787 158.049 199.637 158.236 200.645 158.236C201.447 158.236 202.222 158.115 202.969 157.872C203.734 157.611 204.453 157.209 205.125 156.668L205.909 158.432C205.293 158.992 204.499 159.44 203.529 159.776C202.577 160.093 201.615 160.252 200.645 160.252ZM214.93 160.252C213.269 160.252 212.028 159.823 211.206 158.964C210.385 158.087 209.974 156.836 209.974 155.212V148.324H207.314V146.364H209.974V142.22H212.522V146.364H216.806V148.324H212.522V154.988C212.522 156.015 212.737 156.789 213.166 157.312C213.596 157.835 214.305 158.096 215.294 158.096C215.593 158.096 215.882 158.068 216.162 158.012C216.461 157.937 216.741 157.863 217.002 157.788L217.422 159.692C217.161 159.86 216.788 159.991 216.302 160.084C215.836 160.196 215.378 160.252 214.93 160.252ZM225.473 160.252C223.998 160.252 222.729 159.972 221.665 159.412C220.62 158.833 219.808 158.021 219.229 156.976C218.65 155.912 218.361 154.661 218.361 153.224C218.361 151.805 218.641 150.564 219.201 149.5C219.78 148.436 220.564 147.605 221.553 147.008C222.561 146.411 223.709 146.112 224.997 146.112C226.248 146.112 227.312 146.383 228.189 146.924C229.085 147.465 229.766 148.24 230.233 149.248C230.718 150.237 230.961 151.432 230.961 152.832V153.756H220.349V152.132H229.281L228.805 152.524C228.805 151.068 228.488 149.948 227.853 149.164C227.218 148.361 226.285 147.96 225.053 147.96C224.157 147.96 223.392 148.175 222.757 148.604C222.122 149.015 221.637 149.603 221.301 150.368C220.965 151.115 220.797 151.983 220.797 152.972V153.14C220.797 154.26 220.974 155.203 221.329 155.968C221.702 156.715 222.234 157.284 222.925 157.676C223.616 158.049 224.465 158.236 225.473 158.236C226.276 158.236 227.05 158.115 227.797 157.872C228.562 157.611 229.281 157.209 229.953 156.668L230.737 158.432C230.121 158.992 229.328 159.44 228.357 159.776C227.405 160.093 226.444 160.252 225.473 160.252ZM238.834 160.252C238.125 160.252 237.425 160.187 236.734 160.056C236.062 159.925 235.437 159.739 234.858 159.496C234.298 159.235 233.803 158.927 233.374 158.572L234.13 156.808C234.578 157.144 235.063 157.433 235.586 157.676C236.109 157.9 236.65 158.068 237.21 158.18C237.77 158.292 238.33 158.348 238.89 158.348C239.917 158.348 240.691 158.161 241.214 157.788C241.737 157.415 241.998 156.92 241.998 156.304C241.998 155.781 241.821 155.38 241.466 155.1C241.13 154.801 240.598 154.577 239.87 154.428L237.266 153.896C236.109 153.635 235.231 153.205 234.634 152.608C234.055 151.992 233.766 151.208 233.766 150.256C233.766 149.416 233.99 148.688 234.438 148.072C234.905 147.437 235.549 146.952 236.37 146.616C237.191 146.28 238.134 146.112 239.198 146.112C239.833 146.112 240.449 146.177 241.046 146.308C241.643 146.439 242.203 146.625 242.726 146.868C243.249 147.111 243.687 147.428 244.042 147.82L243.258 149.556C242.903 149.22 242.502 148.94 242.054 148.716C241.606 148.492 241.139 148.324 240.654 148.212C240.169 148.081 239.683 148.016 239.198 148.016C238.19 148.016 237.425 148.212 236.902 148.604C236.398 148.996 236.146 149.509 236.146 150.144C236.146 150.629 236.295 151.031 236.594 151.348C236.911 151.665 237.406 151.899 238.078 152.048L240.682 152.58C241.895 152.841 242.81 153.261 243.426 153.84C244.042 154.4 244.35 155.165 244.35 156.136C244.35 156.995 244.117 157.732 243.65 158.348C243.202 158.964 242.558 159.44 241.718 159.776C240.897 160.093 239.935 160.252 238.834 160.252ZM260.847 160.252C259.465 160.252 258.271 159.963 257.263 159.384C256.255 158.787 255.48 157.956 254.939 156.892C254.397 155.809 254.127 154.54 254.127 153.084C254.127 151.647 254.397 150.405 254.939 149.36C255.48 148.315 256.255 147.512 257.263 146.952C258.271 146.392 259.465 146.112 260.847 146.112C261.705 146.112 262.545 146.261 263.367 146.56C264.207 146.859 264.897 147.279 265.439 147.82L264.599 149.612C264.057 149.127 263.469 148.763 262.835 148.52C262.2 148.277 261.593 148.156 261.015 148.156C259.652 148.156 258.597 148.585 257.851 149.444C257.104 150.303 256.731 151.525 256.731 153.112C256.731 154.699 257.104 155.949 257.851 156.864C258.597 157.76 259.652 158.208 261.015 158.208C261.593 158.208 262.2 158.087 262.835 157.844C263.469 157.601 264.057 157.228 264.599 156.724L265.439 158.544C264.897 159.085 264.197 159.505 263.339 159.804C262.499 160.103 261.668 160.252 260.847 160.252ZM272.294 160.252C270.838 160.252 269.746 159.841 269.018 159.02C268.309 158.18 267.954 156.976 267.954 155.408V140.26H270.502V155.212C270.502 155.847 270.586 156.388 270.754 156.836C270.941 157.265 271.202 157.583 271.538 157.788C271.893 157.993 272.331 158.096 272.854 158.096C273.059 158.096 273.265 158.087 273.47 158.068C273.694 158.049 273.899 158.012 274.086 157.956L274.03 160.028C273.731 160.103 273.433 160.159 273.134 160.196C272.854 160.233 272.574 160.252 272.294 160.252ZM281.248 160.252C280.147 160.252 279.223 160.047 278.476 159.636C277.748 159.225 277.207 158.619 276.852 157.816C276.497 157.013 276.32 156.005 276.32 154.792V146.364H278.868V154.792C278.868 155.557 278.971 156.192 279.176 156.696C279.381 157.2 279.699 157.573 280.128 157.816C280.576 158.059 281.136 158.18 281.808 158.18C282.555 158.18 283.208 158.012 283.768 157.676C284.328 157.34 284.767 156.864 285.084 156.248C285.401 155.632 285.56 154.913 285.56 154.092V146.364H288.108V160H285.616V156.92H285.98C285.607 158.003 285 158.833 284.16 159.412C283.339 159.972 282.368 160.252 281.248 160.252ZM296.912 160.252C296.203 160.252 295.503 160.187 294.812 160.056C294.14 159.925 293.515 159.739 292.936 159.496C292.376 159.235 291.881 158.927 291.452 158.572L292.208 156.808C292.656 157.144 293.141 157.433 293.664 157.676C294.187 157.9 294.728 158.068 295.288 158.18C295.848 158.292 296.408 158.348 296.968 158.348C297.995 158.348 298.769 158.161 299.292 157.788C299.815 157.415 300.076 156.92 300.076 156.304C300.076 155.781 299.899 155.38 299.544 155.1C299.208 154.801 298.676 154.577 297.948 154.428L295.344 153.896C294.187 153.635 293.309 153.205 292.712 152.608C292.133 151.992 291.844 151.208 291.844 150.256C291.844 149.416 292.068 148.688 292.516 148.072C292.983 147.437 293.627 146.952 294.448 146.616C295.269 146.28 296.212 146.112 297.276 146.112C297.911 146.112 298.527 146.177 299.124 146.308C299.721 146.439 300.281 146.625 300.804 146.868C301.327 147.111 301.765 147.428 302.12 147.82L301.336 149.556C300.981 149.22 300.58 148.94 300.132 148.716C299.684 148.492 299.217 148.324 298.732 148.212C298.247 148.081 297.761 148.016 297.276 148.016C296.268 148.016 295.503 148.212 294.98 148.604C294.476 148.996 294.224 149.509 294.224 150.144C294.224 150.629 294.373 151.031 294.672 151.348C294.989 151.665 295.484 151.899 296.156 152.048L298.76 152.58C299.973 152.841 300.888 153.261 301.504 153.84C302.12 154.4 302.428 155.165 302.428 156.136C302.428 156.995 302.195 157.732 301.728 158.348C301.28 158.964 300.636 159.44 299.796 159.776C298.975 160.093 298.013 160.252 296.912 160.252ZM311.263 160.252C309.601 160.252 308.36 159.823 307.539 158.964C306.717 158.087 306.307 156.836 306.307 155.212V148.324H303.647V146.364H306.307V142.22H308.855V146.364H313.139V148.324H308.855V154.988C308.855 156.015 309.069 156.789 309.499 157.312C309.928 157.835 310.637 158.096 311.627 158.096C311.925 158.096 312.215 158.068 312.495 158.012C312.793 157.937 313.073 157.863 313.335 157.788L313.755 159.692C313.493 159.86 313.12 159.991 312.635 160.084C312.168 160.196 311.711 160.252 311.263 160.252ZM321.805 160.252C320.33 160.252 319.061 159.972 317.997 159.412C316.952 158.833 316.14 158.021 315.561 156.976C314.982 155.912 314.693 154.661 314.693 153.224C314.693 151.805 314.973 150.564 315.533 149.5C316.112 148.436 316.896 147.605 317.885 147.008C318.893 146.411 320.041 146.112 321.329 146.112C322.58 146.112 323.644 146.383 324.521 146.924C325.417 147.465 326.098 148.24 326.565 149.248C327.05 150.237 327.293 151.432 327.293 152.832V153.756H316.681V152.132H325.613L325.137 152.524C325.137 151.068 324.82 149.948 324.185 149.164C323.55 148.361 322.617 147.96 321.385 147.96C320.489 147.96 319.724 148.175 319.089 148.604C318.454 149.015 317.969 149.603 317.633 150.368C317.297 151.115 317.129 151.983 317.129 152.972V153.14C317.129 154.26 317.306 155.203 317.661 155.968C318.034 156.715 318.566 157.284 319.257 157.676C319.948 158.049 320.797 158.236 321.805 158.236C322.608 158.236 323.382 158.115 324.129 157.872C324.894 157.611 325.613 157.209 326.285 156.668L327.069 158.432C326.453 158.992 325.66 159.44 324.689 159.776C323.737 160.093 322.776 160.252 321.805 160.252ZM330.462 160V146.364H332.954V149.612H332.674C332.973 148.492 333.514 147.652 334.298 147.092C335.082 146.513 336.118 146.177 337.406 146.084L338.274 146L338.47 148.212L336.874 148.352C335.642 148.483 334.69 148.884 334.018 149.556C333.365 150.228 333.038 151.152 333.038 152.328V160H330.462Z" fill="black"/>
<rect width="199" height="58" rx="10" transform="matrix(-1 0 0 1 299 202)" fill="url(#paint1_radial_466_230)"/>
<rect width="199" height="58" rx="10" transform="matrix(-1 0 0 1 299 202)" fill="black" fill-opacity="0.08"/>
<path d="M159.179 239V221.375H170.379V223.475H161.779V229.1H169.854V231.2H161.779V239H159.179ZM176.722 239.225C175.389 239.225 174.389 238.85 173.722 238.1C173.072 237.333 172.747 236.233 172.747 234.8V221.375H175.272V234.65C175.272 235.183 175.347 235.642 175.497 236.025C175.647 236.392 175.872 236.667 176.172 236.85C176.472 237.033 176.847 237.125 177.297 237.125C177.497 237.125 177.689 237.117 177.872 237.1C178.056 237.083 178.231 237.05 178.397 237L178.347 239.025C178.064 239.092 177.789 239.142 177.522 239.175C177.256 239.208 176.989 239.225 176.722 239.225ZM184.739 239.225C183.755 239.225 182.93 239.042 182.264 238.675C181.614 238.308 181.122 237.767 180.789 237.05C180.472 236.317 180.314 235.4 180.314 234.3V226.8H182.839V234.325C182.839 234.975 182.922 235.517 183.089 235.95C183.272 236.383 183.547 236.7 183.914 236.9C184.297 237.1 184.772 237.2 185.339 237.2C185.972 237.2 186.53 237.058 187.014 236.775C187.497 236.492 187.872 236.083 188.139 235.55C188.405 235.017 188.539 234.4 188.539 233.7V226.8H191.064V239H188.614V236.325H188.939C188.605 237.258 188.072 237.975 187.339 238.475C186.605 238.975 185.739 239.225 184.739 239.225ZM192.997 239L198.572 232.075V233.325L193.322 226.8H196.272L199.997 231.55H199.097L202.822 226.8H205.772L200.522 233.275V232.15L206.097 239H203.097L199.097 233.95H199.947L195.972 239H192.997ZM216.152 239.225C214.368 239.225 212.843 238.858 211.577 238.125C210.31 237.392 209.335 236.35 208.652 235C207.985 233.633 207.652 232.025 207.652 230.175C207.652 228.325 207.985 226.725 208.652 225.375C209.335 224.025 210.31 222.983 211.577 222.25C212.843 221.517 214.368 221.15 216.152 221.15C217.352 221.15 218.468 221.342 219.502 221.725C220.552 222.092 221.427 222.625 222.127 223.325L221.227 225.4C220.46 224.717 219.668 224.225 218.852 223.925C218.052 223.608 217.177 223.45 216.227 223.45C214.327 223.45 212.877 224.033 211.877 225.2C210.877 226.367 210.377 228.025 210.377 230.175C210.377 232.325 210.877 233.992 211.877 235.175C212.877 236.342 214.327 236.925 216.227 236.925C217.177 236.925 218.052 236.775 218.852 236.475C219.668 236.158 220.46 235.658 221.227 234.975L222.127 237.05C221.427 237.75 220.552 238.292 219.502 238.675C218.468 239.042 217.352 239.225 216.152 239.225ZM225.146 239V221.375H231.371C233.305 221.375 234.946 221.717 236.296 222.4C237.646 223.067 238.671 224.058 239.371 225.375C240.088 226.675 240.446 228.275 240.446 230.175C240.446 232.075 240.088 233.683 239.371 235C238.671 236.3 237.646 237.292 236.296 237.975C234.946 238.658 233.305 239 231.371 239H225.146ZM227.746 236.825H231.221C233.405 236.825 235.038 236.275 236.121 235.175C237.205 234.058 237.746 232.392 237.746 230.175C237.746 227.958 237.196 226.3 236.096 225.2C235.013 224.1 233.388 223.55 231.221 223.55H227.746V236.825Z" fill="white"/>
<path d="M570 72.2667C570 67.7011 574.477 64 580 64H860C865.523 64 870 67.7011 870 72.2667V303.733C870 308.299 865.523 312 860 312H580C574.477 312 570 308.299 570 303.733V72.2667Z" fill="white"/>
<path fill-rule="evenodd" clip-rule="evenodd" d="M860 65.6533H580C575.582 65.6533 572 68.6142 572 72.2667V303.733C572 307.386 575.582 310.347 580 310.347H860C864.418 310.347 868 307.386 868 303.733V72.2667C868 68.6142 864.418 65.6533 860 65.6533ZM580 64C574.477 64 570 67.7011 570 72.2667V303.733C570 308.299 574.477 312 580 312H860C865.523 312 870 308.299 870 303.733V72.2667C870 67.7011 865.523 64 860 64H580Z" fill="url(#paint2_linear_466_230)"/>
<path d="M683.788 122V104.472H676.704V102.26H693.476V104.472H686.392V122H683.788ZM699.783 122.252C698.309 122.252 697.039 121.972 695.975 121.412C694.93 120.833 694.118 120.021 693.539 118.976C692.961 117.912 692.671 116.661 692.671 115.224C692.671 113.805 692.951 112.564 693.511 111.5C694.09 110.436 694.874 109.605 695.863 109.008C696.871 108.411 698.019 108.112 699.307 108.112C700.558 108.112 701.622 108.383 702.499 108.924C703.395 109.465 704.077 110.24 704.543 111.248C705.029 112.237 705.271 113.432 705.271 114.832V115.756H694.659V114.132H703.591L703.115 114.524C703.115 113.068 702.798 111.948 702.163 111.164C701.529 110.361 700.595 109.96 699.363 109.96C698.467 109.96 697.702 110.175 697.067 110.604C696.433 111.015 695.947 111.603 695.611 112.368C695.275 113.115 695.107 113.983 695.107 114.972V115.14C695.107 116.26 695.285 117.203 695.639 117.968C696.013 118.715 696.545 119.284 697.235 119.676C697.926 120.049 698.775 120.236 699.783 120.236C700.586 120.236 701.361 120.115 702.107 119.872C702.873 119.611 703.591 119.209 704.263 118.668L705.047 120.432C704.431 120.992 703.638 121.44 702.667 121.776C701.715 122.093 700.754 122.252 699.783 122.252ZM708.44 122V108.364H710.932V111.332H710.624C711.016 110.268 711.651 109.465 712.528 108.924C713.424 108.383 714.442 108.112 715.58 108.112C716.682 108.112 717.587 108.308 718.296 108.7C719.006 109.092 719.538 109.699 719.892 110.52C720.247 111.323 720.424 112.331 720.424 113.544V122H717.876V113.684C717.876 112.881 717.774 112.219 717.568 111.696C717.363 111.173 717.036 110.791 716.588 110.548C716.159 110.305 715.608 110.184 714.936 110.184C714.152 110.184 713.462 110.352 712.864 110.688C712.267 111.024 711.8 111.5 711.464 112.116C711.147 112.732 710.988 113.451 710.988 114.272V122H708.44ZM728.804 122.252C727.871 122.252 727.021 122.065 726.256 121.692C725.509 121.319 724.921 120.815 724.492 120.18C724.081 119.545 723.876 118.836 723.876 118.052C723.876 117.044 724.128 116.251 724.632 115.672C725.136 115.093 725.985 114.683 727.18 114.44C728.375 114.179 729.98 114.048 731.996 114.048H733.312V115.672H732.052C730.969 115.672 730.064 115.709 729.336 115.784C728.608 115.859 728.029 115.98 727.6 116.148C727.171 116.316 726.863 116.549 726.676 116.848C726.489 117.128 726.396 117.483 726.396 117.912C726.396 118.64 726.648 119.237 727.152 119.704C727.675 120.171 728.384 120.404 729.28 120.404C729.989 120.404 730.615 120.236 731.156 119.9C731.697 119.545 732.127 119.079 732.444 118.5C732.761 117.903 732.92 117.221 732.92 116.456V113.236C732.92 112.135 732.696 111.341 732.248 110.856C731.8 110.352 731.044 110.1 729.98 110.1C729.196 110.1 728.412 110.221 727.628 110.464C726.863 110.707 726.069 111.08 725.248 111.584L724.436 109.764C724.921 109.428 725.472 109.139 726.088 108.896C726.723 108.635 727.376 108.439 728.048 108.308C728.739 108.177 729.401 108.112 730.036 108.112C731.249 108.112 732.248 108.308 733.032 108.7C733.816 109.073 734.404 109.661 734.796 110.464C735.188 111.248 735.384 112.256 735.384 113.488V122H732.976V118.892H733.228C733.079 119.583 732.799 120.18 732.388 120.684C731.977 121.188 731.464 121.58 730.848 121.86C730.251 122.121 729.569 122.252 728.804 122.252ZM739.394 122V108.364H741.886V111.332H741.578C741.97 110.268 742.604 109.465 743.482 108.924C744.378 108.383 745.395 108.112 746.534 108.112C747.635 108.112 748.54 108.308 749.25 108.7C749.959 109.092 750.491 109.699 750.846 110.52C751.2 111.323 751.378 112.331 751.378 113.544V122H748.83V113.684C748.83 112.881 748.727 112.219 748.522 111.696C748.316 111.173 747.99 110.791 747.542 110.548C747.112 110.305 746.562 110.184 745.89 110.184C745.106 110.184 744.415 110.352 743.818 110.688C743.22 111.024 742.754 111.5 742.418 112.116C742.1 112.732 741.942 113.451 741.942 114.272V122H739.394ZM761.073 122.252C759.412 122.252 758.17 121.823 757.349 120.964C756.528 120.087 756.117 118.836 756.117 117.212V110.324H753.457V108.364H756.117V104.22H758.665V108.364H762.949V110.324H758.665V116.988C758.665 118.015 758.88 118.789 759.309 119.312C759.738 119.835 760.448 120.096 761.437 120.096C761.736 120.096 762.025 120.068 762.305 120.012C762.604 119.937 762.884 119.863 763.145 119.788L763.565 121.692C763.304 121.86 762.93 121.991 762.445 122.084C761.978 122.196 761.521 122.252 761.073 122.252ZM603.735 160V140.26H606.339V149.192H606.395L615.747 140.26H619.023L608.159 150.508L608.187 149.192L619.583 160H616.279L606.395 150.732H606.339V160H603.735ZM625.744 160.252C624.643 160.252 623.719 160.047 622.972 159.636C622.244 159.225 621.703 158.619 621.348 157.816C620.993 157.013 620.816 156.005 620.816 154.792V146.364H623.364V154.792C623.364 155.557 623.467 156.192 623.672 156.696C623.877 157.2 624.195 157.573 624.624 157.816C625.072 158.059 625.632 158.18 626.304 158.18C627.051 158.18 627.704 158.012 628.264 157.676C628.824 157.34 629.263 156.864 629.58 156.248C629.897 155.632 630.056 154.913 630.056 154.092V146.364H632.604V160H630.112V156.92H630.476C630.103 158.003 629.496 158.833 628.656 159.412C627.835 159.972 626.864 160.252 625.744 160.252ZM643.844 160.252C642.612 160.252 641.557 159.944 640.68 159.328C639.803 158.712 639.215 157.881 638.916 156.836H639.196V160H636.704V140.26H639.252V149.444H638.944C639.243 148.436 639.831 147.633 640.708 147.036C641.585 146.42 642.631 146.112 643.844 146.112C645.057 146.112 646.112 146.401 647.008 146.98C647.923 147.54 648.623 148.352 649.108 149.416C649.612 150.461 649.864 151.712 649.864 153.168C649.864 154.605 649.612 155.865 649.108 156.948C648.604 158.012 647.904 158.833 647.008 159.412C646.112 159.972 645.057 160.252 643.844 160.252ZM643.256 158.236C644.488 158.236 645.468 157.807 646.196 156.948C646.924 156.071 647.288 154.811 647.288 153.168C647.288 151.525 646.924 150.275 646.196 149.416C645.468 148.557 644.488 148.128 643.256 148.128C642.024 148.128 641.044 148.557 640.316 149.416C639.588 150.275 639.224 151.525 639.224 153.168C639.224 154.811 639.588 156.071 640.316 156.948C641.044 157.807 642.024 158.236 643.256 158.236ZM659.438 160.252C657.963 160.252 656.694 159.972 655.63 159.412C654.584 158.833 653.772 158.021 653.194 156.976C652.615 155.912 652.326 154.661 652.326 153.224C652.326 151.805 652.606 150.564 653.166 149.5C653.744 148.436 654.528 147.605 655.518 147.008C656.526 146.411 657.674 146.112 658.962 146.112C660.212 146.112 661.276 146.383 662.154 146.924C663.05 147.465 663.731 148.24 664.198 149.248C664.683 150.237 664.926 151.432 664.926 152.832V153.756H654.314V152.132H663.246L662.77 152.524C662.77 151.068 662.452 149.948 661.818 149.164C661.183 148.361 660.25 147.96 659.018 147.96C658.122 147.96 657.356 148.175 656.722 148.604C656.087 149.015 655.602 149.603 655.266 150.368C654.93 151.115 654.762 151.983 654.762 152.972V153.14C654.762 154.26 654.939 155.203 655.294 155.968C655.667 156.715 656.199 157.284 656.89 157.676C657.58 158.049 658.43 158.236 659.438 158.236C660.24 158.236 661.015 158.115 661.762 157.872C662.527 157.611 663.246 157.209 663.918 156.668L664.702 158.432C664.086 158.992 663.292 159.44 662.322 159.776C661.37 160.093 660.408 160.252 659.438 160.252ZM668.095 160V146.364H670.587V149.612H670.307C670.605 148.492 671.147 147.652 671.931 147.092C672.715 146.513 673.751 146.177 675.039 146.084L675.907 146L676.103 148.212L674.507 148.352C673.275 148.483 672.323 148.884 671.651 149.556C670.997 150.228 670.671 151.152 670.671 152.328V160H668.095ZM678.321 160V146.364H680.813V149.332H680.505C680.897 148.268 681.532 147.465 682.409 146.924C683.305 146.383 684.323 146.112 685.461 146.112C686.563 146.112 687.468 146.308 688.177 146.7C688.887 147.092 689.419 147.699 689.773 148.52C690.128 149.323 690.305 150.331 690.305 151.544V160H687.757V151.684C687.757 150.881 687.655 150.219 687.449 149.696C687.244 149.173 686.917 148.791 686.469 148.548C686.04 148.305 685.489 148.184 684.817 148.184C684.033 148.184 683.343 148.352 682.745 148.688C682.148 149.024 681.681 149.5 681.345 150.116C681.028 150.732 680.869 151.451 680.869 152.272V160H678.321ZM700.645 160.252C699.17 160.252 697.901 159.972 696.837 159.412C695.791 158.833 694.979 158.021 694.401 156.976C693.822 155.912 693.533 154.661 693.533 153.224C693.533 151.805 693.813 150.564 694.373 149.5C694.951 148.436 695.735 147.605 696.725 147.008C697.733 146.411 698.881 146.112 700.169 146.112C701.419 146.112 702.483 146.383 703.361 146.924C704.257 147.465 704.938 148.24 705.405 149.248C705.89 150.237 706.133 151.432 706.133 152.832V153.756H695.521V152.132H704.453L703.977 152.524C703.977 151.068 703.659 149.948 703.025 149.164C702.39 148.361 701.457 147.96 700.225 147.96C699.329 147.96 698.563 148.175 697.929 148.604C697.294 149.015 696.809 149.603 696.473 150.368C696.137 151.115 695.969 151.983 695.969 152.972V153.14C695.969 154.26 696.146 155.203 696.501 155.968C696.874 156.715 697.406 157.284 698.097 157.676C698.787 158.049 699.637 158.236 700.645 158.236C701.447 158.236 702.222 158.115 702.969 157.872C703.734 157.611 704.453 157.209 705.125 156.668L705.909 158.432C705.293 158.992 704.499 159.44 703.529 159.776C702.577 160.093 701.615 160.252 700.645 160.252ZM714.93 160.252C713.269 160.252 712.028 159.823 711.206 158.964C710.385 158.087 709.974 156.836 709.974 155.212V148.324H707.314V146.364H709.974V142.22H712.522V146.364H716.806V148.324H712.522V154.988C712.522 156.015 712.737 156.789 713.166 157.312C713.596 157.835 714.305 158.096 715.294 158.096C715.593 158.096 715.882 158.068 716.162 158.012C716.461 157.937 716.741 157.863 717.002 157.788L717.422 159.692C717.161 159.86 716.788 159.991 716.302 160.084C715.836 160.196 715.378 160.252 714.93 160.252ZM725.473 160.252C723.998 160.252 722.729 159.972 721.665 159.412C720.62 158.833 719.808 158.021 719.229 156.976C718.65 155.912 718.361 154.661 718.361 153.224C718.361 151.805 718.641 150.564 719.201 149.5C719.78 148.436 720.564 147.605 721.553 147.008C722.561 146.411 723.709 146.112 724.997 146.112C726.248 146.112 727.312 146.383 728.189 146.924C729.085 147.465 729.766 148.24 730.233 149.248C730.718 150.237 730.961 151.432 730.961 152.832V153.756H720.349V152.132H729.281L728.805 152.524C728.805 151.068 728.488 149.948 727.853 149.164C727.218 148.361 726.285 147.96 725.053 147.96C724.157 147.96 723.392 148.175 722.757 148.604C722.122 149.015 721.637 149.603 721.301 150.368C720.965 151.115 720.797 151.983 720.797 152.972V153.14C720.797 154.26 720.974 155.203 721.329 155.968C721.702 156.715 722.234 157.284 722.925 157.676C723.616 158.049 724.465 158.236 725.473 158.236C726.276 158.236 727.05 158.115 727.797 157.872C728.562 157.611 729.281 157.209 729.953 156.668L730.737 158.432C730.121 158.992 729.328 159.44 728.357 159.776C727.405 160.093 726.444 160.252 725.473 160.252ZM738.834 160.252C738.125 160.252 737.425 160.187 736.734 160.056C736.062 159.925 735.437 159.739 734.858 159.496C734.298 159.235 733.803 158.927 733.374 158.572L734.13 156.808C734.578 157.144 735.063 157.433 735.586 157.676C736.109 157.9 736.65 158.068 737.21 158.18C737.77 158.292 738.33 158.348 738.89 158.348C739.917 158.348 740.691 158.161 741.214 157.788C741.737 157.415 741.998 156.92 741.998 156.304C741.998 155.781 741.821 155.38 741.466 155.1C741.13 154.801 740.598 154.577 739.87 154.428L737.266 153.896C736.109 153.635 735.231 153.205 734.634 152.608C734.055 151.992 733.766 151.208 733.766 150.256C733.766 149.416 733.99 148.688 734.438 148.072C734.905 147.437 735.549 146.952 736.37 146.616C737.191 146.28 738.134 146.112 739.198 146.112C739.833 146.112 740.449 146.177 741.046 146.308C741.643 146.439 742.203 146.625 742.726 146.868C743.249 147.111 743.687 147.428 744.042 147.82L743.258 149.556C742.903 149.22 742.502 148.94 742.054 148.716C741.606 148.492 741.139 148.324 740.654 148.212C740.169 148.081 739.683 148.016 739.198 148.016C738.19 148.016 737.425 148.212 736.902 148.604C736.398 148.996 736.146 149.509 736.146 150.144C736.146 150.629 736.295 151.031 736.594 151.348C736.911 151.665 737.406 151.899 738.078 152.048L740.682 152.58C741.895 152.841 742.81 153.261 743.426 153.84C744.042 154.4 744.35 155.165 744.35 156.136C744.35 156.995 744.117 157.732 743.65 158.348C743.202 158.964 742.558 159.44 741.718 159.776C740.897 160.093 739.935 160.252 738.834 160.252ZM760.847 160.252C759.465 160.252 758.271 159.963 757.263 159.384C756.255 158.787 755.48 157.956 754.939 156.892C754.397 155.809 754.127 154.54 754.127 153.084C754.127 151.647 754.397 150.405 754.939 149.36C755.48 148.315 756.255 147.512 757.263 146.952C758.271 146.392 759.465 146.112 760.847 146.112C761.705 146.112 762.545 146.261 763.367 146.56C764.207 146.859 764.897 147.279 765.439 147.82L764.599 149.612C764.057 149.127 763.469 148.763 762.835 148.52C762.2 148.277 761.593 148.156 761.015 148.156C759.652 148.156 758.597 148.585 757.851 149.444C757.104 150.303 756.731 151.525 756.731 153.112C756.731 154.699 757.104 155.949 757.851 156.864C758.597 157.76 759.652 158.208 761.015 158.208C761.593 158.208 762.2 158.087 762.835 157.844C763.469 157.601 764.057 157.228 764.599 156.724L765.439 158.544C764.897 159.085 764.197 159.505 763.339 159.804C762.499 160.103 761.668 160.252 760.847 160.252ZM772.294 160.252C770.838 160.252 769.746 159.841 769.018 159.02C768.309 158.18 767.954 156.976 767.954 155.408V140.26H770.502V155.212C770.502 155.847 770.586 156.388 770.754 156.836C770.941 157.265 771.202 157.583 771.538 157.788C771.893 157.993 772.331 158.096 772.854 158.096C773.059 158.096 773.265 158.087 773.47 158.068C773.694 158.049 773.899 158.012 774.086 157.956L774.03 160.028C773.731 160.103 773.433 160.159 773.134 160.196C772.854 160.233 772.574 160.252 772.294 160.252ZM781.248 160.252C780.147 160.252 779.223 160.047 778.476 159.636C777.748 159.225 777.207 158.619 776.852 157.816C776.497 157.013 776.32 156.005 776.32 154.792V146.364H778.868V154.792C778.868 155.557 778.971 156.192 779.176 156.696C779.381 157.2 779.699 157.573 780.128 157.816C780.576 158.059 781.136 158.18 781.808 158.18C782.555 158.18 783.208 158.012 783.768 157.676C784.328 157.34 784.767 156.864 785.084 156.248C785.401 155.632 785.56 154.913 785.56 154.092V146.364H788.108V160H785.616V156.92H785.98C785.607 158.003 785 158.833 784.16 159.412C783.339 159.972 782.368 160.252 781.248 160.252ZM796.912 160.252C796.203 160.252 795.503 160.187 794.812 160.056C794.14 159.925 793.515 159.739 792.936 159.496C792.376 159.235 791.881 158.927 791.452 158.572L792.208 156.808C792.656 157.144 793.141 157.433 793.664 157.676C794.187 157.9 794.728 158.068 795.288 158.18C795.848 158.292 796.408 158.348 796.968 158.348C797.995 158.348 798.769 158.161 799.292 157.788C799.815 157.415 800.076 156.92 800.076 156.304C800.076 155.781 799.899 155.38 799.544 155.1C799.208 154.801 798.676 154.577 797.948 154.428L795.344 153.896C794.187 153.635 793.309 153.205 792.712 152.608C792.133 151.992 791.844 151.208 791.844 150.256C791.844 149.416 792.068 148.688 792.516 148.072C792.983 147.437 793.627 146.952 794.448 146.616C795.269 146.28 796.212 146.112 797.276 146.112C797.911 146.112 798.527 146.177 799.124 146.308C799.721 146.439 800.281 146.625 800.804 146.868C801.327 147.111 801.765 147.428 802.12 147.82L801.336 149.556C800.981 149.22 800.58 148.94 800.132 148.716C799.684 148.492 799.217 148.324 798.732 148.212C798.247 148.081 797.761 148.016 797.276 148.016C796.268 148.016 795.503 148.212 794.98 148.604C794.476 148.996 794.224 149.509 794.224 150.144C794.224 150.629 794.373 151.031 794.672 151.348C794.989 151.665 795.484 151.899 796.156 152.048L798.76 152.58C799.973 152.841 800.888 153.261 801.504 153.84C802.12 154.4 802.428 155.165 802.428 156.136C802.428 156.995 802.195 157.732 801.728 158.348C801.28 158.964 800.636 159.44 799.796 159.776C798.975 160.093 798.013 160.252 796.912 160.252ZM811.263 160.252C809.601 160.252 808.36 159.823 807.539 158.964C806.717 158.087 806.307 156.836 806.307 155.212V148.324H803.647V146.364H806.307V142.22H808.855V146.364H813.139V148.324H808.855V154.988C808.855 156.015 809.069 156.789 809.499 157.312C809.928 157.835 810.637 158.096 811.627 158.096C811.925 158.096 812.215 158.068 812.495 158.012C812.793 157.937 813.073 157.863 813.335 157.788L813.755 159.692C813.493 159.86 813.12 159.991 812.635 160.084C812.168 160.196 811.711 160.252 811.263 160.252ZM821.805 160.252C820.33 160.252 819.061 159.972 817.997 159.412C816.952 158.833 816.14 158.021 815.561 156.976C814.982 155.912 814.693 154.661 814.693 153.224C814.693 151.805 814.973 150.564 815.533 149.5C816.112 148.436 816.896 147.605 817.885 147.008C818.893 146.411 820.041 146.112 821.329 146.112C822.58 146.112 823.644 146.383 824.521 146.924C825.417 147.465 826.098 148.24 826.565 149.248C827.05 150.237 827.293 151.432 827.293 152.832V153.756H816.681V152.132H825.613L825.137 152.524C825.137 151.068 824.82 149.948 824.185 149.164C823.55 148.361 822.617 147.96 821.385 147.96C820.489 147.96 819.724 148.175 819.089 148.604C818.454 149.015 817.969 149.603 817.633 150.368C817.297 151.115 817.129 151.983 817.129 152.972V153.14C817.129 154.26 817.306 155.203 817.661 155.968C818.034 156.715 818.566 157.284 819.257 157.676C819.948 158.049 820.797 158.236 821.805 158.236C822.608 158.236 823.382 158.115 824.129 157.872C824.894 157.611 825.613 157.209 826.285 156.668L827.069 158.432C826.453 158.992 825.66 159.44 824.689 159.776C823.737 160.093 822.776 160.252 821.805 160.252ZM830.462 160V146.364H832.954V149.612H832.674C832.973 148.492 833.514 147.652 834.298 147.092C835.082 146.513 836.118 146.177 837.406 146.084L838.274 146L838.47 148.212L836.874 148.352C835.642 148.483 834.69 148.884 834.018 149.556C833.365 150.228 833.038 151.152 833.038 152.328V160H830.462Z" fill="black"/>
<rect width="199" height="58" rx="10" transform="matrix(-1 0 0 1 820 202)" fill="url(#paint3_radial_466_230)"/>
<rect width="199" height="58" rx="10" transform="matrix(-1 0 0 1 820 202)" fill="black" fill-opacity="0.08"/>
<path d="M656.41 239.225C655.16 239.225 654.076 238.967 653.16 238.45C652.26 237.917 651.56 237.175 651.06 236.225C650.56 235.258 650.31 234.125 650.31 232.825C650.31 231.542 650.56 230.433 651.06 229.5C651.56 228.567 652.26 227.85 653.16 227.35C654.076 226.833 655.16 226.575 656.41 226.575C657.176 226.575 657.935 226.708 658.685 226.975C659.435 227.225 660.051 227.592 660.535 228.075L659.735 229.85C659.285 229.417 658.776 229.1 658.21 228.9C657.643 228.683 657.11 228.575 656.61 228.575C655.426 228.575 654.51 228.95 653.86 229.7C653.226 230.433 652.91 231.483 652.91 232.85C652.91 234.217 653.226 235.292 653.86 236.075C654.51 236.842 655.426 237.225 656.61 237.225C657.11 237.225 657.643 237.125 658.21 236.925C658.776 236.708 659.285 236.383 659.735 235.95L660.535 237.75C660.051 238.2 659.426 238.558 658.66 238.825C657.91 239.092 657.16 239.225 656.41 239.225ZM667.761 239.225C666.527 239.225 665.461 238.967 664.561 238.45C663.677 237.933 662.986 237.2 662.486 236.25C661.986 235.3 661.736 234.183 661.736 232.9C661.736 231.6 661.986 230.483 662.486 229.55C662.986 228.6 663.677 227.867 664.561 227.35C665.461 226.833 666.527 226.575 667.761 226.575C668.977 226.575 670.027 226.833 670.911 227.35C671.811 227.867 672.511 228.6 673.011 229.55C673.511 230.5 673.761 231.617 673.761 232.9C673.761 234.183 673.511 235.3 673.011 236.25C672.511 237.2 671.811 237.933 670.911 238.45C670.027 238.967 668.977 239.225 667.761 239.225ZM667.736 237.275C668.786 237.275 669.627 236.9 670.261 236.15C670.894 235.4 671.211 234.317 671.211 232.9C671.211 231.467 670.894 230.383 670.261 229.65C669.627 228.917 668.786 228.55 667.736 228.55C666.702 228.55 665.869 228.917 665.236 229.65C664.602 230.383 664.286 231.467 664.286 232.9C664.286 234.317 664.602 235.4 665.236 236.15C665.869 236.9 666.702 237.275 667.736 237.275ZM676.646 239V226.8H679.096V229.4H678.821C679.038 228.8 679.338 228.292 679.721 227.875C680.105 227.458 680.563 227.142 681.096 226.925C681.646 226.692 682.246 226.575 682.896 226.575C683.913 226.575 684.738 226.817 685.371 227.3C686.005 227.783 686.438 228.525 686.671 229.525H686.321C686.638 228.608 687.18 227.892 687.946 227.375C688.713 226.842 689.605 226.575 690.621 226.575C691.555 226.575 692.321 226.758 692.921 227.125C693.521 227.475 693.971 228.017 694.271 228.75C694.571 229.467 694.721 230.375 694.721 231.475V239H692.196V231.6C692.196 230.567 692.013 229.808 691.646 229.325C691.296 228.842 690.713 228.6 689.896 228.6C689.296 228.6 688.771 228.742 688.321 229.025C687.871 229.308 687.521 229.725 687.271 230.275C687.038 230.808 686.921 231.442 686.921 232.175V239H684.396V231.6C684.396 230.567 684.221 229.808 683.871 229.325C683.521 228.842 682.938 228.6 682.121 228.6C681.505 228.6 680.971 228.742 680.521 229.025C680.088 229.308 679.755 229.725 679.521 230.275C679.288 230.808 679.171 231.442 679.171 232.175V239H676.646ZM698.252 243.5V226.8H700.727V229.55H700.452C700.718 228.65 701.243 227.933 702.027 227.4C702.81 226.85 703.735 226.575 704.802 226.575C705.885 226.575 706.827 226.833 707.627 227.35C708.443 227.867 709.068 228.592 709.502 229.525C709.952 230.458 710.177 231.583 710.177 232.9C710.177 234.183 709.952 235.308 709.502 236.275C709.068 237.225 708.452 237.958 707.652 238.475C706.852 238.975 705.902 239.225 704.802 239.225C703.752 239.225 702.835 238.958 702.052 238.425C701.268 237.892 700.743 237.183 700.477 236.3H700.777V243.5H698.252ZM704.177 237.275C705.227 237.275 706.06 236.9 706.677 236.15C707.31 235.4 707.627 234.317 707.627 232.9C707.627 231.467 707.31 230.383 706.677 229.65C706.06 228.917 705.227 228.55 704.177 228.55C703.143 228.55 702.31 228.917 701.677 229.65C701.043 230.383 700.727 231.467 700.727 232.9C700.727 234.317 701.043 235.4 701.677 236.15C702.31 236.9 703.143 237.275 704.177 237.275ZM718.322 239.225C717.089 239.225 716.022 238.967 715.122 238.45C714.239 237.933 713.547 237.2 713.047 236.25C712.547 235.3 712.297 234.183 712.297 232.9C712.297 231.6 712.547 230.483 713.047 229.55C713.547 228.6 714.239 227.867 715.122 227.35C716.022 226.833 717.089 226.575 718.322 226.575C719.539 226.575 720.589 226.833 721.472 227.35C722.372 227.867 723.072 228.6 723.572 229.55C724.072 230.5 724.322 231.617 724.322 232.9C724.322 234.183 724.072 235.3 723.572 236.25C723.072 237.2 722.372 237.933 721.472 238.45C720.589 238.967 719.539 239.225 718.322 239.225ZM718.297 237.275C719.347 237.275 720.189 236.9 720.822 236.15C721.455 235.4 721.772 234.317 721.772 232.9C721.772 231.467 721.455 230.383 720.822 229.65C720.189 228.917 719.347 228.55 718.297 228.55C717.264 228.55 716.43 228.917 715.797 229.65C715.164 230.383 714.847 231.467 714.847 232.9C714.847 234.317 715.164 235.4 715.797 236.15C716.43 236.9 717.264 237.275 718.297 237.275ZM727.158 239V226.8H729.608V229.4H729.333C729.699 228.467 730.274 227.767 731.058 227.3C731.841 226.817 732.741 226.575 733.758 226.575C734.724 226.575 735.524 226.758 736.158 227.125C736.808 227.475 737.291 228.017 737.608 228.75C737.924 229.467 738.083 230.375 738.083 231.475V239H735.558V231.625C735.558 230.925 735.466 230.358 735.283 229.925C735.099 229.475 734.824 229.142 734.458 228.925C734.091 228.708 733.616 228.6 733.033 228.6C732.366 228.6 731.774 228.742 731.258 229.025C730.758 229.308 730.366 229.717 730.083 230.25C729.816 230.783 729.683 231.4 729.683 232.1V239H727.158ZM747.287 239.225C745.954 239.225 744.804 238.975 743.837 238.475C742.887 237.958 742.145 237.233 741.612 236.3C741.095 235.35 740.837 234.225 740.837 232.925C740.837 231.658 741.095 230.55 741.612 229.6C742.129 228.65 742.837 227.908 743.737 227.375C744.637 226.842 745.662 226.575 746.812 226.575C747.945 226.575 748.912 226.825 749.712 227.325C750.529 227.808 751.154 228.5 751.587 229.4C752.02 230.3 752.237 231.375 752.237 232.625V233.475H742.837V231.925H750.537L750.112 232.275C750.112 231.025 749.837 230.058 749.287 229.375C748.737 228.692 747.945 228.35 746.912 228.35C746.129 228.35 745.462 228.533 744.912 228.9C744.379 229.267 743.97 229.775 743.687 230.425C743.404 231.075 743.262 231.833 743.262 232.7V232.85C743.262 233.817 743.412 234.633 743.712 235.3C744.029 235.95 744.487 236.442 745.087 236.775C745.687 237.108 746.429 237.275 747.312 237.275C748.012 237.275 748.695 237.167 749.362 236.95C750.045 236.717 750.687 236.358 751.287 235.875L752.037 237.625C751.487 238.125 750.779 238.517 749.912 238.8C749.045 239.083 748.17 239.225 747.287 239.225ZM754.99 239V226.8H757.44V229.4H757.165C757.532 228.467 758.107 227.767 758.89 227.3C759.673 226.817 760.573 226.575 761.59 226.575C762.557 226.575 763.357 226.758 763.99 227.125C764.64 227.475 765.123 228.017 765.44 228.75C765.757 229.467 765.915 230.375 765.915 231.475V239H763.39V231.625C763.39 230.925 763.298 230.358 763.115 229.925C762.932 229.475 762.657 229.142 762.29 228.925C761.923 228.708 761.448 228.6 760.865 228.6C760.198 228.6 759.607 228.742 759.09 229.025C758.59 229.308 758.198 229.717 757.915 230.25C757.648 230.783 757.515 231.4 757.515 232.1V239H754.99ZM774.594 239.225C773.077 239.225 771.936 238.833 771.169 238.05C770.419 237.267 770.044 236.133 770.044 234.65V228.75H767.669V226.8H770.044V223.125H772.569V226.8H776.344V228.75H772.569V234.45C772.569 235.333 772.752 236 773.119 236.45C773.502 236.9 774.119 237.125 774.969 237.125C775.219 237.125 775.469 237.092 775.719 237.025C775.986 236.958 776.244 236.892 776.494 236.825L776.894 238.725C776.644 238.875 776.294 238.992 775.844 239.075C775.411 239.175 774.994 239.225 774.594 239.225ZM778.875 239V237.075L784.75 230.775C785.3 230.175 785.742 229.625 786.075 229.125C786.408 228.608 786.65 228.117 786.8 227.65C786.967 227.167 787.05 226.683 787.05 226.2C787.05 225.267 786.767 224.558 786.2 224.075C785.633 223.592 784.8 223.35 783.7 223.35C782.85 223.35 782.042 223.508 781.275 223.825C780.525 224.142 779.808 224.625 779.125 225.275L778.2 223.3C778.867 222.65 779.717 222.133 780.75 221.75C781.783 221.35 782.858 221.15 783.975 221.15C785.192 221.15 786.217 221.342 787.05 221.725C787.9 222.092 788.542 222.633 788.975 223.35C789.408 224.067 789.625 224.942 789.625 225.975C789.625 226.508 789.558 227.033 789.425 227.55C789.308 228.05 789.117 228.55 788.85 229.05C788.6 229.55 788.275 230.067 787.875 230.6C787.492 231.133 787.025 231.683 786.475 232.25L781.45 237.55V236.825H790.325V239H778.875Z" fill="white"/>
<rect width="199" height="58" rx="10" transform="matrix(-1 0 0 1 339 338)" fill="url(#paint4_radial_466_230)"/>
<rect width="199" height="58" rx="10" transform="matrix(-1 0 0 1 339 338)" fill="black" fill-opacity="0.08"/>
<path d="M175.41 375.225C174.16 375.225 173.076 374.967 172.16 374.45C171.26 373.917 170.56 373.175 170.06 372.225C169.56 371.258 169.31 370.125 169.31 368.825C169.31 367.542 169.56 366.433 170.06 365.5C170.56 364.567 171.26 363.85 172.16 363.35C173.076 362.833 174.16 362.575 175.41 362.575C176.176 362.575 176.935 362.708 177.685 362.975C178.435 363.225 179.051 363.592 179.535 364.075L178.735 365.85C178.285 365.417 177.776 365.1 177.21 364.9C176.643 364.683 176.11 364.575 175.61 364.575C174.426 364.575 173.51 364.95 172.86 365.7C172.226 366.433 171.91 367.483 171.91 368.85C171.91 370.217 172.226 371.292 172.86 372.075C173.51 372.842 174.426 373.225 175.61 373.225C176.11 373.225 176.643 373.125 177.21 372.925C177.776 372.708 178.285 372.383 178.735 371.95L179.535 373.75C179.051 374.2 178.426 374.558 177.66 374.825C176.91 375.092 176.16 375.225 175.41 375.225ZM186.761 375.225C185.527 375.225 184.461 374.967 183.561 374.45C182.677 373.933 181.986 373.2 181.486 372.25C180.986 371.3 180.736 370.183 180.736 368.9C180.736 367.6 180.986 366.483 181.486 365.55C181.986 364.6 182.677 363.867 183.561 363.35C184.461 362.833 185.527 362.575 186.761 362.575C187.977 362.575 189.027 362.833 189.911 363.35C190.811 363.867 191.511 364.6 192.011 365.55C192.511 366.5 192.761 367.617 192.761 368.9C192.761 370.183 192.511 371.3 192.011 372.25C191.511 373.2 190.811 373.933 189.911 374.45C189.027 374.967 187.977 375.225 186.761 375.225ZM186.736 373.275C187.786 373.275 188.627 372.9 189.261 372.15C189.894 371.4 190.211 370.317 190.211 368.9C190.211 367.467 189.894 366.383 189.261 365.65C188.627 364.917 187.786 364.55 186.736 364.55C185.702 364.55 184.869 364.917 184.236 365.65C183.602 366.383 183.286 367.467 183.286 368.9C183.286 370.317 183.602 371.4 184.236 372.15C184.869 372.9 185.702 373.275 186.736 373.275ZM195.646 375V362.8H198.096V365.4H197.821C198.038 364.8 198.338 364.292 198.721 363.875C199.105 363.458 199.563 363.142 200.096 362.925C200.646 362.692 201.246 362.575 201.896 362.575C202.913 362.575 203.738 362.817 204.371 363.3C205.005 363.783 205.438 364.525 205.671 365.525H205.321C205.638 364.608 206.18 363.892 206.946 363.375C207.713 362.842 208.605 362.575 209.621 362.575C210.555 362.575 211.321 362.758 211.921 363.125C212.521 363.475 212.971 364.017 213.271 364.75C213.571 365.467 213.721 366.375 213.721 367.475V375H211.196V367.6C211.196 366.567 211.013 365.808 210.646 365.325C210.296 364.842 209.713 364.6 208.896 364.6C208.296 364.6 207.771 364.742 207.321 365.025C206.871 365.308 206.521 365.725 206.271 366.275C206.038 366.808 205.921 367.442 205.921 368.175V375H203.396V367.6C203.396 366.567 203.221 365.808 202.871 365.325C202.521 364.842 201.938 364.6 201.121 364.6C200.505 364.6 199.971 364.742 199.521 365.025C199.088 365.308 198.755 365.725 198.521 366.275C198.288 366.808 198.171 367.442 198.171 368.175V375H195.646ZM217.252 379.5V362.8H219.727V365.55H219.452C219.718 364.65 220.243 363.933 221.027 363.4C221.81 362.85 222.735 362.575 223.802 362.575C224.885 362.575 225.827 362.833 226.627 363.35C227.443 363.867 228.068 364.592 228.502 365.525C228.952 366.458 229.177 367.583 229.177 368.9C229.177 370.183 228.952 371.308 228.502 372.275C228.068 373.225 227.452 373.958 226.652 374.475C225.852 374.975 224.902 375.225 223.802 375.225C222.752 375.225 221.835 374.958 221.052 374.425C220.268 373.892 219.743 373.183 219.477 372.3H219.777V379.5H217.252ZM223.177 373.275C224.227 373.275 225.06 372.9 225.677 372.15C226.31 371.4 226.627 370.317 226.627 368.9C226.627 367.467 226.31 366.383 225.677 365.65C225.06 364.917 224.227 364.55 223.177 364.55C222.143 364.55 221.31 364.917 220.677 365.65C220.043 366.383 219.727 367.467 219.727 368.9C219.727 370.317 220.043 371.4 220.677 372.15C221.31 372.9 222.143 373.275 223.177 373.275ZM237.322 375.225C236.089 375.225 235.022 374.967 234.122 374.45C233.239 373.933 232.547 373.2 232.047 372.25C231.547 371.3 231.297 370.183 231.297 368.9C231.297 367.6 231.547 366.483 232.047 365.55C232.547 364.6 233.239 363.867 234.122 363.35C235.022 362.833 236.089 362.575 237.322 362.575C238.539 362.575 239.589 362.833 240.472 363.35C241.372 363.867 242.072 364.6 242.572 365.55C243.072 366.5 243.322 367.617 243.322 368.9C243.322 370.183 243.072 371.3 242.572 372.25C242.072 373.2 241.372 373.933 240.472 374.45C239.589 374.967 238.539 375.225 237.322 375.225ZM237.297 373.275C238.347 373.275 239.189 372.9 239.822 372.15C240.455 371.4 240.772 370.317 240.772 368.9C240.772 367.467 240.455 366.383 239.822 365.65C239.189 364.917 238.347 364.55 237.297 364.55C236.264 364.55 235.43 364.917 234.797 365.65C234.164 366.383 233.847 367.467 233.847 368.9C233.847 370.317 234.164 371.4 234.797 372.15C235.43 372.9 236.264 373.275 237.297 373.275ZM246.158 375V362.8H248.608V365.4H248.333C248.699 364.467 249.274 363.767 250.058 363.3C250.841 362.817 251.741 362.575 252.758 362.575C253.724 362.575 254.524 362.758 255.158 363.125C255.808 363.475 256.291 364.017 256.608 364.75C256.924 365.467 257.083 366.375 257.083 367.475V375H254.558V367.625C254.558 366.925 254.466 366.358 254.283 365.925C254.099 365.475 253.824 365.142 253.458 364.925C253.091 364.708 252.616 364.6 252.033 364.6C251.366 364.6 250.774 364.742 250.258 365.025C249.758 365.308 249.366 365.717 249.083 366.25C248.816 366.783 248.683 367.4 248.683 368.1V375H246.158ZM266.287 375.225C264.954 375.225 263.804 374.975 262.837 374.475C261.887 373.958 261.145 373.233 260.612 372.3C260.095 371.35 259.837 370.225 259.837 368.925C259.837 367.658 260.095 366.55 260.612 365.6C261.129 364.65 261.837 363.908 262.737 363.375C263.637 362.842 264.662 362.575 265.812 362.575C266.945 362.575 267.912 362.825 268.712 363.325C269.529 363.808 270.154 364.5 270.587 365.4C271.02 366.3 271.237 367.375 271.237 368.625V369.475H261.837V367.925H269.537L269.112 368.275C269.112 367.025 268.837 366.058 268.287 365.375C267.737 364.692 266.945 364.35 265.912 364.35C265.129 364.35 264.462 364.533 263.912 364.9C263.379 365.267 262.97 365.775 262.687 366.425C262.404 367.075 262.262 367.833 262.262 368.7V368.85C262.262 369.817 262.412 370.633 262.712 371.3C263.029 371.95 263.487 372.442 264.087 372.775C264.687 373.108 265.429 373.275 266.312 373.275C267.012 373.275 267.695 373.167 268.362 372.95C269.045 372.717 269.687 372.358 270.287 371.875L271.037 373.625C270.487 374.125 269.779 374.517 268.912 374.8C268.045 375.083 267.17 375.225 266.287 375.225ZM273.99 375V362.8H276.44V365.4H276.165C276.532 364.467 277.107 363.767 277.89 363.3C278.673 362.817 279.573 362.575 280.59 362.575C281.557 362.575 282.357 362.758 282.99 363.125C283.64 363.475 284.123 364.017 284.44 364.75C284.757 365.467 284.915 366.375 284.915 367.475V375H282.39V367.625C282.39 366.925 282.298 366.358 282.115 365.925C281.932 365.475 281.657 365.142 281.29 364.925C280.923 364.708 280.448 364.6 279.865 364.6C279.198 364.6 278.607 364.742 278.09 365.025C277.59 365.308 277.198 365.717 276.915 366.25C276.648 366.783 276.515 367.4 276.515 368.1V375H273.99ZM293.594 375.225C292.077 375.225 290.936 374.833 290.169 374.05C289.419 373.267 289.044 372.133 289.044 370.65V364.75H286.669V362.8H289.044V359.125H291.569V362.8H295.344V364.75H291.569V370.45C291.569 371.333 291.752 372 292.119 372.45C292.502 372.9 293.119 373.125 293.969 373.125C294.219 373.125 294.469 373.092 294.719 373.025C294.986 372.958 295.244 372.892 295.494 372.825L295.894 374.725C295.644 374.875 295.294 374.992 294.844 375.075C294.411 375.175 293.994 375.225 293.594 375.225ZM298.675 375V372.825H302.675V359.575H303.975L299.55 362.325L298.5 360.4L303.425 357.375H305.25V372.825H309V375H298.675Z" fill="white"/>
<path d="M210.118 263.555C209.962 263.025 209.406 262.722 208.876 262.878C208.346 263.034 208.043 263.59 208.199 264.12L210.118 263.555ZM229.363 335.04C229.848 335.305 230.455 335.126 230.72 334.641L235.03 326.74C235.294 326.255 235.115 325.648 234.631 325.384C234.146 325.119 233.538 325.298 233.274 325.783L229.443 332.806L222.42 328.975C221.935 328.71 221.328 328.889 221.063 329.374C220.799 329.859 220.977 330.466 221.462 330.731L229.363 335.04ZM209.061 267.05C209.217 267.58 209.772 267.883 210.302 267.727C210.832 267.571 211.135 267.015 210.979 266.485L209.061 267.05ZM212.703 272.346C212.547 271.816 211.991 271.513 211.462 271.669C210.932 271.825 210.628 272.38 210.784 272.91L212.703 272.346ZM212.508 278.771C212.664 279.3 213.22 279.604 213.75 279.448C214.279 279.292 214.583 278.736 214.427 278.206L212.508 278.771ZM216.15 284.067C215.995 283.537 215.439 283.234 214.909 283.39C214.379 283.545 214.076 284.101 214.232 284.631L216.15 284.067ZM215.955 290.491C216.111 291.021 216.667 291.325 217.197 291.169C217.727 291.013 218.03 290.457 217.874 289.927L215.955 290.491ZM219.598 295.788C219.442 295.258 218.886 294.955 218.356 295.11C217.826 295.266 217.523 295.822 217.679 296.352L219.598 295.788ZM219.403 302.212C219.558 302.742 220.114 303.045 220.644 302.89C221.174 302.734 221.477 302.178 221.321 301.648L219.403 302.212ZM223.045 307.508C222.889 306.979 222.333 306.675 221.803 306.831C221.274 306.987 220.97 307.543 221.126 308.073L223.045 307.508ZM222.85 313.933C223.006 314.463 223.562 314.766 224.091 314.61C224.621 314.455 224.924 313.899 224.769 313.369L222.85 313.933ZM226.492 319.229C226.336 318.699 225.781 318.396 225.251 318.552C224.721 318.708 224.418 319.264 224.574 319.794L226.492 319.229ZM226.297 325.654C226.453 326.184 227.009 326.487 227.539 326.331C228.069 326.175 228.372 325.62 228.216 325.09L226.297 325.654ZM229.94 330.95C229.784 330.42 229.228 330.117 228.698 330.273C228.168 330.429 227.865 330.985 228.021 331.514L229.94 330.95ZM208.199 264.12L209.061 267.05L210.979 266.485L210.118 263.555L208.199 264.12ZM210.784 272.91L212.508 278.771L214.427 278.206L212.703 272.346L210.784 272.91ZM214.232 284.631L215.955 290.491L217.874 289.927L216.15 284.067L214.232 284.631ZM217.679 296.352L219.403 302.212L221.321 301.648L219.598 295.788L217.679 296.352ZM221.126 308.073L222.85 313.933L224.769 313.369L223.045 307.508L221.126 308.073ZM224.574 319.794L226.297 325.654L228.216 325.09L226.492 319.229L224.574 319.794ZM228.021 331.514L228.883 334.445L230.801 333.88L229.94 330.95L228.021 331.514Z" fill="#262222"/>
<path d="M303 230C302.448 230 302 230.448 302 231C302 231.552 302.448 232 303 232V230ZM617.707 231.707C618.098 231.317 618.098 230.683 617.707 230.293L611.343 223.929C610.953 223.538 610.319 223.538 609.929 223.929C609.538 224.319 609.538 224.953 609.929 225.343L615.586 231L609.929 236.657C609.538 237.047 609.538 237.681 609.929 238.071C610.319 238.462 610.953 238.462 611.343 238.071L617.707 231.707ZM306.019 232C306.572 232 307.019 231.552 307.019 231C307.019 230.448 306.572 230 306.019 230V232ZM312.058 230C311.505 230 311.058 230.448 311.058 231C311.058 231.552 311.505 232 312.058 232V230ZM318.096 232C318.648 232 319.096 231.552 319.096 231C319.096 230.448 318.648 230 318.096 230V232ZM324.135 230C323.582 230 323.135 230.448 323.135 231C323.135 231.552 323.582 232 324.135 232V230ZM330.173 232C330.725 232 331.173 231.552 331.173 231C331.173 230.448 330.725 230 330.173 230V232ZM336.212 230C335.659 230 335.212 230.448 335.212 231C335.212 231.552 335.659 232 336.212 232V230ZM342.25 232C342.802 232 343.25 231.552 343.25 231C343.25 230.448 342.802 230 342.25 230V232ZM348.288 230C347.736 230 347.288 230.448 347.288 231C347.288 231.552 347.736 232 348.288 232V230ZM354.327 232C354.879 232 355.327 231.552 355.327 231C355.327 230.448 354.879 230 354.327 230V232ZM360.365 230C359.813 230 359.365 230.448 359.365 231C359.365 231.552 359.813 232 360.365 232V230ZM366.404 232C366.956 232 367.404 231.552 367.404 231C367.404 230.448 366.956 230 366.404 230V232ZM372.442 230C371.89 230 371.442 230.448 371.442 231C371.442 231.552 371.89 232 372.442 232V230ZM378.481 232C379.033 232 379.481 231.552 379.481 231C379.481 230.448 379.033 230 378.481 230V232ZM384.519 230C383.967 230 383.519 230.448 383.519 231C383.519 231.552 383.967 232 384.519 232V230ZM390.558 232C391.11 232 391.558 231.552 391.558 231C391.558 230.448 391.11 230 390.558 230V232ZM396.596 230C396.044 230 395.596 230.448 395.596 231C395.596 231.552 396.044 232 396.596 232V230ZM402.635 232C403.187 232 403.635 231.552 403.635 231C403.635 230.448 403.187 230 402.635 230V232ZM408.673 230C408.121 230 407.673 230.448 407.673 231C407.673 231.552 408.121 232 408.673 232V230ZM414.712 232C415.264 232 415.712 231.552 415.712 231C415.712 230.448 415.264 230 414.712 230V232ZM420.75 230C420.198 230 419.75 230.448 419.75 231C419.75 231.552 420.198 232 420.75 232V230ZM426.788 232C427.341 232 427.788 231.552 427.788 231C427.788 230.448 427.341 230 426.788 230V232ZM432.827 230C432.275 230 431.827 230.448 431.827 231C431.827 231.552 432.275 232 432.827 232V230ZM438.865 232C439.418 232 439.865 231.552 439.865 231C439.865 230.448 439.418 230 438.865 230V232ZM444.904 230C444.352 230 443.904 230.448 443.904 231C443.904 231.552 444.352 232 444.904 232V230ZM450.942 232C451.495 232 451.942 231.552 451.942 231C451.942 230.448 451.495 230 450.942 230V232ZM456.981 230C456.428 230 455.981 230.448 455.981 231C455.981 231.552 456.428 232 456.981 232V230ZM463.019 232C463.572 232 464.019 231.552 464.019 231C464.019 230.448 463.572 230 463.019 230V232ZM469.058 230C468.505 230 468.058 230.448 468.058 231C468.058 231.552 468.505 232 469.058 232V230ZM475.096 232C475.648 232 476.096 231.552 476.096 231C476.096 230.448 475.648 230 475.096 230V232ZM481.135 230C480.582 230 480.135 230.448 480.135 231C480.135 231.552 480.582 232 481.135 232V230ZM487.173 232C487.725 232 488.173 231.552 488.173 231C488.173 230.448 487.725 230 487.173 230V232ZM493.212 230C492.659 230 492.212 230.448 492.212 231C492.212 231.552 492.659 232 493.212 232V230ZM499.25 232C499.802 232 500.25 231.552 500.25 231C500.25 230.448 499.802 230 499.25 230V232ZM505.289 230C504.736 230 504.289 230.448 504.289 231C504.289 231.552 504.736 232 505.289 232V230ZM511.327 232C511.879 232 512.327 231.552 512.327 231C512.327 230.448 511.879 230 511.327 230V232ZM517.365 230C516.813 230 516.365 230.448 516.365 231C516.365 231.552 516.813 232 517.365 232V230ZM523.404 232C523.956 232 524.404 231.552 524.404 231C524.404 230.448 523.956 230 523.404 230V232ZM529.442 230C528.89 230 528.442 230.448 528.442 231C528.442 231.552 528.89 232 529.442 232V230ZM535.481 232C536.033 232 536.481 231.552 536.481 231C536.481 230.448 536.033 230 535.481 230V232ZM541.519 230C540.967 230 540.519 230.448 540.519 231C540.519 231.552 540.967 232 541.519 232V230ZM547.558 232C548.11 232 548.558 231.552 548.558 231C548.558 230.448 548.11 230 547.558 230V232ZM553.596 230C553.044 230 552.596 230.448 552.596 231C552.596 231.552 553.044 232 553.596 232V230ZM559.635 232C560.187 232 560.635 231.552 560.635 231C560.635 230.448 560.187 230 559.635 230V232ZM565.673 230C565.121 230 564.673 230.448 564.673 231C564.673 231.552 565.121 232 565.673 232V230ZM571.712 232C572.264 232 572.712 231.552 572.712 231C572.712 230.448 572.264 230 571.712 230V232ZM577.75 230C577.198 230 576.75 230.448 576.75 231C576.75 231.552 577.198 232 577.75 232V230ZM583.789 232C584.341 232 584.789 231.552 584.789 231C584.789 230.448 584.341 230 583.789 230V232ZM589.827 230C589.275 230 588.827 230.448 588.827 231C588.827 231.552 589.275 232 589.827 232V230ZM595.865 232C596.418 232 596.865 231.552 596.865 231C596.865 230.448 596.418 230 595.865 230V232ZM601.904 230C601.352 230 600.904 230.448 600.904 231C600.904 231.552 601.352 232 601.904 232V230ZM607.942 232C608.495 232 608.942 231.552 608.942 231C608.942 230.448 608.495 230 607.942 230V232ZM613.981 230C613.428 230 612.981 230.448 612.981 231C612.981 231.552 613.428 232 613.981 232V230ZM303 232H306.019V230H303V232ZM312.058 232H318.096V230H312.058V232ZM324.135 232H330.173V230H324.135V232ZM336.212 232H342.25V230H336.212V232ZM348.288 232H354.327V230H348.288V232ZM360.365 232H366.404V230H360.365V232ZM372.442 232H378.481V230H372.442V232ZM384.519 232H390.558V230H384.519V232ZM396.596 232H402.635V230H396.596V232ZM408.673 232H414.712V230H408.673V232ZM420.75 232H426.788V230H420.75V232ZM432.827 232H438.865V230H432.827V232ZM444.904 232H450.942V230H444.904V232ZM456.981 232H463.019V230H456.981V232ZM469.058 232H475.096V230H469.058V232ZM481.135 232H487.173V230H481.135V232ZM493.212 232H499.25V230H493.212V232ZM505.289 232H511.327V230H505.289V232ZM517.365 232H523.404V230H517.365V232ZM529.442 232H535.481V230H529.442V232ZM541.519 232H547.558V230H541.519V232ZM553.596 232H559.635V230H553.596V232ZM565.673 232H571.712V230H565.673V232ZM577.75 232H583.789V230H577.75V232ZM589.827 232H595.865V230H589.827V232ZM601.904 232H607.942V230H601.904V232ZM613.981 232H617V230H613.981V232Z" fill="#262222"/>
<defs>
<linearGradient id="paint0_linear_466_230" x1="70" y1="64" x2="441.616" y2="276.49" gradientUnits="userSpaceOnUse">
<stop stop-color="#0185FF"/>
<stop offset="1" stop-color="#01CDFF"/>
</linearGradient>
<radialGradient id="paint1_radial_466_230" cx="0" cy="0" r="1" gradientUnits="userSpaceOnUse" gradientTransform="translate(-101.814 -31.3456) rotate(11.1364) scale(522.122 265.738)">
<stop offset="0.0995467" stop-color="#B0E07F"/>
<stop offset="0.344281" stop-color="#94DEE0"/>
<stop offset="0.567519" stop-color="#5DA4EF"/>
<stop offset="0.859602" stop-color="#591BBF"/>
</radialGradient>
<linearGradient id="paint2_linear_466_230" x1="570" y1="64" x2="854.112" y2="307.682" gradientUnits="userSpaceOnUse">
<stop stop-color="#0185FF"/>
<stop offset="1" stop-color="#01CDFF"/>
</linearGradient>
<radialGradient id="paint3_radial_466_230" cx="0" cy="0" r="1" gradientUnits="userSpaceOnUse" gradientTransform="translate(-101.814 -31.3456) rotate(11.1364) scale(522.122 265.738)">
<stop offset="0.0995467" stop-color="#B0E07F"/>
<stop offset="0.344281" stop-color="#94DEE0"/>
<stop offset="0.567519" stop-color="#5DA4EF"/>
<stop offset="0.859602" stop-color="#591BBF"/>
</radialGradient>
<radialGradient id="paint4_radial_466_230" cx="0" cy="0" r="1" gradientUnits="userSpaceOnUse" gradientTransform="translate(-101.814 -31.3456) rotate(11.1364) scale(522.122 265.738)">
<stop offset="0.0995467" stop-color="#B0E07F"/>
<stop offset="0.344281" stop-color="#94DEE0"/>
<stop offset="0.567519" stop-color="#5DA4EF"/>
<stop offset="0.859602" stop-color="#591BBF"/>
</radialGradient>
</defs>
</svg>
