<svg id="Layer_1" data-name="Layer 1" xmlns="http://www.w3.org/2000/svg" viewBox="0 0 215 127"><defs><style>.cls-1{fill:#fbfbfb;}.cls-2{fill:#f40f3a;}.cls-3{fill:#fcfcfc;}.cls-4{fill:#060606;}</style></defs><title>kubernetes.io-logos2</title><rect class="cls-1" x="-3.35417" y="-4.36563" width="223.25536" height="134.51136"/><path class="cls-2" d="M33.854,87.592c-.91824-1.01852-2.28074-.80266-3.42314-1.17956a24.66959,24.66959,0,0,1-6.36517-3.06475c-.43208-.2984-1.708-.62526-.76966-1.40241.81144-.67207,1.01161-2.81355,2.89764-1.5948a20.59032,20.59032,0,0,0,7.89663,3.09958,18.83576,18.83576,0,0,0,14.1198-3.06456c2.078-1.40826,2.36143.61655,3.13363,1.37287,1.10654,1.08375-.45359,1.32274-.94764,1.65668a22.0586,22.0586,0,0,1-10.05283,3.77062c-.29056.03182-.53921.08561-.62935.40633H38.45825c-1.2557-.24018-2.5114-.60324-3.76709,0Z"/><path class="cls-3" d="M164.02778,87.592h-1.67426a.88746.88746,0,0,0-.50393-.9844c-1.59278-.95239-1.37084-2.52881-.85543-3.8659.62793-1.62893,2.24712-1.37444,3.61028-1.21459a1.89115,1.89115,0,0,1,1.9289,2.02455c-.0143,1.55333.2226,3.20252-2.12956,3.22706C163.92814,86.78369,164.04813,87.2681,164.02778,87.592Z"/><path class="cls-4" d="M170.72482,87.592c-.01957-1.584-.06877-3.16852-.04514-4.75192.01051-.70431-.32793-1.6724.74687-1.89607a2.05135,2.05135,0,0,1,2.36769.83655,25.85289,25.85289,0,0,0,4.0739,4.85759V80.53677c1.19358,2.198,1.00319,6.01093-.02771,7.05524h-1.67426l-4.17406-5.95784-.43016.17708V87.592Z"/><path class="cls-4" d="M164.02778,87.592c.02035-.32391-.09964-.80832.376-.81328,2.35216-.02454,2.11526-1.67373,2.12956-3.22706a1.89115,1.89115,0,0,0-1.9289-2.02455c-1.36316-.15985-2.98235-.41434-3.61028,1.21459-.51541,1.33709-.73735,2.91351.85543,3.8659a.88746.88746,0,0,1,.50393.9844h-.83713c-.7369-.74476-1.9117-1.01407-2.15848-2.297-.53256-2.76852.57873-4.26812,3.41789-4.39232a13.15355,13.15355,0,0,1,2.48408.05235c1.57391.233,2.74916.99,2.801,2.76591.04944,1.6939-.23794,3.2107-2.33176,3.529-.1622.02465-.29774.224-.44566.34211Z"/><path class="cls-4" d="M88.68606,87.592l-4.32582-6.16839c-.75062,2.05068-.00258,3.99831-.52253,5.75721l-.61457-.01843c0-1.797-.01268-3.59414.00732-5.39091.00645-.57911.3635-.859.94569-.87343a2.02036,2.02036,0,0,1,2.0192.74542,26.88766,26.88766,0,0,0,4.1828,4.97988V80.595c1.20863,2.03078,1.04,5.87309-.01783,6.997Z"/><path class="cls-4" d="M180.77038,87.592c.56652-2.32267,2.05959-4.16994,3.34385-6.08126.71675-1.06671,2.065-.88321,2.829.19531,1.03843,1.46584,1.886,3.06657,2.80895,4.61332.16779.2812.47344.60971.0911.89791a.74563.74563,0,0,1-1.09961-.19272c-1.28895-2.629-3.651-1.238-5.531-1.42278-1.06115-.1043-1.30354,1.12163-1.60514,1.99022Zm4.32225-2.53172c.55208-.52671,1.95832.62181,1.83889-.70987-.08376-.93412-.785-2.55278-1.72265-2.567-1.13188-.01722-1.73927,1.59123-1.87356,2.60135C183.188,85.49317,184.48271,84.66422,185.09263,85.06029Z"/><path class="cls-4" d="M142.26239,87.592c-1.467-2.85536-4.40134-2.965-7.95689-.39835a19.658,19.658,0,0,1,3.54323-5.93031,1.595,1.595,0,0,1,2.51433.44586c.97924,1.50006,1.75481,3.142,2.81924,4.57385.70844.953-.43008.85162-.50134,1.30895Zm-5.94272-2.72083h4.34876c-.70235-1.25159-1.012-3.01626-2.22438-3.03246C137.38376,81.82454,137.1079,83.63634,136.31967,84.87118Z"/><path class="cls-4" d="M129.70544,87.592c-1.77994-2.02127-2.80973-4.6542-4.96973-6.41993,3.726-.14994,3.77421,4.06924,6.37106,5.51894.60009-1.828-.15694-3.81767.45981-5.79046,1.10283,2.29512.73431,5.78615-.60545,6.69145Z"/><path class="cls-2" d="M35.52829,40.39724c.0191.8345.05515,1.66908.051,2.50346-.00252.49966.307,1.28537-.5923,1.239-.95511-.04921-1.90068.89055-2.78045.184-.98417-.79036-.67643-3.18279.39184-3.92653Z"/><path class="cls-2" d="M41.3882,40.39724c.5387.67269,2.51034.358,1.48933,2.09357-.4525.76918.14291,2.30055-1.86823,1.97513-1.80431-.29194-2.50951-.85263-2.106-2.65176a5.86615,5.86615,0,0,0-.0265-1.41694Z"/><path class="cls-3" d="M171.562,87.592V81.81125l.43016-.17708,4.17406,5.95784Z"/><path class="cls-4" d="M97.05736,87.592c-.013-.62469-.0355-1.24936-.03746-1.8741-.01138-3.62325-.00975-3.62325-3.29963-4.47467h8.19541c-1.15849,1.10252-2.93558-.32649-3.417,1.07643a8.87639,8.87639,0,0,0-.0581,3.7193c.10066.89319-.61463,1.061-.96468,1.553Z"/><path class="cls-4" d="M147.70374,87.592c-.01536-.6246-.042-1.24917-.0442-1.87382-.013-3.61285-.0111-3.61285-3.2918-4.4781h7.96544c-.049.21474-.04229.3034-.07875.32779-.97291.651-2.57222-.57631-3.12435.74743a8.13249,8.13249,0,0,0-.07949,3.30087c.03961.85277-.0738,1.57079-.92829,1.97583Z"/><path class="cls-4" d="M192.90877,87.592c-.8289-1.86743-.24518-3.83533-.40361-5.7507a.70876.70876,0,0,1,.68214-.86524c.59323-.03262.6293.4396.63861.85175a18.095,18.095,0,0,1-.01306,2.9173c-.24452,1.72861.51293,2.20377,2.08835,1.99462a14.02746,14.02746,0,0,1,2.08882-.01009c.24857.00458.67083-.089.62305.27625-.02894.22119-.44139.39243-.68152.58611Z"/><path class="cls-4" d="M154.81935,87.592c-.01294-1.79213-.04723-3.58453-.0245-5.37621.00605-.47655-.26059-1.26451.63866-1.2186.80557.04113.62559.76029.63161,1.28161.0143,1.24075-.09468,2.49252.0388,3.719.09089.835-.49973,1.11045-.866,1.59424Z"/><path class="cls-2" d="M109.81047,87.33291l.641.2591H104.173c.15113-.08325.30227-.16649.447-.24958Q107.20886,87.33783,109.81047,87.33291Z"/><path class="cls-3" d="M34.69116,87.592c1.25569-.60324,2.51139-.24018,3.76709,0Z"/><path class="cls-4" d="M139.29759,73.00689c-4.75836-.07928-8.49132-.38424-12.095-1.63a10.54155,10.54155,0,0,1-7.56784-9.26934,27.9055,27.9055,0,0,1-.28546-3.73735c.08783-8.05851,3.12465-11.84267,11.05989-13.45378a38.46453,38.46453,0,0,1,17.99265.44816c5.86686,1.60627,8.71656,5.27787,8.92122,11.298a29.01455,29.01455,0,0,1-.11923,5.20359c-.9476,6.39833-4.73078,9.65114-12.22835,10.63873A34.76391,34.76391,0,0,1,139.29759,73.00689ZM150.8428,58.66618c-.06713-1.24728-.10651-2.49677-.20642-3.74143-.338-4.21127-2.23639-6.51122-6.35619-7.3814a28.43726,28.43726,0,0,0-11.82453.01959c-3.80616.80411-5.46655,2.78884-6.16656,6.63533a28.52665,28.52665,0,0,0-.23272,7.06454c.36894,5.47862,2.34153,7.54765,7.82553,8.5695a28.272,28.272,0,0,0,5.62375.27635C148.18557,69.98183,150.78871,67.33244,150.8428,58.66618Z"/><path class="cls-4" d="M91.077,72.77917c-2.87195-.06431-7.43857-.54457-11.99407-1.15524-1.22367-.164-1.27045-.80408-1.06483-1.91262.22168-1.19518.61909-1.44255,1.77571-1.24686a74.08816,74.08816,0,0,0,17.68487,1.10271,17.33139,17.33139,0,0,0,3.48351-.57952,3.64141,3.64141,0,0,0,2.932-4.18083c-.10532-2.14888-1.55854-2.83225-3.322-3.06314-4.62219-.60518-9.25995-1.09242-13.88123-1.704a19.20337,19.20337,0,0,1-3.84244-.94768,6.77512,6.77512,0,0,1-4.893-7.15965c.09681-3.30867,1.537-5.11568,5.06662-6.284A26.599,26.599,0,0,1,91.044,44.47184a80.92228,80.92228,0,0,1,15.2094.83035c1.0869.18933,1.84629.28225,1.64647,1.72289-.22294,1.60728-1.19654,1.3797-2.26619,1.2102a72.75822,72.75822,0,0,0-16.66626-.70886,11.0757,11.0757,0,0,0-3.23708.7455,3.0632,3.0632,0,0,0-2.07393,3.25288,2.92484,2.92484,0,0,0,2.346,3.03749c3.38861.89138,6.89711.86031,10.35126,1.246a42.28706,42.28706,0,0,1,7.81308,1.2927c3.84676,1.18224,5.57282,3.591,5.49949,7.58532-.06729,3.66493-1.86137,5.93506-5.66215,6.99945C100.34387,72.71073,96.56332,72.65948,91.077,72.77917Z"/><path class="cls-4" d="M182.51336,44.37108a85.946,85.946,0,0,1,13.22978.91165c1.24365.21338,1.42593.69241,1.30588,1.78271-.14453,1.31294-.86789,1.33014-1.89381,1.16885a69.29245,69.29245,0,0,0-17.07588-.71777,13.4887,13.4887,0,0,0-2.85149.57743A3.14941,3.14941,0,0,0,172.828,51.547a3.03493,3.03493,0,0,0,2.63393,3.03421c3.47169.82241,7.0439.80224,10.56348,1.22647,2.82932.341,5.69181.51507,8.35658,1.65611,3.34983,1.43436,4.608,3.63274,4.43457,7.66922-.13536,3.15058-1.6915,5.13731-4.89427,6.26586-4.09956,1.44456-8.377,1.23536-12.61275,1.29493a89.09815,89.09815,0,0,1-12.28059-1.02238c-1.005-.12554-2.19339-.01535-1.8625-1.9174.32889-1.89062,1.3114-1.318,2.36716-1.16983,6.55926.92075,13.12465,1.70651,19.74627.62121a4.26027,4.26027,0,0,0,3.52878-2.27719c1.13231-2.47612-.09266-4.73908-2.96455-5.16416-4.5407-.67209-9.11393-1.12267-13.66589-1.72351a20.4078,20.4078,0,0,1-3.44868-.8009c-4.50673-1.423-6.34779-4.53994-5.36849-9.13665.50047-2.34922,2.22013-3.55217,4.35581-4.34767C175.66359,44.28525,179.80113,44.54051,182.51336,44.37108Z"/><path class="cls-2" d="M60.92438,62.86866c-.12848,6.58769-1.86337,11.54184-5.355,15.85388-.423.52238-.94756,1.61247-1.694.506-.5659-.83879-2.70629-.987-1.20211-2.93438,5.14793-6.6648,5.92928-13.92029,2.23231-21.49207-1.0639-2.179.8917-2.03244,1.69241-2.69045,1.20716-.992,1.31126.42294,1.62915,1.01136A22.1,22.1,0,0,1,60.92438,62.86866Z"/><path class="cls-2" d="M13.69179,63.56422a21.119,21.119,0,0,1,2.53582-10.25117c.30628-.56063.30605-2.16694,1.698-1.21775.95065.64824,2.78883.68395,1.64536,2.89864a19.0419,19.0419,0,0,0-.25715,17.25519,17.96691,17.96691,0,0,0,2.827,4.354c1.41542,1.64379-.634,1.85247-1.12411,2.658-.60477.99387-1.23768.40014-1.764-.24048A23.20156,23.20156,0,0,1,13.69179,63.56422Z"/><path class="cls-4" d="M118.42441,84.49968c.999.35364,2.11369.417,2.07219,1.76427-.01182.38386.13485.86611-.51374.91111a.79533.79533,0,0,1-.93628-.545,3.59519,3.59519,0,0,0-4.27433-1.92638c-.73539.21054-.4666.71049-.55312,1.13461-.10578.51862.36956,1.415-.7346,1.32182-1.037-.08755-.42663-.95576-.59592-1.45787a.70607.70607,0,0,1-.003-.20679c-.057-5.00764-.05576-5.01964,5.00542-4.50145,1.0117.10358,2.22663.07011,2.55109,1.35033C120.82132,83.84048,119.2346,83.72351,118.42441,84.49968Zm-2.02573-2.93111c-.92126.1749-2.19013-.52614-2.16854,1.33958.01672,1.44384.81613,1.36171,1.72771,1.27351,1.14433-.11073,2.83055.38289,2.83036-1.47819C118.78805,81.12609,117.25673,81.79988,116.39868,81.56857Z"/><path class="cls-4" d="M109.81047,87.33291q-2.59843.00485-5.19048.00952c-1.30922-.1072-.96265-1.11523-.97785-1.87707-.09012-4.51927-.08156-4.5194,4.43679-4.51785a7.72232,7.72232,0,0,1,2.17583.20978c-.89965.64289-1.94707.23642-2.87539.46642-.81418.20173-2.34889-.88707-2.31673,1.02013.02875,1.70528,1.4304.71756,2.20326.93805a8.05459,8.05459,0,0,0,1.557.14232l.01843.51182c-.81314,0-1.62826.03549-2.43888-.00961-.87432-.04865-1.39038.05466-1.40875,1.18317-.01939,1.19165.468,1.37351,1.47645,1.33424,1.23581-.04812,2.47721.04574,3.71589.08747a1.94229,1.94229,0,0,1,.02316.19811C110.26742,87.38177,109.94057,87.22834,109.81047,87.33291Z"/><path class="cls-2" d="M26.69928,47.26926c-.73426-1.09552-1.97612-2.12452-1.85739-2.96133.18537-1.3066,1.94811-1.92051,3.06739-1.91275,1.22355.00848,1.51539,1.80356,1.5248,2.72441C29.4475,46.43355,27.57554,46.13589,26.69928,47.26926Z"/><path class="cls-2" d="M47.75119,47.317c-.75621-1.28928-2.77821-.81227-2.57738-2.3077.1208-.89941.1374-2.72526,1.581-2.58158,1.075.107,2.87723.51871,2.8966,1.99871C49.66313,45.32491,48.50407,46.2386,47.75119,47.317Z"/><path class="cls-2" d="M24.50847,48.71528c-1.06937.76533-1.54938,2.24039-2.60848,2.13026a3.67587,3.67587,0,0,1-2.55652-2.119c-.17666-.35705,2.46906-2.78874,2.71278-2.56655C22.89564,46.92516,23.64048,47.79363,24.50847,48.71528Z"/><path class="cls-2" d="M52.70812,46.12876c1.00379.5976,2.25954,1.46,2.40495,2.52892.151,1.11008-1.416,1.61566-2.34545,2.23652-.31939.21334-2.44914-1.78717-2.453-2.23559A8.17074,8.17074,0,0,1,52.70812,46.12876Z"/><path class="cls-4" d="M79.40232,83.97954c-.00214.82354-.014,1.64732.00219,2.47055.01019.51787-.23038.72751-.7323.73656-.56348.01017-.67777-.331-.67811-.7864-.00107-1.44121-.00883-2.88245.00067-4.32358.00313-.47532-.02581-1.0459.63616-1.0911.83145-.05679.76963.58829.77273,1.141C79.40713,82.74418,79.40446,83.36187,79.40232,83.97954Z"/><path class="cls-3" d="M185.09263,85.06029c-.60992-.39607-1.90467.43288-1.75732-.67556.13429-1.01012.74168-2.61857,1.87356-2.60135.93766.01426,1.63889,1.63292,1.72265,2.567C187.051,85.6821,185.64471,84.53358,185.09263,85.06029Z"/><path class="cls-3" d="M136.31967,84.87118c.78823-1.23484,1.06409-3.04664,2.12438-3.03246,1.21235.0162,1.522,1.78087,2.22438,3.03246Z"/><path class="cls-3" d="M150.8428,58.66618c-.05409,8.66626-2.65723,11.31565-11.33714,11.44248a28.272,28.272,0,0,1-5.62375-.27635c-5.484-1.02185-7.45659-3.09088-7.82553-8.5695a28.52665,28.52665,0,0,1,.23272-7.06454c.7-3.84649,2.3604-5.83122,6.16656-6.63533a28.43726,28.43726,0,0,1,11.82453-.01959c4.1198.87018,6.0182,3.17013,6.35619,7.3814C150.73629,56.16941,150.77567,57.4189,150.8428,58.66618Z"/><path class="cls-3" d="M116.39868,81.56857c.85805.23131,2.38937-.44248,2.38953,1.1349.00019,1.86108-1.686,1.36746-2.83036,1.47819-.91158.0882-1.711.17033-1.72771-1.27351C114.20855,81.04243,115.47742,81.74347,116.39868,81.56857Z"/></svg>