<?xml version="1.0" encoding="UTF-8" standalone="no" ?>
<!DOCTYPE svg PUBLIC "-//W3C//DTD SVG 1.1//EN" "http://www.w3.org/Graphics/SVG/1.1/DTD/svg11.dtd">
<svg xmlns="http://www.w3.org/2000/svg" xmlns:xlink="http://www.w3.org/1999/xlink" version="1.1" width="230" height="140" viewBox="0 0 230 140" xml:space="preserve">
<desc>Created with Fabric.js 5.2.4</desc>
<defs>
</defs>
<g transform="matrix(1 0 0 1 115 70)" id="dec18c62-7dbb-4726-b758-50df8c1947d5"  >
<rect style="stroke: none; stroke-width: 1; stroke-dasharray: none; stroke-linecap: butt; stroke-dashoffset: 0; stroke-linejoin: miter; stroke-miterlimit: 4; fill: rgb(255,255,255); fill-rule: nonzero; opacity: 1;" vector-effect="non-scaling-stroke"  x="-115" y="-70" rx="0" ry="0" width="230" height="140" />
</g>
<g transform="matrix(Infinity NaN NaN Infinity 0 0)" id="7ae55eb2-d0f7-4b4d-a53e-363c1bce0316"  >
</g>
<g transform="matrix(0.53 0 0 0.53 115 70)"  >
<g style="" vector-effect="non-scaling-stroke"   >
		<g transform="matrix(1 0 0 1 62.95 3.7)"  >
<path style="stroke: none; stroke-width: 1; stroke-dasharray: none; stroke-linecap: butt; stroke-dashoffset: 0; stroke-linejoin: miter; stroke-miterlimit: 4; fill: rgb(0,0,0); fill-rule: nonzero; opacity: 1;" vector-effect="non-scaling-stroke"  transform=" translate(-244.6, -50.1)" d="M 244.7 7.4 C 213.7 7.4 207.29999999999998 19 207.29999999999998 35.8 C 207.29999999999998 52.5 213.6 64.1 244.7 64.1 C 275.8 64.1 282 52.49999999999999 282 35.8 C 282 18.9 275.9 7.399999999999999 244.7 7.399999999999999 z M 244.7 58.5 C 222.6 58.5 220.39999999999998 50.3 220.39999999999998 35.7 C 220.39999999999998 21.200000000000003 222.59999999999997 13.000000000000004 244.7 13.000000000000004 C 266.9 13.000000000000004 269 21.200000000000003 269 35.7 C 269 50.300000000000004 266.9 58.5 244.7 58.5 z M 188.39999999999998 47.5 C 188.39999999999998 33.4 177.29999999999998 31.6 160.09999999999997 30.1 C 144.19999999999996 28.5 137.29999999999995 29.3 137.29999999999995 21.5 C 137.29999999999995 14.9 143.69999999999996 13.7 158.09999999999997 13.7 C 168.49999999999997 13.7 178.39999999999998 15.1 182.79999999999995 15.7 L 183.29999999999995 15.7 C 183.89999999999995 15.7 184.39999999999995 15.5 184.49999999999994 14.799999999999999 L 184.89999999999995 11.799999999999999 C 184.89999999999995 11.6 184.99999999999994 11.399999999999999 184.99999999999994 11.2 C 184.99999999999994 10.6 184.69999999999993 10.1 183.59999999999994 9.899999999999999 C 177.99999999999994 8.899999999999999 168.39999999999995 7.799999999999999 157.69999999999993 7.799999999999999 C 130.79999999999993 7.799999999999999 126.09999999999994 14.2 126.09999999999994 23.2 C 126.09999999999994 37.4 138.89999999999995 38.6 156.89999999999995 40.5 C 173.4 42.1 177 42 177 49 C 177 56.2 170.8 57.7 155.2 57.7 C 145.29999999999998 57.7 132.6 55.7 128.1 55 L 127.69999999999999 55 C 127.1 55 126.6 55.2 126.49999999999999 55.9 L 125.99999999999999 59.4 C 125.89999999999999 59.6 125.89999999999999 59.8 125.89999999999999 60 C 125.89999999999999 60.6 126.19999999999999 61 127.3 61.3 C 129.1 61.699999999999996 145.2 63.8 153.7 63.8 C 175.6 63.699999999999996 188.39999999999998 61.699999999999996 188.39999999999998 47.5 z M 302.29999999999995 61.2 C 304.09999999999997 61.6 320.19999999999993 63.7 328.69999999999993 63.7 C 350.5999999999999 63.7 363.29999999999995 61.7 363.29999999999995 47.400000000000006 C 363.29999999999995 33.300000000000004 352.19999999999993 31.500000000000007 334.99999999999994 30.000000000000007 C 319.09999999999997 28.400000000000006 312.19999999999993 29.200000000000006 312.19999999999993 21.400000000000006 C 312.19999999999993 14.800000000000006 318.5999999999999 13.600000000000005 332.99999999999994 13.600000000000005 C 343.3999999999999 13.600000000000005 353.29999999999995 15.000000000000005 357.69999999999993 15.600000000000005 L 358.19999999999993 15.600000000000005 C 358.79999999999995 15.600000000000005 359.29999999999995 15.400000000000006 359.3999999999999 14.700000000000005 L 359.7999999999999 11.700000000000005 C 359.7999999999999 11.500000000000005 359.8999999999999 11.300000000000004 359.8999999999999 11.100000000000005 C 359.8999999999999 10.500000000000005 359.5999999999999 10.000000000000005 358.49999999999994 9.800000000000004 C 352.8999999999999 8.800000000000004 343.29999999999995 7.700000000000005 332.59999999999997 7.700000000000005 C 305.7 7.700000000000005 300.99999999999994 14.100000000000005 300.99999999999994 23.100000000000005 C 300.99999999999994 37.300000000000004 313.79999999999995 38.50000000000001 331.79999999999995 40.400000000000006 C 348.29999999999995 42.10000000000001 351.9 42.00000000000001 351.9 49.00000000000001 C 351.9 56.20000000000001 345.7 57.7 330.09999999999997 57.7 C 320.2 57.7 307.49999999999994 55.7 302.99999999999994 55 L 302.59999999999997 55 C 301.99999999999994 55 301.49999999999994 55.2 301.4 55.9 L 300.9 59.4 C 300.79999999999995 59.6 300.79999999999995 59.8 300.79999999999995 60 C 300.9 60.5 301.19999999999993 60.9 302.29999999999995 61.2 z M 128.2 79.9 L 126.89999999999999 79.9 C 126.3 79.9 126.19999999999999 80.10000000000001 126.19999999999999 80.60000000000001 L 126.19999999999999 91.9 C 126.19999999999999 92.4 126.39999999999999 92.60000000000001 126.89999999999999 92.60000000000001 L 128.2 92.60000000000001 C 128.79999999999998 92.60000000000001 128.89999999999998 92.4 128.89999999999998 91.9 L 128.89999999999998 80.6 C 128.99999999999997 80.1 128.79999999999998 79.89999999999999 128.2 79.89999999999999 z M 151.5 79.9 L 151 79.9 C 150.5 79.9 150.4 80 150.4 80.60000000000001 L 150.4 90.80000000000001 C 150.4 91.30000000000001 150.20000000000002 91.30000000000001 149.9 91.30000000000001 C 149.5 91.30000000000001 149.5 91.20000000000002 149.20000000000002 90.80000000000001 L 141.8 80.50000000000001 C 141.5 80.00000000000001 141 79.80000000000001 140.5 79.80000000000001 L 137.6 79.80000000000001 C 136.9 79.80000000000001 136.29999999999998 80.4 136.29999999999998 81.10000000000001 L 136.29999999999998 91.7 C 136.29999999999998 92.3 136.39999999999998 92.4 136.89999999999998 92.4 L 137.39999999999998 92.4 C 137.89999999999998 92.4 137.99999999999997 92.30000000000001 137.99999999999997 91.7 L 137.99999999999997 81.6 C 137.99999999999997 81.1 138.19999999999996 81.1 138.49999999999997 81.1 C 138.89999999999998 81.1 138.89999999999998 81.19999999999999 139.19999999999996 81.6 L 146.59999999999997 91.89999999999999 C 146.89999999999998 92.39999999999999 147.39999999999998 92.6 147.89999999999998 92.6 L 150.79999999999998 92.6 C 151.49999999999997 92.6 152.1 92 152.1 91.3 L 152.1 80.6 C 152.1 80 152 79.89999999999999 151.5 79.89999999999999 z M 172.3 79.9 L 157.5 79.9 C 156.9 79.9 156.8 80 156.8 80.5 L 156.8 80.7 C 156.8 81.2 156.9 81.3 157.5 81.3 L 163 81.3 C 163.3 81.3 163.5 81.3 163.5 81.8 L 163.5 91.89999999999999 C 163.5 92.39999999999999 163.7 92.6 164.2 92.6 L 165.6 92.6 C 166.2 92.6 166.29999999999998 92.39999999999999 166.29999999999998 91.89999999999999 L 166.29999999999998 81.8 C 166.29999999999998 81.3 166.49999999999997 81.3 166.79999999999998 81.3 L 172.29999999999998 81.3 C 172.89999999999998 81.3 172.99999999999997 81.2 172.99999999999997 80.7 L 172.99999999999997 80.4 C 172.99999999999997 80 172.89999999999998 79.9 172.29999999999998 79.9 z M 189.10000000000002 79.9 L 177.70000000000002 79.9 C 177.00000000000003 79.9 176.4 80.5 176.4 81.2 L 176.4 91.2 C 176.4 91.9 177 92.5 177.70000000000002 92.5 L 189.10000000000002 92.5 C 189.70000000000002 92.5 189.8 92.4 189.8 91.9 L 189.8 91.7 C 189.8 91.2 189.70000000000002 91.10000000000001 189.10000000000002 91.10000000000001 L 179.8 91.10000000000001 C 179.5 91.10000000000001 179.3 91.10000000000001 179.3 90.60000000000001 L 179.3 86.80000000000001 C 179.3 86.30000000000001 179.5 86.30000000000001 179.8 86.30000000000001 L 186.5 86.30000000000001 C 187.1 86.30000000000001 187.2 86.20000000000002 187.2 85.70000000000002 L 187.2 85.50000000000001 C 187.2 85.00000000000001 187.1 85.00000000000001 186.5 85.00000000000001 L 179.8 85.00000000000001 C 179.5 85.00000000000001 179.3 85.00000000000001 179.3 84.50000000000001 L 179.3 81.60000000000001 C 179.3 81.10000000000001 179.5 81.10000000000001 179.8 81.10000000000001 L 189.10000000000002 81.10000000000001 C 189.70000000000002 81.10000000000001 189.8 81.00000000000001 189.8 80.50000000000001 L 189.8 80.30000000000001 C 189.9 80.00000000000001 189.70000000000002 79.9 189.10000000000002 79.9 z M 206.50000000000003 87.10000000000001 C 206.00000000000003 87.00000000000001 205.80000000000004 87.00000000000001 205.80000000000004 86.60000000000001 C 205.80000000000004 86.2 206.00000000000003 86.2 206.50000000000003 86.10000000000001 C 208.40000000000003 85.7 209.50000000000003 85.00000000000001 209.50000000000003 83.2 C 209.50000000000003 80.5 207.20000000000002 79.9 204.00000000000003 79.9 L 195.80000000000004 79.9 C 195.10000000000005 79.9 194.50000000000003 80.5 194.50000000000003 81.2 L 194.50000000000003 91.9 C 194.50000000000003 92.4 194.70000000000002 92.60000000000001 195.20000000000002 92.60000000000001 L 196.50000000000003 92.60000000000001 C 197.10000000000002 92.60000000000001 197.20000000000002 92.4 197.20000000000002 91.9 L 197.20000000000002 87.80000000000001 C 197.20000000000002 87.30000000000001 197.4 87.30000000000001 197.70000000000002 87.30000000000001 L 202.3 87.4 C 205 87.5 206.5 88 206.60000000000002 89.60000000000001 L 206.70000000000002 91.9 C 206.70000000000002 92.4 207.00000000000003 92.60000000000001 207.50000000000003 92.60000000000001 L 208.80000000000004 92.60000000000001 C 209.30000000000004 92.60000000000001 209.60000000000005 92.50000000000001 209.60000000000005 92.00000000000001 L 209.60000000000005 91.90000000000002 L 209.50000000000006 89.90000000000002 C 209.50000000000006 87.70000000000002 207.90000000000006 87.40000000000002 206.50000000000006 87.10000000000002 z M 202.20000000000002 86.00000000000001 L 197.9 86.10000000000001 C 197.5 86.10000000000001 197.4 86.10000000000001 197.4 85.60000000000001 L 197.4 81.60000000000001 C 197.4 81.10000000000001 197.6 81.10000000000001 197.9 81.10000000000001 L 203.20000000000002 81.10000000000001 C 205.70000000000002 81.10000000000001 206.4 81.9 206.4 83.50000000000001 C 206.4 85.60000000000001 204.8 86.00000000000001 202.20000000000002 86.00000000000001 z M 231.70000000000002 79.90000000000002 L 231.20000000000002 79.90000000000002 C 230.70000000000002 79.90000000000002 230.60000000000002 80.00000000000001 230.60000000000002 80.60000000000002 L 230.60000000000002 90.80000000000003 C 230.60000000000002 91.30000000000003 230.40000000000003 91.30000000000003 230.10000000000002 91.30000000000003 C 229.70000000000002 91.30000000000003 229.70000000000002 91.20000000000003 229.40000000000003 90.80000000000003 L 222 80.6 C 221.7 80.1 221.2 79.89999999999999 220.7 79.89999999999999 L 217.79999999999998 79.89999999999999 C 217.1 79.89999999999999 216.49999999999997 80.49999999999999 216.49999999999997 81.19999999999999 L 216.49999999999997 91.79999999999998 C 216.49999999999997 92.39999999999998 216.59999999999997 92.49999999999999 217.09999999999997 92.49999999999999 L 217.59999999999997 92.49999999999999 C 218.09999999999997 92.49999999999999 218.19999999999996 92.39999999999999 218.19999999999996 91.79999999999998 L 218.19999999999996 81.6 C 218.19999999999996 81.1 218.39999999999995 81.1 218.69999999999996 81.1 C 219.09999999999997 81.1 219.09999999999997 81.19999999999999 219.39999999999995 81.6 L 226.79999999999995 91.89999999999999 C 227.09999999999997 92.39999999999999 227.59999999999997 92.6 228.09999999999997 92.6 L 230.99999999999997 92.6 C 231.69999999999996 92.6 232.29999999999998 92 232.29999999999998 91.3 L 232.29999999999998 80.6 C 232.29999999999998 80 232.2 79.89999999999999 231.7 79.89999999999999 z M 248.20000000000002 80.70000000000002 C 247.9 80.20000000000002 247.50000000000003 79.90000000000002 246.9 79.90000000000002 L 244.1 79.90000000000002 C 243.5 79.90000000000002 243.1 80.20000000000002 242.79999999999998 80.70000000000002 L 236.2 91.80000000000001 C 236.1 92.00000000000001 236.1 92.10000000000001 236.1 92.20000000000002 C 236.1 92.40000000000002 236.29999999999998 92.50000000000001 236.6 92.50000000000001 L 237.6 92.50000000000001 C 238.1 92.50000000000001 238.1 92.30000000000001 238.29999999999998 92.00000000000001 L 239.79999999999998 89.30000000000001 C 239.99999999999997 88.9 240.1 88.9 240.49999999999997 88.9 L 249.49999999999997 88.9 C 249.89999999999998 88.9 249.99999999999997 88.9 250.29999999999998 89.30000000000001 L 251.79999999999998 92.00000000000001 C 251.99999999999997 92.30000000000001 252.1 92.50000000000001 252.6 92.50000000000001 L 254.4 92.50000000000001 C 254.9 92.50000000000001 255 92.30000000000001 255 92.10000000000001 C 255 92.00000000000001 255 91.9 254.9 91.80000000000001 L 248.20000000000002 80.70000000000002 z M 248.70000000000002 87.60000000000002 L 241.10000000000002 87.60000000000002 C 240.8 87.60000000000002 240.70000000000002 87.30000000000003 240.8 87.10000000000002 L 244.10000000000002 81.50000000000003 C 244.3 81.10000000000002 244.40000000000003 81.10000000000002 244.90000000000003 81.10000000000002 C 245.30000000000004 81.10000000000002 245.50000000000003 81.10000000000002 245.70000000000005 81.50000000000003 L 249.00000000000006 87.10000000000002 C 249.20000000000005 87.40000000000002 249.00000000000006 87.60000000000002 248.70000000000005 87.60000000000002 z M 271.6 79.90000000000002 L 256.8 79.90000000000002 C 256.2 79.90000000000002 256.1 80.00000000000001 256.1 80.50000000000001 L 256.1 80.70000000000002 C 256.1 81.20000000000002 256.20000000000005 81.30000000000001 256.8 81.30000000000001 L 262.3 81.30000000000001 C 262.6 81.30000000000001 262.8 81.30000000000001 262.8 81.80000000000001 L 262.8 91.9 C 262.8 92.4 263 92.60000000000001 263.5 92.60000000000001 L 264.9 92.60000000000001 C 265.5 92.60000000000001 265.59999999999997 92.4 265.59999999999997 91.9 L 265.59999999999997 81.8 C 265.59999999999997 81.3 265.79999999999995 81.3 266.09999999999997 81.3 L 271.59999999999997 81.3 C 272.2 81.3 272.29999999999995 81.2 272.29999999999995 80.7 L 272.29999999999995 80.4 C 272.4 80 272.29999999999995 79.9 271.59999999999997 79.9 z M 278.70000000000005 79.90000000000002 L 277.40000000000003 79.90000000000002 C 276.8 79.90000000000002 276.70000000000005 80.10000000000002 276.70000000000005 80.60000000000002 L 276.70000000000005 91.90000000000002 C 276.70000000000005 92.40000000000002 276.90000000000003 92.60000000000002 277.40000000000003 92.60000000000002 L 278.70000000000005 92.60000000000002 C 279.30000000000007 92.60000000000002 279.40000000000003 92.40000000000002 279.40000000000003 91.90000000000002 L 279.40000000000003 80.6 C 279.40000000000003 80.1 279.20000000000005 79.89999999999999 278.70000000000005 79.89999999999999 z M 294.20000000000005 79.60000000000002 C 286.90000000000003 79.60000000000002 285.50000000000006 82.30000000000003 285.50000000000006 86.20000000000002 C 285.50000000000006 90.10000000000002 287.00000000000006 92.80000000000001 294.20000000000005 92.80000000000001 C 301.50000000000006 92.80000000000001 302.90000000000003 90.10000000000001 302.90000000000003 86.20000000000002 C 303.00000000000006 82.30000000000001 301.50000000000006 79.60000000000002 294.20000000000005 79.60000000000002 z M 294.20000000000005 91.50000000000003 C 289.00000000000006 91.50000000000003 288.50000000000006 89.60000000000002 288.50000000000006 86.20000000000003 C 288.50000000000006 82.80000000000004 289.00000000000006 80.90000000000003 294.20000000000005 80.90000000000003 C 299.40000000000003 80.90000000000003 299.90000000000003 82.80000000000004 299.90000000000003 86.20000000000003 C 299.90000000000003 89.60000000000002 299.40000000000003 91.50000000000003 294.20000000000005 91.50000000000003 z M 323.1 79.90000000000003 L 322.6 79.90000000000003 C 322.1 79.90000000000003 322 80.00000000000003 322 80.60000000000004 L 322 90.80000000000004 C 322 91.30000000000004 321.8 91.30000000000004 321.5 91.30000000000004 C 321.1 91.30000000000004 321.1 91.20000000000005 320.8 90.80000000000004 L 313.40000000000003 80.50000000000004 C 313.1 80.00000000000004 312.6 79.80000000000004 312.1 79.80000000000004 L 309.20000000000005 79.80000000000004 C 308.50000000000006 79.80000000000004 307.90000000000003 80.40000000000003 307.90000000000003 81.10000000000004 L 307.90000000000003 91.70000000000003 C 307.90000000000003 92.30000000000003 308.00000000000006 92.40000000000003 308.50000000000006 92.40000000000003 L 309.00000000000006 92.40000000000003 C 309.50000000000006 92.40000000000003 309.6000000000001 92.30000000000004 309.6000000000001 91.70000000000003 L 309.6000000000001 81.6 C 309.6000000000001 81.1 309.80000000000007 81.1 310.1000000000001 81.1 C 310.50000000000006 81.1 310.50000000000006 81.19999999999999 310.80000000000007 81.6 L 318.20000000000005 91.89999999999999 C 318.50000000000006 92.39999999999999 319.00000000000006 92.6 319.50000000000006 92.6 L 322.40000000000003 92.6 C 323.1 92.6 323.70000000000005 92 323.70000000000005 91.3 L 323.70000000000005 80.6 C 323.70000000000005 80 323.6 79.89999999999999 323.1 79.89999999999999 z M 339.6 80.70000000000003 C 339.3 80.20000000000003 338.90000000000003 79.90000000000003 338.3 79.90000000000003 L 335.5 79.90000000000003 C 334.9 79.90000000000003 334.5 80.20000000000003 334.2 80.70000000000003 L 327.59999999999997 91.80000000000003 C 327.49999999999994 92.00000000000003 327.49999999999994 92.10000000000002 327.49999999999994 92.20000000000003 C 327.49999999999994 92.40000000000003 327.69999999999993 92.50000000000003 327.99999999999994 92.50000000000003 L 328.99999999999994 92.50000000000003 C 329.49999999999994 92.50000000000003 329.49999999999994 92.30000000000003 329.69999999999993 92.00000000000003 L 331.19999999999993 89.30000000000003 C 331.3999999999999 88.90000000000002 331.49999999999994 88.90000000000002 331.99999999999994 88.90000000000002 L 340.99999999999994 88.90000000000002 C 341.3999999999999 88.90000000000002 341.49999999999994 88.90000000000002 341.79999999999995 89.30000000000003 L 343.29999999999995 92.00000000000003 C 343.49999999999994 92.30000000000003 343.59999999999997 92.50000000000003 344.09999999999997 92.50000000000003 L 345.79999999999995 92.50000000000003 C 346.29999999999995 92.50000000000003 346.4 92.30000000000003 346.4 92.10000000000002 C 346.4 92.00000000000003 346.4 91.90000000000002 346.29999999999995 91.80000000000003 L 339.59999999999997 80.70000000000003 z M 340.1 87.60000000000004 L 332.5 87.60000000000004 C 332.2 87.60000000000004 332.1 87.30000000000004 332.2 87.10000000000004 L 335.5 81.50000000000004 C 335.7 81.10000000000004 335.8 81.10000000000004 336.3 81.10000000000004 C 336.7 81.10000000000004 336.90000000000003 81.10000000000004 337.1 81.50000000000004 L 340.40000000000003 87.10000000000004 C 340.50000000000006 87.40000000000003 340.40000000000003 87.60000000000004 340.1 87.60000000000004 z M 362.40000000000003 91.10000000000004 L 354 91.10000000000004 C 353.7 91.10000000000004 353.5 91.10000000000004 353.5 90.60000000000004 L 353.5 80.60000000000004 C 353.5 80.10000000000004 353.3 79.90000000000003 352.8 79.90000000000003 L 351.5 79.90000000000003 C 350.9 79.90000000000003 350.8 80.10000000000004 350.8 80.60000000000004 L 350.8 91.20000000000003 C 350.8 91.90000000000003 351.40000000000003 92.50000000000003 352.1 92.50000000000003 L 362.6 92.50000000000003 C 363.20000000000005 92.50000000000003 363.3 92.40000000000003 363.3 91.90000000000003 L 363.3 91.60000000000004 C 363.1 91.20000000000003 363 91.10000000000004 362.40000000000003 91.10000000000004 z" stroke-linecap="round" />
</g>
		<g transform="matrix(1 0 0 1 -135.3 -0.1)"  >
<path style="stroke: none; stroke-width: 1; stroke-dasharray: none; stroke-linecap: butt; stroke-dashoffset: 0; stroke-linejoin: miter; stroke-miterlimit: 4; fill: rgb(245,10,55); fill-rule: nonzero; opacity: 1;" vector-effect="non-scaling-stroke"  transform=" translate(-46.35, -46.3)" d="M 31.5 10 L 28.8 3.4000000000000004 C 28.8 3.4000000000000004 28.8 3.3000000000000003 28.7 3.3000000000000003 L 28.599999999999998 3.3000000000000003 C 26.099999999999998 4.4 23.699999999999996 5.6 21.4 7.1 L 21.299999999999997 7.199999999999999 L 21.299999999999997 7.299999999999999 L 25.299999999999997 13.2 C 25.299999999999997 13.299999999999999 25.4 13.299999999999999 25.499999999999996 13.299999999999999 C 27.299999999999997 12.1 29.199999999999996 11.099999999999998 31.299999999999997 10.299999999999999 C 31.499999999999996 10.2 31.499999999999996 10.1 31.499999999999996 9.999999999999998 z M 21.2 16.3 L 16.6 10.9 L 16.5 10.8 L 16.4 10.8 C 14.299999999999999 12.600000000000001 12.399999999999999 14.5 10.7 16.6 L 10.7 16.700000000000003 C 10.7 16.700000000000003 10.7 16.800000000000004 10.799999999999999 16.800000000000004 L 16.4 21.200000000000003 L 16.599999999999998 21.200000000000003 C 17.999999999999996 19.500000000000004 19.499999999999996 18.000000000000004 21.199999999999996 16.500000000000004 L 21.199999999999996 16.300000000000004 z M 43.3 7.200000000000001 L 42.8 0.1 C 42.8 0.1 42.8 0 42.699999999999996 0 L 42.599999999999994 0 C 39.89999999999999 0.2 37.199999999999996 0.7 34.599999999999994 1.3 C 34.599999999999994 1.3 34.49999999999999 1.3 34.49999999999999 1.4000000000000001 L 34.49999999999999 1.5000000000000002 L 36.39999999999999 8.3 C 36.39999999999999 8.4 36.49999999999999 8.4 36.599999999999994 8.4 C 38.699999999999996 7.9 40.8 7.5 43.099999999999994 7.300000000000001 C 43.3 7.4 43.3 7.300000000000001 43.3 7.200000000000001 z M 80.1 77.7 L 80.3 77.7 C 87.89999999999999 69.5 92.6 58.5 92.7 46.5 C 92.8 37.6 90.3 29.2 85.9 22.1 L 85.80000000000001 22 L 85.70000000000002 22 L 79.70000000000002 25.8 C 79.60000000000002 25.8 79.60000000000002 25.900000000000002 79.70000000000002 26 C 83.30000000000001 31.9 85.30000000000001 38.9 85.30000000000001 46.4 C 85.20000000000002 56.599999999999994 81.30000000000001 65.7 75.00000000000001 72.6 C 74.90000000000002 72.69999999999999 74.90000000000002 72.8 75.00000000000001 72.8 L 80.10000000000001 77.7 z M 0 45.8 C -0.1 58.3 4.8 69.6 12.8 78 L 13 78 L 18.1 73.1 C 18.200000000000003 73 18.200000000000003 72.89999999999999 18.1 72.89999999999999 C 11.400000000000002 65.8 7.400000000000002 56.39999999999999 7.400000000000002 45.89999999999999 C 7.5 38.6 9.5 31.8 13 26 L 13 25.8 C 11.1 24.6 8.8 23.2 7 22 L 6.9 22 C 6.9 22 6.800000000000001 22 6.800000000000001 22.1 C 2.5 28.9 0.1 37.1 0 45.8 z M 17.8 82.69999999999999 C 17.8 82.69999999999999 17.8 82.79999999999998 17.900000000000002 82.79999999999998 C 25.6 88.79999999999998 35.400000000000006 92.49999999999999 45.900000000000006 92.59999999999998 C 56.900000000000006 92.69999999999997 67 88.99999999999999 75 82.69999999999997 L 75.1 82.59999999999998 L 75.1 82.49999999999999 L 70.3 77.19999999999999 C 70.2 77.1 70.1 77.1 70.1 77.19999999999999 C 63.39999999999999 82.29999999999998 55.099999999999994 85.39999999999999 45.99999999999999 85.29999999999998 C 37.3 85.19999999999999 29.299999999999994 82.29999999999998 22.89999999999999 77.39999999999998 L 22.699999999999992 77.39999999999998 L 17.89999999999999 82.69999999999997 C 17.79999999999999 82.59999999999998 17.79999999999999 82.59999999999998 17.79999999999999 82.69999999999997 z M 61.2 10 L 63.900000000000006 3.4000000000000004 C 63.900000000000006 3.4000000000000004 63.900000000000006 3.3000000000000003 64 3.3000000000000003 L 64.1 3.3000000000000003 C 66.6 4.4 69 5.6 71.3 7.1 L 71.39999999999999 7.199999999999999 L 71.39999999999999 7.299999999999999 L 67.39999999999999 13.2 C 67.39999999999999 13.299999999999999 67.3 13.299999999999999 67.19999999999999 13.299999999999999 C 65.39999999999999 12.1 63.499999999999986 11.099999999999998 61.39999999999999 10.299999999999999 C 61.19999999999999 10.2 61.099999999999994 10.1 61.19999999999999 9.999999999999998 z M 71.60000000000001 16.3 L 76.2 10.9 L 76.3 10.8 L 76.39999999999999 10.8 C 78.49999999999999 12.600000000000001 80.39999999999999 14.5 82.1 16.6 L 82.1 16.700000000000003 C 82.1 16.700000000000003 82.1 16.800000000000004 82 16.800000000000004 L 76.4 21.200000000000003 L 76.2 21.200000000000003 C 74.8 19.500000000000004 73.3 18.000000000000004 71.60000000000001 16.500000000000004 C 71.50000000000001 16.400000000000002 71.50000000000001 16.400000000000002 71.60000000000001 16.300000000000004 z M 49.3 7.2 L 49.8 0.10000000000000053 C 49.8 0.10000000000000053 49.8 5.273559366969494e-16 49.9 5.273559366969494e-16 L 50 5.273559366969494e-16 C 52.7 0.20000000000000054 55.4 0.7000000000000005 58 1.3000000000000005 C 58 1.3000000000000005 58.1 1.3000000000000005 58.1 1.4000000000000006 L 58.1 1.5000000000000007 L 56.2 8.3 C 56.2 8.4 56.1 8.4 56 8.4 C 53.9 7.9 51.8 7.5 49.5 7.300000000000001 C 49.3 7.4 49.3 7.300000000000001 49.3 7.200000000000001 z" stroke-linecap="round" />
</g>
</g>
</g>
</svg>
