<svg id="Layer_1" data-name="Layer 1" xmlns="http://www.w3.org/2000/svg" viewBox="0 0 215 127"><defs><style>.cls-1{fill:#fbfbfb;}.cls-2{fill:#383636;}.cls-3{fill:#e0fe9c;}</style></defs><title>kubernetes.io-logos2</title><rect class="cls-1" x="-3.4635" y="-3.35566" width="223.25536" height="134.51136"/><path class="cls-2" d="M180.06214,94.50021a19.37933,19.37933,0,0,1-1.69749,1.28849,11.279,11.279,0,0,1-3.16094,1.39209,12.96387,12.96387,0,0,1-3.36418.41055c-.30467-.00441-.31087-.00653-.31133-.31256q-.00309-2.05119.00019-4.10238a.57044.57044,0,0,1,.05-.29694,3.46573,3.46573,0,0,0,.90306-.02064l.408-.02423a.55642.55642,0,0,0,.38534-.05852,6.28366,6.28366,0,0,0,2.57531-.93658,2.50123,2.50123,0,0,0,.7933-.614c.07889.01042.12376-.02054.12472-.104a.03686.03686,0,0,0,.04469-.03684c.05555.0101.11.0165.13453-.05282a.03869.03869,0,0,0,.03795-.033c.03759.00431.05462-.01268.05125-.0504a.04186.04186,0,0,0,.03613-.037c.03687.00331.05386-.01351.05034-.05069a.04236.04236,0,0,0,.0367-.03732c.03529.002.05205-.01487.05007-.05031a.0424.0424,0,0,0,.037-.03717c.03528.00176.05151-.01522.04847-.05072a.043.043,0,0,0,.03287-.04213c.05969-.02606.045-.07481.03661-.12167a5.43734,5.43734,0,0,0,1.112-1.60449,9.89559,9.89559,0,0,0,.68239-1.85678l.01927-.00991-.01627-.00964a3.98321,3.98321,0,0,0,.15119-1.11909c.00782-2.733.00421-5.466.00421-8.20079-.11931-.055-.18888.04587-.264.09953a13.41437,13.41437,0,0,1-1.78365,1.07953,10.96431,10.96431,0,0,1-3.69336,1.04239,14.56265,14.56265,0,0,1-4.42155-.244,9.8892,9.8892,0,0,1-2.92758-1.09237,11.98646,11.98646,0,0,1-3.01282-2.43851c-.05881-.06358-.12123-.12381-.18149-.18531l.00621-.02967-.02729-.01239a.15162.15162,0,0,0-.05687-.13235l-.00191-.02946-.0303-.00448a8.68988,8.68988,0,0,1-1.077-1.48785,11.81741,11.81741,0,0,1-1.03456-2.25239,7.21276,7.21276,0,0,1-.20064-.85639c.00405-.00883.01371-.02057.01094-.0267a.305.305,0,0,0-.03107-.04646,7.17483,7.17483,0,0,1-.21189-1.26287,12.54473,12.54473,0,0,1-.10424-2.08906q.00026-8.771.00009-17.542c0-.07272-.00135-.14548.00025-.21818.00719-.32709.00749-.33264.34049-.33327q1.94289-.00366,3.8858-.0008c.48126.00027.48259.00159.48262.47487q.00048,7.76734.0008,15.5347c.00024.989-.01433,1.97881.0187,2.96689a6.25749,6.25749,0,0,0,1.10017,3.36955,8.19087,8.19087,0,0,0,2.32312,2.25334,6.42791,6.42791,0,0,0,3.32976,1.04521,6.98288,6.98288,0,0,0,1.13319-.01888.5721.5721,0,0,0,.39364-.05554l.30533-.03678a.46779.46779,0,0,0,.28873-.0617,6.50052,6.50052,0,0,0,2.47323-1.15481,1.46,1.46,0,0,0,.2078-.21979c.0373.03378.01288-.01963.02684-.019a.04614.04614,0,0,0,.05033-.04175c.0452-.01441.11.03424.13679-.04152a.03951.03951,0,0,0,.03852-.03275c.03683.0045.05487-.01152.05272-.04918l.47292-.47246c.03651.001.05379-.0158.04837-.05323a.04.04,0,0,0,.03226-.04019c.06323-.02467.05555-.07382.04257-.12479a6.36022,6.36022,0,0,0,1.362-2.20112,8.68872,8.68872,0,0,0,.51754-3.1009c-.01689-5.76294-.008-11.52594-.008-17.28893,0-.10187-.002-.20378.00038-.3056.00727-.316.00787-.32382.3068-.32449q2.03125-.00461,4.06251.00042c.32154.001.33323.02314.34178.35392.0015.05817.00025.11641.00025.17462q0,17.52907.00277,35.05814a12.72834,12.72834,0,0,1-.94968,4.98786,11.85522,11.85522,0,0,1-1.93786,3.10746c-.065.07644-.15735.13227-.18186.239l-.03366.01186-.00465.03462a.07687.07687,0,0,0-.04607.05214l-.03212.00543-.00477.03241a.07561.07561,0,0,0-.04893.05152l-.02884.00195-.00467.02906-.49707.497-.02862.00419-.00193.02883a.07626.07626,0,0,0-.05237.04873l-.03222.00424-.0056.03241a.0765.0765,0,0,0-.05173.04692l-.03354.00485Z"/><path class="cls-2" d="M62.45584,54.347c-.00631-1.28-.01818-2.56-.01444-3.84.00079-.26964-.12726-.60866.06848-.79322.17434-.16438.50113-.05412.7599-.05422q10.89807-.00417,21.79616-.00223H85.629c-1.66518,2.81648-3.31351,5.55974-4.94784,8.31116q-2.44812,4.12144-4.90509,8.23766c-1.64087,2.75135-3.285,5.50078-4.94519,8.28036a1.30215,1.30215,0,0,0,.53142.05238q6.9014.0028,13.80278.00153c.08736,0,.17477-.0019.26207.00037.31253.00809.31847.00858.321.31069.00457.55294.00135,1.10593.00134,1.65891,0,.8149-.00769,1.62992.00481,2.44464.00351.229-.06782.32069-.29516.29408a2.26625,2.26625,0,0,0-.26189-.00154q-11.37855,0-22.75711-.00233c-.16992-.00006-.40176.08432-.49745-.05253-.13345-.19081.11687-.3346.20237-.48154.48587-.83506,1.03035-1.63677,1.4995-2.48059.3617-.65057.74237-1.28807,1.13023-1.92223.44444-.72666.89323-1.4524,1.31635-2.18978.37693-.65688.76573-1.30716,1.14766-1.961.41538-.71117.8836-1.39235,1.28131-2.11277.45614-.82628.95155-1.62843,1.42922-2.44131.41727-.71012.8889-1.38931,1.28642-2.10978.36651-.66425.75813-1.312,1.1509-1.9598.43429-.71632.89973-1.41536,1.30163-2.14927.44007-.8036.91784-1.583,1.39462-2.36384.44382-.7269.84728-1.4783,1.3284-2.18262.071-.104.05073-.26.18355-.33039.05662-.03564.09083-.10669.01988-.12516a1.54647,1.54647,0,0,0-.38417-.02853q-2.41932-.00227-4.83863-.00113Q66.92386,54.35064,62.45584,54.347Z"/><path class="cls-2" d="M108.77691,71.38166a.18219.18219,0,0,0,.11882-.16534,19.22691,19.22691,0,0,0,.35123-2.16111c.04886-.82662.09795-1.65271.0975-2.48173q-.00444-8.21679.00111-16.43358c.00006-.17372.01285-.34743.01945-.52087q.30315-.0009.60686-.00233,2.08146-.00662,4.16293-.01308a.689.689,0,0,1,.05066.42461q.0032,8.29292.00156,16.58584a23.46554,23.46554,0,0,1-.46,5.073,13.46371,13.46371,0,0,1-1.34149,3.71114,9.07112,9.07112,0,0,1-2.69656,3.00956,8.56775,8.56775,0,0,1-2.13317,1.08028,14.73133,14.73133,0,0,1-5.99685.662,18.07563,18.07563,0,0,1-2.32316-.37064,8.58445,8.58445,0,0,1-5.62789-4.0183A11.724,11.724,0,0,1,92.418,73.02755a7.49653,7.49653,0,0,1-.21441-.93362,25.20161,25.20161,0,0,1-.53446-6.083q.0018-7.94375.00231-15.88749a1.25586,1.25586,0,0,1,.0361-.51707q2.38548.00471,4.77151.00908c.00839.17359.02406.34716.02413.52075q.0034,8.291.00509,16.58193a20.84631,20.84631,0,0,0,.33815,4.03609,5.75783,5.75783,0,0,0,1.86858,3.5129,4.941,4.941,0,0,0,2.79073,1.13216.39619.39619,0,0,0,.302.05217,11.12245,11.12245,0,0,0,2.22619.0013.65409.65409,0,0,0,.37932-.05958,4.95152,4.95152,0,0,0,2.5449-1.05627c.18653-.15148.434-.22706.56213-.451l.03785-.00993.00854-.03782.128-.22634.02892-.0064.00267-.03208a5.52847,5.52847,0,0,0,1.01545-1.93051.61458.61458,0,0,0-.00428-.216A.04275.04275,0,0,0,108.77691,71.38166Z"/><path class="cls-2" d="M148.32758,50.23551q0-14.18785.00122-28.37569c.00012-.60329-.08562-.53333.52909-.53487q1.92186-.00483,3.84375,0c.33115.00057.33149.0056.33735.33162.00157.08728.00028.17462.00028.26192q0,28.37568,0,56.75135c0,.57763,0,.57772-.57079.57774q-1.9.00007-3.80006-.001c-.334-.00061-.3345-.00587-.34049-.32983-.00187-.10183-.00031-.20372-.00031-.30558Q148.32759,64.42334,148.32758,50.23551Z"/><path class="cls-2" d="M121.79508,79.22162c-.00358-.17442-.0103-.34886-.0103-.52329q-.00072-28.39473.00349-56.78946c.00005-.19543-.07275-.40663.06618-.58915q2.298.002,4.59661.00379a.87354.87354,0,0,1,.04034.42886q.00226,28.53735-.00049,57.0747a.69993.69993,0,0,1-.04767.42459c-.36145-.00438-.72334-.01041-1.08524-.01244Q123.57654,79.22924,121.79508,79.22162Z"/><path class="cls-2" d="M135.40957,79.25232c-.10021-.14619-.0505-.31156-.05055-.46673q-.00442-14.30449-.00122-28.609a1.20455,1.20455,0,0,1,.04255-.51627q2.291.00152,4.58269.0025c.1335.16679.07891.36376.079.54768q.004,10.80268.00225,21.60537,0,3.49176-.0031,6.98354c-.00029.15188.06273.32193-.07348.4546C138.462,79.22809,136.93577,79.23114,135.40957,79.25232Z"/><path class="cls-3" d="M49.69143,63.78019a7.131,7.131,0,0,0-1.21428-.9397,22.85765,22.85765,0,0,0-3.77064-2.15219,29.28865,29.28865,0,0,0-3.72091-1.28767,16.13881,16.13881,0,0,0-5.55779-.48826,16.07942,16.07942,0,0,0-4.25638.80974c-.92077.30816-1.83864.6164-2.72759,1.00335-.70355.30625-1.38733.65632-2.0591,1.02918a25.49674,25.49674,0,0,0-2.24965,1.47024.94985.94985,0,0,1-.37421.19139,2.53112,2.53112,0,0,1,.50309-.74267,29.36732,29.36732,0,0,1,2.80237-2.97774A18.24157,18.24157,0,0,1,31.383,56.67763,11.79233,11.79233,0,0,1,34.93054,55.559a11.22568,11.22568,0,0,1,2.12132-.15613,12.76989,12.76989,0,0,1,4.21505.94333,16.85849,16.85849,0,0,1,3.9479,2.35824,20.46425,20.46425,0,0,1,2.52338,2.33569,25.87378,25.87378,0,0,1,2.02625,2.49442.3233.3233,0,0,1-.00707.452c-.41833.57406-.87166,1.11971-1.31818,1.67148a23.27638,23.27638,0,0,1-1.9352,2.00888,17.61494,17.61494,0,0,1-3.9038,2.86874A12.4029,12.4029,0,0,1,39.5023,71.7633a12.009,12.009,0,0,1-3.58867.301,17.4499,17.4499,0,0,1-1.80162-.2846,12.69044,12.69044,0,0,1-4.99939-2.30778,21.06416,21.06416,0,0,1-1.98644-1.616,14.83724,14.83724,0,0,1-1.19831-1.14078c-.69452-.7776-1.42335-1.52676-2.04045-2.37121-.05-.06843-.12388-.12981-.05584-.252.44738.30956.88706.62564,1.33843.924A22.23381,22.23381,0,0,0,31.2609,67.846a17.977,17.977,0,0,0,3.39928.66263,19.3982,19.3982,0,0,0,2.25481.13994,20.72111,20.72111,0,0,0,2.93665-.29027,20.44021,20.44021,0,0,0,4.31265-1.27759,18.1787,18.1787,0,0,0,2.44017-1.22815c.6328-.37873,1.25788-.76766,1.869-1.17855C48.87783,64.40215,49.2606,64.09814,49.69143,63.78019Z"/><path class="cls-3" d="M52.28579,76.25732a5.39086,5.39086,0,0,1-1.22994-.09966,12.6717,12.6717,0,0,0-1.34762-.06535c-.74257-.00656-1.48682-.0255-2.22757.01357a17.9477,17.9477,0,0,0-2.79992.36069,21.9841,21.9841,0,0,0-2.62645.72086,20.72268,20.72268,0,0,0-3.37623,1.49288,18.06167,18.06167,0,0,0-2.79369,1.90861,16.56246,16.56246,0,0,0-2.09014,2.03146,26.70013,26.70013,0,0,0-1.9357,2.56668,25.1926,25.1926,0,0,0-2.10786,4.02323,2.94144,2.94144,0,0,0,1.135.22016,25.05864,25.05864,0,0,0,2.90942.17287,20.66512,20.66512,0,0,0,7.01522-1.25757,19.441,19.441,0,0,0,4.89223-2.6822A21.19347,21.19347,0,0,0,47.896,83.68442a18.98118,18.98118,0,0,0,2.58765-3.14688,18.25141,18.25141,0,0,0,1.832-3.35216,1.07749,1.07749,0,0,1,.23637-.41422c.12974.03677.07915.14237.06784.20868A29.77913,29.77913,0,0,1,50.9332,83.212a15.37013,15.37013,0,0,1-2.59813,4.35191,11.44689,11.44689,0,0,1-6.0667,3.77706,11.96431,11.96431,0,0,1-1.41647.20866,15.62088,15.62088,0,0,1-2.52507.08592,24.61117,24.61117,0,0,1-2.592-.28016,12.66079,12.66079,0,0,1-2.07143-.42631,22.18338,22.18338,0,0,1-3.17707-1.15275c-.14322-.06842-.29671-.115-.44267-.1781a.53236.53236,0,0,1-.373-.68618c.0899-.5002.11866-1.00727.17924-1.50972a14.94035,14.94035,0,0,1,.38666-1.81215A20.193,20.193,0,0,1,31.984,80.97681a15.97285,15.97285,0,0,1,1.86456-2.76488A11.39332,11.39332,0,0,1,36.367,75.96762a10.86565,10.86565,0,0,1,4.21854-1.62934c.63138-.1044,1.26409-.14542,1.90136-.187a16.66962,16.66962,0,0,1,3.75553.26268,29.18709,29.18709,0,0,1,5.37781,1.53406C51.8203,76.02137,52.00843,76.1273,52.28579,76.25732Z"/><path class="cls-3" d="M74.4015,88.74292a1.72758,1.72758,0,0,1,.62529.45805,29.048,29.048,0,0,1,2.62009,2.42582,19.35919,19.35919,0,0,1,3.404,4.86026,12.08019,12.08019,0,0,1,1.05609,3.52031c.06954.51952.06211,1.04065.12583,1.5596a4.91657,4.91657,0,0,1-.07557,1.21222,12.32841,12.32841,0,0,1-.59218,2.575,16.29825,16.29825,0,0,1-2.15169,4.01138,22.29026,22.29026,0,0,1-3.029,3.35757,20.98057,20.98057,0,0,1-2.2552,1.82922.425.425,0,0,1-.513.01852,8.63141,8.63141,0,0,1-1.29007-.95583,22.15465,22.15465,0,0,1-2.08855-1.907,22.97093,22.97093,0,0,1-2.0725-2.51073,17.09294,17.09294,0,0,1-1.32807-2.18771,10.74758,10.74758,0,0,1-1.04974-2.9277,14.38522,14.38522,0,0,1-.17054-3.85542,10.90551,10.90551,0,0,1,.56047-2.56943,15.94636,15.94636,0,0,1,1.92489-3.63045,26.14145,26.14145,0,0,1,3.50517-3.91466c.54719-.53153,1.1629-.99264,1.74816-1.48493a.19482.19482,0,0,1,.18625-.02214,1.33338,1.33338,0,0,1-.31666.5324,22.15281,22.15281,0,0,0-3.2406,6.33469,20.23325,20.23325,0,0,0-.85943,3.98733c-.07065.62093-.05291,1.243-.13194,1.86362a9.20435,9.20435,0,0,0,.09147,1.95355,17.95226,17.95226,0,0,0,.56441,3.11623A21.24871,21.24871,0,0,0,71.653,111.253a27.29917,27.29917,0,0,0,2.01648,3.05169c.19711.26213.23235.25887.43608-.00661a24.49943,24.49943,0,0,0,2.56664-4.09055,19.89706,19.89706,0,0,0,1.84359-5.69229,17.725,17.725,0,0,0,.23172-3.85872,20.78567,20.78567,0,0,0-1.4582-6.55039,22.67476,22.67476,0,0,0-2.81-5.052.47175.47175,0,0,1-.10551-.2799Z"/><path class="cls-3" d="M52.06808,51.61408a14.91981,14.91981,0,0,1-2.41477.96259q-.6802.212-1.36606.40874c-.76789.22143-1.55688.32476-2.33682.47463a16.49183,16.49183,0,0,1-2.94179.2651,21.27807,21.27807,0,0,1-2.5082-.227,9.237,9.237,0,0,1-2.29467-.59861,10.66468,10.66468,0,0,1-2.6963-1.56356A13.5085,13.5085,0,0,1,32.061,47.194a19.22263,19.22263,0,0,1-1.62728-3.8707,20.47471,20.47471,0,0,1-.70068-2.978c-.07716-.50149-.0705-1.00972-.1713-1.506a.44385.44385,0,0,1,.28468-.51984c.19341-.09793.39769-.17418.59566-.26334a22.79511,22.79511,0,0,1,4.70719-1.49351,20.98459,20.98459,0,0,1,2.27628-.31575,15.82766,15.82766,0,0,1,2.089-.05852,11.82656,11.82656,0,0,1,6.60746,2.12418,12.53948,12.53948,0,0,1,3.44964,3.81363,19.24627,19.24627,0,0,1,1.81057,3.99476,26.287,26.287,0,0,1,1,4.084,1.95068,1.95068,0,0,1,.05823.68333,2.18886,2.18886,0,0,1-.39484-.70638,21.47338,21.47338,0,0,0-2.22942-3.73525,20.77413,20.77413,0,0,0-2.24-2.60911,19.40116,19.40116,0,0,0-5.92507-4.0084,19.69614,19.69614,0,0,0-4.80238-1.36358,24.41371,24.41371,0,0,0-4.87308-.165,10.86439,10.86439,0,0,0-2.26916.27818.24753.24753,0,0,0,.03111.21869,26.11031,26.11031,0,0,0,1.822,3.52069,21.17759,21.17759,0,0,0,3.30242,4.09395,19.05257,19.05257,0,0,0,3.46976,2.62025,19.45238,19.45238,0,0,0,5.32441,2.12632,23.74775,23.74775,0,0,0,2.99752.50145,20.55772,20.55772,0,0,0,2.12619.11107,15.19733,15.19733,0,0,0,2.08341-.09425A3.51564,3.51564,0,0,1,52.06808,51.61408Z"/><path class="cls-3" d="M48.036,20.10229c-.10077.50153-.08677,1.01192-.14348,1.513a14.34715,14.34715,0,0,0-.05816,1.9147A20.70155,20.70155,0,0,0,49.2664,30.9188a18.19363,18.19363,0,0,0,2.257,4.07178,20.97593,20.97593,0,0,0,3.0795,3.31445,22.60218,22.60218,0,0,0,5.13478,3.34408c.50733.24236,1.02259.47006,1.55009.68332a2.8912,2.8912,0,0,1-1.08643-.06744c-.72026-.06937-1.42038-.27473-2.14512-.3359-.25025-.02112-.48771-.20594-.73713-.2222a7.35084,7.35084,0,0,1-1.845-.46483,16.9046,16.9046,0,0,1-4.53255-2.239A12.371,12.371,0,0,1,48.082,36.17015,11.85843,11.85843,0,0,1,46.21061,31.869a5.95274,5.95274,0,0,1-.13451-.9836c-.05962-.91386-.10794-1.8264-.09153-2.743.01068-.59664.10655-1.18354.15143-1.77506a15.81815,15.81815,0,0,1,.28385-1.92332,20.5941,20.5941,0,0,1,.65477-2.37379c.18031-.54866.38982-1.088.595-1.62814.16744-.44079.338-.55245.776-.49779.83165.10379,1.66652.18026,2.49138.34009a22.8094,22.8094,0,0,1,5.094,1.563A14.44169,14.44169,0,0,1,59.5617,24.0506,11.2537,11.2537,0,0,1,62.42164,27.685a12.49677,12.49677,0,0,1,1.10621,3.55263,13.65956,13.65956,0,0,1,.13073,2.21595,20.77942,20.77942,0,0,1-.51088,4.43709,32.99945,32.99945,0,0,1-1.17378,3.95143c-.02415.06605-.06065.1276-.09243.19337-.12783-.08838-.07929-.21336-.05848-.301a8.65976,8.65976,0,0,0,.11146-2.08191,23.38239,23.38239,0,0,0-.18689-3.03445,22.39211,22.39211,0,0,0-1.02916-4.35153A18.621,18.621,0,0,0,57.768,26.85677a19.62083,19.62083,0,0,0-4.38316-4.08527,24.50664,24.50664,0,0,0-5.0598-2.62543A.39884.39884,0,0,0,48.036,20.10229Z"/><path class="cls-3" d="M86.6842,41.99162c.48925-.226.96608-.43365,1.43179-.66375a21.99729,21.99729,0,0,0,4.40312-2.88424,20.19491,20.19491,0,0,0,3.8233-4.21835,19.18708,19.18708,0,0,0,2.88288-7.04875,26.85946,26.85946,0,0,0,.32037-5.85886c-.01228-.56273-.10893-1.12392-.17468-1.68491a2.439,2.439,0,0,0-.10209-.36021,18.78642,18.78642,0,0,0-2.231,1.01561c-.81692.44442-1.621.91107-2.39182,1.43535a20.29338,20.29338,0,0,0-3.59089,3.09641,18.02617,18.02617,0,0,0-2.96229,4.34178,19.85874,19.85874,0,0,0-1.7391,5.45621c-.12272.758-.20478,1.5192-.27737,2.28421a19.74284,19.74284,0,0,0-.04887,2.52537,14.213,14.213,0,0,0,.215,2.20267.20236.20236,0,0,1-.01675.17189c-.14472.02824-.15566-.10465-.1862-.18221a33.94411,33.94411,0,0,1-1.56006-4.94927,13.23918,13.23918,0,0,1-.23564-1.71114,26.4737,26.4737,0,0,1-.1561-2.77938,11.37816,11.37816,0,0,1,1.459-5.69235,12.36257,12.36257,0,0,1,4.78055-4.67435,16.0542,16.0542,0,0,1,2.38758-1.15207,21.7659,21.7659,0,0,1,2.89915-.90482,17.257,17.257,0,0,1,3.03108-.527.52763.52763,0,0,0,.08682-.0082c.6792-.15372.63564-.11729.92858.55266a26.31549,26.31549,0,0,1,.96613,2.562,21.61841,21.61841,0,0,1,.79018,3.37515,18.16593,18.16593,0,0,1,.23095,3.03264,12.25433,12.25433,0,0,1-1.55244,5.99453,11.4072,11.4072,0,0,1-1.40615,1.92808A13.50022,13.50022,0,0,1,95.834,39.05455a16.56675,16.56675,0,0,1-2.83862,1.41365,25.72527,25.72527,0,0,1-3.05648.989c-.67218.17038-1.36215.271-2.04479.3995-.28453.05355-.57084.0976-.85614.14709A.48513.48513,0,0,1,86.6842,41.99162Z"/><path class="cls-3" d="M86.70987,85.82183a1.9694,1.9694,0,0,1,.87485.08062c1.02082.19527,2.04345.38888,3.04626.66936a19.581,19.581,0,0,1,6.042,2.71584,15.21149,15.21149,0,0,1,1.40658,1.16285,10.08246,10.08246,0,0,1,1.66782,1.93459,11.46464,11.46464,0,0,1,1.83184,4.69547,15.10307,15.10307,0,0,1,.14788,3.1694,19.3811,19.3811,0,0,1-.292,2.45632,25.73322,25.73322,0,0,1-.99913,3.68423,15.76934,15.76934,0,0,1-.77779,1.88924c-.20995.41863-.21039.437-.65947.38-.61771-.07843-1.23263-.18074-1.8468-.28437-.32825-.05539-.67-.08455-.98128-.17069-.45681-.12641-.92789-.17664-1.38-.32123a22.31722,22.31722,0,0,1-3.778-1.52325,16.15779,16.15779,0,0,1-2.73311-1.83944,11.13767,11.13767,0,0,1-2.2442-2.52364,11.77921,11.77921,0,0,1-1.42837-3.14958,14.41533,14.41533,0,0,1-.35618-2.34918,9.81186,9.81186,0,0,1-.07143-1.39089,22.32417,22.32417,0,0,1,.26618-2.85593,19.70782,19.70782,0,0,1,.431-2.25049,39.68208,39.68208,0,0,1,1.27608-3.77436c.02776-.07173.04441-.17643.18746-.19667-.02636.2851-.0429.56407-.07933.84041a17.59975,17.59975,0,0,0-.14586,3.38859,23.30866,23.30866,0,0,0,.75731,4.88679,21.20958,21.20958,0,0,0,1.00331,2.83067,17.86118,17.86118,0,0,0,2.23577,3.77974,20.04208,20.04208,0,0,0,2.72108,2.87658,22.88919,22.88919,0,0,0,3.18307,2.2835,27.81928,27.81928,0,0,0,3.075,1.55217,2.19168,2.19168,0,0,0,.30032.07908,21.84975,21.84975,0,0,0-.38227-9.31153,18.63327,18.63327,0,0,0-4.53412-8.09083A22.368,22.368,0,0,0,86.70987,85.82183Z"/><path class="cls-3" d="M61.45223,85.479c-.58006.25679-1.09807.478-1.60923.71393a21.63876,21.63876,0,0,0-4.26019,2.61424,19.3769,19.3769,0,0,0-5.17108,5.94133,18.96209,18.96209,0,0,0-2.00981,5.364,16.71354,16.71354,0,0,0-.32824,2.14572,21.90486,21.90486,0,0,0-.14749,2.73421c.038.89716.06353,1.79678.17837,2.68946.003.02336.0323.04334.064.08344A12.07853,12.07853,0,0,0,49.731,107.144a25.58424,25.58424,0,0,0,3.33776-1.80163,22.42414,22.42414,0,0,0,2.64988-2.05332A18.41032,18.41032,0,0,0,58.76748,99.723a19.45072,19.45072,0,0,0,2.78994-6.81287,22.02715,22.02715,0,0,0,.44937-3.61852,9.06111,9.06111,0,0,0,.04562-1.519,16.25825,16.25825,0,0,0-.14524-1.819,1.04493,1.04493,0,0,1-.0018-.21092,1.02167,1.02167,0,0,1,.25741.47044,29.06733,29.06733,0,0,1,1.27791,4.64151c.10609.58143.1676,1.175.23023,1.76639.07852.74136.05233,1.48.073,2.21988a11.84036,11.84036,0,0,1-1.92233,6.53609,10.76488,10.76488,0,0,1-1.86634,2.17412,18.40773,18.40773,0,0,1-2.62033,1.85419,17.98127,17.98127,0,0,1-2.89258,1.295,11.62153,11.62153,0,0,1-2.163.62747,26.907,26.907,0,0,1-3.13425.48383c-.24321.01081-.48916.05143-.73367.07838a.4978.4978,0,0,1-.55068-.31235,12.25093,12.25093,0,0,1-.62671-1.61524,25.26734,25.26734,0,0,1-.86279-3.21049c-.07179-.35239-.05359-.71936-.10741-1.08026a17.13016,17.13016,0,0,1-.18981-3.08225c.01917-.59572.12018-1.18275.16073-1.77431a8.61024,8.61024,0,0,1,.34466-1.82308,11.12939,11.12939,0,0,1,1.33174-2.90669,10.221,10.221,0,0,1,1.57517-1.95757A14.04979,14.04979,0,0,1,52.57,87.90419a21.93052,21.93052,0,0,1,5.93655-2.029,15.88265,15.88265,0,0,1,2.31268-.36087C61.00564,85.50436,61.18068,85.38994,61.45223,85.479Z"/><path class="cls-3" d="M73.95069,13.30314a.37844.37844,0,0,0-.36017.18495,27.07575,27.07575,0,0,0-1.82387,2.70983A21.44758,21.44758,0,0,0,69.81448,20.519a17.81164,17.81164,0,0,0-.76967,3.60617,16.66263,16.66263,0,0,0-.15207,2.42776,21.159,21.159,0,0,0,.84622,5.3499,23.28935,23.28935,0,0,0,1.545,3.833,22.65777,22.65777,0,0,0,2.09,3.31357c.04937.0653.13851.11328.0923.24818a.76887.76887,0,0,1-.42426-.24639,30.05469,30.05469,0,0,1-3.14265-2.88136,20.5686,20.5686,0,0,1-2.96358-4.05844,13.42722,13.42722,0,0,1-1.32534-3.55613,4.20464,4.20464,0,0,1-.12863-.94033c.00849-.62535.007-1.25147-.01424-1.87646a8.896,8.896,0,0,1,.58434-3.2645,15.38969,15.38969,0,0,1,2.40727-4.34569,22.952,22.952,0,0,1,1.88579-2.20575,22.0686,22.0686,0,0,1,2.3558-2.04259,7.65883,7.65883,0,0,1,.903-.66939c.1536-.08345.27325-.09641.35246.08759Z"/><path class="cls-3" d="M73.95618,13.29812a2.88835,2.88835,0,0,1,.88737.60893,24.273,24.273,0,0,1,2.59328,2.31759,20.47867,20.47867,0,0,1,3.05393,4.10185A14.19335,14.19335,0,0,1,81.972,24.38734a11.8803,11.8803,0,0,1,.12446,2.04005,10.65425,10.65425,0,0,1-.87987,4.30977,16.61617,16.61617,0,0,1-2.60772,4.24292,24.74065,24.74065,0,0,1-2.3237,2.47472c-.61481.5708-1.267,1.10143-1.90584,1.64614a.44882.44882,0,0,1-.16233.04973l-.00122-.00122a.51628.51628,0,0,1,.15312-.35094,21.60049,21.60049,0,0,0,2.25842-3.773A20.47762,20.47762,0,0,0,78.338,29.69482a21.11316,21.11316,0,0,0,.27273-2.37295c.02319-.44833.075-.89767.055-1.34614a25.30345,25.30345,0,0,0-.30054-2.93636,18.9,18.9,0,0,0-1.38177-4.52645,22.72277,22.72277,0,0,0-2.20719-3.90475q-.3364-.48268-.688-.95466c-.07975-.10715-.1666-.204-.13747-.35043Z"/><path class="cls-2" d="M138.22625,42.72605a7.99259,7.99259,0,0,1-1.77265-.10834,2.03576,2.03576,0,0,1-.69786-.28335,4.16831,4.16831,0,0,1-2.10779-2.5391,4.03531,4.03531,0,0,1-.15861-1.48917,3.95827,3.95827,0,0,1,.29351-1.49313,5.44074,5.44074,0,0,1,.85653-1.21483,4.16913,4.16913,0,0,1,2.59954-1.2808q.5025.005,1.00562.00984a4.8497,4.8497,0,0,1,2.22869.99247c-.0011.03706.01581.055.05406.0498a.04181.04181,0,0,0,.0392.034l.00827.03459.03489.009.14033.13764.00871.03349.03373.00787a.0436.0436,0,0,0,.035.04035c-.00464.03718.01181.0548.04955.05228a.04014.04014,0,0,0,.03367.0376c-.00694.038.01331.05443.048.05907a4.94641,4.94641,0,0,1,.92189,2.1143,4.1957,4.1957,0,0,1-1.02073,3.37394,4.98088,4.98088,0,0,1-1.386,1.07632c-.25089.14671-.55407.12482-.80441.26555A.84213.84213,0,0,0,138.22625,42.72605Z"/><path class="cls-3" d="M62.45584,54.347q4.468.003,8.936.00592,2.41932.00122,4.83863.00113a1.54647,1.54647,0,0,1,.38417.02853c.07095.01847.03674.08952-.01988.12516-.16389-.14309-.36236-.07955-.54477-.07971q-6.55017-.00559-13.10035-.00654C62.78547,54.42132,62.60138,54.49344,62.45584,54.347Z"/><path class="cls-3" d="M114.13481,49.60362q-2.08146.00653-4.16293.01308-.30357.001-.60686.00233c.071-.10453.18051-.074.2771-.07413q2.12478-.00256,4.24954-.00073C113.97681,49.5442,114.0668,49.53077,114.13481,49.60362Z"/><path class="cls-3" d="M96.4791,49.61542q-2.3859-.00445-4.77151-.00908c.06659-.076.15692-.0621.24193-.06214q2.14677-.00091,4.29352.00013C96.32778,49.54437,96.419,49.53044,96.4791,49.61542Z"/><path class="cls-3" d="M121.79508,79.22162q1.78146.00864,3.56292.0176c.3619.002.72379.00806,1.08524.01244-.09714.09613-.21989.05779-.33159.058q-1.98217.00381-3.96436-.00167C122.02864,79.30753,121.88073,79.37607,121.79508,79.22162Z"/><path class="cls-3" d="M139.983,49.66284q-2.29152-.00113-4.58269-.0025a.42481.42481,0,0,1,.25292-.0387q2.03981-.0009,4.07963.00027A.3637.3637,0,0,1,139.983,49.66284Z"/><path class="cls-3" d="M135.40957,79.25232c1.5262-.02118,3.05238-.02423,4.57812.00171-.0837.084-.19046.05615-.2888.05626q-2.001.00227-4.00192,0C135.59877,79.31016,135.49171,79.33846,135.40957,79.25232Z"/><path class="cls-3" d="M126.45106,21.32351q-2.29843-.00186-4.59661-.00379c.08121-.08523.18717-.06227.28565-.06235q2.014-.00168,4.02812.0001C126.26622,21.25757,126.37306,21.23246,126.45106,21.32351Z"/><path class="cls-3" d="M138.24454,34.32717q-.503-.00491-1.00562-.00984A1.61573,1.61573,0,0,1,138.24454,34.32717Z"/><path class="cls-3" d="M172.48149,92.85881a3.4653,3.4653,0,0,1-.90306.02065A4.08052,4.08052,0,0,1,172.48149,92.85881Z"/><path class="cls-3" d="M138.22625,42.72605a.84213.84213,0,0,1,.443-.08057C138.53837,42.7661,138.379,42.72768,138.22625,42.72605Z"/><path class="cls-3" d="M173.27484,92.77607a.55636.55636,0,0,1-.38534.05851C173.0058,92.73383,173.14265,92.77026,173.27484,92.77607Z"/><path class="cls-3" d="M104.41329,75.39314a.65409.65409,0,0,1-.37932.05958C104.148,75.35253,104.283,75.38777,104.41329,75.39314Z"/><path class="cls-3" d="M173.28314,75.2277a.5721.5721,0,0,1-.39364.05554A.48218.48218,0,0,1,173.28314,75.2277Z"/><path class="cls-3" d="M101.80778,75.45142a.39619.39619,0,0,1-.302-.05217C101.61207,75.3856,101.71978,75.36157,101.80778,75.45142Z"/><path class="cls-3" d="M173.8772,75.12922a.46786.46786,0,0,1-.28873.06171C173.66952,75.09843,173.77491,75.121,173.8772,75.12922Z"/><path class="cls-3" d="M74.21534,88.58193a.3683.3683,0,0,1,.18605.1611l-.02756.03124a.1718.1718,0,0,1-.15514-.19581Z"/><path class="cls-3" d="M176.76817,91.12147c-.001.08347-.04583.11443-.12472.104A.193.193,0,0,1,176.76817,91.12147Z"/><path class="cls-3" d="M176.77219,73.65237c-.02675.07576-.09159.02711-.13679.04152C176.666,73.62969,176.718,73.63726,176.77219,73.65237Z"/><path class="cls-3" d="M176.58507,73.73564c-.014-.00065.01046.05276-.02684.019l.00675-.01926Z"/><path class="cls-3" d="M176.94739,91.03181c-.02454.06932-.079.06292-.13453.05282C176.83639,91.012,176.89072,91.01888,176.94739,91.03181Z"/><path class="cls-3" d="M177.36481,90.52131c.00839.04686.02308.09561-.03661.12167C177.316,90.59494,177.30753,90.54826,177.36481,90.52131Z"/><path class="cls-3" d="M177.45955,72.87977c.013.051.02066.10012-.04257.12479C177.40547,72.954,177.39586,72.90444,177.45955,72.87977Z"/><polygon class="cls-3" points="162.923 75.774 162.953 75.778 162.955 75.807 162.927 75.802 162.923 75.774"/><polygon class="cls-3" points="163.012 75.94 163.039 75.952 163.033 75.982 163.008 75.968 163.012 75.94"/><path class="cls-3" d="M177.38472,73.04475c.00542.03743-.01186.05423-.04837.05323A.04683.04683,0,0,1,177.38472,73.04475Z"/><polygon class="cls-3" points="107.726 73.573 107.724 73.605 107.695 73.612 107.698 73.583 107.726 73.573"/><path class="cls-3" d="M108.77691,71.38166a.04275.04275,0,0,1-.03948.04519A.03911.03911,0,0,1,108.77691,71.38166Z"/><path class="cls-3" d="M160.59064,71.10373a.305.305,0,0,1,.03107.04646c.00277.00613-.00689.01787-.01094.0267a.35527.35527,0,0,1-.03625-.0469C160.57206,71.12556,160.58485,71.11271,160.59064,71.10373Z"/><path class="cls-3" d="M74.12753,39.2363l-.03977.03663c.00285-.00829.00332-.02034.0091-.024a.11721.11721,0,0,1,.03393-.00946Z"/><path class="cls-3" d="M74.217,39.15067l-.08941.08563.00325.00316a.0944.0944,0,0,1,.08495-.09Z"/><polygon class="cls-3" points="179.162 87.04 179.178 87.05 179.159 87.06 179.162 87.04"/><path class="cls-3" d="M74.21869,88.57846l-.0426-.03255c.008.00148.019.00024.02336.005a.12975.12975,0,0,1,.01589.031Z"/><path class="cls-3" d="M140.95859,35.81537c-.03469-.00464-.05494-.021-.048-.05907C140.94648,35.76011,140.96364,35.77873,140.95859,35.81537Z"/><path class="cls-3" d="M140.87692,35.7187c-.03774.00252-.05419-.0151-.04955-.05228A.04683.04683,0,0,1,140.87692,35.7187Z"/><path class="cls-3" d="M176.86343,73.57044c.00215.03766-.01589.05368-.05272.04918A.04691.04691,0,0,1,176.86343,73.57044Z"/><path class="cls-3" d="M177.29533,90.68511c.003.0355-.01319.05248-.04847.05072A.04577.04577,0,0,1,177.29533,90.68511Z"/><path class="cls-3" d="M177.20983,90.773c.002.03544-.01478.05228-.05007.05031A.046.046,0,0,1,177.20983,90.773Z"/><path class="cls-3" d="M177.12306,90.86063c.00352.03718-.01347.054-.05034.05069A.0464.0464,0,0,1,177.12306,90.86063Z"/><path class="cls-3" d="M177.03659,90.94836c.00337.03772-.01366.05471-.05125.0504A.04689.04689,0,0,1,177.03659,90.94836Z"/><path class="cls-3" d="M107.56671,73.83815l-.00854.03782-.03785.00993C107.5195,73.85331,107.5349,73.83745,107.56671,73.83815Z"/><path class="cls-3" d="M140.79242,35.62607l-.03373-.00787-.00871-.03349C140.77923,35.58286,140.79328,35.59658,140.79242,35.62607Z"/><path class="cls-3" d="M140.60965,35.44707l-.03489-.009-.00827-.03459C140.59706,35.40267,140.61138,35.41714,140.60965,35.44707Z"/><path class="cls-3" d="M140.52729,35.36944c-.03825.0052-.05516-.01274-.05406-.0498A.04788.04788,0,0,1,140.52729,35.36944Z"/><path class="cls-3" d="M180.93787,93.62664l.00465-.03462.03366-.01186C180.981,93.61043,180.96826,93.62582,180.93787,93.62664Z"/><polygon class="cls-3" points="180.855 93.717 180.86 93.684 180.892 93.679 180.885 93.709 180.855 93.717"/><polygon class="cls-3" points="180.772 93.799 180.777 93.77 180.806 93.768 180.8 93.796 180.772 93.799"/><polygon class="cls-3" points="180.245 94.329 180.247 94.3 180.275 94.296 180.272 94.323 180.245 94.329"/><polygon class="cls-3" points="180.155 94.415 180.16 94.382 180.192 94.378 180.185 94.408 180.155 94.415"/><polygon class="cls-3" points="180.062 94.5 180.069 94.466 180.103 94.461 180.094 94.493 180.062 94.5"/></svg>