<svg id="Layer_1" data-name="Layer 1" xmlns="http://www.w3.org/2000/svg" xmlns:xlink="http://www.w3.org/1999/xlink" viewBox="0 0 215 127"><defs><style>.cls-1{fill:none;}.cls-2{fill:transparent;}.cls-3{clip-path:url(#clip-path);}.cls-4{clip-path:url(#clip-path-2);}.cls-5{fill:#231f20;}.cls-6{clip-path:url(#clip-path-3);}.cls-7{clip-path:url(#clip-path-4);}.cls-8{clip-path:url(#clip-path-5);}.cls-9{clip-path:url(#clip-path-6);}</style><clipPath id="clip-path"><rect class="cls-1" x="70.10441" y="2.08849" width="67.24389" height="48.03135"/></clipPath><clipPath id="clip-path-2"><rect class="cls-1" x="80.18001" y="11.21376" width="293.55801" height="41.22531"/></clipPath><clipPath id="clip-path-3"><rect class="cls-1" x="34.42397" y="37.08276" width="145.46637" height="58.32378"/></clipPath><clipPath id="clip-path-4"><rect class="cls-1" x="-22.47396" y="47.12268" width="293.558" height="41.22531"/></clipPath><clipPath id="clip-path-5"><rect class="cls-1" x="63.24278" y="75.50784" width="115.27524" height="49.40367"/></clipPath><clipPath id="clip-path-6"><polygon class="cls-1" points="-140.248 83.64 153.31 83.64 153.31 124.865 -140.248 124.865 -140.248 83.64 -140.248 83.64"/></clipPath></defs><title>kubernetes.io-logos</title><rect class="cls-2" x="-4.04384" y="-3.09231" width="223.25536" height="134.51136"/><path class="cls-1" d="M17.43759,10.00121H196.90967V119.92786H17.43759Z"/><g class="cls-3"><g class="cls-4"><path class="cls-5" d="M98.32557,11.25081a5.772,5.772,0,0,1,3.08429,1.32635,3.98251,3.98251,0,0,1,.90711,3.90221,3.9695,3.9695,0,0,1-1.94115,2.72612,5.15792,5.15792,0,0,1-2.80365.78909v5.33285l2.59506,2.09965-2.59506,2.09623v7.26646a11.75993,11.75993,0,0,0,4.211-4.8299s.07-.17771.21889-.52217a9.64083,9.64083,0,0,1-.94759,5.02339A9.36909,9.36909,0,0,1,97.1639,40.858a10.517,10.517,0,0,1-7.87165,1.36135A11.16054,11.16054,0,0,1,81.962,37.14588a12.12356,12.12356,0,0,1-1.77922-6.83348c.10018-4.9191,3.76085-9.161,7.98555-10.74256a4.17764,4.17764,0,0,1,1.4485-.38631c-.33416.22781-.72322.5256-1.20079.83918a8.83779,8.83779,0,0,0-3.02391,4.04492l8.20032-3.662V31.87136l-6.6146,3.31827A8.61479,8.61479,0,0,0,91.98,38.03172,7.83584,7.83584,0,0,0,97.26614,36.949V29.52262L94.6848,27.4264l2.58546-2.09211v-5.3404a35.89571,35.89571,0,0,1-4.12245-.88172c-1.46976-.35955-6.37307-1.74011-7.14433-1.85264a2.89723,2.89723,0,0,0-2.29521.433,2.28768,2.28768,0,0,0-.68479,2.25473,2.51758,2.51758,0,0,0,.69989,1.00179,2.10493,2.10493,0,0,1-.7987-.33278,3.71281,3.71281,0,0,1-1.7154-2.97795,4.94981,4.94981,0,0,1,2.06534-4.40447,6.19247,6.19247,0,0,1,4.3386-1.09032c2.41324.34034,5.66153,1.70512,8.55233,2.40157a3.6018,3.6018,0,0,0,2.7769-.09675,1.35982,1.35982,0,0,0,.483-1.85264c-.6148-1.06766-1.79431-1.0361-2.79611-1.22617a4.254,4.254,0,0,1,1.6962-.1187Zm-9.749,22.79637V22.97183l-3.32926,1.489a10.93346,10.93346,0,0,0-.70194,4.65629A11.46127,11.46127,0,0,0,86.796,34.92958l1.78059-.8824"/></g><path class="cls-5" d="M130.1333,22.43045s-2.51341,1.52328-4.202,2.53262c-1.69,1.0018-3.95572,2.10789-3.95572,2.10789V37.6358l-1.5123,1.21451.199.23192,1.47319-1.18363,4.62337,4.17256,8.0322-6.36073-.1935-.23192-4.43536,3.48433-3.649-3.41434V34.27224l7.32822-5.38706Zm.10568,8.728-3.72586,2.73024v-9.08l3.72586,6.34974M109.08253,46.04335a7.419,7.419,0,0,0,5.15651-.7191,7.12029,7.12029,0,0,0,3.71419-6.58578l.10636-3.82879v-8.376l1.58777-1.21451-.18526-.23192-1.56034,1.1754-3.60784-4.00993-4.62473,3.97562V12.73155l-5.77955,4.4628A1.50686,1.50686,0,0,1,104.98956,18.66V37.56993L102.542,39.38757l.16605.25114,1.18363-.88172,3.29289,3.063,5.17779-4.12589-.18732-.23193-1.21656.96269-1.2893-1.27969.01372-10.534,1.50819-1.2838,2.25061,2.79611s-.00206,6.8177.00411,9.0841c-.01921,2.41323-.02539,5.42548-1.29547,6.876a4.905,4.905,0,0,1-3.06783,1.95968m35.95628-.951c-2.07084-.24015-2.93884-1.49309-2.9155-2.48253a2.26165,2.26165,0,0,1,1.84852-2.04545,4.06858,4.06858,0,0,1,3.62911,1.69414l4.78186-5.28277-.2278-.20859-1.28587,1.4382a8.35861,8.35861,0,0,0-4.99869-2.69113V19.41408l12.41748,22.62277s.12008.25868.63058.25868c.43708,0,.33073-.35543.33073-.35543L159.24717,19.178a5.678,5.678,0,0,0,3.30043-1.36889c2.392-2.45578,1.4135-5.13936,1.14864-5.39461a2.5942,2.5942,0,0,1-2.54841,2.359,4.41421,4.41421,0,0,1-3.17281-1.454l-4.77981,5.4447.22781.20859,1.37095-1.56651a5.87886,5.87886,0,0,0,4.15334,1.771l-.00207,13.20245-9.21173-16.72863a4.75061,4.75061,0,0,0-4.09364-2.61428,4.322,4.322,0,0,0-4.12246,3.73958,5.20319,5.20319,0,0,0,.02539,2.41324s.33622-2.18131,1.688-2.16553c1.21451.01921,1.84852,1.137,2.33227,1.97615v4.8491c-1.2495.081-4.51083.2285-4.71051,3.61951a3.97187,3.97187,0,0,0,1.454,3.028,3.09608,3.09608,0,0,0,1.57406.57226,1.48833,1.48833,0,0,1-.74243-1.67835c.282-.99425,2.35492-1.15618,2.42833-.739v6.841c-.99562-.01578-4.18833.09263-5.62652,2.827a4.60873,4.60873,0,0,0,.11046,4.80725,4.8106,4.8106,0,0,0,4.98841,1.96517m26.22648-22.66188s-2.51136,1.52328-4.20137,2.53262c-1.688,1.0018-3.95572,2.10789-3.95572,2.10789V37.6358L161.598,38.85031l.199.23192,1.47524-1.18363,4.6213,4.17256,8.03016-6.36073-.18938-.23192-4.43947,3.48433-3.647-3.41434V34.27224l7.32615-5.38706-3.7087-6.45473Zm.1084,8.728-3.72585,2.73024v-9.08l3.72585,6.34974m11.11789,10.99438L178.553,38.88119l-1.72846,1.25705-.17428-.25114,1.75932-1.27969v-9.15c.08508-3.76634-3.4514-2.83454-3.25789-6.82937.081-1.75589,1.78264-3.08636,2.641-3.52688a4.76573,4.76573,0,0,1,1.91232-.46384s-1.61248,1.00934-1.22,2.4592c.60314,2.2314,4.42232,2.43657,4.49574,5.40628V36.8824l2.81737,2.25816.74038-.58049V27.32279l-1.51779-1.50407L188.936,22.3536l3.57559,3.16733-1.36545,1.4773v9.95416l3.34916,2.76523.59765-.38288V27.35435l-1.52533-1.4231,3.92279-3.58863,3.66823,3.03215,1.46563-1.29547.19487.22781-3.29495,2.89629v9.77232l-8.43637,5.19768-4.316-3.415-4.28028,3.39444m29.56467-23.11749c0-1.65091-.67106-2.57174-1.758-2.60261-1.56788-.03088-1.94115,2.17307-1.94115,2.17307a4.13153,4.13153,0,0,1,1.14313-3.24829,4.58855,4.58855,0,0,1,4.633-1.5123,3.8991,3.8991,0,0,1,3.096,4.1108V40.7448s.91258.10842,1.53907.24771c.72733.14684,1.41349.34445,1.41349.34445V13.85685h.29986v3.70871l4.94791-3.98729,3.625,3.225,1.69-1.46565.1935.23193-1.76754,1.51984V38.28148c-.08715,1.38468-.31153,2.78857-1.61659,3.6003-2.91,1.72089-6.42316-.26692-9.55344-.7191-2.322-.34788-5.96688-.785-6.88151,1.34213a1.97437,1.97437,0,0,0,.77536,2.48665c2.11337,1.41556,11.52821-2.37069,14.75728-.87,2.94295,1.373,2.93129,3.54266,2.47842,5.02751-.76575,2.79955-4.294,3.29084-4.294,3.29084s1.725-1.00523,1.23372-2.66437c-.24908-.83918-.81789-1.07522-2.66849-.87006-4.03325.46042-8.85766,2.41323-12.0984,1.056a5.04725,5.04725,0,0,1-2.73778-4.834c.08508-2.95462,3.49187-4.11423,3.49187-4.11423V30.09145c-.09881-.433-1.9185-.32455-2.31441.47963-.60314,1.21382.752,1.76687.752,1.76687a2.42106,2.42106,0,0,1-2.06672-.9126,3.44459,3.44459,0,0,1-.17016-4.11491c1.02307-1.419,2.25061-1.66669,3.79927-1.83274V19.03532h-.00073Zm8.42469,22.38673a3.06368,3.06368,0,0,0,2.48254-.47963,2.84863,2.84863,0,0,0,1.03816-2.30482V30.14909a2.39978,2.39978,0,0,0-1.74421-.87006,2.49564,2.49564,0,0,0-1.77716.90094V41.42205h.00067Zm3.5207-22.28243-2.37411-2.08456-1.14657.90093v7.86547a2.49865,2.49865,0,0,0,1.77716.89339,2.40765,2.40765,0,0,0,1.74422-.85839V19.13962Zm0,7.18892a2.50819,2.50819,0,0,1-1.74765.7733,2.59214,2.59214,0,0,1-1.77305-.77742v3.34916a2.59718,2.59718,0,0,1,1.77305-.77331,2.55641,2.55641,0,0,1,1.74765.73488V26.32854"/></g><g class="cls-6"><path class="cls-5" d="M27.47933,58.33937s-2.51341,1.52328-4.20206,2.53263c-1.69,1.00179-3.95572,2.10789-3.95572,2.10789V73.54473l-1.5123,1.2145.199.23192,1.47319-1.18363,4.62336,4.17256L32.137,71.61867l-.1935-.23192-4.43535,3.48433-3.649-3.41434V70.18048l7.32821-5.38706-3.708-6.454Zm.10567,8.728-3.72586,2.73023v-9.08L27.585,67.06736M6.42856,81.95159a7.419,7.419,0,0,0,5.15651-.7191,7.1203,7.1203,0,0,0,3.71419-6.58578l.10636-3.82879v-8.376l1.58778-1.21451-.18527-.23192-1.56033,1.1754L11.64,58.161,7.01523,62.1366V48.64047l-5.77955,4.4628A1.50687,1.50687,0,0,1,2.3356,54.56891V73.47886L-.11194,75.2965l.16605.25113,1.18363-.88172,3.29289,3.063,5.17778-4.12589-.18732-.23193-1.21657.96269L7.01523,73.05412l.01372-10.534,1.50818-1.28381,2.25062,2.79611s-.00206,6.8177.00411,9.0841c-.01921,2.41323-.02539,5.42548-1.29547,6.876a4.9007,4.9007,0,0,1-3.06783,1.959m35.95627-.951C40.314,80.76041,39.446,79.50747,39.46932,78.518a2.26166,2.26166,0,0,1,1.84852-2.04546A4.0686,4.0686,0,0,1,44.947,78.16671L49.72882,72.884l-.2278-.20859-1.28587,1.43819a8.35862,8.35862,0,0,0-4.9987-2.69112V55.323L55.63393,77.94577s.12008.25868.63058.25868c.43709,0,.33073-.35543.33073-.35543l-.002-22.76206a5.67792,5.67792,0,0,0,3.30043-1.36889c2.392-2.45578,1.4135-5.13935,1.14864-5.39461a2.59472,2.59472,0,0,1-2.5484,2.359,4.41425,4.41425,0,0,1-3.17282-1.454l-4.7798,5.4447.2278.20859,1.371-1.56651a5.87887,5.87887,0,0,0,4.15334,1.771l-.00206,13.20244L47.07955,51.56009a4.75062,4.75062,0,0,0-4.09365-2.61427,4.322,4.322,0,0,0-4.12246,3.73958,5.20315,5.20315,0,0,0,.02539,2.41323s.33622-2.18131,1.688-2.16553c1.2145.01921,1.84852,1.137,2.33226,1.97615v4.84911c-1.2495.081-4.51082.22849-4.70981,3.6195a3.97188,3.97188,0,0,0,1.454,3.028,3.09618,3.09618,0,0,0,1.574.57226,1.48835,1.48835,0,0,1-.74242-1.67836c.282-.99424,2.3549-1.15618,2.42832-.739v6.841c-.99561-.01578-4.18833.09264-5.62652,2.827a4.60871,4.60871,0,0,0,.11047,4.80725,4.80746,4.80746,0,0,0,4.98771,1.96448M68.61132,58.33937S66.1,59.86265,64.41,60.872c-1.688,1.00179-3.95573,2.10789-3.95573,2.10789V73.54473L58.944,74.75923l.199.23192,1.47525-1.18363,4.6213,4.17256,8.03016-6.36141-.18938-.23192-4.43947,3.48433-3.64695-3.41434V70.18048L72.32,64.79342l-3.7087-6.454Zm.10841,8.728-3.72586,2.73023v-9.08l3.72586,6.34975M79.83761,78.06173l-3.93856-3.27162L74.1706,76.04716l-.17428-.25113,1.75932-1.27969V65.36568c.08509-3.76635-3.45139-2.83454-3.2579-6.82938.081-1.75589,1.78265-3.08636,2.641-3.52687a4.76574,4.76574,0,0,1,1.91234-.46385s-1.61248,1.00935-1.22,2.45921c.60314,2.2314,4.42232,2.43656,4.49574,5.40627V72.79063l2.81738,2.25816.74037-.58049V63.231L82.36681,61.727l3.91524-3.46512,3.57559,3.16732-1.36547,1.47731v9.95415l3.34916,2.76524L92.439,75.243V63.26259l-1.52535-1.4231,3.92279-3.58863L98.50464,61.283l1.46564-1.29548.19487.22781-3.295,2.89629V72.884l-8.43636,5.19768-4.316-3.415-4.28029,3.39513M214.70277,62.76306l.19625.22849,1.51231-1.30371,2.24375,2.545v8.72386l-1.091.99837,3.49805,3.95161,3.59412-3.53443-1.47732-1.52739V62.28343l.8927-.71155,2.47911,2.90041v8.70122l-.92838.92837,3.295,3.71214,3.52-3.531-1.29273-1.35723L231.10686,62.326l.95445-.77331,2.58751,2.85032V73.0651l-.85152.84329,3.63939,3.96739,4.88478-4.50534-.21-.22781-1.18226,1.102-1.82176-2.02624V62.33764l1.75453-1.3339-.17977-.24016-1.75658,1.33459-3.32651-3.72449L230.8516,62.129l-3.33473-3.62362-4.58564,3.59275-3.356-3.57354-4.87245,4.23843"/><path class="cls-5" d="M204.7596,62.49271l.19761.22781,1.27558-1.10952,2.00361,2.37v9.97749l-1.41555,1.23371.20174.22781,1.47732-1.26048,3.225,3.71626,4.65492-4.15334-.19213-.22781-1.37027,1.20284-1.93224-2.21973V62.72052l1.62346-1.40732-.19418-.22438-1.54181,1.32224-3.39169-3.94818-4.6213,4.02983"/><g class="cls-7"><path class="cls-5" d="M206.10175,54.22858l3.50628-3.214,2.85169,3.16321-3.5207,3.20232-2.83729-3.15154m-4.71806-7.06953a5.79,5.79,0,0,1,3.087,1.32635,3.9961,3.9961,0,0,1,.90505,3.9022,3.95514,3.95514,0,0,1-1.94252,2.72612,5.15557,5.15557,0,0,1-2.80366.78909v5.33285l2.59575,2.09966-2.59575,2.09622V72.698a11.74262,11.74262,0,0,0,4.21167-4.82989s.06931-.17772.21957-.52217a9.63519,9.63519,0,0,1-.94621,5.02339,9.39464,9.39464,0,0,1-3.89055,4.39692,10.49516,10.49516,0,0,1-7.87028,1.36135,11.17884,11.17884,0,0,1-7.33577-5.07348,12.1725,12.1725,0,0,1-1.77785-6.83349c.10087-4.9191,3.76223-9.16095,7.989-10.74255a4.19085,4.19085,0,0,1,1.44712-.38631c-.3369.2278-.72458.52559-1.20009.83917a8.83162,8.83162,0,0,0-3.02323,4.04492l8.1969-3.662V67.77959l-6.61118,3.31828A8.60772,8.60772,0,0,0,195.04216,73.94a7.83012,7.83012,0,0,0,5.28277-1.08277V65.43155l-2.58408-2.09623,2.58408-2.09211v-5.3404a35.59581,35.59581,0,0,1-4.11423-.88172c-1.46907-.35955-6.3813-1.74011-7.14775-1.85263a2.90209,2.90209,0,0,0-2.29657.433,2.30207,2.30207,0,0,0-.68686,2.25473,2.57785,2.57785,0,0,0,.70262,1.0018,2.09584,2.09584,0,0,1-.796-.33279,3.70372,3.70372,0,0,1-1.71678-2.97795,4.95285,4.95285,0,0,1,2.06328-4.40447,6.20419,6.20419,0,0,1,4.34-1.09031c2.41392.34445,5.66084,1.70511,8.5537,2.40157a3.603,3.603,0,0,0,2.77759-.09675,1.35969,1.35969,0,0,0,.47894-1.85263c-.61206-1.06767-1.79569-1.03611-2.792-1.22618A4.22113,4.22113,0,0,1,201.38367,47.15905ZM191.63811,69.9561V58.88075l-3.332,1.489a10.92613,10.92613,0,0,0-.7047,4.65629,11.53552,11.53552,0,0,0,2.2513,5.81248l1.78539-.8824"/></g><path class="cls-5" d="M143.23968,62.70543l1.41693-1.30714.201.22849-1.37643,1.27969V73.332s-2.62389,1.38811-4.4532,2.42078c-1.82725,1.02856-3.78007,2.2465-3.78007,2.2465l-4.81068-4.05248-1.27215,1.102-.20516-.22438,1.336-1.16373V62.44605h.01921s2.26571-1.02513,4.18216-2.10377q1.81622-1.03376,3.625-2.08044l5.11739,4.44358Zm-8.378,9.18428,4.06208,3.67783V64.31448l-4.06208-3.76292V71.88971m17.83678-10.2444,3.05342-3.12067a4.273,4.273,0,0,0,.81173.5606,2.1945,2.1945,0,0,0,1.99536.12008,3.57034,3.57034,0,0,0,1.02855-.79664,4.91943,4.91943,0,0,1-2.5141,4.84568c-.59558.28613-2.33157.83917-4.14922-1.373V73.1001l1.9336,1.70511,1.61249-1.3339.186.236-5.05427,4.2151-3.84389-3.496-1.386,1.303-.22643-.24359,2.10583-1.89861.01921-9.68312L146.654,61.762l-1.39016,1.22618-.199-.22438,4.89576-4.40105,2.73779,3.2826m12.87583,4.67208,5.64986-8.214a4.36,4.36,0,0,0,2.04544,1.22205c1.76344.46042,3.30318-1.24126,3.30318-1.24126-.29505,2.1964-1.408,4.69472-3.7094,5.07348a5.56108,5.56108,0,0,1-3.91318-1.23715l-.36779.56059,7.84352,11.84865,1.56993-1.37644.19966.22781-5.37881,4.70638-7.24244-11.57006"/><path class="cls-5" d="M160.91042,55.34633c0-1.771-.72733-2.862-1.67835-2.78444l6.16448-4.32763V72.72888l1.62413,1.71335,1.23373-1.06356.1935.22438-4.96506,4.3386L160.122,74.77844l-1.34556,1.18707-.21683-.23192,2.35148-2.042V55.34633m-51.50881-.40277c0-1.65091-.67107-2.57174-1.75795-2.60262-1.56788-.03087-1.94115,2.17308-1.94115,2.17308a4.13146,4.13146,0,0,1,1.14315-3.24829,4.58856,4.58856,0,0,1,4.633-1.51231,3.89911,3.89911,0,0,1,3.096,4.1108V76.653s.9126.10841,1.53906.2477c.72733.14684,1.4135.34445,1.4135.34445V49.76578h.29985v3.7087l4.94791-3.98728,3.625,3.225,1.69-1.46564.1935.23192-1.76756,1.51984V74.1904c-.08714,1.38468-.31151,2.78857-1.6166,3.6003-2.91,1.72089-6.42317-.26692-9.55343-.7191-2.322-.34789-5.96687-.785-6.88153,1.34213a1.9744,1.9744,0,0,0,.77537,2.48666c2.11338,1.41555,11.5282-2.37069,14.75729-.87006,2.943,1.373,2.93129,3.54266,2.47842,5.02752-.76576,2.79953-4.29469,3.29083-4.29469,3.29083s1.725-1.00523,1.23372-2.66437c-.24908-.83918-.81791-1.07522-2.66848-.87-4.03327.46041-8.85767,2.41323-12.09841,1.056a5.04723,5.04723,0,0,1-2.7378-4.834c.08508-2.95461,3.49189-4.11423,3.49189-4.11423V65.99969c-.09881-.433-1.91852-.32456-2.31443.47962-.60313,1.21382.752,1.76687.752,1.76687a2.42107,2.42107,0,0,1-2.06672-.9126,3.44464,3.44464,0,0,1-.17016-4.11491c1.02306-1.419,2.25061-1.66669,3.79928-1.83274V54.94356Zm8.4247,22.38672a3.06367,3.06367,0,0,0,2.48253-.47962,2.84867,2.84867,0,0,0,1.03816-2.30482V66.058a2.3998,2.3998,0,0,0-1.74423-.87,2.49564,2.49564,0,0,0-1.77715.90093v11.2414h.00069Zm3.52069-22.28174L118.97358,52.964l-1.14658.90093v7.86548a2.49862,2.49862,0,0,0,1.77715.89338,2.40765,2.40765,0,0,0,1.74423-.85839V55.04854h-.00068Zm0,7.18892a2.50816,2.50816,0,0,1-1.74765.7733,2.5921,2.5921,0,0,1-1.773-.77742v3.34915a2.59716,2.59716,0,0,1,1.773-.7733,2.55644,2.55644,0,0,1,1.74765.73488V62.23746"/></g><g class="cls-8"><path class="cls-5" d="M134.63384,94.85624s-2.51478,1.52328-4.20137,2.53262c-1.69276,1.0018-3.95984,2.10789-3.95984,2.10789v10.56484l-1.50681,1.21451.19967.23192,1.47113-1.18363,4.62337,4.17255,8.02878-6.36141-.19006-.23192-4.43535,3.48433-3.65107-3.41434v-1.27626l7.32615-5.38706-3.70459-6.454Zm.10705,8.728-3.72861,2.73024v-9.08l3.72861,6.34974M96.92924,99.28061l.19623.2278,1.5123-1.303,2.24306,2.54429v8.72454l-1.091.99768,3.49874,3.95229,3.59412-3.53442-1.47731-1.52809V98.801l.8927-.71156,2.47911,2.90042v8.70053l-.92838.92837,3.29426,3.71282,3.5207-3.531-1.29273-1.35722-.03774-10.59983.95446-.77331,2.58751,2.84963v8.6628l-.85152.84261,3.6394,3.96807L124.548,109.888l-.21-.22849-1.18227,1.102-1.82175-2.02624v-9.88l1.75452-1.33459-.18046-.23947-1.7559,1.3339-3.32652-3.7238-4.74756,3.75468L109.7433,95.023,105.15768,98.615l-3.356-3.57285-4.87244,4.23843"/><path class="cls-5" d="M86.98605,99.00958l.19761.22849,1.27489-1.11021,2.00429,2.37069V110.476l-1.41624,1.233.20242.22848,1.47661-1.26048,3.22565,3.71626L98.60621,110.24l-.19213-.22849-1.37026,1.20285-1.93223-2.21974V99.23808l1.62346-1.408-.19419-.22437-1.54249,1.32292-3.3917-3.94818-4.62061,4.02914"/><g class="cls-9"><path class="cls-5" d="M88.32819,90.74544l3.50629-3.2133,2.851,3.16321-3.52,3.20232-2.83728-3.15223M83.61013,83.6766a5.79,5.79,0,0,1,3.087,1.32635,3.99608,3.99608,0,0,1,.90505,3.9022,3.95512,3.95512,0,0,1-1.94252,2.72613,5.15553,5.15553,0,0,1-2.80366.78908v5.33285l2.59576,2.09966L82.856,101.94909v7.26645a11.74262,11.74262,0,0,0,4.21167-4.82989s.0693-.17772.21957-.52217a9.63529,9.63529,0,0,1-.94621,5.02339,9.39474,9.39474,0,0,1-3.89054,4.39693,10.49515,10.49515,0,0,1-7.87028,1.36134,11.17881,11.17881,0,0,1-7.33576-5.07348,12.17234,12.17234,0,0,1-1.77785-6.83349c.10087-4.9191,3.76223-9.16095,7.989-10.74256a4.20532,4.20532,0,0,1,1.44712-.387c-.3369.22781-.72459.5256-1.2001.83918a8.83159,8.83159,0,0,0-3.02323,4.04493l8.1969-3.662v11.46577l-6.61117,3.31828a8.60764,8.60764,0,0,0,5.00349,2.84208,7.82835,7.82835,0,0,0,5.28277-1.08276v-7.425l-2.58409-2.09622,2.58409-2.09211v-5.3404a35.59791,35.59791,0,0,1-4.11423-.88172c-1.46907-.35955-6.38131-1.74011-7.14775-1.85264a2.90214,2.90214,0,0,0-2.29659.433,2.30208,2.30208,0,0,0-.68685,2.25472,2.57779,2.57779,0,0,0,.70264,1.00181,2.09134,2.09134,0,0,1-.796-.33279,3.70374,3.70374,0,0,1-1.71677-2.97795,4.95287,4.95287,0,0,1,2.06329-4.40447,6.20416,6.20416,0,0,1,4.34-1.09031c2.41392.34445,5.66084,1.70511,8.5537,2.40157a3.60484,3.60484,0,0,0,2.77827-.09675,1.35971,1.35971,0,0,0,.47894-1.85264c-.612-1.06767-1.79569-1.03611-2.792-1.22617a4.21746,4.21746,0,0,1,1.69208-.1194ZM73.86457,106.473V95.39761l-3.332,1.489a10.926,10.926,0,0,0-.70469,4.65629,11.53547,11.53547,0,0,0,2.25129,5.81248l1.7854-.8824m69.70446,9.38944a3.46583,3.46583,0,0,1-3.39925-2.79954c-.54069-2.3357,1.07934-3.9173,3.52825-6.40807l-2.88875-2.641V98.967s2.1223-1.06767,3.78967-2.10377c1.66737-1.04776,3.36769-2.17308,3.36769-2.17308s1.24538,1.56994,2.65339,1.44232a1.95259,1.95259,0,0,0,2.02555-2.33158c.38013.66489,1.384,2.66025-2.48322,7.1155l3.14811,2.54086v6.55834a62.74758,62.74758,0,0,0-7.11208,4.42437s-1.9288-2.41323-3.60784-1.2646c-1.12805.77674-.60931,2.09966.97847,2.687Zm-2.71858-5.05427s1.65914-2.74534,4.51014-2.15386a5.46315,5.46315,0,0,1,3.68881,3.45688v-6.65509l-1.911-1.66326c-2.09622,2.1079-5.82209,5.15514-6.288,7.01532ZM145.082,96.90236V102.146l1.74834,1.51984s3.7938-3.03557,5.16954-5.84747c0,0-1.70442,2.31236-3.99552,1.60493a5.5248,5.5248,0,0,1-2.92236-2.52095"/></g><path class="cls-5" d="M25.46544,99.22229l1.41693-1.30714.201.22849L25.707,99.42334v10.42554s-2.62389,1.38811-4.45319,2.42078c-1.82725,1.02856-3.78007,2.2465-3.78007,2.2465L12.663,110.46368l-1.27215,1.102-.20516-.22437,1.336-1.16373V98.96293h.01921s2.26571-1.02513,4.18216-2.10377q1.8162-1.03376,3.625-2.08044l5.1174,4.44358Zm-8.378,9.18428,4.06208,3.67783V100.83134L17.0874,97.06843v11.33815M34.92488,98.16286l3.05341-3.12067a4.27338,4.27338,0,0,0,.81173.5606,2.19448,2.19448,0,0,0,1.99536.12008,3.57076,3.57076,0,0,0,1.02856-.79663,4.91941,4.91941,0,0,1-2.5141,4.84567c-.59559.28614-2.33158.83918-4.14922-1.373v11.21875l1.9336,1.70512,1.61248-1.3339.186.236L33.82839,114.44l-3.84389-3.496-1.386,1.303-.22644-.24359,2.10583-1.89861.01922-9.68312-1.6166-2.14219L27.4903,99.50569l-.199-.22437,4.89576-4.401,2.73779,3.28259M47.8,102.83426l5.64986-8.214a4.35985,4.35985,0,0,0,2.04545,1.22206c1.76343.46042,3.30318-1.24127,3.30318-1.24127-.29505,2.19641-1.408,4.69472-3.70939,5.07348a5.56111,5.56111,0,0,1-3.91318-1.23715l-.36779.5606,7.84352,11.84865,1.56994-1.37644.19968.22781-5.37883,4.70638L47.8,102.83427"/><path class="cls-5" d="M43.13686,91.8632c0-1.771-.72733-2.862-1.67835-2.78445L47.623,84.75113v24.49462l1.62414,1.71334,1.23372-1.06355.1935.22437-4.96507,4.3386-3.36083-3.16321-1.34556,1.18706-.21683-.23192,2.35148-2.042V91.8632m-51.50882-.40209c0-1.65091-.67107-2.57174-1.75795-2.60262-1.56788-.03087-1.94115,2.17309-1.94115,2.17309a4.13146,4.13146,0,0,1,1.14315-3.24829,4.58852,4.58852,0,0,1,4.633-1.5123,3.89911,3.89911,0,0,1,3.096,4.1108v22.78882s.91259.10841,1.53906.2477c.72733.14684,1.41349.34445,1.41349.34445V86.28265H.05411v3.70871L5.002,86.00407l3.625,3.225,1.69-1.46564.1935.23192L8.743,89.51516V110.708c-.08715,1.38468-.31152,2.78856-1.6166,3.60029-2.91,1.72089-6.42317-.26693-9.55344-.7191-2.322-.34789-5.96686-.785-6.88152,1.34212a1.9744,1.9744,0,0,0,.77536,2.48665c2.11338,1.41556,11.52822-2.37069,14.75729-.87006,2.943,1.373,2.93129,3.54265,2.47842,5.02751-.76575,2.79954-4.29469,3.29084-4.29469,3.29084s1.725-1.00523,1.23372-2.66437c-.24908-.83918-.8179-1.07521-2.66848-.87005-4.03326.46041-8.85767,2.41323-12.09841,1.056a5.04723,5.04723,0,0,1-2.73779-4.834c.08508-2.95461,3.49188-4.11423,3.49188-4.11423v-10.921c-.09881-.433-1.91851-.32456-2.31443.47963-.60313,1.21382.752,1.76687.752,1.76687a2.42106,2.42106,0,0,1-2.06672-.9126,3.44462,3.44462,0,0,1-.17017-4.11491c1.02307-1.419,2.25061-1.66669,3.79928-1.83274V91.46111Zm8.424,22.38673a3.06368,3.06368,0,0,0,2.48254-.47963,2.84867,2.84867,0,0,0,1.03816-2.30482v-8.48851a2.39981,2.39981,0,0,0-1.74422-.87006,2.49567,2.49567,0,0,0-1.77716.90094v11.24208ZM3.57412,91.56541,1.2,89.48085l-1.14658.90094v7.86547a2.49862,2.49862,0,0,0,1.77716.89339,2.40761,2.40761,0,0,0,1.74422-.8584V91.56541Zm0,7.18892a2.50818,2.50818,0,0,1-1.74766.77331,2.5921,2.5921,0,0,1-1.773-.77742v3.34915a2.59716,2.59716,0,0,1,1.773-.7733,2.55648,2.55648,0,0,1,1.74766.73488V98.75433"/></g></svg>