<?xml version="1.0" encoding="UTF-8" standalone="no" ?>
<!DOCTYPE svg PUBLIC "-//W3C//DTD SVG 1.1//EN" "http://www.w3.org/Graphics/SVG/1.1/DTD/svg11.dtd">
<svg xmlns="http://www.w3.org/2000/svg" xmlns:xlink="http://www.w3.org/1999/xlink" version="1.1" width="230" height="140" viewBox="0 0 230 140" xml:space="preserve">
<desc>Created with Fabric.js 5.2.4</desc>
<defs>
</defs>
<g transform="matrix(1 0 0 1 115 70)" id="75aa51dc-6de9-4b2b-a39e-a1714f6f4444"  >
<rect style="stroke: none; stroke-width: 1; stroke-dasharray: none; stroke-linecap: butt; stroke-dashoffset: 0; stroke-linejoin: miter; stroke-miterlimit: 4; fill: rgb(255,255,255); fill-rule: nonzero; opacity: 1;" vector-effect="non-scaling-stroke"  x="-115" y="-70" rx="0" ry="0" width="230" height="140" />
</g>
<g transform="matrix(Infinity NaN NaN Infinity 0 0)" id="6287a25f-370d-418c-b289-2d76a567edab"  >
</g>
<g transform="matrix(0.41 0 0 0.41 115 70)" id="63760e7b-6e08-4773-b521-227510fd1fef"  >
<path style="stroke: rgb(0,0,0); stroke-width: 0; stroke-dasharray: none; stroke-linecap: butt; stroke-dashoffset: 0; stroke-linejoin: miter; stroke-miterlimit: 4; fill: rgb(0,0,0); fill-rule: nonzero; opacity: 1;" vector-effect="non-scaling-stroke"  transform=" translate(-226.4, -29.75)" d="M 33.9 6.1 C 33.9 1.1999999999999993 29.2 0 25.5 0 L 25.5 0.7 C 27.7 0.7 29.4 1.4 29.4 3.2 C 29.4 4.2 28.7 5.7 26.4 5.7 C 24.7 5.7 21 4.7 18.299999999999997 3.7 C 15.099999999999998 2.5 12.199999999999998 1.5 9.699999999999998 1.5 C 4.799999999999997 1.5 1.2999999999999972 5.2 1.2999999999999972 9.4 C 1.2999999999999972 13.100000000000001 3.9999999999999973 14.3 4.999999999999997 14.8 L 5.1999999999999975 14.3 C 4.6999999999999975 13.8 3.9999999999999973 13.3 3.9999999999999973 11.8 C 3.9999999999999973 10.8 4.999999999999997 9.100000000000001 7.399999999999997 9.100000000000001 C 9.599999999999998 9.100000000000001 12.599999999999998 10.100000000000001 16.499999999999996 11.3 C 19.899999999999995 12.3 23.599999999999994 13 25.599999999999994 13.3 L 25.599999999999994 20.9 L 21.899999999999995 24.099999999999998 L 21.899999999999995 24.299999999999997 L 25.599999999999994 27.499999999999996 L 25.599999999999994 38.099999999999994 C 23.599999999999994 39.3 21.399999999999995 39.599999999999994 19.499999999999993 39.599999999999994 C 15.799999999999994 39.599999999999994 12.599999999999993 38.599999999999994 9.899999999999993 35.699999999999996 L 19.999999999999993 30.799999999999997 L 19.999999999999993 13.799999999999997 L 7.9 19.2 C 8.9 16 11.600000000000001 13.799999999999999 14.3 12.299999999999999 L 14 11.6 C 6.6 13.6 0 20.5 0 28.799999999999997 C 0 38.6 8.1 46 17.2 46 C 27 46 33.4 38.1 33.4 30 L 33 30 C 31.5 33.2 29.3 36.1 26.6 37.6 L 26.6 27.5 L 30.5 24.3 L 30.5 24.1 L 26.6 20.900000000000002 L 26.6 13.300000000000002 C 30.3 13.3 33.9 10.8 33.9 6.1 z M 12.5 33.2 L 9.5 34.7 C 7.8 32.5 6.8 29.500000000000004 6.8 25.400000000000002 C 6.8 23.700000000000003 6.8 21.700000000000003 7.3 20.200000000000003 L 12.5 18.000000000000004 L 12.5 33.2 z M 38.6 38.9 L 35.4 41.4 L 35.9 41.9 L 37.4 40.699999999999996 L 42.8 45.599999999999994 L 50.199999999999996 40.699999999999996 L 49.99999999999999 40.199999999999996 L 47.99999999999999 41.4 L 45.49999999999999 38.9 L 45.49999999999999 22.1 L 47.49999999999999 20.6 L 51.699999999999996 24 L 51.699999999999996 39 C 51.699999999999996 48.3 49.699999999999996 49.8 45.599999999999994 51.3 L 45.599999999999994 52 C 52.49999999999999 52.2 58.89999999999999 50 58.89999999999999 38 L 58.89999999999999 21.9 L 61.099999999999994 20.2 L 60.599999999999994 19.7 L 58.599999999999994 21.2 L 52.4 16 L 45.5 21.2 L 45.5 1 L 45 1 L 36.4 6.9 L 36.4 7.4 C 37.4 7.9 38.9 8.4 38.9 11.100000000000001 C 38.9 11.1 38.6 38.9 38.6 38.9 z M 83.6 36.2 L 77.5 40.900000000000006 L 71.4 36.00000000000001 L 71.4 33.00000000000001 L 83 25.10000000000001 L 83 24.90000000000001 L 77 16 L 64.2 22.9 L 64.2 39.099999999999994 L 61.7 41.099999999999994 L 62.2 41.599999999999994 L 64.4 39.89999999999999 L 72.80000000000001 45.99999999999999 L 83.9 37.099999999999994 C 83.9 37.1 83.6 36.2 83.6 36.2 z M 71.3 32 L 71.3 19.9 L 71.8 19.7 L 77.2 28.299999999999997 C 77.2 28.3 71.3 32 71.3 32 z M 130.6 3.9 C 130.6 3.2 130.4 2.4 130.1 1.6999999999999997 L 129.6 1.6999999999999997 C 128.9 3.6999999999999997 127.89999999999999 4.699999999999999 125.39999999999999 4.699999999999999 C 123.19999999999999 4.699999999999999 121.69999999999999 3.499999999999999 120.69999999999999 2.499999999999999 L 113.6 10.599999999999998 L 114.1 11.099999999999998 L 116.6 8.899999999999999 C 118.1 10.099999999999998 119.3 11.099999999999998 122.69999999999999 11.399999999999999 L 122.69999999999999 31.799999999999997 L 108.2 6.9 C 107 4.9 105.2 2.2 101.8 2.2 C 97.89999999999999 2.2 94.39999999999999 5.6 94.89999999999999 11.100000000000001 L 95.6 11.100000000000001 C 95.8 9.600000000000001 96.6 7.900000000000001 98.3 7.900000000000001 C 99.5 7.900000000000001 100.8 9.100000000000001 101.5 10.400000000000002 L 101.5 18.5 C 97.1 18.5 94.1 20.5 94.1 24.2 C 94.1 26.2 95.1 29.1 98 29.9 L 98 29.4 C 97.5 28.9 97.3 28.4 97.3 27.7 C 97.3 26.5 98.3 25.5 100 25.5 L 101.2 25.5 L 101.2 35.8 C 96 35.8 91.9 38.8 91.9 43.699999999999996 C 91.9 48.4 95.80000000000001 50.599999999999994 100.30000000000001 50.3 L 100.30000000000001 49.8 C 97.60000000000001 49.599999999999994 96.4 48.3 96.4 46.599999999999994 C 96.4 44.39999999999999 97.9 43.39999999999999 99.80000000000001 43.39999999999999 C 101.80000000000001 43.39999999999999 103.50000000000001 44.599999999999994 104.70000000000002 46.099999999999994 L 111.80000000000001 38.199999999999996 L 111.30000000000001 37.699999999999996 L 109.60000000000001 39.699999999999996 C 106.9 37.199999999999996 105.4 36.49999999999999 102.2 35.99999999999999 L 102.2 11.3 L 122 45.7 L 123.5 45.7 L 123.5 11.3 C 127.1 11.1 130.6 8.1 130.6 3.9 z M 148.5 36.2 L 142.4 40.900000000000006 L 136.3 36.00000000000001 L 136.3 33.00000000000001 L 147.9 25.10000000000001 L 147.9 24.90000000000001 L 142 16.000000000000007 L 129.2 22.900000000000006 L 129.2 39.10000000000001 L 126.69999999999999 41.10000000000001 L 127.19999999999999 41.60000000000001 L 129.39999999999998 39.900000000000006 L 137.79999999999998 46.00000000000001 L 148.89999999999998 37.10000000000001 C 148.8 37.1 148.5 36.2 148.5 36.2 z M 136.2 32 L 136.2 19.9 L 136.7 19.7 L 142.1 28.299999999999997 C 142.2 28.3 136.2 32 136.2 32 z M 188.6 18.7 L 186.9 19.9 L 182.20000000000002 15.999999999999998 L 176.8 20.9 L 179 23.099999999999998 L 179 41.5 L 173.1 37.8 L 173.1 22.6 L 175.1 21.400000000000002 L 169.4 16 L 164 20.9 L 166.2 23.099999999999998 L 166.2 40.8 L 165.5 41.3 L 160.3 37.599999999999994 L 160.3 22.9 C 160.3 19.5 158.60000000000002 18.5 156.60000000000002 17.2 C 154.90000000000003 16 153.90000000000003 15.2 153.90000000000003 13.5 C 153.90000000000003 12 155.40000000000003 11.3 156.10000000000002 10.8 L 156.10000000000002 10.3 C 154.10000000000002 10.3 149.00000000000003 12.3 149.00000000000003 16.9 C 149.00000000000003 19.4 150.20000000000002 20.299999999999997 151.50000000000003 21.599999999999998 C 152.70000000000002 22.799999999999997 154.00000000000003 23.799999999999997 154.00000000000003 26 L 154.00000000000003 40.3 L 151.30000000000004 42.3 L 151.80000000000004 42.8 L 154.30000000000004 40.8 L 160.00000000000003 45.699999999999996 L 166.10000000000002 41.49999999999999 L 173.00000000000003 45.699999999999996 L 186.00000000000003 38.099999999999994 L 186.00000000000003 21.6 L 189.20000000000002 19.1 L 188.6 18.7 L 188.6 18.7 z M 234.4 5.2 L 231.9 7.4 L 226.5 2.5 L 218.4 8.4 L 218.4 3 L 217.70000000000002 3 L 217.9 42.8 C 217.20000000000002 42.8 214.9 42.3 213.20000000000002 41.8 L 212.70000000000002 8.599999999999994 C 212.70000000000002 6.099999999999994 211.00000000000003 2.699999999999994 206.60000000000002 2.699999999999994 C 202.20000000000002 2.699999999999994 199.20000000000002 6.099999999999994 199.20000000000002 9.599999999999994 L 199.9 9.599999999999994 C 200.1 8.099999999999994 200.9 6.899999999999994 202.4 6.899999999999994 C 203.9 6.899999999999994 205.1 7.899999999999994 205.1 11.099999999999994 L 205.1 20.699999999999996 C 200.7 20.899999999999995 198 23.399999999999995 198 26.599999999999994 C 198 28.599999999999994 199 31.499999999999993 201.9 31.499999999999993 L 201.9 31 C 200.9 30.5 200.70000000000002 29.8 200.70000000000002 29.3 C 200.70000000000002 27.8 201.9 27.3 203.9 27.3 L 204.9 27.3 L 204.9 42.5 C 201.20000000000002 43.7 199.70000000000002 46.4 199.70000000000002 49.4 C 199.70000000000002 53.6 202.9 56.5 207.8 56.5 C 211.20000000000002 56.5 214.20000000000002 56 217.10000000000002 55.3 C 219.60000000000002 54.8 222.8 54.099999999999994 224.20000000000002 54.099999999999994 C 226.20000000000002 54.099999999999994 226.9 55.099999999999994 226.9 56.3 C 226.9 58 226.20000000000002 58.8 225.20000000000002 59 L 225.20000000000002 59.5 C 229.10000000000002 58.8 231.60000000000002 56.3 231.60000000000002 52.6 C 231.60000000000002 48.900000000000006 227.90000000000003 46.7 224.00000000000003 46.7 C 222.00000000000003 46.7 217.90000000000003 47.400000000000006 214.90000000000003 47.900000000000006 C 211.50000000000003 48.60000000000001 208.00000000000003 49.10000000000001 207.00000000000003 49.10000000000001 C 205.30000000000004 49.10000000000001 203.30000000000004 48.400000000000006 203.30000000000004 45.900000000000006 C 203.30000000000004 43.900000000000006 205.00000000000003 42.2 209.20000000000005 42.2 C 211.40000000000003 42.2 214.10000000000005 42.400000000000006 216.80000000000004 43.2 C 219.80000000000004 43.900000000000006 222.50000000000003 44.7 224.90000000000003 44.7 C 228.60000000000002 44.7 231.80000000000004 43.5 231.80000000000004 38.300000000000004 L 231.80000000000004 8.1 L 234.80000000000004 5.6 L 234.4 5.2 L 234.4 5.2 z M 224.3 20.2 C 223.60000000000002 20.9 222.60000000000002 21.7 221.3 21.7 C 220 21.7 218.8 21 218.3 20.2 L 218.3 9.3 L 220.8 7.6000000000000005 L 224.20000000000002 10.8 C 224.3 10.8 224.3 20.2 224.3 20.2 z M 224.3 27.5 C 223.8 27 222.60000000000002 26.3 221.3 26.3 C 220 26.3 218.8 27 218.3 27.5 L 218.3 21.1 C 218.8 21.6 220 22.3 221.3 22.3 C 222.60000000000002 22.3 223.8 21.6 224.3 21.1 L 224.3 27.5 z M 224.3 39.1 C 224.3 41.1 223.10000000000002 43 220.4 43 L 218.4 43 L 218.4 28.5 C 218.9 28 220.1 27.3 221.4 27.3 C 222.70000000000002 27.3 223.6 28 224.4 28.5 C 224.3 28.5 224.3 39.1 224.3 39.1 z M 258 21.6 L 250.1 15.900000000000002 L 238 22.800000000000004 L 238 38.800000000000004 L 235.5 40.800000000000004 L 235.7 41.300000000000004 L 237.7 39.800000000000004 L 245.6 45.7 L 257.9 38.300000000000004 C 258 38.4 258 21.6 258 21.6 z M 244.7 37.1 L 244.7 19.4 L 250.79999999999998 23.799999999999997 L 250.79999999999998 41.3 C 250.9 41.3 244.7 37.1 244.7 37.1 z M 281.4 16.5 L 280.9 16.5 C 280.2 17 279.4 17.5 278.7 17.5 C 277.7 17.5 276.5 17 276 16.3 L 275.5 16.3 L 271.3 21 L 267.1 16.3 L 259.70000000000005 21.200000000000003 L 259.90000000000003 21.700000000000003 L 261.90000000000003 20.500000000000004 L 264.40000000000003 23.200000000000003 L 264.40000000000003 38.7 L 261.20000000000005 41.2 L 261.70000000000005 41.7 L 263.20000000000005 40.5 L 269.1 45.4 L 276.70000000000005 40.199999999999996 L 276.50000000000006 39.699999999999996 L 274.30000000000007 40.9 L 271.30000000000007 38.4 L 271.30000000000007 21.2 C 272.50000000000006 22.4 274.00000000000006 23.7 275.70000000000005 23.7 C 279.1 23.9 281.1 20.4 281.4 16.5 L 281.4 16.5 z M 310.9 40.1 L 302.5 45.800000000000004 L 291.2 28.600000000000005 L 299.3 16.100000000000005 L 299.8 16.100000000000005 C 300.8 17.100000000000005 302.3 18.100000000000005 304 18.100000000000005 C 305.7 18.100000000000005 307 17.100000000000005 307.7 16.100000000000005 L 308.2 16.100000000000005 C 308 21.000000000000007 304.5 24.000000000000007 302.09999999999997 24.000000000000007 C 299.59999999999997 24.000000000000007 298.4 22.800000000000008 296.9 22.000000000000007 L 296.2 23.200000000000006 L 308.5 41.400000000000006 L 311 39.900000000000006 L 311 40.1 z M 283.8 38.9 L 280.6 41.4 L 281.1 41.9 L 282.6 40.699999999999996 L 288 45.599999999999994 L 295.4 40.699999999999996 L 294.9 40.199999999999996 L 292.9 41.4 L 290.4 38.9 L 290.4 1 L 290.2 1 L 281.3 6.9 L 281.3 7.4 C 282.3 7.9 283.8 8.1 283.8 11.100000000000001 C 283.8 11.1 283.8 38.9 283.8 38.9 z M 351.7 6.1 C 351.7 1.1999999999999993 347 0 343.3 0 L 343.3 0.7 C 345.5 0.7 347.2 1.4 347.2 3.2 C 347.2 4.2 346.5 5.7 344.2 5.7 C 342.5 5.7 338.8 4.7 336.09999999999997 3.7 C 332.9 2.7 329.99999999999994 1.7000000000000002 327.49999999999994 1.7000000000000002 C 322.59999999999997 1.7000000000000002 319.09999999999997 5.4 319.09999999999997 9.600000000000001 C 319.09999999999997 13.3 321.79999999999995 14.500000000000002 322.79999999999995 15.000000000000002 L 322.99999999999994 14.500000000000002 C 322.29999999999995 14.000000000000002 321.49999999999994 13.500000000000002 321.49999999999994 12.000000000000002 C 321.49999999999994 11.000000000000002 322.49999999999994 9.3 324.8999999999999 9.3 C 327.0999999999999 9.3 330.0999999999999 10.3 333.99999999999994 11.5 C 337.3999999999999 12.5 341.09999999999997 13.2 343.09999999999997 13.5 L 343.09999999999997 21.1 L 339.4 24.3 L 339.4 24.5 L 343.09999999999997 27.7 L 343.09999999999997 38.3 C 341.09999999999997 39.5 338.9 39.8 336.99999999999994 39.8 C 333.29999999999995 39.8 330.09999999999997 38.8 327.3999999999999 35.9 L 337.49999999999994 31 L 337.49999999999994 13.8 L 325.19999999999993 19.200000000000003 C 326.3999999999999 16.000000000000004 329.0999999999999 13.800000000000002 331.5999999999999 12.100000000000003 L 331.3999999999999 11.600000000000003 C 323.99999999999994 13.600000000000003 317.3999999999999 20.200000000000003 317.3999999999999 28.6 C 317.3999999999999 38.400000000000006 325.49999999999994 45.8 334.5999999999999 45.8 C 344.3999999999999 45.8 350.7999999999999 37.9 350.7999999999999 29.799999999999997 L 350.2999999999999 29.799999999999997 C 348.7999999999999 33 346.5999999999999 35.9 343.8999999999999 37.4 L 343.8999999999999 27.3 L 347.7999999999999 24.1 L 347.7999999999999 23.900000000000002 L 344.0999999999999 20.700000000000003 L 344.0999999999999 13.300000000000002 C 348 13.3 351.7 10.8 351.7 6.1 z M 330.3 33.2 L 327.3 34.7 C 325.6 32.5 324.6 29.500000000000004 324.6 25.400000000000002 C 324.6 23.700000000000003 324.8 21.700000000000003 325.3 20.200000000000003 L 330.5 18.000000000000004 L 330.3 33.2 z M 360.3 3.7 L 360 3.7 L 355.1 7.9 L 355.1 8.1 L 359.3 12.8 L 359.8 12.8 L 364.7 8.600000000000001 L 364.7 8.4 L 360.3 3.7 L 360.3 3.7 z M 367.7 40.1 L 365.7 41.300000000000004 L 363.2 38.800000000000004 L 363.2 21.800000000000004 L 365.7 20.100000000000005 L 365.2 19.600000000000005 L 363.5 21.100000000000005 L 359.1 15.900000000000006 L 352 20.800000000000004 L 352.5 21.500000000000004 L 354.2 20.300000000000004 L 356.4 23.000000000000004 L 356.4 39 L 353.2 41.5 L 353.4 42 L 355.09999999999997 40.8 L 360.49999999999994 45.699999999999996 L 367.8999999999999 40.8 L 367.7 40.1 L 367.7 40.1 z M 408.7 39.8 L 407 41 L 404.3 38.5 L 404.3 21.9 L 406.8 19.9 L 406.3 19.4 L 404.3 21.099999999999998 L 398.6 15.899999999999999 L 391.20000000000005 21.099999999999998 L 385.50000000000006 15.899999999999999 L 378.6000000000001 21.099999999999998 L 374.2000000000001 15.899999999999999 L 367.1000000000001 20.799999999999997 L 367.30000000000007 21.499999999999996 L 369.00000000000006 20.299999999999997 L 371.50000000000006 22.999999999999996 L 371.50000000000006 39 L 369.50000000000006 41 L 375.20000000000005 45.7 L 380.6 40.800000000000004 L 378.40000000000003 38.6 L 378.40000000000003 21.9 L 380.6 20.4 L 384.3 23.799999999999997 L 384.3 38.599999999999994 L 382.3 40.599999999999994 L 388 45.3 L 393.4 40.4 L 391.2 38.199999999999996 L 391.2 21.9 L 393.2 20.7 L 397.09999999999997 24.099999999999998 L 397.09999999999997 38.9 L 395.4 40.6 L 401.09999999999997 45.800000000000004 L 408.7 40.6 L 408.7 39.8 L 408.7 39.8 z M 430.1 36.2 L 424 40.900000000000006 L 417.9 36.00000000000001 L 417.9 33.00000000000001 L 429.5 25.10000000000001 L 429.5 24.90000000000001 L 423.6 16.000000000000007 L 410.8 22.900000000000006 L 410.8 39.60000000000001 L 419.40000000000003 45.70000000000001 L 430.50000000000006 36.80000000000001 C 430.4 36.9 430.1 36.2 430.1 36.2 z M 417.8 32 L 417.8 19.9 L 418.3 19.7 L 423.7 28.299999999999997 C 423.7 28.3 417.8 32 417.8 32 z M 452.5 29.8 L 447.8 26.1 C 451 23.400000000000002 452.2 19.700000000000003 452.2 17.200000000000003 L 452.2 15.700000000000003 L 451.7 15.700000000000003 C 451.2 16.900000000000002 450.2 18.200000000000003 448.3 18.200000000000003 C 446.3 18.200000000000003 445.1 17.200000000000003 443.90000000000003 15.700000000000003 L 432.8 21.800000000000004 L 432.8 30.700000000000003 L 437 33.900000000000006 C 432.8 37.60000000000001 432.1 40.00000000000001 432.1 42.00000000000001 C 432.1 44.50000000000001 433.3 46.20000000000001 435.3 46.900000000000006 L 435.5 46.400000000000006 C 435 45.900000000000006 434.5 45.7 434.5 44.400000000000006 C 434.5 43.7 435.5 42.400000000000006 437.5 42.400000000000006 C 440 42.400000000000006 441.4 44.10000000000001 442.2 44.900000000000006 L 452.8 38.50000000000001 L 452.8 29.60000000000001 C 452.8 29.8 452.5 29.8 452.5 29.8 z M 449.8 22.4 C 448.1 25.4 444.40000000000003 28.299999999999997 442.2 29.799999999999997 L 439.5 27.599999999999998 L 439.5 19 C 440.5 21.5 443.2 23.4 445.9 23.4 C 447.6 23.4 448.6 23.1 449.8 22.4 z M 445.6 42.1 C 444.40000000000003 39.4 441.40000000000003 37.4 438.5 37.4 C 437.8 37.4 435.8 37.4 433.8 38.6 C 435 36.6 438.2 33.2 442.40000000000003 30.700000000000003 L 445.40000000000003 33.2 L 445.6 42.1 L 445.6 42.1 z" stroke-linecap="round" />
</g>
</svg>
