<svg width="1702" height="815" viewBox="0 0 1702 815" fill="none" xmlns="http://www.w3.org/2000/svg">
<rect width="1702" height="815" fill="white"/>
<rect x="51" y="270" width="358" height="218" rx="9" fill="white" stroke="url(#paint0_linear_466_159)" stroke-width="2"/>
<rect x="612" y="183" width="358" height="108" rx="9" fill="white" stroke="url(#paint1_linear_466_159)" stroke-width="2"/>
<path d="M667.872 246V226.26H670.476V235.192H670.532L679.884 226.26H683.16L672.296 236.508L672.324 235.192L683.72 246H680.416L670.532 236.732H670.476V246H667.872ZM689.622 246.252C688.689 246.252 687.84 246.065 687.074 245.692C686.328 245.319 685.74 244.815 685.31 244.18C684.9 243.545 684.694 242.836 684.694 242.052C684.694 241.044 684.946 240.251 685.45 239.672C685.954 239.093 686.804 238.683 687.998 238.44C689.193 238.179 690.798 238.048 692.814 238.048H694.13V239.672H692.87C691.788 239.672 690.882 239.709 690.154 239.784C689.426 239.859 688.848 239.98 688.418 240.148C687.989 240.316 687.681 240.549 687.494 240.848C687.308 241.128 687.214 241.483 687.214 241.912C687.214 242.64 687.466 243.237 687.97 243.704C688.493 244.171 689.202 244.404 690.098 244.404C690.808 244.404 691.433 244.236 691.974 243.9C692.516 243.545 692.945 243.079 693.262 242.5C693.58 241.903 693.738 241.221 693.738 240.456V237.236C693.738 236.135 693.514 235.341 693.066 234.856C692.618 234.352 691.862 234.1 690.798 234.1C690.014 234.1 689.23 234.221 688.446 234.464C687.681 234.707 686.888 235.08 686.066 235.584L685.254 233.764C685.74 233.428 686.29 233.139 686.906 232.896C687.541 232.635 688.194 232.439 688.866 232.308C689.557 232.177 690.22 232.112 690.854 232.112C692.068 232.112 693.066 232.308 693.85 232.7C694.634 233.073 695.222 233.661 695.614 234.464C696.006 235.248 696.202 236.256 696.202 237.488V246H693.794V242.892H694.046C693.897 243.583 693.617 244.18 693.206 244.684C692.796 245.188 692.282 245.58 691.666 245.86C691.069 246.121 690.388 246.252 689.622 246.252ZM700.268 246V232.364H702.76V235.332H702.452C702.695 234.641 703.031 234.063 703.46 233.596C703.889 233.111 704.403 232.747 705 232.504C705.616 232.243 706.288 232.112 707.016 232.112C708.173 232.112 709.107 232.392 709.816 232.952C710.525 233.493 711.001 234.324 711.244 235.444H710.852C711.188 234.417 711.785 233.605 712.644 233.008C713.521 232.411 714.539 232.112 715.696 232.112C716.723 232.112 717.563 232.317 718.216 232.728C718.888 233.12 719.392 233.717 719.728 234.52C720.064 235.304 720.232 236.312 720.232 237.544V246H717.684V237.656C717.684 236.461 717.479 235.584 717.068 235.024C716.657 234.464 715.967 234.184 714.996 234.184C714.287 234.184 713.671 234.352 713.148 234.688C712.625 235.024 712.224 235.5 711.944 236.116C711.664 236.732 711.524 237.469 711.524 238.328V246H708.976V237.656C708.976 236.461 708.771 235.584 708.36 235.024C707.949 234.464 707.259 234.184 706.288 234.184C705.579 234.184 704.963 234.352 704.44 234.688C703.917 235.024 703.516 235.5 703.236 236.116C702.956 236.732 702.816 237.469 702.816 238.328V246H700.268ZM728.669 246.252C727.736 246.252 726.886 246.065 726.121 245.692C725.374 245.319 724.786 244.815 724.357 244.18C723.946 243.545 723.741 242.836 723.741 242.052C723.741 241.044 723.993 240.251 724.497 239.672C725.001 239.093 725.85 238.683 727.045 238.44C728.24 238.179 729.845 238.048 731.861 238.048H733.177V239.672H731.917C730.834 239.672 729.929 239.709 729.201 239.784C728.473 239.859 727.894 239.98 727.465 240.148C727.036 240.316 726.728 240.549 726.541 240.848C726.354 241.128 726.261 241.483 726.261 241.912C726.261 242.64 726.513 243.237 727.017 243.704C727.54 244.171 728.249 244.404 729.145 244.404C729.854 244.404 730.48 244.236 731.021 243.9C731.562 243.545 731.992 243.079 732.309 242.5C732.626 241.903 732.785 241.221 732.785 240.456V237.236C732.785 236.135 732.561 235.341 732.113 234.856C731.665 234.352 730.909 234.1 729.845 234.1C729.061 234.1 728.277 234.221 727.493 234.464C726.728 234.707 725.934 235.08 725.113 235.584L724.301 233.764C724.786 233.428 725.337 233.139 725.953 232.896C726.588 232.635 727.241 232.439 727.913 232.308C728.604 232.177 729.266 232.112 729.901 232.112C731.114 232.112 732.113 232.308 732.897 232.7C733.681 233.073 734.269 233.661 734.661 234.464C735.053 235.248 735.249 236.256 735.249 237.488V246H732.841V242.892H733.093C732.944 243.583 732.664 244.18 732.253 244.684C731.842 245.188 731.329 245.58 730.713 245.86C730.116 246.121 729.434 246.252 728.669 246.252ZM739.119 229.088V226.344H742.143V229.088H739.119ZM735.843 251.404L735.647 249.472L736.879 249.36C737.7 249.267 738.316 248.977 738.727 248.492C739.156 248.007 739.371 247.297 739.371 246.364V232.364H741.919V246.084C741.919 246.924 741.816 247.652 741.611 248.268C741.424 248.903 741.135 249.435 740.743 249.864C740.351 250.293 739.847 250.629 739.231 250.872C738.615 251.115 737.887 251.264 737.047 251.32L735.843 251.404ZM745.761 229.088V226.344H748.813V229.088H745.761ZM746.013 246V232.364H748.561V246H746.013ZM761.673 246.252C759.713 246.252 758.033 245.841 756.633 245.02C755.233 244.199 754.151 243.032 753.385 241.52C752.639 239.989 752.265 238.188 752.265 236.116C752.265 234.044 752.639 232.252 753.385 230.74C754.151 229.228 755.233 228.061 756.633 227.24C758.033 226.419 759.713 226.008 761.673 226.008C763.017 226.008 764.268 226.223 765.425 226.652C766.601 227.063 767.581 227.679 768.365 228.5L767.413 230.572C766.555 229.807 765.668 229.247 764.753 228.892C763.839 228.537 762.831 228.36 761.729 228.36C759.564 228.36 757.903 229.032 756.745 230.376C755.607 231.72 755.037 233.633 755.037 236.116C755.037 238.599 755.607 240.521 756.745 241.884C757.903 243.228 759.564 243.9 761.729 243.9C762.831 243.9 763.839 243.723 764.753 243.368C765.668 243.013 766.555 242.453 767.413 241.688L768.365 243.76C767.581 244.563 766.601 245.179 765.425 245.608C764.268 246.037 763.017 246.252 761.673 246.252ZM776.336 246.252C774.992 246.252 773.825 245.963 772.836 245.384C771.847 244.805 771.081 243.984 770.54 242.92C769.999 241.856 769.728 240.605 769.728 239.168C769.728 237.731 769.999 236.489 770.54 235.444C771.081 234.38 771.847 233.559 772.836 232.98C773.825 232.401 774.992 232.112 776.336 232.112C777.68 232.112 778.847 232.401 779.836 232.98C780.825 233.559 781.591 234.38 782.132 235.444C782.673 236.489 782.944 237.731 782.944 239.168C782.944 240.605 782.673 241.856 782.132 242.92C781.591 243.984 780.825 244.805 779.836 245.384C778.847 245.963 777.68 246.252 776.336 246.252ZM776.336 244.236C777.568 244.236 778.548 243.807 779.276 242.948C780.004 242.071 780.368 240.811 780.368 239.168C780.368 237.525 780.004 236.275 779.276 235.416C778.548 234.557 777.568 234.128 776.336 234.128C775.123 234.128 774.143 234.557 773.396 235.416C772.668 236.275 772.304 237.525 772.304 239.168C772.304 240.811 772.668 242.071 773.396 242.948C774.143 243.807 775.123 244.236 776.336 244.236ZM786.208 246V232.364H788.7V235.332H788.392C788.784 234.268 789.419 233.465 790.296 232.924C791.192 232.383 792.209 232.112 793.348 232.112C794.449 232.112 795.355 232.308 796.064 232.7C796.773 233.092 797.305 233.699 797.66 234.52C798.015 235.323 798.192 236.331 798.192 237.544V246H795.644V237.684C795.644 236.881 795.541 236.219 795.336 235.696C795.131 235.173 794.804 234.791 794.356 234.548C793.927 234.305 793.376 234.184 792.704 234.184C791.92 234.184 791.229 234.352 790.632 234.688C790.035 235.024 789.568 235.5 789.232 236.116C788.915 236.732 788.756 237.451 788.756 238.272V246H786.208ZM807.888 246.252C806.226 246.252 804.985 245.823 804.164 244.964C803.342 244.087 802.932 242.836 802.932 241.212V234.324H800.272V232.364H802.932V228.22H805.48V232.364H809.764V234.324H805.48V240.988C805.48 242.015 805.694 242.789 806.124 243.312C806.553 243.835 807.262 244.096 808.252 244.096C808.55 244.096 808.84 244.068 809.12 244.012C809.418 243.937 809.698 243.863 809.96 243.788L810.38 245.692C810.118 245.86 809.745 245.991 809.26 246.084C808.793 246.196 808.336 246.252 807.888 246.252ZM812.267 246V232.364H814.759V235.612H814.479C814.777 234.492 815.319 233.652 816.103 233.092C816.887 232.513 817.923 232.177 819.211 232.084L820.079 232L820.275 234.212L818.679 234.352C817.447 234.483 816.495 234.884 815.823 235.556C815.169 236.228 814.843 237.152 814.843 238.328V246H812.267ZM828.098 246.252C826.754 246.252 825.587 245.963 824.598 245.384C823.608 244.805 822.843 243.984 822.302 242.92C821.76 241.856 821.49 240.605 821.49 239.168C821.49 237.731 821.76 236.489 822.302 235.444C822.843 234.38 823.608 233.559 824.598 232.98C825.587 232.401 826.754 232.112 828.098 232.112C829.442 232.112 830.608 232.401 831.598 232.98C832.587 233.559 833.352 234.38 833.894 235.444C834.435 236.489 834.706 237.731 834.706 239.168C834.706 240.605 834.435 241.856 833.894 242.92C833.352 243.984 832.587 244.805 831.598 245.384C830.608 245.963 829.442 246.252 828.098 246.252ZM828.098 244.236C829.33 244.236 830.31 243.807 831.038 242.948C831.766 242.071 832.13 240.811 832.13 239.168C832.13 237.525 831.766 236.275 831.038 235.416C830.31 234.557 829.33 234.128 828.098 234.128C826.884 234.128 825.904 234.557 825.158 235.416C824.43 236.275 824.066 237.525 824.066 239.168C824.066 240.811 824.43 242.071 825.158 242.948C825.904 243.807 826.884 244.236 828.098 244.236ZM842.31 246.252C840.854 246.252 839.762 245.841 839.034 245.02C838.324 244.18 837.97 242.976 837.97 241.408V226.26H840.518V241.212C840.518 241.847 840.602 242.388 840.77 242.836C840.956 243.265 841.218 243.583 841.554 243.788C841.908 243.993 842.347 244.096 842.87 244.096C843.075 244.096 843.28 244.087 843.486 244.068C843.71 244.049 843.915 244.012 844.102 243.956L844.046 246.028C843.747 246.103 843.448 246.159 843.15 246.196C842.87 246.233 842.59 246.252 842.31 246.252ZM846.728 246V226.26H854.708C856.126 226.26 857.33 226.493 858.32 226.96C859.309 227.427 860.056 228.108 860.56 229.004C861.082 229.881 861.344 230.955 861.344 232.224C861.344 233.493 861.082 234.576 860.56 235.472C860.056 236.368 859.309 237.049 858.32 237.516C857.33 237.983 856.126 238.216 854.708 238.216H849.332V246H846.728ZM849.332 236.116H854.372C855.828 236.116 856.92 235.789 857.648 235.136C858.394 234.464 858.768 233.493 858.768 232.224C858.768 230.955 858.394 230.003 857.648 229.368C856.92 228.715 855.828 228.388 854.372 228.388H849.332V236.116ZM868.56 246.252C867.104 246.252 866.012 245.841 865.284 245.02C864.574 244.18 864.22 242.976 864.22 241.408V226.26H866.768V241.212C866.768 241.847 866.852 242.388 867.02 242.836C867.206 243.265 867.468 243.583 867.804 243.788C868.158 243.993 868.597 244.096 869.12 244.096C869.325 244.096 869.53 244.087 869.736 244.068C869.96 244.049 870.165 244.012 870.352 243.956L870.296 246.028C869.997 246.103 869.698 246.159 869.4 246.196C869.12 246.233 868.84 246.252 868.56 246.252ZM876.982 246.252C876.048 246.252 875.199 246.065 874.434 245.692C873.687 245.319 873.099 244.815 872.67 244.18C872.259 243.545 872.054 242.836 872.054 242.052C872.054 241.044 872.306 240.251 872.81 239.672C873.314 239.093 874.163 238.683 875.358 238.44C876.552 238.179 878.158 238.048 880.174 238.048H881.49V239.672H880.23C879.147 239.672 878.242 239.709 877.514 239.784C876.786 239.859 876.207 239.98 875.778 240.148C875.348 240.316 875.04 240.549 874.854 240.848C874.667 241.128 874.574 241.483 874.574 241.912C874.574 242.64 874.826 243.237 875.33 243.704C875.852 244.171 876.562 244.404 877.458 244.404C878.167 244.404 878.792 244.236 879.334 243.9C879.875 243.545 880.304 243.079 880.622 242.5C880.939 241.903 881.098 241.221 881.098 240.456V237.236C881.098 236.135 880.874 235.341 880.426 234.856C879.978 234.352 879.222 234.1 878.158 234.1C877.374 234.1 876.59 234.221 875.806 234.464C875.04 234.707 874.247 235.08 873.426 235.584L872.614 233.764C873.099 233.428 873.65 233.139 874.266 232.896C874.9 232.635 875.554 232.439 876.226 232.308C876.916 232.177 877.579 232.112 878.214 232.112C879.427 232.112 880.426 232.308 881.21 232.7C881.994 233.073 882.582 233.661 882.974 234.464C883.366 235.248 883.562 236.256 883.562 237.488V246H881.154V242.892H881.406C881.256 243.583 880.976 244.18 880.566 244.684C880.155 245.188 879.642 245.58 879.026 245.86C878.428 246.121 877.747 246.252 876.982 246.252ZM887.571 246V232.364H890.063V235.332H889.755C890.147 234.268 890.782 233.465 891.659 232.924C892.555 232.383 893.573 232.112 894.711 232.112C895.813 232.112 896.718 232.308 897.427 232.7C898.137 233.092 898.669 233.699 899.023 234.52C899.378 235.323 899.555 236.331 899.555 237.544V246H897.007V237.684C897.007 236.881 896.905 236.219 896.699 235.696C896.494 235.173 896.167 234.791 895.719 234.548C895.29 234.305 894.739 234.184 894.067 234.184C893.283 234.184 892.593 234.352 891.995 234.688C891.398 235.024 890.931 235.5 890.595 236.116C890.278 236.732 890.119 237.451 890.119 238.272V246H887.571ZM909.895 246.252C908.42 246.252 907.151 245.972 906.087 245.412C905.041 244.833 904.229 244.021 903.651 242.976C903.072 241.912 902.783 240.661 902.783 239.224C902.783 237.805 903.063 236.564 903.623 235.5C904.201 234.436 904.985 233.605 905.975 233.008C906.983 232.411 908.131 232.112 909.419 232.112C910.669 232.112 911.733 232.383 912.611 232.924C913.507 233.465 914.188 234.24 914.655 235.248C915.14 236.237 915.383 237.432 915.383 238.832V239.756H904.771V238.132H913.703L913.227 238.524C913.227 237.068 912.909 235.948 912.275 235.164C911.64 234.361 910.707 233.96 909.475 233.96C908.579 233.96 907.813 234.175 907.179 234.604C906.544 235.015 906.059 235.603 905.723 236.368C905.387 237.115 905.219 237.983 905.219 238.972V239.14C905.219 240.26 905.396 241.203 905.751 241.968C906.124 242.715 906.656 243.284 907.347 243.676C908.037 244.049 908.887 244.236 909.895 244.236C910.697 244.236 911.472 244.115 912.219 243.872C912.984 243.611 913.703 243.209 914.375 242.668L915.159 244.432C914.543 244.992 913.749 245.44 912.779 245.776C911.827 246.093 910.865 246.252 909.895 246.252Z" fill="black"/>
<path d="M413.632 331.487C413.096 331.623 412.772 332.167 412.908 332.702C413.043 333.238 413.587 333.562 414.122 333.426L413.632 331.487ZM607.981 284.055C608.263 283.581 608.108 282.967 607.634 282.684L599.903 278.076C599.428 277.793 598.814 277.949 598.532 278.423C598.249 278.898 598.404 279.511 598.879 279.794L605.751 283.89L601.655 290.762C601.372 291.236 601.527 291.85 602.002 292.133C602.476 292.416 603.09 292.26 603.373 291.786L607.981 284.055ZM416.964 332.707C417.5 332.572 417.824 332.028 417.688 331.492C417.553 330.957 417.009 330.633 416.473 330.768L416.964 332.707ZM422.157 329.33C421.622 329.465 421.298 330.009 421.433 330.544C421.569 331.08 422.112 331.404 422.648 331.268L422.157 329.33ZM428.331 329.83C428.867 329.694 429.191 329.15 429.056 328.615C428.92 328.08 428.376 327.755 427.841 327.891L428.331 329.83ZM433.524 326.452C432.989 326.588 432.665 327.132 432.8 327.667C432.936 328.202 433.48 328.527 434.015 328.391L433.524 326.452ZM439.699 326.952C440.234 326.817 440.558 326.273 440.423 325.738C440.287 325.202 439.743 324.878 439.208 325.014L439.699 326.952ZM444.892 323.575C444.356 323.71 444.032 324.254 444.168 324.79C444.303 325.325 444.847 325.649 445.382 325.514L444.892 323.575ZM451.066 324.075C451.602 323.94 451.926 323.396 451.79 322.86C451.655 322.325 451.111 322.001 450.575 322.136L451.066 324.075ZM456.259 320.698C455.724 320.833 455.399 321.377 455.535 321.912C455.671 322.448 456.214 322.772 456.75 322.637L456.259 320.698ZM462.433 321.198C462.969 321.062 463.293 320.518 463.158 319.983C463.022 319.448 462.478 319.123 461.943 319.259L462.433 321.198ZM467.626 317.82C467.091 317.956 466.767 318.5 466.902 319.035C467.038 319.571 467.582 319.895 468.117 319.759L467.626 317.82ZM473.801 318.321C474.336 318.185 474.66 317.641 474.525 317.106C474.389 316.57 473.845 316.246 473.31 316.382L473.801 318.321ZM478.994 314.943C478.458 315.079 478.134 315.622 478.27 316.158C478.405 316.693 478.949 317.017 479.484 316.882L478.994 314.943ZM485.168 315.443C485.704 315.308 486.028 314.764 485.892 314.228C485.757 313.693 485.213 313.369 484.677 313.504L485.168 315.443ZM490.361 312.066C489.826 312.201 489.501 312.745 489.637 313.281C489.773 313.816 490.316 314.14 490.852 314.005L490.361 312.066ZM496.535 312.566C497.071 312.43 497.395 311.887 497.26 311.351C497.124 310.816 496.58 310.492 496.045 310.627L496.535 312.566ZM501.728 309.188C501.193 309.324 500.869 309.868 501.004 310.403C501.14 310.939 501.684 311.263 502.219 311.127L501.728 309.188ZM507.903 309.689C508.438 309.553 508.762 309.009 508.627 308.474C508.491 307.938 507.947 307.614 507.412 307.75L507.903 309.689ZM513.096 306.311C512.56 306.447 512.236 306.991 512.372 307.526C512.507 308.061 513.051 308.386 513.586 308.25L513.096 306.311ZM519.27 306.811C519.806 306.676 520.13 306.132 519.994 305.597C519.859 305.061 519.315 304.737 518.779 304.873L519.27 306.811ZM524.463 303.434C523.928 303.569 523.603 304.113 523.739 304.649C523.875 305.184 524.418 305.508 524.954 305.373L524.463 303.434ZM530.637 303.934C531.173 303.799 531.497 303.255 531.362 302.719C531.226 302.184 530.682 301.86 530.147 301.995L530.637 303.934ZM535.83 300.557C535.295 300.692 534.971 301.236 535.106 301.771C535.242 302.307 535.786 302.631 536.321 302.495L535.83 300.557ZM542.005 301.057C542.54 300.921 542.864 300.377 542.729 299.842C542.593 299.307 542.049 298.982 541.514 299.118L542.005 301.057ZM547.198 297.679C546.662 297.815 546.338 298.359 546.474 298.894C546.609 299.43 547.153 299.754 547.688 299.618L547.198 297.679ZM553.372 298.18C553.908 298.044 554.232 297.5 554.096 296.965C553.961 296.429 553.417 296.105 552.881 296.241L553.372 298.18ZM558.565 294.802C558.03 294.938 557.705 295.481 557.841 296.017C557.977 296.552 558.52 296.876 559.056 296.741L558.565 294.802ZM564.739 295.302C565.275 295.167 565.599 294.623 565.464 294.087C565.328 293.552 564.784 293.228 564.249 293.363L564.739 295.302ZM569.932 291.925C569.397 292.06 569.073 292.604 569.208 293.14C569.344 293.675 569.888 293.999 570.423 293.864L569.932 291.925ZM576.107 292.425C576.642 292.289 576.966 291.746 576.831 291.21C576.695 290.675 576.151 290.351 575.616 290.486L576.107 292.425ZM581.3 289.047C580.764 289.183 580.44 289.727 580.576 290.262C580.711 290.798 581.255 291.122 581.79 290.986L581.3 289.047ZM587.474 289.548C588.01 289.412 588.334 288.868 588.198 288.333C588.063 287.797 587.519 287.473 586.983 287.609L587.474 289.548ZM592.667 286.17C592.132 286.306 591.807 286.85 591.943 287.385C592.079 287.92 592.622 288.245 593.158 288.109L592.667 286.17ZM598.841 286.67C599.377 286.535 599.701 285.991 599.566 285.456C599.43 284.92 598.886 284.596 598.351 284.732L598.841 286.67ZM604.034 283.293C603.499 283.428 603.175 283.972 603.31 284.508C603.446 285.043 603.99 285.367 604.525 285.232L604.034 283.293ZM414.122 333.426L416.964 332.707L416.473 330.768L413.632 331.487L414.122 333.426ZM422.648 331.268L428.331 329.83L427.841 327.891L422.157 329.33L422.648 331.268ZM434.015 328.391L439.699 326.952L439.208 325.014L433.524 326.452L434.015 328.391ZM445.382 325.514L451.066 324.075L450.575 322.136L444.892 323.575L445.382 325.514ZM456.75 322.637L462.433 321.198L461.943 319.259L456.259 320.698L456.75 322.637ZM468.117 319.759L473.801 318.321L473.31 316.382L467.626 317.82L468.117 319.759ZM479.484 316.882L485.168 315.443L484.677 313.504L478.994 314.943L479.484 316.882ZM490.852 314.005L496.535 312.566L496.045 310.627L490.361 312.066L490.852 314.005ZM502.219 311.127L507.903 309.689L507.412 307.75L501.728 309.188L502.219 311.127ZM513.586 308.25L519.27 306.811L518.779 304.873L513.096 306.311L513.586 308.25ZM524.954 305.373L530.637 303.934L530.147 301.995L524.463 303.434L524.954 305.373ZM536.321 302.495L542.005 301.057L541.514 299.118L535.83 300.557L536.321 302.495ZM547.688 299.618L553.372 298.18L552.881 296.241L547.198 297.679L547.688 299.618ZM559.056 296.741L564.739 295.302L564.249 293.363L558.565 294.802L559.056 296.741ZM570.423 293.864L576.107 292.425L575.616 290.486L569.932 291.925L570.423 293.864ZM581.79 290.986L587.474 289.548L586.983 287.609L581.3 289.047L581.79 290.986ZM593.158 288.109L598.841 286.67L598.351 284.732L592.667 286.17L593.158 288.109ZM604.525 285.232L607.367 284.512L606.876 282.574L604.034 283.293L604.525 285.232Z" fill="#262222"/>
<path d="M195.259 388.252C193.299 388.252 191.619 387.841 190.219 387.02C188.819 386.199 187.737 385.032 186.971 383.52C186.225 381.989 185.851 380.188 185.851 378.116C185.851 376.044 186.225 374.252 186.971 372.74C187.737 371.228 188.819 370.061 190.219 369.24C191.619 368.419 193.299 368.008 195.259 368.008C196.603 368.008 197.854 368.223 199.011 368.652C200.187 369.063 201.167 369.679 201.951 370.5L200.999 372.572C200.141 371.807 199.254 371.247 198.339 370.892C197.425 370.537 196.417 370.36 195.315 370.36C193.15 370.36 191.489 371.032 190.331 372.376C189.193 373.72 188.623 375.633 188.623 378.116C188.623 380.599 189.193 382.521 190.331 383.884C191.489 385.228 193.15 385.9 195.315 385.9C196.417 385.9 197.425 385.723 198.339 385.368C199.254 385.013 200.141 384.453 200.999 383.688L201.951 385.76C201.167 386.563 200.187 387.179 199.011 387.608C197.854 388.037 196.603 388.252 195.259 388.252ZM209.45 388.252C207.994 388.252 206.902 387.841 206.174 387.02C205.465 386.18 205.11 384.976 205.11 383.408V368.26H207.658V383.212C207.658 383.847 207.742 384.388 207.91 384.836C208.097 385.265 208.358 385.583 208.694 385.788C209.049 385.993 209.488 386.096 210.01 386.096C210.216 386.096 210.421 386.087 210.626 386.068C210.85 386.049 211.056 386.012 211.242 385.956L211.186 388.028C210.888 388.103 210.589 388.159 210.29 388.196C210.01 388.233 209.73 388.252 209.45 388.252ZM218.404 388.252C217.303 388.252 216.379 388.047 215.632 387.636C214.904 387.225 214.363 386.619 214.008 385.816C213.654 385.013 213.476 384.005 213.476 382.792V374.364H216.024V382.792C216.024 383.557 216.127 384.192 216.332 384.696C216.538 385.2 216.855 385.573 217.284 385.816C217.732 386.059 218.292 386.18 218.964 386.18C219.711 386.18 220.364 386.012 220.924 385.676C221.484 385.34 221.923 384.864 222.24 384.248C222.558 383.632 222.716 382.913 222.716 382.092V374.364H225.264V388H222.772V384.92H223.136C222.763 386.003 222.156 386.833 221.316 387.412C220.495 387.972 219.524 388.252 218.404 388.252ZM234.068 388.252C233.359 388.252 232.659 388.187 231.968 388.056C231.296 387.925 230.671 387.739 230.092 387.496C229.532 387.235 229.038 386.927 228.608 386.572L229.364 384.808C229.812 385.144 230.298 385.433 230.82 385.676C231.343 385.9 231.884 386.068 232.444 386.18C233.004 386.292 233.564 386.348 234.124 386.348C235.151 386.348 235.926 386.161 236.448 385.788C236.971 385.415 237.232 384.92 237.232 384.304C237.232 383.781 237.055 383.38 236.7 383.1C236.364 382.801 235.832 382.577 235.104 382.428L232.5 381.896C231.343 381.635 230.466 381.205 229.868 380.608C229.29 379.992 229 379.208 229 378.256C229 377.416 229.224 376.688 229.672 376.072C230.139 375.437 230.783 374.952 231.604 374.616C232.426 374.28 233.368 374.112 234.432 374.112C235.067 374.112 235.683 374.177 236.28 374.308C236.878 374.439 237.438 374.625 237.96 374.868C238.483 375.111 238.922 375.428 239.276 375.82L238.492 377.556C238.138 377.22 237.736 376.94 237.288 376.716C236.84 376.492 236.374 376.324 235.888 376.212C235.403 376.081 234.918 376.016 234.432 376.016C233.424 376.016 232.659 376.212 232.136 376.604C231.632 376.996 231.38 377.509 231.38 378.144C231.38 378.629 231.53 379.031 231.828 379.348C232.146 379.665 232.64 379.899 233.312 380.048L235.916 380.58C237.13 380.841 238.044 381.261 238.66 381.84C239.276 382.4 239.584 383.165 239.584 384.136C239.584 384.995 239.351 385.732 238.884 386.348C238.436 386.964 237.792 387.44 236.952 387.776C236.131 388.093 235.17 388.252 234.068 388.252ZM248.419 388.252C246.757 388.252 245.516 387.823 244.695 386.964C243.873 386.087 243.463 384.836 243.463 383.212V376.324H240.803V374.364H243.463V370.22H246.011V374.364H250.295V376.324H246.011V382.988C246.011 384.015 246.225 384.789 246.655 385.312C247.084 385.835 247.793 386.096 248.783 386.096C249.081 386.096 249.371 386.068 249.651 386.012C249.949 385.937 250.229 385.863 250.491 385.788L250.911 387.692C250.649 387.86 250.276 387.991 249.791 388.084C249.324 388.196 248.867 388.252 248.419 388.252ZM258.961 388.252C257.487 388.252 256.217 387.972 255.153 387.412C254.108 386.833 253.296 386.021 252.717 384.976C252.139 383.912 251.849 382.661 251.849 381.224C251.849 379.805 252.129 378.564 252.689 377.5C253.268 376.436 254.052 375.605 255.041 375.008C256.049 374.411 257.197 374.112 258.485 374.112C259.736 374.112 260.8 374.383 261.677 374.924C262.573 375.465 263.255 376.24 263.721 377.248C264.207 378.237 264.449 379.432 264.449 380.832V381.756H253.837V380.132H262.769L262.293 380.524C262.293 379.068 261.976 377.948 261.341 377.164C260.707 376.361 259.773 375.96 258.541 375.96C257.645 375.96 256.88 376.175 256.245 376.604C255.611 377.015 255.125 377.603 254.789 378.368C254.453 379.115 254.285 379.983 254.285 380.972V381.14C254.285 382.26 254.463 383.203 254.817 383.968C255.191 384.715 255.723 385.284 256.413 385.676C257.104 386.049 257.953 386.236 258.961 386.236C259.764 386.236 260.539 386.115 261.285 385.872C262.051 385.611 262.769 385.209 263.441 384.668L264.225 386.432C263.609 386.992 262.816 387.44 261.845 387.776C260.893 388.093 259.932 388.252 258.961 388.252ZM267.618 388V374.364H270.11V377.612H269.83C270.129 376.492 270.67 375.652 271.454 375.092C272.238 374.513 273.274 374.177 274.562 374.084L275.43 374L275.626 376.212L274.03 376.352C272.798 376.483 271.846 376.884 271.174 377.556C270.521 378.228 270.194 379.152 270.194 380.328V388H267.618Z" fill="black"/>
<rect x="612" y="493" width="358" height="108" rx="9" fill="white" stroke="url(#paint2_linear_466_159)" stroke-width="2"/>
<path d="M694.745 556V536.26H697.349V545.192H697.405L706.757 536.26H710.033L699.169 546.508L699.197 545.192L710.593 556H707.289L697.405 546.732H697.349V556H694.745ZM716.754 556.252C715.653 556.252 714.729 556.047 713.982 555.636C713.254 555.225 712.713 554.619 712.358 553.816C712.003 553.013 711.826 552.005 711.826 550.792V542.364H714.374V550.792C714.374 551.557 714.477 552.192 714.682 552.696C714.887 553.2 715.205 553.573 715.634 553.816C716.082 554.059 716.642 554.18 717.314 554.18C718.061 554.18 718.714 554.012 719.274 553.676C719.834 553.34 720.273 552.864 720.59 552.248C720.907 551.632 721.066 550.913 721.066 550.092V542.364H723.614V556H721.122V552.92H721.486C721.113 554.003 720.506 554.833 719.666 555.412C718.845 555.972 717.874 556.252 716.754 556.252ZM734.854 556.252C733.622 556.252 732.567 555.944 731.69 555.328C730.813 554.712 730.225 553.881 729.926 552.836H730.206V556H727.714V536.26H730.262V545.444H729.954C730.253 544.436 730.841 543.633 731.718 543.036C732.595 542.42 733.641 542.112 734.854 542.112C736.067 542.112 737.122 542.401 738.018 542.98C738.933 543.54 739.633 544.352 740.118 545.416C740.622 546.461 740.874 547.712 740.874 549.168C740.874 550.605 740.622 551.865 740.118 552.948C739.614 554.012 738.914 554.833 738.018 555.412C737.122 555.972 736.067 556.252 734.854 556.252ZM734.266 554.236C735.498 554.236 736.478 553.807 737.206 552.948C737.934 552.071 738.298 550.811 738.298 549.168C738.298 547.525 737.934 546.275 737.206 545.416C736.478 544.557 735.498 544.128 734.266 544.128C733.034 544.128 732.054 544.557 731.326 545.416C730.598 546.275 730.234 547.525 730.234 549.168C730.234 550.811 730.598 552.071 731.326 552.948C732.054 553.807 733.034 554.236 734.266 554.236ZM750.448 556.252C748.973 556.252 747.704 555.972 746.64 555.412C745.594 554.833 744.782 554.021 744.204 552.976C743.625 551.912 743.336 550.661 743.336 549.224C743.336 547.805 743.616 546.564 744.176 545.5C744.754 544.436 745.538 543.605 746.528 543.008C747.536 542.411 748.684 542.112 749.972 542.112C751.222 542.112 752.286 542.383 753.164 542.924C754.06 543.465 754.741 544.24 755.208 545.248C755.693 546.237 755.936 547.432 755.936 548.832V549.756H745.324V548.132H754.256L753.78 548.524C753.78 547.068 753.462 545.948 752.828 545.164C752.193 544.361 751.26 543.96 750.028 543.96C749.132 543.96 748.366 544.175 747.732 544.604C747.097 545.015 746.612 545.603 746.276 546.368C745.94 547.115 745.772 547.983 745.772 548.972V549.14C745.772 550.26 745.949 551.203 746.304 551.968C746.677 552.715 747.209 553.284 747.9 553.676C748.59 554.049 749.44 554.236 750.448 554.236C751.25 554.236 752.025 554.115 752.772 553.872C753.537 553.611 754.256 553.209 754.928 552.668L755.712 554.432C755.096 554.992 754.302 555.44 753.332 555.776C752.38 556.093 751.418 556.252 750.448 556.252ZM762.945 556L757.065 542.364H759.809L764.541 554.012H763.757L768.573 542.364H771.205L765.269 556H762.945ZM773.153 539.088V536.344H776.205V539.088H773.153ZM773.405 556V542.364H775.953V556H773.405ZM780.05 556V542.364H782.542V545.612H782.262C782.561 544.492 783.102 543.652 783.886 543.092C784.67 542.513 785.706 542.177 786.994 542.084L787.862 542L788.058 544.212L786.462 544.352C785.23 544.483 784.278 544.884 783.606 545.556C782.953 546.228 782.626 547.152 782.626 548.328V556H780.05ZM796.698 556.252C795.037 556.252 793.795 555.823 792.974 554.964C792.153 554.087 791.742 552.836 791.742 551.212V544.324H789.082V542.364H791.742V538.22H794.29V542.364H798.574V544.324H794.29V550.988C794.29 552.015 794.505 552.789 794.934 553.312C795.363 553.835 796.073 554.096 797.062 554.096C797.361 554.096 797.65 554.068 797.93 554.012C798.229 553.937 798.509 553.863 798.77 553.788L799.19 555.692C798.929 555.86 798.555 555.991 798.07 556.084C797.603 556.196 797.146 556.252 796.698 556.252ZM810.093 556.252C808.133 556.252 806.453 555.841 805.053 555.02C803.653 554.199 802.571 553.032 801.805 551.52C801.059 549.989 800.685 548.188 800.685 546.116C800.685 544.044 801.059 542.252 801.805 540.74C802.571 539.228 803.653 538.061 805.053 537.24C806.453 536.419 808.133 536.008 810.093 536.008C811.437 536.008 812.688 536.223 813.845 536.652C815.021 537.063 816.001 537.679 816.785 538.5L815.833 540.572C814.975 539.807 814.088 539.247 813.173 538.892C812.259 538.537 811.251 538.36 810.149 538.36C807.984 538.36 806.323 539.032 805.165 540.376C804.027 541.72 803.457 543.633 803.457 546.116C803.457 548.599 804.027 550.521 805.165 551.884C806.323 553.228 807.984 553.9 810.149 553.9C811.251 553.9 812.259 553.723 813.173 553.368C814.088 553.013 814.975 552.453 815.833 551.688L816.785 553.76C816.001 554.563 815.021 555.179 813.845 555.608C812.688 556.037 811.437 556.252 810.093 556.252ZM824.284 556.252C822.828 556.252 821.736 555.841 821.008 555.02C820.299 554.18 819.944 552.976 819.944 551.408V536.26H822.492V551.212C822.492 551.847 822.576 552.388 822.744 552.836C822.931 553.265 823.192 553.583 823.528 553.788C823.883 553.993 824.322 554.096 824.844 554.096C825.05 554.096 825.255 554.087 825.46 554.068C825.684 554.049 825.89 554.012 826.076 553.956L826.02 556.028C825.722 556.103 825.423 556.159 825.124 556.196C824.844 556.233 824.564 556.252 824.284 556.252ZM833.238 556.252C832.137 556.252 831.213 556.047 830.466 555.636C829.738 555.225 829.197 554.619 828.842 553.816C828.488 553.013 828.31 552.005 828.31 550.792V542.364H830.858V550.792C830.858 551.557 830.961 552.192 831.166 552.696C831.372 553.2 831.689 553.573 832.118 553.816C832.566 554.059 833.126 554.18 833.798 554.18C834.545 554.18 835.198 554.012 835.758 553.676C836.318 553.34 836.757 552.864 837.074 552.248C837.392 551.632 837.55 550.913 837.55 550.092V542.364H840.098V556H837.606V552.92H837.97C837.597 554.003 836.99 554.833 836.15 555.412C835.329 555.972 834.358 556.252 833.238 556.252ZM848.902 556.252C848.193 556.252 847.493 556.187 846.802 556.056C846.13 555.925 845.505 555.739 844.926 555.496C844.366 555.235 843.872 554.927 843.442 554.572L844.198 552.808C844.646 553.144 845.132 553.433 845.654 553.676C846.177 553.9 846.718 554.068 847.278 554.18C847.838 554.292 848.398 554.348 848.958 554.348C849.985 554.348 850.76 554.161 851.282 553.788C851.805 553.415 852.066 552.92 852.066 552.304C852.066 551.781 851.889 551.38 851.534 551.1C851.198 550.801 850.666 550.577 849.938 550.428L847.334 549.896C846.177 549.635 845.3 549.205 844.702 548.608C844.124 547.992 843.834 547.208 843.834 546.256C843.834 545.416 844.058 544.688 844.506 544.072C844.973 543.437 845.617 542.952 846.438 542.616C847.26 542.28 848.202 542.112 849.266 542.112C849.901 542.112 850.517 542.177 851.114 542.308C851.712 542.439 852.272 542.625 852.794 542.868C853.317 543.111 853.756 543.428 854.11 543.82L853.326 545.556C852.972 545.22 852.57 544.94 852.122 544.716C851.674 544.492 851.208 544.324 850.722 544.212C850.237 544.081 849.752 544.016 849.266 544.016C848.258 544.016 847.493 544.212 846.97 544.604C846.466 544.996 846.214 545.509 846.214 546.144C846.214 546.629 846.364 547.031 846.662 547.348C846.98 547.665 847.474 547.899 848.146 548.048L850.75 548.58C851.964 548.841 852.878 549.261 853.494 549.84C854.11 550.4 854.418 551.165 854.418 552.136C854.418 552.995 854.185 553.732 853.718 554.348C853.27 554.964 852.626 555.44 851.786 555.776C850.965 556.093 850.004 556.252 848.902 556.252ZM863.253 556.252C861.591 556.252 860.35 555.823 859.529 554.964C858.707 554.087 858.297 552.836 858.297 551.212V544.324H855.637V542.364H858.297V538.22H860.845V542.364H865.129V544.324H860.845V550.988C860.845 552.015 861.059 552.789 861.489 553.312C861.918 553.835 862.627 554.096 863.617 554.096C863.915 554.096 864.205 554.068 864.485 554.012C864.783 553.937 865.063 553.863 865.325 553.788L865.745 555.692C865.483 555.86 865.11 555.991 864.625 556.084C864.158 556.196 863.701 556.252 863.253 556.252ZM873.795 556.252C872.321 556.252 871.051 555.972 869.987 555.412C868.942 554.833 868.13 554.021 867.551 552.976C866.973 551.912 866.683 550.661 866.683 549.224C866.683 547.805 866.963 546.564 867.523 545.5C868.102 544.436 868.886 543.605 869.875 543.008C870.883 542.411 872.031 542.112 873.319 542.112C874.57 542.112 875.634 542.383 876.511 542.924C877.407 543.465 878.089 544.24 878.555 545.248C879.041 546.237 879.283 547.432 879.283 548.832V549.756H868.671V548.132H877.603L877.127 548.524C877.127 547.068 876.81 545.948 876.175 545.164C875.541 544.361 874.607 543.96 873.375 543.96C872.479 543.96 871.714 544.175 871.079 544.604C870.445 545.015 869.959 545.603 869.623 546.368C869.287 547.115 869.119 547.983 869.119 548.972V549.14C869.119 550.26 869.297 551.203 869.651 551.968C870.025 552.715 870.557 553.284 871.247 553.676C871.938 554.049 872.787 554.236 873.795 554.236C874.598 554.236 875.373 554.115 876.119 553.872C876.885 553.611 877.603 553.209 878.275 552.668L879.059 554.432C878.443 554.992 877.65 555.44 876.679 555.776C875.727 556.093 874.766 556.252 873.795 556.252ZM882.452 556V542.364H884.944V545.612H884.664C884.963 544.492 885.504 543.652 886.288 543.092C887.072 542.513 888.108 542.177 889.396 542.084L890.264 542L890.46 544.212L888.864 544.352C887.632 544.483 886.68 544.884 886.008 545.556C885.355 546.228 885.028 547.152 885.028 548.328V556H882.452Z" fill="black"/>
<path d="M414.119 433.093C413.59 432.935 413.033 433.235 412.874 433.764C412.716 434.293 413.016 434.851 413.545 435.009L414.119 433.093ZM607.643 492.829C608.129 492.567 608.311 491.96 608.049 491.474L603.778 483.552C603.516 483.066 602.909 482.884 602.423 483.146C601.937 483.408 601.755 484.015 602.017 484.501L605.814 491.543L598.772 495.339C598.285 495.601 598.104 496.208 598.366 496.694C598.628 497.18 599.235 497.362 599.721 497.1L607.643 492.829ZM416.388 435.861C416.917 436.019 417.475 435.719 417.633 435.19C417.792 434.661 417.491 434.103 416.962 433.945L416.388 435.861ZM422.648 435.648C422.119 435.489 421.562 435.79 421.404 436.319C421.245 436.848 421.546 437.405 422.075 437.564L422.648 435.648ZM427.761 439.266C428.29 439.425 428.847 439.124 429.006 438.595C429.164 438.066 428.864 437.509 428.335 437.35L427.761 439.266ZM434.021 439.053C433.492 438.895 432.935 439.195 432.776 439.724C432.618 440.253 432.918 440.811 433.447 440.969L434.021 439.053ZM439.134 442.672C439.663 442.831 440.22 442.53 440.379 442.001C440.537 441.472 440.237 440.915 439.708 440.756L439.134 442.672ZM445.394 442.459C444.865 442.301 444.307 442.601 444.149 443.13C443.991 443.659 444.291 444.217 444.82 444.375L445.394 442.459ZM450.507 446.078C451.036 446.236 451.593 445.936 451.751 445.407C451.91 444.878 451.609 444.32 451.08 444.162L450.507 446.078ZM456.767 445.865C456.238 445.706 455.68 446.007 455.522 446.536C455.363 447.065 455.664 447.622 456.193 447.781L456.767 445.865ZM461.879 449.484C462.408 449.642 462.966 449.342 463.124 448.813C463.283 448.283 462.982 447.726 462.453 447.568L461.879 449.484ZM468.139 449.271C467.61 449.112 467.053 449.413 466.894 449.942C466.736 450.471 467.037 451.028 467.566 451.186L468.139 449.271ZM473.252 452.889C473.781 453.048 474.338 452.747 474.497 452.218C474.655 451.689 474.355 451.132 473.826 450.973L473.252 452.889ZM479.512 452.676C478.983 452.518 478.426 452.818 478.267 453.347C478.109 453.876 478.409 454.434 478.938 454.592L479.512 452.676ZM484.625 456.295C485.154 456.454 485.711 456.153 485.87 455.624C486.028 455.095 485.727 454.538 485.198 454.379L484.625 456.295ZM490.885 456.082C490.356 455.924 489.798 456.224 489.64 456.753C489.482 457.282 489.782 457.84 490.311 457.998L490.885 456.082ZM495.997 459.701C496.526 459.859 497.084 459.559 497.242 459.03C497.401 458.501 497.1 457.943 496.571 457.785L495.997 459.701ZM502.258 459.488C501.728 459.329 501.171 459.63 501.013 460.159C500.854 460.688 501.155 461.245 501.684 461.404L502.258 459.488ZM507.37 463.107C507.899 463.265 508.457 462.965 508.615 462.435C508.773 461.906 508.473 461.349 507.944 461.191L507.37 463.107ZM513.63 462.893C513.101 462.735 512.544 463.035 512.385 463.565C512.227 464.094 512.527 464.651 513.056 464.809L513.63 462.893ZM518.743 466.512C519.272 466.671 519.829 466.37 519.988 465.841C520.146 465.312 519.846 464.755 519.317 464.596L518.743 466.512ZM525.003 466.299C524.474 466.141 523.917 466.441 523.758 466.97C523.6 467.499 523.9 468.057 524.429 468.215L525.003 466.299ZM530.116 469.918C530.645 470.076 531.202 469.776 531.36 469.247C531.519 468.718 531.218 468.161 530.689 468.002L530.116 469.918ZM536.376 469.705C535.847 469.547 535.289 469.847 535.131 470.376C534.972 470.905 535.273 471.462 535.802 471.621L536.376 469.705ZM541.488 473.324C542.017 473.482 542.575 473.182 542.733 472.653C542.892 472.124 542.591 471.566 542.062 471.408L541.488 473.324ZM547.748 473.111C547.219 472.952 546.662 473.253 546.504 473.782C546.345 474.311 546.646 474.868 547.175 475.027L547.748 473.111ZM552.861 476.729C553.39 476.888 553.947 476.587 554.106 476.058C554.264 475.529 553.964 474.972 553.435 474.814L552.861 476.729ZM559.121 476.516C558.592 476.358 558.035 476.658 557.876 477.188C557.718 477.717 558.018 478.274 558.547 478.432L559.121 476.516ZM564.234 480.135C564.763 480.294 565.32 479.993 565.479 479.464C565.637 478.935 565.337 478.378 564.807 478.219L564.234 480.135ZM570.494 479.922C569.965 479.764 569.407 480.064 569.249 480.593C569.091 481.122 569.391 481.68 569.92 481.838L570.494 479.922ZM575.606 483.541C576.136 483.699 576.693 483.399 576.851 482.87C577.01 482.341 576.709 481.783 576.18 481.625L575.606 483.541ZM581.867 483.328C581.338 483.169 580.78 483.47 580.622 483.999C580.463 484.528 580.764 485.085 581.293 485.244L581.867 483.328ZM586.979 486.947C587.508 487.105 588.066 486.805 588.224 486.276C588.382 485.747 588.082 485.189 587.553 485.031L586.979 486.947ZM593.239 486.734C592.71 486.575 592.153 486.876 591.994 487.405C591.836 487.934 592.136 488.491 592.666 488.65L593.239 486.734ZM598.352 490.352C598.881 490.511 599.438 490.21 599.597 489.681C599.755 489.152 599.455 488.595 598.926 488.437L598.352 490.352ZM604.612 490.139C604.083 489.981 603.526 490.281 603.367 490.81C603.209 491.34 603.509 491.897 604.038 492.055L604.612 490.139ZM413.545 435.009L416.388 435.861L416.962 433.945L414.119 433.093L413.545 435.009ZM422.075 437.564L427.761 439.266L428.335 437.35L422.648 435.648L422.075 437.564ZM433.447 440.969L439.134 442.672L439.708 440.756L434.021 439.053L433.447 440.969ZM444.82 444.375L450.507 446.078L451.08 444.162L445.394 442.459L444.82 444.375ZM456.193 447.781L461.879 449.484L462.453 447.568L456.767 445.865L456.193 447.781ZM467.566 451.186L473.252 452.889L473.826 450.973L468.139 449.271L467.566 451.186ZM478.938 454.592L484.625 456.295L485.198 454.379L479.512 452.676L478.938 454.592ZM490.311 457.998L495.997 459.701L496.571 457.785L490.885 456.082L490.311 457.998ZM501.684 461.404L507.37 463.107L507.944 461.191L502.258 459.488L501.684 461.404ZM513.056 464.809L518.743 466.512L519.317 464.596L513.63 462.893L513.056 464.809ZM524.429 468.215L530.116 469.918L530.689 468.002L525.003 466.299L524.429 468.215ZM535.802 471.621L541.488 473.324L542.062 471.408L536.376 469.705L535.802 471.621ZM547.175 475.027L552.861 476.729L553.435 474.814L547.748 473.111L547.175 475.027ZM558.547 478.432L564.234 480.135L564.807 478.219L559.121 476.516L558.547 478.432ZM569.92 481.838L575.606 483.541L576.18 481.625L570.494 479.922L569.92 481.838ZM581.293 485.244L586.979 486.947L587.553 485.031L581.867 483.328L581.293 485.244ZM592.666 488.65L598.352 490.352L598.926 488.437L593.239 486.734L592.666 488.65ZM604.038 492.055L606.881 492.907L607.455 490.991L604.612 490.139L604.038 492.055Z" fill="#262222"/>
<path d="M1092.88 246V226.26H1095.06L1102.93 241.016H1102.06L1109.9 226.26H1112.06V246H1109.71V229.872H1110.32L1103.3 242.976H1101.67L1094.56 229.844H1095.23V246H1092.88ZM1120.86 246.252C1119.93 246.252 1119.08 246.065 1118.31 245.692C1117.57 245.319 1116.98 244.815 1116.55 244.18C1116.14 243.545 1115.93 242.836 1115.93 242.052C1115.93 241.044 1116.19 240.251 1116.69 239.672C1117.19 239.093 1118.04 238.683 1119.24 238.44C1120.43 238.179 1122.04 238.048 1124.05 238.048H1125.37V239.672H1124.11C1123.03 239.672 1122.12 239.709 1121.39 239.784C1120.67 239.859 1120.09 239.98 1119.66 240.148C1119.23 240.316 1118.92 240.549 1118.73 240.848C1118.55 241.128 1118.45 241.483 1118.45 241.912C1118.45 242.64 1118.71 243.237 1119.21 243.704C1119.73 244.171 1120.44 244.404 1121.34 244.404C1122.05 244.404 1122.67 244.236 1123.21 243.9C1123.76 243.545 1124.19 243.079 1124.5 242.5C1124.82 241.903 1124.98 241.221 1124.98 240.456V237.236C1124.98 236.135 1124.75 235.341 1124.31 234.856C1123.86 234.352 1123.1 234.1 1122.04 234.1C1121.25 234.1 1120.47 234.221 1119.69 234.464C1118.92 234.707 1118.13 235.08 1117.31 235.584L1116.49 233.764C1116.98 233.428 1117.53 233.139 1118.15 232.896C1118.78 232.635 1119.43 232.439 1120.11 232.308C1120.8 232.177 1121.46 232.112 1122.09 232.112C1123.31 232.112 1124.31 232.308 1125.09 232.7C1125.87 233.073 1126.46 233.661 1126.85 234.464C1127.25 235.248 1127.44 236.256 1127.44 237.488V246H1125.03V242.892H1125.29C1125.14 243.583 1124.86 244.18 1124.45 244.684C1124.04 245.188 1123.52 245.58 1122.91 245.86C1122.31 246.121 1121.63 246.252 1120.86 246.252ZM1131.45 246V232.364H1133.94V235.332H1133.64C1134.03 234.268 1134.66 233.465 1135.54 232.924C1136.44 232.383 1137.45 232.112 1138.59 232.112C1139.69 232.112 1140.6 232.308 1141.31 232.7C1142.02 233.092 1142.55 233.699 1142.9 234.52C1143.26 235.323 1143.44 236.331 1143.44 237.544V246H1140.89V237.684C1140.89 236.881 1140.79 236.219 1140.58 235.696C1140.37 235.173 1140.05 234.791 1139.6 234.548C1139.17 234.305 1138.62 234.184 1137.95 234.184C1137.16 234.184 1136.47 234.352 1135.88 234.688C1135.28 235.024 1134.81 235.5 1134.48 236.116C1134.16 236.732 1134 237.451 1134 238.272V246H1131.45ZM1151.82 246.252C1150.88 246.252 1150.03 246.065 1149.27 245.692C1148.52 245.319 1147.93 244.815 1147.5 244.18C1147.09 243.545 1146.89 242.836 1146.89 242.052C1146.89 241.044 1147.14 240.251 1147.64 239.672C1148.15 239.093 1149 238.683 1150.19 238.44C1151.39 238.179 1152.99 238.048 1155.01 238.048H1156.32V239.672H1155.06C1153.98 239.672 1153.08 239.709 1152.35 239.784C1151.62 239.859 1151.04 239.98 1150.61 240.148C1150.18 240.316 1149.87 240.549 1149.69 240.848C1149.5 241.128 1149.41 241.483 1149.41 241.912C1149.41 242.64 1149.66 243.237 1150.16 243.704C1150.69 244.171 1151.4 244.404 1152.29 244.404C1153 244.404 1153.63 244.236 1154.17 243.9C1154.71 243.545 1155.14 243.079 1155.46 242.5C1155.77 241.903 1155.93 241.221 1155.93 240.456V237.236C1155.93 236.135 1155.71 235.341 1155.26 234.856C1154.81 234.352 1154.06 234.1 1152.99 234.1C1152.21 234.1 1151.42 234.221 1150.64 234.464C1149.87 234.707 1149.08 235.08 1148.26 235.584L1147.45 233.764C1147.93 233.428 1148.48 233.139 1149.1 232.896C1149.73 232.635 1150.39 232.439 1151.06 232.308C1151.75 232.177 1152.41 232.112 1153.05 232.112C1154.26 232.112 1155.26 232.308 1156.04 232.7C1156.83 233.073 1157.42 233.661 1157.81 234.464C1158.2 235.248 1158.4 236.256 1158.4 237.488V246H1155.99V242.892H1156.24C1156.09 243.583 1155.81 244.18 1155.4 244.684C1154.99 245.188 1154.48 245.58 1153.86 245.86C1153.26 246.121 1152.58 246.252 1151.82 246.252ZM1168.54 251.292C1167.32 251.292 1166.19 251.143 1165.15 250.844C1164.1 250.545 1163.17 250.088 1162.35 249.472L1163.16 247.624C1163.72 247.997 1164.27 248.305 1164.81 248.548C1165.37 248.809 1165.94 248.996 1166.52 249.108C1167.12 249.22 1167.73 249.276 1168.37 249.276C1169.69 249.276 1170.68 248.931 1171.34 248.24C1172.01 247.568 1172.35 246.579 1172.35 245.272V242.248H1172.6C1172.34 243.293 1171.75 244.124 1170.83 244.74C1169.94 245.356 1168.89 245.664 1167.7 245.664C1166.47 245.664 1165.39 245.384 1164.48 244.824C1163.56 244.245 1162.85 243.452 1162.35 242.444C1161.85 241.417 1161.59 240.232 1161.59 238.888C1161.59 237.525 1161.85 236.34 1162.35 235.332C1162.85 234.305 1163.56 233.512 1164.48 232.952C1165.39 232.392 1166.47 232.112 1167.7 232.112C1168.91 232.112 1169.97 232.42 1170.86 233.036C1171.76 233.652 1172.34 234.483 1172.6 235.528H1172.35V232.364H1174.84V244.936C1174.84 246.336 1174.59 247.512 1174.11 248.464C1173.64 249.416 1172.94 250.125 1172.01 250.592C1171.08 251.059 1169.92 251.292 1168.54 251.292ZM1168.26 243.648C1169.51 243.648 1170.5 243.219 1171.23 242.36C1171.95 241.501 1172.32 240.344 1172.32 238.888C1172.32 237.413 1171.95 236.256 1171.23 235.416C1170.5 234.557 1169.51 234.128 1168.26 234.128C1167.01 234.128 1166.01 234.557 1165.26 235.416C1164.53 236.256 1164.17 237.413 1164.17 238.888C1164.17 240.344 1164.53 241.501 1165.26 242.36C1166.01 243.219 1167.01 243.648 1168.26 243.648ZM1185.22 246.252C1183.75 246.252 1182.48 245.972 1181.41 245.412C1180.37 244.833 1179.56 244.021 1178.98 242.976C1178.4 241.912 1178.11 240.661 1178.11 239.224C1178.11 237.805 1178.39 236.564 1178.95 235.5C1179.53 234.436 1180.31 233.605 1181.3 233.008C1182.31 232.411 1183.46 232.112 1184.74 232.112C1186 232.112 1187.06 232.383 1187.94 232.924C1188.83 233.465 1189.51 234.24 1189.98 235.248C1190.47 236.237 1190.71 237.432 1190.71 238.832V239.756H1180.1V238.132H1189.03L1188.55 238.524C1188.55 237.068 1188.24 235.948 1187.6 235.164C1186.97 234.361 1186.03 233.96 1184.8 233.96C1183.9 233.96 1183.14 234.175 1182.5 234.604C1181.87 235.015 1181.38 235.603 1181.05 236.368C1180.71 237.115 1180.54 237.983 1180.54 238.972V239.14C1180.54 240.26 1180.72 241.203 1181.08 241.968C1181.45 242.715 1181.98 243.284 1182.67 243.676C1183.36 244.049 1184.21 244.236 1185.22 244.236C1186.02 244.236 1186.8 244.115 1187.54 243.872C1188.31 243.611 1189.03 243.209 1189.7 242.668L1190.48 244.432C1189.87 244.992 1189.08 245.44 1188.1 245.776C1187.15 246.093 1186.19 246.252 1185.22 246.252ZM1199.09 246.252C1197.89 246.252 1196.84 245.972 1195.92 245.412C1195.03 244.833 1194.33 244.012 1193.82 242.948C1193.32 241.865 1193.07 240.605 1193.07 239.168C1193.07 237.712 1193.31 236.461 1193.79 235.416C1194.3 234.352 1195 233.54 1195.89 232.98C1196.81 232.401 1197.87 232.112 1199.09 232.112C1200.3 232.112 1201.34 232.42 1202.22 233.036C1203.1 233.633 1203.69 234.436 1203.99 235.444H1203.68V226.26H1206.23V246H1203.71V242.836H1203.99C1203.71 243.881 1203.12 244.712 1202.22 245.328C1201.34 245.944 1200.3 246.252 1199.09 246.252ZM1199.67 244.236C1200.91 244.236 1201.89 243.807 1202.61 242.948C1203.34 242.071 1203.71 240.811 1203.71 239.168C1203.71 237.525 1203.34 236.275 1202.61 235.416C1201.89 234.557 1200.91 234.128 1199.67 234.128C1198.46 234.128 1197.48 234.557 1196.73 235.416C1196.01 236.275 1195.64 237.525 1195.64 239.168C1195.64 240.811 1196.01 242.071 1196.73 242.948C1197.48 243.807 1198.46 244.236 1199.67 244.236ZM1224.73 246.252C1223.49 246.252 1222.44 245.944 1221.56 245.328C1220.68 244.712 1220.1 243.881 1219.8 242.836H1220.08V246H1217.59V226.26H1220.13V235.444H1219.83C1220.12 234.436 1220.71 233.633 1221.59 233.036C1222.47 232.42 1223.51 232.112 1224.73 232.112C1225.94 232.112 1226.99 232.401 1227.89 232.98C1228.8 233.54 1229.5 234.352 1229.99 235.416C1230.49 236.461 1230.75 237.712 1230.75 239.168C1230.75 240.605 1230.49 241.865 1229.99 242.948C1229.49 244.012 1228.79 244.833 1227.89 245.412C1226.99 245.972 1225.94 246.252 1224.73 246.252ZM1224.14 244.236C1225.37 244.236 1226.35 243.807 1227.08 242.948C1227.81 242.071 1228.17 240.811 1228.17 239.168C1228.17 237.525 1227.81 236.275 1227.08 235.416C1226.35 234.557 1225.37 234.128 1224.14 234.128C1222.91 234.128 1221.93 234.557 1221.2 235.416C1220.47 236.275 1220.11 237.525 1220.11 239.168C1220.11 240.811 1220.47 242.071 1221.2 242.948C1221.93 243.807 1222.91 244.236 1224.14 244.236ZM1235.31 251.04L1237.92 245.188V246.252L1231.95 232.364H1234.7L1239.43 244.012H1238.64L1243.46 232.364H1246.09L1237.97 251.04H1235.31ZM1261.45 246.252C1260.06 246.252 1258.87 245.963 1257.86 245.384C1256.85 244.787 1256.08 243.956 1255.54 242.892C1255 241.809 1254.73 240.54 1254.73 239.084C1254.73 237.647 1255 236.405 1255.54 235.36C1256.08 234.315 1256.85 233.512 1257.86 232.952C1258.87 232.392 1260.06 232.112 1261.45 232.112C1262.3 232.112 1263.14 232.261 1263.97 232.56C1264.81 232.859 1265.5 233.279 1266.04 233.82L1265.2 235.612C1264.66 235.127 1264.07 234.763 1263.43 234.52C1262.8 234.277 1262.19 234.156 1261.61 234.156C1260.25 234.156 1259.2 234.585 1258.45 235.444C1257.7 236.303 1257.33 237.525 1257.33 239.112C1257.33 240.699 1257.7 241.949 1258.45 242.864C1259.2 243.76 1260.25 244.208 1261.61 244.208C1262.19 244.208 1262.8 244.087 1263.43 243.844C1264.07 243.601 1264.66 243.228 1265.2 242.724L1266.04 244.544C1265.5 245.085 1264.8 245.505 1263.94 245.804C1263.1 246.103 1262.27 246.252 1261.45 246.252ZM1274.08 246.252C1272.73 246.252 1271.57 245.963 1270.58 245.384C1269.59 244.805 1268.82 243.984 1268.28 242.92C1267.74 241.856 1267.47 240.605 1267.47 239.168C1267.47 237.731 1267.74 236.489 1268.28 235.444C1268.82 234.38 1269.59 233.559 1270.58 232.98C1271.57 232.401 1272.73 232.112 1274.08 232.112C1275.42 232.112 1276.59 232.401 1277.58 232.98C1278.57 233.559 1279.33 234.38 1279.87 235.444C1280.41 236.489 1280.68 237.731 1280.68 239.168C1280.68 240.605 1280.41 241.856 1279.87 242.92C1279.33 243.984 1278.57 244.805 1277.58 245.384C1276.59 245.963 1275.42 246.252 1274.08 246.252ZM1274.08 244.236C1275.31 244.236 1276.29 243.807 1277.02 242.948C1277.74 242.071 1278.11 240.811 1278.11 239.168C1278.11 237.525 1277.74 236.275 1277.02 235.416C1276.29 234.557 1275.31 234.128 1274.08 234.128C1272.86 234.128 1271.88 234.557 1271.14 235.416C1270.41 236.275 1270.04 237.525 1270.04 239.168C1270.04 240.811 1270.41 242.071 1271.14 242.948C1271.88 243.807 1272.86 244.236 1274.08 244.236ZM1283.95 246V232.364H1286.44V235.332H1286.13C1286.52 234.268 1287.16 233.465 1288.04 232.924C1288.93 232.383 1289.95 232.112 1291.09 232.112C1292.19 232.112 1293.09 232.308 1293.8 232.7C1294.51 233.092 1295.05 233.699 1295.4 234.52C1295.75 235.323 1295.93 236.331 1295.93 237.544V246H1293.38V237.684C1293.38 236.881 1293.28 236.219 1293.08 235.696C1292.87 235.173 1292.54 234.791 1292.1 234.548C1291.67 234.305 1291.12 234.184 1290.44 234.184C1289.66 234.184 1288.97 234.352 1288.37 234.688C1287.77 235.024 1287.31 235.5 1286.97 236.116C1286.65 236.732 1286.5 237.451 1286.5 238.272V246H1283.95ZM1305.63 246.252C1303.97 246.252 1302.73 245.823 1301.9 244.964C1301.08 244.087 1300.67 242.836 1300.67 241.212V234.324H1298.01V232.364H1300.67V228.22H1303.22V232.364H1307.5V234.324H1303.22V240.988C1303.22 242.015 1303.43 242.789 1303.86 243.312C1304.29 243.835 1305 244.096 1305.99 244.096C1306.29 244.096 1306.58 244.068 1306.86 244.012C1307.16 243.937 1307.44 243.863 1307.7 243.788L1308.12 245.692C1307.86 245.86 1307.49 245.991 1307 246.084C1306.53 246.196 1306.08 246.252 1305.63 246.252ZM1310.01 246V232.364H1312.5V235.612H1312.22C1312.52 234.492 1313.06 233.652 1313.84 233.092C1314.63 232.513 1315.66 232.177 1316.95 232.084L1317.82 232L1318.01 234.212L1316.42 234.352C1315.19 234.483 1314.23 234.884 1313.56 235.556C1312.91 236.228 1312.58 237.152 1312.58 238.328V246H1310.01ZM1325.84 246.252C1324.49 246.252 1323.33 245.963 1322.34 245.384C1321.35 244.805 1320.58 243.984 1320.04 242.92C1319.5 241.856 1319.23 240.605 1319.23 239.168C1319.23 237.731 1319.5 236.489 1320.04 235.444C1320.58 234.38 1321.35 233.559 1322.34 232.98C1323.33 232.401 1324.49 232.112 1325.84 232.112C1327.18 232.112 1328.35 232.401 1329.34 232.98C1330.33 233.559 1331.09 234.38 1331.63 235.444C1332.18 236.489 1332.45 237.731 1332.45 239.168C1332.45 240.605 1332.18 241.856 1331.63 242.92C1331.09 243.984 1330.33 244.805 1329.34 245.384C1328.35 245.963 1327.18 246.252 1325.84 246.252ZM1325.84 244.236C1327.07 244.236 1328.05 243.807 1328.78 242.948C1329.51 242.071 1329.87 240.811 1329.87 239.168C1329.87 237.525 1329.51 236.275 1328.78 235.416C1328.05 234.557 1327.07 234.128 1325.84 234.128C1324.62 234.128 1323.64 234.557 1322.9 235.416C1322.17 236.275 1321.81 237.525 1321.81 239.168C1321.81 240.811 1322.17 242.071 1322.9 242.948C1323.64 243.807 1324.62 244.236 1325.84 244.236ZM1340.05 246.252C1338.59 246.252 1337.5 245.841 1336.77 245.02C1336.06 244.18 1335.71 242.976 1335.71 241.408V226.26H1338.26V241.212C1338.26 241.847 1338.34 242.388 1338.51 242.836C1338.7 243.265 1338.96 243.583 1339.29 243.788C1339.65 243.993 1340.09 244.096 1340.61 244.096C1340.82 244.096 1341.02 244.087 1341.23 244.068C1341.45 244.049 1341.66 244.012 1341.84 243.956L1341.79 246.028C1341.49 246.103 1341.19 246.159 1340.89 246.196C1340.61 246.233 1340.33 246.252 1340.05 246.252ZM1343.88 239.588V237.488H1351.84V239.588H1343.88ZM1355.89 251.04V232.364H1358.38V235.5H1358.1C1358.4 234.473 1358.99 233.652 1359.87 233.036C1360.74 232.42 1361.8 232.112 1363.03 232.112C1364.24 232.112 1365.3 232.401 1366.19 232.98C1367.09 233.54 1367.79 234.352 1368.29 235.416C1368.8 236.461 1369.05 237.712 1369.05 239.168C1369.05 240.605 1368.8 241.865 1368.29 242.948C1367.81 244.012 1367.11 244.833 1366.19 245.412C1365.3 245.972 1364.24 246.252 1363.03 246.252C1361.82 246.252 1360.77 245.944 1359.89 245.328C1359.02 244.712 1358.43 243.9 1358.13 242.892H1358.44V251.04H1355.89ZM1362.44 244.236C1363.67 244.236 1364.65 243.807 1365.38 242.948C1366.11 242.071 1366.47 240.811 1366.47 239.168C1366.47 237.525 1366.11 236.275 1365.38 235.416C1364.65 234.557 1363.67 234.128 1362.44 234.128C1361.21 234.128 1360.23 234.557 1359.5 235.416C1358.77 236.275 1358.41 237.525 1358.41 239.168C1358.41 240.811 1358.77 242.071 1359.5 242.948C1360.23 243.807 1361.21 244.236 1362.44 244.236ZM1376.66 246.252C1375.21 246.252 1374.12 245.841 1373.39 245.02C1372.68 244.18 1372.32 242.976 1372.32 241.408V226.26H1374.87V241.212C1374.87 241.847 1374.96 242.388 1375.12 242.836C1375.31 243.265 1375.57 243.583 1375.91 243.788C1376.26 243.993 1376.7 244.096 1377.22 244.096C1377.43 244.096 1377.63 244.087 1377.84 244.068C1378.06 244.049 1378.27 244.012 1378.46 243.956L1378.4 246.028C1378.1 246.103 1377.8 246.159 1377.5 246.196C1377.22 246.233 1376.94 246.252 1376.66 246.252ZM1385.09 246.252C1384.15 246.252 1383.3 246.065 1382.54 245.692C1381.79 245.319 1381.2 244.815 1380.77 244.18C1380.36 243.545 1380.16 242.836 1380.16 242.052C1380.16 241.044 1380.41 240.251 1380.91 239.672C1381.42 239.093 1382.27 238.683 1383.46 238.44C1384.66 238.179 1386.26 238.048 1388.28 238.048H1389.59V239.672H1388.33C1387.25 239.672 1386.35 239.709 1385.62 239.784C1384.89 239.859 1384.31 239.98 1383.88 240.148C1383.45 240.316 1383.14 240.549 1382.96 240.848C1382.77 241.128 1382.68 241.483 1382.68 241.912C1382.68 242.64 1382.93 243.237 1383.43 243.704C1383.96 244.171 1384.67 244.404 1385.56 244.404C1386.27 244.404 1386.9 244.236 1387.44 243.9C1387.98 243.545 1388.41 243.079 1388.73 242.5C1389.04 241.903 1389.2 241.221 1389.2 240.456V237.236C1389.2 236.135 1388.98 235.341 1388.53 234.856C1388.08 234.352 1387.33 234.1 1386.26 234.1C1385.48 234.1 1384.69 234.221 1383.91 234.464C1383.14 234.707 1382.35 235.08 1381.53 235.584L1380.72 233.764C1381.2 233.428 1381.75 233.139 1382.37 232.896C1383 232.635 1383.66 232.439 1384.33 232.308C1385.02 232.177 1385.68 232.112 1386.32 232.112C1387.53 232.112 1388.53 232.308 1389.31 232.7C1390.1 233.073 1390.69 233.661 1391.08 234.464C1391.47 235.248 1391.67 236.256 1391.67 237.488V246H1389.26V242.892H1389.51C1389.36 243.583 1389.08 244.18 1388.67 244.684C1388.26 245.188 1387.75 245.58 1387.13 245.86C1386.53 246.121 1385.85 246.252 1385.09 246.252ZM1395.67 246V232.364H1398.17V235.332H1397.86C1398.25 234.268 1398.89 233.465 1399.76 232.924C1400.66 232.383 1401.68 232.112 1402.81 232.112C1403.92 232.112 1404.82 232.308 1405.53 232.7C1406.24 233.092 1406.77 233.699 1407.13 234.52C1407.48 235.323 1407.66 236.331 1407.66 237.544V246H1405.11V237.684C1405.11 236.881 1405.01 236.219 1404.8 235.696C1404.6 235.173 1404.27 234.791 1403.82 234.548C1403.39 234.305 1402.84 234.184 1402.17 234.184C1401.39 234.184 1400.7 234.352 1400.1 234.688C1399.5 235.024 1399.03 235.5 1398.7 236.116C1398.38 236.732 1398.22 237.451 1398.22 238.272V246H1395.67ZM1418 246.252C1416.52 246.252 1415.25 245.972 1414.19 245.412C1413.14 244.833 1412.33 244.021 1411.75 242.976C1411.18 241.912 1410.89 240.661 1410.89 239.224C1410.89 237.805 1411.17 236.564 1411.73 235.5C1412.3 234.436 1413.09 233.605 1414.08 233.008C1415.09 232.411 1416.23 232.112 1417.52 232.112C1418.77 232.112 1419.84 232.383 1420.71 232.924C1421.61 233.465 1422.29 234.24 1422.76 235.248C1423.24 236.237 1423.49 237.432 1423.49 238.832V239.756H1412.87V238.132H1421.81L1421.33 238.524C1421.33 237.068 1421.01 235.948 1420.38 235.164C1419.74 234.361 1418.81 233.96 1417.58 233.96C1416.68 233.96 1415.92 234.175 1415.28 234.604C1414.65 235.015 1414.16 235.603 1413.83 236.368C1413.49 237.115 1413.32 237.983 1413.32 238.972V239.14C1413.32 240.26 1413.5 241.203 1413.85 241.968C1414.23 242.715 1414.76 243.284 1415.45 243.676C1416.14 244.049 1416.99 244.236 1418 244.236C1418.8 244.236 1419.58 244.115 1420.32 243.872C1421.09 243.611 1421.81 243.209 1422.48 242.668L1423.26 244.432C1422.65 244.992 1421.85 245.44 1420.88 245.776C1419.93 246.093 1418.97 246.252 1418 246.252ZM1433.93 251.04V232.364H1436.42V235.5H1436.14C1436.44 234.473 1437.03 233.652 1437.9 233.036C1438.78 232.42 1439.84 232.112 1441.07 232.112C1442.28 232.112 1443.34 232.401 1444.23 232.98C1445.13 233.54 1445.83 234.352 1446.33 235.416C1446.84 236.461 1447.09 237.712 1447.09 239.168C1447.09 240.605 1446.84 241.865 1446.33 242.948C1445.85 244.012 1445.15 244.833 1444.23 245.412C1443.34 245.972 1442.28 246.252 1441.07 246.252C1439.86 246.252 1438.81 245.944 1437.93 245.328C1437.06 244.712 1436.47 243.9 1436.17 242.892H1436.48V251.04H1433.93ZM1440.48 244.236C1441.71 244.236 1442.69 243.807 1443.42 242.948C1444.15 242.071 1444.51 240.811 1444.51 239.168C1444.51 237.525 1444.15 236.275 1443.42 235.416C1442.69 234.557 1441.71 234.128 1440.48 234.128C1439.25 234.128 1438.27 234.557 1437.54 235.416C1436.81 236.275 1436.45 237.525 1436.45 239.168C1436.45 240.811 1436.81 242.071 1437.54 242.948C1438.27 243.807 1439.25 244.236 1440.48 244.236ZM1450.36 246V232.364H1452.85V235.612H1452.57C1452.87 234.492 1453.41 233.652 1454.2 233.092C1454.98 232.513 1456.02 232.177 1457.31 232.084L1458.17 232L1458.37 234.212L1456.77 234.352C1455.54 234.483 1454.59 234.884 1453.92 235.556C1453.27 236.228 1452.94 237.152 1452.94 238.328V246H1450.36ZM1466.19 246.252C1464.85 246.252 1463.68 245.963 1462.69 245.384C1461.7 244.805 1460.94 243.984 1460.4 242.92C1459.86 241.856 1459.59 240.605 1459.59 239.168C1459.59 237.731 1459.86 236.489 1460.4 235.444C1460.94 234.38 1461.7 233.559 1462.69 232.98C1463.68 232.401 1464.85 232.112 1466.19 232.112C1467.54 232.112 1468.7 232.401 1469.69 232.98C1470.68 233.559 1471.45 234.38 1471.99 235.444C1472.53 236.489 1472.8 237.731 1472.8 239.168C1472.8 240.605 1472.53 241.856 1471.99 242.92C1471.45 243.984 1470.68 244.805 1469.69 245.384C1468.7 245.963 1467.54 246.252 1466.19 246.252ZM1466.19 244.236C1467.43 244.236 1468.41 243.807 1469.13 242.948C1469.86 242.071 1470.23 240.811 1470.23 239.168C1470.23 237.525 1469.86 236.275 1469.13 235.416C1468.41 234.557 1467.43 234.128 1466.19 234.128C1464.98 234.128 1464 234.557 1463.25 235.416C1462.53 236.275 1462.16 237.525 1462.16 239.168C1462.16 240.811 1462.53 242.071 1463.25 242.948C1464 243.807 1464.98 244.236 1466.19 244.236ZM1479.88 246L1474 232.364H1476.74L1481.47 244.012H1480.69L1485.51 232.364H1488.14L1482.2 246H1479.88ZM1490.09 229.088V226.344H1493.14V229.088H1490.09ZM1490.34 246V232.364H1492.89V246H1490.34ZM1502.19 246.252C1501 246.252 1499.94 245.972 1499.03 245.412C1498.13 244.833 1497.43 244.012 1496.93 242.948C1496.42 241.865 1496.17 240.605 1496.17 239.168C1496.17 237.712 1496.41 236.461 1496.9 235.416C1497.4 234.352 1498.1 233.54 1499 232.98C1499.91 232.401 1500.98 232.112 1502.19 232.112C1503.4 232.112 1504.45 232.42 1505.33 233.036C1506.2 233.633 1506.79 234.436 1507.09 235.444H1506.78V226.26H1509.33V246H1506.81V242.836H1507.09C1506.81 243.881 1506.22 244.712 1505.33 245.328C1504.45 245.944 1503.4 246.252 1502.19 246.252ZM1502.78 244.236C1504.01 244.236 1504.99 243.807 1505.72 242.948C1506.45 242.071 1506.81 240.811 1506.81 239.168C1506.81 237.525 1506.45 236.275 1505.72 235.416C1504.99 234.557 1504.01 234.128 1502.78 234.128C1501.57 234.128 1500.59 234.557 1499.84 235.416C1499.11 236.275 1498.75 237.525 1498.75 239.168C1498.75 240.811 1499.11 242.071 1499.84 242.948C1500.59 243.807 1501.57 244.236 1502.78 244.236ZM1519.72 246.252C1518.24 246.252 1516.97 245.972 1515.91 245.412C1514.86 244.833 1514.05 244.021 1513.47 242.976C1512.89 241.912 1512.61 240.661 1512.61 239.224C1512.61 237.805 1512.89 236.564 1513.45 235.5C1514.02 234.436 1514.81 233.605 1515.8 233.008C1516.81 232.411 1517.95 232.112 1519.24 232.112C1520.49 232.112 1521.56 232.383 1522.43 232.924C1523.33 233.465 1524.01 234.24 1524.48 235.248C1524.96 236.237 1525.21 237.432 1525.21 238.832V239.756H1514.59V238.132H1523.53L1523.05 238.524C1523.05 237.068 1522.73 235.948 1522.1 235.164C1521.46 234.361 1520.53 233.96 1519.3 233.96C1518.4 233.96 1517.64 234.175 1517 234.604C1516.37 235.015 1515.88 235.603 1515.55 236.368C1515.21 237.115 1515.04 237.983 1515.04 238.972V239.14C1515.04 240.26 1515.22 241.203 1515.57 241.968C1515.95 242.715 1516.48 243.284 1517.17 243.676C1517.86 244.049 1518.71 244.236 1519.72 244.236C1520.52 244.236 1521.29 244.115 1522.04 243.872C1522.81 243.611 1523.53 243.209 1524.2 242.668L1524.98 244.432C1524.37 244.992 1523.57 245.44 1522.6 245.776C1521.65 246.093 1520.69 246.252 1519.72 246.252ZM1528.37 246V232.364H1530.87V235.612H1530.59C1530.88 234.492 1531.43 233.652 1532.21 233.092C1532.99 232.513 1534.03 232.177 1535.32 232.084L1536.19 232L1536.38 234.212L1534.79 234.352C1533.55 234.483 1532.6 234.884 1531.93 235.556C1531.28 236.228 1530.95 237.152 1530.95 238.328V246H1528.37Z" fill="black"/>
<path d="M1092.64 556V536.26H1094.82L1102.69 551.016H1101.82L1109.66 536.26H1111.82V556H1109.47V539.872H1110.08L1103.06 552.976H1101.43L1094.32 539.844H1094.99V556H1092.64ZM1120.62 556.252C1119.69 556.252 1118.84 556.065 1118.07 555.692C1117.33 555.319 1116.74 554.815 1116.31 554.18C1115.9 553.545 1115.69 552.836 1115.69 552.052C1115.69 551.044 1115.95 550.251 1116.45 549.672C1116.95 549.093 1117.8 548.683 1119 548.44C1120.19 548.179 1121.8 548.048 1123.81 548.048H1125.13V549.672H1123.87C1122.79 549.672 1121.88 549.709 1121.15 549.784C1120.43 549.859 1119.85 549.98 1119.42 550.148C1118.99 550.316 1118.68 550.549 1118.49 550.848C1118.31 551.128 1118.21 551.483 1118.21 551.912C1118.21 552.64 1118.47 553.237 1118.97 553.704C1119.49 554.171 1120.2 554.404 1121.1 554.404C1121.81 554.404 1122.43 554.236 1122.97 553.9C1123.52 553.545 1123.94 553.079 1124.26 552.5C1124.58 551.903 1124.74 551.221 1124.74 550.456V547.236C1124.74 546.135 1124.51 545.341 1124.07 544.856C1123.62 544.352 1122.86 544.1 1121.8 544.1C1121.01 544.1 1120.23 544.221 1119.45 544.464C1118.68 544.707 1117.89 545.08 1117.07 545.584L1116.25 543.764C1116.74 543.428 1117.29 543.139 1117.91 542.896C1118.54 542.635 1119.19 542.439 1119.87 542.308C1120.56 542.177 1121.22 542.112 1121.85 542.112C1123.07 542.112 1124.07 542.308 1124.85 542.7C1125.63 543.073 1126.22 543.661 1126.61 544.464C1127.01 545.248 1127.2 546.256 1127.2 547.488V556H1124.79V552.892H1125.05C1124.9 553.583 1124.62 554.18 1124.21 554.684C1123.8 555.188 1123.28 555.58 1122.67 555.86C1122.07 556.121 1121.39 556.252 1120.62 556.252ZM1131.21 556V542.364H1133.7V545.332H1133.4C1133.79 544.268 1134.42 543.465 1135.3 542.924C1136.2 542.383 1137.21 542.112 1138.35 542.112C1139.45 542.112 1140.36 542.308 1141.07 542.7C1141.78 543.092 1142.31 543.699 1142.66 544.52C1143.02 545.323 1143.2 546.331 1143.2 547.544V556H1140.65V547.684C1140.65 546.881 1140.55 546.219 1140.34 545.696C1140.13 545.173 1139.81 544.791 1139.36 544.548C1138.93 544.305 1138.38 544.184 1137.71 544.184C1136.92 544.184 1136.23 544.352 1135.64 544.688C1135.04 545.024 1134.57 545.5 1134.24 546.116C1133.92 546.732 1133.76 547.451 1133.76 548.272V556H1131.21ZM1151.58 556.252C1150.64 556.252 1149.79 556.065 1149.03 555.692C1148.28 555.319 1147.69 554.815 1147.26 554.18C1146.85 553.545 1146.65 552.836 1146.65 552.052C1146.65 551.044 1146.9 550.251 1147.4 549.672C1147.91 549.093 1148.76 548.683 1149.95 548.44C1151.15 548.179 1152.75 548.048 1154.77 548.048H1156.08V549.672H1154.82C1153.74 549.672 1152.84 549.709 1152.11 549.784C1151.38 549.859 1150.8 549.98 1150.37 550.148C1149.94 550.316 1149.63 550.549 1149.45 550.848C1149.26 551.128 1149.17 551.483 1149.17 551.912C1149.17 552.64 1149.42 553.237 1149.92 553.704C1150.45 554.171 1151.16 554.404 1152.05 554.404C1152.76 554.404 1153.39 554.236 1153.93 553.9C1154.47 553.545 1154.9 553.079 1155.22 552.5C1155.53 551.903 1155.69 551.221 1155.69 550.456V547.236C1155.69 546.135 1155.47 545.341 1155.02 544.856C1154.57 544.352 1153.82 544.1 1152.75 544.1C1151.97 544.1 1151.18 544.221 1150.4 544.464C1149.63 544.707 1148.84 545.08 1148.02 545.584L1147.21 543.764C1147.69 543.428 1148.24 543.139 1148.86 542.896C1149.49 542.635 1150.15 542.439 1150.82 542.308C1151.51 542.177 1152.17 542.112 1152.81 542.112C1154.02 542.112 1155.02 542.308 1155.8 542.7C1156.59 543.073 1157.18 543.661 1157.57 544.464C1157.96 545.248 1158.16 546.256 1158.16 547.488V556H1155.75V552.892H1156C1155.85 553.583 1155.57 554.18 1155.16 554.684C1154.75 555.188 1154.24 555.58 1153.62 555.86C1153.02 556.121 1152.34 556.252 1151.58 556.252ZM1168.3 561.292C1167.08 561.292 1165.95 561.143 1164.91 560.844C1163.86 560.545 1162.93 560.088 1162.11 559.472L1162.92 557.624C1163.48 557.997 1164.03 558.305 1164.57 558.548C1165.13 558.809 1165.7 558.996 1166.28 559.108C1166.88 559.22 1167.49 559.276 1168.13 559.276C1169.45 559.276 1170.44 558.931 1171.1 558.24C1171.77 557.568 1172.11 556.579 1172.11 555.272V552.248H1172.36C1172.1 553.293 1171.51 554.124 1170.59 554.74C1169.7 555.356 1168.65 555.664 1167.46 555.664C1166.23 555.664 1165.15 555.384 1164.24 554.824C1163.32 554.245 1162.61 553.452 1162.11 552.444C1161.61 551.417 1161.35 550.232 1161.35 548.888C1161.35 547.525 1161.61 546.34 1162.11 545.332C1162.61 544.305 1163.32 543.512 1164.24 542.952C1165.15 542.392 1166.23 542.112 1167.46 542.112C1168.67 542.112 1169.73 542.42 1170.62 543.036C1171.52 543.652 1172.1 544.483 1172.36 545.528H1172.11V542.364H1174.6V554.936C1174.6 556.336 1174.35 557.512 1173.87 558.464C1173.4 559.416 1172.7 560.125 1171.77 560.592C1170.84 561.059 1169.68 561.292 1168.3 561.292ZM1168.02 553.648C1169.27 553.648 1170.26 553.219 1170.99 552.36C1171.71 551.501 1172.08 550.344 1172.08 548.888C1172.08 547.413 1171.71 546.256 1170.99 545.416C1170.26 544.557 1169.27 544.128 1168.02 544.128C1166.77 544.128 1165.77 544.557 1165.02 545.416C1164.29 546.256 1163.93 547.413 1163.93 548.888C1163.93 550.344 1164.29 551.501 1165.02 552.36C1165.77 553.219 1166.77 553.648 1168.02 553.648ZM1184.98 556.252C1183.51 556.252 1182.24 555.972 1181.17 555.412C1180.13 554.833 1179.32 554.021 1178.74 552.976C1178.16 551.912 1177.87 550.661 1177.87 549.224C1177.87 547.805 1178.15 546.564 1178.71 545.5C1179.29 544.436 1180.07 543.605 1181.06 543.008C1182.07 542.411 1183.22 542.112 1184.5 542.112C1185.76 542.112 1186.82 542.383 1187.7 542.924C1188.59 543.465 1189.27 544.24 1189.74 545.248C1190.23 546.237 1190.47 547.432 1190.47 548.832V549.756H1179.86V548.132H1188.79L1188.31 548.524C1188.31 547.068 1188 545.948 1187.36 545.164C1186.73 544.361 1185.79 543.96 1184.56 543.96C1183.66 543.96 1182.9 544.175 1182.26 544.604C1181.63 545.015 1181.14 545.603 1180.81 546.368C1180.47 547.115 1180.3 547.983 1180.3 548.972V549.14C1180.3 550.26 1180.48 551.203 1180.84 551.968C1181.21 552.715 1181.74 553.284 1182.43 553.676C1183.12 554.049 1183.97 554.236 1184.98 554.236C1185.78 554.236 1186.56 554.115 1187.3 553.872C1188.07 553.611 1188.79 553.209 1189.46 552.668L1190.24 554.432C1189.63 554.992 1188.84 555.44 1187.86 555.776C1186.91 556.093 1185.95 556.252 1184.98 556.252ZM1198.85 556.252C1197.65 556.252 1196.6 555.972 1195.68 555.412C1194.79 554.833 1194.09 554.012 1193.58 552.948C1193.08 551.865 1192.83 550.605 1192.83 549.168C1192.83 547.712 1193.07 546.461 1193.55 545.416C1194.06 544.352 1194.76 543.54 1195.65 542.98C1196.57 542.401 1197.63 542.112 1198.85 542.112C1200.06 542.112 1201.1 542.42 1201.98 543.036C1202.86 543.633 1203.45 544.436 1203.75 545.444H1203.44V536.26H1205.99V556H1203.47V552.836H1203.75C1203.47 553.881 1202.88 554.712 1201.98 555.328C1201.1 555.944 1200.06 556.252 1198.85 556.252ZM1199.43 554.236C1200.67 554.236 1201.65 553.807 1202.37 552.948C1203.1 552.071 1203.47 550.811 1203.47 549.168C1203.47 547.525 1203.1 546.275 1202.37 545.416C1201.65 544.557 1200.67 544.128 1199.43 544.128C1198.22 544.128 1197.24 544.557 1196.49 545.416C1195.77 546.275 1195.4 547.525 1195.4 549.168C1195.4 550.811 1195.77 552.071 1196.49 552.948C1197.24 553.807 1198.22 554.236 1199.43 554.236ZM1224.48 556.252C1223.25 556.252 1222.2 555.944 1221.32 555.328C1220.44 554.712 1219.86 553.881 1219.56 552.836H1219.84V556H1217.34V536.26H1219.89V545.444H1219.58C1219.88 544.436 1220.47 543.633 1221.35 543.036C1222.23 542.42 1223.27 542.112 1224.48 542.112C1225.7 542.112 1226.75 542.401 1227.65 542.98C1228.56 543.54 1229.26 544.352 1229.75 545.416C1230.25 546.461 1230.5 547.712 1230.5 549.168C1230.5 550.605 1230.25 551.865 1229.75 552.948C1229.24 554.012 1228.54 554.833 1227.65 555.412C1226.75 555.972 1225.7 556.252 1224.48 556.252ZM1223.9 554.236C1225.13 554.236 1226.11 553.807 1226.84 552.948C1227.56 552.071 1227.93 550.811 1227.93 549.168C1227.93 547.525 1227.56 546.275 1226.84 545.416C1226.11 544.557 1225.13 544.128 1223.9 544.128C1222.66 544.128 1221.68 544.557 1220.96 545.416C1220.23 546.275 1219.86 547.525 1219.86 549.168C1219.86 550.811 1220.23 552.071 1220.96 552.948C1221.68 553.807 1222.66 554.236 1223.9 554.236ZM1235.07 561.04L1237.68 555.188V556.252L1231.71 542.364H1234.46L1239.19 554.012H1238.4L1243.22 542.364H1245.85L1237.73 561.04H1235.07ZM1255.05 539.088V536.344H1258.1V539.088H1255.05ZM1255.3 556V542.364H1257.85V556H1255.3ZM1261.94 556V542.364H1264.43V545.332H1264.13C1264.52 544.268 1265.15 543.465 1266.03 542.924C1266.93 542.383 1267.94 542.112 1269.08 542.112C1270.18 542.112 1271.09 542.308 1271.8 542.7C1272.51 543.092 1273.04 543.699 1273.39 544.52C1273.75 545.323 1273.93 546.331 1273.93 547.544V556H1271.38V547.684C1271.38 546.881 1271.28 546.219 1271.07 545.696C1270.87 545.173 1270.54 544.791 1270.09 544.548C1269.66 544.305 1269.11 544.184 1268.44 544.184C1267.65 544.184 1266.96 544.352 1266.37 544.688C1265.77 545.024 1265.3 545.5 1264.97 546.116C1264.65 546.732 1264.49 547.451 1264.49 548.272V556H1261.94ZM1278.75 556V544.324H1276.09V542.364H1279.45L1278.75 543.036V542C1278.75 540.152 1279.22 538.761 1280.15 537.828C1281.08 536.876 1282.52 536.344 1284.46 536.232L1285.61 536.148L1285.81 538.108L1284.52 538.192C1283.75 538.229 1283.14 538.388 1282.67 538.668C1282.2 538.929 1281.86 539.312 1281.63 539.816C1281.41 540.301 1281.3 540.917 1281.3 541.664V542.784L1280.93 542.364H1285.16V544.324H1281.3V556H1278.75ZM1287.48 556V542.364H1289.97V545.612H1289.69C1289.99 544.492 1290.53 543.652 1291.32 543.092C1292.1 542.513 1293.14 542.177 1294.43 542.084L1295.29 542L1295.49 544.212L1293.89 544.352C1292.66 544.483 1291.71 544.884 1291.04 545.556C1290.38 546.228 1290.06 547.152 1290.06 548.328V556H1287.48ZM1301.91 556.252C1300.98 556.252 1300.13 556.065 1299.36 555.692C1298.62 555.319 1298.03 554.815 1297.6 554.18C1297.19 553.545 1296.98 552.836 1296.98 552.052C1296.98 551.044 1297.24 550.251 1297.74 549.672C1298.24 549.093 1299.09 548.683 1300.29 548.44C1301.48 548.179 1303.09 548.048 1305.1 548.048H1306.42V549.672H1305.16C1304.08 549.672 1303.17 549.709 1302.44 549.784C1301.72 549.859 1301.14 549.98 1300.71 550.148C1300.28 550.316 1299.97 550.549 1299.78 550.848C1299.6 551.128 1299.5 551.483 1299.5 551.912C1299.5 552.64 1299.76 553.237 1300.26 553.704C1300.78 554.171 1301.49 554.404 1302.39 554.404C1303.1 554.404 1303.72 554.236 1304.26 553.9C1304.8 553.545 1305.23 553.079 1305.55 552.5C1305.87 551.903 1306.03 551.221 1306.03 550.456V547.236C1306.03 546.135 1305.8 545.341 1305.36 544.856C1304.91 544.352 1304.15 544.1 1303.09 544.1C1302.3 544.1 1301.52 544.221 1300.74 544.464C1299.97 544.707 1299.18 545.08 1298.36 545.584L1297.54 543.764C1298.03 543.428 1298.58 543.139 1299.2 542.896C1299.83 542.635 1300.48 542.439 1301.16 542.308C1301.85 542.177 1302.51 542.112 1303.14 542.112C1304.36 542.112 1305.36 542.308 1306.14 542.7C1306.92 543.073 1307.51 543.661 1307.9 544.464C1308.3 545.248 1308.49 546.256 1308.49 547.488V556H1306.08V552.892H1306.34C1306.19 553.583 1305.91 554.18 1305.5 554.684C1305.08 555.188 1304.57 555.58 1303.96 555.86C1303.36 556.121 1302.68 556.252 1301.91 556.252ZM1317.21 556.252C1316.5 556.252 1315.8 556.187 1315.11 556.056C1314.43 555.925 1313.81 555.739 1313.23 555.496C1312.67 555.235 1312.17 554.927 1311.75 554.572L1312.5 552.808C1312.95 553.144 1313.43 553.433 1313.96 553.676C1314.48 553.9 1315.02 554.068 1315.58 554.18C1316.14 554.292 1316.7 554.348 1317.26 554.348C1318.29 554.348 1319.06 554.161 1319.59 553.788C1320.11 553.415 1320.37 552.92 1320.37 552.304C1320.37 551.781 1320.19 551.38 1319.84 551.1C1319.5 550.801 1318.97 550.577 1318.24 550.428L1315.64 549.896C1314.48 549.635 1313.6 549.205 1313.01 548.608C1312.43 547.992 1312.14 547.208 1312.14 546.256C1312.14 545.416 1312.36 544.688 1312.81 544.072C1313.28 543.437 1313.92 542.952 1314.74 542.616C1315.56 542.28 1316.51 542.112 1317.57 542.112C1318.2 542.112 1318.82 542.177 1319.42 542.308C1320.01 542.439 1320.57 542.625 1321.1 542.868C1321.62 543.111 1322.06 543.428 1322.41 543.82L1321.63 545.556C1321.27 545.22 1320.87 544.94 1320.43 544.716C1319.98 544.492 1319.51 544.324 1319.03 544.212C1318.54 544.081 1318.05 544.016 1317.57 544.016C1316.56 544.016 1315.8 544.212 1315.27 544.604C1314.77 544.996 1314.52 545.509 1314.52 546.144C1314.52 546.629 1314.67 547.031 1314.97 547.348C1315.28 547.665 1315.78 547.899 1316.45 548.048L1319.05 548.58C1320.27 548.841 1321.18 549.261 1321.8 549.84C1322.41 550.4 1322.72 551.165 1322.72 552.136C1322.72 552.995 1322.49 553.732 1322.02 554.348C1321.57 554.964 1320.93 555.44 1320.09 555.776C1319.27 556.093 1318.31 556.252 1317.21 556.252ZM1331.56 556.252C1329.89 556.252 1328.65 555.823 1327.83 554.964C1327.01 554.087 1326.6 552.836 1326.6 551.212V544.324H1323.94V542.364H1326.6V538.22H1329.15V542.364H1333.43V544.324H1329.15V550.988C1329.15 552.015 1329.36 552.789 1329.79 553.312C1330.22 553.835 1330.93 554.096 1331.92 554.096C1332.22 554.096 1332.51 554.068 1332.79 554.012C1333.09 553.937 1333.37 553.863 1333.63 553.788L1334.05 555.692C1333.79 555.86 1333.41 555.991 1332.93 556.084C1332.46 556.196 1332 556.252 1331.56 556.252ZM1335.93 556V542.364H1338.43V545.612H1338.15C1338.45 544.492 1338.99 543.652 1339.77 543.092C1340.55 542.513 1341.59 542.177 1342.88 542.084L1343.75 542L1343.94 544.212L1342.35 544.352C1341.11 544.483 1340.16 544.884 1339.49 545.556C1338.84 546.228 1338.51 547.152 1338.51 548.328V556H1335.93ZM1351.03 556.252C1349.93 556.252 1349.01 556.047 1348.26 555.636C1347.53 555.225 1346.99 554.619 1346.64 553.816C1346.28 553.013 1346.11 552.005 1346.11 550.792V542.364H1348.65V550.792C1348.65 551.557 1348.76 552.192 1348.96 552.696C1349.17 553.2 1349.48 553.573 1349.91 553.816C1350.36 554.059 1350.92 554.18 1351.59 554.18C1352.34 554.18 1352.99 554.012 1353.55 553.676C1354.11 553.34 1354.55 552.864 1354.87 552.248C1355.19 551.632 1355.35 550.913 1355.35 550.092V542.364H1357.89V556H1355.4V552.92H1355.77C1355.39 554.003 1354.79 554.833 1353.95 555.412C1353.12 555.972 1352.15 556.252 1351.03 556.252ZM1367.9 556.252C1366.52 556.252 1365.33 555.963 1364.32 555.384C1363.31 554.787 1362.53 553.956 1361.99 552.892C1361.45 551.809 1361.18 550.54 1361.18 549.084C1361.18 547.647 1361.45 546.405 1361.99 545.36C1362.53 544.315 1363.31 543.512 1364.32 542.952C1365.33 542.392 1366.52 542.112 1367.9 542.112C1368.76 542.112 1369.6 542.261 1370.42 542.56C1371.26 542.859 1371.95 543.279 1372.49 543.82L1371.65 545.612C1371.11 545.127 1370.52 544.763 1369.89 544.52C1369.25 544.277 1368.65 544.156 1368.07 544.156C1366.71 544.156 1365.65 544.585 1364.91 545.444C1364.16 546.303 1363.79 547.525 1363.79 549.112C1363.79 550.699 1364.16 551.949 1364.91 552.864C1365.65 553.76 1366.71 554.208 1368.07 554.208C1368.65 554.208 1369.25 554.087 1369.89 553.844C1370.52 553.601 1371.11 553.228 1371.65 552.724L1372.49 554.544C1371.95 555.085 1371.25 555.505 1370.39 555.804C1369.55 556.103 1368.72 556.252 1367.9 556.252ZM1380.69 556.252C1379.03 556.252 1377.79 555.823 1376.97 554.964C1376.15 554.087 1375.74 552.836 1375.74 551.212V544.324H1373.08V542.364H1375.74V538.22H1378.28V542.364H1382.57V544.324H1378.28V550.988C1378.28 552.015 1378.5 552.789 1378.93 553.312C1379.36 553.835 1380.07 554.096 1381.06 554.096C1381.35 554.096 1381.64 554.068 1381.92 554.012C1382.22 553.937 1382.5 553.863 1382.76 553.788L1383.18 555.692C1382.92 555.86 1382.55 555.991 1382.06 556.084C1381.6 556.196 1381.14 556.252 1380.69 556.252ZM1389.94 556.252C1388.84 556.252 1387.92 556.047 1387.17 555.636C1386.44 555.225 1385.9 554.619 1385.55 553.816C1385.19 553.013 1385.02 552.005 1385.02 550.792V542.364H1387.56V550.792C1387.56 551.557 1387.67 552.192 1387.87 552.696C1388.08 553.2 1388.39 553.573 1388.82 553.816C1389.27 554.059 1389.83 554.18 1390.5 554.18C1391.25 554.18 1391.9 554.012 1392.46 553.676C1393.02 553.34 1393.46 552.864 1393.78 552.248C1394.1 551.632 1394.26 550.913 1394.26 550.092V542.364H1396.8V556H1394.31V552.92H1394.68C1394.3 554.003 1393.7 554.833 1392.86 555.412C1392.03 555.972 1391.06 556.252 1389.94 556.252ZM1400.9 556V542.364H1403.4V545.612H1403.12C1403.41 544.492 1403.96 543.652 1404.74 543.092C1405.52 542.513 1406.56 542.177 1407.85 542.084L1408.72 542L1408.91 544.212L1407.32 544.352C1406.08 544.483 1405.13 544.884 1404.46 545.556C1403.81 546.228 1403.48 547.152 1403.48 548.328V556H1400.9ZM1417.24 556.252C1415.76 556.252 1414.49 555.972 1413.43 555.412C1412.39 554.833 1411.57 554.021 1410.99 552.976C1410.42 551.912 1410.13 550.661 1410.13 549.224C1410.13 547.805 1410.41 546.564 1410.97 545.5C1411.55 544.436 1412.33 543.605 1413.32 543.008C1414.33 542.411 1415.47 542.112 1416.76 542.112C1418.01 542.112 1419.08 542.383 1419.95 542.924C1420.85 543.465 1421.53 544.24 1422 545.248C1422.48 546.237 1422.73 547.432 1422.73 548.832V549.756H1412.11V548.132H1421.05L1420.57 548.524C1420.57 547.068 1420.25 545.948 1419.62 545.164C1418.98 544.361 1418.05 543.96 1416.82 543.96C1415.92 543.96 1415.16 544.175 1414.52 544.604C1413.89 545.015 1413.4 545.603 1413.07 546.368C1412.73 547.115 1412.56 547.983 1412.56 548.972V549.14C1412.56 550.26 1412.74 551.203 1413.09 551.968C1413.47 552.715 1414 553.284 1414.69 553.676C1415.38 554.049 1416.23 554.236 1417.24 554.236C1418.04 554.236 1418.82 554.115 1419.56 553.872C1420.33 553.611 1421.05 553.209 1421.72 552.668L1422.5 554.432C1421.89 554.992 1421.09 555.44 1420.12 555.776C1419.17 556.093 1418.21 556.252 1417.24 556.252ZM1433.17 561.04V542.364H1435.66V545.5H1435.38C1435.68 544.473 1436.27 543.652 1437.15 543.036C1438.02 542.42 1439.08 542.112 1440.31 542.112C1441.52 542.112 1442.58 542.401 1443.47 542.98C1444.37 543.54 1445.07 544.352 1445.57 545.416C1446.08 546.461 1446.33 547.712 1446.33 549.168C1446.33 550.605 1446.08 551.865 1445.57 552.948C1445.09 554.012 1444.39 554.833 1443.47 555.412C1442.58 555.972 1441.52 556.252 1440.31 556.252C1439.1 556.252 1438.05 555.944 1437.17 555.328C1436.3 554.712 1435.71 553.9 1435.41 552.892H1435.72V561.04H1433.17ZM1439.72 554.236C1440.95 554.236 1441.93 553.807 1442.66 552.948C1443.39 552.071 1443.75 550.811 1443.75 549.168C1443.75 547.525 1443.39 546.275 1442.66 545.416C1441.93 544.557 1440.95 544.128 1439.72 544.128C1438.49 544.128 1437.51 544.557 1436.78 545.416C1436.05 546.275 1435.69 547.525 1435.69 549.168C1435.69 550.811 1436.05 552.071 1436.78 552.948C1437.51 553.807 1438.49 554.236 1439.72 554.236ZM1449.6 556V542.364H1452.09V545.612H1451.81C1452.11 544.492 1452.65 543.652 1453.44 543.092C1454.22 542.513 1455.26 542.177 1456.55 542.084L1457.41 542L1457.61 544.212L1456.01 544.352C1454.78 544.483 1453.83 544.884 1453.16 545.556C1452.51 546.228 1452.18 547.152 1452.18 548.328V556H1449.6ZM1465.43 556.252C1464.09 556.252 1462.92 555.963 1461.93 555.384C1460.94 554.805 1460.18 553.984 1459.64 552.92C1459.1 551.856 1458.83 550.605 1458.83 549.168C1458.83 547.731 1459.1 546.489 1459.64 545.444C1460.18 544.38 1460.94 543.559 1461.93 542.98C1462.92 542.401 1464.09 542.112 1465.43 542.112C1466.78 542.112 1467.94 542.401 1468.93 542.98C1469.92 543.559 1470.69 544.38 1471.23 545.444C1471.77 546.489 1472.04 547.731 1472.04 549.168C1472.04 550.605 1471.77 551.856 1471.23 552.92C1470.69 553.984 1469.92 554.805 1468.93 555.384C1467.94 555.963 1466.78 556.252 1465.43 556.252ZM1465.43 554.236C1466.67 554.236 1467.65 553.807 1468.37 552.948C1469.1 552.071 1469.47 550.811 1469.47 549.168C1469.47 547.525 1469.1 546.275 1468.37 545.416C1467.65 544.557 1466.67 544.128 1465.43 544.128C1464.22 544.128 1463.24 544.557 1462.49 545.416C1461.77 546.275 1461.4 547.525 1461.4 549.168C1461.4 550.811 1461.77 552.071 1462.49 552.948C1463.24 553.807 1464.22 554.236 1465.43 554.236ZM1479.12 556L1473.24 542.364H1475.98L1480.71 554.012H1479.93L1484.75 542.364H1487.38L1481.44 556H1479.12ZM1489.33 539.088V536.344H1492.38V539.088H1489.33ZM1489.58 556V542.364H1492.13V556H1489.58ZM1501.43 556.252C1500.24 556.252 1499.18 555.972 1498.27 555.412C1497.37 554.833 1496.67 554.012 1496.17 552.948C1495.66 551.865 1495.41 550.605 1495.41 549.168C1495.41 547.712 1495.65 546.461 1496.14 545.416C1496.64 544.352 1497.34 543.54 1498.24 542.98C1499.15 542.401 1500.22 542.112 1501.43 542.112C1502.65 542.112 1503.69 542.42 1504.57 543.036C1505.45 543.633 1506.03 544.436 1506.33 545.444H1506.02V536.26H1508.57V556H1506.05V552.836H1506.33C1506.05 553.881 1505.46 554.712 1504.57 555.328C1503.69 555.944 1502.65 556.252 1501.43 556.252ZM1502.02 554.236C1503.25 554.236 1504.23 553.807 1504.96 552.948C1505.69 552.071 1506.05 550.811 1506.05 549.168C1506.05 547.525 1505.69 546.275 1504.96 545.416C1504.23 544.557 1503.25 544.128 1502.02 544.128C1500.81 544.128 1499.83 544.557 1499.08 545.416C1498.35 546.275 1497.99 547.525 1497.99 549.168C1497.99 550.811 1498.35 552.071 1499.08 552.948C1499.83 553.807 1500.81 554.236 1502.02 554.236ZM1518.96 556.252C1517.48 556.252 1516.21 555.972 1515.15 555.412C1514.1 554.833 1513.29 554.021 1512.71 552.976C1512.13 551.912 1511.85 550.661 1511.85 549.224C1511.85 547.805 1512.13 546.564 1512.69 545.5C1513.26 544.436 1514.05 543.605 1515.04 543.008C1516.05 542.411 1517.19 542.112 1518.48 542.112C1519.73 542.112 1520.8 542.383 1521.67 542.924C1522.57 543.465 1523.25 544.24 1523.72 545.248C1524.2 546.237 1524.45 547.432 1524.45 548.832V549.756H1513.83V548.132H1522.77L1522.29 548.524C1522.29 547.068 1521.97 545.948 1521.34 545.164C1520.7 544.361 1519.77 543.96 1518.54 543.96C1517.64 543.96 1516.88 544.175 1516.24 544.604C1515.61 545.015 1515.12 545.603 1514.79 546.368C1514.45 547.115 1514.28 547.983 1514.28 548.972V549.14C1514.28 550.26 1514.46 551.203 1514.81 551.968C1515.19 552.715 1515.72 553.284 1516.41 553.676C1517.1 554.049 1517.95 554.236 1518.96 554.236C1519.76 554.236 1520.53 554.115 1521.28 553.872C1522.05 553.611 1522.77 553.209 1523.44 552.668L1524.22 554.432C1523.61 554.992 1522.81 555.44 1521.84 555.776C1520.89 556.093 1519.93 556.252 1518.96 556.252ZM1527.61 556V542.364H1530.11V545.612H1529.83C1530.12 544.492 1530.67 543.652 1531.45 543.092C1532.23 542.513 1533.27 542.177 1534.56 542.084L1535.43 542L1535.62 544.212L1534.03 544.352C1532.79 544.483 1531.84 544.884 1531.17 545.556C1530.52 546.228 1530.19 547.152 1530.19 548.328V556H1527.61Z" fill="black"/>
<path d="M1039.29 236.293C1038.9 236.683 1038.9 237.317 1039.29 237.707L1045.66 244.071C1046.05 244.462 1046.68 244.462 1047.07 244.071C1047.46 243.681 1047.46 243.047 1047.07 242.657L1041.41 237L1047.07 231.343C1047.46 230.953 1047.46 230.319 1047.07 229.929C1046.68 229.538 1046.05 229.538 1045.66 229.929L1039.29 236.293ZM1040 238H1086V236H1040V238Z" fill="#292449"/>
<path d="M1039.29 546.293C1038.9 546.683 1038.9 547.317 1039.29 547.707L1045.66 554.071C1046.05 554.462 1046.68 554.462 1047.07 554.071C1047.46 553.681 1047.46 553.047 1047.07 552.657L1041.41 547L1047.07 541.343C1047.46 540.953 1047.46 540.319 1047.07 539.929C1046.68 539.538 1046.05 539.538 1045.66 539.929L1039.29 546.293ZM1040 548H1086V546H1040V548Z" fill="#292449"/>
<defs>
<linearGradient id="paint0_linear_466_159" x1="50" y1="269" x2="302.219" y2="561.633" gradientUnits="userSpaceOnUse">
<stop stop-color="#0185FF"/>
<stop offset="1" stop-color="#01CDFF"/>
</linearGradient>
<linearGradient id="paint1_linear_466_159" x1="611" y1="182" x2="703.683" y2="397.068" gradientUnits="userSpaceOnUse">
<stop stop-color="#0185FF"/>
<stop offset="1" stop-color="#01CDFF"/>
</linearGradient>
<linearGradient id="paint2_linear_466_159" x1="611" y1="492" x2="703.683" y2="707.068" gradientUnits="userSpaceOnUse">
<stop stop-color="#0185FF"/>
<stop offset="1" stop-color="#01CDFF"/>
</linearGradient>
</defs>
</svg>
