<svg version="1.1" id="GN_Flat_PMS" xmlns="http://www.w3.org/2000/svg" xmlns:xlink="http://www.w3.org/1999/xlink" x="0px" y="0px" viewBox="0 0 528 105" width="223.25536" height="134.51135" style="enable-background:new 0 0 528 105;" xml:space="preserve">
 <style type="text/css">
  .st0{fill:#76BC21;}
	.st1{fill:#0075C9;}
	.st2{fill:#FFFFFF;}
 </style>
 <g>
  <g>
   <path class="st0" d="M334.5,14h-11.8v54.1L294.3,20c-2.3-3.7-5.7-6-10.4-6h-10.2v78.2c0,3.1,2.3,5.4,5.4,5.4h11.8V44.5l27.5,47.2
			c2.2,3.7,5.7,6,10.4,6h11.1V70.3v-0.7c-0.1-0.3-0.2-0.6-0.2-0.8c-1.2-4.2-1.9-8.7-1.9-13.3c0-4.6,0.7-9.1,1.9-13.3
			c0.1-0.3,0.2-0.6,0.2-0.8v-0.7V19.4C339.9,16.3,337.6,14,334.5,14z">
   </path>
   <path class="st0" d="M515.3,14h-11.8l-11.8,51.6L480,22.1c-1.2-4.5-5.1-8.1-10.2-8.1h-6.7l-14,51.6l-11-47.3
			c-0.6-2.6-3.1-4.3-5.7-4.3h-13l3.9,15.5l0.2,0.7c0.1,0.2,0.3,0.4,0.4,0.7c4.4,7.1,7,15.6,7,24.6c0,0.9,0,1.9-0.1,2.8
			c0,0.3,0,0.5-0.1,0.8l0.2,0.7l7.8,30.9c1.1,4.1,5,6.9,9.7,6.9h7.8l14.2-52l12.3,45.1c1.1,4.1,5.1,6.9,9.8,6.9h7.8l19.5-77.1
			C521.1,15.4,519.6,14,515.3,14z">
   </path>
  </g>
  <g>
   <g>
    <path class="st1" d="M232.7,29.9h28.8c1.5,0,3-0.9,3.7-2.2l5.9-13.6h-45.8c-5.4,0-9.8,4.4-9.8,9.8v70.6L211,84
				c-0.5-1-1.7-2.2-3.5-2.2h-30V19.5c0-3-2.4-5.4-5.4-5.4h-11.8v13.1c3.8,7.7,4.5,14.8,4.6,17.3c-5-17.8-21.1-31.3-41.2-31.3
				c-23.2,0-39.8,17.5-42.3,36.6h-23c-2.1,0-3.1,1.5-3.4,2.1l-5.5,12.5h25.8c-2.7,9.4-11.4,18.6-24.6,18.6
				c-14.4,0-25.7-11.9-25.7-27c0-15.2,11.4-27,26-27c5.9,0,12.7,2.5,18.7,6.8c2.3,1.6,4.4-0.3,4.8-1l6-10.4c-4.4-3.9-14.8-11-29-11
				c-24.5,0-43.6,18.7-43.6,42.6c0,23.6,19.2,42.9,42.8,42.9c19.9,0,37.5-14.2,41.8-33.8c0,0,0.7,7.6-2.8,16.7
				c8.2,10.9,20.6,17.1,34.3,17.1c17.5,0,30.2-10.1,36.6-20.5v9.8c0,5.4,4.4,9.8,9.8,9.8h57.3c3,0,5.4-2.4,5.4-5.4V64.4l24.5,0
				c1.5,0,3-0.9,3.7-2.2l5.4-12.4h-33.6V29.9z M123.6,82.9c-14,0-25.5-12.1-25.5-27c0-14.9,11.4-27,25.5-27c14,0,25.5,12.1,25.5,27
				C149.1,70.8,137.6,82.9,123.6,82.9z">
    </path>
   </g>
  </g>
  <g>
   <g>
    <path class="st1" d="M414.1,25.8c-16.3-16.3-42.8-16.3-59.2,0c-16.3,16.3-16.3,42.8,0,59.2c16.3,16.3,42.8,16.3,59.2,0
				C430.5,68.7,430.5,42.2,414.1,25.8z">
    </path>
    <g>
     <path class="st2" d="M416.1,61c-1.2-0.5-1.4-0.1-2,0c-0.6,0-1.5-0.2-2,0c-0.5,0.1-0.6,0.2-2,0.7c-1.4,0.5-2.3,0.8-2.3,0.8
					s-0.9,0.4-0.2-0.8c0.7-1.1-1.3-1.9-1.5-1.9c-0.2,0-1.1,0.1-1.3,0.1c-0.2-0.1-0.7-0.4-1.2-0.1c-0.5,0.3-0.8,1.3-1.5,1
					c-0.6-0.3-1-0.2-1.7-0.5c-0.7-0.3-1.8-0.3-2.2-0.6c-0.5-0.3-0.5-0.7-1.5,0c-1,0.6-0.7,1.4-1.5,1.2c-0.8-0.1-0.3,0.1-1.3-0.5
					c-0.9-0.6-1.1-0.7-1.1,0.1c0,0.8,0.2,1.5-0.2,1.3c-0.4-0.2-0.4-1.2-0.8-1.1c-0.4,0.1,0.4,0.3-0.5,0.9c-0.9,0.5-1.1,2.1-1.7,2.5
					c-0.6,0.4,0.4,1.3-1.5,0.5c-1.9-0.8-2.4,1.3-2.4,1.3s-0.2,0.4-0.8-0.1c-0.5-0.5-0.9-0.9-1.2-1.4c-0.3-0.5-0.6,0-0.3-0.8
					c0.3-0.8,0.8-0.9,0-1.4c-0.9-0.6-1.2-0.8-1.4-0.7c-0.2,0.1-0.2,0.4-0.8,0.7c-0.5,0.3-0.7,0.6-1,0.3c-0.4-0.4-0.4-0.2-0.3-0.7
					c0.1-0.4,0.6-2,0.6-2s0.1-1.1-0.3-1.1c-0.4-0.1-0.9-0.1-1.2,0.2c-0.2,0.3-0.7,1.4-0.9,2c-0.2,0.6-1.1,0.9-1.1,0.9
					s-0.8,0.4-1.5-0.3c-0.8-0.7-1.8-1.4-1.9-1.8c-0.1-0.4-0.4-0.8-0.4-1.2c0.1-0.4,0.3-0.8,0.4-0.9c0-0.1,0-0.5-0.1-0.6
					c-0.1-0.1,0.1-2.4,0.1-2.4s1.2-1,2.3-0.8c1.1,0.1,1.4,1.3,1.3,0c-0.1-1.4,0.5-1.4,1.2-1.4c0.7,0,1-0.3,1.4,0
					c0.4,0.2,0.9,1.2,1.1,1.4c0.2,0.2,0.8,0.3,1,0.6c0.2,0.2-0.2,0.4,0.5,0.5c0.7,0.1,1.1,0.4,1-0.4c-0.2-0.7,0.1-0.6-0.8-1.5
					c-0.9-0.9-1.3-0.8-1.3-1.4c0.1-0.6,0.7-1.6,0.7-1.6s1-0.1,1.1-1.3c0.1-1.2,0.2-2,0.1-2.9c-0.1-0.9,0-1.5,0-1.5l0.4-0.4
					c0,0,1.5-0.6,1.1-1c-0.4-0.4-0.6-1-0.6-1l0.9-1c0,0,0.2,0,0.3-0.1c0-0.1,0.3-0.7,0.4-0.8c0.1-0.1,0.2-0.9,0.6-0.4
					c0.4,0.4,0.3,1,0.6,1c0.3,0,0.4,0,0.7-0.4c0.3-0.4,0.7-1,0.6-1.6c-0.1-0.5-0.3-1.1-0.4-0.9c-0.2,0.2-0.3,0.5-0.5,0.7
					c-0.2,0.2-0.4,0.4-0.5,0.1c-0.1-0.2-0.6-1-0.9-0.9c-0.3,0-1.1,0.3-1.4,0.5c-0.2,0.2-0.4,0.6-0.6,0.7c-0.2,0.1-0.9,0.3-0.4-0.7
					c0.5-1,1.8-2.2,2.4-2.5c0.6-0.4,1-0.5,1.2-0.2c0.1,0.3,0.3,0.9,0.3,0.9l0.9,0.1c0,0,0.5-0.1,1.2-0.5c0.6-0.4,1.3-0.2,0.8-0.7
					c-0.5-0.5-0.8-0.3-1.3-0.3c-0.5,0-0.7,0.4-1.1,0c-0.4-0.4-0.9-1.1-1.2-1.2c-0.2,0-0.8-0.2-0.8-0.2s-0.7,0.1-1.7-0.1
					c-1-0.3-0.8-0.7-1.3-0.7c-0.5,0,0,0.1-1.1-0.6c-1-0.7-1,0.3-1,0.3s-0.3,0.7-0.5,0.5c-0.2-0.2-0.2-0.3-1.1-0.5
					c-0.9-0.2-1.6-0.2-1.6-0.2s-0.4,0.6-0.4,1.2c0,0.6-0.3,1.3,0.3,1.4c0.6,0.1,0.9,0.5,0.9,0.5s-1.4,0.8-0.8,1.3
					c0.6,0.5,0.9,0.4,0.6,1c-0.3,0.6-0.2,1-0.5,0.8c-0.3-0.3-0.8-0.6-0.8-0.6l-0.7-0.7c0,0,0.2-0.4-0.4-0.6
					c-0.6-0.1-0.7-0.4-1.5-0.2c-0.8,0.2-1,0.5-1.6-0.3c-0.5-0.8-0.8-0.1-0.5-1.2c0.4-1.1,0.6-1.9,0.8-1.9c0.2,0,0.4-0.2,0.7,0.1
					c0.3,0.3,0.9,0.6,1,0.5c0.1,0,0.6-0.2,0.6-0.3c0-0.1,0.4-0.9,0-1c-0.4-0.1-1.3,0-1.6-0.1c-0.3-0.1-0.4-0.5-0.1-0.9
					c0.3-0.4,1.1-1.9,1.5-2.2c0.3-0.3,1.4,0,1.5,0.4c0.2,0.4,0.1,0.8,0,0.9c-0.1,0.2-0.4,0.9-0.4,0.9s0.7-0.1,1-0.1
					c0.3,0,0.6-0.1,1.1,0c0.5,0.1,1.3,0.2,1.3,0.2s0.4,0.4,0.5-0.3c0.1-0.7,0.2-1.3-0.3-1.4c-0.5-0.1-1-0.2-1.1-0.4
					c-0.1-0.2,0.1-0.3,0.1-0.3s1.1-0.2,1.1-0.4c0-0.2-0.5-0.5-0.7-0.5c-0.2,0-0.2,0.3-0.9,0.1c-0.6-0.2-1.8-0.7-2.2-0.8
					c-0.4-0.1-1-0.3-1.2-0.3c-0.1,0-0.8-0.2-1.1,0.7c-0.3,0.9-0.4,1.2-0.6,0.8c-0.2-0.4-0.2-1.7-0.6-1.2c-0.4,0.5-0.7,0.6-0.5,0.9
					c0.2,0.4,0.5,1.1,0.4,1.2c-0.1,0.2-0.5,0.5-0.7,0.3c-0.1-0.2-0.7-0.5-0.7-0.5s-0.4,0.4-0.4,0.9c0,0.5,0.5,0.8-0.2,0.9
					c-0.7,0.1-1.3,0.7-1.3,0c0-0.6,0.1-0.8,0.1-1.6c0-0.8-0.8-0.6-1.3-1c-0.5-0.4-0.1-0.3-0.8-0.5c-0.7-0.1-0.9-0.2-0.9-0.2
					s-0.1-0.6,0.3-1c0.4-0.4,0.1-0.4,1.1-0.8c1.1-0.3,1.6-0.5,2.1-0.8c0.5-0.3,1-0.8,1-0.8s1.4-0.8,1.4-0.5c0,0.2,0.3,1.2,0.3,1.2
					s-1,0-1.1,0.2c-0.1,0.3-0.3,1-0.2,1.4c0.1,0.4,0.5,0.5,0.6,0.4c0.2,0,0.5-0.4,0.9-0.3c0.5,0.1,0.6,0.6,0.6-0.2
					c0.1-0.9-0.1-0.9-0.1-1.3c0.1-0.4,0.2-0.7,0.5-1.1c0.3-0.5,0-1.3,0.1-1.5c0.1-0.2,0.6-0.6,0.7-0.7c0.1-0.1,1-0.4,1,0.1
					c0,0.5-0.5,1.5-0.5,1.8c-0.1,0.3-0.2,0.5-0.1,0.9c0,0.4,0.4,1,0.4,1s0.9,0.1,1.3-0.3c0.4-0.4,0.5-1,0.9-0.9
					c0.4,0.1,0.9,0.6,1.6,0.9c0.6,0.3,1.5,0.5,1.5,0.5s-0.4,0.2-0.1,0.6c0.3,0.4,0.5,0,1.6,1.1c1,1.1,1.7,1,1.7,1s2.4,0.3,2.7,0.1
					c0.2-0.1,0.1-0.8-0.1-1.1c-0.2-0.3-0.8-1.5-0.9-2c-0.1-0.5-0.6-1.7-0.9-2.1c-0.2-0.4-0.6-1.1-0.9-1.2c-0.3-0.1-0.7,0-1,0.1
					c-0.3,0.1-0.3,0.2-0.6-0.2c-0.3-0.4-1.5-0.4-1.5-0.4l-1.5-0.4c0,0-0.3-0.6,0.1-0.6c0.4,0,1.7,0.6,1.3-0.4
					c-0.4-1-0.8-1.7-1.4-1.8c-0.6-0.1-1.3,0-2.2-0.1c-0.9-0.1-1.8-0.1-2-0.1c-0.2,0-0.8-0.4,0.2-0.6c1-0.3,2.6-0.4,3.3-0.5
					c0.8-0.2,3.4-0.2,4.2-0.1c0.8,0,1.2,0.1,1.3,0.3c0.1,0.2,0,0.7,0.2,0.8c0.3,0.2,1,0.1,1.1,0.1c0.1,0,0.3-0.6,1.2,0
					c0.8,0.6,1.6,0.5,1.7,0.5c0.1-0.1,0.8-0.2,0.8-0.2s1.8,0.4,2.3,0.6c0.5,0.2,0.7,0.9,1.1,0.9c0.4,0,0.7,0.2,0.7-0.1
					c0-0.3-0.2-0.5,0.1-0.6c0.3-0.1,1.2,0,1.5-0.4c0.2-0.4,0.2-0.8,0.7-0.4c0.4,0.3,1,0.7,0.9,0.9c-0.1,0.1-0.8,0.3-0.8,0.5
					c0,0.3,0.1,0.6,0.5,0.7c0.4,0,1,0.1,1.1,0.2c0.1,0.2,0.4,0.5-0.3,0.6c-0.6,0.1-1.7-0.4-2.2-0.2c-0.5,0.1-1.2,0.1-0.6,0.7
					c0.6,0.5,1.4,0.8,1.6,0.8c0.2,0,1.1-0.2,1.2-0.1c0.1,0.1,1,0.4,0.4,0.7c-0.5,0.4-1.8,0-1.4,0.4c0.4,0.4,1.5,1.2,1.7,1.2
					c0.2,0,0.5-0.1,0.5-0.3c0-0.2,0.2-0.6,0.5-0.6c0.2,0,0.3-0.3,0.4-0.7c0.1-0.5,1-0.5,1.3-0.2c0.2,0.3,0.5,2,1,2.2
					c0.4,0.2,1.5,0.1,2,0.5c0.5,0.4-0.1,0.3-0.1,1c0,0.7,1.3,1,1.3,1s0.4,0.3,1.4,1.1c1,0.9,1.4,0.5,1.4,0.5s0.5-0.2,0.2-1.3
					c-0.3-1.1-0.2-1.6-0.8-2c-0.6-0.4-1.2-0.5-1.8-0.9c-0.5-0.4-1.4-1.5-1-1.6c0.4-0.1,2.2,1.1,2.3,0.6c0-0.5-1.2-1-1.4-1.3
					c-0.2-0.2-0.3-0.6-0.1-0.6c0.2,0,1.2,0.3,1.5,0.4c0.2,0.1,0.6,0.4,0.5,0.1c-0.1-0.3,0.4,0-2.2-1.3c-2.6-1.3-8.3-3.8-8.8-4
					c-0.6-0.2-3.4-1.4-6.9-1.6c-3.5-0.3-12.3,0.1-17,1.9c-4.8,1.7-10.1,4.4-11.2,5.3c-1.1,0.9-6.4,6.1-6.7,6.5c-0.2,0.4-0.7,1-0.4,1
					c0.3,0,1.7-1,1.7-1s0,0.4,0.1,0.5c0.1,0,0.4,0.3,0.8-0.4c0.4-0.6,0.5-0.9,0.7-0.5c0.2,0.4,0.1,0.5,0.5,0.6c0.4,0,0.9-0.1,1-0.3
					c0.1-0.2-0.6-0.3,0.1-1.1c0.8-0.8,0.9-0.7,0.9-1.1c0-0.4-0.6,0,0.2-0.9c0.8-0.9,3.3-2.8,3.8-2.8c0.5,0,0.6-0.6,0.6-0.6l4.5-2.3
					c0,0,1.1-0.6,1.4-0.7c0.2,0,0.6,0.1,0.3,0.5c-0.4,0.3-0.9,1.1-2.8,1.9c-1.9,0.9-4.3,2.8-4.6,2.8c-0.3,0-0.5,1.4-0.5,1.4
					s-0.8,0-0.6,0.9c0.2,0.8,0.5,1.4,0.9,1.4c0.4,0,1.3-0.1,1.3-0.1l1.1-0.2l0.6-0.1c0,0,0.3,0.2,0.1,0.6c-0.2,0.4-0.6,0.8-0.3,0.8
					c0.3,0,1.1,0,1.1,0l0.4,0.8c0,0,0.8,0.4,0.9,0.5c0.1,0.2-0.2,0.8-0.5,0.8c-0.3,0-1.1,0-1.5-0.5c-0.5-0.5-0.3-0.7-0.8-0.6
					c-0.5,0.1-0.8,0.7-1.6,0.1c-0.8-0.6-0.8-0.5-1.1-1c-0.3-0.5-0.8-0.8-0.8-0.8s-0.8-0.2-1.4,0.2c-0.5,0.4-1.1,0.8-1.1,0.8
					s-0.2,0.8-0.3,0.8c-0.1,0-1.5-0.3-1.4,0c0.1,0.2,0.3,0.8,0,1.2c-0.4,0.4-1.2,0.5-1.4,1c-0.2,0.5,0.5,0.9-0.4,1.7
					c-0.9,0.8-1.9,2.2-2.6,2.2c-0.7,0.1-1,0.3-0.8,0.6c0.3,0.3,1.5,0.1,1.5,0.1s1.4-0.7,1.6-0.9c0.2-0.2,1-0.8,1-0.8
					s0.3-0.8,1.3-0.5c1,0.4,1.2,0.7,1.5,1.3c0.3,0.6-0.2,1.1-0.4,1.4c-0.2,0.2-0.5,0.3-0.1,1c0.4,0.7,0.8,1.9,0.9,2
					c0,0.2,0.1,0.5-0.1,0.8c-0.3,0.3-0.6,0.1-0.5,0.5c0.1,0.4,0.6,1,0.6,1.1c0,0.1-0.1,1.2-0.1,1.2l0.1,1.3c0,0-0.8,1.4-0.8,2.3
					c0,0.9,0.1,2.9,1.1,3.9c1,1.1,1.7,1.4,1.8,1.6c0,0.2,0.8,2.9,0.9,3c0.1,0.1,0.1,0.6,0.1,0.6l0.1,0.3c0,0,0.6,0.3,0.8,0.4
					c0.1,0.1,0.6,0.8,0.7,1c0.1,0.1,1.8,1.9,1.8,1.9l0.6,0l0.3-0.4l-2.5-3l-0.6-1.4c0,0-0.5-1.1,0-0.9c0.5,0.2,5.2,5.2,5.2,5.2
					s0.2,0.8,0.2,1.1c0,0.3-0.2,1.6-0.2,1.6s0.6,0.4,1.3,0.2c0.6-0.3,1.5-0.1,1.7,0.2c0.2,0.3,1.2,0.4,1.4,0.5
					c0.2,0.1,0,0.6,0.7,0.4c0.6-0.2,1.9-0.8,2.4-0.7c0.5,0.1,0.2-0.1,0.6,0.5c0.4,0.5,0.2,0.6,0.8,0.9c0.6,0.3,0.7,0.2,1-0.1
					c0.3-0.3,1.1-0.2,1.4-0.1c0.3,0.1,1.2,0.1,1.6,0.5c0.4,0.4-0.3,0.2,0.4,0.7c0.7,0.5,1.3,1,1.5,1.2c0.3,0.2,0.8,0.1,1.1,0.3
					c0.3,0.2,0.5,0.1,1-0.2c0.5-0.3,0.5-0.5,1.3-0.5c0.8,0,1-0.2,1.3,0.1c0.3,0.3,0.6,0.6,0.6,0.6s0.7,1,0.3,1.5
					c-0.4,0.5-1,0.9-0.9,1.5c0.1,0.6,0.5,1.8,0.4,2c-0.1,0.1,0,0.9,0.2,1.1c0.2,0.2,0.4,0.3,0.3,0.7c0,0.4-0.2,0.9,0.2,1
					c0.4,0.2,0.5,0.2,0.9,0.7c0.3,0.5,0,0.6,1,0.8c1,0.2,1,0.4,1.7,0.9c0.7,0.5,0.4,0.5,1,0.6c0.6,0.1,0.8,0.2,2.4,0.6
					c1.6,0.4,2.4,0.9,2.5,1.2c0,0.3-0.2,1.6,0.1,1.9c0.3,0.3,0.2,1.5,0.2,1.5l-0.5,1.4c0,0-0.3,0.9-0.2,1.6c0.1,0.7-0.1,0.3-0.3,1.9
					c-0.1,1.6-0.2,2.6-0.2,3c0,0.5,0.5,1.5,0.6,1.6c0.1,0.1,0.5,0.2,0.7-0.1c0.2-0.3,1.8-2.2,2-2.5c0.2-0.4-0.2-0.9,1.3-2.4
					c1.5-1.6,1.7-2.5,2.4-2.7c0.7-0.1,1.2-0.6,1.2-0.6l0.3-1.5c0,0,0.4,0,1-0.4c0.6-0.4,0.5,0,1.4-1.4c0.9-1.4,0.9-1,1-2.3
					c0.2-1.3,1.6-2.7,2.3-3.8c0.7-1.1,2.3-4.7,2.5-5.2c0.2-0.5,0.8-1.8,0.8-1.8s0.1-0.9,0.1-2.7C416.1,63.3,417.3,61.5,416.1,61z
					 M374.6,40.9c0.3-0.2,0.9-0.4,1-0.4l0.5,0.1l0.7,0.1l0.8,0.6c0,0,0.5-0.1,0.8-0.1c0.3,0,0.6,0.3,0.7,0.4
					c0.1,0.1,0.3,1.1,0.3,1.3c0,0.2,0.3,0.2,0.4,0.2c0.1,0,0.5,0,0.5,0s0,0.1-0.3,0.7c-0.2,0.6-0.2,0.1-1-0.2
					c-0.8-0.3-0.1-0.4-0.2-0.5c-0.1-0.1-0.5,0.1-0.5,0.1s-0.4-0.1-0.5-0.4c-0.1-0.2-0.1-0.4-0.2-0.5c-0.2-0.2-0.3,0.1-0.5,0.1
					c-0.2,0-0.3,0-0.5,0.2c-0.2,0.2-0.1,0.5-0.1,0.8c0,0.3,0.6,1.3,0.4,1.8c-0.2,0.5-0.6,0-0.7-0.1c-0.1,0-0.4-0.6-0.5-0.7
					c0-0.1-0.1-1,0.1-1.8c0.1-0.9,0.3-0.2,0.6-0.2c0.3,0,0-0.5-0.2-0.6c-0.2-0.2-1,0.1-1.1,0.2c-0.1,0.1-0.9-0.2-1-0.6
					C373.8,41.1,374.3,41.2,374.6,40.9z M364.7,32.1c-0.5-0.5,0.4-0.5,0.9-0.5c0,0,0.6,0.5,0.7,1c0.1,0.5-0.4,0.4-0.6,0.4
					C365.4,33,365.1,32.6,364.7,32.1z M367.5,34.4c0,0.2-0.8,0.5-0.8,0.5l-0.9,0.1c0,0-0.2-0.5-0.2-0.7c0,0,0.4-0.2,0.6-0.2
					c0.2,0,0.7-0.3,1.1-0.3C367.7,33.8,367.5,34.2,367.5,34.4z">
     </path>
     <path class="st2" d="M385.2,55.8c-0.5-0.2-0.8-0.4-1.2-0.1c-0.4,0.3-2,1.1-2,1.1c-0.1,0.3-0.1,0.6,0.3,0.6
					c0.4,0.1,1.6-0.5,2-0.6c0.4-0.1,1.4,0.4,1.4,0.4s0.6,0.3,1.1,0.1c0.4-0.2,1.1-0.6,1.1-0.6s0.4-0.4-0.4-0.5
					C386.7,56.2,385.7,56,385.2,55.8z">
     </path>
     <path class="st2" d="M389.2,56.5c0,0-0.5,1.2-0.4,1.4c0.1,0.2,1.5,0.1,1.5,0.1s1-0.4,1.3-0.5c0.3-0.1,1.1-0.4,0.6-0.9
					c-0.4-0.4-0.9-0.4-0.9-0.4L389.2,56.5z">
     </path>
     <path class="st2" d="M388,21.8c-0.2,0.1-0.9,0.7-0.6,1.1c0.4,0.4,1.6,0.9,1.9,0.4c0.3-0.5,0.5-0.9,0.5-1.1
					c0-0.2-0.4-0.6-0.6-0.7C389,21.4,388,21.8,388,21.8z">
     </path>
     <path class="st2" d="M423.7,44.4l-0.9-2.6c0,0-1.8-3.2-2.4-4.5c-0.6-1.3-3.3-4.9-4.7-6.8c-1.4-1.9-5.7-5.8-5.7-5.8
					s-0.3,0.5-0.5,0.5c-0.2,0-0.4-0.6-0.7-0.8c-0.3-0.1-0.2,0.6-0.2,0.6s0.4,1.2,0.6,1.4l0.1,1.4l0.2,2.4c0,0,0.6,1.3,1.1,1.7
					c0.5,0.4,1.1,1.3,1.1,1.3l-0.1,2.3c0,0,0.9,0.9,0.9,1.2c0,0.2,0.9,1,1.5,1.6c0.6,0.6,0.6,0.4,2.3,1.7c1.7,1.3,0.7,2.9,0.7,2.9
					s0.9,0.5,1.3,0.5c0.4,0,2.4,1.9,2.4,1.9s0.6-1.1,0.6-1.4c0-0.3,0-1,0.3-1.4c0.3-0.4,1.7,2.6,2.1,2.7
					C424.3,45.4,423.7,44.4,423.7,44.4z">
     </path>
    </g>
   </g>
  </g>
 </g>
</svg>