<?xml version="1.0" encoding="utf-8"?>
<!-- Generator: Adobe Illustrator 19.2.1, SVG Export Plug-In . SVG Version: 6.00 Build 0)  -->
<svg version="1.1" id="Layer_1" xmlns="http://www.w3.org/2000/svg" xmlns:xlink="http://www.w3.org/1999/xlink" x="0px" y="0px"
	 viewBox="0 0 639 585.6" style="enable-background:new 0 0 639 585.6;" xml:space="preserve">
<style type="text/css">
	.st0{clip-path:url(#SVGID_2_);}
	.st1{fill-opacity:0;}
	.st2{fill:#9FC5E8;}
	.st3{fill:none;stroke:#000000;stroke-width:2;stroke-linejoin:round;stroke-miterlimit:10;}
	.st4{fill:#F9CB9C;}
	.st5{fill:#B6D7A8;}
	.st6{stroke:#000000;stroke-width:2;stroke-miterlimit:10;}
	.st7{fill:none;stroke:#000000;stroke-width:8;stroke-linejoin:round;stroke-miterlimit:10;stroke-dasharray:8,24;}
	.st8{fill:#D5A6BD;}
</style>
<g>
	<defs>
		<rect id="SVGID_1_" x="-278.1" width="1152" height="864"/>
	</defs>
	<clipPath id="SVGID_2_">
		<use xlink:href="#SVGID_1_"  style="overflow:visible;"/>
	</clipPath>
	<g class="st0">
		<path class="st1" d="M-278.1,0h1152v864h-1152V0z"/>
		<path class="st2" d="M2.9,8h136v127H2.9V8z"/>
		<path class="st3" d="M2.9,8h136v127H2.9V8z"/>
		<path d="M41.4,80V62.8h6.5c1.1,0,2,0.1,2.6,0.2c0.8,0.1,1.5,0.4,2.1,0.8c0.6,0.4,1,1,1.4,1.7c0.4,0.7,0.5,1.5,0.5,2.3
			c0,1.5-0.5,2.7-1.4,3.7c-0.9,1-2.6,1.5-5,1.5h-4.4v7H41.4z M43.7,71h4.4c1.5,0,2.5-0.3,3.1-0.8c0.6-0.6,0.9-1.3,0.9-2.3
			c0-0.7-0.2-1.3-0.5-1.8c-0.4-0.5-0.8-0.8-1.4-1c-0.4-0.1-1.1-0.2-2.1-0.2h-4.4V71z M56.3,73.8c0-2.3,0.6-4,1.9-5.1
			c1.1-0.9,2.4-1.4,3.9-1.4c1.7,0,3.1,0.6,4.2,1.7s1.6,2.7,1.6,4.6c0,1.6-0.2,2.9-0.7,3.8c-0.5,0.9-1.2,1.6-2.1,2.1
			c-0.9,0.5-1.9,0.8-3,0.8c-1.8,0-3.2-0.6-4.2-1.7C56.9,77.5,56.3,75.9,56.3,73.8z M58.5,73.8c0,1.6,0.3,2.8,1,3.6
			c0.7,0.8,1.6,1.2,2.6,1.2c1,0,1.9-0.4,2.6-1.2c0.7-0.8,1-2,1-3.7c0-1.5-0.4-2.7-1.1-3.5c-0.7-0.8-1.6-1.2-2.6-1.2
			c-1.1,0-1.9,0.4-2.6,1.2C58.9,71,58.5,72.2,58.5,73.8z M78.5,80v-1.6c-0.8,1.2-2,1.9-3.5,1.9c-1,0-1.9-0.3-2.7-0.8
			c-0.8-0.6-1.5-1.3-1.9-2.3c-0.4-1-0.7-2.1-0.7-3.4c0-1.2,0.2-2.4,0.6-3.4c0.4-1,1-1.8,1.9-2.3c0.8-0.5,1.8-0.8,2.8-0.8
			c0.8,0,1.4,0.2,2,0.5c0.6,0.3,1.1,0.7,1.4,1.2v-6.2h2.1V80H78.5z M71.9,73.8c0,1.6,0.3,2.8,1,3.6c0.7,0.8,1.5,1.2,2.4,1.2
			c0.9,0,1.7-0.4,2.3-1.1c0.6-0.8,1-1.9,1-3.5c0-1.7-0.3-3-1-3.8c-0.7-0.8-1.5-1.2-2.4-1.2c-0.9,0-1.7,0.4-2.4,1.2
			C72.2,71,71.9,72.2,71.9,73.8z M97.8,80h-2.1V66.6c-0.5,0.5-1.2,1-2,1.5c-0.8,0.5-1.6,0.8-2.2,1.1v-2c1.2-0.6,2.2-1.2,3.1-2
			c0.9-0.8,1.5-1.6,1.9-2.3h1.4V80z"/>
		<path class="st2" d="M187.9,8h136v127h-136V8z"/>
		<path class="st3" d="M187.9,8h136v127h-136V8z"/>
		<path d="M226.4,80V62.8h6.5c1.1,0,2,0.1,2.6,0.2c0.8,0.1,1.5,0.4,2.1,0.8c0.6,0.4,1,1,1.4,1.7c0.4,0.7,0.5,1.5,0.5,2.3
			c0,1.5-0.5,2.7-1.4,3.7c-0.9,1-2.6,1.5-5,1.5h-4.4v7H226.4z M228.7,71h4.4c1.5,0,2.5-0.3,3.1-0.8c0.6-0.6,0.9-1.3,0.9-2.3
			c0-0.7-0.2-1.3-0.5-1.8c-0.4-0.5-0.8-0.8-1.4-1c-0.4-0.1-1.1-0.2-2.1-0.2h-4.4V71z M241.3,73.8c0-2.3,0.6-4,1.9-5.1
			c1.1-0.9,2.4-1.4,3.9-1.4c1.7,0,3.1,0.6,4.2,1.7s1.6,2.7,1.6,4.6c0,1.6-0.2,2.9-0.7,3.8c-0.5,0.9-1.2,1.6-2.1,2.1
			c-0.9,0.5-1.9,0.8-3,0.8c-1.8,0-3.2-0.6-4.2-1.7C241.9,77.5,241.3,75.9,241.3,73.8z M243.5,73.8c0,1.6,0.3,2.8,1,3.6
			c0.7,0.8,1.6,1.2,2.6,1.2c1,0,1.9-0.4,2.6-1.2c0.7-0.8,1-2,1-3.7c0-1.5-0.4-2.7-1.1-3.5c-0.7-0.8-1.6-1.2-2.6-1.2
			c-1.1,0-1.9,0.4-2.6,1.2C243.9,71,243.5,72.2,243.5,73.8z M263.5,80v-1.6c-0.8,1.2-2,1.9-3.5,1.9c-1,0-1.9-0.3-2.7-0.8
			c-0.8-0.6-1.5-1.3-1.9-2.3c-0.4-1-0.7-2.1-0.7-3.4c0-1.2,0.2-2.4,0.6-3.4c0.4-1,1-1.8,1.9-2.3c0.8-0.5,1.8-0.8,2.8-0.8
			c0.8,0,1.4,0.2,2,0.5c0.6,0.3,1.1,0.7,1.4,1.2v-6.2h2.1V80H263.5z M256.9,73.8c0,1.6,0.3,2.8,1,3.6c0.7,0.8,1.5,1.2,2.4,1.2
			c0.9,0,1.7-0.4,2.3-1.1c0.6-0.8,1-1.9,1-3.5c0-1.7-0.3-3-1-3.8c-0.7-0.8-1.5-1.2-2.4-1.2c-0.9,0-1.7,0.4-2.4,1.2
			C257.2,71,256.9,72.2,256.9,73.8z M286,78v2h-11.3c0-0.5,0.1-1,0.2-1.5c0.3-0.8,0.8-1.5,1.4-2.3s1.6-1.6,2.8-2.6
			c1.9-1.5,3.1-2.7,3.8-3.6c0.7-0.9,1-1.7,1-2.5c0-0.8-0.3-1.5-0.9-2.1c-0.6-0.6-1.4-0.9-2.3-0.9c-1,0-1.8,0.3-2.4,0.9
			c-0.6,0.6-0.9,1.4-0.9,2.5l-2.2-0.2c0.1-1.6,0.7-2.8,1.7-3.7c1-0.9,2.3-1.3,3.9-1.3c1.6,0,2.9,0.5,3.9,1.4c1,0.9,1.5,2,1.5,3.4
			c0,0.7-0.1,1.4-0.4,2c-0.3,0.7-0.8,1.4-1.4,2.1c-0.6,0.7-1.7,1.7-3.2,3c-1.3,1.1-2.1,1.8-2.4,2.2c-0.4,0.4-0.7,0.8-0.9,1.1H286z"
			/>
		<path class="st2" d="M497.9,8h136v127h-136V8z"/>
		<path class="st3" d="M497.9,8h136v127h-136V8z"/>
		<path d="M534.4,80V62.8h6.5c1.1,0,2,0.1,2.6,0.2c0.8,0.1,1.5,0.4,2.1,0.8c0.6,0.4,1,1,1.4,1.7c0.4,0.7,0.5,1.5,0.5,2.3
			c0,1.5-0.5,2.7-1.4,3.7c-0.9,1-2.6,1.5-5,1.5h-4.4v7H534.4z M536.7,71h4.4c1.5,0,2.5-0.3,3.1-0.8c0.6-0.6,0.9-1.3,0.9-2.3
			c0-0.7-0.2-1.3-0.5-1.8c-0.4-0.5-0.8-0.8-1.4-1c-0.4-0.1-1.1-0.2-2.1-0.2h-4.4V71z M549.3,73.8c0-2.3,0.6-4,1.9-5.1
			c1.1-0.9,2.4-1.4,3.9-1.4c1.7,0,3.1,0.6,4.2,1.7s1.6,2.7,1.6,4.6c0,1.6-0.2,2.9-0.7,3.8c-0.5,0.9-1.2,1.6-2.1,2.1
			c-0.9,0.5-1.9,0.8-3,0.8c-1.8,0-3.2-0.6-4.2-1.7C549.9,77.5,549.3,75.9,549.3,73.8z M551.5,73.8c0,1.6,0.3,2.8,1,3.6
			c0.7,0.8,1.6,1.2,2.6,1.2c1,0,1.9-0.4,2.6-1.2c0.7-0.8,1-2,1-3.7c0-1.5-0.4-2.7-1.1-3.5c-0.7-0.8-1.6-1.2-2.6-1.2
			c-1.1,0-1.9,0.4-2.6,1.2C551.9,71,551.5,72.2,551.5,73.8z M571.6,80v-1.6c-0.8,1.2-2,1.9-3.5,1.9c-1,0-1.9-0.3-2.7-0.8
			c-0.8-0.6-1.5-1.3-1.9-2.3c-0.4-1-0.7-2.1-0.7-3.4c0-1.2,0.2-2.4,0.6-3.4c0.4-1,1-1.8,1.9-2.3c0.8-0.5,1.8-0.8,2.8-0.8
			c0.8,0,1.4,0.2,2,0.5c0.6,0.3,1.1,0.7,1.4,1.2v-6.2h2.1V80H571.6z M564.9,73.8c0,1.6,0.3,2.8,1,3.6c0.7,0.8,1.5,1.2,2.4,1.2
			c0.9,0,1.7-0.4,2.3-1.1c0.6-0.8,1-1.9,1-3.5c0-1.7-0.3-3-1-3.8c-0.7-0.8-1.5-1.2-2.4-1.2c-0.9,0-1.7,0.4-2.4,1.2
			C565.2,71,564.9,72.2,564.9,73.8z M583.7,80V62.8h2.3l9,13.5V62.8h2.2V80h-2.3l-9-13.5V80H583.7z"/>
		<path class="st4" d="M207.9,210h257v159h-257V210z"/>
		<path class="st3" d="M207.9,210h257v159h-257V210z"/>
		<path d="M246.9,271v-17.2h7.6c1.5,0,2.7,0.2,3.5,0.5c0.8,0.3,1.4,0.9,1.9,1.6c0.5,0.8,0.7,1.6,0.7,2.6c0,1.2-0.4,2.2-1.2,3.1
			c-0.8,0.8-2,1.4-3.7,1.6c0.6,0.3,1.1,0.6,1.4,0.8c0.7,0.6,1.3,1.4,1.9,2.3l3,4.7h-2.9l-2.3-3.6c-0.7-1-1.2-1.8-1.6-2.4
			c-0.4-0.6-0.8-0.9-1.2-1.2c-0.3-0.2-0.7-0.4-1-0.5c-0.3-0.1-0.7-0.1-1.3-0.1h-2.6v7.6H246.9z M249.2,261.4h4.9
			c1,0,1.9-0.1,2.4-0.3c0.6-0.2,1-0.6,1.3-1c0.3-0.5,0.5-1,0.5-1.5c0-0.8-0.3-1.5-0.9-2c-0.6-0.5-1.5-0.8-2.8-0.8h-5.4V261.4z
			 M276.5,265l2.3,0.6c-0.5,1.9-1.3,3.3-2.6,4.3c-1.2,1-2.8,1.5-4.5,1.5c-1.8,0-3.3-0.4-4.5-1.1c-1.2-0.8-2-1.9-2.6-3.3
			c-0.6-1.4-0.9-3-0.9-4.6c0-1.8,0.3-3.4,1-4.7c0.7-1.3,1.7-2.3,2.9-3c1.3-0.7,2.7-1,4.2-1c1.7,0,3.2,0.4,4.3,1.3
			c1.2,0.9,2,2.1,2.5,3.7l-2.2,0.5c-0.4-1.2-1-2.2-1.8-2.7c-0.8-0.6-1.7-0.9-2.8-0.9c-1.3,0-2.4,0.3-3.3,1c-0.9,0.6-1.5,1.5-1.9,2.5
			c-0.4,1.1-0.5,2.2-0.5,3.3c0,1.5,0.2,2.7,0.6,3.8c0.4,1.1,1.1,1.9,2,2.5c0.9,0.5,1.9,0.8,2.9,0.8c1.3,0,2.4-0.4,3.2-1.1
			C275.6,267.6,276.2,266.5,276.5,265z M286.4,271.3l5-17.8h1.7l-5,17.8H286.4z M301.6,271v-17.2h5.9c1.3,0,2.4,0.1,3.1,0.2
			c1,0.2,1.8,0.6,2.5,1.2c0.9,0.8,1.6,1.7,2,2.9c0.5,1.2,0.7,2.5,0.7,4.1c0,1.3-0.2,2.5-0.5,3.5c-0.3,1-0.7,1.8-1.2,2.5
			c-0.5,0.7-1,1.2-1.6,1.5c-0.6,0.4-1.2,0.7-2,0.9c-0.8,0.2-1.7,0.3-2.8,0.3H301.6z M303.8,269h3.7c1.1,0,2-0.1,2.7-0.3
			c0.6-0.2,1.2-0.5,1.5-0.9c0.5-0.5,1-1.3,1.3-2.2c0.3-0.9,0.5-2,0.5-3.3c0-1.8-0.3-3.2-0.9-4.1c-0.6-1-1.3-1.6-2.2-1.9
			c-0.6-0.2-1.6-0.4-2.9-0.4h-3.6V269z M327.1,267l2.2,0.3c-0.3,1.3-1,2.3-1.9,3c-0.9,0.7-2.1,1-3.6,1c-1.8,0-3.3-0.6-4.3-1.7
			c-1.1-1.1-1.6-2.7-1.6-4.7c0-2.1,0.5-3.7,1.6-4.9c1.1-1.2,2.5-1.7,4.2-1.7c1.7,0,3,0.6,4.1,1.7c1.1,1.1,1.6,2.7,1.6,4.8
			c0,0.1,0,0.3,0,0.6h-9.3c0.1,1.4,0.5,2.4,1.2,3.1c0.7,0.7,1.6,1.1,2.6,1.1c0.8,0,1.4-0.2,2-0.6C326.4,268.6,326.8,267.9,327.1,267
			z M320.2,263.6h7c-0.1-1-0.4-1.8-0.8-2.4c-0.7-0.8-1.5-1.2-2.6-1.2c-1,0-1.8,0.3-2.5,1C320.6,261.7,320.3,262.5,320.2,263.6z
			 M332,275.8v-17.2h1.9v1.6c0.5-0.6,1-1.1,1.5-1.4c0.6-0.3,1.3-0.5,2.1-0.5c1.1,0,2,0.3,2.8,0.8c0.8,0.5,1.4,1.3,1.8,2.3
			s0.6,2.1,0.6,3.3c0,1.3-0.2,2.4-0.7,3.4c-0.5,1-1.1,1.8-2,2.3c-0.9,0.5-1.8,0.8-2.7,0.8c-0.7,0-1.3-0.1-1.9-0.4
			c-0.6-0.3-1-0.7-1.4-1.1v6.1H332z M333.9,264.9c0,1.6,0.3,2.8,1,3.6c0.6,0.8,1.4,1.1,2.4,1.1c0.9,0,1.7-0.4,2.4-1.2
			c0.7-0.8,1-2,1-3.7c0-1.6-0.3-2.8-1-3.6c-0.6-0.8-1.4-1.2-2.3-1.2s-1.7,0.4-2.4,1.3C334.2,262.1,333.9,263.3,333.9,264.9z
			 M345.3,271v-17.2h2.1V271H345.3z M349.9,264.8c0-2.3,0.6-4,1.9-5.1c1.1-0.9,2.4-1.4,3.9-1.4c1.7,0,3.1,0.6,4.2,1.7
			s1.6,2.7,1.6,4.6c0,1.6-0.2,2.9-0.7,3.8c-0.5,0.9-1.2,1.6-2.1,2.1c-0.9,0.5-1.9,0.8-3,0.8c-1.8,0-3.2-0.6-4.2-1.7
			C350.4,268.5,349.9,266.9,349.9,264.8z M352,264.8c0,1.6,0.3,2.8,1,3.6c0.7,0.8,1.6,1.2,2.6,1.2c1,0,1.9-0.4,2.6-1.2
			c0.7-0.8,1-2,1-3.7c0-1.5-0.4-2.7-1.1-3.5c-0.7-0.8-1.6-1.2-2.6-1.2c-1.1,0-1.9,0.4-2.6,1.2C352.4,262,352,263.2,352,264.8z
			 M363.9,275.8l-0.2-2c0.5,0.1,0.9,0.2,1.2,0.2c0.5,0,0.8-0.1,1.1-0.2s0.5-0.4,0.7-0.7c0.1-0.2,0.3-0.7,0.6-1.6
			c0-0.1,0.1-0.3,0.2-0.5l-4.7-12.5h2.3l2.6,7.2c0.3,0.9,0.6,1.9,0.9,2.9c0.2-1,0.5-1.9,0.9-2.8l2.7-7.3h2.1l-4.7,12.7
			c-0.5,1.4-0.9,2.3-1.2,2.8c-0.4,0.7-0.8,1.2-1.3,1.5c-0.5,0.3-1.1,0.5-1.7,0.5C364.8,276.1,364.4,276,363.9,275.8z M376,271v-12.5
			h1.9v1.8c0.4-0.6,0.9-1.1,1.6-1.5s1.4-0.6,2.2-0.6c0.9,0,1.7,0.2,2.2,0.6c0.6,0.4,1,0.9,1.3,1.6c1-1.5,2.3-2.2,3.8-2.2
			c1.2,0,2.2,0.3,2.8,1s1,1.7,1,3.2v8.5h-2.1v-7.8c0-0.8-0.1-1.4-0.2-1.8c-0.1-0.4-0.4-0.7-0.8-0.9c-0.4-0.2-0.8-0.3-1.2-0.3
			c-0.9,0-1.6,0.3-2.2,0.9c-0.6,0.6-0.9,1.5-0.9,2.8v7.2h-2.1v-8.1c0-0.9-0.2-1.6-0.5-2.1s-0.9-0.7-1.7-0.7c-0.6,0-1.1,0.2-1.7,0.5
			c-0.5,0.3-0.9,0.8-1.1,1.4c-0.2,0.6-0.3,1.5-0.3,2.6v6.5H376z M404.5,267l2.2,0.3c-0.3,1.3-1,2.3-1.9,3c-0.9,0.7-2.1,1-3.6,1
			c-1.8,0-3.3-0.6-4.3-1.7c-1.1-1.1-1.6-2.7-1.6-4.7c0-2.1,0.5-3.7,1.6-4.9c1.1-1.2,2.5-1.7,4.2-1.7c1.7,0,3,0.6,4.1,1.7
			c1.1,1.1,1.6,2.7,1.6,4.8c0,0.1,0,0.3,0,0.6h-9.3c0.1,1.4,0.5,2.4,1.2,3.1c0.7,0.7,1.6,1.1,2.6,1.1c0.8,0,1.4-0.2,2-0.6
			C403.7,268.6,404.2,267.9,404.5,267z M397.6,263.6h7c-0.1-1-0.4-1.8-0.8-2.4c-0.7-0.8-1.5-1.2-2.6-1.2c-1,0-1.8,0.3-2.5,1
			C398,261.7,397.6,262.5,397.6,263.6z M409.3,271v-12.5h1.9v1.8c0.9-1.4,2.2-2.1,4-2.1c0.8,0,1.4,0.1,2.1,0.4
			c0.6,0.3,1.1,0.6,1.4,1.1s0.5,1,0.7,1.6c0.1,0.4,0.1,1.1,0.1,2v7.7h-2.1v-7.6c0-0.9-0.1-1.5-0.2-1.9c-0.2-0.4-0.5-0.8-0.9-1
			c-0.4-0.3-0.9-0.4-1.5-0.4c-0.9,0-1.7,0.3-2.3,0.9c-0.7,0.6-1,1.7-1,3.2v6.8H409.3z M427.3,269.1l0.3,1.9
			c-0.6,0.1-1.1,0.2-1.6,0.2c-0.8,0-1.4-0.1-1.8-0.4c-0.4-0.2-0.7-0.6-0.9-1c-0.2-0.4-0.2-1.2-0.2-2.5v-7.2h-1.5v-1.6h1.5v-3.1
			l2.1-1.3v4.3h2.1v1.6h-2.1v7.3c0,0.6,0,1,0.1,1.2c0.1,0.2,0.2,0.3,0.4,0.4c0.2,0.1,0.4,0.1,0.7,0.1
			C426.6,269.2,426.9,269.2,427.3,269.1z"/>
		<path class="st5" d="M263.4,298h146v51h-146V298z"/>
		<path class="st3" d="M263.4,298h146v51h-146V298z"/>
		<path d="M307.5,326.5l2.1-0.2c0.1,0.9,0.3,1.6,0.7,2.1c0.4,0.6,1,1,1.7,1.3c0.8,0.3,1.7,0.5,2.6,0.5c0.9,0,1.6-0.1,2.3-0.4
			c0.7-0.3,1.2-0.6,1.5-1.1c0.3-0.5,0.5-1,0.5-1.5s-0.2-1-0.5-1.4s-0.8-0.7-1.5-1c-0.5-0.2-1.5-0.5-3.1-0.8
			c-1.6-0.4-2.7-0.7-3.3-1.1c-0.8-0.4-1.4-1-1.8-1.6c-0.4-0.6-0.6-1.4-0.6-2.1c0-0.9,0.2-1.7,0.7-2.4c0.5-0.8,1.2-1.3,2.2-1.7
			c0.9-0.4,2-0.6,3.2-0.6c1.3,0,2.4,0.2,3.4,0.6c1,0.4,1.7,1,2.2,1.8c0.5,0.8,0.8,1.7,0.8,2.7l-2.2,0.2c-0.1-1.1-0.5-1.9-1.2-2.5
			s-1.7-0.8-3-0.8c-1.4,0-2.4,0.3-3,0.8c-0.6,0.5-0.9,1.1-0.9,1.8c0,0.6,0.2,1.1,0.7,1.5c0.4,0.4,1.6,0.8,3.4,1.2
			c1.9,0.4,3.1,0.8,3.8,1.1c1,0.5,1.7,1,2.2,1.8c0.5,0.7,0.7,1.5,0.7,2.4s-0.3,1.8-0.8,2.6c-0.5,0.8-1.3,1.4-2.2,1.9
			c-1,0.4-2.1,0.7-3.3,0.7c-1.6,0-2.9-0.2-3.9-0.7c-1.1-0.5-1.9-1.1-2.5-2C307.8,328.7,307.5,327.7,307.5,326.5z M332.1,327.5
			l2.1,0.3c-0.2,1.4-0.8,2.6-1.8,3.4c-0.9,0.8-2.1,1.2-3.4,1.2c-1.7,0-3.1-0.6-4.1-1.7c-1-1.1-1.5-2.7-1.5-4.8
			c0-1.3,0.2-2.5,0.7-3.5s1.1-1.8,2-2.3c0.9-0.5,1.9-0.8,3-0.8c1.4,0,2.5,0.3,3.3,1c0.9,0.7,1.4,1.7,1.7,2.9l-2,0.3
			c-0.2-0.8-0.5-1.5-1-1.9c-0.5-0.4-1.1-0.6-1.8-0.6c-1.1,0-1.9,0.4-2.6,1.2c-0.7,0.8-1,2-1,3.6c0,1.7,0.3,2.9,1,3.6
			c0.6,0.8,1.5,1.1,2.5,1.1c0.8,0,1.5-0.3,2.1-0.8C331.6,329.3,331.9,328.5,332.1,327.5z M344.1,330.5c-0.8,0.7-1.5,1.1-2.3,1.4
			c-0.7,0.3-1.5,0.4-2.3,0.4c-1.4,0-2.4-0.3-3.2-1c-0.7-0.7-1.1-1.5-1.1-2.6c0-0.6,0.1-1.2,0.4-1.7c0.3-0.5,0.6-0.9,1.1-1.2
			c0.4-0.3,1-0.5,1.5-0.7c0.4-0.1,1-0.2,1.9-0.3c1.7-0.2,3-0.5,3.8-0.7c0-0.3,0-0.5,0-0.5c0-0.9-0.2-1.5-0.6-1.8
			c-0.5-0.5-1.3-0.7-2.4-0.7c-1,0-1.7,0.2-2.2,0.5c-0.5,0.3-0.8,1-1,1.8l-2.1-0.3c0.2-0.9,0.5-1.6,0.9-2.1s1-1,1.9-1.2
			c0.8-0.3,1.8-0.5,2.8-0.5c1.1,0,1.9,0.1,2.6,0.4s1.2,0.6,1.5,1c0.3,0.4,0.5,0.9,0.7,1.4c0.1,0.4,0.1,1,0.1,1.9v2.8
			c0,2,0,3.2,0.1,3.7s0.3,1,0.5,1.5h-2.2C344.3,331.6,344.2,331.1,344.1,330.5z M343.9,325.8c-0.8,0.3-1.9,0.6-3.5,0.8
			c-0.9,0.1-1.5,0.3-1.8,0.4c-0.4,0.2-0.6,0.4-0.8,0.7c-0.2,0.3-0.3,0.6-0.3,1c0,0.6,0.2,1,0.6,1.4c0.4,0.4,1.1,0.6,1.9,0.6
			c0.8,0,1.5-0.2,2.2-0.5s1.1-0.8,1.4-1.5c0.2-0.5,0.3-1.2,0.3-2.1V325.8z M349.3,332v-17.2h2.1V332H349.3z M363.2,328l2.2,0.3
			c-0.3,1.3-1,2.3-1.9,3c-0.9,0.7-2.1,1-3.6,1c-1.8,0-3.3-0.6-4.3-1.7c-1.1-1.1-1.6-2.7-1.6-4.7c0-2.1,0.5-3.7,1.6-4.9
			c1.1-1.2,2.5-1.7,4.2-1.7c1.7,0,3,0.6,4.1,1.7c1.1,1.1,1.6,2.7,1.6,4.8c0,0.1,0,0.3,0,0.6h-9.3c0.1,1.4,0.5,2.4,1.2,3.1
			s1.6,1.1,2.6,1.1c0.8,0,1.4-0.2,2-0.6C362.4,329.6,362.9,328.9,363.2,328z M356.2,324.6h7c-0.1-1-0.4-1.8-0.8-2.4
			c-0.7-0.8-1.5-1.2-2.6-1.2c-1,0-1.8,0.3-2.5,1C356.7,322.7,356.3,323.5,356.2,324.6z"/>
		<path class="st1" d="M336.4,210L70.9,135"/>
		<path class="st3" d="M336.4,210l-254-71.7"/>
		<path class="st6" d="M83.3,135.1l-9.6,0.7l7.8,5.6L83.3,135.1z"/>
		<path class="st1" d="M336.4,210l-80.5-75"/>
		<path class="st3" d="M336.4,210l-71.7-66.8"/>
		<path class="st6" d="M266.9,140.8L258,137l4.4,8.6L266.9,140.8z"/>
		<path class="st1" d="M336.4,210l229.5-75"/>
		<path class="st3" d="M336.4,210l218.1-71.3"/>
		<path class="st6" d="M555.5,141.9l7.6-6l-9.7-0.3L555.5,141.9z"/>
		<path class="st1" d="M379.9,71l83,1"/>
		<path class="st7" d="M379.9,71l83,1"/>
		<path class="st8" d="M235.9,437h201v142h-201V437z"/>
		<path class="st3" d="M235.9,437h201v142h-201V437z"/>
		<path d="M284.3,487.5v-17.2h2.3v7.1h8.9v-7.1h2.3v17.2h-2.3v-8.1h-8.9v8.1H284.3z M300.5,481.3c0-2.3,0.6-4,1.9-5.1
			c1.1-0.9,2.4-1.4,3.9-1.4c1.7,0,3.1,0.6,4.2,1.7s1.6,2.7,1.6,4.6c0,1.6-0.2,2.9-0.7,3.8c-0.5,0.9-1.2,1.6-2.1,2.1
			c-0.9,0.5-1.9,0.8-3,0.8c-1.8,0-3.2-0.6-4.2-1.7C301,485,300.5,483.4,300.5,481.3z M302.7,481.3c0,1.6,0.3,2.8,1,3.6
			c0.7,0.8,1.6,1.2,2.6,1.2c1,0,1.9-0.4,2.6-1.2c0.7-0.8,1-2,1-3.7c0-1.5-0.4-2.7-1.1-3.5c-0.7-0.8-1.6-1.2-2.6-1.2
			c-1.1,0-1.9,0.4-2.6,1.2C303,478.5,302.7,479.7,302.7,481.3z M314.6,487.5v-12.5h1.9v1.9c0.5-0.9,0.9-1.5,1.3-1.8
			c0.4-0.3,0.9-0.4,1.4-0.4c0.7,0,1.4,0.2,2.2,0.7l-0.7,2c-0.5-0.3-1-0.5-1.5-0.5c-0.5,0-0.9,0.1-1.2,0.4c-0.4,0.3-0.6,0.7-0.8,1.1
			c-0.2,0.8-0.3,1.6-0.3,2.5v6.5H314.6z M322.6,472.8v-2.4h2.1v2.4H322.6z M322.6,487.5v-12.5h2.1v12.5H322.6z M326.8,487.5v-1.7
			l7.9-9.1c-0.9,0.1-1.7,0.1-2.4,0.1h-5.1v-1.7h10.2v1.4l-6.7,7.9l-1.3,1.4c0.9-0.1,1.8-0.1,2.7-0.1h5.8v1.8H326.8z M339.2,481.3
			c0-2.3,0.6-4,1.9-5.1c1.1-0.9,2.4-1.4,3.9-1.4c1.7,0,3.1,0.6,4.2,1.7s1.6,2.7,1.6,4.6c0,1.6-0.2,2.9-0.7,3.8
			c-0.5,0.9-1.2,1.6-2.1,2.1c-0.9,0.5-1.9,0.8-3,0.8c-1.8,0-3.2-0.6-4.2-1.7C339.7,485,339.2,483.4,339.2,481.3z M341.3,481.3
			c0,1.6,0.3,2.8,1,3.6c0.7,0.8,1.6,1.2,2.6,1.2c1,0,1.9-0.4,2.6-1.2c0.7-0.8,1-2,1-3.7c0-1.5-0.4-2.7-1.1-3.5
			c-0.7-0.8-1.6-1.2-2.6-1.2c-1.1,0-1.9,0.4-2.6,1.2C341.7,478.5,341.3,479.7,341.3,481.3z M353.3,487.5v-12.5h1.9v1.8
			c0.9-1.4,2.2-2.1,4-2.1c0.8,0,1.4,0.1,2.1,0.4c0.6,0.3,1.1,0.6,1.4,1.1s0.5,1,0.7,1.6c0.1,0.4,0.1,1.1,0.1,2v7.7h-2.1v-7.6
			c0-0.9-0.1-1.5-0.2-1.9c-0.2-0.4-0.5-0.8-0.9-1c-0.4-0.3-0.9-0.4-1.5-0.4c-0.9,0-1.7,0.3-2.3,0.9c-0.7,0.6-1,1.7-1,3.2v6.8H353.3z
			 M371.3,485.6l0.3,1.9c-0.6,0.1-1.1,0.2-1.6,0.2c-0.8,0-1.4-0.1-1.8-0.4c-0.4-0.2-0.7-0.6-0.9-1c-0.2-0.4-0.2-1.2-0.2-2.5v-7.2
			h-1.5v-1.6h1.5V472l2.1-1.3v4.3h2.1v1.6h-2.1v7.3c0,0.6,0,1,0.1,1.2c0.1,0.2,0.2,0.3,0.4,0.4c0.2,0.1,0.4,0.1,0.7,0.1
			C370.6,485.7,370.9,485.7,371.3,485.6z M381.4,486c-0.8,0.7-1.5,1.1-2.3,1.4c-0.7,0.3-1.5,0.4-2.3,0.4c-1.4,0-2.4-0.3-3.2-1
			c-0.7-0.7-1.1-1.5-1.1-2.6c0-0.6,0.1-1.2,0.4-1.7c0.3-0.5,0.6-0.9,1.1-1.2c0.4-0.3,1-0.5,1.5-0.7c0.4-0.1,1-0.2,1.9-0.3
			c1.7-0.2,3-0.5,3.8-0.7c0-0.3,0-0.5,0-0.5c0-0.9-0.2-1.5-0.6-1.8c-0.5-0.5-1.3-0.7-2.4-0.7c-1,0-1.7,0.2-2.2,0.5
			c-0.5,0.3-0.8,1-1,1.8l-2.1-0.3c0.2-0.9,0.5-1.6,0.9-2.1c0.4-0.5,1-1,1.9-1.2c0.8-0.3,1.8-0.5,2.8-0.5c1.1,0,1.9,0.1,2.6,0.4
			s1.2,0.6,1.5,1c0.3,0.4,0.5,0.9,0.7,1.4c0.1,0.4,0.1,1,0.1,1.9v2.8c0,2,0,3.2,0.1,3.7c0.1,0.5,0.3,1,0.5,1.5h-2.2
			C381.6,487.1,381.5,486.6,381.4,486z M381.3,481.3c-0.8,0.3-1.9,0.6-3.5,0.8c-0.9,0.1-1.5,0.3-1.8,0.4c-0.4,0.2-0.6,0.4-0.8,0.7
			c-0.2,0.3-0.3,0.6-0.3,1c0,0.6,0.2,1,0.6,1.4c0.4,0.4,1.1,0.6,1.9,0.6c0.8,0,1.5-0.2,2.2-0.5c0.6-0.4,1.1-0.8,1.4-1.5
			c0.2-0.5,0.3-1.2,0.3-2.1V481.3z M386.6,487.5v-17.2h2.1v17.2H386.6z"/>
		<path d="M316.9,516.5v-17.2h6.5c1.1,0,2,0.1,2.6,0.2c0.8,0.1,1.5,0.4,2.1,0.8c0.6,0.4,1,1,1.4,1.7c0.4,0.7,0.5,1.5,0.5,2.3
			c0,1.5-0.5,2.7-1.4,3.7c-0.9,1-2.6,1.5-5,1.5h-4.4v7H316.9z M319.2,507.5h4.4c1.5,0,2.5-0.3,3.1-0.8c0.6-0.6,0.9-1.3,0.9-2.3
			c0-0.7-0.2-1.3-0.5-1.8c-0.4-0.5-0.8-0.8-1.4-1c-0.4-0.1-1.1-0.2-2.1-0.2h-4.4V507.5z M331.9,510.3c0-2.3,0.6-4,1.9-5.1
			c1.1-0.9,2.4-1.4,3.9-1.4c1.7,0,3.1,0.6,4.2,1.7s1.6,2.7,1.6,4.6c0,1.6-0.2,2.9-0.7,3.8c-0.5,0.9-1.2,1.6-2.1,2.1
			c-0.9,0.5-1.9,0.8-3,0.8c-1.8,0-3.2-0.6-4.2-1.7C332.4,514,331.9,512.4,331.9,510.3z M334,510.3c0,1.6,0.3,2.8,1,3.6
			c0.7,0.8,1.6,1.2,2.6,1.2c1,0,1.9-0.4,2.6-1.2c0.7-0.8,1-2,1-3.7c0-1.5-0.4-2.7-1.1-3.5c-0.7-0.8-1.6-1.2-2.6-1.2
			c-1.1,0-1.9,0.4-2.6,1.2C334.4,507.5,334,508.7,334,510.3z M354.1,516.5v-1.6c-0.8,1.2-2,1.9-3.5,1.9c-1,0-1.9-0.3-2.7-0.8
			c-0.8-0.6-1.5-1.3-1.9-2.3c-0.4-1-0.7-2.1-0.7-3.4c0-1.2,0.2-2.4,0.6-3.4c0.4-1,1-1.8,1.9-2.3c0.8-0.5,1.8-0.8,2.8-0.8
			c0.8,0,1.4,0.2,2,0.5c0.6,0.3,1.1,0.7,1.4,1.2v-6.2h2.1v17.2H354.1z M347.4,510.3c0,1.6,0.3,2.8,1,3.6c0.7,0.8,1.5,1.2,2.4,1.2
			c0.9,0,1.7-0.4,2.3-1.1c0.6-0.8,1-1.9,1-3.5c0-1.7-0.3-3-1-3.8c-0.7-0.8-1.5-1.2-2.4-1.2c-0.9,0-1.7,0.4-2.4,1.2
			C347.7,507.5,347.4,508.7,347.4,510.3z"/>
		<path d="M279.7,545.5l6.6-17.2h2.5l7,17.2h-2.6l-2-5.2H284l-1.9,5.2H279.7z M284.6,538.5h5.8l-1.8-4.8c-0.5-1.4-0.9-2.6-1.2-3.6
			c-0.2,1.1-0.5,2.2-0.9,3.3L284.6,538.5z M305.4,545.5v-1.8c-1,1.4-2.3,2.1-3.9,2.1c-0.7,0-1.4-0.1-2.1-0.4s-1.1-0.6-1.4-1.1
			c-0.3-0.4-0.5-0.9-0.6-1.6c-0.1-0.4-0.1-1.1-0.1-2v-7.7h2.1v6.9c0,1.1,0,1.8,0.1,2.2c0.1,0.6,0.4,1,0.8,1.3c0.4,0.3,1,0.5,1.6,0.5
			c0.6,0,1.2-0.2,1.8-0.5c0.6-0.3,1-0.8,1.2-1.3c0.2-0.6,0.3-1.4,0.3-2.4v-6.7h2.1v12.5H305.4z M315.2,543.6l0.3,1.9
			c-0.6,0.1-1.1,0.2-1.6,0.2c-0.8,0-1.4-0.1-1.8-0.4c-0.4-0.2-0.7-0.6-0.9-1c-0.2-0.4-0.2-1.2-0.2-2.5v-7.2h-1.5v-1.6h1.5V530
			l2.1-1.3v4.3h2.1v1.6h-2.1v7.3c0,0.6,0,1,0.1,1.2c0.1,0.2,0.2,0.3,0.4,0.4c0.2,0.1,0.4,0.1,0.7,0.1
			C314.6,543.7,314.9,543.7,315.2,543.6z M316.5,539.3c0-2.3,0.6-4,1.9-5.1c1.1-0.9,2.4-1.4,3.9-1.4c1.7,0,3.1,0.6,4.2,1.7
			s1.6,2.7,1.6,4.6c0,1.6-0.2,2.9-0.7,3.8c-0.5,0.9-1.2,1.6-2.1,2.1c-0.9,0.5-1.9,0.8-3,0.8c-1.8,0-3.2-0.6-4.2-1.7
			C317.1,543,316.5,541.4,316.5,539.3z M318.7,539.3c0,1.6,0.3,2.8,1,3.6c0.7,0.8,1.6,1.2,2.6,1.2c1,0,1.9-0.4,2.6-1.2
			c0.7-0.8,1-2,1-3.7c0-1.5-0.4-2.7-1.1-3.5c-0.7-0.8-1.6-1.2-2.6-1.2c-1.1,0-1.9,0.4-2.6,1.2C319,536.5,318.7,537.7,318.7,539.3z
			 M329.8,541.8l2.1-0.3c0.1,0.8,0.4,1.5,1,1.9c0.5,0.4,1.3,0.7,2.2,0.7c1,0,1.7-0.2,2.2-0.6c0.5-0.4,0.7-0.9,0.7-1.4
			c0-0.5-0.2-0.9-0.6-1.1c-0.3-0.2-1-0.4-2.2-0.7c-1.5-0.4-2.6-0.7-3.2-1c-0.6-0.3-1-0.7-1.4-1.2c-0.3-0.5-0.5-1.1-0.5-1.7
			c0-0.6,0.1-1.1,0.4-1.5c0.3-0.5,0.6-0.9,1-1.2c0.3-0.2,0.8-0.4,1.3-0.6c0.6-0.2,1.2-0.3,1.8-0.3c1,0,1.8,0.1,2.6,0.4
			s1.3,0.7,1.6,1.2c0.4,0.5,0.6,1.1,0.7,1.9l-2.1,0.3c-0.1-0.6-0.4-1.1-0.8-1.5c-0.4-0.4-1.1-0.5-1.9-0.5c-1,0-1.7,0.2-2.1,0.5
			c-0.4,0.3-0.6,0.7-0.6,1.1c0,0.3,0.1,0.5,0.3,0.7c0.2,0.2,0.4,0.4,0.8,0.6c0.2,0.1,0.8,0.3,1.9,0.5c1.5,0.4,2.5,0.7,3.1,1
			c0.6,0.2,1.1,0.6,1.4,1.1c0.3,0.5,0.5,1.1,0.5,1.8c0,0.7-0.2,1.4-0.6,2c-0.4,0.6-1,1.1-1.8,1.5c-0.8,0.3-1.6,0.5-2.6,0.5
			c-1.6,0-2.8-0.3-3.7-1C330.6,544.1,330,543.1,329.8,541.8z M350.8,541l2.1,0.3c-0.2,1.4-0.8,2.6-1.8,3.4c-0.9,0.8-2.1,1.2-3.4,1.2
			c-1.7,0-3.1-0.6-4.1-1.7c-1-1.1-1.5-2.7-1.5-4.8c0-1.3,0.2-2.5,0.7-3.5c0.4-1,1.1-1.8,2-2.3c0.9-0.5,1.9-0.8,3-0.8
			c1.4,0,2.5,0.3,3.3,1c0.9,0.7,1.4,1.7,1.7,2.9l-2,0.3c-0.2-0.8-0.5-1.5-1-1.9c-0.5-0.4-1.1-0.6-1.8-0.6c-1.1,0-1.9,0.4-2.6,1.2
			c-0.7,0.8-1,2-1,3.6c0,1.7,0.3,2.9,1,3.6c0.6,0.8,1.5,1.1,2.5,1.1c0.8,0,1.5-0.3,2.1-0.8C350.3,542.8,350.6,542,350.8,541z
			 M362.8,544c-0.8,0.7-1.5,1.1-2.3,1.4c-0.7,0.3-1.5,0.4-2.3,0.4c-1.4,0-2.4-0.3-3.2-1c-0.7-0.7-1.1-1.5-1.1-2.6
			c0-0.6,0.1-1.2,0.4-1.7c0.3-0.5,0.6-0.9,1.1-1.2c0.4-0.3,1-0.5,1.5-0.7c0.4-0.1,1-0.2,1.9-0.3c1.7-0.2,3-0.5,3.8-0.7
			c0-0.3,0-0.5,0-0.5c0-0.9-0.2-1.5-0.6-1.8c-0.5-0.5-1.3-0.7-2.4-0.7c-1,0-1.7,0.2-2.2,0.5c-0.5,0.3-0.8,1-1,1.8l-2.1-0.3
			c0.2-0.9,0.5-1.6,0.9-2.1c0.4-0.5,1-1,1.9-1.2c0.8-0.3,1.8-0.5,2.8-0.5c1.1,0,1.9,0.1,2.6,0.4s1.2,0.6,1.5,1
			c0.3,0.4,0.5,0.9,0.7,1.4c0.1,0.4,0.1,1,0.1,1.9v2.8c0,2,0,3.2,0.1,3.7c0.1,0.5,0.3,1,0.5,1.5h-2.2
			C363,545.1,362.8,544.6,362.8,544z M362.6,539.3c-0.8,0.3-1.9,0.6-3.5,0.8c-0.9,0.1-1.5,0.3-1.8,0.4c-0.4,0.2-0.6,0.4-0.8,0.7
			c-0.2,0.3-0.3,0.6-0.3,1c0,0.6,0.2,1,0.6,1.4c0.4,0.4,1.1,0.6,1.9,0.6c0.8,0,1.5-0.2,2.2-0.5c0.6-0.4,1.1-0.8,1.4-1.5
			c0.2-0.5,0.3-1.2,0.3-2.1V539.3z M368,545.5v-17.2h2.1v17.2H368z M381.9,541.5l2.2,0.3c-0.3,1.3-1,2.3-1.9,3c-0.9,0.7-2.1,1-3.6,1
			c-1.8,0-3.3-0.6-4.3-1.7c-1.1-1.1-1.6-2.7-1.6-4.7c0-2.1,0.5-3.7,1.6-4.9c1.1-1.2,2.5-1.7,4.2-1.7c1.7,0,3,0.6,4.1,1.7
			c1.1,1.1,1.6,2.7,1.6,4.8c0,0.1,0,0.3,0,0.6h-9.3c0.1,1.4,0.5,2.4,1.2,3.1c0.7,0.7,1.6,1.1,2.6,1.1c0.8,0,1.4-0.2,2-0.6
			C381.1,543.1,381.5,542.4,381.9,541.5z M374.9,538.1h7c-0.1-1-0.4-1.8-0.8-2.4c-0.7-0.8-1.5-1.2-2.6-1.2c-1,0-1.8,0.3-2.5,1
			C375.4,536.2,375,537,374.9,538.1z M386.7,545.5v-12.5h1.9v1.9c0.5-0.9,0.9-1.5,1.3-1.8c0.4-0.3,0.9-0.4,1.4-0.4
			c0.7,0,1.4,0.2,2.2,0.7l-0.7,2c-0.5-0.3-1-0.5-1.5-0.5c-0.5,0-0.9,0.1-1.2,0.4c-0.4,0.3-0.6,0.7-0.8,1.1c-0.2,0.8-0.3,1.6-0.3,2.5
			v6.5H386.7z"/>
		<path class="st1" d="M336.4,437v-88"/>
		<path class="st3" d="M336.4,437v-76"/>
		<path class="st6" d="M339.7,361l-3.3-9.1l-3.3,9.1H339.7z"/>
	</g>
</g>
</svg>
