<svg id="Layer_1" xmlns="http://www.w3.org/2000/svg" width="223.25536" height="134.51135" viewBox="0 0 1920 467.35" role="img">
        <!-- Accesibility text -->
        <title>AppDirect logo</title>
        <!-- Fallback text -->
        AppDirect logo
        
        <g>
            <polygon fill-opacity="0.7" class="cls-2" points="150.36 0 253.68 0 455.35 317.43 365.06 355.75 150.36 0"></polygon>
            <polygon fill-opacity="0.7" class="cls-3" points="502.1 187.67 455.35 317.43 102.08 467.35 0 398.96 502.1 187.67"></polygon>
            <polygon class="cls-4" points="150.36 0 253.68 0 102.08 467.35 0 398.96 150.36 0"></polygon></g><g><path class="cls-1" d="M1905.46,311.18c-3.63,0-6.97-.57-10.04-1.72-3.07-1.15-5.57-3.33-7.49-6.55-1.93-3.22-2.89-8.05-2.89-14.48v-91.52h24.59s10.37-28.89,10.37-28.89h-34.96v-40.84h-33.18v168.13c0,10.29,2.33,18.83,6.99,25.64,4.66,6.81,10.76,11.84,18.31,15.09,7.55,3.25,15.68,4.81,24.41,4.66,5.33-.07,9.57-.35,13.32-1.28,3.48-.86,5.1-2.28,5.1-2.28v-27.72c-1.11,.22-5.21,.81-7.32,1.16-2,.33-4.55,.59-7.22,.59Z"></path><path class="cls-1" d="M1650.59,251.47c0-15.46-2.07-28.61-6.21-39.45-4.15-10.84-9.8-19.66-16.98-26.47-7.18-6.81-15.28-11.8-24.3-14.98-9.03-3.18-18.35-4.77-27.97-4.77-15.83,0-29.65,3.74-41.45,11.21-11.8,7.47-20.97,17.87-27.52,31.18-6.55,13.32-9.82,28.71-9.82,46.17s3.27,33.09,9.82,46.22c6.55,13.13,15.87,23.31,27.97,30.52,12.1,7.21,26.54,10.82,43.34,10.82,12.43,0,23.51-1.91,33.24-5.71,9.73-3.81,17.83-9.17,24.3-16.09,6.47-6.92,13.3-18.08,15.59-35.52h-32.7c-.69,7.92-5.7,15.42-9.47,19.04-3.77,3.63-8.25,6.34-13.43,8.16-5.18,1.81-10.91,2.72-17.2,2.72-9.69,0-18.16-2.09-25.41-6.27-7.25-4.18-12.89-10.27-16.92-18.26-3.75-7.43-5.73-16.36-6-26.75h121.13v-11.76Zm-121.1-13.09c.4-7.33,2.24-14.19,5.52-20.59,3.74-7.29,9.06-13.21,15.98-17.76,6.92-4.55,15.04-6.83,24.36-6.83,8.58,0,16.07,1.96,22.47,5.88,6.4,3.92,11.37,9.27,14.93,16.04,3.55,6.77,5.33,14.52,5.33,23.25h-88.58Z"></path><path class="cls-1" d="M680.63,338.48h36.4l-81.79-227.28h-39.62l-81.79,227.28h36.4l20.79-60.09,88.98,.38,20.63,59.71Zm-99.64-88.89l33.61-97.11h1.78l33.66,97.44-69.04-.33Z"></path><path class="cls-1" d="M741.05,402.4V168.02h32.4v27.63h2.78c1.92-3.55,4.7-7.66,8.32-12.32,3.62-4.66,8.66-8.75,15.09-12.26,6.44-3.51,14.94-5.27,25.53-5.27,13.76,0,26.04,3.48,36.84,10.43,10.8,6.95,19.29,16.98,25.47,30.07,6.18,13.09,9.27,28.85,9.27,47.28s-3.07,34.2-9.21,47.33c-6.14,13.13-14.58,23.23-25.3,30.3-10.73,7.07-22.97,10.6-36.73,10.6-10.36,0-18.81-1.74-25.36-5.22-6.55-3.48-11.67-7.55-15.37-12.21-3.7-4.66-6.55-8.8-8.54-12.43h-2v90.45h-33.18Zm32.52-149.15c0,11.99,1.74,22.49,5.22,31.52,3.48,9.03,8.51,16.07,15.09,21.14,6.58,5.07,14.65,7.6,24.19,7.6s18.2-2.64,24.86-7.93c6.66-5.29,11.71-12.49,15.15-21.59,3.44-9.1,5.16-19.35,5.16-30.74s-1.68-21.34-5.05-30.3c-3.37-8.95-8.4-16.02-15.09-21.2-6.7-5.18-15.04-7.77-25.02-7.77s-17.74,2.48-24.36,7.44c-6.62,4.96-11.64,11.87-15.04,20.75-3.4,8.88-5.11,19.24-5.11,31.07Z"></path><path class="cls-1" d="M926.31,402.4V168.02h32.4v27.63h2.78c1.92-3.55,4.7-7.66,8.32-12.32,3.62-4.66,8.66-8.75,15.09-12.26,6.44-3.51,14.94-5.27,25.53-5.27,13.76,0,26.04,3.48,36.84,10.43,10.8,6.95,19.29,16.98,25.47,30.07,6.18,13.09,9.27,28.85,9.27,47.28s-3.07,34.2-9.21,47.33c-6.14,13.13-14.58,23.23-25.3,30.3-10.73,7.07-22.97,10.6-36.73,10.6-10.36,0-18.81-1.74-25.36-5.22-6.55-3.48-11.67-7.55-15.37-12.21-3.7-4.66-6.55-8.8-8.54-12.43h-2v90.45h-33.18Zm32.52-149.15c0,11.99,1.74,22.49,5.22,31.52,3.48,9.03,8.51,16.07,15.09,21.14,6.58,5.07,14.65,7.6,24.19,7.6s18.2-2.64,24.86-7.93c6.66-5.29,11.71-12.49,15.15-21.59,3.44-9.1,5.16-19.35,5.16-30.74s-1.68-21.34-5.05-30.3c-3.37-8.95-8.4-16.02-15.09-21.2-6.7-5.18-15.04-7.77-25.02-7.77s-17.74,2.48-24.36,7.44c-6.62,4.96-11.64,11.87-15.04,20.75-3.4,8.88-5.11,19.24-5.11,31.07Z"></path><path class="cls-1" d="M1185.36,338.48h-73.58V111.2h75.91c22.27,0,41.39,4.53,57.38,13.59,15.98,9.07,28.24,22.05,36.79,38.95,8.54,16.91,12.82,37.16,12.82,60.76s-4.31,44.02-12.93,61.04c-8.62,17.02-21.07,30.09-37.34,39.23-16.28,9.14-35.96,13.71-59.04,13.71Zm-39.29-29.96h37.4c17.31,0,31.7-3.27,43.17-9.82,11.47-6.55,20.05-16.05,25.75-28.52,5.7-12.47,8.54-27.69,8.54-45.67s-2.83-32.96-8.49-45.39c-5.66-12.43-14.08-21.86-25.25-28.3-11.17-6.44-25.04-9.66-41.62-9.66h-39.51v167.35Z"></path><path class="cls-1" d="M1343.59,150.21c-5.37,0-9.96-1.91-13.78-5.74-3.82-3.83-5.73-8.4-5.73-13.72s1.91-10,5.73-13.82c3.82-3.83,8.41-5.74,13.78-5.74s9.96,1.91,13.78,5.74c3.82,3.82,5.73,8.43,5.73,13.82s-1.91,9.89-5.73,13.72c-3.82,3.83-8.41,5.74-13.78,5.74Z"></path><rect class="cls-1" x="1327" y="168.02" width="33.18" height="170.46"></rect><path class="cls-1" d="M1754.16,341.92c-16.5,0-30.69-3.75-42.56-11.26s-20.99-17.89-27.36-31.13c-6.36-13.24-9.54-28.41-9.54-45.5s3.25-32.61,9.77-45.89c6.51-13.28,15.68-23.66,27.52-31.13,11.84-7.47,25.78-11.21,41.84-11.21,12.95,0,24.49,2.39,34.63,7.16,10.13,4.77,18.33,11.45,24.58,20.03,6.25,8.58,9.97,18.61,11.15,30.08h-32.29c-1.78-7.99-5.83-14.87-12.15-20.64-6.33-5.77-14.78-8.66-25.36-8.66-9.25,0-17.33,2.42-24.25,7.27-6.92,4.85-12.3,11.73-16.15,20.64-3.85,8.92-5.77,19.44-5.77,31.57s1.89,23.16,5.66,32.18c3.77,9.03,9.12,16.02,16.04,20.98,6.92,4.96,15.07,7.44,24.47,7.44,6.29,0,12-1.17,17.15-3.5,5.14-2.33,9.47-5.68,12.98-10.04,3.51-4.36,5.97-9.62,7.38-15.76h32.29c-1.18,11.02-4.77,20.86-10.76,29.52-5.99,8.66-14,15.46-24.03,20.42-10.03,4.96-21.77,7.44-35.23,7.44Z"></path><path class="cls-1" d="M1481.68,165.68c-2.83-.39-5.31-.22-7.38-.22-9.99,0-18.92,2.65-26.8,7.93-7.88,5.29-13.37,12.52-16.48,21.7h-1.78v-27.08h-32.07v170.46h33.18v-104.1c0-7.4,1.77-14,5.33-19.81,3.55-5.81,8.38-10.36,14.48-13.65,6.1-3.29,13.08-4.94,20.92-4.94,3.4,0,6.81,.24,10.21,.72,.48,.07,.89,.13,1.33,.2l10.37-28.79c-2.99-1.05-7.57-1.92-11.31-2.43Z"></path></g>
</svg>