<?xml version="1.0" encoding="utf-8"?>
<!-- Generator: Adobe Illustrator 22.1.0, SVG Export Plug-In . SVG Version: 6.00 Build 0)  -->
<svg version="1.1" id="图层_1" xmlns="http://www.w3.org/2000/svg" xmlns:xlink="http://www.w3.org/1999/xlink" x="0px" y="0px"
	 viewBox="0 0 500 160" style="enable-background:new 0 0 500 160;" xml:space="preserve">
<style type="text/css">
	.st0{display:none;}
	.st1{display:inline;fill:#2D2D2D;}
	.st2{fill:#0FD15D;}
	.st3{fill:#FFFFFF;}
</style>
<title>DaoCloud_logo</title>
<g id="bg" class="st0">
	<rect class="st1" width="500" height="160"/>
</g>
<g id="Layer_3">
	<polygon class="st2" points="86.3,55.3 109.2,44.1 86.2,34 63.2,44 	"/>
	<polygon class="st2" points="62.8,86.3 61.7,67.7 78.4,59.3 54.8,47.6 39.5,54.3 41.5,72.2 	"/>
	<polygon class="st2" points="130.9,72.1 133.1,54.3 117.7,47.6 94.3,59.3 111.2,67.7 109.8,86.3 	"/>
	<polygon class="st2" points="109.2,95.1 107.5,119.4 126.9,104.7 129.9,81.2 	"/>
	<polygon class="st2" points="63.3,95.1 42.7,81.2 45.4,104.8 64.9,119.4 	"/>
	<polygon class="st2" points="101.9,100 86.4,110.5 70.8,100 72.3,124.9 86.3,135.3 100.1,124.9 	"/>
	<path class="st3" d="M158.9,107V53.4h19.7c11,0,17.8,6.7,17.8,17.5v18.7c0,10.6-6.8,17.5-17.8,17.5L158.9,107z M169.1,97.9h9.4
		c4.8,0,7.4-3.1,7.4-9.3V71.8c0-6.1-2.6-9.3-7.4-9.3h-9.4V97.9z"/>
	<path class="st3" d="M244.1,82.6c0-10,6.4-16.2,16.7-16.2c10.3,0,16.6,6.1,16.6,16.2v9c0.1,10-6.4,16.2-16.6,16.2
		s-16.7-6.1-16.7-16.2L244.1,82.6z M253.9,90.8c0,5.6,2.4,8.5,6.9,8.5s6.8-2.9,6.8-8.5v-7.3c0-5.6-2.5-8.5-6.8-8.5s-6.8,2.9-6.8,8.5
		L253.9,90.8z"/>
	<path class="st3" d="M236,107h-8.4l-0.6-3.8c-2.3,2.7-6.6,4.6-11.3,4.6c-7.6,0-13.3-5.4-13.3-12c0-16.9,23.4-17.1,23.4-17.1
		c0-1.3-1.9-5.3-10.3-5.3c-2.5,0.1-4.9,0.5-7.3,1.3l-1.9-5.3c4.1-2,8.7-3,13.2-3.1c10.4,0,16.4,4.3,16.4,14.2L236,107z M217.8,100.1
		c3.3-0.1,6.4-1.8,8.2-4.5V84.7c-1.6,0-13.6,1-13.6,10.2c-0.1,2.8,2,5.1,4.8,5.2C217.3,100.1,217.5,100.1,217.8,100.1L217.8,100.1z"
		/>
	<path class="st3" d="M303.4,108.1c-10.6,0-18.4-6.7-18.4-17.3V70.4c0-10.5,7.8-17.2,18.4-17.2c6.7,0,10.7,1.9,15.2,5l-3.9,7.1
		c-3.9-2.1-6.3-3.3-11.3-3.3s-8.2,3.6-8.2,9.3v18.6c0,6,3.3,9.3,8.2,9.3s7.5-1.2,11.3-3.3l3.9,7.2
		C314.1,106.2,310.1,108.1,303.4,108.1z"/>
	<path class="st3" d="M325.1,107V50.5h9.6V107H325.1z"/>
	<path class="st3" d="M343.2,83c0-9.9,6.3-15.9,16.4-15.9S376,73.1,376,83v8.9c0.1,9.9-6.3,15.9-16.4,15.9s-16.4-6-16.4-15.9
		L343.2,83z M352.9,91.1c0,5.5,2.4,8.4,6.8,8.4s6.7-2.9,6.7-8.4v-7.3c0-5.5-2.4-8.4-6.7-8.4s-6.7,2.9-6.7,8.4L352.9,91.1z"/>
	<path class="st3" d="M396.2,107.8c-9,0-11.9-5.4-11.9-15.4V67.8h9.7v23.7c0,5.6,1.1,8,4.9,8c3.1-0.1,5.8-1.8,7.3-4.5V67.8h9.7V107
		h-8.5l-0.8-3.7C403.9,106,400.1,107.6,396.2,107.8z"/>
	<path class="st3" d="M448.5,103.7c-2.9,2.7-6.7,4.1-10.6,4.1c-8.8,0-13.4-6-13.4-15.9v-9.6c0-10,4.5-15.2,13.1-15.2
		c3.3-0.1,6.5,0.6,9.6,1.8V50.5h9.7V107h-7.9L448.5,103.7z M447.1,77.2c-2.3-1-4.8-1.6-7.4-1.5c-3.7,0-5.7,2.3-5.7,7.4v8
		c0,5.5,1.5,8.4,5.9,8.4c3,0.2,5.8-1.4,7.2-4L447.1,77.2z"/>
</g>
</svg>
