<svg id="Layer_1" data-name="Layer 1" xmlns="http://www.w3.org/2000/svg" xmlns:xlink="http://www.w3.org/1999/xlink" viewBox="0 0 400 310"><defs><style>.cls-1,.cls-3,.cls-4{fill:#fff;}.cls-2{clip-path:url(#clip-path);}.cls-3{fill-rule:evenodd;}.cls-4{opacity:0.8;isolation:isolate;}.cls-5{clip-path:url(#clip-path-2);}.cls-6{clip-path:url(#clip-path-3);}</style><clipPath id="clip-path"><rect class="cls-1" x="9.79569" y="160.14195" width="79.43065" height="0.62791"/></clipPath><clipPath id="clip-path-2"><rect class="cls-1" x="156.72669" y="7.71674" width="0.62791" height="127.77975"/></clipPath><clipPath id="clip-path-3"><rect class="cls-1" x="311.56937" y="160.14195" width="79.43063" height="0.62791"/></clipPath></defs><path class="cls-1" d="M182.85914,292.7358c-2.75067.8255-5.67764.01808-8.47133,1.153-1.73309.704-3.83641.47478-5.76619.72173a51.703,51.703,0,0,0-10.93781,2.2342c-1.39641.4972-3.08706.11218-4.37493,1.18247l-1.14184.0788c-2.23233.46022-4.4743.87884-6.69352,1.3953a12.00353,12.00353,0,0,1-4.40508.22346c-2.55954-.363-4.96021-1.72828-5.32526-4.69871a12.46421,12.46421,0,0,1,.56191-2.631c.562-1.26055,1.44726-2.23838,3.08173-1.8056a22.20373,22.20373,0,0,0,14.27343-.87211,15.32231,15.32231,0,0,1,3.60928-.5241c5.06278-.6694,10.07491-1.6633,15.11688-2.42086,1.81337-.27246,3.55694-1.27722,5.47883-.836a.79779.79779,0,0,0,1.04849-.00724l.14693.01145.961-.34946c2.41577-.18432,4.81756-.70972,7.25777-.29726-.10143.16087-.19153.45384-.3059.46363-5.31268.45443-10.61389,1.26824-15.84564,2.07582-4.38932.67754-9.12251.6529-13.00451,2.91895,2.45069.58278,4.90179-1.04768,7.57118-.75214a11.7403,11.7403,0,0,0,5.28506-.89721,4.13532,4.13532,0,0,1,1.5067-.297,33.46744,33.46744,0,0,0,7.65976-.35154c1.85775-.3605,3.91222.10543,5.69145-.4254,2.25143-.6717,4.61072-.18716,6.75667-.96413,2.17339-.7869,4.41631-.63867,6.6251-.85215,2.96669-.28673,6.0817.13761,8.9068-.60441,4.64955-1.22116,9.3232.05839,13.97967-.84027,2.98819-.5767,6.21508.09883,9.33571.18838,4.31323.12381,8.63351.11554,12.93875.36828a58.4628,58.4628,0,0,1,10.88111,1.90691c-.0353-.50785-.07086-.85819-.47369-1.01452-2.46458-.95641-5.12283-1.08012-7.66215-1.83-3.38536-.99973-7.008-.9158-10.56771-1.00534-3.44061-.08655-6.86841-.59916-10.30947-.77728-2.79033-.14444-5.55153.51251-8.38267.39333-1.11964-.04714-2.45271.4514-3.743.48778-2.04523.05767-4.13848-.30707-6.08974-.14288-2.76425.23258-5.46213,1.17921-8.33121,1.19733-3.49668.022-6.9426.94777-10.46127.84278-.62972-.0188-1.30176.89267-1.89219-.06787.294-.69805.83041-.74234,1.54316-.83213,3.45633-.4354,6.93774-.8554,10.386-1.11178,3.5222-.26185,7.06311-.51951,10.59283-.77839a167.95962,167.95962,0,0,1,17.79043-.52812c4.14395.13459,8.32393.07867,12.47009.30473,5.28883.28838,10.42484,1.6301,15.5819,2.802,2.22519.50565,4.365,1.36551,5.51326,3.1266,1.86808,2.8651,4.50519,5.56431,3.66638,9.59586-.2598,1.24855-1.39494,1.721-1.7762,2.78229a1.30229,1.30229,0,0,1-1.06562-.01013c-.61683-.44553-.39145-1.08773-.18648-1.71427.77168-2.35866.37043-4.13232-1.46435-5.04045a15.37869,15.37869,0,0,0-3.59213-1.73715c-2.51758-.46387-4.9-1.50451-7.53111-1.52914-3.28585-.03074-6.37844-1.46357-9.677-1.57377-6.57169-.21955-13.17257-.79794-19.70591.04417-5.45019.7025-10.96656-.05688-16.33781.9181-4.86822.88367-9.824.86986-14.69049,1.89C186.9668,292.32135,184.84792,292.29622,182.85914,292.7358Zm34.48914-5.88095c-1.34993-.26488-2.70471-.6201-4.07.1797C214.73388,287.91541,216.04367,287.43361,217.34828,286.85485Zm-22.2821,1.76452c-1.79915-1.06345-2.72813-.01212-4.31567.67292Zm45.55217-1.438c-.79763-.49884-1.57308-1.21069-2.627-.4719C238.97416,286.45015,239.64291,287.411,240.61835,287.18141Z"/><g id="_45W0Vf" data-name="45W0Vf"><path class="cls-1" d="M65.13117,261.64292c1.17711-1.01283,1.45974-2.4479,1.816-3.848a14.09752,14.09752,0,0,1,.42878-1.63177c.16824-.43392.197-1.27014.82222-1.06879.64188.2067.097.8886.0666,1.36234-.01669.2602-.332.48664-.0466.8396.76763-.95236.45028-2.33512,1.33907-3.20061.22555-.21963.33787-.65922.72631-.52562.49426.17.34062.63439.213.96427a11.49129,11.49129,0,0,0-.94717,4.05373,89.585,89.585,0,0,0,3.0952-10.48112c-.38562.20141-.5068.90394-1.05136.56859-.38671-.23814-.30245-.65578-.20218-1.023.29629-1.08494.58748-2.17208.92335-3.245.123-.39305.35479-.91066.87563-.63481.4143.21942.17694.655-.02986.98663-.22493.36072-.4747.72228-.07809,1.22958,4.08468-10.49916,8.9534-20.60378,13.20189-30.99562a31.94413,31.94413,0,0,0-4.59581,6.34126,1.62,1.62,0,0,0-.19726,1.351c.14121.37645.16438.804-.23459.9999a1.3228,1.3228,0,0,0-.824,1.80617c.04523.1344-.08613.47208-.16936.48413-1.10613.16023-1.37285,1.30045-2.14644,1.92731-.33259-.68774.03119-1.17288.198-1.67957,2.989-9.08027,7.60089-17.475,11.12975-26.32813.8526-2.139,3.63071-4.46927,6.74843-3.28245,3.03833,1.1566,4.48411,3.54879,2.18949,7.11553A93.02406,93.02406,0,0,0,93.35,212.02766q-5.10369,10.11359-9.85526,20.39928a85.14615,85.14615,0,0,0-3.661,8.64469c-1.02965,3.07091-2.286,6.08455-3.142,9.24876-1.08789,4.02143-2.00366,8.09786-3.2244,12.08775-.22019.71969-.82036,1.79419-.12985,2.21837.73242.44992,1.29278-.65608,1.87594-1.143a232.55139,232.55139,0,0,0,18.073-16.32478A205.354,205.354,0,0,0,112.7974,224.043c3.93176-5.47065,8.12925-10.805,10.74317-17.11608.2154-.52008.49109-1.01619.69024-1.54182a8.70229,8.70229,0,0,0-.938-8.68662c-.4877-.67565-1.23287-1.37608-.56973-2.24628a1.8782,1.8782,0,0,1,2.45785-.769.57956.57956,0,0,0,.40744.0729,3.37865,3.37865,0,0,1,3.88938.72558,8.41282,8.41282,0,0,1,2.97219,4.975,9.33851,9.33851,0,0,1-.0961,3.358c-.94171,4.75725-3.4034,8.85289-5.8864,12.8677a157.91346,157.91346,0,0,1-11.345,15.70674c-2.98279,3.71444-5.86112,7.5303-8.96529,11.14093A163.3825,163.3825,0,0,1,81.215,266.44684a14.355,14.355,0,0,1-8.96827,3.10882,5.476,5.476,0,0,1-3.3076-1.22782,8.50068,8.50068,0,0,1-2.94543-4.96374,5.44965,5.44965,0,0,0-.86254-1.43942Zm60.6383-49.749A364.51451,364.51451,0,0,1,100.1558,244.992,175.84107,175.84107,0,0,0,125.76947,211.894Z"/><path class="cls-1" d="M246.31671,253.71493a7.60084,7.60084,0,0,0,5.48771-2.82968c2.18274-3.007,4.95052-5.62446,6.35089-9.18737a6.43858,6.43858,0,0,1,1.35127-1.95694c2.07854-2.20389,4.1546-4.415,6.33266-6.51879a36.7786,36.7786,0,0,1,7.59631-5.55393c2.09313-1.17508,6.02472-.5308,7.24226,2.34335.14877.35124.25617.72386.68486.82241,1.47751.33969,2.2626,1.69466,3.53131,2.4006,1.59734.8888,2.08081,3.93807,1.30566,5.615-1.63407,3.53491-3.22863,7.088-4.84736,10.63005-1.20872,2.64486-2.43234,5.283-3.38773,8.03448-.16654.47961-.519.98543-.14678,1.464.41429.53274,1.0335.34543,1.56948.20232a20.58581,20.58581,0,0,0,4.97-2.295c1.38-.8018,2.71559-1.68672,4.13143-2.4175.69894-.36076,1.50317-1.13365,2.33471-.12323.14124.17163.34047.10421.51411.01811.68112-.33775,1.1978-.99615,2.06539.04018.3746.44745,1.3092-.328,1.30133-1.281-.014-1.6867-.301-3.412.18246-5.049,1.74067-5.89316,3.435-11.816,6.4258-17.23749,1.02311-1.85461,1.71118-3.88461,2.84712-5.65424a109.07039,109.07039,0,0,1,7.185-10.35832c1.35863-1.65989,2.77349-3.31372,4.0028-5.103.66642-.97,2.00347-1.37912,2.56362-2.54512-.19606-.26084-.76279.22134-.7569-.305a1.20736,1.20736,0,0,1,.97321-1.08637,4.2886,4.2886,0,0,0,2.96362-2.60963,11.06412,11.06412,0,0,1,2.38551-3.54883,16.83619,16.83619,0,0,1,2.44-2.33111c2.17837-1.82468,4.77491-2.21264,6.90742-1.02557,1.85906,1.03485,3.18634,4.21761,2.76087,6.67571a17.84584,17.84584,0,0,1-1.84756,4.99411c-5.09979,10.0783-12.11306,18.737-19.82462,26.88562a42.84422,42.84422,0,0,1-4.45008,4.5028c-1.12045.87949-2.2771,1.68171-3.8476,1.10068-.69943-.25876-.88612.3544-1.07467.822a39.01837,39.01837,0,0,0-1.53017,4.6788,46.60438,46.60438,0,0,0-1.95428,10.31622,3.222,3.222,0,0,0,3.12474,3.66311,16.74643,16.74643,0,0,0,8.3926-1.98953,53.9576,53.9576,0,0,0,11.01792-7.52967c.564-.46871,1.274-1.62893,2.05016-.68568.70968.86247-.25072,1.57908-.95249,2.16375-1.91547,1.59589-3.98817,2.97427-6.02233,4.4066a2.7249,2.7249,0,0,0-1.42482,1.856,6.37939,6.37939,0,0,0,3.04361-1.13009c2.27853-1.59917,4.71314-3.1195,6.173-5.64848.13706-.23744.30163-.59106.61923-.41943.45142.244.19147.66076.06918.99391a17.914,17.914,0,0,1-9.06546,9.91041,26.16687,26.16687,0,0,0-3.5026,2.35341c-3.07437,2.27591-6.55849,2.64545-10.19451,2.24739a4.63833,4.63833,0,0,1-3.84191-2.51978c-1.23245-2.38728-3.25564-4.23439-4.51193-6.60421-.50851-.95924-.88014-.79044-1.6165-.08215-3.62725,3.489-7.39887,6.70861-12.30759,8.45444a6.65213,6.65213,0,0,1-7.43383-1.77013,13.75055,13.75055,0,0,1-3.36529-5.43363,8.30548,8.30548,0,0,1,.3397-5.79517c-.79506.14027-1.045.67621-1.36848,1.057a113.12729,113.12729,0,0,1-10.09983,10.57192c-4.7986,4.35944-9.00925,1.52776-10.89864-3.27609-.94731-2.40853-.74955-2.48632-.12279-4.071-.19094-.17063-.37224-.04764-.48492.075-2.19154,2.3849-5.08951,3.83181-7.63192,5.74964a19.38666,19.38666,0,0,1-4.60313,2.41206c-3.86827,1.53668-6.63072.58825-9.29682-2.60448-2.29024-2.74264-2.71975-5.83131-2.65626-9.1585.00764-.40015.23732-.92641-.24719-1.14374-.47852-.21463-.73386.29551-1.02707.56677-4.55156,4.21091-9.30019,8.19275-14.11874,12.09029-2.4008,1.94192-4.888,2.12008-6.65188.47355a14.8734,14.8734,0,0,1-2.47689-3.73734c-.51523-.90761-.70386-.80836-1.46539-.22039-2.65339,2.04864-5.19055,4.33893-8.7052,4.89725a10.14048,10.14048,0,0,1-10.86852-5.28113c-1.12058-2.04911-2.67118-3.8894-3.13989-6.26057-.66183-3.34811.147-6.57071,1.18692-9.67174a100.95623,100.95623,0,0,1,7.42912-16.083,86.662,86.662,0,0,1,5.92312-9.90338c.28558-.38995.77014-.84684.44421-1.37967-.31507-.51509-.94484-.33862-1.43426-.29835-1.77513.14606-3.5435.37594-5.31909.51421a12.40936,12.40936,0,0,1-3.64116-.22357,5.01761,5.01761,0,0,1-3.92354-4.8695c.01577-.53974.28562-1.06425.86139-.61126,2.66514,2.09679,5.75091,1.21249,8.67807,1.24106,2.012.01963,4.02971-.22124,6.04461-.00212a2.90883,2.90883,0,0,0,2.754-1.29172c2.20862-2.692,3.314-5.97228,4.95857-8.96147a26.05873,26.05873,0,0,1,3.49014-5.26885c1.39812-1.51483,1.82932-3.57492,3.1048-5.16334,1.386-1.72608,2.72993-1.61749,4.72992-.67036,1.61605.76529,1.83349,2.11637,2.482,3.283.84956,1.52819.47288,2.94764-.69036,4.38116-2.21445,2.729-4.18855,5.65185-6.30049,8.46567-1.03294,1.37624-1.794,2.98822-3.36106,3.922-.54237.32318-.384.70656.12319.92233a2.31551,2.31551,0,0,0,.95193.19484c3.33478-.11343,6.65628.21169,9.98513.27754a4.92863,4.92863,0,0,0,1.12055-.07123,2.44071,2.44071,0,0,1,3.27284,1.96391c.07722.26945.10085.55382.15932.82915.45812,2.15737.16338,2.31-1.96359,2.074a68.08089,68.08089,0,0,0-8.64552-.63673c-2.611.04337-5.22736-.05059-7.83625-.18387a1.62178,1.62178,0,0,0-1.633.78856,57.48442,57.48442,0,0,1-4.51516,5.90311c-.7573.85336-1.71562,1.88423-1.42783,3.30834.05837.28882-.04272.45472-.35005.45415-.24369-.00045-.60219.0369-.58611.26339.14809,2.08606-2.35771,2.61948-2.60217,4.487-.03947.30148-.28124.5658-.05609.89005a.74037.74037,0,0,1-.15379,1.018c-1.75671,1.72944-2.38072,4.16016-3.79259,6.10323a.97259.97259,0,0,0-.24537,1.03309,3.63764,3.63764,0,0,1-.9506,4.40657,1.49407,1.49407,0,0,0-.571,1.53723c.213,2.13315-.6555,4.147-.88133,6.24453a35.90734,35.90734,0,0,0-.21616,4.071q.02019,3.30795,3.34888,2.81719a12.66617,12.66617,0,0,0,3.4832-1.09222,66.78573,66.78573,0,0,0,11.47037-6.84067,12.16727,12.16727,0,0,0,3.63358-4.92078,14.04923,14.04923,0,0,1,1.81278-2.94491,10.96234,10.96234,0,0,0,1.64417-2.7746,47.28294,47.28294,0,0,1,6.14255-10.40917,3.919,3.919,0,0,1,5.9-.97752c1.72534,1.18492,2.08919,3.89306.70977,6.07946a35.76622,35.76622,0,0,1-5.44844,6.98123c-3.343,3.17482-5.31163,7.24143-7.57072,11.12692-.65973,1.1347-1.21743,2.32871-1.82233,3.49532-.12575.24251-.39586.5049-.203.76057.2386.31631.61049.1672.90386.02611a9.67008,9.67008,0,0,0,1.098-.62829,34.20123,34.20123,0,0,0,6.20526-5.0708c4.05453-4.29681,8.25478-8.451,12.23423-12.82468a140.835,140.835,0,0,1,10.96984-11.03618c.94021-.828,1.92919-1.544,3.29116-1.02173.35121.13467.91835.34921.83463.65172-.37943,1.371.59013,1.279,1.40952,1.58688a2.4894,2.4894,0,0,1,1.35992,2.44,7.68544,7.68544,0,0,1-1.66658,5.51425,122.584,122.584,0,0,0-8.81869,12.87159A59.17844,59.17844,0,0,0,230.612,257.494c-.18952.408-.46633.90793-.09576,1.32606.40331.455.98484.27991,1.45741.12388a22.64367,22.64367,0,0,0,4.72437-2.17591c3.08209-1.88528,6.30723-3.53866,9.23262-5.67932.3318-.24279.73721-.63676,1.12521-.329.47844.37952-.08813.60732-.2886.8764a.37008.37008,0,0,0-.05422.24357C248.172,252.65631,246.69814,252.94264,246.31671,253.71493Zm32.214-19.6287a5.8035,5.8035,0,0,0-3.14636,1.20908,57.80465,57.80465,0,0,0-10.15881,9.05406,75.16566,75.16566,0,0,0-9.65677,12.5989,16.67242,16.67242,0,0,0-1.21051,2.53421c-.17391.43467-.65448,1.0202-.07756,1.3946.556.36083,1.10558-.10268,1.47724-.50989,2.419-2.65016,5.5064-4.609,7.66068-7.55022a10.19034,10.19034,0,0,1,3.08322-2.44871c1.02032-.61978,1.00725-2.77777,2.153-3.30392,1.41888-.65156,1.57053-2.08238,2.54479-2.83271,1.33857-1.03088,1.82253-3.0626,3.83736-3.27967.04872-.00525.13249-.16516.11529-.23075-.27121-1.0346.18783-1.24109,1.109-1.05834.20745.04115.41025-.3047.3335-.52962-.2774-.81288.2989-1.20692.75488-1.66213a7.508,7.508,0,0,0,1.47508-2.36852C279.166,234.33547,279.02966,234.047,278.53069,234.08623Zm28.54735,1.3373a3.59894,3.59894,0,0,0,1.40145-1.16943c1.854-2.05552,3.67922-4.137,5.53323-6.19253a107.77688,107.77688,0,0,0,16.54735-23.53222c.2704-.53581.97-1.25681.3357-1.7098-.46478-.33194-.99507.50563-1.43658.89464-3.8632,3.40364-6.68709,7.70374-9.93576,11.63334a71.09473,71.09473,0,0,0-4.76856,6.83113c-2.44059,3.77953-4.69656,7.67233-7.11595,11.46252A2.55389,2.55389,0,0,0,307.078,235.42353ZM215.93,256a62.73047,62.73047,0,0,0,16.34351-15.40892c-.56124-.00558-.83742.38259-1.15955.68724-2.17337,2.05544-4.2458,4.23042-6.53463,6.14731-2.13429,1.78747-3.66125,4.41759-6.67309,5.05674a.27871.27871,0,0,0-.17207.20378C217.7946,254.1477,216.60578,254.92717,215.93,256Zm-37.77165-7.92828c3.41336-10.92087,9.12028-20.69042,15.19593-30.27488A98.146,98.146,0,0,0,178.15839,248.07173Zm127.86983-20.66a159.684,159.684,0,0,1,16.54147-22.51966c-.99868-.05185-1.83244.01269-2.10427.85536a10.6516,10.6516,0,0,1-2.22378,3.37758c-2.52694,3.08966-4.85943,6.31961-7.06388,9.64062A73.48176,73.48176,0,0,0,306.02822,227.41174Z"/><path class="cls-1" d="M163.84774,230.72032c1.47827-1.03737,2.96-2.06988,4.43386-3.11345a16.82059,16.82059,0,0,1,4.906-2.71421c1.37058-.3993,2.76877-.68754,3.88346.64986a1.63985,1.63985,0,0,0,.61483.31544c1.65365.71728,2.19531,1.69242,1.66466,3.46831a15.59941,15.59941,0,0,1-5.82219,8.73389,27.23293,27.23293,0,0,1-3.09309,1.947c-.46177.239-1.2237,1.13036-1.64386-.17892-.03048-.095-.51083-.044-.78182-.06378-.34187-.02489-.75858.43986-1.00573-.03752-.181-.34958.11084-.71663.2972-1.04071,1.14383-1.989,2.78324-3.67319,3.60611-5.85928.12644-.33591.45654-.60654.32684-1.09427a48.76316,48.76316,0,0,0-7.66795,5.67369,69.96105,69.96105,0,0,0-9.67624,10.20039,7.54036,7.54036,0,0,1-2.634,2.4929,1.67483,1.67483,0,0,0-.59083.58c-2.18058,3.28348-4.36925,6.56192-6.51135,9.87046a11.05409,11.05409,0,0,0-1.80374,4.2459,4.37352,4.37352,0,0,1-1.05,1.97241c-.58693.72606-1.151.79946-1.549-.19565-.08123-.20312.02146-.59444-.26141-.58368-1.74452.06636-2.01879-1.46862-2.72762-2.49364-.39892-.57685-.7356-.66267-1.22521-.19594-2.50788,2.39066-5.96091,2.73478-8.97353,3.97374-3.07209,1.26341-7.21142-.90017-8.62727-3.88872-.32216-.68-.56056-1.40532-1.5127-1.45461-.36906-.01911-.50452-.38808-.60306-.70631a11.176,11.176,0,0,1,.09606-7.955,166.864,166.864,0,0,1,11.1045-21.15781,25.25762,25.25762,0,0,0,1.83572-3.48406,2.78854,2.78854,0,0,1,3.654-1.59083c3.004,1.05287,4.62964,5.58943,2.86612,8.26974-3.3,5.01563-6.83346,9.894-9.7028,15.17442-1.5068,2.773-3.28629,5.48947-3.604,8.77525a2.31933,2.31933,0,0,1-.124.40086c-.15786.54221-.97992.99471-.41491,1.61666.51673.56881,1.24145.20442,1.8643.05289a56.28646,56.28646,0,0,0,14.84213-6.325,3.04944,3.04944,0,0,0,1.15079-1.38347c1.20923-2.39686,2.81169-4.54615,4.24086-6.80543,2.75834-4.3605,5.28989-8.86458,8.05316-13.22181a74.79837,74.79837,0,0,0,4.39914-7.68782c.98436-2.0533,2.39463-2.69838,4.60936-2.33964a4.42663,4.42663,0,0,1,3.918,3.84357C164.80451,228.60872,163.92385,229.47739,163.84774,230.72032Zm-14.9916,18.50041c-.404-.04714-.60391.22976-.79129.48-2.52812,3.37663-4.58016,7.059-6.80837,10.62823-.20327.32561-.37489.76958.01952,1.00732.56189.33871.72637-.252.88686-.58711a28.47054,28.47054,0,0,1,2.29124-4.01422c1.36307-1.95655,2.66095-3.95946,3.94638-5.96838C148.67917,250.331,149.137,249.88519,148.85614,249.22073Zm-5.73451,2.90021c3.06947-3.53646,5.03688-7.7706,7.40289-11.7524A71.2109,71.2109,0,0,0,143.12163,252.12094ZM123.296,243.93781a44.5916,44.5916,0,0,0-5.32542,11.919.94284.94284,0,0,0,.55755,1.28722C119.31379,252.3805,121.26917,248.16668,123.296,243.93781Z"/><path class="cls-1" d="M141.934,204.69485c2.51158.0548,5.693,2.75284,6.06371,4.98a3.09709,3.09709,0,0,1-.99872,2.66363q-2.904,3.14418-5.85974,6.2404a2.60577,2.60577,0,0,1-3.65137.49111,4.74316,4.74316,0,0,1-2.16808-4.78068,16.40107,16.40107,0,0,1,3.90388-8.11012A4.37831,4.37831,0,0,1,141.934,204.69485Z"/><path class="cls-1" d="M72.94038,241.79119c1.23442-2.68495,1.47128-5.958,3.19818-8.69622.24586-.38985.58457-.88785,1.09626-.6726.63555.26737.22377.80536.07,1.20031q-1.67283,4.29588-3.39067,8.57411c-.11876.29552-.11868.85163-.66452.68475C72.873,242.7664,72.96354,242.34669,72.94038,241.79119Z"/></g><path id="SVGID" class="cls-1" d="M9.79569,160.142H89.22634v.62791H9.79569Z"/><rect class="cls-1" x="9.79569" y="160.14195" width="79.43065" height="0.62791"/><rect class="cls-1" x="9.79569" y="160.14195" width="79.43065" height="0.62791"/><g class="cls-2"><path class="cls-1" d="M9.79569,160.142H89.22634v.62791H9.79569Z"/></g><path class="cls-1" d="M118.42417,116.91033c.6907-.18838,1.507-.37675,2.57443-.56512a18.59291,18.59291,0,0,1,3.26514-.25116,7.55453,7.55453,0,0,1,2.88839.43954,4.41452,4.41452,0,0,1,1.82093,1.31861,4.969,4.969,0,0,1,.94187,2.00932,11.11709,11.11709,0,0,1,.314,2.57443V130.222h-3.83025v-7.34654a5.24264,5.24264,0,0,0-.50233-2.63722,2.05566,2.05566,0,0,0-1.88373-.7535,4.44736,4.44736,0,0,0-.87907.0628c-.314,0-.56512.06279-.81629.06279V130.222h-3.893V116.91033Zm-7.15817,6.3419a5.21687,5.21687,0,0,0-.69071-2.8256,2.63918,2.63918,0,0,0-4.14421,0,4.71514,4.71514,0,0,0-.75349,2.8256,5.06033,5.06033,0,0,0,.75349,2.88839,2.54494,2.54494,0,0,0,4.14421,0,5.4538,5.4538,0,0,0,.69071-2.88839m3.95583,0a8.82514,8.82514,0,0,1-.43953,2.95117,6.7201,6.7201,0,0,1-1.3814,2.32327,6.28366,6.28366,0,0,1-4.89771,2.00931,7.72767,7.72767,0,0,1-2.7628-.50233,6.30257,6.30257,0,0,1-2.13489-1.507,6.53167,6.53167,0,0,1-1.3814-2.32327,8.92012,8.92012,0,0,1,0-5.90235,6.83643,6.83643,0,0,1,1.3814-2.26048,6.12582,6.12582,0,0,1,2.13489-1.4442,6.46383,6.46383,0,0,1,2.7-.50233,7.38321,7.38321,0,0,1,2.7.50233,7.12057,7.12057,0,0,1,2.1349,1.4442,6.8361,6.8361,0,0,1,1.3814,2.26048,7.4931,7.4931,0,0,1,.56511,2.95118M94.06126,130.536c-2.95118,0-5.21166-.81629-6.71864-2.44885-1.56978-1.63257-2.32327-3.95583-2.32327-6.9698a11.46548,11.46548,0,0,1,.69071-4.01863,8.11545,8.11545,0,0,1,4.8977-4.77212,10.20675,10.20675,0,0,1,3.70467-.62791,10.58481,10.58481,0,0,1,2.0721.18838c.62791.12558,1.193.25116,1.63257.37675a12.3576,12.3576,0,0,1,1.193.43953,2.24816,2.24816,0,0,1,.6907.37675l-1.193,3.26513a7.86277,7.86277,0,0,0-1.94653-.75349,10.17117,10.17117,0,0,0-2.51164-.31395,5.83363,5.83363,0,0,0-1.82093.31395,3.7566,3.7566,0,0,0-1.56978,1.00466,6.06081,6.06081,0,0,0-1.13024,1.75815,8.27048,8.27048,0,0,0-.43953,2.63723,9.09326,9.09326,0,0,0,.25116,2.32326,5.79423,5.79423,0,0,0,.87907,1.88373,4.72777,4.72777,0,0,0,1.63257,1.25582,5.58649,5.58649,0,0,0,2.38606.43954,11.36385,11.36385,0,0,0,1.56977-.12558,6.33292,6.33292,0,0,0,1.25582-.25116,8.21258,8.21258,0,0,0,.94187-.314,3.841,3.841,0,0,1,.75349-.31395l1.13024,3.26513a7.65578,7.65578,0,0,1-2.44885.94186,12.13136,12.13136,0,0,1-3.57908.43954M78.5519,121.93363a2.51963,2.51963,0,0,0-.18838-.94186,3.38338,3.38338,0,0,0-.43953-.81629,2.51241,2.51241,0,0,0-.7535-.62791,2.99894,2.99894,0,0,0-1.13024-.25116,2.15042,2.15042,0,0,0-1.13024.25116,1.71423,1.71423,0,0,0-.75349.56511,2.93736,2.93736,0,0,0-.50233.87908,4.70378,4.70378,0,0,0-.25116,1.00466h5.14886Zm-9.1047,1.4442a8.56339,8.56339,0,0,1,.56512-3.20235,5.95146,5.95146,0,0,1,1.507-2.26048,6.30705,6.30705,0,0,1,2.07211-1.3814,6.73327,6.73327,0,0,1,2.44885-.43954,6.10609,6.10609,0,0,1,4.64654,1.75815,7.39706,7.39706,0,0,1,1.69535,5.27445v.75349c0,.25116-.06279.50233-.06279.6907H73.46582a2.33408,2.33408,0,0,0,1.13024,1.88373,4.83381,4.83381,0,0,0,2.63722.69071,11.05637,11.05637,0,0,0,2.07211-.18838,7.87593,7.87593,0,0,0,1.69536-.50233l.50233,3.13955a5.607,5.607,0,0,1-.81629.314,6.67027,6.67027,0,0,1-1.193.25116c-.43953.06279-.87907.12558-1.3814.18837a11.60372,11.60372,0,0,1-1.4442.0628,8.1179,8.1179,0,0,1-3.20234-.56512,5.95143,5.95143,0,0,1-2.26047-1.507,5.1351,5.1351,0,0,1-1.31861-2.26048,7.16735,7.16735,0,0,1-.43954-2.7m-2.57443-.0628a8.81173,8.81173,0,0,1-.50233,2.95118,6.83627,6.83627,0,0,1-1.3814,2.26048,6.0735,6.0735,0,0,1-2.26048,1.44419,8.91279,8.91279,0,0,1-3.014.50233,13.14177,13.14177,0,0,1-1.507-.06279l-1.507-.18838a11.5875,11.5875,0,0,1-1.44419-.25116c-.43954-.12558-.87908-.18837-1.193-.314V110.44287l3.89305-.62791v6.84422a8.89227,8.89227,0,0,1,1.3814-.43954,5.86859,5.86859,0,0,1,1.507-.12558,6.48654,6.48654,0,0,1,2.57443.50233,4.74739,4.74739,0,0,1,1.88373,1.4442,6.37458,6.37458,0,0,1,1.13025,2.26048,9.20573,9.20573,0,0,1,.43953,3.014m-3.95584-.12558c0-2.51164-.94186-3.76746-2.7628-3.76746a7.69381,7.69381,0,0,0-1.193.12558,7.31007,7.31007,0,0,0-.94187.37675v7.09539a2.5875,2.5875,0,0,0,.75349.06279c.314,0,.62791.0628.94187.0628a2.79547,2.79547,0,0,0,2.38606-1.06745,4.92514,4.92514,0,0,0,.81628-2.88839m-12.68378,6.53026c-.6907.18838-1.507.37675-2.57443.56512a18.59191,18.59191,0,0,1-3.26513.25116,7.55431,7.55431,0,0,1-2.88839-.43954,4.41437,4.41437,0,0,1-1.82094-1.31861,5.39566,5.39566,0,0,1-.94187-2.00931,10.7026,10.7026,0,0,1-.31395-2.57444v-7.6605h3.83025v7.15817a5.69963,5.69963,0,0,0,.50233,2.7,1.94725,1.94725,0,0,0,1.88373.81628,4.44827,4.44827,0,0,0,.87908-.06279c.31395,0,.56512-.0628.81628-.0628V116.47081h3.893v13.24891Zm-17.95823.43954c-.37675-.56512-.81629-1.25582-1.31861-1.94653a23.52555,23.52555,0,0,0-1.63257-2.0721c-.56512-.69071-1.193-1.31862-1.82094-2.00931a22.93836,22.93836,0,0,0-1.88373-1.69536v7.6605H21.53761V112.01266H25.619v6.84421c1.06745-1.13024,2.1349-2.26048,3.20234-3.5163,1.06745-1.193,2.0721-2.32326,3.014-3.32792h4.83491c-1.25582,1.44419-2.44885,2.88839-3.70467,4.207-1.25582,1.3814-2.57443,2.7-3.95584,4.08142a33.935,33.935,0,0,1,4.207,4.26979,55.59986,55.59986,0,0,1,3.893,5.46282H32.27488Z"/><path class="cls-3" d="M64.92621,50.28905l-2.26048.50233c0-.31395-.06279-.62791-.06279-.94186a13.00267,13.00267,0,0,1,1.88374-6.78144l4.39537,3.893a.86665.86665,0,0,0,.25116.18838,7.16075,7.16075,0,0,0-.50233,2.07211c-.12558.06279-.314.06279-.43953.12558Zm8.53958-13.3117v6.15352a5.444,5.444,0,0,0-1.69536.87908c-.18837-.12558-.37674-.314-.56512-.43954l-4.45816-3.13955a12.38724,12.38724,0,0,1,6.71864-3.4535M42.88656,51.16813c2.1349-9.35587,3.95584-17.26754,6.09073-26.6234.94186-4.207,1.56977-5.33724,5.4-7.53492,5.27444-3.07676,9.23028-5.27445,14.88147-8.53958,3.5163-2.00932,4.207-1.88373,4.207,2.44885V32.64477a16.97465,16.97465,0,0,0-10.29773,5.21166l-1.88373-1.31861a.9076.9076,0,0,1-.43954-.62792,3.05822,3.05822,0,0,0-1.00465-1.507,2.05443,2.05443,0,0,0-2.57443,3.20234,2.17556,2.17556,0,0,0,1.00465.50233c.25117.06279.50233.06279.75349.12558a1.55136,1.55136,0,0,1,.56512.25117l1.75815,1.56977A17.19125,17.19125,0,0,0,58.396,49.72393c0,.62791.06279,1.25582.12558,1.88373l-3.83025.81629a3.86229,3.86229,0,0,0-.81629.06279l-.56512.18837c-2.51164.50233-5.02328,1.06745-7.59771,1.63257-3.45351.81628-3.57909.12558-2.8256-3.13955M77.924,43.13087V36.97735a13.20354,13.20354,0,0,1,6.71863,3.39072l-4.8349,3.4535c-.06279.06279-.12558.12558-.18838.12558a6.9777,6.9777,0,0,0-1.69535-.81628m10.80005,7.221-6.02794-1.3814a5.94548,5.94548,0,0,0-.50233-1.88374c.06279-.06279.12558-.12558.18837-.12558l4.45817-3.95583a13.11966,13.11966,0,0,1,1.94653,6.84422,1.224,1.224,0,0,0-.0628.50233M80.87513,17.13539c3.26513,1.56977,5.5884,2.7,8.85354,4.26979,4.52095,2.19768,9.04191,4.39537,13.62565,6.53026,1.13024,4.8977,2.26048,9.7954,3.32793,14.6931.6907,2.95118,1.00466,4.52095,1.69535,7.40935,1.06745,4.58374.94187,4.96049-3.76746,3.893L92.9938,51.29371a12.09766,12.09766,0,0,0,.0628-1.507,16.832,16.832,0,0,0-3.014-9.73261l1.63257-1.507a1.39375,1.39375,0,0,1,.6907-.314,3.28647,3.28647,0,0,0,1.69536-.62791,2.05443,2.05443,0,1,0-2.57444-3.20234h0a2.55658,2.55658,0,0,0-.75349.87907c-.12558.25117-.18837.43954-.31395.6907a.97652.97652,0,0,1-.37675.50233L88.1589,37.79363A17.14455,17.14455,0,0,0,77.86117,32.582V19.33307c.06279-3.07676.314-3.4535,3.014-2.19768M76.85651,56.69373a6.9541,6.9541,0,0,1-1.193.12558,6.82329,6.82329,0,0,1-1.13024-.06279l-.18838.37675-2.7628,5.08607a13.03831,13.03831,0,0,0,4.14421.6907,13.73173,13.73173,0,0,0,4.207-.6907l-2.7628-5.02328a2.20284,2.20284,0,0,1-.314-.50233m4.8977-3.32793,6.028,1.3814a13.02464,13.02464,0,0,1-4.89771,5.96515l-2.38606-5.77677A9.83674,9.83674,0,0,0,81.7542,53.3658M63.6076,54.68441l6.02793-1.3814a8.34534,8.34534,0,0,0,1.31861,1.63257l-.18837.37674-2.19769,5.4a12.934,12.934,0,0,1-4.96049-6.02794M112.96134,65.2961c-2.88839,3.57908-4.207,5.27444-7.09539,8.85353-3.26513,4.08142-5.90235,7.40934-9.16749,11.49076-2.32327,2.95117-4.01862,3.014-7.84888,3.014H62.47735c-5.02328,0-5.4,0-8.47679-3.893-3.07676-3.83026-5.46282-6.84423-8.47679-10.67448-2.38606-3.014-3.014-3.76746-5.4-6.78143-3.70468-4.64654-4.33259-6.34189,1.44419-7.59771l17.83265-4.01863A17.63262,17.63262,0,0,0,66.87272,64.731l-.81628,1.88373a1.10809,1.10809,0,0,1-.50233.56512,2.84756,2.84756,0,0,0-1.25582,1.31861,2.064,2.064,0,0,0,3.70217,1.826l.0025-.00508a3.35314,3.35314,0,0,0,.31395-1.13024,3.05654,3.05654,0,0,0-.06279-.75349,1.13214,1.13214,0,0,1,.12558-.62791l1.00466-1.82094A17.56482,17.56482,0,0,0,75.60067,67.117a16.65224,16.65224,0,0,0,6.2791-1.193L82.88443,67.745a1.02757,1.02757,0,0,1,.12558.75349,2.82517,2.82517,0,0,0,.25116,1.75815A2.064,2.064,0,1,0,86.96946,68.443l-.00362-.00737a2.623,2.623,0,0,0-.6907-.94187,3.81153,3.81153,0,0,0-.62791-.43953.77987.77987,0,0,1-.37675-.50233l-.81629-2.00931a17.22194,17.22194,0,0,0,7.40934-9.04191l19.6536,4.45816c3.95583,1.06745,3.70466,2.44885,1.44419,5.33724"/><path class="cls-3" d="M77.924,43.13087V36.97735a13.20354,13.20354,0,0,1,6.71864,3.39072l-4.8349,3.4535c-.06279.06279-.12558.12558-.18838.12558a6.9777,6.9777,0,0,0-1.69535-.81628m10.80005,7.221-6.02794-1.3814a5.94548,5.94548,0,0,0-.50233-1.88374c.06279-.06279.12558-.12558.18837-.12558l4.45817-3.95583a13.11966,13.11966,0,0,1,1.94653,6.84422,1.224,1.224,0,0,0-.0628.50233M80.87513,17.13539c3.26513,1.56977,5.5884,2.7,8.85354,4.26979,4.52095,2.19768,9.04191,4.39537,13.62565,6.53026,1.13024,4.8977,2.26048,9.7954,3.32793,14.6931.6907,2.95118,1.00466,4.52095,1.69535,7.40935,1.06745,4.58374.94187,4.96049-3.76746,3.893L92.9938,51.29371a12.09766,12.09766,0,0,0,.0628-1.507,16.832,16.832,0,0,0-3.014-9.73261l1.63257-1.507a1.39375,1.39375,0,0,1,.6907-.314,3.28647,3.28647,0,0,0,1.69536-.62791,2.05443,2.05443,0,1,0-2.57444-3.20234h0a2.55658,2.55658,0,0,0-.75349.87907c-.12558.25117-.18837.43954-.31395.6907a.97652.97652,0,0,1-.37675.50233L88.1589,37.79363A17.14455,17.14455,0,0,0,77.86117,32.582V19.33307c.06279-3.07676.314-3.4535,3.014-2.19768m.87907,36.23042,6.028,1.3814a13.02459,13.02459,0,0,1-4.89771,5.96515l-2.38606-5.77677a9.83674,9.83674,0,0,0,1.25582-1.56978m-6.09072,9.48145V56.81932a7.69407,7.69407,0,0,0,1.193-.12558,1.57324,1.57324,0,0,0,.25116.43953l2.76281,5.02329a13.732,13.732,0,0,1-4.207.6907m37.29787,2.44885c-2.88839,3.57908-4.207,5.27444-7.09539,8.85353-3.26513,4.08142-5.90235,7.40934-9.16749,11.49076-2.32327,2.95117-4.01862,3.014-7.84888,3.014H75.72628V67.117a16.65208,16.65208,0,0,0,6.2791-1.193L83.01,67.745a1.02758,1.02758,0,0,1,.12558.75349,2.8251,2.8251,0,0,0,.25116,1.75815,2.064,2.064,0,0,0,3.70467-1.82094,2.62266,2.62266,0,0,0-.6907-.94186,3.81262,3.81262,0,0,0-.62791-.43954.77979.77979,0,0,1-.37675-.50233l-.81629-2.00931a17.222,17.222,0,0,0,7.40934-9.04191l19.6536,4.45817c3.83025,1.06744,3.57908,2.44885,1.31861,5.33723"/><path class="cls-1" d="M258.63652,64.54261H248.21321V88.90553h24.30013V78.48222H258.63652Zm52.17935.06279V78.48222h-13.814l-.12559-.12558V88.90553h24.36292V64.54261H310.75306ZM248.21323,40.17969h10.48611l-.0628-.06279V26.24009h13.814l.06279.12558V15.81678H248.21323Zm48.663-24.36292V26.24009h13.93962V40.1797H321.2392V15.81678Z"/><path class="cls-4" d="M295.62043,40.17969,281.68082,26.24008h15.19543V15.81678H272.51334V26.36567l13.87682,13.814Zm-12.5582,24.36292h-9.23029l11.55355,11.55355,2.38605,2.38606H272.51332V88.90553h24.36292V78.35663l-6.907-6.907Zm27.75364-24.36292V55.37511l-2.38605-2.38606L296.87627,41.49829v9.23028l6.96981,6.907,6.907,6.907H321.2392V40.17969Zm-38.30253,13.814-13.814-13.814H248.15043V64.54261h10.48611V49.34719L272.51336,63.224Z"/><path class="cls-1" d="M197.22691,115.46613l-2.63723,3.13955a6.1729,6.1729,0,0,0-4.521-2.32326,5.04262,5.04262,0,0,0-5.02608,5.05912q.00024.07629.0028.15254a5.02144,5.02144,0,0,0,5.02328,5.27444,6.64,6.64,0,0,0,4.521-2.13489l2.7,2.82559a10.99377,10.99377,0,0,1-7.40933,3.26514,9.096,9.096,0,0,1-9.41865-9.23028c0-5.21166,4.14421-9.1047,9.607-9.1047a10.80648,10.80648,0,0,1,7.15818,3.07675Zm2.19768,15.06985V111.5103h4.45817V130.536Zm22.10245-6.907c0,4.26979-3.014,7.09539-7.53492,7.09539s-7.59772-2.8256-7.59772-7.09539,3.014-7.0326,7.59772-7.0326c4.52094,0,7.5349,2.76281,7.5349,7.0326Zm-10.67447.06279c0,2.13489,1.25582,3.57909,3.07675,3.57909s3.07676-1.4442,3.07676-3.57909-1.25582-3.57908-3.07676-3.57908-3.07677,1.44418-3.07677,3.57908Zm26.56059,6.84422H232.955V128.2755a4.89546,4.89546,0,0,1-4.521,2.44885c-3.014,0-4.96049-2.07211-4.96049-5.27445V116.722h4.45817v7.47213c0,1.63257.87907,2.63722,2.32327,2.63722,1.69537,0,2.7-1.3814,2.7-3.26513V116.722h4.45816Zm17.4559,0H250.4109V128.715a5.11865,5.11865,0,0,1-4.14422,2.00932c-3.89305,0-6.46746-2.8884-6.46746-7.15818,0-4.207,2.51164-7.03259,6.34189-7.03259a5.10338,5.10338,0,0,1,4.26979,2.00931v-7.03259h4.45816V130.536Zm-4.45816-6.84422c0-2.13489-1.25583-3.57908-3.07676-3.57908s-3.07676,1.44419-3.07676,3.57908,1.25582,3.64188,3.07676,3.64188C249.21787,127.27085,250.4109,125.82665,250.4109,123.69176Z"/><path class="cls-1" d="M271.13193,130.536l-8.28842-11.05122V130.536h-4.26978V112.57774h4.01862l8.28842,11.114v-11.114h4.26979V130.536Zm19.842-9.0419v9.0419h-4.33257V128.9662a5.0266,5.0266,0,0,1-4.207,1.82094c-2.95119,0-4.77212-1.82094-4.77212-4.33258,0-2.63722,1.88373-4.14421,5.33723-4.207h3.64188v-.18838c0-1.3814-.87907-2.19768-2.7-2.19768a10.57188,10.57188,0,0,0-4.14421,1.13024l-1.25582-2.95118a14.39254,14.39254,0,0,1,6.40469-1.56978C288.77622,116.53358,290.9739,118.41731,290.9739,121.49408Zm-4.33257,4.39537v-1.25582h-2.8256c-1.31862,0-2.00932.43953-2.00932,1.507,0,1.00466.6907,1.63257,1.94652,1.63257A2.87035,2.87035,0,0,0,286.64133,125.88945Zm16.32566,3.95583a7.90152,7.90152,0,0,1-3.70466.94187c-2.7,0-4.58374-1.507-4.58374-4.39537v-6.09073h-1.94653v-2.88839h1.94653V113.5824H299.074v3.83026h3.64187v2.95118H299.074v5.4c0,1.06744.43954,1.56977,1.25582,1.507a5.20081,5.20081,0,0,0,1.69537-.43954Zm6.78143-17.07915a2.29467,2.29467,0,0,1-2.20125,2.38443q-.061.00245-.122.00163a2.35487,2.35487,0,0,1,0-4.70933,2.20773,2.20773,0,0,1,2.32328,2.32326ZM305.16468,130.536V116.722h4.39537v13.814Zm11.30238,0-5.21164-13.814h4.58373l2.95119,9.79541,3.014-9.79541h4.39539L320.988,130.536Zm24.42571-5.714h-9.73261a3.23048,3.23048,0,0,0,3.26514,2.57444,4.93343,4.93343,0,0,0,3.32792-1.3814l2.32327,2.26048a7.84034,7.84034,0,0,1-6.02792,2.44884c-4.521,0-7.34656-2.82559-7.34656-7.03259,0-4.26979,2.95119-7.09539,7.221-7.09539,4.83492,0,7.221,3.20235,6.96979,8.22563Zm-4.26978-2.38606a2.60547,2.60547,0,0,0-2.7-2.82559c-1.56978,0-2.57442,1.13024-2.88837,2.82559H336.623Z"/><path class="cls-1" d="M358.97658,115.46613l-2.63723,3.13955a6.17283,6.17283,0,0,0-4.521-2.32326,5.04262,5.04262,0,0,0-5.02608,5.05912q.00024.07629.0028.15254a5.02146,5.02146,0,0,0,5.02328,5.27444,6.64,6.64,0,0,0,4.521-2.13489l2.7,2.82559a10.99368,10.99368,0,0,1-7.40933,3.26514,9.096,9.096,0,0,1-9.41866-9.23028c0-5.21166,4.1442-9.1047,9.607-9.1047A10.93762,10.93762,0,0,1,358.97658,115.46613ZM374.486,123.629c0,4.26979-3.014,7.09539-7.53493,7.09539s-7.59769-2.8256-7.59769-7.09539,3.014-7.0326,7.59769-7.0326C371.472,116.59637,374.486,119.35918,374.486,123.629Zm-10.6117.06279c0,2.13489,1.25582,3.57909,3.07677,3.57909s3.07678-1.4442,3.07678-3.57909-1.25582-3.57908-3.07678-3.57908-3.07673,1.44418-3.07673,3.57908ZM391,121.808V130.536h-4.39537v-7.47213a2.36269,2.36269,0,0,0-2.44887-2.63722,2.812,2.812,0,0,0-2.82559,2.8256v7.34654H376.872v-13.814h4.45815v2.26048a5.09662,5.09662,0,0,1,4.64655-2.44885c3.014-.06279,5.02328,2.00931,5.02328,5.21166Z"/><path id="SVGID-2" class="cls-1" d="M156.72669,7.71673h.62792V135.49647h-.62792Z"/><rect class="cls-1" x="156.72669" y="7.71674" width="0.62791" height="127.77975"/><rect class="cls-1" x="156.72669" y="7.71674" width="0.62791" height="127.77975"/><g class="cls-5"><path class="cls-1" d="M156.72669,7.71673h.62792V135.49647h-.62792Z"/></g><path class="cls-1" d="M117.02917,167.77105h-3.76746L107.171,157.22216h-.06279c.12558,1.88373.18837,3.20233.18837,4.01863v6.59306h-2.63722v-14.0024h3.76746l6.09073,10.48609h.0628c-.12558-1.82093-.12558-3.07675-.12558-3.83025v-6.59306H117.092v13.87682Zm12.99774-5.33724a5.64546,5.64546,0,0,1-1.3814,4.08142,4.92818,4.92818,0,0,1-3.83025,1.44419,5.38941,5.38941,0,0,1-2.7-.69071,4.56776,4.56776,0,0,1-1.82094-1.94652,6.2032,6.2032,0,0,1-.62791-2.95119,5.64546,5.64546,0,0,1,1.3814-4.08142,5.16082,5.16082,0,0,1,3.83026-1.44419,5.38943,5.38943,0,0,1,2.7.6907,4.56765,4.56765,0,0,1,1.82093,1.94653,6.20315,6.20315,0,0,1,.62791,2.95117Zm-7.34655,0a4.65582,4.65582,0,0,0,.50233,2.38606,1.94717,1.94717,0,0,0,1.69536.81627,1.87861,1.87861,0,0,0,1.69536-.81627,5.91809,5.91809,0,0,0,0-4.77213,2.16874,2.16874,0,0,0-3.39072,0A4.09317,4.09317,0,0,0,122.68036,162.43381Zm15.76056-5.52561a4.76464,4.76464,0,0,1,1.00466.0628l-.25116,2.7628a3.27256,3.27256,0,0,0-.87907-.12558,3.406,3.406,0,0,0-2.19769.6907,2.65137,2.65137,0,0,0-.75349,2.00932v5.46283h-2.88839V157.0966h2.19768l.43954,1.82093h.12558a3.65917,3.65917,0,0,1,1.31861-1.44419,3.32231,3.32231,0,0,1,1.88374-.56512Zm7.40934,8.728a7.37941,7.37941,0,0,0,1.82094-.314v2.19769a6.90473,6.90473,0,0,1-2.7.50232,3.44268,3.44268,0,0,1-2.57444-.87907,3.88816,3.88816,0,0,1-.81628-2.63723V159.357h-1.3814v-1.25582l1.63257-1.00466.81628-2.26048h1.88373v2.26048h3.014v2.19768h-3.014v5.14887a1.1846,1.1846,0,0,0,.37675.94186,1.51325,1.51325,0,0,0,.94187.25116Zm13.87682,2.13489h-2.88839v-6.21631c0-1.56977-.56512-2.32326-1.69536-2.32326a1.92007,1.92007,0,0,0-1.75815.81628,4.94,4.94,0,0,0-.56511,2.7v5.02328h-2.88839V152.88958h2.88839v3.014c0,.25116,0,.81629-.0628,1.63257l-.12558.94187h.12558a3.31322,3.31322,0,0,1,3.07676-1.56978,3.85772,3.85772,0,0,1,2.88839,1.00466,4.12535,4.12535,0,0,1,1.00466,2.88839v6.96979Zm16.828,0-1.00466-3.32792h-5.08608l-1.00466,3.32792h-3.20235l4.96049-14.0024h3.64187l4.96049,14.0024Zm-1.69537-5.83956c-.94186-3.014-1.44418-4.70932-1.56977-5.08607s-.18837-.69071-.25116-.94187c-.18837.81629-.81628,2.8256-1.82094,6.02794Zm16.01171,5.83956H187.983v-6.21631a3.48158,3.48158,0,0,0-.37675-1.75815,1.379,1.379,0,0,0-1.193-.56511,1.77247,1.77247,0,0,0-1.63257.81628,5.69948,5.69948,0,0,0-.50232,2.7v5.02328H181.39V157.09658h2.19769l.37675,1.3814h.18837a2.74891,2.74891,0,0,1,1.25582-1.13024,4.615,4.615,0,0,1,1.88373-.43954,3.3708,3.3708,0,0,1,3.26514,1.56978h.25116a2.74881,2.74881,0,0,1,1.25582-1.13024,4.61467,4.61467,0,0,1,1.88373-.43954,3.7777,3.7777,0,0,1,2.7628.94187,4.12823,4.12823,0,0,1,.94187,3.014v6.96981h-2.95119v-6.21631a3.48177,3.48177,0,0,0-.37675-1.75815,1.379,1.379,0,0,0-1.193-.56512,1.75249,1.75249,0,0,0-1.56978.75349,4.19367,4.19367,0,0,0-.50232,2.44885v5.27444Zm14.44194.18837a5.00852,5.00852,0,0,1-5.46283-5.46283,5.86477,5.86477,0,0,1,1.31862-4.14421,4.65154,4.65154,0,0,1,3.70466-1.4442,4.593,4.593,0,0,1,3.51631,1.31862,5.06785,5.06785,0,0,1,1.25582,3.57908v1.44419h-6.907a2.86755,2.86755,0,0,0,.7535,1.94653,2.71976,2.71976,0,0,0,1.94653.6907,8.525,8.525,0,0,0,1.82094-.18836,12.58565,12.58565,0,0,0,1.82093-.62791v2.26048a7.17159,7.17159,0,0,1-1.63257.56511C206.88314,167.89662,206.19243,167.95942,205.31336,167.95942Zm-.37675-8.97912a1.80163,1.80163,0,0,0-1.44419.56511,2.61711,2.61711,0,0,0-.62791,1.69536h4.08142a2.51313,2.51313,0,0,0-.56512-1.69536,1.8016,1.8016,0,0,0-1.44418-.56511Zm13.12332-2.07211a4.76468,4.76468,0,0,1,1.00466.0628l-.25116,2.7628a3.27262,3.27262,0,0,0-.87907-.12558,3.406,3.406,0,0,0-2.19769.69069,2.65148,2.65148,0,0,0-.7535,2.00932v5.46283h-2.88839V157.09658h2.19769l.43954,1.82093h.12559a3.65919,3.65919,0,0,1,1.31862-1.44419,3.32236,3.32236,0,0,1,1.88373-.56512Zm2.7628-2.57443c0-.94187.50232-1.4442,1.56978-1.4442s1.56977.50233,1.56977,1.4442a1.477,1.477,0,0,1-.37675,1.06744,1.69986,1.69986,0,0,1-1.193.37675c-1.00468,0-1.56978-.50231-1.56978-1.44417Zm3.07676,13.43727H221.0111V157.09656h2.88839Zm7.34656.18837c-3.32792,0-4.96049-1.82094-4.96049-5.46283a5.60687,5.60687,0,0,1,1.38141-4.14421,5.11552,5.11552,0,0,1,3.89305-1.4442,7.21214,7.21214,0,0,1,3.32792.75349l-.87907,2.26048c-.43955-.18837-.87907-.314-1.25582-.43953a3.94294,3.94294,0,0,0-1.193-.18838q-2.2605,0-2.26048,3.20235c0,2.0721.7535,3.13955,2.26048,3.13955a4.33528,4.33528,0,0,0,1.56978-.25116,5.05135,5.05135,0,0,0,1.44418-.6907v2.51164a4.81115,4.81115,0,0,1-1.44418.62791,14.84056,14.84056,0,0,1-1.88373.12559Zm12.5582-.18837-.56511-1.44418h-.0628a3.81949,3.81949,0,0,1-1.507,1.25582,4.58766,4.58766,0,0,1-2.00932.37675,3.53989,3.53989,0,0,1-2.44885-.87907,3.48582,3.48582,0,0,1-.87907-2.51164,2.80979,2.80979,0,0,1,1.193-2.51165,6.8063,6.8063,0,0,1,3.57909-.87907l1.88374-.06279v-.43955a1.46009,1.46009,0,0,0-1.63257-1.63257,7.5674,7.5674,0,0,0-3.014.75349l-.94186-1.94648a8.87333,8.87333,0,0,1,4.08141-.94187,5.24626,5.24626,0,0,1,3.32792.94187,3.46776,3.46776,0,0,1,1.13023,2.8256v7.09538h-2.13489Zm-.87907-4.96049-1.13023.0628a3.61328,3.61328,0,0,0-1.88373.43954,1.32957,1.32957,0,0,0-.62791,1.25583c0,.81627.50232,1.25582,1.44418,1.25582a2.34754,2.34754,0,0,0,1.63258-.56512,2.1219,2.1219,0,0,0,.62791-1.56978v-.87907Z"/><path class="cls-1" d="M262.98775,167.65552h-9.68233v-2.037l3.47681-3.51482q1.54435-1.58205,2.018-2.19278a4.81342,4.81342,0,0,0,.68187-1.13257,2.87467,2.87467,0,0,0,.20846-1.07984,1.57526,1.57526,0,0,0-.45928-1.2411,1.78244,1.78244,0,0,0-1.227-.40716,3.53388,3.53388,0,0,0-1.563.36914,8.09015,8.09015,0,0,0-1.582,1.05163l-1.59185-1.885a10.36724,10.36724,0,0,1,1.69609-1.2319,6.2542,6.2542,0,0,1,1.468-.55433,7.53511,7.53511,0,0,1,1.78133-.19377,5.275,5.275,0,0,1,2.29273.47339,3.65734,3.65734,0,0,1,1.544,1.32633,3.52561,3.52561,0,0,1,.54942,1.9518,4.787,4.787,0,0,1-.336,1.79543,6.89585,6.89585,0,0,1-1.04243,1.71939,25.41809,25.41809,0,0,1-2.48652,2.51037l-1.78133,1.67709v.13245h6.03506Z"/><path class="cls-1" d="M273.9866,160.73013a9.65324,9.65324,0,0,1-1.189,5.37158,4.12587,4.12587,0,0,1-3.66134,1.74331,4.0773,4.0773,0,0,1-3.61417-1.79973,9.51557,9.51557,0,0,1-1.2178-5.31516,9.74317,9.74317,0,0,1,1.18469-5.40469,4.60492,4.60492,0,0,1,7.27064.08033A9.53694,9.53694,0,0,1,273.9866,160.73013Zm-6.774,0a10.77282,10.77282,0,0,0,.44089,3.65218,1.52569,1.52569,0,0,0,1.4827,1.10375,1.5413,1.5413,0,0,0,1.47779-1.11785,14.78859,14.78859,0,0,0-.0049-7.29946,1.53411,1.53411,0,0,0-2.95069,0A10.7369,10.7369,0,0,0,267.21265,160.73013Z"/><path class="cls-1" d="M285.13753,167.65552H275.4552v-2.037l3.47681-3.51482q1.54436-1.58205,2.018-2.19278a4.81342,4.81342,0,0,0,.68187-1.13257,2.87467,2.87467,0,0,0,.20846-1.07984,1.57526,1.57526,0,0,0-.45928-1.2411,1.78244,1.78244,0,0,0-1.227-.40716,3.53388,3.53388,0,0,0-1.563.36914,8.09015,8.09015,0,0,0-1.582,1.05163l-1.59185-1.885a10.36724,10.36724,0,0,1,1.69609-1.2319,6.2542,6.2542,0,0,1,1.468-.55433,7.53511,7.53511,0,0,1,1.78133-.19377,5.275,5.275,0,0,1,2.29273.47339,3.65747,3.65747,0,0,1,1.544,1.32633,3.52577,3.52577,0,0,1,.54942,1.9518,4.787,4.787,0,0,1-.336,1.79543,6.89585,6.89585,0,0,1-1.04243,1.71939,25.41809,25.41809,0,0,1-2.48652,2.51037l-1.78133,1.67709v.13245h6.03506Z"/><path class="cls-1" d="M296.13638,160.73013a9.65324,9.65324,0,0,1-1.189,5.37158A4.12585,4.12585,0,0,1,291.286,167.845a4.0773,4.0773,0,0,1-3.61417-1.79973,9.516,9.516,0,0,1-1.2178-5.31516,9.74352,9.74352,0,0,1,1.18469-5.40469,4.60492,4.60492,0,0,1,7.27064.08033A9.53658,9.53658,0,0,1,296.13638,160.73013Zm-6.77395,0a10.77282,10.77282,0,0,0,.44089,3.65218,1.52569,1.52569,0,0,0,1.4827,1.10375,1.54128,1.54128,0,0,0,1.47779-1.11785,14.78859,14.78859,0,0,0-.0049-7.29946,1.53411,1.53411,0,0,0-2.95069,0A10.7369,10.7369,0,0,0,289.36243,160.73013Z"/><path id="SVGID-3" class="cls-1" d="M311.56937,160.142H391v.62791H311.56937Z"/><rect class="cls-1" x="311.56937" y="160.14195" width="79.43063" height="0.62791"/><rect class="cls-1" x="311.56937" y="160.14195" width="79.43063" height="0.62791"/><g class="cls-6"><path class="cls-1" d="M311.56937,160.142H391v.62791H311.56937Z"/></g></svg>