<svg xmlns="http://www.w3.org/2000/svg" xmlns:xlink="http://www.w3.org/1999/xlink" id="Layer_1" width="575.996" height="576" x="0" y="0" enable-background="new 512 32 575.996 576" version="1.1" viewBox="512 32 575.996 576" xml:space="preserve"><path fill="#3371E3" d="M1076.525,541.14L960.947,425.562c70.432-96.992,61.952-233.465-25.498-320.915	C887.015,56.218,823.533,32,760.051,32c-63.481,0-126.963,24.218-175.398,72.653c-96.87,96.871-96.87,253.926,0,350.796	c48.436,48.436,111.917,72.653,175.398,72.653c51.13,0,102.24-15.737,145.511-47.155l115.577,115.577	c7.643,7.648,17.671,11.476,27.693,11.476s20.051-3.827,27.693-11.476C1091.82,581.235,1091.82,556.436,1076.525,541.14z M623.424,416.679c-75.334-75.335-75.334-197.92,0-273.255c36.493-36.493,85.018-56.595,136.627-56.595	c51.61,0,100.135,20.096,136.628,56.595c75.334,75.334,75.334,197.92,0,273.255c-36.493,36.492-85.018,56.595-136.628,56.595	C708.441,473.273,659.923,453.171,623.424,416.679z"/></svg>