<svg id="Layer_1" data-name="Layer 1" xmlns="http://www.w3.org/2000/svg" viewBox="0 0 350 100"><defs><style>.cls-1{fill:#fff;}.cls-2{fill:#3073e6;}.cls-3{fill:#316ce6;}</style></defs><title>kubernetes_icons</title><rect class="cls-1" x="100.67897" y="50.30933" width="49" height="49" rx="4.81091"/><path class="cls-2" d="M117.26914,78.40729a2.86587,2.86587,0,1,1-2.86473-2.86473h2.86473Zm1.44487,0a2.86587,2.86587,0,0,1,5.73173,0v7.17659a2.86587,2.86587,0,1,1-5.73173,0Zm2.86586-11.50779a2.86587,2.86587,0,1,1,2.86587-2.86473V66.8995Zm0,1.44487a2.86586,2.86586,0,1,1,0,5.73172h-7.17546a2.86586,2.86586,0,1,1,0-5.73172Zm11.50666,2.86586a2.867,2.867,0,1,1,2.867,2.86586h-2.867Zm-1.44146,0a2.86643,2.86643,0,0,1-5.73286,0V64.03477a2.86643,2.86643,0,1,1,5.73286,0Zm-2.86814,11.50665a2.867,2.867,0,1,1-2.86472,2.867v-2.867Zm0-1.44145a2.86644,2.86644,0,0,1,0-5.73287h7.1766a2.86644,2.86644,0,1,1,0,5.73287Z"/><rect class="cls-1" x="0.71785" y="50.30933" width="49" height="49" rx="4.81091"/><path class="cls-2" d="M12.15408,83.02571a10.83819,10.83819,0,0,0,7.8815-2.18943c-.01987-.043-.04832-.029-.07034-.02953a5.2185,5.2185,0,0,1-2.04124-.49017,5.385,5.385,0,0,1-2.82725-3.137c-.036-.10577-.03221-.11114.07839-.09128a5.69375,5.69375,0,0,0,1.02277.07946,5.09992,5.09992,0,0,0,1.23054-.18093c-.11006-.029-.20563-.05261-.30065-.07892a5.40372,5.40372,0,0,1-3.413-2.85087,5.16461,5.16461,0,0,1-.48857-1.6477,5.89484,5.89484,0,0,1-.04617-.65447c-.00054-.10308.008-.10952.095-.06281a5.29257,5.29257,0,0,0,1.55267.54225,5.52643,5.52643,0,0,0,.64266.07678c.02684.00161.05476,0,.10576,0-.11167-.08429-.20616-.15194-.2969-.22442a5.334,5.334,0,0,1-1.96017-3.2181,5.17108,5.17108,0,0,1-.0859-1.31645,5.31994,5.31994,0,0,1,.655-2.28016c.06872-.12617.06282-.139.16107-.01933a14.82339,14.82339,0,0,0,1.29712,1.382,15.33592,15.33592,0,0,0,3.99068,2.71289,15.06787,15.06787,0,0,0,3.31635,1.1076,13.8935,13.8935,0,0,0,1.5371.23891c.23784.02255.47515.043.71245.06389.095.008.10416-.00215.08537-.094a5.21605,5.21605,0,0,1-.11651-1.18706,5.39571,5.39571,0,0,1,2.99583-4.74823,5.23258,5.23258,0,0,1,1.73468-.51541,5.3356,5.3356,0,0,1,3.64009.86761,4.903,4.903,0,0,1,.86547.72265.1412.1412,0,0,0,.14871.0451,10.90247,10.90247,0,0,0,2.35371-.77849q.444-.20616.86708-.45045a.17931.17931,0,0,1,.10415-.03489,5.48479,5.48479,0,0,1-2.28767,2.93247,9.835,9.835,0,0,0,1.52154-.299,10.722,10.722,0,0,0,1.45764-.51917c.022.03221-.00161.04885-.01234.06442a10.53183,10.53183,0,0,1-.92291,1.18115,10.646,10.646,0,0,1-1.65684,1.492.11116.11116,0,0,0-.04832.10631c.01074.49984.01826,1.00022-.01449,1.50006a15.58037,15.58037,0,0,1-.71084,3.74478,16.12018,16.12018,0,0,1-1.42114,3.20522,15.63215,15.63215,0,0,1-1.58543,2.24956,14.86116,14.86116,0,0,1-1.68045,1.689,14.34024,14.34024,0,0,1-2.94214,1.95158,14.62784,14.62784,0,0,1-3.7974,1.27243,16.3785,16.3785,0,0,1-1.63321.22441,16.11914,16.11914,0,0,1-1.99454.058,15.17154,15.17154,0,0,1-5.90629-1.40826,15.57389,15.57389,0,0,1-1.73039-.94331.12886.12886,0,0,1-.06281-.06066Z"/><rect class="cls-1" x="250.62066" y="50.30933" width="49" height="49" rx="4.81091"/><rect class="cls-2" x="266.73928" y="62.13199" width="6.08512" height="8.11349" rx="1.09532"/><rect class="cls-2" x="263.16393" y="66.18874" width="23.91345" height="21.29792" rx="1.27788"/><rect class="cls-1" x="264.83069" y="70.48165" width="4.5321" height="4.5321"/><rect class="cls-1" x="270.17913" y="70.48165" width="4.5321" height="4.5321"/><rect class="cls-1" x="275.52758" y="70.48165" width="4.5321" height="4.5321"/><rect class="cls-1" x="280.87602" y="70.48165" width="4.5321" height="4.5321"/><rect class="cls-1" x="264.83069" y="75.83009" width="4.5321" height="4.5321"/><rect class="cls-1" x="270.17913" y="75.83009" width="4.5321" height="4.5321"/><rect class="cls-1" x="275.52758" y="75.83009" width="4.5321" height="4.5321"/><rect class="cls-1" x="280.87602" y="75.83009" width="4.5321" height="4.5321"/><rect class="cls-1" x="264.83069" y="81.17854" width="4.5321" height="4.5321"/><rect class="cls-1" x="270.17913" y="81.17854" width="4.5321" height="4.5321"/><rect class="cls-1" x="275.52758" y="81.17854" width="4.5321" height="4.5321"/><rect class="cls-1" x="280.87602" y="81.17854" width="4.5321" height="4.5321"/><rect class="cls-1" x="268.20217" y="63.37316" width="3.15933" height="5.74531" rx="0.48502"/><rect class="cls-1" x="279.94249" y="64.16037" width="2.02837" height="5.07093" rx="0.36511"/><rect class="cls-2" x="277.95896" y="62.13199" width="6.08512" height="8.11349" rx="1.09532"/><rect class="cls-1" x="279.42186" y="63.37316" width="3.15933" height="5.74531" rx="0.48502"/><rect class="cls-1" x="150.65953" y="50.30933" width="49" height="49" rx="4.81091"/><path class="cls-3" d="M178.286,84.55882c0-.5708.01114-1.1416-.00265-1.71186a2.83387,2.83387,0,0,0-.73047-1.98931c-.122-.12626-.0435-.16021.07692-.17612a9.78159,9.78159,0,0,0,1.7177-.33527,5.29576,5.29576,0,0,0,2.84073-1.87366,5.62258,5.62258,0,0,0,.89227-2.1877,8.3018,8.3018,0,0,0,.16869-2.11663,4.65762,4.65762,0,0,0-1.08112-2.85346.55857.55857,0,0,1-.11989-.61377,4.3595,4.3595,0,0,0-.17878-2.90067.21377.21377,0,0,0-.22651-.14217,2.37338,2.37338,0,0,0-.9241.12838,9.57346,9.57346,0,0,0-2.1962,1.09809.41.41,0,0,1-.37133.06525,11.49572,11.49572,0,0,0-2.78185-.39255,11.66117,11.66117,0,0,0-2.18081.16975,7.8615,7.8615,0,0,0-.99784.218.45461.45461,0,0,1-.40953-.07109,8.3911,8.3911,0,0,0-2.60838-1.1835l-.02016-.0053c-.60634-.12308-.68113-.06738-.8493.522a4.25341,4.25341,0,0,0,.02547,2.68583.26948.26948,0,0,1-.08488.29813,4.77444,4.77444,0,0,0-1.09545,2.28638,6.17882,6.17882,0,0,0-.069,1.62168,8.04,8.04,0,0,0,.452,2.19938,4.48575,4.48575,0,0,0,2.19832,2.53888,7.67484,7.67484,0,0,0,2.74259.81164c.11936.01326.29176-.01645.33792.10291.03607.09443-.11883.17029-.1862.25623a2.5559,2.5559,0,0,0-.51351,1.19517.4265.4265,0,0,1-.31033.36656,3.55463,3.55463,0,0,1-1.74529.20371,2.18351,2.18351,0,0,1-1.366-.81853c-.1968-.22811-.33-.49866-.50926-.73843a2.60255,2.60255,0,0,0-1.689-1.09174,1.05093,1.05093,0,0,0-.51563.0313c-.13474.04509-.18089.11565-.0939.24827a1.16187,1.16187,0,0,0,.39044.4,3.298,3.298,0,0,1,1.30074,1.56068,3.57844,3.57844,0,0,0,.70236,1.19464,2.67513,2.67513,0,0,0,1.497.67053,6.76817,6.76817,0,0,0,2.05508-.01644c.15756-.02812.20212.03236.20265.17241.00106.73789.01432,1.4758.00159,2.21317a.64136.64136,0,0,1-.86575.62968,6.97161,6.97161,0,0,1-1.00208-.35489,12.64608,12.64608,0,0,1-2.58716-1.47474,13.15916,13.15916,0,0,1-3.05239-3.23064,12.36971,12.36971,0,0,1-1.75059-3.90222,13.4,13.4,0,0,1-.32943-4.24491,12.043,12.043,0,0,1,.59786-2.97813,12.87587,12.87587,0,0,1,5.67933-6.96682,12.35068,12.35068,0,0,1,4.12715-1.52885,13.12354,13.12354,0,0,1,2.80413-.19469,12.46635,12.46635,0,0,1,5.52868,1.49384,12.687,12.687,0,0,1,5.30906,5.361,12.24173,12.24173,0,0,1,1.3209,4.13245,13.90108,13.90108,0,0,1,.026,3.26724,12.0059,12.0059,0,0,1-1.81425,5.21411,12.67752,12.67752,0,0,1-4.56214,4.403,14.22763,14.22763,0,0,1-2.14739.96547.688.688,0,0,1-.93354-.27441l-.01443-.028a1.17484,1.17484,0,0,1-.0748-.47107V84.55882Z"/><rect class="cls-1" x="50.69841" y="50.30933" width="49" height="49" rx="4.81091"/><path class="cls-3" d="M62.57206,76.26379h2.44369V86.74924H84.0896V76.31147h2.45053V88.80933H62.57206Zm25.2527-5.50819-2.54947,1.44079-8.16135-9.931,2.538-1.456ZM70.70069,68.65037,72.26538,66.446l12.49088,6.11668-1.56849,2.20314Z"/><path class="cls-3" d="M82.92673,75.50524l-.796,2.46956L68.13523,74.8567l.79148-2.474ZM67.26156,80.31465l.27169-2.54522L81.964,78.86814l-.26941,2.54332Zm-.102,4.36115V82.20243H81.57817V84.6758Z"/><rect class="cls-1" x="200.6401" y="50.30933" width="49" height="49" rx="4.81091"/><path class="cls-3" d="M213.4093,69.90518,225.13667,79.672l11.68776-9.73264c.02152.1985.04792.32757.04792.45664q.00244,5.92065-.00147,11.84031a1.38417,1.38417,0,0,1-1.54445,1.56254q-10.2142.01271-20.42841.00244a1.33667,1.33667,0,0,1-1.47373-1.18385q-.00654-.06006-.00766-.12055c-.01613-4.14885-.00733-8.29769-.00733-12.59126Z"/><path class="cls-3" d="M214.55239,66.15717c-1.22647.59887-.83541,1.80033.44554,2.93288,3.65554,3.23205,10.13775,8.24853,10.13775,8.24853s6.83632-5.26621,10.44261-8.399c1.10282-.958,1.56018-2.06827.725-2.53928-.96655-.5451-3.32951-.48348-5.0326-.507-5.0089-.06913-7.12331-.064-11.83938-.06913C218.03307,65.82269,215.47843,65.705,214.55239,66.15717Z"/><rect class="cls-3" x="100.25163" y="0.16667" width="49" height="49" rx="4.81091"/><path class="cls-1" d="M116.8418,27.255a2.86587,2.86587,0,1,1-2.86473-2.86472h2.86473Zm1.44487,0a2.86586,2.86586,0,0,1,5.73172,0v7.1766a2.86586,2.86586,0,1,1-5.73172,0Zm2.86586-11.50779a2.86587,2.86587,0,1,1,2.86586-2.86473v2.86473Zm0,1.44487a2.86587,2.86587,0,0,1,0,5.73173h-7.17546a2.86587,2.86587,0,1,1,0-5.73173Zm11.50665,2.86586a2.867,2.867,0,1,1,2.867,2.86587h-2.867Zm-1.44145,0a2.86644,2.86644,0,0,1-5.73287,0V12.88246a2.86644,2.86644,0,1,1,5.73287,0Zm-2.86814,11.50666a2.867,2.867,0,1,1-2.86473,2.867v-2.867Zm0-1.44146a2.86643,2.86643,0,0,1,0-5.73286h7.1766a2.86643,2.86643,0,1,1,0,5.73286Z"/><rect class="cls-3" x="-0.12894" y="0.16667" width="49" height="49" rx="4.81091"/><path class="cls-1" d="M11.30729,32.8734a10.83814,10.83814,0,0,0,7.8815-2.18942c-.01987-.043-.04832-.029-.07033-.02953a5.21869,5.21869,0,0,1-2.04125-.49018,5.385,5.385,0,0,1-2.82724-3.137c-.036-.10577-.03222-.11114.07838-.09127a5.69466,5.69466,0,0,0,1.02277.07946,5.101,5.101,0,0,0,1.23055-.18093c-.11007-.029-.20563-.05262-.30066-.07892a5.40378,5.40378,0,0,1-3.413-2.85087,5.16493,5.16493,0,0,1-.48857-1.64771,5.89707,5.89707,0,0,1-.04617-.65446c-.00054-.10309.008-.10953.095-.06282A5.29284,5.29284,0,0,0,13.981,22.082a5.52624,5.52624,0,0,0,.64265.07677c.02684.00161.05476,0,.10577,0-.11168-.08429-.20617-.15194-.2969-.22442a5.334,5.334,0,0,1-1.96018-3.2181,5.171,5.171,0,0,1-.0859-1.31644,5.32018,5.32018,0,0,1,.655-2.28016c.06873-.12617.06282-.13906.16107-.01933a14.82339,14.82339,0,0,0,1.29712,1.38195,15.22365,15.22365,0,0,0,1.84259,1.48341,15.14364,15.14364,0,0,0,5.46444,2.33707,13.89607,13.89607,0,0,0,1.53711.23892c.23784.02255.47514.04295.71244.06389.095.008.10416-.00215.08537-.094a5.21548,5.21548,0,0,1-.1165-1.18706,5.39569,5.39569,0,0,1,2.99582-4.74822,5.2324,5.2324,0,0,1,1.73469-.51541,5.33552,5.33552,0,0,1,3.64009.86761,4.90292,4.90292,0,0,1,.86546.72264.14118.14118,0,0,0,.14872.0451,10.90262,10.90262,0,0,0,2.35371-.77848q.444-.20617.86707-.45045a.17932.17932,0,0,1,.10416-.0349,5.48488,5.48488,0,0,1-2.28768,2.93248,9.835,9.835,0,0,0,1.52154-.299,10.72124,10.72124,0,0,0,1.45765-.51917c.022.03222-.00161.04886-.01235.06443a10.53157,10.53157,0,0,1-.92291,1.18115,10.646,10.646,0,0,1-1.65683,1.492.11111.11111,0,0,0-.04832.1063c.01074.49984.01825,1.00022-.0145,1.50006a15.58045,15.58045,0,0,1-.71084,3.74479,16.11984,16.11984,0,0,1-1.42114,3.20521A15.63176,15.63176,0,0,1,31.054,30.09018a14.86215,14.86215,0,0,1-1.68046,1.689,14.3401,14.3401,0,0,1-2.94214,1.95158,14.62819,14.62819,0,0,1-3.7974,1.27242,16.37813,16.37813,0,0,1-1.63321.22442,16.121,16.121,0,0,1-1.99453.058A15.17178,15.17178,0,0,1,13.1,33.87738a15.5745,15.5745,0,0,1-1.73038-.94331.1289.1289,0,0,1-.06282-.06067Z"/><rect class="cls-3" x="250.82248" y="0.16667" width="49" height="49" rx="4.81091"/><rect class="cls-2" x="265.0325" y="19.32935" width="4.5321" height="4.5321"/><rect class="cls-2" x="270.38095" y="19.32935" width="4.5321" height="4.5321"/><rect class="cls-2" x="275.7294" y="19.32935" width="4.53204" height="4.5321"/><rect class="cls-2" x="281.07779" y="19.32935" width="4.5321" height="4.5321"/><rect class="cls-2" x="265.0325" y="24.6778" width="4.5321" height="4.5321"/><rect class="cls-2" x="270.38095" y="24.6778" width="4.5321" height="4.5321"/><rect class="cls-2" x="275.7294" y="24.6778" width="4.53204" height="4.5321"/><rect class="cls-2" x="281.07779" y="24.6778" width="4.5321" height="4.5321"/><rect class="cls-2" x="265.0325" y="30.02625" width="4.5321" height="4.5321"/><rect class="cls-2" x="270.38095" y="30.02625" width="4.5321" height="4.5321"/><rect class="cls-2" x="275.7294" y="30.02625" width="4.53204" height="4.5321"/><rect class="cls-2" x="281.07779" y="30.02625" width="4.5321" height="4.5321"/><path class="cls-1" d="M286.00134,15.03644h-1.75543V12.075a1.09858,1.09858,0,0,0-1.09534-1.09533H279.2561a1.09858,1.09858,0,0,0-1.09533,1.09533v2.96143h-5.13452V12.075a1.09858,1.09858,0,0,0-1.09534-1.09533h-3.89447A1.09858,1.09858,0,0,0,266.9411,12.075v2.96143h-2.29742a1.28159,1.28159,0,0,0-1.2779,1.27783V35.05646a1.28164,1.28164,0,0,0,1.2779,1.27789h21.35766a1.28168,1.28168,0,0,0,1.2779-1.27789V16.31427A1.28163,1.28163,0,0,0,286.00134,15.03644Zm-6.37768-2.33057a.48646.48646,0,0,1,.485-.485H282.298a.48646.48646,0,0,1,.48505.485v4.77527a.48645.48645,0,0,1-.48505.485H280.1087a.48645.48645,0,0,1-.485-.485V12.70587Zm-11.21967,0a.48646.48646,0,0,1,.48505-.485h2.18927a.48646.48646,0,0,1,.485.485v4.77527a.48645.48645,0,0,1-.485.485H268.889a.48645.48645,0,0,1-.48505-.485V12.70587Zm1.16065,21.85248h-4.53211v-4.5321h4.53211Zm0-5.34845h-4.53211V24.6778h4.53211Zm0-5.34845h-4.53211v-4.5321h4.53211Zm5.34845,10.6969H270.381v-4.5321h4.53211Zm0-5.34845H270.381V24.6778h4.53211Zm0-5.34845H270.381v-4.5321h4.53211Zm5.34838,10.6969h-4.532v-4.5321h4.532Zm0-5.34845h-4.532V24.6778h4.532Zm0-5.34845h-4.532v-4.5321h4.532Zm5.34845,10.6969h-4.5321v-4.5321h4.5321Zm0-5.34845h-4.5321V24.6778h4.5321Zm0-5.34845h-4.5321v-4.5321h4.5321Z"/><path class="cls-2" d="M271.07828,12.22083H268.889a.48646.48646,0,0,0-.48505.485v4.77527a.48645.48645,0,0,0,.48505.485h2.18927a.48645.48645,0,0,0,.485-.485V12.70587A.48646.48646,0,0,0,271.07828,12.22083Z"/><path class="cls-2" d="M282.29794,12.22083h-2.18927a.48646.48646,0,0,0-.485.485v4.77527a.48645.48645,0,0,0,.485.485h2.18927a.48645.48645,0,0,0,.48505-.485V12.70587A.48646.48646,0,0,0,282.29794,12.22083Z"/><rect class="cls-3" x="150.44191" y="0.16667" width="49" height="49" rx="4.81091"/><path class="cls-1" d="M178.06835,33.40651c0-.57079.01114-1.14159-.00265-1.71186a2.83384,2.83384,0,0,0-.73048-1.98931c-.122-.12625-.0435-.1602.07692-.17612a9.78231,9.78231,0,0,0,1.7177-.33526,5.29583,5.29583,0,0,0,2.84073-1.87366,5.62247,5.62247,0,0,0,.89227-2.18771,8.30173,8.30173,0,0,0,.1687-2.11662,4.65761,4.65761,0,0,0-1.08113-2.85346.55862.55862,0,0,1-.11989-.61377,4.35953,4.35953,0,0,0-.17877-2.90068.21377.21377,0,0,0-.22651-.14216,2.37335,2.37335,0,0,0-.9241.12837,9.5739,9.5739,0,0,0-2.1962,1.0981.41.41,0,0,1-.37134.06525,11.49558,11.49558,0,0,0-2.78184-.39256,11.66118,11.66118,0,0,0-2.18081.16976,7.8632,7.8632,0,0,0-.99784.218.45461.45461,0,0,1-.40953-.07108,8.39134,8.39134,0,0,0-2.60838-1.18351l-.02016-.0053c-.60634-.12307-.68114-.06737-.8493.522a4.25341,4.25341,0,0,0,.02546,2.68583.26947.26947,0,0,1-.08487.29813,4.77434,4.77434,0,0,0-1.09545,2.28638,6.17841,6.17841,0,0,0-.069,1.62168,8.04,8.04,0,0,0,.452,2.19938,4.48577,4.48577,0,0,0,2.19832,2.53889,7.675,7.675,0,0,0,2.74259.81163c.11936.01327.29176-.01644.33791.10292.03608.09442-.11882.17028-.18619.25622a2.55574,2.55574,0,0,0-.51351,1.19517.42651.42651,0,0,1-.31033.36657,3.55476,3.55476,0,0,1-1.74529.2037,2.18344,2.18344,0,0,1-1.366-.81853c-.19681-.22811-.33-.49865-.50926-.73843a2.60253,2.60253,0,0,0-1.68905-1.09173,1.05081,1.05081,0,0,0-.51563.0313c-.13475.04509-.1809.11564-.0939.24826a1.16181,1.16181,0,0,0,.39044.4,3.298,3.298,0,0,1,1.30074,1.56067,3.57848,3.57848,0,0,0,.70236,1.19465,2.67527,2.67527,0,0,0,1.497.67053,6.7685,6.7685,0,0,0,2.05508-.01645c.15756-.02811.20212.03236.20265.17241.00106.7379.01432,1.4758.00159,2.21317a.64136.64136,0,0,1-.86575.62968,6.9704,6.9704,0,0,1-1.00208-.35489,12.64581,12.64581,0,0,1-2.58716-1.47474,13.15912,13.15912,0,0,1-3.05239-3.23063,12.36976,12.36976,0,0,1-1.75059-3.90223,13.4,13.4,0,0,1-.32943-4.24491,12.04288,12.04288,0,0,1,.59785-2.97812,12.87592,12.87592,0,0,1,5.67934-6.96683,12.3509,12.3509,0,0,1,4.12715-1.52885,13.12409,13.12409,0,0,1,2.80413-.19468,12.46624,12.46624,0,0,1,5.52868,1.49383,12.687,12.687,0,0,1,5.30906,5.361,12.242,12.242,0,0,1,1.3209,4.13246,13.901,13.901,0,0,1,.026,3.26723,12.00576,12.00576,0,0,1-1.81424,5.21411,12.67751,12.67751,0,0,1-4.56214,4.403,14.22834,14.22834,0,0,1-2.1474.96548.688.688,0,0,1-.93353-.27441l-.01444-.028a1.175,1.175,0,0,1-.07479-.47107V33.40651Z"/><rect class="cls-3" x="50.06134" y="0.16667" width="49" height="49" rx="4.81091"/><path class="cls-1" d="M62.45768,25.11148h2.44368V35.59693H83.97521V25.15917h2.45054V37.657H62.45768Zm25.2527-5.50819-2.54947,1.44079-8.16136-9.931L79.53761,9.657ZM70.5863,17.49806,72.151,15.29365l12.49089,6.11667-1.5685,2.20315Z"/><path class="cls-1" d="M82.81235,24.35294l-.796,2.46956L68.02085,23.70439l.79148-2.474ZM67.14718,29.16235l.27169-2.54523,14.43077,1.09871-.26941,2.54332Zm-.102,4.36115V31.05012H81.46379V33.5235Z"/><rect class="cls-3" x="200.6322" y="0.16667" width="49" height="49" rx="4.81091"/><path class="cls-1" d="M213.4014,18.75288l11.72737,9.76685,11.68776-9.73263c.02151.19849.04792.32757.04792.45664q.00244,5.92064-.00147,11.8403a1.38417,1.38417,0,0,1-1.54445,1.56254q-10.2142.01272-20.42841.00245a1.33668,1.33668,0,0,1-1.47373-1.18385q-.00655-.06008-.00766-.12055c-.01613-4.14885-.00733-8.2977-.00733-12.59127Z"/><path class="cls-1" d="M214.54448,15.00487c-1.22646.59886-.8354,1.80032.44555,2.93288,3.65554,3.232,10.13775,8.24852,10.13775,8.24852s6.83632-5.2662,10.44261-8.399c1.10282-.958,1.56017-2.06826.725-2.53927-.96655-.5451-3.32951-.48349-5.0326-.507-5.0089-.06913-7.12332-.064-11.83938-.06913C218.02517,14.67039,215.47053,14.55269,214.54448,15.00487Z"/><rect class="cls-1" x="300" y="50" width="50" height="50" rx="4.8" /><rect class="cls-3" x="300" y="0" width="50" height="50" rx="4.8" /><g transform="translate(311.896,15.9)"><path class="cls-1" transform="scale(0.14)" d="M 181.7,20.7 C 179.6,12.8 173.3,6.5 165.4,4.4 151.1,0.5 93.6,0.5 93.6,0.5 93.6,0.5 36,0.6 21.7,4.5 13.8,6.6 7.5,12.9 5.4,20.8 1.6,35.1 1.6,65 1.6,65 c 0,0 0,29.9 3.9,44.3 2.1,7.9 8.4,14.2 16.3,16.3 14.3,3.9 71.8,3.9 71.8,3.9 0,0 57.5,0 71.8,-3.9 7.9,-2.1 14.2,-8.4 16.3,-16.3 3.9,-14.3 3.9,-44.3 3.9,-44.3 0,0 0,-29.9 -3.9,-44.3 z M 75.2,92.6 V 37.4 L 123,65 Z" /></g><g transform="translate(311.896,65.9)"><path class="cls-3" transform="scale(0.14)" d="M 181.7,20.7 C 179.6,12.8 173.3,6.5 165.4,4.4 151.1,0.5 93.6,0.5 93.6,0.5 93.6,0.5 36,0.6 21.7,4.5 13.8,6.6 7.5,12.9 5.4,20.8 1.6,35.1 1.6,65 1.6,65 c 0,0 0,29.9 3.9,44.3 2.1,7.9 8.4,14.2 16.3,16.3 14.3,3.9 71.8,3.9 71.8,3.9 0,0 57.5,0 71.8,-3.9 7.9,-2.1 14.2,-8.4 16.3,-16.3 3.9,-14.3 3.9,-44.3 3.9,-44.3 0,0 0,-29.9 -3.9,-44.3 z M 75.2,92.6 V 37.4 L 123,65 Z" /></g></svg>
