<?xml version="1.0" encoding="UTF-8" standalone="no" ?>
<!DOCTYPE svg PUBLIC "-//W3C//DTD SVG 1.1//EN" "http://www.w3.org/Graphics/SVG/1.1/DTD/svg11.dtd">
<svg xmlns="http://www.w3.org/2000/svg" xmlns:xlink="http://www.w3.org/1999/xlink" version="1.1" width="230" height="140" viewBox="0 0 230 140" xml:space="preserve">
<desc>Created with Fabric.js 5.2.4</desc>
<defs>
</defs>
<g transform="matrix(1 0 0 1 115 70)" id="31387880-5fa3-43a4-b27a-0155fefe16d9"  >
<rect style="stroke: none; stroke-width: 1; stroke-dasharray: none; stroke-linecap: butt; stroke-dashoffset: 0; stroke-linejoin: miter; stroke-miterlimit: 4; fill: rgb(255,255,255); fill-rule: nonzero; opacity: 1;" vector-effect="non-scaling-stroke"  x="-115" y="-70" rx="0" ry="0" width="230" height="140" />
</g>
<g transform="matrix(Infinity NaN NaN Infinity 0 0)" id="d919ee26-4e78-424e-90ab-6a35cdc1b4dc"  >
</g>
<g transform="matrix(0.21 0 0 0.21 115 70)"  >
<g style="" vector-effect="non-scaling-stroke"   >
		<g transform="matrix(2.15 0 0 2.15 -125.74 1.08)" id="path3851"  >
<path style="stroke: none; stroke-width: 1; stroke-dasharray: none; stroke-linecap: butt; stroke-dashoffset: 0; stroke-linejoin: miter; stroke-miterlimit: 4; fill: rgb(35,31,32); fill-rule: nonzero; opacity: 1;" vector-effect="non-scaling-stroke"  transform=" translate(-144.3, -792.87)" d="M 310.121 825.646 L 320.654 825.646 L 320.654 759.025 L 310.121 759.025 L 310.121 825.646 z M 288.688 819.2729999999999 L 288.478 819.2729999999999 C 286.81 821.9759999999999 282.43 826.7079999999999 274.505 826.7079999999999 C 266.686 826.7079999999999 260.951 821.5879999999999 260.951 815.2159999999999 C 260.951 801.0249999999999 282.11800000000005 800.3479999999998 288.68800000000005 800.0569999999999 L 288.68800000000005 796.0049999999999 C 288.68800000000005 790.9829999999998 288.68800000000005 782.6799999999998 281.70000000000005 782.6799999999998 C 275.23500000000007 782.6799999999998 274.088 787.3129999999999 273.6700000000001 792.7229999999998 L 262.6190000000001 792.7229999999998 C 263.1410000000001 785.8669999999998 266.0590000000001 778.6229999999998 281.7000000000001 778.6229999999998 C 297.8650000000001 778.6229999999998 299.2200000000001 787.0249999999999 299.2200000000001 796.0049999999998 L 299.2200000000001 825.6459999999997 L 288.6880000000001 825.6459999999997 L 288.6880000000001 819.2729999999997 z M 288.688 804.112 C 284.308 804.406 272.41999999999996 805.2719999999999 272.41999999999996 813.7679999999999 C 272.41999999999996 817.9209999999999 275.02799999999996 820.6229999999999 278.46799999999996 820.6229999999999 C 282.11799999999994 820.6229999999999 288.688 817.342 288.688 809.521 L 288.688 804.112 M 254.171 824.101 C 249.791 825.741 245.934 826.708 239.679 826.708 C 225.914 826.708 214.86 819.1759999999999 214.86 800.6379999999999 C 214.86 787.8919999999999 220.38600000000002 778.6229999999999 236.026 778.6229999999999 C 252.089 778.6229999999999 255.11100000000002 788.5699999999999 255.11100000000002 797.4519999999999 L 225.39100000000002 797.4519999999999 C 225.39100000000002 806.5299999999999 229.77100000000002 821.5879999999999 244.681 821.5879999999999 C 247.91600000000003 821.5879999999999 251.044 821.0099999999999 254.17100000000002 819.6569999999998 L 254.17100000000002 824.1009999999998 z M 244.789 793.01 C 244.789 789.438 243.43099999999998 782.68 235.611 782.68 C 227.476 782.68 225.914 790.405 225.70399999999998 793.01 L 244.789 793.01 z M 237.243 759.068 L 248.298 759.068 L 238.114 771.673 L 230.291 771.673 L 237.243 759.068 M 184.414 779.686 L 194.945 779.686 L 194.945 791.368 L 195.153 791.368 C 198.48999999999998 785.19 202.13899999999998 779.301 211.213 778.623 L 211.213 788.7650000000001 C 201.09799999999998 789.0530000000001 194.945 792.2400000000001 194.945 804.5960000000001 L 194.945 825.6460000000001 L 184.414 825.6460000000001 L 184.414 779.686 M 176.48899999999998 826.032 C 174.40099999999998 826.5120000000001 171.58599999999998 826.7080000000001 169.18899999999996 826.7080000000001 C 159.28299999999996 826.7080000000001 153.54599999999996 823.907 153.54599999999996 815.0260000000001 L 153.54599999999996 784.706 L 145.62399999999997 784.706 L 145.62399999999997 779.686 L 153.54599999999996 779.686 L 153.54599999999996 768.873 L 164.07899999999995 762.9820000000001 L 164.07899999999995 779.686 L 177.63399999999996 779.686 L 177.63399999999996 784.706 L 164.07899999999995 784.706 L 164.07899999999995 811.1610000000001 C 164.07899999999995 817.921 164.80899999999994 821.2020000000001 171.58599999999996 821.2020000000001 C 173.25599999999994 821.2020000000001 175.02799999999996 821.0100000000001 176.48899999999995 820.4310000000002 L 176.48899999999995 826.0320000000002 M 98.04309999999995 779.6860000000001 L 108.57599999999995 779.6860000000001 L 108.57599999999995 790.5970000000001 L 108.78399999999995 790.5970000000001 C 110.45399999999995 787.2180000000001 115.24899999999995 778.623 126.19799999999995 778.623 C 134.95799999999994 778.623 138.71099999999996 785.385 138.71099999999996 792.0450000000001 L 138.71099999999996 825.6460000000001 L 128.17799999999997 825.6460000000001 L 128.17799999999997 796.8710000000001 C 128.17799999999997 791.08 127.23999999999997 785.8670000000001 121.92299999999997 785.8670000000001 C 111.49499999999998 785.8670000000001 108.57599999999998 800.927 108.57599999999998 806.6250000000001 L 108.57599999999998 825.6460000000001 L 98.04309999999998 825.6460000000001 L 98.04309999999998 779.686 M 45.98039999999998 802.6650000000001 C 45.98039999999998 787.1210000000001 53.28039999999998 778.623 67.87789999999998 778.623 C 82.47809999999998 778.623 89.88209999999998 787.1210000000001 89.88209999999998 802.6650000000001 C 89.88209999999998 818.2120000000001 82.47809999999998 826.7080000000001 67.87789999999998 826.7080000000001 C 53.280399999999986 826.7080000000001 45.98039999999998 818.2120000000001 45.98039999999998 802.6650000000001 z M 67.87789999999998 822.652 C 77.26309999999998 822.652 78.41009999999999 811.066 78.41009999999999 802.6650000000001 C 78.41009999999999 794.2660000000001 77.26309999999998 782.6800000000001 67.87789999999998 782.6800000000001 C 58.59789999999998 782.6800000000001 57.45039999999998 794.2660000000001 57.45039999999998 802.6650000000001 C 57.45039999999998 811.066 58.59789999999998 822.652 67.87789999999998 822.652 M -32.04590000000002 759.0250000000001 L -16.717100000000016 759.0250000000001 L 3.197939999999985 813.19 L 3.405439999999985 813.19 L 23.427899999999983 759.0250000000001 L 38.234099999999984 759.0250000000001 L 38.234099999999984 825.6460000000001 L 27.911599999999986 825.6460000000001 L 27.911599999999986 768.1 L 27.704099999999986 768.1 L 6.639139999999987 825.6460000000001 L -2.119660000000014 825.6460000000001 L -23.184600000000014 768.1 L -23.392100000000013 768.1 L -23.392100000000013 825.6460000000001 L -32.04590000000002 825.6460000000001 L -32.04590000000002 759.0250000000001" stroke-linecap="round" />
</g>
		<g transform="matrix(2.15 0 0 2.15 396.86 0)" id="path3853"  >
<path style="stroke: none; stroke-width: 1; stroke-dasharray: none; stroke-linecap: butt; stroke-dashoffset: 0; stroke-linejoin: miter; stroke-miterlimit: 4; fill: rgb(224,0,0); fill-rule: nonzero; opacity: 1;" vector-effect="non-scaling-stroke"  transform=" translate(-387.66, -792.36)" d="M 387.733 750.06 C 384.51 745.262 379.238 742.2819999999999 373.859 742.2819999999999 C 364.645 742.2819999999999 357.41999999999996 749.6009999999999 357.41999999999996 758.9469999999999 C 357.41999999999996 759.8449999999999 357.61099999999993 761.1009999999999 357.96 762.6649999999998 C 357.113 762.4849999999999 355.529 762.1859999999998 354.21799999999996 762.1859999999998 C 344.876 762.1859999999998 337.55299999999994 769.3729999999998 337.55299999999994 778.5509999999998 C 337.55299999999994 783.9519999999998 340.56499999999994 789.2309999999998 345.40899999999993 792.4599999999998 C 340.51899999999995 795.7279999999998 337.59099999999995 800.8249999999998 337.59099999999995 806.1829999999998 C 337.59099999999995 815.2509999999997 345.073 822.6229999999998 354.26399999999995 822.6229999999998 C 355.38599999999997 822.6229999999998 356.751 822.3599999999998 357.93399999999997 822.1009999999998 C 357.606 823.6019999999997 357.41999999999996 824.8649999999998 357.41999999999996 825.7769999999998 C 357.41999999999996 835.1229999999998 364.645 842.4419999999998 373.859 842.4419999999998 C 379.32 842.4419999999998 384.41499999999996 839.5929999999997 387.609 834.8229999999998 C 390.683 839.3879999999998 396.205 842.4419999999998 401.498 842.4419999999998 C 410.68 842.4419999999998 417.863 835.1229999999998 417.863 825.7769999999998 C 417.863 824.5619999999998 417.599 823.0969999999999 417.386 822.1009999999998 C 418.951 822.4359999999998 420.204 822.6229999999998 421.098 822.6229999999998 C 430.286 822.6229999999998 437.76 815.2509999999999 437.76 806.1829999999998 C 437.76 800.7749999999997 434.84999999999997 795.5209999999997 430.14799999999997 792.3569999999997 C 434.84999999999997 789.1969999999998 437.76 783.9609999999998 437.76 778.5399999999997 C 437.76 769.5199999999998 430.25 762.1769999999997 421.019 762.1769999999997 C 419.865 762.1769999999997 418.468 762.4699999999997 417.37600000000003 762.7079999999996 C 417.55800000000005 761.8559999999997 417.86300000000006 760.2399999999997 417.86300000000006 758.9469999999997 C 417.86300000000006 749.6009999999997 410.68000000000006 742.2819999999997 401.49800000000005 742.2819999999997 C 396.15100000000007 742.2819999999997 390.93600000000004 745.2599999999996 387.73300000000006 750.0599999999997 z M 366.105 766.751 L 366.105 766.751 C 365.30400000000003 765.997 362.706 763.192 362.699 758.765 C 362.699 758.755 362.699 758.755 362.699 758.745 C 362.699 751.893 368.459 747.641 373.808 747.628 C 376.784 747.628 379.579 748.778 381.691 750.8820000000001 C 383.798 752.9810000000001 384.948 755.7900000000001 384.953 758.792 L 384.953 784.621 C 384.953 787.8149999999999 382.11499999999995 789.583 380.116 789.583 L 354.174 789.583 C 351.236 789.593 348.344 788.3969999999999 346.226 786.2869999999999 C 344.774 784.8409999999999 343.041 782.3109999999999 343.036 778.487 C 343.036 775.543 344.225 772.653 346.318 770.56 C 348.378 768.4979999999999 351.126 767.358 354.06899999999996 767.3549999999999 C 357.98799999999994 767.3549999999999 360.61899999999997 769.175 362.138 770.7049999999999 C 362.138 770.7049999999999 363.11899999999997 771.6829999999999 363.44399999999996 771.9979999999999 C 363.22099999999995 772.5769999999999 363.00399999999996 773.3249999999999 363.00399999999996 774.367 C 363.00399999999996 778.0659999999999 366.054 781.088 369.79599999999994 781.106 C 371.60299999999995 781.116 373.21099999999996 780.457 374.46599999999995 779.212 C 375.74099999999993 777.943 376.50299999999993 776.127 376.50299999999993 774.35 C 376.50299999999993 772.625 375.72399999999993 770.767 374.45899999999995 769.501 C 373.21599999999995 768.2629999999999 371.58899999999994 767.611 369.74299999999994 767.612 C 368.73099999999994 767.612 367.88999999999993 767.905 367.43799999999993 768.058 C 367.21099999999996 767.835 366.10999999999996 766.761 366.10999999999996 766.761 z M 390.43100000000004 758.755 C 390.42100000000005 755.82 391.581 752.923 393.69000000000005 750.806 C 395.13500000000005 749.3530000000001 397.67500000000007 747.6210000000001 401.49300000000005 747.615 C 404.44000000000005 747.615 407.33500000000004 748.808 409.42300000000006 750.898 C 411.48500000000007 752.957 412.6240000000001 755.7130000000001 412.62500000000006 758.6560000000001 C 412.62500000000006 758.6560000000001 412.62500000000006 758.666 412.62500000000006 758.666 C 412.62500000000006 762.577 410.81100000000004 765.2 409.27900000000005 766.7120000000001 C 409.27900000000005 766.7120000000001 408.30000000000007 767.6970000000001 407.98300000000006 768.0160000000001 C 407.40600000000006 767.8030000000001 406.65400000000005 767.5830000000001 405.61600000000004 767.5810000000001 C 401.92300000000006 767.5810000000001 398.903 770.6310000000001 398.88500000000005 774.3770000000002 C 398.88500000000005 776.1800000000002 399.528 777.7900000000002 400.773 779.0350000000002 C 402.04 780.3100000000002 403.85400000000004 781.0750000000002 405.634 781.0780000000002 C 405.634 781.0780000000002 405.644 781.0780000000002 405.644 781.0780000000002 C 407.372 781.0780000000002 409.218 780.2910000000002 410.483 779.0280000000002 C 411.721 777.7970000000003 412.367 776.1720000000003 412.367 774.3330000000002 C 412.367 774.3330000000002 412.367 774.3230000000002 412.367 774.3230000000002 C 412.367 773.3180000000002 412.082 772.4650000000003 411.93100000000004 772.0220000000002 C 412.153 771.7920000000001 413.22900000000004 770.6860000000001 413.22900000000004 770.6860000000001 C 413.98800000000006 769.8830000000002 416.79200000000003 767.2830000000001 421.21100000000007 767.2760000000002 C 428.0810000000001 767.2660000000002 432.3430000000001 773.0330000000001 432.35600000000005 778.3880000000001 C 432.35600000000005 781.3610000000001 431.20300000000003 784.1620000000001 429.09800000000007 786.2760000000002 C 427.0010000000001 788.3810000000002 424.1960000000001 789.5670000000002 421.1930000000001 789.5710000000001 L 395.3680000000001 789.5710000000001 C 392.1740000000001 789.5710000000001 390.4340000000001 786.6880000000001 390.43200000000013 784.6860000000001 L 390.43200000000013 758.7520000000002 z M 346.288 814.22 C 344.17400000000004 812.111 342.96000000000004 809.225 342.955 806.302 L 342.955 806.302 C 342.945 803.328 344.103 800.5260000000001 346.21 798.4150000000001 C 348.30899999999997 796.3070000000001 351.10999999999996 795.1010000000001 354.10999999999996 795.0970000000001 L 379.948 795.0970000000001 C 383.14099999999996 795.0970000000001 384.943 798.0000000000001 384.948 799.998 L 384.948 825.931 C 384.948 828.8710000000001 383.721 831.768 381.60999999999996 833.8860000000001 C 380.16499999999996 835.3380000000001 377.63499999999993 837.0720000000001 373.81299999999993 837.075 C 367.6789999999999 837.075 362.6859999999999 832.13 362.67799999999994 826.0360000000001 C 362.67799999999994 826.0260000000001 362.67799999999994 826.0260000000001 362.67799999999994 826.0160000000001 C 362.67799999999994 822.1150000000001 364.49999999999994 819.4870000000001 366.02899999999994 817.9680000000001 C 366.02899999999994 817.9680000000001 367.00999999999993 816.9820000000001 367.3229999999999 816.6650000000001 C 367.90899999999993 816.8800000000001 368.65399999999994 817.0970000000001 369.6909999999999 817.1 C 373.3979999999999 817.1 376.4099999999999 814.0550000000001 376.4249999999999 810.307 C 376.4249999999999 808.506 375.7829999999999 806.897 374.5449999999999 805.65 C 373.2779999999999 804.375 371.4559999999999 803.6129999999999 369.67599999999993 803.608 C 367.9579999999999 803.608 366.0949999999999 804.385 364.8279999999999 805.6519999999999 C 363.5949999999999 806.89 362.9359999999999 808.5129999999999 362.9359999999999 810.352 C 362.9359999999999 810.352 362.9359999999999 810.352 362.9359999999999 810.362 C 362.9359999999999 811.3679999999999 363.22599999999994 812.221 363.38499999999993 812.66 C 363.1529999999999 812.895 362.07899999999995 814.001 362.07899999999995 814.001 C 361.32899999999995 814.8009999999999 358.51099999999997 817.406 354.09299999999996 817.411 C 351.12899999999996 817.4209999999999 348.35999999999996 816.2829999999999 346.28799999999995 814.217 z M 393.778 833.778 C 391.67400000000004 831.683 390.434 828.876 390.43100000000004 825.876 L 390.43100000000004 800.043 C 390.43100000000004 796.85 393.37300000000005 795.098 395.37500000000006 795.097 L 421.30300000000005 795.097 C 426.65600000000006 795.087 432.44000000000005 799.3059999999999 432.45000000000005 806.178 C 432.46000000000004 812.308 427.504 817.303 421.40500000000003 817.313 C 417.48400000000004 817.313 414.855 815.495 413.346 813.963 C 413.346 813.963 412.358 812.982 412.043 812.6619999999999 C 412.253 812.0809999999999 412.47 811.3349999999999 412.47 810.2969999999999 L 412.47 810.2969999999999 C 412.47 806.598 409.425 803.5809999999999 405.67800000000005 803.5679999999999 C 403.87500000000006 803.5579999999999 402.27400000000006 804.2109999999999 401.02900000000005 805.4459999999999 C 399.75500000000005 806.7149999999999 398.98800000000006 808.5379999999999 398.98300000000006 810.3179999999999 C 398.98300000000006 812.0399999999998 399.76900000000006 813.9009999999998 401.03400000000005 815.1669999999999 C 402.26900000000006 816.405 403.89500000000004 817.0569999999999 405.74100000000004 817.055 C 406.75100000000003 817.055 407.59600000000006 816.7669999999999 408.03900000000004 816.6099999999999 C 408.27000000000004 816.8369999999999 409.37100000000004 817.9099999999999 409.37100000000004 817.9099999999999 C 410.175 818.6659999999998 412.78000000000003 821.4709999999999 412.78900000000004 825.8969999999998 C 412.78900000000004 825.8969999999998 412.78900000000004 825.9069999999998 412.78900000000004 825.9069999999998 C 412.78900000000004 832.7649999999998 407.01800000000003 837.0249999999999 401.66600000000005 837.0349999999999 C 398.70000000000005 837.0449999999998 395.89300000000003 835.8819999999998 393.7780000000001 833.7759999999998" stroke-linecap="round" />
</g>
</g>
</g>
</svg>
