<svg id="Layer_1" data-name="Layer 1" xmlns="http://www.w3.org/2000/svg" viewBox="0 0 214 210"><defs><style>.cls-1{fill:#316ce6;}.cls-2{fill:#09c1d1;}.cls-3{fill:#c9e9ec;}</style></defs><title>kubernetes_icons</title><rect class="cls-1" x="10.24" y="8.775" width="33.6" height="33.6" rx="4.158"/><rect class="cls-1" x="10.24" y="46.975" width="33.6" height="33.6" rx="4.158"/><rect class="cls-1" x="170.2" y="8.775" width="33.6" height="33.6" rx="4.158"/><rect class="cls-1" x="90.18" y="86.925" width="33.6" height="33.6" rx="4.158"/><rect class="cls-1" x="50.23" y="126.825" width="33.6" height="33.6" rx="4.158"/><rect class="cls-1" x="10.24" y="166.085" width="33.6" height="33.6" rx="4.158"/><rect class="cls-1" x="90.22" y="166.085" width="33.6" height="33.6" rx="4.158"/><rect class="cls-2" x="89.99" y="8.775" width="33.6" height="33.6" rx="4.158"/><rect class="cls-3" x="89.99" y="48.1" width="33.6" height="33.6" rx="4.158"/><rect class="cls-3" x="49.914" y="8.775" width="33.6" height="33.6" rx="4.158"/><rect class="cls-3" x="10.24" y="86.925" width="33.6" height="33.6" rx="4.158"/><rect class="cls-3" x="50.23" y="166.085" width="33.6" height="33.6" rx="4.158"/><rect class="cls-3" x="130.21" y="126.825" width="33.6" height="33.6" rx="4.158"/><rect class="cls-3" x="170.2" y="166.085" width="33.6" height="33.6" rx="4.158"/><rect class="cls-2" x="49.914" y="48.1" width="33.6" height="33.6" rx="4.158"/><rect class="cls-2" x="50.21" y="86.925" width="33.6" height="33.6" rx="4.158"/><rect class="cls-2" x="130.15" y="86.925" width="33.6" height="33.6" rx="4.158"/><rect class="cls-2" x="170.2" y="126.825" width="33.6" height="33.6" rx="4.158"/><rect class="cls-2" x="10.24" y="126.825" width="33.6" height="33.6" rx="4.158"/><rect class="cls-2" x="130.21" y="166.085" width="33.6" height="33.6" rx="4.158"/><rect class="cls-2" x="90.22" y="126.825" width="33.6" height="33.6" rx="4.158"/></svg>