<svg xmlns="http://www.w3.org/2000/svg" id="Layer_1" data-name="Layer 1" viewBox="0 0 214 210"><defs><style>.cls-1{fill:#316ce6}.cls-2{fill:#08c1d1}.cls-3{fill:#fff}</style></defs><title>kubernetes_icons</title><rect width="68.67" height="68.67" x="24.438" y="69.591" class="cls-1" rx="2.377" transform="translate(-56.27239 71.99817) rotate(-45)"/><rect width="68.67" height="68.67" x="122.201" y="69.591" class="cls-1" rx="2.377" transform="translate(-27.63844 141.12663) rotate(-45)"/><rect width="59.801" height="59.801" x="78.166" y="128.814" class="cls-1" rx="2.07" transform="translate(-80.57634 122.90059) rotate(-45)"/><rect width="59.801" height="59.801" x="78.166" y="19.385" class="cls-1" rx="2.07" transform="translate(-3.19829 90.84955) rotate(-45)"/><rect width="47.611" height="47.611" x="84.264" y="80.019" class="cls-2" rx="5.892" transform="translate(-41.76237 106.82659) rotate(-45)"/><rect width="4.809" height="43.285" x="105.642" y="55.094" class="cls-3"/><polygon points="100.231 56.897 115.862 56.897 108.047 41.868 100.231 56.897" class="cls-3"/><rect width="43.285" height="4.809" x="114.147" y="100.793" class="cls-3"/><polygon points="155.629 95.382 155.629 111.013 170.658 103.198 155.629 95.382" class="cls-3"/><rect width="4.809" height="43.285" x="105.641" y="109.472" class="cls-3"/><polygon points="115.862 150.954 100.231 150.954 108.047 165.984 115.862 150.954" class="cls-3"/><rect width="43.285" height="4.809" x="58.699" y="100.793" class="cls-3"/><polygon points="60.503 111.013 60.503 95.382 45.474 103.198 60.503 111.013" class="cls-3"/><circle cx="107.947" cy="103.926" r="9.018" class="cls-3"/></svg>