<?xml version="1.0" encoding="UTF-8" standalone="no"?>
<svg
   id="Layer_1"
   data-name="Layer 1"
   viewBox="0 0 214 186"
   version="1.1"
   sodipodi:docname="suitcase.svg"
   inkscape:version="1.3.1 (9b9bdc1480, 2023-11-25, custom)"
   xmlns:inkscape="http://www.inkscape.org/namespaces/inkscape"
   xmlns:sodipodi="http://sodipodi.sourceforge.net/DTD/sodipodi-0.dtd"
   xmlns="http://www.w3.org/2000/svg"
   xmlns:svg="http://www.w3.org/2000/svg"
   xmlns:rdf="http://www.w3.org/1999/02/22-rdf-syntax-ns#"
   xmlns:cc="http://creativecommons.org/ns#"
   xmlns:dc="http://purl.org/dc/elements/1.1/">
  <sodipodi:namedview
     id="namedview29"
     pagecolor="#ffffff"
     bordercolor="#666666"
     borderopacity="1.0"
     inkscape:showpageshadow="2"
     inkscape:pageopacity="0.0"
     inkscape:pagecheckerboard="0"
     inkscape:deskcolor="#d1d1d1"
     showgrid="false"
     inkscape:zoom="4.625094"
     inkscape:cx="59.890675"
     inkscape:cy="42.0532"
     inkscape:window-width="3754"
     inkscape:window-height="2092"
     inkscape:window-x="0"
     inkscape:window-y="0"
     inkscape:window-maximized="1"
     inkscape:current-layer="Layer_1" />
  <defs
     id="defs1">
    <style
       id="style1">.cls-1{fill:#316ce6;}.cls-2{fill:#09c1d1;}</style>
  </defs>
  <title
     id="title1">kubernetes_icons</title>
  <path
     id="path2"
     style="fill:#09c1d1;fill-opacity:1"
     class="cls-1"
     d="M 87.949219 9.984375 A 14.57555 14.57555 0 0 0 73.416016 24.517578 L 73.416016 35.210938 L 85.09375 35.210938 L 85.09375 25.228516 A 5.15854 5.15854 0 0 1 90.236328 20.085938 L 122.70117 20.085938 A 5.15854 5.15854 0 0 1 127.84375 25.228516 L 127.84375 35.210938 L 139.70898 35.210938 L 139.70898 24.517578 A 14.57554 14.57554 0 0 0 125.17578 9.984375 L 87.949219 9.984375 z M 33.623047 35.238281 A 28.16152 28.16152 0 0 0 5.5449219 63.318359 L 5.5449219 143.5332 A 28.16153 28.16153 0 0 0 33.623047 171.61328 L 40.597656 171.61328 L 172.5293 171.61328 L 179.50195 171.61328 A 28.16154 28.16154 0 0 0 207.58203 143.5332 L 207.58203 63.318359 A 28.16152 28.16152 0 0 0 179.50195 35.238281 L 172.5293 35.238281 L 40.597656 35.238281 L 33.623047 35.238281 z " />
  <path
     id="rect30"
     style="opacity:1;fill:#ffffff;fill-opacity:1;stroke-width:5.15906;stroke-linecap:square;paint-order:stroke markers fill"
     d="M 40.597656 35.238281 L 40.597656 171.61328 L 172.5293 171.61328 L 172.5293 35.238281 L 40.597656 35.238281 z " />
  <path
     id="path31"
     style="opacity:1;fill:#316ce6;fill-opacity:1;stroke-width:5.15906;stroke-linecap:square;paint-order:stroke markers fill"
     d="M 46.458984 35.238281 L 46.458984 35.423828 L 46.458984 61.326172 L 50.847656 61.326172 L 58.771484 47.603516 L 51.738281 35.423828 L 52.035156 35.423828 L 52.943359 35.423828 L 53.240234 35.423828 L 60.009766 47.146484 L 75.535156 47.146484 L 75.855469 47.146484 L 82.623047 35.423828 L 82.84375 35.423828 L 83.828125 35.423828 L 84.046875 35.423828 L 77.162109 47.347656 L 79.542969 51.466797 L 85.234375 61.326172 L 101.20312 61.326172 L 105.33008 54.179688 L 109.36133 47.197266 L 109.01758 46.603516 L 102.56445 35.423828 L 103.76758 35.423828 L 110.16406 46.503906 L 123.68359 46.503906 L 126.49609 46.503906 L 132.89258 35.423828 L 134.09766 35.423828 L 127.4043 47.015625 L 130.86523 53.009766 L 135.48047 61.003906 L 151.42188 61.003906 L 159.50781 46.994141 L 152.82617 35.423828 L 154.0293 35.423828 L 160.28906 46.265625 L 166.66797 46.265625 L 166.66797 35.423828 L 166.66797 35.238281 L 46.458984 35.238281 z M 160.72461 47.308594 L 152.66797 61.263672 L 160.75195 75.267578 L 166.66797 75.267578 L 166.66797 47.308594 L 160.72461 47.308594 z M 110.53516 47.546875 L 106.70703 54.179688 L 102.38086 61.675781 L 110.36328 75.505859 L 126.50781 75.505859 L 134.49219 61.673828 L 129.73438 53.431641 L 126.33789 47.546875 L 110.53516 47.546875 z M 59.636719 48.191406 L 51.751953 61.847656 L 59.488281 75.248047 L 59.492188 75.242188 L 76.597656 75.242188 L 84.330078 61.847656 L 77.011719 49.169922 L 76.447266 48.191406 L 76.232422 48.191406 L 59.636719 48.191406 z M 135.69141 62.1875 L 127.70117 76.027344 L 135.77148 90.005859 L 151.91406 90.005859 L 159.875 76.21875 L 151.77539 62.1875 L 135.69141 62.1875 z M 46.458984 62.369141 L 46.458984 90.328125 L 50.847656 90.328125 L 50.851562 90.322266 L 50.818359 90.265625 L 58.886719 76.292969 L 50.847656 62.369141 L 46.458984 62.369141 z M 85.234375 62.369141 L 77.320312 76.078125 L 85.511719 90.265625 L 85.476562 90.328125 L 101.37695 90.328125 L 109.44727 76.349609 L 101.37695 62.369141 L 85.234375 62.369141 z M 60.09375 76.285156 L 60.091797 76.292969 L 60.123047 76.349609 L 52.056641 90.322266 L 60.09375 104.24414 L 76.236328 104.24414 L 84.150391 90.537109 L 75.958984 76.349609 L 75.996094 76.285156 L 60.09375 76.285156 z M 161.02539 76.3125 L 152.80078 90.558594 L 160.85352 104.50781 L 166.66797 104.50781 L 166.66797 76.3125 L 161.02539 76.3125 z M 110.53711 76.548828 L 102.2793 90.849609 L 110.38477 104.88867 L 126.61328 104.88867 L 134.88672 90.558594 L 126.79883 76.548828 L 110.53711 76.548828 z M 135.77148 91.109375 L 127.70117 105.08984 L 135.77148 119.06641 L 151.9043 119.06641 L 159.98047 105.08008 L 151.91406 91.109375 L 135.77148 91.109375 z M 46.458984 91.371094 L 46.458984 119.33008 L 51.230469 119.33008 L 59.300781 105.35156 L 51.230469 91.371094 L 46.458984 91.371094 z M 85.234375 91.371094 L 77.162109 105.35156 L 85.234375 119.33008 L 101.37695 119.33008 L 109.44727 105.35156 L 101.37695 91.371094 L 85.234375 91.371094 z M 60.46875 105.28711 L 60.505859 105.35156 L 51.943359 120.18359 L 59.705078 133.62891 L 76.378906 133.62891 L 84.330078 119.85156 L 75.958984 105.35156 L 75.996094 105.28711 L 60.46875 105.28711 z M 160.92383 105.55078 L 152.84766 119.53906 L 160.91211 133.50977 L 166.66797 133.50977 L 166.66797 105.55078 L 160.92383 105.55078 z M 110.50781 105.93359 L 102.4375 119.91211 L 110.50781 133.89258 L 126.64648 133.89258 L 134.7207 119.9082 L 126.65039 105.93359 L 110.50781 105.93359 z M 135.77539 120.17188 L 127.70312 134.1543 L 135.77148 148.13086 L 151.91406 148.13086 L 159.98633 134.15039 L 151.91406 120.17188 L 135.77539 120.17188 z M 46.458984 120.37305 L 46.458984 147.95117 L 51.068359 147.95117 L 58.919922 134.35352 L 50.847656 120.37305 L 46.458984 120.37305 z M 85.234375 120.37305 L 77.210938 134.27344 L 85.328125 148.33203 L 101.37695 148.33203 L 109.44727 134.35352 L 101.37695 120.37305 L 85.234375 120.37305 z M 160.95703 134.55273 L 152.99219 148.34961 L 161.08398 162.36719 L 166.66797 162.36719 L 166.66797 134.55273 L 160.95703 134.55273 z M 60.09375 134.67188 L 52.023438 148.65234 L 60.09375 162.63086 L 75.996094 162.63086 L 84.140625 148.52344 L 76.144531 134.67188 L 60.09375 134.67188 z M 110.31641 134.93555 L 102.08984 149.18555 L 109.8457 162.61719 L 127.26953 162.53711 L 135.07617 149.01172 L 126.95117 134.93555 L 110.31641 134.93555 z M 136.1543 149.23242 L 128.08203 163.21289 L 132.93359 171.61328 L 155.35547 171.61328 L 160.28711 163.07031 L 152.29688 149.23242 L 136.1543 149.23242 z M 46.458984 149.37695 L 46.458984 171.61328 L 53.931641 171.61328 L 58.919922 162.97461 L 51.068359 149.37695 L 46.458984 149.37695 z M 85.09375 149.37695 L 76.902344 163.56445 L 81.548828 171.61328 L 104.29883 171.61328 L 109.06641 163.35547 L 100.99414 149.37695 L 85.09375 149.37695 z M 161.45508 163.41211 L 156.72266 171.61328 L 166.66797 171.61328 L 166.66797 163.41211 L 161.45508 163.41211 z M 110.12109 163.55469 L 105.68164 171.61328 L 131.47852 171.61328 L 127.03711 163.55469 L 110.12109 163.55469 z M 59.71875 163.67578 L 55.136719 171.61328 L 80.34375 171.61328 L 75.761719 163.67578 L 59.71875 163.67578 z " />
  <metadata
     id="metadata32">
    <rdf:RDF>
      <cc:Work
         rdf:about="">
        <dc:title>kubernetes_icons</dc:title>
      </cc:Work>
    </rdf:RDF>
  </metadata>
</svg>
