<svg id="Layer_1" data-name="Layer 1" xmlns="http://www.w3.org/2000/svg" xmlns:xlink="http://www.w3.org/1999/xlink" viewBox="0 0 215 127"><defs><style>.cls-1{clip-path:url(#clip-path);}.cls-2{fill:none;}.cls-3{fill:url(#linear-gradient);}.cls-4{fill:url(#linear-gradient-2);}.cls-5{fill:transparent;}.cls-6{clip-path:url(#clip-path-3);}.cls-7{mask:url(#mask);}.cls-8{fill:url(#linear-gradient-3);}.cls-9{clip-path:url(#clip-path-4);}.cls-10{fill:url(#linear-gradient-4);}.cls-11{clip-path:url(#clip-path-5);}.cls-12{fill:#1b69bc;}</style><clipPath id="clip-path"><rect class="cls-2" x="-8026.77345" y="-8033.23135" width="16138.71031" height="16138.71031"/></clipPath><linearGradient id="linear-gradient" x1="-1349.13476" y1="1499.87891" x2="-1348.8885" y2="1499.87891" gradientTransform="translate(132024.65166 250328.99756) rotate(110.225) scale(140.25966)" gradientUnits="userSpaceOnUse"><stop offset="0" stop-color="#fff"/><stop offset="0.323" stop-color="#fff" stop-opacity="0"/><stop offset="1" stop-color="#fff" stop-opacity="0"/></linearGradient><linearGradient id="linear-gradient-2" x1="-1349.13014" y1="1500.07289" x2="-1348.88388" y2="1500.07289" gradientTransform="translate(131979.93168 250204.14448) rotate(110.225) scale(140.18478)" xlink:href="#linear-gradient"/><clipPath id="clip-path-3"><path class="cls-2" d="M61.08443,58.53454a8.028,8.028,0,0,0-6.36226,9.40319,6.22061,6.22061,0,0,0,.2526.97072c.01223.03187.02427.07209.03817.10822q.03372.09873.07024.19644c.0884.22888.17661.44941.27687.666l.00815-.00815c.07617.16067.1844.33283.28058.50147a43.60056,43.60056,0,0,0,6.575-1.20736l-.78224-.84266a2.78017,2.78017,0,0,1-.69811-1.13917,2.71606,2.71606,0,0,1-.13232-.96274,2.33328,2.33328,0,0,1,.29077-.93458,2.64483,2.64483,0,0,1,.59581-.7663l5.568-4.77369a7.99706,7.99706,0,0,0-5.98125-1.21144"/></clipPath><mask id="mask" x="-8026.77345" y="-8033.23135" width="16138.71031" height="16138.71031" maskUnits="userSpaceOnUse"><g id="i"><g class="cls-1"><path class="cls-3" d="M-8026.77345,8105.479H8111.93686V-8033.23135H-8026.77345Z"/></g></g></mask><linearGradient id="linear-gradient-3" x1="-1375.21069" y1="1505.74642" x2="-1374.96443" y2="1505.74642" gradientTransform="matrix(-36.48979, -99.04297, -99.04297, 36.48979, 99018.04746, -191072.57465)" gradientUnits="userSpaceOnUse"><stop offset="0" stop-color="#fff"/><stop offset="0.323" stop-color="#fff"/><stop offset="1" stop-color="#fff"/></linearGradient><clipPath id="clip-path-4"><path class="cls-2" d="M64.32978,65.52263q-.25464.19871-.48943.421a.6895.6895,0,0,0-.20052.47368.95028.95028,0,0,0,.18458.67383,7.376,7.376,0,0,0,.51742.60581l.6097.62546a33.10767,33.10767,0,0,0,5.64822-2.5591,8.225,8.225,0,0,0-.11212-.86656,7.92871,7.92871,0,0,0-1.43438-3.26128Z"/></clipPath><linearGradient id="linear-gradient-4" x1="-1375.22" y1="1505.89408" x2="-1374.97374" y2="1505.89408" gradientTransform="matrix(-36.47031, -98.99009, -98.99009, 36.47031, 98984.39389, -190978.61772)" xlink:href="#linear-gradient-3"/><clipPath id="clip-path-5"><rect class="cls-2" x="27.15344" y="53.1655" width="158.22407" height="21.04312"/></clipPath></defs><title>kubernetes.io-logos</title><rect class="cls-5" x="-3.37342" y="-3.34411" width="223.25536" height="134.51136"/><g class="cls-6"><g class="cls-7"><path class="cls-8" d="M61.08443,58.53454a8.028,8.028,0,0,0-6.36226,9.40319,6.22061,6.22061,0,0,0,.2526.97072c.01223.03187.02427.07209.03817.10822q.03372.09873.07024.19644c.0884.22888.17661.44941.27687.666l.00815-.00815c.07617.16067.1844.33283.28058.50147a43.60056,43.60056,0,0,0,6.575-1.20736l-.78224-.84266a2.78017,2.78017,0,0,1-.69811-1.13917,2.71606,2.71606,0,0,1-.13232-.96274,2.33328,2.33328,0,0,1,.29077-.93458,2.64483,2.64483,0,0,1,.59581-.7663l5.568-4.77369a7.99706,7.99706,0,0,0-5.98125-1.21144"/></g></g><g class="cls-9"><g class="cls-7"><path class="cls-10" d="M64.32978,65.52263q-.25464.19871-.48943.421a.6895.6895,0,0,0-.20052.47368.95028.95028,0,0,0,.18458.67383,7.376,7.376,0,0,0,.51742.60581l.6097.62546a33.10767,33.10767,0,0,0,5.64822-2.5591,8.225,8.225,0,0,0-.11212-.86656,7.92871,7.92871,0,0,0-1.43438-3.26128Z"/></g></g><g class="cls-11"><path class="cls-12" d="M126.64047,73.244a32.8669,32.8669,0,0,0,7.92026.9646,33.31087,33.31087,0,0,0,6.92563-.526V70.17531a32.307,32.307,0,0,1-5.66927.4679,24.7074,24.7074,0,0,1-4.67615-.38033V65.29474h8.97319V61.78739H131.141V57.05294a26.80522,26.80522,0,0,1,4.38437-.32178,36.526,36.526,0,0,1,5.611.46791V53.66244a32.53783,32.53783,0,0,0-6.13769-.49694,34.67491,34.67491,0,0,0-8.35815.9068ZM62.51773,65.265c-.11735.29275-.26274.848-.35056,1.16978-.08733-.32179-.23371-.877-.35031-1.16978L57.84135,55.06568c-.6721-1.69525-1.72378-1.90018-3.65274-1.90018-.67234,0-2.0463.08783-2.0463.08783l-2.04581,20.663H54.627l.99338-13.853,4.2963,10.492c.32178.81823.96435,1.13976,2.2505,1.13976,1.28539,0,1.929-.32153,2.25024-1.13976l4.29606-10.492.99412,13.853h4.52951l-2.04556-20.663s-1.37371-.08783-2.04556-.08783c-1.929,0-2.9809.20493-3.65349,1.90018ZM39.83841,69.50321a16.39754,16.39754,0,0,1-5.027,1.14c-1.8709,0-3.27339-.64307-3.27339-2.68912,0-1.78258.96385-2.80524,3.53662-2.89307l4.76372-.1754ZM37.14928,53.1655a20.749,20.749,0,0,0-8.41719,1.60792l.9646,3.39a20.9981,20.9981,0,0,1,6.13743-1.11049c2.60106,0,3.94525.7304,3.94525,3.30218V61.8169H35.83412c-6.69267,0-8.68068,3.06871-8.68068,6.45921,0,4.50024,3.50761,5.9325,6.69318,5.9325A13.56017,13.56017,0,0,0,39.9843,72.66c.20468,0,.9646.81772,4.35436.81772V59.157c0-4.2958-2.65911-5.99154-7.18937-5.99154Zm54.2445,16.33771a16.39754,16.39754,0,0,1-5.027,1.14c-1.8709,0-3.27389-.64307-3.27389-2.68912,0-1.78258.96485-2.80524,3.53662-2.89307l4.76422-.1754ZM88.7044,53.1655a20.74691,20.74691,0,0,0-8.41719,1.60792l.9646,3.39A20.99761,20.99761,0,0,1,87.389,57.05293c2.6013,0,3.94574.7304,3.94574,3.30218V61.8169H87.389c-6.69242,0-8.68018,3.06871-8.68018,6.45921,0,4.50024,3.50735,5.9325,6.69342,5.9325A13.55932,13.55932,0,0,0,91.53941,72.66c.20469,0,.96461.81772,4.35486.81772V59.157c0-4.2958-2.65961-5.99154-7.18987-5.99154Zm71.69219,15.60706a14.19794,14.19794,0,0,1-5.55242,1.40275c-3.099,0-3.6247-1.40275-3.6247-4.61759V53.34091h-.67235a32.51787,32.51787,0,0,0-3.85741.2925V66.14223c0,5.46559,1.34468,8.06639,6.8971,8.06639a14.982,14.982,0,0,0,6.89711-1.63645,9.56837,9.56837,0,0,0,4.44391.90555V53.63341a35.28033,35.28033,0,0,0-3.6257-.2925h-.90556V68.77256Zm9.8822,4.70517a29.39981,29.39981,0,0,0,6.72219.7309c3.71179,0,8.38767-1.25662,8.38767-6.28307,0-3.27414-2.42564-4.67689-6.37139-6.10865-2.13339-.7892-3.94574-1.49082-3.94574-2.95211,0-.70137.52671-2.07484,3.24438-2.07484a14.55754,14.55754,0,0,1,5.14429,1.16879l1.14-3.36073a15.61943,15.61943,0,0,0-6.69318-1.43251c-3.74105,0-7.39454,1.98776-7.39454,5.99155,0,4.12139,3.74106,5.37776,6.6634,6.34261,1.988.67185,3.65372,1.37371,3.65372,2.68863,0,1.28514-.70138,2.39637-4.06259,2.39637a32.02034,32.02034,0,0,1-5.67-.61354l-.81822,3.50661ZM106.99983,57.082a20.02065,20.02065,0,0,1,3.59493-.35081c3.27339,0,5.84592,1.84138,5.84592,6.81052,0,4.82227-1.2576,7.10153-6.25454,7.10153a24.837,24.837,0,0,1-3.18632-.23395V57.082Zm3.79961-3.91647a28.40043,28.40043,0,0,0-8.32937,1.22759V73.59483a45.31454,45.31454,0,0,0,7.56995.61379c8.06639,0,11.19365-3.15654,11.19365-10.66694,0-6.48874-3.9755-10.37618-10.43423-10.37618"/></g></svg>