<svg id="Layer_1" data-name="Layer 1" xmlns="http://www.w3.org/2000/svg" viewBox="0 0 576 210"><defs><style>.cls-1{fill:#c8e8eb;}.cls-2{fill:#fff;}.cls-3{fill:#466bb2;}.cls-4{fill:#1fbdce;}.cls-5{fill:#414141;}.cls-6{fill:#fcfdff;}.cls-7{fill:#d9eff1;}.cls-8,.cls-9{fill:#316ce6;}.cls-9{stroke:#fff;stroke-miterlimit:10;stroke-width:0.89286px;}</style></defs><title>kubernetes_icons</title><circle class="cls-1" cx="482.47419" cy="105.36268" r="70.91195"/><rect class="cls-2" x="446.55791" y="55.73215" width="71.83256" height="69.41124"/><rect class="cls-3" x="456.02901" y="64.89056" width="24.32435" height="23.50443"/><rect class="cls-4" x="484.59501" y="64.89056" width="24.32435" height="23.50443"/><rect class="cls-5" x="456.02901" y="92.48056" width="52.89035" height="23.50443"/><path class="cls-3" d="M456.03613,135.55469h3.08106l7.11719,9.35156v-9.35156h3.29785v15.18847h-2.8418l-7.35547-9.65527v9.65527h-3.29883Z"/><path class="cls-3" d="M472.26562,144.99316v-.043a6.29816,6.29816,0,0,1,12.585-.04395v.04395a6.29814,6.29814,0,0,1-12.585.043Zm9.33008,0v-.043a3.08986,3.08986,0,0,0-3.05957-3.21192,2.97944,2.97944,0,0,0-3.01562,3.168v.04395a3.08961,3.08961,0,0,0,3.05957,3.21093A2.97944,2.97944,0,0,0,481.5957,144.99316Z"/><path class="cls-3" d="M486.7168,144.9502v-.04395c0-3.88379,2.53808-6.00977,5.29394-6.00977a4.46778,4.46778,0,0,1,3.624,1.73536v-5.72852h3.29785v15.83984h-3.29785v-1.67089a4.27329,4.27329,0,0,1-3.624,1.88769C489.29883,150.96,486.7168,148.834,486.7168,144.9502Zm8.96093,0v-.04395a2.854,2.854,0,1,0-5.66308,0v.04395a2.854,2.854,0,1,0,5.66308,0Z"/><path class="cls-3" d="M501.31836,144.99316v-.043a5.79015,5.79015,0,0,1,5.75-6.05372c3.88379,0,5.66309,3.01563,5.66309,6.31348,0,.26074-.02149.56445-.043.86816h-8.09375a2.69751,2.69751,0,0,0,2.84277,2.27833,3.81222,3.81222,0,0,0,2.82031-1.19336l1.8877,1.67089a6.143,6.143,0,0,1-10.82715-3.84082Zm8.20215-.97656a2.49443,2.49443,0,0,0-2.45215-2.47363,2.59169,2.59169,0,0,0-2.5166,2.47363Z"/><path class="cls-1" d="M144.05469,83.61133a39.199,39.199,0,1,1,39.19922-39.19922A39.24353,39.24353,0,0,1,144.05469,83.61133Zm0-75.144A35.94507,35.94507,0,1,0,180,44.41211,35.98519,35.98519,0,0,0,144.05469,8.46729Z"/><rect class="cls-5" x="132.33932" y="29.90174" width="35.91628" height="15.53682"/><path class="cls-6" d="M168.79785,45.981h-37.001V29.35937h37.001Zm-35.916-1.085h34.831V30.44434h-34.831Z"/><rect class="cls-5" x="129.11089" y="33.60098" width="35.91628" height="15.53682"/><path class="cls-6" d="M165.56982,49.68018H128.56836V33.05859h37.00146Zm-35.9165-1.085h34.83154V34.14355H129.65332Z"/><rect class="cls-5" x="124.6718" y="37.30022" width="35.91628" height="15.53682"/><path class="cls-6" d="M161.13037,53.37939h-37.001V36.75781h37.001Zm-35.916-1.085h34.83105V37.84277H125.21436Z"/><rect class="cls-5" x="120.83804" y="40.99947" width="35.91628" height="15.53682"/><path class="cls-6" d="M157.29688,57.07861H120.29541V40.457h37.00147Zm-35.91651-1.085h34.83154V41.542H121.38037Z"/><rect class="cls-3" x="52.94901" y="131.4875" width="25.22211" height="25.22211"/><path class="cls-6" d="M78.73584,157.27441H52.38428V130.92285H78.73584Zm-25.22168-1.1289H77.606V132.05176H53.51416Z"/><rect class="cls-3" x="48.10637" y="137.36463" width="25.22211" height="25.22211"/><path class="cls-6" d="M73.89355,163.15137H47.5415V136.7998H73.89355Zm-25.22216-1.12891H72.76367V137.92871H48.67139Z"/><rect class="cls-4" x="135.36597" y="145.36777" width="25.22211" height="25.22211"/><path class="cls-2" d="M161.13037,171.13184H134.82373V144.82617h26.30664Zm-25.22168-1.084h24.13672V145.91016H135.90869Z"/><rect class="cls-4" x="130.52333" y="151.24491" width="25.22211" height="25.22211"/><path class="cls-2" d="M156.28809,177.00879H129.981V150.70312h26.30713Zm-25.22217-1.084h24.1372V151.78711h-24.1372Z"/><rect class="cls-4" x="125.98335" y="157.12204" width="25.22211" height="25.22211"/><path class="cls-2" d="M151.74805,182.88574H125.44092V156.58008h26.30713Zm-25.22217-1.084h24.13721v-24.1377H126.52588Z"/><rect class="cls-7" x="47.10637" y="41.94928" width="30.46738" height="27.12997"/><path class="cls-2" d="M78.15234,69.65771H46.52783V41.37061H78.15234ZM47.68506,68.50049H76.99512V42.52783H47.68506Z"/><rect class="cls-7" x="43.3735" y="45.59833" width="30.46738" height="27.12997"/><path class="cls-2" d="M74.41943,73.30713H42.79492V45.01953H74.41943ZM43.95215,72.1499H73.26221V46.17676H43.95215Z"/><circle class="cls-1" cx="181.88442" cy="64.31702" r="1.91688"/><circle class="cls-1" cx="188.43374" cy="64.31702" r="1.91688"/><circle class="cls-1" cx="194.98307" cy="64.31702" r="1.91688"/><circle class="cls-1" cx="201.53239" cy="64.31702" r="1.91688"/><circle class="cls-1" cx="208.08171" cy="64.31702" r="1.91688"/><circle class="cls-1" cx="214.63104" cy="64.31702" r="1.91688"/><circle class="cls-1" cx="221.18036" cy="64.31702" r="1.91688"/><circle class="cls-1" cx="227.72968" cy="64.31702" r="1.91688"/><circle class="cls-1" cx="234.27901" cy="64.31702" r="1.91688"/><circle class="cls-1" cx="164.91262" cy="94.1868" r="1.91688"/><circle class="cls-1" cx="158.04517" cy="94.1868" r="1.91688"/><circle class="cls-1" cx="151.17771" cy="94.1868" r="1.91688"/><circle class="cls-1" cx="144.31026" cy="94.1868" r="1.91688"/><circle class="cls-1" cx="137.4428" cy="94.1868" r="1.91688"/><circle class="cls-1" cx="130.57535" cy="94.1868" r="1.91688"/><circle class="cls-1" cx="123.7079" cy="94.1868" r="1.91688"/><circle class="cls-1" cx="116.84044" cy="94.1868" r="1.91688"/><circle class="cls-1" cx="109.97299" cy="94.1868" r="1.91688"/><circle class="cls-1" cx="103.10553" cy="94.1868" r="1.91688"/><circle class="cls-1" cx="98.55058" cy="89.51791" r="1.91688"/><circle class="cls-1" cx="93.09827" cy="83.90128" r="1.91688"/><circle class="cls-1" cx="93.09827" cy="123.14688" r="1.91688"/><circle class="cls-1" cx="97.94091" cy="118.10245" r="1.91688"/><circle class="cls-1" cx="103.10553" cy="113.28642" r="1.91688"/><circle class="cls-1" cx="110.01095" cy="113.28642" r="1.91688"/><circle class="cls-1" cx="116.91636" cy="113.28642" r="1.91688"/><circle class="cls-1" cx="123.82177" cy="113.28642" r="1.91688"/><circle class="cls-1" cx="130.72718" cy="113.28642" r="1.91688"/><circle class="cls-1" cx="137.63259" cy="113.28642" r="1.91688"/><circle class="cls-1" cx="144.538" cy="113.28642" r="1.91688"/><circle class="cls-1" cx="151.44342" cy="113.28642" r="1.91688"/><circle class="cls-1" cx="158.34883" cy="113.28642" r="1.91688"/><circle class="cls-1" cx="165.25424" cy="113.28642" r="1.91688"/><circle class="cls-1" cx="172.15965" cy="113.28642" r="1.91688"/><circle class="cls-1" cx="179.06506" cy="113.28642" r="1.91688"/><circle class="cls-1" cx="185.97048" cy="113.28642" r="1.91688"/><circle class="cls-1" cx="192.87589" cy="113.28642" r="1.91688"/><circle class="cls-1" cx="199.7813" cy="113.28642" r="1.91688"/><circle class="cls-1" cx="206.68671" cy="113.28642" r="1.91688"/><circle class="cls-1" cx="213.59212" cy="113.28642" r="1.91688"/><circle class="cls-1" cx="220.49753" cy="113.28642" r="1.91688"/><circle class="cls-1" cx="171.78007" cy="94.1868" r="1.91688"/><circle class="cls-1" cx="178.64753" cy="94.1868" r="1.91688"/><circle class="cls-1" cx="185.51498" cy="94.1868" r="1.91688"/><circle class="cls-1" cx="192.38244" cy="94.1868" r="1.91688"/><circle class="cls-1" cx="199.24989" cy="94.1868" r="1.91688"/><circle class="cls-1" cx="206.11734" cy="94.1868" r="1.91688"/><circle class="cls-1" cx="212.9848" cy="94.1868" r="1.91688"/><circle class="cls-1" cx="219.85225" cy="94.1868" r="1.91688"/><circle class="cls-1" cx="181.83693" cy="145.20832" r="1.91688"/><circle class="cls-1" cx="188.38625" cy="145.20832" r="1.91688"/><circle class="cls-1" cx="194.93558" cy="145.20832" r="1.91688"/><circle class="cls-1" cx="201.4849" cy="145.20832" r="1.91688"/><circle class="cls-1" cx="208.03422" cy="145.20832" r="1.91688"/><circle class="cls-1" cx="214.58355" cy="145.20832" r="1.91688"/><circle class="cls-1" cx="221.13287" cy="145.20832" r="1.91688"/><circle class="cls-1" cx="227.6822" cy="145.20832" r="1.91688"/><circle class="cls-1" cx="234.23152" cy="145.20832" r="1.91688"/><path class="cls-1" d="M144.05469,204.05469a39.19873,39.19873,0,1,1,39.19922-39.19824A39.2427,39.2427,0,0,1,144.05469,204.05469Zm0-75.14356A35.94483,35.94483,0,1,0,180,164.85645,35.98561,35.98561,0,0,0,144.05469,128.91113Z"/><path class="cls-1" d="M60.71729,189.1748A39.199,39.199,0,1,1,99.9165,149.97559,39.24354,39.24354,0,0,1,60.71729,189.1748Zm0-75.14453A35.94532,35.94532,0,1,0,96.6626,149.97559,35.98561,35.98561,0,0,0,60.71729,114.03027Z"/><path class="cls-1" d="M60.71729,96.73535A39.199,39.199,0,1,1,99.9165,57.53613,39.24354,39.24354,0,0,1,60.71729,96.73535Zm0-75.144A35.94507,35.94507,0,1,0,96.6626,57.53613,35.98519,35.98519,0,0,0,60.71729,21.59131Z"/><rect class="cls-1" x="363.91406" y="101.18201" width="38.8418" height="3.25391"/><polygon class="cls-1" points="391.561 116.042 389.334 113.669 400.386 103.304 388.419 91.934 390.659 89.576 405.126 103.319 391.561 116.042"/><circle class="cls-8" cx="295.23462" cy="102.80896" r="68.75"/><path class="cls-1" d="M295.23445,174.059a71.25,71.25,0,1,1,71.25-71.25A71.33073,71.33073,0,0,1,295.23445,174.059Zm0-137.5a66.25,66.25,0,1,0,66.25,66.25A66.32517,66.32517,0,0,0,295.23445,36.559Z"/><path class="cls-2" d="M331.72316,109.68616c-.18586-.04285-.45122-.11616-.63347-.14971a18.40124,18.40124,0,0,0-2.08884-.16831,20.37367,20.37367,0,0,1-3.90819-.64121,2.4496,2.4496,0,0,1-.93962-.94581l-.87973-.25607a28.31079,28.31079,0,0,0-4.538-19.60959c.2251-.20445.65153-.58184.77182-.69284a1.72332,1.72332,0,0,1,.4089-1.23389,20.39025,20.39025,0,0,1,3.24064-2.27677,18.11976,18.11976,0,0,0,1.81057-1.05629c.14043-.10429.33248-.2695.47962-.3872a2.19,2.19,0,1,0-2.71353-3.4074c-.14869.11719-.35106.271-.48324.38565a18.07152,18.07152,0,0,0-1.43988,1.523,20.40927,20.40927,0,0,1-2.9376,2.65777,2.42122,2.42122,0,0,1-1.32165.14352l-.82914.59217a28.55449,28.55449,0,0,0-18.08607-8.739c-.02013-.28963-.04491-.81416-.05265-.97266a1.72637,1.72637,0,0,1-.71091-1.08933,20.40864,20.40864,0,0,1,.24678-3.95259,18.12814,18.12814,0,0,0,.29685-2.07129c.00671-.17553-.00361-.43057-.00361-.62a2.19,2.19,0,1,0-4.35786.00207c0,.02065.00464.04026.00516.06092-.00206.18069-.01084.39959-.00516.55757a18.31387,18.31387,0,0,0,.29737,2.07284,20.38,20.38,0,0,1,.24265,3.95155,2.37536,2.37536,0,0,1-.7073,1.1265l-.05163.92207a28.422,28.422,0,0,0-3.93916.60559,28.02787,28.02787,0,0,0-14.2357,8.13336q-.39753-.27414-.78783-.55861a1.72075,1.72075,0,0,1-1.29378-.12545,20.33236,20.33236,0,0,1-2.93759-2.65416,18.20172,18.20172,0,0,0-1.43369-1.523c-.13269-.11358-.33558-.26846-.48427-.38721a2.5968,2.5968,0,0,0-1.51887-.57306,2.09919,2.09919,0,0,0-1.73623.76924,2.30929,2.30929,0,0,0,.53589,3.21225l.03356.02375c.14249.11668.318.26588.45019.36243a18.20234,18.20234,0,0,0,1.80644,1.05732,20.32467,20.32467,0,0,1,3.24013,2.2778,2.42127,2.42127,0,0,1,.43831,1.25661l.69748.62365a28.19525,28.19525,0,0,0-4.44562,19.65606l-.91225.26536a3.01246,3.01246,0,0,1-.93652.94324,20.33729,20.33729,0,0,1-3.9056.64379,18.206,18.206,0,0,0-2.09039.1683c-.16728.031-.3996.08984-.58184.13527l-.0191.00413-.031.00929a2.18693,2.18693,0,1,0,.968,4.24583l.03253-.00516c.01445-.0031.02684-.01033.0413-.0129.17966-.04131.40579-.08415.56377-.127a18.37617,18.37617,0,0,0,1.95461-.74911,20.40626,20.40626,0,0,1,3.79873-1.11773,2.41619,2.41619,0,0,1,1.25248.44244l.94994-.16262a28.35474,28.35474,0,0,0,12.56608,15.688l-.397.94994a2.16215,2.16215,0,0,1,.19464,1.23234,21.28524,21.28524,0,0,1-1.97217,3.5437,18.16482,18.16482,0,0,0-1.16832,1.74087c-.08674.16417-.1967.41559-.27982.58752a2.188,2.188,0,1,0,3.93451,1.86684l.00362-.00413v-.00516c.08261-.17037.1998-.39392.2695-.55345a18.01991,18.01991,0,0,0,.62882-1.99694,15.23859,15.23859,0,0,1,1.68718-3.91438,1.77077,1.77077,0,0,1,.9391-.45845l.49407-.89315a28.1972,28.1972,0,0,0,20.10675.05111c.13837.24678.3965.71865.46465.83791a1.72172,1.72172,0,0,1,1.11256.67632,20.29274,20.29274,0,0,1,1.49616,3.66347,18.21059,18.21059,0,0,0,.63244,1.99694c.07072.16107.18586.3872.26949.55861a2.189,2.189,0,1,0,3.93917-1.8622c-.08312-.17191-.19773-.42334-.284-.58648a18.10056,18.10056,0,0,0-1.16833-1.73674,20.3276,20.3276,0,0,1-1.93189-3.459,1.7109,1.7109,0,0,1,.16727-1.28552,7.49514,7.49514,0,0,1-.36294-.87922,28.35368,28.35368,0,0,0,12.55988-15.80052c.28189.04492.77286.13062.93239.16314a1.72273,1.72273,0,0,1,1.21841-.45277,20.38016,20.38016,0,0,1,3.79977,1.11772,18.13847,18.13847,0,0,0,1.95563.7548c.15746.0413.382.08054.56274.12029.015.00413.02839.01033.04285.01445l.031.00465a2.18693,2.18693,0,1,0,.96956-4.24583Zm-20.70254-22.193-9.312,6.60158-.03252-.01549a1.92208,1.92208,0,0,1-3.05272-1.46518l-.01033-.00516-.64689-11.41118a22.63854,22.63854,0,0,1,13.054,6.29543ZM293.4787,100.0014h3.50446l2.17868,2.72386-.78113,3.39707-3.14719,1.51475-3.1565-1.51785-.78266-3.39862Zm-3.29692-18.40409a23.06338,23.06338,0,0,1,2.32478-.39959l-.64792,11.42873-.0475.02271a1.92053,1.92053,0,0,1-3.04807,1.47241l-.01808.01033-9.37241-6.64547A22.44079,22.44079,0,0,1,290.18178,81.59731ZM275.974,91.75756l8.5567,7.65323-.00929.04646a1.92053,1.92053,0,0,1-.75479,3.30156l-.00878.03717-10.96821,3.16475A22.43406,22.43406,0,0,1,275.974,91.75807Zm11.45661,20.33082-4.35786,10.53042a22.55906,22.55906,0,0,1-9.05336-11.33115l11.246-1.91021.0191.0253a1.88662,1.88662,0,0,1,.37689-.03356,1.92054,1.92054,0,0,1,1.73674,2.67688ZM300.294,125.63021a22.52859,22.52859,0,0,1-12.295-.6314l5.53083-10.00123h.00929a1.92311,1.92311,0,0,1,3.3852-.0031h.0413l5.54477,10.01775q-1.07952.36036-2.21636.619Zm7.14573-2.96908-4.40278-10.6378.01343-.01911a1.92312,1.92312,0,0,1,.93083-2.49,1.90256,1.90256,0,0,1,.73569-.191,1.85315,1.85315,0,0,1,.44142.03253l.0191-.02375,11.34613,1.91744a22.47343,22.47343,0,0,1-9.08382,11.41221Zm10.27537-16.73757-11.02345-3.17507-.01033-.04647a1.92311,1.92311,0,0,1-.75376-3.30156l-.00413-.0222,8.5092-7.61554a22.86,22.86,0,0,1,3.28195,14.16136Z"/><rect class="cls-9" x="53.5" y="131.5" width="25" height="25"/><rect class="cls-9" x="48.5" y="137.5" width="25" height="25"/><rect class="cls-9" x="43.5" y="143.5" width="25" height="25"/></svg>
