<svg id="Layer_1" data-name="Layer 1" xmlns="http://www.w3.org/2000/svg" viewBox="0 0 214 210"><defs><style>.cls-1{fill:#316ce6;}.cls-2{fill:#08c1d1;}.cls-3{fill:#fff;}</style></defs><title>kubernetes_icons</title><rect class="cls-1" x="24.43837" y="69.59095" width="68.66984" height="68.66984" rx="2.37703" transform="translate(-56.27239 71.99817) rotate(-45)"/><rect class="cls-1" x="122.20077" y="69.59095" width="68.66984" height="68.66984" rx="2.37703" transform="translate(-27.63844 141.12663) rotate(-45)"/><rect class="cls-1" x="78.16563" y="128.81421" width="59.80067" height="59.80067" rx="2.07002" transform="translate(-80.57634 122.90059) rotate(-45)"/><rect class="cls-1" x="78.16563" y="19.38512" width="59.80067" height="59.80067" rx="2.07002" transform="translate(-3.19829 90.84955) rotate(-45)"/><rect class="cls-2" x="84.26447" y="80.01949" width="47.6109" height="47.6109" rx="5.89185" transform="translate(-41.76237 106.82659) rotate(-45)"/><rect class="cls-3" x="105.64189" y="55.09395" width="4.80943" height="43.28484"/><polygon class="cls-3" points="100.231 56.897 115.862 56.897 108.047 41.868 100.231 56.897"/><rect class="cls-3" x="114.14747" y="100.79333" width="43.28484" height="4.80943"/><polygon class="cls-3" points="155.629 95.382 155.629 111.013 170.658 103.198 155.629 95.382"/><rect class="cls-3" x="105.64143" y="109.47241" width="4.80943" height="43.28484"/><polygon class="cls-3" points="115.862 150.954 100.231 150.954 108.047 165.984 115.862 150.954"/><rect class="cls-3" x="58.69934" y="100.79348" width="43.28484" height="4.80943"/><polygon class="cls-3" points="60.503 111.013 60.503 95.382 45.474 103.198 60.503 111.013"/><circle class="cls-3" cx="107.94678" cy="103.92587" r="9.01768"/></svg>
