<svg id="Layer_1" data-name="Layer 1" xmlns="http://www.w3.org/2000/svg" viewBox="0 0 215 127"><defs><style>.cls-1{fill:transparent;}.cls-2{fill:#054752;}.cls-3{fill:#2dbeff;}.cls-4{fill:#9ef769;}</style></defs><title>kubernetes.io-logos</title><rect class="cls-1" x="-3.55202" y="-3.16104" width="223.25536" height="134.51136"/><path class="cls-2" d="M50.5482,62.90483a10.09648,10.09648,0,0,0-11.657-8.30871l1.61214-9.2636L34.588,44.27843a57.39373,57.39373,0,0,0-3.80713,11.905,10.13238,10.13238,0,0,1,2.10818,14.83168,9.63322,9.63322,0,0,0,1.52534,1.48812,9.86967,9.86967,0,0,0,7.81267,2.05858,10.07841,10.07841,0,0,0,8.30871-11.657Z"/><path class="cls-3" d="M30.68169,56.82831l.124-.62006a10.13042,10.13042,0,0,0-7.41584-1.63694L25.002,45.32012,19.0991,44.27843a55.66705,55.66705,0,0,0-3.91874,12.52508c-.81847,4.81161-.78126,9.97045,1.73615,13.604a10.08313,10.08313,0,0,0,2.009,2.10818A9.93749,9.93749,0,0,0,26.763,74.57423a10.09554,10.09554,0,0,0,6.12612-3.5343l-.47124-.62c-2.52981-3.62112-2.567-8.78-1.73615-13.57917Z"/><path class="cls-4" d="M35.08407,62.90483a10.17941,10.17941,0,0,0-4.29076-6.69658l-.124.62006c-.80606,4.81161-.76886,9.97045,1.761,13.604l.45883.62a10.19257,10.19257,0,0,0,2.18259-8.1847Z"/><path class="cls-2" d="M169.59843,72.55286h-3.52191a.24759.24759,0,0,0-.248.16121,7.01907,7.01907,0,0,1-2.18259,3.17468,6.34021,6.34021,0,0,1-3.93113,1.1905,6.43828,6.43828,0,0,1-5.33245-2.65383,11.13989,11.13989,0,0,1-1.93457-6.647,10.95044,10.95044,0,0,1,1.93457-6.647,6.47719,6.47719,0,0,1,5.33245-2.64143,6.2133,6.2133,0,0,1,3.90634,1.1905A7.2073,7.2073,0,0,1,165.8037,62.818a.25746.25746,0,0,0,.248.17361H169.586a.21832.21832,0,0,0,.16122-.0744.20809.20809,0,0,0,.0744-.17362v-.062a10.03023,10.03023,0,0,0-3.42269-5.70449,10.489,10.489,0,0,0-6.72139-2.15779,10.7838,10.7838,0,0,0-8.12269,3.59631,13.85069,13.85069,0,0,0-3.28629,9.4,13.82781,13.82781,0,0,0,3.28629,9.4A10.70465,10.70465,0,0,0,159.69,80.812a10.545,10.545,0,0,0,6.75858-2.14538,9.92832,9.92832,0,0,0,3.4103-5.7665v-.062a.27339.27339,0,0,0-.07441-.186.22487.22487,0,0,0-.17362-.062Zm30.91586-10.4417a5.38777,5.38777,0,0,0-1.07889-.09921,8.38178,8.38178,0,0,0-1.53773.14882,5.46227,5.46227,0,0,0-1.52534.57044,6.48422,6.48422,0,0,0-1.43852,1.0913,5.49933,5.49933,0,0,0-.71927.90528l-.16122.248V62.57a.27165.27165,0,0,0-.248-.27282h-3.37308a.27165.27165,0,0,0-.248.27282V80.17951a.26672.26672,0,0,0,.248.248h3.39789a.27165.27165,0,0,0,.27282-.248V71.62278a8.7445,8.7445,0,0,1,.33482-2.52982,3.94241,3.94241,0,0,1,.99209-1.66174,4.49984,4.49984,0,0,1,1.56253-.95488,6.36982,6.36982,0,0,1,2.10818-.32243,8.20808,8.20808,0,0,1,1.27731.09921h.03721a.23432.23432,0,0,0,.248-.248V62.384a.21954.21954,0,0,0-.186-.27282ZM127.4348,54.79453h-.062l-3.41029.59525a.28913.28913,0,0,0-.248.248v24.5293a.27809.27809,0,0,0,.28522.27283h3.43509a.27165.27165,0,0,0,.248-.27283V55.06736a.27809.27809,0,0,0-.28523-.27283Zm-7.0314,14.55885a7.9223,7.9223,0,0,0-2.04618-2.60422l-.248-.186a6.38048,6.38048,0,0,0-1.2153-.74407l-.124-.062.08681-.08681a6.40257,6.40257,0,0,0,1.55013-4.142,6.80726,6.80726,0,0,0-.57045-2.72823,6.41616,6.41616,0,0,0-1.57493-2.20739,6.83761,6.83761,0,0,0-2.20739-1.33932,8.85505,8.85505,0,0,0-3.13747-.496h-7.515a.2781.2781,0,0,0-.27283.28522V80.15471a.27525.27525,0,0,0,.27283.27282h9.276a10.61184,10.61184,0,0,0,3.32348-.44643,7.65771,7.65771,0,0,0,2.3562-1.30212,8.12356,8.12356,0,0,0,2.04618-2.60422c.124-.248.21082-.45884.29763-.68206l.0372-.09921.062-.17361a7.84216,7.84216,0,0,0,.39684-2.41821,7.68179,7.68179,0,0,0-.80607-3.37309ZM107.13426,58.56446h3.14987a7.66577,7.66577,0,0,1,2.23219.248,2.84473,2.84473,0,0,1,1.1161.74406,3.0471,3.0471,0,0,1,.80607,2.10818,2.9205,2.9205,0,0,1-.80607,2.08338,2.6737,2.6737,0,0,1-1.1161.74407,6.33407,6.33407,0,0,1-1.48812.248h-3.93114V58.56446Zm9.67283,15.57574a4.08418,4.08418,0,0,1-.81847,1.28971,4.3996,4.3996,0,0,1-1.45092.91767,7.89853,7.89853,0,0,1-2.57942.33484h-4.83642v-8.1475h4.83642a7.81441,7.81441,0,0,1,2.567.33482,4.21706,4.21706,0,0,1,1.42612.91768,4.56288,4.56288,0,0,1,.83087,1.26491,3.6881,3.6881,0,0,1,.31,1.52533,3.86352,3.86352,0,0,1-.31,1.56254Zm27.03433-10.36729a7.694,7.694,0,0,0-5.38207-1.79816,7.82222,7.82222,0,0,0-4.96042,1.48813,6.57984,6.57984,0,0,0-2.3562,3.16227.23831.23831,0,0,0,.186.31l3.19948.558a.21008.21008,0,0,0,.248-.124,3.66565,3.66565,0,0,1,3.69551-2.15778,3.80152,3.80152,0,0,1,2.85225,1.01689,3.71173,3.71173,0,0,1,.99208,2.72823v.64486a16.84223,16.84223,0,0,0-4.762-.74407,8.45394,8.45394,0,0,0-5.27045,1.58734,5.35873,5.35873,0,0,0-2.10818,4.48918A5.27785,5.27785,0,0,0,132.11,79.24943a7.0769,7.0769,0,0,0,4.6256,1.56254,7.62438,7.62438,0,0,0,5.60528-2.05858v1.38892a.315.315,0,0,0,.31.31h2.95146a.29377.29377,0,0,0,.29762-.29763V68.70853a6.40037,6.40037,0,0,0-2.04617-4.93563ZM140.84036,76.174a5.45021,5.45021,0,0,1-3.63351,1.24011,3.71342,3.71342,0,0,1-2.43061-.71926,2.43147,2.43147,0,0,1-.83087-1.93457,2.24937,2.24937,0,0,1,1.06649-2.009,4.99394,4.99394,0,0,1,2.72823-.68206,16.04837,16.04837,0,0,1,4.58841.74406,4.028,4.028,0,0,1-1.48813,3.34829ZM81.42685,54.79453h-.0496l-3.4227.59525a.28913.28913,0,0,0-.248.248v24.5293a.27809.27809,0,0,0,.28523.27283h3.43509a.27165.27165,0,0,0,.248-.27283V55.06736a.27525.27525,0,0,0-.27282-.27283Zm-7.0686,14.55885a7.85163,7.85163,0,0,0-2.02138-2.60422l-.248-.186a6.38094,6.38094,0,0,0-1.2153-.74406l-.124-.062.08681-.0868a6.40257,6.40257,0,0,0,1.55013-4.142,6.79674,6.79674,0,0,0-.55805-2.72823,6.41616,6.41616,0,0,0-1.57493-2.20739,6.99369,6.99369,0,0,0-2.18259-1.33932,8.85505,8.85505,0,0,0-3.13747-.496H57.4308a.27809.27809,0,0,0-.27283.28522V80.15471a.27525.27525,0,0,0,.27283.27282h9.23879a10.6118,10.6118,0,0,0,3.32348-.44643,7.65783,7.65783,0,0,0,2.3562-1.30212,8.1237,8.1237,0,0,0,2.04618-2.60422c.124-.248.21082-.45884.29762-.68206l.0372-.09921a.45985.45985,0,0,1,.04961-.17361,7.84245,7.84245,0,0,0,.39683-2.41821,7.68179,7.68179,0,0,0-.80607-3.37309ZM61.08911,58.56446h3.17467a7.66547,7.66547,0,0,1,2.23219.248,2.84459,2.84459,0,0,1,1.1161.74406,3.0471,3.0471,0,0,1,.80607,2.10818,2.9205,2.9205,0,0,1-.80607,2.08338,2.67383,2.67383,0,0,1-1.1161.74407,6.33469,6.33469,0,0,1-1.48813.248H61.08911Zm9.71,15.57573a4.60764,4.60764,0,0,1-.83087,1.28971,4.39994,4.39994,0,0,1-1.45093.91768,7.89857,7.89857,0,0,1-2.57942.33483H61.1015v-8.1475h4.83642a7.79382,7.79382,0,0,1,2.57942.33483,4.095,4.095,0,0,1,1.45093.91768,4.5631,4.5631,0,0,1,.83087,1.26491,3.68807,3.68807,0,0,1,.31,1.52533,4.0912,4.0912,0,0,1-.32243,1.56253ZM97.83346,63.7729A7.74768,7.74768,0,0,0,92.439,61.97475a7.87061,7.87061,0,0,0-4.96043,1.48813,6.65849,6.65849,0,0,0-2.3562,3.16227.25413.25413,0,0,0,.19841.31l3.18708.558a.25973.25973,0,0,0,.28522-.124,3.62753,3.62753,0,0,1,3.68312-2.15778,3.79873,3.79873,0,0,1,2.82744,1.01688,3.72647,3.72647,0,0,1,1.01689,2.72824v.64485a17.14094,17.14094,0,0,0-4.78681-.74406,8.45388,8.45388,0,0,0-5.27045,1.58734,5.84479,5.84479,0,0,0-.21082,8.80475A7.07688,7.07688,0,0,0,90.678,80.812a7.65409,7.65409,0,0,0,5.61769-2.05857v1.38892a.29455.29455,0,0,0,.28522.31h2.95146a.2968.2968,0,0,0,.31-.29762V68.70853a6.392,6.392,0,0,0-2.03377-4.93563ZM94.8076,76.174a5.53956,5.53956,0,0,1-3.65832,1.2401,3.71337,3.71337,0,0,1-2.4306-.71926,2.38429,2.38429,0,0,1-.86808-1.93456,2.23414,2.23414,0,0,1,1.0789-2.009,5.02341,5.02341,0,0,1,2.72823-.68205,15.91563,15.91563,0,0,1,4.5884.74406,3.94327,3.94327,0,0,1-1.46333,3.34828ZM185.40978,63.7729a7.74766,7.74766,0,0,0-5.39446-1.79815,7.91944,7.91944,0,0,0-4.96043,1.48813,6.73916,6.73916,0,0,0-2.3562,3.16227.27225.27225,0,0,0,.21081.31l3.19949.558a.21008.21008,0,0,0,.248-.124,3.66566,3.66566,0,0,1,3.69552-2.15778,3.85883,3.85883,0,0,1,2.85225,1.01688,3.76279,3.76279,0,0,1,.99208,2.72824v.64485a16.99125,16.99125,0,0,0-4.77441-.74406,8.45388,8.45388,0,0,0-5.27045,1.58734,5.32625,5.32625,0,0,0-2.10818,4.48918,5.26853,5.26853,0,0,0,1.92216,4.31557,7.07691,7.07691,0,0,0,4.6256,1.56253,7.68389,7.68389,0,0,0,5.63009-2.05857v1.38892a.29681.29681,0,0,0,.29763.31h2.95146a.29377.29377,0,0,0,.29763-.29762V68.70853a6.48672,6.48672,0,0,0-2.04618-4.93563ZM182.37152,76.174a5.41713,5.41713,0,0,1-3.6211,1.2401,3.71342,3.71342,0,0,1-2.43061-.71926,2.43144,2.43144,0,0,1-.83086-1.93456,2.24939,2.24939,0,0,1,1.06649-2.009,5.02336,5.02336,0,0,1,2.72823-.68205,15.78472,15.78472,0,0,1,4.58839.74406,4.028,4.028,0,0,1-1.48812,3.34828Z"/></svg>