<svg id="Layer_1" data-name="Layer 1" xmlns="http://www.w3.org/2000/svg" viewBox="0 0 215 127"><defs><style>.cls-1{fill:transparent;}.cls-2{fill:#565451;}.cls-3{fill:#9dbe33;}</style></defs><title>kubernetes.io-logos-ancestry</title><rect class="cls-1" x="-3.85086" y="-2.94673" width="223.25536" height="134.51136"/><path class="cls-2" d="M206.49065,55.80916c-.23044.02913-.20328.26043-.29916.39258a1.56017,1.56017,0,0,1-2.1031.48232,1.75339,1.75339,0,0,1-.58141-2.24039,1.57994,1.57994,0,0,1,1.95488-.77725c.48643.16341.62638.67544,1.02879.9088Zm-1.57882-1.99542a1.3767,1.3767,0,0,0-1.3278,1.41688,1.33158,1.33158,0,0,0,1.24295,1.40309,1.30025,1.30025,0,0,0,1.35524-1.35688A1.3676,1.3676,0,0,0,204.91183,53.81374Z"/><path class="cls-3" d="M33.15727,60.80375c-.39477-.15567-.78576-.32186-1.1849-.46541-4.43263-1.59405-6.8414-4.79888-7.50539-9.39616-.17243-1.19389-.327-2.391-.53493-3.57874-.06634-.37906-.01393-.49931.38233-.50488a20.12647,20.12647,0,0,1,10.87914,2.58421,15.4397,15.4397,0,0,1,5.28939,6.105,30.8206,30.8206,0,0,1,2.17066,4.842c.13915.39287.31114.59973.761.558.71265-.06605,1.62436.28663,2.09418-.13432.49025-.43927.11175-1.35559.0869-2.05652q-.20071-5.66111-.47912-11.31932c-.02707-.56128.08076-.78855.69385-.733.76671.06944,1.54192.05141,2.31358.05737.37575.0029.535.09848.502.54136-.27136,3.642-.24374,7.29114-.19758,10.93934q.11607,9.17322.268,18.34592c.00863.51578-.13369.74341-.6664.76334a10.978,10.978,0,0,1-2.30611-.12653.77283.77283,0,0,1-.72491-.95631c.26327-3.921.48607-7.84474.73162-11.767.064-1.02246.07955-1.02149-.91023-1.02238-1.72477-.00155-1.72476-.00154-1.98642,1.69947A14.06034,14.06034,0,0,1,30.26561,77.56085a29.9153,29.9153,0,0,1-5.30577.289,4.90759,4.90759,0,0,1-1.35-.16374c.76879-6.4372,4.406-10.86314,9.94146-14.14071-1.19563,0-2.26718-.00877-3.33816.01215-.1208.00236-.25155.15939-.35544.26627a11.18324,11.18324,0,0,1-7.581,3.35256A16.51578,16.51578,0,0,1,9.46437,62.75823c-.48548-.4525-.58169-.69376-.00259-1.14595A17.295,17.295,0,0,1,19.453,57.59519a16.64457,16.64457,0,0,1,9.38179,2.58265,4.49881,4.49881,0,0,0,2.88479.77092,13.973,13.973,0,0,1,1.41886-.00808Zm-3.18306,13.932c.4122-.032.92791-.04621,1.43592-.11617a7.34849,7.34849,0,0,0,5.211-2.64016,14.03974,14.03974,0,0,0,2.64642-7.20007c.05747-.5544-.11425-.72075-.66874-.656a10.192,10.192,0,0,0-7.0857,3.74738,15.37241,15.37241,0,0,0-2.70854,5.48C28.40169,74.74268,28.38971,74.73922,29.97421,74.73578Zm-1.1565-24.89886a22.14934,22.14934,0,0,0,2.085,6.84429,6.17326,6.17326,0,0,0,4.7339,3.54224,18.71433,18.71433,0,0,0,3.15687.08348c.4764-.01754.57021-.21249.45634-.61941a15.67573,15.67573,0,0,0-4.78119-8.101A6.948,6.948,0,0,0,28.81771,49.83692Zm-6.712,15.086a6.77368,6.77368,0,0,0,4.5878-1.29971c.43477-.34373.42862-.59152.04807-.97355A12.60921,12.60921,0,0,0,22.85783,59.919c-2.8255-1.23675-5.00051-.55547-7.6388,1.44738-.24024.18238-.26167.3126-.00193.52544C17.325,63.6191,19.57233,65.00231,22.10571,64.92291Z"/><path class="cls-2" d="M81.04332,57.35669c.26661-.39168.52053-.79271.802-1.17343a7.14228,7.14228,0,0,1,5.18065-3.125,5.66676,5.66676,0,0,1,6.27557,5.63041c.10377,1.87038.04409,3.74953.07128,5.62452.01563,1.0785.034,2.1579.09316,3.2346.07514,1.368.46772,1.77922,1.81825,2.06023.21266.04425.48136-.02353.631.203a.52965.52965,0,0,1-.45348.79329c-2.82886.02744-5.65786.0401-8.4868.05886-.24876.00165-.45582-.0126-.458-.355-.002-.31663.04854-.51409.41857-.60362,1.52687-.36943,1.68841-.52736,1.8022-2.106a64.76241,64.76241,0,0,0,.04574-7.85693c-.1598-3.22513-3.09694-4.67992-5.8174-2.99718a3.36885,3.36885,0,0,0-1.68216,2.94655c-.0382,2.517-.04655,5.036.01552,7.55223.04241,1.71951.30284,1.97583,2.00913,2.46345.38479.11.37745.3664.37873.64819.00164.35954-.27436.30664-.498.30681q-4.08951.00315-8.179.00328c-.30336.00037-.5531.0017-.55191-.42614.001-.3434.095-.47948.453-.55723,1.52506-.33118,1.8344-.69056,1.87973-2.23215.09968-3.39039.10636-6.78211-.0016-10.17223-.05865-1.8417-.44537-2.28015-2.23331-2.645-.38587-.07874-.60153-.16982-.5568-.61911.04512-.4534.35716-.35572.62037-.35638,1.90328-.00478,3.80674.01089,5.70974-.01244.44815-.0055.57078.14221.56036.57-.02523,1.03526-.0082,2.07154-.0082,3.10741Z"/><path class="cls-2" d="M192.97256,66.87483c1.221-3.39271,2.64877-6.5153,3.63606-9.79887.52064-1.73161.07549-2.32121-1.71943-2.47934-.42365-.03731-.678-.08985-.63544-.5993.02772-.33171.138-.445.46843-.42977a58.69589,58.69589,0,0,0,6.24644-.0094c.33409-.02021.48366.10547.47594.42542-.00581.23951.10083.545-.29675.59145-1.5206.17779-2.23364,1.25856-2.73687,2.51626-1.0856,2.71318-2.13147,5.44222-3.19586,8.16388-1.438,3.677-2.86921,7.35675-4.32216,11.02788a13.90381,13.90381,0,0,1-2.006,3.62505,5.20157,5.20157,0,0,1-6.38469,1.49486,1.04433,1.04433,0,0,1-.69384-1.39755,9.23223,9.23223,0,0,1,.87274-2.12836.63642.63642,0,0,1,.89354-.30875,21.4698,21.4698,0,0,0,2.03815.69638,2.78406,2.78406,0,0,0,3.39648-1.28141,24.7073,24.7073,0,0,0,1.85008-4.3846c.12729-.31465-.08677-.60067-.198-.879-1.4848-3.71576-3.17381-7.343-4.78848-11.00256-.63124-1.43073-1.25148-2.8663-1.88265-4.29708a2.76805,2.76805,0,0,0-2.42029-1.87c-.34608-.0253-.56153-.15622-.54956-.57411.01468-.51228.35932-.41049.6494-.40079q4.32011.14451,8.64-.00047c.26794-.00911.5744-.09521.59568.36985.01828.40011-.158.52317-.51173.60445-1.54959.35611-1.89971.83467-1.43817,2.23635C190.07069,60.172,191.61933,63.38744,192.97256,66.87483Z"/><path class="cls-2" d="M65.241,68.46883a6.98514,6.98514,0,0,1-2.32851,2.21578,4.89144,4.89144,0,0,1-6.42206-1.5179,4.72225,4.72225,0,0,1,1.31567-6.30762,10.77835,10.77835,0,0,1,5.59907-1.95641c.51081-.05743,1.02489-.09364,1.53849-.11522.27981-.01176.38542-.09711.41924-.40105.32626-2.932-1.4972-4.7893-4.42583-4.43908a6.51928,6.51928,0,0,0-4.00842,2.26238c-.29269.31464-.49334.39387-.78824.03567a.38653.38653,0,0,1-.02609-.48756,8.31565,8.31565,0,0,1,8.4268-4.64361,5.57944,5.57944,0,0,1,4.84056,5.3047,48.21422,48.21422,0,0,1-.07877,5.31443c-.0224.92485-.06908,1.8491-.09448,2.77391a3.948,3.948,0,0,0,.03664.8458c.13465.70138.362,1.36574,1.16223,1.568a1.74016,1.74016,0,0,0,1.859-.9543c.14689-.22122.10385-.73138.55372-.58809.48684.15505.27634.61671.2246.93479a3.55176,3.55176,0,0,1-3.01187,2.90459,4.06032,4.06032,0,0,1-4.41406-1.95364C65.49677,69.04087,65.39918,68.80408,65.241,68.46883Zm-.03526-3.88272.18907.00011c0-.76945-.00885-1.539.00454-2.30826.00506-.29049.00283-.51711-.39338-.45085a6.607,6.607,0,0,0-4.15629,1.96235,3.24306,3.24306,0,0,0-.43135,3.79,2.62386,2.62386,0,0,0,3.02587,1.10275A2.04108,2.04108,0,0,0,65.20331,66.355C65.2179,65.76568,65.20573,65.17574,65.20573,64.58611Z"/><path class="cls-2" d="M126.45284,61.22031c-1.82562.00009-3.65163.02167-5.4766-.0129-.55692-.01055-.73347.21555-.73271.70958a7.81408,7.81408,0,0,0,1.2303,4.53454,5.64692,5.64692,0,0,0,8.35633.91724,6.91815,6.91815,0,0,0,1.39056-1.434c.18428-.26783.36009-.39969.69185-.2298.39152.2005.20381.46758.109.7143a8.29833,8.29833,0,0,1-7.90737,4.86268c-4.81726-.18571-8.31534-3.49282-8.5687-8.10089-.29165-5.30464,2.79251-9.30383,7.7211-10.023a8.31324,8.31324,0,0,1,6.32359,1.29779,7.16952,7.16952,0,0,1,2.9626,6.35389c-.00868.44375-.25318.41254-.546.41206Q129.22982,61.21716,126.45284,61.22031Zm-2.6843-1.24219c1.02788,0,2.056-.01313,3.08351.00681.38253.00743.5767-.08319.53935-.50844-.06274-.71478-.03383-1.44294-.15558-2.1461a3.02081,3.02081,0,0,0-5.83071-1.05765,8.64953,8.64953,0,0,0-1.08656,3.09948c-.08061.459.00115.6407.52106.61808C121.81424,59.94789,122.79205,59.97809,123.76854,59.97812Z"/><path class="cls-2" d="M153.2439,61.20831c-.00049-1.69663-.016-3.3935.00954-5.08975.00706-.46924-.12125-.63718-.60494-.608-.66663.04027-1.33758.01425-2.00658.007-.19356-.00209-.42772.06384-.51936-.207a.62191.62191,0,0,1,.09393-.65255,6.01471,6.01471,0,0,1,.44828-.42337c1.99484-1.82029,3.9934-3.63657,5.89363-5.55708.21089-.21314.3914-.501.77428-.36928.45829.15767.30143.54544.30465.85143.01386,1.3109.02384,2.62238-.00316,3.93286-.01012.49075.12819.6714.64617.66177,1.62065-.03012,3.24337.025,4.86292-.02695.73772-.02364.69586.40773.699.87836.00327.48763-.00253.88853-.723.86491-1.61947-.05309-3.24208-.00256-4.863-.02545-.45507-.00643-.62762.102-.62367.59548.02547,3.18737-.01307,6.37549.037,9.56231a2.65187,2.65187,0,0,0,2.63865,2.90878,3.1731,3.1731,0,0,0,2.57122-1.47888c.1801-.23392.25418-.56521.6965-.32613.44853.24243.20431.5209.10335.77405a5.91633,5.91633,0,0,1-6.994,3.509c-2.126-.61843-3.34305-2.3354-3.43481-4.846-.00283-.07706-.00588-.15418-.00589-.23126Q153.24413,63.56047,153.2439,61.20831Z"/><path class="cls-2" d="M147.5336,56.255c0,.77066.01355,1.54171-.00863,2.31173-.00635.22059.17031.57867-.21359.63274-.356.05013-.76559.1694-1.00813-.30124a11.87542,11.87542,0,0,0-1.58792-2.359c-1.07313-1.23445-2.31346-2.12341-4.08018-1.82967a2.43863,2.43863,0,0,0-2.05168,1.74106,2.20721,2.20721,0,0,0,1.11939,2.34644,20.25671,20.25671,0,0,0,3.4744,1.63852,15.17627,15.17627,0,0,1,2.98986,1.57717,4.75006,4.75006,0,0,1-.48243,8.26352,9.95008,9.95008,0,0,1-6.2224.89642,12.57053,12.57053,0,0,1-3.4294-.84038.91512.91512,0,0,1-.64976-.842,32.8457,32.8457,0,0,1-.22528-3.61163c.00455-.25584-.129-.60049.32578-.64262.37135-.0344.7002-.04465.88766.39245a9.41211,9.41211,0,0,0,1.36386,2.226c1.26379,1.55352,2.778,2.60033,4.91108,2.30523a2.74567,2.74567,0,0,0,2.247-1.42306,2.16474,2.16474,0,0,0-.67646-2.75052,14.18181,14.18181,0,0,0-3.66555-1.9286,14.89579,14.89579,0,0,1-3.14491-1.60562,4.73523,4.73523,0,0,1,.18769-7.98166,7.41653,7.41653,0,0,1,6.0667-.90363c.424.09944.835.25377,1.25786.35935a1.17364,1.17364,0,0,0,1.38209-.3957.83691.83691,0,0,1,1.04-.257c.35362.11455.17776.48977.18532.74717C147.54776,54.76464,147.53365,55.51,147.5336,56.255Z"/><path class="cls-2" d="M112.82775,56.44632c0,.8736.01045,1.74741-.00733,2.62065-.00446.21913.15226.57843-.2663.59434-.33184.01262-.71327.15964-.9388-.29414-.28494-.57329-.61025-1.1281-.94323-1.67567a9.478,9.478,0,0,0-2.07583-2.46471,3.70523,3.70523,0,0,0-5.9005,1.03993,10.3569,10.3569,0,0,0-1.13211,6.33795,8.0183,8.0183,0,0,0,1.35165,3.96245,4.9134,4.9134,0,0,0,5.76207,1.95236,6.99392,6.99392,0,0,0,3.64466-2.584c.19688-.27334.34886-.4738.73521-.26394.4356.23661.2127.50059.0937.76716a8.32892,8.32892,0,0,1-7.70123,4.8466,8.54,8.54,0,0,1-7.96624-5.54911c-1.77306-4.65862.21169-9.985,4.45328-11.86656a10.54109,10.54109,0,0,1,7.46162-.32608c.34439.10112.69207.19186,1.03344.30222a.90122.90122,0,0,0,1.14915-.362c.26839-.44586.66779-.35574,1.01927-.2905.40314.07483.21115.46382.21819.70957C112.84264,54.75008,112.82775,55.59841,112.82775,56.44632Z"/><path class="cls-2" d="M172.8039,58.09716c.21562-.4505.41877-.90748.64924-1.35027a7.5644,7.5644,0,0,1,2.78564-3.12276,3.08376,3.08376,0,0,1,3.7221.26959,2.18893,2.18893,0,0,1,.34765,2.991,4.71828,4.71828,0,0,1-.59219.708c-.9549.94606-1.18022.95526-2.26231.1373q-.06154-.04653-.1233-.09277c-1.73279-1.2968-2.97172-.96605-3.84865,1.03338a6.53315,6.53315,0,0,0-.58042,2.61485c-.00616,2.02994-.06664,4.0612.071,6.08937.11306,1.66563.47585,2.10807,2.10838,2.41878.43076.082.5528.241.53218.6429-.02535.4942-.388.32168-.62387.32261q-4.16808.01651-8.33624.00335c-.25552-.00055-.58009.117-.61833-.35031-.036-.43963.16961-.54968.55344-.63732,1.47954-.33784,1.78575-.56906,1.84152-2.0236a100.61811,100.61811,0,0,0-.04282-10.8626c-.10157-1.45547-.60505-1.89767-2.05786-2.14722-.37116-.06376-.727-.06339-.67117-.6082.05654-.55124.45646-.38237.75138-.38409,1.87817-.01094,3.7566.008,5.63456-.015.47414-.00581.61812.14233.60653.614-.03021,1.23184-.01016,2.46489-.01016,3.69746Z"/><path class="cls-2" d="M205.56931,56.12061c-.43077-.07413-.76286-1.49787-1.2563-.06144,0-.43605.01737-.873-.00432-1.30792-.02846-.57066.35928-.45094.67331-.41266.36966.04507.75934.29894.5243.63553C205.21018,55.39814,205.45361,55.70278,205.56931,56.12061Z"/></svg>