<svg id="Layer_1" data-name="Layer 1" xmlns="http://www.w3.org/2000/svg" viewBox="0 0 215 127"><defs><style>.cls-1{fill:transparent;}.cls-2{fill:#d61920;}.cls-3{fill:#231f20;}</style></defs><title>kubernetes.io-logos</title><rect class="cls-1" x="-3.55202" y="-3.16104" width="223.25536" height="134.51136"/><g id="g7"><path id="path9" class="cls-2" d="M128.13594,59.24415l5.78-5.79283-4.61116-4.5983,4.61116-4.61115-5.78-5.78-4.61115,4.5983-3.04413-3.04412a12.4928,12.4928,0,1,0,0,17.66107c1.4-1.3872,3.04413-3.04413,3.04413-3.04413l4.61115,4.61114m-13.44811-7.347a4.305,4.305,0,1,1,0-6.08825c1.37435,1.36151,3.04413,3.04412,3.04413,3.04412l-3.04413,3.04413m76.96375-11.88108a12.55877,12.55877,0,0,0-17.72529,0c-1.4129,1.4-3.01845,3.04412-3.01845,3.04412l-4.59829-4.5983-5.79284,5.78,4.61114,4.61115-4.61114,4.5983,5.79284,5.79283,4.59829-4.61114s1.60555,1.65693,3.01845,3.04413a12.55879,12.55879,0,0,0,17.72529,0,12.63926,12.63926,0,0,0,0-17.66107m-5.78,11.88108a4.42022,4.42022,0,0,1-6.16532,0c-1.28444-1.37436-2.95422-3.04413-2.95422-3.04413s1.66978-1.68261,2.95422-3.04412a4.396,4.396,0,0,1,6.16532,0,4.58609,4.58609,0,0,1,0,6.08825M153.067,48.853s13.56371-13.57655,14.92521-14.92522a12.49735,12.49735,0,0,0-17.67392-17.67391C148.40443,18.16771,147.287,19.298,147.287,19.298s-1.14315-1.1303-3.04412-3.04412A12.49735,12.49735,0,1,0,126.56892,33.9278L141.49413,48.853s-13.57655,13.56371-14.92521,14.91237a12.49735,12.49735,0,1,0,17.67392,17.67392c1.901-1.91382,3.04412-3.04413,3.04412-3.04413s1.11747,1.13031,3.03128,3.04413a12.49735,12.49735,0,0,0,17.67392-17.67392C166.63066,62.41673,153.067,48.853,153.067,48.853m-20.7052-20.718A4.305,4.305,0,1,1,138.45,22.04672l3.04413,3.04413L136.883,29.702l5.79284,5.78,4.61114-4.59831,4.5983,4.59831,5.79284-5.78L153.067,25.09085l3.04413-3.04413a4.305,4.305,0,0,1,6.08825,6.08826c-1.75968,1.77253-14.97659,14.98943-14.97659,14.98943s-13.10131-13.2169-14.861-14.98943m29.83758,47.5115a4.30252,4.30252,0,0,1-6.08825,0L153.067,72.60235l4.61115-4.61115-5.79284-5.78-4.5983,4.5983-4.61114-4.5983-5.79284,5.78,4.61115,4.61115L138.45,75.64648a4.305,4.305,0,1,1-6.08825-6.08826c1.75968-1.75968,14.861-14.98943,14.861-14.98943s13.21691,13.22975,14.97659,14.98943a4.30253,4.30253,0,0,1,0,6.08826"/><path id="path11" class="cls-3" d="M81.76759,75.23545V76.841a6.2696,6.2696,0,0,0-4.53408-1.9652,6.43865,6.43865,0,0,0-4.868,2.04227,7.26347,7.26347,0,0,0-1.95236,5.17629,7.41007,7.41007,0,0,0,1.95236,5.22768,6.63706,6.63706,0,0,0,9.40211.20551V88.979h3.36523V75.23545H81.76759m-.95049,10.07A3.92,3.92,0,0,1,77.82435,86.5a3.75037,3.75037,0,0,1-2.87715-1.23307,4.59046,4.59046,0,0,1-1.11746-3.2111,4.46773,4.46773,0,0,1,1.14315-3.08266A3.75841,3.75841,0,0,1,77.85,77.753a3.838,3.838,0,0,1,2.96706,1.22022,4.95613,4.95613,0,0,1,0,6.3323"/><path id="path13" class="cls-3" d="M35.42108,69.01876h3.48983v7.79656a5.07464,5.07464,0,0,1,4.014-1.79822c2.50967,0,4.7934,1.66978,4.7934,5.8699v8.169h-3.179V80.6558c0-1.43858-.58314-3.26248-2.64325-3.26248-1.964,0-2.97361,1.47711-2.98517,3.26248v8.40025H35.42108V69.01876"/><path id="path15" class="cls-3" d="M34.16361,85.63943a8.84381,8.84381,0,0,1-2.93495,2.64595,9.40054,9.40054,0,0,1-4.69206,1.20738,8.865,8.865,0,0,1-6.4479-2.6588,9.10759,9.10759,0,0,1,.3468-13.2169,8.83518,8.83518,0,0,1,6.08825-2.37622,9.39181,9.39181,0,0,1,4.67537,1.23306A8.91664,8.91664,0,0,1,34.15847,75.107l-2.994,2.145a5.28278,5.28278,0,0,0-.86571-1.37435,5.01949,5.01949,0,0,0-7.58977.02569,7.56547,7.56547,0,0,0,0,9.01678,4.7079,4.7079,0,0,0,3.76341,1.734,4.79577,4.79577,0,0,0,3.79681-1.77253,5.29148,5.29148,0,0,0,.89526-1.4s2.22594,1.59271,2.99917,2.15786"/><path id="path17" class="cls-3" d="M63.97807,75.0171c-3.31386-.05138-4.39279,1.79822-4.39279,1.79822l-.167-1.6184H56.42555V89.0432h3.468V80.643a2.97925,2.97925,0,0,1,2.99275-3.26248c2.068,0,2.67164,1.83675,2.67164,3.26248V89.0432H68.769V80.887c0-4.213-2.28631-5.85706-4.791-5.8699"/><path id="path19" class="cls-2" d="M50.336,89.0432h3.25606V75.15839H50.336Z"/><path id="path21" class="cls-2" d="M51.94285,73.7455a1.93426,1.93426,0,1,1,.02826,0h-.02826"/><path id="path23" class="cls-2" d="M51.94285,94.19381a1.80031,1.80031,0,0,1-1.88556-1.81106,1.91618,1.91618,0,0,1,3.83149,0,1.80923,1.80923,0,0,1-1.91767,1.81106h-.02826"/><path id="path25" class="cls-3" d="M101.27826,95.52963a5.82122,5.82122,0,0,0-4.7139,2.145,4.04358,4.04358,0,0,0-3.59644-2.145,4.981,4.981,0,0,0-4.213,1.78538l-.1156-1.68262H85.49247v13.85013H88.999V101.1298c.01284-1.78537.95048-3.23679,2.7487-3.23679,1.88813,0,2.44044,1.81106,2.44044,3.24963v8.33988h3.17257v-8.16c.01285-2.32484,1.09178-3.42946,2.69733-3.42946,1.901,0,2.44044,1.81106,2.44044,3.24963v8.33988h3.17257v-8.10868c0-4.18728-2.10648-5.79283-4.39279-5.84421"/><path id="path27" class="cls-2" d="M50.336,109.48252h3.25606V95.63624H50.336Z"/><path id="path29" class="cls-3" d="M76.617,95.32412a7.28758,7.28758,0,0,1,3.64781.97618,7.19357,7.19357,0,0,1,2.67164,9.87736,6.79065,6.79065,0,0,1-2.6331,2.63952,7.10618,7.10618,0,0,1-3.67351.9582,6.85364,6.85364,0,0,1-5.0607-2.10777A7.2452,7.2452,0,0,1,76.617,95.32412m.25689,2.41475a3.466,3.466,0,0,0-2.7744,1.34867,5.3146,5.3146,0,0,0-1.11746,3.48083,5.40413,5.40413,0,0,0,1.10462,3.50653,3.53845,3.53845,0,0,0,5.54879-.01284,5.28081,5.28081,0,0,0,1.11746-3.49369,5.38579,5.38579,0,0,0-1.09178-3.49368,3.49788,3.49788,0,0,0-2.78723-1.33582"/><path id="path31" class="cls-3" d="M42.92492,95.45257c-3.30115-.03854-4.39164,1.79822-4.39164,1.79822l-.167-1.6184H35.371v13.85013h3.48469v-8.39125a2.95244,2.95244,0,0,1,2.9903-3.24964c2.055,0,2.64711,1.81106,2.64711,3.24964v8.39125h3.22523v-8.13437c0-4.22581-2.28373-5.8442-4.7934-5.89558"/><path id="path33" class="cls-3" d="M25.0338,109.66877c3.31386.045,4.40563-1.80207,4.40563-1.80207l.167,1.61582h2.994V95.63239H29.11832v8.40025c-.01284,1.78537-1.02755,3.26248-2.99275,3.26248a2.99348,2.99348,0,0,1-2.87715-3.26248V95.63239H19.76759v8.14336c0,4.22324,2.76155,5.86091,5.26621,5.893"/><path id="path35" class="cls-3" d="M69.23144,106.7685a6.94169,6.94169,0,0,1-2.32484,2.09492,7.36885,7.36885,0,0,1-3.72488.94792,7.18355,7.18355,0,0,1-7.23141-7.21728,6.89561,6.89561,0,0,1,2.40191-5.35612,6.99655,6.99655,0,0,1,4.81665-1.87528,7.46068,7.46068,0,0,1,3.712.97617,6.99158,6.99158,0,0,1,2.33768,2.06795L66.624,100.26922a3.66928,3.66928,0,0,0-.62937-1.00186,3.38833,3.38833,0,0,0-2.74871-1.29729,3.43633,3.43633,0,0,0-2.73586,1.29729,5.03476,5.03476,0,0,0-1.09178,3.3267,5.14588,5.14588,0,0,0,1.07893,3.37809,3.54465,3.54465,0,0,0,5.47173-.01285,3.90725,3.90725,0,0,0,.65506-1.05324l2.60742,1.86244"/><path id="path37" class="cls-3" d="M172.51339,107.64192a1.08524,1.08524,0,0,1-1.02754-1.07893V97.98292h-3.73773v1.65693h1.23306v7.5782a2.10585,2.10585,0,0,0,1.99089,2.08337h14.2573v-1.6595h-12.716m6.03688-11.36731c-1.156-.71929-2.312-1.28444-2.312-1.28444l-.89911,1.14315.89911.78351h-3.33955v9.95442h.64222a1.44886,1.44886,0,0,0,1.54133-1.50279v-1.37435h2.69733v2.87714h.64222a1.37627,1.37627,0,0,0,1.54133-1.50279v-1.37435h2.69732v.68075c0,.32111-.38532.53946-.77066.53946h-1.02756l.51378,1.65693h1.66978a1.98874,1.98874,0,0,0,1.92666-1.99088v-6.602a1.37566,1.37566,0,0,0-1.28444-1.36151h-2.69732l3.468-2.08079V92.92222H172.77029v1.65693h8.47731l-2.69733,1.69546m-.77066,6.12679h-2.69733v-1.11747h2.69733v1.11747m0-2.71017h-2.69733V98.57376h2.69733v1.11747m4.88087,2.71017h-2.69732v-1.11747h2.69732v1.11747m-2.69732-3.82764h2.69732v1.11747h-2.69732V98.57376m-8.092-2.62026a13.7296,13.7296,0,0,0-2.65879-2.6588l-1.29728.93765,2.18355,3.00559,1.77252-1.28444"/><path id="path39" class="cls-3" d="M157.11294,103.62162l-1.11747.30826V94.64337a1.47922,1.47922,0,0,0-1.4-1.65693H148.687v1.65693h4.93226v2.56888h-2.01658V95.504h-2.23492v10.28837l-.989.28258v1.86116l5.24052-1.47583v3.36267h.9248c.78351,0,1.27159-.4624,1.45141-1.34609v-2.67164l1.11747-.32111v-1.86244m-3.49368.97617-2.01658.56516v-2.59458h2.01658v2.02942m0-3.68635h-2.01658V98.86918h2.01658v2.04226m9.13238,1.25876H165.616v-1.65693h-3.19827v-2.556H165.616V96.31314h-2.0808l1.901-2.37621-1.79822-1.29729-2.37622,3.6735h-1.69546l1.38719-1.00186a25.71168,25.71168,0,0,0-2.20923-2.67164l-1.323.78351,1.69547,2.89h-2.08079v1.64409h2.76155v2.556h-2.76155v1.65693h2.45327l-2.90283,7.44591h1.2459a1.84681,1.84681,0,0,0,1.60556-1.05325l1.77253-4.44031,2.45328,5.49356h2.42759l-3.33954-7.44591"/><path id="path41" class="cls-3" d="M124.334,94.95164h-5.446v-2.312h-2.82578v2.312h-3.5579v1.66977h3.5579v6.75616h-4.41847V94.95164h-2.83862v10.09571h7.25709v4.77555h.44956c1.59271-.04752,2.312-.75011,2.37622-1.9562v-2.81935h4.791a2.46765,2.46765,0,0,0,2.45328-2.35053V96.6471a1.81092,1.81092,0,0,0-1.79821-1.69546m-1.0404,7.35985a1.06346,1.06346,0,0,1-1.06609,1.06608H118.888V96.62141h4.40563v5.69008"/><path id="path43" class="cls-3" d="M143.93456,92.92222H132.16908v1.65693h10.95629v12.03522a1.08323,1.08323,0,0,1-1.07893,1.07636H131.29566V92.92222h-2.60741v16.428h14.68117a2.36043,2.36043,0,0,0,2.36337-2.36338V94.72044a1.80351,1.80351,0,0,0-1.79823-1.79822M142.252,104.37944H140.9932l.83488-1.02756a18.83963,18.83963,0,0,0-1.978-1.55417l-1.0147,1.01471,1.42572,1.567h-1.91381V101.605h3.84047V99.94811h-3.84047V97.893h3.84047V96.23608H132.2333V97.893H135.727v2.0551H132.2333V101.605H135.727v2.7744h-3.5579v1.65693H142.252v-1.65693"/></g></svg>