<svg id="Layer_1" data-name="Layer 1" xmlns="http://www.w3.org/2000/svg" viewBox="0 0 214 186"><defs><style>.cls-1{fill:#316ce6;}.cls-2{fill:#09c1d1;}</style></defs><title>kubernetes_icons</title><path class="cls-1" d="M85.0934,25.22919a5.15854,5.15854,0,0,1,5.14346-5.14333h32.4639a5.15854,5.15854,0,0,1,5.14346,5.14333v9.98237h11.86532V24.51681a14.57554,14.57554,0,0,0-14.5328-14.53274H87.94924A14.57555,14.57555,0,0,0,73.41643,24.51681V35.21156h11.677Z"/><path class="cls-1" d="M33.62391,35.23859a28.16152,28.16152,0,0,0-28.079,28.07892V143.5339a28.16153,28.16153,0,0,0,28.079,28.079h6.97348V35.23859Z"/><path class="cls-1" d="M179.50206,35.23859h-6.97348v136.3743h6.97348a28.16154,28.16154,0,0,0,28.079-28.079V63.31751A28.16152,28.16152,0,0,0,179.50206,35.23859Z"/><polygon class="cls-2" points="139.709 35.212 127.844 35.212 85.093 35.212 73.417 35.212 46.459 35.212 46.459 35.239 46.459 35.424 46.459 61.326 50.848 61.326 58.772 47.604 51.739 35.424 52.036 35.424 52.943 35.424 53.24 35.424 60.009 47.147 75.535 47.147 75.855 47.147 82.624 35.424 82.843 35.424 83.828 35.424 84.047 35.424 77.163 47.347 79.542 51.466 85.234 61.326 101.204 61.326 105.331 54.179 109.362 47.198 109.018 46.603 102.564 35.424 103.768 35.424 110.164 46.503 123.684 46.503 126.497 46.503 132.893 35.424 134.098 35.424 127.405 47.016 130.866 53.01 135.48 61.003 151.421 61.003 159.508 46.995 152.826 35.424 154.03 35.424 160.29 46.265 166.667 46.265 166.667 35.424 166.667 35.239 166.667 35.212 139.709 35.212"/><polygon class="cls-2" points="60.094 162.631 75.996 162.631 84.14 148.524 76.144 134.672 60.094 134.672 52.023 148.652 60.094 162.631"/><polygon class="cls-2" points="100.995 149.377 85.093 149.377 76.902 163.565 81.548 171.613 81.657 171.802 104.19 171.802 104.299 171.613 109.067 163.356 100.995 149.377"/><polygon class="cls-2" points="75.762 163.675 59.719 163.675 55.136 171.613 55.027 171.802 80.453 171.802 80.344 171.613 75.762 163.675"/><polygon class="cls-2" points="85.234 62.37 77.32 76.078 85.512 90.265 85.476 90.328 101.377 90.328 109.448 76.35 101.377 62.37 85.234 62.37"/><polygon class="cls-2" points="60.094 104.244 76.236 104.244 84.151 90.537 75.959 76.35 75.996 76.286 60.094 76.286 60.091 76.292 60.124 76.35 52.056 90.323 60.094 104.244"/><polygon class="cls-2" points="151.915 91.11 135.772 91.11 127.701 105.089 135.772 119.067 151.905 119.067 159.98 105.08 151.915 91.11"/><polygon class="cls-2" points="151.915 148.13 159.986 134.15 151.915 120.171 135.776 120.171 127.704 134.155 135.772 148.13 151.915 148.13"/><polygon class="cls-2" points="152.668 61.264 160.752 75.268 166.667 75.268 166.667 47.309 160.725 47.309 152.668 61.264"/><polyline class="cls-2" points="155.246 171.802 155.355 171.613 160.287 163.071 152.297 149.232 136.154 149.232 128.083 163.212 132.934 171.613"/><polygon class="cls-2" points="110.121 163.555 105.469 172 131.691 172 127.038 163.555 110.121 163.555"/><polygon class="cls-2" points="102.438 119.912 110.508 133.892 126.647 133.892 134.72 119.908 126.651 105.933 110.508 105.933 102.438 119.912"/><polygon class="cls-2" points="156.722 171.613 156.613 171.802 166.667 171.802 166.667 171.613 166.667 163.412 161.456 163.412 156.722 171.613"/><polygon class="cls-2" points="51.069 149.377 46.459 149.377 46.459 171.613 46.459 171.802 53.823 171.802 53.932 171.613 58.92 162.974 51.069 149.377"/><polygon class="cls-2" points="151.775 62.187 135.691 62.187 127.701 76.027 135.772 90.006 151.915 90.006 159.875 76.218 151.775 62.187"/><polygon class="cls-2" points="50.852 90.322 50.819 90.265 58.887 76.292 50.848 62.37 46.459 62.37 46.459 90.328 50.848 90.328 50.852 90.322"/><polygon class="cls-2" points="126.799 76.548 110.537 76.548 102.28 90.85 110.385 104.889 126.613 104.889 134.886 90.558 126.799 76.548"/><polygon class="cls-2" points="59.301 105.351 51.23 91.372 46.459 91.372 46.459 119.33 51.23 119.33 59.301 105.351"/><polygon class="cls-2" points="58.92 134.353 50.848 120.374 46.459 120.374 46.459 147.951 51.069 147.951 58.92 134.353"/><polygon class="cls-2" points="85.234 91.372 77.163 105.351 85.234 119.33 101.377 119.33 109.448 105.351 101.377 91.372 85.234 91.372"/><polygon class="cls-2" points="101.377 148.333 109.448 134.353 101.377 120.374 85.234 120.374 77.21 134.273 85.328 148.333 101.377 148.333"/><polygon class="cls-2" points="152.801 90.558 160.854 104.507 166.667 104.507 166.667 76.312 161.025 76.312 152.801 90.558"/><polygon class="cls-2" points="152.847 119.54 160.913 133.51 166.667 133.51 166.667 105.551 160.923 105.551 152.847 119.54"/><polygon class="cls-2" points="152.992 148.35 161.084 162.368 166.667 162.368 166.667 134.553 160.957 134.553 152.992 148.35"/><polygon class="cls-2" points="127.269 162.538 135.077 149.012 126.951 134.935 110.316 134.935 102.089 149.186 109.845 162.618 127.269 162.538"/><polygon class="cls-2" points="59.705 133.628 76.378 133.628 84.331 119.852 75.959 105.351 75.996 105.288 60.469 105.288 60.505 105.351 51.943 120.183 59.705 133.628"/><polygon class="cls-2" points="76.447 48.191 76.232 48.191 59.637 48.191 51.752 61.848 59.489 75.249 59.493 75.243 76.598 75.243 84.331 61.848 77.011 49.169 76.447 48.191"/><polygon class="cls-2" points="126.337 47.547 110.536 47.547 106.707 54.179 102.38 61.675 110.364 75.505 126.507 75.505 134.492 61.674 129.734 53.432 126.337 47.547"/></svg>