<?xml version="1.0" encoding="UTF-8"?>
<svg width="120mm" height="50mm" version="1.1" viewBox="0 0 120 50" xmlns="http://www.w3.org/2000/svg" xmlns:cc="http://creativecommons.org/ns#" xmlns:dc="http://purl.org/dc/elements/1.1/" xmlns:rdf="http://www.w3.org/1999/02/22-rdf-syntax-ns#">
<style>
  text {
    font-family: "Open Sans", sans-serif;
    font-weight: initial;
    font-size: 3px;
    letter-spacing: 0;
    word-spacing: 0;
  }

  @media (max-width: 1200px) {
    text {
      font-size: 3.5px;
    }
  }

  @media (max-width: 600px) {
    text {
      font-size: 4px;
    }
  }
</style>
<path d="m80.515 23.737c-0.07154 5e-3 -0.10954 0.08683-0.06718 0.14469 0.21444 0.29879 0.32852 0.6427 0.35295 0.99012h-10.835v0.26407h10.835c-0.02397 0.34688-0.13762 0.68768-0.35295 0.9803-0.05673 0.0732 0.01926 0.17452 0.10542 0.14056l3.1853-1.172c0.08057-0.02881 0.08057-0.14275 0-0.17157l-3.1853-1.17c-0.0081-0.0033-0.01662-0.0054-0.02532-0.0062-0.0043-3.17e-4 -0.0086-3.17e-4 -0.01291 0z" color="#000000" dominant-baseline="auto" fill-rule="evenodd" shape-rendering="auto" solid-color="#000000" stop-color="#000000" style="inline-size:0;isolation:auto;mix-blend-mode:normal;shape-margin:0;shape-padding:0;"/>
<path d="m43.342 23.737c-0.07154 5e-3 -0.10954 0.08683-0.06718 0.14469 0.21444 0.29879 0.32852 0.6427 0.35295 0.99012h-10.835v0.26407h10.835c-0.02397 0.34688-0.13762 0.68768-0.35295 0.9803-0.05673 0.0732 0.01926 0.17452 0.10542 0.14056l3.1853-1.172c0.08057-0.02881 0.08057-0.14275 0-0.17157l-3.1853-1.17c-0.0081-0.0033-0.01662-0.0054-0.02532-0.0062-0.0043-3.17e-4 -0.0086-3.17e-4 -0.01291 0z" color="#000000" dominant-baseline="auto" fill-rule="evenodd" shape-rendering="auto" solid-color="#000000" stop-color="#000000" style="inline-size:0;isolation:auto;mix-blend-mode:normal;shape-margin:0;shape-padding:0;"/>
<rect x="9.4527" y="16.25" width="23.568" height="17.5" fill="#3573e3" />
<path d="m16.434 26.129q0.16298 0 0.28646-0.0049 0.12841-0.0099 0.21237-0.02963v-0.76553q-0.04939-0.02469-0.16298-0.03951-0.10866-0.01975-0.2667-0.01975-0.10372 0-0.22225 0.01482-0.11359 0.01482-0.21237 0.0642-0.09384 0.04445-0.15804 0.12841-0.06421 0.07902-0.06421 0.21237 0 0.24694 0.15804 0.34572 0.15804 0.09384 0.42968 0.09384zm-0.03951-2.3015q0.27658 0 0.46426 0.07408 0.19262 0.06915 0.30621 0.2025 0.11853 0.12841 0.16792 0.31115 0.04939 0.1778 0.04939 0.39511v1.6051q-0.05927 0.0099-0.16792 0.02963-0.10372 0.01482-0.23707 0.02963-0.13335 0.01482-0.2914 0.02469-0.1531 0.01482-0.30621 0.01482-0.21731 0-0.40005-0.04445t-0.31609-0.13829q-0.13335-0.09878-0.20743-0.25682-0.07408-0.15804-0.07408-0.3803 0-0.21237 0.08396-0.36548 0.0889-0.15311 0.23707-0.24694 0.14817-0.09384 0.34572-0.13829 0.19756-0.04445 0.41487-0.04445 0.06915 0 0.14323 0.0099 0.07408 0.0049 0.13829 0.01975 0.06914 0.0099 0.11853 0.01976 0.04939 0.0099 0.06914 0.01482v-0.12841q0-0.1136-0.02469-0.22225-0.02469-0.11359-0.0889-0.19756-0.0642-0.0889-0.1778-0.13829-0.10866-0.05433-0.28646-0.05433-0.22719 0-0.40005 0.03457-0.16792 0.02963-0.25188 0.06421l-0.05433-0.3803q0.0889-0.03951 0.29633-0.07408 0.20743-0.03951 0.44944-0.03951z" fill="#fff" />
<path d="m18.911 26.509q-0.42474-0.0099-0.60254-0.18274-0.1778-0.17286-0.1778-0.53834v-3.0819l0.45932-0.07902v3.0868q0 0.11359 0.01976 0.18768 0.01975 0.07408 0.06421 0.11853 0.04445 0.04445 0.11853 0.06914 0.07408 0.01975 0.18274 0.03457z" fill="#fff" />
<path d="m21.274 25.18q0-0.44944-0.22225-0.69144-0.22225-0.242-0.59267-0.242-0.20743 0-0.32597 0.01482-0.1136 0.01482-0.18274 0.03457v1.62q0.08396 0.06914 0.242 0.13335t0.34572 0.06421q0.19756 0 0.33584-0.06914 0.14323-0.07408 0.23213-0.19756 0.0889-0.12841 0.12841-0.29633 0.03951-0.17286 0.03951-0.37042zm0.47907 0q0 0.29139-0.07902 0.53834-0.07408 0.24694-0.22225 0.42474-0.14817 0.1778-0.36548 0.27658-0.21237 0.09878-0.48895 0.09878-0.22225 0-0.39511-0.05927-0.16792-0.05927-0.25188-0.11359v1.0273h-0.45932v-3.4029q0.16298-0.03951 0.40499-0.08396 0.24694-0.04939 0.56797-0.04939 0.29633 0 0.5334 0.09384 0.23707 0.09384 0.40499 0.2667 0.16792 0.17286 0.25682 0.42474 0.09384 0.24694 0.09384 0.5581z" fill="#fff" />
<path d="m22.404 26.459v-3.7536l0.45932-0.07902v1.3137q0.12841-0.04939 0.27164-0.07408 0.14817-0.02963 0.29139-0.02963 0.30621 0 0.50871 0.0889 0.2025 0.08396 0.32103 0.242 0.12347 0.15311 0.17286 0.37042 0.04939 0.21731 0.04939 0.47907v1.4422h-0.45932v-1.3434q0-0.23707-0.03457-0.40499-0.02963-0.16792-0.10372-0.27164-0.07408-0.10372-0.19756-0.14817-0.12347-0.04939-0.30621-0.04939-0.07408 0-0.15311 0.0099-0.07902 0.0099-0.15311 0.02469-0.06914 0.0099-0.12841 0.02469-0.05433 0.01482-0.07902 0.0247v2.1336z" fill="#fff" />
<path d="m26.09 26.129q0.16298 0 0.28646-0.0049 0.12841-0.0099 0.21237-0.02963v-0.76553q-0.04939-0.02469-0.16298-0.03951-0.10866-0.01975-0.2667-0.01975-0.10372 0-0.22225 0.01482-0.1136 0.01482-0.21237 0.0642-0.09384 0.04445-0.15804 0.12841-0.06421 0.07902-0.06421 0.21237 0 0.24694 0.15804 0.34572 0.15804 0.09384 0.42968 0.09384zm-0.03951-2.3015q0.27658 0 0.46426 0.07408 0.19262 0.06915 0.30621 0.2025 0.11853 0.12841 0.16792 0.31115 0.04939 0.1778 0.04939 0.39511v1.6051q-0.05927 0.0099-0.16792 0.02963-0.10372 0.01482-0.23707 0.02963-0.13335 0.01482-0.29139 0.02469-0.15311 0.01482-0.30621 0.01482-0.21731 0-0.40005-0.04445t-0.31609-0.13829q-0.13335-0.09878-0.20743-0.25682-0.07408-0.15804-0.07408-0.3803 0-0.21237 0.08396-0.36548 0.0889-0.15311 0.23707-0.24694 0.14817-0.09384 0.34572-0.13829 0.19756-0.04445 0.41487-0.04445 0.06914 0 0.14323 0.0099 0.07408 0.0049 0.13829 0.01975 0.06914 0.0099 0.11853 0.01976 0.04939 0.0099 0.06914 0.01482v-0.12841q0-0.1136-0.02469-0.22225-0.02469-0.11359-0.0889-0.19756-0.06421-0.0889-0.1778-0.13829-0.10866-0.05433-0.28646-0.05433-0.22719 0-0.40005 0.03457-0.16792 0.02963-0.25188 0.06421l-0.05433-0.3803q0.0889-0.03951 0.29633-0.07408 0.20743-0.03951 0.44944-0.03951z" fill="#fff" />
<g transform="translate(-1.59)">
<rect x="48.216" y="16.25" width="23.568" height="17.5" fill="#3573e3" />
<path d="m55.727 24.432q0.08396-0.05433 0.25188-0.11359 0.17286-0.05927 0.39511-0.05927 0.27658 0 0.48895 0.09878 0.21731 0.09878 0.36548 0.27658 0.14817 0.1778 0.22225 0.42474 0.07902 0.24695 0.07902 0.54328 0 0.31115-0.09384 0.56304-0.0889 0.24694-0.25682 0.4198t-0.40499 0.2667q-0.23707 0.09384-0.5334 0.09384-0.32103 0-0.56797-0.04445-0.24694-0.04445-0.40499-0.0889v-3.6795l0.45932-0.07902zm0 2.0546q0.06914 0.01976 0.19262 0.03951 0.12841 0.01482 0.31609 0.01482 0.37042 0 0.59267-0.242 0.22225-0.24695 0.22225-0.69638 0-0.19756-0.03951-0.37042-0.03951-0.17286-0.12841-0.29633-0.0889-0.12841-0.23213-0.19756-0.13829-0.07408-0.33584-0.07408-0.18768 0-0.34572 0.06421-0.15804 0.0642-0.24201 0.13335z" fill="#fff" />
<path d="m58.037 25.607q0-0.34078 0.09878-0.59267 0.09878-0.25682 0.26176-0.42474 0.16298-0.16792 0.37536-0.25188 0.21237-0.08396 0.43462-0.08396 0.51858 0 0.79516 0.32597 0.27658 0.32103 0.27658 0.98284 0 0.02963 0 0.07902 0 0.04445-0.0049 0.08396h-1.7582q0.02963 0.40005 0.23213 0.60748 0.2025 0.20743 0.63218 0.20743 0.24201 0 0.40499-0.03951 0.16792-0.04445 0.25188-0.08396l0.06421 0.38523q-0.08396 0.04445-0.29633 0.09384-0.20743 0.04939-0.47413 0.04939-0.33584 0-0.58279-0.09878-0.242-0.10372-0.40005-0.28152-0.15804-0.1778-0.23707-0.41981-0.07408-0.24694-0.07408-0.53834zm1.7632-0.25188q0.0049-0.31115-0.15804-0.5087-0.15804-0.2025-0.43956-0.2025-0.15804 0-0.28152 0.06421-0.11853 0.05927-0.2025 0.15804-0.08396 0.09878-0.13335 0.22719-0.04445 0.12841-0.05927 0.26176z" fill="#fff" />
<path d="m61.369 24.318h0.97296v0.38523h-0.97296v1.1853q0 0.19262 0.02963 0.32103 0.02963 0.12347 0.0889 0.19756 0.05927 0.06914 0.14817 0.09878 0.0889 0.02963 0.20743 0.02963 0.20743 0 0.33091-0.04445 0.12841-0.04939 0.1778-0.06914l0.0889 0.38029q-0.06914 0.03457-0.24201 0.08396-0.17286 0.05433-0.39511 0.05433-0.26176 0-0.43462-0.06421-0.16792-0.06914-0.27164-0.20249-0.10372-0.13335-0.14817-0.32597-0.03951-0.19756-0.03951-0.45438v-2.2916l0.45932-0.07902z" fill="#fff" />
<path d="m63.796 26.556q0.16298 0 0.28646-0.0049 0.12841-0.0099 0.21237-0.02963v-0.76553q-0.04939-0.0247-0.16298-0.03951-0.10866-0.01976-0.2667-0.01976-0.10372 0-0.22225 0.01482-0.1136 0.01482-0.21237 0.06421-0.09384 0.04445-0.15804 0.12841-0.06421 0.07902-0.06421 0.21237 0 0.24694 0.15804 0.34572 0.15804 0.09384 0.42968 0.09384zm-0.03951-2.3015q0.27658 0 0.46426 0.07408 0.19262 0.06914 0.30621 0.20249 0.11853 0.12841 0.16792 0.31115 0.04939 0.1778 0.04939 0.39511v1.6051q-0.05927 0.0099-0.16792 0.02963-0.10372 0.01482-0.23707 0.02963-0.13335 0.01482-0.29139 0.0247-0.15311 0.01482-0.30621 0.01482-0.21731 0-0.40005-0.04445-0.18274-0.04445-0.31609-0.13829-0.13335-0.09878-0.20743-0.25682-0.07408-0.15804-0.07408-0.38029 0-0.21237 0.08396-0.36548 0.0889-0.15311 0.23707-0.24694 0.14817-0.09384 0.34572-0.13829 0.19756-0.04445 0.41487-0.04445 0.06914 0 0.14323 0.0099 0.07408 0.0049 0.13829 0.01976 0.06915 0.0099 0.11853 0.01975 0.04939 0.0099 0.06914 0.01482v-0.12841q0-0.1136-0.02469-0.22225-0.0247-0.11359-0.0889-0.19756-0.06421-0.0889-0.1778-0.13829-0.10866-0.05433-0.28646-0.05433-0.22719 0-0.40005 0.03457-0.16792 0.02963-0.25188 0.06421l-0.05433-0.38029q0.0889-0.03951 0.29633-0.07408 0.20743-0.03951 0.44944-0.03951z" fill="#fff" />
</g>
<rect x="83.799" y="16.25" width="23.568" height="17.5" fill="#3573e3" />
<path d="m89.795 26.556q0.28152 0 0.41487-0.07408 0.13829-0.07408 0.13829-0.23707 0-0.16792-0.13335-0.2667-0.13335-0.09878-0.43956-0.22225-0.14817-0.05927-0.28646-0.11853-0.13335-0.06421-0.23213-0.14817-0.09878-0.08396-0.15804-0.2025-0.05927-0.11853-0.05927-0.29139 0-0.34078 0.25188-0.53834 0.25188-0.2025 0.6865-0.2025 0.10866 0 0.21731 0.01482 0.10866 0.0099 0.2025 0.02963 0.09384 0.01482 0.16298 0.03457 0.07408 0.01976 0.1136 0.03457l-0.08396 0.39511q-0.07408-0.03951-0.23213-0.07902-0.15804-0.04445-0.3803-0.04445-0.19262 0-0.33584 0.07902-0.14323 0.07408-0.14323 0.23707 0 0.08396 0.02963 0.14816 0.03457 0.06421 0.09878 0.11854 0.06914 0.04939 0.16792 0.09384 0.09878 0.04445 0.23707 0.09384 0.18274 0.06914 0.32597 0.13829 0.14323 0.06421 0.242 0.15311 0.10372 0.0889 0.15804 0.21731 0.05433 0.12347 0.05433 0.30621 0 0.3556-0.2667 0.53834-0.26176 0.18274-0.75071 0.18274-0.34078 0-0.5334-0.05927-0.19262-0.05433-0.26176-0.08396l0.08396-0.39511q0.07902 0.02963 0.25188 0.0889 0.17286 0.05927 0.45932 0.05927z" fill="#fff" />
<path d="m91.826 24.318h0.97296v0.38523h-0.97296v1.1853q0 0.19262 0.02963 0.32103 0.02963 0.12347 0.0889 0.19756 0.05927 0.06914 0.14817 0.09878 0.0889 0.02963 0.20743 0.02963 0.20743 0 0.33091-0.04445 0.12841-0.04939 0.1778-0.06914l0.0889 0.38029q-0.06915 0.03457-0.24201 0.08396-0.17286 0.05433-0.39511 0.05433-0.26176 0-0.43462-0.06421-0.16792-0.06914-0.27164-0.20249-0.10372-0.13335-0.14817-0.32597-0.03951-0.19756-0.03951-0.45438v-2.2916l0.45932-0.07902z" fill="#fff" />
<path d="m94.253 26.556q0.16298 0 0.28646-0.0049 0.12841-0.0099 0.21237-0.02963v-0.76553q-0.04939-0.0247-0.16298-0.03951-0.10866-0.01976-0.2667-0.01976-0.10372 0-0.22225 0.01482-0.1136 0.01482-0.21237 0.06421-0.09384 0.04445-0.15804 0.12841-0.06421 0.07902-0.06421 0.21237 0 0.24694 0.15804 0.34572 0.15804 0.09384 0.42968 0.09384zm-0.03951-2.3015q0.27658 0 0.46426 0.07408 0.19262 0.06914 0.30621 0.20249 0.11853 0.12841 0.16792 0.31115 0.04939 0.1778 0.04939 0.39511v1.6051q-0.05927 0.0099-0.16792 0.02963-0.10372 0.01482-0.23707 0.02963-0.13335 0.01482-0.29139 0.0247-0.15311 0.01482-0.30621 0.01482-0.21731 0-0.40005-0.04445-0.18274-0.04445-0.31609-0.13829-0.13335-0.09878-0.20743-0.25682-0.07408-0.15804-0.07408-0.38029 0-0.21237 0.08396-0.36548 0.0889-0.15311 0.23707-0.24694 0.14817-0.09384 0.34572-0.13829 0.19756-0.04445 0.41487-0.04445 0.06914 0 0.14323 0.0099 0.07408 0.0049 0.13829 0.01976 0.06915 0.0099 0.11853 0.01975 0.04939 0.0099 0.06914 0.01482v-0.12841q0-0.1136-0.02469-0.22225-0.02469-0.11359-0.0889-0.19756-0.06421-0.0889-0.1778-0.13829-0.10866-0.05433-0.28646-0.05433-0.22719 0-0.40005 0.03457-0.16792 0.02963-0.25188 0.06421l-0.05433-0.38032q0.0889-0.03951 0.29633-0.07408 0.20743-0.03951 0.44944-0.03951z" fill="#fff" />
<path d="m96.419 24.432q0.08396-0.05433 0.25188-0.11359 0.17286-0.05927 0.39511-0.05927 0.27658 0 0.48895 0.09878 0.21731 0.09878 0.36548 0.27658 0.14817 0.1778 0.22225 0.42474 0.07902 0.24695 0.07902 0.54328 0 0.31115-0.09384 0.56304-0.0889 0.24694-0.25682 0.4198t-0.40499 0.2667q-0.23707 0.09384-0.5334 0.09384-0.32103 0-0.56797-0.04445-0.24694-0.04445-0.40499-0.0889v-3.6795l0.45932-0.07902zm0 2.0546q0.06914 0.01976 0.19262 0.03951 0.12841 0.01482 0.31609 0.01482 0.37042 0 0.59267-0.242 0.22225-0.24695 0.22225-0.69638 0-0.19756-0.03951-0.37042-0.03951-0.17286-0.12841-0.29633-0.0889-0.12841-0.23213-0.19756-0.13829-0.07408-0.33584-0.07408-0.18768 0-0.34572 0.06421-0.15804 0.0642-0.24201 0.13335z" fill="#fff" />
<path d="m99.643 26.936q-0.42474-0.0099-0.60254-0.18274-0.1778-0.17286-0.1778-0.53834v-3.0819l0.45932-0.07902v3.0868q0 0.1136 0.01976 0.18768 0.01976 0.07408 0.06421 0.11853 0.04445 0.04445 0.11853 0.06914 0.07408 0.01975 0.18274 0.03457z" fill="#fff" />
<path d="m100.08 25.607q0-0.34078 0.0988-0.59267 0.0988-0.25682 0.26176-0.42474 0.16298-0.16792 0.37535-0.25188 0.21238-0.08396 0.43463-0.08396 0.51858 0 0.79516 0.32597 0.27658 0.32103 0.27658 0.98284 0 0.02963 0 0.07902 0 0.04445-5e-3 0.08396h-1.7582q0.0296 0.40005 0.23213 0.60748 0.20249 0.20743 0.63218 0.20743 0.242 0 0.40499-0.03951 0.16792-0.04445 0.25188-0.08396l0.0642 0.38523q-0.084 0.04445-0.29634 0.09384-0.20743 0.04939-0.47413 0.04939-0.33585 0-0.58279-0.09878-0.24201-0.10372-0.40005-0.28152t-0.23707-0.41981q-0.0741-0.24694-0.0741-0.53834zm1.7632-0.25188q5e-3 -0.31115-0.15804-0.5087-0.15805-0.2025-0.43956-0.2025-0.15805 0-0.28152 0.06421-0.11853 0.05927-0.20249 0.15804-0.084 0.09878-0.13335 0.22719-0.0445 0.12841-0.0593 0.26176z" fill="#fff" />
<text x="82.5" y="38.5" fill="#000" xml:space="preserve"><tspan x="94.5" y="38.5" text-anchor="middle">(general availability)</tspan></text>
</svg>
