<?xml version="1.0" encoding="UTF-8" standalone="no"?>
<svg
   id="Layer_1"
   data-name="Layer 1"
   viewBox="0 0 214 210"
   version="1.1"
   xmlns="http://www.w3.org/2000/svg"
   xmlns:svg="http://www.w3.org/2000/svg"
   xmlns:rdf="http://www.w3.org/1999/02/22-rdf-syntax-ns#"
   xmlns:cc="http://creativecommons.org/ns#"
   xmlns:dc="http://purl.org/dc/elements/1.1/">
  <defs
     id="defs1">
    <style
       id="style1">.cls-1{fill:#316ce6;}.cls-2{fill:#09c1d1;}.cls-3{fill:#c9e9ec;}</style>
  </defs>
  <title
     id="title1">kubernetes_icons</title>
  <rect
     class="cls-1"
     x="10.24"
     y="8.775"
     width="33.6"
     height="33.6"
     rx="4.158"
     id="rect1"
     style="fill:#09c1d1;fill-opacity:1" />
  <rect
     class="cls-1"
     x="10.24"
     y="46.975"
     width="33.6"
     height="33.6"
     rx="4.158"
     id="rect2"
     style="fill:#09c1d1;fill-opacity:1" />
  <rect
     class="cls-1"
     x="170.2"
     y="8.775"
     width="33.6"
     height="33.6"
     rx="4.158"
     id="rect3"
     style="fill:#09c1d1;fill-opacity:1" />
  <rect
     class="cls-1"
     x="90.18"
     y="86.925"
     width="33.6"
     height="33.6"
     rx="4.158"
     id="rect4"
     style="fill:#09c1d1;fill-opacity:1" />
  <rect
     class="cls-1"
     x="50.23"
     y="126.825"
     width="33.6"
     height="33.6"
     rx="4.158"
     id="rect5"
     style="fill:#09c1d1;fill-opacity:1" />
  <rect
     class="cls-1"
     x="10.24"
     y="166.085"
     width="33.6"
     height="33.6"
     rx="4.158"
     id="rect6"
     style="fill:#09c1d1;fill-opacity:1" />
  <rect
     class="cls-1"
     x="90.22"
     y="166.085"
     width="33.6"
     height="33.6"
     rx="4.158"
     id="rect7"
     style="fill:#09c1d1;fill-opacity:1" />
  <rect
     class="cls-2"
     x="89.99"
     y="8.775"
     width="33.6"
     height="33.6"
     rx="4.158"
     id="rect8"
     style="fill:#ffffff;fill-opacity:1" />
  <rect
     class="cls-3"
     x="89.99"
     y="48.1"
     width="33.6"
     height="33.6"
     rx="4.158"
     id="rect9" />
  <rect
     class="cls-3"
     x="49.914"
     y="8.775"
     width="33.6"
     height="33.6"
     rx="4.158"
     id="rect10" />
  <rect
     class="cls-3"
     x="10.24"
     y="86.925"
     width="33.6"
     height="33.6"
     rx="4.158"
     id="rect11" />
  <rect
     class="cls-3"
     x="50.23"
     y="166.085"
     width="33.6"
     height="33.6"
     rx="4.158"
     id="rect12" />
  <rect
     class="cls-3"
     x="130.21"
     y="126.825"
     width="33.6"
     height="33.6"
     rx="4.158"
     id="rect13" />
  <rect
     class="cls-3"
     x="170.2"
     y="166.085"
     width="33.6"
     height="33.6"
     rx="4.158"
     id="rect14" />
  <rect
     class="cls-2"
     x="49.914"
     y="48.1"
     width="33.6"
     height="33.6"
     rx="4.158"
     id="rect15"
     style="fill:#ffffff;fill-opacity:1" />
  <rect
     class="cls-2"
     x="50.21"
     y="86.925"
     width="33.6"
     height="33.6"
     rx="4.158"
     id="rect16"
     style="fill:#ffffff;fill-opacity:1" />
  <rect
     class="cls-2"
     x="130.15"
     y="86.925"
     width="33.6"
     height="33.6"
     rx="4.158"
     id="rect17"
     style="fill:#ffffff;fill-opacity:1" />
  <rect
     class="cls-2"
     x="170.2"
     y="124.46376"
     width="33.599998"
     height="33.599998"
     rx="4.158"
     id="rect18"
     style="fill:#ffffff;fill-opacity:1" />
  <rect
     class="cls-2"
     x="10.24"
     y="126.825"
     width="33.6"
     height="33.6"
     rx="4.158"
     id="rect19"
     style="fill:#ffffff;fill-opacity:1" />
  <rect
     class="cls-2"
     x="130.21"
     y="166.085"
     width="33.6"
     height="33.6"
     rx="4.158"
     id="rect20"
     style="fill:#ffffff;fill-opacity:1" />
  <rect
     class="cls-2"
     x="90.22"
     y="126.825"
     width="33.6"
     height="33.6"
     rx="4.158"
     id="rect21"
     style="fill:#ffffff;fill-opacity:1" />
  <metadata
     id="metadata21">
    <rdf:RDF>
      <cc:Work
         rdf:about="">
        <dc:title>kubernetes_icons</dc:title>
      </cc:Work>
    </rdf:RDF>
  </metadata>
</svg>
