<?xml version="1.0" encoding="UTF-8" standalone="no" ?>
<!DOCTYPE svg PUBLIC "-//W3C//DTD SVG 1.1//EN" "http://www.w3.org/Graphics/SVG/1.1/DTD/svg11.dtd">
<svg xmlns="http://www.w3.org/2000/svg" xmlns:xlink="http://www.w3.org/1999/xlink" version="1.1" width="230" height="140" viewBox="0 0 230 140" xml:space="preserve">
<desc>Created with Fabric.js 5.2.4</desc>
<defs>
</defs>
<rect x="0" y="0" width="100%" height="100%" fill="transparent"></rect>
<g transform="matrix(0 0 0 0 0 0)" id="f3a6417a-751a-40f2-a00b-b7b557077019"  >
</g>
<g transform="matrix(1 0 0 1 115 70)" id="c12a0f38-fb6c-4452-b417-3377983d0379"  >
<rect style="stroke: none; stroke-width: 1; stroke-dasharray: none; stroke-linecap: butt; stroke-dashoffset: 0; stroke-linejoin: miter; stroke-miterlimit: 4; fill: rgb(255,255,255); fill-rule: nonzero; opacity: 1;" vector-effect="non-scaling-stroke"  x="-115" y="-70" rx="0" ry="0" width="230" height="140" />
</g>
<g transform="matrix(0.79 0 0 0.66 120.12 74.09)"  >
<g style="" vector-effect="non-scaling-stroke"   >
		<g transform="matrix(1 0 0 1 0 0)" clip-path="url(#CLIPPATH_25)"  >
<clipPath id="CLIPPATH_25" >
	<rect transform="matrix(1 0 0 1 0 0)" id="SVGID_4_" clip-path="url(#undefined)" x="-101.9" y="-101.9" rx="0" ry="0" width="203.8" height="203.8" />
</clipPath>
<rect style="stroke: none; stroke-width: 1; stroke-dasharray: none; stroke-linecap: butt; stroke-dashoffset: 0; stroke-linejoin: miter; stroke-miterlimit: 4; fill: rgb(244,244,244); fill-rule: nonzero; opacity: 1;" vector-effect="non-scaling-stroke"  x="-101.9" y="-101.9" rx="0" ry="0" width="203.8" height="203.8" />
</g>
		<g transform="matrix(1 0 0 1 0 0)" clip-path="url(#CLIPPATH_26)"  >
<clipPath id="CLIPPATH_26" >
	<rect transform="matrix(1 0 0 1 0 0)" id="SVGID_4_" clip-path="url(#undefined)" x="-101.9" y="-101.9" rx="0" ry="0" width="203.8" height="203.8" />
</clipPath>
<rect style="stroke: none; stroke-width: 1; stroke-dasharray: none; stroke-linecap: butt; stroke-dashoffset: 0; stroke-linejoin: miter; stroke-miterlimit: 4; fill: rgb(0,0,0); fill-rule: nonzero; opacity: 1;" vector-effect="non-scaling-stroke"  x="-101.9" y="-101.9" rx="0" ry="0" width="203.8" height="203.8" />
</g>
		<g transform="matrix(1 0 0 1 19.47 -0.1)" clip-path="url(#CLIPPATH_27)"  >
<clipPath id="CLIPPATH_27" >
	<rect transform="matrix(1 0 0 1 -19.47 0.1)" id="SVGID_10_" clip-path="url(#undefined)" x="-101.9" y="-101.9" rx="0" ry="0" width="203.8" height="203.8" />
</clipPath>
<path style="stroke: none; stroke-width: 1; stroke-dasharray: none; stroke-linecap: butt; stroke-dashoffset: 0; stroke-linejoin: miter; stroke-miterlimit: 4; fill: rgb(244,244,244); fill-rule: nonzero; opacity: 1;" vector-effect="non-scaling-stroke"  transform=" translate(-121.37, -101.8)" d="M 115.9 92 C 114.2 92 112.60000000000001 93 111.9 94.3 C 111.10000000000001 95.6 109 99.39999999999999 108.2 100.7 C 107.4 102 108.4 103.5 109.8 103.5 L 122.6 103.5 C 122.6 103.5 120.69999999999999 106.8 120.3 107.5 C 119.89999999999999 108.1 119.3 108.5 118.7 108.5 L 116.7 108.5 C 116 108.5 115.8 107.8 116 107.3 C 116.2 106.89999999999999 116.8 106 116.8 106 L 105.2 106 C 105.2 106 104.3 107.6 103.5 108.9 C 102.7 110.30000000000001 103.8 111.7 105.1 111.7 L 126.8 111.7 C 128.5 111.7 130.1 110.8 130.9 109.3 C 131.70000000000002 107.89999999999999 133.70000000000002 104.5 134.5 103 C 135.3 101.6 134.3 100.1 132.9 100.1 L 120.10000000000001 100.1 C 120.10000000000001 100.1 122.2 96.5 122.50000000000001 96 C 122.80000000000001 95.5 123.40000000000002 95.1 124.10000000000001 95.1 L 126.10000000000001 95.1 C 126.80000000000001 95.1 127.00000000000001 95.8 126.80000000000001 96.19999999999999 C 126.60000000000001 96.6 126.00000000000001 97.6 126.00000000000001 97.6 L 137.60000000000002 97.6 C 137.60000000000002 97.6 138.70000000000002 95.69999999999999 139.3 94.6 C 139.9 93.5 139.10000000000002 91.89999999999999 137.70000000000002 91.89999999999999 L 115.9 91.89999999999999" stroke-linecap="round" />
</g>
		<g transform="matrix(1 0 0 1 -11.52 0)" clip-path="url(#CLIPPATH_28)"  >
<clipPath id="CLIPPATH_28" >
	<rect transform="matrix(1 0 0 1 11.52 0)" id="SVGID_10_" clip-path="url(#undefined)" x="-101.9" y="-101.9" rx="0" ry="0" width="203.8" height="203.8" />
</clipPath>
<path style="stroke: none; stroke-width: 1; stroke-dasharray: none; stroke-linecap: butt; stroke-dashoffset: 0; stroke-linejoin: miter; stroke-miterlimit: 4; fill: rgb(244,244,244); fill-rule: nonzero; opacity: 1;" vector-effect="non-scaling-stroke"  transform=" translate(-90.38, -101.9)" d="M 106.7 92 L 85 92 C 83.4 92 81.8 92.8 80.9 94.3 C 80.10000000000001 95.8 73.2 107.7 72.4 109 C 71.7 110.3 72.7 111.8 74 111.8 L 95.7 111.8 C 97.5 111.8 99 110.8 99.8 109.5 C 100.6 108.2 107.5 96.1 108.3 94.8 C 109.1 93.6 108.2 92 106.7 92 M 95.8 96.5 C 95.5 97 89.7 107 89.39999999999999 107.6 C 89.1 108.19999999999999 88.49999999999999 108.5 87.8 108.5 L 85.8 108.5 C 85.2 108.5 84.89999999999999 107.8 85.1 107.4 C 85.3 107 91.19999999999999 96.9 91.5 96.2 C 91.9 95.60000000000001 92.5 95.3 93.1 95.3 L 95.1 95.3 C 95.7 95.3 96.1 95.9 95.8 96.5" stroke-linecap="round" />
</g>
		<g transform="matrix(1 0 0 1 -53.13 0)" clip-path="url(#CLIPPATH_29)"  >
<clipPath id="CLIPPATH_29" >
	<rect transform="matrix(1 0 0 1 53.13 0)" id="SVGID_10_" clip-path="url(#undefined)" x="-101.9" y="-101.9" rx="0" ry="0" width="203.8" height="203.8" />
</clipPath>
<path style="stroke: none; stroke-width: 1; stroke-dasharray: none; stroke-linecap: butt; stroke-dashoffset: 0; stroke-linejoin: miter; stroke-miterlimit: 4; fill: rgb(244,244,244); fill-rule: nonzero; opacity: 1;" vector-effect="non-scaling-stroke"  transform=" translate(-48.77, -101.9)" d="M 75.8 92 L 51.3 92 L 41.8 108.5 L 19.799999999999997 108.5 L 19.799999999999997 111.8 C 19.799999999999997 111.8 63.3 111.8 65 111.8 C 66.6 111.8 68.2 110.89999999999999 69.1 109.5 C 70 108 71.3 105.6 71.89999999999999 104.6 C 72.49999999999999 103.6 71.89999999999999 102.3 70.8 101.89999999999999 C 72.39999999999999 101.89999999999999 74 100.99999999999999 74.8 99.6 C 75.6 98.19999999999999 76.8 96.1 77.6 94.8 C 78.1 93.6 77.3 92 75.8 92 M 62.8 104.7 C 62.5 105.2 61.5 106.9 61.099999999999994 107.60000000000001 C 60.699999999999996 108.30000000000001 60.099999999999994 108.50000000000001 59.49999999999999 108.50000000000001 C 58.89999999999999 108.50000000000001 53.29999999999999 108.50000000000001 53.29999999999999 108.50000000000001 L 56.19999999999999 103.50000000000001 L 62.09999999999999 103.50000000000001 C 62.7 103.6 63.1 104.2 62.8 104.7 M 67.6 96.5 C 67.3 97 66.3 98.7 65.89999999999999 99.4 C 65.49999999999999 100.10000000000001 64.89999999999999 100.30000000000001 64.3 100.30000000000001 L 58.099999999999994 100.30000000000001 L 60.99999999999999 95.30000000000001 L 66.89999999999999 95.30000000000001 C 67.5 95.3 67.8 96 67.6 96.5" stroke-linecap="round" />
</g>
		<g transform="matrix(1 0 0 1 56.5 0)" clip-path="url(#CLIPPATH_30)"  >
<clipPath id="CLIPPATH_30" >
	<rect transform="matrix(1 0 0 1 -56.5 0)" id="SVGID_10_" clip-path="url(#undefined)" x="-101.9" y="-101.9" rx="0" ry="0" width="203.8" height="203.8" />
</clipPath>
<polygon style="stroke: none; stroke-width: 1; stroke-dasharray: none; stroke-linecap: butt; stroke-dashoffset: 0; stroke-linejoin: miter; stroke-miterlimit: 4; fill: rgb(244,244,244); fill-rule: nonzero; opacity: 1;" vector-effect="non-scaling-stroke"  points="-14.2,-9.9 -25.6,9.9 2,9.9 3.9,6.6 -12.1,6.6 -9.3,1.7 6.8,1.7 8.7,-1.6 -7.4,-1.6 -4.5,-6.6 25.6,-6.6 25.6,-9.9 " />
</g>
</g>
</g>
<g transform="matrix(0 0 0 0 0 0)"  >
<g style=""   >
</g>
</g>
<g transform="matrix(1.22 0 0 1 115 70)"  >
<g style="" vector-effect="non-scaling-stroke"   >
		<g transform="matrix(1 0 0 1 0 0)" clip-path="url(#CLIPPATH_31)"  >
<clipPath id="CLIPPATH_31" >
	<rect transform="matrix(1 0 0 1 0 0)" id="SVGID_4_" clip-path="url(#undefined)" x="-101.9" y="-101.9" rx="0" ry="0" width="203.8" height="203.8" />
</clipPath>
<rect style="stroke: none; stroke-width: 1; stroke-dasharray: none; stroke-linecap: butt; stroke-dashoffset: 0; stroke-linejoin: miter; stroke-miterlimit: 4; fill: rgb(244,244,244); fill-rule: nonzero; opacity: 1;" vector-effect="non-scaling-stroke"  x="-101.9" y="-101.9" rx="0" ry="0" width="203.8" height="203.8" />
</g>
		<g transform="matrix(1 0 0 1 0 0)" clip-path="url(#CLIPPATH_32)"  >
<clipPath id="CLIPPATH_32" >
	<rect transform="matrix(1 0 0 1 0 0)" id="SVGID_4_" clip-path="url(#undefined)" x="-101.9" y="-101.9" rx="0" ry="0" width="203.8" height="203.8" />
</clipPath>
<rect style="stroke: none; stroke-width: 1; stroke-dasharray: none; stroke-linecap: butt; stroke-dashoffset: 0; stroke-linejoin: miter; stroke-miterlimit: 4; fill: rgb(0,0,0); fill-rule: nonzero; opacity: 1;" vector-effect="non-scaling-stroke"  x="-101.9" y="-101.9" rx="0" ry="0" width="203.8" height="203.8" />
</g>
		<g transform="matrix(1 0 0 1 19.47 -0.1)" clip-path="url(#CLIPPATH_33)"  >
<clipPath id="CLIPPATH_33" >
	<rect transform="matrix(1 0 0 1 -19.47 0.1)" id="SVGID_10_" clip-path="url(#undefined)" x="-101.9" y="-101.9" rx="0" ry="0" width="203.8" height="203.8" />
</clipPath>
<path style="stroke: none; stroke-width: 1; stroke-dasharray: none; stroke-linecap: butt; stroke-dashoffset: 0; stroke-linejoin: miter; stroke-miterlimit: 4; fill: rgb(244,244,244); fill-rule: nonzero; opacity: 1;" vector-effect="non-scaling-stroke"  transform=" translate(-121.37, -101.8)" d="M 115.9 92 C 114.2 92 112.60000000000001 93 111.9 94.3 C 111.10000000000001 95.6 109 99.39999999999999 108.2 100.7 C 107.4 102 108.4 103.5 109.8 103.5 L 122.6 103.5 C 122.6 103.5 120.69999999999999 106.8 120.3 107.5 C 119.89999999999999 108.1 119.3 108.5 118.7 108.5 L 116.7 108.5 C 116 108.5 115.8 107.8 116 107.3 C 116.2 106.89999999999999 116.8 106 116.8 106 L 105.2 106 C 105.2 106 104.3 107.6 103.5 108.9 C 102.7 110.30000000000001 103.8 111.7 105.1 111.7 L 126.8 111.7 C 128.5 111.7 130.1 110.8 130.9 109.3 C 131.70000000000002 107.89999999999999 133.70000000000002 104.5 134.5 103 C 135.3 101.6 134.3 100.1 132.9 100.1 L 120.10000000000001 100.1 C 120.10000000000001 100.1 122.2 96.5 122.50000000000001 96 C 122.80000000000001 95.5 123.40000000000002 95.1 124.10000000000001 95.1 L 126.10000000000001 95.1 C 126.80000000000001 95.1 127.00000000000001 95.8 126.80000000000001 96.19999999999999 C 126.60000000000001 96.6 126.00000000000001 97.6 126.00000000000001 97.6 L 137.60000000000002 97.6 C 137.60000000000002 97.6 138.70000000000002 95.69999999999999 139.3 94.6 C 139.9 93.5 139.10000000000002 91.89999999999999 137.70000000000002 91.89999999999999 L 115.9 91.89999999999999" stroke-linecap="round" />
</g>
		<g transform="matrix(1 0 0 1 -11.52 0)" clip-path="url(#CLIPPATH_34)"  >
<clipPath id="CLIPPATH_34" >
	<rect transform="matrix(1 0 0 1 11.52 0)" id="SVGID_10_" clip-path="url(#undefined)" x="-101.9" y="-101.9" rx="0" ry="0" width="203.8" height="203.8" />
</clipPath>
<path style="stroke: none; stroke-width: 1; stroke-dasharray: none; stroke-linecap: butt; stroke-dashoffset: 0; stroke-linejoin: miter; stroke-miterlimit: 4; fill: rgb(244,244,244); fill-rule: nonzero; opacity: 1;" vector-effect="non-scaling-stroke"  transform=" translate(-90.38, -101.9)" d="M 106.7 92 L 85 92 C 83.4 92 81.8 92.8 80.9 94.3 C 80.10000000000001 95.8 73.2 107.7 72.4 109 C 71.7 110.3 72.7 111.8 74 111.8 L 95.7 111.8 C 97.5 111.8 99 110.8 99.8 109.5 C 100.6 108.2 107.5 96.1 108.3 94.8 C 109.1 93.6 108.2 92 106.7 92 M 95.8 96.5 C 95.5 97 89.7 107 89.39999999999999 107.6 C 89.1 108.19999999999999 88.49999999999999 108.5 87.8 108.5 L 85.8 108.5 C 85.2 108.5 84.89999999999999 107.8 85.1 107.4 C 85.3 107 91.19999999999999 96.9 91.5 96.2 C 91.9 95.60000000000001 92.5 95.3 93.1 95.3 L 95.1 95.3 C 95.7 95.3 96.1 95.9 95.8 96.5" stroke-linecap="round" />
</g>
		<g transform="matrix(1 0 0 1 -53.13 0)" clip-path="url(#CLIPPATH_35)"  >
<clipPath id="CLIPPATH_35" >
	<rect transform="matrix(1 0 0 1 53.13 0)" id="SVGID_10_" clip-path="url(#undefined)" x="-101.9" y="-101.9" rx="0" ry="0" width="203.8" height="203.8" />
</clipPath>
<path style="stroke: none; stroke-width: 1; stroke-dasharray: none; stroke-linecap: butt; stroke-dashoffset: 0; stroke-linejoin: miter; stroke-miterlimit: 4; fill: rgb(244,244,244); fill-rule: nonzero; opacity: 1;" vector-effect="non-scaling-stroke"  transform=" translate(-48.77, -101.9)" d="M 75.8 92 L 51.3 92 L 41.8 108.5 L 19.799999999999997 108.5 L 19.799999999999997 111.8 C 19.799999999999997 111.8 63.3 111.8 65 111.8 C 66.6 111.8 68.2 110.89999999999999 69.1 109.5 C 70 108 71.3 105.6 71.89999999999999 104.6 C 72.49999999999999 103.6 71.89999999999999 102.3 70.8 101.89999999999999 C 72.39999999999999 101.89999999999999 74 100.99999999999999 74.8 99.6 C 75.6 98.19999999999999 76.8 96.1 77.6 94.8 C 78.1 93.6 77.3 92 75.8 92 M 62.8 104.7 C 62.5 105.2 61.5 106.9 61.099999999999994 107.60000000000001 C 60.699999999999996 108.30000000000001 60.099999999999994 108.50000000000001 59.49999999999999 108.50000000000001 C 58.89999999999999 108.50000000000001 53.29999999999999 108.50000000000001 53.29999999999999 108.50000000000001 L 56.19999999999999 103.50000000000001 L 62.09999999999999 103.50000000000001 C 62.7 103.6 63.1 104.2 62.8 104.7 M 67.6 96.5 C 67.3 97 66.3 98.7 65.89999999999999 99.4 C 65.49999999999999 100.10000000000001 64.89999999999999 100.30000000000001 64.3 100.30000000000001 L 58.099999999999994 100.30000000000001 L 60.99999999999999 95.30000000000001 L 66.89999999999999 95.30000000000001 C 67.5 95.3 67.8 96 67.6 96.5" stroke-linecap="round" />
</g>
		<g transform="matrix(1 0 0 1 56.5 0)" clip-path="url(#CLIPPATH_36)"  >
<clipPath id="CLIPPATH_36" >
	<rect transform="matrix(1 0 0 1 -56.5 0)" id="SVGID_10_" clip-path="url(#undefined)" x="-101.9" y="-101.9" rx="0" ry="0" width="203.8" height="203.8" />
</clipPath>
<polygon style="stroke: none; stroke-width: 1; stroke-dasharray: none; stroke-linecap: butt; stroke-dashoffset: 0; stroke-linejoin: miter; stroke-miterlimit: 4; fill: rgb(244,244,244); fill-rule: nonzero; opacity: 1;" vector-effect="non-scaling-stroke"  points="-14.2,-9.9 -25.6,9.9 2,9.9 3.9,6.6 -12.1,6.6 -9.3,1.7 6.8,1.7 8.7,-1.6 -7.4,-1.6 -4.5,-6.6 25.6,-6.6 25.6,-9.9 " />
</g>
</g>
</g>
</svg>