<svg id="Layer_1" data-name="Layer 1" xmlns="http://www.w3.org/2000/svg" viewBox="0 0 102 60"><defs><style>.cls-1{fill:#0071f7;}</style></defs><title>box</title><path class="cls-1" d="M96.96648,49.45314a3.5963,3.5963,0,0,1-.46727,4.90627,3.89764,3.89764,0,0,1-5.1399-.46727L83.1822,43.37871l-7.94348,10.2798c-1.16816,1.63543-3.50448,1.63543-5.1399.46727a3.414,3.414,0,0,1-.7009-4.90627l9.34527-12.14886L69.39792,24.9218a3.926,3.926,0,0,1,.7009-5.1399,3.926,3.926,0,0,1,5.1399.7009L83.1822,30.99623l8.17711-10.04617c1.16816-1.63543,3.27085-1.86906,5.1399-.7009,1.63543,1.16816,1.63543,3.50448.46727,5.1399L87.85483,37.30428Zm-42.521-1.40179a10.77131,10.77131,0,0,1-10.9807-10.74707,10.98323,10.98323,0,0,1,21.96139,0A11.07154,11.07154,0,0,1,54.44549,48.05135Zm-32.24119,0A10.77131,10.77131,0,0,1,11.2236,37.30428a10.98323,10.98323,0,0,1,21.96139,0A10.77131,10.77131,0,0,1,22.2043,48.05135ZM54.44549,19.54827a18.089,18.089,0,0,0-15.887,9.34527,18.18708,18.18708,0,0,0-16.12059-9.34528,19.20379,19.20379,0,0,0-10.9807,3.50448V8.10031A3.59315,3.59315,0,0,0,7.95276,4.59583,3.64592,3.64592,0,0,0,4.21465,8.10031V37.53792A17.90138,17.90138,0,0,0,22.2043,55.0603a18.38986,18.38986,0,0,0,16.12059-9.5789,18.30052,18.30052,0,0,0,15.887,9.5789A18.04842,18.04842,0,0,0,72.43514,37.07065C72.66877,27.49175,64.49166,19.54827,54.44549,19.54827Z"/></svg>