<svg id="Layer_1" data-name="Layer 1" xmlns="http://www.w3.org/2000/svg" viewBox="0 0 215 127"><defs><style>.cls-1{fill:#fbfbfb;}.cls-2{fill:#8aba9c;}.cls-3{fill:#dec486;}.cls-4{fill:#142237;}.cls-5{fill:#327787;}.cls-6{fill:#e73860;}</style></defs><title>kubernetes.io-logos</title><rect class="cls-1" x="-3.55202" y="-3.16104" width="223.25536" height="134.51136"/><path class="cls-2" d="M108.06786,60.5554c-.16778-.0586-.25731-.20959-.37357-.32579q-8.87844-8.8734-17.75611-17.74756c-.13127-.13112-.21767-.34813-.46294-.32573a1.02777,1.02777,0,0,0-.37221-.50717q-9.09323-9.09535-18.1887-18.18847c-.11745-.1174-.25176-.21794-.3782-.32635-.00563-.20117.16747-.28131.28033-.3943q5.97388-5.98084,11.95-11.95941a3.66663,3.66663,0,0,1,.80646-.57783h.73416a4.84806,4.84806,0,0,1,1.22172,1.00972Q96.58379,22.27027,107.64076,33.326c.14028.14026.28759.2735.43162.41q.00164,7.49573.00286,14.99143Q108.07449,54.64143,108.06786,60.5554Z"/><path class="cls-3" d="M108.06786,60.5554q.00392-5.914.00738-11.828.001-7.49571-.00287-14.99155c.15554-.1467.315-.28935.46608-.44041Q119.5642,22.271,130.58731,11.24384a5.333,5.333,0,0,1,1.25688-1.04105h.73416a3.70314,3.70314,0,0,1,1.0008.77179q5.85528,5.86478,11.71616,11.72393c.12424.1244.30654.214.31951.42555-.11481.09917-.23651.19135-.34346.29827q-9.14206,9.13941-18.28181,18.28112a.98313.98313,0,0,0-.32116.43528c-.225.02281-.32462.21641-.46021.35189q-8.86542,8.85842-17.72747,17.7202C108.35485,60.33658,108.26162,60.50842,108.06786,60.5554Z"/><path class="cls-4" d="M53.01343,98.30812c1.54444-.00114,3.089.00613,4.63323-.01063.30247-.00328.393.07884.38283.38078-.02186.65213-.00672,1.30551-.00672,1.97214.185-.03048.20781-.16958.27046-.259a5.657,5.657,0,0,1,5.50284-2.41076,5.48426,5.48426,0,0,1,4.29985,2.6157c.23057.35312.3432.28052.57888.03548a8.32091,8.32091,0,0,1,2.918-2.1742,7.25531,7.25531,0,0,1,6.5608.5211,5.44919,5.44919,0,0,1,2.48346,4.04461,11.48871,11.48871,0,0,1,.12953,1.96535c.00237,3.88432-.00468,7.76867.01092,11.65294.00157.38876-.10527.47933-.48265.47352q-2.22441-.03432-4.44955.00072c-.39634.00674-.46822-.121-.46656-.48777.01445-3.19609.01068-6.39228.00648-9.58843a8.28223,8.28223,0,0,0-.25485-2.36179,1.97293,1.97293,0,0,0-1.65095-1.51684c-2.355-.40622-3.882.89622-3.934,3.41487-.03691,1.7885-.0111,3.57829-.01211,5.36752-.0009,1.59044-.01,3.181.00786,4.77121.00371.32973-.09526.40206-.41022.39864-1.529-.0166-3.05849-.02243-4.58723.00295-.38513.00638-.43886-.129-.43771-.46531.01112-3.242.00742-6.484.00578-9.72607a8.02084,8.02084,0,0,0-.248-2.22367,2.01622,2.01622,0,0,0-1.76758-1.56059,3.03187,3.03187,0,0,0-3.77358,2.86461,12.60866,12.60866,0,0,0-.06629,1.41894c.00093,3.07381-.0069,6.14767.00973,9.2214.0021.38823-.10885.47383-.48316.46982-1.58963-.01705-3.17964.00143-4.76952.00693Z"/><path class="cls-4" d="M92.4747,117.58116a17.9988,17.9988,0,0,1-1.7946-.44971,9.56965,9.56965,0,0,1-6.64133-7.82082,9.728,9.728,0,0,1,7.79623-11.295,9.89433,9.89433,0,0,1,4.17243,19.34308,5.621,5.621,0,0,0-1.14671.22242Zm-3.12677-9.87872a4.44837,4.44837,0,1,0,4.44525-4.63232A4.5215,4.5215,0,0,0,89.34793,107.70244Z"/><path class="cls-4" d="M151.85013,117.58116a3.25114,3.25114,0,0,0-.998-.236,9.91106,9.91106,0,1,1,12.1994-10.966c.00918.072-.00789.15578.08636.18876v2.29441c-.13536.05564-.08151.18107-.09824.27734a9.69609,9.69609,0,0,1-7.228,8.11239c-.48259.14858-.98856.2212-1.48369.329Zm5.78565-9.83012a4.44993,4.44993,0,1,0-8.8896-.03681,4.59383,4.59383,0,0,0,4.43541,4.6258A4.5459,4.5459,0,0,0,157.63578,107.751Z"/><path class="cls-5" d="M70.53613,23.13433c.12644.10841.26075.209.3782.32635q9.09592,9.09265,18.1887,18.18847a1.02777,1.02777,0,0,1,.37221.50717q.001,17.10907.00116,34.21824a1.40032,1.40032,0,0,1-.86925,1.51226,1.44916,1.44916,0,0,1-1.65029-.45343q-7.64655-7.66194-15.3063-15.31069a3.60861,3.60861,0,0,1-1.12922-2.66054q.00651-18.04947.00315-36.09895C70.5245,23.28692,70.53209,23.21062,70.53613,23.13433Z"/><path class="cls-6" d="M126.66839,42.13873a.98313.98313,0,0,1,.32116-.43528q9.14043-9.141,18.28181-18.28112c.107-.10692.22865-.1991.34346-.29827.00414.18323.01193.36655.01194.54988q.00087,17.71027.0135,35.42053a4.3142,4.3142,0,0,1-1.3595,3.26374q-7.55343,7.4995-15.05884,15.04735a1.63227,1.63227,0,0,1-1.19538.58794,1.366,1.366,0,0,1-1.34231-1.306c-.01293-.19808-.00883-.39741-.00883-.59617q-.00054-16.655-.0006-33.31C126.6748,42.56711,126.67062,42.35292,126.66839,42.13873Z"/><path class="cls-4" d="M112.08236,100.71022a5.63269,5.63269,0,0,1,3.88085-2.63488,7.51127,7.51127,0,0,1,4.10488.33674,5.69066,5.69066,0,0,1,3.60865,4.65326,10.11216,10.11216,0,0,1,.13467,1.8266c.0031,3.914-.00389,7.828.01073,11.7419.00141.379-.09175.48686-.47592.48124q-2.31562-.03375-4.632.00052c-.377.00574-.44786-.11471-.44647-.46274q.01906-4.77008.00567-9.54028a12.84878,12.84878,0,0,0-.08256-1.69246c-.23674-1.77515-1.15064-2.47126-3.0238-2.30152a2.93909,2.93909,0,0,0-2.8583,3.10545c-.06438,1.61824-.0342,3.2404-.03826,4.86084-.00468,1.86524-.00994,3.73059.007,5.59568.0031.342-.08435.43822-.43153.43379-1.54382-.01977-3.08815-.01749-4.63206-.00106-.30763.00327-.38426-.08982-.38391-.38516q.01094-9.03578-.00052-18.07155c-.00037-.28045.07119-.36137.35644-.35866q2.27006.02163,4.54038-.00071c.31485-.00346.37482.09723.36377.38965C112.06541,99.33976,112.08236,99.99421,112.08236,100.71022Z"/><path class="cls-4" d="M134.43789,112.24128c2.23664,0,4.36045.01451,6.48374-.0122.42511-.00536.49227.12544.48551.50778-.02354,1.32963-.01781,2.66-.00236,3.9899.00343.29586-.0695.38664-.37725.38594q-6.67271-.01516-13.34543-.00073c-.29322.00059-.39853-.06715-.39365-.37654q.02565-1.62775-.00017-3.25611a.99289.99289,0,0,1,.27732-.65113q3.58846-4.64081,7.17506-9.283c.07461-.09655.14595-.19563.2269-.30439-.129-.13553-.28927-.06788-.42725-.06817-2.26245-.00488-4.525-.00968-6.78734.0033-.33489.00192-.4756-.05042-.46813-.43679.02631-1.36011.018-2.72113.00385-4.0816-.00291-.2807.0719-.35974.35682-.35915q6.62685.01363,13.25371-.00078c.30743-.00073.38252.08833.37876.38412-.01555,1.22283-.01343,2.446-.00121,3.669a1.128,1.128,0,0,1-.23766.7131q-3.12627,4.32639-6.23774,8.66346C134.69735,111.87185,134.59558,112.01811,134.43789,112.24128Z"/></svg>