<svg version="1.1" xmlns="http://www.w3.org/2000/svg" viewBox="0 0 1479.4958190917969 444.0649683821093" width="2958.9916381835938" height="888.1299367642187">
  <!-- svg-source:excalidraw -->
  
  <defs>
    <style class="style-fonts">
      @font-face {
        font-family: "Virgil";
        src: url("https://excalidraw.com/Virgil.woff2");
      }
      @font-face {
        font-family: "Cascadia";
        src: url("https://excalidraw.com/Cascadia.woff2");
      }
      @font-face {
        font-family: "Assistant";
        src: url("https://excalidraw.com/Assistant-Regular.woff2");
      }
    </style>
    
  </defs>
  <rect x="0" y="0" width="1479.4958190917969" height="444.0649683821093" fill="#f8f9fa"></rect><g stroke-linecap="round" transform="translate(500.5153503417969 254.56106213210933) rotate(0 63.5859375 24.84375)"><path d="M4.94 1.64 C4.94 1.64, 4.94 1.64, 4.94 1.64 M4.94 1.64 C4.94 1.64, 4.94 1.64, 4.94 1.64 M0.74 12.57 C5.58 11.07, 6.79 8, 11.24 0.5 M0.74 12.57 C3.39 8.14, 8.48 6.86, 11.24 0.5 M0.48 18.97 C7.71 11.03, 13.84 5.49, 16.88 0.1 M0.48 18.97 C4.5 11.52, 8.19 6.01, 16.88 0.1 M0.22 25.37 C5.19 19.51, 11.92 7.66, 21.87 0.46 M0.22 25.37 C5.64 17.1, 15.92 9.12, 21.87 0.46 M0.61 31.01 C11.69 19.51, 19.41 8.36, 27.51 0.07 M0.61 31.01 C10.02 19.27, 18.22 9.33, 27.51 0.07 M0.35 37.41 C11.04 22.62, 21.9 13.59, 32.5 0.43 M0.35 37.41 C12.39 23.07, 25.43 8.29, 32.5 0.43 M1.4 42.3 C7.58 33.75, 22.41 25.72, 37.49 0.79 M1.4 42.3 C13.21 29.38, 25.73 14.74, 37.49 0.79 M3.11 46.43 C10.48 34.96, 24.36 22.79, 43.13 0.39 M3.11 46.43 C15.68 32.93, 25.89 21.44, 43.13 0.39 M6.79 48.3 C24.77 29.3, 38.02 11.44, 48.12 0.75 M6.79 48.3 C15.11 38.72, 24.36 27.42, 48.12 0.75 M11.12 49.41 C28.13 27.64, 42.83 12.73, 53.76 0.36 M11.12 49.41 C26.5 34.44, 39.79 15.77, 53.76 0.36 M16.76 49.02 C32.53 38.96, 43.99 23.17, 58.75 0.72 M16.76 49.02 C23.54 38.6, 33.14 31.32, 58.75 0.72 M21.75 49.38 C34.35 36.01, 50.96 23.98, 64.39 0.32 M21.75 49.38 C37.86 31.98, 56.31 9.18, 64.39 0.32 M27.39 48.98 C41 31.43, 55.77 12.49, 69.38 0.68 M27.39 48.98 C39.18 34.75, 47.91 25.84, 69.38 0.68 M32.38 49.34 C41.24 37.32, 47.66 28.24, 74.36 1.04 M32.38 49.34 C39.75 37.74, 49.32 28.15, 74.36 1.04 M37.36 49.7 C46.77 35.66, 58.48 27.97, 80.01 0.65 M37.36 49.7 C53.4 30.99, 69.61 13.59, 80.01 0.65 M43.01 49.31 C55.18 32.58, 68.65 18.4, 84.99 1.01 M43.01 49.31 C51.56 38.06, 60.75 30.5, 84.99 1.01 M47.99 49.67 C64.25 33.24, 84.61 13.15, 90.64 0.61 M47.99 49.67 C58.28 37.49, 65.31 28.76, 90.64 0.61 M53.64 49.28 C70.05 35.86, 78.47 14.15, 95.62 0.97 M53.64 49.28 C69.2 31.4, 84.55 13.65, 95.62 0.97 M58.62 49.64 C77.84 35.39, 87.97 11.09, 101.27 0.58 M58.62 49.64 C67.23 41.09, 76.98 28.02, 101.27 0.58 M64.27 49.24 C80.7 32.71, 94.46 8.19, 106.25 0.94 M64.27 49.24 C73.87 36.51, 84.69 24.65, 106.25 0.94 M69.25 49.6 C79.96 42.85, 84.07 29.74, 111.24 1.3 M69.25 49.6 C80.81 35.6, 91.53 23.82, 111.24 1.3 M74.24 49.96 C87.97 32.56, 106.46 12.29, 116.88 0.91 M74.24 49.96 C87.92 33.23, 105.23 15.93, 116.88 0.91 M79.88 49.57 C91.5 36.91, 102.79 21.26, 121.22 2.02 M79.88 49.57 C90.6 35.6, 102.17 22.65, 121.22 2.02 M84.87 49.93 C99.43 34.25, 112.67 16.87, 124.89 3.89 M84.87 49.93 C94.52 40.54, 101.41 29.62, 124.89 3.89 M90.51 49.53 C106.59 31.72, 116.73 22.16, 126.6 8.02 M90.51 49.53 C100.77 37.33, 112.74 21.57, 126.6 8.02 M95.5 49.89 C106.73 36.54, 111.27 28.68, 127.65 12.91 M95.5 49.89 C104.61 40.58, 115.28 31.14, 127.65 12.91 M100.49 50.25 C110.12 35.34, 124.19 25.26, 127.39 19.31 M100.49 50.25 C108.82 40.38, 120.41 29.42, 127.39 19.31 M106.13 49.86 C109.05 44.9, 119.98 40.85, 127.13 25.71 M106.13 49.86 C114.33 40.9, 121.85 31.04, 127.13 25.71 M111.12 50.22 C118.67 44.78, 122.83 37.14, 126.86 32.11 M111.12 50.22 C113.67 44.76, 116.72 42.89, 126.86 32.11 M116.76 49.82 C123.02 45.7, 121.77 40.92, 127.26 37.75 M116.76 49.82 C118.77 46.61, 123.16 44.01, 127.26 37.75" stroke="#a5d8ff" stroke-width="0.5" fill="none"></path><path d="M12.42 0 C48.72 3.32, 83.1 -1.73, 114.75 0 M12.42 0 C36.89 -2.21, 55.96 -2.19, 114.75 0 M114.75 0 C123.24 -1.02, 128.55 2.89, 127.17 12.42 M114.75 0 C124.65 0.29, 127.99 0.74, 127.17 12.42 M127.17 12.42 C128.23 19.02, 127.68 32.95, 127.17 37.27 M127.17 12.42 C128.37 17.74, 129.12 21.46, 127.17 37.27 M127.17 37.27 C129.18 48.17, 123.05 47.37, 114.75 49.69 M127.17 37.27 C124.53 47.73, 121.29 52.4, 114.75 49.69 M114.75 49.69 C84.92 52.05, 54.45 49.48, 12.42 49.69 M114.75 49.69 C74.45 51.37, 33.36 50.02, 12.42 49.69 M12.42 49.69 C0.66 50.27, 0.98 46.36, 0 37.27 M12.42 49.69 C-0.35 49.27, -1.23 46.77, 0 37.27 M0 37.27 C-0.19 29.15, 3.38 24.96, 0 12.42 M0 37.27 C1.24 28.74, -0.34 21.5, 0 12.42 M0 12.42 C-2.18 5.65, 6.71 -3.36, 12.42 0 M0 12.42 C-4.6 2.91, 3.49 0.83, 12.42 0" stroke="#1971c2" stroke-width="1" fill="none"></path></g><g stroke-linecap="round" transform="translate(496.9098815917969 168.16653088210933) rotate(0 63.5859375 24.84375)"><path d="M4.94 1.64 C4.94 1.64, 4.94 1.64, 4.94 1.64 M4.94 1.64 C4.94 1.64, 4.94 1.64, 4.94 1.64 M0.74 12.57 C1.9 9.24, 5.84 1.74, 11.24 0.5 M0.74 12.57 C4.88 10.53, 7.33 4.79, 11.24 0.5 M0.48 18.97 C4.81 13.67, 11.93 4.38, 16.88 0.1 M0.48 18.97 C6.7 13.28, 11.74 8.14, 16.88 0.1 M0.22 25.37 C7.4 22.33, 8.21 17.1, 21.87 0.46 M0.22 25.37 C7.77 18.26, 14.03 9.96, 21.87 0.46 M0.61 31.01 C8.43 23.79, 19.23 6.78, 27.51 0.07 M0.61 31.01 C7.92 24.29, 17.57 13.11, 27.51 0.07 M0.35 37.41 C10.4 25.41, 20.36 10.54, 32.5 0.43 M0.35 37.41 C9.85 27.55, 21.69 15.08, 32.5 0.43 M1.4 42.3 C6.09 33.44, 22.52 22.27, 37.49 0.79 M1.4 42.3 C17.25 25.18, 29.05 9.95, 37.49 0.79 M3.11 46.43 C16.27 37.99, 24.44 22.6, 43.13 0.39 M3.11 46.43 C11.89 36.75, 21.69 24.86, 43.13 0.39 M6.79 48.3 C17.43 41.8, 28.54 27.09, 48.12 0.75 M6.79 48.3 C17.56 37.84, 27.21 25.75, 48.12 0.75 M11.12 49.41 C24.22 34.53, 36.92 14, 53.76 0.36 M11.12 49.41 C27.65 29.6, 43.47 11.4, 53.76 0.36 M16.76 49.02 C33.92 31.75, 41.95 19.33, 58.75 0.72 M16.76 49.02 C27.87 38.14, 37.82 25.04, 58.75 0.72 M21.75 49.38 C31.47 39.51, 36.98 26.24, 64.39 0.32 M21.75 49.38 C37.56 29.35, 53.8 11.09, 64.39 0.32 M27.39 48.98 C39.68 36.38, 56.56 21.17, 69.38 0.68 M27.39 48.98 C38.86 36.2, 51.27 20.22, 69.38 0.68 M32.38 49.34 C45.46 32.83, 56.77 16.95, 74.36 1.04 M32.38 49.34 C45.41 35.54, 57.41 19.59, 74.36 1.04 M37.36 49.7 C49.97 38.24, 63.16 19.66, 80.01 0.65 M37.36 49.7 C53.08 32.57, 67.03 16.42, 80.01 0.65 M43.01 49.31 C59.42 30.83, 65.93 16.64, 84.99 1.01 M43.01 49.31 C51.78 37.68, 62.23 24.03, 84.99 1.01 M47.99 49.67 C63.75 30.77, 81.38 7.49, 90.64 0.61 M47.99 49.67 C61.76 34.51, 74.59 16.79, 90.64 0.61 M53.64 49.28 C67.72 31.11, 85.24 17.06, 95.62 0.97 M53.64 49.28 C65.94 38.06, 74.6 22.65, 95.62 0.97 M58.62 49.64 C71.21 35.17, 86.81 19.82, 101.27 0.58 M58.62 49.64 C69.59 38.41, 80.16 25.62, 101.27 0.58 M64.27 49.24 C79.63 27.86, 96.02 13.26, 106.25 0.94 M64.27 49.24 C73.28 37.43, 83.16 27.15, 106.25 0.94 M69.25 49.6 C80.32 39.63, 95.76 23.87, 111.24 1.3 M69.25 49.6 C78.72 39.93, 89.74 27.48, 111.24 1.3 M74.24 49.96 C80.48 40.43, 96.9 25.76, 116.88 0.91 M74.24 49.96 C84.45 35.94, 100.82 20.23, 116.88 0.91 M79.88 49.57 C94.84 31.14, 109.73 13.22, 121.22 2.02 M79.88 49.57 C92.06 37.07, 104.44 19.46, 121.22 2.02 M84.87 49.93 C102.41 35.79, 111.11 16.5, 124.89 3.89 M84.87 49.93 C100.31 35.24, 111.27 18.98, 124.89 3.89 M90.51 49.53 C100.51 39.44, 107.91 32.13, 126.6 8.02 M90.51 49.53 C98.1 38.78, 103.82 30.68, 126.6 8.02 M95.5 49.89 C104.19 39.64, 105.71 35.31, 127.65 12.91 M95.5 49.89 C104.91 37.62, 112.87 29.42, 127.65 12.91 M100.49 50.25 C105.31 39.86, 114.35 33.45, 127.39 19.31 M100.49 50.25 C109.88 38.37, 121.89 24.59, 127.39 19.31 M106.13 49.86 C114.68 42.95, 117.53 35.11, 127.13 25.71 M106.13 49.86 C111.62 44.41, 116.98 39.44, 127.13 25.71 M111.12 50.22 C118.67 48.06, 122.22 40.14, 126.86 32.11 M111.12 50.22 C114.38 46.11, 118.27 43.06, 126.86 32.11 M116.76 49.82 C122.12 46.15, 121.63 38.45, 127.26 37.75 M116.76 49.82 C121.79 44.63, 124.77 39.82, 127.26 37.75" stroke="#a5d8ff" stroke-width="0.5" fill="none"></path><path d="M12.42 0 C44.49 -0.97, 81.78 -0.04, 114.75 0 M12.42 0 C51.25 2.46, 88.39 1.46, 114.75 0 M114.75 0 C125.28 -3.75, 129.06 3.46, 127.17 12.42 M114.75 0 C127.14 4.38, 126.63 0.14, 127.17 12.42 M127.17 12.42 C131.17 21.3, 131.19 23.31, 127.17 37.27 M127.17 12.42 C126.07 16.43, 128.16 24.81, 127.17 37.27 M127.17 37.27 C125.92 46.17, 123.71 48.27, 114.75 49.69 M127.17 37.27 C124.61 45.19, 120.14 45.82, 114.75 49.69 M114.75 49.69 C84.26 50.34, 54.8 46.45, 12.42 49.69 M114.75 49.69 C74.5 49.03, 34.28 49.42, 12.42 49.69 M12.42 49.69 C0.28 48.63, 2.42 48.4, 0 37.27 M12.42 49.69 C3.03 47.33, -2.32 42.69, 0 37.27 M0 37.27 C-0.21 27.73, 3.33 20.31, 0 12.42 M0 37.27 C1.51 29.95, 1 22.35, 0 12.42 M0 12.42 C-2.1 4.76, 6.4 1.98, 12.42 0 M0 12.42 C4.59 7.7, 5.08 -3.88, 12.42 0" stroke="#1971c2" stroke-width="1" fill="none"></path></g><g transform="translate(510.9059753417969 182.80324963210933) rotate(0 48.9208984375 11.5)"><text x="0" y="0" font-family="Helvetica, Segoe UI Emoji" font-size="20px" fill="#1971c2" text-anchor="start" style="white-space: pre;" direction="ltr" dominant-baseline="text-before-edge">Containerd</text></g><g stroke-linecap="round"><g transform="translate(729.5934753417969 39.10403088210933) rotate(0 1.703125 197.48046875)"><path d="M0 0 C0.57 65.83, 2.84 329.13, 3.41 394.96" stroke="#1e1e1e" stroke-width="1.5" fill="none" stroke-dasharray="1.5 7"></path></g></g><mask></mask><g transform="translate(413.8747253417969 18.803072720786986) rotate(0 129.501953125 11.5)"><text x="0" y="0" font-family="Helvetica, Segoe UI Emoji" font-size="20px" fill="#1971c2" text-anchor="start" style="white-space: pre;" direction="ltr" dominant-baseline="text-before-edge">High-level container runtimes</text></g><g transform="translate(794.80078125 10) rotate(0 127.2802734375 11.5)"><text x="0" y="0" font-family="Helvetica, Segoe UI Emoji" font-size="20px" fill="#2f9e44" text-anchor="start" style="white-space: pre;" direction="ltr" dominant-baseline="text-before-edge">Low-level container runtimes</text></g><g stroke-linecap="round"><g transform="translate(350.3981628417969 31.842312132109328) rotate(0 1.703125 197.48046875)"><path d="M0 0 C0.57 65.83, 2.84 329.13, 3.41 394.96" stroke="#1e1e1e" stroke-width="1.5" fill="none" stroke-dasharray="1.5 7"></path></g></g><mask></mask><g transform="translate(533.0173034667969 270.6841090071093) rotate(0 28.330078125 23)"><text x="0" y="0" font-family="Helvetica, Segoe UI Emoji" font-size="20px" fill="#1971c2" text-anchor="start" style="white-space: pre;" direction="ltr" dominant-baseline="text-before-edge">CRI-O</text><text x="0" y="23" font-family="Helvetica, Segoe UI Emoji" font-size="20px" fill="#1971c2" text-anchor="start" style="white-space: pre;" direction="ltr" dominant-baseline="text-before-edge"></text></g><g stroke-linecap="round" transform="translate(875.4567565917969 57.33059338210933) rotate(0 63.5859375 24.84375)"><path d="M4.94 1.64 C4.94 1.64, 4.94 1.64, 4.94 1.64 M4.94 1.64 C4.94 1.64, 4.94 1.64, 4.94 1.64 M2.06 11.06 C2.43 10.3, 6.59 6.63, 11.24 0.5 M2.06 11.06 C5.06 7.25, 7.79 4.54, 11.24 0.5 M1.79 17.46 C8.96 15.65, 5.82 9.4, 14.91 2.37 M1.79 17.46 C7.08 12.28, 12.95 5.14, 14.91 2.37 M2.19 23.1 C9.24 18.15, 8.49 14.23, 20.56 1.97 M2.19 23.1 C9.9 15.87, 14.39 9.18, 20.56 1.97 M1.93 29.5 C8.69 22.01, 14.51 17.89, 25.54 2.33 M1.93 29.5 C7.87 23.75, 12.5 17.11, 25.54 2.33 M2.32 35.14 C11.34 25.34, 20.77 14.38, 30.53 2.69 M2.32 35.14 C8.58 26.79, 14.75 17.84, 30.53 2.69 M2.06 41.54 C11.43 31.55, 20.98 23.13, 36.18 2.3 M2.06 41.54 C9.42 29.47, 20.14 20.88, 36.18 2.3 M3.11 46.43 C13.95 32.81, 31.41 16.67, 41.16 2.66 M3.11 46.43 C10.63 38.36, 18.08 29.25, 41.16 2.66 M6.79 48.3 C19.63 40.16, 22.76 24.92, 46.81 2.26 M6.79 48.3 C15.72 37.91, 22.5 28.34, 46.81 2.26 M9.8 50.92 C22.22 35.25, 36.42 24.17, 51.79 2.62 M9.8 50.92 C24.68 36.75, 37.55 21.26, 51.79 2.62 M14.79 51.28 C23.6 38.07, 40.89 20.39, 57.44 2.23 M14.79 51.28 C31.36 32.14, 47.27 14.34, 57.44 2.23 M20.43 50.89 C27.53 38.21, 42.87 24.91, 62.42 2.59 M20.43 50.89 C31.81 40.53, 40.9 28.53, 62.42 2.59 M25.42 51.25 C35.24 34.81, 52.41 21.23, 67.41 2.95 M25.42 51.25 C34.82 41.92, 40.47 33.09, 67.41 2.95 M30.41 51.61 C40.35 34.59, 55.52 22.43, 73.05 2.55 M30.41 51.61 C44.63 35.32, 60.09 19.6, 73.05 2.55 M36.05 51.21 C41.26 37.13, 53 32.29, 78.04 2.91 M36.05 51.21 C48.87 38.78, 60.72 25.53, 78.04 2.91 M41.04 51.57 C54.39 35.4, 63.98 24.38, 83.68 2.52 M41.04 51.57 C59.07 32.04, 74.9 11.82, 83.68 2.52 M46.68 51.18 C61.77 36.63, 78.28 17.64, 88.67 2.88 M46.68 51.18 C56.51 39.72, 68.98 29.46, 88.67 2.88 M51.67 51.54 C64.64 38.67, 77.91 18.99, 94.31 2.48 M51.67 51.54 C64.61 37.06, 74.58 25.3, 94.31 2.48 M57.31 51.15 C73.51 32.09, 89.97 15.89, 99.3 2.84 M57.31 51.15 C67.13 41.73, 78.96 29.41, 99.3 2.84 M62.3 51.51 C67.49 40.92, 79.45 33.3, 104.29 3.2 M62.3 51.51 C74.05 39.83, 83.62 28.77, 104.29 3.2 M67.29 51.87 C80.16 39.58, 84.33 33.39, 109.93 2.81 M67.29 51.87 C86.02 34.12, 101.61 13.16, 109.93 2.81 M72.93 51.47 C86.74 37.77, 88.88 31.03, 114.92 3.17 M72.93 51.47 C86.7 36.26, 99.89 20.41, 114.92 3.17 M77.92 51.83 C88.19 37.31, 103.82 24.52, 121.22 2.02 M77.92 51.83 C90.07 42.38, 98.84 28.83, 121.22 2.02 M83.56 51.44 C95.01 32.64, 110.35 22.89, 124.23 4.64 M83.56 51.44 C94.69 36.57, 104.07 28.03, 124.23 4.64 M88.55 51.8 C94.45 40.06, 105.68 36.35, 127.91 6.51 M88.55 51.8 C97.98 38.27, 109.12 26.1, 127.91 6.51 M94.19 51.4 C103.31 37.34, 114.69 29.14, 128.96 11.4 M94.19 51.4 C108.75 37.26, 118.44 19.73, 128.96 11.4 M99.18 51.76 C108.85 40.29, 119.78 30.15, 128.7 17.8 M99.18 51.76 C105.69 45.07, 116.3 34.69, 128.7 17.8 M104.16 52.12 C113.04 43.83, 117.87 40.35, 129.09 23.44 M104.16 52.12 C114.16 43.2, 120.47 30.73, 129.09 23.44 M109.81 51.73 C111.67 46.59, 117.45 39.72, 128.83 29.84 M109.81 51.73 C117.21 46.84, 122.63 40.43, 128.83 29.84 M116.11 50.58 C116.88 48.04, 119.45 44.21, 128.57 36.24 M116.11 50.58 C118.12 47.93, 120.58 43.52, 128.57 36.24" stroke="#b2f2bb" stroke-width="0.5" fill="none"></path><path d="M12.42 0 C46.31 0.4, 84.85 4.96, 114.75 0 M12.42 0 C42.99 -1.23, 73.43 -2.96, 114.75 0 M114.75 0 C121.18 0.98, 126.62 3.85, 127.17 12.42 M114.75 0 C119.83 1.63, 125.46 6.22, 127.17 12.42 M127.17 12.42 C128.3 20.23, 128.84 29.95, 127.17 37.27 M127.17 12.42 C128.2 17.09, 127.62 23.44, 127.17 37.27 M127.17 37.27 C127.31 42.8, 121.38 46.94, 114.75 49.69 M127.17 37.27 C127.8 49.98, 125.27 48.79, 114.75 49.69 M114.75 49.69 C84.13 46.73, 52.34 50.36, 12.42 49.69 M114.75 49.69 C79.77 48.9, 40.4 47.61, 12.42 49.69 M12.42 49.69 C2.62 47.83, -1.06 49.4, 0 37.27 M12.42 49.69 C5.83 49.06, -4.57 41.99, 0 37.27 M0 37.27 C1.95 32.47, -3.04 23.31, 0 12.42 M0 37.27 C-0.09 28.17, 1.55 19.84, 0 12.42 M0 12.42 C1.01 6.11, 5.55 -0.43, 12.42 0 M0 12.42 C-3 3.12, 4.44 1.99, 12.42 0" stroke="#2f9e44" stroke-width="1" fill="none"></path></g><g transform="translate(913.5817565917969 71.40481213210933) rotate(0 19.453125 11.5)"><text x="0" y="0" font-family="Helvetica, Segoe UI Emoji" font-size="20px" fill="#2f9e44" text-anchor="start" style="white-space: pre;" direction="ltr" dominant-baseline="text-before-edge">runc</text></g><g stroke-linecap="round" transform="translate(883.0934753417969 208.84231213210933) rotate(0 63.5859375 24.84375)"><path d="M4.94 1.64 C4.94 1.64, 4.94 1.64, 4.94 1.64 M4.94 1.64 C4.94 1.64, 4.94 1.64, 4.94 1.64 M2.06 11.06 C2.77 6.1, 6.89 6.83, 11.24 0.5 M2.06 11.06 C4.46 7.2, 8.63 3.11, 11.24 0.5 M1.79 17.46 C7.41 9.37, 13.04 11.13, 14.91 2.37 M1.79 17.46 C6.8 14.62, 7.21 8.75, 14.91 2.37 M2.19 23.1 C8.43 19.93, 18.09 8.14, 20.56 1.97 M2.19 23.1 C8.33 15.67, 16.35 8.21, 20.56 1.97 M1.93 29.5 C7.7 20.5, 23.32 7.24, 25.54 2.33 M1.93 29.5 C6.98 22.78, 14.01 17.62, 25.54 2.33 M2.32 35.14 C7.08 24.51, 18.09 17.64, 30.53 2.69 M2.32 35.14 C13.63 24.42, 20.99 13.58, 30.53 2.69 M2.06 41.54 C11.68 31.82, 19.93 21.88, 36.18 2.3 M2.06 41.54 C8.51 34.73, 18.4 23.5, 36.18 2.3 M3.11 46.43 C16.1 31.64, 27.86 22.79, 41.16 2.66 M3.11 46.43 C15.43 30.18, 32.48 12.45, 41.16 2.66 M6.79 48.3 C20.52 31.3, 39.42 14.66, 46.81 2.26 M6.79 48.3 C22.53 30.8, 38.15 14.35, 46.81 2.26 M9.8 50.92 C19.45 42.88, 31.6 27.3, 51.79 2.62 M9.8 50.92 C21.18 36.81, 33.87 21.32, 51.79 2.62 M14.79 51.28 C25.55 35.51, 38.86 16.77, 57.44 2.23 M14.79 51.28 C32.72 32.25, 46.09 15.28, 57.44 2.23 M20.43 50.89 C33.19 37.06, 53.24 17.79, 62.42 2.59 M20.43 50.89 C34.84 34.68, 49.34 16.26, 62.42 2.59 M25.42 51.25 C34.81 42.07, 47.98 28.64, 67.41 2.95 M25.42 51.25 C40.44 35.49, 50.15 19.24, 67.41 2.95 M30.41 51.61 C43.86 32.18, 56.89 22.63, 73.05 2.55 M30.41 51.61 C42.64 37.62, 55.6 20.76, 73.05 2.55 M36.05 51.21 C55.93 34.55, 67 16.96, 78.04 2.91 M36.05 51.21 C48.55 38.41, 58.51 25.08, 78.04 2.91 M41.04 51.57 C51.61 40.42, 57.88 31.22, 83.68 2.52 M41.04 51.57 C53.32 37.02, 68.25 17.75, 83.68 2.52 M46.68 51.18 C60.19 38.36, 69.1 25.3, 88.67 2.88 M46.68 51.18 C61.98 34.06, 75.38 17.32, 88.67 2.88 M51.67 51.54 C60.35 41.78, 70.1 30.48, 94.31 2.48 M51.67 51.54 C66.61 33.21, 83.91 14.15, 94.31 2.48 M57.31 51.15 C70.88 32.99, 81.14 21.46, 99.3 2.84 M57.31 51.15 C67.69 36.68, 78.43 24.27, 99.3 2.84 M62.3 51.51 C78.59 37.26, 93.75 14.63, 104.29 3.2 M62.3 51.51 C76.18 32.33, 94.29 18.1, 104.29 3.2 M67.29 51.87 C79.93 41.53, 86.05 32.19, 109.93 2.81 M67.29 51.87 C76.09 40.65, 85.44 31.33, 109.93 2.81 M72.93 51.47 C85.57 37.5, 93.37 20.98, 114.92 3.17 M72.93 51.47 C87.9 34.93, 102.4 19.55, 114.92 3.17 M77.92 51.83 C92.6 36.39, 97.02 29.84, 121.22 2.02 M77.92 51.83 C92.12 32.38, 108.59 15.66, 121.22 2.02 M83.56 51.44 C101.53 35, 113.47 16.82, 124.23 4.64 M83.56 51.44 C95.96 34.68, 111.95 17.84, 124.23 4.64 M88.55 51.8 C95.87 43.08, 111.01 24.76, 127.91 6.51 M88.55 51.8 C100.95 39.62, 109.1 27.2, 127.91 6.51 M94.19 51.4 C106.39 35.85, 118.73 26.93, 128.96 11.4 M94.19 51.4 C101.32 40.85, 111.19 31.29, 128.96 11.4 M99.18 51.76 C111.03 38.67, 120.33 32.16, 128.7 17.8 M99.18 51.76 C103.1 44.87, 111.2 38.33, 128.7 17.8 M104.16 52.12 C107.94 44.96, 118.46 39.35, 129.09 23.44 M104.16 52.12 C115.22 39.95, 123.33 27.77, 129.09 23.44 M109.81 51.73 C116.1 46.92, 114.64 42.15, 128.83 29.84 M109.81 51.73 C118.53 42.3, 122.41 34.09, 128.83 29.84 M116.11 50.58 C115.51 46.94, 124.78 44.79, 128.57 36.24 M116.11 50.58 C119.17 45.48, 125.26 38.59, 128.57 36.24" stroke="#b2f2bb" stroke-width="0.5" fill="none"></path><path d="M12.42 0 C43.56 -3.58, 67.85 0.53, 114.75 0 M12.42 0 C42.97 2.73, 72.59 1.06, 114.75 0 M114.75 0 C119.84 -1.32, 124.65 1.29, 127.17 12.42 M114.75 0 C123.12 -2.54, 126.93 3.27, 127.17 12.42 M127.17 12.42 C128.84 18.79, 127.65 25.24, 127.17 37.27 M127.17 12.42 C127.53 20.63, 125.32 26.09, 127.17 37.27 M127.17 37.27 C124.17 47.55, 120.92 48.42, 114.75 49.69 M127.17 37.27 C123.72 49.79, 126.28 52.75, 114.75 49.69 M114.75 49.69 C92.47 50.56, 68.42 50.78, 12.42 49.69 M114.75 49.69 C85.74 48.52, 59.33 48.36, 12.42 49.69 M12.42 49.69 C1.13 52.51, 3.94 41.55, 0 37.27 M12.42 49.69 C0.32 48.57, -4.17 44.89, 0 37.27 M0 37.27 C3.39 29.88, 1.63 23.54, 0 12.42 M0 37.27 C1.37 29.95, 0.03 23.42, 0 12.42 M0 12.42 C-2.25 1.42, 6.34 0.45, 12.42 0 M0 12.42 C0.45 3.56, 1.33 2.68, 12.42 0" stroke="#2f9e44" stroke-width="1" fill="none"></path></g><g transform="translate(921.2184753417969 222.45559338210933) rotate(0 23.3447265625 11.5)"><text x="0" y="0" font-family="Helvetica, Segoe UI Emoji" font-size="20px" fill="#2f9e44" text-anchor="start" style="white-space: pre;" direction="ltr" dominant-baseline="text-before-edge">youki</text></g><g stroke-linecap="round" transform="translate(884.6922235788857 286.5805933821093) rotate(0 63.5859375 24.84375)"><path d="M4.94 1.64 C4.94 1.64, 4.94 1.64, 4.94 1.64 M4.94 1.64 C4.94 1.64, 4.94 1.64, 4.94 1.64 M0.74 12.57 C5.19 8.92, 7.85 6.05, 11.24 0.5 M0.74 12.57 C4.81 7.78, 7.89 4.22, 11.24 0.5 M0.48 18.97 C4.69 15.6, 5.22 10.6, 16.88 0.1 M0.48 18.97 C7.34 10.33, 14.29 5.56, 16.88 0.1 M0.22 25.37 C6.96 18.72, 6.55 14.1, 21.87 0.46 M0.22 25.37 C6.12 21.74, 9.78 13.79, 21.87 0.46 M0.61 31.01 C6.8 17.03, 21.19 4.62, 27.51 0.07 M0.61 31.01 C10.11 22.07, 17.56 9.7, 27.51 0.07 M0.35 37.41 C9.44 21.63, 25.58 9.34, 32.5 0.43 M0.35 37.41 C7.59 30.15, 15.75 21.71, 32.5 0.43 M1.4 42.3 C6.3 32.07, 22.33 25.05, 37.49 0.79 M1.4 42.3 C13.5 28.11, 24.11 15.37, 37.49 0.79 M3.11 46.43 C13.06 30.17, 25.01 16.28, 43.13 0.39 M3.11 46.43 C15.76 31.36, 28.69 20.92, 43.13 0.39 M6.79 48.3 C19.21 37.76, 28.59 20.81, 48.12 0.75 M6.79 48.3 C16.65 37.09, 23.78 28.04, 48.12 0.75 M11.12 49.41 C21.71 40.99, 27.3 29.53, 53.76 0.36 M11.12 49.41 C28.14 33.06, 41.72 15.35, 53.76 0.36 M16.76 49.02 C27.43 37.52, 37.46 22.35, 58.75 0.72 M16.76 49.02 C25.48 38.5, 35.07 26.88, 58.75 0.72 M21.75 49.38 C30.12 37.9, 37.55 31.91, 64.39 0.32 M21.75 49.38 C37.59 32.85, 52.78 13.21, 64.39 0.32 M27.39 48.98 C37.41 34.71, 46.8 26.72, 69.38 0.68 M27.39 48.98 C43.4 33.65, 58.63 14.84, 69.38 0.68 M32.38 49.34 C44.51 29.68, 62.04 16.44, 74.36 1.04 M32.38 49.34 C45.81 34.69, 59.45 17.46, 74.36 1.04 M37.36 49.7 C53.66 34.69, 64.55 20.05, 80.01 0.65 M37.36 49.7 C54.37 31.77, 70.02 10.05, 80.01 0.65 M43.01 49.31 C59.45 28.15, 72.17 13.55, 84.99 1.01 M43.01 49.31 C57.92 32.24, 72.51 14.87, 84.99 1.01 M47.99 49.67 C62.12 37.02, 70.31 20.04, 90.64 0.61 M47.99 49.67 C56.28 40.08, 65.67 29.37, 90.64 0.61 M53.64 49.28 C68.54 30.99, 85.01 14.42, 95.62 0.97 M53.64 49.28 C72.1 32.69, 84.68 13.44, 95.62 0.97 M58.62 49.64 C72.6 39.15, 81.56 24.63, 101.27 0.58 M58.62 49.64 C70.87 36.69, 79.92 22.75, 101.27 0.58 M64.27 49.24 C74.35 33.3, 88.7 22.08, 106.25 0.94 M64.27 49.24 C75.2 37.29, 83.1 26.6, 106.25 0.94 M69.25 49.6 C85.48 31.2, 97.82 17.95, 111.24 1.3 M69.25 49.6 C80.44 37.33, 89.2 24.94, 111.24 1.3 M74.24 49.96 C85.35 41.87, 91.68 28.87, 116.88 0.91 M74.24 49.96 C86.46 37.22, 98.27 23.39, 116.88 0.91 M79.88 49.57 C88.71 36.31, 102.21 22.67, 121.22 2.02 M79.88 49.57 C90.14 38.95, 97.91 28.38, 121.22 2.02 M84.87 49.93 C100.58 31.38, 118.32 15.9, 124.89 3.89 M84.87 49.93 C91.81 40.92, 98.97 30.43, 124.89 3.89 M90.51 49.53 C98.33 38.41, 113.32 29.35, 126.6 8.02 M90.51 49.53 C103.36 36.68, 114.59 21.65, 126.6 8.02 M95.5 49.89 C106.32 39.09, 113.62 26.4, 127.65 12.91 M95.5 49.89 C105.25 38.83, 116.41 26.68, 127.65 12.91 M100.49 50.25 C107.72 41.87, 109.36 34.76, 127.39 19.31 M100.49 50.25 C109.52 38.69, 119.24 27.29, 127.39 19.31 M106.13 49.86 C115.28 44.59, 119.17 34.9, 127.13 25.71 M106.13 49.86 C111.08 43.75, 119.91 36.88, 127.13 25.71 M111.12 50.22 C114.68 46.47, 119.42 40.52, 126.86 32.11 M111.12 50.22 C117.04 45.25, 122.27 37.73, 126.86 32.11 M116.76 49.82 C120.13 45.94, 123.83 43.65, 127.26 37.75 M116.76 49.82 C119.07 46.2, 123.75 41.12, 127.26 37.75" stroke="#b2f2bb" stroke-width="0.5" fill="none"></path><path d="M12.42 0 C46.34 -5.7, 74.66 -2.11, 114.75 0 M12.42 0 C40.88 -2.44, 69.85 -2.17, 114.75 0 M114.75 0 C119.69 0.58, 126.09 8.04, 127.17 12.42 M114.75 0 C127.51 -0.31, 126.1 2.18, 127.17 12.42 M127.17 12.42 C130.78 21.33, 131.36 29.16, 127.17 37.27 M127.17 12.42 C127.48 17.29, 125.59 27, 127.17 37.27 M127.17 37.27 C129.6 42.19, 120.6 46.78, 114.75 49.69 M127.17 37.27 C130.43 45.14, 122.75 50.72, 114.75 49.69 M114.75 49.69 C92.65 51.44, 70.66 54.08, 12.42 49.69 M114.75 49.69 C87.09 51.48, 57.21 49.84, 12.42 49.69 M12.42 49.69 C5.83 49.55, 2.93 46.69, 0 37.27 M12.42 49.69 C5.53 51.31, 4.01 43.56, 0 37.27 M0 37.27 C-2.49 27.55, 3.74 27.78, 0 12.42 M0 37.27 C-1.62 28.53, -0.24 21.83, 0 12.42 M0 12.42 C-1.8 1.34, 7.24 -0.38, 12.42 0 M0 12.42 C0.66 1.93, 6.94 2.06, 12.42 0" stroke="#2f9e44" stroke-width="1" fill="none"></path></g><g transform="translate(922.8172235788857 300.1938746321093) rotate(0 18.9013671875 11.5)"><text x="0" y="0" font-family="Helvetica, Segoe UI Emoji" font-size="20px" fill="#2f9e44" text-anchor="start" style="white-space: pre;" direction="ltr" dominant-baseline="text-before-edge">kata</text></g><g stroke-linecap="round" transform="translate(885.64711725755 366.9165308821093) rotate(0 63.5859375 24.84375)"><path d="M4.94 1.64 C4.94 1.64, 4.94 1.64, 4.94 1.64 M4.94 1.64 C4.94 1.64, 4.94 1.64, 4.94 1.64 M2.06 11.06 C7.62 8.73, 7.36 5.36, 11.24 0.5 M2.06 11.06 C3.79 8.86, 5.33 6.56, 11.24 0.5 M1.79 17.46 C8.19 10.48, 12.68 8.81, 14.91 2.37 M1.79 17.46 C3.4 14.03, 8.07 10.53, 14.91 2.37 M2.19 23.1 C4.72 21.1, 8 16.81, 20.56 1.97 M2.19 23.1 C7.24 18.31, 13.96 9.77, 20.56 1.97 M1.93 29.5 C4.8 25.06, 12.5 14.68, 25.54 2.33 M1.93 29.5 C8.38 23.63, 18.2 14.21, 25.54 2.33 M2.32 35.14 C13.35 22.13, 20.33 13.92, 30.53 2.69 M2.32 35.14 C10.26 23.62, 22.04 12.38, 30.53 2.69 M2.06 41.54 C11.1 24.65, 24.48 18.26, 36.18 2.3 M2.06 41.54 C11.72 33.11, 18.2 22.32, 36.18 2.3 M3.11 46.43 C15.09 33.85, 20.95 22.54, 41.16 2.66 M3.11 46.43 C11.84 34.42, 22.05 23.84, 41.16 2.66 M6.79 48.3 C16.29 40.23, 21.09 27.79, 46.81 2.26 M6.79 48.3 C19.88 31.92, 33.79 16.8, 46.81 2.26 M9.8 50.92 C24.28 34.73, 42.3 16.26, 51.79 2.62 M9.8 50.92 C23.06 36.84, 38.97 19.98, 51.79 2.62 M14.79 51.28 C30.33 36.93, 45.28 19.14, 57.44 2.23 M14.79 51.28 C23.03 41.54, 36.11 29.07, 57.44 2.23 M20.43 50.89 C34.04 33.09, 47.3 25.58, 62.42 2.59 M20.43 50.89 C35.04 32.58, 50.17 13.97, 62.42 2.59 M25.42 51.25 C38.5 34.72, 46.73 25.45, 67.41 2.95 M25.42 51.25 C41.46 32.52, 54.76 18.28, 67.41 2.95 M30.41 51.61 C41.51 33.92, 56.43 21.19, 73.05 2.55 M30.41 51.61 C42.58 34.65, 59.88 17.91, 73.05 2.55 M36.05 51.21 C55.4 30.3, 69.51 9.58, 78.04 2.91 M36.05 51.21 C50.17 35.12, 63.39 19.02, 78.04 2.91 M41.04 51.57 C49.07 35.98, 62.13 26.55, 83.68 2.52 M41.04 51.57 C57.49 34.27, 75.02 12.05, 83.68 2.52 M46.68 51.18 C59.07 32.95, 73.1 16.2, 88.67 2.88 M46.68 51.18 C56.02 41.73, 68.23 28.61, 88.67 2.88 M51.67 51.54 C66.28 33.2, 85.49 14.26, 94.31 2.48 M51.67 51.54 C63.44 38.17, 69.23 27.67, 94.31 2.48 M57.31 51.15 C71.96 41.08, 85.4 19.73, 99.3 2.84 M57.31 51.15 C70.28 37.13, 85.6 22.08, 99.3 2.84 M62.3 51.51 C73.84 35.67, 94.54 14.83, 104.29 3.2 M62.3 51.51 C74.96 40.41, 83.68 26.32, 104.29 3.2 M67.29 51.87 C77.48 43.45, 89.93 31.39, 109.93 2.81 M67.29 51.87 C74.5 41.92, 86.36 29.47, 109.93 2.81 M72.93 51.47 C84.4 32.97, 95.55 22.14, 114.92 3.17 M72.93 51.47 C85.39 34.57, 100.39 18.69, 114.92 3.17 M77.92 51.83 C88.05 40.63, 97.98 26.78, 121.22 2.02 M77.92 51.83 C88.99 41.76, 98.09 28.4, 121.22 2.02 M83.56 51.44 C90.66 37.25, 106.42 29.4, 124.23 4.64 M83.56 51.44 C96.42 34.95, 112.39 21.06, 124.23 4.64 M88.55 51.8 C100.43 39.21, 114.47 27.46, 127.91 6.51 M88.55 51.8 C104.16 35.18, 118.05 14.96, 127.91 6.51 M94.19 51.4 C107.38 38.98, 115.3 27.63, 128.96 11.4 M94.19 51.4 C103.74 40.78, 110.08 31.16, 128.96 11.4 M99.18 51.76 C113.35 41.27, 121.2 26.93, 128.7 17.8 M99.18 51.76 C110.39 39.81, 124.19 26.33, 128.7 17.8 M104.16 52.12 C108.3 49.48, 112.68 35.53, 129.09 23.44 M104.16 52.12 C111.95 44.78, 116.26 34.89, 129.09 23.44 M109.81 51.73 C118.47 41.5, 123.49 37.13, 128.83 29.84 M109.81 51.73 C116.88 44.23, 120.44 35.85, 128.83 29.84 M116.11 50.58 C117 44.49, 122.41 41.33, 128.57 36.24 M116.11 50.58 C120.87 48.01, 121.38 44.37, 128.57 36.24" stroke="#b2f2bb" stroke-width="0.5" fill="none"></path><path d="M12.42 0 C43.02 1.68, 68.65 -0.96, 114.75 0 M12.42 0 C33.5 -0.1, 55.88 -0.12, 114.75 0 M114.75 0 C126 3.21, 130.6 4.11, 127.17 12.42 M114.75 0 C123.62 0.83, 129.48 7.94, 127.17 12.42 M127.17 12.42 C130.47 15.34, 128.92 23.74, 127.17 37.27 M127.17 12.42 C128.1 17.11, 127.63 22.66, 127.17 37.27 M127.17 37.27 C128.05 44.4, 124.98 49.74, 114.75 49.69 M127.17 37.27 C123.82 43.93, 124.14 54.28, 114.75 49.69 M114.75 49.69 C86.64 53.14, 60.05 49.4, 12.42 49.69 M114.75 49.69 C74.34 52.23, 38.79 52.18, 12.42 49.69 M12.42 49.69 C3.07 52.12, -1.74 45.65, 0 37.27 M12.42 49.69 C6.32 47.23, -2.27 41.25, 0 37.27 M0 37.27 C-2.98 26.6, -1.27 22.74, 0 12.42 M0 37.27 C0.48 28.72, -1.56 19.55, 0 12.42 M0 12.42 C0.05 3.97, 4.54 -1.04, 12.42 0 M0 12.42 C1.1 8.09, 1.89 -4.3, 12.42 0" stroke="#2f9e44" stroke-width="1" fill="none"></path></g><g transform="translate(923.77211725755 380.5298121321093) rotate(0 26.6748046875 11.5)"><text x="0" y="0" font-family="Helvetica, Segoe UI Emoji" font-size="20px" fill="#2f9e44" text-anchor="start" style="white-space: pre;" direction="ltr" dominant-baseline="text-before-edge">gvisor</text></g><g stroke-linecap="round" transform="translate(880.1091003417969 132.98684338210933) rotate(0 63.5859375 24.84375)"><path d="M4.94 1.64 C4.94 1.64, 4.94 1.64, 4.94 1.64 M4.94 1.64 C4.94 1.64, 4.94 1.64, 4.94 1.64 M0.74 12.57 C2.83 5.28, 5.02 4.23, 11.24 0.5 M0.74 12.57 C4.94 7.42, 9.9 4.87, 11.24 0.5 M0.48 18.97 C6.02 15.85, 10.42 11.84, 16.88 0.1 M0.48 18.97 C8.04 13.61, 10.85 6.91, 16.88 0.1 M0.22 25.37 C10.37 20.44, 14.26 5.35, 21.87 0.46 M0.22 25.37 C6.22 19.7, 11.26 10.62, 21.87 0.46 M0.61 31.01 C11.5 23.8, 18.04 13.18, 27.51 0.07 M0.61 31.01 C8.81 22.44, 16.83 15.64, 27.51 0.07 M0.35 37.41 C10.58 21.68, 20.94 7.59, 32.5 0.43 M0.35 37.41 C12.2 21.78, 23.57 8.07, 32.5 0.43 M1.4 42.3 C11.42 30.04, 27.9 12.58, 37.49 0.79 M1.4 42.3 C16.33 24.28, 29.19 10.8, 37.49 0.79 M3.11 46.43 C12.5 37.68, 24.48 25.34, 43.13 0.39 M3.11 46.43 C12.04 35.52, 24.4 21.89, 43.13 0.39 M6.79 48.3 C17.3 38.9, 30.78 26.89, 48.12 0.75 M6.79 48.3 C18.5 30.63, 32.19 18.14, 48.12 0.75 M11.12 49.41 C22.81 31.82, 38.42 19.5, 53.76 0.36 M11.12 49.41 C21.12 40.88, 31.22 29.57, 53.76 0.36 M16.76 49.02 C24.95 37.16, 39.29 22.89, 58.75 0.72 M16.76 49.02 C28.98 34.73, 42.2 19.94, 58.75 0.72 M21.75 49.38 C32.57 39.08, 37.76 26.43, 64.39 0.32 M21.75 49.38 C31.43 37.3, 44.41 26.43, 64.39 0.32 M27.39 48.98 C35.29 35.4, 41.96 30.68, 69.38 0.68 M27.39 48.98 C37.22 40.23, 45.7 27.85, 69.38 0.68 M32.38 49.34 C48.16 32.14, 64.74 9.94, 74.36 1.04 M32.38 49.34 C42.32 37.6, 55.17 22.9, 74.36 1.04 M37.36 49.7 C55.42 34.56, 69.53 17.12, 80.01 0.65 M37.36 49.7 C46.44 41.03, 57.23 28.36, 80.01 0.65 M43.01 49.31 C52.56 39.95, 62.41 24.83, 84.99 1.01 M43.01 49.31 C56.44 36.64, 67.41 25.01, 84.99 1.01 M47.99 49.67 C61.02 35.43, 72.47 24.72, 90.64 0.61 M47.99 49.67 C62.61 35.41, 76.54 18.65, 90.64 0.61 M53.64 49.28 C70.62 29.94, 84.11 13.53, 95.62 0.97 M53.64 49.28 C71.5 31.73, 84.91 12.26, 95.62 0.97 M58.62 49.64 C72.36 30.37, 92.76 12.14, 101.27 0.58 M58.62 49.64 C75.48 33.05, 90.18 17.37, 101.27 0.58 M64.27 49.24 C78.44 31.47, 91.7 12.71, 106.25 0.94 M64.27 49.24 C74.81 36.87, 81.45 27.14, 106.25 0.94 M69.25 49.6 C79.32 37.84, 92.39 19.23, 111.24 1.3 M69.25 49.6 C80.27 36.23, 89.34 28.02, 111.24 1.3 M74.24 49.96 C86.78 31.84, 101.91 16.78, 116.88 0.91 M74.24 49.96 C88.3 36.59, 100.58 22.15, 116.88 0.91 M79.88 49.57 C92.81 33.58, 101.73 22.04, 121.22 2.02 M79.88 49.57 C93.47 31.13, 106.96 18.93, 121.22 2.02 M84.87 49.93 C93.54 37.68, 107.54 28.53, 124.89 3.89 M84.87 49.93 C95.36 38.86, 105.47 24.55, 124.89 3.89 M90.51 49.53 C100.39 35.46, 109.66 29.19, 126.6 8.02 M90.51 49.53 C99.41 38.88, 112.14 25.62, 126.6 8.02 M95.5 49.89 C110.88 34.96, 118.8 25.59, 127.65 12.91 M95.5 49.89 C104.19 41.03, 111.09 33.04, 127.65 12.91 M100.49 50.25 C109.32 44.26, 115.96 31.04, 127.39 19.31 M100.49 50.25 C108.48 40.09, 117.2 30.03, 127.39 19.31 M106.13 49.86 C107.96 43.13, 113.42 34.85, 127.13 25.71 M106.13 49.86 C112.44 43.61, 118.66 36.99, 127.13 25.71 M111.12 50.22 C116.52 42.65, 118.33 39.77, 126.86 32.11 M111.12 50.22 C116.3 43.75, 121.77 34.3, 126.86 32.11 M116.76 49.82 C118.79 45.32, 123.8 44.77, 127.26 37.75 M116.76 49.82 C118.72 47.46, 124.6 43.78, 127.26 37.75" stroke="#b2f2bb" stroke-width="0.5" fill="none"></path><path d="M12.42 0 C46.33 -1.92, 83.22 -4.25, 114.75 0 M12.42 0 C41.35 -0.38, 68.28 1.76, 114.75 0 M114.75 0 C125.33 3.02, 124.89 7.65, 127.17 12.42 M114.75 0 C118.58 0.11, 129.66 2.66, 127.17 12.42 M127.17 12.42 C123.86 22.83, 124.27 28.68, 127.17 37.27 M127.17 12.42 C125.82 22.59, 125.87 32.73, 127.17 37.27 M127.17 37.27 C128.2 43.58, 126 47.49, 114.75 49.69 M127.17 37.27 C127.69 41.18, 124.62 45.65, 114.75 49.69 M114.75 49.69 C78.8 50.52, 48.82 53.28, 12.42 49.69 M114.75 49.69 C76.72 51.05, 43.16 47.89, 12.42 49.69 M12.42 49.69 C2.15 47.89, 2.99 45.38, 0 37.27 M12.42 49.69 C0.69 51.9, 2.09 41.39, 0 37.27 M0 37.27 C-1.85 28.66, 3.92 22.68, 0 12.42 M0 37.27 C0.07 31.41, -0.02 23.45, 0 12.42 M0 12.42 C-1.35 4.89, 5.81 0.43, 12.42 0 M0 12.42 C-3.46 2.73, 7.48 4.32, 12.42 0" stroke="#2f9e44" stroke-width="1" fill="none"></path></g><g transform="translate(918.2341003417969 146.83059338210933) rotate(0 19.453125 11.5)"><text x="0" y="0" font-family="Helvetica, Segoe UI Emoji" font-size="20px" fill="#2f9e44" text-anchor="start" style="white-space: pre;" direction="ltr" dominant-baseline="text-before-edge">crun</text></g><g stroke-linecap="round" transform="translate(109.21861323838652 161.56939873616875) rotate(0 63.5859375 24.84375)"><path d="M4.94 1.64 C4.94 1.64, 4.94 1.64, 4.94 1.64 M4.94 1.64 C4.94 1.64, 4.94 1.64, 4.94 1.64 M0.74 12.57 C5.3 7.05, 8.03 5.89, 11.24 0.5 M0.74 12.57 C3.55 7.26, 8.19 3.37, 11.24 0.5 M0.48 18.97 C2.42 13.65, 6.42 10.26, 16.88 0.1 M0.48 18.97 C5.6 13.52, 12.47 3.77, 16.88 0.1 M0.22 25.37 C2.76 14.49, 10.23 7.94, 21.87 0.46 M0.22 25.37 C6.12 15.09, 14.42 8.77, 21.87 0.46 M0.61 31.01 C12.25 21.17, 19.33 12.67, 27.51 0.07 M0.61 31.01 C7.46 20.17, 18.55 8.81, 27.51 0.07 M0.35 37.41 C13.67 25.09, 21.94 6.27, 32.5 0.43 M0.35 37.41 C7.32 27.18, 16.79 19.57, 32.5 0.43 M1.4 42.3 C10.01 36.65, 16.95 28.24, 37.49 0.79 M1.4 42.3 C15.64 25.12, 29.68 12.27, 37.49 0.79 M3.11 46.43 C16.04 29.84, 36.71 8.27, 43.13 0.39 M3.11 46.43 C13.06 35.56, 24.51 25.09, 43.13 0.39 M6.79 48.3 C19.26 35.08, 23.09 29.34, 48.12 0.75 M6.79 48.3 C22.63 32.08, 36.77 12.58, 48.12 0.75 M11.12 49.41 C21.62 35.46, 37.41 24.69, 53.76 0.36 M11.12 49.41 C23.8 34.52, 38.69 19.45, 53.76 0.36 M16.76 49.02 C31.21 27.68, 52.01 10.3, 58.75 0.72 M16.76 49.02 C32.08 30.17, 46.4 16.96, 58.75 0.72 M21.75 49.38 C34.19 35.35, 40.45 25.16, 64.39 0.32 M21.75 49.38 C36.06 34.26, 50.85 19.64, 64.39 0.32 M27.39 48.98 C34.9 39.27, 49.54 24.33, 69.38 0.68 M27.39 48.98 C36.84 39.52, 45.52 28.35, 69.38 0.68 M32.38 49.34 C46.33 33.45, 59.06 15.35, 74.36 1.04 M32.38 49.34 C45.82 31.47, 59.65 15.55, 74.36 1.04 M37.36 49.7 C47.51 36.54, 66.09 15.7, 80.01 0.65 M37.36 49.7 C53.35 32.88, 65.86 14.44, 80.01 0.65 M43.01 49.31 C50.58 39.04, 62.06 28.73, 84.99 1.01 M43.01 49.31 C56.98 32.63, 70.37 13.42, 84.99 1.01 M47.99 49.67 C65.19 33.5, 79.36 17.32, 90.64 0.61 M47.99 49.67 C62.6 34.37, 74.24 21.21, 90.64 0.61 M53.64 49.28 C65.85 33.25, 78.53 16.02, 95.62 0.97 M53.64 49.28 C68.02 34.04, 81.68 13.94, 95.62 0.97 M58.62 49.64 C73.05 39.79, 83.74 20.58, 101.27 0.58 M58.62 49.64 C71.02 34.97, 86.16 18.04, 101.27 0.58 M64.27 49.24 C76.26 29.28, 98.27 8.98, 106.25 0.94 M64.27 49.24 C81.56 29.81, 95.76 12.14, 106.25 0.94 M69.25 49.6 C82.43 32.03, 91.16 22.51, 111.24 1.3 M69.25 49.6 C81.11 34.9, 93.39 20.93, 111.24 1.3 M74.24 49.96 C87.28 36.09, 93.77 24.8, 116.88 0.91 M74.24 49.96 C83.94 40.74, 93.25 28.86, 116.88 0.91 M79.88 49.57 C95.79 34.01, 106.89 19.47, 121.22 2.02 M79.88 49.57 C91.23 38.6, 101.31 23.96, 121.22 2.02 M84.87 49.93 C96.45 34.56, 113.98 21.35, 124.89 3.89 M84.87 49.93 C99.63 32.61, 116.43 13.55, 124.89 3.89 M90.51 49.53 C97.97 36.15, 108.55 31.89, 126.6 8.02 M90.51 49.53 C102.57 35.67, 117.43 18.43, 126.6 8.02 M95.5 49.89 C108.06 38, 118.77 24.7, 127.65 12.91 M95.5 49.89 C104.43 38.43, 116.49 24.1, 127.65 12.91 M100.49 50.25 C109.38 37.56, 120.3 28.55, 127.39 19.31 M100.49 50.25 C109.42 41.54, 114.49 32.18, 127.39 19.31 M106.13 49.86 C117.19 39, 119.8 32.31, 127.13 25.71 M106.13 49.86 C113.35 39.96, 121.73 36.03, 127.13 25.71 M111.12 50.22 C114.42 44.26, 116.85 40.9, 126.86 32.11 M111.12 50.22 C114.39 43.92, 119.79 38.98, 126.86 32.11 M116.76 49.82 C121.68 48.51, 122.68 40.21, 127.26 37.75 M116.76 49.82 C120.38 45.51, 122.87 41.89, 127.26 37.75" stroke="#a5d8ff" stroke-width="0.5" fill="none"></path><path d="M12.42 0 C52.14 2.07, 88.19 -0.64, 114.75 0 M12.42 0 C46.99 0.92, 80.47 0.66, 114.75 0 M114.75 0 C122.98 -0.01, 127.83 0.43, 127.17 12.42 M114.75 0 C119.75 -3.99, 130.98 0.5, 127.17 12.42 M127.17 12.42 C125.36 16.88, 125.46 23.93, 127.17 37.27 M127.17 12.42 C127.58 18.31, 125.53 24.56, 127.17 37.27 M127.17 37.27 C130.67 42.28, 119.68 50.2, 114.75 49.69 M127.17 37.27 C130.31 47.85, 118.72 53.45, 114.75 49.69 M114.75 49.69 C90.45 46.82, 59.36 50.88, 12.42 49.69 M114.75 49.69 C78.27 47.16, 44.03 47.29, 12.42 49.69 M12.42 49.69 C5.54 47.36, 1.54 46.98, 0 37.27 M12.42 49.69 C3.91 48.34, 2.24 46.95, 0 37.27 M0 37.27 C4.02 29.95, 2.98 24.92, 0 12.42 M0 37.27 C-0.19 30.36, -0.62 27.19, 0 12.42 M0 12.42 C1.2 7.31, 3.89 -3.38, 12.42 0 M0 12.42 C2.89 2.88, 5.46 -2.23, 12.42 0" stroke="#1971c2" stroke-width="1" fill="none"></path></g><g transform="translate(123.37486323838652 172.48184645695642) rotate(0 51.1474609375 11.5)"><text x="0" y="0" font-family="Helvetica, Segoe UI Emoji" font-size="20px" fill="#1971c2" text-anchor="start" style="white-space: pre;" direction="ltr" dominant-baseline="text-before-edge">Kubernetes</text></g><g stroke-linecap="round"><g transform="translate(627.5739440917969 236.54153088210933) rotate(0 114.05859375 0.451171875)"><path d="M0 0 C38.02 0.15, 190.1 0.75, 228.12 0.9" stroke="#2f9e44" stroke-width="1.5" fill="none" stroke-dasharray="1.5 7"></path></g><g transform="translate(627.5739440917969 236.54153088210933) rotate(0 114.05859375 0.451171875)"><path d="M199.89 11.05 C209.36 7.64, 218.84 4.24, 228.12 0.9" stroke="#2f9e44" stroke-width="1.5" fill="none" stroke-dasharray="1.5 5"></path></g><g transform="translate(627.5739440917969 236.54153088210933) rotate(0 114.05859375 0.451171875)"><path d="M199.97 -9.47 C209.42 -5.99, 218.87 -2.51, 228.12 0.9" stroke="#2f9e44" stroke-width="1.5" fill="none" stroke-dasharray="1.5 5"></path></g></g><mask></mask><g transform="translate(648.4668690559915 199.5068984081845) rotate(0 75.5859375 11.5)"><text x="0" y="0" font-family="Helvetica, Segoe UI Emoji" font-size="20px" fill="#2f9e44" text-anchor="start" style="white-space: pre;" direction="ltr" dominant-baseline="text-before-edge">OCI specification</text></g><g stroke-linecap="round" transform="translate(112.6770243357098 249.36501837226933) rotate(0 63.5859375 24.84375)"><path d="M4.94 1.64 C4.94 1.64, 4.94 1.64, 4.94 1.64 M4.94 1.64 C4.94 1.64, 4.94 1.64, 4.94 1.64 M0.74 12.57 C7.2 8.88, 11.95 4.53, 11.24 0.5 M0.74 12.57 C4.8 8.43, 6.07 5.59, 11.24 0.5 M0.48 18.97 C1.66 11.29, 5.78 9.91, 16.88 0.1 M0.48 18.97 C6.63 11.72, 13.73 6.86, 16.88 0.1 M0.22 25.37 C9.63 14.27, 14.16 2.28, 21.87 0.46 M0.22 25.37 C6.6 13.25, 16.44 4.78, 21.87 0.46 M0.61 31.01 C9.4 23.2, 16.09 11.98, 27.51 0.07 M0.61 31.01 C7.58 25.8, 11.36 16.9, 27.51 0.07 M0.35 37.41 C9.03 23.63, 24.71 8.83, 32.5 0.43 M0.35 37.41 C10.21 27.5, 15.68 18.67, 32.5 0.43 M1.4 42.3 C13.45 28.43, 26.75 12.68, 37.49 0.79 M1.4 42.3 C17.1 26.53, 28.99 9.9, 37.49 0.79 M3.11 46.43 C17.46 32.82, 25.25 20.62, 43.13 0.39 M3.11 46.43 C15.28 32.82, 27.1 18.87, 43.13 0.39 M6.79 48.3 C24.45 32.01, 32.4 18.32, 48.12 0.75 M6.79 48.3 C15.3 35.65, 25.81 26.61, 48.12 0.75 M11.12 49.41 C28.69 26.53, 47.3 8.26, 53.76 0.36 M11.12 49.41 C23.84 37.43, 35.04 23.45, 53.76 0.36 M16.76 49.02 C28.58 32.08, 38.64 25.39, 58.75 0.72 M16.76 49.02 C30.07 35.17, 42.65 20.58, 58.75 0.72 M21.75 49.38 C33.2 38.27, 45.85 21.2, 64.39 0.32 M21.75 49.38 C34.03 35.26, 48.67 17.7, 64.39 0.32 M27.39 48.98 C41.64 37.17, 54.43 17.78, 69.38 0.68 M27.39 48.98 C36.18 36.29, 50.04 24.36, 69.38 0.68 M32.38 49.34 C42.36 38.16, 56.05 20.54, 74.36 1.04 M32.38 49.34 C41.91 37.3, 51.99 25.51, 74.36 1.04 M37.36 49.7 C47.55 42.23, 55.42 25.57, 80.01 0.65 M37.36 49.7 C53.33 31.66, 71.18 12.11, 80.01 0.65 M43.01 49.31 C52.76 33.07, 62.79 19.5, 84.99 1.01 M43.01 49.31 C53.14 39.21, 61.47 25.21, 84.99 1.01 M47.99 49.67 C62.9 29.52, 78.64 18.06, 90.64 0.61 M47.99 49.67 C60.38 38.24, 69.6 22.58, 90.64 0.61 M53.64 49.28 C64.38 35.19, 80.74 16.36, 95.62 0.97 M53.64 49.28 C60.72 41.4, 69.32 30.03, 95.62 0.97 M58.62 49.64 C71.83 39.45, 79.53 28.49, 101.27 0.58 M58.62 49.64 C69.38 39.32, 80.57 24.59, 101.27 0.58 M64.27 49.24 C70.87 39.3, 83.77 28.91, 106.25 0.94 M64.27 49.24 C80.4 32.36, 93.16 16.57, 106.25 0.94 M69.25 49.6 C76.61 36.72, 85.49 27.77, 111.24 1.3 M69.25 49.6 C80.93 37.53, 90.24 22.85, 111.24 1.3 M74.24 49.96 C88.24 36.26, 103.97 14.71, 116.88 0.91 M74.24 49.96 C87.27 36.8, 98.78 20.43, 116.88 0.91 M79.88 49.57 C93.54 34.28, 105.39 13.84, 121.22 2.02 M79.88 49.57 C98.34 32.19, 111.69 13.99, 121.22 2.02 M84.87 49.93 C95.48 35.97, 115.36 16.64, 124.89 3.89 M84.87 49.93 C99.91 32.62, 117.2 16.37, 124.89 3.89 M90.51 49.53 C99.09 36.17, 110.65 23.07, 126.6 8.02 M90.51 49.53 C102.3 36.48, 117.12 20.51, 126.6 8.02 M95.5 49.89 C108.84 39.09, 117.11 21.18, 127.65 12.91 M95.5 49.89 C107.44 36.62, 119 20.6, 127.65 12.91 M100.49 50.25 C107.21 37.32, 120.3 29.57, 127.39 19.31 M100.49 50.25 C109.14 41.07, 113.82 32.71, 127.39 19.31 M106.13 49.86 C112.65 38.23, 116.72 31.37, 127.13 25.71 M106.13 49.86 C115.54 39.87, 123.69 32.92, 127.13 25.71 M111.12 50.22 C113.98 46.42, 123.43 34.78, 126.86 32.11 M111.12 50.22 C115.9 42.11, 121.57 38.25, 126.86 32.11 M116.76 49.82 C119.92 45.78, 120.91 43.19, 127.26 37.75 M116.76 49.82 C118.45 45.45, 123.91 44.03, 127.26 37.75" stroke="#a5d8ff" stroke-width="0.5" fill="none"></path><path d="M12.42 0 C46.32 3.65, 87.62 -2.93, 114.75 0 M12.42 0 C44.71 2.44, 72.62 3.07, 114.75 0 M114.75 0 C126.38 3.08, 128.91 7.78, 127.17 12.42 M114.75 0 C123.47 -0.32, 123.7 1.5, 127.17 12.42 M127.17 12.42 C124.58 24.44, 126.59 33.38, 127.17 37.27 M127.17 12.42 C128.51 20.67, 125.92 25.23, 127.17 37.27 M127.17 37.27 C127.72 46.45, 119.65 52.17, 114.75 49.69 M127.17 37.27 C124.2 43.5, 123.53 53.3, 114.75 49.69 M114.75 49.69 C86.5 45.52, 55.03 49.16, 12.42 49.69 M114.75 49.69 C80.63 49.87, 48.99 52.04, 12.42 49.69 M12.42 49.69 C3.74 47.6, 2.59 49.12, 0 37.27 M12.42 49.69 C5.9 52.07, 1.3 45.2, 0 37.27 M0 37.27 C0.47 33.74, -1.44 28.85, 0 12.42 M0 37.27 C-0.11 32.88, 0.62 27.09, 0 12.42 M0 12.42 C-0.73 7.35, 6.64 0.84, 12.42 0 M0 12.42 C0.93 7.5, 5.83 1.86, 12.42 0" stroke="#1971c2" stroke-width="1" fill="none"></path></g><g transform="translate(10 21.750991554208667) rotate(0 149.5263671875 11.5)"><text x="0" y="0" font-family="Helvetica, Segoe UI Emoji" font-size="20px" fill="#1971c2" text-anchor="start" style="white-space: pre;" direction="ltr" dominant-baseline="text-before-edge">High-level container management</text></g><g stroke-linecap="round" transform="translate(1339.7458190917969 172.55324963210933) rotate(0 63.5859375 24.84375)"><path d="M4.94 1.64 C4.94 1.64, 4.94 1.64, 4.94 1.64 M4.94 1.64 C4.94 1.64, 4.94 1.64, 4.94 1.64 M2.06 11.06 C3.12 8.22, 9.16 3.61, 11.24 0.5 M2.06 11.06 C5.5 8.54, 6.2 6.5, 11.24 0.5 M1.79 17.46 C7.4 14.95, 15.31 4.65, 14.91 2.37 M1.79 17.46 C5.83 13.3, 9.29 8.69, 14.91 2.37 M2.19 23.1 C4.59 18.78, 17.79 12.87, 20.56 1.97 M2.19 23.1 C9.05 17.49, 16.88 7.55, 20.56 1.97 M1.93 29.5 C6.16 19.68, 13.18 14.69, 25.54 2.33 M1.93 29.5 C8.81 20.31, 13.59 15.89, 25.54 2.33 M2.32 35.14 C14.37 20.7, 20.47 8.94, 30.53 2.69 M2.32 35.14 C12.28 23.6, 23.91 8.06, 30.53 2.69 M2.06 41.54 C8.85 33.42, 23.62 18.62, 36.18 2.3 M2.06 41.54 C10.69 32.07, 22.46 17.08, 36.18 2.3 M3.11 46.43 C16.05 31.65, 26.32 24.05, 41.16 2.66 M3.11 46.43 C10.81 36.52, 18.97 27.03, 41.16 2.66 M6.79 48.3 C16.24 36.89, 27.79 23.03, 46.81 2.26 M6.79 48.3 C23.09 31.28, 38.73 12.24, 46.81 2.26 M9.8 50.92 C24.69 41.44, 30.77 25.47, 51.79 2.62 M9.8 50.92 C18.5 38.98, 29.24 29.06, 51.79 2.62 M14.79 51.28 C24.59 35.22, 39.11 22.91, 57.44 2.23 M14.79 51.28 C28.72 35.86, 42.83 19.9, 57.44 2.23 M20.43 50.89 C31.36 43.19, 39.47 30.69, 62.42 2.59 M20.43 50.89 C35.57 33.35, 54.31 13.66, 62.42 2.59 M25.42 51.25 C36.61 38.36, 43 28, 67.41 2.95 M25.42 51.25 C38.62 37.45, 52.59 19.96, 67.41 2.95 M30.41 51.61 C49.94 31.83, 65.96 15.66, 73.05 2.55 M30.41 51.61 C46.23 32.6, 62.82 16.01, 73.05 2.55 M36.05 51.21 C54.64 33.81, 69.12 19.34, 78.04 2.91 M36.05 51.21 C50.49 32.72, 66.98 12.75, 78.04 2.91 M41.04 51.57 C53.66 36.38, 68.6 25.88, 83.68 2.52 M41.04 51.57 C51.59 39, 62.62 27.96, 83.68 2.52 M46.68 51.18 C60.09 42.27, 66.36 27.6, 88.67 2.88 M46.68 51.18 C61.38 35.17, 75.89 16.39, 88.67 2.88 M51.67 51.54 C63.45 35.59, 72.68 24.31, 94.31 2.48 M51.67 51.54 C67.43 35.32, 81.05 14.98, 94.31 2.48 M57.31 51.15 C64 43.38, 73.79 32.51, 99.3 2.84 M57.31 51.15 C66.24 38.89, 76.53 27.73, 99.3 2.84 M62.3 51.51 C74.39 42.02, 81.3 30.25, 104.29 3.2 M62.3 51.51 C81.26 31.7, 97.79 14.47, 104.29 3.2 M67.29 51.87 C72.93 45.39, 84.08 31.43, 109.93 2.81 M67.29 51.87 C80.42 37.14, 92.65 22.48, 109.93 2.81 M72.93 51.47 C81.63 37.25, 99.25 21.22, 114.92 3.17 M72.93 51.47 C89.89 32.53, 107.08 13.42, 114.92 3.17 M77.92 51.83 C93.65 36.29, 101.14 21.04, 121.22 2.02 M77.92 51.83 C89.27 36.88, 101.72 21.76, 121.22 2.02 M83.56 51.44 C95.41 34.45, 109.68 21.32, 124.23 4.64 M83.56 51.44 C92.31 40.2, 103.05 28.6, 124.23 4.64 M88.55 51.8 C97.95 42.24, 106.78 25.27, 127.91 6.51 M88.55 51.8 C101.99 36.1, 117.63 19.13, 127.91 6.51 M94.19 51.4 C107.32 38.98, 110.13 28.71, 128.96 11.4 M94.19 51.4 C106.27 37.59, 117.66 23.1, 128.96 11.4 M99.18 51.76 C106.28 45.12, 112.12 33.52, 128.7 17.8 M99.18 51.76 C105.41 45.91, 114.64 36.37, 128.7 17.8 M104.16 52.12 C116.24 42.05, 125.5 29.82, 129.09 23.44 M104.16 52.12 C111.44 43.84, 120.81 32.93, 129.09 23.44 M109.81 51.73 C113.59 46.56, 124.18 33.04, 128.83 29.84 M109.81 51.73 C115.79 46.38, 121.39 39.98, 128.83 29.84 M116.11 50.58 C117.18 48.76, 120.36 44.25, 128.57 36.24 M116.11 50.58 C118.15 45.02, 125.04 41.7, 128.57 36.24" stroke="#d0bfff" stroke-width="0.5" fill="none"></path><path d="M12.42 0 C38.28 0.12, 70.14 -2.63, 114.75 0 M12.42 0 C48.57 3.27, 83.68 2.66, 114.75 0 M114.75 0 C120.59 -3.77, 129.3 6.63, 127.17 12.42 M114.75 0 C123.5 -3.88, 127.8 4.75, 127.17 12.42 M127.17 12.42 C123.68 20.63, 126.96 21.88, 127.17 37.27 M127.17 12.42 C129.06 21.49, 128.13 31.72, 127.17 37.27 M127.17 37.27 C124.15 41.77, 121.99 51.3, 114.75 49.69 M127.17 37.27 C123.21 45.43, 121.34 53.03, 114.75 49.69 M114.75 49.69 C88.77 45.98, 66.13 52.71, 12.42 49.69 M114.75 49.69 C90.14 49.03, 67.5 47.84, 12.42 49.69 M12.42 49.69 C2.86 48.98, -3.07 45.6, 0 37.27 M12.42 49.69 C4.93 50.71, 2.31 44.31, 0 37.27 M0 37.27 C0.19 26.14, -2.12 23.54, 0 12.42 M0 37.27 C1.52 30.43, -1.95 25.5, 0 12.42 M0 12.42 C-2.88 3.19, 3.35 -3.35, 12.42 0 M0 12.42 C-2.65 0.44, 6.99 -3.19, 12.42 0" stroke="#6741d9" stroke-width="1" fill="none"></path></g><g transform="translate(1362.1940612792969 185.89699963210933) rotate(0 41.1376953125 11.5)"><text x="41.1376953125" y="0" font-family="Helvetica, Segoe UI Emoji" font-size="20px" fill="#6741d9" text-anchor="middle" style="white-space: pre;" direction="ltr" dominant-baseline="text-before-edge">container</text></g><g stroke-linecap="round" transform="translate(1183.9255065917969 172.83059338210933) rotate(0 63.5859375 24.84375)"><path d="M4.94 1.64 C4.94 1.64, 4.94 1.64, 4.94 1.64 M4.94 1.64 C4.94 1.64, 4.94 1.64, 4.94 1.64 M2.06 11.06 C4.89 9.25, 6.01 3.47, 11.24 0.5 M2.06 11.06 C5.94 6.11, 9.74 4.1, 11.24 0.5 M1.79 17.46 C3.98 14.68, 4.59 12.8, 14.91 2.37 M1.79 17.46 C4.73 13.53, 8.8 6.96, 14.91 2.37 M2.19 23.1 C3.67 16.01, 8.97 11.47, 20.56 1.97 M2.19 23.1 C7.28 16.48, 17.35 8.72, 20.56 1.97 M1.93 29.5 C8.87 17.99, 22.44 13.73, 25.54 2.33 M1.93 29.5 C13.06 17.48, 18.59 6.93, 25.54 2.33 M2.32 35.14 C9.71 27.69, 15.82 15.6, 30.53 2.69 M2.32 35.14 C10.53 25.74, 20.12 18.5, 30.53 2.69 M2.06 41.54 C10.29 33.68, 23.32 20.34, 36.18 2.3 M2.06 41.54 C10.43 33.84, 16.54 26.93, 36.18 2.3 M3.11 46.43 C16.07 39.44, 19.02 27.97, 41.16 2.66 M3.11 46.43 C16.79 29.97, 30.74 12.88, 41.16 2.66 M6.79 48.3 C19.46 32.76, 31.36 23.49, 46.81 2.26 M6.79 48.3 C22.69 31.75, 32.8 16.81, 46.81 2.26 M9.8 50.92 C22.52 36.91, 30.19 23.76, 51.79 2.62 M9.8 50.92 C27.53 34.02, 43.57 12.69, 51.79 2.62 M14.79 51.28 C27.18 28.19, 44.44 14.36, 57.44 2.23 M14.79 51.28 C29.56 37.15, 43.49 19.45, 57.44 2.23 M20.43 50.89 C26.79 38.27, 38.5 31.39, 62.42 2.59 M20.43 50.89 C31.22 37.39, 41.76 26.37, 62.42 2.59 M25.42 51.25 C38.54 33.23, 54.34 14.43, 67.41 2.95 M25.42 51.25 C36.88 39.12, 44.52 24.69, 67.41 2.95 M30.41 51.61 C40.35 34.75, 51.78 22.4, 73.05 2.55 M30.41 51.61 C43.52 35.33, 54.55 20.43, 73.05 2.55 M36.05 51.21 C48.23 39.37, 54.91 24.69, 78.04 2.91 M36.05 51.21 C45.75 38.45, 55.15 25.56, 78.04 2.91 M41.04 51.57 C55.62 32.79, 73.25 18.22, 83.68 2.52 M41.04 51.57 C55.18 33.81, 71.01 15.06, 83.68 2.52 M46.68 51.18 C54 40.48, 63.62 28.22, 88.67 2.88 M46.68 51.18 C62.19 34.31, 75.68 18.01, 88.67 2.88 M51.67 51.54 C62.6 42.17, 67.7 33.19, 94.31 2.48 M51.67 51.54 C69.36 30.9, 85.27 12.76, 94.31 2.48 M57.31 51.15 C69.27 41.64, 75.9 25.58, 99.3 2.84 M57.31 51.15 C70.91 32.95, 86.81 16.54, 99.3 2.84 M62.3 51.51 C74.58 30.65, 97.25 16.13, 104.29 3.2 M62.3 51.51 C73.49 39.03, 82.84 24.12, 104.29 3.2 M67.29 51.87 C81.19 39.27, 99.27 18.21, 109.93 2.81 M67.29 51.87 C80.06 36.84, 90.9 24.84, 109.93 2.81 M72.93 51.47 C92.68 35.04, 101.99 13.33, 114.92 3.17 M72.93 51.47 C86.31 32.78, 102.33 16.38, 114.92 3.17 M77.92 51.83 C93.62 29.75, 111.68 14.52, 121.22 2.02 M77.92 51.83 C90.94 36.93, 105.34 19.81, 121.22 2.02 M83.56 51.44 C89.07 43.75, 97.61 35.42, 124.23 4.64 M83.56 51.44 C100.21 34.77, 113.04 16.62, 124.23 4.64 M88.55 51.8 C101.1 34.99, 118.14 20.19, 127.91 6.51 M88.55 51.8 C102.75 36.65, 113.38 20.91, 127.91 6.51 M94.19 51.4 C107.36 38.62, 118.98 23.4, 128.96 11.4 M94.19 51.4 C102.03 42.97, 107.68 33.07, 128.96 11.4 M99.18 51.76 C103.03 45.54, 117.95 35.11, 128.7 17.8 M99.18 51.76 C107.59 41.49, 114.55 33.85, 128.7 17.8 M104.16 52.12 C113.63 44.86, 117.71 37.93, 129.09 23.44 M104.16 52.12 C110.96 42.64, 121.66 31.1, 129.09 23.44 M109.81 51.73 C112.14 43.71, 120.71 36.82, 128.83 29.84 M109.81 51.73 C115.2 49.06, 118.54 42.87, 128.83 29.84 M116.11 50.58 C117.91 46.67, 123.55 42.92, 128.57 36.24 M116.11 50.58 C119.75 48.05, 121.68 44.74, 128.57 36.24" stroke="#d0bfff" stroke-width="0.5" fill="none"></path><path d="M12.42 0 C47.38 -1.74, 75.72 -4.24, 114.75 0 M12.42 0 C44.25 -0.82, 74.89 1.69, 114.75 0 M114.75 0 C122.41 -3.69, 126.02 6.74, 127.17 12.42 M114.75 0 C126.54 0.45, 131.47 3.63, 127.17 12.42 M127.17 12.42 C129.59 19.37, 125.43 20.59, 127.17 37.27 M127.17 12.42 C128.94 17.12, 126.97 26.38, 127.17 37.27 M127.17 37.27 C125.41 43.55, 122.67 47.66, 114.75 49.69 M127.17 37.27 C127.27 42.57, 127.38 45.33, 114.75 49.69 M114.75 49.69 C96.08 48.01, 69.61 44.83, 12.42 49.69 M114.75 49.69 C90.37 48.35, 64.9 50.53, 12.42 49.69 M12.42 49.69 C6.98 47.92, 2.18 42.75, 0 37.27 M12.42 49.69 C0.17 52.9, -2.38 44.98, 0 37.27 M0 37.27 C-4.05 34.13, -4.1 25.86, 0 12.42 M0 37.27 C1.52 31.96, -1.35 25.46, 0 12.42 M0 12.42 C0.71 7.12, 5.87 1.51, 12.42 0 M0 12.42 C-4.01 1.66, -0.18 -0.28, 12.42 0" stroke="#6741d9" stroke-width="1" fill="none"></path></g><g transform="translate(1206.3737487792969 186.17434338210933) rotate(0 41.1376953125 11.5)"><text x="41.1376953125" y="0" font-family="Helvetica, Segoe UI Emoji" font-size="20px" fill="#6741d9" text-anchor="middle" style="white-space: pre;" direction="ltr" dominant-baseline="text-before-edge">container</text></g><g stroke-linecap="round" transform="translate(1187.0700378417969 251.60403088210933) rotate(0 63.5859375 24.84375)"><path d="M4.94 1.64 C4.94 1.64, 4.94 1.64, 4.94 1.64 M4.94 1.64 C4.94 1.64, 4.94 1.64, 4.94 1.64 M0.74 12.57 C5.81 5.64, 10.85 5.23, 11.24 0.5 M0.74 12.57 C2.96 10.08, 4.46 7.88, 11.24 0.5 M0.48 18.97 C3.46 14.39, 8.59 4.71, 16.88 0.1 M0.48 18.97 C2.78 13.78, 6.94 9.77, 16.88 0.1 M0.22 25.37 C4.84 18.64, 19.35 9.59, 21.87 0.46 M0.22 25.37 C7.28 15.48, 17.6 9.29, 21.87 0.46 M0.61 31.01 C14.98 15.89, 18.27 3.74, 27.51 0.07 M0.61 31.01 C7.94 23.52, 14.34 13.63, 27.51 0.07 M0.35 37.41 C9.6 26.06, 22.09 19.27, 32.5 0.43 M0.35 37.41 C8.64 28.25, 19.49 16.6, 32.5 0.43 M1.4 42.3 C11.17 34.75, 16.65 28.69, 37.49 0.79 M1.4 42.3 C12.15 33.93, 17.77 23.43, 37.49 0.79 M3.11 46.43 C17.42 29.19, 31.6 10.78, 43.13 0.39 M3.11 46.43 C15.07 31.49, 27.11 19.86, 43.13 0.39 M6.79 48.3 C24.99 29.86, 32.31 14.82, 48.12 0.75 M6.79 48.3 C17.95 35.32, 26.84 22.93, 48.12 0.75 M11.12 49.41 C30.07 33.21, 46.41 8.68, 53.76 0.36 M11.12 49.41 C25.41 27.98, 42.44 11.41, 53.76 0.36 M16.76 49.02 C32.71 37.09, 46.72 17.63, 58.75 0.72 M16.76 49.02 C24.44 37.19, 35.07 28.25, 58.75 0.72 M21.75 49.38 C32.37 34.33, 43.41 23.84, 64.39 0.32 M21.75 49.38 C36.15 31.36, 51.54 13.34, 64.39 0.32 M27.39 48.98 C40.4 37.64, 44.87 21.23, 69.38 0.68 M27.39 48.98 C38.23 33.98, 49.82 21.05, 69.38 0.68 M32.38 49.34 C46.02 32.4, 55.04 17.59, 74.36 1.04 M32.38 49.34 C43.44 36.89, 52.13 23.4, 74.36 1.04 M37.36 49.7 C46.6 36.32, 54.86 22.64, 80.01 0.65 M37.36 49.7 C53.05 31.01, 69.91 14.47, 80.01 0.65 M43.01 49.31 C55.88 31.61, 71.9 12.11, 84.99 1.01 M43.01 49.31 C51.53 38.5, 60.93 27.09, 84.99 1.01 M47.99 49.67 C64.66 31.8, 77.63 15.32, 90.64 0.61 M47.99 49.67 C58.15 39.99, 65.41 30.09, 90.64 0.61 M53.64 49.28 C72.39 28.56, 86.91 12.16, 95.62 0.97 M53.64 49.28 C64.98 38.32, 73.35 24.47, 95.62 0.97 M58.62 49.64 C71.89 30.28, 88.85 14.56, 101.27 0.58 M58.62 49.64 C73.01 29.41, 92.62 12.63, 101.27 0.58 M64.27 49.24 C76.21 37.58, 83.93 20.37, 106.25 0.94 M64.27 49.24 C78.32 34.94, 94.18 16.57, 106.25 0.94 M69.25 49.6 C83.1 33.7, 92.45 23.87, 111.24 1.3 M69.25 49.6 C87.01 32.35, 99.75 12.2, 111.24 1.3 M74.24 49.96 C86.24 30.06, 103.24 14.56, 116.88 0.91 M74.24 49.96 C90.43 29.16, 107.83 11.91, 116.88 0.91 M79.88 49.57 C91.99 36.12, 107.04 17.69, 121.22 2.02 M79.88 49.57 C86.81 40.47, 95.43 31.31, 121.22 2.02 M84.87 49.93 C102.7 35.01, 112.07 17.44, 124.89 3.89 M84.87 49.93 C98.31 32.66, 114.24 16.73, 124.89 3.89 M90.51 49.53 C104.93 34.73, 112.27 19.24, 126.6 8.02 M90.51 49.53 C104.09 35.01, 116.99 19.23, 126.6 8.02 M95.5 49.89 C103.97 42.61, 107.46 31.78, 127.65 12.91 M95.5 49.89 C101.87 41.94, 113.66 31.74, 127.65 12.91 M100.49 50.25 C107.74 39.9, 112.59 35.04, 127.39 19.31 M100.49 50.25 C109.15 41.86, 115.38 33.57, 127.39 19.31 M106.13 49.86 C110.59 41.87, 122.3 29.93, 127.13 25.71 M106.13 49.86 C110.7 41.98, 118.2 34.85, 127.13 25.71 M111.12 50.22 C117.17 50.21, 118.91 43.51, 126.86 32.11 M111.12 50.22 C114.68 45.05, 120.24 40.1, 126.86 32.11 M116.76 49.82 C119.99 48.77, 120.39 46.48, 127.26 37.75 M116.76 49.82 C121.49 45.57, 125.4 39.69, 127.26 37.75" stroke="#d0bfff" stroke-width="0.5" fill="none"></path><path d="M12.42 0 C44.41 -1.57, 74.04 3.45, 114.75 0 M12.42 0 C42.84 2.11, 70.85 2.46, 114.75 0 M114.75 0 C122.58 -3.51, 124.66 7.18, 127.17 12.42 M114.75 0 C126.17 1.93, 125.52 1.41, 127.17 12.42 M127.17 12.42 C130.54 15.19, 126.59 27.08, 127.17 37.27 M127.17 12.42 C125.91 18.82, 125.63 27.03, 127.17 37.27 M127.17 37.27 C123.38 42.4, 120.67 47.41, 114.75 49.69 M127.17 37.27 C131.75 44.96, 123.22 45.44, 114.75 49.69 M114.75 49.69 C89.96 46.67, 62.99 51.03, 12.42 49.69 M114.75 49.69 C75.39 49.08, 40.23 49.77, 12.42 49.69 M12.42 49.69 C3.65 48.09, 3.14 45.99, 0 37.27 M12.42 49.69 C-0.07 53.51, -4.26 47.29, 0 37.27 M0 37.27 C3.42 33.06, -2.33 26.46, 0 12.42 M0 37.27 C0.39 27.63, -1.45 19.6, 0 12.42 M0 12.42 C-0.25 6.42, 2.28 0.54, 12.42 0 M0 12.42 C3.08 4, 5.77 2.78, 12.42 0" stroke="#6741d9" stroke-width="1" fill="none"></path></g><g transform="translate(1209.5182800292969 264.9477808821093) rotate(0 41.1376953125 11.5)"><text x="41.1376953125" y="0" font-family="Helvetica, Segoe UI Emoji" font-size="20px" fill="#6741d9" text-anchor="middle" style="white-space: pre;" direction="ltr" dominant-baseline="text-before-edge">container</text></g><g stroke-linecap="round" transform="translate(1342.3239440917969 251.47121838210933) rotate(0 63.5859375 24.84375)"><path d="M4.94 1.64 C4.94 1.64, 4.94 1.64, 4.94 1.64 M4.94 1.64 C4.94 1.64, 4.94 1.64, 4.94 1.64 M2.06 11.06 C3.04 5.75, 10.82 2.23, 11.24 0.5 M2.06 11.06 C5.06 9.41, 7.36 5.5, 11.24 0.5 M1.79 17.46 C8.24 15.72, 5.95 5.51, 14.91 2.37 M1.79 17.46 C4.25 10.85, 10.19 8.52, 14.91 2.37 M2.19 23.1 C3.55 15.16, 12.59 7.34, 20.56 1.97 M2.19 23.1 C7.58 16.14, 11.85 13.5, 20.56 1.97 M1.93 29.5 C15.44 15.83, 19.52 6.92, 25.54 2.33 M1.93 29.5 C8.64 22.79, 11.99 15.57, 25.54 2.33 M2.32 35.14 C13.7 23.13, 16.84 16.61, 30.53 2.69 M2.32 35.14 C14.89 20.88, 25.62 9.85, 30.53 2.69 M2.06 41.54 C13.84 31.7, 23.79 18.64, 36.18 2.3 M2.06 41.54 C14.56 26.04, 25 11.9, 36.18 2.3 M3.11 46.43 C10.06 32.85, 19.62 25.92, 41.16 2.66 M3.11 46.43 C13.01 35.7, 19.65 26.37, 41.16 2.66 M6.79 48.3 C16.95 38.36, 27.29 21.81, 46.81 2.26 M6.79 48.3 C18.88 34.68, 28.25 22.89, 46.81 2.26 M9.8 50.92 C24.1 33.2, 38.34 14.78, 51.79 2.62 M9.8 50.92 C19.09 39, 25.64 32.46, 51.79 2.62 M14.79 51.28 C34.45 29.85, 46.16 12.41, 57.44 2.23 M14.79 51.28 C23.37 36.52, 35.15 26.49, 57.44 2.23 M20.43 50.89 C32.43 35.35, 49.41 21.6, 62.42 2.59 M20.43 50.89 C30.51 40.24, 38.57 31.67, 62.42 2.59 M25.42 51.25 C37.12 36.39, 47.25 28.58, 67.41 2.95 M25.42 51.25 C39.2 40.01, 47.09 24.29, 67.41 2.95 M30.41 51.61 C46.39 36.11, 54.96 28.83, 73.05 2.55 M30.41 51.61 C36.91 43.86, 46.08 33.56, 73.05 2.55 M36.05 51.21 C43.82 35.55, 60.24 28.18, 78.04 2.91 M36.05 51.21 C47.23 36.18, 59.21 24.47, 78.04 2.91 M41.04 51.57 C50.7 38.83, 62.94 25.9, 83.68 2.52 M41.04 51.57 C49.09 40.89, 57.5 29.86, 83.68 2.52 M46.68 51.18 C64.73 36.96, 80.14 13.51, 88.67 2.88 M46.68 51.18 C56.12 38.68, 69.2 26.91, 88.67 2.88 M51.67 51.54 C66.94 31.29, 84.88 11.78, 94.31 2.48 M51.67 51.54 C66.6 32.9, 81.44 15.47, 94.31 2.48 M57.31 51.15 C75.69 28.59, 87.59 10.77, 99.3 2.84 M57.31 51.15 C72.56 34.43, 89.11 15.3, 99.3 2.84 M62.3 51.51 C71.53 38.36, 88.25 23.49, 104.29 3.2 M62.3 51.51 C72.65 39.63, 82.19 31.2, 104.29 3.2 M67.29 51.87 C81.25 36.99, 92.8 18.2, 109.93 2.81 M67.29 51.87 C83.95 36.72, 98.65 20, 109.93 2.81 M72.93 51.47 C78.85 44.05, 94.28 30.57, 114.92 3.17 M72.93 51.47 C81.22 40.1, 95.46 26.51, 114.92 3.17 M77.92 51.83 C89.64 39.94, 97.74 20.3, 121.22 2.02 M77.92 51.83 C89.82 36.24, 106.17 16.82, 121.22 2.02 M83.56 51.44 C93.35 37.12, 99.27 31.16, 124.23 4.64 M83.56 51.44 C100.54 33.42, 114.58 19.46, 124.23 4.64 M88.55 51.8 C102.53 32.81, 112.58 21.52, 127.91 6.51 M88.55 51.8 C98.23 40.04, 106.67 30.02, 127.91 6.51 M94.19 51.4 C103 39.89, 120.22 27.85, 128.96 11.4 M94.19 51.4 C104.79 38.48, 116.32 26.89, 128.96 11.4 M99.18 51.76 C110.99 43.12, 117.96 30.66, 128.7 17.8 M99.18 51.76 C108.36 39.83, 118.85 29.53, 128.7 17.8 M104.16 52.12 C109.26 42.88, 119.47 37.16, 129.09 23.44 M104.16 52.12 C112.23 42.85, 123.9 29.4, 129.09 23.44 M109.81 51.73 C115.51 46.01, 120.99 40.33, 128.83 29.84 M109.81 51.73 C117.96 42.36, 122.38 36.79, 128.83 29.84 M116.11 50.58 C119.56 46.32, 125.94 38.46, 128.57 36.24 M116.11 50.58 C121.12 44.87, 122.64 42.46, 128.57 36.24" stroke="#d0bfff" stroke-width="0.5" fill="none"></path><path d="M12.42 0 C42.49 -2.8, 65 -0.29, 114.75 0 M12.42 0 C38.99 -1.82, 64.98 -3.4, 114.75 0 M114.75 0 C123.78 -0.56, 126.81 7.04, 127.17 12.42 M114.75 0 C124.15 2.01, 130.36 4.33, 127.17 12.42 M127.17 12.42 C127.97 19.62, 124.76 23.28, 127.17 37.27 M127.17 12.42 C129.02 21.36, 127.81 32.09, 127.17 37.27 M127.17 37.27 C129.55 47.59, 120.46 53.24, 114.75 49.69 M127.17 37.27 C126.23 44.04, 119.23 46.28, 114.75 49.69 M114.75 49.69 C88.89 52.87, 68.86 47.85, 12.42 49.69 M114.75 49.69 C76.43 48.67, 38.74 48.89, 12.42 49.69 M12.42 49.69 C1.18 46.68, 1.77 46.02, 0 37.27 M12.42 49.69 C8.67 49.83, -1.07 47.29, 0 37.27 M0 37.27 C-1.57 26.65, 2.49 21.8, 0 12.42 M0 37.27 C-1.74 30.94, -1.17 25.01, 0 12.42 M0 12.42 C0.61 0.79, 5.97 -2.38, 12.42 0 M0 12.42 C-1.26 2.37, 0.86 3.89, 12.42 0" stroke="#6741d9" stroke-width="1" fill="none"></path></g><g transform="translate(1364.7721862792969 264.8149683821093) rotate(0 41.1376953125 11.5)"><text x="41.1376953125" y="0" font-family="Helvetica, Segoe UI Emoji" font-size="20px" fill="#6741d9" text-anchor="middle" style="white-space: pre;" direction="ltr" dominant-baseline="text-before-edge">container</text></g><g stroke-linecap="round"><g transform="translate(1024.5700378417969 236.1257772623601) rotate(0 79.38385471075605 -0.13027364498134375)"><path d="M0 0 C26.46 -0.04, 132.31 -0.22, 158.77 -0.26" stroke="#6741d9" stroke-width="1.5" fill="none" stroke-dasharray="1.5 7"></path></g><g transform="translate(1024.5700378417969 236.1257772623601) rotate(0 79.38385471075605 -0.13027364498134375)"><path d="M130.59 10.05 C137.42 7.55, 144.25 5.05, 158.77 -0.26" stroke="#6741d9" stroke-width="1.5" fill="none" stroke-dasharray="1.5 5"></path></g><g transform="translate(1024.5700378417969 236.1257772623601) rotate(0 79.38385471075605 -0.13027364498134375)"><path d="M130.56 -10.47 C137.4 -8, 144.23 -5.52, 158.77 -0.26" stroke="#6741d9" stroke-width="1.5" fill="none" stroke-dasharray="1.5 5"></path></g></g><mask></mask><g transform="translate(142.8658355612556 260.7052114582516) rotate(0 31.6748046875 11.5)"><text x="0" y="0" font-family="Helvetica, Segoe UI Emoji" font-size="20px" fill="#1971c2" text-anchor="start" style="white-space: pre;" direction="ltr" dominant-baseline="text-before-edge">Docker</text></g><g transform="translate(327.54351285422695 194.2723551997858) rotate(0 16.1181640625 11.5)"><text x="0" y="0" font-family="Helvetica, Segoe UI Emoji" font-size="20px" fill="#1971c2" text-anchor="start" style="white-space: pre;" direction="ltr" dominant-baseline="text-before-edge">API</text></g><g stroke-linecap="round"><g transform="translate(251.73378301171545 233.1516538034639) rotate(0 115.22143174723539 -0.08403444534985738)"><path d="M0 0 C38.41 -0.03, 192.04 -0.14, 230.44 -0.17" stroke="#1971c2" stroke-width="1.5" fill="none" stroke-dasharray="1.5 7"></path></g><g transform="translate(251.73378301171545 233.1516538034639) rotate(0 115.22143174723539 -0.08403444534985738)"><path d="M202.26 10.11 C210.23 7.21, 218.2 4.3, 230.44 -0.17" stroke="#1971c2" stroke-width="1.5" fill="none" stroke-dasharray="1.5 5"></path></g><g transform="translate(251.73378301171545 233.1516538034639) rotate(0 115.22143174723539 -0.08403444534985738)"><path d="M202.24 -10.41 C210.22 -7.51, 218.19 -4.62, 230.44 -0.17" stroke="#1971c2" stroke-width="1.5" fill="none" stroke-dasharray="1.5 5"></path></g></g><mask></mask><g transform="translate(1058.9363681378966 198.87933906982767) rotate(0 36.1376953125 11.5)"><text x="0" y="0" font-family="Helvetica, Segoe UI Emoji" font-size="20px" fill="#6741d9" text-anchor="start" style="white-space: pre;" direction="ltr" dominant-baseline="text-before-edge">Manage</text></g></svg>