<?xml version="1.0" encoding="UTF-8" standalone="no"?>
<svg
   version="1.1"
   viewBox="0 0 768 768"
   width="768"
   height="768"
   xmlns="http://www.w3.org/2000/svg"
   xmlns:svg="http://www.w3.org/2000/svg">
  <defs
     id="defs4">
    <style
       id="style1">
      .cls-1 {
        fill: #042b56;
      }

      .cls-1, .cls-2, .cls-3, .cls-4, .cls-5, .cls-6, .cls-7, .cls-8, .cls-9, .cls-10, .cls-11, .cls-12, .cls-13, .cls-14, .cls-15, .cls-16, .cls-17 {
        stroke-width: 0px;
      }

      .cls-2 {
        fill: #fdc939;
      }

      .cls-3 {
        fill: #c0eddf;
      }

      .cls-4 {
        fill: #089ca0;
      }

      .cls-5 {
        fill: none;
      }

      .cls-6 {
        fill: #326ce5;
      }

      .cls-7 {
        fill: #eaeaea;
      }

      .cls-8 {
        fill: url(#linear-gradient);
      }

      .cls-9 {
        fill: #dae9f9;
      }

      .cls-10 {
        fill: #00979b;
      }

      .cls-11 {
        fill: #0cc1d1;
      }

      .cls-12 {
        fill: #f4f4f4;
      }

      .cls-13 {
        fill: #0444b5;
      }

      .cls-14 {
        fill: #97d1ca;
      }

      .cls-15 {
        fill: #e2e2e2;
      }

      .cls-16 {
        fill: url(#linear-gradient-2);
      }

      .cls-17 {
        fill: #fff;
      }
    </style>
    <linearGradient
       id="linear-gradient"
       x1="796"
       y1="2213.2"
       x2="930.20001"
       y2="2290.7"
       gradientTransform="matrix(1,0,0,-1,-256,2552)"
       gradientUnits="userSpaceOnUse">
      <stop
         offset="0"
         stop-color="#cce0f2"
         id="stop1" />
      <stop
         offset=".9"
         stop-color="#dae9f9"
         id="stop2" />
    </linearGradient>
    <linearGradient
       id="linear-gradient-2"
       x1="796"
       y1="1189.2"
       x2="930.20001"
       y2="1266.7"
       gradientTransform="matrix(1,0,0,-1,0,2680)"
       gradientUnits="userSpaceOnUse">
      <stop
         offset="0"
         stop-color="#001f39"
         id="stop3" />
      <stop
         offset=".9"
         stop-color="#042b56"
         id="stop4" />
    </linearGradient>
  </defs>
  <g
     id="g221">
    <path
       class="cls-8"
       d="m 505.5,303.9 c 0.6,0.1 1.2,0.4 1.6,1 l 0.4,0.2 v 0 c 0.5,0.8 0.4,1.8 0,2.6 v 7.1 0 27.7 l 32,18.5 c 0,0 2,0.7 2.9,2.6 0.3,0.6 0.5,1.3 0.5,2 v 35.2 0 3.9 0 17.3 c 0,1.8 -0.6,3.4 -1.7,4.7 L 696.9,336.8 C 687.4,284.4 665.2,236.4 633.5,196.2 l -157.1,90.7 29.1,16.8 z"
       id="path4"
       style="fill:url(#linear-gradient)" />
    <g
       id="g112"
       transform="translate(-256,-128)">
      <g
         id="g220">
        <g
           id="g219">
          <g
             id="g14">
            <path
               class="cls-1"
               d="m 489.1,707.8 h -11.5 l -12.6,-20.2 -4.3,3.1 v 17.1 h -10.2 v -48 h 10.2 v 21.9 l 4,-5.6 13,-16.3 H 489 l -16.7,21.2 16.9,26.7 v 0 z"
               id="path5" />
            <path
               class="cls-1"
               d="m 520.3,707.8 -1.3,-4.7 h -0.5 c -1.1,1.7 -2.6,3 -4.6,4 -2,1 -4.2,1.4 -6.7,1.4 -4.3,0 -7.6,-1.2 -9.7,-3.5 -2.2,-2.3 -3.3,-5.6 -3.3,-10 v -23.9 h 10 v 21.4 c 0,2.6 0.5,4.6 1.4,6 0.9,1.3 2.4,2 4.5,2 2.1,0 4.8,-0.9 6.1,-2.8 1.3,-1.9 1.9,-5 1.9,-9.3 v -17.3 h 10 v 36.7 z"
               id="path6" />
            <path
               class="cls-1"
               d="m 558.9,670.5 c 4.3,0 7.7,1.7 10.2,5.1 2.4,3.4 3.7,8 3.7,13.9 0,5.9 -1.3,10.8 -3.8,14.1 -2.5,3.3 -6,5 -10.3,5 -4.3,0 -7.7,-1.6 -10.1,-4.7 h -0.7 l -1.7,4 h -7.6 v -51.1 h 10 v 11.9 c 0,1.5 0,3.9 -0.4,7.3 h 0.4 c 2.3,-3.6 5.8,-5.4 10.4,-5.4 h -0.1 z m -3.2,8 c -2.5,0 -4.3,0.8 -5.4,2.3 -1.1,1.5 -1.7,4 -1.8,7.5 v 1.1 c 0,3.9 0.6,6.8 1.8,8.5 1.2,1.7 3,2.6 5.6,2.6 2.6,0 3.7,-0.9 4.9,-2.8 1.2,-1.9 1.8,-4.6 1.8,-8.3 0,-3.7 -0.6,-6.3 -1.8,-8.1 -1.2,-1.8 -2.9,-2.7 -5,-2.7 v 0 z"
               id="path7" />
            <path
               class="cls-1"
               d="m 597.6,708.5 c -5.9,0 -10.5,-1.6 -13.8,-4.9 -3.3,-3.3 -5,-7.9 -5,-13.8 0,-5.9 1.5,-10.9 4.6,-14.3 3.1,-3.4 7.3,-5 12.7,-5 5.4,0 9.2,1.5 12.1,4.4 2.9,2.9 4.3,7 4.3,12.2 v 4.9 h -23.7 c 0,2.8 1,5.1 2.5,6.7 1.6,1.6 3.8,2.4 6.6,2.4 2.8,0 4.3,-0.2 6.3,-0.7 2,-0.5 4,-1.2 6.2,-2.2 v 7.7 c -1.8,0.9 -3.6,1.5 -5.6,2 -2,0.4 -4.4,0.6 -7.3,0.6 z m -1.4,-30.9 c -2.1,0 -3.8,0.7 -5,2 -1.2,1.3 -1.9,3.3 -2.1,5.7 h 14 c 0,-2.5 -0.7,-4.4 -1.9,-5.7 -1.2,-1.3 -2.9,-2 -5.1,-2 v 0 z"
               id="path8" />
            <path
               class="cls-1"
               d="m 641.2,670.5 c 1.4,0 2.5,0 3.4,0.3 l -0.8,9.4 c -0.8,-0.2 -1.8,-0.3 -3,-0.3 -3.2,0 -5.7,0.8 -7.5,2.5 -1.8,1.6 -2.7,3.9 -2.7,6.9 V 708 h -10 v -36.7 h 7.6 l 1.5,6.2 h 0.5 c 1.1,-2.1 2.7,-3.7 4.6,-5 1.9,-1.3 4,-1.9 6.3,-1.9 h 0.1 z"
               id="path9" />
            <path
               class="cls-1"
               d="m 685.1,707.8 h -10 v -21.4 c 0,-2.6 -0.5,-4.6 -1.4,-6 -0.9,-1.3 -2.4,-2 -4.5,-2 -2.1,0 -4.8,0.9 -6.1,2.8 -1.3,1.9 -1.9,5 -1.9,9.3 v 17.3 h -10 v -36.7 h 7.6 l 1.3,4.7 h 0.6 c 1.1,-1.8 2.7,-3.1 4.6,-4 2,-0.9 4.2,-1.4 6.7,-1.4 4.3,0 7.5,1.2 9.7,3.5 2.2,2.3 3.3,5.6 3.3,10 v 23.9 z"
               id="path10" />
            <path
               class="cls-1"
               d="m 712,708.5 c -5.9,0 -10.5,-1.6 -13.8,-4.9 -3.3,-3.3 -5,-7.9 -5,-13.8 0,-5.9 1.5,-10.9 4.6,-14.3 3.1,-3.4 7.3,-5 12.7,-5 5.4,0 9.2,1.5 12.1,4.4 2.9,2.9 4.3,7 4.3,12.2 v 4.9 h -23.7 c 0,2.8 1,5.1 2.5,6.7 1.6,1.6 3.8,2.4 6.6,2.4 2.8,0 4.3,-0.2 6.3,-0.7 2,-0.5 4,-1.2 6.2,-2.2 v 7.7 c -1.8,0.9 -3.6,1.5 -5.6,2 -2,0.4 -4.4,0.6 -7.3,0.6 z m -1.4,-30.9 c -2.1,0 -3.8,0.7 -5,2 -1.2,1.3 -1.9,3.3 -2.1,5.7 h 14 c 0,-2.5 -0.7,-4.4 -1.9,-5.7 -1.2,-1.3 -2.9,-2 -5.1,-2 v 0 z"
               id="path11" />
            <path
               class="cls-1"
               d="m 750.5,700.5 c 1.7,0 3.8,-0.4 6.3,-1.1 v 7.4 c -2.5,1.1 -5.6,1.7 -9.2,1.7 -3.6,0 -6.9,-1 -8.7,-3 -1.8,-2 -2.7,-5.1 -2.7,-9.1 v -17.7 h -4.8 v -4.2 l 5.5,-3.3 2.9,-7.7 h 6.4 v 7.8 h 10.3 v 7.5 h -10.3 v 17.7 c 0,1.4 0.4,2.5 1.2,3.1 0.8,0.7 1.9,1 3.2,1 h -0.1 z"
               id="path12" />
            <path
               class="cls-1"
               d="m 780.8,708.5 c -5.9,0 -10.5,-1.6 -13.8,-4.9 -3.3,-3.3 -5,-7.9 -5,-13.8 0,-5.9 1.5,-10.9 4.6,-14.3 3.1,-3.4 7.3,-5 12.7,-5 5.4,0 9.2,1.5 12.1,4.4 2.9,2.9 4.3,7 4.3,12.2 V 692 H 772 c 0,2.8 1,5.1 2.5,6.7 1.6,1.6 3.8,2.4 6.6,2.4 2.8,0 4.3,-0.2 6.3,-0.7 2,-0.5 4,-1.2 6.2,-2.2 v 7.7 c -1.8,0.9 -3.6,1.5 -5.6,2 -2,0.4 -4.4,0.6 -7.3,0.6 z m -1.4,-30.9 c -2.1,0 -3.8,0.7 -5,2 -1.2,1.3 -1.9,3.3 -2.1,5.7 h 14 c 0,-2.5 -0.7,-4.4 -1.9,-5.7 -1.2,-1.3 -2.9,-2 -5.1,-2 v 0 z"
               id="path13" />
            <path
               class="cls-1"
               d="m 829.5,696.9 c 0,3.8 -1.3,6.6 -3.9,8.6 -2.6,2 -6.5,3 -11.7,3 -5.2,0 -4.9,-0.2 -6.8,-0.5 -1.9,-0.4 -3.6,-0.9 -5.3,-1.6 v -8.3 c 1.9,0.9 4,1.6 6.3,2.2 2.3,0.6 4.4,0.9 6.2,0.9 3.6,0 5.4,-1 5.4,-3.1 0,-2.1 -0.2,-1.4 -0.7,-1.9 -0.5,-0.5 -1.3,-1 -2.5,-1.7 -1.2,-0.7 -2.8,-1.3 -4.7,-2.2 -2.8,-1.2 -4.9,-2.3 -6.2,-3.3 -1.3,-1 -2.3,-2.2 -2.9,-3.5 -0.6,-1.3 -0.9,-2.9 -0.9,-4.8 0,-3.3 1.3,-5.8 3.8,-7.6 2.5,-1.8 6.1,-2.7 10.7,-2.7 4.6,0 8.7,1 12.9,2.9 l -3,7.2 c -1.8,-0.8 -3.6,-1.4 -5.2,-1.9 -1.6,-0.5 -3.2,-0.8 -4.9,-0.8 -3,0 -4.4,0.8 -4.4,2.4 0,1.6 0.5,1.7 1.4,2.3 0.9,0.6 3,1.6 6.3,2.9 2.9,1.2 5,2.2 6.3,3.2 1.3,1 2.3,2.2 3,3.5 0.6,1.3 1,2.9 1,4.7 h -0.2 v 0 z"
               id="path14" />
          </g>
          <g
             id="g21">
            <path
               class="cls-1"
               d="m 549.4,750.9 h -1.6 v -17.5 c 0,-1.6 0,-3.2 0.2,-4.9 l -0.5,0.5 c -0.2,0.2 -1.9,1.5 -5.1,4 l -0.9,-1.2 6.5,-4.9 h 1.4 z"
               id="path15" />
            <path
               class="cls-1"
               d="m 584.8,738.8 c 0,4.2 -0.6,7.3 -1.9,9.4 -1.3,2.1 -3.2,3 -5.8,3 -2.6,0 -4.4,-1 -5.7,-3.1 -1.3,-2.1 -2,-5.2 -2,-9.3 0,-4.1 0.6,-7.3 1.9,-9.3 1.3,-2 3.2,-3 5.8,-3 2.6,0 4.5,1 5.8,3.1 1.3,2.1 2,5.1 2,9.2 v 0 z m -13.7,0 c 0,3.7 0.5,6.5 1.5,8.2 1,1.7 2.5,2.7 4.4,2.7 1.9,0 3.6,-0.9 4.5,-2.8 0.9,-1.9 1.4,-4.6 1.4,-8.2 0,-3.6 -0.5,-6.2 -1.4,-8.1 -0.9,-1.9 -2.5,-2.8 -4.5,-2.8 -2,0 -3.6,0.9 -4.5,2.8 -0.9,1.9 -1.4,4.5 -1.4,8.1 v 0 z"
               id="path16" />
            <path
               class="cls-1"
               d="m 624.4,740 7,-13.1 h 1.8 l -8,14.7 v 9.3 h -1.7 v -9.1 l -8,-14.8 h 1.9 l 7,13.1 v 0 z"
               id="path17" />
            <path
               class="cls-1"
               d="m 659.8,750.9 h -13.1 v -24 h 13.1 v 1.5 h -11.4 v 9.1 h 10.8 v 1.5 h -10.8 v 10.3 h 11.4 v 1.5 0 z"
               id="path18" />
            <path
               class="cls-1"
               d="m 686.9,742.4 h -9.7 l -3.3,8.5 H 672 l 9.6,-24.1 h 1.1 l 9.4,24.1 h -1.9 z m -9.1,-1.5 h 8.6 l -3.3,-8.6 c -0.3,-0.7 -0.6,-1.6 -1,-2.8 -0.3,1 -0.6,2 -1,2.9 l -3.4,8.6 h 0.1 z"
               id="path19" />
            <path
               class="cls-1"
               d="m 707.3,740.4 v 10.4 h -1.7 v -24 h 5.7 c 3,0 5.2,0.5 6.6,1.6 1.4,1.1 2.1,2.8 2.1,5 0,2.2 -0.4,3 -1.3,4.1 -0.9,1.1 -2.1,1.9 -3.9,2.4 l 6.5,10.9 h -2 l -6.2,-10.4 h -6 z m 0,-1.4 h 4.6 c 2,0 3.6,-0.5 4.7,-1.4 1.1,-0.9 1.7,-2.2 1.7,-4 0,-1.8 -0.5,-3.2 -1.6,-4 -1.1,-0.8 -2.9,-1.2 -5.3,-1.2 h -4 V 739 Z"
               id="path20" />
            <path
               class="cls-1"
               d="m 748.9,744.7 c 0,2 -0.7,3.6 -2.2,4.8 -1.5,1.2 -3.4,1.8 -5.9,1.8 -2.5,0 -5.2,-0.3 -6.7,-1 v -1.7 c 1.7,0.7 3.9,1.1 6.6,1.1 2.7,0 3.5,-0.5 4.7,-1.4 1.2,-0.9 1.7,-2.1 1.7,-3.6 0,-1.5 -0.2,-1.7 -0.6,-2.3 -0.4,-0.6 -1,-1.1 -1.9,-1.6 -0.9,-0.5 -2.1,-1 -3.8,-1.6 -2.5,-0.8 -4.1,-1.8 -5.1,-2.7 -1,-0.9 -1.4,-2.3 -1.4,-3.9 0,-1.6 0.7,-3.3 2.1,-4.4 1.4,-1.1 3.2,-1.7 5.4,-1.7 2.2,0 4.4,0.4 6.3,1.3 l -0.6,1.4 c -2,-0.8 -3.9,-1.2 -5.7,-1.2 -1.8,0 -3.2,0.4 -4.2,1.2 -1,0.8 -1.6,1.9 -1.6,3.3 0,1.4 0.2,1.6 0.5,2.2 0.3,0.6 0.9,1.1 1.6,1.5 0.7,0.4 2,1 3.8,1.6 1.9,0.6 3.3,1.3 4.2,1.9 0.9,0.6 1.6,1.3 2.1,2.1 0.5,0.8 0.6,1.7 0.6,2.8 h 0.1 z"
               id="path21" />
          </g>
          <g
             id="g111">
            <path
               class="cls-3"
               d="m 638.7,576.5 c -3,0 -6,-0.9 -8.7,-2.4 v 0 l -148.3,-85.5 -1.3,0.8 h -0.1 c -0.1,0.2 -0.3,0.3 -0.4,0.5 -0.8,0.7 -1.3,1.7 -1.3,2.8 v 56.9 c 0,1.8 0.7,3.6 1.8,4.9 l 145.2,84.6 c 4.1,2.4 8.7,3.6 13.3,3.6 v -66.1 h -0.2 z"
               id="path22" />
            <polygon
               class="cls-5"
               points="662.8,616.9 649.9,624.4 "
               id="polygon22" />
            <path
               class="cls-5"
               d="m 641.1,576.4 c 1.6,-0.2 3.2,-0.6 4.8,-1.2 -1.5,0.6 -3.2,1 -4.8,1.2 z"
               id="path23" />
            <path
               class="cls-5"
               d="m 630.6,574.5 c 1.2,0.6 2.3,1.1 3.6,1.4 -1.2,-0.3 -2.4,-0.8 -3.6,-1.4 z"
               id="path24" />
            <path
               class="cls-5"
               d="m 647.1,574.7 c 0.4,-0.2 0.8,-0.3 1.1,-0.6 v 0 c -0.4,0.2 -0.8,0.4 -1.1,0.6 z"
               id="path25" />
            <path
               class="cls-5"
               d="m 642.5,627 v 0 c 0.6,0 1.3,-0.2 1.9,-0.4 -0.6,0.2 -1.3,0.3 -1.9,0.4 z"
               id="path26" />
            <path
               class="cls-5"
               d="m 645.8,620.7 c 1.1,-0.4 2.1,-0.9 3.1,-1.4 l 13.9,-8 -13.9,8 c -1,0.6 -2.1,1.1 -3.1,1.4 z"
               id="path27" />
            <polygon
               class="cls-5"
               points="795.6,489.2 793.3,490.5 795.4,489.3 "
               id="polygon27" />
            <polygon
               class="cls-5"
               points="666.5,614.8 777.7,550.8 777.7,545.1 777.7,541.2 666.5,605.2 666.5,609.2 "
               id="polygon28" />
            <path
               class="cls-5"
               d="m 639.2,621.9 c 1.1,0 2.2,0 3.3,-0.3 0.6,0 1.1,-0.2 1.7,-0.4 -0.6,0 -1.1,0.3 -1.7,0.4 -1.1,0.2 -2.2,0.3 -3.3,0.3 z"
               id="path28" />
            <path
               class="cls-5"
               d="m 638.7,576.5 h 2.5 z"
               id="path29" />
            <path
               class="cls-5"
               d="M 637.5,627.2 Z"
               id="path30" />
            <path
               class="cls-5"
               d="m 641.1,627.1 h -0.4 z"
               id="path31" />
            <path
               class="cls-14"
               d="m 777.7,541.2 v -3.7 c 0,-0.9 -0.3,-1.1 -0.3,-1.1 0,0 -0.2,-0.2 -0.5,0 l -107.6,61.8 c -1.4,0.8 -2.7,3.3 -2.7,5.3 v 1.9 0 l 111.2,-64.1 h -0.1 z"
               id="path32" />
            <path
               class="cls-14"
               d="m 793.3,490.5 -145.1,83.7 v 0 c -0.4,0.2 -0.8,0.4 -1.1,0.6 -1.1,0.6 -2.3,1 -3.5,1.3 -0.8,0.2 -1.6,0.3 -2.4,0.4 h -2.5 v 29 h 0.4 -0.4 v 12.9 h 0.5 c 1.1,0 2.2,0 3.3,-0.4 1.6,-0.3 3.2,-0.9 4.7,-1.8 l 15.6,-9 v -4 c 0,-3.3 1.9,-6.9 4.5,-8.4 L 774.9,533 c 1.4,-0.8 2.9,-0.9 4.2,-0.2 1.4,0.8 2.1,2.4 2.1,4.5 v 1.6 l 17.6,-10.2 v -35.2 c 0,-0.7 -0.2,-1.4 -0.5,-2 -0.9,-1.9 -2.9,-2.6 -2.9,-2.6 h -0.2 c 0,0.1 -2,1.3 -2,1.3 v 0.2 h 0.1 z"
               id="path33" />
            <path
               class="cls-14"
               d="m 666.5,617.1 c 0,0.9 0.3,1.3 0.3,1.3 0,0 0.2,0 0.5,-0.2 l 107.6,-61.8 c 1.4,-0.8 2.7,-3.3 2.7,-5.3 v -0.5 l -111.2,64.1 v 2.3 h 0.1 z"
               id="path34" />
            <path
               class="cls-14"
               d="m 776.8,559.6 -107.7,61.8 c -0.8,0.4 -1.6,0.7 -2.3,0.7 -0.7,0 -1.3,-0.2 -1.8,-0.5 -1.4,-0.8 -2.1,-2.4 -2.1,-4.5 v -0.2 l -13,7.5 c -0.6,0.3 -1.2,0.6 -1.8,0.9 -1.2,0.5 -2.5,1 -3.7,1.3 -0.6,0.2 -1.3,0.3 -1.9,0.4 v 0 c -0.4,0 -0.9,0 -1.3,0.2 h -2.5 v 15.4 c 4.6,0 9.2,-1.2 13.3,-3.6 l 145.1,-84 c 1.2,-1.4 1.9,-3.1 1.9,-5 v -11.6 l -17.6,10.2 v 2.5 c 0,3.3 -1.9,6.9 -4.5,8.4 h -0.1 z"
               id="path35" />
            <path
               class="cls-5"
               d="m 638.7,576.5 v 0 c -1.5,0 -3,-0.2 -4.5,-0.6 -1.2,-0.3 -2.4,-0.8 -3.6,-1.4 -0.2,0 -0.5,-0.2 -0.7,-0.3 v 0 c 2.7,1.6 5.7,2.4 8.7,2.4 v 0 z"
               id="path36" />
            <polygon
               class="cls-5"
               points=""
               id="polygon36" />
            <polygon
               class="cls-14"
               points=""
               id="polygon37" />
            <path
               class="cls-14"
               d="m 629.9,574.1 v 0 c 2.7,1.6 5.7,2.4 8.7,2.4 v 0 c -3,0 -6,-0.9 -8.7,-2.4 z"
               id="path37" />
            <path
               class="cls-5"
               d="m 638.7,576.5 h 2.5 c 0.8,0 1.6,-0.2 2.4,-0.4 1.2,-0.3 2.4,-0.8 3.5,-1.3 0.4,-0.2 0.8,-0.3 1.1,-0.6 v 0 c -0.7,0.4 -1.5,0.8 -2.3,1.1 -1.5,0.6 -3.2,1 -4.8,1.2 h -2.5 v 0 z"
               id="path38" />
            <path
               class="cls-14"
               d="m 647.1,574.7 c -1.1,0.6 -2.3,1 -3.5,1.3 1.2,-0.3 2.4,-0.8 3.5,-1.3 z"
               id="path39" />
            <path
               class="cls-7"
               d="m 515,470.5 36.6,21.1 C 533.8,481.4 519,472.8 514.9,470.5 Z"
               id="path40" />
            <path
               class="cls-7"
               d="m 763.6,479.1 c 0,1.5 -0.6,2.9 -1.6,4 l -113.6,65.7 c -3,1.7 -6.3,2.6 -9.7,2.6 v 25.1 h 2.5 c 1.6,-0.2 3.2,-0.6 4.8,-1.2 0.8,-0.3 1.5,-0.7 2.3,-1.1 v 0 l 141.8,-81.8 3.3,-1.9 2.3,-1.3 -32,-18.5 v 8.4 0 z"
               id="path41" />
            <path
               class="cls-7"
               d="m 548.9,462.3 c 9.2,5.3 5,12.7 14.3,18 9.2,5.3 13.5,-2 22.7,3.3 9.2,5.3 5,12.7 14.3,18 9.2,5.3 13.5,-2 22.7,3.3 9.1,5.2 5.9,18 15.8,18.5 V 401.2 c -3.3,0 -6.7,0.7 -9.7,2.4 l -98.9,57.1 c 6.7,1.7 10.9,-2.8 18.7,1.7 h 0.1 z"
               id="path42" />
            <path
               class="cls-7"
               d="m 639,523.3 v 0 c 10.6,0 7.1,-13.2 16.3,-18.5 9.2,-5.3 13.4,2 22.6,-3.2 9.2,-5.3 5,-12.6 14.2,-17.9 9.2,-5.3 13.4,2 22.6,-3.2 9.2,-5.3 5,-12.6 14.2,-17.9 7.5,-4.3 11.6,-0.3 17.9,-1.4 l -99.7,-57.5 c -2.7,-1.5 -5.7,-2.3 -8.6,-2.4 v 0 122.2 h 0.4 v -0.2 0 z"
               id="path43" />
            <path
               class="cls-7"
               d="m 630.6,574.5 c 1.2,0.6 2.3,1.1 3.6,1.4 1.5,0.4 3,0.6 4.5,0.6 v -25.1 c -3.3,0 -6.7,-0.9 -9.7,-2.6 L 515.1,482.4 c -0.8,-1.1 -1.4,-2.3 -1.4,-3.7 v -8.6 l -32.2,18.6 148.3,85.5 c 0.2,0 0.5,0.2 0.7,0.3 z"
               id="path44" />
            <polygon
               class="cls-7"
               points="629.9,574.1 481.6,488.6 "
               id="polygon44" />
            <polygon
               class="cls-7"
               points="790,492.4 648.2,574.1 793.3,490.5 "
               id="polygon45" />
            <polygon
               class="cls-7"
               points="629.9,574.1 481.6,488.6 "
               id="polygon46" />
            <path
               class="cls-7"
               d="m 629.9,574.1 v 0 c 0.2,0 0.5,0.2 0.7,0.3 -0.2,0 -0.5,-0.2 -0.7,-0.3 z"
               id="path46" />
            <polygon
               class="cls-7"
               points="629.9,574.1 481.6,488.6 "
               id="polygon47" />
            <path
               class="cls-10"
               d="m 639.1,627.2 h -0.5 2.1 -1.6 c -0.6,0 0,0 0,0 z"
               id="path47" />
            <path
               class="cls-10"
               d="m 632,626 c 1.2,0.4 2.5,0.7 3.8,0.9 0.5,0 1.1,0 1.6,0.2 -0.5,0 -1.1,0 -1.6,-0.2 -1.3,-0.2 -2.6,-0.5 -3.8,-0.9 z"
               id="path48" />
            <path
               class="cls-10"
               d="m 642.5,627 c -0.4,0 -0.9,0 -1.3,0.2 0.5,0 1,0 1.3,-0.2 z"
               id="path49" />
            <path
               class="cls-10"
               d="m 648.1,625.3 c -1.2,0.5 -2.5,1 -3.7,1.3 1.3,-0.3 2.5,-0.7 3.7,-1.3 z"
               id="path50" />
            <path
               class="cls-10"
               d="m 637.5,627.2 h 1.2 z"
               id="path51" />
            <polygon
               class="cls-13"
               points="777.7,545.1 781.3,543 798.9,532.8 781.3,543 "
               id="polygon51" />
            <polygon
               class="cls-13"
               points="662.8,607.3 647.2,616.3 "
               id="polygon52" />
            <path
               class="cls-14"
               d="m 639.1,605.6 h -0.4 z"
               id="path52" />
            <path
               class="cls-14"
               d="m 637.2,605.5 h 1.5 z"
               id="path53" />
            <polygon
               class="cls-10"
               points="763.6,465.7 759.2,468.2 763.6,470.7 "
               id="polygon53" />
            <path
               class="cls-10"
               d="m 646.6,533 c -2.3,1.3 -5,2 -7.6,2 h -0.4 v 4.4 h 0.4 c 2.8,0 5.6,-0.7 8.2,-2.2 l 116.4,-66.5 v -0.2 l -4.3,-2.5 -112.6,64.9 h -0.1 z"
               id="path54" />
            <path
               class="cls-10"
               d="m 630.9,537.3 -79.3,-45.7 c 34.2,19.7 79.3,45.7 79.3,45.7 z"
               id="path55" />
            <path
               class="cls-6"
               d="m 520.9,466 -6.4,-3.7 c -0.2,-0.1 -0.5,-0.2 -0.7,-0.2 v 3.6 l 3.8,2.2 z"
               id="path56" />
            <path
               class="cls-13"
               d="m 763.3,462 -7.4,4.2 -111,63.9 c -1.8,1.1 -3.9,1.6 -5.9,1.6 -2,0 -0.2,0 -0.4,0 v 3.3 h 0.4 c 0.2,0 0,0 0,0 2.6,0 5.2,-0.7 7.6,-2 l 112.6,-64.9 4.3,-2.5 v -3.8 h -0.3 v 0.2 z"
               id="path57" />
            <polygon
               class="cls-6"
               points="517.6,467.9 513.8,465.7 514.5,466.1 "
               id="polygon57" />
            <polygon
               class="cls-6"
               points="631.5,533 517.6,467.9 "
               id="polygon58" />
            <polygon
               class="cls-12"
               points="648.2,574.1 795.6,489.2 "
               id="polygon59" />
            <path
               class="cls-13"
               d="m 766.1,487.2 c 0,3.7 3,6.7 6.7,6.7 3.7,0 6.7,-3 6.7,-6.7 0,-3.7 -3,-6.7 -6.7,-6.7 -3.7,0 -6.7,3 -6.7,6.7 z"
               id="path59" />
            <path
               class="cls-13"
               d="m 726.6,511.1 c 0,3.7 3,6.7 6.7,6.7 3.7,0 6.7,-3 6.7,-6.7 0,-3.7 -3,-6.7 -6.7,-6.7 -3.7,0 -6.7,3 -6.7,6.7 z"
               id="path60" />
            <path
               class="cls-13"
               d="m 682.5,535.6 c 0,3.7 3,6.7 6.7,6.7 3.7,0 6.7,-3 6.7,-6.7 0,-3.7 -3,-6.7 -6.7,-6.7 -3.7,0 -6.7,3 -6.7,6.7 z"
               id="path61" />
            <circle
               class="cls-6"
               cx="638.70001"
               cy="561.40002"
               r="6.6999998"
               id="circle61" />
            <path
               class="cls-6"
               d="m 587.1,537.9 c 0,3.7 3,6.7 6.7,6.7 3.7,0 6.7,-3 6.7,-6.7 0,-3.7 -3,-6.7 -6.7,-6.7 -3.7,0 -6.7,3 -6.7,6.7 z"
               id="path62" />
            <path
               class="cls-6"
               d="m 540.2,511.6 c 0,3.7 3,6.7 6.7,6.7 3.7,0 6.7,-3 6.7,-6.7 0,-3.7 -3,-6.7 -6.7,-6.7 -3.7,0 -6.7,3 -6.7,6.7 z"
               id="path63" />
            <path
               class="cls-6"
               d="m 496.5,486.2 c 0,3.7 3,6.7 6.7,6.7 3.7,0 6.7,-3 6.7,-6.7 0,-3.7 -3,-6.7 -6.7,-6.7 -3.7,0 -6.7,3 -6.7,6.7 z"
               id="path64" />
            <path
               class="cls-14"
               d="m 665.5,620.7 c -1,-0.6 -1.6,-1.9 -1.6,-3.6 v -13.8 c 0,-2.9 1.7,-6.2 4,-7.5 L 775.5,534 c 1.1,-0.6 2.2,-0.7 3.1,-0.2 1,0.6 1.6,1.9 1.6,3.6 v 13.8 c 0,2.9 -1.7,6.2 -4,7.5 l -107.7,61.8 c -0.6,0.4 -1.2,0.5 -1.8,0.5 -0.6,0 -0.9,0 -1.3,-0.3 z"
               id="path65" />
            <g
               id="g69">
              <path
                 class="cls-11"
                 d="m 769.7,545.8 c 0,1.7 1.2,2.4 2.6,1.5 1.4,-0.9 2.6,-2.9 2.6,-4.6 0,-1.7 -1.2,-2.4 -2.6,-1.5 -1.5,0.8 -2.6,2.9 -2.6,4.6 z"
                 id="path66" />
              <path
                 class="cls-11"
                 d="m 769.7,554.4 c 0,1.7 1.2,2.4 2.6,1.5 1.4,-0.9 2.6,-2.9 2.6,-4.6 0,-1.7 -1.2,-2.4 -2.6,-1.5 -1.5,0.8 -2.6,2.9 -2.6,4.6 z"
                 id="path67" />
              <path
                 class="cls-4"
                 d="m 771,554.8 c 1.5,-0.8 2.6,-2.9 2.6,-4.6 0,-1.7 0,-0.6 0,-0.8 0.9,0 1.4,0.7 1.4,1.9 0,1.7 -1.2,3.7 -2.6,4.6 -1.2,0.7 -2.2,0.3 -2.5,-0.7 0.4,0 0.8,0 1.2,-0.3 H 771 Z"
                 id="path68" />
              <path
                 class="cls-4"
                 d="m 771,546.3 c 1.5,-0.8 2.6,-2.9 2.6,-4.6 0,-1.7 0,-0.6 0,-0.8 0.9,0 1.4,0.7 1.4,1.9 0,1.7 -1.2,3.7 -2.6,4.6 -1.2,0.7 -2.2,0.3 -2.5,-0.7 0.4,0 0.8,0 1.2,-0.3 H 771 Z"
                 id="path69" />
            </g>
            <path
               class="cls-10"
               d="m 672.8,612.4 2.1,-1.2 c 0.6,-0.4 1.2,-1.4 1.2,-2.2 v -9.9 c 0,-0.9 -0.5,-1.2 -1.2,-0.9 l -2.1,1.2 c -0.6,0.4 -1.2,1.4 -1.2,2.2 v 9.9 c 0,0.9 0.5,1.2 1.2,0.9 z"
               id="path70" />
            <path
               class="cls-5"
               d="m 778.7,551.2 c 0,2.4 -1.5,5.2 -3.2,6.2 l -107.6,61.8 c -0.4,0.3 -1.1,0.5 -1.6,0.2 -0.5,-0.3 -0.9,-1.2 -0.9,-2.2 v -7.4 l 113.3,-65.3 v 6.8 0 z"
               id="path71" />
            <path
               class="cls-5"
               d="m 668.6,597.2 107.7,-61.8 c 0.4,-0.3 1.1,-0.5 1.6,-0.2 0.5,0.3 0.9,1.2 0.9,2.2 v 7 l -113.3,65.3 v -6.4 c 0,-2.4 1.5,-5.2 3.2,-6.2 h -0.1 z"
               id="path72" />
            <path
               class="cls-5"
               d="m 724.6,540.9 c 1.3,-2 3,-3.9 5.4,-5.6 -2.4,1.7 -4.1,3.6 -5.4,5.6 z"
               id="path73" />
            <path
               class="cls-3"
               d="m 630.9,537.3 c 0,0 -116.7,-67.3 -116.9,-67.4 h -0.2 c 0,-0.1 0,8.7 0,8.7 0,1.4 0.5,2.7 1.4,3.7 l 113.9,66.4 c 3,1.7 6.3,2.6 9.7,2.6 v -11.9 c -2.7,0 -5.4,-0.8 -7.8,-2.1 z"
               id="path74" />
            <path
               class="cls-14"
               d="M 648.4,548.8 762,483.1 c 1,-1.1 1.6,-2.5 1.6,-4 v -8.2 l -116.4,66.5 c -2.5,1.5 -5.3,2.2 -8.2,2.2 h -0.4 v 11.9 c 3.3,0 6.7,-0.9 9.7,-2.6 h 0.1 z"
               id="path75" />
            <path
               class="cls-14"
               d="m 751.7,459.3 c -1.7,1 -3.3,1.5 -4.8,1.8 -6.2,1.1 -10.4,-2.9 -17.9,1.4 -9.2,5.3 -5,12.6 -14.2,17.9 -9.2,5.3 -13.4,-2 -22.6,3.2 -9.2,5.3 -5,12.6 -14.2,17.9 -9.2,5.3 -13.4,-2 -22.6,3.2 -9.2,5.3 -5.7,18.5 -16.3,18.5 h -0.5 v 8.4 h 0.4 c 2,0 4.1,-0.5 5.9,-1.6 l 111,-63.9 7.4,-4.2 h 0.3 V 443 c -6.1,5.1 -3.6,11.5 -11.8,16.3 z"
               id="path76" />
            <path
               class="cls-3"
               d="m 622.8,504.8 c -9.2,-5.3 -13.5,2 -22.7,-3.3 -9.2,-5.3 -5,-12.7 -14.3,-18 -9.2,-5.3 -13.5,2 -22.7,-3.3 -9.2,-5.3 -5,-12.7 -14.3,-18 -7.8,-4.5 -12,0 -18.7,-1.7 -1.2,-0.3 -2.5,-0.8 -4,-1.6 -8.5,-4.9 -5.6,-11.5 -12.4,-16.7 V 462 c 0.2,0 0.5,0 0.7,0.2 l 6.4,3.7 112.2,64.2 c 1.7,1 3.6,1.5 5.6,1.6 v -8.4 c -10,-0.5 -6.8,-13.3 -15.8,-18.5 z"
               id="path77" />
            <path
               class="cls-11"
               d="m 631.5,533 -113.9,-65.2 -3.1,-1.8 -0.7,-0.4 v 4.1 h 0.2 c 0.2,0.2 0.5,0.4 0.9,0.6 4.1,2.4 18.9,10.9 36.7,21.1 l 79.3,45.7 c 2.4,1.4 5.1,2.1 7.8,2.1 v -4.4 c -2.5,0 -5,-0.7 -7.2,-2 z"
               id="path78" />
            <path
               class="cls-6"
               d="m 638.7,535 v -3.3 c -1.9,0 -3.8,-0.6 -5.6,-1.6 l -112.2,-64.2 -3.3,1.9 113.9,65.2 c 2.2,1.3 4.7,1.9 7.2,2 z"
               id="path79" />
            <path
               class="cls-12"
               d="m 516.1,434 115.8,66.9 c 4.4,2.6 9.9,2.6 14.3,0 l 117.4,-67.8 v 0 L 645.4,364.9 c -4.4,-2.6 -9.9,-2.6 -14.3,0 l -115,66.4 c -1,0.6 -1,2.1 0,2.7 z"
               id="path80" />
            <path
               class="cls-12"
               d="m 763.5,433.2 c -0.8,-1.3 -2.5,-1.8 -3.8,-1 l -115.3,66.4 c -3.3,1.9 -7.4,1.9 -10.7,0 L 517.8,431.8 c -1.3,-0.8 -3.1,-0.3 -3.8,1 -0.4,0.7 -0.4,1.6 -0.2,2.3 v 7 c 6.7,5.2 3.8,11.8 12.4,16.7 9.3,5.3 13.5,-2 22.7,3.3 9.2,5.3 5,12.7 14.3,18 9.2,5.3 13.5,-2 22.7,3.3 9.2,5.3 5,12.7 14.3,18 9.2,5.3 13.5,-2 22.7,3.3 9.2,5.3 5.8,18.4 16.2,18.5 v 0 c 10.6,0 7.1,-13.2 16.3,-18.5 9.2,-5.3 13.4,2 22.6,-3.2 9.2,-5.3 5,-12.6 14.2,-17.9 9.2,-5.3 13.4,2 22.6,-3.2 9.2,-5.3 5,-12.6 14.2,-17.9 9.2,-5.3 13.4,2.1 22.6,-3.2 8.3,-4.8 5.7,-11.2 11.8,-16.3 v -7.1 c 0.4,-0.8 0.5,-1.8 0,-2.6 h 0.1 z"
               id="path81" />
            <polygon
               class="cls-15"
               points="669.3,445.8 727.9,412 673.8,380.8 625.3,408.8 646.5,445.5 655,450.4 "
               id="polygon81" />
            <path
               class="cls-10"
               d="m 781.3,543 -3.6,2.1 v 6.1 c 0,2 -1.3,4.5 -2.7,5.3 l -107.6,61.8 c -0.3,0.2 -0.5,0.2 -0.5,0.2 0,0 -0.3,-0.4 -0.3,-1.3 v -8 l -3.6,2.1 -13.9,8 c -1,0.6 -2.1,1.1 -3.1,1.4 -0.5,0.2 -1.1,0.4 -1.6,0.5 -0.6,0 -1.1,0.3 -1.7,0.4 -1.1,0.2 -2.2,0.3 -3.3,0.3 -1.1,0 0,0 0,0 h -0.5 v 5.4 h 2.5 c 0.5,0 0.9,0 1.3,-0.2 v 0 c 0.6,0 1.3,-0.2 1.9,-0.4 1.3,-0.3 2.5,-0.7 3.7,-1.3 0.6,-0.3 1.2,-0.6 1.8,-0.9 l 13,-7.5 v 0.2 c 0,2.1 0.8,3.7 2.1,4.5 0.6,0.3 1.2,0.5 1.8,0.5 0.6,0 1.6,-0.2 2.3,-0.7 L 777,559.7 c 2.6,-1.5 4.5,-5.1 4.5,-8.4 v -2.5 l 17.6,-10.2 v -5.7 l -17.6,10.2 h -0.2 z"
               id="path82" />
            <path
               class="cls-13"
               d="m 781.3,539.1 v 0 -1.6 c 0,-2.1 -0.8,-3.7 -2.1,-4.5 -1.2,-0.7 -2.7,-0.6 -4.2,0.2 L 667.4,595 c -2.6,1.5 -4.5,5.1 -4.5,8.4 v 4 0 l -15.6,9 c -1.5,0.9 -3.1,1.4 -4.7,1.8 -1.1,0.2 -2.2,0.4 -3.3,0.4 h -0.5 v 3.4 h 0.5 c 1.1,0 2.2,0 3.3,-0.3 0.6,0 1.1,-0.2 1.7,-0.4 0.6,0 1.1,-0.3 1.6,-0.5 1.1,-0.4 2.1,-0.9 3.1,-1.4 l 13.9,-8 3.6,-2.1 v -3.9 0 -1.9 c 0,-2 1.3,-4.5 2.7,-5.3 l 107.6,-61.8 c 0.3,-0.2 0.5,0 0.5,0 0,0 0.3,0.2 0.3,1.1 v 7.7 l 3.6,-2.1 17.6,-10.2 v 0 -3.9 l -17.7,10.2 h 0.2 z"
               id="path83" />
            <path
               class="cls-13"
               d="m 808,479 -44.4,-25.7 v 4.9 l 42.3,24.5 c 3.4,2 5.4,5.5 5.4,9.4 0,3.9 -2,7.4 -5.4,9.4 l -161.7,93.7 c -3.4,1.9 -7.5,1.9 -10.9,0 l -19.8,-11.4 c -0.3,-0.2 -0.7,-0.3 -1.1,-0.3 -1.2,0 -2.1,0.9 -2.1,2.1 0,1.2 0.5,1.5 1.1,1.8 v 0 l 19.7,11.5 c 2.3,1.3 4.9,2 7.5,2 2.6,0 5.2,-0.7 7.5,-2 l 161.7,-93.7 c 4.7,-2.7 7.5,-7.6 7.5,-13 0,-5.4 -2.8,-10.3 -7.5,-13 z"
               id="path84" />
            <g
               id="g93">
              <g
                 id="g89">
                <path
                   class="cls-14"
                   d="m 514.3,567.6 c -0.5,-0.3 -0.9,-0.3 -1.2,0 l -18.5,10.7 c 0.3,-0.2 0.7,0 1.2,0 l 10.5,6.1 18.5,-10.7 z"
                   id="path85" />
                <path
                   class="cls-14"
                   d="m 531.8,600.9 v 9.4 c 0,0.5 -0.2,0.8 -0.5,1 l 18.5,-10.7 c 0.3,-0.2 0.5,-0.5 0.5,-1 v -9.4 z"
                   id="path86" />
                <path
                   class="cls-14"
                   d="m 548.8,587.5 -10.5,-6.1 -18.5,10.7 10.5,6.1 c 0.9,0.5 1.6,1.6 1.6,2.6 l 18.5,-10.7 c 0,-1 -0.7,-2.1 -1.6,-2.6 z"
                   id="path87" />
                <polygon
                   class="cls-14"
                   points="528,521.1 509.5,531.9 495.1,531.3 513.6,520.6 "
                   id="polygon87" />
                <polygon
                   class="cls-14"
                   points="538.2,581.4 519.8,592.2 519.9,539.3 538.4,528.5 "
                   id="polygon88" />
                <path
                   class="cls-14"
                   d="m 518.4,536.7 c 0.9,0.5 1.5,1.6 1.5,2.6 v 52.9 l 10.4,6.1 c 0.9,0.5 1.6,1.6 1.6,2.6 v 9.4 c 0,1 -0.7,1.4 -1.6,0.9 l -34.5,-19.9 c -0.9,-0.5 -1.6,-1.7 -1.6,-2.7 v -9.4 c 0,-1 0.7,-1.3 1.6,-0.8 l 10.5,6.1 v -39.1 c 0.1,0 -10.2,-0.8 -10.2,-0.8 -0.4,0 -0.7,0 -0.9,-0.3 -0.6,-0.3 -0.9,-1 -0.9,-1.7 v -10.4 c 0,-0.6 0.3,-0.9 0.8,-0.8 l 14.3,0.5 c 0.6,0 1,0.2 1.8,0.7 l 7.1,4.1 z"
                   id="path88" />
                <path
                   class="cls-14"
                   d="m 536.9,525.9 -7.1,-4.1 c -0.8,-0.5 -1.3,-0.6 -1.8,-0.7 l -18.5,10.7 c 0.6,0 1,0.2 1.8,0.7 l 7.1,4.1 c 0.9,0.5 1.5,1.6 1.5,2.6 l 18.5,-10.7 c 0,-1 -0.6,-2.1 -1.5,-2.6 z"
                   id="path89" />
              </g>
              <g
                 id="g92">
                <path
                   class="cls-14"
                   d="m 582,605 c -4.6,-2.7 -8.1,-8.2 -8,-23.2 v -8.2 c 0,-9.2 1.4,-13.4 3.5,-14.6 l -19.3,11.2 c -2.1,1.2 -3.4,5.4 -3.4,14.6 v 8.2 c 0,15 3.4,20.5 8,23.2 1.8,1 3.4,1.5 4.8,0.7 l 19.3,-11.2 c -1.3,0.8 -3,0.4 -4.8,-0.7 v 0 z"
                   id="path90" />
                <path
                   class="cls-14"
                   d="m 582.2,546.3 c -6.5,-3.7 -11.7,-4.8 -15.4,-2.6 l -19.3,11.2 c 3.8,-2.2 9,-1.1 15.4,2.6 14,8.1 22.3,22.2 22.2,44.9 v 8.2 c 0,12.2 -2.5,19.2 -6.8,21.7 l 19.3,-11.2 c 4.4,-2.6 6.8,-9.5 6.8,-21.7 v -8.2 c 0,-22.8 -8.1,-36.8 -22.2,-44.9 z"
                   id="path91" />
                <path
                   class="cls-14"
                   d="m 562.9,557.6 c 14,8.1 22.3,22.2 22.2,44.9 v 8.2 c 0,22.8 -8.4,27.2 -22.4,19.1 -14,-8.1 -22.2,-22 -22.1,-44.8 v -8.2 c 0,-22.8 8.3,-27.3 22.3,-19.2 z m 8,44.9 v -8.2 c 0,-15 -3.5,-20.6 -8.1,-23.3 -4.6,-2.7 -8.1,-1.1 -8.1,13.9 v 8.2 c 0,15 3.4,20.5 8,23.2 4.6,2.7 8.2,1.2 8.2,-13.8"
                   id="path92" />
              </g>
            </g>
            <path
               class="cls-11"
               d="m 635.8,621.6 c -2.2,-0.4 -4.4,-1.1 -6.4,-2.3 L 614,610.4 v 0 c -0.4,-0.2 -0.8,-0.3 -1.2,-0.3 -1.4,0 -2.5,1.1 -2.5,2.5 0,1.4 0.4,1.6 1.1,2 l 17,9.9 c 1.2,0.7 2.4,1.2 3.6,1.6 1.2,0.4 2.5,0.7 3.8,0.9 0.5,0 1.1,0.2 1.6,0.2 h 1.2 v -5.4 c -0.9,0 -1.9,0 -2.8,-0.3 v 0 z"
               id="path93" />
            <path
               class="cls-6"
               d="m 635.8,618.1 c -1.6,-0.3 -3.2,-0.9 -4.7,-1.8 l -18.3,-10.5 c -0.2,0 -0.5,-0.2 -0.8,-0.2 -0.9,0 -1.7,0.8 -1.7,1.7 0,0.9 0.3,1.2 0.9,1.5 l 18.3,10.5 c 2,1.2 4.2,1.9 6.4,2.3 0.9,0.2 1.9,0.3 2.8,0.3 v -3.4 c -1,0 -1.9,-0.2 -2.8,-0.3 h -0.1 z"
               id="path94" />
            <path
               class="cls-6"
               d="m 471.5,482.7 42.3,-24.5 v -4.9 L 469.4,479 c -4.7,2.7 -7.5,7.6 -7.5,13 0,5.4 2.8,10.3 7.5,13 l 13.4,7.7 c 0.3,0 0.5,0.2 0.9,0.2 1.2,0 2.1,-0.9 2.1,-2.1 0,-1.2 -0.3,-1.4 -0.9,-1.7 l -13.3,-7.7 c -3.4,-2 -5.4,-5.5 -5.4,-9.4 0,-3.9 2,-7.4 5.4,-9.4 h -0.1 z"
               id="path95" />
            <path
               class="cls-6"
               d="m 484.9,532.1 -6.4,-3.7 h -0.1 v 3.9 0 l 4.6,2.7 c 0,0 0.5,0.3 1,0.3 0.9,0 1.7,-0.8 1.7,-1.7 0,-0.9 -0.8,-1.4 -0.8,-1.4 v 0 z"
               id="path96" />
            <path
               class="cls-11"
               d="m 484.6,535.8 -6.2,-3.6 v 5.7 l 3.7,2.2 c 0,0 0.6,0.3 1.1,0.3 1.4,0 2.5,-1.1 2.5,-2.5 0,-1.4 -1.2,-2.1 -1.2,-2.1 z"
               id="path97" />
            <g
               id="g100">
              <path
                 class="cls-13"
                 d="m 702.7,405.8 c 0,0 -6.3,-61.3 -7.1,-67.4 -0.8,-6.1 -4.3,-11.9 -4.3,-11.9 0,0 -37.2,-48 -39.9,-51 -2.7,-3 -6.5,-2.8 -6.5,-2.8 0,0 -37,3.8 -38.5,3.8 -1.5,0 -5.3,1.2 -5.3,1.2 l -6.9,2.4 c 5.7,-0.4 37.2,-4 37.2,-4 0,0 5.5,-1.8 8.7,2.4 3.2,4.2 40.1,52 40.1,52 0,0 3.4,4 4.2,11.1 0.8,7.1 7.1,67.4 7.1,67.4 0,0 0.8,4.5 -3,8.7 -3.8,4.2 -29.2,31.4 -29.2,31.4 0,0 -1,1.3 -2.6,1.8 2.1,-0.6 10.4,-4 11.9,-4.7 1.8,-0.8 2.8,-2.2 2.8,-2.2 0,0 25.3,-26.6 28.9,-30.4 3.6,-3.8 2.8,-7.9 2.8,-7.9 h -0.4 z"
                 id="path98" />
              <path
                 class="cls-6"
                 d="m 691.2,408.9 c 0,0 -6.3,-60.3 -7.1,-67.4 -0.8,-7.1 -4.2,-11.1 -4.2,-11.1 0,0 -37,-47.8 -40.1,-52 -3.2,-4.2 -8.7,-2.4 -8.7,-2.4 0,0 -31.4,3.6 -37.2,4 -5.7,0.4 -6.7,6.5 -6.7,6.5 0,0 -10.9,47.8 -12.1,52.2 -1.2,4.3 0,10.7 0,10.7 0,0 25.9,66.4 27.3,69.8 1.4,3.4 4.7,4.7 4.7,4.7 l 45.3,26.7 c 1.3,0.6 2.4,0.6 3.4,0.4 v 0 c 0,0 0.2,0 0.5,-0.1 1.7,-0.6 2.6,-1.8 2.6,-1.8 0,0 25.5,-27.3 29.2,-31.4 3.8,-4.2 3,-8.7 3,-8.7 v 0 z"
                 id="path99" />
              <path
                 class="cls-17"
                 d="m 671.9,391.9 c -0.7,-0.4 -4.5,-3.2 -5,-3.9 -0.5,-0.7 -1.2,-1.5 -1.9,-2.9 -0.7,-1.4 0.2,-3.1 0,-13.4 -0.2,-10.3 -3.4,-19.3 -3.6,-19.7 -0.2,-0.4 0,-1.2 0,-1.8 0,-0.6 0.6,-1 0.9,-1.6 0.3,-0.6 1.9,-1 3.4,-1.4 1.5,-0.4 3.6,-1.5 3.6,-1.5 2,-2.1 0,-7 -2.3,-7 -2.3,0 -5.4,3.2 -5.8,3.5 -0.4,0.3 -1.2,0.8 -2.1,0.6 -0.9,-0.2 -1.5,-1.1 -1.5,-1.1 -9.1,-19.1 -19.1,-23.7 -19.2,-24.7 -0.1,-1 0,0 -0.5,-1.8 -0.5,-1.8 0.3,-9.2 0.6,-11.3 0.3,-2.1 -0.9,-6.9 -3.3,-6.1 -2.4,0.8 -1.5,5.1 -1.5,8.2 0,3.1 -0.5,6 -0.5,6 -0.5,0.4 -0.6,2 -0.6,2 -13.1,-5.4 -20.7,2.2 -20.7,2.2 0,0 -0.4,-0.7 -1.4,-1.7 -1,-1 -1.9,-2.9 -2.9,-4.7 -1,-1.8 -2.4,-6.4 -4.3,-7.9 -1.9,-1.5 -3.2,0.2 -3.1,2.9 0.1,2.7 4.1,7.6 4.9,8.8 0.8,1.2 1.9,3.4 2.4,5.2 0.5,1.8 -0.4,2.7 -0.4,2.7 -6.9,10.7 -5.4,26.8 -5.4,26.8 l -1.4,0.5 c -1.4,0.5 -6.3,-1.5 -8.3,-2.1 -2,-0.6 -2.9,3.7 -1,5.9 1.9,2.2 7,1.7 7.6,1.7 0.6,0 1.6,0.7 2.1,1.3 0.5,0.6 0.8,0.7 1.4,1.1 0.6,0.4 0.7,1.7 0.7,1.7 3.5,18.4 9.5,26.1 10.3,27.3 0.8,1.1 1.6,1.8 1.9,5.6 0.3,3.8 -4.7,6.8 -4.7,9.9 0,3.1 1.1,4.9 3.1,5.2 2,0.3 3.1,-5.2 3.5,-6.8 0.4,-1.6 1.3,-2.1 2.1,-2.9 0.8,-0.8 1.7,-0.1 1.7,-0.1 12,12.5 21.7,12.3 21.7,12.3 0,0.7 1.1,2.3 1.7,3.2 0.6,0.9 0.9,4.7 1.3,7.8 0.4,3.1 1.7,6.1 2.4,6.6 0.7,0.5 3,1.7 3,-2 0,-3.7 -2.5,-8.7 -3,-11.4 -0.5,-2.7 0.2,-5.2 0.2,-5.2 11.1,-3.3 14.3,-15.3 14.6,-15.9 0.3,-0.6 2.5,0.3 3.1,1 0.6,0.7 5.4,5.5 5.8,6.3 0.4,0.8 3.9,2.6 4.1,-0.9 0.2,-3.5 -3.2,-5.9 -3.9,-6.3 v -0.2 z M 632.5,354 c 0.6,0.3 3.1,2.1 3.1,2.1 0,0 0.7,1.5 1,2.4 0.3,0.8 0.7,2.3 0.8,3.2 0,0.9 -0.2,1.8 -0.3,2.4 -0.2,0.5 -0.4,1.5 -0.9,1.8 -0.5,0.3 -2.5,0.2 -2.5,0.2 0,0 -0.4,-0.3 -1.3,-1.1 -0.9,-0.8 -2.4,-2.7 -2.5,-3.3 -0.2,-0.6 -0.5,-3.9 -0.5,-3.9 l 0.5,-2 1.3,-1.5 c 0,0 0.8,-0.5 1.4,-0.3 v 0 z m -0.6,-31.1 -1.5,17.5 c 0,0 -0.3,1.5 -0.9,1.8 -0.7,0.3 -1.3,0.2 -2,-0.9 -0.7,-1.1 -10.2,-16.5 -10.2,-16.5 0,0 4.7,-4.6 14.6,-1.8 v 0 z m -19.2,6.9 8.6,16.7 c 0,0 0.7,1.8 0.6,2.9 0,1.2 -0.7,1.9 -2.2,1.8 -1.5,-0.1 -11.5,-1.9 -11.5,-1.9 0,0 -0.3,-13.7 4.5,-19.5 z m 10.5,39.9 -5,11.9 c 0,0 -6.1,-8 -8.8,-22.5 l 11,3.6 c 0,0 1.8,0.3 2.9,1.9 1,1.6 0,5 0,5 h -0.1 z m 0.9,19.3 6.3,-11.2 c 0,0 0.7,-1.4 1.7,-1.3 1,0.2 1.9,2.6 2.2,3.4 0.3,0.8 5,18.1 5,18.1 0,0 -7.5,0 -15.1,-9.1 h -0.1 z m 15.6,-40.3 c -0.9,-0.8 -1.4,-1.7 -1.5,-3.2 -0.1,-1.5 0,-18.7 0,-18.7 0,0 8.6,6.6 13.7,17.7 l -10.1,4.4 c 0,0 -1.3,0.6 -2.2,-0.3 v 0 z m 5.8,49.1 -3.8,-18.5 c 0,0 -0.3,-2.3 0.3,-3.3 0.6,-1 2.8,0.3 3,0.6 0.3,0.3 11.2,9.6 11.2,9.6 0,0 -2.4,8.8 -10.7,11.6 z m 12.7,-20 -11.6,-11.6 c 0,0 -1.6,-1.3 -1.6,-3.1 0,-1.8 1,-2.7 1.6,-3 0.6,-0.3 8.9,-5.9 8.9,-5.9 0,0 3.6,8.3 2.7,23.6 z"
                 id="path100" />
            </g>
            <g
               id="g110">
              <g
                 id="g109">
                <g
                   id="g105">
                  <path
                     class="cls-13"
                     d="m 510,570.1 c -0.5,-0.3 -0.9,-0.3 -1.2,0 l -18.5,10.7 c 0.3,-0.2 0.7,0 1.2,0 l 10.5,6.1 18.5,-10.7 z"
                     id="path101" />
                  <path
                     class="cls-13"
                     d="m 527.5,603.4 v 9.4 c 0,0.5 -0.2,0.8 -0.5,1 l 18.5,-10.7 c 0.3,-0.2 0.5,-0.5 0.5,-1 v -9.4 z"
                     id="path102" />
                  <path
                     class="cls-13"
                     d="m 544.4,590 -10.5,-6.1 -18.5,10.7 10.5,6.1 c 0.9,0.5 1.6,1.6 1.6,2.6 L 546,592.6 c 0,-1 -0.7,-2.1 -1.6,-2.6 z"
                     id="path103" />
                  <polygon
                     class="cls-13"
                     points="523.6,523.7 505.1,534.4 490.8,533.9 509.3,523.1 "
                     id="polygon103" />
                  <polygon
                     class="cls-13"
                     points="533.9,584 515.4,594.7 515.6,541.8 534.1,531.1 "
                     id="polygon104" />
                  <path
                     class="cls-6"
                     d="m 514.1,539.2 c 0.9,0.5 1.5,1.6 1.5,2.6 v 52.9 l 10.4,6.1 c 0.9,0.5 1.6,1.6 1.6,2.6 v 9.4 c 0,1 -0.7,1.4 -1.6,0.9 l -34.5,-19.9 c -0.9,-0.5 -1.6,-1.7 -1.6,-2.7 v -9.4 c 0,-1 0.7,-1.3 1.6,-0.8 L 502,587 v -39.1 c 0.1,0 -10.2,-0.8 -10.2,-0.8 -0.4,0 -0.7,0 -0.9,-0.3 -0.6,-0.3 -0.9,-1 -0.9,-1.7 v -10.4 c 0,-0.6 0.3,-0.9 0.8,-0.8 l 14.3,0.5 c 0.6,0 1,0.2 1.8,0.7 l 7.1,4.1 z"
                     id="path104" />
                  <path
                     class="cls-13"
                     d="m 532.6,528.5 -7.1,-4.1 c -0.8,-0.5 -1.3,-0.6 -1.8,-0.7 l -18.5,10.7 c 0.6,0 1,0.2 1.8,0.7 l 7.1,4.1 c 0.9,0.5 1.5,1.6 1.5,2.6 l 18.5,-10.7 c 0,-1 -0.6,-2.1 -1.5,-2.6 z"
                     id="path105" />
                </g>
                <g
                   id="g108">
                  <path
                     class="cls-13"
                     d="m 577.7,607.6 c -4.6,-2.7 -8.1,-8.2 -8,-23.2 v -8.2 c 0,-9.2 1.4,-13.4 3.5,-14.6 l -19.3,11.2 c -2.1,1.2 -3.4,5.4 -3.4,14.6 v 8.2 c 0,15 3.4,20.5 8,23.2 1.8,1 3.4,1.5 4.8,0.7 l 19.3,-11.2 c -1.3,0.8 -3,0.4 -4.8,-0.7 v 0 z"
                     id="path106" />
                  <path
                     class="cls-13"
                     d="m 577.9,548.9 c -6.5,-3.7 -11.7,-4.8 -15.4,-2.6 l -19.3,11.2 c 3.8,-2.2 9,-1.1 15.4,2.6 14,8.1 22.3,22.2 22.2,44.9 v 8.2 c 0,12.2 -2.5,19.2 -6.8,21.7 l 19.3,-11.2 c 4.4,-2.6 6.8,-9.5 6.8,-21.7 v -8.2 C 600.1,571 592,557 577.9,548.9 Z"
                     id="path107" />
                  <path
                     class="cls-6"
                     d="m 558.6,560.1 c 14,8.1 22.3,22.2 22.2,44.9 v 8.2 c 0,22.8 -8.4,27.2 -22.4,19.1 -14,-8.1 -22.2,-22 -22.1,-44.8 v -8.2 c 0,-22.8 8.3,-27.3 22.3,-19.2 z m 8,44.9 v -8.2 c 0,-15 -3.5,-20.6 -8.1,-23.3 -4.6,-2.7 -8.1,-1.1 -8.1,13.9 v 8.2 c 0,15 3.4,20.5 8,23.2 4.6,2.7 8.2,1.2 8.2,-13.8"
                     id="path108" />
                </g>
              </g>
              <path
                 class="cls-2"
                 d="m 523.6,526.9 c 0,3.1 -2.5,5.6 -5.6,5.6 -3.1,0 -5.6,-2.5 -5.6,-5.6 0,-3.1 2.5,-24.4 5.6,-24.4 3.1,0 5.6,21.3 5.6,24.4 z"
                 id="path109" />
              <path
                 class="cls-2"
                 d="m 574.6,550.8 c 0,3.1 -2.5,5.6 -5.6,5.6 -3.1,0 -5.6,-2.5 -5.6,-5.6 0,-3.1 2.5,-24.4 5.6,-24.4 3.1,0 5.6,21.3 5.6,24.4 z"
                 id="path110" />
            </g>
          </g>
        </g>
      </g>
    </g>
  </g>
</svg>
