<?xml version="1.0" encoding="utf-8"?>
<!-- Generator: Adobe Illustrator 21.0.0, SVG Export Plug-In . SVG Version: 6.00 Build 0)  -->
<svg version="1.1" id="Layer_1" xmlns="http://www.w3.org/2000/svg" xmlns:xlink="http://www.w3.org/1999/xlink" x="0px" y="0px"
	 viewBox="0 0 500.6 84.5" style="enable-background:new 0 0 500.6 84.5;" xml:space="preserve">
<style type="text/css">
	.st0{fill:#326DE6;}
	.st1{fill:#FFFFFF;}
	.st2{fill:#326DE5;}
</style>
<title>Kubernetes_Logo_Hrz_lockup_POS</title>
<g id="Layer_2">
	<g id="Layer_1-2">
		<path class="st0" d="M79.8,18.8c-0.5-1.6-1.7-2.9-3.2-3.7L46.1,0.5c-0.8-0.4-1.7-0.5-2.5-0.5c-0.8,0-1.7,0-2.5,0.2L10.6,14.9
			c-1.5,0.7-2.6,2-3,3.7L0,51.5c-0.3,1.7,0.1,3.4,1.1,4.8l21.1,26.1c1.2,1.2,2.9,2,4.6,2.1h33.7c1.8,0.2,3.5-0.6,4.6-2.1l21.1-26.1
			c1-1.4,1.4-3.1,1.2-4.8L79.8,18.8z"/>
		<path class="st1" d="M75,50.2L75,50.2c-0.1,0-0.1,0-0.1-0.1S74.6,50,74.5,50c-0.4-0.1-0.8-0.1-1.2-0.1c-0.2,0-0.4,0-0.6-0.1h-0.1
			c-1.1-0.1-2.3-0.3-3.4-0.6c-0.3-0.1-0.6-0.4-0.7-0.7c0-0.1-0.1-0.1-0.1-0.1l0,0l-0.8-0.2c0.4-2.9,0.2-5.9-0.4-8.8
			c-0.7-2.9-1.9-5.7-3.5-8.2l0.6-0.6l0,0v-0.1c0-0.3,0.1-0.7,0.3-0.9c0.9-0.7,1.8-1.4,2.8-1.9l0,0c0.2-0.1,0.4-0.2,0.6-0.3
			c0.4-0.2,0.7-0.4,1.1-0.6c0.1-0.1,0.2-0.1,0.3-0.2s0.1-0.1,0.1-0.1l0,0c0.9-0.7,1.1-1.9,0.4-2.8c-0.3-0.4-0.9-0.7-1.4-0.7
			c-0.5,0-1,0.2-1.4,0.5l0,0l-0.1,0.1c-0.1,0.1-0.2,0.2-0.3,0.2c-0.3,0.3-0.6,0.6-0.8,0.9c-0.1,0.2-0.3,0.3-0.4,0.4l0,0
			c-0.8,0.8-1.6,1.6-2.5,2.2c-0.2,0.1-0.4,0.2-0.6,0.2c-0.1,0-0.3,0-0.4-0.1H62L61.2,28c-0.8-0.8-1.7-1.6-2.5-2.4
			c-3.7-2.9-8.3-4.7-13-5.2l-0.1-0.8l0,0l-0.1-0.1c-0.3-0.2-0.4-0.5-0.5-0.8c0-1.1,0-2.2,0.2-3.4v-0.1c0-0.2,0.1-0.4,0.1-0.6
			c0.1-0.4,0.1-0.8,0.2-1.2v-0.6l0,0c0.1-1-0.7-2-1.7-2c-0.6,0-1.2,0.2-1.6,0.6c-0.4,0.4-0.6,0.9-0.6,1.4l0,0v0.5
			c0,0.4,0.1,0.8,0.2,1.2c0.1,0.2,0.1,0.4,0.1,0.6v0.1c0.2,1.1,0.2,2.2,0.2,3.4c-0.1,0.3-0.2,0.6-0.5,0.8l-0.1,0.1l0,0l-0.1,0.8
			c-1.1,0.1-2.2,0.3-3.4,0.5c-4.7,1-9,3.5-12.3,7l-0.6-0.4H25c-0.1,0-0.2,0.1-0.4,0.1c-0.2,0-0.5-0.1-0.6-0.2
			c-0.9-0.7-1.7-1.5-2.5-2.3l0,0c-0.1-0.2-0.3-0.3-0.4-0.4c-0.3-0.3-0.5-0.6-0.8-0.9c-0.1-0.1-0.2-0.1-0.3-0.2s-0.1-0.1-0.1-0.1l0,0
			c-0.4-0.3-0.9-0.5-1.4-0.5c-0.6,0-1.1,0.2-1.5,0.7c-0.6,0.9-0.4,2.1,0.4,2.8l0,0c0.1,0,0.1,0.1,0.1,0.1s0.2,0.2,0.3,0.2
			c0.3,0.2,0.7,0.4,1.1,0.6c0.2,0.1,0.4,0.2,0.6,0.3l0,0c1,0.6,1.9,1.2,2.8,1.9c0.2,0.2,0.4,0.6,0.3,0.9v0.1l0,0l0.6,0.6
			c-0.1,0.2-0.2,0.3-0.3,0.5c-3.1,4.9-4.3,10.7-3.4,16.4l-0.8,0.2l0,0c0,0.1-0.1,0.1-0.1,0.1c-0.1,0.3-0.4,0.5-0.7,0.7
			c-1.1,0.3-2.2,0.5-3.4,0.6h-0.1c-0.2,0-0.4,0-0.6,0.1c-0.4,0-0.8,0.1-1.2,0.1c-0.1,0-0.2,0.1-0.4,0.1c-0.1,0-0.1,0-0.2,0.1l0,0
			c-1.1,0.2-1.8,1.2-1.6,2.3c0.2,0.9,1.1,1.5,2,1.4c0.2,0,0.3,0,0.5-0.1l0,0c0.1,0,0.1,0,0.1-0.1s0.2-0.1,0.4-0.1
			c0.4-0.1,0.8-0.3,1.1-0.4c0.2-0.1,0.4-0.2,0.6-0.2h0.1c1-0.4,2.1-0.7,3.2-0.9h0.1c0.3,0,0.6,0.1,0.8,0.3c0.1,0,0.1,0.1,0.1,0.1
			l0,0l0.9-0.1c1.5,4.6,4.3,8.7,8.2,11.7c0.9,0.7,1.7,1.3,2.7,1.8l-0.4,0.8l0,0c0,0.1,0.1,0.1,0.1,0.1c0.2,0.3,0.2,0.7,0.1,1
			c-0.4,1-1,2-1.6,2.9v0.1c-0.1,0.2-0.2,0.3-0.4,0.5s-0.4,0.6-0.7,1c-0.1,0.1-0.1,0.2-0.2,0.3c0,0,0,0.1-0.1,0.1l0,0
			c-0.5,1-0.1,2.2,0.8,2.7c0.2,0.1,0.5,0.2,0.8,0.2c0.8,0,1.5-0.5,1.9-1.2l0,0c0,0,0-0.1,0.1-0.1c0-0.1,0.1-0.2,0.2-0.3
			c0.1-0.4,0.3-0.7,0.4-1.1l0.2-0.6l0,0c0.3-1.1,0.8-2.1,1.3-3.1c0.2-0.3,0.5-0.5,0.8-0.6c0.1,0,0.1,0,0.1-0.1l0,0l0.4-0.8
			c2.8,1.1,5.7,1.6,8.7,1.6c1.8,0,3.6-0.2,5.4-0.6c1.1-0.2,2.2-0.6,3.2-0.9l0.4,0.7l0,0c0.1,0,0.1,0,0.1,0.1
			c0.3,0.1,0.6,0.3,0.8,0.6c0.5,1,0.9,2,1.3,3v0.1l0.2,0.6c0.1,0.4,0.2,0.8,0.4,1.1c0.1,0.1,0.1,0.2,0.2,0.3c0,0,0,0.1,0.1,0.1l0,0
			c0.4,0.7,1.1,1.2,1.9,1.2c0.3,0,0.5-0.1,0.8-0.2c0.4-0.2,0.8-0.6,0.9-1.1c0.1-0.5,0.1-1.1-0.1-1.6l0,0c0-0.1-0.1-0.1-0.1-0.1
			c0-0.1-0.1-0.2-0.2-0.3c-0.2-0.4-0.4-0.7-0.7-1c-0.1-0.2-0.2-0.3-0.4-0.5v-0.1c-0.7-0.9-1.2-1.9-1.6-2.9c-0.1-0.3-0.1-0.7,0.1-1
			c0-0.1,0.1-0.1,0.1-0.1l0,0l-0.3-0.8c5.2-3.1,9-7.9,10.9-13.6l0.8,0.1l0,0c0.1,0,0.1-0.1,0.1-0.1c0.2-0.2,0.5-0.3,0.8-0.3h0.1
			c1.1,0.2,2.2,0.5,3.2,0.9h0.1c0.2,0.1,0.4,0.2,0.6,0.2c0.4,0.2,0.7,0.3,1.1,0.4c0.1,0,0.2,0.1,0.4,0.1c0.1,0,0.1,0,0.2,0.1l0,0
			c0.2,0.1,0.3,0.1,0.5,0.1c0.9,0,1.7-0.6,2-1.4C76.7,51.2,76,50.4,75,50.2z M46.2,47.1l-2.7,1.3l-2.7-1.3L40,44.2l1.9-2.4H45
			l1.9,2.4L46.2,47.1z M62.5,40.6c0.5,2.1,0.6,4.2,0.4,6.3l-9.5-2.7l0,0c-0.9-0.2-1.4-1.1-1.2-2c0.1-0.3,0.2-0.5,0.4-0.7l7.5-6.8
			C61.2,36.5,62,38.5,62.5,40.6L62.5,40.6z M57.1,31L49,36.8c-0.7,0.4-1.7,0.3-2.2-0.4c-0.2-0.2-0.3-0.4-0.3-0.7l-0.6-10.1
			C50.1,26.1,54.1,28,57.1,31z M39,25.9l2-0.4l-0.6,10l0,0c0,0.9-0.8,1.6-1.7,1.6c-0.3,0-0.5-0.1-0.8-0.2L29.8,31
			C32.3,28.5,35.5,26.7,39,25.9z M26.8,34.7l7.4,6.6l0,0c0.7,0.6,0.8,1.6,0.2,2.3c-0.2,0.3-0.4,0.4-0.8,0.5L24,46.9
			C23.6,42.7,24.6,38.4,26.8,34.7z M25.1,51.6l9.9-1.7c0.8,0,1.6,0.5,1.7,1.3c0.1,0.3,0.1,0.7-0.1,1l0,0l-3.8,9.2
			C29.3,59.1,26.5,55.6,25.1,51.6z M47.8,64c-1.4,0.3-2.9,0.5-4.4,0.5c-2.1,0-4.3-0.4-6.3-1l4.9-8.9c0.5-0.6,1.3-0.8,2-0.4
			c0.3,0.2,0.5,0.4,0.8,0.7l0,0l4.8,8.7C49.1,63.7,48.5,63.8,47.8,64z M60,55.3c-1.5,2.4-3.6,4.5-6,6L50.1,52
			c-0.2-0.8,0.1-1.6,0.9-2c0.3-0.1,0.6-0.2,0.9-0.2l10,1.7C61.4,52.9,60.8,54.2,60,55.3z"/>
		<g id="layer1">
			<g id="text4373">
				<path id="path2985" class="st2" d="M125.7,45.9c1.1-1.2,2.1-2.4,3.3-3.6c1.1-1.3,2.2-2.5,3.3-3.7c1.1-1.3,2.1-2.4,3-3.5
					s1.8-2.1,2.5-2.9h12.8c-2.6,2.9-5.1,5.8-7.5,8.5c-2.5,2.7-5.1,5.5-8,8.3c1.6,1.5,3.1,3,4.5,4.7c1.5,1.8,3,3.6,4.5,5.6
					c1.4,1.9,2.8,3.9,4,5.8c1.2,1.9,2.2,3.7,3,5.3h-12.3c-0.8-1.3-1.7-2.6-2.7-4.1s-2.1-3-3.1-4.6c-1.1-1.5-2.3-3-3.6-4.4
					c-1.1-1.3-2.3-2.5-3.6-3.5v16.7h-10.8V15.7l10.8-1.7V45.9"/>
				<path id="path2987" class="st2" d="M188.6,68.9c-2.3,0.6-4.7,1.1-7.1,1.4c-3,0.5-6.1,0.7-9.1,0.7c-2.8,0.1-5.5-0.4-8.1-1.3
					c-2-0.8-3.7-2-5.1-3.6c-1.3-1.7-2.2-3.6-2.7-5.7c-0.6-2.3-0.8-4.8-0.8-7.2V32.1h10.8V52c0,3.5,0.5,6,1.4,7.5
					c0.9,1.5,2.6,2.3,5.1,2.4c0.8,0,1.6,0,2.5-0.1s1.6-0.1,2.3-0.3V32.1h10.8L188.6,68.9"/>
				<path id="path2989" class="st2" d="M223.2,50.9c0-7-2.6-10.4-7.7-10.4c-1.1,0-2.2,0.1-3.3,0.4c-0.9,0.2-1.8,0.6-2.6,1.1v19.6
					c0.5,0.1,1.2,0.2,2,0.3c0.8,0.1,1.7,0.1,2.7,0.1c2.6,0.2,5.1-0.9,6.7-3C222.5,56.6,223.3,53.8,223.2,50.9 M234.2,51.3
					c0,2.8-0.4,5.6-1.4,8.3c-0.8,2.4-2.1,4.5-3.8,6.3c-1.8,1.8-3.9,3.2-6.2,4.1c-2.7,1-5.5,1.4-8.4,1.4c-1.3,0-2.7-0.1-4.1-0.2
					c-1.4-0.1-2.8-0.3-4.2-0.4c-1.3-0.2-2.6-0.4-3.9-0.7c-1.3-0.2-2.4-0.6-3.3-1V15.7l10.8-1.7v19c1.2-0.5,2.5-0.9,3.8-1.2
					c1.4-0.3,2.8-0.4,4.2-0.4c2.5,0,4.9,0.4,7.2,1.5c2,0.9,3.8,2.3,5.2,4c1.5,1.9,2.6,4,3.2,6.3C233.9,45.7,234.3,48.5,234.2,51.3"
					/>
				<path id="path2991" class="st2" d="M240.7,51.5c-0.1-3,0.5-6,1.5-8.8c0.9-2.4,2.3-4.5,4.1-6.4c1.7-1.7,3.6-3,5.8-3.8
					c2.2-0.9,4.5-1.3,6.8-1.3c5.4,0,9.7,1.7,12.8,5c3.1,3.3,4.7,8.2,4.7,14.6c0,0.6,0,1.3-0.1,2.1s-0.1,1.4-0.1,2h-24.5
					c0.2,2.1,1.3,4,3.1,5.2c2.2,1.4,4.8,2.1,7.4,2c1.9,0,3.9-0.2,5.8-0.5c1.6-0.3,3.2-0.8,4.7-1.4l1.5,8.8c-0.7,0.4-1.5,0.6-2.3,0.9
					c-1.1,0.3-2.2,0.6-3.3,0.7c-1.2,0.2-2.4,0.4-3.8,0.6c-1.3,0.1-2.7,0.2-4.1,0.2c-3.1,0.1-6.1-0.4-9-1.5c-2.4-0.9-4.5-2.3-6.3-4.1
					c-1.7-1.8-2.9-4-3.7-6.3C241.1,56.8,240.7,54.1,240.7,51.5 M266,47.4c0-0.9-0.2-1.8-0.5-2.7c-0.2-0.9-0.7-1.6-1.2-2.3
					c-0.6-0.7-1.3-1.3-2.1-1.7c-1-0.5-2-0.7-3.1-0.7c-1.1,0-2.1,0.2-3.1,0.7c-0.8,0.4-1.6,0.9-2.2,1.6c-0.6,0.7-1.1,1.5-1.4,2.4
					c-0.3,0.9-0.5,1.8-0.6,2.7L266,47.4"/>
				<path id="path2993" class="st2" d="M307.8,41.7c-1-0.2-2.1-0.5-3.4-0.7c-1.4-0.3-2.8-0.4-4.2-0.4c-0.8,0-1.6,0.1-2.5,0.2
					c-0.7,0.1-1.4,0.2-2.1,0.4v29.1h-10.8V34.1c2.2-0.8,4.5-1.4,6.8-1.9c2.9-0.7,5.9-1,8.8-0.9c0.7,0,1.4,0.1,2.1,0.1
					c0.8,0,1.6,0.1,2.5,0.3c0.8,0.1,1.6,0.2,2.5,0.4c0.7,0.1,1.4,0.3,2.1,0.6L307.8,41.7"/>
				<path id="path2995" class="st2" d="M315.4,33.4c2.3-0.6,4.7-1.1,7.1-1.5c3-0.5,6.1-0.7,9.1-0.7c2.7-0.1,5.4,0.4,8,1.3
					c2,0.7,3.8,1.9,5.1,3.5c1.3,1.6,2.2,3.5,2.7,5.5c0.6,2.3,0.8,4.7,0.8,7.1v21.5h-10.8V50c0-3.5-0.5-5.9-1.4-7.4
					c-0.9-1.4-2.6-2.2-5.1-2.2c-0.8,0-1.6,0-2.5,0.1c-0.9,0-1.6,0.1-2.3,0.2v29.4h-10.8L315.4,33.4"/>
				<path id="path2997" class="st2" d="M356.4,51.5c-0.1-3,0.5-6,1.5-8.8c0.9-2.4,2.3-4.5,4.1-6.4c1.7-1.7,3.6-3,5.8-3.8
					c2.2-0.9,4.5-1.3,6.8-1.3c5.4,0,9.7,1.7,12.8,5c3.1,3.3,4.7,8.2,4.7,14.6c0,0.6,0,1.3-0.1,2.1c0,0.8-0.1,1.4-0.1,2h-24.5
					c0.2,2.1,1.3,4,3.1,5.2c2.2,1.4,4.8,2.1,7.4,2c1.9,0,3.9-0.2,5.8-0.5c1.6-0.3,3.2-0.8,4.7-1.4l1.5,8.8c-0.7,0.4-1.5,0.6-2.3,0.9
					c-1.1,0.3-2.2,0.6-3.3,0.7c-1.2,0.2-2.4,0.4-3.8,0.6c-1.3,0.1-2.7,0.2-4.1,0.2c-3.1,0.1-6.1-0.4-9-1.5c-2.4-0.9-4.5-2.3-6.3-4.1
					c-1.7-1.8-2.9-4-3.7-6.3C356.7,56.8,356.3,54.1,356.4,51.5 M381.7,47.4c0-0.9-0.2-1.8-0.5-2.7c-0.2-0.9-0.6-1.7-1.2-2.4
					c-0.6-0.7-1.3-1.3-2.1-1.7c-1-0.5-2-0.7-3.1-0.7c-1.1,0-2.1,0.2-3.1,0.7c-0.8,0.4-1.6,0.9-2.2,1.6c-0.6,0.7-1.1,1.5-1.4,2.4
					c-0.3,0.9-0.5,1.8-0.6,2.7L381.7,47.4"/>
				<path id="path2999" class="st2" d="M400.1,22.6l10.8-1.7v11.2h13v9h-13v13.4c-0.1,1.9,0.3,3.8,1.2,5.4c0.8,1.3,2.4,2,4.9,2
					c1.2,0,2.4-0.1,3.5-0.3c1.2-0.2,2.3-0.5,3.4-0.9l1.5,8.4c-1.4,0.6-2.9,1-4.4,1.4c-1.9,0.4-3.9,0.6-5.9,0.6
					c-2.5,0.1-5-0.3-7.3-1.2c-1.8-0.7-3.4-1.9-4.6-3.3c-1.2-1.5-2-3.3-2.5-5.2c-0.5-2.2-0.7-4.5-0.6-6.7L400.1,22.6"/>
				<path id="path3001" class="st2" d="M429.4,51.5c-0.1-3,0.5-6,1.5-8.8c0.9-2.4,2.3-4.5,4.1-6.4c1.7-1.7,3.6-3,5.8-3.8
					c2.2-0.9,4.5-1.3,6.8-1.3c5.4,0,9.7,1.7,12.8,5c3.1,3.3,4.7,8.2,4.7,14.6c0,0.6,0,1.3-0.1,2.1c0,0.8-0.1,1.4-0.1,2h-24.5
					c0.2,2.1,1.4,4,3.1,5.2c2.2,1.4,4.8,2.1,7.4,2c1.9,0,3.9-0.2,5.8-0.5c1.6-0.3,3.2-0.8,4.7-1.4l1.5,8.8c-0.7,0.4-1.5,0.6-2.3,0.9
					c-1.1,0.3-2.2,0.6-3.3,0.7c-1.2,0.2-2.4,0.4-3.8,0.6c-1.3,0.1-2.7,0.2-4.1,0.2c-3.1,0.1-6.1-0.4-9-1.5c-2.4-0.9-4.5-2.3-6.3-4.1
					c-1.7-1.8-2.9-4-3.7-6.3C429.8,56.8,429.4,54.1,429.4,51.5 M454.8,47.4c0-0.9-0.2-1.8-0.5-2.7c-0.2-0.9-0.7-1.7-1.2-2.4
					c-0.6-0.7-1.3-1.3-2.1-1.7c-1-0.5-2-0.7-3.1-0.7c-1.1,0-2.1,0.2-3.1,0.7c-0.8,0.4-1.6,0.9-2.2,1.6c-0.6,0.7-1.1,1.5-1.4,2.4
					c-0.3,0.9-0.5,1.8-0.6,2.7L454.8,47.4"/>
				<path id="path3003" class="st2" d="M484.5,62.5c1.4,0.1,2.9-0.1,4.2-0.6c0.8-0.4,1.3-1.3,1.2-2.2c-0.1-1-0.7-1.9-1.6-2.2
					c-1.5-0.9-3.2-1.7-4.9-2.2c-1.7-0.6-3.2-1.3-4.6-2c-1.3-0.6-2.4-1.4-3.5-2.4c-1-1-1.7-2.1-2.2-3.4c-0.6-1.5-0.8-3.1-0.8-4.7
					c-0.1-3.3,1.4-6.5,4-8.5c2.7-2.1,6.3-3.1,10.9-3.1c2.2,0,4.5,0.2,6.7,0.6c1.7,0.3,3.4,0.7,5.1,1.3l-1.9,8.4
					c-1.4-0.5-2.7-0.8-4.1-1.2c-1.6-0.3-3.3-0.5-4.9-0.4c-3.4,0-5.1,0.9-5.1,2.8c0,0.4,0.1,0.8,0.2,1.2c0.2,0.4,0.5,0.7,0.9,1
					c0.4,0.3,1,0.6,1.7,1c0.7,0.4,1.7,0.8,2.9,1.2c2,0.7,4,1.6,5.9,2.6c1.4,0.7,2.6,1.6,3.6,2.8c0.9,0.9,1.5,2.1,1.9,3.3
					c0.4,1.4,0.6,2.8,0.6,4.2c0.2,3.4-1.4,6.7-4.3,8.6c-2.8,1.9-6.8,2.9-12,2.9c-2.9,0.1-5.7-0.2-8.5-0.9c-1.6-0.4-3.1-0.9-4.6-1.4
					l1.8-8.8c1.8,0.7,3.7,1.3,5.6,1.7C480.5,62.3,482.4,62.5,484.5,62.5"/>
			</g>
		</g>
	</g>
</g>
</svg>
