<svg version="1.1" viewBox="0.0 0.0 600.0 371.0" fill="none" stroke="none" stroke-linecap="square" stroke-miterlimit="10" width="600" height="371" xmlns:xlink="http://www.w3.org/1999/xlink" xmlns="http://www.w3.org/2000/svg"><path fill="#ffffff" d="M0 0L600.0 0L600.0 371.0L0 371.0L0 0Z" fill-rule="nonzero"/><path stroke="#333333" stroke-width="1.0" stroke-linecap="butt" d="M45.5 332.5L581.5 332.5" fill-rule="nonzero"/><path stroke="#cccccc" stroke-width="1.0" stroke-linecap="butt" d="M45.5 277.5L581.5 277.5" fill-rule="nonzero"/><path stroke="#cccccc" stroke-width="1.0" stroke-linecap="butt" d="M45.5 222.5L581.5 222.5" fill-rule="nonzero"/><path stroke="#cccccc" stroke-width="1.0" stroke-linecap="butt" d="M45.5 166.5L581.5 166.5" fill-rule="nonzero"/><path stroke="#cccccc" stroke-width="1.0" stroke-linecap="butt" d="M45.5 111.5L581.5 111.5" fill-rule="nonzero"/><clipPath id="id_0"><path d="M45.55 111.78333L581.45 111.78333L581.45 332.45L45.55 332.45L45.55 111.78333Z" clip-rule="nonzero"/></clipPath><path stroke="#000000" stroke-width="2.0" stroke-linecap="butt" stroke-opacity="0.0" clip-path="url(#id_0)" d="M115.0 332.0L90.0 332.0L90.0 330.0C90.0 328.89542 90.89543 328.0 92.0 328.0L113.0 328.0C114.10457 328.0 115.0 328.89542 115.0 330.0Z" fill-rule="nonzero"/><path fill="#34a853" clip-path="url(#id_0)" d="M115.0 332.0L90.0 332.0L90.0 330.0C90.0 328.89542 90.89543 328.0 92.0 328.0L113.0 328.0C114.10457 328.0 115.0 328.89542 115.0 330.0Z" fill-rule="nonzero"/><path stroke="#000000" stroke-width="2.0" stroke-linecap="butt" stroke-opacity="0.0" clip-path="url(#id_0)" d="M238.0 332.0L213.0 332.0L213.0 321.0C213.0 319.89542 213.89543 319.0 215.0 319.0L236.0 319.0C237.10457 319.0 238.0 319.89542 238.0 321.0Z" fill-rule="nonzero"/><path fill="#34a853" clip-path="url(#id_0)" d="M238.0 332.0L213.0 332.0L213.0 321.0C213.0 319.89542 213.89543 319.0 215.0 319.0L236.0 319.0C237.10457 319.0 238.0 319.89542 238.0 321.0Z" fill-rule="nonzero"/><path stroke="#000000" stroke-width="2.0" stroke-linecap="butt" stroke-opacity="0.0" clip-path="url(#id_0)" d="M361.0 332.0L336.0 332.0L336.0 301.0C336.0 299.89542 336.89542 299.0 338.0 299.0L359.0 299.0C360.10458 299.0 361.0 299.89542 361.0 301.0Z" fill-rule="nonzero"/><path fill="#34a853" clip-path="url(#id_0)" d="M361.0 332.0L336.0 332.0L336.0 301.0C336.0 299.89542 336.89542 299.0 338.0 299.0L359.0 299.0C360.10458 299.0 361.0 299.89542 361.0 301.0Z" fill-rule="nonzero"/><path stroke="#000000" stroke-width="2.0" stroke-linecap="butt" stroke-opacity="0.0" clip-path="url(#id_0)" d="M484.0 332.0L459.0 332.0L459.0 292.0C459.0 290.89542 459.89542 290.0 461.0 290.0L482.0 290.0C483.10458 290.0 484.0 290.89542 484.0 292.0Z" fill-rule="nonzero"/><path fill="#34a853" clip-path="url(#id_0)" d="M484.0 332.0L459.0 332.0L459.0 292.0C459.0 290.89542 459.89542 290.0 461.0 290.0L482.0 290.0C483.10458 290.0 484.0 290.89542 484.0 292.0Z" fill-rule="nonzero"/><path stroke="#000000" stroke-width="2.0" stroke-linecap="butt" stroke-opacity="0.0" clip-path="url(#id_0)" d="M142.0 332.0L117.0 332.0L117.0 330.5C117.0 329.67157 117.67157 329.0 118.5 329.0L140.5 329.0C141.32843 329.0 142.0 329.67157 142.0 330.5Z" fill-rule="nonzero"/><path fill="#fbbc04" clip-path="url(#id_0)" d="M142.0 332.0L117.0 332.0L117.0 330.5C117.0 329.67157 117.67157 329.0 118.5 329.0L140.5 329.0C141.32843 329.0 142.0 329.67157 142.0 330.5Z" fill-rule="nonzero"/><path stroke="#000000" stroke-width="2.0" stroke-linecap="butt" stroke-opacity="0.0" clip-path="url(#id_0)" d="M265.0 332.0L240.0 332.0L240.0 317.0C240.0 315.89542 240.89543 315.0 242.0 315.0L263.0 315.0C264.10458 315.0 265.0 315.89542 265.0 317.0Z" fill-rule="nonzero"/><path fill="#fbbc04" clip-path="url(#id_0)" d="M265.0 332.0L240.0 332.0L240.0 317.0C240.0 315.89542 240.89543 315.0 242.0 315.0L263.0 315.0C264.10458 315.0 265.0 315.89542 265.0 317.0Z" fill-rule="nonzero"/><path stroke="#000000" stroke-width="2.0" stroke-linecap="butt" stroke-opacity="0.0" clip-path="url(#id_0)" d="M388.0 332.0L363.0 332.0L363.0 282.0C363.0 280.89542 363.89542 280.0 365.0 280.0L386.0 280.0C387.10458 280.0 388.0 280.89542 388.0 282.0Z" fill-rule="nonzero"/><path fill="#fbbc04" clip-path="url(#id_0)" d="M388.0 332.0L363.0 332.0L363.0 282.0C363.0 280.89542 363.89542 280.0 365.0 280.0L386.0 280.0C387.10458 280.0 388.0 280.89542 388.0 282.0Z" fill-rule="nonzero"/><path stroke="#000000" stroke-width="2.0" stroke-linecap="butt" stroke-opacity="0.0" clip-path="url(#id_0)" d="M511.0 332.0L486.0 332.0L486.0 263.0C486.0 261.89542 486.89542 261.0 488.0 261.0L509.0 261.0C510.10458 261.0 511.0 261.89542 511.0 263.0Z" fill-rule="nonzero"/><path fill="#fbbc04" clip-path="url(#id_0)" d="M511.0 332.0L486.0 332.0L486.0 263.0C486.0 261.89542 486.89542 261.0 488.0 261.0L509.0 261.0C510.10458 261.0 511.0 261.89542 511.0 263.0Z" fill-rule="nonzero"/><path stroke="#000000" stroke-width="2.0" stroke-linecap="butt" stroke-opacity="0.0" clip-path="url(#id_0)" d="M169.0 332.0L144.0 332.0L144.0 323.0C144.0 321.89542 144.89543 321.0 146.0 321.0L167.0 321.0C168.10457 321.0 169.0 321.89542 169.0 323.0Z" fill-rule="nonzero"/><path fill="#ea4335" clip-path="url(#id_0)" d="M169.0 332.0L144.0 332.0L144.0 323.0C144.0 321.89542 144.89543 321.0 146.0 321.0L167.0 321.0C168.10457 321.0 169.0 321.89542 169.0 323.0Z" fill-rule="nonzero"/><path stroke="#000000" stroke-width="2.0" stroke-linecap="butt" stroke-opacity="0.0" clip-path="url(#id_0)" d="M292.0 332.0L267.0 332.0L267.0 259.0C267.0 257.89542 267.89542 257.0 269.0 257.0L290.0 257.0C291.10458 257.0 292.0 257.89542 292.0 259.0Z" fill-rule="nonzero"/><path fill="#ea4335" clip-path="url(#id_0)" d="M292.0 332.0L267.0 332.0L267.0 259.0C267.0 257.89542 267.89542 257.0 269.0 257.0L290.0 257.0C291.10458 257.0 292.0 257.89542 292.0 259.0Z" fill-rule="nonzero"/><path stroke="#000000" stroke-width="2.0" stroke-linecap="butt" stroke-opacity="0.0" clip-path="url(#id_0)" d="M415.0 332.0L390.0 332.0L390.0 198.0C390.0 196.89543 390.89542 196.0 392.0 196.0L413.0 196.0C414.10458 196.0 415.0 196.89543 415.0 198.0Z" fill-rule="nonzero"/><path fill="#ea4335" clip-path="url(#id_0)" d="M415.0 332.0L390.0 332.0L390.0 198.0C390.0 196.89543 390.89542 196.0 392.0 196.0L413.0 196.0C414.10458 196.0 415.0 196.89543 415.0 198.0Z" fill-rule="nonzero"/><path stroke="#000000" stroke-width="2.0" stroke-linecap="butt" stroke-opacity="0.0" clip-path="url(#id_0)" d="M538.0 332.0L513.0 332.0L513.0 137.0C513.0 135.89543 513.89545 135.0 515.0 135.0L536.0 135.0C537.10455 135.0 538.0 135.89543 538.0 137.0Z" fill-rule="nonzero"/><path fill="#ea4335" clip-path="url(#id_0)" d="M538.0 332.0L513.0 332.0L513.0 137.0C513.0 135.89543 513.89545 135.0 515.0 135.0L536.0 135.0C537.10455 135.0 538.0 135.89543 538.0 137.0Z" fill-rule="nonzero"/><path fill="#000000" d="M33.05 332.21564Q33.05 330.6844 33.3625 329.7625Q33.675 328.825 34.284374 328.325Q34.909374 327.825 35.846874 327.825Q36.534374 327.825 37.05 328.10626Q37.58125 328.3875 37.925 328.91876Q38.26875 329.4344 38.45625 330.1844Q38.64375 330.9344 38.64375 332.21564Q38.64375 333.73126 38.33125 334.65314Q38.034374 335.575 37.409374 336.09064Q36.8 336.59064 35.846874 336.59064Q34.6125 336.59064 33.89375 335.7Q33.05 334.6375 33.05 332.21564ZM34.128124 332.21564Q34.128124 334.325 34.628124 335.02814Q35.128124 335.73126 35.846874 335.73126Q36.58125 335.73126 37.065624 335.02814Q37.565624 334.325 37.565624 332.21564Q37.565624 330.09064 37.065624 329.40314Q36.58125 328.7 35.83125 328.7Q35.1125 328.7 34.675 329.3094Q34.128124 330.09064 34.128124 332.21564Z" fill-rule="nonzero"/><path fill="#000000" d="M23.05 277.04895Q23.05 275.5177 23.3625 274.59583Q23.675 273.65833 24.284374 273.15833Q24.909374 272.65833 25.846874 272.65833Q26.534374 272.65833 27.05 272.93958Q27.58125 273.22083 27.925 273.75208Q28.26875 274.2677 28.45625 275.0177Q28.64375 275.7677 28.64375 277.04895Q28.64375 278.56458 28.33125 279.48645Q28.034374 280.40833 27.409374 280.92395Q26.8 281.42395 25.846874 281.42395Q24.6125 281.42395 23.89375 280.53333Q23.05 279.47083 23.05 277.04895ZM24.128124 277.04895Q24.128124 279.15833 24.628124 279.86145Q25.128124 280.56458 25.846874 280.56458Q26.58125 280.56458 27.065624 279.86145Q27.565624 279.15833 27.565624 277.04895Q27.565624 274.92395 27.065624 274.23645Q26.58125 273.53333 25.83125 273.53333Q25.1125 273.53333 24.675 274.1427Q24.128124 274.92395 24.128124 277.04895ZM30.64375 281.28333L30.64375 280.0802L31.846874 280.0802L31.846874 281.28333L30.64375 281.28333ZM38.596874 280.2677L38.596874 281.28333L32.909374 281.28333Q32.909374 280.90833 33.034374 280.54895Q33.253124 279.97083 33.721874 279.40833Q34.20625 278.84583 35.1125 278.11145Q36.51875 276.9552 37.003124 276.28333Q37.503124 275.61145 37.503124 275.0177Q37.503124 274.3927 37.05 273.97083Q36.596874 273.53333 35.878124 273.53333Q35.1125 273.53333 34.659374 273.98645Q34.20625 274.43958 34.190624 275.25208L33.1125 275.1427Q33.221874 273.92395 33.940624 273.29895Q34.675 272.65833 35.909374 272.65833Q37.14375 272.65833 37.8625 273.34583Q38.58125 274.03333 38.58125 275.04895Q38.58125 275.56458 38.3625 276.06458Q38.159374 276.54895 37.659374 277.11145Q37.175 277.65833 36.05 278.61145Q35.096874 279.40833 34.815624 279.7052Q34.55 279.98645 34.378124 280.2677L38.596874 280.2677Z" fill-rule="nonzero"/><path fill="#000000" d="M23.05 221.8823Q23.05 220.35104 23.3625 219.42917Q23.675 218.49167 24.284374 217.99167Q24.909374 217.49167 25.846874 217.49167Q26.534374 217.49167 27.05 217.77292Q27.58125 218.05417 27.925 218.58542Q28.26875 219.10104 28.45625 219.85104Q28.64375 220.60104 28.64375 221.8823Q28.64375 223.39792 28.33125 224.3198Q28.034374 225.24167 27.409374 225.7573Q26.8 226.2573 25.846874 226.2573Q24.6125 226.2573 23.89375 225.36667Q23.05 224.30417 23.05 221.8823ZM24.128124 221.8823Q24.128124 223.99167 24.628124 224.6948Q25.128124 225.39792 25.846874 225.39792Q26.58125 225.39792 27.065624 224.6948Q27.565624 223.99167 27.565624 221.8823Q27.565624 219.7573 27.065624 219.0698Q26.58125 218.36667 25.83125 218.36667Q25.1125 218.36667 24.675 218.97604Q24.128124 219.7573 24.128124 221.8823ZM30.64375 226.11667L30.64375 224.91354L31.846874 224.91354L31.846874 226.11667L30.64375 226.11667ZM36.425 226.11667L36.425 224.05417L32.70625 224.05417L32.70625 223.08542L36.628124 217.52292L37.4875 217.52292L37.4875 223.08542L38.64375 223.08542L38.64375 224.05417L37.4875 224.05417L37.4875 226.11667L36.425 226.11667ZM36.425 223.08542L36.425 219.22604L33.7375 223.08542L36.425 223.08542Z" fill-rule="nonzero"/><path fill="#000000" d="M23.05 166.71562Q23.05 165.18437 23.3625 164.2625Q23.675 163.325 24.284374 162.825Q24.909374 162.325 25.846874 162.325Q26.534374 162.325 27.05 162.60625Q27.58125 162.8875 27.925 163.41875Q28.26875 163.93437 28.45625 164.68437Q28.64375 165.43437 28.64375 166.71562Q28.64375 168.23125 28.33125 169.15312Q28.034374 170.075 27.409374 170.59062Q26.8 171.09062 25.846874 171.09062Q24.6125 171.09062 23.89375 170.2Q23.05 169.1375 23.05 166.71562ZM24.128124 166.71562Q24.128124 168.825 24.628124 169.52812Q25.128124 170.23125 25.846874 170.23125Q26.58125 170.23125 27.065624 169.52812Q27.565624 168.825 27.565624 166.71562Q27.565624 164.59062 27.065624 163.90312Q26.58125 163.2 25.83125 163.2Q25.1125 163.2 24.675 163.80937Q24.128124 164.59062 24.128124 166.71562ZM30.64375 170.95L30.64375 169.74687L31.846874 169.74687L31.846874 170.95L30.64375 170.95ZM38.51875 164.46562L37.471874 164.54375Q37.33125 163.91875 37.08125 163.6375Q36.64375 163.18437 36.01875 163.18437Q35.51875 163.18437 35.128124 163.46562Q34.64375 163.84062 34.346874 164.54375Q34.065624 165.23125 34.05 166.5125Q34.425 165.93437 34.971874 165.65312Q35.534374 165.37187 36.14375 165.37187Q37.190624 165.37187 37.925 166.15312Q38.675 166.93437 38.675 168.15312Q38.675 168.96562 38.315624 169.66875Q37.971874 170.35625 37.3625 170.73125Q36.753124 171.09062 35.9875 171.09062Q34.659374 171.09062 33.83125 170.12187Q33.003124 169.15312 33.003124 166.93437Q33.003124 164.43437 33.925 163.30937Q34.721874 162.325 36.08125 162.325Q37.096874 162.325 37.7375 162.90312Q38.39375 163.46562 38.51875 164.46562ZM34.221874 168.16875Q34.221874 168.71562 34.440624 169.21562Q34.675 169.7 35.08125 169.96562Q35.503124 170.23125 35.971874 170.23125Q36.628124 170.23125 37.1125 169.7Q37.596874 169.15312 37.596874 168.23125Q37.596874 167.34062 37.1125 166.825Q36.64375 166.30937 35.925 166.30937Q35.20625 166.30937 34.70625 166.825Q34.221874 167.34062 34.221874 168.16875Z" fill-rule="nonzero"/><path fill="#000000" d="M23.05 111.54896Q23.05 110.01771 23.3625 109.09583Q23.675 108.15833 24.284374 107.65833Q24.909374 107.15833 25.846874 107.15833Q26.534374 107.15833 27.05 107.43958Q27.58125 107.72083 27.925 108.25208Q28.26875 108.76771 28.45625 109.51771Q28.64375 110.26771 28.64375 111.54896Q28.64375 113.06458 28.33125 113.98646Q28.034374 114.90833 27.409374 115.42396Q26.8 115.92396 25.846874 115.92396Q24.6125 115.92396 23.89375 115.03333Q23.05 113.97083 23.05 111.54896ZM24.128124 111.54896Q24.128124 113.65833 24.628124 114.36146Q25.128124 115.06458 25.846874 115.06458Q26.58125 115.06458 27.065624 114.36146Q27.565624 113.65833 27.565624 111.54896Q27.565624 109.42396 27.065624 108.73646Q26.58125 108.03333 25.83125 108.03333Q25.1125 108.03333 24.675 108.64271Q24.128124 109.42396 24.128124 111.54896ZM30.64375 115.78333L30.64375 114.58021L31.846874 114.58021L31.846874 115.78333L30.64375 115.78333ZM34.675 111.12708Q34.01875 110.87708 33.690624 110.43958Q33.378124 109.98646 33.378124 109.37708Q33.378124 108.43958 34.05 107.79896Q34.7375 107.15833 35.846874 107.15833Q36.971874 107.15833 37.659374 107.81458Q38.346874 108.47083 38.346874 109.40833Q38.346874 110.00208 38.034374 110.43958Q37.721874 110.87708 37.08125 111.12708Q37.878124 111.37708 38.284374 111.95521Q38.690624 112.53333 38.690624 113.33021Q38.690624 114.42396 37.909374 115.17396Q37.14375 115.92396 35.8625 115.92396Q34.596874 115.92396 33.815624 115.17396Q33.034374 114.42396 33.034374 113.29896Q33.034374 112.45521 33.45625 111.89271Q33.89375 111.33021 34.675 111.12708ZM34.45625 109.33021Q34.45625 109.93958 34.846874 110.33021Q35.253124 110.72083 35.878124 110.72083Q36.4875 110.72083 36.878124 110.34583Q37.26875 109.95521 37.26875 109.39271Q37.26875 108.81458 36.8625 108.42396Q36.45625 108.01771 35.8625 108.01771Q35.253124 108.01771 34.846874 108.40833Q34.45625 108.79896 34.45625 109.33021ZM34.128124 113.29896Q34.128124 113.75208 34.33125 114.17396Q34.55 114.59583 34.971874 114.83021Q35.39375 115.06458 35.878124 115.06458Q36.628124 115.06458 37.1125 114.58021Q37.6125 114.09583 37.6125 113.34583Q37.6125 112.58021 37.1125 112.08021Q36.6125 111.58021 35.846874 111.58021Q35.096874 111.58021 34.6125 112.08021Q34.128124 112.56458 34.128124 113.29896Z" fill-rule="nonzero"/><path fill="#000000" d="M119.00377 351.84064L119.00377 343.23126L119.956894 343.23126L119.956894 344.02814Q120.300644 343.5594 120.72252 343.325Q121.16002 343.09064 121.769394 343.09064Q122.56627 343.09064 123.175644 343.4969Q123.78502 343.90314 124.081894 344.65314Q124.394394 345.40314 124.394394 346.29376Q124.394394 347.2469 124.050644 348.0125Q123.72252 348.77814 123.06627 349.1844Q122.41002 349.59064 121.69127 349.59064Q121.16002 349.59064 120.738144 349.3719Q120.31627 349.1375 120.050644 348.8094L120.050644 351.84064L119.00377 351.84064ZM119.956894 346.3719Q119.956894 347.575 120.44127 348.15314Q120.925644 348.71564 121.613144 348.71564Q122.31627 348.71564 122.81627 348.1219Q123.31627 347.52814 123.31627 346.27814Q123.31627 345.09064 122.831894 344.5125Q122.34752 343.91876 121.66002 343.91876Q120.988144 343.91876 120.47252 344.54376Q119.956894 345.16876 119.956894 346.3719ZM125.706894 345.21564Q125.706894 343.6844 126.019394 342.7625Q126.331894 341.825 126.94127 341.325Q127.56627 340.825 128.50377 340.825Q129.19127 340.825 129.7069 341.10626Q130.23814 341.3875 130.5819 341.91876Q130.92564 342.4344 131.11314 343.1844Q131.30064 343.9344 131.30064 345.21564Q131.30064 346.73126 130.98814 347.65314Q130.69127 348.575 130.06627 349.09064Q129.4569 349.59064 128.50377 349.59064Q127.269394 349.59064 126.550644 348.7Q125.706894 347.6375 125.706894 345.21564ZM126.78502 345.21564Q126.78502 347.325 127.28502 348.02814Q127.78502 348.73126 128.50377 348.73126Q129.23814 348.73126 129.72252 348.02814Q130.22252 347.325 130.22252 345.21564Q130.22252 343.09064 129.72252 342.40314Q129.23814 341.7 128.48814 341.7Q127.769394 341.7 127.331894 342.3094Q126.78502 343.09064 126.78502 345.21564ZM136.67564 349.45L135.62877 349.45L135.62877 342.73126Q135.23814 343.09064 134.61314 343.46564Q134.00377 343.825 133.5194 343.9969L133.5194 342.98126Q134.3944 342.5594 135.05064 341.98126Q135.72252 341.3875 136.00377 340.825L136.67564 340.825L136.67564 349.45Z" fill-rule="nonzero"/><path fill="#000000" d="M242.19917 351.84064L242.19917 343.23126L243.1523 343.23126L243.1523 344.02814Q243.49605 343.5594 243.91792 343.325Q244.35542 343.09064 244.9648 343.09064Q245.76167 343.09064 246.37105 343.4969Q246.98042 343.90314 247.2773 344.65314Q247.5898 345.40314 247.5898 346.29376Q247.5898 347.2469 247.24605 348.0125Q246.91792 348.77814 246.26167 349.1844Q245.60542 349.59064 244.88667 349.59064Q244.35542 349.59064 243.93355 349.3719Q243.51167 349.1375 243.24605 348.8094L243.24605 351.84064L242.19917 351.84064ZM243.1523 346.3719Q243.1523 347.575 243.63667 348.15314Q244.12105 348.71564 244.80855 348.71564Q245.51167 348.71564 246.01167 348.1219Q246.51167 347.52814 246.51167 346.27814Q246.51167 345.09064 246.0273 344.5125Q245.54292 343.91876 244.85542 343.91876Q244.18355 343.91876 243.66792 344.54376Q243.1523 345.16876 243.1523 346.3719ZM248.9023 347.2L250.01167 347.10626Q250.13667 347.91876 250.57417 348.325Q251.0273 348.73126 251.66792 348.73126Q252.41792 348.73126 252.94917 348.15314Q253.48042 347.575 253.48042 346.6375Q253.48042 345.73126 252.9648 345.21564Q252.4648 344.6844 251.63667 344.6844Q251.13667 344.6844 250.7148 344.91876Q250.30855 345.15314 250.07417 345.5125L249.0898 345.3875L249.91792 340.98126L254.19917 340.98126L254.19917 341.98126L250.76167 341.98126L250.30855 344.29376Q251.07417 343.7469 251.91792 343.7469Q253.04292 343.7469 253.80855 344.52814Q254.5898 345.3094 254.5898 346.54376Q254.5898 347.7 253.91792 348.5594Q253.0898 349.59064 251.66792 349.59064Q250.49605 349.59064 249.74605 348.9344Q249.01167 348.27814 248.9023 347.2ZM255.9023 345.21564Q255.9023 343.6844 256.21478 342.7625Q256.52728 341.825 257.13666 341.325Q257.76166 340.825 258.69916 340.825Q259.38666 340.825 259.90228 341.10626Q260.43353 341.3875 260.77728 341.91876Q261.12103 342.4344 261.30853 343.1844Q261.49603 343.9344 261.49603 345.21564Q261.49603 346.73126 261.18353 347.65314Q260.88666 348.575 260.26166 349.09064Q259.65228 349.59064 258.69916 349.59064Q257.46478 349.59064 256.74603 348.7Q255.9023 347.6375 255.9023 345.21564ZM256.9804 345.21564Q256.9804 347.325 257.4804 348.02814Q257.9804 348.73126 258.69916 348.73126Q259.43353 348.73126 259.9179 348.02814Q260.4179 347.325 260.4179 345.21564Q260.4179 343.09064 259.9179 342.40314Q259.43353 341.7 258.68353 341.7Q257.96478 341.7 257.52728 342.3094Q256.9804 343.09064 256.9804 345.21564Z" fill-rule="nonzero"/><path fill="#000000" d="M365.39456 351.84064L365.39456 343.23126L366.3477 343.23126L366.3477 344.02814Q366.69144 343.5594 367.1133 343.325Q367.5508 343.09064 368.1602 343.09064Q368.95706 343.09064 369.56644 343.4969Q370.1758 343.90314 370.4727 344.65314Q370.7852 345.40314 370.7852 346.29376Q370.7852 347.2469 370.44144 348.0125Q370.1133 348.77814 369.45706 349.1844Q368.8008 349.59064 368.08206 349.59064Q367.5508 349.59064 367.12894 349.3719Q366.70706 349.1375 366.44144 348.8094L366.44144 351.84064L365.39456 351.84064ZM366.3477 346.3719Q366.3477 347.575 366.83206 348.15314Q367.31644 348.71564 368.00394 348.71564Q368.70706 348.71564 369.20706 348.1219Q369.70706 347.52814 369.70706 346.27814Q369.70706 345.09064 369.2227 344.5125Q368.7383 343.91876 368.0508 343.91876Q367.37894 343.91876 366.8633 344.54376Q366.3477 345.16876 366.3477 346.3719ZM372.25394 347.46564L373.26956 347.3719Q373.39456 348.09064 373.75394 348.41876Q374.12894 348.73126 374.69144 348.73126Q375.1758 348.73126 375.5352 348.5125Q375.9102 348.27814 376.14456 347.91876Q376.37894 347.54376 376.5352 346.91876Q376.69144 346.27814 376.69144 345.6219Q376.69144 345.54376 376.69144 345.40314Q376.37894 345.90314 375.83206 346.23126Q375.2852 346.54376 374.64456 346.54376Q373.56644 346.54376 372.83206 345.77814Q372.0977 344.9969 372.0977 343.73126Q372.0977 342.41876 372.8633 341.6219Q373.64456 340.825 374.8008 340.825Q375.62894 340.825 376.31644 341.27814Q377.01956 341.73126 377.37894 342.575Q377.7383 343.40314 377.7383 344.98126Q377.7383 346.6219 377.37894 347.60626Q377.0352 348.575 376.31644 349.09064Q375.6133 349.59064 374.6758 349.59064Q373.6602 349.59064 373.01956 349.04376Q372.37894 348.48126 372.25394 347.46564ZM376.56644 343.66876Q376.56644 342.7625 376.08206 342.23126Q375.6133 341.7 374.9258 341.7Q374.2227 341.7 373.69144 342.27814Q373.1758 342.84064 373.1758 343.7625Q373.1758 344.575 373.6758 345.09064Q374.1758 345.60626 374.89456 345.60626Q375.62894 345.60626 376.0977 345.09064Q376.56644 344.575 376.56644 343.66876ZM379.0977 345.21564Q379.0977 343.6844 379.4102 342.7625Q379.7227 341.825 380.33206 341.325Q380.95706 340.825 381.89456 340.825Q382.58206 340.825 383.0977 341.10626Q383.62894 341.3875 383.9727 341.91876Q384.31644 342.4344 384.50394 343.1844Q384.69144 343.9344 384.69144 345.21564Q384.69144 346.73126 384.37894 347.65314Q384.08206 348.575 383.45706 349.09064Q382.8477 349.59064 381.89456 349.59064Q380.6602 349.59064 379.94144 348.7Q379.0977 347.6375 379.0977 345.21564ZM380.1758 345.21564Q380.1758 347.325 380.6758 348.02814Q381.1758 348.73126 381.89456 348.73126Q382.62894 348.73126 383.1133 348.02814Q383.6133 347.325 383.6133 345.21564Q383.6133 343.09064 383.1133 342.40314Q382.62894 341.7 381.87894 341.7Q381.1602 341.7 380.7227 342.3094Q380.1758 343.09064 380.1758 345.21564Z" fill-rule="nonzero"/><path fill="#000000" d="M488.58997 351.84064L488.58997 343.23126L489.5431 343.23126L489.5431 344.02814Q489.88684 343.5594 490.30872 343.325Q490.74622 343.09064 491.3556 343.09064Q492.15247 343.09064 492.76184 343.4969Q493.37122 343.90314 493.6681 344.65314Q493.9806 345.40314 493.9806 346.29376Q493.9806 347.2469 493.63684 348.0125Q493.30872 348.77814 492.65247 349.1844Q491.99622 349.59064 491.27747 349.59064Q490.74622 349.59064 490.32434 349.3719Q489.90247 349.1375 489.63684 348.8094L489.63684 351.84064L488.58997 351.84064ZM489.5431 346.3719Q489.5431 347.575 490.02747 348.15314Q490.51184 348.71564 491.19934 348.71564Q491.90247 348.71564 492.40247 348.1219Q492.90247 347.52814 492.90247 346.27814Q492.90247 345.09064 492.4181 344.5125Q491.93372 343.91876 491.24622 343.91876Q490.57434 343.91876 490.05872 344.54376Q489.5431 345.16876 489.5431 346.3719ZM495.44934 347.46564L496.46497 347.3719Q496.58997 348.09064 496.94934 348.41876Q497.32434 348.73126 497.88684 348.73126Q498.37122 348.73126 498.7306 348.5125Q499.1056 348.27814 499.33997 347.91876Q499.57434 347.54376 499.7306 346.91876Q499.88684 346.27814 499.88684 345.6219Q499.88684 345.54376 499.88684 345.40314Q499.57434 345.90314 499.02747 346.23126Q498.4806 346.54376 497.83997 346.54376Q496.76184 346.54376 496.02747 345.77814Q495.2931 344.9969 495.2931 343.73126Q495.2931 342.41876 496.05872 341.6219Q496.83997 340.825 497.99622 340.825Q498.82434 340.825 499.51184 341.27814Q500.21497 341.73126 500.57434 342.575Q500.93372 343.40314 500.93372 344.98126Q500.93372 346.6219 500.57434 347.60626Q500.2306 348.575 499.51184 349.09064Q498.80872 349.59064 497.87122 349.59064Q496.8556 349.59064 496.21497 349.04376Q495.57434 348.48126 495.44934 347.46564ZM499.76184 343.66876Q499.76184 342.7625 499.27747 342.23126Q498.80872 341.7 498.12122 341.7Q497.4181 341.7 496.88684 342.27814Q496.37122 342.84064 496.37122 343.7625Q496.37122 344.575 496.87122 345.09064Q497.37122 345.60626 498.08997 345.60626Q498.82434 345.60626 499.2931 345.09064Q499.76184 344.575 499.76184 343.66876ZM502.44934 347.46564L503.46497 347.3719Q503.58997 348.09064 503.94934 348.41876Q504.32434 348.73126 504.88684 348.73126Q505.37122 348.73126 505.7306 348.5125Q506.1056 348.27814 506.33997 347.91876Q506.57434 347.54376 506.7306 346.91876Q506.88684 346.27814 506.88684 345.6219Q506.88684 345.54376 506.88684 345.40314Q506.57434 345.90314 506.02747 346.23126Q505.4806 346.54376 504.83997 346.54376Q503.76184 346.54376 503.02747 345.77814Q502.2931 344.9969 502.2931 343.73126Q502.2931 342.41876 503.05872 341.6219Q503.83997 340.825 504.99622 340.825Q505.82434 340.825 506.51184 341.27814Q507.21497 341.73126 507.57434 342.575Q507.93372 343.40314 507.93372 344.98126Q507.93372 346.6219 507.57434 347.60626Q507.2306 348.575 506.51184 349.09064Q505.80872 349.59064 504.87122 349.59064Q503.8556 349.59064 503.21497 349.04376Q502.57434 348.48126 502.44934 347.46564ZM506.76184 343.66876Q506.76184 342.7625 506.27747 342.23126Q505.80872 341.7 505.12122 341.7Q504.4181 341.7 503.88684 342.27814Q503.37122 342.84064 503.37122 343.7625Q503.37122 344.575 503.87122 345.09064Q504.37122 345.60626 505.08997 345.60626Q505.82434 345.60626 506.2931 345.09064Q506.76184 344.575 506.76184 343.66876Z" fill-rule="nonzero"/><path fill="#34a853" d="M128.5 80.416664C128.5 79.86438 128.94771 79.416664 129.5 79.416664L139.5 79.416664C140.05229 79.416664 140.5 79.86438 140.5 80.416664L140.5 90.416664C140.5 90.96895 140.05229 91.416664 139.5 91.416664L129.5 91.416664C128.94771 91.416664 128.5 90.96895 128.5 90.416664Z" fill-rule="nonzero"/><path fill="#1a1a1a" d="M149.0 87.166664L150.10938 87.072914Q150.23438 87.885414 150.67188 88.291664Q151.125 88.697914 151.76562 88.697914Q152.51562 88.697914 153.04688 88.11979Q153.57812 87.541664 153.57812 86.604164Q153.57812 85.697914 153.0625 85.18229Q152.5625 84.65104 151.73438 84.65104Q151.23438 84.65104 150.8125 84.885414Q150.40625 85.11979 150.17188 85.479164L149.1875 85.354164L150.01562 80.947914L154.29688 80.947914L154.29688 81.947914L150.85938 81.947914L150.40625 84.260414Q151.17188 83.71354 152.01562 83.71354Q153.14062 83.71354 153.90625 84.49479Q154.6875 85.27604 154.6875 86.510414Q154.6875 87.666664 154.01562 88.52604Q153.1875 89.55729 151.76562 89.55729Q150.59375 89.55729 149.84375 88.90104Q149.10938 88.24479 149.0 87.166664ZM156.0 85.18229Q156.0 83.65104 156.3125 82.729164Q156.625 81.791664 157.23438 81.291664Q157.85938 80.791664 158.79688 80.791664Q159.48438 80.791664 160.0 81.072914Q160.53125 81.354164 160.875 81.885414Q161.21875 82.40104 161.40625 83.15104Q161.59375 83.90104 161.59375 85.18229Q161.59375 86.697914 161.28125 87.61979Q160.98438 88.541664 160.35938 89.05729Q159.75 89.55729 158.79688 89.55729Q157.5625 89.55729 156.84375 88.666664Q156.0 87.604164 156.0 85.18229ZM157.07812 85.18229Q157.07812 87.291664 157.57812 87.99479Q158.07812 88.697914 158.79688 88.697914Q159.53125 88.697914 160.01562 87.99479Q160.51562 87.291664 160.51562 85.18229Q160.51562 83.05729 160.01562 82.36979Q159.53125 81.666664 158.78125 81.666664Q158.0625 81.666664 157.625 82.27604Q157.07812 83.05729 157.07812 85.18229ZM163.0 85.18229Q163.0 83.65104 163.3125 82.729164Q163.625 81.791664 164.23438 81.291664Q164.85938 80.791664 165.79688 80.791664Q166.48438 80.791664 167.0 81.072914Q167.53125 81.354164 167.875 81.885414Q168.21875 82.40104 168.40625 83.15104Q168.59375 83.90104 168.59375 85.18229Q168.59375 86.697914 168.28125 87.61979Q167.98438 88.541664 167.35938 89.05729Q166.75 89.55729 165.79688 89.55729Q164.5625 89.55729 163.84375 88.666664Q163.0 87.604164 163.0 85.18229ZM164.07812 85.18229Q164.07812 87.291664 164.57812 87.99479Q165.07812 88.697914 165.79688 88.697914Q166.53125 88.697914 167.01562 87.99479Q167.51562 87.291664 167.51562 85.18229Q167.51562 83.05729 167.01562 82.36979Q166.53125 81.666664 165.78125 81.666664Q165.0625 81.666664 164.625 82.27604Q164.07812 83.05729 164.07812 85.18229ZM170.0 85.18229Q170.0 83.65104 170.3125 82.729164Q170.625 81.791664 171.23438 81.291664Q171.85938 80.791664 172.79688 80.791664Q173.48438 80.791664 174.0 81.072914Q174.53125 81.354164 174.875 81.885414Q175.21875 82.40104 175.40625 83.15104Q175.59375 83.90104 175.59375 85.18229Q175.59375 86.697914 175.28125 87.61979Q174.98438 88.541664 174.35938 89.05729Q173.75 89.55729 172.79688 89.55729Q171.5625 89.55729 170.84375 88.666664Q170.0 87.604164 170.0 85.18229ZM171.07812 85.18229Q171.07812 87.291664 171.57812 87.99479Q172.07812 88.697914 172.79688 88.697914Q173.53125 88.697914 174.01562 87.99479Q174.51562 87.291664 174.51562 85.18229Q174.51562 83.05729 174.01562 82.36979Q173.53125 81.666664 172.78125 81.666664Q172.0625 81.666664 171.625 82.27604Q171.07812 83.05729 171.07812 85.18229ZM179.875 87.55729L180.90625 87.40104Q181.0 88.02604 181.39062 88.354164Q181.79688 88.68229 182.53125 88.68229Q183.25 88.68229 183.59375 88.40104Q183.95312 88.104164 183.95312 87.697914Q183.95312 87.33854 183.64062 87.135414Q183.42188 86.99479 182.5625 86.77604Q181.40625 86.479164 180.95312 86.27604Q180.51562 86.05729 180.28125 85.68229Q180.04688 85.30729 180.04688 84.83854Q180.04688 84.43229 180.23438 84.072914Q180.42188 83.71354 180.75 83.479164Q181.0 83.30729 181.42188 83.18229Q181.84375 83.05729 182.34375 83.05729Q183.0625 83.05729 183.60938 83.27604Q184.17188 83.479164 184.4375 83.83854Q184.70312 84.197914 184.79688 84.791664L183.76562 84.93229Q183.70312 84.46354 183.35938 84.197914Q183.03125 83.916664 182.40625 83.916664Q181.6875 83.916664 181.375 84.166664Q181.0625 84.40104 181.0625 84.729164Q181.0625 84.93229 181.1875 85.08854Q181.32812 85.260414 181.59375 85.36979Q181.75 85.43229 182.53125 85.635414Q183.65625 85.947914 184.09375 86.135414Q184.53125 86.322914 184.78125 86.68229Q185.03125 87.041664 185.03125 87.58854Q185.03125 88.11979 184.71875 88.58854Q184.42188 89.041664 183.84375 89.30729Q183.26562 89.55729 182.53125 89.55729Q181.3125 89.55729 180.67188 89.05729Q180.04688 88.541664 179.875 87.55729ZM191.54688 87.416664L192.64062 87.541664Q192.39062 88.49479 191.6875 89.02604Q190.98438 89.55729 189.90625 89.55729Q188.54688 89.55729 187.73438 88.71354Q186.9375 87.86979 186.9375 86.354164Q186.9375 84.791664 187.75 83.93229Q188.5625 83.05729 189.84375 83.05729Q191.09375 83.05729 191.875 83.90104Q192.67188 84.74479 192.67188 86.291664Q192.67188 86.385414 192.67188 86.572914L188.03125 86.572914Q188.09375 87.604164 188.60938 88.15104Q189.125 88.68229 189.90625 88.68229Q190.48438 88.68229 190.89062 88.385414Q191.3125 88.072914 191.54688 87.416664ZM188.09375 85.71354L191.5625 85.71354Q191.5 84.916664 191.17188 84.52604Q190.65625 83.916664 189.85938 83.916664Q189.125 83.916664 188.625 84.40104Q188.14062 84.885414 188.09375 85.71354ZM194.28125 89.416664L194.28125 83.197914L195.23438 83.197914L195.23438 84.135414Q195.59375 83.479164 195.89062 83.27604Q196.20312 83.05729 196.57812 83.05729Q197.10938 83.05729 197.65625 83.385414L197.29688 84.36979Q196.90625 84.135414 196.53125 84.135414Q196.17188 84.135414 195.89062 84.354164Q195.625 84.55729 195.51562 84.93229Q195.32812 85.49479 195.32812 86.15104L195.32812 89.416664L194.28125 89.416664ZM200.01562 89.416664L197.65625 83.197914L198.76562 83.197914L200.10938 86.916664Q200.3125 87.52604 200.5 88.166664Q200.64062 87.68229 200.89062 86.99479L202.28125 83.197914L203.35938 83.197914L201.0 89.416664L200.01562 89.416664ZM203.29688 82.041664L203.29688 80.822914L204.35938 80.822914L204.35938 82.041664L203.29688 82.041664ZM203.29688 89.416664L203.29688 83.197914L204.35938 83.197914L204.35938 89.416664L203.29688 89.416664ZM210.35938 87.135414L211.39062 87.27604Q211.21875 88.33854 210.51562 88.947914Q209.8125 89.55729 208.79688 89.55729Q207.51562 89.55729 206.73438 88.729164Q205.96875 87.885414 205.96875 86.322914Q205.96875 85.322914 206.29688 84.572914Q206.64062 83.80729 207.3125 83.43229Q208.0 83.05729 208.8125 83.05729Q209.8125 83.05729 210.45312 83.572914Q211.10938 84.072914 211.29688 85.02604L210.26562 85.18229Q210.125 84.55729 209.75 84.24479Q209.375 83.916664 208.84375 83.916664Q208.04688 83.916664 207.54688 84.49479Q207.04688 85.05729 207.04688 86.291664Q207.04688 87.55729 207.53125 88.11979Q208.01562 88.68229 208.78125 88.68229Q209.40625 88.68229 209.8125 88.30729Q210.23438 87.93229 210.35938 87.135414ZM216.54688 87.416664L217.64062 87.541664Q217.39062 88.49479 216.6875 89.02604Q215.98438 89.55729 214.90625 89.55729Q213.54688 89.55729 212.73438 88.71354Q211.9375 87.86979 211.9375 86.354164Q211.9375 84.791664 212.75 83.93229Q213.5625 83.05729 214.84375 83.05729Q216.09375 83.05729 216.875 83.90104Q217.67188 84.74479 217.67188 86.291664Q217.67188 86.385414 217.67188 86.572914L213.03125 86.572914Q213.09375 87.604164 213.60938 88.15104Q214.125 88.68229 214.90625 88.68229Q215.48438 88.68229 215.89062 88.385414Q216.3125 88.072914 216.54688 87.416664ZM213.09375 85.71354L216.5625 85.71354Q216.5 84.916664 216.17188 84.52604Q215.65625 83.916664 214.85938 83.916664Q214.125 83.916664 213.625 84.40104Q213.14062 84.885414 213.09375 85.71354ZM218.875 87.55729L219.90625 87.40104Q220.0 88.02604 220.39062 88.354164Q220.79688 88.68229 221.53125 88.68229Q222.25 88.68229 222.59375 88.40104Q222.95312 88.104164 222.95312 87.697914Q222.95312 87.33854 222.64062 87.135414Q222.42188 86.99479 221.5625 86.77604Q220.40625 86.479164 219.95312 86.27604Q219.51562 86.05729 219.28125 85.68229Q219.04688 85.30729 219.04688 84.83854Q219.04688 84.43229 219.23438 84.072914Q219.42188 83.71354 219.75 83.479164Q220.0 83.30729 220.42188 83.18229Q220.84375 83.05729 221.34375 83.05729Q222.0625 83.05729 222.60938 83.27604Q223.17188 83.479164 223.4375 83.83854Q223.70312 84.197914 223.79688 84.791664L222.76562 84.93229Q222.70312 84.46354 222.35938 84.197914Q222.03125 83.916664 221.40625 83.916664Q220.6875 83.916664 220.375 84.166664Q220.0625 84.40104 220.0625 84.729164Q220.0625 84.93229 220.1875 85.08854Q220.32812 85.260414 220.59375 85.36979Q220.75 85.43229 221.53125 85.635414Q222.65625 85.947914 223.09375 86.135414Q223.53125 86.322914 223.78125 86.68229Q224.03125 87.041664 224.03125 87.58854Q224.03125 88.11979 223.71875 88.58854Q223.42188 89.041664 222.84375 89.30729Q222.26562 89.55729 221.53125 89.55729Q220.3125 89.55729 219.67188 89.05729Q219.04688 88.541664 218.875 87.55729Z" fill-rule="nonzero"/><path fill="#fbbc04" d="M241.5 80.416664C241.5 79.86438 241.94771 79.416664 242.5 79.416664L252.5 79.416664C253.05229 79.416664 253.5 79.86438 253.5 80.416664L253.5 90.416664C253.5 90.96895 253.05229 91.416664 252.5 91.416664L242.5 91.416664C241.94771 91.416664 241.5 90.96895 241.5 90.416664Z" fill-rule="nonzero"/><path fill="#1a1a1a" d="M265.96875 89.416664L264.92188 89.416664L264.92188 82.697914Q264.53125 83.05729 263.90625 83.43229Q263.29688 83.791664 262.8125 83.96354L262.8125 82.947914Q263.6875 82.52604 264.34375 81.947914Q265.01562 81.354164 265.29688 80.791664L265.96875 80.791664L265.96875 89.416664ZM269.0 85.18229Q269.0 83.65104 269.3125 82.729164Q269.625 81.791664 270.23438 81.291664Q270.85938 80.791664 271.79688 80.791664Q272.48438 80.791664 273.0 81.072914Q273.53125 81.354164 273.875 81.885414Q274.21875 82.40104 274.40625 83.15104Q274.59375 83.90104 274.59375 85.18229Q274.59375 86.697914 274.28125 87.61979Q273.98438 88.541664 273.35938 89.05729Q272.75 89.55729 271.79688 89.55729Q270.5625 89.55729 269.84375 88.666664Q269.0 87.604164 269.0 85.18229ZM270.07812 85.18229Q270.07812 87.291664 270.57812 87.99479Q271.07812 88.697914 271.79688 88.697914Q272.53125 88.697914 273.01562 87.99479Q273.51562 87.291664 273.51562 85.18229Q273.51562 83.05729 273.01562 82.36979Q272.53125 81.666664 271.78125 81.666664Q271.0625 81.666664 270.625 82.27604Q270.07812 83.05729 270.07812 85.18229ZM276.5625 89.416664L276.5625 88.21354L277.76562 88.21354L277.76562 89.416664Q277.76562 90.072914 277.53125 90.479164Q277.29688 90.90104 276.79688 91.11979L276.5 90.666664Q276.82812 90.52604 276.98438 90.229164Q277.14062 89.947914 277.17188 89.416664L276.5625 89.416664ZM279.0 85.18229Q279.0 83.65104 279.3125 82.729164Q279.625 81.791664 280.23438 81.291664Q280.85938 80.791664 281.79688 80.791664Q282.48438 80.791664 283.0 81.072914Q283.53125 81.354164 283.875 81.885414Q284.21875 82.40104 284.40625 83.15104Q284.59375 83.90104 284.59375 85.18229Q284.59375 86.697914 284.28125 87.61979Q283.98438 88.541664 283.35938 89.05729Q282.75 89.55729 281.79688 89.55729Q280.5625 89.55729 279.84375 88.666664Q279.0 87.604164 279.0 85.18229ZM280.07812 85.18229Q280.07812 87.291664 280.57812 87.99479Q281.07812 88.697914 281.79688 88.697914Q282.53125 88.697914 283.01562 87.99479Q283.51562 87.291664 283.51562 85.18229Q283.51562 83.05729 283.01562 82.36979Q282.53125 81.666664 281.78125 81.666664Q281.0625 81.666664 280.625 82.27604Q280.07812 83.05729 280.07812 85.18229ZM286.0 85.18229Q286.0 83.65104 286.3125 82.729164Q286.625 81.791664 287.23438 81.291664Q287.85938 80.791664 288.79688 80.791664Q289.48438 80.791664 290.0 81.072914Q290.53125 81.354164 290.875 81.885414Q291.21875 82.40104 291.40625 83.15104Q291.59375 83.90104 291.59375 85.18229Q291.59375 86.697914 291.28125 87.61979Q290.98438 88.541664 290.35938 89.05729Q289.75 89.55729 288.79688 89.55729Q287.5625 89.55729 286.84375 88.666664Q286.0 87.604164 286.0 85.18229ZM287.07812 85.18229Q287.07812 87.291664 287.57812 87.99479Q288.07812 88.697914 288.79688 88.697914Q289.53125 88.697914 290.01562 87.99479Q290.51562 87.291664 290.51562 85.18229Q290.51562 83.05729 290.01562 82.36979Q289.53125 81.666664 288.78125 81.666664Q288.0625 81.666664 287.625 82.27604Q287.07812 83.05729 287.07812 85.18229ZM293.0 85.18229Q293.0 83.65104 293.3125 82.729164Q293.625 81.791664 294.23438 81.291664Q294.85938 80.791664 295.79688 80.791664Q296.48438 80.791664 297.0 81.072914Q297.53125 81.354164 297.875 81.885414Q298.21875 82.40104 298.40625 83.15104Q298.59375 83.90104 298.59375 85.18229Q298.59375 86.697914 298.28125 87.61979Q297.98438 88.541664 297.35938 89.05729Q296.75 89.55729 295.79688 89.55729Q294.5625 89.55729 293.84375 88.666664Q293.0 87.604164 293.0 85.18229ZM294.07812 85.18229Q294.07812 87.291664 294.57812 87.99479Q295.07812 88.697914 295.79688 88.697914Q296.53125 88.697914 297.01562 87.99479Q297.51562 87.291664 297.51562 85.18229Q297.51562 83.05729 297.01562 82.36979Q296.53125 81.666664 295.78125 81.666664Q295.0625 81.666664 294.625 82.27604Q294.07812 83.05729 294.07812 85.18229ZM302.875 87.55729L303.90625 87.40104Q304.0 88.02604 304.39062 88.354164Q304.79688 88.68229 305.53125 88.68229Q306.25 88.68229 306.59375 88.40104Q306.95312 88.104164 306.95312 87.697914Q306.95312 87.33854 306.64062 87.135414Q306.42188 86.99479 305.5625 86.77604Q304.40625 86.479164 303.95312 86.27604Q303.51562 86.05729 303.28125 85.68229Q303.04688 85.30729 303.04688 84.83854Q303.04688 84.43229 303.23438 84.072914Q303.42188 83.71354 303.75 83.479164Q304.0 83.30729 304.42188 83.18229Q304.84375 83.05729 305.34375 83.05729Q306.0625 83.05729 306.60938 83.27604Q307.17188 83.479164 307.4375 83.83854Q307.70312 84.197914 307.79688 84.791664L306.76562 84.93229Q306.70312 84.46354 306.35938 84.197914Q306.03125 83.916664 305.40625 83.916664Q304.6875 83.916664 304.375 84.166664Q304.0625 84.40104 304.0625 84.729164Q304.0625 84.93229 304.1875 85.08854Q304.32812 85.260414 304.59375 85.36979Q304.75 85.43229 305.53125 85.635414Q306.65625 85.947914 307.09375 86.135414Q307.53125 86.322914 307.78125 86.68229Q308.03125 87.041664 308.03125 87.58854Q308.03125 88.11979 307.71875 88.58854Q307.42188 89.041664 306.84375 89.30729Q306.26562 89.55729 305.53125 89.55729Q304.3125 89.55729 303.67188 89.05729Q303.04688 88.541664 302.875 87.55729ZM314.54688 87.416664L315.64062 87.541664Q315.39062 88.49479 314.6875 89.02604Q313.98438 89.55729 312.90625 89.55729Q311.54688 89.55729 310.73438 88.71354Q309.9375 87.86979 309.9375 86.354164Q309.9375 84.791664 310.75 83.93229Q311.5625 83.05729 312.84375 83.05729Q314.09375 83.05729 314.875 83.90104Q315.67188 84.74479 315.67188 86.291664Q315.67188 86.385414 315.67188 86.572914L311.03125 86.572914Q311.09375 87.604164 311.60938 88.15104Q312.125 88.68229 312.90625 88.68229Q313.48438 88.68229 313.89062 88.385414Q314.3125 88.072914 314.54688 87.416664ZM311.09375 85.71354L314.5625 85.71354Q314.5 84.916664 314.17188 84.52604Q313.65625 83.916664 312.85938 83.916664Q312.125 83.916664 311.625 84.40104Q311.14062 84.885414 311.09375 85.71354ZM317.28125 89.416664L317.28125 83.197914L318.23438 83.197914L318.23438 84.135414Q318.59375 83.479164 318.89062 83.27604Q319.20312 83.05729 319.57812 83.05729Q320.10938 83.05729 320.65625 83.385414L320.29688 84.36979Q319.90625 84.135414 319.53125 84.135414Q319.17188 84.135414 318.89062 84.354164Q318.625 84.55729 318.51562 84.93229Q318.32812 85.49479 318.32812 86.15104L318.32812 89.416664L317.28125 89.416664ZM323.01562 89.416664L320.65625 83.197914L321.76562 83.197914L323.10938 86.916664Q323.3125 87.52604 323.5 88.166664Q323.64062 87.68229 323.89062 86.99479L325.28125 83.197914L326.35938 83.197914L324.0 89.416664L323.01562 89.416664ZM326.29688 82.041664L326.29688 80.822914L327.35938 80.822914L327.35938 82.041664L326.29688 82.041664ZM326.29688 89.416664L326.29688 83.197914L327.35938 83.197914L327.35938 89.416664L326.29688 89.416664ZM333.35938 87.135414L334.39062 87.27604Q334.21875 88.33854 333.51562 88.947914Q332.8125 89.55729 331.79688 89.55729Q330.51562 89.55729 329.73438 88.729164Q328.96875 87.885414 328.96875 86.322914Q328.96875 85.322914 329.29688 84.572914Q329.64062 83.80729 330.3125 83.43229Q331.0 83.05729 331.8125 83.05729Q332.8125 83.05729 333.45312 83.572914Q334.10938 84.072914 334.29688 85.02604L333.26562 85.18229Q333.125 84.55729 332.75 84.24479Q332.375 83.916664 331.84375 83.916664Q331.04688 83.916664 330.54688 84.49479Q330.04688 85.05729 330.04688 86.291664Q330.04688 87.55729 330.53125 88.11979Q331.01562 88.68229 331.78125 88.68229Q332.40625 88.68229 332.8125 88.30729Q333.23438 87.93229 333.35938 87.135414ZM339.54688 87.416664L340.64062 87.541664Q340.39062 88.49479 339.6875 89.02604Q338.98438 89.55729 337.90625 89.55729Q336.54688 89.55729 335.73438 88.71354Q334.9375 87.86979 334.9375 86.354164Q334.9375 84.791664 335.75 83.93229Q336.5625 83.05729 337.84375 83.05729Q339.09375 83.05729 339.875 83.90104Q340.67188 84.74479 340.67188 86.291664Q340.67188 86.385414 340.67188 86.572914L336.03125 86.572914Q336.09375 87.604164 336.60938 88.15104Q337.125 88.68229 337.90625 88.68229Q338.48438 88.68229 338.89062 88.385414Q339.3125 88.072914 339.54688 87.416664ZM336.09375 85.71354L339.5625 85.71354Q339.5 84.916664 339.17188 84.52604Q338.65625 83.916664 337.85938 83.916664Q337.125 83.916664 336.625 84.40104Q336.14062 84.885414 336.09375 85.71354ZM341.875 87.55729L342.90625 87.40104Q343.0 88.02604 343.39062 88.354164Q343.79688 88.68229 344.53125 88.68229Q345.25 88.68229 345.59375 88.40104Q345.95312 88.104164 345.95312 87.697914Q345.95312 87.33854 345.64062 87.135414Q345.42188 86.99479 344.5625 86.77604Q343.40625 86.479164 342.95312 86.27604Q342.51562 86.05729 342.28125 85.68229Q342.04688 85.30729 342.04688 84.83854Q342.04688 84.43229 342.23438 84.072914Q342.42188 83.71354 342.75 83.479164Q343.0 83.30729 343.42188 83.18229Q343.84375 83.05729 344.34375 83.05729Q345.0625 83.05729 345.60938 83.27604Q346.17188 83.479164 346.4375 83.83854Q346.70312 84.197914 346.79688 84.791664L345.76562 84.93229Q345.70312 84.46354 345.35938 84.197914Q345.03125 83.916664 344.40625 83.916664Q343.6875 83.916664 343.375 84.166664Q343.0625 84.40104 343.0625 84.729164Q343.0625 84.93229 343.1875 85.08854Q343.32812 85.260414 343.59375 85.36979Q343.75 85.43229 344.53125 85.635414Q345.65625 85.947914 346.09375 86.135414Q346.53125 86.322914 346.78125 86.68229Q347.03125 87.041664 347.03125 87.58854Q347.03125 88.11979 346.71875 88.58854Q346.42188 89.041664 345.84375 89.30729Q345.26562 89.55729 344.53125 89.55729Q343.3125 89.55729 342.67188 89.05729Q342.04688 88.541664 341.875 87.55729Z" fill-rule="nonzero"/><path fill="#ea4335" d="M364.5 80.416664C364.5 79.86438 364.94772 79.416664 365.5 79.416664L375.5 79.416664C376.05228 79.416664 376.5 79.86438 376.5 80.416664L376.5 90.416664C376.5 90.96895 376.05228 91.416664 375.5 91.416664L365.5 91.416664C364.94772 91.416664 364.5 90.96895 364.5 90.416664Z" fill-rule="nonzero"/><path fill="#1a1a1a" d="M385.0 87.15104L386.0625 87.010414Q386.23438 87.90104 386.67188 88.30729Q387.10938 88.697914 387.73438 88.697914Q388.48438 88.697914 389.0 88.18229Q389.51562 87.666664 389.51562 86.90104Q389.51562 86.18229 389.03125 85.71354Q388.5625 85.229164 387.82812 85.229164Q387.53125 85.229164 387.07812 85.354164L387.20312 84.416664Q387.3125 84.43229 387.375 84.43229Q388.04688 84.43229 388.57812 84.08854Q389.125 83.729164 389.125 82.99479Q389.125 82.416664 388.73438 82.041664Q388.34375 81.65104 387.71875 81.65104Q387.10938 81.65104 386.6875 82.041664Q386.28125 82.43229 386.17188 83.197914L385.10938 83.010414Q385.29688 81.96354 385.98438 81.385414Q386.67188 80.791664 387.6875 80.791664Q388.39062 80.791664 388.98438 81.104164Q389.57812 81.40104 389.89062 81.916664Q390.20312 82.43229 390.20312 83.02604Q390.20312 83.572914 389.90625 84.041664Q389.60938 84.49479 389.03125 84.760414Q389.78125 84.93229 390.20312 85.49479Q390.625 86.041664 390.625 86.885414Q390.625 88.010414 389.79688 88.791664Q388.98438 89.572914 387.73438 89.572914Q386.60938 89.572914 385.85938 88.90104Q385.10938 88.21354 385.0 87.15104ZM392.0 85.18229Q392.0 83.65104 392.3125 82.729164Q392.625 81.791664 393.23438 81.291664Q393.85938 80.791664 394.79688 80.791664Q395.48438 80.791664 396.0 81.072914Q396.53125 81.354164 396.875 81.885414Q397.21875 82.40104 397.40625 83.15104Q397.59375 83.90104 397.59375 85.18229Q397.59375 86.697914 397.28125 87.61979Q396.98438 88.541664 396.35938 89.05729Q395.75 89.55729 394.79688 89.55729Q393.5625 89.55729 392.84375 88.666664Q392.0 87.604164 392.0 85.18229ZM393.07812 85.18229Q393.07812 87.291664 393.57812 87.99479Q394.07812 88.697914 394.79688 88.697914Q395.53125 88.697914 396.01562 87.99479Q396.51562 87.291664 396.51562 85.18229Q396.51562 83.05729 396.01562 82.36979Q395.53125 81.666664 394.78125 81.666664Q394.0625 81.666664 393.625 82.27604Q393.07812 83.05729 393.07812 85.18229ZM399.5625 89.416664L399.5625 88.21354L400.76562 88.21354L400.76562 89.416664Q400.76562 90.072914 400.53125 90.479164Q400.29688 90.90104 399.79688 91.11979L399.5 90.666664Q399.82812 90.52604 399.98438 90.229164Q400.14062 89.947914 400.17188 89.416664L399.5625 89.416664ZM402.0 85.18229Q402.0 83.65104 402.3125 82.729164Q402.625 81.791664 403.23438 81.291664Q403.85938 80.791664 404.79688 80.791664Q405.48438 80.791664 406.0 81.072914Q406.53125 81.354164 406.875 81.885414Q407.21875 82.40104 407.40625 83.15104Q407.59375 83.90104 407.59375 85.18229Q407.59375 86.697914 407.28125 87.61979Q406.98438 88.541664 406.35938 89.05729Q405.75 89.55729 404.79688 89.55729Q403.5625 89.55729 402.84375 88.666664Q402.0 87.604164 402.0 85.18229ZM403.07812 85.18229Q403.07812 87.291664 403.57812 87.99479Q404.07812 88.697914 404.79688 88.697914Q405.53125 88.697914 406.01562 87.99479Q406.51562 87.291664 406.51562 85.18229Q406.51562 83.05729 406.01562 82.36979Q405.53125 81.666664 404.78125 81.666664Q404.0625 81.666664 403.625 82.27604Q403.07812 83.05729 403.07812 85.18229ZM409.0 85.18229Q409.0 83.65104 409.3125 82.729164Q409.625 81.791664 410.23438 81.291664Q410.85938 80.791664 411.79688 80.791664Q412.48438 80.791664 413.0 81.072914Q413.53125 81.354164 413.875 81.885414Q414.21875 82.40104 414.40625 83.15104Q414.59375 83.90104 414.59375 85.18229Q414.59375 86.697914 414.28125 87.61979Q413.98438 88.541664 413.35938 89.05729Q412.75 89.55729 411.79688 89.55729Q410.5625 89.55729 409.84375 88.666664Q409.0 87.604164 409.0 85.18229ZM410.07812 85.18229Q410.07812 87.291664 410.57812 87.99479Q411.07812 88.697914 411.79688 88.697914Q412.53125 88.697914 413.01562 87.99479Q413.51562 87.291664 413.51562 85.18229Q413.51562 83.05729 413.01562 82.36979Q412.53125 81.666664 411.78125 81.666664Q411.0625 81.666664 410.625 82.27604Q410.07812 83.05729 410.07812 85.18229ZM416.0 85.18229Q416.0 83.65104 416.3125 82.729164Q416.625 81.791664 417.23438 81.291664Q417.85938 80.791664 418.79688 80.791664Q419.48438 80.791664 420.0 81.072914Q420.53125 81.354164 420.875 81.885414Q421.21875 82.40104 421.40625 83.15104Q421.59375 83.90104 421.59375 85.18229Q421.59375 86.697914 421.28125 87.61979Q420.98438 88.541664 420.35938 89.05729Q419.75 89.55729 418.79688 89.55729Q417.5625 89.55729 416.84375 88.666664Q416.0 87.604164 416.0 85.18229ZM417.07812 85.18229Q417.07812 87.291664 417.57812 87.99479Q418.07812 88.697914 418.79688 88.697914Q419.53125 88.697914 420.01562 87.99479Q420.51562 87.291664 420.51562 85.18229Q420.51562 83.05729 420.01562 82.36979Q419.53125 81.666664 418.78125 81.666664Q418.0625 81.666664 417.625 82.27604Q417.07812 83.05729 417.07812 85.18229ZM425.875 87.55729L426.90625 87.40104Q427.0 88.02604 427.39062 88.354164Q427.79688 88.68229 428.53125 88.68229Q429.25 88.68229 429.59375 88.40104Q429.95312 88.104164 429.95312 87.697914Q429.95312 87.33854 429.64062 87.135414Q429.42188 86.99479 428.5625 86.77604Q427.40625 86.479164 426.95312 86.27604Q426.51562 86.05729 426.28125 85.68229Q426.04688 85.30729 426.04688 84.83854Q426.04688 84.43229 426.23438 84.072914Q426.42188 83.71354 426.75 83.479164Q427.0 83.30729 427.42188 83.18229Q427.84375 83.05729 428.34375 83.05729Q429.0625 83.05729 429.60938 83.27604Q430.17188 83.479164 430.4375 83.83854Q430.70312 84.197914 430.79688 84.791664L429.76562 84.93229Q429.70312 84.46354 429.35938 84.197914Q429.03125 83.916664 428.40625 83.916664Q427.6875 83.916664 427.375 84.166664Q427.0625 84.40104 427.0625 84.729164Q427.0625 84.93229 427.1875 85.08854Q427.32812 85.260414 427.59375 85.36979Q427.75 85.43229 428.53125 85.635414Q429.65625 85.947914 430.09375 86.135414Q430.53125 86.322914 430.78125 86.68229Q431.03125 87.041664 431.03125 87.58854Q431.03125 88.11979 430.71875 88.58854Q430.42188 89.041664 429.84375 89.30729Q429.26562 89.55729 428.53125 89.55729Q427.3125 89.55729 426.67188 89.05729Q426.04688 88.541664 425.875 87.55729ZM437.54688 87.416664L438.64062 87.541664Q438.39062 88.49479 437.6875 89.02604Q436.98438 89.55729 435.90625 89.55729Q434.54688 89.55729 433.73438 88.71354Q432.9375 87.86979 432.9375 86.354164Q432.9375 84.791664 433.75 83.93229Q434.5625 83.05729 435.84375 83.05729Q437.09375 83.05729 437.875 83.90104Q438.67188 84.74479 438.67188 86.291664Q438.67188 86.385414 438.67188 86.572914L434.03125 86.572914Q434.09375 87.604164 434.60938 88.15104Q435.125 88.68229 435.90625 88.68229Q436.48438 88.68229 436.89062 88.385414Q437.3125 88.072914 437.54688 87.416664ZM434.09375 85.71354L437.5625 85.71354Q437.5 84.916664 437.17188 84.52604Q436.65625 83.916664 435.85938 83.916664Q435.125 83.916664 434.625 84.40104Q434.14062 84.885414 434.09375 85.71354ZM440.28125 89.416664L440.28125 83.197914L441.23438 83.197914L441.23438 84.135414Q441.59375 83.479164 441.89062 83.27604Q442.20312 83.05729 442.57812 83.05729Q443.10938 83.05729 443.65625 83.385414L443.29688 84.36979Q442.90625 84.135414 442.53125 84.135414Q442.17188 84.135414 441.89062 84.354164Q441.625 84.55729 441.51562 84.93229Q441.32812 85.49479 441.32812 86.15104L441.32812 89.416664L440.28125 89.416664ZM446.01562 89.416664L443.65625 83.197914L444.76562 83.197914L446.10938 86.916664Q446.3125 87.52604 446.5 88.166664Q446.64062 87.68229 446.89062 86.99479L448.28125 83.197914L449.35938 83.197914L447.0 89.416664L446.01562 89.416664ZM449.29688 82.041664L449.29688 80.822914L450.35938 80.822914L450.35938 82.041664L449.29688 82.041664ZM449.29688 89.416664L449.29688 83.197914L450.35938 83.197914L450.35938 89.416664L449.29688 89.416664ZM456.35938 87.135414L457.39062 87.27604Q457.21875 88.33854 456.51562 88.947914Q455.8125 89.55729 454.79688 89.55729Q453.51562 89.55729 452.73438 88.729164Q451.96875 87.885414 451.96875 86.322914Q451.96875 85.322914 452.29688 84.572914Q452.64062 83.80729 453.3125 83.43229Q454.0 83.05729 454.8125 83.05729Q455.8125 83.05729 456.45312 83.572914Q457.10938 84.072914 457.29688 85.02604L456.26562 85.18229Q456.125 84.55729 455.75 84.24479Q455.375 83.916664 454.84375 83.916664Q454.04688 83.916664 453.54688 84.49479Q453.04688 85.05729 453.04688 86.291664Q453.04688 87.55729 453.53125 88.11979Q454.01562 88.68229 454.78125 88.68229Q455.40625 88.68229 455.8125 88.30729Q456.23438 87.93229 456.35938 87.135414ZM462.54688 87.416664L463.64062 87.541664Q463.39062 88.49479 462.6875 89.02604Q461.98438 89.55729 460.90625 89.55729Q459.54688 89.55729 458.73438 88.71354Q457.9375 87.86979 457.9375 86.354164Q457.9375 84.791664 458.75 83.93229Q459.5625 83.05729 460.84375 83.05729Q462.09375 83.05729 462.875 83.90104Q463.67188 84.74479 463.67188 86.291664Q463.67188 86.385414 463.67188 86.572914L459.03125 86.572914Q459.09375 87.604164 459.60938 88.15104Q460.125 88.68229 460.90625 88.68229Q461.48438 88.68229 461.89062 88.385414Q462.3125 88.072914 462.54688 87.416664ZM459.09375 85.71354L462.5625 85.71354Q462.5 84.916664 462.17188 84.52604Q461.65625 83.916664 460.85938 83.916664Q460.125 83.916664 459.625 84.40104Q459.14062 84.885414 459.09375 85.71354ZM464.875 87.55729L465.90625 87.40104Q466.0 88.02604 466.39062 88.354164Q466.79688 88.68229 467.53125 88.68229Q468.25 88.68229 468.59375 88.40104Q468.95312 88.104164 468.95312 87.697914Q468.95312 87.33854 468.64062 87.135414Q468.42188 86.99479 467.5625 86.77604Q466.40625 86.479164 465.95312 86.27604Q465.51562 86.05729 465.28125 85.68229Q465.04688 85.30729 465.04688 84.83854Q465.04688 84.43229 465.23438 84.072914Q465.42188 83.71354 465.75 83.479164Q466.0 83.30729 466.42188 83.18229Q466.84375 83.05729 467.34375 83.05729Q468.0625 83.05729 468.60938 83.27604Q469.17188 83.479164 469.4375 83.83854Q469.70312 84.197914 469.79688 84.791664L468.76562 84.93229Q468.70312 84.46354 468.35938 84.197914Q468.03125 83.916664 467.40625 83.916664Q466.6875 83.916664 466.375 84.166664Q466.0625 84.40104 466.0625 84.729164Q466.0625 84.93229 466.1875 85.08854Q466.32812 85.260414 466.59375 85.36979Q466.75 85.43229 467.53125 85.635414Q468.65625 85.947914 469.09375 86.135414Q469.53125 86.322914 469.78125 86.68229Q470.03125 87.041664 470.03125 87.58854Q470.03125 88.11979 469.71875 88.58854Q469.42188 89.041664 468.84375 89.30729Q468.26562 89.55729 467.53125 89.55729Q466.3125 89.55729 465.67188 89.05729Q465.04688 88.541664 464.875 87.55729Z" fill-rule="nonzero"/><path fill="#999999" d="M206.21875 63.05L206.21875 56.753124L205.125 56.753124L205.125 55.784374L206.21875 55.784374L206.21875 55.01875Q206.21875 54.284374 206.34375 53.925Q206.53125 53.45625 206.96875 53.159374Q207.42188 52.8625 208.23438 52.8625Q208.75 52.8625 209.375 52.9875L209.1875 54.05Q208.8125 53.9875 208.46875 53.9875Q207.90625 53.9875 207.67188 54.221874Q207.4375 54.45625 207.4375 55.1125L207.4375 55.784374L208.85938 55.784374L208.85938 56.753124L207.4375 56.753124L207.4375 63.05L206.21875 63.05ZM209.9375 54.440624L209.9375 53.034374L211.15625 53.034374L211.15625 54.440624L209.9375 54.440624ZM209.9375 63.05L209.9375 55.784374L211.15625 55.784374L211.15625 63.05L209.9375 63.05ZM212.90625 63.05L212.90625 55.784374L214.01562 55.784374L214.01562 56.89375Q214.4375 56.1125 214.79688 55.878124Q215.15625 55.628124 215.59375 55.628124Q216.21875 55.628124 216.85938 56.01875L216.4375 57.159374Q215.98438 56.89375 215.53125 56.89375Q215.125 56.89375 214.79688 57.14375Q214.48438 57.378124 214.34375 57.815624Q214.14062 58.471874 214.14062 59.253124L214.14062 63.05L212.90625 63.05ZM217.4375 60.878124L218.64062 60.690624Q218.75 61.425 219.21875 61.815624Q219.6875 62.20625 220.53125 62.20625Q221.375 62.20625 221.78125 61.8625Q222.20312 61.51875 222.20312 61.05Q222.20312 60.628124 221.82812 60.39375Q221.57812 60.221874 220.57812 59.971874Q219.21875 59.628124 218.6875 59.378124Q218.17188 59.128124 217.90625 58.690624Q217.64062 58.253124 217.64062 57.721874Q217.64062 57.2375 217.85938 56.83125Q218.07812 56.409374 218.46875 56.128124Q218.75 55.925 219.23438 55.784374Q219.73438 55.628124 220.3125 55.628124Q221.15625 55.628124 221.79688 55.878124Q222.45312 56.1125 222.76562 56.534374Q223.07812 56.95625 223.1875 57.659374L221.98438 57.83125Q221.90625 57.26875 221.5 56.95625Q221.10938 56.64375 220.39062 56.64375Q219.54688 56.64375 219.1875 56.925Q218.82812 57.190624 218.82812 57.58125Q218.82812 57.815624 218.96875 58.003124Q219.125 58.20625 219.45312 58.33125Q219.625 58.39375 220.53125 58.64375Q221.84375 59.003124 222.35938 59.221874Q222.875 59.440624 223.15625 59.8625Q223.45312 60.284374 223.45312 60.909374Q223.45312 61.534374 223.09375 62.08125Q222.75 62.6125 222.0625 62.925Q221.39062 63.221874 220.53125 63.221874Q219.125 63.221874 218.375 62.628124Q217.64062 62.034374 217.4375 60.878124ZM227.60938 61.95625L227.78125 63.034374Q227.26562 63.14375 226.85938 63.14375Q226.1875 63.14375 225.8125 62.940624Q225.45312 62.721874 225.29688 62.378124Q225.15625 62.034374 225.15625 60.925L225.15625 56.753124L224.25 56.753124L224.25 55.784374L225.15625 55.784374L225.15625 53.9875L226.375 53.253124L226.375 55.784374L227.60938 55.784374L227.60938 56.753124L226.375 56.753124L226.375 60.9875Q226.375 61.51875 226.4375 61.675Q226.5 61.815624 226.64062 61.909374Q226.79688 62.003124 227.0625 62.003124Q227.28125 62.003124 227.60938 61.95625ZM232.92188 65.83125L232.92188 55.784374L234.04688 55.784374L234.04688 56.7375Q234.4375 56.175 234.9375 55.909374Q235.4375 55.628124 236.15625 55.628124Q237.07812 55.628124 237.78125 56.1125Q238.5 56.58125 238.85938 57.45625Q239.21875 58.33125 239.21875 59.3625Q239.21875 60.471874 238.8125 61.378124Q238.42188 62.26875 237.65625 62.753124Q236.90625 63.221874 236.0625 63.221874Q235.45312 63.221874 234.95312 62.95625Q234.46875 62.690624 234.15625 62.3L234.15625 65.83125L232.92188 65.83125ZM234.03125 59.45625Q234.03125 60.8625 234.59375 61.534374Q235.17188 62.20625 235.98438 62.20625Q236.79688 62.20625 237.375 61.51875Q237.96875 60.815624 237.96875 59.3625Q237.96875 57.971874 237.39062 57.284374Q236.82812 56.596874 236.03125 56.596874Q235.25 56.596874 234.64062 57.33125Q234.03125 58.065624 234.03125 59.45625ZM245.65625 62.159374Q244.98438 62.7375 244.34375 62.9875Q243.71875 63.221874 242.98438 63.221874Q241.79688 63.221874 241.14062 62.64375Q240.5 62.05 240.5 61.128124Q240.5 60.596874 240.73438 60.159374Q240.98438 59.721874 241.375 59.45625Q241.78125 59.190624 242.26562 59.05Q242.625 58.95625 243.35938 58.8625Q244.85938 58.690624 245.5625 58.440624Q245.5625 58.190624 245.5625 58.128124Q245.5625 57.3625 245.21875 57.065624Q244.75 56.64375 243.8125 56.64375Q242.95312 56.64375 242.53125 56.95625Q242.125 57.253124 241.92188 58.01875L240.71875 57.8625Q240.875 57.08125 241.25 56.6125Q241.64062 56.14375 242.34375 55.89375Q243.0625 55.628124 244.0 55.628124Q244.92188 55.628124 245.5 55.846874Q246.07812 56.065624 246.34375 56.39375Q246.625 56.721874 246.73438 57.2375Q246.79688 57.55 246.79688 58.3625L246.79688 60.003124Q246.79688 61.721874 246.875 62.175Q246.95312 62.628124 247.1875 63.05L245.90625 63.05Q245.71875 62.659374 245.65625 62.159374ZM245.5625 59.409374Q244.89062 59.675 243.54688 59.878124Q242.79688 59.9875 242.46875 60.128124Q242.15625 60.253124 241.98438 60.51875Q241.8125 60.784374 241.8125 61.096874Q241.8125 61.596874 242.1875 61.925Q242.5625 62.253124 243.28125 62.253124Q244.0 62.253124 244.54688 61.940624Q245.09375 61.628124 245.35938 61.08125Q245.5625 60.675 245.5625 59.8625L245.5625 59.409374ZM253.65625 60.39375L254.875 60.55Q254.67188 61.8 253.84375 62.51875Q253.03125 63.221874 251.84375 63.221874Q250.35938 63.221874 249.45312 62.253124Q248.54688 61.26875 248.54688 59.440624Q248.54688 58.26875 248.9375 57.39375Q249.32812 56.503124 250.125 56.065624Q250.92188 55.628124 251.85938 55.628124Q253.03125 55.628124 253.78125 56.221874Q254.54688 56.815624 254.75 57.925L253.5625 58.1125Q253.39062 57.378124 252.95312 57.01875Q252.51562 56.64375 251.90625 56.64375Q250.96875 56.64375 250.39062 57.315624Q249.8125 57.971874 249.8125 59.409374Q249.8125 60.878124 250.375 61.55Q250.9375 62.20625 251.82812 62.20625Q252.5625 62.20625 253.04688 61.76875Q253.53125 61.315624 253.65625 60.39375ZM255.9375 63.05L255.9375 53.034374L257.15625 53.034374L257.15625 58.7375L260.07812 55.784374L261.67188 55.784374L258.89062 58.4875L261.95312 63.05L260.42188 63.05L258.03125 59.33125L257.15625 60.175L257.15625 63.05L255.9375 63.05ZM267.89062 60.70625L269.17188 60.8625Q268.85938 61.9875 268.04688 62.6125Q267.23438 63.221874 265.96875 63.221874Q264.375 63.221874 263.4375 62.2375Q262.51562 61.253124 262.51562 59.4875Q262.51562 57.64375 263.45312 56.64375Q264.40625 55.628124 265.90625 55.628124Q267.35938 55.628124 268.28125 56.628124Q269.20312 57.6125 269.20312 59.409374Q269.20312 59.51875 269.20312 59.7375L263.78125 59.7375Q263.85938 60.925 264.45312 61.565624Q265.0625 62.20625 265.98438 62.20625Q266.65625 62.20625 267.125 61.846874Q267.60938 61.4875 267.89062 60.70625ZM263.85938 58.721874L267.90625 58.721874Q267.82812 57.8 267.4375 57.346874Q266.85938 56.64375 265.92188 56.64375Q265.0625 56.64375 264.48438 57.20625Q263.92188 57.76875 263.85938 58.721874ZM273.60938 61.95625L273.78125 63.034374Q273.26562 63.14375 272.85938 63.14375Q272.1875 63.14375 271.8125 62.940624Q271.45312 62.721874 271.29688 62.378124Q271.15625 62.034374 271.15625 60.925L271.15625 56.753124L270.25 56.753124L270.25 55.784374L271.15625 55.784374L271.15625 53.9875L272.375 53.253124L272.375 55.784374L273.60938 55.784374L273.60938 56.753124L272.375 56.753124L272.375 60.9875Q272.375 61.51875 272.4375 61.675Q272.5 61.815624 272.64062 61.909374Q272.79688 62.003124 273.0625 62.003124Q273.28125 62.003124 273.60938 61.95625ZM278.90625 63.05L278.90625 55.784374L280.01562 55.784374L280.01562 56.89375Q280.4375 56.1125 280.79688 55.878124Q281.15625 55.628124 281.59375 55.628124Q282.21875 55.628124 282.85938 56.01875L282.4375 57.159374Q281.98438 56.89375 281.53125 56.89375Q281.125 56.89375 280.79688 57.14375Q280.48438 57.378124 280.34375 57.815624Q280.14062 58.471874 280.14062 59.253124L280.14062 63.05L278.90625 63.05ZM283.46875 59.425Q283.46875 57.409374 284.59375 56.425Q285.51562 55.628124 286.875 55.628124Q288.35938 55.628124 289.3125 56.6125Q290.26562 57.58125 290.26562 59.315624Q290.26562 60.721874 289.84375 61.534374Q289.42188 62.33125 288.60938 62.784374Q287.8125 63.221874 286.875 63.221874Q285.34375 63.221874 284.40625 62.2375Q283.46875 61.253124 283.46875 59.425ZM284.73438 59.425Q284.73438 60.815624 285.34375 61.51875Q285.95312 62.20625 286.875 62.20625Q287.78125 62.20625 288.39062 61.503124Q289.0 60.8 289.0 59.378124Q289.0 58.034374 288.39062 57.346874Q287.78125 56.64375 286.875 56.64375Q285.95312 56.64375 285.34375 57.33125Q284.73438 58.01875 284.73438 59.425ZM296.6875 63.05L296.6875 61.9875Q295.82812 63.221874 294.375 63.221874Q293.73438 63.221874 293.17188 62.971874Q292.625 62.721874 292.34375 62.346874Q292.07812 61.971874 291.96875 61.440624Q291.89062 61.08125 291.89062 60.284374L291.89062 55.784374L293.125 55.784374L293.125 59.815624Q293.125 60.784374 293.20312 61.1125Q293.3125 61.596874 293.6875 61.878124Q294.0625 62.159374 294.625 62.159374Q295.17188 62.159374 295.65625 61.878124Q296.14062 61.58125 296.34375 61.096874Q296.54688 60.6125 296.54688 59.675L296.54688 55.784374L297.78125 55.784374L297.78125 63.05L296.6875 63.05ZM299.92188 63.05L299.92188 55.784374L301.03125 55.784374L301.03125 56.815624Q301.82812 55.628124 303.34375 55.628124Q304.0 55.628124 304.54688 55.8625Q305.09375 56.096874 305.35938 56.4875Q305.64062 56.8625 305.75 57.39375Q305.82812 57.7375 305.82812 58.58125L305.82812 63.05L304.59375 63.05L304.59375 58.628124Q304.59375 57.878124 304.45312 57.51875Q304.3125 57.14375 303.9375 56.925Q303.57812 56.690624 303.07812 56.690624Q302.29688 56.690624 301.71875 57.190624Q301.15625 57.690624 301.15625 59.08125L301.15625 63.05L299.92188 63.05ZM312.64062 63.05L312.64062 62.128124Q311.9375 63.221874 310.60938 63.221874Q309.73438 63.221874 309.0 62.7375Q308.28125 62.253124 307.875 61.39375Q307.48438 60.534374 307.48438 59.425Q307.48438 58.346874 307.84375 57.45625Q308.20312 56.565624 308.92188 56.096874Q309.65625 55.628124 310.54688 55.628124Q311.20312 55.628124 311.71875 55.909374Q312.23438 56.175 312.54688 56.628124L312.54688 53.034374L313.78125 53.034374L313.78125 63.05L312.64062 63.05ZM308.75 59.425Q308.75 60.815624 309.32812 61.51875Q309.92188 62.20625 310.71875 62.20625Q311.53125 62.20625 312.09375 61.55Q312.65625 60.878124 312.65625 59.534374Q312.65625 58.034374 312.07812 57.346874Q311.5 56.64375 310.67188 56.64375Q309.84375 56.64375 309.29688 57.315624Q308.75 57.9875 308.75 59.425ZM322.60938 61.95625L322.78125 63.034374Q322.26562 63.14375 321.85938 63.14375Q321.1875 63.14375 320.8125 62.940624Q320.45312 62.721874 320.29688 62.378124Q320.15625 62.034374 320.15625 60.925L320.15625 56.753124L319.25 56.753124L319.25 55.784374L320.15625 55.784374L320.15625 53.9875L321.375 53.253124L321.375 55.784374L322.60938 55.784374L322.60938 56.753124L321.375 56.753124L321.375 60.9875Q321.375 61.51875 321.4375 61.675Q321.5 61.815624 321.64062 61.909374Q321.79688 62.003124 322.0625 62.003124Q322.28125 62.003124 322.60938 61.95625ZM323.90625 63.05L323.90625 55.784374L325.01562 55.784374L325.01562 56.89375Q325.4375 56.1125 325.79688 55.878124Q326.15625 55.628124 326.59375 55.628124Q327.21875 55.628124 327.85938 56.01875L327.4375 57.159374Q326.98438 56.89375 326.53125 56.89375Q326.125 56.89375 325.79688 57.14375Q325.48438 57.378124 325.34375 57.815624Q325.14062 58.471874 325.14062 59.253124L325.14062 63.05L323.90625 63.05ZM328.9375 54.440624L328.9375 53.034374L330.15625 53.034374L330.15625 54.440624L328.9375 54.440624ZM328.9375 63.05L328.9375 55.784374L330.15625 55.784374L330.15625 63.05L328.9375 63.05ZM331.92188 65.83125L331.92188 55.784374L333.04688 55.784374L333.04688 56.7375Q333.4375 56.175 333.9375 55.909374Q334.4375 55.628124 335.15625 55.628124Q336.07812 55.628124 336.78125 56.1125Q337.5 56.58125 337.85938 57.45625Q338.21875 58.33125 338.21875 59.3625Q338.21875 60.471874 337.8125 61.378124Q337.42188 62.26875 336.65625 62.753124Q335.90625 63.221874 335.0625 63.221874Q334.45312 63.221874 333.95312 62.95625Q333.46875 62.690624 333.15625 62.3L333.15625 65.83125L331.92188 65.83125ZM333.03125 59.45625Q333.03125 60.8625 333.59375 61.534374Q334.17188 62.20625 334.98438 62.20625Q335.79688 62.20625 336.375 61.51875Q336.96875 60.815624 336.96875 59.3625Q336.96875 57.971874 336.39062 57.284374Q335.82812 56.596874 335.03125 56.596874Q334.25 56.596874 333.64062 57.33125Q333.03125 58.065624 333.03125 59.45625ZM346.60938 61.95625L346.78125 63.034374Q346.26562 63.14375 345.85938 63.14375Q345.1875 63.14375 344.8125 62.940624Q344.45312 62.721874 344.29688 62.378124Q344.15625 62.034374 344.15625 60.925L344.15625 56.753124L343.25 56.753124L343.25 55.784374L344.15625 55.784374L344.15625 53.9875L345.375 53.253124L345.375 55.784374L346.60938 55.784374L346.60938 56.753124L345.375 56.753124L345.375 60.9875Q345.375 61.51875 345.4375 61.675Q345.5 61.815624 345.64062 61.909374Q345.79688 62.003124 346.0625 62.003124Q346.28125 62.003124 346.60938 61.95625ZM347.9375 54.440624L347.9375 53.034374L349.15625 53.034374L349.15625 54.440624L347.9375 54.440624ZM347.9375 63.05L347.9375 55.784374L349.15625 55.784374L349.15625 63.05L347.9375 63.05ZM350.92188 63.05L350.92188 55.784374L352.03125 55.784374L352.03125 56.815624Q352.35938 56.26875 352.92188 55.95625Q353.5 55.628124 354.21875 55.628124Q355.03125 55.628124 355.54688 55.971874Q356.0625 56.3 356.28125 56.89375Q357.14062 55.628124 358.51562 55.628124Q359.59375 55.628124 360.17188 56.221874Q360.76562 56.815624 360.76562 58.065624L360.76562 63.05L359.53125 63.05L359.53125 58.471874Q359.53125 57.7375 359.40625 57.409374Q359.29688 57.08125 358.98438 56.89375Q358.67188 56.690624 358.25 56.690624Q357.48438 56.690624 356.96875 57.20625Q356.46875 57.70625 356.46875 58.83125L356.46875 63.05L355.23438 63.05L355.23438 58.33125Q355.23438 57.51875 354.9375 57.1125Q354.64062 56.690624 353.95312 56.690624Q353.4375 56.690624 352.98438 56.971874Q352.54688 57.2375 352.34375 57.76875Q352.15625 58.284374 352.15625 59.284374L352.15625 63.05L350.92188 63.05ZM366.89062 60.70625L368.17188 60.8625Q367.85938 61.9875 367.04688 62.6125Q366.23438 63.221874 364.96875 63.221874Q363.375 63.221874 362.4375 62.2375Q361.51562 61.253124 361.51562 59.4875Q361.51562 57.64375 362.45312 56.64375Q363.40625 55.628124 364.90625 55.628124Q366.35938 55.628124 367.28125 56.628124Q368.20312 57.6125 368.20312 59.409374Q368.20312 59.51875 368.20312 59.7375L362.78125 59.7375Q362.85938 60.925 363.45312 61.565624Q364.0625 62.20625 364.98438 62.20625Q365.65625 62.20625 366.125 61.846874Q366.60938 61.4875 366.89062 60.70625ZM362.85938 58.721874L366.90625 58.721874Q366.82812 57.8 366.4375 57.346874Q365.85938 56.64375 364.92188 56.64375Q364.0625 56.64375 363.48438 57.20625Q362.92188 57.76875 362.85938 58.721874ZM370.25 63.05L370.25 61.64375L371.64062 61.64375L371.64062 63.05Q371.64062 63.815624 371.35938 64.28438Q371.09375 64.76875 370.5 65.03438L370.15625 64.50313Q370.54688 64.33125 370.73438 64.00313Q370.92188 63.675 370.9375 63.05L370.25 63.05ZM377.92188 63.05L377.92188 55.784374L379.03125 55.784374L379.03125 56.815624Q379.35938 56.26875 379.92188 55.95625Q380.5 55.628124 381.21875 55.628124Q382.03125 55.628124 382.54688 55.971874Q383.0625 56.3 383.28125 56.89375Q384.14062 55.628124 385.51562 55.628124Q386.59375 55.628124 387.17188 56.221874Q387.76562 56.815624 387.76562 58.065624L387.76562 63.05L386.53125 63.05L386.53125 58.471874Q386.53125 57.7375 386.40625 57.409374Q386.29688 57.08125 385.98438 56.89375Q385.67188 56.690624 385.25 56.690624Q384.48438 56.690624 383.96875 57.20625Q383.46875 57.70625 383.46875 58.83125L383.46875 63.05L382.23438 63.05L382.23438 58.33125Q382.23438 57.51875 381.9375 57.1125Q381.64062 56.690624 380.95312 56.690624Q380.4375 56.690624 379.98438 56.971874Q379.54688 57.2375 379.34375 57.76875Q379.15625 58.284374 379.15625 59.284374L379.15625 63.05L377.92188 63.05ZM388.4375 60.878124L389.64062 60.690624Q389.75 61.425 390.21875 61.815624Q390.6875 62.20625 391.53125 62.20625Q392.375 62.20625 392.78125 61.8625Q393.20312 61.51875 393.20312 61.05Q393.20312 60.628124 392.82812 60.39375Q392.57812 60.221874 391.57812 59.971874Q390.21875 59.628124 389.6875 59.378124Q389.17188 59.128124 388.90625 58.690624Q388.64062 58.253124 388.64062 57.721874Q388.64062 57.2375 388.85938 56.83125Q389.07812 56.409374 389.46875 56.128124Q389.75 55.925 390.23438 55.784374Q390.73438 55.628124 391.3125 55.628124Q392.15625 55.628124 392.79688 55.878124Q393.45312 56.1125 393.76562 56.534374Q394.07812 56.95625 394.1875 57.659374L392.98438 57.83125Q392.90625 57.26875 392.5 56.95625Q392.10938 56.64375 391.39062 56.64375Q390.54688 56.64375 390.1875 56.925Q389.82812 57.190624 389.82812 57.58125Q389.82812 57.815624 389.96875 58.003124Q390.125 58.20625 390.45312 58.33125Q390.625 58.39375 391.53125 58.64375Q392.84375 59.003124 393.35938 59.221874Q393.875 59.440624 394.15625 59.8625Q394.45312 60.284374 394.45312 60.909374Q394.45312 61.534374 394.09375 62.08125Q393.75 62.6125 393.0625 62.925Q392.39062 63.221874 391.53125 63.221874Q390.125 63.221874 389.375 62.628124Q388.64062 62.034374 388.4375 60.878124Z" fill-rule="nonzero"/><path fill="#757575" d="M132.82812 37.55L132.82812 23.2375L134.59375 23.2375L134.59375 31.39375L138.75 27.175L141.01562 27.175L137.0625 31.01875L141.42188 37.55L139.25 37.55L135.82812 32.253124L134.59375 33.440624L134.59375 37.55L132.82812 37.55ZM149.60938 37.55L149.60938 36.01875Q148.40625 37.784374 146.32812 37.784374Q145.40625 37.784374 144.60938 37.440624Q143.8125 37.08125 143.42188 36.55Q143.04688 36.01875 142.89062 35.2375Q142.78125 34.721874 142.78125 33.596874L142.78125 27.175L144.53125 27.175L144.53125 32.925Q144.53125 34.3 144.64062 34.784374Q144.8125 35.471874 145.34375 35.878124Q145.89062 36.26875 146.67188 36.26875Q147.46875 36.26875 148.15625 35.8625Q148.85938 35.45625 149.14062 34.76875Q149.4375 34.065624 149.4375 32.7375L149.4375 27.175L151.1875 27.175L151.1875 37.55L149.60938 37.55ZM154.4375 37.55L152.8125 37.55L152.8125 23.2375L154.5625 23.2375L154.5625 28.346874Q155.6875 26.940624 157.40625 26.940624Q158.35938 26.940624 159.21875 27.33125Q160.07812 27.721874 160.625 28.425Q161.17188 29.1125 161.48438 30.096874Q161.79688 31.08125 161.79688 32.20625Q161.79688 34.878124 160.48438 36.33125Q159.17188 37.784374 157.32812 37.784374Q155.48438 37.784374 154.4375 36.253124L154.4375 37.55ZM154.42188 32.284374Q154.42188 34.14375 154.92188 34.9875Q155.76562 36.33125 157.17188 36.33125Q158.32812 36.33125 159.15625 35.33125Q160.0 34.33125 160.0 32.346874Q160.0 30.315624 159.1875 29.3625Q158.39062 28.39375 157.25 28.39375Q156.09375 28.39375 155.25 29.39375Q154.42188 30.39375 154.42188 32.284374ZM170.92188 34.20625L172.73438 34.440624Q172.3125 36.01875 171.14062 36.909374Q169.98438 37.784374 168.17188 37.784374Q165.90625 37.784374 164.5625 36.39375Q163.23438 34.9875 163.23438 32.45625Q163.23438 29.83125 164.57812 28.39375Q165.92188 26.940624 168.07812 26.940624Q170.15625 26.940624 171.46875 28.3625Q172.79688 29.76875 172.79688 32.346874Q172.79688 32.503124 172.78125 32.815624L165.04688 32.815624Q165.14062 34.51875 166.01562 35.425Q166.89062 36.33125 168.1875 36.33125Q169.15625 36.33125 169.82812 35.83125Q170.51562 35.315624 170.92188 34.20625ZM165.14062 31.3625L170.9375 31.3625Q170.82812 30.065624 170.28125 29.409374Q169.4375 28.39375 168.09375 28.39375Q166.89062 28.39375 166.0625 29.20625Q165.23438 30.003124 165.14062 31.3625ZM174.14062 33.253124L174.14062 31.4875L179.53125 31.4875L179.53125 33.253124L174.14062 33.253124ZM181.8125 41.51875L181.8125 27.175L183.42188 27.175L183.42188 28.51875Q183.98438 27.7375 184.6875 27.346874Q185.40625 26.940624 186.42188 26.940624Q187.75 26.940624 188.76562 27.628124Q189.78125 28.315624 190.29688 29.565624Q190.82812 30.8 190.82812 32.284374Q190.82812 33.878124 190.25 35.159374Q189.6875 36.425 188.59375 37.1125Q187.5 37.784374 186.29688 37.784374Q185.42188 37.784374 184.71875 37.409374Q184.03125 37.034374 183.57812 36.471874L183.57812 41.51875L181.8125 41.51875ZM183.40625 32.425Q183.40625 34.425 184.21875 35.378124Q185.03125 36.33125 186.1875 36.33125Q187.35938 36.33125 188.1875 35.346874Q189.03125 34.3625 189.03125 32.26875Q189.03125 30.3 188.20312 29.315624Q187.39062 28.315624 186.26562 28.315624Q185.14062 28.315624 184.26562 29.378124Q183.40625 30.425 183.40625 32.425ZM192.79688 37.55L192.79688 27.175L194.375 27.175L194.375 28.753124Q194.98438 27.64375 195.5 27.3Q196.01562 26.940624 196.625 26.940624Q197.51562 26.940624 198.4375 27.503124L197.82812 29.14375Q197.1875 28.753124 196.54688 28.753124Q195.96875 28.753124 195.5 29.1125Q195.04688 29.45625 194.84375 30.065624Q194.5625 31.003124 194.5625 32.1125L194.5625 37.55L192.79688 37.55ZM199.17188 32.3625Q199.17188 29.4875 200.76562 28.096874Q202.10938 26.940624 204.03125 26.940624Q206.17188 26.940624 207.51562 28.346874Q208.875 29.753124 208.875 32.221874Q208.875 34.221874 208.28125 35.378124Q207.6875 36.51875 206.53125 37.159374Q205.39062 37.784374 204.03125 37.784374Q201.84375 37.784374 200.5 36.39375Q199.17188 34.9875 199.17188 32.3625ZM200.96875 32.3625Q200.96875 34.3625 201.82812 35.346874Q202.70312 36.33125 204.03125 36.33125Q205.34375 36.33125 206.20312 35.346874Q207.07812 34.346874 207.07812 32.3Q207.07812 30.378124 206.20312 29.39375Q205.32812 28.39375 204.03125 28.39375Q202.70312 28.39375 201.82812 29.39375Q200.96875 30.378124 200.96875 32.3625ZM209.64062 37.55L213.4375 32.159374L209.9375 27.175L212.125 27.175L213.71875 29.6125Q214.17188 30.3 214.4375 30.76875Q214.875 30.128124 215.23438 29.628124L216.98438 27.175L219.07812 27.175L215.5 32.065624L219.35938 37.55L217.20312 37.55L215.0625 34.33125L214.5 33.45625L211.78125 37.55L209.64062 37.55ZM219.73438 41.55L219.54688 39.89375Q220.125 40.05 220.54688 40.05Q221.14062 40.05 221.48438 39.846874Q221.84375 39.659374 222.0625 39.315624Q222.23438 39.05 222.60938 38.003124Q222.65625 37.846874 222.76562 37.565624L218.82812 27.175L220.71875 27.175L222.875 33.190624Q223.29688 34.33125 223.625 35.58125Q223.9375 34.378124 224.34375 33.221874L226.5625 27.175L228.32812 27.175L224.375 37.721874Q223.75 39.440624 223.39062 40.08125Q222.92188 40.95625 222.3125 41.346874Q221.71875 41.753124 220.875 41.753124Q220.35938 41.753124 219.73438 41.55ZM235.82812 25.253124L235.82812 23.2375L237.59375 23.2375L237.59375 25.253124L235.82812 25.253124ZM235.82812 37.55L235.82812 27.175L237.59375 27.175L237.59375 37.55L235.82812 37.55ZM239.8125 41.51875L239.8125 27.175L241.42188 27.175L241.42188 28.51875Q241.98438 27.7375 242.6875 27.346874Q243.40625 26.940624 244.42188 26.940624Q245.75 26.940624 246.76562 27.628124Q247.78125 28.315624 248.29688 29.565624Q248.82812 30.8 248.82812 32.284374Q248.82812 33.878124 248.25 35.159374Q247.6875 36.425 246.59375 37.1125Q245.5 37.784374 244.29688 37.784374Q243.42188 37.784374 242.71875 37.409374Q242.03125 37.034374 241.57812 36.471874L241.57812 41.51875L239.8125 41.51875ZM241.40625 32.425Q241.40625 34.425 242.21875 35.378124Q243.03125 36.33125 244.1875 36.33125Q245.35938 36.33125 246.1875 35.346874Q247.03125 34.3625 247.03125 32.26875Q247.03125 30.3 246.20312 29.315624Q245.39062 28.315624 244.26562 28.315624Q243.14062 28.315624 242.26562 29.378124Q241.40625 30.425 241.40625 32.425ZM254.65625 35.971874L254.90625 37.534374Q254.17188 37.690624 253.57812 37.690624Q252.625 37.690624 252.09375 37.39375Q251.57812 37.08125 251.35938 36.596874Q251.14062 36.096874 251.14062 34.51875L251.14062 28.55L249.85938 28.55L249.85938 27.175L251.14062 27.175L251.14062 24.6125L252.89062 23.55L252.89062 27.175L254.65625 27.175L254.65625 28.55L252.89062 28.55L252.89062 34.6125Q252.89062 35.3625 252.98438 35.58125Q253.07812 35.784374 253.28125 35.925Q253.5 36.05 253.89062 36.05Q254.17188 36.05 254.65625 35.971874ZM263.59375 36.26875Q262.60938 37.096874 261.70312 37.440624Q260.79688 37.784374 259.76562 37.784374Q258.0625 37.784374 257.14062 36.95625Q256.21875 36.1125 256.21875 34.815624Q256.21875 34.05 256.5625 33.425Q256.92188 32.8 257.48438 32.425Q258.04688 32.034374 258.75 31.83125Q259.26562 31.70625 260.3125 31.565624Q262.4375 31.315624 263.4375 30.971874Q263.45312 30.6125 263.45312 30.503124Q263.45312 29.440624 262.95312 28.9875Q262.28125 28.39375 260.95312 28.39375Q259.70312 28.39375 259.10938 28.83125Q258.53125 29.26875 258.25 30.378124L256.53125 30.14375Q256.76562 29.034374 257.29688 28.3625Q257.82812 27.675 258.84375 27.315624Q259.85938 26.940624 261.20312 26.940624Q262.53125 26.940624 263.35938 27.253124Q264.1875 27.565624 264.57812 28.05Q264.96875 28.51875 265.125 29.2375Q265.21875 29.690624 265.21875 30.8625L265.21875 33.20625Q265.21875 35.659374 265.32812 36.315624Q265.4375 36.95625 265.78125 37.55L263.9375 37.55Q263.67188 37.003124 263.59375 36.26875ZM263.4375 32.346874Q262.48438 32.7375 260.5625 33.003124Q259.48438 33.159374 259.03125 33.3625Q258.59375 33.55 258.34375 33.925Q258.09375 34.3 258.09375 34.76875Q258.09375 35.471874 258.625 35.940624Q259.15625 36.409374 260.1875 36.409374Q261.20312 36.409374 261.98438 35.971874Q262.78125 35.51875 263.15625 34.753124Q263.4375 34.14375 263.4375 32.9875L263.4375 32.346874ZM269.4375 37.55L267.8125 37.55L267.8125 23.2375L269.5625 23.2375L269.5625 28.346874Q270.6875 26.940624 272.40625 26.940624Q273.35938 26.940624 274.21875 27.33125Q275.07812 27.721874 275.625 28.425Q276.17188 29.1125 276.48438 30.096874Q276.79688 31.08125 276.79688 32.20625Q276.79688 34.878124 275.48438 36.33125Q274.17188 37.784374 272.32812 37.784374Q270.48438 37.784374 269.4375 36.253124L269.4375 37.55ZM269.42188 32.284374Q269.42188 34.14375 269.92188 34.9875Q270.76562 36.33125 272.17188 36.33125Q273.32812 36.33125 274.15625 35.33125Q275.0 34.33125 275.0 32.346874Q275.0 30.315624 274.1875 29.3625Q273.39062 28.39375 272.25 28.39375Q271.09375 28.39375 270.25 29.39375Q269.42188 30.39375 269.42188 32.284374ZM278.78125 37.55L278.78125 23.2375L280.53125 23.2375L280.53125 37.55L278.78125 37.55ZM289.92188 34.20625L291.73438 34.440624Q291.3125 36.01875 290.14062 36.909374Q288.98438 37.784374 287.17188 37.784374Q284.90625 37.784374 283.5625 36.39375Q282.23438 34.9875 282.23438 32.45625Q282.23438 29.83125 283.57812 28.39375Q284.92188 26.940624 287.07812 26.940624Q289.15625 26.940624 290.46875 28.3625Q291.79688 29.76875 291.79688 32.346874Q291.79688 32.503124 291.78125 32.815624L284.04688 32.815624Q284.14062 34.51875 285.01562 35.425Q285.89062 36.33125 287.1875 36.33125Q288.15625 36.33125 288.82812 35.83125Q289.51562 35.315624 289.92188 34.20625ZM284.14062 31.3625L289.9375 31.3625Q289.82812 30.065624 289.28125 29.409374Q288.4375 28.39375 287.09375 28.39375Q285.89062 28.39375 285.0625 29.20625Q284.23438 30.003124 284.14062 31.3625ZM293.10938 34.45625L294.85938 34.175Q295.0 35.221874 295.67188 35.784374Q296.34375 36.33125 297.54688 36.33125Q298.75 36.33125 299.32812 35.846874Q299.92188 35.346874 299.92188 34.690624Q299.92188 34.096874 299.40625 33.753124Q299.04688 33.51875 297.60938 33.159374Q295.67188 32.659374 294.92188 32.315624Q294.1875 31.95625 293.79688 31.33125Q293.40625 30.690624 293.40625 29.925Q293.40625 29.2375 293.71875 28.64375Q294.04688 28.05 294.59375 27.659374Q295.0 27.3625 295.70312 27.159374Q296.42188 26.940624 297.23438 26.940624Q298.45312 26.940624 299.375 27.3Q300.29688 27.64375 300.73438 28.253124Q301.17188 28.846874 301.34375 29.846874L299.625 30.08125Q299.5 29.284374 298.9375 28.846874Q298.375 28.39375 297.35938 28.39375Q296.14062 28.39375 295.625 28.8Q295.10938 29.190624 295.10938 29.721874Q295.10938 30.065624 295.32812 30.346874Q295.53125 30.628124 296.0 30.815624Q296.26562 30.909374 297.54688 31.253124Q299.42188 31.753124 300.15625 32.08125Q300.89062 32.39375 301.3125 33.003124Q301.73438 33.596874 301.73438 34.503124Q301.73438 35.378124 301.21875 36.159374Q300.70312 36.940624 299.73438 37.3625Q298.76562 37.784374 297.54688 37.784374Q295.53125 37.784374 294.46875 36.940624Q293.40625 36.096874 293.10938 34.45625ZM316.54688 37.55L316.54688 36.2375Q315.5625 37.784374 313.64062 37.784374Q312.40625 37.784374 311.35938 37.096874Q310.32812 36.409374 309.75 35.190624Q309.1875 33.971874 309.1875 32.378124Q309.1875 30.815624 309.70312 29.55Q310.21875 28.284374 311.25 27.6125Q312.29688 26.940624 313.5625 26.940624Q314.5 26.940624 315.23438 27.346874Q315.96875 27.7375 316.4375 28.3625L316.4375 23.2375L318.17188 23.2375L318.17188 37.55L316.54688 37.55ZM310.98438 32.378124Q310.98438 34.3625 311.82812 35.346874Q312.67188 36.33125 313.8125 36.33125Q314.96875 36.33125 315.76562 35.39375Q316.57812 34.45625 316.57812 32.51875Q316.57812 30.39375 315.75 29.39375Q314.9375 28.39375 313.73438 28.39375Q312.5625 28.39375 311.76562 29.3625Q310.98438 30.315624 310.98438 32.378124ZM327.59375 36.26875Q326.60938 37.096874 325.70312 37.440624Q324.79688 37.784374 323.76562 37.784374Q322.0625 37.784374 321.14062 36.95625Q320.21875 36.1125 320.21875 34.815624Q320.21875 34.05 320.5625 33.425Q320.92188 32.8 321.48438 32.425Q322.04688 32.034374 322.75 31.83125Q323.26562 31.70625 324.3125 31.565624Q326.4375 31.315624 327.4375 30.971874Q327.45312 30.6125 327.45312 30.503124Q327.45312 29.440624 326.95312 28.9875Q326.28125 28.39375 324.95312 28.39375Q323.70312 28.39375 323.10938 28.83125Q322.53125 29.26875 322.25 30.378124L320.53125 30.14375Q320.76562 29.034374 321.29688 28.3625Q321.82812 27.675 322.84375 27.315624Q323.85938 26.940624 325.20312 26.940624Q326.53125 26.940624 327.35938 27.253124Q328.1875 27.565624 328.57812 28.05Q328.96875 28.51875 329.125 29.2375Q329.21875 29.690624 329.21875 30.8625L329.21875 33.20625Q329.21875 35.659374 329.32812 36.315624Q329.4375 36.95625 329.78125 37.55L327.9375 37.55Q327.67188 37.003124 327.59375 36.26875ZM327.4375 32.346874Q326.48438 32.7375 324.5625 33.003124Q323.48438 33.159374 323.03125 33.3625Q322.59375 33.55 322.34375 33.925Q322.09375 34.3 322.09375 34.76875Q322.09375 35.471874 322.625 35.940624Q323.15625 36.409374 324.1875 36.409374Q325.20312 36.409374 325.98438 35.971874Q326.78125 35.51875 327.15625 34.753124Q327.4375 34.14375 327.4375 32.9875L327.4375 32.346874ZM335.65625 35.971874L335.90625 37.534374Q335.17188 37.690624 334.57812 37.690624Q333.625 37.690624 333.09375 37.39375Q332.57812 37.08125 332.35938 36.596874Q332.14062 36.096874 332.14062 34.51875L332.14062 28.55L330.85938 28.55L330.85938 27.175L332.14062 27.175L332.14062 24.6125L333.89062 23.55L333.89062 27.175L335.65625 27.175L335.65625 28.55L333.89062 28.55L333.89062 34.6125Q333.89062 35.3625 333.98438 35.58125Q334.07812 35.784374 334.28125 35.925Q334.5 36.05 334.89062 36.05Q335.17188 36.05 335.65625 35.971874ZM344.59375 36.26875Q343.60938 37.096874 342.70312 37.440624Q341.79688 37.784374 340.76562 37.784374Q339.0625 37.784374 338.14062 36.95625Q337.21875 36.1125 337.21875 34.815624Q337.21875 34.05 337.5625 33.425Q337.92188 32.8 338.48438 32.425Q339.04688 32.034374 339.75 31.83125Q340.26562 31.70625 341.3125 31.565624Q343.4375 31.315624 344.4375 30.971874Q344.45312 30.6125 344.45312 30.503124Q344.45312 29.440624 343.95312 28.9875Q343.28125 28.39375 341.95312 28.39375Q340.70312 28.39375 340.10938 28.83125Q339.53125 29.26875 339.25 30.378124L337.53125 30.14375Q337.76562 29.034374 338.29688 28.3625Q338.82812 27.675 339.84375 27.315624Q340.85938 26.940624 342.20312 26.940624Q343.53125 26.940624 344.35938 27.253124Q345.1875 27.565624 345.57812 28.05Q345.96875 28.51875 346.125 29.2375Q346.21875 29.690624 346.21875 30.8625L346.21875 33.20625Q346.21875 35.659374 346.32812 36.315624Q346.4375 36.95625 346.78125 37.55L344.9375 37.55Q344.67188 37.003124 344.59375 36.26875ZM344.4375 32.346874Q343.48438 32.7375 341.5625 33.003124Q340.48438 33.159374 340.03125 33.3625Q339.59375 33.55 339.34375 33.925Q339.09375 34.3 339.09375 34.76875Q339.09375 35.471874 339.625 35.940624Q340.15625 36.409374 341.1875 36.409374Q342.20312 36.409374 342.98438 35.971874Q343.78125 35.51875 344.15625 34.753124Q344.4375 34.14375 344.4375 32.9875L344.4375 32.346874ZM354.8125 41.51875L354.8125 27.175L356.42188 27.175L356.42188 28.51875Q356.98438 27.7375 357.6875 27.346874Q358.40625 26.940624 359.42188 26.940624Q360.75 26.940624 361.76562 27.628124Q362.78125 28.315624 363.29688 29.565624Q363.82812 30.8 363.82812 32.284374Q363.82812 33.878124 363.25 35.159374Q362.6875 36.425 361.59375 37.1125Q360.5 37.784374 359.29688 37.784374Q358.42188 37.784374 357.71875 37.409374Q357.03125 37.034374 356.57812 36.471874L356.57812 41.51875L354.8125 41.51875ZM356.40625 32.425Q356.40625 34.425 357.21875 35.378124Q358.03125 36.33125 359.1875 36.33125Q360.35938 36.33125 361.1875 35.346874Q362.03125 34.3625 362.03125 32.26875Q362.03125 30.3 361.20312 29.315624Q360.39062 28.315624 359.26562 28.315624Q358.14062 28.315624 357.26562 29.378124Q356.40625 30.425 356.40625 32.425ZM365.78125 37.55L365.78125 23.2375L367.53125 23.2375L367.53125 37.55L365.78125 37.55ZM376.59375 36.26875Q375.60938 37.096874 374.70312 37.440624Q373.79688 37.784374 372.76562 37.784374Q371.0625 37.784374 370.14062 36.95625Q369.21875 36.1125 369.21875 34.815624Q369.21875 34.05 369.5625 33.425Q369.92188 32.8 370.48438 32.425Q371.04688 32.034374 371.75 31.83125Q372.26562 31.70625 373.3125 31.565624Q375.4375 31.315624 376.4375 30.971874Q376.45312 30.6125 376.45312 30.503124Q376.45312 29.440624 375.95312 28.9875Q375.28125 28.39375 373.95312 28.39375Q372.70312 28.39375 372.10938 28.83125Q371.53125 29.26875 371.25 30.378124L369.53125 30.14375Q369.76562 29.034374 370.29688 28.3625Q370.82812 27.675 371.84375 27.315624Q372.85938 26.940624 374.20312 26.940624Q375.53125 26.940624 376.35938 27.253124Q377.1875 27.565624 377.57812 28.05Q377.96875 28.51875 378.125 29.2375Q378.21875 29.690624 378.21875 30.8625L378.21875 33.20625Q378.21875 35.659374 378.32812 36.315624Q378.4375 36.95625 378.78125 37.55L376.9375 37.55Q376.67188 37.003124 376.59375 36.26875ZM376.4375 32.346874Q375.48438 32.7375 373.5625 33.003124Q372.48438 33.159374 372.03125 33.3625Q371.59375 33.55 371.34375 33.925Q371.09375 34.3 371.09375 34.76875Q371.09375 35.471874 371.625 35.940624Q372.15625 36.409374 373.1875 36.409374Q374.20312 36.409374 374.98438 35.971874Q375.78125 35.51875 376.15625 34.753124Q376.4375 34.14375 376.4375 32.9875L376.4375 32.346874ZM380.8125 37.55L380.8125 27.175L382.40625 27.175L382.40625 28.659374Q383.54688 26.940624 385.70312 26.940624Q386.64062 26.940624 387.42188 27.284374Q388.21875 27.6125 388.60938 28.159374Q389.0 28.70625 389.15625 29.45625Q389.25 29.95625 389.25 31.175L389.25 37.55L387.48438 37.55L387.48438 31.2375Q387.48438 30.159374 387.28125 29.628124Q387.07812 29.096874 386.54688 28.784374Q386.03125 28.471874 385.32812 28.471874Q384.20312 28.471874 383.39062 29.190624Q382.57812 29.89375 382.57812 31.878124L382.57812 37.55L380.8125 37.55ZM397.92188 34.20625L399.73438 34.440624Q399.3125 36.01875 398.14062 36.909374Q396.98438 37.784374 395.17188 37.784374Q392.90625 37.784374 391.5625 36.39375Q390.23438 34.9875 390.23438 32.45625Q390.23438 29.83125 391.57812 28.39375Q392.92188 26.940624 395.07812 26.940624Q397.15625 26.940624 398.46875 28.3625Q399.79688 29.76875 399.79688 32.346874Q399.79688 32.503124 399.78125 32.815624L392.04688 32.815624Q392.14062 34.51875 393.01562 35.425Q393.89062 36.33125 395.1875 36.33125Q396.15625 36.33125 396.82812 35.83125Q397.51562 35.315624 397.92188 34.20625ZM392.14062 31.3625L397.9375 31.3625Q397.82812 30.065624 397.28125 29.409374Q396.4375 28.39375 395.09375 28.39375Q393.89062 28.39375 393.0625 29.20625Q392.23438 30.003124 392.14062 31.3625ZM407.78125 37.55L407.78125 23.2375L409.53125 23.2375L409.53125 37.55L407.78125 37.55ZM418.59375 36.26875Q417.60938 37.096874 416.70312 37.440624Q415.79688 37.784374 414.76562 37.784374Q413.0625 37.784374 412.14062 36.95625Q411.21875 36.1125 411.21875 34.815624Q411.21875 34.05 411.5625 33.425Q411.92188 32.8 412.48438 32.425Q413.04688 32.034374 413.75 31.83125Q414.26562 31.70625 415.3125 31.565624Q417.4375 31.315624 418.4375 30.971874Q418.45312 30.6125 418.45312 30.503124Q418.45312 29.440624 417.95312 28.9875Q417.28125 28.39375 415.95312 28.39375Q414.70312 28.39375 414.10938 28.83125Q413.53125 29.26875 413.25 30.378124L411.53125 30.14375Q411.76562 29.034374 412.29688 28.3625Q412.82812 27.675 413.84375 27.315624Q414.85938 26.940624 416.20312 26.940624Q417.53125 26.940624 418.35938 27.253124Q419.1875 27.565624 419.57812 28.05Q419.96875 28.51875 420.125 29.2375Q420.21875 29.690624 420.21875 30.8625L420.21875 33.20625Q420.21875 35.659374 420.32812 36.315624Q420.4375 36.95625 420.78125 37.55L418.9375 37.55Q418.67188 37.003124 418.59375 36.26875ZM418.4375 32.346874Q417.48438 32.7375 415.5625 33.003124Q414.48438 33.159374 414.03125 33.3625Q413.59375 33.55 413.34375 33.925Q413.09375 34.3 413.09375 34.76875Q413.09375 35.471874 413.625 35.940624Q414.15625 36.409374 415.1875 36.409374Q416.20312 36.409374 416.98438 35.971874Q417.78125 35.51875 418.15625 34.753124Q418.4375 34.14375 418.4375 32.9875L418.4375 32.346874ZM426.65625 35.971874L426.90625 37.534374Q426.17188 37.690624 425.57812 37.690624Q424.625 37.690624 424.09375 37.39375Q423.57812 37.08125 423.35938 36.596874Q423.14062 36.096874 423.14062 34.51875L423.14062 28.55L421.85938 28.55L421.85938 27.175L423.14062 27.175L423.14062 24.6125L424.89062 23.55L424.89062 27.175L426.65625 27.175L426.65625 28.55L424.89062 28.55L424.89062 34.6125Q424.89062 35.3625 424.98438 35.58125Q425.07812 35.784374 425.28125 35.925Q425.5 36.05 425.89062 36.05Q426.17188 36.05 426.65625 35.971874ZM435.92188 34.20625L437.73438 34.440624Q437.3125 36.01875 436.14062 36.909374Q434.98438 37.784374 433.17188 37.784374Q430.90625 37.784374 429.5625 36.39375Q428.23438 34.9875 428.23438 32.45625Q428.23438 29.83125 429.57812 28.39375Q430.92188 26.940624 433.07812 26.940624Q435.15625 26.940624 436.46875 28.3625Q437.79688 29.76875 437.79688 32.346874Q437.79688 32.503124 437.78125 32.815624L430.04688 32.815624Q430.14062 34.51875 431.01562 35.425Q431.89062 36.33125 433.1875 36.33125Q434.15625 36.33125 434.82812 35.83125Q435.51562 35.315624 435.92188 34.20625ZM430.14062 31.3625L435.9375 31.3625Q435.82812 30.065624 435.28125 29.409374Q434.4375 28.39375 433.09375 28.39375Q431.89062 28.39375 431.0625 29.20625Q430.23438 30.003124 430.14062 31.3625ZM439.8125 37.55L439.8125 27.175L441.40625 27.175L441.40625 28.659374Q442.54688 26.940624 444.70312 26.940624Q445.64062 26.940624 446.42188 27.284374Q447.21875 27.6125 447.60938 28.159374Q448.0 28.70625 448.15625 29.45625Q448.25 29.95625 448.25 31.175L448.25 37.55L446.48438 37.55L446.48438 31.2375Q446.48438 30.159374 446.28125 29.628124Q446.07812 29.096874 445.54688 28.784374Q445.03125 28.471874 444.32812 28.471874Q443.20312 28.471874 442.39062 29.190624Q441.57812 29.89375 441.57812 31.878124L441.57812 37.55L439.8125 37.55ZM456.59375 33.753124L458.3125 33.971874Q458.03125 35.76875 456.85938 36.784374Q455.70312 37.784374 454.0 37.784374Q451.875 37.784374 450.57812 36.39375Q449.28125 35.003124 449.28125 32.409374Q449.28125 30.721874 449.82812 29.471874Q450.39062 28.20625 451.53125 27.58125Q452.67188 26.940624 454.01562 26.940624Q455.70312 26.940624 456.76562 27.8Q457.84375 28.659374 458.15625 30.221874L456.4375 30.4875Q456.20312 29.440624 455.57812 28.925Q454.95312 28.39375 454.07812 28.39375Q452.75 28.39375 451.92188 29.346874Q451.09375 30.3 451.09375 32.346874Q451.09375 34.440624 451.89062 35.39375Q452.6875 36.33125 453.98438 36.33125Q455.01562 36.33125 455.70312 35.70625Q456.40625 35.065624 456.59375 33.753124ZM459.73438 41.55L459.54688 39.89375Q460.125 40.05 460.54688 40.05Q461.14062 40.05 461.48438 39.846874Q461.84375 39.659374 462.0625 39.315624Q462.23438 39.05 462.60938 38.003124Q462.65625 37.846874 462.76562 37.565624L458.82812 27.175L460.71875 27.175L462.875 33.190624Q463.29688 34.33125 463.625 35.58125Q463.9375 34.378124 464.34375 33.221874L466.5625 27.175L468.32812 27.175L464.375 37.721874Q463.75 39.440624 463.39062 40.08125Q462.92188 40.95625 462.3125 41.346874Q461.71875 41.753124 460.875 41.753124Q460.35938 41.753124 459.73438 41.55Z" fill-rule="nonzero"/></svg>