<svg version="1.1" viewBox="0.0 0.0 600.0 371.0" fill="none" stroke="none" stroke-linecap="square" stroke-miterlimit="10" width="600" height="371" xmlns:xlink="http://www.w3.org/1999/xlink" xmlns="http://www.w3.org/2000/svg"><path fill="#ffffff" d="M0 0L600.0 0L600.0 371.0L0 371.0L0 0Z" fill-rule="nonzero"/><path stroke="#333333" stroke-width="1.0" stroke-linecap="butt" d="M48.5 332.5L581.5 332.5" fill-rule="nonzero"/><path stroke="#cccccc" stroke-width="1.0" stroke-linecap="butt" d="M48.5 277.5L581.5 277.5" fill-rule="nonzero"/><path stroke="#cccccc" stroke-width="1.0" stroke-linecap="butt" d="M48.5 222.5L581.5 222.5" fill-rule="nonzero"/><path stroke="#cccccc" stroke-width="1.0" stroke-linecap="butt" d="M48.5 166.5L581.5 166.5" fill-rule="nonzero"/><path stroke="#cccccc" stroke-width="1.0" stroke-linecap="butt" d="M48.5 111.5L581.5 111.5" fill-rule="nonzero"/><clipPath id="id_0"><path d="M48.55 111.78333L581.45 111.78333L581.45 332.45L48.55 332.45L48.55 111.78333Z" clip-rule="nonzero"/></clipPath><path stroke="#000000" stroke-width="2.0" stroke-linecap="butt" stroke-opacity="0.0" clip-path="url(#id_0)" d="M117.0 332.0L92.0 332.0L92.0 289.0C92.0 287.89542 92.89543 287.0 94.0 287.0L115.0 287.0C116.10457 287.0 117.0 287.89542 117.0 289.0Z" fill-rule="nonzero"/><path fill="#46bdc6" clip-path="url(#id_0)" d="M117.0 332.0L92.0 332.0L92.0 289.0C92.0 287.89542 92.89543 287.0 94.0 287.0L115.0 287.0C116.10457 287.0 117.0 287.89542 117.0 289.0Z" fill-rule="nonzero"/><path stroke="#000000" stroke-width="2.0" stroke-linecap="butt" stroke-opacity="0.0" clip-path="url(#id_0)" d="M240.0 332.0L215.0 332.0L215.0 256.0C215.0 254.89543 215.89543 254.0 217.0 254.0L238.0 254.0C239.10457 254.0 240.0 254.89543 240.0 256.0Z" fill-rule="nonzero"/><path fill="#46bdc6" clip-path="url(#id_0)" d="M240.0 332.0L215.0 332.0L215.0 256.0C215.0 254.89543 215.89543 254.0 217.0 254.0L238.0 254.0C239.10457 254.0 240.0 254.89543 240.0 256.0Z" fill-rule="nonzero"/><path stroke="#000000" stroke-width="2.0" stroke-linecap="butt" stroke-opacity="0.0" clip-path="url(#id_0)" d="M362.0 332.0L337.0 332.0L337.0 217.0C337.0 215.89543 337.89542 215.0 339.0 215.0L360.0 215.0C361.10458 215.0 362.0 215.89543 362.0 217.0Z" fill-rule="nonzero"/><path fill="#46bdc6" clip-path="url(#id_0)" d="M362.0 332.0L337.0 332.0L337.0 217.0C337.0 215.89543 337.89542 215.0 339.0 215.0L360.0 215.0C361.10458 215.0 362.0 215.89543 362.0 217.0Z" fill-rule="nonzero"/><path stroke="#000000" stroke-width="2.0" stroke-linecap="butt" stroke-opacity="0.0" clip-path="url(#id_0)" d="M485.0 332.0L460.0 332.0L460.0 121.0C460.0 119.89543 460.89542 119.0 462.0 119.0L483.0 119.0C484.10458 119.0 485.0 119.89543 485.0 121.0Z" fill-rule="nonzero"/><path fill="#46bdc6" clip-path="url(#id_0)" d="M485.0 332.0L460.0 332.0L460.0 121.0C460.0 119.89543 460.89542 119.0 462.0 119.0L483.0 119.0C484.10458 119.0 485.0 119.89543 485.0 121.0Z" fill-rule="nonzero"/><path stroke="#000000" stroke-width="2.0" stroke-linecap="butt" stroke-opacity="0.0" clip-path="url(#id_0)" d="M144.0 332.0L119.0 332.0L119.0 289.0C119.0 287.89542 119.89543 287.0 121.0 287.0L142.0 287.0C143.10457 287.0 144.0 287.89542 144.0 289.0Z" fill-rule="nonzero"/><path fill="#ff8a01" clip-path="url(#id_0)" d="M144.0 332.0L119.0 332.0L119.0 289.0C119.0 287.89542 119.89543 287.0 121.0 287.0L142.0 287.0C143.10457 287.0 144.0 287.89542 144.0 289.0Z" fill-rule="nonzero"/><path stroke="#000000" stroke-width="2.0" stroke-linecap="butt" stroke-opacity="0.0" clip-path="url(#id_0)" d="M267.0 332.0L242.0 332.0L242.0 256.0C242.0 254.89543 242.89543 254.0 244.0 254.0L265.0 254.0C266.10458 254.0 267.0 254.89543 267.0 256.0Z" fill-rule="nonzero"/><path fill="#ff8a01" clip-path="url(#id_0)" d="M267.0 332.0L242.0 332.0L242.0 256.0C242.0 254.89543 242.89543 254.0 244.0 254.0L265.0 254.0C266.10458 254.0 267.0 254.89543 267.0 256.0Z" fill-rule="nonzero"/><path stroke="#000000" stroke-width="2.0" stroke-linecap="butt" stroke-opacity="0.0" clip-path="url(#id_0)" d="M389.0 332.0L364.0 332.0L364.0 218.0C364.0 216.89543 364.89542 216.0 366.0 216.0L387.0 216.0C388.10458 216.0 389.0 216.89543 389.0 218.0Z" fill-rule="nonzero"/><path fill="#ff8a01" clip-path="url(#id_0)" d="M389.0 332.0L364.0 332.0L364.0 218.0C364.0 216.89543 364.89542 216.0 366.0 216.0L387.0 216.0C388.10458 216.0 389.0 216.89543 389.0 218.0Z" fill-rule="nonzero"/><path stroke="#000000" stroke-width="2.0" stroke-linecap="butt" stroke-opacity="0.0" clip-path="url(#id_0)" d="M512.0 332.0L487.0 332.0L487.0 130.0C487.0 128.89543 487.89542 128.0 489.0 128.0L510.0 128.0C511.10458 128.0 512.0 128.89543 512.0 130.0Z" fill-rule="nonzero"/><path fill="#ff8a01" clip-path="url(#id_0)" d="M512.0 332.0L487.0 332.0L487.0 130.0C487.0 128.89543 487.89542 128.0 489.0 128.0L510.0 128.0C511.10458 128.0 512.0 128.89543 512.0 130.0Z" fill-rule="nonzero"/><path stroke="#000000" stroke-width="2.0" stroke-linecap="butt" stroke-opacity="0.0" clip-path="url(#id_0)" d="M171.0 332.0L146.0 332.0L146.0 289.0C146.0 287.89542 146.89543 287.0 148.0 287.0L169.0 287.0C170.10457 287.0 171.0 287.89542 171.0 289.0Z" fill-rule="nonzero"/><path fill="#cd468d" clip-path="url(#id_0)" d="M171.0 332.0L146.0 332.0L146.0 289.0C146.0 287.89542 146.89543 287.0 148.0 287.0L169.0 287.0C170.10457 287.0 171.0 287.89542 171.0 289.0Z" fill-rule="nonzero"/><path stroke="#000000" stroke-width="2.0" stroke-linecap="butt" stroke-opacity="0.0" clip-path="url(#id_0)" d="M294.0 332.0L269.0 332.0L269.0 255.0C269.0 253.89543 269.89542 253.0 271.0 253.0L292.0 253.0C293.10458 253.0 294.0 253.89543 294.0 255.0Z" fill-rule="nonzero"/><path fill="#cd468d" clip-path="url(#id_0)" d="M294.0 332.0L269.0 332.0L269.0 255.0C269.0 253.89543 269.89542 253.0 271.0 253.0L292.0 253.0C293.10458 253.0 294.0 253.89543 294.0 255.0Z" fill-rule="nonzero"/><path stroke="#000000" stroke-width="2.0" stroke-linecap="butt" stroke-opacity="0.0" clip-path="url(#id_0)" d="M416.0 332.0L391.0 332.0L391.0 215.0C391.0 213.89543 391.89542 213.0 393.0 213.0L414.0 213.0C415.10458 213.0 416.0 213.89543 416.0 215.0Z" fill-rule="nonzero"/><path fill="#cd468d" clip-path="url(#id_0)" d="M416.0 332.0L391.0 332.0L391.0 215.0C391.0 213.89543 391.89542 213.0 393.0 213.0L414.0 213.0C415.10458 213.0 416.0 213.89543 416.0 215.0Z" fill-rule="nonzero"/><path stroke="#000000" stroke-width="2.0" stroke-linecap="butt" stroke-opacity="0.0" clip-path="url(#id_0)" d="M539.0 332.0L514.0 332.0L514.0 122.0C514.0 120.89543 514.89545 120.0 516.0 120.0L537.0 120.0C538.10455 120.0 539.0 120.89543 539.0 122.0Z" fill-rule="nonzero"/><path fill="#cd468d" clip-path="url(#id_0)" d="M539.0 332.0L514.0 332.0L514.0 122.0C514.0 120.89543 514.89545 120.0 516.0 120.0L537.0 120.0C538.10455 120.0 539.0 120.89543 539.0 122.0Z" fill-rule="nonzero"/><path fill="#000000" d="M19.05 332.21564Q19.05 330.6844 19.3625 329.7625Q19.675 328.825 20.284374 328.325Q20.909374 327.825 21.846874 327.825Q22.534374 327.825 23.05 328.10626Q23.58125 328.3875 23.925 328.91876Q24.26875 329.4344 24.45625 330.1844Q24.64375 330.9344 24.64375 332.21564Q24.64375 333.73126 24.33125 334.65314Q24.034374 335.575 23.409374 336.09064Q22.8 336.59064 21.846874 336.59064Q20.6125 336.59064 19.89375 335.7Q19.05 334.6375 19.05 332.21564ZM20.128124 332.21564Q20.128124 334.325 20.628124 335.02814Q21.128124 335.73126 21.846874 335.73126Q22.58125 335.73126 23.065624 335.02814Q23.565624 334.325 23.565624 332.21564Q23.565624 330.09064 23.065624 329.40314Q22.58125 328.7 21.83125 328.7Q21.1125 328.7 20.675 329.3094Q20.128124 330.09064 20.128124 332.21564ZM26.64375 336.45L26.64375 335.2469L27.846874 335.2469L27.846874 336.45L26.64375 336.45ZM29.05 332.21564Q29.05 330.6844 29.3625 329.7625Q29.675 328.825 30.284374 328.325Q30.909374 327.825 31.846874 327.825Q32.534374 327.825 33.05 328.10626Q33.58125 328.3875 33.925 328.91876Q34.26875 329.4344 34.45625 330.1844Q34.64375 330.9344 34.64375 332.21564Q34.64375 333.73126 34.33125 334.65314Q34.034374 335.575 33.409374 336.09064Q32.8 336.59064 31.846874 336.59064Q30.6125 336.59064 29.89375 335.7Q29.05 334.6375 29.05 332.21564ZM30.128124 332.21564Q30.128124 334.325 30.628124 335.02814Q31.128124 335.73126 31.846874 335.73126Q32.58125 335.73126 33.065624 335.02814Q33.565624 334.325 33.565624 332.21564Q33.565624 330.09064 33.065624 329.40314Q32.58125 328.7 31.83125 328.7Q31.1125 328.7 30.675 329.3094Q30.128124 330.09064 30.128124 332.21564ZM36.05 332.21564Q36.05 330.6844 36.3625 329.7625Q36.675 328.825 37.284374 328.325Q37.909374 327.825 38.846874 327.825Q39.534374 327.825 40.05 328.10626Q40.58125 328.3875 40.925 328.91876Q41.26875 329.4344 41.45625 330.1844Q41.64375 330.9344 41.64375 332.21564Q41.64375 333.73126 41.33125 334.65314Q41.034374 335.575 40.409374 336.09064Q39.8 336.59064 38.846874 336.59064Q37.6125 336.59064 36.89375 335.7Q36.05 334.6375 36.05 332.21564ZM37.128124 332.21564Q37.128124 334.325 37.628124 335.02814Q38.128124 335.73126 38.846874 335.73126Q39.58125 335.73126 40.065624 335.02814Q40.565624 334.325 40.565624 332.21564Q40.565624 330.09064 40.065624 329.40314Q39.58125 328.7 38.83125 328.7Q38.1125 328.7 37.675 329.3094Q37.128124 330.09064 37.128124 332.21564Z" fill-rule="nonzero"/><path fill="#000000" d="M19.05 277.04895Q19.05 275.5177 19.3625 274.59583Q19.675 273.65833 20.284374 273.15833Q20.909374 272.65833 21.846874 272.65833Q22.534374 272.65833 23.05 272.93958Q23.58125 273.22083 23.925 273.75208Q24.26875 274.2677 24.45625 275.0177Q24.64375 275.7677 24.64375 277.04895Q24.64375 278.56458 24.33125 279.48645Q24.034374 280.40833 23.409374 280.92395Q22.8 281.42395 21.846874 281.42395Q20.6125 281.42395 19.89375 280.53333Q19.05 279.47083 19.05 277.04895ZM20.128124 277.04895Q20.128124 279.15833 20.628124 279.86145Q21.128124 280.56458 21.846874 280.56458Q22.58125 280.56458 23.065624 279.86145Q23.565624 279.15833 23.565624 277.04895Q23.565624 274.92395 23.065624 274.23645Q22.58125 273.53333 21.83125 273.53333Q21.1125 273.53333 20.675 274.1427Q20.128124 274.92395 20.128124 277.04895ZM26.64375 281.28333L26.64375 280.0802L27.846874 280.0802L27.846874 281.28333L26.64375 281.28333ZM29.05 277.04895Q29.05 275.5177 29.3625 274.59583Q29.675 273.65833 30.284374 273.15833Q30.909374 272.65833 31.846874 272.65833Q32.534374 272.65833 33.05 272.93958Q33.58125 273.22083 33.925 273.75208Q34.26875 274.2677 34.45625 275.0177Q34.64375 275.7677 34.64375 277.04895Q34.64375 278.56458 34.33125 279.48645Q34.034374 280.40833 33.409374 280.92395Q32.8 281.42395 31.846874 281.42395Q30.6125 281.42395 29.89375 280.53333Q29.05 279.47083 29.05 277.04895ZM30.128124 277.04895Q30.128124 279.15833 30.628124 279.86145Q31.128124 280.56458 31.846874 280.56458Q32.58125 280.56458 33.065624 279.86145Q33.565624 279.15833 33.565624 277.04895Q33.565624 274.92395 33.065624 274.23645Q32.58125 273.53333 31.83125 273.53333Q31.1125 273.53333 30.675 274.1427Q30.128124 274.92395 30.128124 277.04895ZM40.01875 281.28333L38.971874 281.28333L38.971874 274.56458Q38.58125 274.92395 37.95625 275.29895Q37.346874 275.65833 36.8625 275.8302L36.8625 274.81458Q37.7375 274.3927 38.39375 273.81458Q39.065624 273.22083 39.346874 272.65833L40.01875 272.65833L40.01875 281.28333Z" fill-rule="nonzero"/><path fill="#000000" d="M19.05 221.8823Q19.05 220.35104 19.3625 219.42917Q19.675 218.49167 20.284374 217.99167Q20.909374 217.49167 21.846874 217.49167Q22.534374 217.49167 23.05 217.77292Q23.58125 218.05417 23.925 218.58542Q24.26875 219.10104 24.45625 219.85104Q24.64375 220.60104 24.64375 221.8823Q24.64375 223.39792 24.33125 224.3198Q24.034374 225.24167 23.409374 225.7573Q22.8 226.2573 21.846874 226.2573Q20.6125 226.2573 19.89375 225.36667Q19.05 224.30417 19.05 221.8823ZM20.128124 221.8823Q20.128124 223.99167 20.628124 224.6948Q21.128124 225.39792 21.846874 225.39792Q22.58125 225.39792 23.065624 224.6948Q23.565624 223.99167 23.565624 221.8823Q23.565624 219.7573 23.065624 219.0698Q22.58125 218.36667 21.83125 218.36667Q21.1125 218.36667 20.675 218.97604Q20.128124 219.7573 20.128124 221.8823ZM26.64375 226.11667L26.64375 224.91354L27.846874 224.91354L27.846874 226.11667L26.64375 226.11667ZM29.05 221.8823Q29.05 220.35104 29.3625 219.42917Q29.675 218.49167 30.284374 217.99167Q30.909374 217.49167 31.846874 217.49167Q32.534374 217.49167 33.05 217.77292Q33.58125 218.05417 33.925 218.58542Q34.26875 219.10104 34.45625 219.85104Q34.64375 220.60104 34.64375 221.8823Q34.64375 223.39792 34.33125 224.3198Q34.034374 225.24167 33.409374 225.7573Q32.8 226.2573 31.846874 226.2573Q30.6125 226.2573 29.89375 225.36667Q29.05 224.30417 29.05 221.8823ZM30.128124 221.8823Q30.128124 223.99167 30.628124 224.6948Q31.128124 225.39792 31.846874 225.39792Q32.58125 225.39792 33.065624 224.6948Q33.565624 223.99167 33.565624 221.8823Q33.565624 219.7573 33.065624 219.0698Q32.58125 218.36667 31.83125 218.36667Q31.1125 218.36667 30.675 218.97604Q30.128124 219.7573 30.128124 221.8823ZM41.596874 225.10104L41.596874 226.11667L35.909374 226.11667Q35.909374 225.74167 36.034374 225.3823Q36.253124 224.80417 36.721874 224.24167Q37.20625 223.67917 38.1125 222.9448Q39.51875 221.78854 40.003124 221.11667Q40.503124 220.4448 40.503124 219.85104Q40.503124 219.22604 40.05 218.80417Q39.596874 218.36667 38.878124 218.36667Q38.1125 218.36667 37.659374 218.8198Q37.20625 219.27292 37.190624 220.08542L36.1125 219.97604Q36.221874 218.7573 36.940624 218.1323Q37.675 217.49167 38.909374 217.49167Q40.14375 217.49167 40.8625 218.17917Q41.58125 218.86667 41.58125 219.8823Q41.58125 220.39792 41.3625 220.89792Q41.159374 221.3823 40.659374 221.9448Q40.175 222.49167 39.05 223.4448Q38.096874 224.24167 37.815624 224.53854Q37.55 224.8198 37.378124 225.10104L41.596874 225.10104Z" fill-rule="nonzero"/><path fill="#000000" d="M19.05 166.71562Q19.05 165.18437 19.3625 164.2625Q19.675 163.325 20.284374 162.825Q20.909374 162.325 21.846874 162.325Q22.534374 162.325 23.05 162.60625Q23.58125 162.8875 23.925 163.41875Q24.26875 163.93437 24.45625 164.68437Q24.64375 165.43437 24.64375 166.71562Q24.64375 168.23125 24.33125 169.15312Q24.034374 170.075 23.409374 170.59062Q22.8 171.09062 21.846874 171.09062Q20.6125 171.09062 19.89375 170.2Q19.05 169.1375 19.05 166.71562ZM20.128124 166.71562Q20.128124 168.825 20.628124 169.52812Q21.128124 170.23125 21.846874 170.23125Q22.58125 170.23125 23.065624 169.52812Q23.565624 168.825 23.565624 166.71562Q23.565624 164.59062 23.065624 163.90312Q22.58125 163.2 21.83125 163.2Q21.1125 163.2 20.675 163.80937Q20.128124 164.59062 20.128124 166.71562ZM26.64375 170.95L26.64375 169.74687L27.846874 169.74687L27.846874 170.95L26.64375 170.95ZM29.05 166.71562Q29.05 165.18437 29.3625 164.2625Q29.675 163.325 30.284374 162.825Q30.909374 162.325 31.846874 162.325Q32.534374 162.325 33.05 162.60625Q33.58125 162.8875 33.925 163.41875Q34.26875 163.93437 34.45625 164.68437Q34.64375 165.43437 34.64375 166.71562Q34.64375 168.23125 34.33125 169.15312Q34.034374 170.075 33.409374 170.59062Q32.8 171.09062 31.846874 171.09062Q30.6125 171.09062 29.89375 170.2Q29.05 169.1375 29.05 166.71562ZM30.128124 166.71562Q30.128124 168.825 30.628124 169.52812Q31.128124 170.23125 31.846874 170.23125Q32.58125 170.23125 33.065624 169.52812Q33.565624 168.825 33.565624 166.71562Q33.565624 164.59062 33.065624 163.90312Q32.58125 163.2 31.83125 163.2Q31.1125 163.2 30.675 163.80937Q30.128124 164.59062 30.128124 166.71562ZM36.05 168.68437L37.1125 168.54375Q37.284374 169.43437 37.721874 169.84062Q38.159374 170.23125 38.784374 170.23125Q39.534374 170.23125 40.05 169.71562Q40.565624 169.2 40.565624 168.43437Q40.565624 167.71562 40.08125 167.24687Q39.6125 166.7625 38.878124 166.7625Q38.58125 166.7625 38.128124 166.8875L38.253124 165.95Q38.3625 165.96562 38.425 165.96562Q39.096874 165.96562 39.628124 165.62187Q40.175 165.2625 40.175 164.52812Q40.175 163.95 39.784374 163.575Q39.39375 163.18437 38.76875 163.18437Q38.159374 163.18437 37.7375 163.575Q37.33125 163.96562 37.221874 164.73125L36.159374 164.54375Q36.346874 163.49687 37.034374 162.91875Q37.721874 162.325 38.7375 162.325Q39.440624 162.325 40.034374 162.6375Q40.628124 162.93437 40.940624 163.45Q41.253124 163.96562 41.253124 164.55937Q41.253124 165.10625 40.95625 165.575Q40.659374 166.02812 40.08125 166.29375Q40.83125 166.46562 41.253124 167.02812Q41.675 167.575 41.675 168.41875Q41.675 169.54375 40.846874 170.325Q40.034374 171.10625 38.784374 171.10625Q37.659374 171.10625 36.909374 170.43437Q36.159374 169.74687 36.05 168.68437Z" fill-rule="nonzero"/><path fill="#000000" d="M19.05 111.54896Q19.05 110.01771 19.3625 109.09583Q19.675 108.15833 20.284374 107.65833Q20.909374 107.15833 21.846874 107.15833Q22.534374 107.15833 23.05 107.43958Q23.58125 107.72083 23.925 108.25208Q24.26875 108.76771 24.45625 109.51771Q24.64375 110.26771 24.64375 111.54896Q24.64375 113.06458 24.33125 113.98646Q24.034374 114.90833 23.409374 115.42396Q22.8 115.92396 21.846874 115.92396Q20.6125 115.92396 19.89375 115.03333Q19.05 113.97083 19.05 111.54896ZM20.128124 111.54896Q20.128124 113.65833 20.628124 114.36146Q21.128124 115.06458 21.846874 115.06458Q22.58125 115.06458 23.065624 114.36146Q23.565624 113.65833 23.565624 111.54896Q23.565624 109.42396 23.065624 108.73646Q22.58125 108.03333 21.83125 108.03333Q21.1125 108.03333 20.675 108.64271Q20.128124 109.42396 20.128124 111.54896ZM26.64375 115.78333L26.64375 114.58021L27.846874 114.58021L27.846874 115.78333L26.64375 115.78333ZM29.05 111.54896Q29.05 110.01771 29.3625 109.09583Q29.675 108.15833 30.284374 107.65833Q30.909374 107.15833 31.846874 107.15833Q32.534374 107.15833 33.05 107.43958Q33.58125 107.72083 33.925 108.25208Q34.26875 108.76771 34.45625 109.51771Q34.64375 110.26771 34.64375 111.54896Q34.64375 113.06458 34.33125 113.98646Q34.034374 114.90833 33.409374 115.42396Q32.8 115.92396 31.846874 115.92396Q30.6125 115.92396 29.89375 115.03333Q29.05 113.97083 29.05 111.54896ZM30.128124 111.54896Q30.128124 113.65833 30.628124 114.36146Q31.128124 115.06458 31.846874 115.06458Q32.58125 115.06458 33.065624 114.36146Q33.565624 113.65833 33.565624 111.54896Q33.565624 109.42396 33.065624 108.73646Q32.58125 108.03333 31.83125 108.03333Q31.1125 108.03333 30.675 108.64271Q30.128124 109.42396 30.128124 111.54896ZM39.425 115.78333L39.425 113.72083L35.70625 113.72083L35.70625 112.75208L39.628124 107.18958L40.4875 107.18958L40.4875 112.75208L41.64375 112.75208L41.64375 113.72083L40.4875 113.72083L40.4875 115.78333L39.425 115.78333ZM39.425 112.75208L39.425 108.89271L36.7375 112.75208L39.425 112.75208Z" fill-rule="nonzero"/><path fill="#000000" d="M121.53825 351.84064L121.53825 343.23126L122.49138 343.23126L122.49138 344.02814Q122.83513 343.5594 123.257 343.325Q123.6945 343.09064 124.30388 343.09064Q125.10075 343.09064 125.71013 343.4969Q126.3195 343.90314 126.61638 344.65314Q126.92888 345.40314 126.92888 346.29376Q126.92888 347.2469 126.58513 348.0125Q126.257 348.77814 125.60075 349.1844Q124.9445 349.59064 124.22575 349.59064Q123.6945 349.59064 123.27263 349.3719Q122.85075 349.1375 122.58513 348.8094L122.58513 351.84064L121.53825 351.84064ZM122.49138 346.3719Q122.49138 347.575 122.97575 348.15314Q123.46013 348.71564 124.14763 348.71564Q124.85075 348.71564 125.35075 348.1219Q125.85075 347.52814 125.85075 346.27814Q125.85075 345.09064 125.36638 344.5125Q124.882 343.91876 124.1945 343.91876Q123.52263 343.91876 123.007 344.54376Q122.49138 345.16876 122.49138 346.3719ZM128.24138 345.21564Q128.24138 343.6844 128.55388 342.7625Q128.86638 341.825 129.47575 341.325Q130.10075 340.825 131.03825 340.825Q131.72575 340.825 132.24138 341.10626Q132.77263 341.3875 133.11638 341.91876Q133.46013 342.4344 133.64763 343.1844Q133.83513 343.9344 133.83513 345.21564Q133.83513 346.73126 133.52263 347.65314Q133.22575 348.575 132.60075 349.09064Q131.99138 349.59064 131.03825 349.59064Q129.80388 349.59064 129.08513 348.7Q128.24138 347.6375 128.24138 345.21564ZM129.3195 345.21564Q129.3195 347.325 129.8195 348.02814Q130.3195 348.73126 131.03825 348.73126Q131.77263 348.73126 132.257 348.02814Q132.757 347.325 132.757 345.21564Q132.757 343.09064 132.257 342.40314Q131.77263 341.7 131.02263 341.7Q130.30388 341.7 129.86638 342.3094Q129.3195 343.09064 129.3195 345.21564ZM139.21013 349.45L138.16325 349.45L138.16325 342.73126Q137.77263 343.09064 137.14763 343.46564Q136.53825 343.825 136.05388 343.9969L136.05388 342.98126Q136.92888 342.5594 137.58513 341.98126Q138.257 341.3875 138.53825 340.825L139.21013 340.825L139.21013 349.45Z" fill-rule="nonzero"/><path fill="#000000" d="M244.044 351.84064L244.044 343.23126L244.99713 343.23126L244.99713 344.02814Q245.34088 343.5594 245.76276 343.325Q246.20026 343.09064 246.80963 343.09064Q247.6065 343.09064 248.21588 343.4969Q248.82526 343.90314 249.12213 344.65314Q249.43463 345.40314 249.43463 346.29376Q249.43463 347.2469 249.09088 348.0125Q248.76276 348.77814 248.1065 349.1844Q247.45026 349.59064 246.7315 349.59064Q246.20026 349.59064 245.77838 349.3719Q245.3565 349.1375 245.09088 348.8094L245.09088 351.84064L244.044 351.84064ZM244.99713 346.3719Q244.99713 347.575 245.4815 348.15314Q245.96588 348.71564 246.65338 348.71564Q247.3565 348.71564 247.8565 348.1219Q248.3565 347.52814 248.3565 346.27814Q248.3565 345.09064 247.87213 344.5125Q247.38776 343.91876 246.70026 343.91876Q246.02838 343.91876 245.51276 344.54376Q244.99713 345.16876 244.99713 346.3719ZM250.74713 347.2L251.8565 347.10626Q251.9815 347.91876 252.419 348.325Q252.87213 348.73126 253.51276 348.73126Q254.26276 348.73126 254.794 348.15314Q255.32526 347.575 255.32526 346.6375Q255.32526 345.73126 254.80963 345.21564Q254.30963 344.6844 253.4815 344.6844Q252.9815 344.6844 252.55963 344.91876Q252.15338 345.15314 251.919 345.5125L250.93463 345.3875L251.76276 340.98126L256.044 340.98126L256.044 341.98126L252.6065 341.98126L252.15338 344.29376Q252.919 343.7469 253.76276 343.7469Q254.88776 343.7469 255.65338 344.52814Q256.43463 345.3094 256.43463 346.54376Q256.43463 347.7 255.76276 348.5594Q254.93463 349.59064 253.51276 349.59064Q252.34088 349.59064 251.59088 348.9344Q250.8565 348.27814 250.74713 347.2ZM257.74713 345.21564Q257.74713 343.6844 258.05963 342.7625Q258.37213 341.825 258.9815 341.325Q259.6065 340.825 260.544 340.825Q261.2315 340.825 261.74713 341.10626Q262.27838 341.3875 262.62213 341.91876Q262.96588 342.4344 263.15338 343.1844Q263.34088 343.9344 263.34088 345.21564Q263.34088 346.73126 263.02838 347.65314Q262.7315 348.575 262.1065 349.09064Q261.49713 349.59064 260.544 349.59064Q259.30963 349.59064 258.59088 348.7Q257.74713 347.6375 257.74713 345.21564ZM258.82526 345.21564Q258.82526 347.325 259.32526 348.02814Q259.82526 348.73126 260.544 348.73126Q261.27838 348.73126 261.76276 348.02814Q262.26276 347.325 262.26276 345.21564Q262.26276 343.09064 261.76276 342.40314Q261.27838 341.7 260.52838 341.7Q259.80963 341.7 259.37213 342.3094Q258.82526 343.09064 258.82526 345.21564Z" fill-rule="nonzero"/><path fill="#000000" d="M366.54974 351.84064L366.54974 343.23126L367.50287 343.23126L367.50287 344.02814Q367.84662 343.5594 368.2685 343.325Q368.706 343.09064 369.31537 343.09064Q370.11224 343.09064 370.72162 343.4969Q371.331 343.90314 371.62787 344.65314Q371.94037 345.40314 371.94037 346.29376Q371.94037 347.2469 371.59662 348.0125Q371.2685 348.77814 370.61224 349.1844Q369.956 349.59064 369.23724 349.59064Q368.706 349.59064 368.28412 349.3719Q367.86224 349.1375 367.59662 348.8094L367.59662 351.84064L366.54974 351.84064ZM367.50287 346.3719Q367.50287 347.575 367.98724 348.15314Q368.47162 348.71564 369.15912 348.71564Q369.86224 348.71564 370.36224 348.1219Q370.86224 347.52814 370.86224 346.27814Q370.86224 345.09064 370.37787 344.5125Q369.8935 343.91876 369.206 343.91876Q368.53412 343.91876 368.0185 344.54376Q367.50287 345.16876 367.50287 346.3719ZM373.40912 347.46564L374.42474 347.3719Q374.54974 348.09064 374.90912 348.41876Q375.28412 348.73126 375.84662 348.73126Q376.331 348.73126 376.69037 348.5125Q377.06537 348.27814 377.29974 347.91876Q377.53412 347.54376 377.69037 346.91876Q377.84662 346.27814 377.84662 345.6219Q377.84662 345.54376 377.84662 345.40314Q377.53412 345.90314 376.98724 346.23126Q376.44037 346.54376 375.79974 346.54376Q374.72162 346.54376 373.98724 345.77814Q373.25287 344.9969 373.25287 343.73126Q373.25287 342.41876 374.0185 341.6219Q374.79974 340.825 375.956 340.825Q376.78412 340.825 377.47162 341.27814Q378.17474 341.73126 378.53412 342.575Q378.8935 343.40314 378.8935 344.98126Q378.8935 346.6219 378.53412 347.60626Q378.19037 348.575 377.47162 349.09064Q376.7685 349.59064 375.831 349.59064Q374.81537 349.59064 374.17474 349.04376Q373.53412 348.48126 373.40912 347.46564ZM377.72162 343.66876Q377.72162 342.7625 377.23724 342.23126Q376.7685 341.7 376.081 341.7Q375.37787 341.7 374.84662 342.27814Q374.331 342.84064 374.331 343.7625Q374.331 344.575 374.831 345.09064Q375.331 345.60626 376.04974 345.60626Q376.78412 345.60626 377.25287 345.09064Q377.72162 344.575 377.72162 343.66876ZM380.25287 345.21564Q380.25287 343.6844 380.56537 342.7625Q380.87787 341.825 381.48724 341.325Q382.11224 340.825 383.04974 340.825Q383.73724 340.825 384.25287 341.10626Q384.78412 341.3875 385.12787 341.91876Q385.47162 342.4344 385.65912 343.1844Q385.84662 343.9344 385.84662 345.21564Q385.84662 346.73126 385.53412 347.65314Q385.23724 348.575 384.61224 349.09064Q384.00287 349.59064 383.04974 349.59064Q381.81537 349.59064 381.09662 348.7Q380.25287 347.6375 380.25287 345.21564ZM381.331 345.21564Q381.331 347.325 381.831 348.02814Q382.331 348.73126 383.04974 348.73126Q383.78412 348.73126 384.2685 348.02814Q384.7685 347.325 384.7685 345.21564Q384.7685 343.09064 384.2685 342.40314Q383.78412 341.7 383.03412 341.7Q382.31537 341.7 381.87787 342.3094Q381.331 343.09064 381.331 345.21564Z" fill-rule="nonzero"/><path fill="#000000" d="M489.05548 351.84064L489.05548 343.23126L490.0086 343.23126L490.0086 344.02814Q490.35236 343.5594 490.77423 343.325Q491.21173 343.09064 491.8211 343.09064Q492.61798 343.09064 493.22736 343.4969Q493.83673 343.90314 494.1336 344.65314Q494.4461 345.40314 494.4461 346.29376Q494.4461 347.2469 494.10236 348.0125Q493.77423 348.77814 493.11798 349.1844Q492.46173 349.59064 491.74298 349.59064Q491.21173 349.59064 490.78986 349.3719Q490.36798 349.1375 490.10236 348.8094L490.10236 351.84064L489.05548 351.84064ZM490.0086 346.3719Q490.0086 347.575 490.49298 348.15314Q490.97736 348.71564 491.66486 348.71564Q492.36798 348.71564 492.86798 348.1219Q493.36798 347.52814 493.36798 346.27814Q493.36798 345.09064 492.8836 344.5125Q492.39923 343.91876 491.71173 343.91876Q491.03986 343.91876 490.52423 344.54376Q490.0086 345.16876 490.0086 346.3719ZM495.91486 347.46564L496.93048 347.3719Q497.05548 348.09064 497.41486 348.41876Q497.78986 348.73126 498.35236 348.73126Q498.83673 348.73126 499.1961 348.5125Q499.5711 348.27814 499.80548 347.91876Q500.03986 347.54376 500.1961 346.91876Q500.35236 346.27814 500.35236 345.6219Q500.35236 345.54376 500.35236 345.40314Q500.03986 345.90314 499.49298 346.23126Q498.9461 346.54376 498.30548 346.54376Q497.22736 346.54376 496.49298 345.77814Q495.7586 344.9969 495.7586 343.73126Q495.7586 342.41876 496.52423 341.6219Q497.30548 340.825 498.46173 340.825Q499.28986 340.825 499.97736 341.27814Q500.68048 341.73126 501.03986 342.575Q501.39923 343.40314 501.39923 344.98126Q501.39923 346.6219 501.03986 347.60626Q500.6961 348.575 499.97736 349.09064Q499.27423 349.59064 498.33673 349.59064Q497.3211 349.59064 496.68048 349.04376Q496.03986 348.48126 495.91486 347.46564ZM500.22736 343.66876Q500.22736 342.7625 499.74298 342.23126Q499.27423 341.7 498.58673 341.7Q497.8836 341.7 497.35236 342.27814Q496.83673 342.84064 496.83673 343.7625Q496.83673 344.575 497.33673 345.09064Q497.83673 345.60626 498.55548 345.60626Q499.28986 345.60626 499.7586 345.09064Q500.22736 344.575 500.22736 343.66876ZM502.91486 347.46564L503.93048 347.3719Q504.05548 348.09064 504.41486 348.41876Q504.78986 348.73126 505.35236 348.73126Q505.83673 348.73126 506.1961 348.5125Q506.5711 348.27814 506.80548 347.91876Q507.03986 347.54376 507.1961 346.91876Q507.35236 346.27814 507.35236 345.6219Q507.35236 345.54376 507.35236 345.40314Q507.03986 345.90314 506.49298 346.23126Q505.9461 346.54376 505.30548 346.54376Q504.22736 346.54376 503.49298 345.77814Q502.7586 344.9969 502.7586 343.73126Q502.7586 342.41876 503.52423 341.6219Q504.30548 340.825 505.46173 340.825Q506.28986 340.825 506.97736 341.27814Q507.68048 341.73126 508.03986 342.575Q508.39923 343.40314 508.39923 344.98126Q508.39923 346.6219 508.03986 347.60626Q507.6961 348.575 506.97736 349.09064Q506.27423 349.59064 505.33673 349.59064Q504.3211 349.59064 503.68048 349.04376Q503.03986 348.48126 502.91486 347.46564ZM507.22736 343.66876Q507.22736 342.7625 506.74298 342.23126Q506.27423 341.7 505.58673 341.7Q504.8836 341.7 504.35236 342.27814Q503.83673 342.84064 503.83673 343.7625Q503.83673 344.575 504.33673 345.09064Q504.83673 345.60626 505.55548 345.60626Q506.28986 345.60626 506.7586 345.09064Q507.22736 344.575 507.22736 343.66876Z" fill-rule="nonzero"/><path fill="#46bdc6" d="M128.5 80.416664C128.5 79.86438 128.94771 79.416664 129.5 79.416664L139.5 79.416664C140.05229 79.416664 140.5 79.86438 140.5 80.416664L140.5 90.416664C140.5 90.96895 140.05229 91.416664 139.5 91.416664L129.5 91.416664C128.94771 91.416664 128.5 90.96895 128.5 90.416664Z" fill-rule="nonzero"/><path fill="#1a1a1a" d="M149.0 87.166664L150.10938 87.072914Q150.23438 87.885414 150.67188 88.291664Q151.125 88.697914 151.76562 88.697914Q152.51562 88.697914 153.04688 88.11979Q153.57812 87.541664 153.57812 86.604164Q153.57812 85.697914 153.0625 85.18229Q152.5625 84.65104 151.73438 84.65104Q151.23438 84.65104 150.8125 84.885414Q150.40625 85.11979 150.17188 85.479164L149.1875 85.354164L150.01562 80.947914L154.29688 80.947914L154.29688 81.947914L150.85938 81.947914L150.40625 84.260414Q151.17188 83.71354 152.01562 83.71354Q153.14062 83.71354 153.90625 84.49479Q154.6875 85.27604 154.6875 86.510414Q154.6875 87.666664 154.01562 88.52604Q153.1875 89.55729 151.76562 89.55729Q150.59375 89.55729 149.84375 88.90104Q149.10938 88.24479 149.0 87.166664ZM156.0 85.18229Q156.0 83.65104 156.3125 82.729164Q156.625 81.791664 157.23438 81.291664Q157.85938 80.791664 158.79688 80.791664Q159.48438 80.791664 160.0 81.072914Q160.53125 81.354164 160.875 81.885414Q161.21875 82.40104 161.40625 83.15104Q161.59375 83.90104 161.59375 85.18229Q161.59375 86.697914 161.28125 87.61979Q160.98438 88.541664 160.35938 89.05729Q159.75 89.55729 158.79688 89.55729Q157.5625 89.55729 156.84375 88.666664Q156.0 87.604164 156.0 85.18229ZM157.07812 85.18229Q157.07812 87.291664 157.57812 87.99479Q158.07812 88.697914 158.79688 88.697914Q159.53125 88.697914 160.01562 87.99479Q160.51562 87.291664 160.51562 85.18229Q160.51562 83.05729 160.01562 82.36979Q159.53125 81.666664 158.78125 81.666664Q158.0625 81.666664 157.625 82.27604Q157.07812 83.05729 157.07812 85.18229ZM163.0 85.18229Q163.0 83.65104 163.3125 82.729164Q163.625 81.791664 164.23438 81.291664Q164.85938 80.791664 165.79688 80.791664Q166.48438 80.791664 167.0 81.072914Q167.53125 81.354164 167.875 81.885414Q168.21875 82.40104 168.40625 83.15104Q168.59375 83.90104 168.59375 85.18229Q168.59375 86.697914 168.28125 87.61979Q167.98438 88.541664 167.35938 89.05729Q166.75 89.55729 165.79688 89.55729Q164.5625 89.55729 163.84375 88.666664Q163.0 87.604164 163.0 85.18229ZM164.07812 85.18229Q164.07812 87.291664 164.57812 87.99479Q165.07812 88.697914 165.79688 88.697914Q166.53125 88.697914 167.01562 87.99479Q167.51562 87.291664 167.51562 85.18229Q167.51562 83.05729 167.01562 82.36979Q166.53125 81.666664 165.78125 81.666664Q165.0625 81.666664 164.625 82.27604Q164.07812 83.05729 164.07812 85.18229ZM170.0 85.18229Q170.0 83.65104 170.3125 82.729164Q170.625 81.791664 171.23438 81.291664Q171.85938 80.791664 172.79688 80.791664Q173.48438 80.791664 174.0 81.072914Q174.53125 81.354164 174.875 81.885414Q175.21875 82.40104 175.40625 83.15104Q175.59375 83.90104 175.59375 85.18229Q175.59375 86.697914 175.28125 87.61979Q174.98438 88.541664 174.35938 89.05729Q173.75 89.55729 172.79688 89.55729Q171.5625 89.55729 170.84375 88.666664Q170.0 87.604164 170.0 85.18229ZM171.07812 85.18229Q171.07812 87.291664 171.57812 87.99479Q172.07812 88.697914 172.79688 88.697914Q173.53125 88.697914 174.01562 87.99479Q174.51562 87.291664 174.51562 85.18229Q174.51562 83.05729 174.01562 82.36979Q173.53125 81.666664 172.78125 81.666664Q172.0625 81.666664 171.625 82.27604Q171.07812 83.05729 171.07812 85.18229ZM179.875 87.55729L180.90625 87.40104Q181.0 88.02604 181.39062 88.354164Q181.79688 88.68229 182.53125 88.68229Q183.25 88.68229 183.59375 88.40104Q183.95312 88.104164 183.95312 87.697914Q183.95312 87.33854 183.64062 87.135414Q183.42188 86.99479 182.5625 86.77604Q181.40625 86.479164 180.95312 86.27604Q180.51562 86.05729 180.28125 85.68229Q180.04688 85.30729 180.04688 84.83854Q180.04688 84.43229 180.23438 84.072914Q180.42188 83.71354 180.75 83.479164Q181.0 83.30729 181.42188 83.18229Q181.84375 83.05729 182.34375 83.05729Q183.0625 83.05729 183.60938 83.27604Q184.17188 83.479164 184.4375 83.83854Q184.70312 84.197914 184.79688 84.791664L183.76562 84.93229Q183.70312 84.46354 183.35938 84.197914Q183.03125 83.916664 182.40625 83.916664Q181.6875 83.916664 181.375 84.166664Q181.0625 84.40104 181.0625 84.729164Q181.0625 84.93229 181.1875 85.08854Q181.32812 85.260414 181.59375 85.36979Q181.75 85.43229 182.53125 85.635414Q183.65625 85.947914 184.09375 86.135414Q184.53125 86.322914 184.78125 86.68229Q185.03125 87.041664 185.03125 87.58854Q185.03125 88.11979 184.71875 88.58854Q184.42188 89.041664 183.84375 89.30729Q183.26562 89.55729 182.53125 89.55729Q181.3125 89.55729 180.67188 89.05729Q180.04688 88.541664 179.875 87.55729ZM191.54688 87.416664L192.64062 87.541664Q192.39062 88.49479 191.6875 89.02604Q190.98438 89.55729 189.90625 89.55729Q188.54688 89.55729 187.73438 88.71354Q186.9375 87.86979 186.9375 86.354164Q186.9375 84.791664 187.75 83.93229Q188.5625 83.05729 189.84375 83.05729Q191.09375 83.05729 191.875 83.90104Q192.67188 84.74479 192.67188 86.291664Q192.67188 86.385414 192.67188 86.572914L188.03125 86.572914Q188.09375 87.604164 188.60938 88.15104Q189.125 88.68229 189.90625 88.68229Q190.48438 88.68229 190.89062 88.385414Q191.3125 88.072914 191.54688 87.416664ZM188.09375 85.71354L191.5625 85.71354Q191.5 84.916664 191.17188 84.52604Q190.65625 83.916664 189.85938 83.916664Q189.125 83.916664 188.625 84.40104Q188.14062 84.885414 188.09375 85.71354ZM194.28125 89.416664L194.28125 83.197914L195.23438 83.197914L195.23438 84.135414Q195.59375 83.479164 195.89062 83.27604Q196.20312 83.05729 196.57812 83.05729Q197.10938 83.05729 197.65625 83.385414L197.29688 84.36979Q196.90625 84.135414 196.53125 84.135414Q196.17188 84.135414 195.89062 84.354164Q195.625 84.55729 195.51562 84.93229Q195.32812 85.49479 195.32812 86.15104L195.32812 89.416664L194.28125 89.416664ZM200.01562 89.416664L197.65625 83.197914L198.76562 83.197914L200.10938 86.916664Q200.3125 87.52604 200.5 88.166664Q200.64062 87.68229 200.89062 86.99479L202.28125 83.197914L203.35938 83.197914L201.0 89.416664L200.01562 89.416664ZM203.29688 82.041664L203.29688 80.822914L204.35938 80.822914L204.35938 82.041664L203.29688 82.041664ZM203.29688 89.416664L203.29688 83.197914L204.35938 83.197914L204.35938 89.416664L203.29688 89.416664ZM210.35938 87.135414L211.39062 87.27604Q211.21875 88.33854 210.51562 88.947914Q209.8125 89.55729 208.79688 89.55729Q207.51562 89.55729 206.73438 88.729164Q205.96875 87.885414 205.96875 86.322914Q205.96875 85.322914 206.29688 84.572914Q206.64062 83.80729 207.3125 83.43229Q208.0 83.05729 208.8125 83.05729Q209.8125 83.05729 210.45312 83.572914Q211.10938 84.072914 211.29688 85.02604L210.26562 85.18229Q210.125 84.55729 209.75 84.24479Q209.375 83.916664 208.84375 83.916664Q208.04688 83.916664 207.54688 84.49479Q207.04688 85.05729 207.04688 86.291664Q207.04688 87.55729 207.53125 88.11979Q208.01562 88.68229 208.78125 88.68229Q209.40625 88.68229 209.8125 88.30729Q210.23438 87.93229 210.35938 87.135414ZM216.54688 87.416664L217.64062 87.541664Q217.39062 88.49479 216.6875 89.02604Q215.98438 89.55729 214.90625 89.55729Q213.54688 89.55729 212.73438 88.71354Q211.9375 87.86979 211.9375 86.354164Q211.9375 84.791664 212.75 83.93229Q213.5625 83.05729 214.84375 83.05729Q216.09375 83.05729 216.875 83.90104Q217.67188 84.74479 217.67188 86.291664Q217.67188 86.385414 217.67188 86.572914L213.03125 86.572914Q213.09375 87.604164 213.60938 88.15104Q214.125 88.68229 214.90625 88.68229Q215.48438 88.68229 215.89062 88.385414Q216.3125 88.072914 216.54688 87.416664ZM213.09375 85.71354L216.5625 85.71354Q216.5 84.916664 216.17188 84.52604Q215.65625 83.916664 214.85938 83.916664Q214.125 83.916664 213.625 84.40104Q213.14062 84.885414 213.09375 85.71354ZM218.875 87.55729L219.90625 87.40104Q220.0 88.02604 220.39062 88.354164Q220.79688 88.68229 221.53125 88.68229Q222.25 88.68229 222.59375 88.40104Q222.95312 88.104164 222.95312 87.697914Q222.95312 87.33854 222.64062 87.135414Q222.42188 86.99479 221.5625 86.77604Q220.40625 86.479164 219.95312 86.27604Q219.51562 86.05729 219.28125 85.68229Q219.04688 85.30729 219.04688 84.83854Q219.04688 84.43229 219.23438 84.072914Q219.42188 83.71354 219.75 83.479164Q220.0 83.30729 220.42188 83.18229Q220.84375 83.05729 221.34375 83.05729Q222.0625 83.05729 222.60938 83.27604Q223.17188 83.479164 223.4375 83.83854Q223.70312 84.197914 223.79688 84.791664L222.76562 84.93229Q222.70312 84.46354 222.35938 84.197914Q222.03125 83.916664 221.40625 83.916664Q220.6875 83.916664 220.375 84.166664Q220.0625 84.40104 220.0625 84.729164Q220.0625 84.93229 220.1875 85.08854Q220.32812 85.260414 220.59375 85.36979Q220.75 85.43229 221.53125 85.635414Q222.65625 85.947914 223.09375 86.135414Q223.53125 86.322914 223.78125 86.68229Q224.03125 87.041664 224.03125 87.58854Q224.03125 88.11979 223.71875 88.58854Q223.42188 89.041664 222.84375 89.30729Q222.26562 89.55729 221.53125 89.55729Q220.3125 89.55729 219.67188 89.05729Q219.04688 88.541664 218.875 87.55729Z" fill-rule="nonzero"/><path fill="#ff8a01" d="M241.5 80.416664C241.5 79.86438 241.94771 79.416664 242.5 79.416664L252.5 79.416664C253.05229 79.416664 253.5 79.86438 253.5 80.416664L253.5 90.416664C253.5 90.96895 253.05229 91.416664 252.5 91.416664L242.5 91.416664C241.94771 91.416664 241.5 90.96895 241.5 90.416664Z" fill-rule="nonzero"/><path fill="#1a1a1a" d="M265.96875 89.416664L264.92188 89.416664L264.92188 82.697914Q264.53125 83.05729 263.90625 83.43229Q263.29688 83.791664 262.8125 83.96354L262.8125 82.947914Q263.6875 82.52604 264.34375 81.947914Q265.01562 81.354164 265.29688 80.791664L265.96875 80.791664L265.96875 89.416664ZM269.0 85.18229Q269.0 83.65104 269.3125 82.729164Q269.625 81.791664 270.23438 81.291664Q270.85938 80.791664 271.79688 80.791664Q272.48438 80.791664 273.0 81.072914Q273.53125 81.354164 273.875 81.885414Q274.21875 82.40104 274.40625 83.15104Q274.59375 83.90104 274.59375 85.18229Q274.59375 86.697914 274.28125 87.61979Q273.98438 88.541664 273.35938 89.05729Q272.75 89.55729 271.79688 89.55729Q270.5625 89.55729 269.84375 88.666664Q269.0 87.604164 269.0 85.18229ZM270.07812 85.18229Q270.07812 87.291664 270.57812 87.99479Q271.07812 88.697914 271.79688 88.697914Q272.53125 88.697914 273.01562 87.99479Q273.51562 87.291664 273.51562 85.18229Q273.51562 83.05729 273.01562 82.36979Q272.53125 81.666664 271.78125 81.666664Q271.0625 81.666664 270.625 82.27604Q270.07812 83.05729 270.07812 85.18229ZM276.5625 89.416664L276.5625 88.21354L277.76562 88.21354L277.76562 89.416664Q277.76562 90.072914 277.53125 90.479164Q277.29688 90.90104 276.79688 91.11979L276.5 90.666664Q276.82812 90.52604 276.98438 90.229164Q277.14062 89.947914 277.17188 89.416664L276.5625 89.416664ZM279.0 85.18229Q279.0 83.65104 279.3125 82.729164Q279.625 81.791664 280.23438 81.291664Q280.85938 80.791664 281.79688 80.791664Q282.48438 80.791664 283.0 81.072914Q283.53125 81.354164 283.875 81.885414Q284.21875 82.40104 284.40625 83.15104Q284.59375 83.90104 284.59375 85.18229Q284.59375 86.697914 284.28125 87.61979Q283.98438 88.541664 283.35938 89.05729Q282.75 89.55729 281.79688 89.55729Q280.5625 89.55729 279.84375 88.666664Q279.0 87.604164 279.0 85.18229ZM280.07812 85.18229Q280.07812 87.291664 280.57812 87.99479Q281.07812 88.697914 281.79688 88.697914Q282.53125 88.697914 283.01562 87.99479Q283.51562 87.291664 283.51562 85.18229Q283.51562 83.05729 283.01562 82.36979Q282.53125 81.666664 281.78125 81.666664Q281.0625 81.666664 280.625 82.27604Q280.07812 83.05729 280.07812 85.18229ZM286.0 85.18229Q286.0 83.65104 286.3125 82.729164Q286.625 81.791664 287.23438 81.291664Q287.85938 80.791664 288.79688 80.791664Q289.48438 80.791664 290.0 81.072914Q290.53125 81.354164 290.875 81.885414Q291.21875 82.40104 291.40625 83.15104Q291.59375 83.90104 291.59375 85.18229Q291.59375 86.697914 291.28125 87.61979Q290.98438 88.541664 290.35938 89.05729Q289.75 89.55729 288.79688 89.55729Q287.5625 89.55729 286.84375 88.666664Q286.0 87.604164 286.0 85.18229ZM287.07812 85.18229Q287.07812 87.291664 287.57812 87.99479Q288.07812 88.697914 288.79688 88.697914Q289.53125 88.697914 290.01562 87.99479Q290.51562 87.291664 290.51562 85.18229Q290.51562 83.05729 290.01562 82.36979Q289.53125 81.666664 288.78125 81.666664Q288.0625 81.666664 287.625 82.27604Q287.07812 83.05729 287.07812 85.18229ZM293.0 85.18229Q293.0 83.65104 293.3125 82.729164Q293.625 81.791664 294.23438 81.291664Q294.85938 80.791664 295.79688 80.791664Q296.48438 80.791664 297.0 81.072914Q297.53125 81.354164 297.875 81.885414Q298.21875 82.40104 298.40625 83.15104Q298.59375 83.90104 298.59375 85.18229Q298.59375 86.697914 298.28125 87.61979Q297.98438 88.541664 297.35938 89.05729Q296.75 89.55729 295.79688 89.55729Q294.5625 89.55729 293.84375 88.666664Q293.0 87.604164 293.0 85.18229ZM294.07812 85.18229Q294.07812 87.291664 294.57812 87.99479Q295.07812 88.697914 295.79688 88.697914Q296.53125 88.697914 297.01562 87.99479Q297.51562 87.291664 297.51562 85.18229Q297.51562 83.05729 297.01562 82.36979Q296.53125 81.666664 295.78125 81.666664Q295.0625 81.666664 294.625 82.27604Q294.07812 83.05729 294.07812 85.18229ZM302.875 87.55729L303.90625 87.40104Q304.0 88.02604 304.39062 88.354164Q304.79688 88.68229 305.53125 88.68229Q306.25 88.68229 306.59375 88.40104Q306.95312 88.104164 306.95312 87.697914Q306.95312 87.33854 306.64062 87.135414Q306.42188 86.99479 305.5625 86.77604Q304.40625 86.479164 303.95312 86.27604Q303.51562 86.05729 303.28125 85.68229Q303.04688 85.30729 303.04688 84.83854Q303.04688 84.43229 303.23438 84.072914Q303.42188 83.71354 303.75 83.479164Q304.0 83.30729 304.42188 83.18229Q304.84375 83.05729 305.34375 83.05729Q306.0625 83.05729 306.60938 83.27604Q307.17188 83.479164 307.4375 83.83854Q307.70312 84.197914 307.79688 84.791664L306.76562 84.93229Q306.70312 84.46354 306.35938 84.197914Q306.03125 83.916664 305.40625 83.916664Q304.6875 83.916664 304.375 84.166664Q304.0625 84.40104 304.0625 84.729164Q304.0625 84.93229 304.1875 85.08854Q304.32812 85.260414 304.59375 85.36979Q304.75 85.43229 305.53125 85.635414Q306.65625 85.947914 307.09375 86.135414Q307.53125 86.322914 307.78125 86.68229Q308.03125 87.041664 308.03125 87.58854Q308.03125 88.11979 307.71875 88.58854Q307.42188 89.041664 306.84375 89.30729Q306.26562 89.55729 305.53125 89.55729Q304.3125 89.55729 303.67188 89.05729Q303.04688 88.541664 302.875 87.55729ZM314.54688 87.416664L315.64062 87.541664Q315.39062 88.49479 314.6875 89.02604Q313.98438 89.55729 312.90625 89.55729Q311.54688 89.55729 310.73438 88.71354Q309.9375 87.86979 309.9375 86.354164Q309.9375 84.791664 310.75 83.93229Q311.5625 83.05729 312.84375 83.05729Q314.09375 83.05729 314.875 83.90104Q315.67188 84.74479 315.67188 86.291664Q315.67188 86.385414 315.67188 86.572914L311.03125 86.572914Q311.09375 87.604164 311.60938 88.15104Q312.125 88.68229 312.90625 88.68229Q313.48438 88.68229 313.89062 88.385414Q314.3125 88.072914 314.54688 87.416664ZM311.09375 85.71354L314.5625 85.71354Q314.5 84.916664 314.17188 84.52604Q313.65625 83.916664 312.85938 83.916664Q312.125 83.916664 311.625 84.40104Q311.14062 84.885414 311.09375 85.71354ZM317.28125 89.416664L317.28125 83.197914L318.23438 83.197914L318.23438 84.135414Q318.59375 83.479164 318.89062 83.27604Q319.20312 83.05729 319.57812 83.05729Q320.10938 83.05729 320.65625 83.385414L320.29688 84.36979Q319.90625 84.135414 319.53125 84.135414Q319.17188 84.135414 318.89062 84.354164Q318.625 84.55729 318.51562 84.93229Q318.32812 85.49479 318.32812 86.15104L318.32812 89.416664L317.28125 89.416664ZM323.01562 89.416664L320.65625 83.197914L321.76562 83.197914L323.10938 86.916664Q323.3125 87.52604 323.5 88.166664Q323.64062 87.68229 323.89062 86.99479L325.28125 83.197914L326.35938 83.197914L324.0 89.416664L323.01562 89.416664ZM326.29688 82.041664L326.29688 80.822914L327.35938 80.822914L327.35938 82.041664L326.29688 82.041664ZM326.29688 89.416664L326.29688 83.197914L327.35938 83.197914L327.35938 89.416664L326.29688 89.416664ZM333.35938 87.135414L334.39062 87.27604Q334.21875 88.33854 333.51562 88.947914Q332.8125 89.55729 331.79688 89.55729Q330.51562 89.55729 329.73438 88.729164Q328.96875 87.885414 328.96875 86.322914Q328.96875 85.322914 329.29688 84.572914Q329.64062 83.80729 330.3125 83.43229Q331.0 83.05729 331.8125 83.05729Q332.8125 83.05729 333.45312 83.572914Q334.10938 84.072914 334.29688 85.02604L333.26562 85.18229Q333.125 84.55729 332.75 84.24479Q332.375 83.916664 331.84375 83.916664Q331.04688 83.916664 330.54688 84.49479Q330.04688 85.05729 330.04688 86.291664Q330.04688 87.55729 330.53125 88.11979Q331.01562 88.68229 331.78125 88.68229Q332.40625 88.68229 332.8125 88.30729Q333.23438 87.93229 333.35938 87.135414ZM339.54688 87.416664L340.64062 87.541664Q340.39062 88.49479 339.6875 89.02604Q338.98438 89.55729 337.90625 89.55729Q336.54688 89.55729 335.73438 88.71354Q334.9375 87.86979 334.9375 86.354164Q334.9375 84.791664 335.75 83.93229Q336.5625 83.05729 337.84375 83.05729Q339.09375 83.05729 339.875 83.90104Q340.67188 84.74479 340.67188 86.291664Q340.67188 86.385414 340.67188 86.572914L336.03125 86.572914Q336.09375 87.604164 336.60938 88.15104Q337.125 88.68229 337.90625 88.68229Q338.48438 88.68229 338.89062 88.385414Q339.3125 88.072914 339.54688 87.416664ZM336.09375 85.71354L339.5625 85.71354Q339.5 84.916664 339.17188 84.52604Q338.65625 83.916664 337.85938 83.916664Q337.125 83.916664 336.625 84.40104Q336.14062 84.885414 336.09375 85.71354ZM341.875 87.55729L342.90625 87.40104Q343.0 88.02604 343.39062 88.354164Q343.79688 88.68229 344.53125 88.68229Q345.25 88.68229 345.59375 88.40104Q345.95312 88.104164 345.95312 87.697914Q345.95312 87.33854 345.64062 87.135414Q345.42188 86.99479 344.5625 86.77604Q343.40625 86.479164 342.95312 86.27604Q342.51562 86.05729 342.28125 85.68229Q342.04688 85.30729 342.04688 84.83854Q342.04688 84.43229 342.23438 84.072914Q342.42188 83.71354 342.75 83.479164Q343.0 83.30729 343.42188 83.18229Q343.84375 83.05729 344.34375 83.05729Q345.0625 83.05729 345.60938 83.27604Q346.17188 83.479164 346.4375 83.83854Q346.70312 84.197914 346.79688 84.791664L345.76562 84.93229Q345.70312 84.46354 345.35938 84.197914Q345.03125 83.916664 344.40625 83.916664Q343.6875 83.916664 343.375 84.166664Q343.0625 84.40104 343.0625 84.729164Q343.0625 84.93229 343.1875 85.08854Q343.32812 85.260414 343.59375 85.36979Q343.75 85.43229 344.53125 85.635414Q345.65625 85.947914 346.09375 86.135414Q346.53125 86.322914 346.78125 86.68229Q347.03125 87.041664 347.03125 87.58854Q347.03125 88.11979 346.71875 88.58854Q346.42188 89.041664 345.84375 89.30729Q345.26562 89.55729 344.53125 89.55729Q343.3125 89.55729 342.67188 89.05729Q342.04688 88.541664 341.875 87.55729Z" fill-rule="nonzero"/><path fill="#cd468d" d="M364.5 80.416664C364.5 79.86438 364.94772 79.416664 365.5 79.416664L375.5 79.416664C376.05228 79.416664 376.5 79.86438 376.5 80.416664L376.5 90.416664C376.5 90.96895 376.05228 91.416664 375.5 91.416664L365.5 91.416664C364.94772 91.416664 364.5 90.96895 364.5 90.416664Z" fill-rule="nonzero"/><path fill="#1a1a1a" d="M385.0 87.15104L386.0625 87.010414Q386.23438 87.90104 386.67188 88.30729Q387.10938 88.697914 387.73438 88.697914Q388.48438 88.697914 389.0 88.18229Q389.51562 87.666664 389.51562 86.90104Q389.51562 86.18229 389.03125 85.71354Q388.5625 85.229164 387.82812 85.229164Q387.53125 85.229164 387.07812 85.354164L387.20312 84.416664Q387.3125 84.43229 387.375 84.43229Q388.04688 84.43229 388.57812 84.08854Q389.125 83.729164 389.125 82.99479Q389.125 82.416664 388.73438 82.041664Q388.34375 81.65104 387.71875 81.65104Q387.10938 81.65104 386.6875 82.041664Q386.28125 82.43229 386.17188 83.197914L385.10938 83.010414Q385.29688 81.96354 385.98438 81.385414Q386.67188 80.791664 387.6875 80.791664Q388.39062 80.791664 388.98438 81.104164Q389.57812 81.40104 389.89062 81.916664Q390.20312 82.43229 390.20312 83.02604Q390.20312 83.572914 389.90625 84.041664Q389.60938 84.49479 389.03125 84.760414Q389.78125 84.93229 390.20312 85.49479Q390.625 86.041664 390.625 86.885414Q390.625 88.010414 389.79688 88.791664Q388.98438 89.572914 387.73438 89.572914Q386.60938 89.572914 385.85938 88.90104Q385.10938 88.21354 385.0 87.15104ZM392.0 85.18229Q392.0 83.65104 392.3125 82.729164Q392.625 81.791664 393.23438 81.291664Q393.85938 80.791664 394.79688 80.791664Q395.48438 80.791664 396.0 81.072914Q396.53125 81.354164 396.875 81.885414Q397.21875 82.40104 397.40625 83.15104Q397.59375 83.90104 397.59375 85.18229Q397.59375 86.697914 397.28125 87.61979Q396.98438 88.541664 396.35938 89.05729Q395.75 89.55729 394.79688 89.55729Q393.5625 89.55729 392.84375 88.666664Q392.0 87.604164 392.0 85.18229ZM393.07812 85.18229Q393.07812 87.291664 393.57812 87.99479Q394.07812 88.697914 394.79688 88.697914Q395.53125 88.697914 396.01562 87.99479Q396.51562 87.291664 396.51562 85.18229Q396.51562 83.05729 396.01562 82.36979Q395.53125 81.666664 394.78125 81.666664Q394.0625 81.666664 393.625 82.27604Q393.07812 83.05729 393.07812 85.18229ZM399.5625 89.416664L399.5625 88.21354L400.76562 88.21354L400.76562 89.416664Q400.76562 90.072914 400.53125 90.479164Q400.29688 90.90104 399.79688 91.11979L399.5 90.666664Q399.82812 90.52604 399.98438 90.229164Q400.14062 89.947914 400.17188 89.416664L399.5625 89.416664ZM402.0 85.18229Q402.0 83.65104 402.3125 82.729164Q402.625 81.791664 403.23438 81.291664Q403.85938 80.791664 404.79688 80.791664Q405.48438 80.791664 406.0 81.072914Q406.53125 81.354164 406.875 81.885414Q407.21875 82.40104 407.40625 83.15104Q407.59375 83.90104 407.59375 85.18229Q407.59375 86.697914 407.28125 87.61979Q406.98438 88.541664 406.35938 89.05729Q405.75 89.55729 404.79688 89.55729Q403.5625 89.55729 402.84375 88.666664Q402.0 87.604164 402.0 85.18229ZM403.07812 85.18229Q403.07812 87.291664 403.57812 87.99479Q404.07812 88.697914 404.79688 88.697914Q405.53125 88.697914 406.01562 87.99479Q406.51562 87.291664 406.51562 85.18229Q406.51562 83.05729 406.01562 82.36979Q405.53125 81.666664 404.78125 81.666664Q404.0625 81.666664 403.625 82.27604Q403.07812 83.05729 403.07812 85.18229ZM409.0 85.18229Q409.0 83.65104 409.3125 82.729164Q409.625 81.791664 410.23438 81.291664Q410.85938 80.791664 411.79688 80.791664Q412.48438 80.791664 413.0 81.072914Q413.53125 81.354164 413.875 81.885414Q414.21875 82.40104 414.40625 83.15104Q414.59375 83.90104 414.59375 85.18229Q414.59375 86.697914 414.28125 87.61979Q413.98438 88.541664 413.35938 89.05729Q412.75 89.55729 411.79688 89.55729Q410.5625 89.55729 409.84375 88.666664Q409.0 87.604164 409.0 85.18229ZM410.07812 85.18229Q410.07812 87.291664 410.57812 87.99479Q411.07812 88.697914 411.79688 88.697914Q412.53125 88.697914 413.01562 87.99479Q413.51562 87.291664 413.51562 85.18229Q413.51562 83.05729 413.01562 82.36979Q412.53125 81.666664 411.78125 81.666664Q411.0625 81.666664 410.625 82.27604Q410.07812 83.05729 410.07812 85.18229ZM416.0 85.18229Q416.0 83.65104 416.3125 82.729164Q416.625 81.791664 417.23438 81.291664Q417.85938 80.791664 418.79688 80.791664Q419.48438 80.791664 420.0 81.072914Q420.53125 81.354164 420.875 81.885414Q421.21875 82.40104 421.40625 83.15104Q421.59375 83.90104 421.59375 85.18229Q421.59375 86.697914 421.28125 87.61979Q420.98438 88.541664 420.35938 89.05729Q419.75 89.55729 418.79688 89.55729Q417.5625 89.55729 416.84375 88.666664Q416.0 87.604164 416.0 85.18229ZM417.07812 85.18229Q417.07812 87.291664 417.57812 87.99479Q418.07812 88.697914 418.79688 88.697914Q419.53125 88.697914 420.01562 87.99479Q420.51562 87.291664 420.51562 85.18229Q420.51562 83.05729 420.01562 82.36979Q419.53125 81.666664 418.78125 81.666664Q418.0625 81.666664 417.625 82.27604Q417.07812 83.05729 417.07812 85.18229ZM425.875 87.55729L426.90625 87.40104Q427.0 88.02604 427.39062 88.354164Q427.79688 88.68229 428.53125 88.68229Q429.25 88.68229 429.59375 88.40104Q429.95312 88.104164 429.95312 87.697914Q429.95312 87.33854 429.64062 87.135414Q429.42188 86.99479 428.5625 86.77604Q427.40625 86.479164 426.95312 86.27604Q426.51562 86.05729 426.28125 85.68229Q426.04688 85.30729 426.04688 84.83854Q426.04688 84.43229 426.23438 84.072914Q426.42188 83.71354 426.75 83.479164Q427.0 83.30729 427.42188 83.18229Q427.84375 83.05729 428.34375 83.05729Q429.0625 83.05729 429.60938 83.27604Q430.17188 83.479164 430.4375 83.83854Q430.70312 84.197914 430.79688 84.791664L429.76562 84.93229Q429.70312 84.46354 429.35938 84.197914Q429.03125 83.916664 428.40625 83.916664Q427.6875 83.916664 427.375 84.166664Q427.0625 84.40104 427.0625 84.729164Q427.0625 84.93229 427.1875 85.08854Q427.32812 85.260414 427.59375 85.36979Q427.75 85.43229 428.53125 85.635414Q429.65625 85.947914 430.09375 86.135414Q430.53125 86.322914 430.78125 86.68229Q431.03125 87.041664 431.03125 87.58854Q431.03125 88.11979 430.71875 88.58854Q430.42188 89.041664 429.84375 89.30729Q429.26562 89.55729 428.53125 89.55729Q427.3125 89.55729 426.67188 89.05729Q426.04688 88.541664 425.875 87.55729ZM437.54688 87.416664L438.64062 87.541664Q438.39062 88.49479 437.6875 89.02604Q436.98438 89.55729 435.90625 89.55729Q434.54688 89.55729 433.73438 88.71354Q432.9375 87.86979 432.9375 86.354164Q432.9375 84.791664 433.75 83.93229Q434.5625 83.05729 435.84375 83.05729Q437.09375 83.05729 437.875 83.90104Q438.67188 84.74479 438.67188 86.291664Q438.67188 86.385414 438.67188 86.572914L434.03125 86.572914Q434.09375 87.604164 434.60938 88.15104Q435.125 88.68229 435.90625 88.68229Q436.48438 88.68229 436.89062 88.385414Q437.3125 88.072914 437.54688 87.416664ZM434.09375 85.71354L437.5625 85.71354Q437.5 84.916664 437.17188 84.52604Q436.65625 83.916664 435.85938 83.916664Q435.125 83.916664 434.625 84.40104Q434.14062 84.885414 434.09375 85.71354ZM440.28125 89.416664L440.28125 83.197914L441.23438 83.197914L441.23438 84.135414Q441.59375 83.479164 441.89062 83.27604Q442.20312 83.05729 442.57812 83.05729Q443.10938 83.05729 443.65625 83.385414L443.29688 84.36979Q442.90625 84.135414 442.53125 84.135414Q442.17188 84.135414 441.89062 84.354164Q441.625 84.55729 441.51562 84.93229Q441.32812 85.49479 441.32812 86.15104L441.32812 89.416664L440.28125 89.416664ZM446.01562 89.416664L443.65625 83.197914L444.76562 83.197914L446.10938 86.916664Q446.3125 87.52604 446.5 88.166664Q446.64062 87.68229 446.89062 86.99479L448.28125 83.197914L449.35938 83.197914L447.0 89.416664L446.01562 89.416664ZM449.29688 82.041664L449.29688 80.822914L450.35938 80.822914L450.35938 82.041664L449.29688 82.041664ZM449.29688 89.416664L449.29688 83.197914L450.35938 83.197914L450.35938 89.416664L449.29688 89.416664ZM456.35938 87.135414L457.39062 87.27604Q457.21875 88.33854 456.51562 88.947914Q455.8125 89.55729 454.79688 89.55729Q453.51562 89.55729 452.73438 88.729164Q451.96875 87.885414 451.96875 86.322914Q451.96875 85.322914 452.29688 84.572914Q452.64062 83.80729 453.3125 83.43229Q454.0 83.05729 454.8125 83.05729Q455.8125 83.05729 456.45312 83.572914Q457.10938 84.072914 457.29688 85.02604L456.26562 85.18229Q456.125 84.55729 455.75 84.24479Q455.375 83.916664 454.84375 83.916664Q454.04688 83.916664 453.54688 84.49479Q453.04688 85.05729 453.04688 86.291664Q453.04688 87.55729 453.53125 88.11979Q454.01562 88.68229 454.78125 88.68229Q455.40625 88.68229 455.8125 88.30729Q456.23438 87.93229 456.35938 87.135414ZM462.54688 87.416664L463.64062 87.541664Q463.39062 88.49479 462.6875 89.02604Q461.98438 89.55729 460.90625 89.55729Q459.54688 89.55729 458.73438 88.71354Q457.9375 87.86979 457.9375 86.354164Q457.9375 84.791664 458.75 83.93229Q459.5625 83.05729 460.84375 83.05729Q462.09375 83.05729 462.875 83.90104Q463.67188 84.74479 463.67188 86.291664Q463.67188 86.385414 463.67188 86.572914L459.03125 86.572914Q459.09375 87.604164 459.60938 88.15104Q460.125 88.68229 460.90625 88.68229Q461.48438 88.68229 461.89062 88.385414Q462.3125 88.072914 462.54688 87.416664ZM459.09375 85.71354L462.5625 85.71354Q462.5 84.916664 462.17188 84.52604Q461.65625 83.916664 460.85938 83.916664Q460.125 83.916664 459.625 84.40104Q459.14062 84.885414 459.09375 85.71354ZM464.875 87.55729L465.90625 87.40104Q466.0 88.02604 466.39062 88.354164Q466.79688 88.68229 467.53125 88.68229Q468.25 88.68229 468.59375 88.40104Q468.95312 88.104164 468.95312 87.697914Q468.95312 87.33854 468.64062 87.135414Q468.42188 86.99479 467.5625 86.77604Q466.40625 86.479164 465.95312 86.27604Q465.51562 86.05729 465.28125 85.68229Q465.04688 85.30729 465.04688 84.83854Q465.04688 84.43229 465.23438 84.072914Q465.42188 83.71354 465.75 83.479164Q466.0 83.30729 466.42188 83.18229Q466.84375 83.05729 467.34375 83.05729Q468.0625 83.05729 468.60938 83.27604Q469.17188 83.479164 469.4375 83.83854Q469.70312 84.197914 469.79688 84.791664L468.76562 84.93229Q468.70312 84.46354 468.35938 84.197914Q468.03125 83.916664 467.40625 83.916664Q466.6875 83.916664 466.375 84.166664Q466.0625 84.40104 466.0625 84.729164Q466.0625 84.93229 466.1875 85.08854Q466.32812 85.260414 466.59375 85.36979Q466.75 85.43229 467.53125 85.635414Q468.65625 85.947914 469.09375 86.135414Q469.53125 86.322914 469.78125 86.68229Q470.03125 87.041664 470.03125 87.58854Q470.03125 88.11979 469.71875 88.58854Q469.42188 89.041664 468.84375 89.30729Q468.26562 89.55729 467.53125 89.55729Q466.3125 89.55729 465.67188 89.05729Q465.04688 88.541664 464.875 87.55729Z" fill-rule="nonzero"/><path fill="#999999" d="M206.21875 63.05L206.21875 56.753124L205.125 56.753124L205.125 55.784374L206.21875 55.784374L206.21875 55.01875Q206.21875 54.284374 206.34375 53.925Q206.53125 53.45625 206.96875 53.159374Q207.42188 52.8625 208.23438 52.8625Q208.75 52.8625 209.375 52.9875L209.1875 54.05Q208.8125 53.9875 208.46875 53.9875Q207.90625 53.9875 207.67188 54.221874Q207.4375 54.45625 207.4375 55.1125L207.4375 55.784374L208.85938 55.784374L208.85938 56.753124L207.4375 56.753124L207.4375 63.05L206.21875 63.05ZM209.9375 54.440624L209.9375 53.034374L211.15625 53.034374L211.15625 54.440624L209.9375 54.440624ZM209.9375 63.05L209.9375 55.784374L211.15625 55.784374L211.15625 63.05L209.9375 63.05ZM212.90625 63.05L212.90625 55.784374L214.01562 55.784374L214.01562 56.89375Q214.4375 56.1125 214.79688 55.878124Q215.15625 55.628124 215.59375 55.628124Q216.21875 55.628124 216.85938 56.01875L216.4375 57.159374Q215.98438 56.89375 215.53125 56.89375Q215.125 56.89375 214.79688 57.14375Q214.48438 57.378124 214.34375 57.815624Q214.14062 58.471874 214.14062 59.253124L214.14062 63.05L212.90625 63.05ZM217.4375 60.878124L218.64062 60.690624Q218.75 61.425 219.21875 61.815624Q219.6875 62.20625 220.53125 62.20625Q221.375 62.20625 221.78125 61.8625Q222.20312 61.51875 222.20312 61.05Q222.20312 60.628124 221.82812 60.39375Q221.57812 60.221874 220.57812 59.971874Q219.21875 59.628124 218.6875 59.378124Q218.17188 59.128124 217.90625 58.690624Q217.64062 58.253124 217.64062 57.721874Q217.64062 57.2375 217.85938 56.83125Q218.07812 56.409374 218.46875 56.128124Q218.75 55.925 219.23438 55.784374Q219.73438 55.628124 220.3125 55.628124Q221.15625 55.628124 221.79688 55.878124Q222.45312 56.1125 222.76562 56.534374Q223.07812 56.95625 223.1875 57.659374L221.98438 57.83125Q221.90625 57.26875 221.5 56.95625Q221.10938 56.64375 220.39062 56.64375Q219.54688 56.64375 219.1875 56.925Q218.82812 57.190624 218.82812 57.58125Q218.82812 57.815624 218.96875 58.003124Q219.125 58.20625 219.45312 58.33125Q219.625 58.39375 220.53125 58.64375Q221.84375 59.003124 222.35938 59.221874Q222.875 59.440624 223.15625 59.8625Q223.45312 60.284374 223.45312 60.909374Q223.45312 61.534374 223.09375 62.08125Q222.75 62.6125 222.0625 62.925Q221.39062 63.221874 220.53125 63.221874Q219.125 63.221874 218.375 62.628124Q217.64062 62.034374 217.4375 60.878124ZM227.60938 61.95625L227.78125 63.034374Q227.26562 63.14375 226.85938 63.14375Q226.1875 63.14375 225.8125 62.940624Q225.45312 62.721874 225.29688 62.378124Q225.15625 62.034374 225.15625 60.925L225.15625 56.753124L224.25 56.753124L224.25 55.784374L225.15625 55.784374L225.15625 53.9875L226.375 53.253124L226.375 55.784374L227.60938 55.784374L227.60938 56.753124L226.375 56.753124L226.375 60.9875Q226.375 61.51875 226.4375 61.675Q226.5 61.815624 226.64062 61.909374Q226.79688 62.003124 227.0625 62.003124Q227.28125 62.003124 227.60938 61.95625ZM232.92188 65.83125L232.92188 55.784374L234.04688 55.784374L234.04688 56.7375Q234.4375 56.175 234.9375 55.909374Q235.4375 55.628124 236.15625 55.628124Q237.07812 55.628124 237.78125 56.1125Q238.5 56.58125 238.85938 57.45625Q239.21875 58.33125 239.21875 59.3625Q239.21875 60.471874 238.8125 61.378124Q238.42188 62.26875 237.65625 62.753124Q236.90625 63.221874 236.0625 63.221874Q235.45312 63.221874 234.95312 62.95625Q234.46875 62.690624 234.15625 62.3L234.15625 65.83125L232.92188 65.83125ZM234.03125 59.45625Q234.03125 60.8625 234.59375 61.534374Q235.17188 62.20625 235.98438 62.20625Q236.79688 62.20625 237.375 61.51875Q237.96875 60.815624 237.96875 59.3625Q237.96875 57.971874 237.39062 57.284374Q236.82812 56.596874 236.03125 56.596874Q235.25 56.596874 234.64062 57.33125Q234.03125 58.065624 234.03125 59.45625ZM245.65625 62.159374Q244.98438 62.7375 244.34375 62.9875Q243.71875 63.221874 242.98438 63.221874Q241.79688 63.221874 241.14062 62.64375Q240.5 62.05 240.5 61.128124Q240.5 60.596874 240.73438 60.159374Q240.98438 59.721874 241.375 59.45625Q241.78125 59.190624 242.26562 59.05Q242.625 58.95625 243.35938 58.8625Q244.85938 58.690624 245.5625 58.440624Q245.5625 58.190624 245.5625 58.128124Q245.5625 57.3625 245.21875 57.065624Q244.75 56.64375 243.8125 56.64375Q242.95312 56.64375 242.53125 56.95625Q242.125 57.253124 241.92188 58.01875L240.71875 57.8625Q240.875 57.08125 241.25 56.6125Q241.64062 56.14375 242.34375 55.89375Q243.0625 55.628124 244.0 55.628124Q244.92188 55.628124 245.5 55.846874Q246.07812 56.065624 246.34375 56.39375Q246.625 56.721874 246.73438 57.2375Q246.79688 57.55 246.79688 58.3625L246.79688 60.003124Q246.79688 61.721874 246.875 62.175Q246.95312 62.628124 247.1875 63.05L245.90625 63.05Q245.71875 62.659374 245.65625 62.159374ZM245.5625 59.409374Q244.89062 59.675 243.54688 59.878124Q242.79688 59.9875 242.46875 60.128124Q242.15625 60.253124 241.98438 60.51875Q241.8125 60.784374 241.8125 61.096874Q241.8125 61.596874 242.1875 61.925Q242.5625 62.253124 243.28125 62.253124Q244.0 62.253124 244.54688 61.940624Q245.09375 61.628124 245.35938 61.08125Q245.5625 60.675 245.5625 59.8625L245.5625 59.409374ZM253.65625 60.39375L254.875 60.55Q254.67188 61.8 253.84375 62.51875Q253.03125 63.221874 251.84375 63.221874Q250.35938 63.221874 249.45312 62.253124Q248.54688 61.26875 248.54688 59.440624Q248.54688 58.26875 248.9375 57.39375Q249.32812 56.503124 250.125 56.065624Q250.92188 55.628124 251.85938 55.628124Q253.03125 55.628124 253.78125 56.221874Q254.54688 56.815624 254.75 57.925L253.5625 58.1125Q253.39062 57.378124 252.95312 57.01875Q252.51562 56.64375 251.90625 56.64375Q250.96875 56.64375 250.39062 57.315624Q249.8125 57.971874 249.8125 59.409374Q249.8125 60.878124 250.375 61.55Q250.9375 62.20625 251.82812 62.20625Q252.5625 62.20625 253.04688 61.76875Q253.53125 61.315624 253.65625 60.39375ZM255.9375 63.05L255.9375 53.034374L257.15625 53.034374L257.15625 58.7375L260.07812 55.784374L261.67188 55.784374L258.89062 58.4875L261.95312 63.05L260.42188 63.05L258.03125 59.33125L257.15625 60.175L257.15625 63.05L255.9375 63.05ZM267.89062 60.70625L269.17188 60.8625Q268.85938 61.9875 268.04688 62.6125Q267.23438 63.221874 265.96875 63.221874Q264.375 63.221874 263.4375 62.2375Q262.51562 61.253124 262.51562 59.4875Q262.51562 57.64375 263.45312 56.64375Q264.40625 55.628124 265.90625 55.628124Q267.35938 55.628124 268.28125 56.628124Q269.20312 57.6125 269.20312 59.409374Q269.20312 59.51875 269.20312 59.7375L263.78125 59.7375Q263.85938 60.925 264.45312 61.565624Q265.0625 62.20625 265.98438 62.20625Q266.65625 62.20625 267.125 61.846874Q267.60938 61.4875 267.89062 60.70625ZM263.85938 58.721874L267.90625 58.721874Q267.82812 57.8 267.4375 57.346874Q266.85938 56.64375 265.92188 56.64375Q265.0625 56.64375 264.48438 57.20625Q263.92188 57.76875 263.85938 58.721874ZM273.60938 61.95625L273.78125 63.034374Q273.26562 63.14375 272.85938 63.14375Q272.1875 63.14375 271.8125 62.940624Q271.45312 62.721874 271.29688 62.378124Q271.15625 62.034374 271.15625 60.925L271.15625 56.753124L270.25 56.753124L270.25 55.784374L271.15625 55.784374L271.15625 53.9875L272.375 53.253124L272.375 55.784374L273.60938 55.784374L273.60938 56.753124L272.375 56.753124L272.375 60.9875Q272.375 61.51875 272.4375 61.675Q272.5 61.815624 272.64062 61.909374Q272.79688 62.003124 273.0625 62.003124Q273.28125 62.003124 273.60938 61.95625ZM278.90625 63.05L278.90625 55.784374L280.01562 55.784374L280.01562 56.89375Q280.4375 56.1125 280.79688 55.878124Q281.15625 55.628124 281.59375 55.628124Q282.21875 55.628124 282.85938 56.01875L282.4375 57.159374Q281.98438 56.89375 281.53125 56.89375Q281.125 56.89375 280.79688 57.14375Q280.48438 57.378124 280.34375 57.815624Q280.14062 58.471874 280.14062 59.253124L280.14062 63.05L278.90625 63.05ZM283.46875 59.425Q283.46875 57.409374 284.59375 56.425Q285.51562 55.628124 286.875 55.628124Q288.35938 55.628124 289.3125 56.6125Q290.26562 57.58125 290.26562 59.315624Q290.26562 60.721874 289.84375 61.534374Q289.42188 62.33125 288.60938 62.784374Q287.8125 63.221874 286.875 63.221874Q285.34375 63.221874 284.40625 62.2375Q283.46875 61.253124 283.46875 59.425ZM284.73438 59.425Q284.73438 60.815624 285.34375 61.51875Q285.95312 62.20625 286.875 62.20625Q287.78125 62.20625 288.39062 61.503124Q289.0 60.8 289.0 59.378124Q289.0 58.034374 288.39062 57.346874Q287.78125 56.64375 286.875 56.64375Q285.95312 56.64375 285.34375 57.33125Q284.73438 58.01875 284.73438 59.425ZM296.6875 63.05L296.6875 61.9875Q295.82812 63.221874 294.375 63.221874Q293.73438 63.221874 293.17188 62.971874Q292.625 62.721874 292.34375 62.346874Q292.07812 61.971874 291.96875 61.440624Q291.89062 61.08125 291.89062 60.284374L291.89062 55.784374L293.125 55.784374L293.125 59.815624Q293.125 60.784374 293.20312 61.1125Q293.3125 61.596874 293.6875 61.878124Q294.0625 62.159374 294.625 62.159374Q295.17188 62.159374 295.65625 61.878124Q296.14062 61.58125 296.34375 61.096874Q296.54688 60.6125 296.54688 59.675L296.54688 55.784374L297.78125 55.784374L297.78125 63.05L296.6875 63.05ZM299.92188 63.05L299.92188 55.784374L301.03125 55.784374L301.03125 56.815624Q301.82812 55.628124 303.34375 55.628124Q304.0 55.628124 304.54688 55.8625Q305.09375 56.096874 305.35938 56.4875Q305.64062 56.8625 305.75 57.39375Q305.82812 57.7375 305.82812 58.58125L305.82812 63.05L304.59375 63.05L304.59375 58.628124Q304.59375 57.878124 304.45312 57.51875Q304.3125 57.14375 303.9375 56.925Q303.57812 56.690624 303.07812 56.690624Q302.29688 56.690624 301.71875 57.190624Q301.15625 57.690624 301.15625 59.08125L301.15625 63.05L299.92188 63.05ZM312.64062 63.05L312.64062 62.128124Q311.9375 63.221874 310.60938 63.221874Q309.73438 63.221874 309.0 62.7375Q308.28125 62.253124 307.875 61.39375Q307.48438 60.534374 307.48438 59.425Q307.48438 58.346874 307.84375 57.45625Q308.20312 56.565624 308.92188 56.096874Q309.65625 55.628124 310.54688 55.628124Q311.20312 55.628124 311.71875 55.909374Q312.23438 56.175 312.54688 56.628124L312.54688 53.034374L313.78125 53.034374L313.78125 63.05L312.64062 63.05ZM308.75 59.425Q308.75 60.815624 309.32812 61.51875Q309.92188 62.20625 310.71875 62.20625Q311.53125 62.20625 312.09375 61.55Q312.65625 60.878124 312.65625 59.534374Q312.65625 58.034374 312.07812 57.346874Q311.5 56.64375 310.67188 56.64375Q309.84375 56.64375 309.29688 57.315624Q308.75 57.9875 308.75 59.425ZM322.60938 61.95625L322.78125 63.034374Q322.26562 63.14375 321.85938 63.14375Q321.1875 63.14375 320.8125 62.940624Q320.45312 62.721874 320.29688 62.378124Q320.15625 62.034374 320.15625 60.925L320.15625 56.753124L319.25 56.753124L319.25 55.784374L320.15625 55.784374L320.15625 53.9875L321.375 53.253124L321.375 55.784374L322.60938 55.784374L322.60938 56.753124L321.375 56.753124L321.375 60.9875Q321.375 61.51875 321.4375 61.675Q321.5 61.815624 321.64062 61.909374Q321.79688 62.003124 322.0625 62.003124Q322.28125 62.003124 322.60938 61.95625ZM323.90625 63.05L323.90625 55.784374L325.01562 55.784374L325.01562 56.89375Q325.4375 56.1125 325.79688 55.878124Q326.15625 55.628124 326.59375 55.628124Q327.21875 55.628124 327.85938 56.01875L327.4375 57.159374Q326.98438 56.89375 326.53125 56.89375Q326.125 56.89375 325.79688 57.14375Q325.48438 57.378124 325.34375 57.815624Q325.14062 58.471874 325.14062 59.253124L325.14062 63.05L323.90625 63.05ZM328.9375 54.440624L328.9375 53.034374L330.15625 53.034374L330.15625 54.440624L328.9375 54.440624ZM328.9375 63.05L328.9375 55.784374L330.15625 55.784374L330.15625 63.05L328.9375 63.05ZM331.92188 65.83125L331.92188 55.784374L333.04688 55.784374L333.04688 56.7375Q333.4375 56.175 333.9375 55.909374Q334.4375 55.628124 335.15625 55.628124Q336.07812 55.628124 336.78125 56.1125Q337.5 56.58125 337.85938 57.45625Q338.21875 58.33125 338.21875 59.3625Q338.21875 60.471874 337.8125 61.378124Q337.42188 62.26875 336.65625 62.753124Q335.90625 63.221874 335.0625 63.221874Q334.45312 63.221874 333.95312 62.95625Q333.46875 62.690624 333.15625 62.3L333.15625 65.83125L331.92188 65.83125ZM333.03125 59.45625Q333.03125 60.8625 333.59375 61.534374Q334.17188 62.20625 334.98438 62.20625Q335.79688 62.20625 336.375 61.51875Q336.96875 60.815624 336.96875 59.3625Q336.96875 57.971874 336.39062 57.284374Q335.82812 56.596874 335.03125 56.596874Q334.25 56.596874 333.64062 57.33125Q333.03125 58.065624 333.03125 59.45625ZM346.60938 61.95625L346.78125 63.034374Q346.26562 63.14375 345.85938 63.14375Q345.1875 63.14375 344.8125 62.940624Q344.45312 62.721874 344.29688 62.378124Q344.15625 62.034374 344.15625 60.925L344.15625 56.753124L343.25 56.753124L343.25 55.784374L344.15625 55.784374L344.15625 53.9875L345.375 53.253124L345.375 55.784374L346.60938 55.784374L346.60938 56.753124L345.375 56.753124L345.375 60.9875Q345.375 61.51875 345.4375 61.675Q345.5 61.815624 345.64062 61.909374Q345.79688 62.003124 346.0625 62.003124Q346.28125 62.003124 346.60938 61.95625ZM347.9375 54.440624L347.9375 53.034374L349.15625 53.034374L349.15625 54.440624L347.9375 54.440624ZM347.9375 63.05L347.9375 55.784374L349.15625 55.784374L349.15625 63.05L347.9375 63.05ZM350.92188 63.05L350.92188 55.784374L352.03125 55.784374L352.03125 56.815624Q352.35938 56.26875 352.92188 55.95625Q353.5 55.628124 354.21875 55.628124Q355.03125 55.628124 355.54688 55.971874Q356.0625 56.3 356.28125 56.89375Q357.14062 55.628124 358.51562 55.628124Q359.59375 55.628124 360.17188 56.221874Q360.76562 56.815624 360.76562 58.065624L360.76562 63.05L359.53125 63.05L359.53125 58.471874Q359.53125 57.7375 359.40625 57.409374Q359.29688 57.08125 358.98438 56.89375Q358.67188 56.690624 358.25 56.690624Q357.48438 56.690624 356.96875 57.20625Q356.46875 57.70625 356.46875 58.83125L356.46875 63.05L355.23438 63.05L355.23438 58.33125Q355.23438 57.51875 354.9375 57.1125Q354.64062 56.690624 353.95312 56.690624Q353.4375 56.690624 352.98438 56.971874Q352.54688 57.2375 352.34375 57.76875Q352.15625 58.284374 352.15625 59.284374L352.15625 63.05L350.92188 63.05ZM366.89062 60.70625L368.17188 60.8625Q367.85938 61.9875 367.04688 62.6125Q366.23438 63.221874 364.96875 63.221874Q363.375 63.221874 362.4375 62.2375Q361.51562 61.253124 361.51562 59.4875Q361.51562 57.64375 362.45312 56.64375Q363.40625 55.628124 364.90625 55.628124Q366.35938 55.628124 367.28125 56.628124Q368.20312 57.6125 368.20312 59.409374Q368.20312 59.51875 368.20312 59.7375L362.78125 59.7375Q362.85938 60.925 363.45312 61.565624Q364.0625 62.20625 364.98438 62.20625Q365.65625 62.20625 366.125 61.846874Q366.60938 61.4875 366.89062 60.70625ZM362.85938 58.721874L366.90625 58.721874Q366.82812 57.8 366.4375 57.346874Q365.85938 56.64375 364.92188 56.64375Q364.0625 56.64375 363.48438 57.20625Q362.92188 57.76875 362.85938 58.721874ZM370.25 63.05L370.25 61.64375L371.64062 61.64375L371.64062 63.05Q371.64062 63.815624 371.35938 64.28438Q371.09375 64.76875 370.5 65.03438L370.15625 64.50313Q370.54688 64.33125 370.73438 64.00313Q370.92188 63.675 370.9375 63.05L370.25 63.05ZM377.92188 63.05L377.92188 55.784374L379.03125 55.784374L379.03125 56.815624Q379.35938 56.26875 379.92188 55.95625Q380.5 55.628124 381.21875 55.628124Q382.03125 55.628124 382.54688 55.971874Q383.0625 56.3 383.28125 56.89375Q384.14062 55.628124 385.51562 55.628124Q386.59375 55.628124 387.17188 56.221874Q387.76562 56.815624 387.76562 58.065624L387.76562 63.05L386.53125 63.05L386.53125 58.471874Q386.53125 57.7375 386.40625 57.409374Q386.29688 57.08125 385.98438 56.89375Q385.67188 56.690624 385.25 56.690624Q384.48438 56.690624 383.96875 57.20625Q383.46875 57.70625 383.46875 58.83125L383.46875 63.05L382.23438 63.05L382.23438 58.33125Q382.23438 57.51875 381.9375 57.1125Q381.64062 56.690624 380.95312 56.690624Q380.4375 56.690624 379.98438 56.971874Q379.54688 57.2375 379.34375 57.76875Q379.15625 58.284374 379.15625 59.284374L379.15625 63.05L377.92188 63.05ZM388.4375 60.878124L389.64062 60.690624Q389.75 61.425 390.21875 61.815624Q390.6875 62.20625 391.53125 62.20625Q392.375 62.20625 392.78125 61.8625Q393.20312 61.51875 393.20312 61.05Q393.20312 60.628124 392.82812 60.39375Q392.57812 60.221874 391.57812 59.971874Q390.21875 59.628124 389.6875 59.378124Q389.17188 59.128124 388.90625 58.690624Q388.64062 58.253124 388.64062 57.721874Q388.64062 57.2375 388.85938 56.83125Q389.07812 56.409374 389.46875 56.128124Q389.75 55.925 390.23438 55.784374Q390.73438 55.628124 391.3125 55.628124Q392.15625 55.628124 392.79688 55.878124Q393.45312 56.1125 393.76562 56.534374Q394.07812 56.95625 394.1875 57.659374L392.98438 57.83125Q392.90625 57.26875 392.5 56.95625Q392.10938 56.64375 391.39062 56.64375Q390.54688 56.64375 390.1875 56.925Q389.82812 57.190624 389.82812 57.58125Q389.82812 57.815624 389.96875 58.003124Q390.125 58.20625 390.45312 58.33125Q390.625 58.39375 391.53125 58.64375Q392.84375 59.003124 393.35938 59.221874Q393.875 59.440624 394.15625 59.8625Q394.45312 60.284374 394.45312 60.909374Q394.45312 61.534374 394.09375 62.08125Q393.75 62.6125 393.0625 62.925Q392.39062 63.221874 391.53125 63.221874Q390.125 63.221874 389.375 62.628124Q388.64062 62.034374 388.4375 60.878124Z" fill-rule="nonzero"/><path fill="#757575" d="M132.32812 37.55L132.32812 23.2375L134.09375 23.2375L134.09375 31.39375L138.25 27.175L140.51562 27.175L136.5625 31.01875L140.92188 37.55L138.75 37.55L135.32812 32.253124L134.09375 33.440624L134.09375 37.55L132.32812 37.55ZM149.10938 37.55L149.10938 36.01875Q147.90625 37.784374 145.82812 37.784374Q144.90625 37.784374 144.10938 37.440624Q143.3125 37.08125 142.92188 36.55Q142.54688 36.01875 142.39062 35.2375Q142.28125 34.721874 142.28125 33.596874L142.28125 27.175L144.03125 27.175L144.03125 32.925Q144.03125 34.3 144.14062 34.784374Q144.3125 35.471874 144.84375 35.878124Q145.39062 36.26875 146.17188 36.26875Q146.96875 36.26875 147.65625 35.8625Q148.35938 35.45625 148.64062 34.76875Q148.9375 34.065624 148.9375 32.7375L148.9375 27.175L150.6875 27.175L150.6875 37.55L149.10938 37.55ZM153.9375 37.55L152.3125 37.55L152.3125 23.2375L154.0625 23.2375L154.0625 28.346874Q155.1875 26.940624 156.90625 26.940624Q157.85938 26.940624 158.71875 27.33125Q159.57812 27.721874 160.125 28.425Q160.67188 29.1125 160.98438 30.096874Q161.29688 31.08125 161.29688 32.20625Q161.29688 34.878124 159.98438 36.33125Q158.67188 37.784374 156.82812 37.784374Q154.98438 37.784374 153.9375 36.253124L153.9375 37.55ZM153.92188 32.284374Q153.92188 34.14375 154.42188 34.9875Q155.26562 36.33125 156.67188 36.33125Q157.82812 36.33125 158.65625 35.33125Q159.5 34.33125 159.5 32.346874Q159.5 30.315624 158.6875 29.3625Q157.89062 28.39375 156.75 28.39375Q155.59375 28.39375 154.75 29.39375Q153.92188 30.39375 153.92188 32.284374ZM170.42188 34.20625L172.23438 34.440624Q171.8125 36.01875 170.64062 36.909374Q169.48438 37.784374 167.67188 37.784374Q165.40625 37.784374 164.0625 36.39375Q162.73438 34.9875 162.73438 32.45625Q162.73438 29.83125 164.07812 28.39375Q165.42188 26.940624 167.57812 26.940624Q169.65625 26.940624 170.96875 28.3625Q172.29688 29.76875 172.29688 32.346874Q172.29688 32.503124 172.28125 32.815624L164.54688 32.815624Q164.64062 34.51875 165.51562 35.425Q166.39062 36.33125 167.6875 36.33125Q168.65625 36.33125 169.32812 35.83125Q170.01562 35.315624 170.42188 34.20625ZM164.64062 31.3625L170.4375 31.3625Q170.32812 30.065624 169.78125 29.409374Q168.9375 28.39375 167.59375 28.39375Q166.39062 28.39375 165.5625 29.20625Q164.73438 30.003124 164.64062 31.3625ZM173.64062 33.253124L173.64062 31.4875L179.03125 31.4875L179.03125 33.253124L173.64062 33.253124ZM181.3125 41.51875L181.3125 27.175L182.92188 27.175L182.92188 28.51875Q183.48438 27.7375 184.1875 27.346874Q184.90625 26.940624 185.92188 26.940624Q187.25 26.940624 188.26562 27.628124Q189.28125 28.315624 189.79688 29.565624Q190.32812 30.8 190.32812 32.284374Q190.32812 33.878124 189.75 35.159374Q189.1875 36.425 188.09375 37.1125Q187.0 37.784374 185.79688 37.784374Q184.92188 37.784374 184.21875 37.409374Q183.53125 37.034374 183.07812 36.471874L183.07812 41.51875L181.3125 41.51875ZM182.90625 32.425Q182.90625 34.425 183.71875 35.378124Q184.53125 36.33125 185.6875 36.33125Q186.85938 36.33125 187.6875 35.346874Q188.53125 34.3625 188.53125 32.26875Q188.53125 30.3 187.70312 29.315624Q186.89062 28.315624 185.76562 28.315624Q184.64062 28.315624 183.76562 29.378124Q182.90625 30.425 182.90625 32.425ZM192.29688 37.55L192.29688 27.175L193.875 27.175L193.875 28.753124Q194.48438 27.64375 195.0 27.3Q195.51562 26.940624 196.125 26.940624Q197.01562 26.940624 197.9375 27.503124L197.32812 29.14375Q196.6875 28.753124 196.04688 28.753124Q195.46875 28.753124 195.0 29.1125Q194.54688 29.45625 194.34375 30.065624Q194.0625 31.003124 194.0625 32.1125L194.0625 37.55L192.29688 37.55ZM198.67188 32.3625Q198.67188 29.4875 200.26562 28.096874Q201.60938 26.940624 203.53125 26.940624Q205.67188 26.940624 207.01562 28.346874Q208.375 29.753124 208.375 32.221874Q208.375 34.221874 207.78125 35.378124Q207.1875 36.51875 206.03125 37.159374Q204.89062 37.784374 203.53125 37.784374Q201.34375 37.784374 200.0 36.39375Q198.67188 34.9875 198.67188 32.3625ZM200.46875 32.3625Q200.46875 34.3625 201.32812 35.346874Q202.20312 36.33125 203.53125 36.33125Q204.84375 36.33125 205.70312 35.346874Q206.57812 34.346874 206.57812 32.3Q206.57812 30.378124 205.70312 29.39375Q204.82812 28.39375 203.53125 28.39375Q202.20312 28.39375 201.32812 29.39375Q200.46875 30.378124 200.46875 32.3625ZM209.14062 37.55L212.9375 32.159374L209.4375 27.175L211.625 27.175L213.21875 29.6125Q213.67188 30.3 213.9375 30.76875Q214.375 30.128124 214.73438 29.628124L216.48438 27.175L218.57812 27.175L215.0 32.065624L218.85938 37.55L216.70312 37.55L214.5625 34.33125L214.0 33.45625L211.28125 37.55L209.14062 37.55ZM219.23438 41.55L219.04688 39.89375Q219.625 40.05 220.04688 40.05Q220.64062 40.05 220.98438 39.846874Q221.34375 39.659374 221.5625 39.315624Q221.73438 39.05 222.10938 38.003124Q222.15625 37.846874 222.26562 37.565624L218.32812 27.175L220.21875 27.175L222.375 33.190624Q222.79688 34.33125 223.125 35.58125Q223.4375 34.378124 223.84375 33.221874L226.0625 27.175L227.82812 27.175L223.875 37.721874Q223.25 39.440624 222.89062 40.08125Q222.42188 40.95625 221.8125 41.346874Q221.21875 41.753124 220.375 41.753124Q219.85938 41.753124 219.23438 41.55ZM235.3125 37.55L235.3125 27.175L236.90625 27.175L236.90625 28.659374Q238.04688 26.940624 240.20312 26.940624Q241.14062 26.940624 241.92188 27.284374Q242.71875 27.6125 243.10938 28.159374Q243.5 28.70625 243.65625 29.45625Q243.75 29.95625 243.75 31.175L243.75 37.55L241.98438 37.55L241.98438 31.2375Q241.98438 30.159374 241.78125 29.628124Q241.57812 29.096874 241.04688 28.784374Q240.53125 28.471874 239.82812 28.471874Q238.70312 28.471874 237.89062 29.190624Q237.07812 29.89375 237.07812 31.878124L237.07812 37.55L235.3125 37.55ZM245.73438 37.55L245.73438 28.55L244.1875 28.55L244.1875 27.175L245.73438 27.175L245.73438 26.08125Q245.73438 25.034374 245.92188 24.51875Q246.17188 23.83125 246.8125 23.409374Q247.45312 22.9875 248.60938 22.9875Q249.35938 22.9875 250.25 23.159374L249.98438 24.690624Q249.4375 24.596874 248.95312 24.596874Q248.15625 24.596874 247.8125 24.940624Q247.48438 25.284374 247.48438 26.221874L247.48438 27.175L249.51562 27.175L249.51562 28.55L247.48438 28.55L247.48438 37.55L245.73438 37.55ZM255.15625 35.971874L255.40625 37.534374Q254.67188 37.690624 254.07812 37.690624Q253.125 37.690624 252.59375 37.39375Q252.07812 37.08125 251.85938 36.596874Q251.64062 36.096874 251.64062 34.51875L251.64062 28.55L250.35938 28.55L250.35938 27.175L251.64062 27.175L251.64062 24.6125L253.39062 23.55L253.39062 27.175L255.15625 27.175L255.15625 28.55L253.39062 28.55L253.39062 34.6125Q253.39062 35.3625 253.48438 35.58125Q253.57812 35.784374 253.78125 35.925Q254.0 36.05 254.39062 36.05Q254.67188 36.05 255.15625 35.971874ZM264.09375 36.26875Q263.10938 37.096874 262.20312 37.440624Q261.29688 37.784374 260.26562 37.784374Q258.5625 37.784374 257.64062 36.95625Q256.71875 36.1125 256.71875 34.815624Q256.71875 34.05 257.0625 33.425Q257.42188 32.8 257.98438 32.425Q258.54688 32.034374 259.25 31.83125Q259.76562 31.70625 260.8125 31.565624Q262.9375 31.315624 263.9375 30.971874Q263.95312 30.6125 263.95312 30.503124Q263.95312 29.440624 263.45312 28.9875Q262.78125 28.39375 261.45312 28.39375Q260.20312 28.39375 259.60938 28.83125Q259.03125 29.26875 258.75 30.378124L257.03125 30.14375Q257.26562 29.034374 257.79688 28.3625Q258.32812 27.675 259.34375 27.315624Q260.35938 26.940624 261.70312 26.940624Q263.03125 26.940624 263.85938 27.253124Q264.6875 27.565624 265.07812 28.05Q265.46875 28.51875 265.625 29.2375Q265.71875 29.690624 265.71875 30.8625L265.71875 33.20625Q265.71875 35.659374 265.82812 36.315624Q265.9375 36.95625 266.28125 37.55L264.4375 37.55Q264.17188 37.003124 264.09375 36.26875ZM263.9375 32.346874Q262.98438 32.7375 261.0625 33.003124Q259.98438 33.159374 259.53125 33.3625Q259.09375 33.55 258.84375 33.925Q258.59375 34.3 258.59375 34.76875Q258.59375 35.471874 259.125 35.940624Q259.65625 36.409374 260.6875 36.409374Q261.70312 36.409374 262.48438 35.971874Q263.28125 35.51875 263.65625 34.753124Q263.9375 34.14375 263.9375 32.9875L263.9375 32.346874ZM269.9375 37.55L268.3125 37.55L268.3125 23.2375L270.0625 23.2375L270.0625 28.346874Q271.1875 26.940624 272.90625 26.940624Q273.85938 26.940624 274.71875 27.33125Q275.57812 27.721874 276.125 28.425Q276.67188 29.1125 276.98438 30.096874Q277.29688 31.08125 277.29688 32.20625Q277.29688 34.878124 275.98438 36.33125Q274.67188 37.784374 272.82812 37.784374Q270.98438 37.784374 269.9375 36.253124L269.9375 37.55ZM269.92188 32.284374Q269.92188 34.14375 270.42188 34.9875Q271.26562 36.33125 272.67188 36.33125Q273.82812 36.33125 274.65625 35.33125Q275.5 34.33125 275.5 32.346874Q275.5 30.315624 274.6875 29.3625Q273.89062 28.39375 272.75 28.39375Q271.59375 28.39375 270.75 29.39375Q269.92188 30.39375 269.92188 32.284374ZM279.28125 37.55L279.28125 23.2375L281.03125 23.2375L281.03125 37.55L279.28125 37.55ZM290.42188 34.20625L292.23438 34.440624Q291.8125 36.01875 290.64062 36.909374Q289.48438 37.784374 287.67188 37.784374Q285.40625 37.784374 284.0625 36.39375Q282.73438 34.9875 282.73438 32.45625Q282.73438 29.83125 284.07812 28.39375Q285.42188 26.940624 287.57812 26.940624Q289.65625 26.940624 290.96875 28.3625Q292.29688 29.76875 292.29688 32.346874Q292.29688 32.503124 292.28125 32.815624L284.54688 32.815624Q284.64062 34.51875 285.51562 35.425Q286.39062 36.33125 287.6875 36.33125Q288.65625 36.33125 289.32812 35.83125Q290.01562 35.315624 290.42188 34.20625ZM284.64062 31.3625L290.4375 31.3625Q290.32812 30.065624 289.78125 29.409374Q288.9375 28.39375 287.59375 28.39375Q286.39062 28.39375 285.5625 29.20625Q284.73438 30.003124 284.64062 31.3625ZM293.60938 34.45625L295.35938 34.175Q295.5 35.221874 296.17188 35.784374Q296.84375 36.33125 298.04688 36.33125Q299.25 36.33125 299.82812 35.846874Q300.42188 35.346874 300.42188 34.690624Q300.42188 34.096874 299.90625 33.753124Q299.54688 33.51875 298.10938 33.159374Q296.17188 32.659374 295.42188 32.315624Q294.6875 31.95625 294.29688 31.33125Q293.90625 30.690624 293.90625 29.925Q293.90625 29.2375 294.21875 28.64375Q294.54688 28.05 295.09375 27.659374Q295.5 27.3625 296.20312 27.159374Q296.92188 26.940624 297.73438 26.940624Q298.95312 26.940624 299.875 27.3Q300.79688 27.64375 301.23438 28.253124Q301.67188 28.846874 301.84375 29.846874L300.125 30.08125Q300.0 29.284374 299.4375 28.846874Q298.875 28.39375 297.85938 28.39375Q296.64062 28.39375 296.125 28.8Q295.60938 29.190624 295.60938 29.721874Q295.60938 30.065624 295.82812 30.346874Q296.03125 30.628124 296.5 30.815624Q296.76562 30.909374 298.04688 31.253124Q299.92188 31.753124 300.65625 32.08125Q301.39062 32.39375 301.8125 33.003124Q302.23438 33.596874 302.23438 34.503124Q302.23438 35.378124 301.71875 36.159374Q301.20312 36.940624 300.23438 37.3625Q299.26562 37.784374 298.04688 37.784374Q296.03125 37.784374 294.96875 36.940624Q293.90625 36.096874 293.60938 34.45625ZM317.04688 37.55L317.04688 36.2375Q316.0625 37.784374 314.14062 37.784374Q312.90625 37.784374 311.85938 37.096874Q310.82812 36.409374 310.25 35.190624Q309.6875 33.971874 309.6875 32.378124Q309.6875 30.815624 310.20312 29.55Q310.71875 28.284374 311.75 27.6125Q312.79688 26.940624 314.0625 26.940624Q315.0 26.940624 315.73438 27.346874Q316.46875 27.7375 316.9375 28.3625L316.9375 23.2375L318.67188 23.2375L318.67188 37.55L317.04688 37.55ZM311.48438 32.378124Q311.48438 34.3625 312.32812 35.346874Q313.17188 36.33125 314.3125 36.33125Q315.46875 36.33125 316.26562 35.39375Q317.07812 34.45625 317.07812 32.51875Q317.07812 30.39375 316.25 29.39375Q315.4375 28.39375 314.23438 28.39375Q313.0625 28.39375 312.26562 29.3625Q311.48438 30.315624 311.48438 32.378124ZM328.09375 36.26875Q327.10938 37.096874 326.20312 37.440624Q325.29688 37.784374 324.26562 37.784374Q322.5625 37.784374 321.64062 36.95625Q320.71875 36.1125 320.71875 34.815624Q320.71875 34.05 321.0625 33.425Q321.42188 32.8 321.98438 32.425Q322.54688 32.034374 323.25 31.83125Q323.76562 31.70625 324.8125 31.565624Q326.9375 31.315624 327.9375 30.971874Q327.95312 30.6125 327.95312 30.503124Q327.95312 29.440624 327.45312 28.9875Q326.78125 28.39375 325.45312 28.39375Q324.20312 28.39375 323.60938 28.83125Q323.03125 29.26875 322.75 30.378124L321.03125 30.14375Q321.26562 29.034374 321.79688 28.3625Q322.32812 27.675 323.34375 27.315624Q324.35938 26.940624 325.70312 26.940624Q327.03125 26.940624 327.85938 27.253124Q328.6875 27.565624 329.07812 28.05Q329.46875 28.51875 329.625 29.2375Q329.71875 29.690624 329.71875 30.8625L329.71875 33.20625Q329.71875 35.659374 329.82812 36.315624Q329.9375 36.95625 330.28125 37.55L328.4375 37.55Q328.17188 37.003124 328.09375 36.26875ZM327.9375 32.346874Q326.98438 32.7375 325.0625 33.003124Q323.98438 33.159374 323.53125 33.3625Q323.09375 33.55 322.84375 33.925Q322.59375 34.3 322.59375 34.76875Q322.59375 35.471874 323.125 35.940624Q323.65625 36.409374 324.6875 36.409374Q325.70312 36.409374 326.48438 35.971874Q327.28125 35.51875 327.65625 34.753124Q327.9375 34.14375 327.9375 32.9875L327.9375 32.346874ZM336.15625 35.971874L336.40625 37.534374Q335.67188 37.690624 335.07812 37.690624Q334.125 37.690624 333.59375 37.39375Q333.07812 37.08125 332.85938 36.596874Q332.64062 36.096874 332.64062 34.51875L332.64062 28.55L331.35938 28.55L331.35938 27.175L332.64062 27.175L332.64062 24.6125L334.39062 23.55L334.39062 27.175L336.15625 27.175L336.15625 28.55L334.39062 28.55L334.39062 34.6125Q334.39062 35.3625 334.48438 35.58125Q334.57812 35.784374 334.78125 35.925Q335.0 36.05 335.39062 36.05Q335.67188 36.05 336.15625 35.971874ZM345.09375 36.26875Q344.10938 37.096874 343.20312 37.440624Q342.29688 37.784374 341.26562 37.784374Q339.5625 37.784374 338.64062 36.95625Q337.71875 36.1125 337.71875 34.815624Q337.71875 34.05 338.0625 33.425Q338.42188 32.8 338.98438 32.425Q339.54688 32.034374 340.25 31.83125Q340.76562 31.70625 341.8125 31.565624Q343.9375 31.315624 344.9375 30.971874Q344.95312 30.6125 344.95312 30.503124Q344.95312 29.440624 344.45312 28.9875Q343.78125 28.39375 342.45312 28.39375Q341.20312 28.39375 340.60938 28.83125Q340.03125 29.26875 339.75 30.378124L338.03125 30.14375Q338.26562 29.034374 338.79688 28.3625Q339.32812 27.675 340.34375 27.315624Q341.35938 26.940624 342.70312 26.940624Q344.03125 26.940624 344.85938 27.253124Q345.6875 27.565624 346.07812 28.05Q346.46875 28.51875 346.625 29.2375Q346.71875 29.690624 346.71875 30.8625L346.71875 33.20625Q346.71875 35.659374 346.82812 36.315624Q346.9375 36.95625 347.28125 37.55L345.4375 37.55Q345.17188 37.003124 345.09375 36.26875ZM344.9375 32.346874Q343.98438 32.7375 342.0625 33.003124Q340.98438 33.159374 340.53125 33.3625Q340.09375 33.55 339.84375 33.925Q339.59375 34.3 339.59375 34.76875Q339.59375 35.471874 340.125 35.940624Q340.65625 36.409374 341.6875 36.409374Q342.70312 36.409374 343.48438 35.971874Q344.28125 35.51875 344.65625 34.753124Q344.9375 34.14375 344.9375 32.9875L344.9375 32.346874ZM355.3125 41.51875L355.3125 27.175L356.92188 27.175L356.92188 28.51875Q357.48438 27.7375 358.1875 27.346874Q358.90625 26.940624 359.92188 26.940624Q361.25 26.940624 362.26562 27.628124Q363.28125 28.315624 363.79688 29.565624Q364.32812 30.8 364.32812 32.284374Q364.32812 33.878124 363.75 35.159374Q363.1875 36.425 362.09375 37.1125Q361.0 37.784374 359.79688 37.784374Q358.92188 37.784374 358.21875 37.409374Q357.53125 37.034374 357.07812 36.471874L357.07812 41.51875L355.3125 41.51875ZM356.90625 32.425Q356.90625 34.425 357.71875 35.378124Q358.53125 36.33125 359.6875 36.33125Q360.85938 36.33125 361.6875 35.346874Q362.53125 34.3625 362.53125 32.26875Q362.53125 30.3 361.70312 29.315624Q360.89062 28.315624 359.76562 28.315624Q358.64062 28.315624 357.76562 29.378124Q356.90625 30.425 356.90625 32.425ZM366.28125 37.55L366.28125 23.2375L368.03125 23.2375L368.03125 37.55L366.28125 37.55ZM377.09375 36.26875Q376.10938 37.096874 375.20312 37.440624Q374.29688 37.784374 373.26562 37.784374Q371.5625 37.784374 370.64062 36.95625Q369.71875 36.1125 369.71875 34.815624Q369.71875 34.05 370.0625 33.425Q370.42188 32.8 370.98438 32.425Q371.54688 32.034374 372.25 31.83125Q372.76562 31.70625 373.8125 31.565624Q375.9375 31.315624 376.9375 30.971874Q376.95312 30.6125 376.95312 30.503124Q376.95312 29.440624 376.45312 28.9875Q375.78125 28.39375 374.45312 28.39375Q373.20312 28.39375 372.60938 28.83125Q372.03125 29.26875 371.75 30.378124L370.03125 30.14375Q370.26562 29.034374 370.79688 28.3625Q371.32812 27.675 372.34375 27.315624Q373.35938 26.940624 374.70312 26.940624Q376.03125 26.940624 376.85938 27.253124Q377.6875 27.565624 378.07812 28.05Q378.46875 28.51875 378.625 29.2375Q378.71875 29.690624 378.71875 30.8625L378.71875 33.20625Q378.71875 35.659374 378.82812 36.315624Q378.9375 36.95625 379.28125 37.55L377.4375 37.55Q377.17188 37.003124 377.09375 36.26875ZM376.9375 32.346874Q375.98438 32.7375 374.0625 33.003124Q372.98438 33.159374 372.53125 33.3625Q372.09375 33.55 371.84375 33.925Q371.59375 34.3 371.59375 34.76875Q371.59375 35.471874 372.125 35.940624Q372.65625 36.409374 373.6875 36.409374Q374.70312 36.409374 375.48438 35.971874Q376.28125 35.51875 376.65625 34.753124Q376.9375 34.14375 376.9375 32.9875L376.9375 32.346874ZM381.3125 37.55L381.3125 27.175L382.90625 27.175L382.90625 28.659374Q384.04688 26.940624 386.20312 26.940624Q387.14062 26.940624 387.92188 27.284374Q388.71875 27.6125 389.10938 28.159374Q389.5 28.70625 389.65625 29.45625Q389.75 29.95625 389.75 31.175L389.75 37.55L387.98438 37.55L387.98438 31.2375Q387.98438 30.159374 387.78125 29.628124Q387.57812 29.096874 387.04688 28.784374Q386.53125 28.471874 385.82812 28.471874Q384.70312 28.471874 383.89062 29.190624Q383.07812 29.89375 383.07812 31.878124L383.07812 37.55L381.3125 37.55ZM398.42188 34.20625L400.23438 34.440624Q399.8125 36.01875 398.64062 36.909374Q397.48438 37.784374 395.67188 37.784374Q393.40625 37.784374 392.0625 36.39375Q390.73438 34.9875 390.73438 32.45625Q390.73438 29.83125 392.07812 28.39375Q393.42188 26.940624 395.57812 26.940624Q397.65625 26.940624 398.96875 28.3625Q400.29688 29.76875 400.29688 32.346874Q400.29688 32.503124 400.28125 32.815624L392.54688 32.815624Q392.64062 34.51875 393.51562 35.425Q394.39062 36.33125 395.6875 36.33125Q396.65625 36.33125 397.32812 35.83125Q398.01562 35.315624 398.42188 34.20625ZM392.64062 31.3625L398.4375 31.3625Q398.32812 30.065624 397.78125 29.409374Q396.9375 28.39375 395.59375 28.39375Q394.39062 28.39375 393.5625 29.20625Q392.73438 30.003124 392.64062 31.3625ZM408.28125 37.55L408.28125 23.2375L410.03125 23.2375L410.03125 37.55L408.28125 37.55ZM419.09375 36.26875Q418.10938 37.096874 417.20312 37.440624Q416.29688 37.784374 415.26562 37.784374Q413.5625 37.784374 412.64062 36.95625Q411.71875 36.1125 411.71875 34.815624Q411.71875 34.05 412.0625 33.425Q412.42188 32.8 412.98438 32.425Q413.54688 32.034374 414.25 31.83125Q414.76562 31.70625 415.8125 31.565624Q417.9375 31.315624 418.9375 30.971874Q418.95312 30.6125 418.95312 30.503124Q418.95312 29.440624 418.45312 28.9875Q417.78125 28.39375 416.45312 28.39375Q415.20312 28.39375 414.60938 28.83125Q414.03125 29.26875 413.75 30.378124L412.03125 30.14375Q412.26562 29.034374 412.79688 28.3625Q413.32812 27.675 414.34375 27.315624Q415.35938 26.940624 416.70312 26.940624Q418.03125 26.940624 418.85938 27.253124Q419.6875 27.565624 420.07812 28.05Q420.46875 28.51875 420.625 29.2375Q420.71875 29.690624 420.71875 30.8625L420.71875 33.20625Q420.71875 35.659374 420.82812 36.315624Q420.9375 36.95625 421.28125 37.55L419.4375 37.55Q419.17188 37.003124 419.09375 36.26875ZM418.9375 32.346874Q417.98438 32.7375 416.0625 33.003124Q414.98438 33.159374 414.53125 33.3625Q414.09375 33.55 413.84375 33.925Q413.59375 34.3 413.59375 34.76875Q413.59375 35.471874 414.125 35.940624Q414.65625 36.409374 415.6875 36.409374Q416.70312 36.409374 417.48438 35.971874Q418.28125 35.51875 418.65625 34.753124Q418.9375 34.14375 418.9375 32.9875L418.9375 32.346874ZM427.15625 35.971874L427.40625 37.534374Q426.67188 37.690624 426.07812 37.690624Q425.125 37.690624 424.59375 37.39375Q424.07812 37.08125 423.85938 36.596874Q423.64062 36.096874 423.64062 34.51875L423.64062 28.55L422.35938 28.55L422.35938 27.175L423.64062 27.175L423.64062 24.6125L425.39062 23.55L425.39062 27.175L427.15625 27.175L427.15625 28.55L425.39062 28.55L425.39062 34.6125Q425.39062 35.3625 425.48438 35.58125Q425.57812 35.784374 425.78125 35.925Q426.0 36.05 426.39062 36.05Q426.67188 36.05 427.15625 35.971874ZM436.42188 34.20625L438.23438 34.440624Q437.8125 36.01875 436.64062 36.909374Q435.48438 37.784374 433.67188 37.784374Q431.40625 37.784374 430.0625 36.39375Q428.73438 34.9875 428.73438 32.45625Q428.73438 29.83125 430.07812 28.39375Q431.42188 26.940624 433.57812 26.940624Q435.65625 26.940624 436.96875 28.3625Q438.29688 29.76875 438.29688 32.346874Q438.29688 32.503124 438.28125 32.815624L430.54688 32.815624Q430.64062 34.51875 431.51562 35.425Q432.39062 36.33125 433.6875 36.33125Q434.65625 36.33125 435.32812 35.83125Q436.01562 35.315624 436.42188 34.20625ZM430.64062 31.3625L436.4375 31.3625Q436.32812 30.065624 435.78125 29.409374Q434.9375 28.39375 433.59375 28.39375Q432.39062 28.39375 431.5625 29.20625Q430.73438 30.003124 430.64062 31.3625ZM440.3125 37.55L440.3125 27.175L441.90625 27.175L441.90625 28.659374Q443.04688 26.940624 445.20312 26.940624Q446.14062 26.940624 446.92188 27.284374Q447.71875 27.6125 448.10938 28.159374Q448.5 28.70625 448.65625 29.45625Q448.75 29.95625 448.75 31.175L448.75 37.55L446.98438 37.55L446.98438 31.2375Q446.98438 30.159374 446.78125 29.628124Q446.57812 29.096874 446.04688 28.784374Q445.53125 28.471874 444.82812 28.471874Q443.70312 28.471874 442.89062 29.190624Q442.07812 29.89375 442.07812 31.878124L442.07812 37.55L440.3125 37.55ZM457.09375 33.753124L458.8125 33.971874Q458.53125 35.76875 457.35938 36.784374Q456.20312 37.784374 454.5 37.784374Q452.375 37.784374 451.07812 36.39375Q449.78125 35.003124 449.78125 32.409374Q449.78125 30.721874 450.32812 29.471874Q450.89062 28.20625 452.03125 27.58125Q453.17188 26.940624 454.51562 26.940624Q456.20312 26.940624 457.26562 27.8Q458.34375 28.659374 458.65625 30.221874L456.9375 30.4875Q456.70312 29.440624 456.07812 28.925Q455.45312 28.39375 454.57812 28.39375Q453.25 28.39375 452.42188 29.346874Q451.59375 30.3 451.59375 32.346874Q451.59375 34.440624 452.39062 35.39375Q453.1875 36.33125 454.48438 36.33125Q455.51562 36.33125 456.20312 35.70625Q456.90625 35.065624 457.09375 33.753124ZM460.23438 41.55L460.04688 39.89375Q460.625 40.05 461.04688 40.05Q461.64062 40.05 461.98438 39.846874Q462.34375 39.659374 462.5625 39.315624Q462.73438 39.05 463.10938 38.003124Q463.15625 37.846874 463.26562 37.565624L459.32812 27.175L461.21875 27.175L463.375 33.190624Q463.79688 34.33125 464.125 35.58125Q464.4375 34.378124 464.84375 33.221874L467.0625 27.175L468.82812 27.175L464.875 37.721874Q464.25 39.440624 463.89062 40.08125Q463.42188 40.95625 462.8125 41.346874Q462.21875 41.753124 461.375 41.753124Q460.85938 41.753124 460.23438 41.55Z" fill-rule="nonzero"/></svg>