<?xml version="1.0" encoding="UTF-8" standalone="no"?>
<!-- Created with Inkscape (http://www.inkscape.org/) -->

<svg
   width="145.08054mm"
   height="90.342812mm"
   viewBox="0 0 145.08054 90.342812"
   version="1.1"
   id="svg1"
   inkscape:version="1.3 (0e150ed6c4, 2023-07-21)"
   sodipodi:docname="requests-limits-configurations-original.svg"
   xmlns:inkscape="http://www.inkscape.org/namespaces/inkscape"
   xmlns:sodipodi="http://sodipodi.sourceforge.net/DTD/sodipodi-0.dtd"
   xmlns="http://www.w3.org/2000/svg"
   xmlns:svg="http://www.w3.org/2000/svg">
  <sodipodi:namedview
     id="namedview1"
     pagecolor="#ffffff"
     bordercolor="#000000"
     borderopacity="0.25"
     inkscape:showpageshadow="2"
     inkscape:pageopacity="0.0"
     inkscape:pagecheckerboard="0"
     inkscape:deskcolor="#d1d1d1"
     inkscape:document-units="mm"
     inkscape:zoom="2.0900478"
     inkscape:cx="272.24258"
     inkscape:cy="292.57704"
     inkscape:window-width="1920"
     inkscape:window-height="1011"
     inkscape:window-x="0"
     inkscape:window-y="0"
     inkscape:window-maximized="1"
     inkscape:current-layer="layer1"
     showguides="false">
    <sodipodi:guide
       position="144.94824,286.18699"
       orientation="0,-566.92959"
       id="guide19"
       inkscape:locked="false" />
    <sodipodi:guide
       position="144.94824,274.84449"
       orientation="0,-566.92959"
       id="guide20"
       inkscape:locked="false" />
    <sodipodi:guide
       position="144.94824,263.50199"
       orientation="0,-566.92959"
       id="guide21"
       inkscape:locked="false" />
    <sodipodi:guide
       position="144.94824,252.15949"
       orientation="0,-566.92959"
       id="guide22"
       inkscape:locked="false" />
    <sodipodi:guide
       position="144.94824,240.81699"
       orientation="0,-566.92959"
       id="guide23"
       inkscape:locked="false" />
    <sodipodi:guide
       position="144.94824,229.47449"
       orientation="0,-566.92959"
       id="guide24"
       inkscape:locked="false" />
    <sodipodi:guide
       position="144.94824,218.13198"
       orientation="0,-566.92959"
       id="guide25"
       inkscape:locked="false" />
    <sodipodi:guide
       position="144.94824,206.78948"
       orientation="0,-566.92959"
       id="guide26"
       inkscape:locked="false" />
    <sodipodi:guide
       position="144.94824,286.18699"
       orientation="300.08507,0"
       id="guide27"
       inkscape:locked="false" />
    <sodipodi:guide
       position="114.94821,286.18699"
       orientation="300.08507,0"
       id="guide28"
       inkscape:locked="false" />
    <sodipodi:guide
       position="84.94819,286.18699"
       orientation="300.08507,0"
       id="guide29"
       inkscape:locked="false" />
    <sodipodi:guide
       position="54.948164,286.18699"
       orientation="300.08507,0"
       id="guide30"
       inkscape:locked="false" />
    <sodipodi:guide
       position="24.948139,286.18699"
       orientation="300.08507,0"
       id="guide31"
       inkscape:locked="false" />
    <sodipodi:guide
       position="-5.0518847,286.18699"
       orientation="300.08507,0"
       id="guide32"
       inkscape:locked="false" />
  </sodipodi:namedview>
  <defs
     id="defs1" />
  <g
     inkscape:label="Layer 1"
     inkscape:groupmode="layer"
     id="layer1"
     transform="translate(-35.05182,-36.687861)">
    <rect
       style="fill:#326ce5;fill-opacity:1;stroke:#000000;stroke-width:0.264583"
       id="rect34"
       width="90.000069"
       height="11.3425"
       x="59.999958"
       y="47.50087" />
    <g
       id="text4"
       style="font-size:3.175px;text-align:center;text-anchor:middle;fill:none;stroke:#000000;stroke-width:0"
       aria-label="(1) Inevitably&#10;wasted">
      <path
         style="font-family:'open sans';-inkscape-font-specification:'open sans';fill:#000000"
         d="m 36.021528,73.773024 q 0,-0.410828 0.119373,-0.768945 0.120922,-0.358118 0.347265,-0.627869 h 0.251148 q -0.223243,0.299207 -0.336414,0.657324 -0.111621,0.358118 -0.111621,0.736389 0,0.372071 0.114722,0.727088 0.114721,0.355017 0.330212,0.648022 h -0.248047 q -0.227893,-0.26355 -0.347265,-0.615466 -0.119373,-0.351917 -0.119373,-0.756543 z m 1.920813,0.869714 h -0.251148 v -1.615405 q 0,-0.201538 0.0124,-0.381372 -0.03256,0.03256 -0.07286,0.06821 -0.04031,0.03566 -0.36897,0.302307 L 37.125337,72.839748 37.7253,72.37621 h 0.217041 z m 1.519287,-0.869714 q 0,0.407727 -0.120923,0.759644 -0.119372,0.351916 -0.345715,0.612365 h -0.248047 q 0.215491,-0.291455 0.330212,-0.646472 0.114722,-0.356567 0.114722,-0.728638 0,-0.378271 -0.113171,-0.736389 -0.111621,-0.358117 -0.334863,-0.657324 h 0.251147 q 0.227893,0.271301 0.347266,0.630969 0.119372,0.358118 0.119372,0.765845 z m 1.263489,0.869714 V 72.37621 h 0.26355 v 2.266528 z m 2.009179,0 v -1.099157 q 0,-0.20774 -0.09457,-0.310059 -0.09457,-0.102319 -0.296106,-0.102319 -0.266651,0 -0.390674,0.144177 -0.124024,0.144177 -0.124024,0.47594 v 0.891418 h -0.257348 v -1.699121 h 0.209289 l 0.04186,0.232544 h 0.0124 q 0.07906,-0.125574 0.221691,-0.193786 0.142627,-0.06976 0.31781,-0.06976 0.306958,0 0.461988,0.148829 0.155029,0.147277 0.155029,0.472839 v 1.108459 z m 1.503784,0.03101 q -0.376721,0 -0.595312,-0.229443 -0.217041,-0.229444 -0.217041,-0.637171 0,-0.410827 0.201538,-0.652673 0.203088,-0.241846 0.544153,-0.241846 0.31936,0 0.505395,0.21084 0.186035,0.20929 0.186035,0.553455 v 0.162781 h -1.170471 q 0.0078,0.299206 0.150379,0.454235 0.144177,0.15503 0.404626,0.15503 0.274402,0 0.542603,-0.114722 v 0.229443 q -0.136426,0.05891 -0.258899,0.08372 -0.120923,0.02635 -0.293006,0.02635 z m -0.06976,-1.545642 q -0.204638,0 -0.327112,0.133325 -0.120922,0.133326 -0.142627,0.36897 h 0.888318 q 0,-0.243396 -0.10852,-0.37207 -0.108521,-0.130225 -0.310059,-0.130225 z m 1.441772,1.514636 -0.644921,-1.699121 h 0.275952 l 0.365869,1.007691 q 0.124023,0.353466 0.145727,0.458886 h 0.0124 q 0.01705,-0.08217 0.10697,-0.339514 0.09147,-0.258899 0.407727,-1.127063 h 0.275952 l -0.644922,1.699121 z m 1.47588,0 H 46.82862 v -1.699121 h 0.257349 z M 46.806916,72.48318 q 0,-0.08837 0.04341,-0.128674 0.04341,-0.04186 0.108521,-0.04186 0.06201,0 0.10697,0.04186 0.04496,0.04186 0.04496,0.128674 0,0.08682 -0.04496,0.130225 -0.04496,0.04186 -0.10697,0.04186 -0.06511,0 -0.108521,-0.04186 -0.04341,-0.04341 -0.04341,-0.130225 z m 1.37356,1.978174 q 0.06821,0 0.131775,-0.0093 0.06356,-0.01085 0.100769,-0.0217 v 0.196887 q -0.04186,0.02015 -0.124024,0.03256 -0.08061,0.01395 -0.145727,0.01395 -0.492993,0 -0.492993,-0.519348 V 73.143605 H 47.40688 v -0.124023 l 0.243396,-0.106971 0.10852,-0.362768 h 0.148828 v 0.393774 h 0.492993 v 0.199988 h -0.492993 v 0.999939 q 0,0.153479 0.07286,0.235645 0.07286,0.08217 0.199988,0.08217 z m 1.616955,0.181384 -0.05116,-0.241845 h -0.0124 q -0.127124,0.15968 -0.254248,0.217041 -0.125573,0.05581 -0.314709,0.05581 -0.252698,0 -0.396875,-0.130224 -0.142627,-0.130225 -0.142627,-0.37052 0,-0.514698 0.823206,-0.539502 l 0.288354,-0.0093 v -0.10542 q 0,-0.199988 -0.08682,-0.294556 -0.08527,-0.09612 -0.274402,-0.09612 -0.21239,0 -0.480591,0.130225 l -0.07906,-0.196887 q 0.125574,-0.06821 0.274402,-0.106971 0.150378,-0.03876 0.300757,-0.03876 0.303857,0 0.449585,0.134875 0.147278,0.134876 0.147278,0.432532 v 1.159619 z m -0.581359,-0.181384 q 0.240295,0 0.376721,-0.131775 0.137976,-0.131775 0.137976,-0.36897 V 73.80713 l -0.257349,0.01085 q -0.306958,0.01085 -0.443384,0.09612 -0.134875,0.08371 -0.134875,0.261999 0,0.139527 0.08372,0.21239 0.08527,0.07286 0.237195,0.07286 z m 2.092895,-1.545642 q 0.334863,0 0.519348,0.229443 0.186035,0.227893 0.186035,0.646473 0,0.418579 -0.187585,0.651123 -0.186036,0.230993 -0.517798,0.230993 -0.165882,0 -0.303858,-0.06046 -0.136425,-0.06201 -0.229443,-0.189136 h -0.0186 l -0.05426,0.218591 h -0.184485 v -2.412255 h 0.257349 v 0.58601 q 0,0.196887 -0.0124,0.353467 h 0.0124 q 0.179834,-0.254248 0.533301,-0.254248 z m -0.03721,0.215491 q -0.26355,0 -0.379822,0.151928 -0.116272,0.150379 -0.116272,0.508497 0,0.358117 0.119373,0.513146 0.119372,0.153479 0.382922,0.153479 0.237195,0 0.353467,-0.172082 0.116272,-0.173633 0.116272,-0.497644 0,-0.331763 -0.116272,-0.494544 -0.116272,-0.16278 -0.359668,-0.16278 z m 1.449523,1.511535 h -0.257349 v -2.412255 h 0.257349 z m 0.275953,-1.699121 h 0.275952 l 0.37207,0.968933 q 0.122474,0.331763 0.151929,0.479041 h 0.0124 q 0.02015,-0.07906 0.08371,-0.269751 0.06511,-0.192236 0.42168,-1.178223 h 0.275952 l -0.730188,1.934766 q -0.10852,0.286804 -0.254248,0.406177 -0.144177,0.120922 -0.355017,0.120922 -0.117822,0 -0.232544,-0.02636 v -0.206188 q 0.08527,0.0186 0.190686,0.0186 0.2651,0 0.378272,-0.297656 l 0.09457,-0.241846 z"
         id="path1" />
      <path
         style="font-family:'open sans';-inkscape-font-specification:'open sans';fill:#000000"
         d="m 41.605683,78.615563 -0.311609,-0.996838 q -0.02945,-0.09147 -0.11007,-0.415479 h -0.0124 q -0.06201,0.271302 -0.10852,0.418579 l -0.320911,0.993738 h -0.297656 l -0.463538,-1.699121 h 0.269751 q 0.164331,0.640271 0.249597,0.975134 0.08682,0.334864 0.09922,0.451136 h 0.0124 q 0.01705,-0.08837 0.05426,-0.227893 0.03876,-0.141077 0.06666,-0.223243 l 0.311609,-0.975134 h 0.279053 l 0.303857,0.975134 q 0.08682,0.266651 0.117823,0.448035 h 0.0124 q 0.0062,-0.05581 0.03256,-0.172082 0.0279,-0.116272 0.324011,-1.251087 h 0.266651 l -0.469739,1.699121 z m 2.127002,0 -0.05116,-0.241846 h -0.0124 q -0.127124,0.159681 -0.254248,0.217041 -0.125574,0.05581 -0.314709,0.05581 -0.252698,0 -0.396875,-0.130225 -0.142627,-0.130224 -0.142627,-0.37052 0,-0.514697 0.823205,-0.539502 l 0.288355,-0.0093 v -0.10542 q 0,-0.199988 -0.08682,-0.294556 -0.08527,-0.09612 -0.274402,-0.09612 -0.21239,0 -0.48059,0.130225 l -0.07906,-0.196888 q 0.125573,-0.06821 0.274402,-0.10697 0.150378,-0.03876 0.300756,-0.03876 0.303858,0 0.449585,0.134875 0.147278,0.134876 0.147278,0.432532 v 1.159619 z m -0.58136,-0.181384 q 0.240296,0 0.376721,-0.131775 0.137977,-0.131775 0.137977,-0.36897 v -0.153479 l -0.257349,0.01085 q -0.306958,0.01085 -0.443384,0.09612 -0.134875,0.08372 -0.134875,0.262 0,0.139526 0.08371,0.21239 0.08527,0.07286 0.237195,0.07286 z m 2.398303,-0.282153 q 0,0.237194 -0.176733,0.365869 -0.176733,0.128674 -0.496094,0.128674 -0.337964,0 -0.527099,-0.10697 v -0.238745 q 0.122473,0.06201 0.261999,0.09767 0.141077,0.03566 0.271301,0.03566 0.201538,0 0.310059,-0.06356 0.10852,-0.06511 0.10852,-0.196887 0,-0.09922 -0.08682,-0.168982 -0.08527,-0.07131 -0.334863,-0.167432 -0.237195,-0.08837 -0.337964,-0.153479 -0.09922,-0.06666 -0.148828,-0.150378 -0.04806,-0.08372 -0.04806,-0.199988 0,-0.207739 0.168982,-0.327112 0.168982,-0.120923 0.463537,-0.120923 0.274402,0 0.536402,0.111621 l -0.09147,0.20929 q -0.255798,-0.10542 -0.463537,-0.10542 -0.182935,0 -0.275952,0.05736 -0.09302,0.05736 -0.09302,0.15813 0,0.06821 0.03411,0.116272 0.03566,0.04806 0.113172,0.09147 0.07751,0.04341 0.297656,0.125574 0.302307,0.11007 0.407727,0.221692 0.10697,0.111621 0.10697,0.280603 z m 0.967383,0.282153 q 0.06821,0 0.131775,-0.0093 0.06356,-0.01085 0.100769,-0.0217 v 0.196887 q -0.04186,0.02015 -0.124024,0.03256 -0.08062,0.01395 -0.145727,0.01395 -0.492993,0 -0.492993,-0.519348 V 77.11643 h -0.243396 v -0.124024 l 0.243396,-0.10697 0.10852,-0.362768 h 0.148828 v 0.393774 h 0.492994 v 0.199988 h -0.492994 v 0.999939 q 0,0.153479 0.07286,0.235644 0.07286,0.08217 0.199988,0.08217 z m 1.289844,0.21239 q -0.376721,0 -0.595313,-0.229443 -0.217041,-0.229444 -0.217041,-0.637171 0,-0.410827 0.201538,-0.652673 0.203089,-0.241846 0.544153,-0.241846 0.319361,0 0.505396,0.21084 0.186035,0.20929 0.186035,0.553455 v 0.16278 h -1.170471 q 0.0078,0.299207 0.150378,0.454236 0.144177,0.15503 0.404627,0.15503 0.274401,0 0.542602,-0.114722 v 0.229443 q -0.136426,0.05891 -0.258899,0.08372 -0.120923,0.02635 -0.293005,0.02635 z m -0.06976,-1.545642 q -0.204639,0 -0.327112,0.133325 -0.120923,0.133325 -0.142627,0.36897 h 0.888318 q 0,-0.243396 -0.108521,-0.37207 -0.10852,-0.130225 -0.310058,-0.130225 z m 2.289782,1.286743 h -0.01395 q -0.178283,0.258899 -0.5333,0.258899 -0.333313,0 -0.519349,-0.227893 -0.184484,-0.227893 -0.184484,-0.648022 0,-0.42013 0.186035,-0.652674 0.186035,-0.232544 0.517798,-0.232544 0.345715,0 0.5302,0.251148 h 0.02015 l -0.01085,-0.122473 -0.0062,-0.119373 v -0.691431 h 0.257349 v 2.412256 h -0.20929 z m -0.514697,0.04341 q 0.26355,0 0.381372,-0.142627 0.119372,-0.144177 0.119372,-0.463537 v -0.05426 q 0,-0.361219 -0.120922,-0.514698 -0.119373,-0.155029 -0.382923,-0.155029 -0.226343,0 -0.347265,0.176733 -0.119373,0.175183 -0.119373,0.496094 0,0.325562 0.119373,0.491443 0.119372,0.165881 0.350366,0.165881 z"
         id="path2" />
    </g>
    <g
       id="text5"
       style="font-size:3.175px;text-align:center;text-anchor:middle;fill:none;stroke:#000000;stroke-width:0"
       aria-label="(2) Allows&#10;sharing&#10;">
      <path
         style="font-family:'open sans';-inkscape-font-specification:'open sans';fill:#000000"
         d="m 38.415181,96.566138 q 0,-0.410828 0.119373,-0.768946 0.120922,-0.358117 0.347265,-0.627868 h 0.251148 q -0.223242,0.299206 -0.336414,0.657324 -0.111621,0.358118 -0.111621,0.736389 0,0.37207 0.114722,0.727088 0.114721,0.355017 0.330212,0.648022 h -0.248047 q -0.227893,-0.26355 -0.347265,-0.615466 -0.119373,-0.351917 -0.119373,-0.756543 z m 2.457214,0.869714 H 39.382564 V 97.21416 l 0.596863,-0.599963 q 0.272851,-0.275952 0.359668,-0.393775 0.08682,-0.117822 0.130224,-0.229443 0.04341,-0.111621 0.04341,-0.240295 0,-0.181385 -0.11007,-0.286805 -0.110071,-0.10697 -0.305408,-0.10697 -0.141077,0 -0.268201,0.04651 -0.125574,0.04651 -0.280603,0.168982 l -0.136426,-0.175183 q 0.31316,-0.260449 0.682129,-0.260449 0.319361,0 0.500745,0.164331 0.181384,0.16278 0.181384,0.438733 0,0.21549 -0.120923,0.42633 -0.120922,0.21084 -0.452685,0.533301 l -0.496094,0.485242 v 0.0124 h 1.16582 z m 0.982886,-0.869714 q 0,0.407727 -0.120923,0.759643 -0.119372,0.351917 -0.345715,0.612366 h -0.248047 q 0.215491,-0.291455 0.330213,-0.646472 0.114721,-0.356568 0.114721,-0.728638 0,-0.378271 -0.113171,-0.736389 -0.111621,-0.358118 -0.334863,-0.657324 h 0.251147 q 0.227893,0.271301 0.347266,0.630969 0.119372,0.358118 0.119372,0.765845 z m 2.688208,0.869714 -0.282153,-0.720886 h -0.908472 l -0.279053,0.720886 h -0.26665 l 0.896069,-2.27583 h 0.221692 l 0.891419,2.27583 z M 44.17917,96.477771 43.915621,95.775488 q -0.05116,-0.133325 -0.10542,-0.327112 -0.03411,0.148829 -0.09767,0.327112 l -0.26665,0.702283 z m 1.167371,0.958081 h -0.257349 v -2.412256 h 0.257349 z m 0.803051,0 h -0.257348 v -2.412256 h 0.257348 z m 2.012281,-0.851111 q 0,0.415479 -0.20929,0.649573 -0.209289,0.232544 -0.578259,0.232544 -0.227893,0 -0.404627,-0.10697 -0.176733,-0.106971 -0.272851,-0.306958 -0.09612,-0.199988 -0.09612,-0.468189 0,-0.415478 0.207739,-0.646472 0.207739,-0.232544 0.576709,-0.232544 0.356567,0 0.565857,0.237195 0.21084,0.237195 0.21084,0.641821 z m -1.294495,0 q 0,0.325562 0.130225,0.496094 0.130224,0.170532 0.382922,0.170532 0.252698,0 0.382922,-0.168982 0.131775,-0.170532 0.131775,-0.497644 0,-0.324011 -0.131775,-0.491443 -0.130224,-0.168982 -0.386022,-0.168982 -0.252698,0 -0.381373,0.165882 -0.128674,0.165881 -0.128674,0.494543 z m 3.06958,0.851111 -0.311609,-0.996838 q -0.02946,-0.09147 -0.110071,-0.415479 h -0.0124 q -0.06201,0.271301 -0.108521,0.418579 l -0.320911,0.993738 H 48.77579 l -0.463537,-1.699121 h 0.269751 q 0.164331,0.640271 0.249597,0.975134 0.08682,0.334864 0.09922,0.451135 h 0.0124 q 0.01705,-0.08837 0.05426,-0.227893 0.03876,-0.141076 0.06666,-0.223242 l 0.311609,-0.975134 h 0.279052 l 0.303858,0.975134 q 0.08682,0.266651 0.117822,0.448035 h 0.0124 q 0.0062,-0.05581 0.03256,-0.172083 0.02791,-0.116272 0.324012,-1.251086 h 0.26665 l -0.469739,1.699121 z m 2.178161,-0.463538 q 0,0.237195 -0.176733,0.36587 -0.176733,0.128674 -0.496094,0.128674 -0.337964,0 -0.527099,-0.10697 v -0.238745 q 0.122473,0.06201 0.261999,0.09767 0.141077,0.03566 0.271301,0.03566 0.201539,0 0.310059,-0.06356 0.108521,-0.06511 0.108521,-0.196887 0,-0.09922 -0.08682,-0.168982 -0.08527,-0.07131 -0.334863,-0.167432 -0.237195,-0.08837 -0.337964,-0.153479 -0.09922,-0.06666 -0.148828,-0.150378 -0.04806,-0.08372 -0.04806,-0.199988 0,-0.207739 0.168982,-0.327112 0.168982,-0.120923 0.463537,-0.120923 0.274402,0 0.536402,0.111621 l -0.09147,0.20929 q -0.255798,-0.10542 -0.463537,-0.10542 -0.182935,0 -0.275952,0.05736 -0.09302,0.05736 -0.09302,0.15813 0,0.06821 0.03411,0.116272 0.03566,0.04806 0.113171,0.09147 0.07751,0.04341 0.297656,0.125574 0.302307,0.11007 0.407727,0.221691 0.10697,0.111622 0.10697,0.280603 z"
         id="path3" />
      <path
         style="font-family:'open sans';-inkscape-font-specification:'open sans';fill:#000000"
         d="m 41.13517,100.94514 q 0,0.23719 -0.176733,0.36587 -0.176734,0.12867 -0.496094,0.12867 -0.337964,0 -0.5271,-0.10697 v -0.23874 q 0.122473,0.062 0.262,0.0977 0.141076,0.0356 0.271301,0.0356 0.201538,0 0.310059,-0.0636 0.10852,-0.0651 0.10852,-0.19689 0,-0.0992 -0.08682,-0.16898 -0.08527,-0.0713 -0.334864,-0.16743 -0.237194,-0.0884 -0.337963,-0.15348 -0.09922,-0.0667 -0.148828,-0.15038 -0.04806,-0.0837 -0.04806,-0.19999 0,-0.207735 0.168982,-0.327107 0.168982,-0.120923 0.463538,-0.120923 0.274402,0 0.536401,0.111621 l -0.09147,0.20929 q -0.255798,-0.10542 -0.463538,-0.10542 -0.182934,0 -0.275952,0.05736 -0.09302,0.05736 -0.09302,0.158129 0,0.0682 0.03411,0.11627 0.03566,0.0481 0.113172,0.0915 0.07751,0.0434 0.297656,0.12557 0.302307,0.11008 0.407727,0.2217 0.10697,0.11162 0.10697,0.2806 z m 1.581299,0.46354 v -1.09916 q 0,-0.20774 -0.09457,-0.310059 -0.09457,-0.10232 -0.296106,-0.10232 -0.268201,0 -0.392224,0.145729 -0.122473,0.14573 -0.122473,0.47749 v 0.88832 h -0.257349 v -2.412259 h 0.257349 v 0.730188 q 0,0.131775 -0.0124,0.218591 h 0.0155 q 0.07597,-0.122473 0.215491,-0.192236 0.141077,-0.07131 0.320911,-0.07131 0.311609,0 0.466638,0.148828 0.156579,0.147277 0.156579,0.469738 v 1.10846 z m 1.830896,0 -0.05116,-0.24185 h -0.0124 q -0.127124,0.15968 -0.254248,0.21704 -0.125574,0.0558 -0.31471,0.0558 -0.252698,0 -0.396875,-0.13022 -0.142627,-0.13023 -0.142627,-0.37052 0,-0.5147 0.823206,-0.5395 l 0.288354,-0.009 v -0.10542 q 0,-0.19998 -0.08682,-0.294551 -0.08527,-0.09612 -0.274402,-0.09612 -0.21239,0 -0.480591,0.130231 l -0.07906,-0.196894 q 0.125574,-0.06821 0.274402,-0.10697 0.150379,-0.03876 0.300757,-0.03876 0.303857,0 0.449585,0.134875 0.147278,0.134876 0.147278,0.432529 v 1.15962 z m -0.58136,-0.18139 q 0.240295,0 0.376721,-0.13177 0.137976,-0.13178 0.137976,-0.36897 v -0.15348 l -0.257348,0.0109 q -0.306959,0.0108 -0.443384,0.0961 -0.134876,0.0837 -0.134876,0.262 0,0.13953 0.08372,0.21239 0.08527,0.0729 0.237195,0.0729 z m 2.077392,-1.54874 q 0.113172,0 0.203089,0.0186 l -0.03566,0.238746 q -0.10542,-0.02326 -0.186035,-0.02326 -0.206189,0 -0.353467,0.167434 -0.145728,0.16743 -0.145728,0.41702 v 0.91158 h -0.257348 v -1.699122 h 0.21239 l 0.02946,0.314712 h 0.0124 q 0.09457,-0.165884 0.227893,-0.255801 0.133325,-0.08992 0.293005,-0.08992 z m 0.778247,1.73013 h -0.257348 v -1.699124 h 0.257348 z m -0.279052,-2.159561 q 0,-0.08837 0.04341,-0.128675 0.04341,-0.04186 0.10852,-0.04186 0.06201,0 0.10697,0.04186 0.04496,0.04186 0.04496,0.128675 0,0.08682 -0.04496,0.130224 -0.04496,0.04186 -0.10697,0.04186 -0.06511,0 -0.10852,-0.04186 -0.04341,-0.04341 -0.04341,-0.130224 z m 1.987475,2.159561 v -1.09916 q 0,-0.20774 -0.09457,-0.310059 -0.09457,-0.10232 -0.296106,-0.10232 -0.26665,0 -0.390673,0.144179 -0.124024,0.14418 -0.124024,0.47594 v 0.89142 h -0.257348 v -1.699124 h 0.209289 l 0.04186,0.232544 h 0.0124 q 0.07906,-0.125574 0.221692,-0.193787 0.142627,-0.06976 0.31781,-0.06976 0.306958,0 0.461988,0.148828 0.155029,0.147278 0.155029,0.472839 v 1.10846 z m 2.176611,-1.699124 v 0.162781 l -0.314709,0.03721 q 0.04341,0.05426 0.07751,0.142623 0.03411,0.0868 0.03411,0.19689 0,0.24959 -0.170532,0.39842 -0.170532,0.14883 -0.468189,0.14883 -0.07596,0 -0.142627,-0.0124 -0.164331,0.0868 -0.164331,0.21859 0,0.0698 0.05736,0.10387 0.05736,0.0326 0.196887,0.0326 h 0.300757 q 0.275952,0 0.42323,0.11627 0.148828,0.11627 0.148828,0.33796 0,0.28216 -0.226342,0.42943 -0.226343,0.14883 -0.660425,0.14883 -0.333313,0 -0.514697,-0.12402 -0.179834,-0.12403 -0.179834,-0.35037 0,-0.15503 0.09922,-0.2682 0.09922,-0.11317 0.279053,-0.15348 -0.06511,-0.0294 -0.110071,-0.0915 -0.04341,-0.062 -0.04341,-0.14417 0,-0.093 0.04961,-0.16278 0.04961,-0.0698 0.15658,-0.13488 -0.131775,-0.0543 -0.215491,-0.18448 -0.08217,-0.13023 -0.08217,-0.29766 0,-0.27905 0.167431,-0.429428 0.167432,-0.151929 0.47439,-0.151929 0.133325,0 0.240295,0.03101 z m -1.354956,1.984374 q 0,0.13798 0.116272,0.20929 0.116272,0.0713 0.333313,0.0713 0.324012,0 0.479041,-0.0977 0.156579,-0.0961 0.156579,-0.262 0,-0.13798 -0.08527,-0.19224 -0.08527,-0.0527 -0.32091,-0.0527 h -0.308509 q -0.175183,0 -0.272851,0.0837 -0.09767,0.0837 -0.09767,0.24029 z m 0.139527,-1.44022 q 0,0.17828 0.100769,0.26975 0.100769,0.0915 0.280603,0.0915 0.376721,0 0.376721,-0.36587 0,-0.382925 -0.381372,-0.382925 -0.181384,0 -0.279053,0.09767 -0.09767,0.09766 -0.09767,0.289905 z"
         id="path4" />
    </g>
    <g
       id="text7"
       style="font-size:3.175px;text-align:center;text-anchor:middle;fill:none;stroke:#000000;stroke-width:0"
       aria-label="(3) Requests = &#10;limits">
      <path
         style="font-family:'open sans';-inkscape-font-specification:'open sans';fill:#000000"
         d="m 35.05182,119.97162 q 0,-0.41083 0.119372,-0.76895 0.120923,-0.35812 0.347266,-0.62787 h 0.251147 q -0.223242,0.29921 -0.336413,0.65733 -0.111621,0.35812 -0.111621,0.73639 0,0.37207 0.114721,0.72708 0.114722,0.35502 0.330213,0.64803 h -0.248047 q -0.227893,-0.26355 -0.347266,-0.61547 -0.119372,-0.35192 -0.119372,-0.75654 z m 2.371948,-0.86352 q 0,0.21704 -0.122473,0.35502 -0.120923,0.13798 -0.344165,0.18449 v 0.0124 q 0.272851,0.0341 0.404626,0.17363 0.131775,0.13953 0.131775,0.36587 0,0.32401 -0.224792,0.49919 -0.224793,0.17364 -0.638721,0.17364 -0.179834,0 -0.330212,-0.0279 -0.148829,-0.0264 -0.289905,-0.0946 v -0.24494 q 0.147278,0.0729 0.313159,0.11162 0.167432,0.0372 0.31626,0.0372 0.587561,0 0.587561,-0.46044 0,-0.41238 -0.648023,-0.41238 h -0.223242 v -0.22169 h 0.226343 q 0.2651,0 0.420129,-0.11627 0.15503,-0.11783 0.15503,-0.32556 0,-0.16589 -0.114722,-0.26045 -0.113171,-0.0946 -0.308508,-0.0946 -0.148829,0 -0.280603,0.0403 -0.131775,0.0403 -0.300757,0.14882 l -0.130225,-0.17363 q 0.139526,-0.11007 0.320911,-0.17208 0.182934,-0.0636 0.384472,-0.0636 0.330213,0 0.513147,0.15193 0.182935,0.15037 0.182935,0.41392 z m 1.068152,0.86352 q 0,0.40772 -0.120923,0.75964 -0.119373,0.35192 -0.345715,0.61237 h -0.248047 q 0.215491,-0.29146 0.330212,-0.64648 0.114722,-0.35656 0.114722,-0.72863 0,-0.37827 -0.113171,-0.73639 -0.111622,-0.35812 -0.334864,-0.65733 h 0.251148 q 0.227893,0.2713 0.347265,0.63097 0.119373,0.35812 0.119373,0.76585 z m 1.527038,-0.0729 v 0.94258 h -0.263549 v -2.26653 h 0.621667 q 0.417029,0 0.615466,0.15968 0.199988,0.15968 0.199988,0.48059 0,0.44959 -0.455786,0.60772 l 0.615466,1.01854 h -0.311609 l -0.548803,-0.94258 z m 0,-0.22634 h 0.361219 q 0.279052,0 0.409277,-0.11007 0.130225,-0.11162 0.130225,-0.33331 0,-0.2248 -0.133326,-0.32401 -0.131774,-0.0992 -0.42478,-0.0992 h -0.342615 z m 2.37815,1.19993 q -0.376721,0 -0.595313,-0.22945 -0.217041,-0.22944 -0.217041,-0.63717 0,-0.41082 0.201538,-0.65267 0.203089,-0.24185 0.544153,-0.24185 0.31936,0 0.505396,0.21084 0.186035,0.20929 0.186035,0.55346 v 0.16278 h -1.170471 q 0.0078,0.29921 0.150378,0.45424 0.144177,0.15502 0.404627,0.15502 0.274401,0 0.542602,-0.11472 v 0.22945 q -0.136426,0.0589 -0.258899,0.0837 -0.120923,0.0264 -0.293005,0.0264 z m -0.06976,-1.54564 q -0.204639,0 -0.327112,0.13332 -0.120923,0.13333 -0.142627,0.36897 h 0.888318 q 0,-0.2434 -0.108521,-0.37207 -0.10852,-0.13022 -0.310058,-0.13022 z m 1.775085,1.33015 q 0.257349,0 0.375171,-0.13798 0.117822,-0.13798 0.125574,-0.46509 v -0.0574 q 0,-0.35657 -0.120923,-0.51315 -0.120923,-0.15657 -0.382922,-0.15657 -0.226343,0 -0.347266,0.17673 -0.119373,0.17518 -0.119373,0.49609 0,0.32091 0.117823,0.48989 0.119372,0.16744 0.351916,0.16744 z m -0.03876,0.21549 q -0.328662,0 -0.513147,-0.231 -0.184485,-0.23099 -0.184485,-0.64492 0,-0.41703 0.186035,-0.65112 0.186035,-0.2341 0.517798,-0.2341 0.348816,0 0.536401,0.26355 h 0.01395 l 0.03721,-0.23254 h 0.203088 v 2.46187 h -0.257348 v -0.72709 q 0,-0.15503 0.01705,-0.26355 h -0.02015 q -0.178284,0.2589 -0.536402,0.2589 z m 1.584399,-1.73013 v 1.10226 q 0,0.20774 0.09457,0.31006 0.09457,0.10232 0.296106,0.10232 0.26665,0 0.389124,-0.14573 0.124023,-0.14573 0.124023,-0.47594 v -0.89297 h 0.257349 v 1.69912 h -0.212391 l -0.03721,-0.22789 h -0.01395 q -0.07906,0.12557 -0.220142,0.19223 -0.139526,0.0667 -0.31936,0.0667 -0.310059,0 -0.465088,-0.14728 -0.153479,-0.14728 -0.153479,-0.47129 v -1.11156 z m 2.424658,1.73013 q -0.376721,0 -0.595312,-0.22945 -0.217041,-0.22944 -0.217041,-0.63717 0,-0.41082 0.201538,-0.65267 0.203088,-0.24185 0.544153,-0.24185 0.31936,0 0.505395,0.21084 0.186035,0.20929 0.186035,0.55346 v 0.16278 h -1.170471 q 0.0078,0.29921 0.150379,0.45424 0.144177,0.15502 0.404626,0.15502 0.274402,0 0.542602,-0.11472 v 0.22945 q -0.136425,0.0589 -0.258898,0.0837 -0.120923,0.0264 -0.293006,0.0264 z m -0.06976,-1.54564 q -0.204639,0 -0.327112,0.13332 -0.120923,0.13333 -0.142627,0.36897 h 0.888318 q 0,-0.2434 -0.10852,-0.37207 -0.108521,-0.13022 -0.310059,-0.13022 z m 2.229321,1.05109 q 0,0.2372 -0.176733,0.36587 -0.176734,0.12868 -0.496094,0.12868 -0.337964,0 -0.5271,-0.10697 v -0.23875 q 0.122473,0.062 0.262,0.0977 0.141076,0.0357 0.271301,0.0357 0.201538,0 0.310059,-0.0636 0.10852,-0.0651 0.10852,-0.19689 0,-0.0992 -0.08682,-0.16898 -0.08527,-0.0713 -0.334864,-0.16744 -0.237194,-0.0884 -0.337963,-0.15347 -0.09922,-0.0667 -0.148829,-0.15038 -0.04806,-0.0837 -0.04806,-0.19999 0,-0.20774 0.168982,-0.32711 0.168982,-0.12093 0.463538,-0.12093 0.274402,0 0.536401,0.11163 l -0.09147,0.20929 q -0.255798,-0.10542 -0.463538,-0.10542 -0.182934,0 -0.275952,0.0574 -0.09302,0.0574 -0.09302,0.15813 0,0.0682 0.03411,0.11627 0.03566,0.0481 0.113171,0.0915 0.07752,0.0434 0.297657,0.12557 0.302307,0.11007 0.407727,0.22169 0.10697,0.11162 0.10697,0.2806 z m 0.967384,0.28216 q 0.06821,0 0.131774,-0.009 0.06356,-0.0109 0.100769,-0.0217 v 0.19689 q -0.04186,0.0202 -0.124023,0.0326 -0.08062,0.014 -0.145728,0.014 -0.492993,0 -0.492993,-0.51935 v -1.01079 h -0.243396 v -0.12403 l 0.243396,-0.10697 0.108521,-0.36276 h 0.148828 v 0.39377 h 0.492993 v 0.19999 H 50.92682 v 0.99994 q 0,0.15348 0.07286,0.23564 0.07286,0.0822 0.199988,0.0822 z m 1.668115,-0.28216 q 0,0.2372 -0.176733,0.36587 -0.176734,0.12868 -0.496094,0.12868 -0.337964,0 -0.5271,-0.10697 v -0.23875 q 0.122473,0.062 0.262,0.0977 0.141076,0.0357 0.271301,0.0357 0.201538,0 0.310059,-0.0636 0.10852,-0.0651 0.10852,-0.19689 0,-0.0992 -0.08682,-0.16898 -0.08527,-0.0713 -0.334864,-0.16744 -0.237194,-0.0884 -0.337963,-0.15347 -0.09922,-0.0667 -0.148829,-0.15038 -0.04806,-0.0837 -0.04806,-0.19999 0,-0.20774 0.168982,-0.32711 0.168982,-0.12093 0.463538,-0.12093 0.274402,0 0.536401,0.11163 l -0.09147,0.20929 q -0.255798,-0.10542 -0.463538,-0.10542 -0.182934,0 -0.275952,0.0574 -0.09302,0.0574 -0.09302,0.15813 0,0.0682 0.03411,0.11627 0.03566,0.0481 0.113171,0.0915 0.07751,0.0434 0.297657,0.12557 0.302307,0.11007 0.407727,0.22169 0.10697,0.11162 0.10697,0.2806 z m 1.154968,-0.86661 v -0.21239 h 1.441772 v 0.21239 z m 0,0.63407 v -0.21239 h 1.441772 v 0.21239 z"
         id="path7" />
      <path
         style="font-family:'open sans';-inkscape-font-specification:'open sans';fill:#000000"
         d="m 42.232777,124.81416 h -0.257349 v -2.41226 h 0.257349 z m 0.803051,0 H 42.77848 v -1.69912 h 0.257348 z m -0.279052,-2.15956 q 0,-0.0884 0.04341,-0.12868 0.04341,-0.0418 0.10852,-0.0418 0.06201,0 0.106971,0.0418 0.04496,0.0419 0.04496,0.12868 0,0.0868 -0.04496,0.13022 -0.04496,0.0419 -0.106971,0.0419 -0.06511,0 -0.10852,-0.0419 -0.04341,-0.0434 -0.04341,-0.13022 z m 2.990515,2.15956 v -1.10536 q 0,-0.20309 -0.08682,-0.30386 -0.08682,-0.10232 -0.269751,-0.10232 -0.240295,0 -0.355017,0.13798 -0.114721,0.13797 -0.114721,0.42478 v 0.94878 h -0.257349 v -1.10536 q 0,-0.20309 -0.08682,-0.30386 -0.08682,-0.10232 -0.271302,-0.10232 -0.241845,0 -0.355017,0.14573 -0.111621,0.14418 -0.111621,0.47439 v 0.89142 h -0.257348 v -1.69912 h 0.209289 l 0.04186,0.23254 h 0.0124 q 0.07286,-0.12402 0.204639,-0.19379 0.133325,-0.0698 0.297656,-0.0698 0.398426,0 0.520899,0.28835 h 0.0124 q 0.07596,-0.13332 0.220142,-0.21084 0.144177,-0.0775 0.328662,-0.0775 0.288354,0 0.430981,0.14883 0.144177,0.14728 0.144177,0.47284 v 1.10846 z m 1.044897,0 H 46.53484 v -1.69912 h 0.257348 z m -0.279053,-2.15956 q 0,-0.0884 0.04341,-0.12868 0.04341,-0.0418 0.10852,-0.0418 0.06201,0 0.10697,0.0418 0.04496,0.0419 0.04496,0.12868 0,0.0868 -0.04496,0.13022 -0.04496,0.0419 -0.10697,0.0419 -0.06511,0 -0.10852,-0.0419 -0.04341,-0.0434 -0.04341,-0.13022 z m 1.37356,1.97817 q 0.06821,0 0.131775,-0.009 0.06356,-0.0108 0.100769,-0.0217 v 0.19688 q -0.04186,0.0202 -0.124023,0.0326 -0.08062,0.014 -0.145728,0.014 -0.492993,0 -0.492993,-0.51935 v -1.01079 H 47.113099 V 123.191 l 0.243396,-0.10697 0.108521,-0.36277 h 0.148828 v 0.39378 h 0.492993 v 0.19998 h -0.492993 v 0.99994 q 0,0.15348 0.07286,0.23565 0.07286,0.0822 0.199988,0.0822 z m 1.668115,-0.28215 q 0,0.23719 -0.176733,0.36587 -0.176734,0.12867 -0.496094,0.12867 -0.337964,0 -0.5271,-0.10697 v -0.23874 q 0.122474,0.062 0.262,0.0977 0.141077,0.0356 0.271301,0.0356 0.201538,0 0.310059,-0.0636 0.10852,-0.0651 0.10852,-0.19689 0,-0.0992 -0.08682,-0.16898 -0.08527,-0.0713 -0.334863,-0.16743 -0.237195,-0.0884 -0.337964,-0.15348 -0.09922,-0.0667 -0.148828,-0.15038 -0.04806,-0.0837 -0.04806,-0.19999 0,-0.20774 0.168981,-0.32711 0.168982,-0.12092 0.463538,-0.12092 0.274402,0 0.536401,0.11162 l -0.09147,0.20929 q -0.255798,-0.10542 -0.463537,-0.10542 -0.182935,0 -0.275953,0.0574 -0.09302,0.0574 -0.09302,0.15813 0,0.0682 0.03411,0.11627 0.03566,0.0481 0.113172,0.0915 0.07751,0.0434 0.297656,0.12557 0.302307,0.11007 0.407727,0.2217 0.10697,0.11162 0.10697,0.2806 z"
         id="path8" />
    </g>
    <rect
       style="fill:#326ce5;fill-opacity:1;stroke:#000000;stroke-width:0.264583"
       id="rect41"
       width="30.000023"
       height="11.3425"
       x="59.999958"
       y="70.185875"
       ry="0"
       rx="0" />
    <rect
       style="fill:#326ce5;fill-opacity:1;stroke:#000000;stroke-width:0.264583"
       id="rect42"
       width="30.000029"
       height="11.3425"
       x="89.999977"
       y="70.185875" />
    <rect
       style="fill:#326ce5;fill-opacity:1;stroke:#000000;stroke-width:0.264583"
       id="rect44"
       width="60.00005"
       height="11.3425"
       x="59.999958"
       y="92.870872" />
    <rect
       style="fill:#326ce5;fill-opacity:1;stroke:#000000;stroke-width:0.264583"
       id="rect45"
       width="30.000019"
       height="11.3425"
       x="120.00001"
       y="92.870872" />
    <rect
       style="fill:none;stroke:#000000;stroke-width:0.264583;stroke-dasharray:0.264583, 0.793749;stroke-dashoffset:0"
       id="rect46"
       width="30.000031"
       height="11.3425"
       x="150.00003"
       y="92.870872" />
    <rect
       style="fill:#326ce5;fill-opacity:1;stroke:#000000;stroke-width:0.264583;stroke-opacity:1"
       id="rect47"
       width="30.000019"
       height="11.3425"
       x="120.00001"
       y="70.185875" />
    <rect
       style="fill:#326ce5;fill-opacity:1;stroke:#000000;stroke-width:0.264583"
       id="rect48"
       width="60.00005"
       height="11.3425"
       x="59.999958"
       y="115.55588" />
    <rect
       style="fill:#326ce5;fill-opacity:1;stroke:#000000;stroke-width:0.264583"
       id="rect49"
       width="30.000019"
       height="11.3425"
       x="120.00001"
       y="115.55588" />
    <path
       style="font-size:3.175px;font-family:'open sans';-inkscape-font-specification:'open sans';text-align:center;text-anchor:middle;fill:#ffffff;stroke-width:0"
       d="m 68.707332,76.034633 v 0.942578 h -0.26355 v -2.266528 h 0.621668 q 0.417028,0 0.615466,0.15968 0.199988,0.15968 0.199988,0.480591 0,0.449585 -0.455786,0.607715 l 0.615466,1.018542 h -0.311609 l -0.548804,-0.942578 z m 0,-0.226343 h 0.361218 q 0.279053,0 0.409278,-0.110071 0.130224,-0.111621 0.130224,-0.333313 0,-0.224792 -0.133325,-0.324011 -0.131775,-0.09922 -0.42478,-0.09922 h -0.342615 z m 2.378149,1.199927 q -0.376721,0 -0.595312,-0.229443 -0.217041,-0.229444 -0.217041,-0.637171 0,-0.410828 0.201538,-0.652673 0.203088,-0.241846 0.544153,-0.241846 0.31936,0 0.505395,0.21084 0.186035,0.209289 0.186035,0.553454 v 0.162781 h -1.170471 q 0.0078,0.299207 0.150379,0.454236 0.144177,0.155029 0.404626,0.155029 0.274402,0 0.542603,-0.114721 v 0.229443 q -0.136426,0.05891 -0.258899,0.08372 -0.120923,0.02635 -0.293006,0.02635 z m -0.06976,-1.545642 q -0.204638,0 -0.327112,0.133325 -0.120922,0.133325 -0.142627,0.36897 H 71.4343 q 0,-0.243396 -0.10852,-0.372071 -0.108521,-0.130224 -0.310059,-0.130224 z m 1.775086,1.330151 q 0.257348,0 0.375171,-0.137976 0.117822,-0.137976 0.125573,-0.465088 v -0.05736 q 0,-0.356567 -0.120923,-0.513147 -0.120922,-0.156579 -0.382922,-0.156579 -0.226343,0 -0.347266,0.176733 -0.119372,0.175183 -0.119372,0.496094 0,0.320911 0.117822,0.489892 0.119373,0.167432 0.351917,0.167432 z m -0.03876,0.215491 q -0.328662,0 -0.513147,-0.230994 -0.184485,-0.230993 -0.184485,-0.644922 0,-0.417028 0.186036,-0.651123 0.186035,-0.234094 0.517797,-0.234094 0.348816,0 0.536402,0.26355 h 0.01395 l 0.03721,-0.232544 h 0.203089 v 2.461865 H 73.29155 v -0.727087 q 0,-0.15503 0.01705,-0.26355 h -0.02015 q -0.178284,0.258899 -0.536403,0.258899 z m 1.5844,-1.730127 v 1.102258 q 0,0.207739 0.09457,0.310059 0.09457,0.102319 0.296106,0.102319 0.26665,0 0.389123,-0.145727 0.124023,-0.145728 0.124023,-0.47594 V 75.27809 h 0.257349 v 1.699121 h -0.21239 l -0.03721,-0.227893 h -0.01395 q -0.07906,0.125574 -0.220141,0.192236 -0.139527,0.06666 -0.319361,0.06666 -0.310058,0 -0.465088,-0.147278 -0.153479,-0.147278 -0.153479,-0.471289 v -1.11156 z m 2.424658,1.730127 q -0.376721,0 -0.595313,-0.229443 -0.217041,-0.229444 -0.217041,-0.637171 0,-0.410828 0.201538,-0.652673 0.203089,-0.241846 0.544153,-0.241846 0.31936,0 0.505396,0.21084 0.186035,0.209289 0.186035,0.553454 v 0.162781 h -1.170471 q 0.0078,0.299207 0.150378,0.454236 0.144177,0.155029 0.404626,0.155029 0.274402,0 0.542603,-0.114721 v 0.229443 q -0.136426,0.05891 -0.258899,0.08372 -0.120923,0.02635 -0.293005,0.02635 z m -0.06976,-1.545642 q -0.204639,0 -0.327112,0.133325 -0.120923,0.133325 -0.142627,0.36897 h 0.888318 q 0,-0.243396 -0.108521,-0.372071 -0.10852,-0.130224 -0.310058,-0.130224 z m 2.229321,1.051098 q 0,0.237195 -0.176733,0.36587 -0.176733,0.128674 -0.496094,0.128674 -0.337964,0 -0.527099,-0.10697 v -0.238745 q 0.122473,0.06201 0.261999,0.09767 0.141077,0.03566 0.271301,0.03566 0.201539,0 0.310059,-0.06356 0.108521,-0.06511 0.108521,-0.196887 0,-0.09922 -0.08682,-0.168982 -0.08527,-0.07131 -0.334863,-0.167432 -0.237195,-0.08837 -0.337964,-0.153479 -0.09922,-0.06666 -0.148828,-0.150378 -0.04806,-0.08372 -0.04806,-0.199988 0,-0.20774 0.168982,-0.327112 0.168982,-0.120923 0.463537,-0.120923 0.274402,0 0.536402,0.111621 l -0.09147,0.20929 q -0.255798,-0.10542 -0.463537,-0.10542 -0.182935,0 -0.275952,0.05736 -0.09302,0.05736 -0.09302,0.15813 0,0.06821 0.03411,0.116271 0.03566,0.04806 0.113171,0.09147 0.07751,0.04341 0.297656,0.125573 0.302307,0.110071 0.407727,0.221692 0.10697,0.111621 0.10697,0.280603 z m 0.967383,0.282154 q 0.06821,0 0.131775,-0.0093 0.06356,-0.01085 0.100769,-0.0217 v 0.196887 q -0.04186,0.02015 -0.124023,0.03256 -0.08062,0.01395 -0.145728,0.01395 -0.492993,0 -0.492993,-0.519348 v -1.010791 h -0.243396 v -0.124024 l 0.243396,-0.10697 0.10852,-0.362768 h 0.148828 v 0.393774 h 0.492994 v 0.199988 h -0.492994 v 0.999939 q 0,0.153479 0.07286,0.235644 0.07286,0.08217 0.199988,0.08217 z m 1.668114,-0.282154 q 0,0.237195 -0.176733,0.36587 -0.176733,0.128674 -0.496094,0.128674 -0.337964,0 -0.527099,-0.10697 v -0.238745 q 0.122473,0.06201 0.261999,0.09767 0.141077,0.03566 0.271302,0.03566 0.201538,0 0.310058,-0.06356 0.108521,-0.06511 0.108521,-0.196887 0,-0.09922 -0.08682,-0.168982 -0.08527,-0.07131 -0.334863,-0.167432 -0.237195,-0.08837 -0.337964,-0.153479 -0.09922,-0.06666 -0.148828,-0.150378 -0.04806,-0.08372 -0.04806,-0.199988 0,-0.20774 0.168982,-0.327112 0.168982,-0.120923 0.463537,-0.120923 0.274402,0 0.536402,0.111621 l -0.09147,0.20929 q -0.255798,-0.10542 -0.463537,-0.10542 -0.182935,0 -0.275952,0.05736 -0.09302,0.05736 -0.09302,0.15813 0,0.06821 0.03411,0.116271 0.03566,0.04806 0.113171,0.09147 0.07751,0.04341 0.297656,0.125573 0.302307,0.110071 0.407727,0.221692 0.10697,0.111621 0.10697,0.280603 z"
       id="text49"
       aria-label="Requests" />
    <path
       style="font-size:3.175px;font-family:'Open Sans';-inkscape-font-specification:'Open Sans';text-align:center;text-anchor:middle;fill:#ffffff;stroke-width:0.265"
       d="m 96.71601,77.040771 v -2.266528 h 0.263549 v 2.027783 h 0.999939 v 0.238745 z m 1.866552,0 H 98.325214 V 75.34165 h 0.257348 z M 98.30351,74.881213 q 0,-0.08837 0.04341,-0.128674 0.04341,-0.04186 0.10852,-0.04186 0.06201,0 0.106971,0.04186 0.04496,0.04186 0.04496,0.128674 0,0.08682 -0.04496,0.130225 -0.04496,0.04186 -0.106971,0.04186 -0.06511,0 -0.10852,-0.04186 -0.04341,-0.04341 -0.04341,-0.130225 z m 2.99051,2.159558 v -1.105358 q 0,-0.203089 -0.0868,-0.303858 -0.0868,-0.102319 -0.26975,-0.102319 -0.2403,0 -0.35502,0.137976 -0.11472,0.137976 -0.11472,0.42478 v 0.948779 h -0.25735 v -1.105358 q 0,-0.203089 -0.0868,-0.303858 -0.0868,-0.102319 -0.271298,-0.102319 -0.241845,0 -0.355017,0.145727 -0.111621,0.144178 -0.111621,0.47439 v 0.891418 H 99.128265 V 75.34165 h 0.20929 l 0.04186,0.232544 h 0.0124 q 0.07286,-0.124023 0.204639,-0.193786 0.133325,-0.06976 0.297656,-0.06976 0.39843,0 0.5209,0.288354 h 0.0124 q 0.076,-0.133325 0.22014,-0.21084 0.14418,-0.07751 0.32866,-0.07751 0.28836,0 0.43099,0.148828 0.14417,0.147278 0.14417,0.472839 v 1.108459 z m 1.0449,0 h -0.25735 V 75.34165 h 0.25735 z m -0.27905,-2.159558 q 0,-0.08837 0.0434,-0.128674 0.0434,-0.04186 0.10852,-0.04186 0.062,0 0.10697,0.04186 0.045,0.04186 0.045,0.128674 0,0.08682 -0.045,0.130225 -0.045,0.04186 -0.10697,0.04186 -0.0651,0 -0.10852,-0.04186 -0.0434,-0.04341 -0.0434,-0.130225 z m 1.37356,1.978174 q 0.0682,0 0.13177,-0.0093 0.0636,-0.01085 0.10077,-0.0217 v 0.196888 q -0.0418,0.02015 -0.12402,0.03256 -0.0806,0.01395 -0.14573,0.01395 -0.49299,0 -0.49299,-0.519348 v -1.010791 h -0.2434 v -0.124023 l 0.2434,-0.10697 0.10852,-0.362769 h 0.14883 v 0.393774 h 0.49299 v 0.199988 h -0.49299 v 0.999939 q 0,0.153479 0.0729,0.235645 0.0729,0.08217 0.19999,0.08217 z m 1.66811,-0.282153 q 0,0.237195 -0.17673,0.365869 -0.17673,0.128674 -0.49609,0.128674 -0.33797,0 -0.5271,-0.10697 v -0.238745 q 0.12247,0.06201 0.262,0.09767 0.14107,0.03566 0.2713,0.03566 0.20154,0 0.31006,-0.06356 0.10852,-0.06511 0.10852,-0.196887 0,-0.09922 -0.0868,-0.168982 -0.0853,-0.07131 -0.33486,-0.167432 -0.2372,-0.08837 -0.33797,-0.153479 -0.0992,-0.06666 -0.14882,-0.150378 -0.0481,-0.08372 -0.0481,-0.199988 0,-0.207739 0.16898,-0.327112 0.16898,-0.120922 0.46354,-0.120922 0.2744,0 0.5364,0.111621 l -0.0915,0.209289 q -0.2558,-0.10542 -0.46354,-0.10542 -0.18293,0 -0.27595,0.05736 -0.093,0.05736 -0.093,0.15813 0,0.06821 0.0341,0.116272 0.0357,0.04806 0.11317,0.09147 0.0775,0.04341 0.29766,0.125574 0.3023,0.110071 0.40772,0.221692 0.10697,0.111621 0.10697,0.280603 z m 1.96112,0.494543 q -0.37672,0 -0.59531,-0.229443 -0.21704,-0.229443 -0.21704,-0.63717 0,-0.410828 0.20154,-0.652674 0.20309,-0.241845 0.54415,-0.241845 0.31936,0 0.5054,0.210839 0.18603,0.20929 0.18603,0.553455 v 0.162781 h -1.17047 q 0.008,0.299206 0.15038,0.454236 0.14418,0.155029 0.40463,0.155029 0.2744,0 0.5426,-0.114722 v 0.229444 q -0.13643,0.05891 -0.2589,0.08371 -0.12092,0.02635 -0.29301,0.02635 z m -0.0698,-1.545642 q -0.20464,0 -0.32711,0.133325 -0.12092,0.133326 -0.14263,0.36897 h 0.88832 q 0,-0.243396 -0.10852,-0.37207 -0.10852,-0.130225 -0.31006,-0.130225 z m 1.47898,0.644922 -0.59066,-0.829407 h 0.293 l 0.44804,0.651123 0.44648,-0.651123 h 0.28991 l -0.59066,0.829407 0.62166,0.869714 h -0.29145 l -0.47594,-0.68833 -0.48059,0.68833 h -0.29146 z m 1.80299,0.68833 q 0.0682,0 0.13178,-0.0093 0.0636,-0.01085 0.10077,-0.0217 v 0.196888 q -0.0419,0.02015 -0.12403,0.03256 -0.0806,0.01395 -0.14573,0.01395 -0.49299,0 -0.49299,-0.519348 v -1.010791 h -0.24339 v -0.124023 l 0.24339,-0.10697 0.10852,-0.362769 h 0.14883 v 0.393774 h 0.49299 v 0.199988 h -0.49299 v 0.999939 q 0,0.153479 0.0729,0.235645 0.0729,0.08217 0.19999,0.08217 z m 1.34721,-1.548742 q 0.11317,0 0.20308,0.0186 l -0.0356,0.238745 q -0.10542,-0.02325 -0.18604,-0.02325 -0.20619,0 -0.35346,0.167431 -0.14573,0.167432 -0.14573,0.417029 v 0.911572 h -0.25735 V 75.34165 h 0.21239 l 0.0295,0.31471 h 0.0124 q 0.0946,-0.165881 0.22789,-0.255798 0.13333,-0.08992 0.29301,-0.08992 z m 1.50223,1.730126 -0.0512,-0.241845 h -0.0124 q -0.12713,0.15968 -0.25425,0.217041 -0.12557,0.05581 -0.31471,0.05581 -0.2527,0 -0.39687,-0.130224 -0.14263,-0.130225 -0.14263,-0.37052 0,-0.514698 0.8232,-0.539502 l 0.28836,-0.0093 v -0.10542 q 0,-0.199988 -0.0868,-0.294556 -0.0853,-0.09612 -0.2744,-0.09612 -0.21239,0 -0.48059,0.130225 l -0.0791,-0.196887 q 0.12558,-0.06821 0.27441,-0.106971 0.15038,-0.03876 0.30075,-0.03876 0.30386,0 0.44959,0.134876 0.14728,0.134875 0.14728,0.432531 v 1.159619 z m -0.58136,-0.181384 q 0.2403,0 0.37672,-0.131775 0.13798,-0.131775 0.13798,-0.368969 v -0.153479 l -0.25735,0.01085 q -0.30696,0.01085 -0.44338,0.09612 -0.13488,0.08372 -0.13488,0.261999 0,0.139527 0.0837,0.21239 0.0853,0.07286 0.23719,0.07286 z"
       id="text50"
       aria-label="Limits extra" />
    <path
       style="font-size:3.175px;font-family:'open sans';-inkscape-font-specification:'open sans';text-align:center;text-anchor:middle;fill:#ffffff;stroke-width:0.264583"
       d="m 127.3594,75.984251 q 0,-0.410827 0.11937,-0.768945 0.12092,-0.358118 0.34726,-0.627869 h 0.25115 q -0.22324,0.299207 -0.33641,0.657325 -0.11162,0.358117 -0.11162,0.736389 0,0.37207 0.11472,0.727087 0.11472,0.355017 0.33021,0.648023 h -0.24805 q -0.22789,-0.26355 -0.34726,-0.615467 -0.11937,-0.351916 -0.11937,-0.756543 z m 1.32705,-0.829406 v 1.102258 q 0,0.207739 0.0946,0.310059 0.0946,0.102319 0.2961,0.102319 0.26665,0 0.38912,-0.145728 0.12403,-0.145727 0.12403,-0.47594 v -0.892968 h 0.25735 v 1.699121 h -0.21239 l -0.0372,-0.227893 h -0.0139 q -0.0791,0.125573 -0.22014,0.192236 -0.13953,0.06666 -0.31937,0.06666 -0.31005,0 -0.46508,-0.147278 -0.15348,-0.147278 -0.15348,-0.471289 v -1.11156 z m 2.86959,1.699121 v -1.099158 q 0,-0.207739 -0.0946,-0.310059 -0.0946,-0.102319 -0.2961,-0.102319 -0.26665,0 -0.39068,0.144177 -0.12402,0.144178 -0.12402,0.47594 v 0.891419 h -0.25735 v -1.699121 h 0.20929 l 0.0419,0.232544 h 0.0124 q 0.0791,-0.125574 0.22169,-0.193787 0.14263,-0.06976 0.31781,-0.06976 0.30696,0 0.46199,0.148828 0.15503,0.147278 0.15503,0.472839 v 1.10846 z m 1.02784,-1.699121 v 1.102258 q 0,0.207739 0.0946,0.310059 0.0946,0.102319 0.29611,0.102319 0.26665,0 0.38912,-0.145728 0.12402,-0.145727 0.12402,-0.47594 v -0.892968 h 0.25735 v 1.699121 h -0.21239 l -0.0372,-0.227893 h -0.014 q -0.0791,0.125573 -0.22014,0.192236 -0.13952,0.06666 -0.31936,0.06666 -0.31006,0 -0.46509,-0.147278 -0.15348,-0.147278 -0.15348,-0.471289 v -1.11156 z m 2.80293,1.235583 q 0,0.237195 -0.17673,0.365869 -0.17673,0.128675 -0.49609,0.128675 -0.33797,0 -0.5271,-0.106971 v -0.238745 q 0.12247,0.06201 0.262,0.09767 0.14107,0.03566 0.2713,0.03566 0.20154,0 0.31006,-0.06356 0.10852,-0.06511 0.10852,-0.196887 0,-0.09922 -0.0868,-0.168982 -0.0853,-0.07131 -0.33486,-0.167431 -0.2372,-0.08837 -0.33797,-0.153479 -0.0992,-0.06666 -0.14883,-0.150379 -0.048,-0.08372 -0.048,-0.199988 0,-0.207739 0.16898,-0.327111 0.16898,-0.120923 0.46354,-0.120923 0.2744,0 0.5364,0.111621 l -0.0915,0.209289 q -0.2558,-0.105419 -0.46354,-0.105419 -0.18293,0 -0.27595,0.05736 -0.093,0.05736 -0.093,0.15813 0,0.06821 0.0341,0.116272 0.0357,0.04806 0.11317,0.09147 0.0775,0.04341 0.29766,0.125573 0.3023,0.110071 0.40772,0.221692 0.10697,0.111621 0.10697,0.280603 z m 1.46348,0.463538 -0.0512,-0.241846 h -0.0124 q -0.12713,0.15968 -0.25425,0.217041 -0.12557,0.05581 -0.31471,0.05581 -0.2527,0 -0.39687,-0.130225 -0.14263,-0.130225 -0.14263,-0.37052 0,-0.514697 0.8232,-0.539502 l 0.28836,-0.0093 v -0.10542 q 0,-0.199987 -0.0868,-0.294555 -0.0853,-0.09612 -0.2744,-0.09612 -0.21239,0 -0.48059,0.130224 l -0.0791,-0.196887 q 0.12558,-0.06821 0.27441,-0.10697 0.15037,-0.03876 0.30075,-0.03876 0.30386,0 0.44959,0.134876 0.14728,0.134875 0.14728,0.432532 v 1.159619 z m -0.58136,-0.181385 q 0.2403,0 0.37672,-0.131774 0.13798,-0.131775 0.13798,-0.36897 v -0.153479 l -0.25735,0.01085 q -0.30696,0.01085 -0.44339,0.09612 -0.13487,0.08372 -0.13487,0.262 0,0.139526 0.0837,0.21239 0.0853,0.07286 0.2372,0.07286 z m 2.09289,-1.545642 q 0.33487,0 0.51935,0.229444 0.18604,0.227893 0.18604,0.646472 0,0.418579 -0.18759,0.651123 -0.18603,0.230994 -0.5178,0.230994 -0.16588,0 -0.30385,-0.06046 -0.13643,-0.06201 -0.22945,-0.189136 h -0.0186 l -0.0543,0.218592 h -0.18448 V 74.44171 h 0.25734 v 0.586011 q 0,0.196887 -0.0124,0.353466 h 0.0124 q 0.17984,-0.254248 0.5333,-0.254248 z m -0.0372,0.215491 q -0.26355,0 -0.37982,0.151929 -0.11628,0.150378 -0.11628,0.508496 0,0.358118 0.11938,0.513147 0.11937,0.153479 0.38292,0.153479 0.23719,0 0.35347,-0.172083 0.11627,-0.173632 0.11627,-0.497644 0,-0.331762 -0.11627,-0.494543 -0.11628,-0.162781 -0.35967,-0.162781 z m 1.44952,1.511536 h -0.25735 V 74.44171 h 0.25735 z m 1.26349,0.03101 q -0.37672,0 -0.59531,-0.229444 -0.21704,-0.229443 -0.21704,-0.63717 0,-0.410828 0.20154,-0.652673 0.20308,-0.241846 0.54415,-0.241846 0.31936,0 0.50539,0.21084 0.18604,0.209289 0.18604,0.553454 v 0.162781 h -1.17047 q 0.008,0.299207 0.15038,0.454236 0.14417,0.155029 0.40462,0.155029 0.2744,0 0.54261,-0.114722 v 0.229444 q -0.13643,0.05891 -0.2589,0.08372 -0.12093,0.02636 -0.29301,0.02636 z m -0.0698,-1.545642 q -0.20464,0 -0.32711,0.133325 -0.12093,0.133325 -0.14263,0.368969 h 0.88832 q 0,-0.243396 -0.10852,-0.37207 -0.10852,-0.130224 -0.31006,-0.130224 z m 1.67276,0.644921 q 0,0.407727 -0.12092,0.759644 -0.11937,0.351916 -0.34571,0.612366 h -0.24805 q 0.21549,-0.291455 0.33021,-0.646472 0.11472,-0.356568 0.11472,-0.728638 0,-0.378272 -0.11317,-0.736389 -0.11162,-0.358118 -0.33486,-0.657325 h 0.25115 q 0.22789,0.271302 0.34726,0.63097 0.11937,0.358117 0.11937,0.765844 z"
       id="text51"
       aria-label="(unusable)" />
    <path
       style="font-size:3.175px;font-family:'open sans';-inkscape-font-specification:'open sans';text-align:center;text-anchor:middle;fill:#ffffff;stroke-width:0.265"
       d="m 83.711994,98.426624 v 0.942578 h -0.26355 v -2.266529 h 0.621667 q 0.417029,0 0.615466,0.159681 0.199988,0.15968 0.199988,0.48059 0,0.449585 -0.455786,0.607715 l 0.615466,1.018543 h -0.311608 l -0.548804,-0.942578 z m 0,-0.226343 h 0.361218 q 0.279052,0 0.409277,-0.110071 0.130225,-0.111621 0.130225,-0.333313 0,-0.224792 -0.133325,-0.324011 -0.131775,-0.09922 -0.424781,-0.09922 h -0.342614 z m 2.378149,1.199927 q -0.376721,0 -0.595313,-0.229444 -0.217041,-0.229443 -0.217041,-0.63717 0,-0.410828 0.201539,-0.652674 0.203088,-0.241845 0.544152,-0.241845 0.319361,0 0.505396,0.21084 0.186035,0.209289 0.186035,0.553454 V 98.56615 H 85.54444 q 0.0078,0.299206 0.150378,0.454236 0.144177,0.155029 0.404627,0.155029 0.274402,0 0.542602,-0.114722 v 0.229444 q -0.136426,0.05891 -0.258899,0.08372 -0.120923,0.02636 -0.293005,0.02636 z m -0.06976,-1.545643 q -0.204639,0 -0.327112,0.133326 -0.120923,0.133325 -0.142627,0.368969 h 0.888318 q 0,-0.243396 -0.108521,-0.37207 -0.10852,-0.130225 -0.310058,-0.130225 z m 1.775085,1.330152 q 0.257349,0 0.375171,-0.137976 0.117822,-0.137976 0.125574,-0.465088 v -0.05736 q 0,-0.356567 -0.120923,-0.513147 -0.120923,-0.15658 -0.382922,-0.15658 -0.226343,0 -0.347266,0.176734 -0.119373,0.175183 -0.119373,0.496094 0,0.32091 0.117823,0.489892 0.119372,0.167432 0.351916,0.167431 z m -0.03876,0.215491 q -0.328662,0 -0.513147,-0.230994 -0.184485,-0.230994 -0.184485,-0.644922 0,-0.417029 0.186035,-0.651123 0.186035,-0.234094 0.517798,-0.234094 0.348816,0 0.536401,0.26355 h 0.01395 l 0.03721,-0.232544 h 0.203088 v 2.461869 H 88.29621 v -0.727092 q 0,-0.155029 0.01705,-0.263549 h -0.02015 q -0.178283,0.258899 -0.536402,0.258899 z m 1.584399,-1.730127 v 1.102258 q 0,0.207739 0.09457,0.310058 0.09457,0.10232 0.296106,0.10232 0.26665,0 0.389124,-0.145728 0.124023,-0.145727 0.124023,-0.47594 v -0.892968 h 0.257349 v 1.699121 h -0.21239 l -0.03721,-0.227893 h -0.01395 q -0.07906,0.125573 -0.220142,0.192236 -0.139526,0.06666 -0.31936,0.06666 -0.310059,0 -0.465088,-0.147278 -0.153479,-0.147278 -0.153479,-0.471289 v -1.11156 z m 2.424658,1.730127 q -0.376721,0 -0.595312,-0.229444 -0.217041,-0.229443 -0.217041,-0.63717 0,-0.410828 0.201538,-0.652674 0.203088,-0.241845 0.544153,-0.241845 0.31936,0 0.505395,0.21084 0.186035,0.209289 0.186035,0.553454 v 0.162781 h -1.170471 q 0.0078,0.299206 0.150379,0.454236 0.144177,0.155029 0.404626,0.155029 0.274402,0 0.542603,-0.114722 v 0.229444 q -0.136426,0.05891 -0.258899,0.08372 -0.120923,0.02636 -0.293006,0.02636 z m -0.06976,-1.545643 q -0.204639,0 -0.327112,0.133326 -0.120923,0.133325 -0.142627,0.368969 h 0.888318 q 0,-0.243396 -0.10852,-0.37207 -0.108521,-0.130225 -0.310059,-0.130225 z m 2.229322,1.051099 q 0,0.237195 -0.176733,0.365869 -0.176734,0.128675 -0.496094,0.128675 -0.337964,0 -0.5271,-0.106971 v -0.238745 q 0.122473,0.06201 0.262,0.09767 0.141076,0.03566 0.271301,0.03566 0.201538,0 0.310059,-0.06356 0.10852,-0.06511 0.10852,-0.196887 0,-0.09922 -0.08682,-0.168982 -0.08527,-0.07131 -0.334864,-0.167431 -0.237194,-0.08837 -0.337963,-0.153479 -0.09922,-0.06666 -0.148829,-0.150379 -0.04806,-0.08372 -0.04806,-0.199988 0,-0.207739 0.168982,-0.327111 0.168982,-0.120923 0.463538,-0.120923 0.274402,0 0.536401,0.111621 l -0.09147,0.209289 q -0.255798,-0.10542 -0.463538,-0.10542 -0.182934,0 -0.275952,0.05736 -0.09302,0.05736 -0.09302,0.15813 0,0.06821 0.03411,0.116272 0.03566,0.04806 0.113171,0.09147 0.07751,0.04341 0.297657,0.125574 0.302307,0.110071 0.407727,0.221692 0.10697,0.111621 0.10697,0.280603 z m 0.967383,0.282153 q 0.06821,0 0.131774,-0.0093 0.06356,-0.01085 0.10077,-0.0217 v 0.196887 q -0.04186,0.02015 -0.124024,0.03256 -0.08061,0.01395 -0.145727,0.01395 -0.492994,0 -0.492994,-0.519349 V 97.870068 H 94.11911 v -0.124023 l 0.243396,-0.10697 0.108521,-0.362769 h 0.148828 v 0.393775 h 0.492993 v 0.199987 h -0.492993 v 0.999939 q 0,0.153479 0.07286,0.235645 0.07286,0.08216 0.199988,0.08216 z m 1.668114,-0.282153 q 0,0.237195 -0.176733,0.365869 -0.176734,0.128675 -0.496094,0.128675 -0.337964,0 -0.5271,-0.106971 v -0.238745 q 0.122473,0.06201 0.262,0.09767 0.141076,0.03566 0.271301,0.03566 0.201538,0 0.310059,-0.06356 0.10852,-0.06511 0.10852,-0.196887 0,-0.09922 -0.08682,-0.168982 -0.08527,-0.07131 -0.334864,-0.167431 -0.237194,-0.08837 -0.337963,-0.153479 -0.09922,-0.06666 -0.148828,-0.150379 -0.04806,-0.08372 -0.04806,-0.199988 0,-0.207739 0.168982,-0.327111 0.168982,-0.120923 0.463538,-0.120923 0.274402,0 0.536401,0.111621 l -0.09147,0.209289 q -0.255798,-0.10542 -0.463538,-0.10542 -0.182934,0 -0.275952,0.05736 -0.09302,0.05736 -0.09302,0.15813 0,0.06821 0.03411,0.116272 0.03566,0.04806 0.113172,0.09147 0.07751,0.04341 0.297656,0.125574 0.302307,0.110071 0.407727,0.221692 0.10697,0.111621 0.10697,0.280603 z"
       id="text52"
       aria-label="Requests" />
    <path
       style="font-size:3.175px;font-family:'open sans';-inkscape-font-specification:'open sans';text-align:center;text-anchor:middle;fill:#ffffff;stroke-width:0.264583"
       d="m 126.71602,99.725769 v -2.266528 h 0.26355 v 2.027783 h 0.99994 v 0.238745 z m 1.86656,0 h -0.25735 v -1.699121 h 0.25735 z m -0.27906,-2.159558 q 0,-0.08837 0.0434,-0.128674 0.0434,-0.04186 0.10852,-0.04186 0.062,0 0.10697,0.04186 0.045,0.04186 0.045,0.128674 0,0.08682 -0.045,0.130225 -0.045,0.04186 -0.10697,0.04186 -0.0651,0 -0.10852,-0.04186 -0.0434,-0.04341 -0.0434,-0.130225 z m 2.99052,2.159558 V 98.62041 q 0,-0.203088 -0.0868,-0.303857 -0.0868,-0.10232 -0.26975,-0.10232 -0.24029,0 -0.35501,0.137976 -0.11473,0.137977 -0.11473,0.424781 v 0.948779 h -0.25734 V 98.62041 q 0,-0.203088 -0.0868,-0.303857 -0.0868,-0.10232 -0.2713,-0.10232 -0.24185,0 -0.35502,0.145728 -0.11162,0.144177 -0.11162,0.47439 v 0.891418 h -0.25735 v -1.699121 h 0.20929 l 0.0419,0.232544 h 0.0124 q 0.0729,-0.124024 0.20464,-0.193787 0.13332,-0.06976 0.29766,-0.06976 0.39842,0 0.52089,0.288355 h 0.0124 q 0.076,-0.133326 0.22014,-0.21084 0.14417,-0.07751 0.32866,-0.07751 0.28835,0 0.43098,0.148828 0.14418,0.147278 0.14418,0.47284 v 1.108459 z m 1.0449,0 h -0.25735 v -1.699121 h 0.25735 z m -0.27906,-2.159558 q 0,-0.08837 0.0434,-0.128674 0.0434,-0.04186 0.10852,-0.04186 0.062,0 0.10697,0.04186 0.045,0.04186 0.045,0.128674 0,0.08682 -0.045,0.130225 -0.045,0.04186 -0.10697,0.04186 -0.0651,0 -0.10852,-0.04186 -0.0434,-0.04341 -0.0434,-0.130225 z m 1.37356,1.978174 q 0.0682,0 0.13178,-0.0093 0.0636,-0.01085 0.10077,-0.0217 v 0.196887 q -0.0419,0.02015 -0.12403,0.03256 -0.0806,0.01395 -0.14572,0.01395 -0.493,0 -0.493,-0.519348 v -1.010791 h -0.24339 v -0.124024 l 0.24339,-0.10697 0.10852,-0.362768 h 0.14883 v 0.393774 h 0.493 v 0.199988 h -0.493 v 0.999939 q 0,0.153479 0.0729,0.235644 0.0729,0.08217 0.19998,0.08217 z m 1.66812,-0.282154 q 0,0.237195 -0.17673,0.36587 -0.17674,0.128674 -0.4961,0.128674 -0.33796,0 -0.5271,-0.10697 V 99.41106 q 0.12248,0.06201 0.262,0.09767 0.14108,0.03566 0.2713,0.03566 0.20154,0 0.31006,-0.06356 0.10852,-0.06511 0.10852,-0.196887 0,-0.09922 -0.0868,-0.168982 -0.0853,-0.07131 -0.33487,-0.167432 -0.23719,-0.08837 -0.33796,-0.153479 -0.0992,-0.06666 -0.14883,-0.150378 -0.0481,-0.08372 -0.0481,-0.199988 0,-0.207739 0.16898,-0.327112 0.16899,-0.120923 0.46354,-0.120923 0.2744,0 0.5364,0.111621 l -0.0915,0.20929 q -0.2558,-0.10542 -0.46354,-0.10542 -0.18294,0 -0.27595,0.05736 -0.093,0.05736 -0.093,0.15813 0,0.06821 0.0341,0.116272 0.0357,0.04806 0.11318,0.09147 0.0775,0.04341 0.29765,0.125574 0.30231,0.11007 0.40773,0.221691 0.10697,0.111622 0.10697,0.280603 z m 1.96112,0.494544 q -0.37672,0 -0.59531,-0.229443 -0.21704,-0.229444 -0.21704,-0.637171 0,-0.410827 0.20153,-0.652673 0.20309,-0.241846 0.54416,-0.241846 0.31936,0 0.50539,0.21084 0.18604,0.20929 0.18604,0.553455 v 0.16278 h -1.17047 q 0.008,0.299207 0.15037,0.454236 0.14418,0.155029 0.40463,0.155029 0.2744,0 0.5426,-0.114721 v 0.229443 q -0.13642,0.05891 -0.2589,0.08372 -0.12092,0.02636 -0.293,0.02636 z m -0.0698,-1.545642 q -0.20464,0 -0.32712,0.133325 -0.12092,0.133325 -0.14262,0.36897 h 0.88832 q 0,-0.243396 -0.10852,-0.372071 -0.10853,-0.130224 -0.31006,-0.130224 z m 1.47898,0.644922 -0.59067,-0.829407 h 0.29301 l 0.44803,0.651123 0.44649,-0.651123 h 0.2899 l -0.59066,0.829407 0.62167,0.869714 h -0.29146 l -0.47594,-0.68833 -0.48059,0.68833 h -0.29145 z m 1.80299,0.68833 q 0.0682,0 0.13177,-0.0093 0.0636,-0.01085 0.10077,-0.0217 v 0.196887 q -0.0419,0.02015 -0.12402,0.03256 -0.0806,0.01395 -0.14573,0.01395 -0.49299,0 -0.49299,-0.519348 v -1.010791 h -0.2434 v -0.124024 l 0.2434,-0.10697 0.10852,-0.362768 h 0.14883 v 0.393774 h 0.49299 v 0.199988 H 140.002 v 0.999939 q 0,0.153479 0.0729,0.235644 0.0729,0.08217 0.19999,0.08217 z m 1.3472,-1.548743 q 0.11317,0 0.20309,0.0186 l -0.0357,0.238745 q -0.10542,-0.02325 -0.18603,-0.02325 -0.20619,0 -0.35347,0.167432 -0.14573,0.167432 -0.14573,0.417029 v 0.911572 h -0.25734 v -1.699121 h 0.21239 l 0.0294,0.314709 h 0.0124 q 0.0946,-0.165881 0.2279,-0.255798 0.13332,-0.08992 0.293,-0.08992 z m 1.50224,1.730127 -0.0512,-0.241846 h -0.0124 q -0.12712,0.159681 -0.25424,0.217041 -0.12558,0.05581 -0.31471,0.05581 -0.2527,0 -0.39688,-0.130225 -0.14263,-0.130224 -0.14263,-0.37052 0,-0.514697 0.82321,-0.539502 l 0.28835,-0.0093 v -0.10542 q 0,-0.199988 -0.0868,-0.294556 -0.0853,-0.09612 -0.2744,-0.09612 -0.21239,0 -0.48059,0.130224 l -0.0791,-0.196887 q 0.12557,-0.06821 0.2744,-0.10697 0.15038,-0.03876 0.30076,-0.03876 0.30386,0 0.44958,0.134875 0.14728,0.134876 0.14728,0.432532 v 1.159619 z m -0.58136,-0.181384 q 0.24029,0 0.37672,-0.131775 0.13797,-0.131775 0.13797,-0.36897 v -0.153479 l -0.25735,0.01085 q -0.30695,0.01085 -0.44338,0.09612 -0.13487,0.08372 -0.13487,0.262 0,0.139526 0.0837,0.21239 0.0853,0.07286 0.2372,0.07286 z"
       id="text53"
       aria-label="Limits extra&#10;" />
    <g
       id="text55"
       style="font-size:3.175px;text-align:center;text-anchor:middle;fill:#ffff00;stroke:#000000;stroke-width:0.264583"
       aria-label="Overcommit/&#10;contention">
      <path
         style="font-family:'open sans';-inkscape-font-specification:'open sans';fill:#000000;stroke:none"
         d="m 157.43849,96.605029 q 0,0.544153 -0.27595,0.855762 -0.2744,0.311609 -0.76429,0.311609 -0.50075,0 -0.7736,-0.305408 -0.2713,-0.306958 -0.2713,-0.865063 0,-0.553455 0.27285,-0.857312 0.27285,-0.305408 0.77515,-0.305408 0.48834,0 0.76274,0.310059 0.2744,0.310058 0.2744,0.855761 z m -1.80609,0 q 0,0.460437 0.19534,0.699182 0.19688,0.237195 0.57051,0.237195 0.37672,0 0.56895,-0.237195 0.19224,-0.237194 0.19224,-0.699182 0,-0.457336 -0.19224,-0.692981 -0.19068,-0.237194 -0.56585,-0.237194 -0.37673,0 -0.57361,0.238745 -0.19534,0.237194 -0.19534,0.69143 z m 2.6448,1.136365 -0.64492,-1.699121 h 0.27595 l 0.36587,1.00769 q 0.12402,0.353467 0.14573,0.458887 h 0.0124 q 0.017,-0.08216 0.10697,-0.339514 0.0915,-0.258899 0.40773,-1.127063 h 0.27595 l -0.64492,1.699121 z m 1.93632,0.03101 q -0.37672,0 -0.59532,-0.229443 -0.21704,-0.229444 -0.21704,-0.637171 0,-0.410827 0.20154,-0.652673 0.20309,-0.241846 0.54415,-0.241846 0.31936,0 0.5054,0.21084 0.18603,0.20929 0.18603,0.553455 v 0.16278 h -1.17047 q 0.008,0.299207 0.15038,0.454236 0.14418,0.155029 0.40463,0.155029 0.2744,0 0.5426,-0.114721 v 0.229443 q -0.13643,0.05891 -0.2589,0.08372 -0.12092,0.02636 -0.293,0.02636 z m -0.0698,-1.545642 q -0.20464,0 -0.32711,0.133325 -0.12092,0.133325 -0.14263,0.36897 h 0.88832 q 0,-0.243396 -0.10852,-0.372071 -0.10852,-0.130224 -0.31006,-0.130224 z m 1.90841,-0.215491 q 0.11318,0 0.20309,0.0186 l -0.0356,0.238745 q -0.10542,-0.02325 -0.18604,-0.02325 -0.20619,0 -0.35347,0.167432 -0.14572,0.167432 -0.14572,0.417029 v 0.911572 h -0.25735 v -1.699121 h 0.21239 l 0.0294,0.314709 h 0.0124 q 0.0946,-0.165881 0.22789,-0.255798 0.13332,-0.08992 0.293,-0.08992 z m 1.13637,1.761133 q -0.36897,0 -0.57206,-0.226343 -0.20154,-0.227893 -0.20154,-0.643371 0,-0.426331 0.20464,-0.658875 0.20619,-0.232544 0.58601,-0.232544 0.12247,0 0.24495,0.02635 0.12247,0.02635 0.19223,0.06201 l -0.0791,0.218591 q -0.0853,-0.03411 -0.18604,-0.05581 -0.10076,-0.02326 -0.17828,-0.02326 -0.5178,0 -0.5178,0.660425 0,0.313159 0.12558,0.480591 0.12712,0.167431 0.37517,0.167431 0.21239,0 0.43563,-0.09147 v 0.227893 q -0.17053,0.08837 -0.42943,0.08837 z m 2.29908,-0.882117 q 0,0.415479 -0.20929,0.649573 -0.20929,0.232544 -0.57826,0.232544 -0.22789,0 -0.40462,-0.10697 -0.17674,-0.106971 -0.27285,-0.306958 -0.0961,-0.199988 -0.0961,-0.468189 0,-0.415478 0.20774,-0.646472 0.20774,-0.232544 0.57671,-0.232544 0.35656,0 0.56585,0.237195 0.21084,0.237195 0.21084,0.641821 z m -1.29449,0 q 0,0.325562 0.13022,0.496094 0.13023,0.170532 0.38293,0.170532 0.25269,0 0.38292,-0.168982 0.13177,-0.170532 0.13177,-0.497644 0,-0.324011 -0.13177,-0.491443 -0.13023,-0.168982 -0.38603,-0.168982 -0.25269,0 -0.38137,0.165882 -0.12867,0.165881 -0.12867,0.494543 z m 3.91139,0.851111 v -1.105359 q 0,-0.203088 -0.0868,-0.303857 -0.0868,-0.10232 -0.26975,-0.10232 -0.2403,0 -0.35502,0.137976 -0.11472,0.137977 -0.11472,0.424781 v 0.948779 h -0.25735 v -1.105359 q 0,-0.203088 -0.0868,-0.303857 -0.0868,-0.10232 -0.27131,-0.10232 -0.24184,0 -0.35501,0.145728 -0.11162,0.144177 -0.11162,0.47439 v 0.891418 h -0.25735 v -1.699121 h 0.20929 l 0.0419,0.232544 h 0.0124 q 0.0729,-0.124024 0.20464,-0.193787 0.13332,-0.06976 0.29765,-0.06976 0.39843,0 0.5209,0.288355 h 0.0124 q 0.076,-0.133326 0.22015,-0.21084 0.14417,-0.07751 0.32866,-0.07751 0.28835,0 0.43098,0.148828 0.14418,0.147278 0.14418,0.47284 v 1.108459 z m 2.95331,0 v -1.105359 q 0,-0.203088 -0.0868,-0.303857 -0.0868,-0.10232 -0.26975,-0.10232 -0.2403,0 -0.35502,0.137976 -0.11472,0.137977 -0.11472,0.424781 v 0.948779 h -0.25735 v -1.105359 q 0,-0.203088 -0.0868,-0.303857 -0.0868,-0.10232 -0.2713,-0.10232 -0.24184,0 -0.35501,0.145728 -0.11163,0.144177 -0.11163,0.47439 v 0.891418 h -0.25734 v -1.699121 h 0.20929 l 0.0419,0.232544 h 0.0124 q 0.0729,-0.124024 0.20463,-0.193787 0.13333,-0.06976 0.29766,-0.06976 0.39843,0 0.5209,0.288355 h 0.0124 q 0.076,-0.133326 0.22014,-0.21084 0.14418,-0.07751 0.32867,-0.07751 0.28835,0 0.43098,0.148828 0.14417,0.147278 0.14417,0.47284 v 1.108459 z m 1.04489,0 h -0.25734 v -1.699121 h 0.25734 z m -0.27905,-2.159558 q 0,-0.08837 0.0434,-0.128674 0.0434,-0.04186 0.10852,-0.04186 0.062,0 0.10697,0.04186 0.045,0.04186 0.045,0.128674 0,0.08682 -0.045,0.130225 -0.045,0.04186 -0.10697,0.04186 -0.0651,0 -0.10852,-0.04186 -0.0434,-0.04341 -0.0434,-0.130225 z m 1.37356,1.978174 q 0.0682,0 0.13177,-0.0093 0.0636,-0.01085 0.10077,-0.0217 v 0.196887 q -0.0418,0.02015 -0.12402,0.03256 -0.0806,0.01395 -0.14573,0.01395 -0.49299,0 -0.49299,-0.519348 v -1.010791 h -0.2434 v -0.124024 l 0.2434,-0.10697 0.10852,-0.362768 h 0.14883 v 0.393774 h 0.49299 v 0.199988 h -0.49299 V 97.2422 q 0,0.153479 0.0729,0.235644 0.0729,0.08217 0.19999,0.08217 z m 1.43247,-2.085144 -0.84491,2.266528 h -0.25735 l 0.84491,-2.266528 z"
         id="path5" />
      <path
         style="font-family:'open sans';-inkscape-font-specification:'open sans';fill:#000000;stroke:none"
         d="m 157.8532,101.74522 q -0.36897,0 -0.57206,-0.22634 -0.20154,-0.22789 -0.20154,-0.64337 0,-0.42633 0.20464,-0.65887 0.20619,-0.232548 0.58601,-0.232548 0.12247,0 0.24494,0.02636 0.12248,0.0263 0.19224,0.062 l -0.0791,0.21859 q -0.0853,-0.0341 -0.18604,-0.0558 -0.10077,-0.0233 -0.17828,-0.0233 -0.5178,0 -0.5178,0.66042 0,0.31316 0.12557,0.48059 0.12713,0.16743 0.37517,0.16743 0.21239,0 0.43564,-0.0915 v 0.2279 q -0.17054,0.0884 -0.42943,0.0884 z m 2.29908,-0.88211 q 0,0.41548 -0.20929,0.64957 -0.20929,0.23254 -0.57826,0.23254 -0.22789,0 -0.40463,-0.10697 -0.17673,-0.10697 -0.27285,-0.30695 -0.0961,-0.19999 -0.0961,-0.46819 0,-0.41548 0.20774,-0.64647 0.20774,-0.232548 0.57671,-0.232548 0.35657,0 0.56586,0.237198 0.21084,0.23719 0.21084,0.64182 z m -1.29449,0 q 0,0.32556 0.13022,0.49609 0.13022,0.17053 0.38292,0.17053 0.2527,0 0.38292,-0.16898 0.13178,-0.17053 0.13178,-0.49764 0,-0.32401 -0.13178,-0.49144 -0.13022,-0.16899 -0.38602,-0.16899 -0.2527,0 -0.38137,0.16588 -0.12867,0.16589 -0.12867,0.49455 z m 2.90834,0.85111 v -1.09916 q 0,-0.20774 -0.0946,-0.31006 -0.0946,-0.10232 -0.29611,-0.10232 -0.26665,0 -0.39067,0.14418 -0.12403,0.14418 -0.12403,0.47594 v 0.89142 h -0.25735 v -1.69912 h 0.20929 l 0.0419,0.23254 h 0.0124 q 0.0791,-0.12557 0.2217,-0.19378 0.14262,-0.06977 0.31781,-0.06977 0.30695,0 0.46198,0.14883 0.15503,0.14728 0.15503,0.47284 v 1.10846 z m 1.33481,-0.18139 q 0.0682,0 0.13177,-0.009 0.0636,-0.0108 0.10077,-0.0217 v 0.19689 q -0.0419,0.0202 -0.12402,0.0326 -0.0806,0.014 -0.14573,0.014 -0.49299,0 -0.49299,-0.51934 v -1.01079 h -0.2434 v -0.12403 l 0.2434,-0.106968 0.10852,-0.362769 h 0.14883 v 0.393777 h 0.49299 v 0.19999 h -0.49299 v 0.99993 q 0,0.15348 0.0729,0.23565 0.0729,0.0822 0.19999,0.0822 z m 1.28984,0.21239 q -0.37672,0 -0.59531,-0.22944 -0.21704,-0.22944 -0.21704,-0.63717 0,-0.41083 0.20154,-0.65267 0.20308,-0.241848 0.54415,-0.241848 0.31936,0 0.50539,0.210838 0.18604,0.20929 0.18604,0.55346 v 0.16278 h -1.17047 q 0.008,0.2992 0.15038,0.45423 0.14417,0.15503 0.40462,0.15503 0.2744,0 0.5426,-0.11472 v 0.22944 q -0.13642,0.0589 -0.25889,0.0837 -0.12093,0.0264 -0.29301,0.0264 z m -0.0698,-1.54564 q -0.20464,0 -0.32711,0.13333 -0.12093,0.13332 -0.14263,0.36897 h 0.88832 q 0,-0.2434 -0.10852,-0.37207 -0.10852,-0.13023 -0.31006,-0.13023 z m 2.29598,1.51464 v -1.09916 q 0,-0.20774 -0.0946,-0.31006 -0.0946,-0.10232 -0.2961,-0.10232 -0.26665,0 -0.39068,0.14418 -0.12402,0.14418 -0.12402,0.47594 v 0.89142 h -0.25735 v -1.69912 h 0.20929 l 0.0419,0.23254 h 0.0124 q 0.0791,-0.12557 0.22169,-0.19378 0.14263,-0.06977 0.31781,-0.06977 0.30696,0 0.46199,0.14883 0.15503,0.14728 0.15503,0.47284 v 1.10846 z m 1.3348,-0.18139 q 0.0682,0 0.13178,-0.009 0.0636,-0.0108 0.10077,-0.0217 v 0.19689 q -0.0419,0.0202 -0.12403,0.0326 -0.0806,0.014 -0.14572,0.014 -0.493,0 -0.493,-0.51934 v -1.01079 h -0.24339 v -0.12403 l 0.24339,-0.106968 0.10852,-0.362769 h 0.14883 v 0.393777 h 0.49299 v 0.19999 h -0.49299 v 0.99993 q 0,0.15348 0.0729,0.23565 0.0729,0.0822 0.19998,0.0822 z m 0.82941,0.18139 h -0.25735 v -1.69912 h 0.25735 z m -0.27905,-2.159559 q 0,-0.08837 0.0434,-0.128675 0.0434,-0.04186 0.10852,-0.04186 0.062,0 0.10697,0.04186 0.045,0.04186 0.045,0.128675 0,0.08682 -0.045,0.130224 -0.045,0.04186 -0.10697,0.04186 -0.0651,0 -0.10852,-0.04186 -0.0434,-0.04341 -0.0434,-0.130224 z m 2.29133,1.308449 q 0,0.41548 -0.20929,0.64957 -0.20929,0.23254 -0.57826,0.23254 -0.22789,0 -0.40462,-0.10697 -0.17674,-0.10697 -0.27286,-0.30695 -0.0961,-0.19999 -0.0961,-0.46819 0,-0.41548 0.20773,-0.64647 0.20774,-0.232548 0.57671,-0.232548 0.35657,0 0.56586,0.237198 0.21084,0.23719 0.21084,0.64182 z m -1.29449,0 q 0,0.32556 0.13022,0.49609 0.13022,0.17053 0.38292,0.17053 0.2527,0 0.38293,-0.16898 0.13177,-0.17053 0.13177,-0.49764 0,-0.32401 -0.13177,-0.49144 -0.13023,-0.16899 -0.38603,-0.16899 -0.2527,0 -0.38137,0.16588 -0.12867,0.16589 -0.12867,0.49455 z m 2.90835,0.85111 v -1.09916 q 0,-0.20774 -0.0946,-0.31006 -0.0946,-0.10232 -0.29611,-0.10232 -0.26665,0 -0.39067,0.14418 -0.12403,0.14418 -0.12403,0.47594 v 0.89142 h -0.25734 v -1.69912 h 0.20928 l 0.0419,0.23254 h 0.0124 q 0.0791,-0.12557 0.22169,-0.19378 0.14262,-0.06977 0.31781,-0.06977 0.30696,0 0.46198,0.14883 0.15503,0.14728 0.15503,0.47284 v 1.10846 z"
         id="path6" />
    </g>
    <path
       style="font-size:3.175px;font-family:'open sans';-inkscape-font-specification:'open sans';text-align:center;text-anchor:middle;fill:#ffffff;stroke-width:0.264583"
       d="m 77.98056,121.46819 v 0.94258 h -0.263549 v -2.26653 h 0.621667 q 0.417029,0 0.615466,0.15968 0.199988,0.15968 0.199988,0.48059 0,0.44958 -0.455786,0.60771 l 0.615466,1.01855 H 79.002204 L 78.4534,121.46819 Z m 0,-0.22634 h 0.361219 q 0.279052,0 0.409277,-0.11008 0.130225,-0.11162 0.130225,-0.33331 0,-0.22479 -0.133326,-0.32401 -0.131774,-0.0992 -0.42478,-0.0992 H 77.98056 Z m 2.37815,1.19992 q -0.376721,0 -0.595313,-0.22944 -0.217041,-0.22944 -0.217041,-0.63717 0,-0.41083 0.201538,-0.65267 0.203089,-0.24185 0.544153,-0.24185 0.319361,0 0.505396,0.21084 0.186035,0.20929 0.186035,0.55345 v 0.16278 h -1.170471 q 0.0078,0.29921 0.150378,0.45424 0.144177,0.15503 0.404627,0.15503 0.274402,0 0.542602,-0.11472 v 0.22944 q -0.136426,0.0589 -0.258899,0.0837 -0.120923,0.0264 -0.293005,0.0264 z m -0.06976,-1.54564 q -0.204639,0 -0.327112,0.13333 -0.120923,0.13332 -0.142627,0.36897 h 0.888318 q 0,-0.2434 -0.108521,-0.37207 -0.10852,-0.13023 -0.310058,-0.13023 z m 1.775085,1.33015 q 0.257349,0 0.375171,-0.13797 0.117822,-0.13798 0.125574,-0.46509 v -0.0574 q 0,-0.35657 -0.120923,-0.51315 -0.120923,-0.15658 -0.382922,-0.15658 -0.226343,0 -0.347266,0.17673 -0.119373,0.17519 -0.119373,0.4961 0,0.32091 0.117823,0.48989 0.119372,0.16743 0.351916,0.16743 z m -0.03876,0.21549 q -0.328662,0 -0.513147,-0.23099 -0.184485,-0.23099 -0.184485,-0.64492 0,-0.41703 0.186035,-0.65113 0.186035,-0.23409 0.517798,-0.23409 0.348816,0 0.536401,0.26355 h 0.01395 l 0.03721,-0.23254 h 0.203088 v 2.46186 h -0.257348 v -0.72709 q 0,-0.15503 0.01705,-0.26355 h -0.02015 q -0.178283,0.2589 -0.536402,0.2589 z m 1.584399,-1.73012 v 1.10225 q 0,0.20774 0.09457,0.31006 0.09457,0.10232 0.296106,0.10232 0.26665,0 0.389124,-0.14573 0.124023,-0.14572 0.124023,-0.47594 v -0.89296 h 0.257349 v 1.69912 h -0.21239 l -0.03721,-0.2279 h -0.01395 q -0.07906,0.12558 -0.220142,0.19224 -0.139526,0.0667 -0.31936,0.0667 -0.310059,0 -0.465088,-0.14728 -0.153479,-0.14727 -0.153479,-0.47128 v -1.11156 z m 2.424658,1.73012 q -0.376721,0 -0.595312,-0.22944 -0.217041,-0.22944 -0.217041,-0.63717 0,-0.41083 0.201538,-0.65267 0.203088,-0.24185 0.544153,-0.24185 0.31936,0 0.505395,0.21084 0.186035,0.20929 0.186035,0.55345 v 0.16278 h -1.170471 q 0.0078,0.29921 0.150379,0.45424 0.144177,0.15503 0.404626,0.15503 0.274402,0 0.542603,-0.11472 v 0.22944 q -0.136426,0.0589 -0.258899,0.0837 -0.120923,0.0264 -0.293006,0.0264 z m -0.06976,-1.54564 q -0.204639,0 -0.327112,0.13333 -0.120923,0.13332 -0.142627,0.36897 h 0.888318 q 0,-0.2434 -0.10852,-0.37207 -0.108521,-0.13023 -0.310059,-0.13023 z m 2.229322,1.0511 q 0,0.23719 -0.176733,0.36587 -0.176734,0.12867 -0.496094,0.12867 -0.337964,0 -0.5271,-0.10697 v -0.23874 q 0.122473,0.062 0.262,0.0977 0.141076,0.0357 0.271301,0.0357 0.201538,0 0.310059,-0.0636 0.10852,-0.0651 0.10852,-0.19689 0,-0.0992 -0.08682,-0.16898 -0.08527,-0.0713 -0.334864,-0.16743 -0.237194,-0.0884 -0.337963,-0.15348 -0.09922,-0.0667 -0.148829,-0.15038 -0.04806,-0.0837 -0.04806,-0.19999 0,-0.20773 0.168982,-0.32711 0.168982,-0.12092 0.463538,-0.12092 0.274402,0 0.536401,0.11162 l -0.09147,0.20929 q -0.255798,-0.10542 -0.463538,-0.10542 -0.182934,0 -0.275952,0.0574 -0.09302,0.0574 -0.09302,0.15813 0,0.0682 0.03411,0.11627 0.03566,0.0481 0.113171,0.0915 0.07752,0.0434 0.297657,0.12557 0.302307,0.11007 0.407727,0.2217 0.10697,0.11162 0.10697,0.2806 z m 0.967383,0.28215 q 0.06821,0 0.131774,-0.009 0.06356,-0.0108 0.10077,-0.0217 v 0.19688 q -0.04186,0.0202 -0.124024,0.0326 -0.08062,0.014 -0.145727,0.014 -0.492994,0 -0.492994,-0.51935 v -1.01079 H 88.38768 V 120.788 l 0.243396,-0.10697 0.108521,-0.36277 h 0.148828 v 0.39378 h 0.492993 v 0.19998 h -0.492993 v 0.99994 q 0,0.15348 0.07286,0.23565 0.07286,0.0822 0.199988,0.0822 z m 1.668114,-0.28215 q 0,0.23719 -0.176733,0.36587 -0.176734,0.12867 -0.496094,0.12867 -0.337964,0 -0.5271,-0.10697 v -0.23874 q 0.122473,0.062 0.262,0.0977 0.141076,0.0357 0.271301,0.0357 0.201538,0 0.310059,-0.0636 0.10852,-0.0651 0.10852,-0.19689 0,-0.0992 -0.08682,-0.16898 -0.08527,-0.0713 -0.334864,-0.16743 -0.237194,-0.0884 -0.337963,-0.15348 -0.09922,-0.0667 -0.148829,-0.15038 -0.04806,-0.0837 -0.04806,-0.19999 0,-0.20773 0.168982,-0.32711 0.168982,-0.12092 0.463538,-0.12092 0.274402,0 0.536401,0.11162 l -0.09147,0.20929 q -0.255798,-0.10542 -0.463538,-0.10542 -0.182934,0 -0.275952,0.0574 -0.09302,0.0574 -0.09302,0.15813 0,0.0682 0.03411,0.11627 0.03566,0.0481 0.113172,0.0915 0.07751,0.0434 0.297656,0.12557 0.302307,0.11007 0.407727,0.2217 0.10697,0.11162 0.10697,0.2806 z m 1.154969,-0.86661 v -0.21239 h 1.441772 v 0.21239 z m 0,0.63407 v -0.2124 h 1.441772 v 0.2124 z m 2.985863,0.69608 h -0.257348 v -2.41226 h 0.257348 z m 0.803053,0 h -0.257348 v -1.69912 h 0.257348 z m -0.279052,-2.15956 q 0,-0.0884 0.04341,-0.12868 0.04341,-0.0418 0.10852,-0.0418 0.06201,0 0.10697,0.0418 0.04496,0.0419 0.04496,0.12868 0,0.0868 -0.04496,0.13022 -0.04496,0.0419 -0.10697,0.0419 -0.06511,0 -0.10852,-0.0419 -0.04341,-0.0434 -0.04341,-0.13022 z m 2.990514,2.15956 v -1.10536 q 0,-0.20309 -0.08682,-0.30386 -0.08682,-0.10232 -0.269751,-0.10232 -0.240295,0 -0.355017,0.13798 -0.114721,0.13797 -0.114721,0.42478 v 0.94878 H 97.40108 v -1.10536 q 0,-0.20309 -0.08682,-0.30386 -0.08682,-0.10232 -0.271302,-0.10232 -0.241845,0 -0.355017,0.14573 -0.111621,0.14418 -0.111621,0.47439 v 0.89142 h -0.257348 v -1.69912 h 0.209289 l 0.04186,0.23254 h 0.0124 q 0.07286,-0.12402 0.204639,-0.19379 0.133325,-0.0698 0.297656,-0.0698 0.398426,0 0.520899,0.28835 h 0.0124 q 0.07596,-0.13332 0.220142,-0.21084 0.144177,-0.0775 0.328662,-0.0775 0.288354,0 0.430981,0.14883 0.144178,0.14728 0.144178,0.47284 v 1.10846 z m 1.044897,0 h -0.257348 v -1.69912 h 0.257348 z m -0.279052,-2.15956 q 0,-0.0884 0.04341,-0.12868 0.04341,-0.0418 0.10852,-0.0418 0.06201,0 0.106971,0.0418 0.04496,0.0419 0.04496,0.12868 0,0.0868 -0.04496,0.13022 -0.04496,0.0419 -0.106971,0.0419 -0.06511,0 -0.10852,-0.0419 -0.04341,-0.0434 -0.04341,-0.13022 z m 1.373557,1.97817 q 0.0682,0 0.13177,-0.009 0.0636,-0.0108 0.10077,-0.0217 v 0.19688 q -0.0419,0.0202 -0.12402,0.0326 -0.0806,0.014 -0.14573,0.014 -0.49299,0 -0.49299,-0.51935 v -1.01079 H 99.850545 V 120.788 l 0.243395,-0.10697 0.10852,-0.36277 h 0.14883 v 0.39378 h 0.49299 v 0.19998 h -0.49299 v 0.99994 q 0,0.15348 0.0729,0.23565 0.0729,0.0822 0.19999,0.0822 z m 1.66811,-0.28215 q 0,0.23719 -0.17673,0.36587 -0.17673,0.12867 -0.49609,0.12867 -0.33797,0 -0.5271,-0.10697 v -0.23874 q 0.12247,0.062 0.262,0.0977 0.14107,0.0357 0.2713,0.0357 0.20154,0 0.31006,-0.0636 0.10852,-0.0651 0.10852,-0.19689 0,-0.0992 -0.0868,-0.16898 -0.0853,-0.0713 -0.33486,-0.16743 -0.2372,-0.0884 -0.33797,-0.15348 -0.0992,-0.0667 -0.14882,-0.15038 -0.0481,-0.0837 -0.0481,-0.19999 0,-0.20773 0.16898,-0.32711 0.16898,-0.12092 0.46354,-0.12092 0.2744,0 0.5364,0.11162 l -0.0915,0.20929 q -0.2558,-0.10542 -0.46354,-0.10542 -0.18293,0 -0.27595,0.0574 -0.093,0.0574 -0.093,0.15813 0,0.0682 0.0341,0.11627 0.0357,0.0481 0.11317,0.0915 0.0775,0.0434 0.29766,0.12557 0.3023,0.11007 0.40772,0.2217 0.10697,0.11162 0.10697,0.2806 z"
       id="text57"
       aria-label="Requests = limits" />
    <path
       style="font-size:3.175px;font-family:'open sans';-inkscape-font-specification:'open sans';text-align:center;text-anchor:middle;fill:#ffffff;stroke-width:0.264583"
       d="m 127.3594,121.35425 q 0,-0.41082 0.11937,-0.76894 0.12092,-0.35812 0.34726,-0.62787 h 0.25115 q -0.22324,0.29921 -0.33641,0.65732 -0.11162,0.35812 -0.11162,0.73639 0,0.37207 0.11472,0.72709 0.11472,0.35502 0.33021,0.64802 h -0.24805 q -0.22789,-0.26355 -0.34726,-0.61546 -0.11937,-0.35192 -0.11937,-0.75655 z m 1.32705,-0.8294 v 1.10226 q 0,0.20773 0.0946,0.31005 0.0946,0.10232 0.2961,0.10232 0.26665,0 0.38912,-0.14572 0.12403,-0.14573 0.12403,-0.47594 v -0.89297 h 0.25735 v 1.69912 h -0.21239 l -0.0372,-0.22789 h -0.0139 q -0.0791,0.12557 -0.22014,0.19223 -0.13953,0.0667 -0.31937,0.0667 -0.31005,0 -0.46508,-0.14727 -0.15348,-0.14728 -0.15348,-0.47129 v -1.11156 z m 2.86959,1.69912 v -1.09916 q 0,-0.20774 -0.0946,-0.31006 -0.0946,-0.10232 -0.2961,-0.10232 -0.26665,0 -0.39068,0.14418 -0.12402,0.14418 -0.12402,0.47594 v 0.89142 h -0.25735 v -1.69912 h 0.20929 l 0.0419,0.23254 h 0.0124 q 0.0791,-0.12557 0.22169,-0.19379 0.14263,-0.0698 0.31781,-0.0698 0.30696,0 0.46199,0.14883 0.15503,0.14728 0.15503,0.47284 v 1.10846 z m 1.02784,-1.69912 v 1.10226 q 0,0.20773 0.0946,0.31005 0.0946,0.10232 0.29611,0.10232 0.26665,0 0.38912,-0.14572 0.12402,-0.14573 0.12402,-0.47594 v -0.89297 h 0.25735 v 1.69912 h -0.21239 l -0.0372,-0.22789 h -0.014 q -0.0791,0.12557 -0.22014,0.19223 -0.13952,0.0667 -0.31936,0.0667 -0.31006,0 -0.46509,-0.14727 -0.15348,-0.14728 -0.15348,-0.47129 v -1.11156 z m 2.80293,1.23558 q 0,0.2372 -0.17673,0.36587 -0.17673,0.12867 -0.49609,0.12867 -0.33797,0 -0.5271,-0.10697 v -0.23874 q 0.12247,0.062 0.262,0.0977 0.14107,0.0357 0.2713,0.0357 0.20154,0 0.31006,-0.0636 0.10852,-0.0651 0.10852,-0.19688 0,-0.0992 -0.0868,-0.16899 -0.0853,-0.0713 -0.33486,-0.16743 -0.2372,-0.0884 -0.33797,-0.15348 -0.0992,-0.0667 -0.14883,-0.15038 -0.048,-0.0837 -0.048,-0.19998 0,-0.20774 0.16898,-0.32712 0.16898,-0.12092 0.46354,-0.12092 0.2744,0 0.5364,0.11162 l -0.0915,0.20929 q -0.2558,-0.10542 -0.46354,-0.10542 -0.18293,0 -0.27595,0.0574 -0.093,0.0574 -0.093,0.15813 0,0.0682 0.0341,0.11627 0.0357,0.0481 0.11317,0.0915 0.0775,0.0434 0.29766,0.12558 0.3023,0.11007 0.40772,0.22169 0.10697,0.11162 0.10697,0.2806 z m 1.46348,0.46354 -0.0512,-0.24185 h -0.0124 q -0.12713,0.15968 -0.25425,0.21704 -0.12557,0.0558 -0.31471,0.0558 -0.2527,0 -0.39687,-0.13022 -0.14263,-0.13022 -0.14263,-0.37052 0,-0.5147 0.8232,-0.5395 l 0.28836,-0.009 v -0.10542 q 0,-0.19999 -0.0868,-0.29456 -0.0853,-0.0961 -0.2744,-0.0961 -0.21239,0 -0.48059,0.13023 l -0.0791,-0.19689 q 0.12558,-0.0682 0.27441,-0.10697 0.15037,-0.0388 0.30075,-0.0388 0.30386,0 0.44959,0.13488 0.14728,0.13487 0.14728,0.43253 v 1.15962 z m -0.58136,-0.18139 q 0.2403,0 0.37672,-0.13177 0.13798,-0.13178 0.13798,-0.36897 v -0.15348 l -0.25735,0.0108 q -0.30696,0.0109 -0.44339,0.0961 -0.13487,0.0837 -0.13487,0.262 0,0.13953 0.0837,0.21239 0.0853,0.0729 0.2372,0.0729 z m 2.09289,-1.54564 q 0.33487,0 0.51935,0.22945 0.18604,0.22789 0.18604,0.64647 0,0.41858 -0.18759,0.65112 -0.18603,0.23099 -0.5178,0.23099 -0.16588,0 -0.30385,-0.0605 -0.13643,-0.062 -0.22945,-0.18913 h -0.0186 l -0.0543,0.21859 h -0.18448 v -2.41226 h 0.25734 v 0.58601 q 0,0.19689 -0.0124,0.35347 h 0.0124 q 0.17984,-0.25425 0.5333,-0.25425 z m -0.0372,0.21549 q -0.26355,0 -0.37982,0.15193 -0.11628,0.15038 -0.11628,0.5085 0,0.35812 0.11938,0.51314 0.11937,0.15348 0.38292,0.15348 0.23719,0 0.35347,-0.17208 0.11627,-0.17363 0.11627,-0.49764 0,-0.33177 -0.11627,-0.49455 -0.11628,-0.16278 -0.35967,-0.16278 z m 1.44952,1.51154 h -0.25735 v -2.41226 h 0.25735 z m 1.26349,0.031 q -0.37672,0 -0.59531,-0.22944 -0.21704,-0.22944 -0.21704,-0.63717 0,-0.41083 0.20154,-0.65267 0.20308,-0.24185 0.54415,-0.24185 0.31936,0 0.50539,0.21084 0.18604,0.20929 0.18604,0.55346 v 0.16278 h -1.17047 q 0.008,0.2992 0.15038,0.45423 0.14417,0.15503 0.40462,0.15503 0.2744,0 0.54261,-0.11472 v 0.22944 q -0.13643,0.0589 -0.2589,0.0837 -0.12093,0.0263 -0.29301,0.0263 z m -0.0698,-1.54564 q -0.20464,0 -0.32711,0.13333 -0.12093,0.13332 -0.14263,0.36897 h 0.88832 q 0,-0.2434 -0.10852,-0.37207 -0.10852,-0.13023 -0.31006,-0.13023 z m 1.67276,0.64492 q 0,0.40773 -0.12092,0.75965 -0.11937,0.35191 -0.34571,0.61236 h -0.24805 q 0.21549,-0.29145 0.33021,-0.64647 0.11472,-0.35657 0.11472,-0.72864 0,-0.37827 -0.11317,-0.73639 -0.11162,-0.35811 -0.33486,-0.65732 h 0.25115 q 0.22789,0.2713 0.34726,0.63097 0.11937,0.35812 0.11937,0.76584 z"
       id="text58"
       aria-label="(unusable)" />
    <path
       style="font-size:3.175px;font-family:'open sans';-inkscape-font-specification:'open sans';text-align:center;text-anchor:middle;fill:#ffffff;stroke:#ffffff;stroke-width:0"
       d="M 96.529967,53.99921 H 96.22921 l -1.238684,-1.902209 h -0.0124 q 0.0248,0.334863 0.0248,0.613916 V 53.99921 H 94.75953 v -2.266528 h 0.297657 l 1.235583,1.894458 h 0.0124 q -0.0031,-0.04186 -0.01395,-0.268201 -0.01085,-0.227893 -0.0078,-0.325561 v -1.300696 h 0.246497 z m 2.051037,-0.85111 q 0,0.415478 -0.209289,0.649572 -0.20929,0.232544 -0.578259,0.232544 -0.227894,0 -0.404627,-0.10697 -0.176733,-0.10697 -0.272852,-0.306958 -0.09612,-0.199988 -0.09612,-0.468188 0,-0.415479 0.20774,-0.646473 0.207739,-0.232544 0.576709,-0.232544 0.356567,0 0.565856,0.237195 0.21084,0.237195 0.21084,0.641822 z m -1.294494,0 q 0,0.325561 0.130224,0.496093 0.130225,0.170532 0.382923,0.170532 0.252697,0 0.382922,-0.168981 0.131775,-0.170533 0.131775,-0.497644 0,-0.324012 -0.131775,-0.491443 -0.130225,-0.168982 -0.386023,-0.168982 -0.252698,0 -0.381372,0.165881 -0.128674,0.165881 -0.128674,0.494544 z m 2.90215,0.623217 h -0.0139 q -0.178288,0.258899 -0.533305,0.258899 -0.333313,0 -0.519348,-0.227893 -0.184485,-0.227893 -0.184485,-0.648022 0,-0.42013 0.186035,-0.652674 0.186035,-0.232544 0.517798,-0.232544 0.345715,0 0.530195,0.251148 h 0.0202 l -0.0109,-0.122473 -0.006,-0.119373 v -0.69143 h 0.25734 V 53.99921 H 100.223 Z m -0.514699,0.04341 q 0.26355,0 0.381369,-0.142626 0.11938,-0.144178 0.11938,-0.463538 v -0.05426 q 0,-0.361219 -0.12093,-0.514698 -0.11937,-0.155029 -0.38292,-0.155029 -0.226342,0 -0.347265,0.176734 -0.119373,0.175183 -0.119373,0.496093 0,0.325562 0.119373,0.491443 0.119372,0.165881 0.350366,0.165881 z m 2.021579,0.215491 q -0.37672,0 -0.59531,-0.229443 -0.21704,-0.229443 -0.21704,-0.637171 0,-0.410827 0.20154,-0.652673 0.20309,-0.241846 0.54415,-0.241846 0.31936,0 0.5054,0.21084 0.18603,0.20929 0.18603,0.553455 v 0.162781 h -1.17047 q 0.008,0.299206 0.15038,0.454235 0.14418,0.15503 0.40462,0.15503 0.27441,0 0.54261,-0.114722 v 0.229443 q -0.13643,0.05891 -0.2589,0.08372 -0.12092,0.02636 -0.29301,0.02636 z m -0.0698,-1.545642 q -0.20464,0 -0.32711,0.133325 -0.12092,0.133326 -0.14263,0.36897 h 0.88832 q 0,-0.243396 -0.10852,-0.37207 -0.10852,-0.130225 -0.31006,-0.130225 z m 2.63705,1.545642 q -0.36897,0 -0.57206,-0.226343 -0.20154,-0.227893 -0.20154,-0.643371 0,-0.426331 0.20464,-0.658875 0.20619,-0.232544 0.58601,-0.232544 0.12247,0 0.24495,0.02635 0.12247,0.02636 0.19223,0.06201 l -0.0791,0.218591 q -0.0853,-0.03411 -0.18604,-0.05581 -0.10077,-0.02326 -0.17828,-0.02326 -0.5178,0 -0.5178,0.660425 0,0.313159 0.12558,0.480591 0.12712,0.167432 0.37517,0.167432 0.21239,0 0.43563,-0.09147 v 0.227894 q -0.17053,0.08837 -0.42943,0.08837 z m 1.8774,-0.03101 -0.0512,-0.241845 h -0.0124 q -0.12712,0.15968 -0.25425,0.217041 -0.12557,0.05581 -0.31471,0.05581 -0.25269,0 -0.39687,-0.130224 -0.14263,-0.130225 -0.14263,-0.37052 0,-0.514698 0.82321,-0.539502 l 0.28835,-0.0093 v -0.10542 q 0,-0.199988 -0.0868,-0.294556 -0.0853,-0.09612 -0.2744,-0.09612 -0.21239,0 -0.48059,0.130225 l -0.0791,-0.196887 q 0.12557,-0.06821 0.2744,-0.106971 0.15038,-0.03876 0.30076,-0.03876 0.30385,0 0.44958,0.134876 0.14728,0.134875 0.14728,0.432531 v 1.159619 z m -0.58136,-0.181384 q 0.2403,0 0.37672,-0.131775 0.13798,-0.131775 0.13798,-0.36897 V 53.1636 l -0.25735,0.01085 q -0.30696,0.01085 -0.44338,0.09612 -0.13488,0.08371 -0.13488,0.261999 0,0.139527 0.0837,0.21239 0.0853,0.07286 0.23719,0.07286 z m 2.0929,0.21239 q -0.16588,0 -0.30386,-0.06046 -0.13643,-0.06201 -0.22944,-0.189136 h -0.0186 q 0.0186,0.148828 0.0186,0.282153 v 0.699182 h -0.25735 v -2.461865 h 0.20929 l 0.0357,0.232544 h 0.0124 q 0.0992,-0.139526 0.23099,-0.201538 0.13178,-0.06201 0.30231,-0.06201 0.33796,0 0.5209,0.230994 0.18448,0.230994 0.18448,0.648023 0,0.418579 -0.18758,0.651123 -0.18604,0.230993 -0.5178,0.230993 z m -0.0372,-1.542541 q -0.26045,0 -0.37672,0.144177 -0.11627,0.144177 -0.11937,0.458887 v 0.05736 q 0,0.358117 0.11937,0.513146 0.11937,0.153479 0.38292,0.153479 0.22014,0 0.34417,-0.178283 0.12557,-0.178284 0.12557,-0.491443 0,-0.31781 -0.12557,-0.486792 -0.12403,-0.170532 -0.35037,-0.170532 z m 2.23707,1.511535 -0.0512,-0.241845 h -0.0124 q -0.12712,0.15968 -0.25425,0.217041 -0.12557,0.05581 -0.31471,0.05581 -0.25269,0 -0.39687,-0.130224 -0.14263,-0.130225 -0.14263,-0.37052 0,-0.514698 0.82321,-0.539502 l 0.28835,-0.0093 v -0.10542 q 0,-0.199988 -0.0868,-0.294556 -0.0853,-0.09612 -0.27441,-0.09612 -0.21239,0 -0.48059,0.130225 l -0.0791,-0.196887 q 0.12557,-0.06821 0.2744,-0.106971 0.15038,-0.03876 0.30076,-0.03876 0.30385,0 0.44958,0.134876 0.14728,0.134875 0.14728,0.432531 v 1.159619 z m -0.58136,-0.181384 q 0.2403,0 0.37673,-0.131775 0.13797,-0.131775 0.13797,-0.36897 V 53.1636 l -0.25735,0.01085 q -0.30696,0.01085 -0.44338,0.09612 -0.13488,0.08371 -0.13488,0.261999 0,0.139527 0.0837,0.21239 0.0853,0.07286 0.23719,0.07286 z m 1.98128,0.21239 q -0.36897,0 -0.57206,-0.226343 -0.20154,-0.227893 -0.20154,-0.643371 0,-0.426331 0.20464,-0.658875 0.20619,-0.232544 0.58601,-0.232544 0.12248,0 0.24495,0.02635 0.12247,0.02636 0.19223,0.06201 l -0.0791,0.218591 q -0.0853,-0.03411 -0.18604,-0.05581 -0.10076,-0.02326 -0.17828,-0.02326 -0.5178,0 -0.5178,0.660425 0,0.313159 0.12558,0.480591 0.12712,0.167432 0.37517,0.167432 0.21239,0 0.43563,-0.09147 v 0.227894 q -0.17053,0.08837 -0.42943,0.08837 z m 1.08985,-0.03101 h -0.25734 v -1.699121 h 0.25734 z m -0.27905,-2.159558 q 0,-0.08837 0.0434,-0.128674 0.0434,-0.04186 0.10852,-0.04186 0.062,0 0.10697,0.04186 0.045,0.04186 0.045,0.128674 0,0.08682 -0.045,0.130225 -0.045,0.04186 -0.10697,0.04186 -0.0651,0 -0.10852,-0.04186 -0.0434,-0.04341 -0.0434,-0.130225 z m 1.37356,1.978174 q 0.0682,0 0.13178,-0.0093 0.0636,-0.01085 0.10076,-0.0217 v 0.196887 q -0.0419,0.02015 -0.12402,0.03256 -0.0806,0.01395 -0.14573,0.01395 -0.49299,0 -0.49299,-0.519348 v -1.010791 h -0.2434 v -0.124023 l 0.2434,-0.106971 0.10852,-0.362768 h 0.14883 v 0.393774 h 0.49299 v 0.199988 h -0.49299 v 0.999939 q 0,0.153479 0.0729,0.235645 0.0729,0.08216 0.19999,0.08216 z m 0.30231,-1.517737 h 0.27595 l 0.37207,0.968933 q 0.12247,0.331763 0.15193,0.479041 h 0.0124 q 0.0202,-0.07906 0.0837,-0.269751 0.0651,-0.192236 0.42168,-1.178223 h 0.27595 l -0.73019,1.934766 q -0.10852,0.286804 -0.25425,0.406177 -0.14417,0.120922 -0.35501,0.120922 -0.11782,0 -0.23255,-0.02635 v -0.206189 q 0.0853,0.0186 0.19069,0.0186 0.2651,0 0.37827,-0.297656 l 0.0946,-0.241846 z"
       id="text59"
       aria-label="Node capacity" />
    <path
       style="font-weight:bold;font-size:3.175px;font-family:'open sans';-inkscape-font-specification:'open sans Bold';text-align:center;text-anchor:middle;stroke-width:0"
       d="m 87.431665,37.839732 h 0.15503 q 0.227893,0 0.336413,-0.07596 0.108521,-0.07596 0.108521,-0.238745 0,-0.161231 -0.111621,-0.229443 -0.110071,-0.06821 -0.342615,-0.06821 h -0.145728 z m 0,0.390674 v 0.869715 h -0.480591 v -2.266529 h 0.660425 q 0.461988,0 0.683679,0.168982 0.221692,0.167432 0.221692,0.510047 0,0.199987 -0.11007,0.356567 -0.110071,0.155029 -0.311609,0.243396 0.511596,0.764294 0.666626,0.987537 h -0.533301 l -0.541052,-0.869715 z m 2.295984,-0.559656 q -0.150378,0 -0.235644,0.09612 -0.08527,0.09457 -0.09767,0.269751 h 0.663526 q -0.0031,-0.175184 -0.09147,-0.269751 -0.08837,-0.09612 -0.238745,-0.09612 z m 0.06666,1.460376 q -0.418579,0 -0.654224,-0.230993 -0.235644,-0.230994 -0.235644,-0.654224 0,-0.435632 0.217041,-0.672827 0.218591,-0.238745 0.603064,-0.238745 0.367419,0 0.572058,0.209289 0.204638,0.20929 0.204638,0.57826 v 0.229443 h -1.117761 q 0.0078,0.201538 0.119373,0.31471 0.111621,0.113171 0.313159,0.113171 0.15658,0 0.296106,-0.03256 0.139526,-0.03256 0.291455,-0.10387 v 0.365869 q -0.124023,0.06201 -0.2651,0.09147 -0.141077,0.03101 -0.344165,0.03101 z m 1.809192,-0.37052 q 0.179834,0 0.26355,-0.102319 0.08371,-0.10387 0.09147,-0.361218 v -0.05736 q 0,-0.279053 -0.08682,-0.399976 -0.08527,-0.120922 -0.275952,-0.120922 -0.333313,0 -0.333313,0.523999 0,0.260449 0.08217,0.389123 0.08372,0.128674 0.258899,0.128674 z m -0.168982,0.37052 q -0.306958,0 -0.480591,-0.235644 -0.173633,-0.237195 -0.173633,-0.658875 0,-0.42478 0.176734,-0.663525 0.178283,-0.238745 0.486792,-0.238745 0.164331,0 0.286804,0.06201 0.122473,0.06201 0.21549,0.192236 h 0.0124 l 0.04186,-0.221692 h 0.399975 v 2.495972 h -0.474389 v -0.727088 q 0,-0.09457 0.02015,-0.260449 h -0.02015 q -0.07597,0.125574 -0.201538,0.190686 -0.125574,0.06511 -0.289905,0.06511 z m 2.688208,-0.03101 -0.06356,-0.221692 h -0.02481 q -0.07596,0.120923 -0.21549,0.187585 -0.139527,0.06511 -0.317811,0.06511 -0.305407,0 -0.460437,-0.16278 Q 92.88559,38.804008 92.88559,38.49705 v -1.130164 h 0.472839 v 1.012341 q 0,0.187586 0.06666,0.282154 0.06666,0.09302 0.21239,0.09302 0.198438,0 0.286804,-0.131775 0.08837,-0.133325 0.08837,-0.440283 v -0.815454 h 0.472839 v 1.733228 z m 1.576647,-1.429371 q -0.150378,0 -0.235644,0.09612 -0.08527,0.09457 -0.09767,0.269751 h 0.663526 q -0.0031,-0.175184 -0.09147,-0.269751 -0.08837,-0.09612 -0.238745,-0.09612 z m 0.06666,1.460376 q -0.418579,0 -0.654224,-0.230993 -0.235644,-0.230994 -0.235644,-0.654224 0,-0.435632 0.217041,-0.672827 0.218591,-0.238745 0.603064,-0.238745 0.367419,0 0.572058,0.209289 0.204638,0.20929 0.204638,0.57826 v 0.229443 h -1.117761 q 0.0078,0.201538 0.119373,0.31471 0.111621,0.113171 0.313159,0.113171 0.15658,0 0.296106,-0.03256 0.139526,-0.03256 0.291455,-0.10387 v 0.365869 q -0.124023,0.06201 -0.2651,0.09147 -0.141077,0.03101 -0.344165,0.03101 z m 2.300635,-0.545703 q 0,0.266651 -0.186035,0.406177 -0.184485,0.139526 -0.553455,0.139526 -0.189136,0 -0.322461,-0.02636 -0.133325,-0.0248 -0.249597,-0.07441 v -0.390673 q 0.131775,0.06201 0.296106,0.103869 0.165881,0.04186 0.291455,0.04186 0.257348,0 0.257348,-0.148828 0,-0.05581 -0.03411,-0.08992 -0.03411,-0.03566 -0.117822,-0.07906 -0.08372,-0.04496 -0.223242,-0.10387 -0.199988,-0.08371 -0.294556,-0.155029 -0.09302,-0.07131 -0.136426,-0.162781 -0.04186,-0.09302 -0.04186,-0.227893 0,-0.230993 0.178284,-0.356567 0.179834,-0.127124 0.508496,-0.127124 0.313159,0 0.609265,0.136426 l -0.142627,0.341064 q -0.130224,-0.05581 -0.243396,-0.09147 -0.113171,-0.03566 -0.230993,-0.03566 -0.20929,0 -0.20929,0.113171 0,0.06356 0.06666,0.110071 0.06821,0.04651 0.296106,0.137976 0.203088,0.08217 0.297656,0.153479 0.09457,0.07131 0.139526,0.164331 0.04496,0.09302 0.04496,0.221692 z m 1.099158,0.168982 q 0.124023,0 0.297656,-0.05426 v 0.351916 q -0.176734,0.07906 -0.434082,0.07906 -0.283704,0 -0.413928,-0.142627 -0.128675,-0.144177 -0.128675,-0.430981 V 37.72191 h -0.226343 v -0.199988 l 0.26045,-0.15813 0.136425,-0.365869 h 0.302308 v 0.36897 h 0.485241 v 0.355017 h -0.485241 v 0.835608 q 0,0.100769 0.05581,0.148828 0.05736,0.04806 0.150379,0.04806 z m 1.857243,-0.168982 q 0,0.266651 -0.18603,0.406177 -0.18449,0.139526 -0.55346,0.139526 -0.18913,0 -0.322454,-0.02636 -0.133325,-0.0248 -0.249597,-0.07441 v -0.390673 q 0.131775,0.06201 0.296101,0.103869 0.16588,0.04186 0.29146,0.04186 0.25734,0 0.25734,-0.148828 0,-0.05581 -0.0341,-0.08992 -0.0341,-0.03566 -0.11782,-0.07906 -0.0837,-0.04496 -0.22325,-0.10387 -0.19998,-0.08371 -0.294548,-0.155029 -0.09302,-0.07131 -0.136425,-0.162781 -0.04186,-0.09302 -0.04186,-0.227893 0,-0.230993 0.178283,-0.356567 0.17983,-0.127124 0.50849,-0.127124 0.31316,0 0.60927,0.136426 l -0.14263,0.341064 q -0.13022,-0.05581 -0.24339,-0.09147 -0.11317,-0.03566 -0.231,-0.03566 -0.20929,0 -0.20929,0.113171 0,0.06356 0.0667,0.110071 0.0682,0.04651 0.2961,0.137976 0.20309,0.08217 0.29766,0.153479 0.0946,0.07131 0.13952,0.164331 0.045,0.09302 0.045,0.221692 z m 1.41697,-1.751831 -0.84491,2.266529 h -0.42943 l 0.84491,-2.266529 z m 0.73639,2.266529 h -0.47284 V 36.68786 h 0.47284 z m 0.47594,-2.181263 q 0,-0.230993 0.25735,-0.230993 0.25735,0 0.25735,0.230993 0,0.110071 -0.0651,0.172083 -0.0636,0.06046 -0.19224,0.06046 -0.25735,0 -0.25735,-0.232544 z m 0.49299,2.181263 h -0.47284 v -1.733228 h 0.47284 z m 2.04794,0 h -0.47284 v -1.012342 q 0,-0.187585 -0.0636,-0.280603 -0.062,-0.09457 -0.19689,-0.09457 -0.18138,0 -0.26355,0.133326 -0.0822,0.133325 -0.0822,0.438732 v 0.815455 h -0.47284 v -1.733228 h 0.36122 l 0.0636,0.221692 h 0.0264 q 0.0698,-0.119373 0.20154,-0.186035 0.13178,-0.06821 0.30231,-0.06821 0.38912,0 0.5271,0.254248 h 0.0419 q 0.0698,-0.120923 0.20463,-0.187586 0.13643,-0.06666 0.30696,-0.06666 0.29456,0 0.44494,0.151929 0.15192,0.150378 0.15192,0.483691 v 1.130164 h -0.47438 v -1.012342 q 0,-0.187585 -0.0636,-0.280603 -0.062,-0.09457 -0.19688,-0.09457 -0.17364,0 -0.26045,0.124024 -0.0853,0.124023 -0.0853,0.393774 z m 1.54564,-2.181263 q 0,-0.230993 0.25735,-0.230993 0.25735,0 0.25735,0.230993 0,0.110071 -0.0651,0.172083 -0.0636,0.06046 -0.19224,0.06046 -0.25735,0 -0.25735,-0.232544 z m 0.493,2.181263 h -0.47284 v -1.733228 h 0.47284 z m 1.22628,-0.345716 q 0.12402,0 0.29765,-0.05426 v 0.351916 q -0.17673,0.07906 -0.43408,0.07906 -0.2837,0 -0.41393,-0.142627 -0.12867,-0.144177 -0.12867,-0.430981 V 37.72191 h -0.22634 v -0.199988 l 0.26045,-0.15813 0.13642,-0.365869 h 0.30231 v 0.36897 h 0.48524 v 0.355017 h -0.48524 v 0.835608 q 0,0.100769 0.0558,0.148828 0.0574,0.04806 0.15038,0.04806 z m 1.85725,-0.168982 q 0,0.266651 -0.18604,0.406177 -0.18448,0.139526 -0.55345,0.139526 -0.18914,0 -0.32246,-0.02636 -0.13333,-0.0248 -0.2496,-0.07441 v -0.390673 q 0.13178,0.06201 0.29611,0.103869 0.16588,0.04186 0.29145,0.04186 0.25735,0 0.25735,-0.148828 0,-0.05581 -0.0341,-0.08992 -0.0341,-0.03566 -0.11782,-0.07906 -0.0837,-0.04496 -0.22324,-0.10387 -0.19999,-0.08371 -0.29456,-0.155029 -0.093,-0.07131 -0.13642,-0.162781 -0.0419,-0.09302 -0.0419,-0.227893 0,-0.230993 0.17828,-0.356567 0.17984,-0.127124 0.5085,-0.127124 0.31316,0 0.60927,0.136426 l -0.14263,0.341064 q -0.13023,-0.05581 -0.2434,-0.09147 -0.11317,-0.03566 -0.23099,-0.03566 -0.20929,0 -0.20929,0.113171 0,0.06356 0.0667,0.110071 0.0682,0.04651 0.29611,0.137976 0.20309,0.08217 0.29765,0.153479 0.0946,0.07131 0.13953,0.164331 0.045,0.09302 0.045,0.221692 z m 1.89756,0.545703 q -0.80926,0 -0.80926,-0.888317 0,-0.441834 0.22015,-0.674378 0.22014,-0.234094 0.63097,-0.234094 0.30075,0 0.5395,0.117822 l -0.13953,0.365869 q -0.11162,-0.04496 -0.20774,-0.07286 -0.0961,-0.02946 -0.19223,-0.02946 -0.36897,0 -0.36897,0.523999 0,0.508496 0.36897,0.508496 0.13642,0 0.25269,-0.03566 0.11627,-0.03721 0.23255,-0.114721 v 0.404626 q -0.11472,0.07286 -0.23255,0.100769 -0.11627,0.02791 -0.29455,0.02791 z m 2.02933,-0.03101 -0.0915,-0.235645 h -0.0124 q -0.11937,0.150378 -0.2465,0.20929 -0.12557,0.05736 -0.32866,0.05736 -0.2496,0 -0.39377,-0.142627 -0.14263,-0.142626 -0.14263,-0.406176 0,-0.275952 0.19224,-0.406177 0.19378,-0.131775 0.58291,-0.145728 l 0.30075,-0.0093 v -0.07596 q 0,-0.26355 -0.26975,-0.26355 -0.20774,0 -0.48834,0.125574 l -0.15658,-0.31936 q 0.29921,-0.15658 0.66353,-0.15658 0.34881,0 0.53485,0.151929 0.18603,0.151929 0.18603,0.461987 v 1.154969 z m -0.13953,-0.803052 -0.18293,0.0062 q -0.20619,0.0062 -0.30696,0.07441 -0.10077,0.06821 -0.10077,0.207739 0,0.199988 0.22945,0.199988 0.16433,0 0.26199,-0.09457 0.0992,-0.09457 0.0992,-0.251147 z m 2.16576,0.288354 q 0,0.266651 -0.18603,0.406177 -0.18449,0.139526 -0.55346,0.139526 -0.18913,0 -0.32246,-0.02636 -0.13332,-0.0248 -0.24959,-0.07441 v -0.390673 q 0.13177,0.06201 0.2961,0.103869 0.16588,0.04186 0.29146,0.04186 0.25735,0 0.25735,-0.148828 0,-0.05581 -0.0341,-0.08992 -0.0341,-0.03566 -0.11782,-0.07906 -0.0837,-0.04496 -0.22325,-0.10387 -0.19998,-0.08371 -0.29455,-0.155029 -0.093,-0.07131 -0.13643,-0.162781 -0.0419,-0.09302 -0.0419,-0.227893 0,-0.230993 0.17828,-0.356567 0.17983,-0.127124 0.5085,-0.127124 0.31315,0 0.60926,0.136426 l -0.14263,0.341064 q -0.13022,-0.05581 -0.24339,-0.09147 -0.11317,-0.03566 -0.231,-0.03566 -0.20929,0 -0.20929,0.113171 0,0.06356 0.0667,0.110071 0.0682,0.04651 0.2961,0.137976 0.20309,0.08217 0.29766,0.153479 0.0946,0.07131 0.13953,0.164331 0.045,0.09302 0.045,0.221692 z m 1.08676,-0.914673 q -0.15038,0 -0.23565,0.09612 -0.0853,0.09457 -0.0977,0.269751 h 0.66352 q -0.003,-0.175184 -0.0915,-0.269751 -0.0884,-0.09612 -0.23874,-0.09612 z m 0.0667,1.460376 q -0.41858,0 -0.65422,-0.230993 -0.23565,-0.230994 -0.23565,-0.654224 0,-0.435632 0.21704,-0.672827 0.2186,-0.238745 0.60307,-0.238745 0.36742,0 0.57206,0.209289 0.20463,0.20929 0.20463,0.57826 v 0.229443 h -1.11776 q 0.008,0.201538 0.11938,0.31471 0.11162,0.113171 0.31316,0.113171 0.15657,0 0.2961,-0.03256 0.13953,-0.03256 0.29146,-0.10387 v 0.365869 q -0.12403,0.06201 -0.2651,0.09147 -0.14108,0.03101 -0.34417,0.03101 z m 2.30064,-0.545703 q 0,0.266651 -0.18604,0.406177 -0.18448,0.139526 -0.55345,0.139526 -0.18914,0 -0.32246,-0.02636 -0.13333,-0.0248 -0.2496,-0.07441 v -0.390673 q 0.13177,0.06201 0.2961,0.103869 0.16589,0.04186 0.29146,0.04186 0.25735,0 0.25735,-0.148828 0,-0.05581 -0.0341,-0.08992 -0.0341,-0.03566 -0.11782,-0.07906 -0.0837,-0.04496 -0.22324,-0.10387 -0.19999,-0.08371 -0.29456,-0.155029 -0.093,-0.07131 -0.13642,-0.162781 -0.0419,-0.09302 -0.0419,-0.227893 0,-0.230993 0.17828,-0.356567 0.17983,-0.127124 0.5085,-0.127124 0.31316,0 0.60926,0.136426 l -0.14262,0.341064 q -0.13023,-0.05581 -0.2434,-0.09147 -0.11317,-0.03566 -0.23099,-0.03566 -0.20929,0 -0.20929,0.113171 0,0.06356 0.0667,0.110071 0.0682,0.04651 0.2961,0.137976 0.20309,0.08217 0.29766,0.153479 0.0946,0.07131 0.13953,0.164331 0.045,0.09302 0.045,0.221692 z"
       id="text60"
       inkscape:label="text60"
       aria-label="Requests/limits cases"
       inkscape:export-filename="requests-limits-configurations.svg"
       inkscape:export-xdpi="96"
       inkscape:export-ydpi="96" />
  </g>
</svg>
