<svg id="Layer_1" data-name="Layer 1" xmlns="http://www.w3.org/2000/svg" viewBox="0 0 215 127"><defs><style>.cls-1{fill:#fbfbfb;}.cls-2{fill:#0075c9;}</style></defs><title>kubernetes.io-logos</title><rect class="cls-1" x="-4.03751" y="-4.582" width="223.25536" height="134.51136"/><path class="cls-2" d="M60.85857,43.59905a2.41437,2.41437,0,0,0-2.38123-2.38123H19.43513a2.41437,2.41437,0,0,0-2.38123,2.38123V81.74831a2.41436,2.41436,0,0,0,2.38123,2.38122H58.47734a2.41436,2.41436,0,0,0,2.38123-2.38122ZM37.98886,70.884a11.98933,11.98933,0,0,0,3.72067-.74414.33416.33416,0,0,1,.39687.14882,14.28731,14.28731,0,0,0,2.87732,3.86949c.14883.24805-.14883.39687-.14883.39687a14.109,14.109,0,0,1-6.846,1.63709A13.89042,13.89042,0,0,1,23.7511,62.59926,13.42058,13.42058,0,0,1,37.74081,48.9072,15.13234,15.13234,0,0,1,45.82707,51.338c.5457.34726.5457.49609.39687.69452a29.88443,29.88443,0,0,0-2.282,3.72067.30167.30167,0,0,1-.49609.09922,10.304,10.304,0,0,0-6.00268-1.6867,7.97435,7.97435,0,0,0-7.987,8.3343A8.46744,8.46744,0,0,0,37.98886,70.884Zm12.15418.39686a3.86949,3.86949,0,1,1,3.8695-3.86949A3.87447,3.87447,0,0,1,50.143,71.28082Z"/><path class="cls-2" d="M68.64717,62.54966c0-5.95307,4.51441-10.021,10.269-10.021a8.91,8.91,0,0,1,8.08626,4.71285l-3.52224,1.73631a5.26387,5.26387,0,0,0-4.564-2.82771,5.99857,5.99857,0,0,0-6.05228,6.34994A5.99858,5.99858,0,0,0,78.91621,68.85a5.29072,5.29072,0,0,0,4.564-2.82772l3.52224,1.6867a8.9438,8.9438,0,0,1-8.08626,4.76246c-5.80424.04962-10.269-3.96871-10.269-9.92177"/><path class="cls-2" d="M88.73878,62.54966a10.09619,10.09619,0,1,1,10.07061,9.97139,9.73545,9.73545,0,0,1-10.07061-9.97139m15.97407,0c0-3.62145-2.33162-6.34994-5.90346-6.34994s-5.85385,2.72849-5.85385,6.34994c0,3.57184,2.282,6.34994,5.85385,6.34994s5.90346-2.7781,5.90346-6.34994"/><polygon class="cls-2" points="125.747 72.174 116.52 59.573 116.52 72.174 112.402 72.174 112.402 52.876 116.669 52.876 125.598 64.98 125.598 52.876 129.716 52.876 129.716 72.174 125.747 72.174"/><path class="cls-2" d="M133.18837,62.54966c0-5.95307,4.4648-10.021,10.26905-10.021a8.85137,8.85137,0,0,1,8.08625,4.71285l-3.52224,1.73631a5.26385,5.26385,0,0,0-4.564-2.82771,6.02732,6.02732,0,0,0-6.0523,6.34994,5.99858,5.99858,0,0,0,6.0523,6.34994,5.29073,5.29073,0,0,0,4.564-2.82772l3.52224,1.6867a8.94378,8.94378,0,0,1-8.08625,4.76246c-5.80425.04962-10.26905-3.96871-10.26905-9.92177"/><path class="cls-2" d="M154.22255,64.4844V52.87592h4.16714V64.33558a4.197,4.197,0,0,0,4.564,4.564c2.97654,0,4.51441-1.83554,4.51441-4.564V52.87592h4.21676V64.4844c0,4.81207-2.82771,8.08626-8.73117,8.08626s-8.73117-3.32381-8.73117-8.08626"/><path class="cls-2" d="M186.66678,72.17379l-3.8199-6.846h-3.02614v6.846H175.7032V52.82632H184.732c4.01833,0,6.49877,2.62927,6.49877,6.25072a5.55983,5.55983,0,0,1-4.21676,5.75464l4.36558,7.34211Zm.39688-13.09676a2.62258,2.62258,0,0,0-2.87731-2.62927h-4.316V61.6567h4.316a2.55935,2.55935,0,0,0,2.87731-2.57967"/><path class="cls-2" d="M198.12644,70.13982a2.45577,2.45577,0,0,1-4.91128,0,2.405,2.405,0,0,1,2.48044-2.38122A2.36249,2.36249,0,0,1,198.12644,70.13982Zm-4.316,0a1.86535,1.86535,0,0,0,1.88513,1.93475,1.9101,1.9101,0,1,0-1.88513-1.93475Zm1.48826,1.24023h-.5457V68.99882a4.18583,4.18583,0,0,1,.94257-.09922,1.60369,1.60369,0,0,1,.84336.19843.64015.64015,0,0,1,.248.5457.62217.62217,0,0,1-.49609.54571v.04961c.24805.09922.34727.248.44648.59531s.09922.49609.19843.59531h-.59531c-.09922-.09922-.09922-.29765-.19843-.59531a.45069.45069,0,0,0-.49609-.39686h-.24805l-.09921.94255Zm0-1.33945h.24805c.29766,0,.5457-.09922.5457-.34727,0-.19843-.14882-.34727-.49609-.34727-.14882,0-.248,0-.29766.04961v.64493Z"/></svg>