<?xml version="1.0" standalone="no"?>
<!DOCTYPE svg PUBLIC "-//W3C//DTD SVG 20010904//EN"
 "http://www.w3.org/TR/2001/REC-SVG-20010904/DTD/svg10.dtd">
<svg version="1.0" xmlns="http://www.w3.org/2000/svg"
 width="5259.000000pt" height="2210.000000pt" viewBox="0 0 5259.000000 2210.000000"
 preserveAspectRatio="xMidYMid meet">

<g transform="translate(0.000000,2210.000000) scale(0.100000,-0.100000)"
fill="#000000" stroke="none">
<path d="M7270 16553 c-459 -33 -872 -144 -1264 -340 -571 -286 -1050 -747
-1358 -1308 -92 -167 -127 -252 -134 -319 -3 -34 -7 -77 -9 -96 -8 -66 -13
-235 -7 -244 3 -5 7 -102 8 -215 4 -256 14 -426 33 -581 6 -47 13 -132 16
-190 4 -94 10 -144 21 -205 2 -11 7 -40 10 -65 3 -25 8 -48 11 -52 2 -5 -1 -8
-6 -8 -6 0 -12 8 -13 18 -1 20 -2 24 -13 82 -5 25 -10 54 -12 65 -1 11 -7 88
-12 170 -5 83 -14 188 -21 235 -6 48 -10 90 -9 95 6 21 -13 165 -21 165 -5 0
-7 -10 -4 -22 2 -13 6 -62 9 -110 3 -49 10 -121 16 -160 5 -40 12 -122 15
-183 3 -91 13 -202 19 -225 1 -6 15 -84 21 -121 2 -15 6 -47 9 -70 5 -41 15
-104 31 -191 4 -21 10 -38 14 -38 4 0 15 -38 25 -85 11 -47 23 -85 27 -85 4 0
8 -8 8 -17 0 -13 3 -14 12 -5 9 9 5 27 -15 79 -15 38 -27 76 -27 85 0 9 -4 19
-9 22 -16 10 -64 286 -50 286 5 0 10 -6 10 -12 6 -61 21 -157 30 -193 16 -62
78 -185 92 -179 8 3 24 -21 40 -58 31 -69 109 -146 115 -114 4 21 15 20 29 -3
13 -21 73 -34 73 -16 0 7 16 11 40 11 22 -1 40 2 40 5 0 10 33 8 77 -3 52 -13
74 3 66 46 l-6 28 43 -22 c40 -20 45 -21 55 -6 10 13 18 14 44 5 35 -13 34
-10 21 -43 -8 -21 -6 -27 10 -36 16 -9 25 -6 42 10 16 15 19 23 11 31 -24 24
-2 39 57 39 32 0 60 5 62 10 2 6 37 14 77 17 54 4 79 11 93 25 11 11 26 17 34
14 17 -7 131 38 154 61 26 24 123 78 170 93 45 14 156 81 195 116 60 55 165
122 165 107 0 -4 6 -1 13 7 15 20 133 110 143 110 9 0 90 59 118 86 35 34 140
101 152 97 7 -2 25 8 40 23 30 27 79 56 103 60 8 2 17 7 20 12 16 25 157 39
271 26 19 -2 42 -4 50 -4 8 0 26 0 40 0 14 0 52 -8 85 -17 33 -9 72 -16 87
-16 15 0 25 -4 21 -10 -3 -5 3 -7 14 -3 18 6 66 -21 85 -48 3 -5 30 -10 60
-11 56 -1 128 -21 128 -35 0 -7 47 -23 52 -18 2 2 23 -9 48 -23 28 -17 57 -25
78 -24 17 2 32 -2 32 -8 0 -6 3 -7 7 -4 4 4 23 -10 43 -32 20 -21 52 -46 71
-56 18 -10 76 -60 128 -112 51 -52 95 -92 97 -90 8 8 121 -107 147 -150 15
-23 34 -44 44 -48 10 -3 31 -32 47 -65 17 -33 39 -70 50 -83 33 -36 49 -69 38
-76 -11 -7 96 -233 120 -251 3 -3 6 -16 5 -30 0 -14 15 -90 35 -170 20 -80 39
-163 43 -185 4 -22 11 -45 17 -52 5 -7 7 -16 4 -21 -3 -5 10 -52 29 -106 18
-53 41 -129 49 -169 18 -77 19 -82 59 -170 15 -31 27 -64 27 -73 0 -8 9 -32
20 -54 11 -22 17 -46 13 -56 -4 -11 -3 -15 5 -10 6 3 13 -3 17 -16 22 -73 95
-228 108 -228 4 0 6 -4 2 -10 -3 -5 -3 -21 1 -35 5 -20 9 -23 15 -13 6 9 9 3
9 -17 0 -32 19 -74 20 -45 1 8 9 0 18 -17 58 -110 73 -144 66 -154 -4 -7 -3
-9 3 -6 12 8 26 -20 18 -33 -3 -5 3 -14 14 -20 13 -7 18 -16 14 -27 -4 -11 -3
-14 5 -9 8 5 10 2 6 -8 -4 -9 -1 -16 6 -16 7 0 10 -7 7 -14 -4 -10 -1 -13 9
-9 9 3 12 0 9 -9 -3 -9 5 -23 20 -34 14 -10 25 -24 25 -31 0 -7 3 -13 8 -13
12 0 31 -51 25 -68 -3 -9 -3 -14 2 -10 10 9 35 -10 35 -26 0 -6 -5 -4 -10 4
-5 8 -10 10 -10 4 0 -5 13 -20 30 -32 16 -12 37 -37 46 -54 9 -17 29 -45 45
-62 15 -16 34 -41 41 -55 7 -15 19 -30 25 -34 7 -4 13 -13 13 -20 0 -7 -4 -6
-11 3 -8 12 -9 10 -4 -7 3 -13 18 -35 33 -50 15 -16 44 -47 64 -71 20 -24 39
-43 42 -43 11 2 146 -146 139 -152 -3 -4 -1 -7 5 -7 7 0 12 -5 12 -11 0 -5 -6
-7 -12 -3 -7 4 -4 -2 6 -14 20 -23 32 -30 21 -12 -3 6 -3 10 1 10 9 0 33 -32
34 -45 0 -5 -5 -3 -10 5 -8 13 -10 12 -10 -2 0 -11 7 -17 18 -15 19 2 172
-129 172 -147 0 -5 -26 16 -57 47 -31 31 -59 54 -62 51 -3 -3 24 -31 59 -64
44 -39 68 -54 73 -46 5 6 6 3 3 -9 -4 -14 1 -24 17 -34 17 -11 19 -11 10 0
-21 21 -15 34 6 15 11 -10 17 -24 14 -32 -5 -14 12 -20 20 -6 2 4 3 2 1 -5 -1
-6 31 -39 72 -73 49 -40 71 -53 63 -38 -12 23 -12 23 9 4 12 -10 19 -22 17
-26 -5 -8 38 -40 52 -40 4 0 -5 9 -22 20 -16 11 -25 20 -19 20 17 0 65 -40 59
-50 -3 -4 3 -7 13 -6 9 0 16 -5 14 -12 -1 -8 2 -11 8 -7 6 4 28 -6 48 -21 53
-40 64 -53 60 -66 -2 -6 19 -24 46 -38 50 -26 166 -99 176 -111 3 -3 41 -24
85 -45 44 -21 81 -42 83 -46 2 -4 10 -8 18 -8 7 0 37 -13 66 -29 85 -45 326
-138 421 -162 48 -12 87 -26 87 -31 0 -5 6 -8 13 -5 6 2 19 -1 27 -8 8 -7 78
-20 155 -29 77 -9 151 -19 165 -22 14 -3 54 -7 89 -8 38 -2 67 -8 69 -14 5
-16 49 -15 55 1 3 9 9 9 28 -1 17 -9 108 -15 304 -21 375 -10 595 -2 750 28
27 5 53 7 57 5 3 -2 65 9 137 25 121 27 188 31 175 10 -8 -14 40 -10 134 10
48 11 101 20 117 19 17 0 46 7 65 16 19 9 26 14 16 11 -11 -3 -54 -10 -95 -16
-75 -10 -148 -24 -185 -35 -11 -4 -16 -2 -12 4 5 9 183 46 216 44 8 0 29 4 45
8 17 5 48 11 70 14 22 3 66 14 97 25 32 12 64 21 72 21 8 0 60 23 116 51 55
28 107 48 115 45 29 -11 114 36 307 165 32 22 61 39 65 39 5 1 28 22 53 47 25
26 32 35 15 21 -54 -46 -265 -186 -265 -175 0 3 52 40 116 82 64 43 133 92
153 110 35 31 78 59 93 60 4 0 13 7 20 15 11 12 10 12 -7 0 -18 -14 -19 -14
-6 2 7 10 17 16 21 13 11 -6 61 35 55 45 -3 4 3 14 13 21 15 13 16 12 3 -3
-11 -15 -11 -18 2 -18 13 0 111 80 160 131 9 10 24 16 32 12 16 -6 55 23 55
40 0 6 -12 0 -27 -14 -40 -35 -6 7 40 50 21 20 74 72 118 115 43 43 81 77 84
75 4 -5 -108 -119 -180 -183 -22 -19 -34 -36 -28 -36 7 0 20 11 29 25 9 14 21
25 28 25 10 0 63 54 300 305 32 33 62 69 67 80 6 11 -3 4 -20 -15 -17 -19 -31
-31 -31 -27 0 5 27 38 60 75 32 37 120 144 195 237 75 94 144 179 153 190 10
11 28 37 41 58 12 20 27 35 32 31 5 -3 9 -2 8 3 -3 19 2 33 12 33 5 0 7 -5 3
-12 -5 -7 -3 -8 5 -4 7 5 10 15 7 23 -3 8 -2 11 3 8 5 -3 17 5 25 17 21 29 20
44 0 27 -17 -14 19 55 43 81 8 8 35 44 62 80 26 36 55 71 64 79 10 7 17 19 17
25 0 6 11 24 25 40 14 16 25 33 25 37 0 10 60 99 67 99 10 0 -5 -27 -61 -114
-31 -47 -56 -89 -56 -95 0 -5 -6 -14 -14 -18 -22 -13 -159 -194 -151 -201 3
-4 10 0 15 8 16 26 44 63 95 124 62 75 91 117 100 145 3 12 10 21 16 21 5 0
21 24 36 53 37 70 45 89 33 82 -17 -11 -11 7 20 56 65 100 224 610 305 973
114 514 158 918 159 1451 1 366 -8 466 -60 725 -123 609 -408 1154 -837 1597
-956 988 -2469 1253 -3723 654 -516 -247 -970 -642 -1289 -1121 -309 -465
-479 -961 -533 -1550 l-8 -85 -8 85 c-73 806 -392 1499 -946 2050 -546 544
-1263 871 -2040 930 -125 9 -334 11 -440 3z m-2174 -4150 c-11 -11 -17 4 -9
23 7 18 8 18 11 1 2 -10 1 -21 -2 -24z m-96 8 c0 -6 -4 -13 -10 -16 -5 -3 -10
1 -10 9 0 9 5 16 10 16 6 0 10 -4 10 -9z m10799 -2778 c-26 -32 -149 -154
-149 -147 0 11 146 164 156 164 4 0 0 -8 -7 -17z m-5349 -435 c0 -12 -6 -9
-26 13 -19 22 -19 22 4 8 12 -8 22 -17 22 -21z m56 -45 c-6 -6 -46 20 -46 30
0 4 11 0 25 -9 14 -9 24 -19 21 -21z m4204 -418 c0 -7 -76 -56 -92 -59 -7 -1
-24 -8 -36 -15 -13 -7 -26 -10 -29 -8 -6 6 31 27 57 32 11 2 36 15 57 29 40
27 43 29 43 21z"/>
<path d="M4489 14560 c-3 -79 -10 -146 -17 -170 -9 -27 -9 -62 2 -180 3 -41 8
-155 10 -253 1 -97 6 -180 9 -184 4 -3 4 95 0 218 -4 123 -7 267 -7 319 -1 95
9 234 18 248 3 5 1 14 -5 22 -6 11 -9 5 -10 -20z"/>
<path d="M19280 11045 l0 -2565 430 0 430 0 0 110 c0 61 2 110 6 110 3 0 53
-32 112 -71 270 -179 595 -299 915 -339 114 -14 400 -14 514 0 530 66 1024
333 1365 739 249 297 408 644 473 1031 23 134 30 400 16 543 -75 728 -502
1351 -1151 1681 -313 159 -605 229 -960 229 -431 0 -821 -118 -1172 -352 -59
-39 -109 -71 -112 -71 -3 0 -6 342 -6 760 l0 760 -430 0 -430 0 0 -2565z
m2407 636 c253 -52 465 -165 655 -349 207 -201 336 -445 383 -731 25 -146 17
-367 -19 -507 -65 -260 -180 -460 -372 -644 -185 -178 -414 -296 -671 -346
-117 -23 -347 -23 -463 -1 -257 50 -484 167 -669 343 -185 175 -303 375 -371
624 -18 66 -20 105 -20 325 0 233 2 256 24 340 62 231 178 426 358 602 209
205 471 326 788 367 75 9 279 -3 377 -23z"/>
<path d="M29040 11045 l0 -2565 430 0 430 0 0 110 c0 61 1 110 3 110 1 0 54
-34 117 -76 262 -173 561 -285 877 -330 141 -19 434 -19 576 0 791 112 1457
658 1715 1406 82 240 112 422 112 695 0 351 -64 632 -210 930 -115 233 -245
410 -443 601 -323 312 -710 501 -1162 570 -132 19 -440 22 -565 5 -347 -49
-647 -162 -919 -347 -51 -35 -95 -64 -97 -64 -2 0 -4 342 -4 760 l0 760 -430
0 -430 0 0 -2565z m2386 639 c271 -55 496 -175 684 -364 329 -329 459 -797
345 -1244 -169 -670 -834 -1096 -1509 -969 -487 91 -883 451 -1020 927 -25 85
-26 98 -26 367 l0 279 31 97 c43 136 88 230 166 347 117 176 314 351 503 446
122 61 317 118 465 134 74 8 283 -3 361 -20z"/>
<path d="M37920 11045 l0 -2565 430 0 430 0 0 2565 0 2565 -430 0 -430 0 0
-2565z"/>
<path d="M6205 12682 c-11 -9 -27 -26 -35 -37 -8 -11 3 -4 23 14 33 31 42 42
35 41 -2 -1 -12 -8 -23 -18z"/>
<path d="M26025 12514 c-532 -39 -983 -235 -1354 -589 -655 -624 -838 -1612
-451 -2432 311 -659 941 -1114 1664 -1203 111 -14 405 -14 511 0 335 42 643
157 917 340 l103 69 3 -110 3 -109 434 0 435 0 0 1910 0 1910 -435 0 -434 0
-3 -104 -3 -105 -92 63 c-253 172 -580 299 -879 340 -115 15 -335 26 -419 20z
m353 -829 c271 -52 515 -186 710 -389 138 -144 239 -314 301 -509 l31 -97 0
-295 0 -295 -31 -97 c-66 -208 -193 -409 -353 -561 -400 -378 -991 -466 -1481
-220 -122 62 -220 133 -327 236 -260 253 -398 576 -398 936 0 348 124 656 363
903 228 236 488 364 827 407 65 8 275 -3 358 -19z"/>
<path d="M41344 12510 c-973 -81 -1754 -796 -1925 -1765 -31 -174 -33 -502 -5
-670 53 -320 158 -591 331 -850 348 -522 886 -856 1510 -935 106 -14 400 -14
511 0 487 60 948 292 1284 647 475 501 675 1200 539 1882 -175 873 -899 1555
-1781 1675 -138 19 -340 26 -464 16z m423 -829 c129 -27 221 -59 347 -124 128
-65 228 -141 343 -260 239 -247 363 -555 363 -903 0 -360 -138 -683 -398 -936
-366 -355 -870 -466 -1349 -297 -431 152 -749 519 -850 981 -25 116 -25 390 0
506 56 254 169 471 338 647 217 225 486 363 794 404 103 14 295 6 412 -18z"/>
<path d="M46105 12514 c-371 -23 -717 -136 -1030 -338 l-100 -65 -3 95 -3 94
-429 0 -430 0 -2 -942 c-2 -519 -2 -1378 0 -1910 l2 -968 430 0 430 0 0 1148
c0 1120 0 1150 20 1207 127 370 457 690 835 808 156 49 230 60 400 60 179 0
280 -17 440 -73 116 -42 180 -74 296 -151 233 -156 428 -416 512 -684 64 -205
60 -130 64 -1272 l4 -1043 405 0 405 0 -4 1053 c-4 1069 -5 1098 -43 1287
-143 704 -640 1290 -1321 1556 -256 100 -600 154 -878 138z"/>
<path d="M5833 12473 c-30 -15 -49 -40 -39 -50 8 -8 65 27 76 47 13 24 6 24
-37 3z"/>
<path d="M5635 12405 c-5 -2 -22 -6 -37 -9 -45 -10 -32 -26 20 -26 44 0 72 12
72 32 0 8 -35 10 -55 3z"/>
<path d="M4770 12371 c0 -11 4 -22 9 -25 4 -3 6 6 3 19 -5 30 -12 33 -12 6z"/>
<path d="M5223 12368 c2 -13 35 -37 50 -38 14 0 7 23 -10 36 -23 17 -44 18
-40 2z"/>
<path d="M5483 12368 c6 -31 47 -38 47 -8 0 15 -7 20 -25 20 -15 0 -24 -5 -22
-12z"/>
<path d="M33200 12305 c0 -2 392 -836 871 -1852 479 -1016 873 -1855 876
-1863 2 -8 -125 -319 -283 -690 -157 -371 -289 -683 -291 -693 -5 -16 20 -17
463 -15 l468 3 1063 2510 c584 1381 1071 2531 1082 2558 l20 47 -470 -2 -471
-3 -557 -1318 c-307 -725 -562 -1319 -566 -1320 -4 -1 -288 592 -630 1318
l-622 1320 -477 3 c-262 1 -476 0 -476 -3z"/>
<path d="M16271 10211 c-6 -10 -26 -38 -46 -62 -20 -24 -43 -54 -53 -67 -9
-12 -24 -30 -33 -40 -8 -9 -22 -28 -31 -42 -9 -14 -50 -65 -93 -115 -42 -49
-91 -108 -110 -130 -18 -22 -31 -42 -28 -45 2 -3 11 3 18 14 8 10 28 33 44 52
17 18 31 36 31 39 0 3 9 16 20 28 34 38 104 121 135 161 17 21 55 71 86 110
55 69 85 116 75 116 -3 0 -10 -8 -15 -19z"/>
<path d="M9660 10060 c6 -11 13 -20 16 -20 2 0 0 9 -6 20 -6 11 -13 20 -16 20
-2 0 0 -9 6 -20z"/>
<path d="M10150 9446 c0 -2 8 -10 18 -17 15 -13 16 -12 3 4 -13 16 -21 21 -21
13z"/>
<path d="M15354 9197 c-13 -15 -122 -111 -149 -131 -11 -9 -15 -16 -10 -16 12
0 168 136 173 151 5 12 -1 11 -14 -4z"/>
<path d="M14503 8625 c-12 -8 -57 -30 -100 -49 -143 -62 -132 -56 -98 -50 38
7 182 72 214 96 29 22 14 24 -16 3z"/>
<path d="M14218 8511 c-26 -10 -49 -17 -52 -14 -2 3 -13 0 -23 -6 -15 -10 -12
-11 17 -7 37 5 110 33 110 41 0 6 3 7 -52 -14z"/>
<path d="M13435 8379 c-16 -6 -14 -8 13 -8 33 -1 41 4 20 12 -7 2 -22 1 -33
-4z"/>
</g>
</svg>
