<svg xmlns="http://www.w3.org/2000/svg" viewBox="0 0 100 100"><defs><style>.cls-1{fill:#326de6}.cls-2{fill:none;stroke:#326de6;stroke-linecap:round;stroke-linejoin:round;stroke-width:3px}</style></defs><title>16.07.27_K8S_like_dislike</title><g id="Likes_dislikes"><circle class="cls-1" cx="35.64" cy="43.62" r="2.77" transform="rotate(-76.32 35.639 43.618)"/><path class="cls-2" d="M50.75 79.34a7.07 7.07 0 0 0 5.38-.5l18.24-11a7.07 7.07 0 0 0 3-4.52l2.79-21.1a7.07 7.07 0 0 0-1.69-5.14l-14.79-15.3a7.07 7.07 0 0 0-5.07-1.88l-21.19 2a7.07 7.07 0 0 0-4.63 2.79L21.13 42.45a7.07 7.07 0 0 0-.71 5.36L27.06 68a7.07 7.07 0 0 0 3.75 3.9z"/><path class="cls-2" d="M25 58.13a11 11 0 0 1 10-.33c5.19 2.64 5.65 8.41 5.67 8.67"/></g></svg>