<svg id="Layer_1" data-name="Layer 1" xmlns="http://www.w3.org/2000/svg" xmlns:xlink="http://www.w3.org/1999/xlink" viewBox="0 0 215 127"><defs><style>.cls-1{fill:transparent;}.cls-2,.cls-3{fill-rule:evenodd;}.cls-2{fill:url(#linear-gradient);}.cls-3{fill:url(#linear-gradient-2);}</style><linearGradient id="linear-gradient" x1="-3137.65754" y1="1644.36414" x2="-3137.70622" y2="1644.36292" gradientTransform="matrix(2793, 0, 0, -441.00006, 8763675.71297, 725229.10048)" gradientUnits="userSpaceOnUse"><stop offset="0" stop-color="#f5286e"/><stop offset="1" stop-color="#fa461e"/></linearGradient><linearGradient id="linear-gradient-2" x1="-3134.50784" y1="1645.52546" x2="-3134.55653" y2="1645.47965" gradientTransform="matrix(800, 0, 0, -776, 2507658.98376, 1276974.5)" xlink:href="#linear-gradient"/></defs><title>kubernetes.io-logos</title><rect class="cls-1" x="-3.55202" y="-3.16104" width="223.25536" height="134.51136"/><path class="cls-2" d="M73.12738,75.22779a11.43076,11.43076,0,0,0,7.99043-3.25709L77.915,69.25159a6.54848,6.54848,0,0,1-4.78767,2.18113,6.27512,6.27512,0,1,1,0-12.54865A6.54851,6.54851,0,0,1,77.915,61.0652l3.20276-2.71911A11.30858,11.30858,0,0,0,73.12738,55.089c-5.89573,0-10.92371,4.58875-10.92371,10.05486C62.20367,70.61115,67.23166,75.22779,73.12738,75.22779ZM87.2185,62.96274V60.24363H82.847V74.8885h4.37024V67.89326c0-2.74823,2.06429-4.504,5.29615-4.504V59.90555A5.81225,5.81225,0,0,0,87.21723,62.964ZM101.398,75.22779c4.57892,0,8.41035-3.51278,8.41035-7.67626s-3.83144-7.64715-8.41035-7.64715c-4.60807,0-8.46857,3.48368-8.46857,7.64715S96.79,75.22779,101.398,75.22779Zm0-3.48372a4.17862,4.17862,0,1,1,4.25-4.19254A4.2883,4.2883,0,0,1,101.398,71.74407Zm13.67233,3.14321h3.92121l2.90169-9.20544,2.87388,9.20544h3.91994l5.267-14.64366H129.675l-2.93333,9.12063-3.05221-9.12063H120.068l-3.05221,9.12063-2.93333-9.12063h-4.27915l5.267,14.64366Zm31.95657-19.7995v7.25216a6.48235,6.48235,0,0,0-5.20633-2.43556c-4.12993,0-7.12271,3.17228-7.12271,7.64715,0,4.50393,2.99273,7.67626,7.12144,7.67626a6.48139,6.48139,0,0,0,5.20758-2.43556V74.8885h4.37024V55.089h-4.37024v-.00121Zm-3.95028,16.65629a4.17829,4.17829,0,0,1,0-8.356,4.18457,4.18457,0,0,1,0,8.356ZM159.533,59.45116a1.52877,1.52877,0,0,1,1.466-1.6431,2.32868,2.32868,0,0,1,1.49515.48107l1.0486-2.52038a5.82958,5.82958,0,0,0-3.562-1.27474,4.36676,4.36676,0,0,0-4.63845,4.47492v1.27469h-2.125v3.34317h2.125V74.88728h4.18943V63.58679h3.352V60.24363h-3.352v-.79247h.00127Zm7.47558-1.21778a2.24007,2.24007,0,1,0,0-4.47609,2.24316,2.24316,0,1,0,0,4.47609Zm-2.21356,16.6539h4.369V60.24363h-4.37024V74.8885l.00126-.00122ZM176.46128,62.964V60.24362H172.091V74.88849h4.37024V67.89326c0-2.74823,2.06428-4.504,5.29615-4.504V59.90555a5.81228,5.81228,0,0,0-5.29615,3.05845Zm14.24029,8.61049a3.72844,3.72844,0,0,1-3.6809-2.66336h11.16279c0-5.523-2.8435-9.0067-7.69063-9.0067-4.52078,0-7.96131,3.20012-7.96131,7.6193,0,4.50393,3.59107,7.70411,8.1991,7.70411a9.76074,9.76074,0,0,0,6.31568-2.26594l-2.78279-2.69a5.79593,5.79593,0,0,1-3.562,1.30259Zm-.03038-8.01677a3.204,3.204,0,0,1,3.32165,2.37987h-6.91269a3.73543,3.73543,0,0,1,3.59228-2.37987h-.00124Z"/><path class="cls-3" d="M48.815,64.51747H41.02529v-7.5563H33.23554v-7.5563H48.815Zm3.89487,0H44.92016A11.51324,11.51324,0,0,1,33.23554,75.85073a11.33911,11.33911,0,1,1,0-22.66768v-7.5563c-10.75594,0-19.47437,8.45767-19.47437,18.89072S22.4796,83.407,33.23554,83.407,52.70991,74.94936,52.70991,64.5163Z"/></svg>