<svg id="Layer_1" data-name="Layer 1" xmlns="http://www.w3.org/2000/svg" xmlns:xlink="http://www.w3.org/1999/xlink" viewBox="0 0 215 127"><defs><style>.cls-1{fill:none;}.cls-2{fill:transparent;}.cls-3{clip-path:url(#clip-path);}.cls-4{opacity:0;}.cls-5{fill:#fff;}</style><clipPath id="clip-path"><rect class="cls-1" x="-22.24825" y="-20.68295" width="259.58299" height="168.36589"/></clipPath></defs><title>kubernetes.io-logos2</title><rect class="cls-2" x="-3.35417" y="-4.36563" width="223.25536" height="134.51136"/><g class="cls-3"><g class="cls-3"><g class="cls-3"><g class="cls-4"><g class="cls-3"><rect class="cls-5" x="-22.24825" y="-20.68295" width="259.58299" height="168.36589"/></g></g><path d="M83.75577,45.77057,109.38051,20.1463a9.23932,9.23932,0,0,1,13.0504-.00228l1.99724,1.99725,3.99268-3.99359L126.424,16.15043a14.89159,14.89159,0,0,0-21.03666.00227L79.76264,41.77744Z"/><path d="M117.96109,28.6071,113.968,24.614,88.34321,50.23827A9.22787,9.22787,0,1,1,75.29327,37.18786L97.4032,15.07794l-3.99312-3.9936L71.29968,33.19428A14.87565,14.87565,0,0,0,92.3368,54.23185Z"/><path d="M143.46831,33.19446a14.89214,14.89214,0,0,0-21.03712.00227L96.8069,58.821,100.8,62.8146l25.62384-25.62474a9.22835,9.22835,0,0,1,13.05085,13.05086L117.36432,72.35065l3.99268,3.99313,22.11131-22.10993a14.89462,14.89462,0,0,0,0-21.03939"/><path d="M131.01227,41.65786,105.38752,67.28215a9.23971,9.23971,0,0,1-13.05085.00228l-1.99634-1.99771-3.99357,3.994,1.99679,1.99634a14.891,14.891,0,0,0,21.0371-.00136L135.0054,45.65145Z"/><path d="M21.34317,109.82072a3.04721,3.04721,0,0,0,1.16,1.90286,3.88127,3.88127,0,0,0,2.39887.68753,3.40793,3.40793,0,0,0,2.26364-.67573,2.21582,2.21582,0,0,0,.79962-1.77942,1.80379,1.80379,0,0,0-.21375-.91217,1.91386,1.91386,0,0,0-.59722-.63126,3.71742,3.71742,0,0,0-.94575-.43838q-.56364-.1804-1.26161-.383l-1.21623-.33765a10.90917,10.90917,0,0,1-1.93689-.71022,5.996,5.996,0,0,1-1.464-.97933,3.79909,3.79909,0,0,1-.92352-1.29519,4.26571,4.26571,0,0,1-.3154-1.70046,4.3187,4.3187,0,0,1,.40526-1.87017,4.196,4.196,0,0,1,1.14861-1.46356,5.57223,5.57223,0,0,1,1.8021-.95755,7.62622,7.62622,0,0,1,2.38753-.34853,6.13228,6.13228,0,0,1,3.96409,1.18173,4.64821,4.64821,0,0,1,1.71225,3.16537l-2.70293.2251a2.71177,2.71177,0,0,0-.99114-1.57656,3.36313,3.36313,0,0,0-2.07212-.56364,2.96359,2.96359,0,0,0-1.93735.575,1.82479,1.82479,0,0,0-.69842,1.47536,1.70253,1.70253,0,0,0,.20286.86679,1.86732,1.86732,0,0,0,.58587.60811,4.2783,4.2783,0,0,0,.93441.46108q.55207.20286,1.25027.42886l1.14906.36033a20.28489,20.28489,0,0,1,1.94778.70931,5.73449,5.73449,0,0,1,1.47536.88994,3.51279,3.51279,0,0,1,.93486,1.23892,4.30414,4.30414,0,0,1,.32674,1.77941,4.68,4.68,0,0,1-.45063,2.06078,4.54928,4.54928,0,0,1-1.26116,1.5879,5.93675,5.93675,0,0,1-1.926,1.01337,8.005,8.005,0,0,1-2.466.36079,7.07205,7.07205,0,0,1-4.16739-1.1713,5.09034,5.09034,0,0,1-2.04944-3.53659Z"/><path d="M42.40321,100.40567a5.05247,5.05247,0,0,0-2.17379.45018,4.65366,4.65366,0,0,0-1.62148,1.24755,5.574,5.574,0,0,0-1.01383,1.88787,7.74383,7.74383,0,0,0-.349,2.3721,7.63011,7.63011,0,0,0,.36033,2.38344,5.8321,5.8321,0,0,0,1.02517,1.911,4.72687,4.72687,0,0,0,1.62148,1.27024,4.95578,4.95578,0,0,0,2.17379.46016,5.16389,5.16389,0,0,0,2.17332-.43793,4.59764,4.59764,0,0,0,1.62194-1.22576,5.57217,5.57217,0,0,0,1.02472-1.89922,7.88793,7.88793,0,0,0,.36033-2.43926,7.70241,7.70241,0,0,0-.36033-2.40568,5.596,5.596,0,0,0-1.02472-1.88833,4.69422,4.69422,0,0,0-1.63328-1.2362,5.12533,5.12533,0,0,0-2.18467-.45018m.02269-2.43246a8.69773,8.69773,0,0,1,3.33327.61946,7.31689,7.31689,0,0,1,2.5677,1.73449,7.84359,7.84359,0,0,1,1.64418,2.66889,9.56586,9.56586,0,0,1,.58587,3.4009,9.20492,9.20492,0,0,1-.61946,3.45763,7.72193,7.72193,0,0,1-1.76807,2.66935l2.16244,2.545v.78828H47.584l-1.50939-1.84658a8.61237,8.61237,0,0,1-1.68911.56273,9.42215,9.42215,0,0,1-5.30465-.4166,7.22556,7.22556,0,0,1-2.545-1.73449,7.7965,7.7965,0,0,1-1.62148-2.658,10.22169,10.22169,0,0,1,0-6.75733,7.714,7.714,0,0,1,1.63283-2.65755,7.47307,7.47307,0,0,1,2.55634-1.74583,8.49175,8.49175,0,0,1,3.3224-.63035"/><path d="M61.30048,112.5011a3.4596,3.4596,0,0,0,2.70293-1.06964,4.76432,4.76432,0,0,0,.96844-3.27746V98.28893H67.81v9.93223a8.89779,8.89779,0,0,1-.45064,3.007,5.26044,5.26044,0,0,1-1.28385,2.05034,5.02832,5.02832,0,0,1-2.04943,1.1713,10.2438,10.2438,0,0,1-5.46214,0,5.03113,5.03113,0,0,1-2.03854-1.1713,5.26056,5.26056,0,0,1-1.28385-2.05034,8.89847,8.89847,0,0,1-.45018-3.007V98.28893H57.6291V108.154a4.762,4.762,0,0,0,.96845,3.27746,3.4596,3.4596,0,0,0,2.70293,1.06964"/><path d="M75.85075,107.41064h5.33778L80.3104,104.843q-.5187-1.50849-.83321-2.45469-.31585-.94621-.56364-1.66687h-.698c-.09032.25459-.18017.51054-.27.76513q-.13547.38394-.30405.85636-.16952.47241-.37214,1.08144-.20217.60722-.49511,1.41863ZM70.7376,113.6724l5.74395-15.38392h4.2568l5.67588,15.38392v.78828H83.62145l-1.62194-4.61758H74.99485l-1.62149,4.61758H70.7376Z"/><path d="M92.78822,105.67679h2.45514a4.75958,4.75958,0,0,0,2.55635-.59132,2.11188,2.11188,0,0,0,.93531-1.9319,1.9923,1.9923,0,0,0-.94666-1.897,5.16838,5.16838,0,0,0-2.545-.535H92.78822Zm9.4825,8.78362H99.54509l-4.93253-6.35162H92.78822v6.35162H89.99543V98.28866h5.24793a15.71776,15.71776,0,0,1,2.35349.16882,4.86465,4.86465,0,0,1,2.01631.77693,4.25165,4.25165,0,0,1,1.91465,3.80525,5.18729,5.18729,0,0,1-.32719,1.926,4.366,4.366,0,0,1-.8668,1.39594,4.49127,4.49127,0,0,1-1.24981.934,6.52871,6.52871,0,0,1-1.47581.54049l4.66252,5.83608Z"/><polygon points="105.829 98.289 116.303 98.289 116.303 100.766 108.6 100.766 108.6 105.001 115.763 105.001 115.763 107.433 108.6 107.433 108.6 111.983 116.461 111.983 116.461 114.461 105.829 114.461 105.829 98.289"/><path d="M122.76784,109.82072a3.04326,3.04326,0,0,0,1.15995,1.90286,3.88125,3.88125,0,0,0,2.39887.68753,3.41037,3.41037,0,0,0,2.26363-.67573,2.2158,2.2158,0,0,0,.79963-1.77942,1.7992,1.7992,0,0,0-.2142-.91217,1.9124,1.9124,0,0,0-.59677-.63126,3.7175,3.7175,0,0,0-.94576-.43838q-.56364-.1804-1.26251-.383l-1.21532-.33765a10.91445,10.91445,0,0,1-1.93735-.71022,5.97556,5.97556,0,0,1-1.46355-.97933,3.79568,3.79568,0,0,1-.92443-1.29519,4.62136,4.62136,0,0,1,.09077-3.57063,4.1803,4.1803,0,0,1,1.14861-1.46356,5.56736,5.56736,0,0,1,1.8021-.95755,7.61827,7.61827,0,0,1,2.38662-.34853,6.13663,6.13663,0,0,1,3.965,1.18173,4.64772,4.64772,0,0,1,1.7118,3.16537l-2.70293.2251a2.71337,2.71337,0,0,0-.99069-1.57656,3.36544,3.36544,0,0,0-2.07257-.56364,2.96306,2.96306,0,0,0-1.93689.575,1.82476,1.82476,0,0,0-.69842,1.47536,1.70263,1.70263,0,0,0,.20285.86679,1.86115,1.86115,0,0,0,.58542.60811,4.2783,4.2783,0,0,0,.93441.46108q.55275.20286,1.24982.42886l1.14951.36033a20.34075,20.34075,0,0,1,1.94824.70931,5.72039,5.72039,0,0,1,1.47444.88994,3.50988,3.50988,0,0,1,.93578,1.23892,4.31143,4.31143,0,0,1,.32675,1.77941,4.67976,4.67976,0,0,1-.45065,2.06078,4.55166,4.55166,0,0,1-1.26206,1.5879,5.92737,5.92737,0,0,1-1.9251,1.01337,8.01205,8.01205,0,0,1-2.46649.36079,7.07057,7.07057,0,0,1-4.16693-1.1713,5.09281,5.09281,0,0,1-2.05034-3.53659Z"/><path d="M139.25492,105.81167h2.70293a6.99954,6.99954,0,0,0,1.36282-.123,3.163,3.163,0,0,0,1.081-.413,2.01427,2.01427,0,0,0,.72111-.78147,2.56339,2.56339,0,0,0,.25868-1.20579,2.68333,2.68333,0,0,0-.25868-1.23847,2.03758,2.03758,0,0,0-.70977-.79282,3.04557,3.04557,0,0,0-1.06964-.413,6.91337,6.91337,0,0,0-1.34012-.123h-2.74832Zm-2.81546-7.52292h5.90142a8.57388,8.57388,0,0,1,2.7592.383,4.69283,4.69283,0,0,1,1.80211,1.05876,3.95026,3.95026,0,0,1,.99067,1.5879,6.19993,6.19993,0,0,1,.30407,1.97047,5.35076,5.35076,0,0,1-.41661,2.19557,3.945,3.945,0,0,1-1.20488,1.54343,5.41106,5.41106,0,0,1-1.91465.91217,9.772,9.772,0,0,1-2.545.304h-2.86087V114.461h-2.81546Z"/><path d="M154.05337,107.41064h5.3378L158.513,104.843q-.51937-1.50849-.83365-2.45469-.31587-.94621-.56275-1.66687h-.69842c-.0903.25459-.18061.51054-.27046.76513q-.13479.38394-.30452.85636-.16814.47241-.37077,1.08144-.20286.60722-.49557,1.41863Zm-5.11359,6.26176,5.74395-15.38392h4.2568l5.67587,15.38392v.78828h-2.79232l-1.62194-4.61758H153.197l-1.62148,4.61758h-2.63576Z"/><path d="M181.73469,110.18151a8.06646,8.06646,0,0,1-1.002,1.78123,6.67187,6.67187,0,0,1-1.498,1.46129,7.19083,7.19083,0,0,1-2.03855.988,8.60057,8.60057,0,0,1-2.5795.36441,8.2413,8.2413,0,0,1-3.27656-.63171,7.35915,7.35915,0,0,1-2.51821-1.74447,7.76712,7.76712,0,0,1-1.6106-2.658,10.14495,10.14495,0,0,1,0-6.68971,7.79273,7.79273,0,0,1,1.621-2.66935,7.554,7.554,0,0,1,2.53047-1.76762,8.16893,8.16893,0,0,1,3.2997-.64214,7.6378,7.6378,0,0,1,4.44831,1.23891,6.66469,6.66469,0,0,1,2.5341,3.28836l-2.86039.56228a4.75208,4.75208,0,0,0-1.63374-1.94824,4.41145,4.41145,0,0,0-2.53412-.70886,4.75669,4.75669,0,0,0-2.12794.46017,4.56027,4.56027,0,0,0-1.577,1.268,5.73869,5.73869,0,0,0-.97933,1.90738,7.98114,7.98114,0,0,0-.33763,2.35577,7.71393,7.71393,0,0,0,.349,2.36756,5.54472,5.54472,0,0,0,1.01338,1.88515,4.67815,4.67815,0,0,0,1.6106,1.24436,4.971,4.971,0,0,0,2.16152.44974,4.22859,4.22859,0,0,0,2.60219-.76605,5.33727,5.33727,0,0,0,1.5879-1.86972Z"/><polygon points="185.541 98.289 196.015 98.289 196.015 100.766 188.311 100.766 188.311 105.001 195.474 105.001 195.474 107.433 188.311 107.433 188.311 111.983 196.173 111.983 196.173 114.461 185.541 114.461 185.541 98.289"/></g></g></g></svg>