<svg id="Layer_1" data-name="Layer 1" xmlns="http://www.w3.org/2000/svg" viewBox="0 0 215 127"><defs><style>.cls-1{fill:transparent;}</style></defs><title>kubernetes.io-logos</title><rect class="cls-1" x="-3.00001" y="-3.45836" width="223.25536" height="134.51136"/><g id="layer1"><path id="path14" d="M52.57518,56.39988v16.0054h8.94419l-1.2105,3.09349H48.6747V56.39991h3.90048"/><path id="path16" d="M127.89467,65.07506c2.48824-.94148,5.38-3.09349,5.38-6.65769,0-4.43848-3.83322-6.65769-9.28044-6.65769h-7.12845V75.49877h4.23673V65.74759h2.48823l6.59044,9.75118h4.77473l-7.0612-10.42368Zm-4.70747-2.35373h-2.08473V54.58412h2.62273c3.42972,0,5.31272,1.076,5.31272,4.035,0,3.16072-2.28649,4.10223-5.85071,4.10223"/><path id="path18" d="M68.98407,56.39988l.60525,1.47949L62.19187,75.49874h3.63148l1.614-3.90048h8.40619l1.68124,3.90048h4.304L73.3553,56.39988H68.98407Zm-.33625,12.30668,2.89174-7.06121,2.959,7.06121H68.64783"/><path id="path28" d="M41.27726,62.78859a5.40414,5.40414,0,0,0,4.10222-5.24547c0-5.78347-6.99395-5.78347-9.21318-5.78347H28.7016V75.49874h7.12845c4.16947,0,10.89442-1.00874,10.89442-6.85945C46.72447,65.41131,44.77423,63.32659,41.27726,62.78859Zm-5.649-8.13721c3.16072,0,5.31271.33625,5.31271,3.16073,0,3.83322-3.90047,3.63146-5.78345,3.63146h-2.152V54.58412l2.62273.06726Zm.06724,17.75387-2.69-.06726V64.537h2.48823c3.766,0,6.7922.538,6.7922,3.90048,0,3.29522-2.48823,3.96772-6.59046,3.96772"/><path id="path30" d="M98.84287,56.39988h3.96772V75.49874H98.84287Zm12.23941,0-8.06994,9.14595,8.13719,9.95294h4.50571L107.4508,65.34408l7.59921-8.9442h-3.96773"/><path id="path40" d="M80.95449,65.34405c0,6.25421,3.90048,10.49094,9.21318,10.49094a10.18329,10.18329,0,0,0,6.38871-1.95023l-.94149-1.883A9.90036,9.90036,0,0,1,91.17642,73.145c-3.42973,0-5.918-2.48823-5.918-7.66644,0-4.16946,1.54675-6.65769,4.50572-6.65769,1.614,0,2.959.538,3.497,2.152l3.42972-.87425c-.33625-1.345-2.152-3.96771-7.12845-3.96771-4.573,0-8.60794,3.09349-8.60794,9.21318"/><path id="path50" d="M171.67412,56.39988h3.90048V75.49874h-3.90048Zm12.23941,0-8.13721,9.14595,8.13721,9.95294h4.64021L180.282,65.34408l7.5992-8.9442h-3.96771"/><path id="path52" d="M153.71849,65.34405c0,6.25421,3.83322,10.49094,9.07869,10.49094a10.11878,10.11878,0,0,0,6.456-1.95023l-.94148-1.883A9.953,9.953,0,0,1,163.806,73.145c-3.42973,0-5.8507-2.48823-5.8507-7.66644,0-4.16946,1.54674-6.65769,4.573-6.65769a3.35862,3.35862,0,0,1,3.497,2.152l3.36248-.87425c-.33625-1.345-2.08475-3.96771-7.0612-3.96771-4.64021,0-8.60795,3.09349-8.60795,9.21318"/><path id="path54" d="M143.16032,56.13087c-5.17821,0-8.94419,3.09349-8.94419,9.81844s3.56423,9.88568,8.94419,9.88568,8.9442-3.16072,8.9442-9.88568S148.33853,56.13087,143.16032,56.13087Zm0,17.01414c-3.96771,0-4.90922-3.228-4.90922-7.1957,0-3.90048.94148-7.26295,4.90922-7.26295s4.90922,3.36247,4.90922,7.26295c0,3.96772-.94148,7.1957-4.90922,7.1957"/></g></svg>