<?xml version="1.0" encoding="UTF-8" standalone="no" ?>
<!DOCTYPE svg PUBLIC "-//W3C//DTD SVG 1.1//EN" "http://www.w3.org/Graphics/SVG/1.1/DTD/svg11.dtd">
<svg xmlns="http://www.w3.org/2000/svg" xmlns:xlink="http://www.w3.org/1999/xlink" version="1.1" width="230" height="140" viewBox="0 0 230 140" xml:space="preserve">
<desc>Created with Fabric.js 5.2.4</desc>
<defs>
</defs>
<g transform="matrix(1 0 0 1 115 70)" id="0d922e82-7f24-4f85-bfea-f2540cd51261"  >
<rect style="stroke: none; stroke-width: 1; stroke-dasharray: none; stroke-linecap: butt; stroke-dashoffset: 0; stroke-linejoin: miter; stroke-miterlimit: 4; fill: rgb(255,255,255); fill-rule: nonzero; opacity: 1;" vector-effect="non-scaling-stroke"  x="-115" y="-70" rx="0" ry="0" width="230" height="140" />
</g>
<g transform="matrix(Infinity NaN NaN Infinity 0 0)" id="0b696d05-25a8-4b50-ad8e-1b128bf95614"  >
</g>
<g transform="matrix(0.41 0 0 0.41 115 70)"  >
<g style="" vector-effect="non-scaling-stroke"   >
		<g transform="matrix(1 0 0 1 -208.97 -16.41)"  >
<path style="stroke: none; stroke-width: 1; stroke-dasharray: none; stroke-linecap: butt; stroke-dashoffset: 0; stroke-linejoin: miter; stroke-miterlimit: 4; fill: rgb(0,0,0); fill-rule: nonzero; opacity: 1;" vector-effect="non-scaling-stroke"  transform=" translate(-40.83, -19.48)" d="M 18.49 38.15 L 46.67 10 C 50.63329347126979 6.057811455542787 57.036706528730214 6.057811455542787 61 10 L 63.19 12.19 L 67.58 7.8 L 65.39 5.6 C 58.9960612170088 -0.7802601718025173 48.64393878299118 -0.7802601718025146 42.249999999999986 5.60000000000001 L 14.09 33.76 z" stroke-linecap="round" />
</g>
		<g transform="matrix(1 0 0 1 -205.39 0)"  >
<path style="stroke: none; stroke-width: 1; stroke-dasharray: none; stroke-linecap: butt; stroke-dashoffset: 0; stroke-linejoin: miter; stroke-miterlimit: 4; fill: rgb(0,0,0); fill-rule: nonzero; opacity: 1;" vector-effect="non-scaling-stroke"  transform=" translate(-44.41, -35.89)" d="M 56.11 19.27 L 51.72 14.879999999999999 L 23.529999999999998 43.07 C 19.5645954962149 47.032643080035946 13.137643080035943 47.0304045037851 9.174999999999999 43.065000000000005 C 5.212356919964055 39.0995954962149 5.214595496214901 32.67264308003595 9.179999999999996 28.71 L 33.5 4.39 L 29.11 0 L 4.79 24.32 C 0.5767579193993839 28.43554841695206 -1.0990970954715804 34.49814456481012 0.4022075447798601 40.193338326147824 C 1.903512185031301 45.88853208748552 6.350222256050357 50.337164644484275 12.044766553186179 51.840930866334695 C 17.739310850322003 53.344697088185114 23.80263081260481 51.67146275974383 27.919999999999995 47.46000000000001 z M 84.17 24.32 C 77.77378872389049 17.94523679873421 67.4262112761095 17.945236798734214 61.029999999999994 24.32000000000001 L 32.84 52.51 L 37.230000000000004 56.9 L 65.42 28.709999999999997 C 68.32391428918324 25.811849185597026 72.68699429489499 24.946881520263812 76.47692735781432 26.517996958587183 C 80.26686042073365 28.089112396910554 82.73827821476739 31.78731875751933 82.74000000000001 35.89 C 82.75039559480447 38.590209445162515 81.66836915474795 41.17985939169782 79.74000000000001 43.07 L 55.45 67.39 L 59.85 71.78 L 84.17 47.46 C 90.55026017180252 41.06606121700881 90.55026017180252 30.713938782991203 84.17 24.320000000000007 z" stroke-linecap="round" />
</g>
		<g transform="matrix(1 0 0 1 -201.7 16.42)"  >
<path style="stroke: none; stroke-width: 1; stroke-dasharray: none; stroke-linecap: butt; stroke-dashoffset: 0; stroke-linejoin: miter; stroke-miterlimit: 4; fill: rgb(0,0,0); fill-rule: nonzero; opacity: 1;" vector-effect="non-scaling-stroke"  transform=" translate(-48.1, -52.31)" d="M 70.47 33.63 L 42.28 61.81 C 38.31096126479668 65.76662096505147 31.88903873520332 65.76662096505147 27.92 61.81 L 25.73 59.61 L 21.34 64 L 23.53 66.2 C 29.926211276109505 72.5747632012658 40.2737887238905 72.5747632012658 46.67 66.2 L 74.86 38 z" stroke-linecap="round" />
</g>
		<g transform="matrix(1 0 0 1 54.39 1.1)"  >
<path style="stroke: none; stroke-width: 1; stroke-dasharray: none; stroke-linecap: butt; stroke-dashoffset: 0; stroke-linejoin: miter; stroke-miterlimit: 4; fill: rgb(0,0,0); fill-rule: nonzero; opacity: 1;" vector-effect="non-scaling-stroke"  transform=" translate(-304.19, -36.99)" d="M 114.7 43.47 C 114.98840540462369 45.14205197990393 115.89955003767025 46.642760787274746 117.25 47.67 C 118.79915488338281 48.74168175387347 120.65855424937703 49.27243658235197 122.54 49.18 C 124.33087239752369 49.29415367548047 126.103745013292 48.76583763598152 127.54 47.69 C 128.7000953014447 46.72489817363764 129.34961634496784 45.278237667608785 129.3 43.769999999999996 C 129.32013215577808 43.07378358269616 129.15812156043313 42.3843767939942 128.83 41.769999999999996 C 128.50131188340015 41.21240310170708 128.04988445836352 40.73703634352456 127.51000000000002 40.379999999999995 C 126.86604210798946 39.952442698257066 126.16608814719784 39.6159263709534 125.43000000000002 39.379999999999995 L 122.65000000000002 38.53999999999999 L 120.00000000000001 37.81999999999999 C 118.53089506276058 37.43073593702669 117.10135450888139 36.90512032353949 115.73000000000002 36.25 C 114.55267512346927 35.69327886334133 113.4642182874389 34.965394415717306 112.50000000000001 34.08999999999999 C 111.6400210995062 33.29148663981726 110.95846890400475 32.320274761227694 110.50000000000001 31.239999999999988 C 110.01088473270796 30.05155172728364 109.77257079308983 28.774869907900754 109.80000000000001 27.48999999999999 C 109.78582619143485 26.06640587048438 110.09348613528383 24.658007016420154 110.70000000000002 23.36999999999999 C 111.28469991593565 22.116517455894208 112.15044123063281 21.01466487355238 113.23000000000002 20.149999999999988 C 114.41755346656892 19.19950819468576 115.77498802810985 18.48346146347292 117.23000000000002 18.03999999999999 C 118.9303081178689 17.50123116989756 120.70660709363861 17.24120261260808 122.49000000000002 17.26999999999999 Q 128.00000000000003 17.26999999999999 131.22000000000003 19.86999999999999 C 133.36926101069113 21.6007427673505 134.73159980739786 24.123592390881445 135.00000000000003 26.869999999999983 L 129.00000000000003 27.35999999999999 C 128.7030918916602 25.983333768829013 127.93138632651102 24.754976745403486 126.82000000000002 23.88999999999999 C 125.47267125782643 22.989316890318822 123.86780155938624 22.553859904308794 122.25000000000003 22.64999999999999 C 120.7234035517264 22.56025847051896 119.21331909420155 23.005857162903347 117.98000000000003 23.909999999999997 C 116.98113803929806 24.68847297764297 116.4099195206696 25.89396660461859 116.44000000000003 27.159999999999997 C 116.41536096583033 27.8255639318677 116.57082879161284 28.485438481300143 116.89000000000003 29.069999999999993 C 117.21166528534133 29.60959434139161 117.65302177297552 30.06805766963177 118.18000000000004 30.409999999999993 C 118.82234170198765 30.827822121227868 119.51436747958927 31.163756964723802 120.24000000000004 31.409999999999993 C 121.05000000000004 31.709999999999994 121.97000000000004 32.029999999999994 122.99000000000004 32.35999999999999 L 125.53000000000004 33.14999999999999 Q 127.90000000000005 33.89999999999999 129.82000000000005 34.709999999999994 C 130.99711362915104 35.21066047481204 132.09259952866205 35.884805643741885 133.07000000000005 36.709999999999994 C 133.95090112603947 37.45571007226631 134.65461226648796 38.3882981370354 135.13000000000005 39.43999999999998 C 135.64447917128265 40.68105695437795 135.88987890556584 42.01712217436416 135.85000000000005 43.359999999999985 C 135.86664748642576 44.92972910482402 135.52462030190222 46.48253252256095 134.85000000000005 47.899999999999984 C 134.19927573446722 49.26147314549199 133.2488708090859 50.458026109101546 132.07000000000005 51.39999999999999 C 130.80315228314478 52.40169213815727 129.36237287066004 53.16106764026688 127.82000000000005 53.63999999999999 C 126.0626541002944 54.18657364005152 124.23023655484022 54.45316845789844 122.39000000000004 54.42999999999999 C 119.13547889955152 54.551256074857605 115.92486212260255 53.64892586957129 113.21000000000004 51.849999999999994 C 110.64728525710296 49.99536243205442 108.98747844135539 47.1442719498622 108.64000000000004 43.99999999999999 z M 161.15 17.37 C 163.66543743944857 17.337444950580984 166.16275430068637 17.799533512660364 168.5 18.730000000000004 C 170.63466467979305 19.584967176331517 172.56127325865887 20.887559171246117 174.15 22.549999999999997 C 175.74421412461453 24.245097681054727 176.97898538562154 26.245223029462803 177.78 28.429999999999993 C 178.6595052731573 30.831553798599664 179.09656556671231 33.372602016942764 179.07 35.93 C 179.10591162727215 38.534328119757795 178.64080426190546 41.12127565559304 177.7 43.55 C 176.82299751161653 45.757442173366826 175.49854349350306 47.75944464804735 173.81 49.43 L 178.57 55 L 178.57 56.73 L 172.57 56.73 L 169.23999999999998 52.66 C 168.0336268372292 53.23721669092338 166.77005085001636 53.68633919035713 165.46999999999997 54 C 164.06667069278544 54.30004500809506 162.6350271345102 54.44756799770656 161.19999999999996 54.44 C 158.65578388281955 54.455325059410754 156.13379316127708 53.965882116146446 153.77999999999997 53 C 151.65742907884763 52.13957292878994 149.74432158086273 50.83347636599456 148.16999999999996 49.17 C 146.59520798359432 47.48257148596363 145.3805296565539 45.492132210561245 144.59999999999997 43.32 C 143.73762142984492 40.94217848152277 143.30751511806838 38.42927388830877 143.32999999999996 35.89999999999999 C 143.30498807886468 33.35422884832662 143.73508078789243 30.824470945620057 144.59999999999997 28.430000000000007 C 145.3854003939337 26.250438660845017 146.61080039240326 24.255759774447363 148.19999999999996 22.570000000000004 C 149.78474410282962 20.907145309883344 151.70344245155968 19.598477164390726 153.82999999999996 18.730000000000004 C 156.1535604647671 17.788494051183594 158.6433242737945 17.325914982839706 161.14999999999995 17.37 z M 161.1 22.73 C 159.4489846265253 22.704544005065237 157.8129246463885 23.046101412191916 156.31 23.730000000000004 C 154.92915048326603 24.367875877917808 153.70914461715623 25.307656306993973 152.74 26.479999999999997 C 151.73215138052754 27.709306413045734 150.97152262769555 29.121902668305147 150.5 30.64 C 149.97835500498985 32.33025239024965 149.7219754629584 34.091175034202585 149.74 35.85999999999999 C 149.72251317873102 37.64414806189888 149.9891840517248 39.41970349474367 150.53 41.11999999999999 C 151.01437271875685 42.65191788221164 151.78087306867266 44.079779153515034 152.79 45.33 C 153.75756226127163 46.51660066105305 154.97702915481327 47.47304528343866 156.35999999999999 48.129999999999995 C 157.86133444030972 48.818742670235096 159.498503895638 49.16053170057503 161.14999999999998 49.129999999999995 C 162.8001025945593 49.146038480131494 164.43414395589684 48.804902496553716 165.93999999999997 48.129999999999995 C 167.3181226445343 47.505737994315915 168.53822141314225 46.57955657612892 169.50999999999996 45.41999999999999 C 170.53089285876655 44.188849662766174 171.29888724572697 42.76839986741457 171.76999999999995 41.239999999999995 C 172.3170445077422 39.49969186700568 172.58700876665145 37.68418222584096 172.56999999999996 35.85999999999999 C 172.58527515568895 34.06214460033775 172.31525293466052 32.27324738602456 171.76999999999995 30.55999999999999 C 171.29198551541415 29.04056570218666 170.52455420491785 27.62794877667137 169.50999999999996 26.399999999999988 C 168.52796737587096 25.24031102683932 167.30216677430403 24.31157073818694 165.91999999999996 23.67999999999999 C 164.40195507464273 23.01524661086799 162.75675444755953 22.690985076484377 161.09999999999997 22.729999999999993 z M 202.64 49.38 C 204.89045813512743 49.51849417510849 207.0869375169328 48.65454561826505 208.64 47.02 Q 210.76999999999998 44.67 210.76999999999998 39.800000000000004 L 210.76999999999998 18.06 L 217 18.06 L 217 40 C 217.04920585565452 42.24771332005383 216.71092832480534 44.48711057427544 216 46.61999999999999 C 215.4255715442547 48.328407506922396 214.45594121051 49.87707503643692 213.17 51.14 C 211.89425897186672 52.34780260381692 210.3477875495584 53.232480268906826 208.66 53.72 C 204.73368981083388 54.80583468969361 200.5863101891661 54.80583468969361 196.66 53.72 C 194.97827280928607 53.23208382780627 193.4383898536012 52.34725130538601 192.17 51.14 C 190.8872823618145 49.874487705089244 189.91816391403583 48.32663774609295 189.33999999999997 46.620000000000005 C 188.62946016739943 44.487017237266585 188.2911928719932 42.24768774167715 188.33999999999997 40.00000000000002 L 188.33999999999997 18.06 L 194.58999999999997 18.06 L 194.58999999999997 39.8 Q 194.58999999999997 44.66 196.72999999999996 47.019999999999996 C 198.26072478827547 48.632139770420416 200.4198555221551 49.494330723374034 202.63999999999996 49.379999999999995 z M 223.24 52 L 235.89000000000001 18.1 L 245.27 18.1 L 257.78 52 L 257.78 53.7 L 251.62999999999997 53.7 L 248.04999999999995 43.52 L 232.61999999999995 43.52 L 229 53.7 L 223.2 53.7 z M 234.5 38.2 L 246.27 38.2 L 244.33 32.540000000000006 C 243.57000000000002 30.330000000000005 242.96 28.540000000000006 242.49 27.130000000000006 C 242.02 25.720000000000006 241.62 24.520000000000007 241.25 23.460000000000008 L 239.72 23.460000000000008 L 239.12 25.15000000000001 C 238.92000000000002 25.710000000000008 238.70000000000002 26.34000000000001 238.45000000000002 27.03000000000001 C 238.20000000000002 27.720000000000006 237.93 28.520000000000007 237.63000000000002 29.42000000000001 C 237.33000000000004 30.32000000000001 236.97000000000003 31.35000000000001 236.54000000000002 32.540000000000006 z M 292.72 53.7 L 286.72 53.7 L 275.85 39.7 L 271.85 39.7 L 271.85 53.7 L 265.69 53.7 L 265.69 18.06 L 277.26 18.06 C 278.993375506166 18.056954092332646 280.72465513559547 18.180616923006177 282.44 18.429999999999996 C 284.0338756725054 18.661123634500864 285.55501580288177 19.249069932084527 286.89 20.15 Q 291.11 22.93 291.11 28.53 C 291.1379870799411 29.97685614588923 290.8902425379628 31.41581074587254 290.38 32.77 C 289.9477805503809 33.91016638636415 289.29921426949596 34.95602195972836 288.46999999999997 35.85 C 287.6790518594973 36.69018657206106 286.7486539708257 37.387139172302284 285.71999999999997 37.910000000000004 C 284.6890003687485 38.43714968257094 283.59763076001906 38.836758862382645 282.46999999999997 39.10000000000001 L 292.72 52 z M 271.83000000000004 34.34 L 277.24000000000007 34.34 C 279.2015500620093 34.44442603623471 281.15281606746066 33.993867278315214 282.87000000000006 33.040000000000006 C 284.27850687495567 32.098745378170925 285.06682748002504 30.468528981279796 284.93000000000006 28.78000000000001 C 285.0969583310196 27.100348960482183 284.2838958302261 25.47422395889508 282.8400000000001 24.60000000000001 C 281.1040357004238 23.736895742936504 279.1766357764724 23.33076504467531 277.24000000000007 23.42000000000001 L 271.83000000000004 23.42000000000001 z M 300.66 18.06 L 323.74 18.06 L 323.74 23.52 L 306.74 23.52 L 306.74 32.85 L 322.52 32.85 L 322.52 38.21 L 306.77 38.21 L 306.77 48.21 L 324.09 48.21 L 324.09 53.7 L 300.65999999999997 53.7 z M 337.89 43.47 C 338.1784054046237 45.14205197990394 339.0895500376702 46.642760787274746 340.44 47.67 C 341.9897999107337 48.74031667397001 343.8487270099488 49.270936696619295 345.73 49.18 C 347.5208723975237 49.29415367548047 349.293745013292 48.76583763598152 350.73 47.69 C 351.89009530144466 46.724898173637634 352.53961634496784 45.278237667608785 352.49 43.769999999999996 C 352.5101321557781 43.07378358269616 352.3481215604331 42.38437679399419 352.02 41.769999999999996 C 351.69131188340015 41.21240310170708 351.23988445836346 40.73703634352456 350.7 40.379999999999995 C 350.0560421079894 39.952442698257066 349.35608814719785 39.6159263709534 348.62 39.379999999999995 L 345.84000000000003 38.53999999999999 L 343.16 37.79999999999999 C 341.6908950627606 37.410735937026686 340.2613545088814 36.88512032353949 338.89000000000004 36.22999999999999 C 337.7126751234693 35.67327886334133 336.6242182874389 34.94539441571731 335.66 34.06999999999999 C 334.8000210995062 33.27148663981726 334.11846890400477 32.3002747612277 333.66 31.21999999999999 C 332.6617425177376 28.677193998876312 332.7338740265262 25.838819128042697 333.86 23.349999999999987 C 334.44804248478755 22.09857563565719 335.3132318048627 20.99742559192516 336.39 20.129999999999995 C 337.5775534665689 19.179508194685763 338.9349880281098 18.463461463472925 340.39 18.019999999999992 C 342.09030811786886 17.481231169897566 343.86660709363855 17.221202612608085 345.65 17.249999999999993 Q 351.15999999999997 17.249999999999993 354.39 19.849999999999994 C 356.53640625988083 21.581801281633183 357.89522457533985 24.104806111397945 358.15999999999997 26.849999999999994 L 352.15999999999997 27.339999999999993 C 351.8683083550526 25.966181669795006 351.10392798659944 24.73821876306705 349.99999999999994 23.86999999999999 C 348.6532889880079 22.967960444704822 347.0479541739862 22.532377256655174 345.42999999999995 22.629999999999995 C 343.90340355172634 22.540258470518964 342.3933190942015 22.98585716290335 341.15999999999997 23.889999999999997 C 340.1648908338071 24.6705401266546 339.5975342962946 25.875709242285602 339.63 27.14 C 339.602300940036 27.804644229725962 339.754301110454 28.464463151312984 340.07 29.049999999999997 C 340.3916652853413 29.589594341391617 340.8330217729755 30.048057669631774 341.36 30.389999999999997 C 342.00234170198763 30.807822121227872 342.69436747958923 31.143756964723806 343.42 31.389999999999997 C 344.23 31.689999999999998 345.15000000000003 32.01 346.18 32.339999999999996 L 348.71 33.129999999999995 Q 351.09 33.879999999999995 353 34.69 C 354.177113629151 35.19066047481204 355.272599528662 35.86480564374189 356.25 36.69 C 357.1309011260394 37.43571007226631 357.8346122664879 38.3682981370354 358.31 39.41999999999999 C 358.82447917128263 40.66105695437795 359.0698789055658 41.997122174364165 359.03000000000003 43.339999999999996 C 359.04664748642574 44.909729104824024 358.7046203019022 46.462532522560956 358.03000000000003 47.87999999999999 C 357.3825629280225 49.24352451174642 356.4316129186488 50.44076373218096 355.25000000000006 51.379999999999995 C 353.9809880492924 52.37363458971812 352.540488391919 53.12608382251082 351 53.6 C 349.23920050645904 54.14647593528233 347.40350731151193 54.41305638087208 345.56 54.38999999999999 C 342.3056396728461 54.509905372378036 339.0954285281372 53.607689168309506 336.38 51.809999999999995 C 333.8344875601065 49.96057955425852 332.18340018618676 47.126515292651284 331.83 44 z M 367.91 18.06 L 380.91 18.06 C 382.9696330801338 18.006820999745862 385.0239177517404 18.294015402848753 386.99 18.909999999999997 C 388.48399371579194 19.370503418035987 389.85242687766527 20.167615734827184 390.99 21.240000000000006 C 391.9897408223584 22.212621297546775 392.7379113412901 23.413812497666463 393.17 24.740000000000006 C 393.6283558007654 26.140487085747083 393.8546738523717 27.60648759913728 393.84000000000003 29.08 C 393.88094622893 30.740394986510108 393.56730334064434 32.39042931183873 392.92 33.92 C 392.33550441396267 35.25747268136165 391.4242639040222 36.4266114488324 390.27000000000004 37.32 C 389.0069444231312 38.2550279610577 387.5734519089108 38.93440829955078 386.05 39.32 C 384.2177858446545 39.79005667549925 382.33138028998195 40.01534931750113 380.44 39.989999999999995 L 374.14 39.99 L 374.14 53.7 L 367.93 53.7 z M 374.12 34.64 L 380.07 34.64 C 381.0763889226708 34.64748254022869 382.0811196159548 34.557056777833125 383.07 34.37 C 383.9116577396197 34.212456165973826 384.71793589563487 33.90417334161509 385.45 33.46 C 386.12377628857126 33.03856625239053 386.6727079032256 32.444753436538 387.03999999999996 31.740000000000002 C 387.44266026343445 30.912594283501512 387.6382701906164 29.999747956652254 387.60999999999996 29.080000000000002 C 387.6397304382986 28.137626277019404 387.44432693883266 27.2017463585246 387.03999999999996 26.35 C 386.68342109753587 25.636190563448846 386.1410734344784 25.031662913544036 385.46999999999997 24.6 C 384.75031177164857 24.152687459059717 383.9532535755321 23.844039391627362 383.11999999999995 23.69 C 382.13132398792686 23.50147942981805 381.12644920048405 23.411040698948195 380.11999999999995 23.42 L 374.06999999999994 23.42 z M 395.56 52 L 408.22 18.1 L 417.6 18.1 L 430.1 52 L 430.1 53.7 L 424 53.7 L 420.43 43.52 L 404.94 43.52 L 401.37 53.7 L 395.56 53.7 z M 406.83 38.2 L 418.59 38.2 L 416.65 32.540000000000006 C 415.89 30.330000000000005 415.28 28.540000000000006 414.82 27.130000000000006 L 413.58 23.460000000000008 L 412 23.460000000000008 L 411.4 25.15000000000001 C 411.2 25.710000000000008 410.97999999999996 26.34000000000001 410.72999999999996 27.03000000000001 C 410.47999999999996 27.720000000000006 410.21 28.520000000000007 409.90999999999997 29.42000000000001 C 409.60999999999996 30.32000000000001 409.24999999999994 31.35000000000001 408.82 32.540000000000006 z M 467.92 44.27 C 467.35516968579276 45.664338614944434 466.61594992730477 46.981493820977605 465.72 48.190000000000005 C 464.7908296241419 49.42893221168462 463.6740694050058 50.51532734933364 462.41 51.410000000000004 C 461.03977090192785 52.37248882400016 459.52377903014644 53.108538329675746 457.92 53.59 C 456.0778632259094 54.14166811341968 454.1628489635942 54.411388432055624 452.24 54.39 C 449.7569139714903 54.42768821084209 447.2925845319306 53.95456418860618 445 53 C 442.9007894727989 52.12408717172377 441.0097076915757 50.81566302039097 439.45 49.16 C 437.883013833692 47.466492544561156 436.67538789690565 45.4730593080631 435.9 43.3 C 435.0517274664937 40.936334860302935 434.6285327268602 38.44117867542403 434.65 35.93000000000001 C 434.6274766712199 33.418737058453 435.0507026848212 30.923396482259555 435.9 28.56000000000001 C 436.6768746478375 26.377201658889014 437.8917417800018 24.376244029442017 439.46999999999997 22.68 C 441.03906036364435 21.0066936363887 442.9394052365369 19.67849560694765 445.04999999999995 18.78000000000001 C 447.3499216493951 17.812870071983536 449.82528669757306 17.33277863898066 452.31999999999994 17.37 C 455.7901483853682 17.246623056828625 459.2134360854296 18.20025320184572 462.11999999999995 20.09999999999999 C 464.7034503822795 21.860011126886445 466.6609371250329 24.395289126445444 467.7099999999999 27.34 L 461.3999999999999 28.580000000000002 C 460.6144063556181 26.847999646055992 459.3693476482105 25.364304686395354 457.7999999999999 24.29 C 456.14130839123766 23.216008547903552 454.1951818615549 22.67193016326106 452.2199999999999 22.730000000000004 C 450.60021698551964 22.69454235470763 448.99444542498446 23.036924350557342 447.5299999999999 23.730000000000004 C 446.18109277256764 24.39171140881959 444.99591332207524 25.34463667304835 444.0599999999999 26.520000000000007 C 443.07707177403927 27.77208093553344 442.3437879092629 29.201305505305804 441.89999999999986 30.730000000000008 C 441.38940062366333 32.41221175984726 441.13653294490115 34.16205609688175 441.14999999999986 35.92 C 441.13505124298933 37.689358313648775 441.3948095741126 39.4503173895756 441.91999999999985 41.14 C 442.39038054559165 42.653515267299156 443.14746431462544 44.062437976487644 444.14999999999986 45.28999999999999 C 445.1282202675994 46.4427757139165 446.3466767673796 47.36771047985612 447.71999999999986 48 C 449.2152255122262 48.68580632057514 450.8452289049674 49.02752610940978 452.48999999999984 49 C 454.53388150792534 49.08215218255379 456.5478334218837 48.4881593841961 458.21999999999986 47.31 C 459.69382744554326 46.230368477438596 460.89282740699724 44.81897423709848 461.71999999999986 43.190000000000005 z M 476.31 18.06 L 499.39 18.06 L 499.39 23.52 L 482.39 23.52 L 482.39 32.85 L 498.2 32.85 L 498.2 38.21 L 482.42 38.21 L 482.42 48.21 L 499.74 48.21 L 499.74 53.7 L 476.31 53.7 z" stroke-linecap="round" />
</g>
</g>
</g>
</svg>
