<svg id="Layer_1" data-name="Layer 1" xmlns="http://www.w3.org/2000/svg" viewBox="0 0 215 127"><defs><style>.cls-1{fill:transparent;}.cls-2{fill:#77bc43;}.cls-3{fill:#0076bb;}.cls-4{fill:#0067a5;}.cls-5{fill:#fff;}</style></defs><title>kubernetes.io-logos</title><rect class="cls-1" x="-5.0578" y="-5.66637" width="223.25536" height="134.51136"/><path class="cls-2" d="M129.80847,39.45853h-4.008V57.66878L116.129,41.46253a3.99162,3.99162,0,0,0-3.54331-2.004h-3.45617V65.801a1.763,1.763,0,0,0,1.82974,1.8007h4.008V49.71087l9.352,15.88678a3.92569,3.92569,0,0,0,3.54331,2.004h3.77565V58.16252c-.029-.08712-.05809-.17426-.08713-.29043a15.63328,15.63328,0,0,1,0-8.94539c.02905-.08712.05809-.17426.08713-.29043V41.23019a1.75656,1.75656,0,0,0-1.82975-1.77166m61.456,0h-4.008l-4.008,17.397-4.008-14.66695a3.58219,3.58219,0,0,0-3.45618-2.73008h-2.26538l-4.76314,17.397-3.74661-15.94486a1.97107,1.97107,0,0,0-1.94592-1.45218h-4.41461l1.336,5.22783.05809.23234a15.48047,15.48047,0,0,1,2.49773,9.43913c0,.08712-.029.17426-.029.26139l2.73009,10.659a3.32589,3.32589,0,0,0,3.28191,2.32348h2.64295l4.8212-17.51321,4.18227,15.16069a3.37327,3.37327,0,0,0,3.34,2.32348h2.643l6.6219-25.96485c.43569-1.68454-.029-2.14923-1.51021-2.14923"/><path class="cls-3" d="M58.10017,62.66425a9.10156,9.10156,0,1,1,8.655-9.0906,8.90784,8.90784,0,0,1-8.655,9.0906m37.0885-17.86173h9.78765a1.43209,1.43209,0,0,0,1.24887-.75513l2.033-4.58887H92.69093A3.30342,3.30342,0,0,0,89.38,42.74043V66.527l-1.5393-3.48522a1.34431,1.34431,0,0,0-1.19078-.75513H76.4266V41.28826a1.847,1.847,0,0,0-1.85878-1.82974h-4.008v4.41461a15.335,15.335,0,0,1,1.56834,5.80869,14.59291,14.59291,0,0,0-28.43355,1.77165H35.911a1.28733,1.28733,0,0,0-1.16174.697l-1.85878,4.24035h8.77113a8.65024,8.65024,0,0,1-8.36452,6.24434,9.096,9.096,0,0,1,.08713-18.1812,11.54665,11.54665,0,0,1,6.33148,2.26539,1.187,1.187,0,0,0,1.62643-.34852l2.033-3.51427A15.3906,15.3906,0,0,0,33.50036,39.139c-8.30643,0-14.84121,6.30243-14.84121,14.34747a14.55105,14.55105,0,0,0,28.753,3.04957,13.59322,13.59322,0,0,1-.95844,5.60538,14.62892,14.62892,0,0,0,24.077-1.13269v3.311a3.30948,3.30948,0,0,0,3.31095,3.31095H93.30084A1.847,1.847,0,0,0,95.15962,65.801V56.39087h8.33548a1.39844,1.39844,0,0,0,1.24886-.75513l1.85878-4.18226H95.18866v-6.651"/><path class="cls-4" d="M146.82794,38.79053a14.58054,14.58054,0,1,0,14.725,14.57982A14.65773,14.65773,0,0,0,146.82794,38.79053Zm10.688,18.76208s-.2033.43565-.26139.60991a18.08052,18.08052,0,0,1-.84225,1.74261c-.23235.37756-.72609.84226-.78418,1.27791s-.05809.29043-.34853.78418-.26139.34852-.46469.49374a.66846.66846,0,0,1-.34853.14522l-.08712.52278a.78566.78566,0,0,1-.40661.2033c-.26139.05809-.29044.37757-.81322.90035a1.36245,1.36245,0,0,0-.46469.81322c-.05809.11617-.60992.72608-.668.84225a.19816.19816,0,0,1-.26139.0581,1.46521,1.46521,0,0,1-.20331-.55183,9.036,9.036,0,0,1,.05809-1.01652c.0581-.55182.11618-.40661.08713-.639a1.27484,1.27484,0,0,1,.08713-.52278l.17426-.4647a1.225,1.225,0,0,0-.05809-.52277c-.11617-.11618-.029-.52278-.05809-.639,0-.11618-.29043-.26139-.84226-.40661s-.60991-.14522-.81321-.20331-.11617-.05809-.34853-.20331a1.42145,1.42145,0,0,0-.55182-.29043c-.31948-.05809-.23235-.11617-.31948-.26139a.44008.44008,0,0,0-.29044-.23234c-.14521-.0581-.05809-.23235-.05809-.34853a.2596.2596,0,0,0-.11617-.23234.524.524,0,0,1-.05809-.34853,2.79035,2.79035,0,0,0-.14522-.668c-.05809-.20331.14522-.34853.29044-.49375s-.08713-.49374-.08713-.49374a.88617.88617,0,0,0-.23234-.20331c-.08713-.08712-.17426-.029-.4647-.029-.26139,0-.26139.05809-.43565.17426s-.23235.14522-.34853.05809-.29043-.029-.37756-.08713-.29043-.23234-.52278-.4066-.029-.11618-.14521-.23235a.95564.95564,0,0,0-.52278-.14521.63688.63688,0,0,0-.4647.05809c-.11617.08712-.14522.11617-.34852.029s-.11618-.11617-.26139-.29043-.029-.14522-.20331-.14522a3.15321,3.15321,0,0,0-.81322.23234c-.23234.05809-.17426-.08712-.23234-.14521-.08713-.05809-.40661-.05809-.4647-.17427s-.37756-.17426-.58087-.08712a.50206.50206,0,0,1-.43565-.05809l.05809-.52278a2.0541,2.0541,0,0,0-.05809-.34853s-1.59739-1.68452-1.74261-1.74261,0,.31948,0,.31948l.20331.49375.87131,1.01652-.08713.11617h-.20331s-.55182-.58087-.60991-.639-.20331-.29043-.23235-.31948c-.08712-.05809-.17426-.08713-.26139-.14522l-.05809-.11617s0-.17426-.05809-.20331a8.48855,8.48855,0,0,1-.29043-1.01652c0-.05809-.26139-.17426-.60992-.55182a2.05772,2.05772,0,0,1-.37756-1.336,2.10591,2.10591,0,0,1,.26139-.78418l-.029-.43565a1.66144,1.66144,0,0,0,.029-.40661c0-.05809-.17426-.23234-.20331-.37756s.05809-.08713.14522-.17426.05809-.20331.05809-.29044a7.09575,7.09575,0,0,0-.29043-.697c-.14522-.23234-.02905-.26139.029-.34852a.47828.47828,0,0,0,.11617-.4647.69053.69053,0,0,0-.49374-.43565.32512.32512,0,0,0-.43565.14521s-.26139.20331-.34853.29044c-.08712.05809-.55182.29043-.55182.29043s-.40661.05809-.49374-.029.029-.17426.26139-.20331.58087-.4647.8713-.75513.05809-.40661.14522-.58087c.05809-.14522.34852-.20331.4647-.31948.11617-.14522.029-.31948,0-.40661-.029-.05809.46469,0,.49374,0s.11617-.26139.11617-.26139.20331-.14521.37756-.29043a.73127.73127,0,0,1,.4647-.05809.84637.84637,0,0,1,.29043.26139c.11618.17426.11618.11617.37756.34852.26139.20331.37757,0,.55183-.029s.11617.05809.29043.20331a.855.855,0,0,0,.52278.17426c.08713,0,.20331-.20331.14522-.26139a1.86338,1.86338,0,0,0-.29044-.17426l-.14521-.26139h-.37756c-.11618,0,0-.11618.08712-.26139s-.029-.20331-.029-.20331l-.23235.029-.37756.0581s-.31948.029-.43565.029c-.14522,0-.23234-.20331-.29043-.49374s.2033-.29044.2033-.29044.05809-.46469.17427-.46469a12.81,12.81,0,0,1,1.56834-.92939,2.81579,2.81579,0,0,0,.95843-.639c.11617-.11617-.029-.17426-.08712-.14522a3.44836,3.44836,0,0,0-.4647.23235l-1.51027.78417s-.029.20331-.2033.20331a5.549,5.549,0,0,0-1.307.9294c-.26139.31948-.08713.17426-.08713.31948.029.14521-.029.14521-.29043.37756-.26139.26139-.029.29043-.05809.34852-.029.08713-.20331.11618-.31948.11618-.11617-.029-.08713-.05809-.17426-.20331s-.11618-.02905-.26139.17426-.23235.14522-.26139.11617c-.02905,0-.05809-.14521-.05809-.14521a3.3977,3.3977,0,0,1-.58087.34852c-.08713,0,.05809-.23234.14522-.34852s1.88782-1.88783,2.26538-2.17826a21.18485,21.18485,0,0,1,3.8047-1.77166,18.41792,18.41792,0,0,1,5.77964-.639,7.767,7.767,0,0,1,2.32348.55182c.20331.08713,2.12017.92939,3.02052,1.365.8713.43565.697.34852.72609.43565.05809.08714-.08713.029-.17427-.029a1.59381,1.59381,0,0,0-.49374-.14522c-.08713,0-.029.11617.029.20331s.49374.26139.46469.43565-.60991-.23234-.75513-.20331.14522.40661.34853.52278c.17426.11618.4066.14522.60991.29044s.14522.31948.26139.697c.11617.34852-.08713.40661-.08713.40661s-.14521.14521-.49374-.14522a4.75472,4.75472,0,0,0-.49374-.37756s-.43565-.11618-.43565-.34853.23234-.20331.05809-.34852-.55183-.11618-.697-.17427-.23235-.639-.31948-.72608-.40661-.08713-.43566.08713c-.05809.17426-.05809.26139-.14521.26139s-.14522.14522-.17427.20331c0,.05809-.11617.08713-.17426.08713a2.11045,2.11045,0,0,1-.58087-.37756c-.14521-.14522.29044,0,.4647-.14522.17426-.11617-.11617-.2033-.14522-.26139s-.34852.029-.4066.029a1.09557,1.09557,0,0,1-.55183-.29043c-.20331-.17426.029-.17426.20331-.23235s.52278.11617.75513.08713.14522-.14521.08713-.2033-.26139-.05809-.37756-.08713c-.11618,0-.17427-.14522-.14522-.23235,0-.08713.26139-.11617.29043-.17426s-.14521-.17427-.29043-.29044-.14522.029-.23234.14522-.37757.08713-.49375.11617-.029.08713-.029.2033-.08713.05809-.23235.05809-.2033-.23235-.37756-.31948a5.22714,5.22714,0,0,0-.78417-.2033,2.68617,2.68617,0,0,0-.29044.08713.667.667,0,0,1-.58087-.14522c-.29043-.2033-.37756,0-.40661,0a.89071.89071,0,0,1-.37756-.029c-.08712-.05809-.05809-.23235-.08712-.29044s-.14522-.08713-.43566-.08713a11.90084,11.90084,0,0,0-1.45217.05809c-.26139.05808-.78418.08713-1.13269.17426s-.14522.2033-.05809.2033c.05809,0,.37756,0,.668.029a5.7121,5.7121,0,0,1,.75514.05808c.23234.05809.34852.29044.49374.60992s-.31948.14522-.43565.14522c-.14522,0-.029.2033-.029.2033l.49374.14522s.40661,0,.52278.14521.14522.11618.23235.05809a.62771.62771,0,0,1,.31948-.029c.08712.029.23234.29044.31948.40662a3.8766,3.8766,0,0,1,.31948.697,2.8636,2.8636,0,0,0,.31948.668c.05809.08713.11617.31948.05809.37756a4.433,4.433,0,0,1-.90035-.029s-.23235.029-.58087-.34853-.43565-.26139-.52278-.37756a.12342.12342,0,0,1,.029-.20331,2.42666,2.42666,0,0,1-.52277-.17426c-.23235-.11617-.37757-.29043-.55183-.29043-.14522-.029-.17426.14521-.31948.29043a.55456.55456,0,0,1-.43565.08713.80253.80253,0,0,1-.14522-.34853.72884.72884,0,0,1,.05809-.29043,2.57477,2.57477,0,0,0,.17427-.60992c0-.14521-.29044-.05808-.31948-.029-.0581.029-.23235.14522-.23235.23235-.029.08713.05809.31947-.029.49374a1.99665,1.99665,0,0,0-.17427.37756c-.029.11617.05809.14521.02905.43565s-.05809.11617-.23235.08713c-.14521-.029-.26138.08712-.31948.11617s-.17426-.029-.23234-.14522a1.27919,1.27919,0,0,1,.05809-.4647c.02905-.08712.37756-.08712.37756-.08712s-.08712-.34853-.11617-.40661c0-.08713-.4647.17426-.4647.17426s-.17426.14522-.34852.26139a2.62684,2.62684,0,0,1-.72609.29044c-.37756.11617-.23234.11617-.37756.26139a.37773.37773,0,0,0-.08713.34852,1.79333,1.79333,0,0,0,.29044.08713c.23234.05809.11617.029.29043.14522.17426.14521.43565.05809.43565.34852,0,.26139-.05809.31948-.05809.55182,0,.20331.20331.029.4647,0,.23235-.029.08713-.11617.08713-.29043a.41132.41132,0,0,1,.14522-.29043.95186.95186,0,0,1,.23234.17426c.05809.05809.20331-.05809.23234-.11617a.69084.69084,0,0,0-.14521-.40661c-.08713-.11617,0-.14522.14521-.31948s.14522.26139.20331.40661c.08713.14521.08713.05809.20331-.26139s.31948-.23235.37756-.23235.29044.08713.40661.08713c.11617.029.52278.20331.72608.26139.23235.08713.20331-.029.29044-.029s.26139.08713.26139.14522-.37756.14522-.37756.14522-.08713.05809-.05809.11617.2033.11617.37756.14522.14521.23234.08712.46469-.17426.08713-.17426.08713-.26139-.029-.43565-.05809a1.593,1.593,0,0,0-.37756,0c-.11617,0-.34853.029-.34853.029a1.39044,1.39044,0,0,1,.14522-.31948.40511.40511,0,0,0,0-.31948c-.05809-.11618-.40661-.23235-.52278-.11618a8.52976,8.52976,0,0,0-.49374.75514c-.11617.14521-.05809.26139.029.29043s.40661-.029.52278.029c.14522.05809.029.31948,0,.34852,0,.029-.17426.08713-.2033.08713a.95471.95471,0,0,1-.34853-.17426.18238.18238,0,0,0-.23234-.029c-.05809,0-.14522.29044-.29044.639-.11617.34853-.029.14522.14522.40661s.26139.14521.52278.08712.29043.02905.49374.05809c.23234.05809.14522.20331.14522.20331l.23234.23235s.14522.11617.26139.2033.08713-.029.17426-.26139,0-.17426-.2033-.34852c-.23235-.17426.26139-.43565.26139-.43565a.79278.79278,0,0,0-.31948-.17427c-.20331-.05809-.11618-.29043-.11618-.46469a.82417.82417,0,0,1,.14522-.40661,1.54326,1.54326,0,0,1,.55182.05809c.29044.08713.31948.08713.37757.17426.05809.05809.17426-.17426.17426-.17426s-.02905-.34852.31948-.11617.17426.23234.37756.20331c.17426,0,.11617.14521.4647.23234a1.71936,1.71936,0,0,0,.58087.05809,1.63457,1.63457,0,0,0,.29043.05809c.08713,0,.26139.29044.40661.40661s.20331,0,.37756,0,.26139-.05809.43565.11617-.05809.14522-.29043.26139a3.45479,3.45479,0,0,1-.40661.17426l-.31948-.05809a1.4253,1.4253,0,0,0-.11617-.29043c-.05809-.11617-.20331-.05809-.40661.05809a2.37793,2.37793,0,0,0-.81321.8713c-.14522.34853.05809.26139.14521.23235s.14522-.17427.20331-.23235a.82334.82334,0,0,1,.4647-.17426c.11617,0,.26139.23234.31948.31948s.11617.029.17426-.05809a1.019,1.019,0,0,0,.14522-.23235c.05809-.05809.11617.11618.14522.29044a.6999.6999,0,0,1-.20331.52278c-.11617.11617-.14522.11617-.23234.11617s-.0581-.17426-.20331-.31948-.17427.11617-.20331.14522a.86952.86952,0,0,0-.11617.29043c0,.02905-.08713.02905-.08713.02905l-.31948.34852a.78632.78632,0,0,0,.23234.34853c.14522.14522-.37756.34852-.37756.34852l-.14521.14522v.52278a5.58158,5.58158,0,0,1-.02905.95843.458.458,0,0,1-.37756.43565,2.16131,2.16131,0,0,0-.23234.55183c-.029.2033.14521.17426.43565.46469s.2033.26139.26139.49375-.08713.14521-.31948.11617c-.26139-.029-.11618-.08713-.17427-.17427s-.29043-.14521-.34852-.2033a4.44635,4.44635,0,0,0-.37756-.4647c-.11617-.08713-.23235,0-.4647,0s-.4647.029-.40661.49374c.029.4647-.08712.05809-.46469.029a1.1139,1.1139,0,0,0-.75514.26139,6.62933,6.62933,0,0,0-.05809.78417.73872.73872,0,0,1,.05809.20331,2.89521,2.89521,0,0,0-.11617.31948c-.029.14522.08713.26139.11617.37756s.37757.34853.639.58087a.463.463,0,0,0,.52278.08713.544.544,0,0,0,.37756-.29044,3.61474,3.61474,0,0,1,.31948-.668.52685.52685,0,0,1,.37757-.08713c.14521.029.08712.37756.08712.37756s-.17426.55183-.23234.697c-.02905.14522-.02905.11618.08713.23235s.17426,0,.34852-.08713.17426-.20331.26139-.23234.20331.029.49374.23234.11617.20331,0,.49374c-.11617.26139,0,.11618.11617.26139a2.71969,2.71969,0,0,0,.40661.4647c.17426.17426.26139.029.26139.029a.57483.57483,0,0,1,.81321-.43566c.668.29044.31948-.029.52278-.14521.20331-.14522.26139-.668.58087-.84226s.05809-.26139.17426-.29044c.14522-.029.11618.29044.26139.37756s.05809-.17426.08713-.43565c0-.26139.05809-.23234.37756-.029s.14522.14522.43565.17426.17427-.20331.52278-.40661c.34853-.23234.34853-.08712.49375,0s.52277.08713.75513.20331a4.41166,4.41166,0,0,0,.58087.17426c.23234.08713.31948-.23234.49374-.34852a.37891.37891,0,0,1,.40661.029,2.19769,2.19769,0,0,0,.43565-.029c.05809,0,.75513.26139.52278.639s.08712.26139.08712.26139.29044-.08713.78418-.26139c.4647-.17426.49374-.20331.668-.26139.17426-.029.46469.029.668,0,.20331,0,.26139-.17426.668,0s0,.78418,0,1.365c-.11613.639-.14517.92941-.14517.92941Z"/><path class="cls-4" d="M140.93213,46.10948a2.4898,2.4898,0,0,0-.37757.08712c-.05809.02905-.14521.05809-.2033.08713a.63659.63659,0,0,0,.08712.23234l.29044-.029s.26139-.11617.26139-.17426c.029-.05808.08713-.17425-.05808-.20329m2.643,2.84626c.05809-.05809.31948-.14522.37756-.05809.05809.05809.14522.23234.05809.23234s-.14521-.23234-.2033.05809a2.45038,2.45038,0,0,0-.02905.60992.6323.6323,0,0,0,.14522.23234c.05809,0,.17426.17427.23234.029.08713-.14522-.14521-.49374-.14521-.60992s0-.2033.05809-.26139a.21338.21338,0,0,1,.17426-.05809c.05809,0,.08713-.08712.14522-.029s.05809.11617.08712.17426a.40534.40534,0,0,0,.14522.11617s.14522-.08712.17426-.029c.029.029-.20331.05809.05809.14522s.26139.26139.34853.05809a.88914.88914,0,0,0,.08712-.26139s-.14521-.029-.17426,0c-.05809,0-.14522,0-.14522-.05809a1.32934,1.32934,0,0,0-.11617-.43566.43744.43744,0,0,0-.23234-.11617,2.25162,2.25162,0,0,0-.26139.02905l-.26139-.20331-.23234-.05809-.17427-.029a.97078.97078,0,0,0-.34852.14522c-.08713.05809-.29044.05809-.23235.20331.14521.08714.4066.20332.46469.17427m-2.99148-3.22383a1.09939,1.09939,0,0,0-.23234-.34852c-.17427,0-.43566,0-.29044.14522.14522.17426.23235.29043.31948.29043.08713.029.26139.08714.2033-.08713"/><path class="cls-5" d="M145.9276,53.89313c-.02905.08713-.02905.20331.08712.23234a2.2975,2.2975,0,0,0,.668-.23234c.14522-.05809.4647.14522.4647.14522a.65386.65386,0,0,0,.37756.029,3.211,3.211,0,0,0,.37756-.20331s.11617-.11617-.11617-.17426a4.83735,4.83735,0,0,1-.75514-.17426c-.17426-.05809-.26138-.11617-.4066-.029-.17425.11618-.697.40662-.697.40662m2.46869-.11617s-.17426.37756-.14522.46469c.02905.0581.52278.029.52278.029a3.31374,3.31374,0,0,0,.43565-.17426c.08713-.05809.37756-.14522.23235-.29044a.492.492,0,0,0-.31948-.14521l-.72608.11617m-.40661-11.67548c-.05809.029-.31948.23235-.2033.37757s.52277.29043.639.11617a1.77731,1.77731,0,0,0,.17426-.37756c0-.08713-.14522-.2033-.23235-.23235-.05809-.029-.37757.11617-.37757.11617m7.23182,1.56835a1.81745,1.81745,0,0,1-.23234-.49375s-.02905-.26138.05809-.2033.17426.26139.23234.26139.17427-.17427.17427-.17427a24.54859,24.54859,0,0,1,1.91687,1.94592,17.71335,17.71335,0,0,1,1.59739,2.29443c.20331.43565.81321,1.51026.81321,1.51026l.29044.87131s.2033.34852.05809.31948c-.11619-.029-.60992-1.04557-.69705-.90035a.88567.88567,0,0,0-.08712.4647,2.42831,2.42831,0,0,1-.20331.46469s-.697-.639-.84226-.639a1.30856,1.30856,0,0,1-.43565-.17426.72956.72956,0,0,0-.23234-.98747c-.58087-.43566-.55183-.37757-.78418-.58087a2.754,2.754,0,0,1-.52278-.52278c0-.08713-.31948-.37756-.31948-.37756l.05809-.78418s-.23234-.29044-.37756-.43565a2.2716,2.2716,0,0,1-.37756-.58087l-.05809-.81322-.02907-.46469"/><path class="cls-3" d="M190.18984,65.62669c.17425,0,.29043-.14522.29043-.37756a.291.291,0,0,0-.29043-.29044h-.34853v.668Zm.639,1.24886c-.08713,0-.23234,0-.29044-.11617l-.37756-.668h-.29043v.81322h-.29044c-.11618,0-.2033-.05809-.2033-.11617V64.523h.92939a.70167.70167,0,0,1,.75512.75513.73918.73918,0,0,1-.40661.697l.58087.95843h-.4066Zm-.668-2.96243a1.79848,1.79848,0,0,0-1.8007,1.74261v.029a1.78508,1.78508,0,0,0,1.8007,1.77165,1.804,1.804,0,0,0,1.80069-1.77165,1.82347,1.82347,0,0,0-1.80069-1.77166Zm0,4.008a2.24365,2.24365,0,0,1-2.26539-2.23635h0a2.23728,2.23728,0,0,1,2.23635-2.23635h.029a2.23654,2.23654,0,1,1,0,4.4727Zm-52.133,10.36852.75513-1.71356a.62268.62268,0,0,1,.55182-.31948h4.79218a5.19773,5.19773,0,0,1,.05809.84225,6.01228,6.01228,0,1,1-5.983-5.95391,6.46079,6.46079,0,0,1,4.18226,1.5393l-.84226,1.45218a.48461.48461,0,0,1-.668.14521,4.91685,4.91685,0,0,0-2.701-.95843,3.7764,3.7764,0,1,0,3.54329,4.96644h-3.68851m13.50521.34851a2.18471,2.18471,0,1,0-4.35652,0,2.18471,2.18471,0,1,0,4.35652,0m-2.17826,4.38557a4.41545,4.41545,0,1,1,4.50174-4.41461,4.4321,4.4321,0,0,1-4.50174,4.41461m4.50174-1.59739a1.61156,1.61156,0,0,1,1.59739-1.59739,1.59274,1.59274,0,0,1,1.59739,1.59739,1.61157,1.61157,0,0,1-1.59739,1.59739,1.59274,1.59274,0,0,1-1.59739-1.59739m10.65894-4.61791a1.68555,1.68555,0,0,0,0-3.369h-1.56835v3.369Zm-3.22382,6.09913a.7189.7189,0,0,1-.75512-.697V71.26112h4.24034a3.86288,3.86288,0,0,1,0,7.72555h-1.82973v3.92088Zm8.39355,0V71.14494h1.65549a.56466.56466,0,0,1,.58086.58087V82.90755h-2.23635m10.07809-4.2694a2.31649,2.31649,0,0,0-2.2073-2.35252,2.3573,2.3573,0,1,0,2.2073,2.35252m0,4.2694V81.891a3.47984,3.47984,0,0,1-2.55582,1.13269,4.40932,4.40932,0,0,1,0-8.80018,3.5591,3.5591,0,0,1,2.55582,1.16174V74.36876h1.65548a.56466.56466,0,0,1,.58087.58087v7.95792h-2.23635m4.38557,3.80469,1.85879-4.55983-3.13669-7.81268h1.8007a.85585.85585,0,0,1,.81321.58086l1.71357,4.38557,2.03305-4.96643h1.80069c.34853,0,.46469.26138.31948.58086l-4.85028,11.79165H184.1488m5.5473-5.28591a1.61156,1.61156,0,0,1,1.59739-1.59739,1.59275,1.59275,0,0,1,1.59739,1.59739,1.61157,1.61157,0,0,1-1.59739,1.59739,1.59274,1.59274,0,0,1-1.59739-1.59739"/></svg>