<svg width="3515" height="1852" xmlns="http://www.w3.org/2000/svg" xmlns:xlink="http://www.w3.org/1999/xlink" xml:space="preserve" overflow="hidden"><defs><clipPath id="clip0"><rect x="504" y="297" width="3515" height="1852"/></clipPath><clipPath id="clip1"><rect x="651" y="657" width="321" height="321"/></clipPath><clipPath id="clip2"><rect x="651" y="657" width="321" height="321"/></clipPath><clipPath id="clip3"><rect x="651" y="657" width="321" height="321"/></clipPath><clipPath id="clip4"><rect x="2306" y="765" width="153" height="152"/></clipPath><clipPath id="clip5"><rect x="2306" y="765" width="153" height="152"/></clipPath><clipPath id="clip6"><rect x="2306" y="765" width="153" height="152"/></clipPath><clipPath id="clip7"><rect x="720" y="1436" width="232" height="195"/></clipPath><clipPath id="clip8"><rect x="720" y="1436" width="232" height="195"/></clipPath><clipPath id="clip9"><rect x="720" y="1436" width="232" height="195"/></clipPath><clipPath id="clip10"><rect x="3440" y="719" width="152" height="150"/></clipPath><clipPath id="clip11"><rect x="3440" y="719" width="152" height="150"/></clipPath><clipPath id="clip12"><rect x="3440" y="719" width="152" height="150"/></clipPath><clipPath id="clip13"><rect x="2291" y="1434" width="192" height="191"/></clipPath><clipPath id="clip14"><rect x="2291" y="1434" width="192" height="191"/></clipPath><clipPath id="clip15"><rect x="2291" y="1434" width="192" height="191"/></clipPath><clipPath id="clip16"><rect x="3422" y="1436" width="189" height="189"/></clipPath><clipPath id="clip17"><rect x="3422" y="1436" width="189" height="189"/></clipPath><clipPath id="clip18"><rect x="3422" y="1436" width="189" height="189"/></clipPath></defs><g clip-path="url(#clip0)" transform="translate(-504 -297)"><rect x="1183.5" y="428.5" width="2831" height="1716" stroke="#595959" stroke-width="4.58333" stroke-linecap="butt" stroke-linejoin="miter" stroke-miterlimit="8" stroke-dasharray="18.3333 13.75" stroke-opacity="1" fill="none"/><rect x="2260.5" y="699.5" width="257" height="1009" stroke="#595959" stroke-width="17.1875" stroke-linecap="butt" stroke-linejoin="miter" stroke-miterlimit="8" stroke-opacity="1" fill="none"/><text fill="#000000" fill-opacity="1" font-family="Calibri,Calibri_MSFontService,sans-serif" font-style="normal" font-variant="normal" font-weight="400" font-stretch="normal" font-size="64" text-anchor="start" direction="ltr" writing-mode="lr-tb" unicode-bidi="normal" text-decoration="none" transform="matrix(1 0 0 1 2294.88 1225)">Service</text><path d="M1030.92 792.854 2221.73 792.855 2221.73 795.146 1030.92 795.146ZM1035.5 807.75 1008 794 1035.5 780.25ZM2217.15 780.25 2244.65 794 2217.15 807.75Z" fill="#000000" fill-rule="nonzero" fill-opacity="1"/><text fill="#000000" fill-opacity="1" font-family="Calibri,Calibri_MSFontService,sans-serif" font-style="normal" font-variant="normal" font-weight="400" font-stretch="normal" font-size="64" text-anchor="start" direction="ltr" writing-mode="lr-tb" unicode-bidi="normal" text-decoration="none" transform="matrix(1 0 0 1 1657.44 980)">API</text><rect x="3403.5" y="699.5" width="210" height="1010" stroke="#595959" stroke-width="4.58333" stroke-linecap="butt" stroke-linejoin="miter" stroke-miterlimit="8" stroke-opacity="1" fill="none"/><text fill="#000000" fill-opacity="1" font-family="Calibri,Calibri_MSFontService,sans-serif" font-style="normal" font-variant="normal" font-weight="400" font-stretch="normal" font-size="64" text-anchor="start" direction="ltr" writing-mode="lr-tb" unicode-bidi="normal" text-decoration="none" transform="matrix(1 0 0 1 3447.24 1187)">Data </text><text fill="#000000" fill-opacity="1" font-family="Calibri,Calibri_MSFontService,sans-serif" font-style="normal" font-variant="normal" font-weight="400" font-stretch="normal" font-size="64" text-anchor="start" direction="ltr" writing-mode="lr-tb" unicode-bidi="normal" text-decoration="none" transform="matrix(1 0 0 1 3439.26 1264)">Store</text><text fill="#000000" fill-opacity="1" font-family="Calibri,Calibri_MSFontService,sans-serif" font-style="normal" font-variant="normal" font-weight="400" font-stretch="normal" font-size="64" text-anchor="start" direction="ltr" writing-mode="lr-tb" unicode-bidi="normal" text-decoration="none" transform="matrix(1 0 0 1 2888.44 978)">API</text><rect x="1183" y="313" width="2831" height="120" fill="#595959" fill-opacity="1"/><text fill="#FFFFFF" fill-opacity="1" font-family="Calibri,Calibri_MSFontService,sans-serif" font-style="normal" font-variant="normal" font-weight="400" font-stretch="normal" font-size="83" text-anchor="start" direction="ltr" writing-mode="lr-tb" unicode-bidi="normal" text-decoration="none" transform="matrix(1 0 0 1 2406.83 400)">Kubernetes</text><g clip-path="url(#clip1)"><g clip-path="url(#clip2)"><g clip-path="url(#clip3)"><path d="M731 791.35C747.569 791.35 761 777.919 761 761.35 761 744.781 747.569 731.35 731 731.35 714.431 731.35 701 744.781 701 761.35 701 777.919 714.431 791.35 731 791.35ZM731 738C743.887 738 754.333 748.447 754.333 761.333 754.333 774.22 743.887 784.667 731 784.667 718.113 784.667 707.667 774.22 707.667 761.333 707.683 748.454 718.12 738.017 731 738Z" stroke="#000000" stroke-width="3.33333" stroke-linecap="butt" stroke-linejoin="miter" stroke-miterlimit="4" stroke-opacity="1" fill="#000000" fill-rule="nonzero" fill-opacity="1"/><path d="M891 791.35C907.569 791.35 921 777.919 921 761.35 921 744.781 907.569 731.35 891 731.35 874.431 731.35 861 744.781 861 761.35 861 777.919 874.431 791.35 891 791.35ZM891 738C903.887 738 914.333 748.447 914.333 761.333 914.333 774.22 903.887 784.667 891 784.667 878.113 784.667 867.667 774.22 867.667 761.333 867.683 748.454 878.12 738.017 891 738Z" stroke="#000000" stroke-width="3.33333" stroke-linecap="butt" stroke-linejoin="miter" stroke-miterlimit="4" stroke-opacity="1" fill="#000000" fill-rule="nonzero" fill-opacity="1"/><path d="M944 816.297C935.504 809.671 925.669 804.973 915.177 802.527 907.322 800.181 899.194 798.872 891 798.633 882.811 798.642 874.675 799.95 866.897 802.51 861.366 803.942 856.011 805.982 850.93 808.593 850.848 811.335 850.482 814.061 849.837 816.727 855.764 813.279 862.131 810.649 868.763 808.907 875.941 806.548 883.445 805.331 891 805.3 898.62 805.546 906.177 806.778 913.48 808.967 923.082 811.174 932.084 815.458 939.853 821.517L940.14 821.73C942.882 823.707 944.455 826.922 944.333 830.3L944.333 855.3 951 855.3 951 830.3C951.122 824.763 948.502 819.522 944 816.297Z" stroke="#000000" stroke-width="3.33333" stroke-linecap="butt" stroke-linejoin="miter" stroke-miterlimit="4" stroke-opacity="1" fill="#000000" fill-rule="nonzero" fill-opacity="1"/><path d="M772.023 816.21C771.417 813.576 771.081 810.886 771.023 808.183 765.937 805.782 760.627 803.884 755.17 802.517 747.317 800.175 739.191 798.869 731 798.633 722.811 798.642 714.675 799.95 706.897 802.51 696.464 805.355 686.631 810.063 677.873 816.407 673.561 819.726 671.032 824.858 671.027 830.3L671.027 855.3 677.693 855.3 677.693 830.3C677.7 826.937 679.26 823.765 681.92 821.707 690.031 815.863 699.129 811.527 708.777 808.907 715.95 806.55 723.449 805.333 731 805.3 738.62 805.546 746.177 806.778 753.48 808.967 759.953 810.553 766.188 812.989 772.023 816.21Z" stroke="#000000" stroke-width="3.33333" stroke-linecap="butt" stroke-linejoin="miter" stroke-miterlimit="4" stroke-opacity="1" fill="#000000" fill-rule="nonzero" fill-opacity="1"/><path d="M864 862.333C855.505 855.707 845.669 851.008 835.177 848.563 827.322 846.218 819.194 844.908 811 844.667 802.813 844.675 794.68 845.983 786.903 848.543 776.469 851.386 766.636 856.094 757.88 862.44 753.554 865.752 751.012 870.885 751 876.333L751 901.333 757.667 901.333 757.667 876.333C757.673 872.969 759.234 869.797 761.897 867.74 770.006 861.895 779.103 857.559 788.75 854.94 795.932 852.58 803.44 851.363 811 851.333 818.622 851.578 826.179 852.81 833.483 855 843.085 857.205 852.086 861.487 859.853 867.547L860.14 867.76C862.882 869.738 864.455 872.955 864.333 876.333L864.333 901.333 871 901.333 871 876.333C871.121 870.797 868.501 865.558 864 862.333Z" stroke="#000000" stroke-width="3.33333" stroke-linecap="butt" stroke-linejoin="miter" stroke-miterlimit="4" stroke-opacity="1" fill="#000000" fill-rule="nonzero" fill-opacity="1"/><path d="M811 837.383C827.569 837.383 841 823.952 841 807.383 841 790.815 827.569 777.383 811 777.383 794.431 777.383 781 790.815 781 807.383 781 823.952 794.431 837.383 811 837.383ZM811 784.05C823.887 784.05 834.333 794.497 834.333 807.383 834.333 820.27 823.887 830.717 811 830.717 798.113 830.717 787.667 820.27 787.667 807.383 787.676 794.498 798.114 784.052 811 784.033Z" stroke="#000000" stroke-width="3.33333" stroke-linecap="butt" stroke-linejoin="miter" stroke-miterlimit="4" stroke-opacity="1" fill="#000000" fill-rule="nonzero" fill-opacity="1"/></g></g></g><g clip-path="url(#clip4)"><g clip-path="url(#clip5)"><g clip-path="url(#clip6)"><path d="M116.406 60.0173C117.514 58.0904 118.405 56.0466 119.063 53.9235L125.938 50.486 125.938 42.6735 119.063 39.236C118.488 37.108 117.648 35.0607 116.563 33.1422L119.063 25.7985 113.438 20.1735 106.094 22.6735C104.176 21.5819 102.129 20.7363 100 20.1563L96.5626 13.2813 88.7501 13.2813 85.3126 20.1563C83.1845 20.7305 81.1372 21.5703 79.2189 22.6563L71.8751 20.1563 66.2501 25.7813 68.7501 33.1251C67.6646 35.0435 66.8248 37.0908 66.2501 39.2188L59.3751 42.6563 59.3751 50.4688 66.2501 53.9063C66.8249 56.0343 67.6649 58.0815 68.7501 60.0001L66.2501 67.3438 71.7189 72.8126 79.0626 70.3126C80.9811 71.3981 83.0284 72.2379 85.1564 72.8126L88.5939 79.6876 96.4064 79.6876 99.8439 72.8126C101.972 72.2381 104.019 71.3982 105.938 70.3126L113.281 72.8126 118.906 67.3438ZM113.447 61.0235 115.313 66.5001 112.477 69.2579 106.945 67.3735 105.595 66.9142 104.363 67.6329C102.671 68.5892 100.864 69.3268 98.9861 69.8282L97.6642 70.2064 97.0486 71.4361 94.4751 76.5923 90.5298 76.5923 87.9564 71.4361 87.3408 70.2064 86.0189 69.8282C84.1406 69.3268 82.3334 68.5892 80.6407 67.6329L79.4095 66.9142 78.0595 67.3735 72.5564 69.2485 69.8376 66.5298 71.7126 61.0251 72.172 59.6751 71.4532 58.4438C70.4992 56.7506 69.764 54.9427 69.2657 53.0641L68.8876 51.7423 67.6595 51.1282 62.5001 48.5516 62.5001 44.6001 67.6563 42.0313 68.8845 41.4157 69.2626 40.0938C69.7612 38.2157 70.4962 36.4086 71.4501 34.7157L72.1689 33.4829 71.7095 32.1344 69.8345 26.6282 72.7095 23.7532 78.2126 25.6282 79.5626 26.0969 80.7939 25.3766C82.4868 24.423 84.294 23.688 86.172 23.1891L87.5001 22.7891 88.1158 21.5594 90.6892 16.4032 94.6392 16.4032 97.2126 21.5594 97.8283 22.7891 99.1486 23.1672C101.027 23.6658 102.834 24.4008 104.527 25.3547L105.76 26.075 107.11 25.6063 112.611 23.7313 115.486 26.6063 113.611 32.1125 113.152 33.461 113.87 34.6938C114.826 36.3866 115.564 38.1938 116.066 40.0719L116.442 41.3938 117.672 42.0094 122.828 44.5844 122.828 48.536 117.672 51.111 116.477 51.7095 116.083 52.9876C115.495 54.8859 114.701 56.7135 113.713 58.4376L112.994 59.6688Z" fill="#000000" fill-rule="nonzero" fill-opacity="1" transform="matrix(1.00667 0 0 1 2307 766)"/><path d="M24.0625 99.4033 24.0625 107.216 30.9375 110.653C31.5122 112.781 32.3521 114.829 33.4375 116.747L31.0938 124.091 36.5626 129.56 43.9063 127.216C45.8246 128.302 47.8719 129.141 50.0001 129.716L53.4376 136.591 61.2501 136.591 64.6876 129.716C66.8156 129.141 68.8629 128.301 70.7814 127.216L78.1251 129.716 83.5939 124.091 81.2501 116.903C82.3356 114.985 83.1754 112.938 83.7501 110.81L90.6251 107.372 90.6251 99.5595 83.7501 96.122C83.1754 93.994 82.3356 91.9467 81.2501 90.0283L83.7501 82.6845 78.1251 77.0595 70.7814 79.5595C68.8501 78.5007 66.806 77.6622 64.6876 77.0595L61.2501 70.1845 53.4376 70.1845 50.0001 77.0595C47.8719 77.6339 45.8246 78.4737 43.9063 79.5595L36.5626 77.0595 31.0938 82.5283 33.4375 89.872C32.379 91.8034 31.5404 93.8473 30.9375 95.9658ZM33.5313 98.1533 33.9251 96.8751C34.4627 94.9872 35.2046 93.1633 36.1376 91.4361L36.8376 90.2345 36.4141 88.9111 34.6501 83.3783 37.3969 80.6298 42.9001 82.5048 44.2501 82.9658 45.4813 82.247C47.1737 81.2901 48.9809 80.5523 50.8595 80.0517L52.1876 79.6876 52.8032 78.4579 55.3767 73.3017 59.3267 73.3017 61.9001 78.4579 62.4985 79.6548 63.7767 80.047C65.664 80.5859 67.4871 81.3284 69.2142 82.2611L70.447 82.9798 71.797 82.5189 77.2986 80.6439 80.1736 83.5204 78.2986 89.0251 77.8392 90.3736 78.5579 91.6064C79.5142 93.2997 80.2518 95.1072 80.7533 96.9861L81.1298 98.3064 82.3595 98.922 87.5001 101.491 87.5001 105.442 82.3439 108.017 81.1142 108.633 80.7376 109.953C80.2362 111.832 79.4986 113.64 78.5423 115.333L77.8361 116.544 78.2704 117.877 80.0298 123.272 77.2657 126.128 71.797 124.264 70.447 123.805 69.2142 124.524C67.5206 125.481 65.7117 126.219 63.8313 126.719L62.5095 127.097 61.8954 128.327 59.322 133.483 55.372 133.483 52.7985 128.327 52.1829 127.097 50.861 126.719C48.9824 126.218 47.1752 125.481 45.4829 124.524L44.2829 123.824 42.9579 124.245 37.4282 126.011 34.6516 123.235 36.4157 117.702 36.8391 116.378 36.1391 115.177C35.1824 113.484 34.4447 111.677 33.9438 109.799L33.5657 108.477 32.3375 107.861 27.1813 105.286 27.1813 101.335 32.3375 98.7595Z" fill="#000000" fill-rule="nonzero" fill-opacity="1" transform="matrix(1.00667 0 0 1 2307 766)"/><path d="M92.6564 34.8532C86.1844 34.8532 80.9376 40.0999 80.9376 46.5719 80.9376 53.044 86.1844 58.2907 92.6564 58.2907 99.1284 58.2907 104.375 53.044 104.375 46.5719 104.327 40.1201 99.1083 34.9016 92.6564 34.8532ZM92.6564 55.1657C87.9131 55.1588 84.0695 51.3152 84.0626 46.5719 84.1258 41.8521 87.9365 38.0413 92.6564 37.9782 97.3997 37.9851 101.243 41.8287 101.25 46.5719 101.191 51.2946 97.3789 55.1096 92.6564 55.172Z" fill="#000000" fill-rule="nonzero" fill-opacity="1" transform="matrix(1.00667 0 0 1 2307 766)"/><path d="M57.3438 115.189C63.8159 115.189 69.0626 109.943 69.0626 103.47 69.0626 96.9984 63.8159 91.7517 57.3438 91.7517 50.8718 91.7517 45.6251 96.9984 45.6251 103.47 45.6173 109.935 50.8513 115.181 57.3157 115.189 57.3251 115.189 57.3345 115.189 57.3438 115.189ZM57.3438 94.8689C62.0901 94.8689 65.9376 98.7164 65.9376 103.463 65.9376 108.209 62.0901 112.056 57.3438 112.056 52.5976 112.056 48.7501 108.209 48.7501 103.463 48.7569 98.7194 52.6005 94.8758 57.3438 94.8689Z" fill="#000000" fill-rule="nonzero" fill-opacity="1" transform="matrix(1.00667 0 0 1 2307 766)"/></g></g></g><g clip-path="url(#clip7)"><g clip-path="url(#clip8)"><g clip-path="url(#clip9)"><path d="M41.9313 124.684C42.5125 124.684 43.0654 124.433 43.4472 123.995L53.1635 112.837C53.9134 112.018 53.8573 110.746 53.0383 109.996 52.2194 109.247 50.9476 109.303 50.1979 110.121 50.176 110.146 50.1545 110.17 50.1338 110.195L40.4094 121.353C39.6798 122.19 39.7671 123.46 40.6042 124.189 40.9697 124.508 41.4383 124.684 41.9233 124.684Z" stroke="#C00000" stroke-width="2.01052" stroke-linecap="butt" stroke-linejoin="miter" stroke-miterlimit="4" stroke-opacity="1" fill="#C00000" fill-rule="nonzero" fill-opacity="1" transform="matrix(1.20207 0 0 1 720 1437)"/><path d="M84.4155 119.077C85.2898 119.761 86.5533 119.607 87.2377 118.733 87.922 117.859 87.768 116.595 86.8937 115.911 86.8435 115.871 86.7914 115.834 86.7375 115.8L74.6569 107.258C73.7504 106.617 72.4955 106.832 71.8544 107.738 71.2132 108.645 71.4284 109.9 72.3349 110.541Z" stroke="#C00000" stroke-width="2.01052" stroke-linecap="butt" stroke-linejoin="miter" stroke-miterlimit="4" stroke-opacity="1" fill="#C00000" fill-rule="nonzero" fill-opacity="1" transform="matrix(1.20207 0 0 1 720 1437)"/><path d="M44.5871 150.327C44.1351 151.341 44.5907 152.53 45.6049 152.982 46.619 153.434 47.8076 152.978 48.2597 151.964 48.2673 151.946 48.275 151.929 48.2822 151.911 53.0805 140.68 66.075 135.464 77.3066 140.263 80.883 141.79 83.9931 144.234 86.3234 147.348 86.9896 148.236 88.2497 148.416 89.1379 147.75 90.0261 147.083 90.2063 145.823 89.54 144.935 80.8884 133.381 64.5085 131.028 52.9544 139.68 49.278 142.433 46.392 146.106 44.5871 150.329Z" stroke="#C00000" stroke-width="2.01052" stroke-linecap="butt" stroke-linejoin="miter" stroke-miterlimit="4" stroke-opacity="1" fill="#C00000" fill-rule="nonzero" fill-opacity="1" transform="matrix(1.20207 0 0 1 720 1437)"/><path d="M65.037 176.917C66.8082 176.916 68.578 176.81 70.3365 176.599L70.7386 176.551C94.8807 173.653 112.103 151.733 109.206 127.591L106.391 104.108C111.742 107.211 117.689 109.147 123.842 109.789L124.244 109.831C125.789 109.993 127.341 110.074 128.894 110.074 151.41 110.045 170.276 93.0317 172.625 70.6381L177.263 26.4511 89.2867 17.2172 84.6487 61.4042C83.782 69.6027 85.2454 77.8796 88.8706 85.284L16.0833 94.0172 21.3768 138.13C24.0275 160.239 42.769 176.889 65.037 176.917ZM88.6474 61.8244 92.8693 21.6361 172.846 30.0316 168.624 70.2199C166.54 90.5927 149.369 106.078 128.89 106.054 127.48 106.053 126.071 105.979 124.668 105.832L124.266 105.79C102.291 103.487 86.3437 83.8057 88.6468 61.8306 88.647 61.8286 88.6472 61.8264 88.6474 61.8244ZM90.9534 89.0816C93.8447 93.774 97.5873 97.8847 101.989 101.202L105.205 128.07C107.811 149.997 92.1801 169.896 70.2601 172.558L69.858 172.607C68.2569 172.799 66.6458 172.896 65.033 172.896 44.8024 172.866 27.7778 157.738 25.3695 137.651L20.5545 97.5294Z" stroke="#C00000" stroke-width="2.01052" stroke-linecap="butt" stroke-linejoin="miter" stroke-miterlimit="4" stroke-opacity="1" fill="#C00000" fill-rule="nonzero" fill-opacity="1" transform="matrix(1.20207 0 0 1 720 1437)"/><path d="M126.138 89.8155C135.424 90.7821 144.522 86.7317 150.017 79.1844 150.671 78.2851 150.472 77.0262 149.572 76.3728 148.673 75.7194 147.414 75.9188 146.761 76.8181 139.588 86.7035 125.759 88.9025 115.874 81.7298 112.726 79.4455 110.236 76.3714 108.655 72.8174 108.202 71.8037 107.013 71.3492 105.999 71.8021 104.986 72.2551 104.531 73.4442 104.984 74.4579 108.801 82.976 116.856 88.8243 126.138 89.8155Z" stroke="#C00000" stroke-width="2.01052" stroke-linecap="butt" stroke-linejoin="miter" stroke-miterlimit="4" stroke-opacity="1" fill="#C00000" fill-rule="nonzero" fill-opacity="1" transform="matrix(1.20207 0 0 1 720 1437)"/><path d="M108.132 46.2396 122.129 47.7072C122.2 47.7153 122.271 47.7193 122.342 47.7193 123.452 47.7748 124.397 46.9198 124.453 45.8094 124.508 44.699 123.653 43.7539 122.543 43.6985L108.563 42.2288C107.455 42.11 106.461 42.9116 106.342 44.0191 106.223 45.1267 107.025 46.1208 108.132 46.2396Z" stroke="#C00000" stroke-width="2.01052" stroke-linecap="butt" stroke-linejoin="miter" stroke-miterlimit="4" stroke-opacity="1" fill="#C00000" fill-rule="nonzero" fill-opacity="1" transform="matrix(1.20207 0 0 1 720 1437)"/><path d="M138.116 49.3779 152.112 50.8455C152.182 50.8535 152.253 50.8576 152.323 50.8576 153.434 50.913 154.379 50.058 154.434 48.9477 154.49 47.8373 153.635 46.8922 152.524 46.8367L138.528 45.3671C137.423 45.2511 136.433 46.0527 136.317 47.1574 136.201 48.2621 137.003 49.2518 138.108 49.3678Z" stroke="#C00000" stroke-width="2.01052" stroke-linecap="butt" stroke-linejoin="miter" stroke-miterlimit="4" stroke-opacity="1" fill="#C00000" fill-rule="nonzero" fill-opacity="1" transform="matrix(1.20207 0 0 1 720 1437)"/></g></g></g><g clip-path="url(#clip10)"><g clip-path="url(#clip11)"><g clip-path="url(#clip12)"><path d="M116.406 60.0171C117.514 58.0903 118.405 56.0465 119.062 53.9234L125.937 50.4859 125.937 42.6734 119.062 39.2359C118.488 37.1079 117.648 35.0606 116.562 33.1422L119.062 25.7984 113.437 20.1734 106.094 22.6734C104.176 21.5819 102.129 20.7362 99.9999 20.1562L96.5624 13.2812 88.7499 13.2812 85.3124 20.1562C83.1843 20.7305 81.137 21.5703 79.2187 22.6562L71.8749 20.1562 66.2499 25.7812 68.7499 33.125C67.6645 35.0434 66.8246 37.0908 66.2499 39.2187L59.375 42.6562 59.375 50.4687 66.2499 53.9062C66.8248 56.0342 67.6648 58.0814 68.7499 60L66.2499 67.3437 71.7187 72.8124 79.0624 70.3124C80.9809 71.3979 83.0282 72.2378 85.1562 72.8124L88.5937 79.6874 96.4062 79.6874 99.8437 72.8124C101.972 72.2379 104.019 71.3981 105.937 70.3124L113.281 72.8124 118.906 67.3437ZM113.447 61.0234 115.312 66.4999 112.476 69.2578 106.945 67.3734 105.595 66.914 104.362 67.6328C102.67 68.589 100.864 69.3267 98.9859 69.8281L97.664 70.2062 97.0484 71.4359 94.4749 76.5921 90.5296 76.5921 87.9562 71.4359 87.3406 70.2062 86.0187 69.8281C84.1404 69.3267 82.3332 68.589 80.6406 67.6328L79.4093 66.914 78.0593 67.3734 72.5562 69.2484 69.8374 66.5296 71.7124 61.0249 72.1718 59.675 71.4531 58.4437C70.499 56.7504 69.7638 54.9426 69.2656 53.064L68.8874 51.7421 67.6593 51.1281 62.4999 48.5515 62.4999 44.6 67.6562 42.0312 68.8843 41.4156 69.2624 40.0937C69.761 38.2156 70.496 36.4086 71.4499 34.7156L72.1687 33.4828 71.7093 32.1343 69.8343 26.6281 72.7093 23.7531 78.2124 25.6281 79.5624 26.0969 80.7937 25.3765C82.4866 24.4229 84.2938 23.688 86.1718 23.189L87.4999 22.789 88.1156 21.5594 90.689 16.4031 94.639 16.4031 97.2124 21.5594 97.828 22.789 99.1484 23.1672C101.026 23.6658 102.834 24.4008 104.526 25.3547L105.759 26.075 107.109 25.6062 112.611 23.7312 115.486 26.6062 113.611 32.1125 113.151 33.4609 113.87 34.6937C114.826 36.3865 115.564 38.1937 116.066 40.0718L116.442 41.3937 117.672 42.0093 122.828 44.5843 122.828 48.5359 117.672 51.1109 116.476 51.7093 116.083 52.9875C115.495 54.8857 114.7 56.7134 113.712 58.4375L112.994 59.6687Z" fill="#000000" fill-rule="nonzero" fill-opacity="1" transform="matrix(1 0 0 1 3441 719)"/><path d="M24.0625 99.403 24.0625 107.216 30.9375 110.653C31.5122 112.781 32.352 114.828 33.4375 116.747L31.0937 124.091 36.5625 129.559 43.9062 127.216C45.8245 128.301 47.8718 129.141 50 129.716L53.4375 136.591 61.25 136.591 64.6874 129.716C66.8154 129.141 68.8628 128.301 70.7812 127.216L78.1249 129.716 83.5937 124.091 81.2499 116.903C82.3354 114.985 83.1752 112.937 83.7499 110.809L90.6249 107.372 90.6249 99.5593 83.7499 96.1218C83.1752 93.9938 82.3354 91.9465 81.2499 90.0281L83.7499 82.6843 78.1249 77.0593 70.7812 79.5593C68.8499 78.5006 66.8059 77.662 64.6874 77.0593L61.25 70.1843 53.4375 70.1843 50 77.0593C47.8718 77.6337 45.8245 78.4735 43.9062 79.5593L36.5625 77.0593 31.0937 82.5281 33.4375 89.8718C32.3789 91.8032 31.5403 93.8471 30.9375 95.9655ZM33.5312 98.153 33.925 96.8749C34.4626 94.9869 35.2045 93.163 36.1375 91.4359L36.8375 90.2343 36.414 88.9109 34.65 83.3781 37.3968 80.6296 42.9 82.5046 44.25 82.9656 45.4812 82.2468C47.1736 81.2899 48.9807 80.5521 50.8593 80.0515L52.1875 79.6874 52.8031 78.4577 55.3765 73.3015 59.3265 73.3015 61.8999 78.4577 62.4984 79.6546 63.7765 80.0468C65.6638 80.5857 67.487 81.3282 69.214 82.2609L70.4468 82.9796 71.7968 82.5187 77.2984 80.6437 80.1734 83.5202 78.2984 89.0249 77.839 90.3734 78.5577 91.6062C79.514 93.2995 80.2516 95.1069 80.7531 96.9859L81.1296 98.3062 82.3593 98.9218 87.4999 101.491 87.4999 105.442 82.3437 108.017 81.114 108.633 80.7374 109.953C80.236 111.832 79.4984 113.639 78.5421 115.333L77.8359 116.544 78.2702 117.876 80.0296 123.272 77.2656 126.128 71.7968 124.264 70.4468 123.805 69.214 124.523C67.5204 125.481 65.7115 126.219 63.8312 126.719L62.5093 127.097 61.8953 128.326 59.3218 133.483 55.3718 133.483 52.7984 128.326 52.1828 127.097 50.8609 126.719C48.9823 126.218 47.1751 125.48 45.4828 124.523L44.2828 123.823 42.9578 124.245 37.4281 126.011 34.6515 123.234 36.4156 117.701 36.839 116.378 36.139 115.176C35.1823 113.484 34.4447 111.677 33.9437 109.798L33.5656 108.476 32.3375 107.861 27.1812 105.286 27.1812 101.334 32.3375 98.7593Z" fill="#000000" fill-rule="nonzero" fill-opacity="1" transform="matrix(1 0 0 1 3441 719)"/><path d="M92.6562 34.8531C86.1842 34.8531 80.9374 40.0998 80.9374 46.5718 80.9374 53.0439 86.1842 58.2906 92.6562 58.2906 99.1282 58.2906 104.375 53.0439 104.375 46.5718 104.326 40.12 99.108 34.9015 92.6562 34.8531ZM92.6562 55.1656C87.9129 55.1587 84.0693 51.3151 84.0624 46.5718 84.1256 41.852 87.9363 38.0412 92.6562 37.9781 97.3995 37.985 101.243 41.8286 101.25 46.5718 101.191 51.2945 97.3787 55.1095 92.6562 55.1718Z" fill="#000000" fill-rule="nonzero" fill-opacity="1" transform="matrix(1 0 0 1 3441 719)"/><path d="M57.3437 115.189C63.8157 115.189 69.0624 109.942 69.0624 103.47 69.0624 96.9982 63.8157 91.7515 57.3437 91.7515 50.8717 91.7515 45.625 96.9982 45.625 103.47 45.6171 109.935 50.8512 115.181 57.3156 115.189 57.325 115.189 57.3343 115.189 57.3437 115.189ZM57.3437 94.8687C62.0899 94.8687 65.9374 98.7162 65.9374 103.462 65.9374 108.209 62.0899 112.056 57.3437 112.056 52.5975 112.056 48.75 108.209 48.75 103.462 48.7568 98.7191 52.6004 94.8755 57.3437 94.8687Z" fill="#000000" fill-rule="nonzero" fill-opacity="1" transform="matrix(1 0 0 1 3441 719)"/></g></g></g><path d="M51.5972-10.1401 1186.88-6.34639 1186.81 14.2785 51.5283 10.4847ZM61.7713 31.1441 0 0 61.978-30.7306ZM1176.63-27.0057 1238.41 4.13835 1176.43 34.8689Z" fill="#C00000" fill-rule="nonzero" fill-opacity="1" transform="matrix(1 0 0 -1 1005.5 1534.64)"/><g clip-path="url(#clip13)"><g clip-path="url(#clip14)"><g clip-path="url(#clip15)"><path d="M148.224 76.4218C149.635 73.9682 150.769 71.3659 151.606 68.6624L160.36 64.2854 160.36 54.3374 151.606 49.9604C150.874 47.2508 149.805 44.6438 148.423 42.201L151.606 32.85 144.444 25.6875 135.093 28.8708C132.651 27.4809 130.044 26.4041 127.333 25.6656L122.956 16.9114 113.008 16.9114 108.631 25.6656C105.921 26.3968 103.314 27.4662 100.872 28.8489L91.5207 25.6656 84.3582 32.8281 87.5416 42.1791C86.1594 44.6219 85.09 47.2289 84.3582 49.9385L75.6041 54.3156 75.6041 64.2635 84.3582 68.6405C85.0902 71.3502 86.1598 73.9569 87.5416 76.3999L84.3582 85.7509 91.3218 92.7145 100.673 89.5311C103.116 90.9133 105.723 91.9827 108.432 92.7145L112.809 101.469 122.757 101.469 127.134 92.7145C129.844 91.9829 132.451 90.9135 134.894 89.5311L144.245 92.7145 151.407 85.7509ZM144.456 77.7031 146.831 84.6766 143.22 88.1882 136.177 85.7887 134.458 85.2038 132.888 86.119C130.734 87.3366 128.433 88.2759 126.042 88.9144L124.359 89.3959 123.575 90.9617 120.298 97.5273 115.274 97.5273 111.997 90.9617 111.214 89.3959 109.53 88.9144C107.139 88.2759 104.838 87.3366 102.682 86.119L101.114 85.2038 99.3955 85.7887 92.3882 88.1762 88.9263 84.7144 91.3138 77.7051 91.8987 75.9861 90.9835 74.4183C89.7687 72.2622 88.8326 69.9602 88.1981 67.5682L87.7167 65.885 86.1528 65.1031 79.5832 61.8223 79.5832 56.7906 86.1489 53.5197 87.7127 52.7358 88.1941 51.0526C88.829 48.6612 89.7649 46.3602 90.9796 44.2045L91.8948 42.6347 91.3098 40.9177 88.9223 33.9064 92.5832 30.2456 99.5905 32.6331 101.309 33.23 102.877 32.3128C105.033 31.0985 107.334 30.1626 109.725 29.5274L111.417 29.018 112.2 27.4522 115.477 20.8866 120.507 20.8866 123.784 27.4522 124.568 29.018 126.249 29.4995C128.64 30.1344 130.941 31.0703 133.097 32.2849L134.667 33.2021 136.386 32.6053 143.391 30.2178 147.052 33.8786 144.664 40.8899 144.079 42.6069 144.995 44.1767C146.212 46.3322 147.151 48.6333 147.79 51.0248L148.27 52.708 149.835 53.4919 156.401 56.7707 156.401 61.8024 149.835 65.0812 148.313 65.8432 147.812 67.4707C147.064 69.8878 146.052 72.215 144.794 74.4103L143.879 75.9781Z" stroke="#C00000" stroke-width="1.98939" stroke-linecap="butt" stroke-linejoin="miter" stroke-miterlimit="4" stroke-opacity="1" fill="#C00000" fill-rule="nonzero" fill-opacity="1" transform="matrix(1.00524 0 0 1 2291 1434)"/><path d="M30.6395 126.573 30.6395 136.521 39.3937 140.898C40.1255 143.608 41.1949 146.215 42.577 148.658L39.5927 158.009 46.5562 164.972 55.9072 161.988C58.3498 163.37 60.9568 164.44 63.6666 165.171L68.0437 173.925 77.9916 173.925 82.3687 165.171C85.0783 164.439 87.6852 163.37 90.128 161.988L99.479 165.171 106.443 158.009 103.458 148.856C104.84 146.414 105.91 143.807 106.642 141.097L115.396 136.72 115.396 126.772 106.642 122.395C105.91 119.685 104.84 117.078 103.458 114.636L106.642 105.285 99.479 98.1222 90.128 101.305C87.6689 99.9573 85.0661 98.8895 82.3687 98.1222L77.9916 89.368 68.0437 89.368 63.6666 98.1222C60.9568 98.8535 58.3498 99.9229 55.9072 101.305L46.5562 98.1222 39.5927 105.086 42.577 114.437C41.2291 116.896 40.1613 119.499 39.3937 122.196ZM42.6964 124.981 43.1978 123.354C43.8824 120.95 44.827 118.628 46.015 116.428L46.9064 114.898 46.3672 113.213 44.1209 106.168 47.6186 102.668 54.6259 105.056 56.3449 105.643 57.9127 104.728C60.0676 103.509 62.3688 102.57 64.7609 101.932L66.452 101.469 67.2359 99.9028 70.5127 93.3372 75.5424 93.3372 78.8192 99.9028 79.5813 101.427 81.2087 101.926C83.6119 102.612 85.9334 103.558 88.1325 104.745L89.7022 105.661 91.4212 105.074 98.4266 102.686 102.087 106.349 99.6999 113.358 99.115 115.075 100.03 116.645C101.248 118.801 102.187 121.103 102.826 123.495L103.305 125.176 104.871 125.96 111.417 129.231 111.417 134.263 104.851 137.542 103.285 138.326 102.806 140.007C102.167 142.399 101.228 144.701 100.01 146.857L99.111 148.399 99.6641 150.096 101.904 156.966 98.3848 160.603 91.4212 158.229 89.7022 157.644 88.1325 158.56C85.976 159.779 83.6726 160.718 81.2784 161.355L79.5952 161.837 78.8133 163.402 75.5364 169.968 70.5068 169.968 67.2299 163.402 66.446 161.837 64.7628 161.355C62.3708 160.718 60.0696 159.778 57.9147 158.56L56.3867 157.668 54.6996 158.206 47.6584 160.454 44.1229 156.918 46.3692 149.873 46.9084 148.188 46.017 146.658C44.7988 144.503 43.8595 142.202 43.2217 139.81L42.7402 138.127 41.1764 137.343 34.6108 134.064 34.6108 129.032 41.1764 125.753Z" stroke="#C00000" stroke-width="1.98939" stroke-linecap="butt" stroke-linejoin="miter" stroke-miterlimit="4" stroke-opacity="1" fill="#C00000" fill-rule="nonzero" fill-opacity="1" transform="matrix(1.00524 0 0 1 2291 1434)"/><path d="M117.982 44.3796C109.741 44.3796 103.06 51.0604 103.06 59.3014 103.06 67.5425 109.741 74.2233 117.982 74.2233 126.223 74.2233 132.904 67.5425 132.904 59.3014 132.842 51.0861 126.198 44.4413 117.982 44.3796ZM117.982 70.2441C111.942 70.2354 107.048 65.3412 107.039 59.3014 107.12 53.2915 111.972 48.4391 117.982 48.3588 124.022 48.3675 128.916 53.2617 128.925 59.3014 128.85 65.315 123.995 70.1727 117.982 70.2521Z" stroke="#C00000" stroke-width="1.98939" stroke-linecap="butt" stroke-linejoin="miter" stroke-miterlimit="4" stroke-opacity="1" fill="#C00000" fill-rule="nonzero" fill-opacity="1" transform="matrix(1.00524 0 0 1 2291 1434)"/><path d="M73.0176 146.674C81.2587 146.674 87.9395 139.993 87.9395 131.752 87.9395 123.511 81.2587 116.83 73.0176 116.83 64.7766 116.83 58.0958 123.511 58.0958 131.752 58.0858 139.983 64.7505 146.664 72.9818 146.674 72.9937 146.674 73.0057 146.674 73.0176 146.674ZM73.0176 120.799C79.0612 120.799 83.9603 125.699 83.9603 131.742 83.9603 137.786 79.0612 142.685 73.0176 142.685 66.9741 142.685 62.0749 137.786 62.0749 131.742 62.0837 125.702 66.9779 120.808 73.0176 120.799Z" stroke="#C00000" stroke-width="1.98939" stroke-linecap="butt" stroke-linejoin="miter" stroke-miterlimit="4" stroke-opacity="1" fill="#C00000" fill-rule="nonzero" fill-opacity="1" transform="matrix(1.00524 0 0 1 2291 1434)"/></g></g></g><g clip-path="url(#clip16)"><g clip-path="url(#clip17)"><g clip-path="url(#clip18)"><path d="M3567.9 1512.22C3569.28 1509.81 3570.4 1507.24 3571.23 1504.58L3579.84 1500.28 3579.84 1490.48 3571.23 1486.18C3570.5 1483.51 3569.45 1480.94 3568.09 1478.54L3571.23 1469.33 3564.18 1462.28 3554.97 1465.42C3552.57 1464.05 3550 1462.99 3547.33 1462.26L3543.02 1453.65 3533.23 1453.65 3528.93 1462.26C3526.26 1462.98 3523.69 1464.03 3521.29 1465.4L3512.08 1462.26 3505.03 1469.31 3508.17 1478.52C3506.81 1480.92 3505.75 1483.49 3505.03 1486.15L3496.42 1490.46 3496.42 1500.25 3505.03 1504.56C3505.75 1507.23 3506.81 1509.8 3508.17 1512.2L3505.03 1521.4 3511.89 1528.26 3521.09 1525.12C3523.5 1526.49 3526.06 1527.54 3528.73 1528.26L3533.04 1536.87 3542.83 1536.87 3547.14 1528.26C3549.8 1527.54 3552.37 1526.49 3554.78 1525.12L3563.98 1528.26 3571.03 1521.4ZM3564.19 1513.48 3566.53 1520.35 3562.97 1523.8 3556.04 1521.44 3554.35 1520.87 3552.8 1521.77C3550.68 1522.96 3548.42 1523.89 3546.06 1524.52L3544.41 1524.99 3543.63 1526.53 3540.41 1533 3535.46 1533 3532.24 1526.53 3531.47 1524.99 3529.81 1524.52C3527.46 1523.89 3525.19 1522.96 3523.07 1521.77L3521.53 1520.87 3519.83 1521.44 3512.94 1523.79 3509.53 1520.38 3511.88 1513.48 3512.46 1511.79 3511.55 1510.25C3510.36 1508.13 3509.44 1505.86 3508.81 1503.51L3508.34 1501.85 3506.8 1501.08 3500.33 1497.85 3500.33 1492.9 3506.8 1489.68 3508.34 1488.91 3508.81 1487.25C3509.43 1484.9 3510.36 1482.63 3511.55 1480.51L3512.45 1478.96 3511.88 1477.28 3509.53 1470.37 3513.13 1466.77 3520.03 1469.12 3521.72 1469.71 3523.26 1468.81C3525.38 1467.61 3527.65 1466.69 3530 1466.06L3531.67 1465.56 3532.44 1464.02 3535.66 1457.56 3540.61 1457.56 3543.84 1464.02 3544.61 1465.56 3546.27 1466.04C3548.62 1466.66 3550.88 1467.58 3553.01 1468.78L3554.55 1469.68 3556.24 1469.09 3563.14 1466.74 3566.74 1470.35 3564.39 1477.25 3563.82 1478.94 3564.72 1480.48C3565.92 1482.6 3566.84 1484.87 3567.47 1487.22L3567.94 1488.88 3569.48 1489.65 3575.94 1492.88 3575.94 1497.83 3569.48 1501.06 3567.98 1501.81 3567.49 1503.41C3566.75 1505.79 3565.76 1508.08 3564.52 1510.24L3563.62 1511.78Z" stroke="#C00000" stroke-width="1.95815" stroke-linecap="butt" stroke-linejoin="miter" stroke-miterlimit="4" stroke-opacity="1" fill="#C00000" fill-rule="nonzero" fill-opacity="1"/><path d="M3452.16 1561.59 3452.16 1571.38 3460.77 1575.69C3461.5 1578.35 3462.55 1580.92 3463.91 1583.32L3460.97 1592.53 3467.82 1599.38 3477.03 1596.44C3479.43 1597.8 3482 1598.86 3484.67 1599.58L3488.98 1608.19 3498.77 1608.19 3503.07 1599.58C3505.74 1598.86 3508.31 1597.8 3510.71 1596.44L3519.92 1599.58 3526.77 1592.53 3523.83 1583.52C3525.19 1581.11 3526.25 1578.55 3526.97 1575.88L3535.58 1571.57 3535.58 1561.78 3526.97 1557.47C3526.25 1554.81 3525.19 1552.24 3523.83 1549.84L3526.97 1540.63 3519.92 1533.58 3510.71 1536.71C3508.29 1535.39 3505.73 1534.34 3503.07 1533.58L3498.77 1524.96 3488.98 1524.96 3484.67 1533.58C3482 1534.3 3479.43 1535.35 3477.03 1536.71L3467.82 1533.58 3460.97 1540.44 3463.91 1549.64C3462.58 1552.06 3461.53 1554.62 3460.77 1557.28ZM3464.03 1560.02 3464.52 1558.42C3465.19 1556.05 3466.12 1553.76 3467.29 1551.6L3468.17 1550.09 3467.64 1548.43 3465.43 1541.5 3468.87 1538.06 3475.77 1540.41 3477.46 1540.98 3479 1540.08C3481.12 1538.88 3483.39 1537.96 3485.74 1537.33L3487.41 1536.87 3488.18 1535.33 3491.41 1528.87 3496.36 1528.87 3499.58 1535.33 3500.33 1536.83 3501.93 1537.33C3504.3 1538 3506.58 1538.93 3508.75 1540.1L3510.29 1541 3511.99 1540.42 3518.88 1538.07 3522.48 1541.68 3520.13 1548.58 3519.56 1550.27 3520.46 1551.81C3521.66 1553.94 3522.58 1556.2 3523.21 1558.56L3523.68 1560.21 3525.22 1560.98 3531.67 1564.2 3531.67 1569.15 3525.2 1572.38 3523.66 1573.15 3523.19 1574.81C3522.56 1577.16 3521.64 1579.43 3520.44 1581.55L3519.55 1583.07 3520.1 1584.74 3522.3 1591.5 3518.84 1595.08 3511.99 1592.74 3510.29 1592.17 3508.75 1593.07C3506.63 1594.27 3504.36 1595.19 3502 1595.82L3500.35 1596.29 3499.58 1597.84 3496.35 1604.3 3491.4 1604.3 3488.17 1597.84 3487.4 1596.29 3485.75 1595.82C3483.39 1595.19 3481.13 1594.27 3479.01 1593.07L3477.5 1592.19 3475.84 1592.72 3468.91 1594.93 3465.43 1591.45 3467.64 1584.52 3468.17 1582.86 3467.29 1581.35C3466.1 1579.23 3465.17 1576.97 3464.54 1574.61L3464.07 1572.96 3462.53 1572.19 3456.07 1568.96 3456.07 1564.01 3462.53 1560.78Z" stroke="#C00000" stroke-width="1.95815" stroke-linecap="butt" stroke-linejoin="miter" stroke-miterlimit="4" stroke-opacity="1" fill="#C00000" fill-rule="nonzero" fill-opacity="1"/><path d="M3538.13 1480.68C3530.02 1480.68 3523.44 1487.26 3523.44 1495.37 3523.44 1503.48 3530.02 1510.06 3538.13 1510.06 3546.24 1510.06 3552.82 1503.48 3552.82 1495.37 3552.76 1487.28 3546.22 1480.74 3538.13 1480.68ZM3538.13 1506.14C3532.18 1506.13 3527.37 1501.31 3527.36 1495.37 3527.44 1489.45 3532.21 1484.68 3538.13 1484.6 3544.07 1484.61 3548.89 1489.43 3548.9 1495.37 3548.83 1501.29 3544.05 1506.07 3538.13 1506.15Z" stroke="#C00000" stroke-width="1.95815" stroke-linecap="butt" stroke-linejoin="miter" stroke-miterlimit="4" stroke-opacity="1" fill="#C00000" fill-rule="nonzero" fill-opacity="1"/><path d="M3493.87 1581.37C3501.98 1581.37 3508.56 1574.79 3508.56 1566.68 3508.56 1558.57 3501.98 1552 3493.87 1552 3485.76 1552 3479.18 1558.57 3479.18 1566.68 3479.17 1574.78 3485.73 1581.36 3493.84 1581.37 3493.85 1581.37 3493.86 1581.37 3493.87 1581.37ZM3493.87 1555.9C3499.82 1555.9 3504.64 1560.72 3504.64 1566.67 3504.64 1572.62 3499.82 1577.44 3493.87 1577.44 3487.92 1577.44 3483.1 1572.62 3483.1 1566.67 3483.11 1560.73 3487.93 1555.91 3493.87 1555.9Z" stroke="#C00000" stroke-width="1.95815" stroke-linecap="butt" stroke-linejoin="miter" stroke-miterlimit="4" stroke-opacity="1" fill="#C00000" fill-rule="nonzero" fill-opacity="1"/></g></g></g><text fill="#000000" fill-opacity="1" font-family="Calibri,Calibri_MSFontService,sans-serif" font-style="normal" font-variant="normal" font-weight="400" font-stretch="normal" font-size="83" text-anchor="start" direction="ltr" writing-mode="lr-tb" unicode-bidi="normal" text-decoration="none" transform="matrix(1 0 0 1 555.391 1048)">Benign </text><text fill="#000000" fill-opacity="1" font-family="Calibri,Calibri_MSFontService,sans-serif" font-style="normal" font-variant="normal" font-weight="400" font-stretch="normal" font-size="83" text-anchor="start" direction="ltr" writing-mode="lr-tb" unicode-bidi="normal" text-decoration="none" transform="matrix(1 0 0 1 805.183 1048)">clients</text><text fill="#C00000" fill-opacity="1" font-family="Calibri,Calibri_MSFontService,sans-serif" font-style="normal" font-variant="normal" font-weight="400" font-stretch="normal" font-size="83" text-anchor="start" direction="ltr" writing-mode="lr-tb" unicode-bidi="normal" text-decoration="none" transform="matrix(1 0 0 1 555.391 1721)">Malicious client</text><path d="M1027.92 847.854 2222.7 847.855 2222.7 850.146 1027.92 850.146ZM1032.5 862.75 1005 849 1032.5 835.25ZM2218.12 835.25 2245.62 849 2218.12 862.75Z" fill="#000000" fill-rule="nonzero" fill-opacity="1"/><path d="M1030.92 910.854 2218.9 910.854 2218.9 913.146 1030.92 913.146ZM1035.5 925.75 1008 912 1035.5 898.25ZM2214.32 898.25 2241.82 912 2214.32 925.75Z" fill="#000000" fill-rule="nonzero" fill-opacity="1"/><path d="M1551.5 1919.83C1551.5 1905.29 1563.29 1893.5 1577.83 1893.5L1859.5 1893.5 2169.31 1545.46 1991.5 1893.5 2053.17 1893.5C2067.71 1893.5 2079.5 1905.29 2079.5 1919.83L2079.5 1959.33 2079.5 2025.17C2079.5 2039.71 2067.71 2051.5 2053.17 2051.5L1991.5 2051.5 1859.5 2051.5 1577.83 2051.5C1563.29 2051.5 1551.5 2039.71 1551.5 2025.17L1551.5 1959.33 1551.5 1919.83Z" stroke="#C00000" stroke-width="4.58333" stroke-linecap="butt" stroke-linejoin="miter" stroke-miterlimit="8" stroke-opacity="1" fill="none" fill-rule="evenodd"/><text fill="#C00000" fill-opacity="1" font-family="Calibri,Calibri_MSFontService,sans-serif" font-style="normal" font-variant="normal" font-weight="400" font-stretch="normal" font-size="64" text-anchor="start" direction="ltr" writing-mode="lr-tb" unicode-bidi="normal" text-decoration="none" transform="matrix(1 0 0 1 1648.97 1955)">C</text><text fill="#C00000" fill-opacity="1" font-family="Calibri,Calibri_MSFontService,sans-serif" font-style="normal" font-variant="normal" font-weight="400" font-stretch="normal" font-size="64" text-anchor="start" direction="ltr" writing-mode="lr-tb" unicode-bidi="normal" text-decoration="none" transform="matrix(1 0 0 1 1683.35 1955)">lient makes </text><text fill="#C00000" fill-opacity="1" font-family="Calibri,Calibri_MSFontService,sans-serif" font-style="normal" font-variant="normal" font-weight="400" font-stretch="normal" font-size="64" text-anchor="start" direction="ltr" writing-mode="lr-tb" unicode-bidi="normal" text-decoration="none" transform="matrix(1 0 0 1 1607.58 2032)">iregular request</text><path d="M2881.5 1919.83C2881.5 1905.29 2893.29 1893.5 2907.83 1893.5L3188.92 1893.5 3314.55 1545.46 3320.67 1893.5 3382.17 1893.5C3396.71 1893.5 3408.5 1905.29 3408.5 1919.83L3408.5 1919.83 3408.5 1959.33 3408.5 2025.17C3408.5 2039.71 3396.71 2051.5 3382.17 2051.5L3320.67 2051.5 3188.92 2051.5 2907.83 2051.5C2893.29 2051.5 2881.5 2039.71 2881.5 2025.17L2881.5 1959.33 2881.5 1919.83Z" stroke="#C00000" stroke-width="4.58333" stroke-linecap="butt" stroke-linejoin="miter" stroke-miterlimit="8" stroke-opacity="1" fill="none" fill-rule="evenodd"/><text fill="#C00000" fill-opacity="1" font-family="Calibri,Calibri_MSFontService,sans-serif" font-style="normal" font-variant="normal" font-weight="400" font-stretch="normal" font-size="64" text-anchor="start" direction="ltr" writing-mode="lr-tb" unicode-bidi="normal" text-decoration="none" transform="matrix(1 0 0 1 2960.61 1955)">S</text><text fill="#C00000" fill-opacity="1" font-family="Calibri,Calibri_MSFontService,sans-serif" font-style="normal" font-variant="normal" font-weight="400" font-stretch="normal" font-size="64" text-anchor="start" direction="ltr" writing-mode="lr-tb" unicode-bidi="normal" text-decoration="none" transform="matrix(1 0 0 1 2989.83 1955)">ervice makes </text><text fill="#C00000" fill-opacity="1" font-family="Calibri,Calibri_MSFontService,sans-serif" font-style="normal" font-variant="normal" font-weight="400" font-stretch="normal" font-size="64" text-anchor="start" direction="ltr" writing-mode="lr-tb" unicode-bidi="normal" text-decoration="none" transform="matrix(1 0 0 1 2937.31 2032)">iregular request </text><path d="M1216.5 1696.83C1216.5 1682.29 1228.29 1670.5 1242.83 1670.5L1316.5 1670.5 1275.02 1546.79 1466.5 1670.5 1790.17 1670.5C1804.71 1670.5 1816.5 1682.29 1816.5 1696.83L1816.5 1696.83 1816.5 1736.33 1816.5 1802.17C1816.5 1816.71 1804.71 1828.5 1790.17 1828.5L1466.5 1828.5 1316.5 1828.5 1242.83 1828.5C1228.29 1828.5 1216.5 1816.71 1216.5 1802.17L1216.5 1736.33 1216.5 1696.83Z" stroke="#C00000" stroke-width="4.58333" stroke-linecap="butt" stroke-linejoin="miter" stroke-miterlimit="8" stroke-opacity="1" fill="none" fill-rule="evenodd"/><text fill="#C00000" fill-opacity="1" font-family="Calibri,Calibri_MSFontService,sans-serif" font-style="normal" font-variant="normal" font-weight="400" font-stretch="normal" font-size="64" text-anchor="start" direction="ltr" writing-mode="lr-tb" unicode-bidi="normal" text-decoration="none" transform="matrix(1 0 0 1 1303.25 1732)">Service provides </text><text fill="#C00000" fill-opacity="1" font-family="Calibri,Calibri_MSFontService,sans-serif" font-style="normal" font-variant="normal" font-weight="400" font-stretch="normal" font-size="64" text-anchor="start" direction="ltr" writing-mode="lr-tb" unicode-bidi="normal" text-decoration="none" transform="matrix(1 0 0 1 1289.7 1809)">iregular response</text><path d="M2571.5 1686.83C2571.5 1672.29 2583.29 1660.5 2597.83 1660.5L2671.67 1660.5 2616.51 1540.19 2821.92 1660.5 3146.17 1660.5C3160.71 1660.5 3172.5 1672.29 3172.5 1686.83L3172.5 1686.83 3172.5 1726.33 3172.5 1792.17C3172.5 1806.71 3160.71 1818.5 3146.17 1818.5L2821.92 1818.5 2671.67 1818.5 2597.83 1818.5C2583.29 1818.5 2571.5 1806.71 2571.5 1792.17L2571.5 1726.33 2571.5 1686.83Z" stroke="#C00000" stroke-width="4.58333" stroke-linecap="butt" stroke-linejoin="miter" stroke-miterlimit="8" stroke-opacity="1" fill="none" fill-rule="evenodd"/><text fill="#C00000" fill-opacity="1" font-family="Calibri,Calibri_MSFontService,sans-serif" font-style="normal" font-variant="normal" font-weight="400" font-stretch="normal" font-size="64" text-anchor="start" direction="ltr" writing-mode="lr-tb" unicode-bidi="normal" text-decoration="none" transform="matrix(1 0 0 1 2615.2 1722)">Data Store provides </text><text fill="#C00000" fill-opacity="1" font-family="Calibri,Calibri_MSFontService,sans-serif" font-style="normal" font-variant="normal" font-weight="400" font-stretch="normal" font-size="64" text-anchor="start" direction="ltr" writing-mode="lr-tb" unicode-bidi="normal" text-decoration="none" transform="matrix(1 0 0 1 2644.9 1799)">iregular response</text><path d="M3438.5 1791.5C3438.5 1762.78 3461.78 1739.5 3490.5 1739.5L3525.17 1739.5 3511.85 1614.92 3655.17 1739.5 3906.5 1739.5C3935.22 1739.5 3958.5 1762.78 3958.5 1791.5L3958.5 1791.5 3958.5 1869.5 3958.5 1999.5C3958.5 2028.22 3935.22 2051.5 3906.5 2051.5L3655.17 2051.5 3525.17 2051.5 3490.5 2051.5C3461.78 2051.5 3438.5 2028.22 3438.5 1999.5L3438.5 1869.5 3438.5 1791.5Z" stroke="#C00000" stroke-width="4.58333" stroke-linecap="butt" stroke-linejoin="miter" stroke-miterlimit="8" stroke-opacity="1" fill="none" fill-rule="evenodd"/><text fill="#C00000" fill-opacity="1" font-family="Calibri,Calibri_MSFontService,sans-serif" font-style="normal" font-variant="normal" font-weight="400" font-stretch="normal" font-size="64" text-anchor="start" direction="ltr" writing-mode="lr-tb" unicode-bidi="normal" text-decoration="none" transform="matrix(1 0 0 1 3561.11 1839)">Data Store </text><text fill="#C00000" fill-opacity="1" font-family="Calibri,Calibri_MSFontService,sans-serif" font-style="normal" font-variant="normal" font-weight="400" font-stretch="normal" font-size="64" text-anchor="start" direction="ltr" writing-mode="lr-tb" unicode-bidi="normal" text-decoration="none" transform="matrix(1 0 0 1 3522.28 1916)">takes iregular </text><text fill="#C00000" fill-opacity="1" font-family="Calibri,Calibri_MSFontService,sans-serif" font-style="normal" font-variant="normal" font-weight="400" font-stretch="normal" font-size="64" text-anchor="start" direction="ltr" writing-mode="lr-tb" unicode-bidi="normal" text-decoration="none" transform="matrix(1 0 0 1 3489.38 1993)">time to respond</text><path d="M2107.5 1791.5C2107.5 1762.78 2130.78 1739.5 2159.5 1739.5L2363.58 1739.5 2383.25 1618.32 2473.33 1739.5 2494.5 1739.5C2523.22 1739.5 2546.5 1762.78 2546.5 1791.5L2546.5 1791.5 2546.5 1869.5 2546.5 1999.5C2546.5 2028.22 2523.22 2051.5 2494.5 2051.5L2473.33 2051.5 2363.58 2051.5 2159.5 2051.5C2130.78 2051.5 2107.5 2028.22 2107.5 1999.5L2107.5 1869.5 2107.5 1791.5Z" stroke="#C00000" stroke-width="4.58333" stroke-linecap="butt" stroke-linejoin="miter" stroke-miterlimit="8" stroke-opacity="1" fill="none" fill-rule="evenodd"/><text fill="#C00000" fill-opacity="1" font-family="Calibri,Calibri_MSFontService,sans-serif" font-style="normal" font-variant="normal" font-weight="400" font-stretch="normal" font-size="64" text-anchor="start" direction="ltr" writing-mode="lr-tb" unicode-bidi="normal" text-decoration="none" transform="matrix(1 0 0 1 2157.73 1839)">Service takes </text><text fill="#C00000" fill-opacity="1" font-family="Calibri,Calibri_MSFontService,sans-serif" font-style="normal" font-variant="normal" font-weight="400" font-stretch="normal" font-size="64" text-anchor="start" direction="ltr" writing-mode="lr-tb" unicode-bidi="normal" text-decoration="none" transform="matrix(1 0 0 1 2159.33 1916)">iregular time </text><text fill="#C00000" fill-opacity="1" font-family="Calibri,Calibri_MSFontService,sans-serif" font-style="normal" font-variant="normal" font-weight="400" font-stretch="normal" font-size="64" text-anchor="start" direction="ltr" writing-mode="lr-tb" unicode-bidi="normal" text-decoration="none" transform="matrix(1 0 0 1 2185.14 1993)">to respond</text><rect x="522.5" y="1225.5" width="1625" height="189" stroke="#000000" stroke-width="3.4375" stroke-linecap="butt" stroke-linejoin="round" stroke-miterlimit="10" stroke-opacity="1" fill="#FFFFFF" fill-opacity="1"/><text fill="#C00000" fill-opacity="1" font-family="Arial,Arial_MSFontService,sans-serif" font-style="normal" font-variant="normal" font-weight="400" font-stretch="normal" font-size="64" text-anchor="start" direction="ltr" writing-mode="lr-tb" unicode-bidi="normal" text-decoration="none" transform="matrix(1 0 0 1 555.391 1304)">REQ:   username=tom+or+1%3D1      =&gt; “tom or 1=1”</text><text fill="#C00000" fill-opacity="1" font-family="Arial,Arial_MSFontService,sans-serif" font-style="normal" font-variant="normal" font-weight="400" font-stretch="normal" font-size="64" text-anchor="start" direction="ltr" writing-mode="lr-tb" unicode-bidi="normal" text-decoration="none" transform="matrix(1 0 0 1 555.391 1381)">RES:</text><text fill="#C00000" fill-opacity="1" font-family="Arial,Arial_MSFontService,sans-serif" font-style="normal" font-variant="normal" font-weight="400" font-stretch="normal" font-size="64" text-anchor="start" direction="ltr" writing-mode="lr-tb" unicode-bidi="normal" text-decoration="none" transform="matrix(1 0 0 1 758.777 1381)">data about all users</text><rect x="522.5" y="507.5" width="1625" height="189" stroke="#000000" stroke-width="3.4375" stroke-linecap="butt" stroke-linejoin="round" stroke-miterlimit="10" stroke-opacity="1" fill="#FFFFFF" fill-opacity="1"/><text fill="#000000" fill-opacity="1" font-family="Arial,Arial_MSFontService,sans-serif" font-style="normal" font-variant="normal" font-weight="400" font-stretch="normal" font-size="64" text-anchor="start" direction="ltr" writing-mode="lr-tb" unicode-bidi="normal" text-decoration="none" transform="matrix(1 0 0 1 555.391 586)">REQ:   username=tom        =&gt; “tom”</text><text fill="#000000" fill-opacity="1" font-family="Arial,Arial_MSFontService,sans-serif" font-style="normal" font-variant="normal" font-weight="400" font-stretch="normal" font-size="64" text-anchor="start" direction="ltr" writing-mode="lr-tb" unicode-bidi="normal" text-decoration="none" transform="matrix(1 0 0 1 555.391 663)">RES:</text><text fill="#000000" fill-opacity="1" font-family="Arial,Arial_MSFontService,sans-serif" font-style="normal" font-variant="normal" font-weight="400" font-stretch="normal" font-size="64" text-anchor="start" direction="ltr" writing-mode="lr-tb" unicode-bidi="normal" text-decoration="none" transform="matrix(1 0 0 1 758.777 663)">data about tom</text><path d="M2548.92 850.854 3376.03 850.855 3376.03 853.146 2548.92 853.146ZM2553.5 865.75 2526 852 2553.5 838.25ZM3371.44 838.251 3398.94 852.001 3371.44 865.751Z" fill="#000000" fill-rule="nonzero" fill-opacity="1"/><path d="M2548.92 910.854 3376.03 910.854 3376.03 913.146 2548.92 913.146ZM2553.5 925.75 2526 912 2553.5 898.25ZM3371.44 898.25 3398.94 912 3371.44 925.75Z" fill="#000000" fill-rule="nonzero" fill-opacity="1"/><path d="M2548.92 785.854 3376.03 785.854 3376.03 788.146 2548.92 788.146ZM2553.5 800.75 2526 787 2553.5 773.25ZM3371.44 773.25 3398.94 787 3371.44 800.75Z" fill="#000000" fill-rule="nonzero" fill-opacity="1"/><path d="M2578.07 1519.22 3343.56 1519.73 3343.54 1540.35 2578.06 1539.85ZM2588.35 1560.48 2526.5 1529.5 2588.4 1498.6ZM3333.26 1499.1 3395.11 1530.07 3333.22 1560.97Z" fill="#C00000" fill-rule="nonzero" fill-opacity="1"/></g></svg>