<?xml version="1.0" encoding="UTF-8" standalone="no" ?>
<!DOCTYPE svg PUBLIC "-//W3C//DTD SVG 1.1//EN" "http://www.w3.org/Graphics/SVG/1.1/DTD/svg11.dtd">
<svg xmlns="http://www.w3.org/2000/svg" xmlns:xlink="http://www.w3.org/1999/xlink" version="1.1" width="230" height="140" viewBox="0 0 230 140" xml:space="preserve">
<desc>Created with Fabric.js 5.2.4</desc>
<defs>
</defs>
<g transform="matrix(1 0 0 1 115 70)" id="0e59e143-e7ab-4ddf-b0ae-2cce790f3347"  >
<rect style="stroke: none; stroke-width: 1; stroke-dasharray: none; stroke-linecap: butt; stroke-dashoffset: 0; stroke-linejoin: miter; stroke-miterlimit: 4; fill: rgb(255,255,255); fill-rule: nonzero; opacity: 1; visibility: hidden;" vector-effect="non-scaling-stroke"  x="-115" y="-70" rx="0" ry="0" width="230" height="140" />
</g>
<g transform="matrix(Infinity NaN NaN Infinity 0 0)" id="2e250280-3839-43e6-9201-4ac720c20562"  >
</g>
<g transform="matrix(0.13 0 0 0.13 115 70)"  >
<g style="" vector-effect="non-scaling-stroke"   >
		<g transform="matrix(1 0 0 1 -480.62 0)" id="Fill-1"  >
<path style="stroke: none; stroke-width: 1; stroke-dasharray: none; stroke-linecap: butt; stroke-dashoffset: 0; stroke-linejoin: miter; stroke-miterlimit: 4; fill: rgb(255,255,255); fill-rule: evenodd; opacity: 1;" vector-effect="non-scaling-stroke"  transform=" translate(-309.06, -146.33)" d="M 17.3 223.5 C 18.7 217.5 21.4 213.9 25.200000000000003 212.6 C 28.800000000000004 211.5 32.1 212.6 34.5 216.1 C 36.4 219.4 36.4 223.5 34.5 228.9 C 34 232.70000000000002 34 236.5 34.2 240.6 C 35.300000000000004 244.7 35.1 248.2 33.400000000000006 251.7 C 32.10000000000001 255.29999999999998 29.900000000000006 258.5 27.400000000000006 261.3 C 26.100000000000005 264.5 24.400000000000006 268.1 23.300000000000004 272.1 C 22.200000000000003 276.5 20.300000000000004 279.20000000000005 17.900000000000006 280.3 C 15.400000000000006 281.90000000000003 12.200000000000006 282.5 8.400000000000006 281.7 C 4.800000000000006 280.59999999999997 2.4000000000000057 278.09999999999997 1.5000000000000053 274.3 C 0.5000000000000053 270.2 0.7000000000000053 265.90000000000003 1.8000000000000054 261.3 C 3.5000000000000053 257.7 4.800000000000005 253.9 5.400000000000006 249.3 C 5.400000000000006 242.5 7.500000000000005 236.5 12.200000000000006 231.4 C 14.900000000000006 228.6 16.500000000000007 225.9 17.300000000000004 223.5 z M 56.3 221.3 C 57.699999999999996 220.70000000000002 58.8 220.20000000000002 59.599999999999994 219.4 C 60.099999999999994 218 62.8 218 67.19999999999999 219.4 C 70.19999999999999 220.5 72.39999999999999 222.4 73.49999999999999 225.1 C 74.59999999999998 228.9 74.79999999999998 232.4 74.79999999999998 235.4 C 74.59999999999998 240.9 75.09999999999998 246 76.49999999999999 250.70000000000002 C 76.69999999999999 255.00000000000003 75.89999999999999 259.40000000000003 73.99999999999999 264 C 73.69999999999999 267 73.49999999999999 269.2 73.49999999999999 270.5 C 72.89999999999999 272.4 72.09999999999998 274.3 70.49999999999999 276.5 C 67.69999999999999 279.5 65.29999999999998 281.1 63.09999999999999 281.1 Q 59.79999999999999 281.5 56.59999999999999 275.40000000000003 C 53.59999999999999 271.1 52.19999999999999 267.50000000000006 52.499999999999986 264.3 Q 49.999999999999986 247.10000000000002 50.899999999999984 241.4 C 51.399999999999984 238.4 52.19999999999998 233.5 52.999999999999986 226.20000000000002 Q 55.09999999999999 221.3 56.29999999999998 221.3 z M 90.6 211.8 C 91.69999999999999 211 92.5 209.9 93.3 208.5 C 93.6 206.9 96.3 206.1 101 206.3 C 104.2 206.3 107.2 207.70000000000002 109.4 210.4 C 111.9 213.9 113.2 216.9 113.80000000000001 220.20000000000002 C 114.10000000000001 221.8 114.60000000000001 223.20000000000002 115.10000000000001 224.60000000000002 Q 115.60000000000001 226.60000000000002 115.10000000000001 228.60000000000002 C 115.7 231.40000000000003 116.2 233.8 116.50000000000001 235.70000000000002 C 116.80000000000001 237.60000000000002 116.50000000000001 239.8 115.70000000000002 242.8 C 113.80000000000001 246.60000000000002 111.60000000000002 248.8 109.70000000000002 249.3 C 107.50000000000001 250.10000000000002 104.80000000000001 249 101.20000000000002 245.5 C 96.60000000000002 242.2 94.20000000000002 238.7 93.60000000000002 235.4 C 91.20000000000002 230.3 90.10000000000002 227 90.10000000000002 225.1 C 90.10000000000002 223.7 89.80000000000003 221.29999999999998 89.00000000000003 217.79999999999998 C 89.00000000000003 213.89999999999998 89.80000000000003 211.99999999999997 90.60000000000002 211.79999999999998 z M 15.399999999999991 175.9 C 15.699999999999992 173.4 15.199999999999992 170.70000000000002 14.299999999999992 167.70000000000002 C 13.799999999999992 164.4 14.299999999999992 160.9 16.499999999999993 156.8 Q 21.799999999999994 145.8 26.299999999999994 143.8 C 28.499999999999993 142.70000000000002 29.599999999999994 140.5 29.899999999999995 137.5 C 30.099999999999994 134.5 31.499999999999996 131 34.199999999999996 127.2 C 35.9 123.7 36.099999999999994 120.10000000000001 34.49999999999999 116.9 C 34.199999999999996 115.2 33.39999999999999 113.60000000000001 32.29999999999999 112.2 Q 30.29999999999999 109.4 28.19999999999999 109 C 24.69999999999999 107.6 22.19999999999999 106 21.399999999999988 103.8 Q 20.19999999999999 102.2 18.19999999999999 101.39999999999999 C 16.49999999999999 100.49999999999999 15.699999999999989 99.19999999999999 15.99999999999999 97.3 C 16.29999999999999 95.89999999999999 15.699999999999989 94.6 14.099999999999989 93.2 C 12.699999999999989 91.60000000000001 11.599999999999989 89.9 11.599999999999989 88 C 11.39999999999999 82 11.89999999999999 78.5 13.299999999999988 77.7 C 14.899999999999988 76.3 15.399999999999988 75 15.199999999999989 73.60000000000001 C 15.199999999999989 71.4 16.79999999999999 67.10000000000001 20.29999999999999 60.60000000000001 C 24.39999999999999 52.900000000000006 27.19999999999999 48.60000000000001 28.49999999999999 47.20000000000001 C 29.29999999999999 46.70000000000001 30.09999999999999 45.30000000000001 30.69999999999999 43.20000000000001 C 31.49999999999999 41.50000000000001 32.59999999999999 39.90000000000001 34.19999999999999 38.80000000000001 C 35.59999999999999 38.000000000000014 36.09999999999999 36.90000000000001 36.39999999999999 35.30000000000001 Q 37.19999999999999 32.40000000000001 39.69999999999999 31.20000000000001 C 40.999999999999986 30.60000000000001 42.39999999999999 29.30000000000001 43.499999999999986 26.80000000000001 C 46.79999999999998 20.30000000000001 49.499999999999986 17.30000000000001 51.399999999999984 17.30000000000001 C 53.29999999999998 17.30000000000001 54.899999999999984 17.00000000000001 56.29999999999998 16.00000000000001 C 58.499999999999986 14.900000000000011 60.899999999999984 14.60000000000001 64.19999999999999 15.70000000000001 Q 68.29999999999998 16.90000000000001 69.89999999999999 16.50000000000001 C 73.19999999999999 15.70000000000001 77.3 16.50000000000001 81.89999999999999 18.90000000000001 C 87.1 22.50000000000001 89.8 26.30000000000001 89.8 30.40000000000001 C 90.1 34.20000000000001 89.3 36.60000000000001 87.89999999999999 37.400000000000006 C 84.39999999999999 40.2 81.6 41.50000000000001 79.49999999999999 41.300000000000004 C 76.99999999999999 41.00000000000001 75.09999999999998 41.300000000000004 74.29999999999998 42.300000000000004 Q 71.79999999999998 44.400000000000006 68.59999999999998 44.00000000000001 C 66.69999999999997 43.400000000000006 64.99999999999999 44.00000000000001 63.39999999999998 45.300000000000004 Q 61.299999999999976 47.00000000000001 60.09999999999998 47.00000000000001 C 58.79999999999998 46.70000000000001 57.69999999999998 47.50000000000001 56.29999999999998 48.900000000000006 C 54.69999999999998 51.00000000000001 53.59999999999998 52.7 53.29999999999998 54.00000000000001 C 52.79999999999998 56.50000000000001 51.899999999999984 57.800000000000004 50.899999999999984 58.400000000000006 C 49.499999999999986 59.7 48.09999999999999 61.60000000000001 47.29999999999998 64.10000000000001 C 46.19999999999998 66.80000000000001 45.399999999999984 68.4 44.29999999999998 68.4 C 42.999999999999986 69.5 41.59999999999998 72.5 40.79999999999998 77.7 C 37.999999999999986 83.4 37.19999999999998 87.5 38.59999999999998 90.5 C 40.99999999999998 94 42.99999999999998 96.2 44.29999999999998 97.3 C 45.899999999999984 97.5 46.79999999999998 98.39999999999999 46.999999999999986 99.2 C 47.59999999999999 100.8 49.19999999999999 101.9 51.899999999999984 101.9 C 54.09999999999999 102.2 55.79999999999998 102.4 56.29999999999998 103.30000000000001 Q 60.79999999999998 105.30000000000001 63.69999999999998 102.4 C 65.29999999999998 100.80000000000001 66.89999999999998 99.7 68.59999999999998 99.7 C 70.99999999999999 99.5 72.39999999999998 98.10000000000001 73.49999999999999 95.4 C 73.99999999999999 93.7 74.79999999999998 92.9 75.59999999999998 92.10000000000001 C 77.79999999999998 90.7 79.19999999999997 88.60000000000001 80.29999999999998 85.30000000000001 Q 81.49999999999999 82.00000000000001 82.69999999999999 80.4 C 84.1 78.80000000000001 84.6 77.10000000000001 84.1 75.80000000000001 C 83.8 74.20000000000002 81.89999999999999 72.30000000000001 77.8 70.10000000000001 C 76.2 69.00000000000001 75.89999999999999 66.80000000000001 77.5 63.30000000000001 Q 79.2 60.000000000000014 83.3 60.000000000000014 C 84.6 59.70000000000002 86.3 59.20000000000002 87.39999999999999 58.40000000000001 C 88.99999999999999 57.30000000000001 90.6 57.30000000000001 92.49999999999999 58.100000000000016 C 93.89999999999999 58.70000000000002 95.49999999999999 59.20000000000002 97.69999999999999 59.20000000000002 Q 106.69999999999999 60.000000000000014 112.39999999999999 67.40000000000002 C 114.89999999999999 70.60000000000002 115.39999999999999 72.80000000000003 114.6 74.20000000000002 C 113.5 75.80000000000001 113.5 78.00000000000001 114.89999999999999 80.70000000000002 C 115.69999999999999 83.10000000000002 115.69999999999999 85.90000000000002 114.89999999999999 88.30000000000001 C 113.19999999999999 92.10000000000001 111.3 94.00000000000001 109.1 94.30000000000001 C 103.69999999999999 95.9 99.6 98.4 96.89999999999999 101.10000000000001 C 94.99999999999999 102.7 93.89999999999999 104.60000000000001 93.6 106.50000000000001 C 93.1 107.60000000000001 92.5 108.70000000000002 92.3 110.10000000000001 C 92.3 110.60000000000001 92.3 111.10000000000001 92.5 111.4 C 93.1 113.60000000000001 93.3 116 93.3 119.30000000000001 C 93.6 119.60000000000001 93.89999999999999 119.80000000000001 93.89999999999999 119.80000000000001 C 94.39999999999999 121.20000000000002 95.3 121.80000000000001 96.1 122.00000000000001 C 98.3 122.80000000000001 99.6 124.50000000000001 100.69999999999999 127.20000000000002 C 101.49999999999999 129.4 102.89999999999999 131.00000000000003 104.19999999999999 132.60000000000002 C 105.6 133.40000000000003 106.99999999999999 135.3 107.79999999999998 138.10000000000002 C 109.39999999999998 142.40000000000003 110.49999999999999 146.50000000000003 110.79999999999998 149.8 C 111.29999999999998 154.10000000000002 111.89999999999998 157.4 112.69999999999999 159.60000000000002 C 113.79999999999998 162.50000000000003 114.29999999999998 165.00000000000003 114.1 167.20000000000002 C 113.8 171.8 112.39999999999999 175.60000000000002 109.69999999999999 178.9 C 108.1 180.5 106.19999999999999 181.9 104.19999999999999 182.70000000000002 Q 102.6 184.70000000000002 99.29999999999998 186.8 C 95.29999999999998 189.20000000000002 91.99999999999999 192.20000000000002 89.29999999999998 195.70000000000002 C 85.19999999999999 200.60000000000002 79.19999999999999 203.3 71.59999999999998 203.9 C 68.59999999999998 203.9 65.59999999999998 204.4 62.79999999999998 205.20000000000002 C 59.29999999999998 206.10000000000002 55.79999999999998 205.50000000000003 52.499999999999986 203.60000000000002 C 48.09999999999999 201.20000000000002 43.999999999999986 200.3 40.19999999999999 200.3 C 33.999999999999986 200.9 27.99999999999999 198.70000000000002 22.19999999999999 194.10000000000002 C 17.599999999999987 185.10000000000002 15.199999999999989 179.40000000000003 15.399999999999988 175.90000000000003 z M 71.6 125.80000000000001 C 71.3 125.80000000000001 71.3 125.80000000000001 71.3 126.10000000000001 C 69.6 127.50000000000001 66.89999999999999 128.3 63.699999999999996 128.60000000000002 C 60.699999999999996 129.10000000000002 58.8 130.50000000000003 57.9 133.20000000000002 C 56.3 137.3 53.3 140.50000000000003 49.2 143.00000000000003 C 46.5 144.60000000000002 44.900000000000006 146.80000000000004 44.6 149.20000000000002 C 44 152.8 43 155.50000000000003 40.800000000000004 157.4 C 38.00000000000001 159.8 36.7 162.3 37.00000000000001 164.4 C 37.800000000000004 168.3 40.00000000000001 171.8 43.20000000000001 175.1 C 45.70000000000001 176.4 48.10000000000001 177 50.60000000000001 177 C 53.80000000000001 177.2 56.00000000000001 177.8 57.400000000000006 178.6 C 59.60000000000001 180 61.2 180.2 62.800000000000004 179.4 C 65.80000000000001 178.3 68 178 69.60000000000001 178.9 C 72.10000000000001 179.4 75.10000000000001 178.9 78.9 177.20000000000002 C 82.7 175.60000000000002 86 172.9 88.4 169.60000000000002 C 88.4 165.8 89 162.8 89.80000000000001 160.60000000000002 C 90.9 157.90000000000003 91.20000000000002 154.70000000000002 91.20000000000002 150.60000000000002 C 90.60000000000002 146.8 89.80000000000001 144.10000000000002 88.20000000000002 142.70000000000002 C 87.60000000000002 142.10000000000002 87.10000000000002 140.8 86.50000000000001 138.9 C 85.70000000000002 136.4 84.60000000000001 134.5 83.00000000000001 133.20000000000002 C 82.20000000000002 132.4 81.60000000000001 131.50000000000003 81.40000000000002 131.00000000000003 C 81.10000000000002 130.50000000000003 80.80000000000003 129.60000000000002 80.00000000000001 129.10000000000002 C 77.50000000000001 127.70000000000002 74.80000000000001 126.60000000000002 71.60000000000001 125.80000000000003 z M 296 255.60000000000002 C 297.1 260.70000000000005 297.1 265.1 296.3 268.3 C 295.2 270.5 294.7 272.40000000000003 294.40000000000003 274.1 C 293.6 276.20000000000005 292.8 277.90000000000003 291.90000000000003 278.70000000000005 C 288.70000000000005 281.40000000000003 285.1 282.80000000000007 281.00000000000006 282.80000000000007 C 277.50000000000006 282.50000000000006 274.20000000000005 280.80000000000007 271.80000000000007 277.30000000000007 C 269.1000000000001 273.00000000000006 267.70000000000005 269.4000000000001 268.00000000000006 266.4000000000001 C 268.20000000000005 264.0000000000001 268.00000000000006 261.80000000000007 266.90000000000003 259.9000000000001 C 266.3 258.30000000000007 266.3 256.4000000000001 266.90000000000003 254.50000000000009 Q 267.70000000000005 251.20000000000007 266.90000000000003 247.10000000000008 C 265.20000000000005 240.9000000000001 264.70000000000005 236.00000000000009 265.20000000000005 232.70000000000007 C 266.30000000000007 223.20000000000007 266.1 213.90000000000006 264.70000000000005 204.70000000000007 C 264.40000000000003 202.30000000000007 264.40000000000003 199.80000000000007 264.70000000000005 197.60000000000008 C 265.00000000000006 195.20000000000007 265.00000000000006 191.9000000000001 264.70000000000005 187.30000000000007 C 264.20000000000005 181.90000000000006 264.40000000000003 177.50000000000006 265.20000000000005 174.20000000000007 C 266.30000000000007 170.20000000000007 266.6 165.50000000000009 265.80000000000007 160.90000000000006 C 265.20000000000005 158.50000000000006 264.70000000000005 155.20000000000007 264.4000000000001 151.40000000000006 C 262.5000000000001 149.20000000000007 260.9000000000001 147.90000000000006 259.2000000000001 147.00000000000006 C 256.5000000000001 144.60000000000005 254.6000000000001 142.70000000000005 253.5000000000001 141.90000000000006 C 253.0000000000001 141.60000000000005 252.40000000000012 141.30000000000007 251.90000000000012 141.30000000000007 C 245.40000000000012 139.40000000000006 238.5000000000001 139.20000000000007 232.0000000000001 140.20000000000007 C 229.30000000000013 140.80000000000007 226.80000000000013 141.30000000000007 224.7000000000001 141.30000000000007 Q 221.0000000000001 141.70000000000007 219.7000000000001 143.00000000000006 C 218.4000000000001 143.50000000000006 217.3000000000001 144.10000000000005 216.5000000000001 144.90000000000006 C 216.80000000000013 145.10000000000005 216.80000000000013 145.70000000000007 216.80000000000013 145.70000000000007 C 216.80000000000013 148.10000000000008 216.80000000000013 150.60000000000008 217.0000000000001 153.30000000000007 C 217.30000000000013 154.90000000000006 217.0000000000001 156.60000000000008 216.5000000000001 157.90000000000006 C 216.2000000000001 158.20000000000007 216.2000000000001 158.50000000000006 216.2000000000001 159.30000000000007 C 217.8000000000001 161.50000000000006 219.7000000000001 163.10000000000008 221.9000000000001 164.70000000000007 C 222.2000000000001 165.00000000000009 222.50000000000009 165.30000000000007 222.50000000000009 165.30000000000007 C 225.20000000000007 165.00000000000006 228.50000000000009 165.30000000000007 232.60000000000008 165.80000000000007 C 236.60000000000008 166.10000000000008 240.20000000000007 166.10000000000008 243.4000000000001 165.80000000000007 C 247.00000000000009 166.10000000000008 250.3000000000001 167.20000000000007 253.50000000000009 169.30000000000007 C 257.1000000000001 171.50000000000006 259.0000000000001 175.10000000000008 259.0000000000001 179.40000000000006 C 259.2000000000001 183.20000000000007 257.10000000000014 186.20000000000007 252.7000000000001 188.40000000000006 C 247.5000000000001 190.30000000000007 241.8000000000001 190.30000000000007 235.0000000000001 188.10000000000005 C 230.40000000000012 186.80000000000004 225.5000000000001 186.80000000000004 220.30000000000013 187.60000000000005 C 216.5000000000001 188.70000000000005 212.90000000000012 188.70000000000005 209.40000000000012 187.80000000000004 L 209.1000000000001 187.80000000000004 C 200.40000000000012 190.80000000000004 194.40000000000012 193.30000000000004 191.1000000000001 195.50000000000003 L 191.40000000000012 195.70000000000002 C 192.0000000000001 199.00000000000003 191.40000000000012 203.10000000000002 189.5000000000001 208.50000000000003 C 189.0000000000001 211.20000000000002 189.0000000000001 213.10000000000002 189.2000000000001 214.50000000000003 L 189.2000000000001 221.30000000000004 C 189.2000000000001 223.70000000000005 189.8000000000001 226.20000000000005 190.6000000000001 227.80000000000004 Q 191.40000000000012 229.90000000000003 192.2000000000001 231.10000000000005 C 195.0000000000001 232.70000000000005 195.8000000000001 235.20000000000005 194.1000000000001 238.40000000000006 C 192.8000000000001 241.70000000000007 190.90000000000012 243.90000000000006 188.1000000000001 245.00000000000006 C 186.5000000000001 245.20000000000005 184.90000000000012 245.20000000000005 183.8000000000001 245.00000000000006 Q 181.7000000000001 244.10000000000005 178.9000000000001 243.30000000000007 C 174.3000000000001 242.00000000000006 171.00000000000009 238.20000000000007 169.10000000000008 231.60000000000008 C 167.4000000000001 222.9000000000001 166.9000000000001 215.9000000000001 167.4000000000001 210.70000000000007 Q 168.3000000000001 207.00000000000009 168.3000000000001 204.20000000000007 L 168.3000000000001 201.70000000000007 C 168.00000000000009 200.30000000000007 167.4000000000001 199.00000000000009 166.6000000000001 198.20000000000007 C 166.1000000000001 196.80000000000007 165.3000000000001 196.00000000000009 164.7000000000001 195.20000000000007 C 162.8000000000001 195.20000000000007 161.2000000000001 195.20000000000007 159.5000000000001 194.90000000000006 C 157.6000000000001 193.80000000000007 156.0000000000001 193.00000000000006 154.6000000000001 192.20000000000007 C 154.6000000000001 192.50000000000009 154.6000000000001 193.00000000000009 154.90000000000012 193.80000000000007 C 154.90000000000012 196.50000000000006 154.40000000000012 200.10000000000008 153.6000000000001 203.90000000000006 C 152.2000000000001 207.10000000000005 151.40000000000012 210.10000000000005 151.6000000000001 212.90000000000006 C 151.40000000000012 214.80000000000007 151.40000000000012 216.70000000000007 151.1000000000001 218.60000000000005 C 150.6000000000001 220.20000000000005 150.3000000000001 221.80000000000004 150.6000000000001 223.70000000000005 C 150.6000000000001 225.60000000000005 150.0000000000001 227.50000000000006 149.2000000000001 229.70000000000005 Q 147.6000000000001 233.00000000000006 147.6000000000001 237.10000000000005 C 147.6000000000001 238.40000000000006 147.0000000000001 240.60000000000005 146.2000000000001 243.30000000000004 C 142.9000000000001 251.20000000000005 141.0000000000001 257.50000000000006 140.2000000000001 262.1 C 139.1000000000001 265.1 137.2000000000001 268.1 134.8000000000001 270.8 Q 129.00000000000009 275.7 124.1000000000001 276.5 C 121.40000000000009 276.8 118.40000000000009 276 115.1000000000001 274.6 C 112.40000000000009 272.40000000000003 110.5000000000001 270 109.70000000000009 267.3 C 109.1000000000001 264.5 108.90000000000009 261.8 109.1000000000001 259.1 Q 110.40000000000009 255.00000000000003 111.6000000000001 251.70000000000002 C 113.0000000000001 250.10000000000002 114.90000000000009 247.70000000000002 117.0000000000001 244.10000000000002 C 120.6000000000001 240.10000000000002 122.5000000000001 236.50000000000003 122.5000000000001 233.8 C 122.8000000000001 231.60000000000002 123.6000000000001 230 124.4000000000001 229.20000000000002 Q 127.30000000000011 221.8 128.5000000000001 216.10000000000002 C 129.90000000000012 213.40000000000003 130.40000000000012 211.00000000000003 130.40000000000012 208.8 C 130.40000000000012 200.3 132.0000000000001 192.20000000000002 135.6000000000001 184.3 C 137.5000000000001 179.4 137.8000000000001 174.8 136.40000000000012 169.9 C 136.90000000000012 166.4 137.20000000000013 163.9 137.20000000000013 162.3 C 138.30000000000013 159 138.80000000000013 156 138.60000000000014 152.8 C 137.80000000000013 147.60000000000002 137.50000000000014 142.70000000000002 138.30000000000013 138.10000000000002 C 138.60000000000014 134.00000000000003 138.60000000000014 126.40000000000002 137.5000000000001 114.70000000000002 C 136.90000000000012 107.90000000000002 135.0000000000001 102.70000000000002 132.30000000000013 98.90000000000002 C 128.5000000000001 93.50000000000001 126.30000000000013 86.40000000000002 126.00000000000013 78.00000000000003 Q 124.40000000000013 64.90000000000003 130.10000000000014 54.300000000000026 C 133.70000000000013 45.90000000000003 137.20000000000013 41.00000000000003 140.50000000000014 39.300000000000026 C 145.40000000000015 36.90000000000003 149.70000000000013 36.90000000000003 153.60000000000014 39.60000000000002 C 153.30000000000013 39.300000000000026 153.30000000000013 39.300000000000026 153.60000000000014 39.300000000000026 C 154.40000000000015 39.10000000000002 156.00000000000014 39.10000000000002 157.90000000000015 39.300000000000026 C 159.30000000000015 39.300000000000026 161.20000000000016 39.300000000000026 163.60000000000014 39.10000000000002 C 168.50000000000014 37.40000000000002 173.40000000000015 36.90000000000002 178.10000000000014 37.700000000000024 C 181.60000000000014 38.50000000000002 184.10000000000014 38.800000000000026 186.20000000000013 38.00000000000002 C 190.60000000000014 35.80000000000002 194.10000000000014 35.00000000000002 196.00000000000014 35.80000000000002 C 197.40000000000015 36.100000000000016 199.00000000000014 35.80000000000002 201.00000000000014 34.70000000000002 C 206.10000000000014 32.500000000000014 210.50000000000014 32.30000000000002 214.30000000000015 33.40000000000002 C 218.40000000000015 34.50000000000002 222.50000000000014 34.50000000000002 226.60000000000016 33.60000000000002 C 233.10000000000016 32.50000000000002 238.80000000000015 32.50000000000002 243.70000000000016 33.40000000000002 C 246.70000000000016 33.60000000000002 249.20000000000016 33.90000000000002 251.10000000000016 33.60000000000002 C 253.50000000000017 33.60000000000002 255.40000000000018 34.200000000000024 256.8000000000002 35.50000000000002 C 259.20000000000016 36.90000000000002 261.4000000000002 37.700000000000024 264.20000000000016 37.40000000000002 C 267.70000000000016 37.20000000000002 270.40000000000015 37.40000000000002 272.60000000000014 38.50000000000002 C 275.3000000000001 39.90000000000002 277.20000000000016 41.50000000000002 278.0000000000001 42.90000000000002 Q 279.7000000000001 46.60000000000002 284.60000000000014 48.60000000000002 C 290.0000000000001 51.60000000000002 293.60000000000014 56.200000000000024 295.5000000000001 62.700000000000024 Q 296.7000000000001 68.00000000000003 295.5000000000001 74.20000000000002 C 294.9000000000001 76.90000000000002 293.8000000000001 78.80000000000001 292.2000000000001 80.10000000000002 C 290.6000000000001 81.80000000000003 289.8000000000001 83.70000000000002 289.5000000000001 85.90000000000002 C 289.2000000000001 88.30000000000003 288.9000000000001 89.70000000000002 288.10000000000014 90.50000000000001 C 287.0000000000001 92.90000000000002 286.8000000000001 95.10000000000001 287.60000000000014 97.00000000000001 C 288.10000000000014 98.90000000000002 288.10000000000014 101.10000000000001 287.60000000000014 104.10000000000001 C 286.20000000000016 111.10000000000001 285.90000000000015 118.80000000000001 286.5000000000001 126.60000000000001 C 286.5000000000001 131.8 285.7000000000001 136.20000000000002 284.3000000000001 139.70000000000002 C 283.8000000000001 141.60000000000002 283.8000000000001 144.3 284.60000000000014 147.60000000000002 C 285.10000000000014 150.3 285.10000000000014 153.60000000000002 284.3000000000001 157.40000000000003 Q 283.10000000000014 162.30000000000004 284.3000000000001 167.20000000000005 C 285.7000000000001 175.10000000000005 286.2000000000001 182.10000000000005 285.40000000000015 187.80000000000004 C 284.00000000000017 197.60000000000005 284.60000000000014 204.70000000000005 286.8000000000001 209.30000000000004 C 290.8000000000001 221.60000000000005 293.0000000000001 231.40000000000003 293.3000000000001 239.00000000000003 C 293.8000000000001 245.80000000000004 294.7000000000001 250.90000000000003 296.0000000000001 255.60000000000002 z M 218.9 225.10000000000002 C 220.6 224.8 223.6 224.3 227.4 224.3 C 230.9 224 233.6 223.5 235 222.60000000000002 Q 241.5 220.60000000000002 248.1 224.3 C 251.6 226.20000000000002 253.79999999999998 229.4 254.29999999999998 233.8 C 254.6 238.70000000000002 253.29999999999998 242 249.99999999999997 243.9 C 245.89999999999998 246.3 240.19999999999996 247.1 233.09999999999997 246.3 C 230.89999999999998 245.8 229.79999999999995 245.8 229.59999999999997 246 C 228.19999999999996 246.3 226.79999999999995 246.3 225.49999999999997 246.3 C 223.79999999999998 246.3 222.19999999999996 246.60000000000002 221.09999999999997 247.4 C 217.29999999999995 248.8 212.39999999999998 248.5 206.69999999999996 247.1 C 203.69999999999996 245.2 201.99999999999997 242.5 201.79999999999995 239.2 C 201.99999999999994 236.79999999999998 202.89999999999995 234.29999999999998 204.19999999999996 231.6 C 206.69999999999996 228.6 209.39999999999995 227 212.89999999999995 227 C 215.39999999999995 226.2 217.59999999999994 225.6 218.89999999999995 225.1 z M 262.5 119.80000000000003 C 263.9 118.50000000000003 265 117.40000000000002 265.8 116.00000000000003 L 265.8 111.70000000000003 C 265.5 107.10000000000004 265.8 103.00000000000003 266.90000000000003 99.70000000000003 C 267.40000000000003 96.20000000000003 267.70000000000005 90.70000000000003 267.40000000000003 83.70000000000003 C 266.90000000000003 77.70000000000003 264.20000000000005 72.30000000000003 259.50000000000006 66.80000000000004 C 247.50000000000006 56.50000000000004 237.70000000000005 52.70000000000004 229.80000000000007 55.40000000000004 C 225.50000000000006 56.80000000000004 220.00000000000006 56.50000000000004 212.90000000000006 55.100000000000044 C 203.70000000000007 52.90000000000004 195.00000000000006 54.00000000000004 186.20000000000007 57.80000000000005 C 182.20000000000007 59.50000000000005 179.20000000000007 60.30000000000005 177.30000000000007 60.00000000000005 C 175.30000000000007 59.70000000000005 173.70000000000007 59.70000000000005 172.10000000000008 60.00000000000005 C 171.30000000000007 60.30000000000005 170.70000000000007 60.30000000000005 170.4000000000001 60.60000000000005 C 163.10000000000008 63.60000000000005 158.2000000000001 66.00000000000006 155.50000000000009 68.20000000000005 C 155.20000000000007 68.70000000000005 154.9000000000001 69.30000000000004 154.9000000000001 70.10000000000005 C 151.4000000000001 77.10000000000005 149.50000000000009 82.30000000000005 149.7000000000001 85.00000000000006 C 150.8000000000001 91.80000000000005 151.4000000000001 96.50000000000006 151.6000000000001 99.20000000000006 C 151.40000000000012 105.70000000000006 152.2000000000001 111.10000000000007 154.90000000000012 115.00000000000006 L 154.90000000000012 115.50000000000006 L 155.5000000000001 115.80000000000005 C 159.30000000000013 119.00000000000006 162.5000000000001 121.50000000000006 165.5000000000001 123.40000000000005 C 165.80000000000013 123.70000000000005 166.40000000000012 124.20000000000005 166.6000000000001 124.20000000000005 Q 170.7000000000001 123.00000000000004 174.0000000000001 123.40000000000005 C 177.0000000000001 123.90000000000005 180.2000000000001 123.90000000000005 183.5000000000001 123.40000000000005 C 186.2000000000001 122.60000000000005 189.2000000000001 122.60000000000005 192.0000000000001 123.10000000000005 C 195.5000000000001 123.70000000000005 198.2000000000001 123.10000000000005 200.40000000000012 121.50000000000006 C 202.90000000000012 120.70000000000006 206.70000000000013 120.40000000000006 212.1000000000001 120.70000000000006 L 212.40000000000012 120.70000000000006 C 214.6000000000001 119.30000000000005 215.90000000000012 118.50000000000006 217.0000000000001 117.40000000000006 C 217.6000000000001 116.60000000000007 218.40000000000012 115.80000000000007 219.2000000000001 115.00000000000006 C 219.5000000000001 113.60000000000005 220.0000000000001 112.20000000000006 220.8000000000001 111.40000000000006 C 221.7000000000001 109.80000000000007 222.50000000000009 107.90000000000006 223.00000000000009 105.20000000000006 C 223.00000000000009 103.30000000000005 222.70000000000007 100.50000000000006 222.20000000000007 97.30000000000005 C 221.90000000000006 94.80000000000005 221.90000000000006 92.70000000000006 222.20000000000007 91.30000000000005 C 223.80000000000007 87.50000000000006 224.90000000000006 84.20000000000006 225.20000000000007 81.80000000000005 Q 225.20000000000007 74.40000000000005 230.90000000000006 70.40000000000005 C 235.30000000000007 67.10000000000005 238.50000000000006 65.70000000000005 241.30000000000007 66.30000000000005 C 243.70000000000007 66.80000000000005 245.60000000000008 68.70000000000006 247.00000000000006 71.40000000000005 C 248.60000000000005 75.00000000000004 249.40000000000006 79.10000000000005 249.20000000000005 83.40000000000005 C 248.60000000000005 86.70000000000005 247.80000000000004 89.90000000000005 247.00000000000006 92.70000000000005 C 245.60000000000005 95.60000000000005 244.00000000000006 98.40000000000005 241.80000000000007 100.80000000000004 C 239.40000000000006 103.50000000000004 238.30000000000007 107.60000000000004 238.00000000000006 112.80000000000004 C 237.70000000000005 113.90000000000003 237.50000000000006 115.00000000000004 237.50000000000006 116.30000000000004 C 238.00000000000006 116.90000000000003 238.80000000000007 117.70000000000005 239.40000000000006 118.50000000000004 C 239.60000000000005 118.50000000000004 239.90000000000006 118.80000000000004 239.90000000000006 119.30000000000004 C 242.60000000000005 119.00000000000004 246.20000000000007 119.30000000000004 250.30000000000007 119.80000000000004 C 254.10000000000008 120.40000000000003 257.6000000000001 120.40000000000003 260.9000000000001 120.10000000000004 C 261.2000000000001 120.10000000000004 261.7000000000001 120.40000000000003 262.0000000000001 120.40000000000003 Q 262.10000000000014 120.10000000000004 262.3000000000001 119.90000000000003 C 262.3000000000001 119.90000000000003 262.3000000000001 120.00000000000003 262.5000000000001 119.80000000000004 z M 262.3 119.90000000000002 C 262.3 119.80000000000003 262.5 119.60000000000002 262.5 119.60000000000002 Q 262.5 119.60000000000002 262.3 119.90000000000002 z M 195.8 164.40000000000003 C 195.8 163.90000000000003 195.8 163.10000000000002 196 162.50000000000003 C 196.3 160.10000000000002 196 158.20000000000002 195.5 156.30000000000004 L 195.5 148.40000000000003 C 195 147.60000000000002 194.1 147.00000000000003 193.3 146.80000000000004 C 190.9 145.40000000000003 188.10000000000002 144.30000000000004 184.9 143.50000000000003 L 184.6 143.50000000000003 C 181.1 145.40000000000003 178.1 146.50000000000003 175.9 146.80000000000004 C 173.4 147.00000000000003 171 147.30000000000004 168.8 147.30000000000004 C 167.70000000000002 147.90000000000003 167.20000000000002 148.10000000000005 166.9 148.10000000000005 C 164.4 149.50000000000006 163.1 151.10000000000005 162 152.50000000000006 C 160.9 153.60000000000005 160.1 154.90000000000006 159.5 156.30000000000007 C 159.3 160.60000000000008 158.7 163.90000000000006 157.9 166.40000000000006 C 156.5 169.10000000000005 156 172.10000000000005 156.3 175.60000000000005 C 158.70000000000002 172.90000000000006 161.70000000000002 171.00000000000006 165.8 170.20000000000005 C 169.4 168.80000000000004 172.10000000000002 168.50000000000006 174.3 168.50000000000006 Q 177.9 169.30000000000007 181.60000000000002 168.50000000000006 C 184.10000000000002 168.00000000000006 186.20000000000002 168.00000000000006 188.40000000000003 168.50000000000006 L 189.20000000000005 168.50000000000006 C 192.00000000000006 167.20000000000005 194.40000000000003 165.80000000000007 195.80000000000004 164.40000000000006 z M 175.60000000000002 79.60000000000004 C 176.70000000000002 79.10000000000004 177.50000000000003 78.00000000000004 178.10000000000002 76.90000000000003 C 178.3 75.20000000000003 180.50000000000003 74.40000000000003 185.20000000000002 74.70000000000003 C 188.4 75.00000000000003 191.10000000000002 76.10000000000004 193.10000000000002 78.20000000000003 C 195.20000000000002 81.50000000000003 196.60000000000002 84.50000000000003 197.10000000000002 87.80000000000003 C 197.40000000000003 89.10000000000002 198.00000000000003 90.70000000000003 198.8 91.80000000000003 C 199 92.90000000000002 199 94.30000000000003 198.8 95.60000000000002 C 199.3 98.60000000000002 199.9 100.80000000000003 200.10000000000002 102.20000000000002 C 200.40000000000003 103.80000000000001 200.10000000000002 106.00000000000001 199.00000000000003 108.70000000000002 C 197.40000000000003 112.20000000000002 195.80000000000004 114.40000000000002 193.60000000000002 115.00000000000001 C 191.70000000000002 115.80000000000001 189.00000000000003 114.70000000000002 186.00000000000003 111.40000000000002 C 181.30000000000004 108.40000000000002 178.90000000000003 105.40000000000002 178.30000000000004 102.20000000000002 C 176.20000000000005 97.30000000000001 175.10000000000005 94.00000000000001 174.80000000000004 92.10000000000002 C 174.80000000000004 90.70000000000002 174.50000000000003 88.60000000000002 173.70000000000005 85.00000000000003 C 174.30000000000004 81.80000000000003 174.80000000000004 79.90000000000003 175.60000000000005 79.60000000000002 z M 433 31.500000000000036 C 426.8 29.800000000000036 423.8 26.600000000000037 423.8 21.900000000000034 C 423.5 17.300000000000033 425.1 13.800000000000034 428.7 11.100000000000033 C 432.8 7.800000000000034 437.7 5.900000000000033 443.7 5.600000000000033 Q 449 5.200000000000033 455.09999999999997 4.000000000000034 Q 463.29999999999995 0.7000000000000339 473.9 0.7000000000000339 C 482.59999999999997 0.500000000000034 489.4 1.000000000000034 494.59999999999997 1.800000000000034 C 501.2 3.400000000000034 508.2 4.000000000000034 515.3 3.200000000000034 C 526.5 1.800000000000034 536.3 2.900000000000034 544.6999999999999 7.000000000000034 C 546.9 8.600000000000033 549.9 9.200000000000035 553.9999999999999 8.900000000000034 C 558.5999999999999 9.200000000000035 562.9999999999999 11.100000000000033 567.5999999999999 14.900000000000034 C 572.8 18.100000000000033 575.8 20.900000000000034 576.0999999999999 23.600000000000033 C 576.3 26.000000000000032 577.3999999999999 28.20000000000003 579.5999999999999 30.100000000000033 C 582.3 33.10000000000004 583.6999999999999 38.500000000000036 583.3999999999999 46.10000000000004 C 583.9999999999999 50.000000000000036 585.0999999999999 53.20000000000004 586.3999999999999 55.900000000000034 Q 588.8999999999999 60.000000000000036 588.8999999999999 69.00000000000003 L 588.8999999999999 88.00000000000003 C 588.5999999999999 97.00000000000003 586.3999999999999 103.30000000000003 582.2999999999998 107.30000000000003 Q 577.3999999999999 114.70000000000003 566.7999999999998 118.80000000000003 C 561.5999999999998 121.80000000000003 555.0999999999998 122.80000000000003 546.5999999999998 122.00000000000003 C 540.8999999999997 121.80000000000003 535.9999999999998 121.80000000000003 531.8999999999997 122.60000000000002 C 527.2999999999997 124.20000000000002 522.8999999999997 124.50000000000003 518.8999999999997 123.10000000000002 C 514.9999999999998 121.50000000000003 511.19999999999976 121.20000000000002 507.09999999999974 122.60000000000002 C 502.4999999999997 125.00000000000003 498.19999999999976 125.00000000000003 494.09999999999974 123.10000000000002 C 491.09999999999974 121.80000000000003 487.7999999999997 121.80000000000003 484.4999999999997 122.60000000000002 C 483.3999999999997 126.40000000000002 482.09999999999974 129.90000000000003 480.1999999999997 133.40000000000003 C 478.2999999999997 136.40000000000003 475.4999999999997 139.20000000000005 471.6999999999997 141.90000000000003 C 469.7999999999997 143.50000000000003 468.1999999999997 145.10000000000002 466.5999999999997 147.30000000000004 C 465.1999999999997 150.60000000000005 462.99999999999966 152.50000000000003 460.5999999999997 153.30000000000004 C 457.5999999999997 154.40000000000003 455.0999999999997 156.00000000000003 452.8999999999997 157.90000000000003 C 449.3999999999997 161.70000000000005 445.29999999999967 164.40000000000003 440.3999999999997 165.80000000000004 Q 435.0999999999997 168.30000000000004 429.79999999999967 171.50000000000003 C 426.79999999999967 174.00000000000003 422.3999999999997 175.10000000000002 416.3999999999997 175.30000000000004 C 411.29999999999967 175.60000000000005 406.8999999999997 177.00000000000003 403.0999999999997 179.40000000000003 C 398.99999999999966 181.30000000000004 395.99999999999966 182.10000000000002 393.79999999999967 181.90000000000003 C 391.3999999999997 181.60000000000002 389.19999999999965 181.90000000000003 387.79999999999967 182.40000000000003 C 382.69999999999965 184.30000000000004 377.49999999999966 184.60000000000002 372.29999999999967 182.90000000000003 C 367.8999999999997 181.60000000000002 365.79999999999967 180.20000000000005 365.49999999999966 178.90000000000003 C 365.19999999999965 177.20000000000005 364.69999999999965 176.10000000000002 363.89999999999964 175.90000000000003 Q 362.5999999999996 175.10000000000002 362.19999999999965 171.80000000000004 C 361.89999999999964 168.50000000000003 362.79999999999967 165.50000000000003 364.89999999999964 162.80000000000004 C 366.89999999999964 160.90000000000003 369.7999999999996 159.30000000000004 373.69999999999965 158.20000000000005 C 377.69999999999965 157.10000000000005 381.79999999999967 157.10000000000005 385.5999999999996 157.90000000000003 C 388.39999999999964 158.50000000000003 391.89999999999964 158.70000000000005 395.9999999999996 158.70000000000005 C 400.0999999999996 158.20000000000005 403.5999999999996 157.10000000000005 407.1999999999996 155.20000000000005 C 410.3999999999996 152.80000000000004 413.9999999999996 151.40000000000003 418.09999999999957 151.10000000000005 C 422.1999999999996 150.60000000000005 425.6999999999996 148.70000000000005 428.99999999999955 146.00000000000006 C 431.99999999999955 143.80000000000007 435.19999999999953 142.10000000000005 438.49999999999955 141.60000000000005 C 443.3999999999995 139.20000000000005 447.49999999999955 136.20000000000005 450.79999999999956 132.40000000000006 C 452.09999999999957 129.90000000000006 453.19999999999953 127.70000000000006 454.59999999999957 126.40000000000006 C 449.09999999999957 124.70000000000006 444.1999999999996 125.00000000000006 439.59999999999957 126.90000000000006 C 436.29999999999956 128.30000000000007 431.3999999999996 127.70000000000006 424.29999999999956 125.60000000000007 C 416.99999999999955 123.70000000000006 412.29999999999956 120.90000000000006 410.99999999999955 117.70000000000006 C 410.3999999999995 114.40000000000006 407.99999999999955 111.10000000000007 403.8999999999995 108.40000000000006 C 400.5999999999995 106.50000000000006 399.49999999999955 102.20000000000006 400.0999999999995 95.60000000000007 C 399.7999999999995 85.60000000000007 399.2999999999995 77.70000000000007 398.4999999999995 71.20000000000007 C 397.39999999999947 67.40000000000008 397.39999999999947 63.60000000000007 398.1999999999995 59.700000000000074 C 398.4999999999995 57.300000000000075 398.6999999999995 54.60000000000007 398.4999999999995 51.90000000000008 C 398.1999999999995 46.10000000000008 399.2999999999995 41.00000000000008 401.39999999999947 36.60000000000008 C 402.79999999999944 33.40000000000008 404.6999999999995 31.20000000000008 406.89999999999947 29.60000000000008 C 408.79999999999944 27.90000000000008 410.9999999999995 27.40000000000008 412.89999999999947 27.10000000000008 C 415.29999999999944 27.70000000000008 417.79999999999944 28.20000000000008 419.6999999999995 29.000000000000078 Q 422.59999999999945 31.500000000000078 423.7999999999995 36.40000000000008 C 425.0999999999995 40.200000000000074 425.6999999999995 46.10000000000008 424.5999999999995 54.800000000000075 C 423.19999999999953 64.90000000000008 422.9999999999995 72.80000000000007 423.7999999999995 78.00000000000007 C 425.0999999999995 84.80000000000007 426.7999999999995 89.40000000000008 428.9999999999995 92.10000000000007 C 431.39999999999947 96.50000000000007 435.4999999999995 99.50000000000007 440.89999999999947 101.10000000000007 C 448.79999999999944 103.30000000000007 457.59999999999945 103.30000000000007 467.09999999999945 100.50000000000007 C 479.39999999999947 97.00000000000007 491.59999999999945 96.50000000000007 503.09999999999945 99.20000000000007 C 510.39999999999947 100.80000000000007 517.1999999999995 100.50000000000007 522.8999999999994 98.60000000000008 C 528.6999999999994 97.00000000000009 535.1999999999994 96.20000000000007 542.2999999999994 96.50000000000009 C 548.2999999999994 97.30000000000008 553.1999999999994 95.60000000000008 556.6999999999994 91.60000000000008 C 559.3999999999994 89.40000000000008 561.8999999999994 85.60000000000008 563.7999999999994 79.90000000000008 C 564.5999999999993 73.60000000000008 564.0999999999993 67.90000000000008 562.1999999999994 63.300000000000075 C 560.4999999999993 58.90000000000008 559.9999999999993 55.10000000000008 559.9999999999993 51.90000000000008 Q 559.5999999999993 48.60000000000008 558.3999999999993 44.50000000000008 C 555.8999999999993 41.300000000000075 554.2999999999993 39.10000000000008 554.2999999999993 38.00000000000008 C 553.4999999999993 35.50000000000008 552.3999999999993 33.60000000000008 550.6999999999992 32.800000000000075 C 548.5999999999992 32.00000000000008 546.3999999999993 30.900000000000077 544.9999999999992 29.600000000000076 C 542.7999999999992 26.800000000000075 533.2999999999992 24.900000000000077 515.8999999999992 24.100000000000076 C 503.8999999999992 24.400000000000077 494.09999999999917 24.100000000000076 486.1999999999992 23.300000000000075 C 475.4999999999992 21.100000000000076 465.6999999999992 22.200000000000074 456.4999999999992 26.800000000000075 C 447.7999999999992 31.500000000000075 440.0999999999992 32.800000000000075 432.9999999999992 31.500000000000075 z M 475.3 52.10000000000004 C 483.2 50.500000000000036 491.3 50.20000000000004 499.2 51.900000000000034 C 505.5 53.500000000000036 510.7 53.80000000000003 515.6 52.400000000000034 C 521.3000000000001 51.000000000000036 526.2 51.30000000000003 530 53.500000000000036 C 533.8 56.20000000000004 535.7 60.000000000000036 536 64.60000000000004 C 535.2 69.00000000000004 533.3 72.00000000000004 530.6 73.60000000000004 C 526.8000000000001 75.20000000000003 523.2 75.50000000000004 519.7 73.90000000000003 C 513.1 72.30000000000004 507.1 72.00000000000003 502.20000000000005 73.60000000000004 C 496.00000000000006 75.80000000000004 490.30000000000007 76.10000000000004 485.1 73.90000000000003 C 479.90000000000003 72.50000000000003 472.5 73.10000000000004 463.8 75.20000000000003 C 457.3 77.40000000000003 451.6 77.40000000000003 446.90000000000003 75.20000000000003 C 443.40000000000003 72.50000000000003 442.00000000000006 69.00000000000003 442.00000000000006 65.20000000000003 C 442.6000000000001 61.400000000000034 443.90000000000003 58.10000000000003 446.90000000000003 55.400000000000034 C 449.70000000000005 52.70000000000003 453.50000000000006 51.900000000000034 458.1 53.500000000000036 C 461.90000000000003 54.60000000000004 467.90000000000003 54.30000000000003 475.3 52.10000000000004 z M 537.1 289.6 C 531.9 291.70000000000005 527.8000000000001 292.5 524.9 291.70000000000005 C 521.3 290.40000000000003 518.3 289.80000000000007 516.1 289.6 C 511.8 289 508.8 287.6 507.70000000000005 285.5 Q 506.50000000000006 281.8 503.6 278.9 Q 500.70000000000005 276.5 500.3 273.2 C 499.8 271.59999999999997 499 270 497.90000000000003 268.59999999999997 C 495.40000000000003 265.29999999999995 494.3 262.09999999999997 494.1 258.79999999999995 Q 493.70000000000005 253.49999999999994 496.5 251.49999999999994 C 499.5 249.29999999999995 503.3 249.59999999999994 508 251.99999999999994 C 510.1 253.09999999999994 512.6 254.99999999999994 515.3 257.19999999999993 C 517 257.99999999999994 518.3 258.49999999999994 519.6999999999999 258.49999999999994 C 523.8 259.8999999999999 529.8 259.3999999999999 537.6999999999999 257.19999999999993 C 547.6999999999999 255.29999999999993 554.3 252.79999999999993 557.3 250.09999999999994 C 558.4 248.49999999999994 559.6999999999999 247.39999999999995 561.5999999999999 247.39999999999995 C 565.9999999999999 245.49999999999994 570.8999999999999 241.09999999999994 576.3 234.59999999999994 C 578.1999999999999 231.89999999999995 579.9 229.69999999999993 581.5 228.39999999999995 C 585.3 224.59999999999994 588.6 218.29999999999995 591 209.89999999999995 C 592.7 200.89999999999995 592.7 194.59999999999994 590.8 190.79999999999995 C 588.5999999999999 183.99999999999994 584.1999999999999 177.99999999999994 578.5 172.59999999999997 C 577.4 172.09999999999997 576.6 171.49999999999997 575.5 171.19999999999996 C 572.5 171.49999999999997 570.3 171.49999999999997 569 171.79999999999995 C 565.7 172.29999999999995 563.3 172.89999999999995 561.4 173.19999999999996 C 559.1999999999999 173.69999999999996 557.5 173.99999999999997 556.1999999999999 173.99999999999997 C 554.8 173.69999999999996 553.9999999999999 171.79999999999998 552.9 167.69999999999996 C 551.5 163.39999999999995 550.1999999999999 159.79999999999995 548.8 156.59999999999997 C 548 155.19999999999996 547.5 154.39999999999998 547.1999999999999 153.59999999999997 C 545.8 153.29999999999995 544.6999999999999 153.29999999999995 543.0999999999999 153.29999999999995 C 537.6999999999999 152.19999999999996 533.8 152.19999999999996 531.6999999999999 152.99999999999994 C 527.5999999999999 154.09999999999994 524.5999999999999 154.39999999999995 522.4 153.59999999999994 L 521.9 153.59999999999994 C 520.8 156.79999999999993 518.3 159.59999999999994 514.1999999999999 161.99999999999994 C 511.79999999999995 163.39999999999995 509.8999999999999 165.29999999999995 508.49999999999994 167.39999999999995 C 504.09999999999997 170.99999999999994 500.09999999999997 174.19999999999996 495.99999999999994 176.99999999999994 C 492.99999999999994 178.59999999999994 490.29999999999995 180.79999999999995 488.29999999999995 183.49999999999994 Q 481.4 189.59999999999994 476.09999999999997 192.49999999999994 C 473.9 193.49999999999994 471.7 195.19999999999993 469.79999999999995 197.39999999999995 C 466.59999999999997 200.59999999999994 463.29999999999995 203.09999999999994 459.99999999999994 204.99999999999994 C 457.29999999999995 206.29999999999995 454.79999999999995 207.99999999999994 452.69999999999993 210.69999999999993 C 450.49999999999994 213.09999999999994 447.19999999999993 214.99999999999994 442.29999999999995 216.39999999999992 C 439.9 217.49999999999991 436.9 219.69999999999993 433.59999999999997 222.5999999999999 C 430.9 224.2999999999999 426.49999999999994 226.49999999999991 420.49999999999994 228.89999999999992 C 412.59999999999997 232.39999999999992 407.19999999999993 234.29999999999993 403.8999999999999 234.29999999999993 C 402.2999999999999 234.09999999999994 399.2999999999999 235.39999999999992 395.19999999999993 238.19999999999993 C 390.79999999999995 241.09999999999994 386.19999999999993 242.79999999999993 381.79999999999995 242.99999999999994 C 376.4 243.59999999999994 371.99999999999994 242.79999999999995 369.29999999999995 240.89999999999995 C 365.49999999999994 238.39999999999995 362.99999999999994 235.19999999999996 362.19999999999993 230.49999999999994 C 361.69999999999993 227.49999999999994 363.29999999999995 224.29999999999995 367.0999999999999 220.49999999999994 C 370.69999999999993 216.89999999999995 374.9999999999999 215.29999999999995 380.19999999999993 214.99999999999994 C 389.49999999999994 214.19999999999993 395.69999999999993 212.59999999999994 398.99999999999994 210.69999999999993 C 401.19999999999993 209.29999999999993 404.3999999999999 208.49999999999994 409.09999999999997 207.39999999999992 C 419.99999999999994 203.89999999999992 427.09999999999997 200.5999999999999 430.09999999999997 197.89999999999992 C 431.99999999999994 195.69999999999993 434.7 194.0999999999999 437.99999999999994 192.69999999999993 C 440.8999999999999 191.39999999999992 443.3999999999999 189.49999999999994 445.59999999999997 187.29999999999993 C 449.7 184.59999999999994 452.9 182.69999999999993 455.7 181.29999999999993 C 460.3 178.59999999999994 466 175.29999999999993 472.5 171.19999999999993 C 478 167.69999999999993 481.5 164.99999999999994 483.7 163.59999999999994 C 485.4 161.69999999999993 487.3 160.09999999999994 489.4 158.49999999999994 C 494.09999999999997 155.99999999999994 498.4 152.99999999999994 502.5 149.99999999999994 L 502.2 149.79999999999995 C 499.2 148.09999999999997 497.9 144.89999999999995 497.9 140.19999999999996 C 498.2 135.89999999999995 500.59999999999997 132.59999999999997 505.2 130.69999999999996 C 509.9 129.39999999999995 514.2 128.59999999999997 518.3 128.79999999999995 Q 524.4 129.19999999999996 531.4 130.49999999999994 C 536.3 132.09999999999994 540.1 132.59999999999994 542.6 131.79999999999995 C 544.2 131.29999999999995 546.6 130.99999999999994 549.4 131.29999999999995 Q 553 133.29999999999995 558.4 132.89999999999995 C 560.5 132.39999999999995 563 133.19999999999996 565.6999999999999 135.09999999999994 C 570.3 138.59999999999994 575.1999999999999 141.09999999999994 580.4 142.99999999999994 C 585.1 144.89999999999995 588.1 147.29999999999995 589.4 149.99999999999994 C 592.4 153.29999999999995 596.5 157.09999999999994 601.9 161.19999999999993 C 604.4 162.79999999999993 605.5 165.29999999999993 605.8 168.49999999999994 C 607.0999999999999 170.99999999999994 608.8 173.99999999999994 610.6999999999999 177.99999999999994 C 612.8 180.49999999999994 613.6999999999999 183.49999999999994 613.4 186.99999999999994 C 613.9 189.49999999999994 614.6999999999999 191.89999999999995 616.4 193.49999999999994 C 617.5 195.19999999999993 617.5 197.09999999999994 616.6999999999999 198.99999999999994 C 615.3 201.19999999999993 615.3 204.19999999999993 616.0999999999999 207.39999999999995 C 617.4999999999999 209.89999999999995 616.8999999999999 214.49999999999994 614.1999999999999 221.79999999999995 C 613.9 223.49999999999994 613.6999999999999 225.59999999999997 613.6999999999999 228.39999999999995 C 613.6999999999999 231.89999999999995 611.4999999999999 237.09999999999994 607.6999999999999 243.29999999999995 C 602.1999999999999 249.59999999999997 598.6999999999999 252.79999999999995 596.8 253.09999999999997 C 595.4 254.19999999999996 593.8 256.09999999999997 592.6999999999999 258.79999999999995 C 589.4 262.9 584.4999999999999 267.29999999999995 577.9999999999999 271.09999999999997 C 564.8999999999999 279.99999999999994 555.8999999999999 284.9 551.2999999999998 285.7 C 547.1999999999998 286 542.2999999999998 287.4 537.0999999999998 289.59999999999997 z M 450.8 240.60000000000002 C 452.90000000000003 238.20000000000002 455.7 236.00000000000003 459.2 234.60000000000002 C 462.5 233.3 465.2 231.10000000000002 467.9 228.60000000000002 C 472.29999999999995 225.40000000000003 476.09999999999997 223.20000000000002 478.79999999999995 221.60000000000002 C 483.69999999999993 218.60000000000002 489.69999999999993 214.8 497.09999999999997 210.10000000000002 C 502.79999999999995 206.10000000000002 506.9 203.10000000000002 509.59999999999997 201.70000000000002 C 510.99999999999994 199.3 513.0999999999999 197.10000000000002 515.5999999999999 195.70000000000002 C 521.5999999999999 192.20000000000002 527.3 188.10000000000002 532.4999999999999 183.50000000000003 C 536.7999999999998 180.50000000000003 540.3999999999999 179.40000000000003 543.5999999999999 180.20000000000002 C 548.5999999999999 181.60000000000002 550.9999999999999 184.3 550.6999999999999 188.9 C 549.9 193 547.1999999999999 196.5 542.3 199.3 C 539.8 200.60000000000002 537.9 202.8 536 205.5 C 531.1 209.6 526.8 213.1 522.7 216.4 C 519.1 218 516.4000000000001 220.70000000000002 514.2 224 C 509.30000000000007 228.6 505.00000000000006 231.9 500.90000000000003 233.8 C 499.8 236 499.20000000000005 238.20000000000002 499.00000000000006 240.9 Q 497.70000000000005 246.20000000000002 497.30000000000007 246.6 C 495.70000000000005 246.29999999999998 493.80000000000007 246.29999999999998 491.9000000000001 246.6 C 490.5000000000001 246.9 488.30000000000007 247.1 485.6000000000001 247.1 C 484.80000000000007 247.1 484.30000000000007 247.1 484.00000000000006 247.4 C 483.70000000000005 247.4 483.40000000000003 247.4 483.40000000000003 247.70000000000002 C 480.40000000000003 249.60000000000002 478.00000000000006 252.00000000000003 475.8 254.70000000000002 C 473.6 256.90000000000003 469.8 259.1 464.6 261 C 461.70000000000005 262.4 458.40000000000003 264.5 455.1 268.1 C 452.40000000000003 270.20000000000005 447.8 272.70000000000005 440.90000000000003 275.40000000000003 C 432.20000000000005 279.8 426.20000000000005 281.90000000000003 422.70000000000005 281.90000000000003 C 420.80000000000007 281.70000000000005 417.50000000000006 283.3 413.20000000000005 286.3 C 408.00000000000006 289.6 403.1 291.5 398.50000000000006 291.7 C 392.50000000000006 292.3 387.80000000000007 291.7 384.80000000000007 289.8 C 380.70000000000005 287.40000000000003 378.00000000000006 283.6 376.9000000000001 278.40000000000003 C 376.4000000000001 274.90000000000003 378.0000000000001 271.1 382.1000000000001 267.00000000000006 C 385.9000000000001 263.20000000000005 390.80000000000007 261.30000000000007 396.50000000000006 261.00000000000006 Q 411.30000000000007 259.00000000000006 417.00000000000006 255.30000000000007 C 419.40000000000003 253.70000000000007 423.20000000000005 252.30000000000007 428.40000000000003 251.50000000000006 C 439.90000000000003 247.10000000000005 447.50000000000006 243.30000000000007 450.8 240.60000000000005 z" stroke-linecap="round" />
</g>
		<g transform="matrix(1 0 0 1 360.57 62.72)" id="Fill-5"  >
<path style="stroke: none; stroke-width: 1; stroke-dasharray: none; stroke-linecap: butt; stroke-dashoffset: 0; stroke-linejoin: miter; stroke-miterlimit: 4; fill: rgb(255,255,255); fill-rule: evenodd; opacity: 1;" vector-effect="non-scaling-stroke"  transform=" translate(-1150.25, -209.05)" d="M 870 172.1 L 960.7 172.1 L 960.7 195.7 L 904.1 195.7 L 904.1 213.1 L 956.6 213.1 L 956.6 235.7 L 904.1 235.7 L 904.1 257.5 L 962.3000000000001 257.5 L 962.3000000000001 282.8 L 870.0000000000001 282.8 z M 980.9 172.1 L 1082.5 172.1 L 1082.5 199.2 L 1048.4 199.2 L 1048.4 282.7 L 1015.2 282.7 L 1015.2 199.2 L 980.9000000000001 199.2 z M 1309.1 264.6 L 1270.6999999999998 264.6 L 1265.2999999999997 282.8 L 1230.3999999999996 282.8 L 1271.7999999999997 172.10000000000002 L 1309.0999999999997 172.10000000000002 L 1350.4999999999998 282.8 L 1314.8999999999999 282.8 z M 1302 240.70000000000002 L 1290 201 L 1278 240.7 z M 1369 242.3 L 1402 240.20000000000002 C 1402.8 245.60000000000002 1404.2 250.00000000000003 1406.3 252.70000000000002 C 1409.8999999999999 257.3 1415 259.70000000000005 1421.6 259.70000000000005 C 1426.5 259.70000000000005 1430.3 258.40000000000003 1433 256.20000000000005 C 1435.8 253.80000000000004 1437.1 251.00000000000006 1437.1 247.80000000000004 C 1437.1 244.80000000000004 1435.8 242.10000000000005 1433.3 239.60000000000005 C 1430.8 237.20000000000005 1424.8999999999999 235.00000000000006 1415.6 232.80000000000004 C 1400.3 229.30000000000004 1389.3999999999999 224.70000000000005 1383.1999999999998 218.70000000000005 C 1376.6 212.70000000000005 1373.3999999999999 205.40000000000003 1373.3999999999999 196.40000000000003 C 1373.3999999999999 190.40000000000003 1374.9999999999998 185.00000000000003 1378.3 179.50000000000003 C 1381.5 174.10000000000002 1386.7 170.00000000000003 1393.3 167.00000000000003 C 1400.1 164.00000000000003 1409.3 162.40000000000003 1420.8 162.40000000000003 Q 1442.3999999999999 162.40000000000003 1453.5 170.50000000000003 C 1461.1 176.00000000000003 1465.4 185.00000000000003 1466.8 196.90000000000003 L 1434.1 198.80000000000004 C 1433.3 193.70000000000005 1431.3999999999999 189.80000000000004 1428.6999999999998 187.40000000000003 C 1425.8999999999999 185.00000000000003 1422.1 183.90000000000003 1417.1999999999998 183.90000000000003 C 1413.1 183.90000000000003 1410.1 184.70000000000005 1407.9999999999998 186.60000000000002 C 1406.0999999999997 188.20000000000002 1404.9999999999998 190.40000000000003 1404.9999999999998 193.10000000000002 C 1404.9999999999998 195.00000000000003 1405.7999999999997 196.60000000000002 1407.6999999999998 198.00000000000003 C 1409.2999999999997 199.60000000000002 1413.1 201.00000000000003 1419.3999999999999 202.40000000000003 C 1434.3999999999999 205.60000000000002 1445.3 209.20000000000005 1451.8 212.70000000000005 C 1458.3999999999999 216.20000000000005 1463 220.60000000000005 1466.3 225.50000000000006 C 1469.3 230.60000000000005 1470.6 236.40000000000006 1470.6 242.60000000000005 C 1470.6 250.00000000000006 1468.6999999999998 257.00000000000006 1464.6 263.30000000000007 C 1460.5 269.50000000000006 1455.1 274.4000000000001 1448 277.70000000000005 Q 1437.4 282.6 1421 282.6 C 1402 282.6 1388.9 278.8 1381.5 271.20000000000005 C 1374.2 263.80000000000007 1370.1 254.00000000000006 1369 242.30000000000004 z M 1485.3 165.4 L 1576.8999999999999 165.4 L 1576.8999999999999 189.6 L 1519.6999999999998 189.6 L 1519.6999999999998 207.5 L 1572.4999999999998 207.5 L 1572.4999999999998 230.4 L 1519.6999999999998 230.4 L 1519.6999999999998 252.70000000000002 L 1578.4999999999998 252.70000000000002 L 1578.4999999999998 278.20000000000005 L 1485.2999999999997 278.20000000000005 z M 722 135.20000000000002 L 755.5 135.20000000000002 L 799.1 217.10000000000002 L 799.1 135.20000000000002 L 832.9 135.20000000000002 L 832.9 282.9 L 799.1 282.9 L 755.8000000000001 201.29999999999998 L 755.8000000000001 282.9 L 722.0000000000001 282.9 z M 1110.2 135.20000000000002 L 1210.2 135.20000000000002 L 1210.2 166.8 L 1147.8 166.8 L 1147.8 190.20000000000002 L 1205.6 190.20000000000002 L 1205.6 220.3 L 1147.8 220.3 L 1147.8 249.4 L 1212.1 249.4 L 1212.1 282.9 L 1110.1999999999998 282.9 z" stroke-linecap="round" />
</g>
</g>
</g>
</svg>
