<svg xmlns="http://www.w3.org/2000/svg" xmlns:svg="http://www.w3.org/2000/svg" id="svg2" width="68cm" height="56cm" version="1.1" viewBox="-55 -75 1348 1117"><metadata id="metadata738"/><g id="g4"><rect id="rect6" width="630" height="381" x="662" y="192" style="fill:#fff"/><rect id="rect8" width="630" height="381" x="662" y="192" style="fill:none;fill-opacity:0;stroke-width:2;stroke:#000"/></g><g id="g10"><rect id="rect12" width="580" height="227" x="688" y="321" style="fill:#fff"/><rect id="rect14" width="580" height="227" x="688" y="321" style="fill:none;fill-opacity:0;stroke-width:2;stroke:#000"/></g><text id="text16" x="687" y="224" font-size="12.8" style="fill:#000;text-anchor:start;font-family:sans-serif;font-style:normal;font-weight:400"><tspan id="tspan18" x="687" y="224">Node</tspan></text><g id="g20"><rect id="rect22" width="69.6" height="38" x="723.2" y="235" style="fill:#fff"/><rect id="rect24" width="69.6" height="38" x="723.2" y="235" style="fill:none;fill-opacity:0;stroke-width:2;stroke:#000"/><text id="text26" x="758" y="258.8" font-size="12.8" style="fill:#000;text-anchor:middle;font-family:sans-serif;font-style:normal;font-weight:400"><tspan id="tspan28" x="758" y="258.8">kubelet</tspan></text></g><g id="g30"><rect id="rect32" width="148" height="133" x="720.2" y="368.1" style="fill:#fff"/><rect id="rect34" width="148" height="133" x="720.2" y="368.1" style="fill:none;fill-opacity:0;stroke-width:2;stroke:#000"/></g><g id="g36"><rect id="rect38" width="89.3" height="38" x="760.55" y="438.1" style="fill:#fff"/><rect id="rect40" width="89.3" height="38" x="760.55" y="438.1" style="fill:none;fill-opacity:0;stroke-width:2;stroke:#000"/><text id="text42" x="805.2" y="461.9" font-size="12.8" style="fill:#000;text-anchor:middle;font-family:sans-serif;font-style:normal;font-weight:400"><tspan id="tspan44" x="805.2" y="461.9">container</tspan></text></g><g id="g46"><rect id="rect48" width="89.3" height="38" x="749.8" y="428.2" style="fill:#fff"/><rect id="rect50" width="89.3" height="38" x="749.8" y="428.2" style="fill:none;fill-opacity:0;stroke-width:2;stroke:#000"/><text id="text52" x="794.45" y="452" font-size="12.8" style="fill:#000;text-anchor:middle;font-family:sans-serif;font-style:normal;font-weight:400"><tspan id="tspan54" x="794.45" y="452">container</tspan></text></g><g id="g56"><rect id="rect58" width="89.3" height="38" x="739.4" y="418.3" style="fill:#fff"/><rect id="rect60" width="89.3" height="38" x="739.4" y="418.3" style="fill:none;fill-opacity:0;stroke-width:2;stroke:#000"/><text id="text62" x="784.05" y="442.1" font-size="12.8" style="fill:#000;text-anchor:middle;font-family:sans-serif;font-style:normal;font-weight:400"><tspan id="tspan64" x="784.05" y="442.1">cAdvisor</tspan></text></g><text id="text70" x="742.2" y="394.6" font-size="12.8" style="fill:#000;text-anchor:start;font-family:sans-serif;font-style:normal;font-weight:400"><tspan id="tspan72" x="742.2" y="394.6">Pod</tspan></text><g id="g74"><g id="g76"><rect id="rect78" width="148" height="133" x="1108.6" y="368.1" style="fill:#fff"/><rect id="rect80" width="148" height="133" x="1108.6" y="368.1" style="fill:none;fill-opacity:0;stroke-width:2;stroke:#000"/></g><g id="g82"><rect id="rect84" width="89.3" height="38" x="1148.95" y="438.1" style="fill:#fff"/><rect id="rect86" width="89.3" height="38" x="1148.95" y="438.1" style="fill:none;fill-opacity:0;stroke-width:2;stroke:#000"/><text id="text88" x="1193.6" y="461.9" font-size="12.8" style="fill:#000;text-anchor:middle;font-family:sans-serif;font-style:normal;font-weight:400"><tspan id="tspan90" x="1193.6" y="461.9">container</tspan></text></g><g id="g92"><rect id="rect94" width="89.3" height="38" x="1138.2" y="428.2" style="fill:#fff"/><rect id="rect96" width="89.3" height="38" x="1138.2" y="428.2" style="fill:none;fill-opacity:0;stroke-width:2;stroke:#000"/><text id="text98" x="1182.85" y="452" font-size="12.8" style="fill:#000;text-anchor:middle;font-family:sans-serif;font-style:normal;font-weight:400"><tspan id="tspan100" x="1182.85" y="452">container</tspan></text></g><g id="g102"><rect id="rect104" width="89.3" height="38" x="1127.8" y="418.3" style="fill:#fff"/><rect id="rect106" width="89.3" height="38" x="1127.8" y="418.3" style="fill:none;fill-opacity:0;stroke-width:2;stroke:#000"/><text id="text108" x="1172.45" y="442.1" font-size="12.8" style="fill:#000;text-anchor:middle;font-family:sans-serif;font-style:normal;font-weight:400"><tspan id="tspan110" x="1172.45" y="442.1">container</tspan></text></g><text id="text116" x="1130.6" y="394.6" font-size="12.8" style="fill:#000;text-anchor:start;font-family:sans-serif;font-style:normal;font-weight:400"><tspan id="tspan118" x="1130.6" y="394.6">Pod</tspan></text></g><g id="g120"><g id="g122"><rect id="rect124" width="148" height="133" x="902.9" y="368.1" style="fill:#fff"/><rect id="rect126" width="148" height="133" x="902.9" y="368.1" style="fill:none;fill-opacity:0;stroke-width:2;stroke:#000"/></g><g id="g128"><rect id="rect130" width="89.3" height="38" x="943.25" y="438.1" style="fill:#fff"/><rect id="rect132" width="89.3" height="38" x="943.25" y="438.1" style="fill:none;fill-opacity:0;stroke-width:2;stroke:#000"/><text id="text134" x="987.9" y="461.9" font-size="12.8" style="fill:#000;text-anchor:middle;font-family:sans-serif;font-style:normal;font-weight:400"><tspan id="tspan136" x="987.9" y="461.9">container</tspan></text></g><g id="g138"><rect id="rect140" width="89.3" height="38" x="932.5" y="428.2" style="fill:#fff"/><rect id="rect142" width="89.3" height="38" x="932.5" y="428.2" style="fill:none;fill-opacity:0;stroke-width:2;stroke:#000"/><text id="text144" x="977.15" y="452" font-size="12.8" style="fill:#000;text-anchor:middle;font-family:sans-serif;font-style:normal;font-weight:400"><tspan id="tspan146" x="977.15" y="452">container</tspan></text></g><g id="g148"><rect id="rect150" width="89.3" height="38" x="922.1" y="418.3" style="fill:#fff"/><rect id="rect152" width="89.3" height="38" x="922.1" y="418.3" style="fill:none;fill-opacity:0;stroke-width:2;stroke:#000"/><text id="text154" x="966.75" y="442.1" font-size="12.8" style="fill:#000;text-anchor:middle;font-family:sans-serif;font-style:normal;font-weight:400"><tspan id="tspan156" x="966.75" y="442.1">container</tspan></text></g><text id="text162" x="924.9" y="394.6" font-size="12.8" style="fill:#000;text-anchor:start;font-family:sans-serif;font-style:normal;font-weight:400"><tspan id="tspan164" x="924.9" y="394.6">Pod</tspan></text></g><g id="g166"><rect id="rect168" width="57.1" height="38" x="949.748" y="228" style="fill:#fff"/><rect id="rect170" width="57.1" height="38" x="949.748" y="228" style="fill:none;fill-opacity:0;stroke-width:2;stroke:#000"/><text id="text172" x="978.298" y="251.8" font-size="12.8" style="fill:#000;text-anchor:middle;font-family:sans-serif;font-style:normal;font-weight:400"><tspan id="tspan174" x="978.298" y="251.8">Proxy</tspan></text></g><g id="g176"><rect id="rect178" width="189.4" height="38" x="126.911" y="92.49" style="fill:#fff"/><rect id="rect180" width="189.4" height="38" x="126.911" y="92.49" style="fill:none;fill-opacity:0;stroke-width:2;stroke:#000"/><text id="text182" x="221.611" y="116.29" font-size="12.8" style="fill:#000;text-anchor:middle;font-family:sans-serif;font-style:normal;font-weight:400"><tspan id="tspan184" x="221.611" y="116.29">kubectl (user commands)</tspan></text></g><g id="g190"><line id="line192" x1="758" x2="782.332" y1="273" y2="408.717" style="fill:none;fill-opacity:0;stroke-width:2;stroke:#000"/><polygon id="polygon194" points="783.655 416.099 776.969 407.138 782.332 408.717 786.812 405.374" style="fill:#000"/><polygon id="polygon196" points="783.655 416.099 776.969 407.138 782.332 408.717 786.812 405.374" style="fill:none;fill-opacity:0;stroke-width:2;stroke:#000"/></g><g id="g198"><rect id="rect200" width="70.2" height="38" x="942.576" y="75.677" style="fill:#fff"/><rect id="rect202" width="70.2" height="38" x="942.576" y="75.677" style="fill:none;fill-opacity:0;stroke-width:2;stroke:#000"/><text id="text204" x="977.676" y="99.477" font-size="12.8" style="fill:#000;text-anchor:middle;font-family:sans-serif;font-style:normal;font-weight:400"><tspan id="tspan206" x="977.676" y="99.477">Firewall</tspan></text></g><g id="g208"><path id="path210" d="M 949.242 -47.953 C 939.87,-48.2618 921.694,-41.7773 924.25,-27.8819 C 926.806,-13.9865 939.018,-10.8988 944.13,-14.9129 C 949.242,-18.9271 936.178,4.54051 961.17,10.7162 C 986.161,16.8919 998.941,7.01079 995.249,-0.0912821 C 991.557,-7.19336 1017.12,16.5832 1029.04,2.99658 C 1040.97,-10.59 1016.83,-23.5589 1021.94,-21.7062 C 1027.06,-19.8535 1042.68,-22.3237 1037.56,-45.4827 C 1032.45,-68.6416 986.445,-50.7321 991.557,-54.1287 C 996.669,-57.5253 983.889,-74.5086 967.986,-71.112 C 952.082,-67.7153 950.954,-61.5516 949.25,-47.965 L 949.242,-47.953z" style="fill:#fff"/><path id="path212" d="M 949.242 -47.953 C 939.87,-48.2618 921.694,-41.7773 924.25,-27.8819 C 926.806,-13.9865 939.018,-10.8988 944.13,-14.9129 C 949.242,-18.9271 936.178,4.54051 961.17,10.7162 C 986.161,16.8919 998.941,7.01079 995.249,-0.0912821 C 991.557,-7.19336 1017.12,16.5832 1029.04,2.99658 C 1040.97,-10.59 1016.83,-23.5589 1021.94,-21.7062 C 1027.06,-19.8535 1042.68,-22.3237 1037.56,-45.4827 C 1032.45,-68.6416 986.445,-50.7321 991.557,-54.1287 C 996.669,-57.5253 983.889,-74.5086 967.986,-71.112 C 952.082,-67.7153 950.954,-61.5516 949.25,-47.965 L 949.242,-47.953" style="fill:none;fill-opacity:0;stroke-width:2;stroke:#000"/><text id="text214" x="985.428" y="-22.397" font-size="12.8" style="fill:#000;text-anchor:middle;font-family:sans-serif;font-style:normal;font-weight:400"><tspan id="tspan216" x="985.428" y="-22.397">Internet</tspan></text></g><g id="g218"><line id="line220" x1="975.985" x2="977.415" y1="12.703" y2="65.944" style="fill:none;fill-opacity:0;stroke-width:2;stroke:#000"/><polygon id="polygon222" points="977.616 73.442 972.349 63.579 977.415 65.944 982.346 63.311" style="fill:#000"/><polygon id="polygon224" points="977.616 73.442 972.349 63.579 977.415 65.944 982.346 63.311" style="fill:none;fill-opacity:0;stroke-width:2;stroke:#000"/></g><g id="g226"><line id="line228" x1="977.676" x2="978.245" y1="113.677" y2="218.264" style="fill:none;fill-opacity:0;stroke-width:2;stroke:#000"/><polygon id="polygon230" points="978.286 225.764 973.232 215.791 978.245 218.264 983.231 215.737" style="fill:#000"/><polygon id="polygon232" points="978.286 225.764 973.232 215.791 978.245 218.264 983.231 215.737" style="fill:none;fill-opacity:0;stroke-width:2;stroke:#000"/></g><g id="g234"><line id="line236" x1="978.298" x2="977.033" y1="266" y2="358.365" style="fill:none;fill-opacity:0;stroke-width:2;stroke:#000"/><polygon id="polygon238" points="976.931 365.864 972.068 355.797 977.033 358.365 982.067 355.934" style="fill:#000"/><polygon id="polygon240" points="976.931 365.864 972.068 355.797 977.033 358.365 982.067 355.934" style="fill:none;fill-opacity:0;stroke-width:2;stroke:#000"/></g><g id="g242"><line id="line244" x1="992.572" x2="1174.02" y1="266" y2="363.492" style="fill:none;fill-opacity:0;stroke-width:2;stroke:#000"/><polygon id="polygon246" points="1180.63 367.042 1169.45 366.713 1174.02 363.492 1174.19 357.904" style="fill:#000"/><polygon id="polygon248" points="1180.63 367.042 1169.45 366.713 1174.02 363.492 1174.19 357.904" style="fill:none;fill-opacity:0;stroke-width:2;stroke:#000"/></g><g id="g250"><rect id="rect252" width="562" height="383.25" x="-54" y="370.5" style="fill:#fff"/><rect id="rect254" width="562" height="383.25" x="-54" y="370.5" style="fill:none;fill-opacity:0;stroke-width:2;stroke:#000"/></g><g id="g256"><rect id="rect258" width="364" height="146" x="-30" y="416.75" style="fill:#fff"/><rect id="rect260" width="364" height="146" x="-30" y="416.75" style="fill:none;fill-opacity:0;stroke-width:2;stroke:#000"/></g><g id="g262"><rect id="rect264" width="189" height="54" x="128" y="598.318" style="fill:#fff"/><rect id="rect266" width="189" height="54" x="128" y="598.318" style="fill:none;fill-opacity:0;stroke-width:2;stroke:#000"/><text id="text268" x="222.5" y="622.118" font-size="12.8" style="fill:#000;text-anchor:middle;font-family:sans-serif;font-style:normal;font-weight:400"><tspan id="tspan270" x="222.5" y="622.118">controller manager</tspan> <tspan id="tspan272" x="222.5" y="638.118">(replication controller etc.)</tspan></text></g><g id="g274"><rect id="rect276" width="86.15" height="38" x="15.888" y="622.914" style="fill:#fff"/><rect id="rect278" width="86.15" height="38" x="15.888" y="622.914" style="fill:none;fill-opacity:0;stroke-width:2;stroke:#000"/><text id="text280" x="58.963" y="646.714" font-size="12.8" style="fill:#000;text-anchor:middle;font-family:sans-serif;font-style:normal;font-weight:400"><tspan id="tspan282" x="58.963" y="646.714">Scheduler</tspan></text></g><g id="g284"><rect id="rect286" width="86.15" height="38" x="1.162" y="599.318" style="fill:#fff"/><rect id="rect288" width="86.15" height="38" x="1.162" y="599.318" style="fill:none;fill-opacity:0;stroke-width:2;stroke:#000"/><text id="text290" x="44.237" y="623.118" font-size="12.8" style="fill:#000;text-anchor:middle;font-family:sans-serif;font-style:normal;font-weight:400"><tspan id="tspan292" x="44.237" y="623.118">Scheduler</tspan></text></g><text id="text294" x="-34.876" y="699.256" font-size="12.8" style="fill:#000;text-anchor:start;font-family:sans-serif;font-style:normal;font-weight:400"><tspan id="tspan296" x="-34.876" y="699.256">Master components</tspan> <tspan id="tspan298" x="-34.876" y="715.256">Colocated, or spread across machines,</tspan> <tspan id="tspan300" x="-34.876" y="731.256">as dictated by cluster size.</tspan></text><g id="g310"><rect id="rect312" width="172.175" height="70" x="136.717" y="468.5" style="fill:#fff"/><rect id="rect314" width="172.175" height="70" x="136.717" y="468.5" style="fill:none;fill-opacity:0;stroke-width:2;stroke:#000"/><text id="text316" x="222.804" y="492.3" font-size="12.8" style="fill:#000;text-anchor:middle;font-family:sans-serif;font-style:normal;font-weight:400"><tspan id="tspan318" x="222.804" y="492.3">REST</tspan> <tspan id="tspan320" x="222.804" y="508.3">(pods, services,</tspan> <tspan id="tspan322" x="222.804" y="524.3">rep. controllers)</tspan></text></g><g id="g324"><rect id="rect326" width="115" height="54" x="165.958" y="389.5" style="fill:#fff"/><rect id="rect328" width="115" height="54" x="165.958" y="389.5" style="fill:none;fill-opacity:0;stroke-width:2;stroke:#000"/><text id="text330" x="223.458" y="413.3" font-size="12.8" style="fill:#000;text-anchor:middle;font-family:sans-serif;font-style:normal;font-weight:400"><tspan id="tspan332" x="223.458" y="413.3">authentication</tspan> <tspan id="tspan334" x="223.458" y="429.3">authorization</tspan></text></g><g id="g336"><rect id="rect338" width="91.3" height="54" x="-.65" y="476.5" style="fill:#fff"/><rect id="rect340" width="91.3" height="54" x="-.65" y="476.5" style="fill:none;fill-opacity:0;stroke-width:2;stroke:#000"/><text id="text342" x="45" y="500.3" font-size="12.8" style="fill:#000;text-anchor:middle;font-family:sans-serif;font-style:normal;font-weight:400"><tspan id="tspan344" x="45" y="500.3">scheduling</tspan> <tspan id="tspan346" x="45" y="516.3">actuator</tspan></text></g><text id="text348" x="-13" y="436.75" font-size="12.8" style="fill:#000;text-anchor:start;font-family:sans-serif;font-style:normal;font-weight:400"><tspan id="tspan350" x="-13" y="436.75">APIs</tspan></text><g id="g352"><line id="line354" x1="44.237" x2="44.892" y1="599.318" y2="540.235" style="fill:none;fill-opacity:0;stroke-width:2;stroke:#000"/><polygon id="polygon356" points="44.975 532.736 49.864 542.791 44.892 540.235 39.865 542.68" style="fill:#000"/><polygon id="polygon358" points="44.975 532.736 49.864 542.791 44.892 540.235 39.865 542.68" style="fill:none;fill-opacity:0;stroke-width:2;stroke:#000"/></g><g id="g360"><line id="line362" x1="44.237" x2="170.878" y1="599.318" y2="542.486" style="fill:none;fill-opacity:0;stroke-width:2;stroke:#000"/><polygon id="polygon364" points="177.72 539.416 170.644 548.071 170.878 542.486 166.55 538.948" style="fill:#000"/><polygon id="polygon366" points="177.72 539.416 170.644 548.071 170.878 542.486 166.55 538.948" style="fill:none;fill-opacity:0;stroke-width:2;stroke:#000"/></g><g id="g368"><line id="line370" x1="222.5" x2="222.755" y1="598.318" y2="548.236" style="fill:none;fill-opacity:0;stroke-width:2;stroke:#000"/><polygon id="polygon372" points="222.793 540.736 227.742 550.761 222.755 548.236 217.742 550.71" style="fill:#000"/><polygon id="polygon374" points="222.793 540.736 227.742 550.761 222.755 548.236 217.742 550.71" style="fill:none;fill-opacity:0;stroke-width:2;stroke:#000"/></g><g id="g376"><line id="line378" x1="223.458" x2="223.059" y1="443.5" y2="458.767" style="fill:none;fill-opacity:0;stroke-width:2;stroke:#000"/><polygon id="polygon380" points="222.862 466.265 218.126 456.137 223.059 458.767 228.122 456.399" style="fill:#000"/><polygon id="polygon382" points="222.862 466.265 218.126 456.137 223.059 458.767 228.122 456.399" style="fill:none;fill-opacity:0;stroke-width:2;stroke:#000"/></g><g id="g384"><line id="line386" x1="313.554" x2="366.76" y1="548.463" y2="662.181" style="fill:none;fill-opacity:0;stroke-width:2;stroke:#000"/><polygon id="polygon388" points="318.082 546.344 309.316 539.406 309.025 550.582" style="fill:#000"/><polygon id="polygon390" points="318.082 546.344 309.316 539.406 309.025 550.582" style="fill:none;fill-opacity:0;stroke-width:2;stroke:#000"/><polygon id="polygon392" points="369.938 668.975 361.172 662.036 366.76 662.181 370.229 657.798" style="fill:#000"/><polygon id="polygon394" points="369.938 668.975 361.172 662.036 366.76 662.181 370.229 657.798" style="fill:none;fill-opacity:0;stroke-width:2;stroke:#000"/></g><g id="g396"><line id="line398" x1="221.612" x2="223.389" y1="130.49" y2="379.764" style="fill:none;fill-opacity:0;stroke-width:2;stroke:#000"/><polygon id="polygon400" points="223.442 387.264 218.371 377.3 223.389 379.764 228.371 377.229" style="fill:#000"/><polygon id="polygon402" points="223.442 387.264 218.371 377.3 223.389 379.764 228.371 377.229" style="fill:none;fill-opacity:0;stroke-width:2;stroke:#000"/></g><g id="g404"><path id="path406" d="M 319.892 503.5 C 392.964,503.5 639.13,254 713.464,254" style="fill:none;fill-opacity:0;stroke-width:2;stroke:#000"/><polygon id="polygon408" points="319.892 498.5 309.892 503.5 319.892 508.5" style="fill:#000"/><polygon id="polygon410" points="319.892 498.5 309.892 503.5 319.892 508.5" style="fill:none;fill-opacity:0;stroke-width:2;stroke:#000"/><polygon id="polygon412" points="720.964 254 710.964 259 713.464 254 710.964 249" style="fill:#000"/><polygon id="polygon414" points="720.964 254 710.964 259 713.464 254 710.964 249" style="fill:none;fill-opacity:0;stroke-width:2;stroke:#000"/></g><g id="g416"><line id="line418" x1="90.65" x2="126.981" y1="503.5" y2="503.5" style="fill:none;fill-opacity:0;stroke-width:2;stroke:#000"/><polygon id="polygon420" points="134.481 503.5 124.481 508.5 126.981 503.5 124.481 498.5" style="fill:#000"/><polygon id="polygon422" points="134.481 503.5 124.481 508.5 126.981 503.5 124.481 498.5" style="fill:none;fill-opacity:0;stroke-width:2;stroke:#000"/></g><text id="text428" x="1209" y="339.5" font-size="12.8" style="fill:#000;text-anchor:start;font-family:sans-serif;font-style:normal;font-weight:400"><tspan id="tspan430" x="1209" y="339.5">docker</tspan></text><g id="g432"><line id="line434" x1="793.753" x2="968.266" y1="272.636" y2="363.6" style="fill:none;fill-opacity:0;stroke-width:2;stroke:#000"/><polygon id="polygon436" points="974.917 367.066 963.738 366.878 968.266 363.6 968.361 358.01" style="fill:#000"/><polygon id="polygon438" points="974.917 367.066 963.738 366.878 968.266 363.6 968.361 358.01" style="fill:none;fill-opacity:0;stroke-width:2;stroke:#000"/></g><text id="text440" x="978" y="434.5" font-size="12.8" style="fill:#000;text-anchor:start;font-family:sans-serif;font-style:normal;font-weight:400"><tspan id="tspan442" x="978" y="434.5">..</tspan></text><text id="text444" x="1067" y="437" font-size="27.093" style="fill:#000;text-anchor:start;font-family:sans-serif;font-style:normal;font-weight:400"><tspan id="tspan446" x="1067" y="437">...</tspan></text><g id="g448"><line id="line450" x1="792.8" x2="1173.14" y1="273" y2="365.792" style="fill:none;fill-opacity:0;stroke-width:2;stroke:#000"/><polygon id="polygon452" points="1180.43 367.57 1169.53 370.057 1173.14 365.792 1171.9 360.342" style="fill:#000"/><polygon id="polygon454" points="1180.43 367.57 1169.53 370.057 1173.14 365.792 1171.9 360.342" style="fill:none;fill-opacity:0;stroke-width:2;stroke:#000"/></g><g id="g456"><line id="line458" x1="792.8" x2="794.057" y1="273" y2="358.365" style="fill:none;fill-opacity:0;stroke-width:2;stroke:#000"/><polygon id="polygon460" points="794.167 365.864 789.02 355.939 794.057 358.365 799.019 355.792" style="fill:#000"/><polygon id="polygon462" points="794.167 365.864 789.02 355.939 794.057 358.365 799.019 355.792" style="fill:none;fill-opacity:0;stroke-width:2;stroke:#000"/></g><g id="g468"><rect id="rect470" width="630" height="381" x="660" y="660" style="fill:#fff"/><rect id="rect472" width="630" height="381" x="660" y="660" style="fill:none;fill-opacity:0;stroke-width:2;stroke:#000"/></g><g id="g474"><rect id="rect476" width="580" height="227" x="686" y="789" style="fill:#fff"/><rect id="rect478" width="580" height="227" x="686" y="789" style="fill:none;fill-opacity:0;stroke-width:2;stroke:#000"/></g><text id="text480" x="685" y="692" font-size="12.8" style="fill:#000;text-anchor:start;font-family:sans-serif;font-style:normal;font-weight:400"><tspan id="tspan482" x="685" y="692">Node</tspan></text><g id="g484"><rect id="rect486" width="69.6" height="38" x="721.2" y="703" style="fill:#fff"/><rect id="rect488" width="69.6" height="38" x="721.2" y="703" style="fill:none;fill-opacity:0;stroke-width:2;stroke:#000"/><text id="text490" x="756" y="726.8" font-size="12.8" style="fill:#000;text-anchor:middle;font-family:sans-serif;font-style:normal;font-weight:400"><tspan id="tspan492" x="756" y="726.8">kubelet</tspan></text></g><g id="g494"><rect id="rect496" width="148" height="133" x="718.2" y="836.1" style="fill:#fff"/><rect id="rect498" width="148" height="133" x="718.2" y="836.1" style="fill:none;fill-opacity:0;stroke-width:2;stroke:#000"/></g><g id="g500"><rect id="rect502" width="89.3" height="38" x="758.55" y="906.1" style="fill:#fff"/><rect id="rect504" width="89.3" height="38" x="758.55" y="906.1" style="fill:none;fill-opacity:0;stroke-width:2;stroke:#000"/><text id="text506" x="803.2" y="929.9" font-size="12.8" style="fill:#000;text-anchor:middle;font-family:sans-serif;font-style:normal;font-weight:400"><tspan id="tspan508" x="803.2" y="929.9">container</tspan></text></g><g id="g510"><rect id="rect512" width="89.3" height="38" x="747.8" y="896.2" style="fill:#fff"/><rect id="rect514" width="89.3" height="38" x="747.8" y="896.2" style="fill:none;fill-opacity:0;stroke-width:2;stroke:#000"/><text id="text516" x="792.45" y="920" font-size="12.8" style="fill:#000;text-anchor:middle;font-family:sans-serif;font-style:normal;font-weight:400"><tspan id="tspan518" x="792.45" y="920">container</tspan></text></g><g id="g520"><rect id="rect522" width="89.3" height="38" x="737.4" y="886.3" style="fill:#fff"/><rect id="rect524" width="89.3" height="38" x="737.4" y="886.3" style="fill:none;fill-opacity:0;stroke-width:2;stroke:#000"/><text id="text526" x="782.05" y="910.1" font-size="12.8" style="fill:#000;text-anchor:middle;font-family:sans-serif;font-style:normal;font-weight:400"><tspan id="tspan528" x="782.05" y="910.1">cAdvisor</tspan></text></g><text id="text534" x="740.2" y="862.6" font-size="12.8" style="fill:#000;text-anchor:start;font-family:sans-serif;font-style:normal;font-weight:400"><tspan id="tspan536" x="740.2" y="862.6">Pod</tspan></text><g id="g538"><g id="g540"><rect id="rect542" width="148" height="133" x="1106.6" y="836.1" style="fill:#fff"/><rect id="rect544" width="148" height="133" x="1106.6" y="836.1" style="fill:none;fill-opacity:0;stroke-width:2;stroke:#000"/></g><g id="g546"><rect id="rect548" width="89.3" height="38" x="1146.95" y="906.1" style="fill:#fff"/><rect id="rect550" width="89.3" height="38" x="1146.95" y="906.1" style="fill:none;fill-opacity:0;stroke-width:2;stroke:#000"/><text id="text552" x="1191.6" y="929.9" font-size="12.8" style="fill:#000;text-anchor:middle;font-family:sans-serif;font-style:normal;font-weight:400"><tspan id="tspan554" x="1191.6" y="929.9">container</tspan></text></g><g id="g556"><rect id="rect558" width="89.3" height="38" x="1136.2" y="896.2" style="fill:#fff"/><rect id="rect560" width="89.3" height="38" x="1136.2" y="896.2" style="fill:none;fill-opacity:0;stroke-width:2;stroke:#000"/><text id="text562" x="1180.85" y="920" font-size="12.8" style="fill:#000;text-anchor:middle;font-family:sans-serif;font-style:normal;font-weight:400"><tspan id="tspan564" x="1180.85" y="920">container</tspan></text></g><g id="g566"><rect id="rect568" width="89.3" height="38" x="1125.8" y="886.3" style="fill:#fff"/><rect id="rect570" width="89.3" height="38" x="1125.8" y="886.3" style="fill:none;fill-opacity:0;stroke-width:2;stroke:#000"/><text id="text572" x="1170.45" y="910.1" font-size="12.8" style="fill:#000;text-anchor:middle;font-family:sans-serif;font-style:normal;font-weight:400"><tspan id="tspan574" x="1170.45" y="910.1">container</tspan></text></g><text id="text580" x="1128.6" y="862.6" font-size="12.8" style="fill:#000;text-anchor:start;font-family:sans-serif;font-style:normal;font-weight:400"><tspan id="tspan582" x="1128.6" y="862.6">Pod</tspan></text></g><g id="g584"><g id="g586"><rect id="rect588" width="148" height="133" x="900.9" y="836.1" style="fill:#fff"/><rect id="rect590" width="148" height="133" x="900.9" y="836.1" style="fill:none;fill-opacity:0;stroke-width:2;stroke:#000"/></g><g id="g592"><rect id="rect594" width="89.3" height="38" x="941.25" y="906.1" style="fill:#fff"/><rect id="rect596" width="89.3" height="38" x="941.25" y="906.1" style="fill:none;fill-opacity:0;stroke-width:2;stroke:#000"/><text id="text598" x="985.9" y="929.9" font-size="12.8" style="fill:#000;text-anchor:middle;font-family:sans-serif;font-style:normal;font-weight:400"><tspan id="tspan600" x="985.9" y="929.9">container</tspan></text></g><g id="g602"><rect id="rect604" width="89.3" height="38" x="930.5" y="896.2" style="fill:#fff"/><rect id="rect606" width="89.3" height="38" x="930.5" y="896.2" style="fill:none;fill-opacity:0;stroke-width:2;stroke:#000"/><text id="text608" x="975.15" y="920" font-size="12.8" style="fill:#000;text-anchor:middle;font-family:sans-serif;font-style:normal;font-weight:400"><tspan id="tspan610" x="975.15" y="920">container</tspan></text></g><g id="g612"><rect id="rect614" width="89.3" height="38" x="920.1" y="886.3" style="fill:#fff"/><rect id="rect616" width="89.3" height="38" x="920.1" y="886.3" style="fill:none;fill-opacity:0;stroke-width:2;stroke:#000"/><text id="text618" x="964.75" y="910.1" font-size="12.8" style="fill:#000;text-anchor:middle;font-family:sans-serif;font-style:normal;font-weight:400"><tspan id="tspan620" x="964.75" y="910.1">container</tspan></text></g><text id="text626" x="922.9" y="862.6" font-size="12.8" style="fill:#000;text-anchor:start;font-family:sans-serif;font-style:normal;font-weight:400"><tspan id="tspan628" x="922.9" y="862.6">Pod</tspan></text></g><g id="g630"><rect id="rect632" width="57.1" height="38" x="947.748" y="696" style="fill:#fff"/><rect id="rect634" width="57.1" height="38" x="947.748" y="696" style="fill:none;fill-opacity:0;stroke-width:2;stroke:#000"/><text id="text636" x="976.298" y="719.8" font-size="12.8" style="fill:#000;text-anchor:middle;font-family:sans-serif;font-style:normal;font-weight:400"><tspan id="tspan638" x="976.298" y="719.8">Proxy</tspan></text></g><g id="g640"><line id="line642" x1="756" x2="780.332" y1="741" y2="876.717" style="fill:none;fill-opacity:0;stroke-width:2;stroke:#000"/><polygon id="polygon644" points="781.655 884.099 774.969 875.138 780.332 876.717 784.812 873.374" style="fill:#000"/><polygon id="polygon646" points="781.655 884.099 774.969 875.138 780.332 876.717 784.812 873.374" style="fill:none;fill-opacity:0;stroke-width:2;stroke:#000"/></g><g id="g648"><line id="line650" x1="976.298" x2="975.033" y1="734" y2="826.365" style="fill:none;fill-opacity:0;stroke-width:2;stroke:#000"/><polygon id="polygon652" points="974.931 833.864 970.068 823.797 975.033 826.365 980.067 823.934" style="fill:#000"/><polygon id="polygon654" points="974.931 833.864 970.068 823.797 975.033 826.365 980.067 823.934" style="fill:none;fill-opacity:0;stroke-width:2;stroke:#000"/></g><g id="g656"><line id="line658" x1="990.572" x2="1172.02" y1="734" y2="831.492" style="fill:none;fill-opacity:0;stroke-width:2;stroke:#000"/><polygon id="polygon660" points="1178.63 835.042 1167.45 834.713 1172.02 831.492 1172.19 825.904" style="fill:#000"/><polygon id="polygon662" points="1178.63 835.042 1167.45 834.713 1172.02 831.492 1172.19 825.904" style="fill:none;fill-opacity:0;stroke-width:2;stroke:#000"/></g><text id="text664" x="1207" y="807.5" font-size="12.8" style="fill:#000;text-anchor:start;font-family:sans-serif;font-style:normal;font-weight:400"><tspan id="tspan666" x="1207" y="807.5">docker</tspan></text><g id="g668"><line id="line670" x1="791.753" x2="966.266" y1="740.636" y2="831.6" style="fill:none;fill-opacity:0;stroke-width:2;stroke:#000"/><polygon id="polygon672" points="972.917 835.066 961.738 834.878 966.266 831.6 966.361 826.01" style="fill:#000"/><polygon id="polygon674" points="972.917 835.066 961.738 834.878 966.266 831.6 966.361 826.01" style="fill:none;fill-opacity:0;stroke-width:2;stroke:#000"/></g><text id="text676" x="976" y="902.5" font-size="12.8" style="fill:#000;text-anchor:start;font-family:sans-serif;font-style:normal;font-weight:400"><tspan id="tspan678" x="976" y="902.5">..</tspan></text><text id="text680" x="1065" y="905" font-size="27.093" style="fill:#000;text-anchor:start;font-family:sans-serif;font-style:normal;font-weight:400"><tspan id="tspan682" x="1065" y="905">...</tspan></text><g id="g684"><line id="line686" x1="790.8" x2="1171.14" y1="741" y2="833.792" style="fill:none;fill-opacity:0;stroke-width:2;stroke:#000"/><polygon id="polygon688" points="1178.43 835.57 1167.53 838.057 1171.14 833.792 1169.9 828.342" style="fill:#000"/><polygon id="polygon690" points="1178.43 835.57 1167.53 838.057 1171.14 833.792 1169.9 828.342" style="fill:none;fill-opacity:0;stroke-width:2;stroke:#000"/></g><g id="g692"><line id="line694" x1="790.8" x2="792.057" y1="741" y2="826.365" style="fill:none;fill-opacity:0;stroke-width:2;stroke:#000"/><polygon id="polygon696" points="792.167 833.864 787.02 823.939 792.057 826.365 797.019 823.792" style="fill:#000"/><polygon id="polygon698" points="792.167 833.864 787.02 823.939 792.057 826.365 797.019 823.792" style="fill:none;fill-opacity:0;stroke-width:2;stroke:#000"/></g><g id="g704"><path id="path706" d="M 319.892 521 C 392.964,521 637.13,722 711.464,722" style="fill:none;fill-opacity:0;stroke-width:2;stroke:#000"/><polygon id="polygon708" points="319.892 516 309.892 521 319.892 526" style="fill:#000"/><polygon id="polygon710" points="319.892 516 309.892 521 319.892 526" style="fill:none;fill-opacity:0;stroke-width:2;stroke:#000"/><polygon id="polygon712" points="718.964 722 708.964 727 711.464 722 708.964 717" style="fill:#000"/><polygon id="polygon714" points="718.964 722 708.964 727 711.464 722 708.964 717" style="fill:none;fill-opacity:0;stroke-width:2;stroke:#000"/></g><g id="g716"><rect id="rect718" width="176.225" height="121" x="282.774" y="671" style="fill:#fff"/><rect id="rect720" width="176.225" height="121" x="282.774" y="671" style="fill:none;fill-opacity:0;stroke-width:2;stroke:#000"/><text id="text722" x="370.886" y="704.3" font-size="12.8" style="fill:#000;text-anchor:middle;font-family:sans-serif;font-style:normal;font-weight:400"><tspan id="tspan724" x="370.886" y="704.3">Distributed</tspan> <tspan id="tspan726" x="370.886" y="720.3">Watchable</tspan> <tspan id="tspan728" x="370.886" y="736.3">Storage</tspan> <tspan id="tspan732" x="370.886" y="768.3">(implemented via etcd)</tspan></text></g></svg>