<?xml version="1.0" standalone="no"?>
<!DOCTYPE svg PUBLIC "-//W3C//DTD SVG 20010904//EN"
 "http://www.w3.org/TR/2001/REC-SVG-20010904/DTD/svg10.dtd">
<svg version="1.0" xmlns="http://www.w3.org/2000/svg"
 width="5172.000000pt" height="2238.000000pt" viewBox="0 0 5172.000000 2238.000000"
 preserveAspectRatio="xMidYMid meet">

<g transform="translate(0.000000,2238.000000) scale(0.100000,-0.100000)"
fill="#000000" stroke="none">
<path d="M5160 20820 l0 -40 160 0 160 0 0 40 0 40 -160 0 -160 0 0 -40z"/>
<path d="M5800 20820 l0 -40 160 0 160 0 0 40 0 40 -160 0 -160 0 0 -40z"/>
<path d="M6440 20820 l0 -40 160 0 160 0 0 40 0 40 -160 0 -160 0 0 -40z"/>
<path d="M7080 20820 l0 -40 160 0 160 0 0 40 0 40 -160 0 -160 0 0 -40z"/>
<path d="M7720 20820 l0 -40 160 0 160 0 0 40 0 40 -160 0 -160 0 0 -40z"/>
<path d="M8360 20820 l0 -40 160 0 160 0 0 40 0 40 -160 0 -160 0 0 -40z"/>
<path d="M9000 20820 l0 -40 160 0 160 0 0 40 0 40 -160 0 -160 0 0 -40z"/>
<path d="M9640 20820 l0 -40 160 0 160 0 0 40 0 40 -160 0 -160 0 0 -40z"/>
<path d="M10280 20820 l0 -40 160 0 160 0 0 40 0 40 -160 0 -160 0 0 -40z"/>
<path d="M10920 20820 l0 -40 160 0 160 0 0 40 0 40 -160 0 -160 0 0 -40z"/>
<path d="M11560 20820 l0 -40 160 0 160 0 0 40 0 40 -160 0 -160 0 0 -40z"/>
<path d="M12200 20820 l0 -40 160 0 160 0 0 40 0 40 -160 0 -160 0 0 -40z"/>
<path d="M12840 20820 l0 -40 160 0 160 0 0 40 0 40 -160 0 -160 0 0 -40z"/>
<path d="M13480 20820 l0 -40 160 0 160 0 0 40 0 40 -160 0 -160 0 0 -40z"/>
<path d="M14120 20820 l0 -40 160 0 160 0 0 40 0 40 -160 0 -160 0 0 -40z"/>
<path d="M14760 20820 l0 -40 160 0 160 0 0 40 0 40 -160 0 -160 0 0 -40z"/>
<path d="M15400 20820 l0 -40 160 0 160 0 0 40 0 40 -160 0 -160 0 0 -40z"/>
<path d="M16040 20820 l0 -40 160 0 160 0 0 40 0 40 -160 0 -160 0 0 -40z"/>
<path d="M16680 20820 l0 -40 160 0 160 0 0 40 0 40 -160 0 -160 0 0 -40z"/>
<path d="M17320 20820 l0 -40 160 0 160 0 0 40 0 40 -160 0 -160 0 0 -40z"/>
<path d="M17960 20820 l0 -40 160 0 160 0 0 40 0 40 -160 0 -160 0 0 -40z"/>
<path d="M18600 20820 l0 -40 160 0 160 0 0 40 0 40 -160 0 -160 0 0 -40z"/>
<path d="M19240 20820 l0 -40 160 0 160 0 0 40 0 40 -160 0 -160 0 0 -40z"/>
<path d="M19880 20820 l0 -40 160 0 160 0 0 40 0 40 -160 0 -160 0 0 -40z"/>
<path d="M20520 20820 l0 -40 160 0 160 0 0 40 0 40 -160 0 -160 0 0 -40z"/>
<path d="M21160 20820 l0 -40 160 0 160 0 0 40 0 40 -160 0 -160 0 0 -40z"/>
<path d="M21800 20820 l0 -40 160 0 160 0 0 40 0 40 -160 0 -160 0 0 -40z"/>
<path d="M22440 20820 l0 -40 160 0 160 0 0 40 0 40 -160 0 -160 0 0 -40z"/>
<path d="M36544 20830 c-204 -17 -443 -67 -641 -134 -334 -113 -671 -313 -916
-546 l-88 -83 -42 30 c-54 39 -186 105 -263 131 -61 21 -185 46 -284 57 -79 9
-279 -12 -379 -41 -419 -119 -740 -481 -801 -901 l-12 -83 -37 -5 c-101 -17
-282 -68 -388 -110 -508 -203 -918 -651 -1067 -1167 -103 -358 -96 -737 20
-1087 77 -229 203 -446 366 -631 261 -296 636 -508 1029 -581 l114 -22 3035
-8 c2987 -8 3037 -8 3180 11 369 51 611 168 841 408 187 195 296 404 356 682
28 129 25 390 -6 529 -60 273 -188 502 -386 689 -203 192 -452 314 -732 358
l-111 18 -11 120 c-23 235 -68 444 -139 642 -133 369 -317 665 -592 948 -408
421 -963 695 -1547 765 -123 15 -384 21 -499 11z m371 -230 c231 -20 433 -64
629 -137 346 -129 624 -310 878 -571 270 -277 448 -572 564 -932 25 -80 50
-154 55 -165 24 -52 59 -322 65 -502 l7 -188 95 3 c313 11 608 -107 830 -330
90 -91 135 -150 190 -248 20 -36 39 -67 43 -70 4 -3 18 -34 32 -70 84 -223 95
-465 31 -700 -114 -420 -473 -744 -904 -815 -71 -12 -558 -14 -3060 -14 -1727
-1 -3032 3 -3110 8 -230 16 -414 67 -620 172 -249 126 -446 302 -601 535 -310
467 -352 1081 -108 1580 249 509 751 855 1294 892 l100 7 6 140 c8 158 28 243
85 358 53 105 112 184 202 268 124 116 285 200 442 230 88 16 272 14 354 -5
151 -35 336 -138 440 -245 l49 -50 115 120 c495 517 1201 788 1897 729z"/>
<path d="M35562 18108 c2 -17 11 -24 31 -26 l27 -3 0 -223 0 -223 -30 -6 c-21
-5 -30 -12 -30 -27 0 -19 6 -20 91 -20 88 0 90 1 87 23 -2 14 -11 23 -25 25
l-23 3 0 250 0 249 -66 0 c-62 0 -65 -1 -62 -22z"/>
<path d="M36850 18106 c0 -19 6 -25 28 -28 27 -3 27 -4 30 -80 2 -43 0 -78 -4
-78 -3 0 -17 9 -31 20 -18 14 -41 20 -74 20 -40 0 -55 -6 -83 -30 -44 -39 -60
-86 -60 -176 1 -80 19 -122 67 -158 40 -30 115 -29 156 2 30 22 31 22 31 2 0
-18 6 -20 60 -20 53 0 60 2 60 19 0 13 -9 21 -30 26 l-30 7 0 249 0 249 -60 0
c-57 0 -60 -1 -60 -24z m29 -222 c30 -25 31 -28 31 -115 0 -83 -2 -92 -25
-115 -21 -21 -33 -25 -72 -22 -41 3 -50 8 -70 37 -17 25 -23 48 -23 88 0 128
81 193 159 127z"/>
<path d="M35285 18098 c-48 -17 -93 -55 -122 -105 -36 -61 -44 -184 -18 -263
23 -71 84 -132 149 -150 62 -17 143 -2 192 35 31 23 34 31 34 76 0 46 -2 50
-22 47 -16 -2 -24 -12 -29 -38 -13 -61 -80 -91 -158 -70 -107 28 -154 210 -89
339 57 112 225 119 247 11 5 -26 13 -36 29 -38 20 -3 22 1 22 47 0 45 -3 53
-32 75 -57 42 -140 56 -203 34z"/>
<path d="M35902 17943 c-70 -34 -106 -148 -78 -246 48 -167 270 -167 316 -1
16 56 8 144 -17 187 -42 72 -142 99 -221 60z m130 -44 c50 -27 66 -169 25
-230 -64 -95 -177 -35 -177 94 0 111 74 178 152 136z"/>
<path d="M36200 17935 c0 -18 5 -25 19 -25 17 0 19 -10 22 -122 3 -102 8 -129
24 -158 39 -65 133 -77 189 -25 33 31 36 31 36 0 0 -23 3 -25 50 -25 43 0 50
3 50 19 0 11 -9 23 -20 26 -19 6 -20 15 -20 171 l0 164 -61 0 c-57 0 -60 -1
-57 -22 2 -15 11 -24 26 -26 21 -3 22 -7 22 -122 0 -116 -1 -119 -26 -139 -18
-14 -41 -21 -70 -21 -67 0 -74 16 -74 187 l0 143 -55 0 c-52 0 -55 -1 -55 -25z"/>
<path d="M22800 20620 l0 -160 40 0 40 0 0 160 0 160 -40 0 -40 0 0 -160z"/>
<path d="M5160 20580 l0 -160 40 0 40 0 0 160 0 160 -40 0 -40 0 0 -160z"/>
<path d="M22800 19980 l0 -160 40 0 40 0 0 160 0 160 -40 0 -40 0 0 -160z"/>
<path d="M5160 19940 l0 -160 40 0 40 0 0 160 0 160 -40 0 -40 0 0 -160z"/>
<path d="M7558 20072 c-53 -15 -58 -19 -58 -44 0 -23 4 -28 25 -28 l25 0 0
-185 0 -185 28 0 c15 0 33 5 39 11 9 9 21 7 49 -6 65 -31 133 -4 170 67 18 35
18 141 0 176 -33 63 -98 87 -157 58 -17 -9 -34 -16 -36 -16 -1 0 -3 38 -3 85
0 95 5 91 -82 67z m176 -218 c21 -21 21 -112 0 -142 -18 -26 -56 -29 -78 -6
-24 23 -22 139 2 153 25 15 58 13 76 -5z"/>
<path d="M6600 20041 c0 -23 5 -30 23 -33 22 -3 22 -5 22 -158 0 -153 0 -155
-22 -158 -18 -3 -23 -10 -23 -33 l0 -29 100 0 100 0 0 29 c0 23 -5 30 -22 33
-18 2 -24 10 -26 38 -2 29 3 41 31 68 l34 33 47 -65 c25 -35 46 -67 46 -70 0
-3 -9 -6 -20 -6 -16 0 -20 -7 -20 -30 l0 -30 105 0 105 0 0 30 c0 23 -5 30
-19 30 -13 0 -43 32 -90 98 -39 53 -71 101 -71 105 -1 14 124 117 142 117 13
0 18 8 18 30 l0 30 -95 0 -95 0 0 -30 c0 -20 5 -30 15 -30 8 0 15 -3 15 -8 0
-10 -133 -142 -143 -142 -4 0 -7 33 -5 73 3 66 5 72 26 75 17 3 22 10 22 33
l0 29 -100 0 -100 0 0 -29z"/>
<path d="M10590 20041 c0 -23 5 -30 23 -33 22 -3 22 -5 22 -158 0 -153 0 -155
-22 -158 -18 -3 -23 -10 -23 -33 l0 -29 85 0 85 0 0 30 c0 23 -4 30 -20 30
-11 0 -23 6 -26 13 -2 7 -3 71 -2 143 l3 129 49 -172 c49 -170 50 -173 77
-173 31 0 26 -12 90 220 17 63 35 119 40 125 6 6 8 -47 7 -135 -3 -142 -4
-145 -25 -148 -18 -3 -23 -10 -23 -33 l0 -29 100 0 100 0 0 30 c0 25 -4 30
-25 30 l-26 0 3 158 c3 154 3 157 26 160 17 3 22 10 22 33 l0 30 -97 -3 -97
-3 -38 -129 c-21 -71 -40 -131 -42 -133 -2 -2 -20 57 -41 132 l-39 135 -93 0
-93 0 0 -29z"/>
<path d="M9454 20033 c-14 -42 -30 -66 -56 -79 -21 -11 -28 -22 -28 -44 0 -25
4 -30 25 -30 25 0 25 0 25 -96 0 -52 5 -104 10 -115 24 -43 102 -61 169 -38
27 9 31 16 31 45 0 31 -2 34 -19 24 -29 -15 -67 -12 -85 6 -12 11 -16 36 -16
95 l0 79 50 0 c49 0 50 1 50 30 0 29 -1 30 -50 30 l-50 0 0 55 c0 52 -1 55
-25 55 -16 0 -28 -7 -31 -17z"/>
<path d="M11954 20033 c-14 -42 -30 -66 -56 -79 -21 -11 -28 -22 -28 -44 0
-25 4 -30 25 -30 25 0 25 0 25 -96 0 -52 5 -104 10 -115 24 -43 102 -61 169
-38 27 9 31 16 31 45 0 31 -2 34 -19 24 -29 -15 -67 -12 -85 6 -12 11 -16 36
-16 95 l0 79 50 0 c49 0 50 1 50 30 0 29 -1 30 -50 30 l-50 0 0 55 c0 52 -1
55 -25 55 -16 0 -28 -7 -31 -17z"/>
<path d="M8010 19939 c-115 -46 -136 -208 -36 -284 67 -51 168 -41 230 23 26
28 26 29 7 46 -18 16 -21 16 -57 -3 -62 -34 -105 -25 -132 26 -22 40 -16 43
93 43 l105 0 0 28 c0 37 -33 88 -72 112 -35 21 -97 25 -138 9z m104 -61 c24
-34 20 -38 -39 -38 -59 0 -68 10 -38 42 22 25 59 23 77 -4z"/>
<path d="M8355 19940 c-11 -5 -32 -11 -47 -14 -23 -5 -28 -12 -28 -36 0 -25 4
-30 25 -30 24 0 25 -2 25 -69 0 -82 -6 -101 -31 -101 -14 0 -19 -7 -19 -30 l0
-30 95 0 95 0 0 30 c0 25 -4 30 -25 30 -26 0 -26 0 -23 78 l3 77 48 0 c50 0
67 12 67 51 0 24 -29 54 -53 54 -8 0 -29 -12 -46 -26 l-31 -26 0 26 c0 28 -17
33 -55 16z"/>
<path d="M8623 19932 c-48 -13 -53 -18 -53 -43 0 -24 4 -29 25 -29 25 0 25 -1
25 -85 0 -84 0 -85 -25 -85 -21 0 -25 -5 -25 -30 l0 -30 90 0 90 0 0 29 c0 20
-6 30 -20 34 -18 5 -20 14 -20 76 0 69 1 71 31 86 17 9 40 15 52 13 20 -3 22
-9 25 -90 2 -74 0 -88 -13 -88 -10 0 -15 -10 -15 -30 l0 -30 85 0 85 0 0 29
c0 23 -5 30 -22 33 -22 3 -23 8 -25 93 -4 118 -8 132 -43 150 -39 20 -73 19
-120 -5 -22 -11 -42 -20 -45 -20 -3 0 -5 9 -5 20 0 23 -6 23 -77 2z"/>
<path d="M9110 19939 c-115 -46 -136 -208 -36 -284 67 -51 168 -41 230 23 26
28 26 29 7 46 -18 16 -21 16 -57 -3 -62 -34 -105 -25 -132 26 -22 40 -16 43
93 43 l105 0 0 28 c0 37 -33 88 -72 112 -35 21 -97 25 -138 9z m104 -61 c24
-34 20 -38 -39 -38 -59 0 -68 10 -38 42 22 25 59 23 77 -4z"/>
<path d="M9770 19939 c-115 -46 -136 -208 -36 -284 67 -51 168 -41 230 23 26
28 26 29 7 46 -18 16 -21 16 -57 -3 -62 -34 -105 -25 -132 26 -22 40 -16 43
93 43 l105 0 0 28 c0 37 -33 88 -72 112 -35 21 -97 25 -138 9z m104 -61 c24
-34 20 -38 -39 -38 -59 0 -68 10 -38 42 22 25 59 23 77 -4z"/>
<path d="M10093 19931 c-92 -58 -61 -135 75 -186 44 -16 72 -32 72 -41 0 -37
-83 -28 -128 14 -24 23 -35 26 -53 20 -32 -12 -32 -10 -10 -62 15 -33 26 -46
41 -46 11 0 20 5 20 10 0 6 13 4 30 -5 99 -51 211 32 174 130 -8 19 -58 45
-131 69 -40 13 -53 22 -53 37 0 14 7 19 28 19 29 0 92 -34 92 -49 0 -6 11 -6
29 0 29 10 29 11 17 52 -11 38 -15 42 -46 44 -19 1 -55 4 -80 8 -35 5 -52 2
-77 -14z"/>
<path d="M11261 19937 c-19 -7 -43 -24 -54 -39 -17 -23 -19 -32 -9 -53 20 -42
58 -30 87 29 23 46 85 24 85 -30 0 -18 -7 -23 -47 -29 -79 -12 -124 -34 -139
-71 -18 -43 -2 -89 37 -109 38 -20 67 -19 113 4 37 19 38 19 69 0 55 -33 107
-23 107 21 0 22 -5 29 -22 32 -22 3 -23 9 -28 99 -3 62 -10 102 -19 113 -37
44 -110 57 -180 33z m109 -197 c0 -44 -62 -69 -89 -36 -16 19 -4 43 27 55 49
18 62 14 62 -19z"/>
<path d="M11603 19931 c-92 -58 -61 -135 75 -186 44 -16 72 -32 72 -41 0 -37
-83 -28 -128 14 -24 23 -35 26 -53 20 -32 -12 -32 -10 -10 -62 15 -33 26 -46
41 -46 11 0 20 5 20 10 0 6 13 4 30 -5 99 -51 211 32 174 130 -8 19 -58 45
-131 69 -40 13 -53 22 -53 37 0 14 7 19 28 19 29 0 92 -34 92 -49 0 -6 11 -6
29 0 29 10 29 11 17 52 -11 38 -15 42 -46 44 -19 1 -55 4 -80 8 -35 5 -52 2
-77 -14z"/>
<path d="M12270 19939 c-115 -46 -136 -208 -36 -284 67 -51 168 -41 230 23 26
28 26 29 7 46 -18 16 -21 16 -57 -3 -62 -34 -105 -25 -132 26 -22 40 -16 43
93 43 l105 0 0 28 c0 37 -33 88 -72 112 -35 21 -97 25 -138 9z m104 -61 c24
-34 20 -38 -39 -38 -59 0 -68 10 -38 42 22 25 59 23 77 -4z"/>
<path d="M12615 19940 c-11 -5 -32 -11 -47 -14 -23 -5 -28 -12 -28 -36 0 -25
4 -30 25 -30 24 0 25 -2 25 -69 0 -82 -6 -101 -31 -101 -14 0 -19 -7 -19 -30
l0 -30 95 0 95 0 0 30 c0 25 -4 30 -25 30 -26 0 -26 0 -23 78 l3 77 48 0 c50
0 67 12 67 51 0 24 -29 54 -53 54 -8 0 -29 -12 -46 -26 l-31 -26 0 26 c0 28
-17 33 -55 16z"/>
<path d="M7100 19911 c0 -23 5 -30 23 -33 21 -3 22 -8 24 -93 4 -118 8 -132
43 -150 39 -20 73 -19 120 5 34 17 40 18 40 5 0 -12 14 -15 65 -15 l65 0 0 30
c0 23 -4 30 -20 30 -19 0 -20 7 -20 125 l0 125 -70 0 -70 0 0 -30 c0 -23 4
-30 20 -30 18 0 20 -7 20 -79 0 -77 0 -79 -29 -91 -61 -25 -66 -17 -69 113
l-3 117 -69 0 -70 0 0 -29z"/>
<path d="M22800 19340 l0 -160 40 0 40 0 0 160 0 160 -40 0 -40 0 0 -160z"/>
<path d="M5160 19300 l0 -160 40 0 40 0 0 160 0 160 -40 0 -40 0 0 -160z"/>
<path d="M22800 18700 l0 -160 40 0 40 0 0 160 0 160 -40 0 -40 0 0 -160z"/>
<path d="M5160 18660 l0 -160 40 0 40 0 0 160 0 160 -40 0 -40 0 0 -160z"/>
<path d="M31010 18415 l0 -115 -1548 0 c-1023 0 -1576 -4 -1632 -11 -183 -22
-290 -113 -335 -284 -13 -50 -15 -158 -15 -715 0 -402 -4 -680 -10 -719 -20
-117 -79 -198 -179 -245 l-46 -21 -2567 -3 -2568 -2 0 720 0 720 -365 0 -365
0 0 190 0 190 -360 0 -360 0 0 190 0 190 -3200 0 -3200 0 0 -1473 0 -1473 58
-24 c31 -13 84 -36 117 -51 88 -40 293 -112 430 -152 l120 -35 3 -60 3 -60
142 -60 c215 -90 441 -169 540 -187 l37 -7 0 -63 0 -62 68 -28 c37 -16 94 -41
127 -56 247 -111 643 -217 985 -264 179 -25 591 -31 777 -11 440 47 781 140
1248 340 541 233 910 327 1397 356 537 32 1137 -83 1672 -320 63 -27 117 -50
120 -50 3 0 6 327 6 727 0 399 1 728 3 730 2 2 1128 3 2503 3 1678 0 2527 3
2584 10 142 18 250 83 301 182 47 92 49 123 49 818 0 410 4 679 11 720 20 124
68 192 169 239 l55 26 1613 3 1612 2 0 -115 c0 -63 3 -115 6 -115 11 0 504
264 504 270 0 6 -493 270 -504 270 -3 0 -6 -52 -6 -115z m-10430 -145 l0 -150
-2795 0 -2795 0 0 -1371 0 -1371 -27 6 c-122 29 -376 116 -555 192 l-68 29 0
1408 0 1407 3120 0 3120 0 0 -150z m10633 40 c48 -25 87 -47 87 -50 0 -4 -148
-84 -182 -98 -4 -2 -8 42 -8 98 0 56 4 100 8 98 4 -1 47 -23 95 -48z m-9903
-420 l0 -150 -2797 -2 -2798 -3 -3 -1367 c-2 -1084 -5 -1368 -15 -1368 -44 0
-422 131 -564 196 l-73 33 0 1399 c0 769 3 1402 7 1405 3 4 1410 7 3125 7
l3118 0 0 -150z m720 -1621 c0 -1109 -3 -1390 -12 -1386 -275 113 -408 158
-635 216 -316 80 -567 112 -888 112 -547 0 -986 -98 -1586 -354 -486 -208
-812 -298 -1231 -343 -208 -22 -623 -15 -818 15 -355 53 -670 142 -987 278
l-83 35 0 1409 0 1409 3120 0 3120 0 0 -1391z"/>
<path d="M16252 17108 c2 -17 11 -24 31 -26 l27 -3 0 -223 0 -223 -30 -6 c-21
-5 -30 -12 -30 -27 0 -19 6 -20 91 -20 88 0 90 1 87 23 -2 14 -11 23 -25 25
l-23 3 0 250 0 249 -66 0 c-62 0 -65 -1 -62 -22z"/>
<path d="M17540 17106 c0 -19 6 -25 28 -28 27 -3 27 -4 30 -80 2 -43 0 -78 -4
-78 -3 0 -17 9 -31 20 -18 14 -41 20 -74 20 -40 0 -55 -6 -83 -30 -44 -39 -60
-86 -60 -176 1 -80 19 -122 67 -158 40 -30 115 -29 156 2 30 22 31 22 31 2 0
-18 6 -20 60 -20 53 0 60 2 60 19 0 13 -9 21 -30 26 l-30 7 0 249 0 249 -60 0
c-57 0 -60 -1 -60 -24z m29 -222 c30 -25 31 -28 31 -115 0 -83 -2 -92 -25
-115 -21 -21 -33 -25 -72 -22 -41 3 -50 8 -70 37 -17 25 -23 48 -23 88 0 128
81 193 159 127z"/>
<path d="M20252 17108 c2 -17 11 -24 31 -26 l27 -3 0 -223 0 -223 -30 -6 c-21
-5 -30 -12 -30 -27 0 -19 6 -20 91 -20 88 0 90 1 87 23 -2 14 -11 23 -25 25
l-23 3 0 250 0 249 -66 0 c-62 0 -65 -1 -62 -22z"/>
<path d="M20492 17108 c2 -17 11 -24 31 -26 l27 -3 0 -223 0 -223 -30 -6 c-21
-5 -30 -12 -30 -27 0 -19 6 -20 91 -20 88 0 90 1 87 23 -2 14 -11 23 -25 25
l-23 3 0 250 0 249 -66 0 c-62 0 -65 -1 -62 -22z"/>
<path d="M19350 17005 c0 -43 -1 -45 -30 -45 -25 0 -30 -4 -30 -25 0 -21 5
-25 30 -25 l30 0 0 -112 c1 -187 17 -223 100 -223 56 0 64 5 55 34 -4 15 -15
21 -34 21 -46 0 -51 14 -51 152 l0 128 35 0 c31 0 35 3 35 25 0 22 -4 25 -35
25 -35 0 -35 0 -35 45 0 45 0 45 -35 45 -35 0 -35 0 -35 -45z"/>
<path d="M15980 16938 c-51 -35 -74 -90 -74 -173 0 -74 10 -103 52 -147 58
-63 161 -62 224 2 48 47 51 80 8 80 -18 0 -30 -5 -30 -13 0 -21 -43 -56 -75
-62 -66 -12 -115 49 -115 142 0 62 11 94 41 122 43 40 133 21 144 -30 6 -24
12 -29 37 -29 23 0 29 4 24 16 -3 9 -6 28 -6 44 0 62 -160 95 -230 48z"/>
<path d="M16592 16943 c-70 -34 -106 -148 -78 -246 48 -167 270 -167 316 -1
16 56 8 144 -17 187 -42 72 -142 99 -221 60z m130 -44 c50 -27 66 -169 25
-230 -64 -95 -177 -35 -177 94 0 111 74 178 152 136z"/>
<path d="M16890 16935 c0 -18 5 -25 19 -25 17 0 19 -10 22 -122 3 -102 8 -129
24 -158 39 -65 133 -77 189 -25 33 31 36 31 36 0 0 -23 3 -25 50 -25 43 0 50
3 50 19 0 11 -9 23 -20 26 -19 6 -20 15 -20 171 l0 164 -61 0 c-57 0 -60 -1
-57 -22 2 -15 11 -24 26 -26 21 -3 22 -7 22 -122 0 -116 -1 -119 -26 -139 -18
-14 -41 -21 -70 -21 -67 0 -74 16 -74 187 l0 143 -55 0 c-52 0 -55 -1 -55 -25z"/>
<path d="M18140 16938 c-51 -35 -74 -90 -74 -173 0 -74 10 -103 52 -147 58
-63 161 -62 224 2 48 47 51 80 8 80 -18 0 -30 -5 -30 -13 0 -21 -43 -56 -75
-62 -66 -12 -115 49 -115 142 0 62 11 94 41 122 43 40 133 21 144 -30 6 -24
12 -29 37 -29 23 0 29 4 24 16 -3 9 -6 28 -6 44 0 62 -160 95 -230 48z"/>
<path d="M18552 16943 c-70 -34 -106 -148 -78 -246 48 -167 270 -167 316 -1
16 56 8 144 -17 187 -42 72 -142 99 -221 60z m130 -44 c50 -27 66 -169 25
-230 -64 -95 -177 -35 -177 94 0 111 74 178 152 136z"/>
<path d="M18852 16938 c2 -17 11 -24 31 -26 l27 -3 0 -138 0 -138 -30 -6 c-21
-5 -30 -12 -30 -27 0 -19 6 -20 91 -20 88 0 90 1 87 23 -2 14 -11 23 -25 25
-22 3 -23 7 -23 122 0 116 1 119 26 139 37 29 89 27 119 -4 24 -23 25 -30 25
-138 l0 -114 -30 -6 c-21 -5 -30 -12 -30 -27 0 -19 6 -20 91 -20 88 0 90 1 87
23 -2 14 -11 23 -25 25 -22 3 -23 8 -24 90 -1 134 -11 181 -48 214 -43 38
-116 40 -159 3 -17 -14 -33 -25 -36 -25 -3 0 -6 11 -6 25 0 24 -3 25 -61 25
-57 0 -60 -1 -57 -22z"/>
<path d="M19582 16938 c2 -17 11 -24 31 -26 l27 -3 0 -138 0 -138 -30 -6 c-21
-5 -30 -12 -30 -27 0 -19 6 -20 91 -20 88 0 90 1 87 23 -2 14 -11 23 -25 25
-22 3 -23 7 -23 118 0 131 11 154 74 154 26 0 35 5 40 23 9 35 8 37 -29 37
-25 0 -44 -8 -61 -25 -14 -14 -27 -25 -29 -25 -3 0 -5 11 -5 25 0 24 -3 25
-61 25 -57 0 -60 -1 -57 -22z"/>
<path d="M19952 16943 c-70 -34 -106 -148 -78 -246 48 -167 270 -167 316 -1
16 56 8 144 -17 187 -42 72 -142 99 -221 60z m130 -44 c50 -27 66 -169 25
-230 -64 -95 -177 -35 -177 94 0 111 74 178 152 136z"/>
<path d="M20850 16953 c-24 -9 -71 -56 -88 -88 -22 -41 -21 -159 1 -201 39
-75 126 -109 210 -84 64 19 79 36 58 69 -7 11 -12 11 -32 -2 -84 -53 -167 -19
-184 77 l-7 36 126 0 126 0 0 31 c0 51 -21 106 -51 135 -24 23 -40 28 -86 31
-32 1 -65 0 -73 -4z m115 -68 c14 -13 25 -36 25 -50 0 -25 0 -25 -90 -25 l-90
0 11 28 c28 72 97 95 144 47z"/>
<path d="M21102 16938 c2 -17 11 -24 31 -26 l27 -3 0 -138 0 -138 -30 -6 c-21
-5 -30 -12 -30 -27 0 -19 6 -20 91 -20 88 0 90 1 87 23 -2 14 -11 23 -25 25
-22 3 -23 7 -23 118 0 131 11 154 74 154 26 0 35 5 40 23 9 35 8 37 -29 37
-25 0 -44 -8 -61 -25 -14 -14 -27 -25 -29 -25 -3 0 -5 11 -5 25 0 24 -3 25
-61 25 -57 0 -60 -1 -57 -22z"/>
<path d="M17810 16795 c0 -25 1 -25 80 -25 79 0 80 0 80 25 0 25 -1 25 -80 25
-79 0 -80 0 -80 -25z"/>
<path d="M16730 16136 c0 -19 6 -25 28 -28 l27 -3 0 -135 0 -134 -25 -6 c-16
-4 -26 -14 -28 -28 -3 -21 -1 -22 88 -22 89 0 91 1 88 23 -2 16 -11 23 -30 25
l-28 3 0 115 c0 109 1 116 25 139 16 17 35 25 60 25 68 0 89 -52 83 -200 -3
-70 -4 -75 -28 -80 -16 -4 -26 -14 -28 -28 -3 -21 -1 -22 88 -22 89 0 91 1 88
23 -2 16 -11 23 -30 25 l-28 3 0 102 c0 115 18 161 66 173 76 19 106 -35 102
-180 -3 -87 -4 -90 -28 -96 -16 -4 -26 -14 -28 -28 -3 -21 -1 -22 87 -22 85 0
91 1 91 20 0 15 -9 22 -30 27 l-30 6 0 114 c0 76 -5 125 -14 148 -29 68 -129
88 -188 36 l-33 -29 -33 29 c-44 40 -116 41 -161 3 l-31 -26 0 26 c0 25 -2 26
-60 26 -57 0 -60 -1 -60 -24z"/>
<path d="M17483 16140 c-39 -17 -43 -22 -43 -55 0 -32 2 -35 30 -35 23 0 30 4
30 20 0 41 105 55 140 20 12 -12 20 -33 20 -54 l0 -33 -72 -8 c-110 -10 -158
-44 -158 -112 0 -47 19 -80 55 -98 46 -21 84 -19 130 10 49 30 55 30 55 5 0
-17 7 -20 45 -20 38 0 45 3 45 20 0 11 -7 20 -15 20 -13 0 -15 20 -15 120 0
143 -11 179 -63 203 -47 23 -132 21 -184 -3z m177 -230 c0 -35 -5 -43 -32 -60
-73 -44 -156 -9 -127 53 15 33 43 46 107 46 l52 1 0 -40z"/>
<path d="M17812 16138 c2 -17 11 -24 31 -26 l27 -3 0 -138 0 -138 -30 -6 c-21
-5 -30 -12 -30 -27 0 -19 6 -20 91 -20 88 0 90 1 87 23 -2 14 -11 23 -25 25
-22 3 -23 7 -23 122 0 116 1 119 26 139 37 29 89 27 119 -4 24 -23 25 -30 25
-138 l0 -114 -30 -6 c-21 -5 -30 -12 -30 -27 0 -19 6 -20 91 -20 88 0 90 1 87
23 -2 14 -11 23 -25 25 -22 3 -23 8 -24 90 -1 134 -11 181 -48 214 -43 38
-116 40 -159 3 -17 -14 -33 -25 -36 -25 -3 0 -6 11 -6 25 0 24 -3 25 -61 25
-57 0 -60 -1 -57 -22z"/>
<path d="M18323 16140 c-39 -17 -43 -22 -43 -55 0 -32 2 -35 30 -35 23 0 30 4
30 20 0 41 105 55 140 20 12 -12 20 -33 20 -54 l0 -33 -72 -8 c-110 -10 -158
-44 -158 -112 0 -47 19 -80 55 -98 46 -21 84 -19 130 10 49 30 55 30 55 5 0
-17 7 -20 45 -20 38 0 45 3 45 20 0 11 -7 20 -15 20 -13 0 -15 20 -15 120 0
143 -11 179 -63 203 -47 23 -132 21 -184 -3z m177 -230 c0 -35 -5 -43 -32 -60
-73 -44 -156 -9 -127 53 15 33 43 46 107 46 l52 1 0 -40z"/>
<path d="M18732 16135 c-45 -38 -65 -90 -66 -170 0 -80 22 -136 67 -169 40
-30 115 -29 156 2 l31 23 0 -29 c0 -42 -19 -91 -40 -102 -24 -13 -91 -13 -123
-1 -20 8 -27 6 -31 -5 -13 -34 -5 -43 48 -55 71 -16 120 -5 164 36 l37 33 3
231 3 231 -24 0 c-16 0 -26 -7 -30 -20 l-5 -21 -34 21 c-48 29 -118 27 -156
-5z m141 -37 c40 -21 46 -40 47 -131 0 -81 -2 -90 -25 -113 -21 -21 -33 -25
-72 -22 -41 3 -50 8 -70 37 -42 62 -26 187 28 225 28 19 62 21 92 4z"/>
<path d="M19170 16153 c-24 -9 -71 -56 -88 -88 -22 -41 -21 -159 1 -201 39
-75 126 -109 210 -84 64 19 79 36 58 69 -7 11 -12 11 -32 -2 -84 -53 -167 -19
-184 77 l-7 36 126 0 126 0 0 31 c0 51 -21 106 -51 135 -24 23 -40 28 -86 31
-32 1 -65 0 -73 -4z m115 -68 c14 -13 25 -36 25 -50 0 -25 0 -25 -90 -25 l-90
0 11 28 c28 72 97 95 144 47z"/>
<path d="M19462 16138 c2 -17 11 -24 31 -26 l27 -3 0 -138 0 -138 -30 -6 c-21
-5 -30 -12 -30 -27 0 -19 6 -20 91 -20 88 0 90 1 87 23 -2 14 -11 23 -25 25
-22 3 -23 7 -23 118 0 131 11 154 74 154 26 0 35 5 40 23 9 35 8 37 -29 37
-25 0 -44 -8 -61 -25 -14 -14 -27 -25 -29 -25 -3 0 -5 11 -5 25 0 24 -3 25
-61 25 -57 0 -60 -1 -57 -22z"/>
<path d="M5860 17027 l0 -1473 58 -24 c31 -13 84 -36 117 -51 88 -40 293 -112
430 -152 l120 -35 3 -60 3 -60 142 -60 c215 -90 441 -169 540 -187 l37 -7 0
-63 0 -62 68 -28 c37 -16 94 -41 127 -56 247 -111 643 -217 985 -264 179 -25
591 -31 777 -11 440 47 781 140 1248 340 541 233 910 327 1397 356 537 32
1137 -83 1672 -320 63 -27 117 -50 120 -50 3 0 6 671 6 1490 l0 1490 -365 0
-365 0 0 190 0 190 -360 0 -360 0 0 190 0 190 -3200 0 -3200 0 0 -1473z m6320
1243 l0 -150 -2795 0 -2795 0 0 -1371 0 -1371 -27 6 c-122 29 -376 116 -555
192 l-68 29 0 1408 0 1407 3120 0 3120 0 0 -150z m730 -380 l0 -150 -2797 -2
-2798 -3 -3 -1367 c-2 -1084 -5 -1368 -15 -1368 -44 0 -422 131 -564 196 l-73
33 0 1399 c0 769 3 1402 7 1405 3 4 1410 7 3125 7 l3118 0 0 -150z m720 -1621
c0 -1109 -3 -1390 -12 -1386 -275 113 -408 158 -635 216 -316 80 -567 112
-888 112 -547 0 -986 -98 -1586 -354 -486 -208 -812 -298 -1231 -343 -208 -22
-623 -15 -818 15 -355 53 -670 142 -987 278 l-83 35 0 1409 0 1409 3120 0
3120 0 0 -1391z"/>
<path d="M7572 17108 c2 -17 11 -24 31 -26 l27 -3 0 -223 0 -223 -30 -6 c-21
-5 -30 -12 -30 -27 0 -19 6 -20 91 -20 88 0 90 1 87 23 -2 14 -11 23 -25 25
-21 3 -23 9 -23 68 0 57 2 64 20 64 11 0 40 -25 71 -62 45 -54 49 -63 35 -73
-9 -7 -16 -20 -16 -29 0 -13 13 -16 80 -16 73 0 80 2 80 20 0 12 -9 22 -24 26
-20 5 -76 65 -133 144 -10 14 -4 26 37 76 27 32 59 61 72 64 14 4 24 14 26 28
3 21 0 22 -77 22 -74 0 -81 -2 -81 -20 0 -10 6 -23 14 -27 22 -12 -50 -103
-81 -103 -23 0 -23 0 -23 160 l0 160 -66 0 c-62 0 -65 -1 -62 -22z"/>
<path d="M8430 17106 c0 -19 6 -25 28 -28 l27 -3 3 -247 2 -248 25 0 c15 0 26
7 30 20 6 19 7 19 36 -3 41 -30 116 -30 156 -1 61 46 84 128 63 229 -10 47
-21 68 -50 97 -33 34 -43 38 -87 38 -35 0 -58 -6 -76 -20 -14 -11 -28 -20 -31
-20 -3 0 -6 47 -6 105 l0 105 -60 0 c-57 0 -60 -1 -60 -24z m263 -216 c34 -27
50 -80 45 -151 -6 -78 -33 -109 -95 -109 -33 0 -50 6 -68 25 -23 22 -25 32
-25 114 0 87 1 90 31 115 37 31 77 33 112 6z"/>
<path d="M11772 17108 c2 -17 11 -24 31 -26 l27 -3 0 -223 0 -223 -30 -6 c-21
-5 -30 -12 -30 -27 0 -19 6 -20 91 -20 88 0 90 1 87 23 -2 14 -11 23 -25 25
l-23 3 0 250 0 249 -66 0 c-62 0 -65 -1 -62 -22z"/>
<path d="M11972 17108 c2 -17 11 -24 31 -26 l27 -3 0 -223 0 -223 -30 -6 c-21
-5 -30 -12 -30 -27 0 -19 6 -20 91 -20 88 0 90 1 87 23 -2 14 -11 23 -25 25
l-23 3 0 250 0 249 -66 0 c-62 0 -65 -1 -62 -22z"/>
<path d="M10870 17005 c0 -43 -1 -45 -30 -45 -25 0 -30 -4 -30 -25 0 -21 5
-25 30 -25 l30 0 0 -112 c1 -187 17 -223 100 -223 56 0 64 5 55 34 -4 15 -15
21 -34 21 -46 0 -51 14 -51 152 l0 128 35 0 c31 0 35 3 35 25 0 22 -4 25 -35
25 -35 0 -35 0 -35 45 0 45 0 45 -35 45 -35 0 -35 0 -35 -45z"/>
<path d="M8010 16935 c0 -18 5 -25 19 -25 17 0 19 -10 22 -122 3 -102 8 -129
24 -158 39 -65 133 -77 189 -25 33 31 36 31 36 0 0 -23 3 -25 50 -25 43 0 50
3 50 19 0 11 -9 23 -20 26 -19 6 -20 15 -20 171 l0 164 -61 0 c-57 0 -60 -1
-57 -22 2 -15 11 -24 26 -26 21 -3 22 -7 22 -122 0 -116 -1 -119 -26 -139 -18
-14 -41 -21 -70 -21 -67 0 -74 16 -74 187 l0 143 -55 0 c-52 0 -55 -1 -55 -25z"/>
<path d="M9010 16953 c-24 -9 -71 -56 -88 -88 -22 -41 -21 -159 1 -201 39 -75
126 -109 210 -84 64 19 79 36 58 69 -7 11 -12 11 -32 -2 -84 -53 -167 -19
-184 77 l-7 36 126 0 126 0 0 31 c0 51 -21 106 -51 135 -24 23 -40 28 -86 31
-32 1 -65 0 -73 -4z m115 -68 c14 -13 25 -36 25 -50 0 -25 0 -25 -90 -25 l-90
0 11 28 c28 72 97 95 144 47z"/>
<path d="M9620 16938 c-51 -35 -74 -90 -74 -173 0 -74 10 -103 52 -147 58 -63
161 -62 224 2 48 47 51 80 8 80 -18 0 -30 -5 -30 -13 0 -21 -43 -56 -75 -62
-66 -12 -115 49 -115 142 0 62 11 94 41 122 43 40 133 21 144 -30 6 -24 12
-29 37 -29 23 0 29 4 24 16 -3 9 -6 28 -6 44 0 62 -160 95 -230 48z"/>
<path d="M10032 16943 c-70 -34 -106 -148 -78 -246 48 -167 270 -167 316 -1
16 56 8 144 -17 187 -42 72 -142 99 -221 60z m130 -44 c50 -27 66 -169 25
-230 -64 -95 -177 -35 -177 94 0 111 74 178 152 136z"/>
<path d="M10332 16938 c2 -17 11 -24 31 -26 l27 -3 0 -138 0 -138 -30 -6 c-21
-5 -30 -12 -30 -27 0 -19 6 -20 91 -20 88 0 90 1 87 23 -2 14 -11 23 -25 25
-22 3 -23 7 -23 122 0 116 1 119 26 139 37 29 89 27 119 -4 24 -23 25 -30 25
-138 l0 -114 -30 -6 c-21 -5 -30 -12 -30 -27 0 -19 6 -20 91 -20 88 0 90 1 87
23 -2 14 -11 23 -25 25 -22 3 -23 8 -24 90 -1 134 -11 181 -48 214 -43 38
-116 40 -159 3 -17 -14 -33 -25 -36 -25 -3 0 -6 11 -6 25 0 24 -3 25 -61 25
-57 0 -60 -1 -57 -22z"/>
<path d="M11062 16938 c2 -17 11 -24 31 -26 l27 -3 0 -138 0 -138 -30 -6 c-21
-5 -30 -12 -30 -27 0 -19 6 -20 91 -20 88 0 90 1 87 23 -2 14 -11 23 -25 25
-22 3 -23 7 -23 118 0 131 11 154 74 154 26 0 35 5 40 23 9 35 8 37 -29 37
-25 0 -44 -8 -61 -25 -14 -14 -27 -25 -29 -25 -3 0 -5 11 -5 25 0 24 -3 25
-61 25 -57 0 -60 -1 -57 -22z"/>
<path d="M11472 16943 c-70 -34 -106 -148 -78 -246 48 -167 270 -167 316 -1
16 56 8 144 -17 187 -42 72 -142 99 -221 60z m130 -44 c50 -27 66 -169 25
-230 -64 -95 -177 -35 -177 94 0 111 74 178 152 136z"/>
<path d="M12330 16953 c-24 -9 -71 -56 -88 -88 -22 -41 -21 -159 1 -201 39
-75 126 -109 210 -84 64 19 79 36 58 69 -7 11 -12 11 -32 -2 -84 -53 -167 -19
-184 77 l-7 36 126 0 126 0 0 31 c0 51 -21 106 -51 135 -24 23 -40 28 -86 31
-32 1 -65 0 -73 -4z m115 -68 c14 -13 25 -36 25 -50 0 -25 0 -25 -90 -25 l-90
0 11 28 c28 72 97 95 144 47z"/>
<path d="M12622 16938 c2 -17 11 -24 31 -26 l27 -3 0 -138 0 -138 -30 -6 c-21
-5 -30 -12 -30 -27 0 -19 6 -20 91 -20 88 0 90 1 87 23 -2 14 -11 23 -25 25
-22 3 -23 7 -23 118 0 131 11 154 74 154 26 0 35 5 40 23 9 35 8 37 -29 37
-25 0 -44 -8 -61 -25 -14 -14 -27 -25 -29 -25 -3 0 -5 11 -5 25 0 24 -3 25
-61 25 -57 0 -60 -1 -57 -22z"/>
<path d="M9290 16795 c0 -25 1 -25 80 -25 79 0 80 0 80 25 0 25 -1 25 -80 25
-79 0 -80 0 -80 -25z"/>
<path d="M12930 16795 c0 -25 1 -25 80 -25 79 0 80 0 80 25 0 25 -1 25 -80 25
-79 0 -80 0 -80 -25z"/>
<path d="M8330 16136 c0 -19 6 -25 28 -28 l27 -3 0 -135 0 -134 -25 -6 c-16
-4 -26 -14 -28 -28 -3 -21 -1 -22 88 -22 89 0 91 1 88 23 -2 16 -11 23 -30 25
l-28 3 0 115 c0 109 1 116 25 139 16 17 35 25 60 25 68 0 89 -52 83 -200 -3
-70 -4 -75 -28 -80 -16 -4 -26 -14 -28 -28 -3 -21 -1 -22 88 -22 89 0 91 1 88
23 -2 16 -11 23 -30 25 l-28 3 0 102 c0 115 18 161 66 173 76 19 106 -35 102
-180 -3 -87 -4 -90 -28 -96 -16 -4 -26 -14 -28 -28 -3 -21 -1 -22 87 -22 85 0
91 1 91 20 0 15 -9 22 -30 27 l-30 6 0 114 c0 76 -5 125 -14 148 -29 68 -129
88 -188 36 l-33 -29 -33 29 c-44 40 -116 41 -161 3 l-31 -26 0 26 c0 25 -2 26
-60 26 -57 0 -60 -1 -60 -24z"/>
<path d="M9083 16140 c-39 -17 -43 -22 -43 -55 0 -32 2 -35 30 -35 23 0 30 4
30 20 0 41 105 55 140 20 12 -12 20 -33 20 -54 l0 -33 -72 -8 c-110 -10 -158
-44 -158 -112 0 -47 19 -80 55 -98 46 -21 84 -19 130 10 49 30 55 30 55 5 0
-17 7 -20 45 -20 38 0 45 3 45 20 0 11 -7 20 -15 20 -13 0 -15 20 -15 120 0
143 -11 179 -63 203 -47 23 -132 21 -184 -3z m177 -230 c0 -35 -5 -43 -32 -60
-73 -44 -156 -9 -127 53 15 33 43 46 107 46 l52 1 0 -40z"/>
<path d="M9412 16138 c2 -17 11 -24 31 -26 l27 -3 0 -138 0 -138 -30 -6 c-21
-5 -30 -12 -30 -27 0 -19 6 -20 91 -20 88 0 90 1 87 23 -2 14 -11 23 -25 25
-22 3 -23 7 -23 122 0 116 1 119 26 139 37 29 89 27 119 -4 24 -23 25 -30 25
-138 l0 -114 -30 -6 c-21 -5 -30 -12 -30 -27 0 -19 6 -20 91 -20 88 0 90 1 87
23 -2 14 -11 23 -25 25 -22 3 -23 8 -24 90 -1 134 -11 181 -48 214 -43 38
-116 40 -159 3 -17 -14 -33 -25 -36 -25 -3 0 -6 11 -6 25 0 24 -3 25 -61 25
-57 0 -60 -1 -57 -22z"/>
<path d="M9923 16140 c-39 -17 -43 -22 -43 -55 0 -32 2 -35 30 -35 23 0 30 4
30 20 0 41 105 55 140 20 12 -12 20 -33 20 -54 l0 -33 -72 -8 c-110 -10 -158
-44 -158 -112 0 -47 19 -80 55 -98 46 -21 84 -19 130 10 49 30 55 30 55 5 0
-17 7 -20 45 -20 38 0 45 3 45 20 0 11 -7 20 -15 20 -13 0 -15 20 -15 120 0
143 -11 179 -63 203 -47 23 -132 21 -184 -3z m177 -230 c0 -35 -5 -43 -32 -60
-73 -44 -156 -9 -127 53 15 33 43 46 107 46 l52 1 0 -40z"/>
<path d="M10332 16135 c-45 -38 -65 -90 -66 -170 0 -80 22 -136 67 -169 40
-30 115 -29 156 2 l31 23 0 -29 c0 -42 -19 -91 -40 -102 -24 -13 -91 -13 -123
-1 -20 8 -27 6 -31 -5 -13 -34 -5 -43 48 -55 71 -16 120 -5 164 36 l37 33 3
231 3 231 -24 0 c-16 0 -26 -7 -30 -20 l-5 -21 -34 21 c-48 29 -118 27 -156
-5z m141 -37 c40 -21 46 -40 47 -131 0 -81 -2 -90 -25 -113 -21 -21 -33 -25
-72 -22 -41 3 -50 8 -70 37 -42 62 -26 187 28 225 28 19 62 21 92 4z"/>
<path d="M10770 16153 c-24 -9 -71 -56 -88 -88 -22 -41 -21 -159 1 -201 39
-75 126 -109 210 -84 64 19 79 36 58 69 -7 11 -12 11 -32 -2 -84 -53 -167 -19
-184 77 l-7 36 126 0 126 0 0 31 c0 51 -21 106 -51 135 -24 23 -40 28 -86 31
-32 1 -65 0 -73 -4z m115 -68 c14 -13 25 -36 25 -50 0 -25 0 -25 -90 -25 l-90
0 11 28 c28 72 97 95 144 47z"/>
<path d="M11062 16138 c2 -17 11 -24 31 -26 l27 -3 0 -138 0 -138 -30 -6 c-21
-5 -30 -12 -30 -27 0 -19 6 -20 91 -20 88 0 90 1 87 23 -2 14 -11 23 -25 25
-22 3 -23 7 -23 118 0 131 11 154 74 154 26 0 35 5 40 23 9 35 8 37 -29 37
-25 0 -44 -8 -61 -25 -14 -14 -27 -25 -29 -25 -3 0 -5 11 -5 25 0 24 -3 25
-61 25 -57 0 -60 -1 -57 -22z"/>
<path d="M22800 18060 l0 -160 40 0 40 0 0 160 0 160 -40 0 -40 0 0 -160z"/>
<path d="M5160 18020 l0 -160 40 0 40 0 0 160 0 160 -40 0 -40 0 0 -160z"/>
<path d="M22800 17420 l0 -160 40 0 40 0 0 160 0 160 -40 0 -40 0 0 -160z"/>
<path d="M5160 17380 l0 -160 40 0 40 0 0 160 0 160 -40 0 -40 0 0 -160z"/>
<path d="M22812 16942 c-9 -6 -12 -51 -10 -188 l3 -179 27 -3 c43 -5 49 19 46
205 l-3 168 -25 3 c-14 1 -31 -2 -38 -6z"/>
<path d="M5160 16740 l0 -160 40 0 40 0 0 160 0 160 -40 0 -40 0 0 -160z"/>
<path d="M5160 16100 l0 -160 40 0 40 0 0 160 0 160 -40 0 -40 0 0 -160z"/>
<path d="M22801 16061 c-6 -11 -11 -75 -11 -143 0 -137 8 -162 51 -156 l24 3
0 155 0 155 -27 3 c-18 2 -30 -3 -37 -17z"/>
<path d="M5160 15460 l0 -160 40 0 40 0 0 160 0 160 -40 0 -40 0 0 -160z"/>
<path d="M22800 15440 l0 -100 40 0 40 0 0 100 0 100 -40 0 -40 0 0 -100z"/>
<path d="M22800 14860 l0 -160 40 0 40 0 0 160 0 160 -40 0 -40 0 0 -160z"/>
<path d="M5160 14820 l0 -160 40 0 40 0 0 160 0 160 -40 0 -40 0 0 -160z"/>
<path d="M9754 14378 c-20 -40 -78 -152 -130 -249 -52 -97 -94 -179 -94 -183
0 -3 51 -6 114 -6 l113 0 11 -83 c29 -223 132 -329 346 -357 42 -6 1467 -10
3492 -10 3773 0 3469 5 3570 -63 65 -43 114 -136 121 -231 l6 -66 -122 0 c-66
0 -121 -2 -121 -5 0 -2 56 -110 125 -239 69 -129 125 -237 125 -240 0 -3 -520
-6 -1156 -6 l-1157 0 -798 -307 -799 -307 -2 -451 -3 -451 -230 123 c-126 67
-233 123 -237 123 -5 0 -8 -51 -8 -113 l0 -114 -109 -7 c-234 -14 -346 -85
-403 -255 l-23 -66 -5 -1181 -5 -1181 -35 -69 c-59 -116 -155 -164 -327 -164
l-93 0 0 115 c0 63 -3 115 -7 115 -3 0 -43 -20 -87 -44 -151 -81 -373 -196
-380 -196 -3 0 -6 336 -6 748 0 706 -1 749 -19 787 -29 62 -78 105 -176 151
-183 87 -445 134 -975 176 -229 18 -1511 18 -1740 0 -530 -42 -792 -89 -975
-176 -90 -43 -142 -85 -173 -141 -16 -27 -17 -142 -20 -1368 -2 -955 1 -1351
9 -1380 24 -90 151 -176 344 -231 319 -92 819 -130 1685 -130 699 0 1091 20
1420 74 345 57 537 140 598 260 l22 44 0 563 c0 310 3 563 6 563 7 0 229 -115
380 -196 44 -24 84 -44 87 -44 4 0 7 51 7 113 l0 114 109 7 c234 14 346 85
404 255 l22 66 5 1181 5 1181 35 69 c59 116 155 164 327 164 l93 0 0 -115 c0
-63 3 -115 8 -115 4 0 111 56 237 123 l230 123 3 -758 2 -758 1955 0 c1075 0
1955 -3 1955 -6 0 -7 -115 -229 -196 -380 -24 -44 -44 -84 -44 -87 0 -4 52 -7
115 -7 l115 0 0 -1290 0 -1290 -115 0 c-63 0 -115 -3 -115 -7 0 -5 56 -111
123 -238 l123 -230 -1978 -3 -1978 -2 0 -1473 0 -1473 58 -24 c31 -13 84 -36
117 -51 88 -40 293 -112 430 -152 l120 -35 3 -60 3 -60 142 -60 c215 -90 441
-169 540 -187 l37 -7 0 -63 0 -62 68 -28 c37 -16 94 -41 127 -56 247 -111 643
-217 985 -264 179 -25 591 -31 777 -11 440 47 781 140 1248 340 541 233 910
327 1397 356 537 32 1137 -83 1672 -320 63 -27 117 -50 120 -50 3 0 6 670 6
1490 l0 1490 -365 0 -365 0 0 190 0 190 -360 0 -360 0 0 190 0 190 -1198 2
-1198 3 123 230 c67 127 123 233 123 238 0 4 -52 7 -115 7 l-115 0 0 1290 0
1290 115 0 c63 0 115 3 115 7 0 3 -20 43 -44 87 -81 151 -196 373 -196 380 0
3 880 6 1955 6 l1955 0 0 295 c0 162 3 295 6 295 7 0 229 -115 382 -198 46
-24 86 -41 90 -37 4 3 9 56 10 116 l4 109 767 0 c846 0 821 2 917 -63 38 -25
57 -48 84 -101 l35 -69 5 -921 c5 -918 5 -921 28 -987 40 -121 111 -191 231
-231 61 -20 91 -22 414 -26 l347 -4 0 -39 c0 -39 0 -39 40 -39 l40 0 0 40 0
40 400 0 400 0 0 -115 c0 -63 3 -115 8 -115 4 0 111 56 237 123 l230 123 6
-145 c3 -80 12 -166 19 -191 41 -149 148 -245 301 -270 89 -14 4150 -14 4238
1 139 22 247 108 292 231 21 59 23 81 27 357 4 330 -3 394 -50 484 -56 105
-151 167 -283 187 -96 13 -4114 13 -4210 0 -165 -24 -273 -116 -315 -270 -7
-25 -16 -111 -19 -191 l-6 -145 -230 123 c-126 67 -233 123 -237 123 -5 0 -8
-52 -8 -115 l0 -115 -400 0 -400 0 0 80 0 80 -40 0 -40 0 0 -80 0 -80 -335 0
c-314 0 -340 1 -397 21 -86 29 -131 67 -170 147 l-33 67 -3 889 c-2 852 -2
889 15 874 31 -28 134 -56 242 -67 57 -6 233 -11 392 -11 l289 0 0 -80 0 -80
40 0 40 0 0 80 0 80 400 0 400 0 0 -115 c0 -63 3 -115 8 -115 4 0 111 56 237
123 l230 123 6 -250 c4 -155 11 -266 19 -291 46 -148 150 -240 301 -265 89
-14 4150 -14 4238 1 138 22 247 108 292 231 23 62 23 69 27 558 3 543 0 588
-50 683 -56 105 -151 167 -283 187 -96 13 -4114 13 -4210 0 -163 -24 -268
-112 -315 -265 -8 -25 -15 -136 -19 -291 l-6 -250 -230 123 c-126 67 -233 123
-237 123 -5 0 -8 -52 -8 -115 l0 -115 -400 0 -400 0 0 40 0 40 -40 0 -40 0 0
-40 0 -40 -352 0 c-377 0 -443 7 -515 51 -48 30 -64 60 -79 146 -17 93 -47
140 -114 177 -82 45 -163 57 -422 63 l-238 6 0 138 0 139 -40 0 -40 0 0 -140
0 -140 -514 0 -514 0 -4 109 c-1 60 -6 113 -10 116 -4 4 -44 -13 -90 -37 -153
-83 -375 -198 -382 -198 -3 0 -6 538 -6 1195 l0 1195 -1955 0 c-1075 0 -1955
3 -1955 6 0 3 56 111 125 240 69 129 125 237 125 239 0 3 -55 5 -121 5 l-122
0 5 63 c10 122 66 210 163 258 62 30 75 33 218 40 172 10 259 31 325 79 84 60
131 159 147 303 l7 67 114 0 c63 0 114 3 114 6 0 4 -42 86 -94 183 -52 97
-110 209 -130 249 -20 39 -41 72 -46 72 -5 0 -26 -33 -46 -72 -20 -40 -78
-152 -130 -249 -52 -97 -94 -179 -94 -183 0 -3 52 -6 116 -6 l117 0 -6 -70
c-11 -128 -63 -212 -162 -261 -62 -30 -75 -33 -218 -40 -234 -13 -332 -52
-402 -161 -16 -26 -32 -47 -35 -47 -3 0 -18 21 -35 47 -40 61 -101 106 -183
134 l-67 23 -3490 5 c-3413 5 -3491 5 -3535 24 -112 48 -176 142 -187 274 l-6
72 117 0 c64 0 116 3 116 6 0 4 -42 86 -94 183 -52 97 -110 209 -130 249 -20
39 -41 72 -46 72 -5 0 -26 -33 -46 -72z m96 -235 c25 -48 47 -91 48 -95 2 -4
-42 -8 -98 -8 -56 0 -100 4 -98 8 14 34 94 182 98 182 3 0 25 -39 50 -87z
m8400 0 c25 -48 47 -91 48 -95 2 -4 -42 -8 -98 -8 -56 0 -100 4 -98 8 14 34
94 182 98 182 3 0 25 -39 50 -87z m-812 -1131 c-14 -34 -94 -182 -98 -182 -4
0 -84 148 -98 182 -2 4 42 8 98 8 56 0 100 -4 98 -8z m3762 -1912 l0 -1460
-3860 0 -3860 0 0 1168 0 1167 758 292 757 292 3103 0 3102 1 0 -1460z m-8077
50 c48 -25 87 -47 87 -50 0 -4 -148 -84 -182 -98 -4 -2 -8 42 -8 98 0 56 4
100 8 98 4 -1 47 -23 95 -48z m17428 -628 c87 -30 162 -105 191 -191 18 -52
24 -984 8 -1061 -24 -108 -75 -175 -170 -219 l-55 -26 -2125 0 -2125 0 -55 26
c-61 28 -112 74 -137 123 -40 77 -43 114 -43 606 0 492 3 529 43 606 35 67
100 115 187 140 66 18 4228 15 4281 -4z m-8891 -303 c0 -55 -4 -99 -8 -97 -34
14 -182 94 -182 98 0 5 170 97 183 99 4 1 7 -44 7 -100z m-11850 -209 c912
-22 1422 -112 1527 -269 30 -44 31 -118 3 -153 -49 -63 -257 -140 -481 -177
-302 -50 -510 -67 -1051 -83 -572 -17 -1228 3 -1618 47 -384 44 -662 126 -731
214 -31 39 -23 130 15 170 137 143 652 231 1451 250 472 11 458 11 885 1z
m15873 -180 c48 -25 87 -47 87 -50 0 -4 -148 -84 -182 -98 -4 -2 -8 42 -8 98
0 56 4 100 8 98 4 -1 47 -23 95 -48z m-18188 -311 c150 -101 512 -174 1045
-210 253 -17 1214 -23 1495 -10 561 27 879 69 1114 148 74 25 175 76 187 94
15 24 24 3 24 -55 0 -62 -1 -65 -40 -99 -53 -49 -98 -70 -231 -111 -124 -37
-289 -67 -499 -90 -321 -36 -472 -41 -1190 -41 -718 0 -869 5 -1190 41 -211
23 -375 53 -500 91 -126 38 -189 68 -238 114 -30 28 -32 35 -32 95 0 35 2 64
4 64 3 0 26 -14 51 -31z m60 -222 c255 -127 906 -197 1845 -197 1058 0 1710
83 1928 247 l32 24 0 -69 c0 -68 -1 -71 -37 -103 -132 -115 -481 -190 -1083
-231 -251 -17 -1429 -17 -1680 0 -627 43 -956 115 -1092 240 -25 23 -28 32
-28 94 l0 69 33 -24 c17 -14 55 -36 82 -50z m9835 -14 c25 -48 47 -91 48 -95
2 -4 -42 -8 -98 -8 -56 0 -100 4 -98 8 14 34 94 182 98 182 3 0 25 -39 50 -87z
m-9790 -192 c143 -56 325 -94 595 -125 380 -45 1047 -65 1608 -48 538 16 762
34 1047 82 213 36 389 93 468 151 l42 31 0 -1077 c0 -1220 9 -1105 -88 -1169
-142 -94 -501 -162 -1032 -198 -266 -18 -1414 -18 -1680 0 -531 36 -890 104
-1032 198 -97 64 -88 -51 -88 1169 l0 1077 42 -31 c23 -17 76 -44 118 -60z
m22951 -769 c87 -30 162 -105 191 -191 17 -52 23 -588 8 -661 -24 -109 -75
-175 -170 -219 l-55 -26 -2125 0 -2125 0 -55 26 c-61 28 -112 74 -137 123 -37
72 -43 124 -43 406 0 282 6 334 43 406 35 67 100 115 187 140 66 18 4228 15
4281 -4z m-18731 -143 c0 -55 -4 -99 -8 -97 -34 14 -182 94 -182 98 0 5 170
97 183 99 4 1 7 -44 7 -100z m13863 -349 c48 -25 87 -47 87 -50 0 -4 -148 -84
-182 -98 -4 -2 -8 42 -8 98 0 56 4 100 8 98 4 -1 47 -23 95 -48z m-8245 -1438
c-14 -34 -94 -182 -98 -182 -4 0 -84 148 -98 182 -2 4 42 8 98 8 56 0 100 -4
98 -8z m2242 -602 l0 -150 -2795 0 -2795 0 0 -1371 0 -1371 -27 6 c-122 29
-376 116 -555 192 l-68 29 0 1408 0 1407 3120 0 3120 0 0 -150z m730 -380 l0
-150 -2797 -2 -2798 -3 -3 -1367 c-2 -1084 -5 -1368 -15 -1368 -44 0 -422 131
-564 196 l-73 33 0 1399 c0 769 3 1402 7 1405 3 4 1410 7 3125 7 l3118 0 0
-150z m720 -1621 c0 -1109 -3 -1390 -12 -1386 -275 113 -408 158 -635 216
-316 80 -567 112 -888 112 -547 0 -986 -98 -1586 -354 -486 -208 -812 -298
-1231 -343 -208 -22 -623 -15 -818 15 -355 53 -670 142 -987 278 l-83 35 0
1409 0 1409 3120 0 3120 0 0 -1391z"/>
<path d="M14782 11348 c2 -17 11 -24 31 -26 l27 -3 0 -223 0 -223 -30 -6 c-21
-5 -30 -12 -30 -27 0 -19 6 -20 91 -20 88 0 90 1 87 23 -2 14 -11 23 -25 25
-21 3 -23 9 -23 68 0 57 2 64 20 64 11 0 40 -25 71 -62 45 -54 49 -63 35 -73
-9 -7 -16 -20 -16 -29 0 -13 13 -16 80 -16 73 0 80 2 80 20 0 12 -9 22 -24 26
-20 5 -76 65 -133 144 -10 14 -4 26 37 76 27 32 59 61 72 64 14 4 24 14 26 28
3 21 0 22 -77 22 -74 0 -81 -2 -81 -20 0 -10 6 -23 14 -27 22 -12 -50 -103
-81 -103 -23 0 -23 0 -23 160 l0 160 -66 0 c-62 0 -65 -1 -62 -22z"/>
<path d="M15640 11346 c0 -19 6 -25 28 -28 l27 -3 3 -247 2 -248 25 0 c15 0
26 7 30 20 6 19 7 19 36 -3 41 -30 116 -30 156 -1 61 46 84 128 63 229 -10 47
-21 68 -50 97 -33 34 -43 38 -87 38 -35 0 -58 -6 -76 -20 -14 -11 -28 -20 -31
-20 -3 0 -6 47 -6 105 l0 105 -60 0 c-57 0 -60 -1 -60 -24z m263 -216 c34 -27
50 -80 45 -151 -6 -78 -33 -109 -95 -109 -33 0 -50 6 -68 25 -23 22 -25 32
-25 114 0 87 1 90 31 115 37 31 77 33 112 6z"/>
<path d="M17650 11335 c0 -33 2 -35 35 -35 33 0 35 2 35 35 0 33 -2 35 -35 35
-33 0 -35 -2 -35 -35z"/>
<path d="M15220 11175 c0 -18 5 -25 19 -25 17 0 19 -10 22 -122 3 -102 8 -129
24 -158 39 -65 133 -77 189 -25 33 31 36 31 36 0 0 -23 3 -25 50 -25 43 0 50
3 50 19 0 11 -9 23 -20 26 -19 6 -20 15 -20 171 l0 164 -61 0 c-57 0 -60 -1
-57 -22 2 -15 11 -24 26 -26 21 -3 22 -7 22 -122 0 -116 -1 -119 -26 -139 -18
-14 -41 -21 -70 -21 -67 0 -74 16 -74 187 l0 143 -55 0 c-52 0 -55 -1 -55 -25z"/>
<path d="M16220 11193 c-24 -9 -71 -56 -88 -88 -22 -41 -21 -159 1 -201 39
-75 126 -109 210 -84 64 19 79 36 58 69 -7 11 -12 11 -32 -2 -84 -53 -167 -19
-184 77 l-7 36 126 0 126 0 0 31 c0 51 -21 106 -51 135 -24 23 -40 28 -86 31
-32 1 -65 0 -73 -4z m115 -68 c14 -13 25 -36 25 -50 0 -25 0 -25 -90 -25 l-90
0 11 28 c28 72 97 95 144 47z"/>
<path d="M16813 11180 c-39 -17 -43 -22 -43 -55 0 -32 2 -35 30 -35 23 0 30 4
30 20 0 41 105 55 140 20 12 -12 20 -33 20 -54 l0 -33 -72 -8 c-110 -10 -158
-44 -158 -112 0 -47 19 -80 55 -98 46 -21 84 -19 130 10 49 30 55 30 55 5 0
-17 7 -20 45 -20 38 0 45 3 45 20 0 11 -7 20 -15 20 -13 0 -15 20 -15 120 0
143 -11 179 -63 203 -47 23 -132 21 -184 -3z m177 -230 c0 -35 -5 -43 -32 -60
-73 -44 -156 -9 -127 53 15 33 43 46 107 46 l52 1 0 -40z"/>
<path d="M17142 11178 c2 -17 11 -24 31 -26 l27 -3 0 -214 0 -214 -27 -3 c-20
-2 -29 -9 -31 -25 -3 -22 -1 -23 93 -23 94 0 96 1 93 23 -2 16 -11 23 -30 25
-27 3 -28 5 -28 67 l0 63 38 -20 c43 -23 107 -20 148 7 38 24 64 89 64 160 0
79 -15 129 -50 168 -26 30 -33 32 -93 32 -48 0 -70 -5 -84 -17 -25 -23 -33
-23 -33 2 0 18 -7 20 -61 20 -57 0 -60 -1 -57 -22z m259 -38 c50 -27 72 -161
37 -226 -30 -55 -105 -68 -150 -27 -15 13 -18 34 -18 119 0 99 1 103 26 123
29 23 74 27 105 11z"/>
<path d="M17592 11178 c2 -17 11 -24 31 -26 l27 -3 0 -138 0 -138 -30 -6 c-21
-5 -30 -12 -30 -27 0 -19 6 -20 91 -20 88 0 90 1 87 23 -2 14 -11 23 -25 25
-23 3 -23 5 -23 168 l0 164 -66 0 c-62 0 -65 -1 -62 -22z"/>
<path d="M17915 11191 c-38 -17 -69 -60 -69 -96 0 -51 35 -82 122 -107 84 -25
112 -51 92 -88 -15 -29 -56 -42 -103 -34 -32 5 -42 12 -50 35 -8 21 -18 29
-35 29 -21 0 -23 -4 -20 -42 3 -36 8 -45 33 -58 17 -8 58 -15 95 -15 99 0 150
39 150 116 0 41 -40 76 -109 94 -79 22 -105 37 -109 64 -6 36 25 61 75 61 45
0 83 -25 83 -55 0 -9 9 -15 25 -15 22 0 25 4 25 40 0 32 -5 43 -27 57 -30 20
-145 29 -178 14z"/>
<path d="M18300 11193 c-24 -9 -71 -56 -88 -88 -22 -41 -21 -159 1 -201 39
-75 126 -109 210 -84 64 19 79 36 58 69 -7 11 -12 11 -32 -2 -84 -53 -167 -19
-184 77 l-7 36 126 0 126 0 0 31 c0 51 -21 106 -51 135 -24 23 -40 28 -86 31
-32 1 -65 0 -73 -4z m115 -68 c14 -13 25 -36 25 -50 0 -25 0 -25 -90 -25 l-90
0 11 28 c28 72 97 95 144 47z"/>
<path d="M18592 11178 c2 -17 11 -24 31 -26 l27 -3 0 -138 0 -138 -30 -6 c-21
-5 -30 -12 -30 -27 0 -19 6 -20 91 -20 88 0 90 1 87 23 -2 14 -11 23 -25 25
-22 3 -23 7 -23 118 0 131 11 154 74 154 26 0 35 5 40 23 9 35 8 37 -29 37
-25 0 -44 -8 -61 -25 -14 -14 -27 -25 -29 -25 -3 0 -5 11 -5 25 0 24 -3 25
-61 25 -57 0 -60 -1 -57 -22z"/>
<path d="M18860 11182 c0 -10 8 -24 18 -33 9 -8 44 -85 77 -172 56 -146 62
-157 86 -157 24 0 29 11 88 164 35 91 70 167 77 170 8 3 14 15 14 26 0 18 -6
20 -71 20 -67 0 -70 -1 -67 -22 2 -12 12 -25 23 -28 20 -5 19 -9 -21 -125 -23
-66 -45 -113 -48 -105 -28 75 -76 214 -76 220 0 4 9 10 20 13 12 3 20 14 20
26 0 19 -6 21 -70 21 -60 0 -70 -2 -70 -18z"/>
<path d="M19420 11193 c-24 -9 -71 -56 -88 -88 -22 -41 -21 -159 1 -201 39
-75 126 -109 210 -84 64 19 79 36 58 69 -7 11 -12 11 -32 -2 -84 -53 -167 -19
-184 77 l-7 36 126 0 126 0 0 31 c0 51 -21 106 -51 135 -24 23 -40 28 -86 31
-32 1 -65 0 -73 -4z m115 -68 c14 -13 25 -36 25 -50 0 -25 0 -25 -90 -25 l-90
0 11 28 c28 72 97 95 144 47z"/>
<path d="M19672 11178 c2 -17 11 -24 31 -26 l27 -3 0 -138 0 -138 -30 -6 c-21
-5 -30 -12 -30 -27 0 -19 6 -20 91 -20 88 0 90 1 87 23 -2 14 -11 23 -25 25
-22 3 -23 7 -23 118 0 131 11 154 74 154 26 0 35 5 40 23 9 35 8 37 -29 37
-25 0 -44 -8 -61 -25 -14 -14 -27 -25 -29 -25 -3 0 -5 11 -5 25 0 24 -3 25
-61 25 -57 0 -60 -1 -57 -22z"/>
<path d="M16500 11035 c0 -25 1 -25 80 -25 79 0 80 0 80 25 0 25 -1 25 -80 25
-79 0 -80 0 -80 -25z"/>
<path d="M27182 10028 c2 -17 11 -24 31 -26 l27 -3 0 -223 0 -223 -30 -6 c-21
-5 -30 -12 -30 -27 0 -19 6 -20 91 -20 88 0 90 1 87 23 -2 14 -11 23 -25 25
-21 3 -23 9 -23 68 0 57 2 64 20 64 11 0 40 -25 71 -62 45 -54 49 -63 35 -73
-9 -7 -16 -20 -16 -29 0 -13 13 -16 80 -16 73 0 80 2 80 20 0 12 -9 22 -24 26
-20 5 -76 65 -133 144 -10 14 -4 26 37 76 27 32 59 61 72 64 14 4 24 14 26 28
3 21 0 22 -77 22 -74 0 -81 -2 -81 -20 0 -10 6 -23 14 -27 22 -12 -50 -103
-81 -103 -23 0 -23 0 -23 160 l0 160 -66 0 c-62 0 -65 -1 -62 -22z"/>
<path d="M28000 10026 c0 -19 6 -25 28 -28 l27 -3 3 -247 2 -248 25 0 c15 0
26 7 30 20 6 19 7 19 36 -3 41 -30 116 -30 156 -1 61 46 84 128 63 229 -10 47
-21 68 -50 97 -33 34 -43 38 -87 38 -35 0 -58 -6 -76 -20 -14 -11 -28 -20 -31
-20 -3 0 -6 47 -6 105 l0 105 -60 0 c-57 0 -60 -1 -60 -24z m263 -216 c34 -27
50 -80 45 -151 -6 -78 -33 -109 -95 -109 -33 0 -50 6 -68 25 -23 22 -25 32
-25 114 0 87 1 90 31 115 37 31 77 33 112 6z"/>
<path d="M28862 10028 c2 -17 11 -24 31 -26 l27 -3 0 -223 0 -223 -30 -6 c-21
-5 -30 -12 -30 -27 0 -19 6 -20 91 -20 88 0 90 1 87 23 -2 14 -11 23 -25 25
l-23 3 0 250 0 249 -66 0 c-62 0 -65 -1 -62 -22z"/>
<path d="M29520 9925 c0 -43 -1 -45 -30 -45 -25 0 -30 -4 -30 -25 0 -21 5 -25
30 -25 l30 0 0 -112 c1 -187 17 -223 100 -223 56 0 64 5 55 34 -4 15 -15 21
-34 21 -46 0 -51 14 -51 152 l0 128 35 0 c31 0 35 3 35 25 0 22 -4 25 -35 25
-35 0 -35 0 -35 45 0 45 0 45 -35 45 -35 0 -35 0 -35 -45z"/>
<path d="M27580 9855 c0 -18 5 -25 19 -25 17 0 19 -10 22 -122 3 -102 8 -129
24 -158 39 -65 133 -77 189 -25 33 31 36 31 36 0 0 -23 3 -25 50 -25 43 0 50
3 50 19 0 11 -9 23 -20 26 -19 6 -20 15 -20 171 l0 164 -61 0 c-57 0 -60 -1
-57 -22 2 -15 11 -24 26 -26 21 -3 22 -7 22 -122 0 -116 -1 -119 -26 -139 -18
-14 -41 -21 -70 -21 -67 0 -74 16 -74 187 l0 143 -55 0 c-52 0 -55 -1 -55 -25z"/>
<path d="M28580 9873 c-24 -9 -71 -56 -88 -88 -22 -41 -21 -159 1 -201 39 -75
126 -109 210 -84 64 19 79 36 58 69 -7 11 -12 11 -32 -2 -84 -53 -167 -19
-184 77 l-7 36 126 0 126 0 0 31 c0 51 -21 106 -51 135 -24 23 -40 28 -86 31
-32 1 -65 0 -73 -4z m115 -68 c14 -13 25 -36 25 -50 0 -25 0 -25 -90 -25 l-90
0 11 28 c28 72 97 95 144 47z"/>
<path d="M29180 9873 c-24 -9 -71 -56 -88 -88 -22 -41 -21 -159 1 -201 39 -75
126 -109 210 -84 64 19 79 36 58 69 -7 11 -12 11 -32 -2 -84 -53 -167 -19
-184 77 l-7 36 126 0 126 0 0 31 c0 51 -21 106 -51 135 -24 23 -40 28 -86 31
-32 1 -65 0 -73 -4z m115 -68 c14 -13 25 -36 25 -50 0 -25 0 -25 -90 -25 l-90
0 11 28 c28 72 97 95 144 47z"/>
<path d="M9950 8426 c0 -19 6 -25 28 -28 27 -3 27 -4 30 -80 2 -43 0 -78 -4
-78 -3 0 -17 9 -31 20 -18 14 -41 20 -74 20 -40 0 -55 -6 -83 -30 -44 -39 -60
-86 -60 -176 1 -80 19 -122 67 -158 40 -30 115 -29 156 2 30 22 31 22 31 2 0
-18 6 -20 60 -20 53 0 60 2 60 19 0 13 -9 21 -30 26 l-30 7 0 249 0 249 -60 0
c-57 0 -60 -1 -60 -24z m29 -222 c30 -25 31 -28 31 -115 0 -83 -2 -92 -25
-115 -21 -21 -33 -25 -72 -22 -41 3 -50 8 -70 37 -17 25 -23 48 -23 88 0 128
81 193 159 127z"/>
<path d="M9160 8325 c0 -43 -1 -45 -30 -45 -25 0 -30 -4 -30 -25 0 -21 5 -25
30 -25 l30 0 0 -112 c1 -187 17 -223 100 -223 56 0 64 5 55 34 -4 15 -15 21
-34 21 -46 0 -51 14 -51 152 l0 128 35 0 c31 0 35 3 35 25 0 22 -4 25 -35 25
-35 0 -35 0 -35 45 0 45 0 45 -35 45 -35 0 -35 0 -35 -45z"/>
<path d="M8820 8273 c-24 -9 -71 -56 -88 -88 -22 -41 -21 -159 1 -201 39 -75
126 -109 210 -84 64 19 79 36 58 69 -7 11 -12 11 -32 -2 -84 -53 -167 -19
-184 77 l-7 36 126 0 126 0 0 31 c0 51 -21 106 -51 135 -24 23 -40 28 -86 31
-32 1 -65 0 -73 -4z m115 -68 c14 -13 25 -36 25 -50 0 -25 0 -25 -90 -25 l-90
0 11 28 c28 72 97 95 144 47z"/>
<path d="M9430 8258 c-51 -35 -74 -90 -74 -173 0 -74 10 -103 52 -147 58 -63
161 -62 224 2 48 47 51 80 8 80 -18 0 -30 -5 -30 -13 0 -21 -43 -56 -75 -62
-66 -12 -115 49 -115 142 0 62 11 94 41 122 43 40 133 21 144 -30 6 -24 12
-29 37 -29 23 0 29 4 24 16 -3 9 -6 28 -6 44 0 62 -160 95 -230 48z"/>
<path d="M26502 8028 c2 -17 11 -24 31 -26 l27 -3 0 -223 0 -223 -30 -6 c-21
-5 -30 -12 -30 -27 0 -19 6 -20 91 -20 88 0 90 1 87 23 -2 14 -11 23 -25 25
-21 3 -23 9 -23 68 0 57 2 64 20 64 11 0 40 -25 71 -62 45 -54 49 -63 35 -73
-9 -7 -16 -20 -16 -29 0 -13 13 -16 80 -16 73 0 80 2 80 20 0 12 -9 22 -24 26
-20 5 -76 65 -133 144 -10 14 -4 26 37 76 27 32 59 61 72 64 14 4 24 14 26 28
3 21 0 22 -77 22 -74 0 -81 -2 -81 -20 0 -10 6 -23 14 -27 22 -12 -50 -103
-81 -103 -23 0 -23 0 -23 160 l0 160 -66 0 c-62 0 -65 -1 -62 -22z"/>
<path d="M27360 8026 c0 -19 6 -25 28 -28 l27 -3 3 -247 2 -248 25 0 c15 0 26
7 30 20 6 19 7 19 36 -3 41 -30 116 -30 156 -1 61 46 84 128 63 229 -10 47
-21 68 -50 97 -33 34 -43 38 -87 38 -35 0 -58 -6 -76 -20 -14 -11 -28 -20 -31
-20 -3 0 -6 47 -6 105 l0 105 -60 0 c-57 0 -60 -1 -60 -24z m263 -216 c34 -27
50 -80 45 -151 -6 -78 -33 -109 -95 -109 -33 0 -50 6 -68 25 -23 22 -25 32
-25 114 0 87 1 90 31 115 37 31 77 33 112 6z"/>
<path d="M26940 7855 c0 -18 5 -25 19 -25 17 0 19 -10 22 -122 3 -102 8 -129
24 -158 39 -65 133 -77 189 -25 33 31 36 31 36 0 0 -23 3 -25 50 -25 43 0 50
3 50 19 0 11 -9 23 -20 26 -19 6 -20 15 -20 171 l0 164 -61 0 c-57 0 -60 -1
-57 -22 2 -15 11 -24 26 -26 21 -3 22 -7 22 -122 0 -116 -1 -119 -26 -139 -18
-14 -41 -21 -70 -21 -67 0 -74 16 -74 187 l0 143 -55 0 c-52 0 -55 -1 -55 -25z"/>
<path d="M27900 7873 c-24 -9 -71 -56 -88 -88 -22 -41 -21 -159 1 -201 39 -75
126 -109 210 -84 64 19 79 36 58 69 -7 11 -12 11 -32 -2 -84 -53 -167 -19
-184 77 l-7 36 126 0 126 0 0 31 c0 51 -21 106 -51 135 -24 23 -40 28 -86 31
-32 1 -65 0 -73 -4z m115 -68 c14 -13 25 -36 25 -50 0 -25 0 -25 -90 -25 l-90
0 11 28 c28 72 97 95 144 47z"/>
<path d="M28462 7858 c2 -17 11 -24 31 -26 l27 -3 0 -214 0 -214 -27 -3 c-20
-2 -29 -9 -31 -25 -3 -22 -1 -23 93 -23 94 0 96 1 93 23 -2 16 -11 23 -30 25
-27 3 -28 5 -28 67 l0 63 38 -20 c43 -23 107 -20 148 7 38 24 64 89 64 160 0
79 -15 129 -50 168 -26 30 -33 32 -93 32 -48 0 -70 -5 -84 -17 -25 -23 -33
-23 -33 2 0 18 -7 20 -61 20 -57 0 -60 -1 -57 -22z m259 -38 c50 -27 72 -161
37 -226 -30 -55 -105 -68 -150 -27 -15 13 -18 34 -18 119 0 99 1 103 26 123
29 23 74 27 105 11z"/>
<path d="M28872 7858 c2 -17 11 -24 31 -26 l27 -3 0 -138 0 -138 -30 -6 c-21
-5 -30 -12 -30 -27 0 -19 6 -20 91 -20 88 0 90 1 87 23 -2 14 -11 23 -25 25
-22 3 -23 7 -23 118 0 131 11 154 74 154 26 0 35 5 40 23 9 35 8 37 -29 37
-25 0 -44 -8 -61 -25 -14 -14 -27 -25 -29 -25 -3 0 -5 11 -5 25 0 24 -3 25
-61 25 -57 0 -60 -1 -57 -22z"/>
<path d="M29282 7863 c-70 -34 -106 -148 -78 -246 48 -167 270 -167 316 -1 16
56 8 144 -17 187 -42 72 -142 99 -221 60z m130 -44 c50 -27 66 -169 25 -230
-64 -95 -177 -35 -177 94 0 111 74 178 152 136z"/>
<path d="M29590 7859 c0 -12 8 -23 19 -26 21 -5 124 -129 119 -143 -9 -28
-106 -139 -123 -142 -12 -2 -21 -12 -23 -25 -3 -22 0 -23 72 -23 64 0 76 3 76
16 0 9 -7 22 -15 28 -12 9 -10 17 18 53 17 23 35 42 38 43 3 0 21 -19 39 -41
30 -38 32 -43 17 -54 -10 -7 -17 -20 -17 -29 0 -13 12 -16 75 -16 69 0 75 2
75 20 0 12 -10 24 -23 29 -13 5 -48 39 -77 75 l-52 66 43 56 c24 31 49 61 54
69 6 7 19 14 30 16 12 3 21 14 23 27 3 21 0 22 -72 22 -64 0 -76 -3 -76 -16 0
-9 7 -22 15 -28 13 -9 10 -17 -19 -54 l-34 -42 -35 42 c-29 34 -33 44 -21 51
8 4 14 17 14 27 0 18 -7 20 -70 20 -64 0 -70 -2 -70 -21z"/>
<path d="M29970 7859 c0 -12 8 -23 20 -26 14 -4 32 -39 68 -132 84 -217 80
-196 52 -249 -19 -36 -31 -48 -52 -50 -27 -3 -45 -32 -33 -52 8 -13 48 -13 80
2 38 17 56 54 134 268 46 124 79 200 91 209 11 7 20 22 20 32 0 17 -8 19 -75
19 -69 0 -75 -2 -75 -21 0 -12 8 -23 20 -26 11 -3 20 -8 20 -12 0 -4 -17 -58
-38 -121 l-39 -115 -41 123 c-37 113 -39 122 -21 122 14 0 19 7 19 25 0 24 -2
25 -75 25 -69 0 -75 -2 -75 -21z"/>
<path d="M28220 7715 c0 -25 1 -25 80 -25 79 0 80 0 80 25 0 25 -1 25 -80 25
-79 0 -80 0 -80 -25z"/>
<path d="M15302 4228 c2 -17 11 -24 31 -26 l27 -3 0 -223 0 -223 -30 -6 c-21
-5 -30 -12 -30 -27 0 -19 6 -20 91 -20 88 0 90 1 87 23 -2 14 -11 23 -25 25
-21 3 -23 9 -23 68 0 57 2 64 20 64 11 0 40 -25 71 -62 45 -54 49 -63 35 -73
-9 -7 -16 -20 -16 -29 0 -13 13 -16 80 -16 73 0 80 2 80 20 0 12 -9 22 -24 26
-20 5 -76 65 -133 144 -10 14 -4 26 37 76 27 32 59 61 72 64 14 4 24 14 26 28
3 21 0 22 -77 22 -74 0 -81 -2 -81 -20 0 -10 6 -23 14 -27 22 -12 -50 -103
-81 -103 -23 0 -23 0 -23 160 l0 160 -66 0 c-62 0 -65 -1 -62 -22z"/>
<path d="M16160 4226 c0 -19 6 -25 28 -28 l27 -3 3 -247 2 -248 25 0 c15 0 26
7 30 20 6 19 7 19 36 -3 41 -30 116 -30 156 -1 61 46 84 128 63 229 -10 47
-21 68 -50 97 -33 34 -43 38 -87 38 -35 0 -58 -6 -76 -20 -14 -11 -28 -20 -31
-20 -3 0 -6 47 -6 105 l0 105 -60 0 c-57 0 -60 -1 -60 -24z m263 -216 c34 -27
50 -80 45 -151 -6 -78 -33 -109 -95 -109 -33 0 -50 6 -68 25 -23 22 -25 32
-25 114 0 87 1 90 31 115 37 31 77 33 112 6z"/>
<path d="M18022 4228 c2 -17 11 -24 31 -26 l27 -3 0 -223 0 -223 -30 -6 c-21
-5 -30 -12 -30 -27 0 -19 6 -20 91 -20 88 0 90 1 87 23 -2 14 -11 23 -25 25
-22 3 -23 7 -23 121 0 135 7 148 78 158 34 5 45 1 66 -20 25 -25 26 -31 26
-140 l0 -114 -30 -6 c-21 -5 -30 -12 -30 -27 0 -19 6 -20 91 -20 88 0 90 1 87
23 -2 14 -11 23 -24 25 -21 3 -22 9 -26 125 -5 170 -29 207 -133 207 -32 0
-51 -7 -74 -26 l-31 -26 0 111 0 111 -66 0 c-62 0 -65 -1 -62 -22z"/>
<path d="M19070 4226 c0 -19 6 -25 28 -28 27 -3 27 -4 30 -80 2 -43 0 -78 -4
-78 -3 0 -17 9 -31 20 -18 14 -41 20 -74 20 -40 0 -55 -6 -83 -30 -44 -39 -60
-86 -60 -176 1 -80 19 -122 67 -158 40 -30 115 -29 156 2 30 22 31 22 31 2 0
-18 6 -20 60 -20 53 0 60 2 60 19 0 13 -9 21 -30 26 l-30 7 0 249 0 249 -60 0
c-57 0 -60 -1 -60 -24z m29 -222 c30 -25 31 -28 31 -115 0 -83 -2 -92 -25
-115 -21 -21 -33 -25 -72 -22 -41 3 -50 8 -70 37 -17 25 -23 48 -23 88 0 128
81 193 159 127z"/>
<path d="M19742 4228 c2 -17 11 -24 31 -26 l27 -3 0 -223 0 -223 -30 -6 c-21
-5 -30 -12 -30 -27 0 -19 6 -20 91 -20 88 0 90 1 87 23 -2 14 -11 23 -25 25
l-23 3 0 250 0 249 -66 0 c-62 0 -65 -1 -62 -22z"/>
<path d="M15740 4055 c0 -18 5 -25 19 -25 17 0 19 -10 22 -122 3 -102 8 -129
24 -158 39 -65 133 -77 189 -25 33 31 36 31 36 0 0 -23 3 -25 50 -25 43 0 50
3 50 19 0 11 -9 23 -20 26 -19 6 -20 15 -20 171 l0 164 -61 0 c-57 0 -60 -1
-57 -22 2 -15 11 -24 26 -26 21 -3 22 -7 22 -122 0 -116 -1 -119 -26 -139 -18
-14 -41 -21 -70 -21 -67 0 -74 16 -74 187 l0 143 -55 0 c-52 0 -55 -1 -55 -25z"/>
<path d="M16700 4073 c-24 -9 -71 -56 -88 -88 -22 -41 -21 -159 1 -201 39 -75
126 -109 210 -84 64 19 79 36 58 69 -7 11 -12 11 -32 -2 -84 -53 -167 -19
-184 77 l-7 36 126 0 126 0 0 31 c0 51 -21 106 -51 135 -24 23 -40 28 -86 31
-32 1 -65 0 -73 -4z m115 -68 c14 -13 25 -36 25 -50 0 -25 0 -25 -90 -25 l-90
0 11 28 c28 72 97 95 144 47z"/>
<path d="M17355 4071 c-38 -17 -69 -60 -69 -96 0 -51 35 -82 122 -107 84 -25
112 -51 92 -88 -15 -29 -56 -42 -103 -34 -32 5 -42 12 -50 35 -8 21 -18 29
-35 29 -21 0 -23 -4 -20 -42 3 -36 8 -45 33 -58 17 -8 58 -15 95 -15 99 0 150
39 150 116 0 41 -40 76 -109 94 -79 22 -105 37 -109 64 -6 36 25 61 75 61 45
0 83 -25 83 -55 0 -9 9 -15 25 -15 22 0 25 4 25 40 0 32 -5 43 -27 57 -30 20
-145 29 -178 14z"/>
<path d="M17710 4058 c-51 -35 -74 -90 -74 -173 0 -74 10 -103 52 -147 58 -63
161 -62 224 2 48 47 51 80 8 80 -18 0 -30 -5 -30 -13 0 -21 -43 -56 -75 -62
-66 -12 -115 49 -115 142 0 62 11 94 41 122 43 40 133 21 144 -30 6 -24 12
-29 37 -29 23 0 29 4 24 16 -3 9 -6 28 -6 44 0 62 -160 95 -230 48z"/>
<path d="M18580 4073 c-24 -9 -71 -56 -88 -88 -22 -41 -21 -159 1 -201 39 -75
126 -109 210 -84 64 19 79 36 58 69 -7 11 -12 11 -32 -2 -84 -53 -167 -19
-184 77 l-7 36 126 0 126 0 0 31 c0 51 -21 106 -51 135 -24 23 -40 28 -86 31
-32 1 -65 0 -73 -4z m115 -68 c14 -13 25 -36 25 -50 0 -25 0 -25 -90 -25 l-90
0 11 28 c28 72 97 95 144 47z"/>
<path d="M19300 4055 c0 -18 5 -25 19 -25 17 0 19 -10 22 -122 3 -102 8 -129
24 -158 39 -65 133 -77 189 -25 33 31 36 31 36 0 0 -23 3 -25 50 -25 43 0 50
3 50 19 0 11 -9 23 -20 26 -19 6 -20 15 -20 171 l0 164 -61 0 c-57 0 -60 -1
-57 -22 2 -15 11 -24 26 -26 21 -3 22 -7 22 -122 0 -116 -1 -119 -26 -139 -18
-14 -41 -21 -70 -21 -67 0 -74 16 -74 187 l0 143 -55 0 c-52 0 -55 -1 -55 -25z"/>
<path d="M20060 4073 c-24 -9 -71 -56 -88 -88 -22 -41 -21 -159 1 -201 39 -75
126 -109 210 -84 64 19 79 36 58 69 -7 11 -12 11 -32 -2 -84 -53 -167 -19
-184 77 l-7 36 126 0 126 0 0 31 c0 51 -21 106 -51 135 -24 23 -40 28 -86 31
-32 1 -65 0 -73 -4z m115 -68 c14 -13 25 -36 25 -50 0 -25 0 -25 -90 -25 l-90
0 11 28 c28 72 97 95 144 47z"/>
<path d="M20352 4058 c2 -17 11 -24 31 -26 l27 -3 0 -138 0 -138 -30 -6 c-21
-5 -30 -12 -30 -27 0 -19 6 -20 91 -20 88 0 90 1 87 23 -2 14 -11 23 -25 25
-22 3 -23 7 -23 118 0 131 11 154 74 154 26 0 35 5 40 23 9 35 8 37 -29 37
-25 0 -44 -8 -61 -25 -14 -14 -27 -25 -29 -25 -3 0 -5 11 -5 25 0 24 -3 25
-61 25 -57 0 -60 -1 -57 -22z"/>
<path d="M17020 3915 c0 -25 1 -25 80 -25 79 0 80 0 80 25 0 25 -1 25 -80 25
-79 0 -80 0 -80 -25z"/>
<path d="M22800 14220 l0 -160 40 0 40 0 0 160 0 160 -40 0 -40 0 0 -160z"/>
<path d="M5160 14180 l0 -160 40 0 40 0 0 160 0 160 -40 0 -40 0 0 -160z"/>
<path d="M22800 13580 l0 -160 40 0 40 0 0 160 0 160 -40 0 -40 0 0 -160z"/>
<path d="M5160 13540 l0 -160 40 0 40 0 0 160 0 160 -40 0 -40 0 0 -160z"/>
<path d="M22800 12940 l0 -160 40 0 40 0 0 160 0 160 -40 0 -40 0 0 -160z"/>
<path d="M5160 12900 l0 -160 40 0 40 0 0 160 0 160 -40 0 -40 0 0 -160z"/>
<path d="M22800 12300 l0 -160 40 0 40 0 0 160 0 160 -40 0 -40 0 0 -160z"/>
<path d="M5160 12260 l0 -160 40 0 40 0 0 160 0 160 -40 0 -40 0 0 -160z"/>
<path d="M22800 11660 l0 -160 40 0 40 0 0 160 0 160 -40 0 -40 0 0 -160z"/>
<path d="M5160 11620 l0 -160 40 0 40 0 0 160 0 160 -40 0 -40 0 0 -160z"/>
<path d="M24800 11420 l0 -40 160 0 160 0 0 40 0 40 -160 0 -160 0 0 -40z"/>
<path d="M25440 11420 l0 -40 160 0 160 0 0 40 0 40 -160 0 -160 0 0 -40z"/>
<path d="M26080 11420 l0 -40 160 0 160 0 0 40 0 40 -160 0 -160 0 0 -40z"/>
<path d="M26720 11420 l0 -40 160 0 160 0 0 40 0 40 -160 0 -160 0 0 -40z"/>
<path d="M27360 11420 l0 -40 160 0 160 0 0 40 0 40 -160 0 -160 0 0 -40z"/>
<path d="M28000 11420 l0 -40 160 0 160 0 0 40 0 40 -160 0 -160 0 0 -40z"/>
<path d="M28640 11420 l0 -40 160 0 160 0 0 40 0 40 -160 0 -160 0 0 -40z"/>
<path d="M29280 11420 l0 -40 160 0 160 0 0 40 0 40 -160 0 -160 0 0 -40z"/>
<path d="M29920 11420 l0 -40 160 0 160 0 0 40 0 40 -160 0 -160 0 0 -40z"/>
<path d="M30560 11420 l0 -40 160 0 160 0 0 40 0 40 -160 0 -160 0 0 -40z"/>
<path d="M31200 11420 l0 -40 160 0 160 0 0 40 0 40 -160 0 -160 0 0 -40z"/>
<path d="M31840 11420 l0 -40 160 0 160 0 0 40 0 40 -160 0 -160 0 0 -40z"/>
<path d="M32480 11420 l0 -40 160 0 160 0 0 40 0 40 -160 0 -160 0 0 -40z"/>
<path d="M33120 11420 l0 -40 160 0 160 0 0 40 0 40 -160 0 -160 0 0 -40z"/>
<path d="M33760 11420 l0 -40 160 0 160 0 0 40 0 40 -160 0 -160 0 0 -40z"/>
<path d="M34400 11420 l0 -40 160 0 160 0 0 40 0 40 -160 0 -160 0 0 -40z"/>
<path d="M35040 11420 l0 -40 160 0 160 0 0 40 0 40 -160 0 -160 0 0 -40z"/>
<path d="M35680 11420 l0 -40 160 0 160 0 0 40 0 40 -160 0 -160 0 0 -40z"/>
<path d="M36320 11420 l0 -40 160 0 160 0 0 40 0 40 -160 0 -160 0 0 -40z"/>
<path d="M36960 11420 l0 -40 160 0 160 0 0 40 0 40 -160 0 -160 0 0 -40z"/>
<path d="M37600 11420 l0 -40 160 0 160 0 0 40 0 40 -160 0 -160 0 0 -40z"/>
<path d="M38240 11420 l0 -40 160 0 160 0 0 40 0 40 -160 0 -160 0 0 -40z"/>
<path d="M38880 11420 l0 -40 160 0 160 0 0 40 0 40 -160 0 -160 0 0 -40z"/>
<path d="M39520 11420 l0 -40 160 0 160 0 0 40 0 40 -160 0 -160 0 0 -40z"/>
<path d="M40160 11420 l0 -40 160 0 160 0 0 40 0 40 -160 0 -160 0 0 -40z"/>
<path d="M40800 11420 l0 -40 160 0 160 0 0 40 0 40 -160 0 -160 0 0 -40z"/>
<path d="M41440 11420 l0 -40 160 0 160 0 0 40 0 40 -160 0 -160 0 0 -40z"/>
<path d="M42080 11420 l0 -40 160 0 160 0 0 40 0 40 -160 0 -160 0 0 -40z"/>
<path d="M42720 11420 l0 -40 160 0 160 0 0 40 0 40 -160 0 -160 0 0 -40z"/>
<path d="M43360 11420 l0 -40 160 0 160 0 0 40 0 40 -160 0 -160 0 0 -40z"/>
<path d="M44000 11420 l0 -40 160 0 160 0 0 40 0 40 -160 0 -160 0 0 -40z"/>
<path d="M44640 11420 l0 -40 160 0 160 0 0 40 0 40 -160 0 -160 0 0 -40z"/>
<path d="M45280 11420 l0 -40 160 0 160 0 0 40 0 40 -160 0 -160 0 0 -40z"/>
<path d="M45920 11420 l0 -40 160 0 160 0 0 40 0 40 -160 0 -160 0 0 -40z"/>
<path d="M46560 11420 l0 -40 160 0 160 0 0 40 0 40 -160 0 -160 0 0 -40z"/>
<path d="M47200 11420 l0 -40 160 0 160 0 0 40 0 40 -160 0 -160 0 0 -40z"/>
<path d="M47840 11420 l0 -40 160 0 160 0 0 40 0 40 -160 0 -160 0 0 -40z"/>
<path d="M22800 11020 l0 -160 40 0 40 0 0 160 0 160 -40 0 -40 0 0 -160z"/>
<path d="M24600 11020 l0 -160 40 0 40 0 0 160 0 160 -40 0 -40 0 0 -160z"/>
<path d="M48200 11020 l0 -160 40 0 40 0 0 160 0 160 -40 0 -40 0 0 -160z"/>
<path d="M5160 10980 l0 -160 40 0 40 0 0 160 0 160 -40 0 -40 0 0 -160z"/>
<path d="M33886 10609 c-172 -25 -286 -140 -315 -319 -14 -86 -14 -933 0
-1020 28 -177 140 -292 310 -320 89 -14 4150 -14 4238 1 138 22 247 108 292
231 23 62 23 69 27 558 3 543 0 588 -50 683 -56 105 -151 167 -283 187 -87 12
-4133 12 -4219 -1z m4265 -87 c87 -30 162 -105 191 -191 18 -52 24 -984 8
-1061 -24 -108 -75 -175 -170 -219 l-55 -26 -2125 0 -2125 0 -55 26 c-61 28
-112 74 -137 123 -40 77 -43 114 -43 606 0 492 3 529 43 606 35 67 100 115
187 140 66 18 4228 15 4281 -4z"/>
<path d="M34782 10028 c2 -17 11 -24 31 -26 l27 -3 0 -223 0 -223 -30 -6 c-21
-5 -30 -12 -30 -27 0 -19 6 -20 91 -20 88 0 90 1 87 23 -2 14 -11 23 -25 25
-21 3 -23 9 -23 68 0 57 2 64 20 64 11 0 40 -25 71 -62 45 -54 49 -63 35 -73
-9 -7 -16 -20 -16 -29 0 -13 13 -16 80 -16 73 0 80 2 80 20 0 12 -9 22 -24 26
-20 5 -76 65 -133 144 -10 14 -4 26 37 76 27 32 59 61 72 64 14 4 24 14 26 28
3 21 0 22 -77 22 -74 0 -81 -2 -81 -20 0 -10 6 -23 14 -27 22 -12 -50 -103
-81 -103 -23 0 -23 0 -23 160 l0 160 -66 0 c-62 0 -65 -1 -62 -22z"/>
<path d="M35600 10026 c0 -19 6 -25 28 -28 l27 -3 3 -247 2 -248 25 0 c15 0
26 7 30 20 6 19 7 19 36 -3 41 -30 116 -30 156 -1 61 46 84 128 63 229 -10 47
-21 68 -50 97 -33 34 -43 38 -87 38 -35 0 -58 -6 -76 -20 -14 -11 -28 -20 -31
-20 -3 0 -6 47 -6 105 l0 105 -60 0 c-57 0 -60 -1 -60 -24z m263 -216 c34 -27
50 -80 45 -151 -6 -78 -33 -109 -95 -109 -33 0 -50 6 -68 25 -23 22 -25 32
-25 114 0 87 1 90 31 115 37 31 77 33 112 6z"/>
<path d="M36462 10028 c2 -17 11 -24 31 -26 l27 -3 0 -223 0 -223 -30 -6 c-21
-5 -30 -12 -30 -27 0 -19 6 -20 91 -20 88 0 90 1 87 23 -2 14 -11 23 -25 25
l-23 3 0 250 0 249 -66 0 c-62 0 -65 -1 -62 -22z"/>
<path d="M37120 9925 c0 -43 -1 -45 -30 -45 -25 0 -30 -4 -30 -25 0 -21 5 -25
30 -25 l30 0 0 -112 c1 -187 17 -223 100 -223 56 0 64 5 55 34 -4 15 -15 21
-34 21 -46 0 -51 14 -51 152 l0 128 35 0 c31 0 35 3 35 25 0 22 -4 25 -35 25
-35 0 -35 0 -35 45 0 45 0 45 -35 45 -35 0 -35 0 -35 -45z"/>
<path d="M35180 9855 c0 -18 5 -25 19 -25 17 0 19 -10 22 -122 3 -102 8 -129
24 -158 39 -65 133 -77 189 -25 33 31 36 31 36 0 0 -23 3 -25 50 -25 43 0 50
3 50 19 0 11 -9 23 -20 26 -19 6 -20 15 -20 171 l0 164 -61 0 c-57 0 -60 -1
-57 -22 2 -15 11 -24 26 -26 21 -3 22 -7 22 -122 0 -116 -1 -119 -26 -139 -18
-14 -41 -21 -70 -21 -67 0 -74 16 -74 187 l0 143 -55 0 c-52 0 -55 -1 -55 -25z"/>
<path d="M36180 9873 c-24 -9 -71 -56 -88 -88 -22 -41 -21 -159 1 -201 39 -75
126 -109 210 -84 64 19 79 36 58 69 -7 11 -12 11 -32 -2 -84 -53 -167 -19
-184 77 l-7 36 126 0 126 0 0 31 c0 51 -21 106 -51 135 -24 23 -40 28 -86 31
-32 1 -65 0 -73 -4z m115 -68 c14 -13 25 -36 25 -50 0 -25 0 -25 -90 -25 l-90
0 11 28 c28 72 97 95 144 47z"/>
<path d="M36780 9873 c-24 -9 -71 -56 -88 -88 -22 -41 -21 -159 1 -201 39 -75
126 -109 210 -84 64 19 79 36 58 69 -7 11 -12 11 -32 -2 -84 -53 -167 -19
-184 77 l-7 36 126 0 126 0 0 31 c0 51 -21 106 -51 135 -24 23 -40 28 -86 31
-32 1 -65 0 -73 -4z m115 -68 c14 -13 25 -36 25 -50 0 -25 0 -25 -90 -25 l-90
0 11 28 c28 72 97 95 144 47z"/>
<path d="M41886 10609 c-172 -25 -286 -140 -315 -319 -14 -86 -14 -933 0
-1020 28 -177 140 -292 310 -320 89 -14 4150 -14 4238 1 138 22 247 108 292
231 23 62 23 69 27 558 3 543 0 588 -50 683 -56 105 -151 167 -283 187 -87 12
-4133 12 -4219 -1z m4265 -87 c87 -30 162 -105 191 -191 18 -52 24 -984 8
-1061 -24 -108 -75 -175 -170 -219 l-55 -26 -2125 0 -2125 0 -55 26 c-61 28
-112 74 -137 123 -40 77 -43 114 -43 606 0 492 3 529 43 606 35 67 100 115
187 140 66 18 4228 15 4281 -4z"/>
<path d="M42782 10028 c2 -17 11 -24 31 -26 l27 -3 0 -223 0 -223 -30 -6 c-21
-5 -30 -12 -30 -27 0 -19 6 -20 91 -20 88 0 90 1 87 23 -2 14 -11 23 -25 25
-21 3 -23 9 -23 68 0 57 2 64 20 64 11 0 40 -25 71 -62 45 -54 49 -63 35 -73
-9 -7 -16 -20 -16 -29 0 -13 13 -16 80 -16 73 0 80 2 80 20 0 12 -9 22 -24 26
-20 5 -76 65 -133 144 -10 14 -4 26 37 76 27 32 59 61 72 64 14 4 24 14 26 28
3 21 0 22 -77 22 -74 0 -81 -2 -81 -20 0 -10 6 -23 14 -27 22 -12 -50 -103
-81 -103 -23 0 -23 0 -23 160 l0 160 -66 0 c-62 0 -65 -1 -62 -22z"/>
<path d="M43600 10026 c0 -19 6 -25 28 -28 l27 -3 3 -247 2 -248 25 0 c15 0
26 7 30 20 6 19 7 19 36 -3 41 -30 116 -30 156 -1 61 46 84 128 63 229 -10 47
-21 68 -50 97 -33 34 -43 38 -87 38 -35 0 -58 -6 -76 -20 -14 -11 -28 -20 -31
-20 -3 0 -6 47 -6 105 l0 105 -60 0 c-57 0 -60 -1 -60 -24z m263 -216 c34 -27
50 -80 45 -151 -6 -78 -33 -109 -95 -109 -33 0 -50 6 -68 25 -23 22 -25 32
-25 114 0 87 1 90 31 115 37 31 77 33 112 6z"/>
<path d="M44462 10028 c2 -17 11 -24 31 -26 l27 -3 0 -223 0 -223 -30 -6 c-21
-5 -30 -12 -30 -27 0 -19 6 -20 91 -20 88 0 90 1 87 23 -2 14 -11 23 -25 25
l-23 3 0 250 0 249 -66 0 c-62 0 -65 -1 -62 -22z"/>
<path d="M45120 9925 c0 -43 -1 -45 -30 -45 -25 0 -30 -4 -30 -25 0 -21 5 -25
30 -25 l30 0 0 -112 c1 -187 17 -223 100 -223 56 0 64 5 55 34 -4 15 -15 21
-34 21 -46 0 -51 14 -51 152 l0 128 35 0 c31 0 35 3 35 25 0 22 -4 25 -35 25
-35 0 -35 0 -35 45 0 45 0 45 -35 45 -35 0 -35 0 -35 -45z"/>
<path d="M43180 9855 c0 -18 5 -25 19 -25 17 0 19 -10 22 -122 3 -102 8 -129
24 -158 39 -65 133 -77 189 -25 33 31 36 31 36 0 0 -23 3 -25 50 -25 43 0 50
3 50 19 0 11 -9 23 -20 26 -19 6 -20 15 -20 171 l0 164 -61 0 c-57 0 -60 -1
-57 -22 2 -15 11 -24 26 -26 21 -3 22 -7 22 -122 0 -116 -1 -119 -26 -139 -18
-14 -41 -21 -70 -21 -67 0 -74 16 -74 187 l0 143 -55 0 c-52 0 -55 -1 -55 -25z"/>
<path d="M44180 9873 c-24 -9 -71 -56 -88 -88 -22 -41 -21 -159 1 -201 39 -75
126 -109 210 -84 64 19 79 36 58 69 -7 11 -12 11 -32 -2 -84 -53 -167 -19
-184 77 l-7 36 126 0 126 0 0 31 c0 51 -21 106 -51 135 -24 23 -40 28 -86 31
-32 1 -65 0 -73 -4z m115 -68 c14 -13 25 -36 25 -50 0 -25 0 -25 -90 -25 l-90
0 11 28 c28 72 97 95 144 47z"/>
<path d="M44780 9873 c-24 -9 -71 -56 -88 -88 -22 -41 -21 -159 1 -201 39 -75
126 -109 210 -84 64 19 79 36 58 69 -7 11 -12 11 -32 -2 -84 -53 -167 -19
-184 77 l-7 36 126 0 126 0 0 31 c0 51 -21 106 -51 135 -24 23 -40 28 -86 31
-32 1 -65 0 -73 -4z m115 -68 c14 -13 25 -36 25 -50 0 -25 0 -25 -90 -25 l-90
0 11 28 c28 72 97 95 144 47z"/>
<path d="M24600 10380 l0 -160 40 0 40 0 0 160 0 160 -40 0 -40 0 0 -160z"/>
<path d="M48200 10380 l0 -160 40 0 40 0 0 160 0 160 -40 0 -40 0 0 -160z"/>
<path d="M5160 10340 l0 -160 40 0 40 0 0 160 0 160 -40 0 -40 0 0 -160z"/>
<path d="M22800 9740 l0 -160 40 0 40 0 0 160 0 160 -40 0 -40 0 0 -160z"/>
<path d="M48200 9740 l0 -160 40 0 40 0 0 160 0 160 -40 0 -40 0 0 -160z"/>
<path d="M5160 9700 l0 -160 40 0 40 0 0 160 0 160 -40 0 -40 0 0 -160z"/>
<path d="M22800 9100 l0 -160 40 0 40 0 0 160 0 160 -40 0 -40 0 0 -160z"/>
<path d="M24600 9100 l0 -160 40 0 40 0 0 160 0 160 -40 0 -40 0 0 -160z"/>
<path d="M48200 9100 l0 -160 40 0 40 0 0 160 0 160 -40 0 -40 0 0 -160z"/>
<path d="M5160 9060 l0 -160 40 0 40 0 0 160 0 160 -40 0 -40 0 0 -160z"/>
<path d="M22800 8460 l0 -160 40 0 40 0 0 160 0 160 -40 0 -40 0 0 -160z"/>
<path d="M24600 8460 l0 -160 40 0 40 0 0 160 0 160 -40 0 -40 0 0 -160z"/>
<path d="M48200 8460 l0 -160 40 0 40 0 0 160 0 160 -40 0 -40 0 0 -160z"/>
<path d="M5160 8420 l0 -160 40 0 40 0 0 160 0 160 -40 0 -40 0 0 -160z"/>
<path d="M33886 8409 c-172 -25 -286 -140 -315 -319 -14 -84 -14 -536 0 -620
28 -177 140 -292 310 -320 89 -14 4150 -14 4238 1 139 22 247 108 292 231 21
59 23 81 27 357 4 330 -3 394 -50 484 -56 105 -151 167 -283 187 -87 12 -4133
12 -4219 -1z m4265 -87 c87 -30 162 -105 191 -191 17 -52 23 -588 8 -661 -24
-109 -75 -175 -170 -219 l-55 -26 -2125 0 -2125 0 -55 26 c-61 28 -112 74
-137 123 -37 72 -43 124 -43 406 0 282 6 334 43 406 35 67 100 115 187 140 66
18 4228 15 4281 -4z"/>
<path d="M34102 8028 c2 -17 11 -24 31 -26 l27 -3 0 -223 0 -223 -30 -6 c-21
-5 -30 -12 -30 -27 0 -19 6 -20 91 -20 88 0 90 1 87 23 -2 14 -11 23 -25 25
-21 3 -23 9 -23 68 0 57 2 64 20 64 11 0 40 -25 71 -62 45 -54 49 -63 35 -73
-9 -7 -16 -20 -16 -29 0 -13 13 -16 80 -16 73 0 80 2 80 20 0 12 -9 22 -24 26
-20 5 -76 65 -133 144 -10 14 -4 26 37 76 27 32 59 61 72 64 14 4 24 14 26 28
3 21 0 22 -77 22 -74 0 -81 -2 -81 -20 0 -10 6 -23 14 -27 22 -12 -50 -103
-81 -103 -23 0 -23 0 -23 160 l0 160 -66 0 c-62 0 -65 -1 -62 -22z"/>
<path d="M34960 8026 c0 -19 6 -25 28 -28 l27 -3 3 -247 2 -248 25 0 c15 0 26
7 30 20 6 19 7 19 36 -3 41 -30 116 -30 156 -1 61 46 84 128 63 229 -10 47
-21 68 -50 97 -33 34 -43 38 -87 38 -35 0 -58 -6 -76 -20 -14 -11 -28 -20 -31
-20 -3 0 -6 47 -6 105 l0 105 -60 0 c-57 0 -60 -1 -60 -24z m263 -216 c34 -27
50 -80 45 -151 -6 -78 -33 -109 -95 -109 -33 0 -50 6 -68 25 -23 22 -25 32
-25 114 0 87 1 90 31 115 37 31 77 33 112 6z"/>
<path d="M34540 7855 c0 -18 5 -25 19 -25 17 0 19 -10 22 -122 3 -102 8 -129
24 -158 39 -65 133 -77 189 -25 33 31 36 31 36 0 0 -23 3 -25 50 -25 43 0 50
3 50 19 0 11 -9 23 -20 26 -19 6 -20 15 -20 171 l0 164 -61 0 c-57 0 -60 -1
-57 -22 2 -15 11 -24 26 -26 21 -3 22 -7 22 -122 0 -116 -1 -119 -26 -139 -18
-14 -41 -21 -70 -21 -67 0 -74 16 -74 187 l0 143 -55 0 c-52 0 -55 -1 -55 -25z"/>
<path d="M35500 7873 c-24 -9 -71 -56 -88 -88 -22 -41 -21 -159 1 -201 39 -75
126 -109 210 -84 64 19 79 36 58 69 -7 11 -12 11 -32 -2 -84 -53 -167 -19
-184 77 l-7 36 126 0 126 0 0 31 c0 51 -21 106 -51 135 -24 23 -40 28 -86 31
-32 1 -65 0 -73 -4z m115 -68 c14 -13 25 -36 25 -50 0 -25 0 -25 -90 -25 l-90
0 11 28 c28 72 97 95 144 47z"/>
<path d="M36062 7858 c2 -17 11 -24 31 -26 l27 -3 0 -214 0 -214 -27 -3 c-20
-2 -29 -9 -31 -25 -3 -22 -1 -23 93 -23 94 0 96 1 93 23 -2 16 -11 23 -30 25
-27 3 -28 5 -28 67 l0 63 38 -20 c43 -23 107 -20 148 7 38 24 64 89 64 160 0
79 -15 129 -50 168 -26 30 -33 32 -93 32 -48 0 -70 -5 -84 -17 -25 -23 -33
-23 -33 2 0 18 -7 20 -61 20 -57 0 -60 -1 -57 -22z m259 -38 c50 -27 72 -161
37 -226 -30 -55 -105 -68 -150 -27 -15 13 -18 34 -18 119 0 99 1 103 26 123
29 23 74 27 105 11z"/>
<path d="M36472 7858 c2 -17 11 -24 31 -26 l27 -3 0 -138 0 -138 -30 -6 c-21
-5 -30 -12 -30 -27 0 -19 6 -20 91 -20 88 0 90 1 87 23 -2 14 -11 23 -25 25
-22 3 -23 7 -23 118 0 131 11 154 74 154 26 0 35 5 40 23 9 35 8 37 -29 37
-25 0 -44 -8 -61 -25 -14 -14 -27 -25 -29 -25 -3 0 -5 11 -5 25 0 24 -3 25
-61 25 -57 0 -60 -1 -57 -22z"/>
<path d="M36882 7863 c-70 -34 -106 -148 -78 -246 48 -167 270 -167 316 -1 16
56 8 144 -17 187 -42 72 -142 99 -221 60z m130 -44 c50 -27 66 -169 25 -230
-64 -95 -177 -35 -177 94 0 111 74 178 152 136z"/>
<path d="M37190 7859 c0 -12 8 -23 19 -26 21 -5 124 -129 119 -143 -9 -28
-106 -139 -123 -142 -12 -2 -21 -12 -23 -25 -3 -22 0 -23 72 -23 64 0 76 3 76
16 0 9 -7 22 -15 28 -12 9 -10 17 18 53 17 23 35 42 38 43 3 0 21 -19 39 -41
30 -38 32 -43 17 -54 -10 -7 -17 -20 -17 -29 0 -13 12 -16 75 -16 69 0 75 2
75 20 0 12 -10 24 -23 29 -13 5 -48 39 -77 75 l-52 66 43 56 c24 31 49 61 54
69 6 7 19 14 30 16 12 3 21 14 23 27 3 21 0 22 -72 22 -64 0 -76 -3 -76 -16 0
-9 7 -22 15 -28 13 -9 10 -17 -19 -54 l-34 -42 -35 42 c-29 34 -33 44 -21 51
8 4 14 17 14 27 0 18 -7 20 -70 20 -64 0 -70 -2 -70 -21z"/>
<path d="M37570 7859 c0 -12 8 -23 20 -26 14 -4 32 -39 68 -132 84 -217 80
-196 52 -249 -19 -36 -31 -48 -52 -50 -27 -3 -45 -32 -33 -52 8 -13 48 -13 80
2 38 17 56 54 134 268 46 124 79 200 91 209 11 7 20 22 20 32 0 17 -8 19 -75
19 -69 0 -75 -2 -75 -21 0 -12 8 -23 20 -26 11 -3 20 -8 20 -12 0 -4 -17 -58
-38 -121 l-39 -115 -41 123 c-37 113 -39 122 -21 122 14 0 19 7 19 25 0 24 -2
25 -75 25 -69 0 -75 -2 -75 -21z"/>
<path d="M35820 7715 c0 -25 1 -25 80 -25 79 0 80 0 80 25 0 25 -1 25 -80 25
-79 0 -80 0 -80 -25z"/>
<path d="M41886 8409 c-172 -25 -286 -140 -315 -319 -14 -84 -14 -536 0 -620
28 -177 140 -292 310 -320 89 -14 4150 -14 4238 1 139 22 247 108 292 231 21
59 23 81 27 357 4 330 -3 394 -50 484 -56 105 -151 167 -283 187 -87 12 -4133
12 -4219 -1z m4265 -87 c87 -30 162 -105 191 -191 17 -52 23 -588 8 -661 -24
-109 -75 -175 -170 -219 l-55 -26 -2125 0 -2125 0 -55 26 c-61 28 -112 74
-137 123 -37 72 -43 124 -43 406 0 282 6 334 43 406 35 67 100 115 187 140 66
18 4228 15 4281 -4z"/>
<path d="M42102 8028 c2 -17 11 -24 31 -26 l27 -3 0 -223 0 -223 -30 -6 c-21
-5 -30 -12 -30 -27 0 -19 6 -20 91 -20 88 0 90 1 87 23 -2 14 -11 23 -25 25
-21 3 -23 9 -23 68 0 57 2 64 20 64 11 0 40 -25 71 -62 45 -54 49 -63 35 -73
-9 -7 -16 -20 -16 -29 0 -13 13 -16 80 -16 73 0 80 2 80 20 0 12 -9 22 -24 26
-20 5 -76 65 -133 144 -10 14 -4 26 37 76 27 32 59 61 72 64 14 4 24 14 26 28
3 21 0 22 -77 22 -74 0 -81 -2 -81 -20 0 -10 6 -23 14 -27 22 -12 -50 -103
-81 -103 -23 0 -23 0 -23 160 l0 160 -66 0 c-62 0 -65 -1 -62 -22z"/>
<path d="M42960 8026 c0 -19 6 -25 28 -28 l27 -3 3 -247 2 -248 25 0 c15 0 26
7 30 20 6 19 7 19 36 -3 41 -30 116 -30 156 -1 61 46 84 128 63 229 -10 47
-21 68 -50 97 -33 34 -43 38 -87 38 -35 0 -58 -6 -76 -20 -14 -11 -28 -20 -31
-20 -3 0 -6 47 -6 105 l0 105 -60 0 c-57 0 -60 -1 -60 -24z m263 -216 c34 -27
50 -80 45 -151 -6 -78 -33 -109 -95 -109 -33 0 -50 6 -68 25 -23 22 -25 32
-25 114 0 87 1 90 31 115 37 31 77 33 112 6z"/>
<path d="M42540 7855 c0 -18 5 -25 19 -25 17 0 19 -10 22 -122 3 -102 8 -129
24 -158 39 -65 133 -77 189 -25 33 31 36 31 36 0 0 -23 3 -25 50 -25 43 0 50
3 50 19 0 11 -9 23 -20 26 -19 6 -20 15 -20 171 l0 164 -61 0 c-57 0 -60 -1
-57 -22 2 -15 11 -24 26 -26 21 -3 22 -7 22 -122 0 -116 -1 -119 -26 -139 -18
-14 -41 -21 -70 -21 -67 0 -74 16 -74 187 l0 143 -55 0 c-52 0 -55 -1 -55 -25z"/>
<path d="M43500 7873 c-24 -9 -71 -56 -88 -88 -22 -41 -21 -159 1 -201 39 -75
126 -109 210 -84 64 19 79 36 58 69 -7 11 -12 11 -32 -2 -84 -53 -167 -19
-184 77 l-7 36 126 0 126 0 0 31 c0 51 -21 106 -51 135 -24 23 -40 28 -86 31
-32 1 -65 0 -73 -4z m115 -68 c14 -13 25 -36 25 -50 0 -25 0 -25 -90 -25 l-90
0 11 28 c28 72 97 95 144 47z"/>
<path d="M44062 7858 c2 -17 11 -24 31 -26 l27 -3 0 -214 0 -214 -27 -3 c-20
-2 -29 -9 -31 -25 -3 -22 -1 -23 93 -23 94 0 96 1 93 23 -2 16 -11 23 -30 25
-27 3 -28 5 -28 67 l0 63 38 -20 c43 -23 107 -20 148 7 38 24 64 89 64 160 0
79 -15 129 -50 168 -26 30 -33 32 -93 32 -48 0 -70 -5 -84 -17 -25 -23 -33
-23 -33 2 0 18 -7 20 -61 20 -57 0 -60 -1 -57 -22z m259 -38 c50 -27 72 -161
37 -226 -30 -55 -105 -68 -150 -27 -15 13 -18 34 -18 119 0 99 1 103 26 123
29 23 74 27 105 11z"/>
<path d="M44472 7858 c2 -17 11 -24 31 -26 l27 -3 0 -138 0 -138 -30 -6 c-21
-5 -30 -12 -30 -27 0 -19 6 -20 91 -20 88 0 90 1 87 23 -2 14 -11 23 -25 25
-22 3 -23 7 -23 118 0 131 11 154 74 154 26 0 35 5 40 23 9 35 8 37 -29 37
-25 0 -44 -8 -61 -25 -14 -14 -27 -25 -29 -25 -3 0 -5 11 -5 25 0 24 -3 25
-61 25 -57 0 -60 -1 -57 -22z"/>
<path d="M44882 7863 c-70 -34 -106 -148 -78 -246 48 -167 270 -167 316 -1 16
56 8 144 -17 187 -42 72 -142 99 -221 60z m130 -44 c50 -27 66 -169 25 -230
-64 -95 -177 -35 -177 94 0 111 74 178 152 136z"/>
<path d="M45190 7859 c0 -12 8 -23 19 -26 21 -5 124 -129 119 -143 -9 -28
-106 -139 -123 -142 -12 -2 -21 -12 -23 -25 -3 -22 0 -23 72 -23 64 0 76 3 76
16 0 9 -7 22 -15 28 -12 9 -10 17 18 53 17 23 35 42 38 43 3 0 21 -19 39 -41
30 -38 32 -43 17 -54 -10 -7 -17 -20 -17 -29 0 -13 12 -16 75 -16 69 0 75 2
75 20 0 12 -10 24 -23 29 -13 5 -48 39 -77 75 l-52 66 43 56 c24 31 49 61 54
69 6 7 19 14 30 16 12 3 21 14 23 27 3 21 0 22 -72 22 -64 0 -76 -3 -76 -16 0
-9 7 -22 15 -28 13 -9 10 -17 -19 -54 l-34 -42 -35 42 c-29 34 -33 44 -21 51
8 4 14 17 14 27 0 18 -7 20 -70 20 -64 0 -70 -2 -70 -21z"/>
<path d="M45570 7859 c0 -12 8 -23 20 -26 14 -4 32 -39 68 -132 84 -217 80
-196 52 -249 -19 -36 -31 -48 -52 -50 -27 -3 -45 -32 -33 -52 8 -13 48 -13 80
2 38 17 56 54 134 268 46 124 79 200 91 209 11 7 20 22 20 32 0 17 -8 19 -75
19 -69 0 -75 -2 -75 -21 0 -12 8 -23 20 -26 11 -3 20 -8 20 -12 0 -4 -17 -58
-38 -121 l-39 -115 -41 123 c-37 113 -39 122 -21 122 14 0 19 7 19 25 0 24 -2
25 -75 25 -69 0 -75 -2 -75 -21z"/>
<path d="M43820 7715 c0 -25 1 -25 80 -25 79 0 80 0 80 25 0 25 -1 25 -80 25
-79 0 -80 0 -80 -25z"/>
<path d="M22800 7820 l0 -160 40 0 40 0 0 160 0 160 -40 0 -40 0 0 -160z"/>
<path d="M48200 7820 l0 -160 40 0 40 0 0 160 0 160 -40 0 -40 0 0 -160z"/>
<path d="M5160 7780 l0 -160 40 0 40 0 0 160 0 160 -40 0 -40 0 0 -160z"/>
<path d="M22800 7180 l0 -160 40 0 40 0 0 160 0 160 -40 0 -40 0 0 -160z"/>
<path d="M24600 7180 l0 -160 40 0 40 0 0 160 0 160 -40 0 -40 0 0 -160z"/>
<path d="M48200 7180 l0 -160 40 0 40 0 0 160 0 160 -40 0 -40 0 0 -160z"/>
<path d="M5160 7140 l0 -160 40 0 40 0 0 160 0 160 -40 0 -40 0 0 -160z"/>
<path d="M22800 6540 l0 -160 40 0 40 0 0 160 0 160 -40 0 -40 0 0 -160z"/>
<path d="M24600 6540 l0 -160 40 0 40 0 0 160 0 160 -40 0 -40 0 0 -160z"/>
<path d="M48200 6540 l0 -160 40 0 40 0 0 160 0 160 -40 0 -40 0 0 -160z"/>
<path d="M26090 6662 c-20 -10 -42 -32 -52 -52 -17 -33 -18 -117 -18 -1330 0
-1213 1 -1297 18 -1330 35 -72 22 -71 624 -68 527 3 537 3 565 24 15 11 34 32
40 45 10 19 13 313 13 1330 l0 1306 -23 34 c-13 19 -38 39 -57 46 -25 9 -179
12 -555 12 -476 1 -523 -1 -555 -17z m1088 -1376 c2 -1034 0 -1291 -10 -1298
-15 -9 -1008 -11 -1032 -2 -14 6 -16 129 -16 1293 0 708 3 1291 7 1294 3 4
241 6 527 5 l521 -3 3 -1289z"/>
<path d="M26920 5275 l0 -35 75 0 75 0 0 35 0 35 -75 0 -75 0 0 -35z"/>
<path d="M26601 4889 c-192 -38 -253 -291 -101 -421 98 -85 231 -78 324 15 74
74 91 143 61 243 -36 120 -156 189 -284 163z m155 -129 c85 -84 52 -216 -64
-251 -35 -10 -48 -9 -87 5 -116 45 -129 200 -23 267 52 32 128 22 174 -21z"/>
<path d="M33690 6662 c-20 -10 -42 -32 -52 -52 -17 -33 -18 -117 -18 -1330 0
-1213 1 -1297 18 -1330 35 -72 22 -71 624 -68 527 3 537 3 565 24 15 11 34 32
40 45 10 19 13 313 13 1330 l0 1306 -23 34 c-13 19 -38 39 -57 46 -25 9 -179
12 -555 12 -476 1 -523 -1 -555 -17z m1088 -1376 c2 -1034 0 -1291 -10 -1298
-15 -9 -1008 -11 -1032 -2 -14 6 -16 129 -16 1293 0 708 3 1291 7 1294 3 4
241 6 527 5 l521 -3 3 -1289z"/>
<path d="M34520 5275 l0 -35 75 0 75 0 0 35 0 35 -75 0 -75 0 0 -35z"/>
<path d="M34201 4889 c-192 -38 -253 -291 -101 -421 98 -85 231 -78 324 15 74
74 91 143 61 243 -36 120 -156 189 -284 163z m155 -129 c85 -84 52 -216 -64
-251 -35 -10 -48 -9 -87 5 -116 45 -129 200 -23 267 52 32 128 22 174 -21z"/>
<path d="M41690 6662 c-20 -10 -42 -32 -52 -52 -17 -33 -18 -117 -18 -1330 0
-1213 1 -1297 18 -1330 35 -72 22 -71 624 -68 527 3 537 3 565 24 15 11 34 32
40 45 10 19 13 313 13 1330 l0 1306 -23 34 c-13 19 -38 39 -57 46 -25 9 -179
12 -555 12 -476 1 -523 -1 -555 -17z m1088 -1376 c2 -1034 0 -1291 -10 -1298
-15 -9 -1008 -11 -1032 -2 -14 6 -16 129 -16 1293 0 708 3 1291 7 1294 3 4
241 6 527 5 l521 -3 3 -1289z"/>
<path d="M42520 5275 l0 -35 75 0 75 0 0 35 0 35 -75 0 -75 0 0 -35z"/>
<path d="M42201 4889 c-192 -38 -253 -291 -101 -421 98 -85 231 -78 324 15 74
74 91 143 61 243 -36 120 -156 189 -284 163z m155 -129 c65 -64 64 -154 -2
-216 -45 -43 -98 -52 -157 -26 -109 49 -118 198 -15 263 52 32 128 22 174 -21z"/>
<path d="M5160 6500 l0 -160 40 0 40 0 0 160 0 160 -40 0 -40 0 0 -160z"/>
<path d="M27598 6644 c-61 -33 -58 31 -58 -1179 0 -1221 -4 -1147 64 -1179 30
-14 97 -16 606 -16 l571 0 -3 -47 -3 -48 -207 -5 c-194 -5 -209 -6 -228 -26
-49 -48 -48 -172 0 -224 l28 -30 744 0 c689 0 745 2 764 18 34 27 44 56 44
122 0 68 -17 110 -52 128 -15 8 -90 13 -223 15 l-200 2 0 50 0 50 595 5 c327
3 596 6 598 8 1 1 11 17 22 35 20 31 20 53 20 1139 0 695 -4 1116 -10 1132 -5
14 -24 35 -42 46 -33 20 -51 20 -1518 20 -1294 -1 -1489 -3 -1512 -16z m2980
-1176 l2 -1098 -1470 0 -1470 0 0 1093 c0 602 3 1097 7 1100 3 4 664 6 1467 5
l1461 -3 3 -1097z m-1228 -1243 l0 -44 -52 -3 c-29 -2 -137 -2 -240 0 l-188 3
0 44 0 44 53 3 c28 2 136 2 240 0 l187 -3 0 -44z m475 -200 l0 -40 -710 0
-710 0 -3 28 c-7 61 -57 57 715 55 l708 -3 0 -40z"/>
<path d="M27780 5565 l0 -855 1330 0 1330 0 0 855 0 855 -1330 0 -1330 0 0
-855z"/>
<path d="M35198 6644 c-61 -33 -58 31 -58 -1179 0 -1221 -4 -1147 64 -1179 30
-14 97 -16 606 -16 l571 0 -3 -47 -3 -48 -207 -5 c-194 -5 -209 -6 -228 -26
-49 -48 -48 -172 0 -224 l28 -30 744 0 c689 0 745 2 764 18 34 27 44 56 44
122 0 68 -17 110 -52 128 -15 8 -90 13 -223 15 l-200 2 0 50 0 50 595 5 c327
3 596 6 598 8 1 1 11 17 22 35 20 31 20 53 20 1139 0 695 -4 1116 -10 1132 -5
14 -24 35 -42 46 -33 20 -51 20 -1518 20 -1294 -1 -1489 -3 -1512 -16z m2980
-1176 l2 -1098 -1470 0 -1470 0 0 1093 c0 602 3 1097 7 1100 3 4 664 6 1467 5
l1461 -3 3 -1097z m-1228 -1243 l0 -44 -52 -3 c-29 -2 -137 -2 -240 0 l-188 3
0 44 0 44 53 3 c28 2 136 2 240 0 l187 -3 0 -44z m475 -200 l0 -40 -710 0
-710 0 -3 28 c-7 61 -57 57 715 55 l708 -3 0 -40z"/>
<path d="M35380 5565 l0 -855 1330 0 1330 0 0 855 0 855 -1330 0 -1330 0 0
-855z"/>
<path d="M43198 6644 c-61 -33 -58 31 -58 -1179 0 -1221 -4 -1147 64 -1179 30
-14 97 -16 606 -16 l571 0 -3 -47 -3 -48 -207 -5 c-194 -5 -209 -6 -228 -26
-49 -48 -48 -172 0 -224 l28 -30 744 0 c689 0 745 2 764 18 34 27 44 56 44
122 0 68 -17 110 -52 128 -15 8 -90 13 -223 15 l-200 2 0 50 0 50 595 5 c327
3 596 6 598 8 1 1 11 17 22 35 20 31 20 53 20 1139 0 695 -4 1116 -10 1132 -5
14 -24 35 -42 46 -33 20 -51 20 -1518 20 -1294 -1 -1489 -3 -1512 -16z m2980
-1176 l2 -1098 -1470 0 -1470 0 0 1093 c0 602 3 1097 7 1100 3 4 664 6 1467 5
l1461 -3 3 -1097z m-1228 -1243 l0 -44 -52 -3 c-29 -2 -137 -2 -240 0 l-188 3
0 44 0 44 53 3 c28 2 136 2 240 0 l187 -3 0 -44z m475 -200 l0 -40 -710 0
-710 0 -3 28 c-7 61 -57 57 715 55 l708 -3 0 -40z"/>
<path d="M43380 5565 l0 -855 1330 0 1330 0 0 855 0 855 -1330 0 -1330 0 0
-855z"/>
<path d="M22800 5900 l0 -160 40 0 40 0 0 160 0 160 -40 0 -40 0 0 -160z"/>
<path d="M24600 5900 l0 -160 40 0 40 0 0 160 0 160 -40 0 -40 0 0 -160z"/>
<path d="M48200 5900 l0 -160 40 0 40 0 0 160 0 160 -40 0 -40 0 0 -160z"/>
<path d="M5160 5860 l0 -160 40 0 40 0 0 160 0 160 -40 0 -40 0 0 -160z"/>
<path d="M22800 5260 l0 -160 40 0 40 0 0 160 0 160 -40 0 -40 0 0 -160z"/>
<path d="M24600 5260 l0 -160 40 0 40 0 0 160 0 160 -40 0 -40 0 0 -160z"/>
<path d="M48200 5260 l0 -160 40 0 40 0 0 160 0 160 -40 0 -40 0 0 -160z"/>
<path d="M5160 5220 l0 -160 40 0 40 0 0 160 0 160 -40 0 -40 0 0 -160z"/>
<path d="M22800 4620 l0 -160 40 0 40 0 0 160 0 160 -40 0 -40 0 0 -160z"/>
<path d="M24600 4620 l0 -160 40 0 40 0 0 160 0 160 -40 0 -40 0 0 -160z"/>
<path d="M48200 4620 l0 -160 40 0 40 0 0 160 0 160 -40 0 -40 0 0 -160z"/>
<path d="M5160 4580 l0 -160 40 0 40 0 0 160 0 160 -40 0 -40 0 0 -160z"/>
<path d="M22800 3980 l0 -160 40 0 40 0 0 160 0 160 -40 0 -40 0 0 -160z"/>
<path d="M24600 3980 l0 -160 40 0 40 0 0 160 0 160 -40 0 -40 0 0 -160z"/>
<path d="M48200 3980 l0 -160 40 0 40 0 0 160 0 160 -40 0 -40 0 0 -160z"/>
<path d="M5160 3940 l0 -160 40 0 40 0 0 160 0 160 -40 0 -40 0 0 -160z"/>
<path d="M22800 3340 l0 -160 40 0 40 0 0 160 0 160 -40 0 -40 0 0 -160z"/>
<path d="M24600 3340 l0 -160 40 0 40 0 0 160 0 160 -40 0 -40 0 0 -160z"/>
<path d="M48200 3340 l0 -160 40 0 40 0 0 160 0 160 -40 0 -40 0 0 -160z"/>
<path d="M5160 3300 l0 -160 40 0 40 0 0 160 0 160 -40 0 -40 0 0 -160z"/>
<path d="M34748 3262 c-53 -15 -58 -19 -58 -44 0 -23 4 -28 25 -28 l25 0 0
-185 0 -185 28 0 c15 0 33 5 39 11 9 9 21 7 49 -6 65 -31 133 -4 170 67 18 35
18 141 0 176 -33 63 -98 87 -157 58 -17 -9 -34 -16 -36 -16 -1 0 -3 38 -3 85
0 95 5 91 -82 67z m176 -218 c21 -21 21 -112 0 -142 -18 -26 -56 -29 -78 -6
-24 23 -22 139 2 153 25 15 58 13 76 -5z"/>
<path d="M38883 3262 c-48 -13 -53 -18 -53 -43 0 -22 5 -29 20 -29 16 0 20 -7
20 -34 l0 -34 -34 10 c-80 25 -155 -23 -176 -111 -34 -141 80 -257 188 -191
l32 20 0 -22 c0 -19 4 -20 46 -14 26 3 55 6 65 6 14 0 19 7 19 30 0 23 -4 30
-20 30 -19 0 -20 7 -20 200 0 226 8 210 -87 182z m-25 -204 c7 -7 12 -40 12
-80 0 -56 -3 -69 -19 -78 -54 -29 -95 6 -95 80 0 34 6 56 19 70 20 22 64 27
83 8z"/>
<path d="M33790 3231 c0 -23 5 -30 23 -33 22 -3 22 -5 22 -158 0 -153 0 -155
-22 -158 -18 -3 -23 -10 -23 -33 l0 -29 100 0 100 0 0 29 c0 23 -5 30 -22 33
-18 2 -24 10 -26 38 -2 29 3 41 31 68 l34 33 47 -65 c25 -35 46 -67 46 -70 0
-3 -9 -6 -20 -6 -16 0 -20 -7 -20 -30 l0 -30 105 0 105 0 0 30 c0 23 -5 30
-19 30 -13 0 -43 32 -90 98 -39 53 -71 101 -71 105 -1 14 124 117 142 117 13
0 18 8 18 30 l0 30 -95 0 -95 0 0 -30 c0 -20 5 -30 15 -30 8 0 15 -3 15 -8 0
-10 -133 -142 -143 -142 -4 0 -7 33 -5 73 3 66 5 72 26 75 17 3 22 10 22 33
l0 29 -100 0 -100 0 0 -29z"/>
<path d="M37780 3231 c0 -23 5 -30 23 -33 22 -3 22 -5 22 -158 0 -153 0 -155
-22 -158 -18 -3 -23 -10 -23 -33 l0 -29 85 0 85 0 0 30 c0 23 -4 30 -20 30
-11 0 -23 6 -26 13 -2 7 -3 67 -2 133 l3 119 79 -162 79 -163 43 0 44 0 2 188
c3 185 3 187 26 190 17 3 22 10 22 33 l0 29 -85 0 -85 0 0 -29 c0 -23 5 -30
23 -33 21 -3 22 -8 24 -103 l2 -100 -66 133 -66 132 -84 0 -83 0 0 -29z"/>
<path d="M36644 3223 c-14 -42 -30 -66 -56 -79 -21 -11 -28 -22 -28 -44 0 -25
4 -30 25 -30 25 0 25 0 25 -96 0 -52 5 -104 10 -115 24 -43 102 -61 169 -38
27 9 31 16 31 45 0 31 -2 34 -19 24 -29 -15 -67 -12 -85 6 -12 11 -16 36 -16
95 l0 79 50 0 c49 0 50 1 50 30 0 29 -1 30 -50 30 l-50 0 0 55 c0 52 -1 55
-25 55 -16 0 -28 -7 -31 -17z"/>
<path d="M35200 3129 c-115 -46 -136 -208 -36 -284 67 -51 168 -41 230 23 26
28 26 29 7 46 -18 16 -21 16 -57 -3 -62 -34 -105 -25 -132 26 -22 40 -16 43
93 43 l105 0 0 28 c0 37 -33 88 -72 112 -35 21 -97 25 -138 9z m104 -61 c24
-34 20 -38 -39 -38 -59 0 -68 10 -38 42 22 25 59 23 77 -4z"/>
<path d="M35545 3130 c-11 -5 -32 -11 -47 -14 -23 -5 -28 -12 -28 -36 0 -25 4
-30 25 -30 24 0 25 -2 25 -69 0 -82 -6 -101 -31 -101 -14 0 -19 -7 -19 -30 l0
-30 95 0 95 0 0 30 c0 25 -4 30 -25 30 -26 0 -26 0 -23 78 l3 77 48 0 c50 0
67 12 67 51 0 24 -29 54 -53 54 -8 0 -29 -12 -46 -26 l-31 -26 0 26 c0 28 -17
33 -55 16z"/>
<path d="M35813 3122 c-48 -13 -53 -18 -53 -43 0 -24 4 -29 25 -29 25 0 25 -1
25 -85 0 -84 0 -85 -25 -85 -21 0 -25 -5 -25 -30 l0 -30 90 0 90 0 0 29 c0 20
-6 30 -20 34 -18 5 -20 14 -20 76 0 69 1 71 31 86 17 9 40 15 52 13 20 -3 22
-9 25 -90 2 -74 0 -88 -13 -88 -10 0 -15 -10 -15 -30 l0 -30 85 0 85 0 0 29
c0 23 -5 30 -22 33 -22 3 -23 8 -25 93 -4 118 -8 132 -43 150 -39 20 -73 19
-120 -5 -22 -11 -42 -20 -45 -20 -3 0 -5 9 -5 20 0 23 -6 23 -77 2z"/>
<path d="M36300 3129 c-115 -46 -136 -208 -36 -284 67 -51 168 -41 230 23 26
28 26 29 7 46 -18 16 -21 16 -57 -3 -62 -34 -105 -25 -132 26 -22 40 -16 43
93 43 l105 0 0 28 c0 37 -33 88 -72 112 -35 21 -97 25 -138 9z m104 -61 c24
-34 20 -38 -39 -38 -59 0 -68 10 -38 42 22 25 59 23 77 -4z"/>
<path d="M36960 3129 c-115 -46 -136 -208 -36 -284 67 -51 168 -41 230 23 26
28 26 29 7 46 -18 16 -21 16 -57 -3 -62 -34 -105 -25 -132 26 -22 40 -16 43
93 43 l105 0 0 28 c0 37 -33 88 -72 112 -35 21 -97 25 -138 9z m104 -61 c24
-34 20 -38 -39 -38 -59 0 -68 10 -38 42 22 25 59 23 77 -4z"/>
<path d="M37283 3121 c-92 -58 -61 -135 75 -186 44 -16 72 -32 72 -41 0 -37
-83 -28 -128 14 -24 23 -35 26 -53 20 -32 -12 -32 -10 -10 -62 15 -33 26 -46
41 -46 11 0 20 5 20 10 0 6 13 4 30 -5 99 -51 211 32 174 130 -8 19 -58 45
-131 69 -40 13 -53 22 -53 37 0 14 7 19 28 19 29 0 92 -34 92 -49 0 -6 11 -6
29 0 29 10 29 11 17 52 -11 38 -15 42 -46 44 -19 1 -55 4 -80 8 -35 5 -52 2
-77 -14z"/>
<path d="M38340 3118 c-61 -31 -90 -77 -90 -143 0 -93 61 -156 157 -163 110
-7 183 58 183 163 0 67 -26 114 -80 142 -55 29 -113 29 -170 1z m129 -74 c45
-58 14 -164 -48 -164 -43 0 -66 33 -66 95 0 38 5 59 19 74 27 30 70 27 95 -5z"/>
<path d="M39160 3129 c-115 -46 -136 -208 -36 -284 67 -51 168 -41 230 23 26
28 26 29 7 46 -18 16 -21 16 -57 -3 -62 -34 -105 -25 -132 26 -22 40 -16 43
93 43 l105 0 0 28 c0 37 -33 88 -72 112 -35 21 -97 25 -138 9z m104 -61 c24
-34 20 -38 -39 -38 -59 0 -68 10 -38 42 22 25 59 23 77 -4z"/>
<path d="M39483 3121 c-92 -58 -61 -135 75 -186 44 -16 72 -32 72 -41 0 -37
-83 -28 -128 14 -24 23 -35 26 -53 20 -32 -12 -32 -10 -10 -62 15 -33 26 -46
41 -46 11 0 20 5 20 10 0 6 13 4 30 -5 99 -51 211 32 174 130 -8 19 -58 45
-131 69 -40 13 -53 22 -53 37 0 14 7 19 28 19 29 0 92 -34 92 -49 0 -6 11 -6
29 0 29 10 29 11 17 52 -11 38 -15 42 -46 44 -19 1 -55 4 -80 8 -35 5 -52 2
-77 -14z"/>
<path d="M34290 3101 c0 -23 5 -30 23 -33 21 -3 22 -8 24 -93 4 -118 8 -132
43 -150 39 -20 73 -19 120 5 34 17 40 18 40 5 0 -12 14 -15 65 -15 l65 0 0 30
c0 23 -4 30 -20 30 -19 0 -20 7 -20 125 l0 125 -70 0 -70 0 0 -30 c0 -23 4
-30 20 -30 18 0 20 -7 20 -79 0 -77 0 -79 -29 -91 -61 -25 -66 -17 -69 113
l-3 117 -69 0 -70 0 0 -29z"/>
<path d="M22800 2700 l0 -160 40 0 40 0 0 160 0 160 -40 0 -40 0 0 -160z"/>
<path d="M24600 2700 l0 -160 40 0 40 0 0 160 0 160 -40 0 -40 0 0 -160z"/>
<path d="M48200 2700 l0 -160 40 0 40 0 0 160 0 160 -40 0 -40 0 0 -160z"/>
<path d="M5160 2660 l0 -160 40 0 40 0 0 160 0 160 -40 0 -40 0 0 -160z"/>
<path d="M36257 2263 c-14 -14 -6 -53 13 -63 12 -7 95 -9 227 -8 l208 3 3 24
c7 46 -14 51 -238 51 -114 0 -210 -3 -213 -7z"/>
<path d="M37077 2263 c-14 -14 -6 -53 13 -63 12 -6 83 -9 187 -8 l168 3 0 30
c0 23 -6 31 -25 36 -32 9 -335 11 -343 2z"/>
<path d="M37627 2263 c-14 -14 -6 -53 13 -63 12 -6 83 -9 187 -8 l168 3 0 30
c0 23 -6 31 -25 36 -32 9 -335 11 -343 2z"/>
<path d="M24800 2220 l0 -40 160 0 160 0 0 40 0 40 -160 0 -160 0 0 -40z"/>
<path d="M25440 2220 l0 -40 160 0 160 0 0 40 0 40 -160 0 -160 0 0 -40z"/>
<path d="M26080 2220 l0 -40 160 0 160 0 0 40 0 40 -160 0 -160 0 0 -40z"/>
<path d="M26720 2220 l0 -40 160 0 160 0 0 40 0 40 -160 0 -160 0 0 -40z"/>
<path d="M27360 2220 l0 -40 160 0 160 0 0 40 0 40 -160 0 -160 0 0 -40z"/>
<path d="M28000 2220 l0 -40 160 0 160 0 0 40 0 40 -160 0 -160 0 0 -40z"/>
<path d="M28640 2220 l0 -40 160 0 160 0 0 40 0 40 -160 0 -160 0 0 -40z"/>
<path d="M29280 2220 l0 -40 160 0 160 0 0 40 0 40 -160 0 -160 0 0 -40z"/>
<path d="M29920 2220 l0 -40 160 0 160 0 0 40 0 40 -160 0 -160 0 0 -40z"/>
<path d="M30560 2220 l0 -40 160 0 160 0 0 40 0 40 -160 0 -160 0 0 -40z"/>
<path d="M31200 2220 l0 -40 160 0 160 0 0 40 0 40 -160 0 -160 0 0 -40z"/>
<path d="M31840 2220 l0 -40 160 0 160 0 0 40 0 40 -160 0 -160 0 0 -40z"/>
<path d="M32480 2220 l0 -40 160 0 160 0 0 40 0 40 -160 0 -160 0 0 -40z"/>
<path d="M33120 2220 l0 -40 160 0 160 0 0 40 0 40 -160 0 -160 0 0 -40z"/>
<path d="M33760 2220 l0 -40 160 0 160 0 0 40 0 40 -160 0 -160 0 0 -40z"/>
<path d="M34400 2220 l0 -40 160 0 160 0 0 40 0 40 -160 0 -160 0 0 -40z"/>
<path d="M35040 2220 l0 -40 115 0 115 0 0 28 c0 46 -15 52 -127 52 l-103 0 0
-40z"/>
<path d="M35486 2247 c-11 -8 -17 -23 -14 -38 l3 -24 213 -3 212 -2 0 40 0 40
-198 0 c-147 0 -203 -3 -216 -13z"/>
<path d="M38240 2220 l0 -40 160 0 160 0 0 40 0 40 -160 0 -160 0 0 -40z"/>
<path d="M38880 2220 l0 -40 160 0 160 0 0 40 0 40 -160 0 -160 0 0 -40z"/>
<path d="M39520 2220 l0 -40 160 0 160 0 0 40 0 40 -160 0 -160 0 0 -40z"/>
<path d="M40160 2220 l0 -40 160 0 160 0 0 40 0 40 -160 0 -160 0 0 -40z"/>
<path d="M40800 2220 l0 -40 160 0 160 0 0 40 0 40 -160 0 -160 0 0 -40z"/>
<path d="M41440 2220 l0 -40 160 0 160 0 0 40 0 40 -160 0 -160 0 0 -40z"/>
<path d="M42080 2220 l0 -40 160 0 160 0 0 40 0 40 -160 0 -160 0 0 -40z"/>
<path d="M42720 2220 l0 -40 160 0 160 0 0 40 0 40 -160 0 -160 0 0 -40z"/>
<path d="M43360 2220 l0 -40 160 0 160 0 0 40 0 40 -160 0 -160 0 0 -40z"/>
<path d="M44000 2220 l0 -40 160 0 160 0 0 40 0 40 -160 0 -160 0 0 -40z"/>
<path d="M44640 2220 l0 -40 160 0 160 0 0 40 0 40 -160 0 -160 0 0 -40z"/>
<path d="M45280 2220 l0 -40 160 0 160 0 0 40 0 40 -160 0 -160 0 0 -40z"/>
<path d="M45920 2220 l0 -40 160 0 160 0 0 40 0 40 -160 0 -160 0 0 -40z"/>
<path d="M46560 2220 l0 -40 160 0 160 0 0 40 0 40 -160 0 -160 0 0 -40z"/>
<path d="M47200 2220 l0 -40 160 0 160 0 0 40 0 40 -160 0 -160 0 0 -40z"/>
<path d="M47840 2220 l0 -40 160 0 160 0 0 40 0 40 -160 0 -160 0 0 -40z"/>
<path d="M22800 2060 l0 -160 40 0 40 0 0 160 0 160 -40 0 -40 0 0 -160z"/>
<path d="M24600 2200 c0 -17 7 -20 40 -20 33 0 40 3 40 20 0 17 -7 20 -40 20
-33 0 -40 -3 -40 -20z"/>
<path d="M5160 2020 l0 -160 40 0 40 0 0 160 0 160 -40 0 -40 0 0 -160z"/>
<path d="M22800 1420 l0 -160 40 0 40 0 0 160 0 160 -40 0 -40 0 0 -160z"/>
<path d="M5160 1380 l0 -160 40 0 40 0 0 160 0 160 -40 0 -40 0 0 -160z"/>
<path d="M5240 1140 l0 -40 160 0 160 0 0 40 0 40 -160 0 -160 0 0 -40z"/>
<path d="M5880 1140 l0 -40 160 0 160 0 0 40 0 40 -160 0 -160 0 0 -40z"/>
<path d="M6520 1140 l0 -40 160 0 160 0 0 40 0 40 -160 0 -160 0 0 -40z"/>
<path d="M7160 1140 l0 -40 160 0 160 0 0 40 0 40 -160 0 -160 0 0 -40z"/>
<path d="M7800 1140 l0 -40 160 0 160 0 0 40 0 40 -160 0 -160 0 0 -40z"/>
<path d="M8440 1140 l0 -40 160 0 160 0 0 40 0 40 -160 0 -160 0 0 -40z"/>
<path d="M9080 1140 l0 -40 160 0 160 0 0 40 0 40 -160 0 -160 0 0 -40z"/>
<path d="M9720 1140 l0 -40 160 0 160 0 0 40 0 40 -160 0 -160 0 0 -40z"/>
<path d="M10360 1140 l0 -40 160 0 160 0 0 40 0 40 -160 0 -160 0 0 -40z"/>
<path d="M11000 1140 l0 -40 160 0 160 0 0 40 0 40 -160 0 -160 0 0 -40z"/>
<path d="M11640 1140 l0 -40 160 0 160 0 0 40 0 40 -160 0 -160 0 0 -40z"/>
<path d="M12280 1140 l0 -40 160 0 160 0 0 40 0 40 -160 0 -160 0 0 -40z"/>
<path d="M12920 1140 l0 -40 160 0 160 0 0 40 0 40 -160 0 -160 0 0 -40z"/>
<path d="M13560 1140 l0 -40 160 0 160 0 0 40 0 40 -160 0 -160 0 0 -40z"/>
<path d="M14200 1140 l0 -40 160 0 160 0 0 40 0 40 -160 0 -160 0 0 -40z"/>
<path d="M14840 1140 l0 -40 160 0 160 0 0 40 0 40 -160 0 -160 0 0 -40z"/>
<path d="M15480 1140 l0 -40 160 0 160 0 0 40 0 40 -160 0 -160 0 0 -40z"/>
<path d="M16120 1140 l0 -40 160 0 160 0 0 40 0 40 -160 0 -160 0 0 -40z"/>
<path d="M16760 1140 l0 -40 160 0 160 0 0 40 0 40 -160 0 -160 0 0 -40z"/>
<path d="M17400 1140 l0 -40 160 0 160 0 0 40 0 40 -160 0 -160 0 0 -40z"/>
<path d="M18040 1140 l0 -40 160 0 160 0 0 40 0 40 -160 0 -160 0 0 -40z"/>
<path d="M18680 1140 l0 -40 160 0 160 0 0 40 0 40 -160 0 -160 0 0 -40z"/>
<path d="M19320 1140 l0 -40 160 0 160 0 0 40 0 40 -160 0 -160 0 0 -40z"/>
<path d="M19960 1140 l0 -40 160 0 160 0 0 40 0 40 -160 0 -160 0 0 -40z"/>
<path d="M20600 1140 l0 -40 160 0 160 0 0 40 0 40 -160 0 -160 0 0 -40z"/>
<path d="M21240 1140 l0 -40 160 0 160 0 0 40 0 40 -160 0 -160 0 0 -40z"/>
<path d="M21880 1140 l0 -40 160 0 160 0 0 40 0 40 -160 0 -160 0 0 -40z"/>
<path d="M22520 1140 l0 -40 120 0 120 0 0 40 0 40 -120 0 -120 0 0 -40z"/>
</g>
</svg>
