<svg xmlns="http://www.w3.org/2000/svg" xmlns:xlink="http://www.w3.org/1999/xlink" width="257pt" height="480" viewBox="0 0 257.33 360"><g id="graph0" class="graph" transform="scale(0.649819 0.649819) rotate(0) translate(4 550)"><title>tagged_release</title><polygon fill="#fff" stroke="none" points="-4 4 -4 -550 392 -550 392 4 -4 4"/><g id="node1" class="node"><title>ci012abc</title><ellipse cx="56" cy="-115" fill="#ffc" stroke="#000" rx="42.793" ry="42.793"/><text x="56" y="-111.3" font-family="Consolas, Liberation Mono, Menlo, Courier, monospace" font-size="14" text-anchor="middle">012abc</text></g><g id="node2" class="node"><title>pr101</title><polygon fill="#ccf" stroke="#000" points="112 -255 0 -255 0 -219 112 -219 112 -255"/><text x="56" y="-233.3" font-family="Helvetica Neue, Helvetica, Segoe UI, Arial, freesans, sans-serif" font-size="14" text-anchor="middle">Merge PR #101</text></g><g id="edge1" class="edge"><title>ci012abc-&gt;pr101</title><path fill="none" stroke="#000" d="M56,-157.97C56,-174.83 56,-193.784 56,-208.789"/><polygon fill="#000" stroke="#000" points="52.5 -208.93 56 -218.93 59.5 -208.93 52.5 -208.93"/></g><g id="node3" class="node"><title>ci345cde</title><ellipse cx="62" cy="-359" fill="#ffc" stroke="#000" rx="42.793" ry="42.793"/><text x="62" y="-355.3" font-family="Consolas, Liberation Mono, Menlo, Courier, monospace" font-size="14" text-anchor="middle">345cde</text></g><g id="edge2" class="edge"><title>pr101-&gt;ci345cde</title><path fill="none" stroke="#000" d="M56.8597,-255.193C57.5237,-268.473 58.4796,-287.592 59.3874,-305.748"/><polygon fill="#000" stroke="#000" points="55.904 -306.17 59.899 -315.982 62.895 -305.82 55.904 -306.17"/></g><g id="node4" class="node"><title>pr102</title><polygon fill="#ccf" stroke="#000" points="129 -474 17 -474 17 -438 129 -438 129 -474"/><text x="73" y="-452.3" font-family="Helvetica Neue, Helvetica, Segoe UI, Arial, freesans, sans-serif" font-size="14" text-anchor="middle">Merge PR #102</text></g><g id="edge3" class="edge"><title>ci345cde-&gt;pr102</title><path fill="none" stroke="#000" d="M66.8248,-401.668C67.8523,-410.542 68.9117,-419.692 69.8567,-427.853"/><polygon fill="#000" stroke="#000" points="66.394 -428.375 71.021 -437.906 73.347 -427.57 66.394 -428.375"/></g><g id="node10" class="node"><title>pr100</title><polygon fill="#ccf" stroke="#000" points="174 -546 62 -546 62 -510 174 -510 174 -546"/><text x="118" y="-524.3" font-family="Helvetica Neue, Helvetica, Segoe UI, Arial, freesans, sans-serif" font-size="14" text-anchor="middle">Merge PR #100</text></g><g id="edge6" class="edge"><title>pr102-&gt;pr100</title><path fill="none" stroke="#000" d="M84.1236,-474.303C89.355,-482.441 95.6999,-492.311 101.478,-501.299"/><polygon fill="#000" stroke="#000" points="98.653 -503.377 107.004 -509.896 104.541 -499.591 98.653 -503.377"/></g><g id="node5" class="node"><title>version_commit</title><ellipse cx="173" cy="-237" fill="#cfc" stroke="#000" rx="42.793" ry="42.793"/><text x="173" y="-233.3" font-family="Consolas, Liberation Mono, Menlo, Courier, monospace" font-size="14" text-anchor="middle">678fed</text></g><g id="node6" class="node"><title>dev_commit</title><ellipse cx="169" cy="-359" fill="#ffc" stroke="#000" rx="42.793" ry="42.793"/><text x="169" y="-355.3" font-family="Consolas, Liberation Mono, Menlo, Courier, monospace" font-size="14" text-anchor="middle">456dcb</text></g><g id="edge4" class="edge"><title>version_commit-&gt;dev_commit</title><path fill="none" stroke="#000" d="M171.601,-279.97C171.322,-288.326 171.027,-297.195 170.739,-305.844"/><polygon fill="#000" stroke="#000" points="167.24 -305.74 170.405 -315.851 174.236 -305.973 167.24 -305.74"/></g><g id="edge8" class="edge"><title>dev_commit-&gt;pr100</title><path fill="none" stroke="#000" d="M158.36,-400.568C152.438,-422.433 144.719,-449.815 137,-474 134.253,-482.606 131.013,-491.906 127.994,-500.278"/><polygon fill="#000" stroke="#000" points="124.616 -499.325 124.47 -509.919 131.191 -501.729 124.616 -499.325"/></g><g id="node7" class="node"><title>release_info</title><text x="304" y="-240.8" font-family="Helvetica Neue, Helvetica, Segoe UI, Arial, freesans, sans-serif" font-size="14" text-anchor="middle">pkg/version/base.go:</text><text x="304" y="-225.8" font-family="Helvetica Neue, Helvetica, Segoe UI, Arial, freesans, sans-serif" font-size="14" text-anchor="middle">gitVersion = &quot;v0.5&quot;;</text></g><g id="node8" class="node"><title>dev_info</title><text x="309" y="-362.8" font-family="Helvetica Neue, Helvetica, Segoe UI, Arial, freesans, sans-serif" font-size="14" text-anchor="middle">pkg/version/base.go:</text><text x="309" y="-347.8" font-family="Helvetica Neue, Helvetica, Segoe UI, Arial, freesans, sans-serif" font-size="14" text-anchor="middle">gitVersion = &quot;v0.5-dev&quot;;</text></g><g id="node9" class="node"><title>pr99</title><polygon fill="#ccf" stroke="#000" points="143 -36 39 -36 39 0 143 0 143 -36"/><text x="91" y="-14.3" font-family="Helvetica Neue, Helvetica, Segoe UI, Arial, freesans, sans-serif" font-size="14" text-anchor="middle">Merge PR #99</text></g><g id="edge5" class="edge"><title>pr99-&gt;ci012abc</title><path fill="none" stroke="#000" d="M84.5805,-36.4245C81.5586,-44.6267 77.7879,-54.8615 73.9865,-65.1795"/><polygon fill="#000" stroke="#000" points="70.68 -64.029 70.507 -74.623 77.249 -66.449 70.68 -64.029"/></g><g id="edge7" class="edge"><title>pr99-&gt;version_commit</title><path fill="none" stroke="#000" d="M97.4344,-36.0276C109.585,-68.1826 136.317,-138.924 154.498,-187.038"/><polygon fill="#000" stroke="#000" points="151.318 -188.523 158.127 -196.64 157.866 -186.048 151.318 -188.523"/></g><g id="node11" class="node"><title>tag</title><ellipse cx="226" cy="-115" fill="#fcc" stroke="#000" rx="71.487" ry="18"/><text x="226" y="-111.3" font-family="Helvetica Neue, Helvetica, Segoe UI, Arial, freesans, sans-serif" font-size="14" text-anchor="middle">$ git tag -a v0.5</text></g><g id="edge9" class="edge"><title>tag-&gt;version_commit</title><path fill="none" stroke="#000" d="M218.519,-132.939C212.168,-147.318 202.736,-168.673 194.103,-188.22"/><polygon fill="#000" stroke="#000" points="190.784 -187.071 189.946 -197.632 197.188 -189.899 190.784 -187.071"/></g></g></svg>