<?xml version="1.0" encoding="UTF-8" standalone="no"?>
<!-- Created with Inkscape (http://www.inkscape.org/) -->
<svg
   xmlns:svg="http://www.w3.org/2000/svg"
   xmlns="http://www.w3.org/2000/svg"
   version="1.0"
   width="744.09448"
   height="376.29919"
   id="svg10140">
  <defs
     id="defs10142">
  
  
 
   
   
   
   
   
   
   
   
   
   
   
   
   
   
  </defs>
  <g
     transform="translate(650.82884,-1033.3783)"
     id="layer1">
    <g
       transform="translate(17.716537,17.730397)"
       id="g2642">
      <path
         d="M -333.74409,1168.9225 C -333.74409,1161.9343 -339.14956,1154.2869 -346.13729,1154.2869 L -294.32268,1154.2869 C -301.31041,1154.2869 -306.71607,1161.9343 -306.71607,1168.9225 L -306.71607,1297.3469 C -306.71607,1304.4667 -301.31041,1311.9823 -294.32268,1311.9823 L -346.13729,1311.9823 C -339.14956,1311.9823 -333.74409,1304.4667 -333.74409,1297.3469 L -333.74409,1168.9225"
         style="font-size:3.15269995px;letter-spacing:-0.063054;word-spacing:0;fill:#ec1d24;fill-rule:nonzero;stroke:none;stroke-width:0.058;stroke-linecap:butt;stroke-linejoin:miter;stroke-miterlimit:4;stroke-dasharray:none;font-family:fnt0, &quot;Futura&quot;, Arial"
         id="path7598" />
      <path
         d="M -611.40733,1234.9806 L -575.28218,1234.9806 C -568.29434,1234.9806 -561.70211,1240.3865 -561.70211,1247.3747 L -561.83394,1219.0263 L -611.40733,1219.0263 L -611.40733,1170.2409 L -563.28447,1170.2409 C -556.16461,1170.2409 -549.70439,1175.647 -549.70439,1182.7669 L -549.70439,1154.2869 L -650.82884,1154.2869 C -643.70917,1154.2869 -638.43553,1161.9343 -638.43553,1168.9225 L -638.43553,1297.3469 C -638.43553,1304.4667 -643.70917,1311.9823 -650.82884,1311.9823 L -598.88229,1311.9823 C -606.00166,1311.9823 -611.40733,1304.4667 -611.40733,1297.3469 L -611.40733,1234.9806"
         style="font-size:3.15269995px;letter-spacing:-0.063054;word-spacing:0;fill:#ec1d24;fill-rule:nonzero;stroke:none;stroke-width:0.058;stroke-linecap:butt;stroke-linejoin:miter;stroke-miterlimit:4;stroke-dasharray:none;font-family:fnt0, &quot;Futura&quot;, Arial"
         id="path7600" />
      <path
         d="M -507.64616,1269.6577 C -507.64616,1286.0074 -494.32984,1300.2475 -477.98142,1300.2475 C -461.63269,1300.2475 -448.18455,1285.7438 -448.18455,1269.394 L -448.18455,1168.9225 C -448.18455,1161.9343 -453.59021,1154.2869 -460.70959,1154.2869 L -408.76314,1154.2869 C -415.8829,1154.2869 -421.28837,1161.9343 -421.28837,1168.9225 L -421.28837,1266.6251 C -421.28837,1297.8742 -446.47066,1316.2016 -477.84958,1316.2016 C -509.22851,1316.2016 -534.67417,1297.8742 -534.67417,1266.6251 L -534.67417,1168.9225 C -534.67417,1161.9343 -540.07984,1154.2869 -547.06758,1154.2869 L -495.25296,1154.2869 C -502.37233,1154.2869 -507.64616,1161.9343 -507.64616,1168.9225 L -507.64616,1269.6577"
         style="font-size:3.15269995px;letter-spacing:-0.063054;word-spacing:0;fill:#ec1d24;fill-rule:nonzero;stroke:none;stroke-width:0.058;stroke-linecap:butt;stroke-linejoin:miter;stroke-miterlimit:4;stroke-dasharray:none;font-family:fnt0, &quot;Futura&quot;, Arial"
         id="path7602" />
      <path
         d="M -364.06828,1168.9225 C -364.06828,1161.9343 -358.66261,1154.2869 -351.54296,1154.2869 L -403.48951,1154.2869 C -396.36984,1154.2869 -390.96417,1161.9343 -390.96417,1168.9225 L -390.96417,1329.387 C -390.96417,1329.387 -391.49179,1357.9988 -413.90513,1374.2167 C -413.90513,1374.2167 -363.93625,1367.0966 -363.93625,1319.8936 L -364.06828,1168.9225"
         style="font-size:3.15269995px;letter-spacing:-0.063054;word-spacing:0;fill:#ec1d24;fill-rule:nonzero;stroke:none;stroke-width:0.058;stroke-linecap:butt;stroke-linejoin:miter;stroke-miterlimit:4;stroke-dasharray:none;font-family:fnt0, &quot;Futura&quot;, Arial"
         id="path7604" />
      <path
         d="M -41.050452,1269.6577 C -41.050452,1286.0074 -27.734149,1300.2475 -11.253688,1300.2475 C 5.0948402,1300.2475 18.411143,1285.7438 18.411143,1269.394 L 18.411143,1168.9225 C 18.411143,1161.9343 13.005489,1154.2869 6.0179392,1154.2869 L 57.832568,1154.2869 C 50.844834,1154.2869 45.43908,1161.9343 45.43908,1168.9225 L 45.43908,1266.6251 C 45.43908,1297.8742 20.12524,1316.2016 -11.121855,1316.2016 C -42.500799,1316.2016 -68.078472,1297.8742 -68.078472,1266.6251 L -67.946639,1168.9225 C -67.946639,1161.9343 -73.352109,1154.2869 -80.471676,1154.2869 L -28.525415,1154.2869 C -35.644797,1154.2869 -41.050452,1161.9343 -41.050452,1168.9225 L -41.050452,1269.6577"
         style="font-size:3.15269995px;letter-spacing:-0.063054;word-spacing:0;fill:#ec1d24;fill-rule:nonzero;stroke:none;stroke-width:0.058;stroke-linecap:butt;stroke-linejoin:miter;stroke-miterlimit:4;stroke-dasharray:none;font-family:fnt0, &quot;Futura&quot;, Arial"
         id="path7606" />
      <path
         d="M -92.733332,1180.1299 C -101.17131,1165.6263 -121.07966,1167.472 -121.07966,1167.472 C -152.72236,1167.472 -151.27213,1192.2603 -151.27213,1192.2603 C -151.27213,1192.2603 -153.38152,1204.6546 -137.56023,1213.2249 L -105.78599,1230.4976 C -75.198139,1247.3747 -78.75778,1271.24 -78.75778,1271.24 C -78.75778,1271.24 -77.439367,1316.0697 -141.38382,1316.0697 C -141.38382,1316.0697 -159.97376,1316.5973 -170.52123,1312.6417 L -179.75028,1283.1066 C -170.25757,1298.006 -141.11995,1300.2475 -141.11995,1300.2475 C -105.25837,1298.5334 -104.9947,1273.4813 -104.9947,1273.4813 C -104.9947,1273.4813 -103.28081,1262.6695 -117.38821,1254.7584 L -149.0306,1237.4858 C -181.99161,1219.4221 -178.16822,1195.1612 -178.16822,1195.1612 C -178.16822,1195.1612 -178.9593,1151.1224 -122.26625,1151.1224 C -122.26625,1151.1224 -96.820405,1151.7817 -92.733332,1155.8691 L -92.733332,1180.1299"
         style="font-size:3.15269995px;letter-spacing:-0.063054;word-spacing:0;fill:#ec1d24;fill-rule:nonzero;stroke:none;stroke-width:0.058;stroke-linecap:butt;stroke-linejoin:miter;stroke-miterlimit:4;stroke-dasharray:none;font-family:fnt0, &quot;Futura&quot;, Arial"
         id="path7608" />
      <path
         d="M -285.09362,1154.2869 L -293.66343,1183.2944 C -286.80771,1170.3727 -275.86445,1170.2409 -275.86445,1170.2409 L -248.44105,1170.2409 L -248.44105,1297.3469 C -248.44105,1304.4667 -253.84651,1311.9823 -260.83444,1311.9823 L -209.01983,1311.9823 C -216.00736,1311.9823 -221.41303,1304.4667 -221.41303,1297.3469 L -221.41303,1170.2409 L -198.47207,1170.2409 C -191.3527,1170.2409 -185.68337,1175.9107 -185.68337,1183.0307 L -177.2453,1154.2869 L -285.09362,1154.2869"
         style="font-size:3.15269995px;letter-spacing:-0.063054;word-spacing:0;fill:#ec1d24;fill-rule:nonzero;stroke:none;stroke-width:0.058;stroke-linecap:butt;stroke-linejoin:miter;stroke-miterlimit:4;stroke-dasharray:none;font-family:fnt0, &quot;Futura&quot;, Arial"
         id="path7610" />
      <path
         d="M -340.33634,1099.4363 C -334.66692,1105.106 -326.88809,1108.5341 -318.31829,1108.5341 C -301.04675,1108.5341 -287.07138,1094.5578 -287.07138,1077.417 C -287.07138,1060.1441 -301.04675,1046.168 -318.31829,1046.168 C -318.31829,1046.168 -342.3139,1043.9265 -353.12502,1074.6481 L -353.12502,1051.5739 C -345.08254,1041.0257 -332.55751,1033.3783 -318.31829,1033.3783 C -293.92708,1033.3783 -274.28239,1053.0243 -274.28239,1077.417 C -274.28239,1101.6777 -293.92708,1121.3236 -318.31829,1121.3236 C -330.44803,1121.3236 -341.39109,1116.4453 -349.43327,1108.5341 L -364.5956,1091.525 C -368.68265,1087.3059 -374.35209,1084.8008 -380.68038,1084.8008 C -393.33753,1084.8008 -403.48951,1094.9533 -403.48951,1107.6111 C -403.48951,1120.2689 -393.33753,1130.4215 -380.68038,1130.4215 C -380.68038,1130.4215 -363.80433,1132.6632 -353.12502,1111.8302 L -353.12502,1130.2897 C -359.71726,1138.2007 -369.60559,1143.2114 -380.68038,1143.2114 C -400.32537,1143.2114 -416.27849,1127.2571 -416.27849,1107.6111 C -416.27849,1087.9651 -400.32537,1072.0111 -380.68038,1072.0111 C -370.79215,1072.0111 -361.95859,1075.9665 -355.49819,1082.4274 L -340.33634,1099.4363"
         style="font-size:3.15269995px;letter-spacing:-0.063054;word-spacing:0;fill:#ec1d24;fill-rule:nonzero;stroke:none;stroke-width:0.058;stroke-linecap:butt;stroke-linejoin:miter;stroke-miterlimit:4;stroke-dasharray:none;font-family:fnt0, &quot;Futura&quot;, Arial"
         id="path7612" />
    </g>
  </g>
</svg>
