<svg id="Layer_1" xmlns="http://www.w3.org/2000/svg" viewBox="-170 376.4 183.6 40.6"><style>.st0{fill:#326de6}.st1{fill:#FFF}</style><path class="st0" d="M-129.8 403.6l-8.9 10.9c-.8 1-1.9 1.6-3.2 1.6H-156c-1.2 0-2.4-.7-3.2-1.6l-8.9-10.9c-.7-.9-1-2.3-.7-3.5l3-13.6c.2-1.1 1.1-2.3 2.3-2.7l12.7-6.1c.5-.2 1.1-.5 1.7-.5.6 0 1.2.2 1.8.5l12.7 6.1c1.1.5 2 1.6 2.3 2.7l3 13.6c.6 1.3.2 2.7-.5 3.5z"/><path class="st1" d="M-128.2 400.4l-3.2-14.3c-.2-1.2-1.2-2.4-2.4-2.8l-13.3-6.4c-.6-.2-1.3-.5-1.9-.5-.6 0-1.3.2-1.8.5l-13.3 6.4c-1.2.5-2.1 1.6-2.4 2.8l-3.2 14.3c-.4 1.3 0 2.7.7 3.7l9.3 11.4c.8.9 2 1.6 3.3 1.6h14.7c1.3 0 2.5-.6 3.3-1.6l9.3-11.4c.9-1.1 1.4-2.6.9-3.7zm-2.1 2.5l-9.2 11.4c-.5.7-1.2.9-2 .9h-14.7c-.7 0-1.5-.4-2-.9l-9.2-11.4c-.5-.6-.6-1.4-.5-2.1l3.3-14.4c.1-.7.7-1.3 1.3-1.6l13.3-6.4c.4-.1.7-.1 1.1-.1.4 0 .7 0 1.1.2l13.3 6.4c.7.4 1.2.9 1.4 1.6l3.3 14.3c.1.6-.1 1.6-.5 2.1z"/><path class="st1" d="M-135.6 399.6s-.1 0 0 0c-.1 0-.1 0 0 0-.1-.1-.1-.1 0 0-.2 0-.2-.1-.3-.1-.2 0-.4 0-.5-.1h-.3c-.5-.1-1-.1-1.4-.3-.2-.1-.3-.2-.3-.3v-.1l-.4-.1c.2-1.2.1-2.4-.2-3.7-.3-1.3-.8-2.3-1.4-3.4l.3-.3v-.1c0-.1 0-.3.2-.4.3-.3.7-.5 1.2-.8.1 0 .2-.1.2-.1.2-.1.3-.2.5-.3l.1-.1.1-.1c.4-.3.5-.8.2-1.2-.2-.2-.4-.3-.6-.3s-.4.1-.5.2h-.1l-.1.1c-.2.1-.3.3-.4.4l-.2.2c-.4.4-.7.7-1.1 1-.1.1-.2.1-.3.1h-.2-.1l-.3.2c-.4-.4-.7-.7-1.1-1-1.5-1.3-3.5-2-5.5-2.2v-.2c-.1-.1-.2-.2-.2-.4 0-.5 0-.9.1-1.4v-.3c.1-.1.1-.2.1-.4V383.8c0-.5-.4-.9-.8-.9-.2 0-.5.1-.5.3-.2.2-.3.4-.3.6V384.1c0 .2 0 .4.1.5v.3c.1.5.1 1 .1 1.4 0 .2-.1.3-.2.4v.4c-.5 0-1 .1-1.4.2-2 .5-3.8 1.4-5.1 3l-.3-.2H-156.8c-.1 0-.2 0-.3-.1-.4-.3-.7-.5-1.1-1l-.2-.2c-.1-.1-.2-.3-.4-.4l-.1-.1-.1-.1c-.2-.1-.4-.2-.5-.2-.3 0-.5.1-.6.3-.3.4-.2.9.2 1.2l.1.1c.2.1.3.2.5.3.1 0 .2.1.3.1.5.3.9.5 1.2.8.1.1.1.3.2.4v.1l.3.3c-.1.1-.1.2-.2.2-1.4 2.1-1.8 4.5-1.4 7l-.4.2v.1c-.1.1-.1.2-.3.3-.4.1-.9.2-1.4.3h-.3c-.2 0-.4 0-.5.1H-162.1c-.5.1-.7.5-.6 1 .1.4.5.6.8.6h.5c.2-.1.4-.1.5-.2.1 0 .2-.1.3-.1.5-.2.9-.4 1.4-.4h.1c.2 0 .3.1.4.1h.1l.4-.1c.6 1.9 1.8 3.7 3.4 5 .4.3.7.5 1.1.8l-.2.4v.1c.1.1.1.3 0 .5-.2.4-.4.8-.7 1.3-.1.1-.1.2-.2.2-.1.1-.2.3-.3.5 0 0 0 .1-.1.2v.1c-.2.5-.1.9.4 1.2.1.1.2.1.4.1.4 0 .6-.2.8-.5v-.1c0-.1.1-.1.1-.2.1-.2.1-.4.2-.5 0-.1 0-.2.1-.3.2-.5.4-1 .5-1.4.1-.2.2-.2.4-.2h.1l.2-.4c1.2.5 2.4.7 3.7.7.7 0 1.5-.1 2.3-.3.5-.1.9-.3 1.4-.4l.2.3h.1c.1 0 .3.1.4.2.2.4.4.8.5 1.4 0 .1.1.2.1.3 0 .2.1.3.2.5 0 0 0 .1.1.2v.1c.2.3.5.5.8.5.1 0 .2 0 .4-.1s.4-.3.4-.5c.1-.2 0-.5-.1-.6v-.1c0-.1-.1-.1-.1-.2-.1-.2-.2-.3-.3-.5-.1-.1-.1-.2-.2-.2-.3-.5-.5-.8-.7-1.3-.1-.2 0-.3 0-.5v-.1l-.1-.5c1.4-.8 2.6-2 3.4-3.3.5-.7.8-1.5 1.1-2.3l.4.1h.1c.1-.1.2-.1.4-.1.5.1.9.2 1.4.4.1 0 .2.1.3.1.2.1.3.1.5.2h.5c.4 0 .7-.3.8-.6-.8-.8-1.1-1.1-1.6-1.3zm-12.2-1.4l-1.2.5-1.2-.5-.3-1.2.8-1h1.3l.8 1-.2 1.2zm6.9-2.7c.2.9.3 1.8.2 2.6l-4.1-1.1c-.4-.1-.5-.5-.5-.8 0-.1.1-.2.2-.3l3.2-2.9c.5.9.8 1.6 1 2.5zm-2.3-4l-3.4 2.4c-.3.2-.7.1-.9-.2-.1-.1-.1-.2-.1-.3l-.3-4.2c1.9.2 3.5 1 4.7 2.3zm-7.5-2.1c.3-.1.5-.1.8-.2l-.3 4.2c0 .4-.4.6-.7.6-.1 0-.3 0-.4-.1l-3.5-2.4c1.2-1.1 2.5-1.9 4.1-2.1zm-5.3 3.6l3.2 2.8c.3.3.4.6.1 1-.1.1-.2.2-.3.2l-4.1 1.2c-.2-1.8.2-3.6 1.1-5.2zm-.6 7.1l4.2-.7c.4 0 .6.2.7.5v.5l-1.6 3.9c-1.5-.9-2.7-2.4-3.3-4.2zm9.6 5.3c-.6.2-1.2.2-1.8.2-.9 0-1.8-.2-2.6-.5l2.1-3.8c.2-.3.5-.4.8-.2.2.1.3.2.3.3l2 3.6c-.3.4-.6.4-.8.4zm5-3.6c-.6 1.1-1.5 1.9-2.5 2.5l-1.6-4c-.1-.4.1-.6.4-.8.1-.1.3-.1.4-.1l4.2.7c-.2.7-.5 1.1-.9 1.7z"/><g class="logoText"><path id="path254" class="st1" d="M-111.2 397.6c.3-.4.6-.7 1-1.2s.6-.8.9-1.3.6-.9.9-1.3c.3-.5.5-.8.7-1.2h3.9c-.3.4-.6.8-1.1 1.4-.4.5-.8 1-1.3 1.4-.5.5-.9 1-1.3 1.4-.5.5-.8.9-1.2 1.3.5.5.9.9 1.4 1.5l1.5 1.8c.5.6.9 1.3 1.4 1.9.5.6.7 1.2 1 1.7h-3.7c-.2-.5-.5-.9-.8-1.4-.4-.5-.7-1.1-1.1-1.6-.4-.5-.8-1.1-1.2-1.5-.4-.5-.7-.9-1.1-1.2v5.9h-3.3v-17.8l3.3-.5.1 10.7z"/><path id="path256" class="st1" d="M-91.4 404.6c-.6.2-1.4.3-2.2.5-.8.2-1.8.3-2.8.3s-1.8-.2-2.5-.5c-.6-.3-1.2-.7-1.5-1.2-.4-.5-.6-1.1-.8-1.8-.2-.7-.2-1.4-.2-2.3v-6.9h3.3v6.5c0 1.2.2 2 .5 2.5s.8.8 1.6.8c.5 0 1 0 1.4-.1v-9.7h3.3l-.1 11.9z"/><path id="path258" class="st1" d="M-80.7 398.9c0-1.2-.2-2.1-.5-2.6-.4-.6-1-.9-1.7-.9-.4 0-.7.1-1 .2-.4.1-.6.2-.9.4v6.6c.3.1.5.1.8.1h.7c.8 0 1.5-.3 2-.8.4-.8.6-1.7.6-3zm3.3 0c0 1-.1 1.9-.4 2.7-.3.8-.6 1.4-1.2 2.1-.5.5-1.2 1-1.9 1.3-.7.3-1.5.5-2.5.5-.8 0-1.7-.1-2.6-.2-.9-.1-1.6-.3-2.2-.5v-17.4l3.3-.5v6.1c.5-.2.9-.4 1.4-.5s.8-.1 1.3-.1c.8 0 1.5.2 2.2.5.6.3 1.1.7 1.5 1.4.5.5.7 1.3.9 2.1.1.7.2 1.6.2 2.5"/><path id="path260" class="st1" d="M-75.8 399c0-1.1.2-2.1.5-2.9.4-.8.8-1.5 1.4-2.1.5-.5 1.2-1 1.9-1.3.7-.3 1.4-.5 2.2-.5 1.8 0 3.3.5 4.2 1.6.9 1.1 1.4 2.6 1.4 4.7v1.1h-8c0 .8.4 1.4 1 1.9s1.5.7 2.6.7c.6 0 1.3-.1 1.9-.2.6-.2 1.1-.3 1.4-.5l.5 3.1c-.5.2-1.2.4-1.8.5s-1.4.2-2.2.2c-1.1 0-2-.2-2.8-.5-.8-.3-1.5-.6-2.2-1.2-.5-.5-1-1.2-1.4-2-.5-.7-.6-1.6-.6-2.6zm8.3-1.2c0-.4 0-.6-.1-1-.1-.3-.3-.5-.5-.8-.2-.3-.4-.5-.7-.7-.3-.2-.6-.2-1.1-.2s-.8.1-1.1.2c-.3.2-.5.4-.7.5-.2.3-.4.5-.5.8-.1.3-.2.6-.2 1l4.9.2z"/><path id="path262" class="st1" d="M-52 396c-.2-.1-.5-.1-.7-.2-.3-.1-.6-.1-.9-.2-.3 0-.5-.1-.9-.1h-.7c-.5 0-.9 0-1.4.1-.5 0-.9.1-1.4.3v9.2h-3.3v-11.6c.9-.3 1.7-.5 2.6-.7.9-.2 2-.3 3.2-.3h.7c.4 0 .6.1 1 .1s.7.1 1.1.2c.4.1.7.2 1 .3l-.3 2.9z"/><path id="path264" class="st1" d="M-48.7 393.1c.6-.2 1.3-.3 2.2-.5.8-.2 1.8-.2 2.8-.2s1.8.2 2.4.5c.6.3 1.2.6 1.5 1.2.4.5.7 1.1.9 1.8.2.7.3 1.4.3 2.3v7h-3.3v-6.6c0-1.2-.1-2-.4-2.5-.2-.6-.8-.8-1.6-.8h-.7c-.2 0-.5 0-.7.1v9.7h-3.3l-.1-12z"/><path id="path266" class="st1" d="M-36.4 399c0-1.1.2-2.1.5-2.9.4-.8.8-1.5 1.4-2.1.5-.5 1.2-1 1.9-1.3.7-.3 1.4-.5 2.2-.5 1.8 0 3.3.5 4.2 1.6.8 1.3 1.4 2.8 1.4 4.9v1.1h-8c0 .8.4 1.4 1 1.9s1.5.7 2.6.7c.6 0 1.3-.1 1.9-.2.6-.2 1.1-.3 1.4-.5l.5 2.8c-.5.2-1.2.4-1.8.5-.6.1-1.4.2-2.2.2-1.1 0-2-.2-2.8-.5-.8-.3-1.5-.6-2.2-1.2-.5-.5-1-1.2-1.4-2-.4-.6-.6-1.5-.6-2.5zm8.3-1.2c0-.4 0-.6-.1-1-.1-.3-.3-.5-.5-.8-.1-.3-.4-.5-.6-.7-.3-.2-.6-.2-1.1-.2s-.8.1-1.1.2c-.3.2-.5.4-.7.6-.2.3-.4.5-.5.8-.1.3-.2.6-.2 1l4.8.1z"/><path id="path268" class="st1" d="M-20.3 395.4h-2.8v-2.7h2.8v-3.1l3.3-.5v3.6h5.1v2.7H-17v5c0 .5 0 .8.1 1.1.1.3.2.5.4.6.2.2.4.3.5.3.3.1.5.1.7.1h.8c.3 0 .5-.1.7-.1.3 0 .5-.1.7-.2.3-.1.5-.2.8-.4l.5 2.8c-.6.3-1.3.5-1.9.5-.7.1-1.4.2-2 .2-.7 0-1.4-.1-2-.2-.5-.1-1.1-.4-1.4-.7-.4-.4-.7-.8-.9-1.4-.2-.6-.3-1.4-.3-2.5v-5.1z"/><path id="path270" class="st1" d="M-10.1 399c0-1.1.2-2.1.5-2.9.4-.8.8-1.5 1.4-2.1.5-.5 1.2-1 1.9-1.3.7-.3 1.4-.5 2.2-.5 1.8 0 3.3.5 4.2 1.6.9 1.1 1.4 2.6 1.4 4.7v1.1h-8c0 .8.4 1.4 1 1.9s1.5.7 2.6.7c.6 0 1.3-.1 1.9-.2.6-.2 1.1-.3 1.4-.5l.5 2.8c-.5.2-1.2.4-1.8.5-.6.1-1.4.2-2.2.2-1.1 0-2-.2-2.8-.5-.8-.3-1.5-.6-2.2-1.2-.5-.5-1-1.2-1.4-2-.4-.4-.6-1.3-.6-2.3zm8.3-1.2c0-.4 0-.6-.1-1-.1-.3-.3-.5-.5-.8-.1-.3-.4-.5-.6-.7-.3-.2-.6-.2-1.1-.2s-.8.1-1.1.2c-.3.2-.6.4-.7.6-.2.3-.4.5-.5.8s-.2.6-.2 1l4.8.1z"/><path id="path272" class="st1" d="M8.2 402.8c.8 0 1.4-.1 1.8-.2s.6-.4.6-.7c0-.3-.1-.5-.2-.5-.1-.2-.3-.3-.5-.5-.3-.1-.5-.2-.8-.4-.3-.1-.6-.2-1-.3-.5-.2-1-.3-1.4-.5-.5-.2-.9-.5-1.4-.7-.4-.3-.7-.6-1-1.1s-.4-1-.4-1.6c0-.5.1-1 .3-1.4.2-.4.5-.9.9-1.3s1-.6 1.6-.8c.7-.2 1.5-.3 2.5-.3.8 0 1.5.1 2.3.2.7.1 1.3.3 1.8.5l-.5 2.7c-.3-.1-.7-.3-1.4-.5-.6-.2-1.4-.3-2.2-.3s-1.4.1-1.6.3c-.3.2-.5.5-.5.6 0 .1.1.5.2.7s.3.3.5.5c.2.1.5.3.7.4.3 0 .7.1.9.3.5.2 1 .4 1.4.5.5.2 1 .5 1.4.7.5.3.7.6 1 1.1s.4 1 .4 1.6c0 .5-.1 1-.3 1.4-.2.5-.5.8-1 1.2-.5.4-1 .6-1.7.8s-1.6.2-2.6.2c-1.1 0-2-.1-2.7-.4-.7-.3-1.4-.5-1.8-.6l.5-2.7c.6.3 1.3.5 2 .7.8.2 1.5.4 2.2.4"/></g></svg>