<svg xmlns="http://www.w3.org/2000/svg" viewBox="0 0 180 40"><style>.st0{fill:#326de6}.st1{fill:#FFF}</style><path class="st0" d="M173.57 25.98c-.69 0-1.39-.09-2.08-.32-.69-.19-1.33-.42-1.93-.65l-.51 2.62c.46.19 1.02.42 1.75.65.74.23 1.61.36 2.67.36 1.02 0 1.89-.09 2.58-.27.69-.18 1.29-.46 1.71-.78.41-.32.73-.69.92-1.15.18-.46.27-.92.27-1.43 0-.64-.13-1.15-.37-1.61-.27-.41-.59-.78-.96-1.05-.42-.28-.83-.51-1.34-.69-.5-.19-.96-.37-1.42-.51-.33-.09-.65-.23-.93-.32-.27-.09-.55-.23-.73-.37-.23-.14-.37-.23-.51-.41-.14-.14-.18-.32-.18-.51 0-.23.13-.41.41-.64.28-.18.83-.28 1.61-.28.79 0 1.48.1 2.07.28.6.18 1.06.32 1.39.41l.5-2.66c-.5-.23-1.06-.42-1.75-.51-.69-.14-1.42-.18-2.21-.18-.92 0-1.7.09-2.35.27-.64.19-1.19.46-1.61.83-.41.37-.73.74-.92 1.2-.18.46-.27.92-.27 1.42 0 .64.13 1.15.36 1.56.28.42.6.79.97 1.06.42.28.83.51 1.29.69.46.18.97.32 1.43.46.32.09.64.18.92.32.27.09.55.23.78.32.23.1.42.23.55.42.14.14.19.32.19.55 0 .32-.19.55-.6.69-.37.18-.97.23-1.7.23zm-9.81-4.78h-4.84c.05-.32.1-.64.23-.97.1-.32.28-.59.46-.82.19-.23.46-.42.74-.56.28-.13.65-.18 1.06-.18.41 0 .78.09 1.06.23s.55.32.74.6c.18.23.32.5.41.82.09.24.14.56.14.88zm-8.11 1.24c0 1.01.14 1.93.46 2.67.33.78.74 1.42 1.34 1.93.55.5 1.24.92 2.07 1.19.83.28 1.75.41 2.76.41.79 0 1.48-.04 2.08-.18.6-.14 1.19-.27 1.75-.46l-.42-2.66c-.41.13-.87.27-1.43.41-.55.14-1.19.18-1.79.18-1.01 0-1.84-.23-2.53-.69-.65-.46-.97-1.05-.97-1.84h7.83c0-.13.04-.32.04-.55v-.64c0-2.02-.46-3.54-1.38-4.6-.92-1.05-2.25-1.56-4.05-1.56-.74 0-1.43.14-2.12.41-.69.28-1.29.69-1.84 1.2-.55.55-.97 1.19-1.29 2.02-.32.78-.51 1.7-.51 2.76zm-9.94-3.49v4.96c0 1.01.09 1.84.32 2.44.19.64.51 1.1.92 1.42.42.32.88.55 1.43.69.55.14 1.2.18 1.93.18.65 0 1.29-.04 1.98-.13.69-.1 1.29-.28 1.89-.51l-.41-2.71c-.28.14-.56.23-.83.32-.23.09-.51.14-.74.18-.23.05-.46.1-.74.1-.23 0-.5.04-.82.04-.28 0-.51-.04-.74-.09-.23-.05-.42-.14-.55-.32-.14-.14-.28-.37-.37-.64-.09-.28-.14-.65-.14-1.06v-4.87h5.06v-2.62h-5.06v-3.54l-3.18.5v3.04h-2.76v2.62h2.81zm-12.43 2.25c.04-.32.09-.64.23-.97.09-.32.27-.59.46-.82.18-.23.46-.42.73-.56.33-.13.65-.18 1.06-.18.42 0 .79.09 1.06.23.28.14.55.32.74.6.18.23.32.5.41.82.1.28.14.6.14.92h-4.83v-.04zm-3.27 1.24c0 1.01.14 1.93.46 2.67.32.78.73 1.42 1.33 1.93.56.5 1.25.92 2.07 1.19.83.28 1.75.41 2.77.41.78 0 1.47-.04 2.07-.18.6-.14 1.2-.27 1.75-.46l-.41-2.66c-.42.13-.88.27-1.43.41-.55.14-1.2.18-1.8.18-1.01 0-1.84-.23-2.53-.69-.65-.46-.97-1.05-.97-1.84h7.83c0-.13.05-.32.05-.55v-.64c0-2.02-.46-3.54-1.39-4.6-.92-1.05-2.25-1.56-4.05-1.56-.73 0-1.42.14-2.12.41-.69.28-1.28.69-1.84 1.2-.55.55-.96 1.19-1.29 2.02-.32.78-.5 1.7-.5 2.76zm-11.97 5.93h3.17V18.9c.28-.05.51-.05.74-.09.23 0 .46-.05.69-.05.78 0 1.29.23 1.57.74.27.5.36 1.28.36 2.43v6.39h3.18v-6.8c0-.83-.09-1.56-.23-2.25s-.41-1.24-.78-1.75c-.37-.5-.88-.87-1.52-1.15-.65-.27-1.43-.41-2.4-.41-.96 0-1.88.04-2.71.18-.83.14-1.52.28-2.07.42v11.81zm-3.27-8.83l.55-2.94c-.28-.09-.6-.18-.97-.23-.37-.04-.73-.09-1.1-.14-.37-.04-.69-.09-1.02-.09-.32 0-.55-.04-.73-.04-1.2 0-2.21.09-3.09.27-.87.19-1.75.42-2.58.74v11.26h3.18v-8.92c.46-.14.88-.18 1.29-.23.41-.04.87-.04 1.29-.04.18 0 .41 0 .69.04.28 0 .55.05.83.09.27.05.6.1.87.14.37 0 .6.05.79.09zM99.62 21.2h-4.84c.05-.32.09-.64.23-.97.1-.32.28-.59.46-.82.19-.23.46-.42.74-.56.28-.13.64-.18 1.06-.18.41 0 .78.09 1.06.23.27.14.55.32.73.6.19.23.33.5.42.82.09.24.14.56.14.88zm-8.06 1.24c0 1.01.14 1.93.46 2.67.32.78.74 1.42 1.34 1.93.55.5 1.24.92 2.07 1.19.83.28 1.75.41 2.76.41.78 0 1.47-.04 2.07-.18.6-.14 1.2-.27 1.75-.46l-.41-2.66c-.42.13-.88.27-1.43.41-.55.14-1.2.18-1.8.18-1.01 0-1.84-.23-2.53-.69-.64-.46-.97-1.05-.97-1.84h7.83c0-.13.05-.32.05-.55v-.64c0-2.02-.46-3.54-1.38-4.6-.92-1.05-2.26-1.56-4.05-1.56-.74 0-1.43.14-2.12.41-.69.28-1.29.69-1.84 1.2-.56.55-.97 1.19-1.29 2.02-.37.78-.51 1.7-.51 2.76zm-1.57-.09c0-.92-.09-1.79-.32-2.58-.18-.78-.5-1.42-.92-1.97-.41-.55-.92-.97-1.52-1.29-.6-.28-1.29-.46-2.07-.46-.42 0-.83.05-1.24.14-.42.09-.83.23-1.29.41v-6.02l-3.18.55V28c.6.18 1.29.32 2.16.46.88.14 1.71.18 2.54.18.92 0 1.75-.13 2.44-.46.73-.27 1.33-.73 1.84-1.28s.87-1.2 1.15-1.98c.28-.73.41-1.61.41-2.57zm-3.22-.09c0 1.33-.23 2.25-.74 2.85-.5.59-1.15.82-1.93.82-.18 0-.41 0-.69-.04-.28 0-.51-.05-.74-.1v-6.52c.23-.14.51-.23.88-.37.32-.09.69-.14 1.01-.14.74 0 1.34.32 1.66.92.37.6.55 1.47.55 2.58zm-10.45 5.7V16.33h-3.18v9.46c-.46.1-.97.14-1.43.14-.78 0-1.29-.27-1.56-.82-.28-.56-.42-1.38-.42-2.49v-6.29h-3.17v6.71c0 .82.04 1.56.18 2.25.14.69.37 1.29.74 1.79.37.51.87.88 1.52 1.15.64.28 1.42.41 2.44.41.97 0 1.89-.09 2.71-.23.88-.13 1.62-.32 2.17-.45zm-19.25-6.85c.32-.37.6-.74.92-1.15.33-.42.65-.83.92-1.24.28-.42.6-.83.88-1.24.27-.42.51-.79.74-1.15h3.77c-.32.41-.64.82-1.06 1.28-.41.46-.78.92-1.2 1.43-.41.46-.82.92-1.24 1.38-.41.46-.78.87-1.15 1.24.41.41.88.92 1.38 1.47.51.55.97 1.15 1.48 1.79.46.6.92 1.24 1.33 1.84.42.6.74 1.15.97 1.65h-3.64c-.18-.41-.46-.91-.83-1.42-.32-.55-.69-1.06-1.06-1.61-.37-.5-.73-1.01-1.15-1.47-.37-.46-.74-.87-1.06-1.15v5.7h-3.18V11.22l3.18-.55v10.44zM13.2 39.08c-.94 0-1.83-.41-2.44-1.18L1.57 26.5c-.6-.76-.84-1.73-.6-2.67L4.25 9.6c.21-.94.84-1.7 1.71-2.12l13.28-6.35c.42-.21.9-.31 1.37-.31.47 0 .94.1 1.36.31l13.29 6.32c.86.42 1.5 1.18 1.71 2.12l3.28 14.23c.21.95 0 1.92-.61 2.68l-9.19 11.4c-.6.73-1.49 1.18-2.44 1.18l-14.81.02z"/><path class="st1" d="M38.82 25.92l-9.17 11.37c-.4.52-1.05.83-1.73.83h-14.7c-.68 0-1.33-.31-1.74-.83L2.32 25.92c-.42-.54-.59-1.23-.45-1.9l3.28-14.2c.16-.68.6-1.23 1.2-1.51L19.59 2c.31-.13.67-.19.99-.19.33 0 .66.07.95.2l13.25 6.3c.62.31 1.07.87 1.21 1.51l3.27 14.2c.17.67.01 1.36-.44 1.9m2.16-2.27l-3.27-14.2c-.29-1.2-1.09-2.2-2.2-2.73L22.3.39C21.76.14 21.16 0 20.58 0c-.58 0-1.16.13-1.75.39L5.58 6.72c-1.12.53-1.92 1.53-2.2 2.73L.11 23.65c-.29 1.21 0 2.46.78 3.44l9.17 11.37c.76.95 1.9 1.5 3.14 1.5h14.69c1.24 0 2.38-.55 3.13-1.5l9.17-11.37c.79-.96 1.08-2.21.79-3.44"/><path class="st1" d="M27.54 25.01c-.66 1.05-1.52 1.89-2.52 2.54l-1.66-3.96c-.07-.31.06-.65.37-.81.11-.05.24-.08.37-.08l4.2.71c-.16.58-.42 1.1-.76 1.6zm-5.12 3.64c-.6.13-1.21.21-1.84.21-.92 0-1.81-.15-2.65-.42L20 24.7c.21-.24.56-.35.84-.19.14.08.24.19.32.29l2.02 3.64c-.24.08-.5.13-.76.21zm-9.58-5.21l4.17-.71c.34-.03.66.21.74.55.02.16.02.29-.03.42l-1.6 3.85c-1.47-.94-2.65-2.38-3.28-4.11zm.71-7.11l3.12 2.78c.29.24.32.68.08.97-.08.11-.19.19-.32.21l-4.07 1.18c-.15-1.78.24-3.59 1.19-5.14zm5.17-3.72c.29-.05.55-.1.84-.15l-.24 4.19c-.02.37-.31.68-.71.68-.1 0-.23-.03-.31-.08l-3.49-2.49c1.07-1.07 2.41-1.81 3.91-2.15zm7.61 2.15l-3.44 2.44c-.29.18-.68.13-.92-.16-.08-.08-.1-.18-.13-.29l-.23-4.27c1.81.21 3.46 1.02 4.72 2.28zm2.26 4.06c.21.9.26 1.79.18 2.65l-4.01-1.15c-.37-.11-.58-.47-.5-.84.02-.11.08-.21.16-.29l3.17-2.86c.45.74.79 1.58 1 2.49zm-6.85 2.73l-1.16.55-1.15-.55-.29-1.23.79-1h1.28l.79 1-.26 1.23zm12.15 1.28c-.02 0-.02 0 0 0h-.02c-.03 0-.06 0-.06-.02-.05 0-.1-.03-.15-.03-.19-.02-.34-.05-.5-.05-.08 0-.16 0-.26-.03h-.03c-.55-.05-1-.1-1.42-.23-.18-.08-.23-.19-.29-.29 0-.03-.02-.03-.02-.05l-.34-.11c.15-1.2.1-2.46-.19-3.69-.29-1.24-.79-2.39-1.47-3.44l.26-.23v-.06c0-.13.03-.26.13-.39.32-.29.71-.52 1.19-.81.08-.05.15-.08.23-.13.16-.08.29-.16.45-.26.03-.03.08-.06.13-.11.03-.02.05-.02.05-.05.37-.32.45-.84.19-1.18-.13-.18-.37-.29-.61-.29-.21 0-.39.08-.57.21l-.06.05c-.05.03-.08.08-.13.11-.13.13-.23.23-.34.37-.05.05-.1.13-.18.18-.37.39-.71.71-1.05.94-.08.05-.16.08-.24.08-.05 0-.11 0-.16-.03h-.05l-.32.21c-.34-.36-.7-.68-1.07-.99-1.58-1.23-3.49-1.99-5.49-2.18l-.03-.34-.05-.05c-.08-.08-.18-.16-.21-.34-.02-.42.03-.89.08-1.42v-.02c0-.08.03-.19.05-.26.03-.16.06-.32.08-.5v-.24c0-.47-.37-.86-.81-.86-.21 0-.42.1-.58.26-.16.16-.24.37-.24.6V7.37c0 .18.03.34.08.5.03.08.03.16.06.26v.03c.05.52.13.99.07 1.41-.02.19-.13.26-.21.34-.02.03-.02.03-.05.06l-.02.34c-.48.05-.95.1-1.42.21-2.02.44-3.81 1.46-5.2 2.93l-.26-.18h-.06c-.05 0-.1.02-.15.02-.08 0-.16-.02-.24-.07-.34-.24-.68-.58-1.05-.97-.05-.06-.1-.13-.18-.19-.11-.13-.21-.23-.35-.36-.02-.03-.07-.06-.13-.11-.02-.03-.05-.03-.05-.05-.16-.13-.37-.21-.58-.21-.23 0-.47.1-.6.29-.26.34-.18.86.18 1.18.03 0 .03.02.06.02.05.03.07.08.13.11.15.1.29.18.44.26.08.03.16.08.24.13.47.29.87.52 1.18.81.13.13.13.27.13.4v.05l.27.23c-.06.08-.11.14-.14.21-1.31 2.07-1.81 4.51-1.47 6.92l-.34.11c0 .02-.02.02-.02.05-.06.11-.14.21-.29.29-.4.13-.87.18-1.42.23h-.03c-.08 0-.18 0-.26.03-.16 0-.31.03-.5.05-.05 0-.1.03-.16.03-.02 0-.05 0-.07.03-.48.1-.77.55-.69.97.08.36.42.6.84.6.08 0 .13 0 .21-.03.03 0 .06 0 .06-.02.05 0 .1-.03.15-.03.19-.05.32-.1.48-.18.07-.03.15-.08.23-.11h.03c.5-.18.94-.34 1.36-.39h.06c.15 0 .26.08.34.13.02 0 .02.03.05.03l.37-.06c.63 1.94 1.84 3.67 3.44 4.93.36.29.73.52 1.13.76l-.16.34c0 .03.02.03.02.05.06.11.11.24.06.42-.16.4-.4.79-.69 1.23v.03c-.05.08-.1.13-.15.21-.11.13-.19.26-.29.42-.03.03-.05.08-.08.13 0 .03-.03.05-.03.05-.21.45-.05.95.34 1.13.11.05.21.08.32.08.31 0 .63-.21.79-.5 0-.02.02-.05.02-.05.03-.05.06-.11.08-.13.08-.19.11-.32.16-.47.03-.08.05-.16.08-.24.18-.52.31-.94.55-1.31.1-.16.24-.18.34-.24.03 0 .03 0 .05-.02l.19-.34c1.15.44 2.41.68 3.67.68.76 0 1.55-.08 2.29-.26.47-.11.92-.24 1.36-.4l.16.29c.03 0 .03 0 .05.03.13.02.24.08.34.23.21.37.37.82.56 1.31v.03c.02.08.05.16.07.24.06.15.08.31.16.47l.08.13c0 .03.03.05.03.05.15.32.47.5.78.5.11 0 .21-.03.32-.08.18-.1.34-.26.39-.47.06-.21.06-.45-.05-.66 0-.02-.03-.02-.03-.05-.02-.05-.05-.1-.07-.13-.08-.16-.19-.29-.29-.42-.06-.08-.11-.13-.16-.21v-.03c-.29-.44-.55-.83-.68-1.23-.06-.18 0-.29.02-.42 0-.02.03-.02.03-.05l-.13-.31c1.39-.82 2.57-1.97 3.46-3.38.48-.74.84-1.55 1.11-2.36l.31.05c.03 0 .03-.03.05-.03.11-.05.19-.13.35-.13h.05c.42.05.86.21 1.36.4h.03c.08.02.16.07.24.1.15.08.28.13.47.18.05 0 .1.03.16.03.02 0 .05 0 .07.03.08.02.14.02.21.02.4 0 .74-.26.84-.6 0-.32-.28-.73-.76-.87z"/></svg>