<?xml version="1.0" encoding="UTF-8" standalone="no"?>
<svg
   width="1200"
   height="500"
   viewBox="0 0 1200 500"
   fill="none"
   version="1.1"
   id="svg1151"
   sodipodi:docname="storage-local.svg"
   inkscape:version="1.1.1 (c3084ef, 2021-09-22)"
   xmlns:inkscape="http://www.inkscape.org/namespaces/inkscape"
   xmlns:sodipodi="http://sodipodi.sourceforge.net/DTD/sodipodi-0.dtd"
   xmlns="http://www.w3.org/2000/svg"
   xmlns:svg="http://www.w3.org/2000/svg">
  <sodipodi:namedview
     id="namedview1153"
     pagecolor="#ffffff"
     bordercolor="#666666"
     borderopacity="1.0"
     inkscape:pageshadow="2"
     inkscape:pageopacity="0.0"
     inkscape:pagecheckerboard="0"
     showgrid="false"
     inkscape:zoom="1.1863158"
     inkscape:cx="485.95829"
     inkscape:cy="437.06743"
     inkscape:window-width="3440"
     inkscape:window-height="1387"
     inkscape:window-x="0"
     inkscape:window-y="25"
     inkscape:window-maximized="1"
     inkscape:current-layer="svg1151" />
  <rect
     width="1200"
     height="500"
     fill="#ffffff"
     id="rect1065"
     x="0"
     y="0"
     style="stroke-width:1.1239" />
  <path
     d="m 490.914,63.27 c -2.1,0 -3.9,-0.44 -5.4,-1.32 -1.5,-0.88 -2.66,-2.13 -3.48,-3.75 -0.8,-1.64 -1.2,-3.57 -1.2,-5.79 0,-2.22 0.4,-4.14 1.2,-5.76 0.82,-1.62 1.98,-2.87 3.48,-3.75 1.5,-0.88 3.3,-1.32 5.4,-1.32 1.44,0 2.78,0.23 4.02,0.69 1.26,0.44 2.31,1.1 3.15,1.98 l -1.02,2.22 c -0.92,-0.82 -1.87,-1.42 -2.85,-1.8 -0.98,-0.38 -2.06,-0.57 -3.24,-0.57 -2.32,0 -4.1,0.72 -5.34,2.16 -1.22,1.44 -1.83,3.49 -1.83,6.15 0,2.66 0.61,4.72 1.83,6.18 1.24,1.44 3.02,2.16 5.34,2.16 1.18,0 2.26,-0.19 3.24,-0.57 0.98,-0.38 1.93,-0.98 2.85,-1.8 l 1.02,2.22 c -0.84,0.86 -1.89,1.52 -3.15,1.98 -1.24,0.46 -2.58,0.69 -4.02,0.69 z m 15.711,0 c -1.44,0 -2.69,-0.31 -3.75,-0.93 -1.06,-0.62 -1.88,-1.5 -2.46,-2.64 -0.58,-1.14 -0.87,-2.48 -0.87,-4.02 0,-1.54 0.29,-2.87 0.87,-3.99 0.58,-1.14 1.4,-2.02 2.46,-2.64 1.06,-0.62 2.31,-0.93 3.75,-0.93 1.44,0 2.69,0.31 3.75,0.93 1.06,0.62 1.88,1.5 2.46,2.64 0.58,1.12 0.87,2.45 0.87,3.99 0,1.54 -0.29,2.88 -0.87,4.02 -0.58,1.14 -1.4,2.02 -2.46,2.64 -1.06,0.62 -2.31,0.93 -3.75,0.93 z m 0,-2.16 c 1.32,0 2.37,-0.46 3.15,-1.38 0.78,-0.94 1.17,-2.29 1.17,-4.05 0,-1.76 -0.39,-3.1 -1.17,-4.02 -0.78,-0.92 -1.83,-1.38 -3.15,-1.38 -1.3,0 -2.35,0.46 -3.15,1.38 -0.78,0.92 -1.17,2.26 -1.17,4.02 0,1.76 0.39,3.11 1.17,4.05 0.8,0.92 1.85,1.38 3.15,1.38 z M 517.262,63 V 48.39 h 2.67 v 3.18 h -0.33 c 0.26,-0.74 0.62,-1.36 1.08,-1.86 0.46,-0.52 1.01,-0.91 1.65,-1.17 0.66,-0.28 1.38,-0.42 2.16,-0.42 1.24,0 2.24,0.3 3,0.9 0.76,0.58 1.27,1.47 1.53,2.67 h -0.42 c 0.36,-1.1 1,-1.97 1.92,-2.61 0.94,-0.64 2.03,-0.96 3.27,-0.96 1.1,0 2,0.22 2.7,0.66 0.72,0.42 1.26,1.06 1.62,1.92 0.36,0.84 0.54,1.92 0.54,3.24 V 63 h -2.73 v -8.94 c 0,-1.28 -0.22,-2.22 -0.66,-2.82 -0.44,-0.6 -1.18,-0.9 -2.22,-0.9 -0.76,0 -1.42,0.18 -1.98,0.54 -0.56,0.36 -0.99,0.87 -1.29,1.53 -0.3,0.66 -0.45,1.45 -0.45,2.37 V 63 h -2.73 v -8.94 c 0,-1.28 -0.22,-2.22 -0.66,-2.82 -0.44,-0.6 -1.18,-0.9 -2.22,-0.9 -0.76,0 -1.42,0.18 -1.98,0.54 -0.56,0.36 -0.99,0.87 -1.29,1.53 -0.3,0.66 -0.45,1.45 -0.45,2.37 V 63 Z m 25.78,5.4 V 48.39 h 2.67 v 3.36 h -0.3 c 0.32,-1.1 0.95,-1.98 1.89,-2.64 0.94,-0.66 2.07,-0.99 3.39,-0.99 1.3,0 2.43,0.31 3.39,0.93 0.96,0.6 1.71,1.47 2.25,2.61 0.54,1.12 0.81,2.46 0.81,4.02 0,1.54 -0.27,2.89 -0.81,4.05 -0.52,1.14 -1.27,2.02 -2.25,2.64 -0.96,0.6 -2.09,0.9 -3.39,0.9 -1.3,0 -2.42,-0.33 -3.36,-0.99 -0.94,-0.66 -1.57,-1.53 -1.89,-2.61 h 0.33 v 8.73 z m 7.02,-7.29 c 1.32,0 2.37,-0.46 3.15,-1.38 0.78,-0.94 1.17,-2.29 1.17,-4.05 0,-1.76 -0.39,-3.1 -1.17,-4.02 -0.78,-0.92 -1.83,-1.38 -3.15,-1.38 -1.32,0 -2.37,0.46 -3.15,1.38 -0.78,0.92 -1.17,2.26 -1.17,4.02 0,1.76 0.39,3.11 1.17,4.05 0.78,0.92 1.83,1.38 3.15,1.38 z m 15.807,2.16 c -1.18,0 -2.17,-0.22 -2.97,-0.66 -0.78,-0.44 -1.36,-1.09 -1.74,-1.95 -0.38,-0.86 -0.57,-1.94 -0.57,-3.24 v -9.03 h 2.73 v 9.03 c 0,0.82 0.11,1.5 0.33,2.04 0.22,0.54 0.56,0.94 1.02,1.2 0.48,0.26 1.08,0.39 1.8,0.39 0.8,0 1.5,-0.18 2.1,-0.54 0.6,-0.36 1.07,-0.87 1.41,-1.53 0.34,-0.66 0.51,-1.43 0.51,-2.31 v -8.28 h 2.73 V 63 h -2.67 v -3.3 h 0.39 c -0.4,1.16 -1.05,2.05 -1.95,2.67 -0.88,0.6 -1.92,0.9 -3.12,0.9 z m 17.803,0 c -1.78,0 -3.11,-0.46 -3.99,-1.38 -0.88,-0.94 -1.32,-2.28 -1.32,-4.02 v -7.38 h -2.85 v -2.1 h 2.85 v -4.44 h 2.73 v 4.44 h 4.59 v 2.1 h -4.59 v 7.14 c 0,1.1 0.23,1.93 0.69,2.49 0.46,0.56 1.22,0.84 2.28,0.84 0.32,0 0.63,-0.03 0.93,-0.09 0.32,-0.08 0.62,-0.16 0.9,-0.24 l 0.45,2.04 c -0.28,0.18 -0.68,0.32 -1.2,0.42 -0.5,0.12 -0.99,0.18 -1.47,0.18 z m 11.295,0 c -1.58,0 -2.94,-0.3 -4.08,-0.9 -1.12,-0.62 -1.99,-1.49 -2.61,-2.61 -0.62,-1.14 -0.93,-2.48 -0.93,-4.02 0,-1.52 0.3,-2.85 0.9,-3.99 0.62,-1.14 1.46,-2.03 2.52,-2.67 1.08,-0.64 2.31,-0.96 3.69,-0.96 1.34,0 2.48,0.29 3.42,0.87 0.96,0.58 1.69,1.41 2.19,2.49 0.52,1.06 0.78,2.34 0.78,3.84 v 0.99 h -11.37 v -1.74 h 9.57 l -0.51,0.42 c 0,-1.56 -0.34,-2.76 -1.02,-3.6 -0.68,-0.86 -1.68,-1.29 -3,-1.29 -0.96,0 -1.78,0.23 -2.46,0.69 -0.68,0.44 -1.2,1.07 -1.56,1.89 -0.36,0.8 -0.54,1.73 -0.54,2.79 v 0.18 c 0,1.2 0.19,2.21 0.57,3.03 0.4,0.8 0.97,1.41 1.71,1.83 0.74,0.4 1.65,0.6 2.73,0.6 0.86,0 1.69,-0.13 2.49,-0.39 0.82,-0.28 1.59,-0.71 2.31,-1.29 l 0.84,1.89 c -0.66,0.6 -1.51,1.08 -2.55,1.44 -1.02,0.34 -2.05,0.51 -3.09,0.51 z M 612.036,63 V 48.39 h 2.67 v 3.18 h -0.33 c 0.42,-1.14 1.1,-2 2.04,-2.58 0.96,-0.58 2.05,-0.87 3.27,-0.87 1.18,0 2.15,0.21 2.91,0.63 0.76,0.42 1.33,1.07 1.71,1.95 0.38,0.86 0.57,1.94 0.57,3.24 V 63 h -2.73 v -8.91 c 0,-0.86 -0.11,-1.57 -0.33,-2.13 -0.22,-0.56 -0.57,-0.97 -1.05,-1.23 -0.46,-0.26 -1.05,-0.39 -1.77,-0.39 -0.84,0 -1.58,0.18 -2.22,0.54 -0.64,0.36 -1.14,0.87 -1.5,1.53 -0.34,0.66 -0.51,1.43 -0.51,2.31 V 63 Z m 23.378,0.27 c -1.44,0 -2.69,-0.31 -3.75,-0.93 -1.06,-0.62 -1.88,-1.5 -2.46,-2.64 -0.58,-1.14 -0.87,-2.48 -0.87,-4.02 0,-1.54 0.29,-2.87 0.87,-3.99 0.58,-1.14 1.4,-2.02 2.46,-2.64 1.06,-0.62 2.31,-0.93 3.75,-0.93 1.44,0 2.69,0.31 3.75,0.93 1.06,0.62 1.88,1.5 2.46,2.64 0.58,1.12 0.87,2.45 0.87,3.99 0,1.54 -0.29,2.88 -0.87,4.02 -0.58,1.14 -1.4,2.02 -2.46,2.64 -1.06,0.62 -2.31,0.93 -3.75,0.93 z m 0,-2.16 c 1.32,0 2.37,-0.46 3.15,-1.38 0.78,-0.94 1.17,-2.29 1.17,-4.05 0,-1.76 -0.39,-3.1 -1.17,-4.02 -0.78,-0.92 -1.83,-1.38 -3.15,-1.38 -1.3,0 -2.35,0.46 -3.15,1.38 -0.78,0.92 -1.17,2.26 -1.17,4.02 0,1.76 0.39,3.11 1.17,4.05 0.8,0.92 1.85,1.38 3.15,1.38 z m 16.157,2.16 c -1.28,0 -2.41,-0.3 -3.39,-0.9 -0.96,-0.62 -1.71,-1.5 -2.25,-2.64 -0.54,-1.16 -0.81,-2.51 -0.81,-4.05 0,-1.56 0.26,-2.9 0.78,-4.02 0.54,-1.14 1.29,-2.01 2.25,-2.61 0.98,-0.62 2.12,-0.93 3.42,-0.93 1.3,0 2.42,0.33 3.36,0.99 0.94,0.64 1.57,1.5 1.89,2.58 h -0.33 v -9.84 h 2.73 V 63 h -2.7 v -3.39 h 0.3 c -0.3,1.12 -0.93,2.01 -1.89,2.67 -0.94,0.66 -2.06,0.99 -3.36,0.99 z m 0.63,-2.16 c 1.32,0 2.37,-0.46 3.15,-1.38 0.78,-0.94 1.17,-2.29 1.17,-4.05 0,-1.76 -0.39,-3.1 -1.17,-4.02 -0.78,-0.92 -1.83,-1.38 -3.15,-1.38 -1.3,0 -2.35,0.46 -3.15,1.38 -0.78,0.92 -1.17,2.26 -1.17,4.02 0,1.76 0.39,3.11 1.17,4.05 0.8,0.92 1.85,1.38 3.15,1.38 z m 18.147,2.16 c -1.58,0 -2.94,-0.3 -4.08,-0.9 -1.12,-0.62 -1.99,-1.49 -2.61,-2.61 -0.62,-1.14 -0.93,-2.48 -0.93,-4.02 0,-1.52 0.3,-2.85 0.9,-3.99 0.62,-1.14 1.46,-2.03 2.52,-2.67 1.08,-0.64 2.31,-0.96 3.69,-0.96 1.34,0 2.48,0.29 3.42,0.87 0.96,0.58 1.69,1.41 2.19,2.49 0.52,1.06 0.78,2.34 0.78,3.84 v 0.99 h -11.37 v -1.74 h 9.57 l -0.51,0.42 c 0,-1.56 -0.34,-2.76 -1.02,-3.6 -0.68,-0.86 -1.68,-1.29 -3,-1.29 -0.96,0 -1.78,0.23 -2.46,0.69 -0.68,0.44 -1.2,1.07 -1.56,1.89 -0.36,0.8 -0.54,1.73 -0.54,2.79 v 0.18 c 0,1.2 0.19,2.21 0.57,3.03 0.4,0.8 0.97,1.41 1.71,1.83 0.74,0.4 1.65,0.6 2.73,0.6 0.86,0 1.69,-0.13 2.49,-0.39 0.82,-0.28 1.59,-0.71 2.31,-1.29 l 0.84,1.89 c -0.66,0.6 -1.51,1.08 -2.55,1.44 -1.02,0.34 -2.05,0.51 -3.09,0.51 z m 14.316,0 c -0.76,0 -1.51,-0.07 -2.25,-0.21 -0.72,-0.14 -1.39,-0.34 -2.01,-0.6 -0.6,-0.28 -1.13,-0.61 -1.59,-0.99 l 0.81,-1.89 c 0.48,0.36 1,0.67 1.56,0.93 0.56,0.24 1.14,0.42 1.74,0.54 0.6,0.12 1.2,0.18 1.8,0.18 1.1,0 1.93,-0.2 2.49,-0.6 0.56,-0.4 0.84,-0.93 0.84,-1.59 0,-0.56 -0.19,-0.99 -0.57,-1.29 -0.36,-0.32 -0.93,-0.56 -1.71,-0.72 l -2.79,-0.57 c -1.24,-0.28 -2.18,-0.74 -2.82,-1.38 -0.62,-0.66 -0.93,-1.5 -0.93,-2.52 0,-0.9 0.24,-1.68 0.72,-2.34 0.5,-0.68 1.19,-1.2 2.07,-1.56 0.88,-0.36 1.89,-0.54 3.03,-0.54 0.68,0 1.34,0.07 1.98,0.21 0.64,0.14 1.24,0.34 1.8,0.6 0.56,0.26 1.03,0.6 1.41,1.02 l -0.84,1.86 c -0.38,-0.36 -0.81,-0.66 -1.29,-0.9 -0.48,-0.24 -0.98,-0.42 -1.5,-0.54 -0.52,-0.14 -1.04,-0.21 -1.56,-0.21 -1.08,0 -1.9,0.21 -2.46,0.63 -0.54,0.42 -0.81,0.97 -0.81,1.65 0,0.52 0.16,0.95 0.48,1.29 0.34,0.34 0.87,0.59 1.59,0.75 l 2.79,0.57 c 1.3,0.28 2.28,0.73 2.94,1.35 0.66,0.6 0.99,1.42 0.99,2.46 0,0.92 -0.25,1.71 -0.75,2.37 -0.48,0.66 -1.17,1.17 -2.07,1.53 -0.88,0.34 -1.91,0.51 -3.09,0.51 z"
     fill="#000000"
     id="path1067" />
  <rect
     x="296"
     y="107"
     width="178"
     height="298"
     rx="9"
     fill="#ffffff"
     stroke="url(#paint0_linear_447_3967)"
     stroke-width="2"
     id="rect1069"
     style="stroke:url(#paint0_linear_447_3967)" />
  <path
     d="m 347.108,265 v -13.636 h 2.492 v 2.968 h -0.308 c 0.392,-1.064 1.027,-1.867 1.904,-2.408 0.896,-0.541 1.914,-0.812 3.052,-0.812 1.102,0 2.007,0.196 2.716,0.588 0.71,0.392 1.242,0.999 1.596,1.82 0.355,0.803 0.532,1.811 0.532,3.024 V 265 h -2.548 v -8.316 c 0,-0.803 -0.102,-1.465 -0.308,-1.988 -0.205,-0.523 -0.532,-0.905 -0.98,-1.148 -0.429,-0.243 -0.98,-0.364 -1.652,-0.364 -0.784,0 -1.474,0.168 -2.072,0.504 -0.597,0.336 -1.064,0.812 -1.4,1.428 -0.317,0.616 -0.476,1.335 -0.476,2.156 V 265 Z m 21.82,0.252 c -1.344,0 -2.511,-0.289 -3.5,-0.868 -0.989,-0.579 -1.755,-1.4 -2.296,-2.464 -0.541,-1.064 -0.812,-2.315 -0.812,-3.752 0,-1.437 0.271,-2.679 0.812,-3.724 0.541,-1.064 1.307,-1.885 2.296,-2.464 0.989,-0.579 2.156,-0.868 3.5,-0.868 1.344,0 2.511,0.289 3.5,0.868 0.989,0.579 1.755,1.4 2.296,2.464 0.541,1.045 0.812,2.287 0.812,3.724 0,1.437 -0.271,2.688 -0.812,3.752 -0.541,1.064 -1.307,1.885 -2.296,2.464 -0.989,0.579 -2.156,0.868 -3.5,0.868 z m 0,-2.016 c 1.232,0 2.212,-0.429 2.94,-1.288 0.728,-0.877 1.092,-2.137 1.092,-3.78 0,-1.643 -0.364,-2.893 -1.092,-3.752 -0.728,-0.859 -1.708,-1.288 -2.94,-1.288 -1.213,0 -2.193,0.429 -2.94,1.288 -0.728,0.859 -1.092,2.109 -1.092,3.752 0,1.643 0.364,2.903 1.092,3.78 0.747,0.859 1.727,1.288 2.94,1.288 z m 15.08,2.016 c -1.195,0 -2.249,-0.28 -3.164,-0.84 -0.896,-0.579 -1.596,-1.4 -2.1,-2.464 -0.504,-1.083 -0.756,-2.343 -0.756,-3.78 0,-1.456 0.243,-2.707 0.728,-3.752 0.504,-1.064 1.204,-1.876 2.1,-2.436 0.915,-0.579 1.979,-0.868 3.192,-0.868 1.213,0 2.259,0.308 3.136,0.924 0.877,0.597 1.465,1.4 1.764,2.408 H 388.6 v -9.184 h 2.548 V 265 h -2.52 v -3.164 h 0.28 c -0.28,1.045 -0.868,1.876 -1.764,2.492 -0.877,0.616 -1.923,0.924 -3.136,0.924 z m 0.588,-2.016 c 1.232,0 2.212,-0.429 2.94,-1.288 0.728,-0.877 1.092,-2.137 1.092,-3.78 0,-1.643 -0.364,-2.893 -1.092,-3.752 -0.728,-0.859 -1.708,-1.288 -2.94,-1.288 -1.213,0 -2.193,0.429 -2.94,1.288 -0.728,0.859 -1.092,2.109 -1.092,3.752 0,1.643 0.364,2.903 1.092,3.78 0.747,0.859 1.727,1.288 2.94,1.288 z m 16.937,2.016 c -1.474,0 -2.744,-0.28 -3.808,-0.84 -1.045,-0.579 -1.857,-1.391 -2.436,-2.436 -0.578,-1.064 -0.868,-2.315 -0.868,-3.752 0,-1.419 0.28,-2.66 0.84,-3.724 0.579,-1.064 1.363,-1.895 2.352,-2.492 1.008,-0.597 2.156,-0.896 3.444,-0.896 1.251,0 2.315,0.271 3.192,0.812 0.896,0.541 1.578,1.316 2.044,2.324 0.486,0.989 0.728,2.184 0.728,3.584 v 0.924 h -10.612 v -1.624 h 8.932 l -0.476,0.392 c 0,-1.456 -0.317,-2.576 -0.952,-3.36 -0.634,-0.803 -1.568,-1.204 -2.8,-1.204 -0.896,0 -1.661,0.215 -2.296,0.644 -0.634,0.411 -1.12,0.999 -1.456,1.764 -0.336,0.747 -0.504,1.615 -0.504,2.604 v 0.168 c 0,1.12 0.178,2.063 0.532,2.828 0.374,0.747 0.906,1.316 1.596,1.708 0.691,0.373 1.54,0.56 2.548,0.56 0.803,0 1.578,-0.121 2.324,-0.364 0.766,-0.261 1.484,-0.663 2.156,-1.204 l 0.784,1.764 c -0.616,0.56 -1.409,1.008 -2.38,1.344 -0.952,0.317 -1.913,0.476 -2.884,0.476 z M 411.534,265 v -2.212 h 4.48 v -15.316 h 1.344 l -4.872,3.052 -1.064,-1.932 5.32,-3.332 h 1.876 v 17.528 h 4.2 V 265 Z"
     fill="#000000"
     id="path1071" />
  <rect
     x="496"
     y="107"
     width="178"
     height="298"
     rx="9"
     fill="#ffffff"
     stroke="url(#paint1_linear_447_3967)"
     stroke-width="2"
     id="rect1073"
     style="stroke:url(#paint1_linear_447_3967)" />
  <path
     d="m 547.108,265 v -13.636 h 2.492 v 2.968 h -0.308 c 0.392,-1.064 1.027,-1.867 1.904,-2.408 0.896,-0.541 1.914,-0.812 3.052,-0.812 1.102,0 2.007,0.196 2.716,0.588 0.71,0.392 1.242,0.999 1.596,1.82 0.355,0.803 0.532,1.811 0.532,3.024 V 265 h -2.548 v -8.316 c 0,-0.803 -0.102,-1.465 -0.308,-1.988 -0.205,-0.523 -0.532,-0.905 -0.98,-1.148 -0.429,-0.243 -0.98,-0.364 -1.652,-0.364 -0.784,0 -1.474,0.168 -2.072,0.504 -0.597,0.336 -1.064,0.812 -1.4,1.428 -0.317,0.616 -0.476,1.335 -0.476,2.156 V 265 Z m 21.82,0.252 c -1.344,0 -2.511,-0.289 -3.5,-0.868 -0.989,-0.579 -1.755,-1.4 -2.296,-2.464 -0.541,-1.064 -0.812,-2.315 -0.812,-3.752 0,-1.437 0.271,-2.679 0.812,-3.724 0.541,-1.064 1.307,-1.885 2.296,-2.464 0.989,-0.579 2.156,-0.868 3.5,-0.868 1.344,0 2.511,0.289 3.5,0.868 0.989,0.579 1.755,1.4 2.296,2.464 0.541,1.045 0.812,2.287 0.812,3.724 0,1.437 -0.271,2.688 -0.812,3.752 -0.541,1.064 -1.307,1.885 -2.296,2.464 -0.989,0.579 -2.156,0.868 -3.5,0.868 z m 0,-2.016 c 1.232,0 2.212,-0.429 2.94,-1.288 0.728,-0.877 1.092,-2.137 1.092,-3.78 0,-1.643 -0.364,-2.893 -1.092,-3.752 -0.728,-0.859 -1.708,-1.288 -2.94,-1.288 -1.213,0 -2.193,0.429 -2.94,1.288 -0.728,0.859 -1.092,2.109 -1.092,3.752 0,1.643 0.364,2.903 1.092,3.78 0.747,0.859 1.727,1.288 2.94,1.288 z m 15.08,2.016 c -1.195,0 -2.249,-0.28 -3.164,-0.84 -0.896,-0.579 -1.596,-1.4 -2.1,-2.464 -0.504,-1.083 -0.756,-2.343 -0.756,-3.78 0,-1.456 0.243,-2.707 0.728,-3.752 0.504,-1.064 1.204,-1.876 2.1,-2.436 0.915,-0.579 1.979,-0.868 3.192,-0.868 1.213,0 2.259,0.308 3.136,0.924 0.877,0.597 1.465,1.4 1.764,2.408 H 588.6 v -9.184 h 2.548 V 265 h -2.52 v -3.164 h 0.28 c -0.28,1.045 -0.868,1.876 -1.764,2.492 -0.877,0.616 -1.923,0.924 -3.136,0.924 z m 0.588,-2.016 c 1.232,0 2.212,-0.429 2.94,-1.288 0.728,-0.877 1.092,-2.137 1.092,-3.78 0,-1.643 -0.364,-2.893 -1.092,-3.752 -0.728,-0.859 -1.708,-1.288 -2.94,-1.288 -1.213,0 -2.193,0.429 -2.94,1.288 -0.728,0.859 -1.092,2.109 -1.092,3.752 0,1.643 0.364,2.903 1.092,3.78 0.747,0.859 1.727,1.288 2.94,1.288 z m 16.937,2.016 c -1.474,0 -2.744,-0.28 -3.808,-0.84 -1.045,-0.579 -1.857,-1.391 -2.436,-2.436 -0.578,-1.064 -0.868,-2.315 -0.868,-3.752 0,-1.419 0.28,-2.66 0.84,-3.724 0.579,-1.064 1.363,-1.895 2.352,-2.492 1.008,-0.597 2.156,-0.896 3.444,-0.896 1.251,0 2.315,0.271 3.192,0.812 0.896,0.541 1.578,1.316 2.044,2.324 0.486,0.989 0.728,2.184 0.728,3.584 v 0.924 h -10.612 v -1.624 h 8.932 l -0.476,0.392 c 0,-1.456 -0.317,-2.576 -0.952,-3.36 -0.634,-0.803 -1.568,-1.204 -2.8,-1.204 -0.896,0 -1.661,0.215 -2.296,0.644 -0.634,0.411 -1.12,0.999 -1.456,1.764 -0.336,0.747 -0.504,1.615 -0.504,2.604 v 0.168 c 0,1.12 0.178,2.063 0.532,2.828 0.374,0.747 0.906,1.316 1.596,1.708 0.691,0.373 1.54,0.56 2.548,0.56 0.803,0 1.578,-0.121 2.324,-0.364 0.766,-0.261 1.484,-0.663 2.156,-1.204 l 0.784,1.764 c -0.616,0.56 -1.409,1.008 -2.38,1.344 -0.952,0.317 -1.913,0.476 -2.884,0.476 z M 610.582,265 v -1.932 l 6.692,-7.196 c 0.616,-0.672 1.111,-1.297 1.484,-1.876 0.392,-0.597 0.682,-1.176 0.868,-1.736 0.187,-0.56 0.28,-1.12 0.28,-1.68 0,-1.083 -0.336,-1.904 -1.008,-2.464 -0.653,-0.579 -1.614,-0.868 -2.884,-0.868 -0.97,0 -1.894,0.187 -2.772,0.56 -0.858,0.355 -1.67,0.905 -2.436,1.652 l -0.952,-1.988 c 0.747,-0.747 1.69,-1.344 2.828,-1.792 1.139,-0.448 2.334,-0.672 3.584,-0.672 1.344,0 2.474,0.215 3.388,0.644 0.934,0.411 1.643,1.017 2.128,1.82 0.486,0.784 0.728,1.745 0.728,2.884 0,0.597 -0.074,1.185 -0.224,1.764 -0.149,0.56 -0.373,1.129 -0.672,1.708 -0.28,0.56 -0.644,1.139 -1.092,1.736 -0.429,0.597 -0.942,1.213 -1.54,1.848 l -5.796,6.132 v -0.756 h 10.108 V 265 Z"
     fill="#000000"
     id="path1075" />
  <rect
     x="696"
     y="107"
     width="178"
     height="298"
     rx="9"
     fill="#ffffff"
     stroke="url(#paint2_linear_447_3967)"
     stroke-width="2"
     id="rect1077"
     style="stroke:url(#paint2_linear_447_3967)" />
  <path
     d="m 747.108,265 v -13.636 h 2.492 v 2.968 h -0.308 c 0.392,-1.064 1.027,-1.867 1.904,-2.408 0.896,-0.541 1.914,-0.812 3.052,-0.812 1.102,0 2.007,0.196 2.716,0.588 0.71,0.392 1.242,0.999 1.596,1.82 0.355,0.803 0.532,1.811 0.532,3.024 V 265 h -2.548 v -8.316 c 0,-0.803 -0.102,-1.465 -0.308,-1.988 -0.205,-0.523 -0.532,-0.905 -0.98,-1.148 -0.429,-0.243 -0.98,-0.364 -1.652,-0.364 -0.784,0 -1.474,0.168 -2.072,0.504 -0.597,0.336 -1.064,0.812 -1.4,1.428 -0.317,0.616 -0.476,1.335 -0.476,2.156 V 265 Z m 21.82,0.252 c -1.344,0 -2.511,-0.289 -3.5,-0.868 -0.989,-0.579 -1.755,-1.4 -2.296,-2.464 -0.541,-1.064 -0.812,-2.315 -0.812,-3.752 0,-1.437 0.271,-2.679 0.812,-3.724 0.541,-1.064 1.307,-1.885 2.296,-2.464 0.989,-0.579 2.156,-0.868 3.5,-0.868 1.344,0 2.511,0.289 3.5,0.868 0.989,0.579 1.755,1.4 2.296,2.464 0.541,1.045 0.812,2.287 0.812,3.724 0,1.437 -0.271,2.688 -0.812,3.752 -0.541,1.064 -1.307,1.885 -2.296,2.464 -0.989,0.579 -2.156,0.868 -3.5,0.868 z m 0,-2.016 c 1.232,0 2.212,-0.429 2.94,-1.288 0.728,-0.877 1.092,-2.137 1.092,-3.78 0,-1.643 -0.364,-2.893 -1.092,-3.752 -0.728,-0.859 -1.708,-1.288 -2.94,-1.288 -1.213,0 -2.193,0.429 -2.94,1.288 -0.728,0.859 -1.092,2.109 -1.092,3.752 0,1.643 0.364,2.903 1.092,3.78 0.747,0.859 1.727,1.288 2.94,1.288 z m 15.08,2.016 c -1.195,0 -2.249,-0.28 -3.164,-0.84 -0.896,-0.579 -1.596,-1.4 -2.1,-2.464 -0.504,-1.083 -0.756,-2.343 -0.756,-3.78 0,-1.456 0.243,-2.707 0.728,-3.752 0.504,-1.064 1.204,-1.876 2.1,-2.436 0.915,-0.579 1.979,-0.868 3.192,-0.868 1.213,0 2.259,0.308 3.136,0.924 0.877,0.597 1.465,1.4 1.764,2.408 H 788.6 v -9.184 h 2.548 V 265 h -2.52 v -3.164 h 0.28 c -0.28,1.045 -0.868,1.876 -1.764,2.492 -0.877,0.616 -1.923,0.924 -3.136,0.924 z m 0.588,-2.016 c 1.232,0 2.212,-0.429 2.94,-1.288 0.728,-0.877 1.092,-2.137 1.092,-3.78 0,-1.643 -0.364,-2.893 -1.092,-3.752 -0.728,-0.859 -1.708,-1.288 -2.94,-1.288 -1.213,0 -2.193,0.429 -2.94,1.288 -0.728,0.859 -1.092,2.109 -1.092,3.752 0,1.643 0.364,2.903 1.092,3.78 0.747,0.859 1.727,1.288 2.94,1.288 z m 16.937,2.016 c -1.474,0 -2.744,-0.28 -3.808,-0.84 -1.045,-0.579 -1.857,-1.391 -2.436,-2.436 -0.578,-1.064 -0.868,-2.315 -0.868,-3.752 0,-1.419 0.28,-2.66 0.84,-3.724 0.579,-1.064 1.363,-1.895 2.352,-2.492 1.008,-0.597 2.156,-0.896 3.444,-0.896 1.251,0 2.315,0.271 3.192,0.812 0.896,0.541 1.578,1.316 2.044,2.324 0.486,0.989 0.728,2.184 0.728,3.584 v 0.924 h -10.612 v -1.624 h 8.932 l -0.476,0.392 c 0,-1.456 -0.317,-2.576 -0.952,-3.36 -0.634,-0.803 -1.568,-1.204 -2.8,-1.204 -0.896,0 -1.661,0.215 -2.296,0.644 -0.634,0.411 -1.12,0.999 -1.456,1.764 -0.336,0.747 -0.504,1.615 -0.504,2.604 v 0.168 c 0,1.12 0.178,2.063 0.532,2.828 0.374,0.747 0.906,1.316 1.596,1.708 0.691,0.373 1.54,0.56 2.548,0.56 0.803,0 1.578,-0.121 2.324,-0.364 0.766,-0.261 1.484,-0.663 2.156,-1.204 l 0.784,1.764 c -0.616,0.56 -1.409,1.008 -2.38,1.344 -0.952,0.317 -1.913,0.476 -2.884,0.476 z m 14.761,0 c -0.877,0 -1.726,-0.084 -2.548,-0.252 -0.821,-0.187 -1.596,-0.448 -2.324,-0.784 -0.709,-0.355 -1.334,-0.784 -1.876,-1.288 l 0.924,-2.016 c 0.896,0.728 1.811,1.26 2.744,1.596 0.934,0.336 1.932,0.504 2.996,0.504 0.915,0 1.69,-0.131 2.324,-0.392 0.635,-0.28 1.111,-0.681 1.428,-1.204 0.336,-0.541 0.504,-1.185 0.504,-1.932 0,-1.12 -0.364,-1.96 -1.092,-2.52 -0.728,-0.579 -1.792,-0.868 -3.192,-0.868 h -2.968 v -2.184 h 2.744 c 0.822,0 1.522,-0.14 2.1,-0.42 0.579,-0.299 1.027,-0.709 1.344,-1.232 0.336,-0.523 0.504,-1.157 0.504,-1.904 0,-1.008 -0.326,-1.773 -0.98,-2.296 -0.653,-0.541 -1.596,-0.812 -2.828,-0.812 -1.008,0 -1.95,0.187 -2.828,0.56 -0.858,0.355 -1.68,0.905 -2.464,1.652 l -0.924,-1.988 c 0.747,-0.784 1.69,-1.391 2.828,-1.82 1.158,-0.429 2.352,-0.644 3.584,-0.644 1.288,0 2.39,0.205 3.304,0.616 0.934,0.411 1.643,0.999 2.128,1.764 0.486,0.747 0.728,1.652 0.728,2.716 0,1.213 -0.336,2.259 -1.008,3.136 -0.653,0.859 -1.558,1.428 -2.716,1.708 v -0.308 c 0.915,0.168 1.69,0.476 2.324,0.924 0.654,0.448 1.148,1.017 1.484,1.708 0.336,0.691 0.504,1.484 0.504,2.38 0,1.139 -0.28,2.137 -0.84,2.996 -0.541,0.84 -1.316,1.484 -2.324,1.932 -1.008,0.448 -2.202,0.672 -3.584,0.672 z"
     fill="#000000"
     id="path1079" />
  <rect
     width="160"
     height="58"
     rx="10"
     transform="scale(-1,1)"
     fill="url(#paint3_radial_447_3967)"
     id="rect1081"
     x="-465"
     y="318"
     style="fill:url(#paint3_radial_447_3967)" />
  <rect
     width="160"
     height="58"
     rx="10"
     transform="scale(-1,1)"
     fill="#000000"
     fill-opacity="0.08"
     id="rect1083"
     x="-465"
     y="318" />
  <path
     d="m 352.162,355.225 c -0.917,0 -1.792,-0.075 -2.625,-0.225 -0.817,-0.167 -1.575,-0.4 -2.275,-0.7 -0.684,-0.317 -1.292,-0.692 -1.825,-1.125 l 0.825,-2.05 c 0.566,0.417 1.15,0.767 1.75,1.05 0.6,0.283 1.241,0.5 1.925,0.65 0.683,0.133 1.425,0.2 2.225,0.2 1.416,0 2.458,-0.25 3.125,-0.75 0.683,-0.517 1.025,-1.183 1.025,-2 0,-0.45 -0.109,-0.833 -0.325,-1.15 -0.2,-0.317 -0.534,-0.583 -1,-0.8 -0.467,-0.233 -1.075,-0.425 -1.825,-0.575 l -2.675,-0.55 c -1.584,-0.333 -2.767,-0.883 -3.55,-1.65 -0.767,-0.767 -1.15,-1.8 -1.15,-3.1 0,-1.067 0.283,-2 0.85,-2.8 0.566,-0.8 1.341,-1.417 2.325,-1.85 1,-0.433 2.15,-0.65 3.45,-0.65 0.8,0 1.558,0.083 2.275,0.25 0.733,0.15 1.408,0.383 2.025,0.7 0.633,0.317 1.183,0.7 1.65,1.15 l -0.85,1.975 c -0.717,-0.633 -1.492,-1.1 -2.325,-1.4 -0.834,-0.317 -1.767,-0.475 -2.8,-0.475 -0.817,0 -1.534,0.125 -2.15,0.375 -0.6,0.25 -1.067,0.6 -1.4,1.05 -0.317,0.45 -0.475,0.983 -0.475,1.6 0,0.7 0.225,1.258 0.675,1.675 0.45,0.417 1.2,0.733 2.25,0.95 l 2.65,0.55 c 1.666,0.35 2.908,0.892 3.725,1.625 0.816,0.733 1.225,1.708 1.225,2.925 0,1.017 -0.275,1.917 -0.825,2.7 -0.55,0.767 -1.325,1.367 -2.325,1.8 -1,0.417 -2.192,0.625 -3.575,0.625 z m 14.528,0 c -1.516,0 -2.658,-0.392 -3.425,-1.175 -0.75,-0.783 -1.125,-1.917 -1.125,-3.4 v -5.9 h -2.375 v -1.95 h 2.375 v -3.675 h 2.525 v 3.675 h 3.775 v 1.95 h -3.775 v 5.7 c 0,0.883 0.184,1.55 0.55,2 0.384,0.45 1,0.675 1.85,0.675 0.25,0 0.5,-0.033 0.75,-0.1 0.267,-0.067 0.525,-0.133 0.775,-0.2 l 0.4,1.9 c -0.25,0.15 -0.6,0.267 -1.05,0.35 -0.433,0.1 -0.85,0.15 -1.25,0.15 z m 9.109,0 c -1.233,0 -2.3,-0.258 -3.2,-0.775 -0.883,-0.517 -1.575,-1.25 -2.075,-2.2 -0.5,-0.95 -0.75,-2.067 -0.75,-3.35 0,-1.3 0.25,-2.417 0.75,-3.35 0.5,-0.95 1.192,-1.683 2.075,-2.2 0.9,-0.517 1.967,-0.775 3.2,-0.775 1.217,0 2.267,0.258 3.15,0.775 0.9,0.517 1.6,1.25 2.1,2.2 0.5,0.95 0.75,2.067 0.75,3.35 0,1.283 -0.25,2.4 -0.75,3.35 -0.5,0.95 -1.2,1.683 -2.1,2.2 -0.883,0.517 -1.933,0.775 -3.15,0.775 z m -0.025,-1.95 c 1.05,0 1.892,-0.375 2.525,-1.125 0.633,-0.75 0.95,-1.833 0.95,-3.25 0,-1.433 -0.317,-2.517 -0.95,-3.25 -0.633,-0.733 -1.475,-1.1 -2.525,-1.1 -1.033,0 -1.867,0.367 -2.5,1.1 -0.633,0.733 -0.95,1.817 -0.95,3.25 0,1.417 0.317,2.5 0.95,3.25 0.633,0.75 1.467,1.125 2.5,1.125 z m 8.861,1.725 v -12.2 h 2.45 v 2.925 h -0.25 c 0.267,-1 0.742,-1.758 1.425,-2.275 0.7,-0.517 1.625,-0.817 2.775,-0.9 l 0.825,-0.05 0.175,2.15 -1.525,0.15 c -1.083,0.1 -1.908,0.442 -2.475,1.025 -0.567,0.583 -0.85,1.383 -0.85,2.4 V 355 Z m 13.104,0.225 c -0.85,0 -1.617,-0.167 -2.3,-0.5 -0.667,-0.333 -1.192,-0.783 -1.575,-1.35 -0.383,-0.567 -0.575,-1.208 -0.575,-1.925 0,-0.9 0.225,-1.608 0.675,-2.125 0.467,-0.533 1.225,-0.908 2.275,-1.125 1.067,-0.233 2.5,-0.35 4.3,-0.35 h 1.175 v 1.55 h -1.15 c -0.9,0 -1.658,0.033 -2.275,0.1 -0.617,0.067 -1.108,0.175 -1.475,0.325 -0.367,0.133 -0.633,0.325 -0.8,0.575 -0.15,0.25 -0.225,0.55 -0.225,0.9 0,0.633 0.217,1.15 0.65,1.55 0.433,0.383 1.033,0.575 1.8,0.575 0.617,0 1.158,-0.142 1.625,-0.425 0.467,-0.3 0.833,-0.7 1.1,-1.2 0.283,-0.5 0.425,-1.075 0.425,-1.725 V 347.2 c 0,-0.95 -0.2,-1.633 -0.6,-2.05 -0.4,-0.417 -1.058,-0.625 -1.975,-0.625 -0.7,0 -1.4,0.108 -2.1,0.325 -0.7,0.2 -1.417,0.525 -2.15,0.975 l -0.775,-1.775 c 0.433,-0.3 0.933,-0.558 1.5,-0.775 0.567,-0.217 1.158,-0.383 1.775,-0.5 0.633,-0.133 1.242,-0.2 1.825,-0.2 1.117,0 2.033,0.175 2.75,0.525 0.733,0.35 1.275,0.883 1.625,1.6 0.35,0.717 0.525,1.642 0.525,2.775 V 355 h -2.375 v -2.725 h 0.225 c -0.133,0.617 -0.383,1.15 -0.75,1.6 -0.35,0.433 -0.792,0.767 -1.325,1 -0.533,0.233 -1.142,0.35 -1.825,0.35 z m 15.053,4.5 c -1.1,0 -2.125,-0.133 -3.075,-0.4 -0.95,-0.267 -1.792,-0.667 -2.525,-1.2 l 0.775,-1.8 c 0.483,0.317 0.975,0.583 1.475,0.8 0.516,0.233 1.033,0.4 1.55,0.5 0.533,0.1 1.075,0.15 1.625,0.15 1.166,0 2.041,-0.3 2.625,-0.9 0.583,-0.583 0.875,-1.45 0.875,-2.6 v -2.55 h 0.225 c -0.25,0.917 -0.775,1.642 -1.575,2.175 -0.8,0.533 -1.725,0.8 -2.775,0.8 -1.1,0 -2.059,-0.25 -2.875,-0.75 -0.817,-0.517 -1.45,-1.225 -1.9,-2.125 -0.45,-0.917 -0.675,-1.983 -0.675,-3.2 0,-1.217 0.225,-2.275 0.675,-3.175 0.45,-0.9 1.083,-1.6 1.9,-2.1 0.816,-0.517 1.775,-0.775 2.875,-0.775 1.066,0 1.991,0.267 2.775,0.8 0.8,0.533 1.316,1.258 1.55,2.175 h -0.2 v -2.75 h 2.45 v 11.175 c 0,1.267 -0.217,2.325 -0.65,3.175 -0.434,0.867 -1.084,1.508 -1.95,1.925 -0.85,0.433 -1.909,0.65 -3.175,0.65 z m -0.2,-7 c 1.083,0 1.933,-0.367 2.55,-1.1 0.633,-0.733 0.95,-1.733 0.95,-3 0,-1.25 -0.317,-2.242 -0.95,-2.975 -0.617,-0.733 -1.467,-1.1 -2.55,-1.1 -1.067,0 -1.917,0.367 -2.55,1.1 -0.634,0.733 -0.95,1.725 -0.95,2.975 0,1.267 0.316,2.267 0.95,3 0.633,0.733 1.483,1.1 2.55,1.1 z m 15.243,2.5 c -1.333,0 -2.483,-0.25 -3.45,-0.75 -0.95,-0.517 -1.691,-1.242 -2.225,-2.175 -0.516,-0.95 -0.775,-2.075 -0.775,-3.375 0,-1.267 0.259,-2.375 0.775,-3.325 0.517,-0.95 1.225,-1.692 2.125,-2.225 0.9,-0.533 1.925,-0.8 3.075,-0.8 1.134,0 2.1,0.25 2.9,0.75 0.817,0.483 1.442,1.175 1.875,2.075 0.434,0.9 0.65,1.975 0.65,3.225 v 0.85 h -9.4 v -1.55 h 7.7 l -0.425,0.35 c 0,-1.25 -0.275,-2.217 -0.825,-2.9 -0.55,-0.683 -1.341,-1.025 -2.375,-1.025 -0.783,0 -1.45,0.183 -2,0.55 -0.533,0.367 -0.941,0.875 -1.225,1.525 -0.283,0.65 -0.425,1.408 -0.425,2.275 v 0.15 c 0,0.967 0.15,1.783 0.45,2.45 0.317,0.65 0.775,1.142 1.375,1.475 0.6,0.333 1.342,0.5 2.225,0.5 0.7,0 1.384,-0.108 2.05,-0.325 0.684,-0.233 1.325,-0.592 1.925,-1.075 l 0.75,1.75 c -0.55,0.5 -1.258,0.892 -2.125,1.175 -0.866,0.283 -1.741,0.425 -2.625,0.425 z"
     fill="#ffffff"
     id="path1085" />
  <rect
     width="160"
     height="58"
     rx="10"
     transform="scale(-1,1)"
     fill="url(#paint4_radial_447_3967)"
     id="rect1087"
     x="-665"
     y="318"
     style="fill:url(#paint4_radial_447_3967)" />
  <rect
     width="160"
     height="58"
     rx="10"
     transform="scale(-1,1)"
     fill="#000000"
     fill-opacity="0.08"
     id="rect1089"
     x="-665"
     y="318" />
  <path
     d="m 552.162,355.225 c -0.917,0 -1.792,-0.075 -2.625,-0.225 -0.817,-0.167 -1.575,-0.4 -2.275,-0.7 -0.684,-0.317 -1.292,-0.692 -1.825,-1.125 l 0.825,-2.05 c 0.566,0.417 1.15,0.767 1.75,1.05 0.6,0.283 1.241,0.5 1.925,0.65 0.683,0.133 1.425,0.2 2.225,0.2 1.416,0 2.458,-0.25 3.125,-0.75 0.683,-0.517 1.025,-1.183 1.025,-2 0,-0.45 -0.109,-0.833 -0.325,-1.15 -0.2,-0.317 -0.534,-0.583 -1,-0.8 -0.467,-0.233 -1.075,-0.425 -1.825,-0.575 l -2.675,-0.55 c -1.584,-0.333 -2.767,-0.883 -3.55,-1.65 -0.767,-0.767 -1.15,-1.8 -1.15,-3.1 0,-1.067 0.283,-2 0.85,-2.8 0.566,-0.8 1.341,-1.417 2.325,-1.85 1,-0.433 2.15,-0.65 3.45,-0.65 0.8,0 1.558,0.083 2.275,0.25 0.733,0.15 1.408,0.383 2.025,0.7 0.633,0.317 1.183,0.7 1.65,1.15 l -0.85,1.975 c -0.717,-0.633 -1.492,-1.1 -2.325,-1.4 -0.834,-0.317 -1.767,-0.475 -2.8,-0.475 -0.817,0 -1.534,0.125 -2.15,0.375 -0.6,0.25 -1.067,0.6 -1.4,1.05 -0.317,0.45 -0.475,0.983 -0.475,1.6 0,0.7 0.225,1.258 0.675,1.675 0.45,0.417 1.2,0.733 2.25,0.95 l 2.65,0.55 c 1.666,0.35 2.908,0.892 3.725,1.625 0.816,0.733 1.225,1.708 1.225,2.925 0,1.017 -0.275,1.917 -0.825,2.7 -0.55,0.767 -1.325,1.367 -2.325,1.8 -1,0.417 -2.192,0.625 -3.575,0.625 z m 14.528,0 c -1.516,0 -2.658,-0.392 -3.425,-1.175 -0.75,-0.783 -1.125,-1.917 -1.125,-3.4 v -5.9 h -2.375 v -1.95 h 2.375 v -3.675 h 2.525 v 3.675 h 3.775 v 1.95 h -3.775 v 5.7 c 0,0.883 0.184,1.55 0.55,2 0.384,0.45 1,0.675 1.85,0.675 0.25,0 0.5,-0.033 0.75,-0.1 0.267,-0.067 0.525,-0.133 0.775,-0.2 l 0.4,1.9 c -0.25,0.15 -0.6,0.267 -1.05,0.35 -0.433,0.1 -0.85,0.15 -1.25,0.15 z m 9.109,0 c -1.233,0 -2.3,-0.258 -3.2,-0.775 -0.883,-0.517 -1.575,-1.25 -2.075,-2.2 -0.5,-0.95 -0.75,-2.067 -0.75,-3.35 0,-1.3 0.25,-2.417 0.75,-3.35 0.5,-0.95 1.192,-1.683 2.075,-2.2 0.9,-0.517 1.967,-0.775 3.2,-0.775 1.217,0 2.267,0.258 3.15,0.775 0.9,0.517 1.6,1.25 2.1,2.2 0.5,0.95 0.75,2.067 0.75,3.35 0,1.283 -0.25,2.4 -0.75,3.35 -0.5,0.95 -1.2,1.683 -2.1,2.2 -0.883,0.517 -1.933,0.775 -3.15,0.775 z m -0.025,-1.95 c 1.05,0 1.892,-0.375 2.525,-1.125 0.633,-0.75 0.95,-1.833 0.95,-3.25 0,-1.433 -0.317,-2.517 -0.95,-3.25 -0.633,-0.733 -1.475,-1.1 -2.525,-1.1 -1.033,0 -1.867,0.367 -2.5,1.1 -0.633,0.733 -0.95,1.817 -0.95,3.25 0,1.417 0.317,2.5 0.95,3.25 0.633,0.75 1.467,1.125 2.5,1.125 z m 8.861,1.725 v -12.2 h 2.45 v 2.925 h -0.25 c 0.267,-1 0.742,-1.758 1.425,-2.275 0.7,-0.517 1.625,-0.817 2.775,-0.9 l 0.825,-0.05 0.175,2.15 -1.525,0.15 c -1.083,0.1 -1.908,0.442 -2.475,1.025 -0.567,0.583 -0.85,1.383 -0.85,2.4 V 355 Z m 13.104,0.225 c -0.85,0 -1.617,-0.167 -2.3,-0.5 -0.667,-0.333 -1.192,-0.783 -1.575,-1.35 -0.383,-0.567 -0.575,-1.208 -0.575,-1.925 0,-0.9 0.225,-1.608 0.675,-2.125 0.467,-0.533 1.225,-0.908 2.275,-1.125 1.067,-0.233 2.5,-0.35 4.3,-0.35 h 1.175 v 1.55 h -1.15 c -0.9,0 -1.658,0.033 -2.275,0.1 -0.617,0.067 -1.108,0.175 -1.475,0.325 -0.367,0.133 -0.633,0.325 -0.8,0.575 -0.15,0.25 -0.225,0.55 -0.225,0.9 0,0.633 0.217,1.15 0.65,1.55 0.433,0.383 1.033,0.575 1.8,0.575 0.617,0 1.158,-0.142 1.625,-0.425 0.467,-0.3 0.833,-0.7 1.1,-1.2 0.283,-0.5 0.425,-1.075 0.425,-1.725 V 347.2 c 0,-0.95 -0.2,-1.633 -0.6,-2.05 -0.4,-0.417 -1.058,-0.625 -1.975,-0.625 -0.7,0 -1.4,0.108 -2.1,0.325 -0.7,0.2 -1.417,0.525 -2.15,0.975 l -0.775,-1.775 c 0.433,-0.3 0.933,-0.558 1.5,-0.775 0.567,-0.217 1.158,-0.383 1.775,-0.5 0.633,-0.133 1.242,-0.2 1.825,-0.2 1.117,0 2.033,0.175 2.75,0.525 0.733,0.35 1.275,0.883 1.625,1.6 0.35,0.717 0.525,1.642 0.525,2.775 V 355 h -2.375 v -2.725 h 0.225 c -0.133,0.617 -0.383,1.15 -0.75,1.6 -0.35,0.433 -0.792,0.767 -1.325,1 -0.533,0.233 -1.142,0.35 -1.825,0.35 z m 15.053,4.5 c -1.1,0 -2.125,-0.133 -3.075,-0.4 -0.95,-0.267 -1.792,-0.667 -2.525,-1.2 l 0.775,-1.8 c 0.483,0.317 0.975,0.583 1.475,0.8 0.516,0.233 1.033,0.4 1.55,0.5 0.533,0.1 1.075,0.15 1.625,0.15 1.166,0 2.041,-0.3 2.625,-0.9 0.583,-0.583 0.875,-1.45 0.875,-2.6 v -2.55 h 0.225 c -0.25,0.917 -0.775,1.642 -1.575,2.175 -0.8,0.533 -1.725,0.8 -2.775,0.8 -1.1,0 -2.059,-0.25 -2.875,-0.75 -0.817,-0.517 -1.45,-1.225 -1.9,-2.125 -0.45,-0.917 -0.675,-1.983 -0.675,-3.2 0,-1.217 0.225,-2.275 0.675,-3.175 0.45,-0.9 1.083,-1.6 1.9,-2.1 0.816,-0.517 1.775,-0.775 2.875,-0.775 1.066,0 1.991,0.267 2.775,0.8 0.8,0.533 1.316,1.258 1.55,2.175 h -0.2 v -2.75 h 2.45 v 11.175 c 0,1.267 -0.217,2.325 -0.65,3.175 -0.434,0.867 -1.084,1.508 -1.95,1.925 -0.85,0.433 -1.909,0.65 -3.175,0.65 z m -0.2,-7 c 1.083,0 1.933,-0.367 2.55,-1.1 0.633,-0.733 0.95,-1.733 0.95,-3 0,-1.25 -0.317,-2.242 -0.95,-2.975 -0.617,-0.733 -1.467,-1.1 -2.55,-1.1 -1.067,0 -1.917,0.367 -2.55,1.1 -0.634,0.733 -0.95,1.725 -0.95,2.975 0,1.267 0.316,2.267 0.95,3 0.633,0.733 1.483,1.1 2.55,1.1 z m 15.243,2.5 c -1.333,0 -2.483,-0.25 -3.45,-0.75 -0.95,-0.517 -1.691,-1.242 -2.225,-2.175 -0.516,-0.95 -0.775,-2.075 -0.775,-3.375 0,-1.267 0.259,-2.375 0.775,-3.325 0.517,-0.95 1.225,-1.692 2.125,-2.225 0.9,-0.533 1.925,-0.8 3.075,-0.8 1.134,0 2.1,0.25 2.9,0.75 0.817,0.483 1.442,1.175 1.875,2.075 0.434,0.9 0.65,1.975 0.65,3.225 v 0.85 h -9.4 v -1.55 h 7.7 l -0.425,0.35 c 0,-1.25 -0.275,-2.217 -0.825,-2.9 -0.55,-0.683 -1.341,-1.025 -2.375,-1.025 -0.783,0 -1.45,0.183 -2,0.55 -0.533,0.367 -0.941,0.875 -1.225,1.525 -0.283,0.65 -0.425,1.408 -0.425,2.275 v 0.15 c 0,0.967 0.15,1.783 0.45,2.45 0.317,0.65 0.775,1.142 1.375,1.475 0.6,0.333 1.342,0.5 2.225,0.5 0.7,0 1.384,-0.108 2.05,-0.325 0.684,-0.233 1.325,-0.592 1.925,-1.075 l 0.75,1.75 c -0.55,0.5 -1.258,0.892 -2.125,1.175 -0.866,0.283 -1.741,0.425 -2.625,0.425 z"
     fill="#ffffff"
     id="path1091" />
  <rect
     width="160"
     height="58"
     rx="10"
     transform="scale(-1,1)"
     fill="url(#paint5_radial_447_3967)"
     id="rect1093"
     x="-865"
     y="318"
     style="fill:url(#paint5_radial_447_3967)" />
  <rect
     width="160"
     height="58"
     rx="10"
     transform="scale(-1,1)"
     fill="#000000"
     fill-opacity="0.08"
     id="rect1095"
     x="-865"
     y="318" />
  <path
     d="m 752.162,355.225 c -0.917,0 -1.792,-0.075 -2.625,-0.225 -0.817,-0.167 -1.575,-0.4 -2.275,-0.7 -0.684,-0.317 -1.292,-0.692 -1.825,-1.125 l 0.825,-2.05 c 0.566,0.417 1.15,0.767 1.75,1.05 0.6,0.283 1.241,0.5 1.925,0.65 0.683,0.133 1.425,0.2 2.225,0.2 1.416,0 2.458,-0.25 3.125,-0.75 0.683,-0.517 1.025,-1.183 1.025,-2 0,-0.45 -0.109,-0.833 -0.325,-1.15 -0.2,-0.317 -0.534,-0.583 -1,-0.8 -0.467,-0.233 -1.075,-0.425 -1.825,-0.575 l -2.675,-0.55 c -1.584,-0.333 -2.767,-0.883 -3.55,-1.65 -0.767,-0.767 -1.15,-1.8 -1.15,-3.1 0,-1.067 0.283,-2 0.85,-2.8 0.566,-0.8 1.341,-1.417 2.325,-1.85 1,-0.433 2.15,-0.65 3.45,-0.65 0.8,0 1.558,0.083 2.275,0.25 0.733,0.15 1.408,0.383 2.025,0.7 0.633,0.317 1.183,0.7 1.65,1.15 l -0.85,1.975 c -0.717,-0.633 -1.492,-1.1 -2.325,-1.4 -0.834,-0.317 -1.767,-0.475 -2.8,-0.475 -0.817,0 -1.534,0.125 -2.15,0.375 -0.6,0.25 -1.067,0.6 -1.4,1.05 -0.317,0.45 -0.475,0.983 -0.475,1.6 0,0.7 0.225,1.258 0.675,1.675 0.45,0.417 1.2,0.733 2.25,0.95 l 2.65,0.55 c 1.666,0.35 2.908,0.892 3.725,1.625 0.816,0.733 1.225,1.708 1.225,2.925 0,1.017 -0.275,1.917 -0.825,2.7 -0.55,0.767 -1.325,1.367 -2.325,1.8 -1,0.417 -2.192,0.625 -3.575,0.625 z m 14.528,0 c -1.516,0 -2.658,-0.392 -3.425,-1.175 -0.75,-0.783 -1.125,-1.917 -1.125,-3.4 v -5.9 h -2.375 v -1.95 h 2.375 v -3.675 h 2.525 v 3.675 h 3.775 v 1.95 h -3.775 v 5.7 c 0,0.883 0.184,1.55 0.55,2 0.384,0.45 1,0.675 1.85,0.675 0.25,0 0.5,-0.033 0.75,-0.1 0.267,-0.067 0.525,-0.133 0.775,-0.2 l 0.4,1.9 c -0.25,0.15 -0.6,0.267 -1.05,0.35 -0.433,0.1 -0.85,0.15 -1.25,0.15 z m 9.109,0 c -1.233,0 -2.3,-0.258 -3.2,-0.775 -0.883,-0.517 -1.575,-1.25 -2.075,-2.2 -0.5,-0.95 -0.75,-2.067 -0.75,-3.35 0,-1.3 0.25,-2.417 0.75,-3.35 0.5,-0.95 1.192,-1.683 2.075,-2.2 0.9,-0.517 1.967,-0.775 3.2,-0.775 1.217,0 2.267,0.258 3.15,0.775 0.9,0.517 1.6,1.25 2.1,2.2 0.5,0.95 0.75,2.067 0.75,3.35 0,1.283 -0.25,2.4 -0.75,3.35 -0.5,0.95 -1.2,1.683 -2.1,2.2 -0.883,0.517 -1.933,0.775 -3.15,0.775 z m -0.025,-1.95 c 1.05,0 1.892,-0.375 2.525,-1.125 0.633,-0.75 0.95,-1.833 0.95,-3.25 0,-1.433 -0.317,-2.517 -0.95,-3.25 -0.633,-0.733 -1.475,-1.1 -2.525,-1.1 -1.033,0 -1.867,0.367 -2.5,1.1 -0.633,0.733 -0.95,1.817 -0.95,3.25 0,1.417 0.317,2.5 0.95,3.25 0.633,0.75 1.467,1.125 2.5,1.125 z m 8.861,1.725 v -12.2 h 2.45 v 2.925 h -0.25 c 0.267,-1 0.742,-1.758 1.425,-2.275 0.7,-0.517 1.625,-0.817 2.775,-0.9 l 0.825,-0.05 0.175,2.15 -1.525,0.15 c -1.083,0.1 -1.908,0.442 -2.475,1.025 -0.567,0.583 -0.85,1.383 -0.85,2.4 V 355 Z m 13.104,0.225 c -0.85,0 -1.617,-0.167 -2.3,-0.5 -0.667,-0.333 -1.192,-0.783 -1.575,-1.35 -0.383,-0.567 -0.575,-1.208 -0.575,-1.925 0,-0.9 0.225,-1.608 0.675,-2.125 0.467,-0.533 1.225,-0.908 2.275,-1.125 1.067,-0.233 2.5,-0.35 4.3,-0.35 h 1.175 v 1.55 h -1.15 c -0.9,0 -1.658,0.033 -2.275,0.1 -0.617,0.067 -1.108,0.175 -1.475,0.325 -0.367,0.133 -0.633,0.325 -0.8,0.575 -0.15,0.25 -0.225,0.55 -0.225,0.9 0,0.633 0.217,1.15 0.65,1.55 0.433,0.383 1.033,0.575 1.8,0.575 0.617,0 1.158,-0.142 1.625,-0.425 0.467,-0.3 0.833,-0.7 1.1,-1.2 0.283,-0.5 0.425,-1.075 0.425,-1.725 V 347.2 c 0,-0.95 -0.2,-1.633 -0.6,-2.05 -0.4,-0.417 -1.058,-0.625 -1.975,-0.625 -0.7,0 -1.4,0.108 -2.1,0.325 -0.7,0.2 -1.417,0.525 -2.15,0.975 l -0.775,-1.775 c 0.433,-0.3 0.933,-0.558 1.5,-0.775 0.567,-0.217 1.158,-0.383 1.775,-0.5 0.633,-0.133 1.242,-0.2 1.825,-0.2 1.117,0 2.033,0.175 2.75,0.525 0.733,0.35 1.275,0.883 1.625,1.6 0.35,0.717 0.525,1.642 0.525,2.775 V 355 h -2.375 v -2.725 h 0.225 c -0.133,0.617 -0.383,1.15 -0.75,1.6 -0.35,0.433 -0.792,0.767 -1.325,1 -0.533,0.233 -1.142,0.35 -1.825,0.35 z m 15.053,4.5 c -1.1,0 -2.125,-0.133 -3.075,-0.4 -0.95,-0.267 -1.792,-0.667 -2.525,-1.2 l 0.775,-1.8 c 0.483,0.317 0.975,0.583 1.475,0.8 0.516,0.233 1.033,0.4 1.55,0.5 0.533,0.1 1.075,0.15 1.625,0.15 1.166,0 2.041,-0.3 2.625,-0.9 0.583,-0.583 0.875,-1.45 0.875,-2.6 v -2.55 h 0.225 c -0.25,0.917 -0.775,1.642 -1.575,2.175 -0.8,0.533 -1.725,0.8 -2.775,0.8 -1.1,0 -2.059,-0.25 -2.875,-0.75 -0.817,-0.517 -1.45,-1.225 -1.9,-2.125 -0.45,-0.917 -0.675,-1.983 -0.675,-3.2 0,-1.217 0.225,-2.275 0.675,-3.175 0.45,-0.9 1.083,-1.6 1.9,-2.1 0.816,-0.517 1.775,-0.775 2.875,-0.775 1.066,0 1.991,0.267 2.775,0.8 0.8,0.533 1.316,1.258 1.55,2.175 h -0.2 v -2.75 h 2.45 v 11.175 c 0,1.267 -0.217,2.325 -0.65,3.175 -0.434,0.867 -1.084,1.508 -1.95,1.925 -0.85,0.433 -1.909,0.65 -3.175,0.65 z m -0.2,-7 c 1.083,0 1.933,-0.367 2.55,-1.1 0.633,-0.733 0.95,-1.733 0.95,-3 0,-1.25 -0.317,-2.242 -0.95,-2.975 -0.617,-0.733 -1.467,-1.1 -2.55,-1.1 -1.067,0 -1.917,0.367 -2.55,1.1 -0.634,0.733 -0.95,1.725 -0.95,2.975 0,1.267 0.316,2.267 0.95,3 0.633,0.733 1.483,1.1 2.55,1.1 z m 15.243,2.5 c -1.333,0 -2.483,-0.25 -3.45,-0.75 -0.95,-0.517 -1.691,-1.242 -2.225,-2.175 -0.516,-0.95 -0.775,-2.075 -0.775,-3.375 0,-1.267 0.259,-2.375 0.775,-3.325 0.517,-0.95 1.225,-1.692 2.125,-2.225 0.9,-0.533 1.925,-0.8 3.075,-0.8 1.134,0 2.1,0.25 2.9,0.75 0.817,0.483 1.442,1.175 1.875,2.075 0.434,0.9 0.65,1.975 0.65,3.225 v 0.85 h -9.4 v -1.55 h 7.7 l -0.425,0.35 c 0,-1.25 -0.275,-2.217 -0.825,-2.9 -0.55,-0.683 -1.341,-1.025 -2.375,-1.025 -0.783,0 -1.45,0.183 -2,0.55 -0.533,0.367 -0.941,0.875 -1.225,1.525 -0.283,0.65 -0.425,1.408 -0.425,2.275 v 0.15 c 0,0.967 0.15,1.783 0.45,2.45 0.317,0.65 0.775,1.142 1.375,1.475 0.6,0.333 1.342,0.5 2.225,0.5 0.7,0 1.384,-0.108 2.05,-0.325 0.684,-0.233 1.325,-0.592 1.925,-1.075 l 0.75,1.75 c -0.55,0.5 -1.258,0.892 -2.125,1.175 -0.866,0.283 -1.741,0.425 -2.625,0.425 z"
     fill="#ffffff"
     id="path1097" />
  <path
     d="M 785,466 H 385"
     stroke="#292449"
     stroke-width="2"
     stroke-dasharray="5, 5"
     id="path1099" />
  <path
     d="m 385,406 v 60"
     stroke="#292449"
     stroke-width="2"
     stroke-dasharray="5, 5"
     id="path1101" />
  <path
     d="m 585,406 v 60"
     stroke="#292449"
     stroke-width="2"
     stroke-dasharray="5, 5"
     id="path1103" />
  <path
     d="m 785,406 v 60"
     stroke="#292449"
     stroke-width="2"
     stroke-dasharray="5, 5"
     id="path1105" />
  <defs
     id="defs1149">
    <linearGradient
       id="paint0_linear_447_3967"
       x1="185"
       y1="106"
       x2="435.53"
       y2="212.58"
       gradientUnits="userSpaceOnUse"
       gradientTransform="translate(110)">
      <stop
         stop-color="#0185FF"
         id="stop1107" />
      <stop
         offset="1"
         stop-color="#01CDFF"
         id="stop1109" />
    </linearGradient>
    <linearGradient
       id="paint1_linear_447_3967"
       x1="385"
       y1="106"
       x2="635.53003"
       y2="212.58"
       gradientUnits="userSpaceOnUse"
       gradientTransform="translate(110)">
      <stop
         stop-color="#0185FF"
         id="stop1112" />
      <stop
         offset="1"
         stop-color="#01CDFF"
         id="stop1114" />
    </linearGradient>
    <linearGradient
       id="paint2_linear_447_3967"
       x1="585"
       y1="106"
       x2="835.53003"
       y2="212.58"
       gradientUnits="userSpaceOnUse"
       gradientTransform="translate(110)">
      <stop
         stop-color="#0185FF"
         id="stop1117" />
      <stop
         offset="1"
         stop-color="#01CDFF"
         id="stop1119" />
    </linearGradient>
    <radialGradient
       id="paint3_radial_447_3967"
       cx="0"
       cy="0"
       r="1"
       gradientUnits="userSpaceOnUse"
       gradientTransform="matrix(411.89138,100.84556,-62.560554,255.52094,-546.8605,286.6544)">
      <stop
         offset="0.0995467"
         stop-color="#B0E07F"
         id="stop1122" />
      <stop
         offset="0.344281"
         stop-color="#94DEE0"
         id="stop1124" />
      <stop
         offset="0.567519"
         stop-color="#5DA4EF"
         id="stop1126" />
      <stop
         offset="0.859602"
         stop-color="#591BBF"
         id="stop1128" />
    </radialGradient>
    <radialGradient
       id="paint4_radial_447_3967"
       cx="0"
       cy="0"
       r="1"
       gradientUnits="userSpaceOnUse"
       gradientTransform="matrix(411.89138,100.84556,-62.560554,255.52094,-746.8605,286.6544)">
      <stop
         offset="0.0995467"
         stop-color="#B0E07F"
         id="stop1131" />
      <stop
         offset="0.344281"
         stop-color="#94DEE0"
         id="stop1133" />
      <stop
         offset="0.567519"
         stop-color="#5DA4EF"
         id="stop1135" />
      <stop
         offset="0.859602"
         stop-color="#591BBF"
         id="stop1137" />
    </radialGradient>
    <radialGradient
       id="paint5_radial_447_3967"
       cx="0"
       cy="0"
       r="1"
       gradientUnits="userSpaceOnUse"
       gradientTransform="matrix(411.89138,100.84556,-62.560554,255.52094,-946.8605,286.6544)">
      <stop
         offset="0.0995467"
         stop-color="#B0E07F"
         id="stop1140" />
      <stop
         offset="0.344281"
         stop-color="#94DEE0"
         id="stop1142" />
      <stop
         offset="0.567519"
         stop-color="#5DA4EF"
         id="stop1144" />
      <stop
         offset="0.859602"
         stop-color="#591BBF"
         id="stop1146" />
    </radialGradient>
  </defs>
</svg>
