<svg id="Layer_1" data-name="Layer 1" xmlns="http://www.w3.org/2000/svg" viewBox="0 0 215 127"><defs><style>.cls-1{fill:#fbfbfb;}.cls-2{fill:#f48322;}.cls-3{fill:#f9a21d;}</style></defs><title>kubernetes.io-logos-ancestry</title><rect class="cls-1" x="-3.98862" y="-3.45836" width="223.25536" height="134.51136"/><path class="cls-2" d="M17.0189,62.05271A4.37831,4.37831,0,0,0,17.156,61.007c.03457-.041.08918-.077.10076-.12369A13.70889,13.70889,0,0,1,18.521,57.8355a3.63077,3.63077,0,0,0,.57089-.909,21.33863,21.33863,0,0,1,1.88671-1.93431c.18922-.14486.43569-.24755.54358-.48982a3.65754,3.65754,0,0,0,.91309-.56971c.64438-.316,1.27408-.6616,1.94907-.91477a6.50537,6.50537,0,0,0,1.229-.44664,4.34361,4.34361,0,0,0,1.04882-.1362,9.72515,9.72515,0,0,1,3.51028,0,4.39006,4.39006,0,0,0,1.04848.13677c.04113.03448.07724.08894.124.10049a13.78116,13.78116,0,0,1,3.05594,1.26088,3.6446,3.6446,0,0,0,.91144.56938,21.34471,21.34471,0,0,1,1.93947,1.88168c.14525.18872.24822.43452.49113.54215a3.61816,3.61816,0,0,0,.5708.90916c.31638.64324.66341,1.27138.91753,1.9448a6.46142,6.46142,0,0,0,.44793,1.22633c-.07508.36436.12546.69292.13657,1.046a10.02489,10.02489,0,0,1,.00023,3.5008c-.01155.35307-.21128.68156-.13734,1.04584-.03441.04046-.08868.07589-.10032.122a13.21464,13.21464,0,0,1-1.26467,3.04948,3.63158,3.63158,0,0,0-.57089.909,23.16118,23.16118,0,0,1-1.79844,1.84787,1.70552,1.70552,0,0,0-.63185.57625,3.51,3.51,0,0,0-.91308.56964c-.64421.31639-1.27413.66153-1.949.915a6.5,6.5,0,0,0-1.2291.44647,4.34377,4.34377,0,0,0-1.04883.13621,9.71309,9.71309,0,0,1-3.51025,0,4.3897,4.3897,0,0,0-1.04849-.13677c-.04111-.03447-.0772-.08893-.12395-.10048a13.742,13.742,0,0,1-3.05453-1.26057,3.6732,3.6732,0,0,0-.91293-.5697.62673.62673,0,0,0-.09319-.134,12.36576,12.36576,0,0,1-1.73157-1.62905,2.32385,2.32385,0,0,0-.60584-.66075,3.64646,3.64646,0,0,0-.57114-.91065c-.31681-.6427-.66347-1.27066-.91728-1.94388a6.46537,6.46537,0,0,0-.44783-1.22577,4.33243,4.33243,0,0,0-.13657-1.046A9.64876,9.64876,0,0,1,17.0189,62.05271Zm18.2289,1.78378a6.83057,6.83057,0,1,0-6.87438,6.779A6.82007,6.82007,0,0,0,35.2478,63.83649Z"/><path class="cls-2" d="M92.95744,63.94876c0-2.30726.00683-4.61456-.00769-6.92173-.00207-.32942.089-.41556.416-.41353q3.38687.021,6.77391.00152c.31005-.00149.44832.05749.4307.40669-.02989.59258-.02,1.18809-.003,1.78169.00777.27067-.0758.35242-.35228.34946-1.32972-.01424-2.6598.00393-3.98942-.014-.314-.00423-.3986.08389-.39016.39254q.03285,1.2011.00028,2.40359c-.00794.30394.06825.40048.38706.39563,1.26031-.01916,2.52121.00232,3.78157-.01514.308-.00426.41158.0723.39861.3892-.02485.60689-.0193,1.21585-.00178,1.82325.00791.274-.08185.35005-.35465.34707-1.27431-.01393-2.549.00493-3.82318-.014-.31781-.00471-.39307.09037-.38768.39494q.02784,1.57452-.00015,3.14977c-.00555.30678.07362.39786.38916.39349,1.31575-.01825,2.63205.00241,3.94783-.01509.31071-.00413.40955.07715.3966.39116-.02448.59308-.0172,1.18814-.00244,1.78186.00642.25823-.05619.36685-.34307.3656q-3.47-.01513-6.94014.00186c-.34774.00218-.32889-.17614-.32849-.41268Q92.961,67.43038,92.95744,63.94876Z"/><path class="cls-3" d="M201.1993,71.98861c-3.99434-4.01523-7.90413-7.94546-11.891-11.95324l0,.51273c0,3.44107-.0063,6.88218.00913,10.32318.00167.37025-.09535.49531-.46108.45115-.4083-.0493-.93958.1705-1.19962-.091-.23936-.24077-.06669-.76294-.0671-1.16045q-.00683-6.75777-.00284-13.51555l0-.57624L199.40314,67.877c.12317-.15725.07164-.31267.07179-.4519q.00541-5.1616-.00433-10.3232c-.00124-.35659.05626-.54271.46565-.487.4069.05537.94164-.17166,1.19721.09531.2328.24318.063.76487.06338,1.16329q.00588,6.77855.00244,13.55709Z"/><path class="cls-3" d="M181.0179,63.99376a7.54571,7.54571,0,0,1-5.10014,7.06129,8.2182,8.2182,0,0,1-9.22235-2.51672,7.3626,7.3626,0,0,1,1.43053-10.51893,8.11649,8.11649,0,0,1,12.31648,3.11353A6.90015,6.90015,0,0,1,181.0179,63.99376Zm-1.72686-.03333a6.22946,6.22946,0,1,0-6.24262,6.06245A6.1811,6.1811,0,0,0,179.291,63.96043Z"/><path class="cls-2" d="M81.12078,65.35255c.44868-1.13191.85876-2.16662,1.269-3.20128.686-1.7303,1.379-3.45792,2.05088-5.19365a.45111.45111,0,0,1,.51217-.3435c.78893.01929,1.57871.01279,2.368.00335.25665-.00307.35544.03214.23358.32061Q84.3832,64.44539,81.2258,71.95847a1.00707,1.00707,0,0,1-.06473.1105c-.16095-.05728-.16276-.21189-.21117-.32855q-3.0525-7.3545-6.10508-14.709c-.1274-.30615-.13688-.43164.26047-.41825.77468.0261,1.551.01692,2.32632.00243a.42256.42256,0,0,1,.47978.3254C78.9582,59.71333,80.0216,62.47939,81.12078,65.35255Z"/><path class="cls-3" d="M140.60311,64.76126l4.83612,6.55355c-.7134,0-1.3551.004-1.99671-.00235-.1991-.002-.26024-.18737-.35364-.31757q-2.09045-2.91406-4.17695-5.831a2.0994,2.0994,0,0,0-.17369-.23225.297.297,0,0,0-.312-.0474c-.17343.04754-.10755.20416-.10781.3149q-.00632,2.77708-.00309,5.55419c0,.56476-.00055.57747-.54929.56067-.38249-.01172-.89092.17636-1.11112-.08484-.18771-.22262-.06578-.71218-.066-1.08365-.00206-4.35217.0037-8.70435-.01015-13.05648-.00121-.38058.097-.488.4797-.47815a20.65172,20.65172,0,0,1,4.13729.23684,3.56408,3.56408,0,0,1,3.02753,2.55464c.64067,2.525-.55061,4.95371-3.473,5.31322A1.10191,1.10191,0,0,0,140.60311,64.76126Zm-2.28764-3.99181c0,.77218.00573,1.54443-.00364,2.31649-.00266.21952.04531.32325.2958.31945a11.72611,11.72611,0,0,0,1.73551-.10611,2.45744,2.45744,0,0,0,2.26183-3.145,2.05368,2.05368,0,0,0-1.514-1.736,8.18306,8.18306,0,0,0-2.4205-.26166c-.30251-.00378-.36719.10187-.36086.37909C138.32657,59.28,138.31538,60.02484,138.31547,60.76945Z"/><path class="cls-2" d="M122.06247,63.92442c0-2.27937.00715-4.55879-.00762-6.83807-.00224-.34656.06119-.47636.44706-.47327,2.36842.01893,4.73707.01541,7.10556.00259.32585-.00176.45527.08541.41389.4168-.04556.365.15957.855-.08875,1.06647-.21189.18041-.686.06211-1.04409.0628-1.579.00305-3.15816.0094-4.737-.0058-.297-.00286-.36743.08391-.36363.36992q.02388,1.80248-.00023,3.60538c-.00409.29418.084.367.37135.36494,1.759-.01286,3.51821.00107,5.2772-.01348.30853-.00255.43123.077.39789.39158-.03895.36789.1518.84022-.078,1.08164-.23172.24348-.70746.07578-1.075.07828-1.49586.01017-2.992.01509-4.48765-.00409-.33542-.0043-.40917.09737-.40619.41534q.02337,2.48637.00012,4.97306c-.00264.29555.08315.36515.37036.36307,1.80055-.01307,3.60145.007,5.40178-.0171.39828-.00531.50281.12166.46364.48524a3.98312,3.98312,0,0,0-.00083.74509c.02157.26566-.09588.325-.33806.32438q-3.63591-.00935-7.27185.00259c-.31358.00149-.35561-.12727-.35468-.39346C122.06592,68.59371,122.06248,66.25906,122.06247,63.92442Z"/><path class="cls-3" d="M155.44455,56.357a4.44286,4.44286,0,0,1,3.77061,2.00243c.1461.21579.16787.36677-.10367.47364a.23965.23965,0,0,0-.03571.02114c-.31792.19591-.62317.52056-.95717.55328-.36856.03611-.47358-.4768-.72541-.72246a2.77027,2.77027,0,0,0-4.28966.52806,1.78008,1.78008,0,0,0,.49849,2.338,6.961,6.961,0,0,0,1.70892.92457c.7994.3457,1.60349.67824,2.37965,1.07788,3.3155,1.70709,2.50553,5.46286.5195,6.97936-2.47521,1.89-6.72989,1.19752-7.75766-2.38471-.08973-.31269-.051-.47313.28486-.51063a.27666.27666,0,0,0,.0403-.01c.374-.1005.777-.33685,1.11435-.26531.37568.07967.28879.62523.45883.94743a3.06741,3.06741,0,0,0,3.11535,1.68632,3.0039,3.0039,0,0,0,2.71137-2.468,2.39087,2.39087,0,0,0-1.24943-2.50244,20.51777,20.51777,0,0,0-2.59153-1.208,11.76028,11.76028,0,0,1-1.47273-.76016,3.27829,3.27829,0,0,1-1.70042-3.263,3.5385,3.5385,0,0,1,2.19548-2.98838A5.08811,5.08811,0,0,1,155.44455,56.357Z"/><path class="cls-2" d="M54.19431,63.9506c0-2.30713.005-4.61429-.0062-6.92137-.00143-.29407.05289-.41425.38141-.40153.69156.02678,1.38546.02483,2.07723.00088.32977-.01142.4187.09147.41775.4177-.01092,3.74389.00012,7.48784-.017,11.23168-.00189.41326.08935.53831.51869.52437,1.06548-.0346,2.133-.00327,3.19937-.017.27067-.00347.3601.07264.35128.34878-.01982.621-.01507,1.24335-.00184,1.86475.005.23488-.07315.30811-.30786.30731-2.10548-.00718-4.211-.01147-6.31644.00326-.34224.00239-.297-.18849-.297-.396Q54.195,67.432,54.19431,63.9506Z"/><path class="cls-2" d="M109.82505,68.09217c0,.96731-.00841,1.93475.00564,2.90186.00371.25462-.06925.34224-.32678.3281a9.17994,9.17994,0,0,0-1.08013.00045c-.29066.01839-.341-.10753-.33736-.36351.013-.91185.00508-1.824.00508-2.736,0-3.71725.0055-7.43452-.00869-11.15171-.00139-.36315.08407-.4723.45613-.45868a30.68874,30.68874,0,0,1,4.22923.1521,3.89215,3.89215,0,0,1,3.2741,3.10753,4.06457,4.06457,0,0,1-1.70279,4.27308,5.42279,5.42279,0,0,1-2.81539.73335c-.42911.01338-.86.02035-1.28815-.00367-.31046-.01742-.4298.05414-.42.39836C109.84257,66.21232,109.82508,67.15249,109.82505,68.09217Zm.00008-7.34874c0,.759-.00152,1.518.00135,2.27694.00054.14135-.05059.32021.19926.31753a8.37134,8.37134,0,0,0,2.75249-.24732,2.35649,2.35649,0,0,0,1.61808-2.70225A2.17835,2.17835,0,0,0,112.51018,58.33a11.541,11.541,0,0,0-2.43532-.17193c-.25267-.00183-.253.12683-.25182.30842C109.8279,59.22545,109.82509,59.98445,109.82513,60.74343Z"/><path class="cls-2" d="M66.57135,63.96687c0-2.30619.00571-4.61241-.00671-6.91854-.0017-.316.06913-.43407.40849-.42047.67738.02714,1.35755.02931,2.0347-.00053.36253-.016.42622.116.42537.446q-.01611,6.25566-.0071,12.51138c0,.46952-.01468.93967.00542,1.40833.01175.27381-.11081.31647-.34464.313-.71984-.01081-1.44039-.01859-2.15975.003-.3061.00918-.3625-.10556-.36133-.38218C66.57558,68.60687,66.57137,66.28686,66.57135,63.96687Z"/><path class="cls-3" d="M18.521,57.8355a13.70889,13.70889,0,0,0-1.26423,3.04783c-.01158.04665-.06619.08267-.10076.12369-.85029-.28808-1.69976-.57864-2.55151-.86238-.17991-.05994-.1921-.15942-.127-.31412.42839-1.01761.86023-2.03391,1.27327-3.05773.08775-.2175.18106-.1822.3402-.10475C16.899,57.0613,17.71067,57.44709,18.521,57.8355Z"/><path class="cls-3" d="M39.67922,61.00663a6.46142,6.46142,0,0,1-.44793-1.22633c-.25412-.67342-.60115-1.30156-.91753-1.9448.79751-.38317,1.59987-.75678,2.3896-1.15527.24044-.12133.32534-.06095.417.16684.39143.973.7984,1.9398,1.20054,2.9085.06321.15226.16821.30269-.09041.38874C41.3787,60.42772,40.52944,60.71861,39.67922,61.00663Z"/><path class="cls-3" d="M34.40092,53.93313A13.78116,13.78116,0,0,0,31.345,52.67225c-.04678-.01155-.08289-.066-.124-.10049.28883-.848.58015-1.69514.86463-2.54458.06-.17928.15958-.19186.31483-.12685,1.0203.42725,2.03929.85788,3.0658,1.26984.21761.08733.18333.18024.10555.3392C35.17738,52.31529,34.79046,53.12485,34.40092,53.93313Z"/><path class="cls-3" d="M25.61338,52.57123a6.50537,6.50537,0,0,1-1.229.44664c-.675.25317-1.30469.59876-1.94907.91477-.38467-.7952-.7598-1.59521-1.15975-2.38268-.12165-.23952-.06164-.32447.167-.416.97565-.39037,1.945-.7963,2.91637-1.19739.15264-.063.30351-.16785.3898.09012C25.03292,50.87624,25.32459,51.72326,25.61338,52.57123Z"/><path class="cls-3" d="M17.15551,66.59969a6.46537,6.46537,0,0,1,.44783,1.22577c.25381.67322.60047,1.30118.91728,1.94388-.79733.38364-1.59948.75777-2.38906,1.15664-.2401.12129-.32535.0616-.41711-.16652-.3914-.97307-.79842-1.93989-1.20058-2.90865-.06319-.15222-.16833-.30271.09034-.38878C15.456,67.17861,16.30527,66.88772,17.15551,66.59969Z"/><path class="cls-3" d="M22.43529,73.67352a13.742,13.742,0,0,0,3.05453,1.26057c.04675.01155.08284.066.12395.10048-.28884.848-.58016,1.69518-.86465,2.54464-.06006.17934-.15969.19175-.31488.12676-1.02034-.42727-2.03936-.858-3.06593-1.2699-.218-.08749-.18291-.18072-.10522-.33931C21.65785,75.291,22.04529,74.48162,22.43529,73.67352Z"/><path class="cls-3" d="M31.22134,75.03509a6.5,6.5,0,0,1,1.2291-.44647c.67486-.25348,1.30478-.59862,1.949-.915.38483.79525.76033,1.59521,1.16013,2.38289.12144.23925.06094.32452-.16763.416-.97561.39029-1.94494.79621-2.9162,1.19728-.15267.063-.30349.16776-.38977-.09017C31.8018,76.73006,31.51013,75.88306,31.22134,75.03509Z"/><path class="cls-3" d="M38.31369,69.77082a13.21464,13.21464,0,0,0,1.26467-3.04948c.01164-.04614.06591-.08157.10032-.122.85025.28807,1.69968.57861,2.55139.86234.17977.05988.19233.15919.12716.314-.42838,1.01757-.86015,2.03384-1.2732,3.0576-.08754.217-.18067.18292-.34009.10531C39.93586,70.54522,39.12413,70.15933,38.31369,69.77082Z"/><path class="cls-3" d="M39.816,65.55347a10.02489,10.02489,0,0,0-.00023-3.5008c.85589-.04428,1.71273-.07563,2.56711-.13972.31258-.02344.43835.02458.42938.3797q-.03816,1.51129.00013,3.02406c.00915.35682-.11895.4-.42929.37669C41.52874,65.62929,40.67189,65.59784,39.816,65.55347Z"/><path class="cls-3" d="M17.0189,62.05271a9.64876,9.64876,0,0,0,0,3.50095c-.85591.04428-1.71277.07569-2.56717.13971-.31013.02324-.43863-.01941-.42946-.37651q.03882-1.5113.00014-3.02413c-.009-.355.11661-.40325.42931-.37979C15.30615,61.97705,16.163,62.00839,17.0189,62.05271Z"/><path class="cls-3" d="M30.17248,52.435a9.72515,9.72515,0,0,0-3.51028,0c-.04588-.865-.082-1.73076-.14319-2.5947-.02074-.29274.0318-.413.36551-.4057q1.53227.03368,3.06567,0c.33369-.00733.38628.11291.36553.40568C30.25448,50.70425,30.2184,51.57,30.17248,52.435Z"/><path class="cls-3" d="M26.66226,75.17134a9.71309,9.71309,0,0,0,3.51025,0c.04437.85335.07594,1.70763.13992,2.55949.0233.31028-.022.43813-.37948.42909q-1.51484-.03834-3.03116,0c-.35751.009-.40281-.11878-.3795-.42908C26.58628,76.879,26.61785,76.02466,26.66226,75.17134Z"/><path class="cls-3" d="M35.31251,73.104a1.70552,1.70552,0,0,1,.63185-.57625,23.16118,23.16118,0,0,0,1.79844-1.84787c.67423.58855,1.34483,1.18134,2.02527,1.76269.16923.14459.11671.23263-.01234.36006q-1.16309,1.14851-2.31473,2.30854c-.12745.12837-.21572.182-.361.01282C36.49708,74.44529,35.90267,73.77645,35.31251,73.104Z"/><path class="cls-3" d="M19.09176,70.68a2.32385,2.32385,0,0,1,.60584.66075,12.36576,12.36576,0,0,0,1.73157,1.62905.62673.62673,0,0,1,.09319.134c-.59014.67246-1.18453,1.3413-1.76745,2.01995-.145.16887-.23333.11619-.361-.01243q-1.15158-1.16-2.31466-2.30853c-.12874-.12714-.1824-.21518-.01282-.36006C17.74688,71.8614,18.4175,71.26857,19.09176,70.68Z"/><path class="cls-3" d="M21.52221,54.50235c-.10789.24227-.35436.345-.54358.48982a21.33863,21.33863,0,0,0-1.88671,1.93431c-.67423-.58856-1.34484-1.18136-2.02528-1.76272-.16928-.14462-.11663-.23267.01238-.36006q1.16312-1.14854,2.31476-2.30858c.12753-.12846.21581-.18176.361-.01269C20.33769,53.16107,20.93208,53.82989,21.52221,54.50235Z"/><path class="cls-3" d="M37.743,56.92634c-.24291-.10763-.34588-.35343-.49113-.54215a21.34471,21.34471,0,0,0-1.93947-1.88168c.59012-.67244,1.18449-1.34126,1.76739-2.01989.145-.16877.23325-.11641.361.01229q1.15158,1.16,2.3147,2.30859c.1287.1271.18248.21514.01286.36005C39.08785,55.74491,38.41723,56.33774,37.743,56.92634Z"/></svg>