<?xml version="1.0" encoding="UTF-8" standalone="no" ?>
<!DOCTYPE svg PUBLIC "-//W3C//DTD SVG 1.1//EN" "http://www.w3.org/Graphics/SVG/1.1/DTD/svg11.dtd">
<svg xmlns="http://www.w3.org/2000/svg" xmlns:xlink="http://www.w3.org/1999/xlink" version="1.1" width="230" height="140" viewBox="0 0 230 140" xml:space="preserve">
<desc>Created with Fabric.js 5.2.4</desc>
<defs>
</defs>
<rect x="0" y="0" width="100%" height="100%" fill="transparent"></rect>
<g transform="matrix(1 0 0 1 115 70)" id="eb560e3e-3b1c-490d-8de1-2cd526e7113f"  >
<rect style="stroke: none; stroke-width: 1; stroke-dasharray: none; stroke-linecap: butt; stroke-dashoffset: 0; stroke-linejoin: miter; stroke-miterlimit: 4; fill: rgb(255,255,255); fill-rule: nonzero; opacity: 1; visibility: hidden;" vector-effect="non-scaling-stroke"  x="-115" y="-70" rx="0" ry="0" width="230" height="140" />
</g>
<g transform="matrix(Infinity NaN NaN Infinity 0 0)" id="22944a6f-d1b4-4a90-a4fb-3ba464453200"  >
</g>
<g transform="matrix(1.57 0 0 1.57 115 70)" id="0a778931-0226-4115-a111-f381c0bf0f69"  >
<path style="stroke: rgb(0,0,0); stroke-width: 0; stroke-dasharray: none; stroke-linecap: butt; stroke-dashoffset: 0; stroke-linejoin: miter; stroke-miterlimit: 4; fill: rgb(255,255,255); fill-rule: nonzero; opacity: 1;" vector-effect="non-scaling-stroke"  transform=" translate(-50.05, -33.5)" d="M 49.7 58.3 C 49.7 55.599999999999994 51.900000000000006 53.5 54.5 53.5 C 57.099999999999994 53.5 59.3 55.7 59.3 58.3 C 59.3 60.89999999999999 57.099999999999994 63.099999999999994 54.5 63.099999999999994 C 51.900000000000006 63.099999999999994 49.7 61 49.7 58.3 M 69.4 58.3 C 69.4 55.599999999999994 71.60000000000001 53.5 74.2 53.5 C 76.9 53.5 79 55.7 79 58.3 C 79 60.89999999999999 76.8 63.099999999999994 74.2 63.099999999999994 C 71.6 63.2 69.4 61 69.4 58.3 M 23.8 58.3 C 23.8 55.599999999999994 26 53.5 28.6 53.5 C 31.3 53.5 33.4 55.7 33.4 58.3 C 33.4 60.89999999999999 31.2 63.099999999999994 28.599999999999998 63.099999999999994 C 25.9 63.2 23.8 61 23.8 58.3 M 4.1 58.3 C 4.1 55.599999999999994 6.3 53.5 8.899999999999999 53.5 C 11.599999999999998 53.5 13.7 55.7 13.7 58.3 C 13.7 60.89999999999999 11.5 63.099999999999994 8.899999999999999 63.099999999999994 C 6.3 63.2 4.1 61 4.1 58.3 M 43.9 49.8 L 39.699999999999996 49.8 L 39.699999999999996 66.69999999999999 L 43.9 66.69999999999999 L 43.9 49.8 z M 13.8 66.7 L 18 66.7 L 18 49.8 L 13.8 49.8 L 13.8 51.199999999999996 C 12.4 50.199999999999996 10.700000000000001 49.599999999999994 8.8 49.599999999999994 C 4.000000000000001 49.599999999999994 0.10000000000000142 53.49999999999999 0.10000000000000142 58.3 C 0.10000000000000142 63.199999999999996 4.000000000000002 67 8.8 67 C 10.700000000000001 67 12.4 66.4 13.8 65.4 L 13.8 66.7 z M 79.1 66.7 L 83.3 66.7 L 83.3 49.8 L 79.1 49.8 L 79.1 51.199999999999996 C 77.69999999999999 50.199999999999996 76 49.599999999999994 74.1 49.599999999999994 C 69.3 49.599999999999994 65.39999999999999 53.49999999999999 65.39999999999999 58.3 C 65.39999999999999 63.199999999999996 69.3 67 74.1 67 C 76 67 77.69999999999999 66.4 79.1 65.4 L 79.1 66.7 z M 84.8 61.2 C 84.89999999999999 64.60000000000001 87.8 67 92.7 67 C 96.7 67 100 65.3 100 61.5 C 100 58.8 98.5 57.3 95.1 56.6 L 92.39999999999999 56.1 C 90.69999999999999 55.800000000000004 89.49999999999999 55.4 89.49999999999999 54.4 C 89.49999999999999 53.3 90.69999999999999 52.8 92.09999999999998 52.8 C 94.19999999999997 52.8 95.09999999999998 53.9 95.09999999999998 55.099999999999994 L 99.29999999999998 55.099999999999994 C 99.09999999999998 51.8 96.39999999999998 49.599999999999994 92.09999999999998 49.599999999999994 C 87.69999999999997 49.599999999999994 85.09999999999998 51.99999999999999 85.09999999999998 55.199999999999996 C 85.09999999999998 58.99999999999999 88.19999999999997 59.699999999999996 90.89999999999998 60.199999999999996 L 93.09999999999998 60.599999999999994 C 94.69999999999997 60.89999999999999 95.39999999999998 61.39999999999999 95.39999999999998 62.3 C 95.39999999999998 63.099999999999994 94.59999999999998 64 92.69999999999997 64 C 89.89999999999998 64 89.09999999999998 62.6 88.99999999999997 61.3 L 84.8 61.3 z M 33.4 44 L 33.4 51.1 C 32 50.1 30.299999999999997 49.5 28.4 49.5 C 23.599999999999998 49.5 19.7 53.4 19.7 58.2 C 19.7 63.1 23.599999999999998 66.9 28.4 66.9 C 30.299999999999997 66.9 32 66.30000000000001 33.4 65.30000000000001 L 33.4 66.50000000000001 L 37.6 66.50000000000001 L 37.6 44 L 33.4 44 z M 59.4 44 L 59.4 51.1 C 58 50.1 56.3 49.5 54.4 49.5 C 49.6 49.5 45.7 53.4 45.7 58.2 C 45.7 63.1 49.6 66.9 54.400000000000006 66.9 C 56.300000000000004 66.9 58.00000000000001 66.30000000000001 59.400000000000006 65.30000000000001 L 59.400000000000006 66.50000000000001 L 63.60000000000001 66.50000000000001 L 63.60000000000001 44 L 59.4 44 z M 10.9 39 L 13.8 44 L 33.400000000000006 44 L 25.600000000000005 30.5 L 10.9 39 z M 43.9 48.2 L 43.9 44 L 59.4 44 L 42.9 15.5 L 28.2 23.9 L 39.7 44 L 39.7 48.2 L 43.9 48.2 z M 65.6 44 L 85.3 44 L 59.9 0 L 45.2 8.5 L 65.6 44 z" stroke-linecap="round" />
</g>
</svg>
