<?xml version="1.0" encoding="UTF-8" standalone="no" ?>
<!DOCTYPE svg PUBLIC "-//W3C//DTD SVG 1.1//EN" "http://www.w3.org/Graphics/SVG/1.1/DTD/svg11.dtd">
<svg xmlns="http://www.w3.org/2000/svg" xmlns:xlink="http://www.w3.org/1999/xlink" version="1.1" width="230" height="140" viewBox="0 0 230 140" xml:space="preserve">
<desc>Created with Fabric.js 5.2.4</desc>
<defs>
</defs>
<rect x="0" y="0" width="100%" height="100%" fill="transparent"></rect>
<g transform="matrix(1 0 0 1 115 70)" id="6a1668bc-f4fc-4e85-9d52-321252119803"  >
<rect style="stroke: none; stroke-width: 1; stroke-dasharray: none; stroke-linecap: butt; stroke-dashoffset: 0; stroke-linejoin: miter; stroke-miterlimit: 4; fill: rgb(255,255,255); fill-rule: nonzero; opacity: 1; visibility: hidden;" vector-effect="non-scaling-stroke"  x="-115" y="-70" rx="0" ry="0" width="230" height="140" />
</g>
<g transform="matrix(Infinity NaN NaN Infinity 0 0)" id="a19b834c-e2ad-4a74-a3d7-551c0186ea7d"  >
</g>
<g transform="matrix(0.37 0 0 0.37 115 70)" id="5761e605-1fdf-440b-b1b2-08e15c6bf680"  >
<path style="stroke: rgb(0,0,0); stroke-width: 0; stroke-dasharray: none; stroke-linecap: butt; stroke-dashoffset: 0; stroke-linejoin: miter; stroke-miterlimit: 4; fill: rgb(255,255,255); fill-rule: nonzero; opacity: 1;" vector-effect="non-scaling-stroke"  transform=" translate(-281.1, -35.25)" d="M 532.2 41.1 L 562.2 0.3999999999999986 L 562.2 68.80000000000001 L 552 68.80000000000001 L 552 32 L 532.1 58.5 L 512.4 32 L 512.4 68.8 L 502.2 68.8 L 502.2 0.3 L 532.2 41.1 z M 299.1 51 C 298.90000000000003 47.5 297.3 40.5 288.20000000000005 33.2 L 280.20000000000005 26.200000000000003 C 276.80000000000007 23.500000000000004 275.20000000000005 20.6 275.1 17.200000000000003 C 275.1 13.300000000000002 277.70000000000005 10.600000000000003 281.6 10.400000000000002 C 281.70000000000005 10.400000000000002 286.6 9.800000000000002 289.6 14.000000000000002 L 289.70000000000005 14.200000000000001 L 297.80000000000007 8.700000000000001 L 297.70000000000005 8.500000000000002 C 296.30000000000007 6.300000000000002 290.00000000000006 0.3000000000000025 281.50000000000006 0.700000000000002 C 276.70000000000005 0.9000000000000019 272.40000000000003 2.800000000000002 269.40000000000003 5.800000000000002 C 266.3 9.000000000000002 264.8 13.200000000000003 265.1 18.1 C 265.40000000000003 23.8 268.70000000000005 29.1 275.6 34.7 L 283.1 41.300000000000004 C 287.3 44.7 289.1 47.6 289.3 51 C 289.5 53.5 288.6 55.9 287 57.7 C 285.6 59.300000000000004 284 60 281.8 60.2 L 281.3 60.2 C 275 60.2 272.40000000000003 55.7 270.90000000000003 53 L 270.50000000000006 52.3 L 261.80000000000007 56.5 C 262.6000000000001 58.7 267.30000000000007 69.8 281.1000000000001 69.8 L 281.30000000000007 69.8 C 286.30000000000007 69.5 290.9000000000001 67.5 294.20000000000005 64.1 C 297.6 60.7 299.4 56 299.1 51 z M 98.9 0 C 79.5 0 63.7 15.8 63.7 35.2 C 63.7 54.60000000000001 79.5 70.4 98.9 70.4 C 118.30000000000001 70.4 134.10000000000002 54.60000000000001 134.10000000000002 35.2 C 134.2 15.8 118.4 0 98.9 0 z M 98.9 60.3 C 85.10000000000001 60.3 73.9 49.099999999999994 73.9 35.3 C 73.9 21.5 85.10000000000001 10.299999999999997 98.9 10.299999999999997 C 112.7 10.299999999999997 123.9 21.499999999999996 123.9 35.3 C 124 49 112.7 60.3 98.9 60.3 z M 453.8 0 C 434.40000000000003 0 418.6 15.8 418.6 35.2 C 418.6 54.60000000000001 434.40000000000003 70.4 453.8 70.4 C 473.2 70.4 489 54.60000000000001 489 35.2 C 489 15.799999999999997 473.2 0 453.8 0 z M 453.8 60.3 C 440 60.3 428.8 49.099999999999994 428.8 35.3 C 428.8 21.5 440 10.299999999999997 453.8 10.299999999999997 C 467.6 10.299999999999997 478.8 21.499999999999996 478.8 35.3 C 478.8 49 467.6 60.3 453.8 60.3 z M 50.3 70.5 L 50.3 1.7 L 40.1 1.7 L 40.1 44.400000000000006 L 0 0.3 L 0 68.7 L 10.2 68.7 L 10.2 26.700000000000003 L 10.6 27.1 L 50.3 70.5 z M 350.6 1.7 L 307.8 1.7 L 307.8 11.1 L 323.90000000000003 11.1 L 323.90000000000003 68.7 L 334.50000000000006 68.7 L 334.50000000000006 11.1 L 350.6000000000001 11.1 L 350.6 1.7 L 350.6 1.7 z M 395.3 43.5 L 395.5 43.4 C 396.6 42.9 397.7 42.199999999999996 398.6 41.5 C 404.1 37.4 407.40000000000003 30.7 407.40000000000003 23.4 C 407.40000000000003 11.399999999999999 398.50000000000006 1.5999999999999979 387.6 1.5999999999999979 L 364 1.5999999999999979 L 364 68.6 L 374.2 68.6 L 374.2 45.1 L 374.4 45.1 C 374.4 45.1 379.9 45.1 384 45.1 L 384.1 45.1 L 384.20000000000005 45.2 L 399.70000000000005 68.6 L 412 68.6 L 395.3 43.5 z M 386.5 35 L 374.3 35 L 374.3 11.7 L 386.5 11.7 C 392.4 11.7 397.1 16.9 397.1 23.299999999999997 C 397.1 29.8 392.4 35 386.5 35 z M 224.7 1.7 L 208.1 1.7 L 208.1 68.7 L 224.7 68.7 C 240.89999999999998 68.7 253.7 53.7 253.7 35.2 C 253.7 16.8 240.8 1.7 224.7 1.7 z M 224.4 59.1 L 218.20000000000002 59.1 L 218.20000000000002 11.4 L 224.4 11.4 C 235.4 11.4 243.70000000000002 22.1 243.70000000000002 35.3 C 243.7 48.4 235.4 59.1 224.4 59.1 z M 178.7 43.5 L 178.89999999999998 43.4 C 179.99999999999997 42.9 181.09999999999997 42.199999999999996 181.99999999999997 41.5 C 187.49999999999997 37.4 190.79999999999998 30.7 190.79999999999998 23.4 C 190.79999999999998 11.399999999999999 181.89999999999998 1.5999999999999979 170.99999999999997 1.5999999999999979 L 147.39999999999998 1.5999999999999979 L 147.39999999999998 68.6 L 157.59999999999997 68.6 L 157.59999999999997 45.1 L 157.79999999999995 45.1 C 157.79999999999995 45.1 163.29999999999995 45.1 167.39999999999995 45.1 L 167.49999999999994 45.1 L 167.59999999999994 45.2 L 183.09999999999994 68.6 L 195.29999999999993 68.6 L 178.7 43.5 z M 169.9 35 L 157.70000000000002 35 L 157.70000000000002 11.7 L 169.9 11.7 C 175.8 11.7 180.5 16.9 180.5 23.299999999999997 C 180.5 29.8 175.8 35 169.9 35 z" stroke-linecap="round" />
</g>
</svg>
