<?xml version="1.0" encoding="UTF-8" standalone="no"?>
<!-- Created with Inkscape (http://www.inkscape.org/) -->

<svg
   width="265.7298mm"
   height="141.11502mm"
   viewBox="0 0 300 159.31411"
   version="1.1"
   id="svg16680"
   xmlns="http://www.w3.org/2000/svg"
   xmlns:svg="http://www.w3.org/2000/svg">
  <defs
     id="defs16677">
  </defs>
  <g
     id="layer1"
     transform="translate(-14.234061,-23.955893)">
    <g
       id="g23158">
      <path
         d="m 116.34071,156.77349 v 0 c 0,-0.36018 0.09,-0.71014 0.26987,-1.01 0.17992,-0.31009 0.43992,-0.57009 0.74013,-0.75 0.30974,-0.17004 0.66005,-0.27023 1.01988,-0.27023 l 21.64009,0.0102 23.81991,-26.80018 -13.67014,26.80018 h 4.74028 v 0 c 0.35983,0 0.70979,0.09 1.01,0.26987 0.30974,0.17992 0.56974,0.43992 0.75001,0.74013 0.16968,0.31009 0.26987,0.66005 0.26987,1.01988 v 0 -0.01 0 3.04977 5.07012 0 c 0,0.36019 -0.09,0.71014 -0.26987,1.01 -0.18027,0.31009 -0.44027,0.57009 -0.74013,0.75001 -0.31009,0.17004 -0.66005,0.26987 -1.01988,0.26987 h -4.74028 -10.14977 v 0 h -21.64997 v 0 c -0.36018,0 -0.71014,-0.09 -1.01,-0.26987 -0.31009,-0.17992 -0.57009,-0.43992 -0.75001,-0.74013 -0.17003,-0.30974 -0.27022,-0.65969 -0.27022,-1.01988 l 0.0102,-5.07012 z"
         style="fill:#ffffff;stroke:#c00000;stroke-width:0.349994;stroke-linecap:butt;stroke-linejoin:miter;stroke-miterlimit:3.8637;stroke-dasharray:none;stroke-opacity:1;fill-opacity:1"
         id="path23140"
         clip-path="none" />
      <path
         d="m 218.69071,156.77349 v 0 c 0,-0.36018 0.09,-0.71014 0.26987,-1.01 0.17992,-0.31009 0.43992,-0.57009 0.74013,-0.75 0.30974,-0.17004 0.66005,-0.27023 1.01988,-0.27023 l 21.64009,0.0102 9.67987,-26.80018 0.4699,26.80018 h 4.74028 v 0 c 0.35983,0 0.70979,0.09 1.01,0.26987 0.30974,0.17992 0.56974,0.43992 0.75001,0.74013 0.16968,0.31009 0.26987,0.66005 0.26987,1.01988 v 0 -0.01 0 3.04977 5.07012 0 c 0,0.36019 -0.09,0.71014 -0.26987,1.01 -0.18027,0.31009 -0.44027,0.57009 -0.74013,0.75001 -0.31009,0.17004 -0.66005,0.26987 -1.01988,0.26987 h -4.74028 -10.14977 v 0 h -21.64997 v 0 c -0.36018,0 -0.71014,-0.09 -1.01,-0.26987 -0.31009,-0.17992 -0.57009,-0.43992 -0.75001,-0.74013 -0.17003,-0.30974 -0.27022,-0.65969 -0.27022,-1.01988 l 0.0102,-5.07012 z"
         style="fill:#ffffff;stroke:#c00000;stroke-width:0.349994;stroke-linecap:butt;stroke-linejoin:miter;stroke-miterlimit:3.8637;stroke-dasharray:none;stroke-opacity:1;fill-opacity:1"
         id="path23142"
         clip-path="none" />
      <path
         d="m 90.500436,139.62355 v 0 c 0,-0.36018 0.0903,-0.71014 0.27023,-1.01 0.17992,-0.31009 0.43991,-0.57009 0.73978,-0.75 0.31009,-0.17004 0.66004,-0.27023 1.02023,-0.27023 l 5.66984,0.0102 -3.18981,-9.52006 14.759864,9.52006 h 24.94986 v 0 c 0.36018,0 0.71014,0.09 1.01,0.26987 0.31009,0.17992 0.57009,0.43992 0.75001,0.74013 0.17004,0.30974 0.27022,0.66005 0.27022,1.01988 v 0 -0.01 0 3.04977 5.07012 0 c 0,0.35983 -0.0899,0.71014 -0.27022,1.01 -0.17992,0.3101 -0.43992,0.57009 -0.73978,0.75001 -0.31009,0.17004 -0.66005,0.26987 -1.02023,0.26987 H 109.77057 98.200516 v 0 h -5.68007 v 0 c -0.35984,0 -0.70979,-0.0899 -1.01,-0.26987 -0.30974,-0.17992 -0.56974,-0.43991 -0.75001,-0.74013 -0.16969,-0.30974 -0.26988,-0.66005 -0.26988,-1.01988 l 0.01,-5.07012 z"
         style="fill:#ffffff;stroke:#c00000;stroke-width:0.349994;stroke-linecap:butt;stroke-linejoin:miter;stroke-miterlimit:3.8637;stroke-dasharray:none;stroke-opacity:1;fill-opacity:1"
         id="path23144"
         clip-path="none" />
      <path
         d="m 194.81048,138.84356 v 0 c 0,-0.36018 0.09,-0.71014 0.27022,-1.01 0.17992,-0.31009 0.43992,-0.57009 0.73978,-0.75001 0.31009,-0.17003 0.66005,-0.27022 1.02023,-0.27022 l 5.66985,0.0102 -4.24004,-9.26007 15.81009,9.26007 h 24.94985 v 0 c 0.36019,0 0.71014,0.09 1.01,0.26987 0.3101,0.17992 0.57009,0.43992 0.75001,0.74013 0.17004,0.30974 0.27023,0.65969 0.27023,1.01988 v 0 -0.01 0 3.04977 5.07012 0 c 0,0.35983 -0.09,0.71014 -0.27023,1.01 -0.17992,0.31009 -0.43991,0.57009 -0.73977,0.75001 -0.3101,0.17004 -0.66005,0.26987 -1.02024,0.26987 h -24.94985 -11.57005 v 0 h -5.68008 v 0 c -0.35983,0 -0.70979,-0.09 -1.01,-0.26987 -0.30974,-0.17992 -0.56974,-0.43992 -0.75001,-0.74013 -0.17004,-0.30974 -0.26987,-0.66005 -0.26987,-1.01988 l 0.01,-5.07012 z"
         style="fill:#ffffff;stroke:#c00000;stroke-width:0.349994;stroke-linecap:butt;stroke-linejoin:miter;stroke-miterlimit:3.8637;stroke-dasharray:none;stroke-opacity:1;fill-opacity:1"
         id="path23146"
         clip-path="none" />
      <path
         d="m 261.54051,146.90348 v 0 c 0,-0.69991 0.17991,-1.38995 0.5401,-1.9999 0.34995,-0.61031 0.84984,-1.12007 1.46015,-1.47003 0.60995,-0.34995 1.29998,-0.53022 1.99989,-0.53022 h 2.66982 l -1.01988,-9.58991 11.03983,9.58991 h 19.36009 v 0 c 0.69991,0 1.38995,0.18027 2.00025,0.5401 0.60995,0.34996 1.11972,0.84984 1.46967,1.46015 0.35031,0.60995 0.53023,1.29999 0.53023,1.9999 v 0 h 0.01 v 0 6.00004 10.01007 0 c 0,0.69991 -0.17992,1.38995 -0.54011,1.9999 -0.34995,0.60995 -0.84984,1.12007 -1.45979,1.47002 -0.60995,0.34996 -1.29999,0.52988 -1.9999,0.52988 l -19.37032,0.01 h -10.01995 v 0 h -2.66982 v 0 c -0.69991,0 -1.38994,-0.17991 -1.99989,-0.53975 -0.61031,-0.34995 -1.12007,-0.85019 -1.47003,-1.46014 -0.35031,-0.60996 -0.53022,-1.29999 -0.53022,-1.9999 v -10.02008 z"
         style="fill:#ffffff;stroke:#c00000;stroke-width:0.349994;stroke-linecap:butt;stroke-linejoin:miter;stroke-miterlimit:3.8637;stroke-dasharray:none;stroke-opacity:1;fill-opacity:1"
         id="path23148"
         clip-path="none" />
      <path
         d="m 159.14076,146.90348 v 0 c 0,-0.69991 0.17992,-1.38995 0.53975,-1.9999 0.34996,-0.61031 0.8502,-1.12007 1.46015,-1.47003 0.60995,-0.34995 1.29999,-0.53022 1.9999,-0.53022 h 15.69014 l 1.50989,-9.32004 6.92997,9.32004 h 1.61995 v 0 c 0.69991,0 1.38995,0.18027 2.00025,0.5401 0.60995,0.34996 1.11972,0.84984 1.46967,1.46015 0.35031,0.60995 0.53023,1.29999 0.53023,1.9999 v 0 h 0.01 v 0 6.00004 10.01007 0 c 0,0.69991 -0.17992,1.38995 -0.54011,1.9999 -0.34995,0.60995 -0.84984,1.12007 -1.45979,1.47002 -0.60995,0.34996 -1.29999,0.52988 -1.9999,0.52988 l -1.63018,0.01 h -8.43986 v 0 h -15.69014 v 0 c -0.69991,0 -1.38995,-0.17991 -1.9999,-0.53975 -0.60995,-0.34995 -1.12007,-0.85019 -1.47002,-1.46014 -0.34996,-0.60996 -0.52988,-1.29999 -0.52988,-1.9999 v -10.02008 z"
         style="fill:#ffffff;stroke:#c00000;stroke-width:0.349994;stroke-linecap:butt;stroke-linejoin:miter;stroke-miterlimit:3.8637;stroke-dasharray:none;stroke-opacity:1;fill-opacity:1"
         id="path23150"
         clip-path="none" />
    </g>
    <g
       id="g22896">
      <path
         style="color:#000000;fill:#ffffff;fill-opacity:1;stroke-width:0.352778;stroke-miterlimit:3.8637;-inkscape-stroke:none"
         d="M 258.68516,140.74878 V 62.688425 h 16.52061 v 78.060355 h -8.25514 z"
         id="path22888" />
      <path
         style="color:#000000;fill:#595959;fill-opacity:1;stroke-width:0.352778;stroke-miterlimit:3.8637;-inkscape-stroke:none"
         d="M 258.68516,140.74878 V 62.688425 h 16.52061 v 78.060355 h -8.25514 z m 0.35002,-0.35002 h 7.91545 7.90512 V 63.038448 h -15.82057 z"
         id="path250" />
    </g>
    <g
       id="g22886">
      <path
         style="color:#000000;fill:#ffffff;stroke-miterlimit:3.8637;-inkscape-stroke:none;fill-opacity:1"
         d="m 170.21991,62.192808 v 79.031232 h 10.56054 10.55078 V 62.192808 Z"
         id="path22874" />
      <path
         style="color:#000000;fill:#595959;stroke-miterlimit:3.8637;-inkscape-stroke:none;fill-opacity:1"
         d="m 170.21991,62.192808 v 79.031232 h 10.56054 10.55078 V 62.192808 Z m 1.32031,1.32031 h 18.4707 v 76.390612 h -9.23047 -9.24023 z"
         id="path226" />
    </g>
    <path
       id="path13297"
       style="fill:#000000;fill-opacity:0.935198;stroke-width:0.0640108"
       d="m 53.280166,70.444318 c -0.10656,-9.7e-4 -0.21337,0.006 -0.32039,0.0119 -0.53107,0.0303 -1.07509,0.12307 -1.59319,0.26303 -1.29868,0.37895 -2.45477,1.05911 -2.73523,1.6614 l -0.0956,0.20516 c -0.0314,0.20894 -0.0552,0.74423 -0.0563,1.28777 -2e-5,0.0107 0,0.0213 0,0.032 l -5.2e-4,1.13637 h 0.76791 v -1.08417 -0.007 -1.09141 l 0.0941,-0.18087 c 0.006,-0.0111 0.0121,-0.0228 0.0191,-0.0341 3.2e-4,-5.2e-4 7.3e-4,-10e-4 0.001,-0.002 0.0635,-0.12356 0.16218,-0.20432 0.31574,-0.31677 0.52625,-0.38539 1.27434,-0.70024 2.04742,-0.89452 5.3e-4,-1.4e-4 9.5e-4,-3.9e-4 0.002,-5.2e-4 0.50168,-0.1414 1.01209,-0.22102 1.48983,-0.21187 0.52234,0.009 0.97095,0.0444 1.49552,0.21342 0.6718,0.16922 1.17019,0.33776 1.689,0.5836 0.0745,0.0206 0.10914,-0.0151 0.1105,-0.0683 l -0.0895,-0.69879 c -0.40713,-0.20572 -0.8726,-0.38879 -1.35754,-0.5302 -0.51765,-0.13974 -1.06108,-0.23222 -1.59164,-0.26252 -0.0664,-0.009 -0.13481,-0.008 -0.19173,-0.012 z m 12.16114,0 c 0.10656,-9.7e-4 0.21338,0.006 0.32039,0.0119 0.53107,0.0303 1.07509,0.12307 1.59319,0.26304 1.29868,0.37894 2.45477,1.0591 2.73523,1.66139 l 0.0956,0.20516 c 0.0314,0.20894 0.0552,0.74423 0.0563,1.28778 2e-5,0.0107 0,0.0213 0,0.032 l 5.2e-4,1.13636 h -0.76791 v -1.08417 -0.007 -1.09141 l -0.0941,-0.18087 c -0.006,-0.0111 -0.012,-0.0228 -0.0191,-0.0341 -3.3e-4,-5.2e-4 -7.4e-4,-10e-4 -10e-4,-0.002 -0.0635,-0.12356 -0.16219,-0.20432 -0.31575,-0.31677 -0.52625,-0.38539 -1.27434,-0.70024 -2.04742,-0.89452 -5.2e-4,-1.3e-4 -9.5e-4,-3.8e-4 -0.002,-5.2e-4 -0.50168,-0.14139 -1.01209,-0.22102 -1.48983,-0.21187 -0.52233,0.009 -0.97095,0.0444 -1.49551,0.21342 -0.67181,0.16922 -1.1702,0.33776 -1.68901,0.58361 -0.0745,0.0206 -0.10914,-0.0151 -0.1105,-0.0683 l 0.0895,-0.6988 c 0.40713,-0.20572 0.8726,-0.38879 1.35754,-0.5302 0.51765,-0.13974 1.06108,-0.23222 1.59164,-0.26252 0.0664,-0.009 0.13482,-0.008 0.19173,-0.012 z m -6.33661,3.53247 c -0.53107,0.0303 -1.07509,0.12307 -1.59319,0.26304 -1.29869,0.37894 -2.45477,1.0591 -2.73523,1.66139 l -0.0956,0.20516 c -0.0314,0.20894 -0.0552,0.74423 -0.0563,1.28778 -2e-5,0.0107 0,0.0213 0,0.032 l -5.2e-4,1.13636 h 0.76792 v -1.08417 -0.007 -1.09141 l 0.094,-0.18087 c 0.006,-0.0111 0.0121,-0.0228 0.0191,-0.0341 3.2e-4,-5.2e-4 7e-4,-0.001 10e-4,-0.002 0.0635,-0.12356 0.16218,-0.20432 0.31574,-0.31677 0.52625,-0.38539 1.27434,-0.70024 2.04742,-0.89452 5.3e-4,-1.3e-4 10e-4,-3.9e-4 0.002,-5.2e-4 0.50168,-0.14139 1.01209,-0.22102 1.48983,-0.21187 0.51716,-0.0153 1.03492,0.0873 1.49138,0.21239 10e-4,3.4e-4 0.003,6.9e-4 0.004,0.001 0.77162,0.19436 1.51849,0.50878 2.0438,0.89348 0.15356,0.11245 0.25224,0.19322 0.31575,0.31678 2.8e-4,4.5e-4 2.3e-4,0.001 5.1e-4,0.001 0.007,0.0114 0.0138,0.0229 0.0196,0.0341 l 0.0935,0.18087 v 1.0914 0.007 1.08418 h 0.76843 l -0.001,-1.16841 v -0.0491 c -0.002,-0.52642 -0.0258,-1.03612 -0.0563,-1.23868 l -0.0951,-0.20516 c -0.28055,-0.60251 -1.43752,-1.28305 -2.73678,-1.66191 -0.51765,-0.13974 -1.06108,-0.23222 -1.59163,-0.26252 -0.17118,-0.0208 -0.34089,-0.01 -0.51212,0 z m 6.4238,-8.75273 c -1.3466,0 -2.44531,1.09871 -2.44531,2.44531 0,1.3466 1.09871,2.44531 2.44531,2.44531 1.3466,0 2.44727,-1.09871 2.44727,-2.44531 0,-1.3466 -1.10067,-2.44531 -2.44727,-2.44531 z m 0,0.69921 c 0.96829,0 1.74609,0.77781 1.74609,1.7461 0,0.96829 -0.7778,1.74609 -1.74609,1.74609 -0.96829,0 -1.74414,-0.7778 -1.74414,-1.74609 0,-0.96829 0.77585,-1.7461 1.74414,-1.7461 z m -6.17187,2.83594 c -1.3466,0 -2.44532,1.09872 -2.44532,2.44531 0,1.3466 1.09872,2.44532 2.44532,2.44532 1.34659,0 2.44726,-1.09872 2.44726,-2.44532 0,-1.34659 -1.10067,-2.44531 -2.44726,-2.44531 z m 0,0.69922 c 0.96829,0 1.74609,0.7778 1.74609,1.74609 0,0.96829 -0.7778,1.7461 -1.74609,1.7461 -0.96829,0 -1.74414,-0.77781 -1.74414,-1.7461 0,-0.96829 0.77585,-1.74609 1.74414,-1.74609 z m -6.14844,-4.25195 c -1.3466,0 -2.44531,1.09871 -2.44531,2.44531 0,1.3466 1.09871,2.44531 2.44531,2.44531 1.3466,0 2.44531,-1.09871 2.44531,-2.44531 0,-1.3466 -1.09871,-2.44531 -2.44531,-2.44531 z m 0,0.69922 c 0.96829,0 1.74609,0.7778 1.74609,1.74609 0,0.96829 -0.7778,1.74609 -1.74609,1.74609 -0.96829,0 -1.7461,-0.7778 -1.7461,-1.74609 0,-0.96829 0.77781,-1.74609 1.7461,-1.74609 z" />
    <g
       id="g13323"
       transform="translate(-3.0593936,9.0834281)">
      <path
         id="path8001"
         style="fill:#000000;fill-opacity:1;stroke-width:0.0300523"
         d="m 181.68817,64.424328 -0.12919,0.257348 -0.12919,0.257349 -0.23926,0.09663 -0.23926,0.09663 -0.27854,-0.09043 -0.27853,-0.09043 -0.21653,0.216524 -0.21652,0.216525 0.0904,0.278536 0.0904,0.278536 -0.0966,0.239262 -0.0966,0.239261 -0.25735,0.129191 -0.25735,0.129192 v 0.309025 0.309025 l 0.27027,0.132808 0.27026,0.132809 0.001,0.04599 c 8e-4,0.02553 0.0393,0.127689 0.0853,0.226859 l 0.0837,0.180351 -0.0853,0.253731 c -0.11134,0.331689 -0.11427,0.316317 0.10181,0.534334 l 0.18706,0.188619 h 0.0476 c 0.0263,0 0.16233,-0.03845 0.30179,-0.08527 l 0.25321,-0.08475 0.18035,0.0832 c 0.0992,0.046 0.20136,0.08445 0.22686,0.08527 l 0.0465,0.0016 0.13229,0.270785 0.13281,0.270268 h 0.30903 0.30902 l 0.12971,-0.257349 0.12919,-0.257349 0.23926,-0.09715 0.23875,-0.09664 0.27698,0.08992 0.27699,0.08992 0.20774,-0.193787 0.20774,-0.194303 0.004,-0.05013 c 0.002,-0.02773 -0.0354,-0.161083 -0.0832,-0.296106 l -0.0868,-0.245463 0.11368,-0.244947 0.11318,-0.244946 0.25889,-0.127641 0.2589,-0.127641 V 66.984939 66.690383 L 184.30236,66.558091 184.0326,66.4258 183.998,66.31883 c -0.019,-0.05868 -0.0626,-0.166609 -0.0966,-0.239779 l -0.0615,-0.132808 0.094,-0.272852 0.0941,-0.272335 -0.22376,-0.225826 -0.22427,-0.225309 -0.27182,0.09508 -0.2713,0.09508 -0.19327,-0.08733 c -0.10618,-0.04814 -0.21084,-0.08785 -0.23254,-0.08785 h -0.0393 l -0.13281,-0.270268 -0.13281,-0.270267 h -0.30902 z m 0.16279,0.240295 h 0.14211 0.14211 l 0.12919,0.24598 0.12919,0.24598 0.15038,0.05013 c 0.0826,0.02754 0.21969,0.08548 0.30489,0.128674 l 0.15503,0.07855 0.2651,-0.0894 0.26458,-0.08992 0.1049,0.104903 0.10439,0.104387 -0.0847,0.265616 -0.0847,0.265101 0.0687,0.133842 c 0.0379,0.07359 0.0917,0.208296 0.11937,0.299206 l 0.0501,0.165365 0.24495,0.128674 0.24546,0.129191 v 0.15813 0.157613 l -0.23823,0.116272 -0.23823,0.116272 -0.0661,0.182935 c -0.0364,0.10059 -0.0983,0.237987 -0.13746,0.305407 l -0.0713,0.122473 0.0904,0.267168 0.0904,0.267167 -0.10335,0.103353 -0.10284,0.103352 -0.262,-0.09198 -0.262,-0.09147 -0.21239,0.101803 c -0.11686,0.05601 -0.25817,0.110503 -0.31367,0.120923 l -0.10077,0.0186 -0.12506,0.252181 -0.12454,0.251664 h -0.14211 -0.14263 l -0.12867,-0.246496 -0.12919,-0.24598 -0.16485,-0.05478 c -0.0907,-0.03028 -0.22862,-0.08827 -0.30592,-0.128674 l -0.14005,-0.07338 -0.2651,0.0894 -0.26458,0.0894 -0.0987,-0.0987 -0.0987,-0.09922 0.0894,-0.264584 0.0894,-0.264583 -0.0734,-0.14056 c -0.0404,-0.07728 -0.0984,-0.214668 -0.12867,-0.305408 l -0.0553,-0.164847 -0.24598,-0.129191 -0.24598,-0.129192 v -0.142109 -0.14211 l 0.25269,-0.125574 0.2527,-0.125057 0.0212,-0.09922 c 0.0116,-0.05458 0.066,-0.197556 0.12092,-0.317294 l 0.0997,-0.217557 -0.0899,-0.24598 -0.0899,-0.24598 0.11524,-0.115238 0.11524,-0.115239 0.24908,0.09095 0.24857,0.09095 0.216,-0.102836 c 0.11889,-0.05643 0.26115,-0.11164 0.31575,-0.12299 l 0.0992,-0.02067 0.12506,-0.252698 z m 0.14469,1.413867 c -0.49837,0 -0.91984,0.421468 -0.91984,0.919841 0,0.498371 0.42147,0.91829 0.91984,0.91829 0.49838,0 0.92037,-0.419919 0.92036,-0.91829 1e-5,-0.498373 -0.42198,-0.919841 -0.92036,-0.919841 z m 0,0.238229 c 0.36633,0 0.68161,0.31528 0.68161,0.681612 0,0.36633 -0.31528,0.680062 -0.68161,0.680062 -0.36633,0 -0.67955,-0.313732 -0.67955,-0.680062 0,-0.366332 0.31322,-0.681612 0.67955,-0.681612 z" />
      <path
         id="path8003"
         style="fill:#000000;stroke-width:0.0300523"
         d="m 184.41382,60.043594 -0.12919,0.257348 -0.12919,0.257349 -0.23926,0.09663 -0.23926,0.09663 -0.27854,-0.09043 -0.27853,-0.09043 -0.21653,0.216524 -0.21652,0.216525 0.0904,0.278536 0.0904,0.278536 -0.0966,0.239262 -0.0966,0.239261 -0.25735,0.129191 -0.25735,0.129192 v 0.309025 0.309025 l 0.27027,0.132808 0.27026,0.132809 0.001,0.04599 c 8e-4,0.02553 0.0393,0.127689 0.0853,0.226859 l 0.0837,0.180351 -0.0853,0.253731 c -0.11134,0.331689 -0.11427,0.316317 0.10181,0.534334 l 0.18706,0.188619 h 0.0476 c 0.0263,0 0.16233,-0.03845 0.30179,-0.08527 l 0.25321,-0.08475 0.18035,0.0832 c 0.0992,0.046 0.20136,0.08445 0.22686,0.08527 l 0.0465,0.0016 0.13229,0.270785 0.13281,0.270268 h 0.30903 0.30902 l 0.12971,-0.257349 0.12919,-0.257349 0.23926,-0.09715 0.23875,-0.09663 0.27698,0.08992 0.27699,0.08992 0.20774,-0.193787 0.20774,-0.194303 0.004,-0.05013 c 0.002,-0.02773 -0.0354,-0.161083 -0.0832,-0.296106 l -0.0868,-0.245463 0.11368,-0.244947 0.11318,-0.244946 0.25889,-0.127641 0.2589,-0.127641 v -0.294555 -0.294556 l -0.27026,-0.132292 -0.26976,-0.132291 -0.0346,-0.10697 c -0.019,-0.05868 -0.0626,-0.166609 -0.0966,-0.239779 l -0.0615,-0.132808 0.094,-0.272852 0.094,-0.272335 -0.22376,-0.225826 -0.22427,-0.225309 -0.27182,0.09508 -0.2713,0.09508 -0.19327,-0.08733 c -0.10618,-0.04814 -0.21084,-0.08785 -0.23254,-0.08785 h -0.0393 l -0.13281,-0.270268 -0.13281,-0.270267 h -0.30902 z m 0.16279,0.240295 h 0.14211 0.14211 l 0.12919,0.24598 0.12919,0.24598 0.15038,0.05013 c 0.0826,0.02754 0.21969,0.08548 0.30489,0.128674 l 0.15503,0.07855 0.2651,-0.0894 0.26458,-0.08992 0.1049,0.104903 0.10439,0.104387 -0.0848,0.265616 -0.0847,0.265101 0.0687,0.133842 c 0.0379,0.07359 0.0917,0.208296 0.11937,0.299206 l 0.0501,0.165365 0.24495,0.128674 0.24546,0.129191 v 0.15813 0.157613 l -0.23823,0.116272 -0.23823,0.116272 -0.0661,0.182935 c -0.0364,0.10059 -0.0983,0.237987 -0.13746,0.305407 l -0.0713,0.122473 0.0904,0.267168 0.0904,0.267167 -0.10335,0.103353 -0.10284,0.103352 -0.262,-0.09198 -0.262,-0.09147 -0.21239,0.101803 c -0.11686,0.05601 -0.25817,0.110503 -0.31367,0.120923 l -0.10077,0.0186 -0.12506,0.252181 -0.12454,0.251664 h -0.14211 -0.14263 l -0.12867,-0.246496 -0.12919,-0.24598 -0.16485,-0.05478 c -0.0907,-0.03028 -0.22862,-0.08827 -0.30592,-0.128674 l -0.14005,-0.07338 -0.2651,0.0894 -0.26458,0.0894 -0.0987,-0.0987 -0.0987,-0.09922 0.0894,-0.264584 0.0894,-0.264583 -0.0734,-0.14056 c -0.0404,-0.07728 -0.0984,-0.214668 -0.12867,-0.305408 l -0.0553,-0.164847 -0.24598,-0.129191 -0.24598,-0.129192 v -0.14211 -0.14211 l 0.25269,-0.125574 0.2527,-0.125057 0.0212,-0.09922 c 0.0116,-0.05458 0.066,-0.197556 0.12092,-0.317294 l 0.0997,-0.217557 -0.0899,-0.24598 -0.0899,-0.24598 0.11524,-0.115238 0.11524,-0.115239 0.24908,0.09095 0.24857,0.09095 0.216,-0.102836 c 0.11889,-0.05643 0.26115,-0.11164 0.31575,-0.12299 l 0.0992,-0.02067 0.12506,-0.252698 z m 0.14469,1.413867 c -0.49837,0 -0.91984,0.421468 -0.91984,0.919841 0,0.498371 0.42147,0.91829 0.91984,0.91829 0.49838,0 0.92037,-0.419919 0.92036,-0.91829 1e-5,-0.498373 -0.42198,-0.919841 -0.92036,-0.919841 z m 0,0.238229 c 0.36633,0 0.68161,0.31528 0.68161,0.681612 0,0.36633 -0.31528,0.680062 -0.68161,0.680062 -0.36633,0 -0.67955,-0.313732 -0.67955,-0.680062 0,-0.366332 0.31322,-0.681612 0.67955,-0.681612 z" />
    </g>
    <g
       id="g7999"
       transform="translate(-3.0593936,9.0834281)">
      <path
         id="path7995"
         style="fill:#000000;fill-opacity:1;stroke-width:0.0300523"
         d="m 268.93735,60.722515 -0.12919,0.257348 -0.12919,0.257349 -0.23926,0.09663 -0.23926,0.09663 -0.27854,-0.09043 -0.27853,-0.09043 -0.21653,0.216524 -0.21652,0.216525 0.0904,0.278536 0.0904,0.278536 -0.0966,0.239262 -0.0966,0.239261 -0.25735,0.129191 -0.25735,0.129192 v 0.309025 0.309025 l 0.27027,0.132808 0.27026,0.132809 10e-4,0.04599 c 8e-4,0.02553 0.0393,0.127689 0.0853,0.226859 l 0.0837,0.180351 -0.0853,0.253731 c -0.11134,0.331689 -0.11427,0.316317 0.10181,0.534334 l 0.18706,0.188619 h 0.0476 c 0.0263,0 0.16233,-0.03845 0.30179,-0.08527 l 0.25321,-0.08475 0.18035,0.0832 c 0.0992,0.046 0.20136,0.08445 0.22686,0.08527 l 0.0465,0.0016 0.13229,0.270785 0.13281,0.270268 h 0.30903 0.30902 l 0.12971,-0.257349 0.12919,-0.257349 0.23926,-0.09715 0.23875,-0.09664 0.27698,0.08992 0.27699,0.08992 0.20774,-0.193787 0.20774,-0.194303 0.004,-0.05013 c 0.002,-0.02773 -0.0354,-0.161083 -0.0832,-0.296106 l -0.0868,-0.245463 0.11368,-0.244947 0.11318,-0.244946 0.25889,-0.127641 0.2589,-0.127641 V 63.283126 62.98857 l -0.27026,-0.132292 -0.26976,-0.132291 -0.0346,-0.10697 c -0.019,-0.05868 -0.0626,-0.166609 -0.0966,-0.239779 l -0.0615,-0.132808 0.094,-0.272852 0.0941,-0.272335 -0.22376,-0.225826 -0.22427,-0.225309 -0.27182,0.09508 -0.2713,0.09508 -0.19327,-0.08733 c -0.10618,-0.04814 -0.21084,-0.08785 -0.23254,-0.08785 h -0.0393 l -0.13281,-0.270268 -0.13281,-0.270267 h -0.30902 z m 0.16279,0.240295 h 0.14211 0.14211 l 0.12919,0.24598 0.12919,0.24598 0.15038,0.05013 c 0.0826,0.02754 0.21969,0.08548 0.30489,0.128674 l 0.15503,0.07855 0.2651,-0.0894 0.26458,-0.08992 0.1049,0.104903 0.10439,0.104387 -0.0847,0.265616 -0.0847,0.265101 0.0687,0.133842 c 0.0379,0.07359 0.0917,0.208296 0.11937,0.299206 l 0.0501,0.165365 0.24495,0.128674 0.24546,0.129191 v 0.15813 0.157613 l -0.23823,0.116272 -0.23823,0.116272 -0.0661,0.182935 c -0.0364,0.10059 -0.0983,0.237987 -0.13746,0.305407 l -0.0713,0.122473 0.0904,0.267168 0.0904,0.267167 -0.10335,0.103353 -0.10284,0.103352 -0.262,-0.09198 -0.262,-0.09147 -0.21239,0.101803 c -0.11686,0.05601 -0.25817,0.110503 -0.31367,0.120923 l -0.10077,0.0186 -0.12506,0.252181 -0.12454,0.251664 h -0.14211 -0.14263 l -0.12867,-0.246496 -0.12919,-0.24598 -0.16485,-0.05478 c -0.0907,-0.03028 -0.22862,-0.08827 -0.30592,-0.128674 l -0.14005,-0.07338 -0.2651,0.0894 -0.26458,0.0894 -0.0987,-0.0987 -0.0987,-0.09922 0.0894,-0.264584 0.0894,-0.264583 -0.0734,-0.14056 c -0.0404,-0.07728 -0.0984,-0.214668 -0.12867,-0.305408 l -0.0553,-0.164847 -0.24598,-0.129191 -0.24598,-0.129192 v -0.142109 -0.14211 l 0.25269,-0.125574 0.2527,-0.125057 0.0212,-0.09922 c 0.0116,-0.05458 0.066,-0.197556 0.12092,-0.317294 l 0.0997,-0.217557 -0.0899,-0.24598 -0.0899,-0.24598 0.11524,-0.115238 0.11524,-0.115239 0.24908,0.09095 0.24857,0.09095 0.216,-0.102836 c 0.11889,-0.05643 0.26115,-0.11164 0.31575,-0.12299 l 0.0992,-0.02067 0.12506,-0.252698 z m 0.14469,1.413867 c -0.49837,0 -0.91984,0.421468 -0.91984,0.919841 0,0.498371 0.42147,0.91829 0.91984,0.91829 0.49838,0 0.92037,-0.419919 0.92036,-0.91829 1e-5,-0.498373 -0.42198,-0.919841 -0.92036,-0.919841 z m 0,0.238229 c 0.36633,0 0.68161,0.31528 0.68161,0.681612 0,0.36633 -0.31528,0.680062 -0.68161,0.680062 -0.36633,0 -0.67955,-0.313732 -0.67955,-0.680062 0,-0.366332 0.31322,-0.681612 0.67955,-0.681612 z" />
      <path
         id="path7985"
         style="fill:#000000;stroke-width:0.0300523"
         d="m 271.663,56.341781 -0.12919,0.257348 -0.12919,0.257349 -0.23926,0.09663 -0.23926,0.09663 -0.27854,-0.09043 -0.27853,-0.09043 -0.21653,0.216524 -0.21652,0.216525 0.0904,0.278536 0.0904,0.278536 -0.0966,0.239262 -0.0966,0.239261 -0.25735,0.129191 -0.25735,0.129192 v 0.309025 0.309025 l 0.27027,0.132808 0.27026,0.132809 10e-4,0.04599 c 8e-4,0.02553 0.0393,0.127689 0.0853,0.226859 l 0.0837,0.180351 -0.0853,0.253731 c -0.11134,0.331689 -0.11427,0.316317 0.10181,0.534334 l 0.18706,0.188619 h 0.0476 c 0.0263,0 0.16233,-0.03845 0.30179,-0.08527 l 0.25321,-0.08475 0.18035,0.0832 c 0.0992,0.046 0.20136,0.08445 0.22686,0.08527 l 0.0465,0.0016 0.13229,0.270785 0.13281,0.270268 h 0.30903 0.30902 l 0.12971,-0.257349 0.12919,-0.257349 0.23926,-0.09715 0.23875,-0.09663 0.27698,0.08992 0.27699,0.08992 0.20774,-0.193787 0.20774,-0.194303 0.004,-0.05013 c 0.002,-0.02773 -0.0354,-0.161083 -0.0832,-0.296106 l -0.0868,-0.245463 0.11368,-0.244947 0.11318,-0.244946 0.25889,-0.127641 0.2589,-0.127641 v -0.294555 -0.294556 l -0.27026,-0.132292 -0.26976,-0.132291 -0.0346,-0.10697 c -0.019,-0.05868 -0.0626,-0.166609 -0.0966,-0.239779 l -0.0615,-0.132808 0.094,-0.272852 0.094,-0.272335 -0.22376,-0.225826 -0.22427,-0.225309 -0.27182,0.09508 -0.2713,0.09508 -0.19327,-0.08733 c -0.10618,-0.04814 -0.21084,-0.08785 -0.23254,-0.08785 h -0.0393 l -0.13281,-0.270268 -0.13281,-0.270267 h -0.30902 z m 0.16279,0.240295 h 0.14211 0.14211 l 0.12919,0.24598 0.12919,0.24598 0.15038,0.05013 c 0.0826,0.02754 0.21969,0.08548 0.30489,0.128674 l 0.15503,0.07855 0.2651,-0.0894 0.26458,-0.08992 0.1049,0.104903 0.10439,0.104387 -0.0848,0.265616 -0.0847,0.265101 0.0687,0.133842 c 0.0379,0.07359 0.0917,0.208296 0.11937,0.299206 l 0.0501,0.165365 0.24495,0.128674 0.24546,0.129191 v 0.15813 0.157613 l -0.23823,0.116272 -0.23823,0.116272 -0.0661,0.182935 c -0.0364,0.10059 -0.0983,0.237987 -0.13746,0.305407 l -0.0713,0.122473 0.0904,0.267168 0.0904,0.267167 -0.10335,0.103353 -0.10284,0.103352 -0.262,-0.09198 -0.262,-0.09147 -0.21239,0.101803 c -0.11686,0.05601 -0.25817,0.110503 -0.31367,0.120923 l -0.10077,0.0186 -0.12506,0.252181 -0.12454,0.251664 h -0.14211 -0.14263 l -0.12867,-0.246496 -0.12919,-0.24598 -0.16485,-0.05478 c -0.0907,-0.03028 -0.22862,-0.08827 -0.30592,-0.128674 l -0.14005,-0.07338 -0.2651,0.0894 -0.26458,0.0894 -0.0987,-0.0987 -0.0987,-0.09922 0.0894,-0.264584 0.0894,-0.264583 -0.0734,-0.14056 c -0.0404,-0.07728 -0.0984,-0.214668 -0.12867,-0.305408 l -0.0553,-0.164847 -0.24598,-0.129191 -0.24598,-0.129192 v -0.14211 -0.14211 l 0.25269,-0.125574 0.2527,-0.125057 0.0212,-0.09922 c 0.0116,-0.05458 0.066,-0.197556 0.12092,-0.317294 l 0.0997,-0.217557 -0.0899,-0.24598 -0.0899,-0.24598 0.11524,-0.115238 0.11524,-0.115239 0.24908,0.09095 0.24857,0.09095 0.216,-0.102836 c 0.11889,-0.05643 0.26115,-0.11164 0.31575,-0.12299 l 0.0992,-0.02067 0.12506,-0.252698 z m 0.14469,1.413867 c -0.49837,0 -0.91984,0.421468 -0.91984,0.919841 0,0.498371 0.42147,0.91829 0.91984,0.91829 0.49838,0 0.92037,-0.419919 0.92036,-0.91829 10e-6,-0.498373 -0.42198,-0.919841 -0.92036,-0.919841 z m 0,0.238229 c 0.36633,0 0.68161,0.31528 0.68161,0.681612 0,0.36633 -0.31528,0.680062 -0.68161,0.680062 -0.36633,0 -0.67955,-0.313732 -0.67955,-0.680062 0,-0.366332 0.31322,-0.681612 0.67955,-0.681612 z" />
    </g>
    <path
       style="fill:#c00000;fill-opacity:1;stroke-width:0.0383333"
       d="m 265.11349,132.76787 -0.1689,-0.33629 -0.27748,-0.10838 -0.27748,-0.10838 -0.36128,0.10669 -0.36128,0.10669 -0.30795,-0.30795 -0.30795,-0.30795 0.1108,-0.36032 0.11079,-0.36032 -0.10202,-0.26834 -0.10202,-0.26833 -0.35022,-0.18361 -0.35022,-0.1836 v -0.43779 -0.43778 l 0.35022,-0.18361 0.35022,-0.18361 0.10202,-0.26833 0.10202,-0.26834 -0.11079,-0.36032 -0.1108,-0.36032 0.30952,-0.30952 0.30951,-0.30951 0.3665,0.12072 0.3665,0.12072 0.19962,-0.0882 c 0.1098,-0.0485 0.22926,-0.0982 0.26548,-0.11046 0.0362,-0.0122 0.14421,-0.17825 0.23997,-0.36892 l 0.17411,-0.34668 h 0.45097 0.45096 l 0.1809,0.36417 c 0.0995,0.20029 0.20474,0.36417 0.23388,0.36417 0.0291,0 0.14717,0.0417 0.26229,0.0926 l 0.20931,0.0926 0.31574,-0.11173 c 0.17366,-0.0615 0.34508,-0.11174 0.38094,-0.11174 0.0359,0 0.20054,0.13613 0.36594,0.30251 l 0.30073,0.3025 -0.12359,0.37098 -0.12359,0.37098 0.0999,0.22256 c 0.0549,0.12241 0.0999,0.24179 0.0999,0.2653 0,0.0235 0.15525,0.12071 0.345,0.21601 l 0.345,0.17327 v 0.45923 0.45923 l -0.33541,0.1697 -0.33542,0.16971 -0.10866,0.27206 -0.10866,0.27206 0.11855,0.35346 0.11854,0.35346 -0.3183,0.3183 -0.31831,0.31831 -0.36589,-0.12748 -0.36589,-0.12748 -0.22652,0.10671 c -0.12459,0.0587 -0.24454,0.10677 -0.26656,0.10684 -0.022,6e-5 -0.11613,0.15537 -0.20913,0.34512 l -0.16911,0.345 h -0.45173 -0.45173 z m 0.91298,-0.4633 c 0.14609,-0.29963 0.14804,-0.30161 0.36226,-0.36792 0.11846,-0.0367 0.30659,-0.11542 0.41806,-0.175 l 0.20268,-0.10833 0.32075,0.10842 0.32074,0.10842 0.0988,-0.10309 0.0988,-0.10308 -0.1023,-0.31205 -0.1023,-0.31204 0.12129,-0.24245 c 0.0667,-0.13335 0.14189,-0.32201 0.16706,-0.41924 0.0444,-0.17141 0.0555,-0.18159 0.36507,-0.33514 0.30323,-0.15038 0.3193,-0.16469 0.3193,-0.28426 0,-0.11966 -0.016,-0.13383 -0.32234,-0.28577 -0.28615,-0.14191 -0.3254,-0.17408 -0.34948,-0.28646 -0.0149,-0.0696 -0.0873,-0.25903 -0.16089,-0.42091 l -0.13376,-0.29431 0.10444,-0.31361 0.10444,-0.31361 -0.0998,-0.0998 -0.0998,-0.0998 -0.32424,0.1056 -0.32425,0.10559 -0.22262,-0.11132 c -0.12243,-0.0612 -0.31378,-0.14119 -0.42521,-0.17769 -0.197,-0.0645 -0.2068,-0.0747 -0.35501,-0.3695 -0.14394,-0.28628 -0.15942,-0.30314 -0.27848,-0.30314 -0.11953,0 -0.13379,0.0158 -0.27509,0.30566 l -0.14903,0.30567 -0.25156,0.0805 c -0.13836,0.0443 -0.32576,0.12362 -0.41645,0.17627 l -0.16488,0.0957 -0.33989,-0.11399 -0.3399,-0.114 -0.0874,0.093 -0.0874,0.093 0.10509,0.32268 0.10508,0.32267 -0.11133,0.22261 c -0.0612,0.12244 -0.14119,0.31379 -0.17769,0.42521 -0.0645,0.19701 -0.0747,0.2068 -0.3695,0.35501 -0.29047,0.14605 -0.30314,0.15794 -0.30314,0.28448 0,0.12627 0.0137,0.13927 0.31258,0.29665 0.30809,0.16224 0.3135,0.16763 0.37697,0.37543 0.0354,0.11596 0.11015,0.30037 0.16607,0.40979 l 0.10168,0.19895 -0.1018,0.32835 -0.10179,0.32835 0.085,0.0904 0.0849,0.0904 0.33361,-0.10468 0.3336,-0.10468 0.25465,0.12744 c 0.14005,0.0701 0.33132,0.14676 0.42503,0.17036 0.16338,0.0411 0.17647,0.0554 0.31845,0.34658 0.14416,0.29569 0.15169,0.30369 0.28604,0.30369 0.13426,0 0.14195,-0.008 0.28486,-0.30126 z m -0.77237,-1.38738 c -0.2586,-0.10231 -0.52628,-0.3647 -0.65419,-0.64125 -0.0809,-0.17497 -0.10159,-0.27775 -0.10227,-0.50861 -10e-4,-0.50801 0.26727,-0.92371 0.73594,-1.13827 0.23646,-0.10826 0.62264,-0.131 0.8722,-0.0514 0.86923,0.27735 1.15222,1.38528 0.52302,2.04771 -0.23044,0.2426 -0.46975,0.34362 -0.84885,0.35831 -0.26022,0.0101 -0.36612,-0.003 -0.52585,-0.0665 z m 0.87934,-0.53277 c 0.20724,-0.142 0.3108,-0.3224 0.32775,-0.57093 0.0254,-0.37239 -0.19771,-0.67343 -0.57425,-0.77482 -0.34555,-0.093 -0.7753,0.17352 -0.87466,0.54255 -0.0834,0.30956 0.083,0.6806 0.37681,0.84019 0.19794,0.10754 0.55966,0.0896 0.74435,-0.037 z m 2.42938,-3.21235 -0.16957,-0.33541 -0.28396,-0.105 -0.28396,-0.105 -0.35625,0.11948 -0.35626,0.11948 -0.30717,-0.30717 -0.30717,-0.30717 0.11948,-0.35625 0.11948,-0.35626 -0.105,-0.28396 -0.10499,-0.28396 -0.33542,-0.16957 -0.33542,-0.16956 v -0.45173 -0.45173 l 0.345,-0.16911 c 0.18975,-0.093 0.345,-0.19093 0.345,-0.21762 0,-0.0267 0.0441,-0.1482 0.098,-0.27003 l 0.098,-0.22151 -0.12647,-0.37376 -0.12647,-0.37376 0.31594,-0.31594 0.31594,-0.31594 0.37376,0.12646 0.37376,0.12647 0.22151,-0.098 c 0.12183,-0.0539 0.24335,-0.098 0.27003,-0.098 0.0267,0 0.12462,-0.15525 0.21763,-0.345 l 0.1691,-0.345 h 0.45173 0.45173 l 0.17327,0.345 c 0.0953,0.18975 0.1925,0.345 0.21601,0.345 0.0235,0 0.14289,0.0449 0.2653,0.0999 l 0.22256,0.0999 0.37101,-0.1236 0.37102,-0.12361 0.3174,0.31575 0.3174,0.31575 -0.12277,0.36618 -0.12276,0.36617 0.11356,0.2759 0.11357,0.27589 0.33927,0.16629 0.33927,0.1663 v 0.45059 0.45059 l -0.34946,0.18361 -0.34946,0.18361 -0.11073,0.26767 -0.11073,0.26767 0.11988,0.35985 0.11988,0.35984 -0.31135,0.31135 -0.31135,0.31135 -0.37376,-0.12647 -0.37376,-0.12647 -0.22151,0.098 c -0.12183,0.0539 -0.24334,0.098 -0.27003,0.098 -0.0267,0 -0.12462,0.15525 -0.21762,0.345 l -0.16911,0.345 h -0.45173 -0.45173 z m 0.90503,-0.43857 0.1646,-0.31398 0.25845,-0.0859 c 0.14215,-0.0472 0.32802,-0.12499 0.41304,-0.17277 l 0.15457,-0.0869 0.32966,0.10736 0.32967,0.10736 0.0964,-0.0964 0.0964,-0.0964 -0.10869,-0.30589 -0.10868,-0.30589 0.15587,-0.33952 c 0.0857,-0.18674 0.16611,-0.38321 0.17861,-0.4366 0.0176,-0.0753 0.0918,-0.13076 0.33075,-0.24726 0.29227,-0.14249 0.30803,-0.15663 0.30803,-0.27624 0,-0.11905 -0.0169,-0.13454 -0.30313,-0.27848 -0.2952,-0.14842 -0.30486,-0.15773 -0.36863,-0.35501 -0.036,-0.11143 -0.11578,-0.30338 -0.17725,-0.42657 l -0.11176,-0.22396 0.10515,-0.3229 0.10516,-0.32289 -0.10065,-0.10065 -0.10065,-0.10065 -0.30834,0.10733 -0.30833,0.10734 -0.2987,-0.13577 c -0.16429,-0.0747 -0.35567,-0.14797 -0.42529,-0.16289 -0.11238,-0.0241 -0.14455,-0.0633 -0.28646,-0.34948 -0.15194,-0.30636 -0.16611,-0.32234 -0.28577,-0.32234 -0.11957,0 -0.13388,0.0161 -0.28426,0.3193 -0.15315,0.3088 -0.16417,0.32085 -0.33514,0.36654 -0.0972,0.026 -0.28604,0.101 -0.41959,0.16671 l -0.24281,0.11948 -0.32739,-0.10662 -0.32738,-0.10661 -0.095,0.095 -0.095,0.095 0.10662,0.32739 0.10662,0.32739 -0.11948,0.24281 c -0.0657,0.13354 -0.14074,0.32236 -0.16672,0.41958 -0.0457,0.17097 -0.0577,0.18199 -0.36654,0.33514 -0.30322,0.15039 -0.3193,0.1647 -0.3193,0.28426 0,0.11966 0.016,0.13383 0.32235,0.28577 0.28615,0.14192 0.32539,0.17409 0.34948,0.28646 0.0149,0.0696 0.0888,0.26227 0.16417,0.4281 l 0.13705,0.3015 -0.10858,0.30558 -0.10857,0.30557 0.097,0.097 0.097,0.097 0.31445,-0.10472 0.31445,-0.10472 0.29347,0.13537 c 0.16141,0.0745 0.35044,0.14699 0.42007,0.16117 0.11282,0.023 0.14398,0.0609 0.28646,0.34814 0.15117,0.30482 0.16661,0.32235 0.28381,0.32235 0.11622,0 0.1342,-0.0196 0.28854,-0.31399 z m -0.55475,-1.33548 c -0.35768,-0.0898 -0.67616,-0.34809 -0.84038,-0.68147 -0.0738,-0.14972 -0.0886,-0.24097 -0.0886,-0.54406 0,-0.33124 0.0102,-0.38255 0.11263,-0.56747 0.12796,-0.23098 0.32573,-0.42385 0.56606,-0.55202 0.13843,-0.0738 0.22263,-0.0878 0.52881,-0.0877 0.32114,7e-5 0.38731,0.0123 0.55996,0.10319 0.9083,0.47835 0.90957,1.77024 0.002,2.21491 -0.26202,0.12841 -0.60149,0.17471 -0.84065,0.11464 z m 0.48248,-0.49996 c 0.2154,-0.0598 0.43127,-0.27298 0.50683,-0.50049 0.11437,-0.34432 -0.0443,-0.71184 -0.37686,-0.87282 -0.32913,-0.15933 -0.67481,-0.0708 -0.92206,0.23624 -0.15738,0.19542 -0.1865,0.51549 -0.068,0.74771 0.0928,0.182 0.27212,0.33075 0.46449,0.38542 0.17981,0.0511 0.22421,0.0515 0.39563,0.004 z"
       id="path7804" />
    <path
       style="fill:#c00000;fill-opacity:1;stroke-width:0.0383333"
       d="m 178.30744,132.6003 -0.1689,-0.33629 -0.27748,-0.10838 -0.27748,-0.10838 -0.36128,0.10669 -0.36128,0.10669 -0.30795,-0.30795 -0.30795,-0.30795 0.1108,-0.36032 0.11079,-0.36032 -0.10202,-0.26834 -0.10202,-0.26833 -0.35022,-0.18361 -0.35022,-0.1836 v -0.43779 -0.43778 l 0.35022,-0.18361 0.35022,-0.18361 0.10202,-0.26833 0.10202,-0.26834 -0.11079,-0.36032 -0.1108,-0.36032 0.30952,-0.30952 0.30951,-0.30951 0.3665,0.12072 0.3665,0.12072 0.19962,-0.0882 c 0.1098,-0.0485 0.22926,-0.0982 0.26548,-0.11046 0.0362,-0.0122 0.14421,-0.17825 0.23997,-0.36892 l 0.17411,-0.34668 h 0.45097 0.45096 l 0.1809,0.36417 c 0.0995,0.20029 0.20474,0.36417 0.23388,0.36417 0.0291,0 0.14717,0.0417 0.26229,0.0926 l 0.20931,0.0926 0.31574,-0.11173 c 0.17366,-0.0615 0.34508,-0.11174 0.38094,-0.11174 0.0359,0 0.20054,0.13613 0.36594,0.30251 l 0.30073,0.3025 -0.12359,0.37098 -0.12359,0.37098 0.0999,0.22256 c 0.0549,0.12241 0.0999,0.24179 0.0999,0.2653 0,0.0235 0.15525,0.12071 0.345,0.21601 l 0.345,0.17327 v 0.45923 0.45923 l -0.33541,0.1697 -0.33542,0.16971 -0.10866,0.27206 -0.10866,0.27206 0.11855,0.35346 0.11854,0.35346 -0.3183,0.3183 -0.31831,0.31831 -0.36589,-0.12748 -0.36589,-0.12748 -0.22652,0.10671 c -0.12459,0.0587 -0.24454,0.10677 -0.26656,0.10684 -0.022,6e-5 -0.11613,0.15537 -0.20913,0.34512 l -0.16911,0.345 h -0.45173 -0.45173 z m 0.91298,-0.4633 c 0.14609,-0.29963 0.14804,-0.30161 0.36226,-0.36792 0.11846,-0.0367 0.30659,-0.11542 0.41806,-0.175 l 0.20268,-0.10833 0.32075,0.10842 0.32074,0.10842 0.0988,-0.10309 0.0988,-0.10308 -0.1023,-0.31205 -0.1023,-0.31204 0.12129,-0.24245 c 0.0667,-0.13335 0.14189,-0.32201 0.16706,-0.41924 0.0444,-0.17141 0.0555,-0.18159 0.36507,-0.33514 0.30323,-0.15038 0.3193,-0.16469 0.3193,-0.28426 0,-0.11966 -0.016,-0.13383 -0.32234,-0.28577 -0.28615,-0.14191 -0.3254,-0.17408 -0.34948,-0.28646 -0.0149,-0.0696 -0.0873,-0.25903 -0.16089,-0.42091 l -0.13376,-0.29431 0.10444,-0.31361 0.10444,-0.31361 -0.0998,-0.0998 -0.0998,-0.0998 -0.32424,0.1056 -0.32425,0.10559 -0.22262,-0.11132 c -0.12243,-0.0612 -0.31378,-0.14119 -0.42521,-0.17769 -0.197,-0.0645 -0.2068,-0.0747 -0.35501,-0.3695 -0.14394,-0.28628 -0.15942,-0.30314 -0.27848,-0.30314 -0.11953,0 -0.13379,0.0158 -0.27509,0.30566 l -0.14903,0.30567 -0.25156,0.0805 c -0.13836,0.0443 -0.32576,0.12362 -0.41645,0.17627 l -0.16488,0.0957 -0.33989,-0.11399 -0.3399,-0.114 -0.0874,0.093 -0.0874,0.093 0.10509,0.32268 0.10508,0.32267 -0.11133,0.22261 c -0.0612,0.12244 -0.14119,0.31379 -0.17769,0.42521 -0.0645,0.19701 -0.0747,0.2068 -0.3695,0.35501 -0.29047,0.14605 -0.30314,0.15794 -0.30314,0.28448 0,0.12627 0.0137,0.13927 0.31258,0.29665 0.30809,0.16224 0.3135,0.16763 0.37697,0.37543 0.0354,0.11596 0.11015,0.30037 0.16607,0.40979 l 0.10168,0.19895 -0.1018,0.32835 -0.10179,0.32835 0.085,0.0904 0.0849,0.0904 0.33361,-0.10468 0.3336,-0.10468 0.25465,0.12744 c 0.14005,0.0701 0.33132,0.14676 0.42503,0.17036 0.16338,0.0411 0.17647,0.0554 0.31845,0.34658 0.14416,0.29569 0.15169,0.30369 0.28604,0.30369 0.13426,0 0.14195,-0.008 0.28486,-0.30126 z m -0.77237,-1.38738 c -0.2586,-0.10231 -0.52628,-0.3647 -0.65419,-0.64125 -0.0809,-0.17497 -0.10159,-0.27775 -0.10227,-0.50861 -0.001,-0.50801 0.26727,-0.92371 0.73594,-1.13827 0.23646,-0.10826 0.62264,-0.131 0.8722,-0.0514 0.86923,0.27735 1.15222,1.38528 0.52302,2.04771 -0.23044,0.2426 -0.46975,0.34362 -0.84885,0.35831 -0.26022,0.0101 -0.36612,-0.003 -0.52585,-0.0665 z m 0.87934,-0.53277 c 0.20724,-0.142 0.3108,-0.3224 0.32775,-0.57093 0.0254,-0.37239 -0.19771,-0.67343 -0.57425,-0.77482 -0.34555,-0.093 -0.7753,0.17352 -0.87466,0.54255 -0.0834,0.30956 0.083,0.6806 0.37681,0.84019 0.19794,0.10754 0.55966,0.0896 0.74435,-0.037 z m 2.42938,-3.21235 -0.16957,-0.33541 -0.28396,-0.105 -0.28396,-0.105 -0.35625,0.11948 -0.35626,0.11948 -0.30717,-0.30717 -0.30717,-0.30717 0.11948,-0.35625 0.11948,-0.35626 -0.105,-0.28396 -0.10499,-0.28396 -0.33542,-0.16957 -0.33542,-0.16956 v -0.45173 -0.45173 l 0.345,-0.16911 c 0.18975,-0.093 0.345,-0.19093 0.345,-0.21762 0,-0.0267 0.0441,-0.1482 0.098,-0.27003 l 0.098,-0.22151 -0.12647,-0.37376 -0.12647,-0.37376 0.31594,-0.31594 0.31594,-0.31594 0.37376,0.12646 0.37376,0.12647 0.22151,-0.098 c 0.12183,-0.0539 0.24335,-0.098 0.27003,-0.098 0.0267,0 0.12462,-0.15525 0.21763,-0.345 l 0.1691,-0.345 h 0.45173 0.45173 l 0.17327,0.345 c 0.0953,0.18975 0.1925,0.345 0.21601,0.345 0.0235,0 0.14289,0.0449 0.2653,0.0999 l 0.22256,0.0999 0.37101,-0.1236 0.37102,-0.12361 0.3174,0.31575 0.3174,0.31575 -0.12277,0.36618 -0.12276,0.36617 0.11356,0.2759 0.11357,0.27589 0.33927,0.16629 0.33927,0.1663 v 0.45059 0.45059 l -0.34946,0.18361 -0.34946,0.18361 -0.11073,0.26767 -0.11073,0.26767 0.11988,0.35985 0.11988,0.35984 -0.31135,0.31135 -0.31135,0.31135 -0.37376,-0.12647 -0.37376,-0.12647 -0.22151,0.098 c -0.12183,0.0539 -0.24334,0.098 -0.27003,0.098 -0.0267,0 -0.12462,0.15525 -0.21762,0.345 l -0.16911,0.345 h -0.45173 -0.45173 z m 0.90503,-0.43857 0.1646,-0.31398 0.25845,-0.0859 c 0.14215,-0.0472 0.32802,-0.12499 0.41304,-0.17277 l 0.15457,-0.0869 0.32966,0.10736 0.32967,0.10736 0.0964,-0.0964 0.0964,-0.0964 -0.10869,-0.30589 -0.10868,-0.30589 0.15587,-0.33952 c 0.0857,-0.18674 0.16611,-0.38321 0.17861,-0.4366 0.0176,-0.0753 0.0918,-0.13076 0.33075,-0.24726 0.29227,-0.14249 0.30803,-0.15663 0.30803,-0.27624 0,-0.11905 -0.0169,-0.13454 -0.30313,-0.27848 -0.2952,-0.14842 -0.30486,-0.15773 -0.36863,-0.35501 -0.036,-0.11143 -0.11578,-0.30338 -0.17725,-0.42657 l -0.11176,-0.22396 0.10515,-0.3229 0.10516,-0.32289 -0.10065,-0.10065 -0.10065,-0.10065 -0.30834,0.10733 -0.30833,0.10734 -0.2987,-0.13577 c -0.16429,-0.0747 -0.35567,-0.14797 -0.42529,-0.16289 -0.11238,-0.0241 -0.14455,-0.0633 -0.28646,-0.34948 -0.15194,-0.30636 -0.16611,-0.32234 -0.28577,-0.32234 -0.11957,0 -0.13388,0.0161 -0.28426,0.3193 -0.15315,0.3088 -0.16417,0.32085 -0.33514,0.36654 -0.0972,0.026 -0.28604,0.101 -0.41959,0.16671 l -0.24281,0.11948 -0.32739,-0.10662 -0.32738,-0.10661 -0.095,0.095 -0.095,0.095 0.10662,0.32739 0.10662,0.32739 -0.11948,0.24281 c -0.0657,0.13354 -0.14074,0.32236 -0.16672,0.41958 -0.0457,0.17097 -0.0577,0.18199 -0.36654,0.33514 -0.30322,0.15039 -0.3193,0.1647 -0.3193,0.28426 0,0.11966 0.016,0.13383 0.32235,0.28577 0.28615,0.14192 0.32539,0.17409 0.34948,0.28646 0.0149,0.0696 0.0888,0.26227 0.16417,0.4281 l 0.13705,0.3015 -0.10858,0.30558 -0.10857,0.30557 0.097,0.097 0.097,0.097 0.31445,-0.10472 0.31445,-0.10472 0.29347,0.13537 c 0.16141,0.0745 0.35044,0.14699 0.42007,0.16117 0.11282,0.023 0.14398,0.0609 0.28646,0.34814 0.15117,0.30482 0.16661,0.32235 0.28381,0.32235 0.11622,0 0.1342,-0.0196 0.28854,-0.31399 z m -0.55475,-1.33548 c -0.35768,-0.0898 -0.67616,-0.34809 -0.84038,-0.68147 -0.0738,-0.14972 -0.0886,-0.24097 -0.0886,-0.54406 0,-0.33124 0.0102,-0.38255 0.11263,-0.56747 0.12796,-0.23098 0.32573,-0.42385 0.56606,-0.55202 0.13843,-0.0738 0.22263,-0.0878 0.52881,-0.0877 0.32114,7e-5 0.38731,0.0123 0.55996,0.10319 0.9083,0.47835 0.90957,1.77024 0.002,2.21491 -0.26202,0.12841 -0.60149,0.17471 -0.84065,0.11464 z m 0.48248,-0.49996 c 0.2154,-0.0598 0.43127,-0.27298 0.50683,-0.50049 0.11437,-0.34432 -0.0443,-0.71184 -0.37686,-0.87282 -0.32913,-0.15933 -0.67481,-0.0708 -0.92206,0.23624 -0.15738,0.19542 -0.1865,0.51549 -0.068,0.74771 0.0928,0.182 0.27212,0.33075 0.46449,0.38542 0.17981,0.0511 0.22421,0.0515 0.39563,0.004 z"
       id="path5379" />
    <path
       style="fill:#c00000;fill-opacity:1;stroke-width:0.0423412"
       d="m 57.480036,133.30884 c -1.47984,-0.28086 -2.65634,-1.17505 -3.09997,-2.35609 -0.0725,-0.19302 -0.16278,-0.61894 -0.23706,-1.11846 -0.28177,-1.89485 -0.43242,-2.9674 -0.41859,-2.98009 0.008,-0.007 1.50655,-0.16164 3.32979,-0.34259 1.82324,-0.18096 3.31816,-0.33105 3.32205,-0.33353 0.004,-0.002 -0.0524,-0.15204 -0.12518,-0.33234 -0.13558,-0.33609 -0.24518,-0.99103 -0.20687,-1.23623 0.0114,-0.0731 0.1181,-0.92259 0.23707,-1.88775 0.11897,-0.96515 0.2247,-1.76261 0.23495,-1.77213 0.0204,-0.019 8.30107,0.69282 8.33231,0.71621 0.0324,0.0243 -0.41624,3.52419 -0.49135,3.83279 -0.32344,1.32873 -1.61106,2.39905 -3.225,2.68073 -0.43365,0.0757 -1.30101,0.0739 -1.75512,-0.004 -0.19706,-0.0336 -0.50995,-0.10987 -0.6953,-0.16943 -0.18536,-0.0596 -0.33701,-0.0914 -0.33701,-0.0707 0,0.0207 0.0545,0.40497 0.12112,0.85401 0.19752,1.33142 0.12641,1.93291 -0.31608,2.67382 -0.50568,0.84671 -1.48135,1.51945 -2.59465,1.78904 -0.44891,0.10871 -1.63015,0.14077 -2.07511,0.0563 z m 1.95947,-0.56112 c 1.48768,-0.38005 2.53236,-1.53082 2.53377,-2.79106 2.3e-4,-0.19282 -0.0664,-0.8105 -0.14794,-1.37262 l -0.14833,-1.02204 -0.35525,-0.28926 c -0.19539,-0.15909 -0.41516,-0.36449 -0.48839,-0.45645 -0.12826,-0.16106 -0.14007,-0.16638 -0.3219,-0.14502 -0.10382,0.0122 -1.51704,0.15396 -3.14048,0.31503 -1.62345,0.16106 -2.95935,0.29918 -2.96868,0.30691 -0.0287,0.0238 0.41427,3.03045 0.48419,3.28636 0.3348,1.2253 1.64769,2.1808 3.13439,2.28117 0.47105,0.0318 1.02429,-0.0123 1.41862,-0.11302 z m -3.01425,-1.2645 c -0.0423,-0.0388 -0.0769,-0.11013 -0.0769,-0.15852 0,-0.15014 0.28568,-0.54176 0.56313,-0.77196 0.85584,-0.71009 2.18664,-0.81203 3.21328,-0.24614 0.54276,0.29917 0.77518,0.62774 0.56652,0.80087 -0.14655,0.12159 -0.31665,0.0751 -0.61262,-0.16743 -0.30771,-0.25216 -0.50632,-0.34926 -0.917,-0.44831 -0.74782,-0.18038 -1.63786,0.11596 -2.06992,0.68918 -0.0986,0.13082 -0.21208,0.26822 -0.25216,0.30534 -0.095,0.088 -0.31677,0.0864 -0.4143,-0.003 z m -0.37062,-2.16776 c -0.22708,-0.14821 -0.17938,-0.24442 0.38745,-0.78142 0.28166,-0.26684 0.55325,-0.496 0.60354,-0.50924 0.0503,-0.0132 0.14929,-0.001 0.22001,0.0268 0.10035,0.0397 0.13169,0.0818 0.14275,0.1917 0.0131,0.13057 -0.0234,0.17618 -0.50214,0.62645 -0.28398,0.2671 -0.53443,0.48563 -0.55656,0.48563 -0.0221,0 -0.0695,0.009 -0.10531,0.0207 -0.0358,0.0114 -0.12117,-0.0159 -0.18974,-0.0606 z m 3.52432,-0.67816 c -0.71511,-0.42196 -0.7205,-0.42629 -0.7205,-0.57901 0,-0.15146 0.16816,-0.26734 0.33695,-0.2322 0.11487,0.0239 1.04937,0.55456 1.25513,0.7127 0.14423,0.11086 0.16167,0.2194 0.0555,0.34521 -0.13656,0.16176 -0.3155,0.11414 -0.92705,-0.2467 z m 5.67628,-0.99749 c 0.9573,-0.2299 1.77217,-0.80019 2.2035,-1.54211 0.12575,-0.21629 0.25702,-0.51452 0.29765,-0.6762 0.0774,-0.30795 0.46338,-3.27615 0.42967,-3.30412 -0.0283,-0.0234 -7.10278,-0.63732 -7.12567,-0.61832 -0.0476,0.0395 -0.39501,2.94588 -0.39508,3.30536 -1.4e-4,0.6451 0.20358,1.15947 0.67971,1.71625 0.45437,0.53134 1.24469,0.98071 1.99914,1.1367 0.56084,0.11596 1.38675,0.10837 1.91108,-0.0176 z m -1.7722,-1.03668 c -0.42334,-0.11383 -0.77573,-0.30379 -1.08523,-0.58501 -0.45591,-0.41426 -0.58264,-0.77006 -0.31086,-0.8728 0.19449,-0.0735 0.32934,-0.0123 0.48869,0.222 0.19853,0.29187 0.50111,0.52694 0.87471,0.67953 0.29379,0.12001 0.33734,0.12672 0.82252,0.12672 0.4608,0 0.53952,-0.0106 0.78311,-0.10527 0.15952,-0.062 0.39984,-0.20862 0.58477,-0.35675 0.25111,-0.20114 0.34324,-0.25149 0.46024,-0.25149 0.1844,0 0.31328,0.14219 0.26713,0.29473 -0.0464,0.15333 -0.57074,0.56639 -0.88727,0.69893 -0.43771,0.18329 -0.73273,0.2407 -1.22706,0.23878 -0.33157,-10e-4 -0.52776,-0.024 -0.77075,-0.0894 z m 2.20362,-2.95089 c -0.39924,-0.0373 -0.71044,-0.085 -0.75536,-0.11596 -0.10827,-0.0746 -0.0974,-0.28541 0.0192,-0.37298 0.0925,-0.0695 0.12054,-0.0697 0.87157,-0.007 0.68264,0.057 0.78574,0.0747 0.85731,0.14722 0.0447,0.0453 0.0813,0.11597 0.0813,0.157 0,0.096 -0.20331,0.26528 -0.31166,0.25948 -0.0459,-0.002 -0.38899,-0.033 -0.76242,-0.0678 z m -2.93501,-0.2541 c -0.53124,-0.0501 -0.6858,-0.11068 -0.6858,-0.26881 0,-0.045 0.0326,-0.12043 0.0724,-0.16758 0.0847,-0.10027 0.29279,-0.11015 0.97353,-0.0462 0.78747,0.074 0.85996,0.0996 0.85996,0.30436 0,0.24249 -0.2113,0.27335 -1.22006,0.17822 z"
       id="path4820" />
    <path
       d="M 196.95043,174.13334 H 87.980546 V 42.053348 H 305.91042 V 174.13334 Z"
       style="fill:none;stroke:#595959;stroke-width:0.349994;stroke-linecap:butt;stroke-linejoin:miter;stroke-miterlimit:10;stroke-dasharray:1.39997, 1.04998;stroke-dashoffset:0;stroke-opacity:1"
       id="path222"
       clip-path="none" />
    <text
       xml:space="preserve"
       style="font-variant:normal;font-weight:normal;font-size:4.93995px;font-family:Carlito;-inkscape-font-specification:Carlito;writing-mode:lr-tb;fill:#000000;fill-opacity:1;fill-rule:nonzero;stroke:none;stroke-width:0.352778"
       id="text232"
       x="173.59712"
       y="103.70337"><tspan
         id="tspan230"
         x="173.59712"
         y="103.70337"
         style="stroke-width:0.352778">Service</tspan></text>
    <path
       id="path236"
       style="color:#000000;fill:#000000;stroke-miterlimit:10;-inkscape-stroke:none"
       d="m 76.630836,69.123178 -2.10013,1.05058 2.10013,1.04955 v -0.96015 l 90.979974,0.0196 v 0.96066 l 2.10013,-1.05006 -2.10013,-1.05007 v 0.95963 l -90.979974,-0.0196 z" />
    <text
       xml:space="preserve"
       style="font-variant:normal;font-weight:normal;font-size:4.93995px;font-family:Carlito;-inkscape-font-specification:Carlito;writing-mode:lr-tb;fill:#000000;fill-opacity:1;fill-rule:nonzero;stroke:none;stroke-width:0.352778"
       id="text246"
       x="124.50049"
       y="84.793442"><tspan
         x="124.50049 127.35577 129.8949"
         y="84.793442"
         id="tspan244"
         style="stroke-width:0.352778">API</tspan></text>
    <g
       id="g853">
      <text
         xml:space="preserve"
         style="font-variant:normal;font-weight:normal;font-size:4.93995px;font-family:Carlito;-inkscape-font-specification:Carlito;writing-mode:lr-tb;fill:#000000;fill-opacity:1;fill-rule:nonzero;stroke:none;stroke-width:0.352778"
         id="text256"
         x="262.26053"
         y="100.73333"><tspan
           x="262.26053 265.29364 267.62036 269.24561 271.61185"
           y="100.73333"
           id="tspan254"
           style="stroke-width:0.352778">Data </tspan></text>
      <text
         xml:space="preserve"
         style="font-variant:normal;font-weight:normal;font-size:4.93995px;font-family:Carlito;-inkscape-font-specification:Carlito;writing-mode:lr-tb;fill:#000000;fill-opacity:1;fill-rule:nonzero;stroke:none;stroke-width:0.352778"
         id="text262"
         x="261.63046"
         y="106.66353"><tspan
           x="261.63046 263.88803 265.51328 268.12155 269.78137"
           y="106.66353"
           id="tspan260"
           style="stroke-width:0.352778">Store</tspan></text>
    </g>
    <text
       xml:space="preserve"
       style="font-variant:normal;font-weight:normal;font-size:4.93995px;font-family:Carlito;-inkscape-font-specification:Carlito;writing-mode:lr-tb;fill:#000000;fill-opacity:1;fill-rule:nonzero;stroke:none;stroke-width:0.352778"
       id="text268"
       x="219.26044"
       y="84.61351"><tspan
         id="tspan266"
         style="stroke-width:0.352778"
         x="219.26044"
         y="84.61351">API</tspan></text>
    <path
       d="M 196.95043,42.373308 H 87.798636 v -9.17998 H 306.087 v 9.17998 z"
       style="fill:#595959;fill-opacity:1;fill-rule:evenodd;stroke:none;stroke-width:0.352778"
       id="path270"
       clip-path="none" />
    <text
       xml:space="preserve"
       style="font-variant:normal;font-weight:normal;font-size:6.35px;font-family:Carlito;-inkscape-font-specification:Carlito;writing-mode:lr-tb;fill:#ffffff;fill-opacity:1;fill-rule:nonzero;stroke:none;stroke-width:0.352778"
       id="text276"
       x="182.18066"
       y="40.34343"><tspan
         id="tspan274"
         style="font-style:normal;font-variant:normal;font-weight:normal;font-stretch:normal;font-family:Carlito;-inkscape-font-specification:Carlito;stroke-width:0.352778"
         x="182.18066"
         y="40.34343">Kubernetes</tspan></text>
    <path
       id="path312"
       style="color:#000000;fill:#c00000;stroke-miterlimit:10;-inkscape-stroke:none"
       d="m 164.83062,124.42367 0.007,1.58646 -85.779784,0.29663 -0.007,-1.59319 -4.76043,2.39985 4.78007,2.36989 -0.007,-1.58647 85.779774,-0.29662 0.007,1.59318 4.76043,-2.39985 z" />
    <text
       xml:space="preserve"
       style="font-variant:normal;font-weight:normal;font-size:6.35px;font-family:Carlito;-inkscape-font-specification:Carlito;writing-mode:lr-tb;fill:#000000;fill-opacity:1;fill-rule:nonzero;stroke:none;stroke-width:0.352778"
       id="text338"
       x="39.910706"
       y="90.183517"><tspan
         id="tspan336"
         style="stroke-width:0.352778"
         x="39.910706"
         y="90.183517">Benign clients</tspan></text>
    <text
       xml:space="preserve"
       style="font-variant:normal;font-weight:normal;font-size:6.35px;font-family:Carlito;-inkscape-font-specification:Carlito;writing-mode:lr-tb;fill:#c00000;fill-opacity:1;fill-rule:nonzero;stroke:none;stroke-width:0.352778"
       id="text350"
       x="39.98053"
       y="141.9734"><tspan
         id="tspan348"
         style="stroke-width:0.352778"
         x="39.98053"
         y="141.9734">Malicious client</tspan></text>
    <path
       id="path354"
       style="color:#000000;fill:#000000;stroke-width:0.352778;stroke-miterlimit:10;-inkscape-stroke:none"
       d="m 76.370386,73.353408 -2.09962,1.05006 2.09962,1.05007 v -0.96015 l 91.290554,0.0202 v 0.95963 l 2.09961,-1.04955 -2.09961,-1.05006 v 0.96015 l -91.290554,-0.0202 z" />
    <path
       id="path362"
       style="color:#000000;fill:#000000;stroke-width:0.352778;stroke-miterlimit:10;-inkscape-stroke:none"
       d="m 76.640656,78.213578 -2.10013,1.04955 2.10013,1.05058 v -0.96067 l 90.770164,0.0207 v 0.96015 l 2.09962,-1.05058 -2.09962,-1.04955 v 0.95963 l -90.770164,-0.0202 z" />
    <path
       d="m 116.34071,156.77349 v 0 c 0,-0.36018 0.09,-0.71014 0.26987,-1.01 0.17992,-0.31009 0.43992,-0.57009 0.74013,-0.75 0.30974,-0.17004 0.66005,-0.27023 1.01988,-0.27023 l 21.64009,0.0102 23.81991,-26.80018 -13.67014,26.80018 h 4.74028 v 0 c 0.35983,0 0.70979,0.09 1.01,0.26987 0.30974,0.17992 0.56974,0.43992 0.75001,0.74013 0.16968,0.31009 0.26987,0.66005 0.26987,1.01988 v 0 -0.01 0 3.04977 5.07012 0 c 0,0.36019 -0.09,0.71014 -0.26987,1.01 -0.18027,0.31009 -0.44027,0.57009 -0.74013,0.75001 -0.31009,0.17004 -0.66005,0.26987 -1.01988,0.26987 h -4.74028 -10.14977 v 0 h -21.64997 v 0 c -0.36018,0 -0.71014,-0.09 -1.01,-0.26987 -0.31009,-0.17992 -0.57009,-0.43992 -0.75001,-0.74013 -0.17003,-0.30974 -0.27022,-0.65969 -0.27022,-1.01988 l 0.0102,-5.07012 z"
       style="fill:none;stroke:#c00000;stroke-width:0.349994;stroke-linecap:butt;stroke-linejoin:miter;stroke-miterlimit:3.8637;stroke-dasharray:none;stroke-opacity:1"
       id="path370"
       clip-path="none" />
    <g
       id="g384"
       transform="matrix(0.35277776,0,0,-0.35277778,-3.0594036,199.58343)">
      <g
         id="g785">
        <text
           xml:space="preserve"
           style="font-variant:normal;font-weight:normal;font-size:4.93995px;font-family:Carlito;-inkscape-font-specification:Carlito;writing-mode:lr-tb;fill:#c00000;fill-opacity:1;fill-rule:nonzero;stroke:none;stroke-width:0.352778"
           id="text376"
           x="123.90073"
           y="159.86346"
           transform="matrix(2.8346459,0,0,-2.8346457,8.6723256,565.7483)"><tspan
             x="123.90073"
             y="159.86346"
             id="tspan374"
             style="stroke-width:0.352778">Client makes </tspan></text>
        <text
           xml:space="preserve"
           transform="matrix(1,0,0,-1,351.014,95.811)"
           style="font-variant:normal;font-weight:normal;font-size:14.003px;font-family:Carlito;-inkscape-font-specification:Carlito;writing-mode:lr-tb;fill:#c00000;fill-opacity:1;fill-rule:nonzero;stroke:none"
           id="text388"><tspan
             id="tspan386"
             x="0"
             y="0">irregular request</tspan></text>
      </g>
    </g>
    <path
       d="m 218.69071,156.77349 v 0 c 0,-0.36018 0.09,-0.71014 0.26987,-1.01 0.17992,-0.31009 0.43992,-0.57009 0.74013,-0.75 0.30974,-0.17004 0.66005,-0.27023 1.01988,-0.27023 l 21.64009,0.0102 9.67987,-26.80018 0.4699,26.80018 h 4.74028 v 0 c 0.35983,0 0.70979,0.09 1.01,0.26987 0.30974,0.17992 0.56974,0.43992 0.75001,0.74013 0.16968,0.31009 0.26987,0.66005 0.26987,1.01988 v 0 -0.01 0 3.04977 5.07012 0 c 0,0.36019 -0.09,0.71014 -0.26987,1.01 -0.18027,0.31009 -0.44027,0.57009 -0.74013,0.75001 -0.31009,0.17004 -0.66005,0.26987 -1.01988,0.26987 h -4.74028 -10.14977 v 0 h -21.64997 v 0 c -0.36018,0 -0.71014,-0.09 -1.01,-0.26987 -0.31009,-0.17992 -0.57009,-0.43992 -0.75001,-0.74013 -0.17003,-0.30974 -0.27022,-0.65969 -0.27022,-1.01988 l 0.0102,-5.07012 z"
       style="fill:none;stroke:#c00000;stroke-width:0.349994;stroke-linecap:butt;stroke-linejoin:miter;stroke-miterlimit:3.8637;stroke-dasharray:none;stroke-opacity:1"
       id="path392"
       clip-path="none" />
    <g
       id="g829">
      <text
         xml:space="preserve"
         style="font-variant:normal;font-weight:normal;font-size:4.93995px;font-family:Carlito;-inkscape-font-specification:Carlito;writing-mode:lr-tb;fill:#c00000;fill-opacity:1;fill-rule:nonzero;stroke:none;stroke-width:0.352778"
         id="text398"
         x="224.83044"
         y="159.86346"><tspan
           x="224.83044"
           y="159.86346"
           id="tspan396"
           style="stroke-width:0.352778">Service makes </tspan></text>
      <text
         xml:space="preserve"
         style="font-variant:normal;font-weight:normal;font-size:4.93995px;font-family:Carlito;-inkscape-font-specification:Carlito;writing-mode:lr-tb;fill:#c00000;fill-opacity:1;fill-rule:nonzero;stroke:none;stroke-width:0.352778"
         id="text410"
         x="222.58043"
         y="165.78343"><tspan
           id="tspan408"
           x="222.58043"
           y="165.78343"
           style="stroke-width:0.352778">irregular request</tspan></text>
    </g>
    <path
       d="m 90.500436,139.62355 v 0 c 0,-0.36018 0.0903,-0.71014 0.27023,-1.01 0.17992,-0.31009 0.43991,-0.57009 0.73978,-0.75 0.31009,-0.17004 0.66004,-0.27023 1.02023,-0.27023 l 5.66984,0.0102 -3.18981,-9.52006 14.759864,9.52006 h 24.94986 v 0 c 0.36018,0 0.71014,0.09 1.01,0.26987 0.31009,0.17992 0.57009,0.43992 0.75001,0.74013 0.17004,0.30974 0.27022,0.66005 0.27022,1.01988 v 0 -0.01 0 3.04977 5.07012 0 c 0,0.35983 -0.0899,0.71014 -0.27022,1.01 -0.17992,0.3101 -0.43992,0.57009 -0.73978,0.75001 -0.31009,0.17004 -0.66005,0.26987 -1.02023,0.26987 H 109.77057 98.200516 v 0 h -5.68007 v 0 c -0.35984,0 -0.70979,-0.0899 -1.01,-0.26987 -0.30974,-0.17992 -0.56974,-0.43991 -0.75001,-0.74013 -0.16969,-0.30974 -0.26988,-0.66005 -0.26988,-1.01988 l 0.01,-5.07012 z"
       style="fill:none;stroke:#c00000;stroke-width:0.349994;stroke-linecap:butt;stroke-linejoin:miter;stroke-miterlimit:3.8637;stroke-dasharray:none;stroke-opacity:1"
       id="path414"
       clip-path="none" />
    <g
       id="g809">
      <text
         xml:space="preserve"
         style="font-variant:normal;font-weight:normal;font-size:4.93995px;font-family:Carlito;-inkscape-font-specification:Carlito;writing-mode:lr-tb;fill:#c00000;fill-opacity:1;fill-rule:nonzero;stroke:none;stroke-width:0.352778"
         id="text420"
         x="97.270592"
         y="142.71353"><tspan
           id="tspan418"
           x="97.270592"
           y="142.71353"
           style="stroke-width:0.352778">Service provides</tspan></text>
      <text
         xml:space="preserve"
         style="font-variant:normal;font-weight:normal;font-size:4.93995px;font-family:Carlito;-inkscape-font-specification:Carlito;writing-mode:lr-tb;fill:#c00000;fill-opacity:1;fill-rule:nonzero;stroke:none;stroke-width:0.352778"
         id="text426"
         x="96.250717"
         y="148.6035"><tspan
           id="tspan424"
           x="96.250717"
           y="148.6035"
           style="stroke-width:0.352778">irregular response</tspan></text>
    </g>
    <path
       d="m 194.81048,138.84356 v 0 c 0,-0.36018 0.09,-0.71014 0.27022,-1.01 0.17992,-0.31009 0.43992,-0.57009 0.73978,-0.75001 0.31009,-0.17003 0.66005,-0.27022 1.02023,-0.27022 l 5.66985,0.0102 -4.24004,-9.26007 15.81009,9.26007 h 24.94985 v 0 c 0.36019,0 0.71014,0.09 1.01,0.26987 0.3101,0.17992 0.57009,0.43992 0.75001,0.74013 0.17004,0.30974 0.27023,0.65969 0.27023,1.01988 v 0 -0.01 0 3.04977 5.07012 0 c 0,0.35983 -0.09,0.71014 -0.27023,1.01 -0.17992,0.31009 -0.43991,0.57009 -0.73977,0.75001 -0.3101,0.17004 -0.66005,0.26987 -1.02024,0.26987 h -24.94985 -11.57005 v 0 h -5.68008 v 0 c -0.35983,0 -0.70979,-0.09 -1.01,-0.26987 -0.30974,-0.17992 -0.56974,-0.43992 -0.75001,-0.74013 -0.17004,-0.30974 -0.26987,-0.66005 -0.26987,-1.01988 l 0.01,-5.07012 z"
       style="fill:none;stroke:#c00000;stroke-width:0.349994;stroke-linecap:butt;stroke-linejoin:miter;stroke-miterlimit:3.8637;stroke-dasharray:none;stroke-opacity:1"
       id="path430"
       clip-path="none" />
    <g
       id="g819">
      <text
         xml:space="preserve"
         style="font-variant:normal;font-weight:normal;font-size:4.93995px;font-family:Carlito;-inkscape-font-specification:Carlito;writing-mode:lr-tb;fill:#c00000;fill-opacity:1;fill-rule:nonzero;stroke:none;stroke-width:0.352778"
         id="text436"
         x="198.24054"
         y="141.94342"><tspan
           id="tspan434"
           x="198.24054"
           y="141.94342"
           style="stroke-width:0.352778">Data Store provides </tspan></text>
      <text
         xml:space="preserve"
         style="font-variant:normal;font-weight:normal;font-size:4.93995px;font-family:Carlito;-inkscape-font-specification:Carlito;writing-mode:lr-tb;fill:#c00000;fill-opacity:1;fill-rule:nonzero;stroke:none;stroke-width:0.352778"
         id="text442"
         x="200.56075"
         y="147.83339"><tspan
           id="tspan440"
           x="200.56075"
           y="147.83339"
           style="stroke-width:0.352778">irregular response</tspan></text>
    </g>
    <path
       d="m 261.54051,146.90348 v 0 c 0,-0.69991 0.17991,-1.38995 0.5401,-1.9999 0.34995,-0.61031 0.84984,-1.12007 1.46015,-1.47003 0.60995,-0.34995 1.29998,-0.53022 1.99989,-0.53022 h 2.66982 l -1.01988,-9.58991 11.03983,9.58991 h 19.36009 v 0 c 0.69991,0 1.38995,0.18027 2.00025,0.5401 0.60995,0.34996 1.11972,0.84984 1.46967,1.46015 0.35031,0.60995 0.53023,1.29999 0.53023,1.9999 v 0 h 0.01 v 0 6.00004 10.01007 0 c 0,0.69991 -0.17992,1.38995 -0.54011,1.9999 -0.34995,0.60995 -0.84984,1.12007 -1.45979,1.47002 -0.60995,0.34996 -1.29999,0.52988 -1.9999,0.52988 l -19.37032,0.01 h -10.01995 v 0 h -2.66982 v 0 c -0.69991,0 -1.38994,-0.17991 -1.99989,-0.53975 -0.61031,-0.34995 -1.12007,-0.85019 -1.47003,-1.46014 -0.35031,-0.60996 -0.53022,-1.29999 -0.53022,-1.9999 v -10.02008 z"
       style="fill:none;stroke:#c00000;stroke-width:0.349994;stroke-linecap:butt;stroke-linejoin:miter;stroke-miterlimit:3.8637;stroke-dasharray:none;stroke-opacity:1"
       id="path446"
       clip-path="none" />
    <g
       id="g843">
      <text
         xml:space="preserve"
         style="font-variant:normal;font-weight:normal;font-size:4.93995px;font-family:Carlito;-inkscape-font-specification:Carlito;writing-mode:lr-tb;fill:#c00000;fill-opacity:1;fill-rule:nonzero;stroke:none;stroke-width:0.352778"
         id="text452"
         x="265.26056"
         y="150.97346"><tspan
           id="tspan450"
           x="265.26056"
           y="150.97346"
           style="stroke-width:0.352778">Data Store takes </tspan></text>
      <text
         xml:space="preserve"
         style="font-variant:normal;font-weight:normal;font-size:4.93995px;font-family:Carlito;-inkscape-font-specification:Carlito;writing-mode:lr-tb;fill:#c00000;fill-opacity:1;fill-rule:nonzero;stroke:none;stroke-width:0.352778"
         id="text458"
         x="266.07053"
         y="156.89343"><tspan
           id="tspan456"
           x="266.07053"
           y="156.89343"
           style="stroke-width:0.352778">irregular time to </tspan></text>
      <text
         xml:space="preserve"
         style="font-variant:normal;font-weight:normal;font-size:4.93995px;font-family:Carlito;-inkscape-font-specification:Carlito;writing-mode:lr-tb;fill:#c00000;fill-opacity:1;fill-rule:nonzero;stroke:none;stroke-width:0.352778"
         id="text464"
         x="273.34058"
         y="162.82327"><tspan
           id="tspan462"
           x="273.34058"
           y="162.82327"
           style="stroke-width:0.352778">respond</tspan></text>
    </g>
    <path
       d="m 159.14076,146.90348 v 0 c 0,-0.69991 0.17992,-1.38995 0.53975,-1.9999 0.34996,-0.61031 0.8502,-1.12007 1.46015,-1.47003 0.60995,-0.34995 1.29999,-0.53022 1.9999,-0.53022 h 15.69014 l 1.50989,-9.32004 6.92997,9.32004 h 1.61995 v 0 c 0.69991,0 1.38995,0.18027 2.00025,0.5401 0.60995,0.34996 1.11972,0.84984 1.46967,1.46015 0.35031,0.60995 0.53023,1.29999 0.53023,1.9999 v 0 h 0.01 v 0 6.00004 10.01007 0 c 0,0.69991 -0.17992,1.38995 -0.54011,1.9999 -0.34995,0.60995 -0.84984,1.12007 -1.45979,1.47002 -0.60995,0.34996 -1.29999,0.52988 -1.9999,0.52988 l -1.63018,0.01 h -8.43986 v 0 h -15.69014 v 0 c -0.69991,0 -1.38995,-0.17991 -1.9999,-0.53975 -0.60995,-0.34995 -1.12007,-0.85019 -1.47002,-1.46014 -0.34996,-0.60996 -0.52988,-1.29999 -0.52988,-1.9999 v -10.02008 z"
       style="fill:none;stroke:#c00000;stroke-width:0.349994;stroke-linecap:butt;stroke-linejoin:miter;stroke-miterlimit:3.8637;stroke-dasharray:none;stroke-opacity:1"
       id="path468"
       clip-path="none" />
    <g
       id="g470"
       transform="matrix(0.35277776,0,0,-0.35277778,-3.0594036,199.58343)" />
    <g
       id="g799">
      <text
         xml:space="preserve"
         transform="matrix(0.35277775,0,0,0.35277778,163.03048,150.97347)"
         style="font-variant:normal;font-weight:normal;font-size:14.003px;font-family:Carlito;-inkscape-font-specification:Carlito;writing-mode:lr-tb;fill:#c00000;fill-opacity:1;fill-rule:nonzero;stroke:none"
         id="text474"><tspan
           id="tspan472"
           x="0"
           y="0">Service takes </tspan></text>
      <text
         xml:space="preserve"
         style="font-variant:normal;font-weight:normal;font-size:4.93995px;font-family:Carlito;-inkscape-font-specification:Carlito;writing-mode:lr-tb;fill:#c00000;fill-opacity:1;fill-rule:nonzero;stroke:none;stroke-width:0.352778"
         id="text480"
         x="163.20053"
         y="156.89343"><tspan
           id="tspan478"
           x="163.20053"
           y="156.89343"
           style="stroke-width:0.352778">irregular time </tspan></text>
      <text
         xml:space="preserve"
         style="font-variant:normal;font-weight:normal;font-size:4.93995px;font-family:Carlito;-inkscape-font-specification:Carlito;writing-mode:lr-tb;fill:#c00000;fill-opacity:1;fill-rule:nonzero;stroke:none;stroke-width:0.352778"
         id="text486"
         x="165.14046"
         y="162.82327"><tspan
           id="tspan484"
           x="165.14046"
           y="162.82327"
           style="stroke-width:0.352778">to respond</tspan></text>
    </g>
    <path
       d="M 106.19986,108.63017 H 43.690109 V 94.299979 H 168.70008 v 14.330191 z"
       style="fill:#ffffff;fill-opacity:1;fill-rule:evenodd;stroke:none;stroke-width:0.352778"
       id="path488"
       clip-path="none"
       transform="translate(-3.0593936,9.0834281)" />
    <path
       d="M 103.14047,117.71359 H 40.630716 V 103.38341 H 165.64069 v 14.33018 z"
       style="fill:#ffffff;stroke:#000000;stroke-width:0.264583;stroke-linecap:butt;stroke-linejoin:round;stroke-miterlimit:10;stroke-dasharray:none;stroke-opacity:1;fill-opacity:1"
       id="path492" />
    <text
       xml:space="preserve"
       style="font-variant:normal;font-weight:normal;font-size:4.93995px;font-family:'Liberation Sans';-inkscape-font-specification:LiberationSans;writing-mode:lr-tb;fill:#c00000;fill-opacity:1;fill-rule:nonzero;stroke:none;stroke-width:0.352778"
       id="text498"
       x="43.120605"
       y="109.59336"><tspan
         id="tspan496"
         style="font-style:normal;font-variant:normal;font-weight:normal;font-stretch:normal;font-family:'Liberation Sans';-inkscape-font-specification:'Liberation Sans';stroke-width:0.352778"
         x="43.120605"
         y="109.59336"><tspan
   style="font-style:normal;font-variant:normal;font-weight:normal;font-stretch:normal;font-family:'Liberation Sans Narrow';-inkscape-font-specification:'Liberation Sans Narrow'"
   id="tspan1035">REQ:</tspan> username=tom+or+1%3D1 =&gt; tom or 1=1</tspan></text>
    <text
       xml:space="preserve"
       style="font-variant:normal;font-weight:normal;font-size:4.93995px;font-family:'Liberation Sans';-inkscape-font-specification:LiberationSans;writing-mode:lr-tb;fill:#c00000;fill-opacity:1;fill-rule:nonzero;stroke:none;stroke-width:0.352778"
       id="text504"
       x="43.120605"
       y="115.48332"><tspan
         id="tspan502"
         style="font-style:normal;font-variant:normal;font-weight:normal;font-stretch:normal;font-family:'Liberation Sans';-inkscape-font-specification:'Liberation Sans';stroke-width:0.352778"
         x="43.120605"
         y="115.48332"><tspan
   style="font-style:normal;font-variant:normal;font-weight:normal;font-stretch:normal;font-family:'Liberation Sans Narrow';-inkscape-font-specification:'Liberation Sans Narrow'"
   id="tspan1037">RES:</tspan> data about all users</tspan></text>
    <path
       d="M 106.19986,53.369995 H 43.690109 V 39.040162 H 168.70008 v 14.329833 z"
       style="fill:#ffffff;fill-opacity:1;fill-rule:evenodd;stroke:none;stroke-width:0.352778"
       id="path506"
       clip-path="none"
       transform="translate(-3.0593936,9.0834281)" />
    <path
       d="M 103.14047,62.453428 H 40.630716 V 48.123588 H 165.64069 v 14.32984 z"
       style="fill:none;stroke:#000000;stroke-width:0.264583;stroke-linecap:butt;stroke-linejoin:round;stroke-miterlimit:10;stroke-dasharray:none;stroke-opacity:1"
       id="path510" />
    <text
       xml:space="preserve"
       style="font-variant:normal;font-weight:normal;font-size:4.93995px;font-family:'Liberation Sans';-inkscape-font-specification:LiberationSans;writing-mode:lr-tb;fill:#000000;fill-opacity:1;fill-rule:nonzero;stroke:none;stroke-width:0.352778"
       id="text516"
       x="43.120605"
       y="54.313431"><tspan
         id="tspan514"
         style="stroke-width:0.352778"
         x="43.120605"
         y="54.313431"><tspan
   style="font-style:normal;font-variant:normal;font-weight:normal;font-stretch:normal;font-family:'Liberation Sans Narrow';-inkscape-font-specification:'Liberation Sans Narrow'"
   id="tspan1043">REQ:</tspan> username=tom =&gt; tom</tspan></text>
    <text
       xml:space="preserve"
       style="font-variant:normal;font-weight:normal;font-size:4.93995px;font-family:'Liberation Sans';-inkscape-font-specification:LiberationSans;writing-mode:lr-tb;fill:#000000;fill-opacity:1;fill-rule:nonzero;stroke:none;stroke-width:0.352778"
       id="text522"
       x="43.120605"
       y="60.233383"><tspan
         id="tspan520"
         style="stroke-width:0.352778"
         x="43.120605"
         y="60.233383"><tspan
   style="font-style:normal;font-variant:normal;font-weight:normal;font-stretch:normal;font-family:'Liberation Sans Narrow';-inkscape-font-specification:'Liberation Sans Narrow'"
   id="tspan1041">RES:</tspan> data about Tom</tspan></text>
    <path
       id="path526"
       style="color:#000000;fill:#000000;stroke-width:0.352778;stroke-miterlimit:10;-inkscape-stroke:none"
       d="m 193.49089,73.593188 -2.10013,1.05006 2.10013,1.05007 v -0.96015 l 62.98995,0.0202 v 0.96015 l 2.09961,-1.05007 -2.09961,-1.05006 v 0.96015 l -62.98995,-0.0202 z" />
    <path
       id="path534"
       style="color:#000000;fill:#000000;stroke-width:0.352778;stroke-miterlimit:10;-inkscape-stroke:none"
       d="m 193.49089,78.213578 -2.10013,1.04955 2.10013,1.05058 v -0.96067 l 62.98995,0.0207 v 0.96015 l 2.09961,-1.05058 -2.09961,-1.04955 v 0.95963 l -62.98995,-0.0202 z" />
    <path
       id="path542"
       style="color:#000000;fill:#000000;stroke-width:0.352778;stroke-miterlimit:10;-inkscape-stroke:none"
       d="m 193.49089,68.593488 -2.10013,1.05007 2.10013,1.05006 v -0.96014 l 62.98995,0.0202 v 0.95963 l 2.09961,-1.04955 -2.09961,-1.05058 v 0.96066 l -62.98995,-0.0207 z" />
    <path
       id="path550"
       style="color:#000000;fill:#c00000;stroke-miterlimit:10;-inkscape-stroke:none"
       d="m 196.15067,124.38336 -4.76973,2.38022 4.76973,2.39003 v -1.59577 l 57.32002,0.0413 v 1.5844 l 4.76973,-2.38021 -4.76973,-2.39004 v 1.59577 l -57.32002,-0.0408 z" />
  </g>
</svg>
