<svg id="Layer_1" data-name="Layer 1" xmlns="http://www.w3.org/2000/svg" viewBox="0 0 215 127"><defs><style>.cls-1{fill:#fbfbfb;}.cls-2{fill:#918f90;}.cls-3{fill:#231f20;}.cls-4{fill:#fff;}</style></defs><title>kubernetes.io-logos</title><rect class="cls-1" x="-3.55202" y="-3.16104" width="223.25536" height="134.51136"/><g id="g10"><g id="g12"><path id="path14" class="cls-2" d="M58.27642,43.45186A13.87083,13.87083,0,1,1,44.40989,29.577,13.86679,13.86679,0,0,1,58.27642,43.45186"/><path id="path16" class="cls-2" d="M118.31862,43.45186A13.87534,13.87534,0,1,1,104.44607,29.577a13.868,13.868,0,0,1,13.87255,13.87483"/><path id="path18" class="cls-2" d="M58.27642,78.10812A13.87083,13.87083,0,1,1,44.40989,64.23586,13.86592,13.86592,0,0,1,58.27642,78.10812"/><path id="path20" class="cls-2" d="M88.30182,60.78355A13.87432,13.87432,0,1,1,74.42662,46.9099a13.876,13.876,0,0,1,13.8752,13.87365"/><path id="path22" class="cls-2" d="M88.30182,26.12046a13.87432,13.87432,0,1,1-13.8752-13.874,13.8772,13.8772,0,0,1,13.8752,13.874"/><path id="path24" class="cls-2" d="M88.30182,95.44422a13.87432,13.87432,0,1,1-13.8752-13.87233,13.88079,13.88079,0,0,1,13.8752,13.87233"/><path id="path26" class="cls-3" d="M104.405,91.88866a13.87443,13.87443,0,0,1,0-27.74885h57.96422a13.87443,13.87443,0,1,1,0,27.74885H104.405"/><path id="path28" class="cls-4" d="M108.44973,74.99434a3.07749,3.07749,0,0,0-2.90728-1.56908c-2.38678,0-3.75361,1.90181-3.75361,4.58681,0,2.60465,1.39092,4.5882,3.77637,4.5882a3.36511,3.36511,0,0,0,3.11217-1.83873l2.67963,1.44431a6.15354,6.15354,0,0,1-5.888,3.26586c-4.15781,0-6.95236-2.89435-6.95236-7.45964,0-4.40183,2.91073-7.45392,7.06838-7.45392a6.0724,6.0724,0,0,1,5.819,3.19984l-2.95428,1.23635"/><path id="path30" class="cls-4" d="M124.883,74.99434a3.07653,3.07653,0,0,0-2.91095-1.56908c-2.38369,0-3.74223,1.90181-3.74223,4.58681,0,2.60465,1.38424,4.5882,3.77234,4.5882a3.36145,3.36145,0,0,0,3.11217-1.83873l2.67889,1.44431a6.148,6.148,0,0,1-5.88579,3.26586c-4.15787,0-6.95353-2.89435-6.95353-7.45964,0-4.40183,2.90728-7.45392,7.06662-7.45392a6.08392,6.08392,0,0,1,5.82338,3.19984L124.883,74.99434"/><path id="path32" class="cls-4" d="M139.27909,78.98589h-2.91462v-5.41h2.91462a2.705,2.705,0,1,1,0,5.41Zm.78061-8.22983-6.88083.02438v14.466h3.1856v-3.448l3.69523-.02152a5.51047,5.51047,0,1,0,0-11.02093"/><path id="path34" class="cls-3" d="M178.45064,88.67875a2.45448,2.45448,0,1,0,2.45419-2.49252A2.4339,2.4339,0,0,0,178.45064,88.67875Zm5.36147,0a2.90728,2.90728,0,1,1-2.90728-2.90786,2.86847,2.86847,0,0,1,2.90728,2.90786"/><path id="path36" class="cls-3" d="M180.77632,88.4782h-.5302V87.34657h.73581c.398,0,.77694.105.77694.56112C181.75887,88.46212,181.27054,88.4782,180.77632,88.4782Zm.564.34309a.88252.88252,0,0,0,.82026-.9136c0-.5852-.32458-.90332-1.0626-.90332h-1.25647v3.26726h.40463V88.82129h.6778l.91794,1.45034h.47145l-.973-1.45034"/></g></g></svg>