<svg id="Layer_1" data-name="Layer 1" xmlns="http://www.w3.org/2000/svg" viewBox="0 0 215 127"><defs><style>.cls-1{fill:transparent;}.cls-2{fill:#d03027;}.cls-3{fill:#004977;}</style></defs><title>kubernetes.io-logos</title><rect class="cls-1" x="-3.55202" y="-3.16104" width="223.25536" height="134.51136"/><path class="cls-2" d="M139.7354,76.14142c-.01007.01006-.02012.01006-.02012.02012-7.60536,5.3821-16.60906,11.03582-26.29683,16.97121l-.38228.22132a.28887.28887,0,0,0,.332.47283l.32192-.171c8.219-4.28556,17.65529-9.37592,27.15193-14.59706a1.1001,1.1001,0,0,1,.1509-.08048A12.04527,12.04527,0,0,1,139.7354,76.14142ZM189.633,35.75053c-11.98146-13.21883-89.09133-1.32792-121.87687,5.8348l-.76455.161a.28614.28614,0,0,0,.1006.56336l.7545-.1509c27.162-4.83886,83.65893-11.53882,95.8114.51306,3.71214,3.682,2.82685,8.41016-1.47882,14.00351a11.11073,11.11073,0,0,1,4.70807,6.76032c16.80019-11.14647,28.07745-21.8,22.74565-27.68511Z"/><path class="cls-3" d="M144.58431,72.67072c.15091,4.64772,3.09848,8.46046,6.93135,8.46046,7.43434,0,10.60323-9.13448,10.38191-15.23084-.161-4.65778-3.179-8.46045-7.01182-8.46045C148.49764,57.42983,144.363,66.52406,144.58431,72.67072Zm-3.9234-.2515c-.27161-7.93734,5.94547-16.05575,14.97934-16.05575,6.036,0,9.98957,4.024,10.21089,10.19077C166.14287,74.92416,160.3282,82.61,150.88186,82.61c-6.05612,0-10.00969-4.01394-10.221-10.19078Z"/><path class="cls-3" d="M55.10366,70.32674a8.79568,8.79568,0,0,1-1.2575.3521c-.51306.12072-1.4587.28168-2.82686.503a4.8615,4.8615,0,0,0-1.97176.61366,1.45209,1.45209,0,0,0-.62372.96576.94824.94824,0,0,0,.41246.99594,3.29032,3.29032,0,0,0,1.82086.38228,5.87842,5.87842,0,0,0,1.87116-.3018,4.41135,4.41135,0,0,0,1.52912-.81486,2.47454,2.47454,0,0,0,.664-.96576A11.11761,11.11761,0,0,0,55.10366,70.32674Zm7.8468-4.87909a19.84085,19.84085,0,0,1-.3521,2.48482l-1.32792,7.45445a1.39028,1.39028,0,0,0,.74444,1.53918l-.04024.29174-7.60536-.01006-.07042-1.89128a15.30571,15.30571,0,0,1-3.65178,1.5593,13.23617,13.23617,0,0,1-3.64172.44264c-2.45464,0-3.863-.2515-4.83886-1.1066-.98587-.87522-1.46876-1.4587-1.41845-2.6659a4.20416,4.20416,0,0,1,.91545-2.2132,5.73727,5.73727,0,0,1,2.02206-1.41846,10.88556,10.88556,0,0,1,3.04818-.8551c1.348-.22132,3.2192-.43258,5.72414-.64383a8.23008,8.23008,0,0,0,2.49488-.56337c.52312-.2012.73438-.43258.8048-.85509.14084-.76456-.1006-1.2072-1.12672-1.4084-2.73632-.54325-7.877.35209-10.52275,1.006l1.43858-3.88315a68.95387,68.95387,0,0,1,10.21089-.835C61.26038,61.87635,63.01082,63.43565,62.95046,65.44765Z"/><path class="cls-3" d="M85.002,77.20778l2.63572-14.89886h7.28343L92.2854,77.20778Zm3.03811-18.34943c.22132-1.22732,2.15284-2.2132,4.30568-2.2132,2.1629,0,3.74232.99594,3.53106,2.2132-.23138,1.22732-2.15284,2.22326-4.3258,2.22326C89.39818,61.08161,87.82882,60.08567,88.04008,58.85835Z"/><path class="cls-3" d="M120.78236,70.35692c-.332.11066-.7545.23138-1.26756.3521s-1.4587.27162-2.82686.49294a4.80343,4.80343,0,0,0-1.9617.61366,1.52278,1.52278,0,0,0-.63377.9557.94172.94172,0,0,0,.41246.99594,3.36585,3.36585,0,0,0,1.83092.37222,6.252,6.252,0,0,0,1.87116-.28168,4.63961,4.63961,0,0,0,1.53918-.81486,2.50884,2.50884,0,0,0,.64384-.96576A11.41118,11.41118,0,0,0,120.78236,70.35692Zm7.8468-4.88916a17.96168,17.96168,0,0,1-.36216,2.48482l-1.31786,7.46452a1.39628,1.39628,0,0,0,.74444,1.53918l-.04024.26156-7.60536.01005-.06035-1.90134a14.69057,14.69057,0,0,1-3.65178,1.5593,12.90064,12.90064,0,0,1-3.66184.4527c-2.45464,0-3.853-.24144-4.8288-1.10659-.99594-.88528-1.46876-1.4587-1.41846-2.6659a3.98919,3.98919,0,0,1,.91546-2.2132,5.56473,5.56473,0,0,1,2.03212-1.41846,11.22574,11.22574,0,0,1,3.03811-.86516c1.348-.21126,3.22926-.43258,5.7342-.64384a8.32389,8.32389,0,0,0,2.48482-.5533c.53318-.2012.73438-.43258.81485-.86516.13078-.7545-.10059-1.19714-1.11666-1.4084-2.75643-.54324-7.877.35209-10.52275,1.006l1.42852-3.88316a69.06448,69.06448,0,0,1,10.21089-.835C126.929,61.89646,128.67945,63.46582,128.62916,65.46776Z"/><path class="cls-3" d="M39.76216,71.85586a26.49141,26.49141,0,0,1-6.04605.6539c-3.48076,0-6.24726-1.73032-6.09636-4.89921.11066-2.1126,2.60554-6.55912,8.9534-6.55912a10.37144,10.37144,0,0,1,5.66377,1.54924l.92552-5.17084a17.66921,17.66921,0,0,0-7.203-1.21726c-8.32967.09054-16.31731,3.8731-17.31325,11.569-1.006,7.81662,8.54094,9.77832,12.7762,9.7582,2.44458-.01006,4.98976-.11066,7.36392-.3521Z"/><path class="cls-3" d="M98.93507,62.22845l.52311-3.03812,7.61542-1.6599-.81486,4.688H109.991l-.70419,2.99788-3.6216-.01006-2.20314,11.98145s-7.33374-.0503-7.36392,0l2.19308-11.95127H95.53479l.56336-3.018h2.83692Z"/><polygon class="cls-3" points="139.568 56.625 136.027 77.197 128.612 77.207 132.345 56.423 139.568 56.625"/><path class="cls-3" d="M75.36449,65.79974a4.21247,4.21247,0,0,0-2.58542.86516,3.87654,3.87654,0,0,0-1.43858,2.54518,3.26663,3.26663,0,0,0,.42252,2.80674,2.88884,2.88884,0,0,0,2.25344.86516,4.31439,4.31439,0,0,0,1.851-.37222A3.62468,3.62468,0,0,0,77.296,71.28244a4.9387,4.9387,0,0,0,.8048-1.9617,2.93679,2.93679,0,0,0-.51306-2.63571A2.85654,2.85654,0,0,0,75.36449,65.79974ZM62.10542,82.34844l3.55117-19.959h6.39816l-.49294,2.54517a5.96855,5.96855,0,0,1,2.6659-1.89128,10.95182,10.95182,0,0,1,4.13466-.87522,7.66162,7.66162,0,0,1,3.94352.73438,5.262,5.262,0,0,1,2.57535,2.82686,7.35256,7.35256,0,0,1,.32192,4.05418,8.77874,8.77874,0,0,1-3.60148,5.82474,11.29908,11.29908,0,0,1-8.46045,1.56936,5.20993,5.20993,0,0,1-1.44864-.58348,6.37058,6.37058,0,0,1-1.19714-1.08649l-1.18708,6.8408Z"/><path class="cls-3" d="M194.31088,67.63066c-.04023-1.19713-.64384-2.012-1.88122-2.012-2.98782,0-6.16678,5.85492-6.71,8.209C190.61886,73.83768,194.43161,70.92028,194.31088,67.63066Zm.64384,9.17472.57342.39234a9.13558,9.13558,0,0,1-7.90715,5.35192c-2.847,0-5.191-1.90134-5.31168-5.46258-.23138-6.3881,5.75432-12.31344,10.65353-12.31344,2.10254,0,4.05418.91546,4.13466,3.179.18107,5.0803-6.95146,6.62954-11.64948,6.7402a5.68878,5.68878,0,0,0-.18107,1.87116,3.74051,3.74051,0,0,0,3.98377,3.87309c2.27355,0,4.54712-1.83091,5.704-3.63165Z"/><path class="cls-3" d="M165.74048,67.4697c.503-.07042,1.31786-.161,1.67-.161.53318,0,1.03618.1006,1.06636.63378.01005.31187-.5533,2.57537-.674,3.09848L166.666,76.05088c-.46277,2.05224-.9557,4.195-1.39834,5.89516h2.91739l1.63978-7.93734c4.99982-5.21108,6.93134-6.91122,8.10836-6.91122a.852.852,0,0,1,.92552.91546,16.13806,16.13806,0,0,1-.73438,3.60148l-1.67,5.7845a11.79561,11.79561,0,0,0-.63379,3.30974,1.74683,1.74683,0,0,0,1.9617,1.83092c2.13272,0,3.682-2.22326,5.03-4.40628l-.39234-.71426c-.54323.87522-1.8108,2.79668-2.80673,2.79668-.31186,0-.61366-.21126-.62372-.73438a8.5396,8.5396,0,0,1,.4527-2.3641l1.8611-6.78044a16.63045,16.63045,0,0,0,.72433-3.71213,1.74309,1.74309,0,0,0-1.92147-1.8611c-1.92146,0-4.46664,1.4084-9.86885,7.61542h-.08048l.68407-3.02806c.37221-1.6599.73437-3.39022,1.07643-4.58736a49.58693,49.58693,0,0,1-6.197,1.75044Z"/></svg>