<svg id="Layer_1" data-name="Layer 1" xmlns="http://www.w3.org/2000/svg" viewBox="0 0 215 127"><defs><style>.cls-1{fill:transparent;}</style></defs><title>booz-allen-featured</title><rect class="cls-1" x="-3.84547" y="-2.87787" width="223.25536" height="134.51136"/><path d="M17.60286,61.11939a3.71056,3.71056,0,0,1,2.5882,2.38564,3.95958,3.95958,0,0,1-3.29637,5.44135c-2.01368.1603-4.03478.03547-6.05223.06918-.3726.00623-.35776-.22838-.3574-.50139q.00463-3.55729.00171-7.11461c0-2.26124.00315-4.52249-.00367-6.7837-.00089-.29478.02147-.4768.3777-.47273,1.91453.02186,3.831-.03171,5.74353.03934a3.53381,3.53381,0,0,1,3.28526,4.48932A3.21084,3.21084,0,0,1,17.60286,61.11939ZM12.21047,64.713c0,.80868.00148,1.61736-.001,2.426-.00065.21243-.01061.40111.28252.39a33.573,33.573,0,0,0,4.08014-.09365,2.40209,2.40209,0,0,0,2.09821-2.71722,2.64506,2.64506,0,0,0-2.22908-2.728c-1.306-.16626-2.61874-.04126-3.92779-.08164-.272-.00839-.30653.14661-.30495.37847C12.21405,63.09557,12.21067,63.90428,12.21047,64.713Zm0-6.73284c0,.71584.00316,1.43172-.00188,2.14753-.00157.22336.01281.3973.29254.39063,1.2389-.02954,2.48177.08272,3.7166-.065a2.39478,2.39478,0,0,0,2.06737-2.57715A2.21907,2.21907,0,0,0,16.034,55.593c-1.1532-.03253-2.30794.00078-3.46167-.01761-.31134-.005-.37328.12989-.36667.42247C12.2206,56.65827,12.21036,57.31932,12.21046,57.98011Z"/><path d="M154.6706,59.74265c1.37924-2.56728,4.82436-2.93355,6.06119.25059a3.84871,3.84871,0,0,1,2.02583-2.03738c2.12411-.86523,4.22083.54908,4.31581,3.0281.09782,2.55289.03429,5.11273.04794,7.66949.00137.25541-.0793.34276-.3245.36322-1.26334.10546-1.26277.11319-1.26277-1.238q0-2.84219-.00237-5.68436c-.00071-.29326-.02335-.5875-.05221-.87945a2.115,2.115,0,0,0-1.44315-2.01169,2.04056,2.04056,0,0,0-2.2275.79595,3.10653,3.10653,0,0,0-.81563,2.08975c-.01624,2.11528-.02781,4.23083-.01083,6.346.00371.46151-.12175.59533-.55082.58729-1.07861-.0202-1.07895.00091-1.07895-1.17234q0-2.89737-.00044-5.79475a5.31558,5.31558,0,0,0-.12169-1.31313,1.93733,1.93733,0,0,0-2.85957-1.35535,3.20386,3.20386,0,0,0-1.54573,3.078c-.00284,1.96837-.01431,3.93692.0086,5.905.00566.48739-.099.67315-.59355.6552-1.01618-.03688-1.01716-.00658-1.01716-1.11514,0-3.10891.01-6.2179-.01058-9.32665-.00316-.47557.09593-.63624.56356-.61685.89339.03707.89451.00654.89452.96919Z"/><path d="M129.93171,61.50767c0-2.28134.01-4.56276-.009-6.84392-.00347-.41681.108-.52751.49405-.52369,1.20218.0119,1.20229-.00573,1.20234,1.25222.00006,1.527.00668,3.0541-.00473,4.581-.00255.34169.07321.48228.43217.47849q2.77062-.02925,5.54164-.00065c.36465.00357.47028-.11645.46674-.49847-.016-1.72923.00635-3.45891-.01568-5.188-.00583-.45664.07292-.64484.5577-.62831,1.10164.03758,1.10256.00746,1.10256,1.19632,0,4.34189-.00948,8.68384.01187,13.02561.00266.54229-.14358.68377-.63722.66589-1.02516-.03714-1.02607-.00857-1.02609-1.121,0-1.83978-.01189-3.67972.00876-5.51924.00473-.4209-.1193-.52288-.4998-.51862-1.81253.02033-3.62558.0245-5.438-.00221-.42945-.00633-.51086.15432-.50742.56655.01662,1.98681-.00449,3.974.01629,5.96072.00479.45883-.078.6476-.56064.63462-1.135-.03053-1.13561-.00244-1.13561-1.22525Q129.93169,64.65371,129.93171,61.50767Z"/><path d="M74.37542,54.15021c.96477,0,.96761-.001,1.2732.99819q2.042,6.67683,4.089,13.35191c.13548.43878.04225.523-.36392.52037-1.18658-.00765-1.1837.00741-1.576-1.21225-.29049-.90319-.6017-1.799-.87884-2.70675-.09293-.30438-.20724-.44481-.537-.44-1.44987.02131-2.90027.0187-4.35023.00152-.30161-.00357-.42264.11541-.50287.40713-.30528,1.11-.65843,2.20589-.93594,3.32333-.11823.4761-.29983.6496-.76808.63014-.91775-.03814-.91461-.00787-.62423-.96279q1.96777-6.47122,3.93109-12.944C73.425,54.15069,73.42354,54.15021,74.37542,54.15021Zm-.02624,2.256-.12747-.00461q-.99335,3.25788-1.98766,6.51542c-.07695.25168.01574.32514.24428.32406q1.78366-.00841,3.56737.00072c.2494.00139.33311-.05017.24354-.34537C75.63373,60.73607,74.99394,58.57029,74.34918,56.40622Z"/><path d="M148.95068,67.04177a3.64,3.64,0,0,1-2.45008,2.05867,4.62158,4.62158,0,0,1-2.3537-.0662,3.06343,3.06343,0,0,1-2.219-2.61922,3.42817,3.42817,0,0,1,1.66077-3.50157,7.34762,7.34762,0,0,1,3.51845-.73754q.75028-.0199,1.50137.00064c.2692.00721.34583-.10459.35655-.38761.06434-1.70254-.5904-2.526-2.1811-2.72006a3.778,3.778,0,0,0-1.73427.20632,2.12664,2.12664,0,0,0-1.22235,1.12283c-.09578.19522-.031.5717-.30705.56256a5.67052,5.67052,0,0,1-1.26648-.23626c-.15314-.04125-.04917-.22552-.0257-.34073a2.74933,2.74933,0,0,1,1.35681-1.9204,5.80644,5.80644,0,0,1,5.05923-.40091,2.95825,2.95825,0,0,1,1.78043,2.8573c.11562,1.67047.02783,3.34558.0479,5.01852a16.23229,16.23229,0,0,0,.14519,2.69276c.016.08894.04175.24471.00839.2644-.39845.23509-.83414.07757-1.25373.10854-.27844.02056-.27113-.21786-.28857-.42021C149.04434,68.12666,149.00488,67.66974,148.95068,67.04177Zm-3.32268.83158c2.00992.04292,3.46567-1.79659,3.33068-4.159-.0162-.28367-.19332-.2561-.36425-.25666-.50016-.00164-1.0022-.02883-1.50007.00739a5.35674,5.35674,0,0,0-2.55023.593,2.18276,2.18276,0,0,0-.95346,2.36383,1.72455,1.72455,0,0,0,1.53889,1.4038A4.93707,4.93707,0,0,0,145.628,67.87335Z"/><path d="M95.41414,63.64065c-1.105.00011-2.21028.01766-3.31467-.00908-.40483-.0098-.50056.12506-.45258.53959a7.52275,7.52275,0,0,0,.22166,1.40766,3.02635,3.02635,0,0,0,2.69582,2.21456,2.69971,2.69971,0,0,0,2.81507-1.72449c.16563-.36737.3664-.35095.65473-.29806,1.15775.21235,1.19445.27248.51565,1.31464a4.4702,4.4702,0,0,1-4.55359,2.08673,4.13343,4.13343,0,0,1-3.52824-2.77,7.17965,7.17965,0,0,1,.277-6.31307A4.24142,4.24142,0,0,1,95.20221,57.736a4.19193,4.19193,0,0,1,3.68561,3.2938,9.92154,9.92154,0,0,1,.344,2.1688c.02748.32747-.07158.45435-.39934.44907C97.69328,63.62928,96.55364,63.64054,95.41414,63.64065Zm-.80764-1.28487c.844,0,1.68827-.0107,2.532.00577.29785.00582.39228-.09453.36047-.413a3.24272,3.24272,0,0,0-1-2.22222,2.50936,2.50936,0,0,0-2.90289-.4394,3.34343,3.34343,0,0,0-1.838,2.7381c-.04507.30236.09251.3349.31624.33323C92.91838,62.352,93.76245,62.35577,94.6065,62.35578Z"/><path d="M185.219,63.50033a6.58346,6.58346,0,0,1,.763-3.44154,4.24956,4.24956,0,0,1,4.21063-2.34018,4.09652,4.09652,0,0,1,3.72025,2.78938,7.50378,7.50378,0,0,1,.1069,5.57983,4.46166,4.46166,0,0,1-4.7928,3.1057c-1.79284-.11517-3.23682-1.52025-3.77371-3.68082A7.00273,7.00273,0,0,1,185.219,63.50033Zm1.72563-.11651a7.85628,7.85628,0,0,0,.39318,2.56713,2.59208,2.59208,0,0,0,2.33435,1.878A2.39885,2.39885,0,0,0,192.1798,66.25a7.00084,7.00084,0,0,0-.02331-5.65336,2.41374,2.41374,0,0,0-2.34665-1.512,2.49885,2.49885,0,0,0-2.3274,1.54724A6.5726,6.5726,0,0,0,186.94461,63.38382Z"/><path d="M31.23452,63.39354a6.83045,6.83045,0,0,1-1.05161,3.83931,4.30281,4.30281,0,0,1-4.45146,1.92846,4.01152,4.01152,0,0,1-3.26924-2.85762,7.73529,7.73529,0,0,1-.0881-5.43538,4.40108,4.40108,0,0,1,8.501.18648A8.165,8.165,0,0,1,31.23452,63.39354Zm-1.75541.01335A7.51417,7.51417,0,0,0,29.11078,61,2.74961,2.74961,0,0,0,26.578,59.07665a2.61427,2.61427,0,0,0-2.502,1.94471,7.71831,7.71831,0,0,0,.04191,4.96805,2.56556,2.56556,0,0,0,4.82511.27475A6.55872,6.55872,0,0,0,29.47911,63.40689Z"/><path d="M37.5312,69.2124a4.17473,4.17473,0,0,1-4.2753-2.92585,7.85155,7.85155,0,0,1-.18412-5.12628,4.49506,4.49506,0,0,1,4.41748-3.45912,4.33854,4.33854,0,0,1,4.20258,3.42332,7.40136,7.40136,0,0,1-.2937,5.36561A4.23246,4.23246,0,0,1,37.5312,69.2124Zm-3.01943-5.47565a7.01226,7.01226,0,0,0,.36316,2.14845A2.57447,2.57447,0,0,0,37.2152,67.826a2.44,2.44,0,0,0,2.56393-1.66047,7.0418,7.0418,0,0,0-.00928-5.45467,2.45331,2.45331,0,0,0-2.48921-1.6246,2.54742,2.54742,0,0,0-2.34638,1.776A7.36849,7.36849,0,0,0,34.51177,63.73675Z"/><path d="M198.07687,59.65646a3.85241,3.85241,0,0,1,3.01387-1.941,3.30148,3.30148,0,0,1,3.59395,3.31887c.16429,2.53293.0523,5.07382.06874,7.61117.00091.13935.02674.33521-.1668.34348a8.13477,8.13477,0,0,1-1.29081-.00717c-.26666-.0313-.15057-.33026-.15127-.50745-.00843-2.11521-.00547-4.23047-.00549-6.34571,0-.12875.00078-.25751-.00018-.38626-.01024-1.36511-.39047-2.06054-1.3244-2.423a2.53511,2.53511,0,0,0-2.79791.90734,3.93625,3.93625,0,0,0-.8299,2.4397q-.03818,2.89626-.0145,5.79322c.00344.43391-.11267.5665-.52125.56194-1.10753-.01237-1.1077.00664-1.1077-1.1961,0-3.09009.00894-6.18025-.00962-9.27022-.00276-.46146.12154-.59661.55055-.587.99216.02223.99262,0,.99273,1.08306Q198.07689,59.35393,198.07687,59.65646Z"/><path d="M102.99354,59.62359a4.17158,4.17158,0,0,1,2.52185-1.83122,3.32055,3.32055,0,0,1,4.09176,3.26177c.125,2.0386.02554,4.08218.04925,6.12337q.00607.52424,0,1.0486c-.00878.88025.08642.7787-.75913.78457-.84148.00584-.84152.00164-.84153-.90235,0-2.11562-.00465-4.23127.002-6.34687a2.27047,2.27047,0,0,0-1.20875-2.39621,2.45044,2.45044,0,0,0-2.7907.733,4.27473,4.27473,0,0,0-.97585,2.99467c-.0073,1.78445-.01808,3.56923.00875,5.35325.007.46817-.12255.5864-.54831.57653-1.06329-.02465-1.06375-.00245-1.06375-1.13459,0-3.09065.00979-6.18137-.00987-9.27188-.00315-.49569.11193-.66929.59832-.64986.9249.03693.926.00675.926.99622Q102.99357,59.29309,102.99354,59.62359Z"/><path d="M45.06857,67.65528c1.68608,0,3.34155.02957,4.99518-.01629.56661-.01572.54618.27794.5528.69931.00692.44022-.01935.69727-.56227.68835-2.19034-.036-4.38158-.02425-6.57231-.00611-.38114.00316-.48955-.10182-.49955-.51946a2.46472,2.46472,0,0,1,.44471-1.52186c1.57519-2.34525,3.11862-4.71472,4.67248-7.07623.097-.14741.18744-.29971.28194-.45134-.14119-.16648-.30536-.09316-.44671-.09385-1.3628-.00671-2.72573-.01358-4.08838.00293-.32219.00391-.45589-.06749-.44149-.44784.04224-1.11511-.14257-.92386.87041-.93071q2.79453-.01889,5.58922.00353c.23881.00165.59753-.16146.69762.14264a1.24957,1.24957,0,0,1-.12793,1.10378c-.69761,1.04909-1.37755,2.11152-2.06395,3.16907q-1.559,2.4019-3.11592,4.80531A.68626.68626,0,0,0,45.06857,67.65528Z"/><path d="M60.91717,62.44406c0,3.6048-.00785,7.20964.00971,10.81434.00225.46285-.0759.64926-.55614.62318-.915-.04969-.77762.05448-.77805-.82966q-.00518-10.704.00344-21.40807c.00019-.219-.13026-.57417.11861-.63547a2.6989,2.6989,0,0,1,1.12418.00676c.15751.03.07474.32916.075.50419Q60.92044,56.98169,60.91717,62.44406Z"/><path d="M120.06987,62.3898c0,3.62318-.00794,7.24641.00982,10.8695.00227.46453-.07852.648-.55712.6222-.914-.04932-.77678.05429-.7772-.83051q-.0052-10.704.00348-21.40807c.0002-.21876-.13074-.57363.11937-.63485a2.70229,2.70229,0,0,1,1.124.00777c.15676.03.07417.32931.07437.50441Q120.07314,56.955,120.06987,62.3898Z"/><path d="M179.95051,62.94509c0-1.08548-.01181-2.17118.00693-3.25629.00592-.3425-.09452-.45636-.412-.4334-.36086.0261-.7252-.00677-1.08709.00955-.26636.012-.3514-.09081-.36166-.3791-.03493-.98252-.04635-.98206.82862-.98212,1.02529-.00007,1.02529-.00007,1.02529-1.09071v-.44155c0-1.32559.0002-1.31449,1.25388-1.34085.28845-.00606.35345.10228.34959.37449-.00965.68056.01227,1.36188-.00778,2.04191-.01066.36146.10507.48334.44552.464.49923-.02842,1.00149.008,1.5014-.01261.3001-.01238.3848.1108.3783.41658-.02495,1.17241.10931.91081-.8597.94783-.46271.01767-1.06472-.20712-1.35163.08766-.31638.32508-.10143.97917-.10239,1.48783-.00347,1.82071-.01169,3.64241.04,5.46186.03106,1.09339.53556,1.53955,1.56076,1.53785.13749-.00023.27489-.0263.41242-.02746.2684-.00226.63152-.21092.78152.01876.188.288.05279.71071.0587,1.07513.003.18461-.14084.19086-.25473.20228a6.56583,6.56583,0,0,1-2.2641-.00324,2.43637,2.43637,0,0,1-1.84153-2.19238,3.64888,3.64888,0,0,1-.08182-.59972c-.00791-1.122-.00382-2.24415-.00382-3.36625Z"/><path d="M81.48535,61.50453c.00009-2.27942.00917-4.55893-.00828-6.8382-.00314-.41063.10386-.53142.49284-.52639,1.09893.01421,1.09915-.00505,1.09915,1.19182,0,4.35664-.00717,8.71332.01014,13.06989.00191.4791-.10682.63577-.57091.62208-1.02231-.03014-1.023-.00364-1.023-1.067Q81.48525,64.73066,81.48535,61.50453Z"/><path d="M86.21467,61.50734c0-2.27943.00922-4.55894-.00851-6.83821-.00317-.40723.09389-.53478.48777-.52954,1.10428.0147,1.10451-.00525,1.10451,1.18936q0,6.47984-.00018,12.95965c-.00006.72173-.001.72173-.66178.72323-.92182.00211-.92182.00211-.92183-.9971Q86.21464,64.761,86.21467,61.50734Z"/><path d="M174.85767,61.5636c0-2.29864.009-4.59737-.0085-6.89586-.00308-.40361.087-.53476.48351-.52849,1.09256.01728,1.09285-.00359,1.09285,1.13356,0,4.37662-.00674,8.75328.0098,13.12983.00177.46606-.08172.63921-.55785.62239-1.0189-.036-1.01983-.006-1.01983-1.11715Q174.85765,64.73574,174.85767,61.5636Z"/><path d="M171.60667,63.48963c-.00007,1.65349-.01071,3.30711.0074,4.96038.00453.41335-.08384.579-.51.57288-1.08089-.0156-1.08117.007-1.08117-1.16786,0-3.08652.00908-6.17311-.00965-9.2595-.00285-.46786.08915-.64385.56359-.62937,1.02907.0314,1.02986.00332,1.02988,1.11415Q171.60679,61.285,171.60667,63.48963Z"/><path d="M169.91931,55.0938c0-.94361,0-.94361.90522-.94359.85243,0,.85243,0,.85243.93851,0,.97111,0,.97111-.92511.97107C169.91931,56.05976,169.91931,56.05976,169.91931,55.0938Z"/></svg>