<svg id="Layer_1" data-name="Layer 1" xmlns="http://www.w3.org/2000/svg" xmlns:xlink="http://www.w3.org/1999/xlink" viewBox="0 0 215 127"><defs><style>.cls-1{fill:#fbfbfb;}.cls-2{fill:url(#linear-gradient);}</style><linearGradient id="linear-gradient" x1="-6420.24136" y1="-1525.65503" x2="-6420.24136" y2="-1522.23655" gradientTransform="translate(172708.79235 41032.84136) scale(26.88387)" gradientUnits="userSpaceOnUse"><stop offset="0" stop-color="#f79810"/><stop offset="1" stop-color="#f8310e"/></linearGradient></defs><title>kubernetes.io-logos2</title><rect class="cls-1" x="-3.74093" y="-3.96801" width="223.25536" height="134.51136"/><path class="cls-2" d="M29.10374,59.21151a.66659.66659,0,0,0-.64688.63108l-1.17893,8.9551,1.17893,8.80083a.66483.66483,0,0,0,.64688.62929.67345.67345,0,0,0,.64314-.626v0l1.39739-8.80425-1.39739-8.95672a.67672.67672,0,0,0-.64314-.6293Zm6.63-4.89279a.67133.67133,0,0,0-1.342,0L32.807,68.79769l1.58472,14.15822a.67036.67036,0,0,0,1.3402.00358l1.803-14.1618-1.80122-14.479ZM60.70739,40.96329a1.2435,1.2435,0,0,0-1.21883,1.20841l-1.26218,26.638,1.26218,17.21493a1.21982,1.21982,0,0,0,2.43946-.00343v.00522l1.42687-17.21672L61.928,42.1717A1.2525,1.2525,0,0,0,60.70739,40.96329ZM47.78186,50.22171a.969.969,0,0,0-.94679.931l-1.42165,17.65,1.42165,17.07613a.94608.94608,0,0,0,1.89179,0L50.3427,68.80274,48.72686,51.14911A.97282.97282,0,0,0,47.78186,50.22171ZM73.84274,87.22624a1.51366,1.51366,0,0,0,1.49447-1.48258l1.23807-16.92529L75.339,33.35344a1.4955,1.4955,0,0,0-2.9909.00179L71.25063,68.81658l1.09748,16.93229A1.50578,1.50578,0,0,0,73.84274,87.22624Zm26.8912.07982a2.06934,2.06934,0,0,0,2.04589-2.03726v0l.86355-16.44-.86371-40.95933a2.04591,2.04591,0,0,0-4.09179.00179L97.91637,68.815c0,.02607.77151,16.46411.77151,16.46411A2.06553,2.06553,0,0,0,100.73394,87.30606Zm-13.548-.06418a1.78193,1.78193,0,0,0,1.77027-1.76327v.01206L90.00678,68.822,88.95443,33.10045a1.77111,1.77111,0,0,0-3.54216,0l-.93441,35.7233.9362,16.66529a1.77337,1.77337,0,0,0,1.7719,1.75284Zm-32.96649-.15607a1.10624,1.10624,0,0,0,1.082-1.06457L56.82379,68.8029,55.30146,52.42366a1.08289,1.08289,0,0,0-2.16547.007L51.79563,68.8029,53.136,86.01961A1.09837,1.09837,0,0,0,54.21946,87.08581ZM41.39639,86.1426a.83375.83375,0,0,0,.80784-.78893l1.7095-16.55436L42.20586,51.62088a.837.837,0,0,0-.80963-.79073.82809.82809,0,0,0-.808.79073L39.08334,68.79931l1.50489,16.55094a.82614.82614,0,0,0,.80816.79236ZM93.934,32.5057a1.91237,1.91237,0,0,0-1.91068,1.90205l-.853,34.41763.853,16.5612a1.909,1.909,0,0,0,3.81779-.01206v.01385l.957-16.5612-.957-34.423A1.91214,1.91214,0,0,0,93.934,32.50569ZM67.25071,87.26094a1.38362,1.38362,0,0,0,1.35763-1.34558l1.33157-17.10057L68.60834,36.08418a1.35851,1.35851,0,0,0-2.71689,0L64.71252,68.81479l1.18072,17.10758A1.37381,1.37381,0,0,0,67.25071,87.26094Zm14.86913-1.6142v-.0088l1.14422-16.81777-1.14422-36.6595a1.63239,1.63239,0,0,0-3.26474,0l-1.016,36.65771L78.85673,85.645A1.63171,1.63171,0,0,0,82.12,85.63973v.007Zm86.54769-37.95817a19.79687,19.79687,0,0,0-7.67028,1.5396,34.9924,34.9924,0,0,0-34.84591-31.8915,35.45061,35.45061,0,0,0-12.68443,2.37007c-1.49626.57912-1.895,1.17551-1.9089,2.332V84.97558a2.39938,2.39938,0,0,0,2.14136,2.34417c.05034.00522,54.61287.03291,54.96669.03291a19.832,19.832,0,0,0,.00147-39.66409ZM107.50434,21.98331a2.20621,2.20621,0,0,0-2.18632,2.17932L104.42336,68.834l.89645,16.21275a2.1837,2.1837,0,0,0,4.36726-.01727v.01906l.9727-16.21454-.9727-44.67482a2.20468,2.20468,0,0,0-2.18273-2.17589ZM43.29145,99.95922c-2.34581-.55143-2.98048-.84611-2.98048-1.77547,0-.6552.52879-1.3332,2.11351-1.3332a4.51,4.51,0,0,1,3.362,1.52217l2.13435-2.07a7.07306,7.07306,0,0,0-5.38866-2.32511c-2.91971,0-5.28636,1.6489-5.28636,4.33452,0,2.91612,1.90384,3.78325,4.62937,4.416,2.78955.63288,3.29764,1.05757,3.29764,2.00941,0,1.12012-.82706,1.60721-2.57826,1.60721a4.7883,4.7883,0,0,1-3.78472-1.69387l-2.13469,1.90384a6.86181,6.86181,0,0,0,5.74917,2.684c4.03983,0,5.81515-1.90206,5.81515-4.71245.00016-3.21456-2.60059-4.01735-4.948-4.567ZM56.9085,93.97759c-4.03625,0-6.42375,3.1279-6.42375,7.63054s2.38734,7.62874,6.42375,7.62874,6.42717-3.126,6.42717-7.62874S60.9449,93.97759,56.9085,93.97759Zm0,12.32393c-2.38734,0-3.38268-2.05111-3.38268-4.69177,0-2.64228.99517-4.6934,3.38268-4.6934,2.39092,0,3.38268,2.05111,3.38268,4.6934C60.29118,104.25041,59.29942,106.30152,56.9085,106.30152ZM75.28,102.51826c0,2.36666-1.16508,3.82643-3.04449,3.82643-1.8812,0-3.02217-1.50147-3.02217-3.868V94.20826H66.25212v8.31017c0,4.31025,2.41178,6.72023,5.98326,6.72023,3.7624,0,6.00411-2.47417,6.00411-6.76177V94.20826H75.28Zm15.72551-2.051c0,.82526.04154,2.684.04154,3.23362-.1906-.38152-.676-1.12012-1.03509-1.67139l-5.24466-7.82292H81.93591v14.79989H84.854v-6.51237c0-.8251-.0417-2.684-.0417-3.23362.189.37973.67784,1.12012,1.03508,1.67155l5.43363,8.07428h2.64229V94.20646H91.00537v6.26084h.00017Zm11.35123-6.25905H97.72756V109.008h4.41581c3.80574,0,7.56993-2.20016,7.56993-7.39986C109.7133,96.19518,106.58378,94.20826,102.35677,94.20826Zm-.2134,11.925h-1.45619V97.08463h1.56387c3.12953,0,4.41956,1.49969,4.41956,4.52349C106.67044,104.31459,105.25221,106.13324,102.14337,106.13324ZM118.866,96.91473a2.8128,2.8128,0,0,1,2.7063,1.6072l2.748-1.26738a5.58622,5.58622,0,0,0-5.41294-3.277c-3.8647,0-6.573,3.1279-6.573,7.63054,0,4.67091,2.599,7.62874,6.46708,7.62874a5.65157,5.65157,0,0,0,5.47533-3.33935l-2.49322-1.48062a3.0982,3.0982,0,0,1-2.89723,1.883c-2.21922,0-3.50909-2.03042-3.50909-4.69177-.00146-2.74638,1.27113-4.6934,3.48873-4.6934Zm10.97656-2.70647h-2.95962V109.008h8.8945v-2.91971h-5.93488v-11.88Zm13.73173-.23067c-4.03966,0-6.42716,3.12789-6.42716,7.63053,0,4.50279,2.3875,7.62874,6.42716,7.62874,4.03625,0,6.42538-3.12595,6.42538-7.62874.00016-4.50264-2.38913-7.63054-6.42538-7.63054Zm0,12.32393c-2.39092,0-3.38268-2.05111-3.38268-4.69177,0-2.64228.99176-4.6934,3.38268-4.6934,2.38588,0,3.3791,2.05111,3.3791,4.6934C146.95339,104.25041,145.96017,106.30152,143.57429,106.30152Zm18.368-3.78326c0,2.36666-1.15987,3.82643-3.04106,3.82643-1.88462,0-3.02381-1.50147-3.02381-3.868V94.20826h-2.95945v8.31017c0,4.31025,2.41,6.72023,5.98327,6.72023,3.7624,0,6.00248-2.47417,6.00248-6.76177V94.20826h-2.96142v8.31Zm11.28884-8.31H168.6035V109.008h4.416c3.80737,0,7.568-2.20016,7.568-7.39986,0-5.41294-3.12773-7.39986-7.35637-7.39986Zm-.21161,11.925h-1.45814V97.08463H173.127c3.12595,0,4.41581,1.49969,4.41581,4.52349C177.543,104.31459,176.12636,106.13324,173.01947,106.13324Z"/></svg>