<svg id="Layer_1" data-name="Layer 1" xmlns="http://www.w3.org/2000/svg" viewBox="0 0 215 127"><defs><style>.cls-1{fill:#fbfbfb;}.cls-2{fill:#034ea2;}</style></defs><title>kubernetes.io-logos2</title><rect class="cls-1" x="-3.74093" y="-4.36563" width="223.25536" height="134.51136"/><path class="cls-2" d="M37.426,104.36124c-4.52736,0-5.37453-2.66221-5.18161-5.68808h3.65716c0,1.67055.07221,3.07344,2.08178,3.07344A1.7471,1.7471,0,0,0,39.823,99.76167c0-3.14735-7.36023-3.34026-7.36023-8.5465,0-2.73443,1.30766-4.914,5.76189-4.914,3.55949,0,5.32612,1.59834,5.08478,5.253H39.75c0-1.3069-.21671-2.63759-1.69434-2.63759a1.70235,1.70235,0,0,0-1.88894,1.86347c0,3.31646,7.36032,3.0267,7.36032,8.52187C43.527,103.8293,40.21056,104.36124,37.426,104.36124Z"/><path class="cls-2" d="M44.68858,104.07139,49.5311,86.5918h4.818l4.74484,17.47959H55.24465l-.9678-3.87387H49.289l-.99251,3.87387Zm7.04509-14.11471h-.04851l-1.6697,7.55408h3.48643Z"/><path class="cls-2" d="M60.61919,104.07139V86.5918h5.8826l2.73527,11.88676h.04841L72.19071,86.5918h5.68977v17.47959H74.321V90.58714h-.04842l-3.365,13.48425H67.42125l-3.195-13.48425H64.177v13.48425Z"/><path class="cls-2" d="M85.48121,104.36124c-4.52729,0-5.37446-2.66221-5.17994-5.68808h3.65557c0,1.67055.07221,3.07344,2.08178,3.07344a1.74709,1.74709,0,0,0,1.83967-1.98493c0-3.14735-7.35863-3.34026-7.35863-8.5465,0-2.73443,1.3069-4.914,5.76029-4.914,3.55949,0,5.32612,1.59834,5.08478,5.253H87.80609c0-1.3069-.21755-2.63759-1.69518-2.63759a1.7011,1.7011,0,0,0-1.88726,1.86347c0,3.31646,7.35863,3.0267,7.35863,8.52187C91.58228,103.8293,88.26573,104.36124,85.48121,104.36124Z"/><path class="cls-2" d="M105.88992,86.5918V98.98671c0,2.61539-1.476,5.37453-5.93111,5.37453-4.01838,0-5.95573-2.08186-5.95573-5.37453V86.5918h3.65556V98.74537c0,2.15491.92106,3.00123,2.25259,3.00123,1.5975,0,2.32312-1.06387,2.32312-3.00123V86.5918Z"/><path class="cls-2" d="M108.77254,104.07139V86.5918h4.9386l4.648,12.10431h.04758V86.5918h3.41339v17.47959h-4.81881l-4.76778-12.78318h-.04926v12.78318Z"/><path class="cls-2" d="M132.76276,91.96634c.02463-1.62214-.24293-3.04974-2.17869-3.04974-2.27553,0-2.27553,3.07352-2.27553,6.463,0,5.47053.53361,6.44,2.61538,6.44a5.73635,5.73635,0,0,0,1.81421-.339V97.60592H130.7532V94.91915h5.64126v8.86165a33.50648,33.50648,0,0,1-4.9386.58044c-6.15025,0-6.85124-2.54159-6.85124-9.17452,0-4.40665.21831-8.88552,6.19784-8.88552,3.58243,0,5.8088,2.00872,5.592,5.66514Z"/><path class="cls-2" d="M149.4437,104.36124c-4.52813,0-5.37537-2.66221-5.18162-5.68808h3.65632c0,1.67055.0723,3.07344,2.08186,3.07344a1.74767,1.74767,0,0,0,1.84044-1.98493c0-3.14735-7.36191-3.34026-7.36191-8.5465,0-2.73443,1.30859-4.914,5.76281-4.914,3.55949,0,5.326,1.59834,5.0847,5.253h-3.55941c0-1.3069-.21839-2.63759-1.69442-2.63759a1.70257,1.70257,0,0,0-1.88969,1.86347c0,3.31646,7.36191,3.0267,7.36191,8.52187C155.54469,103.8293,152.22822,104.36124,149.4437,104.36124Z"/><path class="cls-2" d="M158.10923,86.5918h6.101c4.79408,0,5.69051,3.19584,5.69051,8.64258,0,2.68677.41047,8.837-5.835,8.837h-5.95649Zm3.65632,14.792h1.76655c2.22795,0,2.66474-1.67055,2.66474-6.05258,0-3.22047,0-6.05257-2.54319-6.05257h-1.8881Z"/><path class="cls-2" d="M177.45313,104.36124c-4.52652,0-5.37369-2.66221-5.18161-5.68808h3.65632c0,1.67055.07389,3.07344,2.08187,3.07344a1.74769,1.74769,0,0,0,1.84051-1.98493c0-3.14735-7.36031-3.34026-7.36031-8.5465,0-2.73443,1.3069-4.914,5.76281-4.914,3.55781,0,5.326,1.59834,5.083,5.253h-3.5578c0-1.3069-.21831-2.63759-1.69434-2.63759a1.70263,1.70263,0,0,0-1.88978,1.86347c0,3.31646,7.36032,3.0267,7.36032,8.52187C183.55413,103.8293,180.23766,104.36124,177.45313,104.36124Z"/><path class="cls-2" d="M168.35578,31.04989c-1.65986-9.51354-30.244-12.48115-63.84993-6.63218A180.78469,180.78469,0,0,0,67.72328,34.58137a4.781,4.781,0,0,1,3.34034,1.068,2.98032,2.98032,0,0,1,.81018,2.19433V38.791H68.57953v-.834a1.04594,1.04594,0,0,0-1.155-1.12718,1.0177,1.0177,0,0,0-1.12382.83321,1.57271,1.57271,0,0,0,.014.65762c.353,1.44232,5.2439,2.33547,5.7792,4.99685a6.37915,6.37915,0,0,1,.01312,2.12371c-.3054,2.1434-2.18694,2.97334-4.58722,2.97334-3.351,0-4.71121-1.58927-4.71121-3.77208l.00244-1.03765h3.53158l.00159,1.28882A1.11334,1.11334,0,0,0,67.5887,46.02a1.08525,1.08525,0,0,0,1.21494-.83406,1.63,1.63,0,0,0-.02623-.92929c-.65349-1.63852-5.22348-2.40365-5.78417-5.05435a4.48613,4.48613,0,0,1-.03118-1.74688,3.33842,3.33842,0,0,1,.29219-.91534c-11.01,5.14715-17.44925,10.81061-16.598,15.70322,1.65911,9.511,30.24235,12.48031,63.84833,6.62553,14.77149-2.5711,28.05055-6.4195,38.16252-10.73419-.14946.00656-.289.02379-.44166.02379-2.30024,0-4.35252-.86029-4.56755-3.21223a8.3107,8.3107,0,0,1-.04438-.85129v-5.404c0-.23234.02791-.63946.05422-.85214.27252-2.27224,2.06706-3.21138,4.561-3.21138,1.92416,0,4.28678.55582,4.5462,3.21391a7.4822,7.4822,0,0,1,.03118.8053v.5122h-3.32966V38.397a3.18491,3.18491,0,0,0-.03934-.4794,1.12668,1.12668,0,0,0-1.23629-.90138,1.14592,1.14592,0,0,0-1.23957.903,2.821,2.821,0,0,0-.05253.59768v5.87191a2.92045,2.92045,0,0,0,.0279.48353,1.16256,1.16256,0,0,0,1.27731.89971,1.15048,1.15048,0,0,0,1.26252-.89971,2.64951,2.64951,0,0,0,.02959-.48353V42.56971h-1.31018V40.61185h4.63161v3.48551a8.38264,8.38264,0,0,1-.04271.84885,3.31733,3.31733,0,0,1-.555,1.586C162.95418,41.44254,169.19311,35.87021,168.35578,31.04989ZM81.21334,47.91139l-1.68779-11.4567h-.05749l-1.72881,11.4567H74.18548L76.5719,34.973H82.37l2.37733,12.93837Zm17.09056,0-.07885-11.23663h-.05581l-2.0933,11.23663H92.74468l-2.081-11.23663h-.05993l-.07717,11.23663H87.22321L87.50893,34.973h5.31452l1.54907,9.61038h.07474L95.9971,34.973h5.31459l.28236,12.93837Zm15.55989-2.50957c-.353,2.507-2.80747,2.94457-4.5462,2.94457-2.8785,0-4.65993-1.22972-4.65993-3.73836V43.58677h3.491l.00328,1.27488A1.09838,1.09838,0,0,0,109.3898,45.974a1.06878,1.06878,0,0,0,1.20183-.82094,1.62238,1.62238,0,0,0-.02295-.9219c-.6403-1.6065-5.17792-2.39457-5.72549-5.00509a4.37067,4.37067,0,0,1-.03447-1.72721c.38668-2.36749,2.6565-2.86,4.48593-2.86a4.88219,4.88219,0,0,1,3.53645,1.07371,2.94051,2.94051,0,0,1,.80287,2.17055v.93417H110.37v-.82338a1.0387,1.0387,0,0,0-1.14441-1.1123,1.01353,1.01353,0,0,0-1.12137.82086,1.5736,1.5736,0,0,0,.01647.651c.3497,1.43577,5.198,2.31168,5.72827,4.94683A6.22241,6.22241,0,0,1,113.86379,45.40182Zm12.09035-1.17475c.00328.2447-.02135.72822-.03446.853-.19864,2.12859-1.72225,3.21223-4.51829,3.21223-2.80748,0-4.33109-1.08364-4.52981-3.21223-.0147-.12475-.03934-.60827-.03278-.84969v-9.259h3.33941v9.553a2.60818,2.60818,0,0,0,.02791.4794,1.24224,1.24224,0,0,0,2.38885.00244,2.84952,2.84952,0,0,0,.02959-.48184v-9.553h3.32958Zm14.38564,3.55209h-4.648L132.574,37.53008h-.05413l.174,10.24908h-3.23442V34.973h4.83848l2.88136,9.84433h.069l-.17082-9.84433h3.26233Z"/></svg>