<?xml version="1.0" encoding="UTF-8"?> <svg xmlns="http://www.w3.org/2000/svg" role="img" viewBox="-15.99 48.01 831.48 703.48"><style>svg {enable-background:new 0 0 800 800}</style><style>.st0{fill:#FFFF}</style><path d="M492.7 373.4c-.5-.1-1.1-.3-1.6-.4-1.9-.4-3.5-.3-5.3-.4-3.9-.4-7-.7-9.9-1.6-1.2-.5-2-1.8-2.4-2.4l-2.2-.6c1.2-8.6.8-17.3-1.2-25.7-1.9-8.5-5.5-16.6-10.3-23.9.6-.5 1.6-1.5 2-1.8.1-1 0-2 1-3.1 2.2-2 4.9-3.7 8.2-5.8 1.6-.9 3-1.5 4.6-2.7.4-.3.8-.7 1.2-1 2.6-2.1 3.3-5.7 1.4-8.1-1.9-2.4-5.6-2.6-8.2-.5-.4.3-.9.7-1.2 1-1.5 1.3-2.4 2.5-3.6 3.9-2.7 2.8-5 5.1-7.4 6.7-1.1.6-2.6.4-3.3.4l-2.1 1.5c-12-12.5-28.2-20.5-45.7-22.1 0-.7-.1-2.1-.1-2.5-.7-.7-1.6-1.3-1.8-2.8-.2-3 .2-6.1.6-10 .3-1.8.7-3.3.8-5.2v-1.6c0-3.4-2.5-6.1-5.5-6.1s-5.5 2.7-5.5 6.1V266.3c.1 1.9.5 3.4.8 5.2.5 3.8.9 7 .6 10-.2 1.1-1.1 2.1-1.8 2.8l-.1 2.3c-3.4.3-6.7.8-10 1.5-13.8 3.1-26.3 10.3-36 20.6-.7-.5-1.3-.9-2-1.4-1 .1-2 .4-3.3-.3-2.5-1.7-4.7-4-7.4-6.7-1.2-1.3-2.1-2.6-3.6-3.8-.3-.3-.8-.7-1.2-1-1.2-.9-2.5-1.4-3.8-1.4-1.7-.1-3.3.6-4.4 1.9-1.9 2.4-1.3 6 1.4 8.1 0 0 .1 0 .1.1.4.3.8.7 1.1.9 1.6 1.2 3 1.8 4.6 2.7 3.3 2 6 3.7 8.2 5.8.8.9 1 2.5 1.1 3.2l1.8 1.6c-9.5 14.2-13.8 31.8-11.2 49.7l-2.3.7c-.6.8-1.5 2-2.4 2.4-2.8.9-6 1.2-9.9 1.6-1.8.2-3.4.1-5.3.4-.4.1-1 .2-1.5.3h-.1c-3.2.8-5.3 3.8-4.7 6.7.7 2.9 3.8 4.7 7.1 4h.2c.5-.1 1-.2 1.4-.3 1.9-.5 3.2-1.2 4.9-1.9 3.6-1.3 6.7-2.4 9.6-2.8 1.2-.1 2.5.8 3.2 1.1l2.4-.4c5.5 17.1 17.1 31 31.8 39.7l-1 2.4c.4.9.8 2.2.5 3.1-1.1 2.8-2.9 5.7-5 9-1 1.5-2 2.7-3 4.4-.2.4-.5 1-.7 1.5-1.4 3-.4 6.5 2.3 7.8 2.7 1.3 6.1-.1 7.6-3.1l.7-1.4c.8-1.8 1-3.3 1.6-5.1 1.5-3.7 2.3-7.5 4.3-9.9.6-.7 1.4-.9 2.4-1.2l1.2-2.3c12.8 4.9 27.1 6.2 41.4 3 3.2-.7 6.4-1.7 9.5-2.8.3.6 1 1.8 1.2 2.1.9.3 2 .5 2.8 1.7 1.5 2.6 2.5 5.6 3.8 9.3.5 1.7.8 3.3 1.6 5l.7 1.4c1.5 3 4.9 4.4 7.6 3.1 2.7-1.3 3.8-4.8 2.3-7.8-.2-.4-.5-1.1-.7-1.5-.9-1.7-1.9-2.9-3-4.4-2.1-3.3-3.8-6-4.9-8.7-.4-1.4.1-2.3.4-3.2-.2-.2-.7-1.6-.9-2.2 15.2-9 26.5-23.4 31.8-40 .7.1 2 .3 2.4.4.8-.5 1.6-1.3 3.1-1.1 2.9.4 6 1.5 9.6 2.8 1.7.6 3.1 1.4 4.9 1.9.4.1 1 .2 1.4.3h.2c3.3.7 6.4-1.1 7.1-4 .3-2.9-1.8-5.9-5-6.7m-52.4-56.1L416.8 334h-.1c-2.1 1.5-5 1.1-6.7-.9-.6-.8-1-1.8-1.1-2.8l-1.6-28.9c12.6 1.5 24.2 7.2 33 15.9M396 348.9h8.9l5.5 6.9-2 8.6-8 3.8-8-3.8-2-8.6 5.6-6.9zm-8.4-46.5c2-.4 3.9-.8 5.9-1l-1.6 28.9-.1.1c-.1 2.6-2.2 4.6-4.8 4.7-1 0-2-.3-2.9-.9l-23.7-16.8c7.2-7.3 16.5-12.6 27.2-15m-35.9 25.7l21.6 19.4v.1c2 1.7 2.2 4.7.6 6.7-.6.8-1.5 1.4-2.5 1.7v.1l-27.7 8c-1.4-12.7 1.4-25.3 8-36m29 51.4l-11 26.6c-10.3-6.6-18.5-16.5-22.9-28.7l28.4-4.8v.1c.3-.1.6-.1 1-.1 2.2 0 4.2 1.6 4.7 3.8.2 1 .1 2-.3 3l.1.1zm32.5 34.2c-10.7 2.4-21.4 1.7-31.1-1.6l14-25.3c.8-1.5 2.4-2.5 4.1-2.6.8 0 1.6.1 2.3.5.9.4 1.7 1.2 2.2 2.1h.1l14 25.3c-1.8.7-3.7 1.2-5.6 1.6m18.1-7.5l-11.1-26.9c-1-2.4 0-5.2 2.4-6.3.6-.3 1.2-.4 1.9-.5.4 0 .8 0 1.1.1v-.1l28.7 4.8c-4.2 11.8-12.3 22.1-23 28.9m26-42.3l-27.9-8v-.1c-2.5-.7-4-3.2-3.4-5.8.2-1 .8-1.9 1.5-2.6v-.1L449 328c3.3 5.4 5.7 11.2 7.1 17.3 1.4 6.2 1.8 12.4 1.2 18.6m327.5-56.7l-.8-.7c-9.1-8.2-21.4-13.3-34.7-13.3h-.1c2.6 8.5 4.8 17 6.8 25.6 3.8 17.2 6.4 34.6 7.6 52 2.4 34-.1 68.5-7.7 102.1-1.9 8.6-4.2 17.2-6.8 25.6h.1c13.7 0 26.3-5.4 35.5-14.1 9.4-8.9 15.2-21.1 15.2-34.6v-108c.1-13.5-5.7-25.7-15.1-34.6M36.4 370.8c1.2-17.5 3.8-34.9 7.6-52 1.9-8.6 4.2-17.2 6.8-25.6h-.1c-13.4 0-25.6 5.1-34.7 13.3l-.8.7C5.8 316.1 0 328.3 0 341.8v108.1c0 13.5 5.8 25.8 15.2 34.6 9.2 8.7 21.8 14.1 35.5 14.1h.1c-2.6-8.5-4.8-17-6.8-25.6-7.5-33.7-10-68.1-7.6-102.2" class="st0"></path><path d="M740.4 378.2s-3.2-57.4-29.5-115.7c-2.4-5.3-5.1-11.1-7.7-16.6-5.7-12.1-11-22.7-11-22.7-14.6-24.7-32.2-47.3-52.4-67.5C531.4 47.3 296 21.4 159.4 155.6c-26.7 26.2-46.1 55.1-60.2 84.7-3.3 6.2-6.9 13.4-10.7 21.8 0 0-.2.5-.5 1.1-21.7 49-25.9 93.5-27.1 108.4 0 .3 0 .6-.1 1-3.8 48 8.4 100.3 10.5 108.7l.3 1.2c2.9 11.2 7.4 26.6 14.5 44.4 0 .1.1.2.1.3 2.9 7 5.8 13.1 8.2 18 2.7 5.6 5.8 11.5 9.3 17.6 190.7 66.7 401.2 66.7 591.9 0 3.3-5.8 6.4-11.6 9.3-17.6 1.1-2.3 4.4-9.1 8.3-18.2 4.1-9.8 10.2-24.3 15.5-42.8 6.3-22.1 8.3-39.5 9.7-50.9 1.1-11.7 3.3-30.8 2-55.1M399.6 575.1c-149.1 0-270-100.5-270-224.5S250.5 126 399.6 126s270 100.5 270 224.5-120.9 224.6-270 224.6" class="st0"></path><path d="M400.4 149.1c-135.7 0-246.2 90-246.2 200.7 0 110.7 110.4 200.7 246.2 200.7s246.2-90 246.2-200.7c0-110.7-110.4-200.7-246.2-200.7M529 392.4l-63.7 79.2c-3.3 4.1-8.5 6.6-13.8 6.6H349.3c-5.3 0-10.5-2.5-13.8-6.6l-63.7-79.2c-.4-.4-.7-.9-1-1.4-2.6-3.9-3.4-8.8-2.4-13.4l22.7-98.8c1.2-5.1 4.8-9.6 9.5-11.8l92.1-44c2.1-1 4.4-1.6 6.7-1.7 2.9-.1 5.9.4 8.5 1.7l92.1 44c4.7 2.3 8.4 6.8 9.5 11.8l22.7 98.8c1.3 5.2.1 10.8-3.2 14.8" class="st0"></path><path d="M304.8 677.4c-.6-.9-1.4-1.7-2.4-2.3-1-.6-2.3-1-3.8-1.2-1.5-.1-2.8 0-3.9.4s-2.1 1-2.9 1.8c-.8.8-1.4 1.7-1.9 2.8-.5 1.1-.9 2.2-1.2 3.3l17.7 1.6c0-1.1-.1-2.3-.3-3.4-.3-1.1-.7-2.1-1.3-3zm280 3.1c-1.1.1-2.1.2-3 .4-1.2.2-2.4.5-3.5.9-1.1.3-2 .8-2.7 1.4-.8.6-1.3 1.2-1.7 2-.3.8-.4 1.7-.2 2.8.4 2.1 1.3 3.4 2.9 3.9 1.5.5 3.5.6 6 .2 1.3-.2 2.5-.5 3.7-.8 1.2-.3 2.1-.5 2.8-.8l-1.8-10.1c-.6 0-1.4 0-2.5.1zm-340.5-12.3c-1.4-.2-2.8-.2-4.1-.1-1.4.2-2.5.4-3.5.9l-3.6 24.2c.6.2 1.5.4 2.5.7 1 .2 2.1.4 3.3.6 3.6.5 6.6-.3 8.8-2.5 2.2-2.2 3.6-5.4 4.3-9.5 1.1-8.6-1.4-13.4-7.7-14.3zm236 11.5c-1.8-2.3-4.2-3.3-7.3-3.1-3.1.2-5.4 1.5-6.9 4s-2.2 5.8-1.9 9.9 1.3 7.4 3.1 9.7c1.8 2.3 4.3 3.4 7.4 3.2 3.1-.2 5.4-1.5 6.9-4.1 1.5-2.5 2.1-5.9 1.9-10-.3-4.1-1.4-7.3-3.2-9.6z" class="st0"></path><path d="M721.5 579.9c-9 3.3-18 6.5-27 9.6-190.1 64-398.1 64-588.1 0-9-3-18.1-6.2-27-9.6-11.9 12.7-19.2 29.8-19.2 48.5 0 53.1 90.2 86.2 205.6 99.7 85.8 10 183.6 10 269.4 0 115.3-13.5 205.6-46.5 205.6-99.7-.1-18.8-7.4-35.8-19.3-48.5zm-576.2 81.7c.9 2.8 1.8 5.7 2.5 8.6.8 2.9 1.4 5.8 1.9 8.6s.8 5.3 1 7.6l-14.3-5.9c-.3-1.8-.7-3.8-1.1-6.1-.4-2.2-.9-4.5-1.5-6.8s-1.2-4.5-2-6.7-1.6-4.1-2.5-5.8l-7.9 19.3-12.5-5.1 25.8-62.9 13.3 3.1-15 36.7c1.8-.8 3.6-1.7 5.5-2.6 1.9-.9 3.8-1.8 5.6-2.7 1.8-.9 3.5-1.8 5.1-2.6 1.6-.8 3-1.6 4.2-2.2l14.8 6.1c-4.3 2.2-8.6 4.2-12.6 6.2-4.1 1.9-8.5 3.9-13.2 5.8 1 2.1 2 4.6 2.9 7.4zm57.4 35.7c-2.4.1-5.4 0-9-.3-3.6-.3-7.4-.9-11.3-1.8-3.9-.9-7.1-2.3-9.4-3.9-2.4-1.7-4.1-3.7-5.1-5.9-1.1-2.3-1.6-4.8-1.6-7.6s.4-5.8 1.1-8.9l6.2-25.8 13.1 3.2-5.8 24.2c-1 4.2-1.2 7.4-.5 9.5.7 2.1 2.5 3.6 5.6 4.3.9.2 1.9.4 3 .6 1.1.2 2 .3 2.9.4l8.6-35.7 13.1 3.2-10.9 44.5zm62.7-12.4c-.6 3.8-1.6 7.1-3.2 9.9-1.6 2.9-3.5 5.2-5.9 7.1-2.4 1.8-5.2 3.1-8.4 3.8-3.2.7-6.8.8-10.6.2-1.6-.2-3.3-.6-5-1-1.7-.4-3.4-.9-5.1-1.4-1.7-.5-3.2-1-4.7-1.6-1.5-.6-2.8-1.1-4-1.6l9.8-65.7 13.6-.2-3.5 23.4c1.6-.4 3.2-.7 4.9-.8 1.7-.1 3.4 0 5.3.2 3.3.5 6.2 1.5 8.6 3.1 2.4 1.5 4.3 3.5 5.7 5.9 1.4 2.4 2.3 5.2 2.8 8.3.3 3.2.2 6.7-.3 10.4zm53.5 4.2c-.1.8-.2 1.6-.3 2.6-.1.9-.3 1.7-.4 2.5l-30.4-2.7c.1 2.8 1.1 5.1 3.3 6.9 2.1 1.8 5.1 2.9 9 3.2 2.5.2 4.9.2 7.3 0 2.4-.2 4.4-.6 6-1.2l.8 11.1c-.8.3-1.7.6-3 .8-1.2.3-2.6.5-4.1.6-1.5.1-3.1.2-4.8.3-1.7 0-3.4 0-5.1-.2-4.3-.4-7.9-1.3-11-2.9-3-1.5-5.5-3.5-7.4-5.9-1.9-2.4-3.2-5.1-3.9-8.2-.7-3.1-.9-6.4-.6-9.9.4-4.2 1.3-7.8 2.9-10.9 1.6-3 3.5-5.5 5.8-7.4 2.3-1.9 4.8-3.3 7.7-4.1 2.8-.8 5.7-1.1 8.6-.9 6.7.6 11.9 3.1 15.4 7.6s5 10.7 4.2 18.7zm38.5 23.9c-3.6 2.2-8.7 3.2-15.1 2.9-4.2-.2-7.7-.7-10.5-1.6-2.8-.8-4.7-1.5-5.7-2.1l2.8-10.8c2.2 1 4.6 1.8 6.9 2.4 2.4.6 4.8 1 7.1 1.1 2.5.1 4.2 0 5.3-.5 1-.4 1.6-1.3 1.7-2.7 0-1.1-.6-2.1-1.9-2.9-1.3-.9-3.3-1.9-5.9-3-2.1-.9-3.9-1.8-5.6-2.7s-3.1-2-4.2-3.2c-1.2-1.2-2-2.7-2.6-4.3-.6-1.7-.8-3.6-.7-5.9.2-4.5 2-7.9 5.4-10.3 3.4-2.4 8-3.5 13.8-3.3 2.9.1 5.6.5 8.3 1.1s4.7 1.3 6.2 2l-2.8 10.4c-1.5-.6-3.2-1.2-5-1.7-1.8-.5-3.9-.8-6.2-.9-4.2-.2-6.4.9-6.5 3.2 0 .5 0 1 .2 1.5.2.4.5.9 1 1.3s1.2.9 2.2 1.4c.9.5 2.1 1.1 3.5 1.7 2.9 1.2 5.3 2.4 7.2 3.6s3.3 2.4 4.4 3.6c1.1 1.3 1.8 2.7 2.2 4.2.4 1.5.5 3.3.4 5.3-.3 4.5-2.2 8-5.9 10.2zm42.3 3.5c-2 .5-4.4.7-7.3.6-3.7 0-6.7-.6-9.1-1.6-2.4-1-4.3-2.4-5.7-4.2-1.4-1.8-2.4-4-3-6.5-.5-2.5-.8-5.3-.8-8.4l.4-40 13.5-2-.1 14 16.2.2-.1 11.2-16.2-.2-.2 16.7c0 2.8.4 5.1 1.4 6.8 1 1.7 3 2.6 6 2.6 1.4 0 2.9-.1 4.5-.4 1.5-.3 2.9-.6 4.2-1.1l1.8 10.5c-1.7.8-3.6 1.3-5.5 1.8zm43.5-36.7c-1.2-.3-2.6-.6-4.3-.9-1.6-.3-3.4-.4-5.3-.4-.8 0-1.9.1-3 .3-1.2.2-2.1.4-2.7.6l.8 36.3-13.5.3-1-45c2.4-.9 5.2-1.8 8.5-2.6s6.9-1.3 11-1.4c.7 0 1.6 0 2.6.1s2.1.2 3.1.3c1 .1 2.1.3 3.1.5s1.9.4 2.6.7l-1.9 11.2zm52.9 19.1c-.9 3.2-2.3 5.9-4.2 8.2-1.9 2.3-4.3 4.2-7 5.5s-6 2.2-9.5 2.4c-3.5.2-6.7-.2-9.6-1.2-2.9-1-5.5-2.6-7.7-4.6-2.2-2.1-3.9-4.6-5.3-7.6-1.3-3-2.1-6.4-2.3-10.1-.2-3.7.2-7.2 1.1-10.3 1-3.1 2.5-5.9 4.4-8.1 1.9-2.3 4.3-4.1 7.1-5.5 2.8-1.4 5.9-2.2 9.2-2.4 3.4-.2 6.6.2 9.5 1.2 2.9 1 5.5 2.6 7.7 4.6 2.2 2 3.9 4.6 5.3 7.6 1.3 3 2.1 6.4 2.3 10.1.3 3.6-.1 7-1 10.2zm42.2 9.3l-2.8-25.1c-.5-4.3-1.4-7.3-2.7-9-1.3-1.7-3.6-2.3-6.7-2-1 .1-2 .3-3 .5-1.1.2-2 .4-2.8.6l4.1 36.5-13.4 1.5-5.1-45.6c2.2-.9 5.1-1.9 8.6-2.8 3.5-1 7.3-1.7 11.2-2.1 4-.5 7.4-.3 10.2.4 2.8.7 5.1 2 6.8 3.7 1.8 1.7 3.1 3.9 4.1 6.5 1 2.6 1.6 5.5 2 8.7l3 26.7-13.5 1.5zm57.4-8.8c-3.3 1.2-7.3 2.2-12.1 3.1-3 .5-5.8.8-8.4.7-2.6-.1-4.8-.6-6.8-1.5s-3.7-2.2-5-4c-1.3-1.8-2.2-4.1-2.7-6.9-.5-2.7-.4-5.1.4-7.2.8-2.1 1.9-3.9 3.6-5.3 1.6-1.5 3.6-2.7 5.9-3.6 2.3-.9 4.7-1.6 7.2-2.1 1.7-.3 3.3-.5 4.6-.6 1.4-.1 2.5-.1 3.4 0l-.2-1.2c-.4-2.3-1.4-3.9-3-5.1-1.6-1.1-4.1-1.4-7.5-.8-2.3.4-4.4 1-6.6 1.7-2.1.7-3.9 1.5-5.4 2.4l-3.6-10.4c.7-.4 1.6-.8 2.8-1.3 1.1-.5 2.3-.9 3.7-1.4 1.3-.5 2.7-.9 4.2-1.3s3-.8 4.5-1.1c3.9-.7 7.3-.9 10-.4 2.8.4 5.1 1.3 7 2.7 1.9 1.4 3.3 3.2 4.4 5.4 1.1 2.3 1.9 4.8 2.4 7.7l5 27.6c-2 .7-4.5 1.7-7.8 2.9zm54.3-13.6c-3.3 1.6-6.9 2.9-10.7 4-3.9 1.1-7.3 1.5-10.1 1.2-2.9-.3-5.3-1.2-7.4-2.6-2-1.4-3.8-3.4-5.2-5.8-1.4-2.4-2.5-5.2-3.4-8.3l-7.3-25.5 12.9-3.7 6.9 23.9c1.2 4.2 2.6 7 4.3 8.6 1.6 1.5 4 1.9 7 1 .9-.3 1.9-.6 2.9-1s1.9-.8 2.7-1.1l-10.2-35.3 12.9-3.7 12.7 44.1c-2.1 1.2-4.7 2.6-8 4.2zm50.1-21c-1.6 1.3-3.6 2.6-6.2 3.9-3.3 1.6-6.2 2.6-8.8 2.7-2.6.2-4.9-.2-7-1.1-2.1-.9-4-2.4-5.6-4.4s-3.1-4.4-4.5-7.1L650.2 623l11.1-7.9 6.2 12.5 14.5-7.2 5 10-14.5 7.2 7.5 15c1.3 2.5 2.7 4.3 4.4 5.4 1.6 1.1 3.8.9 6.5-.4 1.3-.6 2.6-1.4 3.8-2.4 1.3-.9 2.3-1.9 3.3-2.9l6.4 8.5c-1.4 1.4-2.8 2.7-4.3 4z" class="st0"></path></svg> 
