<?xml version="1.0" encoding="utf-8"?>
<svg xmlns="http://www.w3.org/2000/svg" role="img" viewBox="-4.48 -0.73 440.96 431.46">
<style>svg {enable-background:new 0 0 432 432}</style>
<style>.st0{fill:#fff}</style>
<path d="M417.8 258.6c-1.1-.2-2.5-.6-3.5-.8-4.2-.7-7.6-.6-11.5-1-8.5-.8-15.3-1.6-21.6-3.6-2.5-1-4.3-4-5.2-5.2l-4.9-1.4c2.5-18.2 1.8-37.3-2.5-56.2-4.4-19.2-12.2-36.7-22.5-52.2 1.3-1.2 3.6-3.2 4.2-3.8.2-2.1 0-4.4 2.2-6.8 4.8-4.4 10.7-8.1 17.9-12.6 3.4-2 6.6-3.3 10.1-5.8.7-.5 1.8-1.5 2.6-2.1 5.8-4.7 7.1-12.6 3-17.8-4.1-5.2-12.2-5.7-18-1.1-.8.6-1.9 1.5-2.6 2.1-3.3 2.8-5.2 5.5-7.9 8.5-5.9 6-10.9 11.1-16.2 14.7-2.3 1.4-5.7.8-7.3.8l-4.6 3.3c-26.1-27.4-61.7-44.9-100-48.4-.1-1.6-.2-4.6-.3-5.4-1.6-1.5-3.5-2.8-3.9-6-.5-6.5.3-13.4 1.4-21.8.5-3.9 1.5-7.2 1.7-11.4v-3.4c0-7.4-5.4-13.3-12.1-13.3s-12.1 6-12.1 13.3v.3c0 1-.1 2.2 0 3.1.1 4.2 1.1 7.5 1.7 11.4 1.1 8.4 1.9 15.3 1.4 21.8-.5 2.4-2.3 4.7-3.9 6.2l-.3 5.1c-7.2.6-14.5 1.7-21.8 3.4-31.3 7.1-58.2 23.2-78.7 45-1.4-1-3.7-2.5-4.3-3.1-2.1.3-4.3 1-7.2-.7-5.4-3.6-10.3-8.7-16.2-14.7-2.8-2.9-4.7-5.6-7.9-8.5-.7-.6-1.9-1.5-2.6-2.1-2.5-2-5.5-3.1-8.4-3.2-3.7-.1-7.3 1.3-9.6 4.2-4.1 5.2-2.9 13.1 3 17.8.1 0 .1.1.2.1.8.6 1.8 1.5 2.5 2 3.4 2.5 6.6 3.8 9.9 5.8 7.2 4.4 13.2 8.1 17.9 12.6 1.8 2 2.2 5.4 2.4 7l3.8 3.5c-20.6 31.1-30.3 69.5-24.6 108.7l-5.1 1.5c-1.4 1.7-3.2 4.4-5.2 5.2-6.2 1.9-13.2 2.6-21.6 3.6-3.9.3-7.4.1-11.5 1-1 .2-2.2.5-3.2.7h-.3c-7.1 1.7-11.6 8.3-10.2 14.7 1.5 6.5 8.4 10.4 15.6 8.8h.2c.1 0 .1-.1.2-.1 1-.2 2.2-.4 3.1-.7 4.1-1.1 7.1-2.8 10.8-4.1 7.9-2.9 14.6-5.3 21-6.1 2.6-.2 5.5 1.7 6.9 2.4l5.3-1c12.1 37.5 37.4 67.7 69.4 86.8l-2.2 5.3c.7 2 1.7 4.8 1.1 6.8-2.3 6-6.3 12.5-10.9 19.6-2.2 3.3-4.4 5.8-6.5 9.6-.5 1-1.1 2.3-1.6 3.3-3.1 6.7-.8 14.3 5.1 17.1 6 2.9 13.4-.1 16.6-6.8.4-1 1.1-2.2 1.5-3.1 1.7-3.9 2.2-7.3 3.5-11 3.2-8 5-16.4 9.3-21.7 1.2-1.5 3.2-2 5.2-2.5l2.8-5c27.9 10.7 59.3 13.7 90.5 6.6 7.1-1.6 14-3.7 20.6-6.2.7 1.4 2.2 4 2.5 4.7 2 .6 4.3 1.1 6.1 3.7 3.3 5.6 5.5 12.3 8.3 20.2 1.2 3.8 1.8 7.1 3.5 11 .4.8 1.1 2.1 1.5 3.1 3.2 6.7 10.7 9.7 16.6 6.8 5.9-2.9 8.3-10.5 5.1-17.1-.4-1-1.1-2.3-1.6-3.3-2-3.8-4.2-6.3-6.5-9.6-4.6-7.1-8.4-13-10.7-19.2-1-3.2.2-5.1 1-7.1-.4-.5-1.5-3.5-2-4.9 33.3-19.7 57.9-51.1 69.4-87.4 1.6.2 4.2.7 5.2 1 1.8-1.2 3.5-2.8 6.8-2.5 6.5 1 13 3.3 21 6.1 3.7 1.4 6.7 3.1 10.8 4.1.8.2 2.1.4 3.1.6.1 0 .1.1.2.1h.2c7.1 1.6 14.1-2.3 15.6-8.8 1.4-6.3-3.1-12.8-10.2-14.5zM293 126.9h-60.5l-1.5-25.8c22.9 2.8 44.3 11.9 62 25.8zm-105-23.7c4.3-1 8.6-1.7 12.8-2.2l-1.5 25.8h-61.1c14.3-11 31.1-19.2 49.8-23.6zM148.8 330c-7.1-4.6-13.7-9.7-19.7-15.7h26.1l-6.4 15.7zm95.2 16.7c-23.5 5.3-46.8 3.7-67.9-3.5l15.9-28.8h48.3l16 28.9c-4 1.3-8.2 2.5-12.3 3.4zm39.5-16.4l-6.6-15.9h26.6c-6.2 6-12.8 11.3-20 15.9zm45.6-34.9H102.8V246h226.3v49.4zM113 219.3c.6-.7 1.3-1.5 1.9-2.2s1.2-1.5 1.7-2.1c.5-.6 1.1-1.3 1.4-1.7h7.4c-1.5 1.8-3 3.5-4.3 5.1-1.4 1.6-3 3.3-4.7 5 .8.7 1.7 1.7 2.6 2.8.8 1.1 1.8 2.2 2.6 3.4.8 1.2 1.6 2.3 2.3 3.5.7 1.2 1.3 2.2 1.8 3.2h-7.2c-.4-.7-1-1.6-1.5-2.5s-1.2-1.8-1.8-2.8c-.6-1-1.3-1.8-2-2.6s-1.4-1.6-2.1-2.1v10.1h-6.5v-32.6l6.2-1.1v19c.8-.9 1.4-1.6 2.2-2.4zm22.5 10.4c.5 1 1.5 1.4 3 1.4.4 0 1 0 1.4-.1.5 0 1-.1 1.4-.1v-17.6h6.2v22c-1.1.3-2.4.6-4.1.8-1.7.2-3.5.4-5.3.4-1.9 0-3.4-.2-4.7-.7s-2.2-1.3-3-2.2c-.7-1-1.3-2-1.6-3.4-.3-1.3-.4-2.8-.4-4.3v-12.7h6.2v12c.2 2.1.4 3.7.9 4.5zm26.4-16.6c.7-.2 1.6-.2 2.4-.2 1.6 0 3 .3 4.1.8 1.2.5 2.2 1.4 3.1 2.4.8 1.1 1.4 2.3 1.8 3.7.4 1.4.6 3.1.6 4.9s-.2 3.5-.7 5-1.3 2.8-2.2 3.8c-1 1.1-2.2 1.8-3.6 2.4-1.5.5-3.1.8-4.9.8-.7 0-1.6 0-2.3-.1l-2.4-.3c-.8-.1-1.6-.2-2.3-.4-.7-.1-1.4-.3-1.9-.5v-31.9l6.2-1.1v11.3c.6-.2 1.3-.4 2.1-.6zM186 230c1.1.7 2.5 1.2 4.2 1.2 1.2 0 2.2-.1 3.4-.3 1.1-.2 2-.5 2.8-.8l.8 5.3c-.3.2-.7.3-1.4.5-.5.2-1.2.3-1.9.4-.7.1-1.4.2-2.2.3-.7.1-1.6.1-2.3.1-2 0-3.7-.3-5.2-1s-2.6-1.5-3.7-2.5c-1-1.1-1.7-2.3-2.1-3.7-.4-1.5-.7-3-.7-4.7 0-2 .3-3.8 1-5.3s1.4-2.8 2.3-3.8 2.1-1.8 3.4-2.3 2.5-.7 3.9-.7c3.2 0 5.6 1 7.4 3s2.8 4.9 2.8 8.8v1.3c0 .4-.1.8-.1 1.2h-14.2c.1 1.2.7 2.3 1.8 3zm17.4 6.2v-21.6c1.2-.4 2.4-.7 4-1.2 1.5-.3 3.2-.5 5.1-.5.3 0 .7 0 1.3.1.4 0 1 .1 1.4.2.4.1 1 .2 1.4.2.4.1.8.2 1.3.3l-1.1 5.3c-.5-.1-1.3-.3-2-.4-.7-.1-1.6-.2-2.4-.2-.4 0-.8 0-1.4.1s-1 .1-1.3.2v17.5h-6.3zm29.7-16.5c-.5-.8-1.5-1.3-3-1.3-.4 0-1 0-1.4.1-.5 0-1 .1-1.4.1v17.6h-6.2v-22c1.1-.3 2.4-.6 4.1-.8 1.7-.2 3.5-.4 5.3-.4 1.9 0 3.4.2 4.7.7 1.3.5 2.2 1.3 3 2.1.7 1 1.3 2 1.6 3.3s.4 2.6.4 4.2v12.9h-6.3v-12.1c-.1-2.1-.3-3.6-.8-4.4zM253 230c1.1.7 2.5 1.2 4.2 1.2 1.2 0 2.2-.1 3.4-.3 1.1-.2 2-.5 2.8-.8l.8 5.3c-.3.2-.7.3-1.4.5-.5.2-1.2.3-1.9.4s-1.4.2-2.2.3c-.7.1-1.6.1-2.3.1-2 0-3.7-.3-5.2-1s-2.6-1.5-3.7-2.5c-1-1.1-1.7-2.3-2.1-3.7-.4-1.5-.7-3-.7-4.7 0-2 .3-3.8 1-5.3.6-1.5 1.4-2.8 2.3-3.8 1-1.1 2.1-1.8 3.4-2.3 1.3-.5 2.5-.7 3.9-.7 3.2 0 5.6 1 7.4 3 1.8 2 2.8 4.9 2.8 8.8v1.3c0 .4-.1.8-.1 1.2h-14.2c.1 1.2.7 2.3 1.8 3zm30.9-16.7v5.4h-7.5v8c0 1.4.2 2.4.7 3.3.4.8 1.4 1.2 2.8 1.2.6 0 1.4-.1 2.1-.2.7-.1 1.4-.3 1.9-.5l.8 5.1c-.7.3-1.6.6-2.5.8-1 .2-2 .3-3.4.3-1.7 0-3.2-.2-4.2-.7-1.2-.5-2-1.2-2.6-2-.6-.8-1.2-1.9-1.4-3.1-.3-1.2-.4-2.5-.4-4v-19.2l6.2-1.1v6.8h7.5v-.1zm11.4 16.7c1.1.7 2.5 1.2 4.2 1.2 1.2 0 2.2-.1 3.4-.3 1.1-.2 2-.5 2.8-.8l.8 5.3c-.3.2-.7.3-1.4.5-.5.2-1.2.3-1.9.4s-1.4.2-2.2.3c-.7.1-1.6.1-2.3.1-2 0-3.7-.3-5.2-1-1.5-.6-2.6-1.5-3.7-2.5-1-1.1-1.7-2.3-2.1-3.7-.4-1.5-.7-3-.7-4.7 0-2 .3-3.8 1-5.3.6-1.5 1.4-2.8 2.3-3.8 1-1.1 2.1-1.8 3.4-2.3 1.3-.5 2.5-.7 3.9-.7 3.2 0 5.6 1 7.4 3s2.8 4.9 2.8 8.8v1.3c0 .4-.1.8-.1 1.2h-14.2c.1 1.2.8 2.3 1.8 3zm26-1.6c-.6-.4-1.6-.8-2.9-1.3-1-.4-1.9-.7-2.6-1.2-.8-.4-1.5-.8-2-1.5-.5-.6-1-1.3-1.3-2-.3-.7-.4-1.7-.4-2.9 0-2.1.7-3.8 2.3-5.1 1.6-1.3 3.7-1.9 6.3-1.9 1.4 0 2.6.1 3.9.3 1.3.2 2.2.5 3 .8l-1.1 5.1c-.7-.2-1.5-.5-2.3-.7-.8-.2-1.8-.3-2.9-.3-2 0-3 .5-3 1.7 0 .2 0 .5.1.7.1.2.2.4.5.6.3.2.6.4 1.1.6.4.2 1 .4 1.7.7 1.4.5 2.5 1.1 3.4 1.6.8.5 1.6 1.1 2.1 1.7.5.6.8 1.3 1.1 2 .2.7.3 1.6.3 2.5 0 2.2-.8 3.9-2.4 5.1-1.6 1.2-3.9 1.7-7 1.7-2 0-3.6-.2-4.9-.5-1.3-.3-2.2-.6-2.8-.8l1.1-5.3c1.1.4 2.1.7 3.3 1.1 1.2.2 2.2.3 3.3.3 1.2 0 2-.1 2.4-.3.4-.2.7-.6.7-1.4-.1-.4-.4-.8-1-1.3zm7.8-32.7H102.8v-49.3h226.3v49.3z" class="st0"/>
<path d="M301.6 220.8c-.1-.5-.4-1-.7-1.4-.3-.4-.7-.7-1.3-1-.5-.2-1.1-.4-1.8-.4s-1.3.1-1.8.3c-.5.2-1 .5-1.3 1-.3.4-.6.8-.7 1.4-.2.5-.3 1.1-.4 1.6h8.3c-.1-.4-.2-1-.3-1.5zm-43.1-1.4c-.3-.4-.7-.7-1.3-1-.5-.2-1.1-.4-1.8-.4s-1.3.1-1.8.3c-.5.2-1 .5-1.3 1-.3.4-.6.8-.7 1.4-.2.5-.3 1.1-.4 1.6h8.3c0-.5-.1-1.1-.3-1.6s-.4-.8-.7-1.3zM159.7 231c.3.1.7.1 1.2.1.4 0 1 .1 1.6.1 1.7 0 3-.6 3.9-1.8.8-1.2 1.3-2.9 1.3-4.9 0-4.1-1.5-6.2-4.4-6.2-.6 0-1.3.1-1.9.2-.6.2-1.2.4-1.5.6V231h-.2zm31.8-11.6c-.3-.4-.7-.7-1.3-1-.5-.2-1.1-.4-1.8-.4s-1.3.1-1.8.3c-.5.2-1 .5-1.3 1-.3.4-.6.8-.7 1.4-.2.5-.3 1.1-.4 1.6h8.3c0-.5-.1-1.1-.3-1.6-.3-.5-.4-.8-.7-1.3zm-54.1-39.2l-3.5-3.6c-2 1.8-3.7 3-6.6 3-4.3 0-7.3-3.6-7.3-7.8v-.1c0-4.3 3.1-7.8 7.3-7.8 2.5 0 4.4 1.1 6.5 2.9l3.5-4c-2.3-2.3-5.2-3.9-9.8-3.9-7.7 0-13.1 5.8-13.1 13v.1c0 7.2 5.5 12.9 12.9 12.9 4.6-.2 7.5-2 10.1-4.7zm10.8-6.2H160v-4.8h-11.8v-5.1h13.5v-4.9h-19v25.1h19.1v-5h-13.6zm40.3-6.4c0-2.4-.7-4.4-2.1-5.8-1.7-1.7-4.1-2.5-7.3-2.5h-11.4v25.1h5.5v-8h4.3l5.4 8h6.5l-6.1-9c3-1.3 5.2-3.8 5.2-7.8zm-15.4 3.8v-7.2h5.5c2.6 0 4.3 1.3 4.3 3.6v.1c0 2.1-1.6 3.6-4.2 3.6l-5.6-.1zm19.5-12.2v5.1h7.7v20h5.5v-20h7.6v-5.1zm26.2 0h5.5v25.1h-5.5zm12.7 0v25.1h5.5v-9.7h12v-5.1h-12v-5.3h13.6v-5zm24.6 0h5.5v25.1h-5.5zm12.7 25.1h19.1v-5h-13.6V174h11.8v-4.8h-11.8v-5.1h13.4v-4.9h-18.9zm34.7 0c7.8 0 13.3-5.5 13.3-12.6v-.1c0-7.1-5.4-12.5-13.3-12.5h-9.7v25.1h9.7v.1zm-4.3-20.1h4.2c4.6 0 7.5 3.1 7.5 7.5v.1c0 4.4-3.1 7.5-7.5 7.5h-4.2v-15.1zM117.9 278.8l1.5-3.7h6.9l1.5 3.7h3.7l-7-16.4h-3.3l-7 16.4h3.7zm4.9-12.1l2.1 5.3h-4.3l2.2-5.3zm17.6-4.2H134v16.3h6.3c5.1 0 8.7-3.6 8.7-8.1.1-4.7-3.5-8.2-8.6-8.2zm4.9 8.3c0 2.9-2 4.9-4.9 4.9h-2.8v-9.8h2.8c3-.1 4.9 1.9 4.9 4.9zm19.6 8h3.6v-16.3h-3.9l-4.2 6.9-4.3-6.9h-3.9v16.3h3.5v-10.6l4.6 6.9h.1l4.5-6.9zm7.7-16.3h3.6v16.3h-3.6zm11.2 5.9l7.9 10.4h3.1v-16.3h-3.6v10.1l-7.6-10.1h-3.3v16.3h3.5zm15-5.9h3.6v16.3h-3.6zm13.6 13.3c-1.9 0-3.4-.7-4.9-2l-2.1 2.5c1.9 1.8 4.4 2.6 6.9 2.6 3.5 0 6-1.8 6-5.1 0-2.9-1.9-4-5.2-4.9-2.9-.7-3.5-1.1-3.5-2.1 0-.7.7-1.4 2.1-1.4s2.8.6 4.2 1.6l1.9-2.8c-1.7-1.4-3.7-2.1-6-2.1-3.3 0-5.7 1.9-5.7 4.9 0 3.3 2.1 4.1 5.4 5 2.8.7 3.3 1.2 3.3 2.1-.1 1.2-1 1.7-2.4 1.7zm12.4 3h3.6v-13h4.9v-3.3h-13.4v3.3h4.9zm14.9-5.2h2.8l3.5 5.2h4.2l-4-5.8c2.1-.7 3.5-2.4 3.5-5.1 0-1.6-.5-2.9-1.4-3.7-1.1-1.1-2.6-1.7-4.8-1.7h-7.4v16.3h3.6v-5.2zm0-7.8h3.6c1.8 0 2.9.7 2.9 2.3 0 1.4-1 2.3-2.8 2.3h-3.6l-.1-4.6zm17 9.4h6.9l1.5 3.7h3.7l-7-16.4h-3.3l-7 16.4h3.7l1.5-3.7zm3.4-8.5l2.1 5.3h-4.3l2.2-5.3zm7.9-.9h5v13h3.6v-13h5v-3.3H268zm23.6-3.5c-5.1 0-8.7 3.8-8.7 8.5s3.6 8.4 8.7 8.4 8.7-3.8 8.7-8.5c-.1-4.7-3.7-8.4-8.7-8.4zm4.9 8.5c0 2.8-2 5.1-4.9 5.1s-5-2.3-5-5.1 2-5.1 4.9-5.1c3-.1 5 2.2 5 5.1zm6.9-8.3v16.3h3.6v-5.2h2.8l3.5 5.2h4.2l-4-5.8c2.1-.7 3.5-2.4 3.5-5.1 0-1.6-.5-2.9-1.4-3.7-1.1-1.1-2.6-1.7-4.8-1.7h-7.4zm10 5.6c0 1.4-1 2.3-2.8 2.3H307v-4.7h3.6c1.7.1 2.8.8 2.8 2.4z" class="st0"/>
</svg>
