<?xml version="1.0" encoding="utf-8"?>
<svg xmlns="http://www.w3.org/2000/svg" role="img" viewBox="-5.02 -4.02 443.30 433.55">
<defs>
<style>.cls-2{fill:#fff}</style>
</defs>
<path fill="none" d="M103.88 256v48.69h225.8v-68.13h-225.8zm45.66 27.77c0 5.21-4 9.26-9.85 9.26h-7.23v-18.52h7.23c5.82 0 9.85 4 9.85 9.21zm17.73 9.23h-14.11v-18.49h14v3.63h-9.93v3.76h8.74v3.63h-8.74v3.89h10.06zm54.52 0h-13.32v-18.49h4.08v14.82h9.24zm20.88-9.26a9.85 9.85 0 0 1-19.69.05v-.05a9.85 9.85 0 0 1 19.69-.05zm35.41 9.26H264v-18.49h14v3.63h-10v3.76h8.74v3.63H268v3.89h10.06zm15.33-37v-8.24h3.76l6.27 8.24 2.41 3.17v-11.41h4v18.53h-3.45L298.56 256l-1.14-1.49v11.78h-4zm2.17 20.39a5.82 5.82 0 0 1 1.59 4.24v.05a5.75 5.75 0 0 1-4 5.74l4.53 6.62h-4.76l-4-5.93h-3.2V293h-4.04v-18.49h8.47a7.39 7.39 0 0 1 5.4 1.87zM270.09 257a9.86 9.86 0 0 1 .05-1 9.89 9.89 0 0 1 19.59 0v1a9.85 9.85 0 0 1-19.69.05zm-7.89-1v-8.24h4.08v18.53h-4.08zm-1.2 24.91v.09c0 4.29-3.34 6.51-7.49 6.51h-3.1V293h-4.08v-18.49h7.57c4.38 0 7.1 2.62 7.1 6.4zm-17.41-33.16h15.31v3.76h-5.64v14.77h-4.08v-14.77h-5.64zM229.13 256l3.56-8.37h3.76L240 256l4.38 10.29h-4.26l-1.69-4.16h-7.84l-1.69 4.16h-4.16zM206 257c0-.35 0-.69.05-1a9.39 9.39 0 0 1 9.61-8.56 9.56 9.56 0 0 1 7.34 2.86l-2.59 3a6.84 6.84 0 0 0-4.74-2.09 5.38 5.38 0 0 0-5.3 4.8 6.54 6.54 0 0 0-.08 1V257c0 3.18 2.2 5.82 5.37 5.82a6.69 6.69 0 0 0 4.87-2.17l2.59 2.62a9.47 9.47 0 0 1-7.6 3.31 9.35 9.35 0 0 1-9.5-9.53zm-2.47 24.87v3.63h-8.74v3.89h10.06V293h-14.11v-18.49h14v3.63h-9.93v3.76zM198.11 256v-8.24h4.08v18.53h-4.08zm-16.57 0v-8.24h4.08v14.82h9.24v3.71h-13.32zm2 18.51h4.39l-7.49 18.66h-3.6l-7.49-18.66h4.5l4.84 13zM163.86 256v-8.24h7.57c4.42 0 7.09 2.62 7.09 6.41v.05a7.1 7.1 0 0 1-.22 1.78c-.8 3.12-3.73 4.73-7.27 4.73h-3.1v5.56h-4.08zm-17.68 0v-8.24h7.57c4.42 0 7.09 2.62 7.09 6.41v.05a7.1 7.1 0 0 1-.22 1.78c-.8 3.12-3.73 4.73-7.27 4.73h-3.1v5.56h-4.08zm-18.12 0l3.56-8.37h3.76L139 256l4.38 10.29h-4.26l-1.69-4.16h-7.84l-1.69 4.16h-4.16zm192.22-34.39a6.15 6.15 0 0 1-2.4.33 15.7 15.7 0 0 1-3.28-.35 20.15 20.15 0 0 1-3.23-1l-1 5a19.36 19.36 0 0 0 7.5 1.33 12.09 12.09 0 0 0 6.86-1.65 5.53 5.53 0 0 0 2.43-4.88 8.33 8.33 0 0 0-.31-2.4 4.88 4.88 0 0 0-1.08-1.88 8 8 0 0 0-2.09-1.58 25.43 25.43 0 0 0-3.36-1.48q-1-.37-1.64-.69a7.06 7.06 0 0 1-1-.58 1.42 1.42 0 0 1-.5-.56 1.67 1.67 0 0 1-.12-.66q0-1.62 2.9-1.62a12.74 12.74 0 0 1 2.84.29 22.94 22.94 0 0 1 2.34.66l1.08-4.81a17.7 17.7 0 0 0-2.9-.77 20 20 0 0 0-3.81-.35 9.92 9.92 0 0 0-6.26 1.78 5.83 5.83 0 0 0-2.28 4.85 7.12 7.12 0 0 0 .46 2.69 5.61 5.61 0 0 0 1.29 1.93 7.75 7.75 0 0 0 2 1.39 28.55 28.55 0 0 0 2.63 1.12 17.36 17.36 0 0 1 2.78 1.26 1.58 1.58 0 0 1 .91 1.31 1.28 1.28 0 0 1-.76 1.32zm-190.46-17.04v12.15a17.24 17.24 0 0 0 .46 4.1 8.16 8.16 0 0 0 1.53 3.21 7 7 0 0 0 2.92 2.09 12.39 12.39 0 0 0 4.62.75 33.37 33.37 0 0 0 5.22-.39 34.36 34.36 0 0 0 4.06-.85v-21.06h-6.18v16.83q-.58.08-1.33.14t-1.41.06a3.13 3.13 0 0 1-2.94-1.33A8.83 8.83 0 0 1 136 216v-11.4zm81.28 4.92a11.1 11.1 0 0 1 1.39-.1 12.1 12.1 0 0 1 2.4.23q1.12.23 1.95.44l1-5.1a6.76 6.76 0 0 0-1.2-.35q-.71-.15-1.41-.25t-1.41-.17q-.71-.06-1.2-.06a22.56 22.56 0 0 0-5 .52 37.18 37.18 0 0 0-3.92 1.1v20.65h6.18v-16.68a8.19 8.19 0 0 1 1.22-.23zm95.7 6.88v-1.18q0-5.51-2.7-8.35a9.63 9.63 0 0 0-7.34-2.84 10.44 10.44 0 0 0-3.88.75 9.72 9.72 0 0 0-3.34 2.2 10.89 10.89 0 0 0-2.34 3.63 13.33 13.33 0 0 0-.89 5.08 14.2 14.2 0 0 0 .68 4.48 9.45 9.45 0 0 0 2.11 3.59 10 10 0 0 0 3.61 2.38 13.75 13.75 0 0 0 5.12.87 21.75 21.75 0 0 0 2.32-.12q1.16-.12 2.18-.31a17.48 17.48 0 0 0 1.84-.44 8.55 8.55 0 0 0 1.33-.5l-.83-5a12.62 12.62 0 0 1-2.67.77 17.89 17.89 0 0 1-3.34.31 7.17 7.17 0 0 1-4.23-1.12 4.1 4.1 0 0 1-1.78-3h14q.11-.57.15-1.2zm-14.09-3.09a8.7 8.7 0 0 1 .39-1.55 4.2 4.2 0 0 1 .77-1.35 3.69 3.69 0 0 1 1.24-.93 4.15 4.15 0 0 1 1.78-.35 3.93 3.93 0 0 1 1.8.37 3.77 3.77 0 0 1 1.2 1 3.84 3.84 0 0 1 .71 1.33 6.46 6.46 0 0 1 .27 1.53zM240 226.38v-12.31a16.78 16.78 0 0 0-.46-4.06 8 8 0 0 0-1.53-3.15 6.94 6.94 0 0 0-2.92-2.05 12.73 12.73 0 0 0-4.62-.73 33.37 33.37 0 0 0-5.22.39 34.5 34.5 0 0 0-4.06.85v21.06h6.18v-16.83q.58-.08 1.33-.14t1.41-.06a3.21 3.21 0 0 1 2.94 1.24 8.33 8.33 0 0 1 .79 4.23v11.57zm-41.11-10.01v-1.18q0-5.51-2.69-8.35a9.63 9.63 0 0 0-7.3-2.84 10.44 10.44 0 0 0-3.88.75 9.73 9.73 0 0 0-3.34 2.2 10.89 10.89 0 0 0-2.34 3.63 13.33 13.33 0 0 0-.89 5.08 14.2 14.2 0 0 0 .68 4.48 9.46 9.46 0 0 0 2.11 3.59 10 10 0 0 0 3.61 2.38 13.75 13.75 0 0 0 5.15.89 21.76 21.76 0 0 0 2.32-.12q1.16-.12 2.18-.31a17.49 17.49 0 0 0 1.85-.44 8.56 8.56 0 0 0 1.33-.5l-.83-5a12.61 12.61 0 0 1-2.67.77 17.88 17.88 0 0 1-3.34.31 7.17 7.17 0 0 1-4.23-1.12 4.1 4.1 0 0 1-1.78-3h14q.02-.59.06-1.22zm-14.1-3.09a8.83 8.83 0 0 1 .39-1.55 4.18 4.18 0 0 1 .77-1.35 3.7 3.7 0 0 1 1.24-.93 4.15 4.15 0 0 1 1.78-.35 3.93 3.93 0 0 1 1.8.37 3.76 3.76 0 0 1 1.2 1 3.84 3.84 0 0 1 .71 1.33 6.43 6.43 0 0 1 .27 1.53zm-30.34-18.07v30.47q.83.25 1.91.48t2.26.39q1.18.17 2.4.27t2.34.1a13.39 13.39 0 0 0 4.81-.81 9.75 9.75 0 0 0 3.57-2.3 10 10 0 0 0 2.26-3.61 13.79 13.79 0 0 0 .77-4.73 16.36 16.36 0 0 0-.62-4.66 10.34 10.34 0 0 0-1.82-3.59 8 8 0 0 0-3-2.3 9.84 9.84 0 0 0-4.1-.81 11.06 11.06 0 0 0-2.4.25 11.6 11.6 0 0 0-2.16.7v-10.85zm7.69 14.39a7.28 7.28 0 0 1 1.89-.25q4.39 0 4.39 6a7.57 7.57 0 0 1-1.29 4.6 4.44 4.44 0 0 1-3.81 1.74q-.83 0-1.53-.06t-1.16-.15v-11.27a5.37 5.37 0 0 1 1.51-.62zM265 216.37v-1.18q0-5.51-2.7-8.35A9.63 9.63 0 0 0 255 204a10.44 10.44 0 0 0-3.88.75 9.72 9.72 0 0 0-3.34 2.2 10.89 10.89 0 0 0-2.34 3.63 13.33 13.33 0 0 0-.89 5.08 14.2 14.2 0 0 0 .68 4.48 9.45 9.45 0 0 0 2.11 3.59 10 10 0 0 0 3.61 2.38 13.75 13.75 0 0 0 5.12.87 21.75 21.75 0 0 0 2.32-.12q1.16-.12 2.18-.31a17.48 17.48 0 0 0 1.84-.44 8.55 8.55 0 0 0 1.33-.5l-.83-5a12.62 12.62 0 0 1-2.67.77 17.89 17.89 0 0 1-3.34.31 7.17 7.17 0 0 1-4.23-1.12 4.1 4.1 0 0 1-1.78-3h14q.11-.57.11-1.2zm-14.09-3.09a8.7 8.7 0 0 1 .39-1.55 4.2 4.2 0 0 1 .77-1.35 3.69 3.69 0 0 1 1.24-.93 4.15 4.15 0 0 1 1.78-.35 3.93 3.93 0 0 1 1.8.37 3.77 3.77 0 0 1 1.2 1 3.84 3.84 0 0 1 .71 1.33 6.46 6.46 0 0 1 .27 1.53zm18.7-14.14v18.32a17.43 17.43 0 0 0 .39 3.86 7.09 7.09 0 0 0 1.39 3 6.57 6.57 0 0 0 2.65 1.91 11.05 11.05 0 0 0 4.19.68 14.52 14.52 0 0 0 3.36-.33 17.43 17.43 0 0 0 2.49-.79l-.87-4.81a10.53 10.53 0 0 1-1.93.52 11.74 11.74 0 0 1-2.05.19 2.94 2.94 0 0 1-2.76-1.16 6.1 6.1 0 0 1-.68-3.11v-7.67h7.42v-5.14h-7.42v-6.43zm-163.17-3.93v31.18h6.18v-9.56a16.91 16.91 0 0 1 2.09 2q1.06 1.21 2 2.51t1.8 2.62q.85 1.31 1.51 2.39h7.1q-.71-1.37-1.74-3t-2.27-3.35q-1.24-1.66-2.57-3.22a28.56 28.56 0 0 0-2.57-2.68q2.49-2.44 4.58-4.74t4.29-4.82h-7.35l-1.39 1.65-1.72 2q-.91 1.05-1.88 2.12l-1.88 2.06v-18.2zm-2.56-7.31h225.8v-49.21h-225.8zm189-35.72h10c8 0 13.6 5.52 13.6 12.72v.1c0 7.2-5.56 12.8-13.6 12.8h-10zm-24.49 0h19.3v5H274v5.19h12v5h-12v5.37h13.89v5h-19.52zm-12 0H262v25.59h-5.63zm-24.24 0h19.45v5.12h-13.86v5.45H250v5.12h-12.26v9.91h-5.63zm-12 0h5.63v25.59h-5.63zm-25.77 0h21.2v5.19h-7.79v20.4h-5.69v-20.4h-7.79zm-24.6 0h11.7c3.25 0 5.78.91 7.46 2.6a8 8 0 0 1 2.19 5.85v.07a8 8 0 0 1-5.48 7.93l6.25 9.14h-6.58l-5.48-8.19h-4.42v8.19h-5.63zm-24.49 0h19.3v5h-13.77v5.19h12.06v5h-12.06v5.37h13.89v5h-19.49zM117.11 165a13 13 0 0 1 13.34-13.23 13.2 13.2 0 0 1 10.09 3.95l-3.54 4.1a9.44 9.44 0 0 0-6.54-2.89c-4.31 0-7.42 3.58-7.42 8v.07c0 4.39 3 8 7.42 8 2.92 0 4.72-1.17 6.73-3l3.58 3.62a13.08 13.08 0 0 1-10.49 4.57A12.92 12.92 0 0 1 117.11 165zm84.5-66.56a128.26 128.26 0 0 0-12.9 2.23 124.86 124.86 0 0 0-51.44 25h62.81zm94.18 27.25a125.66 125.66 0 0 0-63.84-27.25l1.54 27.25z"/>
<path d="M419.5 256.72c-1-.23-2.51-.64-3.52-.83-4.22-.8-7.64-.6-11.61-.93-8.46-.89-15.47-1.61-21.7-3.57-2.54-1-4.34-4-5.22-5.25l-4.89-1.42a157.24 157.24 0 0 0-25.22-108.94c1.25-1.14 3.62-3.24 4.29-3.86.2-2.17 0-4.45 2.28-6.85 4.76-4.47 10.76-8.18 18-12.65 3.43-2 6.61-3.32 10.06-5.87.78-.58 1.84-1.49 2.66-2.15 5.81-4.63 7.14-12.62 3-17.85s-12.25-5.72-18.05-1.08c-.83.65-1.95 1.51-2.69 2.15-3.25 2.8-5.26 5.56-8 8.46-6 6.06-10.9 11.12-16.32 14.77-2.35 1.37-5.79.89-7.35.8l-4.6 3.29a158.64 158.64 0 0 0-100.51-48.57c-.11-1.61-.25-4.53-.28-5.4-1.58-1.51-3.48-2.8-4-6.05-.53-6.51.35-13.51 1.37-22 .56-3.95 1.5-7.23 1.65-11.51v-3.44c0-7.42-5.42-13.45-12.1-13.45s-12.11 6-12.11 13.45v.34c0 1-.06 2.22 0 3.1.16 4.28 1.09 7.56 1.65 11.51 1 8.45 1.87 15.45 1.35 22a13.2 13.2 0 0 1-3.93 6.26l-.28 5.12a157.8 157.8 0 0 0-21.88 3.36 155.71 155.71 0 0 0-79.1 45.19c-1.34-.91-3.67-2.59-4.37-3.1-2.16.29-4.35 1-7.19-.7-5.42-3.65-10.35-8.68-16.32-14.74-2.74-2.9-4.72-5.66-8-8.46-.74-.63-1.86-1.49-2.69-2.15a14.4 14.4 0 0 0-8.43-3.18 11.65 11.65 0 0 0-9.65 4.27C41.68 92 43 100 48.82 104.63l.18.13c.8.65 1.78 1.47 2.51 2 3.45 2.55 6.6 3.85 10 5.87 7.24 4.47 13.24 8.18 18 12.65 1.86 2 2.18 5.47 2.43 7l3.88 3.46a156.66 156.66 0 0 0-24.7 109.21l-5.07 1.47c-1.34 1.73-3.22 4.44-5.2 5.25-6.23 2-13.24 2.68-21.7 3.57-4 .33-7.4.13-11.62.93-.92.17-2.22.51-3.23.75h-.28c-7.13 1.73-11.72 8.29-10.24 14.74s8.44 10.39 15.62 8.85h.18l.23-.08c1-.22 2.25-.46 3.13-.7 4.14-1.11 7.14-2.74 10.86-4.17 8-2.87 14.64-5.27 21.1-6.21 2.7-.21 5.55 1.67 7 2.46l5.28-.91a156.46 156.46 0 0 0 23.7 45.81v.91h.69A158.66 158.66 0 0 0 137 358.14l-2.2 5.28c.79 2 1.67 4.82 1.08 6.85-2.35 6.09-6.38 12.52-11 19.69-2.22 3.31-4.49 5.88-6.49 9.68-.48.91-1.09 2.3-1.55 3.26-3.11 6.66-.83 14.33 5.15 17.2s13.48-.16 16.71-6.83c.46-.95 1.12-2.19 1.5-3.08 1.71-3.93 2.28-7.3 3.49-11.09 3.2-8 5-16.49 9.37-21.75 1.21-1.44 3.18-2 5.22-2.54l2.74-5a156.63 156.63 0 0 0 111.71.29c.77 1.37 2.2 4 2.59 4.66 2.07.68 4.34 1 6.18 3.75 3.3 5.63 5.55 12.3 8.3 20.36 1.21 3.8 1.8 7.17 3.52 11.09.39.9 1 2.16 1.5 3.1 3.22 6.69 10.71 9.76 16.74 6.85s8.26-10.54 5.15-17.2c-.46-1-1.1-2.35-1.58-3.26-2-3.79-4.27-6.34-6.49-9.65-4.58-7.17-8.38-13.13-10.73-19.22-1-3.14.17-5.1.93-7.14a41.1 41.1 0 0 1-2-4.89 156.55 156.55 0 0 0 45.56-40.84h.24v-.32a158 158 0 0 0 24-46.62c1.56.25 4.29.73 5.17.91 1.82-1.2 3.49-2.77 6.78-2.51 6.46.93 13.1 3.33 21.11 6.21 3.72 1.43 6.72 3.08 10.86 4.19.88.23 2.13.45 3.13.67l.23.08h.18c7.18 1.54 14.15-2.38 15.62-8.85s-3.08-13.03-10.22-14.75zm-123.71-131h-62.3l-1.54-27.25a125.66 125.66 0 0 1 63.84 27.22zm-107.09-25a128.26 128.26 0 0 1 12.9-2.23l-1.54 27.25h-62.8a124.86 124.86 0 0 1 51.44-25.07zm-39.5 227.9a126.45 126.45 0 0 1-14.52-10.89h19zm95.68 16.74a125.16 125.16 0 0 1-68.31-3.52l13.33-24.11h53.91l13.38 24.19q-5.99 1.96-12.31 3.39zm39.7-16.5L280 317.68h19.44a124.07 124.07 0 0 1-14.85 11.13zm45.1-72.86v48.69h-225.8v-68.13h225.8zM114.5 210.35q1-1.07 1.88-2.12l1.72-2 1.39-1.65h7.35q-2.2 2.52-4.29 4.82t-4.55 4.73a28.56 28.56 0 0 1 2.57 2.68q1.33 1.56 2.57 3.22t2.28 3.32q1 1.66 1.74 3H120q-.66-1.08-1.51-2.39t-1.8-2.62q-1-1.31-2-2.51a16.91 16.91 0 0 0-2.09-2v9.56h-6.18v-31.18l6.18-1v18.2zm22.29 9.94a3.13 3.13 0 0 0 2.94 1.33q.66 0 1.41-.06t1.33-.14v-16.85h6.18v21.06a34.36 34.36 0 0 1-4.06.85 33.37 33.37 0 0 1-5.22.39 12.39 12.39 0 0 1-4.62-.75 7 7 0 0 1-2.92-2.09 8.16 8.16 0 0 1-1.53-3.21 17.24 17.24 0 0 1-.46-4.1v-12.15H136V216a8.83 8.83 0 0 0 .79 4.29zm26-15.92a11.06 11.06 0 0 1 2.4-.25 9.84 9.84 0 0 1 4.1.81 8 8 0 0 1 3 2.3 10.34 10.34 0 0 1 1.82 3.59 16.36 16.36 0 0 1 .62 4.66 13.79 13.79 0 0 1-.77 4.73 10 10 0 0 1-2.22 3.61 9.75 9.75 0 0 1-3.57 2.3 13.39 13.39 0 0 1-4.81.81q-1.12 0-2.34-.1t-2.4-.27q-1.18-.17-2.26-.39t-1.91-.48v-30.48l6.18-1v10.86a11.6 11.6 0 0 1 2.15-.7zm23.8 16.17a7.17 7.17 0 0 0 4.23 1.12 17.88 17.88 0 0 0 3.34-.31 12.61 12.61 0 0 0 2.67-.77l.83 5a8.56 8.56 0 0 1-1.33.5 17.49 17.49 0 0 1-1.85.44q-1 .19-2.18.31a21.76 21.76 0 0 1-2.3.17 13.75 13.75 0 0 1-5.12-.87 10 10 0 0 1-3.61-2.38 9.46 9.46 0 0 1-2.11-3.59 14.2 14.2 0 0 1-.68-4.48 13.33 13.33 0 0 1 .89-5.08 10.89 10.89 0 0 1 2.34-3.63 9.73 9.73 0 0 1 3.34-2.2 10.44 10.44 0 0 1 3.88-.75 9.63 9.63 0 0 1 7.34 2.84q2.69 2.84 2.69 8.35v1.18q0 .64-.08 1.14h-14a4.1 4.1 0 0 0 1.7 3.01zm17.12 5.85v-20.65a37.18 37.18 0 0 1 3.92-1.1 22.56 22.56 0 0 1 5-.52q.5 0 1.2.06t1.41.17q.7.1 1.41.25a6.76 6.76 0 0 1 1.2.35l-1 5.1q-.83-.21-1.95-.44a12.1 12.1 0 0 0-2.4-.23 11.1 11.1 0 0 0-1.39.1 8.19 8.19 0 0 0-1.22.23v16.67zm29.29-15.8a3.21 3.21 0 0 0-2.94-1.24q-.66 0-1.41.06t-1.33.14v16.83h-6.18v-21.06a34.5 34.5 0 0 1 4.06-.85 33.37 33.37 0 0 1 5.22-.39 12.73 12.73 0 0 1 4.62.73 6.94 6.94 0 0 1 2.92 2.05 8 8 0 0 1 1.53 3.15 16.78 16.78 0 0 1 .46 4.06v12.31h-6.18v-11.56a8.33 8.33 0 0 0-.77-4.23zm19.65 9.95a7.17 7.17 0 0 0 4.23 1.12 17.89 17.89 0 0 0 3.34-.31 12.62 12.62 0 0 0 2.67-.77l.83 5a8.55 8.55 0 0 1-1.33.5 17.48 17.48 0 0 1-1.84.44q-1 .19-2.18.31a21.75 21.75 0 0 1-2.32.12 13.75 13.75 0 0 1-5.12-.87 10 10 0 0 1-3.61-2.38 9.45 9.45 0 0 1-2.11-3.59 14.2 14.2 0 0 1-.68-4.48 13.33 13.33 0 0 1 .89-5.08 10.89 10.89 0 0 1 2.34-3.63 9.72 9.72 0 0 1 3.34-2.2 10.44 10.44 0 0 1 3.9-.72 9.63 9.63 0 0 1 7.34 2.84q2.7 2.84 2.7 8.35v1.18q0 .64-.08 1.14h-14a4.1 4.1 0 0 0 1.74 3.03zm30.51-16v5.14h-7.42v7.67a6.1 6.1 0 0 0 .68 3.11 2.94 2.94 0 0 0 2.76 1.16 11.74 11.74 0 0 0 2.05-.19 10.53 10.53 0 0 0 1.93-.52l.87 4.81a17.43 17.43 0 0 1-2.49.79 14.52 14.52 0 0 1-3.36.33 11.05 11.05 0 0 1-4.19-.68 6.57 6.57 0 0 1-2.65-1.91 7.09 7.09 0 0 1-1.39-3 17.43 17.43 0 0 1-.39-3.86v-18.25l6.18-1v6.43zm11.28 16a7.17 7.17 0 0 0 4.23 1.12 17.89 17.89 0 0 0 3.34-.31 12.62 12.62 0 0 0 2.67-.77l.83 5a8.55 8.55 0 0 1-1.33.5 17.48 17.48 0 0 1-1.84.44q-1 .19-2.18.31a21.75 21.75 0 0 1-2.32.12 13.75 13.75 0 0 1-5.12-.87 10 10 0 0 1-3.61-2.38 9.45 9.45 0 0 1-2.11-3.59 14.2 14.2 0 0 1-.68-4.48 13.33 13.33 0 0 1 .89-5.08 10.89 10.89 0 0 1 2.34-3.63 9.72 9.72 0 0 1 3.34-2.2 10.44 10.44 0 0 1 3.88-.75 9.63 9.63 0 0 1 7.34 2.84q2.7 2.84 2.7 8.35v1.18q0 .64-.08 1.14h-14a4.1 4.1 0 0 0 1.76 3.06zm25.63-1.54a17.36 17.36 0 0 0-2.78-1.26 28.55 28.55 0 0 1-2.63-1.12 7.75 7.75 0 0 1-2-1.39 5.61 5.61 0 0 1-1.29-1.93 7.12 7.12 0 0 1-.46-2.69 5.83 5.83 0 0 1 2.28-4.85 9.92 9.92 0 0 1 6.26-1.78 20 20 0 0 1 3.81.35 17.7 17.7 0 0 1 2.9.77l-1.08 4.81a22.94 22.94 0 0 0-2.34-.66 12.74 12.74 0 0 0-2.84-.29q-2.9 0-2.9 1.62a1.67 1.67 0 0 0 .13.66 1.42 1.42 0 0 0 .5.56 7.06 7.06 0 0 0 1 .58q.64.31 1.64.69a25.43 25.43 0 0 1 3.36 1.48 8 8 0 0 1 2.09 1.58 4.88 4.88 0 0 1 1.08 1.87 8.33 8.33 0 0 1 .31 2.4 5.53 5.53 0 0 1-2.43 4.88 12.09 12.09 0 0 1-6.86 1.65 19.36 19.36 0 0 1-7.5-1.33l1-5a20.15 20.15 0 0 0 3.23 1 15.7 15.7 0 0 0 3.28.35 6.15 6.15 0 0 0 2.4-.33 1.28 1.28 0 0 0 .71-1.29 1.58 1.58 0 0 0-.87-1.33zm9.61-31.13h-225.8v-49.18h225.8z" class="cls-2"/>
<path d="M130.24 178.21a13.08 13.08 0 0 0 10.49-4.57l-3.58-3.64c-2 1.83-3.8 3-6.73 3-4.39 0-7.42-3.66-7.42-8v-.07c0-4.39 3.11-8 7.42-8a9.44 9.44 0 0 1 6.54 2.89l3.58-4.13a13.2 13.2 0 0 0-10.09-3.95A13 13 0 0 0 117.11 165a12.92 12.92 0 0 0 13.13 13.21zm34.47-5.45h-13.89v-5.37h12.06v-5.01h-12.06v-5.19h13.71v-5.01h-19.31v25.59h19.49v-5.01zm10.63-3.18h4.42l5.48 8.19h6.58l-6.25-9.14a8 8 0 0 0 5.48-7.93v-.07a8 8 0 0 0-2.19-5.85c-1.68-1.68-4.2-2.6-7.46-2.6h-11.7v25.59h5.63zm0-12.32h5.59c2.74 0 4.42 1.24 4.42 3.66v.08c0 2.16-1.57 3.62-4.31 3.62h-5.7zm26.76 20.51h5.63v-20.4h7.79v-5.19h-21.21v5.19h7.79v20.4zm17.99-25.59h5.63v25.59h-5.63zm17.65 15.68h12.21v-5.12h-12.21v-5.44h13.86v-5.12h-19.49v25.59h5.63v-9.91zm18.61-15.68h5.63v25.59h-5.63zm31.51 20.58h-13.89v-5.37h12.06v-5.01h-12.06v-5.19h13.71v-5.01h-19.31v25.59h19.49v-5.01zm28.58-7.76v-.07c0-7.2-5.56-12.72-13.6-12.72h-10v25.59h10c8.05-.03 13.6-5.62 13.6-12.8zm-17.95-7.71h4.35a7.35 7.35 0 0 1 7.71 7.71 7.29 7.29 0 0 1-7.71 7.64h-4.34zm1.41 53.13a3.77 3.77 0 0 0-1.2-1 3.93 3.93 0 0 0-1.8-.37 4.15 4.15 0 0 0-1.78.35 3.69 3.69 0 0 0-1.24.93 4.2 4.2 0 0 0-.77 1.35 8.7 8.7 0 0 0-.39 1.55h8.17a6.46 6.46 0 0 0-.27-1.53 3.84 3.84 0 0 0-.72-1.28zm-107.9 0a3.76 3.76 0 0 0-1.2-1 3.93 3.93 0 0 0-1.8-.37 4.15 4.15 0 0 0-1.78.35 3.7 3.7 0 0 0-1.24.93 4.18 4.18 0 0 0-.77 1.35 8.83 8.83 0 0 0-.39 1.55H193a6.43 6.43 0 0 0-.27-1.53 3.84 3.84 0 0 0-.73-1.28zm66.11 0a3.77 3.77 0 0 0-1.2-1 3.93 3.93 0 0 0-1.8-.37 4.15 4.15 0 0 0-1.78.35 3.69 3.69 0 0 0-1.24.93 4.2 4.2 0 0 0-.77 1.35 8.7 8.7 0 0 0-.39 1.55h8.17a6.46 6.46 0 0 0-.27-1.53 3.84 3.84 0 0 0-.72-1.28zm-97.49 11.03q.46.08 1.16.15t1.53.06a4.44 4.44 0 0 0 3.81-1.74 7.57 7.57 0 0 0 1.29-4.6q0-6-4.39-6a7.28 7.28 0 0 0-1.89.25 5.37 5.37 0 0 0-1.51.62zm-31.08 40.68h7.84l1.69 4.16h4.26L139 256l-3.56-8.37h-3.76l-3.61 8.37-4.38 10.29h4.16zM132 256l1.42-3.48 1.42 3.48 1 2.53H131zm18.26 4.73h3.1c3.53 0 6.46-1.61 7.27-4.73a7.1 7.1 0 0 0 .22-1.78v-.05c0-3.79-2.67-6.41-7.09-6.41h-7.57v18.53h4.08zm0-4.73v-4.56h3.15c2 0 3.31 1 3.31 2.81v.05a2.67 2.67 0 0 1-.59 1.7 3.26 3.26 0 0 1-2.64 1.1h-3.23zm17.68 4.73H171c3.53 0 6.46-1.61 7.27-4.73a7.1 7.1 0 0 0 .22-1.78v-.05c0-3.79-2.67-6.41-7.09-6.41h-7.57v18.53h4.08zm0-4.73v-4.56h3.15c2 0 3.31 1 3.31 2.81v.05a2.67 2.67 0 0 1-.59 1.7 3.26 3.26 0 0 1-2.64 1.1h-3.23zm26.91 6.58h-9.23v-14.83h-4.08v18.53h13.31v-3.7zm7.33-6.58v-8.25h-4.07v18.53h4.07V256zm13.31 10.6a9.47 9.47 0 0 0 7.6-3.31l-2.59-2.62a6.69 6.69 0 0 1-4.87 2.17c-3.18 0-5.37-2.65-5.37-5.82V257a6.54 6.54 0 0 1 .08-1 5.38 5.38 0 0 1 5.3-4.8 6.84 6.84 0 0 1 4.74 2.09l2.59-3a9.56 9.56 0 0 0-7.31-2.86A9.39 9.39 0 0 0 206 256c0 .34-.05.68-.05 1v.05a9.35 9.35 0 0 0 9.54 9.55zm15.12-4.47h7.84l1.69 4.16h4.26L240 256l-3.56-8.37h-3.74l-3.57 8.37-4.38 10.29h4.16zm2.49-6.13l1.42-3.48 1.42 3.48 1 2.53h-4.92zm16.08 0v10.28h4.08v-14.77h5.64v-3.76h-15.36v3.76h5.64V256zm17.1 0v-8.25h-4.08v18.53h4.08V256zm13.63 10.6a9.58 9.58 0 0 0 9.87-9.58V256a9.89 9.89 0 0 0-19.59 0 9.86 9.86 0 0 0-.05 1v.05a9.49 9.49 0 0 0 9.77 9.55zm-5.56-9.6a6.44 6.44 0 0 1 .08-1 5.47 5.47 0 0 1 5.48-4.8 5.56 5.56 0 0 1 5.52 4.8 6.35 6.35 0 0 1 .09 1v.05a5.54 5.54 0 0 1-5.56 5.77 5.63 5.63 0 0 1-5.61-5.82zm23.08-1v-1.5l1.13 1.5 7.84 10.28h3.47v-18.53h-4.02v11.41l-2.41-3.16-6.28-8.25h-3.76v18.53h4.03V256zm-157.74 18.51h-7.23V293h7.23c5.82 0 9.85-4 9.85-9.26v-.05c0-5.19-4.02-9.18-9.85-9.18zm5.59 9.32a5.28 5.28 0 0 1-5.59 5.53h-3.15v-11.18h3.15a5.32 5.32 0 0 1 5.59 5.59zm11.93 1.69h8.74v-3.63h-8.74v-3.76h9.93v-3.62h-13.98v18.53h14.11v-3.63h-10.06v-3.89zm12.09-11.01l7.49 18.66h3.61l7.49-18.66h-4.4l-4.84 13.05-4.85-13.05h-4.5zm35.42 3.62v-3.62h-13.98v18.53h14.11v-3.63h-10.06v-3.89h8.74v-3.63h-8.74v-3.76h9.93zm7.83-3.62h-4.08v18.53h13.32v-3.71h-9.24v-14.82zm20.3-.32a9.58 9.58 0 0 0-9.87 9.58v.05a9.85 9.85 0 0 0 19.69-.05v-.05a9.49 9.49 0 0 0-9.82-9.53zm5.56 9.64a5.54 5.54 0 0 1-5.56 5.77 5.63 5.63 0 0 1-5.61-5.82v-.05a5.54 5.54 0 0 1 5.56-5.77 5.63 5.63 0 0 1 5.61 5.82zm7.88-9.32V293h4.08v-5.56h3.1c4.16 0 7.49-2.22 7.49-6.51v-.05c0-3.79-2.67-6.41-7.09-6.41zm10.53 6.49c0 1.59-1.19 2.81-3.23 2.81h-3.23v-5.66h3.15c2.04.03 3.31 1.01 3.31 2.85zm11.2 4.52h8.73v-3.63h-8.73v-3.76h9.92v-3.62h-13.97v18.53h14.11v-3.63h-10.06v-3.89zM281.7 293h4.08v-5.93H289l4 5.93h4.76l-4.53-6.62a5.75 5.75 0 0 0 4-5.74v-.05a5.82 5.82 0 0 0-1.59-4.24 7.39 7.39 0 0 0-5.4-1.88h-8.54zm4.08-14.85h4c2 0 3.2.9 3.2 2.65v.05c0 1.56-1.14 2.62-3.12 2.62h-4.13z" class="cls-2"/>
</svg>
