<svg id="Layer_1" data-name="Layer 1" xmlns="http://www.w3.org/2000/svg" xmlns:xlink="http://www.w3.org/1999/xlink" viewBox="0 0 215 127"><defs><style>.cls-1{fill:#fbfbfb;}.cls-2,.cls-3{fill-rule:evenodd;}.cls-2{fill:url(#linear-gradient);}.cls-3{fill:#fff;}.cls-4{fill:#0072bc;}</style><linearGradient id="linear-gradient" x1="113.16584" y1="109.70976" x2="113.16584" y2="24.03158" gradientTransform="matrix(1, 0, 0, -1, 0, 130.69843)" gradientUnits="userSpaceOnUse"><stop offset="0" stop-color="#00b9f2"/><stop offset="0.205" stop-color="#00a3e1"/><stop offset="0.515" stop-color="#0088cd"/><stop offset="0.79" stop-color="#0078c0"/><stop offset="1" stop-color="#0072bc"/></linearGradient></defs><title>kubernetes.io-logos2</title><rect class="cls-1" x="-3.35417" y="-4.36563" width="223.25536" height="134.51136"/><path class="cls-2" d="M26.56814,106.66686H114.0994l85.66414-85.67819H26.56814v85.67819"/><path class="cls-3" d="M129.351,37.09889l-17.04846-.0103V77.62492L97.40957,37.08859h-14.767L69.92668,70.9884c-1.354-8.54717-10.19611-11.49954-17.15286-13.71218-4.59336-1.47478-9.46669-3.64434-9.42221-6.04238.03839-1.96872,2.61434-3.797,7.71848-3.52169,3.43179.18166,6.45626.45883,12.478,3.3625l5.92253-10.3141a46.10121,46.10121,0,0,0-19.3126-4.57041h-.03652c-7.25639,0-13.30392,2.35075-17.05221,6.22592a14.38121,14.38121,0,0,0-4.07929,9.9447,13.345,13.345,0,0,0,5.85371,11.90171,39.8171,39.8171,0,0,0,11.59318,5.30265c4.73334,1.46682,8.59586,2.74122,8.55139,5.4609a4.01425,4.01425,0,0,1-1.12178,2.66163c-1.17935,1.21681-2.99169,1.67423-5.49554,1.72058-4.82885.10253-8.41093-.65452-14.11576-4.02545L28.99005,85.842a39.37711,39.37711,0,0,0,19.29949,5.13317l.88487-.0103A23.27906,23.27906,0,0,0,63.844,86.04615c.22145-.17464.4209-.35489.625-.53654l-1.71075,4.56714H78.24585l2.59936-7.90529a28.27221,28.27221,0,0,0,9.10384,1.44388,28.668,28.668,0,0,0,8.88519-1.3657l2.50526,7.82711h25.25666V73.71043h5.50773c13.31609,0,21.19095-6.78211,21.19095-18.14448,0-12.6583-7.65153-18.46706-23.94388-18.46706ZM89.94858,71.78479a15.53362,15.53362,0,0,1-5.46231-.9551L89.88959,53.7803h.10253l5.31014,17.09715a16.07371,16.07371,0,0,1-5.35322.90687Zm40.4029-9.79582h-3.75484V48.251h3.75484c5.00957,0,9.00318,1.66393,9.00318,6.77837,0,5.29282-3.99361,6.96-9.00318,6.96"/><path class="cls-4" d="M134.86056,101.02945a4.4946,4.4946,0,1,1-.00225.16481q-.00037-.08243.00225-.16481Zm4.5133,5.55922a5.537,5.537,0,1,0-.11885.00077Q139.31444,106.5897,139.37386,106.58867Zm-1.17374-5.11913h1.11475l1.67609,2.76462h1.09415l-1.83013-2.81144A1.66065,1.66065,0,0,0,141.92453,99.66c0-1.25192-.75-1.8128-2.25478-1.8128h-2.43456v6.387h.96493Zm0-.82448v-1.979h1.31935c.66857,0,1.383.14185,1.383.93636,0,.994-.7285,1.04265-1.53892,1.04265Z"/></svg>