<svg id="Layer_1" data-name="Layer 1" xmlns="http://www.w3.org/2000/svg" viewBox="0 0 215 127"><defs><style>.cls-1{fill:#fbfbfb;}.cls-2{fill:#2d2a26;}.cls-3{fill:#7d77b7;}.cls-4{fill:#ce1141;}.cls-5{fill:#009ddd;}.cls-6{fill:#f47a3f;}.cls-7{fill:#62bb46;}.cls-8{fill:#febe10;}</style></defs><title>kubernetes.io-logos</title><rect class="cls-1" x="-3.55202" y="-3.16104" width="223.25536" height="134.51136"/><path class="cls-2" d="M55.45758,63.38456a13.5171,13.5171,0,1,0,13.51376,13.515A13.52915,13.52915,0,0,0,55.45758,63.38456Zm0,24.37138a10.85428,10.85428,0,1,1,10.857-10.85638A10.87113,10.87113,0,0,1,55.45758,87.75594Z"/><path class="cls-2" d="M171.99062,77.07207c-.72693-.38066-5.1347-2.65285-5.77024-2.98164-2.31351-1.17937-3.134-2.227-3.134-3.99876,0-2.45829,2.01913-4.04731,5.151-4.04731a10.02931,10.02931,0,0,1,4.65811,1.395,1.35062,1.35062,0,0,0,.64672.16139,1.32785,1.32785,0,0,0,.66238-2.47883,12.80669,12.80669,0,0,0-5.96721-1.73741c-4.599,0-7.81231,2.75934-7.81231,6.70711,0,3.54721,2.33072,5.22038,4.61289,6.3856.63763.32484,5.09881,2.62542,5.76844,2.97772a4.46184,4.46184,0,0,1,2.73581,3.89862c0,2.13465-1.8074,4.40384-5.15493,4.40384a10.0211,10.0211,0,0,1-6.48209-2.855l-.20571-.19969-1.96907,1.79233.23225.22922a12.61506,12.61506,0,0,0,8.42462,3.69442c4.88887,0,7.81111-3.59336,7.81111-7.06515A7.12542,7.12542,0,0,0,171.99062,77.07207Z"/><path class="cls-2" d="M27.74831,66.04738a10.7845,10.7845,0,0,1,7.67687,3.1762,1.39844,1.39844,0,0,0,1.88011,0,1.32506,1.32506,0,0,0,0-1.87767l-.16108-.16741a13.5269,13.5269,0,1,0,.55047,18.86116L35.8143,84.15594a10.85243,10.85243,0,1,1-8.066-18.10856Z"/><path class="cls-2" d="M119.36676,66.04738a10.78435,10.78435,0,0,1,7.67566,3.1762,1.40036,1.40036,0,0,0,1.88159,0,1.32136,1.32136,0,0,0,0-1.87767l-.16227-.16741a13.52616,13.52616,0,1,0,.552,18.86116l-1.88218-1.88372a10.85235,10.85235,0,1,1-8.06478-18.10856Z"/><path class="cls-2" d="M96.4737,63.38456a1.26776,1.26776,0,0,0-1.1082.73839c-.2181.41476-7.95227,19.54645-7.95258,19.54645,0,0-7.73479-19.13169-7.95316-19.54645a1.267,1.267,0,0,0-1.10789-.73839,1.25029,1.25029,0,0,0-1.1761.96915c-.15382.54294-4.51785,24.62385-4.51785,24.62385a1.26706,1.26706,0,0,0-.02353.24129,1.19944,1.19944,0,0,0,2.37686.22925l3.77888-20.6S86.08181,86.86249,86.296,87.29143a1.2006,1.2006,0,0,0,2.23327,0c.21417-.42894,7.50585-18.44338,7.50585-18.44338l3.92849,21.42051h2.4375s-4.5972-25.37191-4.751-25.91485A1.25082,1.25082,0,0,0,96.4737,63.38456Z"/><path class="cls-2" d="M144.52511,63.38456a1.27135,1.27135,0,0,0-1.11605.758c-.21837.42832-10.00942,24.60937-10.00942,24.60937a1.21412,1.21412,0,0,0-.09229.46692,1.198,1.198,0,0,0,2.31352.43888l3.8024-9.34973h10.20729l4.05395,9.96056h2.58922s-10.419-25.69768-10.63319-26.126A1.26312,1.26312,0,0,0,144.52511,63.38456Zm-4.01776,14.26213,4.01776-9.883,4.02257,9.883Z"/><path class="cls-2" d="M197.13782,64.85835a1.33185,1.33185,0,0,0-1.332-1.32961H180.75732a1.3287,1.3287,0,0,0,0,2.65739h6.30894V90.26856h2.4354V66.18613h6.30415A1.33186,1.33186,0,0,0,197.13782,64.85835Z"/><path class="cls-3" d="M116.06206,29.12533a5.73633,5.73633,0,0,1-.49861,5.11963L109.174,48.61779l-.054.06514-2.31053-14.57869c-.18427-1.39926,1.31271-1.99622,2.19139-2.66854-.04373-.20633-.27146-.19518-.41265-.2929l-2.15819-.022-.06514-.06487a4.94419,4.94419,0,0,1,2.636-4.36057,5.12476,5.12476,0,0,1,5.65138.553A5.32954,5.32954,0,0,1,116.06206,29.12533Z"/><path class="cls-4" d="M104.29294,28.62613a5.1566,5.1566,0,0,1,.64,3.27588l-2.60339,16.69376c.01056.022-.01085.04389-.03228.05461l-.67294-1.345L95.09431,32.72685a5.06253,5.06253,0,0,1,6.76866-6.20491A5.4244,5.4244,0,0,1,104.29294,28.62613Z"/><path class="cls-5" d="M125.50952,35.65509a5.12575,5.12575,0,0,1-.29287,5.15267,8.54241,8.54241,0,0,1-2.45109,2.10463l-13.52643,9.285h-.03259l.152-.44478,7.16983-16.18412a5.1622,5.1622,0,0,1,5.29364-2.58183A5.22333,5.22333,0,0,1,125.50952,35.65509Z"/><path class="cls-6" d="M94.78,35.56854l7.4627,16.6289h-.11916L87.07826,41.827a4.96079,4.96079,0,0,1-1.63774-5.17408A5.07442,5.07442,0,0,1,94.78,35.56854Z"/><path class="cls-7" d="M129.4368,47.39209a5.12788,5.12788,0,0,1-.61867,5.09822,5.06429,5.06429,0,0,1-4.1544,1.95233l-16.043.01087,13.43957-9.35035a5.19275,5.19275,0,0,1,4.74048-.31474A5.26886,5.26886,0,0,1,129.4368,47.39209Z"/><path class="cls-8" d="M81.93661,47.39209a5.12816,5.12816,0,0,0,.61821,5.09822,5.06593,5.06593,0,0,0,4.15483,1.95233l16.04316.01087L89.31305,45.10316a5.19268,5.19268,0,0,0-4.74046-.31474A5.2689,5.2689,0,0,0,81.93661,47.39209Z"/></svg>