<?xml version="1.0" encoding="UTF-8" standalone="no"?>
<svg
   version="1.1"
   viewBox="0.0 0.0 800.0 600.0"
   fill="none"
   stroke="none"
   stroke-linecap="square"
   stroke-miterlimit="10"
   id="svg673"
   sodipodi:docname="kubeadm-ha-topology-stacked-etcd.svg"
   inkscape:version="1.2.2 (b0a8486, 2022-12-01)"
   xmlns:inkscape="http://www.inkscape.org/namespaces/inkscape"
   xmlns:sodipodi="http://sodipodi.sourceforge.net/DTD/sodipodi-0.dtd"
   xmlns="http://www.w3.org/2000/svg"
   xmlns:svg="http://www.w3.org/2000/svg">
  <defs
     id="defs677" />
  <sodipodi:namedview
     id="namedview675"
     pagecolor="#ffffff"
     bordercolor="#000000"
     borderopacity="0.25"
     inkscape:showpageshadow="2"
     inkscape:pageopacity="0.0"
     inkscape:pagecheckerboard="0"
     inkscape:deskcolor="#d1d1d1"
     showgrid="false"
     inkscape:zoom="1.1125147"
     inkscape:cx="395.05097"
     inkscape:cy="269.20993"
     inkscape:window-width="1631"
     inkscape:window-height="923"
     inkscape:window-x="0"
     inkscape:window-y="25"
     inkscape:window-maximized="0"
     inkscape:current-layer="svg673" />
  <clipPath
     id="p.0">
    <path
       d="m0 0l800.0 0l0 600.0l-800.0 0l0 -600.0z"
       clip-rule="nonzero"
       id="path432" />
  </clipPath>
  <g
     clip-path="url(#p.0)"
     id="g671">
    <path
       fill="#000000"
       fill-opacity="0.0"
       d="m0 0l800.0 0l0 600.0l-800.0 0z"
       fill-rule="evenodd"
       id="path435" />
    <path
       fill="#efefef"
       d="m17.125984 270.90552l244.0 0l0 220.09448l-244.0 0z"
       fill-rule="evenodd"
       id="path437" />
    <path
       stroke="#000000"
       stroke-width="1.0"
       stroke-linejoin="round"
       stroke-linecap="butt"
       stroke-dasharray="1.0,3.0"
       d="m17.125984 270.90552l244.0 0l0 220.09448l-244.0 0z"
       fill-rule="evenodd"
       id="path439" />
    <path
       fill="#efefef"
       d="m275.6299 270.90552l244.00003 0l0 220.09448l-244.00003 0z"
       fill-rule="evenodd"
       id="path441" />
    <path
       stroke="#000000"
       stroke-width="1.0"
       stroke-linejoin="round"
       stroke-linecap="butt"
       stroke-dasharray="1.0,3.0"
       d="m275.6299 270.90552l244.00003 0l0 220.09448l-244.00003 0z"
       fill-rule="evenodd"
       id="path443" />
    <path
       fill="#efefef"
       d="m538.87665 270.90552l244.0 0l0 220.09448l-244.0 0z"
       fill-rule="evenodd"
       id="path445" />
    <path
       stroke="#000000"
       stroke-width="1.0"
       stroke-linejoin="round"
       stroke-linecap="butt"
       stroke-dasharray="1.0,3.0"
       d="m538.87665 270.90552l244.0 0l0 220.09448l-244.0 0z"
       fill-rule="evenodd"
       id="path447" />
    <path
       fill="#d9ead3"
       d="m30.503937 428.03412l738.99207 0l0 80.97638l-738.99207 0z"
       fill-rule="evenodd"
       id="path449" />
    <path
       stroke="#000000"
       stroke-width="1.0"
       stroke-linejoin="round"
       stroke-linecap="butt"
       stroke-dasharray="8.0,3.0,1.0,3.0"
       d="m30.503937 428.03412l738.99207 0l0 80.97638l-738.99207 0z"
       fill-rule="evenodd"
       id="path451" />
    <path
       fill="#a4c2f4"
       d="m49.124672 302.98425l180.0 0l0 41.984253l-180.0 0z"
       fill-rule="evenodd"
       id="path453" />
    <path
       stroke="#000000"
       stroke-width="1.0"
       stroke-linejoin="round"
       stroke-linecap="butt"
       d="m49.124672 302.98425l180.0 0l0 41.984253l-180.0 0z"
       fill-rule="evenodd"
       id="path455" />
    <path
       fill="#b6d7a8"
       d="m49.124672 428.03412l180.0 0l0 41.984253l-180.0 0z"
       fill-rule="evenodd"
       id="path459" />
    <path
       stroke="#000000"
       stroke-width="1.0"
       stroke-linejoin="round"
       stroke-linecap="butt"
       d="m49.124672 428.03412l180.0 0l0 41.984253l-180.0 0z"
       fill-rule="evenodd"
       id="path461" />
    <path
       fill="#000000"
       d="m129.35262 452.83688l1.6875 0.203125q-0.40625 1.484375 -1.484375 2.3125q-1.078125 0.8125 -2.765625 0.8125q-2.125 0 -3.375 -1.296875q-1.234375 -1.3125 -1.234375 -3.671875q0 -2.453125 1.25 -3.796875q1.265625 -1.34375 3.265625 -1.34375q1.9375 0 3.15625 1.328125q1.234375 1.3125 1.234375 3.703125q0 0.15625 0 0.4375l-7.21875 0q0.09375 1.59375 0.90625 2.453125q0.8125 0.84375 2.015625 0.84375q0.90625 0 1.546875 -0.46875q0.640625 -0.484375 1.015625 -1.515625zm-5.390625 -2.65625l5.40625 0q-0.109375 -1.21875 -0.625 -1.828125q-0.78125 -0.953125 -2.03125 -0.953125q-1.125 0 -1.90625 0.765625q-0.765625 0.75 -0.84375 2.015625zm12.719467 4.296875l0.234375 1.453125q-0.6875 0.140625 -1.234375 0.140625q-0.890625 0 -1.390625 -0.28125q-0.484375 -0.28125 -0.6875 -0.734375q-0.203125 -0.46875 -0.203125 -1.9375l0 -5.578125l-1.203125 0l0 -1.265625l1.203125 0l0 -2.390625l1.625 -0.984375l0 3.375l1.65625 0l0 1.265625l-1.65625 0l0 5.671875q0 0.6875 0.078125 0.890625q0.09375 0.203125 0.28125 0.328125q0.203125 0.109375 0.578125 0.109375q0.265625 0 0.71875 -0.0625zm7.917679 -2.078125l1.609375 0.21875q-0.265625 1.65625 -1.359375 2.609375q-1.078125 0.9375 -2.671875 0.9375q-1.984375 0 -3.1875 -1.296875q-1.203125 -1.296875 -1.203125 -3.71875q0 -1.578125 0.515625 -2.75q0.515625 -1.171875 1.578125 -1.75q1.0625 -0.59375 2.3125 -0.59375q1.578125 0 2.578125 0.796875q1.0 0.796875 1.28125 2.265625l-1.59375 0.234375q-0.234375 -0.96875 -0.8125 -1.453125q-0.578125 -0.5 -1.390625 -0.5q-1.234375 0 -2.015625 0.890625q-0.78125 0.890625 -0.78125 2.8125q0 1.953125 0.75 2.84375q0.75 0.875 1.953125 0.875q0.96875 0 1.609375 -0.59375q0.65625 -0.59375 0.828125 -1.828125zm9.28125 3.546875l0 -1.21875q-0.90625 1.4375 -2.703125 1.4375q-1.15625 0 -2.125 -0.640625q-0.96875 -0.640625 -1.5 -1.78125q-0.53125 -1.140625 -0.53125 -2.625q0 -1.453125 0.484375 -2.625q0.484375 -1.1875 1.4375 -1.8125q0.96875 -0.625 2.171875 -0.625q0.875 0 1.546875 0.375q0.6875 0.359375 1.109375 0.953125l0 -4.796875l1.640625 0l0 13.359375l-1.53125 0zm-5.171875 -4.828125q0 1.859375 0.78125 2.78125q0.78125 0.921875 1.84375 0.921875q1.078125 0 1.828125 -0.875q0.75 -0.890625 0.75 -2.6875q0 -1.984375 -0.765625 -2.90625q-0.765625 -0.9375 -1.890625 -0.9375q-1.078125 0 -1.8125 0.890625q-0.734375 0.890625 -0.734375 2.8125z"
       fill-rule="nonzero"
       id="path463" />
    <path
       fill="#cfe2f3"
       d="m49.12336 344.51706l180.0 0l0 41.984253l-180.0 0z"
       fill-rule="evenodd"
       id="path465" />
    <path
       stroke="#000000"
       stroke-width="1.0"
       stroke-linejoin="round"
       stroke-linecap="butt"
       d="m49.12336 344.51706l180.0 0l0 41.984253l-180.0 0z"
       fill-rule="evenodd"
       id="path467" />
    <path
       fill="#cfe2f3"
       d="m49.12336 386.5013l180.0 0l0 41.984253l-180.0 0z"
       fill-rule="evenodd"
       id="path471" />
    <path
       stroke="#000000"
       stroke-width="1.0"
       stroke-linejoin="round"
       stroke-linecap="butt"
       d="m49.12336 386.5013l180.0 0l0 41.984253l-180.0 0z"
       fill-rule="evenodd"
       id="path473" />
    <path
       fill="#a4c2f4"
       d="m307.6286 302.98425l180.0 0l0 41.984253l-180.0 0z"
       fill-rule="evenodd"
       id="path477" />
    <path
       stroke="#000000"
       stroke-width="1.0"
       stroke-linejoin="round"
       stroke-linecap="butt"
       d="m307.6286 302.98425l180.0 0l0 41.984253l-180.0 0z"
       fill-rule="evenodd"
       id="path479" />
    <path
       fill="#b6d7a8"
       d="m307.6286 428.03412l180.0 0l0 41.984253l-180.0 0z"
       fill-rule="evenodd"
       id="path483" />
    <path
       stroke="#000000"
       stroke-width="1.0"
       stroke-linejoin="round"
       stroke-linecap="butt"
       d="m307.6286 428.03412l180.0 0l0 41.984253l-180.0 0z"
       fill-rule="evenodd"
       id="path485" />
    <path
       fill="#000000"
       d="m387.85657 452.83688l1.6875 0.203125q-0.40625 1.484375 -1.484375 2.3125q-1.078125 0.8125 -2.765625 0.8125q-2.125 0 -3.375 -1.296875q-1.234375 -1.3125 -1.234375 -3.671875q0 -2.453125 1.25 -3.796875q1.265625 -1.34375 3.265625 -1.34375q1.9375 0 3.15625 1.328125q1.234375 1.3125 1.234375 3.703125q0 0.15625 0 0.4375l-7.21875 0q0.09375 1.59375 0.90625 2.453125q0.8125 0.84375 2.015625 0.84375q0.90625 0 1.546875 -0.46875q0.640625 -0.484375 1.015625 -1.515625zm-5.390625 -2.65625l5.40625 0q-0.109375 -1.21875 -0.625 -1.828125q-0.78125 -0.953125 -2.03125 -0.953125q-1.125 0 -1.90625 0.765625q-0.765625 0.75 -0.84375 2.015625zm12.719452 4.296875l0.234375 1.453125q-0.6875 0.140625 -1.234375 0.140625q-0.890625 0 -1.390625 -0.28125q-0.484375 -0.28125 -0.6875 -0.734375q-0.203125 -0.46875 -0.203125 -1.9375l0 -5.578125l-1.203125 0l0 -1.265625l1.203125 0l0 -2.390625l1.625 -0.984375l0 3.375l1.65625 0l0 1.265625l-1.65625 0l0 5.671875q0 0.6875 0.078125 0.890625q0.09375 0.203125 0.28125 0.328125q0.203125 0.109375 0.578125 0.109375q0.265625 0 0.71875 -0.0625zm7.917694 -2.078125l1.609375 0.21875q-0.265625 1.65625 -1.359375 2.609375q-1.078125 0.9375 -2.671875 0.9375q-1.984375 0 -3.1875 -1.296875q-1.203125 -1.296875 -1.203125 -3.71875q0 -1.578125 0.515625 -2.75q0.515625 -1.171875 1.578125 -1.75q1.0625 -0.59375 2.3125 -0.59375q1.578125 0 2.578125 0.796875q1.0 0.796875 1.28125 2.265625l-1.59375 0.234375q-0.234375 -0.96875 -0.8125 -1.453125q-0.578125 -0.5 -1.390625 -0.5q-1.234375 0 -2.015625 0.890625q-0.78125 0.890625 -0.78125 2.8125q0 1.953125 0.75 2.84375q0.75 0.875 1.953125 0.875q0.96875 0 1.609375 -0.59375q0.65625 -0.59375 0.828125 -1.828125zm9.28125 3.546875l0 -1.21875q-0.90625 1.4375 -2.703125 1.4375q-1.15625 0 -2.125 -0.640625q-0.96875 -0.640625 -1.5 -1.78125q-0.53125 -1.140625 -0.53125 -2.625q0 -1.453125 0.484375 -2.625q0.484375 -1.1875 1.4375 -1.8125q0.96875 -0.625 2.171875 -0.625q0.875 0 1.546875 0.375q0.6875 0.359375 1.109375 0.953125l0 -4.796875l1.640625 0l0 13.359375l-1.53125 0zm-5.171875 -4.828125q0 1.859375 0.78125 2.78125q0.78125 0.921875 1.84375 0.921875q1.078125 0 1.828125 -0.875q0.75 -0.890625 0.75 -2.6875q0 -1.984375 -0.765625 -2.90625q-0.765625 -0.9375 -1.890625 -0.9375q-1.078125 0 -1.8125 0.890625q-0.734375 0.890625 -0.734375 2.8125z"
       fill-rule="nonzero"
       id="path487" />
    <path
       fill="#cfe2f3"
       d="m307.6273 344.51706l180.0 0l0 41.984253l-180.0 0z"
       fill-rule="evenodd"
       id="path489" />
    <path
       stroke="#000000"
       stroke-width="1.0"
       stroke-linejoin="round"
       stroke-linecap="butt"
       d="m307.6273 344.51706l180.0 0l0 41.984253l-180.0 0z"
       fill-rule="evenodd"
       id="path491" />
    <path
       fill="#cfe2f3"
       d="m307.6273 386.5013l180.0 0l0 41.984253l-180.0 0z"
       fill-rule="evenodd"
       id="path495" />
    <path
       stroke="#000000"
       stroke-width="1.0"
       stroke-linejoin="round"
       stroke-linecap="butt"
       d="m307.6273 386.5013l180.0 0l0 41.984253l-180.0 0z"
       fill-rule="evenodd"
       id="path497" />
    <path
       fill="#a4c2f4"
       d="m570.8753 302.98425l180.0 0l0 41.984253l-180.0 0z"
       fill-rule="evenodd"
       id="path501" />
    <path
       stroke="#000000"
       stroke-width="1.0"
       stroke-linejoin="round"
       stroke-linecap="butt"
       d="m570.8753 302.98425l180.0 0l0 41.984253l-180.0 0z"
       fill-rule="evenodd"
       id="path503" />
    <path
       fill="#000000"
       fill-opacity="0.0"
       d="m307.6273 471.56693l180.0 0l0 30.740173l-180.0 0z"
       fill-rule="evenodd"
       id="path507" />
    <path
       fill="#b6d7a8"
       d="m570.8753 428.03412l180.0 0l0 41.984253l-180.0 0z"
       fill-rule="evenodd"
       id="path511" />
    <path
       stroke="#000000"
       stroke-width="1.0"
       stroke-linejoin="round"
       stroke-linecap="butt"
       d="m570.8753 428.03412l180.0 0l0 41.984253l-180.0 0z"
       fill-rule="evenodd"
       id="path513" />
    <path
       fill="#000000"
       d="m651.1033 452.83688l1.6875 0.203125q-0.40625 1.484375 -1.484375 2.3125q-1.078125 0.8125 -2.765625 0.8125q-2.125 0 -3.375 -1.296875q-1.234375 -1.3125 -1.234375 -3.671875q0 -2.453125 1.25 -3.796875q1.265625 -1.34375 3.265625 -1.34375q1.9375 0 3.15625 1.328125q1.234375 1.3125 1.234375 3.703125q0 0.15625 0 0.4375l-7.21875 0q0.09375 1.59375 0.90625 2.453125q0.8125 0.84375 2.015625 0.84375q0.90625 0 1.546875 -0.46875q0.640625 -0.484375 1.015625 -1.515625zm-5.390625 -2.65625l5.40625 0q-0.109375 -1.21875 -0.625 -1.828125q-0.78125 -0.953125 -2.03125 -0.953125q-1.125 0 -1.90625 0.765625q-0.765625 0.75 -0.84375 2.015625zm12.719482 4.296875l0.234375 1.453125q-0.6875 0.140625 -1.234375 0.140625q-0.890625 0 -1.390625 -0.28125q-0.484375 -0.28125 -0.6875 -0.734375q-0.203125 -0.46875 -0.203125 -1.9375l0 -5.578125l-1.203125 0l0 -1.265625l1.203125 0l0 -2.390625l1.625 -0.984375l0 3.375l1.65625 0l0 1.265625l-1.65625 0l0 5.671875q0 0.6875 0.078125 0.890625q0.09375 0.203125 0.28125 0.328125q0.203125 0.109375 0.578125 0.109375q0.265625 0 0.71875 -0.0625zm7.9176636 -2.078125l1.609375 0.21875q-0.265625 1.65625 -1.359375 2.609375q-1.078125 0.9375 -2.671875 0.9375q-1.984375 0 -3.1875 -1.296875q-1.203125 -1.296875 -1.203125 -3.71875q0 -1.578125 0.515625 -2.75q0.515625 -1.171875 1.578125 -1.75q1.0625 -0.59375 2.3125 -0.59375q1.578125 0 2.578125 0.796875q1.0 0.796875 1.28125 2.265625l-1.59375 0.234375q-0.234375 -0.96875 -0.8125 -1.453125q-0.578125 -0.5 -1.390625 -0.5q-1.234375 0 -2.015625 0.890625q-0.78125 0.890625 -0.78125 2.8125q0 1.953125 0.75 2.84375q0.75 0.875 1.953125 0.875q0.96875 0 1.609375 -0.59375q0.65625 -0.59375 0.828125 -1.828125zm9.28125 3.546875l0 -1.21875q-0.90625 1.4375 -2.703125 1.4375q-1.15625 0 -2.125 -0.640625q-0.96875 -0.640625 -1.5 -1.78125q-0.53125 -1.140625 -0.53125 -2.625q0 -1.453125 0.484375 -2.625q0.484375 -1.1875 1.4375 -1.8125q0.96875 -0.625 2.171875 -0.625q0.875 0 1.546875 0.375q0.6875 0.359375 1.109375 0.953125l0 -4.796875l1.640625 0l0 13.359375l-1.53125 0zm-5.171875 -4.828125q0 1.859375 0.78125 2.78125q0.78125 0.921875 1.84375 0.921875q1.078125 0 1.828125 -0.875q0.75 -0.890625 0.75 -2.6875q0 -1.984375 -0.765625 -2.90625q-0.765625 -0.9375 -1.890625 -0.9375q-1.078125 0 -1.8125 0.890625q-0.734375 0.890625 -0.734375 2.8125z"
       fill-rule="nonzero"
       id="path515" />
    <path
       fill="#cfe2f3"
       d="m570.874 344.51706l180.0 0l0 41.984253l-180.0 0z"
       fill-rule="evenodd"
       id="path517" />
    <path
       stroke="#000000"
       stroke-width="1.0"
       stroke-linejoin="round"
       stroke-linecap="butt"
       d="m570.874 344.51706l180.0 0l0 41.984253l-180.0 0z"
       fill-rule="evenodd"
       id="path519" />
    <path
       fill="#cfe2f3"
       d="m570.874 386.5013l180.0 0l0 41.984253l-180.0 0z"
       fill-rule="evenodd"
       id="path523" />
    <path
       stroke="#000000"
       stroke-width="1.0"
       stroke-linejoin="round"
       stroke-linecap="butt"
       d="m570.874 386.5013l180.0 0l0 41.984253l-180.0 0z"
       fill-rule="evenodd"
       id="path525" />
    <path
       fill="#ffe599"
       d="m319.8808 206.52231l155.49606 0l0 41.984253l-155.49606 0z"
       fill-rule="evenodd"
       id="path529" />
    <path
       stroke="#000000"
       stroke-width="1.0"
       stroke-linejoin="round"
       stroke-linecap="butt"
       d="m319.8808 206.52231l155.49606 0l0 41.984253l-155.49606 0z"
       fill-rule="evenodd"
       id="path531" />
    <path
       fill="#000000"
       fill-opacity="0.0"
       d="m139.12466 302.98425l0 -75.46457l180.75592 0"
       fill-rule="evenodd"
       id="path535" />
    <path
       stroke="#000000"
       stroke-width="1.0"
       stroke-linejoin="round"
       stroke-linecap="butt"
       stroke-dasharray="4.0,3.0"
       d="m139.12466 302.98425l0 -75.46457l180.75592 0"
       fill-rule="evenodd"
       id="path537" />
    <path
       fill="#000000"
       fill-opacity="0.0"
       d="m397.6286 302.98425l0 -27.238647l0.06298828 0l0 -27.249542"
       fill-rule="evenodd"
       id="path539" />
    <path
       stroke="#000000"
       stroke-width="1.0"
       stroke-linejoin="round"
       stroke-linecap="butt"
       stroke-dasharray="8.0,3.0"
       d="m397.6286 302.98425l0 -27.238647l0.06298828 0l0 -27.249542"
       fill-rule="evenodd"
       id="path541" />
    <path
       fill="#000000"
       fill-opacity="0.0"
       d="m475.36353 227.51968l185.51178 0l0 75.46457"
       fill-rule="evenodd"
       id="path543" />
    <path
       stroke="#000000"
       stroke-width="1.0"
       stroke-linejoin="round"
       stroke-linecap="butt"
       stroke-dasharray="8.0,3.0"
       d="m475.36353 227.51968l185.51178 0l0 75.46457"
       fill-rule="evenodd"
       id="path545" />
    <path
       fill="#000000"
       fill-opacity="0.0"
       d="m9.251968 0l338.74017 0l0 41.984253l-338.74017 0z"
       fill-rule="evenodd"
       id="path547" />
    <path
       fill="#000000"
       fill-opacity="0.0"
       d="m272.50787 269.25986l130.99213 0l0 30.740143l-130.99213 0z"
       fill-rule="evenodd"
       id="path551" />
    <path
       fill="#fce5cd"
       d="m52.11155 64.46457l126.015755 0l0 46.04724l-126.015755 0z"
       fill-rule="evenodd"
       id="path555" />
    <path
       stroke="#000000"
       stroke-width="1.0"
       stroke-linejoin="round"
       stroke-linecap="butt"
       d="m52.11155 64.46457l126.015755 0l0 46.04724l-126.015755 0z"
       fill-rule="evenodd"
       id="path557" />
    <path
       fill="#fce5cd"
       d="m193.11154 64.46457l126.01575 0l0 46.04724l-126.01575 0z"
       fill-rule="evenodd"
       id="path561" />
    <path
       stroke="#000000"
       stroke-width="1.0"
       stroke-linejoin="round"
       stroke-linecap="butt"
       d="m193.11154 64.46457l126.01575 0l0 46.04724l-126.01575 0z"
       fill-rule="evenodd"
       id="path563" />
    <path
       fill="#fce5cd"
       d="m335.1273 64.46457l126.01575 0l0 46.04724l-126.01575 0z"
       fill-rule="evenodd"
       id="path567" />
    <path
       stroke="#000000"
       stroke-width="1.0"
       stroke-linejoin="round"
       stroke-linecap="butt"
       d="m335.1273 64.46457l126.01575 0l0 46.04724l-126.01575 0z"
       fill-rule="evenodd"
       id="path569" />
    <path
       fill="#fce5cd"
       d="m476.1273 64.46457l126.01578 0l0 46.04724l-126.01578 0z"
       fill-rule="evenodd"
       id="path573" />
    <path
       stroke="#000000"
       stroke-width="1.0"
       stroke-linejoin="round"
       stroke-linecap="butt"
       d="m476.1273 64.46457l126.01578 0l0 46.04724l-126.01578 0z"
       fill-rule="evenodd"
       id="path575" />
    <path
       fill="#fce5cd"
       d="m617.1273 64.46457l126.01575 0l0 46.04724l-126.01575 0z"
       fill-rule="evenodd"
       id="path579" />
    <path
       stroke="#000000"
       stroke-width="1.0"
       stroke-linejoin="round"
       stroke-linecap="butt"
       d="m617.1273 64.46457l126.01575 0l0 46.04724l-126.01575 0z"
       fill-rule="evenodd"
       id="path581" />
    <path
       fill="#000000"
       fill-opacity="0.0"
       d="m115.11942 110.51181l222.86615 94.48819"
       fill-rule="evenodd"
       id="path585" />
    <path
       stroke="#000000"
       stroke-width="1.0"
       stroke-linejoin="round"
       stroke-linecap="butt"
       stroke-dasharray="4.0,3.0"
       d="m115.11942 110.51181l217.3421 92.14618"
       fill-rule="evenodd"
       id="path587" />
    <path
       fill="#000000"
       stroke="#000000"
       stroke-width="1.0"
       stroke-linecap="butt"
       d="m331.8168 204.1787l4.822815 0.2506714l-3.5333557 -3.2920837z"
       fill-rule="evenodd"
       id="path589" />
    <path
       fill="#000000"
       fill-opacity="0.0"
       d="m256.11942 110.51181l117.88977 96.50394"
       fill-rule="evenodd"
       id="path591" />
    <path
       stroke="#000000"
       stroke-width="1.0"
       stroke-linejoin="round"
       stroke-linecap="butt"
       stroke-dasharray="4.0,3.0"
       d="m256.11942 110.51181l113.24698 92.70337"
       fill-rule="evenodd"
       id="path593" />
    <path
       fill="#000000"
       stroke="#000000"
       stroke-width="1.0"
       stroke-linecap="butt"
       d="m368.32013 204.49329l4.557831 1.5964508l-2.465332 -4.1526794z"
       fill-rule="evenodd"
       id="path595" />
    <path
       fill="#000000"
       fill-opacity="0.0"
       d="m398.13516 110.51181l-0.50393677 96.0"
       fill-rule="evenodd"
       id="path597" />
    <path
       stroke="#000000"
       stroke-width="1.0"
       stroke-linejoin="round"
       stroke-linecap="butt"
       stroke-dasharray="4.0,3.0"
       d="m398.13516 110.51181l-0.47244263 90.00008"
       fill-rule="evenodd"
       id="path599" />
    <path
       fill="#000000"
       stroke="#000000"
       stroke-width="1.0"
       stroke-linecap="butt"
       d="m396.01102 200.50322l1.6278992 4.546707l1.6755371 -4.529358z"
       fill-rule="evenodd"
       id="path601" />
    <path
       fill="#000000"
       fill-opacity="0.0"
       d="m539.1352 110.51181l-110.141754 96.50394"
       fill-rule="evenodd"
       id="path603" />
    <path
       stroke="#000000"
       stroke-width="1.0"
       stroke-linejoin="round"
       stroke-linecap="butt"
       stroke-dasharray="4.0,3.0"
       d="m539.1352 110.51181l-105.62891 92.5499"
       fill-rule="evenodd"
       id="path605" />
    <path
       fill="#000000"
       stroke="#000000"
       stroke-width="1.0"
       stroke-linecap="butt"
       d="m432.41776 201.81938l-2.324768 4.232956l4.50177 -1.7483063z"
       fill-rule="evenodd"
       id="path607" />
    <path
       fill="#000000"
       fill-opacity="0.0"
       d="m680.1352 110.51181l-216.126 95.49606"
       fill-rule="evenodd"
       id="path609" />
    <path
       stroke="#000000"
       stroke-width="1.0"
       stroke-linejoin="round"
       stroke-linecap="butt"
       stroke-dasharray="4.0,3.0"
       d="m680.1352 110.51181l-210.63785 93.071106"
       fill-rule="evenodd"
       id="path611" />
    <path
       fill="#000000"
       stroke="#000000"
       stroke-width="1.0"
       stroke-linecap="butt"
       d="m468.82974 202.0721l-3.483368 3.3449402l4.818512 -0.32328796z"
       fill-rule="evenodd"
       id="path613" />
    <path
       fill="#000000"
       fill-opacity="0.0"
       d="m229.12466 323.97638l16.875336 0l0 125.03937l-16.812332 0"
       fill-rule="evenodd"
       id="path615" />
    <path
       stroke="#000000"
       stroke-width="1.0"
       stroke-linejoin="round"
       stroke-linecap="butt"
       d="m235.12466 323.97638l10.875336 0l0 125.03937l-10.812332 0"
       fill-rule="evenodd"
       id="path617" />
    <path
       fill="#000000"
       stroke="#000000"
       stroke-width="1.0"
       stroke-linecap="butt"
       d="m235.12466 322.32465l-4.538086 1.6517334l4.538086 1.6517334z"
       fill-rule="evenodd"
       id="path619" />
    <path
       fill="#000000"
       stroke="#000000"
       stroke-width="1.0"
       stroke-linecap="butt"
       d="m235.18767 447.364l-4.538101 1.6517334l4.538101 1.6517334z"
       fill-rule="evenodd"
       id="path621" />
    <path
       fill="#000000"
       fill-opacity="0.0"
       d="m487.6286 323.99213l16.371399 0l0 125.03937l-16.30841 0"
       fill-rule="evenodd"
       id="path623" />
    <path
       stroke="#000000"
       stroke-width="1.0"
       stroke-linejoin="round"
       stroke-linecap="butt"
       d="m493.6286 323.99213l10.371399 0l0 125.03937l-10.308411 0"
       fill-rule="evenodd"
       id="path625" />
    <path
       fill="#000000"
       stroke="#000000"
       stroke-width="1.0"
       stroke-linecap="butt"
       d="m493.6286 322.3404l-4.538086 1.6517334l4.538086 1.6517334z"
       fill-rule="evenodd"
       id="path627" />
    <path
       fill="#000000"
       stroke="#000000"
       stroke-width="1.0"
       stroke-linecap="butt"
       d="m493.6916 447.37976l-4.538086 1.6517334l4.538086 1.6517334z"
       fill-rule="evenodd"
       id="path629" />
    <path
       fill="#000000"
       fill-opacity="0.0"
       d="m750.8753 323.97638l18.124695 0l0 125.03937l-18.061707 0"
       fill-rule="evenodd"
       id="path631" />
    <path
       stroke="#000000"
       stroke-width="1.0"
       stroke-linejoin="round"
       stroke-linecap="butt"
       d="m756.8753 323.97638l12.124695 0l0 125.03937l-12.061707 0"
       fill-rule="evenodd"
       id="path633" />
    <path
       fill="#000000"
       stroke="#000000"
       stroke-width="1.0"
       stroke-linecap="butt"
       d="m756.8753 322.32465l-4.538086 1.6517334l4.538086 1.6517334z"
       fill-rule="evenodd"
       id="path635" />
    <path
       fill="#000000"
       stroke="#000000"
       stroke-width="1.0"
       stroke-linecap="butt"
       d="m756.9383 447.364l-4.538086 1.6517334l4.538086 1.6517334z"
       fill-rule="evenodd"
       id="path637" />
    <path
       fill="#cfe2f3"
       d="m65.12336 440.7861l0 0c0 1.2502441 4.0541153 2.2637634 9.055115 2.2637634c5.001007 0 9.055122 -1.0135193 9.055122 -2.2637634l0 16.480316c0 1.2502441 -4.0541153 2.2637634 -9.055122 2.2637634c-5.0009995 0 -9.055115 -1.0135193 -9.055115 -2.2637634z"
       fill-rule="evenodd"
       id="path639" />
    <path
       fill="#e2edf7"
       d="m65.12336 440.7861l0 0c0 -1.2502747 4.0541153 -2.263794 9.055115 -2.263794c5.001007 0 9.055122 1.0135193 9.055122 2.263794l0 0c0 1.2502441 -4.0541153 2.2637634 -9.055122 2.2637634c-5.0009995 0 -9.055115 -1.0135193 -9.055115 -2.2637634z"
       fill-rule="evenodd"
       id="path641" />
    <path
       fill="#000000"
       fill-opacity="0.0"
       d="m83.2336 440.7861l0 0c0 1.2502441 -4.0541153 2.2637634 -9.055122 2.2637634c-5.0009995 0 -9.055115 -1.0135193 -9.055115 -2.2637634l0 0c0 -1.2502747 4.0541153 -2.263794 9.055115 -2.263794c5.001007 0 9.055122 1.0135193 9.055122 2.263794l0 16.480316c0 1.2502441 -4.0541153 2.2637634 -9.055122 2.2637634c-5.0009995 0 -9.055115 -1.0135193 -9.055115 -2.2637634l0 -16.480316"
       fill-rule="evenodd"
       id="path643" />
    <path
       stroke="#000000"
       stroke-width="1.0"
       stroke-linejoin="round"
       stroke-linecap="butt"
       d="m83.2336 440.7861l0 0c0 1.2502441 -4.0541153 2.2637634 -9.055122 2.2637634c-5.0009995 0 -9.055115 -1.0135193 -9.055115 -2.2637634l0 0c0 -1.2502747 4.0541153 -2.263794 9.055115 -2.263794c5.001007 0 9.055122 1.0135193 9.055122 2.263794l0 16.480316c0 1.2502441 -4.0541153 2.2637634 -9.055122 2.2637634c-5.0009995 0 -9.055115 -1.0135193 -9.055115 -2.2637634l0 -16.480316"
       fill-rule="evenodd"
       id="path645" />
    <path
       fill="#cfe2f3"
       d="m322.0105 440.7861l0 0c0 1.2502441 4.0541077 2.2637634 9.055115 2.2637634c5.001007 0 9.055115 -1.0135193 9.055115 -2.2637634l0 16.480316c0 1.2502441 -4.0541077 2.2637634 -9.055115 2.2637634c-5.001007 0 -9.055115 -1.0135193 -9.055115 -2.2637634z"
       fill-rule="evenodd"
       id="path647" />
    <path
       fill="#e2edf7"
       d="m322.0105 440.7861l0 0c0 -1.2502747 4.0541077 -2.263794 9.055115 -2.263794c5.001007 0 9.055115 1.0135193 9.055115 2.263794l0 0c0 1.2502441 -4.0541077 2.2637634 -9.055115 2.2637634c-5.001007 0 -9.055115 -1.0135193 -9.055115 -2.2637634z"
       fill-rule="evenodd"
       id="path649" />
    <path
       fill="#000000"
       fill-opacity="0.0"
       d="m340.12073 440.7861l0 0c0 1.2502441 -4.0541077 2.2637634 -9.055115 2.2637634c-5.001007 0 -9.055115 -1.0135193 -9.055115 -2.2637634l0 0c0 -1.2502747 4.0541077 -2.263794 9.055115 -2.263794c5.001007 0 9.055115 1.0135193 9.055115 2.263794l0 16.480316c0 1.2502441 -4.0541077 2.2637634 -9.055115 2.2637634c-5.001007 0 -9.055115 -1.0135193 -9.055115 -2.2637634l0 -16.480316"
       fill-rule="evenodd"
       id="path651" />
    <path
       stroke="#000000"
       stroke-width="1.0"
       stroke-linejoin="round"
       stroke-linecap="butt"
       d="m340.12073 440.7861l0 0c0 1.2502441 -4.0541077 2.2637634 -9.055115 2.2637634c-5.001007 0 -9.055115 -1.0135193 -9.055115 -2.2637634l0 0c0 -1.2502747 4.0541077 -2.263794 9.055115 -2.263794c5.001007 0 9.055115 1.0135193 9.055115 2.263794l0 16.480316c0 1.2502441 -4.0541077 2.2637634 -9.055115 2.2637634c-5.001007 0 -9.055115 -1.0135193 -9.055115 -2.2637634l0 -16.480316"
       fill-rule="evenodd"
       id="path653" />
    <path
       fill="#cfe2f3"
       d="m586.87665 440.7861l0 0c0 1.2502441 4.054077 2.2637634 9.055115 2.2637634c5.0009766 0 9.055115 -1.0135193 9.055115 -2.2637634l0 16.480316c0 1.2502441 -4.054138 2.2637634 -9.055115 2.2637634c-5.0010376 0 -9.055115 -1.0135193 -9.055115 -2.2637634z"
       fill-rule="evenodd"
       id="path655" />
    <path
       fill="#e2edf7"
       d="m586.87665 440.7861l0 0c0 -1.2502747 4.054077 -2.263794 9.055115 -2.263794c5.0009766 0 9.055115 1.0135193 9.055115 2.263794l0 0c0 1.2502441 -4.054138 2.2637634 -9.055115 2.2637634c-5.0010376 0 -9.055115 -1.0135193 -9.055115 -2.2637634z"
       fill-rule="evenodd"
       id="path657" />
    <path
       fill="#000000"
       fill-opacity="0.0"
       d="m604.9869 440.7861l0 0c0 1.2502441 -4.054138 2.2637634 -9.055115 2.2637634c-5.0010376 0 -9.055115 -1.0135193 -9.055115 -2.2637634l0 0c0 -1.2502747 4.054077 -2.263794 9.055115 -2.263794c5.0009766 0 9.055115 1.0135193 9.055115 2.263794l0 16.480316c0 1.2502441 -4.054138 2.2637634 -9.055115 2.2637634c-5.0010376 0 -9.055115 -1.0135193 -9.055115 -2.2637634l0 -16.480316"
       fill-rule="evenodd"
       id="path659" />
    <path
       stroke="#000000"
       stroke-width="1.0"
       stroke-linejoin="round"
       stroke-linecap="butt"
       d="m604.9869 440.7861l0 0c0 1.2502441 -4.054138 2.2637634 -9.055115 2.2637634c-5.0010376 0 -9.055115 -1.0135193 -9.055115 -2.2637634l0 0c0 -1.2502747 4.054077 -2.263794 9.055115 -2.263794c5.0009766 0 9.055115 1.0135193 9.055115 2.263794l0 16.480316c0 1.2502441 -4.054138 2.2637634 -9.055115 2.2637634c-5.0010376 0 -9.055115 -1.0135193 -9.055115 -2.2637634l0 -16.480316"
       fill-rule="evenodd"
       id="path661" />
    <path
       fill="#000000"
       fill-opacity="0.0"
       d="m12.006561 269.25986l130.99213 0l0 30.740143l-130.99213 0z"
       fill-rule="evenodd"
       id="path663" />
    <path
       fill="#000000"
       fill-opacity="0.0"
       d="m534.13257 269.25986l130.99213 0l0 30.740143l-130.99213 0z"
       fill-rule="evenodd"
       id="path667" />
  </g>
  <text
     xml:space="preserve"
     style="font-size:13.3333px;fill:#000000"
     x="343.36627"
     y="496.17322"
     id="text837"><tspan
       sodipodi:role="line"
       id="tspan835"
       x="343.36627"
       y="496.17322"
       style="font-size:13.3333px">堆叠的 etcd 集群</tspan></text>
  <text
     xml:space="preserve"
     style="font-size:13.3333px;fill:#000000"
     x="27.313107"
     y="291.01794"
     id="text837-0"><tspan
       sodipodi:role="line"
       id="tspan835-3"
       x="27.313107"
       y="291.01794"
       style="font-size:13.3333px">控制平面节点</tspan></text>
  <text
     xml:space="preserve"
     style="font-size:21.3333px;fill:#000000"
     x="69.329361"
     y="96.798103"
     id="text837-0-4"><tspan
       sodipodi:role="line"
       id="tspan835-3-1"
       x="69.329361"
       y="96.798103"
       style="font-size:21.3333px">工作节点</tspan></text>
  <text
     xml:space="preserve"
     style="font-size:21.3333px;fill:#000000"
     x="15.275209"
     y="37.044903"
     id="text837-0-4-8"><tspan
       sodipodi:role="line"
       id="tspan835-3-1-7"
       x="15.275209"
       y="37.044903"
       style="font-size:21.3333px">kubeadm 高可用拓扑 - 堆叠的 etcd</tspan></text>
  <text
     xml:space="preserve"
     style="font-size:21.3333px;fill:#000000"
     x="216.62088"
     y="96.369957"
     id="text837-0-4-3"><tspan
       sodipodi:role="line"
       id="tspan835-3-1-5"
       x="216.62088"
       y="96.369957"
       style="font-size:21.3333px">工作节点</tspan></text>
  <text
     xml:space="preserve"
     style="font-size:21.3333px;fill:#000000"
     x="346.05734"
     y="237.49171"
     id="text837-0-4-3-4"><tspan
       sodipodi:role="line"
       id="tspan835-3-1-5-3"
       x="346.05734"
       y="237.49171"
       style="font-size:21.3333px">负载均衡器</tspan></text>
  <text
     xml:space="preserve"
     style="font-size:18.6667px;fill:#000000"
     x="88.546722"
     y="333.59207"
     id="text837-0-4-3-4-4"><tspan
       sodipodi:role="line"
       id="tspan835-3-1-5-3-0"
       x="88.546722"
       y="333.59207"
       style="font-size:18.6667px">API 服务器</tspan></text>
  <text
     xml:space="preserve"
     style="font-size:18.6667px;fill:#000000"
     x="80.71225"
     y="374.67209"
     id="text837-0-4-3-4-4-2"><tspan
       sodipodi:role="line"
       id="tspan835-3-1-5-3-0-4"
       x="80.71225"
       y="374.67209"
       style="font-size:18.6667px">控制器管理器</tspan></text>
  <text
     xml:space="preserve"
     style="font-size:18.6667px;fill:#000000"
     x="106.90858"
     y="414.40442"
     id="text837-0-4-3-4-4-2-45"><tspan
       sodipodi:role="line"
       id="tspan835-3-1-5-3-0-4-9"
       x="106.90858"
       y="414.40442"
       style="font-size:18.6667px">调度器</tspan></text>
  <text
     xml:space="preserve"
     style="font-size:18.6667px;fill:#000000"
     x="369.93716"
     y="415.94693"
     id="text837-0-4-3-4-4-2-45-1"><tspan
       sodipodi:role="line"
       id="tspan835-3-1-5-3-0-4-9-4"
       x="369.93716"
       y="415.94693"
       style="font-size:18.6667px">调度器</tspan></text>
  <text
     xml:space="preserve"
     style="font-size:18.6667px;fill:#000000"
     x="637.79883"
     y="414.1492"
     id="text837-0-4-3-4-4-2-45-8"><tspan
       sodipodi:role="line"
       id="tspan835-3-1-5-3-0-4-9-8"
       x="637.79883"
       y="414.1492"
       style="font-size:18.6667px">调度器</tspan></text>
  <text
     xml:space="preserve"
     style="font-size:18.6667px;fill:#000000"
     x="339.71448"
     y="376.6521"
     id="text837-0-4-3-4-4-2-4"><tspan
       sodipodi:role="line"
       id="tspan835-3-1-5-3-0-4-1"
       x="339.71448"
       y="376.6521"
       style="font-size:18.6667px">控制器管理器</tspan></text>
  <text
     xml:space="preserve"
     style="font-size:18.6667px;fill:#000000"
     x="609.37384"
     y="375.75323"
     id="text837-0-4-3-4-4-2-6"><tspan
       sodipodi:role="line"
       id="tspan835-3-1-5-3-0-4-12"
       x="609.37384"
       y="375.75323"
       style="font-size:18.6667px">控制器管理器</tspan></text>
  <text
     xml:space="preserve"
     style="font-size:18.6667px;fill:#000000"
     x="348.57388"
     y="334.22318"
     id="text837-0-4-3-4-4-4"><tspan
       sodipodi:role="line"
       id="tspan835-3-1-5-3-0-2"
       x="348.57388"
       y="334.22318"
       style="font-size:18.6667px">API 服务器</tspan></text>
  <text
     xml:space="preserve"
     style="font-size:18.6667px;fill:#000000"
     x="615.53668"
     y="333.32431"
     id="text837-0-4-3-4-4-1"><tspan
       sodipodi:role="line"
       id="tspan835-3-1-5-3-0-9"
       x="615.53668"
       y="333.32431"
       style="font-size:18.6667px">API 服务器</tspan></text>
  <text
     xml:space="preserve"
     style="font-size:21.3333px;fill:#000000"
     x="351.45059"
     y="96.572235"
     id="text837-0-4-2"><tspan
       sodipodi:role="line"
       id="tspan835-3-1-2"
       x="351.45059"
       y="96.572235"
       style="font-size:21.3333px">工作节点</tspan></text>
  <text
     xml:space="preserve"
     style="font-size:21.3333px;fill:#000000"
     x="493.47116"
     y="96.369957"
     id="text837-0-4-6"><tspan
       sodipodi:role="line"
       id="tspan835-3-1-6"
       x="493.47116"
       y="96.369957"
       style="font-size:21.3333px">工作节点</tspan></text>
  <text
     xml:space="preserve"
     style="font-size:21.3333px;fill:#000000"
     x="633.69403"
     y="96.369957"
     id="text837-0-4-7"><tspan
       sodipodi:role="line"
       id="tspan835-3-1-8"
       x="633.69403"
       y="96.369957"
       style="font-size:21.3333px">工作节点</tspan></text>
  <text
     xml:space="preserve"
     style="font-size:13.3333px;fill:#000000"
     x="285.95572"
     y="289.15512"
     id="text837-0-3"><tspan
       sodipodi:role="line"
       id="tspan835-3-2"
       x="285.95572"
       y="289.15512"
       style="font-size:13.3333px">控制平面节点</tspan></text>
  <text
     xml:space="preserve"
     style="font-size:13.3333px;fill:#000000"
     x="550.22192"
     y="290.95285"
     id="text837-0-6"><tspan
       sodipodi:role="line"
       id="tspan835-3-9"
       x="550.22192"
       y="290.95285"
       style="font-size:13.3333px">控制平面节点</tspan></text>
</svg>
