<svg version="1.1" id="Layer_1" xmlns:x="ns_extend;" xmlns:i="ns_ai;" xmlns:graph="ns_graphs;" xmlns="http://www.w3.org/2000/svg" xmlns:xlink="http://www.w3.org/1999/xlink" x="0px" y="0px" viewBox="0 0 329.1 81" style="enable-background:new 0 0 329.1 81;" xml:space="preserve">
 <style type="text/css">
  .st0{fill:#FFFFFF;}
 </style>
 <metadata>
  <sfw xmlns="ns_sfw;">
   <slices>
   </slices>
   <sliceSourceBounds bottomLeftOrigin="true" height="81" width="329.1" x="35.4" y="-240.7">
   </sliceSourceBounds>
  </sfw>
 </metadata>
 <g>
  <path class="st0" d="M234.7,31.5c-4.8,0-8.3,1.7-10,4.8l-0.9,1.7v-5.7h-7.9v34.5h8.3V46.3c0-4.9,2.7-7.7,7.3-7.7c4.4,0,7,2.7,7,7.5
		v20.7h8.3V44.6C246.8,36.4,242.3,31.5,234.7,31.5z M194.5,31.5c-9.8,0-15.8,6.1-15.8,15.9v4.8c0,9.5,6.1,15.3,16,15.3
		c6.6,0,11.2-2.4,14.1-7.4l-5.1-3c-2.2,2.9-5.6,4.6-9,4.6c-5,0-8-3.1-8-8.3v-1.4h23.1v-5.7C209.8,37.4,203.8,31.5,194.5,31.5
		L194.5,31.5z M202.3,46.7h-15.6v-0.8c0-5.7,2.8-8.8,7.8-8.8c4.9,0,7.8,3.1,7.8,8.3L202.3,46.7z M329.1,26.7v-6.6h-28.7v6.6h10.1
		v33.5h-10.1v6.6h28.7v-6.6h-10.1V26.7H329.1z M111.6,19.1c-12.8,0-20.8,8-20.8,20.8v7c0,12.9,8,20.8,20.8,20.8s20.8-8,20.8-20.8v-7
		C132.4,27.1,124.4,19.1,111.6,19.1z M123.8,47.4c0,8.5-4.4,13.4-12.2,13.4S99.4,56,99.4,47.4v-7.9c0-8.5,4.5-13.4,12.2-13.4
		s12.2,4.9,12.2,13.4L123.8,47.4z M158.5,31.5c-4.4,0-8.1,1.8-10.1,4.8l-0.9,1.4v-5.4h-7.9v46.3h8.3V61.9l0.9,1.3
		c1.9,2.8,5.5,4.4,9.8,4.4c7.2,0,14.4-4.7,14.4-15.1v-5.9C172.9,39.1,168.4,31.5,158.5,31.5L158.5,31.5z M164.6,52.1
		c0,5.6-3.2,9-8.5,9c-4.9,0-8.3-3.6-8.3-8.9v-5.2c0-5.3,3.4-9,8.3-9c5.2,0,8.4,3.4,8.4,9L164.6,52.1z M269.7,20.1L253,66.8h8.4
		l3.2-10h19.2l0,0.1l3.2,9.9h8.4l-16.8-46.7L269.7,20.1z M266.7,50.2l7.6-23.6l7.5,23.6H266.7z">
  </path>
  <path class="st0" d="M74.6,33.1c1.8-5.5,1.2-11.6-1.7-16.6c-4.4-7.7-13.3-11.6-22-9.8C47.1,2.4,41.5,0,35.7,0
		C26.8,0,19,5.7,16.2,14.1c-5.7,1.2-10.6,4.7-13.5,9.8c-4.4,7.7-3.4,17.3,2.5,23.9C3.4,53.4,4.1,59.4,7,64.4
		c4.4,7.7,13.3,11.7,22,9.8c3.9,4.3,9.4,6.8,15.2,6.8c8.9,0,16.7-5.7,19.5-14.1c5.7-1.2,10.6-4.7,13.5-9.8
		C81.6,49.4,80.6,39.7,74.6,33.1z M44.2,75.7c-3.6,0-7-1.2-9.7-3.5c0.1-0.1,0.4-0.2,0.5-0.3l16.1-9.3c0.8-0.5,1.3-1.3,1.3-2.3V37.6
		l6.8,3.9c0.1,0,0.1,0.1,0.1,0.2v18.8C59.4,68.9,52.6,75.7,44.2,75.7z M11.6,61.8c-1.8-3.1-2.4-6.7-1.8-10.2
		c0.1,0.1,0.3,0.2,0.5,0.3l16.1,9.3c0.8,0.5,1.8,0.5,2.6,0l19.7-11.4v7.9c0,0.1,0,0.2-0.1,0.2l-16.3,9.4
		C25.1,71.5,15.8,69,11.6,61.8L11.6,61.8z M7.4,26.6c1.8-3.1,4.6-5.4,7.9-6.7v19.2c0,0.9,0.5,1.8,1.3,2.3l19.7,11.4l-6.8,3.9
		c-0.1,0-0.2,0.1-0.2,0l-16.3-9.4C5.6,43.1,3.2,33.8,7.4,26.6L7.4,26.6z M63.4,39.6L43.7,28.2l6.8-3.9c0.1,0,0.2-0.1,0.2,0L67,33.7
		c7.3,4.2,9.7,13.5,5.5,20.7c-1.8,3.1-4.6,5.4-7.9,6.6V41.9C64.7,41,64.2,40.1,63.4,39.6L63.4,39.6z M70.1,29.4
		c-0.1-0.1-0.3-0.2-0.5-0.3l-16.1-9.3c-0.8-0.5-1.8-0.5-2.6,0L31.2,31.2v-7.9c0-0.1,0-0.2,0.1-0.2l16.3-9.4
		c7.3-4.2,16.5-1.7,20.7,5.6C70.1,22.3,70.7,25.9,70.1,29.4L70.1,29.4z M27.5,43.4l-6.8-3.9c-0.1,0-0.1-0.1-0.1-0.2V20.5
		c0-8.4,6.8-15.2,15.2-15.2c3.6,0,7,1.2,9.7,3.5c-0.1,0.1-0.3,0.2-0.5,0.3l-16.1,9.3c-0.8,0.5-1.3,1.3-1.3,2.3V43.4z M31.2,35.4
		l8.8-5.1l8.8,5.1v10.1l-8.8,5.1l-8.8-5.1L31.2,35.4z">
  </path>
 </g>
</svg>