<svg id="Layer_1" data-name="Layer 1" xmlns="http://www.w3.org/2000/svg" viewBox="0 0 215 127"><defs><style>.cls-1{fill:transparent;}</style></defs><title>kubernetes.io-logos2</title><rect class="cls-1" x="-3.16496" y="-4.09655" width="223.25536" height="134.51136"/><path d="M31.35558,46.00662a17.877,17.877,0,0,1,2.59366.88865,26.78738,26.78738,0,0,1,2.38982,1.63834,1.3043,1.3043,0,0,0,.8025.25519,8.67439,8.67439,0,0,1,9.76208,10.67991,1.0409,1.0409,0,0,0,.19922,1.02277,8.59831,8.59831,0,0,1-4.41,13.6442,1.10894,1.10894,0,0,0-.8313.73039,8.69985,8.69985,0,0,1-14.08167,3.03034,1.24423,1.24423,0,0,0-1.13036-.3618,8.65906,8.65906,0,0,1-9.583-10.78712,1.171,1.171,0,0,0-.20441-.87257,8.68023,8.68023,0,0,1,4.54239-13.78485,1.10279,1.10279,0,0,0,.63749-.53985,8.63756,8.63756,0,0,1,6.78184-5.43032,1.14366,1.14366,0,0,0,.25257-.11328ZM21.511,54.4775c-.3249.13991-.56274.22681-.78657.341a6.34462,6.34462,0,0,0-.50587,11.0386c2.24136,1.41389,4.58275,2.6708,6.89,3.97927a.77252.77252,0,0,0,.63363.02951c.87466-.46463,1.7251-.97453,2.64741-1.50534-.28092-.17071-.498-.30917-.72112-.4372-2.44442-1.4028-4.88534-2.81177-7.33818-4.19983a1.45814,1.45814,0,0,1-.829-1.43111c.03082-1.5839.00975-3.16881.00971-4.75331C21.511,56.5542,21.511,55.56932,21.511,54.4775ZM42.52482,71.75369c.12819.01809.17815.041.21407.02736a3.77769,3.77769,0,0,0,.38856-.17166,6.18883,6.18883,0,0,0,3.57632-5.336,6.02666,6.02666,0,0,0-2.97622-5.81866c-2.23-1.38489-4.53859-2.64437-6.82014-3.94594a.75341.75341,0,0,0-.57949-.10875c-.90732.48136-1.7907,1.00755-2.75836,1.563,2.73861,1.58427,5.34814,3.12116,7.98857,4.60336A1.70878,1.70878,0,0,1,42.5363,64.275c-.03566,1.91343-.01149,3.828-.01148,5.742ZM26.66618,64.38818c0-.37834-.00011-.62933,0-.88032.00136-2.79107.01285-5.5822-.003-8.37316a1.53112,1.53112,0,0,1,.86247-1.49259c1.53244-.85067,3.04311-1.7403,4.56246-2.61439.71164-.4094,1.42317-.819,2.28364-1.31419a3.84986,3.84986,0,0,1-.35485-.18479,6.26391,6.26391,0,0,0-6.27436-.77007A5.78218,5.78218,0,0,0,23.8406,53.7595c-.22091,2.84574-.10735,5.71753-.123,8.57812a.62649.62649,0,0,0,.22434.46962C24.80375,63.3323,25.68557,63.82473,26.66618,64.38818Zm-7.53163,3.4954A6.27748,6.27748,0,0,0,21.738,74.14993a6.1124,6.1124,0,0,0,6.77667.47187c2.322-1.22461,4.56987-2.5893,6.83973-3.91051a.78451.78451,0,0,0,.37213-.52123c.0365-.9803.0173-1.96266.0173-3.04763-.32437.173-.55077.28625-.77012.4118-2.42326,1.387-4.85358,2.76209-7.26248,4.17347a1.62584,1.62584,0,0,1-1.8475.00856c-1.72665-1.0306-3.48336-2.0112-5.22921-3.00978C20.16808,68.45969,19.6977,68.19976,19.13455,67.88358ZM44.845,58.46237a6.32328,6.32328,0,0,0-2.66686-6.33312,6.14733,6.14733,0,0,0-6.79158-.39548c-2.2774,1.21506-4.48958,2.55172-6.72578,3.84294-.15351.08865-.38019.24-.384.36782-.03127,1.04385-.01761,2.08905-.01761,3.23357.35383-.19266.5821-.31124.805-.43918,2.34222-1.34455,4.7021-2.66,7.01526-4.05259a1.94559,1.94559,0,0,1,2.28816.02153c1.8761,1.15349,3.80086,2.22841,5.70688,3.33349C44.29164,58.16732,44.51515,58.28262,44.845,58.46237ZM29.69354,76.566a4.3333,4.3333,0,0,0,.36274.31251,6.22651,6.22651,0,0,0,6.47153.55542,5.94526,5.94526,0,0,0,3.658-5.3337c.1171-2.68952.04621-5.38731.044-8.08149a.65535.65535,0,0,0-.18606-.49055c-.85741-.52815-1.73691-1.02068-2.74157-1.60088V62.833c0,2.43444-.09748,4.87417.03535,7.30139a2.86794,2.86794,0,0,1-1.803,3.11682C33.54854,74.23892,31.66606,75.43343,29.69354,76.566ZM28.09725,63.015a3.34441,3.34441,0,0,0,2.00294,3.41331,3.21128,3.21128,0,0,0,3.78883.02035,3.25273,3.25273,0,0,0,1.92944-3.33555A3.21023,3.21023,0,0,0,33.993,59.928a3.29247,3.29247,0,0,0-3.98607-.07639A3.24469,3.24469,0,0,0,28.09725,63.015Z"/><path d="M72.80781,46.00662c.78486.16,1.58007.2813,2.3529.48634a10.50217,10.50217,0,0,1,8.00771,9.58087,32.7324,32.7324,0,0,1-.15564,8.912,10.67144,10.67144,0,0,1-10.27014,8.98469,15.29573,15.29573,0,0,1-6.38223-.73556,10.03716,10.03716,0,0,1-6.76153-7.93475,28.77563,28.77563,0,0,1-.03242-10.3706,10.45557,10.45557,0,0,1,9.49963-8.78151,5.49888,5.49888,0,0,0,.60787-.14151ZM64.12408,59.988l.14073.004c0,1.206-.09365,2.42085.01917,3.61631.248,2.62779,1.28111,4.854,3.92408,5.83574a10.21555,10.21555,0,0,0,3.5456.53778c3.34141-.01738,5.872-2.01966,6.27655-5.31565a47.82173,47.82173,0,0,0,.16749-8.34172c-.198-3.7-2.447-5.94131-6.11014-6.2791-3.86934-.3568-7.05,1.40129-7.6993,5.70213C64.17762,57.14259,64.20537,58.57345,64.12408,59.988Z"/><path d="M197.30693,73.4077a5.11525,5.11525,0,0,1-.63.07651q-7.76169.00624-15.5234.00175c-.13951,0-.279-.01709-.46941-.02953V69.72011H186.403V50.38567h-5.717V46.57452h16.621v3.69133a6.67968,6.67968,0,0,1-.76734.09044c-1.44647.00884-2.893.00256-4.33957.006-.2488.0006-.49756.02335-.71238.03416V69.71637h5.81929Z"/><path d="M92.24412,71.003v9.285h-4.722V53.67519h4.4901v2.82523c.11959-.04373.1764-.04612.19405-.07355,2.01364-3.1297,5.00956-3.71173,8.35612-3.01251a7.299,7.299,0,0,1,5.94211,6.39432,20.276,20.276,0,0,1-.10235,8.11141c-1.39955,5.95438-8.07557,7.20457-11.76094,5.09972A17.23694,17.23694,0,0,1,92.24412,71.003Zm.08644-5.12024a4.57036,4.57036,0,0,0,4.264,4.28654c2.70324.18746,4.718-1.107,5.125-3.62462a25.136,25.136,0,0,0,.1371-5.29414,4.39693,4.39693,0,0,0-4.20522-4.304,4.59752,4.59752,0,0,0-5.176,3.63877,23.061,23.061,0,0,0-.27332,2.95288"/><path d="M177.683,73.4864c-1.55148,0-2.99806.02156-4.44243-.02521-.19736-.00639-.48123-.32031-.55929-.54823q-.79215-2.31294-1.5-4.65418a.64756.64756,0,0,0-.74163-.55141q-5.02051.02877-10.04125,0a.64253.64253,0,0,0-.73453.55344q-.72481,2.37181-1.53152,4.71819a.80606.80606,0,0,1-.53482.48531c-1.44547.04041-2.89259.02224-4.46178.02224.09235-.27932.15661-.48969.231-.69643q4.60979-12.80388,9.21345-25.60995c.15526-.43276.33187-.642.84508-.62578,1.35165.04262,2.70591.02455,4.05859.00085a.63106.63106,0,0,1,.724.48189q4.66768,13.00908,9.35855,26.00992C177.60435,73.15253,177.62469,73.26431,177.683,73.4864Zm-16.62052-9.61073h8.67531c-1.42788-4.4891-2.83613-8.91643-4.24437-13.34376l-.15253.00933C163.92295,54.96048,162.505,59.37972,161.06248,63.87567Z"/><path d="M136.47772,73.43719h-4.79054v-19.739h4.51562v3.06334a3.83031,3.83031,0,0,0,.34285-.45326,5.28894,5.28894,0,0,1,4.1492-2.98568,7.91585,7.91585,0,0,1,5.956.96605A6.27626,6.27626,0,0,1,149.4237,59.33c.14326,2.04838.1078,4.11021.12106,6.16633.01692,2.62279.00411,5.24578.00411,7.93h-4.77659c-.01129-.238-.03318-.4864-.03334-.73481q-.00336-5.2851-.00167-10.57022c0-.23646.00166-.473-.00379-.70937-.07642-3.31374-2.76895-5.10081-5.86656-3.86414a3.82917,3.82917,0,0,0-2.37656,3.92291c-.031,3.71233-.01147,7.42508-.01263,11.13766C136.47765,72.86685,136.47772,73.12538,136.47772,73.43719Z"/><path d="M124.58582,68.0132l2.92226,1.671a7.72345,7.72345,0,0,1-2.38918,2.66672,10.19947,10.19947,0,0,1-6.86,1.55,11.82341,11.82341,0,0,1-2.235-.39341,7.79264,7.79264,0,0,1-5.88312-7.48351,31.78234,31.78234,0,0,1,.30242-6.41684,7.68571,7.68571,0,0,1,7.18671-6.32283,14.78471,14.78471,0,0,1,4.16389.18484,7.66054,7.66054,0,0,1,6.26244,7.2147c.10085,1.451.01654,2.91487.01654,4.436H114.83183c-.55155,3.565,1.67586,5.7971,4.957,5.52283C121.66431,70.486,122.84625,69.80381,124.58582,68.0132Zm-9.888-6.1464h9.06565c.04417-1.843-.11829-3.59745-1.76923-4.70646a4.77574,4.77574,0,0,0-5.13509-.22241C114.93076,57.96492,114.74283,59.86148,114.69779,61.8668Z"/></svg>