<svg id="Layer_1" data-name="Layer 1" xmlns="http://www.w3.org/2000/svg" xmlns:xlink="http://www.w3.org/1999/xlink" viewBox="0 0 309.62261 406.05872"><defs><style>.cls-1{fill:url(#linear-gradient);}.cls-2{fill:url(#linear-gradient-2);}.cls-3{fill:none;}.cls-4{fill:#326ce5;}.cls-5{fill:#fff;}.cls-6{fill:url(#linear-gradient-3);}</style><linearGradient id="linear-gradient" x1="181.03953" y1="121.68655" x2="233.39507" y2="121.68655" gradientUnits="userSpaceOnUse"><stop offset="0" stop-color="#326de6"/><stop offset="1" stop-color="#10ffc6"/></linearGradient><linearGradient id="linear-gradient-2" x1="153.85614" y1="42.10942" x2="194.09936" y2="42.10942" xlink:href="#linear-gradient"/><linearGradient id="linear-gradient-3" x1="40.12711" y1="287.01745" x2="284.87318" y2="287.01745" xlink:href="#linear-gradient"/></defs><title>kubernetes-cluster-logos_final</title><path class="cls-1" d="M181.03953,108.61345s11.53627-18.62358,20.11178-16.11951,18.2463,1.24654,24.98727,17.43893c4.71691,11.33043,8.285,9.48286,6.98737,20.06374-1.72781,14.08826-11.77871,17.94986-11.77871,17.94986l-23.88945,3.16433Z"/><path class="cls-2" d="M153.85614,32.972s10.56531-16.373,16.89836-14.52375,13.00767-.29793,17.98591,11.66022c3.48346,8.36758,6.11853,7.00314,5.16021,14.81717-1.276,10.40425-11.78248,12.95917-11.78248,12.95917l-10.13169,3.58568-5.36572,4.44581Z"/><path class="cls-3" d="M149.90144,80.07874c.9021-.556.97245-1.0548.269-1.82675a5.79251,5.79251,0,0,0-1.07362-.91649,8.32891,8.32891,0,0,0-5.3464-1.17211,7.73515,7.73515,0,0,0-3.97028,1.44543l-.64554,6.81449a38.28848,38.28848,0,0,0,5.27481-1.60392A33.58911,33.58911,0,0,0,149.90144,80.07874Z"/><path class="cls-3" d="M154.68175,60.80739c-.62133-1.1659-1.20253-2.35415-1.76944-3.54789-1.01363-2.13432-1.85428-4.34033-2.674-6.55482-.16015-.43212-.28843-.9499-.95549-.8091a4.38931,4.38931,0,0,0-2.32415,2.74541c.01593.073.03807.19656.06973.3177.44484,1.70531.86486,3.41764,1.34384,5.11333A10.57716,10.57716,0,0,0,150.66,62.57425c1.70013,1.82489,1.85634,1.81755,3.68248.148A1.38665,1.38665,0,0,0,154.68175,60.80739Z"/><path class="cls-3" d="M148.0662,74.68382a12.00483,12.00483,0,0,1,3.67172,2.787c.16428.17111.31242.477.60126.35618.28263-.11814.18994-.44225.187-.68009a11.75047,11.75047,0,0,0-.63995-3.23722,6.76472,6.76472,0,0,1,.10076-4.18515,17.57246,17.57246,0,0,1,1.49012-3.47082c.168-.28356.52223-.60188.31657-.92941-.20256-.32267-.65382-.17628-.97245-.12714-2.0169.31118-3.18757-.60737-3.94277-2.426-.94389-2.27264-1.87868-4.54682-2.73609-6.85339-1.08935-2.93017-.80921-5.50634,1.84661-7.52448a1.62579,1.62579,0,0,0,.46781-2.25753A54.61947,54.61947,0,0,0,143.54,37.915l-.26525,2.79983a19.858,19.858,0,0,1,2.20435,4.48071,3.84468,3.84468,0,0,1-.74361,3.86962l-.78644-1.47533a4.26517,4.26517,0,0,1-1.54909,2.36264l-.39974,4.2196a3.00011,3.00011,0,0,1,2.72,1.39278c2.08725,3.34243,4.08325,6.74931,4.89245,10.67883a4.63015,4.63015,0,0,1-1.83151,4.84455c-2.28423,1.812-5.00377,2.65572-7.71546,3.50672l-.09145.96345q.51086-.28119,1.05149-.53547A8.07962,8.07962,0,0,1,148.0662,74.68382Z"/><path class="cls-3" d="M143.75515,44.89968c-.20815-.543-.48064-1.04321-.72913-1.55944l-.20236,2.13825,1.12536,2.11135A4.49724,4.49724,0,0,0,143.75515,44.89968Z"/><path class="cls-3" d="M147.18644,70.04855a2.65373,2.65373,0,0,0,1.2375-3.49781,21.87319,21.87319,0,0,0-1.32378-3.2365c-1.05831-2.22122-2.38456-4.30536-3.34129-6.578-.48291-1.14635-.86817-1.40353-1.90621-1.007l-.23028,2.43185.37263,14.36545A20.19078,20.19078,0,0,0,147.18644,70.04855Z"/><path class="cls-3" d="M155.05728,74.715a9.71888,9.71888,0,0,0,2.57947-6.70793c0-.47216.00207-.94431-.00186-1.41636a1.25052,1.25052,0,0,0-.0389-.28025c-.21621-.90562-.73906-1.10953-1.39205-.48188a9.91924,9.91924,0,0,0-2.63927,3.64513,6.65611,6.65611,0,0,0,.00228,4.97852C153.93255,75.32336,154.49781,75.39143,155.05728,74.715Z"/><path class="cls-3" d="M190.05158,33.90625a31.18407,31.18407,0,0,1-3.69138-5.925,13.82819,13.82819,0,0,0-5.91393-6.57738c-5.1124-2.79155-10.32845-2.44881-15.48181-.167-4.009,1.775-6.66851,4.998-8.69079,8.78122-3.40875,6.37678-4.30505,12.81429-.32877,19.32049a11.56552,11.56552,0,0,1,1.475,8.81194,7.97878,7.97878,0,0,0,1.45205,7.06235,3.66571,3.66571,0,0,1,.63747,3.14122,19.03946,19.03946,0,0,1-10.12381,13.94968L138.12984,97.05087c1.76489-.42788,2.33636-.04945,2.73879,1.73893.34615,1.53771.6143,3.0959,1.02935,4.61437a3.90614,3.90614,0,0,0,3.91214,3.21353c.21973.01966.43677.06683.6563.08514a22.70071,22.70071,0,0,0,11.38137-1.724c3.23474-1.45143,4.38368-4.38295,3.12094-7.67862-.90334-2.35736-1.912-4.66993-3.00548-6.945a1.81462,1.81462,0,0,1-.21022-1.63041,21.96921,21.96921,0,0,1,2.326-4.42226,21.09088,21.09088,0,0,0,3.95124-8.30751c.84355-3.36477,1.6571-6.73865,2.59044-10.07871a7.92746,7.92746,0,0,1,6.4821-6.14236c1.57868-.30332,3.1377-.70988,4.71534-1.01941.719-.141.851-.35184.38774-.96842-.64306-.85585-1.23894-1.75082-1.80276-2.6614-1.39887-2.2595-2.79879-4.51144-5.07349-6.03188-.12994-.08679-.29629-.19583-.24911-.3628.07531-.2666.34594-.22708.55533-.26194a3.66724,3.66724,0,0,0,3.01-1.84641c.36084-.70379,1.08417-.69179,1.7591-.58068a3.613,3.613,0,0,1,2.84037,2.72327,2.92512,2.92512,0,0,1-1.46177,3.37667c-1.11522.77289-1.2466,1.56234-.43388,2.61072a7.057,7.057,0,0,0,7.14564,2.01028,13.33065,13.33065,0,0,0,6.67058-5.90577c2.00076-3.28739,3.07708-6.77165,2.22546-10.64676A16.20957,16.20957,0,0,0,190.05158,33.90625Zm-9.39076,4.08749a1.26072,1.26072,0,0,1-1.35418.66488,1.38714,1.38714,0,0,1-1.24246-.87241,3.40429,3.40429,0,0,1-.17132-1.39308,4.00259,4.00259,0,0,1,.19677-1.48671,1.31369,1.31369,0,0,1,1.15121-.97369,1.36441,1.36441,0,0,1,1.3515.70565A3.6171,3.6171,0,0,1,180.66082,37.99374Z"/><path d="M136.66434,83.23175c-.01055,1.60154.11359,1.71141,1.67985,1.39091.26691-.05462.52513-.13852.79038-.19935l.64554-6.81449A7.12431,7.12431,0,0,0,136.66434,83.23175Z"/><path class="cls-4" d="M189.9833,30.87665a21.19065,21.19065,0,0,1-3.09735-5.29033,6.4597,6.4597,0,0,0-1.33909-2.14456,18.1334,18.1334,0,0,0-23.94521-2.08228c-3.31936,2.545-5.419,6.04419-7.14936,9.75377a20.81218,20.81218,0,0,0-.2758,17.86264c.51809,1.18339,1.13818,2.32178,1.68006,3.49523a6.39359,6.39359,0,0,1,.33022,4.96653c-.28056.793-.755.89527-1.21742.28573a12.287,12.287,0,0,1-2.12615-3.76813,77.44677,77.44677,0,0,0-6.19388-14.30111,26.92346,26.92346,0,0,0-2.87576-4.20449L143.54,37.915a54.61947,54.61947,0,0,1,4.91686,8.22071,1.62579,1.62579,0,0,1-.46781,2.25753c-2.65582,2.01814-2.936,4.59431-1.84661,7.52448.85741,2.30657,1.7922,4.58075,2.73609,6.85339.7552,1.81868,1.92587,2.73723,3.94277,2.426.31863-.04914.76989-.19553.97245.12714.20566.32753-.14856.64585-.31657.92941a17.57246,17.57246,0,0,0-1.49012,3.47082,6.76472,6.76472,0,0,0-.10076,4.18515,11.75047,11.75047,0,0,1,.63995,3.23722c.0029.23784.09559.56195-.187.68009-.28884.12084-.437-.18507-.60126-.35618a12.00483,12.00483,0,0,0-3.67172-2.787,8.07962,8.07962,0,0,0-7.04053.33912q-.54064.25418-1.05149.53547l-.19407,2.05041a7.73515,7.73515,0,0,1,3.97028-1.44543,8.32891,8.32891,0,0,1,5.3464,1.17211,5.79251,5.79251,0,0,1,1.07362.91649c.70348.77195.63313,1.2707-.269,1.82675a33.58911,33.58911,0,0,1-5.49206,2.74065,38.28848,38.28848,0,0,1-5.27481,1.60392L137.81245,98.3822c1.32915-.37957,1.47357-.30312,1.77027,1.08572a37.40642,37.40642,0,0,0,1.12266,4.3c1.14108,3.34005,2.75141,4.49447,6.25223,4.77772a24.65,24.65,0,0,0,11.86305-2.23767c3.77972-1.62512,5.30522-5.92438,3.6893-10.0905a28.92875,28.92875,0,0,0-1.9691-3.66313,9.74322,9.74322,0,0,1-.99335-2.34464,3.76135,3.76135,0,0,1,1.06369-4.04745c2.468-2.28774,3.61834-5.3494,4.69962-8.42534a39.83248,39.83248,0,0,0,2.12077-8.62335c.5185-4.51247,3.32453-6.71734,7.32709-7.87694,2.08994-.6055,4.1985-1.14542,6.263-1.8402a27.76476,27.76476,0,0,0,7.1537-3.40109,15.2229,15.2229,0,0,0,6.48893-9.433c.0811-.36767.19945-.72727.30042-1.09059V40.739C194.30263,36.94732,192.25014,33.85907,189.9833,30.87665ZM150.66,62.57425a10.57716,10.57716,0,0,1-2.28774-4.50223c-.479-1.69569-.899-3.408-1.34384-5.11333-.03166-.12114-.0538-.24466-.06973-.3177a4.38931,4.38931,0,0,1,2.32415-2.74541c.66706-.1408.79534.377.95549.8091.81975,2.21449,1.6604,4.4205,2.674,6.55482.56691,1.19374,1.14811,2.382,1.76944,3.54789a1.38665,1.38665,0,0,1-.33932,1.9149C152.51629,64.3918,152.36008,64.39914,150.66,62.57425Zm2.90472,6.89942a9.91924,9.91924,0,0,1,2.63927-3.64513c.653-.62765,1.17584-.42374,1.39205.48188a1.25052,1.25052,0,0,1,.0389.28025c.00393.472.00186.9442.00186,1.41636a9.71888,9.71888,0,0,1-2.57947,6.70793c-.55947.67647-1.12473.6084-1.49033-.26277A6.65611,6.65611,0,0,1,153.56467,69.47367ZM191.166,50.85613a13.33065,13.33065,0,0,1-6.67058,5.90577,7.057,7.057,0,0,1-7.14564-2.01028c-.81272-1.04838-.68134-1.83783.43388-2.61072a2.92512,2.92512,0,0,0,1.46177-3.37667A3.613,3.613,0,0,0,176.405,46.041c-.67493-.11111-1.39826-.12311-1.7591.58068a3.66724,3.66724,0,0,1-3.01,1.84641c-.20939.03486-.48-.00466-.55533.26194-.04718.167.11917.276.24911.3628,2.2747,1.52044,3.67462,3.77238,5.07349,6.03188.56382.91058,1.1597,1.80555,1.80276,2.6614.46326.61658.33125.82741-.38774.96842-1.57764.30953-3.13666.71609-4.71534,1.01941a7.92746,7.92746,0,0,0-6.4821,6.14236c-.93334,3.34006-1.74689,6.71394-2.59044,10.07871a21.09088,21.09088,0,0,1-3.95124,8.30751,21.96921,21.96921,0,0,0-2.326,4.42226,1.81462,1.81462,0,0,0,.21022,1.63041c1.09348,2.27511,2.10214,4.58768,3.00548,6.945,1.26274,3.29567.1138,6.22719-3.12094,7.67862a22.70071,22.70071,0,0,1-11.38137,1.724c-.21953-.01831-.43657-.06548-.6563-.08514a3.90614,3.90614,0,0,1-3.91214-3.21353c-.415-1.51847-.6832-3.07666-1.02935-4.61437-.40243-1.78838-.9739-2.16681-2.73879-1.73893l11.25579-14.74708a19.03946,19.03946,0,0,0,10.12381-13.94968,3.66571,3.66571,0,0,0-.63747-3.14122,7.97878,7.97878,0,0,1-1.45205-7.06235,11.56552,11.56552,0,0,0-1.475-8.81194c-3.97628-6.5062-3.08-12.94371.32877-19.32049,2.02228-3.78324,4.68182-7.00619,8.69079-8.78122,5.15336-2.28184,10.36941-2.62458,15.48181.167a13.82819,13.82819,0,0,1,5.91393,6.57738,31.18407,31.18407,0,0,0,3.69138,5.925,16.20957,16.20957,0,0,1,3.33984,6.30312C194.243,44.08448,193.16672,47.56874,191.166,50.85613Z"/><path class="cls-4" d="M179.24084,33.93273a1.31369,1.31369,0,0,0-1.15121.97369,4.00259,4.00259,0,0,0-.19677,1.48671,3.40429,3.40429,0,0,0,.17132,1.39308,1.38714,1.38714,0,0,0,1.24246.87241,1.26072,1.26072,0,0,0,1.35418-.66488,3.6171,3.6171,0,0,0-.06848-3.35536A1.36441,1.36441,0,0,0,179.24084,33.93273Z"/><path d="M141.85266,55.72924c1.038-.39653,1.4233-.13935,1.90621,1.007.95673,2.27264,2.283,4.35678,3.34129,6.578a21.87319,21.87319,0,0,1,1.32378,3.2365,2.65373,2.65373,0,0,1-1.2375,3.49781,20.19078,20.19078,0,0,1-5.19143,2.478l-.37263-14.36545Z"/><path class="cls-4" d="M151.22335,99.44144c4.81076,3.56867,9.52164,6.94743,12.75984,11.95605,4.98975,7.71774,7.66444,16.27311,9.61527,25.12386a21.30891,21.30891,0,0,0,2.20167,6.51252c.44934.75235.76746,1.9489,1.84894,1.79145,1.26364-.18394,1.38261-1.47011,1.54293-2.50005.49506-3.18034-.53533-6.084-1.80253-8.90572-1.74527-3.88627-2.6799-7.81837-1.08519-12.00469,1.01139,3.99829.62164,8.39833,2.89952,12.02621a11.71022,11.71022,0,0,1,1.144,10.18679c-1.26974,4.116-1.75879,8.02319.59536,11.98518,1.08,1.81772.50195,4.04419-.20874,5.85284-2.568,6.53524-6.82649,12.18492-13.28009,14.71793-28.5122,11.19091-56.22739,9.86077-82.52451-6.80424-3.33847-2.11566-6.36363-4.72572-10.54577-7.86664,5.39685,9.91659,11.07082,17.91295,18.98912,24.03658,2.28475,1.7669,2.88044,3.18441,2.01417,6.12539-2.78177,9.44407,4.98659,17.07386,14.69831,14.75332a20.41682,20.41682,0,0,1,4.01413-1.02254c3.58392-.08417,4.58671-2.09383,4.92626-5.29724.72922-6.87959,2.16656-7.80161,9.02157-5.8914,5.98208,1.667,12.00884,2.79338,18.19374,1.77915,4.23469-.69443,5.591,1.13224,5.29817,5.02441-.347,4.61239,1.73389,7.65283,6.15041,9.00858a25.4393,25.4393,0,0,0,17.15634-.81755c3.88358-1.54734,5.94928-4.80082,4.60448-9.34762-.697-2.35672-.9797-4.91072-2.07048-7.06052-2.193-4.32208-.66148-7.67743,2.225-10.72316a34.26315,34.26315,0,0,0,7.51112-12.57177c1.36207-3.91987,2.84841-7.79741,4.32687-11.67575,1.79964-4.72093,5.09356-7.46324,10.25046-8.04829,2.37025-.2689,4.92874.38418,7.32242-1.14431-.89218-1.68892-1.74076-3.29533-2.58936-4.90174l-.08377.07642c2.27314-1.03377,2.88953,1.23046,4.002,2.19576a6.85184,6.85184,0,0,0,6.368,1.65964c9.48228-2.00689,19.3529-16.11745,14.10423-26.319-2.72178-5.29015-5.67476-10.45894-7.69415-16.12371a13.99054,13.99054,0,0,0-5.82265-6.92176c-10.9988-7.07791-24.6321-4.7853-32.98334,5.50838-4.26167,5.25292-6.64264,11.27109-8.09735,17.757.76695-12.40094,6.71973-21.526,17.61943-27.32544,12.1948-6.48855,29.38508,1.24149,32.50778,14.61944.70589,3.02407,2.97284,4.92113,4.33366,7.45971,8.03,14.97991.57,28.83872-15.59235,33.41105-3.68009,1.04112-7.57612,1.30292-11.35717,2.007-5.79689,1.07952-9.94534,3.61876-11.77759,9.96871-2.458,8.51867-5.20477,17.043-12.54688,23.16244-3.04573,2.53852-1.042,6.2078.1337,9.05837,4.65217,11.27933,1.6605,16.92487-10.21189,18.6937-1.507.22453-2.99916.54931-5.907,1.08924a65.18109,65.18109,0,0,1,12.42988,11.853c3.336,3.88692,5.47506,8.40074,7.91146,12.85169A160.54708,160.54708,0,0,1,195.43151,266.391a17.88894,17.88894,0,0,0,3.67069,6.33646c.73014.83292,1.08759,2.75858,2.55642,2.03.84565-.41946,1.301-2.00693,1.56353-3.15306.98562-4.30261-.29639-8.28073-2.326-11.97341-11.67813-21.24738-6.8765-40.60256,6.934-58.72249,15.2024-19.94617,46.80144-18.52469,60.67949.09327.09176.12307.25228.21819.29277.35282,3.14218,10.44731,12.078,17.49227,16.12149,27.38978a33.75888,33.75888,0,0,1-11.45242,40.19023c-7.93992,5.7547-16.6366,8.32349-25.62126,10.88253-2.21809.63177-4.49528,1.0953-6.65631,1.88092-7.11224,2.58559-12.47346,6.50392-13.83374,14.8646-1.62818,10.00727-4.07412,19.87834-8.36073,29.19443a31.18618,31.18618,0,0,1-7.06574,10.1301c-3.04234,2.80394-3.21332,5.79361-2.0182,9.58705,1.754,5.56725,6.26232,9.68681,7.24207,15.73039,1.46234,9.02053-1.70675,15.7903-10.24494,19.114-7.92783,3.08611-16.01646,5.12933-24.73814,4.20143-7.7579-.8254-10.78716-2.72954-13.32523-10.37711a89.31678,89.31678,0,0,1-2.61-10.25725c-.34622-1.69417-.76029-2.52335-2.66627-1.898-11.63221,3.81675-23.49054,1.35-35.26579,1.19924-1.07678-.01378-2.15855-.011-3.2285-.1144-3.16226-.30557-4.44981.96706-4.19765,4.24019a20.6509,20.6509,0,0,1-5.08362,15.80787c-1.51155,1.73333-3.1704,3.107-5.3565,3.21689-9.08543.45668-18.2196.85945-26.64068-3.569-4.34509-2.285-7.13491-5.82309-7.47893-10.87317-.282-4.13935-.73523-8.36683.55943-12.37238.65706-2.03284-.12052-2.86959-1.5496-3.67717-16.55649-9.356-28.30109-23.43435-38.30382-39.17822-1.52884-2.40633-5.58534-5.10455-.21936-7.8739.18461-.09528.26-.565.24808-.85451-.3285-8.0029,4.78972-13.13282,9.27363-18.8871,3.45626-4.4355,4.25952-10.46095,5.74172-15.85627,7.48364-27.24087,19.86915-50.61288,47.24528-62.8183a24.442,24.442,0,0,0,2.4193-1.33687,6.81072,6.81072,0,0,0,.84178-.74061,9.31743,9.31743,0,0,0-1.39113-1.05845c-8.37939-4.1711-9.74655-6.62794-7.59984-15.70744.57942-2.45061.08086-3.62579-1.73984-4.96-9.34228-6.84606-15.14591-16.46114-20.20838-26.54577-2.07357-4.13061.77887-8.3471,3.08243-10.52569,7.42016-7.01762,9.63572-16.64758,14.02718-25.11088,4.98469-9.60656,11.54051-17.44285,20.91588-22.71224,2.54535-1.43059,2.90459-2.365,1.01313-4.34662l-.00322.01616c3.64732,1.79231,7.01852.81068,10.30463-1.02571l-.112-.15506c6.82482.38953,13.63809-1.11355,20.4797-.10651.89076.13112.94424-.99132.93527-1.76625l-.146.178c3.63431,3.919,8.12956,4.654,14.24905,1.87956M234.58079,253.7846c4.362-.45724,6.9848-1.15735,8.41252-4.23785.70062-1.51169,2.62425-1.86986,4.46622-1.14852,2.73687,1.07184,4.81372,2.66391,5.42662,5.7342.61644,3.088-.33483,5.44854-3.09051,7.02558-1.78368,1.02077-2.93273,2.39215-2.02764,4.52126,1.82816,4.30052,10.71178,8.03718,15.46492,6.508,7.61833-2.45092,12.84207-7.85661,16.66988-14.52275,5.797-10.0955,7.21985-20.38159.65241-30.96274-3.47617-5.60067-8.20185-10.31749-10.89618-16.47234-6.47847-14.7992-19.17874-22.05182-34.96033-20.29281-17.15823,1.91245-27.51675,12.43-34.25114,27.31371-5.72331,12.64906-6.16669,25.55085,1.11437,37.58138,3.70832,6.12722,5.16894,11.94383,3.68328,18.74986-1.296,5.93743-1.05579,11.60443,3.10641,16.55948,1.87286,2.22962,1.6223,5.00373,1.12726,7.52009-2.48082,12.61-9.32581,22.45858-20.434,28.71061-19.67014,11.07094-40.99867,16.06909-63.5811,16.5409-22.99307.48042-44.97106-2.90165-65.53373-13.84522-6.47511-3.44609-12.3629-7.71681-18.92824-12.23139,6.07007,11.905,22.40274,28.78563,35.45545,36.33036,3.29746,1.906,4.19252,3.67238,3.11151,7.28176-3.87331,12.93248,4.099,20.10714,12.30068,22.48451,4.17324,1.20971,8.49838,1.00348,12.82711.60491,11.24585-1.03548,13.26456-3.11537,13.3934-14.29321.10081-8.74693,2.29241-10.73766,10.92274-9.19307,11.62312,2.08018,23.19078,2.623,34.716-.39316,3.25579-.852,4.52072.65447,5.09743,3.49757.73187,3.60794,1.29437,7.27262,2.35228,10.78561,1.02,3.38717,3.4527,6.22691,6.93,6.69348,9.57683,1.28506,19.06153.5048,28.06193-3.36239,6.942-2.98276,9.864-9.64224,7.2288-16.74236-1.8683-5.0337-4.12956-9.92458-6.30672-14.83877-.624-1.40852-1.79369-2.80989-.91191-4.29985,1.64157-2.77377,2.28188-6.01936,4.38728-8.57634a47.30493,47.30493,0,0,0,9.48459-19.76879c1.56152-6.73862,3.43624-13.40448,5.15632-20.10664,1.93576-7.5425,6.01023-12.96928,14.10888-14.574,4.26066-.84426,8.49048-1.84433,13.10717-2.8557C246.15634,268.51879,243.87781,259.25274,234.58079,253.7846Zm-36.083,35.64251c-8.99669.93715-9.06232.96639-12.82385-7.4794-1.74884-3.9267-3.25207-7.96764-4.7494-12.00031-2.25079-6.06185-2.38472-11.6724,3.37856-16.16446,1.50023-1.1693,3.044-2.67837,1.83087-5.12684-6.62655-13.37378-14.47173-25.75492-27.28847-34.18441-2.32972-1.53225-4.12694-2.11105-6.764.22288-10.5659,9.35129-29.3818,8.36121-40.25449,1.495a7.31587,7.31587,0,0,1-3.25861-4.30373c-.21533-.74132-.2512-2.1568-1.52573-1.86382a7.59208,7.59208,0,0,0-4.29118,2.5437c-.871,1.09024.03419,1.87627.76377,2.74809a27.03262,27.03262,0,0,0,13.182,8.78134c6.0432,1.82651,6.8089,3.0852,5.893,9.30454-1.3961,9.48035-4.3444,18.54691-7.40751,27.57956-2.25154,6.63941-5.64429,9.52263-12.41438,8.64443C88.92888,267.82846,76.146,263.3699,66.659,252.27641c-.70634-.826-1.198-2.60426-2.77154-1.437-1.34582.99832-2.6875,2.334-1.81037,4.28561a9.62088,9.62088,0,0,0,1.95957,2.5274c4.18434,4.35147,9.87808,6.083,15.18309,8.34873,4.91875,2.10081,7.39333,5.60506,8.45607,10.63464,2.04254,9.66666-1.0719,18.2129-5.64624,26.38385-1.48744,2.65692-3.85279,3.71692-7.37589,3.25134-4.229-.55887-8.00532-2.4845-12.7572-3.56111,5.91286,7.37744,8.59742,14.68231,4.27084,23.09743-1.18271,2.30032.85074,2.61395,2.02026,3.27079,1.7644.99094,2.02891-.51021,2.334-1.7222,1.70893-6.78826,5.79543-11.76014,12.88264-11.95562,12.23056-.33734,26.05429,4.372,27.35631,20.54716.09393,1.16688-.72062,3.19863,1.43735,3.27164,1.79244.06067,1.28842-1.78557,1.52642-2.86119,3.01265-13.61552,14.0092-16.3595,23.69418-15.393,7.96076.79447,14.96026,3.69778,17.87167,12.25039.29421.8643.561,2.2089,2.22924,1.64552-1.52863-8.6797.006-16.25967,8.1573-21.13817,4.67015-2.79509,9.57325-4.97182,15.28668-3.96933,5.531.97047,9.3906,4.56132,13.46384,9.13908,1.47052-5.93143-2.36027-10.4132-1.6248-15.48437C193.5491,298.26,195.88372,293.90753,198.49781,289.42711Zm-95.90372-23.44884c5.80863-.56453,8.81513-1.556,10.19444-7.28835q2.68842-11.17318,5.70158-22.26747c1.84832-6.81369,1.89758-6.70821-4.45484-9.67724-5.21733-2.43851-11.179-4.00375-13.76066-10.01264-1.45449-3.38532-3.53607-3.30622-6.18177-1.57749A84.284,84.284,0,0,0,67.23241,243.0695c-1.40247,2.37-1.37914,4.45662.66187,6.65723C77.285,259.85184,89.48285,263.86294,102.59409,265.97827ZM85.04147,277.47c.85213-2.81155-1.50178-4.81084-5.18033-6.41193a74.06259,74.06259,0,0,1-15.48429-9.00647c-4.56365-3.49012-5.31943-3.5047-7.06382,1.90426-2.35127,7.29073-4.255,14.725-6.41407,22.0791-.46368,1.57929.24523,2.567,1.149,3.70291,5.689,7.14965,13.628,10.753,21.81774,13.96943,1.91643.75264,2.95832-.26917,4.19354-1.73271C83.712,295.27682,84.14346,287.1357,85.04147,277.47Zm3.45624,41.23181c-6.98787-.24332-11.1908,1.47527-13.64867,6.27385-2.13724,4.17262-1.19849,6.6254,3.22212,8.14019,8.00466,2.74285,16.29492,4.36444,24.57853,6,3.3732.666,4.54151-1.03305,4.48167-4.02695a12.94547,12.94547,0,0,0-2.065-6.95329A20.3177,20.3177,0,0,0,88.49771,318.70181Zm-22.94154-.95716c-.08615-7.73432-10.16084-18.08989-17.91464-18.414-6.8301-.28558-9.94465,4.81118-6.84956,11.00362,3.40542,6.81332,9.88483,9.78015,16.08192,13.07336C62.09074,326.17987,65.62364,323.80272,65.55617,317.74465Zm94.01856,11.34941c.3289,1.62012-1.12871,4.58269,2.92618,3.78135a79.28421,79.28421,0,0,0,26.898-10.45067c1.83088-1.14176,1.84853-2.01528.60677-3.56866-3.83585-4.79853-11.94628-6.6035-19.1177-4.14465C164.449,316.91909,159.7008,322.88646,159.57473,329.09406Zm-33.60222,10.42541c6.32876-.34943,13.9587-.85446,21.58166-1.96276,4.55368-.66208,4.12834-2.42417,2.37124-5.23648-6.19795-9.91993-23.46253-10.52819-30.26122-1.04785-1.53516,2.14064-3.031,4.86088-1.9111,7.239.99188,2.10628,3.91731.68615,5.96224,1.00173C124.01561,339.55939,124.3292,339.51947,125.97251,339.51947Zm3.87163-133.06636c-5.47807-.13731-11.03675.07966-16.42939,2.45756-2.14423.94551-2.34438,1.523-1.11416,3.08692a12.87169,12.87169,0,0,0,2.54879,2.63759c7.243,5.09753,27.07932,3.94462,33.98644-1.73592,2.49475-2.05174,1.94084-3.23181-.7064-3.92716C142.2094,207.41717,136.36607,205.16194,129.84414,206.45311ZM182.063,262.4166c2.02354,6.26015,2.75441,12.63149,5.61931,18.29984a26.45411,26.45411,0,0,0,4.25408,5.39559c1.40433,1.5572,3.14972,2.12506,4.7366.28454,1.44116-1.67154,4.74536-2.48771,2.94577-5.8329a161.98471,161.98471,0,0,1-9.82608-22.35414c-.38339-1.07387-1.05969-2.89263-2.4337-2.093A11.45807,11.45807,0,0,0,182.063,262.4166Zm-51.21553-59.06692a112.63165,112.63165,0,0,1,15.90525,2.35661c1.13857.23106,2.78709,1.46836,3.32565.44713,1.19855-2.27272-.41784-4.72256-.4751-7.13953-.03524-1.48684-1.172-1.62076-2.309-1.469-6.64443.8873-13.09187-.58309-19.60041-1.50634-6.62371-.9396-6.81426-.61211-7.44316,6.097-.16693,1.78093.39121,2.15842,1.94489,2.00066C125.08409,203.843,127.97845,203.60728,130.84745,203.34968Zm64.888,101.19356c.01192,2.14429-.13453,4.29235,1.13687,6.23689.91138,1.39385,1.69185,2.13673,3.10459.49426,4.634-5.38751,7.01841-11.477,5.95047-18.65522-.39-2.62129-1.80269-3.23076-3.655-1.264C198.77958,295.064,195.44043,298.925,195.73541,304.54324Zm-150.08569-9.9784,7.75507,1.84125C49.04162,291.08633,48.55878,290.97154,45.64972,294.56484Z"/><path class="cls-4" d="M116.67292,25.97556c-1.13619,3.82663,1.17772,5.80269,4.20727,6.76349,2.98817.94768,3.39488,2.86043,2.79371,5.2746a96.75911,96.75911,0,0,1-3.27184,11.00707c-.97577,2.56814-3.40488,2.73124-5.84934,2.29044-4.94626-.89194-9.40812-2.73352-12.9179-6.47947-.5088-.543-1.07205-1.393-1.83512-.77259-.90017.7319-.36048,1.62016.22216,2.41195,1.27,1.72583,3.29023,2.34345,5.08345,3.00942,3.32318,1.23418,4.44718,3.77518,4.44469,6.80235-.00292,3.56474-.78612,7.10548-3.63147,9.62151-1.90267,1.68246-3.73081-.71687-6.13139-.42366,1.49928,3.16256,1.59555,6.4665,1.08087,10.32134,2.29269-4.72033,5.54069-6.64809,10.43479-5.19621,4.34969,1.29038,7.10134,3.86838,7.15914,9.19551,5.97552-8.784,11.89861-9.40162,18.73125-2.29877.64891-3.08146,1.05079-6.17395,4.117-7.76657.50122-.26035.888-.98465-.23919-1.01222a3.73648,3.73648,0,0,0-1.261.46465c5.189-5.16967,8.55368,1.45807,13.02487,2.00865.153-2.43682-1.73384-5.06257.52595-7.29525l-.11446-.10833c.37951,1.71226-.888,3.84349.82094,5.12738,1.29491.97284,1.74416-1.36573,2.97978-1.35675l-.08688-.06091c-.42326,3.33008-2.7565,5.37816-5.23821,7.05532-14.66823,9.91288-43.40664,9.18533-57.63772-1.34921-.714-.52851-1.60114-.93379-1.7373-1.98442,1.5041.71853,3.03692,1.38993,4.50992,2.17374,1.41521.75307,2.48491.37707,2.89712-1.04757,1.11016-3.83679-1.36492-6.01253-4.0231-7.99248-1.7355-1.29268-3.75819-1.98479-5.3598-.05834-2.28768,2.75163.51529,4.35755,1.7882,6.27028a4.96619,4.96619,0,0,1,.35964.8283c-3.86891.42383-4.82895-.93164-4.12241-4.59433,1.04626-5.42365,5.707-8.88776,7.13373-14.03821-.28857,2.21336-1.89738,4.586-.55135,6.60348,2.089,3.13106,5.367,5.8747,9.03433,5.50835,3.50785-.35044,3.47834-4.47948,4.03931-7.437.53142-2.80174.07507-5.01544-3.026-6.23227a20.94668,20.94668,0,0,1-5.01266-3.19346c-1.3379-1.04641-2.20816-.495-3.14724.43158,1.04373-3.672,1.6724-7.56522,5.26513-9.87856-2.17941,2.99976-.69939,4.82382,1.75839,6.829,3.11083,2.538,6.75889,3.54322,10.4408,4.48121,2.93059.74658,5.06967-.37837,5.86421-3.54685.74243-2.9607,1.5628-5.903,2.41507-8.83422.22489-.77347.51536-1.8754-.1201-2.10317-3.84826-1.37933-6.14261-5.10179-9.971-6.45291,1.382-.98582,2.76391-1.97164,4.14648-2.94215C116.66623,26.01466,116.67292,25.97556,116.67292,25.97556Zm-8.21777,45.30538c-2.2237.20392-4.27161,1.02537-4.76272,3.44586-.53252,2.62457,1.85164,2.69734,3.51419,3.23779a22.1129,22.1129,0,0,0,4.39869,1.215c1.67344.17558,3.93472,1.83885,4.9651-.22066,1.18127-2.36115-.62754-4.35121-2.49131-5.80648A9.6,9.6,0,0,0,108.45515,71.28094Zm17.16837,9.16247a14.52971,14.52971,0,0,0,3.66931-.4622c1.75271-.69382,5.15641.87457,5.06094-1.98711-.08523-2.55454-3.14763-3.436-5.68625-3.81433a6.572,6.572,0,0,0-4.04525.62023c-1.70019.8762-3.4515,2.14344-3.17246,4.13293C121.80085,81.43583,124.21029,79.90474,125.62352,80.44341Zm19.593-10.37652c-2.22764-.11367-4.32785,1.19156-6.0287,3.34245a3.28657,3.28657,0,0,0-.59478,3.41939c.67287,1.53712,2.12608.82576,3.18793.5408a33.74191,33.74191,0,0,0,7.63273-2.89806c2.53515-1.39523,1.53512-2.38645-.12343-3.503A6.94644,6.94644,0,0,0,145.21652,70.06689Z"/><path class="cls-4" d="M153.36079,63.9018c.39262-2.06675.92166-3.77383-2.4679-3.97368-4.20587-.248-3.74675-4.526-5.049-7.237.52958-.30992,1.98106.34685,1.583-.72988-.9073-2.45436.73108-3.81761,1.76662-5.47834-2.27425,2.973-.18918,5.81389.36111,8.63688.39934,2.04869,1.47621,4.60763,3.98063,3.90012,2.84022-.80237.85164-3.23125.62878-4.994-.05673-.4488-.06382-.90387-.09372-1.35607.69215,1.41762,2.12751,1.41127,3.37637,1.76225l-.00245-.01333c-.76794,2.04023-.16825,3.8323.71567,5.73281,1.21513,2.61263,1.52211,5.28377-1.19979,7.3516l.08688.061c.125-.89506.229-1.79372.38-2.68439.2027-1.19519.77978-2.7073-.32492-3.427-1.50332-.97946-1.86.99174-2.7431,1.64543-.35046.25941-.74065.46515-1.11275.69533Z"/><path class="cls-4" d="M140.34147,29.6862c-1.54173.0255-2.77243-1.04287-4.68788.03944-7.46063,4.21558-13.30282,2.88957-18.97715-3.73534-.00352-.01474-.01021.02436-.01082.00906.8134.79184,1.99455-.31372,2.90513.70351a11.47664,11.47664,0,0,0,13.65251,2.94c.80714-.38984,1.86683-.68432,1.78285-1.77462-.09309-1.20859-1.31859-.99783-2.12955-1.29492-3.46261-1.26855-7.18492.03072-10.633-1.14127,6.55239-.84135,12.94441-.9127,18.15648,4.19111Z"/><path class="cls-4" d="M125.88221,40.13682c-.28922,1.65891-.48429,3.34095-.88539,4.97235-1.17735,4.78879-.49041,5.77011,4.32026,6.08068,4.55144.29383,8.73461-1.09648,13.29742-3.14445-3.5198,3.672-13.5007,5.58045-17.11185,3.65888A2.56086,2.56086,0,0,1,123.87,49.16187c.33847-3.05267-.51351-6.40582,2.08732-8.93319Z"/><path class="cls-4" d="M110.67723,97.33294c-4.29562.63934-6.55857-.73261-6.24129-4.745.35067-4.43449-1.303-7.04629-4.91316-9.28466a17.20859,17.20859,0,0,1-6.64015-7.56737c3.86524,3.47529,7.45972,7.25023,11.73473,10.255,1.64326,1.155.53242,3.17135.55629,4.78038.05541,3.73435,1.59238,6.10585,5.48776,6.58931A.05654.05654,0,0,0,110.67723,97.33294Z"/><path class="cls-4" d="M146.00085,52.8561c-4.70565-1.845-11.70794,2.30468-11.89694,7.07054-.07839,1.97694.04119,3.96832-.1441,5.93287-.272,2.88437,1.01654,3.89486,3.726,3.4962-3.05255,1.997-4.53955.89988-4.656-2.476a74.89786,74.89786,0,0,1,.041-8.67685c.44464-5.426,6.02322-4.76741,9.04045-7.16C143.52089,49.925,145.33855,50.84686,146.00085,52.8561Z"/><path class="cls-4" d="M120.97864,96.32339c.04385-.60908.10759-1.21749.12846-1.82736.201-5.87316.61214-6.26837,6.44558-5.58283,3.00836.35354,5.9119,1.13214,9.05123.49626,5.16907-1.047,5.5719-.53347,5.53149,5.0639l.14617-.17782c-.93455-3.782-2.86688-5.56018-6.98553-3.93115-1.17545.46492-2.71421.07567-4.08008-.01584-7.81879-.52388-7.81815-.53349-10.34936,5.81978Z"/><path class="cls-4" d="M125.95731,40.22868c-1.06164-3.98241.12594-6.15844,4.583-6.28538,2.08974-.05952,4.31823-.2997,6.09735-1.75031,1.172-.95559,2.20057-.8,3.33675.56516-3.88714.70923-7.136,2.81726-11.16131,2.73223-2.56589-.0542-2.0252,3.00538-2.943,4.63339C125.88221,40.13682,125.95731,40.22868,125.95731,40.22868Z"/><path class="cls-4" d="M140.4,29.6232c4.6751,2.08689,6.78843,6.24763,8.37975,10.834-2.35709-3.96435-5.68537-7.13193-8.43795-10.77136Z"/><path class="cls-4" d="M119.60224,71.17666c-7.62335-.60647-9.751-2.58341-9.30507-7.97408C110.45921,68.61781,114.96,69.36349,119.60224,71.17666Z"/><path class="cls-4" d="M157.44674,54.432a18.1574,18.1574,0,0,0-1.70841-6.543c-.97087-1.99665-2.46219-3.87495-1.941-6.39348,1.294,4.27917,5.06029,7.813,3.64866,12.91592A.06818.06818,0,0,0,157.44674,54.432Z"/><path class="cls-4" d="M141.96407,299.46466a85.338,85.338,0,0,0,.06308,9.21762c.4962,4.54294-1.72339,7.37313-5.65645,8.26686-14.36369,3.26386-28.57147,3.81636-41.96343-3.94942-5.27622-3.05961-6.84569-7.7021-5.44552-13.27626,1.83118-7.29007,3.98594-14.5042,6.19467-21.69163.92454-3.0085,3.60127-3.67729,6.36681-3.32359,8.37023,1.07049,16.73874,2.18479,25.06446,3.54755a10.19372,10.19372,0,0,0,4.4223-.5028c5.38472-1.3338,9.89692,1.50016,10.9256,6.9759C142.85259,289.61008,142.37,294.54671,141.96407,299.46466Zm-2.29721-1.3629c0-4.15758-.2795-7.25094.06081-10.27452.62237-5.52985-1.52462-7.7772-6.95936-6.422a16.55573,16.55573,0,0,1-7.26141.26393c-7.82533-1.48544-15.6419-3.01771-23.4736-4.46851-2.33015-.43164-4.53928-.697-5.35039,2.57342q-2.53953,10.23964-5.498,20.37372c-.9912,3.4095-.14766,5.891,2.62063,8.05159C106.701,318.264,120.898,319.3642,135.97205,314.42714c3.74377-1.22614,4.40371-4.34867,4.23086-7.78537C140.04147,303.43181,139.8025,300.22578,139.66686,298.10176Z"/><path class="cls-4" d="M139.69281,150.92248c-.61029,4.03292-1.29931,8.57688-1.9851,13.12136-.379,2.51174-2.45812,3.258-4.36467,3.36433-8.289.46235-16.51054.367-23.90793-4.37231-4.14091-2.653-5.23858-6.159-3.51179-10.62078,1.38121-3.56893,2.99719-7.04927,4.31088-10.64136,1.05144-2.875,2.90269-3.6682,5.73424-2.96554,6.34191,1.57376,12.57566,3.43932,19.22609,3.79789C139.62388,142.84487,139.64443,146.92905,139.69281,150.92248Z"/><path class="cls-4" d="M170.60435,73.23227l-.00005.002L162.52,38.12a6.31117,6.31117,0,0,0-3.38391-4.20978l-32.7228-15.62341a6.30546,6.30546,0,0,0-5.43124,0L88.2663,33.91834a6.30942,6.30942,0,0,0-3.38493,4.20978L76.81022,73.24133a6.17771,6.17771,0,0,0-.002,2.69547,6.26456,6.26456,0,0,0,.22815.79749,6.08,6.08,0,0,0,.62287,1.265c.11106.16955.22815.33415.35537.49362l22.64568,28.15569c.09891.12215.20794.23423.316.34833a6.23008,6.23008,0,0,0,1.19428.98933,6.46028,6.46028,0,0,0,1.78991.77834,6.17,6.17,0,0,0,1.591.21909h.35233l35.9634-.0081a6.02864,6.02864,0,0,0,.65416-.03834,6.25042,6.25042,0,0,0,.92268-.17569,6.43677,6.43677,0,0,0,.64111-.2049c.16352-.06259.327-.12519.48455-.2009a6.47571,6.47571,0,0,0,.68648-.3816,6.17237,6.17237,0,0,0,1.50214-1.32956l.69059-.85811,21.94711-27.30264a6.11826,6.11826,0,0,0,.97824-1.75658,6.34469,6.34469,0,0,0,.23214-.79951A6.16331,6.16331,0,0,0,170.60435,73.23227ZM89.3,73.03053a1.9574,1.9574,0,0,1,.104-1.47865c.07208.72373.1674,1.43972.27739,2.15076A1.95877,1.95877,0,0,1,89.3,73.03053ZM123.29886,29.689a1.47556,1.47556,0,0,1,.72016-.01931C123.77888,29.67566,123.5378,29.678,123.29886,29.689Z"/><path class="cls-5" d="M155.12012,69.03069c-.16388-.03752-.39688-.10169-.55682-.13131a16.171,16.171,0,0,0-1.8363-.14806,17.90979,17.90979,0,0,1-3.43468-.56372,2.15328,2.15328,0,0,1-.82633-.83127l-.773-.2251a24.88388,24.88388,0,0,0-3.98853-17.23563c.19745-.17968.57261-.5114.6782-.60914a1.5144,1.5144,0,0,1,.35936-1.085,17.92192,17.92192,0,0,1,2.84825-2.00115,15.92661,15.92661,0,0,0,1.59146-.928c.1234-.09181.29223-.237.42156-.34061a1.92515,1.92515,0,1,0-2.38518-2.99438c-.13032.10268-.308.23793-.42453.33863a15.88452,15.88452,0,0,0-1.26564,1.33873,17.93856,17.93856,0,0,1-2.58169,2.33585,2.12849,2.12849,0,0,1-1.162.12638l-.72859.52028a25.09823,25.09823,0,0,0-15.89687-7.68089c-.01777-.2547-.03949-.71576-.04641-.855a1.51743,1.51743,0,0,1-.62493-.95764,17.93936,17.93936,0,0,1,.2172-3.47417,15.93126,15.93126,0,0,0,.26063-1.82051c.00594-.154-.00295-.37813-.00295-.545a1.92516,1.92516,0,1,0-3.83057.002c0,.01776.00395.03554.00493.05331-.002.15894-.00986.35146-.00493.49067a16.09649,16.09649,0,0,0,.26162,1.82149,17.91294,17.91294,0,0,1,.21325,3.47318,2.088,2.088,0,0,1-.622.99022l-.04542.81055a24.98,24.98,0,0,0-3.46232.53213,24.63512,24.63512,0,0,0-12.51255,7.14875q-.34949-.2409-.69206-.49067a1.5125,1.5125,0,0,1-1.13732-.11057,17.871,17.871,0,0,1-2.5817-2.33291,16.00143,16.00143,0,0,0-1.26073-1.33872c-.11653-.09971-.29516-.23593-.42551-.33962a2.28249,2.28249,0,0,0-1.33481-.50349,1.84514,1.84514,0,0,0-1.5263.67528,2.02981,2.02981,0,0,0,.47091,2.82359l.02961.02073c.12539.10268.2794.234.3959.31889a15.997,15.997,0,0,0,1.58755.929A17.86358,17.86358,0,0,1,101.33812,48.24a2.1276,2.1276,0,0,1,.385,1.10475l.61309.54792a24.78218,24.78218,0,0,0-3.90758,17.27707l-.80166.233a2.648,2.648,0,0,1-.82338.8293,17.87439,17.87439,0,0,1-3.43271.5657,16.003,16.003,0,0,0-1.83729.14806c-.1471.02665-.35146.079-.5114.11844l-.01678.00395-.02765.0079a1.9222,1.9222,0,1,0,.851,3.73184l.02866-.00394c.01284-.003.0237-.00987.03653-.01184.158-.03555.3564-.074.49561-.11157a16.14865,16.14865,0,0,0,1.71784-.65849,17.93508,17.93508,0,0,1,3.33891-.98232,2.12372,2.12372,0,0,1,1.1008.389l.83522-.14314a24.92234,24.92234,0,0,0,11.04445,13.78908l-.34851.83523a1.9003,1.9003,0,0,1,.1708,1.083,18.70714,18.70714,0,0,1-1.73363,3.11486,15.96565,15.96565,0,0,0-1.02675,1.53023c-.076.14415-.17277.3653-.24583.51635a1.92318,1.92318,0,1,0,3.45838,1.64083l.003-.004v-.004c.073-.15006.17575-.34652.23689-.48671a15.83272,15.83272,0,0,0,.55287-1.75535,13.3946,13.3946,0,0,1,1.48286-3.44064,1.55583,1.55583,0,0,1,.82535-.4028l.43439-.78486a24.78417,24.78417,0,0,0,17.673.04441c.12142.2172.34849.63186.40872.73647a1.51349,1.51349,0,0,1,.97738.59433,17.83686,17.83686,0,0,1,1.315,3.22045,16.01133,16.01133,0,0,0,.55582,1.75535c.0622.14117.1639.34061.237.49067a1.92417,1.92417,0,1,0,3.46232-1.63688c-.073-.151-.17376-.37219-.24978-.51535a15.914,15.914,0,0,0-1.02674-1.5263,17.86549,17.86549,0,0,1-1.698-3.04066,1.5037,1.5037,0,0,1,.1471-1.12943,6.58677,6.58677,0,0,1-.31887-.773A24.92146,24.92146,0,0,0,146.759,71.24909c.2478.03949.67924.11452.81942.14316a1.51441,1.51441,0,0,1,1.07117-.39787,17.91467,17.91467,0,0,1,3.33991.98232,15.944,15.944,0,0,0,1.71882.66344c.13822.03654.33566.07108.49461.10565.01284.00394.02469.00986.03753.01282l.02764.00395a1.92219,1.92219,0,1,0,.852-3.73184ZM136.9229,49.52439l-8.1844,5.80214-.02866-.01284a1.68959,1.68959,0,0,1-2.68337-1.28838l-.00889-.00394-.56866-10.0306A19.89834,19.89834,0,0,1,136.9229,49.52439Zm-15.418,10.99413h3.08024l1.91529,2.39411-.68713,2.98645L123.047,67.2299l-2.77428-1.33377-.68812-2.98745Zm-2.89861-16.17625a20.27422,20.27422,0,0,1,2.04363-.35152l-.56964,10.04543-.04147.01974a1.68821,1.68821,0,0,1-2.67942,1.2943l-.0158.00889-8.23768-5.84063A19.72545,19.72545,0,0,1,118.60628,44.34227ZM106.11843,53.273l7.52095,6.72621-.0079.04146a1.68822,1.68822,0,0,1-.66344,2.90156l-.0079.03258-9.6406,2.7821A19.71857,19.71857,0,0,1,106.11843,53.273Zm10.07,17.86941L112.35792,80.398a19.8282,19.8282,0,0,1-7.95732-9.95949l9.88444-1.6783.01679.02173a1.65772,1.65772,0,0,1,.33171-.02961,1.68822,1.68822,0,0,1,1.52631,2.35266Zm11.30611,11.90341A19.8016,19.8016,0,0,1,116.688,82.49l4.86128-8.79057h.00789a1.6902,1.6902,0,0,1,2.97561-.003h.03652l4.87312,8.80538Q128.49371,82.81878,127.49459,83.04584Zm6.28091-2.61032-3.87006-9.35034.01185-.01679a1.69019,1.69019,0,0,1,.81843-2.18875,1.6724,1.6724,0,0,1,.64668-.16784,1.63,1.63,0,0,1,.388.02866l.01677-.02073L141.7595,70.405A19.7531,19.7531,0,0,1,133.7755,80.43552ZM142.807,65.72435l-9.68892-2.791-.00889-.04049a1.69018,1.69018,0,0,1-.66245-2.90254l-.00394-.01974,7.47948-6.69358A20.09267,20.09267,0,0,1,142.807,65.72435Z"/><path class="cls-6" d="M235.38715,253.9947a4.11289,4.11289,0,0,1,1.08285-.46111c2.85967-.36239,5.20136-1.4017,6.76181-4.06969.96381-1.64787,2.79371-1.56165,4.41444-1.02586,3.05847,1.0111,5.151,2.95445,5.76125,6.29054.57555,3.14646-.849,5.2266-3.2753,6.97233-2.50621,1.80322-2.61061,3.69089-.51724,6.01825,3.92428,4.3629,11.268,5.95755,16.54109,3.33311,10.6116-5.28148,15.91224-14.46541,18.29539-25.63838a20.63963,20.63963,0,0,0,.35436-5.88159c-.50359-6.644-3.6573-12.07367-7.537-17.19751A84.89592,84.89592,0,0,1,268.55,208.40708c-4.41222-9.00816-11.37443-15.32789-21.43126-17.33105-12.71861-2.53333-24.23962.31026-34.00482,9.01384-7.10263,6.33048-11.48554,14.46037-14.42392,23.40518-3.60547,10.97557-2.60921,21.49133,3.35717,31.45145,3.67234,6.13053,5.1244,12.545,3.59453,19.72175-1.19394,5.60084-.69788,11.10582,3.295,15.80884a6.77373,6.77373,0,0,1,1.32354,5.60692c-2.11742,13.33536-8.64346,23.80126-20.49018,30.517-27.51938,15.6004-57.24808,19.22125-88.176,15.70905A114.85772,114.85772,0,0,1,45.6245,320.49117a5.6405,5.6405,0,0,0-2.64184-1.44953,4.07684,4.07684,0,0,0,1.12191,2.41552A109.7653,109.7653,0,0,0,76.297,352.88349c4.13989,2.61884,4.71252,3.92553,3.53048,8.7234C77.2144,372.213,82.3589,380.7195,93.027,383.09739c5.78421,1.28927,11.62286.76121,17.37551-.40726,4.87121-.98939,6.53779-3.02648,7.28757-8.01614.41086-2.7343.2637-5.48356.49968-8.21519.457-5.28982,3.2075-7.47915,8.461-6.80782,1.276.163,2.54254.39992,3.81306.60514,10.932,1.76579,21.84188,2.15921,32.72628-.40194,3.89915-.91754,5.28226.01556,6.192,3.99955.7828,3.42792,1.38587,6.90479,2.33993,10.28334.90887,3.21853,2.80259,5.80785,6.37553,6.3575,9.52075,1.46471,18.84986.72736,27.77884-3.07663,7.56892-3.22455,10.20591-9.545,7.17515-17.25482-1.94519-4.94828-4.18129-9.78228-6.29131-14.66563-.51134-1.18338-1.213-2.39024-.604-3.68822,1.45342-3.098,2.43339-6.44508,4.63356-9.1602a49.196,49.196,0,0,0,9.28965-19.61q2.62489-10.62014,5.50749-21.1762c2.119-7.81386,7.15612-12.47109,15.219-13.82862,2.87364-.48381,5.69474-1.27273,8.56033-1.8137,1.97994-.37379,2.50453-.97915,1.12718-2.80518-1.70046-2.2544-3.15482-4.69907-4.65214-7.101-2.651-4.25274-5.58963-8.24205-9.75185-11.17171A1.2839,1.2839,0,0,1,235.38715,253.9947Zm-171.62744,49.895c0,.33647-.06851.55107.0098.66231,4.7402,6.73375,6.86088,13.79864,2.91412,21.71393-.674,1.35166.25049,2.06643,1.42016,2.49945,1.24707.46165,1.96734-.096,2.349-1.259.18723-.57046.34663-1.15027.54127-1.71808,2.67653-7.808,7.96772-11.204,16.1806-10.38965.93918.09313,1.88031.17046,2.81692.28481,12.69908,1.55037,21.12436,9.5745,21.14864,21.14248.00181.8633.06549,1.91086,1.14839,2.023,1.223.12658,1.13319-1.03221,1.32549-1.8254,2.35031-9.69446,7.53035-14.67609,16.77648-16.01495a30.33754,30.33754,0,0,1,7.96155-.0109c8.031.96207,14.46984,4.20849,17.45821,12.33013.14495.39389.33414.79984.95719.7732.861-.87222.22525-1.9058.18048-2.86107-.237-5.057.75149-9.73134,4.14853-13.67922,8.61595-10.01309,21.68-10.612,31.05648-1.426.24521.24023.4803.49151.735.72112.37232.33568.72886.86331,1.29269.6403.69387-.27448.65853-.99224.554-1.56651a59.81946,59.81946,0,0,0-1.24731-6.04014,17.20981,17.20981,0,0,1,.31633-10.6246,47.30691,47.30691,0,0,1,3.00384-6.82549c.30548-.58014.94307-1.19141.49617-1.88129-.4463-.689-1.24393-.35052-1.90589-.30349-4.731.33609-6.27325-.51649-8.31138-4.78576-2.183-4.57267-3.90842-9.33638-5.80081-14.03181-2.80474-6.95918-2.83508-13.20829,3.70376-18.24033,1.67079-1.28578,1.79759-2.96458.77032-4.8199-1.16335-2.10108-2.152-4.29925-3.32412-6.395-5.79639-10.36406-12.70086-19.78605-22.73357-26.52667-3.19758-2.14835-4.75961-2.32175-7.43546-.08816-10.7348,8.96058-28.48568,8.302-39.83481,1.60384a8.41418,8.41418,0,0,1-3.66274-4.16734c-.92116-2.24823-1.91165-2.50729-3.90183-1.22017-2.01935,1.306-2.1968,2.26881-.63315,4.13974,3.70341,4.43115,8.53888,7.0342,13.97157,8.76673,4.23124,1.34935,5.59188,3.088,5.13361,6.83878a126.48084,126.48084,0,0,1-8.989,32.92323c-1.92334,4.6613-5.66141,6.53328-10.602,5.94773-14.5579-1.72539-27.78712-6.26715-37.4829-18.08-.96613-1.17708-1.83221-1.0211-2.8113-.11671-1.55365,1.43512-1.44813,2.87377.32763,4.92313,3.936,4.54239,9.39095,6.54528,14.73853,8.61565,5.925,2.29389,8.88078,6.63927,9.89745,12.70118,1.39434,8.31369-1.03806,15.8086-4.80437,22.99688-2.98721,5.70134-5.20292,6.58452-11.49708,4.97063-1.49433-.38315-2.95464-.89737-4.43692-1.32959A12.61827,12.61827,0,0,0,63.75971,303.88973Zm38.40154-38.12213c6.15615-.0465,9.1746-1.88088,10.31743-6.12383,2.34022-8.68841,4.45223-17.43806,6.74335-26.14008.647-2.45739-.222-3.95816-2.39484-4.95888-3.11367-1.434-6.23824-2.84706-9.3183-4.35071a14.686,14.686,0,0,1-6.8898-6.32235c-2.08436-3.95092-3.16388-4.24952-6.97347-1.70075A82.6517,82.6517,0,0,0,68.0642,242.87188c-1.83569,3.09464-1.75727,4.85339.69853,7.39587C78.1714,260.00843,90.17043,264.06491,102.16125,265.7676ZM85.09742,276.83537c.09539-2.74379-2.3538-4.0141-4.78765-5.09629a85.67523,85.67523,0,0,1-16.58868-9.73226c-3.526-2.63831-4.51786-2.31579-5.836,2.02868-2.13871,7.04911-4.096,14.15306-6.19866,21.21341a5.00713,5.00713,0,0,0,1.11939,4.98088c4.24053,5.19575,9.81729,8.47051,15.80879,11.15555,7.85783,3.52138,9.44558,2.87569,12.9511-5.10061C84.21013,290.26776,84.2623,283.77645,85.09742,276.83537Zm2.41583,42.45543c-6.11148.0071-9.60661,1.58263-11.79408,5.32749-2.47713,4.24071-1.55307,6.94937,3.02292,8.5697,7.95345,2.81623,16.22816,4.34214,24.48089,5.929,2.23888.43049,3.41074-.56522,3.62032-2.86228a11.54769,11.54769,0,0,0-1.745-7.625C100.94,322.2939,95.0001,319.3375,87.51325,319.2908ZM47.77843,299.86909c-6.10758.01785-8.97463,4.08687-7.06668,9.33706a16.22238,16.22238,0,0,0,2.56288,4.43191c3.78118,4.83288,9.177,7.35316,14.47589,9.95421,4.24927,2.0858,7.2723.27528,7.69814-4.445a8.014,8.014,0,0,0-.18989-2.79938C63.007,308.20848,57.721,302.92107,49.811,300.18519A9.00353,9.00353,0,0,0,47.77843,299.86909Zm112.28278,29.52567c-.08923,3.287.50676,3.86179,3.71973,3.20574a76.34174,76.34174,0,0,0,24.55037-9.4847c2.79434-1.69591,2.92129-2.67856.6126-4.87369-3.92549-3.73244-8.76442-4.4094-13.87077-3.90181C166.96787,315.146,160.26411,321.92027,160.06121,329.39476Zm-34.278,10.05623.01349.12856c5.45781-.43674,10.91715-.85555,16.37252-1.32083,1.7041-.14532,3.40723-.35807,5.09385-.641,4.08231-.68485,4.63842-2.07707,2.24422-5.46573-5.18-7.33165-17.25486-9.40586-25.25257-4.33179a14.06536,14.06536,0,0,0-6.036,7.42807c-.92831,2.72055.0941,4.13351,2.94113,4.19665C122.70021,339.47907,124.242,339.451,125.78316,339.451Zm3.54447-121.67971a42.07064,42.07064,0,0,0,12.57956-1.55694,17.66027,17.66027,0,0,0,6.90619-3.28946c1.68988-1.41711,1.51518-2.64708-.50506-3.38632-10.66189-3.9014-21.472-3.41319-32.33174-.98751a9.23351,9.23351,0,0,0-1.67986.63441c-2.36776,1.04751-2.502,1.72046-.815,3.78876a11.28019,11.28019,0,0,0,5.83914,3.54008A30.38281,30.38281,0,0,0,129.32763,217.77128Zm70.60305,65.092a5.85153,5.85153,0,0,0-.89515-3.03074,166.04119,166.04119,0,0,1-7.54138-16.63664c-.64225-1.68311-1.24835-3.38184-1.95258-5.03873-.3857-.90747-.97019-1.60783-2.18943-1.22512-2.56811.80615-4.9185,4.78454-4.26047,7.39813.90062,3.57708,1.8217,7.14983,2.79916,10.70653a22.22188,22.22188,0,0,0,6.19785,10.7948c1.05067.97129,2.21145,2.03835,3.60676,1.17146C197.46049,285.90634,199.4389,284.84382,199.93068,282.86323Zm-68.592-79.5552a101.82426,101.82426,0,0,1,16.21215,2.57009c.98064.23462,2.2189.87029,2.64111-.52714.67921-2.24793-.28645-4.42633-1.053-6.46245-.52818-1.40292-2.11593-.64689-3.25956-.60315a40.81311,40.81311,0,0,1-7.45161-.22257c-4.07539-.59105-8.14554-1.2412-12.23722-1.6904-4.07848-.44776-5.20192.72261-5.33689,4.84789-.06631,2.02642.76687,2.85882,2.74242,2.69329C126.07424,203.706,128.55464,203.52449,131.33866,203.308Zm74.84041,92.41042a21.3597,21.3597,0,0,0-.363-2.71086c-.55725-2.345-1.54592-2.62422-3.32644-.91563a22.23949,22.23949,0,0,0-5.12269,6.99685,14.84721,14.84721,0,0,0-.56814,10.5346c.74786,2.50863,2.23431,2.87385,3.7836.98874A23.23883,23.23883,0,0,0,206.17907,295.71845Z"/><path class="cls-4" d="M250.20611,227.22048c.0233-3.09681.66148-5.66432,3.14124-5.535,2.49723.13029,3.463,2.71952,3.4243,5.19511-.038,2.43281-.72548,5.08415-3.57718,4.88756C250.35991,231.57281,250.15713,228.82571,250.20611,227.22048Z"/><path class="cls-4" d="M206.42679,143.73847a21.50256,21.50256,0,0,0-5.27548-8.49976c.65791-1.55885,2.52438-.94542,3.37083-2.13126,1.97341-2.7646,4.07084-1.6814,5.63749.31875,1.6001,2.04289,1.713,4.499-.768,5.97487-1.81841,1.08172-2.32478,2.70625-3.02948,4.39524C206.343,143.81489,206.42679,143.73847,206.42679,143.73847Z"/><path class="cls-4" d="M213.39279,115.42285a2.48784,2.48784,0,0,1,1.93716,2.72328c.02668,1.63618-.45435,3.34967-2.32939,3.366-1.47327.01286-1.635-1.57977-1.5673-2.843C211.50767,117.27952,211.65431,115.87689,213.39279,115.42285Z"/><path class="cls-4" d="M139.106,271.02119a25.38525,25.38525,0,0,1-11.89986-1.1914c-4.52029-1.53507-6.30612-4.281-5.5613-8.72731,1.49452-8.92167,3.0188-17.839,4.62774-26.74057,1.1671-6.45711,2.2293-7.15143,8.55083-8.06529,7.21293-1.04272,14.85833-.9957,20.51736-6.835,1.07975-1.11415,2.23706-.58457,3.32151.1546,1.77586,1.21048,3.95676,2.07708,5.27681,3.663,6.04679,7.26493,12.422,14.34729,15.24059,23.73a6.69514,6.69514,0,0,1-1.01322,6.43294c-7.96827,11.012-19.36707,15.52254-32.27006,17.21818C144.07582,270.8996,142.21926,270.86515,139.106,271.02119Zm-14.92476-9.82388c-1.32554,3.77458,2.08045,5.86533,7.08383,6.61878,13.94,2.09929,26.35375-2.36015,38.26975-8.96472,6.50825-3.60726,8.37794-8.94024,5.17666-15.65578a67.7451,67.7451,0,0,0-12.89222-17.83607c-1.63377-1.68573-3.67272-3.36552-6.4432-1.52166a32.63258,32.63258,0,0,1-20.55465,5.47c-3.12785-.19373-4.23472,1.19758-5.00081,3.97153C127.36339,242.17671,125.94027,251.26134,124.18124,261.19731Z"/><path class="cls-4" d="M145.85827,294.42047c0-4.149-.061-8.29919.02091-12.44655.05693-2.88236,1.48735-5.32624,4.14277-6.13156,6.00519-1.82115,10.863-5.69361,16.33024-8.45247,5.16236-2.605,9.40671-1.69776,12.1979,3.36365,3.25584,5.904,6.68818,11.76023,8.70575,18.28676,2.29962,7.43889.54083,11.8225-6.25791,15.77682-5.11706,2.97619-10.7354,4.57655-16.3068,6.306a99.74265,99.74265,0,0,0-10.429,3.66159c-4.57515,1.99605-6.89594.56318-7.876-4.26246C145.30162,305.182,145.62893,299.79786,145.85827,294.42047Zm3.16466.63767c.16355,5.18867-.90833,10.41878.32744,15.6.58344,2.44616,1.43,2.91411,3.79723,1.78306a81.711,81.711,0,0,1,9.07-3.27632c7.24542-2.45743,14.804-4.03495,21.20615-8.6972,2.83071-2.06137,3.47266-4.00087,2.46041-7.35006-2.47545-8.19043-7.61578-15.06784-10.7961-22.89654-.97141-2.39124-3.23575-1.46239-4.83482-.84149a85.607,85.607,0,0,0-8.75712,4.10915c-4.19892,2.2056-10.0413,3.59934-12.00345,7.11422C147.40471,284.34318,149.02293,290.15232,149.02293,295.05814Z"/><path class="cls-4" d="M201.63553,169.253l-.0001.0034-13.54827-58.847a10.57663,10.57663,0,0,0-5.671-7.055l-54.8391-26.18279a10.56716,10.56716,0,0,0-9.10205,0L63.64779,103.36806a10.57372,10.57372,0,0,0-5.67269,7.055L44.4489,169.26822a10.35323,10.35323,0,0,0-.00339,4.51726,10.49937,10.49937,0,0,0,.38235,1.33647,10.189,10.189,0,0,0,1.04384,2.12c.18613.28414.38235.56.59555.82724l37.95119,47.18522c.16575.20471.34848.39254.52952.58377a10.44182,10.44182,0,0,0,2.00146,1.658,10.826,10.826,0,0,0,2.99965,1.30441,10.34093,10.34093,0,0,0,2.66626.36716h.59045l60.26993-.01359a10.09617,10.09617,0,0,0,1.09629-.06424,10.47485,10.47485,0,0,0,1.54628-.29443,10.78722,10.78722,0,0,0,1.07442-.34338c.274-.10491.54809-.20981.812-.33669a10.85128,10.85128,0,0,0,1.15045-.63952,10.34464,10.34464,0,0,0,2.51739-2.22815l1.15734-1.43808L199.61039,178.054a10.25344,10.25344,0,0,0,1.6394-2.9438,10.63526,10.63526,0,0,0,.389-1.33987A10.32883,10.32883,0,0,0,201.63553,169.253ZM122.35775,96.28016a2.47326,2.47326,0,0,1,1.20689-.03237C123.16221,96.25789,122.75818,96.26178,122.35775,96.28016Z"/><path class="cls-5" d="M175.686,162.21174c-.27464-.06288-.66511-.17042-.93315-.22006a27.1,27.1,0,0,0-3.0774-.24812,30.01432,30.01432,0,0,1-5.75607-.94473,3.60852,3.60852,0,0,1-1.38482-1.3931l-1.29549-.37723a41.70214,41.70214,0,0,0-6.68426-28.88465c.33091-.30113.95961-.857,1.13657-1.02085a2.538,2.538,0,0,1,.60224-1.81831,30.03552,30.03552,0,0,1,4.77329-3.35367,26.68924,26.68924,0,0,0,2.66709-1.55525c.2068-.15387.48973-.39709.70648-.57081a3.22631,3.22631,0,1,0-3.99725-5.01819c-.21841.17207-.51621.39874-.71146.5675a26.61993,26.61993,0,0,0-2.121,2.24353,30.06194,30.06194,0,0,1-4.32657,3.91458,3.56706,3.56706,0,0,1-1.94737.21179l-1.221.87192a42.0613,42.0613,0,0,0-26.64106-12.87215c-.02978-.42685-.06618-1.19953-.07777-1.43281a2.543,2.543,0,0,1-1.04731-1.60488,30.06426,30.06426,0,0,1,.364-5.82225,26.69776,26.69776,0,0,0,.4368-3.05093c.00994-.25811-.00495-.63369-.00495-.9133a3.22632,3.22632,0,1,0-6.41954.00331c0,.02978.00662.05957.00827.08935-.00331.26637-.01653.589-.00827.82229a26.97829,26.97829,0,0,0,.43844,3.05259,30.01817,30.01817,0,0,1,.35738,5.82059,3.4992,3.4992,0,0,1-1.04234,1.65948l-.07611,1.35837a41.863,41.863,0,0,0-5.80239.89179A41.28514,41.28514,0,0,0,91.63151,124.5979q-.58569-.40372-1.15981-.8223a2.53473,2.53473,0,0,1-1.906-.18531,29.95059,29.95059,0,0,1-4.32658-3.90964,26.8142,26.8142,0,0,0-2.11281-2.24351c-.1953-.16711-.49465-.3954-.71311-.56917a3.82525,3.82525,0,0,0-2.237-.84378,3.09224,3.09224,0,0,0-2.55788,1.13168,3.4017,3.4017,0,0,0,.78919,4.732l.04963.03475c.21013.17207.46823.39211.66346.53441a26.81052,26.81052,0,0,0,2.66053,1.5569,29.93656,29.93656,0,0,1,4.77328,3.35537,3.56546,3.56546,0,0,1,.64527,1.85141l1.02746.91825A41.5317,41.5317,0,0,0,80.67859,159.093l-1.34347.39046a4.43761,4.43761,0,0,1-1.37989,1.3898,29.95439,29.95439,0,0,1-5.75276.948,26.82029,26.82029,0,0,0-3.07907.24812c-.24652.04467-.589.13236-.857.1985l-.02813.00663-.04632.01324a3.22134,3.22134,0,1,0,1.42619,6.25407l.048-.00661c.02151-.005.03972-.01654.06121-.01984.26473-.05958.59729-.1241.83058-.187a27.06462,27.06462,0,0,0,2.87887-1.10355,30.0577,30.0577,0,0,1,5.59558-1.64624,3.559,3.559,0,0,1,1.84479.65187l1.39972-.2399a41.76669,41.76669,0,0,0,18.509,23.1087l-.584,1.39972a3.18481,3.18481,0,0,1,.28623,1.815,31.35146,31.35146,0,0,1-2.90533,5.22009,26.75741,26.75741,0,0,0-1.72071,2.56447c-.12739.24158-.28953.61218-.412.86532a3.223,3.223,0,1,0,5.79577,2.74982l.005-.00661v-.00674c.12243-.25148.29454-.58072.397-.81566a26.53858,26.53858,0,0,0,.92654-2.94174,22.44726,22.44726,0,0,1,2.48507-5.76606,2.60755,2.60755,0,0,1,1.38318-.675l.728-1.31533a41.535,41.535,0,0,0,29.61755.07444c.2035.364.584,1.0589.685,1.23422a2.5364,2.5364,0,0,1,1.638.996,29.89313,29.89313,0,0,1,2.20383,5.397,26.82885,26.82885,0,0,0,.93148,2.94173c.10424.23658.27466.57082.3971.8223a3.22465,3.22465,0,1,0,5.80238-2.74318c-.12242-.25316-.2912-.62375-.41859-.86367a26.67166,26.67166,0,0,0-1.72069-2.55787,29.94,29.94,0,0,1-2.84563-5.09576,2.51991,2.51991,0,0,1,.24652-1.89276,11.0397,11.0397,0,0,1-.5344-1.29549,41.76505,41.76505,0,0,0,18.50078-23.27412c.41528.06618,1.13831.19192,1.37324.23991a2.53805,2.53805,0,0,1,1.79514-.66678,30.02278,30.02278,0,0,1,5.59724,1.64625A26.72225,26.72225,0,0,0,173.32,168.2607c.23164.06124.56253.11913.82891.177.02152.00661.04136.01654.06288.0215l.04633.00661a3.22135,3.22135,0,1,0,1.4279-6.25407Zm-30.49615-32.69-13.716,9.72362-.048-.02151a2.83156,2.83156,0,0,1-4.497-2.15916l-.01489-.00661-.953-16.81A33.347,33.347,0,0,1,145.18984,129.52175Zm-25.83855,18.42472h5.16209l3.20977,4.01221-1.15155,5.0049-4.63591,2.23028-4.64932-2.23523-1.1532-5.00657Zm-4.85768-27.10928a33.97691,33.97691,0,0,1,3.42485-.58909l-.95465,16.83481-.06949.03309a2.82923,2.82923,0,0,1-4.49036,2.16908l-.02648.01489-13.80526-9.78813A33.05743,33.05743,0,0,1,114.49361,120.83719ZM93.56561,135.804l12.60412,11.27224-.01324.06949a2.82922,2.82922,0,0,1-1.11183,4.86262l-.01324.05461L88.875,156.72535A33.04568,33.04568,0,0,1,93.56561,135.804Zm16.87608,29.94678-6.41951,15.51113a33.22938,33.22938,0,0,1-13.33543-16.6908l16.565-2.81259.02813.0364a2.77971,2.77971,0,0,1,.55591-.04962,2.82923,2.82923,0,0,1,2.55789,3.94276Zm18.94755,19.94855a33.18488,33.18488,0,0,1-18.11036-.93151l8.14686-14.73183h.01322a2.83253,2.83253,0,0,1,4.98672-.005h.06121l8.16672,14.75665Q131.06363,185.31876,129.38924,185.69929Zm10.526-4.37455-6.4857-15.66995.01984-.02813a2.83255,2.83255,0,0,1,1.37159-3.66806,2.80242,2.80242,0,0,1,1.08375-.28127,2.73052,2.73052,0,0,1,.65023.048l.02812-.03474,16.71231,2.82427A33.10369,33.10369,0,0,1,139.91522,181.32474Zm15.13553-24.654-16.23737-4.67731-.01489-.06784a2.83252,2.83252,0,0,1-1.11018-4.86428l-.00661-.03309,12.53464-11.21755a33.6728,33.6728,0,0,1,4.83451,20.86008Z"/><path class="cls-4" d="M222.93713,286.82l-.00013.0044-17.55165-76.23574a13.702,13.702,0,0,0-7.34672-9.13972l-71.04351-33.91953a13.68963,13.68963,0,0,0-11.79162,0L44.17539,201.46663a13.6981,13.6981,0,0,0-7.34892,9.13972l-17.523,76.23327a13.41245,13.41245,0,0,0-.0044,5.85206,13.60278,13.60278,0,0,0,.49533,1.73139,13.20032,13.20032,0,0,0,1.35229,2.74638c.24113.3681.49533.72546.77153,1.07169l49.16539,61.128c.21473.2652.45146.50853.686.75626a13.527,13.527,0,0,0,2.59288,2.1479,14.02517,14.02517,0,0,0,3.886,1.68984,13.39694,13.39694,0,0,0,3.4541.47566h.76493l78.07909-.01761a13.08546,13.08546,0,0,0,1.42023-.08322,13.57179,13.57179,0,0,0,2.0032-.38143,13.978,13.978,0,0,0,1.39189-.44485c.355-.13591.71-.27181,1.052-.43618a14.058,14.058,0,0,0,1.49039-.82849,13.401,13.401,0,0,0,3.26125-2.88655l1.49932-1.863,47.64873-59.276a13.28318,13.28318,0,0,0,2.12382-3.81366,13.77568,13.77568,0,0,0,.504-1.73579A13.38093,13.38093,0,0,0,222.93713,286.82ZM120.23355,192.28432a3.20411,3.20411,0,0,1,1.56352-.04193C121.27572,192.25546,120.75231,192.26051,120.23355,192.28432Z"/><path class="cls-5" d="M189.31976,277.698c-.3558-.08146-.86165-.22078-1.20889-.28509a35.11008,35.11008,0,0,0-3.98674-.32143,38.88281,38.88281,0,0,1-7.45693-1.22389,4.67473,4.67473,0,0,1-1.794-1.80475l-1.6783-.48869a54.02475,54.02475,0,0,0-8.65938-37.41978c.42868-.39011,1.24316-1.11028,1.4724-1.3225a3.288,3.288,0,0,1,.7802-2.3556,38.90956,38.90956,0,0,1,6.18376-4.34464,34.57825,34.57825,0,0,0,3.45518-2.01482c.26791-.19933.63444-.51443.91524-.73948a4.17965,4.17965,0,1,0-5.1784-6.501c-.28295.22292-.66875.51657-.92169.73519a34.48937,34.48937,0,0,0-2.7478,2.90647,38.94539,38.94539,0,0,1-5.605,5.07131,4.62115,4.62115,0,0,1-2.5228.27437l-1.58181,1.12957a54.48994,54.48994,0,0,0-34.51323-16.67575c-.03858-.553-.08573-1.554-.10075-1.85619a3.29441,3.29441,0,0,1-1.35677-2.0791,38.948,38.948,0,0,1,.47154-7.54268,34.5862,34.5862,0,0,0,.56586-3.95244c.01288-.33438-.0064-.82094-.0064-1.18317a4.17967,4.17967,0,1,0-8.31646.00429c0,.03857.00859.07717.01072.11574-.00429.34508-.02142.76306-.01072,1.06528a34.95178,34.95178,0,0,0,.568,3.95459,38.88829,38.88829,0,0,1,.463,7.54052,4.53324,4.53324,0,0,1-1.35034,2.14984l-.09861,1.75976a54.23221,54.23221,0,0,0-7.51694,1.1553A53.48449,53.48449,0,0,0,80.428,228.96966q-.75876-.523-1.50252-1.06527a3.28378,3.28378,0,0,1-2.46921-.24007,38.79976,38.79976,0,0,1-5.605-5.0649,34.7385,34.7385,0,0,0-2.73713-2.90645c-.253-.21649-.64081-.51224-.92382-.73734a4.9555,4.9555,0,0,0-2.898-1.09312,4.006,4.006,0,0,0-3.31371,1.46609,4.40686,4.40686,0,0,0,1.02239,6.1302l.06429.045c.27223.22291.60659.508.85951.69232a34.73431,34.73431,0,0,0,3.44668,2.01695,38.78248,38.78248,0,0,1,6.18375,4.34684,4.61914,4.61914,0,0,1,.83594,2.39849l1.33106,1.18958a53.804,53.804,0,0,0-8.48363,37.50974l-1.74045.50584a5.74905,5.74905,0,0,1-1.78762,1.80047,38.80733,38.80733,0,0,1-7.45265,1.22818,34.74065,34.74065,0,0,0-3.9889.32144c-.31937.05786-.763.17146-1.11028.25715l-.03644.00858-.06.01715a4.17323,4.17323,0,1,0,1.84762,8.10209l.06222-.00856c.02787-.00642.05145-.02144.0793-.02571.343-.07718.77378-.16076,1.076-.24222a35.05677,35.05677,0,0,0,3.72955-1.42964,38.93968,38.93968,0,0,1,7.249-2.13268,4.61071,4.61071,0,0,1,2.38991.84449l1.81332-.31078a54.10829,54.10829,0,0,0,23.97828,29.93709l-.75663,1.81332a4.126,4.126,0,0,1,.37082,2.35133,40.61555,40.61555,0,0,1-3.76383,6.76257,34.662,34.662,0,0,0-2.22916,3.32225c-.165.313-.37509.79307-.5337,1.121a4.17536,4.17536,0,1,0,7.50837,3.56236l.00644-.00856v-.00873c.1586-.32579.38157-.75232.5143-1.05668a34.377,34.377,0,0,0,1.20033-3.811,29.0801,29.0801,0,0,1,3.21939-7.46988,3.378,3.378,0,0,1,1.79189-.87451l.9431-1.704a53.80818,53.80818,0,0,0,38.36923.09644c.26363.47155.75661,1.37179.88736,1.59892a3.28585,3.28585,0,0,1,2.122,1.29032,38.72618,38.72618,0,0,1,2.855,6.99183,34.75452,34.75452,0,0,0,1.20673,3.811c.135.30649.35582.73949.51443,1.06528a4.17751,4.17751,0,1,0,7.51693-3.55377c-.1586-.328-.37724-.80806-.54228-1.11887a34.55261,34.55261,0,0,0-2.22914-3.3137,38.78768,38.78768,0,0,1-3.68648-6.6015,3.26452,3.26452,0,0,1,.31936-2.45206,14.30174,14.30174,0,0,1-.6923-1.6783,54.10618,54.10618,0,0,0,23.96757-30.15138c.538.08573,1.47467.24862,1.779.3108a3.288,3.288,0,0,1,2.32559-.8638A38.8942,38.8942,0,0,1,182.523,284.094a34.61683,34.61683,0,0,0,3.73169,1.44037c.30008.07933.72874.15433,1.07384.22937.02787.00856.05359.02142.08146.02785l.06.00856a4.17322,4.17322,0,1,0,1.84984-8.10208ZM149.8123,235.34846l-17.7689,12.59686-.06222-.02787a3.66825,3.66825,0,0,1-5.8258-2.79717l-.01928-.00856-1.23461-21.77713A43.20064,43.20064,0,0,1,149.8123,235.34846Zm-33.47358,23.86905h6.68743l4.15823,5.19777-1.49183,6.4838-6.00577,2.88931-6.02314-2.89572-1.494-6.486Zm-6.29308-35.11981a44.01865,44.01865,0,0,1,4.43686-.76316l-1.23674,21.80933-.09.04287a3.66524,3.66524,0,0,1-5.81722,2.81l-.0343.01929L89.41964,235.33563A42.8255,42.8255,0,0,1,110.04564,224.0977Zm-27.112,19.3893,16.32852,14.60308-.01715.09a3.66524,3.66524,0,0,1-1.44037,6.29948l-.01715.07074L76.857,270.59045A42.8104,42.8104,0,0,1,82.93362,243.487Zm21.8628,38.79577L96.48,302.37727a43.04838,43.04838,0,0,1-17.27592-21.62275l21.45983-3.6437.03644.04716a3.60055,3.60055,0,0,1,.72018-.06428,3.66525,3.66525,0,0,1,3.31372,5.1078Zm24.54636,25.84314a42.99064,42.99064,0,0,1-23.4618-1.20676l10.55419-19.08494h.01712a3.66953,3.66953,0,0,1,6.46025-.00643h.0793l10.57989,19.1171Q131.51195,307.63295,129.34278,308.12591Zm13.63631-5.66719-8.40217-20.30026.02571-.03644a3.66953,3.66953,0,0,1,1.77688-4.75194,3.63076,3.63076,0,0,1,1.404-.36439,3.53794,3.53794,0,0,1,.84238.06222l.03642-.045,21.65063,3.65881A42.88546,42.88546,0,0,1,142.97909,302.45872Zm19.60792-31.939-21.03535-6.05941-.01929-.08789a3.66949,3.66949,0,0,1-1.43823-6.30162l-.00856-.04287,16.2385-14.53223a43.62282,43.62282,0,0,1,6.26306,27.024Z"/></svg>