<svg id="Layer_1" data-name="Layer 1" xmlns="http://www.w3.org/2000/svg" viewBox="0 0 215 127"><defs><style>.cls-1{fill:transparent;}.cls-2{fill:#020302;}.cls-3{fill:#e42026;}.cls-4{fill:#020202;}.cls-5{fill:#9f1d20;}.cls-6{fill:#d92126;}.cls-7{fill:#df2026;}.cls-8{fill:#e53026;}.cls-9{fill:#020303;}.cls-10{fill:#d32127;}.cls-11{fill:#f3a07b;}.cls-12{fill:#f29c77;}.cls-13{fill:#f1946f;}.cls-14{fill:#e83a25;}.cls-15{fill:#e64125;}.cls-16{fill:#ea532e;}.cls-17{fill:#cc2227;}.cls-18{fill:#c02226;}.cls-19{fill:#e64025;}.cls-20{fill:#e52926;}.cls-21{fill:#f1916a;}.cls-22{fill:#f28e66;}.cls-23{fill:#c62227;}.cls-24{fill:#f3a582;}.cls-25{fill:#eb5c36;}.cls-26{fill:#f29873;}.cls-27{fill:#e84727;}.cls-28{fill:#cd2227;}.cls-29{fill:#e84d2b;}.cls-30{fill:#f3a37f;}.cls-31{fill:#ef865e;}.cls-32{fill:#ee8159;}.cls-33{fill:#eb5832;}.cls-34{fill:#eb5732;}.cls-35{fill:#f08962;}.cls-36{fill:#e73725;}.cls-37{fill:#ea5f39;}.cls-38{fill:#eb5631;}.cls-39{fill:#e74426;}.cls-40{fill:#f19671;}.cls-41{fill:#ba2125;}.cls-42{fill:#b12024;}.cls-43{fill:#b52125;}.cls-44{fill:#ec764e;}.cls-45{fill:#ea633b;}.cls-46{fill:#f4aa89;}.cls-47{fill:#ed7d55;}.cls-48{fill:#ee7b53;}.cls-49{fill:#f4a886;}.cls-50{fill:#ab1f23;}.cls-51{fill:#ed724a;}.cls-52{fill:#e73f25;}.cls-53{fill:#f4ae8d;}.cls-54{fill:#f4b090;}.cls-55{fill:#df2126;}.cls-56{fill:#e84526;}.cls-57{fill:#f3ac8b;}.cls-58{fill:#ec6c46;}.cls-59{fill:#e74a29;}.cls-60{fill:#dc2126;}.cls-61{fill:#a61f22;}.cls-62{fill:#ec6842;}.cls-63{fill:#e74b29;}.cls-64{fill:#eb653f;}.cls-65{fill:#ec6b45;}.cls-66{fill:#eb5f38;}.cls-67{fill:#ec6d47;}.cls-68{fill:#ec6640;}.cls-69{fill:#ed714a;}.cls-70{fill:#ea633c;}.cls-71{fill:#eb643d;}.cls-72{fill:#b62125;}.cls-73{fill:#eb5e38;}.cls-74{fill:#eb5a33;}.cls-75{fill:#d82628;}.cls-76{fill:#fff;}.cls-77{fill:#f4b192;}.cls-78{fill:#f5b495;}.cls-79{fill:#f5b597;}.cls-80{fill:#f5b79a;}.cls-81{fill:#f7bda1;}</style></defs><title>kubernetes.io-logos</title><rect class="cls-1" x="-4.02874" y="-3.39352" width="223.25536" height="134.51136"/><path class="cls-2" d="M55.12573,99.2679l3.35929.02072c.60972.005.52686-.08015.52776.54757.00361,1.96784.00721,3.93479-.0045,5.90217-.00225.294.05674.39628.37825.39448q3.86949-.02161,7.739,0c.32287.00225.38006-.10177.37826-.39492-.01171-2.01963-.00045-4.03926-.01171-6.05843-.0018-.29225.05133-.40708.37961-.39987,1.05507.02341,2.11059.01666,3.16566.0027.25757-.00316.35664.03962.35574.33142q-.014,8.12985-.0009,16.25969c.00045.27063-.06484.34988-.34179.34583q-1.58238-.0252-3.16565,0c-.30126.0045-.39718-.06664-.39492-.385.01531-2.08492.00135-4.16939.01531-6.25386.0018-.30891-.04954-.41564-.39222-.41338q-3.86949.0252-7.739.0027c-.28459-.00136-.3697.05764-.36745.358.01486,2.04529.00991,4.091.00631,6.13633-.00135.63719.08781.54173-.56739.54758-1.10641.00945-2.21326.014-3.31967.02072Z"/><path class="cls-3" d="M65.94121,31.88261a35.15188,35.15188,0,0,1,4.66067-6.04718c.63944-.67456.6543-.666,1.22214.05809a243.83276,243.83276,0,0,1,23.171,35.636q2.80226,5.24157,5.28345,10.643c.03828.08241.0734.16617.11258.24767a.39357.39357,0,0,1-.03062.5021.43408.43408,0,0,1-.54172.05493q-.70218-.338-1.395-.69482c-5.42891-2.77164-10.78891-5.66982-16.01112-8.817-3.28724-1.98135-6.51594-4.05187-9.60145-6.33943-.09276-.06889-.17652-.1495-.26433-.22425-.35709-.97806-.78488-1.92731-1.16629-2.89547a86.456,86.456,0,0,1-4.01584-13.339c-.58945-2.7122-1.04291-5.44646-1.38514-8.20009-.02432-.19453-.01981-.39-.03828-.5845Zm61.10847,45.02214c-1.48422.00586-2.96842.01531-4.45264.01621-1.53645.00045-3.07334-.00991-4.60979-.00945-.25668,0-.52326.01531-.60161-.2936-.07115-.27874.1477-.41969.34494-.55208,2.74236-1.84085,5.53517-3.60291,8.35544-5.32128,10.23412-6.23495,20.68576-12.08939,31.20312-17.82945.51336-.28009,1.03571-.54307,1.5405-.83667.25983-.15131.35124-.07971.43049.18462a18.9688,18.9688,0,0,1,.79075,4.56071,20.06207,20.06207,0,0,1-.48093,5.38477,1.43016,1.43016,0,0,1-.06574.18013,3.23773,3.23773,0,0,0-1.05823.84027,55.05972,55.05972,0,0,1-7.56606,5.58606,56.17661,56.17661,0,0,1-22.05739,7.88307,11.37319,11.37319,0,0,1-1.51438.13329.42831.42831,0,0,0-.25848.0734Zm22.91252-43.932a18.3173,18.3173,0,0,1,2.11645,5.14656,14.42908,14.42908,0,0,1-3.86634,14.05318,52.15515,52.15515,0,0,1-8.85843,7.14457A198.4585,198.4585,0,0,1,120.62921,70.3046c-1.66659.8781-3.35073,1.72288-5.02543,2.58477-.2166.11167-.4413.21614-.64934.02161-.209-.19543-.11979-.43364-.02027-.65024q3.199-6.96176,6.90861-13.665a.35142.35142,0,0,1,.05134-.05854.71415.71415,0,0,1,.4476-.10041,24.074,24.074,0,0,0,7.6201-1.54771,27.92524,27.92524,0,0,0,8.65985-5.27309,34.07542,34.07542,0,0,0,6.33087-7.54265,40.447,40.447,0,0,0,4.23739-9.2439c.17111-.53316.31791-1.074.48452-1.608.04053-.12924.04233-.34089.28775-.24857Z"/><path class="cls-4" d="M108.41372,99.28816c1.29373,0,2.60637.0036,3.91857-.0027.28234-.00135.25217.23416.30035.38141q1.35093,4.11354,2.68384,8.23387c.45346,1.39595.90872,2.79235,1.3991,4.29908.18012-.63584.33367-1.16585.47958-1.69766q1.49276-5.45322,2.97923-10.90869c.059-.21615.14184-.31521.39222-.31206q1.97369.02205,3.94739,0c.263-.00315.35259.09907.42464.32872q1.94937,6.22639,3.91317,12.44874c.00585.018.02657.032.07385.08646.24181-.79074.476-1.55446.70878-2.31818q1.54995-5.09073,3.09181-10.18369c.08105-.26929.17967-.3688.47192-.3634,1.09379.02026,2.18849.0153,3.28274.0027.25938-.0027.33773.04052.24632.31431q-2.74013,8.17441-5.46447,16.35425a.34044.34044,0,0,1-.39312.26614q-2.07141-.01532-4.14282,0c-.23687.00225-.32558-.06755-.39718-.30126q-1.81563-5.92152-3.65559-11.83542c-.03422-.11033-.072-.21976-.13058-.40078-.30892,1.13658-.60026,2.20741-.89071,3.27824q-1.21,4.46253-2.41365,8.92689c-.06349.23866-.14094.33637-.40527.33367q-2.0322-.01841-4.06447-.00225c-.2202.00135-.34809-.04233-.43094-.27333q-2.945-8.20639-5.90353-16.40784c-.02522-.0707-.08556-.13689-.02116-.24722Z"/><path class="cls-3" d="M93.58015,53.46q-2.32539-4.00368-4.368-8.15822a67.5133,67.5133,0,0,1-4.57692-11.36214,24.257,24.257,0,0,1-1.092-7.41746,14.76739,14.76739,0,0,1,7.21392-12.60409,2.06093,2.06093,0,0,1,.24452-.11573c.163.0797.14725.22785.14229.3715-.11888,3.462-.12744,6.92572-.07655,10.38723.02792,1.88409.08781,3.77.19634,5.65361q.09861,1.713.18462,3.42818c.05629,1.0911.14861,2.18084.24047,3.26923q.27784,3.26788.6642,6.52495c.37016,3.11747.84207,6.21919,1.37209,9.31235a1.43033,1.43033,0,0,1,.04052.46517c-.01756.10942-.01441.24722-.186.24541Z"/><path class="cls-4" d="M147.286,109.11837c-1.65444,0-3.30886.009-4.96284-.00856-.3026-.00315-.371.08105-.35438.3661a6.06858,6.06858,0,0,0,.27559,1.60715,3.19094,3.19094,0,0,0,3.15214,2.10563c2.25154.10943,4.50487.03287,6.75686.04053.36024.00135.49038.05989.47058.45346-.03783.7403-.01982,1.48466-.00585,2.22677.0045.23281-.04953.30981-.29855.30891-2.31908-.01035-4.63772.01621-6.95589-.0144a8.57427,8.57427,0,0,1-4.16444-.96051,6.63438,6.63438,0,0,1-3.403-4.91285,13.1445,13.1445,0,0,1,.33908-6.20793,6.38276,6.38276,0,0,1,5.07181-4.53279,13.2716,13.2716,0,0,1,2.9405-.3017c2.01873-.00046,4.03791.01081,6.05664-.00991.36024-.00405.42869.10222.41652.4323q-.03792,1.0545,0,2.10968c.01171.33728-.05674.45571-.43049.45167-1.94082-.02252-3.88164-.01487-5.82246-.00766a7.0511,7.0511,0,0,0-1.54906.1531,3.40343,3.40343,0,0,0-2.76173,3.08146c-.08016.65474-.08016.65474.59081.65474,3.19178,0,6.38309.00585,9.57442-.009.33053-.0009.41068.08376.399.40527q-.03845,1.07409-.00046,2.14887c.01126.32467-.04908.43545-.41112.43-1.64093-.02432-3.28275-.01036-4.92366-.01036Zm-56.15508,7.09369c.71418-1.56257,1.39595-3.05759,2.08041-4.55081q2.76174-6.02285,5.519-12.04841a.47643.47643,0,0,1,.51966-.331c1.13342.01531,2.26685.01261,3.39982.00136a.43319.43319,0,0,1,.47417.28639q3.7398,8.13886,7.50032,16.26824c.12878.27829.15085.38952-.22786.38277q-1.7975-.02942-3.59524-.0009a.4323.4323,0,0,1-.47868-.32872c-.45211-1.11632-.93574-2.22-1.38695-3.33633a.48408.48408,0,0,0-.52776-.37285q-3.59525.02206-7.1914.00045a.4305.4305,0,0,0-.47913.32467c-.44805,1.146-.91276,2.28486-1.37478,3.425-.05583.13825-.08466.28685-.30621.285-1.28652-.00991-2.5735-.0045-3.92532-.0045Z"/><path class="cls-2" d="M90.44151,104.84405c0,1.66749.01441,3.335-.00585,5.002a12.77569,12.77569,0,0,1-.24226,2.47669,4.58865,4.58865,0,0,1-2.83153,3.19538,9.90243,9.90243,0,0,1-4.00773.84928,13.4538,13.4538,0,0,1-5.37531-.67231,6.045,6.045,0,0,1-2.47489-1.70757,4.27527,4.27527,0,0,1-.90287-2.6424c-.18192-3.0049-.04233-6.01385-.0797-9.021-.01126-.91142.00225-1.82375-.005-2.73517-.00135-.19813.01892-.30891.26659-.3062,1.1073.0126,2.21461.01576,3.32146-.00046.33683-.005.26118.20669.26118.38727.0018,3.26922-.00225,6.53846.00586,9.80768a7.58045,7.58045,0,0,0,.10447,1.3185,2.81964,2.81964,0,0,0,2.77929,2.74822,7.52015,7.52015,0,0,0,2.86981-.07565,2.83339,2.83339,0,0,0,2.3569-2.76938q.07768-.85491.072-1.71433c-.00225-3.113.0036-6.22639-.00811-9.33937-.0009-.29269.06935-.37015.36385-.36474q1.58193.029,3.16476.0009c.28775-.0045.37691.06574.3742.36564-.01441,1.73233-.00721,3.46467-.00721,5.197Z"/><path class="cls-5" d="M85.84838,87.37619A20.00248,20.00248,0,0,1,80.134,90.02174,10.24477,10.24477,0,0,1,72.33962,88.674a19.99248,19.99248,0,0,1-6.26287-6.0071C65.64221,82.05,65.245,81.40962,64.86,80.76029c-.13374-.22651-.20308-.34584.172-.35665,2.17183-.063,4.34321-.15086,6.51459-.22561.84478-.02927,1.69-.04728,2.53523-.07025a1.65264,1.65264,0,0,1,1.40406.33953,68.0043,68.0043,0,0,0,9.02731,6.008c.32917.18462.66465.358.99247.54487.1468.08376.35124.1396.34223.376Z"/><path class="cls-6" d="M70.13582,59.70933c1.45134.81055,2.90853,1.61075,4.35267,2.43346,6.78837,3.86768,13.54028,7.79707,20.117,12.01869.99608.63944,1.98,1.29779,2.96932,1.94713.19273.12609.37646.26748.2909.53227-.08286.25532-.30036.2837-.53857.2837q-11.85929.01215-23.71857.02881a1.9907,1.9907,0,0,1-.26568-.03422c.31432-.23236.67321-.09637,1.01229-.12339.44311-.01936.88621-.004,1.32931-.00315.42059-.01171.84162-.00766,1.26266.0018.85513-.01756,1.70981-.01486,2.565,0,.75336-.02026,1.50672-.009,2.25964-.00316.92313-.0063,1.84581-.0126,2.76759.00361,1.50853.041,3.017,0,4.60123.02206-.64664-.42554-1.2622-.76912-1.85841-1.14378a66.5833,66.5833,0,0,1-7.88128-5.80356c-1.24555-1.06632-2.46138-2.16732-3.61236-3.33046a63.15888,63.15888,0,0,1-5.482-6.289c-.11482-.15176-.32827-.294-.17066-.54037Z"/><path class="cls-7" d="M127.04968,76.90475c.27694-.2945.662-.17022.98527-.21164q1.74944-.22292,3.484-.52912a54.59524,54.59524,0,0,0,7.37152-1.86832q2.38651-.7799,4.6922-1.78051c1.37344-.59441,2.714-1.25636,4.03791-1.94983a54.957,54.957,0,0,0,6.53982-4.06177c1.56976-1.12577,3.05848-2.34971,4.52334-3.60516.16751-.14365.31251-.313.47281-.46562.10178-.09681.20625-.23235.34764-.04458a16.56829,16.56829,0,0,1-1.41261,3.97666,18.98407,18.98407,0,0,1-17.1013,10.55205c-4.504-.02432-9.0084.0009-13.51282.0045-.14274,0-.28549-.01081-.42779-.01667Z"/><path class="cls-6" d="M125.955,85.35116c-1.60354-.9515-3.13459-2.01377-4.67869-3.05623-.48048-.32422-.94969-.66555-1.42387-.99878.05629-.26568.27784-.19814.43815-.19319a57.71738,57.71738,0,0,0,13.19084-1.21448.8827.8827,0,0,1,.535-.01171c1.63507.04864,3.27013.09276,4.9052.14771q3.679.12382,7.35712.25937c-.023.28865-.27829.31792-.46921.39852a59.35923,59.35923,0,0,1-6.62672,2.31323,65.77316,65.77316,0,0,1-10.32014,2.0579c-.96726.118-1.94262.15852-2.90763.29766Z"/><path class="cls-8" d="M149.9622,32.9728c-.14139.0045-.145.10987-.17427.21435a45.13632,45.13632,0,0,1-2.20244,6.15389,38.12769,38.12769,0,0,1-3.80374,6.65374,33.38767,33.38767,0,0,1-3.874,4.56116,29.838,29.838,0,0,1-6.46191,4.83134,25.80617,25.80617,0,0,1-6.592,2.54469,22.97045,22.97045,0,0,1-3.48357.54172q-.73709.05135-1.47611.06394.56586-1.12354,1.223-2.1975a6.11519,6.11519,0,0,1,1.41712-.22965,23.26223,23.26223,0,0,0,6.71138-2.00342,26.12067,26.12067,0,0,0,6.10706-3.9636,31.36417,31.36417,0,0,0,5.23348-5.82472,38.80264,38.80264,0,0,0,5.75717-12.87338c.05449-.2175.01531-.51875.3481-.58089a10.7214,10.7214,0,0,1,1.27076,2.10833Z"/><path class="cls-7" d="M65.94121,31.88261c.24812.23731.1531.56963.18642.84432.1351,1.12847.30576,2.25019.48634,3.37145.27513,1.70892.60791,3.40567.98077,5.09657a87.07933,87.07933,0,0,0,2.77569,9.78743c.65385,1.88678,1.38695,3.74385,2.17723,5.578.04774.11078.16166.22831-.0009.34088a27.47052,27.47052,0,0,1-2.41589-1.88453,36.86544,36.86544,0,0,1-3.44125-3.19988c-.33863-1.21358-.75246-2.40464-1.09424-3.61732a97.25213,97.25213,0,0,1-2.23083-9.60189.91407.91407,0,0,0-.16661-.54532A21.99371,21.99371,0,0,1,65.94121,31.88261Z"/><path class="cls-9" d="M155.9747,107.74358c0-2.682.00856-5.3645-.00991-8.04654-.00226-.35844.10041-.42329.43185-.417,1.09289.02162,2.18714.01711,3.28049.0018.27558-.0036.34853.07791.34853.35034q-.01171,8.12444.00045,16.24933c.00046.29269-.10672.33818-.362.33593q-1.67958-.02078-3.35928.0018c-.28415.0045-.33639-.08872-.33548-.35124.009-2.70815.0054-5.41629.0054-8.12444Z"/><path class="cls-10" d="M70.13582,59.70933a.46332.46332,0,0,0,.14275.34628q1.41261,1.83186,2.93825,3.57094c.897,1.02805,1.81924,2.03493,2.79011,2.98824q2.10834,2.07141,4.39,3.9618a66.954,66.954,0,0,0,5.52391,4.09914c1.03706.68943,2.11194,1.32165,3.17016,1.97865.08646.05359.19228.08376.21615.23776H84.67488c-.96591-.75381-2.01828-1.38379-2.99635-2.12185q-2.05924-1.55355-4.02485-3.2215a61.24,61.24,0,0,1-4.71831-4.49991,65.32971,65.32971,0,0,1-5.94676-7.236c-.52236-.73174-1.01409-1.48421-1.50988-2.23352-.10176-.154-.26342-.31161-.11257-.52641q1.93632,1.06319,3.87129,2.1277c.304.168.59891.35214.89836.52867Z"/><path class="cls-11" d="M128.05566,16.95042a5.291,5.291,0,0,1,.94114,1.25006c.04053,1.42747.16661,2.84864.06844,4.28422-.086,1.25726-.127,2.51856-.267,3.77267a31.282,31.282,0,0,1-2.23307,9.14664,12.44062,12.44062,0,0,1-2.066,3.38766,5.3894,5.3894,0,0,1-1.51483,1.21673,3.30705,3.30705,0,0,1-3.58354-.22651,8.0784,8.0784,0,0,1-2.52037-2.98328,26.65062,26.65062,0,0,1-2.75363-9.15159,44.04354,44.04354,0,0,1-.41878-4.70076c-.03017-.81955-.07521-1.63866-.054-2.45687a48.24078,48.24078,0,0,1,.65745-7.22112.574.574,0,0,0,.01711-.30621,6.89235,6.89235,0,0,1,.90783-1.56887.16872.16872,0,0,1,.07069-.03062c.57459-.04053.6543.04413.51425.60341a37.018,37.018,0,0,0-.94879,6.366,40.78909,40.78909,0,0,0-.04414,4.72372,32.7579,32.7579,0,0,0,1.44639,8.68417,14.11581,14.11581,0,0,0,2.16238,4.3959,6.17864,6.17864,0,0,0,1.232,1.18971,2.945,2.945,0,0,0,3.403.01666,7.49,7.49,0,0,0,2.23127-2.77434A23.524,23.524,0,0,0,127.477,27.4606a43.20012,43.20012,0,0,0,.462-8.37166,10.9989,10.9989,0,0,0-.12069-1.55581.952.952,0,0,1,.01711-.46472c.03377-.10042.07925-.20624.22065-.118Z"/><path class="cls-5" d="M70.36638,76.5319a15.74052,15.74052,0,0,1-4.97454-1.74179A19.06421,19.06421,0,0,1,55.55173,61.656a1.47382,1.47382,0,0,1-.04368-.30891q.0018-1.83456.01081-3.67c.263-.09636.30891.1441.385.27829q.77228,1.359,1.59048,2.69013a71.75,71.75,0,0,0,6.09536,8.45407c1.11676,1.33966,2.29882,2.62079,3.48538,3.89966.98617,1.06137,2.06465,2.021,3.07469,3.05308.12339.12608.34494.23055.2166.47958Z"/><path class="cls-12" d="M114.3285,12.96206c.17112.03917.13194.16076.10943.27738-.2211,1.15594-.34584,2.32314-.453,3.49484a43.25636,43.25636,0,0,0-.22155,4.65887c.02611,1.56617.14,3.12694.29135,4.68815a35.95771,35.95771,0,0,0,1.28247,6.69561,16.59072,16.59072,0,0,0,2.69554,5.582,5.08485,5.08485,0,0,0,2.311,1.77646,3.21968,3.21968,0,0,0,3.0855-.53451,8.09746,8.09746,0,0,0,2.35286-2.8518,24.45755,24.45755,0,0,0,2.43661-7.31343,40.72665,40.72665,0,0,0,.56153-4.18515c.0716-.879.10492-1.758.16121-2.6361a21.08455,21.08455,0,0,0,.04953-2.33484c-.027-.56964-.07159-1.13838-.06394-1.70937.0018-.12518-.04278-.26343.0698-.36925a5.6625,5.6625,0,0,1,.93214,1.486c-.073.97537.00135,1.953-.03648,2.92835a43.68916,43.68916,0,0,1-2.02188,12.40776,16.15877,16.15877,0,0,1-2.57215,5.06145,6.14278,6.14278,0,0,1-2.52083,2.10474,3.706,3.706,0,0,1-3.6691-.47373,9.56673,9.56673,0,0,1-2.7158-3.23365A25.77255,25.77255,0,0,1,113.8818,31.358a47.68024,47.68024,0,0,1-.87495-6.18271,61.56132,61.56132,0,0,1-.12383-6.24486c.01711-.97176.09727-1.94713.18148-2.918a20.03139,20.03139,0,0,1,1.264-3.05038Z"/><path class="cls-13" d="M111.27407,22.42526a27.34966,27.34966,0,0,1,.70158-2.90133c.06754-.11843.13914-.10627.195.0045a.90912.90912,0,0,1,.054.42239c.00136.7295-.009,1.459.0018,2.18849a48.25028,48.25028,0,0,0,1.8314,12.95083,21.08656,21.08656,0,0,0,2.93465,6.443,7.273,7.273,0,0,0,2.57756,2.39653,3.801,3.801,0,0,0,3.969-.20084,8.707,8.707,0,0,0,2.72976-2.96167,26.261,26.261,0,0,0,3.01706-7.9245,47.96012,47.96012,0,0,0,1.07308-7.02119c.10087-1.22979.17742-2.465.17832-3.70152a1.93336,1.93336,0,0,1,.023-.467c.027-.10762.04638-.249.22336-.17022a10.45792,10.45792,0,0,1,.70833,2.57576,3.38635,3.38635,0,0,0-.1.99428,52.69759,52.69759,0,0,1-1.11811,8.31357,30.341,30.341,0,0,1-2.23578,6.93878,14.552,14.552,0,0,1-2.22046,3.70783,7.62093,7.62093,0,0,1-3.15035,2.34925,4.16985,4.16985,0,0,1-3.48808-.41878,8.38022,8.38022,0,0,1-2.86845-2.75948,26.572,26.572,0,0,1-3.41378-8.056,49.49343,49.49343,0,0,1-1.33336-7.53318c-.13374-1.29238-.25352-2.58837-.26613-3.892-.0045-.42509-.05133-.85108-.02342-1.27752Z"/><path class="cls-14" d="M148.69142,30.86446c-.24677.20264-.2256.51245-.2954.77993a40.40392,40.40392,0,0,1-2.27315,6.57629,37.19553,37.19553,0,0,1-3.0891,5.63064,34.64862,34.64862,0,0,1-2.796,3.58174,28.92619,28.92619,0,0,1-5.80851,5.029,24.36785,24.36785,0,0,1-8.62157,3.54706,12.65968,12.65968,0,0,1-2.69059.33053l.97672-1.71117a1.68178,1.68178,0,0,1,.71374-.16976,23.22507,23.22507,0,0,0,8.88906-3.46512,27.35531,27.35531,0,0,0,4.98625-4.12076,32.35529,32.35529,0,0,0,3.83661-4.96913,35.40466,35.40466,0,0,0,3.5984-7.567,38.582,38.582,0,0,0,1.242-4.477c.04052-.19.02567-.43364.3062-.47867a9.60361,9.60361,0,0,1,1.02535,1.48331Z"/><path class="cls-15" d="M147.66563,29.38115a2.11337,2.11337,0,0,0-.34538,1.0902,39.94958,39.94958,0,0,1-1.99037,6.21468,34.18233,34.18233,0,0,1-3.62047,6.60961,34.97456,34.97456,0,0,1-2.465,3.10036,26.46728,26.46728,0,0,1-6.78522,5.47214,22.0121,22.0121,0,0,1-7.17564,2.60367,5.24065,5.24065,0,0,1-1.18971.15716q.50343-.96276,1.092-1.87643a1.34189,1.34189,0,0,1,.59756-.15626,23.34715,23.34715,0,0,0,9.94773-5.02182,29.26963,29.26963,0,0,0,6.86492-8.62834,35.712,35.712,0,0,0,3.6637-10.38453c.04323-.21975.02027-.48.267-.61692a18.1322,18.1322,0,0,1,1.13928,1.43648Z"/><path class="cls-16" d="M97.88509,11.62915a2.6872,2.6872,0,0,1,.85468-.15806c.23776-.0725.22065.09952.21975.23866-.00721.85874-.07205,1.71657-.12158,2.57306q-.08511,1.48105-.11618,2.963c-.04368,2.00476.0009,4.01178-.01711,6.01745-.01711,1.87553.07205,3.74836.17517,5.618a131.5118,131.5118,0,0,0,1.609,14.74395,97.87074,97.87074,0,0,0,3.36829,14.046c.47283,1.44954.97267,2.88782,1.54455,4.30089.06125.1513.16437.30485.0734.48272-.0054.8083-.09591,1.6103-.17246,2.41365-.2873-.00765-.34359-.24542-.42555-.44265q-1.192-2.86982-2.12185-5.83508a99.642,99.642,0,0,1-2.81352-11.2892q-.99741-5.25958-1.55986-10.584c-.20129-1.94083-.38817-3.88345-.50885-5.83013q-.12659-2.00523-.19273-4.01359c-.07565-2.39293-.18147-4.78586-.13239-7.17969.03872-1.885.06259-3.77222.163-5.655a20.09646,20.09646,0,0,1,.17427-2.41Z"/><path class="cls-8" d="M92.02479,13.27052a4.51619,4.51619,0,0,1,1.0965-.46607c.24451.05989.17246.25577.16346.40978-.06034,1.05191-.10852,2.10563-.11348,3.158-.00675,1.40586-.06439,2.80992-.0851,4.21487-.02792,1.9003.05719,3.80059.095,5.69954q.06531,3.27464.30171,6.547c.2247,3.18006.517,6.35383.90016,9.51949q.6669,5.5104,1.73458,10.95506.56682,2.91478,1.28788,5.79636c.05269.20984.19678.45481-.07835.634q-1.06272-1.622-2.00927-3.31426c-.48184-2.50461-.97627-5.00652-1.37524-7.52644q-.757-4.78361-1.23519-9.60234c-.20444-2.08357-.38367-4.16985-.5021-6.26062-.08736-1.54456-.15355-3.09046-.23416-4.635-.19273-3.68081-.16256-7.36342-.12564-11.04468.01351-1.3104.01081-2.62709.1351-3.93569a.42758.42758,0,0,1,.04368-.14905Z"/><path class="cls-17" d="M65.36662,57.053a.62413.62413,0,0,0,.13284.399q1.73729,2.6307,3.68216,5.11143a66.23257,66.23257,0,0,0,6.244,6.84467c1.39279,1.33832,2.86755,2.58477,4.38013,3.78933,1.48241,1.18116,3.0022,2.30557,4.58953,3.34038a.49667.49667,0,0,1,.27964.35439l-2.89908.0009a22.216,22.216,0,0,1-2.306-1.67064c-1.81114-1.40225-3.53671-2.90313-5.20915-4.4711a68.8455,68.8455,0,0,1-5.21681-5.53067,67.56408,67.56408,0,0,1-4.97049-6.66094q-.81507-1.24-1.56842-2.519a1.05729,1.05729,0,0,1-.26523-.70968Q63.83241,56.13885,65.36662,57.053Z"/><path class="cls-10" d="M125.955,85.35116c.23371-.27919.58045-.19633.86549-.2193,1.341-.10807,2.67212-.28054,4.00458-.46381,1.47521-.20264,2.931-.49669,4.3878-.79254,1.5378-.31251,3.05082-.72184,4.55441-1.16585a60.6459,60.6459,0,0,0,6.09265-2.157.74662.74662,0,0,0,.41878-.26884l4.25765.1369a2.38822,2.38822,0,0,1-.412.71464,61.91936,61.91936,0,0,1-9.11015,3.58444,67.10356,67.10356,0,0,1-9.54651,2.18219c-.797.12293-1.60174.18822-2.39383.34584-1.06272-.59441-2.111-1.21223-3.11882-1.8967Z"/><path class="cls-18" d="M79.51661,76.893H76.9359q-2.4258-1.96918-4.70751-4.10319c-1.13387-1.06048-2.20785-2.175-3.26562-3.30436A68.69753,68.69753,0,0,1,63.78694,63.179,72.24852,72.24852,0,0,1,59.527,56.63148q-.95519-1.63682-1.77421-3.34758c-.06349-.13374-.17742-.27244-.04773-.4323.847.4368,1.69315.87585,2.50686,1.37254A62.83047,62.83047,0,0,0,63.9585,60.3965a73.07686,73.07686,0,0,0,4.7656,6.18271,71.15841,71.15841,0,0,0,5.11324,5.31768,63.04655,63.04655,0,0,0,5.38882,4.56432c.13554.10356.37825.16526.29045.43184Z"/><path class="cls-19" d="M103.66613,69.50126a19.63714,19.63714,0,0,1-1.164-1.681c-.49308-.748-.98076-1.49952-1.4707-2.24929a3.15769,3.15769,0,0,0-.19589-.75066A115.85867,115.85867,0,0,1,96.34413,45.712c-.47552-3.06344-.84207-6.13994-1.13207-9.22544q-.21343-2.27226-.34088-4.55261-.14634-2.55234-.24767-5.10558c-.036-.93754-.05764-1.87373-.05-2.80992.00631-.78263-.07881-1.55986-.08151-2.34024-.0072-1.88724.0743-3.77358.095-5.66126.01215-1.12847.04683-2.26235.13825-3.39082a.557.557,0,0,1,.11437-.36384l.78083-.16662a.83851.83851,0,0,1,.10177.71149,21.57791,21.57791,0,0,0-.12113,2.49335c-.08826,2.836-.16571,5.67477-.08556,8.5117.04593,1.63777.06754,3.27734.1504,4.9142A155.80659,155.80659,0,0,0,97.5298,46.57657a110.46531,110.46531,0,0,0,4.54539,18.2505c.46382,1.3284.99518,2.63069,1.50763,3.94018C103.67288,68.996,103.8485,69.23377,103.66613,69.50126Z"/><path class="cls-20" d="M92.02479,13.27052a.94784.94784,0,0,1,.06664.68581,8.0008,8.0008,0,0,0-.06619,1.359c-.127,3.02921-.08466,6.05978-.07025,9.0899.009,1.73818.07429,3.47637.15805,5.21275.04638.9569.08556,1.91561.15986,2.86936.11753,1.52023.22155,3.04182.35935,4.56071.11077,1.22258.2139,2.447.344,3.6673q.2211,2.07771.51155,4.15.30119,2.20647.64575,4.40671c.31026,1.95208.6741,3.8938,1.05147,5.83372.08376.43005.32737.85649.13284,1.319-.61872-.96545-1.17666-1.966-1.73819-2.96482.20309-.24406.04638-.49714.00721-.74075-.222-1.38965-.46967-2.77524-.67772-4.16669-.18552-1.23835-.33052-2.483-.49353-3.72494-.12608-.95961-.26568-1.91786-.37555-2.87926-.09952-.87315-.16662-1.7499-.24948-2.62485q-.14994-1.58147-.3017-3.163c-.03513-.37376-.041-.74886-.07385-1.12352-.09231-1.05732-.10042-2.12185-.17652-3.181-.08556-1.19061-.10042-2.38392-.172-3.57273-.05179-.85829-.009-1.71432-.06034-2.569-.168-2.79461-.07881-5.59282-.05044-8.38742a31.60228,31.60228,0,0,1,.10447-3.34218c.00676-.05764-.03782-.12158-.05854-.18238a3.448,3.448,0,0,1,1.0231-.53181Z"/><path class="cls-21" d="M111.27407,22.42526c.04638.408.12608.815.13374,1.22438.03017,1.64587.19588,3.27914.385,4.91285a47.88293,47.88293,0,0,0,1.26221,6.7438,28.59581,28.59581,0,0,0,2.01467,5.514,15.39162,15.39162,0,0,0,1.9093,3.10622,6.99069,6.99069,0,0,0,3.498,2.44382,3.99289,3.99289,0,0,0,3.29445-.6507,8.96922,8.96922,0,0,0,2.73786-2.80316,25.91243,25.91243,0,0,0,2.81982-6.30655,51.37053,51.37053,0,0,0,1.18927-5.02407c.18642-.99023.30486-1.99126.4458-2.98869.186-1.3203.23281-2.65231.37826-3.97621a3.48212,3.48212,0,0,0,.0045-.46832c-.0027-.11888.05359-.12924.14455-.09367a18.88377,18.88377,0,0,1,.04683,5.16818,41.83465,41.83465,0,0,1-3.74655,12.33391c-.59485,1.35587-1.205,2.70589-1.9093,4.01a3.855,3.855,0,0,0-.76418.70518,6.13034,6.13034,0,0,1-1.81879,1.264,4.55169,4.55169,0,0,1-4.53909-.37825,9.9734,9.9734,0,0,1-2.88062-2.98554,27.34253,27.34253,0,0,1-3.34353-7.91955,52.06943,52.06943,0,0,1-1.35813-7.05225q-.23113-1.7996-.34358-3.61147c-.00766-.12878.0045-.26433-.10808-.362.15806-.94024.29765-1.88364.54757-2.80587Z"/><path class="cls-22" d="M110.72649,25.23112c.27829-.04683.20534.17967.213.30351a55.44675,55.44675,0,0,0,1.73819,10.8605,29.47454,29.47454,0,0,0,2.36276,6.17281,13.50019,13.50019,0,0,0,2.97112,3.92127,4.85522,4.85522,0,0,0,4.43012,1.24961,5.33306,5.33306,0,0,0,2.44472-1.3874c.249-.22966.47733-.48093.7223-.71464.07025-.06709.13869-.23055.27378-.06574q-.86773,1.71025-1.73683,3.42008c-.05854.11438-.13419.2193-.20219.32873a5.5515,5.5515,0,0,1-2.56765.72229,5.81036,5.81036,0,0,1-3.55923-1.41937,13.18951,13.18951,0,0,1-3.28949-4.26981,35.63283,35.63283,0,0,1-3.21609-9.18717c-.46246-2.08717-.77543-4.19731-1.0276-6.3178a3.15505,3.15505,0,0,0-.0698-.344c.1396-1.096.29315-2.18939.51291-3.27283Z"/><path class="cls-23" d="M79.51661,76.893a4.68967,4.68967,0,0,0-1.10145-.94879q-1.68351-1.3491-3.30885-2.76849c-1.54456-1.34236-2.96978-2.80631-4.3959-4.26666-1.368-1.40045-2.61854-2.90808-3.84562-4.436a68.2684,68.2684,0,0,1-4.042-5.61983c-.8826-1.36263-1.72512-2.74958-2.47894-4.18876a.70519.70519,0,0,1-.13194-.4404A22.2743,22.2743,0,0,1,62.23969,55.331a50.13752,50.13752,0,0,0,3.30975,5.22356q1.16946,1.672,2.45327,3.25887.97853,1.20727,1.99982,2.37807c1.20682,1.37974,2.44382,2.73112,3.77537,3.98882,1.42207,1.34327,2.86351,2.66582,4.39726,3.8866,1.105.8799,2.211,1.7553,3.36289,2.57216a1.69855,1.69855,0,0,1,.23776.254h-2.2592Z"/><path class="cls-24" d="M116.417,11.47244a2.97905,2.97905,0,0,1,.70743.1c.24542.14139.12924.344.07115.51785a24.08848,24.08848,0,0,0-.997,4.57512,30.99764,30.99764,0,0,0-.2864,5.33569,29.94792,29.94792,0,0,0,1.0956,7.39989,13.47628,13.47628,0,0,0,1.7634,3.90056,4.98419,4.98419,0,0,0,1.10551,1.14919,2.30557,2.30557,0,0,0,2.99229.0108,6.6636,6.6636,0,0,0,1.99756-2.70679,21.93359,21.93359,0,0,0,1.7643-6.97751,31.64252,31.64252,0,0,0,.2229-3.81635,34.15272,34.15272,0,0,0-.34718-4.62916,4.64476,4.64476,0,0,1-.05584-.50434c-.00585-.1468-.0072-.30171.2112-.29a4.25616,4.25616,0,0,1,.71959.69347c.15761,1.38379.23461,2.77029.26118,4.164A31.97258,31.97258,0,0,1,126.073,31.57954a12.8997,12.8997,0,0,1-1.631,3.27644,5.64708,5.64708,0,0,1-1.32841,1.364,2.78155,2.78155,0,0,1-3.5124-.018,7.28613,7.28613,0,0,1-2.07591-2.65411,20.5749,20.5749,0,0,1-1.8314-5.668,37.41716,37.41716,0,0,1-.57865-5.58381,37.17177,37.17177,0,0,1,.65205-8.45991A10.57689,10.57689,0,0,1,116.417,11.472Z"/><path class="cls-25" d="M105.85822,56.26988c-.01666.88936-.04458,1.77826-.15,2.66267a1.60317,1.60317,0,0,1-.42689-.73265,84.45365,84.45365,0,0,1-2.94546-10.321A111.82534,111.82534,0,0,1,100.464,36.59417c-.21029-1.821-.39357-3.64568-.51425-5.47708-.1513-2.29747-.25127-4.59494-.32422-6.89646-.05719-1.80978-.08556-3.61956-.036-5.42529.04818-1.753.05-3.51015.19859-5.26139.04413-.517.06124-1.03841.09771-1.55716.01351-.19364.00765-.39627.19994-.52236a5.33932,5.33932,0,0,1,.69347,1.19962.43725.43725,0,0,1,.05.3017c-.1324,1.54185-.12293,3.09091-.22876,4.63456-.01171.16932-.01486.33773-.01486.5075,0,1.37974.01171,2.76038-.00315,4.13967-.02072,1.96559.06664,3.92893.17426,5.88867A118.78923,118.78923,0,0,0,102.8326,45.0032a81.84423,81.84423,0,0,0,2.80451,10.56106,5.47071,5.47071,0,0,0,.2211.70563Z"/><path class="cls-26" d="M113.06449,16.012a1.76116,1.76116,0,0,1,.05854.95645,46.03658,46.03658,0,0,0-.14635,4.82729,47.81867,47.81867,0,0,0,.30171,5.00291,37.35591,37.35591,0,0,0,1.81473,8.48739,17.06423,17.06423,0,0,0,2.17183,4.38329,7.28967,7.28967,0,0,0,2.37627,2.25784,3.83844,3.83844,0,0,0,4.368-.62188,13.91939,13.91939,0,0,0,3.45835-5.487,29.8951,29.8951,0,0,0,1.42747-5.08622c.25848-1.30454.43906-2.62394.58721-3.94829a55.06675,55.06675,0,0,0,.30305-6.72308c-.0018-.14365-.01576-.29225.14411-.37376a4.677,4.677,0,0,1,.55387,1.0911,10.80981,10.80981,0,0,0-.11438,1.38694,47.67329,47.67329,0,0,1-1.0258,9.61271,28.49771,28.49771,0,0,1-2.47083,7.3472,11.67726,11.67726,0,0,1-2.53388,3.39352,4.20767,4.20767,0,0,1-5.95049-.02488l-.00211-.00214a13.606,13.606,0,0,1-3.20349-4.85116,35.7251,35.7251,0,0,1-2.30737-8.94174,50.14943,50.14943,0,0,1-.49263-6.026c-.01441-.76552-.08331-1.53465-.05313-2.30107.02611-.67546.08375-1.34957.07655-2.02683a.349.349,0,0,0-.03693-.22426,18.78294,18.78294,0,0,1,.69573-2.10833Z"/><path class="cls-27" d="M146.52725,27.94467c-.28279.90377-.39493,1.84626-.634,2.75993a39.30194,39.30194,0,0,1-2.31548,6.5209,34.21441,34.21441,0,0,1-3.73979,6.18677,24.4413,24.4413,0,0,1-3.0747,3.41017,25.90625,25.90625,0,0,1-6.85773,4.53684,23.65859,23.65859,0,0,1-4.2527,1.37389,2.38869,2.38869,0,0,1-.467.01981,12.70171,12.70171,0,0,1,.84117-1.40991,4.13775,4.13775,0,0,1,1.11226-.34718,21.02052,21.02052,0,0,0,5.50366-2.57261,26.92334,26.92334,0,0,0,8.53782-9.084,33.54872,33.54872,0,0,0,3.77492-9.51274q.267-1.142.48183-2.29386c.03558-.18913-.0036-.46742.308-.5066a5.28336,5.28336,0,0,1,.78128.91863Z"/><path class="cls-14" d="M93.57565,12.64144a2.28313,2.28313,0,0,1,.77-.24137c.24316.00225.20173.20174.21029.33638a4.64782,4.64782,0,0,1-.02072.97492,3.52621,3.52621,0,0,0-.04278.38816c-.12834,3.89155-.11348,7.78491-.06394,11.67646.02791,2.19615.1513,4.3932.3053,6.58574a156.47885,156.47885,0,0,0,2.28666,18.31714,120.10175,120.10175,0,0,0,3.09676,12.66758c.08286.272.25623.56019.02567.84973-.61151-.87-1.16809-1.77511-1.71972-2.68383.05764-.11978-.0018-.2283-.03242-.33953a133.22061,133.22061,0,0,1-3.60561-18.54094c-.31837-2.53072-.589-5.066-.78039-7.61019-.12158-1.60759-.236-3.21519-.31071-4.82639-.06259-1.35092-.09861-2.70319-.15806-4.05366-.13509-3.072-.06168-6.144-.04188-9.21463a26.01231,26.01231,0,0,1,.11754-3.11748A4.11357,4.11357,0,0,0,93.57565,12.64144Z"/><path class="cls-28" d="M129.0738,87.24786c.05719-.1441.17518-.16166.31387-.17878q2.38212-.2963,4.73993-.74885a65.58737,65.58737,0,0,0,9.40062-2.54243c1.6873-.59441,3.34308-1.273,4.98264-1.99126a5.19345,5.19345,0,0,1,1.61346-.65114,26.76732,26.76732,0,0,1-1.82014,2.68383c-.09636.11708-.16076.26658-.308.33953-1.91246.78624-3.84608,1.51483-5.818,2.14031a69.98645,69.98645,0,0,1-10.36607,2.42851,30.76417,30.76417,0,0,1-2.73786-1.47971Z"/><path class="cls-29" d="M97.88509,11.62915c.1459.14049.091.32377.07565.48092-.10447,1.07219-.095,2.15067-.16887,3.2224-.07115,1.04111.01847,2.08222-.07025,3.11613a39.193,39.193,0,0,0-.04773,4.4058c.03017,1.13027.00721,2.26189.0689,3.38946.05989,1.08749.09006,2.17588.15175,3.26247.08241,1.45945.18148,2.91889.31432,4.37474.15851,1.73728.32962,3.47411.55117,5.20375.31477,2.45957.70113,4.90834,1.14288,7.34991q.88935,4.9151,2.23983,9.72032a76.48794,76.48794,0,0,0,2.87836,8.3505.66778.66778,0,0,0,.28144.36249l-.15356,1.72018c-.2999-.02162-.35214-.28009-.4422-.48454-.53406-1.21763-.99968-2.46228-1.44638-3.71368a101.40842,101.40842,0,0,1-4.40986-17.48452c-.49939-2.99364-.8781-6.00349-1.16809-9.025-.19769-2.05925-.3589-4.12031-.467-6.18677-.06665-1.27347-.09907-2.54829-.15851-3.8213-.12834-2.76084-.06665-5.52212-.04819-8.28205.01081-1.70216.06079-3.40838.20264-5.10783.01756-.21255.08646-.44311-.0806-.63719l-.02792-.063a2.22727,2.22727,0,0,1,.78218-.15311Z"/><path class="cls-30" d="M116.417,11.47244a10.38128,10.38128,0,0,1-.41744,1.812,35.95375,35.95375,0,0,0-.60882,3.90416,32.61854,32.61854,0,0,0-.20714,3.87939,38.88449,38.88449,0,0,0,.43274,5.686,26.08137,26.08137,0,0,0,1.43108,5.47843,9.80571,9.80571,0,0,0,2.15472,3.48808,2.8803,2.8803,0,0,0,4.34861.009,9.96173,9.96173,0,0,0,2.22407-3.6691,25.24347,25.24347,0,0,0,1.44008-5.87156c.19093-1.49367.27559-2.98869.32422-4.49316.03107-.96051-.03423-1.91561-.04233-2.87206a12.20368,12.20368,0,0,0-.19813-2.19885c-.02612-.13509-.0626-.28774.08286-.394.285.18373.38816.53722.67456.71959-.28685.11708-.15176.36925-.13374.54127a22.37351,22.37351,0,0,1,.1441,2.52037c-.00586.76822.014,1.5369-.00406,2.30467a36.41837,36.41837,0,0,1-.87539,7.22788,20.00225,20.00225,0,0,1-1.84536,5.192,7.21036,7.21036,0,0,1-2.25965,2.72886,3.02156,3.02156,0,0,1-3.59615-.12924,7.34064,7.34064,0,0,1-1.94352-2.352,21.94794,21.94794,0,0,1-2.30107-7.10134c-.236-1.40271-.385-2.81352-.48138-4.23469a41.17649,41.17649,0,0,1-.03918-4.79487A32.33737,32.33737,0,0,1,115.697,12.034c.16887-.62953.16076-.63133-.46066-.64079.40843-.19993.78758.04639,1.1807.07926Z"/><path class="cls-16" d="M126.90918,49.86021l.99518-1.64362a7.67373,7.67373,0,0,1,1.06812-.47462,21.89309,21.89309,0,0,0,6.33177-4.35717,27.89531,27.89531,0,0,0,6.12867-9.19527,32.21559,32.21559,0,0,0,2.22271-8.10823,2.652,2.652,0,0,0,.02208-.46652c.30575-.45706.30756-.45886.6786-.08376.20625.2085.40618.42374.60881.63584a2.12636,2.12636,0,0,0-.21254.78623,33.78087,33.78087,0,0,1-2.4983,8.56484,29.22047,29.22047,0,0,1-4.69895,7.43727,23.83791,23.83791,0,0,1-7.66243,5.94586,18.97468,18.97468,0,0,1-2.46813.97581c-.16977.054-.34854.13329-.51561-.01666Z"/><path class="cls-29" d="M126.90918,49.86021a7.00857,7.00857,0,0,0,2.0669-.65745,21.91108,21.91108,0,0,0,5.82337-3.634,24.8764,24.8764,0,0,0,3.49213-3.65424,30.29335,30.29335,0,0,0,3.1481-4.90655,32.78994,32.78994,0,0,0,2.02187-4.97589,35.20412,35.20412,0,0,0,1.25591-5.52031c.02431-.15986.04729-.31432.24766-.34494a5.59916,5.59916,0,0,1,.78039.85919c-.295.29585-.24181.70248-.308,1.05867a36.374,36.374,0,0,1-1.92057,6.71723,32.23294,32.23294,0,0,1-4.15723,7.46519,27.95643,27.95643,0,0,1-3.61326,3.92037,22.87239,22.87239,0,0,1-8.10192,4.757,6.34906,6.34906,0,0,1-1.6175.39852Z"/><path class="cls-31" d="M122.66458,51.63712a25.38489,25.38489,0,0,1-1.24194,2.21416,4.28334,4.28334,0,0,1-2.27-.45165,8.59415,8.59415,0,0,1-3.11387-2.36412,24.47208,24.47208,0,0,1-4.30359-7.82,50.24665,50.24665,0,0,1-2.15292-8.101.263.263,0,0,0-.04052-.10717c.02161-.97131.14995-1.93362.24631-2.89818.05989-.127-.01666-.27379.05765-.39852l.02341-.37285c.27334.0797.27064.32917.30171.53451a57.54911,57.54911,0,0,0,1.57787,7.32785,28.471,28.471,0,0,0,3.77268,8.45226,10.7307,10.7307,0,0,0,3.11252,3.08911,5.02273,5.02273,0,0,0,3.35794.76327c.2175-.02657.5093-.20624.67276.13239Z"/><path class="cls-32" d="M109.54174,35.00729a3.00771,3.00771,0,0,1,.37691,1.327,45.59357,45.59357,0,0,0,2.98058,9.47041,22.2277,22.2277,0,0,0,2.78289,4.66473,9.119,9.119,0,0,0,3.25572,2.71986,4.93765,4.93765,0,0,0,2.238.57954.25758.25758,0,0,1,.24677.08241c-.40978.77633-.84433,1.5378-1.32706,2.27135a7.85385,7.85385,0,0,1-3.09181-1.5986,13.714,13.714,0,0,1-3.0927-3.68981,35.74608,35.74608,0,0,1-3.98522-9.54516c-.21119-.76372-.3634-1.5432-.61872-2.29521-.02522-1.074.10042-2.14031.16661-3.20979.0689-.18193-.02116-.38006.05719-.56063Z"/><path class="cls-33" d="M100.08574,11.45443a3.71359,3.71359,0,0,0-.14005,1.22934c-.03423.64619-.091,1.29328-.10988,1.94172-.03287,1.12982-.01936,2.26279-.08781,3.38811-.11078,1.82149-.0743,3.64208-.04323,5.46.02657,1.52969.05854,3.06209.1486,4.59.0707,1.201.13645,2.40374.23371,3.60246.11979,1.48061.30666,2.95536.45526,4.43327a106.51609,106.51609,0,0,0,1.73549,10.98119q.76193,3.6718,1.85977,7.2612.55477,1.82509,1.1726,3.62947a4.98431,4.98431,0,0,1,.39807.96141,19.46122,19.46122,0,0,1-.15445,2.428c-.16166-.55928-.37691-1.0992-.5764-1.64542a85.89987,85.89987,0,0,1-3.19808-11.10457c-.8074-3.679-1.42207-7.39134-1.87058-11.13023-.24631-2.0543-.4512-4.11311-.5836-6.17912-.09006-1.4018-.16481-2.80406-.23776-4.20676q-.2229-4.29278-.12518-8.58736c.03872-1.70171.054-3.407.19948-5.10693.045-.52956.06439-1.06453.09681-1.59679a.66331.66331,0,0,1,.095-.40978,1.39912,1.39912,0,0,1,.69707.0036.05134.05134,0,0,1,.03513.05719Z"/><path class="cls-34" d="M143.67771,25.61478c.26658.33188.04548.68627-.00271,1.00374a31.53183,31.53183,0,0,1-1.4689,5.86434,30.98806,30.98806,0,0,1-3.992,7.67549,25.091,25.091,0,0,1-3.4561,3.89155,20.64148,20.64148,0,0,1-4.22658,3.02021,16.53788,16.53788,0,0,1-2.32583,1.08164,2.38621,2.38621,0,0,1-.30081.06439l1.169-1.87778a20.414,20.414,0,0,0,5.00337-3.36334,24.6194,24.6194,0,0,0,4.866-6.11427,29.72035,29.72035,0,0,0,3.50113-9.68475,16.08211,16.08211,0,0,1,1.2334-1.56122Z"/><path class="cls-35" d="M122.66458,51.63712c-.20714-.17652-.4512-.07024-.65654-.04007a4.89349,4.89349,0,0,1-3.40927-.76192,12.15373,12.15373,0,0,1-3.919-4.29908,32.7,32.7,0,0,1-3.27193-8.17218c-.55028-2.03673-.9434-4.10454-1.30544-6.17956a1.75,1.75,0,0,0-.23326-.84658c.09411-.947.18327-1.89489.34448-2.83378.30261.208.20489.55748.23686.82767.14995,1.27076.349,2.53207.56559,3.79293.272,1.58283.63628,3.14405,1.06227,4.69085a31.65316,31.65316,0,0,0,2.60637,6.61771,14.374,14.374,0,0,0,2.6433,3.63533,6.42768,6.42768,0,0,0,3.56823,1.85076,4.28738,4.28738,0,0,0,2.42266-.42374.99073.99073,0,0,1,.62457-.17562,24.22975,24.22975,0,0,1-1.27887,2.31728Z"/><path class="cls-36" d="M93.57565,12.64144c.2139.03152.15761.199.17022.33412a13.96679,13.96679,0,0,1-.08286,1.7472c-.11393,3.44755-.08015,6.8951-.0662,10.34265.00585,1.51708.08376,3.03417.1531,4.55035q.08917,1.95883.23416,3.91542.16753,2.3015.39448,4.59809c.16031,1.59318.33007,3.18682.54937,4.7728.33953,2.45508.70113,4.907,1.13928,7.34856q.8826,4.91195,2.1313,9.74014.16077.62007.33863,1.23654c.04008.13645.09457.25758-.11393.285a14.35016,14.35016,0,0,1-1.096-1.77376c.12744-.16031.04143-.33008.00046-.48408-.53677-2.01467-.96681-4.05411-1.36623-6.09806q-.6472-3.32988-1.13973-6.68706c-.24362-1.64857-.44941-3.30165-.67276-4.95247-.14861-1.101-.2202-2.21236-.326-3.31922-.12924-1.35092-.27288-2.70094-.38231-4.05366-.07835-.96816-.11617-1.93992-.163-2.91033-.07025-1.43874-.14049-2.87747-.17967-4.31755-.01531-.56784-.06169-1.14063-.05043-1.70982.03242-1.65262-.16076-3.3021-.07746-4.95337.07791-1.53375.00226-3.0711.09682-4.59989a16.36585,16.36585,0,0,1,.12608-2.56135.26251.26251,0,0,0-.07159-.28729A.90323.90323,0,0,1,93.57565,12.64144Z"/><path class="cls-37" d="M105.85822,56.26988a.51743.51743,0,0,1-.22921-.34718q-.96276-2.837-1.72467-5.73467-.73423-2.81622-1.28878-5.67476c-.317-1.62111-.60792-3.249-.82271-4.889-.16932-1.29238-.371-2.58071-.52956-3.87444-.10807-.88485-.16751-1.77556-.24767-2.66357-.10357-1.15818-.213-2.31593-.3062-3.475-.03693-.46427-.02882-.92989-.0698-1.39686-.07565-.86459-.04864-1.73773-.09637-2.60547-.12878-2.33935-.07745-4.68-.0662-7.02029.00766-1.56842.08872-3.13729.15356-4.70571.01711-.41068.09727-.81956.1486-1.22889a7.70275,7.70275,0,0,1,.64845,1.39145,12.24527,12.24527,0,0,0-.12114,1.8269c-.10987,2.66672-.16075,5.33749-.08015,8.00466.0698,2.29971.18283,4.599.358,6.89555a105.61079,105.61079,0,0,0,3.00895,18.59813c.36385,1.3991.75832,2.7901,1.22078,4.16083a1.14877,1.14877,0,0,1,.12834.63223,16.25991,16.25991,0,0,1-.0842,2.10609Z"/><path class="cls-38" d="M99.37335,11.40534l-.231,4.14958c-.00225.03918-.00135.07836-.0027.11708-.08286,2.69149-.12338,5.38432-.06394,8.07581q.04617,2.23659.14725,4.47155c.05583,1.20232.12023,2.40554.23821,3.60245.14861,1.504.27469,3.00941.44446,4.51208q.35709,3.158.86278,6.29259c.39762,2.4902.89746,4.95878,1.4644,7.41566a84.84047,84.84047,0,0,0,2.50461,8.66256c.22875.66195.48678,1.31354.74841,1.96334a2.47085,2.47085,0,0,1,.06754.69257,4.28443,4.28443,0,0,1-.07835,1.09424c-.19948-.50344-.40573-1.00418-.59755-1.51033-.85108-2.247-1.58238-4.53234-2.21777-6.84917q-1.02266-3.72808-1.758-7.52373c-.31206-1.62381-.61106-3.25121-.82856-4.89168-.16437-1.242-.372-2.478-.52686-3.72134-.13374-1.07713-.22741-2.15967-.32738-3.24131q-.20309-2.202-.38591-4.40535c-.036-.4386-.03377-.879-.06979-1.3194-.07295-.89206-.04954-1.79132-.09592-2.68608-.15671-3.00535-.05719-6.0125-.06529-9.01875-.00406-1.40046.06034-2.80316.16661-4.19957a9.53308,9.53308,0,0,1,.10222-1.47025c.02567-.10987-.04954-.13194-.131-.1468a.84393.84393,0,0,1,.46742-.0788.11528.11528,0,0,1,.16275.00949l.00341.004Z"/><path class="cls-27" d="M104.99859,68.15258a8.9654,8.9654,0,0,1-.14365,1.50538,21.53967,21.53967,0,0,1-.942-2.0525,82.86556,82.86556,0,0,1-3.57949-10.61464A115.76428,115.76428,0,0,1,97.909,45.571c-.47958-2.96888-.8799-5.94856-1.16539-8.94355q-.28911-3.03012-.46652-6.06789c-.12293-2.11689-.17562-4.23558-.24451-6.35428q-.08662-2.53629-.04233-5.07451c.03423-1.80708.06935-3.61506.154-5.4208.02117-.45436.0734-.90736.068-1.36353a.5552.5552,0,0,1,.11258-.40347l.46337-.09817a.63629.63629,0,0,1,.10626.59171,19.04606,19.04606,0,0,0-.12293,2.22c-.14995,3.48583-.13689,6.97661-.08015,10.46423.036,2.20876.1486,4.41842.30531,6.62357A137.77776,137.77776,0,0,0,99.576,50.68743a93.59711,93.59711,0,0,0,4.47065,15.156c.308.77363.66465,1.52744.95195,2.30918Z"/><path class="cls-39" d="M103.66613,69.50126a7.75072,7.75072,0,0,0-.66915-1.9003c-1.04607-2.632-1.912-5.32263-2.70139-8.04068-1.00779-3.47187-1.77737-6.99822-2.45958-10.54439-.31972-1.66074-.594-3.33138-.81236-5.01012-.19182-1.4725-.41923-2.9396-.60566-4.41256-.109-.85873-.16571-1.72378-.24992-2.58566-.09906-1.01589-.204-2.03089-.3017-3.04678-.03828-.39942-.05224-.8029-.07115-1.20142-.054-1.12577-.136-2.25108-.18778-3.3773-.0734-1.608-.08421-3.21834-.16076-4.82414-.10042-2.10789-.0671-4.21487-.036-6.31961.01487-1.03706-.0117-2.08042.0662-3.11477.07611-1.00914.0698-2.02008.14365-3.02832a.607.607,0,0,1,.38952-.08285,2.4806,2.4806,0,0,1,.10176,1.37568c-.09186,1.68956-.12608,3.37956-.1522,5.07091-.018,1.13162-.11663,2.265-.05764,3.39532.0725,1.39234.02252,2.7856.08061,4.17614.0851,2.05295.15805,4.1068.30981,6.15615a147.23288,147.23288,0,0,0,2.03989,16.30562c.68221,3.63758,1.49007,7.245,2.51857,10.80151a81.44034,81.44034,0,0,0,3.79744,10.45748,3.45241,3.45241,0,0,1,.14049.36384c-.32738.33773-.53992.33909-.77768-.03827a1.79722,1.79722,0,0,1-.34494-.5755Z"/><path class="cls-40" d="M112.36876,18.12032a.14906.14906,0,0,1,.13645.16067v.00009c-.00135.48183.03333.96681-.0135,1.44414a12.12377,12.12377,0,0,0,.0045,2.6388,3.459,3.459,0,0,1,.01125.42914,40.602,40.602,0,0,0,.30171,4.45354,45.12018,45.12018,0,0,0,1.10145,6.21783,26.6357,26.6357,0,0,0,1.81023,5.13125,12.36993,12.36993,0,0,0,2.84279,3.91722,4.0352,4.0352,0,0,0,5.05785.412,9.33711,9.33711,0,0,0,2.69824-3.02741,25.60128,25.60128,0,0,0,2.72661-7.26255,43.12715,43.12715,0,0,0,.82406-4.73363c.13825-1.169.23506-2.34024.32332-3.5142.06079-.80695.02522-1.60984.063-2.41364a8.67343,8.67343,0,0,0,.08106-1.04471c-.00676-.09322.05944-.13645.14544-.15086l.30036.70473c-.21029.05494-.141.22966-.13419.35575a26.66827,26.66827,0,0,1-.10177,2.841c-.0662,1.22259-.20219,2.44427-.35574,3.6628a43.59013,43.59013,0,0,1-1.11991,5.822,23.29436,23.29436,0,0,1-3.02067,7.13872,7.4813,7.4813,0,0,1-3.14089,2.88061,3.7362,3.7362,0,0,1-3.05623.00316,7.22794,7.22794,0,0,1-3.10127-2.81037,24.65118,24.65118,0,0,1-3.23-7.84389,42.76574,42.76574,0,0,1-.91862-4.75615c-.15761-1.13747-.25127-2.28576-.34449-3.43314-.1504-1.85526-.13734-3.71053-.15-5.56714-.00045-.07881.1378-.2945-.13419-.25218l.39312-1.4036Z"/><path class="cls-41" d="M57.70509,52.8516a10.80234,10.80234,0,0,0,.90872,1.93587c.71554,1.38425,1.51754,2.72211,2.3389,4.04511a65.25324,65.25324,0,0,0,3.90686,5.62164c1.00149,1.28787,2.01513,2.56719,3.113,3.77987,1.16,1.28113,2.30692,2.57576,3.55922,3.76683,1.522,1.44728,3.04633,2.89412,4.703,4.19371.25127.19768.59936.33593.70068.69887q-.62864,0-1.25681.0009c-.711-.50749-1.34507-1.10775-2.00432-1.67514-1.58958-1.36893-3.06028-2.864-4.52153-4.36528a65.85437,65.85437,0,0,1-4.88808-5.67567,72.57663,72.57663,0,0,1-5.2794-7.83219c-.89161-1.52924-1.73639-3.0846-2.48569-4.68994-.06845-.14635-.18958-.29675-.041-.46562a10.31106,10.31106,0,0,1,1.246.66105Z"/><path class="cls-42" d="M74.357,76.8944l-1.01409.02431-.23687-.0126a4.78723,4.78723,0,0,1-.97987-.82812c-1.48826-1.35993-2.959-2.73562-4.33915-4.21172a81.29744,81.29744,0,0,1-5.38793-6.37815,70.31686,70.31686,0,0,1-5.00651-7.59128c-.64664-1.12982-1.22663-2.29521-1.87328-3.42413a4.4,4.4,0,0,1,.24632-1.25321c.09366-.17066.19318-.07655.28009.0009a.9925.9925,0,0,1,.208.32873c.96816,1.97865,2.04215,3.89966,3.20168,5.77113a72.50877,72.50877,0,0,0,6.1467,8.51441A77.17294,77.17294,0,0,0,71.15576,73.758q1.35231,1.29735,2.78065,2.51181C74.12374,76.42968,74.43535,76.54136,74.357,76.8944Z"/><path class="cls-43" d="M74.357,76.8944c-.22291-.49984-.73445-.71464-1.0857-1.08975-.29-.31025-.65429-.54937-.96906-.83711-1.3257-1.21223-2.61178-2.46768-3.84111-3.77492-1.67605-1.78457-3.27374-3.63939-4.76966-5.58246-1.27527-1.65623-2.46768-3.3683-3.607-5.11774-1.0267-1.57833-1.966-3.20844-2.86305-4.86422-.38411-.70968-.7331-1.43648-1.11046-2.14841-.06935-.13059-.091-.36025-.34538-.26028.0752-.29811.1567-.59441.22425-.89386.07655-.34.23821-.34989.46922-.1351a3.24536,3.24536,0,0,0,.45706,1.14738c.929,1.80123,1.88859,3.5858,2.95582,5.31047q1.57742,2.5501,3.34262,4.97364c.95466,1.309,1.96649,2.57261,2.98914,3.82761.56469.69257,1.1708,1.35272,1.76971,2.01737,1.15008,1.27707,2.38663,2.47129,3.60426,3.68217,1.23384,1.22709,2.56539,2.3461,3.883,3.48a.7331.7331,0,0,1,.2184.26523H74.357Z"/><path class="cls-44" d="M109.15087,48.92267l-.00721-.85378c-.081-.89431-.0135-1.79042-.03467-2.68563-.0018-.06755.00766-.13644.08061-.159a.17157.17157,0,0,1,.19543.09457,1.88878,1.88878,0,0,1,.20354.50434,40.08913,40.08913,0,0,0,2.67527,6.44479,20.39417,20.39417,0,0,0,3.55338,5.011,10.61363,10.61363,0,0,0,2.143,1.6828c.10537.06124.25307.09456.24947.26388a18.29717,18.29717,0,0,1-1.06452,1.74359c-.22426.10131-.37061-.05134-.52416-.16662a14.67206,14.67206,0,0,1-2.82793-2.89547,28.66489,28.66489,0,0,1-3.41467-5.94541c-.43725-1.00238-.82677-2.02278-1.22754-3.03957Z"/><path class="cls-45" d="M105.94243,54.1638a52.7501,52.7501,0,0,1-1.87552-6.41237c-.64214-2.5609-1.12982-5.15467-1.54546-7.76015q-.34493-2.16147-.57864-4.34186c-.17472-1.63326-.3508-3.26472-.46832-4.90384-.09321-1.30544-.1549-2.61178-.236-3.91767-.17878-2.87161-.16841-5.74592-.12879-8.61843.018-1.282.08015-2.56675.1387-3.84967.00675-.14185.036-.25668.17922-.31387a5.50093,5.50093,0,0,1,.46337,1.14829c-.054,3.09631-.11123,6.194-.03693,9.28938.05269,2.16958.17922,4.33916.35349,6.50559a113.96066,113.96066,0,0,0,1.75124,12.80222q.72636,3.70423,1.80483,7.317c.09366.31071.1468.63178.25083.93979A14.52013,14.52013,0,0,1,105.94243,54.1638Z"/><path class="cls-46" d="M125.021,14.28551l.62457.46516a13.95607,13.95607,0,0,1,.47733,2.4902,27.95,27.95,0,0,1,.24767,4.205,24.55249,24.55249,0,0,1-1.46935,8.42119,8.46353,8.46353,0,0,1-1.3113,2.3452,2.93358,2.93358,0,0,1-2.07456,1.25816,2.39291,2.39291,0,0,1-1.8377-.72,8.26638,8.26638,0,0,1-1.99036-3.32057,22.02077,22.02077,0,0,1-1.15143-5.53067,26.44587,26.44587,0,0,1-.14725-3.54707,24.304,24.304,0,0,1,1.44773-8.07175,1.0447,1.0447,0,0,1,.30036-.49354,1.192,1.192,0,0,1,.625.16437c.10222.1477.01215.27739-.04864.40077a17.24673,17.24673,0,0,0-1.49187,5.83283,25.23913,25.23913,0,0,0-.14049,3.77987,21.12846,21.12846,0,0,0,1.30634,7.06712,7.9028,7.9028,0,0,0,1.24465,2.157,3.00087,3.00087,0,0,0,.93979.75067,1.96415,1.96415,0,0,0,2.41319-.61062,9.37679,9.37679,0,0,0,1.939-4.00323,24.82171,24.82171,0,0,0,.70158-4.662,25.68984,25.68984,0,0,0-.70518-7.93486C124.88325,14.58316,124.75131,14.37737,125.021,14.28551Z"/><path class="cls-47" d="M109.30713,38.99386a.57592.57592,0,0,1,.23686.42509c.38366,1.56121.80155,3.11387,1.32976,4.6323a31.30621,31.30621,0,0,0,3.72043,7.64622,11.04881,11.04881,0,0,0,4.47246,3.98972,3.53775,3.53775,0,0,1,1.02895.43545,14.8862,14.8862,0,0,1-.93754,1.56526,5.09654,5.09654,0,0,1-1.4635-.71418,13.35087,13.35087,0,0,1-3.52275-3.55293,30.80543,30.80543,0,0,1-3.65784-7.30353q-.6807-1.88295-1.21493-3.8141c-.018.0725.01215.19363-.13374.20309-.02612-.83577.05043-1.66884.0806-2.50281.059-.28819-.02971-.5854.05044-.87224Z"/><path class="cls-48" d="M109.16528,42.50625c.10672-.08511.01711-.22966.09952-.32918.1441.05494.15805.18913.19138.30846a44.51643,44.51643,0,0,0,2.356,6.54612,24.71365,24.71365,0,0,0,2.69914,4.67779,11.34648,11.34648,0,0,0,4.42832,3.824,1.29311,1.29311,0,0,1,.2184.15446,12.2001,12.2001,0,0,1-.94835,1.5378,11.388,11.388,0,0,1-2.877-2.29071,20.492,20.492,0,0,1-2.74013-3.85553,40.0018,40.0018,0,0,1-3.17015-7.43412,2.60524,2.60524,0,0,0-.11393-.28865c-.01351-.02927-.05224-.04728-.16482-.14275v2.855a.519.519,0,0,1-.04322-.14545Q109.13016,45.21485,109.16528,42.50625Z"/><path class="cls-49" d="M126.662,15.53736a.20175.20175,0,0,0-.12249.24767c.19229,1.29238.27919,2.59467.37916,3.89741a26.08777,26.08777,0,0,1-.04323,3.65334,25.84651,25.84651,0,0,1-1.24509,6.81179,11.48046,11.48046,0,0,1-1.76611,3.49348,3.38633,3.38633,0,0,1-2.37176,1.47611,2.40643,2.40643,0,0,1-1.622-.52641,7.24463,7.24463,0,0,1-2.25874-3.16566,20.36507,20.36507,0,0,1-1.41081-5.12c-.18238-1.18746-.28009-2.38662-.35034-3.58984a24.20673,24.20673,0,0,1-.04638-2.569,38.172,38.172,0,0,1,.353-3.97621,24.31836,24.31836,0,0,1,.99112-4.26756.33952.33952,0,0,0-.02386-.33007l.54757.12383a.51155.51155,0,0,1,.0018.52056,24.14087,24.14087,0,0,0-1.23249,6.18542,26.75321,26.75321,0,0,0-.13869,2.84233,27.28628,27.28628,0,0,0,1.40271,8.71029,9.32717,9.32717,0,0,0,2.06241,3.45791,2.4168,2.4168,0,0,0,3.21564.00766,9.35794,9.35794,0,0,0,2.09078-3.53131,25.11249,25.11249,0,0,0,1.25455-6.22189c.07611-.83127.07835-1.66434.10988-2.49335a21.26509,21.26509,0,0,0-.08556-2.41365q-.12018-1.61625-.39627-3.21519c-.02522-.14635-.1333-.42329.22155-.39537Z"/><path class="cls-50" d="M55.5193,54.47226a1.01268,1.01268,0,0,1,.39132.47192,67.62,67.62,0,0,0,4.52108,7.63451,69.54578,69.54578,0,0,0,4.36483,5.75672q1.50673,1.78322,3.09226,3.49438c.77723.84207,1.58778,1.649,2.40509,2.44877.82451.806,1.70306,1.55807,2.555,2.3371a3.50581,3.50581,0,0,1,.25668.29045,5.64462,5.64462,0,0,1-1.40766-.14861,5.3684,5.3684,0,0,1-.89837-.7439q-2.79459-2.58792-5.319-5.442a77.22142,77.22142,0,0,1-6.4484-8.4329q-1.80663-2.71716-3.36019-5.58921a2.23168,2.23168,0,0,0-.15265-.3571Z"/><path class="cls-51" d="M109.15087,48.92267c.34313.2882.37916.7295.52731,1.10731a33.185,33.185,0,0,0,3.73935,7.20626,16.11494,16.11494,0,0,0,3.34218,3.55878.78048.78048,0,0,0,.38547.17427c-.39762.62592-.73715,1.28877-1.192,1.87823a.48638.48638,0,0,1-.25668-.16662,22.808,22.808,0,0,1-4.64581-6.12552c-.67637-1.26267-1.26987-2.5609-1.8215-3.8803C109.14546,51.42548,109.13151,50.17408,109.15087,48.92267Z"/><path class="cls-52" d="M100.14293,64.19619a3.81176,3.81176,0,0,0-.34494-1.50583,115.25308,115.25308,0,0,1-2.82387-11.58055c-.40978-2.10473-.78128-4.218-1.047-6.348-.18733-1.49952-.426-2.99183-.607-4.49181-.13644-1.12892-.21254-2.265-.326-3.39756q-.20175-2.00838-.32107-4.0235c-.04908-.83982-.10718-1.67964-.1558-2.51992-.07565-1.30859-.10222-2.61853-.15806-3.92667-.14545-3.38406-.05493-6.76812-.045-10.15128.00315-1.14918.04593-2.30692.13149-3.45835.00991-.13419.05133-.29225-.09951-.39267a1.48132,1.48132,0,0,1,.49353-.13779c.01982,1.03975-.05449,2.07906-.10267,3.11477-.04188.91007-.04728,1.81834-.04683,2.72661.0009,1.26131-.17247,2.52082-.077,3.77987.109,1.44324.01351,2.88737.08061,4.32746.05764,1.23114.09817,2.46227.15175,3.693.054,1.2415.1369,2.48255.23371,3.72134.11438,1.46935.23146,2.93961.39492,4.404.18373,1.64272.37916,3.28408.60026,4.9232q.52325,3.88165,1.255,7.72637.86144,4.563,2.08222,9.04036.73847,2.68317,1.6139,5.32578c.054.16436.21615.34944.00585.526a8.651,8.651,0,0,1-.88846-1.37479Z"/><path class="cls-53" d="M123.67057,13.51548l.72049.39267a6.183,6.183,0,0,1,.63944,1.998,24.0775,24.0775,0,0,1,.50344,4.1802,24.103,24.103,0,0,1-.34223,5.28255,12.66858,12.66858,0,0,1-1.45629,4.30809,4.77321,4.77321,0,0,1-.97987,1.20772,1.96873,1.96873,0,0,1-2.75948-.0063,5.67825,5.67825,0,0,1-1.43333-2.07231,16.58485,16.58485,0,0,1-1.241-5.183,21.49486,21.49486,0,0,1-.14951-2.882,20.29325,20.29325,0,0,1,1.32751-7.29678,4.5276,4.5276,0,0,1,.8092-1.414l.707.159c.18328.11708.09322.26118.00811.36565a9.73471,9.73471,0,0,0-1.88994,4.81378,21.34,21.34,0,0,0,.44761,9.32045,7.57868,7.57868,0,0,0,1.1789,2.4938,2.15153,2.15153,0,0,0,1.50222,1.02,1.67511,1.67511,0,0,0,1.35272-.5809,5.881,5.881,0,0,0,1.32706-2.2754,15.91907,15.91907,0,0,0,.902-4.50082,21.56444,21.56444,0,0,0-.52236-6.89555,10.23808,10.23808,0,0,0-.67546-1.91155c-.07655-.16076-.26253-.3634.02386-.52326Z"/><path class="cls-23" d="M131.81257,88.72711a2.39257,2.39257,0,0,1,1.25366-.31161,69.88272,69.88272,0,0,0,11.3752-2.99c1.02716-.36249,2.03089-.79074,3.04858-1.1807.1585-.06034.31342-.204.50614-.086a17.41209,17.41209,0,0,1-1.86247,2.09033c-.10086.095-.18012.21884-.32511.25982a4.73408,4.73408,0,0,0-.84162.2927,69.44754,69.44754,0,0,1-9.90946,2.72616,5.17946,5.17946,0,0,0-.90512.23055A16.08479,16.08479,0,0,1,131.81257,88.72711Z"/><path class="cls-54" d="M123.67057,13.51548c-.12339.1396-.03918.26884.02341.39492a13.80338,13.80338,0,0,1,1.17485,4.404,21.25906,21.25906,0,0,1,.13284,3.96316,14.58974,14.58974,0,0,1-1.5504,6.40066,3.59887,3.59887,0,0,1-1.15369,1.34417,1.62244,1.62244,0,0,1-2.09753-.18328,6.90368,6.90368,0,0,1-1.74134-3.16971,20.30216,20.30216,0,0,1-.69528-7.12386,14.72075,14.72075,0,0,1,1.29328-5.67927,4.538,4.538,0,0,1,.84073-1.30229c.10042-.1.20444-.21029.118-.37465a18.52237,18.52237,0,0,1,2.79865.92043,2.24748,2.24748,0,0,1,.85648.40527Z"/><path class="cls-55" d="M134.01637,79.87678a14.33963,14.33963,0,0,0-1.58508.34223c-1.33471.22876-2.669.453-4.01584.60477q-1.86876.21119-3.74385.32647c-.59621.036-1.19106.04413-1.78592.05539a15.93309,15.93309,0,0,1-1.62921.08376,5.78043,5.78043,0,0,1-.8119-.06169.61558.61558,0,0,0-.59215.06844c-.56514-.394-1.12757-.79164-1.69676-1.1789a.47193.47193,0,0,1-.23641-.56334c.072-.2274.2882-.18147.46652-.18282,2.35555-.02387,4.7075.10807,7.06081.18462q4.21082.13555,8.42164.285a.7407.7407,0,0,1,.14859.036Z"/><path class="cls-25" d="M142.44432,27.176c.17247.3697-.03016.716-.10357,1.05326A30.07162,30.07162,0,0,1,139.2773,36.487a28.13365,28.13365,0,0,1-2.968,4.32114,22.27369,22.27369,0,0,1-6.02511,5.03669,2.36057,2.36057,0,0,1-1.21043.49353l1.01409-1.56391a22.53015,22.53015,0,0,0,2.963-2.09168,23.34826,23.34826,0,0,0,4.71111-5.48609,28.75468,28.75468,0,0,0,3.48177-8.15641,1.80163,1.80163,0,0,1,.10943-.45166,14.46354,14.46354,0,0,1,1.0911-1.41261Z"/><path class="cls-56" d="M104.78874,70.115c-.258-.141-.27919-.42239-.38366-.6534a72.777,72.777,0,0,1-2.96528-7.82723c-.98482-3.08731-1.78907-6.22325-2.47128-9.393-.52236-2.42715-.97041-4.86782-1.37344-7.31614-.22786-1.38875-.38771-2.7892-.566-4.186-.16391-1.28113-.32827-2.56225-.46021-3.84742-.10627-1.02941-.154-2.06421-.24632-3.09542-.15356-1.71612-.25217-3.43494-.32332-5.15691-.05-1.21763-.1405-2.43526-.13734-3.65379.00495-1.73008-.17922-3.45926-.07205-5.18709.08105-1.30049.01441-2.60052.0752-3.89786.06124-1.296.16527-2.58971.145-3.8884a.42918.42918,0,0,1,.31522-.06935c-.02612,1.0258-.0009,2.05611-.09276,3.0756-.09142,1.01544.01035,2.03044-.0725,3.03867-.1387,1.67785-.07791,3.35614-.05134,5.03173.018,1.15549.01487,2.31368.0716,3.46737.05539,1.13972.09232,2.28035.15176,3.41918q.11842,2.2682.313,4.53189c.1324,1.54455.2828,3.0891.47147,4.62825.199,1.62741.46382,3.24672.68,4.87232.31972,2.41095.78082,4.79668,1.27437,7.17565q.72994,3.5178,1.70351,6.97976.713,2.52976,1.56887,5.016,1.01229,2.927,2.27269,5.75672c.10357.23416.2819.43995.23912.72184a.75508.75508,0,0,1-.0662.45706Z"/><path class="cls-57" d="M119.3089,12.03037c-.24542.61467-.61963,1.16539-.85558,1.78772a17.47884,17.47884,0,0,0-.87405,3.53671,22.66929,22.66929,0,0,0-.29135,4.1023,21.40632,21.40632,0,0,0,.89746,6.04537,7.31027,7.31027,0,0,0,1.77737,3.19988,1.89758,1.89758,0,0,0,2.83558-.004,8.16905,8.16905,0,0,0,1.96784-3.91632,23.38346,23.38346,0,0,0,.66915-4.83405,25.04254,25.04254,0,0,0-.04953-2.755,18.97457,18.97457,0,0,0-.938-5.02092,2.32589,2.32589,0,0,1-.05629-.26388l.62953.37736c-.11573.0815-.05719.17652-.03062.27829a21.73449,21.73449,0,0,1,.634,3.27058,27.32751,27.32751,0,0,1,.16616,4.27431,25.03292,25.03292,0,0,1-.77363,5.32353,10.53962,10.53962,0,0,1-1.56121,3.49979,2.71221,2.71221,0,0,1-1.99981,1.3266,2.27854,2.27854,0,0,1-1.89579-.98887,10.79447,10.79447,0,0,1-2.03989-4.74174,25.74012,25.74012,0,0,1-.49489-3.64613,25.70611,25.70611,0,0,1-.05089-2.76354,21.28128,21.28128,0,0,1,1.33336-7.177,9.44228,9.44228,0,0,0,.45391-.99022Z"/><path class="cls-58" d="M109.22922,52.67508a2.945,2.945,0,0,1,.58315,1.12712,29.07183,29.07183,0,0,0,4.15994,6.95364c.51875.62187,1.12622,1.15144,1.67379,1.74179.10582.11347.20489.23326.30711.34989a14.11937,14.11937,0,0,1-1.00238,1.56166c-.21165.05494-.29991-.12248-.41384-.23191a19.10479,19.10479,0,0,1-2.91574-3.69342,28.32116,28.32116,0,0,1-1.94082-3.55472,1.98265,1.98265,0,0,0-.2954-.50254,14.6247,14.6247,0,0,1-.08782-2.01738c-.08286-.33908.00946-.68717-.05178-1.02715Z"/><path class="cls-59" d="M104.99859,68.15258a5.09237,5.09237,0,0,1-.74751-1.52384,64.368,64.368,0,0,1-2.32809-6.44569c-.91412-2.9189-1.67964-5.87831-2.32629-8.8697q-.63492-2.9387-1.13747-5.90173c-.25307-1.50267-.48453-3.00985-.65475-4.52558-.13419-1.19377-.31926-2.38168-.4503-3.57544-.10673-.96366-.16661-1.93272-.24767-2.9-.10177-1.22393-.20805-2.44787-.304-3.6727-.03918-.50345-.027-1.00869-.07115-1.51484-.07925-.91682-.05224-1.84265-.09637-2.76308-.1486-3.12243-.07205-6.24666-.06169-9.36954.0045-1.41216.10672-2.82568.15536-4.23919.0117-.33323.0761-.66825.05944-1.00643.08871-.10267.208-.05134.31521-.06215l.01351.01666a.458.458,0,0,1,.09051.36745c-.14274,2.22092-.195,4.44363-.24136,6.6686-.02386,1.15729-.086,2.31773-.04232,3.47322.06935,1.84626.05223,3.69522.15085,5.53968.12429,2.32448.25353,4.64942.46967,6.9667.2927,3.13684.66015,6.26467,1.15729,9.37674.57324,3.5903,1.27572,7.154,2.18714,10.67408.6597,2.54648,1.38785,5.075,2.28306,7.55165a4.977,4.977,0,0,1,.19769.63268,5.836,5.836,0,0,0,.50974,1.51123c.38547.96726.74616,1.94488,1.19152,2.88692l-.00676.16121c-.06394.1513.02522.322-.059.471a.06845.06845,0,0,1-.00631.07205Z"/><path class="cls-60" d="M63.19794,38.05226c.22065-.09321.19453.07655.21569.19994.46427,2.7176,1.07534,5.40278,1.77872,8.06725.444,1.6801.92718,3.348,1.4788,4.99616.05134.154.20939.32872.01847.50119A13.40346,13.40346,0,0,1,64.606,48.94294a14.20314,14.20314,0,0,1-1.61029-10.07472,3.98039,3.98039,0,0,1,.20264-.816Z"/><path class="cls-49" d="M126.17788,15.14965c-.23281.06439-.15356.25262-.12744.38636a28.73126,28.73126,0,0,1,.46382,4.744,30.91413,30.91413,0,0,1-.47013,6.325,17.10359,17.10359,0,0,1-1.66028,5.12,6.11154,6.11154,0,0,1-1.74719,2.11194,2.6235,2.6235,0,0,1-2.86531-.26118,9.18667,9.18667,0,0,1-2.09888-3.37911,20.7808,20.7808,0,0,1-1.16179-4.703,26.46761,26.46761,0,0,1-.26658-3.28724c-.00585-.5021-.07835-1.00869-.05854-1.51349a30.23245,30.23245,0,0,1,1.21673-8.0695,2.52185,2.52185,0,0,0,.27018-.92718l.46427.09051a20.325,20.325,0,0,0-1.20907,4.21488q-.18583,1.14842-.28594,2.30827a26.18317,26.18317,0,0,0-.14275,3.26337,25.33622,25.33622,0,0,0,1.309,7.85876,8.32761,8.32761,0,0,0,1.86157,3.16026,2.26731,2.26731,0,0,0,3.41783.0063,8.12891,8.12891,0,0,0,1.84851-3.12963,20.55655,20.55655,0,0,0,1.1064-4.99256,28.04014,28.04014,0,0,0-.36744-9.19482.81911.81911,0,0,1-.02928-.53136c.18733.12023.41429.18643.53272.39942Z"/><path class="cls-61" d="M55.5193,56.19243a6.99663,6.99663,0,0,1,.89251,1.49412A80.17291,80.17291,0,0,0,60.91128,64.687q1.41981,1.971,2.94951,3.85553c.73535.90332,1.53555,1.75485,2.30017,2.63475,1.07533,1.237,2.22452,2.40284,3.39757,3.54527.60341.5881,1.24149,1.14063,1.85976,1.71341a3.78234,3.78234,0,0,1,.27919.32152,4.34838,4.34838,0,0,1-1.3311-.2256c.01035-.18553-.1378-.27289-.24632-.37826-.6624-.64214-1.34642-1.264-1.99126-1.92371-.97176-.99383-1.94893-1.98586-2.86755-3.02832a77.4419,77.4419,0,0,1-6.07464-7.77455q-1.79133-2.64646-3.35749-5.42755c-.07251-.12879-.12564-.2936-.31027-.322Z"/><path class="cls-62" d="M106.09284,46.73148c.023.75562.03557,1.51123-.00586,2.26639-.313-.04233-.31071-.322-.371-.52956-.37826-1.3-.69033-2.61718-.98662-3.93838a96.42889,96.42889,0,0,1-1.77466-11.05729c-.18733-1.78367-.33773-3.57139-.42644-5.365-.06755-1.35092-.09547-2.70319-.16437-4.05232-.086-1.69225-.02567-3.3818-.05629-5.0727-.009-.48138.09637-.95736.09142-1.44009a.39809.39809,0,0,1,.18327-.3679,11.26322,11.26322,0,0,1,.47012,1.55987c.07791,1.80483-.01035,3.61146.04414,5.41584q.06529,2.16147.20579,4.3225.17742,2.72616.48048,5.43926a92.778,92.778,0,0,0,1.645,9.97159c.21344.9515.47732,1.89129.6651,2.84819Z"/><path class="cls-63" d="M103.28292,63.14967c-.40167-1.21943-.82316-2.43345-1.20142-3.66009-.83982-2.72346-1.57337-5.47438-2.175-8.26223-.417-1.93317-.802-3.87264-1.133-5.82112-.25442-1.50088-.45931-3.01211-.66555-4.522-.19634-1.43332-.33548-2.8725-.51831-4.30673-.13058-1.0249-.16751-2.062-.24857-3.09361-.10176-1.28833-.213-2.57666-.30575-3.86589q-.05529-.83382-.06485-1.66974c-.02026-1.20772-.11617-2.41274-.10807-3.62226.0108-1.51979-.145-3.04093-.05675-4.55936.07116-1.22169.01711-2.44337.077-3.6619.05764-1.16539.122-2.32944.1495-3.49573.00631-.27064.05539-.54037.08511-.80966.17877-.02927.23326.06485.2238.22471l-.13825,2.40374c-.0036.06439-.01486.12878-.01711.19363-.10808,3.48628-.10357,6.97435-.0644,10.46063.01531,1.34687.08782,2.696.14995,4.04331.0716,1.5378.18688,3.07424.31162,4.60934.10807,1.32615.22875,2.65276.39222,3.97306.21254,1.717.42959,3.43314.67861,5.14611a111.17738,111.17738,0,0,0,2.60593,12.72568,75.08483,75.08483,0,0,0,2.76443,8.5081c.26973.67456.54307,1.34777.80785,2.02458a1.08528,1.08528,0,0,0,.317.476,1.31268,1.31268,0,0,1-.05494.55118c-.2238.05583-.25217-.13239-.313-.26208-.42779-.911-.75381-1.86382-1.14648-2.7892-.13059-.308-.2193-.63133-.35124-.93844Z"/><path class="cls-62" d="M109.385,56.42659c.34088.08871.35844.42329.47372.66375a28.80467,28.80467,0,0,0,3.10262,5.14791,12.64011,12.64011,0,0,0,1.98945,2.17093c-.38546.55974-.68086,1.17845-1.11631,1.70577-.399-.16212-.5863-.54263-.83893-.84478a28.75229,28.75229,0,0,1-2.98418-4.46569c-.09637-.17292-.10718-.44806-.40167-.45617a22.61381,22.61381,0,0,1-.15311-2.58656c-.08871-.25668.01081-.52686-.05944-.78488Z"/><path class="cls-64" d="M106.01448,52.04826a3.78618,3.78618,0,0,1-.526-1.43874c-.5129-1.67063-.93033-3.36964-1.305-5.0754-.34313-1.563-.62142-3.14135-.8943-4.71832-.23146-1.33516-.4323-2.67618-.61332-4.01854-.1378-1.024-.22515-2.0543-.33052-3.08235-.10447-1.015-.20939-2.02954-.30261-3.04543q-.05316-.57977-.07475-1.16179c-.05269-1.42477-.12879-2.85-.18958-4.27431-.10627-2.48435-.03467-4.96689-.045-7.44988-.00361-.74932.07249-1.50223.063-2.25469a.77.77,0,0,1,.09457-.33413l.37825,1.04336c-.03017,1.93722-.18643,3.874-.109,5.81031.0752,1.87013.07745,3.74206.20263,5.61263.11708,1.75169.23371,3.502.40393,5.24968q.39155,4.08118,1.09965,8.12264a85.30228,85.30228,0,0,0,2.10653,9.0872,4.65737,4.65737,0,0,1,.04818,1.699Z"/><path class="cls-18" d="M91.32141,84.0079a11.50223,11.50223,0,0,1-1.40991.93348,18.01073,18.01073,0,0,1-2.01737-1.01q-2.9646-1.57-5.76843-3.41872a1.82684,1.82684,0,0,1-.31792-.22426.94115.94115,0,0,0-.8011-.31837.26429.26429,0,0,1-.24541-.09276,18.621,18.621,0,0,1,2.25513-.0815,2.34117,2.34117,0,0,1,1.65533.30981,59.926,59.926,0,0,0,6.26963,3.46736c.17021.08286.467.10627.38.435Zm42.83141,5.75042c.06574-.19994.258-.21975.412-.24722,1.93676-.34494,3.84382-.81641,5.7387-1.341,1.67515-.46382,3.32282-1.01229,4.95878-1.59859.17021-.06124.34539-.213.54623-.0626a13.65237,13.65237,0,0,1-5.76978,3.40162,8.999,8.999,0,0,1-5.88641-.1522Z"/><path class="cls-65" d="M106.09284,46.73148a5.76951,5.76951,0,0,1-.53092-1.77151q-.77723-3.20168-1.27391-6.461c-.23822-1.54365-.45031-3.08911-.62143-4.64177-.1549-1.39955-.2972-2.79865-.394-4.20451-.09906-1.44684-.16121-2.89458-.24046-4.34186-.10807-1.976-.01486-3.95009-.06349-5.92424a1.96008,1.96008,0,0,1,.08375-.65205,10.6701,10.6701,0,0,1,.47193,1.79043c.04052.49083.03467.98347.03287,1.47565-.00765,1.862.06394,3.72314.17292,5.57976a100.6501,100.6501,0,0,0,1.78322,14.17431q.276,1.35766.57954,2.71v2.26684Z"/><path class="cls-66" d="M141.35323,28.58861a3.05761,3.05761,0,0,1-.27468,1.39235A27.36564,27.36564,0,0,1,135.737,40.13043a22.06569,22.06569,0,0,1-5.24742,4.522.60434.60434,0,0,1-.40168.122,15.19729,15.19729,0,0,1,1.00644-1.56752,17.00359,17.00359,0,0,0,2.782-2.25469,22.04756,22.04756,0,0,0,2.515-2.97293,27.55561,27.55561,0,0,0,3.86-7.924A14.74235,14.74235,0,0,1,141.35323,28.58861Z"/><path class="cls-67" d="M106.09284,44.46463a4.39913,4.39913,0,0,1-.45616-1.55c-.41384-1.78772-.70744-3.59976-1.00419-5.40954-.17562-1.06948-.254-2.15472-.41878-3.22645-.17246-1.12487-.23686-2.26009-.37015-3.38856-.09366-.7957-.11979-1.5995-.16887-2.40014-.08736-1.43738-.11708-2.87746-.18193-4.31439-.04953-1.07939-.01486-2.15607-.04863-3.23321a1.89856,1.89856,0,0,1,.08015-.41743c.29.79029.33368,1.63776.56109,2.44291a3.7,3.7,0,0,1,.06619.3661,101.224,101.224,0,0,0,1.708,16.85319,2.57834,2.57834,0,0,0,.1549.75967c.07745,1.17125.09951,2.34385.07835,3.5178Z"/><path class="cls-68" d="M106.02123,51.82a6.83372,6.83372,0,0,0-.50209-2.87746q-.95046-3.46417-1.6112-6.99822c-.33008-1.7526-.60116-3.5151-.847-5.2803-.17652-1.26626-.26028-2.54559-.40888-3.81635-.1468-1.26-.23326-2.524-.31567-3.78934-.06529-.99608-.08916-1.99486-.16526-2.98824-.07475-.97626.02026-1.95343-.0743-2.92114a25.6632,25.6632,0,0,1-.05133-3.117c.02521-1.05192.06844-2.10294.068-3.15575a1.65847,1.65847,0,0,1,.15581-.63809,3.42252,3.42252,0,0,1,.313.93664,8.14365,8.14365,0,0,0-.14634,1.69766c-.03873,1.44458-.05584,2.89277-.0009,4.33645.05493,1.43873.07385,2.87882.149,4.31665.05855,1.124.12519,2.24883.23687,3.36829.2193,2.1975.4485,4.3932.75651,6.58214a92.52132,92.52132,0,0,0,2.06241,10.30123,2.764,2.764,0,0,0,.44715,1.22078,24.8268,24.8268,0,0,1-.06574,2.82162Z"/><path class="cls-69" d="M106.01448,40.94684c-.2864-.2175-.24316-.56289-.29585-.85333-.25217-1.38425-.49534-2.77074-.69753-4.16309-.16841-1.16225-.25937-2.33574-.41383-3.50069-.17832-1.346-.22875-2.70274-.37736-4.05141-.04953-.44941-.05764-.90737-.06844-1.35678-.02476-.99878-.1468-1.99486-.10087-2.99679a2.51413,2.51413,0,0,1,.091-.69077c.2828,1.08209.43545,2.18849.612,3.28949.47552,2.96708.788,5.95306.99788,8.9494C105.88659,37.36149,106.01583,39.15147,106.01448,40.94684Z"/><path class="cls-10" d="M89.368,79.57147q2.40723-.14207,4.81918-.16841a3.47355,3.47355,0,0,1,2.44968.60836.23505.23505,0,0,1,.15535.24407q-1.28816.99457-2.65681,1.87778c-1.49682-.71509-3.00354-1.41036-4.45218-2.22226-.13779-.077-.33007-.11618-.31521-.33953Z"/><path class="cls-17" d="M89.368,79.57147a2.98335,2.98335,0,0,0,.88441.54712c1.18431.59756,2.38077,1.17035,3.57,1.75755.12023.05944.28819.0761.31341.25668a10.42982,10.42982,0,0,1-1.56437,1.024,16.00347,16.00347,0,0,1-1.80348-.83893c-1.41576-.71914-2.82792-1.45-4.17885-2.288a1.64679,1.64679,0,0,0-.92943-.208c-.1522-.00045-.317.03152-.4413-.1q1.803-.077,3.60651-.1531c.18012-.00721.362.0018.54307.00315Z"/><path class="cls-42" d="M88.19448,85.97574a3.12751,3.12751,0,0,1-.85739.55657,76.33071,76.33071,0,0,1-7.29722-4.36437c-.82857-.56334-1.65263-1.13343-2.44788-1.74269a1.18254,1.18254,0,0,0-.85378-.29631.47643.47643,0,0,1-.439-.09816,19.76861,19.76861,0,0,1,2.25965-.07925c.1441-.068.249.01486.35393.09276a66.13953,66.13953,0,0,0,6.62762,4.26936q1.18926.67316,2.39564,1.31535C88.06479,85.69835,88.29309,85.724,88.19448,85.97574Z"/><path class="cls-70" d="M140.25133,30.05526a4.10571,4.10571,0,0,1-.42058,1.56482,27.3515,27.3515,0,0,1-2.81128,5.62388,24.71115,24.71115,0,0,1-2.44471,3.10982A21.69023,21.69023,0,0,1,131.65,42.9516a1.02444,1.02444,0,0,1-.55567.25533A18.28567,18.28567,0,0,1,132.312,41.3395a17.91685,17.91685,0,0,0,2.6433-2.63655,24.95927,24.95927,0,0,0,3.6718-6.04492c.11438-.26253.19949-.53586.29541-.80515a19.86,19.86,0,0,1,1.32841-1.79762Z"/><path class="cls-23" d="M85.218,79.721a2.92782,2.92782,0,0,1,2.1232.62908q1.26808.75941,2.59332,1.41667c.76777.37691,1.531.76417,2.29431,1.14918.12519.063.27379.09591.34268.24046a5.61075,5.61075,0,0,1-1.25005.85108c-.00721-.18147-.15986-.2229-.28459-.28234a57.82972,57.82972,0,0,1-6.52315-3.60381,2.76479,2.76479,0,0,0-1.49727-.32557,18.24057,18.24057,0,0,1,2.202-.0743Z"/><path class="cls-71" d="M109.60973,60.34831c.036-.06844-.04593-.32557.16437-.11573a1.607,1.607,0,0,1,.25442.38727,29.44375,29.44375,0,0,0,3.41559,5.0646c.12473.1486.26027.2873.39041.4305a13.25321,13.25321,0,0,1-1.00553,1.513,15.21529,15.21529,0,0,1-1.41081-1.80888c-.44716-.63854-.88125-1.287-1.27977-1.95839-.06215-.10492-.08106-.2999-.2918-.23371a15.3261,15.3261,0,0,1-.15671-2.10834c-.081-.17877.0036-.37285-.05359-.55387Z"/><path class="cls-50" d="M76.29917,80.03078c.83262-.199,1.38695.33819,1.971.76552A66.16338,66.16338,0,0,0,84.932,85.08908c.73535.412,1.4752.816,2.21325,1.223.09186.05043.19139.09141.19183.22065a3.46854,3.46854,0,0,1-.78353.46382c-1.5995-.83983-3.15665-1.7544-4.69626-2.69914-1.91966-1.17756-3.7515-2.48209-5.54868-3.83617-.131-.09907-.34719-.177-.23146-.42193Z"/><path class="cls-61" d="M76.07672,80.03934c.03513.2972.31657.3688.5012.50749A70.80526,70.80526,0,0,0,83.052,84.92066c1.03751.61558,2.10023,1.18972,3.153,1.77962a.69072.69072,0,0,1,.349.2963,1.8458,1.8458,0,0,1-.70564.37961,4.66687,4.66687,0,0,0-1.291-.78128,77.5651,77.5651,0,0,1-8.8742-5.82922,1.60321,1.60321,0,0,1-.22876-.21255,1.48644,1.48644,0,0,0-1.37253-.4458,14.3537,14.3537,0,0,1,1.99486-.068Z"/><path class="cls-41" d="M80.76127,79.87723a1.66435,1.66435,0,0,1,1.164.35934,48.20724,48.20724,0,0,0,4.59223,2.82793c1.06453.5917,2.14527,1.15369,3.217,1.73143a1.15975,1.15975,0,0,1,.177.14545l-.85694.54352a53.86191,53.86191,0,0,1-5.15826-2.83063q-1.60266-.96816-3.1508-2.02052A5.895,5.895,0,0,1,80.211,80.242c-.10177-.08736-.24767-.17022-.1468-.349Z"/><path class="cls-72" d="M80.06419,79.893c.05629.3008.34178.38456.54217.52146q3.06839,2.09752,6.32861,3.8848c.60477.331,1.22574.62772,1.83276.9515.10942.05854.25937.0734.28684.23416-.31072.122-.50344.45031-.86009.49083-.0045-.1495-.13194-.17922-.23236-.231a78.09913,78.09913,0,0,1-8.24242-4.97228,8.985,8.985,0,0,0-1.16089-.82091,8.64109,8.64109,0,0,1,1.50537-.05854Z"/><path class="cls-73" d="M109.8466,63.627c.02386-.08691-.02612-.31386.16661-.10988a2.66525,2.66525,0,0,1,.3008.44851,32.62947,32.62947,0,0,0,2.37852,3.39171.45839.45839,0,0,1,.13644.27019,17.493,17.493,0,0,1-1.1699,1.73008q-.65669-.859-1.25906-1.75755a.75914.75914,0,0,0-.24632-.29135,26.08141,26.08141,0,0,1-.22785-2.66762c-.08826-.17607.01081-.3733-.06169-.55117Z"/><path class="cls-68" d="M138.92246,31.85334a1.36932,1.36932,0,0,1-.21479.85288,25.1908,25.1908,0,0,1-3.91226,6.33132c-.63673.743-1.36443,1.39144-2.03494,2.09843a.59263.59263,0,0,1-.4485.20354c1.45583-2.25964,2.99454-4.463,4.54675-6.65689.67411-.95285,1.33065-1.91921,2.06376-2.82928Z"/><path class="cls-74" d="M110.1537,67.30871c.1369-.10988.19.03828.231.09907.38546.57774.77453,1.15144,1.21133,1.69225.05043.0626.04368.17067.063.25758-.17562.26793-.349.53677-.52686.80244a.39267.39267,0,0,1-.74076-.177c-.02567-.32107-.05-.64213-.07475-.96366-.08466-.1495.00811-.322-.06169-.47327l-.01981-.37735c-.06935-.12789-.0018-.27289-.05179-.403Z"/><path class="cls-75" d="M96.79219,80.25549a4.00383,4.00383,0,0,0-2.605-.85243c.94295-.11348,1.88949-.03423,2.83379-.05855a.29722.29722,0,0,1,.30981.18643.34584.34584,0,0,1-.07205.39628,1.17543,1.17543,0,0,1-.46652.32872Z"/><path class="cls-59" d="M103.28292,63.14967c.35214.66286.56018,1.38515.85739,2.071.22155.5102.42149,1.0294.63718,1.5423a.6007.6007,0,0,0,.31657.37645l-.02342.30891a2.42253,2.42253,0,0,1-.5818-1.115c-.38006-.90511-.73535-1.821-1.09424-2.73516A3.44679,3.44679,0,0,1,103.28292,63.14967Z"/><path class="cls-51" d="M109.24543,53.38206a3.30049,3.30049,0,0,1,.05179,1.0267A4.05788,4.05788,0,0,1,109.24543,53.38206Z"/><path class="cls-25" d="M99.37335,11.40534l-.16661-.01351a1.18343,1.18343,0,0,1,.84387.00541Z"/><path class="cls-32" d="M109.29632,39.1312a2.41278,2.41278,0,0,1-.05043.87224A2.84282,2.84282,0,0,1,109.29632,39.1312Z"/><path class="cls-58" d="M109.39719,56.97687a1.9627,1.9627,0,0,1,.05944.78488A2.4735,2.4735,0,0,1,109.39719,56.97687Z"/><path class="cls-71" d="M109.86416,64.08991c.12428.17247.045.367.06169.55118A1.31288,1.31288,0,0,1,109.86416,64.08991Z"/><path class="cls-62" d="M109.6363,60.96479c.11257.17562.04008.3688.05359.55387A1.28328,1.28328,0,0,1,109.6363,60.96479Z"/><path class="cls-31" d="M109.53093,35.22343c-.01216.18733.06664.38457-.05764.56064A1.27666,1.27666,0,0,1,109.53093,35.22343Z"/><path class="cls-73" d="M110.255,68.54615c.118.145.04818.31477.06169.47373A.99779.99779,0,0,1,110.255,68.54615Z"/><path class="cls-59" d="M105.00444,68.08054c.01846-.15761-.054-.32558.05944-.471a1.00978,1.00978,0,0,1-.059.471Z"/><path class="cls-73" d="M110.18343,67.76577c.10086.12339.04773.267.05178.40257A.73129.73129,0,0,1,110.18343,67.76577Z"/><path class="cls-35" d="M109.84524,31.71059c-.00765.13419.05.27829-.05719.39852a.65072.65072,0,0,1,.05765-.39852Z"/><path class="cls-76" d="M103.50943,109.12152H98.14717l2.63249-6.38175,2.72976,6.3813Z"/><path class="cls-77" d="M124.63108,20.78209a17.25947,17.25947,0,0,1-.81821,5.74817,6.23609,6.23609,0,0,1-.95465,1.86112c-1.01454,1.30183-2.14527,1.1136-3.0049-.05539a9.09839,9.09839,0,0,1-1.40721-3.67451,18.48056,18.48056,0,0,1-.29045-4.9196,12.79216,12.79216,0,0,1,1.3185-5.39108,3.37042,3.37042,0,0,1,1.033-1.24735,1.48745,1.48745,0,0,1,2.04079.23911,4.11735,4.11735,0,0,1,.87225,1.28068,12.272,12.272,0,0,1,1.05191,3.88164,14.86752,14.86752,0,0,1,.159,2.27721Z"/><path class="cls-78" d="M118.60687,21.11126a13.65468,13.65468,0,0,1,.77-5.016,4.6022,4.6022,0,0,1,.779-1.42882c.86459-1.01544,1.71162-.97,2.51812.10717a7.895,7.895,0,0,1,1.2487,3.35974,15.66035,15.66035,0,0,1,.21794,3.99152,11.38355,11.38355,0,0,1-1.07353,4.57963,3.66521,3.66521,0,0,1-.75066,1.03525,1.29419,1.29419,0,0,1-1.82984.03925q-.02675-.02564-.052-.05276a5.396,5.396,0,0,1-1.35272-2.63339,13.44848,13.44848,0,0,1-.47507-3.98162Z"/><path class="cls-79" d="M118.98288,21.43638a12.5763,12.5763,0,0,1,.80514-4.95563,3.23513,3.23513,0,0,1,.86729-1.23023c.575-.48949,1.33651-.30621,1.858.4413a6.85666,6.85666,0,0,1,1.01679,2.66626,13.8892,13.8892,0,0,1,.2238,3.56193,10.44483,10.44483,0,0,1-.79884,3.73755,3.36064,3.36064,0,0,1-.82227,1.1717,1.11856,1.11856,0,0,1-1.52068-.018,4.78391,4.78391,0,0,1-1.28338-2.614,11.14373,11.14373,0,0,1-.34584-2.76083Z"/><path class="cls-80" d="M123.37066,20.96086a9.233,9.233,0,0,1-.47417,3.44034,3.12827,3.12827,0,0,1-.92178,1.504.96491.96491,0,0,1-1.4779-.27559,6.12553,6.12553,0,0,1-1.0312-2.89772,12.15641,12.15641,0,0,1-.0653-2.5672,6.64634,6.64634,0,0,1,1.08074-3.67586,1.0252,1.0252,0,0,1,1.80258.01171,5.2844,5.2844,0,0,1,.929,2.40689,8.4784,8.4784,0,0,1,.15806,2.0534Z"/><path class="cls-81" d="M120.16493,21.04417a6.48222,6.48222,0,0,1,.48859-2.338,1.47515,1.47515,0,0,1,.3634-.45256.51334.51334,0,0,1,.726-.00539l.008.0081a2.22718,2.22718,0,0,1,.62413,1.26536,6.23938,6.23938,0,0,1-.16977,3.62362,1.27622,1.27622,0,0,1-.12158.28549c-.16887.25758-.313.54578-.68987.55388-.37961.00856-.53947-.27018-.70248-.53136A3.38311,3.38311,0,0,1,120.26,21.9718a3.33349,3.33349,0,0,1-.09457-.92763Z"/></svg>