<svg id="Layer_1" data-name="Layer 1" xmlns="http://www.w3.org/2000/svg" viewBox="0 0 215 127"><defs><style>.cls-1{fill:transparent;}</style></defs><title>kubernetes.io-logos</title><rect class="cls-1" x="-3.55202" y="-3.16104" width="223.25536" height="134.51136"/><path id="path5" d="M141.73824,63.05113H127.82345l2.25647-3.85486c.93932-1.59742,1.78587-2.16178,3.19675-2.16178,1.40994,0,1.88056,1.12776,1.12871,2.5377h14.197l1.4109-2.5377c1.034-1.88055,1.034-3.94955-1.50463-3.94955h-25.0097c-2.25648,0-4.04329.28218-5.35949,2.44492l-4.41922,7.52127c-1.2215,2.16274-1.12776,3.94956,1.88056,3.94956h14.3854L127.636,71.13676a3.487,3.487,0,0,1-3.47894,1.88056c-1.69307,0-1.59837-1.12776-.84654-2.25552H109.20724l-1.69307,2.82084c-1.034,1.78681-.18748,3.38519,2.25648,3.38519h24.82127a6.07295,6.07295,0,0,0,5.35949-2.91457l4.23078-7.05162C145.12343,65.21387,144.65281,63.05113,141.73824,63.05113Z"/><path id="path7" d="M202.14279,57.7299a2.01608,2.01608,0,1,0,2.06708,2.00395A2.04547,2.04547,0,0,0,202.14279,57.7299Zm0,3.63676a1.62259,1.62259,0,1,1,1.673-1.63377A1.64448,1.64448,0,0,1,202.14279,61.36666Z"/><path id="path9" d="M109.67787,53.08494H88.42834c-2.91458,0-6.67569,0-8.93217,3.94955l-9.4028,15.98283c-1.31619,2.16274-.18748,3.94956,2.25648,3.94956H97.07833c2.53865,0,4.137-.7528,6.11133-3.94956l9.40279-15.98283C113.814,54.96645,111.9334,53.08494,109.67787,53.08494ZM97.73642,59.19627l-7.05065,11.9405c-.94028,1.69307-1.78682,1.88055-3.94955,1.88055s-2.7271-.75184-2.068-1.88055l7.14535-11.94049a3.9896,3.9896,0,0,1,4.0433-2.16179C97.64364,57.03449,98.6767,57.59885,97.73642,59.19627Z"/><path id="path11" d="M72.44455,53.08494H45.17837L33.42631,73.01732h-25.95l.01294,3.94956H59.846c3.47893,0,4.60669-1.69308,5.35949-3.00928l2.81988-4.88887c.7528-1.3162.7528-2.82084-.75184-3.66642a5.94452,5.94452,0,0,0,4.79513-3.19676l2.82085-4.79514C76.30036,55.06019,74.60728,53.08494,72.44455,53.08494ZM58.436,69.16342,57.02512,71.419a2.662,2.662,0,0,1-2.6324,1.59837H47.43485l3.57554-6.01663H57.777C58.99942,67.00069,58.99942,68.12845,58.436,69.16342Zm5.9229-9.96715L62.948,61.45275a2.662,2.662,0,0,1-2.6324,1.59838H53.35774l3.57268-6.01664h6.76943C64.92327,57.03449,64.92327,58.16225,64.35891,59.19627Z"/><path id="path13" d="M203.20455,59.20871a.55269.55269,0,0,0-.25635-.485,1.13731,1.13731,0,0,0-.56532-.10809h-1.01107v2.25457h.34244V59.83046h.40462l.66193,1.0388h.3941l-.7021-1.0388C202.88507,59.81994,203.20455,59.6535,203.20455,59.20871Zm-1.11341.34244h-.37687V58.872h.5988c.29173,0,.54809.03922.54809.331C202.86211,59.60854,202.41636,59.55115,202.09114,59.55115Z"/><path id="polygon1317" d="M168.49306,57.03164h35.25806l-.011-3.94955H156.741L142.73151,76.964h32.71941l2.35022-3.94955H159.09122l3.57267-6.01664h18.70993l2.25649-3.94955H165.01508Z"/></svg>