<svg xmlns="http://www.w3.org/2000/svg" width="761.573" height="740.325"><path d="M-391.429 129.505l-168.046 108.951-189.956-63.453-68.826-188.077 104.132-171.074 198.677-25.25 143.613 139.59z" transform="matrix(-.74344 -1.21108 1.22108 -.73736 -68.398 -319.442)" fill="#fff" stroke="#fff" stroke-width="69" stroke-linejoin="round"/><path d="M378.35 29.24a46.725 46.342 0 0 0-17.906 4.53L116.1 150.52a46.725 46.342 0 0 0-25.281 31.438l-60.282 262.25a46.725 46.342 0 0 0 6.344 35.532 46.725 46.342 0 0 0 2.656 3.687l169.125 210.281a46.725 46.342 0 0 0 36.532 17.438l271.218-.063a46.725 46.342 0 0 0 36.532-17.406l169.062-210.312a46.725 46.342 0 0 0 9.031-39.22l-60.375-262.25a46.725 46.342 0 0 0-25.28-31.437L401.005 33.771a46.725 46.342 0 0 0-22.656-4.531z" fill="#326ce5"/><path d="M380.771 118.487c-8.077 0-14.626 7.276-14.625 16.25 0 .137.028.269.031.406-.012 1.22-.07 2.688-.03 3.75.192 5.176 1.32 9.137 2 13.906 1.23 10.207 2.26 18.668 1.624 26.531-.619 2.966-2.803 5.678-4.75 7.563l-.344 6.187a190.337 190.337 0 0 0-26.437 4.063c-37.975 8.622-70.67 28.183-95.563 54.594a245.167 245.167 0 0 1-5.281-3.75c-2.611.352-5.25 1.158-8.687-.844-6.545-4.406-12.506-10.487-19.72-17.813-3.304-3.504-5.698-6.84-9.624-10.218-.892-.767-2.253-1.805-3.25-2.594-3.07-2.448-6.69-3.724-10.188-3.844-4.496-.154-8.824 1.604-11.656 5.156-5.035 6.316-3.423 15.969 3.594 21.563.071.057.147.1.219.156.964.782 2.144 1.783 3.03 2.438 4.168 3.076 7.974 4.651 12.126 7.093 8.747 5.402 15.998 9.881 21.75 15.282 2.246 2.394 2.638 6.613 2.937 8.437l4.688 4.188c-25.094 37.763-36.707 84.41-29.844 131.937l-6.125 1.781c-1.614 2.085-3.895 5.365-6.281 6.344-7.525 2.37-15.994 3.24-26.219 4.313-4.8.399-8.942.16-14.031 1.125-1.12.212-2.68.618-3.906.906-.043.009-.083.022-.125.031-.067.016-.155.048-.22.063-8.62 2.082-14.157 10.006-12.374 17.812 1.783 7.808 10.203 12.557 18.875 10.688.062-.015.153-.017.219-.032.097-.022.184-.07.28-.093 1.21-.266 2.725-.56 3.782-.844 5.003-1.34 8.627-3.308 13.125-5.031 9.677-3.471 17.692-6.37 25.5-7.5 3.261-.256 6.697 2.012 8.406 2.969l6.375-1.094c14.67 45.483 45.414 82.245 84.344 105.312l-2.656 6.375c.957 2.476 2.013 5.825 1.3 8.27-2.839 7.36-7.701 15.13-13.238 23.793-2.68 4.002-5.424 7.107-7.843 11.687-.58 1.096-1.317 2.78-1.875 3.938-3.76 8.042-1.002 17.305 6.218 20.781 7.266 3.498 16.285-.191 20.188-8.25.006-.011.025-.02.031-.031.004-.01-.004-.023 0-.031.556-1.143 1.344-2.645 1.812-3.72 2.073-4.746 2.762-8.814 4.22-13.405 3.869-9.72 5.995-19.92 11.322-26.275 1.458-1.74 3.837-2.409 6.302-3.07l3.313-6c33.938 13.028 71.926 16.523 109.875 7.907a189.77 189.77 0 0 0 25.093-7.562c.931 1.65 2.662 4.825 3.125 5.625 2.506.815 5.24 1.236 7.47 4.53 3.985 6.81 6.71 14.865 10.03 24.595 1.458 4.59 2.178 8.659 4.25 13.406.473 1.082 1.256 2.605 1.813 3.75 3.895 8.085 12.942 11.787 20.219 8.281 7.22-3.478 9.98-12.74 6.218-20.781-.558-1.158-1.327-2.842-1.906-3.938-2.42-4.58-5.162-7.654-7.844-11.656-5.537-8.662-10.13-15.858-12.968-23.219-1.187-3.796.2-6.157 1.125-8.625-.554-.634-1.74-4.22-2.438-5.906 40.458-23.888 70.299-62.021 84.313-106.062 1.892.297 5.181.879 6.25 1.093 2.2-1.45 4.222-3.343 8.187-3.03 7.809 1.128 15.823 4.029 25.5 7.5 4.498 1.722 8.122 3.722 13.125 5.062 1.058.283 2.573.547 3.781.812.098.024.184.072.282.094.065.014.156.017.218.031 8.673 1.867 17.094-2.879 18.875-10.687 1.781-7.807-3.754-15.733-12.375-17.813-1.253-.285-3.032-.77-4.25-1-5.089-.964-9.23-.726-14.03-1.125-10.225-1.071-18.694-1.943-26.22-4.312-3.068-1.19-5.25-4.842-6.312-6.344l-5.906-1.719c3.062-22.154 2.236-45.211-3.063-68.281-5.348-23.285-14.8-44.581-27.406-63.344 1.515-1.377 4.376-3.91 5.187-4.656.238-2.624.034-5.376 2.75-8.281 5.752-5.401 13.004-9.88 21.75-15.282 4.152-2.442 7.99-4.017 12.157-7.093.942-.696 2.229-1.798 3.218-2.594 7.016-5.597 8.631-15.249 3.594-21.563-5.037-6.314-14.797-6.909-21.812-1.312-.999.79-2.354 1.822-3.25 2.594-3.927 3.377-6.352 6.714-9.657 10.218-7.212 7.326-13.174 13.438-19.718 17.844-2.836 1.651-6.99 1.08-8.875.969l-5.563 3.969c-31.719-33.261-74.905-54.526-121.406-58.657-.13-1.949-.3-5.471-.344-6.531-1.903-1.822-4.203-3.377-4.78-7.313-.637-7.863.425-16.324 1.655-26.53.68-4.77 1.808-8.731 2-13.907.044-1.177-.026-2.884-.03-4.156-.002-8.974-6.549-16.251-14.626-16.25zM362.46 231.924l-4.344 76.719-.313.156c-.291 6.864-5.94 12.344-12.875 12.344-2.84 0-5.463-.912-7.593-2.469l-.125.063-62.907-44.594c19.334-19.011 44.063-33.06 72.563-39.531a154.125 154.125 0 0 1 15.594-2.688zm36.656 0c33.273 4.093 64.045 19.159 87.625 42.25l-62.5 44.313-.219-.094c-5.547 4.052-13.363 3.046-17.687-2.375a12.807 12.807 0 0 1-2.813-7.469l-.062-.03zM251.49 302.8l57.437 51.375-.062.313c5.184 4.507 5.949 12.328 1.625 17.75a12.892 12.892 0 0 1-6.688 4.406l-.062.25-73.625 21.25c-3.747-34.265 4.328-67.574 21.375-95.344zm258.156.031c8.534 13.833 14.997 29.283 18.844 46.032 3.8 16.548 4.755 33.067 3.187 49.03l-74-21.312-.062-.312c-6.627-1.811-10.7-8.552-9.156-15.313a12.786 12.786 0 0 1 4.093-6.843l-.03-.157 57.124-51.125zM368.99 358.143h23.531l14.625 18.281-5.25 22.813-21.125 10.156-21.187-10.188-5.25-22.812zm75.437 62.562c1-.05 1.996.04 2.97.22l.124-.157 76.156 12.875c-11.145 31.313-32.472 58.44-60.968 76.594l-29.563-71.407.094-.125c-2.716-6.31.002-13.71 6.25-16.718 1.6-.77 3.27-1.197 4.937-1.282zm-127.906.313c5.812.081 11.025 4.115 12.375 10.031.632 2.77.325 5.514-.719 7.938l.22.28-29.25 70.688c-27.348-17.548-49.13-43.824-60.782-76.062l75.5-12.813.125.157c.844-.156 1.7-.23 2.531-.219zm63.781 30.969a12.764 12.764 0 0 1 6.032 1.281c2.56 1.232 4.536 3.173 5.78 5.5h.282l37.219 67.25a154.256 154.256 0 0 1-14.875 4.156c-28.465 6.463-56.839 4.505-82.531-4.25l37.125-67.125h.062a12.91 12.91 0 0 1 10.906-6.812z" style="text-indent:0;text-align:start;line-height:normal;text-transform:none;block-progression:tb;marker:none;-inkscape-font-specification:Sans" font-weight="400" color="#000" fill="#fff" stroke="#fff" stroke-width=".25" overflow="visible" font-family="Sans"/></svg>