<svg id="Layer_1" data-name="Layer 1" xmlns="http://www.w3.org/2000/svg" viewBox="0 0 215 127"><defs><style>.cls-1{fill:transparent;}.cls-2{fill:#006cb7;}</style></defs><title>nokia</title><rect class="cls-1" x="-3.35417" y="-4.36563" width="223.25536" height="134.51136"/><polygon class="cls-2" points="23.535 77.585 14.624 77.585 14.624 48.305 30.04 48.305 47.717 70.171 47.717 48.305 56.626 48.305 56.626 77.585 41.529 77.585 23.535 55.356 23.535 77.585"/><path class="cls-2" d="M86.96953,70.53817c2.03268,0,2.74956-.11608,3.23784-.54371.45706-.39991.65794-.91707.65794-2.63643V58.4191c0-1.72-.20088-2.23418-.65794-2.63711-.48828-.42873-1.20515-.53939-3.23783-.53939H72.49669c-2.03268,0-2.74592.11066-3.233.53939-.45946.40293-.65671.91714-.65671,2.63711V67.358c0,1.71936.19725,2.23652.65671,2.63643.48711.42763,1.20035.54371,3.233.54371Zm12.2923-2.0014c0,4.06413-.74575,5.47257-1.97375,6.81726-1.89554,2.00436-4.6451,2.60576-9.9469,2.60576H72.12862c-5.30181,0-8.05253-.6014-9.94327-2.60576-1.2328-1.34469-1.97732-2.75313-1.97732-6.81726V57.2488c0-4.07017.74452-5.478,1.97732-6.82508,1.89074-2.00442,4.64146-2.60343,9.94327-2.60343H87.34118c5.3018,0,8.05135.599,9.9469,2.60343,1.228,1.34709,1.97375,2.75491,1.97375,6.82508Z"/><path class="cls-2" d="M127.93816,48.305h12.28866L123.64069,62.0021l18.7126,15.58666H129.19743L112.21318,62.31364Zm-15.725,29.28376h-9.30942V48.305h9.30942Z"/><rect class="cls-2" x="144.07442" y="48.305" width="9.31421" height="29.28376"/><path class="cls-2" d="M171.34711,66.124h11.57544L177.1324,55.52643Zm17.53874,11.46113L186.1315,72.486H168.11293l-2.72431,5.09914H155.10136L171.60454,48.305h11.57784l16.50553,29.28013Z"/></svg>