<?xml version="1.0"?>
<svg xmlns="http://www.w3.org/2000/svg" xmlns:xlink="http://www.w3.org/1999/xlink" width="936.0999999630001" height="725.1999999999999" font-family="Consolas, Menlo, 'Bitstream Vera Sans Mono', monospace, 'Powerline Symbols'" font-size="14px">
<style>
<!-- asciinema theme -->

.default-text-fill {fill: #cccccc}
.default-bg-fill {fill: #121314}

.c-0 {fill: #000000}
.c-1 {fill: #dd3c69}
.c-2 {fill: #4ebf22}
.c-3 {fill: #ddaf3c}
.c-4 {fill: #26b0d7}
.c-5 {fill: #b954e1}
.c-6 {fill: #54e1b9}
.c-7 {fill: #d9d9d9}
.c-8 {fill: #4d4d4d}
.c-9 {fill: #dd3c69}
.c-10 {fill: #4ebf22}
.c-11 {fill: #ddaf3c}
.c-12 {fill: #26b0d7}
.c-13 {fill: #b954e1}
.c-14 {fill: #54e1b9}
.c-15 {fill: #ffffff}
.c-8, .c-9, .c-10, .c-11, .c-12, .c-13, .c-14, .c-15 {font-weight: bold}

<!-- 256 colors -->

.c-16 {fill: #000000}
.c-17 {fill: #00005f}
.c-18 {fill: #000087}
.c-19 {fill: #0000af}
.c-20 {fill: #0000d7}
.c-21 {fill: #0000ff}
.c-22 {fill: #005f00}
.c-23 {fill: #005f5f}
.c-24 {fill: #005f87}
.c-25 {fill: #005faf}
.c-26 {fill: #005fd7}
.c-27 {fill: #005fff}
.c-28 {fill: #008700}
.c-29 {fill: #00875f}
.c-30 {fill: #008787}
.c-31 {fill: #0087af}
.c-32 {fill: #0087d7}
.c-33 {fill: #0087ff}
.c-34 {fill: #00af00}
.c-35 {fill: #00af5f}
.c-36 {fill: #00af87}
.c-37 {fill: #00afaf}
.c-38 {fill: #00afd7}
.c-39 {fill: #00afff}
.c-40 {fill: #00d700}
.c-41 {fill: #00d75f}
.c-42 {fill: #00d787}
.c-43 {fill: #00d7af}
.c-44 {fill: #00d7d7}
.c-45 {fill: #00d7ff}
.c-46 {fill: #00ff00}
.c-47 {fill: #00ff5f}
.c-48 {fill: #00ff87}
.c-49 {fill: #00ffaf}
.c-50 {fill: #00ffd7}
.c-51 {fill: #00ffff}
.c-52 {fill: #5f0000}
.c-53 {fill: #5f005f}
.c-54 {fill: #5f0087}
.c-55 {fill: #5f00af}
.c-56 {fill: #5f00d7}
.c-57 {fill: #5f00ff}
.c-58 {fill: #5f5f00}
.c-59 {fill: #5f5f5f}
.c-60 {fill: #5f5f87}
.c-61 {fill: #5f5faf}
.c-62 {fill: #5f5fd7}
.c-63 {fill: #5f5fff}
.c-64 {fill: #5f8700}
.c-65 {fill: #5f875f}
.c-66 {fill: #5f8787}
.c-67 {fill: #5f87af}
.c-68 {fill: #5f87d7}
.c-69 {fill: #5f87ff}
.c-70 {fill: #5faf00}
.c-71 {fill: #5faf5f}
.c-72 {fill: #5faf87}
.c-73 {fill: #5fafaf}
.c-74 {fill: #5fafd7}
.c-75 {fill: #5fafff}
.c-76 {fill: #5fd700}
.c-77 {fill: #5fd75f}
.c-78 {fill: #5fd787}
.c-79 {fill: #5fd7af}
.c-80 {fill: #5fd7d7}
.c-81 {fill: #5fd7ff}
.c-82 {fill: #5fff00}
.c-83 {fill: #5fff5f}
.c-84 {fill: #5fff87}
.c-85 {fill: #5fffaf}
.c-86 {fill: #5fffd7}
.c-87 {fill: #5fffff}
.c-88 {fill: #870000}
.c-89 {fill: #87005f}
.c-90 {fill: #870087}
.c-91 {fill: #8700af}
.c-92 {fill: #8700d7}
.c-93 {fill: #8700ff}
.c-94 {fill: #875f00}
.c-95 {fill: #875f5f}
.c-96 {fill: #875f87}
.c-97 {fill: #875faf}
.c-98 {fill: #875fd7}
.c-99 {fill: #875fff}
.c-100 {fill: #878700}
.c-101 {fill: #87875f}
.c-102 {fill: #878787}
.c-103 {fill: #8787af}
.c-104 {fill: #8787d7}
.c-105 {fill: #8787ff}
.c-106 {fill: #87af00}
.c-107 {fill: #87af5f}
.c-108 {fill: #87af87}
.c-109 {fill: #87afaf}
.c-110 {fill: #87afd7}
.c-111 {fill: #87afff}
.c-112 {fill: #87d700}
.c-113 {fill: #87d75f}
.c-114 {fill: #87d787}
.c-115 {fill: #87d7af}
.c-116 {fill: #87d7d7}
.c-117 {fill: #87d7ff}
.c-118 {fill: #87ff00}
.c-119 {fill: #87ff5f}
.c-120 {fill: #87ff87}
.c-121 {fill: #87ffaf}
.c-122 {fill: #87ffd7}
.c-123 {fill: #87ffff}
.c-124 {fill: #af0000}
.c-125 {fill: #af005f}
.c-126 {fill: #af0087}
.c-127 {fill: #af00af}
.c-128 {fill: #af00d7}
.c-129 {fill: #af00ff}
.c-130 {fill: #af5f00}
.c-131 {fill: #af5f5f}
.c-132 {fill: #af5f87}
.c-133 {fill: #af5faf}
.c-134 {fill: #af5fd7}
.c-135 {fill: #af5fff}
.c-136 {fill: #af8700}
.c-137 {fill: #af875f}
.c-138 {fill: #af8787}
.c-139 {fill: #af87af}
.c-140 {fill: #af87d7}
.c-141 {fill: #af87ff}
.c-142 {fill: #afaf00}
.c-143 {fill: #afaf5f}
.c-144 {fill: #afaf87}
.c-145 {fill: #afafaf}
.c-146 {fill: #afafd7}
.c-147 {fill: #afafff}
.c-148 {fill: #afd700}
.c-149 {fill: #afd75f}
.c-150 {fill: #afd787}
.c-151 {fill: #afd7af}
.c-152 {fill: #afd7d7}
.c-153 {fill: #afd7ff}
.c-154 {fill: #afff00}
.c-155 {fill: #afff5f}
.c-156 {fill: #afff87}
.c-157 {fill: #afffaf}
.c-158 {fill: #afffd7}
.c-159 {fill: #afffff}
.c-160 {fill: #d70000}
.c-161 {fill: #d7005f}
.c-162 {fill: #d70087}
.c-163 {fill: #d700af}
.c-164 {fill: #d700d7}
.c-165 {fill: #d700ff}
.c-166 {fill: #d75f00}
.c-167 {fill: #d75f5f}
.c-168 {fill: #d75f87}
.c-169 {fill: #d75faf}
.c-170 {fill: #d75fd7}
.c-171 {fill: #d75fff}
.c-172 {fill: #d78700}
.c-173 {fill: #d7875f}
.c-174 {fill: #d78787}
.c-175 {fill: #d787af}
.c-176 {fill: #d787d7}
.c-177 {fill: #d787ff}
.c-178 {fill: #d7af00}
.c-179 {fill: #d7af5f}
.c-180 {fill: #d7af87}
.c-181 {fill: #d7afaf}
.c-182 {fill: #d7afd7}
.c-183 {fill: #d7afff}
.c-184 {fill: #d7d700}
.c-185 {fill: #d7d75f}
.c-186 {fill: #d7d787}
.c-187 {fill: #d7d7af}
.c-188 {fill: #d7d7d7}
.c-189 {fill: #d7d7ff}
.c-190 {fill: #d7ff00}
.c-191 {fill: #d7ff5f}
.c-192 {fill: #d7ff87}
.c-193 {fill: #d7ffaf}
.c-194 {fill: #d7ffd7}
.c-195 {fill: #d7ffff}
.c-196 {fill: #ff0000}
.c-197 {fill: #ff005f}
.c-198 {fill: #ff0087}
.c-199 {fill: #ff00af}
.c-200 {fill: #ff00d7}
.c-201 {fill: #ff00ff}
.c-202 {fill: #ff5f00}
.c-203 {fill: #ff5f5f}
.c-204 {fill: #ff5f87}
.c-205 {fill: #ff5faf}
.c-206 {fill: #ff5fd7}
.c-207 {fill: #ff5fff}
.c-208 {fill: #ff8700}
.c-209 {fill: #ff875f}
.c-210 {fill: #ff8787}
.c-211 {fill: #ff87af}
.c-212 {fill: #ff87d7}
.c-213 {fill: #ff87ff}
.c-214 {fill: #ffaf00}
.c-215 {fill: #ffaf5f}
.c-216 {fill: #ffaf87}
.c-217 {fill: #ffafaf}
.c-218 {fill: #ffafd7}
.c-219 {fill: #ffafff}
.c-220 {fill: #ffd700}
.c-221 {fill: #ffd75f}
.c-222 {fill: #ffd787}
.c-223 {fill: #ffd7af}
.c-224 {fill: #ffd7d7}
.c-225 {fill: #ffd7ff}
.c-226 {fill: #ffff00}
.c-227 {fill: #ffff5f}
.c-228 {fill: #ffff87}
.c-229 {fill: #ffffaf}
.c-230 {fill: #ffffd7}
.c-231 {fill: #ffffff}
.c-232 {fill: #080808}
.c-233 {fill: #121212}
.c-234 {fill: #1c1c1c}
.c-235 {fill: #262626}
.c-236 {fill: #303030}
.c-237 {fill: #3a3a3a}
.c-238 {fill: #444444}
.c-239 {fill: #4e4e4e}
.c-240 {fill: #585858}
.c-241 {fill: #626262}
.c-242 {fill: #6c6c6c}
.c-243 {fill: #767676}
.c-244 {fill: #808080}
.c-245 {fill: #8a8a8a}
.c-246 {fill: #949494}
.c-247 {fill: #9e9e9e}
.c-248 {fill: #a8a8a8}
.c-249 {fill: #b2b2b2}
.c-250 {fill: #bcbcbc}
.c-251 {fill: #c6c6c6}
.c-252 {fill: #d0d0d0}
.c-253 {fill: #dadada}
.c-254 {fill: #e4e4e4}
.c-255 {fill: #eeeeee}

.br { font-weight: bold }
.fa { fill-opacity: 0.5 }
.it { font-style: italic }
.un { text-decoration: underline }
</style>

<rect width="100%" height="100%" class="default-bg-fill" rx="4" ry="4" />

<svg x="0.901%" y="1.351%" class="default-text-fill">
<g style="shape-rendering: optimizeSpeed">
<rect x="0.000%" y="0.000%" width="98.198%" height="19.7" class="c-4" />
<rect x="0.000%" y="2.703%" width="98.198%" height="19.7" class="c-4" />
<rect x="0.000%" y="5.405%" width="98.198%" height="19.7" class="c-4" />
<rect x="0.000%" y="8.108%" width="98.198%" height="19.7" class="c-4" />
<rect x="0.000%" y="10.811%" width="98.198%" height="19.7" class="c-4" />
<rect x="0.000%" y="13.514%" width="98.198%" height="19.7" class="c-4" />
<rect x="0.000%" y="16.216%" width="98.198%" height="19.7" class="c-4" />
<rect x="0.000%" y="18.919%" width="98.198%" height="19.7" class="c-4" />
<rect x="0.000%" y="21.622%" width="98.198%" height="19.7" class="c-4" />
<rect x="0.000%" y="24.324%" width="98.198%" height="19.7" class="c-4" />
<rect x="0.000%" y="27.027%" width="98.198%" height="19.7" class="c-4" />
<rect x="0.000%" y="29.730%" width="98.198%" height="19.7" class="c-4" />
<rect x="0.000%" y="32.432%" width="16.216%" height="19.7" class="c-4" />
<rect x="16.216%" y="32.432%" width="23.423%" height="19.7" class="c-7" />
<rect x="39.640%" y="32.432%" width="13.514%" height="19.7" class="c-7" />
<rect x="53.153%" y="32.432%" width="25.225%" height="19.7" class="c-7" />
<rect x="78.378%" y="32.432%" width="0.901%" height="19.7" class="c-7" />
<rect x="79.279%" y="32.432%" width="18.919%" height="19.7" class="c-4" />
<rect x="0.000%" y="35.135%" width="16.216%" height="19.7" class="c-4" />
<rect x="16.216%" y="35.135%" width="0.901%" height="19.7" class="c-7" />
<rect x="17.117%" y="35.135%" width="62.162%" height="19.7" class="c-7" />
<rect x="79.279%" y="35.135%" width="1.802%" height="19.7" class="c-0" />
<rect x="81.081%" y="35.135%" width="17.117%" height="19.7" class="c-4" />
<rect x="0.000%" y="37.838%" width="16.216%" height="19.7" class="c-4" />
<rect x="16.216%" y="37.838%" width="0.901%" height="19.7" class="c-7" />
<rect x="17.117%" y="37.838%" width="62.162%" height="19.7" class="c-7" />
<rect x="79.279%" y="37.838%" width="1.802%" height="19.7" class="c-0" />
<rect x="81.081%" y="37.838%" width="17.117%" height="19.7" class="c-4" />
<rect x="0.000%" y="40.541%" width="16.216%" height="19.7" class="c-4" />
<rect x="16.216%" y="40.541%" width="0.901%" height="19.7" class="c-7" />
<rect x="17.117%" y="40.541%" width="62.162%" height="19.7" class="c-7" />
<rect x="79.279%" y="40.541%" width="1.802%" height="19.7" class="c-0" />
<rect x="81.081%" y="40.541%" width="17.117%" height="19.7" class="c-4" />
<rect x="0.000%" y="43.243%" width="16.216%" height="19.7" class="c-4" />
<rect x="16.216%" y="43.243%" width="0.901%" height="19.7" class="c-7" />
<rect x="17.117%" y="43.243%" width="62.162%" height="19.7" class="c-7" />
<rect x="79.279%" y="43.243%" width="1.802%" height="19.7" class="c-0" />
<rect x="81.081%" y="43.243%" width="17.117%" height="19.7" class="c-4" />
<rect x="0.000%" y="45.946%" width="16.216%" height="19.7" class="c-4" />
<rect x="16.216%" y="45.946%" width="0.901%" height="19.7" class="c-7" />
<rect x="17.117%" y="45.946%" width="62.162%" height="19.7" class="c-7" />
<rect x="79.279%" y="45.946%" width="1.802%" height="19.7" class="c-0" />
<rect x="81.081%" y="45.946%" width="17.117%" height="19.7" class="c-4" />
<rect x="0.000%" y="48.649%" width="16.216%" height="19.7" class="c-4" />
<rect x="16.216%" y="48.649%" width="0.901%" height="19.7" class="c-7" />
<rect x="17.117%" y="48.649%" width="1.802%" height="19.7" class="c-7" />
<rect x="18.919%" y="48.649%" width="56.757%" height="19.7" class="c-7" />
<rect x="75.676%" y="48.649%" width="3.604%" height="19.7" class="c-7" />
<rect x="79.279%" y="48.649%" width="1.802%" height="19.7" class="c-0" />
<rect x="81.081%" y="48.649%" width="17.117%" height="19.7" class="c-4" />
<rect x="0.000%" y="51.351%" width="16.216%" height="19.7" class="c-4" />
<rect x="16.216%" y="51.351%" width="0.901%" height="19.7" class="c-7" />
<rect x="17.117%" y="51.351%" width="1.802%" height="19.7" class="c-7" />
<rect x="18.919%" y="51.351%" width="0.901%" height="19.7" class="c-7" />
<rect x="19.820%" y="51.351%" width="10.811%" height="19.7" class="c-12" />
<rect x="30.631%" y="51.351%" width="45.045%" height="19.7" class="c-7" />
<rect x="75.676%" y="51.351%" width="3.604%" height="19.7" class="c-7" />
<rect x="79.279%" y="51.351%" width="1.802%" height="19.7" class="c-0" />
<rect x="81.081%" y="51.351%" width="17.117%" height="19.7" class="c-4" />
<rect x="0.000%" y="54.054%" width="16.216%" height="19.7" class="c-4" />
<rect x="16.216%" y="54.054%" width="0.901%" height="19.7" class="c-7" />
<rect x="17.117%" y="54.054%" width="1.802%" height="19.7" class="c-7" />
<rect x="18.919%" y="54.054%" width="0.901%" height="19.7" class="c-7" />
<rect x="19.820%" y="54.054%" width="59.459%" height="19.7" class="c-7" />
<rect x="79.279%" y="54.054%" width="1.802%" height="19.7" class="c-0" />
<rect x="81.081%" y="54.054%" width="17.117%" height="19.7" class="c-4" />
<rect x="0.000%" y="56.757%" width="16.216%" height="19.7" class="c-4" />
<rect x="16.216%" y="56.757%" width="0.901%" height="19.7" class="c-7" />
<rect x="17.117%" y="56.757%" width="62.162%" height="19.7" class="c-7" />
<rect x="79.279%" y="56.757%" width="1.802%" height="19.7" class="c-0" />
<rect x="81.081%" y="56.757%" width="17.117%" height="19.7" class="c-4" />
<rect x="0.000%" y="59.459%" width="18.018%" height="19.7" class="c-4" />
<rect x="18.018%" y="59.459%" width="63.063%" height="19.7" class="c-0" />
<rect x="81.081%" y="59.459%" width="17.117%" height="19.7" class="c-4" />
<rect x="0.000%" y="62.162%" width="98.198%" height="19.7" class="c-4" />
<rect x="0.000%" y="64.865%" width="98.198%" height="19.7" class="c-4" />
<rect x="0.000%" y="67.568%" width="98.198%" height="19.7" class="c-4" />
<rect x="0.000%" y="70.270%" width="98.198%" height="19.7" class="c-4" />
<rect x="0.000%" y="72.973%" width="98.198%" height="19.7" class="c-4" />
<rect x="0.000%" y="75.676%" width="98.198%" height="19.7" class="c-4" />
<rect x="0.000%" y="78.378%" width="98.198%" height="19.7" class="c-4" />
<rect x="0.000%" y="81.081%" width="98.198%" height="19.7" class="c-4" />
<rect x="0.000%" y="83.784%" width="98.198%" height="19.7" class="c-4" />
<rect x="0.000%" y="86.486%" width="98.198%" height="19.7" class="c-4" />
<rect x="0.000%" y="89.189%" width="98.198%" height="19.7" class="c-4" />
<rect x="0.000%" y="91.892%" width="98.198%" height="19.7" class="c-4" />
<rect x="0.000%" y="94.595%" width="98.198%" height="19.7" class="c-4" />
</g>

<text class="default-text-fill">
<tspan y="0.000%">

</tspan>
<tspan y="2.703%">

</tspan>
<tspan y="5.405%">

</tspan>
<tspan y="8.108%">

</tspan>
<tspan y="10.811%">

</tspan>
<tspan y="13.514%">

</tspan>
<tspan y="16.216%">

</tspan>
<tspan y="18.919%">

</tspan>
<tspan y="21.622%">

</tspan>
<tspan y="24.324%">

</tspan>
<tspan y="27.027%">

</tspan>
<tspan y="29.730%">

</tspan>
<tspan y="32.432%">
<tspan dy="1em" x="16.216%" class="br c-15">┌</tspan><tspan x="17.117%" class="br c-15">─</tspan><tspan x="18.018%" class="br c-15">─</tspan><tspan x="18.919%" class="br c-15">─</tspan><tspan x="19.820%" class="br c-15">─</tspan><tspan x="20.721%" class="br c-15">─</tspan><tspan x="21.622%" class="br c-15">─</tspan><tspan x="22.523%" class="br c-15">─</tspan><tspan x="23.423%" class="br c-15">─</tspan><tspan x="24.324%" class="br c-15">─</tspan><tspan x="25.225%" class="br c-15">─</tspan><tspan x="26.126%" class="br c-15">─</tspan><tspan x="27.027%" class="br c-15">─</tspan><tspan x="27.928%" class="br c-15">─</tspan><tspan x="28.829%" class="br c-15">─</tspan><tspan x="29.730%" class="br c-15">─</tspan><tspan x="30.631%" class="br c-15">─</tspan><tspan x="31.532%" class="br c-15">─</tspan><tspan x="32.432%" class="br c-15">─</tspan><tspan x="33.333%" class="br c-15">─</tspan><tspan x="34.234%" class="br c-15">─</tspan><tspan x="35.135%" class="br c-15">─</tspan><tspan x="36.036%" class="br c-15">─</tspan><tspan x="36.937%" class="br c-15">─</tspan><tspan x="37.838%" class="br c-15">─</tspan><tspan x="38.739%" class="br c-15">─</tspan><tspan x="39.640%" class="br c-12">t</tspan><tspan x="40.541%" class="br c-12">a</tspan><tspan x="41.441%" class="br c-12">l</tspan><tspan x="42.342%" class="br c-12">o</tspan><tspan x="43.243%" class="br c-12">s</tspan><tspan x="44.144%" class="br c-12">-</tspan><tspan x="45.045%" class="br c-12">b</tspan><tspan x="45.946%" class="br c-12">o</tspan><tspan x="46.847%" class="br c-12">o</tspan><tspan x="47.748%" class="br c-12">t</tspan><tspan x="48.649%" class="br c-12">s</tspan><tspan x="49.550%" class="br c-12">t</tspan><tspan x="50.450%" class="br c-12">r</tspan><tspan x="51.351%" class="br c-12">a</tspan><tspan x="52.252%" class="br c-12">p</tspan><tspan x="53.153%" class="br c-15">─</tspan><tspan x="54.054%" class="br c-15">─</tspan><tspan x="54.955%" class="br c-15">─</tspan><tspan x="55.856%" class="br c-15">─</tspan><tspan x="56.757%" class="br c-15">─</tspan><tspan x="57.658%" class="br c-15">─</tspan><tspan x="58.559%" class="br c-15">─</tspan><tspan x="59.459%" class="br c-15">─</tspan><tspan x="60.360%" class="br c-15">─</tspan><tspan x="61.261%" class="br c-15">─</tspan><tspan x="62.162%" class="br c-15">─</tspan><tspan x="63.063%" class="br c-15">─</tspan><tspan x="63.964%" class="br c-15">─</tspan><tspan x="64.865%" class="br c-15">─</tspan><tspan x="65.766%" class="br c-15">─</tspan><tspan x="66.667%" class="br c-15">─</tspan><tspan x="67.568%" class="br c-15">─</tspan><tspan x="68.468%" class="br c-15">─</tspan><tspan x="69.369%" class="br c-15">─</tspan><tspan x="70.270%" class="br c-15">─</tspan><tspan x="71.171%" class="br c-15">─</tspan><tspan x="72.072%" class="br c-15">─</tspan><tspan x="72.973%" class="br c-15">─</tspan><tspan x="73.874%" class="br c-15">─</tspan><tspan x="74.775%" class="br c-15">─</tspan><tspan x="75.676%" class="br c-15">─</tspan><tspan x="76.577%" class="br c-15">─</tspan><tspan x="77.477%" class="br c-15">─</tspan><tspan x="78.378%" class="c-0">┐</tspan>
</tspan>
<tspan y="35.135%">
<tspan dy="1em" x="16.216%" class="br c-15">│</tspan><tspan x="18.018%" class="c-0">I</tspan><tspan x="18.919%" class="c-0">n</tspan><tspan x="19.820%" class="c-0">s</tspan><tspan x="20.721%" class="c-0">t</tspan><tspan x="21.622%" class="c-0">a</tspan><tspan x="22.523%" class="c-0">l</tspan><tspan x="23.423%" class="c-0">l</tspan><tspan x="24.324%" class="c-0">i</tspan><tspan x="25.225%" class="c-0">n</tspan><tspan x="26.126%" class="c-0">g</tspan><tspan x="27.027%" class="c-0">.</tspan><tspan x="27.928%" class="c-0">.</tspan><tspan x="28.829%" class="c-0">.</tspan><tspan x="30.631%" class="c-0">(</tspan><tspan x="31.532%" class="c-0">p</tspan><tspan x="32.432%" class="c-0">o</tspan><tspan x="33.333%" class="c-0">r</tspan><tspan x="34.234%" class="c-0">t</tspan><tspan x="36.036%" class="c-0">i</tspan><tspan x="36.937%" class="c-0">s</tspan><tspan x="38.739%" class="c-0">o</tspan><tspan x="39.640%" class="c-0">p</tspan><tspan x="40.541%" class="c-0">e</tspan><tspan x="41.441%" class="c-0">n</tspan><tspan x="43.243%" class="c-0">a</tspan><tspan x="44.144%" class="c-0">t</tspan><tspan x="45.946%" class="c-0">1</tspan><tspan x="46.847%" class="c-0">9</tspan><tspan x="47.748%" class="c-0">2</tspan><tspan x="48.649%" class="c-0">.</tspan><tspan x="49.550%" class="c-0">1</tspan><tspan x="50.450%" class="c-0">6</tspan><tspan x="51.351%" class="c-0">8</tspan><tspan x="52.252%" class="c-0">.</tspan><tspan x="53.153%" class="c-0">1</tspan><tspan x="54.054%" class="c-0">0</tspan><tspan x="54.955%" class="c-0">0</tspan><tspan x="55.856%" class="c-0">.</tspan><tspan x="56.757%" class="c-0">1</tspan><tspan x="57.658%" class="c-0">1</tspan><tspan x="58.559%" class="c-0">2</tspan><tspan x="59.459%" class="c-0">)</tspan><tspan x="78.378%" class="c-0">│</tspan>
</tspan>
<tspan y="37.838%">
<tspan dy="1em" x="16.216%" class="br c-15">│</tspan><tspan x="78.378%" class="c-0">│</tspan>
</tspan>
<tspan y="40.541%">
<tspan dy="1em" x="16.216%" class="br c-15">│</tspan><tspan x="78.378%" class="c-0">│</tspan>
</tspan>
<tspan y="43.243%">
<tspan dy="1em" x="16.216%" class="br c-15">│</tspan><tspan x="78.378%" class="c-0">│</tspan>
</tspan>
<tspan y="45.946%">
<tspan dy="1em" x="16.216%" class="br c-15">│</tspan><tspan x="78.378%" class="c-0">│</tspan>
</tspan>
<tspan y="48.649%">
<tspan dy="1em" x="16.216%" class="br c-15">│</tspan><tspan x="18.919%" class="br c-15">┌</tspan><tspan x="19.820%" class="br c-15">─</tspan><tspan x="20.721%" class="br c-15">─</tspan><tspan x="21.622%" class="br c-15">─</tspan><tspan x="22.523%" class="br c-15">─</tspan><tspan x="23.423%" class="br c-15">─</tspan><tspan x="24.324%" class="br c-15">─</tspan><tspan x="25.225%" class="br c-15">─</tspan><tspan x="26.126%" class="br c-15">─</tspan><tspan x="27.027%" class="br c-15">─</tspan><tspan x="27.928%" class="br c-15">─</tspan><tspan x="28.829%" class="br c-15">─</tspan><tspan x="29.730%" class="br c-15">─</tspan><tspan x="30.631%" class="br c-15">─</tspan><tspan x="31.532%" class="br c-15">─</tspan><tspan x="32.432%" class="br c-15">─</tspan><tspan x="33.333%" class="br c-15">─</tspan><tspan x="34.234%" class="br c-15">─</tspan><tspan x="35.135%" class="br c-15">─</tspan><tspan x="36.036%" class="br c-15">─</tspan><tspan x="36.937%" class="br c-15">─</tspan><tspan x="37.838%" class="br c-15">─</tspan><tspan x="38.739%" class="br c-15">─</tspan><tspan x="39.640%" class="br c-15">─</tspan><tspan x="40.541%" class="br c-15">─</tspan><tspan x="41.441%" class="br c-15">─</tspan><tspan x="42.342%" class="br c-15">─</tspan><tspan x="43.243%" class="br c-15">─</tspan><tspan x="44.144%" class="br c-15">─</tspan><tspan x="45.045%" class="br c-15">─</tspan><tspan x="45.946%" class="br c-15">─</tspan><tspan x="46.847%" class="br c-15">─</tspan><tspan x="47.748%" class="br c-15">─</tspan><tspan x="48.649%" class="br c-15">─</tspan><tspan x="49.550%" class="br c-15">─</tspan><tspan x="50.450%" class="br c-15">─</tspan><tspan x="51.351%" class="br c-15">─</tspan><tspan x="52.252%" class="br c-15">─</tspan><tspan x="53.153%" class="br c-15">─</tspan><tspan x="54.054%" class="br c-15">─</tspan><tspan x="54.955%" class="br c-15">─</tspan><tspan x="55.856%" class="br c-15">─</tspan><tspan x="56.757%" class="br c-15">─</tspan><tspan x="57.658%" class="br c-15">─</tspan><tspan x="58.559%" class="br c-15">─</tspan><tspan x="59.459%" class="br c-15">─</tspan><tspan x="60.360%" class="br c-15">─</tspan><tspan x="61.261%" class="br c-15">─</tspan><tspan x="62.162%" class="br c-15">─</tspan><tspan x="63.063%" class="br c-15">─</tspan><tspan x="63.964%" class="br c-15">─</tspan><tspan x="64.865%" class="br c-15">─</tspan><tspan x="65.766%" class="br c-15">─</tspan><tspan x="66.667%" class="br c-15">─</tspan><tspan x="67.568%" class="br c-15">─</tspan><tspan x="68.468%" class="br c-15">─</tspan><tspan x="69.369%" class="br c-15">─</tspan><tspan x="70.270%" class="br c-15">─</tspan><tspan x="71.171%" class="br c-15">─</tspan><tspan x="72.072%" class="br c-15">─</tspan><tspan x="72.973%" class="br c-15">─</tspan><tspan x="73.874%" class="br c-15">─</tspan><tspan x="74.775%" class="br c-15">─</tspan><tspan x="75.676%" class="c-0">┐</tspan><tspan x="78.378%" class="c-0">│</tspan>
</tspan>
<tspan y="51.351%">
<tspan dy="1em" x="16.216%" class="br c-15">│</tspan><tspan x="18.919%" class="br c-15">│</tspan><tspan x="46.847%" class="br c-12">2</tspan><tspan x="47.748%" class="br c-12">0</tspan><tspan x="48.649%" class="br c-12">%</tspan><tspan x="75.676%" class="c-0">│</tspan><tspan x="78.378%" class="c-0">│</tspan>
</tspan>
<tspan y="54.054%">
<tspan dy="1em" x="16.216%" class="br c-15">│</tspan><tspan x="18.919%" class="br c-15">└</tspan><tspan x="19.820%" class="c-0">─</tspan><tspan x="20.721%" class="c-0">─</tspan><tspan x="21.622%" class="c-0">─</tspan><tspan x="22.523%" class="c-0">─</tspan><tspan x="23.423%" class="c-0">─</tspan><tspan x="24.324%" class="c-0">─</tspan><tspan x="25.225%" class="c-0">─</tspan><tspan x="26.126%" class="c-0">─</tspan><tspan x="27.027%" class="c-0">─</tspan><tspan x="27.928%" class="c-0">─</tspan><tspan x="28.829%" class="c-0">─</tspan><tspan x="29.730%" class="c-0">─</tspan><tspan x="30.631%" class="c-0">─</tspan><tspan x="31.532%" class="c-0">─</tspan><tspan x="32.432%" class="c-0">─</tspan><tspan x="33.333%" class="c-0">─</tspan><tspan x="34.234%" class="c-0">─</tspan><tspan x="35.135%" class="c-0">─</tspan><tspan x="36.036%" class="c-0">─</tspan><tspan x="36.937%" class="c-0">─</tspan><tspan x="37.838%" class="c-0">─</tspan><tspan x="38.739%" class="c-0">─</tspan><tspan x="39.640%" class="c-0">─</tspan><tspan x="40.541%" class="c-0">─</tspan><tspan x="41.441%" class="c-0">─</tspan><tspan x="42.342%" class="c-0">─</tspan><tspan x="43.243%" class="c-0">─</tspan><tspan x="44.144%" class="c-0">─</tspan><tspan x="45.045%" class="c-0">─</tspan><tspan x="45.946%" class="c-0">─</tspan><tspan x="46.847%" class="c-0">─</tspan><tspan x="47.748%" class="c-0">─</tspan><tspan x="48.649%" class="c-0">─</tspan><tspan x="49.550%" class="c-0">─</tspan><tspan x="50.450%" class="c-0">─</tspan><tspan x="51.351%" class="c-0">─</tspan><tspan x="52.252%" class="c-0">─</tspan><tspan x="53.153%" class="c-0">─</tspan><tspan x="54.054%" class="c-0">─</tspan><tspan x="54.955%" class="c-0">─</tspan><tspan x="55.856%" class="c-0">─</tspan><tspan x="56.757%" class="c-0">─</tspan><tspan x="57.658%" class="c-0">─</tspan><tspan x="58.559%" class="c-0">─</tspan><tspan x="59.459%" class="c-0">─</tspan><tspan x="60.360%" class="c-0">─</tspan><tspan x="61.261%" class="c-0">─</tspan><tspan x="62.162%" class="c-0">─</tspan><tspan x="63.063%" class="c-0">─</tspan><tspan x="63.964%" class="c-0">─</tspan><tspan x="64.865%" class="c-0">─</tspan><tspan x="65.766%" class="c-0">─</tspan><tspan x="66.667%" class="c-0">─</tspan><tspan x="67.568%" class="c-0">─</tspan><tspan x="68.468%" class="c-0">─</tspan><tspan x="69.369%" class="c-0">─</tspan><tspan x="70.270%" class="c-0">─</tspan><tspan x="71.171%" class="c-0">─</tspan><tspan x="72.072%" class="c-0">─</tspan><tspan x="72.973%" class="c-0">─</tspan><tspan x="73.874%" class="c-0">─</tspan><tspan x="74.775%" class="c-0">─</tspan><tspan x="75.676%" class="c-0">┘</tspan><tspan x="78.378%" class="c-0">│</tspan>
</tspan>
<tspan y="56.757%">
<tspan dy="1em" x="16.216%" class="br c-15">└</tspan><tspan x="17.117%" class="c-0">─</tspan><tspan x="18.018%" class="c-0">─</tspan><tspan x="18.919%" class="c-0">─</tspan><tspan x="19.820%" class="c-0">─</tspan><tspan x="20.721%" class="c-0">─</tspan><tspan x="21.622%" class="c-0">─</tspan><tspan x="22.523%" class="c-0">─</tspan><tspan x="23.423%" class="c-0">─</tspan><tspan x="24.324%" class="c-0">─</tspan><tspan x="25.225%" class="c-0">─</tspan><tspan x="26.126%" class="c-0">─</tspan><tspan x="27.027%" class="c-0">─</tspan><tspan x="27.928%" class="c-0">─</tspan><tspan x="28.829%" class="c-0">─</tspan><tspan x="29.730%" class="c-0">─</tspan><tspan x="30.631%" class="c-0">─</tspan><tspan x="31.532%" class="c-0">─</tspan><tspan x="32.432%" class="c-0">─</tspan><tspan x="33.333%" class="c-0">─</tspan><tspan x="34.234%" class="c-0">─</tspan><tspan x="35.135%" class="c-0">─</tspan><tspan x="36.036%" class="c-0">─</tspan><tspan x="36.937%" class="c-0">─</tspan><tspan x="37.838%" class="c-0">─</tspan><tspan x="38.739%" class="c-0">─</tspan><tspan x="39.640%" class="c-0">─</tspan><tspan x="40.541%" class="c-0">─</tspan><tspan x="41.441%" class="c-0">─</tspan><tspan x="42.342%" class="c-0">─</tspan><tspan x="43.243%" class="c-0">─</tspan><tspan x="44.144%" class="c-0">─</tspan><tspan x="45.045%" class="c-0">─</tspan><tspan x="45.946%" class="c-0">─</tspan><tspan x="46.847%" class="c-0">─</tspan><tspan x="47.748%" class="c-0">─</tspan><tspan x="48.649%" class="c-0">─</tspan><tspan x="49.550%" class="c-0">─</tspan><tspan x="50.450%" class="c-0">─</tspan><tspan x="51.351%" class="c-0">─</tspan><tspan x="52.252%" class="c-0">─</tspan><tspan x="53.153%" class="c-0">─</tspan><tspan x="54.054%" class="c-0">─</tspan><tspan x="54.955%" class="c-0">─</tspan><tspan x="55.856%" class="c-0">─</tspan><tspan x="56.757%" class="c-0">─</tspan><tspan x="57.658%" class="c-0">─</tspan><tspan x="58.559%" class="c-0">─</tspan><tspan x="59.459%" class="c-0">─</tspan><tspan x="60.360%" class="c-0">─</tspan><tspan x="61.261%" class="c-0">─</tspan><tspan x="62.162%" class="c-0">─</tspan><tspan x="63.063%" class="c-0">─</tspan><tspan x="63.964%" class="c-0">─</tspan><tspan x="64.865%" class="c-0">─</tspan><tspan x="65.766%" class="c-0">─</tspan><tspan x="66.667%" class="c-0">─</tspan><tspan x="67.568%" class="c-0">─</tspan><tspan x="68.468%" class="c-0">─</tspan><tspan x="69.369%" class="c-0">─</tspan><tspan x="70.270%" class="c-0">─</tspan><tspan x="71.171%" class="c-0">─</tspan><tspan x="72.072%" class="c-0">─</tspan><tspan x="72.973%" class="c-0">─</tspan><tspan x="73.874%" class="c-0">─</tspan><tspan x="74.775%" class="c-0">─</tspan><tspan x="75.676%" class="c-0">─</tspan><tspan x="76.577%" class="c-0">─</tspan><tspan x="77.477%" class="c-0">─</tspan><tspan x="78.378%" class="c-0">┘</tspan>
</tspan>
<tspan y="59.459%">

</tspan>
<tspan y="62.162%">

</tspan>
<tspan y="64.865%">

</tspan>
<tspan y="67.568%">

</tspan>
<tspan y="70.270%">

</tspan>
<tspan y="72.973%">

</tspan>
<tspan y="75.676%">

</tspan>
<tspan y="78.378%">

</tspan>
<tspan y="81.081%">

</tspan>
<tspan y="83.784%">

</tspan>
<tspan y="86.486%">

</tspan>
<tspan y="89.189%">

</tspan>
<tspan y="91.892%">

</tspan>
<tspan y="94.595%">

</tspan>

</text>

<g transform="translate(-50 -50)">
<svg x="50%" y="50%" width="100" height="100">
<svg version="1.1" xmlns="http://www.w3.org/2000/svg" viewBox="0 0 866.0254037844387 866.0254037844387">
  <defs>
    <mask id="small-triangle-mask">
      <rect width="100%" height="100%" fill="white"/>
      <polygon points="508.01270189221935 433.01270189221935, 208.0127018922194 259.8076211353316, 208.01270189221927 606.217782649107" fill="black"></polygon>
    </mask>
  </defs>
  <polygon points="808.0127018922194 433.01270189221935, 58.01270189221947 -1.1368683772161603e-13, 58.01270189221913 866.0254037844386" mask="url(#small-triangle-mask)" fill="white"></polygon>
  <polyline points="481.2177826491071 333.0127018922194, 134.80762113533166 533.0127018922194" stroke="white" stroke-width="90"></polyline>
</svg>

</svg>
</g>
</svg>
</svg>
