<svg width="980" height="510" viewBox="0 0 980 510" fill="none" xmlns="http://www.w3.org/2000/svg">
<rect width="980" height="510" fill="white"/>
<rect x="101" y="106" width="178" height="298" rx="9" fill="white" stroke="url(#paint0_linear_409_2718)" stroke-width="2"/>
<path d="M158.474 264V244.26H160.462L172.754 260.556H172.054V244.26H174.49V264H172.53L160.238 247.676H160.882V264H158.474ZM184.688 264.252C183.344 264.252 182.177 263.963 181.188 263.384C180.198 262.805 179.433 261.984 178.892 260.92C178.35 259.856 178.08 258.605 178.08 257.168C178.08 255.731 178.35 254.489 178.892 253.444C179.433 252.38 180.198 251.559 181.188 250.98C182.177 250.401 183.344 250.112 184.688 250.112C186.032 250.112 187.198 250.401 188.188 250.98C189.177 251.559 189.942 252.38 190.484 253.444C191.025 254.489 191.296 255.731 191.296 257.168C191.296 258.605 191.025 259.856 190.484 260.92C189.942 261.984 189.177 262.805 188.188 263.384C187.198 263.963 186.032 264.252 184.688 264.252ZM184.688 262.236C185.92 262.236 186.9 261.807 187.628 260.948C188.356 260.071 188.72 258.811 188.72 257.168C188.72 255.525 188.356 254.275 187.628 253.416C186.9 252.557 185.92 252.128 184.688 252.128C183.474 252.128 182.494 252.557 181.748 253.416C181.02 254.275 180.656 255.525 180.656 257.168C180.656 258.811 181.02 260.071 181.748 260.948C182.494 261.807 183.474 262.236 184.688 262.236ZM199.768 264.252C198.573 264.252 197.518 263.972 196.604 263.412C195.708 262.833 195.008 262.012 194.504 260.948C194 259.865 193.748 258.605 193.748 257.168C193.748 255.712 193.99 254.461 194.476 253.416C194.98 252.352 195.68 251.54 196.576 250.98C197.49 250.401 198.554 250.112 199.768 250.112C200.981 250.112 202.026 250.42 202.904 251.036C203.781 251.633 204.369 252.436 204.668 253.444H204.36V244.26H206.908V264H204.388V260.836H204.668C204.388 261.881 203.8 262.712 202.904 263.328C202.026 263.944 200.981 264.252 199.768 264.252ZM200.356 262.236C201.588 262.236 202.568 261.807 203.296 260.948C204.024 260.071 204.388 258.811 204.388 257.168C204.388 255.525 204.024 254.275 203.296 253.416C202.568 252.557 201.588 252.128 200.356 252.128C199.142 252.128 198.162 252.557 197.416 253.416C196.688 254.275 196.324 255.525 196.324 257.168C196.324 258.811 196.688 260.071 197.416 260.948C198.162 261.807 199.142 262.236 200.356 262.236ZM217.293 264.252C215.819 264.252 214.549 263.972 213.485 263.412C212.44 262.833 211.628 262.021 211.049 260.976C210.471 259.912 210.181 258.661 210.181 257.224C210.181 255.805 210.461 254.564 211.021 253.5C211.6 252.436 212.384 251.605 213.373 251.008C214.381 250.411 215.529 250.112 216.817 250.112C218.068 250.112 219.132 250.383 220.009 250.924C220.905 251.465 221.587 252.24 222.053 253.248C222.539 254.237 222.781 255.432 222.781 256.832V257.756H212.169V256.132H221.101L220.625 256.524C220.625 255.068 220.308 253.948 219.673 253.164C219.039 252.361 218.105 251.96 216.873 251.96C215.977 251.96 215.212 252.175 214.577 252.604C213.943 253.015 213.457 253.603 213.121 254.368C212.785 255.115 212.617 255.983 212.617 256.972V257.14C212.617 258.26 212.795 259.203 213.149 259.968C213.523 260.715 214.055 261.284 214.745 261.676C215.436 262.049 216.285 262.236 217.293 262.236C218.096 262.236 218.871 262.115 219.617 261.872C220.383 261.611 221.101 261.209 221.773 260.668L222.557 262.432C221.941 262.992 221.148 263.44 220.177 263.776C219.225 264.093 218.264 264.252 217.293 264.252Z" fill="black"/>
<rect x="301" y="106" width="178" height="298" rx="9" fill="white" stroke="url(#paint1_linear_409_2718)" stroke-width="2"/>
<path d="M358.474 264V244.26H360.462L372.754 260.556H372.054V244.26H374.49V264H372.53L360.238 247.676H360.882V264H358.474ZM384.688 264.252C383.344 264.252 382.177 263.963 381.188 263.384C380.198 262.805 379.433 261.984 378.892 260.92C378.35 259.856 378.08 258.605 378.08 257.168C378.08 255.731 378.35 254.489 378.892 253.444C379.433 252.38 380.198 251.559 381.188 250.98C382.177 250.401 383.344 250.112 384.688 250.112C386.032 250.112 387.198 250.401 388.188 250.98C389.177 251.559 389.942 252.38 390.484 253.444C391.025 254.489 391.296 255.731 391.296 257.168C391.296 258.605 391.025 259.856 390.484 260.92C389.942 261.984 389.177 262.805 388.188 263.384C387.198 263.963 386.032 264.252 384.688 264.252ZM384.688 262.236C385.92 262.236 386.9 261.807 387.628 260.948C388.356 260.071 388.72 258.811 388.72 257.168C388.72 255.525 388.356 254.275 387.628 253.416C386.9 252.557 385.92 252.128 384.688 252.128C383.474 252.128 382.494 252.557 381.748 253.416C381.02 254.275 380.656 255.525 380.656 257.168C380.656 258.811 381.02 260.071 381.748 260.948C382.494 261.807 383.474 262.236 384.688 262.236ZM399.768 264.252C398.573 264.252 397.518 263.972 396.604 263.412C395.708 262.833 395.008 262.012 394.504 260.948C394 259.865 393.748 258.605 393.748 257.168C393.748 255.712 393.99 254.461 394.476 253.416C394.98 252.352 395.68 251.54 396.576 250.98C397.49 250.401 398.554 250.112 399.768 250.112C400.981 250.112 402.026 250.42 402.904 251.036C403.781 251.633 404.369 252.436 404.668 253.444H404.36V244.26H406.908V264H404.388V260.836H404.668C404.388 261.881 403.8 262.712 402.904 263.328C402.026 263.944 400.981 264.252 399.768 264.252ZM400.356 262.236C401.588 262.236 402.568 261.807 403.296 260.948C404.024 260.071 404.388 258.811 404.388 257.168C404.388 255.525 404.024 254.275 403.296 253.416C402.568 252.557 401.588 252.128 400.356 252.128C399.142 252.128 398.162 252.557 397.416 253.416C396.688 254.275 396.324 255.525 396.324 257.168C396.324 258.811 396.688 260.071 397.416 260.948C398.162 261.807 399.142 262.236 400.356 262.236ZM417.293 264.252C415.819 264.252 414.549 263.972 413.485 263.412C412.44 262.833 411.628 262.021 411.049 260.976C410.471 259.912 410.181 258.661 410.181 257.224C410.181 255.805 410.461 254.564 411.021 253.5C411.6 252.436 412.384 251.605 413.373 251.008C414.381 250.411 415.529 250.112 416.817 250.112C418.068 250.112 419.132 250.383 420.009 250.924C420.905 251.465 421.587 252.24 422.053 253.248C422.539 254.237 422.781 255.432 422.781 256.832V257.756H412.169V256.132H421.101L420.625 256.524C420.625 255.068 420.308 253.948 419.673 253.164C419.039 252.361 418.105 251.96 416.873 251.96C415.977 251.96 415.212 252.175 414.577 252.604C413.943 253.015 413.457 253.603 413.121 254.368C412.785 255.115 412.617 255.983 412.617 256.972V257.14C412.617 258.26 412.795 259.203 413.149 259.968C413.523 260.715 414.055 261.284 414.745 261.676C415.436 262.049 416.285 262.236 417.293 262.236C418.096 262.236 418.871 262.115 419.617 261.872C420.383 261.611 421.101 261.209 421.773 260.668L422.557 262.432C421.941 262.992 421.148 263.44 420.177 263.776C419.225 264.093 418.264 264.252 417.293 264.252Z" fill="black"/>
<rect x="501" y="106" width="178" height="298" rx="9" fill="white" stroke="url(#paint2_linear_409_2718)" stroke-width="2"/>
<path d="M558.474 264V244.26H560.462L572.754 260.556H572.054V244.26H574.49V264H572.53L560.238 247.676H560.882V264H558.474ZM584.688 264.252C583.344 264.252 582.177 263.963 581.188 263.384C580.198 262.805 579.433 261.984 578.892 260.92C578.35 259.856 578.08 258.605 578.08 257.168C578.08 255.731 578.35 254.489 578.892 253.444C579.433 252.38 580.198 251.559 581.188 250.98C582.177 250.401 583.344 250.112 584.688 250.112C586.032 250.112 587.198 250.401 588.188 250.98C589.177 251.559 589.942 252.38 590.484 253.444C591.025 254.489 591.296 255.731 591.296 257.168C591.296 258.605 591.025 259.856 590.484 260.92C589.942 261.984 589.177 262.805 588.188 263.384C587.198 263.963 586.032 264.252 584.688 264.252ZM584.688 262.236C585.92 262.236 586.9 261.807 587.628 260.948C588.356 260.071 588.72 258.811 588.72 257.168C588.72 255.525 588.356 254.275 587.628 253.416C586.9 252.557 585.92 252.128 584.688 252.128C583.474 252.128 582.494 252.557 581.748 253.416C581.02 254.275 580.656 255.525 580.656 257.168C580.656 258.811 581.02 260.071 581.748 260.948C582.494 261.807 583.474 262.236 584.688 262.236ZM599.768 264.252C598.573 264.252 597.518 263.972 596.604 263.412C595.708 262.833 595.008 262.012 594.504 260.948C594 259.865 593.748 258.605 593.748 257.168C593.748 255.712 593.99 254.461 594.476 253.416C594.98 252.352 595.68 251.54 596.576 250.98C597.49 250.401 598.554 250.112 599.768 250.112C600.981 250.112 602.026 250.42 602.904 251.036C603.781 251.633 604.369 252.436 604.668 253.444H604.36V244.26H606.908V264H604.388V260.836H604.668C604.388 261.881 603.8 262.712 602.904 263.328C602.026 263.944 600.981 264.252 599.768 264.252ZM600.356 262.236C601.588 262.236 602.568 261.807 603.296 260.948C604.024 260.071 604.388 258.811 604.388 257.168C604.388 255.525 604.024 254.275 603.296 253.416C602.568 252.557 601.588 252.128 600.356 252.128C599.142 252.128 598.162 252.557 597.416 253.416C596.688 254.275 596.324 255.525 596.324 257.168C596.324 258.811 596.688 260.071 597.416 260.948C598.162 261.807 599.142 262.236 600.356 262.236ZM617.293 264.252C615.819 264.252 614.549 263.972 613.485 263.412C612.44 262.833 611.628 262.021 611.049 260.976C610.471 259.912 610.181 258.661 610.181 257.224C610.181 255.805 610.461 254.564 611.021 253.5C611.6 252.436 612.384 251.605 613.373 251.008C614.381 250.411 615.529 250.112 616.817 250.112C618.068 250.112 619.132 250.383 620.009 250.924C620.905 251.465 621.587 252.24 622.053 253.248C622.539 254.237 622.781 255.432 622.781 256.832V257.756H612.169V256.132H621.101L620.625 256.524C620.625 255.068 620.308 253.948 619.673 253.164C619.039 252.361 618.105 251.96 616.873 251.96C615.977 251.96 615.212 252.175 614.577 252.604C613.943 253.015 613.457 253.603 613.121 254.368C612.785 255.115 612.617 255.983 612.617 256.972V257.14C612.617 258.26 612.795 259.203 613.149 259.968C613.523 260.715 614.055 261.284 614.745 261.676C615.436 262.049 616.285 262.236 617.293 262.236C618.096 262.236 618.871 262.115 619.617 261.872C620.383 261.611 621.101 261.209 621.773 260.668L622.557 262.432C621.941 262.992 621.148 263.44 620.177 263.776C619.225 264.093 618.264 264.252 617.293 264.252Z" fill="black"/>
<rect x="701" y="106" width="178" height="298" rx="9" fill="white" stroke="url(#paint3_linear_409_2718)" stroke-width="2"/>
<path d="M758.474 264V244.26H760.462L772.754 260.556H772.054V244.26H774.49V264H772.53L760.238 247.676H760.882V264H758.474ZM784.688 264.252C783.344 264.252 782.177 263.963 781.188 263.384C780.198 262.805 779.433 261.984 778.892 260.92C778.35 259.856 778.08 258.605 778.08 257.168C778.08 255.731 778.35 254.489 778.892 253.444C779.433 252.38 780.198 251.559 781.188 250.98C782.177 250.401 783.344 250.112 784.688 250.112C786.032 250.112 787.198 250.401 788.188 250.98C789.177 251.559 789.942 252.38 790.484 253.444C791.025 254.489 791.296 255.731 791.296 257.168C791.296 258.605 791.025 259.856 790.484 260.92C789.942 261.984 789.177 262.805 788.188 263.384C787.198 263.963 786.032 264.252 784.688 264.252ZM784.688 262.236C785.92 262.236 786.9 261.807 787.628 260.948C788.356 260.071 788.72 258.811 788.72 257.168C788.72 255.525 788.356 254.275 787.628 253.416C786.9 252.557 785.92 252.128 784.688 252.128C783.474 252.128 782.494 252.557 781.748 253.416C781.02 254.275 780.656 255.525 780.656 257.168C780.656 258.811 781.02 260.071 781.748 260.948C782.494 261.807 783.474 262.236 784.688 262.236ZM799.768 264.252C798.573 264.252 797.518 263.972 796.604 263.412C795.708 262.833 795.008 262.012 794.504 260.948C794 259.865 793.748 258.605 793.748 257.168C793.748 255.712 793.99 254.461 794.476 253.416C794.98 252.352 795.68 251.54 796.576 250.98C797.49 250.401 798.554 250.112 799.768 250.112C800.981 250.112 802.026 250.42 802.904 251.036C803.781 251.633 804.369 252.436 804.668 253.444H804.36V244.26H806.908V264H804.388V260.836H804.668C804.388 261.881 803.8 262.712 802.904 263.328C802.026 263.944 800.981 264.252 799.768 264.252ZM800.356 262.236C801.588 262.236 802.568 261.807 803.296 260.948C804.024 260.071 804.388 258.811 804.388 257.168C804.388 255.525 804.024 254.275 803.296 253.416C802.568 252.557 801.588 252.128 800.356 252.128C799.142 252.128 798.162 252.557 797.416 253.416C796.688 254.275 796.324 255.525 796.324 257.168C796.324 258.811 796.688 260.071 797.416 260.948C798.162 261.807 799.142 262.236 800.356 262.236ZM817.293 264.252C815.819 264.252 814.549 263.972 813.485 263.412C812.44 262.833 811.628 262.021 811.049 260.976C810.471 259.912 810.181 258.661 810.181 257.224C810.181 255.805 810.461 254.564 811.021 253.5C811.6 252.436 812.384 251.605 813.373 251.008C814.381 250.411 815.529 250.112 816.817 250.112C818.068 250.112 819.132 250.383 820.009 250.924C820.905 251.465 821.587 252.24 822.053 253.248C822.539 254.237 822.781 255.432 822.781 256.832V257.756H812.169V256.132H821.101L820.625 256.524C820.625 255.068 820.308 253.948 819.673 253.164C819.039 252.361 818.105 251.96 816.873 251.96C815.977 251.96 815.212 252.175 814.577 252.604C813.943 253.015 813.457 253.603 813.121 254.368C812.785 255.115 812.617 255.983 812.617 256.972V257.14C812.617 258.26 812.795 259.203 813.149 259.968C813.523 260.715 814.055 261.284 814.745 261.676C815.436 262.049 816.285 262.236 817.293 262.236C818.096 262.236 818.871 262.115 819.617 261.872C820.383 261.611 821.101 261.209 821.773 260.668L822.557 262.432C821.941 262.992 821.148 263.44 820.177 263.776C819.225 264.093 818.264 264.252 817.293 264.252Z" fill="black"/>
<rect width="539" height="59" rx="10" transform="matrix(-1 0 0 1 659 125)" fill="url(#paint4_radial_409_2718)"/>
<rect width="539" height="59" rx="10" transform="matrix(-1 0 0 1 659 125)" fill="black" fill-opacity="0.08"/>
<path d="M246.164 162V144.375H248.764V152.3H248.814L256.989 144.375H260.189L250.614 153.55L250.664 152.275L260.689 162H257.439L248.814 153.775H248.764V162H246.164ZM266.06 162.225C265.076 162.225 264.251 162.042 263.585 161.675C262.935 161.308 262.443 160.767 262.11 160.05C261.793 159.317 261.635 158.4 261.635 157.3V149.8H264.16V157.325C264.16 157.975 264.243 158.517 264.41 158.95C264.593 159.383 264.868 159.7 265.235 159.9C265.618 160.1 266.093 160.2 266.66 160.2C267.293 160.2 267.851 160.058 268.335 159.775C268.818 159.492 269.193 159.083 269.46 158.55C269.726 158.017 269.86 157.4 269.86 156.7V149.8H272.385V162H269.935V159.325H270.26C269.926 160.258 269.393 160.975 268.66 161.475C267.926 161.975 267.06 162.225 266.06 162.225ZM282.493 162.225C281.426 162.225 280.501 161.958 279.718 161.425C278.935 160.875 278.41 160.15 278.143 159.25H278.418V162H275.943V144.375H278.468V152.475H278.168C278.435 151.592 278.96 150.892 279.743 150.375C280.526 149.842 281.443 149.575 282.493 149.575C283.593 149.575 284.543 149.833 285.343 150.35C286.143 150.867 286.76 151.592 287.193 152.525C287.643 153.458 287.868 154.583 287.868 155.9C287.868 157.183 287.643 158.308 287.193 159.275C286.76 160.225 286.135 160.958 285.318 161.475C284.518 161.975 283.576 162.225 282.493 162.225ZM281.868 160.275C282.918 160.275 283.751 159.9 284.368 159.15C285.001 158.4 285.318 157.317 285.318 155.9C285.318 154.467 285.001 153.383 284.368 152.65C283.751 151.917 282.918 151.55 281.868 151.55C280.835 151.55 280.001 151.917 279.368 152.65C278.735 153.383 278.418 154.467 278.418 155.9C278.418 157.317 278.735 158.4 279.368 159.15C280.001 159.9 280.835 160.275 281.868 160.275ZM296.438 162.225C295.105 162.225 293.955 161.975 292.988 161.475C292.038 160.958 291.297 160.233 290.763 159.3C290.247 158.35 289.988 157.225 289.988 155.925C289.988 154.658 290.247 153.55 290.763 152.6C291.28 151.65 291.988 150.908 292.888 150.375C293.788 149.842 294.813 149.575 295.963 149.575C297.097 149.575 298.063 149.825 298.863 150.325C299.68 150.808 300.305 151.5 300.738 152.4C301.172 153.3 301.388 154.375 301.388 155.625V156.475H291.988V154.925H299.688L299.263 155.275C299.263 154.025 298.988 153.058 298.438 152.375C297.888 151.692 297.097 151.35 296.063 151.35C295.28 151.35 294.613 151.533 294.063 151.9C293.53 152.267 293.122 152.775 292.838 153.425C292.555 154.075 292.413 154.833 292.413 155.7V155.85C292.413 156.817 292.563 157.633 292.863 158.3C293.18 158.95 293.638 159.442 294.238 159.775C294.838 160.108 295.58 160.275 296.463 160.275C297.163 160.275 297.847 160.167 298.513 159.95C299.197 159.717 299.838 159.358 300.438 158.875L301.188 160.625C300.638 161.125 299.93 161.517 299.063 161.8C298.197 162.083 297.322 162.225 296.438 162.225ZM304.141 162V149.8H306.591V152.725H306.341C306.608 151.725 307.083 150.967 307.766 150.45C308.466 149.933 309.391 149.633 310.541 149.55L311.366 149.5L311.541 151.65L310.016 151.8C308.933 151.9 308.108 152.242 307.541 152.825C306.975 153.408 306.691 154.208 306.691 155.225V162H304.141ZM313.467 162V149.8H315.917V152.4H315.642C316.009 151.467 316.584 150.767 317.367 150.3C318.151 149.817 319.051 149.575 320.067 149.575C321.034 149.575 321.834 149.758 322.467 150.125C323.117 150.475 323.601 151.017 323.917 151.75C324.234 152.467 324.392 153.375 324.392 154.475V162H321.867V154.625C321.867 153.925 321.776 153.358 321.592 152.925C321.409 152.475 321.134 152.142 320.767 151.925C320.401 151.708 319.926 151.6 319.342 151.6C318.676 151.6 318.084 151.742 317.567 152.025C317.067 152.308 316.676 152.717 316.392 153.25C316.126 153.783 315.992 154.4 315.992 155.1V162H313.467ZM333.597 162.225C332.263 162.225 331.113 161.975 330.147 161.475C329.197 160.958 328.455 160.233 327.922 159.3C327.405 158.35 327.147 157.225 327.147 155.925C327.147 154.658 327.405 153.55 327.922 152.6C328.438 151.65 329.147 150.908 330.047 150.375C330.947 149.842 331.972 149.575 333.122 149.575C334.255 149.575 335.222 149.825 336.022 150.325C336.838 150.808 337.463 151.5 337.897 152.4C338.33 153.3 338.547 154.375 338.547 155.625V156.475H329.147V154.925H336.847L336.422 155.275C336.422 154.025 336.147 153.058 335.597 152.375C335.047 151.692 334.255 151.35 333.222 151.35C332.438 151.35 331.772 151.533 331.222 151.9C330.688 152.267 330.28 152.775 329.997 153.425C329.713 154.075 329.572 154.833 329.572 155.7V155.85C329.572 156.817 329.722 157.633 330.022 158.3C330.338 158.95 330.797 159.442 331.397 159.775C331.997 160.108 332.738 160.275 333.622 160.275C334.322 160.275 335.005 160.167 335.672 159.95C336.355 159.717 336.997 159.358 337.597 158.875L338.347 160.625C337.797 161.125 337.088 161.517 336.222 161.8C335.355 162.083 334.48 162.225 333.597 162.225ZM346.475 162.225C344.958 162.225 343.817 161.833 343.05 161.05C342.3 160.267 341.925 159.133 341.925 157.65V151.75H339.55V149.8H341.925V146.125H344.45V149.8H348.225V151.75H344.45V157.45C344.45 158.333 344.633 159 345 159.45C345.383 159.9 346 160.125 346.85 160.125C347.1 160.125 347.35 160.092 347.6 160.025C347.867 159.958 348.125 159.892 348.375 159.825L348.775 161.725C348.525 161.875 348.175 161.992 347.725 162.075C347.292 162.175 346.875 162.225 346.475 162.225ZM356.009 162.225C354.675 162.225 353.525 161.975 352.559 161.475C351.609 160.958 350.867 160.233 350.334 159.3C349.817 158.35 349.559 157.225 349.559 155.925C349.559 154.658 349.817 153.55 350.334 152.6C350.85 151.65 351.559 150.908 352.459 150.375C353.359 149.842 354.384 149.575 355.534 149.575C356.667 149.575 357.634 149.825 358.434 150.325C359.25 150.808 359.875 151.5 360.309 152.4C360.742 153.3 360.959 154.375 360.959 155.625V156.475H351.559V154.925H359.259L358.834 155.275C358.834 154.025 358.559 153.058 358.009 152.375C357.459 151.692 356.667 151.35 355.634 151.35C354.85 151.35 354.184 151.533 353.634 151.9C353.1 152.267 352.692 152.775 352.409 153.425C352.125 154.075 351.984 154.833 351.984 155.7V155.85C351.984 156.817 352.134 157.633 352.434 158.3C352.75 158.95 353.209 159.442 353.809 159.775C354.409 160.108 355.15 160.275 356.034 160.275C356.734 160.275 357.417 160.167 358.084 159.95C358.767 159.717 359.409 159.358 360.009 158.875L360.759 160.625C360.209 161.125 359.5 161.517 358.634 161.8C357.767 162.083 356.892 162.225 356.009 162.225ZM367.987 162.225C367.337 162.225 366.703 162.167 366.087 162.05C365.47 161.933 364.903 161.767 364.387 161.55C363.87 161.333 363.412 161.067 363.012 160.75L363.737 159.05C364.153 159.333 364.595 159.583 365.062 159.8C365.528 160 366.012 160.15 366.512 160.25C367.028 160.35 367.528 160.4 368.012 160.4C368.895 160.4 369.562 160.242 370.012 159.925C370.462 159.608 370.687 159.183 370.687 158.65C370.687 158.217 370.537 157.883 370.237 157.65C369.937 157.4 369.487 157.208 368.887 157.075L366.512 156.6C365.478 156.383 364.695 156 364.162 155.45C363.628 154.9 363.362 154.2 363.362 153.35C363.362 152.583 363.57 151.917 363.987 151.35C364.403 150.783 364.987 150.35 365.737 150.05C366.487 149.733 367.353 149.575 368.337 149.575C368.903 149.575 369.453 149.633 369.987 149.75C370.52 149.867 371.02 150.033 371.487 150.25C371.97 150.467 372.378 150.742 372.712 151.075L371.987 152.775C371.67 152.492 371.303 152.25 370.887 152.05C370.487 151.85 370.07 151.7 369.637 151.6C369.203 151.483 368.77 151.425 368.337 151.425C367.453 151.425 366.787 151.592 366.337 151.925C365.903 152.242 365.687 152.675 365.687 153.225C365.687 153.642 365.82 153.983 366.087 154.25C366.353 154.517 366.77 154.708 367.337 154.825L369.712 155.3C370.795 155.517 371.612 155.883 372.162 156.4C372.728 156.917 373.012 157.617 373.012 158.5C373.012 159.267 372.803 159.933 372.387 160.5C371.97 161.067 371.378 161.5 370.612 161.8C369.862 162.083 368.987 162.225 367.987 162.225ZM387.763 162.225C386.513 162.225 385.43 161.967 384.513 161.45C383.613 160.917 382.913 160.175 382.413 159.225C381.913 158.258 381.663 157.125 381.663 155.825C381.663 154.542 381.913 153.433 382.413 152.5C382.913 151.567 383.613 150.85 384.513 150.35C385.43 149.833 386.513 149.575 387.763 149.575C388.53 149.575 389.288 149.708 390.038 149.975C390.788 150.225 391.405 150.592 391.888 151.075L391.088 152.85C390.638 152.417 390.13 152.1 389.563 151.9C388.997 151.683 388.463 151.575 387.963 151.575C386.78 151.575 385.863 151.95 385.213 152.7C384.58 153.433 384.263 154.483 384.263 155.85C384.263 157.217 384.58 158.292 385.213 159.075C385.863 159.842 386.78 160.225 387.963 160.225C388.463 160.225 388.997 160.125 389.563 159.925C390.13 159.708 390.638 159.383 391.088 158.95L391.888 160.75C391.405 161.2 390.78 161.558 390.013 161.825C389.263 162.092 388.513 162.225 387.763 162.225ZM399.114 162.225C397.881 162.225 396.814 161.967 395.914 161.45C395.031 160.933 394.339 160.2 393.839 159.25C393.339 158.3 393.089 157.183 393.089 155.9C393.089 154.6 393.339 153.483 393.839 152.55C394.339 151.6 395.031 150.867 395.914 150.35C396.814 149.833 397.881 149.575 399.114 149.575C400.331 149.575 401.381 149.833 402.264 150.35C403.164 150.867 403.864 151.6 404.364 152.55C404.864 153.5 405.114 154.617 405.114 155.9C405.114 157.183 404.864 158.3 404.364 159.25C403.864 160.2 403.164 160.933 402.264 161.45C401.381 161.967 400.331 162.225 399.114 162.225ZM399.089 160.275C400.139 160.275 400.981 159.9 401.614 159.15C402.247 158.4 402.564 157.317 402.564 155.9C402.564 154.467 402.247 153.383 401.614 152.65C400.981 151.917 400.139 151.55 399.089 151.55C398.056 151.55 397.222 151.917 396.589 152.65C395.956 153.383 395.639 154.467 395.639 155.9C395.639 157.317 395.956 158.4 396.589 159.15C397.222 159.9 398.056 160.275 399.089 160.275ZM407.95 162V149.8H410.4V152.4H410.125C410.491 151.467 411.066 150.767 411.85 150.3C412.633 149.817 413.533 149.575 414.55 149.575C415.516 149.575 416.316 149.758 416.95 150.125C417.6 150.475 418.083 151.017 418.4 151.75C418.716 152.467 418.875 153.375 418.875 154.475V162H416.35V154.625C416.35 153.925 416.258 153.358 416.075 152.925C415.891 152.475 415.616 152.142 415.25 151.925C414.883 151.708 414.408 151.6 413.825 151.6C413.158 151.6 412.566 151.742 412.05 152.025C411.55 152.308 411.158 152.717 410.875 153.25C410.608 153.783 410.475 154.4 410.475 155.1V162H407.95ZM427.554 162.225C426.037 162.225 424.896 161.833 424.129 161.05C423.379 160.267 423.004 159.133 423.004 157.65V151.75H420.629V149.8H423.004V146.125H425.529V149.8H429.304V151.75H425.529V157.45C425.529 158.333 425.712 159 426.079 159.45C426.462 159.9 427.079 160.125 427.929 160.125C428.179 160.125 428.429 160.092 428.679 160.025C428.946 159.958 429.204 159.892 429.454 159.825L429.854 161.725C429.604 161.875 429.254 161.992 428.804 162.075C428.371 162.175 427.954 162.225 427.554 162.225ZM431.485 162V149.8H433.935V152.725H433.685C433.952 151.725 434.427 150.967 435.11 150.45C435.81 149.933 436.735 149.633 437.885 149.55L438.71 149.5L438.885 151.65L437.36 151.8C436.277 151.9 435.452 152.242 434.885 152.825C434.318 153.408 434.035 154.208 434.035 155.225V162H431.485ZM445.94 162.225C444.707 162.225 443.64 161.967 442.74 161.45C441.857 160.933 441.165 160.2 440.665 159.25C440.165 158.3 439.915 157.183 439.915 155.9C439.915 154.6 440.165 153.483 440.665 152.55C441.165 151.6 441.857 150.867 442.74 150.35C443.64 149.833 444.707 149.575 445.94 149.575C447.157 149.575 448.207 149.833 449.09 150.35C449.99 150.867 450.69 151.6 451.19 152.55C451.69 153.5 451.94 154.617 451.94 155.9C451.94 157.183 451.69 158.3 451.19 159.25C450.69 160.2 449.99 160.933 449.09 161.45C448.207 161.967 447.157 162.225 445.94 162.225ZM445.915 160.275C446.965 160.275 447.807 159.9 448.44 159.15C449.074 158.4 449.39 157.317 449.39 155.9C449.39 154.467 449.074 153.383 448.44 152.65C447.807 151.917 446.965 151.55 445.915 151.55C444.882 151.55 444.049 151.917 443.415 152.65C442.782 153.383 442.465 154.467 442.465 155.9C442.465 157.317 442.782 158.4 443.415 159.15C444.049 159.9 444.882 160.275 445.915 160.275ZM458.751 162.225C457.418 162.225 456.418 161.85 455.751 161.1C455.101 160.333 454.776 159.233 454.776 157.8V144.375H457.301V157.65C457.301 158.183 457.376 158.642 457.526 159.025C457.676 159.392 457.901 159.667 458.201 159.85C458.501 160.033 458.876 160.125 459.326 160.125C459.526 160.125 459.718 160.117 459.901 160.1C460.084 160.083 460.259 160.05 460.426 160L460.376 162.025C460.093 162.092 459.818 162.142 459.551 162.175C459.284 162.208 459.018 162.225 458.751 162.225ZM462.246 156.35V154.3H469.446V156.35H462.246ZM472.989 166.5V149.8H475.464V152.55H475.189C475.456 151.65 475.981 150.933 476.764 150.4C477.547 149.85 478.472 149.575 479.539 149.575C480.622 149.575 481.564 149.833 482.364 150.35C483.181 150.867 483.806 151.592 484.239 152.525C484.689 153.458 484.914 154.583 484.914 155.9C484.914 157.183 484.689 158.308 484.239 159.275C483.806 160.225 483.189 160.958 482.389 161.475C481.589 161.975 480.639 162.225 479.539 162.225C478.489 162.225 477.572 161.958 476.789 161.425C476.006 160.892 475.481 160.183 475.214 159.3H475.514V166.5H472.989ZM478.914 160.275C479.964 160.275 480.797 159.9 481.414 159.15C482.047 158.4 482.364 157.317 482.364 155.9C482.364 154.467 482.047 153.383 481.414 152.65C480.797 151.917 479.964 151.55 478.914 151.55C477.881 151.55 477.047 151.917 476.414 152.65C475.781 153.383 475.464 154.467 475.464 155.9C475.464 157.317 475.781 158.4 476.414 159.15C477.047 159.9 477.881 160.275 478.914 160.275ZM491.734 162.225C490.401 162.225 489.401 161.85 488.734 161.1C488.084 160.333 487.759 159.233 487.759 157.8V144.375H490.284V157.65C490.284 158.183 490.359 158.642 490.509 159.025C490.659 159.392 490.884 159.667 491.184 159.85C491.484 160.033 491.859 160.125 492.309 160.125C492.509 160.125 492.701 160.117 492.884 160.1C493.068 160.083 493.243 160.05 493.409 160L493.359 162.025C493.076 162.092 492.801 162.142 492.534 162.175C492.268 162.208 492.001 162.225 491.734 162.225ZM499.301 162.225C498.451 162.225 497.684 162.058 497.001 161.725C496.334 161.392 495.809 160.942 495.426 160.375C495.043 159.808 494.851 159.167 494.851 158.45C494.851 157.55 495.076 156.842 495.526 156.325C495.993 155.792 496.751 155.417 497.801 155.2C498.868 154.967 500.301 154.85 502.101 154.85H503.276V156.4H502.126C501.226 156.4 500.468 156.433 499.851 156.5C499.234 156.567 498.743 156.675 498.376 156.825C498.009 156.958 497.743 157.15 497.576 157.4C497.426 157.65 497.351 157.95 497.351 158.3C497.351 158.933 497.568 159.45 498.001 159.85C498.434 160.233 499.034 160.425 499.801 160.425C500.418 160.425 500.959 160.283 501.426 160C501.893 159.7 502.259 159.3 502.526 158.8C502.809 158.3 502.951 157.725 502.951 157.075V154.2C502.951 153.25 502.751 152.567 502.351 152.15C501.951 151.733 501.293 151.525 500.376 151.525C499.676 151.525 498.976 151.633 498.276 151.85C497.576 152.05 496.859 152.375 496.126 152.825L495.351 151.05C495.784 150.75 496.284 150.492 496.851 150.275C497.418 150.058 498.009 149.892 498.626 149.775C499.259 149.642 499.868 149.575 500.451 149.575C501.568 149.575 502.484 149.75 503.201 150.1C503.934 150.45 504.476 150.983 504.826 151.7C505.176 152.417 505.351 153.342 505.351 154.475V162H502.976V159.275H503.201C503.068 159.892 502.818 160.425 502.451 160.875C502.101 161.308 501.659 161.642 501.126 161.875C500.593 162.108 499.984 162.225 499.301 162.225ZM508.829 162V149.8H511.279V152.4H511.004C511.37 151.467 511.945 150.767 512.729 150.3C513.512 149.817 514.412 149.575 515.429 149.575C516.395 149.575 517.195 149.758 517.829 150.125C518.479 150.475 518.962 151.017 519.279 151.75C519.595 152.467 519.754 153.375 519.754 154.475V162H517.229V154.625C517.229 153.925 517.137 153.358 516.954 152.925C516.77 152.475 516.495 152.142 516.129 151.925C515.762 151.708 515.287 151.6 514.704 151.6C514.037 151.6 513.445 151.742 512.929 152.025C512.429 152.308 512.037 152.717 511.754 153.25C511.487 153.783 511.354 154.4 511.354 155.1V162H508.829ZM528.958 162.225C527.625 162.225 526.475 161.975 525.508 161.475C524.558 160.958 523.816 160.233 523.283 159.3C522.766 158.35 522.508 157.225 522.508 155.925C522.508 154.658 522.766 153.55 523.283 152.6C523.8 151.65 524.508 150.908 525.408 150.375C526.308 149.842 527.333 149.575 528.483 149.575C529.616 149.575 530.583 149.825 531.383 150.325C532.2 150.808 532.825 151.5 533.258 152.4C533.691 153.3 533.908 154.375 533.908 155.625V156.475H524.508V154.925H532.208L531.783 155.275C531.783 154.025 531.508 153.058 530.958 152.375C530.408 151.692 529.616 151.35 528.583 151.35C527.8 151.35 527.133 151.533 526.583 151.9C526.05 152.267 525.641 152.775 525.358 153.425C525.075 154.075 524.933 154.833 524.933 155.7V155.85C524.933 156.817 525.083 157.633 525.383 158.3C525.7 158.95 526.158 159.442 526.758 159.775C527.358 160.108 528.1 160.275 528.983 160.275C529.683 160.275 530.366 160.167 531.033 159.95C531.716 159.717 532.358 159.358 532.958 158.875L533.708 160.625C533.158 161.125 532.45 161.517 531.583 161.8C530.716 162.083 529.841 162.225 528.958 162.225Z" fill="white"/>
<rect width="168" height="59" rx="10" transform="matrix(-1 0 0 1 874 125)" fill="url(#paint5_radial_409_2718)"/>
<rect width="168" height="59" rx="10" transform="matrix(-1 0 0 1 874 125)" fill="black" fill-opacity="0.08"/>
<path d="M714.374 162V145.08H716.87V159.864H725.246V162H714.374ZM732.323 162.216C731.139 162.216 730.115 161.968 729.251 161.472C728.403 160.976 727.739 160.272 727.259 159.36C726.779 158.448 726.539 157.376 726.539 156.144C726.539 154.896 726.779 153.824 727.259 152.928C727.739 152.016 728.403 151.312 729.251 150.816C730.115 150.32 731.139 150.072 732.323 150.072C733.491 150.072 734.499 150.32 735.347 150.816C736.211 151.312 736.883 152.016 737.363 152.928C737.843 153.84 738.083 154.912 738.083 156.144C738.083 157.376 737.843 158.448 737.363 159.36C736.883 160.272 736.211 160.976 735.347 161.472C734.499 161.968 733.491 162.216 732.323 162.216ZM732.299 160.344C733.307 160.344 734.115 159.984 734.723 159.264C735.331 158.544 735.635 157.504 735.635 156.144C735.635 154.768 735.331 153.728 734.723 153.024C734.115 152.32 733.307 151.968 732.299 151.968C731.307 151.968 730.507 152.32 729.899 153.024C729.291 153.728 728.987 154.768 728.987 156.144C728.987 157.504 729.291 158.544 729.899 159.264C730.507 159.984 731.307 160.344 732.299 160.344ZM744.55 162.216C743.734 162.216 742.998 162.056 742.342 161.736C741.702 161.416 741.198 160.984 740.83 160.44C740.462 159.896 740.278 159.28 740.278 158.592C740.278 157.728 740.494 157.048 740.926 156.552C741.374 156.04 742.102 155.68 743.11 155.472C744.134 155.248 745.51 155.136 747.238 155.136H748.366V156.624H747.262C746.398 156.624 745.67 156.656 745.078 156.72C744.486 156.784 744.014 156.888 743.662 157.032C743.31 157.16 743.054 157.344 742.894 157.584C742.75 157.824 742.678 158.112 742.678 158.448C742.678 159.056 742.886 159.552 743.302 159.936C743.718 160.304 744.294 160.488 745.03 160.488C745.622 160.488 746.142 160.352 746.59 160.08C747.038 159.792 747.39 159.408 747.646 158.928C747.918 158.448 748.054 157.896 748.054 157.272V154.512C748.054 153.6 747.862 152.944 747.478 152.544C747.094 152.144 746.462 151.944 745.582 151.944C744.91 151.944 744.238 152.048 743.566 152.256C742.894 152.448 742.206 152.76 741.502 153.192L740.758 151.488C741.174 151.2 741.654 150.952 742.198 150.744C742.742 150.536 743.31 150.376 743.902 150.264C744.51 150.136 745.094 150.072 745.654 150.072C746.726 150.072 747.606 150.24 748.294 150.576C748.998 150.912 749.518 151.424 749.854 152.112C750.19 152.8 750.358 153.688 750.358 154.776V162H748.078V159.384H748.294C748.166 159.976 747.926 160.488 747.574 160.92C747.238 161.336 746.814 161.656 746.302 161.88C745.79 162.104 745.206 162.216 744.55 162.216ZM758.16 162.216C757.136 162.216 756.232 161.976 755.448 161.496C754.68 161 754.08 160.296 753.648 159.384C753.216 158.456 753 157.376 753 156.144C753 154.88 753.216 153.8 753.648 152.904C754.08 152.008 754.68 151.312 755.448 150.816C756.232 150.32 757.136 150.072 758.16 150.072C759.184 150.072 760.064 150.328 760.8 150.84C761.552 151.336 762.056 152.008 762.312 152.856H762.048V145.08H764.472V162H762.096V159.36H762.336C762.08 160.224 761.576 160.92 760.824 161.448C760.088 161.96 759.2 162.216 758.16 162.216ZM758.784 160.344C759.776 160.344 760.576 159.984 761.184 159.264C761.792 158.544 762.096 157.504 762.096 156.144C762.096 154.768 761.792 153.728 761.184 153.024C760.576 152.32 759.776 151.968 758.784 151.968C757.776 151.968 756.968 152.32 756.36 153.024C755.752 153.728 755.448 154.768 755.448 156.144C755.448 157.504 755.752 158.544 756.36 159.264C756.968 159.984 757.776 160.344 758.784 160.344ZM774.445 162V145.08H781.501C783.261 145.08 784.621 145.472 785.581 146.256C786.557 147.024 787.045 148.104 787.045 149.496C787.045 150.52 786.741 151.384 786.133 152.088C785.525 152.792 784.701 153.264 783.661 153.504V153.144C784.445 153.256 785.117 153.496 785.677 153.864C786.253 154.216 786.693 154.688 786.997 155.28C787.301 155.856 787.453 156.536 787.453 157.32C787.453 158.312 787.229 159.16 786.781 159.864C786.333 160.568 785.685 161.104 784.837 161.472C783.989 161.824 782.973 162 781.789 162H774.445ZM776.845 160.08H781.501C781.981 160.08 782.405 160.048 782.773 159.984C783.157 159.904 783.485 159.792 783.757 159.648C784.045 159.488 784.285 159.296 784.477 159.072C784.669 158.832 784.805 158.56 784.885 158.256C784.981 157.952 785.029 157.608 785.029 157.224C785.029 156.84 784.981 156.496 784.885 156.192C784.805 155.888 784.669 155.624 784.477 155.4C784.285 155.176 784.045 154.992 783.757 154.848C783.485 154.688 783.157 154.576 782.773 154.512C782.405 154.432 781.981 154.392 781.501 154.392H776.845V160.08ZM776.845 152.472H781.117C782.269 152.472 783.141 152.24 783.733 151.776C784.325 151.312 784.621 150.632 784.621 149.736C784.621 148.84 784.325 148.16 783.733 147.696C783.141 147.232 782.269 147 781.117 147H776.845V152.472ZM794.284 162.216C793.468 162.216 792.732 162.056 792.076 161.736C791.436 161.416 790.932 160.984 790.564 160.44C790.196 159.896 790.012 159.28 790.012 158.592C790.012 157.728 790.228 157.048 790.66 156.552C791.108 156.04 791.836 155.68 792.844 155.472C793.868 155.248 795.244 155.136 796.972 155.136H798.1V156.624H796.996C796.132 156.624 795.404 156.656 794.812 156.72C794.22 156.784 793.748 156.888 793.396 157.032C793.044 157.16 792.788 157.344 792.628 157.584C792.484 157.824 792.412 158.112 792.412 158.448C792.412 159.056 792.62 159.552 793.036 159.936C793.452 160.304 794.028 160.488 794.764 160.488C795.356 160.488 795.876 160.352 796.324 160.08C796.772 159.792 797.124 159.408 797.38 158.928C797.652 158.448 797.788 157.896 797.788 157.272V154.512C797.788 153.6 797.596 152.944 797.212 152.544C796.828 152.144 796.196 151.944 795.316 151.944C794.644 151.944 793.972 152.048 793.3 152.256C792.628 152.448 791.94 152.76 791.236 153.192L790.492 151.488C790.908 151.2 791.388 150.952 791.932 150.744C792.476 150.536 793.044 150.376 793.636 150.264C794.244 150.136 794.828 150.072 795.388 150.072C796.46 150.072 797.34 150.24 798.028 150.576C798.732 150.912 799.252 151.424 799.588 152.112C799.924 152.8 800.092 153.688 800.092 154.776V162H797.812V159.384H798.028C797.9 159.976 797.66 160.488 797.308 160.92C796.972 161.336 796.548 161.656 796.036 161.88C795.524 162.104 794.94 162.216 794.284 162.216ZM807.247 162.216C805.967 162.216 805.007 161.856 804.367 161.136C803.743 160.4 803.431 159.344 803.431 157.968V145.08H805.855V157.824C805.855 158.336 805.927 158.776 806.071 159.144C806.215 159.496 806.431 159.76 806.719 159.936C807.007 160.112 807.367 160.2 807.799 160.2C807.991 160.2 808.175 160.192 808.351 160.176C808.527 160.16 808.695 160.128 808.855 160.08L808.807 162.024C808.535 162.088 808.271 162.136 808.015 162.168C807.759 162.2 807.503 162.216 807.247 162.216ZM814.511 162.216C813.695 162.216 812.959 162.056 812.303 161.736C811.663 161.416 811.159 160.984 810.791 160.44C810.423 159.896 810.239 159.28 810.239 158.592C810.239 157.728 810.455 157.048 810.887 156.552C811.335 156.04 812.063 155.68 813.071 155.472C814.095 155.248 815.471 155.136 817.199 155.136H818.327V156.624H817.223C816.359 156.624 815.631 156.656 815.039 156.72C814.447 156.784 813.975 156.888 813.623 157.032C813.271 157.16 813.015 157.344 812.855 157.584C812.711 157.824 812.639 158.112 812.639 158.448C812.639 159.056 812.847 159.552 813.263 159.936C813.679 160.304 814.255 160.488 814.991 160.488C815.583 160.488 816.103 160.352 816.551 160.08C816.999 159.792 817.351 159.408 817.607 158.928C817.879 158.448 818.015 157.896 818.015 157.272V154.512C818.015 153.6 817.823 152.944 817.439 152.544C817.055 152.144 816.423 151.944 815.543 151.944C814.871 151.944 814.199 152.048 813.527 152.256C812.855 152.448 812.167 152.76 811.463 153.192L810.719 151.488C811.135 151.2 811.615 150.952 812.159 150.744C812.703 150.536 813.271 150.376 813.863 150.264C814.471 150.136 815.055 150.072 815.615 150.072C816.687 150.072 817.567 150.24 818.255 150.576C818.959 150.912 819.479 151.424 819.815 152.112C820.151 152.8 820.319 153.688 820.319 154.776V162H818.039V159.384H818.255C818.127 159.976 817.887 160.488 817.535 160.92C817.199 161.336 816.775 161.656 816.263 161.88C815.751 162.104 815.167 162.216 814.511 162.216ZM823.657 162V150.288H826.009V152.784H825.745C826.097 151.888 826.649 151.216 827.401 150.768C828.153 150.304 829.017 150.072 829.993 150.072C830.921 150.072 831.689 150.248 832.297 150.6C832.921 150.936 833.385 151.456 833.689 152.16C833.993 152.848 834.145 153.72 834.145 154.776V162H831.721V154.92C831.721 154.248 831.633 153.704 831.457 153.288C831.281 152.856 831.017 152.536 830.665 152.328C830.313 152.12 829.857 152.016 829.297 152.016C828.657 152.016 828.089 152.152 827.593 152.424C827.113 152.696 826.737 153.088 826.465 153.6C826.209 154.112 826.081 154.704 826.081 155.376V162H823.657ZM842.645 162.216C841.445 162.216 840.405 161.968 839.525 161.472C838.661 160.96 837.989 160.248 837.509 159.336C837.029 158.408 836.789 157.32 836.789 156.072C836.789 154.84 837.029 153.776 837.509 152.88C837.989 151.984 838.661 151.296 839.525 150.816C840.405 150.32 841.445 150.072 842.645 150.072C843.381 150.072 844.109 150.2 844.829 150.456C845.549 150.696 846.141 151.048 846.605 151.512L845.837 153.216C845.405 152.8 844.917 152.496 844.373 152.304C843.829 152.096 843.317 151.992 842.837 151.992C841.701 151.992 840.821 152.352 840.197 153.072C839.589 153.776 839.285 154.784 839.285 156.096C839.285 157.408 839.589 158.44 840.197 159.192C840.821 159.928 841.701 160.296 842.837 160.296C843.317 160.296 843.829 160.2 844.373 160.008C844.917 159.8 845.405 159.488 845.837 159.072L846.605 160.8C846.141 161.232 845.541 161.576 844.805 161.832C844.085 162.088 843.365 162.216 842.645 162.216ZM853.95 162.216C852.67 162.216 851.566 161.976 850.638 161.496C849.726 161 849.014 160.304 848.502 159.408C848.006 158.496 847.758 157.416 847.758 156.168C847.758 154.952 848.006 153.888 848.502 152.976C848.998 152.064 849.678 151.352 850.542 150.84C851.406 150.328 852.39 150.072 853.494 150.072C854.582 150.072 855.51 150.312 856.278 150.792C857.062 151.256 857.662 151.92 858.078 152.784C858.494 153.648 858.702 154.68 858.702 155.88V156.696H849.678V155.208H857.07L856.662 155.544C856.662 154.344 856.398 153.416 855.87 152.76C855.342 152.104 854.582 151.776 853.59 151.776C852.838 151.776 852.198 151.952 851.67 152.304C851.158 152.656 850.766 153.144 850.494 153.768C850.222 154.392 850.086 155.12 850.086 155.952V156.096C850.086 157.024 850.23 157.808 850.518 158.448C850.822 159.072 851.262 159.544 851.838 159.864C852.414 160.184 853.126 160.344 853.974 160.344C854.646 160.344 855.302 160.24 855.942 160.032C856.598 159.808 857.214 159.464 857.79 159L858.51 160.68C857.982 161.16 857.302 161.536 856.47 161.808C855.638 162.08 854.798 162.216 853.95 162.216ZM861.345 162V150.288H863.697V153.096H863.457C863.713 152.136 864.169 151.408 864.825 150.912C865.497 150.416 866.385 150.128 867.489 150.048L868.281 150L868.449 152.064L866.985 152.208C865.945 152.304 865.153 152.632 864.609 153.192C864.065 153.752 863.793 154.52 863.793 155.496V162H861.345Z" fill="white"/>
<rect width="638" height="58" rx="10" transform="matrix(-1 0 0 1 809 317)" fill="url(#paint6_radial_409_2718)"/>
<rect width="638" height="58" rx="10" transform="matrix(-1 0 0 1 809 317)" fill="black" fill-opacity="0.08"/>
<path d="M453.162 354.225C452.245 354.225 451.37 354.15 450.537 354C449.72 353.833 448.962 353.6 448.262 353.3C447.578 352.983 446.97 352.608 446.437 352.175L447.262 350.125C447.828 350.542 448.412 350.892 449.012 351.175C449.612 351.458 450.253 351.675 450.937 351.825C451.62 351.958 452.362 352.025 453.162 352.025C454.578 352.025 455.62 351.775 456.287 351.275C456.97 350.758 457.312 350.092 457.312 349.275C457.312 348.825 457.203 348.442 456.987 348.125C456.787 347.808 456.453 347.542 455.987 347.325C455.52 347.092 454.912 346.9 454.162 346.75L451.487 346.2C449.903 345.867 448.72 345.317 447.937 344.55C447.17 343.783 446.787 342.75 446.787 341.45C446.787 340.383 447.07 339.45 447.637 338.65C448.203 337.85 448.978 337.233 449.962 336.8C450.962 336.367 452.112 336.15 453.412 336.15C454.212 336.15 454.97 336.233 455.687 336.4C456.42 336.55 457.095 336.783 457.712 337.1C458.345 337.417 458.895 337.8 459.362 338.25L458.512 340.225C457.795 339.592 457.02 339.125 456.187 338.825C455.353 338.508 454.42 338.35 453.387 338.35C452.57 338.35 451.853 338.475 451.237 338.725C450.637 338.975 450.17 339.325 449.837 339.775C449.52 340.225 449.362 340.758 449.362 341.375C449.362 342.075 449.587 342.633 450.037 343.05C450.487 343.467 451.237 343.783 452.287 344L454.937 344.55C456.603 344.9 457.845 345.442 458.662 346.175C459.478 346.908 459.887 347.883 459.887 349.1C459.887 350.117 459.612 351.017 459.062 351.8C458.512 352.567 457.737 353.167 456.737 353.6C455.737 354.017 454.545 354.225 453.162 354.225ZM467.69 354.225C466.174 354.225 465.032 353.833 464.265 353.05C463.515 352.267 463.14 351.133 463.14 349.65V343.75H460.765V341.8H463.14V338.125H465.665V341.8H469.44V343.75H465.665V349.45C465.665 350.333 465.849 351 466.215 351.45C466.599 351.9 467.215 352.125 468.065 352.125C468.315 352.125 468.565 352.092 468.815 352.025C469.082 351.958 469.34 351.892 469.59 351.825L469.99 353.725C469.74 353.875 469.39 353.992 468.94 354.075C468.507 354.175 468.09 354.225 467.69 354.225ZM476.799 354.225C475.566 354.225 474.499 353.967 473.599 353.45C472.716 352.933 472.024 352.2 471.524 351.25C471.024 350.3 470.774 349.183 470.774 347.9C470.774 346.6 471.024 345.483 471.524 344.55C472.024 343.6 472.716 342.867 473.599 342.35C474.499 341.833 475.566 341.575 476.799 341.575C478.016 341.575 479.066 341.833 479.949 342.35C480.849 342.867 481.549 343.6 482.049 344.55C482.549 345.5 482.799 346.617 482.799 347.9C482.799 349.183 482.549 350.3 482.049 351.25C481.549 352.2 480.849 352.933 479.949 353.45C479.066 353.967 478.016 354.225 476.799 354.225ZM476.774 352.275C477.824 352.275 478.666 351.9 479.299 351.15C479.932 350.4 480.249 349.317 480.249 347.9C480.249 346.467 479.932 345.383 479.299 344.65C478.666 343.917 477.824 343.55 476.774 343.55C475.741 343.55 474.907 343.917 474.274 344.65C473.641 345.383 473.324 346.467 473.324 347.9C473.324 349.317 473.641 350.4 474.274 351.15C474.907 351.9 475.741 352.275 476.774 352.275ZM485.635 354V341.8H488.085V344.725H487.835C488.102 343.725 488.577 342.967 489.26 342.45C489.96 341.933 490.885 341.633 492.035 341.55L492.86 341.5L493.035 343.65L491.51 343.8C490.427 343.9 489.602 344.242 489.035 344.825C488.468 345.408 488.185 346.208 488.185 347.225V354H485.635ZM498.739 354.225C497.889 354.225 497.122 354.058 496.439 353.725C495.772 353.392 495.247 352.942 494.864 352.375C494.481 351.808 494.289 351.167 494.289 350.45C494.289 349.55 494.514 348.842 494.964 348.325C495.431 347.792 496.189 347.417 497.239 347.2C498.306 346.967 499.739 346.85 501.539 346.85H502.714V348.4H501.564C500.664 348.4 499.906 348.433 499.289 348.5C498.672 348.567 498.181 348.675 497.814 348.825C497.447 348.958 497.181 349.15 497.014 349.4C496.864 349.65 496.789 349.95 496.789 350.3C496.789 350.933 497.006 351.45 497.439 351.85C497.872 352.233 498.472 352.425 499.239 352.425C499.856 352.425 500.397 352.283 500.864 352C501.331 351.7 501.697 351.3 501.964 350.8C502.247 350.3 502.389 349.725 502.389 349.075V346.2C502.389 345.25 502.189 344.567 501.789 344.15C501.389 343.733 500.731 343.525 499.814 343.525C499.114 343.525 498.414 343.633 497.714 343.85C497.014 344.05 496.297 344.375 495.564 344.825L494.789 343.05C495.222 342.75 495.722 342.492 496.289 342.275C496.856 342.058 497.447 341.892 498.064 341.775C498.697 341.642 499.306 341.575 499.889 341.575C501.006 341.575 501.922 341.75 502.639 342.1C503.372 342.45 503.914 342.983 504.264 343.7C504.614 344.417 504.789 345.342 504.789 346.475V354H502.414V351.275H502.639C502.506 351.892 502.256 352.425 501.889 352.875C501.539 353.308 501.097 353.642 500.564 353.875C500.031 354.108 499.422 354.225 498.739 354.225ZM513.792 358.725C512.692 358.725 511.667 358.592 510.717 358.325C509.767 358.058 508.925 357.658 508.192 357.125L508.967 355.325C509.45 355.642 509.942 355.908 510.442 356.125C510.958 356.358 511.475 356.525 511.992 356.625C512.525 356.725 513.067 356.775 513.617 356.775C514.783 356.775 515.658 356.475 516.242 355.875C516.825 355.292 517.117 354.425 517.117 353.275V350.725H517.342C517.092 351.642 516.567 352.367 515.767 352.9C514.967 353.433 514.042 353.7 512.992 353.7C511.892 353.7 510.933 353.45 510.117 352.95C509.3 352.433 508.667 351.725 508.217 350.825C507.767 349.908 507.542 348.842 507.542 347.625C507.542 346.408 507.767 345.35 508.217 344.45C508.667 343.55 509.3 342.85 510.117 342.35C510.933 341.833 511.892 341.575 512.992 341.575C514.058 341.575 514.983 341.842 515.767 342.375C516.567 342.908 517.083 343.633 517.317 344.55H517.117V341.8H519.567V352.975C519.567 354.242 519.35 355.3 518.917 356.15C518.483 357.017 517.833 357.658 516.967 358.075C516.117 358.508 515.058 358.725 513.792 358.725ZM513.592 351.725C514.675 351.725 515.525 351.358 516.142 350.625C516.775 349.892 517.092 348.892 517.092 347.625C517.092 346.375 516.775 345.383 516.142 344.65C515.525 343.917 514.675 343.55 513.592 343.55C512.525 343.55 511.675 343.917 511.042 344.65C510.408 345.383 510.092 346.375 510.092 347.625C510.092 348.892 510.408 349.892 511.042 350.625C511.675 351.358 512.525 351.725 513.592 351.725ZM528.835 354.225C527.502 354.225 526.352 353.975 525.385 353.475C524.435 352.958 523.694 352.233 523.16 351.3C522.644 350.35 522.385 349.225 522.385 347.925C522.385 346.658 522.644 345.55 523.16 344.6C523.677 343.65 524.385 342.908 525.285 342.375C526.185 341.842 527.21 341.575 528.36 341.575C529.494 341.575 530.46 341.825 531.26 342.325C532.077 342.808 532.702 343.5 533.135 344.4C533.569 345.3 533.785 346.375 533.785 347.625V348.475H524.385V346.925H532.085L531.66 347.275C531.66 346.025 531.385 345.058 530.835 344.375C530.285 343.692 529.494 343.35 528.46 343.35C527.677 343.35 527.01 343.533 526.46 343.9C525.927 344.267 525.519 344.775 525.235 345.425C524.952 346.075 524.81 346.833 524.81 347.7V347.85C524.81 348.817 524.96 349.633 525.26 350.3C525.577 350.95 526.035 351.442 526.635 351.775C527.235 352.108 527.977 352.275 528.86 352.275C529.56 352.275 530.244 352.167 530.91 351.95C531.594 351.717 532.235 351.358 532.835 350.875L533.585 352.625C533.035 353.125 532.327 353.517 531.46 353.8C530.594 354.083 529.719 354.225 528.835 354.225Z" fill="white"/>
<rect x="197" y="323" width="73" height="45" rx="9" fill="white" fill-opacity="0.8" stroke="white" stroke-width="2"/>
<path d="M220.067 353V336.08H226.907C228.123 336.08 229.155 336.28 230.003 336.68C230.851 337.08 231.491 337.664 231.923 338.432C232.371 339.184 232.595 340.104 232.595 341.192C232.595 342.28 232.371 343.208 231.923 343.976C231.491 344.744 230.851 345.328 230.003 345.728C229.155 346.128 228.123 346.328 226.907 346.328H222.299V353H220.067ZM222.299 344.528H226.619C227.867 344.528 228.803 344.248 229.427 343.688C230.067 343.112 230.387 342.28 230.387 341.192C230.387 340.104 230.067 339.288 229.427 338.744C228.803 338.184 227.867 337.904 226.619 337.904H222.299V344.528ZM240.653 353L233.237 336.08H235.613L242.117 351.152H241.277L247.733 336.08H250.037L242.621 353H240.653Z" fill="black"/>
<rect x="587" y="323" width="73" height="45" rx="9" fill="white" fill-opacity="0.8" stroke="white" stroke-width="2"/>
<path d="M610.067 353V336.08H616.907C618.123 336.08 619.155 336.28 620.003 336.68C620.851 337.08 621.491 337.664 621.923 338.432C622.371 339.184 622.595 340.104 622.595 341.192C622.595 342.28 622.371 343.208 621.923 343.976C621.491 344.744 620.851 345.328 620.003 345.728C619.155 346.128 618.123 346.328 616.907 346.328H612.299V353H610.067ZM612.299 344.528H616.619C617.867 344.528 618.803 344.248 619.427 343.688C620.067 343.112 620.387 342.28 620.387 341.192C620.387 340.104 620.067 339.288 619.427 338.744C618.803 338.184 617.867 337.904 616.619 337.904H612.299V344.528ZM630.653 353L623.237 336.08H625.613L632.117 351.152H631.277L637.733 336.08H640.037L632.621 353H630.653Z" fill="black"/>
<defs>
<linearGradient id="paint0_linear_409_2718" x1="100" y1="105" x2="350.53" y2="211.58" gradientUnits="userSpaceOnUse">
<stop stop-color="#0185FF"/>
<stop offset="1" stop-color="#01CDFF"/>
</linearGradient>
<linearGradient id="paint1_linear_409_2718" x1="300" y1="105" x2="550.53" y2="211.58" gradientUnits="userSpaceOnUse">
<stop stop-color="#0185FF"/>
<stop offset="1" stop-color="#01CDFF"/>
</linearGradient>
<linearGradient id="paint2_linear_409_2718" x1="500" y1="105" x2="750.53" y2="211.58" gradientUnits="userSpaceOnUse">
<stop stop-color="#0185FF"/>
<stop offset="1" stop-color="#01CDFF"/>
</linearGradient>
<linearGradient id="paint3_linear_409_2718" x1="700" y1="105" x2="950.53" y2="211.58" gradientUnits="userSpaceOnUse">
<stop stop-color="#0185FF"/>
<stop offset="1" stop-color="#01CDFF"/>
</linearGradient>
<radialGradient id="paint4_radial_409_2718" cx="0" cy="0" r="1" gradientUnits="userSpaceOnUse" gradientTransform="translate(-468.391 -91.5) rotate(8.25291) scale(1152.74 203.128)">
<stop offset="0.057461" stop-color="#B0E07F"/>
<stop offset="0.358954" stop-color="#94DEE0"/>
<stop offset="0.567519" stop-color="#5DA4EF"/>
<stop offset="0.8845" stop-color="#591BBF"/>
</radialGradient>
<radialGradient id="paint5_radial_409_2718" cx="0" cy="0" r="1" gradientUnits="userSpaceOnUse" gradientTransform="translate(-145.992 -91.5) rotate(24.955) scale(392.188 186.091)">
<stop offset="0.057461" stop-color="#B0E07F"/>
<stop offset="0.358954" stop-color="#94DEE0"/>
<stop offset="0.567519" stop-color="#5DA4EF"/>
<stop offset="0.8845" stop-color="#591BBF"/>
</radialGradient>
<radialGradient id="paint6_radial_409_2718" cx="0" cy="0" r="1" gradientUnits="userSpaceOnUse" gradientTransform="translate(-326.419 -31.3456) rotate(3.51359) scale(1645.51 270.329)">
<stop offset="0.0995467" stop-color="#B0E07F"/>
<stop offset="0.344281" stop-color="#94DEE0"/>
<stop offset="0.567519" stop-color="#5DA4EF"/>
<stop offset="0.859602" stop-color="#591BBF"/>
</radialGradient>
</defs>
</svg>
