<svg width="1200" height="630" viewBox="0 0 1200 630" fill="none" xmlns="http://www.w3.org/2000/svg">
<rect width="1200" height="630" fill="white"/>
<rect width="301" height="136" rx="10" transform="matrix(-1 0 0 1 451 190)" fill="url(#paint0_radial_409_2681)"/>
<rect width="301" height="136" rx="10" transform="matrix(-1 0 0 1 451 190)" fill="black" fill-opacity="0.06"/>
<path d="M220.468 247V224.44H223.796V234.584H223.86L234.324 224.44H238.42L226.164 236.184L226.228 234.552L239.06 247H234.9L223.86 236.472H223.796V247H220.468ZM245.934 247.288C244.675 247.288 243.619 247.053 242.766 246.584C241.934 246.115 241.304 245.421 240.878 244.504C240.472 243.565 240.27 242.392 240.27 240.984V231.384H243.502V241.016C243.502 241.848 243.608 242.541 243.822 243.096C244.056 243.651 244.408 244.056 244.878 244.312C245.368 244.568 245.976 244.696 246.702 244.696C247.512 244.696 248.227 244.515 248.846 244.152C249.464 243.789 249.944 243.267 250.286 242.584C250.627 241.901 250.798 241.112 250.798 240.216V231.384H254.03V247H250.894V243.576H251.31C250.883 244.771 250.2 245.688 249.262 246.328C248.323 246.968 247.214 247.288 245.934 247.288ZM266.969 247.288C265.603 247.288 264.419 246.947 263.417 246.264C262.414 245.56 261.742 244.632 261.401 243.48H261.753V247H258.585V224.44H261.817V234.808H261.433C261.774 233.677 262.446 232.781 263.449 232.12C264.451 231.437 265.625 231.096 266.969 231.096C268.377 231.096 269.593 231.427 270.617 232.088C271.641 232.749 272.43 233.677 272.985 234.872C273.561 236.067 273.849 237.507 273.849 239.192C273.849 240.835 273.561 242.275 272.985 243.512C272.43 244.728 271.63 245.667 270.585 246.328C269.561 246.968 268.355 247.288 266.969 247.288ZM266.169 244.792C267.513 244.792 268.579 244.312 269.369 243.352C270.179 242.392 270.585 241.005 270.585 239.192C270.585 237.357 270.179 235.971 269.369 235.032C268.579 234.093 267.513 233.624 266.169 233.624C264.846 233.624 263.779 234.093 262.969 235.032C262.158 235.971 261.753 237.357 261.753 239.192C261.753 241.005 262.158 242.392 262.969 243.352C263.779 244.312 264.846 244.792 266.169 244.792ZM284.819 247.288C283.112 247.288 281.64 246.968 280.403 246.328C279.187 245.667 278.237 244.739 277.555 243.544C276.893 242.328 276.563 240.888 276.563 239.224C276.563 237.603 276.893 236.184 277.555 234.968C278.216 233.752 279.123 232.803 280.275 232.12C281.427 231.437 282.739 231.096 284.211 231.096C285.661 231.096 286.899 231.416 287.923 232.056C288.968 232.675 289.768 233.56 290.323 234.712C290.877 235.864 291.155 237.24 291.155 238.84V239.928H279.123V237.944H288.979L288.435 238.392C288.435 236.792 288.083 235.555 287.379 234.68C286.675 233.805 285.661 233.368 284.339 233.368C283.336 233.368 282.483 233.603 281.779 234.072C281.096 234.541 280.573 235.192 280.211 236.024C279.848 236.856 279.667 237.827 279.667 238.936V239.128C279.667 240.365 279.859 241.411 280.243 242.264C280.648 243.096 281.235 243.725 282.003 244.152C282.771 244.579 283.72 244.792 284.851 244.792C285.747 244.792 286.621 244.653 287.475 244.376C288.349 244.077 289.171 243.619 289.939 243L290.899 245.24C290.195 245.88 289.288 246.381 288.179 246.744C287.069 247.107 285.949 247.288 284.819 247.288ZM294.678 247V231.384H297.814V235.128H297.494C297.836 233.848 298.444 232.877 299.318 232.216C300.214 231.555 301.398 231.171 302.87 231.064L303.926 231L304.15 233.752L302.198 233.944C300.812 234.072 299.756 234.509 299.03 235.256C298.305 236.003 297.942 237.027 297.942 238.328V247H294.678ZM306.616 247V231.384H309.752V234.712H309.4C309.869 233.517 310.605 232.621 311.608 232.024C312.61 231.405 313.762 231.096 315.064 231.096C316.301 231.096 317.325 231.331 318.136 231.8C318.968 232.248 319.586 232.941 319.992 233.88C320.397 234.797 320.6 235.96 320.6 237.368V247H317.368V237.56C317.368 236.664 317.25 235.939 317.016 235.384C316.781 234.808 316.429 234.381 315.96 234.104C315.49 233.827 314.882 233.688 314.136 233.688C313.282 233.688 312.525 233.869 311.864 234.232C311.224 234.595 310.722 235.117 310.36 235.8C310.018 236.483 309.848 237.272 309.848 238.168V247H306.616ZM332.381 247.288C330.675 247.288 329.203 246.968 327.965 246.328C326.749 245.667 325.8 244.739 325.117 243.544C324.456 242.328 324.125 240.888 324.125 239.224C324.125 237.603 324.456 236.184 325.117 234.968C325.779 233.752 326.685 232.803 327.837 232.12C328.989 231.437 330.301 231.096 331.773 231.096C333.224 231.096 334.461 231.416 335.485 232.056C336.531 232.675 337.331 233.56 337.885 234.712C338.44 235.864 338.717 237.24 338.717 238.84V239.928H326.685V237.944H336.541L335.997 238.392C335.997 236.792 335.645 235.555 334.941 234.68C334.237 233.805 333.224 233.368 331.901 233.368C330.899 233.368 330.045 233.603 329.341 234.072C328.659 234.541 328.136 235.192 327.773 236.024C327.411 236.856 327.229 237.827 327.229 238.936V239.128C327.229 240.365 327.421 241.411 327.805 242.264C328.211 243.096 328.797 243.725 329.565 244.152C330.333 244.579 331.283 244.792 332.413 244.792C333.309 244.792 334.184 244.653 335.037 244.376C335.912 244.077 336.733 243.619 337.501 243L338.461 245.24C337.757 245.88 336.851 246.381 335.741 246.744C334.632 247.107 333.512 247.288 332.381 247.288ZM348.866 247.288C346.924 247.288 345.463 246.787 344.482 245.784C343.522 244.781 343.042 243.331 343.042 241.432V233.88H340.002V231.384H343.042V226.68H346.274V231.384H351.106V233.88H346.274V241.176C346.274 242.307 346.508 243.16 346.978 243.736C347.468 244.312 348.258 244.6 349.345 244.6C349.666 244.6 349.986 244.557 350.306 244.472C350.647 244.387 350.978 244.301 351.298 244.216L351.81 246.648C351.49 246.84 351.042 246.989 350.466 247.096C349.911 247.224 349.378 247.288 348.866 247.288ZM361.069 247.288C359.362 247.288 357.89 246.968 356.653 246.328C355.437 245.667 354.487 244.739 353.805 243.544C353.143 242.328 352.813 240.888 352.813 239.224C352.813 237.603 353.143 236.184 353.805 234.968C354.466 233.752 355.373 232.803 356.525 232.12C357.677 231.437 358.989 231.096 360.461 231.096C361.911 231.096 363.149 231.416 364.173 232.056C365.218 232.675 366.018 233.56 366.573 234.712C367.127 235.864 367.405 237.24 367.405 238.84V239.928H355.373V237.944H365.229L364.685 238.392C364.685 236.792 364.333 235.555 363.629 234.68C362.925 233.805 361.911 233.368 360.589 233.368C359.586 233.368 358.733 233.603 358.029 234.072C357.346 234.541 356.823 235.192 356.461 236.024C356.098 236.856 355.917 237.827 355.917 238.936V239.128C355.917 240.365 356.109 241.411 356.493 242.264C356.898 243.096 357.485 243.725 358.253 244.152C359.021 244.579 359.97 244.792 361.101 244.792C361.997 244.792 362.871 244.653 363.725 244.376C364.599 244.077 365.421 243.619 366.189 243L367.149 245.24C366.445 245.88 365.538 246.381 364.429 246.744C363.319 247.107 362.199 247.288 361.069 247.288ZM376.4 247.288C375.568 247.288 374.758 247.213 373.968 247.064C373.179 246.915 372.454 246.701 371.792 246.424C371.131 246.147 370.544 245.805 370.032 245.4L370.96 243.224C371.494 243.587 372.059 243.907 372.656 244.184C373.254 244.44 373.872 244.632 374.512 244.76C375.174 244.888 375.814 244.952 376.432 244.952C377.563 244.952 378.416 244.749 378.992 244.344C379.568 243.939 379.856 243.395 379.856 242.712C379.856 242.157 379.664 241.731 379.28 241.432C378.896 241.112 378.32 240.867 377.552 240.696L374.512 240.088C373.19 239.811 372.187 239.32 371.504 238.616C370.822 237.912 370.48 237.016 370.48 235.928C370.48 234.947 370.747 234.093 371.28 233.368C371.814 232.643 372.56 232.088 373.52 231.704C374.48 231.299 375.59 231.096 376.848 231.096C377.574 231.096 378.278 231.171 378.96 231.32C379.643 231.469 380.283 231.683 380.88 231.96C381.499 232.237 382.022 232.589 382.448 233.016L381.52 235.192C381.115 234.829 380.646 234.52 380.112 234.264C379.6 234.008 379.067 233.816 378.512 233.688C377.958 233.539 377.403 233.464 376.848 233.464C375.718 233.464 374.864 233.677 374.288 234.104C373.734 234.509 373.456 235.064 373.456 235.768C373.456 236.301 373.627 236.739 373.968 237.08C374.31 237.421 374.843 237.667 375.568 237.816L378.608 238.424C379.995 238.701 381.04 239.171 381.744 239.832C382.47 240.493 382.832 241.389 382.832 242.52C382.832 243.501 382.566 244.355 382.032 245.08C381.499 245.805 380.742 246.36 379.76 246.744C378.8 247.107 377.68 247.288 376.4 247.288ZM211.418 291.288C209.818 291.288 208.431 290.957 207.258 290.296C206.106 289.613 205.21 288.664 204.57 287.448C203.93 286.211 203.61 284.76 203.61 283.096C203.61 281.453 203.93 280.035 204.57 278.84C205.21 277.645 206.106 276.728 207.258 276.088C208.431 275.427 209.818 275.096 211.418 275.096C212.399 275.096 213.37 275.267 214.33 275.608C215.29 275.928 216.079 276.397 216.698 277.016L215.674 279.288C215.098 278.733 214.447 278.328 213.722 278.072C212.996 277.795 212.314 277.656 211.674 277.656C210.159 277.656 208.986 278.136 208.154 279.096C207.343 280.035 206.938 281.379 206.938 283.128C206.938 284.877 207.343 286.253 208.154 287.256C208.986 288.237 210.159 288.728 211.674 288.728C212.314 288.728 212.996 288.6 213.722 288.344C214.447 288.067 215.098 287.651 215.674 287.096L216.698 289.4C216.079 289.976 215.279 290.435 214.298 290.776C213.338 291.117 212.378 291.288 211.418 291.288ZM225.947 291.288C224.368 291.288 223.003 290.957 221.851 290.296C220.72 289.635 219.835 288.696 219.195 287.48C218.555 286.264 218.235 284.835 218.235 283.192C218.235 281.528 218.555 280.099 219.195 278.904C219.835 277.688 220.72 276.749 221.851 276.088C223.003 275.427 224.368 275.096 225.947 275.096C227.504 275.096 228.848 275.427 229.979 276.088C231.131 276.749 232.027 277.688 232.667 278.904C233.307 280.12 233.627 281.549 233.627 283.192C233.627 284.835 233.307 286.264 232.667 287.48C232.027 288.696 231.131 289.635 229.979 290.296C228.848 290.957 227.504 291.288 225.947 291.288ZM225.915 288.792C227.259 288.792 228.336 288.312 229.147 287.352C229.957 286.392 230.363 285.005 230.363 283.192C230.363 281.357 229.957 279.971 229.147 279.032C228.336 278.093 227.259 277.624 225.915 277.624C224.592 277.624 223.525 278.093 222.715 279.032C221.904 279.971 221.499 281.357 221.499 283.192C221.499 285.005 221.904 286.392 222.715 287.352C223.525 288.312 224.592 288.792 225.915 288.792ZM237.256 291V275.384H240.392V278.712H240.04C240.51 277.517 241.246 276.621 242.248 276.024C243.251 275.405 244.403 275.096 245.704 275.096C246.942 275.096 247.966 275.331 248.776 275.8C249.608 276.248 250.227 276.941 250.632 277.88C251.038 278.797 251.24 279.96 251.24 281.368V291H248.008V281.56C248.008 280.664 247.891 279.939 247.656 279.384C247.422 278.808 247.07 278.381 246.6 278.104C246.131 277.827 245.523 277.688 244.776 277.688C243.923 277.688 243.166 277.869 242.504 278.232C241.864 278.595 241.363 279.117 241 279.8C240.659 280.483 240.488 281.272 240.488 282.168V291H237.256ZM262.35 291.288C260.409 291.288 258.947 290.787 257.966 289.784C257.006 288.781 256.526 287.331 256.526 285.432V277.88H253.486V275.384H256.526V270.68H259.758V275.384H264.59V277.88H259.758V285.176C259.758 286.307 259.993 287.16 260.462 287.736C260.953 288.312 261.742 288.6 262.83 288.6C263.15 288.6 263.47 288.557 263.79 288.472C264.131 288.387 264.462 288.301 264.782 288.216L265.294 290.648C264.974 290.84 264.526 290.989 263.95 291.096C263.395 291.224 262.862 291.288 262.35 291.288ZM267.381 291V275.384H270.517V279.128H270.197C270.539 277.848 271.147 276.877 272.021 276.216C272.917 275.555 274.101 275.171 275.573 275.064L276.629 275L276.853 277.752L274.901 277.944C273.515 278.072 272.459 278.509 271.733 279.256C271.008 280.003 270.645 281.027 270.645 282.328V291H267.381ZM285.884 291.288C284.305 291.288 282.94 290.957 281.788 290.296C280.657 289.635 279.772 288.696 279.132 287.48C278.492 286.264 278.172 284.835 278.172 283.192C278.172 281.528 278.492 280.099 279.132 278.904C279.772 277.688 280.657 276.749 281.788 276.088C282.94 275.427 284.305 275.096 285.884 275.096C287.441 275.096 288.785 275.427 289.916 276.088C291.068 276.749 291.964 277.688 292.604 278.904C293.244 280.12 293.564 281.549 293.564 283.192C293.564 284.835 293.244 286.264 292.604 287.48C291.964 288.696 291.068 289.635 289.916 290.296C288.785 290.957 287.441 291.288 285.884 291.288ZM285.852 288.792C287.196 288.792 288.273 288.312 289.084 287.352C289.895 286.392 290.3 285.005 290.3 283.192C290.3 281.357 289.895 279.971 289.084 279.032C288.273 278.093 287.196 277.624 285.852 277.624C284.529 277.624 283.463 278.093 282.652 279.032C281.841 279.971 281.436 281.357 281.436 283.192C281.436 285.005 281.841 286.392 282.652 287.352C283.463 288.312 284.529 288.792 285.852 288.792ZM302.282 291.288C300.575 291.288 299.295 290.808 298.442 289.848C297.61 288.867 297.194 287.459 297.194 285.624V268.44H300.426V285.432C300.426 286.115 300.522 286.701 300.714 287.192C300.906 287.661 301.194 288.013 301.578 288.248C301.962 288.483 302.442 288.6 303.018 288.6C303.274 288.6 303.519 288.589 303.754 288.568C303.989 288.547 304.213 288.504 304.426 288.44L304.362 291.032C303.999 291.117 303.647 291.181 303.306 291.224C302.965 291.267 302.623 291.288 302.282 291.288ZM306.756 283.768V281.144H315.972V283.768H306.756ZM320.506 296.76V275.384H323.674V278.904H323.322C323.664 277.752 324.336 276.835 325.338 276.152C326.341 275.448 327.525 275.096 328.89 275.096C330.277 275.096 331.482 275.427 332.506 276.088C333.552 276.749 334.352 277.677 334.906 278.872C335.482 280.067 335.77 281.507 335.77 283.192C335.77 284.835 335.482 286.275 334.906 287.512C334.352 288.728 333.562 289.667 332.538 290.328C331.514 290.968 330.298 291.288 328.89 291.288C327.546 291.288 326.373 290.947 325.37 290.264C324.368 289.581 323.696 288.675 323.354 287.544H323.738V296.76H320.506ZM328.09 288.792C329.434 288.792 330.501 288.312 331.29 287.352C332.101 286.392 332.506 285.005 332.506 283.192C332.506 281.357 332.101 279.971 331.29 279.032C330.501 278.093 329.434 277.624 328.09 277.624C326.768 277.624 325.701 278.093 324.89 279.032C324.08 279.971 323.674 281.357 323.674 283.192C323.674 285.005 324.08 286.392 324.89 287.352C325.701 288.312 326.768 288.792 328.09 288.792ZM344.501 291.288C342.794 291.288 341.514 290.808 340.661 289.848C339.829 288.867 339.413 287.459 339.413 285.624V268.44H342.645V285.432C342.645 286.115 342.741 286.701 342.933 287.192C343.125 287.661 343.413 288.013 343.797 288.248C344.181 288.483 344.661 288.6 345.237 288.6C345.493 288.6 345.738 288.589 345.973 288.568C346.207 288.547 346.431 288.504 346.645 288.44L346.581 291.032C346.218 291.117 345.866 291.181 345.525 291.224C345.183 291.267 344.842 291.288 344.501 291.288ZM354.186 291.288C353.098 291.288 352.117 291.075 351.242 290.648C350.389 290.221 349.717 289.645 349.226 288.92C348.735 288.195 348.49 287.373 348.49 286.456C348.49 285.304 348.778 284.397 349.354 283.736C349.951 283.053 350.922 282.573 352.266 282.296C353.631 281.997 355.466 281.848 357.77 281.848H359.274V283.832H357.802C356.65 283.832 355.679 283.875 354.89 283.96C354.101 284.045 353.471 284.184 353.002 284.376C352.533 284.547 352.191 284.792 351.978 285.112C351.786 285.432 351.69 285.816 351.69 286.264C351.69 287.075 351.967 287.736 352.522 288.248C353.077 288.739 353.845 288.984 354.826 288.984C355.615 288.984 356.309 288.803 356.906 288.44C357.503 288.056 357.973 287.544 358.314 286.904C358.677 286.264 358.858 285.528 358.858 284.696V281.016C358.858 279.8 358.602 278.925 358.09 278.392C357.578 277.859 356.735 277.592 355.562 277.592C354.666 277.592 353.77 277.731 352.874 278.008C351.978 278.264 351.061 278.68 350.122 279.256L349.13 276.984C349.685 276.6 350.325 276.269 351.05 275.992C351.775 275.715 352.533 275.501 353.322 275.352C354.133 275.181 354.911 275.096 355.658 275.096C357.087 275.096 358.261 275.32 359.178 275.768C360.117 276.216 360.81 276.899 361.258 277.816C361.706 278.733 361.93 279.917 361.93 281.368V291H358.89V287.512H359.178C359.007 288.301 358.687 288.984 358.218 289.56C357.77 290.115 357.205 290.541 356.522 290.84C355.839 291.139 355.061 291.288 354.186 291.288ZM366.381 291V275.384H369.517V278.712H369.165C369.635 277.517 370.371 276.621 371.373 276.024C372.376 275.405 373.528 275.096 374.829 275.096C376.067 275.096 377.091 275.331 377.901 275.8C378.733 276.248 379.352 276.941 379.757 277.88C380.163 278.797 380.365 279.96 380.365 281.368V291H377.133V281.56C377.133 280.664 377.016 279.939 376.781 279.384C376.547 278.808 376.195 278.381 375.725 278.104C375.256 277.827 374.648 277.688 373.901 277.688C373.048 277.688 372.291 277.869 371.629 278.232C370.989 278.595 370.488 279.117 370.125 279.8C369.784 280.483 369.613 281.272 369.613 282.168V291H366.381ZM392.147 291.288C390.44 291.288 388.968 290.968 387.731 290.328C386.515 289.667 385.566 288.739 384.883 287.544C384.222 286.328 383.891 284.888 383.891 283.224C383.891 281.603 384.222 280.184 384.883 278.968C385.544 277.752 386.451 276.803 387.603 276.12C388.755 275.437 390.067 275.096 391.539 275.096C392.99 275.096 394.227 275.416 395.251 276.056C396.296 276.675 397.096 277.56 397.651 278.712C398.206 279.864 398.483 281.24 398.483 282.84V283.928H386.451V281.944H396.307L395.763 282.392C395.763 280.792 395.411 279.555 394.707 278.68C394.003 277.805 392.99 277.368 391.667 277.368C390.664 277.368 389.811 277.603 389.107 278.072C388.424 278.541 387.902 279.192 387.539 280.024C387.176 280.856 386.995 281.827 386.995 282.936V283.128C386.995 284.365 387.187 285.411 387.571 286.264C387.976 287.096 388.563 287.725 389.331 288.152C390.099 288.579 391.048 288.792 392.179 288.792C393.075 288.792 393.95 288.653 394.803 288.376C395.678 288.077 396.499 287.619 397.267 287L398.227 289.24C397.523 289.88 396.616 290.381 395.507 290.744C394.398 291.107 393.278 291.288 392.147 291.288Z" fill="white"/>
<rect x="537" y="314" width="115" height="74" rx="9" fill="white" stroke="url(#paint1_linear_409_2681)" stroke-width="2"/>
<path d="M563.474 360V340.26H565.462L577.754 356.556H577.054V340.26H579.49V360H577.53L565.238 343.676H565.882V360H563.474ZM589.688 360.252C588.344 360.252 587.177 359.963 586.188 359.384C585.198 358.805 584.433 357.984 583.892 356.92C583.35 355.856 583.08 354.605 583.08 353.168C583.08 351.731 583.35 350.489 583.892 349.444C584.433 348.38 585.198 347.559 586.188 346.98C587.177 346.401 588.344 346.112 589.688 346.112C591.032 346.112 592.198 346.401 593.188 346.98C594.177 347.559 594.942 348.38 595.484 349.444C596.025 350.489 596.296 351.731 596.296 353.168C596.296 354.605 596.025 355.856 595.484 356.92C594.942 357.984 594.177 358.805 593.188 359.384C592.198 359.963 591.032 360.252 589.688 360.252ZM589.688 358.236C590.92 358.236 591.9 357.807 592.628 356.948C593.356 356.071 593.72 354.811 593.72 353.168C593.72 351.525 593.356 350.275 592.628 349.416C591.9 348.557 590.92 348.128 589.688 348.128C588.474 348.128 587.494 348.557 586.748 349.416C586.02 350.275 585.656 351.525 585.656 353.168C585.656 354.811 586.02 356.071 586.748 356.948C587.494 357.807 588.474 358.236 589.688 358.236ZM604.768 360.252C603.573 360.252 602.518 359.972 601.604 359.412C600.708 358.833 600.008 358.012 599.504 356.948C599 355.865 598.748 354.605 598.748 353.168C598.748 351.712 598.99 350.461 599.476 349.416C599.98 348.352 600.68 347.54 601.576 346.98C602.49 346.401 603.554 346.112 604.768 346.112C605.981 346.112 607.026 346.42 607.904 347.036C608.781 347.633 609.369 348.436 609.668 349.444H609.36V340.26H611.908V360H609.388V356.836H609.668C609.388 357.881 608.8 358.712 607.904 359.328C607.026 359.944 605.981 360.252 604.768 360.252ZM605.356 358.236C606.588 358.236 607.568 357.807 608.296 356.948C609.024 356.071 609.388 354.811 609.388 353.168C609.388 351.525 609.024 350.275 608.296 349.416C607.568 348.557 606.588 348.128 605.356 348.128C604.142 348.128 603.162 348.557 602.416 349.416C601.688 350.275 601.324 351.525 601.324 353.168C601.324 354.811 601.688 356.071 602.416 356.948C603.162 357.807 604.142 358.236 605.356 358.236ZM622.293 360.252C620.819 360.252 619.549 359.972 618.485 359.412C617.44 358.833 616.628 358.021 616.049 356.976C615.471 355.912 615.181 354.661 615.181 353.224C615.181 351.805 615.461 350.564 616.021 349.5C616.6 348.436 617.384 347.605 618.373 347.008C619.381 346.411 620.529 346.112 621.817 346.112C623.068 346.112 624.132 346.383 625.009 346.924C625.905 347.465 626.587 348.24 627.053 349.248C627.539 350.237 627.781 351.432 627.781 352.832V353.756H617.169V352.132H626.101L625.625 352.524C625.625 351.068 625.308 349.948 624.673 349.164C624.039 348.361 623.105 347.96 621.873 347.96C620.977 347.96 620.212 348.175 619.577 348.604C618.943 349.015 618.457 349.603 618.121 350.368C617.785 351.115 617.617 351.983 617.617 352.972V353.14C617.617 354.26 617.795 355.203 618.149 355.968C618.523 356.715 619.055 357.284 619.745 357.676C620.436 358.049 621.285 358.236 622.293 358.236C623.096 358.236 623.871 358.115 624.617 357.872C625.383 357.611 626.101 357.209 626.773 356.668L627.557 358.432C626.941 358.992 626.148 359.44 625.177 359.776C624.225 360.093 623.264 360.252 622.293 360.252Z" fill="black"/>
<rect x="669" y="314" width="115" height="74" rx="9" fill="white" stroke="url(#paint2_linear_409_2681)" stroke-width="2"/>
<path d="M695.474 360V340.26H697.462L709.754 356.556H709.054V340.26H711.49V360H709.53L697.238 343.676H697.882V360H695.474ZM721.688 360.252C720.344 360.252 719.177 359.963 718.188 359.384C717.198 358.805 716.433 357.984 715.892 356.92C715.35 355.856 715.08 354.605 715.08 353.168C715.08 351.731 715.35 350.489 715.892 349.444C716.433 348.38 717.198 347.559 718.188 346.98C719.177 346.401 720.344 346.112 721.688 346.112C723.032 346.112 724.198 346.401 725.188 346.98C726.177 347.559 726.942 348.38 727.484 349.444C728.025 350.489 728.296 351.731 728.296 353.168C728.296 354.605 728.025 355.856 727.484 356.92C726.942 357.984 726.177 358.805 725.188 359.384C724.198 359.963 723.032 360.252 721.688 360.252ZM721.688 358.236C722.92 358.236 723.9 357.807 724.628 356.948C725.356 356.071 725.72 354.811 725.72 353.168C725.72 351.525 725.356 350.275 724.628 349.416C723.9 348.557 722.92 348.128 721.688 348.128C720.474 348.128 719.494 348.557 718.748 349.416C718.02 350.275 717.656 351.525 717.656 353.168C717.656 354.811 718.02 356.071 718.748 356.948C719.494 357.807 720.474 358.236 721.688 358.236ZM736.768 360.252C735.573 360.252 734.518 359.972 733.604 359.412C732.708 358.833 732.008 358.012 731.504 356.948C731 355.865 730.748 354.605 730.748 353.168C730.748 351.712 730.99 350.461 731.476 349.416C731.98 348.352 732.68 347.54 733.576 346.98C734.49 346.401 735.554 346.112 736.768 346.112C737.981 346.112 739.026 346.42 739.904 347.036C740.781 347.633 741.369 348.436 741.668 349.444H741.36V340.26H743.908V360H741.388V356.836H741.668C741.388 357.881 740.8 358.712 739.904 359.328C739.026 359.944 737.981 360.252 736.768 360.252ZM737.356 358.236C738.588 358.236 739.568 357.807 740.296 356.948C741.024 356.071 741.388 354.811 741.388 353.168C741.388 351.525 741.024 350.275 740.296 349.416C739.568 348.557 738.588 348.128 737.356 348.128C736.142 348.128 735.162 348.557 734.416 349.416C733.688 350.275 733.324 351.525 733.324 353.168C733.324 354.811 733.688 356.071 734.416 356.948C735.162 357.807 736.142 358.236 737.356 358.236ZM754.293 360.252C752.819 360.252 751.549 359.972 750.485 359.412C749.44 358.833 748.628 358.021 748.049 356.976C747.471 355.912 747.181 354.661 747.181 353.224C747.181 351.805 747.461 350.564 748.021 349.5C748.6 348.436 749.384 347.605 750.373 347.008C751.381 346.411 752.529 346.112 753.817 346.112C755.068 346.112 756.132 346.383 757.009 346.924C757.905 347.465 758.587 348.24 759.053 349.248C759.539 350.237 759.781 351.432 759.781 352.832V353.756H749.169V352.132H758.101L757.625 352.524C757.625 351.068 757.308 349.948 756.673 349.164C756.039 348.361 755.105 347.96 753.873 347.96C752.977 347.96 752.212 348.175 751.577 348.604C750.943 349.015 750.457 349.603 750.121 350.368C749.785 351.115 749.617 351.983 749.617 352.972V353.14C749.617 354.26 749.795 355.203 750.149 355.968C750.523 356.715 751.055 357.284 751.745 357.676C752.436 358.049 753.285 358.236 754.293 358.236C755.096 358.236 755.871 358.115 756.617 357.872C757.383 357.611 758.101 357.209 758.773 356.668L759.557 358.432C758.941 358.992 758.148 359.44 757.177 359.776C756.225 360.093 755.264 360.252 754.293 360.252Z" fill="black"/>
<rect x="801" y="314" width="115" height="74" rx="9" fill="white" stroke="url(#paint3_linear_409_2681)" stroke-width="2"/>
<path d="M827.474 360V340.26H829.462L841.754 356.556H841.054V340.26H843.49V360H841.53L829.238 343.676H829.882V360H827.474ZM853.688 360.252C852.344 360.252 851.177 359.963 850.188 359.384C849.198 358.805 848.433 357.984 847.892 356.92C847.35 355.856 847.08 354.605 847.08 353.168C847.08 351.731 847.35 350.489 847.892 349.444C848.433 348.38 849.198 347.559 850.188 346.98C851.177 346.401 852.344 346.112 853.688 346.112C855.032 346.112 856.198 346.401 857.188 346.98C858.177 347.559 858.942 348.38 859.484 349.444C860.025 350.489 860.296 351.731 860.296 353.168C860.296 354.605 860.025 355.856 859.484 356.92C858.942 357.984 858.177 358.805 857.188 359.384C856.198 359.963 855.032 360.252 853.688 360.252ZM853.688 358.236C854.92 358.236 855.9 357.807 856.628 356.948C857.356 356.071 857.72 354.811 857.72 353.168C857.72 351.525 857.356 350.275 856.628 349.416C855.9 348.557 854.92 348.128 853.688 348.128C852.474 348.128 851.494 348.557 850.748 349.416C850.02 350.275 849.656 351.525 849.656 353.168C849.656 354.811 850.02 356.071 850.748 356.948C851.494 357.807 852.474 358.236 853.688 358.236ZM868.768 360.252C867.573 360.252 866.518 359.972 865.604 359.412C864.708 358.833 864.008 358.012 863.504 356.948C863 355.865 862.748 354.605 862.748 353.168C862.748 351.712 862.99 350.461 863.476 349.416C863.98 348.352 864.68 347.54 865.576 346.98C866.49 346.401 867.554 346.112 868.768 346.112C869.981 346.112 871.026 346.42 871.904 347.036C872.781 347.633 873.369 348.436 873.668 349.444H873.36V340.26H875.908V360H873.388V356.836H873.668C873.388 357.881 872.8 358.712 871.904 359.328C871.026 359.944 869.981 360.252 868.768 360.252ZM869.356 358.236C870.588 358.236 871.568 357.807 872.296 356.948C873.024 356.071 873.388 354.811 873.388 353.168C873.388 351.525 873.024 350.275 872.296 349.416C871.568 348.557 870.588 348.128 869.356 348.128C868.142 348.128 867.162 348.557 866.416 349.416C865.688 350.275 865.324 351.525 865.324 353.168C865.324 354.811 865.688 356.071 866.416 356.948C867.162 357.807 868.142 358.236 869.356 358.236ZM886.293 360.252C884.819 360.252 883.549 359.972 882.485 359.412C881.44 358.833 880.628 358.021 880.049 356.976C879.471 355.912 879.181 354.661 879.181 353.224C879.181 351.805 879.461 350.564 880.021 349.5C880.6 348.436 881.384 347.605 882.373 347.008C883.381 346.411 884.529 346.112 885.817 346.112C887.068 346.112 888.132 346.383 889.009 346.924C889.905 347.465 890.587 348.24 891.053 349.248C891.539 350.237 891.781 351.432 891.781 352.832V353.756H881.169V352.132H890.101L889.625 352.524C889.625 351.068 889.308 349.948 888.673 349.164C888.039 348.361 887.105 347.96 885.873 347.96C884.977 347.96 884.212 348.175 883.577 348.604C882.943 349.015 882.457 349.603 882.121 350.368C881.785 351.115 881.617 351.983 881.617 352.972V353.14C881.617 354.26 881.795 355.203 882.149 355.968C882.523 356.715 883.055 357.284 883.745 357.676C884.436 358.049 885.285 358.236 886.293 358.236C887.096 358.236 887.871 358.115 888.617 357.872C889.383 357.611 890.101 357.209 890.773 356.668L891.557 358.432C890.941 358.992 890.148 359.44 889.177 359.776C888.225 360.093 887.264 360.252 886.293 360.252Z" fill="black"/>
<rect x="552" y="434" width="85" height="76" rx="10" fill="#F2F6F9"/>
<rect x="553" y="435" width="83" height="74" rx="9" stroke="url(#paint4_linear_409_2681)" stroke-opacity="0.4" stroke-width="2"/>
<path d="M578.745 481V461.26H586.725C588.144 461.26 589.348 461.493 590.337 461.96C591.327 462.427 592.073 463.108 592.577 464.004C593.1 464.881 593.361 465.955 593.361 467.224C593.361 468.493 593.1 469.576 592.577 470.472C592.073 471.368 591.327 472.049 590.337 472.516C589.348 472.983 588.144 473.216 586.725 473.216H581.349V481H578.745ZM581.349 471.116H586.389C587.845 471.116 588.937 470.789 589.665 470.136C590.412 469.464 590.785 468.493 590.785 467.224C590.785 465.955 590.412 465.003 589.665 464.368C588.937 463.715 587.845 463.388 586.389 463.388H581.349V471.116ZM602.761 481L594.109 461.26H596.881L604.469 478.844H603.489L611.021 461.26H613.709L605.057 481H602.761Z" fill="black"/>
<rect x="816" y="434" width="85" height="76" rx="10" fill="#F2F6F9"/>
<rect x="817" y="435" width="83" height="74" rx="9" stroke="url(#paint5_linear_409_2681)" stroke-opacity="0.4" stroke-width="2"/>
<path d="M842.745 481V461.26H850.725C852.144 461.26 853.348 461.493 854.337 461.96C855.327 462.427 856.073 463.108 856.577 464.004C857.1 464.881 857.361 465.955 857.361 467.224C857.361 468.493 857.1 469.576 856.577 470.472C856.073 471.368 855.327 472.049 854.337 472.516C853.348 472.983 852.144 473.216 850.725 473.216H845.349V481H842.745ZM845.349 471.116H850.389C851.845 471.116 852.937 470.789 853.665 470.136C854.412 469.464 854.785 468.493 854.785 467.224C854.785 465.955 854.412 465.003 853.665 464.368C852.937 463.715 851.845 463.388 850.389 463.388H845.349V471.116ZM866.761 481L858.109 461.26H860.881L868.469 478.844H867.489L875.021 461.26H877.709L869.057 481H866.761Z" fill="black"/>
<rect x="933" y="314" width="115" height="74" rx="9" fill="white" stroke="url(#paint6_linear_409_2681)" stroke-width="2"/>
<path d="M959.474 360V340.26H961.462L973.754 356.556H973.054V340.26H975.49V360H973.53L961.238 343.676H961.882V360H959.474ZM985.688 360.252C984.344 360.252 983.177 359.963 982.188 359.384C981.198 358.805 980.433 357.984 979.892 356.92C979.35 355.856 979.08 354.605 979.08 353.168C979.08 351.731 979.35 350.489 979.892 349.444C980.433 348.38 981.198 347.559 982.188 346.98C983.177 346.401 984.344 346.112 985.688 346.112C987.032 346.112 988.198 346.401 989.188 346.98C990.177 347.559 990.942 348.38 991.484 349.444C992.025 350.489 992.296 351.731 992.296 353.168C992.296 354.605 992.025 355.856 991.484 356.92C990.942 357.984 990.177 358.805 989.188 359.384C988.198 359.963 987.032 360.252 985.688 360.252ZM985.688 358.236C986.92 358.236 987.9 357.807 988.628 356.948C989.356 356.071 989.72 354.811 989.72 353.168C989.72 351.525 989.356 350.275 988.628 349.416C987.9 348.557 986.92 348.128 985.688 348.128C984.474 348.128 983.494 348.557 982.748 349.416C982.02 350.275 981.656 351.525 981.656 353.168C981.656 354.811 982.02 356.071 982.748 356.948C983.494 357.807 984.474 358.236 985.688 358.236ZM1000.77 360.252C999.573 360.252 998.518 359.972 997.604 359.412C996.708 358.833 996.008 358.012 995.504 356.948C995 355.865 994.748 354.605 994.748 353.168C994.748 351.712 994.99 350.461 995.476 349.416C995.98 348.352 996.68 347.54 997.576 346.98C998.49 346.401 999.554 346.112 1000.77 346.112C1001.98 346.112 1003.03 346.42 1003.9 347.036C1004.78 347.633 1005.37 348.436 1005.67 349.444H1005.36V340.26H1007.91V360H1005.39V356.836H1005.67C1005.39 357.881 1004.8 358.712 1003.9 359.328C1003.03 359.944 1001.98 360.252 1000.77 360.252ZM1001.36 358.236C1002.59 358.236 1003.57 357.807 1004.3 356.948C1005.02 356.071 1005.39 354.811 1005.39 353.168C1005.39 351.525 1005.02 350.275 1004.3 349.416C1003.57 348.557 1002.59 348.128 1001.36 348.128C1000.14 348.128 999.162 348.557 998.416 349.416C997.688 350.275 997.324 351.525 997.324 353.168C997.324 354.811 997.688 356.071 998.416 356.948C999.162 357.807 1000.14 358.236 1001.36 358.236ZM1018.29 360.252C1016.82 360.252 1015.55 359.972 1014.49 359.412C1013.44 358.833 1012.63 358.021 1012.05 356.976C1011.47 355.912 1011.18 354.661 1011.18 353.224C1011.18 351.805 1011.46 350.564 1012.02 349.5C1012.6 348.436 1013.38 347.605 1014.37 347.008C1015.38 346.411 1016.53 346.112 1017.82 346.112C1019.07 346.112 1020.13 346.383 1021.01 346.924C1021.91 347.465 1022.59 348.24 1023.05 349.248C1023.54 350.237 1023.78 351.432 1023.78 352.832V353.756H1013.17V352.132H1022.1L1021.63 352.524C1021.63 351.068 1021.31 349.948 1020.67 349.164C1020.04 348.361 1019.11 347.96 1017.87 347.96C1016.98 347.96 1016.21 348.175 1015.58 348.604C1014.94 349.015 1014.46 349.603 1014.12 350.368C1013.79 351.115 1013.62 351.983 1013.62 352.972V353.14C1013.62 354.26 1013.79 355.203 1014.15 355.968C1014.52 356.715 1015.05 357.284 1015.75 357.676C1016.44 358.049 1017.29 358.236 1018.29 358.236C1019.1 358.236 1019.87 358.115 1020.62 357.872C1021.38 357.611 1022.1 357.209 1022.77 356.668L1023.56 358.432C1022.94 358.992 1022.15 359.44 1021.18 359.776C1020.23 360.093 1019.26 360.252 1018.29 360.252Z" fill="black"/>
<path d="M301 360H299.5V361.5H301V360ZM532.061 361.061C532.646 360.475 532.646 359.525 532.061 358.939L522.515 349.393C521.929 348.808 520.979 348.808 520.393 349.393C519.808 349.979 519.808 350.929 520.393 351.515L528.879 360L520.393 368.485C519.808 369.071 519.808 370.021 520.393 370.607C520.979 371.192 521.929 371.192 522.515 370.607L532.061 361.061ZM299.5 326V360H302.5V326H299.5ZM301 361.5H531V358.5H301V361.5Z" fill="#5783D9"/>
<path d="M730.707 313.707C730.317 314.098 729.683 314.098 729.293 313.707L722.929 307.343C722.538 306.953 722.538 306.319 722.929 305.929C723.319 305.538 723.953 305.538 724.343 305.929L730 311.586L735.657 305.929C736.047 305.538 736.681 305.538 737.071 305.929C737.462 306.319 737.462 306.953 737.071 307.343L730.707 313.707ZM731 207L731 209.409L729 209.409L729 207L731 207ZM731 214.227L731 219.045L729 219.045L729 214.227L731 214.227ZM731 223.864L731 228.682L729 228.682L729 223.864L731 223.864ZM731 233.5L731 238.318L729 238.318L729 233.5L731 233.5ZM731 243.136L731 247.955L729 247.955L729 243.136L731 243.136ZM731 252.773L731 257.591L729 257.591L729 252.773L731 252.773ZM731 262.409L731 267.227L729 267.227L729 262.409L731 262.409ZM731 272.045L731 276.864L729 276.864L729 272.045L731 272.045ZM731 281.682L731 286.5L729 286.5L729 281.682L731 281.682ZM731 291.318L731 296.136L729 296.136L729 291.318L731 291.318ZM731 300.955L731 305.773L729 305.773L729 300.955L731 300.955ZM731 310.591L731 313L729 313L729 310.591L731 310.591ZM730.707 313.707C730.317 314.098 729.683 314.098 729.293 313.707L722.929 307.343C722.538 306.953 722.538 306.319 722.929 305.929C723.319 305.538 723.953 305.538 724.343 305.929L730 311.586L735.657 305.929C736.047 305.538 736.681 305.538 737.071 305.929C737.462 306.319 737.462 306.953 737.071 307.343L730.707 313.707ZM731 207L731 209.409L729 209.409L729 207L731 207ZM731 214.227L731 219.045L729 219.045L729 214.227L731 214.227ZM731 223.864L731 228.682L729 228.682L729 223.864L731 223.864ZM731 233.5L731 238.318L729 238.318L729 233.5L731 233.5ZM731 243.136L731 247.955L729 247.955L729 243.136L731 243.136ZM731 252.773L731 257.591L729 257.591L729 252.773L731 252.773ZM731 262.409L731 267.227L729 267.227L729 262.409L731 262.409ZM731 272.045L731 276.864L729 276.864L729 272.045L731 272.045ZM731 281.682L731 286.5L729 286.5L729 281.682L731 281.682ZM731 291.318L731 296.136L729 296.136L729 291.318L731 291.318ZM731 300.955L731 305.773L729 305.773L729 300.955L731 300.955ZM731 310.591L731 313L729 313L729 310.591L731 310.591Z" fill="#292449"/>
<path d="M859.707 388.293C859.317 387.902 858.683 387.902 858.293 388.293L851.929 394.657C851.538 395.047 851.538 395.681 851.929 396.071C852.319 396.462 852.953 396.462 853.343 396.071L859 390.414L864.657 396.071C865.047 396.462 865.681 396.462 866.071 396.071C866.462 395.681 866.462 395.047 866.071 394.657L859.707 388.293ZM860 434L860 431.75L858 431.75L858 434L860 434ZM860 427.25L860 422.75L858 422.75L858 427.25L860 427.25ZM860 418.25L860 413.75L858 413.75L858 418.25L860 418.25ZM860 409.25L860 404.75L858 404.75L858 409.25L860 409.25ZM860 400.25L860 395.75L858 395.75L858 400.25L860 400.25ZM860 391.25L860 389L858 389L858 391.25L860 391.25ZM859.707 388.293C859.317 387.902 858.683 387.902 858.293 388.293L851.929 394.657C851.538 395.047 851.538 395.681 851.929 396.071C852.319 396.462 852.953 396.462 853.343 396.071L859 390.414L864.657 396.071C865.047 396.462 865.681 396.462 866.071 396.071C866.462 395.681 866.462 395.047 866.071 394.657L859.707 388.293ZM860 434L860 431.75L858 431.75L858 434L860 434ZM860 427.25L860 422.75L858 422.75L858 427.25L860 427.25ZM860 418.25L860 413.75L858 413.75L858 418.25L860 418.25ZM860 409.25L860 404.75L858 404.75L858 409.25L860 409.25ZM860 400.25L860 395.75L858 395.75L858 400.25L860 400.25ZM860 391.25L860 389L858 389L858 391.25L860 391.25Z" fill="#292449"/>
<path d="M595.707 388.293C595.317 387.902 594.683 387.902 594.293 388.293L587.929 394.657C587.538 395.047 587.538 395.681 587.929 396.071C588.319 396.462 588.953 396.462 589.343 396.071L595 390.414L600.657 396.071C601.047 396.462 601.681 396.462 602.071 396.071C602.462 395.681 602.462 395.047 602.071 394.657L595.707 388.293ZM596 434L596 431.75L594 431.75L594 434L596 434ZM596 427.25L596 422.75L594 422.75L594 427.25L596 427.25ZM596 418.25L596 413.75L594 413.75L594 418.25L596 418.25ZM596 409.25L596 404.75L594 404.75L594 409.25L596 409.25ZM596 400.25L596 395.75L594 395.75L594 400.25L596 400.25ZM596 391.25L596 389L594 389L594 391.25L596 391.25ZM595.707 388.293C595.317 387.902 594.683 387.902 594.293 388.293L587.929 394.657C587.538 395.047 587.538 395.681 587.929 396.071C588.319 396.462 588.953 396.462 589.343 396.071L595 390.414L600.657 396.071C601.047 396.462 601.681 396.462 602.071 396.071C602.462 395.681 602.462 395.047 602.071 394.657L595.707 388.293ZM596 434L596 431.75L594 431.75L594 434L596 434ZM596 427.25L596 422.75L594 422.75L594 427.25L596 427.25ZM596 418.25L596 413.75L594 413.75L594 418.25L596 418.25ZM596 409.25L596 404.75L594 404.75L594 409.25L596 409.25ZM596 400.25L596 395.75L594 395.75L594 400.25L596 400.25ZM596 391.25L596 389L594 389L594 391.25L596 391.25Z" fill="#292449"/>
<path d="M838.523 313.523C839.076 313.523 839.523 313.076 839.523 312.523V303.523C839.523 302.971 839.076 302.523 838.523 302.523C837.971 302.523 837.523 302.971 837.523 303.523V311.523L829.523 311.523C828.971 311.523 828.523 311.971 828.523 312.523C828.523 313.076 828.971 313.523 829.523 313.523L838.523 313.523ZM731.816 207.231L733.583 208.997L734.997 207.583L733.231 205.816L731.816 207.231ZM737.116 212.531L740.65 216.064L742.064 214.65L738.531 211.116L737.116 212.531ZM744.183 219.597L747.716 223.131L749.131 221.716L745.597 218.183L744.183 219.597ZM751.25 226.664L754.783 230.197L756.197 228.783L752.664 225.25L751.25 226.664ZM758.316 233.731L761.85 237.264L763.264 235.85L759.731 232.316L758.316 233.731ZM765.383 240.797L768.916 244.331L770.331 242.916L766.797 239.383L765.383 240.797ZM772.45 247.864L775.983 251.397L777.397 249.983L773.864 246.45L772.45 247.864ZM779.516 254.931L783.05 258.464L784.464 257.05L780.931 253.516L779.516 254.931ZM786.583 261.997L790.116 265.531L791.531 264.116L787.997 260.583L786.583 261.997ZM793.65 269.064L797.183 272.597L798.597 271.183L795.064 267.65L793.65 269.064ZM800.716 276.131L804.25 279.664L805.664 278.25L802.131 274.716L800.716 276.131ZM807.783 283.197L811.316 286.731L812.731 285.316L809.197 281.783L807.783 283.197ZM814.85 290.264L818.383 293.797L819.797 292.383L816.264 288.85L814.85 290.264ZM821.916 297.331L825.45 300.864L826.864 299.45L823.331 295.916L821.916 297.331ZM828.983 304.397L832.516 307.931L833.931 306.516L830.397 302.983L828.983 304.397ZM836.05 311.464L837.816 313.231L839.231 311.816L837.464 310.05L836.05 311.464ZM838.523 313.523C839.076 313.523 839.523 313.076 839.523 312.523V303.523C839.523 302.971 839.076 302.523 838.523 302.523C837.971 302.523 837.523 302.971 837.523 303.523V311.523L829.523 311.523C828.971 311.523 828.523 311.971 828.523 312.523C828.523 313.076 828.971 313.523 829.523 313.523L838.523 313.523ZM731.816 207.231L733.583 208.997L734.997 207.583L733.231 205.816L731.816 207.231ZM737.116 212.531L740.65 216.064L742.064 214.65L738.531 211.116L737.116 212.531ZM744.183 219.597L747.716 223.131L749.131 221.716L745.597 218.183L744.183 219.597ZM751.25 226.664L754.783 230.197L756.197 228.783L752.664 225.25L751.25 226.664ZM758.316 233.731L761.85 237.264L763.264 235.85L759.731 232.316L758.316 233.731ZM765.383 240.797L768.916 244.331L770.331 242.916L766.797 239.383L765.383 240.797ZM772.45 247.864L775.983 251.397L777.397 249.983L773.864 246.45L772.45 247.864ZM779.516 254.931L783.05 258.464L784.464 257.05L780.931 253.516L779.516 254.931ZM786.583 261.997L790.116 265.531L791.531 264.116L787.997 260.583L786.583 261.997ZM793.65 269.064L797.183 272.597L798.597 271.183L795.064 267.65L793.65 269.064ZM800.716 276.131L804.25 279.664L805.664 278.25L802.131 274.716L800.716 276.131ZM807.783 283.197L811.316 286.731L812.731 285.316L809.197 281.783L807.783 283.197ZM814.85 290.264L818.383 293.797L819.797 292.383L816.264 288.85L814.85 290.264ZM821.916 297.331L825.45 300.864L826.864 299.45L823.331 295.916L821.916 297.331ZM828.983 304.397L832.516 307.931L833.931 306.516L830.397 302.983L828.983 304.397ZM836.05 311.464L837.816 313.231L839.231 311.816L837.464 310.05L836.05 311.464Z" fill="#292449"/>
<path d="M621.523 313.523C620.971 313.523 620.523 313.076 620.523 312.523V303.523C620.523 302.971 620.971 302.523 621.523 302.523C622.076 302.523 622.523 302.971 622.523 303.523V311.523L630.523 311.523C631.076 311.523 631.523 311.971 631.523 312.523C631.523 313.076 631.076 313.523 630.523 313.523L621.523 313.523ZM728.231 207.231L726.464 208.997L725.05 207.583L726.816 205.816L728.231 207.231ZM722.931 212.531L719.397 216.064L717.983 214.65L721.516 211.116L722.931 212.531ZM715.864 219.597L712.331 223.131L710.916 221.716L714.45 218.183L715.864 219.597ZM708.797 226.664L705.264 230.197L703.85 228.783L707.383 225.25L708.797 226.664ZM701.731 233.731L698.197 237.264L696.783 235.85L700.316 232.316L701.731 233.731ZM694.664 240.797L691.131 244.331L689.716 242.916L693.25 239.383L694.664 240.797ZM687.597 247.864L684.064 251.397L682.65 249.983L686.183 246.45L687.597 247.864ZM680.531 254.931L676.997 258.464L675.583 257.05L679.116 253.516L680.531 254.931ZM673.464 261.997L669.931 265.531L668.516 264.116L672.05 260.583L673.464 261.997ZM666.397 269.064L662.864 272.597L661.45 271.183L664.983 267.65L666.397 269.064ZM659.331 276.131L655.797 279.664L654.383 278.25L657.916 274.716L659.331 276.131ZM652.264 283.197L648.731 286.731L647.316 285.316L650.85 281.783L652.264 283.197ZM645.197 290.264L641.664 293.797L640.25 292.383L643.783 288.85L645.197 290.264ZM638.131 297.331L634.597 300.864L633.183 299.45L636.716 295.916L638.131 297.331ZM631.064 304.397L627.531 307.931L626.116 306.516L629.65 302.983L631.064 304.397ZM623.997 311.464L622.231 313.231L620.816 311.816L622.583 310.05L623.997 311.464ZM621.523 313.523C620.971 313.523 620.523 313.076 620.523 312.523V303.523C620.523 302.971 620.971 302.523 621.523 302.523C622.076 302.523 622.523 302.971 622.523 303.523V311.523L630.523 311.523C631.076 311.523 631.523 311.971 631.523 312.523C631.523 313.076 631.076 313.523 630.523 313.523L621.523 313.523ZM728.231 207.231L726.464 208.997L725.05 207.583L726.816 205.816L728.231 207.231ZM722.931 212.531L719.397 216.064L717.983 214.65L721.516 211.116L722.931 212.531ZM715.864 219.597L712.331 223.131L710.916 221.716L714.45 218.183L715.864 219.597ZM708.797 226.664L705.264 230.197L703.85 228.783L707.383 225.25L708.797 226.664ZM701.731 233.731L698.197 237.264L696.783 235.85L700.316 232.316L701.731 233.731ZM694.664 240.797L691.131 244.331L689.716 242.916L693.25 239.383L694.664 240.797ZM687.597 247.864L684.064 251.397L682.65 249.983L686.183 246.45L687.597 247.864ZM680.531 254.931L676.997 258.464L675.583 257.05L679.116 253.516L680.531 254.931ZM673.464 261.997L669.931 265.531L668.516 264.116L672.05 260.583L673.464 261.997ZM666.397 269.064L662.864 272.597L661.45 271.183L664.983 267.65L666.397 269.064ZM659.331 276.131L655.797 279.664L654.383 278.25L657.916 274.716L659.331 276.131ZM652.264 283.197L648.731 286.731L647.316 285.316L650.85 281.783L652.264 283.197ZM645.197 290.264L641.664 293.797L640.25 292.383L643.783 288.85L645.197 290.264ZM638.131 297.331L634.597 300.864L633.183 299.45L636.716 295.916L638.131 297.331ZM631.064 304.397L627.531 307.931L626.116 306.516L629.65 302.983L631.064 304.397ZM623.997 311.464L622.231 313.231L620.816 311.816L622.583 310.05L623.997 311.464Z" fill="#292449"/>
<rect width="210" height="59" rx="10" transform="matrix(-1 0 0 1 839 148)" fill="url(#paint7_radial_409_2681)"/>
<rect width="210" height="59" rx="10" transform="matrix(-1 0 0 1 839 148)" fill="black" fill-opacity="0.08"/>
<path d="M651.53 186V167.67H654.234V183.686H663.308V186H651.53ZM670.975 186.234C669.693 186.234 668.583 185.965 667.647 185.428C666.729 184.891 666.009 184.128 665.489 183.14C664.969 182.152 664.709 180.991 664.709 179.656C664.709 178.304 664.969 177.143 665.489 176.172C666.009 175.184 666.729 174.421 667.647 173.884C668.583 173.347 669.693 173.078 670.975 173.078C672.241 173.078 673.333 173.347 674.251 173.884C675.187 174.421 675.915 175.184 676.435 176.172C676.955 177.16 677.215 178.321 677.215 179.656C677.215 180.991 676.955 182.152 676.435 183.14C675.915 184.128 675.187 184.891 674.251 185.428C673.333 185.965 672.241 186.234 670.975 186.234ZM670.949 184.206C672.041 184.206 672.917 183.816 673.575 183.036C674.234 182.256 674.563 181.129 674.563 179.656C674.563 178.165 674.234 177.039 673.575 176.276C672.917 175.513 672.041 175.132 670.949 175.132C669.875 175.132 669.008 175.513 668.349 176.276C667.691 177.039 667.361 178.165 667.361 179.656C667.361 181.129 667.691 182.256 668.349 183.036C669.008 183.816 669.875 184.206 670.949 184.206ZM684.22 186.234C683.336 186.234 682.539 186.061 681.828 185.714C681.135 185.367 680.589 184.899 680.19 184.31C679.792 183.721 679.592 183.053 679.592 182.308C679.592 181.372 679.826 180.635 680.294 180.098C680.78 179.543 681.568 179.153 682.66 178.928C683.77 178.685 685.26 178.564 687.132 178.564H688.354V180.176H687.158C686.222 180.176 685.434 180.211 684.792 180.28C684.151 180.349 683.64 180.462 683.258 180.618C682.877 180.757 682.6 180.956 682.426 181.216C682.27 181.476 682.192 181.788 682.192 182.152C682.192 182.811 682.418 183.348 682.868 183.764C683.319 184.163 683.943 184.362 684.74 184.362C685.382 184.362 685.945 184.215 686.43 183.92C686.916 183.608 687.297 183.192 687.574 182.672C687.869 182.152 688.016 181.554 688.016 180.878V177.888C688.016 176.9 687.808 176.189 687.392 175.756C686.976 175.323 686.292 175.106 685.338 175.106C684.61 175.106 683.882 175.219 683.154 175.444C682.426 175.652 681.681 175.99 680.918 176.458L680.112 174.612C680.563 174.3 681.083 174.031 681.672 173.806C682.262 173.581 682.877 173.407 683.518 173.286C684.177 173.147 684.81 173.078 685.416 173.078C686.578 173.078 687.531 173.26 688.276 173.624C689.039 173.988 689.602 174.543 689.966 175.288C690.33 176.033 690.512 176.995 690.512 178.174V186H688.042V183.166H688.276C688.138 183.807 687.878 184.362 687.496 184.83C687.132 185.281 686.673 185.627 686.118 185.87C685.564 186.113 684.931 186.234 684.22 186.234ZM698.965 186.234C697.856 186.234 696.877 185.974 696.027 185.454C695.195 184.917 694.545 184.154 694.077 183.166C693.609 182.161 693.375 180.991 693.375 179.656C693.375 178.287 693.609 177.117 694.077 176.146C694.545 175.175 695.195 174.421 696.027 173.884C696.877 173.347 697.856 173.078 698.965 173.078C700.075 173.078 701.028 173.355 701.825 173.91C702.64 174.447 703.186 175.175 703.463 176.094H703.177V167.67H705.803V186H703.229V183.14H703.489C703.212 184.076 702.666 184.83 701.851 185.402C701.054 185.957 700.092 186.234 698.965 186.234ZM699.641 184.206C700.716 184.206 701.583 183.816 702.241 183.036C702.9 182.256 703.229 181.129 703.229 179.656C703.229 178.165 702.9 177.039 702.241 176.276C701.583 175.513 700.716 175.132 699.641 175.132C698.549 175.132 697.674 175.513 697.015 176.276C696.357 177.039 696.027 178.165 696.027 179.656C696.027 181.129 696.357 182.256 697.015 183.036C697.674 183.816 698.549 184.206 699.641 184.206ZM716.607 186V167.67H724.251C726.157 167.67 727.631 168.095 728.671 168.944C729.728 169.776 730.257 170.946 730.257 172.454C730.257 173.563 729.927 174.499 729.269 175.262C728.61 176.025 727.717 176.536 726.591 176.796V176.406C727.44 176.527 728.168 176.787 728.775 177.186C729.399 177.567 729.875 178.079 730.205 178.72C730.534 179.344 730.699 180.081 730.699 180.93C730.699 182.005 730.456 182.923 729.971 183.686C729.485 184.449 728.783 185.029 727.865 185.428C726.946 185.809 725.845 186 724.563 186H716.607ZM719.207 183.92H724.251C724.771 183.92 725.23 183.885 725.629 183.816C726.045 183.729 726.4 183.608 726.695 183.452C727.007 183.279 727.267 183.071 727.475 182.828C727.683 182.568 727.83 182.273 727.917 181.944C728.021 181.615 728.073 181.242 728.073 180.826C728.073 180.41 728.021 180.037 727.917 179.708C727.83 179.379 727.683 179.093 727.475 178.85C727.267 178.607 727.007 178.408 726.695 178.252C726.4 178.079 726.045 177.957 725.629 177.888C725.23 177.801 724.771 177.758 724.251 177.758H719.207V183.92ZM719.207 175.678H723.835C725.083 175.678 726.027 175.427 726.669 174.924C727.31 174.421 727.631 173.685 727.631 172.714C727.631 171.743 727.31 171.007 726.669 170.504C726.027 170.001 725.083 169.75 723.835 169.75H719.207V175.678ZM738.099 186.234C737.215 186.234 736.418 186.061 735.707 185.714C735.014 185.367 734.468 184.899 734.069 184.31C733.671 183.721 733.471 183.053 733.471 182.308C733.471 181.372 733.705 180.635 734.173 180.098C734.659 179.543 735.447 179.153 736.539 178.928C737.649 178.685 739.139 178.564 741.011 178.564H742.233V180.176H741.037C740.101 180.176 739.313 180.211 738.671 180.28C738.03 180.349 737.519 180.462 737.137 180.618C736.756 180.757 736.479 180.956 736.305 181.216C736.149 181.476 736.071 181.788 736.071 182.152C736.071 182.811 736.297 183.348 736.747 183.764C737.198 184.163 737.822 184.362 738.619 184.362C739.261 184.362 739.824 184.215 740.309 183.92C740.795 183.608 741.176 183.192 741.453 182.672C741.748 182.152 741.895 181.554 741.895 180.878V177.888C741.895 176.9 741.687 176.189 741.271 175.756C740.855 175.323 740.171 175.106 739.217 175.106C738.489 175.106 737.761 175.219 737.033 175.444C736.305 175.652 735.56 175.99 734.797 176.458L733.991 174.612C734.442 174.3 734.962 174.031 735.551 173.806C736.141 173.581 736.756 173.407 737.397 173.286C738.056 173.147 738.689 173.078 739.295 173.078C740.457 173.078 741.41 173.26 742.155 173.624C742.918 173.988 743.481 174.543 743.845 175.288C744.209 176.033 744.391 176.995 744.391 178.174V186H741.921V183.166H742.155C742.017 183.807 741.757 184.362 741.375 184.83C741.011 185.281 740.552 185.627 739.997 185.87C739.443 186.113 738.81 186.234 738.099 186.234ZM752.142 186.234C750.755 186.234 749.715 185.844 749.022 185.064C748.346 184.267 748.008 183.123 748.008 181.632V167.67H750.634V181.476C750.634 182.031 750.712 182.507 750.868 182.906C751.024 183.287 751.258 183.573 751.57 183.764C751.882 183.955 752.272 184.05 752.74 184.05C752.948 184.05 753.147 184.041 753.338 184.024C753.529 184.007 753.711 183.972 753.884 183.92L753.832 186.026C753.537 186.095 753.251 186.147 752.974 186.182C752.697 186.217 752.419 186.234 752.142 186.234ZM760.011 186.234C759.127 186.234 758.33 186.061 757.619 185.714C756.926 185.367 756.38 184.899 755.981 184.31C755.583 183.721 755.383 183.053 755.383 182.308C755.383 181.372 755.617 180.635 756.085 180.098C756.571 179.543 757.359 179.153 758.451 178.928C759.561 178.685 761.051 178.564 762.923 178.564H764.145V180.176H762.949C762.013 180.176 761.225 180.211 760.583 180.28C759.942 180.349 759.431 180.462 759.049 180.618C758.668 180.757 758.391 180.956 758.217 181.216C758.061 181.476 757.983 181.788 757.983 182.152C757.983 182.811 758.209 183.348 758.659 183.764C759.11 184.163 759.734 184.362 760.531 184.362C761.173 184.362 761.736 184.215 762.221 183.92C762.707 183.608 763.088 183.192 763.365 182.672C763.66 182.152 763.807 181.554 763.807 180.878V177.888C763.807 176.9 763.599 176.189 763.183 175.756C762.767 175.323 762.083 175.106 761.129 175.106C760.401 175.106 759.673 175.219 758.945 175.444C758.217 175.652 757.472 175.99 756.709 176.458L755.903 174.612C756.354 174.3 756.874 174.031 757.463 173.806C758.053 173.581 758.668 173.407 759.309 173.286C759.968 173.147 760.601 173.078 761.207 173.078C762.369 173.078 763.322 173.26 764.067 173.624C764.83 173.988 765.393 174.543 765.757 175.288C766.121 176.033 766.303 176.995 766.303 178.174V186H763.833V183.166H764.067C763.929 183.807 763.669 184.362 763.287 184.83C762.923 185.281 762.464 185.627 761.909 185.87C761.355 186.113 760.722 186.234 760.011 186.234ZM769.92 186V173.312H772.468V176.016H772.182C772.564 175.045 773.162 174.317 773.976 173.832C774.791 173.329 775.727 173.078 776.784 173.078C777.79 173.078 778.622 173.269 779.28 173.65C779.956 174.014 780.459 174.577 780.788 175.34C781.118 176.085 781.282 177.03 781.282 178.174V186H778.656V178.33C778.656 177.602 778.561 177.013 778.37 176.562C778.18 176.094 777.894 175.747 777.512 175.522C777.131 175.297 776.637 175.184 776.03 175.184C775.337 175.184 774.722 175.331 774.184 175.626C773.664 175.921 773.257 176.345 772.962 176.9C772.685 177.455 772.546 178.096 772.546 178.824V186H769.92ZM790.491 186.234C789.191 186.234 788.064 185.965 787.111 185.428C786.175 184.873 785.447 184.102 784.927 183.114C784.407 182.109 784.147 180.93 784.147 179.578C784.147 178.243 784.407 177.091 784.927 176.12C785.447 175.149 786.175 174.404 787.111 173.884C788.064 173.347 789.191 173.078 790.491 173.078C791.288 173.078 792.077 173.217 792.857 173.494C793.637 173.754 794.278 174.135 794.781 174.638L793.949 176.484C793.481 176.033 792.952 175.704 792.363 175.496C791.773 175.271 791.219 175.158 790.699 175.158C789.468 175.158 788.515 175.548 787.839 176.328C787.18 177.091 786.851 178.183 786.851 179.604C786.851 181.025 787.18 182.143 787.839 182.958C788.515 183.755 789.468 184.154 790.699 184.154C791.219 184.154 791.773 184.05 792.363 183.842C792.952 183.617 793.481 183.279 793.949 182.828L794.781 184.7C794.278 185.168 793.628 185.541 792.831 185.818C792.051 186.095 791.271 186.234 790.491 186.234ZM802.738 186.234C801.351 186.234 800.155 185.974 799.15 185.454C798.162 184.917 797.39 184.163 796.836 183.192C796.298 182.204 796.03 181.034 796.03 179.682C796.03 178.365 796.298 177.212 796.836 176.224C797.373 175.236 798.11 174.465 799.046 173.91C799.982 173.355 801.048 173.078 802.244 173.078C803.422 173.078 804.428 173.338 805.26 173.858C806.109 174.361 806.759 175.08 807.21 176.016C807.66 176.952 807.886 178.07 807.886 179.37V180.254H798.11V178.642H806.118L805.676 179.006C805.676 177.706 805.39 176.701 804.818 175.99C804.246 175.279 803.422 174.924 802.348 174.924C801.533 174.924 800.84 175.115 800.268 175.496C799.713 175.877 799.288 176.406 798.994 177.082C798.699 177.758 798.552 178.547 798.552 179.448V179.604C798.552 180.609 798.708 181.459 799.02 182.152C799.349 182.828 799.826 183.339 800.45 183.686C801.074 184.033 801.845 184.206 802.764 184.206C803.492 184.206 804.202 184.093 804.896 183.868C805.606 183.625 806.274 183.253 806.898 182.75L807.678 184.57C807.106 185.09 806.369 185.497 805.468 185.792C804.566 186.087 803.656 186.234 802.738 186.234ZM810.748 186V173.312H813.296V176.354H813.036C813.314 175.314 813.808 174.525 814.518 173.988C815.246 173.451 816.208 173.139 817.404 173.052L818.262 173L818.444 175.236L816.858 175.392C815.732 175.496 814.874 175.851 814.284 176.458C813.695 177.065 813.4 177.897 813.4 178.954V186H810.748Z" fill="white"/>
<defs>
<radialGradient id="paint0_radial_409_2681" cx="0" cy="0" r="1" gradientUnits="userSpaceOnUse" gradientTransform="translate(-154 -73.5) rotate(24.7408) scale(583.015 353.671)">
<stop offset="0.0995467" stop-color="#B0E07F"/>
<stop offset="0.370769" stop-color="#94DEE0"/>
<stop offset="0.567519" stop-color="#5DA4EF"/>
<stop offset="0.859602" stop-color="#591BBF"/>
</radialGradient>
<linearGradient id="paint1_linear_409_2681" x1="536" y1="313" x2="623.757" y2="408.79" gradientUnits="userSpaceOnUse">
<stop stop-color="#0185FF"/>
<stop offset="1" stop-color="#01CDFF"/>
</linearGradient>
<linearGradient id="paint2_linear_409_2681" x1="668" y1="313" x2="755.757" y2="408.79" gradientUnits="userSpaceOnUse">
<stop stop-color="#0185FF"/>
<stop offset="1" stop-color="#01CDFF"/>
</linearGradient>
<linearGradient id="paint3_linear_409_2681" x1="800" y1="313" x2="887.757" y2="408.79" gradientUnits="userSpaceOnUse">
<stop stop-color="#0185FF"/>
<stop offset="1" stop-color="#01CDFF"/>
</linearGradient>
<linearGradient id="paint4_linear_409_2681" x1="552" y1="434" x2="637.777" y2="502.021" gradientUnits="userSpaceOnUse">
<stop stop-color="#0185FF"/>
<stop offset="1" stop-color="#01CDFF"/>
</linearGradient>
<linearGradient id="paint5_linear_409_2681" x1="816" y1="434" x2="901.777" y2="502.021" gradientUnits="userSpaceOnUse">
<stop stop-color="#0185FF"/>
<stop offset="1" stop-color="#01CDFF"/>
</linearGradient>
<linearGradient id="paint6_linear_409_2681" x1="932" y1="313" x2="1019.76" y2="408.79" gradientUnits="userSpaceOnUse">
<stop stop-color="#0185FF"/>
<stop offset="1" stop-color="#01CDFF"/>
</linearGradient>
<radialGradient id="paint7_radial_409_2681" cx="0" cy="0" r="1" gradientUnits="userSpaceOnUse" gradientTransform="translate(-182.49 -91.5) rotate(20.4194) scale(474.268 192.357)">
<stop offset="0.057461" stop-color="#B0E07F"/>
<stop offset="0.358954" stop-color="#94DEE0"/>
<stop offset="0.567519" stop-color="#5DA4EF"/>
<stop offset="0.8845" stop-color="#591BBF"/>
</radialGradient>
</defs>
</svg>
