<?xml version="1.0" encoding="utf-8"?>
<!-- Generator: Adobe Illustrator 19.0.0, SVG Export Plug-In . SVG Version: 6.00 Build 0)  -->
<svg version="1.1" id="Logo" xmlns="http://www.w3.org/2000/svg" xmlns:xlink="http://www.w3.org/1999/xlink" x="0px" y="0px"
	 viewBox="0 0 500 500" style="enable-background:new 0 0 500 500;" xml:space="preserve">
<style type="text/css">
	.st0{fill:#3D3935;}
	.st1{fill:#007FA3;}
	.st2{fill:#FFFFFF;}
</style>
<g id="XMLID_15_">
	<path id="XMLID_19_" class="st0" d="M230.5,374.3c-0.2-0.5-0.8-0.8-1.3-0.7l-0.2,0c-1.6,0.3-2.8,0.3-3.7-0.3
		c-1.2-0.8-1.8-2.7-1.8-5.7v-27.3c0-10.7-6.4-16.1-18.9-16.1c-11.2,0-20.1,5.3-20.1,12.1c0,3.5,2.1,6,5.3,6.4c2.1,0.2,4-0.7,5.4-2.2
		c2.8-2.9,2.4-6.4-0.9-10.1c2-2.1,5.5-3.3,9.5-3.3c6.5,0,9.3,3.9,9.3,12.9v6.9c-1.5,0.5-3,0.9-5.6,1.5c-5.3,1.2-12.5,2.9-18,5.9
		c-4.5,2.5-6.8,6.4-6.8,11.6c0,5.7,3.7,12.3,14.3,12.3c5.9,0,11.2-2.8,16.6-8.8c0.5,6.2,2.8,8.6,8.6,8.6c2.8,0,5-0.6,7.6-1.9
		C230.5,375.9,230.8,375.1,230.5,374.3z M213.1,366c-1.3,1.8-5.5,7.1-10.7,7.1c-7,0-8.5-4.9-8.5-9.1c0-6.8,5.2-10,19.2-13.4V366z"/>
	<path id="XMLID_22_" class="st0" d="M348.1,378.6c-14.9,0-26.2-11.7-26.2-27.2c0-15.2,11.7-27.5,26.2-27.5
		c14.6,0,26.1,11.9,26.1,27.1C374.2,368,360.6,378.6,348.1,378.6z M347.5,326.8c-6.4,0-13.8,2.8-13.8,24.4
		c0,16.5,4.9,24.5,14.9,24.5c9.6,0,13.8-7.6,13.8-24.5C362.4,334.8,357.5,326.8,347.5,326.8z"/>
	<path id="XMLID_25_" class="st0" d="M117.4,324.8c0,12.6-3.1,19.5-19,19.5H90v-38h8.7C115.2,306.3,117.4,315.7,117.4,324.8z
		 M90,367.6v-19.8h7.6c11.4,0,20-2.4,25.7-7.1c5.9-5,7.2-11.2,7.2-15.6c0-18.1-17.4-21.9-32.1-21.9l0.1,0H68.8
		c-0.7,0-1.2,0.5-1.2,1.2v0.1l0,0c0,0.6,0.4,1.2,1,1.4c2.6,1,9.8-0.4,9.8,7.3l0,54.4c0,4-1.8,6.8-9.8,7.5c-0.6,0.1-1.1,0.6-1.1,1.2
		v0.2c0,0.7,0.5,1.2,1.2,1.2h31.7c0.7,0,1.2-0.5,1.2-1.2v-0.2c0-0.6-0.5-1.2-1.1-1.2C91.8,374.4,90,371.7,90,367.6l0-19.7"/>
	<path id="XMLID_28_" class="st0" d="M154.5,323.8c-13.8,0-25,12.5-25,27.9c0,15.5,10.5,26.8,25,26.8c12.2,0,18.1-7.3,21.5-12.8
		c0.3-0.5,0.2-1.3-0.3-1.6l-0.2-0.1c-0.5-0.4-1.3-0.3-1.7,0.2c-4.5,5.6-8.4,8.9-15.2,8.9c-8.6,0-17.7-5.9-17.7-22.5v-0.1
		c0-0.7,0-1.7,0-2.7h35c0.1,0,0.2-0.1,0.2-0.2l0-0.3c0.5-6.8-1.4-12.9-5.4-17.2C167,326.1,161.3,323.8,154.5,323.8z M141.2,344.4
		c1.2-11.3,5.6-17.5,12.5-17.5c3.5,0,6.1,1,7.9,2.9c2.5,2.7,3.6,7.6,3.1,14.6L141.2,344.4z"/>
	<path id="XMLID_29_" class="st0" d="M299.8,345L299.8,345c-9.6-2.7-13.3-5.4-13.3-9.7c0-4.9,3.9-8.4,9.2-8.4c6.3,0,9,3,15.6,14.1
		l0.1,0.1l0.2,0.1h0.9c0.7,0,1.2-0.5,1.2-1.2v-16c0-0.1-0.1-0.2-0.2-0.2h-1.2c-0.4,0-0.7,0.2-0.9,0.4l-2.1,2.6c-2.7-1.5-7-3-11.4-3
		c-11,0-18.7,6.8-18.7,16.5c0,9.1,6.1,12.6,16.5,15.4c10.2,2.8,13.8,5.7,13.8,11.1c0,6-5.8,8.7-9.9,8.7c-7.7,0-10.9-2.8-18.2-16
		l-0.1-0.2l-0.2-0.1h-0.9c-0.7,0-1.2,0.5-1.2,1.2v17.9c0,0.1,0.1,0.2,0.2,0.2h1.2c0.3,0,0.6-0.1,0.9-0.4l3.4-3.4
		c3.9,2.4,9.8,3.7,13.6,3.7c5.7,0,10.4-1.8,13.6-5.2c2.8-3.1,4.4-7.4,4.4-12.2C316.2,352.7,311.8,348.4,299.8,345z"/>
	<path id="XMLID_30_" class="st0" d="M241.8,371.3c0,2.8-0.7,3.7-5.1,3.9c-0.6,0-1.1,0.6-1.1,1.2c0,0.7,0.5,1.2,1.2,1.2h21.7
		c0.7,0,1.2-0.5,1.2-1.2c0-0.7-0.5-1.2-1.2-1.2c-5-0.2-6.3-1.1-6.3-4l0-31.8c3.6-5.9,6.1-9,10.5-10c-0.2,0.7-0.3,1.7-0.3,2.4
		c0,3.9,2.7,6.6,6.6,6.6c3.8,0,6.4-2.7,6.4-6.6c0-3.7-2.3-7.9-8.7-7.9c-5.3,0-10.3,3-14.6,10.3v-8.2c0-0.8-0.7-1.5-1.5-1.5
		l-13.7,0.4c-0.7,0-1.2,0.6-1.2,1.2v0.2c0,0.6,0.4,1.1,1,1.2c4.6,0.6,5.2,2.8,5.2,5.1L241.8,371.3z"/>
	<path id="XMLID_31_" class="st0" d="M391.8,324.5c0.3,0,0.6,0.1,0.8,0.3c0.2,0.2,0.4,0.5,0.4,0.9l0,9.1c0,0,4.5-10.6,18.9-10.6h0.1
		c9,0,14.2,5.7,14.2,15.8v31.3c0,2.8,0.7,3.7,5.1,3.9c0.6,0,1.1,0.6,1.1,1.2c0,0.7-0.5,1.2-1.2,1.2h-19.5c-0.7,0-1.2-0.5-1.2-1.2
		c0-0.7,0.5-1.2,1.1-1.2c3.5-0.3,4.1-1.2,4.1-3.9V343c0-9.3-2.7-13-9.5-13c-4.6,0-8.4,4-10.7,7.4c0,0-1.2,1.5-2.5,4.3l0.1,29.5
		c0,2.7,0.6,3.6,4,3.9c0.6,0.1,1.1,0.6,1.1,1.2c0,0.7-0.5,1.2-1.2,1.2h-19.4c-0.7,0-1.2-0.5-1.2-1.2c0-0.6,0.5-1.2,1.1-1.2
		c4.4-0.3,5.1-1.2,5.1-3.9v-38.7c0-2.3-0.6-4.4-5.2-5.1c-0.6-0.1-1-0.6-1-1.2v-0.2c0-0.7,0.5-1.2,1.2-1.2L391.8,324.5z"/>
	<path id="XMLID_32_" class="st1" d="M291.2,131.9c34.3,19.6,42.3,63.4,18.4,107.8c-21,39-66.9,55.7-101,35.8
		c-34.2-19.9-40.8-75.3-26.2-107.2C203.8,122,253.2,110.2,291.2,131.9"/>
	<path id="XMLID_35_" class="st2" d="M290.4,165.5c6.7,7.2,8.8,18.1,7.6,27c-1.3,10.2-7.5,19.6-17.8,25.9c-8.1,5-18.8,6.9-29.4,7
		c-0.1,1.7-0.4,7.4-0.6,8.3c-0.2,1.3-0.7,2.1-1.3,2.8c-1.1,1.5-3.1,2.4-5,3c-1.5,0.4-3.1,0.6-4.2,0.6c-0.2,0-0.4,0-0.5,0
		c-1.1-0.1-2.4-0.7-3.2-1.5c-0.8-0.9-1.2-2-1.3-3.2l-0.1-1.1c-0.2-1-1.4-50.5-1.2-49.6c0.2-5.9,9.8-7,14.9-5.9
		c5.2,1,3.9,7.4,3.7,15.2c0,0-0.2,10.2-0.7,21c6.6-0.3,11.9-2.1,16.8-4.6c10-4.9,15.2-12.5,15.2-23.6S272.6,163,252.6,163
		c-20,0-28.6,5-38.3,13.1c-2.2,1.8-3.9,3.6-5.5,4.8c-1.6,1.2-5.8,1.4-7-1.4c-1.4-3.4,1.2-7.2,2.7-9c2.4-2.9,8.2-8.6,14.6-12
		c7.4-3.8,16.4-8,28.9-8.3C259.4,149.9,277.4,150.8,290.4,165.5 M247,247.5c-1-0.8-2.2-1.4-3.4-1.6c-0.4-0.1-0.8-0.1-1.2-0.1
		c-2.2,0-4.4,1.2-5.9,3.3c-1.2,1.7-1.7,3.8-1.4,5.8c0.2,1.3,0.7,2.4,1.4,3.2c0.8,0.9,2,1.6,3.5,2.1c0.9,0.2,1.7,0.4,2.6,0.4h0
		c1.9,0,3.7-0.6,5-1.7c1.6-1.3,2.4-3.1,2.4-5.1C250,251.3,248.9,249,247,247.5"/>
</g>
</svg>
