<svg xmlns="http://www.w3.org/2000/svg" viewBox="0 0 450 450"><defs><style>.cls-1{fill:#0fd15d;}.cls-2{fill:#232323;}</style></defs><title>DaoCloud_logo</title><g id="Layer_9" data-name="Layer 9"><polygon class="cls-1" points="225 105.24 279.4 78.41 224.75 54.57 170.11 78.17 225 105.24"/><polygon class="cls-1" points="169.11 178.76 166.38 134.55 206.12 114.68 149.99 86.86 113.72 102.76 118.44 145.23 169.11 178.76"/><polygon class="cls-1" points="331.06 144.98 336.28 102.76 299.52 86.86 243.88 114.68 284.12 134.55 280.89 178.76 331.06 144.98"/><polygon class="cls-1" points="279.4 199.88 275.42 257.5 321.62 222.73 328.58 166.84 279.4 199.88"/><polygon class="cls-1" points="170.35 199.88 121.17 166.84 127.63 222.98 174.08 257.5 170.35 199.88"/><polygon class="cls-1" points="262.01 211.55 225.25 236.39 187.99 211.55 191.72 270.67 225 295.51 257.79 270.67 262.01 211.55"/></g><g id="Layer_3" data-name="Layer 3"><path class="cls-2" d="M50.54,405.08V339.86H74.48c13.33,0,21.62,8.2,21.62,21.25v22.73c0,13-8.29,21.24-21.62,21.24ZM63,394H74.48c5.87,0,9-3.82,9-11.27v-20.5c0-7.45-3.17-11.27-9-11.27H63Z"/><path class="cls-2" d="M154.15,375.36c0-12.2,7.74-19.66,20.31-19.66s20.22,7.46,20.22,19.66v11C194.77,398.56,187,406,174.46,406s-20.31-7.45-20.31-19.66Zm11.93,10c0,6.8,3,10.34,8.38,10.34s8.3-3.54,8.3-10.34v-8.95c0-6.8-3-10.34-8.3-10.34s-8.29,3.54-8.29,10.34Z"/><path class="cls-2" d="M144.32,405.08H134.07l-.67-4.65c-2.84,3.22-8.05,5.6-13.76,5.6-9.3,0-16.23-6.63-16.23-14.55,0-20.6,28.5-20.76,28.5-20.76,0-1.59-2.26-6.46-12.52-6.46a30.26,30.26,0,0,0-8.86,1.63l-2.32-6.4a39.34,39.34,0,0,1,16.12-3.8c12.62,0,20,5.27,20,17.31Zm-22.18-8.41a12.57,12.57,0,0,0,10-5.55l.05-13.21c-1.94,0-16.61,1.26-16.61,12.41A6.14,6.14,0,0,0,122.14,396.67Z"/><path class="cls-2" d="M226.32,406.36c-12.94,0-22.38-8.16-22.38-21V360.51c0-12.84,9.44-20.91,22.38-20.91,8.16,0,13,2.29,18.52,6.14l-4.77,8.62c-4.67-2.57-7.7-4-13.75-4s-10,4.31-10,11.28v22.65c0,7.25,4,11.28,10,11.28s9.08-1.47,13.75-4l4.77,8.71C239.34,404.07,234.48,406.36,226.32,406.36Z"/><path class="cls-2" d="M252.73,405.08V336.29h11.74v68.79Z"/><path class="cls-2" d="M274.74,375.82c0-12,7.62-19.35,20-19.35s19.9,7.34,19.9,19.35v10.82c.09,12-7.61,19.36-19.9,19.36s-20-7.34-20-19.36Zm11.74,9.82c0,6.69,2.94,10.18,8.26,10.18s8.16-3.49,8.16-10.18v-8.81c0-6.69-2.93-10.18-8.16-10.18s-8.17,3.49-8.17,10.18Z"/><path class="cls-2" d="M339.22,406c-10.91,0-14.49-6.61-14.49-18.71v-29.9h11.74v28.8c0,6.78,1.38,9.72,6,9.72a10.28,10.28,0,0,0,8.9-5.41V357.39h11.83v47.69H352.89l-.92-4.49C348.58,403.7,343.72,406,339.22,406Z"/><path class="cls-2" d="M402.78,401a18.88,18.88,0,0,1-12.93,5c-10.73,0-16.32-7.34-16.32-19.36V375c0-12.11,5.41-18.53,16-18.53a28.87,28.87,0,0,1,11.65,2.2V336.29H413v68.79h-9.63Zm-1.65-32.28a20.7,20.7,0,0,0-9-1.83c-4.49,0-7,2.75-7,9v9.73c0,6.69,1.84,10.18,7.16,10.18,4.12,0,7.15-1.84,8.8-4.86Z"/></g></svg>