<svg id="Layer_1" data-name="Layer 1" xmlns="http://www.w3.org/2000/svg" viewBox="0 0 215 127"><defs><style>.cls-1{fill:#fbfbfb;}.cls-2{fill:#3467ae;}.cls-3{fill:#3960a9;}.cls-4{fill:#2d73b8;}.cls-5{fill:#3764ab;}.cls-6{fill:#316db2;}.cls-7{fill:#4e5254;}.cls-8{fill:#1f2e60;}.cls-9{fill:#233a6f;}.cls-10{fill:#154e8b;}.cls-11{fill:#fdca06;}.cls-12{fill:#c59f0a;}.cls-13{fill:#f9f9fa;}.cls-14{fill:#181c2c;}.cls-15{fill:#fefefe;}.cls-16{fill:#161a2b;}.cls-17{fill:#d62b2e;}</style></defs><title>kubernetes.io-logos2</title><rect class="cls-1" x="-3.35417" y="-4.36563" width="223.25536" height="134.51136"/><path class="cls-2" d="M112.00306,54.10337c-.00235,3.12628-.00073,6.25257-.014,9.3788-.00117.27695.13581.59984-.15712.82931a41.2569,41.2569,0,0,0-4.94151-2.55493C101.33374,59.065,95.75631,56.4162,90.1868,53.751a1.78246,1.78246,0,0,0-2.39368-1.18252.90557.90557,0,0,1-.59577-.29192,16.64173,16.64173,0,0,1,.15464-3.30115c.16138.05986.329.10681.48321.18144q6.23274,3.01677,12.46393,6.03663c2.34521,1.13161,4.70057,2.24219,7.05136,3.36225a4.18228,4.18228,0,0,0,1.48435.68623c0-2.13738-.00837-4.22536.00749-6.31316.00295-.38864-.14156-.487-.50922-.53817-4.72113-.65674-8.5893-2.70545-11.1336-6.88356a.85918.85918,0,0,0-.44078-.38029q-4.77215-1.80549-9.54319-3.61384c.05894-.29244.31074-.43766.49562-.62786q4.24063-4.36266,8.49014-8.71671a13.34222,13.34222,0,0,1,1.0129-.979c.45221-.3577.38708-.58609-.02034-.95571-2.3498-2.13172-4.67241-4.29337-7.00423-6.44488-.0596-.3504-.21412-.43427-.45379-.13668a.98267.98267,0,0,0-.12886.76108.10352.10352,0,0,1-.05563.1c-.712.0364-.93834.34241-1.00291,1.35617l-.63613.8814c-.53475.08231-.768-.10546-.72286-.68342a13.0927,13.0927,0,0,0,.00135-1.84986c-.032-.49969.1879-1.03186-.15979-1.49819l.18893-.44224c.91055-.08294,1.22535-.63349.85873-1.50182l.15321-.29507c.77084-.13687.87168-.31938.5906-1.06895L88.841,19.037c.38668-.186.53254.18063.73238.35134q4.77961,4.083,9.542,8.18616c.18338.15735.33306.37794.61308.38647.06509.25276.19215.5572.46958.29544.398-.37551.92-.63023,1.18424-1.14341.16378-.21527.52117-.18923.61429-.4926.95885-.13882,1.65683-.85577,2.543-1.14918.71135-.23552.55321-.55.17421-.98879a12.86435,12.86435,0,0,1-1.54333-1.88973c-.00237-.28425.21927-.42786.37758-.61549,1.14868-1.36151,2.43829-2.59992,3.51726-4.02218a52.378,52.378,0,0,0,3.54491-3.87608,12.98141,12.98141,0,0,0,1.98645-2.35377,8.95027,8.95027,0,0,0,1.75985-1.84457c.35606-.44361.96018-.715,1.03806-1.36951l.01131.03306.16794-.13943c.301-.31849.42279-.01711.55432.17248,2.19463,3.16362,4.37727,6.3356,6.58509,9.49.35683.50981-.04356.57416-.32674.72182q-4.22662,2.204-8.45782,4.39915c-.28129.1463-.55833.30076-.98449.5309.86991.11307,1.58816.18986,2.30083.302a15.21858,15.21858,0,0,1,7.565,3.44214c.10876.09144.19862.23192.37658.19553.67243.78943,1.34255,1.58086,2.02,2.366.08852.1026.18446.28062.35049.1864a.47245.47245,0,0,0,.14937-.31558c.16179-1.09623.31341-2.194.468-3.29126a33.10088,33.10088,0,0,0,.73144-4.23714,26.13523,26.13523,0,0,1,3.475-.06649c1.53195-.0162,3.06441.01418,4.59666.02453l.00173,2.91112c-1.2572.00823-2.51438.02033-3.77159.02368-1.48626.004-1.48627.00069-1.58793,1.49275-.02658.09571-.06152.19-.07853.28734q-1.15881,6.63609-2.319,13.27194a.7788.7788,0,0,0,.32844.82994c.56289.44943,1.07783.95961,1.64757,1.39941.40671.314.45752.52609.049.90305-.91291.8424-1.77794,1.73664-2.66216,2.61009a1.18688,1.18688,0,0,0-.4486.65567c-.32533,1.93294-.67239,3.86221-1.01,5.79309-.04633.265-.04192.46288.3264.51971,2.13338.32914,4.26281.68367,6.39358,1.02961,1.222.35631,1.24022.35278,1.44765-.89049q.72168-4.32565,1.42675-8.65409c.42126.13812.2492.49507.25027.75677.01212,2.96648.00672,5.933.00909,8.89955.00026.33839-.07629.73.43781.78792a13.63635,13.63635,0,0,0-.2635,1.82956c-.01079.70139-.38395.7813-.9182.69844-2.41877-.37511-4.835-.76709-7.255-1.13362-1.85781-.28137-3.72-.53384-5.58025-.79916q.48609-3.09626.9737-6.202c-.10125,0-.15686-.01585-.19643.00261-.22493.105-.44588.21843-.66847.32844a29.08808,29.08808,0,0,1-7.95736,2.57628C111.96317,52.52833,111.95289,52.4691,112.00306,54.10337Zm5.02142-13.35911.00741-.01046c-.1245.01423-.238.04511-.28.18446l.00321-.00365a11.64741,11.64741,0,0,1-5.05106,1.193c.03738-.334.32424-.48683.524-.69416q4.13-4.286,8.27168-8.5608c.41666-.42193.81748-.86122,1.25542-1.25981.303-.27579.24552-.46871-.01307-.72771a12.90593,12.90593,0,0,0-1.59671-1.44781c-3.796-2.70676-7.94633-3.03664-12.30895-1.78223a12.394,12.394,0,0,0-5.74,3.26145l.00621-.00208-.16055.15082.0078-.00864a.27662.27662,0,0,0-.238.21031l-.014.01384-.12792.12347c-4.31044,4.27659-4.067,12.77556,2.2,16.26257a13.92222,13.92222,0,0,0,9.08488,1.49209,20.85068,20.85068,0,0,0,10.33072-4.35529c.41283-.35066.81528-.71457,1.2416-1.048.37761-.29531.40478-.5015.0015-.83774-1.2913-1.07668-2.54843-2.19443-3.81473-3.30091-1.15254-1.00707-1.15069-1.01021-2.2365-.00043-.19788.184-.39028.374-.58521.56118l-.58351.45265Zm-3.127-26.258c-.39573.44272-.79852.87935-1.18594,1.32921-1.60294,1.8613-3.18558,3.74039-4.811,5.58182-.47279.53563.04314.7738.20385,1.13438.16024.3595.38783.27358.66086.14119q4.14623-2.01037,8.29833-4.00869c.5375-.251,1.07254-.50749,1.61351-.75078.27966-.12577.3813-.24846.15409-.54236q-1.63731-2.11776-3.24154-4.261c-.20878-.27764-.362-.26478-.56692-.00284C114.65725,13.57444,114.27356,14.02738,113.89749,14.48628Zm-18.17,27.15549a15.7104,15.7104,0,0,1-.192-4.404L92.248,40.34843Zm29.39463-8.47629c-.70681.69083-1.33689,1.24995-1.90051,1.86947-1.15028,1.26435-1.13519,1.27734.14027,2.42466.1478.133.28748.27486.43345.40988.35472.32813.515.28041.59044-.23052C124.59836,36.19916,124.85523,34.76588,125.12209,33.16548Z"/><path class="cls-3" d="M50.02354,59.56036q.977,3.73476,1.95326,7.46969a4.40264,4.40264,0,0,1,.39845,1.78622c-.12851.58363-1.02711.39565-1.49614.74518a1.475,1.475,0,0,1-.26546.12658c-.08164-.07091-.116-.01918-.14182.05453l.014-.01248a3.21986,3.21986,0,0,0-.58594.06736c-1.82658.55225-3.6419,1.14328-5.47665,1.66644-1.42563.40649-2.8121.93724-4.26262,1.27137-.52129.12008-.64279-.0836-.80774-.4503-.53948-1.19934-1.083-2.39719-1.6481-3.58464-2.13074-4.4775-4.09259-9.03415-6.32037-13.46606a2.10009,2.10009,0,0,0-.30213-.833q-.68327-1.44062-1.3636-2.88261-.931-2.0141-1.86213-4.02817c-.59143-1.27885-1.16432-2.56672-1.78117-3.83321-.46328-.95119-.682-1.00462-1.60965-.54814a11.20219,11.20219,0,0,0-1.12705.56928c-.54741.35151-1.01221.42738-1.37638-.22671a5.80284,5.80284,0,0,0-.887-1.33665,1.168,1.168,0,0,0-.23279-.60837c-.48527-.7717-.9196-1.57638-1.42368-2.33507-.92329-1.38967-1.6443-2.90626-2.6718-4.22932a11.47021,11.47021,0,0,0-1.3501-2.23625,11.66223,11.66223,0,0,0-1.3894-2.26251,54.88977,54.88977,0,0,1,8.41833-4.73307,44.206,44.206,0,0,1,10.67882-3.36583c5.00132-.85861,10.01174-1.02778,14.86135.70827a15.50794,15.50794,0,0,1,8.518,6.87549,12.00922,12.00922,0,0,1,1.37829,8.405c-.03441.19155-.057.38524-.10183.69347a15.78567,15.78567,0,0,1,6.14735-2.5421l.00017,2.51038c-.16041.057-.31929.11895-.48148.17043a12.42184,12.42184,0,0,0-5.25379,3.00273l-.03316.02826-.21621.21418.00629-.00492-.17083.15351a12.14668,12.14668,0,0,0-3.62844,6.02886A9.06937,9.06937,0,0,0,59.176,59.52768a11.47846,11.47846,0,0,0,4.73221.79843c.138.98849-.36438,2.07392.44865,2.96024a20.03978,20.03978,0,0,1-3.17863-.10328,12.04287,12.04287,0,0,1-8.6162-5.5452,12.45725,12.45725,0,0,1-1.20093-2.8322,14.39982,14.39982,0,0,1-.436-4.76268c-.9323.73531-1.75854,1.38262-2.57863,2.03764-.1549.12373-.3076.27948-.23427.50525a23.84628,23.84628,0,0,0,.84429,2.96768A16.343,16.343,0,0,0,49.874,58.831Zm.60551-14.15342-.00409.00527a.28444.28444,0,0,0,.207-.24744l.01222-.00694a15.341,15.341,0,0,0,3.33744-5.831,9.32722,9.32722,0,0,0-.348-7.24631,12.05469,12.05469,0,0,0-6.91577-5.91629,22.89162,22.89162,0,0,0-10.59613-1A43.5403,43.5403,0,0,0,19.18511,31.06c-.42889.24711-.72759.462-.22733.91042,1.50661,2.48232,3.01976,4.96071,4.5126,7.45127.21805.36379.41324.39279.77249.20762.77163-.39773,1.59407-.70282,2.34322-1.13641.56788-.32868.764-.17152,1.01349.37125Q32.743,50.05536,37.92377,61.2295c1.12238,2.432,2.22049,4.87515,3.33871,7.30907.09916.21584.1215.50679.56213.35541,1.5848-.54445,3.191-1.02681,4.789-1.53264a11.74129,11.74129,0,0,1,1.14315-.31185c.583-.10075.66669-.35331.5117-.92043-1.38354-5.06291-2.73169-10.13547-4.09027-15.20519.87425-.60616,1.77514-1.1778,2.61666-1.82638a16.5824,16.5824,0,0,0,3.666-3.54639C50.57143,45.56653,50.615,45.50392,50.62905,45.40694Z"/><path class="cls-4" d="M157.24964,60.807q.27483,1.61347.5483,3.22717c.01993.11853.04837.24725-.08379.33094a10.9877,10.9877,0,0,1-2.58139-.443,5.35644,5.35644,0,0,1-.1537-1.02269c.01481-1.91223.01012-3.82465.004-5.737a1.92536,1.92536,0,0,1,.17462-.93881,10.09614,10.09614,0,0,0,5.65337.30958,12.601,12.601,0,0,0,6.00195-3.1606l.16677-.167-.04865-.00914.04756.01387c.05037-.05019.10077-.10039.1508-.1499.04766-.0529.09567-.1065.14369-.16009l-.03814-.00014.03771.00582a3.7225,3.7225,0,0,0,1.07162-1.12024,10.473,10.473,0,0,0,2.398-8.62147c-.92579-4.88559-5.39822-7.20208-9.77881-6.79807a13.10163,13.10163,0,0,0-5.65108,1.959,2.31667,2.31667,0,0,1-.32184-1.69933,1.58651,1.58651,0,0,0-.30134-1.17094,13.93053,13.93053,0,0,1,7.43521-1.8512,6.18178,6.18178,0,0,1,1.68464.13931,21.97951,21.97951,0,0,1,2.50642.523c.39844.28585.889.65279,1.30983.48321.44481-.17925.125-.7931.21173-1.20584a.35374.35374,0,0,0,.00013-.07327c-.09463-.25327-.31732-.26477-.53984-.30878-.67194-.13289-1.34-.28508-2.00966-.42974q-.00716-1.87489-.01414-3.7497-.012-1.11889-.02421-2.23795.012-1.57137.024-3.14273c1.80188.20179,3.547.69088,5.31529,1.06,3.69036.77025,7.37148,1.5851,11.06474,2.34091.55639.11386.80386.31628.88008.878.04668.344-.00849.76623.34436,1.02454a20.346,20.346,0,0,0,.69128,4.04584l.1885-.0064q.61308-2.551,1.22617-5.10206a26.45411,26.45411,0,0,1,3.98406.85129c3.31478.75726,6.6176,1.56693,9.93389,2.31729.57291.12963.711.27918.50976.86471Q192.615,51.64937,185.84362,71.432c-.06434.18744-.02056.47022-.30762.545a4.39752,4.39752,0,0,1-.58255-.10236c-1.76714-.5552-3.548-1.06564-5.31277-1.63046-1.38411-.443-2.78529-.87176-4.19847-1.23456a.70818.70818,0,0,1-.60616-.84525c.02612-.94408.00007-1.88958-.00231-2.8345-.00079-.30878.0032-.612-.41221-.66834-1.471-.19957-2.94077-.40818-4.41236-.60311-1.61906-.21448-3.24149-.40452-4.85838-.63393-.46905-.06656-.78166-.21895-.64719-.8882.24782-1.2333.34-2.49845.47938-3.75229.02322-.20882.1208-.49386-.0894-.62723-.24443-.1551-.46141.04847-.65315.20773a16.63113,16.63113,0,0,1-6.73912,1.07167c-.26234-.0191-.43837.06234-.41893.36668C157.10413,60.14326,157.02212,60.50083,157.24964,60.807Zm19.90143-14.71616c.054,2.3356.125,4.67095.15835,7.00685.06053,4.24636.32949,8.48983.2051,12.73778-.01912.65275.20717.90959.7997,1.02834.51389.103,1.00377.32829,1.51827.42495a22.67425,22.67425,0,0,0,2.90582.73159c.61661.34972.90469.20073,1.14137-.51346,1.41176-4.25983,2.88258-8.5001,4.33054-12.748q3.564-10.45568,7.13558-20.90874c.19261-.5609.14036-.75287-.48985-.87323-2.07092-.39555-4.12505-.87783-6.18979-1.30685-1.64951-.34274-1.65219-.32982-1.99831,1.3531-.23546.91178-.47927,1.82151-.70489,2.73572q-1.31815,5.34045-2.62692,10.68323c-.47219-.166-.32742-.62771-.39741-.943-1.12757-5.07858-2.22349-10.16417-3.33194-15.247-.08087-.37081-.09662-.73014-.65333-.8321-3.04762-.55814-6.08352-1.17962-9.12667-1.76255-1.68378-.32254-1.68663-.30775-1.65469,1.48719-.10989,1.186-.11007,1.18667,1.01094,1.46967a7.82353,7.82353,0,0,0,.79677.18573c.46732.0669.57892.31642.52728.76517-.1674,1.45457-.28669,2.91466-.45262,4.36942a1.15427,1.15427,0,0,0,.40053,1.03669,10.63353,10.63353,0,0,1,3.19768,7.39962c.12718,4.52447-1.79671,8.14664-5.03129,11.16988-.2291.21413-.51782.36624-.55151.75069-.117,1.335-.25915,2.66773-.39687,4.00081-.02969.28742.02513.44674.36915.49373,1.62185.22156,3.23956.47331,4.85875.71429,1.23864.30492,1.22608.30265,1.47682-1.08236q1.26457-6.98433,2.54948-13.965C176.95215,46.31661,176.84265,46.06462,177.15107,46.09084Z"/><path class="cls-5" d="M63.908,38.99513l-.00017-2.51038a15.7594,15.7594,0,0,1,4.61339-.18829,17.777,17.777,0,0,1,2.78779.7562c.48869.20511.55378-.02673.51769-.42919-.106-1.182-.2131-2.3639-.30544-3.547-.02874-.36826-.22658-.29035-.46087-.23261-.83948.20688-1.6819.40181-2.52325.60141a4.80444,4.80444,0,0,0-.14284-1.75631,23.80723,23.80723,0,0,0-.15621-3.74494l-.0352-1.49678a5.51218,5.51218,0,0,0-.27055-1.81113c1.83622-.73845,3.75576-1.219,5.63923-1.8102,3.66109-1.14911,7.33566-2.25551,10.99334-3.41519.62236-.19731.78639-.07763.727.55-.04886.51651-.01944,1.04041-.02477,1.561-.00006,1.37076-.00006,2.74158-.00006,4.27038L87.031,22.71928c.34769.46633.12779.9985.15979,1.49819a13.0927,13.0927,0,0,1-.00135,1.84986c-.04511.578.18811.76573.72286.68342L82.57456,34.096c-.17553-.0768-.147-.23959-.15612-.38215-.19465-3.045-.41057-6.089-.56381-9.13608-.03471-.69026-.2279-.749-.82968-.57-2.92275.86908-5.84761,1.735-8.79419,2.51753-.79247.21046-1.00509.5593-.82384,1.28035-.011.37236.00062.74713-.03873,1.11647-.05283.49571.13913.62142.59807.48984.54857-.15728,1.12018-.245,1.65466-.43788.60091-.2169.81309-.08106.863.57387.23581,3.09605.52343,6.18813.76651,9.28368a1.74172,1.74172,0,0,0,.52555,1.17447,10.09279,10.09279,0,0,1,2.18043,3.35165c1.6015,3.99707,1.04562,7.83-.9031,11.55324-.12421.23731-.33647.44283-.31078.74228.13583,1.58383.2771,3.16721.40706,4.75152.02448.29852.15068.36126.43581.31849,1.5208-.22812,3.04433-.438,4.56692-.65425q.48188-.03782.96376-.07572c.37484-.02987.55846-.18256.55464-.60874-.036-4.0175-.05212-8.03518-.074-12.0528.07677-.13439.18239-.1405.31064-.07636q1.72176.86109,3.44462,1.72a16.6397,16.6397,0,0,0-.15462,3.30107c-.38686-.13846-.63364-.14871-.6034.40883.0465.8573.01675,1.71873.01936,2.5784.0049,2.27238.01575,4.54479.00527,6.8171-.001.22067.195.57974-.26061.6378a14.61092,14.61092,0,0,0-2.42839.29274c-2.66877.37509-5.33942.73945-8.002,1.15511-1.43107.22341-1.53294.1755-1.568-1.327-.00174-.07452.00189-.14957-.00566-.2235-.12166-1.19166-.24475-2.38317-.37711-3.668-.412.32767-.75827.56275-1.05623.84824-.69793.66868-1.6477,1.00061-2.29182,1.73618l.01146-.0071a1.3282,1.3282,0,0,0-.43014.06392,16.21732,16.21732,0,0,1-5.85335,1.69712c-.813-.88632-.31061-1.97175-.44865-2.96024.24357-.045.4859-.09869.73091-.13351a12.82484,12.82484,0,0,0,7.17533-3.46441l.21866-.218.00867-.01.13622-.13581.01246-.01338.13521-.141.017-.00787a12.1066,12.1066,0,0,0,3.44295-6.06151,8.91157,8.91157,0,0,0-6.84749-11.22243A12.62712,12.62712,0,0,0,63.908,38.99513Z"/><path class="cls-6" d="M154.68935,35.455a1.58654,1.58654,0,0,1,.30134,1.17095,2.31647,2.31647,0,0,0,.32183,1.69926,9.80687,9.80687,0,0,0-1.58365,1.30488l-.034.031-.2108.21692.00588-.00483-.17212.15495a7.47387,7.47387,0,0,0-1.45641,1.58005,11.11846,11.11846,0,0,0-2.31373,6.246,8.4564,8.4564,0,0,0,5.61006,8.36945,1.92536,1.92536,0,0,0-.17462.93881c.00608,1.91234.01077,3.82476-.004,5.737a5.34989,5.34989,0,0,0,.15373,1.0225,5.66757,5.66757,0,0,1-.74457-.02937q-5.73927-.96858-11.47477-1.95921c-.26636-.04625-.58339-.07-.624-.50067-.12757-1.35238-.2673-2.70494-.4588-4.04939a7.58634,7.58634,0,0,0-.36156-2.09324l-2.11241,3.88408c-1.20172-2.13919-2.34788-4.17945-3.5971-6.40316l-.34164,2.18126c-.5141-.058-.43755-.44953-.43781-.78792-.00237-2.96652.003-5.93307-.00909-8.89955-.00107-.2617.171-.61865-.25027-.75677l.19587-1.037.43131-.183,3.99147,8.22889.55691,1.19989c1.03973-2.71,2.14774-5.17913,3.03237-7.7381l-.01006.00928.13178-.17425a.847.847,0,0,1,.13066.24241c.7036,4.48675,1.41541,8.97232,2.08479,13.4642.08459.56769.28593.80069.84149.87364,2.019.26511,4.03342.56581,6.04955.85308.4636.07611.92627.15884,1.39131.22472.16095.0228.33552.07006.38262-.2038a2.15729,2.15729,0,0,0-1.05606-2.04527,10.9428,10.9428,0,0,1-6.21067-9.81491,13.42546,13.42546,0,0,1,3.43927-9.21121,1.12094,1.12094,0,0,0,.31222-1.0599c-.21644-1.04336-.3432-2.10521-.50955-3.15905-.56094-3.5535-1.13011-7.10574-1.67785-10.66127-.08375-.54366-.25694-.7961-.88154-.76572-1.24052.06033-2.4862.00594-3.7295.02024-1.62749.01874-1.29208-.27711-1.57809,1.40157-.412,2.21629-.80644,4.436-1.24246,6.6476a28.8389,28.8389,0,0,1-.8723,4.19589q-.93731-5.06567-1.87085-10.132c-.06-.32781-.20846-.43983-.54845-.43237-.84142.01847-1.68382-.00729-2.52583-.01528l-.00173-2.91112,1.14831-.06589c.46967.00588.9393.01624,1.409.01685,1.62487.0021,1.62487.00081,1.62537-1.68156.18859-.17884.42415-.10562.639-.10592,3.40306-.00469,6.80624.01041,10.20909-.0172.538-.00436.71675.1584.79956.67568.77176,4.82121,1.57867,9.6368,2.34673,14.45858.09127.573.21451.69849.69665.32478A6.42178,6.42178,0,0,1,154.68935,35.455Z"/><path class="cls-7" d="M109.95141,103.08762a25.52591,25.52591,0,0,1-3.3512,6.42461c-5.64673,7.5981-13.20915,11.41584-22.67145,10.69518-11.13644-.84815-19.79288-8.31912-22.77331-19.12556C57.59388,88.16833,64.86459,74.167,77.38971,69.81934A25.36893,25.36893,0,0,1,106.91943,79.592c.34892.51078.27938.75755-.16017,1.14108-1.55535,1.35711-3.07077,2.75992-4.60049,4.14633-.25161.228-.499.46075-.88737.81992h1.25006c2.21471,0,4.42995-.02676,6.64377.01737.61149.01219.82746-.20276,1.04772-.74641,3.3948-8.37917,9.40583-13.88173,18.24562-15.962,11.54508-2.717,23.163,3.00154,28.51306,13.81615a26.224,26.224,0,0,1-11.01783,34.51626,25.42618,25.42618,0,0,1-35.59486-13.20684C110.23955,103.83471,110.125,103.53367,109.95141,103.08762Zm.00278-1.75468a34.488,34.488,0,0,0,1.68856,4.245,25.16487,25.16487,0,0,0,9.96357,10.78255,24.36549,24.36549,0,0,0,18.95458,2.48076,25.36335,25.36335,0,0,0,18.33556-26.9385,25.32077,25.32077,0,0,0-12.62708-19.69047,23.7079,23.7079,0,0,0-16.50821-2.87373c-8.28085,1.53832-14.26834,6.27367-18.10891,13.74271a38.44431,38.44431,0,0,0-1.73316,4.38151c-.04147-1.39358-.97806-1.18174-1.82036-1.178-2.41356.01064-4.82719.00374-7.2408.00374h-.88159a1.21581,1.21581,0,0,1,.49076-.64886c1.86224-1.715,3.71348-3.44286,5.61309-5.11576.42474-.37406.35644-.59594.08518-.96414a27.46336,27.46336,0,0,0-4.26413-4.65205,24.39525,24.39525,0,0,0-14.186-5.89917,23.47774,23.47774,0,0,0-9.752,1.23742A24.7441,24.7441,0,0,0,64.85188,80.6245,25.08056,25.08056,0,0,0,61.20375,98.288a24.79832,24.79832,0,0,0,8.6426,15.512,24.24932,24.24932,0,0,0,14.34137,5.88481,23.35369,23.35369,0,0,0,9.66979-1.28825,24.96128,24.96128,0,0,0,14.10219-12.24913A37.17735,37.17735,0,0,0,109.95419,101.33294Z"/><path class="cls-8" d="M31.3846,55.23409c2.22754,4.43207,4.18939,8.98872,6.32013,13.46622.56508,1.18745,1.10862,2.3853,1.6481,3.58464.165.3667.28645.57038.80774.4503,1.45052-.33413,2.837-.86488,4.26262-1.27137,1.83475-.52316,3.65007-1.11419,5.47665-1.66644a3.21986,3.21986,0,0,1,.58594-.06736,11.45224,11.45224,0,0,1-4.6076,2.12213q-4.84374,1.45468-9.66473,2.98412c-.54681.17393-.75991.07866-.99764-.44191-2.41951-5.298-4.87137-10.58123-7.30449-15.873a5.15115,5.15115,0,0,1-.61605-1.41119.78627.78627,0,0,1,.53783-.46783C29.02393,56.19035,30.156,55.59028,31.3846,55.23409Z"/><path class="cls-9" d="M135.41792,54.95224l.34164-2.18126c1.24922,2.22371,2.39538,4.264,3.5971,6.40316l2.11241-3.88408a7.58634,7.58634,0,0,1,.36156,2.09324c.1915,1.34445.33123,2.697.4588,4.04939.04063.43067.35766.45442.624.50067q5.73463.99554,11.47477,1.95921a5.66757,5.66757,0,0,0,.74457.02937,10.97768,10.97768,0,0,0,2.58136.44317c-.11529.46583-.59476.45844-.89486.68354a5.12755,5.12755,0,0,1-4.39915.72734c-4.188-.83159-8.41295-1.47822-12.62717-2.17437a.698.698,0,0,1-.70048-.73919c-.10272-1.08267-.26844-2.15938-.41944-3.32246-.70218.3723-1.36544.69809-2.0011,1.07088-.371.21756-.552.13467-.73846-.23045-.36088-.70672-.78557-1.38109-1.14117-2.09023-.19681-.39248-.41337-.43927-.74444-.19786a5.48184,5.48184,0,0,1-4.56195.77838c-3.63225-.69053-7.30177-1.18519-10.956-1.76a8.76648,8.76648,0,0,1,2.871-1.56322c1.86024.26532,3.72244.51779,5.58025.79916,2.42006.36653,4.83626.75851,7.255,1.13362.53425.08286.90741.00295.9182-.69844A13.63635,13.63635,0,0,1,135.41792,54.95224Z"/><path class="cls-9" d="M164.24043,58.36448c.19174-.15926.40872-.36283.65315-.20773.2102.13337.11262.41841.0894.62723-.13938,1.25384-.23156,2.519-.47938,3.75229-.13447.66925.17814.82164.64719.8882,1.61689.22941,3.23932.41945,4.85838.63393,1.47159.19493,2.94137.40354,4.41236.60311.41541.05636.41142.35956.41221.66834.00238.94492.02843,1.89042.00231,2.8345a.70818.70818,0,0,0,.60616.84525c1.41318.3628,2.81436.79159,4.19847,1.23456,1.76479.56482,3.54563,1.07526,5.31277,1.63046a4.39752,4.39752,0,0,0,.58255.10236,15.79447,15.79447,0,0,1-3.01155,1.70454c-.20988.11978-.38807-.03109-.56718-.08584-3.24966-.99352-6.49428-2.00351-9.74687-2.98722a.627.627,0,0,1-.521-.72985c.00709-.94367-.0721-1.88807-.06219-2.8316.00542-.51581-.12958-.71389-.68929-.78489-2.98147-.37822-5.95469-.82114-8.93319-1.22362-.51518-.06961-.74647-.17652-.64519-.8109.2385-1.49416.35837-3.00724.52622-4.51266a7.024,7.024,0,0,1,.63043-.33986C163.09877,59.054,163.80951,58.94239,164.24043,58.36448Z"/><path class="cls-9" d="M86.61333,55.26371c-.00261-.85967.02714-1.7211-.01936-2.5784-.03024-.55754.21654-.54729.6034-.40883a.905.905,0,0,0,.59579.292A21.07112,21.07112,0,0,0,90.1868,53.751c5.56951,2.6652,11.14694,5.314,16.70368,8.00555a41.2569,41.2569,0,0,1,4.94151,2.55493c-.81185.42925-1.63614.83729-2.43053,1.29695a1.03248,1.03248,0,0,1-1.09419.00617Q97.94443,60.62221,87.56561,55.663C87.25556,55.51452,86.93108,55.39612,86.61333,55.26371Z"/><path class="cls-8" d="M64.35682,63.28635a16.21732,16.21732,0,0,0,5.85335-1.69712,1.3282,1.3282,0,0,1,.43014-.06392c-4.87983,4.3395-11.9217,5.33445-16.98826,1.80293a12.86629,12.86629,0,0,1-3.14949-3.23083c-.138-.19627-.20283-.46236-.47906-.53705q-.07469-.36469-.14946-.72939a11.30346,11.30346,0,0,1,2.688-1.19311,12.04281,12.04281,0,0,0,8.61619,5.54521A20.03978,20.03978,0,0,0,64.35682,63.28635Z"/><path class="cls-10" d="M21.96235,43.45155c.36407.65422.82887.57835,1.37628.22684a11.20219,11.20219,0,0,1,1.12705-.56928c.92763-.45648,1.14637-.40305,1.60965.54814.61685,1.26649,1.18974,2.55436,1.78117,3.83321q.93139,2.01394,1.86212,4.0282a18.13237,18.13237,0,0,0-4.22178,1.70661c-1.121-2.39374-2.27165-4.77434-3.34284-7.19012-.28-.63153-.5491-.72488-1.07658-.3775-.0406.02673-.10339.02617-.13549.0585a2.20347,2.20347,0,0,1-1.97534.73025l.01036.01528c-.07026-.30494.31777-.35141.3409-.60376A22.48354,22.48354,0,0,1,21.96235,43.45155Z"/><path class="cls-8" d="M70.62885,61.53241c.64412-.73557,1.59389-1.0675,2.29182-1.73618.298-.28549.64428-.52057,1.05623-.84824.13236,1.28483.25545,2.47634.37711,3.668.00755.07393.00392.149.00566.2235.035,1.50247.13689,1.55038,1.568,1.327,2.66255-.41566,5.3332-.78,8.002-1.15511a14.61092,14.61092,0,0,1,2.42839-.29274,13.65,13.65,0,0,1-6.49823,2.07927c-2.66084.31458-5.31226.71426-7.96084,1.12194-.52136.08025-.63779-.05457-.66932-.53173-.07523-1.13893-.19428-2.27508-.30522-3.41142C70.90606,61.78893,71.02223,61.48271,70.62885,61.53241Z"/><path class="cls-10" d="M16.747,34.94227c1.0275,1.32306,1.74851,2.83965,2.6718,4.22932.50408.75869.93841,1.56337,1.42368,2.33507a1.16626,1.16626,0,0,1,.23261.6084c-.25046.14931-.51486.27947-.74838.45151-.68294.50311-1.574.66686-2.15743,1.32877-1.51431-2.403-3.02877-4.806-4.43935-7.27222Z"/><path class="cls-8" d="M121.40094,55.54746a8.76648,8.76648,0,0,0-2.871,1.56322l-.07056.00751-.0528-.04737-.13762-.1769q.39754-2.58134.79477-5.16292c.06059-.05808.09016-.1217.00589-.17781-.01083-.00721-.06664.053-.10161.082a23.11672,23.11672,0,0,1-5.35788,2.15993c-.53371.11247-1.07138.2061-1.60714.3083-.05007-1.63435-.03979-1.57512,1.54942-1.8507a29.08808,29.08808,0,0,0,7.95736-2.57628c.22259-.11.44354-.22348.66847-.32844.03957-.01846.09518-.00261.19643-.00261Q121.88629,52.456,121.40094,55.54746Z"/><path class="cls-9" d="M25.49684,53.22527a18.13237,18.13237,0,0,1,4.22178-1.70661q.6816,1.44137,1.36361,2.88258a2.10009,2.10009,0,0,1,.30213.833c-1.22841.356-2.36043.9561-3.55126,1.40811a.78627.78627,0,0,0-.53783.46783C26.6266,55.84722,26.04047,54.54607,25.49684,53.22527Z"/><path class="cls-10" d="M165.27352,28.98192q.00714,1.87488.01429,3.74969c-.40555.46457-1.18621.38169-1.47861,1.01152a6.18178,6.18178,0,0,0-1.68464-.13931q.01227-2.23363.02443-4.46709C163.19249,29.12533,164.22518,28.89582,165.27352,28.98192Z"/><path class="cls-8" d="M68.53717,33.44516c.84131-.19945,1.68373-.39438,2.52321-.60126.23429-.05774.43213-.13565.46087.23261.09234,1.18306.19945,2.365.30544,3.547.03609.40246-.029.6343-.51769.42919a17.777,17.777,0,0,0-2.78779-.7562c-.046-.51424-.11359-1.02775-.13085-1.54294-.01252-.37352-.16058-.367-.4609-.28858-.59244.15467-1.19775.26009-1.79754.38588A11.79432,11.79432,0,0,1,68.53717,33.44516Z"/><path class="cls-10" d="M68.23808,27.94406a23.794,23.794,0,0,1,.15611,3.74479c-1.05992-.04744-2.08719.26873-3.14169.28082a32.90052,32.90052,0,0,1-.18011-3.72593C66.13,28.16847,67.172,27.92909,68.23808,27.94406Z"/><path class="cls-8" d="M103.17035,22.59288a12.87383,12.87383,0,0,0,1.54337,1.88958c.379.43876.53714.75327-.17421.98879-.88617.29341-1.58415,1.01036-2.543,1.14918-.618-.69966-1.24228-1.39425-1.84931-2.1036-.13327-.15573-.46743-.31294-.11931-.58433.12414-.02188.28757-.00541.21279-.21952l.047-.04773c.29857.194.50138-.06853.73538-.16087A16.12678,16.12678,0,0,1,103.17035,22.59288Z"/><path class="cls-10" d="M112.59659,11.72521a12.98141,12.98141,0,0,1-1.98645,2.35377,52.35062,52.35062,0,0,1-3.545,3.876c-.03473-.50633-.55849-.61537-.78531-.96558l5.43757-6.04419A1.47081,1.47081,0,0,1,112.59659,11.72521Z"/><path class="cls-4" d="M106.27985,16.98942c.22682.35021.75058.45925.78531.96558-1.0789,1.42232-2.36851,2.66073-3.51719,4.02224-.15831.18763-.38.33124-.37758.61549a16.1456,16.1456,0,0,0-2.14736.91165c-.234.09234-.43681.35486-.73538.16087C102.20755,21.37041,104.23274,19.17009,106.27985,16.98942Z"/><path class="cls-8" d="M87.031,22.71928,85.26709,25.7921c0-1.5288,0-2.89962.00006-4.27038.75277-1.45791,2.31583-1.752,3.57369-2.48467q-.009.187-.01818.37439a2.2773,2.2773,0,0,0-.59078,1.06871q-.07661.14754-.15309.29515a8.15344,8.15344,0,0,0-.85885,1.50174Z"/><path class="cls-9" d="M16.747,34.94227,13.7299,36.62312a15.22576,15.22576,0,0,1-1.37232-2.2427,17.92644,17.92644,0,0,0,3.03929-1.6744A11.47021,11.47021,0,0,1,16.747,34.94227Z"/><path class="cls-9" d="M126.17438,26.60428c-.15454,1.0973-.30616,2.195-.468,3.29126a.47245.47245,0,0,1-.14937.31558c-.166.09422-.262-.0838-.35049-.1864-.67748-.78511-1.3476-1.57654-2.02-2.366q.21809-1.12476.43622-2.24962a3.28816,3.28816,0,0,1,.992.448C125.12925,26.116,125.53465,26.60785,126.17438,26.60428Z"/><path class="cls-10" d="M126.17438,26.60428c-.63973.00357-1.04513-.48828-1.55962-.74719a3.28816,3.28816,0,0,0-.992-.448,1.79586,1.79586,0,0,1,1.24823-2.03577,18.58593,18.58593,0,0,0,2.03484-1.00625A33.10221,33.10221,0,0,1,126.17438,26.60428Z"/><path class="cls-8" d="M165.27343,23.60132q-.012,1.57137-.02368,3.14279a14.5921,14.5921,0,0,1-3.13416.14862c-.21638-1.64893-.22305-1.66215,1.23982-2.39919A6.7038,6.7038,0,0,1,165.27343,23.60132Z"/><path class="cls-8" d="M15.39687,32.706a17.92644,17.92644,0,0,1-3.03929,1.6744c-1.00345-1.393-1.00534-1.39494.20048-2.56407.47768-.46315.96585-.91549,1.44933-1.3728A11.65719,11.65719,0,0,1,15.39687,32.706Z"/><path class="cls-4" d="M65.2525,31.96967c1.0545-.01209,2.08177-.32826,3.14169-.28082a4.80339,4.80339,0,0,1,.14294,1.75646,11.78758,11.78758,0,0,0-2.40521,1.40551c-.55538.35006-.81507.23721-.80867-.45849C65.33069,33.58506,65.27869,32.77725,65.2525,31.96967Z"/><path class="cls-9" d="M162.11559,26.89273a14.5921,14.5921,0,0,0,3.13416-.14862q.01173,1.11893.02392,2.23789c-1.04849-.08618-2.08118.14333-3.12468.15473A10.501,10.501,0,0,1,162.11559,26.89273Z"/><path class="cls-4" d="M18.16925,43.89534c.58341-.66191,1.47449-.82566,2.15743-1.32877.23352-.172.49792-.3022.74838-.45151a5.79694,5.79694,0,0,1,.88719,1.33662,22.47811,22.47811,0,0,0-2.6444,2.40624Q18.74356,44.87671,18.16925,43.89534Z"/><path class="cls-8" d="M164.24043,58.36448c-.43092.57791-1.14166.68951-1.72425,1.0106a7.024,7.024,0,0,0-.63043.33986,17.98242,17.98242,0,0,1-4.63627,1.09215c-.22736-.30626-.14535-.66383-.1671-1.00426-.01944-.30434.15659-.38578.41893-.36668A16.63113,16.63113,0,0,0,164.24043,58.36448Z"/><path class="cls-8" d="M184.98385,27.84207q-.61309,2.551-1.22617,5.10206l-.1885.0064a20.346,20.346,0,0,1-.69128-4.04583Q183.93047,28.3737,184.98385,27.84207Z"/><path class="cls-9" d="M68.23808,27.94406c-1.06611-.015-2.10812.22441-3.16569.29968a4.14616,4.14616,0,0,1-.09148-1.34517,5.325,5.325,0,0,1,.99989-.15875c.74364-.0625,1.48173-.191,2.22208-.29254Z"/><path class="cls-8" d="M68.20288,26.44728c-.74035.10154-1.47844.23-2.22208.29254a5.325,5.325,0,0,0-.99989.15875c-.16324-.55053.06377-.84366.57983-1.0695.80941-.35421,1.58266-.79094,2.37141-1.19282A5.50662,5.50662,0,0,1,68.20288,26.44728Z"/><path class="cls-9" d="M112.59659,11.72521a1.47077,1.47077,0,0,0-.87917-.78c.866-1.35417,2.30462-1.84419,3.67724-2.43385-.078.65422-.68216.92564-1.03822,1.36925A8.95027,8.95027,0,0,1,112.59659,11.72521Z"/><path class="cls-4" d="M139.16007,20.59458c-.0005,1.68237-.0005,1.68366-1.62537,1.68156-.46966-.00061-.93929-.011-1.409-.01685A16.08127,16.08127,0,0,1,139.16007,20.59458Z"/><path class="cls-9" d="M101.38222,27.113c-.26421.51318-.78627.7679-1.18424,1.14341-.27743.26176-.40449-.04268-.46958-.29544Q100.55513,27.53709,101.38222,27.113Z"/><path class="cls-10" d="M18.96659,46.4464l-.07937.09289-.02658-.07829.11625.00051Z"/><path class="cls-4" d="M100.24068,23.713c.07478.21411-.08865.19764-.21279.21952A.26074.26074,0,0,1,100.24068,23.713Z"/><path class="cls-9" d="M115.57375,8.40476l-.16794.13943C115.38526,8.4057,115.4805,8.40643,115.57375,8.40476Z"/><path class="cls-9" d="M118.26893,56.89392l.13762.1769C118.28276,57.0724,118.24061,57.01054,118.26893,56.89392Z"/><path class="cls-8" d="M50.47183,69.74256c.02586-.07371.06018-.12544.14182-.05452Z"/><path class="cls-11" d="M87.352,48.97541q-1.72244-.85972-3.44462-1.72c-.12825-.06414-.23387-.058-.31064.07643-.6348.449-1.449.82241-1.45614,1.71718-.02923,3.67307.00243,7.34663.0117,11.02-1.52259.21621-3.04612.42613-4.56692.65425-.28513.04277-.41133-.02-.43581-.31849-.13-1.58431-.27123-3.16769-.40706-4.75152-.02569-.29945.18657-.505.31078-.74228,1.94872-3.72321,2.5046-7.55617.9031-11.55324A10.09279,10.09279,0,0,0,75.776,40.00613a1.74172,1.74172,0,0,1-.52555-1.17447c-.24308-3.09555-.5307-6.18763-.76651-9.28368-.04988-.65493-.26206-.79077-.863-.57387-.53448.19292-1.10609.2806-1.65466.43788-.45894.13158-.6509.00587-.59807-.48984.03935-.36934.02768-.74411.03873-1.11647a2.125,2.125,0,0,0,.29361-.04336q4.023-1.16641,8.04517-2.33558c.26661-.0772.569-.27741.59239.27977.07968,1.89995.18478,3.799.29793,5.69733.09185,1.54076.20923,3.08.32545,4.76737L82.57456,34.096l5.33775-7.34529.63613-.8814.31121-.313c.31024.01667.45511.27428.65268.452.89811.80794,1.80018,1.61167,2.6877,2.43112,1.3395,1.23675,2.66806,2.48531,4.00127,3.72886q-4.24641,4.357-8.49014,8.71671c-.18488.1902-.43668.33542-.49558.62791A8.24881,8.24881,0,0,0,86.128,42.52c-.34687.30127-.23387.47244.14066.61638,2.74993,1.05679,5.49014,2.1395,8.25132,3.166a2.88746,2.88746,0,0,1,1.51333,1.205,13.29119,13.29119,0,0,0,6.20742,5.11837,14.12636,14.12636,0,0,0,4.28105,1.15356c.58246.04554.89192.28005.85054.98071-.0745,1.26128-.02157,2.53009-.02187,3.79575-2.35079-1.12006-4.70615-2.23064-7.05136-3.36225q-6.23637-3.00915-12.46393-6.03663C87.681,49.08222,87.51337,49.03527,87.352,48.97541Z"/><path class="cls-11" d="M139.92429,35.816a28.8389,28.8389,0,0,0,.8723-4.19589c.436-2.21155.83043-4.43131,1.24246-6.6476,1.29378-.00133,2.58766.00677,3.88126-.00921.44115-.00545.67292.1039.72726.60735.10587.98108.29212,1.95357.44771,2.9292.595,3.73143,1.17835,7.46482,1.8037,11.19117a1.10038,1.10038,0,0,1-.31052.99132c-2.53774,3.07924-3.89847,6.54083-3.30421,10.58594a10.9144,10.9144,0,0,0,5.27,7.98452c.53224.33343,1.21874.4258,1.60261.99431-2.01613-.28727-4.03051-.588-6.04955-.85308-.55556-.07295-.7569-.30595-.84149-.87364-.66938-4.49188-1.38119-8.97745-2.08479-13.4642a.848.848,0,0,0-.13064-.24244l-.1318.17428.00993-.00931a4.268,4.268,0,0,0-1.68614,1.97949,43.27674,43.27674,0,0,1-1.903,4.55875q-1.99574-4.11444-3.99164-8.22873c-.09021-.20933-.08538-.48018-.3668-.56589-.63219.57215-1.42637,1.02653-1.61105,1.94841-.14939.74568-.21166,1.50833-.33519,2.25974-.39041,2.375-.79144,4.74821-1.18837,7.12212-2.13077-.34594-4.2602-.70047-6.39358-1.02961-.36832-.05683-.37273-.25471-.3264-.51971.3376-1.93088.68466-3.86015,1.01-5.79309a1.18688,1.18688,0,0,1,.4486-.65567c.88422-.87345,1.74925-1.76769,2.66216-2.61009.4085-.377.35769-.58909-.049-.90305-.56974-.4398-1.08468-.95-1.64757-1.39941a.7788.7788,0,0,1-.32844-.82994q1.16673-6.63471,2.319-13.27194c.017-.09738.052-.19163.07851-.28729,2.06084-.00085,4.12182.01061,6.18242-.01247.44344-.005.70072.10819.78315.56323q.534,2.948,1.08418,5.893c.23612,1.26008.48883,2.517.73233,3.77576.03873.20019.08712.48862.34048.2292C139.165,36.76861,139.75976,36.47068,139.92429,35.816Z"/><path class="cls-11" d="M120.49972,32.85267q-4.13752,4.27876-8.27168,8.5608c-.19977.20733-.48663.36017-.52395.69422a9.72042,9.72042,0,0,0-1.55849,1.53775,10.80958,10.80958,0,0,0,4.94146-1.2717c.63825-.37542,1.41047-.63433,1.668-1.45913l-.00319.00365c.14572.01791.26207-.00866.28-.18446l-.00724.01054a.16578.16578,0,0,0,.1839-.13393l.58339-.45256a1.37388,1.37388,0,0,1,.71818.3608c1.22476,1.07343,2.4706,2.12418,3.66229,3.23308.34851.32429.85907.51192,1.013,1.03191a20.8506,20.8506,0,0,1-10.33072,4.3553,13.92222,13.92222,0,0,1-9.08488-1.49209c-6.267-3.487-6.5104-11.986-2.2-16.26259l.12794-.12345.014-.01386c.12841-.01466.23145-.05794.238-.21029l-.00763.0087a.13819.13819,0,0,0,.16038-.15088l-.0061.00217a.58223.58223,0,0,0,.48919-.12761,16.114,16.114,0,0,1,6.92354-2.26494,12.66575,12.66575,0,0,1,8.86893,2.219A6.062,6.062,0,0,1,120.49972,32.85267ZM106.81781,41.925c.37985.30414.56514-.00858.77882-.24265,2.32391-2.54564,4.63588-5.10239,6.98463-7.62494.436-.4683.39658-.70187-.078-1.08852a6.18426,6.18426,0,0,0-8.21519.34747c-.135-.15756-.23029-.26027-.45707-.05556a6.21759,6.21759,0,0,0-1.14753,8.27511C105.48062,42.73855,105.63587,42.7477,106.81781,41.925Z"/><path class="cls-12" d="M107.35049,58.55573c.0003-1.26566-.05263-2.53447.02187-3.79575.04138-.70066-.26808-.93517-.85054-.98071a14.12636,14.12636,0,0,1-4.28105-1.15356,13.29119,13.29119,0,0,1-6.20742-5.11837A2.88746,2.88746,0,0,0,94.52,46.3023c-2.76118-1.02647-5.50139-2.10918-8.25132-3.166-.37453-.14394-.48753-.31511-.14066-.61638a8.24881,8.24881,0,0,1,1.08754-1.007q4.77136,1.80729,9.54315,3.61379a.85918.85918,0,0,1,.44078.38029c2.5443,4.17811,6.41247,6.22682,11.1336,6.88356.36766.05114.51217.14953.50922.53817-.01586,2.0878-.00749,4.17578-.00749,6.31316A4.18228,4.18228,0,0,1,107.35049,58.55573Z"/><path class="cls-11" d="M117.06359,18.66419q-4.14991,2.0028-8.29833,4.00869c-.273.13239-.50062.21831-.66086-.14119-.16071-.36058-.67664-.59875-.20385-1.13438,1.62542-1.84143,3.20806-3.72052,4.811-5.58182.38742-.44986.79021-.88649,1.18587-1.32916A33.26357,33.26357,0,0,1,117.06359,18.66419Z"/><path class="cls-12" d="M139.92429,35.816c-.16453.65471-.75931.95264-1.18211,1.38556-.25336.25942-.30175-.029-.34048-.2292-.2435-1.25871-.49621-2.51568-.73233-3.77576q-.5518-2.94469-1.08418-5.893c-.08243-.455-.33971-.56819-.78315-.56323-2.0606.02308-4.12158.01162-6.18242.01247.10168-1.49211.10169-1.48884,1.588-1.4928,1.25721-.00335,2.51439-.01545,3.77159-.02368.842.008,1.68441.03375,2.52583.01528.34-.00746.48841.10456.54845.43237Q138.9816,30.7513,139.92429,35.816Z"/><path class="cls-12" d="M120.49972,32.85267a6.062,6.062,0,0,0-2.12159-2.12954,12.66575,12.66575,0,0,0-8.86893-2.219,16.114,16.114,0,0,0-6.92354,2.26494.58223.58223,0,0,1-.48919.12761,12.39244,12.39244,0,0,1,5.73994-3.26154c4.36262-1.25441,8.513-.92453,12.30895,1.78223a12.90593,12.90593,0,0,1,1.59671,1.44781c.25859.259.31609.45192.01307.72771C121.3172,31.99145,120.91638,32.43074,120.49972,32.85267Z"/><path class="cls-12" d="M96.2013,32.16837c-1.33321-1.24355-2.66177-2.49211-4.00127-3.72886-.88752-.81945-1.78959-1.62318-2.6877-2.43112-.19757-.17773-.34244-.43534-.65272-.45193l.69174-1.04328a.10354.10354,0,0,0,.05562-.1q.29131-.31224.58266-.62433c2.33182,2.15151,4.65443,4.31316,7.00423,6.44488.40742.36962.47255.598.02034.95571A13.34222,13.34222,0,0,0,96.2013,32.16837Z"/><path class="cls-12" d="M123.1854,44.78365c-.15392-.52-.66448-.70763-1.013-1.03192-1.19169-1.1089-2.43753-2.15965-3.66229-3.23308a1.37388,1.37388,0,0,0-.71818-.3608c.19505-.1873.38745-.37724.58533-.56127,1.08581-1.00978,1.084-1.00664,2.2365.00043,1.2663,1.10648,2.52343,2.22423,3.81473,3.30091.40328.33624.37611.54243-.0015.83774C124.00068,44.06908,123.59823,44.433,123.1854,44.78365Z"/><path class="cls-12" d="M131.84635,54.05258c.39693-2.37391.798-4.74714,1.18837-7.12212.12353-.75141.1858-1.51406.33519-2.25974.18468-.92188.97886-1.37626,1.61107-1.94844l-.06436.74872-.19587,1.037q-.71238,4.32721-1.42675,8.65409C133.08657,54.40536,133.06836,54.40889,131.84635,54.05258Z"/><path class="cls-12" d="M117.06359,18.66419a33.26357,33.26357,0,0,0-3.16617-4.17786c.37614-.45895.75983-.91189,1.12531-1.37907.20492-.26194.35814-.2748.56692.00284q1.6089,2.13945,3.24154,4.261c.22721.2939.12557.41659-.15409.54236C118.13613,18.1567,117.60109,18.41318,117.06359,18.66419Z"/><path class="cls-13" d="M95.72746,41.64177,92.248,40.34843l3.28748-3.11064A15.7104,15.7104,0,0,0,95.72746,41.64177Z"/><path class="cls-8" d="M125.12209,33.16548c-.26686,1.6004-.52373,3.03368-.73635,4.47349-.07545.51093-.23572.55865-.59044.23052-.146-.135-.28565-.27693-.43345-.40988-1.27546-1.14732-1.29055-1.16031-.14027-2.42466C123.7852,34.41543,124.41528,33.85631,125.12209,33.16548Z"/><path class="cls-12" d="M116.75509,40.91461c-.25756.8248-1.02978,1.08371-1.668,1.45913a10.80958,10.80958,0,0,1-4.94146,1.2717,9.72042,9.72042,0,0,1,1.55849-1.53775A11.64826,11.64826,0,0,0,116.75509,40.91461Z"/><path class="cls-5" d="M90.1868,53.751a21.07112,21.07112,0,0,1-2.39364-1.18255A1.78247,1.78247,0,0,1,90.1868,53.751Z"/><path class="cls-5" d="M87.21994,22.277a8.15344,8.15344,0,0,1,.85885-1.50174C88.44529,21.64355,88.13049,22.1941,87.21994,22.277Z"/><path class="cls-5" d="M89.55135,24.51318l-.69174,1.04328-.31117.31289C88.613,24.85559,88.83931,24.54958,89.55135,24.51318Z"/><path class="cls-5" d="M88.23188,20.48015a2.27737,2.27737,0,0,1,.59077-1.06871C89.10356,20.16077,89.00272,20.34328,88.23188,20.48015Z"/><path class="cls-5" d="M90.18963,23.78882q-.29134.31213-.58266.62433a.9826.9826,0,0,1,.12887-.761C89.97551,23.35455,90.13,23.43842,90.18963,23.78882Z"/><path class="cls-12" d="M101.94982,31.03666c-.00656.15235-.1096.19563-.238.21029A.27658.27658,0,0,1,101.94982,31.03666Z"/><path class="cls-12" d="M117.03189,40.7338c-.01792.1758-.13427.20237-.28.18446C116.79386,40.77891,116.90739,40.748,117.03189,40.7338Z"/><path class="cls-12" d="M117.20855,40.61041a.16578.16578,0,0,1-.1839.13393Q117.11642,40.67729,117.20855,40.61041Z"/><path class="cls-12" d="M101.69776,31.26081l-.12794.12345Z"/><path class="cls-12" d="M102.10257,30.89448a.13819.13819,0,0,1-.16038.15088Q102.0222,30.96985,102.10257,30.89448Z"/><path class="cls-11" d="M50.46088,45.5511a16.5824,16.5824,0,0,1-3.666,3.54639c-.84152.64858-1.74241,1.22022-2.61665,1.82636a10.28755,10.28755,0,0,1-.94581.58825.946.946,0,0,0-.52425,1.31834Q44.099,57.67807,45.40067,62.551a35.18408,35.18408,0,0,1,1.213,4.81031c-1.59809.50583-3.20424.98819-4.789,1.53264-.44063.15138-.463-.13957-.56213-.35541-1.11822-2.43392-2.21633-4.87709-3.33871-7.30907Q32.76265,50.04634,27.59958,38.8641c-.24946-.54277-.44561-.69993-1.01349-.37125-.74915.43359-1.57159.73868-2.34322,1.13641-.35925.18517-.55444.15617-.77249-.20762-1.49284-2.49056-3.006-4.96895-4.51254-7.45115a2.60651,2.60651,0,0,1,1.08735-.749,44.13736,44.13736,0,0,1,14.23789-4.518,28.41316,28.41316,0,0,1,8.86226.28372,13.4948,13.4948,0,0,1,7.78154,4.46317,8.84978,8.84978,0,0,1,2.323,5.96542,12.66132,12.66132,0,0,1-1.783,6.3664c-.2488.42773-.66711.80573-.62279,1.37566l-.0126.00653c-.19927-.02562-.20778.10708-.20658.24785L50.629,45.407Zm-7.59614,1.696a17.95166,17.95166,0,0,0,3.0822-2.19181,8.22672,8.22672,0,0,0,2.01284-2.46083c1.46039-2.87468,1.02984-7.29114-3.85363-8.04461a8.599,8.599,0,0,0-4.83258.86106A1.2907,1.2907,0,0,0,38.185,36.96058q.84495,2.73489,1.70564,5.46491c.53494,1.7021,1.071,3.40389,1.62021,5.1014.07147.2209.06518.65162.47855.45495C42.32813,47.82069,42.74438,47.69265,42.86474,47.24713Z"/><path class="cls-11" d="M71.81441,56.72819a12.82484,12.82484,0,0,1-7.17533,3.46441c-.245.03482-.48734.08855-.73091.13351a11.47846,11.47846,0,0,1-4.73221-.79843,9.06937,9.06937,0,0,1-5.04559-10.9395,12.14664,12.14664,0,0,1,3.6285-6.0289l.17077-.15347-.00626.00491c.13644-.00653.28948.00372.21618-.21417l.03333-.02785c.25865.18182.40808-.05452.589-.1569A12.73533,12.73533,0,0,1,67.10149,40.316a8.91221,8.91221,0,0,1,7.10919,6.29925,11.1315,11.1315,0,0,1-1.50984,8.74642c-.15421.25667-.49481.45344-.35825.84038l-.01733.00747c-.11868-.0227-.16114.02682-.13484.14143l-.01281.013c-.11291-.02164-.15791.02405-.13587.13618l-.00894.00978C71.86238,56.48537,71.82936,56.59777,71.81441,56.72819ZM61.57221,43.07106,61.527,43.0259l.04871.04141c-.18363-.00766-.21143.11271-.21089.25635l-.10327.15012c-.93317.27571-1.27778,1.12236-1.69228,1.84766a4.74638,4.74638,0,0,0,1.449,6.12726,6.34819,6.34819,0,0,0,7.47851-.16133c.33515-.24683.7827-.47506.77276-1.01407l.15138-.09042c.14545.00814.26512-.02053.28144-.19681l-.009.01186a.16582.16582,0,0,0,.17458-.16073,7.74887,7.74887,0,0,0,1.10379-1.38991,4.303,4.303,0,0,0-.19924-4.85573c-.05576-.10917-.16381-.13792-.23852-.06653-.63882.61053-1.48075,1.09577-1.26479,2.21589a2.6328,2.6328,0,0,1-.13109.85962,4.087,4.087,0,0,1-3.73039-.02106c-.09873-.2758-.372-.38568-.55724-.579a2.5,2.5,0,0,1-.49256-2.99134l.11481-.177-.00465-.00072c1.13312.14474,1.74708-.65272,2.37264-1.36374.28839-.32779-.00287-.39419-.30054-.33716a6.36862,6.36862,0,0,0-4.75173,1.72209C61.66,42.8697,61.55611,42.91113,61.57221,43.07106Z"/><path class="cls-12" d="M50.84414,45.15783c-.04432-.56993.374-.94793.62279-1.37566a12.66132,12.66132,0,0,0,1.783-6.3664,8.84978,8.84978,0,0,0-2.323-5.96542,13.4948,13.4948,0,0,0-7.78154-4.46317,28.41316,28.41316,0,0,0-8.86226-.28372,44.13736,44.13736,0,0,0-14.23789,4.518,2.60651,2.60651,0,0,0-1.08735.749c-.50032-.44854-.20162-.66343.22727-.91054a43.5403,43.5403,0,0,1,17.13653-5.89574,22.89162,22.89162,0,0,1,10.59613,1,12.05469,12.05469,0,0,1,6.91577,5.91629,9.32722,9.32722,0,0,1,.348,7.24631A15.341,15.341,0,0,1,50.84414,45.15783Z"/><path class="cls-12" d="M72.34259,56.202c-.13656-.38694.204-.58371.35825-.84038a11.1315,11.1315,0,0,0,1.50984-8.74642A8.91221,8.91221,0,0,0,67.10149,40.316a12.73533,12.73533,0,0,0-8.33963,1.69582c-.18089.10238-.33032.33872-.589.1569a12.41675,12.41675,0,0,1,5.25362-3.00314c.16219-.05148.32107-.11338.48148-.17043a12.62712,12.62712,0,0,1,5.03006-.077,8.91157,8.91157,0,0,1,6.84749,11.22243A12.1066,12.1066,0,0,1,72.34259,56.202Z"/><path class="cls-12" d="M46.61365,67.36134a35.18408,35.18408,0,0,0-1.213-4.81031q-1.299-4.873-2.69249-9.72059a.946.946,0,0,1,.52425-1.31834,10.28755,10.28755,0,0,0,.94581-.58825c1.35857,5.06974,2.70672,10.1423,4.09026,15.20521.155.56712.07128.81968-.5117.92043A11.74129,11.74129,0,0,0,46.61365,67.36134Z"/><path class="cls-10" d="M48.95641,55.55356a23.84628,23.84628,0,0,1-.84429-2.96768c-.07333-.22577.07937-.38152.23427-.50525.82009-.655,1.64633-1.30233,2.57863-2.03764a14.398,14.398,0,0,0,.4361,4.76266,1.937,1.937,0,0,0-1.122.252A2.703,2.703,0,0,1,48.95641,55.55356Z"/><path class="cls-9" d="M48.95641,55.55356a2.703,2.703,0,0,0,1.28268-.49586,1.937,1.937,0,0,1,1.122-.252A12.45414,12.45414,0,0,0,52.562,57.63787a11.30314,11.30314,0,0,0-2.688,1.1931A16.34393,16.34393,0,0,1,48.95641,55.55356Z"/><path class="cls-12" d="M50.625,45.41221c-.0012-.14077.00731-.27347.20658-.24785A.28359.28359,0,0,1,50.625,45.41221Z"/><path class="cls-12" d="M58.13956,42.19655c.0733.21789-.07974.20764-.21618.21417Z"/><path class="cls-12" d="M57.92964,42.40581l-.17077.15347Z"/><path class="cls-12" d="M50.46088,45.5511,50.629,45.407C50.615,45.50392,50.57143,45.56653,50.46088,45.5511Z"/><path class="cls-11" d="M183.336,46.44215q1.31271-5.3418,2.62692-10.68323c.22562-.91421.46943-1.82394.70487-2.73569,2.19863.47671,4.38985.99274,6.6,1.40793.7375.13854.72636.40908.52761.98417q-2.114,6.11589-4.19018,12.24479-2.72416,7.99073-5.44079,15.984c-.49269,1.45288-.95171,2.91717-1.42619,4.37622a22.67425,22.67425,0,0,1-2.90582-.73159c-.5145-.09666-1.00438-.322-1.51827-.42495-.59253-.11875-.81882-.37559-.7997-1.02834.12439-4.248-.14457-8.49142-.2051-12.73778-.0333-2.3359-.10433-4.67125-.158-7.007a.60222.60222,0,0,0,.01748-.57151c-.05236-.08659-.18514-.06953-.25957.01353-.50435.56281-1.26661.93233-1.4196,1.76171-.42537,2.30619-.82438,4.61723-1.24425,6.92445-.44193,2.42835-.896,4.85449-1.3447,7.2816-1.61919-.241-3.2369-.49273-4.85875-.71429-.344-.047-.39884-.20631-.36915-.49373.13772-1.33308.27988-2.66585.39687-4.00081.03369-.38445.32241-.53656.55151-.75069,3.23458-3.02324,5.15847-6.64541,5.03129-11.16988a10.63353,10.63353,0,0,0-3.19768-7.39962,1.15427,1.15427,0,0,1-.40053-1.03669c.16593-1.45476.28522-2.91485.45262-4.36942.05164-.44875-.06-.69827-.52728-.76517a7.82353,7.82353,0,0,1-.79677-.18573c-1.121-.283-1.12083-.28371-1.011-1.4696,3.05739.58349,6.11162,1.18452,9.17526,1.733a.8343.8343,0,0,1,.74614.76995c1.01608,4.7107,2.01141,9.426,3.05215,14.13119a8.63216,8.63216,0,0,0,.67674,2.46241C182.31627,47.54381,183.09357,47.23052,183.336,46.44215Z"/><path class="cls-11" d="M155.15772,56.22364a8.4564,8.4564,0,0,1-5.61006-8.36945,11.11846,11.11846,0,0,1,2.31373-6.246,7.47339,7.47339,0,0,1,1.4565-1.5801l.172-.15489-.00586.00481c.13538-.00913.28773-.00175.21078-.21691l.03418-.03059c.24171.17018.42809-.00674.61053-.11347a11.83988,11.83988,0,0,1,7.91879-1.58023,8.434,8.434,0,0,1,6.791,6.0117,10.20837,10.20837,0,0,1-1.378,8.11441c-.16071.26243-.467.46849-.39856.84317l-.03771-.00582.03792.00007c-.1084-.00021-.15545.05418-.14371.16006-.10571-.006-.15576.04443-.15056.15l-.04756-.01387.04843.00909a.15757.15757,0,0,0-.16655.167,12.601,12.601,0,0,1-6.00195,3.1606A10.09614,10.09614,0,0,1,155.15772,56.22364ZM156.17,40.62128l-.13543.16514.00475-.0048c-.52472.02366-.63725.5167-.88851.82237-2.84885,3.46587-.84961,7.21269,2.58074,8.16747,2.36972.65955,4.31577-.16009,6.09423-1.64086a.52916.52916,0,0,0,.258-.50349l-.00267.0039c.14755.01568.26834-.00528.26621-.19436l-.001.0083c.11209.01075.16624-.0472.18073-.15219.15656-.15713.31684-.31075.4691-.47194a4.604,4.604,0,0,0,.72786-5.70736c-.1804-.34515-.30434-.04273-.42829.04678a2.60729,2.60729,0,0,0-1.21344,2.73126,2.77789,2.77789,0,0,1-2.46851.44889c-2.33578-.40917-3.24425-2.61852-2.34929-4.04119a3.24282,3.24282,0,0,0,2.52088-1.33272c.12776-.16507.40387-.37222-.08462-.41785a6.05971,6.05971,0,0,0-5.31095,1.8046c-.16072.01685-.21468.12128-.21893.26649Z"/><path class="cls-12" d="M183.336,46.44215c-.24247.78837-1.01977,1.10166-1.51377,1.7992a8.63216,8.63216,0,0,1-.67674-2.46241c-1.04074-4.70523-2.03607-9.42049-3.05215-14.13119a.8343.8343,0,0,0-.74614-.76995c-3.06364-.54848-6.11787-1.14951-9.17526-1.733-.03192-1.795-.02907-1.8098,1.65471-1.48726,3.04315.58293,6.079,1.20441,9.12667,1.76255.55671.102.57246.46129.65333.8321,1.10845,5.08283,2.20437,10.16842,3.33194,15.247C183.00862,45.81444,182.86385,46.27614,183.336,46.44215Z"/><path class="cls-12" d="M182.73831,68.02035c.47448-1.459.9335-2.92334,1.42619-4.37622q2.71112-7.99515,5.44079-15.984,2.08806-6.1248,4.19018-12.24479c.19875-.57509.20989-.84563-.52761-.98417-2.21018-.41519-4.4014-.93122-6.6-1.40793.34614-1.68295.34882-1.69587,1.99833-1.35313,2.06474.429,4.11887.9113,6.18979,1.30685.63021.12036.68246.31233.48985.87323Q191.758,44.2977,188.21022,54.75892c-1.448,4.24787-2.91878,8.48814-4.33054,12.748C183.643,68.22108,183.35492,68.37007,182.73831,68.02035Z"/><path class="cls-12" d="M167.27278,52.90606c-.06841-.37468.23785-.58074.39856-.84317a10.20837,10.20837,0,0,0,1.378-8.11441,8.434,8.434,0,0,0-6.791-6.0117,11.83988,11.83988,0,0,0-7.91879,1.58023c-.18244.10673-.36882.28365-.61053.11347a9.78172,9.78172,0,0,1,1.5835-1.30526,13.10253,13.10253,0,0,1,5.65109-1.95894c4.38059-.404,8.853,1.91248,9.77881,6.79807a10.473,10.473,0,0,1-2.398,8.62147A3.7225,3.7225,0,0,1,167.27278,52.90606Z"/><path class="cls-12" d="M172.90081,61.50043c.44872-2.42711.90277-4.85325,1.3447-7.2816.41987-2.30722.81888-4.61826,1.24425-6.92445.153-.82938.91525-1.1989,1.4196-1.76171.07443-.08306.20721-.10012.25957-.01353a.60222.60222,0,0,1-.01748.57151c-.3088-.026-.1993.226-.22434.36243q-1.28187,6.9812-2.54948,13.965C174.12689,61.80308,174.13945,61.80535,172.90081,61.50043Z"/><path class="cls-8" d="M163.8092,33.74313c.2924-.62983,1.07306-.547,1.47861-1.01152.66961.14475,1.33772.29694,2.00966.42983.22252.044.44521.05551.53975.30875a3.462,3.462,0,0,0-1.5216.79593A21.97951,21.97951,0,0,0,163.8092,33.74313Z"/><path class="cls-9" d="M166.31562,34.26612a3.46207,3.46207,0,0,1,1.52158-.79593.34665.34665,0,0,1,0,.0733c-.08674.41274.23308,1.02659-.21173,1.20584C167.20465,34.91891,166.71406,34.552,166.31562,34.26612Z"/><path class="cls-12" d="M166.813,53.37262a.15757.15757,0,0,1,.16655-.167Q166.89653,53.28915,166.813,53.37262Z"/><path class="cls-12" d="M166.97872,53.21037c-.0052-.10557.04485-.156.15091-.15069Q167.05442,53.13513,166.97872,53.21037Z"/><path class="cls-12" d="M167.12915,53.06116c-.01161-.10667.03544-.16106.14384-.16085Q167.20129,52.9808,167.12915,53.06116Z"/><path class="cls-12" d="M82.57456,34.096l-1.61309,2.07517c-.11622-1.68737-.2336-3.22661-.32545-4.76737-.11315-1.89834-.21825-3.79738-.29793-5.69733-.02338-.55718-.32578-.357-.59239-.27977q-4.02342,1.1649-8.04517,2.33558a2.125,2.125,0,0,1-.29361.04336c-.18125-.721.03137-1.06989.82384-1.28035,2.94658-.78252,5.87144-1.64845,8.79419-2.51753.60178-.17894.795-.12025.82968.57.15324,3.0471.36916,6.09107.56381,9.13608C82.42755,33.85645,82.399,34.01924,82.57456,34.096Z"/><path class="cls-12" d="M82.15229,60.06906c-.00927-3.67338-.04093-7.34694-.0117-11.02.00713-.89477.82134-1.26813,1.45614-1.71718.02184,4.01755.03793,8.03523.074,12.05273.00382.42618-.1798.57887-.55464.60874Q82.63421,60.03172,82.15229,60.06906Z"/><path class="cls-12" d="M71.81441,56.72819c.01495-.13042.048-.24282.21839-.21829Q71.92387,56.6193,71.81441,56.72819Z"/><path class="cls-12" d="M72.04174,56.50012c-.022-.11213.023-.15782.13587-.13619Q72.11,56.43239,72.04174,56.50012Z"/><path class="cls-12" d="M72.19042,56.35093c-.0263-.11461.01616-.16413.13484-.14143Q72.25821,56.28062,72.19042,56.35093Z"/><path class="cls-12" d="M152.15689,60.24708c-.38387-.56851-1.07037-.66088-1.60261-.99431a10.9144,10.9144,0,0,1-5.27-7.98452c-.59426-4.04511.76647-7.5067,3.30421-10.58594a1.10038,1.10038,0,0,0,.31052-.99132c-.62535-3.72635-1.2087-7.45974-1.8037-11.19117-.15559-.97563-.34184-1.94812-.44771-2.9292-.05434-.50345-.28611-.6128-.72726-.60735-1.2936.016-2.58748.00788-3.88126.00921.286-1.67868-.0494-1.38283,1.57809-1.40157,1.2433-.0143,2.489.04009,3.7295-.02024.6246-.03038.79779.22206.88154.76572.54774,3.55553,1.11691,7.10777,1.67785,10.66127.16635,1.05384.29311,2.11569.50955,3.15905a1.12094,1.12094,0,0,1-.31222,1.0599,13.42546,13.42546,0,0,0-3.43927,9.21121,10.9428,10.9428,0,0,0,6.21067,9.81491,2.15729,2.15729,0,0,1,1.05606,2.04527c-.0471.27386-.22167.2266-.38262.2038C153.08316,60.40592,152.62049,60.32319,152.15689,60.24708Z"/><path class="cls-12" d="M139.3394,51.51693a43.27674,43.27674,0,0,0,1.903-4.55875,4.268,4.268,0,0,1,1.68614-1.97949c-.8845,2.559-1.99251,5.02813-3.03224,7.73813Z"/><path class="cls-2" d="M134.91662,43.471l.06436-.74872c.2814.08574.27657.35659.36678.56592Q135.13236,43.37945,134.91662,43.471Z"/><path class="cls-12" d="M153.69484,39.66107c.077.21516-.0754.20778-.21078.21691Z"/><path class="cls-12" d="M153.48992,39.87317l-.172.15488Z"/><path class="cls-12" d="M142.91862,44.988l.13179-.17428Z"/><path class="cls-14" d="M109.95419,101.33294a37.17735,37.17735,0,0,1-1.99449,4.8144,24.96128,24.96128,0,0,1-14.10219,12.24913,23.35369,23.35369,0,0,1-9.66979,1.28825,24.24932,24.24932,0,0,1-14.34137-5.88481A24.79832,24.79832,0,0,1,61.20375,98.288,25.08056,25.08056,0,0,1,64.85188,80.6245,24.7441,24.7441,0,0,1,77.96329,70.24593a23.47774,23.47774,0,0,1,9.752-1.23742,24.39525,24.39525,0,0,1,14.186,5.89917,27.46336,27.46336,0,0,1,4.26413,4.65205c.27126.3682.33956.59008-.08518.96414-1.89961,1.6729-3.75085,3.40075-5.61309,5.11576a1.21581,1.21581,0,0,0-.49076.64886h.88159c2.41361,0,4.82724.0069,7.2408-.00374.8423-.00371,1.77889-.21555,1.82036,1.178a38.44431,38.44431,0,0,1,1.73316-4.38151c3.84057-7.469,9.82806-12.20439,18.10891-13.74271a23.7079,23.7079,0,0,1,16.50821,2.87373,25.64486,25.64486,0,0,1,9.74622,34.20244,24.62941,24.62941,0,0,1-15.4547,12.42653,24.36549,24.36549,0,0,1-18.95458-2.48076,25.16487,25.16487,0,0,1-9.96357-10.78255A34.488,34.488,0,0,1,109.95419,101.33294Zm23.74088,16.6972a23.544,23.544,0,0,0,8.557-1.53053,23.82325,23.82325,0,0,0,12.26056-33.47819,23.123,23.123,0,0,0-30.26846-10.15678,23.773,23.773,0,0,0-13.164,25.39425C112.80576,109.48319,122.68686,117.99991,133.69507,118.03014ZM96.22881,87.61752c.42426-.38471.69889-.63424.974-.88318q3.54-3.203,7.08022-6.40569c.21487-.19437.44971-.31207.13034-.68283-5.6689-6.5812-12.8237-9.57141-21.43619-8.3577a23.39323,23.39323,0,0,0-19.003,29.63267C67.26263,112.38592,78.62987,119.71166,90.224,117.553c9.24374-1.72109,15.35236-7.2842,18.333-16.18916a22.552,22.552,0,0,0,.55253-11.77793,2.06551,2.06551,0,0,0-2.39686-1.96835C103.286,87.61749,99.85928,87.61752,96.22881,87.61752Z"/><path class="cls-15" d="M118.968,51.63522c.035-.029.09078-.08924.10161-.082.08427.05611.0547.11973-.00589.17781Q119.01579,51.68372,118.968,51.63522Z"/><path class="cls-2" d="M106.28811,33.31635a6.18426,6.18426,0,0,1,8.21519-.34747c.47454.38665.514.62022.078,1.08852-2.34875,2.52255-4.66072,5.0793-6.98463,7.62494-.21368.23407-.399.54679-.77889.2427a6.22639,6.22639,0,0,1-1.987-2.98705A5.7019,5.7019,0,0,1,106.28811,33.31635ZM111.25282,34.69a3.21338,3.21338,0,0,1,.226-.29117c.37912-.391.37811-.61458-.23569-.70554a3.91558,3.91558,0,0,0-3.438,1.11605,3.37375,3.37375,0,0,0-.54426,4.2972Z"/><path class="cls-12" d="M106.28811,33.31635a5.7019,5.7019,0,0,0-1.45733,5.62164,6.22639,6.22639,0,0,0,1.987,2.98705c-1.18187.82266-1.33712.81351-2.13423-.38914a6.21759,6.21759,0,0,1,1.14753-8.27511C106.05782,33.05608,106.15311,33.15879,106.28811,33.31635Z"/><path class="cls-3" d="M39.27357,35.41094a8.599,8.599,0,0,1,4.83258-.86106c4.88347.75347,5.314,5.16993,3.85363,8.04461a8.22672,8.22672,0,0,1-2.01284,2.46083,17.94431,17.94431,0,0,1-3.08234,2.19176q-1.8995-5.59381-3.58184-11.25643A.74621.74621,0,0,1,39.27357,35.41094Zm5.75568,7.00539c.13408-.17628.27946-.34518.40039-.53005a3.5019,3.5019,0,0,0,.42715-3.57952,2.77982,2.77982,0,0,0-2.549-1.38892c-.92381-.08172-1.06207.12851-.79235,1.012l1.65706,5.32692A2.92436,2.92436,0,0,0,45.02925,42.41633Z"/><path class="cls-12" d="M39.27357,35.41094a.74621.74621,0,0,0,.00919.57971q1.69051,5.66,3.58184,11.25643c-.12022.44557-.53647.57361-.87519.73476-.41337.19667-.40708-.234-.47855-.45495-.54923-1.69751-1.08527-3.3993-1.62021-5.1014q-.85822-2.73077-1.70564-5.46491A1.2907,1.2907,0,0,1,39.27357,35.41094Z"/><path class="cls-3" d="M64.35785,43.00909a2.5,2.5,0,0,0,.49256,2.99134c.18526.19337.45851.30325.55723.579a27.3894,27.3894,0,0,0-.15466,4.47171,5.19834,5.19834,0,0,1-4.26487-2.91569,4.69182,4.69182,0,0,1,.27372-4.6619l.103-.15005a.31285.31285,0,0,0,.21083-.25624L61.527,43.0259l.04508.04494q.108-.10938.21634-.21832A6.36925,6.36925,0,0,1,66.54,41.13028c.02013.32024-.26508.23-.41984.29976A2.91119,2.91119,0,0,0,64.468,42.83133l.00475.00086Q64.4154,42.92078,64.35785,43.00909Z"/><path class="cls-6" d="M65.253,51.05119a27.3894,27.3894,0,0,1,.15466-4.47171,4.08706,4.08706,0,0,0,3.73038.02107,2.68288,2.68288,0,0,0,1.63442-3.009,4.303,4.303,0,0,1,.19924,4.85573,7.75119,7.75119,0,0,1-1.10386,1.39l-.17451.16061.009-.01168a.31249.31249,0,0,0-.28148.19663l-.15149.09064A6.45824,6.45824,0,0,1,65.253,51.05119Z"/><path class="cls-12" d="M65.253,51.05119a6.45824,6.45824,0,0,0,4.0164-.77767c.01005.53879-.4375.767-.77265,1.01385a6.34819,6.34819,0,0,1-7.47851.16133,4.74638,4.74638,0,0,1-1.449-6.12726c.4145-.7253.75911-1.572,1.69244-1.84775a4.692,4.692,0,0,0-.27356,4.66181A5.19834,5.19834,0,0,0,65.253,51.05119Z"/><path class="cls-12" d="M70.77244,43.59156a2.68288,2.68288,0,0,1-1.63442,3.009,2.63241,2.63241,0,0,0,.13111-.85963c-.216-1.12012.626-1.60536,1.26479-2.21589C70.60863,43.45364,70.71668,43.48239,70.77244,43.59156Z"/><path class="cls-12" d="M64.468,42.83133A2.91119,2.91119,0,0,1,66.12017,41.43c.15476-.06973.44.02048.41984-.29976.29777-.05688.589.00952.30064.33731C66.21509,42.17861,65.60113,42.97607,64.468,42.83133Z"/><path class="cls-12" d="M69.42087,50.18288a.31249.31249,0,0,1,.28148-.19663C69.686,50.16235,69.56632,50.191,69.42087,50.18288Z"/><path class="cls-12" d="M61.57567,43.06731a.31285.31285,0,0,1-.21083.25624C61.36424,43.18,61.392,43.05965,61.57567,43.06731Z"/><path class="cls-12" d="M61.78838,42.85252q-.10825.10905-.21634.21832C61.55611,42.91113,61.66,42.8697,61.78838,42.85252Z"/><path class="cls-12" d="M64.35785,43.00909q.0575-.08838.11491-.1769Q64.4152,42.9205,64.35785,43.00909Z"/><path class="cls-12" d="M69.69331,49.99793l.17451-.16061A.1657.1657,0,0,1,69.69331,49.99793Z"/><path class="cls-2" d="M156.38985,40.35323a6.05971,6.05971,0,0,1,5.31084-1.80463c-.96205.37516-1.98141.67057-2.43615,1.7506-.895,1.42267.01351,3.632,2.34929,4.04119a2.77808,2.77808,0,0,0,2.46858-.44889c.96418-.17286,1.74476-1.54392,1.64166-2.778a4.604,4.604,0,0,1-.72786,5.70736c-.15226.16119-.31254.31481-.46919.4721l-.18064.152.00113-.008c-.12155.01974-.22941.05821-.26637.19408l.00269-.00387c-.24835.10547-.49852.2068-.74475.317a5.66318,5.66318,0,0,1-7.97674-3.74532,5.06192,5.06192,0,0,1,.677-3.41718l-.00473.00478.13541-.16511.00095-.00159Z"/><path class="cls-12" d="M156.03931,40.78162a5.06192,5.06192,0,0,0-.677,3.41718,5.66318,5.66318,0,0,0,7.97674,3.74532c.24623-.11018.4964-.21151.74475-.317a.52919.52919,0,0,1-.25806.50346c-1.77846,1.48077-3.72451,2.30041-6.09423,1.64086-3.43035-.95478-5.42959-4.7016-2.58074-8.16747C155.40206,41.29832,155.51459,40.80528,156.03931,40.78162Z"/><path class="cls-12" d="M165.72407,41.11346c.1031,1.23412-.67748,2.60518-1.64166,2.778a2.60714,2.60714,0,0,1,1.21337-2.73126C165.41973,41.07073,165.54367,40.76831,165.72407,41.11346Z"/><path class="cls-12" d="M159.26454,40.2992c.45474-1.08,1.4741-1.37544,2.43615-1.7506.4886.04566.21249.25281.08473.41788A3.24282,3.24282,0,0,1,159.26454,40.2992Z"/><path class="cls-12" d="M164.08114,47.631c.037-.13587.14482-.17434.26637-.19408C164.34948,47.62573,164.22869,47.64669,164.08114,47.631Z"/><path class="cls-12" d="M156.38985,40.35323l-.21891.26647C156.17517,40.47451,156.22913,40.37008,156.38985,40.35323Z"/><path class="cls-12" d="M156.17,40.62129l-.13541.16511Z"/><path class="cls-12" d="M164.34638,47.445l.18064-.152C164.51262,47.39775,164.45847,47.4557,164.34638,47.445Z"/><path class="cls-13" d="M133.69507,118.03014c-11.00821-.03023-20.88931-8.547-22.6149-19.77125a23.773,23.773,0,0,1,13.164-25.39425,23.123,23.123,0,0,1,30.26846,10.15678,23.82325,23.82325,0,0,1-12.26056,33.47819A23.544,23.544,0,0,1,133.69507,118.03014Zm21.098-17.99995c.29195-.85368.29028-.8454-.73692-1.0518-2.8571-.57409-5.71964-1.11466-8.60022-1.56236-1.16987-.18183-1.16269-.228-1.64586.80535a10.35254,10.35254,0,0,1-16.14639,4.40891,11.01458,11.01458,0,0,1-3.867-6.35137c.13326-.82821-.26033-1.03438-1.03909-1.03314-3.07507.00488-6.147-.21565-9.22412-.15559-1.015.01982-1.01534.00293-.89689,1.05663a14.04708,14.04708,0,0,0,.30825,2.43352,21.60032,21.60032,0,0,0,25.11,17.25828C145.86764,114.43385,153.01964,107.76666,154.79309,100.03019Zm-42.19253-6.73568c-.19.74362.08282.92275.84782.93169,3.09866.0362,6.19952.042,9.29491.23258.9298.05724.93025.04983.88095-.86875.04481-.24342.10253-.48528.1325-.73051a10.42155,10.42155,0,0,1,19.71284-3.405,11.67889,11.67889,0,0,1,1.08826,6.071c-.36027.74962.02581.94156.70234,1.02733,3.167.40154,6.2937,1.0397,9.41406,1.69982.51264.10845.61857-.023.61687-.46008-.00057-.14777.01543-.2956.02386-.44341a20.64656,20.64656,0,0,0-.33291-8.05243,21.49366,21.49366,0,0,0-18.74825-16.68822c-8.49575-.726-15.21838,2.5807-20.046,9.585A20.28993,20.28993,0,0,0,112.60056,93.29451Zm13.088,1.09447a8.38476,8.38476,0,1,0,8.3123-8.55451A8.42888,8.42888,0,0,0,125.68856,94.389Z"/><path class="cls-13" d="M96.22881,87.61752c3.63047,0,7.05717,0,10.48386,0a2.06551,2.06551,0,0,1,2.39686,1.96835,22.552,22.552,0,0,1-.55253,11.77793c-2.98066,8.905-9.08928,14.46807-18.333,16.18916-11.59411,2.15869-22.96135-5.16705-26.24978-16.63218a23.39323,23.39323,0,0,1,19.003-29.63267c8.61249-1.21371,15.76729,1.7765,21.43619,8.3577.31937.37076.08453.48846-.13034.68283q-3.54036,3.20256-7.08022,6.40569C96.9277,86.98328,96.65307,87.23281,96.22881,87.61752ZM85.8969,94.48947c-.04862.92849-.04663.95594.85944.89041,2.52392-.18253,5.04336-.43916,7.56947-.57671,4.31715-.23507,8.63465-.48738,12.96107-.50062,1.00015-.00306,1.00009-.0221.93482-1.00424a1.581,1.581,0,0,1-.11143-.4879,13.62576,13.62576,0,0,0-.35223-3.16578c-.07467-.57445-.36049-.6887-.89532-.68324-2.63346.02695-5.26737.00929-7.90111.01292q-6.484.00891-12.96806.02458c-.09572-.02013-.1378.00966-.10321.11078ZM64.62955,97.19552c.0517,1.00212.05287,1.00972.997.86515.90034-.13786,1.79568-.30926,2.6971-.43889,2.29366-.32984,4.586-.67337,6.88644-.94866.73682-.08815.91723-.34787.61929-.99428a12.11237,12.11237,0,0,1,.55428-4.699,10.56587,10.56587,0,0,1,17.42517-3.938c.34532.34492.52293.50354.97594.0841,2.51706-2.33057,5.06982-4.62282,7.62507-6.91182.31828-.28512.32093-.445.02707-.75167C97.151,73.94563,90.69037,71.549,83.1443,72.64073A21.78065,21.78065,0,0,0,65.02954,89.29259,20.14009,20.14009,0,0,0,64.62955,97.19552ZM108.163,96.2844c.19959-1.19287.19938-1.20119-.954-1.17251-1.51275.0376-3.0257.07637-4.53755.13911-2.4033.0997-4.80813.18326-7.208.34022-3.01538.19722-6.02575.47019-9.04.68641-.39256.02815-.61583.09135-.55566.53755.02961.21959.02083.44434.02943.66676a5.82035,5.82035,0,0,1-.03045.66755c-.09813.627.09315.85131.78389.82673,1.68709-.06,3.37775-.01957,5.067-.01957h4.12267c-.06722.171-.09473.26182-.13692.34526a10.59,10.59,0,0,1-19.20123-.96725c-.07011-.748-.43348-1.03534-1.20125-.858a18.33153,18.33153,0,0,1-1.97277.29937c-2.56845.30409-5.11681.741-7.67362,1.12231-.75347.11238-.82937.39749-.52739.98168a.9808.9808,0,0,0,.0067.22185A21.81555,21.81555,0,0,0,95.79,114.33677C103.2328,110.70244,107.32558,104.552,108.163,96.2844ZM92.30154,87.61679a9.12182,9.12182,0,1,0,1.01028,12.69673h-.7612c-2.46268,0-4.92557-.017-7.38787.01338-.53487.00658-.65111-.14936-.64757-.66276.02361-3.43038.01226-6.861.01226-10.29155,0-1.7558,0-1.75581,1.76956-1.75581Z"/><path class="cls-13" d="M111.25282,34.69l-3.992,4.41653a3.37374,3.37374,0,0,1,.54426-4.29719,10.472,10.472,0,0,1,1.83942-.24749C110.18818,34.54779,110.704,34.82,111.25282,34.69Z"/><path class="cls-7" d="M111.25282,34.69c-.54885.12994-1.06464-.14225-1.60833-.12815a10.472,10.472,0,0,0-1.83942.24749,3.91556,3.91556,0,0,1,3.438-1.11606c.6138.091.61481.31449.23569.70554A3.21213,3.21213,0,0,0,111.25282,34.69Z"/><path class="cls-7" d="M42.51542,37.9298c-.26972-.88345-.13146-1.09368.79235-1.012a2.77982,2.77982,0,0,1,2.549,1.38892,3.5019,3.5019,0,0,1-.42715,3.57952c-.12093.18487-.26631.35377-.40039.53-.35594-.2888-.02287-.58207.01571-.85834C45.33315,39.4942,44.65343,38.00831,42.51542,37.9298Z"/><path class="cls-13" d="M42.51542,37.9298c2.138.07851,2.81773,1.5644,2.52954,3.62817-.03858.27627-.37165.56954-.01571.85834a2.92416,2.92416,0,0,1-.85677.84041Z"/><path class="cls-16" d="M144.55784,95.52553a11.67889,11.67889,0,0,0-1.08826-6.071,10.42155,10.42155,0,0,0-19.71284,3.405c-.03.24523-.08769.48709-.13251.73057a5.79773,5.79773,0,0,0-.79934-.13013q-3.51673-.09126-7.0341-.15793c-1.0631-.01917-2.12681-.006-3.19023-.00752a20.28993,20.28993,0,0,1,3.58727-11.101c4.8276-7.0043,11.55023-10.311,20.046-9.585a21.49366,21.49366,0,0,1,18.74825,16.68822,20.64643,20.64643,0,0,1,.33293,8.05231c-1.574-.13536-3.08838-.59519-4.6408-.85423C148.6378,96.155,146.618,95.71562,144.55784,95.52553Z"/><path class="cls-16" d="M123.79675,96.27893a11.01459,11.01459,0,0,0,3.867,6.35136,10.35256,10.35256,0,0,0,16.14639-4.40882,40.70412,40.70412,0,0,1,5.68683.84181c1.76923.29962,3.53108.64286,5.29617.96691-1.77345,7.73647-8.92545,14.40366-16.73818,15.80843a21.60032,21.60032,0,0,1-25.11-17.25828,14.04706,14.04706,0,0,1-.30825-2.43354Q118.21671,96.21285,123.79675,96.27893Z"/><path class="cls-14" d="M125.68856,94.389a8.3847,8.3847,0,1,1,8.45033,8.48828A8.44649,8.44649,0,0,1,125.68856,94.389Zm2.97426.374c-.57158,0-1.145.02838-1.71416-.009-.45651-.02995-.54227.14673-.48686.55753a8.06372,8.06372,0,0,0,.704,2.4137,7.6569,7.6569,0,0,0,8.07193,4.34018,7.81835,7.81835,0,0,0,6.43852-6.63513c.067-.49644-.00874-.70747-.58294-.6813-1.0664.04858-2.13708.03255-3.205.0049-.43667-.01131-.60889.09968-.74625.55964a3.0534,3.0534,0,0,1-2.70576,2.32216,2.83042,2.83042,0,0,1-3.17651-1.68932c-.39741-1.18664-1.08124-1.31663-2.07551-1.18662A4.06578,4.06578,0,0,1,128.66282,94.763Zm10.76807-.822c.54656,0,1.09534-.03068,1.63908.00852.55724.04017.68137-.17334.59091-.69369a7.74564,7.74564,0,0,0-2.62243-4.79543,7.22313,7.22313,0,0,0-7.71966-1.33071,7.54328,7.54328,0,0,0-4.84383,6.19953c-.07284.43389.05007.6349.538.62084,1.01774-.02932,2.03809-.03779,3.05505.0028a.80413.80413,0,0,0,.93718-.6746,3.05844,3.05844,0,0,1,2.74994-2.18524,2.77616,2.77616,0,0,1,3.05683,1.66336,1.66554,1.66554,0,0,0,2.09753,1.18771A4.30712,4.30712,0,0,1,139.43089,93.94093Zm-5.38114,2.97189a2.52036,2.52036,0,0,0,2.51367-2.50043,2.5102,2.5102,0,1,0-5.01905-.07245A2.50005,2.50005,0,0,0,134.04975,96.91282Z"/><path class="cls-9" d="M123.79675,96.27893q-5.58-.06607-11.1601-.13213c-.11845-1.05368-.11812-1.03679.89689-1.05661,3.07713-.06006,6.14905.16047,9.22412.15559C123.53642,95.24454,123.93,95.45071,123.79675,96.27893Z"/><path class="cls-9" d="M154.79309,100.03019c-1.76509-.324-3.52694-.66729-5.29617-.96691a40.70412,40.70412,0,0,0-5.68683-.84181c.48317-1.03342.476-.98727,1.64586-.80544,2.88058.4477,5.74312.98827,8.60022,1.56236C155.08337,99.18479,155.085,99.17651,154.79309,100.03019Z"/><path class="cls-9" d="M144.55784,95.52553c2.06014.19009,4.08.62949,6.11635.96931,1.55242.259,3.0668.71887,4.6408.85423-.00845.14793-.02445.29576-.02388.44353.0017.437-.10423.56853-.61687.46008-3.12036-.66012-6.247-1.29828-9.41406-1.69982C144.58365,96.46709,144.19757,96.27515,144.55784,95.52553Z"/><path class="cls-9" d="M112.60056,93.29451c1.06342.00152,2.12713-.01165,3.19023.00752q3.51736.06342,7.0341.15793a5.79773,5.79773,0,0,1,.79934.13013c.04931.91852.04886.92593-.88094.86869-3.09539-.19056-6.19625-.19638-9.29491-.23258C112.68338,94.21726,112.41051,94.03813,112.60056,93.29451Z"/><path class="cls-16" d="M76.50223,98.33467a10.59,10.59,0,0,0,19.20123.96725c.04219-.08344.0697-.17429.13692-.34526H91.71771c-1.68923,0-3.37989-.04045-5.067.01957-.69074.02458-.882-.19974-.78389-.82673a5.8178,5.8178,0,0,0,.03044-.66751c2.36711-.19713,4.73242-.42043,7.10184-.58447,2.59491-.17963,5.192-.37614,7.79108-.43255,2.45775-.05333,4.91183-.276,7.37282-.18056-.83744,8.26758-4.93022,14.418-12.373,18.05237A21.81555,21.81555,0,0,1,65.1339,100.10191a.98171.98171,0,0,1-.0067-.222Q70.81472,99.10718,76.50223,98.33467Z"/><path class="cls-16" d="M64.62955,97.19552a20.14009,20.14009,0,0,1,.4-7.90293A21.78065,21.78065,0,0,1,83.1443,72.64073C90.69037,71.549,97.151,73.94563,102.437,79.46242c.29386.30669.29121.46655-.02707.75167-2.55525,2.289-5.108,4.58125-7.62507,6.91182-.453.41944-.63062.26082-.97594-.0841a10.56587,10.56587,0,0,0-17.42517,3.938,12.11249,12.11249,0,0,0-.55428,4.69907c-1.50465.06838-2.9851.3424-4.47354.5418C69.11054,96.52149,66.87135,96.86828,64.62955,97.19552Z"/><path class="cls-16" d="M92.30154,87.61679H86.297c-1.76956,0-1.76956,0-1.76956,1.75581,0,3.43055.01135,6.86117-.01226,10.29155-.00354.5134.1127.66934.64757.66276,2.4623-.03036,4.92519-.01338,7.38787-.01338h.7612a9.1376,9.1376,0,1,1-1.01028-12.69673Z"/><path class="cls-16" d="M85.99355,88.99888q6.484-.01261,12.96806-.02457c2.63374-.00363,5.26765.014,7.90111-.01292.53483-.00546.82065.10879.89532.68324a13.62576,13.62576,0,0,1,.35223,3.16578,1.5803,1.5803,0,0,0,.11143.48784q-4.19884.14811-8.39765.29679c-1.43678.0515-2.87919.04752-4.30784.185-.8171.07861-1.63289.07782-2.44728.14218q-3.586.28341-7.172.56727l-.00656-5.37961Z"/><path class="cls-9" d="M108.163,96.2844c-2.461-.0954-4.91507.12723-7.37282.18056-2.59905.05641-5.19617.25292-7.79108.43255-2.36942.164-4.73473.38734-7.10184.58447-.00859-.22246.00019-.44721-.02942-.6668-.06017-.4462.1631-.5094.55566-.53755,3.01426-.21622,6.02463-.48919,9.04-.68641,2.39983-.157,4.80466-.24052,7.208-.34022,1.51185-.06274,3.0248-.10151,4.53755-.13911C108.3624,95.08321,108.36261,95.09153,108.163,96.2844Z"/><path class="cls-9" d="M85.8969,94.48947q3.586-.28368,7.172-.56727c.81439-.06436,1.63018-.06357,2.44728-.14218,1.42865-.13746,2.87106-.13348,4.30784-.185q4.19876-.15051,8.39765-.29679c.06527.9822.06533,1.00124-.93482,1.0043-4.32642.01324-8.64392.26555-12.96107.50062-2.52611.13755-5.04555.39418-7.56947.57671C85.85027,95.44541,85.84828,95.418,85.8969,94.48947Z"/><path class="cls-9" d="M76.50223,98.33467q-5.68752.77256-11.375,1.54526c-.302-.58406-.22608-.86917.52739-.98155,2.55681-.38133,5.10517-.81822,7.67362-1.12231A18.33153,18.33153,0,0,0,75.301,97.4767C76.06875,97.29933,76.43212,97.58669,76.50223,98.33467Z"/><path class="cls-9" d="M64.62955,97.19552c2.2418-.32724,4.481-.674,6.72633-.97484,1.48844-.1994,2.96889-.47342,4.47354-.5418.29794.64637.11753.90609-.61929.99424-2.30041.27529-4.59278.61882-6.88644.94866-.90142.12963-1.79676.301-2.6971.43889C64.68242,98.20524,64.68125,98.19764,64.62955,97.19552Z"/><path class="cls-9" d="M85.99355,88.99888l-.10321.111C85.85575,89.00855,85.89783,88.97876,85.99355,88.99888Z"/><path class="cls-15" d="M128.66282,94.76292a4.06036,4.06036,0,0,0,.52147-.00321c.99427-.13,1.6781,0,2.07551,1.18662a2.83042,2.83042,0,0,0,3.17651,1.68932,3.0534,3.0534,0,0,0,2.70576-2.32216c.13736-.46.30958-.57095.74625-.55964,1.0679.02765,2.13858.04368,3.205-.0049.5742-.02617.64995.18486.58294.6813a7.81835,7.81835,0,0,1-6.43852,6.63513,7.6569,7.6569,0,0,1-8.07193-4.34018,8.06372,8.06372,0,0,1-.704-2.4137c-.05541-.4108.03035-.58748.48686-.55753C127.51779,94.79133,128.09124,94.763,128.66282,94.76292Z"/><path class="cls-17" d="M139.43089,93.941a4.297,4.297,0,0,0-.52135.003,1.66554,1.66554,0,0,1-2.09753-1.18771,2.77616,2.77616,0,0,0-3.05683-1.66336,3.05844,3.05844,0,0,0-2.74994,2.18524.80413.80413,0,0,1-.93718.6746c-1.017-.04059-2.03731-.03212-3.05505-.0028-.488.01406-.61089-.18695-.538-.62084a7.54328,7.54328,0,0,1,4.84383-6.19953,7.22313,7.22313,0,0,1,7.71966,1.33071,7.74564,7.74564,0,0,1,2.62243,4.79543c.09046.52035-.03367.73386-.59091.69369C140.52623,93.91025,139.97745,93.94093,139.43089,93.941Z"/><path class="cls-13" d="M134.04975,96.91282a2.50005,2.50005,0,0,1-2.50538-2.57288,2.5102,2.5102,0,1,1,5.01905.07245A2.52036,2.52036,0,0,1,134.04975,96.91282Z"/></svg>