<svg xmlns="http://www.w3.org/2000/svg" viewBox="0 0 1275.5 287" width="223.25536" height="134.51135"><path fill="#ffffff" d="M696.2 91.7h28.4v79c0 40.1-22.1 63.1-60.6 63.1-38.1 0-60-22.6-60-62v-80h28.4v79.1c0 23.4 11.5 35.9 32 35.9s31.8-12.2 31.8-34.9V91.7zm-160 56.4H472V91.7h-28.4v140H472v-56.9h64.1v56.9h28.4v-140h-28.4v56.4zm711.2-56.4v139.8h28V91.7h-28zm-111.5 79.7h51.7v-25.5h-51.7v-28.7h75V91.8h-103v139.8h105.7v-25.5h-77.7v-34.7zm-111.4 16.5l-31.8-96.3h-23.2l-31.8 96.3-30.9-96.2h-30.2l48.8 139.9h23.5l31.8-91.9 31.8 91.9h23.7l48.7-139.9h-29.5l-30.9 96.2zM826.1 92.5l61.1 139.1h-29.8l-12.6-29.1h-64.1l-.9 2-11.8 27.1h-29l61.7-139.9h24.8l.6.8zm6.8 81.4L812.7 127l-20.1 46.9-1.4 3.2h43l-1.3-3.2z"/><path fill="#CE0E2D" d="M164 216.8c.4-.3.5-.9.3-1.4A839.8 839.8 0 0061.8 49s-32.2 30.6-29.9 61.3a54 54 0 0018.7 36.9c28.1 27.4 96.1 62 111.9 69.9.5.2 1.1.1 1.5-.3m-10.5 23.4c-.2-.6-.8-1-1.5-1l-113.2 3.9c12.3 21.9 33 38.9 54.5 33.7 14.9-3.7 48.5-27.2 59.6-35.2.9-.7.6-1.3.6-1.4m1.7-10.1c.6-.9-.4-1.7-.4-1.7-49.7-33.6-146.1-85.2-146.1-85.2a67 67 0 0060.4 87.7c1.7.3 67.3 0 84.9-.1.5-.1.9-.3 1.2-.7m7.5-230c-4.9.4-18.2 3.5-18.2 3.5-30 7.7-37.1 35-37.1 35-5.5 17.1.1 36 .1 36 10 44.4 59.2 117.5 69.8 132.8.7.8 1.3.5 1.3.5.6-.2 1.1-.7 1.1-1.4C196.1 43.3 162.7.1 162.7.1m37.5 207.6c.6.2 1.3 0 1.6-.6 10.9-15.7 59.8-88.4 69.8-132.6 0 0 5.4-21.4.2-36 0 0-7.4-27.7-37.4-35 0 0-8.6-2.2-17.8-3.5 0 0-33.6 43.2-17.2 206.4-.1.6.3 1.1.8 1.3m26.8 31.6a2 2 0 00-1.3.9c-.1.6 0 1.1.4 1.5 10.8 7.8 43.7 30.8 59.5 35.2 0 0 29.3 10 54.7-33.7L227 239.3zM370.5 143s-96.2 51.7-146 85.3c-.5.4-.8 1-.6 1.6 0 0 .5.9 1.2.9 17.8 0 85.2.1 87-.2 6.7-.5 13.3-2 19.5-4.5 0 0 24-7.6 36.4-34.9 0 0 11.1-22.2 2.5-48.2m-155.1 73.8c.4.3 1 .4 1.5.1 16.2-8.1 83.7-42.4 111.6-69.7 0 0 17.7-14.2 18.6-37.1 2-31.7-29.9-61.1-29.9-61.1s-59 71.5-102.3 166a2 2 0 00.5 1.8"/></svg>