<svg id="Layer_1" data-name="Layer 1" xmlns="http://www.w3.org/2000/svg" viewBox="0 0 215 127"><defs><style>.cls-1{fill:#fbfbfb;}</style></defs><title>kubernetes.io-logos</title><rect class="cls-1" x="-3.55202" y="-3.16104" width="223.25536" height="134.51136"/><path d="M65.2004,35.09807l-1.397-1.01862-.75669-.40744-.75668-.37834-.78579-.291-.78579-.17462-.8731-.14551-.9022-.02911v.98952l.52386.0582.40745.08731.37834.14552.32014.17462.291.23283.291.291.40744.69848.32014.9313.23282,1.10593.17463,1.30965.14551,1.45516.08731,3.34688v7.39224l-.08731,3.31777-.14551,1.48427-.17463,1.30965-.23282,1.10592-.32014.8731-.40744.69848-.291.32014-.291.23282-.32014.17462-.37834.14552-.40745.08731h-.52386v.98951l.93131-.05821.8731-.08731.78578-.23282.78579-.291.75669-.37834.75669-.40744,1.397-1.01862,1.01861-1.01861.93131-1.16413.844-1.33876.64027-1.48427.553-1.57157L69.595,50.843l.23282-1.77531.08731-1.92082-.08731-1.86261-.23282-1.8044-.37835-1.65889-.553-1.62979-.64027-1.48427-.844-1.30965-.93131-1.22233m-7.30493-3.5215-.8731.05821-.8731.14552-.844.23282-.75669.32014-.75668.37835-.75669.40744-.64027.52386-.64027.553-.93131.93131-.8731,1.10592-.844,1.25144-.69848,1.397-.61117,1.57158L48.3787,43.247l-.291,1.86261-.08731,2.00813.08731,1.92082.23283,1.7753.37835,1.71709.553,1.57158.64027,1.48427.844,1.33875.93131,1.16413L52.686,59.10829l1.397,1.01862.69848.40744.75669.37834.78579.291.844.23282.8731.08731.8731.05821v-.9895h-.46566l-.40744-.08731-.37835-.14551-.32013-.17462-.291-.23283-.291-.32014-.40744-.69847-.32014-.8731-.291-1.10592L55.59631,55.645l-.14552-1.48427L55.36348,50.843l-.0582-3.72521.0582-3.667.08731-3.34688.14552-1.45517.14552-1.30964.291-1.10593.32014-.9313.40744-.69848.291-.291.291-.23283.32013-.17462.37835-.14552.40744-.08731.46566-.05821v-.96042ZM180.886,39.52177l.05821-1.33875.23282-1.16413.17461-.46566.291-.46565.32013-.46565.40746-.37835.61116-.40744.61116-.17462.64028-.05821.553.05821.553.23282.40745.37835.291.52386.23283.61117.14551.69848.05821.75668.05821,1.65889V61.08731h7.10121V41.006l-.05821-1.07683-.0873-.96041-.17462-.9313-.23282-.844-.291-.78579-.37834-.69848-.37834-.61117-.46565-.553-.553-.52386-.553-.40745-.61117-.32013-.69848-.291-.69849-.17462-.75668-.08731-.78579-.0582h-.844l-1.01862.14551-.93131.291-.8731.32014-.78579.46566-.64028.553-.61116.553-.46564.64027-.37834.64027v-3.114h-6.60645v27.881H180.886ZM163.77327,33.381l-1.25144-.37835-1.54247-.291-1.80441-.08731-1.01861.05821v1.07682h.23282l.64028.08731.553.17462.40744.291.37834.37835.23282.46565.17462.553.05821.64027v4.97667l-.05821.52386-.08731.40744-.23282.40745-.37834.32014-.553.37833-.78579.40745-.61118.291v1.62979l.37834-.291,2.32827-1.45517V53.98611l-.05821.98951-.14552.98951-.17462.844-.291.78579-.32014.69848-.40745.553-.46565.46566-.553.32014-.291.0873v1.25144l.75668-.37834.69848-.52386.61117-.52385.46565-.64028.37834-.69847L161.09575,61h6.86837V40.30756l-.05821-1.25144-.17462-1.10593-.23282-.93131-.32013-.844-.46564-.69848-.52386-.61117-.61116-.52386-.69849-.46565ZM158.15633,61V59.74857l-.17462.05821-.46566.05821-.46565-.08731-.46566-.17462-.37834-.32014-.291-.46565-.23282-.64028-.14552-.78579-.0873-1.80441v-1.7753l.05821-1.57158.05821-1.397.23282-1.54248.17462-.69847.291-.69848.37834-.64028.52386-.61117.61117-.61117.40744-.291V44.12009l-1.8044.78579-3.02674,1.33876-1.397.75669-.64028.40744-.553.46565-.553.49476-.52385.553-.40745.64028-.37834.69848-.291.78579-.23282.844-.14552.98951-.05821,1.01862.05821,1.16413.14552,1.01862.23282.93131.291.78579.37834.75669.40745.61117.46565.553.52386.40744.553.37834.553.32014,1.10592.40744,1.16413.23283,1.07683.05821,1.10592-.05821,1.01862-.17462.87309-.291h.02911Zm0-28.3175h-.05821l-1.01862.08731-1.01861.17462-.93131.23283-.8731.291-.844.32014-.75669.40744-.69848.40745-.61117.46565-.553.52386-.46565.553-.37834.61118-.291.61117-.17462.61117-.0873.64027-.05822.69848.14552.78578.291.69848.37834.553.46566.40745.46565.32013.553.23282.553.14552.49476.08731.7858-.05821.78579-.14552.69848-.23282.64027-.40745.553-.52386.37834-.69847.23283-.78579v-.9313l-.08731-.64027-.23282-.52386-.23283-.40745-.291-.37834-.40744-.75669-.14552-.37834-.05821-.46566.08731-.37834.23282-.291.23282-.23282.32014-.23283.75669-.23283.69847-.14551h.46566V32.6825ZM64.3273,70.48768l-1.25144-.40744-1.54248-.23283-1.7753-.0873-1.07682.05821v1.07682h.291l.64027.08731.52387.17462.46565.291.32014.37834.291.46566.14552.553.0582.64027v5.50053l-.14551.40744-.17463.37834-.37834.37834-.61117.37834-.78579.40744-.61117.291v1.65889l.40745-.32014,2.27005-1.48427V91.18013l-.0582.98951-.08731.93131-.17462.87309-.291.7858-.32014.69847-.40744.553-.52386.46565-.52386.32014-.32014.0873v1.25144l.78579-.40744.69848-.46566.553-.553.52386-.61117.37834-.69848V98.194h6.86838V77.47247l-.0582-1.30965L68.28534,75.086l-.291-.98951-.32014-.7858-.40745-.69847-.553-.61117-.61117-.52386-.69848-.46565Zm-5.61693,27.619V96.85527l-.17463.05821-.46565.05821-.46566-.08731-.40744-.17462-.37834-.32014-.32014-.46565-.17462-.64028-.14552-.78579-.14551-1.89171-.0582-1.77531.0582-1.62978.08731-1.33876.17463-1.54247.23282-.69848.23283-.69847.37834-.64028.52386-.64027.64028-.553.37834-.23282V81.19769l-1.7753.78579-3.085,1.33876-1.397.75668-.61117.40745-.61118.46565-.553.49476-.46565.553-.46566.64028-.32013.69848-.32014.75668-.17462.8731-.14552.93131-.05821,1.07683.05821,1.16413.14552,1.01861.23282.93131.291.7858.37834.75668.40744.61117.46566.49476.46565.46566.553.37834.553.32014,1.16413.40744,1.16413.17462,1.07682.08731,1.10593-.08731.98951-.14551Zm0-28.31751-1.07683.08731-.98951.17462-.9313.23282-.8731.291-.844.32013-.75669.37834-.69848.46566-.64027.46565-.52386.52386-.46565.553-.37835.553-.32014.64028-.17462.61117-.08731.64027v.64028l.14552.844.291.69848.32014.553.46565.40745.52386.32013.553.23283.52386.14551.553.08731L54.112,79.597l.75669-.14552.75669-.291.64027-.37834.52386-.553.40744-.64028.17463-.78579.0582-.9604-.14551-.64028-.17463-.52386-.23282-.46565-.291-.37834-.46565-.69848-.14552-.37834v-.46565l.08731-.37834.17463-.291.291-.291.32014-.17462.75668-.291.64028-.08731h.46565V69.7892Zm85.44727-8.731V40.97694l-.05821-1.07682-.0873-.96041-.17463-.93131-.23282-.844-.291-.78579-.32014-.69848-.40744-.61117-.46566-.553-.52385-.52386-.553-.40744-.61117-.34925-.69847-.291-.69848-.17462-.75669-.08731-.78579-.05821h-.844l-1.10592.17462-.98951.291-.8731.40745-.78579.52386-.64027.61117-.553.64027-.40744.69848-.32014.69848L130.45,35.651l-.61117-.8731-.69848-.69848-.78579-.61117-.93131-.40744-.96041-.291-1.10592-.14552h-1.16413l-1.01862.14552-.8731.291-.844.32014-.75669.46565-.64027.553-.553.553-.46565.64028-.37834.64027V33.119h-6.46093V61H119.187V39.46356l.05821-1.33875.23282-1.16413.23282-.52386.23283-.46566.32013-.40744.40745-.37834.61117-.40745.553-.17462.553-.05821.553.05821.553.23283.37834.37834.32014.52386.17462.61117.14552.69848.0873.75669.05821,1.65888V61.02911h7.0139V39.40536l.05821-1.30965.23282-1.10593.17462-.52386.291-.46565.32014-.40744.40744-.37835.61117-.40744.553-.17462.553-.05821.553.05821.553.23282.37834.37835.32014.52386.17462.61117.14552.69847.08731.75669.05821,1.65889V61.05821Zm-70.19714,0h7.21761V27.3857H73.9605Zm32.15914,0V27.3857h-7.1012v7.91609l-.291-.52386-.37834-.52386-.46565-.40744-.46566-.37835-.553-.291-.64027-.23283-.40745-.0582v1.10592l.46566.05821.49476.17462.46565.32014.32014.46565.52386.93131.37833,1.22234.291,1.397.17462,1.48427.14552,1.62979.0873,1.62978v3.17226l.05821,3.28867-.05821,1.7753-.0873,1.7171-.14552,1.65889-.291,1.48427-.40745,1.30964-.23282.52386-.32014.46566-.46565.553-.46566.37834-.553.23282-.37834.0873v1.19324l.291-.0873.7858-.291.64027-.40744.553-.46566.46566-.553.40744-.64027.32014-.69848V61.0291h6.83926ZM95.788,32.91532l-.291-.08731-.75669-.0582-.98951.0582-.93131.17462-.93131.32014-.8731.40745-.78579.553-.78579.61117-.75669.78579-.64028.844-.61117.9313-.553,1.01862-.46565,1.16413-.40745,1.19324-.32014,1.25144-.291,1.397-.14552,1.397-.08731,1.54247.05821,2.241.291,2.41557.23283,1.25144.32013,1.19323.37834,1.19324.46566,1.16413.553,1.10592.64027,1.01862.75669.93131.844.78579.93131.64028,1.01862.46565,1.16413.32014,1.30965.08731,1.07682-.05821.61118-.08731V59.89407h-.32014l-.49476-.0873-.46566-.23283-.40744-.32013-.37834-.49476-.32014-.61117-.291-.75669-.17462-.8731-.17462-1.01862-.14552-2.00812-.14552-2.32827-.05821-4.91845.05821-3.05585.17462-2.7066.32014-2.35737.23282-1.07682.32014-1.07683.32014-.75668.46566-.64027.23282-.291.32014-.17462.32013-.14552.37834-.0582.23283.0582V32.91532ZM127.30683,69.731l-1.01861.05821-.98951.08731-.8731.23282-.844.23283-.7858.37833-.75668.37834-.64028.46566-.61117.52385-.553.553-.46566.61118-.37834.64027-.32013.64028-.23283.69848-.17462.75668-.14551.7858-.05821.78579.05821.69848.0873.69847.17462.64028.23283.553.291.553.32014.553.844.93131,1.01862.93131,1.22234.844,2.93943,1.77531,1.397.844,1.16413.844.96041.7858.78579.75668.61117.844.40744.844.23283.844.0873.98951-.0873,1.01861-.23283.8731-.37834.78579-.52385.69848-.64028.52386-.75669.40744-.844.23282-.93131.05821h-.78579l-.69848-.0873-.64027-.17463-.61118-.23282-.553-.291-.52385-.37834-.40745-.46565-.46565-.46566-.75669-1.19324-.64027-1.48427-.553-1.8044-.553-2.03723h-.93131l-.05821,9.7787h7.47956l.98951-.05821.98951-.0873.9313-.14552.93131-.23282.93131-.291.844-.32014.78579-.40745.75669-.49476.69847-.553.61118-.64027.553-.75669.46565-.78579.37834-.8731.291-1.01862.17462-1.07682.05821-1.16413-.05821-.98951-.14551-.93131-.23282-.7858-.291-.75668-.32014-.69848-.46565-.61117-.46565-.553-.553-.49476-1.25143-.98951-1.397-.8731-3.25957-1.80441-1.25144-.78579-.98951-.75669-.78579-.69848-.553-.75668-.37834-.69848-.23283-.69848-.0873-.75669v-.75668l.14551-.75669.32014-.64028.46566-.553.52385-.46565.64028-.32014.64028-.23282.69847-.14552.69848-.05821.64028.08731.61117.14551.52385.17462.49476.291.52386.32013.40744.40745.75669.8731.64028,1.07682.52385,1.16414.37834,1.25143.32014,1.19324h1.01861V69.76005h-7.53777Zm-13.3002,8.32355-.05821-1.07683-.0873-.98951-.17462-.93131-.23283-.844-.291-.78579-.37834-.69848-.37834-.64028-.46565-.553-.553-.46565-.553-.40745-.61117-.32013-.69847-.291-.69848-.17462-.75669-.14552-.78579-.05821-.844.05821-.8731.08731-.7858.17462-.75668.291-.69848.37834-.61117.37834-.553.46566-.52386.46565-.40744.553V64.49238H94.15818V84.71917l-.0873,1.16413-.17463,1.16414-.23282,1.10592-.32014,1.10592-.40744,1.10592-.46566,1.01862-.52385,1.01861-.553.93131-.64028.8731-.64027.75669-.75669.69848-.75669.61117-.78579.46565-.844.37834-.8731.17462-.87309.08731-.64028-.05821-.61117-.08731-.52386-.17462-.46565-.17462-.40745-.23282-.37834-.32014-.64027-.69848-.46566-.844-.32013-.93131L80.53783,92.839l-.17462-1.07682-.37835-3.34688-.14551-3.81254.0582-2.03723.08731-2.12453.14552-2.15365.23283-2.24095.08731-.8731.17462-.93131.23283-.8731.37834-.844.46566-.75669.553-.553.32013-.17462.40745-.17463.40744-.0873.46566-.05821.64027.0873.46565.14552.37835.17462.17462.291.08731.32013v.291l-.14552.32013-.17462.291-.75669.93131-.37834.52385-.32014.553-.291.64028-.14552.69848v.75668l.17462.844.17463.46565.23282.40745.291.37834.37834.291.40744.291.40745.17462.93131.23283h.98951l.98951-.17463.46565-.17462.40745-.23282.40744-.291.32014-.32014.52386-.64028.32013-.75668.17463-.7858.0873-.78579-.05821-.78579-.17462-.78579-.23282-.69848-.37834-.64028-.553-.69848L89.0651,71.448l-.64028-.52385-.75669-.40745-.844-.291-.8731-.23282-1.01862-.14552-1.10592-.05821-.75669.05821-.844.14552-.8731.23282-.93131.32014-.9313.40744-.98951.553-.93131.69848-.8731.78579-.844.8731-.78579,1.07683-.75668,1.19323-.61118,1.33876-.52386,1.54247-.37834,1.62979-.291,1.86261-.05821,2.00812L72.50532,86.64l.291,1.94992.37834,1.7171.52386,1.48426L74.33883,93.13l.75668,1.16413.78579.98951.8731.844.98951.69848.98951.553.98951.40745.96041.37834,1.01862.23282.9313.14552,1.8044.14551.98951-.05821.93131-.17462.8731-.23282.844-.37834.75668-.40745.75669-.46565.69848-.553.61117-.61117.553-.61117.553-.69848.8731-1.45517.69848-1.45516L94.1,90.16144v8.00341h7.10121V76.5993l.05821-1.30965.23282-1.16413.23282-.46565.23282-.46566.37834-.46565.37834-.40745.61117-.37834.61118-.17462.64027-.05821.61117.05821.52386.23283.40744.37833.32014.52386.17462.61117.14552.64028.05821.78579.05821,1.65889V98.16485h7.1012V78.05454Zm-79.71393-51.28-1.8044.14552-1.7171.291-1.62978.52386-1.48427.69848-1.33875.844-1.25144.98951L23.961,31.37285l-1.01861,1.19323-.93131,1.33876-.75668,1.397L20.556,36.78607l-.553,1.54247-.40745,1.57158L19.2754,41.5299l-.17462,1.62979-.0582,1.62978v1.62979l.08731,1.57158.14551,1.57157.291,1.48427.32013,1.48427.40745,1.397.49475,1.33875.61117,1.25144.75669,1.16413.844,1.07683.96041.98951,1.07683.844,1.22233.75669,1.33876.553,1.54247.46565,1.62979.291-1.62979.553-1.57158.69847-1.42606.8731-.64027.52386-.61117.553-.553.61117-.46566.61117-.46565.69848-.37834.69848-.291.78579-.23283.78579-.14552.78579L22.273,71.71l.05821,1.01862.08731.93131.14552.844.23282.78579.32014.69848.37834.69848.46565.64027.52386.553.61117.61118.69848.52385,1.57158,1.10592,1.8044,1.10593,2.15365,1.22234,3.17226,1.80441,1.30965.844,1.07682.8731.9313.93131.32014.52385.32013.52386.23283.553.17462.553.14552.64028.0582.64027v1.30965L38.891,92.839l-.32013,1.16413-.23283.52386-.291.46565-.37835.40744-.37834.40745-.46565.32014-.46566.32013-.553.23283-.61117.14551-.69848.14552-.75668.05821-1.25144-.05821-.69848-.14552-.69848-.14551-.75669-.291-.75668-.32013-.75669-.46566-.75668-.553-.69848-.69848-.69848-.844-.69848-.98951L25.358,91.35475l-.61117-1.30965L24.223,88.50263l-.46565-1.71709L23.379,84.83561H22.21483v13.242H33.798l1.25144-.05821,1.22234-.17462,1.16413-.23282L38.6,97.29182l1.07682-.40745.98951-.49476.96041-.61117.844-.69847.78579-.75669.69848-.844.61117-.87309.49475-1.01862.40745-1.01861.291-1.10593L45.934,88.2989l.05821-1.25144L45.934,85.73781l-.17462-1.16413-.32014-1.07682-.37834-.98951-.49475-.844-.553-.78579-.64027-.75669-.69848-.64027-.78579-.61117-.78578-.553L39.444,77.327l-3.34688-1.77531L32.954,73.98008l-1.22234-.7858-.96041-.78579-.40745-.37834-.37834-.46565-.32013-.46566-.23283-.49476-.17462-.553L29.11231,69.44,28.9668,68.1012,29.025,67.49l.08731-.61117.32014-1.01862.52386-.93131.69848-.75669.8731-.61117.98951-.46565,1.10592-.291,1.19324-.08731,1.07682.08731,1.01862.291.9313.37834.78579.52385.75668.553.64028.64028.49475.64028.40745.64027.75668,1.45517.553,1.397.46565,1.48427.32013,1.71709h1.16414V43.829H32.60471v.98951l1.33875.14552.75669.17462.64027.291.37834.23283.32014.32013.291.40745.291.40744.17462.52386.17462.61117.08731.64028v6.752l-.0582,1.397-.14552,1.48427-.17462.69848-.23283.64027-.291.61117-.37834.46566-.61117.52385-.69848.40745-.8731.23282-.98951.08731-.96041-.08731-.75669-.291-.64027-.40745-.553-.52385-.37835-.61117L28.9959,59.312l-.40745-1.19324-.23282-1.19323L28.181,55.61586l-.32014-3.08495-.14552-3.5215L27.628,45.02225l.05821-2.241.08731-2.12454.14552-2.03723.23282-1.92082.291-1.71709.32013-1.54248.37835-1.30964.46565-.98951.40744-.75669.52386-.69848.553-.553.61117-.46565.64027-.37835.75668-.291.844-.17462.8731-.05821.78579.08731.69847.14552.69848.291.64028.32014.61116.46565.61117.46566.52386.61117.49476.64027.9313,1.45517.78579,1.62978.61117,1.77531.553,1.8044h1.01862V26.77449H34.2927Z"/></svg>