<svg id="Layer_1" data-name="Layer 1" xmlns="http://www.w3.org/2000/svg" xmlns:xlink="http://www.w3.org/1999/xlink" viewBox="0 0 215 127"><defs><style>.cls-1{fill:none;}.cls-2{fill:transparent;}.cls-3{clip-path:url(#clip-path);}.cls-4{fill:#201f1f;}</style><clipPath id="clip-path"><rect class="cls-1" x="47.10319" y="-14.44805" width="120.79362" height="154.67619"/></clipPath></defs><title>kubernetes.io-logos2</title><rect class="cls-2" x="-3.35417" y="-4.36563" width="223.25536" height="134.51136"/><g class="cls-3"><g class="cls-3"><path class="cls-4" d="M80.868,106.58157l1.88546,5.32249c.80525,2.29872,1.33635,3.86912,1.80771,5.30285.45091-1.39445,1.00084-2.96567,1.8069-5.28321l1.88464-5.34213H91.121l-5.18582,13.94535H83.0677l-5.16536-13.94535Z"/><path class="cls-4" d="M95.04747,116.34332a5.81875,5.81875,0,0,0,4.419,2.08185c1.55239,0,2.71116-.82488,2.71116-1.98365,0-1.17841-.94191-1.4141-2.53358-1.76762L98.17026,114.34c-3.00413-.66858-4.14408-1.74879-4.14408-3.83065,0-2.37647,2.239-4.16372,5.24475-4.16372a6.66312,6.66312,0,0,1,5.50007,2.3961l-1.92556,1.473a4.49767,4.49767,0,0,0-3.59415-1.53194c-1.39445,0-2.4362.766-2.4362,1.67023,0,.84371.55074,1.13831,2.04339,1.49184l1.66942.37316c3.16289.70705,4.43868,1.76762,4.43868,4.0066,0,2.78972-2.47466,4.5377-5.46,4.5377a7.9844,7.9844,0,0,1-6.28486-2.86747Z"/><path class="cls-4" d="M120.77807,110.82353l-2.80937.56956c-.491-1.64895-1.49265-2.67024-3.02459-2.67024-2.12195,0-3.39775,1.82571-3.39775,4.83148,0,3.02459,1.33554,4.83148,3.33883,4.83148,1.7488,0,2.88711-1.02129,3.39776-3.45667l2.49512.39281c-.59,3.61379-2.73081,5.44114-5.91252,5.44114-3.79055,0-6.34459-2.96648-6.34459-7.20876,0-4.2431,2.57368-7.20876,6.42315-7.20876a5.85377,5.85377,0,0,1,5.834,4.478"/><path class="cls-4" d="M137.09733,113.55425c0,4.22263-2.53276,7.20876-6.34377,7.20876-3.79056,0-6.38306-2.98613-6.38306-7.20876,0-4.22346,2.5925-7.20877,6.38306-7.20877,3.811,0,6.34377,2.98531,6.34377,7.20877m-9.70224,0c0,2.96566,1.257,4.83148,3.35847,4.83148,2.10231,0,3.30036-1.86582,3.30036-4.83148,0-2.94685-1.198-4.83149-3.30036-4.83149-2.1015,0-3.35847,1.88464-3.35847,4.83149"/><path class="cls-4" d="M107.50024,5.03238a40.917,40.917,0,1,0,40.917,40.917,40.96348,40.96348,0,0,0-40.917-40.917m39.31227,40.917a39.47023,39.47023,0,0,1-.2054,4.02788l-6.94854-.85845c.1023-1.04338.15713-2.09986.15713-3.16943,0-1.01065-.05238-2.0082-.144-2.99512l6.9518-.829c.12194,1.25942.189,2.53358.189,3.8241m-78.62535,0a39.5846,39.5846,0,0,1,.19968-3.95995l6.95017.8478c-.099,1.02457-.153,2.06222-.153,3.11215,0,1.0483.054,2.08268.15221,3.10561l-6.95016.8388c-.13012-1.29708-.19886-2.613-.19886-3.94441m69.84128-10.58033,6.54918-2.46647a38.94079,38.94079,0,0,1,1.85272,7.63021l-6.94607.82816a32.01254,32.01254,0,0,0-1.45583-5.9919m.18249,10.58033a30.68588,30.68588,0,0,1-.58839,5.978l-6.8847-1.59a23.49851,23.49851,0,0,0-.03027-8.94856l6.89124-1.55321a30.78019,30.78019,0,0,1,.61212,6.11382M107.50024,67.998A22.049,22.049,0,1,1,129.548,45.94941,22.07344,22.07344,0,0,1,107.50024,67.998m.748,8.64414.01227-7.059a23.49526,23.49526,0,0,0,8.78816-2.00084l3.04914,6.36423a30.5146,30.5146,0,0,1-11.84957,2.69562M94.80369,73.90229l3.072-6.35441a23.49229,23.49229,0,0,0,8.7808,2.03276l-.0131,7.05818a30.50258,30.50258,0,0,1-11.83975-2.73653M76.78792,45.94941a30.71827,30.71827,0,0,1,.63422-6.21857l6.88469,1.57694a23.5197,23.5197,0,0,0-.05973,8.94856L77.35749,51.821a30.78742,30.78742,0,0,1-.56957-5.8716m29.90953-30.69186v7.059a23.49154,23.49154,0,0,0-8.663,1.96239L94.9739,17.9188a30.51,30.51,0,0,1,11.72355-2.66125m13.4257,2.70544-3.08351,6.3495a23.472,23.472,0,0,0-8.73742-1.99594v-7.059A30.50154,30.50154,0,0,1,120.12315,17.963m17.34063,15.90362a32.313,32.313,0,0,0-2.85028-5.46814l5.76685-3.96077a39.24631,39.24631,0,0,1,3.63016,6.96325Zm-.22422,4.40513-6.89534,1.554a23.58723,23.58723,0,0,0-3.89857-8.02219l5.52789-4.3814a30.621,30.621,0,0,1,5.266,10.84956m-11.80293-7.71532a23.81538,23.81538,0,0,0-6.9518-5.54588l3.08269-6.34788a30.90213,30.90213,0,0,1,9.40192,7.50828Zm-2.05322-12.7342,3.26764-6.18746a39.46147,39.46147,0,0,1,6.44034,4.50987l-4.64981,5.22183a32.46159,32.46159,0,0,0-5.05817-3.54424m-1.4149-.75614a32.08248,32.08248,0,0,0-5.76767-2.23326l1.69314-6.7914a39.0394,39.0394,0,0,1,7.34052,2.84046ZM114.646,14.43921a32.24042,32.24042,0,0,0-6.23249-.78315v-6.996a39.19951,39.19951,0,0,1,7.92481.991Zm-7.83726-.78888a32.24565,32.24565,0,0,0-6.15637.71932L98.97886,7.57742a39.234,39.234,0,0,1,7.82988-.92308Zm-7.71613,1.09821a32.0502,32.0502,0,0,0-5.80612,2.1866l-3.24881-6.1932A38.98649,38.98649,0,0,1,97.41829,7.953ZM91.865,17.679a32.52732,32.52732,0,0,0-5.11381,3.51968L82.117,15.96377a39.45508,39.45508,0,0,1,6.4968-4.48123Zm1.66287.93455,3.06059,6.36014a23.796,23.796,0,0,0-6.97144,5.52053l-5.51644-4.40431a30.89616,30.89616,0,0,1,9.42729-7.47636M83.0916,27.33872l5.51316,4.40021a23.59366,23.59366,0,0,0-3.92722,8.00746l-6.888-1.57776a30.619,30.619,0,0,1,5.302-10.82991m-5.49352,6.37159-6.53936-2.48366a39.21948,39.21948,0,0,1,3.68826-6.987L80.50319,28.216a32.30037,32.30037,0,0,0-2.90511,5.49434m-.572,1.4992a32.03717,32.03717,0,0,0-1.49593,6.03526l-6.9428-.8478a38.98134,38.98134,0,0,1,1.89527-7.67276ZM75.52931,50.64832A32.00261,32.00261,0,0,0,77.0236,56.682l-6.54672,2.4763a39.031,39.031,0,0,1-1.892-7.67112Zm2.06549,7.53283a32.31329,32.31329,0,0,0,2.90184,5.49107l-5.76111,3.96895a39.21039,39.21039,0,0,1-3.68335-6.98536Zm.10966-4.793,6.88143-1.563a23.57417,23.57417,0,0,0,3.85275,8.10812l-5.52789,4.39694a30.61581,30.61581,0,0,1-5.20629-10.942m11.72846,7.8037A23.802,23.802,0,0,0,96.433,66.84492l-3.07123,6.35442a30.90651,30.90651,0,0,1-9.45348-7.613ZM91.84211,74.2059l-3.25944,6.19238a39.47811,39.47811,0,0,1-6.487-4.48205l4.64244-5.22838a32.44932,32.44932,0,0,0,5.104,3.51805m1.42064.74469a32.08322,32.08322,0,0,0,5.79631,2.18906l-1.68414,6.79386a39.01306,39.01306,0,0,1-7.37-2.79381Zm7.35525,2.56958a32.26679,32.26679,0,0,0,6.14574.72669l-.00983,6.996a39.25167,39.25167,0,0,1-7.81924-.93209Zm7.7505.72342a32.24043,32.24043,0,0,0,6.13592-.752l1.66369,6.7955a39.28048,39.28048,0,0,1-7.80943.95336Zm7.69322-1.13831a32.06937,32.06937,0,0,0,5.76931-2.203l3.24062,6.19811a39.038,39.038,0,0,1-7.34542,2.80446Zm7.18749-2.95258a32.418,32.418,0,0,0,5.07044-3.51477l4.6269,5.24147a39.42622,39.42622,0,0,1-6.45426,4.47551Zm-1.70706-.90426-3.05-6.36506a23.79821,23.79821,0,0,0,7.01973-5.62854l5.50907,4.41249a30.88628,30.88628,0,0,1-9.47884,7.58111m10.48049-8.834-5.50989-4.41331a23.576,23.576,0,0,0,3.87975-8.09667l6.87816,1.5884a30.60654,30.60654,0,0,1-5.248,10.92158M137.4,58.19179l6.53609,2.49348a39.29307,39.29307,0,0,1-3.66208,6.94117l-5.75129-3.98532A32.2271,32.2271,0,0,0,137.4,58.19179m.57284-1.4992a32.01282,32.01282,0,0,0,1.48938-5.98126l6.942.85763a38.95407,38.95407,0,0,1-1.89119,7.61875Zm1.49839-33.57652-5.76439,3.95832a32.66153,32.66153,0,0,0-4.07044-4.63673l4.65146-5.22427a39.5884,39.5884,0,0,1,5.18337,5.90268M80.91154,17.02271l4.63754,5.2382a32.56366,32.56366,0,0,0-4.13017,4.63753L75.666,22.92376a39.64439,39.64439,0,0,1,5.24557-5.90105M75.65288,68.95706l5.75867-3.9665a32.63142,32.63142,0,0,0,4.12362,4.63427l-4.64409,5.23083a39.62273,39.62273,0,0,1-5.2382-5.8986m58.49663,5.86013-4.63018-5.24474a32.59461,32.59461,0,0,0,4.08925-4.61135l5.748,3.98205a39.62078,39.62078,0,0,1-5.2071,5.874"/></g></g></svg>