<?xml version="1.0" encoding="UTF-8" standalone="no" ?>
<!DOCTYPE svg PUBLIC "-//W3C//DTD SVG 1.1//EN" "http://www.w3.org/Graphics/SVG/1.1/DTD/svg11.dtd">
<svg xmlns="http://www.w3.org/2000/svg" xmlns:xlink="http://www.w3.org/1999/xlink" version="1.1" width="230" height="140" viewBox="0 0 230 140" xml:space="preserve">
<desc>Created with Fabric.js 5.2.4</desc>
<defs>
</defs>
<g transform="matrix(1 0 0 1 115 70)" id="0245ab6c-7485-4ae5-83f4-52b3f2bf92e3"  >
<rect style="stroke: none; stroke-width: 1; stroke-dasharray: none; stroke-linecap: butt; stroke-dashoffset: 0; stroke-linejoin: miter; stroke-miterlimit: 4; fill: rgb(255,255,255); fill-rule: nonzero; opacity: 1;" vector-effect="non-scaling-stroke"  x="-115" y="-70" rx="0" ry="0" width="230" height="140" />
</g>
<g transform="matrix(Infinity NaN NaN Infinity 0 0)" id="ec9ac083-e3e1-4b88-87a9-a329493d7a6f"  >
</g>
<g transform="matrix(0.2 0 0 0.2 115 70)" id="4d80ee1f-0dda-4dc4-911f-7f37311f9e33"  >
<path style="stroke: rgb(0,0,0); stroke-width: 0; stroke-dasharray: none; stroke-linecap: butt; stroke-dashoffset: 0; stroke-linejoin: miter; stroke-miterlimit: 4; fill: rgb(0,0,0); fill-rule: nonzero; opacity: 1;" vector-effect="non-scaling-stroke"  transform=" translate(-504.58, -505)" d="M 504.58 191 C 331.15999999999997 191 190.57999999999998 331.58000000000004 190.57999999999998 505 C 190.57999999999998 678.42 331.15999999999997 819 504.58 819 C 678 819 818.5799999999999 678.42 818.5799999999999 505 C 818.5799999999999 331.58000000000004 677.9999999999999 191 504.5799999999999 191 Z M 659.19 645.49 L 613.9300000000001 600.23 C 634.08 577.11 647.0200000000001 547.53 649.23 515.01 L 713.34 515.01 C 710.97 565.12 690.87 610.66 659.19 645.5 Z M 512.61 713.83 L 512.61 649.77 C 545.9 647.9499999999999 576.19 634.91 599.78 614.36 L 645.04 659.62 C 609.75 691.7 563.48 711.89 512.6099999999999 713.82 Z M 364.11 659.63 L 409.37 614.37 C 432.02 634.11 460.87 646.92 492.61 649.51 L 492.61 713.65 C 443.29 710.85 398.48 690.88 364.11 659.63 Z M 295.82 515 L 359.93 515 C 362.15000000000003 547.52 375.08 577.1 395.23 600.22 L 349.97 645.48 C 318.29 610.65 298.20000000000005 565.1 295.82000000000005 514.99 Z M 349.95 364.53 L 395.21 409.78999999999996 C 375.07 432.90999999999997 362.14 462.47999999999996 359.91999999999996 494.98999999999995 L 295.80999999999995 494.98999999999995 C 298.17999999999995 444.88999999999993 318.2699999999999 399.34999999999997 349.93999999999994 364.52 Z M 492.61 296.34999999999997 L 492.61 360.48999999999995 C 460.86 363.0799999999999 432.01 375.9 409.35 395.65 L 364.09000000000003 350.39 C 398.47 319.12 443.28000000000003 299.15 492.61 296.34999999999997 Z M 645.06 350.39 L 599.8 395.65 C 576.2099999999999 375.09 545.91 362.03999999999996 512.6099999999999 360.21999999999997 L 512.6099999999999 296.15999999999997 C 563.4899999999999 298.09 609.7699999999999 318.28999999999996 645.06 350.38 Z M 592.92 593.35 C 569.3199999999999 616.95 537.9399999999999 629.95 504.56999999999994 629.95 C 471.19999999999993 629.95 439.81999999999994 616.95 416.2199999999999 593.35 C 392.6199999999999 569.75 379.6199999999999 538.37 379.6199999999999 505 C 379.6199999999999 471.63 392.6199999999999 440.25 416.2199999999999 416.65 C 439.81999999999994 393.04999999999995 471.19999999999993 380.04999999999995 504.56999999999994 380.04999999999995 C 537.9399999999999 380.04999999999995 569.3199999999999 393.04999999999995 592.92 416.65 C 616.52 440.25 629.52 471.63 629.52 505 C 629.52 538.37 616.52 569.75 592.92 593.35 Z M 649.2199999999999 495 C 646.9999999999999 462.49 634.0799999999999 432.92 613.93 409.8 L 659.1899999999999 364.54 C 690.8599999999999 399.37 710.9499999999999 444.91 713.3199999999999 495.01 L 649.2099999999999 495.01 Z M 673.42 350.31 L 719.43 304.3 C 741.92 328.35 760.03 355.65000000000003 773.3699999999999 385.67 L 713.31 410.55 C 703.41 388.71000000000004 690.02 368.40000000000003 673.43 350.31 Z M 659.28 336.17 C 641.64 319.97 621.87 306.83000000000004 600.63 297 L 625.52 236.91 C 654.91 250.18 681.67 268.06 705.29 290.15999999999997 L 659.28 336.16999999999996 Z M 582.13 289.41 C 560.04 281.48 536.64 276.98 512.61 276.16 L 512.61 211.09000000000003 C 545.14 211.95000000000005 576.8100000000001 218.08000000000004 607.02 229.33000000000004 L 582.13 289.4200000000001 Z M 492.61 276.31 C 469.5 277.49 447.02 282.1 425.76 289.87 L 400.87 229.79000000000002 C 430.24 218.70000000000002 461 212.48000000000002 492.6 211.22000000000003 L 492.6 276.3 Z M 407.3 297.56 C 386.52 307.32 367.18 320.28 349.87 336.17 L 303.86 290.16 C 327.15000000000003 268.37 353.5 250.69000000000003 382.41 237.48000000000002 L 407.3 297.57000000000005 Z M 335.73 350.31 C 319.21000000000004 368.31 305.86 388.52 295.98 410.25 L 235.91000000000003 385.37 C 249.23000000000002 355.47 267.3 328.27 289.72 304.3 L 335.73 350.31 Z M 288.51 428.8 C 281.09 449.89 276.78 472.14 275.8 494.99 L 210.73000000000002 494.99 C 211.77 463.63 217.68 433.09000000000003 228.38000000000002 403.89 L 288.51000000000005 428.8 Z M 275.8 514.99 C 276.85 539.52 281.74 563.35 290.19 585.8 L 230.12 610.68 C 218.32 580.0999999999999 211.82 547.99 210.73000000000002 514.99 L 275.8 514.99 Z M 298.06 604.19 C 307.71 624.24 320.35 642.9300000000001 335.75 659.7 L 289.74 705.71 C 268.43 682.94 251.07 657.24 237.96 629.09 L 298.07 604.19 Z M 349.89 673.84 C 367.09999999999997 689.64 386.32 702.5400000000001 406.96999999999997 712.28 L 382.08 772.36 C 353.31 759.17 327.07 741.5500000000001 303.87 719.85 L 349.88 673.84 Z M 425.41999999999996 719.99 C 446.78 727.84 469.36999999999995 732.49 492.60999999999996 733.6800000000001 L 492.60999999999996 798.7600000000001 C 460.89 797.5000000000001 430.00999999999993 791.2300000000001 400.53999999999996 780.07 L 425.42999999999995 719.99 Z M 512.6099999999999 733.84 C 536.7699999999999 733.01 560.2799999999999 728.47 582.4699999999999 720.46 L 607.3599999999999 780.5500000000001 C 577.0399999999998 791.8800000000001 545.2599999999999 798.0500000000001 512.6099999999999 798.9100000000001 L 512.6099999999999 733.8400000000001 Z M 600.9599999999999 712.84 C 622.0699999999999 703.0400000000001 641.7099999999999 689.95 659.2599999999999 673.84 L 705.2699999999999 719.85 C 681.7399999999999 741.86 655.0999999999999 759.6800000000001 625.8499999999999 772.9300000000001 L 600.9599999999999 712.84 Z M 673.3999999999999 659.7 C 688.8699999999999 642.85 701.5599999999998 624.0600000000001 711.2299999999999 603.9000000000001 L 771.3299999999999 628.7900000000001 C 758.2099999999999 657.0600000000001 740.79 682.8600000000001 719.41 705.71 L 673.4 659.7 Z M 719.0699999999998 585.5 C 727.4499999999998 563.14 732.3099999999998 539.41 733.3499999999998 514.99 L 798.4199999999998 514.99 C 797.3299999999998 547.89 790.8599999999999 579.89 779.1399999999999 610.38 L 719.0699999999998 585.5 Z M 733.3499999999998 494.99 C 732.3799999999998 472.25 728.0999999999998 450.1 720.7499999999998 429.1 L 780.8899999999998 404.19 C 791.5199999999998 433.29 797.3899999999998 463.74 798.4299999999997 494.98 L 733.3599999999997 494.98 Z" stroke-linecap="round" />
</g>
</svg>
