<?xml version="1.0" encoding="UTF-8" standalone="no"?>
<svg
   width="1200"
   height="500"
   viewBox="0 0 1200 500"
   fill="none"
   version="1.1"
   id="svg1060"
   sodipodi:docname="kata-containers.svg"
   inkscape:version="1.1.1 (c3084ef, 2021-09-22)"
   xmlns:inkscape="http://www.inkscape.org/namespaces/inkscape"
   xmlns:sodipodi="http://sodipodi.sourceforge.net/DTD/sodipodi-0.dtd"
   xmlns="http://www.w3.org/2000/svg"
   xmlns:svg="http://www.w3.org/2000/svg">
  <sodipodi:namedview
     id="namedview1062"
     pagecolor="#ffffff"
     bordercolor="#666666"
     borderopacity="1.0"
     inkscape:pageshadow="2"
     inkscape:pageopacity="0.0"
     inkscape:pagecheckerboard="0"
     showgrid="false"
     inkscape:zoom="0.8131728"
     inkscape:cx="759.37119"
     inkscape:cy="271.16008"
     inkscape:window-width="1680"
     inkscape:window-height="997"
     inkscape:window-x="0"
     inkscape:window-y="25"
     inkscape:window-maximized="0"
     inkscape:current-layer="svg1060" />
  <rect
     width="1200"
     height="500.00125"
     fill="#ffffff"
     id="rect984"
     x="0"
     y="0"
     style="stroke-width:1.10657" />
  <rect
     x="116"
     y="102"
     width="295"
     height="295"
     rx="9"
     fill="#ffffff"
     stroke="url(#paint0_linear_447_4079)"
     stroke-width="2"
     id="rect986"
     style="stroke:url(#paint0_linear_447_4079)" />
  <path
     d="m 155.8768,145.5 -5.88,-13.636 h 2.744 l 4.732,11.648 h -0.784 l 4.816,-11.648 h 2.632 l -5.936,13.636 z m 10.5162,0 v -13.636 h 2.492 v 2.968 h -0.308 c 0.2426,-0.691 0.5786,-1.269 1.008,-1.736 0.4293,-0.485 0.9426,-0.849 1.54,-1.092 0.616,-0.261 1.288,-0.392 2.016,-0.392 1.1573,0 2.0906,0.28 2.8,0.84 0.7093,0.541 1.1853,1.372 1.428,2.492 h -0.392 c 0.336,-1.027 0.9333,-1.839 1.792,-2.436 0.8773,-0.597 1.8946,-0.896 3.052,-0.896 1.0266,0 1.8666,0.205 2.52,0.616 0.672,0.392 1.176,0.989 1.512,1.792 0.336,0.784 0.504,1.792 0.504,3.024 v 8.456 h -2.548 v -8.344 c 0,-1.195 -0.2054,-2.072 -0.616,-2.632 -0.4107,-0.56 -1.1014,-0.84 -2.072,-0.84 -0.7094,0 -1.3254,0.168 -1.848,0.504 -0.5227,0.336 -0.924,0.812 -1.204,1.428 -0.28,0.616 -0.42,1.353 -0.42,2.212 v 7.672 h -2.548 v -8.344 c 0,-1.195 -0.2054,-2.072 -0.616,-2.632 -0.4107,-0.56 -1.1014,-0.84 -2.072,-0.84 -0.7094,0 -1.3254,0.168 -1.848,0.504 -0.5227,0.336 -0.924,0.812 -1.204,1.428 -0.28,0.616 -0.42,1.353 -0.42,2.212 v 7.672 z m 25.4052,0 v -2.212 h 4.48 v -15.316 h 1.344 l -4.872,3.052 -1.064,-1.932 5.32,-3.332 h 1.876 v 17.528 h 4.2 v 2.212 z"
     fill="#000000"
     id="path988" />
  <rect
     width="150"
     height="130"
     rx="10"
     transform="scale(-1,1)"
     fill="url(#paint1_radial_447_4079)"
     id="rect990"
     x="-339"
     y="184"
     style="fill:url(#paint1_radial_447_4079)" />
  <rect
     width="150"
     height="130"
     rx="10"
     transform="scale(-1,1)"
     fill="#000000"
     fill-opacity="0.08"
     id="rect992"
     x="-339"
     y="184" />
  <path
     d="m 215.032,256.207 c -1.15,0 -2.147,-0.238 -2.99,-0.713 -0.828,-0.491 -1.472,-1.173 -1.932,-2.047 -0.4599,-0.889 -0.6899,-1.932 -0.6899,-3.128 0,-1.181 0.23,-2.2 0.6899,-3.059 0.46,-0.859 1.104,-1.518 1.932,-1.978 0.843,-0.475 1.84,-0.713 2.99,-0.713 0.705,0 1.403,0.123 2.093,0.368 0.69,0.23 1.257,0.567 1.702,1.012 l -0.736,1.633 c -0.414,-0.399 -0.882,-0.69 -1.403,-0.874 -0.521,-0.199 -1.012,-0.299 -1.472,-0.299 -1.089,0 -1.932,0.345 -2.53,1.035 -0.583,0.675 -0.874,1.641 -0.874,2.898 0,1.257 0.291,2.246 0.874,2.967 0.598,0.705 1.441,1.058 2.53,1.058 0.46,0 0.951,-0.092 1.472,-0.276 0.521,-0.199 0.989,-0.498 1.403,-0.897 l 0.736,1.656 c -0.445,0.414 -1.02,0.744 -1.725,0.989 -0.69,0.245 -1.38,0.368 -2.07,0.368 z m 10.443,0 c -1.135,0 -2.116,-0.238 -2.944,-0.713 -0.813,-0.475 -1.449,-1.15 -1.909,-2.024 -0.46,-0.874 -0.69,-1.901 -0.69,-3.082 0,-1.196 0.23,-2.223 0.69,-3.082 0.46,-0.874 1.096,-1.549 1.909,-2.024 0.828,-0.475 1.809,-0.713 2.944,-0.713 1.119,0 2.085,0.238 2.898,0.713 0.828,0.475 1.472,1.15 1.932,2.024 0.46,0.874 0.69,1.901 0.69,3.082 0,1.181 -0.23,2.208 -0.69,3.082 -0.46,0.874 -1.104,1.549 -1.932,2.024 -0.813,0.475 -1.779,0.713 -2.898,0.713 z m -0.023,-1.794 c 0.966,0 1.74,-0.345 2.323,-1.035 0.582,-0.69 0.874,-1.687 0.874,-2.99 0,-1.319 -0.292,-2.315 -0.874,-2.99 -0.583,-0.675 -1.357,-1.012 -2.323,-1.012 -0.951,0 -1.718,0.337 -2.3,1.012 -0.583,0.675 -0.874,1.671 -0.874,2.99 0,1.303 0.291,2.3 0.874,2.99 0.582,0.69 1.349,1.035 2.3,1.035 z m 8.152,1.587 v -11.224 h 2.254 v 2.392 h -0.253 c 0.337,-0.859 0.866,-1.503 1.587,-1.932 0.72,-0.445 1.548,-0.667 2.484,-0.667 0.889,0 1.625,0.169 2.208,0.506 0.598,0.322 1.042,0.82 1.334,1.495 0.291,0.659 0.437,1.495 0.437,2.507 V 256 h -2.323 v -6.785 c 0,-0.644 -0.085,-1.165 -0.253,-1.564 -0.169,-0.414 -0.422,-0.721 -0.759,-0.92 -0.338,-0.199 -0.775,-0.299 -1.311,-0.299 -0.614,0 -1.158,0.13 -1.633,0.391 -0.46,0.261 -0.821,0.636 -1.081,1.127 -0.246,0.491 -0.368,1.058 -0.368,1.702 V 256 Z m 18.036,0.207 c -1.396,0 -2.446,-0.36 -3.151,-1.081 -0.69,-0.721 -1.035,-1.763 -1.035,-3.128 v -5.428 h -2.185 v -1.794 h 2.185 v -3.381 h 2.323 v 3.381 h 3.473 v 1.794 h -3.473 v 5.244 c 0,0.813 0.168,1.426 0.506,1.84 0.352,0.414 0.92,0.621 1.702,0.621 0.23,0 0.46,-0.031 0.69,-0.092 0.245,-0.061 0.483,-0.123 0.713,-0.184 l 0.368,1.748 c -0.23,0.138 -0.552,0.245 -0.966,0.322 -0.399,0.092 -0.782,0.138 -1.15,0.138 z m 7.204,0 c -0.782,0 -1.487,-0.153 -2.116,-0.46 -0.613,-0.307 -1.096,-0.721 -1.449,-1.242 -0.353,-0.521 -0.529,-1.112 -0.529,-1.771 0,-0.828 0.207,-1.48 0.621,-1.955 0.429,-0.491 1.127,-0.836 2.093,-1.035 0.981,-0.215 2.3,-0.322 3.956,-0.322 h 1.081 v 1.426 h -1.058 c -0.828,0 -1.526,0.031 -2.093,0.092 -0.567,0.061 -1.02,0.161 -1.357,0.299 -0.337,0.123 -0.583,0.299 -0.736,0.529 -0.138,0.23 -0.207,0.506 -0.207,0.828 0,0.583 0.199,1.058 0.598,1.426 0.399,0.353 0.951,0.529 1.656,0.529 0.567,0 1.066,-0.13 1.495,-0.391 0.429,-0.276 0.767,-0.644 1.012,-1.104 0.261,-0.46 0.391,-0.989 0.391,-1.587 v -2.645 c 0,-0.874 -0.184,-1.503 -0.552,-1.886 -0.368,-0.383 -0.974,-0.575 -1.817,-0.575 -0.644,0 -1.288,0.1 -1.932,0.299 -0.644,0.184 -1.303,0.483 -1.978,0.897 l -0.713,-1.633 c 0.399,-0.276 0.859,-0.514 1.38,-0.713 0.521,-0.199 1.066,-0.353 1.633,-0.46 0.583,-0.123 1.142,-0.184 1.679,-0.184 1.027,0 1.871,0.161 2.53,0.483 0.675,0.322 1.173,0.813 1.495,1.472 0.322,0.659 0.483,1.51 0.483,2.553 V 256 h -2.185 v -2.507 h 0.207 c -0.123,0.567 -0.353,1.058 -0.69,1.472 -0.322,0.399 -0.728,0.705 -1.219,0.92 -0.491,0.215 -1.05,0.322 -1.679,0.322 z m 8.559,-14.03 v -2.415 h 2.714 v 2.415 z M 267.61,256 v -11.224 h 2.323 V 256 Z m 5.592,0 v -11.224 h 2.254 v 2.392 h -0.253 c 0.338,-0.859 0.867,-1.503 1.587,-1.932 0.721,-0.445 1.549,-0.667 2.484,-0.667 0.89,0 1.626,0.169 2.208,0.506 0.598,0.322 1.043,0.82 1.334,1.495 0.292,0.659 0.437,1.495 0.437,2.507 V 256 h -2.323 v -6.785 c 0,-0.644 -0.084,-1.165 -0.253,-1.564 -0.168,-0.414 -0.421,-0.721 -0.759,-0.92 -0.337,-0.199 -0.774,-0.299 -1.311,-0.299 -0.613,0 -1.157,0.13 -1.633,0.391 -0.46,0.261 -0.82,0.636 -1.081,1.127 -0.245,0.491 -0.368,1.058 -0.368,1.702 V 256 Z m 18.519,0.207 c -1.226,0 -2.284,-0.23 -3.174,-0.69 -0.874,-0.475 -1.556,-1.142 -2.047,-2.001 -0.475,-0.874 -0.713,-1.909 -0.713,-3.105 0,-1.165 0.238,-2.185 0.713,-3.059 0.476,-0.874 1.127,-1.556 1.955,-2.047 0.828,-0.491 1.771,-0.736 2.829,-0.736 1.043,0 1.932,0.23 2.668,0.69 0.752,0.445 1.327,1.081 1.725,1.909 0.399,0.828 0.598,1.817 0.598,2.967 v 0.782 h -8.648 v -1.426 h 7.084 l -0.391,0.322 c 0,-1.15 -0.253,-2.039 -0.759,-2.668 -0.506,-0.629 -1.234,-0.943 -2.185,-0.943 -0.72,0 -1.334,0.169 -1.84,0.506 -0.49,0.337 -0.866,0.805 -1.127,1.403 -0.26,0.598 -0.391,1.296 -0.391,2.093 v 0.138 c 0,0.889 0.138,1.641 0.414,2.254 0.292,0.598 0.713,1.05 1.265,1.357 0.552,0.307 1.235,0.46 2.047,0.46 0.644,0 1.273,-0.1 1.886,-0.299 0.629,-0.215 1.219,-0.544 1.771,-0.989 l 0.69,1.61 c -0.506,0.46 -1.157,0.82 -1.955,1.081 -0.797,0.261 -1.602,0.391 -2.415,0.391 z M 298.808,256 v -11.224 h 2.254 v 2.691 h -0.23 c 0.245,-0.92 0.682,-1.618 1.311,-2.093 0.644,-0.475 1.495,-0.751 2.553,-0.828 l 0.759,-0.046 0.161,1.978 -1.403,0.138 c -0.997,0.092 -1.756,0.406 -2.277,0.943 -0.522,0.537 -0.782,1.273 -0.782,2.208 V 256 Z m 9.638,0 v -2.001 h 3.68 v -12.19 h 1.196 l -4.071,2.53 -0.966,-1.771 4.531,-2.783 h 1.679 v 14.214 h 3.45 V 256 Z"
     fill="#ffffff"
     id="path994" />
  <rect
     x="453"
     y="102"
     width="295"
     height="295"
     rx="9"
     fill="#ffffff"
     stroke="url(#paint2_linear_447_4079)"
     stroke-width="2"
     id="rect996"
     style="stroke:url(#paint2_linear_447_4079)" />
  <path
     d="m 492.877,145.5 -5.88,-13.636 h 2.744 l 4.732,11.648 h -0.784 l 4.816,-11.648 h 2.632 l -5.936,13.636 z m 10.516,0 v -13.636 h 2.492 v 2.968 h -0.308 c 0.243,-0.691 0.579,-1.269 1.008,-1.736 0.429,-0.485 0.943,-0.849 1.54,-1.092 0.616,-0.261 1.288,-0.392 2.016,-0.392 1.157,0 2.091,0.28 2.8,0.84 0.709,0.541 1.185,1.372 1.428,2.492 h -0.392 c 0.336,-1.027 0.933,-1.839 1.792,-2.436 0.877,-0.597 1.895,-0.896 3.052,-0.896 1.027,0 1.867,0.205 2.52,0.616 0.672,0.392 1.176,0.989 1.512,1.792 0.336,0.784 0.504,1.792 0.504,3.024 v 8.456 h -2.548 v -8.344 c 0,-1.195 -0.205,-2.072 -0.616,-2.632 -0.411,-0.56 -1.101,-0.84 -2.072,-0.84 -0.709,0 -1.325,0.168 -1.848,0.504 -0.523,0.336 -0.924,0.812 -1.204,1.428 -0.28,0.616 -0.42,1.353 -0.42,2.212 v 7.672 h -2.548 v -8.344 c 0,-1.195 -0.205,-2.072 -0.616,-2.632 -0.411,-0.56 -1.101,-0.84 -2.072,-0.84 -0.709,0 -1.325,0.168 -1.848,0.504 -0.523,0.336 -0.924,0.812 -1.204,1.428 -0.28,0.616 -0.42,1.353 -0.42,2.212 v 7.672 z m 24.453,0 v -1.932 l 6.692,-7.196 c 0.616,-0.672 1.111,-1.297 1.484,-1.876 0.392,-0.597 0.681,-1.176 0.868,-1.736 0.187,-0.56 0.28,-1.12 0.28,-1.68 0,-1.083 -0.336,-1.904 -1.008,-2.464 -0.653,-0.579 -1.615,-0.868 -2.884,-0.868 -0.971,0 -1.895,0.187 -2.772,0.56 -0.859,0.355 -1.671,0.905 -2.436,1.652 l -0.952,-1.988 c 0.747,-0.747 1.689,-1.344 2.828,-1.792 1.139,-0.448 2.333,-0.672 3.584,-0.672 1.344,0 2.473,0.215 3.388,0.644 0.933,0.411 1.643,1.017 2.128,1.82 0.485,0.784 0.728,1.745 0.728,2.884 0,0.597 -0.075,1.185 -0.224,1.764 -0.149,0.56 -0.373,1.129 -0.672,1.708 -0.28,0.56 -0.644,1.139 -1.092,1.736 -0.429,0.597 -0.943,1.213 -1.54,1.848 l -5.796,6.132 v -0.756 h 10.108 v 2.212 z"
     fill="#000000"
     id="path998" />
  <rect
     width="150"
     height="130"
     rx="10"
     transform="scale(-1,1)"
     fill="url(#paint3_radial_447_4079)"
     id="rect1000"
     x="-676"
     y="184"
     style="fill:url(#paint3_radial_447_4079)" />
  <rect
     width="150"
     height="130"
     rx="10"
     transform="scale(-1,1)"
     fill="#000000"
     fill-opacity="0.08"
     id="rect1002"
     x="-676"
     y="184" />
  <path
     d="m 552.032,256.207 c -1.15,0 -2.147,-0.238 -2.99,-0.713 -0.828,-0.491 -1.472,-1.173 -1.932,-2.047 -0.46,-0.889 -0.69,-1.932 -0.69,-3.128 0,-1.181 0.23,-2.2 0.69,-3.059 0.46,-0.859 1.104,-1.518 1.932,-1.978 0.843,-0.475 1.84,-0.713 2.99,-0.713 0.705,0 1.403,0.123 2.093,0.368 0.69,0.23 1.257,0.567 1.702,1.012 l -0.736,1.633 c -0.414,-0.399 -0.882,-0.69 -1.403,-0.874 -0.521,-0.199 -1.012,-0.299 -1.472,-0.299 -1.089,0 -1.932,0.345 -2.53,1.035 -0.583,0.675 -0.874,1.641 -0.874,2.898 0,1.257 0.291,2.246 0.874,2.967 0.598,0.705 1.441,1.058 2.53,1.058 0.46,0 0.951,-0.092 1.472,-0.276 0.521,-0.199 0.989,-0.498 1.403,-0.897 l 0.736,1.656 c -0.445,0.414 -1.02,0.744 -1.725,0.989 -0.69,0.245 -1.38,0.368 -2.07,0.368 z m 10.443,0 c -1.135,0 -2.116,-0.238 -2.944,-0.713 -0.813,-0.475 -1.449,-1.15 -1.909,-2.024 -0.46,-0.874 -0.69,-1.901 -0.69,-3.082 0,-1.196 0.23,-2.223 0.69,-3.082 0.46,-0.874 1.096,-1.549 1.909,-2.024 0.828,-0.475 1.809,-0.713 2.944,-0.713 1.119,0 2.085,0.238 2.898,0.713 0.828,0.475 1.472,1.15 1.932,2.024 0.46,0.874 0.69,1.901 0.69,3.082 0,1.181 -0.23,2.208 -0.69,3.082 -0.46,0.874 -1.104,1.549 -1.932,2.024 -0.813,0.475 -1.779,0.713 -2.898,0.713 z m -0.023,-1.794 c 0.966,0 1.74,-0.345 2.323,-1.035 0.582,-0.69 0.874,-1.687 0.874,-2.99 0,-1.319 -0.292,-2.315 -0.874,-2.99 -0.583,-0.675 -1.357,-1.012 -2.323,-1.012 -0.951,0 -1.718,0.337 -2.3,1.012 -0.583,0.675 -0.874,1.671 -0.874,2.99 0,1.303 0.291,2.3 0.874,2.99 0.582,0.69 1.349,1.035 2.3,1.035 z m 8.152,1.587 v -11.224 h 2.254 v 2.392 h -0.253 c 0.337,-0.859 0.866,-1.503 1.587,-1.932 0.72,-0.445 1.548,-0.667 2.484,-0.667 0.889,0 1.625,0.169 2.208,0.506 0.598,0.322 1.042,0.82 1.334,1.495 0.291,0.659 0.437,1.495 0.437,2.507 V 256 h -2.323 v -6.785 c 0,-0.644 -0.085,-1.165 -0.253,-1.564 -0.169,-0.414 -0.422,-0.721 -0.759,-0.92 -0.338,-0.199 -0.775,-0.299 -1.311,-0.299 -0.614,0 -1.158,0.13 -1.633,0.391 -0.46,0.261 -0.821,0.636 -1.081,1.127 -0.246,0.491 -0.368,1.058 -0.368,1.702 V 256 Z m 18.036,0.207 c -1.396,0 -2.446,-0.36 -3.151,-1.081 -0.69,-0.721 -1.035,-1.763 -1.035,-3.128 v -5.428 h -2.185 v -1.794 h 2.185 v -3.381 h 2.323 v 3.381 h 3.473 v 1.794 h -3.473 v 5.244 c 0,0.813 0.168,1.426 0.506,1.84 0.352,0.414 0.92,0.621 1.702,0.621 0.23,0 0.46,-0.031 0.69,-0.092 0.245,-0.061 0.483,-0.123 0.713,-0.184 l 0.368,1.748 c -0.23,0.138 -0.552,0.245 -0.966,0.322 -0.399,0.092 -0.782,0.138 -1.15,0.138 z m 7.204,0 c -0.782,0 -1.487,-0.153 -2.116,-0.46 -0.613,-0.307 -1.096,-0.721 -1.449,-1.242 -0.353,-0.521 -0.529,-1.112 -0.529,-1.771 0,-0.828 0.207,-1.48 0.621,-1.955 0.429,-0.491 1.127,-0.836 2.093,-1.035 0.981,-0.215 2.3,-0.322 3.956,-0.322 h 1.081 v 1.426 h -1.058 c -0.828,0 -1.526,0.031 -2.093,0.092 -0.567,0.061 -1.02,0.161 -1.357,0.299 -0.337,0.123 -0.583,0.299 -0.736,0.529 -0.138,0.23 -0.207,0.506 -0.207,0.828 0,0.583 0.199,1.058 0.598,1.426 0.399,0.353 0.951,0.529 1.656,0.529 0.567,0 1.066,-0.13 1.495,-0.391 0.429,-0.276 0.767,-0.644 1.012,-1.104 0.261,-0.46 0.391,-0.989 0.391,-1.587 v -2.645 c 0,-0.874 -0.184,-1.503 -0.552,-1.886 -0.368,-0.383 -0.974,-0.575 -1.817,-0.575 -0.644,0 -1.288,0.1 -1.932,0.299 -0.644,0.184 -1.303,0.483 -1.978,0.897 l -0.713,-1.633 c 0.399,-0.276 0.859,-0.514 1.38,-0.713 0.521,-0.199 1.066,-0.353 1.633,-0.46 0.583,-0.123 1.142,-0.184 1.679,-0.184 1.027,0 1.871,0.161 2.53,0.483 0.675,0.322 1.173,0.813 1.495,1.472 0.322,0.659 0.483,1.51 0.483,2.553 V 256 h -2.185 v -2.507 h 0.207 c -0.123,0.567 -0.353,1.058 -0.69,1.472 -0.322,0.399 -0.728,0.705 -1.219,0.92 -0.491,0.215 -1.05,0.322 -1.679,0.322 z m 8.559,-14.03 v -2.415 h 2.714 v 2.415 z M 604.61,256 v -11.224 h 2.323 V 256 Z m 5.592,0 v -11.224 h 2.254 v 2.392 h -0.253 c 0.338,-0.859 0.867,-1.503 1.587,-1.932 0.721,-0.445 1.549,-0.667 2.484,-0.667 0.89,0 1.626,0.169 2.208,0.506 0.598,0.322 1.043,0.82 1.334,1.495 0.292,0.659 0.437,1.495 0.437,2.507 V 256 h -2.323 v -6.785 c 0,-0.644 -0.084,-1.165 -0.253,-1.564 -0.168,-0.414 -0.421,-0.721 -0.759,-0.92 -0.337,-0.199 -0.774,-0.299 -1.311,-0.299 -0.613,0 -1.157,0.13 -1.633,0.391 -0.46,0.261 -0.82,0.636 -1.081,1.127 -0.245,0.491 -0.368,1.058 -0.368,1.702 V 256 Z m 18.519,0.207 c -1.226,0 -2.284,-0.23 -3.174,-0.69 -0.874,-0.475 -1.556,-1.142 -2.047,-2.001 -0.475,-0.874 -0.713,-1.909 -0.713,-3.105 0,-1.165 0.238,-2.185 0.713,-3.059 0.476,-0.874 1.127,-1.556 1.955,-2.047 0.828,-0.491 1.771,-0.736 2.829,-0.736 1.043,0 1.932,0.23 2.668,0.69 0.752,0.445 1.327,1.081 1.725,1.909 0.399,0.828 0.598,1.817 0.598,2.967 v 0.782 h -8.648 v -1.426 h 7.084 l -0.391,0.322 c 0,-1.15 -0.253,-2.039 -0.759,-2.668 -0.506,-0.629 -1.234,-0.943 -2.185,-0.943 -0.72,0 -1.334,0.169 -1.84,0.506 -0.49,0.337 -0.866,0.805 -1.127,1.403 -0.26,0.598 -0.391,1.296 -0.391,2.093 v 0.138 c 0,0.889 0.138,1.641 0.414,2.254 0.292,0.598 0.713,1.05 1.265,1.357 0.552,0.307 1.235,0.46 2.047,0.46 0.644,0 1.273,-0.1 1.886,-0.299 0.629,-0.215 1.219,-0.544 1.771,-0.989 l 0.69,1.61 c -0.506,0.46 -1.157,0.82 -1.955,1.081 -0.797,0.261 -1.602,0.391 -2.415,0.391 z M 635.808,256 v -11.224 h 2.254 v 2.691 h -0.23 c 0.245,-0.92 0.682,-1.618 1.311,-2.093 0.644,-0.475 1.495,-0.751 2.553,-0.828 l 0.759,-0.046 0.161,1.978 -1.403,0.138 c -0.997,0.092 -1.756,0.406 -2.277,0.943 -0.522,0.537 -0.782,1.273 -0.782,2.208 V 256 Z m 8.902,0 v -1.771 l 5.405,-5.796 c 0.506,-0.552 0.912,-1.058 1.219,-1.518 0.307,-0.475 0.529,-0.928 0.667,-1.357 0.153,-0.445 0.23,-0.889 0.23,-1.334 0,-0.859 -0.261,-1.51 -0.782,-1.955 -0.521,-0.445 -1.288,-0.667 -2.3,-0.667 -0.782,0 -1.526,0.146 -2.231,0.437 -0.69,0.291 -1.349,0.736 -1.978,1.334 l -0.851,-1.817 c 0.613,-0.598 1.395,-1.073 2.346,-1.426 0.951,-0.368 1.94,-0.552 2.967,-0.552 1.119,0 2.062,0.176 2.829,0.529 0.782,0.337 1.372,0.836 1.771,1.495 0.399,0.659 0.598,1.464 0.598,2.415 0,0.491 -0.061,0.974 -0.184,1.449 -0.107,0.46 -0.284,0.92 -0.529,1.38 -0.23,0.46 -0.529,0.935 -0.897,1.426 -0.353,0.491 -0.782,0.997 -1.288,1.518 l -4.623,4.876 v -0.667 h 8.165 V 256 Z"
     fill="#ffffff"
     id="path1004" />
  <rect
     x="790"
     y="102"
     width="295"
     height="295"
     rx="9"
     fill="#ffffff"
     stroke="url(#paint4_linear_447_4079)"
     stroke-width="2"
     id="rect1006"
     style="stroke:url(#paint4_linear_447_4079)" />
  <path
     d="m 829.877,145.5 -5.88,-13.636 h 2.744 l 4.732,11.648 h -0.784 l 4.816,-11.648 h 2.632 l -5.936,13.636 z m 10.516,0 v -13.636 h 2.492 v 2.968 h -0.308 c 0.243,-0.691 0.579,-1.269 1.008,-1.736 0.429,-0.485 0.943,-0.849 1.54,-1.092 0.616,-0.261 1.288,-0.392 2.016,-0.392 1.157,0 2.091,0.28 2.8,0.84 0.709,0.541 1.185,1.372 1.428,2.492 h -0.392 c 0.336,-1.027 0.933,-1.839 1.792,-2.436 0.877,-0.597 1.895,-0.896 3.052,-0.896 1.027,0 1.867,0.205 2.52,0.616 0.672,0.392 1.176,0.989 1.512,1.792 0.336,0.784 0.504,1.792 0.504,3.024 v 8.456 h -2.548 v -8.344 c 0,-1.195 -0.205,-2.072 -0.616,-2.632 -0.411,-0.56 -1.101,-0.84 -2.072,-0.84 -0.709,0 -1.325,0.168 -1.848,0.504 -0.523,0.336 -0.924,0.812 -1.204,1.428 -0.28,0.616 -0.42,1.353 -0.42,2.212 v 7.672 h -2.548 v -8.344 c 0,-1.195 -0.205,-2.072 -0.616,-2.632 -0.411,-0.56 -1.101,-0.84 -2.072,-0.84 -0.709,0 -1.325,0.168 -1.848,0.504 -0.523,0.336 -0.924,0.812 -1.204,1.428 -0.28,0.616 -0.42,1.353 -0.42,2.212 v 7.672 z m 30.165,0.252 c -0.877,0 -1.727,-0.084 -2.548,-0.252 -0.821,-0.187 -1.596,-0.448 -2.324,-0.784 -0.709,-0.355 -1.335,-0.784 -1.876,-1.288 l 0.924,-2.016 c 0.896,0.728 1.811,1.26 2.744,1.596 0.933,0.336 1.932,0.504 2.996,0.504 0.915,0 1.689,-0.131 2.324,-0.392 0.635,-0.28 1.111,-0.681 1.428,-1.204 0.336,-0.541 0.504,-1.185 0.504,-1.932 0,-1.12 -0.364,-1.96 -1.092,-2.52 -0.728,-0.579 -1.792,-0.868 -3.192,-0.868 h -2.968 v -2.184 h 2.744 c 0.821,0 1.521,-0.14 2.1,-0.42 0.579,-0.299 1.027,-0.709 1.344,-1.232 0.336,-0.523 0.504,-1.157 0.504,-1.904 0,-1.008 -0.327,-1.773 -0.98,-2.296 -0.653,-0.541 -1.596,-0.812 -2.828,-0.812 -1.008,0 -1.951,0.187 -2.828,0.56 -0.859,0.355 -1.68,0.905 -2.464,1.652 l -0.924,-1.988 c 0.747,-0.784 1.689,-1.391 2.828,-1.82 1.157,-0.429 2.352,-0.644 3.584,-0.644 1.288,0 2.389,0.205 3.304,0.616 0.933,0.411 1.643,0.999 2.128,1.764 0.485,0.747 0.728,1.652 0.728,2.716 0,1.213 -0.336,2.259 -1.008,3.136 -0.653,0.859 -1.559,1.428 -2.716,1.708 v -0.308 c 0.915,0.168 1.689,0.476 2.324,0.924 0.653,0.448 1.148,1.017 1.484,1.708 0.336,0.691 0.504,1.484 0.504,2.38 0,1.139 -0.28,2.137 -0.84,2.996 -0.541,0.84 -1.316,1.484 -2.324,1.932 -1.008,0.448 -2.203,0.672 -3.584,0.672 z"
     fill="#000000"
     id="path1008" />
  <rect
     width="150"
     height="130"
     rx="10"
     transform="scale(-1,1)"
     fill="url(#paint5_radial_447_4079)"
     id="rect1010"
     x="-1013"
     y="184"
     style="fill:url(#paint5_radial_447_4079)" />
  <rect
     width="150"
     height="130"
     rx="10"
     transform="scale(-1,1)"
     fill="#000000"
     fill-opacity="0.08"
     id="rect1012"
     x="-1013"
     y="184" />
  <path
     d="m 889.032,256.207 c -1.15,0 -2.147,-0.238 -2.99,-0.713 -0.828,-0.491 -1.472,-1.173 -1.932,-2.047 -0.46,-0.889 -0.69,-1.932 -0.69,-3.128 0,-1.181 0.23,-2.2 0.69,-3.059 0.46,-0.859 1.104,-1.518 1.932,-1.978 0.843,-0.475 1.84,-0.713 2.99,-0.713 0.705,0 1.403,0.123 2.093,0.368 0.69,0.23 1.257,0.567 1.702,1.012 l -0.736,1.633 c -0.414,-0.399 -0.882,-0.69 -1.403,-0.874 -0.521,-0.199 -1.012,-0.299 -1.472,-0.299 -1.089,0 -1.932,0.345 -2.53,1.035 -0.583,0.675 -0.874,1.641 -0.874,2.898 0,1.257 0.291,2.246 0.874,2.967 0.598,0.705 1.441,1.058 2.53,1.058 0.46,0 0.951,-0.092 1.472,-0.276 0.521,-0.199 0.989,-0.498 1.403,-0.897 l 0.736,1.656 c -0.445,0.414 -1.02,0.744 -1.725,0.989 -0.69,0.245 -1.38,0.368 -2.07,0.368 z m 10.443,0 c -1.135,0 -2.116,-0.238 -2.944,-0.713 -0.813,-0.475 -1.449,-1.15 -1.909,-2.024 -0.46,-0.874 -0.69,-1.901 -0.69,-3.082 0,-1.196 0.23,-2.223 0.69,-3.082 0.46,-0.874 1.096,-1.549 1.909,-2.024 0.828,-0.475 1.809,-0.713 2.944,-0.713 1.119,0 2.085,0.238 2.898,0.713 0.828,0.475 1.472,1.15 1.932,2.024 0.46,0.874 0.69,1.901 0.69,3.082 0,1.181 -0.23,2.208 -0.69,3.082 -0.46,0.874 -1.104,1.549 -1.932,2.024 -0.813,0.475 -1.779,0.713 -2.898,0.713 z m -0.023,-1.794 c 0.966,0 1.74,-0.345 2.323,-1.035 0.582,-0.69 0.874,-1.687 0.874,-2.99 0,-1.319 -0.292,-2.315 -0.874,-2.99 -0.583,-0.675 -1.357,-1.012 -2.323,-1.012 -0.951,0 -1.718,0.337 -2.3,1.012 -0.583,0.675 -0.874,1.671 -0.874,2.99 0,1.303 0.291,2.3 0.874,2.99 0.582,0.69 1.349,1.035 2.3,1.035 z m 8.152,1.587 v -11.224 h 2.254 v 2.392 h -0.253 c 0.337,-0.859 0.866,-1.503 1.587,-1.932 0.72,-0.445 1.548,-0.667 2.484,-0.667 0.889,0 1.625,0.169 2.208,0.506 0.598,0.322 1.042,0.82 1.334,1.495 0.291,0.659 0.437,1.495 0.437,2.507 V 256 h -2.323 v -6.785 c 0,-0.644 -0.085,-1.165 -0.253,-1.564 -0.169,-0.414 -0.422,-0.721 -0.759,-0.92 -0.338,-0.199 -0.775,-0.299 -1.311,-0.299 -0.614,0 -1.158,0.13 -1.633,0.391 -0.46,0.261 -0.821,0.636 -1.081,1.127 -0.246,0.491 -0.368,1.058 -0.368,1.702 V 256 Z m 18.036,0.207 c -1.396,0 -2.446,-0.36 -3.151,-1.081 -0.69,-0.721 -1.035,-1.763 -1.035,-3.128 v -5.428 h -2.185 v -1.794 h 2.185 v -3.381 h 2.323 v 3.381 h 3.473 v 1.794 h -3.473 v 5.244 c 0,0.813 0.168,1.426 0.506,1.84 0.352,0.414 0.92,0.621 1.702,0.621 0.23,0 0.46,-0.031 0.69,-0.092 0.245,-0.061 0.483,-0.123 0.713,-0.184 l 0.368,1.748 c -0.23,0.138 -0.552,0.245 -0.966,0.322 -0.399,0.092 -0.782,0.138 -1.15,0.138 z m 7.204,0 c -0.782,0 -1.487,-0.153 -2.116,-0.46 -0.613,-0.307 -1.096,-0.721 -1.449,-1.242 -0.353,-0.521 -0.529,-1.112 -0.529,-1.771 0,-0.828 0.207,-1.48 0.621,-1.955 0.429,-0.491 1.127,-0.836 2.093,-1.035 0.981,-0.215 2.3,-0.322 3.956,-0.322 h 1.081 v 1.426 h -1.058 c -0.828,0 -1.526,0.031 -2.093,0.092 -0.567,0.061 -1.02,0.161 -1.357,0.299 -0.337,0.123 -0.583,0.299 -0.736,0.529 -0.138,0.23 -0.207,0.506 -0.207,0.828 0,0.583 0.199,1.058 0.598,1.426 0.399,0.353 0.951,0.529 1.656,0.529 0.567,0 1.066,-0.13 1.495,-0.391 0.429,-0.276 0.767,-0.644 1.012,-1.104 0.261,-0.46 0.391,-0.989 0.391,-1.587 v -2.645 c 0,-0.874 -0.184,-1.503 -0.552,-1.886 -0.368,-0.383 -0.974,-0.575 -1.817,-0.575 -0.644,0 -1.288,0.1 -1.932,0.299 -0.644,0.184 -1.303,0.483 -1.978,0.897 l -0.713,-1.633 c 0.399,-0.276 0.859,-0.514 1.38,-0.713 0.521,-0.199 1.066,-0.353 1.633,-0.46 0.583,-0.123 1.142,-0.184 1.679,-0.184 1.027,0 1.871,0.161 2.53,0.483 0.675,0.322 1.173,0.813 1.495,1.472 0.322,0.659 0.483,1.51 0.483,2.553 V 256 h -2.185 v -2.507 h 0.207 c -0.123,0.567 -0.353,1.058 -0.69,1.472 -0.322,0.399 -0.728,0.705 -1.219,0.92 -0.491,0.215 -1.05,0.322 -1.679,0.322 z m 8.559,-14.03 v -2.415 h 2.714 v 2.415 z M 941.61,256 v -11.224 h 2.323 V 256 Z m 5.592,0 v -11.224 h 2.254 v 2.392 h -0.253 c 0.338,-0.859 0.867,-1.503 1.587,-1.932 0.721,-0.445 1.549,-0.667 2.484,-0.667 0.89,0 1.626,0.169 2.208,0.506 0.598,0.322 1.043,0.82 1.334,1.495 0.292,0.659 0.437,1.495 0.437,2.507 V 256 h -2.323 v -6.785 c 0,-0.644 -0.084,-1.165 -0.253,-1.564 -0.168,-0.414 -0.421,-0.721 -0.759,-0.92 -0.337,-0.199 -0.774,-0.299 -1.311,-0.299 -0.613,0 -1.157,0.13 -1.633,0.391 -0.46,0.261 -0.82,0.636 -1.081,1.127 -0.245,0.491 -0.368,1.058 -0.368,1.702 V 256 Z m 18.519,0.207 c -1.226,0 -2.284,-0.23 -3.174,-0.69 -0.874,-0.475 -1.556,-1.142 -2.047,-2.001 -0.475,-0.874 -0.713,-1.909 -0.713,-3.105 0,-1.165 0.238,-2.185 0.713,-3.059 0.476,-0.874 1.127,-1.556 1.955,-2.047 0.828,-0.491 1.771,-0.736 2.829,-0.736 1.043,0 1.932,0.23 2.668,0.69 0.752,0.445 1.327,1.081 1.725,1.909 0.399,0.828 0.598,1.817 0.598,2.967 v 0.782 h -8.648 v -1.426 h 7.084 l -0.391,0.322 c 0,-1.15 -0.253,-2.039 -0.759,-2.668 -0.506,-0.629 -1.234,-0.943 -2.185,-0.943 -0.72,0 -1.334,0.169 -1.84,0.506 -0.49,0.337 -0.866,0.805 -1.127,1.403 -0.26,0.598 -0.391,1.296 -0.391,2.093 v 0.138 c 0,0.889 0.138,1.641 0.414,2.254 0.292,0.598 0.713,1.05 1.265,1.357 0.552,0.307 1.235,0.46 2.047,0.46 0.644,0 1.273,-0.1 1.886,-0.299 0.629,-0.215 1.219,-0.544 1.771,-0.989 l 0.69,1.61 c -0.506,0.46 -1.157,0.82 -1.955,1.081 -0.797,0.261 -1.602,0.391 -2.415,0.391 z M 972.808,256 v -11.224 h 2.254 v 2.691 h -0.23 c 0.245,-0.92 0.682,-1.618 1.311,-2.093 0.644,-0.475 1.495,-0.751 2.553,-0.828 l 0.759,-0.046 0.161,1.978 -1.403,0.138 c -0.997,0.092 -1.756,0.406 -2.277,0.943 -0.522,0.537 -0.782,1.273 -0.782,2.208 V 256 Z m 13.594,0.207 c -0.721,0 -1.426,-0.069 -2.116,-0.207 -0.675,-0.153 -1.311,-0.368 -1.909,-0.644 -0.583,-0.291 -1.096,-0.636 -1.541,-1.035 l 0.828,-1.84 c 0.721,0.583 1.464,1.012 2.231,1.288 0.767,0.276 1.579,0.414 2.438,0.414 0.736,0 1.357,-0.107 1.863,-0.322 0.506,-0.215 0.882,-0.529 1.127,-0.943 0.261,-0.414 0.391,-0.912 0.391,-1.495 0,-0.874 -0.291,-1.526 -0.874,-1.955 -0.567,-0.445 -1.395,-0.667 -2.484,-0.667 h -2.507 V 246.8 h 2.277 c 0.659,0 1.219,-0.107 1.679,-0.322 0.46,-0.23 0.813,-0.544 1.058,-0.943 0.261,-0.414 0.391,-0.912 0.391,-1.495 0,-0.782 -0.261,-1.38 -0.782,-1.794 -0.506,-0.429 -1.25,-0.644 -2.231,-0.644 -0.828,0 -1.595,0.146 -2.3,0.437 -0.705,0.291 -1.372,0.736 -2.001,1.334 l -0.828,-1.817 c 0.629,-0.629 1.411,-1.112 2.346,-1.449 0.951,-0.353 1.94,-0.529 2.967,-0.529 1.073,0 1.993,0.169 2.76,0.506 0.782,0.337 1.372,0.82 1.771,1.449 0.414,0.629 0.621,1.38 0.621,2.254 0,0.981 -0.276,1.832 -0.828,2.553 -0.537,0.705 -1.28,1.173 -2.231,1.403 v -0.253 c 0.751,0.123 1.388,0.368 1.909,0.736 0.521,0.368 0.92,0.836 1.196,1.403 0.276,0.567 0.414,1.219 0.414,1.955 0,0.951 -0.23,1.779 -0.69,2.484 -0.445,0.69 -1.089,1.219 -1.932,1.587 -0.843,0.368 -1.848,0.552 -3.013,0.552 z"
     fill="#ffffff"
     id="path1014" />
  <defs
     id="defs1058">
    <linearGradient
       id="paint0_linear_447_4079"
       x1="5"
       y1="101"
       x2="329.867"
       y2="331.341"
       gradientUnits="userSpaceOnUse"
       gradientTransform="translate(110)">
      <stop
         stop-color="#0185FF"
         id="stop1016" />
      <stop
         offset="1"
         stop-color="#01CDFF"
         id="stop1018" />
    </linearGradient>
    <radialGradient
       id="paint1_radial_447_4079"
       cx="0"
       cy="0"
       r="1"
       gradientUnits="userSpaceOnUse"
       gradientTransform="matrix(411.12341,235.34493,-277.97459,485.59303,-440.719,104.4311)">
      <stop
         offset="0.0995467"
         stop-color="#B0E07F"
         id="stop1021" />
      <stop
         offset="0.344281"
         stop-color="#94DEE0"
         id="stop1023" />
      <stop
         offset="0.567519"
         stop-color="#5DA4EF"
         id="stop1025" />
      <stop
         offset="0.859602"
         stop-color="#591BBF"
         id="stop1027" />
    </radialGradient>
    <linearGradient
       id="paint2_linear_447_4079"
       x1="342"
       y1="101"
       x2="666.867"
       y2="331.341"
       gradientUnits="userSpaceOnUse"
       gradientTransform="translate(110)">
      <stop
         stop-color="#0185FF"
         id="stop1030" />
      <stop
         offset="1"
         stop-color="#01CDFF"
         id="stop1032" />
    </linearGradient>
    <radialGradient
       id="paint3_radial_447_4079"
       cx="0"
       cy="0"
       r="1"
       gradientUnits="userSpaceOnUse"
       gradientTransform="matrix(411.12341,235.34493,-277.97459,485.59303,-777.719,104.4311)">
      <stop
         offset="0.0995467"
         stop-color="#B0E07F"
         id="stop1035" />
      <stop
         offset="0.344281"
         stop-color="#94DEE0"
         id="stop1037" />
      <stop
         offset="0.567519"
         stop-color="#5DA4EF"
         id="stop1039" />
      <stop
         offset="0.859602"
         stop-color="#591BBF"
         id="stop1041" />
    </radialGradient>
    <linearGradient
       id="paint4_linear_447_4079"
       x1="679"
       y1="101"
       x2="1003.87"
       y2="331.341"
       gradientUnits="userSpaceOnUse"
       gradientTransform="translate(110)">
      <stop
         stop-color="#0185FF"
         id="stop1044" />
      <stop
         offset="1"
         stop-color="#01CDFF"
         id="stop1046" />
    </linearGradient>
    <radialGradient
       id="paint5_radial_447_4079"
       cx="0"
       cy="0"
       r="1"
       gradientUnits="userSpaceOnUse"
       gradientTransform="matrix(411.12341,235.34493,-277.97459,485.59303,-1114.719,104.4311)">
      <stop
         offset="0.0995467"
         stop-color="#B0E07F"
         id="stop1049" />
      <stop
         offset="0.344281"
         stop-color="#94DEE0"
         id="stop1051" />
      <stop
         offset="0.567519"
         stop-color="#5DA4EF"
         id="stop1053" />
      <stop
         offset="0.859602"
         stop-color="#591BBF"
         id="stop1055" />
    </radialGradient>
  </defs>
</svg>
