<svg xmlns="http://www.w3.org/2000/svg" role="img" viewBox="-6.09 -6.09 446.94 115.94"><defs><style>.cls-1{fill:#fff}.cls-2{fill:#326ce5}</style></defs><g id="its-pronounced"><g id="kyoob-cuttle"><path id="kkkkkkk" d="M139.583 53.815c.823-.926 1.646-1.852 2.572-2.778q1.29-1.436 2.572-2.88c.823-1.03 1.646-1.956 2.367-2.78s1.44-1.645 1.954-2.262h9.98c-1.955 2.263-3.91 4.527-5.864 6.584q-2.778 3.087-6.173 6.482a41.554 41.554 0 0 1 3.498 3.704c1.234 1.44 2.366 2.88 3.498 4.32a43.93 43.93 0 0 1 3.086 4.528c.926 1.543 1.75 2.88 2.367 4.115h-9.67c-.619-1.03-1.339-2.058-2.059-3.19a37.46 37.46 0 0 0-2.47-3.6 29.584 29.584 0 0 0-2.777-3.498 17.678 17.678 0 0 0-2.778-2.778v12.963h-8.436v-42.49l8.436-1.338v24.898" class="cls-1"/><path id="uuuuuuu" d="M188.761 71.819a40.037 40.037 0 0 1-5.555 1.132 39.77 39.77 0 0 1-7.1.514 16.577 16.577 0 0 1-6.378-1.028 9.45 9.45 0 0 1-5.967-7.202 24.194 24.194 0 0 1-.618-5.556V43.115h8.437V58.65c0 2.675.31 4.63 1.03 5.865s2.056 1.852 4.011 1.852a13.117 13.117 0 0 0 1.955-.103c.72-.103 1.235-.103 1.852-.206V43.115h8.436l-.103 28.704" class="cls-1"/><path id="bbbbbbb" d="M215.82 57.724c0-5.452-1.955-8.127-5.968-8.127a10.99 10.99 0 0 0-2.572.308 7.775 7.775 0 0 0-2.057.823v15.33c.411.103.926.103 1.543.206.617 0 1.337.103 2.058.103A6.37 6.37 0 0 0 214.071 64a10.55 10.55 0 0 0 1.75-6.276m8.538.206a18.63 18.63 0 0 1-1.029 6.482 13.242 13.242 0 0 1-2.983 4.938 15.823 15.823 0 0 1-4.836 3.19 18.829 18.829 0 0 1-6.585 1.028c-1.028 0-2.057-.103-3.189-.205s-2.16-.206-3.292-.31c-1.029-.102-2.058-.308-3.087-.514a13.002 13.002 0 0 1-2.572-.72V30.254l8.437-1.337v14.815a14.37 14.37 0 0 1 2.983-.926 17.028 17.028 0 0 1 3.293-.308 13.036 13.036 0 0 1 5.555 1.13 11.142 11.142 0 0 1 4.116 3.088 12.408 12.408 0 0 1 2.47 4.938 29.216 29.216 0 0 1 .72 6.276" class="cls-1"/><path id="eeeeeee0" d="M229.401 58.239a17.557 17.557 0 0 1 1.234-6.893 15.744 15.744 0 0 1 3.19-4.94 11.991 11.991 0 0 1 4.526-2.982 13.75 13.75 0 0 1 5.35-1.03 13.168 13.168 0 0 1 9.98 3.91c2.47 2.572 3.703 6.38 3.703 11.317a9.413 9.413 0 0 1-.102 1.647c0 .514-.103 1.028-.103 1.543h-19.138a5.64 5.64 0 0 0 2.47 4.115 9.79 9.79 0 0 0 5.761 1.543 21.806 21.806 0 0 0 4.527-.411 18.455 18.455 0 0 0 3.704-1.03l1.131 6.894c-.41.206-1.028.412-1.85.72a10.37 10.37 0 0 1-2.574.515 23.221 23.221 0 0 1-2.983.41c-1.029.104-2.16.207-3.19.207a18.09 18.09 0 0 1-6.996-1.234 15.148 15.148 0 0 1-4.938-3.19 14.85 14.85 0 0 1-2.88-4.938 24.165 24.165 0 0 1-.824-6.173m19.857-3.292a6.652 6.652 0 0 0-.412-2.058 6.254 6.254 0 0 0-.926-1.852 4.915 4.915 0 0 0-4.115-1.852 6.216 6.216 0 0 0-2.47.514 4.092 4.092 0 0 0-1.645 1.235 5.395 5.395 0 0 0-1.03 1.852 15.044 15.044 0 0 0-.514 2.058h11.112" class="cls-1"/><path id="rrrrrrr" d="M281.768 50.523a15.46 15.46 0 0 0-2.675-.515 17.027 17.027 0 0 0-3.292-.31 18.138 18.138 0 0 0-1.955.207 16.165 16.165 0 0 0-1.646.309V72.95h-8.437V44.658a43.765 43.765 0 0 1 5.35-1.44 28.942 28.942 0 0 1 6.893-.72 10.015 10.015 0 0 1 1.646.102 14.058 14.058 0 0 1 1.955.206c.618.103 1.235.206 1.955.309.617.103 1.235.309 1.646.41l-1.44 6.998" class="cls-1"/><path id="nnnnnnn" d="M287.735 44.144a49.746 49.746 0 0 1 12.655-1.646 15.693 15.693 0 0 1 6.276 1.028 8.813 8.813 0 0 1 4.012 2.778 12.018 12.018 0 0 1 2.058 4.32 22.95 22.95 0 0 1 .617 5.557v16.77h-8.437V57.21c0-2.675-.308-4.63-1.028-5.762s-2.058-1.646-4.013-1.646a13.116 13.116 0 0 0-1.955.103 10.193 10.193 0 0 0-1.85.206v22.943h-8.335v-28.91" class="cls-1"/><path id="eeeeeee1" d="M319.63 58.239a17.556 17.556 0 0 1 1.233-6.893 15.745 15.745 0 0 1 3.19-4.94 11.99 11.99 0 0 1 4.527-2.982 13.75 13.75 0 0 1 5.35-1.03 13.168 13.168 0 0 1 9.98 3.91c2.468 2.572 3.703 6.38 3.703 11.317a9.412 9.412 0 0 1-.103 1.647c0 .514-.103 1.028-.103 1.543h-19.136a5.64 5.64 0 0 0 2.47 4.115 9.789 9.789 0 0 0 5.76 1.543 21.805 21.805 0 0 0 4.528-.411 18.455 18.455 0 0 0 3.703-1.03l1.132 6.894c-.41.206-1.029.412-1.852.72a10.37 10.37 0 0 1-2.572.515 23.226 23.226 0 0 1-2.984.41c-1.028.104-2.16.207-3.189.207a18.09 18.09 0 0 1-6.996-1.234 15.148 15.148 0 0 1-4.938-3.19 14.85 14.85 0 0 1-2.88-4.938 24.16 24.16 0 0 1-.824-6.173m19.856-3.292a6.653 6.653 0 0 0-.41-2.058 6.255 6.255 0 0 0-.927-1.852 4.915 4.915 0 0 0-4.116-1.852 6.216 6.216 0 0 0-2.469.514 4.092 4.092 0 0 0-1.646 1.235 5.396 5.396 0 0 0-1.029 1.852 15.037 15.037 0 0 0-.514 2.058h11.111" class="cls-1"/><path id="ttttttt" d="M353.89 35.707l8.435-1.337v8.745h10.083v6.995h-10.083v10.494a8.273 8.273 0 0 0 .926 4.218c.618 1.03 1.955 1.544 3.807 1.544a25.227 25.227 0 0 0 2.778-.206 16.728 16.728 0 0 0 2.675-.72l1.234 6.584a16.386 16.386 0 0 1-3.395 1.029 19.779 19.779 0 0 1-4.63.41 15.723 15.723 0 0 1-5.76-.924 9.522 9.522 0 0 1-3.602-2.573 10.208 10.208 0 0 1-1.955-4.115 26.665 26.665 0 0 1-.514-5.247V35.707" class="cls-1"/><path id="eeeeeee2" d="M376.73 58.239a17.556 17.556 0 0 1 1.234-6.893 15.744 15.744 0 0 1 3.19-4.94 11.99 11.99 0 0 1 4.526-2.982 13.75 13.75 0 0 1 5.35-1.03 13.168 13.168 0 0 1 9.98 3.91c2.47 2.572 3.703 6.38 3.703 11.317a9.413 9.413 0 0 1-.103 1.647c0 .514-.103 1.028-.103 1.543h-19.136a5.64 5.64 0 0 0 2.47 4.115 9.789 9.789 0 0 0 5.76 1.543 21.805 21.805 0 0 0 4.528-.411 18.455 18.455 0 0 0 3.703-1.03l1.132 6.894c-.41.206-1.029.412-1.852.72a10.371 10.371 0 0 1-2.572.515 23.226 23.226 0 0 1-2.983.41c-1.03.104-2.16.207-3.19.207a18.09 18.09 0 0 1-6.996-1.234 15.147 15.147 0 0 1-4.938-3.19 14.85 14.85 0 0 1-2.88-4.938 20.343 20.343 0 0 1-.824-6.173m19.754-3.292a6.652 6.652 0 0 0-.412-2.058 6.254 6.254 0 0 0-.926-1.852 4.915 4.915 0 0 0-4.115-1.852 6.216 6.216 0 0 0-2.47.514 4.092 4.092 0 0 0-1.646 1.235 5.395 5.395 0 0 0-1.028 1.852 15.037 15.037 0 0 0-.515 2.058h11.112" class="cls-1"/><path id="sssssss" d="M419.631 66.778a8.454 8.454 0 0 0 3.293-.411 1.802 1.802 0 0 0 .925-1.75c0-.72-.41-1.234-1.234-1.748a19.516 19.516 0 0 0-3.807-1.75c-1.337-.514-2.572-1.028-3.6-1.543a10.286 10.286 0 0 1-2.676-1.852 8.046 8.046 0 0 1-1.749-2.675 9.968 9.968 0 0 1-.617-3.703 7.828 7.828 0 0 1 3.086-6.585c2.058-1.646 4.94-2.47 8.54-2.47a29.267 29.267 0 0 1 5.247.515 19.02 19.02 0 0 1 3.91 1.03l-1.44 6.584a122.23 122.23 0 0 0-3.19-.926 14.394 14.394 0 0 0-3.807-.412c-2.675 0-3.91.72-3.91 2.16a3.004 3.004 0 0 0 .206.927 1.728 1.728 0 0 0 .72.823c.31.206.823.514 1.338.823.617.308 1.337.514 2.263.926a33.94 33.94 0 0 1 4.63 2.057 7.682 7.682 0 0 1 2.778 2.16 5.374 5.374 0 0 1 1.44 2.573 10.677 10.677 0 0 1 .412 3.292 7.669 7.669 0 0 1-3.293 6.688c-2.16 1.543-5.247 2.263-9.362 2.263a23.783 23.783 0 0 1-6.584-.72 18.78 18.78 0 0 1-3.6-1.132l1.44-6.893a31.442 31.442 0 0 0 4.423 1.337 18.932 18.932 0 0 0 4.218.412" class="cls-1"/></g></g><path d="M4.233 60.98h4.881v3.877h-4.88z" class="cls-1"/><path d="M62.304 58.789a1.65 1.65 0 0 0-.393-.03 1.694 1.694 0 0 0-.655.17 1.712 1.712 0 0 0-.829 2.218l-.012.017 3.92 9.47a20.008 20.008 0 0 0 8.087-10.16l-10.1-1.705zm-15.717 1.34a1.71 1.71 0 0 0-1.64-1.33 1.68 1.68 0 0 0-.337.03l-.017-.02-10.013 1.7a20.084 20.084 0 0 0 8.062 10.087l3.88-9.376-.03-.037a1.693 1.693 0 0 0 .095-1.053zm8.386 3.678a1.709 1.709 0 0 0-3.014.004h-.008l-4.924 8.904a20.057 20.057 0 0 0 10.946.563q1.01-.23 1.973-.551l-4.936-8.92zm15.588-20.682l-7.576 6.78.004.022a1.712 1.712 0 0 0 .671 2.939l.01.04 9.813 2.828a20.352 20.352 0 0 0-2.922-12.61zm-14.075.759a1.712 1.712 0 0 0 2.718 1.305l.03.013 8.29-5.878a20.155 20.155 0 0 0-11.623-5.604l.576 10.16zm-8.779 1.343a1.71 1.71 0 0 0 2.714-1.31l.042-.02.576-10.176a20.533 20.533 0 0 0-2.069.356 19.979 19.979 0 0 0-9.623 5.244l8.344 5.915zm-4.448 7.689a1.71 1.71 0 0 0 .672-2.94l.008-.04-7.618-6.814a19.973 19.973 0 0 0-2.835 12.645l9.765-2.818zm7.4 2.993l2.81 1.35 2.801-1.347.696-3.025-1.939-2.425h-3.12l-1.946 2.42z" class="cls-2"/><path d="M99.925 61.869l-8.008-34.783a6.252 6.252 0 0 0-3.352-4.17L56.151 7.44a6.246 6.246 0 0 0-5.38 0L18.364 22.924a6.25 6.25 0 0 0-3.353 4.17L7.016 61.876a6.12 6.12 0 0 0-.002 2.67 6.206 6.206 0 0 0 .226.79 6.022 6.022 0 0 0 .617 1.253c.11.168.226.33.352.489l22.432 27.89c.098.12.206.232.313.345a6.17 6.17 0 0 0 1.183.98 6.4 6.4 0 0 0 1.773.77 6.112 6.112 0 0 0 1.576.218h.35l35.623-.008a5.976 5.976 0 0 0 .648-.038 6.19 6.19 0 0 0 .914-.174 6.372 6.372 0 0 0 .635-.203q.244-.09.48-.2a6.407 6.407 0 0 0 .68-.377 6.115 6.115 0 0 0 1.488-1.317l.684-.85 21.74-27.045a6.06 6.06 0 0 0 .97-1.74 6.283 6.283 0 0 0 .23-.792 6.105 6.105 0 0 0-.003-2.67zm-33.62 13.528a6.67 6.67 0 0 0 .322.783 1.523 1.523 0 0 0-.15 1.144 18.097 18.097 0 0 0 1.72 3.08 16.123 16.123 0 0 1 1.04 1.546c.078.145.18.369.254.522a1.949 1.949 0 1 1-3.507 1.658c-.074-.152-.177-.354-.24-.497a16.21 16.21 0 0 1-.563-1.778 18.067 18.067 0 0 0-1.33-3.262 1.533 1.533 0 0 0-.99-.601c-.063-.107-.293-.528-.416-.746a25.104 25.104 0 0 1-17.902-.046l-.439.796a1.576 1.576 0 0 0-.836.407 13.567 13.567 0 0 0-1.502 3.485 16.04 16.04 0 0 1-.56 1.778c-.062.142-.166.342-.24.493v.004l-.003.004a1.948 1.948 0 1 1-3.502-1.662c.073-.154.171-.377.248-.522a16.168 16.168 0 0 1 1.04-1.55 18.95 18.95 0 0 0 1.756-3.156 1.925 1.925 0 0 0-.173-1.097l.353-.846a25.244 25.244 0 0 1-11.187-13.967l-.845.144a2.151 2.151 0 0 0-1.116-.393 18.167 18.167 0 0 0-3.38.995 16.355 16.355 0 0 1-1.742.667c-.14.038-.342.077-.502.112-.013.004-.024.01-.037.013l-.03.003a1.947 1.947 0 1 1-.86-3.78l.027-.007.017-.005c.162-.038.37-.092.518-.12a16.212 16.212 0 0 1 1.861-.15 18.105 18.105 0 0 0 3.477-.571 2.682 2.682 0 0 0 .834-.841l.812-.237a25.102 25.102 0 0 1 3.96-17.5l-.623-.554a2.155 2.155 0 0 0-.39-1.12 18.094 18.094 0 0 0-2.885-2.027 16.202 16.202 0 0 1-1.608-.94c-.118-.088-.274-.22-.402-.324l-.029-.02a2.056 2.056 0 0 1-.477-2.86 1.869 1.869 0 0 1 1.546-.684 2.312 2.312 0 0 1 1.352.51c.132.104.313.242.43.343a16.205 16.205 0 0 1 1.278 1.356A18.103 18.103 0 0 0 33.3 35.74a1.532 1.532 0 0 0 1.152.112c.111.082.486.35.7.497a24.953 24.953 0 0 1 12.675-7.241 25.302 25.302 0 0 1 3.507-.54l.046-.82a2.115 2.115 0 0 0 .63-1.003 18.142 18.142 0 0 0-.216-3.518 16.306 16.306 0 0 1-.265-1.845c-.005-.141.003-.336.005-.497 0-.018-.005-.036-.005-.054a1.95 1.95 0 1 1 3.88-.002c0 .17.01.396.004.552a16.14 16.14 0 0 1-.266 1.844 18.169 18.169 0 0 0-.22 3.519 1.537 1.537 0 0 0 .634.97c.007.14.03.608.047.866a25.422 25.422 0 0 1 16.102 7.78l.738-.527a2.156 2.156 0 0 0 1.177-.128 18.17 18.17 0 0 0 2.615-2.366 16.095 16.095 0 0 1 1.281-1.356c.12-.102.3-.24.43-.343a1.95 1.95 0 1 1 2.417 3.033c-.13.105-.302.252-.427.345a16.133 16.133 0 0 1-1.612.94 18.153 18.153 0 0 0-2.885 2.027 1.534 1.534 0 0 0-.364 1.099c-.108.099-.487.435-.688.617a25.205 25.205 0 0 1 4.041 17.458l.783.228a2.181 2.181 0 0 0 .837.842 18.14 18.14 0 0 0 3.478.572 16.384 16.384 0 0 1 1.86.149c.163.03.4.095.565.133a1.947 1.947 0 1 1-.863 3.78l-.028-.004c-.013-.003-.025-.01-.038-.013-.16-.035-.36-.07-.5-.107a16.154 16.154 0 0 1-1.74-.672 18.146 18.146 0 0 0-3.385-.995 1.534 1.534 0 0 0-1.086.403q-.413-.08-.829-.145a25.243 25.243 0 0 1-11.182 14.067z" class="cls-2"/><path d="M104.153 62.76l-8.736-37.947a6.82 6.82 0 0 0-3.658-4.55L56.397 3.38a6.814 6.814 0 0 0-5.87 0L15.168 20.273a6.82 6.82 0 0 0-3.659 4.548L2.79 62.77a6.742 6.742 0 0 0 .916 5.14 6.526 6.526 0 0 0 .385.535l24.474 30.43a6.885 6.885 0 0 0 5.285 2.522l39.247-.01a6.888 6.888 0 0 0 5.286-2.518l24.465-30.433a6.766 6.766 0 0 0 1.306-5.675zm-4.227 1.778a6.285 6.285 0 0 1-.229.792 6.06 6.06 0 0 1-.97 1.74l-21.74 27.044-.683.85a6.115 6.115 0 0 1-1.489 1.318 6.41 6.41 0 0 1-.678.378q-.236.109-.48.198a6.373 6.373 0 0 1-.636.204 6.191 6.191 0 0 1-.914.174 5.973 5.973 0 0 1-.648.038l-35.624.008h-.349a6.113 6.113 0 0 1-1.576-.217 6.4 6.4 0 0 1-1.772-.771 6.17 6.17 0 0 1-1.184-.98c-.107-.113-.215-.224-.313-.345L8.21 67.079q-.188-.236-.352-.49a6.022 6.022 0 0 1-.617-1.253 6.207 6.207 0 0 1-.226-.79 6.12 6.12 0 0 1 .002-2.67l7.995-34.783a6.25 6.25 0 0 1 3.353-4.17L50.772 7.442a6.246 6.246 0 0 1 5.38 0l32.413 15.476a6.252 6.252 0 0 1 3.352 4.17l8.008 34.783a6.105 6.105 0 0 1 .001 2.669z" class="cls-1"/><path d="M85.955 59.083c-.166-.038-.402-.103-.564-.133a16.382 16.382 0 0 0-1.86-.15 18.14 18.14 0 0 1-3.479-.571 2.18 2.18 0 0 1-.837-.842l-.783-.228a25.205 25.205 0 0 0-4.04-17.458c.2-.182.58-.518.687-.617a1.534 1.534 0 0 1 .364-1.1 18.154 18.154 0 0 1 2.885-2.026 16.127 16.127 0 0 0 1.612-.94c.125-.093.296-.24.427-.345a1.95 1.95 0 1 0-2.416-3.033c-.132.104-.312.24-.43.343a16.09 16.09 0 0 0-1.282 1.356 18.17 18.17 0 0 1-2.615 2.366 2.156 2.156 0 0 1-1.177.128l-.738.527a25.422 25.422 0 0 0-16.102-7.78c-.018-.258-.04-.725-.047-.866a1.537 1.537 0 0 1-.633-.97 18.172 18.172 0 0 1 .22-3.52 16.137 16.137 0 0 0 .264-1.843c.006-.156-.003-.383-.003-.552a1.95 1.95 0 1 0-3.88.002c0 .018.004.036.005.054-.002.16-.01.356-.005.497a16.308 16.308 0 0 0 .265 1.845 18.143 18.143 0 0 1 .216 3.518 2.115 2.115 0 0 1-.63 1.003l-.046.82a25.302 25.302 0 0 0-3.507.54 24.953 24.953 0 0 0-12.674 7.24q-.354-.243-.7-.496a1.532 1.532 0 0 1-1.153-.112 18.1 18.1 0 0 1-2.615-2.363 16.206 16.206 0 0 0-1.277-1.356c-.118-.101-.299-.24-.43-.344a2.312 2.312 0 0 0-1.353-.51 1.869 1.869 0 0 0-1.546.684 2.056 2.056 0 0 0 .477 2.86l.03.02c.127.105.283.238.401.324a16.202 16.202 0 0 0 1.608.94 18.094 18.094 0 0 1 2.885 2.029 2.155 2.155 0 0 1 .39 1.119l.621.555a25.102 25.102 0 0 0-3.958 17.5l-.812.236a2.682 2.682 0 0 1-.834.84 18.106 18.106 0 0 1-3.477.573 16.212 16.212 0 0 0-1.86.15c-.15.027-.357.08-.519.12l-.017.004-.028.008a1.947 1.947 0 1 0 .862 3.78l.03-.004c.012-.003.023-.01.036-.012.16-.036.361-.075.502-.113a16.358 16.358 0 0 0 1.74-.667 18.167 18.167 0 0 1 3.382-.995 2.151 2.151 0 0 1 1.115.394l.846-.145a25.244 25.244 0 0 0 11.187 13.967l-.353.846a1.925 1.925 0 0 1 .173 1.097 18.949 18.949 0 0 1-1.756 3.155 16.173 16.173 0 0 0-1.04 1.55c-.077.146-.175.37-.249.523a1.948 1.948 0 1 0 3.503 1.662l.003-.004v-.004c.074-.152.178-.351.24-.493a16.04 16.04 0 0 0 .56-1.778 13.567 13.567 0 0 1 1.502-3.485 1.576 1.576 0 0 1 .836-.408l.44-.795a25.104 25.104 0 0 0 17.901.045c.123.22.353.64.414.746a1.533 1.533 0 0 1 .99.602 18.067 18.067 0 0 1 1.332 3.262 16.219 16.219 0 0 0 .563 1.778c.063.143.166.345.24.497a1.949 1.949 0 1 0 3.507-1.658c-.074-.153-.176-.377-.253-.522a16.121 16.121 0 0 0-1.04-1.546 18.095 18.095 0 0 1-1.72-3.08 1.523 1.523 0 0 1 .15-1.144 6.671 6.671 0 0 1-.324-.783A25.243 25.243 0 0 0 77.486 61.33c.251.04.688.116.83.145a1.534 1.534 0 0 1 1.085-.403 18.144 18.144 0 0 1 3.383.995 16.149 16.149 0 0 0 1.741.672c.14.037.34.072.501.107.013.004.025.01.038.013l.028.004a1.947 1.947 0 1 0 .863-3.78zM67.523 39.325l-8.29 5.877-.029-.013a1.711 1.711 0 0 1-2.718-1.305l-.009-.004-.576-10.16a20.155 20.155 0 0 1 11.622 5.605zM51.906 50.46h3.12l1.94 2.425-.696 3.025-2.802 1.348-2.81-1.351-.697-3.026zM48.97 34.075a20.535 20.535 0 0 1 2.07-.356l-.577 10.175-.042.02a1.71 1.71 0 0 1-2.714 1.31l-.016.01-8.344-5.916a19.98 19.98 0 0 1 9.623-5.243zm-12.649 9.047l7.618 6.813-.008.042a1.71 1.71 0 0 1-.672 2.939l-.008.033-9.765 2.818a19.973 19.973 0 0 1 2.835-12.645zm10.2 18.1l-3.88 9.375a20.084 20.084 0 0 1-8.06-10.088l10.012-1.7.017.022a1.68 1.68 0 0 1 .336-.03 1.71 1.71 0 0 1 1.546 2.383zm11.452 12.057a20.057 20.057 0 0 1-10.946-.563l4.924-8.904h.008a1.712 1.712 0 0 1 3.014-.003h.037l4.936 8.919q-.96.32-1.973.55zm6.362-2.644l-3.92-9.471.012-.017a1.712 1.712 0 0 1 .83-2.217 1.694 1.694 0 0 1 .654-.17 1.65 1.65 0 0 1 .393.029l.017-.021 10.101 1.707a20.008 20.008 0 0 1-8.087 10.16zm9.148-14.901l-9.814-2.827-.009-.041a1.712 1.712 0 0 1-.67-2.94l-.005-.02 7.576-6.78a20.352 20.352 0 0 1 2.922 12.608z" class="cls-1"/></svg>