<svg version="1.1" id="Layer_1" xmlns:x="ns_extend;" xmlns:i="ns_ai;" xmlns:graph="ns_graphs;" xmlns="http://www.w3.org/2000/svg" xmlns:xlink="http://www.w3.org/1999/xlink" x="0px" y="0px" viewBox="0 0 397.2 97.9" width="223.25536" height="134.51135" style="enable-background:new 0 0 397.2 97.9;" xml:space="preserve">
 <style type="text/css">
  .st0{fill-rule:evenodd;clip-rule:evenodd;}
 </style>
 <metadata>
  <sfw xmlns="ns_sfw;">
   <slices>
   </slices>
   <sliceSourceBounds bottomLeftOrigin="true" height="97.9" width="397.2" x="1.2" y="-249.1">
   </sliceSourceBounds>
  </sfw>
 </metadata>
 <g>
  <path class="st0" d="M0,22.3L43.1,0l43.6,22.3L43.1,44.8L0,22.3z M258.9,33.2v-0.5c0-7.4,4.3-9.7,11.6-9.2V10
		C253,9,244.7,17.7,244.7,32.7v0.5h-7.9v13.4h7.9v40.7h14.1V46.6h8.4h3.3h4.6v40.7h14.1V46.6h11.6V33.2h-11.6v-0.5
		c0-7.4,4.3-9.7,11.6-9.2V10c-17.5-1.1-25.8,7.7-25.8,22.6v0.5h-4.6h-3.3H258.9z M160,47.9c4.5-3.6,7.2-8.7,7.2-15.2
		c0-12.7-10.3-21.3-23.3-21.3h-30.2v75.8h32.6c13.3,0,24-9,24-22C170.2,57.4,166.2,51.4,160,47.9z M144,25.4c4.9,0,8.2,3.6,8.2,8.4
		s-3.5,8.4-8.2,8.4h-15.1V25.4H144z M146.3,73.3h-17.4V55.5h17.4c5.2,0,8.9,3.8,8.9,8.9C155.2,69.5,151.5,73.3,146.3,73.3z
		 M214.4,33.1v29.2c0,9.4-5.2,13.4-12.1,13.4c-6.4,0-10.9-3.8-10.9-11.2V33.1h-14.1v33.3c0,14.4,9,22.4,20.8,22.4
		c7.4,0,13.1-2.7,16.3-7.6v6.1h14.1V33.1H214.4z M359.6,65.9h-41.4c2.1,7.1,8,10.2,15.4,10.2c5.5,0,10-2.3,12.3-5.4l11.4,6.5
		c-5.1,7.4-13.3,11.6-23.9,11.6c-18.4,0-30-12.5-30-28.6c0-16.2,11.7-28.6,29-28.6c16.2,0,27.8,12.7,27.8,28.6
		C360.1,62.3,359.9,64.1,359.6,65.9z M332.3,44.2c-7.6,0-12.8,4-14.4,10.9h28C344.2,47.3,338.3,44.2,332.3,44.2z M380.6,42.5v-9.3
		h-14.1v54.2h14.1V61.4c0-11.4,9.3-14.7,16.7-13.8V32.1C390.3,32.1,383.4,35.1,380.6,42.5z M43.1,83.1l-29.4-16L0,74.5l43.1,23.4
		l43.6-23.4l-13.9-7.4L43.1,83.1z M13.7,42l29.4,14.5L72.9,42l13.9,6.8L43.1,69.9L0,48.7L13.7,42z">
  </path>
 </g>
</svg>