<svg id="Layer_1" data-name="Layer 1" xmlns="http://www.w3.org/2000/svg" xmlns:xlink="http://www.w3.org/1999/xlink" viewBox="0 0 215 127"><defs><style>.cls-1{fill:#fff;}.cls-2{fill:transparent;}.cls-3{fill:#192534;}.cls-4{mask:url(#mask);}.cls-5{mask:url(#mask-2-2);}.cls-6{mask:url(#mask-3);}</style><mask id="mask" x="14.75095" y="70.72244" width="32.48851" height="10.3304" maskUnits="userSpaceOnUse"><g id="mask-2"><polygon id="path-1" class="cls-1" points="14.751 81.053 14.751 70.722 47.239 70.722 47.239 81.053 14.751 81.053"/></g></mask><mask id="mask-2-2" x="14.75095" y="60.57418" width="32.48851" height="10.3304" maskUnits="userSpaceOnUse"><g id="mask-4"><polygon id="path-3" class="cls-1" points="14.751 70.905 14.751 60.574 47.239 60.574 47.239 70.905 14.751 70.905"/></g></mask><mask id="mask-3" x="14.75079" y="45.87467" width="32.48853" height="14.92678" maskUnits="userSpaceOnUse"><g id="mask-6"><polygon id="path-5" class="cls-1" points="14.751 60.801 14.751 45.875 47.239 45.875 47.239 60.801 14.751 60.801"/></g></mask></defs><title>kubernetes.io-logos</title><rect class="cls-2" x="-3.55202" y="-3.16104" width="223.25536" height="134.51136"/><g id="Symbols"><g id="Mobile-Header"><g id="Group-4"><g id="Mobile-Logo"><g id="Group"><g id="Group-3"><path id="Fill-1" class="cls-3" d="M190.28379,79.32487h-6.37906V54.34018h6.37906v3.41436a10.33414,10.33414,0,0,1,7.73637-4.03515v6.41449a8.21414,8.21414,0,0,0-1.75906-.15516c-2.10911,0-4.92212,1.24163-5.97731,2.84489ZM173.10344,64.47949a5.69574,5.69574,0,0,0-5.97731-5.53592c-3.96771,0-5.67637,3.05266-5.97732,5.53592ZM167.5278,79.94566c-7.38379,0-12.9595-5.12161-12.9595-13.13943,0-7.24181,5.174-13.08684,12.55783-13.08684,7.234,0,12.15607,5.58723,12.15607,13.76022v1.4481H161.24952c.40168,3.15535,2.86336,5.79371,6.98219,5.79371a10.15786,10.15786,0,0,0,6.47972-2.48319l2.813,4.24168c-2.41134,2.27549-6.22917,3.46575-9.99665,3.46575Zm-19.24929-.62079h-6.43068V60.08257h-4.018V54.34018h4.018V52.99592c0-5.32809,3.31543-8.68991,8.18843-8.68991a8.489,8.489,0,0,1,6.32989,2.32674l-2.41135,3.88a3.50681,3.50681,0,0,0-2.66312-1.03509c-1.75782,0-3.01317,1.19026-3.01317,3.51828v1.34426h4.92207v5.74239h-4.92207Zm-16.426,0H125.4218V60.08257h-4.0194V54.34018h4.0194V52.99592c0-5.32809,3.31541-8.68991,8.18843-8.68991a8.48418,8.48418,0,0,1,6.3286,2.32674l-2.41012,3.88a3.50683,3.50683,0,0,0-2.66312-1.03509c-1.75782,0-3.01318,1.19026-3.01318,3.51828v1.34426h4.92212v5.74239h-4.92212v19.2423Zm-14.43053,0h-6.38022V76.16952a11.21263,11.21263,0,0,1-8.53978,3.77613c-5.32385,0-7.83586-3.00012-7.83586-7.86259V54.34018h6.379v15.157c0,3.46574,1.75911,4.60345,4.4714,4.60345a7.07632,7.07632,0,0,0,5.52531-2.8449V54.34017H117.422v24.9847ZM71.87264,71.307a7.0348,7.0348,0,0,0,5.4762,2.79359c3.7171,0,6.17877-2.8975,6.17877-7.24181,0-4.34567-2.46168-7.29441-6.17877-7.29441a6.9786,6.9786,0,0,0-5.47621,2.8975V71.307Zm0,8.01788h-6.379V43.734h6.379V57.54807a9.2539,9.2539,0,0,1,7.48587-3.82868c6.17748,0,10.74961,4.96639,10.74961,13.13944,0,8.32821-4.62118,13.08683-10.74961,13.08683a9.33043,9.33043,0,0,1-7.48587-3.82745v3.20666Z"/></g><g id="Group-6"><g class="cls-4"><path id="Fill-4" class="cls-3" d="M47.00136,72.68049l-3.69521-1.83918a1.4583,1.4583,0,0,0-1.15329,0L31.57117,76.108a1.455,1.455,0,0,1-1.15194,0L19.83748,70.84131a1.45828,1.45828,0,0,0-1.15328,0L14.989,72.68049c-.31738.15841-.31738.416,0,.57308L30.41923,80.934a1.45553,1.45553,0,0,0,1.15194,0l15.43019-7.68046c.31738-.15706.31738-.41467,0-.57308"/></g></g><g id="Group-9"><g class="cls-5"><path id="Fill-7" class="cls-3" d="M47.00136,62.53223l-3.69521-1.83917a1.45872,1.45872,0,0,0-1.15329,0L31.57117,65.95984a1.46694,1.46694,0,0,1-1.15194,0L19.83748,60.69306a1.4587,1.4587,0,0,0-1.15328,0L14.989,62.53223c-.31738.15842-.31738.416,0,.5745l15.43024,7.67905a1.45553,1.45553,0,0,0,1.15194,0l15.43019-7.67905c.31738-.15848.31738-.41608,0-.5745"/></g></g><g id="Group-12"><g class="cls-6"><path id="Fill-10" class="cls-3" d="M14.98887,53.6031l15.43018,7.08965a1.58033,1.58033,0,0,0,1.15194,0L47.00123,53.6031c.31744-.14628.31744-.38408,0-.52907L31.571,45.98438a1.56676,1.56676,0,0,0-1.15194,0L14.98887,53.074c-.31744.145-.31744.38279,0,.52907"/></g></g></g></g></g></g></g></svg>