<svg xmlns="http://www.w3.org/2000/svg" id="Layer_1" data-name="Layer 1" viewBox="0 0 215.989 128.406"><defs><style>.cls-1{fill:#f9f9f9}.cls-2{fill:#4c81c2}</style></defs><title>ibm_featured_logo</title><rect width="229.489" height="143.993" x="-6" y="-9" class="cls-1"/><polygon points="190.441 33.693 162.454 33.693 164.178 28.868 190.441 28.868 190.441 33.693" class="cls-2"/><path d="M115.83346,28.867l25.98433-.003,1.7014,4.83715c.01251-.00687-27.677.00593-27.677,0C115.84224,33.69422,115.82554,28.867,115.83346,28.867Z" class="cls-2"/><path d="M95.19668,28.86593A18.6894,18.6894,0,0,1,106.37358,33.7s-47.10052.00489-47.10052,0V28.86488Z" class="cls-2"/><rect width="32.721" height="4.826" x="22.312" y="28.866" class="cls-2"/><path d="M190.44115,42.74673h-31.194s1.70142-4.79994,1.691-4.80193h29.50305Z" class="cls-2"/><polygon points="146.734 42.753 115.832 42.753 115.832 37.944 145.041 37.944 146.734 42.753" class="cls-2"/><path d="M110.04127,37.94271a12.47,12.47,0,0,1,1.35553,4.80214H59.28193V37.94271Z" class="cls-2"/><rect width="32.721" height="4.802" x="22.312" y="37.943" class="cls-2"/><polygon points="156.056 51.823 157.768 46.998 181.191 47.005 181.191 51.812 156.056 51.823" class="cls-2"/><polygon points="148.237 46.997 149.944 51.823 125.046 51.823 125.046 46.997 148.237 46.997" class="cls-2"/><path d="M111.81,46.99627a15.748,15.748,0,0,1-.68923,4.82641H96.85137V46.99627Z" class="cls-2"/><rect width="14.064" height="4.802" x="31.432" y="47.02" class="cls-2"/><rect width="14.04" height="4.825" x="68.749" y="46.996" class="cls-2"/><path d="M138.87572,57.03292s.004,3.65225.001,3.65913H125.04558V55.89h26.35583l1.637,4.4773c.00773.00292,1.57841-4.48815,1.58153-4.47835h26.56223V60.692h-13.763c-.00124-.00687-.00771-3.65819-.00771-3.65819l-1.273,3.65819-25.99183-.00687Z" class="cls-2"/><path d="M68.7486,55.889h40.30365v-.00188a18.13723,18.13723,0,0,1-3.99812,4.80494s-36.30647.00668-36.30647,0Z" class="cls-2"/><rect width="14.064" height="4.803" x="31.432" y="55.888" class="cls-2"/><rect width="13.763" height="4.802" x="167.419" y="64.943" class="cls-2"/><path d="M138.87572,64.94348H125.04558V69.7456c-.00688-.0025,13.83411.00167,13.83411,0C138.87969,69.7431,138.89532,64.94348,138.87572,64.94348Z" class="cls-2"/><path d="M164.63927,64.94348c-.06255-.007-1.61218,4.79962-1.67723,4.80212l-19.60378.00835c-.01543-.00751-1.72371-4.81745-1.725-4.81047Z" class="cls-2"/><path d="M68.74672,64.94233H104.985a23.7047,23.7047,0,0,1,4.32076,4.80327c.06609-.0025-40.5581.00167-40.5581,0Z" class="cls-2"/><path d="M45.49359,69.74436v-4.802H31.45487V69.7431Z" class="cls-2"/><rect width="13.762" height="4.803" x="167.419" y="73.997" class="cls-2"/><rect width="13.831" height="4.802" x="125.045" y="73.997" class="cls-2"/><path d="M159.74351,78.8224c.00376-.02169,1.69745-4.82964,1.72373-4.82547H144.80219c-.029-.00209,1.70848,4.80378,1.70848,4.80378S159.7404,78.84241,159.74351,78.8224Z" class="cls-2"/><path d="M68.74766,78.79905c0,.01919-.00094-4.80212,0-4.803H82.9958s.01272,4.80462,0,4.80462C82.98224,78.80072,68.74766,78.79489,68.74766,78.79905Z" class="cls-2"/><path d="M111.30529,73.9961a13.94783,13.94783,0,0,1,.89542,4.825H97.10364v-4.825Z" class="cls-2"/><rect width="14.039" height="4.802" x="31.455" y="73.996" class="cls-2"/><rect width="23.021" height="4.804" x="167.419" y="82.865" class="cls-2"/><rect width="23.044" height="4.804" x="115.831" y="82.865" class="cls-2"/><polygon points="156.647 87.669 149.618 87.669 147.931 82.865 158.272 82.865 156.647 87.669" class="cls-2"/><path d="M22.3099,82.86525v4.80212H55.008c.01366.00751-.01469-4.79919,0-4.79919Z" class="cls-2"/><path d="M111.60237,82.86525c-.3442,1.58445-.65962,3.5158-1.81732,4.80421l-.43175-.00209H59.28005V82.86525Z" class="cls-2"/><polygon points="153.461 96.733 152.814 96.733 151.171 91.92 155.147 91.92 153.461 96.733" class="cls-2"/><rect width="23.022" height="4.825" x="167.418" y="91.92" class="cls-2"/><path d="M59.27307,96.73333V91.92745s47.24073.00585,47.37623.00585A17.945,17.945,0,0,1,94.43864,96.745l-35.15859-.00959" class="cls-2"/><rect width="23.044" height="4.825" x="115.831" y="91.92" class="cls-2"/><path d="M55.008,91.94079s-.01469,4.79253,0,4.79253c.01366,0-32.6885.0196-32.69809.00961-.00888-.00961.00875-4.81548,0-4.81548S54.9933,91.95664,55.008,91.94079Z" class="cls-2"/></svg>